<?xml version="1.0" encoding="UTF-8" standalone="no"?>
<!-- Created with Inkscape (http://www.inkscape.org/) -->

<svg
   width="590.07092"
   height="683.92676"
   id="svg2"
   sodipodi:version="0.32"
   inkscape:version="1.3.2 (091e20e, 2023-11-25)"
   sodipodi:docname="experimento-Cavendish.svg"
   inkscape:output_extension="org.inkscape.output.svg.inkscape"
   version="1.0"
   sodipodi:modified="true"
   xmlns:inkscape="http://www.inkscape.org/namespaces/inkscape"
   xmlns:sodipodi="http://sodipodi.sourceforge.net/DTD/sodipodi-0.dtd"
   xmlns="http://www.w3.org/2000/svg"
   xmlns:svg="http://www.w3.org/2000/svg"
   xmlns:rdf="http://www.w3.org/1999/02/22-rdf-syntax-ns#"
   xmlns:cc="http://creativecommons.org/ns#"
   xmlns:dc="http://purl.org/dc/elements/1.1/">
  <defs
     id="defs4" />
  <sodipodi:namedview
     id="base"
     pagecolor="#ffffff"
     bordercolor="#666666"
     borderopacity="1.0"
     gridtolerance="10000"
     guidetolerance="10"
     objecttolerance="10"
     inkscape:pageopacity="0.0"
     inkscape:pageshadow="2"
     inkscape:zoom="0.78942573"
     inkscape:cx="278.05022"
     inkscape:cy="376.22285"
     inkscape:document-units="px"
     inkscape:current-layer="layer2"
     showguides="false"
     inkscape:guide-bbox="true"
     inkscape:window-width="1512"
     inkscape:window-height="945"
     inkscape:window-x="1920"
     inkscape:window-y="89"
     height="756.36px"
     width="691.09px"
     inkscape:showpageshadow="2"
     inkscape:pagecheckerboard="0"
     inkscape:deskcolor="#d1d1d1"
     inkscape:window-maximized="0">
    <sodipodi:guide
       orientation="vertical"
       position="295.26491,24.353627"
       id="guide9932"
       inkscape:locked="false" />
    <sodipodi:guide
       orientation="horizontal"
       position="-50.703566,323.21597"
       id="guide3207"
       inkscape:locked="false" />
  </sodipodi:namedview>
  <metadata
     id="metadata7">
    <rdf:RDF>
      <cc:Work
         rdf:about="">
        <dc:format>image/svg+xml</dc:format>
        <dc:type
           rdf:resource="http://purl.org/dc/dcmitype/StillImage" />
      </cc:Work>
    </rdf:RDF>
  </metadata>
  <g
     inkscape:label="Layer 1"
     inkscape:groupmode="layer"
     id="layer1"
     style="display:inline"
     transform="translate(-50.703566,-38.901051)">
    <ellipse
       style="fill:none;fill-opacity:1;stroke:#000000;stroke-width:1.5;stroke-miterlimit:4;stroke-dasharray:12, 12;stroke-dashoffset:15;stroke-opacity:1"
       id="path5097"
       transform="translate(-31.404099,-87.931477)"
       cx="377.14285"
       cy="545.2193"
       rx="294.28571"
       ry="130" />
    <circle
       transform="rotate(12.313446)"
       style="fill:#ff0000;fill-rule:evenodd;stroke:#000000;stroke-width:1px;stroke-linecap:butt;stroke-linejoin:miter;stroke-opacity:1"
       id="path6264"
       cx="331.22769"
       cy="270.26556"
       r="40.714287" />
    <path
       sodipodi:nodetypes="cc"
       id="path9135"
       d="M 275.92288,351.09527 405.97803,548.81554"
       style="fill:none;fill-rule:evenodd;stroke:#000000;stroke-width:7.998;stroke-linecap:round;stroke-linejoin:miter;stroke-miterlimit:2.1;stroke-dasharray:none;stroke-opacity:1" />
    <circle
       style="fill:#ff0000;fill-rule:evenodd;stroke:#000000;stroke-width:1px;stroke-linecap:butt;stroke-linejoin:miter;stroke-opacity:1"
       id="path7287"
       transform="rotate(12.313446)"
       cx="544.18115"
       cy="477.68439"
       r="40.714287" />
    <circle
       style="color:#000000;display:inline;overflow:visible;visibility:visible;opacity:1;fill:#a2a0a2;fill-opacity:1;fill-rule:nonzero;stroke:#000000;stroke-width:1;stroke-linecap:butt;stroke-linejoin:miter;stroke-miterlimit:4;stroke-dasharray:none;stroke-dashoffset:0;stroke-opacity:1;marker:none;marker-start:none;marker-mid:none;marker-end:none;enable-background:accumulate"
       id="path9880"
       transform="translate(-144.26124,-157.93148)"
       inkscape:transform-center-y="12.857143"
       cx="406.42856"
       cy="741.64789"
       r="73.571426" />
    <circle
       id="path9902"
       style="opacity:1;fill:#a2a0a2;fill-opacity:1;stroke:#000000;stroke-width:1;stroke-miterlimit:4;stroke-dasharray:none;stroke-opacity:1"
       transform="translate(20.738772,-415.07434)"
       cx="406.42856"
       cy="741.64789"
       r="73.571426" />
    <path
       style="fill:none;fill-rule:evenodd;stroke:#000000;stroke-width:3;stroke-linecap:butt;stroke-linejoin:miter;stroke-miterlimit:4;stroke-dasharray:none;stroke-opacity:1"
       d="m 345.21536,456.41835 c 0,-126.19048 0.26984,-329.6667 -0.29485,-329.74313"
       id="path9940"
       sodipodi:nodetypes="cc" />
    <g
       id="g9985"
       style="opacity:0.338889"
       transform="translate(-31.404099,-87.931477)">
      <circle
         transform="rotate(10.035643,-1565.4922,2186.7771)"
         id="path8989"
         style="fill:#ff0000;fill-rule:evenodd;stroke:#000000;stroke-width:1px;stroke-linecap:butt;stroke-linejoin:miter;stroke-opacity:1"
         cx="267.85715"
         cy="297.36218"
         r="40.714287" />
      <circle
         inkscape:transform-center-y="12.857143"
         transform="rotate(10.035643,-615.85228,-69.044609)"
         id="path8999"
         style="fill:#ff0000;fill-rule:evenodd;stroke:#000000;stroke-width:1px;stroke-linecap:butt;stroke-linejoin:miter;stroke-opacity:1"
         cx="267.85715"
         cy="297.36218"
         r="40.714287" />
      <path
         sodipodi:nodetypes="cc"
         id="path9006"
         d="M 532.85714,623.79076 207.14286,458.07646"
         style="fill:none;fill-rule:evenodd;stroke:#000000;stroke-width:7.9;stroke-linecap:round;stroke-linejoin:miter;stroke-miterlimit:4;stroke-dasharray:none;stroke-opacity:1" />
    </g>
    <g
       id="g3233"
       transform="translate(-35.430813,-47.664331)">
      <path
         transform="matrix(1,0,0.9036611,0.4282484,0,0)"
         style="fill:none;stroke:none;stroke-width:5.86022;stroke-miterlimit:4;stroke-opacity:1"
         d="m -62.202724,205.4741 270.981214,-3.33585 -24.11581,97.12493 H -83.304054 c 40.304736,-55.73734 -46.536716,-8.10816 21.10133,-93.78908 z"
         id="path6104"
         sodipodi:nodetypes="ccccc" />
      <path
         transform="matrix(1,0,0.9036611,0.4282484,0,0)"
         style="fill:none;stroke:none;stroke-width:5.86022;stroke-miterlimit:4;stroke-opacity:1"
         d="m -62.202724,205.4741 270.981214,-3.33585 -24.11581,97.12493 H -83.304054 m 0,0 c 40.304736,-55.73734 -46.536716,-8.10816 21.10133,-93.78908"
         id="path6116"
         sodipodi:nodetypes="cccccc" />
      <path
         id="path7097"
         d="M 377.14286,106.6479 Z"
         style="fill:none;fill-rule:evenodd;stroke:#000000;stroke-width:1px;stroke-linecap:butt;stroke-linejoin:miter;stroke-opacity:1" />
      <path
         id="path7099"
         d="M 377.14286,106.6479 Z"
         style="fill:none;fill-rule:evenodd;stroke:#000000;stroke-width:7.3;stroke-linecap:butt;stroke-linejoin:miter;stroke-miterlimit:4;stroke-dasharray:none;stroke-opacity:1" />
      <path
         id="path3074"
         d="m 143.17729,92.530082 261.75714,-0.182641 60.76118,43.520949 H 206.40197"
         style="fill:none;stroke:#000000;stroke-width:6.135;stroke-linejoin:round;stroke-miterlimit:4;stroke-dasharray:none;stroke-opacity:1" />
      <path
         sodipodi:nodetypes="ccc"
         id="path3072"
         d="m 205.79716,174.03964 259.65851,0.28226 v -39.37959"
         style="fill:none;stroke:#000000;stroke-width:6.135;stroke-miterlimit:4;stroke-dasharray:none;stroke-opacity:1" />
      <path
         sodipodi:nodetypes="ccccc"
         id="rect16667"
         d="m 142.08795,91.976039 c 6.79011,30.337311 53.91549,21.654311 64.13879,42.966271 l -0.42958,39.4965 c -18.97249,-35.55154 -45.48605,-13.94162 -64.39062,-44.7767 z"
         style="fill:#cecece;fill-opacity:1;stroke:#000000;stroke-width:6.135;stroke-linejoin:round;stroke-miterlimit:4;stroke-dasharray:none;stroke-opacity:1" />
      <path
         id="path4053"
         d="M 378.51117,115.14436 Z"
         style="fill:none;fill-rule:evenodd;stroke:#000000;stroke-width:1px;stroke-linecap:butt;stroke-linejoin:miter;stroke-opacity:1" />
      <path
         id="path4065"
         d="m 374.32396,114.0173 8.89782,0.5234"
         style="fill:none;fill-rule:evenodd;stroke:#000000;stroke-width:7.9;stroke-linecap:butt;stroke-linejoin:miter;stroke-miterlimit:4;stroke-dasharray:none;stroke-opacity:1"
         sodipodi:nodetypes="cc" />
    </g>
  </g>
  <g
     inkscape:groupmode="layer"
     id="layer2"
     inkscape:label="legend"
     style="display:inline"
     transform="translate(-50.703566,-38.901051)">
    <path
       style="font-style:italic;font-size:48px;line-height:1.25;font-family:'EB Garamond';-inkscape-font-specification:'EB Garamond Italic';text-align:center;text-anchor:middle;stroke-width:1px"
       d="m 412.19099,538.7157 q -0.96,0 -1.824,-1.104 -0.816,-1.104 -1.344,-2.784 -0.48,-1.728 -0.48,-3.504 0,-2.496 0.576,-5.376 0.624,-2.928 1.68,-5.904 1.056,-3.024 2.448,-5.76 1.44,-2.784 3.072,-4.944 1.632,-2.208 3.408,-3.456 1.776,-1.296 3.504,-1.296 2.208,0 3.168,2.16 0.96,2.112 0.96,6.24 0,2.256 -0.672,5.04 -0.624,2.736 -1.776,5.664 -1.152,2.88 -2.688,5.568 -1.488,2.688 -3.216,4.848 -1.68,2.112 -3.456,3.36 -1.728,1.248 -3.36,1.248 z m 1.248,-3.888 q 1.2,0 2.496,-1.056 1.296,-1.056 2.544,-2.832 1.296,-1.776 2.448,-3.936 1.152,-2.208 2.016,-4.464 0.192,-0.384 0.096,-0.528 -0.048,-0.192 -0.48,-0.192 l -9.696,-0.048 q -0.288,0 -0.48,0.24 -0.192,0.24 -0.288,0.48 -0.432,1.2 -0.912,2.832 -0.48,1.632 -0.864,3.312 -0.336,1.68 -0.336,3.072 0,1.44 0.72,2.304 0.768,0.816 2.736,0.816 z m 0.432,-15.36 h 9.6 q 0.576,0 0.768,-0.624 0.384,-1.2 0.72,-2.592 0.336,-1.44 0.528,-2.736 0.24,-1.296 0.24,-2.016 0,-1.632 -0.768,-2.448 -0.768,-0.816 -2.64,-0.816 -0.96,0 -2.304,1.008 -1.344,0.96 -2.976,3.264 -1.584,2.304 -3.456,6.336 -0.096,0.24 -0.096,0.432 0.048,0.192 0.384,0.192 z"
       id="text2211"
       aria-label="θ" />
    <path
       id="path3188"
       style="fill:none;fill-rule:evenodd;stroke:#0000ff;stroke-width:3;stroke-linecap:butt;stroke-linejoin:miter;stroke-miterlimit:4;stroke-dasharray:none;stroke-opacity:1"
       d="m 506.77601,566.61356 -35.97203,8.04371 11.99067,-10.58672 m -11.99067,10.92743 23.09077,2.88371"
       sodipodi:nodetypes="ccccc" />
    <path
       id="path3195"
       style="color:#000000;display:inline;overflow:visible;visibility:visible;opacity:1;fill:none;fill-opacity:1;fill-rule:evenodd;stroke:#0000ff;stroke-width:3;stroke-linecap:butt;stroke-linejoin:miter;stroke-miterlimit:4;stroke-dasharray:none;stroke-dashoffset:0;stroke-opacity:1;marker:none;marker-start:none;marker-mid:none;marker-end:none;enable-background:accumulate"
       d="m 198.23514,344.67731 31.75688,-7.6132 -25.0134,-2.26742 m 25.41288,2.26742 -14.6861,9.96329"
       sodipodi:nodetypes="ccccc" />
    <path
       id="path4071"
       style="fill:none;fill-rule:evenodd;stroke:#000000;stroke-width:3;stroke-linecap:butt;stroke-linejoin:miter;stroke-miterlimit:4;stroke-dasharray:none;stroke-opacity:1"
       d="m 262.54607,669.47386 v 51.9809 m 167.10865,-78.16322 v 79.53629 M 379.3208,695.6475 h 50.33392 m -167.10865,0 h 52.59155"
       sodipodi:nodetypes="cccccccc" />
    <flowRoot
       xml:space="preserve"
       id="flowRoot4094"
       style="font-style:italic;font-variant:normal;font-weight:normal;font-stretch:normal;line-height:0.01%;font-family:Arial;text-align:start;writing-mode:lr-tb;text-anchor:start"><flowRegion
         id="flowRegion4096"><rect
           id="rect4098"
           width="4.9828053"
           height="12.812927"
           x="368.01575"
           y="776.17242"
           style="font-size:24px;font-style:italic;font-variant:normal;font-weight:normal;font-stretch:normal;text-align:start;line-height:100%;writing-mode:lr-tb;text-anchor:start;font-family:Arial" /></flowRegion><flowPara
         id="flowPara4102"
         style="font-size:24px;line-height:1">r</flowPara></flowRoot>
    <flowRoot
       xml:space="preserve"
       id="flowRoot4104"
       style="line-height:0.01%"><flowRegion
         id="flowRegion4106"><rect
           id="rect4108"
           width="19.931221"
           height="34.167805"
           x="367.30392"
           y="769.76593" /></flowRegion><flowPara
         id="flowPara4110"
         style="font-size:12px;line-height:1.25"> </flowPara></flowRoot>
    <path
       id="path2215"
       style="color:#000000;display:inline;overflow:visible;visibility:visible;opacity:1;fill:none;fill-opacity:1;fill-rule:evenodd;stroke:#0000ff;stroke-width:3;stroke-linecap:butt;stroke-linejoin:miter;stroke-miterlimit:4;stroke-dasharray:none;stroke-dashoffset:0;stroke-opacity:1;marker:none;marker-start:none;marker-mid:none;marker-end:none;enable-background:accumulate"
       d="m 418.74224,496.82311 c -14.01602,5.77311 -24.09267,6.36583 -38.91422,6.87504 m 21.04568,6.24871 -21.46585,-5.92162 11.10302,-7.40202"
       sodipodi:nodetypes="ccccc" />
    <path
       id="path3246"
       style="color:#000000;display:inline;overflow:visible;visibility:visible;opacity:1;fill:none;fill-opacity:1;fill-rule:evenodd;stroke:#0000ff;stroke-width:3;stroke-linecap:butt;stroke-linejoin:miter;stroke-miterlimit:4;stroke-dasharray:none;stroke-dashoffset:0;stroke-opacity:1;marker:none;marker-start:none;marker-mid:none;marker-end:none;enable-background:accumulate"
       d="m 268.87437,414.87011 c 13.05864,-5.7115 27.95026,-7.00349 39.26411,-9.22541 m -10.15282,8.81613 11.84323,-9.62262 -22.20605,-2.9608"
       sodipodi:nodetypes="ccccc" />
    <path
       style="fill:#ffffff;fill-opacity:0.509934;fill-rule:evenodd;stroke:#000000;stroke-width:0;stroke-linecap:butt;stroke-linejoin:miter;stroke-miterlimit:4;stroke-dasharray:none;stroke-opacity:1"
       d="m 367.42796,302.04736 c 2.75893,-14.17852 13.6783,-27.33994 38.73172,-38.73172 l 12.56164,4.18721 c -25.64287,13.25951 -37.92572,26.51902 -41.25695,39.77853 z"
       id="path7068"
       sodipodi:nodetypes="ccccc" />
    <path
       sodipodi:nodetypes="ccccc"
       id="path7070"
       d="m 200.14237,561.11796 c 2.75893,-14.17852 13.6783,-27.33994 38.73172,-38.73172 l 12.56164,4.18721 c -25.64287,13.25951 -37.92572,26.51902 -41.25695,39.77853 z"
       style="fill:#ffffff;fill-opacity:0.509934;fill-rule:evenodd;stroke:#000000;stroke-width:0;stroke-linecap:butt;stroke-linejoin:miter;stroke-miterlimit:4;stroke-dasharray:none;stroke-opacity:1" />
    <path
       sodipodi:nodetypes="ccccc"
       id="path7072"
       d="m 232.71125,324.5354 c 1.80341,-9.40436 8.94098,-18.1341 25.31745,-25.69007 l 8.21107,2.7773 c -16.76177,8.7948 -24.7906,17.5896 -26.9681,26.38441 z"
       style="fill:#ffffff;fill-opacity:0.788079;fill-rule:evenodd;stroke:#000000;stroke-width:0;stroke-linecap:butt;stroke-linejoin:miter;stroke-miterlimit:4;stroke-dasharray:none;stroke-opacity:1" />
    <path
       style="fill:#ffffff;fill-opacity:0.788079;fill-rule:evenodd;stroke:#000000;stroke-width:0;stroke-linecap:butt;stroke-linejoin:miter;stroke-miterlimit:4;stroke-dasharray:none;stroke-opacity:1"
       d="m 395.55563,574.72357 c 1.80341,-9.40436 8.94098,-18.1341 25.31745,-25.69007 l 8.21107,2.7773 c -16.76177,8.7948 -24.7906,17.5896 -26.9681,26.38441 z"
       id="path7074"
       sodipodi:nodetypes="ccccc" />
    <path
       style="font-size:48px;line-height:1;font-family:'EB Garamond';-inkscape-font-specification:'EB Garamond';text-align:end;letter-spacing:0;text-anchor:end"
       d="m 178.57188,215.23184 q -0.624,0 -1.008,-0.192 -0.384,-0.144 -0.384,-0.432 0,-0.336 0.384,-0.576 0.432,-0.288 1.2,-0.528 1.248,-0.384 2.304,-1.152 1.056,-0.768 1.824,-2.544 1.344,-3.072 2.448,-5.76 1.152,-2.688 2.16,-5.28 1.008,-2.592 2.064,-5.376 1.104,-2.832 2.304,-6.144 0.24,-0.672 0.432,-1.344 0.192,-0.672 0.24,-1.44 0.432,-0.144 0.864,-0.288 0.432,-0.144 0.864,-0.432 0.432,-0.288 0.576,-0.864 0.192,-0.576 0.336,-0.768 0.048,-0.048 0.096,-0.048 0.096,0 0.144,0.096 0.096,0.192 0.144,0.48 0.096,0.288 0.192,0.576 1.152,3.648 2.4,7.44 1.248,3.792 2.4,7.344 1.2,3.504 2.16,6.336 1.008,2.784 1.584,4.512 0.672,1.92 1.44,2.88 0.768,0.96 1.584,1.344 0.864,0.384 1.824,0.576 0.816,0.144 1.2,0.48 0.384,0.288 0.384,0.624 0,0.288 -0.384,0.384 -0.384,0.096 -1.008,0.096 -0.672,0 -1.824,-0.096 -1.152,-0.048 -2.448,-0.144 -1.296,-0.048 -2.4,-0.048 -0.912,0 -1.872,0 -0.96,0 -1.776,0.048 -0.816,0 -1.392,0 -0.624,0 -1.008,-0.144 -0.384,-0.144 -0.384,-0.432 0,-0.336 0.48,-0.576 0.48,-0.24 1.104,-0.336 1.584,-0.24 2.256,-0.816 0.672,-0.576 0.672,-1.344 0,-0.72 -0.336,-2.064 -0.288,-1.392 -0.72,-2.928 -0.432,-1.584 -0.816,-2.784 -0.096,-0.384 -0.384,-0.432 -0.24,-0.096 -0.912,-0.096 h -9.072 q -0.192,0 -0.432,0.192 -0.192,0.144 -0.384,0.672 -0.144,0.48 -0.48,1.536 -0.336,1.008 -0.672,2.16 -0.336,1.152 -0.576,2.064 -0.24,0.912 -0.24,1.152 0,1.056 0.816,1.776 0.816,0.672 1.968,0.96 1.584,0.432 1.584,0.96 0,0.288 -0.384,0.432 -0.384,0.096 -1.008,0.096 -0.624,0 -1.824,-0.048 -1.2,-0.048 -2.544,-0.048 -1.584,0 -3.072,0.144 -1.488,0.144 -2.688,0.144 z m 11.232,-13.776 h 7.44 q 0.672,0 0.672,-0.24 0,-0.096 -0.048,-0.192 0,-0.144 -0.048,-0.288 l -3.744,-11.712 q -0.288,-0.864 -0.432,-0.864 -0.096,0 -0.384,0.816 l -4.368,11.76 q -0.096,0.288 -0.096,0.384 0,0.24 0.24,0.288 0.288,0.048 0.768,0.048 z m 22.55997,13.68 q -0.24,0 -0.624,-0.096 -0.336,-0.048 -0.336,-0.336 0,-0.384 0.336,-0.528 0.384,-0.192 0.768,-0.336 0.72,-0.24 1.392,-0.528 0.672,-0.336 0.672,-1.296 v -24.192 q 0,-1.392 -0.528,-2.304 -0.48,-0.96 -1.68,-1.2 -0.384,-0.096 -0.384,-0.624 0,-0.48 0.336,-0.576 1.248,-0.288 2.16,-0.576 0.912,-0.336 1.68,-0.672 0.816,-0.336 1.584,-0.624 0.192,-0.096 0.288,-0.096 0.096,0 0.144,0.144 0.096,0.096 0.096,0.192 0,0.432 -0.192,1.872 -0.144,1.392 -0.144,4.656 v 24 q 0,0.96 0.672,1.296 0.672,0.288 1.392,0.528 0.384,0.144 0.72,0.336 0.384,0.144 0.384,0.528 0,0.288 -0.384,0.336 -0.336,0.096 -0.576,0.096 -0.912,0 -1.488,-0.096 -0.528,-0.048 -1.056,-0.096 -0.48,-0.048 -1.344,-0.048 -0.816,0 -1.344,0.048 -0.528,0.048 -1.056,0.096 -0.528,0.096 -1.488,0.096 z m 15.26399,0.528 q -0.864,0 -1.776,-0.672 -0.864,-0.672 -1.488,-1.632 -0.576,-0.96 -0.576,-1.824 0,-1.536 0.816,-2.4 0.816,-0.864 2.592,-1.584 l 4.896,-2.016 q 0.96,-0.384 1.104,-0.672 0.192,-0.288 0.24,-1.248 l 0.096,-3.072 q 0.048,-1.248 -0.72,-2.16 -0.72,-0.912 -2.112,-0.912 -0.72,0 -1.44,0.24 -0.72,0.24 -1.2,0.624 -0.288,0.192 -0.384,0.576 -0.096,0.384 -0.096,0.816 0,0.192 0,0.432 0.048,0.24 0.048,0.432 0,0.24 -0.624,0.672 -0.576,0.384 -1.344,0.72 -0.72,0.288 -1.2,0.288 -0.24,0 -0.384,-0.096 -0.144,-0.144 -0.144,-0.336 0,-0.768 0.48,-1.632 0.528,-0.912 1.44,-1.68 1.104,-1.008 2.4,-1.776 1.296,-0.768 2.544,-1.2 1.248,-0.432 2.208,-0.432 1.728,0 2.832,1.248 1.152,1.2 1.104,3.024 l -0.24,11.52 q -0.048,1.008 0.432,1.632 0.528,0.624 1.296,0.624 1.2,0 1.776,-0.528 0.24,-0.24 0.384,-0.24 0.24,0 0.384,0.144 0.144,0.144 0.144,0.384 0,0.528 -0.528,1.056 -0.768,0.768 -1.68,1.2 -0.864,0.48 -1.632,0.48 -2.208,0 -3.504,-2.496 h -0.144 q -1.584,1.296 -3.024,1.872 -1.44,0.624 -2.976,0.624 z m 2.256,-2.304 q 0.96,0 1.632,-0.288 0.672,-0.336 1.2,-0.864 0.24,-0.24 0.384,-0.624 0.192,-0.432 0.24,-1.344 l 0.096,-2.352 q 0.048,-0.528 -0.048,-0.768 -0.096,-0.24 -0.384,-0.24 -0.096,0 -0.336,0.048 -0.24,0.048 -0.624,0.192 -2.544,0.912 -3.552,1.92 -0.96,0.96 -0.96,1.776 0,1.248 0.72,1.92 0.768,0.624 1.632,0.624 z m 13.39201,1.776 q -0.384,0 -0.672,-0.096 -0.288,-0.096 -0.288,-0.432 0,-0.336 0.288,-0.48 0.336,-0.144 0.816,-0.288 0.672,-0.24 1.344,-0.528 0.72,-0.336 0.72,-1.296 v -10.32 q 0,-1.296 -0.288,-2.256 -0.288,-1.008 -1.536,-1.2 -0.192,-0.048 -0.336,-0.192 -0.096,-0.144 -0.096,-0.432 0,-0.48 0.384,-0.576 1.296,-0.336 2.064,-0.672 0.768,-0.384 1.344,-0.816 0.624,-0.48 1.488,-1.008 0.096,-0.048 0.192,-0.096 0.096,-0.096 0.24,-0.096 0.288,0 0.288,0.336 0,0.336 -0.144,1.392 -0.096,1.008 -0.096,1.68 0,0.48 0.096,0.576 h 0.096 q 1.104,-1.056 2.88,-2.112 1.824,-1.104 4.608,-1.104 1.728,0 2.88,0.768 1.152,0.72 1.92,2.544 h 0.144 q 1.536,-1.392 3.504,-2.352 1.968,-0.96 4.32,-0.96 1.584,0 2.64,0.96 1.056,0.96 1.584,2.496 0.576,1.536 0.576,3.216 v 10.224 q 0,0.96 0.672,1.296 0.672,0.288 1.392,0.528 0.48,0.144 0.768,0.288 0.336,0.144 0.336,0.48 0,0.288 -0.24,0.384 -0.192,0.144 -0.72,0.144 -0.96,0 -1.488,-0.096 -0.528,-0.048 -1.008,-0.096 -0.432,-0.048 -1.296,-0.048 -0.816,0 -1.344,0.048 -0.528,0.048 -1.104,0.096 -0.576,0.096 -1.536,0.096 -0.432,0 -0.72,-0.144 -0.24,-0.096 -0.24,-0.384 0,-0.384 0.288,-0.528 0.336,-0.144 0.816,-0.24 0.768,-0.192 1.392,-0.528 0.672,-0.336 0.672,-1.296 v -10.08 q 0,-1.152 -0.528,-2.16 -0.528,-1.056 -1.392,-1.728 -0.864,-0.672 -1.92,-0.672 -1.2,0 -2.256,0.288 -1.008,0.288 -1.92,1.008 -1.344,1.056 -1.344,3.456 v 9.888 q 0,0.96 0.72,1.296 0.72,0.336 1.44,0.528 0.48,0.096 0.768,0.288 0.336,0.144 0.336,0.48 0,0.288 -0.24,0.384 -0.24,0.144 -0.72,0.144 -0.96,0 -1.536,-0.096 -0.528,-0.048 -1.056,-0.096 -0.48,-0.048 -1.344,-0.048 -0.816,0 -1.344,0.048 -0.528,0.048 -1.104,0.096 -0.576,0.096 -1.536,0.096 -0.384,0 -0.672,-0.144 -0.288,-0.096 -0.288,-0.384 0,-0.384 0.336,-0.48 0.384,-0.144 0.768,-0.288 0.72,-0.24 1.392,-0.528 0.72,-0.336 0.72,-1.296 v -10.08 q 0,-1.152 -0.528,-2.16 -0.528,-1.056 -1.392,-1.728 -0.864,-0.672 -1.92,-0.672 -1.2,0 -2.256,0.288 -1.008,0.288 -1.92,1.008 -1.296,0.96 -1.296,3.456 v 9.888 q 0,0.96 0.672,1.296 0.672,0.288 1.392,0.528 0.384,0.144 0.72,0.288 0.384,0.096 0.384,0.48 0,0.288 -0.288,0.384 -0.24,0.144 -0.672,0.144 -0.96,0 -1.536,-0.096 -0.528,-0.048 -1.008,-0.096 -0.48,-0.048 -1.344,-0.048 -0.816,0 -1.344,0.048 -0.48,0.048 -1.056,0.096 -0.528,0.096 -1.488,0.096 z m 47.66399,0.528 q -1.056,0 -2.112,-0.192 -1.056,-0.192 -2.016,-0.432 -1.056,-0.288 -1.872,-0.528 -0.768,-0.24 -1.008,-0.24 -0.288,0 -0.576,0.192 -0.24,0.192 -0.48,0.432 -0.24,0.24 -0.432,0.24 -0.192,0 -0.432,-0.144 -0.24,-0.192 -0.24,-0.432 0,-0.432 0.144,-1.488 0.192,-1.056 0.192,-1.968 v -23.28 q 0,-1.248 -0.624,-2.16 -0.624,-0.912 -1.584,-1.344 -0.192,-0.096 -0.432,-0.24 -0.192,-0.192 -0.192,-0.48 0,-0.24 0.192,-0.336 0.192,-0.096 0.384,-0.144 0.624,-0.144 1.68,-0.528 1.104,-0.384 2.064,-0.768 0.96,-0.384 1.296,-0.528 0.288,-0.144 0.432,-0.144 0.096,0 0.192,0.096 0.096,0.096 0.096,0.24 0,0.192 -0.096,1.632 -0.048,1.392 -0.048,3.408 v 9.84 q 0,0.912 0.096,1.248 0.096,0.288 0.336,0.336 1.488,-1.248 3.456,-2.016 1.968,-0.816 3.552,-0.816 2.448,0 4.368,1.248 1.968,1.248 3.12,3.408 1.152,2.112 1.152,4.8 0,3.264 -1.344,5.808 -1.344,2.496 -3.744,3.888 -2.352,1.392 -5.52,1.392 z m 1.104,-1.488 q 1.824,0 3.12,-1.104 1.344,-1.152 2.064,-3.072 0.72,-1.968 0.72,-4.368 0,-1.872 -0.72,-3.84 -0.672,-1.968 -2.16,-3.312 -1.44,-1.344 -3.744,-1.344 -1.92,0 -3.36,0.624 -1.44,0.624 -2.496,1.584 v 9.312 q 0,1.68 0.912,2.928 0.96,1.248 2.448,1.92 1.536,0.672 3.216,0.672 z m 13.53597,0.96 q -0.48,0 -0.72,-0.144 -0.24,-0.096 -0.24,-0.384 0,-0.384 0.288,-0.48 0.288,-0.144 0.816,-0.288 0.912,-0.24 1.344,-0.672 0.48,-0.48 0.48,-1.152 v -10.32 q 0,-1.296 -0.384,-2.256 -0.384,-0.96 -1.584,-1.2 -0.192,-0.048 -0.336,-0.24 -0.144,-0.192 -0.144,-0.384 0,-0.48 0.432,-0.576 1.248,-0.384 2.592,-1.104 1.392,-0.768 2.16,-1.248 0.288,-0.192 0.432,-0.24 0.192,-0.096 0.288,-0.096 0.24,0 0.24,0.336 0,0.144 -0.048,0.72 0,0.576 -0.048,1.344 0,0.768 -0.048,1.536 0,0.096 0.096,0.096 0.768,-0.96 1.68,-1.68 0.96,-0.72 1.92,-1.152 1.008,-0.432 1.92,-0.432 1.008,0 1.632,0.432 0.672,0.432 0.672,1.104 0,0.48 -0.288,1.056 -0.24,0.576 -0.672,1.008 -0.432,0.432 -0.912,0.432 -0.288,0 -0.624,-0.096 -0.336,-0.144 -0.72,-0.336 -0.384,-0.144 -0.768,-0.288 -0.384,-0.144 -0.768,-0.144 -1.152,0 -2.256,0.816 -1.056,0.816 -1.056,3.216 v 9.696 q 0,0.624 0.672,1.056 0.672,0.384 1.872,0.768 0.528,0.144 0.816,0.288 0.288,0.144 0.288,0.48 0,0.528 -0.96,0.528 -1.44,0 -2.208,-0.144 -0.72,-0.096 -1.968,-0.096 -0.816,0 -1.344,0.048 -0.48,0.048 -1.056,0.096 -0.528,0.096 -1.488,0.096 z m 23.90399,0.576 q -2.64,0 -4.608,-1.296 -1.968,-1.296 -3.072,-3.648 -1.104,-2.4 -1.104,-5.52 0,-2.784 1.248,-5.04 1.296,-2.304 3.408,-3.696 2.112,-1.392 4.608,-1.392 1.92,0 3.408,0.768 1.488,0.768 2.304,2.16 0.864,1.344 0.864,3.12 0,1.488 -1.44,1.488 h -10.128 q -0.672,0 -0.96,0.384 -0.24,0.336 -0.24,1.392 0,2.304 1.008,4.224 1.008,1.872 2.688,3.024 1.68,1.104 3.696,1.104 1.44,0 2.592,-0.528 1.2,-0.576 2.112,-1.632 0.192,-0.24 0.288,-0.288 0.096,-0.096 0.24,-0.096 0.384,0 0.384,0.48 0,0.912 -0.864,2.016 -0.72,0.912 -1.728,1.584 -1.008,0.672 -2.208,1.008 -1.2,0.384 -2.496,0.384 z m -4.416,-14.544 h 4.368 q 1.152,0 1.968,-0.048 0.816,-0.048 1.584,-0.192 0.24,-0.048 0.288,-0.288 0.096,-0.288 0.096,-0.768 0,-1.392 -1.248,-2.352 -1.2,-1.008 -2.88,-1.008 -1.104,0 -2.208,0.672 -1.104,0.624 -1.824,1.584 -0.72,0.96 -0.72,1.92 0,0.48 0.576,0.48 z"
       id="text2237"
       aria-label="Alambre" />
    <path
       style="font-style:italic;font-size:48px;line-height:1.25;font-family:'EB Garamond';-inkscape-font-specification:'EB Garamond Italic'"
       d="m 250.25123,345.02978 q -0.24,0 -0.432,-0.24 -0.192,-0.24 -0.336,-0.576 -0.096,-0.336 -0.096,-0.624 0,-0.24 0.288,-1.152 0.336,-0.912 0.816,-2.256 l 4.416,-11.568 q 0.24,-0.624 0,-1.056 -0.24,-0.432 -0.816,-0.432 -0.72,0 -1.536,0.336 -0.768,0.336 -1.92,1.872 -0.192,0.192 -0.432,0.192 -0.192,-0.048 -0.288,-0.384 0,-0.288 0.096,-0.72 0.096,-0.48 0.288,-0.96 0.24,-0.48 0.432,-0.72 0.816,-1.008 1.968,-1.68 1.152,-0.672 2.784,-0.72 0.672,0 1.296,0.24 0.672,0.192 0.96,0.768 0.336,0.576 -0.048,1.584 l -2.736,7.104 q -0.144,0.336 0.048,0.384 0.24,0.048 0.384,-0.192 2.064,-3.168 3.936,-5.376 1.92,-2.208 3.648,-3.36 1.776,-1.152 3.312,-1.152 0.912,0 1.632,0.528 0.768,0.528 1.008,1.584 0.288,1.008 -0.24,2.544 l -1.728,5.04 q -0.144,0.336 0.048,0.384 0.24,0.048 0.384,-0.192 2.016,-3.312 3.936,-5.472 1.968,-2.208 3.792,-3.312 1.824,-1.104 3.36,-1.104 0.912,0 1.632,0.576 0.72,0.576 0.912,1.728 0.24,1.104 -0.432,2.784 l -4.128,10.656 q -0.72,1.728 0.24,1.728 0.576,0 1.392,-0.528 0.816,-0.528 1.632,-1.248 0.864,-0.72 1.488,-1.296 0.624,-0.624 0.816,-0.816 0.048,-0.048 0.048,-0.048 0.048,0 0.096,0 0.144,0 0.24,0.144 0.144,0.096 0.144,0.288 0,0.384 -0.192,0.816 -0.144,0.384 -0.672,0.912 -1.584,1.776 -3.552,3.312 -1.968,1.536 -4.224,1.536 -0.384,0 -0.816,-0.336 -0.384,-0.288 -0.624,-0.816 -0.192,-0.528 0,-1.056 l 5.568,-14.352 q 0.384,-0.96 -0.048,-1.44 -0.384,-0.48 -0.912,-0.528 -0.768,-0.048 -2.064,0.816 -1.296,0.816 -2.88,2.784 -0.72,0.912 -2.016,2.736 -1.248,1.824 -2.592,3.936 -1.296,2.064 -2.256,3.84 -0.816,1.536 -1.536,2.544 -0.72,1.008 -1.296,1.488 -0.576,0.528 -0.96,0.528 -0.24,0 -0.432,-0.24 -0.192,-0.192 -0.336,-0.48 -0.096,-0.288 -0.096,-0.576 0,-0.24 0.288,-1.2 0.336,-1.008 0.816,-2.352 l 4.464,-12 q 0.432,-1.104 -0.096,-1.488 -0.528,-0.432 -0.864,-0.48 -0.768,-0.096 -2.064,0.816 -1.296,0.864 -2.88,2.832 -0.576,0.672 -1.44,1.92 -0.864,1.248 -1.872,2.784 -0.96,1.488 -1.92,3.072 -0.912,1.536 -1.632,2.832 -1.248,2.304 -1.92,3.456 -0.672,1.104 -1.248,1.104 z"
       id="text2243"
       aria-label="m" />
    <path
       style="font-style:italic;font-size:48px;line-height:1.25;font-family:'EB Garamond';-inkscape-font-specification:'EB Garamond Italic'"
       d="m 317.91211,255.85875 q -0.24,0 -0.528,-0.24 -0.288,-0.24 -0.528,-0.576 -0.192,-0.336 -0.192,-0.624 0,-0.528 0,-0.672 0,-0.192 0.096,-0.432 0.096,-0.24 0.336,-0.864 0.816,-2.16 1.536,-4.272 0.768,-2.112 1.392,-4.128 0.672,-2.016 1.152,-3.888 0.288,-1.056 0.384,-1.584 0.096,-0.528 -0.384,-0.528 -0.72,0 -1.536,0.336 -0.768,0.336 -1.92,1.872 -0.192,0.192 -0.48,0.144 -0.288,-0.048 -0.288,-0.384 0,-0.288 0.096,-0.72 0.144,-0.48 0.336,-0.912 0.24,-0.48 0.432,-0.72 0.816,-1.008 1.824,-1.68 1.008,-0.72 2.64,-0.72 0.864,0 1.44,0.384 0.576,0.336 0.768,1.056 0.192,0.72 -0.144,1.728 l -2.064,6.096 q -0.192,0.528 0,0.48 0.24,-0.048 0.432,-0.288 1.296,-1.728 2.88,-3.408 1.632,-1.68 3.264,-3.024 1.632,-1.392 3.024,-2.208 1.392,-0.816 2.256,-0.816 1.584,0 2.112,0.96 0.576,0.912 0.528,1.632 0,0.72 -0.528,0.72 -0.24,0 -0.624,-0.048 -0.384,-0.096 -0.816,-0.144 -0.384,-0.048 -0.768,-0.096 -0.384,-0.048 -0.768,-0.048 -1.008,0 -2.208,0.624 -1.152,0.624 -2.304,1.584 -1.152,0.912 -2.064,1.824 -0.912,0.912 -1.392,1.488 -0.192,0.192 -0.24,0.336 0,0.096 0.096,0.192 1.296,1.44 2.064,3.456 0.816,1.968 1.488,3.936 0.192,0.48 0.528,0.816 0.384,0.336 0.864,0.336 0.624,0 1.2,-0.336 0.624,-0.384 1.248,-1.008 0.672,-0.672 1.296,-1.44 0.288,-0.384 0.384,-0.576 0.144,-0.24 0.336,-0.24 0.144,0 0.24,0.144 0.144,0.144 0.144,0.528 0,0.768 -0.768,1.776 -0.768,0.96 -1.872,1.92 -1.056,0.96 -2.112,1.584 -1.056,0.624 -1.632,0.624 -0.768,0 -1.296,-0.528 -0.528,-0.528 -1.008,-1.776 l -1.824,-4.944 q -0.432,-1.2 -0.816,-1.584 -0.336,-0.384 -1.008,-0.384 -0.288,0 -0.576,0.384 -0.288,0.336 -0.48,0.72 -0.96,2.16 -1.44,3.696 -0.432,1.536 -0.96,2.976 -0.288,0.768 -0.576,1.104 -0.24,0.384 -0.672,0.384 z"
       id="text2249"
       aria-label="κ" />
    <path
       style="font-style:italic;font-size:48px;line-height:1.25;font-family:'EB Garamond';-inkscape-font-specification:'EB Garamond Italic'"
       d="m 472.64289,623.43318 q -0.576,0 -0.864,-0.096 -0.288,-0.096 -0.288,-0.432 0,-0.384 0.48,-0.528 0.432,-0.192 1.248,-0.336 1.776,-0.336 2.64,-1.056 0.864,-0.768 1.392,-2.544 l 6.576,-21.6 q 0.576,-1.728 0,-2.448 -0.576,-0.72 -2.16,-1.056 -0.72,-0.144 -0.96,-0.384 -0.24,-0.24 -0.24,-0.576 0,-0.288 0.432,-0.384 0.48,-0.144 1.056,-0.144 0.528,0 2.112,0.096 1.632,0.048 3.12,0.048 h 7.632 q 3.264,0 4.896,-0.288 1.68,-0.288 1.872,-0.288 0.24,0 0.288,0.144 0.096,0.096 0.096,0.336 0,0.192 -0.096,0.432 -0.048,0.24 -0.144,0.624 -0.24,0.816 -0.624,2.112 -0.336,1.248 -0.48,2.208 -0.048,0.24 -0.192,0.528 -0.144,0.288 -0.624,0.288 -0.336,0 -0.432,-0.336 -0.096,-0.384 -0.096,-0.768 0,-0.864 -0.048,-1.632 0,-0.768 -0.48,-1.248 -0.24,-0.24 -0.672,-0.384 -0.432,-0.192 -1.104,-0.192 h -6.912 q -0.912,0 -1.296,0.432 -0.336,0.432 -0.576,1.008 -0.048,0.144 -0.48,1.44 -0.432,1.248 -1.008,2.976 -0.528,1.728 -1.056,3.36 -0.48,1.632 -0.768,2.496 -0.096,0.384 -0.048,0.816 0.048,0.384 0.384,0.384 l 6.48,-0.144 q 2.016,-0.096 3.408,-1.776 0.336,-0.384 0.672,-0.672 0.384,-0.336 0.576,-0.336 0.24,0 0.384,0.24 0.192,0.192 0.048,0.528 -0.816,1.824 -1.296,3.168 -0.432,1.296 -0.912,3.12 -0.096,0.336 -0.24,0.576 -0.144,0.24 -0.384,0.24 -0.384,0 -0.576,-0.432 -0.144,-0.432 -0.144,-0.672 0,-1.392 -0.528,-1.872 -0.48,-0.528 -1.248,-0.576 -0.528,-0.048 -1.728,-0.048 -1.152,-0.048 -2.256,-0.048 -1.104,0 -1.536,0 -0.816,0 -1.44,0.24 -0.576,0.192 -0.864,1.248 l -2.448,8.544 q -0.48,1.632 -0.336,2.496 0.144,0.816 0.864,1.152 0.768,0.336 2.016,0.624 0.72,0.144 0.96,0.336 0.24,0.144 0.24,0.528 0,0.336 -0.432,0.432 -0.432,0.096 -1.008,0.096 -1.2,0 -2.016,-0.096 -0.768,-0.096 -1.488,-0.144 -0.672,-0.096 -1.632,-0.096 -1.632,0 -2.784,0.144 -1.104,0.192 -2.928,0.192 z"
       id="text2255"
       aria-label="F" />
    <path
       style="font-style:italic;font-size:48px;line-height:1.25;font-family:'EB Garamond';-inkscape-font-specification:'EB Garamond Italic';marker:none;marker-start:none;marker-mid:none;marker-end:none"
       d="m 193.87014,325.7339 q -0.576,0 -0.864,-0.096 -0.288,-0.096 -0.288,-0.432 0,-0.384 0.48,-0.528 0.432,-0.192 1.248,-0.336 1.776,-0.336 2.64,-1.056 0.864,-0.768 1.392,-2.544 l 6.576,-21.6 q 0.576,-1.728 0,-2.448 -0.576,-0.72 -2.16,-1.056 -0.72,-0.144 -0.96,-0.384 -0.24,-0.24 -0.24,-0.576 0,-0.288 0.432,-0.384 0.48,-0.144 1.056,-0.144 0.528,0 2.112,0.096 1.632,0.048 3.12,0.048 h 7.632 q 3.264,0 4.896,-0.288 1.68,-0.288 1.872,-0.288 0.24,0 0.288,0.144 0.096,0.096 0.096,0.336 0,0.192 -0.096,0.432 -0.048,0.24 -0.144,0.624 -0.24,0.816 -0.624,2.112 -0.336,1.248 -0.48,2.208 -0.048,0.24 -0.192,0.528 -0.144,0.288 -0.624,0.288 -0.336,0 -0.432,-0.336 -0.096,-0.384 -0.096,-0.768 0,-0.864 -0.048,-1.632 0,-0.768 -0.48,-1.248 -0.24,-0.24 -0.672,-0.384 -0.432,-0.192 -1.104,-0.192 h -6.912 q -0.912,0 -1.296,0.432 -0.336,0.432 -0.576,1.008 -0.048,0.144 -0.48,1.44 -0.432,1.248 -1.008,2.976 -0.528,1.728 -1.056,3.36 -0.48,1.632 -0.768,2.496 -0.096,0.384 -0.048,0.816 0.048,0.384 0.384,0.384 l 6.48,-0.144 q 2.016,-0.096 3.408,-1.776 0.336,-0.384 0.672,-0.672 0.384,-0.336 0.576,-0.336 0.24,0 0.384,0.24 0.192,0.192 0.048,0.528 -0.816,1.824 -1.296,3.168 -0.432,1.296 -0.912,3.12 -0.096,0.336 -0.24,0.576 -0.144,0.24 -0.384,0.24 -0.384,0 -0.576,-0.432 -0.144,-0.432 -0.144,-0.672 0,-1.392 -0.528,-1.872 -0.48,-0.528 -1.248,-0.576 -0.528,-0.048 -1.728,-0.048 -1.152,-0.048 -2.256,-0.048 -1.104,0 -1.536,0 -0.816,0 -1.44,0.24 -0.576,0.192 -0.864,1.248 l -2.448,8.544 q -0.48,1.632 -0.336,2.496 0.144,0.816 0.864,1.152 0.768,0.336 2.016,0.624 0.72,0.144 0.96,0.336 0.24,0.144 0.24,0.528 0,0.336 -0.432,0.432 -0.432,0.096 -1.008,0.096 -1.2,0 -2.016,-0.096 -0.768,-0.096 -1.488,-0.144 -0.672,-0.096 -1.632,-0.096 -1.632,0 -2.784,0.144 -1.104,0.192 -2.928,0.192 z"
       id="text2261"
       aria-label="F" />
    <path
       style="font-style:italic;font-size:48px;line-height:1.25;font-family:'EB Garamond';-inkscape-font-specification:'EB Garamond Italic'"
       d="m 421.76735,342.70154 q -0.192,0 -0.336,-0.336 -0.096,-0.336 -0.096,-0.864 0.192,-6 0.096,-12 -0.048,-6.048 -0.288,-12.048 -0.048,-1.056 -0.48,-1.008 -0.384,0.048 -0.912,1.152 -2.208,4.368 -4.272,8.736 -2.016,4.32 -3.888,8.688 -0.96,2.256 -1.2,3.456 -0.24,1.2 0.048,1.68 0.336,0.48 1.008,0.624 0.72,0.096 1.056,0.288 0.384,0.192 0.384,0.528 0,0.288 -0.528,0.432 -0.528,0.144 -1.104,0.144 -1.2,0 -1.968,-0.048 -0.72,-0.048 -1.44,-0.096 -0.672,0 -1.776,0 -0.816,0 -1.296,0.048 -0.432,0.096 -1.056,0.144 -0.576,0.096 -1.776,0.096 -1.152,0 -1.152,-0.48 0,-0.336 0.432,-0.528 0.432,-0.24 1.248,-0.384 1.392,-0.24 2.4,-0.768 1.008,-0.576 1.92,-1.728 0.96,-1.2 2.064,-3.312 l 9.552,-18.624 q 0.624,-1.2 0.624,-2.112 0,-0.912 -0.912,-1.488 -0.864,-0.624 -2.832,-0.864 -1.056,-0.144 -1.488,-0.288 -0.384,-0.192 -0.384,-0.528 0,-0.384 0.528,-0.576 0.576,-0.192 1.488,-0.192 0.816,0 2.256,0.048 1.44,0.048 2.976,0.144 1.536,0.048 2.544,0.048 0.624,0 0.912,0.336 0.336,0.288 0.432,1.008 0.096,0.672 0.048,1.92 l 0.384,20.256 q 0.048,1.056 0.432,0.912 0.432,-0.144 1.008,-0.768 2.976,-3.36 5.76,-6.624 2.832,-3.312 5.616,-6.624 2.832,-3.312 5.664,-6.672 0.528,-1.008 0.816,-1.632 0.288,-0.672 0.672,-1.296 0.384,-0.672 1.008,-0.672 h 1.824 q 0.384,0 1.2,-0.096 0.816,-0.096 1.68,-0.192 0.864,-0.096 1.296,-0.096 0.576,0 1.056,0.192 0.528,0.192 0.528,0.528 0,0.384 -0.432,0.672 -0.384,0.24 -1.536,0.384 -1.44,0.192 -2.256,0.48 -0.768,0.288 -1.2,1.104 -0.432,0.768 -0.96,2.496 -1.296,4.416 -2.352,9.12 -1.056,4.656 -1.92,9.216 -0.624,3.216 -0.144,4.56 0.528,1.344 2.112,1.584 0.72,0.096 0.96,0.288 0.288,0.192 0.288,0.528 0,0.192 -0.432,0.384 -0.432,0.192 -1.008,0.192 -1.2,0 -2.112,-0.144 -0.864,-0.096 -1.728,-0.24 -0.864,-0.144 -1.968,-0.144 -1.104,0 -1.824,0.144 -0.672,0.144 -1.44,0.24 -0.72,0.144 -1.92,0.144 -0.576,0 -0.864,-0.144 -0.24,-0.144 -0.24,-0.432 0,-0.288 0.432,-0.48 0.48,-0.24 1.248,-0.432 1.536,-0.384 2.304,-1.2 0.816,-0.816 1.344,-2.448 1.2,-3.648 2.112,-6.72 0.912,-3.12 1.68,-6.096 0.816,-3.024 1.632,-6.288 0.096,-0.24 -0.144,-0.288 -0.192,-0.048 -0.432,0.192 l -14.16,16.416 -5.616,7.296 q -0.48,0.576 -0.768,0.864 -0.288,0.288 -0.432,0.288 z"
       id="text2267"
       aria-label="M" />
    <path
       style="font-style:italic;font-size:48px;line-height:1.25;font-family:'EB Garamond';-inkscape-font-specification:'EB Garamond Italic'"
       d="m 256.76731,599.84442 q -0.192,0 -0.336,-0.336 -0.096,-0.336 -0.096,-0.864 0.192,-6 0.096,-12 -0.048,-6.048 -0.288,-12.048 -0.048,-1.056 -0.48,-1.008 -0.384,0.048 -0.912,1.152 -2.208,4.368 -4.272,8.736 -2.016,4.32 -3.888,8.688 -0.96,2.256 -1.2,3.456 -0.24,1.2 0.048,1.68 0.336,0.48 1.008,0.624 0.72,0.096 1.056,0.288 0.384,0.192 0.384,0.528 0,0.288 -0.528,0.432 -0.528,0.144 -1.104,0.144 -1.2,0 -1.968,-0.048 -0.72,-0.048 -1.44,-0.096 -0.672,0 -1.776,0 -0.816,0 -1.296,0.048 -0.432,0.096 -1.056,0.144 -0.576,0.096 -1.776,0.096 -1.152,0 -1.152,-0.48 0,-0.336 0.432,-0.528 0.432,-0.24 1.248,-0.384 1.392,-0.24 2.4,-0.768 1.008,-0.576 1.92,-1.728 0.96,-1.2 2.064,-3.312 l 9.552,-18.624 q 0.624,-1.2 0.624,-2.112 0,-0.912 -0.912,-1.488 -0.864,-0.624 -2.832,-0.864 -1.056,-0.144 -1.488,-0.288 -0.384,-0.192 -0.384,-0.528 0,-0.384 0.528,-0.576 0.576,-0.192 1.488,-0.192 0.816,0 2.256,0.048 1.44,0.048 2.976,0.144 1.536,0.048 2.544,0.048 0.624,0 0.912,0.336 0.336,0.288 0.432,1.008 0.096,0.672 0.048,1.92 l 0.384,20.256 q 0.048,1.056 0.432,0.912 0.432,-0.144 1.008,-0.768 2.976,-3.36 5.76,-6.624 2.832,-3.312 5.616,-6.624 2.832,-3.312 5.664,-6.672 0.528,-1.008 0.816,-1.632 0.288,-0.672 0.672,-1.296 0.384,-0.672 1.008,-0.672 h 1.824 q 0.384,0 1.2,-0.096 0.816,-0.096 1.68,-0.192 0.864,-0.096 1.296,-0.096 0.576,0 1.056,0.192 0.528,0.192 0.528,0.528 0,0.384 -0.432,0.672 -0.384,0.24 -1.536,0.384 -1.44,0.192 -2.256,0.48 -0.768,0.288 -1.2,1.104 -0.432,0.768 -0.96,2.496 -1.296,4.416 -2.352,9.12 -1.056,4.656 -1.92,9.216 -0.624,3.216 -0.144,4.56 0.528,1.344 2.112,1.584 0.72,0.096 0.96,0.288 0.288,0.192 0.288,0.528 0,0.192 -0.432,0.384 -0.432,0.192 -1.008,0.192 -1.2,0 -2.112,-0.144 -0.864,-0.096 -1.728,-0.24 -0.864,-0.144 -1.968,-0.144 -1.104,0 -1.824,0.144 -0.672,0.144 -1.44,0.24 -0.72,0.144 -1.92,0.144 -0.576,0 -0.864,-0.144 -0.24,-0.144 -0.24,-0.432 0,-0.288 0.432,-0.48 0.48,-0.24 1.248,-0.432 1.536,-0.384 2.304,-1.2 0.816,-0.816 1.344,-2.448 1.2,-3.648 2.112,-6.72 0.912,-3.12 1.68,-6.096 0.816,-3.024 1.632,-6.288 0.096,-0.24 -0.144,-0.288 -0.192,-0.048 -0.432,0.192 l -14.16,16.416 -5.616,7.296 q -0.48,0.576 -0.768,0.864 -0.288,0.288 -0.432,0.288 z"
       id="text2273"
       aria-label="M" />
    <path
       style="font-style:italic;font-size:48px;line-height:1.25;font-family:'EB Garamond';-inkscape-font-specification:'EB Garamond Italic'"
       d="m 414.07174,593.09139 q -0.24,0 -0.432,-0.24 -0.192,-0.24 -0.336,-0.576 -0.096,-0.336 -0.096,-0.624 0,-0.24 0.288,-1.152 0.336,-0.912 0.816,-2.256 l 4.416,-11.568 q 0.24,-0.624 0,-1.056 -0.24,-0.432 -0.816,-0.432 -0.72,0 -1.536,0.336 -0.768,0.336 -1.92,1.872 -0.192,0.192 -0.432,0.192 -0.192,-0.048 -0.288,-0.384 0,-0.288 0.096,-0.72 0.096,-0.48 0.288,-0.96 0.24,-0.48 0.432,-0.72 0.816,-1.008 1.968,-1.68 1.152,-0.672 2.784,-0.72 0.672,0 1.296,0.24 0.672,0.192 0.96,0.768 0.336,0.576 -0.048,1.584 l -2.736,7.104 q -0.144,0.336 0.048,0.384 0.24,0.048 0.384,-0.192 2.064,-3.168 3.936,-5.376 1.92,-2.208 3.648,-3.36 1.776,-1.152 3.312,-1.152 0.912,0 1.632,0.528 0.768,0.528 1.008,1.584 0.288,1.008 -0.24,2.544 l -1.728,5.04 q -0.144,0.336 0.048,0.384 0.24,0.048 0.384,-0.192 2.016,-3.312 3.936,-5.472 1.968,-2.208 3.792,-3.312 1.824,-1.104 3.36,-1.104 0.912,0 1.632,0.576 0.72,0.576 0.912,1.728 0.24,1.104 -0.432,2.784 l -4.128,10.656 q -0.72,1.728 0.24,1.728 0.576,0 1.392,-0.528 0.816,-0.528 1.632,-1.248 0.864,-0.72 1.488,-1.296 0.624,-0.624 0.816,-0.816 0.048,-0.048 0.048,-0.048 0.048,0 0.096,0 0.144,0 0.24,0.144 0.144,0.096 0.144,0.288 0,0.384 -0.192,0.816 -0.144,0.384 -0.672,0.912 -1.584,1.776 -3.552,3.312 -1.968,1.536 -4.224,1.536 -0.384,0 -0.816,-0.336 -0.384,-0.288 -0.624,-0.816 -0.192,-0.528 0,-1.056 l 5.568,-14.352 q 0.384,-0.96 -0.048,-1.44 -0.384,-0.48 -0.912,-0.528 -0.768,-0.048 -2.064,0.816 -1.296,0.816 -2.88,2.784 -0.72,0.912 -2.016,2.736 -1.248,1.824 -2.592,3.936 -1.296,2.064 -2.256,3.84 -0.816,1.536 -1.536,2.544 -0.72,1.008 -1.296,1.488 -0.576,0.528 -0.96,0.528 -0.24,0 -0.432,-0.24 -0.192,-0.192 -0.336,-0.48 -0.096,-0.288 -0.096,-0.576 0,-0.24 0.288,-1.2 0.336,-1.008 0.816,-2.352 l 4.464,-12 q 0.432,-1.104 -0.096,-1.488 -0.528,-0.432 -0.864,-0.48 -0.768,-0.096 -2.064,0.816 -1.296,0.864 -2.88,2.832 -0.576,0.672 -1.44,1.92 -0.864,1.248 -1.872,2.784 -0.96,1.488 -1.92,3.072 -0.912,1.536 -1.632,2.832 -1.248,2.304 -1.92,3.456 -0.672,1.104 -1.248,1.104 z"
       id="text2279"
       aria-label="m" />
    <path
       style="font-style:italic;font-size:48px;line-height:1.25;font-family:'EB Garamond';-inkscape-font-specification:'EB Garamond Italic'"
       d="m 338.10839,707.73531 q -0.24,0 -0.528,-0.192 -0.288,-0.144 -0.48,-0.432 -0.192,-0.24 -0.192,-0.528 0,-0.576 0.288,-1.44 0.336,-0.912 0.816,-2.256 l 4.416,-11.52 q 0.24,-0.624 0.192,-1.152 0,-0.528 -0.48,-0.528 -0.672,0 -1.344,0.192 -0.624,0.144 -0.96,0.336 -0.288,0.192 -0.576,0.096 -0.24,-0.144 -0.24,-0.48 0,-0.384 0.336,-0.864 0.384,-0.48 1.008,-0.912 0.576,-0.432 1.344,-0.72 0.816,-0.288 1.68,-0.288 1.344,0 1.68,0.672 0.384,0.672 0.096,1.824 -0.24,1.104 -0.816,2.544 l -2.16,5.424 q -0.192,0.336 0.096,0.432 0.336,0.096 0.48,-0.144 1.92,-3.312 3.84,-5.76 1.968,-2.496 3.648,-3.84 1.68,-1.392 2.784,-1.392 1.248,0 1.728,0.72 0.528,0.72 0.528,1.68 0,0.864 -0.336,1.776 -0.288,0.912 -0.864,1.536 -0.528,0.576 -1.2,0.576 -0.384,0 -0.576,-0.432 -0.192,-0.48 -0.192,-1.248 0,-0.72 -0.192,-1.104 -0.192,-0.432 -0.72,-0.432 -0.48,0 -1.296,0.624 -0.768,0.624 -1.968,2.16 -0.528,0.72 -1.392,1.968 -0.864,1.248 -1.872,2.784 -0.96,1.488 -1.92,3.072 -0.96,1.536 -1.68,2.832 -1.296,2.304 -1.872,3.36 -0.528,1.056 -1.104,1.056 z"
       id="text2285"
       aria-label="r" />
    <path
       style="font-style:italic;font-size:48px;line-height:1.25;font-family:'EB Garamond';-inkscape-font-specification:'EB Garamond Italic';letter-spacing:2.46734"
       d="m 242.62767,299.99757 q -0.576,0 -0.864,-0.144 -0.288,-0.096 -0.288,-0.384 0,-0.576 1.728,-0.864 1.776,-0.336 3.216,-1.104 1.44,-0.816 1.92,-2.496 l 6.768,-22.128 q 0.528,-1.728 0.144,-2.16 -0.336,-0.48 -1.92,-0.816 -0.72,-0.144 -0.96,-0.384 -0.24,-0.24 -0.24,-0.576 0,-0.288 0.432,-0.384 0.432,-0.144 1.008,-0.144 1.2,0 1.92,0.048 0.768,0.048 1.44,0.144 0.672,0.048 1.632,0.048 1.104,0 1.968,-0.048 0.864,-0.096 1.776,-0.144 0.912,-0.048 2.112,-0.048 1.104,0 1.104,0.528 0,0.384 -0.528,0.576 -0.528,0.144 -1.344,0.24 -1.248,0.096 -2.256,0.432 -0.96,0.288 -1.632,0.864 -0.672,0.528 -0.96,1.488 l -6.48,21.792 q -0.528,1.824 -0.144,2.928 0.384,1.056 2.16,1.056 h 3.84 q 2.64,0 4.224,-0.528 1.632,-0.576 2.544,-1.488 0.912,-0.912 1.536,-1.824 0.624,-0.912 1.392,-2.016 0.24,-0.288 0.336,-0.384 0.144,-0.096 0.432,-0.096 0.24,0 0.288,0.144 0.096,0.144 0.096,0.432 0,0.336 -0.288,1.2 -0.24,0.864 -0.624,1.968 -0.384,1.056 -0.816,2.016 -0.384,0.96 -0.72,1.488 -0.192,0.288 -0.48,0.528 -0.288,0.24 -0.624,0.24 -2.736,0 -5.088,-0.048 -2.304,-0.048 -4.368,-0.096 -2.064,-0.048 -3.888,-0.096 -1.824,-0.048 -3.504,-0.048 -1.776,0 -2.976,0.144 -1.2,0.144 -3.024,0.144 z"
       id="text2231"
       transform="matrix(0.8946459,0.4377103,0.00586058,1.120628,0,0)"
       aria-label="L" />
  </g>
</svg>
