<?xml version="1.0" encoding="UTF-8" standalone="no"?>
<!-- Created with Serif DrawPlus 11, 0, 3, 23 (Feb 25, 14:12:55) (http://www.serif.com) -->

<svg
   version="1.1"
   width="226.4277"
   height="154.56694"
   id="svg1"
   sodipodi:docname="flujo.svg"
   inkscape:version="1.3.2 (091e20e, 2023-11-25)"
   xmlns:inkscape="http://www.inkscape.org/namespaces/inkscape"
   xmlns:sodipodi="http://sodipodi.sourceforge.net/DTD/sodipodi-0.dtd"
   xmlns="http://www.w3.org/2000/svg"
   xmlns:svg="http://www.w3.org/2000/svg">
  <defs
     id="defs1" />
  <sodipodi:namedview
     id="namedview1"
     pagecolor="#ffffff"
     bordercolor="#000000"
     borderopacity="0.25"
     inkscape:showpageshadow="2"
     inkscape:pageopacity="0.0"
     inkscape:pagecheckerboard="0"
     inkscape:deskcolor="#d1d1d1"
     inkscape:zoom="3.2669234"
     inkscape:cx="88.615486"
     inkscape:cy="62.137974"
     inkscape:window-width="1512"
     inkscape:window-height="945"
     inkscape:window-x="1920"
     inkscape:window-y="89"
     inkscape:window-maximized="0"
     inkscape:current-layer="svg1" />
  <path
     id="dp_path069"
     fill="none"
     fill-rule="evenodd"
     stroke="#1e02ab"
     stroke-width="1.15467"
     stroke-linejoin="round"
     stroke-linecap="square"
     d="M 91.8094,153.9277 C 87.3027,114.5557 91.896,84.907698 109.8947,63.855698" />
  <path
     id="dp_path070"
     fill="#00b050"
     fill-rule="evenodd"
     fill-opacity="0.898039"
     stroke="none"
     stroke-width="0.577333"
     stroke-linejoin="round"
     stroke-linecap="square"
     d="m 0,59.143698 c 58.292,-29.664 114.2374,-28.817 146.2737,-22.517 28.258,12.378 54.517,35.76 80.154,62.561 -26.649,-5.764 -88.469,-11.256 -146.273,22.519002 C 54.1134,89.346698 27.3494,69.230698 0,59.143698 Z" />
  <path
     id="dp_path071"
     fill="#005c2a"
     fill-rule="evenodd"
     stroke="none"
     stroke-width="0.461333"
     stroke-linejoin="round"
     stroke-linecap="square"
     d="m 102.4774,61.190698 8.644,-1.335 5.4543,6.019 -8.6437,1.334 z" />
  <path
     id="dp_path072"
     fill="none"
     fill-rule="evenodd"
     stroke="#000000"
     stroke-width="0.577333"
     stroke-linejoin="round"
     stroke-linecap="square"
     d="m 111.7147,55.602698 -4.8013,-5.559 -1.5987,8.352" />
  <path
     id="dp_path073"
     fill="none"
     fill-rule="evenodd"
     stroke="#000000"
     stroke-width="0.426667"
     stroke-linejoin="round"
     stroke-linecap="square"
     d="m 131.9837,59.736698 -44.7277,7.59" />
  <path
     id="dp_path074"
     fill="none"
     fill-rule="evenodd"
     stroke="#000000"
     stroke-width="0.577333"
     stroke-linejoin="round"
     stroke-linecap="square"
     d="m 111.716,55.600698 7.8217,-1.228 -1.431,7.799" />
  <path
     id="dp_path075"
     fill="none"
     fill-rule="evenodd"
     stroke="#000000"
     stroke-width="0.469333"
     stroke-linejoin="round"
     stroke-linecap="square"
     d="m 124.6237,79.700698 -30.389,-33.357" />
  <path
     id="dp_path076"
     fill="none"
     fill-rule="evenodd"
     stroke="#000000"
     stroke-width="0.866667"
     stroke-linejoin="round"
     stroke-linecap="square"
     d="m 119.1457,67.895698 30.417,13.283" />
  <g
     id="dp_group077"
     transform="translate(16.5027,-105.4363)">
    <g
       id="dp_group078">
      <path
         id="dp_path079"
         fill="#000000"
         fill-rule="evenodd"
         d="m 112.353,177.1 -0.346,0.793 -0.694,1.588 4.835,-0.25 -3.101,-3.718 z" />
      <path
         id="dp_path080"
         fill="#000000"
         d="m 92.8227,169.517 0.396,0.172 18.7883,8.206 0.396,0.172 0.346,-0.795 -0.396,-0.172 -18.7877,-8.205 -0.396,-0.172 z" />
    </g>
  </g>
  <path
     id="dp_path081"
     fill="none"
     fill-rule="evenodd"
     stroke="#000000"
     stroke-width="0.577333"
     stroke-linejoin="round"
     stroke-linecap="square"
     d="m 143.2517,78.040698 1.202,-6.833 6.209,2.721" />
  <path
     style="font-weight:bold;font-size:12px;font-family:'EB Garamond';-inkscape-font-specification:'EB Garamond Bold'"
     d="m 115.9339,12.780688 q -0.084,0 -0.168,-0.036 -0.072,-0.048 -0.072,-0.132 0,-0.096 0.084,-0.144 0.084,-0.06 0.192,-0.096 0.18,-0.06 0.312,-0.132 0.144,-0.084 0.144,-0.324 V 9.1686884 q 0,-0.264 -0.084,-0.444 -0.072,-0.18 -0.288,-0.228 -0.048,-0.012 -0.096,-0.06 -0.036,-0.048 -0.036,-0.156 0,-0.168 0.12,-0.204 0.408,-0.096 0.888,-0.252 0.492,-0.168 0.84,-0.348 0.048,-0.024 0.108,-0.06 0.06,-0.036 0.108,-0.036 0.072,0 0.084,0.048 0.024,0.036 0.024,0.096 0,0.096 -0.036,0.312 -0.024,0.204 -0.024,0.372 0,0.048 0,0.108 0.012,0.06 0.024,0.072 0.408,-0.396 0.828,-0.612 0.42,-0.216 0.972,-0.216 0.624,0 1.044,0.468 0.432,0.456 0.432,1.248 v 2.6399996 q 0,0.24 0.132,0.324 0.144,0.072 0.324,0.132 0.096,0.036 0.168,0.096 0.072,0.048 0.072,0.144 0,0.084 -0.072,0.132 -0.06,0.036 -0.132,0.036 -0.24,0 -0.456,-0.024 -0.204,-0.012 -0.408,-0.024 -0.192,-0.012 -0.408,-0.012 -0.204,0 -0.408,0.012 -0.204,0.012 -0.408,0.024 -0.204,0.024 -0.444,0.024 -0.072,0 -0.144,-0.036 -0.06,-0.048 -0.06,-0.132 0,-0.096 0.072,-0.144 0.072,-0.06 0.168,-0.096 0.18,-0.06 0.3,-0.132 0.12,-0.084 0.12,-0.324 V 9.5286884 q 0,-0.456 -0.216,-0.708 -0.204,-0.264 -0.552,-0.276 -0.264,0 -0.468,0.084 -0.204,0.084 -0.42,0.228 -0.048,0.048 -0.072,0.108 -0.024,0.06 -0.024,0.12 v 2.8319996 q 0,0.24 0.132,0.324 0.132,0.072 0.3,0.132 0.24,0.072 0.24,0.24 0,0.072 -0.06,0.12 -0.06,0.048 -0.144,0.048 -0.24,0 -0.444,-0.024 -0.204,-0.012 -0.384,-0.024 -0.18,-0.012 -0.396,-0.012 -0.204,0 -0.42,0.012 -0.204,0.012 -0.432,0.024 -0.216,0.024 -0.456,0.024 z"
     id="dp_text009"
     aria-label="n " />
  <path
     id="dp_path083"
     fill="none"
     fill-rule="evenodd"
     stroke="#000000"
     stroke-width="0.577333"
     stroke-linejoin="round"
     stroke-linecap="square"
     d="m 43.8067,84.634698 c 43.6893,-20.73 84.657,-28.119 143.06,-22.246" />
  <path
     id="dp_path084"
     fill="none"
     fill-rule="evenodd"
     stroke="#000000"
     stroke-width="0.577333"
     stroke-linejoin="round"
     stroke-linecap="square"
     d="M 132.9397,100.6807 C 118.0537,65.452698 96.664,45.399698 63.2107,37.742698" />
  <g
     id="dp_group085"
     transform="translate(16.5027,-105.4363)">
    <g
       id="dp_group086">
      <path
         id="dp_path087"
         fill="#000000"
         fill-rule="evenodd"
         d="m 82.9627,166.343 -0.1014,0.568 -0.768,1.037 2.8094,-0.971 -2.308,-1.873 z" />
      <path
         id="dp_path088"
         fill="#000000"
         d="m 49.0853,160.955 0.284,0.049 1.364,0.24 0.284,0.049 0.1014,-0.568 -0.284,-0.049 -1.364,-0.24 -0.284,-0.049 z m 2.728,0.48 0.284,0.049 1.364,0.24 0.284,0.049 0.1014,-0.568 -0.284,-0.049 -1.364,-0.24 -0.284,-0.049 z m 2.728,0.481 0.284,0.049 1.364,0.24 0.284,0.05 0.1014,-0.568 -0.284,-0.05 -1.364,-0.24 -0.284,-0.049 z m 2.728,0.481 0.284,0.05 1.364,0.24 0.284,0.049 0.1014,-0.568 -0.284,-0.049 -1.364,-0.24 -0.284,-0.05 z m 2.728,0.482 0.284,0.049 1.364,0.24 0.284,0.049 0.1014,-0.568 -0.284,-0.049 -1.364,-0.24 -0.284,-0.049 z m 2.728,0.48 0.284,0.049 1.364,0.241 0.284,0.05 0.1014,-0.568 -0.284,-0.05 -1.364,-0.241 -0.284,-0.049 z m 2.728,0.481 0.284,0.049 1.364,0.242 0.284,0.049 0.1014,-0.568 -0.284,-0.049 -1.364,-0.242 -0.284,-0.049 z m 2.728,0.481 0.284,0.05 1.364,0.241 0.284,0.049 0.1014,-0.568 -0.284,-0.049 -1.364,-0.241 -0.284,-0.05 z m 2.728,0.482 0.284,0.049 1.364,0.241 0.284,0.05 0.1014,-0.568 -0.284,-0.05 -1.364,-0.241 -0.284,-0.049 z m 2.728,0.481 0.284,0.049 1.364,0.242 0.284,0.049 0.1014,-0.568 -0.284,-0.049 -1.364,-0.242 -0.284,-0.049 z m 2.728,0.481 0.284,0.05 1.364,0.241 0.284,0.049 0.1014,-0.568 -0.284,-0.049 -1.364,-0.241 -0.284,-0.05 z m 2.728,0.482 0.284,0.049 1.364,0.241 0.284,0.05 0.1014,-0.568 -0.284,-0.05 -1.364,-0.241 -0.284,-0.049 z m 2.7294,0.481 0.284,0.049 0.7546,0.134 0.284,0.049 0.1014,-0.568 -0.284,-0.049 -0.7547,-0.134 -0.284,-0.049 z" />
    </g>
  </g>
  <text
     id="dp_text011"
     xml:space="preserve"
     fill="#000000"
     font-family="Arial"
     font-size="12px"
     font-weight="400"
     font-style="italic"
     x="62.116802"
     y="59.126713"> </text>
  <path
     style="font-weight:bold;font-size:12px;font-family:'EB Garamond';-inkscape-font-specification:'EB Garamond Bold'"
     d="m 138.31571,21.174708 q -0.096,0 -0.168,-0.036 -0.072,-0.048 -0.072,-0.132 0,-0.192 0.252,-0.252 0.456,-0.096 0.624,-0.24 0.168,-0.156 0.168,-0.552 v -5.376 q 0,-0.408 -0.144,-0.588 -0.144,-0.192 -0.576,-0.288 -0.156,-0.036 -0.216,-0.096 -0.06,-0.072 -0.06,-0.156 0,-0.072 0.072,-0.12 0.072,-0.06 0.192,-0.06 0.288,0 0.6,0.012 0.312,0.012 0.612,0.036 0.3,0.012 0.576,0.012 0.468,0 1.02,0 0.564,0 1.08,0 0.492,0 0.888,-0.06 0.408,-0.072 0.66,-0.072 0.096,0 0.192,0.048 0.096,0.048 0.108,0.18 0.024,0.276 0.036,0.576 0.012,0.3 0.012,0.576 0.012,0.276 0.012,0.468 0,0.24 -0.144,0.24 -0.06,0 -0.144,-0.048 -0.072,-0.048 -0.096,-0.144 -0.084,-0.3 -0.18,-0.528 -0.096,-0.24 -0.252,-0.396 -0.156,-0.168 -0.372,-0.24 -0.204,-0.072 -0.492,-0.072 h -0.9 q -0.3,0 -0.468,0.156 -0.168,0.144 -0.168,0.396 0,0.216 0,0.504 0,0.288 0,0.516 0,0.264 0,0.576 0,0.312 0,0.576 0,0.156 0.072,0.228 0.072,0.06 0.204,0.06 0.3,0 0.6,0 0.3,0 0.564,0 0.312,0 0.456,-0.18 0.144,-0.192 0.252,-0.444 0.048,-0.096 0.108,-0.156 0.072,-0.06 0.132,-0.06 0.06,0 0.108,0.072 0.06,0.072 0.048,0.192 -0.024,0.252 -0.048,0.48 -0.012,0.216 -0.012,0.384 0,0.228 0.012,0.396 0.012,0.156 0.036,0.432 0.012,0.156 -0.024,0.24 -0.036,0.072 -0.096,0.072 -0.096,0 -0.18,-0.084 -0.072,-0.096 -0.108,-0.204 -0.096,-0.36 -0.24,-0.48 -0.144,-0.132 -0.36,-0.132 -0.132,0 -0.288,0 -0.144,0 -0.276,0 -0.168,0 -0.36,0 -0.18,0 -0.348,0.012 -0.132,0 -0.204,0.072 -0.06,0.072 -0.06,0.204 0,0.54 0,1.128 0.012,0.588 0.024,1.128 0,0.384 0.204,0.54 0.204,0.156 0.708,0.264 0.12,0.024 0.18,0.084 0.072,0.048 0.072,0.156 0,0.084 -0.06,0.132 -0.048,0.048 -0.156,0.048 -0.264,0 -0.612,-0.024 -0.348,-0.012 -0.684,-0.024 -0.336,-0.012 -0.576,-0.012 -0.24,0 -0.54,0.012 -0.3,0.012 -0.612,0.024 -0.312,0.024 -0.588,0.024 z"
     id="dp_text012"
     aria-label="F " />
  <g
     id="dp_group092"
     transform="translate(16.5027,-105.4363)">
    <g
       id="dp_group093">
      <path
         id="dp_path094"
         fill="#000000"
         fill-rule="evenodd"
         d="m 117.216,137.119 -0.44,0.374 -0.879,0.75 2.971,1.261 -0.773,-3.133 z" />
      <path
         id="dp_path095"
         fill="#000000"
         d="m 100.429,130.195 0.287,0.03 0.363,0.04 0.032,-0.286 -0.036,0.286 0.36,0.046 0.036,-0.287 -0.039,0.287 0.36,0.048 0.039,-0.287 -0.042,0.285 0.356,0.052 0.042,-0.285 -0.046,0.285 0.355,0.056 0.045,-0.285 -0.046,0.285 0.353,0.059 0.047,-0.285 -0.052,0.284 0.35,0.064 0.052,-0.284 -0.054,0.284 0.349,0.066 0.055,-0.284 -0.058,0.283 0.347,0.071 0.057,-0.283 -0.06,0.283 0.344,0.073 0.06,-0.283 -0.064,0.282 0.343,0.078 0.064,-0.281 -0.067,0.281 0.34,0.082 0.067,-0.282 -0.071,0.28 0.339,0.086 0.071,-0.28 -0.074,0.278 0.336,0.088 0.074,-0.278 -0.078,0.278 0.334,0.092 0.077,-0.278 -0.08,0.277 0.331,0.096 0.08,-0.277 -0.084,0.276 0.329,0.1 0.084,-0.276 -0.087,0.276 0.327,0.102 0.087,-0.276 -0.091,0.275 0.324,0.107 0.091,-0.275 -0.094,0.273 0.322,0.11 0.093,-0.274 -0.096,0.272 0.32,0.114 0.096,-0.272 -0.1,0.27 0.316,0.118 0.1,-0.271 -0.103,0.269 0.315,0.12 0.103,-0.269 -0.107,0.268 0.311,0.124 0.106,-0.268 -0.11,0.267 0.309,0.128 0.111,-0.267 -0.114,0.265 0.307,0.131 0.113,-0.265 -0.116,0.264 0.304,0.133 0.116,-0.264 -0.12,0.263 0.3,0.137 0.12,-0.263 -0.124,0.262 0.299,0.141 0.124,-0.261 -0.127,0.26 0.296,0.144 0.127,-0.26 -0.129,0.257 0.292,0.147 0.129,-0.258 -0.133,0.256 0.29,0.151 0.134,-0.256 -0.138,0.255 0.287,0.154 0.137,-0.254 -0.14,0.252 0.284,0.157 0.14,-0.252 -0.142,0.251 0.281,0.16 0.143,-0.251 -0.147,0.249 0.279,0.164 0.146,-0.249 -0.149,0.247 0.276,0.166 0.149,-0.246 -0.153,0.244 0.272,0.17 0.153,-0.244 -0.156,0.243 0.27,0.173 0.156,-0.242 -0.159,0.241 0.267,0.176 0.158,-0.241 -0.162,0.238 0.262,0.18 0.163,-0.238 -0.165,0.236 0.26,0.182 0.165,-0.236 -0.169,0.235 0.257,0.185 0.169,-0.234 -0.173,0.23 0.253,0.19 0.174,-0.231 -0.176,0.229 0.25,0.192 0.176,-0.229 -0.178,0.227 0.246,0.194 0.179,-0.226 -0.183,0.224 0.244,0.198 0.183,-0.224 -0.185,0.222 0.24,0.201 0.185,-0.221 -0.188,0.218 0.237,0.204 0.188,-0.218 -0.19,0.216 0.234,0.206 0.191,-0.216 -0.195,0.214 0.231,0.21 0.195,-0.213 -0.198,0.211 0.227,0.213 0.197,-0.211 -0.201,0.207 0.223,0.216 0.201,-0.207 -0.204,0.206 0.22,0.218 0.204,-0.205 -0.22,0.187 0.128,0.15 0.187,0.22 0.44,-0.373 -0.187,-0.22 -0.128,-0.151 -0.008,-0.009 -0.008,-0.009 -0.22,-0.219 h -0.001 l -0.002,-0.001 -0.222,-0.216 -0.002,-0.003 -0.002,-0.001 -0.227,-0.214 -0.001,-0.001 -0.002,-0.001 -0.23,-0.211 -0.002,-0.001 -0.002,-0.002 -0.235,-0.206 -0.001,-0.002 -0.002,-10e-4 -0.237,-0.204 -10e-4,-0.001 -0.002,-0.002 -0.24,-0.201 -0.001,-0.001 -0.001,-0.002 -0.244,-0.198 -0.003,-0.002 -10e-4,-0.001 -0.247,-0.195 -0.001,-0.001 -0.002,-0.001 -0.25,-0.192 -0.002,-0.002 h -10e-4 l -0.253,-0.189 -0.003,-0.003 -0.001,-0.001 -0.258,-0.185 h -0.001 l -0.003,-0.002 -0.26,-0.182 -0.001,-0.002 -0.001,-0.001 -0.263,-0.18 -0.001,-0.001 -0.003,-0.002 -0.267,-0.176 h -0.001 l -0.001,-0.001 -0.27,-0.173 -0.001,-0.002 h -10e-4 l -0.272,-0.17 -0.002,-0.002 -0.002,-0.001 -0.276,-0.167 -0.002,-0.001 -0.001,-0.001 -0.279,-0.164 h -0.002 l -0.002,-0.002 -0.281,-0.16 -0.001,-0.001 h -0.002 l -0.284,-0.157 -0.001,-0.002 -10e-4,-0.001 -0.287,-0.155 h -0.003 l -10e-4,-0.001 -0.291,-0.151 -0.002,-0.001 h -0.002 l -0.292,-0.147 -0.001,-0.001 -10e-4,-0.001 -0.296,-0.144 h -0.002 l -0.001,-0.002 -0.299,-0.141 h -0.002 l -0.002,-0.001 -0.3,-0.138 -0.001,-10e-4 h -0.003 l -0.304,-0.133 -0.001,-0.002 h -10e-4 l -0.307,-0.13 -0.001,-0.002 h -0.002 l -0.309,-0.128 -0.001,-0.001 h -0.003 l -0.311,-0.124 -0.001,-0.001 h -0.003 l -0.314,-0.12 -0.002,-0.002 h -0.001 l -0.316,-0.117 -0.001,-0.001 h -0.003 l -0.32,-0.114 -10e-4,-0.001 h -0.002 l -0.321,-0.109 h -10e-4 l -0.002,-0.002 -0.324,-0.106 h -0.002 l -0.002,-0.002 -0.326,-0.102 h -0.002 -0.001 l -0.329,-0.1 -0.002,-0.002 h -0.002 l -0.331,-0.096 h -10e-4 l -0.002,-0.001 -0.333,-0.092 h -0.003 -0.001 l -0.336,-0.088 -10e-4,-10e-4 h -0.002 l -0.338,-0.086 h -0.002 l -0.002,-0.001 -0.34,-0.081 h -0.002 -0.001 l -0.343,-0.079 h -0.001 l -0.003,-0.001 -0.344,-0.074 H 104 103.999 l -0.347,-0.07 h -0.001 l -0.002,-0.002 -0.349,-0.066 h -10e-4 -0.002 l -0.35,-0.064 h -0.003 l -0.003,-0.002 -0.353,-0.058 h -10e-4 l -0.355,-0.056 h -0.001 -0.003 l -0.356,-0.052 h -0.001 l -0.002,-0.002 -0.36,-0.048 h -0.001 -10e-4 l -0.36,-0.045 h -0.003 -0.001 l -0.363,-0.04 -0.287,-0.031 z" />
    </g>
  </g>
  <g
     id="dp_group096"
     transform="translate(16.5027,-105.4363)">
    <path
       style="font-weight:bold;font-size:10px;font-family:'EB Garamond';-inkscape-font-specification:'EB Garamond Bold'"
       d="M 0.38,0.03 Q 0.3,0.03 0.24,0 0.18,-0.04 0.18,-0.11 q 0,-0.16 0.21,-0.21 0.38,-0.08 0.52,-0.2 0.14,-0.13 0.14,-0.46 V -5.46 Q 1.05,-5.8 0.93,-5.95 0.81,-6.11 0.45,-6.19 0.32,-6.22 0.27,-6.27 0.22,-6.33 0.22,-6.4 q 0,-0.06 0.06,-0.1 0.06,-0.05 0.16,-0.05 0.24,0 0.5,0.01 0.26,0.01 0.51,0.03 0.25,0.01 0.48,0.01 0.39,0 0.85,0 0.47,0 0.9,0 0.41,0 0.74,-0.05 0.34,-0.06 0.55,-0.06 0.08,0 0.16,0.04 0.08,0.04 0.09,0.15 0.02,0.23 0.03,0.48 0.01,0.25 0.01,0.48 0.01,0.23 0.01,0.39 0,0.2 -0.12,0.2 -0.05,0 -0.12,-0.04 Q 4.97,-4.95 4.95,-5.03 4.88,-5.28 4.8,-5.47 4.72,-5.67 4.59,-5.8 4.46,-5.94 4.28,-6 4.11,-6.06 3.87,-6.06 H 3.12 q -0.25,0 -0.39,0.13 -0.14,0.12 -0.14,0.33 0,0.18 0,0.42 0,0.24 0,0.43 0,0.22 0,0.48 0,0.26 0,0.48 0,0.13 0.06,0.19 0.06,0.05 0.17,0.05 0.25,0 0.5,0 0.25,0 0.47,0 0.26,0 0.38,-0.15 0.12,-0.16 0.21,-0.37 0.04,-0.08 0.09,-0.13 0.06,-0.05 0.11,-0.05 0.05,0 0.09,0.06 0.05,0.06 0.04,0.16 -0.02,0.21 -0.04,0.4 -0.01,0.18 -0.01,0.32 0,0.19 0.01,0.33 0.01,0.13 0.03,0.36 0.01,0.13 -0.02,0.2 -0.03,0.06 -0.08,0.06 -0.08,0 -0.15,-0.07 Q 4.39,-2.51 4.36,-2.6 4.28,-2.9 4.16,-3 4.04,-3.11 3.86,-3.11 q -0.11,0 -0.24,0 -0.12,0 -0.23,0 -0.14,0 -0.3,0 -0.15,0 -0.29,0.01 -0.11,0 -0.17,0.06 -0.05,0.06 -0.05,0.17 0,0.45 0,0.94 0.01,0.49 0.02,0.94 0,0.32 0.17,0.45 0.17,0.13 0.59,0.22 0.1,0.02 0.15,0.07 0.06,0.04 0.06,0.13 0,0.07 -0.05,0.11 Q 3.48,0.03 3.39,0.03 3.17,0.03 2.88,0.01 2.59,0 2.31,-0.01 2.03,-0.02 1.83,-0.02 1.63,-0.02 1.38,-0.01 1.13,0 0.87,0.01 0.61,0.03 0.38,0.03 Z"
       id="dp_text013"
       transform="translate(144.264,148.928)"
       aria-label="F " />
    <path
       id="dp_path098"
       fill="none"
       fill-rule="evenodd"
       stroke="#000000"
       stroke-width="0.844"
       stroke-linecap="square"
       d="m 151.256,146.721 v 4.664" />
    <path
       id="dp_path099"
       fill="none"
       fill-rule="evenodd"
       stroke="#000000"
       stroke-width="0.844"
       stroke-linecap="square"
       d="m 152.521,146.721 v 4.664" />
  </g>
  <g
     id="dp_group100"
     transform="translate(16.5027,-105.4363)">
    <path
       style="font-weight:bold;font-size:10px;font-family:'EB Garamond';-inkscape-font-specification:'EB Garamond Bold'"
       d="M 0.38,0.03 Q 0.3,0.03 0.24,0 0.18,-0.04 0.18,-0.11 q 0,-0.16 0.21,-0.21 0.38,-0.08 0.52,-0.2 0.14,-0.13 0.14,-0.46 V -5.46 Q 1.05,-5.8 0.93,-5.95 0.81,-6.11 0.45,-6.19 0.32,-6.22 0.27,-6.27 0.22,-6.33 0.22,-6.4 q 0,-0.06 0.06,-0.1 0.06,-0.05 0.16,-0.05 0.24,0 0.5,0.01 0.26,0.01 0.51,0.03 0.25,0.01 0.48,0.01 0.39,0 0.85,0 0.47,0 0.9,0 0.41,0 0.74,-0.05 0.34,-0.06 0.55,-0.06 0.08,0 0.16,0.04 0.08,0.04 0.09,0.15 0.02,0.23 0.03,0.48 0.01,0.25 0.01,0.48 0.01,0.23 0.01,0.39 0,0.2 -0.12,0.2 -0.05,0 -0.12,-0.04 Q 4.97,-4.95 4.95,-5.03 4.88,-5.28 4.8,-5.47 4.72,-5.67 4.59,-5.8 4.46,-5.94 4.28,-6 4.11,-6.06 3.87,-6.06 H 3.12 q -0.25,0 -0.39,0.13 -0.14,0.12 -0.14,0.33 0,0.18 0,0.42 0,0.24 0,0.43 0,0.22 0,0.48 0,0.26 0,0.48 0,0.13 0.06,0.19 0.06,0.05 0.17,0.05 0.25,0 0.5,0 0.25,0 0.47,0 0.26,0 0.38,-0.15 0.12,-0.16 0.21,-0.37 0.04,-0.08 0.09,-0.13 0.06,-0.05 0.11,-0.05 0.05,0 0.09,0.06 0.05,0.06 0.04,0.16 -0.02,0.21 -0.04,0.4 -0.01,0.18 -0.01,0.32 0,0.19 0.01,0.33 0.01,0.13 0.03,0.36 0.01,0.13 -0.02,0.2 -0.03,0.06 -0.08,0.06 -0.08,0 -0.15,-0.07 Q 4.39,-2.51 4.36,-2.6 4.28,-2.9 4.16,-3 4.04,-3.11 3.86,-3.11 q -0.11,0 -0.24,0 -0.12,0 -0.23,0 -0.14,0 -0.3,0 -0.15,0 -0.29,0.01 -0.11,0 -0.17,0.06 -0.05,0.06 -0.05,0.17 0,0.45 0,0.94 0.01,0.49 0.02,0.94 0,0.32 0.17,0.45 0.17,0.13 0.59,0.22 0.1,0.02 0.15,0.07 0.06,0.04 0.06,0.13 0,0.07 -0.05,0.11 Q 3.48,0.03 3.39,0.03 3.17,0.03 2.88,0.01 2.59,0 2.31,-0.01 2.03,-0.02 1.83,-0.02 1.63,-0.02 1.38,-0.01 1.13,0 0.87,0.01 0.61,0.03 0.38,0.03 Z"
       id="dp_text014"
       transform="translate(112.235,188.97)"
       aria-label="F " />
    <path
       id="dp_path102"
       fill="none"
       fill-rule="evenodd"
       stroke="#000000"
       stroke-width="0.844"
       stroke-linecap="square"
       d="m 119.227,186.763 v 4.664" />
    <path
       id="dp_path103"
       fill="none"
       fill-rule="evenodd"
       stroke="#000000"
       stroke-width="0.844"
       stroke-linecap="square"
       d="m 116.896,191.428 h 4.664" />
  </g>
  <g
     id="dp_group104"
     transform="translate(16.5027,-105.4363)">
    <g
       id="dp_group105">
      <path
         id="dp_path106"
         fill="#005c2a"
         fill-rule="evenodd"
         d="m 100.548,126.577 1.136,0.206 2.272,0.412 -1.811,-6.196 -3.8703,5.166 z" />
      <path
         id="dp_path107"
         fill="#005c2a"
         d="m 93.8573,169.961 0.1027,-0.568 7.724,-42.61 0.103,-0.568 -1.136,-0.206 -0.103,0.568 -7.724,42.611 -0.1027,0.568 z" />
    </g>
  </g>
  <g
     id="dp_group108"
     transform="translate(16.5027,-105.4363)">
    <g
       id="dp_group109">
      <path
         id="dp_path110"
         fill="#1e02ab"
         fill-rule="evenodd"
         d="m 192.223,113.885 0.365,1.096 0.728,2.191 4.568,-4.561 -6.389,-0.918 z" />
      <path
         id="dp_path111"
         fill="#1e02ab"
         d="m 93.4533,170.105 0.376,-0.437 0.5587,-0.649 -0.4373,-0.376 0.4333,0.381 0.5653,-0.644 -0.4333,-0.381 0.4307,0.384 0.5693,-0.639 -0.4307,-0.384 0.428,0.388 0.5747,-0.635 -0.428,-0.388 0.4253,0.391 0.58,-0.631 -0.4253,-0.39 0.4213,0.394 0.5854,-0.625 -0.4214,-0.395 0.4187,0.398 0.5893,-0.622 -0.4186,-0.397 0.416,0.401 0.5946,-0.616 -0.416,-0.401 0.412,0.404 0.6,-0.612 -0.412,-0.404 0.4094,0.408 0.6053,-0.608 -0.4093,-0.408 0.4066,0.411 0.6097,-0.603 -0.407,-0.411 0.403,0.414 0.614,-0.599 -0.402,-0.413 0.4,0.417 0.62,-0.595 -0.4,-0.417 0.396,0.42 0.625,-0.591 -0.396,-0.42 0.393,0.423 0.63,-0.585 -0.394,-0.423 0.391,0.425 0.633,-0.581 -0.39,-0.425 0.386,0.429 0.64,-0.577 -0.386,-0.43 0.384,0.431 0.642,-0.573 -0.384,-0.431 0.382,0.435 0.649,-0.57 -0.381,-0.434 0.377,0.436 0.653,-0.566 -0.377,-0.436 0.375,0.439 0.657,-0.561 -0.375,-0.439 0.372,0.441 0.663,-0.557 -0.372,-0.441 0.369,0.444 0.667,-0.554 -0.369,-0.444 0.365,0.448 0.672,-0.548 -0.365,-0.448 0.362,0.45 0.676,-0.546 -0.362,-0.449 0.36,0.452 0.68,-0.541 -0.36,-0.452 0.356,0.454 0.685,-0.537 -0.356,-0.455 0.353,0.456 0.691,-0.534 -0.353,-0.456 0.35,0.458 0.694,-0.529 -0.351,-0.459 0.348,0.462 0.699,-0.527 -0.348,-0.461 0.344,0.464 0.704,-0.523 -0.344,-0.464 0.341,0.465 0.707,-0.518 -0.342,-0.466 0.339,0.468 0.712,-0.514 -0.339,-0.468 0.336,0.469 0.716,-0.512 -0.336,-0.469 0.334,0.472 0.72,-0.508 -0.334,-0.472 0.33,0.474 0.725,-0.504 -0.329,-0.474 0.328,0.476 0.728,-0.502 -0.328,-0.476 0.324,0.478 0.733,-0.498 -0.324,-0.477 0.321,0.48 0.738,-0.495 -0.322,-0.48 0.319,0.482 0.741,-0.491 -0.318,-0.481 0.316,0.482 0.745,-0.488 -0.316,-0.482 0.313,0.485 0.751,-0.484 -0.313,-0.485 0.31,0.486 0.754,-0.48 -0.311,-0.486 0.308,0.488 0.757,-0.479 -0.308,-0.488 0.304,0.491 0.763,-0.474 -0.304,-0.49 0.303,0.492 0.765,-0.472 -0.303,-0.492 0.3,0.493 0.77,-0.468 -0.3,-0.493 0.297,0.494 0.773,-0.465 -0.297,-0.495 0.295,0.498 0.778,-0.462 -0.294,-0.497 0.292,0.497 0.781,-0.458 -0.292,-0.498 0.289,0.5 0.786,-0.456 -0.29,-0.5 0.288,0.502 0.79,-0.454 -0.288,-0.501 0.285,0.503 0.792,-0.45 -0.285,-0.502 0.282,0.504 0.798,-0.448 -0.283,-0.504 0.28,0.505 0.8,-0.444 -0.28,-0.505 0.277,0.506 0.806,-0.441 -0.278,-0.507 0.276,0.508 0.808,-0.438 -0.276,-0.508 0.274,0.508 0.81,-0.436 -0.273,-0.508 0.271,0.509 0.816,-0.433 -0.271,-0.51 0.269,0.511 0.819,-0.431 -0.269,-0.51 0.265,0.512 0.823,-0.427 -0.266,-0.512 0.264,0.513 0.826,-0.425 -0.264,-0.513 0.262,0.514 0.83,-0.422 -0.263,-0.515 0.26,0.516 0.833,-0.42 -0.26,-0.516 0.259,0.516 0.837,-0.419 -0.258,-0.516 0.256,0.518 0.84,-0.415 -0.256,-0.517 0.253,0.518 0.843,-0.412 -0.254,-0.518 0.252,0.52 0.847,-0.411 -0.252,-0.52 0.249,0.52 0.851,-0.408 -0.249,-0.52 0.248,0.521 0.853,-0.405 -0.248,-0.521 0.247,0.522 0.857,-0.404 -0.247,-0.522 0.244,0.522 0.86,-0.401 -0.244,-0.523 0.243,0.524 0.863,-0.398 -0.243,-0.524 0.24,0.525 0.867,-0.396 -0.24,-0.525 0.238,0.525 0.871,-0.395 -0.239,-0.525 0.238,0.527 0.872,-0.392 -0.238,-0.527 0.235,0.528 0.877,-0.391 -0.234,-0.528 0.233,0.528 0.879,-0.388 -0.234,-0.528 0.232,0.53 0.883,-0.387 -0.232,-0.529 0.229,0.529 0.886,-0.384 -0.23,-0.529 0.228,0.53 1.78,-0.762 -0.228,-0.531 0.224,0.532 1.792,-0.755 -0.224,-0.532 0.222,0.534 1.804,-0.748 -0.222,-0.534 0.219,0.535 1.816,-0.741 -0.219,-0.535 0.216,0.536 1.827,-0.735 -0.216,-0.536 0.213,0.538 1.838,-0.728 -0.214,-0.538 0.21,0.538 1.849,-0.722 -0.209,-0.537 0.208,0.539 1.858,-0.716 -0.208,-0.539 0.206,0.54 1.87,-0.711 -0.205,-0.54 0.203,0.54 1.88,-0.705 -0.203,-0.54 0.2,0.541 1.889,-0.7 -0.2,-0.541 0.199,0.543 1.9,-0.696 -0.199,-0.543 0.196,0.543 1.911,-0.691 -0.196,-0.543 0.195,0.544 1.918,-0.688 -0.194,-0.544 0.193,0.544 1.928,-0.682 -0.193,-0.544 0.19,0.545 1.938,-0.68 -0.191,-0.545 0.189,0.545 1.946,-0.676 -0.19,-0.545 0.188,0.545 1.955,-0.673 -0.188,-0.546 0.187,0.547 1.962,-0.671 -0.186,-0.546 0.185,0.546 1.971,-0.668 -0.186,-0.546 0.184,0.546 1.979,-0.666 -0.184,-0.547 0.183,0.548 0.501,-0.167 0.547,-0.181 -0.366,-1.096 -0.546,0.181 -0.502,0.167 -0.001,10e-4 -1.979,0.667 h -0.001 l -1.971,0.668 h -0.001 l -1.963,0.671 h -0.001 v 0.001 l -1.955,0.673 h -10e-4 l -1.945,0.676 h -0.002 l -1.937,0.68 -0.001,0.002 h -0.002 l -1.928,0.682 h -10e-4 l -1.919,0.688 -0.001,0.002 -1.911,0.69 h -0.001 -10e-4 l -1.9,0.696 -0.002,0.002 -1.889,0.7 h -10e-4 l -0.002,0.001 -1.88,0.705 h -0.001 -0.001 l -1.871,0.711 -10e-4,10e-4 h -0.002 l -1.858,0.716 h -0.002 v 0.002 l -1.849,0.721 h -0.001 -0.003 l -1.837,0.728 -0.002,0.001 h -0.001 l -1.827,0.735 -0.001,0.001 h -0.001 l -1.816,0.742 -0.002,0.001 h -0.001 l -1.804,0.748 h -0.001 l -0.002,10e-4 -1.792,0.755 h -10e-4 l -0.003,0.001 -1.78,0.763 -0.001,0.001 -0.885,0.384 h -0.002 -0.001 l -0.883,0.387 v 0.001 h -0.001 l -0.879,0.388 h -0.001 l -0.877,0.391 -0.002,0.001 h -10e-4 l -0.872,0.392 -0.001,0.002 -0.871,0.394 h -0.001 l -0.867,0.396 h -10e-4 l -0.002,0.002 -0.862,0.398 -0.002,0.002 -0.86,0.401 h -0.001 -0.001 l -0.858,0.404 v 0.001 h -0.001 l -0.853,0.406 h -0.002 v 10e-4 l -0.85,0.408 h -0.002 -0.001 l -0.847,0.411 -10e-4,0.001 -0.843,0.412 h -0.001 l -10e-4,0.001 -0.84,0.415 h -0.002 l -0.001,0.001 -0.837,0.419 h -0.002 l -0.833,0.42 -0.001,0.001 h -0.002 l -0.829,0.423 -0.001,0.001 -0.826,0.426 h -0.001 v 0.001 l -0.823,0.427 h -0.002 l -0.002,0.001 -0.818,0.431 -0.002,0.001 -0.816,0.433 h -0.001 l -0.001,0.002 -0.811,0.436 h -10e-4 -0.002 l -0.808,0.438 v 0.002 h -0.001 l -0.805,0.441 -0.002,0.001 h -10e-4 l -0.8,0.444 -0.001,0.002 h -0.002 l -0.797,0.448 -0.001,0.001 h -0.002 l -0.792,0.449 -0.001,0.002 h -0.001 l -0.79,0.453 -0.001,0.001 -0.785,0.456 -0.002,0.002 -0.001,0.001 -0.781,0.459 h -0.002 -0.001 l -0.779,0.461 -0.001,0.001 -10e-4,0.002 -0.774,0.465 h -0.001 l -10e-4,10e-4 -0.77,0.468 -10e-4,0.002 h -0.001 l -0.766,0.472 -10e-4,0.001 -0.763,0.473 -0.002,0.002 -0.002,0.001 -0.757,0.479 h -0.001 l -0.002,10e-4 -0.753,0.48 h -0.001 l -0.002,0.001 -0.75,0.484 -0.002,0.002 -10e-4,0.001 -0.745,0.488 h -0.002 l -0.001,0.001 -0.741,0.491 -0.002,0.001 h -0.001 l -0.737,0.495 -0.002,0.001 -10e-4,0.002 -0.733,0.497 h -0.002 l -0.002,0.001 -0.728,0.502 v 0.001 h -0.002 l -0.725,0.504 -10e-4,0.001 -0.003,0.002 -0.72,0.508 -10e-4,10e-4 -0.002,0.001 -0.716,0.512 H 114.1 l -10e-4,0.002 -0.712,0.514 -0.002,0.002 -0.001,0.001 -0.707,0.519 -0.001,0.001 h -0.001 l -0.704,0.523 -0.002,0.001 -0.002,10e-4 -0.699,0.527 -0.001,0.001 -0.002,0.002 -0.693,0.529 -0.001,10e-4 -0.002,0.002 -0.69,0.534 h -0.002 l -10e-4,0.002 -0.685,0.537 -0.002,0.001 -0.002,0.002 -0.68,0.541 -0.002,0.001 -10e-4,0.002 -0.676,0.545 -0.001,0.001 h -0.002 l -0.672,0.548 -0.001,0.003 -0.003,10e-4 -0.666,0.554 -0.002,0.001 -10e-4,0.001 -0.663,0.558 -10e-4,0.001 -0.001,0.001 -0.658,0.562 -10e-4,10e-4 -0.001,0.001 -0.654,0.566 H 104.5 l -0.003,0.001 -0.649,0.569 -0.001,0.003 -0.002,0.001 -0.642,0.574 -0.002,0.001 H 103.2 l -0.64,0.577 -0.001,0.003 -0.003,10e-4 -0.633,0.582 -0.002,0.001 -0.001,10e-4 -0.629,0.586 -0.002,0.001 -0.001,0.001 -0.625,0.591 -0.003,0.001 -10e-4,0.002 -0.62,0.594 -0.002,0.003 -0.001,0.001 -0.6147,0.599 -0.0013,0.001 -0.0027,0.002 -0.6093,0.602 -0.0013,0.002 -0.0014,0.001 -0.6053,0.608 -0.0013,0.003 -0.0014,0.001 -0.6,0.612 -0.0013,0.001 -0.0027,0.002 -0.5946,0.616 -0.0014,0.002 -0.0013,0.002 -0.5893,0.621 -0.0014,0.001 -0.0013,0.002 -0.5853,0.625 -0.0014,0.001 -0.0026,0.003 -0.58,0.631 -0.0014,0.001 -0.0013,10e-4 -0.5747,0.635 -0.0013,0.003 -0.0013,0.001 -0.5694,0.639 -0.0013,0.001 -0.0013,10e-4 -0.5654,0.644 -0.0026,0.003 -0.0014,0.003 -0.5586,0.649 -0.376,0.437 z" />
    </g>
  </g>
  <path
     id="dp_path112"
     fill="none"
     fill-rule="evenodd"
     stroke="#000000"
     stroke-width="0.866667"
     stroke-linejoin="round"
     stroke-linecap="square"
     d="m 155.2557,49.916698 8.922,-49.2199996" />
  <g
     id="dp_group113"
     transform="translate(16.5027,-105.4363)">
    <g
       id="dp_group114">
      <path
         id="dp_path115"
         fill="#000000"
         fill-rule="evenodd"
         d="m 139.319,149.8 0.852,0.155 1.705,0.308 -1.359,-4.647 -2.902,3.875 z" />
      <path
         id="dp_path116"
         fill="#000000"
         d="m 133.453,187.025 0.076,-0.425 6.643,-36.645 0.076,-0.426 -0.853,-0.154 -0.076,0.425 -6.643,36.645 -0.076,0.426 z" />
    </g>
  </g>
  <path
     id="dp_path117"
     fill="#000000"
     fill-rule="evenodd"
     d="m 127.9657,25.007698 c 0.317,-0.008 0.637,-0.115 0.956,-0.324 0.312,-0.199 0.608,-0.467 0.889,-0.804 0.573,-0.704 1.02,-1.512 1.336,-2.425 0.153,-0.451 0.263,-0.888 0.328,-1.311 0.055,-0.423 0.052,-0.803 -0.007,-1.143 -0.052,-0.338 -0.165,-0.609 -0.338,-0.812 -0.182,-0.2 -0.43,-0.3 -0.746,-0.3 -0.308,0 -0.617,0.1 -0.929,0.3 -0.312,0.203 -0.612,0.474 -0.9,0.812 -0.591,0.715 -1.043,1.532 -1.355,2.454 -0.31,0.913 -0.412,1.721 -0.302,2.425 0.058,0.337 0.176,0.605 0.35,0.804 0.174,0.209 0.411,0.316 0.718,0.324 z m 2.176,-3.544 -0.214,0.624 c -0.272,0.804 -0.564,1.445 -0.873,1.92 -0.327,0.493 -0.66,0.743 -1.004,0.751 -0.327,-0.008 -0.484,-0.258 -0.469,-0.751 -0.003,-0.475 0.132,-1.116 0.405,-1.92 l 0.212,-0.624 z m -1.808,-0.396 0.256,-0.752 c 0.196,-0.577 0.442,-1.077 0.741,-1.501 0.152,-0.207 0.312,-0.372 0.475,-0.498 0.162,-0.118 0.326,-0.178 0.494,-0.178 0.18,0 0.312,0.06 0.394,0.178 0.078,0.126 0.122,0.291 0.136,0.498 -0.003,0.424 -0.103,0.924 -0.299,1.501 l -0.256,0.752 z" />
  <g
     id="dp_group118"
     transform="translate(16.5027,-105.4363)">
    <g
       id="dp_group119">
      <path
         id="dp_path120"
         fill="#f3ba00"
         fill-rule="evenodd"
         d="m 124.252,132.54 0.875,0.753 1.75,1.507 1.578,-6.26 -5.955,2.495 z" />
      <path
         id="dp_path121"
         fill="#f3ba00"
         d="m 93.4533,170.104 0.376,-0.437 31.2977,-36.374 0.376,-0.437 -0.875,-0.752 -0.376,0.437 -31.2973,36.374 -0.376,0.437 z" />
    </g>
  </g>
  <path
     id="dp_path122"
     fill="none"
     fill-rule="evenodd"
     stroke="#f3ba00"
     stroke-width="0.988"
     stroke-linejoin="round"
     stroke-linecap="square"
     d="M 132.6937,37.239698 164.1787,0.6966984" />
  <g
     id="text1"
     style="font-weight:bold;font-size:12px;line-height:0.75;font-family:'EB Garamond';-inkscape-font-specification:'EB Garamond Bold';text-align:center;text-anchor:middle;stroke-width:1.33333"
     aria-label="ds">
    <path
       style="font-weight:normal;-inkscape-font-specification:'EB Garamond'"
       d="m 58.824688,57.85435 q -0.024,0 -0.084,-0.048 -0.048,-0.048 -0.048,-0.072 0,-0.12 0.024,-0.336 0.036,-0.228 0.036,-0.384 v -0.072 q -0.18,0.276 -0.576,0.564 -0.396,0.288 -0.996,0.288 -0.684,0 -1.188,-0.36 -0.492,-0.36 -0.768,-0.924 -0.264,-0.564 -0.264,-1.164 0,-0.696 0.324,-1.308 0.324,-0.612 0.924,-0.996 0.612,-0.384 1.452,-0.384 0.24,0 0.48,0.048 0.252,0.036 0.384,0.084 0.108,0.036 0.156,0.036 0.084,0 0.084,-0.288 v -1.704 q 0,-0.492 -0.156,-0.66 -0.156,-0.168 -0.444,-0.216 -0.108,-0.024 -0.108,-0.156 0,-0.108 0.096,-0.144 0.528,-0.132 0.828,-0.252 0.3,-0.12 0.468,-0.192 0.048,-0.024 0.084,-0.024 0.048,-0.012 0.072,-0.012 0.072,0 0.084,0.072 0,0.072 -0.024,0.252 -0.012,0.168 -0.036,0.504 -0.024,0.336 -0.024,0.876 v 5.424 q 0,0.408 0.06,0.6 0.06,0.18 0.192,0.18 0.06,0 0.204,-0.012 0.156,-0.012 0.312,-0.024 0.216,-0.012 0.216,0.108 0,0.084 -0.06,0.156 -0.048,0.06 -0.108,0.06 -0.336,0.048 -0.66,0.144 -0.324,0.084 -0.744,0.264 -0.096,0.048 -0.132,0.06 -0.024,0.012 -0.06,0.012 z m -1.212,-0.684 q 0.312,0 0.612,-0.156 0.3,-0.168 0.528,-0.432 l 0.012,-2.16 q 0,-0.324 -0.192,-0.636 -0.18,-0.312 -0.516,-0.504 -0.324,-0.204 -0.768,-0.204 -0.276,0 -0.624,0.168 -0.348,0.168 -0.6,0.6 -0.252,0.42 -0.252,1.224 0,0.684 0.204,1.104 0.204,0.408 0.492,0.624 0.3,0.216 0.6,0.3 0.312,0.072 0.504,0.072 z"
       id="path3" />
    <path
       style="font-style:italic;font-weight:normal;-inkscape-font-specification:'EB Garamond Italic'"
       d="m 60.924694,57.79435 q -0.264,0 -0.456,-0.156 -0.192,-0.144 -0.192,-0.372 0,-0.276 0.132,-0.408 0.12,-0.144 0.204,-0.144 0.084,0 0.168,0.072 0.096,0.06 0.204,0.156 0.132,0.096 0.288,0.192 0.168,0.084 0.432,0.084 0.324,0 0.516,-0.228 0.192,-0.24 0.204,-0.504 0,-0.264 -0.096,-0.564 -0.084,-0.312 -0.252,-0.612 -0.156,-0.288 -0.264,-0.54 -0.096,-0.264 -0.096,-0.444 0,-0.348 0.18,-0.648 0.192,-0.312 0.456,-0.54 0.276,-0.228 0.54,-0.348 0.264,-0.132 0.42,-0.132 0.156,0 0.312,0.096 0.156,0.084 0.252,0.204 0.108,0.108 0.108,0.192 0,0.072 -0.072,0.18 -0.072,0.096 -0.168,0.18 -0.096,0.084 -0.168,0.084 -0.06,0 -0.12,-0.06 -0.06,-0.06 -0.132,-0.132 -0.072,-0.072 -0.18,-0.132 -0.096,-0.06 -0.264,-0.06 -0.192,0 -0.336,0.168 -0.144,0.156 -0.144,0.42 0,0.096 0.06,0.3 0.072,0.204 0.156,0.42 0.096,0.216 0.18,0.384 0.132,0.24 0.24,0.612 0.12,0.36 0.12,0.636 0,0.36 -0.216,0.66 -0.204,0.3 -0.54,0.528 -0.336,0.216 -0.732,0.336 -0.384,0.12 -0.744,0.12 z"
       id="path4" />
  </g>
</svg>
