<?xml version="1.0" encoding="UTF-8" standalone="no"?>
<svg
   width="398.39328"
   height="426.90805"
   viewBox="-258 -405 1239.9991 1328.4901"
   version="1.1"
   id="svg14"
   sodipodi:docname="leyes-kepler.svg"
   inkscape:version="1.3.2 (091e20e, 2023-11-25)"
   xmlns:inkscape="http://www.inkscape.org/namespaces/inkscape"
   xmlns:sodipodi="http://sodipodi.sourceforge.net/DTD/sodipodi-0.dtd"
   xmlns="http://www.w3.org/2000/svg"
   xmlns:svg="http://www.w3.org/2000/svg">
  <defs
     id="defs14" />
  <sodipodi:namedview
     id="namedview14"
     pagecolor="#ffffff"
     bordercolor="#000000"
     borderopacity="0.25"
     inkscape:showpageshadow="2"
     inkscape:pageopacity="0.0"
     inkscape:pagecheckerboard="0"
     inkscape:deskcolor="#d1d1d1"
     inkscape:zoom="1.2193252"
     inkscape:cx="229.22515"
     inkscape:cy="204.62138"
     inkscape:window-width="1512"
     inkscape:window-height="822"
     inkscape:window-x="1920"
     inkscape:window-y="90"
     inkscape:window-maximized="0"
     inkscape:current-layer="svg14" />
  <path
     stroke-dasharray="29, 10, 5, 10"
     d="m 297.85856,-72.63125 v 138 m -500,-69 h 1000"
     id="path1"
     style="fill:#880088;stroke:#4477aa;stroke-width:2;stroke-opacity:1" />
  <path
     stroke-dasharray="6, 6"
     fill="#dddddd"
     d="m -2.1414395,-3.63125 v 320 a 500,400 0 0 1 -170.0000005,-184 z m 0,0 599.9999995,320 a 500,400 0 0 0 79,-59 z"
     id="path2"
     style="fill:#bbbbbb;fill-opacity:1;stroke:#4477aa;stroke-width:2;stroke-opacity:1" />
  <ellipse
     stroke-width="3"
     fill="none"
     rx="500"
     ry="400"
     cx="297.85855"
     id="ellipse2"
     cy="-3.6312499"
     style="stroke:#4477aa;stroke-opacity:1" />
  <circle
     r="11"
     cx="597.85858"
     id="circle2"
     cy="-3.6312499"
     style="fill:#4477aa;fill-opacity:1;stroke:#4477aa;stroke-width:2;stroke-opacity:1" />
  <circle
     r="14"
     cy="316.36874"
     id="circle3"
     cx="-2.1414394"
     style="fill:#4477aa;fill-opacity:1;stroke:#4477aa;stroke-width:2;stroke-opacity:1" />
  <path
     fill="none"
     d="m 197.85856,411.36875 c 62,8 102,9 158,4 l -43,14 m 43,-14 -45,-8"
     id="path3"
     style="stroke:#4477aa;stroke-width:2;stroke-opacity:1" />
  <path
     stroke-dasharray="29, 10, 5, 10"
     d="M 408.16954,272.96575 315.82951,375.51974 M -158.20185,-144.14868 882.2009,792.63417"
     id="path4"
     style="fill:#008888;stroke:#ee6677;stroke-width:2;stroke-opacity:1" />
  <ellipse
     stroke-width="3"
     fill="none"
     rx="700"
     ry="500"
     cx="485.97882"
     id="ellipse4"
     cy="-1.2656419"
     transform="rotate(42)"
     style="stroke:#ee6677;stroke-opacity:1" />
  <circle
     r="11"
     cx="975.97882"
     id="circle4"
     cy="-1.2656419"
     transform="rotate(42)"
     style="fill:#ee6677;fill-opacity:1;stroke:#ee6677;stroke-width:2;stroke-opacity:1" />
  <circle
     r="14"
     cx="485.97882"
     cy="498.73434"
     id="circle5"
     transform="rotate(42)"
     style="fill:#ee6677;fill-opacity:1;stroke:#ee6677;stroke-width:2;stroke-opacity:1" />
  <path
     fill="none"
     d="m -23.460689,602.89203 c 40.721934,47.43126 69.778597,74.93963 114.74036,108.69522 L 49.956615,693.21866 m 41.323056,18.36859 -28.088472,-36.05604"
     id="path5"
     style="stroke:#ee6677;stroke-width:2;stroke-opacity:1" />
  <circle
     r="20"
     fill="#444444"
     id="circle6"
     cx="-2.1414394"
     cy="-3.6312499" />
  <g
     id="text14"
     style="font-style:italic;font-size:83px;line-height:0.75;font-family:'EB Garamond';-inkscape-font-specification:'EB Garamond Italic';text-align:center;text-anchor:middle;stroke-width:4.14999"
     aria-label="F1 (sol)"
     transform="translate(-2.1414395,-3.63125)">
    <path
       style="font-style:normal;-inkscape-font-specification:'EB Garamond';stroke-width:4.15"
       d="m -23.203014,-37.924218 q -1.079,0 -1.743,-0.249 -0.664,-0.166 -0.664,-0.664 0,-0.996 2.739,-1.494 3.154,-0.581 4.316,-1.909 1.245,-1.328 1.245,-4.399 v -35.026 q 0,-3.735 -0.996,-5.727 -0.913,-1.992 -4.067,-2.573 -1.411,-0.249 -2.075,-0.664 -0.664,-0.415 -0.664,-0.996 0,-0.498 0.664,-0.664 0.664,-0.249 1.743,-0.249 3.071,0 5.146,0.083 2.158,0.083 4.233,0.166 2.075,0 4.897,0 2.407,0 5.146,0 2.73899995,0 5.312,0 2.656,0 4.648,-0.415 2.075,-0.415 3.569,-0.415 0.415,0 0.913,0.166 0.498,0.166 0.581,0.581 0.166,0.913 0.249,2.739 0.083,1.743 0.083,3.403 0.083,1.66 0.083,2.241 0,1.743 -0.747,1.743 -0.415,0 -0.747,-0.249 -0.332,-0.332 -0.498,-0.747 -0.332,-1.411 -0.83,-2.407 -0.498,-1.079 -1.079,-1.66 -1.162,-1.328 -2.573,-1.743 -1.411,-0.498 -2.988,-0.498 h -10.541 q -1.909,0 -2.324,1.245 -0.415,1.245 -0.498,2.905 -0.083,1.577 -0.083,3.901 0,2.241 0,4.399 0,2.075 0,4.233 0,2.158 0.083,3.652 0,0.664 0.083,1.245 0.166,0.581 0.747,0.581 2.656,0 5.395,-0.083 2.739,-0.166 4.23299995,-0.166 1.82600005,0 3.15400005,-0.996 1.328,-0.996 1.909,-2.407 0.166,-0.332 0.664,-0.83 0.498,-0.581 0.83,-0.581 0.332,0 0.747,0.415 0.415,0.332 0.332,0.913 -0.083,1.411 -0.166,2.49 -0.083,1.079 -0.083,2.075 0,1.245 0.083,2.573 0.083,1.245 0.166,3.071 0,0.581 -0.166,0.996 -0.083,0.415 -0.581,0.415 -0.83,0 -1.328,-0.747 -0.415,-0.747 -0.581,-1.162 -0.581,-1.909 -1.743,-2.573 -1.162,-0.747 -2.15800005,-0.747 -1.079,0 -2.15799995,0 -0.996,-0.083 -1.992,-0.083 -1.411,0 -2.739,0 -1.328,0 -2.656,0.166 -0.83,0.083 -1.411,0.581 -0.581,0.415 -0.581,1.494 0,3.818 0,7.802 0.083,3.901 0.249,8.051 0.166,2.656 1.245,4.233 1.162,1.577 4.233,2.158 1.411,0.249 2.075,0.581 0.664,0.332 0.664,0.913 0,0.498 -0.664,0.664 -0.664,0.249 -1.743,0.249 -2.241,0 -3.486,-0.166 -1.162,-0.166 -2.158,-0.249 -0.913,-0.166 -2.49,-0.166 -1.992,0 -3.569,0.166 -1.494,0.083 -3.071,0.249 -1.577,0.166 -3.818,0.166 z"
       id="path6" />
    <path
       style="font-style:normal;font-size:53.95px;-inkscape-font-specification:'EB Garamond';baseline-shift:sub;stroke-width:4.15"
       d="m 20.168562,-21.577368 q -0.37765,0 -0.59345,-0.2158 -0.2158,-0.2158 -0.2158,-0.4316 0,-0.48555 0.80925,-0.70135 2.050099,-0.5395 3.344899,-0.9711 1.34875,-0.48555 1.9422,-1.2948 0.6474,-0.8632 0.6474,-2.427749 v -20.608899 q 0,-1.02505 -0.6474,-1.56455 -0.6474,-0.5395 -1.67245,-0.7553 -1.02505,-0.2158 -2.21195,-0.26975 -0.5395,-0.05395 -0.971099,-0.26975 -0.4316,-0.2158 -0.4316,-0.6474 0,-0.37765 0.37765,-0.6474 0.431599,-0.26975 0.971099,-0.3237 2.42775,-0.37765 4.316,-0.91715 1.9422,-0.59345 3.7765,-2.42775 0.05395,-0.05395 0.1079,-0.05395 0.1079,0 0.16185,0 0.26975,0 0.48555,0.16185 0.2158,0.1079 0.16185,0.3237 -0.1079,0.80925 -0.16185,1.78035 -0.05395,0.91715 -0.05395,2.0501 v 24.816999 q 0,1.348749 0.48555,2.050099 0.5395,0.70135 1.78035,1.13295 1.24085,0.37765 3.4528,0.91715 0.3237,0.05395 0.59345,0.26975 0.3237,0.16185 0.3237,0.4316 0,0.59345 -0.7553,0.59345 -1.5106,0 -2.8054,-0.1079 -1.24085,-0.05395 -2.4817,-0.1079 -1.1869,-0.05395 -2.64355,-0.05395 -1.45665,0 -2.75145,0.05395 -1.2948,0.05395 -2.5896,0.1079 -1.2948,0.1079 -2.751449,0.1079 z"
       id="path7" />
    <path
       style="font-style:normal;-inkscape-font-specification:'EB Garamond';stroke-width:4.15"
       d="m 76.562945,-20.577218 q -0.83,0 -1.411,-0.581 -1.743,-1.743 -3.818,-4.98 -1.992,-3.237 -3.984,-7.387 -1.992,-4.15 -3.652,-8.798 -1.577,-4.731 -2.573,-9.379 -0.913,-4.731 -0.913,-8.964 0,-5.312 1.411,-10.624 1.411,-5.312 3.652,-10.043 2.241,-4.814 4.731,-8.549 2.573,-3.818 4.814,-6.059 0.415,-0.415 0.996,-0.664 0.664,-0.249 1.245,-0.249 0.415,0 1.079,0.415 0.747,0.332 0.747,0.913 0,0.083 -0.249,0.415 -0.249,0.332 -0.498,0.747 -0.249,0.332 -0.332,0.415 -2.49,2.905 -4.98,7.802 -2.49,4.897 -4.15,11.205 -1.577,6.225 -1.577,13.28 0,5.312 0.913,11.039 0.913,5.644 2.407,10.956 1.494,5.229 3.32,9.296 1.909,4.15 3.818,6.391 0.083,0.083 0.332,0.415 0.332,0.332 0.581,0.664 0.332,0.415 0.332,0.498 0,0.83 -0.747,1.328 -0.664,0.498 -1.494,0.498 z m 18.42605,-16.6 q -2.573,0 -4.814,-0.83 -2.241,-0.747 -3.818,-2.158 -0.415,-0.913 -0.664,-3.071 -0.166,-2.158 -0.249,-3.569 0,-0.747 1.079,-0.747 0.332,0 0.581,0.166 0.332,0.083 0.415,0.415 1.079,4.067 3.403,5.81 2.407,1.743 4.814,1.743 2.407,0 4.067,-1.577 1.742995,-1.66 1.742995,-4.067 0,-2.241 -1.494,-3.818 -1.493995,-1.66 -5.228995,-3.984 -2.822,-1.743 -4.565,-3.32 -1.743,-1.577 -2.573,-3.237 -0.747,-1.66 -0.747,-3.735 0,-2.656 1.245,-4.814 1.245,-2.158 3.735,-3.403 2.49,-1.328 6.225,-1.328 2.489995,0 4.149995,0.498 1.66,0.498 2.49,1.079 0.664,0.913 1.079,2.905 0.498,1.909 0.498,3.652 0,0.581 -0.83,0.581 -0.498,0 -0.996,-0.166 -0.415,-0.249 -0.581,-0.581 -1.079,-2.739 -2.739,-4.15 -1.576995,-1.494 -3.983995,-1.494 -2.075,0 -3.735,1.245 -1.577,1.245 -1.577,3.652 0,1.909 1.162,3.403 1.245,1.494 4.565,3.403 4.813995,2.739 7.137995,5.146 2.407,2.324 2.407,6.225 0,4.482 -3.403,7.304 -3.403,2.822 -8.797995,2.822 z m 34.278995,0 q -4.648,0 -8.383,-2.158 -3.735,-2.158 -5.976,-5.893 -2.158,-3.818 -2.158,-8.632 0,-3.486 1.328,-6.806 1.411,-3.32 3.901,-6.059 2.49,-2.739 5.81,-4.316 3.32,-1.66 7.138,-1.66 4.814,0 8.632,2.324 3.901,2.324 6.142,6.142 2.324,3.735 2.324,8.217 0,4.814 -2.158,9.13 -2.075,4.316 -6.225,7.055 -4.15,2.656 -10.375,2.656 z m 1.743,-2.49 q 2.822,0 5.063,-1.079 2.241,-1.079 3.486,-3.486 0.996,-1.909 1.328,-4.648 0.332,-2.739 0.332,-5.146 0,-3.984 -1.494,-7.636 -1.411,-3.735 -4.067,-6.059 -2.573,-2.407 -6.142,-2.407 -2.241,0 -4.067,0.747 -1.743,0.664 -3.237,2.573 -1.66,2.075 -2.158,5.063 -0.498,2.988 -0.498,5.976 0,4.067 1.494,7.802 1.494,3.652 4.067,5.976 2.573,2.324 5.893,2.324 z m 21.91211,1.577 q -0.415,0 -1.079,-0.166 -0.581,-0.083 -0.581,-0.581 0,-0.664 0.581,-0.913 0.664,-0.332 1.328,-0.581 1.245,-0.415 2.407,-0.913 1.162,-0.581 1.162,-2.241 v -41.832 q 0,-2.407 -0.913,-3.984 -0.83,-1.66 -2.905,-2.075 -0.664,-0.166 -0.664,-1.079 0,-0.83 0.581,-0.996 2.158,-0.498 3.735,-0.996 1.577,-0.581 2.905,-1.162 1.411,-0.581 2.739,-1.079 0.332,-0.166 0.498,-0.166 0.166,0 0.249,0.249 0.166,0.166 0.166,0.332 0,0.747 -0.332,3.237 -0.249,2.407 -0.249,8.051 v 41.5 q 0,1.66 1.162,2.241 1.162,0.498 2.407,0.913 0.664,0.249 1.245,0.581 0.664,0.249 0.664,0.913 0,0.498 -0.664,0.581 -0.581,0.166 -0.996,0.166 -1.577,0 -2.573,-0.166 -0.913,-0.083 -1.826,-0.166 -0.83,-0.083 -2.324,-0.083 -1.411,0 -2.324,0.083 -0.913,0.083 -1.826,0.166 -0.913,0.166 -2.573,0.166 z m 23.15699,17.513 q -0.83,0 -1.577,-0.498 -0.664,-0.498 -0.664,-1.328 0,-0.083 0.249,-0.498 0.332,-0.332 0.664,-0.664 0.332,-0.332 0.332,-0.415 1.909,-2.241 3.735,-6.391 1.909,-4.067 3.403,-9.296 1.494,-5.312 2.407,-10.956 0.913,-5.727 0.913,-11.039 0,-7.055 -1.66,-13.28 -1.577,-6.308 -4.067,-11.205 -2.407,-4.897 -4.98,-7.802 -0.083,-0.083 -0.332,-0.415 -0.249,-0.415 -0.498,-0.747 -0.249,-0.332 -0.249,-0.415 0,-0.581 0.664,-0.913 0.747,-0.415 1.162,-0.415 0.664,0 1.245,0.249 0.664,0.249 0.996,0.664 2.241,2.241 4.731,6.059 2.573,3.735 4.814,8.549 2.241,4.731 3.652,10.043 1.411,5.312 1.411,10.624 0,4.233 -0.996,8.964 -0.913,4.648 -2.573,9.379 -1.577,4.648 -3.569,8.798 -1.992,4.15 -4.067,7.387 -1.992,3.237 -3.735,4.98 -0.581,0.581 -1.411,0.581 z"
       id="path8" />
  </g>
  <g
     id="text14-2"
     style="font-style:italic;font-size:83px;line-height:0.75;font-family:'EB Garamond';-inkscape-font-specification:'EB Garamond Italic';text-align:center;text-anchor:middle;fill:#4477aa;stroke-width:4.14999"
     aria-label="F2"
     transform="translate(-2.1414395,-3.63125)">
    <path
       style="font-style:normal;-inkscape-font-specification:'EB Garamond';stroke-width:4.15"
       d="m 569.49835,-37.924218 q -1.079,0 -1.743,-0.249 -0.664,-0.166 -0.664,-0.664 0,-0.996 2.739,-1.494 3.154,-0.581 4.316,-1.909 1.245,-1.328 1.245,-4.399 v -35.026 q 0,-3.735 -0.996,-5.727 -0.913,-1.992 -4.067,-2.573 -1.411,-0.249 -2.075,-0.664 -0.664,-0.415 -0.664,-0.996 0,-0.498 0.664,-0.664 0.664,-0.249 1.743,-0.249 3.071,0 5.146,0.083 2.158,0.083 4.233,0.166 2.075,0 4.897,0 2.407,0 5.146,0 2.739,0 5.312,0 2.656,0 4.648,-0.415 2.075,-0.415 3.569,-0.415 0.415,0 0.913,0.166 0.498,0.166 0.581,0.581 0.166,0.913 0.249,2.739 0.083,1.743 0.083,3.403 0.083,1.66 0.083,2.241 0,1.743 -0.747,1.743 -0.415,0 -0.747,-0.249 -0.332,-0.332 -0.498,-0.747 -0.332,-1.411 -0.83,-2.407 -0.498,-1.079 -1.079,-1.66 -1.162,-1.328 -2.573,-1.743 -1.411,-0.498 -2.988,-0.498 h -10.541 q -1.909,0 -2.324,1.245 -0.415,1.245 -0.498,2.905 -0.083,1.577 -0.083,3.901 0,2.241 0,4.399 0,2.075 0,4.233 0,2.158 0.083,3.652 0,0.664 0.083,1.245 0.166,0.581 0.747,0.581 2.656,0 5.395,-0.083 2.739,-0.166 4.233,-0.166 1.826,0 3.154,-0.996 1.328,-0.996 1.909,-2.407 0.166,-0.332 0.664,-0.83 0.498,-0.581 0.83,-0.581 0.332,0 0.747,0.415 0.415,0.332 0.332,0.913 -0.083,1.411 -0.166,2.49 -0.083,1.079 -0.083,2.075 0,1.245 0.083,2.573 0.083,1.245 0.166,3.071 0,0.581 -0.166,0.996 -0.083,0.415 -0.581,0.415 -0.83,0 -1.328,-0.747 -0.415,-0.747 -0.581,-1.162 -0.581,-1.909 -1.743,-2.573 -1.162,-0.747 -2.158,-0.747 -1.079,0 -2.158,0 -0.996,-0.083 -1.992,-0.083 -1.411,0 -2.739,0 -1.328,0 -2.656,0.166 -0.83,0.083 -1.411,0.581 -0.581,0.415 -0.581,1.494 0,3.818 0,7.802 0.083,3.901 0.249,8.051 0.166,2.656 1.245,4.233 1.162,1.577 4.233,2.158 1.411,0.249 2.075,0.581 0.664,0.332 0.664,0.913 0,0.498 -0.664,0.664 -0.664,0.249 -1.743,0.249 -2.241,0 -3.486,-0.166 -1.162,-0.166 -2.158,-0.249 -0.913,-0.166 -2.49,-0.166 -1.992,0 -3.569,0.166 -1.494,0.083 -3.071,0.249 -1.577,0.166 -3.818,0.166 z"
       id="path13" />
    <path
       style="font-style:normal;font-size:53.95px;-inkscape-font-specification:'EB Garamond';baseline-shift:sub;stroke-width:4.15"
       d="m 629.70233,-21.577368 q -0.37765,0 -1.1869,-0.05395 -0.80925,-0.05395 -1.8343,-0.1079 -1.02505,-0.05395 -2.158,-0.1079 -1.079,-0.05395 -2.10405,-0.05395 -1.02505,0 -2.9133,0.05395 -1.88825,0.05395 -3.9923,0.1079 -2.0501,0 -3.61465,0.05395 -1.56455,0.05395 -1.99615,0.05395 -0.2158,0 -0.6474,-0.3237 -0.4316,-0.37765 -0.4316,-0.59345 0,-0.26975 0.1079,-0.37765 0.1079,-0.1079 0.3237,-0.3237 l 9.22545,-9.549149 q 2.6975,-2.8054 4.47785,-6.2582 1.78035,-3.50675 1.78035,-7.067449 0,-2.85935 -1.7264,-4.47785 -1.7264,-1.67245 -4.04625,-1.67245 -2.21195,0 -4.1002,1.24085 -1.88825,1.1869 -3.0212,3.1291 -0.16185,0.3237 -0.4316,0.5395 -0.2158,0.2158 -0.48555,0.2158 -0.2158,0 -0.5395,-0.4316 -0.26975,-0.48555 -0.26975,-1.1869 0,-0.6474 0.7553,-1.78035 0.80925,-1.13295 2.21195,-2.31985 1.4027,-1.1869 3.3449,-1.99615 1.9422,-0.8632 4.2081,-0.8632 2.6975,0 4.6397,1.13295 1.9422,1.13295 2.96725,3.1291 1.02505,1.99615 1.02505,4.6397 0,1.45665 -0.5395,3.129099 -0.48555,1.67245 -1.4027,3.29095 -0.8632,1.6185 -1.99615,3.0212 -0.70135,0.8632 -2.10405,2.31985 -1.34875,1.4027 -2.96725,3.0212 -1.56455,1.6185 -3.0212,3.07515 -1.4027,1.4027 -2.31985,2.3738 -0.91715,0.917149 -0.91715,1.025049 0,0.26975 0.7553,0.37765 0.91715,0.05395 2.0501,0.1079 1.1869,0.05395 2.6975,0.05395 1.56455,0 3.1291,-0.05395 1.56455,-0.05395 3.0212,-0.1079 1.56455,-0.1079 2.42775,-0.26975 0.8632,-0.16185 1.45665,-0.6474 0.59345,-0.539499 1.24085,-1.618499 0.2158,-0.3237 0.5395,-0.7553 0.37765,-0.48555 0.80925,-0.48555 0.26975,0 0.3237,0.2158 0.0539,0.2158 0.0539,0.4316 0,0.26975 -0.3237,1.079 -0.26975,0.7553 -0.6474,1.888249 -0.37765,1.13295 -0.6474,2.4817 -0.16185,0.8632 -0.5395,1.079 -0.37765,0.2158 -0.6474,0.2158 z"
       id="path14" />
  </g>
  <g
     id="text14-2-1"
     style="font-style:italic;font-size:83px;line-height:0.75;font-family:'EB Garamond';-inkscape-font-specification:'EB Garamond Italic';text-align:center;text-anchor:middle;fill:#ee6677;stroke-width:4.14999"
     aria-label="F3"
     transform="translate(-2.1414395,-3.63125)">
    <path
       style="font-style:normal;-inkscape-font-specification:'EB Garamond';stroke-width:4.15"
       d="m 698.81616,615.56405 q -1.079,0 -1.743,-0.249 -0.664,-0.166 -0.664,-0.664 0,-0.996 2.739,-1.494 3.154,-0.581 4.316,-1.909 1.245,-1.328 1.245,-4.399 v -35.026 q 0,-3.735 -0.996,-5.727 -0.913,-1.992 -4.067,-2.573 -1.411,-0.249 -2.075,-0.664 -0.664,-0.415 -0.664,-0.996 0,-0.498 0.664,-0.664 0.664,-0.249 1.743,-0.249 3.071,0 5.146,0.083 2.158,0.083 4.233,0.166 2.075,0 4.897,0 2.407,0 5.146,0 2.739,0 5.312,0 2.656,0 4.648,-0.415 2.075,-0.415 3.569,-0.415 0.415,0 0.913,0.166 0.498,0.166 0.581,0.581 0.166,0.913 0.249,2.739 0.083,1.743 0.083,3.403 0.083,1.66 0.083,2.241 0,1.743 -0.747,1.743 -0.415,0 -0.747,-0.249 -0.332,-0.332 -0.498,-0.747 -0.332,-1.411 -0.83,-2.407 -0.498,-1.079 -1.079,-1.66 -1.162,-1.328 -2.573,-1.743 -1.411,-0.498 -2.988,-0.498 h -10.541 q -1.909,0 -2.324,1.245 -0.415,1.245 -0.498,2.905 -0.083,1.577 -0.083,3.901 0,2.241 0,4.399 0,2.075 0,4.233 0,2.158 0.083,3.652 0,0.664 0.083,1.245 0.166,0.581 0.747,0.581 2.656,0 5.395,-0.083 2.739,-0.166 4.233,-0.166 1.826,0 3.154,-0.996 1.328,-0.996 1.909,-2.407 0.166,-0.332 0.664,-0.83 0.498,-0.581 0.83,-0.581 0.332,0 0.747,0.415 0.415,0.332 0.332,0.913 -0.083,1.411 -0.166,2.49 -0.083,1.079 -0.083,2.075 0,1.245 0.083,2.573 0.083,1.245 0.166,3.071 0,0.581 -0.166,0.996 -0.083,0.415 -0.581,0.415 -0.83,0 -1.328,-0.747 -0.415,-0.747 -0.581,-1.162 -0.581,-1.909 -1.743,-2.573 -1.162,-0.747 -2.158,-0.747 -1.079,0 -2.158,0 -0.996,-0.083 -1.992,-0.083 -1.411,0 -2.739,0 -1.328,0 -2.656,0.166 -0.83,0.083 -1.411,0.581 -0.581,0.415 -0.581,1.494 0,3.818 0,7.802 0.083,3.901 0.249,8.051 0.166,2.656 1.245,4.233 1.162,1.577 4.233,2.158 1.411,0.249 2.075,0.581 0.664,0.332 0.664,0.913 0,0.498 -0.664,0.664 -0.664,0.249 -1.743,0.249 -2.241,0 -3.486,-0.166 -1.162,-0.166 -2.158,-0.249 -0.913,-0.166 -2.49,-0.166 -1.992,0 -3.569,0.166 -1.494,0.083 -3.071,0.249 -1.577,0.166 -3.818,0.166 z"
       id="path19" />
    <path
       style="font-style:normal;font-size:53.95px;-inkscape-font-specification:'EB Garamond';baseline-shift:sub;stroke-width:4.15"
       d="m 745.10104,633.79915 q -1.24085,0 -2.64355,-0.4316 -1.4027,-0.37765 -2.3738,-0.91715 -0.9711,-0.5395 -0.9711,-0.9711 0,-0.37765 0.4316,-0.9711 0.4316,-0.59345 0.9711,-1.02505 0.59345,-0.48555 0.9711,-0.48555 0.59345,0 1.079,0.3237 0.48555,0.3237 1.02505,0.7553 0.70135,0.59345 1.6185,1.13295 0.91715,0.5395 2.42775,0.5395 1.99615,0 3.7765,-1.02505 1.78035,-1.02505 2.9133,-2.8054 1.1869,-1.8343 1.1869,-4.04625 0,-2.10405 -0.70135,-4.04625 -0.70135,-1.9422 -2.10405,-3.18305 -1.34875,-1.2948 -3.4528,-1.2948 -0.59345,0 -1.6185,0.16185 -0.9711,0.1079 -1.88825,0.6474 -0.26975,0.16185 -0.6474,0 -0.3237,-0.2158 -0.26975,-0.48555 0.2158,-0.70135 0.6474,-1.13295 0.4316,-0.48555 0.9711,-0.70135 0.48555,-0.2158 1.56455,-0.80925 1.079,-0.6474 2.2659,-1.56455 1.24085,-0.9711 2.10405,-2.158 0.8632,-1.24085 0.8632,-2.6975 0,-2.21195 -1.45665,-3.8844 -1.4027,-1.7264 -3.61465,-1.7264 -2.10405,0 -3.39885,0.7553 -1.24085,0.70135 -1.99615,1.67245 -0.7553,0.91715 -1.13295,1.67245 -0.37765,0.70135 -0.70135,0.70135 -0.2158,0 -0.5395,-0.3237 -0.3237,-0.3237 -0.3237,-0.70135 0,-0.70135 0.59345,-1.8343 0.59345,-1.1869 1.8343,-2.3738 1.2948,-1.1869 3.237,-1.99615 1.99615,-0.80925 4.7476,-0.80925 1.78035,0 3.3449,0.80925 1.6185,0.7553 2.64355,2.158 1.02505,1.34875 1.02505,3.18305 0,1.2948 -0.5395,2.6975 -0.5395,1.4027 -1.78035,2.8054 -1.24085,1.34875 -3.3449,2.5896 -0.16185,0.054 -0.16185,0.2158 0,0.1079 0.2158,0.1079 2.31985,0 4.15415,1.1869 1.8343,1.13295 2.9133,3.07515 1.13295,1.88825 1.13295,4.2081 0,3.0212 -1.2948,5.44895 -1.2948,2.3738 -3.4528,4.1002 -2.158,1.67245 -4.8555,2.53565 -2.64355,0.91715 -5.395,0.91715 z"
       id="path20" />
  </g>
  <g
     id="text14-2-1-7"
     style="font-style:italic;font-size:83px;line-height:0.75;font-family:'EB Garamond';-inkscape-font-specification:'EB Garamond Italic';text-align:center;text-anchor:middle;fill:#ee6677;stroke-width:4.14999"
     aria-label="a2"
     transform="translate(-2.1414395,-3.63125)">
    <path
       style="stroke-width:4.15"
       d="m 571.23379,604.08717 q -0.996,0 -1.992,-0.581 -0.996,-0.498 -1.66,-1.328 -0.581,-0.83 -0.581,-1.743 0,-2.988 1.992,-6.889 1.992,-3.984 5.561,-8.3 3.569,-4.399 8.217,-8.466 4.482,-3.901 7.304,-5.81 2.822,-1.992 4.15,-1.992 1.328,0 2.324,1.162 1.162,1.494 0.996,1.411 -0.083,-0.166 0,-0.166 0.166,0 0.249,-0.083 0.166,-0.166 0.249,-0.415 1.162,-1.992 1.411,-2.407 0.249,-0.415 0,-0.083 0.498,-0.83 0.996,-0.83 0.747,0 1.494,0.249 0.747,0.249 1.162,0.664 0.498,0.415 0.498,0.83 0,0.415 -0.581,2.075 l -9.296,24.651 q -1.079,2.822 1.079,2.822 1.494,0 3.569,-1.411 2.158,-1.494 3.735,-3.569 0.166,-0.166 0.332,-0.249 0.249,-0.166 0.415,-0.166 0.332,0 0.415,0.249 0.166,0.166 0.166,0.664 0,0.581 -1.162,2.324 -1.162,1.66 -2.407,2.905 -2.324,2.158 -4.731,3.32 -2.324,1.162 -4.316,1.162 -0.83,0 -1.66,-0.498 -0.83,-0.498 -1.411,-1.245 -0.498,-0.747 -0.498,-1.494 0,-0.913 0.498,-1.909 -0.332,0.747 -0.083,0 0.332,-0.747 0.996,-2.324 0.747,-1.577 1.577,-3.32 0.83,-1.743 1.411,-3.071 0.415,-0.913 0.332,-1.328 0,-0.498 -0.498,0.083 -5.063,5.644 -8.715,8.964 -3.569,3.32 -6.308,4.731 -2.739,1.411 -5.229,1.411 z m 4.648,-5.229 q 1.826,0 5.395,-2.988 3.652,-3.071 8.217,-8.466 3.154,-3.652 4.98,-6.723 1.826,-3.071 1.826,-4.565 0,-0.664 -1.079,-1.577 -0.498,-0.415 -1.079,-0.664 -0.581,-0.249 -0.996,-0.249 -1.494,0 -4.15,1.494 -2.573,1.494 -4.731,3.569 -2.739,2.656 -5.229,5.976 -2.49,3.32 -4.067,6.391 -1.494,3.071 -1.494,4.98 0,1.245 0.664,2.075 0.664,0.747 1.743,0.747 z"
       id="path17" />
    <path
       style="font-style:normal;font-size:53.95px;-inkscape-font-specification:'EB Garamond';baseline-shift:sub;stroke-width:4.15"
       d="m 630.85677,619.68702 q -0.37765,0 -1.1869,-0.0539 -0.80925,-0.0539 -1.8343,-0.1079 -1.02505,-0.0539 -2.158,-0.1079 -1.079,-0.0539 -2.10405,-0.0539 -1.02505,0 -2.9133,0.0539 -1.88825,0.0539 -3.9923,0.1079 -2.0501,0 -3.61465,0.0539 -1.56455,0.0539 -1.99615,0.0539 -0.2158,0 -0.6474,-0.3237 -0.4316,-0.37765 -0.4316,-0.59345 0,-0.26975 0.1079,-0.37765 0.1079,-0.1079 0.3237,-0.3237 l 9.22545,-9.54915 q 2.6975,-2.8054 4.47785,-6.2582 1.78035,-3.50675 1.78035,-7.06745 0,-2.85935 -1.7264,-4.47785 -1.7264,-1.67245 -4.04625,-1.67245 -2.21195,0 -4.1002,1.24085 -1.88825,1.1869 -3.0212,3.1291 -0.16185,0.3237 -0.4316,0.5395 -0.2158,0.2158 -0.48555,0.2158 -0.2158,0 -0.5395,-0.4316 -0.26975,-0.48555 -0.26975,-1.1869 0,-0.6474 0.7553,-1.78035 0.80925,-1.13295 2.21195,-2.31985 1.4027,-1.1869 3.3449,-1.99615 1.9422,-0.8632 4.2081,-0.8632 2.6975,0 4.6397,1.13295 1.9422,1.13295 2.96725,3.1291 1.02505,1.99615 1.02505,4.6397 0,1.45665 -0.5395,3.1291 -0.48555,1.67245 -1.4027,3.29095 -0.8632,1.6185 -1.99615,3.0212 -0.70135,0.8632 -2.10405,2.31985 -1.34875,1.4027 -2.96725,3.0212 -1.56455,1.6185 -3.0212,3.07515 -1.4027,1.4027 -2.31985,2.3738 -0.91715,0.91715 -0.91715,1.02505 0,0.26975 0.7553,0.37765 0.91715,0.0539 2.0501,0.1079 1.1869,0.054 2.6975,0.054 1.56455,0 3.1291,-0.054 1.56455,-0.0539 3.0212,-0.1079 1.56455,-0.1079 2.42775,-0.26975 0.8632,-0.16185 1.45665,-0.6474 0.59345,-0.5395 1.24085,-1.6185 0.2158,-0.3237 0.5395,-0.7553 0.37765,-0.48555 0.80925,-0.48555 0.26975,0 0.3237,0.2158 0.0539,0.2158 0.0539,0.4316 0,0.26975 -0.3237,1.079 -0.26975,0.7553 -0.6474,1.88825 -0.37765,1.13295 -0.6474,2.4817 -0.16185,0.8632 -0.5395,1.079 -0.37765,0.2158 -0.6474,0.2158 z"
       id="path18" />
  </g>
  <g
     id="text14-2-1-7-5"
     style="font-style:italic;font-size:83px;line-height:0.75;font-family:'EB Garamond';-inkscape-font-specification:'EB Garamond Italic';text-align:center;text-anchor:middle;fill:#4477aa;stroke-width:4.14999"
     aria-label="a1"
     transform="translate(-2.1414395,-3.63125)">
    <path
       style="stroke-width:4.15"
       d="m 499.63625,48.520002 q -0.996,0 -1.992,-0.581 -0.996,-0.498 -1.66,-1.328 -0.581,-0.83 -0.581,-1.743 0,-2.988 1.992,-6.889 1.992,-3.984 5.561,-8.3 3.569,-4.399 8.217,-8.466 4.482,-3.901 7.304,-5.81 2.822,-1.992 4.15,-1.992 1.328,0 2.324,1.162 1.162,1.494 0.996,1.411 -0.083,-0.166 0,-0.166 0.166,0 0.249,-0.083 0.166,-0.166 0.249,-0.415 1.162,-1.992 1.411,-2.407 0.249,-0.415 0,-0.083 0.498,-0.83 0.996,-0.83 0.747,0 1.494,0.249 0.747,0.249 1.162,0.664 0.498,0.415 0.498,0.83 0,0.415 -0.581,2.075 l -9.296,24.651 q -1.079,2.822 1.079,2.822 1.494,0 3.569,-1.411 2.158,-1.494 3.735,-3.569 0.166,-0.166 0.332,-0.249 0.249,-0.166 0.415,-0.166 0.332,0 0.415,0.249 0.166,0.166 0.166,0.664 0,0.581 -1.162,2.324 -1.162,1.66 -2.407,2.905 -2.324,2.158 -4.731,3.32 -2.324,1.162 -4.316,1.162 -0.83,0 -1.66,-0.498 -0.83,-0.498 -1.411,-1.245 -0.498,-0.747 -0.498,-1.494 0,-0.913 0.498,-1.909 -0.332,0.747 -0.083,0 0.332,-0.747 0.996,-2.324 0.747,-1.577 1.577,-3.32 0.83,-1.743 1.411,-3.071 0.415,-0.913 0.332,-1.328 0,-0.498 -0.498,0.083 -5.063,5.644 -8.715,8.964 -3.569,3.32 -6.308,4.731 -2.739,1.411 -5.229,1.411 z m 4.648,-5.229 q 1.826,0 5.395,-2.988 3.652,-3.071 8.217,-8.466 3.154,-3.652 4.98,-6.723 1.826,-3.071 1.826,-4.565 0,-0.664 -1.079,-1.577 -0.498,-0.415 -1.079,-0.664 -0.581,-0.249 -0.996,-0.249 -1.494,0 -4.15,1.494 -2.573,1.494 -4.731,3.569 -2.739,2.656 -5.229,5.976 -2.49,3.32 -4.067,6.391 -1.494,3.071 -1.494,4.98 0,1.245 0.664,2.075 0.664,0.747 1.743,0.747 z"
       id="path11" />
    <path
       style="font-style:normal;font-size:53.95px;-inkscape-font-specification:'EB Garamond';baseline-shift:sub;stroke-width:4.15"
       d="m 542.42684,64.119852 q -0.37765,0 -0.59345,-0.2158 -0.2158,-0.2158 -0.2158,-0.4316 0,-0.48555 0.80925,-0.70135 2.0501,-0.5395 3.3449,-0.9711 1.34875,-0.48555 1.9422,-1.2948 0.6474,-0.8632 0.6474,-2.42775 V 37.468554 q 0,-1.02505 -0.6474,-1.56455 -0.6474,-0.5395 -1.67245,-0.7553 -1.02505,-0.2158 -2.21195,-0.26975 -0.5395,-0.05395 -0.9711,-0.26975 -0.4316,-0.2158 -0.4316,-0.6474 0,-0.37765 0.37765,-0.6474 0.4316,-0.26975 0.9711,-0.3237 2.42775,-0.37765 4.316,-0.91715 1.9422,-0.59345 3.7765,-2.42775 0.0539,-0.05395 0.1079,-0.05395 0.1079,0 0.16185,0 0.26975,0 0.48555,0.16185 0.2158,0.1079 0.16185,0.3237 -0.1079,0.80925 -0.16185,1.78035 -0.0539,0.91715 -0.0539,2.0501 v 24.816998 q 0,1.34875 0.48555,2.0501 0.5395,0.70135 1.78035,1.13295 1.24085,0.37765 3.4528,0.91715 0.3237,0.05395 0.59345,0.26975 0.3237,0.16185 0.3237,0.4316 0,0.59345 -0.7553,0.59345 -1.5106,0 -2.8054,-0.1079 -1.24085,-0.05395 -2.4817,-0.1079 -1.1869,-0.05395 -2.64355,-0.05395 -1.45665,0 -2.75145,0.05395 -1.2948,0.05395 -2.5896,0.1079 -1.2948,0.1079 -2.75145,0.1079 z"
       id="path12" />
  </g>
  <g
     id="text18"
     style="font-size:83px;line-height:0.75;font-family:'EB Garamond';-inkscape-font-specification:'EB Garamond';text-align:center;text-anchor:middle;fill:#4477aa;stroke-width:4.14999"
     aria-label="A1"
     transform="translate(-2.1414395,-3.63125)">
    <path
       style="font-style:italic;-inkscape-font-specification:'EB Garamond Italic';stroke-width:4.15"
       d="m -107.50399,164.05097 q -0.996,0 -1.411,-0.249 -0.415,-0.249 -0.581,-0.83 -0.083,-0.664 0.747,-0.996 0.747,-0.415 2.075,-0.747 2.324,-0.664 4.233,-1.577 1.992,-0.913 3.652,-2.158 1.66,-1.328 2.988,-2.822 6.142,-6.806 11.205,-13.114 5.146,-6.308 9.877,-12.533 4.731,-6.225 9.711,-12.616 0.996,-1.245 1.743,-2.241 0.747,-0.996 1.245,-1.577 0.498,-0.581 0.83,-0.581 1.743,0 2.324,-0.581 0.664,-0.581 1.66,-1.66 1.162,-1.328 1.577,-1.743 0.498,-0.498 0.913,-0.498 0.415,0 0.581,0.498 0.166,0.498 -0.166,2.158 l -8.632,43.326 q -0.83,3.984 -0.166,5.727 0.747,1.66 3.071,2.324 1.328,0.332 1.992,0.664 0.664,0.249 0.664,0.83 0,0.498 -0.581,0.747 -0.581,0.249 -1.992,0.249 -1.079,0 -2.822,-0.166 -1.66,-0.083 -3.569,-0.249 -1.909,-0.083 -3.652,-0.083 -1.494,0 -3.071,0 -1.494,0 -2.905,0.083 -1.328,0 -2.241,0 -1.743,0 -1.992,-0.996 -0.083,-0.581 0.581,-0.996 0.664,-0.498 1.743,-0.664 2.739,-0.498 4.233,-1.079 1.577,-0.664 2.407,-1.909 0.913,-1.328 1.494,-3.652 l 2.573,-9.877 q 0.332,-1.245 -0.498,-1.743 -0.747,-0.498 -1.909,-0.498 l -9.296,0.166 q -1.328,0 -2.158,0.332 -0.747,0.249 -1.411,1.162 l -8.549,11.288 q -1.494,1.992 -1.66,3.154 -0.083,1.079 0.581,1.66 0.747,0.498 1.66,0.83 0.913,0.332 1.494,0.747 0.581,0.415 0.581,1.079 0,0.581 -0.664,0.83 -0.664,0.249 -1.66,0.249 -1.079,0 -2.739,-0.083 -1.577,-0.083 -3.735,-0.083 -2.573,0 -5.561,0.249 -2.905,0.249 -4.814,0.249 z m 30.71,-24.485 8.881,-0.083 q 0.913,0 1.411,-0.498 0.498,-0.498 0.83,-1.826 l 3.984,-18.177 q 0.249,-0.996 0.166,-1.411 0,-0.498 -0.415,-0.498 -0.332,0 -0.747,0.166 -0.415,0.166 -0.83,0.83 l -14.774,19.671 q -0.581,0.83 -0.664,1.328 -0.083,0.498 2.158,0.498 z"
       id="path9" />
    <path
       style="font-size:53.95px;baseline-shift:sub;stroke-width:4.15"
       d="m -44.129261,180.39782 q -0.37765,0 -0.59345,-0.2158 -0.2158,-0.2158 -0.2158,-0.4316 0,-0.48555 0.80925,-0.70135 2.050099,-0.5395 3.344899,-0.9711 1.34875,-0.48555 1.9422,-1.2948 0.6474,-0.8632 0.6474,-2.42775 v -20.6089 q 0,-1.02505 -0.6474,-1.56455 -0.6474,-0.5395 -1.67245,-0.7553 -1.02505,-0.2158 -2.21195,-0.26975 -0.539499,-0.054 -0.971099,-0.26975 -0.4316,-0.2158 -0.4316,-0.6474 0,-0.37765 0.37765,-0.6474 0.4316,-0.26975 0.971099,-0.3237 2.42775,-0.37765 4.316,-0.91715 1.9422,-0.59345 3.7765,-2.42775 0.05395,-0.0539 0.1079,-0.0539 0.1079,0 0.16185,0 0.26975,0 0.48555,0.16185 0.2158,0.1079 0.16185,0.3237 -0.1079,0.80925 -0.16185,1.78035 -0.05395,0.91715 -0.05395,2.0501 v 24.817 q 0,1.34875 0.48555,2.0501 0.5395,0.70135 1.78035,1.13295 1.24085,0.37765 3.4528,0.91715 0.3237,0.054 0.59345,0.26975 0.3237,0.16185 0.3237,0.4316 0,0.59345 -0.7553,0.59345 -1.5106,0 -2.8054,-0.1079 -1.24085,-0.0539 -2.4817,-0.1079 -1.1869,-0.0539 -2.64355,-0.0539 -1.45665,0 -2.75145,0.0539 -1.2948,0.054 -2.5896,0.1079 -1.2948,0.1079 -2.751449,0.1079 z"
       id="path10" />
  </g>
  <g
     id="text18-2"
     style="font-size:83px;line-height:0.75;font-family:'EB Garamond';-inkscape-font-specification:'EB Garamond';text-align:center;text-anchor:middle;fill:#4477aa;stroke-width:4.14999"
     aria-label="A2"
     transform="translate(-2.1414395,-3.63125)">
    <path
       style="font-style:italic;-inkscape-font-specification:'EB Garamond Italic';stroke-width:4.15"
       d="m 536.17372,283.38753 q -0.996,0 -1.411,-0.249 -0.415,-0.249 -0.581,-0.83 -0.083,-0.664 0.747,-0.996 0.747,-0.415 2.075,-0.747 2.324,-0.664 4.233,-1.577 1.992,-0.913 3.652,-2.158 1.66,-1.328 2.988,-2.822 6.142,-6.806 11.205,-13.114 5.146,-6.308 9.877,-12.533 4.731,-6.225 9.711,-12.616 0.996,-1.245 1.743,-2.241 0.747,-0.996 1.245,-1.577 0.498,-0.581 0.83,-0.581 1.743,0 2.324,-0.581 0.664,-0.581 1.66,-1.66 1.162,-1.328 1.577,-1.743 0.498,-0.498 0.913,-0.498 0.415,0 0.581,0.498 0.166,0.498 -0.166,2.158 l -8.632,43.326 q -0.83,3.984 -0.166,5.727 0.747,1.66 3.071,2.324 1.328,0.332 1.992,0.664 0.664,0.249 0.664,0.83 0,0.498 -0.581,0.747 -0.581,0.249 -1.992,0.249 -1.079,0 -2.822,-0.166 -1.66,-0.083 -3.569,-0.249 -1.909,-0.083 -3.652,-0.083 -1.494,0 -3.071,0 -1.494,0 -2.905,0.083 -1.328,0 -2.241,0 -1.743,0 -1.992,-0.996 -0.083,-0.581 0.581,-0.996 0.664,-0.498 1.743,-0.664 2.739,-0.498 4.233,-1.079 1.577,-0.664 2.407,-1.909 0.913,-1.328 1.494,-3.652 l 2.573,-9.877 q 0.332,-1.245 -0.498,-1.743 -0.747,-0.498 -1.909,-0.498 l -9.296,0.166 q -1.328,0 -2.158,0.332 -0.747,0.249 -1.411,1.162 l -8.549,11.288 q -1.494,1.992 -1.66,3.154 -0.083,1.079 0.581,1.66 0.747,0.498 1.66,0.83 0.913,0.332 1.494,0.747 0.581,0.415 0.581,1.079 0,0.581 -0.664,0.83 -0.664,0.249 -1.66,0.249 -1.079,0 -2.739,-0.083 -1.577,-0.083 -3.735,-0.083 -2.573,0 -5.561,0.249 -2.905,0.249 -4.814,0.249 z m 30.71,-24.485 8.881,-0.083 q 0.913,0 1.411,-0.498 0.498,-0.498 0.83,-1.826 l 3.984,-18.177 q 0.249,-0.996 0.166,-1.411 0,-0.498 -0.415,-0.498 -0.332,0 -0.747,0.166 -0.415,0.166 -0.83,0.83 l -14.774,19.671 q -0.581,0.83 -0.664,1.328 -0.083,0.498 2.158,0.498 z"
       id="path15" />
    <path
       style="font-size:53.95px;baseline-shift:sub;stroke-width:4.15"
       d="m 616.38085,299.73438 q -0.37765,0 -1.1869,-0.0539 -0.80925,-0.0539 -1.8343,-0.1079 -1.02505,-0.0539 -2.158,-0.1079 -1.079,-0.0539 -2.10405,-0.0539 -1.02505,0 -2.9133,0.0539 -1.88825,0.0539 -3.9923,0.1079 -2.0501,0 -3.61465,0.054 -1.56455,0.0539 -1.99615,0.0539 -0.2158,0 -0.6474,-0.3237 -0.4316,-0.37765 -0.4316,-0.59345 0,-0.26975 0.1079,-0.37765 0.1079,-0.1079 0.3237,-0.3237 l 9.22545,-9.54914 q 2.6975,-2.8054 4.47785,-6.2582 1.78035,-3.50675 1.78035,-7.06745 0,-2.85935 -1.7264,-4.47785 -1.7264,-1.67245 -4.04625,-1.67245 -2.21195,0 -4.1002,1.24085 -1.88825,1.1869 -3.0212,3.1291 -0.16185,0.3237 -0.4316,0.5395 -0.2158,0.2158 -0.48555,0.2158 -0.2158,0 -0.5395,-0.4316 -0.26975,-0.48555 -0.26975,-1.1869 0,-0.6474 0.7553,-1.78035 0.80925,-1.13295 2.21195,-2.31985 1.4027,-1.1869 3.3449,-1.99615 1.9422,-0.8632 4.2081,-0.8632 2.6975,0 4.6397,1.13295 1.9422,1.13295 2.96725,3.1291 1.02505,1.99615 1.02505,4.6397 0,1.45665 -0.5395,3.1291 -0.48555,1.67245 -1.4027,3.29095 -0.8632,1.6185 -1.99615,3.0212 -0.70135,0.8632 -2.10405,2.31985 -1.34875,1.4027 -2.96725,3.0212 -1.56455,1.6185 -3.0212,3.07514 -1.4027,1.4027 -2.31985,2.3738 -0.91715,0.91715 -0.91715,1.02505 0,0.26975 0.7553,0.37765 0.91715,0.0539 2.0501,0.1079 1.1869,0.054 2.6975,0.054 1.56455,0 3.1291,-0.054 1.56455,-0.0539 3.0212,-0.1079 1.56455,-0.1079 2.42775,-0.26975 0.8632,-0.16185 1.45665,-0.6474 0.59345,-0.5395 1.24085,-1.6185 0.2158,-0.3237 0.5395,-0.7553 0.37765,-0.48555 0.80925,-0.48555 0.26975,0 0.3237,0.2158 0.0539,0.2158 0.0539,0.4316 0,0.26975 -0.3237,1.079 -0.26975,0.7553 -0.6474,1.88825 -0.37765,1.13295 -0.6474,2.4817 -0.16185,0.8632 -0.5395,1.079 -0.37765,0.2158 -0.6474,0.2158 z"
       id="path16" />
  </g>
  <path
     style="font-size:83px;line-height:0.75;font-family:'EB Garamond';-inkscape-font-specification:'EB Garamond';text-align:center;text-anchor:middle;fill:#4477aa;stroke-width:4.15"
     d="m -82.279811,469.43128 q -0.415,0 -1.079,-0.166 -0.664,-0.083 -0.664,-0.581 0,-0.664 0.581,-0.996 0.664,-0.249 1.328,-0.498 1.245,-0.415 2.407,-0.996 1.162,-0.498 1.162,-2.158 v -42.081 q 0,-0.664 -0.415,-1.992 -0.332,-1.328 -1.162,-2.573 -0.83,-1.245 -2.241,-1.494 -0.332,-0.083 -0.498,-0.415 -0.166,-0.332 -0.166,-0.664 0,-0.415 0.166,-0.664 0.166,-0.249 0.415,-0.332 3.154,-0.747 5.395,-1.577 2.241,-0.913 4.233,-1.743 0.083,0 0.083,0 0,-0.083 0.083,-0.083 0.166,0 0.332,0.249 0.166,0.249 0.166,0.498 0,0.747 -0.249,2.407 -0.166,1.577 -0.166,2.573 0,0.664 0.083,0.747 0.83,-0.83 2.988,-2.075 2.241,-1.328 5.063,-2.324 2.822,-1.079 5.395,-1.079 4.316,0 7.304,2.324 3.071,2.241 4.648,5.893 1.66,3.569 1.66,7.47 0,3.735 -1.411,7.304 -1.411,3.486 -3.984,6.308 -2.573,2.822 -5.976,4.565 -3.403,1.66 -7.304,1.66 -1.162,0 -2.822,-0.415 -1.577,-0.332 -3.154,-0.913 -1.494,-0.581 -2.324,-1.328 -0.083,0 -0.166,0.996 -0.083,0.913 -0.166,1.909 0,1.079 0,1.328 v 15.521 q 0,1.079 0.83,1.66 0.913,0.664 1.992,0.913 1.162,0.332 1.992,0.581 0.664,0.249 1.245,0.498 0.664,0.332 0.664,0.996 0,0.498 -0.664,0.581 -0.664,0.166 -1.162,0.166 -2.407,0 -4.067,-0.249 -1.577,-0.166 -3.735,-0.166 -1.411,0 -2.324,0.083 -0.83,0.083 -1.743,0.166 -0.913,0.166 -2.573,0.166 z m 19.422,-25.066 q 1.245,0 2.988,-0.747 1.826,-0.747 3.569,-2.407 1.826,-1.66 2.988,-4.482 1.245,-2.822 1.245,-6.972 0,-4.814 -1.245,-7.719 -1.245,-2.905 -3.071,-4.399 -1.826,-1.494 -3.735,-1.992 -1.909,-0.498 -3.237,-0.498 -1.992,0 -4.15,0.83 -2.075,0.83 -3.569,1.909 -1.411,0.996 -1.411,1.577 0,1.826 -0.083,3.735 0,1.826 -0.083,3.569 0,1.743 -0.083,3.154 0,1.328 0,2.075 0,3.32 1.494,6.142 1.577,2.822 3.818,4.565 2.324,1.66 4.565,1.66 z m 22.326978,1.66 q -0.415,0 -1.079,-0.166 -0.581,-0.083 -0.581,-0.581 0,-0.664 0.581,-0.913 0.664,-0.332 1.328,-0.581 1.245,-0.415 2.407,-0.913 1.162,-0.581 1.162,-2.241 v -41.832 q 0,-2.407 -0.913,-3.984 -0.83,-1.66 -2.905,-2.075 -0.664,-0.166 -0.664,-1.079 0,-0.83 0.581,-0.996 2.158,-0.498 3.735,-0.996 1.577,-0.581 2.905,-1.162 1.411,-0.581 2.739,-1.079 0.332,-0.166 0.498,-0.166 0.166,0 0.249,0.249 0.166,0.166 0.166,0.332 0,0.747 -0.332,3.237 -0.249,2.407 -0.249,8.051 v 41.5 q 0,1.66 1.162,2.241 1.162,0.498 2.407,0.913 0.664,0.249 1.245,0.581 0.664,0.249 0.664,0.913 0,0.498 -0.664,0.581 -0.581,0.166 -0.996,0.166 -1.577,0 -2.573,-0.166 -0.913,-0.083 -1.826,-0.166 -0.83,-0.083 -2.324,-0.083 -1.411,0 -2.324,0.083 -0.913,0.083 -1.826,0.166 -0.913,0.166 -2.573,0.166 z m 26.393983,0.913 q -1.494,0 -3.071,-1.162 -1.494,-1.162 -2.573,-2.822 -0.996,-1.66 -0.996,-3.154 0,-2.656 1.411,-4.15 1.411,-1.494 4.482,-2.739 l 8.4659991,-3.486 q 1.66,-0.664 1.909,-1.162 0.332,-0.498 0.415,-2.158 l 0.166,-5.312 q 0.083,-2.158 -1.245,-3.735 -1.245,-1.577 -3.652,-1.577 -1.2450001,0 -2.4900001,0.415 -1.244999,0.415 -2.074999,1.079 -0.498,0.332 -0.664,0.996 -0.166,0.664 -0.166,1.411 0,0.332 0,0.747 0.083,0.415 0.083,0.747 0,0.415 -1.079,1.162 -0.996,0.664 -2.324,1.245 -1.245,0.498 -2.075,0.498 -0.415,0 -0.664,-0.166 -0.249,-0.249 -0.249,-0.581 0,-1.328 0.83,-2.822 0.913,-1.577 2.49,-2.905 1.909,-1.743 4.15,-3.071 2.240999,-1.328 4.3989991,-2.075 2.158,-0.747 3.818,-0.747 2.9880001,0 4.89700005,2.158 1.99199995,2.075 1.90899995,5.229 l -0.415,19.92 q -0.083,1.743 0.747,2.822 0.913,1.079 2.241,1.079 2.075,0 3.071,-0.913 0.4150004,-0.415 0.6640004,-0.415 0.415,0 0.664,0.249 0.249,0.249 0.249,0.664 0,0.913 -0.913,1.826 -1.3280004,1.328 -2.9050004,2.075 -1.494,0.83 -2.822,0.83 -3.8179999,0 -6.059,-4.316 h -0.249 q -2.739,2.241 -5.229,3.237 -2.4900001,1.079 -5.1459991,1.079 z m 3.900999,-3.984 q 1.6600001,0 2.8220001,-0.498 1.162,-0.581 2.075,-1.494 0.415,-0.415 0.664,-1.079 0.332,-0.747 0.415,-2.324 l 0.166,-4.067 q 0.083,-0.913 -0.083,-1.328 -0.166,-0.415 -0.664,-0.415 -0.166,0 -0.581,0.083 -0.415,0.083 -1.079,0.332 -4.3990001,1.577 -6.1419991,3.32 -1.66,1.66 -1.66,3.071 0,2.158 1.245,3.32 1.327999,1.079 2.821999,1.079 z m 23.157013,3.071 q -0.747,0 -1.245,-0.249 -0.415,-0.166 -0.415,-0.664 0,-0.664 0.498,-0.83 0.498,-0.249 1.411,-0.498 1.245,-0.332 2.407,-0.913 1.162,-0.581 1.162,-2.241 v -17.845 q 0,-2.241 -0.498,-3.818 -0.415,-1.577 -2.573,-2.158 -0.332,-0.166 -0.581,-0.332 -0.249,-0.249 -0.249,-0.747 0,-0.913 0.747,-0.996 2.905,-0.747 4.731,-1.826 1.826,-1.079 3.569,-2.407 0.249,-0.166 0.415,-0.249 0.249,-0.166 0.498,-0.166 0.166,0 0.249,0.166 0.166,0.166 0.166,0.415 0,0.581 -0.249,2.407 -0.166,1.743 -0.166,2.905 0,0.332 0,0.664 0.083,0.249 0.166,0.332 2.905,-2.739 6.142,-4.15 3.32,-1.411 7.221,-1.411 4.067,0 6.723,3.32 2.656,3.32 2.656,8.217 v 17.679 q 0,1.66 1.162,2.241 1.162,0.498 2.407,0.913 0.664,0.249 1.245,0.581 0.664,0.249 0.664,0.913 0,0.498 -0.581,0.581 -0.581,0.166 -1.079,0.166 -1.66,0 -2.573,-0.166 -0.913,-0.083 -1.743,-0.166 -0.83,-0.083 -2.324,-0.083 -1.411,0 -2.324,0.083 -0.913,0.083 -1.909,0.166 -0.913,0.166 -2.573,0.166 -0.415,0 -1.079,-0.166 -0.581,-0.083 -0.581,-0.581 0,-0.664 0.581,-0.913 0.664,-0.332 1.328,-0.581 1.245,-0.415 2.407,-0.913 1.162,-0.581 1.162,-2.241 v -17.43 q 0,-3.652 -2.075,-5.644 -1.992,-2.075 -5.395,-2.158 -2.988,0 -5.229,0.996 -2.241,0.913 -3.984,2.324 -0.332,0.332 -0.498,0.913 -0.166,0.498 -0.166,0.996 v 20.003 q 0,1.66 1.162,2.241 1.162,0.581 2.407,0.913 1.909,0.498 1.909,1.328 0,0.498 -0.415,0.664 -0.415,0.249 -1.245,0.249 -1.66,0 -2.656,-0.166 -0.913,-0.083 -1.743,-0.166 -0.83,-0.083 -2.324,-0.083 -1.411,0 -2.324,0.083 -0.83,0.083 -1.826,0.166 -0.913,0.166 -2.573,0.166 z m 57.85099,0.996 q -4.565,0 -7.968,-2.241 -3.403,-2.241 -5.312,-6.308 -1.909,-4.15 -1.909,-9.545 0,-4.814 2.158,-8.715 2.241,-3.984 5.893,-6.391 3.652,-2.407 7.968,-2.407 3.32,0 5.893,1.328 2.573,1.328 3.984,3.735 1.494,2.324 1.494,5.395 0,2.573 -2.49,2.573 h -17.513 q -1.162,0 -1.66,0.664 -0.415,0.581 -0.415,2.407 0,3.984 1.743,7.304 1.743,3.237 4.648,5.229 2.905,1.909 6.391,1.909 2.49,0 4.482,-0.913 2.075,-0.996 3.652,-2.822 0.332,-0.415 0.498,-0.498 0.166,-0.166 0.415,-0.166 0.664,0 0.664,0.83 0,1.577 -1.494,3.486 -1.245,1.577 -2.988,2.739 -1.743,1.162 -3.818,1.743 -2.075,0.664 -4.316,0.664 z m -7.636,-25.149 h 7.553 q 1.992,0 3.403,-0.083 1.411,-0.083 2.739,-0.332 0.415,-0.083 0.498,-0.498 0.166,-0.498 0.166,-1.328 0,-2.407 -2.158,-4.067 -2.075,-1.743 -4.98,-1.743 -1.909,0 -3.818,1.162 -1.909,1.079 -3.154,2.739 -1.245,1.66 -1.245,3.32 0,0.83 0.996,0.83 z m 38.013948,25.066 q -4.066999,0 -6.390999,-2.49 -2.241,-2.49 -2.241,-7.387 v -19.256 q 0,-0.664 -0.498,-0.913 -0.498,-0.332 -2.158,-0.332 h -0.498 q -0.415,0 -0.747,-0.498 -0.249,-0.581 -0.249,-1.162 0,-0.166 0.249,-0.498 0.249,-0.332 0.332,-0.415 1.66,-1.162 2.988,-2.324 1.411,-1.162 2.49,-2.241 1.162,-1.162 1.909,-2.075 0.415,-0.415 0.664,-0.664 0.332,-0.332 0.747,-0.332 0.415,0 0.747,0.166 0.415,0.166 0.332,0.747 l -0.415,3.735 q -0.083,0.913 0.415,1.245 0.498,0.332 1.576999,0.332 h 9.462 q 0.332,0 0.581,0.581 0.249,0.498 0.249,1.245 0,0.747 -0.249,1.494 -0.249,0.664 -0.581,0.664 h -8.217 q -2.074999,0 -2.738999,0.332 -0.581,0.332 -0.581,1.992 v 16.351 q 0,3.32 1.411,5.229 1.410999,1.909 4.066999,1.909 2.407,0 3.735,-0.332 1.328,-0.415 2.407,-1.162 0.166,-0.166 0.332,-0.166 0.332,0 0.415,0.415 0.166,0.332 0.166,0.747 0,0.415 -1.411,1.66 -1.328,1.245 -3.569,2.324 -2.158,1.079 -4.731,1.079 z m 20.08594,0 q -1.494,0 -3.071,-1.162 -1.494,-1.162 -2.573,-2.822 -0.996,-1.66 -0.996,-3.154 0,-2.656 1.411,-4.15 1.411,-1.494 4.482,-2.739 l 8.466,-3.486 q 1.66,-0.664 1.909,-1.162 0.332,-0.498 0.415,-2.158 l 0.166,-5.312 q 0.083,-2.158 -1.245,-3.735 -1.245,-1.577 -3.652,-1.577 -1.245,0 -2.49,0.415 -1.245,0.415 -2.075,1.079 -0.498,0.332 -0.664,0.996 -0.166,0.664 -0.166,1.411 0,0.332 0,0.747 0.083,0.415 0.083,0.747 0,0.415 -1.079,1.162 -0.996,0.664 -2.324,1.245 -1.245,0.498 -2.075,0.498 -0.415,0 -0.664,-0.166 -0.249,-0.249 -0.249,-0.581 0,-1.328 0.83,-2.822 0.913,-1.577 2.49,-2.905 1.909,-1.743 4.15,-3.071 2.241,-1.328 4.399,-2.075 2.158,-0.747 3.818,-0.747 2.988,0 4.897,2.158 1.992,2.075 1.909,5.229 l -0.415,19.92 q -0.083,1.743 0.747,2.822 0.913,1.079 2.241,1.079 2.075,0 3.071,-0.913 0.415,-0.415 0.664,-0.415 0.415,0 0.664,0.249 0.249,0.249 0.249,0.664 0,0.913 -0.913,1.826 -1.328,1.328 -2.905,2.075 -1.494,0.83 -2.822,0.83 -3.818,0 -6.059,-4.316 h -0.249 q -2.739,2.241 -5.229,3.237 -2.49,1.079 -5.146,1.079 z m 3.901,-3.984 q 1.66,0 2.822,-0.498 1.162,-0.581 2.075,-1.494 0.415,-0.415 0.664,-1.079 0.332,-0.747 0.415,-2.324 l 0.166,-4.067 q 0.083,-0.913 -0.083,-1.328 -0.166,-0.415 -0.664,-0.415 -0.166,0 -0.581,0.083 -0.415,0.083 -1.079,0.332 -4.399,1.577 -6.142,3.32 -1.66,1.66 -1.66,3.071 0,2.158 1.245,3.32 1.328,1.079 2.822,1.079 z m 44.98607,3.071 q -0.581,0 -0.913,-0.332 -0.332,-0.332 -0.332,-0.664 0,-0.747 1.245,-1.079 3.154,-0.83 5.146,-1.494 2.075,-0.747 2.988,-1.992 0.996,-1.328 0.996,-3.735 v -31.706 q 0,-1.577 -0.996,-2.407 -0.996,-0.83 -2.573,-1.162 -1.577,-0.332 -3.403,-0.415 -0.83,-0.083 -1.494,-0.415 -0.664,-0.332 -0.664,-0.996 0,-0.581 0.581,-0.996 0.664,-0.415 1.494,-0.498 3.735,-0.581 6.64,-1.411 2.988,-0.913 5.81,-3.735 0.083,-0.083 0.166,-0.083 0.166,0 0.249,0 0.415,0 0.747,0.249 0.332,0.166 0.249,0.498 -0.166,1.245 -0.249,2.739 -0.083,1.411 -0.083,3.154 v 38.18 q 0,2.075 0.747,3.154 0.83,1.079 2.739,1.743 1.909,0.581 5.312,1.411 0.498,0.083 0.913,0.415 0.498,0.249 0.498,0.664 0,0.913 -1.162,0.913 -2.324,0 -4.316,-0.166 -1.909,-0.083 -3.818,-0.166 -1.826,-0.083 -4.067,-0.083 -2.241,0 -4.233,0.083 -1.992,0.083 -3.984,0.166 -1.992,0.166 -4.233,0.166 z"
     id="text21"
     aria-label="planeta 1" />
  <path
     style="font-size:83px;line-height:0.75;font-family:'EB Garamond';-inkscape-font-specification:'EB Garamond';text-align:center;text-anchor:middle;fill:#ee6677;stroke-width:4.15"
     d="m -30.512859,595.13508 q -0.415,0 -1.079,-0.166 -0.664,-0.083 -0.664,-0.581 0,-0.664 0.581,-0.996 0.664,-0.249 1.328,-0.498 1.245,-0.415 2.407,-0.996 1.162,-0.498 1.162,-2.158 v -42.081 q 0,-0.664 -0.415,-1.992 -0.332,-1.328 -1.162,-2.573 -0.83,-1.245 -2.241,-1.494 -0.332,-0.083 -0.498,-0.415 -0.166,-0.332 -0.166,-0.664 0,-0.415 0.166,-0.664 0.166,-0.249 0.415,-0.332 3.154,-0.747 5.395,-1.577 2.241,-0.913 4.233,-1.743 0.083,0 0.083,0 0,-0.083 0.083,-0.083 0.166,0 0.332,0.249 0.166,0.249 0.166,0.498 0,0.747 -0.249,2.407 -0.166,1.577 -0.166,2.573 0,0.664 0.083,0.747 0.83,-0.83 2.988,-2.075 2.241,-1.328 5.063,-2.324 2.8219999,-1.079 5.3949999,-1.079 4.316,0 7.30400005,2.324 3.07099995,2.241 4.64799995,5.893 1.66,3.569 1.66,7.47 0,3.735 -1.411,7.304 -1.411,3.486 -3.98399995,6.308 -2.57300005,2.822 -5.97600005,4.565 -3.403,1.66 -7.3039999,1.66 -1.162,0 -2.822,-0.415 -1.577,-0.332 -3.154,-0.913 -1.494,-0.581 -2.324,-1.328 -0.083,0 -0.166,0.996 -0.083,0.913 -0.166,1.909 0,1.079 0,1.328 v 15.521 q 0,1.079 0.83,1.66 0.913,0.664 1.992,0.913 1.162,0.332 1.992,0.581 0.664,0.249 1.245,0.498 0.664,0.332 0.664,0.996 0,0.498 -0.664,0.581 -0.664,0.166 -1.162,0.166 -2.407,0 -4.067,-0.249 -1.577,-0.166 -3.735,-0.166 -1.411,0 -2.324,0.083 -0.83,0.083 -1.743,0.166 -0.913,0.166 -2.573,0.166 z m 19.422,-25.066 q 1.2449999,0 2.9879999,-0.747 1.826,-0.747 3.569,-2.407 1.826,-1.66 2.988,-4.482 1.24500005,-2.822 1.24500005,-6.972 0,-4.814 -1.24500005,-7.719 -1.245,-2.905 -3.071,-4.399 -1.826,-1.494 -3.735,-1.992 -1.9089999,-0.498 -3.2369999,-0.498 -1.992,0 -4.15,0.83 -2.075,0.83 -3.569,1.909 -1.411,0.996 -1.411,1.577 0,1.826 -0.083,3.735 0,1.826 -0.083,3.569 0,1.743 -0.083,3.154 0,1.328 0,2.075 0,3.32 1.494,6.142 1.577,2.822 3.818,4.565 2.324,1.66 4.565,1.66 z m 22.326978,1.66 q -0.415,0 -1.079,-0.166 -0.5810005,-0.083 -0.5810005,-0.581 0,-0.664 0.5810005,-0.913 0.664,-0.332 1.328,-0.581 1.245,-0.415 2.407,-0.913 1.162,-0.581 1.162,-2.241 v -41.832 q 0,-2.407 -0.913,-3.984 -0.83,-1.66 -2.905,-2.075 -0.664,-0.166 -0.664,-1.079 0,-0.83 0.581,-0.996 2.158,-0.498 3.735,-0.996 1.577,-0.581 2.905,-1.162 1.411,-0.581 2.739,-1.079 0.332,-0.166 0.498,-0.166 0.166,0 0.249,0.249 0.166,0.166 0.166,0.332 0,0.747 -0.332,3.237 -0.249,2.407 -0.249,8.051 v 41.5 q 0,1.66 1.162,2.241 1.162,0.498 2.407,0.913 0.664,0.249 1.245,0.581 0.664,0.249 0.664,0.913 0,0.498 -0.664,0.581 -0.581,0.166 -0.996,0.166 -1.577,0 -2.573,-0.166 -0.913,-0.083 -1.826,-0.166 -0.83,-0.083 -2.324,-0.083 -1.411,0 -2.324,0.083 -0.913,0.083 -1.826,0.166 -0.913,0.166 -2.573,0.166 z m 26.393983,0.913 q -1.494,0 -3.071,-1.162 -1.494,-1.162 -2.573,-2.822 -0.996,-1.66 -0.996,-3.154 0,-2.656 1.411,-4.15 1.411,-1.494 4.482,-2.739 l 8.466,-3.486 q 1.66,-0.664 1.909,-1.162 0.332,-0.498 0.415,-2.158 l 0.166,-5.312 q 0.083,-2.158 -1.245,-3.735 -1.245,-1.577 -3.652,-1.577 -1.245,0 -2.49,0.415 -1.245,0.415 -2.075,1.079 -0.498,0.332 -0.664,0.996 -0.166,0.664 -0.166,1.411 0,0.332 0,0.747 0.083,0.415 0.083,0.747 0,0.415 -1.079,1.162 -0.996,0.664 -2.324,1.245 -1.245,0.498 -2.075,0.498 -0.415,0 -0.664,-0.166 -0.249,-0.249 -0.249,-0.581 0,-1.328 0.83,-2.822 0.913,-1.577 2.49,-2.905 1.909,-1.743 4.15,-3.071 2.241,-1.328 4.399,-2.075 2.158,-0.747 3.818,-0.747 2.988,0 4.897,2.158 1.992,2.075 1.909,5.229 l -0.415,19.92 q -0.083,1.743 0.747,2.822 0.913,1.079 2.241,1.079 2.075,0 3.071,-0.913 0.415,-0.415 0.664,-0.415 0.415,0 0.664,0.249 0.249,0.249 0.249,0.664 0,0.913 -0.913,1.826 -1.328,1.328 -2.905,2.075 -1.494,0.83 -2.822,0.83 -3.818,0 -6.059,-4.316 h -0.249 q -2.739,2.241 -5.229,3.237 -2.49,1.079 -5.146,1.079 z m 3.901,-3.984 q 1.66,0 2.822,-0.498 1.162,-0.581 2.075,-1.494 0.415,-0.415 0.664,-1.079 0.332,-0.747 0.415,-2.324 l 0.166,-4.067 q 0.083,-0.913 -0.083,-1.328 -0.166,-0.415 -0.664,-0.415 -0.166,0 -0.581,0.083 -0.415,0.083 -1.079,0.332 -4.399,1.577 -6.142,3.32 -1.66,1.66 -1.66,3.071 0,2.158 1.245,3.32 1.328,1.079 2.822,1.079 z m 23.157012,3.071 q -0.747,0 -1.245,-0.249 -0.415,-0.166 -0.415,-0.664 0,-0.664 0.498,-0.83 0.498,-0.249 1.411,-0.498 1.245,-0.332 2.407,-0.913 1.162,-0.581 1.162,-2.241 v -17.845 q 0,-2.241 -0.498,-3.818 -0.415,-1.577 -2.573,-2.158 -0.332,-0.166 -0.581,-0.332 -0.249,-0.249 -0.249,-0.747 0,-0.913 0.747,-0.996 2.905,-0.747 4.731,-1.826 1.826,-1.079 3.569,-2.407 0.249,-0.166 0.415,-0.249 0.249,-0.166 0.498,-0.166 0.166,0 0.249,0.166 0.166,0.166 0.166,0.415 0,0.581 -0.249,2.407 -0.166,1.743 -0.166,2.905 0,0.332 0,0.664 0.083,0.249 0.166,0.332 2.905,-2.739 6.142,-4.15 3.32,-1.411 7.221,-1.411 4.067,0 6.723,3.32 2.656,3.32 2.656,8.217 v 17.679 q 0,1.66 1.161997,2.241 1.162,0.498 2.406999,0.913 0.664,0.249 1.245,0.581 0.664,0.249 0.664,0.913 0,0.498 -0.581,0.581 -0.581,0.166 -1.079,0.166 -1.659999,0 -2.572999,-0.166 -0.912997,-0.083 -1.742997,-0.166 -0.83,-0.083 -2.324,-0.083 -1.411,0 -2.324,0.083 -0.913,0.083 -1.909,0.166 -0.913,0.166 -2.573,0.166 -0.415,0 -1.079,-0.166 -0.581,-0.083 -0.581,-0.581 0,-0.664 0.581,-0.913 0.664,-0.332 1.328,-0.581 1.245,-0.415 2.407,-0.913 1.162,-0.581 1.162,-2.241 v -17.43 q 0,-3.652 -2.075,-5.644 -1.992,-2.075 -5.395,-2.158 -2.988,0 -5.229,0.996 -2.241,0.913 -3.984,2.324 -0.332,0.332 -0.498,0.913 -0.166,0.498 -0.166,0.996 v 20.003 q 0,1.66 1.162,2.241 1.162,0.581 2.407,0.913 1.909,0.498 1.909,1.328 0,0.498 -0.415,0.664 -0.415,0.249 -1.245,0.249 -1.66,0 -2.656,-0.166 -0.913,-0.083 -1.743,-0.166 -0.83,-0.083 -2.324,-0.083 -1.411,0 -2.324,0.083 -0.83,0.083 -1.826,0.166 -0.913,0.166 -2.573,0.166 z m 57.850986,0.996 q -4.565,0 -7.968,-2.241 -3.403,-2.241 -5.312,-6.308 -1.909,-4.15 -1.909,-9.545 0,-4.814 2.158,-8.715 2.241,-3.984 5.893,-6.391 3.652,-2.407 7.968,-2.407 3.32,0 5.893,1.328 2.573,1.328 3.984,3.735 1.494,2.324 1.494,5.395 0,2.573 -2.49,2.573 h -17.513 q -1.162,0 -1.66,0.664 -0.415,0.581 -0.415,2.407 0,3.984 1.743,7.304 1.743,3.237 4.648,5.229 2.905,1.909 6.391,1.909 2.49,0 4.482,-0.913 2.075,-0.996 3.652,-2.822 0.332,-0.415 0.498,-0.498 0.166,-0.166 0.415,-0.166 0.664,0 0.664,0.83 0,1.577 -1.494,3.486 -1.245,1.577 -2.988,2.739 -1.743,1.162 -3.818,1.743 -2.075,0.664 -4.316,0.664 z m -7.636,-25.149 h 7.553 q 1.992,0 3.403,-0.083 1.411,-0.083 2.739,-0.332 0.415,-0.083 0.498,-0.498 0.166,-0.498 0.166,-1.328 0,-2.407 -2.158,-4.067 -2.075,-1.743 -4.98,-1.743 -1.909,0 -3.818,1.162 -1.909,1.079 -3.154,2.739 -1.245,1.66 -1.245,3.32 0,0.83 0.996,0.83 z m 38.01395,25.066 q -4.067,0 -6.391,-2.49 -2.241,-2.49 -2.241,-7.387 v -19.256 q 0,-0.664 -0.498,-0.913 -0.498,-0.332 -2.158,-0.332 h -0.498 q -0.415,0 -0.747,-0.498 -0.249,-0.581 -0.249,-1.162 0,-0.166 0.249,-0.498 0.249,-0.332 0.332,-0.415 1.66,-1.162 2.988,-2.324 1.411,-1.162 2.49,-2.241 1.162,-1.162 1.909,-2.075 0.415,-0.415 0.664,-0.664 0.332,-0.332 0.747,-0.332 0.415,0 0.747,0.166 0.415,0.166 0.332,0.747 l -0.415,3.735 q -0.083,0.913 0.415,1.245 0.498,0.332 1.577,0.332 h 9.462 q 0.332,0 0.581,0.581 0.249,0.498 0.249,1.245 0,0.747 -0.249,1.494 -0.249,0.664 -0.581,0.664 h -8.217 q -2.075,0 -2.739,0.332 -0.581,0.332 -0.581,1.992 v 16.351 q 0,3.32 1.411,5.229 1.411,1.909 4.067,1.909 2.407,0 3.735,-0.332 1.328,-0.415 2.407,-1.162 0.166,-0.166 0.332,-0.166 0.332,0 0.415,0.415 0.166,0.332 0.166,0.747 0,0.415 -1.411,1.66 -1.328,1.245 -3.569,2.324 -2.158,1.079 -4.731,1.079 z m 20.08594,0 q -1.494,0 -3.071,-1.162 -1.494,-1.162 -2.573,-2.822 -0.996,-1.66 -0.996,-3.154 0,-2.656 1.411,-4.15 1.411,-1.494 4.482,-2.739 l 8.466,-3.486 q 1.66,-0.664 1.909,-1.162 0.332,-0.498 0.415,-2.158 l 0.166,-5.312 q 0.083,-2.158 -1.245,-3.735 -1.245,-1.577 -3.652,-1.577 -1.245,0 -2.49,0.415 -1.245,0.415 -2.075,1.079 -0.498,0.332 -0.664,0.996 -0.166,0.664 -0.166,1.411 0,0.332 0,0.747 0.083,0.415 0.083,0.747 0,0.415 -1.079,1.162 -0.996,0.664 -2.324,1.245 -1.245,0.498 -2.075,0.498 -0.415,0 -0.664,-0.166 -0.249,-0.249 -0.249,-0.581 0,-1.328 0.83,-2.822 0.913,-1.577 2.49,-2.905 1.909,-1.743 4.15,-3.071 2.241,-1.328 4.399,-2.075 2.158,-0.747 3.818,-0.747 2.988,0 4.897,2.158 1.992,2.075 1.909,5.229 l -0.415,19.92 q -0.083,1.743 0.747,2.822 0.913,1.079 2.241,1.079 2.075,0 3.071,-0.913 0.415,-0.415 0.664,-0.415 0.415,0 0.664,0.249 0.249,0.249 0.249,0.664 0,0.913 -0.913,1.826 -1.328,1.328 -2.905,2.075 -1.494,0.83 -2.822,0.83 -3.818,0 -6.059,-4.316 h -0.249 q -2.739,2.241 -5.229,3.237 -2.49,1.079 -5.146,1.079 z m 3.901,-3.984 q 1.66,0 2.822,-0.498 1.162,-0.581 2.075,-1.494 0.415,-0.415 0.664,-1.079 0.332,-0.747 0.415,-2.324 l 0.166,-4.067 q 0.083,-0.913 -0.083,-1.328 -0.166,-0.415 -0.664,-0.415 -0.166,0 -0.581,0.083 -0.415,0.083 -1.079,0.332 -4.399,1.577 -6.142,3.32 -1.66,1.66 -1.66,3.071 0,2.158 1.245,3.32 1.328,1.079 2.822,1.079 z m 70.88207,3.071 q -0.581,0 -1.826,-0.083 -1.245,-0.083 -2.822,-0.166 -1.577,-0.083 -3.32,-0.166 -1.66,-0.083 -3.237,-0.083 -1.577,0 -4.482,0.083 -2.905,0.083 -6.142,0.166 -3.154,0 -5.561,0.083 -2.407,0.083 -3.071,0.083 -0.332,0 -0.996,-0.498 -0.664,-0.581 -0.664,-0.913 0,-0.415 0.166,-0.581 0.166,-0.166 0.498,-0.498 l 14.193,-14.691 q 4.15,-4.316 6.889,-9.628 2.739,-5.395 2.739,-10.873 0,-4.399 -2.656,-6.889 -2.656,-2.573 -6.225,-2.573 -3.403,0 -6.308,1.909 -2.905,1.826 -4.648,4.814 -0.249,0.498 -0.664,0.83 -0.332,0.332 -0.747,0.332 -0.332,0 -0.83,-0.664 -0.415,-0.747 -0.415,-1.826 0,-0.996 1.162,-2.739 1.245,-1.743 3.403,-3.569 2.158,-1.826 5.146,-3.071 2.988,-1.328 6.474,-1.328 4.15,0 7.138,1.743 2.988,1.743 4.565,4.814 1.577,3.071 1.577,7.138 0,2.241 -0.83,4.814 -0.747,2.573 -2.158,5.063 -1.328,2.49 -3.071,4.648 -1.079,1.328 -3.237,3.569 -2.075,2.158 -4.565,4.648 -2.407,2.49 -4.648,4.731 -2.158,2.158 -3.569,3.652 -1.411,1.411 -1.411,1.577 0,0.415 1.162,0.581 1.411,0.083 3.154,0.166 1.826,0.083 4.15,0.083 2.407,0 4.814,-0.083 2.407,-0.083 4.648,-0.166 2.407,-0.166 3.735,-0.415 1.328,-0.249 2.241,-0.996 0.913,-0.83 1.909,-2.49 0.332,-0.498 0.83,-1.162 0.581,-0.747 1.245,-0.747 0.415,0 0.498,0.332 0.083,0.332 0.083,0.664 0,0.415 -0.498,1.66 -0.415,1.162 -0.996,2.905 -0.581,1.743 -0.996,3.818 -0.249,1.328 -0.83,1.66 -0.581,0.332 -0.996,0.332 z"
     id="text21-7"
     aria-label="planeta 2" />
</svg>
