<?xml version="1.0" encoding="UTF-8" standalone="no"?>
<svg
   width="94.061245pt"
   height="94.154995pt"
   viewBox="0 0 94.061245 94.154995"
   version="1.1"
   id="svg16"
   sodipodi:docname="orbita-hohmann.svg"
   inkscape:version="1.3.2 (091e20e, 2023-11-25)"
   xmlns:inkscape="http://www.inkscape.org/namespaces/inkscape"
   xmlns:sodipodi="http://sodipodi.sourceforge.net/DTD/sodipodi-0.dtd"
   xmlns="http://www.w3.org/2000/svg"
   xmlns:svg="http://www.w3.org/2000/svg">
  <defs
     id="defs16" />
  <sodipodi:namedview
     id="namedview16"
     pagecolor="#ffffff"
     bordercolor="#000000"
     borderopacity="0.25"
     inkscape:showpageshadow="2"
     inkscape:pageopacity="0.0"
     inkscape:pagecheckerboard="0"
     inkscape:deskcolor="#d1d1d1"
     inkscape:document-units="pt"
     inkscape:zoom="1.8798789"
     inkscape:cx="62.504025"
     inkscape:cy="62.769999"
     inkscape:window-width="1376"
     inkscape:window-height="449"
     inkscape:window-x="0"
     inkscape:window-y="25"
     inkscape:window-maximized="0"
     inkscape:current-layer="svg16" />
  <path
     fill-rule="nonzero"
     fill="rgb(0%, 0%, 0%)"
     fill-opacity="1"
     d="M 24.242188 20.933594 C 24.203125 20.933594 24.160156 20.917969 24.113281 20.882812 C 24.0625 20.859375 24.023438 20.824219 23.992188 20.777344 C 23.960938 20.738281 23.945312 20.691406 23.945312 20.644531 C 23.945312 20.546875 23.96875 20.429688 24.015625 20.285156 C 24.070312 20.132812 24.140625 19.945312 24.21875 19.722656 L 25.324219 16.839844 C 25.363281 16.738281 25.378906 16.640625 25.371094 16.554688 C 25.371094 16.464844 25.332031 16.421875 25.253906 16.421875 C 25.140625 16.421875 25.027344 16.4375 24.917969 16.46875 C 24.8125 16.492188 24.730469 16.519531 24.675781 16.554688 C 24.628906 16.585938 24.578125 16.59375 24.53125 16.578125 C 24.492188 16.554688 24.472656 16.511719 24.472656 16.457031 C 24.472656 16.394531 24.5 16.320312 24.554688 16.242188 C 24.621094 16.160156 24.703125 16.085938 24.808594 16.011719 C 24.902344 15.941406 25.015625 15.878906 25.144531 15.832031 C 25.28125 15.785156 25.421875 15.761719 25.5625 15.761719 C 25.789062 15.761719 25.929688 15.816406 25.984375 15.929688 C 26.046875 16.039062 26.054688 16.191406 26.007812 16.382812 C 25.96875 16.570312 25.898438 16.78125 25.804688 17.019531 L 25.265625 18.375 C 25.230469 18.433594 25.238281 18.46875 25.289062 18.484375 C 25.34375 18.5 25.382812 18.488281 25.40625 18.449219 C 25.726562 17.898438 26.046875 17.417969 26.367188 17.007812 C 26.695312 16.59375 27 16.273438 27.28125 16.046875 C 27.558594 15.816406 27.792969 15.699219 27.976562 15.699219 C 28.183594 15.699219 28.328125 15.761719 28.40625 15.878906 C 28.496094 16 28.539062 16.140625 28.539062 16.300781 C 28.539062 16.445312 28.511719 16.59375 28.457031 16.746094 C 28.40625 16.898438 28.335938 17.023438 28.238281 17.128906 C 28.152344 17.226562 28.050781 17.273438 27.941406 17.273438 C 27.875 17.273438 27.828125 17.238281 27.796875 17.164062 C 27.765625 17.085938 27.746094 16.980469 27.746094 16.851562 C 27.746094 16.734375 27.730469 16.640625 27.699219 16.578125 C 27.667969 16.503906 27.609375 16.46875 27.519531 16.46875 C 27.441406 16.46875 27.332031 16.519531 27.195312 16.625 C 27.066406 16.730469 26.902344 16.910156 26.703125 17.164062 C 26.617188 17.285156 26.5 17.449219 26.355469 17.65625 C 26.210938 17.863281 26.054688 18.097656 25.886719 18.351562 C 25.726562 18.601562 25.566406 18.855469 25.40625 19.121094 C 25.246094 19.375 25.109375 19.613281 24.988281 19.828125 C 24.773438 20.210938 24.617188 20.492188 24.519531 20.667969 C 24.433594 20.84375 24.339844 20.933594 24.242188 20.933594 Z M 24.242188 20.933594 "
     id="path1" />
  <path
     fill-rule="nonzero"
     fill="rgb(0%, 0%, 0%)"
     fill-opacity="1"
     d="M 31.339844 23.152344 C 31.304688 23.152344 31.246094 23.148438 31.167969 23.144531 C 31.089844 23.140625 31.003906 23.132812 30.902344 23.128906 C 30.804688 23.125 30.699219 23.117188 30.589844 23.113281 C 30.488281 23.109375 30.386719 23.105469 30.289062 23.105469 C 30.1875 23.105469 30.046875 23.109375 29.867188 23.113281 C 29.683594 23.117188 29.492188 23.125 29.289062 23.128906 C 29.089844 23.128906 28.917969 23.132812 28.765625 23.136719 C 28.617188 23.140625 28.519531 23.144531 28.476562 23.144531 C 28.457031 23.144531 28.425781 23.128906 28.382812 23.097656 C 28.34375 23.0625 28.320312 23.03125 28.320312 23.011719 C 28.320312 22.984375 28.328125 22.96875 28.335938 22.957031 C 28.347656 22.945312 28.363281 22.929688 28.382812 22.910156 L 29.71875 21.53125 C 29.976562 21.257812 30.195312 20.957031 30.363281 20.625 C 30.535156 20.285156 30.621094 19.945312 30.621094 19.601562 C 30.621094 19.328125 30.539062 19.113281 30.371094 18.957031 C 30.207031 18.792969 30.011719 18.714844 29.789062 18.714844 C 29.574219 18.714844 29.378906 18.773438 29.195312 18.894531 C 29.011719 19.007812 28.867188 19.160156 28.757812 19.347656 C 28.742188 19.378906 28.722656 19.402344 28.695312 19.421875 C 28.675781 19.445312 28.652344 19.453125 28.625 19.453125 C 28.605469 19.453125 28.578125 19.433594 28.546875 19.390625 C 28.523438 19.347656 28.507812 19.289062 28.507812 19.222656 C 28.507812 19.160156 28.546875 19.074219 28.617188 18.964844 C 28.695312 18.855469 28.800781 18.742188 28.9375 18.628906 C 29.074219 18.515625 29.234375 18.417969 29.421875 18.339844 C 29.609375 18.257812 29.8125 18.214844 30.03125 18.214844 C 30.289062 18.214844 30.511719 18.269531 30.699219 18.378906 C 30.886719 18.488281 31.03125 18.636719 31.128906 18.832031 C 31.226562 19.023438 31.277344 19.246094 31.277344 19.5 C 31.277344 19.640625 31.25 19.792969 31.199219 19.953125 C 31.152344 20.117188 31.085938 20.273438 30.996094 20.429688 C 30.914062 20.585938 30.816406 20.730469 30.707031 20.867188 C 30.640625 20.949219 30.539062 21.0625 30.402344 21.203125 C 30.273438 21.335938 30.132812 21.484375 29.976562 21.640625 C 29.824219 21.796875 29.679688 21.941406 29.539062 22.082031 C 29.402344 22.21875 29.292969 22.332031 29.203125 22.425781 C 29.113281 22.515625 29.070312 22.566406 29.070312 22.574219 C 29.070312 22.601562 29.105469 22.621094 29.179688 22.628906 C 29.269531 22.632812 29.367188 22.640625 29.476562 22.644531 C 29.589844 22.648438 29.71875 22.652344 29.867188 22.652344 C 30.015625 22.652344 30.167969 22.648438 30.320312 22.644531 C 30.46875 22.640625 30.613281 22.632812 30.753906 22.628906 C 30.90625 22.621094 31.023438 22.605469 31.105469 22.589844 C 31.1875 22.574219 31.257812 22.542969 31.316406 22.496094 C 31.375 22.445312 31.433594 22.367188 31.496094 22.261719 C 31.515625 22.230469 31.542969 22.195312 31.574219 22.152344 C 31.609375 22.105469 31.648438 22.082031 31.691406 22.082031 C 31.71875 22.082031 31.734375 22.09375 31.738281 22.113281 C 31.742188 22.136719 31.746094 22.15625 31.746094 22.175781 C 31.746094 22.203125 31.730469 22.253906 31.699219 22.332031 C 31.671875 22.40625 31.640625 22.496094 31.605469 22.605469 C 31.570312 22.714844 31.539062 22.835938 31.511719 22.964844 C 31.496094 23.046875 31.46875 23.101562 31.433594 23.121094 C 31.398438 23.140625 31.367188 23.152344 31.339844 23.152344 Z M 31.339844 23.152344 "
     id="path2" />
  <path
     fill-rule="evenodd"
     fill="rgb(59.999084%, 79.998779%, 100%)"
     fill-opacity="1"
     d="M 46.28125 40.65625 C 51.90625 40.65625 56.125 44.96875 56.125 50.59375 C 56.125 56.21875 51.90625 60.4375 46.28125 60.4375 C 40.65625 60.4375 36.4375 56.21875 36.4375 50.59375 C 36.4375 44.96875 40.65625 40.65625 46.28125 40.65625 Z M 46.28125 40.65625 "
     id="path3" />
  <path
     fill="none"
     stroke-width="1.061241"
     stroke-linecap="butt"
     stroke-linejoin="round"
     stroke="rgb(0%, 0%, 0%)"
     stroke-opacity="1"
     stroke-miterlimit="10"
     d="M 46 -29.21875 C 57.34375 -29.21875 65.96875 -37.9375 65.96875 -49.1875 C 65.96875 -60.53125 57.34375 -69.15625 46 -69.15625 C 34.75 -69.15625 26.125 -60.53125 26.125 -49.1875 C 26.125 -37.9375 34.75 -29.21875 46 -29.21875 Z M 46 -29.21875 "
     transform="matrix(1, 0, 0, -1, 0, 0)"
     id="path4" />
  <path
     fill="none"
     stroke-width="1.061241"
     stroke-linecap="butt"
     stroke-linejoin="round"
     stroke="rgb(0%, 0%, 0%)"
     stroke-opacity="1"
     stroke-miterlimit="10"
     d="M 47.03125 -0.625 C 73.375 -0.625 93.53125 -20.78125 93.53125 -47.125 C 93.53125 -73.46875 73.375 -93.625 47.03125 -93.625 C 20.6875 -93.625 0.53125 -73.46875 0.53125 -47.125 C 0.53125 -20.78125 20.6875 -0.625 47.03125 -0.625 Z M 47.03125 -0.625 "
     transform="matrix(1, 0, 0, -1, 0, 0)"
     id="path5" />
  <path
     fill="none"
     stroke-width="1.061241"
     stroke-linecap="butt"
     stroke-linejoin="round"
     stroke="rgb(0%, 50.195312%, 0%)"
     stroke-opacity="1"
     stroke-miterlimit="10"
     d="M 45.8125 -0.53125 C 61.75 -0.53125 73.9375 -15.4375 73.9375 -34.9375 C 73.9375 -54.4375 61.75 -69.34375 45.8125 -69.34375 C 29.96875 -69.34375 17.78125 -54.4375 17.78125 -34.9375 C 17.78125 -15.4375 29.96875 -0.53125 45.8125 -0.53125 Z M 45.8125 -0.53125 "
     transform="matrix(1, 0, 0, -1, 0, 0)"
     id="path6" />
  <path
     fill-rule="evenodd"
     fill="rgb(0%, 0%, 0%)"
     fill-opacity="1"
     d="M 65.59375 49.5625 L 59.96875 52.28125 L 59.40625 48.34375 Z M 65.59375 49.5625 "
     id="path7" />
  <path
     fill-rule="evenodd"
     fill="rgb(0%, 0%, 0%)"
     fill-opacity="1"
     d="M 47.03125 51.4375 L 60.8125 49.65625 L 60.90625 50.6875 L 47.21875 52.46875 Z M 47.03125 51.4375 "
     id="path8" />
  <path
     fill-rule="evenodd"
     fill="rgb(0%, 0%, 0%)"
     fill-opacity="1"
     d="M 14.78125 14.3125 L 22.28125 18.90625 L 18.0625 22.46875 Z M 14.78125 14.3125 "
     id="path9" />
  <path
     fill-rule="evenodd"
     fill="rgb(0%, 0%, 0%)"
     fill-opacity="1"
     d="M 46.09375 52.28125 L 18.71875 19.75 L 19.5625 19.09375 L 46.9375 51.625 Z M 46.09375 52.28125 "
     id="path10" />
  <path
     fill-rule="evenodd"
     fill="rgb(0%, 0%, 0%)"
     fill-opacity="1"
     d="M 14.78125 14.3125 L 22.375 18.90625 L 18.0625 22.46875 Z M 14.78125 14.3125 "
     id="path11" />
  <path
     fill-rule="evenodd"
     fill="rgb(0%, 0%, 0%)"
     fill-opacity="1"
     d="M 46.09375 52.28125 L 18.71875 19.75 L 19.5625 19.09375 L 46.9375 51.625 Z M 46.09375 52.28125 "
     id="path12" />
  <path
     fill-rule="evenodd"
     fill="rgb(0%, 0%, 0%)"
     fill-opacity="1"
     d="M 14.78125 14.3125 L 22.375 18.90625 L 18.0625 22.46875 Z M 14.78125 14.3125 "
     id="path13" />
  <path
     fill-rule="evenodd"
     fill="rgb(0%, 0%, 0%)"
     fill-opacity="1"
     d="M 46.09375 52.28125 L 18.71875 19.75 L 19.5625 19.09375 L 46.9375 51.625 Z M 46.09375 52.28125 "
     id="path14" />
  <path
     fill-rule="nonzero"
     fill="rgb(0%, 0%, 0%)"
     fill-opacity="1"
     d="M 56.667969 45.6875 C 56.625 45.6875 56.582031 45.671875 56.535156 45.636719 C 56.484375 45.613281 56.445312 45.578125 56.414062 45.53125 C 56.382812 45.488281 56.367188 45.445312 56.367188 45.398438 C 56.367188 45.300781 56.390625 45.183594 56.4375 45.039062 C 56.492188 44.886719 56.5625 44.699219 56.640625 44.472656 L 57.746094 41.59375 C 57.785156 41.488281 57.800781 41.394531 57.792969 41.304688 C 57.792969 41.21875 57.753906 41.175781 57.675781 41.175781 C 57.5625 41.175781 57.449219 41.191406 57.339844 41.222656 C 57.234375 41.246094 57.152344 41.273438 57.097656 41.304688 C 57.050781 41.339844 57.003906 41.347656 56.953125 41.328125 C 56.914062 41.304688 56.894531 41.265625 56.894531 41.210938 C 56.894531 41.144531 56.921875 41.074219 56.976562 40.992188 C 57.042969 40.914062 57.125 40.839844 57.230469 40.765625 C 57.324219 40.695312 57.4375 40.632812 57.566406 40.585938 C 57.703125 40.539062 57.84375 40.515625 57.984375 40.515625 C 58.210938 40.515625 58.351562 40.570312 58.40625 40.683594 C 58.46875 40.792969 58.476562 40.945312 58.429688 41.136719 C 58.390625 41.320312 58.320312 41.535156 58.226562 41.773438 L 57.6875 43.128906 C 57.652344 43.1875 57.664062 43.222656 57.710938 43.238281 C 57.765625 43.253906 57.804688 43.242188 57.832031 43.203125 C 58.148438 42.648438 58.46875 42.171875 58.789062 41.761719 C 59.117188 41.347656 59.421875 41.027344 59.703125 40.800781 C 59.980469 40.570312 60.214844 40.453125 60.398438 40.453125 C 60.605469 40.453125 60.75 40.515625 60.832031 40.632812 C 60.917969 40.753906 60.960938 40.894531 60.960938 41.054688 C 60.960938 41.199219 60.933594 41.347656 60.878906 41.496094 C 60.832031 41.648438 60.757812 41.777344 60.664062 41.882812 C 60.574219 41.976562 60.472656 42.027344 60.363281 42.027344 C 60.296875 42.027344 60.25 41.988281 60.21875 41.917969 C 60.1875 41.839844 60.171875 41.734375 60.171875 41.605469 C 60.171875 41.484375 60.152344 41.394531 60.121094 41.328125 C 60.089844 41.257812 60.03125 41.222656 59.941406 41.222656 C 59.863281 41.222656 59.753906 41.273438 59.617188 41.378906 C 59.488281 41.480469 59.324219 41.660156 59.125 41.917969 C 59.039062 42.039062 58.921875 42.203125 58.777344 42.410156 C 58.632812 42.617188 58.476562 42.851562 58.308594 43.105469 C 58.148438 43.355469 57.988281 43.609375 57.832031 43.875 C 57.671875 44.128906 57.53125 44.367188 57.410156 44.582031 C 57.195312 44.964844 57.039062 45.246094 56.941406 45.421875 C 56.855469 45.597656 56.761719 45.6875 56.667969 45.6875 Z M 56.667969 45.6875 "
     id="path15" />
  <path
     fill-rule="nonzero"
     fill="rgb(0%, 0%, 0%)"
     fill-opacity="1"
     d="M 61.328125 47.90625 C 61.292969 47.90625 61.265625 47.894531 61.242188 47.875 C 61.222656 47.851562 61.210938 47.832031 61.210938 47.8125 C 61.210938 47.765625 61.25 47.730469 61.328125 47.710938 C 61.527344 47.660156 61.6875 47.613281 61.8125 47.570312 C 61.941406 47.523438 62.035156 47.460938 62.09375 47.382812 C 62.15625 47.300781 62.1875 47.183594 62.1875 47.03125 L 62.1875 44.050781 C 62.1875 43.953125 62.15625 43.878906 62.09375 43.824219 C 62.03125 43.773438 61.949219 43.738281 61.851562 43.714844 C 61.753906 43.695312 61.644531 43.683594 61.53125 43.675781 C 61.480469 43.671875 61.433594 43.660156 61.390625 43.640625 C 61.347656 43.617188 61.328125 43.585938 61.328125 43.546875 C 61.328125 43.507812 61.347656 43.476562 61.382812 43.453125 C 61.425781 43.425781 61.472656 43.410156 61.523438 43.40625 C 61.757812 43.367188 61.964844 43.324219 62.148438 43.273438 C 62.335938 43.214844 62.515625 43.097656 62.695312 42.921875 C 62.699219 42.914062 62.703125 42.914062 62.710938 42.914062 C 62.71875 42.914062 62.726562 42.914062 62.734375 42.914062 C 62.757812 42.914062 62.78125 42.921875 62.804688 42.9375 C 62.824219 42.945312 62.832031 42.960938 62.828125 42.984375 C 62.816406 43.0625 62.808594 43.148438 62.804688 43.242188 C 62.796875 43.328125 62.796875 43.429688 62.796875 43.539062 L 62.796875 47.125 C 62.796875 47.253906 62.820312 47.355469 62.867188 47.421875 C 62.917969 47.488281 63.003906 47.542969 63.121094 47.585938 C 63.242188 47.621094 63.410156 47.667969 63.621094 47.71875 C 63.652344 47.722656 63.683594 47.738281 63.707031 47.757812 C 63.738281 47.773438 63.753906 47.792969 63.753906 47.820312 C 63.753906 47.875 63.71875 47.90625 63.644531 47.90625 C 63.5 47.90625 63.363281 47.898438 63.238281 47.890625 C 63.121094 47.882812 63 47.878906 62.882812 47.875 C 62.765625 47.867188 62.640625 47.867188 62.5 47.867188 C 62.359375 47.867188 62.226562 47.867188 62.101562 47.875 C 61.976562 47.878906 61.851562 47.882812 61.726562 47.890625 C 61.601562 47.898438 61.46875 47.90625 61.328125 47.90625 Z M 61.328125 47.90625 "
     id="path16" />
</svg>
