<?xml version="1.0" encoding="UTF-8" standalone="no"?>
<svg
   stroke-width="4"
   viewBox="0 0 1387 811.86273"
   version="1.1"
   id="svg59"
   sodipodi:docname="Apogee_(PSF)_mul.svg"
   width="1387"
   height="811.86273"
   inkscape:version="1.3.2 (091e20e, 2023-11-25)"
   xmlns:inkscape="http://www.inkscape.org/namespaces/inkscape"
   xmlns:sodipodi="http://sodipodi.sourceforge.net/DTD/sodipodi-0.dtd"
   xmlns="http://www.w3.org/2000/svg"
   xmlns:svg="http://www.w3.org/2000/svg">
  <sodipodi:namedview
     id="namedview59"
     pagecolor="#ffffff"
     bordercolor="#000000"
     borderopacity="0.25"
     inkscape:showpageshadow="2"
     inkscape:pageopacity="0.0"
     inkscape:pagecheckerboard="0"
     inkscape:deskcolor="#d1d1d1"
     inkscape:zoom="0.41374541"
     inkscape:cx="716.62426"
     inkscape:cy="227.19285"
     inkscape:window-width="1512"
     inkscape:window-height="945"
     inkscape:window-x="1920"
     inkscape:window-y="89"
     inkscape:window-maximized="0"
     inkscape:current-layer="svg59" />
  <defs
     id="defs1">
    <marker
       id="h"
       markerHeight="8"
       markerWidth="6"
       orient="auto"
       refX="3"
       refY="4">
      <path
         fill="#000000"
         d="M 0,0 V 8 L 4,4 Z"
         id="path1" />
    </marker>
  </defs>
  <g
     fill="#666666"
     id="g3"
     transform="translate(-128,-92.892367)">
    <circle
       cx="178"
       cy="500"
       r="50"
       id="circle1" />
    <circle
       cx="1465"
       cy="500"
       r="50"
       id="circle2" />
    <circle
       fill="#0000cc"
       cx="1038"
       cy="500"
       r="100"
       id="circle3" />
  </g>
  <g
     stroke="#ff0000"
     stroke-opacity="0.8"
     fill="none"
     stroke-dasharray="12"
     id="g4"
     transform="translate(-128,-92.892367)">
    <path
       d="M 1453,417 C 1202,-45 368,21 180,418"
       id="path3" />
    <path
       d="M 1464,564 C 1344,1033 341,998 193,564"
       id="path4" />
  </g>
  <g
     stroke="#000000"
     marker-end="url(#h)"
     id="g6"
     transform="translate(-128,-92.892367)">
    <path
       d="M 920,500 H 170"
       id="path5" />
    <path
       d="m 1155,500 h 317"
       id="path6" />
  </g>
  <path
     d="m 10.266501,599.30762 q -2.1599995,0 -4.4399995,-1.68 -2.16,-1.68 -3.72,-4.08 -1.44000004,-2.4 -1.44000004,-4.56 0,-3.84 2.04000004,-6 2.04,-2.16 6.48,-3.96 l 12.2399995,-5.04 q 2.4,-0.96 2.76,-1.68 0.48,-0.72 0.6,-3.12 l 0.24,-7.68 q 0.12,-3.12 -1.8,-5.4 -1.8,-2.28 -5.28,-2.28 -1.8,0 -3.6,0.6 -1.8,0.6 -3,1.56 -0.72,0.48 -0.96,1.44 -0.24,0.96 -0.24,2.04 0,0.48 0,1.08 0.12,0.6 0.12,1.08 0,0.6 -1.5599995,1.68 -1.44,0.96 -3.36,1.8 -1.8,0.72 -3,0.72 -0.6,0 -0.96,-0.24 -0.36,-0.36 -0.36,-0.84 0,-1.92 1.2,-4.08 1.32,-2.28 3.6,-4.2 2.76,-2.52 5.9999995,-4.44 3.24,-1.92 6.36,-3 3.12,-1.08 5.52,-1.08 4.32,0 7.08,3.12 2.88,3 2.76,7.56 l -0.6,28.8 q -0.12,2.52 1.08,4.08 1.32,1.56 3.24,1.56 3,0 4.44,-1.32 0.6,-0.6 0.96,-0.6 0.6,0 0.96,0.36 0.36,0.36 0.36,0.96 0,1.32 -1.32,2.64 -1.92,1.92 -4.2,3 -2.16,1.2 -4.08,1.2 -5.52,0 -8.76,-6.24 h -0.36 q -3.96,3.24 -7.56,4.68 -3.6,1.56 -7.44,1.56 z m 5.64,-5.76 q 2.4,0 4.08,-0.72 1.68,-0.84 3,-2.16 0.6,-0.6 0.96,-1.56 0.48,-1.08 0.6,-3.36 l 0.24,-5.88 q 0.12,-1.32 -0.12,-1.92 -0.24,-0.6 -0.96,-0.6 -0.24,0 -0.84,0.12 -0.6,0.12 -1.56,0.48 -6.36,2.28 -8.88,4.8 -2.4,2.4 -2.4,4.44 0,3.12 1.8,4.8 1.92,1.56 4.08,1.56 z m 33.000021,38.28 q -0.6,0 -1.56,-0.24 -0.96,-0.12 -0.96,-0.84 0,-0.96 0.84,-1.44 0.96,-0.36 1.92,-0.72 1.8,-0.6 3.48,-1.44 1.68,-0.72 1.68,-3.12 v -60.84 q 0,-0.96 -0.6,-2.88 -0.48,-1.92 -1.68,-3.72 -1.2,-1.8 -3.24,-2.16 -0.48,-0.12 -0.72,-0.6 -0.24,-0.48 -0.24,-0.96 0,-0.6 0.24,-0.96 0.24,-0.36 0.6,-0.48 4.56,-1.08 7.8,-2.28 3.24,-1.32 6.12,-2.52 0.12,0 0.12,0 0,-0.12 0.12,-0.12 0.24,0 0.48,0.36 0.24,0.36 0.24,0.72 0,1.08 -0.36,3.48 -0.24,2.28 -0.24,3.72 0,0.96 0.12,1.08 1.2,-1.2 4.32,-3 3.24,-1.92 7.32,-3.36 4.08,-1.56 7.8,-1.56 6.24,0 10.56,3.36 4.44,3.24 6.72,8.52 2.399998,5.16 2.399998,10.8 0,5.4 -2.04,10.56 -2.039998,5.04 -5.759998,9.12 -3.72,4.08 -8.64,6.6 -4.92,2.4 -10.56,2.4 -1.68,0 -4.08,-0.6 -2.28,-0.48 -4.56,-1.32 -2.16,-0.84 -3.36,-1.92 -0.12,0 -0.24,1.44 -0.12,1.32 -0.24,2.76 0,1.56 0,1.92 v 22.44 q 0,1.56 1.2,2.4 1.32,0.96 2.88,1.32 1.68,0.48 2.88,0.84 0.96,0.36 1.8,0.72 0.96,0.48 0.96,1.44 0,0.72 -0.96,0.84 -0.96,0.24 -1.68,0.24 -3.48,0 -5.88,-0.36 -2.28,-0.24 -5.4,-0.24 -2.04,0 -3.36,0.12 -1.2,0.12 -2.52,0.24 -1.32,0.24 -3.72,0.24 z m 28.08,-36.24 q 1.8,0 4.32,-1.08 2.64,-1.08 5.16,-3.48 2.64,-2.4 4.32,-6.48 1.8,-4.08 1.8,-10.08 0,-6.96 -1.8,-11.16 -1.8,-4.2 -4.44,-6.36 -2.64,-2.16 -5.4,-2.88 -2.76,-0.72 -4.68,-0.72 -2.88,0 -6,1.2 -3,1.2 -5.16,2.76 -2.04,1.44 -2.04,2.28 0,2.64 -0.12,5.4 0,2.64 -0.12,5.16 0,2.52 -0.12,4.56 0,1.92 0,3 0,4.8 2.16,8.88 2.28,4.08 5.52,6.6 3.36,2.4 6.6,2.4 z m 57.479888,3.72 q -6.72,0 -12.12,-3.12 -5.4,-3.12 -8.64,-8.52 -3.12,-5.52 -3.12,-12.48 0,-5.04 1.92,-9.84 2.04,-4.8 5.64,-8.76 3.6,-3.96 8.4,-6.24 4.8,-2.4 10.32,-2.4 6.96,0 12.48,3.36 5.64,3.36 8.88,8.88 3.36,5.4 3.36,11.88 0,6.96 -3.12,13.2 -3,6.24 -9,10.2 -6,3.84 -15,3.84 z m 2.52,-3.6 q 4.08,0 7.32,-1.56 3.24,-1.56 5.04,-5.04 1.44,-2.76 1.92,-6.72 0.48,-3.96 0.48,-7.44 0,-5.76 -2.16,-11.04 -2.04,-5.4 -5.88,-8.76 -3.72,-3.48 -8.88,-3.48 -3.24,0 -5.88,1.08 -2.52,0.96 -4.68,3.72 -2.4,3 -3.12,7.32 -0.72,4.32 -0.72,8.64 0,5.88 2.16,11.28 2.16,5.28 5.88,8.64 3.72,3.36 8.52,3.36 z m 40.44005,3.6 q -2.16,0 -4.44,-1.68 -2.16,-1.68 -3.72,-4.08 -1.44,-2.4 -1.44,-4.56 0,-3.84 2.04,-6 2.04,-2.16 6.48,-3.96 l 12.24,-5.04 q 2.4,-0.96 2.76,-1.68 0.48,-0.72 0.6,-3.12 l 0.24,-7.68 q 0.12,-3.12 -1.8,-5.4 -1.8,-2.28 -5.28,-2.28 -1.8,0 -3.6,0.6 -1.8,0.6 -3,1.56 -0.72,0.48 -0.96,1.44 -0.24,0.96 -0.24,2.04 0,0.48 0,1.08 0.12,0.6 0.12,1.08 0,0.6 -1.56,1.68 -1.44,0.96 -3.36,1.8 -1.8,0.72 -3,0.72 -0.6,0 -0.96,-0.24 -0.36,-0.36 -0.36,-0.84 0,-1.92 1.2,-4.08 1.32,-2.28 3.6,-4.2 2.76,-2.52 6,-4.44 3.24,-1.92 6.36,-3 3.12,-1.08 5.52,-1.08 4.32,0 7.08,3.12 2.88,3 2.76,7.56 l -0.6,28.8 q -0.12,2.52 1.08,4.08 1.32,1.56 3.24,1.56 3,0 4.44,-1.32 0.6,-0.6 0.96,-0.6 0.6,0 0.96,0.36 0.36,0.36 0.36,0.96 0,1.32 -1.32,2.64 -1.92,1.92 -4.2,3 -2.16,1.2 -4.08,1.2 -5.52,0 -8.76,-6.24 h -0.36 q -3.96,3.24 -7.56,4.68 -3.6,1.56 -7.44,1.56 z m 5.64,-5.76 q 2.4,0 4.08,-0.72 1.68,-0.84 3,-2.16 0.6,-0.6 0.96,-1.56 0.48,-1.08 0.6,-3.36 l 0.24,-5.88 q 0.12,-1.32 -0.12,-1.92 -0.24,-0.6 -0.96,-0.6 -0.24,0 -0.84,0.12 -0.6,0.12 -1.56,0.48 -6.36,2.28 -8.88,4.8 -2.4,2.4 -2.4,4.44 0,3.12 1.8,4.8 1.92,1.56 4.08,1.56 z m 45.48002,5.76 q -3.72,0 -6.96,-1.2 -3.24,-1.08 -5.52,-3.12 -0.6,-1.32 -0.96,-4.44 -0.24,-3.12 -0.36,-5.16 0,-1.08 1.56,-1.08 0.48,0 0.84,0.24 0.48,0.12 0.6,0.6 1.56,5.88 4.92,8.4 3.48,2.52 6.96,2.52 3.48,0 5.88,-2.28 2.52,-2.4 2.52,-5.88 0,-3.24 -2.16,-5.52 -2.16,-2.4 -7.56,-5.76 -4.08,-2.52 -6.6,-4.8 -2.52,-2.28 -3.72,-4.68 -1.08,-2.4 -1.08,-5.4 0,-3.84 1.8,-6.96 1.8,-3.12 5.4,-4.92 3.6,-1.92 9,-1.92 3.6,0 6,0.72 2.4,0.72 3.6,1.56 0.96,1.32 1.56,4.2 0.72,2.76 0.72,5.28 0,0.84 -1.2,0.84 -0.72,0 -1.44,-0.24 -0.6,-0.36 -0.84,-0.84 -1.56,-3.96 -3.96,-6 -2.28,-2.16 -5.76,-2.16 -3,0 -5.4,1.8 -2.28,1.8 -2.28,5.28 0,2.76 1.68,4.92 1.8,2.16 6.6,4.92 6.96,3.96 10.32,7.44 3.48,3.36 3.48,9 0,6.48 -4.92,10.56 -4.92,4.08 -12.72,4.08 z m 44.15999,0 q -5.88,0 -9.24,-3.6 -3.24,-3.6 -3.24,-10.68 v -27.84 q 0,-0.96 -0.72,-1.32 -0.72,-0.48 -3.12,-0.48 h -0.72 q -0.6,0 -1.08,-0.72 -0.36,-0.84 -0.36,-1.68 0,-0.24 0.36,-0.72 0.36,-0.48 0.48,-0.6 2.4,-1.68 4.32,-3.36 2.04,-1.68 3.6,-3.24 1.68,-1.68 2.76,-3 0.6,-0.6 0.96,-0.96 0.48,-0.48 1.08,-0.48 0.6,0 1.08,0.24 0.6,0.24 0.48,1.08 l -0.6,5.4 q -0.12,1.32 0.6,1.8 0.72,0.48 2.28,0.48 h 13.68 q 0.48,0 0.84,0.84 0.36,0.72 0.36,1.8 0,1.08 -0.36,2.16 -0.36,0.96 -0.84,0.96 h -11.88 q -3,0 -3.96,0.48 -0.84,0.48 -0.84,2.88 v 23.64 q 0,4.8 2.04,7.56 2.04,2.76 5.88,2.76 3.48,0 5.4,-0.48 1.92,-0.6 3.48,-1.68 0.24,-0.24 0.48,-0.24 0.48,0 0.6,0.6 0.24,0.48 0.24,1.08 0,0.6 -2.04,2.4 -1.92,1.8 -5.16,3.36 -3.12,1.56 -6.84,1.56 z m 20.87989,-1.32 q -1.2,0 -1.8,-0.36 -0.6,-0.24 -0.6,-0.96 0,-0.96 0.72,-1.2 0.72,-0.36 2.04,-0.72 2.28,-0.6 3.36,-1.68 1.2,-1.2 1.2,-2.88 v -25.8 q 0,-3.24 -0.96,-5.64 -0.96,-2.4 -3.96,-3 -0.48,-0.12 -0.84,-0.6 -0.36,-0.48 -0.36,-0.96 0,-1.2 1.08,-1.44 3.12,-0.96 6.48,-2.76 3.48,-1.92 5.4,-3.12 0.72,-0.48 1.08,-0.6 0.48,-0.24 0.72,-0.24 0.6,0 0.6,0.84 0,0.36 -0.12,1.8 0,1.44 -0.12,3.36 0,1.92 -0.12,3.84 0,0.24 0.24,0.24 1.92,-2.4 4.2,-4.2 2.4,-1.8 4.8,-2.88 2.52,-1.08 4.8,-1.08 2.52,0 4.08,1.08 1.68,1.08 1.68,2.76 0,1.2 -0.72,2.64 -0.6,1.44 -1.68,2.52 -1.08,1.08 -2.28,1.08 -0.72,0 -1.56,-0.24 -0.84,-0.36 -1.8,-0.84 -0.96,-0.36 -1.92,-0.72 -0.96,-0.36 -1.92,-0.36 -2.88,0 -5.64,2.04 -2.64,2.04 -2.64,8.04 v 24.24 q 0,1.56 1.68,2.64 1.68,0.96 4.68,1.92 1.32,0.36 2.04,0.72 0.72,0.36 0.72,1.2 0,1.32 -2.4,1.32 -3.6,0 -5.52,-0.36 -1.8,-0.24 -4.92,-0.24 -2.04,0 -3.36,0.12 -1.2,0.12 -2.64,0.24 -1.32,0.24 -3.72,0.24 z m 62.27996,1.32 q -6.72,0 -12.12,-3.12 -5.4,-3.12 -8.64,-8.52 -3.12,-5.52 -3.12,-12.48 0,-5.04 1.92,-9.84 2.04,-4.8 5.64,-8.76 3.6,-3.96 8.4,-6.24 4.8,-2.4 10.32,-2.4 6.96,0 12.48,3.36 5.64,3.36 8.88,8.88 3.36,5.4 3.36,11.88 0,6.96 -3.12,13.2 -3,6.24 -9,10.2 -6,3.84 -15,3.84 z m 2.52,-3.6 q 4.08,0 7.32,-1.56 3.24,-1.56 5.04,-5.04 1.44,-2.76 1.92,-6.72 0.48,-3.96 0.48,-7.44 0,-5.76 -2.16,-11.04 -2.04,-5.4 -5.88,-8.76 -3.72,-3.48 -8.88,-3.48 -3.24,0 -5.88,1.08 -2.52,0.96 -4.68,3.72 -2.4,3 -3.12,7.32 -0.72,4.32 -0.72,8.64 0,5.88 2.16,11.28 2.16,5.28 5.88,8.64 3.72,3.36 8.52,3.36 z"
     id="text78"
     style="font-size:120px;line-height:1;font-family:'EB Garamond';-inkscape-font-specification:'EB Garamond';text-align:center;text-anchor:middle;stroke:#4477aa;stroke-width:1.333"
     aria-label="apoastro" />
  <path
     d="m 992.97371,631.82762 q -0.6,0 -1.56,-0.24 -0.96,-0.12 -0.96,-0.84 0,-0.96 0.84,-1.44 0.96,-0.36 1.92,-0.72 1.8,-0.6 3.48,-1.44 1.68,-0.72 1.68,-3.12 v -60.84 q 0,-0.96 -0.6,-2.88 -0.48,-1.92 -1.68,-3.72 -1.2,-1.8 -3.24,-2.16 -0.48,-0.12 -0.72,-0.6 -0.24,-0.48 -0.24,-0.96 0,-0.6 0.24,-0.96 0.24,-0.36 0.6,-0.48 4.56,-1.08 7.79999,-2.28 3.24,-1.32 6.12,-2.52 0.12,0 0.12,0 0,-0.12 0.12,-0.12 0.24,0 0.48,0.36 0.24,0.36 0.24,0.72 0,1.08 -0.36,3.48 -0.24,2.28 -0.24,3.72 0,0.96 0.12,1.08 1.2,-1.2 4.32,-3 3.24,-1.92 7.32,-3.36 4.08,-1.56 7.8,-1.56 6.24,0 10.56,3.36 4.44,3.24 6.72,8.52 2.4,5.16 2.4,10.8 0,5.4 -2.04,10.56 -2.04,5.04 -5.76,9.12 -3.72,4.08 -8.64,6.6 -4.92,2.4 -10.56,2.4 -1.68,0 -4.08,-0.6 -2.28,-0.48 -4.56,-1.32 -2.16,-0.84 -3.36,-1.92 -0.12,0 -0.24,1.44 -0.12,1.32 -0.24,2.76 0,1.56 0,1.92 v 22.44 q 0,1.56 1.2,2.4 1.32,0.96 2.88,1.32 1.68,0.48 2.88,0.84 0.96,0.36 1.8,0.72 0.96,0.48 0.96,1.44 0,0.72 -0.96,0.84 -0.96,0.24 -1.68,0.24 -3.48,0 -5.88,-0.36 -2.28,-0.24 -5.4,-0.24 -2.04,0 -3.35999,0.12 -1.2,0.12 -2.52,0.24 -1.32,0.24 -3.72,0.24 z m 28.07999,-36.24 q 1.8,0 4.32,-1.08 2.64,-1.08 5.16,-3.48 2.64,-2.4 4.32,-6.48 1.8,-4.08 1.8,-10.08 0,-6.96 -1.8,-11.16 -1.8,-4.2 -4.44,-6.36 -2.64,-2.16 -5.4,-2.88 -2.76,-0.72 -4.68,-0.72 -2.88,0 -6,1.2 -3,1.2 -5.16,2.76 -2.04,1.44 -2.04,2.28 0,2.64 -0.12,5.4 0,2.64 -0.12,5.16 0,2.52 -0.12,4.56 0,1.92 0,3 0,4.8 2.16,8.88 2.28,4.08 5.52,6.6 3.36,2.4 6.6,2.4 z m 54.9599,3.84 q -6.6,0 -11.52,-3.24 -4.92,-3.24 -7.68,-9.12 -2.76,-6 -2.76,-13.8 0,-6.96 3.12,-12.6 3.24,-5.76 8.52,-9.24 5.28,-3.48 11.52,-3.48 4.8,0 8.52,1.92 3.72,1.92 5.76,5.4 2.16,3.36 2.16,7.8 0,3.72 -3.6,3.72 h -25.32 q -1.68,0 -2.4,0.96 -0.6,0.84 -0.6,3.48 0,5.76 2.52,10.56 2.52,4.68 6.72,7.56 4.2,2.76 9.24,2.76 3.6,0 6.48,-1.32 3,-1.44 5.28,-4.08 0.48,-0.6 0.72,-0.72 0.24,-0.24 0.6,-0.24 0.96,0 0.96,1.2 0,2.28 -2.16,5.04 -1.8,2.28 -4.32,3.96 -2.52,1.68 -5.52,2.52 -3,0.96 -6.24,0.96 z m -11.04,-36.36 h 10.92 q 2.88,0 4.92,-0.12 2.04,-0.12 3.96,-0.48 0.6,-0.12 0.72,-0.72 0.24,-0.72 0.24,-1.92 0,-3.48 -3.12,-5.88 -3,-2.52 -7.2,-2.52 -2.76,0 -5.52,1.68 -2.76,1.56 -4.56,3.96 -1.8,2.4 -1.8,4.8 0,1.2 1.44,1.2 z m 38.1599,34.92 q -1.2,0 -1.8,-0.36 -0.6,-0.24 -0.6,-0.96 0,-0.96 0.72,-1.2 0.72,-0.36 2.04,-0.72 2.28,-0.6 3.36,-1.68 1.2,-1.2 1.2,-2.88 v -25.8 q 0,-3.24 -0.96,-5.64 -0.96,-2.4 -3.96,-3 -0.48,-0.12 -0.84,-0.6 -0.36,-0.48 -0.36,-0.96 0,-1.2 1.08,-1.44 3.12,-0.96 6.48,-2.76 3.48,-1.92 5.4,-3.12 0.72,-0.48 1.08,-0.6 0.48,-0.24 0.72,-0.24 0.6,0 0.6,0.84 0,0.36 -0.12,1.8 0,1.44 -0.12,3.36 0,1.92 -0.12,3.84 0,0.24 0.24,0.24 1.92,-2.4 4.2,-4.2 2.4,-1.8 4.8,-2.88 2.52,-1.08 4.8,-1.08 2.52,0 4.08,1.08 1.68,1.08 1.68,2.76 0,1.2 -0.72,2.64 -0.6,1.44 -1.68,2.52 -1.08,1.08 -2.28,1.08 -0.72,0 -1.56,-0.24 -0.84,-0.36 -1.8,-0.84 -0.96,-0.36 -1.92,-0.72 -0.96,-0.36 -1.92,-0.36 -2.88,0 -5.64,2.04 -2.64,2.04 -2.64,8.04 v 24.24 q 0,1.56 1.68,2.64 1.68,0.96 4.68,1.92 1.32,0.36 2.04,0.72 0.72,0.36 0.72,1.2 0,1.32 -2.4,1.32 -3.6,0 -5.52,-0.36 -1.8,-0.24 -4.92,-0.24 -2.04,0 -3.36,0.12 -1.2,0.12 -2.64,0.24 -1.32,0.24 -3.72,0.24 z m 39.48,0 q -1.08,0 -1.8,-0.36 -0.6,-0.24 -0.6,-0.96 0,-0.96 0.84,-1.32 0.96,-0.36 1.92,-0.6 2.52,-0.6 3.84,-1.44 1.32,-0.96 1.32,-3.12 v -26.04 q 0,-3.24 -1.2,-5.76 -1.08,-2.52 -4.2,-3 -0.6,-0.12 -0.96,-0.48 -0.24,-0.36 -0.24,-1.08 0,-1.32 1.08,-1.44 4.8,-1.08 7.92,-2.88 3.12,-1.92 4.68,-3.12 1.08,-0.84 1.68,-0.84 0.72,0 0.72,0.6 0,0.96 -0.36,3.84 -0.24,2.76 -0.48,6.24 -0.24,3.36 -0.24,6.12 v 27.84 q 0,2.04 1.32,3 1.44,0.96 3.84,1.56 0.96,0.24 1.8,0.6 0.96,0.36 0.96,1.32 0,1.32 -2.4,1.32 -2.28,0 -3.72,-0.24 -1.32,-0.12 -2.64,-0.24 -1.2,-0.12 -3.36,-0.12 -2.04,0 -3.36,0.12 -1.32,0.12 -2.64,0.24 -1.32,0.24 -3.72,0.24 z m 9.6,-62.28 q -2.52,0 -4.32,-1.68 -1.68,-1.8 -1.68,-4.32 0,-2.64 1.68,-4.32 1.8,-1.8 4.32,-1.8 2.64,0 4.32,1.8 1.8,1.68 1.8,4.32 0,2.52 -1.8,4.32 -1.68,1.68 -4.32,1.68 z m 28.5601,63.6 q -2.16,0 -4.44,-1.68 -2.16,-1.68 -3.72,-4.08 -1.44,-2.4 -1.44,-4.56 0,-3.84 2.04,-6 2.04,-2.16 6.48,-3.96 l 12.24,-5.04 q 2.4,-0.96 2.76,-1.68 0.48,-0.72 0.6,-3.12 l 0.24,-7.68 q 0.12,-3.12 -1.8,-5.4 -1.8,-2.28 -5.28,-2.28 -1.8,0 -3.6,0.6 -1.8,0.6 -3,1.56 -0.72,0.48 -0.96,1.44 -0.24,0.96 -0.24,2.04 0,0.48 0,1.08 0.12,0.6 0.12,1.08 0,0.6 -1.56,1.68 -1.44,0.96 -3.36,1.8 -1.8,0.72 -3,0.72 -0.6,0 -0.96,-0.24 -0.36,-0.36 -0.36,-0.84 0,-1.92 1.2,-4.08 1.32,-2.28 3.6,-4.2 2.76,-2.52 6,-4.44 3.24,-1.92 6.36,-3 3.12,-1.08 5.52,-1.08 4.32,0 7.08,3.12 2.88,3 2.76,7.56 l -0.6,28.8 q -0.12,2.52 1.08,4.08 1.32,1.56 3.24,1.56 3,0 4.44,-1.32 0.6,-0.6 0.96,-0.6 0.6,0 0.96,0.36 0.36,0.36 0.36,0.96 0,1.32 -1.32,2.64 -1.92,1.92 -4.2,3 -2.16,1.2 -4.08,1.2 -5.52,0 -8.76,-6.24 h -0.36 q -3.96,3.24 -7.56,4.68 -3.6,1.56 -7.44,1.56 z m 5.64,-5.76 q 2.4,0 4.08,-0.72 1.68,-0.84 3,-2.16 0.6,-0.6 0.96,-1.56 0.48,-1.08 0.6,-3.36 l 0.24,-5.88 q 0.12,-1.32 -0.12,-1.92 -0.24,-0.6 -0.96,-0.6 -0.24,0 -0.84,0.12 -0.6,0.12 -1.56,0.48 -6.36,2.28 -8.88,4.8 -2.4,2.4 -2.4,4.44 0,3.12 1.8,4.8 1.92,1.56 4.08,1.56 z m 45.48,5.76 q -3.72,0 -6.96,-1.2 -3.24,-1.08 -5.52,-3.12 -0.6,-1.32 -0.96,-4.44 -0.24,-3.12 -0.36,-5.16 0,-1.08 1.56,-1.08 0.48,0 0.84,0.24 0.48,0.12 0.6,0.6 1.56,5.88 4.92,8.4 3.48,2.52 6.96,2.52 3.48,0 5.88,-2.28 2.52,-2.4 2.52,-5.88 0,-3.24 -2.16,-5.52 -2.16,-2.4 -7.56,-5.76 -4.08,-2.52 -6.6,-4.8 -2.52,-2.28 -3.72,-4.68 -1.08,-2.4 -1.08,-5.4 0,-3.84 1.8,-6.96 1.8,-3.12 5.4,-4.92 3.6,-1.92 9,-1.92 3.6,0 6,0.72 2.4,0.72 3.6,1.56 0.96,1.32 1.56,4.2 0.72,2.76 0.72,5.28 0,0.84 -1.2,0.84 -0.72,0 -1.44,-0.24 -0.6,-0.36 -0.84,-0.84 -1.56,-3.96 -3.96,-6 -2.28,-2.16 -5.76,-2.16 -3,0 -5.4,1.8 -2.28,1.8 -2.28,5.28 0,2.76 1.68,4.92 1.8,2.16 6.6,4.92 6.96,3.96 10.32,7.44 3.48,3.36 3.48,9 0,6.48 -4.92,10.56 -4.92,4.08 -12.72,4.08 z m 44.16,0 q -5.88,0 -9.24,-3.6 -3.24,-3.6 -3.24,-10.68 v -27.84 q 0,-0.96 -0.72,-1.32 -0.72,-0.48 -3.12,-0.48 h -0.72 q -0.6,0 -1.08,-0.72 -0.36,-0.84 -0.36,-1.68 0,-0.24 0.36,-0.72 0.36,-0.48 0.48,-0.6 2.4,-1.68 4.32,-3.36 2.04,-1.68 3.6,-3.24 1.68,-1.68 2.76,-3 0.6,-0.6 0.96,-0.96 0.48,-0.48 1.08,-0.48 0.6,0 1.08,0.24 0.6,0.24 0.48,1.08 l -0.6,5.4 q -0.12,1.32 0.6,1.8 0.72,0.48 2.28,0.48 h 13.68 q 0.48,0 0.84,0.84 0.36,0.72 0.36,1.8 0,1.08 -0.36,2.16 -0.36,0.96 -0.84,0.96 h -11.88 q -3,0 -3.96,0.48 -0.84,0.48 -0.84,2.88 v 23.64 q 0,4.8 2.04,7.56 2.04,2.76 5.88,2.76 3.48,0 5.4,-0.48 1.92,-0.6 3.48,-1.68 0.24,-0.24 0.48,-0.24 0.48,0 0.6,0.6 0.24,0.48 0.24,1.08 0,0.6 -2.04,2.4 -1.92,1.8 -5.16,3.36 -3.12,1.56 -6.84,1.56 z m 20.8799,-1.32 q -1.2,0 -1.8,-0.36 -0.6,-0.24 -0.6,-0.96 0,-0.96 0.72,-1.2 0.72,-0.36 2.04,-0.72 2.28,-0.6 3.36,-1.68 1.2,-1.2 1.2,-2.88 v -25.8 q 0,-3.24 -0.96,-5.64 -0.96,-2.4 -3.96,-3 -0.48,-0.12 -0.84,-0.6 -0.36,-0.48 -0.36,-0.96 0,-1.2 1.08,-1.44 3.12,-0.96 6.48,-2.76 3.48,-1.92 5.4,-3.12 0.72,-0.48 1.08,-0.6 0.48,-0.24 0.72,-0.24 0.6,0 0.6,0.84 0,0.36 -0.12,1.8 0,1.44 -0.12,3.36 0,1.92 -0.12,3.84 0,0.24 0.24,0.24 1.92,-2.4 4.2,-4.2 2.4,-1.8 4.8,-2.88 2.52,-1.08 4.8,-1.08 2.52,0 4.08,1.08 1.68,1.08 1.68,2.76 0,1.2 -0.72,2.64 -0.6,1.44 -1.68,2.52 -1.08,1.08 -2.28,1.08 -0.72,0 -1.56,-0.24 -0.84,-0.36 -1.8,-0.84 -0.96,-0.36 -1.92,-0.72 -0.96,-0.36 -1.92,-0.36 -2.88,0 -5.64,2.04 -2.64,2.04 -2.64,8.04 v 24.24 q 0,1.56 1.68,2.64 1.68,0.96 4.68,1.92 1.32,0.36 2.04,0.72 0.72,0.36 0.72,1.2 0,1.32 -2.4,1.32 -3.6,0 -5.52,-0.36 -1.8,-0.24 -4.92,-0.24 -2.04,0 -3.36,0.12 -1.2,0.12 -2.64,0.24 -1.32,0.24 -3.72,0.24 z m 62.28,1.32 q -6.72,0 -12.12,-3.12 -5.4,-3.12 -8.64,-8.52 -3.12,-5.52 -3.12,-12.48 0,-5.04 1.92,-9.84 2.04,-4.8 5.64,-8.76 3.6,-3.96 8.4,-6.24 4.8,-2.4 10.32,-2.4 6.96,0 12.48,3.36 5.64,3.36 8.88,8.88 3.36,5.4 3.36,11.88 0,6.96 -3.12,13.2 -3,6.24 -9,10.2 -6,3.84 -15,3.84 z m 2.52,-3.6 q 4.08,0 7.32,-1.56 3.24,-1.56 5.04,-5.04 1.44,-2.76 1.92,-6.72 0.48,-3.96 0.48,-7.44 0,-5.76 -2.16,-11.04 -2.04,-5.4 -5.88,-8.76 -3.72,-3.48 -8.88,-3.48 -3.24,0 -5.88,1.08 -2.52,0.96 -4.68,3.72 -2.4,3 -3.12,7.32 -0.72,4.32 -0.72,8.64 0,5.88 2.16,11.28 2.16,5.28 5.88,8.64 3.72,3.36 8.52,3.36 z"
     id="text78-7"
     style="font-size:120px;line-height:1;font-family:'EB Garamond';-inkscape-font-specification:'EB Garamond';text-align:center;text-anchor:middle;stroke:#4477aa;stroke-width:1.333"
     aria-label="periastro" />
</svg>
