<?xml version="1.0" encoding="UTF-8" standalone="no"?>
<svg
   xmlns:dc="http://purl.org/dc/elements/1.1/"
   xmlns:cc="http://creativecommons.org/ns#"
   xmlns:rdf="http://www.w3.org/1999/02/22-rdf-syntax-ns#"
   xmlns:svg="http://www.w3.org/2000/svg"
   xmlns="http://www.w3.org/2000/svg"
   xmlns:sodipodi="http://sodipodi.sourceforge.net/DTD/sodipodi-0.dtd"
   xmlns:inkscape="http://www.inkscape.org/namespaces/inkscape"
   sodipodi:docname="maquina-termica.svg"
   inkscape:version="1.0.1 (c497b03c, 2020-09-10)"
   version="1.1"
   id="svg2"
   height="303.1763"
   width="770">
  <metadata
     id="metadata37">
    <rdf:RDF>
      <cc:Work
         rdf:about="">
        <dc:format>image/svg+xml</dc:format>
        <dc:type
           rdf:resource="http://purl.org/dc/dcmitype/StillImage" />
        <dc:title></dc:title>
      </cc:Work>
    </rdf:RDF>
  </metadata>
  <defs
     id="defs35" />
  <sodipodi:namedview
     inkscape:document-rotation="0"
     inkscape:current-layer="svg2"
     inkscape:window-maximized="0"
     inkscape:window-y="25"
     inkscape:window-x="0"
     inkscape:cy="178.97478"
     inkscape:cx="310.00912"
     inkscape:zoom="0.92142857"
     showgrid="false"
     id="namedview33"
     inkscape:window-height="766"
     inkscape:window-width="1440"
     inkscape:pageshadow="2"
     inkscape:pageopacity="0"
     guidetolerance="10"
     gridtolerance="10"
     objecttolerance="10"
     borderopacity="1"
     bordercolor="#666666"
     pagecolor="#ffffff"
     fit-margin-top="0"
     fit-margin-left="0"
     fit-margin-right="0"
     fit-margin-bottom="0" />
  <path
     id="furnace"
     style="fill:#ffffff;stroke:#000000;stroke-width:3"
     d="m 0,1.5 h 125 v 200 H 0" />
  <g
     id="arrow_in"
     transform="translate(-35,-33.5)">
    <path
       id="line_in"
       style="stroke:#000000;stroke-width:2"
       d="M 160,135 H 310" />
    <path
       id="arrowhead_in"
       style="fill:#000000;stroke:#000000;stroke-width:1px"
       d="m 300,140 v -10 l 16,5 z" />
  </g>
  <path
     id="Working_Body"
     style="fill:#ffffff;stroke:#000000;stroke-width:2.5"
     d="m 485,101.5 a 100,100 0 0 1 -100,100 100,100 0 0 1 -100,-100 100,100 0 0 1 100,-100 100,100 0 0 1 100,100 z" />
  <g
     id="arrow_out"
     transform="translate(-35,-33.5)">
    <path
       id="line_out"
       style="stroke:#000000;stroke-width:2"
       d="M 520,135 H 670" />
    <path
       id="arrowhead_out"
       style="fill:#000000;stroke:#000000;stroke-width:1px"
       d="m 660,140 v -10 l 16,5 z" />
  </g>
  <path
     id="cold_sink"
     style="fill:#ffffff;stroke:#000000;stroke-width:3"
     d="M 770,1.5 H 645 v 200 h 125" />
  <g
     id="arrow_down"
     transform="translate(-35,-33.5)">
    <path
       id="line_down"
       style="stroke:#000000;stroke-width:2"
       d="m 420,235 v 94" />
    <path
       id="arrowhead_down"
       style="fill:#000000;stroke:#000000;stroke-width:1px"
       d="m 415,319 h 10 l -5,16 z" />
  </g>
  <g
     aria-label="T1"
     id="text895"
     style="font-style:normal;font-weight:normal;font-size:40px;line-height:1.25;font-family:sans-serif;fill:#b50000;fill-opacity:1;stroke:none"
     transform="translate(-35,-33.5)">
    <path
       d="m 89.211161,142.95999 q -0.52,0 -0.84,-0.12 -0.32,-0.08 -0.32,-0.32 0,-0.28 0.32,-0.44 0.32,-0.16 1,-0.28 1.52,-0.28 2.32,-0.96 0.8,-0.72 0.8,-2.16 v -15.52 q 0,-1.84 -0.08,-2.8 -0.08,-1 -0.28,-1.4 -0.16,-0.4 -0.48,-0.44 -0.56,-0.12 -1.2,-0.12 -0.6,-0.04 -1.64,-0.04 h -1.88 q -0.96,0 -1.92,0.4 -0.92,0.36 -1.36,1.16 -0.12,0.2 -0.4,0.6 -0.28,0.36 -0.6,0.64 -0.32,0.28 -0.64,0.28 -0.16,0 -0.24,-0.16 -0.04,-0.16 -0.04,-0.36 0,-0.4 0.2,-0.8 0.56,-1.16 0.8,-2.04 0.28,-0.92 0.44,-2.16 0.08,-0.68 0.28,-0.8 0.24,-0.12 0.4,-0.12 0.16,0 0.48,0.48 0.36,0.48 0.52,0.8 0.24,0.4 1.08,0.6 0.88,0.2 1.72,0.2 h 14.079999 q 1.4,0 2.28,-0.16 0.88,-0.16 1.52,-0.44 0.48,-0.24 0.76,-0.52 0.32,-0.28 0.8,-0.28 0.12,0 0.2,0.32 0.08,0.28 0.08,0.6 0,0.2 -0.08,0.56 -0.04,0.36 -0.08,0.56 -0.12,0.72 -0.24,1.04 -0.08,0.32 -0.12,0.56 -0.04,0.24 -0.04,0.76 v 0.48 q 0,0.36 -0.16,0.84 -0.16,0.44 -0.48,0.44 -0.28,0 -0.44,-0.44 -0.16,-0.44 -0.32,-1.2 -0.16,-0.84 -0.96,-1.32 -0.8,-0.52 -2.72,-0.52 h -4.039999 q -0.88,0 -1.32,0.24 -0.44,0.24 -0.56,1.2 -0.12,0.96 -0.12,3.16 v 15.72 q 0,1.44 0.84,2.16 0.84,0.68 2.32,0.96 0.68,0.12 1,0.28 0.319999,0.16 0.319999,0.44 0,0.24 -0.319999,0.32 -0.32,0.12 -0.84,0.12 -1.08,0 -1.8,-0.08 -0.68,-0.04 -1.32,-0.08 -0.64,-0.04 -1.56,-0.04 -1,0 -1.76,0.04 -0.72,0.04 -1.52,0.08 -0.76,0.08 -1.84,0.08 z"
       style="font-style:normal;font-variant:normal;font-weight:normal;font-stretch:normal;font-family:'EB Garamond';-inkscape-font-specification:'EB Garamond';fill:#b50000;fill-opacity:1"
       id="path58" />
    <path
       d="m 110.23004,150.83799 q -0.182,0 -0.286,-0.104 -0.104,-0.104 -0.104,-0.208 0,-0.234 0.39,-0.338 0.988,-0.26 1.612,-0.468 0.65,-0.234 0.936,-0.624 0.312,-0.416 0.312,-1.17 v -9.932 q 0,-0.494 -0.312,-0.754 -0.312,-0.26 -0.806,-0.364 -0.494,-0.104 -1.066,-0.13 -0.26,-0.026 -0.468,-0.13 -0.208,-0.104 -0.208,-0.312 0,-0.182 0.182,-0.312 0.208,-0.13 0.468,-0.156 1.17,-0.182 2.08,-0.442 0.936,-0.286 1.82,-1.17 0.026,-0.026 0.052,-0.026 0.052,0 0.078,0 0.13,0 0.234,0.078 0.104,0.052 0.078,0.156 -0.052,0.39 -0.078,0.858 -0.026,0.442 -0.026,0.988 v 11.96 q 0,0.65 0.234,0.988 0.26,0.338 0.858,0.546 0.598,0.182 1.664,0.442 0.156,0.026 0.286,0.13 0.156,0.078 0.156,0.208 0,0.286 -0.364,0.286 -0.728,0 -1.352,-0.052 -0.598,-0.026 -1.196,-0.052 -0.572,-0.026 -1.274,-0.026 -0.702,0 -1.326,0.026 -0.624,0.026 -1.248,0.052 -0.624,0.052 -1.326,0.052 z"
       style="font-style:normal;font-variant:normal;font-weight:normal;font-stretch:normal;font-size:65%;font-family:'EB Garamond';-inkscape-font-specification:'EB Garamond';baseline-shift:sub;fill:#b50000;fill-opacity:1"
       id="path60" />
  </g>
  <g
     aria-label="T2"
     id="text895-8"
     style="font-style:normal;font-weight:normal;font-size:40px;line-height:1.25;font-family:sans-serif;fill:#2a54a9;fill-opacity:1;stroke:none"
     transform="translate(-35,-33.5)">
    <path
       d="m 728.39685,142.95999 q -0.52,0 -0.84,-0.12 -0.32,-0.08 -0.32,-0.32 0,-0.28 0.32,-0.44 0.32,-0.16 1,-0.28 1.52,-0.28 2.32,-0.96 0.8,-0.72 0.8,-2.16 v -15.52 q 0,-1.84 -0.08,-2.8 -0.08,-1 -0.28,-1.4 -0.16,-0.4 -0.48,-0.44 -0.56,-0.12 -1.2,-0.12 -0.6,-0.04 -1.64,-0.04 h -1.88 q -0.96,0 -1.92,0.4 -0.92,0.36 -1.36,1.16 -0.12,0.2 -0.4,0.6 -0.28,0.36 -0.6,0.64 -0.32,0.28 -0.64,0.28 -0.16,0 -0.24,-0.16 -0.04,-0.16 -0.04,-0.36 0,-0.4 0.2,-0.8 0.56,-1.16 0.8,-2.04 0.28,-0.92 0.44,-2.16 0.08,-0.68 0.28,-0.8 0.24,-0.12 0.4,-0.12 0.16,0 0.48,0.48 0.36,0.48 0.52,0.8 0.24,0.4 1.08,0.6 0.88,0.2 1.72,0.2 h 14.08 q 1.4,0 2.28,-0.16 0.88,-0.16 1.52,-0.44 0.48,-0.24 0.76,-0.52 0.32,-0.28 0.8,-0.28 0.12,0 0.2,0.32 0.08,0.28 0.08,0.6 0,0.2 -0.08,0.56 -0.04,0.36 -0.08,0.56 -0.12,0.72 -0.24,1.04 -0.08,0.32 -0.12,0.56 -0.04,0.24 -0.04,0.76 v 0.48 q 0,0.36 -0.16,0.84 -0.16,0.44 -0.48,0.44 -0.28,0 -0.44,-0.44 -0.16,-0.44 -0.32,-1.2 -0.16,-0.84 -0.96,-1.32 -0.8,-0.52 -2.72,-0.52 h -4.04 q -0.88,0 -1.32,0.24 -0.44,0.24 -0.56,1.2 -0.12,0.96 -0.12,3.16 v 15.72 q 0,1.44 0.84,2.16 0.84,0.68 2.32,0.96 0.68,0.12 1,0.28 0.32,0.16 0.32,0.44 0,0.24 -0.32,0.32 -0.32,0.12 -0.84,0.12 -1.08,0 -1.8,-0.08 -0.68,-0.04 -1.32,-0.08 -0.64,-0.04 -1.56,-0.04 -1,0 -1.76,0.04 -0.72,0.04 -1.52,0.08 -0.76,0.08 -1.84,0.08 z"
       style="font-style:normal;font-variant:normal;font-weight:normal;font-stretch:normal;font-family:'EB Garamond';-inkscape-font-specification:'EB Garamond';fill:#2a54a9;fill-opacity:1"
       id="path53" />
    <path
       d="m 757.52773,150.83799 q -0.182,0 -0.572,-0.026 -0.39,-0.026 -0.884,-0.052 -0.494,-0.026 -1.04,-0.052 -0.52,-0.026 -1.014,-0.026 -0.494,0 -1.404,0.026 -0.91,0.026 -1.924,0.052 -0.988,0 -1.742,0.026 -0.754,0.026 -0.962,0.026 -0.104,0 -0.312,-0.156 -0.208,-0.182 -0.208,-0.286 0,-0.13 0.052,-0.182 0.052,-0.052 0.156,-0.156 l 4.446,-4.602 q 1.3,-1.352 2.158,-3.016 0.858,-1.69 0.858,-3.406 0,-1.378 -0.832,-2.158 -0.832,-0.806 -1.95,-0.806 -1.066,0 -1.976,0.598 -0.91,0.572 -1.456,1.508 -0.078,0.156 -0.208,0.26 -0.104,0.104 -0.234,0.104 -0.104,0 -0.26,-0.208 -0.13,-0.234 -0.13,-0.572 0,-0.312 0.364,-0.858 0.39,-0.546 1.066,-1.118 0.676,-0.572 1.612,-0.962 0.936,-0.416 2.028,-0.416 1.3,0 2.236,0.546 0.936,0.546 1.43,1.508 0.494,0.962 0.494,2.236 0,0.702 -0.26,1.508 -0.234,0.806 -0.676,1.586 -0.416,0.78 -0.962,1.456 -0.338,0.416 -1.014,1.118 -0.65,0.676 -1.43,1.456 -0.754,0.78 -1.456,1.482 -0.676,0.676 -1.118,1.144 -0.442,0.442 -0.442,0.494 0,0.13 0.364,0.182 0.442,0.026 0.988,0.052 0.572,0.026 1.3,0.026 0.754,0 1.508,-0.026 0.754,-0.026 1.456,-0.052 0.754,-0.052 1.17,-0.13 0.416,-0.078 0.702,-0.312 0.286,-0.26 0.598,-0.78 0.104,-0.156 0.26,-0.364 0.182,-0.234 0.39,-0.234 0.13,0 0.156,0.104 0.026,0.104 0.026,0.208 0,0.13 -0.156,0.52 -0.13,0.364 -0.312,0.91 -0.182,0.546 -0.312,1.196 -0.078,0.416 -0.26,0.52 -0.182,0.104 -0.312,0.104 z"
       style="font-size:65%;baseline-shift:sub;fill:#2a54a9;fill-opacity:1"
       id="path55" />
  </g>
  <g
     aria-label="Q1"
     id="text924"
     style="font-style:normal;font-weight:normal;font-size:40px;line-height:1.25;font-family:sans-serif;fill:#000000;fill-opacity:1;stroke:none"
     transform="translate(-35,-33.5)">
    <path
       d="m 250.07007,126.48 q -2.88,0 -4.92,-0.84 -2,-0.8 -3.92,-2.16 -1.56,-1.12 -2.96,-2.16 -1.4,-1 -3.36,-2.6 -1.4,-1.16 -2.6,-1.68 -1.16,-0.48 -2,-0.88 -1.64,-0.76 -3.12,-1.84 -1.48,-1.08 -2.64,-2.56 -1.12,-1.48 -1.8,-3.4 -0.64,-1.96 -0.64,-4.4 0,-2.72 0.88,-5.200002 0.88,-2.52 2.6,-4.48 1.72,-1.96 4.28,-3.12 2.56,-1.16 5.88,-1.16 2.64,0 5.04,0.96 2.4,0.92 4.24,2.68 1.84,1.72 2.92,4.16 1.08,2.400002 1.08,5.360002 0,3.04 -1.12,5.8 -1.08,2.76 -3.24,4.8 -2.16,2.04 -5.36,2.88 -0.32,0.08 -0.32,0.28 0,0.2 0.16,0.36 1.16,1.24 2.36,2.28 1.24,1.08 2.72,2.16 2,1.44 3.72,1.96 1.76,0.56 4.08,0.56 0.72,0 1.32,-0.08 0.64,-0.08 0.92,-0.2 0.2,-0.08 0.4,-0.12 0.2,-0.04 0.36,-0.04 0.44,0 0.44,0.32 0,0.36 -0.16,0.56 -0.12,0.2 -0.56,0.48 -1.12,0.68 -2.36,1 -1.2,0.32 -2.32,0.32 z m -14.08,-10.96 q 4.6,0 6.88,-2.84 2.32,-2.84 2.32,-7.56 0,-2.76 -0.64,-5.200002 -0.64,-2.44 -1.92,-4.28 -1.24,-1.88 -3.12,-2.92 -1.88,-1.04 -4.4,-1.04 -4.52,0 -6.84,2.8 -2.32,2.8 -2.32,7.480002 0,2.8 0.6,5.24 0.64,2.44 1.88,4.32 1.28,1.88 3.16,2.96 1.88,1.04 4.4,1.04 z"
       style="font-style:normal;font-variant:normal;font-weight:normal;font-stretch:normal;font-family:'EB Garamond';-inkscape-font-specification:'EB Garamond'"
       id="path48" />
    <path
       d="m 253.63895,124.638 q -0.182,0 -0.286,-0.104 -0.104,-0.104 -0.104,-0.208 0,-0.234 0.39,-0.338 0.988,-0.26 1.612,-0.468 0.65,-0.234 0.936,-0.624 0.312,-0.416 0.312,-1.17 v -9.932 q 0,-0.494 -0.312,-0.754 -0.312,-0.26 -0.806,-0.364 -0.494,-0.104 -1.066,-0.13 -0.26,-0.026 -0.468,-0.13 -0.208,-0.104 -0.208,-0.312 0,-0.182 0.182,-0.312 0.208,-0.13 0.468,-0.156 1.17,-0.182 2.08,-0.442 0.936,-0.286 1.82,-1.17 0.026,-0.026 0.052,-0.026 0.052,0 0.078,0 0.13,0 0.234,0.078 0.104,0.052 0.078,0.156 -0.052,0.39 -0.078,0.858 -0.026,0.442 -0.026,0.988 v 11.96 q 0,0.65 0.234,0.988 0.26,0.338 0.858,0.546 0.598,0.182 1.664,0.442 0.156,0.026 0.286,0.13 0.156,0.078 0.156,0.208 0,0.286 -0.364,0.286 -0.728,0 -1.352,-0.052 -0.598,-0.026 -1.196,-0.052 -0.572,-0.026 -1.274,-0.026 -0.702,0 -1.326,0.026 -0.624,0.026 -1.248,0.052 -0.624,0.052 -1.326,0.052 z"
       style="font-style:normal;font-variant:normal;font-weight:normal;font-stretch:normal;font-size:65%;font-family:'EB Garamond';-inkscape-font-specification:'EB Garamond';baseline-shift:sub"
       id="path50" />
  </g>
  <g
     aria-label="Q2"
     id="text924-8"
     style="font-style:normal;font-weight:normal;font-size:40px;line-height:1.25;font-family:sans-serif;fill:#000000;fill-opacity:1;stroke:none"
     transform="translate(-35,-33.5)">
    <path
       d="m 595.11382,126.48 q -2.88,0 -4.92,-0.84 -2,-0.8 -3.92,-2.16 -1.56,-1.12 -2.96,-2.16 -1.4,-1 -3.36,-2.6 -1.4,-1.16 -2.6,-1.68 -1.16,-0.48 -2,-0.88 -1.64,-0.76 -3.12,-1.84 -1.48,-1.08 -2.64,-2.56 -1.12,-1.48 -1.8,-3.4 -0.64,-1.96 -0.64,-4.4 0,-2.72 0.88,-5.200002 0.88,-2.52 2.6,-4.48 1.72,-1.96 4.28,-3.12 2.56,-1.16 5.88,-1.16 2.64,0 5.04,0.96 2.4,0.92 4.24,2.68 1.84,1.72 2.92,4.16 1.08,2.400002 1.08,5.360002 0,3.04 -1.12,5.8 -1.08,2.76 -3.24,4.8 -2.16,2.04 -5.36,2.88 -0.32,0.08 -0.32,0.28 0,0.2 0.16,0.36 1.16,1.24 2.36,2.28 1.24,1.08 2.72,2.16 2,1.44 3.72,1.96 1.76,0.56 4.08,0.56 0.72,0 1.32,-0.08 0.64,-0.08 0.92,-0.2 0.2,-0.08 0.4,-0.12 0.2,-0.04 0.36,-0.04 0.44,0 0.44,0.32 0,0.36 -0.16,0.56 -0.12,0.2 -0.56,0.48 -1.12,0.68 -2.36,1 -1.2,0.32 -2.32,0.32 z m -14.08,-10.96 q 4.6,0 6.88,-2.84 2.32,-2.84 2.32,-7.56 0,-2.76 -0.64,-5.200002 -0.64,-2.44 -1.92,-4.28 -1.24,-1.88 -3.12,-2.92 -1.88,-1.04 -4.4,-1.04 -4.52,0 -6.84,2.8 -2.32,2.8 -2.32,7.480002 0,2.8 0.6,5.24 0.64,2.44 1.88,4.32 1.28,1.88 3.16,2.96 1.88,1.04 4.4,1.04 z"
       style="font-style:normal;font-variant:normal;font-weight:normal;font-stretch:normal;font-family:'EB Garamond';-inkscape-font-specification:'EB Garamond'"
       id="path43" />
    <path
       d="m 606.7947,124.638 q -0.182,0 -0.572,-0.026 -0.39,-0.026 -0.884,-0.052 -0.494,-0.026 -1.04,-0.052 -0.52,-0.026 -1.014,-0.026 -0.494,0 -1.404,0.026 -0.91,0.026 -1.924,0.052 -0.988,0 -1.742,0.026 -0.754,0.026 -0.962,0.026 -0.104,0 -0.312,-0.156 -0.208,-0.182 -0.208,-0.286 0,-0.13 0.052,-0.182 0.052,-0.052 0.156,-0.156 l 4.446,-4.602 q 1.3,-1.352 2.158,-3.016 0.858,-1.69 0.858,-3.406 0,-1.378 -0.832,-2.158 -0.832,-0.806 -1.95,-0.806 -1.066,0 -1.976,0.598 -0.91,0.572 -1.456,1.508 -0.078,0.156 -0.208,0.26 -0.104,0.104 -0.234,0.104 -0.104,0 -0.26,-0.208 -0.13,-0.234 -0.13,-0.572 0,-0.312 0.364,-0.858 0.39,-0.546 1.066,-1.118 0.676,-0.572 1.612,-0.962 0.936,-0.416 2.028,-0.416 1.3,0 2.236,0.546 0.936,0.546 1.43,1.508 0.494,0.962 0.494,2.236 0,0.702 -0.26,1.508 -0.234,0.806 -0.676,1.586 -0.416,0.78 -0.962,1.456 -0.338,0.416 -1.014,1.118 -0.65,0.676 -1.43,1.456 -0.754,0.78 -1.456,1.482 -0.676,0.676 -1.118,1.144 -0.442,0.442 -0.442,0.494 0,0.13 0.364,0.182 0.442,0.026 0.988,0.052 0.572,0.026 1.3,0.026 0.754,0 1.508,-0.026 0.754,-0.026 1.456,-0.052 0.754,-0.052 1.17,-0.13 0.416,-0.078 0.702,-0.312 0.286,-0.26 0.598,-0.78 0.104,-0.156 0.26,-0.364 0.182,-0.234 0.39,-0.234 0.13,0 0.156,0.104 0.026,0.104 0.026,0.208 0,0.13 -0.156,0.52 -0.13,0.364 -0.312,0.91 -0.182,0.546 -0.312,1.196 -0.078,0.416 -0.26,0.52 -0.182,0.104 -0.312,0.104 z"
       style="font-size:65%;baseline-shift:sub"
       id="path45" />
  </g>
  <g
     aria-label="W"
     id="text953"
     style="font-style:normal;font-weight:normal;font-size:40px;line-height:1.25;font-family:sans-serif;fill:#000000;fill-opacity:1;stroke:none"
     transform="translate(-35,-33.5)">
    <path
       d="m 446.19071,294.46947 q -0.08,0 -0.24,-0.36 -0.16,-0.36 -0.32,-0.76 l -8.64,-21.68 q -0.48,-1.04 -1.16,-1.68 -0.68,-0.68 -1.72,-0.96 -0.64,-0.2 -1,-0.4 -0.32,-0.2 -0.32,-0.48 0,-0.24 0.32,-0.32 0.32,-0.12 0.84,-0.12 0.92,0 1.72,0.08 0.84,0.04 1.84,0.04 1.12,0 2.12,-0.04 1,-0.04 1.6,-0.04 0.52,0 0.84,0.12 0.32,0.08 0.32,0.32 0,0.28 -0.32,0.44 -0.32,0.16 -1,0.36 -0.48,0.12 -0.64,0.52 -0.16,0.36 -0.16,0.8 0,0.64 0.16,1.2 0.16,0.52 0.16,0.52 0.92,2.32 1.68,4.24 0.76,1.92 1.48,3.72 0.76,1.76 1.56,3.64 0.84,1.84 1.84,4.12 0.2,0.44 0.32,0.4 0.16,-0.04 0.28,-0.36 l 3.12,-7.72 q 0.12,-0.32 0.16,-0.52 0.08,-0.24 0.08,-0.4 0,-0.24 -0.08,-0.48 -0.08,-0.28 -0.24,-0.68 l -2.28,-5.68 q -0.52,-1.28 -1.64,-2.12 -1.12,-0.88 -2.16,-1.16 -0.64,-0.2 -1,-0.4 -0.32,-0.2 -0.32,-0.48 0,-0.24 0.32,-0.32 0.32,-0.12 0.84,-0.12 0.64,0 1.2,0.04 0.6,0.04 1.2,0.08 0.64,0 1.36,0 0.92,0 1.68,-0.04 0.8,-0.04 1.4,-0.04 0.52,0 0.84,0.12 0.32,0.08 0.32,0.32 0,0.32 -0.4,0.52 -0.4,0.2 -0.84,0.44 -0.4,0.24 -0.4,0.72 0,0.08 0,0.16 0.04,0.08 0.08,0.16 0.08,0.16 0.28,0.8 0.24,0.6 0.52,1.36 0.32,0.76 0.6,1.44 0.28,0.64 0.4,0.92 0.2,0.48 0.32,0.52 0.16,0 0.4,-0.52 0.32,-0.72 0.64,-1.64 0.36,-0.92 0.6,-1.72 0.28,-0.84 0.36,-1.16 0.04,-0.12 0.04,-0.28 0,-0.48 -0.36,-0.72 -0.36,-0.24 -0.76,-0.44 -0.36,-0.24 -0.36,-0.56 0,-0.24 0.32,-0.32 0.32,-0.12 0.84,-0.12 0.88,0 1.2,0.04 0.32,0.04 0.88,0.04 0.68,0 1.16,-0.04 0.48,-0.08 1.2,-0.08 0.52,0 0.84,0.12 0.32,0.08 0.32,0.32 0,0.28 -0.32,0.48 -0.32,0.16 -1,0.32 -1.28,0.28 -1.76,0.68 -0.44,0.4 -0.96,1.24 -0.2,0.36 -0.6,1.2 -0.36,0.84 -0.8,1.84 -0.4,1 -0.72,1.88 -0.12,0.28 -0.24,0.8 -0.08,0.52 0,0.72 l 4.12,10.6 q 0.08,0.2 0.2,0.12 0.12,-0.08 0.24,-0.36 1,-2.64 2.24,-6.76 1.28,-4.12 2.64,-8.72 0.12,-0.36 0.16,-0.72 0.08,-0.4 0.08,-0.72 0,-0.6 -0.28,-1.08 -0.24,-0.48 -0.92,-0.64 -0.4,-0.12 -0.88,-0.32 -0.44,-0.2 -0.44,-0.48 0,-0.24 0.32,-0.32 0.32,-0.12 0.84,-0.12 0.8,0 1.44,0.04 0.68,0 1.44,0 1,0 1.92,-0.04 0.92,-0.08 1.68,-0.08 0.52,0 0.84,0.12 0.32,0.08 0.32,0.32 0,0.28 -0.32,0.48 -0.32,0.16 -1,0.32 -0.96,0.2 -1.64,0.84 -0.64,0.6 -1.04,1.36 -0.36,0.72 -0.6,1.32 l -7.08,20.92 q -0.04,0.16 -0.24,0.52 -0.2,0.4 -0.4,0.4 -0.16,0 -0.36,-0.24 -0.2,-0.24 -0.32,-0.52 -1.04,-2.4 -1.8,-4.28 -0.76,-1.92 -1.48,-3.84 -0.68,-1.92 -1.64,-4.24 -0.12,-0.28 -0.2,-0.2 -0.08,0.04 -0.24,0.44 -0.96,2.28 -1.68,4.04 -0.68,1.76 -1.36,3.6 -0.68,1.8 -1.52,4.16 -0.16,0.4 -0.4,0.8 -0.24,0.44 -0.48,0.44 z"
       style="font-style:normal;font-variant:normal;font-weight:normal;font-stretch:normal;font-family:'EB Garamond';-inkscape-font-specification:'EB Garamond'"
       id="path40" />
  </g>
</svg>
