<?xml version="1.0" encoding="UTF-8" standalone="no"?>
<svg
   width="290.57318mm"
   height="118.46954mm"
   viewBox="0 0 290.57318 118.46953"
   version="1.1"
   id="svg8"
   inkscape:version="1.2.1 (9c6d41e4, 2022-07-14)"
   sodipodi:docname="reactivo-limitante.svg"
   xmlns:inkscape="http://www.inkscape.org/namespaces/inkscape"
   xmlns:sodipodi="http://sodipodi.sourceforge.net/DTD/sodipodi-0.dtd"
   xmlns="http://www.w3.org/2000/svg"
   xmlns:svg="http://www.w3.org/2000/svg"
   xmlns:rdf="http://www.w3.org/1999/02/22-rdf-syntax-ns#"
   xmlns:cc="http://creativecommons.org/ns#"
   xmlns:dc="http://purl.org/dc/elements/1.1/">
  <defs
     id="defs2" />
  <sodipodi:namedview
     id="base"
     pagecolor="#ffffff"
     bordercolor="#666666"
     borderopacity="1.0"
     inkscape:pageopacity="0.0"
     inkscape:pageshadow="2"
     inkscape:zoom="1.2256407"
     inkscape:cx="533.59847"
     inkscape:cy="247.62559"
     inkscape:document-units="mm"
     inkscape:current-layer="layer1"
     inkscape:document-rotation="0"
     showgrid="false"
     inkscape:window-width="1920"
     inkscape:window-height="1027"
     inkscape:window-x="0"
     inkscape:window-y="59"
     inkscape:window-maximized="0"
     fit-margin-top="4"
     fit-margin-left="4"
     fit-margin-right="4"
     fit-margin-bottom="4"
     lock-margins="true"
     inkscape:showpageshadow="2"
     inkscape:pagecheckerboard="0"
     inkscape:deskcolor="#d1d1d1" />
  <metadata
     id="metadata5">
    <rdf:RDF>
      <cc:Work
         rdf:about="">
        <dc:format>image/svg+xml</dc:format>
        <dc:type
           rdf:resource="http://purl.org/dc/dcmitype/StillImage" />
      </cc:Work>
    </rdf:RDF>
  </metadata>
  <g
     inkscape:label="Livello 1"
     inkscape:groupmode="layer"
     id="layer1"
     transform="translate(-1.5855449,-58.249774)">
    <ellipse
       style="fill:#bbbbbb;fill-opacity:1;stroke:#000000;stroke-width:0.365001;stroke-opacity:1;stop-color:#000000"
       id="path10"
       cx="30.232252"
       cy="122.47823"
       rx="28.464207"
       ry="9.4880686" />
    <path
       style="fill:#f1dd38;fill-opacity:1;stroke:#000000;stroke-width:0.25103px;stroke-linecap:butt;stroke-linejoin:miter;stroke-opacity:1"
       d="m 12.358667,119.80601 c -0.329948,-1.85545 1.603618,-0.96237 4.009043,-4.33063 2.405425,-3.36827 0.80181,-5.05241 3.741775,-7.6989 2.939963,-2.64649 6.681737,-8.42066 8.018084,-8.901843 1.336347,-0.481179 8.018087,0 8.552624,0.962362 0.534541,0.962361 2.672698,2.646491 4.009044,5.533571 1.336348,2.88709 1.336348,6.97713 2.405425,8.18008 1.069078,1.20296 4.009043,4.57122 4.276312,6.01476 0.267271,1.44355 1.870887,3.12768 -0.534538,4.09004 -2.405425,0.96236 -9.621702,1.20295 -13.898015,1.92473 -4.276312,0.72177 -10.423511,-0.24059 -12.02713,-0.96237 -1.603615,-0.72177 -8.021232,-1.82355 -8.552624,-4.8118 z"
       id="path835"
       sodipodi:nodetypes="ssssssssssss" />
    <ellipse
       style="fill:#bbbbbb;fill-opacity:1;stroke:#000000;stroke-width:0.365001;stroke-opacity:1;stop-color:#000000"
       id="path10-3"
       cx="102.71503"
       cy="122.40321"
       rx="28.464207"
       ry="9.4880686" />
    <path
       style="fill:#a19d94;fill-opacity:1;stroke:#000000;stroke-width:0.207473px;stroke-linecap:butt;stroke-linejoin:miter;stroke-opacity:1"
       d="m 84.841259,121.64198 c -0.329949,-1.26741 1.603618,-0.65737 4.009043,-2.95815 2.405425,-2.3008 1.74675,-1.51052 4.686715,-3.31828 2.939963,-1.80775 6.303761,-5.86611 7.640103,-6.1948 1.33635,-0.32868 5.27776,-1.94065 7.98566,-1.16913 0.7424,0.21152 2.6727,1.80775 4.00905,3.77985 1.33635,1.97211 1.33635,4.76591 2.40542,5.58763 1.06908,0.8217 4.00905,3.12248 4.27632,4.10853 0.26726,0.98605 1.87088,2.13643 -0.53454,2.79381 -2.40543,0.65737 -9.6217,0.8217 -13.89802,1.31473 -4.27631,0.49302 -10.423508,-0.16434 -12.027127,-0.65736 -1.603615,-0.49303 -8.021232,-1.24563 -8.552624,-3.28683 z"
       id="path835-0"
       sodipodi:nodetypes="ssssssssssss" />
    <g
       aria-label="100 g"
       id="text875"
       style="font-weight:bold;font-size:8.46667px;line-height:1.25;font-family:'Liberation Sans';-inkscape-font-specification:'Liberation Sans Bold';text-align:center;letter-spacing:0px;word-spacing:0px;text-anchor:middle;stroke-width:0.264583">
      <path
         d="m 20.952792,140.2048 q -0.0508,0 -0.1016,-0.0339 -0.0508,-0.0339 -0.0508,-0.0847 0,-0.13546 0.160867,-0.1778 0.237067,-0.0593 0.4064,-0.11853 0.169333,-0.0593 0.262467,-0.16087 0.09313,-0.11006 0.09313,-0.28786 v -3.06494 q 0,-0.2032 -0.110067,-0.3048 -0.1016,-0.11006 -0.270933,-0.16086 -0.160867,-0.0508 -0.347134,-0.0762 -0.06773,-0.0169 -0.143933,-0.0593 -0.0762,-0.0423 -0.0762,-0.13547 0,-0.11006 0.0762,-0.1524 0.08467,-0.0508 0.186267,-0.0593 0.499533,-0.0423 0.897467,-0.16087 0.397933,-0.11853 0.7874,-0.34713 0.01693,-0.008 0.04233,-0.0169 0.0254,-0.008 0.0508,-0.008 0.05927,0 0.110066,0.0254 0.05927,0.0254 0.05927,0.0593 0,0.11007 -0.0254,0.254 -0.01693,0.13547 -0.01693,0.36407 v 3.85233 q 0,0.16087 0.1016,0.26247 0.1016,0.1016 0.287866,0.16933 0.186267,0.0593 0.431801,0.127 0.06773,0.0254 0.110066,0.0593 0.04233,0.0339 0.04233,0.11007 0,0.11853 -0.127,0.11853 -0.194734,0 -0.465667,-0.008 -0.262467,-0.008 -0.524934,-0.0169 -0.254,-0.008 -0.440267,-0.008 -0.1778,0 -0.4318,0.008 -0.254,0.008 -0.516467,0.0169 -0.262466,0.0169 -0.4572,0.0169 z"
         style="font-family:'EB Garamond';-inkscape-font-specification:'EB Garamond Bold'"
         id="path475" />
      <path
         d="m 26.650855,140.29793 q -0.508,0 -0.880533,-0.23707 -0.372534,-0.23706 -0.626534,-0.62653 -0.245533,-0.39793 -0.364067,-0.87207 -0.118533,-0.47413 -0.118533,-0.9398 0,-0.4826 0.118533,-0.97366 0.118534,-0.49107 0.372534,-0.89747 0.254,-0.41487 0.651933,-0.6604 0.397934,-0.254 0.939801,-0.254 0.508,0 0.880533,0.23707 0.381001,0.23706 0.618067,0.635 0.245534,0.38946 0.364067,0.8636 0.127,0.46566 0.127,0.92286 0,0.4826 -0.118533,0.97367 -0.118534,0.49107 -0.372534,0.90593 -0.245533,0.41487 -0.643467,0.66887 -0.389466,0.254 -0.948267,0.254 z m 0.127,-0.381 q 0.270934,0 0.431801,-0.31327 0.169333,-0.32173 0.245533,-0.8382 0.0762,-0.51646 0.0762,-1.1176 0,-0.44873 -0.05927,-0.88053 -0.05927,-0.4318 -0.1778,-0.77893 -0.118533,-0.3556 -0.287866,-0.5588 -0.169334,-0.21167 -0.397934,-0.21167 -0.270933,0 -0.4318,0.32173 -0.160867,0.31327 -0.237067,0.82974 -0.06773,0.508 -0.06773,1.10913 0,0.44873 0.0508,0.88053 0.05927,0.4318 0.169333,0.7874 0.118534,0.34714 0.287867,0.5588 0.169333,0.21167 0.397933,0.21167 z"
         style="font-family:'EB Garamond';-inkscape-font-specification:'EB Garamond Bold'"
         id="path477" />
      <path
         d="m 31.129718,140.29793 q -0.508,0 -0.880534,-0.23707 -0.372533,-0.23706 -0.626533,-0.62653 -0.245534,-0.39793 -0.364067,-0.87207 -0.118533,-0.47413 -0.118533,-0.9398 0,-0.4826 0.118533,-0.97366 0.118533,-0.49107 0.372534,-0.89747 0.254,-0.41487 0.651933,-0.6604 0.397934,-0.254 0.939801,-0.254 0.508,0 0.880533,0.23707 0.381,0.23706 0.618067,0.635 0.245534,0.38946 0.364067,0.8636 0.127,0.46566 0.127,0.92286 0,0.4826 -0.118533,0.97367 -0.118534,0.49107 -0.372534,0.90593 -0.245533,0.41487 -0.643467,0.66887 -0.389467,0.254 -0.948267,0.254 z m 0.127,-0.381 q 0.270934,0 0.4318,-0.31327 0.169334,-0.32173 0.245534,-0.8382 0.0762,-0.51646 0.0762,-1.1176 0,-0.44873 -0.05927,-0.88053 -0.05927,-0.4318 -0.1778,-0.77893 -0.118533,-0.3556 -0.287867,-0.5588 -0.169333,-0.21167 -0.397933,-0.21167 -0.270934,0 -0.4318,0.32173 -0.160867,0.31327 -0.237067,0.82974 -0.06773,0.508 -0.06773,1.10913 0,0.44873 0.0508,0.88053 0.05927,0.4318 0.169333,0.7874 0.118533,0.34714 0.287867,0.5588 0.169333,0.21167 0.397933,0.21167 z"
         style="font-family:'EB Garamond';-inkscape-font-specification:'EB Garamond Bold'"
         id="path479" />
      <path
         d="m 37.234177,142.62627 q -0.829733,0 -1.2954,-0.26247 -0.4572,-0.254 -0.4572,-0.70274 0,-0.254 0.05927,-0.41486 0.05927,-0.1524 0.270934,-0.3048 0.160866,-0.11854 0.313267,-0.23707 0.1524,-0.11853 0.262466,-0.19473 l 0.414867,0.14393 q -0.262467,0.1524 -0.414867,0.3302 -0.143933,0.1778 -0.143933,0.41487 0,0.34713 0.287867,0.57573 0.296333,0.2286 0.7366,0.2286 0.5842,0 0.829734,-0.2286 0.1524,-0.1524 0.245533,-0.34713 0.09313,-0.18627 0.09313,-0.381 0,-0.13547 -0.09313,-0.22014 -0.09313,-0.0847 -0.338667,-0.14393 -0.237066,-0.0593 -0.668867,-0.1016 -0.880533,-0.0847 -1.253067,-0.3302 -0.372533,-0.24553 -0.372533,-0.65193 0,-0.0762 0.04233,-0.1524 0.0508,-0.0847 0.186267,-0.1778 0.135467,-0.1016 0.245533,-0.1778 0.110067,-0.0847 0.186267,-0.1524 0.0762,-0.0762 0.1016,-0.13547 l 0.423334,0.14393 q -0.169334,0.0593 -0.279401,0.16087 -0.1016,0.1016 -0.1016,0.1778 0,0.0931 0.110067,0.1524 0.110067,0.0593 0.372534,0.1016 0.262466,0.0339 0.719667,0.0677 0.9144,0.0762 1.329267,0.28787 0.414867,0.2032 0.414867,0.60113 0,0.34714 -0.194734,0.6858 -0.194733,0.34714 -0.516467,0.62654 -0.321733,0.28787 -0.719667,0.44873 -0.389467,0.16934 -0.795867,0.16934 z m 0.110067,-3.63221 q 0.270933,0 0.423334,-0.29633 0.160866,-0.3048 0.160866,-0.79587 0,-0.31326 -0.08467,-0.54186 -0.0762,-0.23707 -0.211667,-0.36407 -0.135467,-0.13547 -0.321734,-0.13547 -0.160866,0 -0.296333,0.13547 -0.135467,0.13547 -0.220134,0.36407 -0.0762,0.22013 -0.0762,0.51646 0,0.31327 0.08467,0.56727 0.08467,0.254 0.2286,0.4064 0.143934,0.14393 0.313268,0.14393 z m -0.09313,0.37254 q -0.372534,0 -0.736601,-0.1778 -0.3556,-0.18627 -0.592667,-0.508 -0.2286,-0.32174 -0.2286,-0.71967 0,-0.42333 0.237067,-0.75353 0.245534,-0.3302 0.635,-0.508 0.397934,-0.18627 0.838201,-0.18627 0.262466,0 0.491067,0.0593 0.237066,0.0593 0.516466,0.1016 0.160867,0.0339 0.321734,0.0508 0.160867,0.0169 0.3556,0.0169 0.127,0 0.254,-0.008 0.127,-0.0169 0.211667,-0.0169 0.135467,0 0.135467,0.18627 0,0.16086 -0.110067,0.3048 -0.0508,0.0593 -0.110067,0.0593 h -0.2286 q -0.220133,0 -0.296333,0.0677 -0.01693,0.0169 -0.0254,0.0423 -0.0085,0.0169 -0.01693,0.0931 0,0.0677 0,0.26247 0,0.44027 -0.2286,0.8128 -0.2286,0.37253 -0.601133,0.60113 -0.372534,0.22014 -0.821267,0.22014 z"
         style="font-family:'EB Garamond';-inkscape-font-specification:'EB Garamond Bold'"
         id="path481" />
    </g>
    <g
       aria-label="100 g"
       id="text875-9"
       style="font-weight:bold;font-size:8.46667px;line-height:1.25;font-family:'Liberation Sans';-inkscape-font-specification:'Liberation Sans Bold';text-align:center;letter-spacing:0px;word-spacing:0px;text-anchor:middle;stroke-width:0.264583">
      <path
         d="m 93.435567,140.2048 q -0.0508,0 -0.1016,-0.0339 -0.0508,-0.0339 -0.0508,-0.0847 0,-0.13546 0.160867,-0.1778 0.237066,-0.0593 0.4064,-0.11853 0.169333,-0.0593 0.262466,-0.16087 0.09313,-0.11006 0.09313,-0.28786 v -3.06494 q 0,-0.2032 -0.110067,-0.3048 -0.1016,-0.11006 -0.270933,-0.16086 -0.160867,-0.0508 -0.347134,-0.0762 -0.06773,-0.0169 -0.143933,-0.0593 -0.0762,-0.0423 -0.0762,-0.13547 0,-0.11006 0.0762,-0.1524 0.08467,-0.0508 0.186267,-0.0593 0.499533,-0.0423 0.897467,-0.16087 0.397933,-0.11853 0.7874,-0.34713 0.01693,-0.008 0.04233,-0.0169 0.0254,-0.008 0.0508,-0.008 0.05927,0 0.110067,0.0254 0.05927,0.0254 0.05927,0.0593 0,0.11007 -0.0254,0.254 -0.01693,0.13547 -0.01693,0.36407 v 3.85233 q 0,0.16087 0.1016,0.26247 0.1016,0.1016 0.287867,0.16933 0.186267,0.0593 0.4318,0.127 0.06773,0.0254 0.110067,0.0593 0.04233,0.0339 0.04233,0.11007 0,0.11853 -0.127,0.11853 -0.194733,0 -0.465667,-0.008 -0.262466,-0.008 -0.524933,-0.0169 -0.254,-0.008 -0.440267,-0.008 -0.1778,0 -0.4318,0.008 -0.254,0.008 -0.516467,0.0169 -0.262467,0.0169 -0.4572,0.0169 z"
         style="font-family:'EB Garamond';-inkscape-font-specification:'EB Garamond Bold'"
         id="path492" />
      <path
         d="m 99.13363,140.29793 q -0.508,0 -0.880534,-0.23707 -0.372533,-0.23706 -0.626533,-0.62653 -0.245534,-0.39793 -0.364067,-0.87207 -0.118533,-0.47413 -0.118533,-0.9398 0,-0.4826 0.118533,-0.97366 0.118533,-0.49107 0.372534,-0.89747 0.254,-0.41487 0.651933,-0.6604 0.397934,-0.254 0.9398,-0.254 0.508001,0 0.880537,0.23707 0.381,0.23706 0.61806,0.635 0.24554,0.38946 0.36407,0.8636 0.127,0.46566 0.127,0.92286 0,0.4826 -0.11853,0.97367 -0.11854,0.49107 -0.37254,0.90593 -0.24553,0.41487 -0.64346,0.66887 -0.38947,0.254 -0.94827,0.254 z m 0.127,-0.381 q 0.270934,0 0.4318,-0.31327 0.169334,-0.32173 0.245534,-0.8382 0.0762,-0.51646 0.0762,-1.1176 0,-0.44873 -0.05926,-0.88053 -0.05927,-0.4318 -0.1778,-0.77893 -0.118533,-0.3556 -0.287867,-0.5588 -0.169333,-0.21167 -0.397933,-0.21167 -0.270934,0 -0.4318,0.32173 -0.160867,0.31327 -0.237067,0.82974 -0.06773,0.508 -0.06773,1.10913 0,0.44873 0.0508,0.88053 0.05927,0.4318 0.169334,0.7874 0.118533,0.34714 0.287867,0.5588 0.169333,0.21167 0.397933,0.21167 z"
         style="font-family:'EB Garamond';-inkscape-font-specification:'EB Garamond Bold'"
         id="path494" />
      <path
         d="m 103.61249,140.29793 q -0.508,0 -0.88053,-0.23707 -0.37253,-0.23706 -0.62653,-0.62653 -0.24554,-0.39793 -0.36407,-0.87207 -0.11853,-0.47413 -0.11853,-0.9398 0,-0.4826 0.11853,-0.97366 0.11853,-0.49107 0.37253,-0.89747 0.254,-0.41487 0.65194,-0.6604 0.39793,-0.254 0.9398,-0.254 0.508,0 0.88053,0.23707 0.381,0.23706 0.61807,0.635 0.24553,0.38946 0.36406,0.8636 0.127,0.46566 0.127,0.92286 0,0.4826 -0.11853,0.97367 -0.11853,0.49107 -0.37253,0.90593 -0.24554,0.41487 -0.64347,0.66887 -0.38947,0.254 -0.94827,0.254 z m 0.127,-0.381 q 0.27094,0 0.4318,-0.31327 0.16934,-0.32173 0.24554,-0.8382 0.0762,-0.51646 0.0762,-1.1176 0,-0.44873 -0.0593,-0.88053 -0.0593,-0.4318 -0.1778,-0.77893 -0.11853,-0.3556 -0.28787,-0.5588 -0.16933,-0.21167 -0.39793,-0.21167 -0.27093,0 -0.4318,0.32173 -0.16087,0.31327 -0.23707,0.82974 -0.0677,0.508 -0.0677,1.10913 0,0.44873 0.0508,0.88053 0.0593,0.4318 0.16933,0.7874 0.11854,0.34714 0.28787,0.5588 0.16933,0.21167 0.39793,0.21167 z"
         style="font-family:'EB Garamond';-inkscape-font-specification:'EB Garamond Bold'"
         id="path496" />
      <path
         d="m 109.71695,142.62627 q -0.82973,0 -1.2954,-0.26247 -0.4572,-0.254 -0.4572,-0.70274 0,-0.254 0.0593,-0.41486 0.0593,-0.1524 0.27093,-0.3048 0.16087,-0.11854 0.31327,-0.23707 0.1524,-0.11853 0.26247,-0.19473 l 0.41486,0.14393 q -0.26246,0.1524 -0.41486,0.3302 -0.14394,0.1778 -0.14394,0.41487 0,0.34713 0.28787,0.57573 0.29633,0.2286 0.7366,0.2286 0.5842,0 0.82973,-0.2286 0.1524,-0.1524 0.24554,-0.34713 0.0931,-0.18627 0.0931,-0.381 0,-0.13547 -0.0931,-0.22014 -0.0931,-0.0847 -0.33867,-0.14393 -0.23707,-0.0593 -0.66887,-0.1016 -0.88053,-0.0847 -1.25307,-0.3302 -0.37253,-0.24553 -0.37253,-0.65193 0,-0.0762 0.0423,-0.1524 0.0508,-0.0847 0.18627,-0.1778 0.13547,-0.1016 0.24553,-0.1778 0.11007,-0.0847 0.18627,-0.1524 0.0762,-0.0762 0.1016,-0.13547 l 0.42334,0.14393 q -0.16934,0.0593 -0.2794,0.16087 -0.1016,0.1016 -0.1016,0.1778 0,0.0931 0.11006,0.1524 0.11007,0.0593 0.37254,0.1016 0.26246,0.0339 0.71966,0.0677 0.9144,0.0762 1.32927,0.28787 0.41487,0.2032 0.41487,0.60113 0,0.34714 -0.19474,0.6858 -0.19473,0.34714 -0.51646,0.62654 -0.32174,0.28787 -0.71967,0.44873 -0.38947,0.16934 -0.79587,0.16934 z m 0.11007,-3.63221 q 0.27093,0 0.42333,-0.29633 0.16087,-0.3048 0.16087,-0.79587 0,-0.31326 -0.0847,-0.54186 -0.0762,-0.23707 -0.21166,-0.36407 -0.13547,-0.13547 -0.32174,-0.13547 -0.16086,0 -0.29633,0.13547 -0.13547,0.13547 -0.22013,0.36407 -0.0762,0.22013 -0.0762,0.51646 0,0.31327 0.0847,0.56727 0.0847,0.254 0.2286,0.4064 0.14394,0.14393 0.31327,0.14393 z m -0.0931,0.37254 q -0.37254,0 -0.7366,-0.1778 -0.35561,-0.18627 -0.59267,-0.508 -0.2286,-0.32174 -0.2286,-0.71967 0,-0.42333 0.23706,-0.75353 0.24554,-0.3302 0.63501,-0.508 0.39793,-0.18627 0.8382,-0.18627 0.26246,0 0.49106,0.0593 0.23707,0.0593 0.51647,0.1016 0.16087,0.0339 0.32173,0.0508 0.16087,0.0169 0.3556,0.0169 0.127,0 0.254,-0.008 0.127,-0.0169 0.21167,-0.0169 0.13547,0 0.13547,0.18627 0,0.16086 -0.11007,0.3048 -0.0508,0.0593 -0.11007,0.0593 h -0.2286 q -0.22013,0 -0.29633,0.0677 -0.0169,0.0169 -0.0254,0.0423 -0.008,0.0169 -0.0169,0.0931 0,0.0677 0,0.26247 0,0.44027 -0.2286,0.8128 -0.2286,0.37253 -0.60114,0.60113 -0.37253,0.22014 -0.82126,0.22014 z"
         style="font-family:'EB Garamond';-inkscape-font-specification:'EB Garamond Bold'"
         id="path498" />
    </g>
    <g
       aria-label="157 g"
       id="text875-9-9"
       style="font-weight:bold;font-size:8.46667px;line-height:1.25;font-family:'Liberation Sans';-inkscape-font-specification:'Liberation Sans Bold';text-align:center;letter-spacing:0px;word-spacing:0px;text-anchor:middle;stroke-width:0.264583">
      <path
         d="m 182.31879,174.27244 q -0.0508,0 -0.1016,-0.0339 -0.0508,-0.0339 -0.0508,-0.0847 0,-0.13547 0.16087,-0.1778 0.23706,-0.0593 0.4064,-0.11854 0.16933,-0.0593 0.26246,-0.16086 0.0931,-0.11007 0.0931,-0.28787 v -3.06494 q 0,-0.2032 -0.11007,-0.3048 -0.1016,-0.11006 -0.27093,-0.16086 -0.16087,-0.0508 -0.34714,-0.0762 -0.0677,-0.0169 -0.14393,-0.0593 -0.0762,-0.0423 -0.0762,-0.13547 0,-0.11006 0.0762,-0.1524 0.0847,-0.0508 0.18627,-0.0593 0.49953,-0.0423 0.89747,-0.16087 0.39793,-0.11853 0.7874,-0.34713 0.0169,-0.008 0.0423,-0.0169 0.0254,-0.008 0.0508,-0.008 0.0593,0 0.11007,0.0254 0.0593,0.0254 0.0593,0.0593 0,0.11007 -0.0254,0.254 -0.0169,0.13547 -0.0169,0.36407 v 3.85234 q 0,0.16086 0.1016,0.26246 0.1016,0.1016 0.28787,0.16934 0.18626,0.0593 0.4318,0.127 0.0677,0.0254 0.11006,0.0593 0.0423,0.0339 0.0423,0.11007 0,0.11853 -0.127,0.11853 -0.19474,0 -0.46567,-0.008 -0.26247,-0.008 -0.52493,-0.0169 -0.254,-0.008 -0.44027,-0.008 -0.1778,0 -0.4318,0.008 -0.254,0.008 -0.51647,0.0169 -0.26247,0.0169 -0.4572,0.0169 z"
         style="font-family:'EB Garamond';-inkscape-font-specification:'EB Garamond Bold'"
         id="path527" />
      <path
         d="m 186.93312,174.56877 q -0.11853,0 -0.26247,-0.0254 -0.14393,-0.0169 -0.14393,-0.1016 0,-0.1016 0.11007,-0.13546 0.11006,-0.0339 0.23706,-0.0508 0.51647,-0.0508 0.90594,-0.254 0.38946,-0.21167 0.60113,-0.49954 0.22013,-0.29633 0.22013,-0.59266 0,-0.32174 -0.16086,-0.5588 -0.16087,-0.23707 -0.51647,-0.42334 -0.34713,-0.19473 -0.92287,-0.36406 -0.26246,-0.0931 -0.36406,-0.18627 -0.0931,-0.0931 -0.0931,-0.254 0,-0.11853 0.0508,-0.3302 0.0508,-0.22014 0.11007,-0.4572 0.0677,-0.23707 0.127,-0.4318 0.0677,-0.2032 0.0762,-0.27094 0.0508,-0.2032 0.16087,-0.28786 0.11853,-0.0931 0.254,-0.127 0.16086,-0.0423 0.4318,-0.0847 0.2794,-0.0508 0.5842,-0.0931 0.3048,-0.0508 0.55033,-0.0847 0.24554,-0.0339 0.33867,-0.0339 0.0677,-0.008 0.1016,0.0508 0.0339,0.0593 0.0254,0.127 -0.0169,0.11854 -0.0847,0.27094 -0.0677,0.14393 -0.11853,0.27093 -0.0593,0.16933 -0.2032,0.2794 -0.14394,0.1016 -0.3302,0.11853 -0.13547,0.0169 -0.34714,0.0254 -0.21166,0 -0.42333,0.0169 -0.21167,0.008 -0.381,0.0169 -0.16933,0 -0.24553,0.0169 -0.0593,0.008 -0.1016,0.0762 -0.0423,0.0593 -0.0677,0.13547 -0.0254,0.0677 -0.0254,0.11007 0,0.0423 0.0254,0.0762 0.0254,0.0254 0.0677,0.0339 0.47413,0.0847 0.82973,0.22014 0.36407,0.127 0.66887,0.2794 0.54187,0.254 0.77893,0.65193 0.23707,0.38947 0.23707,0.85514 0,0.46566 -0.28787,0.90593 -0.28786,0.4318 -0.762,0.69427 -0.16933,0.0931 -0.44027,0.18626 -0.26246,0.1016 -0.57573,0.16087 -0.31327,0.0677 -0.635,0.0677 z"
         style="font-family:'EB Garamond';-inkscape-font-specification:'EB Garamond Bold'"
         id="path529" />
      <path
         d="m 191.70832,174.50104 q -0.1016,0 -0.1778,-0.0847 -0.0677,-0.0762 -0.0677,-0.18626 0,-0.0593 0.0847,-0.18627 0.0847,-0.13547 0.14393,-0.24553 l 2.04047,-3.64914 q 0.0339,-0.0677 0,-0.0931 -0.0254,-0.0254 -0.0931,-0.0254 h -1.89654 q -0.21166,0 -0.33866,0.0762 -0.127,0.0677 -0.254,0.24553 -0.0339,0.0423 -0.1016,0.1524 -0.0593,0.1016 -0.14394,0.19474 -0.0847,0.0847 -0.16933,0.0847 -0.0508,0 -0.0931,-0.0423 -0.0423,-0.0423 -0.0423,-0.1016 0,-0.0593 0.0423,-0.2032 0.0423,-0.14394 0.0508,-0.19474 0.0508,-0.2794 0.127,-0.60113 0.0762,-0.32173 0.0762,-0.5588 0,-0.0931 0.0677,-0.11853 0.0677,-0.0339 0.11007,-0.0254 0.1016,0.008 0.32173,0.0423 0.2286,0.0339 0.49953,0.0508 0.2032,0 0.47414,0.008 0.27093,0 0.52493,0.008 0.26247,0 0.4318,0 0.31327,0 0.56727,0 0.254,-0.008 0.44873,-0.0169 0.2032,-0.008 0.3302,-0.0169 0.0339,0 0.0593,0.0593 0.0254,0.0593 0.0254,0.11854 0,0.0423 -0.0508,0.127 -0.0423,0.0762 -0.11007,0.18626 -0.0677,0.11007 -0.1524,0.24554 l -2.54,4.47887 q -0.0423,0.0762 -0.11007,0.16933 -0.0593,0.1016 -0.0847,0.1016 z"
         style="font-family:'EB Garamond';-inkscape-font-specification:'EB Garamond Bold'"
         id="path531" />
      <path
         d="m 198.60018,176.69391 q -0.82974,0 -1.2954,-0.26247 -0.4572,-0.254 -0.4572,-0.70273 0,-0.254 0.0593,-0.41487 0.0593,-0.1524 0.27094,-0.3048 0.16086,-0.11853 0.31326,-0.23707 0.1524,-0.11853 0.26247,-0.19473 l 0.41487,0.14393 q -0.26247,0.1524 -0.41487,0.3302 -0.14393,0.1778 -0.14393,0.41487 0,0.34713 0.28786,0.57573 0.29634,0.2286 0.7366,0.2286 0.5842,0 0.82974,-0.2286 0.1524,-0.1524 0.24553,-0.34713 0.0931,-0.18627 0.0931,-0.381 0,-0.13547 -0.0931,-0.22013 -0.0931,-0.0847 -0.33867,-0.14394 -0.23706,-0.0593 -0.66886,-0.1016 -0.88054,-0.0847 -1.25307,-0.3302 -0.37253,-0.24553 -0.37253,-0.65193 0,-0.0762 0.0423,-0.1524 0.0508,-0.0847 0.18627,-0.1778 0.13546,-0.1016 0.24553,-0.1778 0.11007,-0.0847 0.18627,-0.1524 0.0762,-0.0762 0.1016,-0.13547 l 0.42333,0.14394 q -0.16933,0.0593 -0.2794,0.16086 -0.1016,0.1016 -0.1016,0.1778 0,0.0931 0.11007,0.1524 0.11006,0.0593 0.37253,0.1016 0.26247,0.0339 0.71967,0.0677 0.9144,0.0762 1.32926,0.28786 0.41487,0.2032 0.41487,0.60114 0,0.34713 -0.19473,0.6858 -0.19474,0.34713 -0.51647,0.62653 -0.32173,0.28787 -0.71967,0.44873 -0.38946,0.16934 -0.79586,0.16934 z m 0.11006,-3.6322 q 0.27094,0 0.42334,-0.29634 0.16086,-0.3048 0.16086,-0.79586 0,-0.31327 -0.0847,-0.54187 -0.0762,-0.23707 -0.21167,-0.36407 -0.13547,-0.13546 -0.32173,-0.13546 -0.16087,0 -0.29634,0.13546 -0.13546,0.13547 -0.22013,0.36407 -0.0762,0.22013 -0.0762,0.51647 0,0.31326 0.0847,0.56726 0.0847,0.254 0.2286,0.4064 0.14393,0.14394 0.31326,0.14394 z m -0.0931,0.37253 q -0.37253,0 -0.7366,-0.1778 -0.3556,-0.18627 -0.59267,-0.508 -0.2286,-0.32173 -0.2286,-0.71967 0,-0.42333 0.23707,-0.75353 0.24553,-0.3302 0.635,-0.508 0.39793,-0.18627 0.8382,-0.18627 0.26247,0 0.49107,0.0593 0.23706,0.0593 0.51646,0.1016 0.16087,0.0339 0.32174,0.0508 0.16086,0.0169 0.3556,0.0169 0.127,0 0.254,-0.008 0.127,-0.0169 0.21166,-0.0169 0.13547,0 0.13547,0.18627 0,0.16087 -0.11007,0.3048 -0.0508,0.0593 -0.11006,0.0593 h -0.2286 q -0.22014,0 -0.29634,0.0677 -0.0169,0.0169 -0.0254,0.0423 -0.008,0.0169 -0.0169,0.0931 0,0.0677 0,0.26246 0,0.44027 -0.2286,0.8128 -0.2286,0.37254 -0.60113,0.60114 -0.37254,0.22013 -0.82127,0.22013 z"
         style="font-family:'EB Garamond';-inkscape-font-specification:'EB Garamond Bold'"
         id="path533" />
    </g>
    <g
       aria-label="43 g"
       id="text875-9-9-9"
       style="font-weight:bold;font-size:8.46667px;line-height:1.25;font-family:'Liberation Sans';-inkscape-font-specification:'Liberation Sans Bold';text-align:center;letter-spacing:0px;word-spacing:0px;text-anchor:middle;stroke-width:0.264583">
      <path
         d="m 257.61922,174.29785 q -0.0508,0 -0.11853,-0.0339 -0.0677,-0.0339 -0.0677,-0.0931 0,-0.0847 0.0593,-0.11854 0.0593,-0.0339 0.13547,-0.0508 0.33866,-0.0593 0.4572,-0.16086 0.11853,-0.11007 0.11853,-0.36407 v -0.4826 q 0,-0.0423 -0.0508,-0.0593 -0.0508,-0.0254 -0.0931,-0.0254 -0.26247,0 -0.60114,0.0169 -0.33866,0.0169 -0.69427,0.0339 -0.34713,0.0169 -0.6604,0.0169 -0.0423,0 -0.0847,-0.0169 -0.0423,-0.0169 -0.0423,-0.0508 0,-0.0339 0.0423,-0.0931 0.0593,-0.0762 0.0931,-0.11853 0.0423,-0.0508 0.0762,-0.1016 0.0423,-0.0593 0.0847,-0.11854 l 2.09127,-3.34433 q 0.0677,-0.11007 0.16933,-0.2032 0.11007,-0.0931 0.2032,-0.0931 h 0.0762 q 0.0677,0 0.0762,0.0677 0.0169,0.0593 -0.0169,0.11006 l -1.98967,3.15807 q -0.0339,0.0677 -0.008,0.0931 0.0254,0.0254 0.0762,0.0254 h 1.18534 q 0.0254,0 0.0423,-0.0169 0.0254,-0.0169 0.0254,-0.0423 v -1.016 q 0,-0.1524 0.0169,-0.2032 0.0254,-0.0593 0.11854,-0.0931 0.2286,-0.11006 0.49106,-0.14393 0.26247,-0.0339 0.36407,-0.0339 0.16933,0 0.19473,0.16934 0.0339,0.16086 0.0339,0.4826 v 0.889 q 0,0.0593 0.0423,0.0593 0.11007,0.008 0.16087,0.008 0.0593,0 0.14393,0 0.127,0 0.2286,0 0.1016,-0.008 0.254,-0.0169 0.1016,0 0.1016,0.0593 0,0.0677 -0.0339,0.19474 -0.0339,0.127 -0.0847,0.23707 -0.0423,0.1016 -0.0762,0.1016 -0.1016,0 -0.19473,0 -0.0931,-0.008 -0.2032,-0.008 -0.0847,0 -0.127,0.008 -0.0339,0 -0.0931,0.008 -0.0339,0.008 -0.0762,0.0254 -0.0423,0.0169 -0.0423,0.0254 v 0.4826 q 0,0.23707 0.11007,0.33867 0.11006,0.1016 0.44026,0.19473 0.0762,0.0254 0.13547,0.0593 0.0677,0.0339 0.0677,0.11007 0,0.0508 -0.0593,0.0847 -0.0508,0.0339 -0.11854,0.0339 -0.18626,0 -0.4064,-0.008 -0.21166,-0.008 -0.41486,-0.0169 -0.2032,-0.008 -0.381,-0.008 -0.1778,0 -0.381,0.008 -0.19474,0.008 -0.39794,0.0169 -0.2032,0.0169 -0.39793,0.0169 z"
         style="font-family:'EB Garamond';-inkscape-font-specification:'EB Garamond Bold'"
         id="path542" />
      <path
         d="m 261.73401,174.59418 q -0.18626,0 -0.38946,-0.0593 -0.19474,-0.0508 -0.3302,-0.1524 -0.13547,-0.0931 -0.13547,-0.2032 0,-0.1016 0.0339,-0.22013 0.0423,-0.127 0.11006,-0.21167 0.0677,-0.0847 0.1524,-0.0847 0.0762,0 0.127,0.0339 0.0508,0.0339 0.11007,0.1016 0.11853,0.127 0.2794,0.2794 0.16087,0.1524 0.36407,0.1524 0.27093,0 0.49106,-0.14393 0.22014,-0.1524 0.34714,-0.42333 0.13547,-0.27094 0.13547,-0.64347 0,-0.34713 -0.0931,-0.61807 -0.0931,-0.27093 -0.2794,-0.42333 -0.18627,-0.1524 -0.4572,-0.1524 -0.21167,0 -0.34713,0.0762 -0.127,0.0677 -0.2032,0.1016 -0.0593,0.0339 -0.14394,0 -0.0847,-0.0423 -0.0677,-0.11854 0.0423,-0.16086 0.14393,-0.27093 0.1016,-0.11007 0.21167,-0.16933 0.254,-0.127 0.44027,-0.254 0.18626,-0.13547 0.31326,-0.2794 0.127,-0.14394 0.18627,-0.31327 0.0677,-0.1778 0.0677,-0.38947 0,-0.27093 -0.18626,-0.46566 -0.18627,-0.2032 -0.47414,-0.2032 -0.254,0 -0.4318,0.11006 -0.16933,0.1016 -0.28786,0.23707 -0.11854,0.13547 -0.19474,0.23707 -0.0677,0.1016 -0.11006,0.1016 -0.0593,0 -0.11854,-0.0677 -0.0593,-0.0677 -0.0593,-0.13546 0,-0.0762 0.0931,-0.254 0.0931,-0.1778 0.29633,-0.36407 0.2032,-0.19473 0.52494,-0.32173 0.32173,-0.13547 0.7874,-0.13547 0.33867,0 0.61807,0.127 0.2794,0.127 0.44873,0.3556 0.16933,0.2286 0.16933,0.54187 0,0.19473 -0.11853,0.44026 -0.11007,0.24554 -0.36407,0.46567 -0.254,0.21167 -0.6604,0.31327 -0.0254,0.008 -0.0254,0.0339 0,0.0169 0.0339,0.0169 0.44027,0 0.77893,0.16086 0.33867,0.16087 0.5334,0.4572 0.2032,0.28787 0.2032,0.70274 0,0.46567 -0.21166,0.8382 -0.21167,0.37253 -0.56727,0.64347 -0.3556,0.26246 -0.80434,0.4064 -0.44873,0.14393 -0.9398,0.14393 z"
         style="font-family:'EB Garamond';-inkscape-font-specification:'EB Garamond Bold'"
         id="path544" />
      <path
         d="m 268.59201,176.71931 q -0.82974,0 -1.2954,-0.26246 -0.4572,-0.254 -0.4572,-0.70274 0,-0.254 0.0593,-0.41486 0.0593,-0.1524 0.27094,-0.3048 0.16086,-0.11854 0.31326,-0.23707 0.1524,-0.11853 0.26247,-0.19473 l 0.41487,0.14393 q -0.26247,0.1524 -0.41487,0.3302 -0.14393,0.1778 -0.14393,0.41487 0,0.34713 0.28786,0.57573 0.29634,0.2286 0.7366,0.2286 0.5842,0 0.82974,-0.2286 0.1524,-0.1524 0.24553,-0.34713 0.0931,-0.18627 0.0931,-0.381 0,-0.13547 -0.0931,-0.22014 -0.0931,-0.0847 -0.33867,-0.14393 -0.23706,-0.0593 -0.66886,-0.1016 -0.88054,-0.0847 -1.25307,-0.3302 -0.37253,-0.24553 -0.37253,-0.65193 0,-0.0762 0.0423,-0.1524 0.0508,-0.0847 0.18627,-0.1778 0.13546,-0.1016 0.24553,-0.1778 0.11007,-0.0847 0.18627,-0.1524 0.0762,-0.0762 0.1016,-0.13547 l 0.42333,0.14393 q -0.16933,0.0593 -0.2794,0.16087 -0.1016,0.1016 -0.1016,0.1778 0,0.0931 0.11007,0.1524 0.11006,0.0593 0.37253,0.1016 0.26247,0.0339 0.71967,0.0677 0.9144,0.0762 1.32926,0.28787 0.41487,0.2032 0.41487,0.60113 0,0.34714 -0.19473,0.6858 -0.19474,0.34714 -0.51647,0.62654 -0.32173,0.28786 -0.71967,0.44873 -0.38946,0.16933 -0.79586,0.16933 z m 0.11006,-3.6322 q 0.27094,0 0.42334,-0.29633 0.16086,-0.3048 0.16086,-0.79587 0,-0.31327 -0.0847,-0.54187 -0.0762,-0.23706 -0.21167,-0.36406 -0.13547,-0.13547 -0.32173,-0.13547 -0.16087,0 -0.29634,0.13547 -0.13546,0.13546 -0.22013,0.36406 -0.0762,0.22014 -0.0762,0.51647 0,0.31327 0.0847,0.56727 0.0847,0.254 0.2286,0.4064 0.14393,0.14393 0.31326,0.14393 z m -0.0931,0.37254 q -0.37253,0 -0.7366,-0.1778 -0.3556,-0.18627 -0.59267,-0.508 -0.2286,-0.32174 -0.2286,-0.71967 0,-0.42334 0.23707,-0.75354 0.24553,-0.3302 0.635,-0.508 0.39793,-0.18626 0.8382,-0.18626 0.26247,0 0.49107,0.0593 0.23706,0.0593 0.51646,0.1016 0.16087,0.0339 0.32174,0.0508 0.16086,0.0169 0.3556,0.0169 0.127,0 0.254,-0.008 0.127,-0.0169 0.21166,-0.0169 0.13547,0 0.13547,0.18626 0,0.16087 -0.11007,0.3048 -0.0508,0.0593 -0.11006,0.0593 h -0.2286 q -0.22014,0 -0.29634,0.0677 -0.0169,0.0169 -0.0254,0.0423 -0.008,0.0169 -0.0169,0.0931 0,0.0677 0,0.26247 0,0.44026 -0.2286,0.8128 -0.2286,0.37253 -0.60113,0.60113 -0.37254,0.22014 -0.82127,0.22014 z"
         style="font-family:'EB Garamond';-inkscape-font-specification:'EB Garamond Bold'"
         id="path546" />
    </g>
    <g
       aria-label="200 g"
       id="text875-9-2"
       style="font-weight:bold;font-size:8.46667px;line-height:1.25;font-family:'Liberation Sans';-inkscape-font-specification:'Liberation Sans Bold';text-align:center;letter-spacing:0px;word-spacing:0px;text-anchor:middle;stroke-width:0.264583">
      <path
         d="m 185.29058,107.11404 q -0.0508,0 -0.254,-0.008 -0.19473,0 -0.46566,-0.008 -0.26247,-0.008 -0.54187,-0.0169 -0.2794,-0.008 -0.49107,-0.008 -0.19473,0 -0.4318,0.008 -0.2286,0.008 -0.44027,0.008 -0.2032,0.008 -0.34713,0.008 -0.13547,0.008 -0.16087,0.008 -0.0254,0 -0.1016,-0.0423 -0.0677,-0.0508 -0.0677,-0.1016 0,-0.0677 0.0339,-0.11006 0.0339,-0.0423 0.0677,-0.0762 l 1.23613,-1.3716 q 0.44874,-0.49107 0.66887,-0.98214 0.22013,-0.49953 0.22013,-1.08373 0,-0.3556 -0.18626,-0.59267 -0.1778,-0.24553 -0.508,-0.24553 -0.29634,0 -0.5588,0.16933 -0.26247,0.16934 -0.44874,0.36407 -0.0423,0.0508 -0.11853,0.11853 -0.0762,0.0593 -0.1524,0.0593 -0.0677,0 -0.0931,-0.0508 -0.0254,-0.0593 -0.0254,-0.14393 0,-0.14394 0.13546,-0.34714 0.14394,-0.21166 0.38947,-0.42333 0.254,-0.21167 0.57573,-0.3556 0.3302,-0.14393 0.69427,-0.14393 0.44027,0 0.7366,0.19473 0.3048,0.19473 0.46567,0.51647 0.16087,0.32173 0.16087,0.70273 0,0.23707 -0.11007,0.52493 -0.1016,0.2794 -0.254,0.54187 -0.1524,0.254 -0.31327,0.44027 -0.127,0.14393 -0.32173,0.33866 -0.18627,0.18627 -0.38947,0.381 -0.2032,0.19474 -0.38947,0.36407 -0.18626,0.16933 -0.29633,0.2794 -0.11007,0.11007 -0.11007,0.127 0,0.0339 0.127,0.0508 0.1524,0.0169 0.36407,0.0254 0.22013,0.008 0.39793,0.008 0.19474,0 0.381,-0.008 0.18627,-0.008 0.37254,-0.0254 0.18627,-0.0169 0.32173,-0.0677 0.14394,-0.0593 0.24554,-0.16087 0.11006,-0.11007 0.19473,-0.2794 0.0254,-0.0593 0.0847,-0.11853 0.0677,-0.0677 0.1524,-0.0677 0.0677,0 0.0931,0.0593 0.0254,0.0508 0,0.11007 -0.0762,0.22013 -0.16087,0.4826 -0.0762,0.254 -0.13546,0.46566 -0.0593,0.2032 -0.0677,0.28787 -0.008,0.1016 -0.0847,0.1524 -0.0762,0.0423 -0.0931,0.0423 z"
         style="font-family:'EB Garamond';-inkscape-font-specification:'EB Garamond Bold'"
         id="path504" />
      <path
         d="m 188.16924,107.19871 q -0.508,0 -0.88053,-0.23707 -0.37253,-0.23706 -0.62653,-0.62653 -0.24554,-0.39793 -0.36407,-0.87207 -0.11853,-0.47413 -0.11853,-0.9398 0,-0.4826 0.11853,-0.97366 0.11853,-0.49107 0.37253,-0.89747 0.254,-0.41487 0.65194,-0.6604 0.39793,-0.254 0.9398,-0.254 0.508,0 0.88053,0.23707 0.381,0.23706 0.61807,0.635 0.24553,0.38946 0.36406,0.8636 0.127,0.46566 0.127,0.92286 0,0.4826 -0.11853,0.97367 -0.11853,0.49107 -0.37253,0.90593 -0.24554,0.41487 -0.64347,0.66887 -0.38947,0.254 -0.94827,0.254 z m 0.127,-0.381 q 0.27094,0 0.4318,-0.31327 0.16934,-0.32173 0.24554,-0.8382 0.0762,-0.51646 0.0762,-1.1176 0,-0.44873 -0.0593,-0.88053 -0.0593,-0.4318 -0.1778,-0.77893 -0.11853,-0.3556 -0.28787,-0.5588 -0.16933,-0.21167 -0.39793,-0.21167 -0.27093,0 -0.4318,0.32173 -0.16087,0.31327 -0.23707,0.82974 -0.0677,0.508 -0.0677,1.10913 0,0.44873 0.0508,0.88053 0.0593,0.4318 0.16933,0.7874 0.11854,0.34714 0.28787,0.5588 0.16933,0.21167 0.39793,0.21167 z"
         style="font-family:'EB Garamond';-inkscape-font-specification:'EB Garamond Bold'"
         id="path506" />
      <path
         d="m 192.64811,107.19871 q -0.508,0 -0.88054,-0.23707 -0.37253,-0.23706 -0.62653,-0.62653 -0.24553,-0.39793 -0.36407,-0.87207 -0.11853,-0.47413 -0.11853,-0.9398 0,-0.4826 0.11853,-0.97366 0.11854,-0.49107 0.37254,-0.89747 0.254,-0.41487 0.65193,-0.6604 0.39793,-0.254 0.9398,-0.254 0.508,0 0.88053,0.23707 0.381,0.23706 0.61807,0.635 0.24553,0.38946 0.36407,0.8636 0.127,0.46566 0.127,0.92286 0,0.4826 -0.11854,0.97367 -0.11853,0.49107 -0.37253,0.90593 -0.24553,0.41487 -0.64347,0.66887 -0.38946,0.254 -0.94826,0.254 z m 0.127,-0.381 q 0.27093,0 0.4318,-0.31327 0.16933,-0.32173 0.24553,-0.8382 0.0762,-0.51646 0.0762,-1.1176 0,-0.44873 -0.0593,-0.88053 -0.0593,-0.4318 -0.1778,-0.77893 -0.11853,-0.3556 -0.28786,-0.5588 -0.16934,-0.21167 -0.39794,-0.21167 -0.27093,0 -0.4318,0.32173 -0.16086,0.31327 -0.23706,0.82974 -0.0677,0.508 -0.0677,1.10913 0,0.44873 0.0508,0.88053 0.0593,0.4318 0.16934,0.7874 0.11853,0.34714 0.28786,0.5588 0.16934,0.21167 0.39794,0.21167 z"
         style="font-family:'EB Garamond';-inkscape-font-specification:'EB Garamond Bold'"
         id="path508" />
      <path
         d="m 198.75257,109.52704 q -0.82974,0 -1.2954,-0.26246 -0.4572,-0.254 -0.4572,-0.70274 0,-0.254 0.0593,-0.41486 0.0593,-0.1524 0.27094,-0.3048 0.16086,-0.11854 0.31326,-0.23707 0.1524,-0.11853 0.26247,-0.19473 l 0.41487,0.14393 q -0.26247,0.1524 -0.41487,0.3302 -0.14393,0.1778 -0.14393,0.41487 0,0.34713 0.28786,0.57573 0.29634,0.2286 0.7366,0.2286 0.5842,0 0.82974,-0.2286 0.1524,-0.1524 0.24553,-0.34713 0.0931,-0.18627 0.0931,-0.381 0,-0.13547 -0.0931,-0.22014 -0.0931,-0.0847 -0.33867,-0.14393 -0.23706,-0.0593 -0.66886,-0.1016 -0.88054,-0.0847 -1.25307,-0.3302 -0.37253,-0.24553 -0.37253,-0.65193 0,-0.0762 0.0423,-0.1524 0.0508,-0.0847 0.18627,-0.1778 0.13546,-0.1016 0.24553,-0.1778 0.11007,-0.0847 0.18627,-0.1524 0.0762,-0.0762 0.1016,-0.13547 l 0.42333,0.14393 q -0.16933,0.0593 -0.2794,0.16087 -0.1016,0.1016 -0.1016,0.1778 0,0.0931 0.11007,0.1524 0.11006,0.0593 0.37253,0.1016 0.26247,0.0339 0.71967,0.0677 0.9144,0.0762 1.32926,0.28787 0.41487,0.2032 0.41487,0.60113 0,0.34714 -0.19473,0.6858 -0.19474,0.34714 -0.51647,0.62654 -0.32173,0.28786 -0.71967,0.44873 -0.38946,0.16933 -0.79586,0.16933 z m 0.11006,-3.6322 q 0.27094,0 0.42334,-0.29633 0.16086,-0.3048 0.16086,-0.79587 0,-0.31326 -0.0847,-0.54186 -0.0762,-0.23707 -0.21167,-0.36407 -0.13547,-0.13547 -0.32173,-0.13547 -0.16087,0 -0.29634,0.13547 -0.13546,0.13547 -0.22013,0.36407 -0.0762,0.22013 -0.0762,0.51646 0,0.31327 0.0847,0.56727 0.0847,0.254 0.2286,0.4064 0.14393,0.14393 0.31326,0.14393 z m -0.0931,0.37254 q -0.37253,0 -0.7366,-0.1778 -0.3556,-0.18627 -0.59267,-0.508 -0.2286,-0.32174 -0.2286,-0.71967 0,-0.42333 0.23707,-0.75353 0.24553,-0.3302 0.635,-0.508 0.39793,-0.18627 0.8382,-0.18627 0.26247,0 0.49107,0.0593 0.23706,0.0593 0.51646,0.1016 0.16087,0.0339 0.32174,0.0508 0.16086,0.0169 0.3556,0.0169 0.127,0 0.254,-0.008 0.127,-0.0169 0.21166,-0.0169 0.13547,0 0.13547,0.18627 0,0.16086 -0.11007,0.3048 -0.0508,0.0593 -0.11006,0.0593 h -0.2286 q -0.22014,0 -0.29634,0.0677 -0.0169,0.0169 -0.0254,0.0423 -0.008,0.0169 -0.0169,0.0931 0,0.0677 0,0.26247 0,0.44027 -0.2286,0.8128 -0.2286,0.37253 -0.60113,0.60113 -0.37254,0.22014 -0.82127,0.22014 z"
         style="font-family:'EB Garamond';-inkscape-font-specification:'EB Garamond Bold'"
         id="path510" />
    </g>
    <g
       aria-label="S"
       id="text879"
       style="font-weight:bold;font-size:8.46667px;line-height:1.25;font-family:'Liberation Sans';-inkscape-font-specification:'Liberation Sans Bold';text-align:center;letter-spacing:0px;word-spacing:0px;text-anchor:middle;stroke-width:0.264583">
      <path
         d="m 30.051277,115.12271 q -0.364067,0 -0.702734,-0.0847 -0.338666,-0.0847 -0.635,-0.27093 -0.0508,-0.0423 -0.1016,-0.0931 -0.0508,-0.0508 -0.0762,-0.11006 -0.08467,-0.2286 -0.118533,-0.5588 -0.0254,-0.3302 -0.01693,-0.66887 0,-0.0593 0.0508,-0.0847 0.0508,-0.0254 0.118534,-0.0254 0.08467,0 0.110066,0.0254 0.03387,0.0169 0.06773,0.0762 0.186267,0.635 0.550333,1.02447 0.372534,0.38947 0.863601,0.38947 0.270933,0 0.440267,-0.11854 0.1778,-0.127 0.270933,-0.31326 0.09313,-0.19474 0.09313,-0.38947 0,-0.27093 -0.110066,-0.4572 -0.1016,-0.18627 -0.313267,-0.33867 -0.211667,-0.1524 -0.541867,-0.3302 -0.3556,-0.2032 -0.6858,-0.42333 -0.3302,-0.2286 -0.541867,-0.55033 -0.211667,-0.32174 -0.211667,-0.80434 0,-0.49953 0.254,-0.8636 0.262467,-0.36407 0.7112,-0.56727 0.448734,-0.2032 1.007534,-0.2032 0.321734,0 0.6096,0.0677 0.296334,0.0677 0.474134,0.13546 0.1016,0.0423 0.143933,0.0931 0.0508,0.0508 0.08467,0.1778 0.04233,0.1778 0.06773,0.4318 0.03387,0.254 0.03387,0.5588 0,0.11007 -0.1524,0.11007 -0.0762,0 -0.143933,-0.0339 -0.05927,-0.0423 -0.0762,-0.1016 -0.143934,-0.508 -0.423334,-0.77047 -0.2794,-0.26247 -0.6858,-0.26247 -0.254,0 -0.4318,0.0847 -0.1778,0.0847 -0.270934,0.254 -0.08467,0.16933 -0.08467,0.42333 0,0.2032 0.135467,0.381 0.143934,0.16934 0.4064,0.34714 0.262467,0.1778 0.601134,0.381 0.4572,0.27093 0.728134,0.5334 0.270933,0.26247 0.389466,0.5588 0.127,0.28787 0.127,0.66887 0,0.57573 -0.254,0.95673 -0.245533,0.381 -0.702733,0.56727 -0.448734,0.1778 -1.058334,0.1778 z"
         style="font-family:'eb garamond';-inkscape-font-specification:'eb garamond Bold'"
         id="path472" />
    </g>
    <g
       aria-label="S"
       id="text879-2"
       style="font-weight:bold;font-size:8.46667px;line-height:1.25;font-family:'Liberation Sans';-inkscape-font-specification:'Liberation Sans Bold';text-align:center;letter-spacing:0px;word-spacing:0px;text-anchor:middle;stroke-width:0.264583">
      <path
         d="m 263.33105,139.0208 q -0.36407,0 -0.70273,-0.0847 -0.33867,-0.0847 -0.635,-0.27093 -0.0508,-0.0423 -0.1016,-0.0931 -0.0508,-0.0508 -0.0762,-0.11007 -0.0847,-0.2286 -0.11854,-0.5588 -0.0254,-0.3302 -0.0169,-0.66887 0,-0.0593 0.0508,-0.0847 0.0508,-0.0254 0.11853,-0.0254 0.0847,0 0.11007,0.0254 0.0339,0.0169 0.0677,0.0762 0.18627,0.635 0.55034,1.02446 0.37253,0.38947 0.8636,0.38947 0.27093,0 0.44026,-0.11853 0.1778,-0.127 0.27094,-0.31327 0.0931,-0.19473 0.0931,-0.38947 0,-0.27093 -0.11007,-0.4572 -0.1016,-0.18626 -0.31326,-0.33866 -0.21167,-0.1524 -0.54187,-0.3302 -0.3556,-0.2032 -0.6858,-0.42334 -0.3302,-0.2286 -0.54187,-0.55033 -0.21166,-0.32173 -0.21166,-0.80433 0,-0.49954 0.254,-0.8636 0.26246,-0.36407 0.7112,-0.56727 0.44873,-0.2032 1.00753,-0.2032 0.32173,0 0.6096,0.0677 0.29633,0.0677 0.47413,0.13547 0.1016,0.0423 0.14394,0.0931 0.0508,0.0508 0.0847,0.1778 0.0423,0.1778 0.0677,0.4318 0.0339,0.254 0.0339,0.5588 0,0.11007 -0.1524,0.11007 -0.0762,0 -0.14393,-0.0339 -0.0593,-0.0423 -0.0762,-0.1016 -0.14393,-0.508 -0.42333,-0.77046 -0.2794,-0.26247 -0.6858,-0.26247 -0.254,0 -0.4318,0.0847 -0.1778,0.0847 -0.27094,0.254 -0.0847,0.16933 -0.0847,0.42333 0,0.2032 0.13546,0.381 0.14394,0.16933 0.4064,0.34713 0.26247,0.1778 0.60114,0.381 0.4572,0.27094 0.72813,0.5334 0.27093,0.26247 0.38947,0.5588 0.127,0.28787 0.127,0.66887 0,0.57573 -0.254,0.95673 -0.24554,0.381 -0.70274,0.56727 -0.44873,0.1778 -1.05833,0.1778 z"
         style="font-family:'eb garamond';-inkscape-font-specification:'eb garamond Bold'"
         id="path539" />
    </g>
    <g
       aria-label="FeS"
       id="text879-3"
       style="font-weight:bold;font-size:8.46667px;line-height:1.25;font-family:'Liberation Sans';-inkscape-font-specification:'Liberation Sans Bold';text-align:center;letter-spacing:0px;word-spacing:0px;text-anchor:middle;stroke-width:0.264583">
      <path
         d="m 185.95945,66.478617 q -0.0677,0 -0.11853,-0.0254 -0.0508,-0.03387 -0.0508,-0.09313 0,-0.135467 0.1778,-0.1778 0.32173,-0.06773 0.44027,-0.169333 0.11853,-0.110067 0.11853,-0.389467 v -3.793068 q 0,-0.287867 -0.1016,-0.414867 -0.1016,-0.135467 -0.4064,-0.2032 -0.11007,-0.0254 -0.1524,-0.06773 -0.0423,-0.0508 -0.0423,-0.110066 0,-0.0508 0.0508,-0.08467 0.0508,-0.04233 0.13546,-0.04233 0.2032,0 0.42334,0.0085 0.22013,0.0085 0.4318,0.0254 0.21166,0.0085 0.4064,0.0085 0.3302,0 0.71966,0 0.39794,0 0.762,0 0.34714,0 0.62654,-0.04233 0.28786,-0.0508 0.46566,-0.0508 0.0677,0 0.13547,0.03387 0.0677,0.03387 0.0762,0.127 0.0169,0.194734 0.0254,0.406401 0.008,0.211666 0.008,0.4064 0.008,0.194733 0.008,0.3302 0,0.169333 -0.1016,0.169333 -0.0423,0 -0.1016,-0.03387 -0.0508,-0.03387 -0.0677,-0.1016 -0.0593,-0.211667 -0.127,-0.372534 -0.0677,-0.169333 -0.1778,-0.2794 -0.11007,-0.118533 -0.26247,-0.169333 -0.14393,-0.0508 -0.34713,-0.0508 h -0.635 q -0.21167,0 -0.3302,0.110066 -0.11853,0.1016 -0.11853,0.2794 0,0.1524 0,0.3556 0,0.203201 0,0.364067 0,0.186267 0,0.4064 0,0.220134 0,0.406401 0,0.110066 0.0508,0.160866 0.0508,0.04233 0.14393,0.04233 0.21167,0 0.42333,0 0.21167,0 0.39794,0 0.22013,0 0.32173,-0.127 0.1016,-0.135467 0.1778,-0.313267 0.0339,-0.06773 0.0762,-0.110067 0.0508,-0.04233 0.0931,-0.04233 0.0423,0 0.0762,0.0508 0.0423,0.0508 0.0339,0.135467 -0.0169,0.1778 -0.0339,0.338666 -0.008,0.1524 -0.008,0.270934 0,0.160867 0.008,0.2794 0.008,0.110067 0.0254,0.3048 0.008,0.110067 -0.0169,0.169333 -0.0254,0.0508 -0.0677,0.0508 -0.0677,0 -0.127,-0.05927 -0.0508,-0.06773 -0.0762,-0.143934 -0.0677,-0.254 -0.16934,-0.338666 -0.1016,-0.09313 -0.254,-0.09313 -0.0931,0 -0.2032,0 -0.1016,0 -0.19473,0 -0.11853,0 -0.254,0 -0.127,0 -0.24553,0.0085 -0.0931,0 -0.14394,0.0508 -0.0423,0.0508 -0.0423,0.143933 0,0.381 0,0.795867 0.008,0.414867 0.0169,0.795867 0,0.270934 0.14394,0.381 0.14393,0.110067 0.49953,0.186267 0.0847,0.01693 0.127,0.05927 0.0508,0.03387 0.0508,0.110067 0,0.05927 -0.0423,0.09313 -0.0339,0.03387 -0.11007,0.03387 -0.18627,0 -0.4318,-0.01693 -0.24553,-0.0085 -0.4826,-0.01693 -0.23707,-0.0085 -0.4064,-0.0085 -0.16933,0 -0.381,0.0085 -0.21167,0.0085 -0.4318,0.01693 -0.22013,0.01693 -0.41487,0.01693 z"
         style="font-family:'eb garamond';-inkscape-font-specification:'eb garamond Bold'"
         id="path513" />
      <path
         d="m 191.79298,66.57175 q -0.4572,0 -0.82127,-0.237067 -0.3556,-0.245533 -0.56727,-0.6604 -0.2032,-0.423334 -0.2032,-0.956734 0,-0.5334 0.24554,-0.9652 0.24553,-0.440267 0.66887,-0.694267 0.42333,-0.262467 0.93133,-0.262467 0.36407,0 0.65193,0.160867 0.28787,0.1524 0.4572,0.414867 0.1778,0.262466 0.1778,0.592667 0,0.321733 -0.26246,0.321733 h -1.69334 q -0.11853,0 -0.1778,0.06773 -0.0508,0.06773 -0.0508,0.2286 0,0.321734 0.14394,0.592667 0.14393,0.262467 0.38946,0.414867 0.24554,0.1524 0.56727,0.1524 0.24553,0 0.44873,-0.09313 0.21167,-0.09313 0.41487,-0.254 0.0339,-0.0254 0.0593,-0.04233 0.0339,-0.0254 0.0593,-0.0254 0.0847,0 0.0847,0.110067 0,0.09313 -0.0677,0.254 -0.0847,0.211667 -0.28787,0.423334 -0.19473,0.2032 -0.49107,0.3302 -0.29633,0.127 -0.67733,0.127 z m -0.41487,-2.641601 h 0.508 q 0.23707,0 0.3302,-0.0085 0.0931,-0.0085 0.16934,-0.03387 0.0423,-0.01693 0.0677,-0.08467 0.0254,-0.06773 0.0254,-0.1524 0,-0.2286 -0.16087,-0.372534 -0.1524,-0.143933 -0.381,-0.143933 -0.1778,0 -0.33866,0.1016 -0.1524,0.09313 -0.254,0.254 -0.0931,0.1524 -0.0847,0.321734 0,0.118533 0.11853,0.118533 z"
         style="font-family:'eb garamond';-inkscape-font-specification:'eb garamond Bold'"
         id="path515" />
      <path
         d="m 195.39131,66.57175 q -0.36406,0 -0.70273,-0.08467 -0.33867,-0.08467 -0.635,-0.270933 -0.0508,-0.04233 -0.1016,-0.09313 -0.0508,-0.0508 -0.0762,-0.110066 -0.0847,-0.2286 -0.11854,-0.558801 -0.0254,-0.3302 -0.0169,-0.668866 0,-0.05927 0.0508,-0.08467 0.0508,-0.0254 0.11853,-0.0254 0.0847,0 0.11007,0.0254 0.0339,0.01693 0.0677,0.0762 0.18627,0.635 0.55034,1.024467 0.37253,0.389467 0.8636,0.389467 0.27093,0 0.44027,-0.118534 0.1778,-0.127 0.27093,-0.313266 0.0931,-0.194734 0.0931,-0.389467 0,-0.270934 -0.11006,-0.4572 -0.1016,-0.186267 -0.31327,-0.338667 -0.21167,-0.1524 -0.54187,-0.3302 -0.3556,-0.2032 -0.6858,-0.423334 -0.3302,-0.2286 -0.54187,-0.550333 -0.21166,-0.321734 -0.21166,-0.804334 0,-0.499534 0.254,-0.8636 0.26247,-0.364067 0.7112,-0.567267 0.44873,-0.2032 1.00753,-0.2032 0.32174,0 0.6096,0.06773 0.29634,0.06773 0.47414,0.135467 0.1016,0.04233 0.14393,0.09313 0.0508,0.0508 0.0847,0.1778 0.0423,0.1778 0.0677,0.4318 0.0339,0.254 0.0339,0.558801 0,0.110066 -0.1524,0.110066 -0.0762,0 -0.14394,-0.03387 -0.0593,-0.04233 -0.0762,-0.1016 -0.14393,-0.508001 -0.42333,-0.770467 -0.2794,-0.262467 -0.6858,-0.262467 -0.254,0 -0.4318,0.08467 -0.1778,0.08467 -0.27093,0.254 -0.0847,0.169333 -0.0847,0.423333 0,0.2032 0.13547,0.381 0.14393,0.169334 0.4064,0.347134 0.26246,0.1778 0.60113,0.381 0.4572,0.270933 0.72813,0.5334 0.27094,0.262467 0.38947,0.5588 0.127,0.287867 0.127,0.668867 0,0.575734 -0.254,0.956734 -0.24553,0.381 -0.70273,0.567267 -0.44874,0.1778 -1.05834,0.1778 z"
         style="font-family:'eb garamond';-inkscape-font-specification:'eb garamond Bold'"
         id="path517" />
    </g>
    <g
       aria-label="FeS"
       id="text879-3-3"
       style="font-weight:bold;font-size:8.46667px;line-height:1.25;font-family:'Liberation Sans';-inkscape-font-specification:'Liberation Sans Bold';text-align:center;letter-spacing:0px;word-spacing:0px;text-anchor:middle;stroke-width:0.264583">
      <path
         d="m 185.95945,138.92767 q -0.0677,0 -0.11853,-0.0254 -0.0508,-0.0339 -0.0508,-0.0931 0,-0.13546 0.1778,-0.1778 0.32173,-0.0677 0.44027,-0.16933 0.11853,-0.11007 0.11853,-0.38947 v -3.79306 q 0,-0.28787 -0.1016,-0.41487 -0.1016,-0.13547 -0.4064,-0.2032 -0.11007,-0.0254 -0.1524,-0.0677 -0.0423,-0.0508 -0.0423,-0.11007 0,-0.0508 0.0508,-0.0847 0.0508,-0.0423 0.13546,-0.0423 0.2032,0 0.42334,0.008 0.22013,0.008 0.4318,0.0254 0.21166,0.008 0.4064,0.008 0.3302,0 0.71966,0 0.39794,0 0.762,0 0.34714,0 0.62654,-0.0423 0.28786,-0.0508 0.46566,-0.0508 0.0677,0 0.13547,0.0339 0.0677,0.0339 0.0762,0.127 0.0169,0.19473 0.0254,0.4064 0.008,0.21166 0.008,0.4064 0.008,0.19473 0.008,0.3302 0,0.16933 -0.1016,0.16933 -0.0423,0 -0.1016,-0.0339 -0.0508,-0.0339 -0.0677,-0.1016 -0.0593,-0.21166 -0.127,-0.37253 -0.0677,-0.16933 -0.1778,-0.2794 -0.11007,-0.11853 -0.26247,-0.16933 -0.14393,-0.0508 -0.34713,-0.0508 h -0.635 q -0.21167,0 -0.3302,0.11006 -0.11853,0.1016 -0.11853,0.2794 0,0.1524 0,0.3556 0,0.2032 0,0.36407 0,0.18627 0,0.4064 0,0.22013 0,0.4064 0,0.11007 0.0508,0.16087 0.0508,0.0423 0.14393,0.0423 0.21167,0 0.42333,0 0.21167,0 0.39794,0 0.22013,0 0.32173,-0.127 0.1016,-0.13547 0.1778,-0.31327 0.0339,-0.0677 0.0762,-0.11006 0.0508,-0.0423 0.0931,-0.0423 0.0423,0 0.0762,0.0508 0.0423,0.0508 0.0339,0.13547 -0.0169,0.1778 -0.0339,0.33867 -0.008,0.1524 -0.008,0.27093 0,0.16087 0.008,0.2794 0.008,0.11007 0.0254,0.3048 0.008,0.11007 -0.0169,0.16933 -0.0254,0.0508 -0.0677,0.0508 -0.0677,0 -0.127,-0.0593 -0.0508,-0.0677 -0.0762,-0.14394 -0.0677,-0.254 -0.16934,-0.33866 -0.1016,-0.0931 -0.254,-0.0931 -0.0931,0 -0.2032,0 -0.1016,0 -0.19473,0 -0.11853,0 -0.254,0 -0.127,0 -0.24553,0.008 -0.0931,0 -0.14394,0.0508 -0.0423,0.0508 -0.0423,0.14393 0,0.381 0,0.79587 0.008,0.41487 0.0169,0.79587 0,0.27093 0.14394,0.381 0.14393,0.11006 0.49953,0.18626 0.0847,0.0169 0.127,0.0593 0.0508,0.0339 0.0508,0.11007 0,0.0593 -0.0423,0.0931 -0.0339,0.0339 -0.11007,0.0339 -0.18627,0 -0.4318,-0.0169 -0.24553,-0.008 -0.4826,-0.0169 -0.23707,-0.008 -0.4064,-0.008 -0.16933,0 -0.381,0.008 -0.21167,0.008 -0.4318,0.0169 -0.22013,0.0169 -0.41487,0.0169 z"
         style="font-family:'eb garamond';-inkscape-font-specification:'eb garamond Bold'"
         id="path520" />
      <path
         d="m 191.79298,139.0208 q -0.4572,0 -0.82127,-0.23707 -0.3556,-0.24553 -0.56727,-0.6604 -0.2032,-0.42333 -0.2032,-0.95673 0,-0.5334 0.24554,-0.9652 0.24553,-0.44027 0.66887,-0.69427 0.42333,-0.26246 0.93133,-0.26246 0.36407,0 0.65193,0.16086 0.28787,0.1524 0.4572,0.41487 0.1778,0.26247 0.1778,0.59267 0,0.32173 -0.26246,0.32173 h -1.69334 q -0.11853,0 -0.1778,0.0677 -0.0508,0.0677 -0.0508,0.2286 0,0.32174 0.14394,0.59267 0.14393,0.26247 0.38946,0.41487 0.24554,0.1524 0.56727,0.1524 0.24553,0 0.44873,-0.0931 0.21167,-0.0931 0.41487,-0.254 0.0339,-0.0254 0.0593,-0.0423 0.0339,-0.0254 0.0593,-0.0254 0.0847,0 0.0847,0.11007 0,0.0931 -0.0677,0.254 -0.0847,0.21166 -0.28787,0.42333 -0.19473,0.2032 -0.49107,0.3302 -0.29633,0.127 -0.67733,0.127 z m -0.41487,-2.6416 h 0.508 q 0.23707,0 0.3302,-0.008 0.0931,-0.008 0.16934,-0.0339 0.0423,-0.0169 0.0677,-0.0847 0.0254,-0.0677 0.0254,-0.1524 0,-0.2286 -0.16087,-0.37253 -0.1524,-0.14394 -0.381,-0.14394 -0.1778,0 -0.33866,0.1016 -0.1524,0.0931 -0.254,0.254 -0.0931,0.1524 -0.0847,0.32174 0,0.11853 0.11853,0.11853 z"
         style="font-family:'eb garamond';-inkscape-font-specification:'eb garamond Bold'"
         id="path522" />
      <path
         d="m 195.39131,139.0208 q -0.36406,0 -0.70273,-0.0847 -0.33867,-0.0847 -0.635,-0.27093 -0.0508,-0.0423 -0.1016,-0.0931 -0.0508,-0.0508 -0.0762,-0.11007 -0.0847,-0.2286 -0.11854,-0.5588 -0.0254,-0.3302 -0.0169,-0.66887 0,-0.0593 0.0508,-0.0847 0.0508,-0.0254 0.11853,-0.0254 0.0847,0 0.11007,0.0254 0.0339,0.0169 0.0677,0.0762 0.18627,0.635 0.55034,1.02446 0.37253,0.38947 0.8636,0.38947 0.27093,0 0.44027,-0.11853 0.1778,-0.127 0.27093,-0.31327 0.0931,-0.19473 0.0931,-0.38947 0,-0.27093 -0.11006,-0.4572 -0.1016,-0.18626 -0.31327,-0.33866 -0.21167,-0.1524 -0.54187,-0.3302 -0.3556,-0.2032 -0.6858,-0.42334 -0.3302,-0.2286 -0.54187,-0.55033 -0.21166,-0.32173 -0.21166,-0.80433 0,-0.49954 0.254,-0.8636 0.26247,-0.36407 0.7112,-0.56727 0.44873,-0.2032 1.00753,-0.2032 0.32174,0 0.6096,0.0677 0.29634,0.0677 0.47414,0.13547 0.1016,0.0423 0.14393,0.0931 0.0508,0.0508 0.0847,0.1778 0.0423,0.1778 0.0677,0.4318 0.0339,0.254 0.0339,0.5588 0,0.11007 -0.1524,0.11007 -0.0762,0 -0.14394,-0.0339 -0.0593,-0.0423 -0.0762,-0.1016 -0.14393,-0.508 -0.42333,-0.77046 -0.2794,-0.26247 -0.6858,-0.26247 -0.254,0 -0.4318,0.0847 -0.1778,0.0847 -0.27093,0.254 -0.0847,0.16933 -0.0847,0.42333 0,0.2032 0.13547,0.381 0.14393,0.16933 0.4064,0.34713 0.26246,0.1778 0.60113,0.381 0.4572,0.27094 0.72813,0.5334 0.27094,0.26247 0.38947,0.5588 0.127,0.28787 0.127,0.66887 0,0.57573 -0.254,0.95673 -0.24553,0.381 -0.70273,0.56727 -0.44874,0.1778 -1.05834,0.1778 z"
         style="font-family:'eb garamond';-inkscape-font-specification:'eb garamond Bold'"
         id="path524" />
    </g>
    <g
       aria-label="Fe"
       id="text879-02"
       style="font-weight:bold;font-size:8.46667px;line-height:1.25;font-family:'Liberation Sans';-inkscape-font-specification:'Liberation Sans Bold';text-align:center;letter-spacing:0px;word-spacing:0px;text-anchor:middle;stroke-width:0.264583">
      <path
         d="m 99.11247,119.54183 q -0.06773,0 -0.118533,-0.0254 -0.0508,-0.0339 -0.0508,-0.0931 0,-0.13547 0.1778,-0.1778 0.321733,-0.0677 0.440267,-0.16933 0.118533,-0.11007 0.118533,-0.38947 v -3.79307 q 0,-0.28786 -0.1016,-0.41486 -0.1016,-0.13547 -0.4064,-0.20321 -0.110067,-0.0254 -0.1524,-0.0677 -0.04233,-0.0508 -0.04233,-0.11007 0,-0.0508 0.0508,-0.0847 0.0508,-0.0423 0.135466,-0.0423 0.2032,0 0.423334,0.008 0.220133,0.008 0.431793,0.0254 0.21167,0.008 0.4064,0.008 0.3302,0 0.71967,0 0.39793,0 0.762,0 0.34713,0 0.62654,-0.0423 0.28786,-0.0508 0.46566,-0.0508 0.0677,0 0.13547,0.0339 0.0677,0.0339 0.0762,0.127 0.0169,0.19473 0.0254,0.4064 0.008,0.21167 0.008,0.4064 0.008,0.19474 0.008,0.3302 0,0.16934 -0.1016,0.16934 -0.0423,0 -0.1016,-0.0339 -0.0508,-0.0339 -0.0677,-0.1016 -0.0593,-0.21167 -0.127,-0.37253 -0.0677,-0.16934 -0.1778,-0.2794 -0.11007,-0.11854 -0.26247,-0.16934 -0.14393,-0.0508 -0.34713,-0.0508 h -0.635 q -0.21167,0 -0.3302,0.11007 -0.11854,0.1016 -0.11854,0.2794 0,0.1524 0,0.3556 0,0.2032 0,0.36407 0,0.18626 0,0.4064 0,0.22013 0,0.4064 0,0.11006 0.0508,0.16086 0.0508,0.0423 0.14394,0.0423 0.21166,0 0.42333,0 0.21167,0 0.39793,0 0.22014,0 0.32174,-0.127 0.1016,-0.13547 0.1778,-0.31327 0.0339,-0.0677 0.0762,-0.11007 0.0508,-0.0423 0.0931,-0.0423 0.0423,0 0.0762,0.0508 0.0423,0.0508 0.0339,0.13547 -0.0169,0.1778 -0.0339,0.33866 -0.008,0.1524 -0.008,0.27094 0,0.16086 0.008,0.2794 0.008,0.11006 0.0254,0.3048 0.008,0.11006 -0.0169,0.16933 -0.0254,0.0508 -0.0677,0.0508 -0.0677,0 -0.127,-0.0593 -0.0508,-0.0677 -0.0762,-0.14393 -0.0677,-0.254 -0.16933,-0.33867 -0.1016,-0.0931 -0.254,-0.0931 -0.0931,0 -0.2032,0 -0.1016,0 -0.19473,0 -0.11854,0 -0.254,0 -0.127,0 -0.24554,0.008 -0.0931,0 -0.14393,0.0508 -0.0423,0.0508 -0.0423,0.14393 0,0.381 0,0.79587 0.008,0.41486 0.0169,0.79586 0,0.27094 0.14393,0.381 0.14394,0.11007 0.49954,0.18627 0.0847,0.0169 0.127,0.0593 0.0508,0.0339 0.0508,0.11006 0,0.0593 -0.0423,0.0931 -0.0339,0.0339 -0.11006,0.0339 -0.18627,0 -0.4318,-0.0169 -0.24554,-0.008 -0.4826,-0.0169 -0.23707,-0.008 -0.4064,-0.008 -0.16934,0 -0.381,0.008 -0.211666,0.008 -0.4318,0.0169 -0.220133,0.0169 -0.414867,0.0169 z"
         style="font-family:'eb garamond';-inkscape-font-specification:'eb garamond Bold'"
         id="path487" />
      <path
         d="m 104.946,119.63497 q -0.4572,0 -0.82127,-0.23707 -0.3556,-0.24553 -0.56727,-0.6604 -0.2032,-0.42333 -0.2032,-0.95673 0,-0.5334 0.24554,-0.9652 0.24553,-0.44027 0.66886,-0.69427 0.42334,-0.26247 0.93134,-0.26247 0.36406,0 0.65193,0.16087 0.28787,0.1524 0.4572,0.41487 0.1778,0.26246 0.1778,0.59266 0,0.32174 -0.26247,0.32174 h -1.69333 q -0.11853,0 -0.1778,0.0677 -0.0508,0.0677 -0.0508,0.2286 0,0.32173 0.14393,0.59267 0.14394,0.26246 0.38947,0.41486 0.24553,0.1524 0.56727,0.1524 0.24553,0 0.44873,-0.0931 0.21167,-0.0931 0.41487,-0.254 0.0339,-0.0254 0.0593,-0.0423 0.0339,-0.0254 0.0593,-0.0254 0.0847,0 0.0847,0.11006 0,0.0931 -0.0677,0.254 -0.0847,0.21167 -0.28786,0.42334 -0.19474,0.2032 -0.49107,0.3302 -0.29633,0.127 -0.67733,0.127 z m -0.41487,-2.6416 h 0.508 q 0.23707,0 0.3302,-0.008 0.0931,-0.008 0.16933,-0.0339 0.0423,-0.0169 0.0677,-0.0847 0.0254,-0.0677 0.0254,-0.1524 0,-0.2286 -0.16087,-0.37254 -0.1524,-0.14393 -0.381,-0.14393 -0.1778,0 -0.33867,0.1016 -0.1524,0.0931 -0.254,0.254 -0.0931,0.1524 -0.0847,0.32173 0,0.11854 0.11853,0.11854 z"
         style="font-family:'eb garamond';-inkscape-font-specification:'eb garamond Bold'"
         id="path489" />
    </g>
    <ellipse
       style="fill:#bbbbbb;fill-opacity:1;stroke:#000000;stroke-width:0.365001;stroke-opacity:1;stop-color:#000000"
       id="path10-3-0"
       cx="191.59825"
       cy="89.421303"
       rx="28.464207"
       ry="9.4880686" />
    <path
       style="fill:#555555;fill-opacity:1;stroke:#000000;stroke-width:0.255182px;stroke-linecap:butt;stroke-linejoin:miter;stroke-opacity:1"
       d="m 209.47181,86.547957 c 0.32995,-1.917336 -1.60362,-0.994461 -4.00904,-4.475075 -2.40542,-3.480633 -1.74675,-2.2851 -4.68671,-5.019878 -2.93997,-2.73476 -3.758,-3.718369 -5.47231,-5.470228 -1.03573,-1.058409 -5.74714,-3.115739 -7.48076,-1.825555 0,0 -3.20724,1.921534 -4.54359,4.904917 -1.33635,2.983402 -3.47451,4.178736 -4.54358,5.421821 -1.06908,1.243068 -4.00905,4.723682 -4.27632,6.215374 -0.26726,1.491692 -1.87088,3.23199 0.53454,4.226469 2.40543,0.994461 9.6217,1.243068 13.89802,1.988923 4.27631,0.745836 10.42351,-0.248625 12.02713,-0.994462 1.60361,-0.745855 8.02123,-1.884385 8.55262,-4.972306 z"
       id="path835-0-1"
       sodipodi:nodetypes="ssssssssssss" />
    <ellipse
       style="fill:#bbbbbb;fill-opacity:1;stroke:#000000;stroke-width:0.365001;stroke-opacity:1;stop-color:#000000"
       id="path10-3-0-7"
       cx="191.59825"
       cy="156.54587"
       rx="28.464207"
       ry="9.4880686" />
    <path
       style="fill:#555555;fill-opacity:1;stroke:#000000;stroke-width:0.231275px;stroke-linecap:butt;stroke-linejoin:miter;stroke-opacity:1"
       d="m 209.47193,154.78531 c 0.32996,-1.57491 -1.60361,-0.81685 -4.00903,-3.67585 -2.40543,-2.85901 -0.8963,-2.24364 -3.83626,-4.49001 -2.93997,-2.24635 -5.08092,-2.77346 -6.41727,-3.18189 -1.33635,-0.40844 -5.36915,-2.40409 -7.10277,-1.34432 0,0 -3.49072,0.47842 -4.82707,2.929 -1.33635,2.45057 -3.47451,3.43243 -4.54358,4.45351 -1.06908,1.02106 -4.00905,3.88006 -4.27632,5.10535 -0.26726,1.22528 -1.87089,2.65477 0.53454,3.47165 2.40543,0.81685 9.6217,1.02105 13.89802,1.6337 4.2763,0.61263 10.4235,-0.20422 12.02713,-0.81685 1.60361,-0.61264 8.02123,-1.54785 8.55261,-4.08429 z"
       id="path835-0-1-5"
       sodipodi:nodetypes="ssssssssssss" />
    <ellipse
       style="fill:#bbbbbb;fill-opacity:1;stroke:#000000;stroke-width:0.365001;stroke-opacity:1;stop-color:#000000"
       id="path10-5"
       cx="263.51202"
       cy="155.68953"
       rx="28.464207"
       ry="9.4880686" />
    <path
       style="fill:#f1dd38;fill-opacity:1;stroke:#000000;stroke-width:0.193608px;stroke-linecap:butt;stroke-linejoin:miter;stroke-opacity:1"
       d="m 245.64003,155.46037 c -0.32995,-1.10369 1.60362,-0.57245 4.00904,-2.57602 2.40543,-2.00356 0.80181,-3.00535 3.74178,-4.57958 2.93996,-1.57421 5.87993,-1.65338 7.21627,-1.9396 1.33635,-0.28623 8.41899,-0.54122 8.95353,0.0312 0.53454,0.57245 2.93997,1.46598 4.27631,3.18332 1.33635,1.71735 1.46999,1.44419 2.53906,2.15975 1.06908,0.71556 4.00905,2.71912 4.27632,3.57778 0.26727,0.85869 1.87088,1.86047 -0.53454,2.43292 -2.40543,0.57243 -9.6217,0.71556 -13.89802,1.14489 -4.27631,0.42934 -10.42351,-0.14311 -12.02713,-0.57246 -1.60361,-0.42932 -8.02123,-1.0847 -8.55262,-2.86222 z"
       id="path835-2"
       sodipodi:nodetypes="ssssssssssss" />
    <path
       style="fill:#4477aa;fill-opacity:1;stroke:#000000;stroke-width:0.264583px;stroke-linecap:butt;stroke-linejoin:miter;stroke-opacity:1"
       d="m 135.60371,110.90898 16.03617,-11.759855 -1.9377,-3.140416 9.02034,0.400904 -2.53906,8.084907 -2.67269,-2.6727 -15.50163,12.02713 z"
       id="path1015"
       sodipodi:nodetypes="cccccccc" />
    <path
       style="fill:#4477aa;fill-opacity:1;stroke:#000000;stroke-width:0.264583px;stroke-linecap:butt;stroke-linejoin:miter;stroke-opacity:1"
       d="m 137.59882,131.75877 16.27416,11.42825 2.35496,-2.84097 2.5075,8.67408 -8.47226,0.18242 1.67657,-3.38757 -16.35626,-10.83628 z"
       id="path1015-7"
       sodipodi:nodetypes="cccccccc" />
    <g
       aria-label="+"
       id="text1034"
       style="font-weight:bold;font-size:12.7px;line-height:1.25;font-family:'Liberation Sans';-inkscape-font-specification:'Liberation Sans Bold';text-align:center;letter-spacing:0px;word-spacing:0px;text-anchor:middle;stroke-width:0.17985">
      <path
         d="m 66.245041,125.9483 q -0.0508,0 -0.1143,-0.0635 -0.0508,-0.0635 -0.0508,-0.1397 v -2.5781 q 0,-0.1524 -0.1524,-0.1524 h -2.6543 q -0.0889,0 -0.1524,-0.0508 -0.0508,-0.0508 -0.0508,-0.1016 0,-0.1016 0.0254,-0.2413 0.0381,-0.1397 0.1143,-0.254 0.0889,-0.1143 0.2159,-0.1143 h 2.4892 q 0.1143,0 0.1397,-0.0381 0.0254,-0.0508 0.0254,-0.127 v -2.286 q 0,-0.127 0.1016,-0.2159 0.1143,-0.1016 0.254,-0.1524 0.1524,-0.0635 0.2413,-0.0635 0.0889,0 0.1397,0.0889 0.0508,0.0762 0.0508,0.1905 v 2.4384 q 0,0.1651 0.1397,0.1651 h 2.5908 q 0.1143,0 0.1905,0.0508 0.0889,0.0381 0.0889,0.1397 0,0.1651 -0.127,0.3683 -0.127,0.2032 -0.3048,0.2032 h -2.4257 q -0.1524,0 -0.1524,0.1524 v 2.4257 q 0,0.127 -0.127,0.2159 -0.1143,0.0762 -0.2667,0.1016 -0.1397,0.0381 -0.2286,0.0381 z"
         style="font-family:'EB Garamond';-inkscape-font-specification:'EB Garamond Bold'"
         id="path484" />
    </g>
    <g
       aria-label="+"
       id="text1034-5"
       style="font-weight:bold;font-size:12.7px;line-height:1.25;font-family:'Liberation Sans';-inkscape-font-specification:'Liberation Sans Bold';text-align:center;letter-spacing:0px;word-spacing:0px;text-anchor:middle;stroke-width:0.17985">
      <path
         d="m 227.32654,159.83517 q -0.0508,0 -0.1143,-0.0635 -0.0508,-0.0635 -0.0508,-0.1397 v -2.5781 q 0,-0.1524 -0.1524,-0.1524 h -2.6543 q -0.0889,0 -0.1524,-0.0508 -0.0508,-0.0508 -0.0508,-0.1016 0,-0.1016 0.0254,-0.2413 0.0381,-0.1397 0.1143,-0.254 0.0889,-0.1143 0.2159,-0.1143 h 2.4892 q 0.1143,0 0.1397,-0.0381 0.0254,-0.0508 0.0254,-0.127 v -2.286 q 0,-0.127 0.1016,-0.2159 0.1143,-0.1016 0.254,-0.1524 0.1524,-0.0635 0.2413,-0.0635 0.0889,0 0.1397,0.0889 0.0508,0.0762 0.0508,0.1905 v 2.4384 q 0,0.1651 0.1397,0.1651 h 2.5908 q 0.1143,0 0.1905,0.0508 0.0889,0.0381 0.0889,0.1397 0,0.1651 -0.127,0.3683 -0.127,0.2032 -0.3048,0.2032 h -2.4257 q -0.1524,0 -0.1524,0.1524 v 2.4257 q 0,0.127 -0.127,0.2159 -0.1143,0.0762 -0.2667,0.1016 -0.1397,0.0381 -0.2286,0.0381 z"
         style="font-family:'EB Garamond';-inkscape-font-specification:'EB Garamond Bold'"
         id="path536" />
    </g>
    <path
       style="fill:#ee6677;fill-opacity:1;stroke:#ee6677;stroke-width:0.862824;stroke-linecap:butt;stroke-linejoin:miter;stroke-miterlimit:4;stroke-dasharray:none;stroke-opacity:1"
       d="m 170.55367,58.554828 45.01468,45.014682"
       id="path1058" />
    <path
       style="fill:#ee6677;fill-opacity:1;stroke:#ee6677;stroke-width:0.862824;stroke-linecap:butt;stroke-linejoin:miter;stroke-miterlimit:4;stroke-dasharray:none;stroke-opacity:1"
       d="M 214.10559,59.208233 169.09091,104.22292"
       id="path1058-8" />
    <g
       aria-label="?"
       id="text1081"
       style="font-weight:bold;font-size:22.5778px;line-height:1.25;font-family:'Liberation Sans';-inkscape-font-specification:'Liberation Sans Bold';text-align:center;letter-spacing:0px;word-spacing:0px;text-anchor:middle;fill:#ee6677;stroke-width:0.264583">
      <path
         d="m 145.93743,126.19937 q -0.15804,0 -0.36124,-0.18062 -0.2032,-0.18062 -0.38382,-0.49671 -0.18063,-0.36125 -0.36125,-0.85796 -0.15804,-0.49671 -0.15804,-1.15147 0,-0.79022 0.65475,-1.35466 0.67734,-0.58703 1.98685,-1.19663 0.67733,-0.31609 1.06116,-0.69991 0.38382,-0.4064 0.38382,-1.016 0,-0.67733 -0.51929,-1.016 -0.49671,-0.36125 -1.17405,-0.38382 -0.47413,0 -0.72249,0.0903 -0.24835,0.0903 -0.38382,0.15804 -0.15804,0.0452 -0.33867,0.0903 -0.18062,0.0452 -0.4064,0.0452 -0.31609,0 -0.63217,-0.31609 -0.31609,-0.33867 -0.51929,-0.79022 -0.2032,-0.45156 -0.2032,-0.83538 0,-0.4064 0.47413,-0.74507 0.47413,-0.36124 1.08373,-0.36124 0.90312,0 1.73849,0.45155 0.83538,0.45156 1.58045,1.2192 0.54187,0.56445 0.90311,1.2192 0.38383,0.65476 0.58703,1.35467 0.22577,0.69991 0.22577,1.35467 0,0.90311 -0.33866,1.44498 -0.33867,0.51929 -0.74507,0.69991 -0.36125,0.18062 -0.67733,0.38382 -0.31609,0.18063 -0.65476,0.38383 -0.33867,0.18062 -0.69991,0.38382 -0.49671,0.27093 -0.67734,0.6096 -0.15804,0.31609 -0.24835,0.97084 0,0.24836 -0.13547,0.40641 -0.13547,0.13546 -0.33867,0.13546 z m -0.0226,4.22205 q -0.67734,0 -1.15147,-0.47413 -0.47414,-0.47414 -0.47414,-1.15147 0,-0.67734 0.47414,-1.15147 0.47413,-0.49671 1.15147,-0.49671 0.67733,0 1.15146,0.49671 0.47414,0.47413 0.47414,1.15147 0,0.67733 -0.47414,1.15147 -0.47413,0.47413 -1.15146,0.47413 z"
         style="font-family:'EB Garamond';-inkscape-font-specification:'EB Garamond Bold'"
         id="path501" />
    </g>
    <g
       aria-label="S + Fe  FeS"
       id="text1085"
       style="font-weight:bold;font-size:16.9333px;line-height:1.25;font-family:'Liberation Sans';-inkscape-font-specification:'Liberation Sans Bold';text-align:center;letter-spacing:0px;word-spacing:0px;text-anchor:middle;stroke-width:0.448148">
      <path
         d="m 27.078437,82.99822 q -0.711198,0 -1.320797,-0.220133 -0.592666,-0.203199 -1.066798,-0.592665 -0.06773,-0.06773 -0.135467,-0.1524 -0.0508,-0.08467 -0.08467,-0.186266 -0.08467,-0.338666 -0.118533,-0.880532 -0.01693,-0.541866 -0.0508,-0.897465 0,-0.118533 0.1016,-0.169333 0.1016,-0.06773 0.237066,-0.06773 0.08467,0 0.169333,0.0508 0.08467,0.03387 0.1016,0.135466 0.338666,1.303864 0.999064,1.862663 0.677332,0.558799 1.405464,0.558799 0.592666,0 1.049865,-0.253999 0.457199,-0.254 0.711199,-0.711199 0.270932,-0.474132 0.270932,-1.100664 0,-0.694266 -0.237066,-1.117598 -0.220133,-0.440266 -0.643465,-0.761999 -0.423333,-0.321732 -1.032932,-0.694265 -0.660398,-0.423333 -1.303864,-0.846665 -0.643465,-0.440266 -1.066798,-0.999065 -0.423332,-0.575732 -0.423332,-1.38853 0,-0.863599 0.389466,-1.557864 0.389466,-0.694265 1.168398,-1.100664 0.795865,-0.423333 1.981196,-0.423333 0.609598,0 1.049864,0.135466 0.457199,0.118534 0.728132,0.237067 0.135467,0.0508 0.220133,0.169333 0.1016,0.118533 0.135466,0.253999 0.1016,0.355599 0.220133,0.812799 0.118533,0.457199 0.118533,0.863598 0,0.186266 -0.253999,0.186266 -0.1524,0 -0.304799,-0.06773 -0.135467,-0.06773 -0.169333,-0.169333 -0.3556,-0.897465 -0.829732,-1.371597 -0.474133,-0.474133 -1.202264,-0.474133 -0.507999,0 -0.948265,0.186267 -0.440266,0.186266 -0.728132,0.609598 -0.270933,0.423333 -0.270933,1.134531 0,0.507999 0.321733,0.931332 0.338666,0.406399 0.880531,0.778932 0.541866,0.372532 1.168398,0.761998 0.592666,0.3556 1.151464,0.778932 0.575733,0.423333 0.931332,1.015998 0.372533,0.575732 0.372533,1.422397 0,0.999065 -0.4572,1.761063 -0.457199,0.745066 -1.28693,1.151465 -0.829732,0.406399 -1.94733,0.406399 z"
         style="font-weight:normal;font-family:'EB Garamond';-inkscape-font-specification:'EB Garamond'"
         id="path455" />
      <path
         d="m 39.65983,82.862754 q -0.06773,0 -0.135467,-0.08467 -0.06773,-0.06773 -0.06773,-0.1524 v -3.572926 q 0,-0.08467 -0.06773,-0.08467 H 35.96837 q -0.08467,0 -0.169333,-0.06773 -0.06773,-0.06773 -0.06773,-0.135466 0,-0.08467 0.03387,-0.237066 0.0508,-0.1524 0.135466,-0.270933 0.08467,-0.135466 0.237066,-0.135466 h 3.200394 q 0.08467,0 0.1016,-0.03387 0.01693,-0.03387 0.01693,-0.1016 v -2.895594 q 0,-0.186266 0.169333,-0.304799 0.169333,-0.118534 0.3556,-0.169333 0.203199,-0.0508 0.253999,-0.0508 0.08467,0 0.1524,0.06773 0.08467,0.06773 0.08467,0.1524 v 3.23426 q 0,0.1016 0.03387,0.1016 h 3.471326 q 0.08467,0 0.1524,0.0508 0.06773,0.03387 0.06773,0.118533 0,0.220133 -0.152399,0.457199 -0.135467,0.220133 -0.372533,0.220133 h -3.132661 q -0.06773,0 -0.06773,0.06773 v 3.420526 q 0,0.169333 -0.169333,0.270933 -0.169333,0.08467 -0.372532,0.1016 -0.186267,0.03387 -0.270933,0.03387 z"
         style="font-weight:normal;font-family:'EB Garamond';-inkscape-font-specification:'EB Garamond'"
         id="path457" />
      <path
         d="m 49.260962,82.811954 q -0.220133,0 -0.355599,-0.0508 -0.135466,-0.03387 -0.135466,-0.135467 0,-0.203199 0.558798,-0.304799 0.643466,-0.118533 0.880532,-0.389466 0.254,-0.270933 0.254,-0.897465 v -7.145852 q 0,-0.761999 -0.2032,-1.168398 -0.186266,-0.406399 -0.829732,-0.524932 -0.287866,-0.0508 -0.423332,-0.135467 -0.135467,-0.08467 -0.135467,-0.203199 0,-0.1016 0.135467,-0.135467 0.135466,-0.0508 0.355599,-0.0508 0.626532,0 1.049865,0.01693 0.440265,0.01693 0.863598,0.03387 0.423332,0 0.999065,0 0.491065,0 1.049864,0 0.558799,0 1.083731,0 0.541866,0 0.948265,-0.08467 0.423333,-0.08467 0.728132,-0.08467 0.08467,0 0.186266,0.03387 0.1016,0.03387 0.118534,0.118533 0.03387,0.186266 0.0508,0.558799 0.01693,0.355599 0.01693,0.694265 0.01693,0.338666 0.01693,0.457199 0,0.3556 -0.1524,0.3556 -0.08467,0 -0.152399,-0.0508 -0.06773,-0.06773 -0.1016,-0.1524 -0.06773,-0.287866 -0.169333,-0.491066 -0.1016,-0.220133 -0.220133,-0.338666 -0.237066,-0.270933 -0.524932,-0.355599 -0.287866,-0.1016 -0.609599,-0.1016 h -2.150529 q -0.389466,0 -0.474133,0.254 -0.08467,0.253999 -0.101599,0.592665 -0.01693,0.321733 -0.01693,0.795865 0,0.457199 0,0.897465 0,0.423333 0,0.863598 0,0.440266 0.01693,0.745066 0,0.135466 0.01693,0.253999 0.03387,0.118533 0.1524,0.118533 0.541865,0 1.100664,-0.01693 0.558799,-0.03387 0.863598,-0.03387 0.372533,0 0.643466,-0.203199 0.270933,-0.2032 0.389466,-0.491066 0.03387,-0.06773 0.135466,-0.169333 0.1016,-0.118533 0.169333,-0.118533 0.06773,0 0.1524,0.08467 0.08467,0.06773 0.06773,0.186267 -0.01693,0.287866 -0.03387,0.507999 -0.01693,0.220133 -0.01693,0.423332 0,0.254 0.01693,0.524933 0.01693,0.253999 0.03387,0.626532 0,0.118533 -0.03387,0.203199 -0.01693,0.08467 -0.118533,0.08467 -0.169333,0 -0.270933,-0.1524 -0.08467,-0.1524 -0.118533,-0.237066 -0.118533,-0.389466 -0.355599,-0.524932 -0.237066,-0.1524 -0.440266,-0.1524 -0.220133,0 -0.440266,0 -0.203199,-0.01693 -0.406399,-0.01693 -0.287866,0 -0.558799,0 -0.270932,0 -0.541865,0.03387 -0.169333,0.01693 -0.287866,0.118533 -0.118533,0.08467 -0.118533,0.3048 0,0.778931 0,1.59173 0.01693,0.795865 0.0508,1.64253 0.03387,0.541866 0.254,0.863598 0.237066,0.321733 0.863598,0.440266 0.287866,0.0508 0.423333,0.118533 0.135466,0.06773 0.135466,0.186266 0,0.1016 -0.135466,0.135467 -0.135467,0.0508 -0.3556,0.0508 -0.457199,0 -0.711198,-0.03387 -0.237066,-0.03387 -0.440266,-0.0508 -0.186266,-0.03387 -0.507999,-0.03387 -0.406399,0 -0.728132,0.03387 -0.304799,0.01693 -0.626532,0.0508 -0.321733,0.03387 -0.778932,0.03387 z"
         style="font-weight:normal;font-family:'EB Garamond';-inkscape-font-specification:'EB Garamond'"
         id="path459" />
      <path
         d="m 60.030516,82.981287 q -0.931332,0 -1.625597,-0.457199 -0.694265,-0.457199 -1.083731,-1.286931 -0.389466,-0.846665 -0.389466,-1.94733 0,-0.982131 0.440266,-1.777996 0.457199,-0.812799 1.202264,-1.303864 0.745065,-0.491066 1.625597,-0.491066 0.677332,0 1.202264,0.270933 0.524932,0.270933 0.812798,0.761998 0.3048,0.474133 0.3048,1.100665 0,0.524932 -0.507999,0.524932 h -3.572927 q -0.237066,0 -0.338666,0.135467 -0.08467,0.118533 -0.08467,0.491065 0,0.812799 0.355599,1.490131 0.3556,0.660398 0.948265,1.066798 0.592666,0.389465 1.303864,0.389465 0.507999,0 0.914398,-0.186266 0.423333,-0.203199 0.745066,-0.575732 0.06773,-0.08467 0.101599,-0.1016 0.03387,-0.03387 0.08467,-0.03387 0.135466,0 0.135466,0.169333 0,0.321732 -0.304799,0.711198 -0.254,0.321733 -0.609599,0.558799 -0.355599,0.237066 -0.778932,0.355599 -0.423332,0.135467 -0.880531,0.135467 z m -1.557864,-5.13079 h 1.54093 q 0.4064,0 0.694266,-0.01693 0.287866,-0.01693 0.558799,-0.06773 0.08467,-0.01693 0.101599,-0.101599 0.03387,-0.1016 0.03387,-0.270933 0,-0.491066 -0.440266,-0.829732 -0.423332,-0.355599 -1.015998,-0.355599 -0.389466,0 -0.778932,0.237066 -0.389466,0.220133 -0.643465,0.558799 -0.254,0.338666 -0.254,0.677332 0,0.169333 0.2032,0.169333 z"
         style="font-weight:normal;font-family:'EB Garamond';-inkscape-font-specification:'EB Garamond'"
         id="path461" />
      <path
         d="m 78.589381,80.830758 q -0.169333,0 -0.169333,-0.118533 0,-0.01693 0,-0.03387 0,-0.01693 0.01693,-0.03387 0.203199,-0.524932 0.474132,-0.965198 0.270933,-0.457199 0.558799,-0.829731 0.304799,-0.372533 0.592665,-0.677332 H 67.481137 q -0.135467,0 -0.186267,-0.08467 -0.03387,-0.08467 -0.03387,-0.1524 0,-0.135466 0.06773,-0.253999 0.06773,-0.135467 0.186266,-0.2032 0.135467,-0.08467 0.270933,-0.08467 H 80.062578 Q 79.791646,77.105432 79.50378,76.749832 79.215913,76.3773 78.961914,75.970901 q -0.254,-0.423333 -0.423333,-0.846665 -0.101599,-0.237067 -0.06773,-0.3048 0.03387,-0.08467 0.135467,-0.08467 0.118533,0 0.253999,0.0508 0.135467,0.0508 0.2032,0.135466 0.355599,0.372533 0.728132,0.745065 0.372532,0.355599 0.761998,0.694265 0.389466,0.338666 0.812799,0.643466 0.440265,0.304799 0.931331,0.558799 0.2032,0.118533 0.2032,0.220133 0,0.06773 -0.03387,0.101599 -0.01693,0.03387 -0.186266,0.118534 -0.491066,0.253999 -0.931332,0.558798 -0.423332,0.3048 -0.812798,0.643466 -0.389466,0.338666 -0.761999,0.711198 -0.372532,0.3556 -0.728132,0.728132 -0.06773,0.06773 -0.203199,0.135467 -0.135467,0.0508 -0.254,0.0508 z"
         style="font-weight:normal;font-family:'EB Garamond';-inkscape-font-specification:'EB Garamond'"
         id="path463" />
      <path
         d="m 87.733311,82.811954 q -0.220132,0 -0.355599,-0.0508 -0.135466,-0.03387 -0.135466,-0.135467 0,-0.203199 0.558799,-0.304799 0.643465,-0.118533 0.880531,-0.389466 0.254,-0.270933 0.254,-0.897465 v -7.145852 q 0,-0.761999 -0.2032,-1.168398 -0.186266,-0.406399 -0.829732,-0.524932 -0.287866,-0.0508 -0.423332,-0.135467 -0.135466,-0.08467 -0.135466,-0.203199 0,-0.1016 0.135466,-0.135467 0.135466,-0.0508 0.355599,-0.0508 0.626532,0 1.049865,0.01693 0.440266,0.01693 0.863598,0.03387 0.423333,0 0.999065,0 0.491066,0 1.049864,0 0.558799,0 1.083732,0 0.541865,0 0.948264,-0.08467 0.423333,-0.08467 0.728132,-0.08467 0.08467,0 0.186267,0.03387 0.101599,0.03387 0.118533,0.118533 0.03387,0.186266 0.0508,0.558799 0.01693,0.355599 0.01693,0.694265 0.01693,0.338666 0.01693,0.457199 0,0.3556 -0.152399,0.3556 -0.08467,0 -0.1524,-0.0508 -0.06773,-0.06773 -0.1016,-0.1524 -0.06773,-0.287866 -0.169333,-0.491066 -0.1016,-0.220133 -0.220133,-0.338666 -0.237066,-0.270933 -0.524932,-0.355599 -0.287866,-0.1016 -0.609599,-0.1016 h -2.150529 q -0.389466,0 -0.474132,0.254 -0.08467,0.253999 -0.1016,0.592665 -0.01693,0.321733 -0.01693,0.795865 0,0.457199 0,0.897465 0,0.423333 0,0.863598 0,0.440266 0.01693,0.745066 0,0.135466 0.01693,0.253999 0.03387,0.118533 0.1524,0.118533 0.541865,0 1.100664,-0.01693 0.558799,-0.03387 0.863599,-0.03387 0.372532,0 0.643465,-0.203199 0.270933,-0.2032 0.389466,-0.491066 0.03387,-0.06773 0.135466,-0.169333 0.1016,-0.118533 0.169333,-0.118533 0.06773,0 0.1524,0.08467 0.08467,0.06773 0.06773,0.186267 -0.01693,0.287866 -0.03387,0.507999 -0.01693,0.220133 -0.01693,0.423332 0,0.254 0.01693,0.524933 0.01693,0.253999 0.03387,0.626532 0,0.118533 -0.03387,0.203199 -0.01693,0.08467 -0.118534,0.08467 -0.169333,0 -0.270932,-0.1524 -0.08467,-0.1524 -0.118533,-0.237066 -0.118534,-0.389466 -0.3556,-0.524932 -0.237066,-0.1524 -0.440266,-0.1524 -0.220132,0 -0.440265,0 -0.2032,-0.01693 -0.4064,-0.01693 -0.287866,0 -0.558798,0 -0.270933,0 -0.541866,0.03387 -0.169333,0.01693 -0.287866,0.118533 -0.118533,0.08467 -0.118533,0.3048 0,0.778931 0,1.59173 0.01693,0.795865 0.0508,1.64253 0.03387,0.541866 0.253999,0.863598 0.237066,0.321733 0.863598,0.440266 0.287867,0.0508 0.423333,0.118533 0.135466,0.06773 0.135466,0.186266 0,0.1016 -0.135466,0.135467 -0.135466,0.0508 -0.355599,0.0508 -0.457199,0 -0.711199,-0.03387 -0.237066,-0.03387 -0.440266,-0.0508 -0.186266,-0.03387 -0.507999,-0.03387 -0.406399,0 -0.728132,0.03387 -0.304799,0.01693 -0.626532,0.0508 -0.321732,0.03387 -0.778932,0.03387 z"
         style="font-weight:normal;font-family:'EB Garamond';-inkscape-font-specification:'EB Garamond'"
         id="path465" />
      <path
         d="m 98.502863,82.981287 q -0.931332,0 -1.625597,-0.457199 -0.694265,-0.457199 -1.083731,-1.286931 -0.389466,-0.846665 -0.389466,-1.94733 0,-0.982131 0.440266,-1.777996 0.457199,-0.812799 1.202264,-1.303864 0.745065,-0.491066 1.625597,-0.491066 0.677332,0 1.202264,0.270933 0.52493,0.270933 0.8128,0.761998 0.3048,0.474133 0.3048,1.100665 0,0.524932 -0.508,0.524932 h -3.572927 q -0.237066,0 -0.338666,0.135467 -0.08467,0.118533 -0.08467,0.491065 0,0.812799 0.3556,1.490131 0.355599,0.660398 0.948264,1.066798 0.592666,0.389465 1.303864,0.389465 0.507999,0 0.914405,-0.186266 0.42333,-0.203199 0.74506,-0.575732 0.0677,-0.08467 0.1016,-0.1016 0.0339,-0.03387 0.0847,-0.03387 0.13546,0 0.13546,0.169333 0,0.321732 -0.30479,0.711198 -0.254,0.321733 -0.6096,0.558799 -0.355606,0.237066 -0.778938,0.355599 -0.423333,0.135467 -0.880532,0.135467 z m -1.557864,-5.13079 h 1.540931 q 0.406399,0 0.694265,-0.01693 0.287866,-0.01693 0.558799,-0.06773 0.08467,-0.01693 0.1016,-0.101599 0.03387,-0.1016 0.03387,-0.270933 0,-0.491066 -0.440266,-0.829732 -0.423332,-0.355599 -1.015998,-0.355599 -0.389465,0 -0.778931,0.237066 -0.389466,0.220133 -0.643466,0.558799 -0.253999,0.338666 -0.253999,0.677332 0,0.169333 0.203199,0.169333 z"
         style="font-weight:normal;font-family:'EB Garamond';-inkscape-font-specification:'EB Garamond'"
         id="path467" />
      <path
         d="m 104.95444,82.99822 q -0.71119,0 -1.32079,-0.220133 -0.59267,-0.203199 -1.0668,-0.592665 -0.0677,-0.06773 -0.13547,-0.1524 -0.0508,-0.08467 -0.0847,-0.186266 -0.0847,-0.338666 -0.11854,-0.880532 -0.0169,-0.541866 -0.0508,-0.897465 0,-0.118533 0.1016,-0.169333 0.1016,-0.06773 0.23707,-0.06773 0.0847,0 0.16933,0.0508 0.0847,0.03387 0.1016,0.135466 0.33867,1.303864 0.99907,1.862663 0.67733,0.558799 1.40546,0.558799 0.59267,0 1.04987,-0.253999 0.45719,-0.254 0.71119,-0.711199 0.27094,-0.474132 0.27094,-1.100664 0,-0.694266 -0.23707,-1.117598 -0.22013,-0.440266 -0.64347,-0.761999 -0.42333,-0.321732 -1.03293,-0.694265 -0.6604,-0.423333 -1.30386,-0.846665 -0.64347,-0.440266 -1.0668,-0.999065 -0.42333,-0.575732 -0.42333,-1.38853 0,-0.863599 0.38946,-1.557864 0.38947,-0.694265 1.1684,-1.100664 0.79587,-0.423333 1.9812,-0.423333 0.6096,0 1.04986,0.135466 0.4572,0.118534 0.72814,0.237067 0.13546,0.0508 0.22013,0.169333 0.1016,0.118533 0.13546,0.253999 0.1016,0.355599 0.22014,0.812799 0.11853,0.457199 0.11853,0.863598 0,0.186266 -0.254,0.186266 -0.1524,0 -0.3048,-0.06773 -0.13546,-0.06773 -0.16933,-0.169333 -0.3556,-0.897465 -0.82973,-1.371597 -0.47414,-0.474133 -1.20227,-0.474133 -0.508,0 -0.94826,0.186267 -0.44027,0.186266 -0.72813,0.609598 -0.27094,0.423333 -0.27094,1.134531 0,0.507999 0.32174,0.931332 0.33866,0.406399 0.88053,0.778932 0.54186,0.372532 1.1684,0.761998 0.59266,0.3556 1.15146,0.778932 0.57573,0.423333 0.93133,1.015998 0.37253,0.575732 0.37253,1.422397 0,0.999065 -0.4572,1.761063 -0.45719,0.745066 -1.28693,1.151465 -0.82973,0.406399 -1.94733,0.406399 z"
         style="font-weight:normal;font-family:'EB Garamond';-inkscape-font-specification:'EB Garamond'"
         id="path469" />
    </g>
    <rect
       style="fill:none;fill-opacity:1;stroke:#000000;stroke-width:0.609;stroke-miterlimit:4;stroke-dasharray:none;stroke-opacity:1;stop-color:#000000"
       id="rect1095"
       width="108.13267"
       height="19.914751"
       x="12.407307"
       y="67.283524" />
  </g>
</svg>
