<?xml version="1.0" encoding="UTF-8" standalone="no"?>
<svg
   xmlns:i="http://ns.adobe.com/AdobeIllustrator/10.0/"
   xmlns:a="http://ns.adobe.com/AdobeSVGViewerExtensions/3.0/"
   xmlns:dc="http://purl.org/dc/elements/1.1/"
   xmlns:cc="http://creativecommons.org/ns#"
   xmlns:rdf="http://www.w3.org/1999/02/22-rdf-syntax-ns#"
   xmlns:svg="http://www.w3.org/2000/svg"
   xmlns="http://www.w3.org/2000/svg"
   xmlns:sodipodi="http://sodipodi.sourceforge.net/DTD/sodipodi-0.dtd"
   xmlns:inkscape="http://www.inkscape.org/namespaces/inkscape"
   width="442.63483"
   height="223.32071"
   id="svg2"
   sodipodi:version="0.32"
   inkscape:version="1.0 (4035a4f, 2020-05-01)"
   sodipodi:docname="elevador-hidraulico.svg"
   inkscape:output_extension="org.inkscape.output.svg.inkscape"
   version="1.0"
   inkscape:export-filename="/Users/rodrigoalcarazdelaosa/Documents/GitHub/rodrigoalcarazdelaosa.me/static/img/fluidos-4ESO/elevador-hidraulico.png"
   inkscape:export-xdpi="300.15277"
   inkscape:export-ydpi="300.15277">
  <defs
     id="defs4">
    <linearGradient
       y2="359.5"
       y1="359.5"
       x2="631.50012"
       x1="-91.5"
       id="XMLID_1_"
       gradientUnits="userSpaceOnUse"
       gradientTransform="rotate(90,269.5,361.5)">
      <stop
         id="stop933"
         style="stop-color:#bbccee;stop-opacity:1"
         offset="0" />
      <stop
         id="stop947"
         style="stop-color:#2a54a9;stop-opacity:1"
         offset="1" />
      <a:midPointStop
         style="stop-color:#FFFFFF"
         offset="0" />
      <a:midPointStop
         style="stop-color:#FFFFFF"
         offset="0.72" />
      <a:midPointStop
         style="stop-color:#F86894"
         offset="1" />
    </linearGradient>
    <linearGradient
       y2="359.5"
       y1="359.5"
       x2="631.50012"
       x1="-91.5"
       id="linearGradient931"
       gradientUnits="userSpaceOnUse"
       gradientTransform="rotate(90,269.5,361.5)">
      <stop
         id="stop915"
         style="stop-color:#FFFFFF"
         offset="0" />
      <stop
         id="stop917"
         style="stop-color:#FFFBFC"
         offset="0.172" />
      <stop
         id="stop919"
         style="stop-color:#FEF0F4;stop-opacity:0"
         offset="0.3334" />
      <stop
         id="stop921"
         style="stop-color:#FDDDE5;stop-opacity:0"
         offset="0.4908" />
      <stop
         id="stop923"
         style="stop-color:#FCC3D1"
         offset="0.6456" />
      <stop
         id="stop925"
         style="stop-color:#FAA1B9"
         offset="0.7985" />
      <stop
         id="stop927"
         style="stop-color:#F8789E"
         offset="0.948" />
      <stop
         id="stop929"
         style="stop-color:#F86894"
         offset="1" />
      <a:midPointStop
         style="stop-color:#FFFFFF"
         offset="0" />
      <a:midPointStop
         style="stop-color:#FFFFFF"
         offset="0.72" />
      <a:midPointStop
         style="stop-color:#F86894"
         offset="1" />
    </linearGradient>
    <marker
       inkscape:stockid="Arrow2Lend"
       orient="auto"
       refY="0"
       refX="0"
       id="Arrow2Lend"
       style="overflow:visible"
       inkscape:isstock="true">
      <path
         id="path1551"
         style="fill:#000000;fill-opacity:1;fill-rule:evenodd;stroke:#000000;stroke-width:0.625;stroke-linejoin:round;stroke-opacity:1"
         d="M 8.7185878,4.0337352 -2.2072895,0.01601326 8.7185884,-4.0017078 c -1.7454984,2.3720609 -1.7354408,5.6174519 -6e-7,8.035443 z"
         transform="matrix(-1.1,0,0,-1.1,-1.1,0)" />
    </marker>
    <marker
       inkscape:isstock="true"
       style="overflow:visible"
       id="Arrow2Lend-0"
       refX="0"
       refY="0"
       orient="auto"
       inkscape:stockid="Arrow2Lend">
      <path
         transform="matrix(-1.1,0,0,-1.1,-1.1,0)"
         d="M 8.7185878,4.0337352 -2.2072895,0.01601326 8.7185884,-4.0017078 c -1.7454984,2.3720609 -1.7354408,5.6174519 -6e-7,8.035443 z"
         style="fill:#000000;fill-opacity:1;fill-rule:evenodd;stroke:#000000;stroke-width:0.625;stroke-linejoin:round;stroke-opacity:1"
         id="path1551-6" />
    </marker>
    <linearGradient
       id="linearGradient3402">
      <stop
         style="stop-color:#bababa;stop-opacity:1;"
         offset="0"
         id="stop3404" />
      <stop
         id="stop3406"
         offset="0.44630551"
         style="stop-color:#727272;stop-opacity:1;" />
      <stop
         style="stop-color:#ffffff;stop-opacity:1;"
         offset="1"
         id="stop3408" />
    </linearGradient>
    <linearGradient
       id="linearGradient3184">
      <stop
         id="stop3186"
         offset="0"
         style="stop-color:#bababa;stop-opacity:1;" />
      <stop
         style="stop-color:#727272;stop-opacity:1;"
         offset="0.5"
         id="stop3190" />
      <stop
         id="stop3188"
         offset="1"
         style="stop-color:#ffffff;stop-opacity:1;" />
    </linearGradient>
    <marker
       inkscape:isstock="true"
       style="overflow:visible"
       id="Arrow2Lend-5"
       refX="0"
       refY="0"
       orient="auto"
       inkscape:stockid="Arrow2Lend">
      <path
         transform="matrix(-1.1,0,0,-1.1,-1.1,0)"
         d="M 8.7185878,4.0337352 -2.2072895,0.01601326 8.7185884,-4.0017078 c -1.7454984,2.3720609 -1.7354408,5.6174519 -6e-7,8.035443 z"
         style="fill:#000000;fill-opacity:1;fill-rule:evenodd;stroke:#000000;stroke-width:0.625;stroke-linejoin:round;stroke-opacity:1"
         id="path1551-2" />
    </marker>
    <marker
       inkscape:stockid="Arrow2Lend"
       orient="auto"
       refY="0"
       refX="0"
       id="Arrow2Lend-5-8"
       style="overflow:visible"
       inkscape:isstock="true">
      <path
         id="path1551-2-2"
         style="fill:#000000;fill-opacity:1;fill-rule:evenodd;stroke:#000000;stroke-width:0.625;stroke-linejoin:round;stroke-opacity:1"
         d="M 8.7185878,4.0337352 -2.2072895,0.01601326 8.7185884,-4.0017078 c -1.7454984,2.3720609 -1.7354408,5.6174519 -6e-7,8.035443 z"
         transform="matrix(-1.1,0,0,-1.1,-1.1,0)" />
    </marker>
  </defs>
  <sodipodi:namedview
     id="base"
     pagecolor="#ffffff"
     bordercolor="#666666"
     borderopacity="1.0"
     gridtolerance="10000"
     guidetolerance="10"
     objecttolerance="10"
     inkscape:pageopacity="0.0"
     inkscape:pageshadow="2"
     inkscape:zoom="1.4368708"
     inkscape:cx="197.54599"
     inkscape:cy="24.284512"
     inkscape:document-units="px"
     inkscape:current-layer="layer1"
     showgrid="false"
     inkscape:window-width="1440"
     inkscape:window-height="900"
     inkscape:window-x="0"
     inkscape:window-y="0"
     inkscape:showpageshadow="false"
     inkscape:window-maximized="0"
     showguides="true"
     inkscape:guide-bbox="true"
     inkscape:snap-smooth-nodes="false"
     inkscape:object-paths="true"
     inkscape:object-nodes="true"
     inkscape:snap-global="false"
     fit-margin-top="0"
     fit-margin-left="0"
     fit-margin-right="0"
     fit-margin-bottom="0"
     inkscape:document-rotation="0" />
  <metadata
     id="metadata7">
    <rdf:RDF>
      <cc:Work
         rdf:about="">
        <dc:format>image/svg+xml</dc:format>
        <dc:type
           rdf:resource="http://purl.org/dc/dcmitype/StillImage" />
        <dc:title></dc:title>
      </cc:Work>
    </rdf:RDF>
  </metadata>
  <g
     inkscape:label="Layer 1"
     inkscape:groupmode="layer"
     id="layer1"
     transform="translate(-111.45966,-290.70396)">
    <g
       style="display:none;stroke:#000000"
       display="none"
       i:dimmedPercent="100"
       i:layer="yes"
       i:printed="no"
       i:rgbTrio="#4F008000FFFF"
       i:visible="no"
       id="Layer_1"
       transform="translate(197.21078,-251.10507)">
      <linearGradient
         gradientTransform="rotate(90,269.5,361.5)"
         gradientUnits="userSpaceOnUse"
         id="XMLID_1_-5"
         x1="-91.5"
         x2="631.50012"
         y1="359.5"
         y2="359.5">
        <stop
           offset="0"
           style="stop-color:#FFFFFF"
           id="stop3234" />
        <stop
           offset="0.172"
           style="stop-color:#FFFBFC"
           id="stop3236" />
        <stop
           offset="0.3334"
           style="stop-color:#FEF0F4"
           id="stop3238" />
        <stop
           offset="0.4908"
           style="stop-color:#FDDDE5"
           id="stop3240" />
        <stop
           offset="0.6456"
           style="stop-color:#FCC3D1"
           id="stop3242" />
        <stop
           offset="0.7985"
           style="stop-color:#FAA1B9"
           id="stop3244" />
        <stop
           offset="0.948"
           style="stop-color:#F8789E"
           id="stop3246" />
        <stop
           offset="1"
           style="stop-color:#F86894"
           id="stop3248" />
        <a:midPointStop
           offset="0"
           style="stop-color:#FFFFFF" />
        <a:midPointStop
           offset="0.72"
           style="stop-color:#FFFFFF" />
        <a:midPointStop
           offset="1"
           style="stop-color:#F86894" />
      </linearGradient>
      <path
         style="display:inline;fill:url(#XMLID_1_-5)"
         d="M 542.5,722.5 V 0.5 H 0.5 v 722 z"
         display="inline"
         i:knockout="Off"
         id="path3250"
         inkscape:connector-curvature="0" />
    </g>
    <path
       d=""
       id="path3323"
       i:knockout="Off"
       style="fill:#000000;fill-opacity:1;stroke:#000000"
       inkscape:export-filename="/home/olivier/tropebil/aero/documents/cc/figures/thermodynamics/cric.png"
       inkscape:export-xdpi="237.95"
       inkscape:export-ydpi="237.95"
       inkscape:connector-curvature="0" />
    <path
       d=""
       id="path3325"
       i:knockout="Off"
       style="fill:#000000;fill-opacity:1;stroke:#000000;stroke-width:0.8885"
       inkscape:export-filename="/home/olivier/tropebil/aero/documents/cc/figures/thermodynamics/cric.png"
       inkscape:export-xdpi="237.95"
       inkscape:export-ydpi="237.95"
       inkscape:connector-curvature="0" />
    <path
       d=""
       id="path3668"
       i:knockout="Off"
       style="fill:#000000;fill-opacity:1;stroke:#000000;stroke-width:0.8885"
       inkscape:export-filename="/home/olivier/tropebil/aero/documents/cc/figures/thermodynamics/cric.png"
       inkscape:export-xdpi="237.95"
       inkscape:export-ydpi="237.95"
       inkscape:connector-curvature="0" />
    <path
       d=""
       id="path3670"
       i:knockout="Off"
       style="fill:#000000;fill-opacity:1;stroke:#000000;stroke-width:0.8885"
       inkscape:export-filename="/home/olivier/tropebil/aero/documents/cc/figures/thermodynamics/cric.png"
       inkscape:export-xdpi="237.95"
       inkscape:export-ydpi="237.95"
       inkscape:connector-curvature="0" />
    <path
       d=""
       id="path3682"
       i:knockout="Off"
       style="fill:#000000;fill-opacity:1;stroke:#000000;stroke-width:0.8885"
       inkscape:export-filename="/home/olivier/tropebil/aero/documents/cc/figures/thermodynamics/cric.png"
       inkscape:export-xdpi="237.95"
       inkscape:export-ydpi="237.95"
       inkscape:connector-curvature="0" />
    <path
       d=""
       id="path3686"
       i:knockout="Off"
       style="fill:#000000;fill-opacity:1;stroke:#000000;stroke-width:0.8885"
       inkscape:export-filename="/home/olivier/tropebil/aero/documents/cc/figures/thermodynamics/cric.png"
       inkscape:export-xdpi="237.95"
       inkscape:export-ydpi="237.95"
       inkscape:connector-curvature="0" />
    <g
       style="stroke:#000000"
       i:dimmedPercent="100"
       i:layer="yes"
       i:rgbTrio="#4F00FFFF4F00"
       id="Layer_4"
       transform="translate(197.21078,-251.10507)"
       inkscape:export-filename="/home/olivier/tropebil/aero/documents/cc/figures/thermodynamics/cric.png"
       inkscape:export-xdpi="237.95"
       inkscape:export-ydpi="237.95" />
    <text
       xml:space="preserve"
       style="font-style:normal;font-weight:normal;font-size:21.3333px;line-height:1.25;font-family:sans-serif;fill:#000000;fill-opacity:1;stroke:none"
       x="131.59666"
       y="364.89984"
       id="text1892"><tspan
         sodipodi:role="line"
         id="tspan1890"
         x="131.59666"
         y="364.89984"
         style="font-style:normal;font-variant:normal;font-weight:normal;font-stretch:normal;font-size:21.3333px;font-family:'EB Garamond';-inkscape-font-specification:'EB Garamond'"><tspan
           style="font-style:italic;font-variant:normal;font-weight:normal;font-stretch:normal;font-family:'EB Garamond';-inkscape-font-specification:'EB Garamond Italic'"
           id="tspan56">F</tspan><tspan
           style="font-size:65%;baseline-shift:sub"
           id="tspan1894">1</tspan></tspan></text>
    <text
       id="text1892-9"
       y="342.8364"
       x="401.82669"
       style="font-style:normal;font-weight:normal;font-size:21.3333px;line-height:1.25;font-family:sans-serif;fill:#000000;fill-opacity:1;stroke:none"
       xml:space="preserve"><tspan
         style="font-style:normal;font-variant:normal;font-weight:normal;font-stretch:normal;font-size:21.3333px;font-family:'EB Garamond';-inkscape-font-specification:'EB Garamond';fill:#ffffff;fill-opacity:1"
         y="342.8364"
         x="401.82669"
         id="tspan1890-4"
         sodipodi:role="line"><tspan
           style="font-style:italic;font-variant:normal;font-weight:normal;font-stretch:normal;font-family:'EB Garamond';-inkscape-font-specification:'EB Garamond Italic';fill:#ffffff;fill-opacity:1"
           id="tspan62">F</tspan><tspan
           id="tspan1894-1"
           style="font-size:65%;baseline-shift:sub;fill:#ffffff;fill-opacity:1">2</tspan></tspan></text>
    <path
       inkscape:connector-curvature="0"
       inkscape:export-ydpi="237.95"
       inkscape:export-xdpi="237.95"
       inkscape:export-filename="/home/olivier/aero/documents/cc/figures/thermodynamics/cric.png"
       sodipodi:nodetypes="cccccccccc"
       id="path4249-0"
       d="m 131.37435,446.56931 v 50.38393 h 202.4871 v 16.57142 H 457.6293 V 434.39073 H 333.84805 v 48.86162 H 146.89716 v -36.68304"
       style="fill:#bbccee;fill-opacity:1;stroke:none" />
    <path
       style="fill:none;stroke:#000000;stroke-width:1px;stroke-linecap:butt;stroke-linejoin:miter;stroke-opacity:1"
       d="m 333.84805,406.39073 v 76.86162 H 146.89716 v -58.68304 m -15.52281,0 v 72.38393 h 202.4871 v 16.57142 H 457.6293 V 406.39073"
       id="path2383-5"
       sodipodi:nodetypes="cccccccccc"
       inkscape:export-filename="/home/olivier/aero/documents/cc/figures/thermodynamics/cric.png"
       inkscape:export-xdpi="237.95"
       inkscape:export-ydpi="237.95"
       inkscape:connector-curvature="0" />
    <path
       style="fill:#555555;fill-opacity:1;fill-rule:evenodd;stroke:#000000;stroke-width:1px;stroke-linecap:butt;stroke-linejoin:miter;stroke-opacity:1"
       d="m 137.62796,392.53213 v 50.12229 h -6.25361 v 13.39702 h 15.33531 v -13.39702 h -6.2536 v -50.12229 z"
       id="path3203-7"
       inkscape:export-filename="/home/olivier/aero/documents/cc/figures/thermodynamics/cric.png"
       inkscape:export-xdpi="237.95"
       inkscape:export-ydpi="237.95"
       inkscape:connector-curvature="0"
       sodipodi:nodetypes="ccccccccc" />
    <path
       d=""
       id="path3323-0"
       i:knockout="Off"
       style="fill:#000000;fill-opacity:1;stroke:#000000"
       inkscape:export-filename="/home/olivier/tropebil/aero/documents/cc/figures/thermodynamics/cric.png"
       inkscape:export-xdpi="237.95"
       inkscape:export-ydpi="237.95"
       inkscape:connector-curvature="0" />
    <path
       d=""
       id="path3325-0"
       i:knockout="Off"
       style="fill:#000000;fill-opacity:1;stroke:#000000;stroke-width:0.8885"
       inkscape:export-filename="/home/olivier/tropebil/aero/documents/cc/figures/thermodynamics/cric.png"
       inkscape:export-xdpi="237.95"
       inkscape:export-ydpi="237.95"
       inkscape:connector-curvature="0" />
    <path
       d=""
       id="path3668-5"
       i:knockout="Off"
       style="fill:#000000;fill-opacity:1;stroke:#000000;stroke-width:0.8885"
       inkscape:export-filename="/home/olivier/tropebil/aero/documents/cc/figures/thermodynamics/cric.png"
       inkscape:export-xdpi="237.95"
       inkscape:export-ydpi="237.95"
       inkscape:connector-curvature="0" />
    <path
       d=""
       id="path3670-6"
       i:knockout="Off"
       style="fill:#000000;fill-opacity:1;stroke:#000000;stroke-width:0.8885"
       inkscape:export-filename="/home/olivier/tropebil/aero/documents/cc/figures/thermodynamics/cric.png"
       inkscape:export-xdpi="237.95"
       inkscape:export-ydpi="237.95"
       inkscape:connector-curvature="0" />
    <path
       d=""
       id="path3682-7"
       i:knockout="Off"
       style="fill:#000000;fill-opacity:1;stroke:#000000;stroke-width:0.8885"
       inkscape:export-filename="/home/olivier/tropebil/aero/documents/cc/figures/thermodynamics/cric.png"
       inkscape:export-xdpi="237.95"
       inkscape:export-ydpi="237.95"
       inkscape:connector-curvature="0" />
    <path
       d=""
       id="path3686-8"
       i:knockout="Off"
       style="fill:#000000;fill-opacity:1;stroke:#000000;stroke-width:0.8885"
       inkscape:export-filename="/home/olivier/tropebil/aero/documents/cc/figures/thermodynamics/cric.png"
       inkscape:export-xdpi="237.95"
       inkscape:export-ydpi="237.95"
       inkscape:connector-curvature="0" />
    <g
       style="stroke:#000000"
       i:dimmedPercent="100"
       i:layer="yes"
       i:rgbTrio="#4F00FFFF4F00"
       id="Layer_4-0"
       transform="translate(181.60794,-86.357193)"
       inkscape:export-filename="/home/olivier/tropebil/aero/documents/cc/figures/thermodynamics/cric.png"
       inkscape:export-xdpi="237.95"
       inkscape:export-ydpi="237.95" />
    <path
       style="fill:#555555;fill-opacity:1;fill-rule:evenodd;stroke:#000000;stroke-width:1px;stroke-linecap:butt;stroke-linejoin:miter;stroke-opacity:1"
       d="m 274.02216,386.27913 v 6.0625 h 83.90625 v 31.53125 h -24.09375 v 22.9375 h 123.78125 v -22.9375 h -24.09375 v -31.53125 h 83.9375 v -6.0625 z m 95.84375,6.1875 h 51.75 v 31.5625 h -51.75 z"
       id="path2390-6"
       inkscape:connector-curvature="0"
       sodipodi:nodetypes="cccccccccccccccccc"
       inkscape:export-filename="/home/olivier/aero/documents/cc/figures/thermodynamics/cric.png"
       inkscape:export-xdpi="237.95"
       inkscape:export-ydpi="237.95" />
    <path
       style="fill:#111111;fill-opacity:1;stroke:#000000;stroke-width:1px;stroke-linecap:butt;stroke-linejoin:miter;stroke-opacity:1"
       d="m 472.67144,291.91035 c 0.43825,0.0386 1.55603,0.43335 5.15861,1.90823 7.68543,3.14645 37.18971,21.40142 37.18971,21.40142 0,0 15.16999,2.30017 18.33242,1.50512 3.16242,-0.79504 0.0164,0.0985 0.98906,-0.6438 0.9726,-0.74225 1.93698,-3.1403 4.59689,-4.09201 2.65996,-0.95171 8.89803,-0.24478 10.78008,0.41345 0.54222,0.18962 0.82913,0.2322 0.9759,0.22681 -0.0436,0.0724 -0.0673,0.21011 -0.0234,0.47478 0.19151,1.13112 -3.3788,3.57513 -3.25411,4.71266 0.12462,1.13751 0.53932,-0.23513 0.85266,0.79541 0.3133,1.03055 -1.23485,2.26339 -1.2254,5.15594 0.009,2.89258 2.96825,9.03206 2.863,11.72405 -0.10517,2.69199 -1.31857,2.85433 -1.286,3.90443 0.0326,1.0501 0.56025,1.33099 0.81552,2.04404 0.25524,0.71303 0.15649,1.65885 0.71199,2.2345 0.5555,0.57561 1.42306,-0.21368 2.31048,0.8388 0.88744,1.05249 1.38555,3.21915 0.99598,5.70178 -0.38958,2.48263 -4.45561,6.12246 -4.32895,8.24048 0.12666,2.118 1.6925,1.8254 1.95717,2.84801 0.26467,1.02264 1.67162,2.42232 -0.28129,2.87821 -1.95294,0.45587 -33.68867,4.766 -33.68867,4.766 l -5.88345,0.2919 c -0.96301,9.91621 -9.55589,17.52297 -19.76999,17.2189 -9.15393,-0.27251 -16.62964,-6.81198 -18.35072,-15.33254 l -4.48609,0.22413 c 0,0 -103.34466,1.81915 -134.03625,1.49253 -2.14156,-0.0228 -4.15202,-0.0508 -6.06797,-0.0839 -2.413,8.12061 -10.12606,13.93359 -19.08154,13.66698 -9.19336,-0.27369 -16.69433,-6.86824 -18.37296,-15.44262 -2.10345,-0.12666 -4.23606,-0.23593 -6.58457,-0.30544 -12.96934,-0.38476 -23.76212,1.68353 -27.87856,-0.92684 -4.11637,-2.61025 -0.32976,-0.49924 -0.64286,-1.26885 -0.3131,-0.76964 -0.4985,-2.17591 -1.06448,-3.39794 -0.56607,-1.22207 -1.79188,-2.5565 -2.41322,-3.82101 -0.62138,-1.26452 -1.17813,-2.63889 -1.34911,-3.69674 -0.17105,-1.05786 -0.24639,-1.68516 0.0743,-2.49723 0.32067,-0.8121 1.28923,-0.84535 1.80973,-2.06265 0.5205,-1.2173 -0.0885,-3.46862 0.44761,-5.17911 0.53619,-1.7105 1.42415,-3.18023 2.76819,-4.82391 1.34407,-1.64368 2.959,-3.21286 5.39059,-4.74584 2.43161,-1.53295 5.53177,-2.67402 9.2594,-3.95318 3.72766,-1.27919 8.1416,-2.2928 13.13284,-3.45919 4.99118,-1.16639 9.83972,-2.17641 16.82476,-3.44184 6.98511,-1.26542 21.36885,-1.48956 25.10584,-3.96535 3.737,-2.47581 -0.27714,-0.5426 0.81781,-1.32217 1.09494,-0.77955 5.14209,-0.79727 6.36436,-1.44315 0.30208,-0.15959 0.47859,-0.29434 0.58641,-0.40753 0.24151,0.14839 1.42095,0.008 4.89965,-0.96922 8.50008,-2.3878 34.79636,-19.76479 42.51437,-23.74137 1.4631,-0.75382 2.30798,-1.19647 2.9123,-1.51648 -0.18568,0.12334 -0.22695,0.18965 0.14681,0.0674 1.65566,-0.54098 0.38593,-0.54967 6.94376,-1.32915 6.55781,-0.77948 20.64799,-1.34414 32.52053,-1.5355 11.87256,-0.19138 30.76154,0.39837 38.68136,0.57506 7.9198,0.17667 6.24593,-0.109 8.84044,0.26318 1.37833,0.19775 1.00152,-0.21384 1.49821,-0.17002 z m -88.6312,2.12892 c 0.48082,-0.31933 1.86378,-0.98689 0,0 z m -50.32629,26.22706 c -0.13074,-0.0802 0.0138,-0.24277 0.21625,-0.40593 -0.0449,0.11758 -0.06,0.24189 -0.21625,0.40593 z m 0.21625,-0.40593 c 0.0496,-0.12958 0.13456,-0.25127 0.49692,-0.40179 0.3389,-0.14079 -0.15981,0.13014 -0.49692,0.40179 z m 216.76391,-7.23077 c 0.0892,-0.14805 0.24347,-0.009 0,0 z"
       id="path3421"
       inkscape:connector-curvature="0"
       inkscape:export-filename="/home/olivier/aero/documents/cc/figures/thermodynamics/cric.png"
       inkscape:export-xdpi="237.95"
       inkscape:export-ydpi="237.95" />
    <path
       style="fill:#555555;fill-opacity:1;fill-rule:nonzero;stroke:#000000;stroke-width:1;stroke-linecap:round;stroke-linejoin:round;stroke-miterlimit:4;stroke-dashoffset:0;stroke-opacity:1"
       d="m 117.36591,388.46663 c -1.07474,0 -2.03137,0.5042 -2.65625,1.28125 h -1.625 c -0.61847,0 -1.125,0.25306 -1.125,0.5625 v 3.40625 c 0,0.30944 0.50653,0.5625 1.125,0.5625 h 1.84375 c 0.61913,0.63442 1.48102,1.03125 2.4375,1.03125 0.90933,0 1.7325,-0.35727 2.34375,-0.9375 0.60943,0.57024 1.41204,0.9375 2.3125,0.9375 0.94144,0 1.78929,-0.38304 2.40625,-1 0.61695,0.61696 1.46481,1 2.40625,1 0.95686,0 1.81832,-0.3964 2.4375,-1.03125 h 21.375 c 0.61918,0.63485 1.48064,1.03125 2.4375,1.03125 0.69609,0 1.33547,-0.23563 1.875,-0.59375 0.007,0.005 0.0237,-0.005 0.0312,0 0.53967,0.3584 1.17862,0.59375 1.875,0.59375 0.73692,0 1.41118,-0.25878 1.96875,-0.65625 0.5581,0.39874 1.23055,0.65625 1.96875,0.65625 0.95686,0 1.81832,-0.3964 2.4375,-1.03125 h 1.75 c 0.61847,0 1.125,-0.25306 1.125,-0.5625 v -3.40625 c 0,-0.30944 -0.50653,-0.5625 -1.125,-0.5625 h -1.5625 c -0.625,-0.77312 -1.55341,-1.28125 -2.625,-1.28125 -0.7382,0 -1.41065,0.25751 -1.96875,0.65625 -0.55757,-0.39747 -1.23183,-0.65625 -1.96875,-0.65625 -0.69638,0 -1.33533,0.23536 -1.875,0.59375 -0.008,-0.005 -0.0235,0.005 -0.0312,0 -0.53953,-0.35812 -1.17891,-0.59375 -1.875,-0.59375 -1.07158,0 -2.00001,0.50813 -2.625,1.28125 h -21 c -0.625,-0.77312 -1.55341,-1.28125 -2.625,-1.28125 -0.94144,0 -1.7893,0.38305 -2.40625,1 -0.61696,-0.61695 -1.46481,-1 -2.40625,-1 -0.90046,0 -1.70307,0.36726 -2.3125,0.9375 -0.61125,-0.58023 -1.43442,-0.9375 -2.34375,-0.9375 z"
       id="use4214-5"
       inkscape:connector-curvature="0"
       inkscape:export-filename="/home/olivier/aero/documents/cc/figures/thermodynamics/cric.png"
       inkscape:export-xdpi="237.95"
       inkscape:export-ydpi="237.95" />
    <text
       xml:space="preserve"
       style="font-style:normal;font-weight:normal;font-size:21.3333px;line-height:1.25;font-family:sans-serif;fill:#000000;fill-opacity:1;stroke:none"
       x="149.86838"
       y="455.96207"
       id="text1892-0-3"><tspan
         sodipodi:role="line"
         id="tspan1890-6-9"
         x="149.86838"
         y="455.96207"
         style="font-style:normal;font-variant:normal;font-weight:normal;font-stretch:normal;font-size:21.3333px;font-family:'EB Garamond';-inkscape-font-specification:'EB Garamond'"><tspan
           id="tspan58-7"
           style="font-style:italic;font-variant:normal;font-weight:normal;font-stretch:normal;font-family:'EB Garamond';-inkscape-font-specification:'EB Garamond Italic'">A</tspan><tspan
           style="font-size:65%;baseline-shift:sub"
           id="tspan1894-4-7">1</tspan></tspan></text>
    <text
       id="text1892-0-5-4"
       y="441.35397"
       x="309.4621"
       style="font-style:normal;font-weight:normal;font-size:21.3333px;line-height:1.25;font-family:sans-serif;fill:#000000;fill-opacity:1;stroke:none"
       xml:space="preserve"><tspan
         style="font-style:normal;font-variant:normal;font-weight:normal;font-stretch:normal;font-size:21.3333px;font-family:'EB Garamond';-inkscape-font-specification:'EB Garamond'"
         y="441.35397"
         x="309.4621"
         id="tspan1890-6-7-0"
         sodipodi:role="line"><tspan
           id="tspan60-9"
           style="font-style:italic;font-variant:normal;font-weight:normal;font-stretch:normal;font-family:'EB Garamond';-inkscape-font-specification:'EB Garamond Italic'">A</tspan><tspan
           id="tspan1894-4-3-2"
           style="font-size:65%;baseline-shift:sub">2</tspan></tspan></text>
    <path
       id="path1528-0"
       d="m 138.79127,367.94669 v 16.53392"
       style="fill:none;stroke:#000000;stroke-width:0.638173px;stroke-linecap:butt;stroke-linejoin:miter;stroke-opacity:1;marker-end:url(#Arrow2Lend-5)" />
    <path
       style="fill:none;stroke:#000000;stroke-width:1px;stroke-linecap:butt;stroke-linejoin:miter;stroke-opacity:1;marker-end:url(#Arrow2Lend-5-8)"
       d="M 394.76331,493.82074 V 453.22326"
       id="path1528-0-4" />
    <text
       id="text1892-98"
       y="503.16101"
       x="397.21289"
       style="font-style:normal;font-weight:normal;font-size:21.3333px;line-height:1.25;font-family:sans-serif;fill:#000000;fill-opacity:1;stroke:none"
       xml:space="preserve"><tspan
         style="font-style:italic;font-variant:normal;font-weight:normal;font-stretch:normal;font-size:21.3333px;font-family:'EB Garamond';-inkscape-font-specification:'EB Garamond Italic'"
         y="503.16101"
         x="397.21289"
         id="tspan1890-9"
         sodipodi:role="line">F<tspan
   id="tspan367"
   style="font-size:65%;baseline-shift:sub;font-style:normal">2</tspan></tspan></text>
  </g>
</svg>
