<?xml version="1.0" encoding="UTF-8" standalone="no"?>
<svg
   xmlns:dc="http://purl.org/dc/elements/1.1/"
   xmlns:cc="http://creativecommons.org/ns#"
   xmlns:rdf="http://www.w3.org/1999/02/22-rdf-syntax-ns#"
   xmlns:svg="http://www.w3.org/2000/svg"
   xmlns="http://www.w3.org/2000/svg"
   xmlns:xlink="http://www.w3.org/1999/xlink"
   xmlns:sodipodi="http://sodipodi.sourceforge.net/DTD/sodipodi-0.dtd"
   xmlns:inkscape="http://www.inkscape.org/namespaces/inkscape"
   id="svg2"
   height="387.46927"
   width="1372.068"
   version="1.1"
   sodipodi:docname="vasos-comunicantes.svg"
   inkscape:version="1.0 (4035a4f, 2020-05-01)">
  <sodipodi:namedview
     inkscape:document-rotation="0"
     pagecolor="#ffffff"
     bordercolor="#666666"
     borderopacity="1"
     objecttolerance="10"
     gridtolerance="10"
     guidetolerance="10"
     inkscape:pageopacity="0"
     inkscape:pageshadow="2"
     inkscape:window-width="1440"
     inkscape:window-height="787"
     id="namedview19"
     showgrid="false"
     inkscape:zoom="0.79879423"
     inkscape:cx="832.50476"
     inkscape:cy="182.46765"
     inkscape:window-x="0"
     inkscape:window-y="23"
     inkscape:window-maximized="0"
     inkscape:current-layer="layer1" />
  <defs
     id="defs4">
    <linearGradient
       id="linearGradient3824"
       y2="1120.9882"
       gradientUnits="userSpaceOnUse"
       x2="491.87576"
       y1="805.82062"
       x1="360.27499">
      <stop
         id="stop3820"
         stop-color="#0098fe"
         offset="0"
         style="stop-color:#bbccee;stop-opacity:1" />
      <stop
         id="stop3822"
         stop-color="#003bfe"
         offset="1"
         style="stop-color:#2a54a9;stop-opacity:1" />
    </linearGradient>
    <linearGradient
       inkscape:collect="always"
       xlink:href="#linearGradient3824"
       id="linearGradient850"
       x1="16.794754"
       y1="817.44275"
       x2="19.298615"
       y2="1122.9032"
       gradientUnits="userSpaceOnUse" />
  </defs>
  <metadata
     id="metadata7">
    <rdf:RDF>
      <cc:Work
         rdf:about="">
        <dc:format>image/svg+xml</dc:format>
        <dc:type
           rdf:resource="http://purl.org/dc/dcmitype/StillImage" />
        <dc:title></dc:title>
      </cc:Work>
    </rdf:RDF>
  </metadata>
  <g
     id="layer1"
     transform="translate(249.85715,-737.242)">
    <path
       id="path3813"
       d="m-248.10715,1123.6582c-1.657-0.9651-1.75-11.1672-1.75-191.96968,3.21155-69.30091,11-296.53861,11-116.95031h32,32c4.25708-151.76528,12-14.01738,12,74.5v148.49999h69.5,69.5v-72.00262-72.00263l-37.42089-74.83654c-56.50907-113.17113-26.319391-78.64552,10.90848-4.1582h70.51701,70.51702c44.52849-93.55658,53.02449-81.11707,10.03482,4.88714l-37.55644,75.1076v71.50263,71.50262h71.49933,71.49934l74.50133-148.99999c41.39661-76.90153,123.1536-221.27155,49.49444-74h68.00278c37.40153,0,68.00278-0.2275,68.00278-0.50556-77.34488-166.27378,26.24096,26.99826,50,74.50556l74.49463,148.99999h33.25269,33.25268l-0.0345-36.25-0.0345-36.24999,36.51859-36,36.51858-36-73.41154-74c-116.01957-117.64722-58.97374-75.43249,11.8893-4.5h29.52168,29.52168c-78.04553-76.59849-90.34949-106.35345,15.03328-0.97744,68.83633,68.83194,76.47743,76.78633,76.47743,79.61317,0,2.81179-3.9265,6.98788-37.5,39.8842l-37.5,36.74357v33.86829,33.8682h107.5,107.5l0.031-52.74999,0.031-52.75-37.5634-37-37.5634-37,0.033-22.00487,0.033-22.00487c80.49394-83.64124,109.56179-93.56804,15.5095,0.50974h102.98935,102.9893c-95.4387-95.35798-65.2157-81.25169,16.5107,0.55296l0.034,20.97352,0.034,20.97352-38.0634,37.5-38.0633,37.5,0.029,94.59499c0.028,90.3931-0.052,94.6686-1.7992,96.2501-1.6978,1.5364-47.98675,1.6528-646.25009,1.6246-435.8754-0.021-644.98739-0.3603-646.17106-1.0497z"
       fill="url(#linearGradient3824)"
       style="fill:url(#linearGradient850);fill-opacity:1" />
    <path
       id="path3811"
       d="m-248.10715,1123.6582c-1.657-0.9651-1.75-11.1672-1.75-191.96968v-190.95031h5.5,5.5v37,37h32,32v-37-37h6,6v148.5,148.49999h69.5,69.5v-72.00262-72.00263l-37.42089-74.83654-37.4209-74.83653,4.44765-2.16084c2.4462-1.18846,4.88639-2.16083,5.42264-2.16083s9.40891,16.875,19.71704,37.5l18.74205,37.5h70.51701,70.51702l18.48919-37.07952c10.16905-20.39374,18.81126-37.28576,19.20489-37.53782,0.56342-0.36079,8.21995,2.93632,9.59074,4.13003,0.16853,0.14676-16.59397,34.06527-37.25,75.37445l-37.55644,75.1076v71.50263,71.50262h71.49933,71.49934l74.50133-148.99999c40.97573-81.95,74.74396-149,75.0405-149,0.51194,0,8.61784,3.94817,9.26692,4.51367,0.16908,0.14731-7.59467,16.067-17.25278,35.37708l-17.5602,35.10925h68.00278c37.40153,0,68.00278-0.2275,68.00278-0.50556,0-0.27805-7.83992-16.18042-17.42205-35.3386l-17.42206-34.83305,4.44881-2.16139c2.44684-1.18877,4.77547-2.1614,5.17474-2.1614,0.39926,0,34.24851,67.05,75.22056,149l74.49463,148.99999h33.25269,33.25268l-0.0345-36.25-0.0345-36.24999,36.51859-36,36.51858-36-73.41154-74-73.41155-74,3.94024-3.9981,3.94023-3.99811,38.71022,38.74811,38.71016,38.7481h29.52168,29.52168l-34.76578-34.77642-34.76577-34.77642,4.0437-3.94856,4.04369-3.94857,76.47744,76.47253c68.83633,68.83194,76.47743,76.78633,76.47743,79.61317,0,2.81179-3.9265,6.98788-37.5,39.8842l-37.5,36.74357v33.86829,33.8682h107.5,107.5l0.031-52.74999,0.031-52.75-37.5634-37-37.5634-37,0.033-22.00487,0.033-22.00487,38.4787-38.46892,38.4786-38.46892,4.0425,3.94737,4.0425,3.94737-34.7658,34.77642-34.767,34.77642h102.98935,102.9893l-34.7658-34.77642-34.7658-34.77642,4.0504-3.95509,4.0504-3.95509,38.9708,39.00799,38.9707,39.00799,0.034,20.97352,0.034,20.97352-38.0634,37.5-38.0633,37.5,0.029,94.59499c0.028,90.3931-0.052,94.6686-1.7992,96.2501-1.6978,1.5364-47.98675,1.6528-646.25009,1.6246-435.8754-0.021-644.98739-0.3603-646.17106-1.0497zm1283.21725-103.17-0.033-93.24999,37.5635-37,37.5634-37-0.031-17.25-0.03-17.25-107.5,0-107.50005,0-0.031,17.25-0.031,17.25,37.5634,37,37.5634,37-0.033,59.55c-0.025,44.94619-0.3271,59.84429-1.2328,60.75009-1.5138,1.5138-232.40955,1.7319-234.8,0.2218-1.28452-0.8115-1.54301-6.7351-1.7994-41.2348l-0.2984-40.28709,37.0857-36.5,37.0857-36.5-37.2912-37.25-37.29127-37.25-29.99506,0.004-29.99507,0.004,35.87091,35.74606c30.75764,30.65059,35.87744,36.168,35.91667,38.706,0.0401,2.59395-4.61588,7.53979-37.6557,40l-37.70145,37.04014,0.0348,37.31569c0.0222,23.8779-0.338,38.0124-1.0004,39.2501-0.99777,1.8643-2.52563,1.9343-42.25349,1.9343h-41.2183l-57.49304-115.00009-57.49304-115h-70.2526-70.25261l-56.60451,113.25c-31.13248,62.2875-57.30262,114.03749-58.15586,114.99999-1.45272,1.6388-6.56186,1.7501-80.36118,1.7501-76.89352,0-78.835-0.047-79.84502-1.9343-0.6877-1.285-1.03518-27.6187-1.03518-78.4517v-76.51739l18-36.06914c9.9-19.83803,18-36.28479,18-36.54835,0-0.26357-30.6-0.47921-68-0.47921s-68,0.21564-68,0.47921c0,0.26356,8.1081,16.72655,18.018,36.58442l18.018,36.1052-0.268,77.45227c-0.23378,67.56129-0.45956,77.57339-1.768,78.40029-2.02182,1.2778-156.9784,1.2777-159-0.0001-1.31649-0.8321-1.53212-14.8992-1.76255-114.98471l-0.26255-114.03658h-31.98745-31.98745v147.5,147.50009h637,637.00005l-0.033-93.2501z"
       fill="#000000" />
  </g>
</svg>
