<?xml version="1.0" encoding="UTF-8" standalone="no"?>
<svg
   height="541"
   viewBox="87.94 151.33 322.0533 269.4"
   width="1271.5508"
   version="1.1"
   id="svg26"
   sodipodi:docname="pisa.svg"
   inkscape:version="1.3 (0e150ed, 2023-07-21)"
   xmlns:inkscape="http://www.inkscape.org/namespaces/inkscape"
   xmlns:sodipodi="http://sodipodi.sourceforge.net/DTD/sodipodi-0.dtd"
   xmlns="http://www.w3.org/2000/svg"
   xmlns:svg="http://www.w3.org/2000/svg">
  <defs
     id="defs26" />
  <sodipodi:namedview
     id="namedview26"
     pagecolor="#ffffff"
     bordercolor="#000000"
     borderopacity="0.25"
     inkscape:showpageshadow="2"
     inkscape:pageopacity="0.0"
     inkscape:pagecheckerboard="0"
     inkscape:deskcolor="#d1d1d1"
     inkscape:zoom="0.2464"
     inkscape:cx="937.5"
     inkscape:cy="269.88636"
     inkscape:window-width="1920"
     inkscape:window-height="1080"
     inkscape:window-x="0"
     inkscape:window-y="0"
     inkscape:window-maximized="0"
     inkscape:current-layer="svg26" />
  <path
     d="m 69.371659,232.94 c 0,11.82 -1.93,22.07 -5.43,30.84 -0.02,0.07 -0.07,0.17 -0.1,0.24 l -27.86,-10.61 c 2.65,-5.72 4.12,-12.7 4.12,-21.16 0,-31.1 -22.38,-40.97 -46.8300002,-43.83 -0.31,-0.02 -0.6,-0.07 -0.88,-0.1 l -4.0999998,-27.36 -0.05,-0.29 -0.17,-1.22 c 61.54,4.44 81.3,30.83 81.3,73.49 z"
     fill="#3b98a9"
     id="path1" />
  <path
     d="m -24.458341,288.66 v 19.12 h -11.92 v 107.51 h -31.25 V 288.66 Z"
     fill="#165984"
     id="path2" />
  <path
     d="m 63.941659,263.78 c -0.02,0.07 -0.07,0.17 -0.1,0.24 -12.58,31.15 -45.19,43.76 -82.25,43.76 h -17.97 v 4.55 l -24.79,-20.54 -3.79,-3.12 -2.67,-2.22 v -19.11 l 31.25,-2.93 v 14.8 h 9.99 c 25.3099998,0 52.29,-3.86 62.35,-25.79 h 0.02 z"
     fill="#1f7aa2"
     id="path3" />
  <path
     d="m -6.7283412,188.42 c -0.31,-0.02 -0.6,-0.07 -0.88,-0.1 -6.8199998,-0.76 -13.7799998,-0.98 -20.4499998,-0.98 h -8.32 v 86.42 l -20.5,14.9 -4.29,3.12 -6.46,4.7 V 158.77 h 35.89 c 7.03,0 13.61,0.21 19.76,0.67 l 0.21,1.24 0.05,0.29 z"
     fill="#d04738"
     id="path4" />
  <path
     d="m -11.928341,159.46 c -0.02,-0.02 -0.02,-0.02 -0.05,-0.02 -6.15,-0.45 -12.73,-0.67 -19.76,-0.67 h -35.89 v 256.52 h 31.25 V 307.78 h 17.97 c 37.06,0 69.67,-12.61 82.25,-43.76 0.02,-0.07 0.07,-0.17 0.1,-0.24 3.5,-8.77 5.43,-19.02 5.43,-30.84 0,-42.66 -19.76,-69.05 -81.3,-73.48 z m 47.89,93.95 c -10.06,21.93 -37.0400002,25.79 -62.35,25.79 h -9.99 v -91.86 h 8.32 c 6.67,0 13.63,0.21 20.4499998,0.98 0.29,0.02 0.57,0.07 0.88,0.1 24.4500002,2.86 46.8300002,12.73 46.8300002,43.83 0,8.46 -1.48,15.44 -4.12,21.16 z"
     fill="none"
     id="path5" />
  <path
     d="m 127.26166,158.77 v 72.26 c -0.24,0.14 -0.45,0.31 -0.67,0.45 l -0.07,0.05 -0.14,0.1 c -11.37,7.82 -23.12,15.85 -30.390001,20.69 v -93.55 z"
     fill="#3a94a8"
     id="path6" />
  <path
     d="m 127.26166,231.06 v 91.83 l -31.270001,23.17 v -94.48 l 30.390001,-19.95 0.14,-0.1 0.08,-0.04 z"
     fill="#e2b738"
     id="path7" />
  <path
     d="m 99.381659,358.28 27.880001,-20.9 v 77.91 h -18.9 z"
     fill="#165984"
     id="path8" />
  <path
     d="M 108.36166,415.29 H 95.991659 v -54.46 l 3.1,-2.31 z"
     fill="#e95b3a"
     id="path9" />
  <path
     d="M 95.991659,158.77 V 346.06 L 127.26166,322.89 V 158.77 Z m 3.39,199.51 -0.29,0.24 -3.1,2.31 v 54.46 h 31.270001 v -77.91 z"
     fill="none"
     id="path10" />
  <path
     d="m 318.43166,338.57 v -0.55 c -0.02,-0.14 -0.02,-0.29 -0.02,-0.43 v -0.26 c -0.02,-0.21 -0.02,-0.43 -0.02,-0.62 -0.02,-0.48 -0.05,-0.93 -0.07,-1.38 v -0.15 c 0,-0.12 -0.02,-0.21 -0.02,-0.33 0,-0.1 0,-0.17 -0.02,-0.26 -0.02,-0.36 -0.02,-0.71 -0.05,-1.07 -0.02,-0.12 -0.02,-0.21 -0.02,-0.31 -0.02,-0.38 -0.07,-0.76 -0.12,-1.14 -0.05,-0.41 -0.1,-0.79 -0.12,-1.17 0,-0.26 -0.05,-0.55 -0.07,-0.83 -0.05,-0.31 -0.1,-0.62 -0.14,-0.93 0,-0.05 0,-0.1 -0.02,-0.17 l -0.21,-1.67 v -0.05 c -0.02,-0.02 -0.02,-0.05 -0.02,-0.07 -0.1,-0.6 -0.19,-1.19 -0.29,-1.76 -0.05,-0.24 -0.07,-0.45 -0.12,-0.69 -0.1,-0.52 -0.19,-1.07 -0.31,-1.6 -0.19,-0.93 -0.41,-1.88 -0.62,-2.79 -0.5,-2.05 -1.1,-4.05 -1.76,-5.98 a 66.14,66.14 0 0 0 -2.22,-5.58 c -0.81,-1.81 -1.69,-3.55 -2.65,-5.24 -0.95,-1.69 -1.98,-3.31 -3.07,-4.89 -1.1,-1.57 -2.24,-3.1 -3.46,-4.58 a 72.63,72.63 0 0 0 -4.41,-4.86 71.95,71.95 0 0 0 -4.12,-3.86 h -0.02 c -10.37,-9.06 -23.5,-15.92 -38.16,-21.81 l -17.95,-7.15 c -0.98,-0.38 -1.98,-0.79 -2.98,-1.19 -10.99,-4.58 -23.05,-11.44 -28.7,-22.19 -0.76,-1.45 -1.43,-3 -1.93,-4.62 -0.33,-1.07 -0.62,-2.17 -0.83,-3.31 -0.1,-0.43 -0.17,-0.86 -0.21,-1.31 -0.17,-1.31 -0.26,-2.69 -0.26,-4.1 0,-4.03 0.71,-7.75 1.95,-11.18 0.17,-0.43 0.33,-0.86 0.5,-1.26 0.55,-1.26 1.14,-2.48 1.81,-3.67 0.88,-1.55 1.91,-3.03 3.03,-4.43 0.31,-0.36 0.62,-0.74 0.93,-1.1 0.33,-0.38 0.67,-0.76 1.02,-1.14 0.45,-0.48 0.88,-0.93 1.36,-1.36 8.22,-7.84 20.07,-12.25 31.27,-12.25 13.04,0 22.79,3.86 30.6,11.46 0.55,0.52 1.07,1.05 1.57,1.6 1.17,1.24 2.31,2.57 3.38,4 0.36,0.48 0.71,0.95 1.07,1.45 0.31,0.45 0.62,0.88 0.93,1.33 0.62,0.91 1.22,1.86 1.81,2.81 0.29,0.48 0.6,0.98 0.88,1.48 l 12.2,-7.48 8.84,-5.43 h 0.02 l 3.86,-2.38 h 0.02 c -1.69,-3.1 -3.55,-6.03 -5.55,-8.79 -0.1,-0.1 -0.17,-0.21 -0.24,-0.31 V 183 c -2.41,-3.31 -5.03,-6.39 -7.84,-9.18 -13.32,-13.28 -30.84,-20.5 -50.91,-20.5 -9.34,0 -18.57,1.5 -27.17,4.41 -0.31,0.12 -0.64,0.21 -0.95,0.33 h -0.02 c -10.63,3.72 -20.23,9.61 -27.89,17.37 a 59.33,59.33 0 0 0 -3.36,3.72 c -1.07,1.26 -2.1,2.57 -3.07,3.96 a 60.351,60.351 0 0 0 -6.55,11.8 l -0.36,0.93 c -0.07,0.17 -0.14,0.33 -0.21,0.5 -0.05,0.14 -0.12,0.31 -0.19,0.48 -0.36,0.98 -0.69,1.95 -1.02,2.98 -0.69,2.22 -1.29,4.5 -1.76,6.86 a 60.03,60.03 0 0 0 -0.6,3.6 c -0.43,3.03 -0.64,6.17 -0.64,9.41 0,35.73 25.93,52.39 54.53,64.97 l 17.3,7.48 c 9.18,3.91 18.35,8.29 25.86,14.16 10.2,7.96 17.37,18.64 17.37,34.51 0,0.5 0,1.02 -0.02,1.53 l 30.86,7.08 h 0.02 c 0.02,-0.36 0.05,-0.69 0.07,-1.05 0.1,-1.05 0.17,-2.15 0.21,-3.22 0.07,-1.43 0.12,-2.88 0.12,-4.34 0,-0.74 0,-1.48 -0.05,-2.22 z m -2.26,22.17 -30.6,-6.55 h -0.02 c -0.17,0.64 -0.33,1.29 -0.52,1.93 -0.21,0.79 -0.45,1.57 -0.74,2.34 -0.36,1.1 -0.76,2.19 -1.22,3.27 -0.24,0.6 -0.5,1.19 -0.79,1.79 -0.26,0.6 -0.55,1.19 -0.86,1.76 -0.26,0.5 -0.52,1.02 -0.81,1.53 a 48.49,48.49 0 0 1 -5.72,8.27 c -0.36,0.41 -0.71,0.83 -1.1,1.24 -2.03,2.19 -4.24,4.19 -6.63,5.93 -0.45,0.36 -0.91,0.67 -1.36,0.98 -1.26,0.86 -2.57,1.67 -3.93,2.38 -0.31,0.17 -0.62,0.33 -0.93,0.5 -0.41,0.19 -0.79,0.38 -1.19,0.57 a 44.812,44.812 0 0 1 -6.82,2.53 c -0.74,0.19 -1.48,0.38 -2.24,0.55 a 39.183,39.183 0 0 1 -4.29,0.71 c -0.33,0.05 -0.67,0.1 -1,0.12 -1.45,0.14 -2.93,0.21 -4.43,0.21 -7.51,0 -14.66,-1.6 -21.02,-4.5 -1.41,-0.64 -2.79,-1.36 -4.12,-2.12 -1.33,-0.79 -2.62,-1.62 -3.86,-2.5 -1.26,-0.88 -2.45,-1.84 -3.6,-2.86 -0.57,-0.5 -1.14,-1.02 -1.69,-1.57 -2.76,-2.67 -5.2,-5.67 -7.2,-8.96 -0.1,-0.12 -0.17,-0.26 -0.21,-0.38 -0.1,-0.14 -0.19,-0.26 -0.26,-0.38 -0.1,-0.12 -0.17,-0.26 -0.24,-0.41 -0.17,-0.26 -0.31,-0.55 -0.48,-0.81 -0.36,-0.69 -0.74,-1.41 -1.07,-2.1 -0.67,-1.41 -1.29,-2.86 -1.84,-4.34 -1.98,-5.41 -3.03,-11.37 -2.96,-17.71 l -31.58,6.79 c 0.12,0.93 0.24,1.84 0.38,2.74 0.14,0.91 0.29,1.81 0.48,2.69 v 0.02 c 0.48,2.45 1.05,4.89 1.69,7.25 0.31,1.19 0.67,2.36 1.05,3.55 0.72,2.17 1.48,4.31 2.34,6.39 0.29,0.69 0.57,1.38 0.88,2.07 0.33,0.74 0.67,1.48 1,2.19 0.07,0.14 0.14,0.29 0.21,0.43 0.07,0.14 0.12,0.29 0.21,0.43 0,0.02 0.02,0.02 0.02,0.05 0.1,0.19 0.17,0.41 0.29,0.6 0.02,0.02 0.02,0.07 0.05,0.1 0.14,0.26 0.29,0.52 0.41,0.76 0.24,0.5 0.5,0.98 0.76,1.45 0.33,0.64 0.71,1.29 1.07,1.93 a 72.94,72.94 0 0 0 4.12,6.46 v 0.02 c 1.22,1.74 2.5,3.43 3.84,5.05 1.33,1.62 2.74,3.19 4.22,4.7 13.9,14.28 32.89,22.9 54.44,22.9 h 0.05 c 1.1,0 2.19,-0.02 3.29,-0.07 0.29,0 0.57,-0.02 0.83,-0.02 a 72,72 0 0 0 2.93,-0.19 c 1.1,-0.07 2.17,-0.19 3.24,-0.31 0.88,-0.12 1.76,-0.24 2.62,-0.36 0.48,-0.07 0.93,-0.14 1.38,-0.21 0.69,-0.12 1.38,-0.24 2.05,-0.38 0.64,-0.12 1.29,-0.24 1.91,-0.38 0.64,-0.14 1.29,-0.29 1.93,-0.43 0.57,-0.14 1.12,-0.29 1.67,-0.43 0.74,-0.19 1.45,-0.38 2.17,-0.6 1.02,-0.29 2.03,-0.62 3.03,-0.95 0.86,-0.29 1.72,-0.57 2.55,-0.91 0.38,-0.14 0.76,-0.29 1.12,-0.43 0.83,-0.31 1.67,-0.64 2.5,-1 0,-0.02 0,-0.02 0.02,-0.02 0.88,-0.38 1.76,-0.76 2.65,-1.19 2.31,-1.1 4.58,-2.31 6.77,-3.65 0.6,-0.33 1.19,-0.69 1.76,-1.07 0.21,-0.14 0.41,-0.26 0.62,-0.41 0.81,-0.5 1.6,-1.02 2.36,-1.6 0.76,-0.55 1.55,-1.1 2.31,-1.69 0.5,-0.38 1,-0.76 1.48,-1.17 1,-0.79 1.95,-1.6 2.91,-2.45 0.45,-0.41 0.91,-0.81 1.36,-1.22 4.29,-4 8.13,-8.53 11.44,-13.49 0.24,-0.38 0.48,-0.76 0.74,-1.14 0.33,-0.55 0.67,-1.07 1,-1.62 0.33,-0.55 0.67,-1.12 0.98,-1.67 0.67,-1.12 1.26,-2.26 1.84,-3.41 0.6,-1.19 1.17,-2.38 1.72,-3.62 0.24,-0.55 0.48,-1.12 0.71,-1.69 0.26,-0.62 0.5,-1.22 0.74,-1.84 0.17,-0.45 0.36,-0.91 0.52,-1.38 0.5,-1.38 0.98,-2.81 1.41,-4.27 0.38,-1.26 0.74,-2.57 1.07,-3.88 0.07,-0.29 0.14,-0.55 0.21,-0.83 h -0.02 z"
     fill="#21af8b"
     id="path11" />
  <path
     d="m 304.70166,182.99 v 0.02 l -7.94,7.01 h -0.02 v 0.02 l -0.95,0.83 c -6.84,-0.98 -67.07,-25.95 -76.46,-29.86 -0.79,-0.33 -1.22,-0.5 -1.22,-0.5 0,0 -0.12,-0.93 -0.29,-2.45 0.31,-0.12 0.64,-0.21 0.95,-0.33 8.6,-2.91 17.83,-4.41 27.17,-4.41 20.07,0 37.59,7.22 50.91,20.5 2.83,2.78 5.45,5.85 7.85,9.17 z"
     fill="#cb4737"
     id="path12" />
  <path
     d="m 310.50166,192.11 h -0.02 l -3.86,2.38 h -0.02 l -9.82,-4.48 7.94,-7.03 V 183 c 0.07,0.1 0.14,0.21 0.24,0.31 1.99,2.77 3.84,5.71 5.54,8.8 z"
     fill="#1f729b"
     id="path13" />
  <path
     d="m 306.59166,194.5 -8.84,5.43 -1.01,-9.89 v -0.02 h 0.03 z"
     fill="#e2b738"
     id="path14" />
  <path
     d="m 219.33166,161.01 -43.12,35.75 -0.05,0.05 c 0.07,-0.17 0.14,-0.33 0.19,-0.48 0.07,-0.17 0.14,-0.33 0.21,-0.5 l 0.36,-0.93 c 1.76,-4.24 3.98,-8.17 6.55,-11.8 0.98,-1.38 2,-2.69 3.07,-3.96 a 59.33,59.33 0 0 1 3.36,-3.72 c 7.65,-7.77 17.26,-13.66 27.89,-17.37 h 0.02 c 0.31,-0.12 0.64,-0.21 0.95,-0.33 0.36,2 0.57,3.29 0.57,3.29 z"
     fill="#7d77b7"
     id="path15" />
  <path
     d="m 318.48166,340.79 c 0,1.45 -0.05,2.91 -0.12,4.34 -0.05,1.07 -0.12,2.17 -0.21,3.22 -0.02,0.36 -0.05,0.69 -0.07,1.05 h -0.02 c -0.02,0.29 -0.07,0.57 -0.1,0.86 l -30.77,-7.79 v -0.14 c 0.02,-0.5 0.02,-1.02 0.02,-1.53 0,-15.87 -7.17,-26.55 -17.37,-34.51 7.03,-5.96 16.71,-14.16 24.6,-20.93 h 0.02 a 71.95,71.95 0 0 1 4.12,3.86 c 1.55,1.55 3,3.17 4.41,4.86 9.75,11.77 15.49,26.76 15.49,46.71 z"
     fill="#e2b738"
     id="path16" />
  <path
     d="m 199.26166,367.89 -0.02,0.02 a 2702.09,2702.09 0 0 1 -23.43,20.14 70.722,70.722 0 0 1 -4.12,-6.46 c -2.96,-5.1 -5.39,-10.61 -7.25,-16.4 -0.38,-1.19 -0.74,-2.36 -1.05,-3.55 -0.67,-2.38 -1.24,-4.79 -1.69,-7.25 v -0.02 c -0.19,-0.88 -0.33,-1.79 -0.48,-2.69 -0.14,-0.91 -0.29,-1.81 -0.41,-2.74 h 0.02 l 31.58,-6.79 c -0.07,6.34 0.98,12.3 2.96,17.71 0.55,1.48 1.17,2.93 1.84,4.34 0.33,0.69 0.72,1.41 1.07,2.1 0.17,0.26 0.31,0.55 0.48,0.81 0.07,0.14 0.14,0.29 0.24,0.41 0.07,0.11 0.17,0.22 0.26,0.37 z"
     fill="#165984"
     id="path17" />
  <path
     d="m 318.43166,338.57 v -0.55 c -0.02,-0.14 -0.02,-0.29 -0.02,-0.43 v -0.26 c -0.02,-0.21 -0.02,-0.43 -0.02,-0.62 -0.02,-0.48 -0.05,-0.93 -0.07,-1.38 v -0.15 c 0,-0.12 -0.02,-0.21 -0.02,-0.33 0,-0.1 0,-0.17 -0.02,-0.26 -0.02,-0.36 -0.02,-0.71 -0.05,-1.07 -0.05,-0.29 -0.07,-0.57 -0.1,-0.86 -0.02,-0.19 -0.02,-0.41 -0.05,-0.6 -0.05,-0.41 -0.1,-0.79 -0.12,-1.17 -0.07,-0.6 -0.14,-1.19 -0.21,-1.76 0,-0.05 0,-0.1 -0.02,-0.17 l -0.21,-1.67 v -0.05 c -0.02,-0.02 -0.02,-0.05 -0.02,-0.07 -0.1,-0.6 -0.19,-1.19 -0.29,-1.76 -0.05,-0.24 -0.07,-0.45 -0.12,-0.69 -0.1,-0.52 -0.19,-1.07 -0.31,-1.6 -0.19,-0.93 -0.41,-1.88 -0.62,-2.79 a 77.04,77.04 0 0 0 -1.76,-5.98 66.14,66.14 0 0 0 -2.22,-5.58 c -0.81,-1.81 -1.69,-3.55 -2.65,-5.24 -0.95,-1.69 -1.98,-3.31 -3.07,-4.89 -1.1,-1.57 -2.24,-3.1 -3.46,-4.58 a 72.63,72.63 0 0 0 -4.41,-4.86 71.95,71.95 0 0 0 -4.12,-3.86 h -0.02 c -10.37,-9.06 -23.5,-15.92 -38.16,-21.81 l -17.97,-7.13 c -0.98,-0.38 -1.95,-0.79 -2.96,-1.22 -10.99,-4.58 -23.05,-11.44 -28.7,-22.19 -0.76,-1.45 -1.43,-3 -1.93,-4.62 -0.36,-1.07 -0.62,-2.17 -0.83,-3.31 -0.1,-0.43 -0.17,-0.86 -0.21,-1.31 -0.19,-1.31 -0.29,-2.69 -0.29,-4.1 0,-4.03 0.69,-7.75 1.98,-11.18 0.17,-0.43 0.33,-0.86 0.5,-1.26 0.52,-1.26 1.12,-2.48 1.81,-3.67 0.88,-1.55 1.91,-3.03 3.03,-4.43 0.31,-0.36 0.62,-0.74 0.93,-1.1 0.33,-0.38 0.67,-0.76 1.02,-1.14 0.45,-0.48 0.88,-0.93 1.36,-1.36 8.22,-7.84 20.07,-12.25 31.27,-12.25 13.04,0 22.79,3.86 30.6,11.46 0.55,0.52 1.07,1.05 1.57,1.6 1.17,1.24 2.29,2.57 3.38,4 0.36,0.48 0.71,0.95 1.07,1.45 0.31,0.45 0.62,0.88 0.93,1.33 0.62,0.91 1.22,1.86 1.81,2.81 0.29,0.48 0.6,0.98 0.88,1.48 l 12.2,-7.48 8.84,-5.43 h 0.02 l 3.86,-2.38 c -1.72,-3.1 -3.55,-6.03 -5.53,-8.79 -0.1,-0.1 -0.17,-0.21 -0.24,-0.31 v -0.02 c -2.43,-3.31 -5.05,-6.39 -7.84,-9.18 -13.32,-13.28 -30.84,-20.5 -50.91,-20.5 -9.34,0 -18.57,1.5 -27.17,4.41 -0.31,0.12 -0.64,0.21 -0.95,0.33 h -0.02 c -10.63,3.72 -20.23,9.61 -27.89,17.37 a 59.33,59.33 0 0 0 -3.36,3.72 c -1.07,1.26 -2.1,2.57 -3.07,3.96 a 60.351,60.351 0 0 0 -6.55,11.8 l -0.36,0.93 c -0.07,0.17 -0.14,0.33 -0.21,0.5 -0.05,0.14 -0.1,0.29 -0.14,0.43 -0.38,1 -0.74,2 -1.07,3.03 -0.69,2.22 -1.29,4.5 -1.76,6.86 a 60.03,60.03 0 0 0 -0.6,3.6 c -0.43,3.03 -0.64,6.17 -0.64,9.41 0,35.73 25.93,52.39 54.53,64.97 l 17.3,7.48 c 9.18,3.91 18.35,8.29 25.86,14.16 10.2,7.96 17.37,18.64 17.37,34.51 0,0.5 0,1.02 -0.02,1.53 v 0.14 c -0.12,4.03 -0.67,7.96 -1.62,11.73 -0.17,0.64 -0.33,1.29 -0.55,1.93 -0.21,0.79 -0.45,1.57 -0.74,2.34 -0.36,1.1 -0.76,2.19 -1.22,3.27 -0.24,0.6 -0.5,1.19 -0.79,1.79 -0.26,0.6 -0.55,1.19 -0.86,1.76 -0.24,0.52 -0.52,1.02 -0.81,1.53 a 48.49,48.49 0 0 1 -5.72,8.27 c -0.36,0.41 -0.71,0.83 -1.1,1.24 -2.03,2.19 -4.24,4.19 -6.63,5.93 -0.45,0.36 -0.91,0.67 -1.36,0.98 -1.26,0.86 -2.57,1.67 -3.93,2.38 -0.31,0.17 -0.62,0.33 -0.93,0.5 -0.41,0.19 -0.79,0.38 -1.19,0.57 a 44.812,44.812 0 0 1 -6.82,2.53 c -0.74,0.19 -1.48,0.38 -2.24,0.55 a 39.183,39.183 0 0 1 -4.29,0.71 c -0.33,0.05 -0.67,0.1 -1,0.12 -1.45,0.14 -2.93,0.21 -4.43,0.21 -7.51,0 -14.66,-1.6 -21.02,-4.5 -1.41,-0.64 -2.79,-1.33 -4.12,-2.12 a 42.39,42.39 0 0 1 -3.86,-2.5 c -1.26,-0.88 -2.45,-1.84 -3.6,-2.86 -0.6,-0.5 -1.17,-1.02 -1.69,-1.57 -2.76,-2.67 -5.2,-5.67 -7.2,-8.96 -0.1,-0.12 -0.17,-0.24 -0.24,-0.36 -0.07,-0.12 -0.17,-0.26 -0.24,-0.41 -0.1,-0.12 -0.17,-0.26 -0.24,-0.41 -0.17,-0.26 -0.31,-0.55 -0.48,-0.81 -0.36,-0.69 -0.74,-1.41 -1.07,-2.1 -0.69,-1.41 -1.29,-2.86 -1.84,-4.34 -1.98,-5.41 -3.03,-11.37 -2.96,-17.71 l -31.58,6.79 h -0.02 c 0.12,0.93 0.26,1.84 0.41,2.74 0.14,0.91 0.29,1.81 0.48,2.69 v 0.02 c 0.45,2.45 1.02,4.86 1.69,7.25 0.31,1.19 0.67,2.36 1.05,3.55 0.31,1 0.67,2 1,2.98 0.43,1.14 0.88,2.29 1.33,3.41 0.29,0.69 0.57,1.38 0.88,2.07 0.33,0.74 0.67,1.48 1,2.19 0.07,0.14 0.14,0.29 0.21,0.43 0.07,0.14 0.12,0.29 0.21,0.43 0,0.02 0.02,0.02 0.02,0.05 0.1,0.19 0.17,0.41 0.29,0.6 0.02,0.02 0.02,0.07 0.05,0.1 0.14,0.26 0.29,0.52 0.41,0.76 0.24,0.5 0.5,0.98 0.76,1.45 0.33,0.64 0.71,1.29 1.07,1.93 a 72.94,72.94 0 0 0 4.12,6.46 v 0.02 c 1.19,1.74 2.48,3.43 3.84,5.05 1.33,1.62 2.74,3.19 4.22,4.7 13.9,14.28 32.89,22.9 54.44,22.9 h 0.05 c 1.1,0 2.19,-0.02 3.29,-0.07 0.29,0 0.57,-0.02 0.83,-0.02 a 72,72 0 0 0 2.93,-0.19 c 1.1,-0.07 2.17,-0.19 3.24,-0.31 0.88,-0.12 1.76,-0.24 2.62,-0.36 0.48,-0.07 0.93,-0.14 1.38,-0.21 0.69,-0.12 1.38,-0.24 2.05,-0.38 0.64,-0.12 1.29,-0.24 1.91,-0.38 0.64,-0.14 1.29,-0.29 1.93,-0.43 0.57,-0.14 1.12,-0.29 1.67,-0.43 0.74,-0.19 1.45,-0.38 2.17,-0.6 1.02,-0.29 2.03,-0.62 3.03,-0.95 0.86,-0.29 1.72,-0.57 2.55,-0.91 0.38,-0.14 0.76,-0.29 1.12,-0.43 0.83,-0.31 1.67,-0.64 2.5,-1 0,-0.02 0,-0.02 0.02,-0.02 0.88,-0.38 1.76,-0.76 2.65,-1.19 2.31,-1.1 4.58,-2.31 6.77,-3.65 0.6,-0.33 1.19,-0.69 1.76,-1.07 0.21,-0.14 0.41,-0.26 0.62,-0.41 0.81,-0.5 1.6,-1.02 2.36,-1.6 0.76,-0.55 1.55,-1.1 2.31,-1.69 0.5,-0.38 1,-0.76 1.48,-1.17 1,-0.79 1.95,-1.6 2.91,-2.45 0.45,-0.41 0.91,-0.81 1.36,-1.22 4.29,-4 8.13,-8.53 11.44,-13.49 0.24,-0.38 0.48,-0.76 0.74,-1.14 0.33,-0.55 0.67,-1.07 1,-1.62 0.33,-0.55 0.67,-1.12 0.98,-1.67 0.64,-1.12 1.24,-2.26 1.84,-3.41 0.6,-1.19 1.17,-2.38 1.72,-3.62 0.24,-0.55 0.48,-1.12 0.71,-1.69 0.26,-0.62 0.5,-1.22 0.74,-1.84 0.17,-0.45 0.36,-0.91 0.52,-1.38 0.5,-1.38 0.98,-2.81 1.41,-4.27 0.38,-1.26 0.74,-2.57 1.07,-3.88 0.07,-0.26 0.12,-0.55 0.19,-0.83 0.81,-3.38 1.41,-6.89 1.79,-10.49 0.02,-0.29 0.07,-0.57 0.1,-0.86 0.02,-0.36 0.07,-0.69 0.1,-1.05 0.1,-1.05 0.17,-2.15 0.21,-3.22 0.07,-1.43 0.1,-2.88 0.1,-4.34 0.01,-0.71 0.01,-1.45 -0.02,-2.19 z"
     fill="none"
     id="path18" />
  <path
     d="m 543.21166,365.38 -58.39,-130.44 c -7.36,5.98 -15.28,12.42 -23.5,19.09 l 29.08,67.69 h -29.89 l 0.02,0.26 V 322 l 1.72,18.85 28.6,10.13 14.85,5.27 31.98,11.32 1.07,0.38 6.65,2.36 z"
     fill="#e2b738"
     id="path19" />
  <path
     d="m 462.25166,340.86 28.6,10.13 h -44.1 z m 76.5,27.1 -18.99,19.88 -0.77,-1.7 -13.3,-29.88 31.99,11.32 z"
     fill="#1f729b"
     id="path20" />
  <path
     d="m 543.21166,365.38 -1.22,-2.07 -4.31,4.27 -18.69,18.56 0.77,1.7 12.2,27.45 h 33.58 l -20.14,-44.97 z"
     fill="#d23e36"
     id="path21" />
  <path
     d="m 391.25166,350.99 h -2.93 l -28.6,64.3 h -33.61 l 36.35,-81.13 c 6.17,-5.01 13.85,-11.23 22.45,-18.21 z"
     fill="#165984"
     id="path22" />
  <path
     d="m 422.37166,273.43 c -14.09,10.84 -27.74,21.38 -39.59,30.53 l -1.84,-10.75 51.81,-113.31 9.51,48.14 z m 39.88,67.43 -15.49,10.13 h -55.03 l -6.72,-35.11 c 8.82,-7.13 18.61,-15.09 28.81,-23.36 l -12.54,29.2 h 59.06 l 0.19,0.26 V 322 Z"
     fill="#e95b3a"
     id="path23" />
  <path
     d="m 382.78166,303.97 c -3.65,2.79 -7.13,5.46 -10.39,7.96 l 8.56,-18.71 z"
     fill="#e2b738"
     id="path24" />
  <path
     d="m 445.82166,151.33 35.15,76.82 a 8293.35,8293.35 0 0 1 -23.55,18.21 l -11.61,-26.41 -3.38,7.75 -9.65,-47.83 z"
     fill="#1f729b"
     id="path25" />
  <path
     d="m 545.40166,370.32 -2.19,-4.93 -58.39,-130.44 c -7.36,5.98 -15.28,12.42 -23.5,19.09 l 29.08,67.69 h -89.11 l 12.54,-29.2 c -10.2,8.27 -20,16.23 -28.81,23.36 -0.02,0.02 -0.07,0.05 -0.1,0.07 -8.6,6.98 -16.28,13.2 -22.45,18.21 l -36.35,81.13 h 33.61 l 28.6,-64.3 h 115.05 l 2.34,5.27 13.3,29.89 0.76,1.69 12.2,27.46 h 33.58 z m -99.58,-218.99 -13.04,28.53 -0.02,0.05 -51.81,113.31 -8.56,18.71 c 3.27,-2.5 6.74,-5.17 10.39,-7.96 11.85,-9.15 25.5,-19.69 39.59,-30.53 l 19.9,-45.38 0.17,-0.33 v -0.02 l 3.38,-7.75 11.61,26.4 c 8.22,-6.34 16.18,-12.49 23.55,-18.21 z"
     fill="none"
     id="path26" />
</svg>
