<?xml version="1.0" encoding="UTF-8" standalone="no"?>
<!-- Created with Inkscape (http://www.inkscape.org/) -->

<svg
   width="675"
   height="550"
   id="svg3257"
   version="1.1"
   inkscape:version="1.2 (dc2aeda, 2022-05-15)"
   sodipodi:docname="fuerza-lorentz.svg"
   xmlns:inkscape="http://www.inkscape.org/namespaces/inkscape"
   xmlns:sodipodi="http://sodipodi.sourceforge.net/DTD/sodipodi-0.dtd"
   xmlns="http://www.w3.org/2000/svg"
   xmlns:svg="http://www.w3.org/2000/svg"
   xmlns:rdf="http://www.w3.org/1999/02/22-rdf-syntax-ns#"
   xmlns:cc="http://creativecommons.org/ns#"
   xmlns:dc="http://purl.org/dc/elements/1.1/">
  <defs
     id="defs3259">
    <inkscape:path-effect
       effect="spiro"
       id="path-effect4181"
       is_visible="true"
       lpeversion="0" />
    <inkscape:path-effect
       effect="spiro"
       id="path-effect4102"
       is_visible="true"
       lpeversion="0" />
    <inkscape:path-effect
       effect="spiro"
       id="path-effect3330"
       is_visible="true"
       lpeversion="0" />
  </defs>
  <sodipodi:namedview
     id="base"
     pagecolor="#ffffff"
     bordercolor="#666666"
     borderopacity="1.0"
     inkscape:pageopacity="0.0"
     inkscape:pageshadow="2"
     inkscape:zoom="0.49497475"
     inkscape:cx="670.74129"
     inkscape:cy="349.51278"
     inkscape:document-units="px"
     inkscape:current-layer="layer1"
     showgrid="true"
     inkscape:window-width="1280"
     inkscape:window-height="674"
     inkscape:window-x="1920"
     inkscape:window-y="238"
     inkscape:window-maximized="0"
     inkscape:showpageshadow="2"
     inkscape:pagecheckerboard="0"
     inkscape:deskcolor="#d1d1d1">
    <inkscape:grid
       type="xygrid"
       id="grid3324"
       empspacing="5"
       visible="true"
       enabled="true"
       snapvisiblegridlinesonly="true"
       spacingx="5"
       spacingy="5"
       originx="0"
       originy="0" />
  </sodipodi:namedview>
  <metadata
     id="metadata3262">
    <rdf:RDF>
      <cc:Work
         rdf:about="">
        <dc:format>image/svg+xml</dc:format>
        <dc:type
           rdf:resource="http://purl.org/dc/dcmitype/StillImage" />
      </cc:Work>
    </rdf:RDF>
  </metadata>
  <g
     inkscape:label="Ebene 1"
     inkscape:groupmode="layer"
     id="layer1"
     transform="translate(0,-502.36218)">
    <path
       style="fill:#c4c4ff;fill-opacity:1;stroke:none;stroke-width:1px;stroke-linecap:butt;stroke-linejoin:miter;stroke-opacity:1"
       d="M 175,0 V 550 H 675 V 0 Z"
       id="path3328"
       inkscape:path-effect="#path-effect3330"
       inkscape:original-d="M 175,0 V 550 H 675 V 0 Z"
       inkscape:connector-curvature="0"
       transform="translate(0,502.36218)" />
    <g
       id="g375">
      <path
         inkscape:connector-curvature="0"
         id="path6"
         d="M 400.12192,1006.7083 C 403.91597,945.55073 381.49615,885.66969 338.46985,842.04189 295.44355,798.41409 235.87948,775.16518 174.67511,778.10988"
         style="fill:none;stroke:#000000;stroke-width:3.68623" />
      <polygon
         transform="matrix(36.77286,2.5667686,-2.5667686,36.77286,130.88819,174.58316)"
         id="polygon8"
         points="8.61095,21.9714 8.73282,22.8006 9.1048,22.0495 8.61095,21.9714 "
         style="fill:#000000" />
    </g>
    <g
       transform="matrix(31.083074,0,0,31.083074,43.288528,436.46577)"
       id="g1345">
      <circle
         style="fill:#000080"
         cx="16"
         cy="15"
         id="ellipse10"
         r="0.25" />
      <circle
         style="fill:none;stroke:#000080;stroke-width:0.1"
         cx="16"
         cy="15"
         id="ellipse4"
         r="1.55" />
    </g>
    <line
       id="line14"
       y2="777.71185"
       x2="632.38959"
       y1="777.71185"
       x1="173.92593"
       style="fill:none;stroke:#000000;stroke-width:2.78295" />
    <line
       id="line18"
       y2="777.71185"
       x2="157.91563"
       y1="777.71185"
       x1="36.691635"
       style="fill:none;stroke:#000000;stroke-width:4.66246" />
    <path
       inkscape:connector-curvature="0"
       id="path20"
       d="m 21.150105,777.71189 c 0,-3.88539 3.885385,-7.77077 7.770769,-7.77077 3.885384,0 7.770769,3.88538 7.770769,7.77077 0,3.88538 -3.885385,7.77077 -7.770769,7.77077 -3.885384,0 -7.770769,-3.88539 -7.770769,-7.77077 z"
       style="fill:#ffffff" />
    <path
       inkscape:connector-curvature="0"
       id="path22"
       d="m 21.150105,777.71189 c 0,-3.88539 3.885385,-7.77077 7.770769,-7.77077 3.885384,0 7.770769,3.88538 7.770769,7.77077 0,3.88538 -3.885385,7.77077 -7.770769,7.77077 -3.885384,0 -7.770769,-3.88539 -7.770769,-7.77077"
       style="fill:#000000;fill-opacity:0;stroke:#000000;stroke-width:4.66246" />
    <polygon
       transform="matrix(31.083074,0,0,31.083074,174.23425,311.46577)"
       id="polygon24"
       points="-0.525,15.25 -0.025,15 -0.525,14.75 -0.525,15.25 "
       style="fill:#000000" />
    <g
       transform="matrix(36.77286,-2.5667686,-2.5667686,-36.77286,131.21309,1380.8889)"
       id="g1349">
      <path
         inkscape:connector-curvature="0"
         style="fill:none;stroke:#000000;stroke-width:0.1"
         d="M 8.85788,22.0105 C 8.8450312,20.348279 8.1251911,18.770121 6.8783973,17.670735 5.6316035,16.571349 3.9757577,16.054698 2.325,16.25"
         id="path1351" />
      <polygon
         style="fill:#000000"
         points="8.61095,21.9714 8.73282,22.8006 9.1048,22.0495 8.61095,21.9714 "
         id="polygon1353" />
    </g>
    <g
       aria-label="q"
       id="text1372"
       style="font-size:48px;line-height:0%;font-family:'Bitstream Vera Sans'">
      <path
         d="m 23.150207,829.88187 q -0.24,0.048 -0.624,-0.048 -0.336,-0.096 -0.336,-0.384 0,-0.384 0.48,-0.672 0.528,-0.24 0.96,-0.288 1.008,-0.144 1.824,-0.72 0.864,-0.576 1.2,-1.488 0.96,-2.592 1.92,-5.136 0.96,-2.544 1.92,-5.088 1.008,-2.592 1.968,-5.184 0.24,-0.528 0,-0.816 -0.192,-0.336 -0.768,0.336 -1.776,1.968 -3.504,3.456 -1.728,1.44 -3.456,2.208 -1.728,0.768 -3.456,0.768 -1.536,0 -2.448,-0.816 -0.912,-0.864 -0.912,-2.112 0,-2.016 0.96,-4.416 0.96,-2.4 2.544,-4.8 1.632,-2.4 3.552,-4.416 1.872,-1.968 4.128,-3.12 2.256,-1.152 4.032,-1.152 1.104,0 1.728,0.384 0.672,0.384 1.008,0.864 0.384,0.384 0.576,0.72 0.192,0.336 0.432,0.336 0.528,0 0.912,-0.768 l 0.432,-0.912 q 0.24,-0.576 0.576,-0.768 0.384,-0.24 0.72,-0.24 0.288,0 0.384,0.48 0.096,0.432 -0.24,1.344 l -9.36,28.272 q -0.336,1.008 0,1.584 0.336,0.576 1.248,0.672 0.48,0.048 0.96,0.192 0.48,0.144 0.48,0.528 0,0.288 -0.432,0.384 -0.432,0.144 -0.96,0.144 -1.584,0 -3.312,0.096 -1.68,0.144 -3.072,0.288 -1.392,0.144 -2.064,0.288 z m -0.672,-14.784 q 0.96,0 2.256,-0.72 1.296,-0.768 2.64,-1.92 1.392,-1.2 2.592,-2.592 1.2,-1.44 1.968,-2.736 1.056,-1.824 1.824,-3.744 0.816,-1.92 0.816,-3.408 0,-0.624 -0.24,-1.152 -0.192,-0.576 -0.624,-0.912 -0.384,-0.336 -1.008,-0.336 -0.912,0 -2.352,1.104 -1.392,1.056 -2.976,2.832 -1.584,1.728 -2.976,3.84 -1.392,2.064 -2.256,4.128 -0.864,2.064 -0.864,3.744 0,0.96 0.24,1.44 0.288,0.432 0.96,0.432 z"
         style="font-style:italic;line-height:-1.04;font-family:'EB Garamond';-inkscape-font-specification:'EB Garamond Italic'"
         id="path377" />
    </g>
    <g
       aria-label="q &lt; 0"
       id="text1382"
       style="font-size:48px;line-height:0%;font-family:'Bitstream Vera Sans'">
      <path
         d="m 291.07419,563.99851 q -0.24,0.048 -0.624,-0.048 -0.336,-0.096 -0.336,-0.384 0,-0.384 0.48,-0.672 0.528,-0.24 0.96,-0.288 1.008,-0.144 1.824,-0.72 0.864,-0.576 1.2,-1.488 0.96,-2.592 1.92,-5.136 0.96,-2.544 1.92,-5.088 1.008,-2.592 1.968,-5.184 0.24,-0.528 0,-0.816 -0.192,-0.336 -0.768,0.336 -1.776,1.968 -3.504,3.456 -1.728,1.44 -3.456,2.208 -1.728,0.768 -3.456,0.768 -1.536,0 -2.448,-0.816 -0.912,-0.864 -0.912,-2.112 0,-2.016 0.96,-4.416 0.96,-2.4 2.544,-4.8 1.632,-2.4 3.552,-4.416 1.872,-1.968 4.128,-3.12 2.256,-1.152 4.032,-1.152 1.104,0 1.728,0.384 0.672,0.384 1.008,0.864 0.384,0.384 0.576,0.72 0.192,0.336 0.432,0.336 0.528,0 0.912,-0.768 l 0.432,-0.912 q 0.24,-0.576 0.576,-0.768 0.384,-0.24 0.72,-0.24 0.288,0 0.384,0.48 0.096,0.432 -0.24,1.344 l -9.36,28.272 q -0.336,1.008 0,1.584 0.336,0.576 1.248,0.672 0.48,0.048 0.96,0.192 0.48,0.144 0.48,0.528 0,0.288 -0.432,0.384 -0.432,0.144 -0.96,0.144 -1.584,0 -3.312,0.096 -1.68,0.144 -3.072,0.288 -1.392,0.144 -2.064,0.288 z m -0.672,-14.784 q 0.96,0 2.256,-0.72 1.296,-0.768 2.64,-1.92 1.392,-1.2 2.592,-2.592 1.2,-1.44 1.968,-2.736 1.056,-1.824 1.824,-3.744 0.816,-1.92 0.816,-3.408 0,-0.624 -0.24,-1.152 -0.192,-0.576 -0.624,-0.912 -0.384,-0.336 -1.008,-0.336 -0.912,0 -2.352,1.104 -1.392,1.056 -2.976,2.832 -1.584,1.728 -2.976,3.84 -1.392,2.064 -2.256,4.128 -0.864,2.064 -0.864,3.744 0,0.96 0.24,1.44 0.288,0.432 0.96,0.432 z"
         style="font-style:italic;font-family:'EB Garamond';-inkscape-font-specification:'EB Garamond Italic'"
         id="path383" />
      <path
         d="m 341.47411,550.36651 -18.864,-9.456 q -0.624,-0.288 -1.296,-0.672 -0.672,-0.432 -0.672,-0.624 0,-0.336 0.432,-1.104 0.432,-0.768 1.152,-1.104 l 19.344,-9.504 q 0.24,-0.144 0.384,-0.144 0.24,0 0.336,0.144 0.096,0.096 0.096,0.336 0,0.432 -0.384,1.248 -0.384,0.816 -1.104,1.2 l -16.464,8.352 q -0.096,0.048 -0.096,0.144 0.048,0.048 0.144,0.096 l 16.8,8.352 q 0.672,0.336 0.912,1.152 0.24,0.816 0.24,1.152 0,0.48 -0.384,0.48 -0.336,0.048 -0.576,-0.048 z"
         style="line-height:-1.04;font-family:'EB Garamond';-inkscape-font-specification:'EB Garamond'"
         id="path385" />
      <path
         d="m 366.33803,550.94251 q -2.448,0 -4.272,-1.344 -1.776,-1.344 -2.976,-3.552 -1.2,-2.256 -1.776,-4.944 -0.576,-2.688 -0.576,-5.328 0,-2.736 0.576,-5.52 0.576,-2.784 1.776,-5.088 1.248,-2.304 3.168,-3.696 1.92,-1.44 4.56,-1.44 2.448,0 4.224,1.344 1.824,1.344 3.024,3.6 1.2,2.208 1.776,4.896 0.576,2.64 0.576,5.232 0,2.688 -0.576,5.472 -0.576,2.784 -1.824,5.136 -1.2,2.352 -3.12,3.792 -1.872,1.44 -4.56,1.44 z m 0.816,-1.248 q 1.92,0 3.072,-1.92 1.2,-1.968 1.728,-5.088 0.528,-3.12 0.528,-6.72 0,-2.688 -0.432,-5.28 -0.384,-2.592 -1.248,-4.704 -0.816,-2.112 -2.064,-3.36 -1.2,-1.248 -2.832,-1.248 -1.92,0 -3.072,1.872 -1.104,1.872 -1.632,4.992 -0.48,3.072 -0.48,6.672 0,2.688 0.384,5.328 0.432,2.64 1.2,4.8 0.816,2.112 2.016,3.408 1.2,1.248 2.832,1.248 z"
         style="line-height:-1.04;font-family:'EB Garamond';-inkscape-font-specification:'EB Garamond'"
         id="path387" />
    </g>
    <g
       aria-label="q &gt; 0"
       id="text1382-7"
       style="font-size:48px;line-height:0%;font-family:'Bitstream Vera Sans'">
      <path
         d="m 291.07419,1035.4256 q -0.24,0.048 -0.624,-0.048 -0.336,-0.096 -0.336,-0.384 0,-0.384 0.48,-0.672 0.528,-0.24 0.96,-0.288 1.008,-0.144 1.824,-0.72 0.864,-0.576 1.2,-1.488 0.96,-2.592 1.92,-5.136 0.96,-2.544 1.92,-5.088 1.008,-2.592 1.968,-5.184 0.24,-0.528 0,-0.816 -0.192,-0.336 -0.768,0.336 -1.776,1.968 -3.504,3.456 -1.728,1.44 -3.456,2.208 -1.728,0.768 -3.456,0.768 -1.536,0 -2.448,-0.816 -0.912,-0.864 -0.912,-2.112 0,-2.016 0.96,-4.416 0.96,-2.4 2.544,-4.8 1.632,-2.4 3.552,-4.416 1.872,-1.968 4.128,-3.12 2.256,-1.152 4.032,-1.152 1.104,0 1.728,0.384 0.672,0.384 1.008,0.864 0.384,0.384 0.576,0.72 0.192,0.336 0.432,0.336 0.528,0 0.912,-0.768 l 0.432,-0.912 q 0.24,-0.576 0.576,-0.768 0.384,-0.24 0.72,-0.24 0.288,0 0.384,0.48 0.096,0.432 -0.24,1.344 l -9.36,28.272 q -0.336,1.008 0,1.584 0.336,0.576 1.248,0.672 0.48,0.048 0.96,0.192 0.48,0.144 0.48,0.528 0,0.288 -0.432,0.384 -0.432,0.144 -0.96,0.144 -1.584,0 -3.312,0.096 -1.68,0.144 -3.072,0.288 -1.392,0.144 -2.064,0.288 z m -0.672,-14.784 q 0.96,0 2.256,-0.72 1.296,-0.768 2.64,-1.92 1.392,-1.2 2.592,-2.592 1.2,-1.44 1.968,-2.736 1.056,-1.824 1.824,-3.744 0.816,-1.92 0.816,-3.408 0,-0.624 -0.24,-1.152 -0.192,-0.576 -0.624,-0.912 -0.384,-0.336 -1.008,-0.336 -0.912,0 -2.352,1.104 -1.392,1.056 -2.976,2.832 -1.584,1.728 -2.976,3.84 -1.392,2.064 -2.256,4.128 -0.864,2.064 -0.864,3.744 0,0.96 0.24,1.44 0.288,0.432 0.96,0.432 z"
         style="font-style:italic;font-family:'EB Garamond';-inkscape-font-specification:'EB Garamond Italic'"
         id="path397" />
      <path
         d="m 321.60211,999.28157 18.864,9.45603 q 0.624,0.288 1.296,0.672 0.672,0.384 0.672,0.624 0,0.336 -0.432,1.104 -0.432,0.72 -1.152,1.104 l -19.344,9.504 q -0.192,0.144 -0.384,0.144 -0.192,0 -0.336,-0.144 -0.096,-0.144 -0.096,-0.336 0,-0.432 0.384,-1.248 0.384,-0.864 1.104,-1.2 l 16.464,-8.352 q 0.096,-0.048 0.048,-0.096 0,-0.096 -0.096,-0.144 l -16.8,-8.352 q -0.672,-0.336 -0.912,-1.152 -0.24,-0.816 -0.24,-1.15203 0,-0.48 0.336,-0.48 0.384,-0.048 0.624,0.048 z"
         style="line-height:-1.04;font-family:'EB Garamond';-inkscape-font-specification:'EB Garamond'"
         id="path399" />
      <path
         d="m 366.33803,1022.3696 q -2.448,0 -4.272,-1.344 -1.776,-1.344 -2.976,-3.552 -1.2,-2.256 -1.776,-4.944 -0.576,-2.688 -0.576,-5.328 0,-2.736 0.576,-5.52 0.576,-2.78403 1.776,-5.08803 1.248,-2.304 3.168,-3.696 1.92,-1.44 4.56,-1.44 2.448,0 4.224,1.344 1.824,1.344 3.024,3.6 1.2,2.208 1.776,4.89603 0.576,2.64 0.576,5.232 0,2.688 -0.576,5.472 -0.576,2.784 -1.824,5.136 -1.2,2.352 -3.12,3.792 -1.872,1.44 -4.56,1.44 z m 0.816,-1.248 q 1.92,0 3.072,-1.92 1.2,-1.968 1.728,-5.088 0.528,-3.12 0.528,-6.72 0,-2.688 -0.432,-5.28 -0.384,-2.59203 -1.248,-4.70403 -0.816,-2.112 -2.064,-3.36 -1.2,-1.248 -2.832,-1.248 -1.92,0 -3.072,1.872 -1.104,1.872 -1.632,4.992 -0.48,3.07203 -0.48,6.67203 0,2.688 0.384,5.328 0.432,2.64 1.2,4.8 0.816,2.112 2.016,3.408 1.2,1.248 2.832,1.248 z"
         style="line-height:-1.04;font-family:'EB Garamond';-inkscape-font-specification:'EB Garamond'"
         id="path401" />
    </g>
    <g
       aria-label="q = 0"
       id="text1382-7-5"
       style="font-size:48px;line-height:0%;font-family:'Bitstream Vera Sans'">
      <path
         d="m 343.80206,827.40427 q -0.24,0.048 -0.624,-0.048 -0.336,-0.096 -0.336,-0.384 0,-0.384 0.48,-0.672 0.528,-0.24 0.96,-0.288 1.008,-0.144 1.824,-0.72 0.864,-0.576 1.2,-1.488 0.96,-2.592 1.92,-5.136 0.96,-2.544 1.92,-5.088 1.008,-2.592 1.968,-5.184 0.24,-0.528 0,-0.816 -0.192,-0.336 -0.768,0.336 -1.776,1.968 -3.504,3.456 -1.728,1.44 -3.456,2.208 -1.728,0.768 -3.456,0.768 -1.536,0 -2.448,-0.816 -0.912,-0.864 -0.912,-2.112 0,-2.016 0.96,-4.416 0.96,-2.4 2.544,-4.8 1.632,-2.4 3.552,-4.416 1.872,-1.968 4.128,-3.12 2.256,-1.152 4.032,-1.152 1.104,0 1.728,0.384 0.672,0.384 1.008,0.864 0.384,0.384 0.576,0.72 0.192,0.336 0.432,0.336 0.528,0 0.912,-0.768 l 0.432,-0.912 q 0.24,-0.576 0.576,-0.768 0.384,-0.24 0.72,-0.24 0.288,0 0.384,0.48 0.096,0.432 -0.24,1.344 l -9.36,28.272 q -0.336,1.008 0,1.584 0.336,0.576 1.248,0.672 0.48,0.048 0.96,0.192 0.48,0.144 0.48,0.528 0,0.288 -0.432,0.384 -0.432,0.144 -0.96,0.144 -1.584,0 -3.312,0.096 -1.68,0.144 -3.072,0.288 -1.392,0.144 -2.064,0.288 z m -0.672,-14.784 q 0.96,0 2.256,-0.72 1.296,-0.768 2.64,-1.92 1.392,-1.2 2.592,-2.592 1.2,-1.44 1.968,-2.736 1.056,-1.824 1.824,-3.744 0.816,-1.92 0.816,-3.408 0,-0.624 -0.24,-1.152 -0.192,-0.576 -0.624,-0.912 -0.384,-0.336 -1.008,-0.336 -0.912,0 -2.352,1.104 -1.392,1.056 -2.976,2.832 -1.584,1.728 -2.976,3.84 -1.392,2.064 -2.256,4.128 -0.864,2.064 -0.864,3.744 0,0.96 0.24,1.44 0.288,0.432 0.96,0.432 z"
         style="font-style:italic;font-family:'EB Garamond';-inkscape-font-specification:'EB Garamond Italic'"
         id="path390" />
      <path
         d="m 373.89799,798.60427 q -0.24,0 -0.48,-0.192 -0.192,-0.192 -0.192,-0.384 0,-0.24 0.096,-0.672 0.144,-0.432 0.384,-0.768 0.24,-0.384 0.672,-0.384 h 20.544 q 0.24,0 0.432,0.144 0.24,0.144 0.24,0.384 0,0.48 -0.48,1.2 -0.48,0.672 -1.056,0.672 z m 0,8.208 q -0.24,0 -0.48,-0.192 -0.192,-0.192 -0.192,-0.384 0,-0.24 0.096,-0.672 0.144,-0.432 0.384,-0.768 0.24,-0.384 0.672,-0.384 h 20.544 q 0.24,0 0.432,0.144 0.24,0.144 0.24,0.384 0,0.624 -0.48,1.248 -0.48,0.624 -1.056,0.624 z"
         style="line-height:-1.04;font-family:'EB Garamond';-inkscape-font-specification:'EB Garamond'"
         id="path392" />
      <path
         d="m 419.35393,814.34827 q -2.448,0 -4.272,-1.344 -1.776,-1.344 -2.976,-3.552 -1.2,-2.256 -1.776,-4.944 -0.576,-2.688 -0.576,-5.328 0,-2.736 0.576,-5.52 0.576,-2.784 1.776,-5.088 1.248,-2.304 3.168,-3.696 1.92,-1.44 4.56,-1.44 2.448,0 4.224,1.344 1.824,1.344 3.024,3.6 1.2,2.208 1.776,4.896 0.576,2.64 0.576,5.232 0,2.688 -0.576,5.472 -0.576,2.784 -1.824,5.136 -1.2,2.352 -3.12,3.792 -1.872,1.44 -4.56,1.44 z m 0.816,-1.248 q 1.92,0 3.072,-1.92 1.2,-1.968 1.728,-5.088 0.528,-3.12 0.528,-6.72 0,-2.688 -0.432,-5.28 -0.384,-2.592 -1.248,-4.704 -0.816,-2.112 -2.064,-3.36 -1.2,-1.248 -2.832,-1.248 -1.92,0 -3.072,1.872 -1.104,1.872 -1.632,4.992 -0.48,3.072 -0.48,6.672 0,2.688 0.384,5.328 0.432,2.64 1.2,4.8 0.816,2.112 2.016,3.408 1.2,1.248 2.832,1.248 z"
         style="line-height:-1.04;font-family:'EB Garamond';-inkscape-font-specification:'EB Garamond'"
         id="path394" />
    </g>
    <g
       aria-label="B"
       id="text1392"
       style="font-size:48px;line-height:0%;font-family:'Bitstream Vera Sans';fill:#000080;stroke:#000080;stroke-width:1.5">
      <path
         d="m 584.90466,977.44135 q -0.432,0 -0.72,-0.24 -0.24,-0.192 -0.24,-0.48 0,-0.72 1.056,-1.008 1.632,-0.432 2.304,-1.008 0.72,-0.576 0.72,-2.112 v -21.84 q 0,-1.536 -0.624,-2.208 -0.624,-0.72 -2.304,-1.056 -0.624,-0.144 -0.864,-0.384 -0.24,-0.288 -0.24,-0.624 0,-0.288 0.288,-0.48 0.288,-0.24 0.72,-0.24 1.536,0 2.544,0.096 1.008,0.096 1.872,0.192 0.912,0.048 2.112,0.048 1.104,0 2.016,-0.096 0.912,-0.144 2.016,-0.24 1.152,-0.096 2.784,-0.096 5.712,0 8.64,1.632 2.976,1.584 2.976,5.52 0,1.488 -0.672,2.832 -0.672,1.296 -1.728,2.16 -0.768,0.672 -1.632,1.104 -0.816,0.432 -1.872,0.72 -0.192,0.048 -0.192,0.24 0,0.192 0.192,0.24 1.248,0.288 2.592,0.768 1.344,0.432 2.496,1.296 1.2,0.864 1.872,2.256 0.72,1.344 0.72,3.456 0,2.688 -0.864,4.272 -0.816,1.536 -2.016,2.352 -1.152,0.816 -2.16,1.344 -1.584,0.768 -3.6,1.152 -2.016,0.384 -4.8,0.384 -1.584,0 -3.216,-0.096 -1.584,-0.096 -3.36,-0.096 -1.008,0 -2.208,0.048 -1.2,0.048 -2.4,0.096 -1.152,0.096 -2.208,0.096 z m 13.44,-2.688 q 1.44,0 2.688,-0.864 1.296,-0.864 2.016,-2.304 0.768,-1.488 0.768,-3.36 0,-1.632 -0.432,-2.736 -0.384,-1.104 -0.96,-1.776 -0.528,-0.672 -1.008,-1.008 -0.384,-0.336 -1.392,-0.672 -0.96,-0.384 -2.4,-0.384 -0.816,0 -1.536,0.432 -0.672,0.384 -0.672,1.152 v 8.448 q 0,1.584 0.768,2.352 0.768,0.72 2.16,0.72 z m -1.008,-15.264 q 1.152,0 2.112,-0.24 0.96,-0.288 1.968,-1.056 0.336,-0.336 0.912,-1.344 0.624,-1.056 0.624,-3.024 0,-2.016 -0.528,-3.36 -0.528,-1.344 -1.632,-2.016 -1.056,-0.672 -2.832,-0.672 -1.344,0 -1.968,0.528 -0.576,0.48 -0.576,1.488 v 8.016 q 0,0.96 0.672,1.344 0.672,0.336 1.248,0.336 z"
         style="font-weight:bold;line-height:-1.04;font-family:'EB Garamond';-inkscape-font-specification:'EB Garamond Bold'"
         id="path404" />
    </g>
    <g
       aria-label="v"
       id="text1396"
       style="font-size:48px;line-height:0%;font-family:'Bitstream Vera Sans'">
      <path
         d="m 146.57163,764.04309 q -1.104,0 -1.92,-0.96 -0.816,-0.96 -1.104,-2.4 -0.24,-1.44 0.288,-2.832 l 3.12,-8.304 q 0.384,-0.96 0.432,-1.536 0.048,-0.624 -0.528,-0.624 -0.336,0 -1.2,0.72 -0.816,0.72 -1.584,1.536 -0.24,0.288 -0.384,0.336 -0.144,0.048 -0.24,0.048 -0.336,0 -0.336,-0.24 0,-0.288 0.096,-0.624 0.144,-0.336 0.48,-0.816 0.864,-1.2 1.728,-2.112 0.912,-0.96 1.728,-1.584 0.816,-0.672 1.488,-1.008 0.72,-0.336 1.248,-0.336 0.384,0 0.72,0.288 0.336,0.288 0.48,0.72 0.192,0.384 0.048,0.864 l -4.32,12.48 q -0.528,1.632 -0.144,2.64 0.384,1.008 1.584,1.008 1.728,0 3.36,-0.96 1.68,-1.008 2.976,-2.64 1.296,-1.68 2.064,-3.696 0.768,-2.016 0.768,-4.08 0,-0.816 -0.336,-1.632 -0.288,-0.816 -0.816,-1.44 -0.336,-0.384 -0.48,-0.768 -0.096,-0.384 -0.096,-0.816 0,-0.432 0.432,-0.864 0.432,-0.48 1.056,-0.768 0.672,-0.336 1.344,-0.336 0.528,0 0.96,0.816 0.432,0.816 0.432,2.496 0,2.112 -0.48,4.176 -0.432,2.064 -1.44,4.08 -0.96,1.968 -2.64,3.888 -2.256,2.64 -4.56,3.984 -2.256,1.296 -4.224,1.296 z"
         style="font-style:italic;line-height:-1.04;font-family:'EB Garamond';-inkscape-font-specification:'EB Garamond Italic'"
         id="path380" />
    </g>
    <polygon
       transform="matrix(-5.6216659,-36.431147,36.431147,-5.6216659,-127.76675,1224.1199)"
       id="polygon1336"
       points="8.61095,21.9714 8.73282,22.8006 9.1048,22.0495 8.61095,21.9714 "
       style="fill:#000000" />
  </g>
</svg>
