<?xml version="1.0" encoding="UTF-8" standalone="no"?>
<!-- Created with Inkscape (http://www.inkscape.org/) -->
<svg
   xmlns:svg="http://www.w3.org/2000/svg"
   xmlns="http://www.w3.org/2000/svg"
   version="1.0"
   width="917"
   height="665"
   viewBox="0 0 91700 66452"
   id="svg2"
   xml:space="preserve">
 <defs
   id="defs4"><marker
     refX="0"
     refY="0"
     orient="auto"
     style="overflow:visible"
     id="Arrow1Mend"><path
       d="M 0,0 L 5,-5 L -12.5,0 L 5,5 L 0,0 z "
       transform="matrix(-0.4,0,0,-0.4,-4,0)"
       style="fill-rule:evenodd;stroke:#000000;stroke-width:1pt;marker-start:none"
       id="path12208" /></marker></defs>
 <path
   d="M -1624.1821 26492.457 A 3630.5249 2149.6528 0 1 1  -8885.2319,26492.457 A 3630.5249 2149.6528 0 1 1  -1624.1821 26492.457 z"
   transform="matrix(1.0079452,0,0,0.5023075,50983.204,20242.626)"
   style="opacity:1;fill:none;fill-opacity:1;stroke:#da251d;stroke-width:199.98692322;stroke-linecap:butt;stroke-linejoin:round;marker-start:url(#Arrow1Mend);marker-mid:url(#Arrow1Mend);marker-end:none;stroke-miterlimit:4;stroke-dasharray:99.99346376, 99.99346376;stroke-dashoffset:0;stroke-opacity:1"
   id="path10254" /><path
   d="M 13061,13475 L 78945,13475 L 78945,56135 L 13061,56135 L 13061,13475 z "
   style="fill:none;stroke:#1f1a17;stroke-width:133;stroke-dasharray:666, 400"
   id="vacuum-chamber" /><path
   d="M 45742,7858 L 22919,7858 C 22919,12831 33171,16887 45742,16887 C 58312,16887 68564,12831 68564,7858 L 45742,7858 z "
   style="fill:#48b4e3;stroke:#c2c1c1;stroke-width:29"
   id="pos-cap" /><path
   d="M 45742,61028 L 22919,61028 C 22919,56054 33171,51998 45742,51998 C 58312,51998 68564,56054 68564,61028 L 45742,61028 z "
   style="fill:#48b4e3;stroke:#c2c1c1;stroke-width:29"
   id="path11" /><path
   d="M 13117,34740 L 13117,13490 C 15999,13490 18351,23036 18351,34740 C 18351,46444 15999,55990 13117,55990 L 13117,34740 z "
   style="fill:#48b4e3"
   id="neg-ring" /><path
   d="M 78946,34778 L 78946,13528 C 76063,13528 73712,23074 73712,34778 C 73712,46482 76063,56027 78946,56027 L 78946,34778 z "
   style="fill:#48b4e3"
   id="path14" /><g
   id="g21">
   <path
   d="M 54771,819 L 54771,6223"
   style="fill:none;stroke:#48b4e3;stroke-width:133"
   id="path23" />
   <path
   d="M 56508,1785 L 56508,5257"
   style="fill:none;stroke:#48b4e3;stroke-width:133"
   id="path25" />
  </g><path
   d="M 45854,45699 L 45854,38475 L 46861,38475 L 45742,36954 L 44622,38475 L 45630,38475 L 45630,45699 L 45854,45699 z "
   style="fill:#48b4e3"
   id="path31" /><path
   d="M 45854,22560 L 45854,29784 L 46861,29784 L 45742,31305 L 44622,29784 L 45630,29784 L 45630,22560 L 45854,22560 z "
   style="fill:#48b4e3"
   id="path33" /><path
   d="M 47435,26841 L 47872,24567 L 49041,24567 L 49002,24778 L 48055,24778 L 47899,25587 L 48843,25587 L 48804,25795 L 47857,25795 L 47655,26841 L 47435,26841 z M 48989,27480 L 49207,26343 L 49791,26343 L 49772,26449 L 49299,26449 L 49220,26853 L 49692,26853 L 49673,26957 L 49200,26957 L 49118,27376 L 49592,27376 L 49570,27480 L 48989,27480 z "
   style="fill:#48b4e3"
   id="path35" /><path
   d="M 47435,43154 L 47872,40880 L 49041,40880 L 49002,41091 L 48055,41091 L 47899,41900 L 48843,41900 L 48804,42107 L 47857,42107 L 47655,43154 L 47435,43154 z M 48989,43793 L 49207,42656 L 49791,42656 L 49772,42762 L 49299,42762 L 49220,43166 L 49692,43166 L 49673,43270 L 49200,43270 L 49118,43689 L 49592,43689 L 49570,43793 L 48989,43793 z "
   style="fill:#48b4e3"
   id="path37" /><g
   id="g39">
   <circle
   cx="45471"
   cy="12560"
   r="1066"
   style="fill:none;stroke:#1f1a17;stroke-width:67"
   id="circle41" />
   <path
   d="M 45548,11621 L 45548,12499 L 46408,12499 L 46408,12652 L 45548,12652 L 45548,13528 L 45395,13528 L 45395,12652 L 44534,12652 L 44534,12499 L 45395,12499 L 45395,11621 L 45548,11621 z "
   style="fill:#1f1a17"
   id="path43" />
  </g><g
   id="g45">
   <circle
   cx="46182"
   cy="58064"
   r="1066"
   style="fill:none;stroke:#1f1a17;stroke-width:67"
   id="circle47" />
   <path
   d="M 46259,57125 L 46259,58002 L 47119,58002 L 47119,58155 L 46259,58155 L 46259,59032 L 46106,59032 L 46106,58155 L 45245,58155 L 45245,58002 L 46106,58002 L 46106,57125 L 46259,57125 z "
   style="fill:#1f1a17"
   id="path49" />
  </g><g
   id="g51">
   <path
   d="M 16030,34343 L 16030,34551 L 15297,34551 L 15297,34343 L 16030,34343 z "
   style="fill:#1f1a17"
   id="path53" />
   <circle
   cx="15663"
   cy="34447"
   r="1066"
   style="fill:none;stroke:#1f1a17;stroke-width:67"
   id="circle55" />
  </g><g
   id="g57">
   <path
   d="M 76799,34343 L 76799,34551 L 76067,34551 L 76067,34343 L 76799,34343 z "
   style="fill:#1f1a17"
   id="path59" />
   <circle
   cx="76433"
   cy="34447"
   r="1066"
   style="fill:none;stroke:#1f1a17;stroke-width:67"
   id="circle61" />
  </g><g
   id="g63">
   <g
   id="g65">
    <path
   d="M 17718,23662 L 18349,22994 L 18631,23766 L 17718,23662 L 17718,23662 z "
   style="fill:#007cc3"
   id="path67" />
    <path
   d="M 29004,14274 L 28737,14711 L 28466,15137 L 28191,15551 L 27914,15954 L 27632,16347 L 27346,16728 L 27057,17099 L 26764,17460 L 26467,17810 L 26166,18150 L 25861,18479 L 25552,18799 L 25239,19109 L 24922,19409 L 24601,19700 L 24275,19982 L 23945,20254 L 23610,20517 L 23271,20772 L 22927,21017 L 22579,21254 L 22226,21482 L 21869,21703 L 21506,21914 L 21139,22118 L 20767,22314 L 20390,22502 L 20007,22683 L 19620,22856 L 19228,23022 L 18830,23181 L 18427,23332 L 18472,23457 L 18878,23305 L 19278,23145 L 19673,22978 L 20063,22804 L 20447,22622 L 20827,22433 L 21202,22235 L 21572,22030 L 21937,21817 L 22297,21595 L 22652,21365 L 23003,21126 L 23349,20879 L 23691,20623 L 24028,20357 L 24361,20083 L 24689,19800 L 25012,19507 L 25332,19204 L 25647,18892 L 25958,18570 L 26265,18239 L 26568,17897 L 26866,17545 L 27161,17182 L 27452,16809 L 27739,16425 L 28022,16031 L 28302,15625 L 28578,15209 L 28850,14781 L 29118,14342 L 29004,14274 z "
   style="fill:#007cc3"
   id="path69" />
   </g>
   <g
   id="g71">
    <path
   d="M 17367,21764 L 17908,21020 L 18287,21750 L 17367,21764 L 17367,21764 z "
   style="fill:#007cc3"
   id="path73" />
    <path
   d="M 27309,13359 L 27004,13761 L 26705,14147 L 26411,14519 L 26123,14876 L 25838,15219 L 25558,15550 L 25282,15867 L 25008,16172 L 24737,16466 L 24468,16749 L 24200,17022 L 23934,17284 L 23668,17537 L 23402,17782 L 23135,18018 L 22868,18247 L 22598,18469 L 22327,18685 L 22053,18894 L 21776,19099 L 21496,19298 L 21211,19494 L 20922,19686 L 20628,19875 L 20328,20061 L 20022,20246 L 19709,20429 L 19389,20611 L 19062,20794 L 18726,20977 L 18382,21160 L 18028,21345 L 18089,21463 L 18444,21278 L 18789,21094 L 19126,20910 L 19455,20728 L 19776,20544 L 20090,20360 L 20397,20175 L 20699,19987 L 20995,19797 L 21286,19604 L 21572,19407 L 21855,19206 L 22133,19001 L 22409,18789 L 22682,18572 L 22953,18349 L 23223,18119 L 23491,17880 L 23759,17634 L 24027,17379 L 24295,17115 L 24564,16841 L 24834,16557 L 25107,16262 L 25381,15955 L 25659,15636 L 25940,15305 L 26226,14960 L 26515,14602 L 26810,14229 L 27110,13841 L 27416,13438 L 27309,13359 z "
   style="fill:#007cc3"
   id="path75" />
   </g>
   <g
   id="g77">
    <path
   d="M 16904,19801 L 17364,19005 L 17817,19691 L 16904,19801 L 16904,19801 z "
   style="fill:#007cc3"
   id="path79" />
    <path
   d="M 25501,12401 L 25157,12779 L 24828,13137 L 24515,13476 L 24216,13797 L 23929,14100 L 23655,14388 L 23392,14660 L 23139,14917 L 22895,15162 L 22659,15394 L 22430,15614 L 22208,15824 L 21990,16025 L 21777,16217 L 21567,16402 L 21359,16580 L 21152,16752 L 20945,16919 L 20738,17083 L 20529,17245 L 20317,17404 L 20101,17562 L 19881,17721 L 19654,17881 L 19421,18043 L 19180,18208 L 18931,18377 L 18671,18551 L 18402,18731 L 18120,18918 L 17825,19113 L 17517,19316 L 17591,19427 L 17899,19224 L 18193,19029 L 18475,18842 L 18745,18662 L 19005,18488 L 19255,18318 L 19497,18153 L 19730,17990 L 19958,17830 L 20179,17670 L 20396,17511 L 20609,17350 L 20820,17188 L 21029,17023 L 21236,16854 L 21445,16681 L 21654,16502 L 21865,16316 L 22080,16123 L 22298,15922 L 22522,15711 L 22752,15489 L 22989,15256 L 23233,15011 L 23487,14752 L 23751,14480 L 24026,14192 L 24313,13888 L 24612,13567 L 24926,13227 L 25255,12869 L 25599,12491 L 25501,12401 z "
   style="fill:#007cc3"
   id="path81" />
   </g>
   <g
   id="g83">
    <path
   d="M 16307,17550 L 16730,16734 L 17214,17399 L 16307,17550 L 16307,17550 z "
   style="fill:#007cc3"
   id="path85" />
    <path
   d="M 24069,10954 L 23715,11312 L 23381,11648 L 23068,11961 L 22774,12253 L 22497,12526 L 22236,12781 L 21991,13018 L 21759,13239 L 21540,13446 L 21331,13640 L 21133,13821 L 20942,13992 L 20759,14152 L 20582,14305 L 20409,14450 L 20240,14590 L 20072,14724 L 19905,14856 L 19738,14985 L 19568,15114 L 19395,15242 L 19217,15373 L 19034,15506 L 18843,15643 L 18643,15786 L 18434,15935 L 18213,16092 L 17981,16258 L 17734,16434 L 17472,16622 L 17194,16823 L 16898,17038 L 16977,17145 L 17272,16931 L 17550,16730 L 17811,16543 L 18058,16366 L 18291,16200 L 18511,16043 L 18720,15894 L 18920,15751 L 19111,15614 L 19296,15480 L 19474,15349 L 19648,15220 L 19818,15091 L 19987,14961 L 20155,14828 L 20324,14693 L 20494,14552 L 20668,14406 L 20846,14253 L 21030,14091 L 21222,13920 L 21421,13738 L 21630,13543 L 21851,13336 L 22083,13114 L 22329,12876 L 22590,12621 L 22867,12348 L 23162,12055 L 23476,11741 L 23809,11406 L 24164,11047 L 24069,10954 z "
   style="fill:#007cc3"
   id="path87" />
   </g>
   <g
   id="g89">
    <path
   d="M 17917,25419 L 18607,24811 L 18818,25606 L 17917,25419 L 17917,25419 z "
   style="fill:#007cc3"
   id="path91" />
    <path
   d="M 31106,15038 L 30879,15506 L 30635,15967 L 30375,16420 L 30099,16866 L 29809,17303 L 29503,17732 L 29185,18153 L 28853,18564 L 28509,18966 L 28153,19359 L 27786,19743 L 27409,20116 L 27021,20480 L 26625,20833 L 26220,21176 L 25807,21508 L 25387,21829 L 24960,22138 L 24527,22436 L 24089,22723 L 23646,22997 L 23200,23259 L 22749,23509 L 22297,23745 L 21842,23969 L 21385,24180 L 20928,24377 L 20471,24561 L 20014,24731 L 19559,24887 L 19105,25028 L 18654,25155 L 18688,25283 L 19143,25156 L 19600,25013 L 20059,24856 L 20519,24685 L 20979,24500 L 21440,24302 L 21899,24090 L 22357,23864 L 22812,23626 L 23265,23374 L 23715,23111 L 24160,22835 L 24601,22547 L 25036,22247 L 25466,21935 L 25889,21612 L 26304,21278 L 26712,20934 L 27111,20578 L 27501,20212 L 27881,19836 L 28250,19450 L 28609,19054 L 28955,18649 L 29289,18234 L 29611,17811 L 29918,17379 L 30211,16938 L 30489,16489 L 30752,16031 L 30998,15566 L 31227,15093 L 31106,15038 z "
   style="fill:#007cc3"
   id="path93" />
   </g>
   <g
   id="g95">
    <path
   d="M 18171,27413 L 18883,26830 L 19064,27632 L 18171,27413 L 18171,27413 z "
   style="fill:#007cc3"
   id="path97" />
    <path
   d="M 33175,15654 L 33006,16130 L 32806,16607 L 32576,17083 L 32317,17557 L 32031,18030 L 31719,18499 L 31382,18965 L 31021,19426 L 30639,19882 L 30236,20332 L 29814,20776 L 29373,21211 L 28916,21639 L 28444,22057 L 27959,22466 L 27461,22864 L 26951,23250 L 26432,23625 L 25905,23987 L 25371,24335 L 24831,24668 L 24287,24987 L 23740,25290 L 23192,25576 L 22643,25844 L 22096,26095 L 21552,26327 L 21011,26539 L 20476,26730 L 19948,26901 L 19428,27050 L 18917,27176 L 18946,27306 L 19461,27178 L 19986,27028 L 20519,26856 L 21057,26663 L 21602,26450 L 22150,26217 L 22700,25965 L 23252,25694 L 23803,25407 L 24353,25103 L 24900,24782 L 25442,24447 L 25979,24097 L 26509,23734 L 27030,23357 L 27542,22968 L 28043,22568 L 28531,22158 L 29006,21737 L 29465,21307 L 29908,20869 L 30334,20422 L 30739,19969 L 31124,19510 L 31488,19045 L 31828,18575 L 32143,18101 L 32433,17623 L 32694,17144 L 32928,16662 L 33130,16178 L 33301,15695 L 33175,15654 z "
   style="fill:#007cc3"
   id="path99" />
   </g>
   <g
   id="g101">
    <path
   d="M 18249,29189 L 19037,28715 L 19101,29535 L 18249,29189 L 18249,29189 z "
   style="fill:#007cc3"
   id="path103" />
    <path
   d="M 35640,16179 L 35504,16718 L 35323,17262 L 35097,17809 L 34830,18358 L 34523,18907 L 34178,19456 L 33798,20002 L 33385,20545 L 32940,21083 L 32467,21615 L 31966,22139 L 31440,22654 L 30892,23159 L 30324,23652 L 29737,24133 L 29134,24599 L 28516,25050 L 27887,25484 L 27248,25900 L 26601,26297 L 25948,26672 L 25292,27026 L 24635,27356 L 23979,27662 L 23326,27942 L 22678,28194 L 22037,28418 L 21406,28611 L 20787,28774 L 20182,28904 L 19592,29001 L 19021,29062 L 19031,29195 L 19610,29132 L 20206,29035 L 20818,28903 L 21443,28739 L 22079,28544 L 22724,28319 L 23376,28065 L 24033,27783 L 24693,27476 L 25354,27144 L 26013,26789 L 26668,26411 L 27318,26013 L 27961,25595 L 28593,25159 L 29213,24706 L 29820,24237 L 30409,23754 L 30981,23258 L 31532,22750 L 32061,22232 L 32564,21705 L 33041,21170 L 33489,20628 L 33906,20081 L 34289,19529 L 34637,18975 L 34948,18420 L 35218,17864 L 35447,17309 L 35632,16756 L 35770,16206 L 35640,16179 z "
   style="fill:#007cc3"
   id="path105" />
   </g>
   <g
   id="g107">
    <path
   d="M 18409,31189 L 19185,30697 L 19269,31516 L 18409,31189 L 18409,31189 z "
   style="fill:#007cc3"
   id="path109" />
    <path
   d="M 38102,16767 L 38071,17286 L 37974,17819 L 37816,18364 L 37598,18919 L 37324,19483 L 36995,20053 L 36616,20627 L 36189,21204 L 35716,21781 L 35201,22358 L 34648,22931 L 34057,23499 L 33434,24061 L 32780,24614 L 32099,25157 L 31393,25687 L 30665,26204 L 29919,26704 L 29158,27188 L 28383,27651 L 27599,28093 L 26809,28513 L 26014,28907 L 25218,29275 L 24425,29615 L 23636,29924 L 22856,30201 L 22086,30445 L 21331,30652 L 20592,30823 L 19873,30954 L 19178,31045 L 19191,31177 L 19894,31085 L 20619,30953 L 21363,30781 L 22124,30572 L 22898,30327 L 23682,30048 L 24475,29738 L 25272,29397 L 26071,29027 L 26869,28631 L 27663,28210 L 28450,27766 L 29227,27301 L 29992,26816 L 30741,26313 L 31471,25794 L 32180,25262 L 32864,24717 L 33521,24161 L 34148,23597 L 34741,23025 L 35299,22448 L 35817,21868 L 36293,21286 L 36725,20703 L 37108,20122 L 37441,19545 L 37720,18973 L 37942,18407 L 38104,17849 L 38203,17302 L 38235,16767 L 38102,16767 z "
   style="fill:#007cc3"
   id="path111" />
   </g>
   <g
   id="g113">
    <path
   d="M 18405,33054 L 19215,32618 L 19240,33440 L 18405,33054 L 18405,33054 z "
   style="fill:#007cc3"
   id="path115" />
    <path
   d="M 40491,16926 L 40480,17487 L 40390,18069 L 40225,18670 L 39988,19289 L 39683,19921 L 39313,20565 L 38882,21218 L 38394,21877 L 37852,22540 L 37260,23204 L 36622,23866 L 35942,24525 L 35223,25176 L 34469,25819 L 33684,26450 L 32871,27066 L 32035,27666 L 31178,28247 L 30306,28806 L 29420,29341 L 28526,29849 L 27627,30328 L 26727,30776 L 25828,31189 L 24937,31565 L 24054,31902 L 23186,32198 L 22335,32449 L 21506,32654 L 20701,32809 L 19925,32913 L 19182,32963 L 19186,33096 L 19938,33046 L 20722,32941 L 21534,32784 L 22370,32578 L 23226,32324 L 24100,32027 L 24986,31688 L 25882,31310 L 26784,30895 L 27688,30447 L 28590,29966 L 29487,29456 L 30376,28919 L 31251,28358 L 32111,27775 L 32950,27173 L 33766,26554 L 34554,25921 L 35311,25276 L 36033,24622 L 36716,23960 L 37358,23294 L 37953,22627 L 38498,21959 L 38991,21294 L 39426,20635 L 39800,19983 L 40110,19341 L 40351,18712 L 40520,18096 L 40612,17498 L 40624,16919 L 40491,16926 z "
   style="fill:#007cc3"
   id="path117" />
   </g>
  </g><g
   id="g119">
   <g
   id="g121">
    <path
   d="M 17907,45033 L 18821,44929 L 18539,45702 L 17907,45033 L 17907,45033 z "
   style="fill:#007cc3"
   id="path123" />
    <path
   d="M 29308,54353 L 29039,53914 L 28767,53486 L 28491,53070 L 28212,52664 L 27929,52270 L 27642,51886 L 27351,51513 L 27056,51151 L 26757,50798 L 26454,50457 L 26148,50125 L 25837,49803 L 25521,49491 L 25202,49188 L 24878,48895 L 24550,48612 L 24217,48338 L 23880,48072 L 23539,47816 L 23193,47569 L 22842,47330 L 22487,47100 L 22126,46878 L 21761,46665 L 21391,46460 L 21017,46262 L 20637,46073 L 20252,45891 L 19863,45717 L 19468,45550 L 19067,45390 L 18662,45238 L 18617,45363 L 19019,45514 L 19417,45673 L 19809,45839 L 20197,46012 L 20579,46193 L 20956,46381 L 21328,46577 L 21696,46781 L 22058,46992 L 22416,47213 L 22769,47441 L 23117,47678 L 23460,47924 L 23800,48178 L 24134,48441 L 24464,48713 L 24790,48995 L 25112,49286 L 25429,49586 L 25742,49896 L 26051,50216 L 26356,50546 L 26657,50885 L 26954,51235 L 27247,51596 L 27536,51967 L 27821,52348 L 28103,52741 L 28381,53144 L 28656,53558 L 28927,53984 L 29194,54421 L 29308,54353 z "
   style="fill:#007cc3"
   id="path125" />
   </g>
   <g
   id="g127">
    <path
   d="M 17557,46932 L 18476,46946 L 18097,47676 L 17557,46932 L 17557,46932 z "
   style="fill:#007cc3"
   id="path129" />
    <path
   d="M 27605,55257 L 27299,54854 L 26999,54466 L 26705,54093 L 26415,53735 L 26130,53390 L 25849,53059 L 25571,52740 L 25296,52433 L 25024,52138 L 24753,51854 L 24484,51580 L 24216,51316 L 23948,51061 L 23680,50815 L 23412,50576 L 23143,50346 L 22872,50123 L 22598,49906 L 22323,49694 L 22044,49489 L 21762,49288 L 21475,49091 L 21184,48898 L 20888,48708 L 20587,48520 L 20279,48335 L 19965,48151 L 19644,47967 L 19316,47785 L 18979,47601 L 18633,47417 L 18279,47232 L 18218,47350 L 18571,47535 L 18916,47718 L 19251,47901 L 19579,48084 L 19899,48266 L 20212,48449 L 20518,48634 L 20818,48820 L 21112,49009 L 21401,49201 L 21686,49397 L 21966,49596 L 22243,49801 L 22517,50010 L 22788,50226 L 23057,50448 L 23325,50677 L 23591,50913 L 23858,51158 L 24123,51411 L 24390,51673 L 24657,51946 L 24927,52229 L 25198,52523 L 25471,52828 L 25748,53145 L 26028,53476 L 26312,53819 L 26601,54176 L 26895,54548 L 27194,54934 L 27499,55336 L 27605,55257 z "
   style="fill:#007cc3"
   id="path131" />
   </g>
   <g
   id="g133">
    <path
   d="M 17093,48894 L 18006,49004 L 17553,49691 L 17093,48894 L 17093,48894 z "
   style="fill:#007cc3"
   id="path135" />
    <path
   d="M 25789,56204 L 25444,55826 L 25116,55468 L 24802,55128 L 24502,54807 L 24215,54503 L 23941,54215 L 23677,53943 L 23423,53684 L 23178,53439 L 22941,53206 L 22711,52985 L 22488,52773 L 22269,52572 L 22055,52379 L 21843,52193 L 21634,52014 L 21426,51841 L 21218,51672 L 21009,51507 L 20799,51345 L 20586,51184 L 20369,51025 L 20147,50865 L 19920,50705 L 19686,50542 L 19445,50377 L 19195,50207 L 18935,50033 L 18665,49853 L 18383,49666 L 18088,49472 L 17780,49268 L 17707,49379 L 18015,49582 L 18309,49777 L 18591,49964 L 18861,50144 L 19120,50318 L 19370,50487 L 19611,50652 L 19844,50814 L 20070,50974 L 20291,51133 L 20507,51291 L 20718,51451 L 20928,51612 L 21135,51776 L 21342,51943 L 21548,52116 L 21756,52294 L 21966,52478 L 22180,52670 L 22397,52871 L 22620,53081 L 22849,53301 L 23084,53533 L 23329,53778 L 23581,54035 L 23845,54308 L 24119,54595 L 24405,54898 L 24705,55219 L 25018,55558 L 25346,55916 L 25690,56294 L 25789,56204 z "
   style="fill:#007cc3"
   id="path137" />
   </g>
   <g
   id="g139">
    <path
   d="M 16497,51145 L 17404,51297 L 16920,51962 L 16497,51145 L 16497,51145 z "
   style="fill:#007cc3"
   id="path141" />
    <path
   d="M 24354,57648 L 23999,57289 L 23665,56954 L 23351,56640 L 23057,56347 L 22780,56074 L 22519,55819 L 22273,55581 L 22040,55359 L 21820,55152 L 21611,54957 L 21411,54775 L 21220,54604 L 21036,54442 L 20858,54289 L 20684,54143 L 20513,54002 L 20345,53867 L 20177,53734 L 20008,53604 L 19837,53475 L 19664,53346 L 19485,53215 L 19301,53081 L 19110,52944 L 18910,52801 L 18701,52652 L 18480,52495 L 18247,52329 L 18001,52152 L 17739,51965 L 17462,51764 L 17166,51550 L 17088,51657 L 17384,51872 L 17662,52073 L 17923,52261 L 18170,52437 L 18403,52603 L 18623,52760 L 18833,52909 L 19032,53052 L 19223,53189 L 19407,53322 L 19585,53453 L 19758,53582 L 19927,53710 L 20095,53839 L 20262,53971 L 20429,54105 L 20599,54245 L 20772,54390 L 20949,54543 L 21132,54703 L 21322,54874 L 21521,55055 L 21729,55249 L 21949,55456 L 22180,55677 L 22426,55915 L 22687,56169 L 22963,56442 L 23258,56734 L 23571,57047 L 23904,57383 L 24259,57741 L 24354,57648 z "
   style="fill:#007cc3"
   id="path143" />
   </g>
   <g
   id="g145">
    <path
   d="M 18107,43276 L 19007,43090 L 18796,43885 L 18107,43276 L 18107,43276 z "
   style="fill:#007cc3"
   id="path147" />
    <path
   d="M 31416,53602 L 31187,53129 L 30941,52664 L 30679,52206 L 30401,51757 L 30107,51316 L 29800,50884 L 29479,50461 L 29145,50046 L 28798,49641 L 28440,49245 L 28070,48859 L 27690,48483 L 27300,48117 L 26901,47761 L 26494,47417 L 26078,47083 L 25655,46760 L 25226,46448 L 24791,46148 L 24350,45860 L 23905,45584 L 23455,45321 L 23002,45069 L 22546,44831 L 22089,44605 L 21629,44393 L 21169,44195 L 20709,44010 L 20249,43839 L 19790,43682 L 19332,43540 L 18877,43412 L 18843,43540 L 19295,43667 L 19748,43808 L 20204,43964 L 20661,44134 L 21118,44318 L 21575,44515 L 22031,44726 L 22486,44950 L 22939,45187 L 23389,45436 L 23836,45698 L 24279,45972 L 24717,46259 L 25149,46557 L 25576,46866 L 25996,47187 L 26409,47519 L 26814,47862 L 27211,48215 L 27598,48579 L 27976,48952 L 28343,49336 L 28698,49729 L 29043,50131 L 29374,50542 L 29693,50963 L 29998,51392 L 30289,51829 L 30565,52275 L 30824,52728 L 31068,53189 L 31295,53657 L 31416,53602 z "
   style="fill:#007cc3"
   id="path149" />
   </g>
   <g
   id="g151">
    <path
   d="M 18361,41282 L 19254,41063 L 19072,41865 L 18361,41282 L 18361,41282 z "
   style="fill:#007cc3"
   id="path153" />
    <path
   d="M 33491,53000 L 33320,52517 L 33117,52033 L 32884,51551 L 32622,51072 L 32333,50594 L 32018,50120 L 31677,49650 L 31314,49185 L 30929,48726 L 30523,48273 L 30098,47826 L 29655,47388 L 29196,46958 L 28721,46537 L 28233,46127 L 27732,45727 L 27220,45338 L 26699,44961 L 26169,44598 L 25632,44248 L 25089,43913 L 24542,43593 L 23993,43288 L 23441,43001 L 22890,42730 L 22339,42478 L 21791,42245 L 21247,42032 L 20708,41839 L 20176,41667 L 19651,41517 L 19136,41389 L 19107,41519 L 19617,41645 L 20137,41794 L 20665,41965 L 21201,42156 L 21741,42368 L 22286,42600 L 22833,42851 L 23381,43119 L 23930,43405 L 24477,43708 L 25021,44027 L 25560,44360 L 26095,44708 L 26622,45070 L 27141,45445 L 27650,45831 L 28148,46229 L 28634,46638 L 29106,47056 L 29563,47484 L 30003,47919 L 30425,48363 L 30828,48813 L 31211,49269 L 31571,49730 L 31908,50196 L 32221,50665 L 32507,51138 L 32766,51612 L 32996,52088 L 33196,52565 L 33365,53041 L 33491,53000 z "
   style="fill:#007cc3"
   id="path155" />
   </g>
   <g
   id="g157">
    <path
   d="M 18439,39506 L 19291,39160 L 19227,39980 L 18439,39506 L 18439,39506 z "
   style="fill:#007cc3"
   id="path159" />
    <path
   d="M 35960,52489 L 35822,51939 L 35637,51386 L 35408,50831 L 35137,50275 L 34827,49720 L 34479,49166 L 34095,48615 L 33679,48067 L 33231,47526 L 32754,46990 L 32250,46463 L 31722,45945 L 31171,45437 L 30599,44941 L 30009,44458 L 29403,43989 L 28783,43536 L 28150,43100 L 27508,42682 L 26858,42284 L 26202,41906 L 25543,41551 L 24883,41219 L 24223,40912 L 23565,40630 L 22913,40376 L 22268,40151 L 21632,39956 L 21007,39792 L 20396,39660 L 19800,39563 L 19221,39500 L 19211,39633 L 19782,39694 L 20371,39791 L 20977,39921 L 21596,40084 L 22227,40278 L 22868,40501 L 23515,40753 L 24169,41033 L 24825,41339 L 25482,41669 L 26138,42023 L 26790,42398 L 27437,42795 L 28076,43211 L 28706,43645 L 29323,44096 L 29926,44562 L 30513,45043 L 31082,45536 L 31630,46041 L 32155,46556 L 32656,47080 L 33130,47612 L 33574,48150 L 33988,48693 L 34368,49239 L 34712,49788 L 35019,50337 L 35287,50886 L 35512,51433 L 35694,51977 L 35830,52516 L 35960,52489 z "
   style="fill:#007cc3"
   id="path161" />
   </g>
   <g
   id="g163">
    <path
   d="M 18598,37506 L 19458,37180 L 19375,37998 L 18598,37506 L 18598,37506 z "
   style="fill:#007cc3"
   id="path165" />
    <path
   d="M 38425,51928 L 38392,51393 L 38294,50846 L 38132,50288 L 37910,49722 L 37631,49150 L 37298,48573 L 36914,47992 L 36483,47409 L 36007,46827 L 35488,46247 L 34931,45670 L 34338,45098 L 33711,44534 L 33054,43978 L 32369,43433 L 31661,42901 L 30930,42382 L 30181,41879 L 29417,41395 L 28640,40929 L 27852,40485 L 27058,40064 L 26261,39668 L 25462,39298 L 24665,38957 L 23872,38647 L 23087,38368 L 22313,38123 L 21553,37914 L 20808,37742 L 20083,37610 L 19380,37518 L 19367,37650 L 20063,37741 L 20782,37872 L 21520,38043 L 22276,38250 L 23045,38494 L 23826,38771 L 24614,39080 L 25408,39420 L 26203,39788 L 26998,40182 L 27789,40602 L 28573,41044 L 29347,41507 L 30109,41991 L 30855,42491 L 31582,43008 L 32288,43538 L 32969,44081 L 33623,44634 L 34247,45196 L 34837,45764 L 35391,46337 L 35906,46914 L 36378,47491 L 36806,48068 L 37185,48642 L 37513,49212 L 37788,49776 L 38006,50331 L 38164,50876 L 38260,51409 L 38292,51928 L 38425,51928 z "
   style="fill:#007cc3"
   id="path167" />
   </g>
   <g
   id="g169">
    <path
   d="M 18595,35641 L 19429,35256 L 19404,36078 L 18595,35641 L 18595,35641 z "
   style="fill:#007cc3"
   id="path171" />
    <path
   d="M 40814,51776 L 40802,51197 L 40710,50599 L 40541,49983 L 40299,49354 L 39990,48712 L 39615,48060 L 39180,47401 L 38688,46736 L 38142,46068 L 37547,45401 L 36906,44735 L 36222,44074 L 35500,43419 L 34743,42774 L 33955,42141 L 33139,41522 L 32300,40920 L 31441,40337 L 30565,39776 L 29677,39239 L 28780,38729 L 27877,38249 L 26973,37800 L 26072,37385 L 25176,37007 L 24289,36668 L 23416,36371 L 22560,36117 L 21724,35911 L 20912,35755 L 20128,35649 L 19376,35599 L 19372,35732 L 20115,35782 L 20891,35886 L 21695,36041 L 22525,36246 L 23376,36497 L 24244,36793 L 25126,37130 L 26018,37506 L 26916,37919 L 27816,38367 L 28716,38846 L 29610,39354 L 30495,39889 L 31368,40448 L 32224,41029 L 33061,41629 L 33873,42245 L 34659,42876 L 35413,43519 L 36132,44170 L 36812,44829 L 37450,45491 L 38041,46155 L 38583,46818 L 39072,47477 L 39502,48130 L 39872,48774 L 40178,49406 L 40414,50025 L 40579,50626 L 40669,51209 L 40681,51769 L 40814,51776 z "
   style="fill:#007cc3"
   id="path173" />
   </g>
  </g><g
   id="g175">
   <g
   id="g177">
    <path
   d="M 73931,45033 L 73300,45701 L 73018,44929 L 73931,45033 L 73931,45033 z "
   style="fill:#007cc3"
   id="path179" />
    <path
   d="M 62645,54421 L 62912,53984 L 63183,53558 L 63458,53144 L 63735,52741 L 64017,52348 L 64303,51967 L 64592,51596 L 64885,51235 L 65182,50885 L 65483,50546 L 65788,50216 L 66097,49896 L 66410,49586 L 66727,49286 L 67048,48995 L 67374,48713 L 67704,48441 L 68039,48178 L 68378,47924 L 68722,47678 L 69070,47441 L 69423,47213 L 69780,46992 L 70143,46781 L 70510,46577 L 70882,46381 L 71259,46193 L 71642,46012 L 72029,45839 L 72421,45673 L 72819,45514 L 73222,45363 L 73177,45238 L 72771,45390 L 72371,45550 L 71976,45717 L 71586,45891 L 71202,46073 L 70822,46262 L 70447,46460 L 70077,46665 L 69712,46878 L 69352,47100 L 68997,47330 L 68646,47569 L 68300,47816 L 67958,48072 L 67621,48338 L 67288,48612 L 66960,48895 L 66637,49188 L 66317,49491 L 66002,49803 L 65691,50125 L 65384,50457 L 65081,50798 L 64783,51151 L 64488,51513 L 64197,51886 L 63910,52270 L 63627,52664 L 63347,53070 L 63071,53486 L 62799,53914 L 62531,54353 L 62645,54421 z "
   style="fill:#007cc3"
   id="path181" />
   </g>
   <g
   id="g183">
    <path
   d="M 74282,46932 L 73741,47675 L 73362,46945 L 74282,46932 L 74282,46932 z "
   style="fill:#007cc3"
   id="path185" />
    <path
   d="M 64340,55336 L 64645,54934 L 64944,54548 L 65238,54176 L 65526,53819 L 65811,53476 L 66091,53145 L 66367,52828 L 66641,52523 L 66912,52229 L 67181,51946 L 67449,51673 L 67715,51411 L 67981,51158 L 68247,50913 L 68514,50677 L 68781,50448 L 69051,50226 L 69322,50010 L 69596,49801 L 69873,49596 L 70153,49397 L 70438,49201 L 70727,49009 L 71021,48820 L 71321,48634 L 71627,48449 L 71940,48266 L 72260,48084 L 72587,47901 L 72923,47718 L 73267,47535 L 73621,47350 L 73560,47232 L 73205,47417 L 72860,47601 L 72523,47785 L 72194,47967 L 71873,48151 L 71559,48335 L 71252,48520 L 70950,48708 L 70654,48898 L 70363,49091 L 70077,49288 L 69794,49489 L 69516,49694 L 69240,49906 L 68967,50123 L 68696,50346 L 68426,50576 L 68158,50815 L 67890,51061 L 67622,51316 L 67354,51580 L 67085,51854 L 66815,52138 L 66542,52433 L 66268,52740 L 65990,53059 L 65709,53390 L 65423,53735 L 65134,54093 L 64839,54466 L 64539,54854 L 64233,55257 L 64340,55336 z "
   style="fill:#007cc3"
   id="path187" />
   </g>
   <g
   id="g189">
    <path
   d="M 74745,48894 L 74285,49690 L 73832,49004 L 74745,48894 L 74745,48894 z "
   style="fill:#007cc3"
   id="path191" />
    <path
   d="M 66148,56294 L 66492,55916 L 66821,55558 L 67134,55219 L 67433,54898 L 67720,54595 L 67994,54308 L 68257,54035 L 68510,53778 L 68754,53533 L 68990,53301 L 69219,53081 L 69441,52871 L 69659,52670 L 69872,52478 L 70082,52294 L 70290,52116 L 70497,51943 L 70704,51776 L 70911,51612 L 71120,51451 L 71332,51291 L 71548,51133 L 71768,50974 L 71995,50814 L 72228,50652 L 72469,50487 L 72718,50318 L 72978,50144 L 73247,49964 L 73529,49777 L 73824,49582 L 74132,49379 L 74058,49268 L 73750,49472 L 73456,49666 L 73174,49853 L 72904,50033 L 72644,50207 L 72394,50377 L 72152,50542 L 71919,50705 L 71691,50865 L 71470,51025 L 71253,51184 L 71040,51345 L 70829,51507 L 70620,51672 L 70413,51841 L 70204,52014 L 69995,52193 L 69784,52379 L 69569,52572 L 69351,52773 L 69127,52985 L 68897,53206 L 68660,53439 L 68416,53684 L 68162,53943 L 67898,54215 L 67623,54503 L 67336,54807 L 67037,55128 L 66723,55468 L 66394,55826 L 66050,56204 L 66148,56294 z "
   style="fill:#007cc3"
   id="path193" />
   </g>
   <g
   id="g195">
    <path
   d="M 75342,51145 L 74919,51961 L 74435,51296 L 75342,51145 L 75342,51145 z "
   style="fill:#007cc3"
   id="path197" />
    <path
   d="M 67580,57741 L 67934,57383 L 68268,57047 L 68581,56734 L 68875,56442 L 69152,56169 L 69413,55915 L 69658,55677 L 69890,55456 L 70109,55249 L 70318,55055 L 70516,54874 L 70707,54703 L 70890,54543 L 71067,54390 L 71240,54245 L 71409,54105 L 71577,53971 L 71744,53839 L 71911,53710 L 72081,53582 L 72254,53453 L 72432,53322 L 72615,53189 L 72806,53052 L 73006,52909 L 73215,52760 L 73436,52603 L 73668,52437 L 73915,52261 L 74177,52073 L 74455,51872 L 74751,51657 L 74672,51550 L 74377,51764 L 74099,51965 L 73838,52152 L 73591,52329 L 73358,52495 L 73138,52652 L 72929,52801 L 72729,52944 L 72538,53081 L 72353,53215 L 72175,53346 L 72001,53475 L 71831,53604 L 71662,53734 L 71494,53867 L 71325,54002 L 71155,54143 L 70981,54289 L 70803,54442 L 70619,54604 L 70427,54775 L 70228,54957 L 70019,55152 L 69798,55359 L 69566,55581 L 69320,55819 L 69059,56074 L 68782,56347 L 68487,56640 L 68173,56954 L 67840,57289 L 67485,57648 L 67580,57741 z "
   style="fill:#007cc3"
   id="path199" />
   </g>
   <g
   id="g201">
    <path
   d="M 73732,43276 L 73042,43884 L 72831,43090 L 73732,43276 L 73732,43276 z "
   style="fill:#007cc3"
   id="path203" />
    <path
   d="M 60543,53657 L 60770,53189 L 61014,52728 L 61274,52275 L 61550,51829 L 61840,51392 L 62146,50963 L 62464,50542 L 62796,50131 L 63140,49729 L 63496,49336 L 63863,48952 L 64240,48579 L 64628,48215 L 65024,47862 L 65429,47519 L 65842,47187 L 66262,46866 L 66689,46557 L 67122,46259 L 67560,45972 L 68003,45698 L 68449,45436 L 68900,45187 L 69352,44950 L 69807,44726 L 70264,44515 L 70721,44318 L 71178,44134 L 71635,43964 L 72090,43808 L 72544,43667 L 72995,43540 L 72961,43412 L 72506,43540 L 72049,43682 L 71590,43839 L 71130,44010 L 70670,44195 L 70209,44393 L 69750,44605 L 69292,44831 L 68837,45069 L 68384,45321 L 67934,45584 L 67489,45860 L 67048,46148 L 66613,46448 L 66183,46760 L 65760,47083 L 65345,47417 L 64937,47761 L 64538,48117 L 64148,48483 L 63768,48859 L 63399,49245 L 63040,49641 L 62694,50046 L 62360,50461 L 62038,50884 L 61731,51316 L 61438,51757 L 61160,52206 L 60897,52664 L 60651,53129 L 60422,53602 L 60543,53657 z "
   style="fill:#007cc3"
   id="path205" />
   </g>
   <g
   id="g207">
    <path
   d="M 73478,41282 L 72766,41865 L 72585,41063 L 73478,41282 L 73478,41282 z "
   style="fill:#007cc3"
   id="path209" />
    <path
   d="M 58474,53041 L 58643,52565 L 58843,52088 L 59073,51612 L 59332,51138 L 59618,50665 L 59930,50196 L 60267,49730 L 60628,49269 L 61010,48813 L 61413,48363 L 61835,47919 L 62276,47484 L 62733,47056 L 63205,46638 L 63690,46229 L 64188,45831 L 64698,45445 L 65217,45070 L 65744,44708 L 66278,44360 L 66818,44027 L 67362,43708 L 67909,43405 L 68457,43119 L 69006,42851 L 69553,42600 L 70097,42368 L 70638,42156 L 71173,41965 L 71701,41794 L 72221,41645 L 72732,41519 L 72703,41389 L 72188,41517 L 71663,41667 L 71130,41839 L 70592,42032 L 70047,42245 L 69499,42478 L 68949,42730 L 68397,43001 L 67846,43288 L 67296,43593 L 66749,43913 L 66207,44248 L 65670,44598 L 65140,44961 L 64619,45338 L 64107,45727 L 63606,46127 L 63118,46537 L 62643,46958 L 62184,47388 L 61741,47826 L 61315,48273 L 60910,48726 L 60525,49185 L 60161,49650 L 59821,50120 L 59506,50594 L 59216,51072 L 58955,51551 L 58721,52033 L 58519,52517 L 58348,53000 L 58474,53041 z "
   style="fill:#007cc3"
   id="path211" />
   </g>
   <g
   id="g213">
    <path
   d="M 73400,39506 L 72612,39980 L 72548,39160 L 73400,39506 L 73400,39506 z "
   style="fill:#007cc3"
   id="path215" />
    <path
   d="M 56009,52516 L 56145,51977 L 56326,51433 L 56552,50886 L 56819,50337 L 57126,49788 L 57471,49239 L 57851,48693 L 58264,48150 L 58709,47612 L 59182,47080 L 59683,46556 L 60209,46041 L 60757,45536 L 61325,45043 L 61912,44562 L 62515,44096 L 63133,43645 L 63762,43211 L 64401,42795 L 65048,42398 L 65701,42023 L 66357,41669 L 67014,41339 L 67670,41033 L 68323,40753 L 68971,40501 L 69612,40278 L 70243,40084 L 70862,39921 L 71467,39791 L 72057,39694 L 72628,39633 L 72618,39500 L 72039,39563 L 71443,39660 L 70831,39792 L 70206,39956 L 69570,40151 L 68925,40376 L 68273,40630 L 67616,40912 L 66956,41219 L 66295,41551 L 65636,41906 L 64981,42284 L 64331,42682 L 63688,43100 L 63056,43536 L 62436,43989 L 61829,44458 L 61240,44941 L 60668,45437 L 60117,45945 L 59588,46463 L 59085,46990 L 58608,47526 L 58160,48067 L 57743,48615 L 57360,49166 L 57012,49720 L 56701,50275 L 56431,50831 L 56202,51386 L 56017,51939 L 55879,52489 L 56009,52516 z "
   style="fill:#007cc3"
   id="path217" />
   </g>
   <g
   id="g219">
    <path
   d="M 73240,37506 L 72464,37998 L 72380,37179 L 73240,37506 L 73240,37506 z "
   style="fill:#007cc3"
   id="path221" />
    <path
   d="M 53547,51928 L 53578,51409 L 53675,50876 L 53833,50331 L 54051,49776 L 54325,49212 L 54654,48642 L 55033,48068 L 55460,47491 L 55933,46914 L 56448,46337 L 57001,45764 L 57592,45196 L 58215,44634 L 58869,44081 L 59550,43538 L 60256,43008 L 60984,42491 L 61730,41991 L 62491,41507 L 63266,41044 L 64050,40602 L 64840,40182 L 65635,39788 L 66431,39420 L 67224,39080 L 68013,38771 L 68793,38494 L 69563,38250 L 70318,38043 L 71057,37872 L 71776,37741 L 72471,37650 L 72458,37518 L 71755,37610 L 71030,37742 L 70286,37914 L 69525,38123 L 68751,38368 L 67967,38647 L 67174,38957 L 66377,39298 L 65578,39668 L 64780,40064 L 63986,40485 L 63199,40929 L 62422,41395 L 61657,41879 L 60908,42382 L 60178,42901 L 59469,43433 L 58785,43978 L 58128,44534 L 57501,45098 L 56908,45670 L 56350,46247 L 55832,46827 L 55356,47409 L 54924,47992 L 54541,48573 L 54208,49150 L 53929,49722 L 53707,50288 L 53545,50846 L 53446,51393 L 53414,51928 L 53547,51928 z "
   style="fill:#007cc3"
   id="path223" />
   </g>
   <g
   id="g225">
    <path
   d="M 73244,35641 L 72434,36077 L 72409,35255 L 73244,35641 L 73244,35641 z "
   style="fill:#007cc3"
   id="path227" />
    <path
   d="M 51158,51769 L 51169,51209 L 51259,50626 L 51424,50025 L 51661,49406 L 51966,48774 L 52336,48130 L 52767,47477 L 53255,46818 L 53797,46155 L 54389,45491 L 55027,44829 L 55707,44170 L 56426,43519 L 57180,42876 L 57965,42245 L 58778,41629 L 59614,41029 L 60471,40448 L 61343,39889 L 62229,39354 L 63123,38846 L 64022,38367 L 64922,37919 L 65821,37506 L 66712,37130 L 67595,36793 L 68463,36497 L 69314,36246 L 70143,36041 L 70948,35886 L 71724,35782 L 72467,35732 L 72463,35599 L 71711,35649 L 70927,35755 L 70115,35911 L 69279,36117 L 68423,36371 L 67549,36668 L 66663,37007 L 65767,37385 L 64865,37800 L 63961,38249 L 63059,38729 L 62162,39239 L 61273,39776 L 60398,40337 L 59538,40920 L 58699,41522 L 57883,42141 L 57095,42774 L 56338,43419 L 55616,44074 L 54933,44735 L 54291,45401 L 53696,46068 L 53151,46736 L 52658,47401 L 52223,48060 L 51849,48712 L 51539,49354 L 51298,49983 L 51129,50599 L 51037,51197 L 51025,51776 L 51158,51769 z "
   style="fill:#007cc3"
   id="path229" />
   </g>
  </g><g
   id="g231">
   <g
   id="g233">
    <path
   d="M 74121,23662 L 73208,23766 L 73490,22993 L 74121,23662 L 74121,23662 z "
   style="fill:#007cc3"
   id="path235" />
    <path
   d="M 62720,14342 L 62989,14781 L 63261,15209 L 63537,15625 L 63816,16031 L 64100,16425 L 64387,16809 L 64677,17182 L 64972,17545 L 65271,17897 L 65574,18239 L 65880,18570 L 66192,18892 L 66507,19204 L 66826,19507 L 67150,19800 L 67478,20083 L 67811,20357 L 68148,20623 L 68489,20879 L 68835,21126 L 69186,21365 L 69542,21595 L 69902,21817 L 70267,22030 L 70637,22235 L 71011,22433 L 71391,22622 L 71776,22804 L 72166,22978 L 72561,23145 L 72961,23305 L 73366,23457 L 73411,23332 L 73009,23181 L 72611,23022 L 72219,22856 L 71831,22683 L 71449,22502 L 71072,22314 L 70700,22118 L 70332,21914 L 69970,21703 L 69612,21482 L 69260,21254 L 68911,21017 L 68568,20772 L 68228,20517 L 67894,20254 L 67564,19982 L 67238,19700 L 66916,19409 L 66599,19109 L 66286,18799 L 65977,18479 L 65672,18150 L 65371,17810 L 65074,17460 L 64781,17099 L 64492,16728 L 64207,16347 L 63925,15954 L 63647,15551 L 63372,15137 L 63102,14711 L 62834,14274 L 62720,14342 z "
   style="fill:#007cc3"
   id="path237" />
   </g>
   <g
   id="g239">
    <path
   d="M 74471,21764 L 73552,21749 L 73931,21019 L 74471,21764 L 74471,21764 z "
   style="fill:#007cc3"
   id="path241" />
    <path
   d="M 64423,13438 L 64729,13841 L 65029,14229 L 65323,14602 L 65613,14960 L 65898,15305 L 66179,15636 L 66457,15955 L 66732,16262 L 67005,16557 L 67275,16841 L 67544,17115 L 67812,17379 L 68080,17634 L 68348,17880 L 68616,18119 L 68886,18349 L 69156,18572 L 69430,18789 L 69705,19001 L 69984,19206 L 70266,19407 L 70553,19604 L 70844,19797 L 71140,19987 L 71441,20175 L 71749,20360 L 72063,20544 L 72384,20728 L 72713,20910 L 73049,21094 L 73395,21278 L 73749,21463 L 73810,21345 L 73457,21160 L 73112,20977 L 72777,20794 L 72449,20611 L 72129,20429 L 71816,20246 L 71510,20061 L 71211,19875 L 70916,19686 L 70627,19494 L 70343,19298 L 70062,19099 L 69785,18894 L 69511,18685 L 69240,18469 L 68971,18247 L 68703,18018 L 68437,17782 L 68171,17537 L 67905,17284 L 67638,17022 L 67371,16749 L 67101,16466 L 66830,16172 L 66557,15867 L 66280,15550 L 66000,15219 L 65716,14876 L 65427,14519 L 65134,14147 L 64835,13761 L 64529,13359 L 64423,13438 z "
   style="fill:#007cc3"
   id="path243" />
   </g>
   <g
   id="g245">
    <path
   d="M 74935,19801 L 74022,19691 L 74475,19004 L 74935,19801 L 74935,19801 z "
   style="fill:#007cc3"
   id="path247" />
    <path
   d="M 66239,12491 L 66584,12869 L 66912,13227 L 67226,13567 L 67526,13888 L 67813,14192 L 68088,14480 L 68351,14752 L 68605,15011 L 68850,15256 L 69087,15489 L 69317,15711 L 69540,15922 L 69759,16123 L 69973,16316 L 70185,16502 L 70394,16681 L 70602,16854 L 70810,17023 L 71019,17188 L 71229,17350 L 71443,17511 L 71659,17670 L 71881,17830 L 72108,17990 L 72342,18153 L 72583,18318 L 72833,18488 L 73093,18662 L 73364,18842 L 73645,19029 L 73940,19224 L 74248,19427 L 74321,19316 L 74013,19113 L 73719,18918 L 73437,18731 L 73167,18551 L 72908,18377 L 72658,18208 L 72417,18043 L 72184,17881 L 71958,17721 L 71737,17562 L 71522,17404 L 71310,17245 L 71101,17083 L 70893,16919 L 70687,16752 L 70480,16580 L 70272,16402 L 70062,16217 L 69848,16025 L 69631,15824 L 69408,15614 L 69180,15394 L 68944,15162 L 68700,14917 L 68447,14660 L 68183,14388 L 67909,14100 L 67623,13797 L 67324,13476 L 67010,13137 L 66682,12779 L 66338,12401 L 66239,12491 z "
   style="fill:#007cc3"
   id="path249" />
   </g>
   <g
   id="g251">
    <path
   d="M 75531,17550 L 74624,17398 L 75108,16733 L 75531,17550 L 75531,17550 z "
   style="fill:#007cc3"
   id="path253" />
    <path
   d="M 67674,11047 L 68030,11406 L 68363,11741 L 68677,12055 L 68971,12348 L 69248,12621 L 69509,12876 L 69755,13114 L 69988,13336 L 70208,13543 L 70417,13738 L 70617,13920 L 70808,14091 L 70992,14253 L 71171,14406 L 71344,14552 L 71515,14693 L 71683,14828 L 71851,14961 L 72020,15091 L 72191,15220 L 72365,15349 L 72543,15480 L 72727,15614 L 72918,15751 L 73118,15894 L 73328,16043 L 73548,16200 L 73781,16366 L 74027,16543 L 74289,16730 L 74566,16931 L 74862,17145 L 74940,17038 L 74645,16823 L 74366,16622 L 74105,16434 L 73858,16258 L 73625,16092 L 73405,15935 L 73195,15786 L 72996,15643 L 72805,15506 L 72621,15373 L 72444,15242 L 72270,15114 L 72101,14985 L 71933,14856 L 71766,14724 L 71599,14590 L 71429,14450 L 71256,14305 L 71079,14152 L 70896,13992 L 70706,13821 L 70507,13640 L 70299,13446 L 70080,13239 L 69848,13018 L 69602,12781 L 69342,12526 L 69065,12253 L 68770,11961 L 68457,11648 L 68124,11312 L 67769,10954 L 67674,11047 z "
   style="fill:#007cc3"
   id="path255" />
   </g>
   <g
   id="g257">
    <path
   d="M 73921,25419 L 73021,25605 L 73232,24810 L 73921,25419 L 73921,25419 z "
   style="fill:#007cc3"
   id="path259" />
    <path
   d="M 60612,15093 L 60841,15566 L 61087,16031 L 61350,16489 L 61628,16938 L 61921,17379 L 62228,17811 L 62549,18234 L 62883,18649 L 63230,19054 L 63588,19450 L 63958,19836 L 64338,20212 L 64728,20578 L 65127,20934 L 65534,21278 L 65950,21612 L 66373,21935 L 66802,22247 L 67238,22547 L 67678,22835 L 68124,23111 L 68573,23374 L 69026,23626 L 69482,23864 L 69940,24090 L 70399,24302 L 70859,24500 L 71320,24685 L 71780,24856 L 72239,25013 L 72696,25156 L 73151,25283 L 73185,25155 L 72733,25028 L 72280,24887 L 71824,24731 L 71368,24561 L 70910,24377 L 70453,24180 L 69997,23969 L 69542,23745 L 69089,23509 L 68639,23259 L 68192,22997 L 67750,22723 L 67311,22436 L 66879,22138 L 66452,21829 L 66032,21508 L 65619,21176 L 65214,20833 L 64817,20480 L 64430,20116 L 64053,19743 L 63686,19359 L 63330,18966 L 62985,18564 L 62654,18153 L 62335,17732 L 62030,17303 L 61739,16866 L 61464,16420 L 61204,15967 L 60960,15506 L 60733,15038 L 60612,15093 z "
   style="fill:#007cc3"
   id="path261" />
   </g>
   <g
   id="g263">
    <path
   d="M 73667,27413 L 72774,27632 L 72956,26830 L 73667,27413 L 73667,27413 z "
   style="fill:#007cc3"
   id="path265" />
    <path
   d="M 58537,15695 L 58708,16178 L 58911,16662 L 59144,17144 L 59406,17623 L 59695,18101 L 60011,18575 L 60351,19045 L 60714,19510 L 61099,19969 L 61505,20422 L 61930,20869 L 62373,21307 L 62833,21737 L 63307,22158 L 63795,22568 L 64296,22968 L 64808,23357 L 65330,23734 L 65860,24097 L 66396,24447 L 66939,24782 L 67486,25103 L 68035,25407 L 68587,25694 L 69138,25965 L 69689,26217 L 70237,26450 L 70781,26663 L 71320,26856 L 71852,27028 L 72377,27178 L 72892,27306 L 72922,27176 L 72411,27050 L 71891,26901 L 71363,26730 L 70827,26539 L 70287,26327 L 69743,26095 L 69195,25844 L 68647,25576 L 68098,25290 L 67551,24987 L 67008,24668 L 66468,24335 L 65933,23987 L 65406,23625 L 64887,23250 L 64378,22864 L 63880,22466 L 63394,22057 L 62922,21639 L 62465,21211 L 62025,20776 L 61603,20332 L 61200,19882 L 60817,19426 L 60457,18965 L 60120,18499 L 59808,18030 L 59521,17557 L 59262,17083 L 59032,16607 L 58832,16130 L 58664,15654 L 58537,15695 z "
   style="fill:#007cc3"
   id="path267" />
   </g>
   <g
   id="g269">
    <path
   d="M 73589,29189 L 72738,29535 L 72801,28715 L 73589,29189 L 73589,29189 z "
   style="fill:#007cc3"
   id="path271" />
    <path
   d="M 56068,16206 L 56207,16756 L 56391,17309 L 56620,17864 L 56891,18420 L 57201,18975 L 57549,19529 L 57933,20081 L 58350,20628 L 58797,21170 L 59274,21705 L 59778,22232 L 60306,22750 L 60858,23258 L 61429,23754 L 62019,24237 L 62625,24706 L 63246,25159 L 63878,25595 L 64520,26013 L 65170,26411 L 65826,26789 L 66485,27144 L 67146,27476 L 67805,27783 L 68463,28065 L 69115,28319 L 69760,28544 L 70396,28739 L 71021,28903 L 71632,29035 L 72229,29132 L 72807,29195 L 72817,29062 L 72246,29001 L 71657,28904 L 71052,28774 L 70432,28611 L 69801,28418 L 69161,28194 L 68513,27942 L 67860,27662 L 67203,27356 L 66546,27026 L 65890,26672 L 65238,26297 L 64591,25900 L 63952,25484 L 63323,25050 L 62705,24599 L 62102,24133 L 61515,23652 L 60946,23159 L 60398,22654 L 59873,22139 L 59372,21615 L 58898,21083 L 58454,20545 L 58040,20002 L 57660,19456 L 57316,18907 L 57009,18358 L 56741,17809 L 56516,17262 L 56334,16718 L 56198,16179 L 56068,16206 z "
   style="fill:#007cc3"
   id="path273" />
   </g>
   <g
   id="g275">
    <path
   d="M 73430,31189 L 72570,31515 L 72653,30697 L 73430,31189 L 73430,31189 z "
   style="fill:#007cc3"
   id="path277" />
    <path
   d="M 53603,16767 L 53636,17302 L 53735,17849 L 53897,18407 L 54119,18973 L 54397,19545 L 54730,20122 L 55114,20703 L 55545,21286 L 56021,21868 L 56540,22448 L 57097,23025 L 57691,23597 L 58317,24161 L 58974,24717 L 59659,25262 L 60367,25794 L 61098,26313 L 61847,26816 L 62611,27301 L 63389,27766 L 64176,28210 L 64970,28631 L 65768,29027 L 66566,29397 L 67364,29738 L 68156,30048 L 68941,30327 L 69715,30572 L 70476,30781 L 71220,30953 L 71945,31085 L 72648,31177 L 72661,31045 L 71965,30954 L 71246,30823 L 70508,30652 L 69752,30445 L 68983,30201 L 68202,29924 L 67414,29615 L 66621,29275 L 65825,28907 L 65030,28513 L 64239,28093 L 63455,27651 L 62681,27188 L 61919,26704 L 61173,26204 L 60446,25687 L 59740,25157 L 59059,24614 L 58405,24061 L 57781,23499 L 57191,22931 L 56637,22358 L 56122,21781 L 55650,21204 L 55223,20627 L 54843,20053 L 54515,19483 L 54240,18919 L 54023,18364 L 53864,17819 L 53768,17286 L 53736,16767 L 53603,16767 z "
   style="fill:#007cc3"
   id="path279" />
   </g>
   <g
   id="g281">
    <path
   d="M 73433,33054 L 72599,33439 L 72624,32617 L 73433,33054 L 73433,33054 z "
   style="fill:#007cc3"
   id="path283" />
    <path
   d="M 51215,16919 L 51226,17498 L 51319,18096 L 51487,18712 L 51729,19341 L 52038,19983 L 52413,20635 L 52848,21294 L 53340,21959 L 53886,22627 L 54481,23294 L 55122,23960 L 55806,24622 L 56528,25276 L 57285,25921 L 58073,26554 L 58889,27173 L 59728,27775 L 60587,28358 L 61463,28919 L 62351,29456 L 63248,29966 L 64151,30447 L 65055,30895 L 65957,31310 L 66853,31688 L 67739,32027 L 68612,32324 L 69469,32578 L 70304,32784 L 71116,32941 L 71900,33046 L 72653,33096 L 72656,32963 L 71913,32913 L 71137,32809 L 70333,32654 L 69503,32449 L 68652,32198 L 67784,31902 L 66902,31565 L 66010,31189 L 65112,30776 L 64212,30328 L 63312,29849 L 62418,29341 L 61533,28806 L 60660,28247 L 59804,27666 L 58967,27066 L 58155,26450 L 57370,25819 L 56616,25176 L 55897,24525 L 55216,23866 L 54578,23204 L 53987,22540 L 53445,21877 L 52957,21218 L 52526,20565 L 52156,19921 L 51851,19289 L 51614,18670 L 51449,18069 L 51359,17487 L 51347,16926 L 51215,16919 z "
   style="fill:#007cc3"
   id="path285" />
   </g>
  </g><g
   id="g287">
   <path
   d="M 40487,20398 L 40487,48379 L 40620,48379 L 40620,20398 L 40487,20398 z "
   style="fill:#da251d"
   id="b" />
   <path
   d="M 40553,19618 L 40142,20441 L 40965,20441 L 40553,19618 L 40553,19618 z "
   style="fill:#da251d"
   id="path290" />
  </g><g
   id="g292">
   <path
   d="M 51042,20398 L 51042,48379 L 51175,48379 L 51175,20398 L 51042,20398 z "
   style="fill:#da251d"
   id="path294" />
   <path
   d="M 51109,19618 L 50698,20441 L 51520,20441 L 51109,19618 L 51109,19618 z "
   style="fill:#da251d"
   id="path296" />
  </g><path
   d="M 52768,32868 L 52618,33659 C 52657,33662 52696,33666 52736,33668 C 52775,33670 52816,33671 52857,33671 C 53082,33671 53251,33632 53362,33555 C 53473,33477 53529,33360 53529,33204 C 53529,33080 53486,32992 53400,32940 C 53314,32888 53166,32862 52957,32862 C 52921,32862 52861,32863 52779,32867 L 52768,32868 z M 52576,33879 L 52407,34743 L 52798,34743 C 53026,34743 53189,34704 53285,34626 C 53382,34549 53431,34421 53431,34243 C 53431,34107 53386,34012 53296,33956 C 53207,33900 53048,33873 52820,33873 C 52775,33873 52704,33874 52605,33877 C 52592,33878 52582,33879 52576,33879 z M 53174,32673 C 53363,32673 53511,32722 53618,32818 C 53725,32915 53779,33047 53779,33214 C 53779,33337 53746,33446 53680,33538 C 53614,33631 53514,33708 53382,33770 C 53478,33817 53551,33884 53602,33971 C 53652,34058 53678,34158 53678,34272 C 53678,34377 53654,34477 53607,34569 C 53560,34662 53494,34741 53409,34807 C 53341,34858 53263,34894 53176,34915 C 53088,34937 52958,34947 52784,34947 L 52148,34947 L 52588,32673 L 53174,32673 z "
   style="fill:#da251d"
   id="magnetic-field" /><path
   d="M 24663,35421 L 25100,33147 L 26269,33147 L 26230,33358 L 25283,33358 L 25127,34167 L 26071,34167 L 26032,34375 L 25085,34375 L 24922,35213 L 25869,35213 L 25827,35421 L 24663,35421 z "
   style="fill:#48b4e3"
   id="path299" /><path
   d="M 56549,3521 L 80438,3521 L 80438,34520 L 78874,34520 M 80437,34576 L 80357,62391 L 11966,62486 L 11966,34236 L 12965,34236"
   style="fill:none;stroke:#48b4e3;stroke-width:133"
   id="neg-voltage" /><rect
   width="774"
   height="554"
   x="46018"
   y="62161"
   style="fill:#ffffff"
   id="rect302" /><path
   d="M 54720,3460 L 45605,3460 L 45605,7850 M 45621,3463 L 11069,3532 L 11164,63529 L 46382,63529 L 46382,60965"
   style="fill:none;stroke:#48b4e3;stroke-width:133"
   id="Pos-voltage" /><g
   transform="translate(38.801349,232.80809)"
   id="positive-particle">
   <circle
   cx="45742"
   cy="34307"
   r="1066"
   style="fill:#da251d"
   id="circle17" />
   <path
   d="M 45818,33368 L 45818,34245 L 46678,34245 L 46678,34398 L 45818,34398 L 45818,35275 L 45665,35275 L 45665,34398 L 44805,34398 L 44805,34245 L 45665,34245 L 45665,33368 L 45818,33368 z "
   style="fill:#1f1a17"
   id="path19" />
  </g><path
   d="M 53033,687 L 53033,1564 L 53893,1564 L 53893,1717 L 53033,1717 L 53033,2593 L 52880,2593 L 52880,1717 L 52020,1717 L 52020,1564 L 52880,1564 L 52880,687 L 53033,687 z "
   style="fill:#1f1a17"
   id="pos" /><path
   d="M 58551,1536 L 58551,1744 L 57818,1744 L 57818,1536 L 58551,1536 z "
   style="fill:#1f1a17"
   id="neg" /><path
   d="M 64180,9774 C 64180,9591 64115,9433 63985,9297 C 63855,9161 63705,9093 63535,9093 C 63351,9093 63194,9161 63065,9297 C 62935,9433 62870,9601 62870,9802 C 62870,9993 62935,10155 63064,10287 C 63193,10418 63348,10484 63529,10484 C 63704,10484 63856,10415 63986,10276 C 64115,10137 64180,9969 64180,9774 z M 64180,10372 C 64112,10471 64019,10548 63902,10605 C 63784,10661 63658,10689 63523,10689 C 63271,10689 63061,10603 62894,10431 C 62726,10258 62642,10046 62642,9792 C 62642,9535 62728,9321 62899,9147 C 63070,8975 63284,8888 63542,8888 C 63674,8888 63795,8915 63905,8969 C 64016,9023 64107,9100 64180,9201 L 64180,8926 L 64396,8926 L 64396,10644 L 64180,10644 L 64180,10372 z "
   style="fill:#1f1a17"
   id="path307" /><path
   d="M 63512,58680 C 63512,58497 63447,58338 63317,58203 C 63187,58067 63037,57999 62867,57999 C 62683,57999 62526,58067 62397,58203 C 62267,58338 62202,58507 62202,58708 C 62202,58899 62266,59061 62395,59193 C 62524,59324 62680,59390 62861,59390 C 63036,59390 63188,59321 63318,59182 C 63447,59043 63512,58875 63512,58680 z M 63512,59278 C 63444,59377 63351,59454 63233,59511 C 63116,59567 62990,59595 62854,59595 C 62603,59595 62393,59509 62225,59336 C 62057,59164 61974,58952 61974,58698 C 61974,58441 62060,58227 62231,58053 C 62402,57881 62616,57794 62874,57794 C 63006,57794 63127,57821 63237,57875 C 63348,57929 63439,58006 63512,58107 L 63512,57832 L 63728,57832 L 63728,59550 L 63512,59550 L 63512,59278 z "
   style="fill:#1f1a17"
   id="path309" /><path
   d="M 76569,47521 L 76569,48238 L 76569,48366 C 76662,48255 76763,48172 76874,48119 C 76984,48066 77108,48040 77244,48040 C 77486,48040 77690,48127 77857,48300 C 78024,48474 78108,48686 78108,48935 C 78108,49192 78023,49407 77852,49580 C 77681,49754 77467,49841 77208,49841 C 77081,49841 76965,49815 76859,49765 C 76753,49714 76657,49638 76569,49536 L 76569,49795 L 76352,49795 L 76352,47521 L 76569,47521 z M 76569,48953 C 76569,49137 76634,49296 76764,49432 C 76894,49568 77043,49636 77211,49636 C 77396,49636 77552,49568 77682,49431 C 77812,49295 77877,49126 77877,48925 C 77877,48735 77812,48574 77683,48442 C 77554,48311 77399,48244 77219,48244 C 77039,48244 76886,48313 76759,48451 C 76633,48588 76569,48756 76569,48953 z "
   style="fill:#1f1a17"
   id="path311" /><path
   d="M 14197,47521 L 14197,48238 L 14197,48366 C 14290,48255 14391,48172 14501,48119 C 14612,48066 14735,48040 14872,48040 C 15113,48040 15318,48127 15485,48300 C 15652,48474 15736,48686 15736,48935 C 15736,49192 15650,49407 15479,49580 C 15308,49754 15094,49841 14836,49841 C 14709,49841 14593,49815 14487,49765 C 14381,49714 14284,49638 14197,49536 L 14197,49795 L 13980,49795 L 13980,47521 L 14197,47521 z M 14197,48953 C 14197,49137 14262,49296 14392,49432 C 14521,49568 14670,49636 14839,49636 C 15023,49636 15180,49568 15310,49431 C 15439,49295 15504,49126 15504,48925 C 15504,48735 15440,48574 15311,48442 C 15182,48311 15027,48244 14847,48244 C 14667,48244 14513,48313 14387,48451 C 14260,48588 14197,48756 14197,48953 z "
   style="fill:#1f1a17"
   id="path313" /><path
   d="M 5740,59027 C 5672,58903 5590,58810 5493,58750 C 5395,58691 5279,58661 5145,58661 C 4968,58661 4818,58728 4694,58862 C 4571,58996 4509,59162 4509,59360 C 4509,59558 4571,59723 4696,59856 C 4819,59989 4972,60055 5155,60055 C 5288,60055 5405,60022 5507,59957 C 5609,59891 5687,59799 5740,59680 L 5983,59680 C 5917,59867 5812,60011 5670,60113 C 5527,60215 5359,60266 5165,60266 C 4916,60266 4706,60178 4535,60001 C 4364,59825 4278,59612 4278,59363 C 4278,59110 4365,58894 4538,58718 C 4712,58541 4923,58453 5172,58453 C 5358,58453 5522,58503 5664,58604 C 5806,58704 5913,58845 5983,59027 L 5740,59027 z "
   style="fill:#1f1a17"
   id="path315" /><path
   d="M 87003,59103 C 86936,58978 86853,58886 86756,58825 C 86658,58766 86543,58736 86408,58736 C 86231,58736 86081,58803 85958,58937 C 85835,59072 85773,59237 85773,59435 C 85773,59633 85835,59798 85959,59931 C 86083,60064 86236,60130 86418,60130 C 86551,60130 86669,60097 86771,60032 C 86873,59966 86950,59874 87003,59756 L 87247,59756 C 87180,59942 87076,60086 86933,60188 C 86791,60290 86622,60341 86429,60341 C 86180,60341 85970,60253 85798,60077 C 85627,59900 85542,59687 85542,59438 C 85542,59185 85628,58969 85802,58793 C 85975,58616 86186,58528 86435,58528 C 86621,58528 86785,58578 86928,58679 C 87070,58779 87176,58920 87247,59103 L 87003,59103 z "
   style="fill:#1f1a17"
   id="path317" />
<g
   transform="translate(-400,0)"
   id="g10241"><rect
     width="6584.4409"
     height="42776.129"
     x="2302.0154"
     y="13353.351"
     style="fill:none;stroke:#f80000;stroke-width:212.07365417;stroke-linejoin:round;stroke-miterlimit:4;stroke-dasharray:none;stroke-opacity:1"
     id="rect6357" /><path
     d="M 2328.8303,13411.937 L 8899.4587,56245.781"
     style="fill:#f80000;fill-opacity:1;fill-rule:evenodd;stroke:#f80000;stroke-width:200;stroke-linecap:butt;stroke-linejoin:miter;stroke-miterlimit:4;stroke-dasharray:none;stroke-opacity:1"
     id="path7330" /><path
     d="M 8857.8724,13453.524 L 2287.244,56287.368"
     style="fill:#f80000;fill-opacity:1;fill-rule:evenodd;stroke:#f80000;stroke-width:200;stroke-linecap:butt;stroke-linejoin:miter;stroke-miterlimit:4;stroke-dasharray:none;stroke-opacity:1"
     id="path10239" /></g><g
   transform="translate(80890.198,219.44946)"
   id="g10246"><rect
     width="6584.4409"
     height="42776.129"
     x="2302.0154"
     y="13353.351"
     style="fill:none;stroke:#f80000;stroke-width:212.07365417;stroke-linejoin:round;stroke-miterlimit:4;stroke-dasharray:none;stroke-opacity:1"
     id="rect10248" /><path
     d="M 2328.8303,13411.937 L 8899.4587,56245.781"
     style="fill:#f80000;fill-opacity:1;fill-rule:evenodd;stroke:#f80000;stroke-width:200;stroke-linecap:butt;stroke-linejoin:miter;stroke-miterlimit:4;stroke-dasharray:none;stroke-opacity:1"
     id="path10250" /><path
     d="M 8857.8724,13453.524 L 2287.244,56287.368"
     style="fill:#f80000;fill-opacity:1;fill-rule:evenodd;stroke:#f80000;stroke-width:200;stroke-linecap:butt;stroke-linejoin:miter;stroke-miterlimit:4;stroke-dasharray:none;stroke-opacity:1"
     id="path10252" /></g></svg>