<?xml version="1.0" encoding="UTF-8" standalone="no"?>
<svg
   width="322.35184"
   height="197.16083"
   viewBox="0 0 241.7641 147.87041"
   class="displayed_equation"
   version="1.1"
   id="svg24"
   sodipodi:docname="hess.svg"
   inkscape:version="1.4 (e7c3feb1, 2024-10-09)"
   xmlns:inkscape="http://www.inkscape.org/namespaces/inkscape"
   xmlns:sodipodi="http://sodipodi.sourceforge.net/DTD/sodipodi-0.dtd"
   xmlns="http://www.w3.org/2000/svg"
   xmlns:svg="http://www.w3.org/2000/svg">
  <defs
     id="defs24" />
  <sodipodi:namedview
     id="namedview24"
     pagecolor="#ffffff"
     bordercolor="#000000"
     borderopacity="0.25"
     inkscape:showpageshadow="2"
     inkscape:pageopacity="0.0"
     inkscape:pagecheckerboard="0"
     inkscape:deskcolor="#d1d1d1"
     inkscape:zoom="1.8483493"
     inkscape:cx="157.16726"
     inkscape:cy="90.350888"
     inkscape:window-width="1512"
     inkscape:window-height="821"
     inkscape:window-x="1920"
     inkscape:window-y="86"
     inkscape:window-maximized="0"
     inkscape:current-layer="svg24" />
  <path
     d="m 20.561834,140.82394 v -24.11719 c 0,-0.9375 0.761719,-1.69921 1.703125,-1.69921 h 51.636719 c 0.9375,0 1.699219,0.76171 1.699219,1.69921 v 24.11719 c 0,0.94141 -0.761719,1.70313 -1.699219,1.70313 H 22.264959 c -0.941406,0 -1.703125,-0.76172 -1.703125,-1.70313 z m 0,0"
     fill="#b0d5ef"
     stroke-width="0.797"
     stroke-linejoin="round"
     stroke="#55a4e0"
     stroke-miterlimit="10"
     id="path1" />
  <path
     d="M 143.98762,128.76535 H 93.948557"
     fill="none"
     stroke-width="0.797"
     stroke-linejoin="round"
     stroke="#55a4e0"
     stroke-miterlimit="10"
     id="path3" />
  <path
     d="m 147.8509,128.76534 -5.46875,-2.0625 1.80469,2.0625 -1.80469,2.06641"
     fill="#55a4e0"
     id="path4" />
  <path
     d="m 147.8509,128.76535 -5.46875,-2.0625 1.80469,2.0625 -1.80469,2.0664 z m 0,0"
     fill="none"
     stroke-width="0.797"
     stroke="#55a4e0"
     stroke-miterlimit="10"
     id="path5" />
  <path
     d="m 167.33137,140.82394 v -24.11719 c 0,-0.9375 0.76172,-1.69921 1.69922,-1.69921 h 51.63672 c 0.9375,0 1.70312,0.76171 1.70312,1.69921 v 24.11719 c 0,0.94141 -0.76562,1.70313 -1.70312,1.70313 h -51.63672 c -0.9375,0 -1.69922,-0.76172 -1.69922,-1.70313 z m 0,0"
     fill="#f6b0ab"
     stroke-width="0.797"
     stroke-linejoin="round"
     stroke="#e14b3b"
     stroke-miterlimit="10"
     id="path7" />
  <path
     d="M 2.2180852,30.749724 V 6.6325338 c 0,-0.9414 0.761718,-1.69922 1.699218,-1.69922 H 55.554022 c 0.941406,0 1.703125,0.75782 1.703125,1.69922 V 30.749724 c 0,0.9375 -0.761719,1.69922 -1.703125,1.69922 H 3.9173032 c -0.9375,0 -1.699218,-0.76172 -1.699218,-1.69922 z m 0,0"
     fill="#d0b8f5"
     stroke-width="0.797"
     stroke-linejoin="round"
     stroke="#7c24e7"
     stroke-miterlimit="10"
     id="path9" />
  <path
     d="M 162.33137,18.691134 H 75.600897"
     fill="none"
     stroke-width="0.797"
     stroke-linejoin="round"
     stroke="#109e24"
     stroke-miterlimit="10"
     id="path11" />
  <path
     d="m 166.19465,18.69113 -5.46875,-2.0625 1.80469,2.0625 -1.80469,2.0625"
     fill="#109e24"
     id="path12" />
  <path
     d="m 166.19465,18.691134 -5.46875,-2.0625 1.80469,2.0625 -1.80469,2.0625 z m 0,0"
     fill="none"
     stroke-width="0.797"
     stroke="#109e24"
     stroke-miterlimit="10"
     id="path13" />
  <path
     d="M 185.67512,30.749724 V 6.6325338 c 0,-0.9414 0.76172,-1.69922 1.70312,-1.69922 h 51.63672 c 0.9375,0 1.69922,0.75782 1.69922,1.69922 V 30.749724 c 0,0.9375 -0.76172,1.69922 -1.69922,1.69922 h -51.63672 c -0.9414,0 -1.70312,-0.76172 -1.70312,-1.69922 z m 0,0"
     fill="#b4ddb5"
     stroke-width="0.797"
     stroke-linejoin="round"
     stroke="#109e24"
     stroke-miterlimit="10"
     id="path15" />
  <path
     d="M 46.788397,100.99582 30.987616,42.038784"
     fill="none"
     stroke-width="0.797"
     stroke-linejoin="round"
     stroke="#7c24e7"
     stroke-miterlimit="10"
     id="path17" />
  <path
     d="m 47.788397,104.7341 0.578125,-5.828126 -1.527344,2.285156 -2.464843,-1.214846"
     fill="#7c24e7"
     id="path18" />
  <path
     d="m 47.788397,104.7341 0.578125,-5.828126 -1.527344,2.285156 -2.464844,-1.214844 z m 0,0"
     fill="none"
     stroke-width="0.7986"
     stroke="#7c24e7"
     stroke-miterlimit="10"
     id="path19" />
  <path
     d="M 194.8509,105.83566 210.64778,46.874724"
     fill="none"
     stroke-width="0.797"
     stroke-linejoin="round"
     stroke="#e14b3b"
     stroke-miterlimit="10"
     id="path21" />
  <path
     d="m 211.64777,43.136443 -3.41406,4.757812 2.46485,-1.210937 1.52734,2.28125"
     fill="#e14b3b"
     id="path22" />
  <path
     d="m 211.64778,43.136444 -3.41407,4.75781 2.46485,-1.21094 1.52734,2.28125 z m 0,0"
     fill="none"
     stroke-width="0.7986"
     stroke="#e14b3b"
     stroke-miterlimit="10"
     id="path23" />
  <path
     style="font-size:18px;line-height:1;font-family:'EB Garamond';-inkscape-font-specification:'EB Garamond';text-align:center;text-anchor:middle;stroke-width:2;stroke-dasharray:3.188, 3.188"
     d="m 10.180605,24.883131 q -0.2340001,0 -0.3780001,-0.072 -0.144,-0.054 -0.144,-0.162 0,-0.126 0.144,-0.216 0.162,-0.108 0.4500001,-0.198 0.468,-0.144 0.864,-0.432 0.396,-0.288 0.684,-0.954 0.504,-1.152 0.918,-2.16 0.432,-1.008 0.81,-1.98 0.378,-0.972 0.774,-2.016 0.414,-1.062 0.864,-2.304 0.09,-0.252 0.162,-0.504 0.072,-0.252 0.09,-0.54 0.162,-0.054 0.324,-0.108 0.162,-0.054 0.324,-0.162 0.162,-0.108 0.216,-0.324 0.072,-0.216 0.126,-0.288 0.018,-0.018 0.036,-0.018 0.036,0 0.054,0.036 0.036,0.072 0.054,0.18 0.036,0.108 0.072,0.216 0.432,1.368 0.9,2.79 0.468,1.422 0.9,2.754 0.45,1.314 0.81,2.376 0.378,1.044 0.594,1.692 0.252,0.72 0.54,1.08 0.288,0.36 0.594,0.504 0.324,0.144 0.684,0.216 0.306,0.054 0.45,0.18 0.144,0.108 0.144,0.234 0,0.108 -0.144,0.144 -0.144,0.036 -0.378,0.036 -0.252,0 -0.684,-0.036 -0.432,-0.018 -0.918,-0.054 -0.486,-0.018 -0.9,-0.018 -0.342,0 -0.702,0 -0.36,0 -0.666,0.018 -0.306,0 -0.522,0 -0.234,0 -0.378,-0.054 -0.144,-0.054 -0.144,-0.162 0,-0.126 0.18,-0.216 0.18,-0.09 0.414,-0.126 0.594,-0.09 0.846,-0.306 0.252,-0.216 0.252,-0.504 0,-0.27 -0.126,-0.774 -0.108,-0.522 -0.27,-1.098 -0.162,-0.594 -0.306,-1.044 -0.036,-0.144 -0.144,-0.162 -0.09,-0.036 -0.342,-0.036 h -3.402 q -0.072,0 -0.162,0.072 -0.072,0.054 -0.144,0.252 -0.054,0.18 -0.18,0.576 -0.126,0.378 -0.252,0.81 -0.126,0.432 -0.216,0.774 -0.09,0.342 -0.09,0.432 0,0.396 0.306,0.666 0.306,0.252 0.738,0.36 0.594,0.162 0.594,0.36 0,0.108 -0.144,0.162 -0.144,0.036 -0.378,0.036 -0.234,0 -0.684,-0.018 -0.45,-0.018 -0.954,-0.018 -0.594,0 -1.152,0.054 -0.558,0.054 -1.008,0.054 z m 4.212,-5.166 h 2.79 q 0.252,0 0.252,-0.09 0,-0.036 -0.018,-0.072 0,-0.054 -0.018,-0.108 l -1.404,-4.392 q -0.108,-0.324 -0.162,-0.324 -0.036,0 -0.144,0.306 l -1.638,4.41 q -0.036,0.108 -0.036,0.144 0,0.09 0.09,0.108 0.108,0.018 0.288,0.018 z m 16.434003,5.22 q -0.072,0 -0.144,-0.09 -0.072,-0.072 -0.072,-0.162 v -3.798 q 0,-0.09 -0.072,-0.09 h -3.636 q -0.09,0 -0.18,-0.072 -0.072,-0.072 -0.072,-0.144 0,-0.09 0.036,-0.252 0.054,-0.162 0.144,-0.288 0.09,-0.144 0.252,-0.144 h 3.402 q 0.09,0 0.108,-0.036 0.018,-0.036 0.018,-0.108 v -3.078 q 0,-0.198 0.18,-0.324 0.18,-0.126 0.378,-0.18 0.216,-0.054 0.27,-0.054 0.09,0 0.162,0.072 0.09,0.072 0.09,0.162 v 3.438 q 0,0.108 0.036,0.108 h 3.69 q 0.09,0 0.162,0.054 0.072,0.036 0.072,0.126 0,0.234 -0.162,0.486 -0.144,0.234 -0.396,0.234 h -3.33 q -0.072,0 -0.072,0.072 v 3.636 q 0,0.18 -0.18,0.288 -0.18,0.09 -0.396,0.108 -0.198,0.036 -0.288,0.036 z m 10.008017,-0.054 q -0.234,0 -0.378,-0.054 -0.144,-0.036 -0.144,-0.144 0,-0.216 0.594,-0.324 0.684,-0.126 1.044,-0.414 0.36,-0.288 0.36,-0.936 v -8.1 q 0,-0.648 -0.27,-0.954 -0.27,-0.306 -0.936,-0.36 -0.306,-0.036 -0.45,-0.126 -0.144,-0.108 -0.144,-0.234 0,-0.108 0.144,-0.144 0.144,-0.054 0.378,-0.054 0.486,0 0.756,0 0.27,0 0.504,0.018 0.252,0 0.612,0 0.342,0 0.594,-0.018 0.252,-0.036 0.558,-0.054 0.324,-0.018 0.846,-0.018 2.106,0 3.132,0.612 1.044,0.594 1.044,2.07 0,0.612 -0.216,1.08 -0.198,0.45 -0.396,0.648 -0.288,0.288 -0.522,0.45 -0.234,0.144 -0.684,0.324 -0.072,0.018 -0.072,0.09 0,0.054 0.072,0.09 0.414,0.126 0.846,0.324 0.45,0.198 0.828,0.522 0.396,0.306 0.63,0.828 0.252,0.504 0.252,1.296 0,0.99 -0.324,1.566 -0.306,0.576 -0.738,0.882 -0.432,0.306 -0.81,0.504 -0.558,0.288 -1.296,0.45 -0.738,0.162 -1.764,0.162 -0.234,0 -0.702,-0.036 -0.468,-0.036 -1.008,-0.036 -0.468,0 -0.792,0.018 -0.324,0.018 -0.684,0.036 -0.342,0.036 -0.864,0.036 z m 4.302,-0.756 q 0.792,0 1.476,-0.36 0.684,-0.36 1.098,-0.972 0.414,-0.63 0.414,-1.404 0,-0.702 -0.234,-1.152 -0.234,-0.468 -0.54,-0.756 -0.306,-0.288 -0.558,-0.414 -0.234,-0.144 -0.738,-0.288 -0.504,-0.162 -1.314,-0.162 -0.576,0 -0.81,0.234 -0.216,0.234 -0.216,0.414 v 3.582 q 0,0.756 0.36,1.026 0.378,0.252 1.062,0.252 z m -0.594,-6.012 q 0.486,0 1.044,-0.108 0.576,-0.108 1.134,-0.414 0.198,-0.108 0.504,-0.522 0.306,-0.414 0.306,-1.188 0,-0.522 -0.198,-1.062 -0.198,-0.558 -0.756,-0.936 -0.558,-0.378 -1.674,-0.378 -0.738,0 -0.972,0.198 -0.216,0.198 -0.216,0.612 v 3.132 q 0,0.468 0.306,0.576 0.306,0.09 0.522,0.09 z"
     id="text24"
     aria-label="A + B" />
  <path
     style="font-size:18px;line-height:1;font-family:'EB Garamond';-inkscape-font-specification:'EB Garamond';text-align:center;text-anchor:middle;stroke-width:2;stroke-dasharray:3.188, 3.188"
     d="m 33.951355,134.7523 q -0.18,0 -0.81,-0.036 -0.612,-0.036 -1.422,-0.072 -0.792,-0.018 -1.512,-0.018 -0.36,0 -0.612,0.018 -0.234,0.018 -0.522,0.036 -0.27,0.036 -0.756,0.036 -0.234,0 -0.378,-0.054 -0.144,-0.054 -0.144,-0.18 0,-0.144 0.144,-0.18 0.144,-0.054 0.45,-0.108 0.684,-0.126 0.936,-0.414 0.27,-0.288 0.27,-0.936 v -8.1 q 0,-0.648 -0.27,-0.918 -0.252,-0.27 -0.936,-0.396 -0.306,-0.054 -0.45,-0.108 -0.144,-0.072 -0.144,-0.216 0,-0.126 0.144,-0.18 0.144,-0.054 0.378,-0.054 0.468,0 0.738,0.018 0.288,0 0.558,0.018 0.27,0 0.702,0 0.288,0 0.72,-0.018 0.45,-0.018 0.918,-0.054 0.486,-0.036 0.864,-0.054 0.396,-0.018 0.576,-0.018 1.836,0 3.132,0.45 1.296,0.432 2.106,1.224 0.81,0.774 1.188,1.818 0.396,1.026 0.396,2.214 0,1.296 -0.486,2.43 -0.486,1.134 -1.35,2.016 -0.864,0.864 -1.998,1.35 -1.134,0.486 -2.43,0.486 z m -0.216,-0.63 q 1.404,0 2.484,-0.684 1.08,-0.684 1.674,-1.89 0.612,-1.206 0.612,-2.772 0,-1.296 -0.432,-2.304 -0.432,-1.026 -1.152,-1.71 -0.72,-0.702 -1.62,-1.062 -0.9,-0.378 -1.818,-0.378 -0.774,0 -1.332,0.054 -0.54,0.036 -0.828,0.27 -0.288,0.234 -0.288,0.774 v 8.028 q 0,0.72 0.396,1.08 0.396,0.36 1.008,0.486 0.63,0.108 1.296,0.108 z m 15.786009,0.648 q -0.072,0 -0.144,-0.09 -0.072,-0.072 -0.072,-0.162 v -3.798 q 0,-0.09 -0.072,-0.09 h -3.636 q -0.09,0 -0.18,-0.072 -0.072,-0.072 -0.072,-0.144 0,-0.09 0.036,-0.252 0.054,-0.162 0.144,-0.288 0.09,-0.144 0.252,-0.144 h 3.402 q 0.09,0 0.108,-0.036 0.018,-0.036 0.018,-0.108 v -3.078 q 0,-0.198 0.18,-0.324 0.18,-0.126 0.378,-0.18 0.216,-0.054 0.27,-0.054 0.09,0 0.162,0.072 0.09,0.072 0.09,0.162 v 3.438 q 0,0.108 0.036,0.108 h 3.69 q 0.09,0 0.162,0.054 0.072,0.036 0.072,0.126 0,0.234 -0.162,0.486 -0.144,0.234 -0.396,0.234 h -3.33 q -0.072,0 -0.072,0.072 v 3.636 q 0,0.18 -0.18,0.288 -0.18,0.09 -0.396,0.108 -0.198,0.036 -0.288,0.036 z m 10.332016,-0.054 q -0.234,0 -0.378,-0.054 -0.144,-0.036 -0.144,-0.144 0,-0.216 0.594,-0.324 0.684,-0.126 1.008,-0.414 0.324,-0.288 0.324,-0.936 v -8.1 q 0,-0.648 -0.27,-0.918 -0.252,-0.27 -0.936,-0.396 -0.306,-0.054 -0.45,-0.144 -0.144,-0.09 -0.144,-0.216 0,-0.108 0.144,-0.144 0.144,-0.054 0.378,-0.054 0.684,0 1.152,0.018 0.486,0.018 0.936,0.036 0.468,0 1.098,0 0.594,0 1.242,0 0.666,-0.018 1.224,-0.018 0.612,-0.018 1.026,-0.018 0.432,-0.018 0.504,-0.018 0.09,0 0.198,0.036 0.108,0.036 0.126,0.126 0.09,0.504 0.18,1.008 0.09,0.486 0.09,0.846 0,0.162 -0.09,0.216 -0.072,0.054 -0.162,0.054 -0.09,0 -0.126,-0.036 -0.036,-0.054 -0.072,-0.144 -0.09,-0.306 -0.18,-0.576 -0.09,-0.288 -0.216,-0.414 -0.252,-0.288 -0.558,-0.378 -0.306,-0.108 -0.648,-0.108 h -2.358 q -0.144,0 -0.396,0.162 -0.252,0.162 -0.252,0.414 v 3.816 q 0,0.162 0.09,0.288 0.108,0.108 0.234,0.108 h 1.782 q 0.522,0 0.72,-0.18 0.198,-0.198 0.324,-0.702 0.108,-0.396 0.324,-0.396 0.072,0 0.144,0.072 0.09,0.072 0.09,0.216 0,0.072 -0.018,0.324 0,0.252 -0.018,0.522 -0.018,0.27 -0.018,0.414 0,0.18 0,0.486 0.018,0.288 0.018,0.558 0.018,0.27 0.018,0.342 0,0.126 -0.036,0.216 -0.018,0.09 -0.126,0.09 -0.27,0 -0.414,-0.576 -0.108,-0.414 -0.288,-0.612 -0.18,-0.198 -0.54,-0.198 h -1.674 q -0.306,0 -0.468,0.09 -0.144,0.072 -0.144,0.378 v 3.456 q 0,0.684 0.288,0.954 0.288,0.252 0.9,0.252 h 1.332 q 0.576,0 0.954,-0.054 0.396,-0.072 0.684,-0.252 0.288,-0.198 0.504,-0.522 0.234,-0.324 0.522,-0.864 0.054,-0.108 0.126,-0.18 0.072,-0.072 0.162,-0.054 0.09,0.018 0.144,0.09 0.054,0.054 0.054,0.162 0,0.162 -0.09,0.576 -0.09,0.396 -0.234,0.828 -0.126,0.432 -0.234,0.684 -0.054,0.126 -0.108,0.216 -0.036,0.09 -0.144,0.09 -0.864,0 -1.602,-0.018 -0.738,-0.018 -1.404,-0.036 -0.666,-0.018 -1.314,-0.036 -0.63,-0.018 -1.314,-0.018 -0.396,0 -0.684,0.018 -0.288,0.036 -0.594,0.054 -0.306,0.036 -0.792,0.036 z"
     id="text24-7"
     aria-label="D + E" />
  <path
     style="font-size:18px;line-height:1;font-family:'EB Garamond';-inkscape-font-specification:'EB Garamond';text-align:center;text-anchor:middle;stroke-width:2;stroke-dasharray:3.188, 3.188"
     d="m 214.21164,24.79313 q -1.26,0 -2.43,-0.432 -1.17,-0.432 -2.088,-1.224 -0.918,-0.81 -1.458,-1.926 -0.522,-1.134 -0.522,-2.502 0,-1.314 0.558,-2.43 0.558,-1.116 1.53,-1.944 0.972,-0.828 2.214,-1.278 1.26,-0.468 2.646,-0.468 0.702,0 1.188,0.054 0.486,0.054 0.936,0.162 0.468,0.09 1.08,0.252 0.27,0.072 0.378,0.216 0.126,0.144 0.144,0.396 0.036,0.414 0.09,0.9 0.054,0.468 0.072,1.17 0.018,0.126 -0.126,0.216 -0.126,0.072 -0.288,0.036 -0.144,-0.036 -0.198,-0.234 -0.18,-0.684 -0.414,-1.17 -0.234,-0.504 -0.702,-0.828 -0.45,-0.306 -1.098,-0.45 -0.63,-0.162 -1.368,-0.162 -1.044,0 -1.944,0.432 -0.882,0.414 -1.53,1.152 -0.63,0.72 -0.99,1.638 -0.36,0.918 -0.36,1.908 0,1.098 0.342,2.16 0.36,1.062 1.008,1.926 0.666,0.846 1.566,1.368 0.918,0.504 2.034,0.504 1.296,0 2.142,-0.594 0.846,-0.594 1.44,-1.656 0.126,-0.234 0.36,-0.234 0.252,0 0.252,0.288 0,0.144 -0.072,0.468 -0.072,0.306 -0.198,0.666 -0.108,0.342 -0.216,0.612 -0.126,0.252 -0.216,0.324 -0.072,0.072 -0.36,0.162 -0.666,0.27 -1.602,0.396 -0.918,0.126 -1.8,0.126 z"
     id="text24-9"
     aria-label="C" />
  <path
     style="font-size:18px;line-height:1;font-family:'EB Garamond';-inkscape-font-specification:'EB Garamond';text-align:center;text-anchor:middle;stroke-width:2;stroke-dasharray:3.188, 3.188"
     d="m 191.27789,134.75231 q -0.234,0 -0.378,-0.054 -0.144,-0.036 -0.144,-0.144 0,-0.216 0.594,-0.324 0.684,-0.126 0.936,-0.414 0.27,-0.288 0.27,-0.954 v -7.596 q 0,-0.81 -0.216,-1.242 -0.198,-0.432 -0.882,-0.558 -0.306,-0.054 -0.45,-0.144 -0.144,-0.09 -0.144,-0.216 0,-0.108 0.144,-0.144 0.144,-0.054 0.378,-0.054 0.666,0 1.116,0.018 0.468,0.018 0.918,0.036 0.45,0 1.062,0 0.522,0 1.116,0 0.594,0 1.152,0 0.576,0 1.008,-0.09 0.45,-0.09 0.774,-0.09 0.09,0 0.198,0.036 0.108,0.036 0.126,0.126 0.036,0.198 0.054,0.594 0.018,0.378 0.018,0.738 0.018,0.36 0.018,0.486 0,0.378 -0.162,0.378 -0.09,0 -0.162,-0.054 -0.072,-0.072 -0.108,-0.162 -0.072,-0.306 -0.18,-0.522 -0.108,-0.234 -0.234,-0.36 -0.252,-0.288 -0.558,-0.378 -0.306,-0.108 -0.648,-0.108 h -2.286 q -0.414,0 -0.504,0.27 -0.09,0.27 -0.108,0.63 -0.018,0.342 -0.018,0.846 0,0.486 0,0.954 0,0.45 0,0.918 0,0.468 0.018,0.792 0,0.144 0.018,0.27 0.036,0.126 0.162,0.126 0.576,0 1.17,-0.018 0.594,-0.036 0.918,-0.036 0.396,0 0.684,-0.216 0.288,-0.216 0.414,-0.522 0.036,-0.072 0.144,-0.18 0.108,-0.126 0.18,-0.126 0.072,0 0.162,0.09 0.09,0.072 0.072,0.198 -0.018,0.306 -0.036,0.54 -0.018,0.234 -0.018,0.45 0,0.27 0.018,0.558 0.018,0.27 0.036,0.666 0,0.126 -0.036,0.216 -0.018,0.09 -0.126,0.09 -0.18,0 -0.288,-0.162 -0.09,-0.162 -0.126,-0.252 -0.126,-0.414 -0.378,-0.558 -0.252,-0.162 -0.468,-0.162 -0.234,0 -0.468,0 -0.216,-0.018 -0.432,-0.018 -0.306,0 -0.594,0 -0.288,0 -0.576,0.036 -0.18,0.018 -0.306,0.126 -0.126,0.09 -0.126,0.324 0,0.828 0,1.692 0.018,0.846 0.054,1.746 0.036,0.576 0.27,0.918 0.252,0.342 0.918,0.468 0.306,0.054 0.45,0.126 0.144,0.072 0.144,0.198 0,0.108 -0.144,0.144 -0.144,0.054 -0.378,0.054 -0.486,0 -0.756,-0.036 -0.252,-0.036 -0.468,-0.054 -0.198,-0.036 -0.54,-0.036 -0.432,0 -0.774,0.036 -0.324,0.018 -0.666,0.054 -0.342,0.036 -0.828,0.036 z"
     id="text24-9-3"
     aria-label="F" />
  <g
     id="text25"
     style="font-size:18px;line-height:1;font-family:'EB Garamond';-inkscape-font-specification:'EB Garamond';text-align:center;text-anchor:middle;fill:#109e24;stroke-width:2;stroke-dasharray:3.188, 3.188"
     aria-label="ΔH1">
    <path
       d="m 104.24484,12.059797 q -0.144,0 -0.216,-0.09 -0.054,-0.09 -0.054,-0.216 0,-0.072 0.036,-0.18 l 4.644,-9.7739997 q 0.054,-0.126 0.09,-0.252 0.054,-0.126 0.09,-0.288 0.036,-0.144 0.036,-0.30600001 0.018,-0.18 0.036,-0.198 0.162,-0.054 0.27,-0.072 0.126,-0.036 0.27,-0.108 0.198,-0.09 0.324,-0.324 0.144,-0.25200000301 0.216,-0.25200000301 0.072,0 0.108,0.072000003 0.036,0.054 0.072,0.18 l 4.284,11.32199971 q 0.018,0.036 0.018,0.126 0,0.126 -0.072,0.252 -0.072,0.108 -0.198,0.108 z m 1.854,-0.99 h 6.012 q 0.306,0 0.306,-0.216 0,-0.144 -0.09,-0.378 -0.072,-0.234 -0.198,-0.5759997 l -2.628,-7.542 q -0.108,-0.324 -0.162,-0.324 -0.036,0 -0.18,0.306 l -3.546,7.8479997 q -0.072,0.18 -0.126,0.324 -0.036,0.126 -0.036,0.216 0,0.234 0.198,0.288 0.198,0.054 0.45,0.054 z"
       id="path2" />
    <path
       style="font-style:italic;-inkscape-font-specification:'EB Garamond Italic'"
       d="m 115.60285,12.149797 q -0.216,0 -0.306,-0.054 -0.108,-0.036 -0.108,-0.144 0,-0.126 0.162,-0.18 0.144,-0.072 0.45,-0.162 0.576,-0.162 0.846,-0.306 0.288,-0.144 0.414,-0.54 l 2.682,-8.6219997 q 0.198,-0.63 0.144,-0.882 -0.054,-0.27000001 -0.648,-0.39600001 -0.27,-0.054 -0.36,-0.144 -0.072,-0.09 -0.072,-0.216 0,-0.108 0.162,-0.144 0.162,-0.054 0.378,-0.054 0.45,0 0.702,0.018 0.252,0.018 0.468,0.036 0.216,0 0.54,0 0.342,0 0.558,0 0.234,-0.018 0.504,-0.036 0.27,-0.018 0.72,-0.018 0.432,0 0.432,0.198 0,0.126 -0.18,0.216 -0.18,0.09 -0.486,0.144 -0.432,0.072 -0.738,0.25200001 -0.306,0.162 -0.504,0.414 -0.18,0.252 -0.288,0.612 l -1.098,3.546 q -0.036,0.162 0.18,0.162 h 6.03 q 0.108,0 0.18,-0.216 l 1.098,-3.51 q 0.144,-0.486 0,-0.81 -0.126,-0.32400001 -0.72,-0.45000001 -0.27,-0.054 -0.36,-0.144 -0.072,-0.09 -0.072,-0.216 0,-0.108 0.162,-0.144 0.162,-0.054 0.378,-0.054 0.45,0 0.738,0.018 0.288,0.018 0.54,0.036 0.27,0 0.648,0 0.306,0 0.468,0 0.162,-0.018 0.378,-0.036 0.234,-0.018 0.684,-0.018 0.216,0 0.324,0.054 0.108,0.036 0.108,0.144 0,0.252 -0.666,0.36 -0.666,0.126 -0.882,0.43200001 -0.216,0.306 -0.378,0.828 l -2.61,8.4779997 q -0.126,0.432 -0.018,0.684 0.126,0.252 0.63,0.342 0.27,0.054 0.36,0.126 0.09,0.072 0.09,0.198 0,0.108 -0.162,0.144 -0.162,0.054 -0.378,0.054 -0.45,0 -0.702,-0.036 -0.234,-0.018 -0.45,-0.036 -0.216,-0.018 -0.558,-0.018 -0.342,0 -0.594,0.018 -0.234,0.018 -0.504,0.036 -0.27,0.036 -0.72,0.036 -0.432,0 -0.432,-0.198 0,-0.126 0.162,-0.198 0.18,-0.072 0.486,-0.126 0.576,-0.09 0.972,-0.414 0.396,-0.324 0.576,-0.9 l 1.116,-3.5099997 q 0.036,-0.09 0.054,-0.18 0.036,-0.09 -0.054,-0.09 h -6.21 q -0.09,0 -0.144,0.198 l -1.062,3.4559997 q -0.234,0.774 0.018,1.062 0.27,0.27 0.828,0.378 0.27,0.054 0.36,0.126 0.09,0.072 0.09,0.198 0,0.108 -0.162,0.144 -0.162,0.054 -0.378,0.054 -0.45,0 -0.738,-0.036 -0.288,-0.018 -0.558,-0.036 -0.27,-0.018 -0.648,-0.018 -0.36,0 -0.612,0.018 -0.252,0.018 -0.54,0.036 -0.27,0.036 -0.72,0.036 z"
       id="path6" />
    <path
       style="font-size:65%;baseline-shift:sub"
       d="m 130.31874,15.694897 q -0.0819,0 -0.1287,-0.0468 -0.0468,-0.0468 -0.0468,-0.0936 0,-0.1053 0.1755,-0.1521 0.4446,-0.117 0.7254,-0.2106 0.2925,-0.1053 0.4212,-0.2808 0.1404,-0.1872 0.1404,-0.5265 V 9.9150973 q 0,-0.2223 -0.1404,-0.3393 -0.1404,-0.117 -0.3627,-0.1638 -0.2223,-0.0468 -0.4797,-0.0585 -0.117,-0.0117 -0.2106,-0.0585 -0.0936,-0.0468 -0.0936,-0.1404 0,-0.0819 0.0819,-0.1404 0.0936,-0.0585 0.2106,-0.0702 0.5265,-0.0819 0.936,-0.1989 0.4212,-0.1287 0.819,-0.5265 0.0117,-0.0117 0.0234,-0.0117 0.0234,0 0.0351,0 0.0585,0 0.1053,0.0351 0.0468,0.0234 0.0351,0.0702 -0.0234,0.1755 -0.0351,0.3861 -0.0117,0.1989 -0.0117,0.4446 v 5.3819997 q 0,0.2925 0.1053,0.4446 0.117,0.1521 0.3861,0.2457 0.2691,0.0819 0.7488,0.1989 0.0702,0.0117 0.1287,0.0585 0.0702,0.0351 0.0702,0.0936 0,0.1287 -0.1638,0.1287 -0.3276,0 -0.6084,-0.0234 -0.2691,-0.0117 -0.5382,-0.0234 -0.2574,-0.0117 -0.5733,-0.0117 -0.3159,0 -0.5967,0.0117 -0.2808,0.0117 -0.5616,0.0234 -0.2808,0.0234 -0.5967,0.0234 z"
       id="path8" />
  </g>
  <g
     id="text25-4"
     style="font-size:18px;line-height:1;font-family:'EB Garamond';-inkscape-font-specification:'EB Garamond';text-align:center;text-anchor:middle;fill:#7c24e7;stroke-width:2;stroke-dasharray:3.188, 3.188"
     aria-label="ΔH2">
    <path
       d="m 0.26999961,75.729752 q -0.144,0 -0.216,-0.09 -0.0539999990992,-0.09 -0.0539999990992,-0.216 0,-0.072 0.0359999990992,-0.18 l 4.64399999,-9.774 q 0.054,-0.126 0.09,-0.252 0.054,-0.126 0.09,-0.288 0.036,-0.144 0.036,-0.306 0.018,-0.18 0.036,-0.198 0.162,-0.054 0.27,-0.072 0.126,-0.036 0.27,-0.108 0.198,-0.09 0.324,-0.324 0.144,-0.252 0.216,-0.252 0.072,0 0.108,0.072 0.036,0.054 0.072,0.18 l 4.2840004,11.322 q 0.018,0.036 0.018,0.126 0,0.126 -0.072,0.252 -0.072,0.108 -0.198,0.108 z m 1.85399999,-0.99 h 6.012 q 0.306,0 0.306,-0.216 0,-0.144 -0.09,-0.378 -0.072,-0.234 -0.198,-0.576 l -2.628,-7.542 q -0.108,-0.324 -0.162,-0.324 -0.036,0 -0.18,0.306 l -3.546,7.848 q -0.072,0.18 -0.126,0.324 -0.036,0.126 -0.036,0.216 0,0.234 0.198,0.288 0.198,0.054 0.45,0.054 z"
       id="path26" />
    <path
       style="font-style:italic;-inkscape-font-specification:'EB Garamond Italic'"
       d="m 11.62801,75.819752 q -0.216,0 -0.306,-0.054 -0.108,-0.036 -0.108,-0.144 0,-0.126 0.162,-0.18 0.144,-0.072 0.45,-0.162 0.576,-0.162 0.846,-0.306 0.288,-0.144 0.414,-0.54 l 2.682,-8.622 q 0.198,-0.63 0.144,-0.882 -0.054,-0.27 -0.648,-0.396 -0.27,-0.054 -0.36,-0.144 -0.072,-0.09 -0.072,-0.216 0,-0.108 0.162,-0.144 0.162,-0.054 0.378,-0.054 0.45,0 0.702,0.018 0.252,0.018 0.468,0.036 0.216,0 0.54,0 0.342,0 0.558,0 0.234,-0.018 0.504,-0.036 0.27,-0.018 0.72,-0.018 0.432,0 0.432,0.198 0,0.126 -0.18,0.216 -0.18,0.09 -0.486,0.144 -0.432,0.072 -0.738,0.252 -0.306,0.162 -0.504,0.414 -0.18,0.252 -0.288,0.612 l -1.098,3.546 q -0.036,0.162 0.18,0.162 h 6.03 q 0.108,0 0.18,-0.216 l 1.098,-3.51 q 0.144,-0.486 0,-0.81 -0.126,-0.324 -0.72,-0.45 -0.27,-0.054 -0.36,-0.144 -0.072,-0.09 -0.072,-0.216 0,-0.108 0.162,-0.144 0.162,-0.054 0.378,-0.054 0.45,0 0.738,0.018 0.288,0.018 0.54,0.036 0.27,0 0.648,0 0.306,0 0.468,0 0.162,-0.018 0.378,-0.036 0.234,-0.018 0.684,-0.018 0.216,0 0.324,0.054 0.108,0.036 0.108,0.144 0,0.252 -0.666,0.36 -0.666,0.126 -0.882,0.432 -0.216,0.306 -0.378,0.828 l -2.61,8.478 q -0.126,0.432 -0.018,0.684 0.126,0.252 0.63,0.342 0.27,0.054 0.36,0.126 0.09,0.072 0.09,0.198 0,0.108 -0.162,0.144 -0.162,0.054 -0.378,0.054 -0.45,0 -0.702,-0.036 -0.234,-0.018 -0.45,-0.036 -0.216,-0.018 -0.558,-0.018 -0.342,0 -0.594,0.018 -0.234,0.018 -0.504,0.036 -0.27,0.036 -0.72,0.036 -0.432,0 -0.432,-0.198 0,-0.126 0.162,-0.198 0.18,-0.072 0.486,-0.126 0.576,-0.09 0.972,-0.414 0.396,-0.324 0.576,-0.9 l 1.116,-3.51 q 0.036,-0.09 0.054,-0.18 0.036,-0.09 -0.054,-0.09 h -6.21 q -0.09,0 -0.144,0.198 l -1.062,3.456 q -0.234,0.774 0.018,1.062 0.27,0.27 0.828,0.378 0.27,0.054 0.36,0.126 0.09,0.072 0.09,0.198 0,0.108 -0.162,0.144 -0.162,0.054 -0.378,0.054 -0.45,0 -0.738,-0.036 -0.288,-0.018 -0.558,-0.036 -0.27,-0.018 -0.648,-0.018 -0.36,0 -0.612,0.018 -0.252,0.018 -0.54,0.036 -0.27,0.036 -0.72,0.036 z"
       id="path27" />
    <path
       style="font-size:65%;baseline-shift:sub"
       d="m 29.9943,79.364851 q -0.0819,0 -0.2574,-0.0117 -0.1755,-0.0117 -0.3978,-0.0234 -0.2223,-0.0117 -0.468,-0.0234 -0.234,-0.0117 -0.4563,-0.0117 -0.2223,0 -0.6318,0.0117 -0.4095,0.0117 -0.8658,0.0234 -0.4446,0 -0.7839,0.0117 -0.3393,0.0117 -0.4329,0.0117 -0.0468,0 -0.1404,-0.0702 -0.0936,-0.0819 -0.0936,-0.1287 0,-0.0585 0.0234,-0.0819 0.0234,-0.0234 0.0702,-0.0702 l 2.0007,-2.070899 q 0.585,-0.6084 0.9711,-1.3572 0.3861,-0.7605 0.3861,-1.5327 0,-0.6201 -0.3744,-0.9711 -0.3744,-0.3627 -0.8775,-0.3627 -0.4797,0 -0.8892,0.2691 -0.4095,0.2574 -0.6552,0.6786 -0.0351,0.0702 -0.0936,0.117 -0.0468,0.0468 -0.1053,0.0468 -0.0468,0 -0.117,-0.0936 -0.0585,-0.1053 -0.0585,-0.2574 0,-0.1404 0.1638,-0.3861 0.1755,-0.2457 0.4797,-0.5031 0.3042,-0.2574 0.7254,-0.4329 0.4212,-0.1872 0.9126,-0.1872 0.585,0 1.0062,0.2457 0.4212,0.2457 0.6435,0.6786 0.2223,0.4329 0.2223,1.0062 0,0.3159 -0.117,0.6786 -0.1053,0.3627 -0.3042,0.7137 -0.1872,0.351 -0.4329,0.6552 -0.1521,0.1872 -0.4563,0.5031 -0.2925,0.3042 -0.6435,0.6552 -0.3393,0.351 -0.6552,0.6669 -0.3042,0.3042 -0.5031,0.5148 -0.1989,0.1989 -0.1989,0.2223 0,0.0585 0.1638,0.0819 0.1989,0.0117 0.4446,0.0234 0.2574,0.0117 0.585,0.0117 0.3393,0 0.6786,-0.0117 0.3393,-0.0117 0.6552,-0.0234 0.3393,-0.0234 0.5265,-0.0585 0.1872,-0.0351 0.3159,-0.1404 0.1287,-0.117 0.2691,-0.351 0.0468,-0.0702 0.117,-0.1638 0.0819,-0.1053 0.1755,-0.1053 0.0585,0 0.0702,0.0468 0.0117,0.0468 0.0117,0.0936 0,0.0585 -0.0702,0.234 -0.0585,0.1638 -0.1404,0.4095 -0.0819,0.2457 -0.1404,0.538199 -0.0351,0.1872 -0.117,0.234 -0.0819,0.0468 -0.1404,0.0468 z"
       id="path28" />
  </g>
  <g
     id="text25-4-1"
     style="font-size:18px;line-height:1;font-family:'EB Garamond';-inkscape-font-specification:'EB Garamond';text-align:center;text-anchor:middle;fill:#55a4e0;stroke-width:2;stroke-dasharray:3.188, 3.188"
     aria-label="ΔH3">
    <path
       d="m 104.12393,143.82596 q -0.144,0 -0.216,-0.09 -0.054,-0.09 -0.054,-0.216 0,-0.072 0.036,-0.18 l 4.644,-9.774 q 0.054,-0.126 0.09,-0.252 0.054,-0.126 0.09,-0.288 0.036,-0.144 0.036,-0.306 0.018,-0.18 0.036,-0.198 0.162,-0.054 0.27,-0.072 0.126,-0.036 0.27,-0.108 0.198,-0.09 0.324,-0.324 0.144,-0.252 0.216,-0.252 0.072,0 0.108,0.072 0.036,0.054 0.072,0.18 l 4.284,11.322 q 0.018,0.036 0.018,0.126 0,0.126 -0.072,0.252 -0.072,0.108 -0.198,0.108 z m 1.854,-0.99 h 6.012 q 0.306,0 0.306,-0.216 0,-0.144 -0.09,-0.378 -0.072,-0.234 -0.198,-0.576 l -2.628,-7.542 q -0.108,-0.324 -0.162,-0.324 -0.036,0 -0.18,0.306 l -3.546,7.848 q -0.072,0.18 -0.126,0.324 -0.036,0.126 -0.036,0.216 0,0.234 0.198,0.288 0.198,0.054 0.45,0.054 z"
       id="path20" />
    <path
       style="font-style:italic;-inkscape-font-specification:'EB Garamond Italic'"
       d="m 115.48194,143.91596 q -0.216,0 -0.306,-0.054 -0.108,-0.036 -0.108,-0.144 0,-0.126 0.162,-0.18 0.144,-0.072 0.45,-0.162 0.576,-0.162 0.846,-0.306 0.288,-0.144 0.414,-0.54 l 2.682,-8.622 q 0.198,-0.63 0.144,-0.882 -0.054,-0.27 -0.648,-0.396 -0.27,-0.054 -0.36,-0.144 -0.072,-0.09 -0.072,-0.216 0,-0.108 0.162,-0.144 0.162,-0.054 0.378,-0.054 0.45,0 0.702,0.018 0.252,0.018 0.468,0.036 0.216,0 0.54,0 0.342,0 0.558,0 0.234,-0.018 0.504,-0.036 0.27,-0.018 0.72,-0.018 0.432,0 0.432,0.198 0,0.126 -0.18,0.216 -0.18,0.09 -0.486,0.144 -0.432,0.072 -0.738,0.252 -0.306,0.162 -0.504,0.414 -0.18,0.252 -0.288,0.612 l -1.098,3.546 q -0.036,0.162 0.18,0.162 h 6.03 q 0.108,0 0.18,-0.216 l 1.098,-3.51 q 0.144,-0.486 0,-0.81 -0.126,-0.324 -0.72,-0.45 -0.27,-0.054 -0.36,-0.144 -0.072,-0.09 -0.072,-0.216 0,-0.108 0.162,-0.144 0.162,-0.054 0.378,-0.054 0.45,0 0.738,0.018 0.288,0.018 0.54,0.036 0.27,0 0.648,0 0.306,0 0.468,0 0.162,-0.018 0.378,-0.036 0.234,-0.018 0.684,-0.018 0.216,0 0.324,0.054 0.108,0.036 0.108,0.144 0,0.252 -0.666,0.36 -0.666,0.126 -0.882,0.432 -0.216,0.306 -0.378,0.828 l -2.61,8.478 q -0.126,0.432 -0.018,0.684 0.126,0.252 0.63,0.342 0.27,0.054 0.36,0.126 0.09,0.072 0.09,0.198 0,0.108 -0.162,0.144 -0.162,0.054 -0.378,0.054 -0.45,0 -0.702,-0.036 -0.234,-0.018 -0.45,-0.036 -0.216,-0.018 -0.558,-0.018 -0.342,0 -0.594,0.018 -0.234,0.018 -0.504,0.036 -0.27,0.036 -0.72,0.036 -0.432,0 -0.432,-0.198 0,-0.126 0.162,-0.198 0.18,-0.072 0.486,-0.126 0.576,-0.09 0.972,-0.414 0.396,-0.324 0.576,-0.9 l 1.116,-3.51 q 0.036,-0.09 0.054,-0.18 0.036,-0.09 -0.054,-0.09 h -6.21 q -0.09,0 -0.144,0.198 l -1.062,3.456 q -0.234,0.774 0.018,1.062 0.27,0.27 0.828,0.378 0.27,0.054 0.36,0.126 0.09,0.072 0.09,0.198 0,0.108 -0.162,0.144 -0.162,0.054 -0.378,0.054 -0.45,0 -0.738,-0.036 -0.288,-0.018 -0.558,-0.036 -0.27,-0.018 -0.648,-0.018 -0.36,0 -0.612,0.018 -0.252,0.018 -0.54,0.036 -0.27,0.036 -0.72,0.036 z"
       id="path24" />
    <path
       style="font-size:65%;baseline-shift:sub"
       d="m 130.82963,147.87056 q -0.2691,0 -0.5733,-0.0936 -0.3042,-0.0819 -0.5148,-0.1989 -0.2106,-0.117 -0.2106,-0.2106 0,-0.0819 0.0936,-0.2106 0.0936,-0.1287 0.2106,-0.2223 0.1287,-0.1053 0.2106,-0.1053 0.1287,0 0.234,0.0702 0.1053,0.0702 0.2223,0.1638 0.1521,0.1287 0.351,0.2457 0.1989,0.117 0.5265,0.117 0.4329,0 0.819,-0.2223 0.3861,-0.2223 0.6318,-0.6084 0.2574,-0.3978 0.2574,-0.8775 0,-0.4563 -0.1521,-0.8775 -0.1521,-0.4212 -0.4563,-0.6903 -0.2925,-0.2808 -0.7488,-0.2808 -0.1287,0 -0.351,0.0351 -0.2106,0.0234 -0.4095,0.1404 -0.0585,0.0351 -0.1404,0 -0.0702,-0.0468 -0.0585,-0.1053 0.0468,-0.1521 0.1404,-0.2457 0.0936,-0.1053 0.2106,-0.1521 0.1053,-0.0468 0.3393,-0.1755 0.234,-0.1404 0.4914,-0.3393 0.2691,-0.2106 0.4563,-0.468 0.1872,-0.2691 0.1872,-0.585 0,-0.4797 -0.3159,-0.8424 -0.3042,-0.3744 -0.7839,-0.3744 -0.4563,0 -0.7371,0.1638 -0.2691,0.1521 -0.4329,0.3627 -0.1638,0.1989 -0.2457,0.3627 -0.0819,0.1521 -0.1521,0.1521 -0.0468,0 -0.117,-0.0702 -0.0702,-0.0702 -0.0702,-0.1521 0,-0.1521 0.1287,-0.3978 0.1287,-0.2574 0.3978,-0.5148 0.2808,-0.2574 0.702,-0.4329 0.4329,-0.1755 1.0296,-0.1755 0.3861,0 0.7254,0.1755 0.351,0.1638 0.5733,0.468 0.2223,0.2925 0.2223,0.6903 0,0.2808 -0.117,0.585 -0.117,0.3042 -0.3861,0.6084 -0.2691,0.2925 -0.7254,0.5616 -0.0351,0.0117 -0.0351,0.0468 0,0.0234 0.0468,0.0234 0.5031,0 0.9009,0.2574 0.3978,0.2457 0.6318,0.6669 0.2457,0.4095 0.2457,0.9126 0,0.6552 -0.2808,1.1817 -0.2808,0.5148 -0.7488,0.8892 -0.468,0.3627 -1.053,0.5499 -0.5733,0.1989 -1.17,0.1989 z"
       id="path25" />
  </g>
  <g
     id="text25-4-1-9"
     style="font-size:18px;line-height:1;font-family:'EB Garamond';-inkscape-font-specification:'EB Garamond';text-align:center;text-anchor:middle;fill:#e14b3b;stroke-width:2;stroke-dasharray:3.188, 3.188"
     aria-label="ΔH4">
    <path
       d="m 211.30269,80.567642 q -0.144,0 -0.216,-0.09 -0.054,-0.09 -0.054,-0.216 0,-0.072 0.036,-0.18 l 4.644,-9.774 q 0.054,-0.126 0.09,-0.252 0.054,-0.126 0.09,-0.288 0.036,-0.144 0.036,-0.306 0.018,-0.18 0.036,-0.198 0.162,-0.054 0.27,-0.072 0.126,-0.036 0.27,-0.108 0.198,-0.09 0.324,-0.324 0.144,-0.252 0.216,-0.252 0.072,0 0.108,0.072 0.036,0.054 0.072,0.18 l 4.284,11.322 q 0.018,0.036 0.018,0.126 0,0.126 -0.072,0.252 -0.072,0.108 -0.198,0.108 z m 1.854,-0.99 h 6.012 q 0.306,0 0.306,-0.216 0,-0.144 -0.09,-0.378 -0.072,-0.234 -0.198,-0.576 l -2.628,-7.542 q -0.108,-0.324 -0.162,-0.324 -0.036,0 -0.18,0.306 l -3.546,7.848 q -0.072,0.18 -0.126,0.324 -0.036,0.126 -0.036,0.216 0,0.234 0.198,0.288 0.198,0.054 0.45,0.054 z"
       id="path10" />
    <path
       style="font-style:italic;-inkscape-font-specification:'EB Garamond Italic'"
       d="m 222.6607,80.657642 q -0.216,0 -0.306,-0.054 -0.108,-0.036 -0.108,-0.144 0,-0.126 0.162,-0.18 0.144,-0.072 0.45,-0.162 0.576,-0.162 0.846,-0.306 0.288,-0.144 0.414,-0.54 l 2.682,-8.622 q 0.198,-0.63 0.144,-0.882 -0.054,-0.27 -0.648,-0.396 -0.27,-0.054 -0.36,-0.144 -0.072,-0.09 -0.072,-0.216 0,-0.108 0.162,-0.144 0.162,-0.054 0.378,-0.054 0.45,0 0.702,0.018 0.252,0.018 0.468,0.036 0.216,0 0.54,0 0.342,0 0.558,0 0.234,-0.018 0.504,-0.036 0.27,-0.018 0.72,-0.018 0.432,0 0.432,0.198 0,0.126 -0.18,0.216 -0.18,0.09 -0.486,0.144 -0.432,0.072 -0.738,0.252 -0.306,0.162 -0.504,0.414 -0.18,0.252 -0.288,0.612 l -1.098,3.546 q -0.036,0.162 0.18,0.162 h 6.03 q 0.108,0 0.18,-0.216 l 1.098,-3.51 q 0.144,-0.486 0,-0.81 -0.126,-0.324 -0.72,-0.45 -0.27,-0.054 -0.36,-0.144 -0.072,-0.09 -0.072,-0.216 0,-0.108 0.162,-0.144 0.162,-0.054 0.378,-0.054 0.45,0 0.738,0.018 0.288,0.018 0.54,0.036 0.27,0 0.648,0 0.306,0 0.468,0 0.162,-0.018 0.378,-0.036 0.234,-0.018 0.684,-0.018 0.216,0 0.324,0.054 0.108,0.036 0.108,0.144 0,0.252 -0.666,0.36 -0.666,0.126 -0.882,0.432 -0.216,0.306 -0.378,0.828 l -2.61,8.478 q -0.126,0.432 -0.018,0.684 0.126,0.252 0.63,0.342 0.27,0.054 0.36,0.126 0.09,0.072 0.09,0.198 0,0.108 -0.162,0.144 -0.162,0.054 -0.378,0.054 -0.45,0 -0.702,-0.036 -0.234,-0.018 -0.45,-0.036 -0.216,-0.018 -0.558,-0.018 -0.342,0 -0.594,0.018 -0.234,0.018 -0.504,0.036 -0.27,0.036 -0.72,0.036 -0.432,0 -0.432,-0.198 0,-0.126 0.162,-0.198 0.18,-0.072 0.486,-0.126 0.576,-0.09 0.972,-0.414 0.396,-0.324 0.576,-0.9 l 1.116,-3.51 q 0.036,-0.09 0.054,-0.18 0.036,-0.09 -0.054,-0.09 h -6.21 q -0.09,0 -0.144,0.198 l -1.062,3.456 q -0.234,0.774 0.018,1.062 0.27,0.27 0.828,0.378 0.27,0.054 0.36,0.126 0.09,0.072 0.09,0.198 0,0.108 -0.162,0.144 -0.162,0.054 -0.378,0.054 -0.45,0 -0.738,-0.036 -0.288,-0.018 -0.558,-0.036 -0.27,-0.018 -0.648,-0.018 -0.36,0 -0.612,0.018 -0.252,0.018 -0.54,0.036 -0.27,0.036 -0.72,0.036 z"
       id="path14" />
    <path
       style="font-size:65%;baseline-shift:sub"
       d="m 238.58169,84.202742 q -0.0585,0 -0.1404,-0.0351 -0.0702,-0.0351 -0.0702,-0.117 0,-0.0585 0.0702,-0.0936 0.0702,-0.0351 0.1404,-0.0468 0.5499,-0.0702 0.7254,-0.234 0.1755,-0.1638 0.1755,-0.4446 v -1.0881 q 0,-0.0585 -0.0819,-0.0819 -0.0819,-0.0234 -0.0936,-0.0234 -0.4797,0 -0.9009,0.0234 -0.4095,0.0117 -0.8658,0.0351 -0.4563,0.0117 -1.0764,0.0234 -0.0468,0 -0.0819,-0.0351 -0.0351,-0.0468 -0.0351,-0.0819 0,-0.0234 0.0117,-0.0351 0.1521,-0.1872 0.2223,-0.2574 0.0702,-0.0819 0.117,-0.1287 0.0468,-0.0585 0.117,-0.1638 l 3.0888,-4.4343 q 0.0702,-0.1053 0.1638,-0.2106 0.1053,-0.117 0.1872,-0.117 h 0.2457 q 0.0585,0 0.0117,0.0819 -0.0351,0.0819 -0.0351,0.0819 l -3.159,4.5396 q -0.0117,0.0234 -0.0234,0.0702 -0.0117,0.0351 0.0234,0.0351 h 2.0241 q 0.0468,0 0.0936,-0.0234 0.0468,-0.0351 0.0468,-0.0702 v -1.8135 q 0,-0.1287 0.0117,-0.1755 0.0234,-0.0468 0.0936,-0.0819 0.1755,-0.0936 0.3744,-0.117 0.1989,-0.0351 0.2808,-0.0351 0.1287,0 0.1521,0.1872 0.0234,0.1872 0.0234,0.5616 v 1.5093 q 0,0.0702 0.0585,0.0702 0.1287,0.0117 0.2457,0.0117 0.117,0 0.2223,0 0.1638,0 0.3276,0 0.1755,-0.0117 0.3627,-0.0234 0.1287,0 0.1287,0.0936 0,0.0936 -0.0585,0.1989 -0.0468,0.1053 -0.1053,0.1755 -0.0585,0.0702 -0.0819,0.0702 -0.1287,0 -0.2808,0 -0.1521,-0.0117 -0.2925,-0.0117 -0.1053,0 -0.1989,0.0117 -0.0936,0 -0.1638,0.0117 -0.0468,0.0117 -0.1053,0.0351 -0.0468,0.0234 -0.0468,0.0351 v 1.0998 q 0,0.3393 0.1521,0.468 0.1638,0.1287 0.6318,0.2574 0.0702,0.0117 0.1404,0.0585 0.0702,0.0468 0.0702,0.1053 0,0.0468 -0.0585,0.0936 -0.0468,0.0351 -0.117,0.0351 -0.3276,0 -0.5265,-0.0234 -0.1872,-0.0117 -0.351,-0.0234 -0.1638,-0.0117 -0.4446,-0.0117 -0.2925,0 -0.4797,0.0117 -0.1755,0.0117 -0.3627,0.0234 -0.1872,0.0234 -0.5031,0.0234 z"
       id="path16" />
  </g>
</svg>
