<?xml version="1.0" encoding="UTF-8" standalone="no"?>
<svg
   xmlns:dc="http://purl.org/dc/elements/1.1/"
   xmlns:cc="http://creativecommons.org/ns#"
   xmlns:rdf="http://www.w3.org/1999/02/22-rdf-syntax-ns#"
   xmlns:svg="http://www.w3.org/2000/svg"
   xmlns="http://www.w3.org/2000/svg"
   xmlns:sodipodi="http://sodipodi.sourceforge.net/DTD/sodipodi-0.dtd"
   xmlns:inkscape="http://www.inkscape.org/namespaces/inkscape"
   width="461.5"
   height="190.87521"
   version="1.1"
   id="svg70"
   sodipodi:docname="fision.svg"
   inkscape:version="1.0.1 (c497b03c, 2020-09-10)">
  <metadata
     id="metadata76">
    <rdf:RDF>
      <cc:Work
         rdf:about="">
        <dc:format>image/svg+xml</dc:format>
        <dc:type
           rdf:resource="http://purl.org/dc/dcmitype/StillImage" />
        <dc:title />
      </cc:Work>
    </rdf:RDF>
  </metadata>
  <defs
     id="defs74" />
  <sodipodi:namedview
     inkscape:document-rotation="0"
     pagecolor="#ffffff"
     bordercolor="#666666"
     borderopacity="1"
     objecttolerance="10"
     gridtolerance="10"
     guidetolerance="10"
     inkscape:pageopacity="0"
     inkscape:pageshadow="2"
     inkscape:window-width="1440"
     inkscape:window-height="769"
     id="namedview72"
     showgrid="false"
     fit-margin-top="0"
     fit-margin-left="0"
     fit-margin-right="0"
     fit-margin-bottom="0"
     inkscape:zoom="1.247535"
     inkscape:cx="224.7565"
     inkscape:cy="93.337106"
     inkscape:window-x="0"
     inkscape:window-y="25"
     inkscape:window-maximized="0"
     inkscape:current-layer="svg70" />
  <path
     id="path10"
     d="M 0,97.872606 H 42"
     stroke-dasharray="3"
     stroke-width="4"
     stroke="#7fb3ff"
     fill="none" />
  <path
     id="path12"
     d="m 419.712,127.86961 -55.363,-14.38 33.074,64.711 -45.298,-57.52 -25.165,42.421 14.379,-48.983 -30.76,13.033 27.165,-28.760004 -36.668,-28.042 38.826,12.942 -12.223,-58.24 28.041,53.926 42.434,-35.791 -34.525,44.419 44.579,-9.348 -43.14,20.133 z"
     fill="#ffd03f" />
  <path
     id="path14"
     d="m 375,90.622606 75,-11.25 m -22,-41.25 -50.5,37.5 m 44.25,77.250004 -48.716,-40.997"
     stroke-dasharray="3"
     stroke-width="4"
     stroke="#7fb3ff"
     fill="none" />
  <path
     id="circle16"
     transform="rotate(-90)"
     style="fill:#7feeff;stroke:#000000;stroke-width:2"
     d="m -90.372589,42.75 a 7.5,7.5 0 0 1 -7.5,7.5 7.5,7.5 0 0 1 -7.500001,-7.5 7.5,7.5 0 0 1 7.500001,-7.5 7.5,7.5 0 0 1 7.5,7.5 z" />
  <path
     id="circle18"
     transform="rotate(-90)"
     style="fill:#1ca8e5;stroke:#000000;stroke-width:2"
     d="m -56.705597,101.25 a 41.25,41.25 0 0 1 -41.25,41.25 41.25,41.25 0 0 1 -41.250003,-41.25 41.25,41.25 0 0 1 41.250003,-41.25 41.25,41.25 0 0 1 41.25,41.25 z" />
  <path
     id="circle20"
     transform="rotate(-90)"
     style="fill:#1fbaff"
     d="M -63.176598,101.25 A 34.778999,34.778999 0 0 1 -97.955597,136.029 34.778999,34.778999 0 0 1 -132.7346,101.25 34.778999,34.778999 0 0 1 -97.955597,66.471001 34.778999,34.778999 0 0 1 -63.176598,101.25 Z" />
  <path
     id="path22"
     fill="#a6a7e5"
     d="m 228.75,53.355606 c 2.813,0 5.201,6.401 7.855,6.938 2.75,0.556 8.026,-5.712 10.549,-4.639 2.525,1.075 -1.237,13.397 1.001,14.931 2.233,1.531 10.724,-4.869 12.612,-2.939 1.879,1.921 -4.411,10.065 -2.933,12.323 1.466,2.241 8.83,0.799 9.843,3.314 1.002,2.487 -1.938,5.928 -1.434,8.628 0.46,2.467 7.438,4.442 7.438,7.043 0,2.813004 -4.785,5.393004 -5.321,8.047004 -0.556,2.75 1.34,6.377 0.267,8.9 -1.074,2.525 -5.491,3.293 -7.025,5.53 -1.531,2.234 -2.391,4.813 -4.32,6.7 -1.921,1.879 -5.93,0.504 -8.188,1.982 -2.241,1.466 -1.408,8.614 -3.923,9.627 -2.487,1.002 -6.289,-1.716 -8.988,-1.212 -2.468,0.46 -4.832,2.095 -7.433,2.095 -2.813,0 -4.198,-7.438 -6.852,-7.975 -2.75,-0.556 -7.72,7.603 -10.243,6.53 -2.525,-1.075 -1.808,-7.79 -4.045,-9.324 -2.234,-1.531 -9.982,3.308 -11.87,1.378 -1.879,-1.921 4.729,-10.595 3.251,-12.853 -1.466,-2.241 -9.716,-0.611 -10.729,-3.125 -1.002,-2.487 4.89,-6.816 4.386,-9.517 -0.46,-2.468 -11.956,-4.183 -11.956,-6.784004 0,-2.813 7.079,-5.561 7.616,-8.215 0.556,-2.75 0.16,-5.925 1.233,-8.447 1.075,-2.525 4.417,-3.855 5.951,-6.093 1.531,-2.233 -1.876,-9.311 0.054,-11.199 1.921,-1.879 11.431,5.539 13.688,4.061 2.241,-1.466 -0.984,-13.758 1.531,-14.771 2.488,-1.002 8.736,10.329 11.436,9.825 2.467,-0.459 3.947,-10.759 6.549,-10.759 z" />
  <path
     id="path24"
     stroke-width="2"
     stroke="#000000"
     fill="none"
     d="m 228.75,53.355606 c 2.813,0 5.201,6.401 7.855,6.938 2.75,0.556 8.026,-5.712 10.549,-4.639 2.525,1.075 -1.237,13.397 1.001,14.931 2.233,1.531 10.724,-4.869 12.612,-2.939 1.879,1.921 -4.411,10.065 -2.933,12.323 1.466,2.241 8.83,0.799 9.843,3.314 1.002,2.487 -1.938,5.928 -1.434,8.628 0.46,2.467 7.438,4.442 7.438,7.043 0,2.813004 -4.785,5.393004 -5.321,8.047004 -0.556,2.75 1.34,6.377 0.267,8.9 -1.074,2.525 -5.491,3.293 -7.025,5.53 -1.531,2.234 -2.391,4.813 -4.32,6.7 -1.921,1.879 -5.93,0.504 -8.188,1.982 -2.241,1.466 -1.408,8.614 -3.923,9.627 -2.487,1.002 -6.289,-1.716 -8.988,-1.212 -2.468,0.46 -4.832,2.095 -7.433,2.095 -2.813,0 -4.198,-7.438 -6.852,-7.975 -2.75,-0.556 -7.72,7.603 -10.243,6.53 -2.525,-1.075 -1.808,-7.79 -4.045,-9.324 -2.234,-1.531 -9.982,3.308 -11.87,1.378 -1.879,-1.921 4.729,-10.595 3.251,-12.853 -1.466,-2.241 -9.716,-0.611 -10.729,-3.125 -1.002,-2.487 4.89,-6.816 4.386,-9.517 -0.46,-2.468 -11.956,-4.183 -11.956,-6.784004 0,-2.813 7.079,-5.561 7.616,-8.215 0.556,-2.75 0.16,-5.925 1.233,-8.447 1.075,-2.525 4.417,-3.855 5.951,-6.093 1.531,-2.233 -1.876,-9.311 0.054,-11.199 1.921,-1.879 11.431,5.539 13.688,4.061 2.241,-1.466 -0.984,-13.758 1.531,-14.771 2.488,-1.002 8.736,10.329 11.436,9.825 2.467,-0.459 3.947,-10.759 6.549,-10.759 z" />
  <path
     id="path26"
     fill="#b8baff"
     d="m 228.75,58.541606 c 2.461,0 4.481,6.345 6.804,6.813 2.417,0.487 7.271,-5.726 9.488,-4.783 2.22,0.943 -1.454,12.45 0.512,13.798 1.963,1.345 9.909,-4.86 11.568,-3.165 1.651,1.688 -4.465,9.315 -3.167,11.299 1.289,1.969 8.407,0.36 9.297,2.57 0.88,2.187 -2.384,5.404 -1.942,7.778 0.402,2.162 7.261,3.825 7.261,6.103 0,2.461004 -4.913,4.651004 -5.381,6.974004 -0.487,2.417 1.85,5.812 0.908,8.029 -0.943,2.22 -5.443,2.558 -6.791,4.525 -1.345,1.963 -1.573,4.67 -3.269,6.329 -1.688,1.651 -5.65,-0.109 -7.634,1.189 -1.97,1.289 -0.9,8.216 -3.111,9.106 -2.187,0.88 -5.725,-2.188 -8.098,-1.746 -2.162,0.402 -4.168,2.525 -6.446,2.525 -2.461,0 -3.596,-7.265 -5.918,-7.732 -2.417,-0.486 -6.998,7.401 -9.215,6.459 -2.22,-0.943 -1.242,-7.48 -3.208,-8.828 -1.963,-1.345 -9.25,3.478 -10.909,1.782 -1.651,-1.688 4.746,-9.785 3.448,-11.769 -1.289,-1.969 -9.193,-0.194 -10.083,-2.404 -0.88,-2.186 5,-6.191 4.559,-8.564 -0.402,-2.162 -11.264,-3.595 -11.264,-5.874004 0,-2.461 6.946,-4.799 7.414,-7.122 0.486,-2.417 -0.521,-5.412 0.421,-7.629 0.943,-2.22 4.491,-3.056 5.838,-5.022 1.345,-1.963 -2.208,-8.658 -0.513,-10.316 1.688,-1.651 10.526,5.465 12.51,4.167 1.969,-1.289 -1.219,-12.774 0.992,-13.665 2.186,-0.88 7.891,9.821 10.264,9.379 2.161,-0.403 3.386,-10.206 5.665,-10.206 z" />
  <path
     id="path28"
     fill="#7cbaff"
     d="m 348.155,35.052606 c 2.637,0 6.585,-11.373 8.962,-10.595 2.47,0.811 6.244,2.39 8.292,3.9 2.044,1.508 -0.302,8.146 1.18,10.21 1.468,2.045 2.039,4.011 2.817,6.462 0.733,2.313 -4.879,4.192 -4.879,6.747 0,2.637 0.468,2.894 -0.311,5.271 -0.811,2.47 -0.36,3.127 -1.871,5.176 -1.508,2.043 3.573,9.976 1.51,11.457 -2.045,1.468 -6.7,-2.057 -9.151,-1.278 -2.313,0.733 -3.994,8.961 -6.549,8.961 -2.637,0 -6.002,-3.266 -8.378,-4.045 -2.47,-0.81 -3.364,-5.306 -5.412,-6.817 -2.044,-1.508 -5.276,-1.934 -6.758,-3.997 -1.468,-2.044 -8.095,-2.938 -8.872,-5.389 -0.733,-2.313 0.409,-6.783 0.409,-9.338 0,-2.637 7.9,-4.295 8.68,-6.671 0.81,-2.47 3.257,-2.74 4.768,-4.789 1.508,-2.043 3.222,-1.41 5.286,-2.892 2.044,-1.468 -0.711,-11.769 1.74,-12.546 2.312,-0.733 5.982,10.173 8.537,10.173 z" />
  <path
     id="path30"
     stroke-width="2"
     stroke="#000000"
     fill="none"
     d="m 348.155,35.052606 c 2.637,0 6.585,-11.373 8.962,-10.595 2.47,0.811 6.244,2.39 8.292,3.9 2.044,1.508 -0.302,8.146 1.18,10.21 1.468,2.045 2.039,4.011 2.817,6.462 0.733,2.313 -4.879,4.192 -4.879,6.747 0,2.637 0.468,2.894 -0.311,5.271 -0.811,2.47 -0.36,3.127 -1.871,5.176 -1.508,2.043 3.573,9.976 1.51,11.457 -2.045,1.468 -6.7,-2.057 -9.151,-1.278 -2.313,0.733 -3.994,8.961 -6.549,8.961 -2.637,0 -6.002,-3.266 -8.378,-4.045 -2.47,-0.81 -3.364,-5.306 -5.412,-6.817 -2.044,-1.508 -5.276,-1.934 -6.758,-3.997 -1.468,-2.044 -8.095,-2.938 -8.872,-5.389 -0.733,-2.313 0.409,-6.783 0.409,-9.338 0,-2.637 7.9,-4.295 8.68,-6.671 0.81,-2.47 3.257,-2.74 4.768,-4.789 1.508,-2.043 3.222,-1.41 5.286,-2.892 2.044,-1.468 -0.711,-11.769 1.74,-12.546 2.312,-0.733 5.982,10.173 8.537,10.173 z" />
  <path
     id="path32"
     fill="#70a7e5"
     d="m 372.778,133.09261 c 1.74,1.74 10.646,-2.179 11.684,-0.09 1.044,2.101 2.345,5.387 2.677,7.662 0.331,2.27 -4.786,4.941 -5.162,7.205 -0.373,2.242 -1.248,3.929 -2.315,5.992 -1.018,1.967 -5.434,0.065 -7.083,1.715 -1.74,1.74 -1.855,2.317 -3.944,3.354 -2.102,1.043 -2.483,1.753 -4.758,2.085 -2.27,0.332 -4.173,7.721 -6.437,7.345 -2.242,-0.373 -3.123,-5.103 -5.186,-6.17 -1.967,-1.018 -7.818,2.545 -9.467,0.896 -1.74,-1.74 -1.989,-5.8 -3.027,-7.889 -1.043,-2.101 0.949,-5.395 0.617,-7.67 -0.332,-2.27 -1.917,-4.608 -1.541,-6.871 0.373,-2.243 -2.808,-6.752 -1.74,-8.815 1.018,-1.966 4.368,-4.081 6.018,-5.73 1.74,-1.74 7.433,1.63 9.522,0.593 2.101,-1.043 3.892,0.125 6.166,-0.207 2.27,-0.331 3.146,1.007 5.408,1.384 2.243,0.373 6.781,-6.966 8.844,-5.899 1.965,1.018 -1.925,9.461 -0.276,11.11 z" />
  <path
     id="path34"
     stroke-width="2"
     stroke="#000000"
     fill="none"
     d="m 372.778,133.09261 c 1.74,1.74 10.646,-2.179 11.684,-0.09 1.044,2.101 2.345,5.387 2.677,7.662 0.331,2.27 -4.786,4.941 -5.162,7.205 -0.373,2.242 -1.248,3.929 -2.315,5.992 -1.018,1.967 -5.434,0.065 -7.083,1.715 -1.74,1.74 -1.855,2.317 -3.944,3.354 -2.102,1.043 -2.483,1.753 -4.758,2.085 -2.27,0.332 -4.173,7.721 -6.437,7.345 -2.242,-0.373 -3.123,-5.103 -5.186,-6.17 -1.967,-1.018 -7.818,2.545 -9.467,0.896 -1.74,-1.74 -1.989,-5.8 -3.027,-7.889 -1.043,-2.101 0.949,-5.395 0.617,-7.67 -0.332,-2.27 -1.917,-4.608 -1.541,-6.871 0.373,-2.243 -2.808,-6.752 -1.74,-8.815 1.018,-1.966 4.368,-4.081 6.018,-5.73 1.74,-1.74 7.433,1.63 9.522,0.593 2.101,-1.043 3.892,0.125 6.166,-0.207 2.27,-0.331 3.146,1.007 5.408,1.384 2.243,0.373 6.781,-6.966 8.844,-5.899 1.965,1.018 -1.925,9.461 -0.276,11.11 z" />
  <path
     id="circle36"
     transform="rotate(-90)"
     style="fill:#7feeff;stroke:#000000;stroke-width:2"
     d="m -145.3726,421.75 a 7.5,7.5 0 0 1 -7.5,7.5 7.5,7.5 0 0 1 -7.5,-7.5 7.5,7.5 0 0 1 7.5,-7.5 7.5,7.5 0 0 1 7.5,7.5 z" />
  <path
     id="circle38"
     transform="rotate(-90)"
     style="fill:#7feeff;stroke:#000000;stroke-width:2"
     d="m -71.622589,453 a 7.5,7.5 0 0 1 -7.5,7.5 7.5,7.5 0 0 1 -7.5,-7.5 7.5,7.5 0 0 1 7.5,-7.5 7.5,7.5 0 0 1 7.5,7.5 z" />
  <path
     id="circle40"
     transform="rotate(-90)"
     style="fill:#7feeff;stroke:#000000;stroke-width:2"
     d="m -30.622601,428 a 7.5,7.5 0 0 1 -7.5,7.5 7.5,7.5 0 0 1 -7.5,-7.5 7.5,7.5 0 0 1 7.5,-7.5 7.5,7.5 0 0 1 7.5,7.5 z" />
  <g
     transform="rotate(-90,121.2288,131.7288)"
     id="g60">
    <path
       id="path56"
       d="m 154.693,162.121 v 7.58"
       stroke-width="15"
       stroke="#808080"
       fill="none"
       stroke-miterlimit="1" />
    <path
       id="path58"
       d="m 131.382,164.14 23.311,3.114 23.317,-3.114 -23.317,17.379 z"
       fill="#808080" />
  </g>
  <g
     transform="rotate(-90,121.2288,131.7288)"
     id="g66">
    <path
       id="path62"
       d="m 154.693,291.114 v 7.58"
       stroke-width="15"
       stroke="#808080"
       fill="none"
       stroke-miterlimit="1" />
    <path
       id="path64"
       d="m 131.382,293.134 23.311,3.114 23.317,-3.114 -23.317,17.379 z"
       fill="#808080" />
  </g>
  <g
     aria-label="235U"
     id="text46"
     style="font-style:normal;font-weight:normal;font-size:24px;line-height:1.25;font-family:sans-serif;fill:#000000;fill-opacity:1;stroke:none">
    <path
       d="m 84.658333,101.6096 q -0.168,0 -0.528,-0.024 -0.36,-0.024 -0.816,-0.048 -0.456,-0.024 -0.96,-0.048 -0.48,-0.024 -0.936,-0.024 -0.456,0 -1.296,0.024 -0.84,0.024 -1.776,0.048 -0.912,0 -1.608,0.024 -0.696,0.024 -0.888,0.024 -0.096,0 -0.288,-0.144 -0.192,-0.168 -0.192,-0.264 0,-0.12 0.048,-0.168 0.048,-0.048 0.144,-0.144 l 4.104,-4.247997 q 1.2,-1.248 1.992,-2.784 0.792,-1.56 0.792,-3.144 0,-1.272 -0.768,-1.992 -0.768,-0.744 -1.8,-0.744 -0.984,0 -1.824,0.552 -0.84,0.528 -1.344,1.392 -0.072,0.144 -0.192,0.24 -0.096,0.096 -0.216,0.096 -0.096,0 -0.24,-0.192 -0.12,-0.216 -0.12,-0.528 0,-0.288 0.336,-0.792 0.36,-0.504 0.984,-1.032 0.624,-0.528 1.488,-0.888 0.864,-0.384 1.872,-0.384 1.2,0 2.064,0.504 0.864,0.504 1.32,1.392 0.456,0.888 0.456,2.064 0,0.648 -0.24,1.392 -0.216,0.744 -0.624,1.464 -0.384,0.72 -0.888,1.344 -0.312,0.384 -0.936,1.032 -0.6,0.624 -1.32,1.344 -0.696,0.72 -1.344,1.368 -0.624,0.624 -1.032,1.056 -0.408,0.408 -0.408,0.456 0,0.12 0.336,0.167997 0.408,0.024 0.912,0.048 0.528,0.024 1.2,0.024 0.696,0 1.392,-0.024 0.696,-0.024 1.344,-0.048 0.696,-0.048 1.08,-0.119997 0.384,-0.072 0.648,-0.288 0.264,-0.24 0.552,-0.72 0.096,-0.144 0.24,-0.336 0.168,-0.216 0.36,-0.216 0.12,0 0.144,0.096 0.024,0.096 0.024,0.192 0,0.12 -0.144,0.48 -0.12,0.336 -0.288,0.84 -0.168,0.503997 -0.288,1.103997 -0.072,0.384 -0.24,0.48 -0.168,0.096 -0.288,0.096 z"
       style="font-style:normal;font-variant:normal;font-weight:normal;font-stretch:normal;font-size:24px;font-family:'EB Garamond';-inkscape-font-specification:'EB Garamond';baseline-shift:super"
       id="path77" />
    <path
       d="m 89.997583,102.4496 q -0.552,0 -1.176,-0.192 -0.624,-0.168 -1.056,-0.408 -0.432,-0.24 -0.432,-0.432 0,-0.168 0.192,-0.432 0.192,-0.264 0.432,-0.456 0.264,-0.216 0.432,-0.216 0.264,0 0.48,0.144 0.216,0.144 0.456,0.336 0.312,0.264 0.72,0.504 0.408,0.24 1.08,0.24 0.888,0 1.68,-0.456 0.792,-0.456 1.296,-1.247997 0.528,-0.816 0.528,-1.8 0,-0.936 -0.312,-1.8 -0.312,-0.864 -0.936,-1.416 -0.6,-0.576 -1.536,-0.576 -0.264,0 -0.72,0.072 -0.432,0.048 -0.84,0.288 -0.12,0.072 -0.288,0 -0.144,-0.096 -0.12,-0.216 0.096,-0.312 0.288,-0.504 0.192,-0.216 0.432,-0.312 0.216,-0.096 0.696,-0.36 0.48,-0.288 1.008,-0.696 0.552,-0.432 0.936,-0.96 0.384,-0.552 0.384,-1.2 0,-0.984 -0.648,-1.728 -0.624,-0.768 -1.608,-0.768 -0.936,0 -1.512,0.336 -0.552,0.312 -0.888,0.744 -0.336,0.408 -0.504,0.744 -0.168,0.312 -0.312,0.312 -0.096,0 -0.24,-0.144 -0.144,-0.144 -0.144,-0.312 0,-0.312 0.264,-0.816 0.264,-0.528 0.816,-1.056 0.576,-0.528 1.44,-0.888 0.888,-0.36 2.112,-0.36 0.792,0 1.488,0.36 0.72,0.336 1.176,0.96 0.456,0.6 0.456,1.416 0,0.576 -0.24,1.2 -0.24,0.624 -0.792,1.248 -0.552,0.6 -1.488,1.152 -0.072,0.024 -0.072,0.096 0,0.048 0.096,0.048 1.032,0 1.848,0.528 0.816,0.504 1.296,1.368 0.504,0.84 0.504,1.872 0,1.344 -0.576,2.424 -0.576,1.055997 -1.536,1.823997 -0.96,0.744 -2.16,1.128 -1.176,0.408 -2.4,0.408 z"
       style="font-style:normal;font-variant:normal;font-weight:normal;font-stretch:normal;font-size:24px;font-family:'EB Garamond';-inkscape-font-specification:'EB Garamond';baseline-shift:super"
       id="path79" />
    <path
       d="m 100.28083,102.4496 q -0.264,0 -0.575997,-0.072 -0.312,-0.048 -0.312,-0.216 0,-0.192 0.312,-0.336 0.335997,-0.12 0.551997,-0.12 1.896,0 3.12,-0.672 1.248,-0.696 1.848,-1.727997 0.624,-1.032 0.624,-2.064 0,-0.936 -0.552,-1.656 -0.552,-0.72 -1.824,-1.32 -1.248,-0.6 -3.384,-1.152 -0.311997,-0.264 -0.455997,-0.528 -0.12,-0.264 -0.12,-0.576 0,-0.336 0.12,-0.816 0.144,-0.48 0.336,-1.008 0.191997,-0.552 0.383997,-1.08 0.192,-0.528 0.312,-0.912 0.12,-0.36 0.36,-0.552 0.24,-0.216 0.624,-0.312 0.552,-0.144 1.128,-0.264 0.576,-0.12 1.2,-0.216 0.624,-0.12 1.272,-0.192 0.672,-0.096 1.368,-0.168 0.192,-0.024 0.264,0.12 0.096,0.12 0,0.288 -0.096,0.192 -0.216,0.408 -0.096,0.192 -0.192,0.384 -0.168,0.36 -0.384,0.552 -0.192,0.168 -0.504,0.216 -0.456,0.048 -1.056,0.12 -0.6,0.048 -1.2,0.12 -0.6,0.048 -1.104,0.096 -0.504,0.048 -0.768,0.096 -0.168,0.024 -0.408,0.432 -0.24,0.384 -0.432,0.84 -0.192,0.432 -0.216,0.624 -0.024,0.168 0.024,0.288 0.072,0.12 0.288,0.168 1.344,0.384 2.448,0.792 1.104,0.384 1.92,0.816 1.344,0.696 1.992,1.656 0.672,0.936 0.672,2.4 0,1.32 -0.792,2.472 -0.792,1.151997 -2.136,1.919997 -0.648,0.36 -1.368,0.6 -0.72,0.264 -1.512,0.408 -0.792,0.144 -1.656,0.144 z"
       style="font-style:normal;font-variant:normal;font-weight:normal;font-stretch:normal;font-size:24px;font-family:'EB Garamond';-inkscape-font-specification:'EB Garamond';baseline-shift:super"
       id="path81" />
    <path
       d="m 118.12408,111.4736 q -2.136,0 -3.576,-0.744 -1.44,-0.768 -2.16,-2.136 -0.72,-1.392 -0.72,-3.216 v -7.367996 q 0,-0.864 -0.36,-1.248 -0.336,-0.408 -0.744,-0.504 -0.792,-0.216 -0.792,-0.528 0,-0.144 0.192,-0.192 0.192,-0.072 0.504,-0.072 0.552,0 1.08,0.048 0.552,0.024 1.224,0.024 0.552,0 1.032,-0.024 0.504,-0.024 0.888,-0.024 0.312,0 0.504,0.072 0.192,0.048 0.192,0.192 0,0.168 -0.192,0.264 -0.192,0.096 -0.6,0.216 -0.288,0.096 -0.648,0.552 -0.36,0.456 -0.36,1.176 v 6.743996 q 0,1.92 0.648,3.168 0.648,1.224 1.776,1.824 1.152,0.576 2.616,0.576 2.472,0 3.624,-1.704 1.152,-1.728 1.152,-4.536 0,-0.528 -0.024,-1.392 0,-0.864 -0.024,-1.848 -0.024,-1.007996 -0.048,-1.919996 0,-0.624 -0.12,-1.176 -0.096,-0.552 -0.312,-0.936 -0.216,-0.408 -0.552,-0.504 -0.24,-0.072 -0.528,-0.192 -0.264,-0.12 -0.264,-0.288 0,-0.144 0.192,-0.192 0.192,-0.072 0.504,-0.072 0.552,0 0.912,0.024 0.36,0 0.888,0 0.384,0 0.72,0 0.336,-0.024 0.648,-0.048 0.312,-0.024 0.576,-0.024 0.312,0 0.504,0.072 0.192,0.048 0.192,0.192 0,0.312 -0.792,0.48 -0.624,0.12 -0.888,0.6 -0.264,0.48 -0.312,1.2 -0.12,2.063996 -0.168,3.767996 -0.024,1.704 -0.072,3.36 -0.048,1.848 -0.888,3.288 -0.84,1.44 -2.256,2.256 -1.392,0.792 -3.168,0.792 z"
       style="font-style:normal;font-variant:normal;font-weight:normal;font-stretch:normal;font-size:24px;font-family:'EB Garamond';-inkscape-font-specification:'EB Garamond'"
       id="path83" />
  </g>
  <g
     aria-label="236U"
     id="text46-7"
     style="font-style:normal;font-weight:normal;font-size:24px;line-height:1.25;font-family:sans-serif;fill:#000000;fill-opacity:1;stroke:none">
    <path
       d="m 211.84462,101.89281 q -0.168,0 -0.528,-0.024 -0.36,-0.024 -0.816,-0.048 -0.456,-0.024 -0.96,-0.048 -0.48,-0.024 -0.936,-0.024 -0.456,0 -1.296,0.024 -0.84,0.024 -1.776,0.048 -0.912,0 -1.608,0.024 -0.696,0.024 -0.888,0.024 -0.096,0 -0.288,-0.144 -0.192,-0.168 -0.192,-0.264 0,-0.12 0.048,-0.168 0.048,-0.048 0.144,-0.144 l 4.104,-4.248003 q 1.2,-1.248 1.992,-2.784 0.792,-1.56 0.792,-3.144 0,-1.272 -0.768,-1.992 -0.768,-0.744 -1.8,-0.744 -0.984,0 -1.824,0.552 -0.84,0.528 -1.344,1.392 -0.072,0.144 -0.192,0.24 -0.096,0.096 -0.216,0.096 -0.096,0 -0.24,-0.192 -0.12,-0.216 -0.12,-0.528 0,-0.288 0.336,-0.792 0.36,-0.504 0.984,-1.032 0.624,-0.528 1.488,-0.888 0.864,-0.384 1.872,-0.384 1.2,0 2.064,0.504 0.864,0.504 1.32,1.392 0.456,0.888 0.456,2.064 0,0.648 -0.24,1.392 -0.216,0.744 -0.624,1.464 -0.384,0.72 -0.888,1.344 -0.312,0.384 -0.936,1.032 -0.6,0.624 -1.32,1.344 -0.696,0.72 -1.344,1.368 -0.624,0.624 -1.032,1.056 -0.408,0.408003 -0.408,0.456003 0,0.12 0.336,0.168 0.408,0.024 0.912,0.048 0.528,0.024 1.2,0.024 0.696,0 1.392,-0.024 0.696,-0.024 1.344,-0.048 0.696,-0.048 1.08,-0.12 0.384,-0.072 0.648,-0.288003 0.264,-0.24 0.552,-0.72 0.096,-0.144 0.24,-0.336 0.168,-0.216 0.36,-0.216 0.12,0 0.144,0.096 0.024,0.096 0.024,0.192 0,0.12 -0.144,0.48 -0.12,0.336 -0.288,0.840003 -0.168,0.504 -0.288,1.104 -0.072,0.384 -0.24,0.48 -0.168,0.096 -0.288,0.096 z"
       style="font-style:normal;font-variant:normal;font-weight:normal;font-stretch:normal;font-size:24px;font-family:'EB Garamond';-inkscape-font-specification:'EB Garamond';baseline-shift:super"
       id="path68" />
    <path
       d="m 217.18387,102.73281 q -0.552,0 -1.176,-0.192 -0.624,-0.168 -1.056,-0.408 -0.432,-0.24 -0.432,-0.432 0,-0.168 0.192,-0.432 0.192,-0.264 0.432,-0.456 0.264,-0.216 0.432,-0.216 0.264,0 0.48,0.144 0.216,0.144 0.456,0.336 0.312,0.264 0.72,0.504 0.408,0.24 1.08,0.24 0.888,0 1.68,-0.456 0.792,-0.456 1.296,-1.248 0.528,-0.816003 0.528,-1.800003 0,-0.936 -0.312,-1.8 -0.312,-0.864 -0.936,-1.416 -0.6,-0.576 -1.536,-0.576 -0.264,0 -0.72,0.072 -0.432,0.048 -0.84,0.288 -0.12,0.072 -0.288,0 -0.144,-0.096 -0.12,-0.216 0.096,-0.312 0.288,-0.504 0.192,-0.216 0.432,-0.312 0.216,-0.096 0.696,-0.36 0.48,-0.288 1.008,-0.696 0.552,-0.432 0.936,-0.96 0.384,-0.552 0.384,-1.2 0,-0.984 -0.648,-1.728 -0.624,-0.768 -1.608,-0.768 -0.936,0 -1.512,0.336 -0.552,0.312 -0.888,0.744 -0.336,0.408 -0.504,0.744 -0.168,0.312 -0.312,0.312 -0.096,0 -0.24,-0.144 -0.144,-0.144 -0.144,-0.312 0,-0.312 0.264,-0.816 0.264,-0.528 0.816,-1.056 0.576,-0.528 1.44,-0.888 0.888,-0.36 2.112,-0.36 0.792,0 1.488,0.36 0.72,0.336 1.176,0.96 0.456,0.6 0.456,1.416 0,0.576 -0.24,1.2 -0.24,0.624 -0.792,1.248 -0.552,0.6 -1.488,1.152 -0.072,0.024 -0.072,0.096 0,0.048 0.096,0.048 1.032,0 1.848,0.528 0.816,0.504 1.296,1.368 0.504,0.84 0.504,1.872 0,1.344 -0.576,2.424 -0.576,1.056003 -1.536,1.824003 -0.96,0.744 -2.16,1.128 -1.176,0.408 -2.4,0.408 z"
       style="font-style:normal;font-variant:normal;font-weight:normal;font-stretch:normal;font-size:24px;font-family:'EB Garamond';-inkscape-font-specification:'EB Garamond';baseline-shift:super"
       id="path70" />
    <path
       d="m 230.89912,102.20481 q -1.224,0 -2.352,-0.552 -1.128,-0.552 -1.848,-1.656003 -0.72,-1.128 -0.72,-2.808 0,-1.344 0.312,-2.448 0.312,-1.104 0.792,-1.944 0.48,-0.864 0.96,-1.464 0.504,-0.624 0.84,-0.96 0.6,-0.624 1.536,-1.392 0.936,-0.768 2.16,-1.464 1.248,-0.696 2.712,-1.08 0.216,-0.048 0.336,0.024 0.144,0.072 0.096,0.144 -0.096,0.216 -0.312,0.336 -0.192,0.096 -0.312,0.144 -1.608,0.696 -2.784,1.584 -1.152,0.888 -2.064,2.208 -0.384,0.576 -0.912,1.584 -0.528,0.984 -0.912,2.208 -0.384,1.224 -0.384,2.472 0.024,1.32 0.552,2.256 0.528,0.912003 1.296,1.392003 0.792,0.48 1.584,0.504 0.984,0.024 1.728,-0.672 0.744,-0.720003 0.744,-2.208003 0,-0.744 -0.288,-1.368 -0.264,-0.648 -0.768,-1.056 -0.48,-0.408 -1.128,-0.408 -0.624,0 -1.08,0.072 -0.432,0.072 -0.84,0.288 -0.216,0.096 -0.264,0 -0.024,-0.12 0.096,-0.264 0.192,-0.192 0.312,-0.312 0.144,-0.12 0.336,-0.264 0.264,-0.192 0.96,-0.48 0.72,-0.312 1.392,-0.312 0.84,0 1.536,0.384 0.72,0.384 1.152,1.056 0.456,0.648 0.456,1.512 0,1.128 -0.432,2.04 -0.432,0.912003 -1.152,1.560003 -0.72,0.648 -1.608,0.984 -0.864,0.36 -1.728,0.36 z"
       style="font-style:normal;font-variant:normal;font-weight:normal;font-stretch:normal;font-size:24px;font-family:'EB Garamond';-inkscape-font-specification:'EB Garamond';baseline-shift:super"
       id="path72" />
    <path
       d="m 245.31037,111.75681 q -2.136,0 -3.576,-0.744 -1.44,-0.768 -2.16,-2.136 -0.72,-1.392 -0.72,-3.216 v -7.368003 q 0,-0.864 -0.36,-1.248 -0.336,-0.408 -0.744,-0.504 -0.792,-0.216 -0.792,-0.528 0,-0.144 0.192,-0.192 0.192,-0.072 0.504,-0.072 0.552,0 1.08,0.048 0.552,0.024 1.224,0.024 0.552,0 1.032,-0.024 0.504,-0.024 0.888,-0.024 0.312,0 0.504,0.072 0.192,0.048 0.192,0.192 0,0.168 -0.192,0.264 -0.192,0.096 -0.6,0.216 -0.288,0.096 -0.648,0.552 -0.36,0.456 -0.36,1.176 v 6.744003 q 0,1.92 0.648,3.168 0.648,1.224 1.776,1.824 1.152,0.576 2.616,0.576 2.472,0 3.624,-1.704 1.152,-1.728 1.152,-4.536 0,-0.528 -0.024,-1.392 0,-0.864 -0.024,-1.848 -0.024,-1.008 -0.048,-1.920003 0,-0.624 -0.12,-1.176 -0.096,-0.552 -0.312,-0.936 -0.216,-0.408 -0.552,-0.504 -0.24,-0.072 -0.528,-0.192 -0.264,-0.12 -0.264,-0.288 0,-0.144 0.192,-0.192 0.192,-0.072 0.504,-0.072 0.552,0 0.912,0.024 0.36,0 0.888,0 0.384,0 0.72,0 0.336,-0.024 0.648,-0.048 0.312,-0.024 0.576,-0.024 0.312,0 0.504,0.072 0.192,0.048 0.192,0.192 0,0.312 -0.792,0.48 -0.624,0.12 -0.888,0.6 -0.264,0.48 -0.312,1.2 -0.12,2.064003 -0.168,3.768003 -0.024,1.704 -0.072,3.36 -0.048,1.848 -0.888,3.288 -0.84,1.44 -2.256,2.256 -1.392,0.792 -3.168,0.792 z"
       style="font-style:normal;font-variant:normal;font-weight:normal;font-stretch:normal;font-size:24px;font-family:'EB Garamond';-inkscape-font-specification:'EB Garamond'"
       id="path74" />
  </g>
  <g
     aria-label="141Ba"
     id="text46-7-0"
     style="font-style:normal;font-weight:normal;font-size:24px;line-height:1.25;font-family:sans-serif;fill:#000000;fill-opacity:1;stroke:none">
    <path
       d="m 323.68702,10.062 q -0.1092,0 -0.1716,-0.0624 -0.0624,-0.0624 -0.0624,-0.1248 0,-0.1404 0.234,-0.2028 0.5928,-0.156 0.9672,-0.2808 0.39,-0.1404 0.5616,-0.3744 0.1872,-0.2496 0.1872,-0.702 V 2.3555999 q 0,-0.2963999 -0.1872,-0.4523999 -0.1872,-0.156 -0.4836,-0.2184 -0.2964,-0.0624 -0.6396,-0.078 -0.156,-0.0156 -0.2808,-0.078 -0.1248,-0.0624 -0.1248,-0.1872 0,-0.1092 0.1092,-0.1872 0.1248,-0.078 0.2808,-0.0936 0.702,-0.10920001 1.248,-0.2652 0.5616,-0.17159999 1.092,-0.70199997 0.0156,-0.0156 0.0312,-0.0156 0.0312,0 0.0468,0 0.078,0 0.1404,0.04679999 0.0624,0.0312 0.0468,0.0936 -0.0312,0.23399999 -0.0468,0.51479998 -0.0156,0.26519999 -0.0156,0.5928 v 7.1759997 q 0,0.39 0.1404,0.5928 0.156,0.2028 0.5148,0.3276 0.3588,0.1092 0.9984,0.2652 0.0936,0.0156 0.1716,0.078 0.0936,0.0468 0.0936,0.1248 0,0.1716003 -0.2184,0.1716003 -0.4368,0 -0.8112,-0.0312 -0.3588,-0.0156 -0.7176,-0.0312 -0.3432,-0.0156 -0.7644,-0.0156 -0.4212,0 -0.7956,0.0156 -0.3744,0.0156 -0.7488,0.0312 -0.3744,0.0312 -0.7956,0.0312 z"
       style="font-size:65%;baseline-shift:super"
       id="path57" />
    <path
       d="m 332.78913,10.062 q -0.078,0 -0.1872,-0.0468 -0.0936,-0.0468 -0.0936,-0.1560003 0,-0.078 0.0936,-0.1248 0.0936,-0.0468 0.1872,-0.0624 0.7332,-0.0936 0.9672,-0.312 0.234,-0.2184 0.234,-0.5928 V 7.3163998 q 0,-0.078 -0.1092,-0.1092 -0.1092,-0.0312 -0.1248,-0.0312 -0.6396,0 -1.2012,0.0312 -0.546,0.0156 -1.1544,0.0468 -0.6084,0.0156 -1.4352,0.0312 -0.0624,0 -0.1092,-0.0468 -0.0468,-0.0624 -0.0468,-0.1092 0,-0.0312 0.0156,-0.0468 0.2028,-0.2496 0.2964,-0.3432 0.0936,-0.1092 0.156,-0.1716 0.0624,-0.078 0.156,-0.2184 l 4.1184,-5.91239979 q 0.0936,-0.14039999 0.2184,-0.28079999 Q 334.91073,2.8610229e-8 335.01993,2.8610229e-8 h 0.3276 q 0.078,0 0.0156,0.109199991389771 -0.0468,0.1092 -0.0468,0.1092 l -4.212,6.05279978 q -0.0156,0.0312 -0.0312,0.0936 -0.0156,0.0468 0.0312,0.0468 h 2.6988 q 0.0624,0 0.1248,-0.0312 0.0624,-0.0468 0.0624,-0.0936 V 3.8687999 q 0,-0.1716 0.0156,-0.234 0.0312,-0.0624 0.1248,-0.1092 0.234,-0.1248 0.4992,-0.156 0.2652,-0.0468 0.3744,-0.0468 0.1716,0 0.2028,0.2496 0.0312,0.2496 0.0312,0.7488 v 2.0123999 q 0,0.0936 0.078,0.0936 0.1716,0.0156 0.3276,0.0156 0.156,0 0.2964,0 0.2184,0 0.4368,0 0.234,-0.0156 0.4836,-0.0312 0.1716,0 0.1716,0.1248 0,0.1248 -0.078,0.2652 -0.0624,0.1404 -0.1404,0.234 -0.078,0.0936 -0.1092,0.0936 -0.1716,0 -0.3744,0 -0.2028,-0.0156 -0.39,-0.0156 -0.1404,0 -0.2652,0.0156 -0.1248,0 -0.2184,0.0156 -0.0624,0.0156 -0.1404,0.0468 -0.0624,0.0312 -0.0624,0.0468 v 1.4663999 q 0,0.4524 0.2028,0.624 0.2184,0.1716 0.8424,0.3432 0.0936,0.0156 0.1872,0.078 0.0936,0.0624 0.0936,0.1404 0,0.0624 -0.078,0.1248003 -0.0624,0.0468 -0.156,0.0468 -0.4368,0 -0.702,-0.0312 -0.2496,-0.0156 -0.468,-0.0312 -0.2184,-0.0156 -0.5928,-0.0156 -0.39,0 -0.6396,0.0156 -0.234,0.0156 -0.4836,0.0312 -0.2496,0.0312 -0.6708,0.0312 z"
       style="font-size:65%;baseline-shift:super"
       id="path59" />
    <path
       d="m 338.67765,10.062 q -0.1092,0 -0.1716,-0.0624 -0.0624,-0.0624 -0.0624,-0.1248 0,-0.1404 0.234,-0.2028 0.5928,-0.156 0.9672,-0.2808 0.39,-0.1404 0.5616,-0.3744 0.1872,-0.2496 0.1872,-0.702 V 2.3555999 q 0,-0.2963999 -0.1872,-0.4523999 -0.1872,-0.156 -0.4836,-0.2184 -0.2964,-0.0624 -0.6396,-0.078 -0.156,-0.0156 -0.2808,-0.078 -0.1248,-0.0624 -0.1248,-0.1872 0,-0.1092 0.1092,-0.1872 0.1248,-0.078 0.2808,-0.0936 0.702,-0.10920001 1.248,-0.2652 0.5616,-0.17159999 1.092,-0.70199997 0.0156,-0.0156 0.0312,-0.0156 0.0312,0 0.0468,0 0.078,0 0.1404,0.04679999 0.0624,0.0312 0.0468,0.0936 -0.0312,0.23399999 -0.0468,0.51479998 -0.0156,0.26519999 -0.0156,0.5928 v 7.1759997 q 0,0.39 0.1404,0.5928 0.156,0.2028 0.5148,0.3276 0.3588,0.1092 0.9984,0.2652 0.0936,0.0156 0.1716,0.078 0.0936,0.0468 0.0936,0.1248 0,0.1716003 -0.2184,0.1716003 -0.4368,0 -0.8112,-0.0312 -0.3588,-0.0156 -0.7176,-0.0312 -0.3432,-0.0156 -0.7644,-0.0156 -0.4212,0 -0.7956,0.0156 -0.3744,0.0156 -0.7488,0.0312 -0.3744,0.0312 -0.7956,0.0312 z"
       style="font-size:65%;baseline-shift:super"
       id="path61" />
    <path
       d="m 345.65576,19.7352 q -0.312,0 -0.504,-0.072 -0.192,-0.048 -0.192,-0.192 0,-0.288 0.792,-0.432 0.912,-0.168 1.392,-0.552 0.48,-0.384 0.48,-1.248 v -10.8 q 0,-0.864 -0.36,-1.272 -0.36,-0.408 -1.248,-0.48 -0.408,-0.048 -0.6,-0.168 -0.192,-0.144 -0.192,-0.312 0,-0.144 0.192,-0.192 0.192,-0.072 0.504,-0.072 0.648,0 1.008,0 0.36,0 0.672,0.024 0.336,0 0.816,0 0.456,0 0.792,-0.024 0.336,-0.048 0.744,-0.072 0.432,-0.024 1.128,-0.024 2.808,0 4.176,0.816 1.392,0.792 1.392,2.76 0,0.816 -0.288,1.44 -0.264,0.6 -0.528,0.864 -0.384,0.384 -0.696,0.6 -0.312,0.192 -0.912,0.432 -0.096,0.024 -0.096,0.12 0,0.072 0.096,0.12 0.552,0.168 1.128,0.432 0.6,0.264 1.104,0.696 0.528,0.408 0.84,1.104 0.336,0.672 0.336,1.728 0,1.32 -0.432,2.088 -0.408,0.768 -0.984,1.176 -0.576,0.408 -1.08,0.672 -0.744,0.384 -1.728,0.6 -0.984,0.216 -2.352,0.216 -0.312,0 -0.936,-0.048 -0.624,-0.048 -1.344,-0.048 -0.624,0 -1.056,0.024 -0.432,0.024 -0.912,0.048 -0.456,0.048 -1.152,0.048 z m 5.736,-1.008 q 1.056,0 1.968,-0.48 0.912,-0.48 1.464,-1.296 0.552,-0.84 0.552,-1.872 0,-0.936 -0.312,-1.536 -0.312,-0.624 -0.72,-1.008 -0.408,-0.384 -0.744,-0.552 -0.312,-0.192 -0.984,-0.384 -0.672,-0.216 -1.752,-0.216 -0.768,0 -1.08,0.312 -0.288,0.312 -0.288,0.552 v 4.776 q 0,1.008 0.48,1.368 0.504,0.336 1.416,0.336 z m -0.792,-8.016 q 0.648,0 1.392,-0.144 0.768,-0.144 1.512,-0.552 0.264,-0.144 0.672,-0.696 0.408,-0.552 0.408,-1.584 0,-0.696 -0.264,-1.416 -0.264,-0.744 -1.008,-1.248 -0.744,-0.504 -2.232,-0.504 -0.984,0 -1.296,0.264 -0.288,0.264 -0.288,0.816 v 4.176 q 0,0.624 0.408,0.768 0.408,0.12 0.696,0.12 z"
       style="font-style:normal;font-variant:normal;font-weight:normal;font-stretch:normal;font-size:24px;font-family:'EB Garamond';-inkscape-font-specification:'EB Garamond'"
       id="path63" />
    <path
       d="m 361.42113,19.9512 q -0.432,0 -0.888,-0.336 -0.432,-0.336 -0.744,-0.816 -0.288,-0.48 -0.288,-0.912 0,-0.768 0.408,-1.2 0.408,-0.432 1.296,-0.792 l 2.448,-1.008 q 0.48,-0.192 0.552,-0.336 0.096,-0.144 0.12,-0.624 l 0.048,-1.536 q 0.024,-0.624 -0.36,-1.08 -0.36,-0.456 -1.056,-0.456 -0.36,0 -0.72,0.12 -0.36,0.12 -0.6,0.312 -0.144,0.096 -0.192,0.288 -0.048,0.192 -0.048,0.408 0,0.096 0,0.216 0.024,0.12 0.024,0.216 0,0.12 -0.312,0.336 -0.288,0.192 -0.672,0.36 -0.36,0.144 -0.6,0.144 -0.12,0 -0.192,-0.048 -0.072,-0.072 -0.072,-0.168 0,-0.384 0.24,-0.816 0.264,-0.456 0.72,-0.84 0.552,-0.504 1.2,-0.888 0.648,-0.384 1.272,-0.6 0.624,-0.216 1.104,-0.216 0.864,0 1.416,0.624 0.576,0.6 0.552,1.512 l -0.12,5.76 q -0.024,0.504 0.216,0.816 0.264,0.312 0.648,0.312 0.6,0 0.888,-0.264 0.12,-0.12 0.192,-0.12 0.12,0 0.192,0.072 0.072,0.072 0.072,0.192 0,0.264 -0.264,0.528 -0.384,0.384 -0.84,0.6 -0.432,0.24 -0.816,0.24 -1.104,0 -1.752,-1.248 h -0.072 q -0.792,0.648 -1.512,0.936 -0.72,0.312 -1.488,0.312 z m 1.128,-1.152 q 0.48,0 0.816,-0.144 0.336,-0.168 0.6,-0.432 0.12,-0.12 0.192,-0.312 0.096,-0.216 0.12,-0.672 l 0.048,-1.176 q 0.024,-0.264 -0.024,-0.384 -0.048,-0.12 -0.192,-0.12 -0.048,0 -0.168,0.024 -0.12,0.024 -0.312,0.096 -1.272,0.456 -1.776,0.96 -0.48,0.48 -0.48,0.888 0,0.624 0.36,0.96 0.384,0.312 0.816,0.312 z"
       style="font-style:normal;font-variant:normal;font-weight:normal;font-stretch:normal;font-size:24px;font-family:'EB Garamond';-inkscape-font-specification:'EB Garamond'"
       id="path65" />
  </g>
  <g
     aria-label="92Kr"
     id="text46-7-0-4"
     style="font-style:normal;font-weight:normal;font-size:24px;line-height:1.25;font-family:sans-serif;fill:#000000;fill-opacity:1;stroke:none">
    <path
       d="m 339.54471,181.6388 q -0.1248,0 -0.1716,-0.0468 -0.0468,-0.0312 -0.0468,-0.078 0,-0.078 0.0624,-0.1248 0.078,-0.0312 0.156,-0.0312 0.468,0 1.0764,-0.2964 0.624,-0.312 1.248,-0.8268 0.6396,-0.5304 1.1388,-1.17 0.4992,-0.6552 0.7956,-1.2792 0.312,-0.624 0.4524,-1.2792 0.1404,-0.6708 0.1404,-1.4196 0,-0.5616 -0.1872,-1.1232 -0.1716,-0.5616 -0.4836,-1.0296 -0.2964,-0.468 -0.702,-0.7488 -0.39,-0.2808 -0.8112,-0.2808 -0.4992,0 -0.8424,0.2808 -0.3432,0.2652 -0.5148,0.6708 -0.1716,0.39 -0.1716,0.78 0,0.468 0.2184,0.9204 0.234,0.4524 0.6084,0.7488 0.3744,0.2808 0.78,0.2808 0.4836,0 0.7176,-0.1248 0.234,-0.1404 0.5304,-0.2808 0.0624,-0.0312 0.0936,0.0468 0.0468,0.078 0.0156,0.1248 -0.078,0.156 -0.234,0.312 -0.156,0.1404 -0.2808,0.234 -0.1092,0.078 -0.3432,0.2028 -0.234,0.1248 -0.5148,0.2184 -0.2808,0.0936 -0.5772,0.0936 -0.5304,0 -1.0452,-0.2496 -0.4992,-0.2652 -0.8268,-0.702 -0.312,-0.4524 -0.312,-1.014 0,-0.5304 0.234,-1.0764 0.234,-0.546 0.6552,-0.9984 0.4368,-0.468 1.0296,-0.7488 0.5928,-0.2808 1.2948,-0.2808 0.5616,0 1.092,0.312 0.546,0.2964 0.9672,0.8112 0.4368,0.4992 0.6864,1.1388 0.2496,0.6396 0.2496,1.3104 0,0.9672 -0.2652,1.794 -0.2652,0.8112 -0.7644,1.56 -0.4992,0.7488 -1.2168,1.5288 -0.4212,0.468 -0.936,0.8112 -0.5148,0.3432 -1.0452,0.5772 -0.5304,0.234 -1.0452,0.3432 -0.4992,0.1092 -0.9048,0.1092 z"
       style="font-size:65%;baseline-shift:super"
       id="path48" />
    <path
       d="m 352.53122,181.202 q -0.1092,0 -0.3432,-0.0156 -0.234,-0.0156 -0.5304,-0.0312 -0.2964,-0.0156 -0.624,-0.0312 -0.312,-0.0156 -0.6084,-0.0156 -0.2964,0 -0.8424,0.0156 -0.546,0.0156 -1.1544,0.0312 -0.5928,0 -1.0452,0.0156 -0.4524,0.0156 -0.5772,0.0156 -0.0624,0 -0.1872,-0.0936 -0.1248,-0.1092 -0.1248,-0.1716 0,-0.078 0.0312,-0.1092 0.0312,-0.0312 0.0936,-0.0936 l 2.6676,-2.7612 q 0.78,-0.8112 1.2948,-1.8096 0.5148,-1.014 0.5148,-2.0436 0,-0.8268 -0.4992,-1.2948 -0.4992,-0.4836 -1.17,-0.4836 -0.6396,0 -1.1856,0.3588 -0.546,0.3432 -0.8736,0.9048 -0.0468,0.0936 -0.1248,0.156 -0.0624,0.0624 -0.1404,0.0624 -0.0624,0 -0.156,-0.1248 -0.078,-0.1404 -0.078,-0.3432 0,-0.1872 0.2184,-0.5148 0.234,-0.3276 0.6396,-0.6708 0.4056,-0.3432 0.9672,-0.5772 0.5616,-0.2496 1.2168,-0.2496 0.78,0 1.3416,0.3276 0.5616,0.3276 0.858,0.9048 0.2964,0.5772 0.2964,1.3416 0,0.4212 -0.156,0.9048 -0.1404,0.4836 -0.4056,0.9516 -0.2496,0.468 -0.5772,0.8736 -0.2028,0.2496 -0.6084,0.6708 -0.39,0.4056 -0.858,0.8736 -0.4524,0.468 -0.8736,0.8892 -0.4056,0.4056 -0.6708,0.6864 -0.2652,0.2652 -0.2652,0.2964 0,0.078 0.2184,0.1092 0.2652,0.0156 0.5928,0.0312 0.3432,0.0156 0.78,0.0156 0.4524,0 0.9048,-0.0156 0.4524,-0.0156 0.8736,-0.0312 0.4524,-0.0312 0.702,-0.078 0.2496,-0.0468 0.4212,-0.1872 0.1716,-0.156 0.3588,-0.468 0.0624,-0.0936 0.156,-0.2184 0.1092,-0.1404 0.234,-0.1404 0.078,0 0.0936,0.0624 0.0156,0.0624 0.0156,0.1248 0,0.078 -0.0936,0.312 -0.078,0.2184 -0.1872,0.546 -0.1092,0.3276 -0.1872,0.7176 -0.0468,0.2496 -0.156,0.312 -0.1092,0.0624 -0.1872,0.0624 z"
       style="font-size:65%;baseline-shift:super"
       id="path50" />
    <path
       d="m 354.93014,190.8752 q -0.312,0 -0.504,-0.072 -0.192,-0.048 -0.192,-0.192 0,-0.288 0.792,-0.432 0.912,-0.168 1.248,-0.552 0.36,-0.408 0.36,-1.296 v -10.8 q 0,-0.84 -0.36,-1.176 -0.336,-0.36 -1.248,-0.528 -0.792,-0.144 -0.792,-0.48 0,-0.144 0.192,-0.192 0.192,-0.072 0.504,-0.072 0.648,0 1.032,0.024 0.408,0 0.768,0.024 0.36,0 0.888,0 0.456,0 0.72,0 0.288,-0.024 0.624,-0.024 0.336,-0.024 0.984,-0.024 0.312,0 0.504,0.072 0.192,0.048 0.192,0.192 0,0.168 -0.192,0.288 -0.192,0.12 -0.6,0.192 -0.888,0.168 -1.104,0.6 -0.192,0.408 -0.192,1.104 v 4.488 q 0,0.096 0,0.288 0.024,0.168 0.12,0.168 0.12,0 0.312,-0.144 0.216,-0.144 0.336,-0.288 l 4.8,-4.896 q 0.192,-0.192 0.264,-0.36 0.096,-0.192 0.096,-0.36 0,-0.432 -0.456,-0.552 -0.408,-0.12 -0.576,-0.216 -0.168,-0.096 -0.168,-0.264 0,-0.144 0.192,-0.192 0.192,-0.072 0.504,-0.072 h 1.296 q 0.696,0 1.536,-0.024 0.84,-0.024 1.512,-0.048 0.696,-0.024 0.84,-0.024 0.24,0 0.384,0.072 0.144,0.072 0.144,0.192 0,0.168 -0.192,0.288 -0.192,0.12 -0.6,0.192 -0.888,0.168 -1.848,0.528 -0.96,0.36 -1.8,1.056 -0.864,0.72 -1.608,1.416 -0.72,0.672 -1.44,1.416 -0.72,0.72 -1.56,1.656 -0.144,0.144 0.12,0.432 l 5.808,6.192 q 0.528,0.576 0.84,0.888 0.336,0.312 0.72,0.504 0.408,0.168 1.08,0.312 0.408,0.096 0.6,0.192 0.192,0.072 0.192,0.24 0,0.144 -0.192,0.192 -0.192,0.072 -0.504,0.072 -0.696,0 -1.2,-0.048 -0.504,-0.024 -0.984,-0.048 -0.48,-0.024 -1.152,-0.024 -0.456,0 -0.792,0 -0.336,0.024 -1.152,0.024 -0.312,0 -0.504,-0.048 -0.192,-0.072 -0.192,-0.216 0,-0.264 0.648,-0.408 0.672,-0.168 0.672,-0.48 0,-0.144 -0.12,-0.288 -0.096,-0.144 -0.24,-0.312 l -5.088,-5.616 q -0.144,-0.144 -0.312,-0.264 -0.144,-0.144 -0.24,-0.144 -0.096,0 -0.096,0.192 0,0.192 0,0.312 0,1.128 0.024,2.16 0.048,1.008 0.096,2.448 0.024,0.504 0.144,0.936 0.144,0.432 0.456,0.72 0.336,0.288 0.936,0.408 0.408,0.072 0.6,0.168 0.192,0.096 0.192,0.264 0,0.144 -0.192,0.192 -0.192,0.072 -0.504,0.072 -0.648,0 -1.008,-0.048 -0.336,-0.048 -0.624,-0.072 -0.264,-0.048 -0.72,-0.048 -0.576,0 -1.032,0.048 -0.432,0.024 -0.888,0.072 -0.456,0.048 -1.104,0.048 z"
       style="font-style:normal;font-variant:normal;font-weight:normal;font-stretch:normal;font-size:24px;font-family:'EB Garamond';-inkscape-font-specification:'EB Garamond'"
       id="path52" />
    <path
       d="m 371.02551,190.8272 q -0.24,0 -0.36,-0.072 -0.12,-0.048 -0.12,-0.192 0,-0.192 0.144,-0.24 0.144,-0.072 0.408,-0.144 0.456,-0.12 0.672,-0.336 0.24,-0.24 0.24,-0.576 v -5.16 q 0,-0.648 -0.192,-1.128 -0.192,-0.48 -0.792,-0.6 -0.096,-0.024 -0.168,-0.12 -0.072,-0.096 -0.072,-0.192 0,-0.24 0.216,-0.288 0.624,-0.192 1.296,-0.552 0.696,-0.384 1.08,-0.624 0.144,-0.096 0.216,-0.12 0.096,-0.048 0.144,-0.048 0.12,0 0.12,0.168 0,0.072 -0.024,0.36 0,0.288 -0.024,0.672 0,0.384 -0.024,0.768 0,0.048 0.048,0.048 0.384,-0.48 0.84,-0.84 0.48,-0.36 0.96,-0.576 0.504,-0.216 0.96,-0.216 0.504,0 0.816,0.216 0.336,0.216 0.336,0.552 0,0.24 -0.144,0.528 -0.12,0.288 -0.336,0.504 -0.216,0.216 -0.456,0.216 -0.144,0 -0.312,-0.048 -0.168,-0.072 -0.36,-0.168 -0.192,-0.072 -0.384,-0.144 -0.192,-0.072 -0.384,-0.072 -0.576,0 -1.128,0.408 -0.528,0.408 -0.528,1.608 v 4.848 q 0,0.312 0.336,0.528 0.336,0.192 0.936,0.384 0.264,0.072 0.408,0.144 0.144,0.072 0.144,0.24 0,0.264 -0.48,0.264 -0.72,0 -1.104,-0.072 -0.36,-0.048 -0.984,-0.048 -0.408,0 -0.672,0.024 -0.24,0.024 -0.528,0.048 -0.264,0.048 -0.744,0.048 z"
       style="font-style:normal;font-variant:normal;font-weight:normal;font-stretch:normal;font-size:24px;font-family:'EB Garamond';-inkscape-font-specification:'EB Garamond'"
       id="path54" />
  </g>
</svg>
