<?xml version="1.0" encoding="UTF-8" standalone="no"?>
<svg
   enable-background="new 0 0 242 314.5"
   height="81.00032mm"
   viewBox="0 0 225.2476 306.14295"
   width="59.59676mm"
   version="1.1"
   id="svg1038"
   sodipodi:docname="masa-muelle.svg"
   inkscape:version="1.1 (c4e8f9e, 2021-05-24)"
   xmlns:inkscape="http://www.inkscape.org/namespaces/inkscape"
   xmlns:sodipodi="http://sodipodi.sourceforge.net/DTD/sodipodi-0.dtd"
   xmlns="http://www.w3.org/2000/svg"
   xmlns:svg="http://www.w3.org/2000/svg">
  <defs
     id="defs1042" />
  <sodipodi:namedview
     id="namedview1040"
     pagecolor="#ffffff"
     bordercolor="#666666"
     borderopacity="1.0"
     inkscape:pageshadow="2"
     inkscape:pageopacity="0.0"
     inkscape:pagecheckerboard="0"
     showgrid="false"
     fit-margin-top="0"
     fit-margin-left="0"
     fit-margin-right="0"
     fit-margin-bottom="0"
     inkscape:zoom="1.7201908"
     inkscape:cx="112.77819"
     inkscape:cy="156.378"
     inkscape:window-width="1440"
     inkscape:window-height="900"
     inkscape:window-x="1920"
     inkscape:window-y="0"
     inkscape:window-maximized="0"
     inkscape:current-layer="svg1038"
     units="mm"
     inkscape:document-units="mm" />
  <path
     d="m 178.0894,136.64293 v 2"
     fill="none"
     stroke="#222222"
     stroke-miterlimit="10"
     id="path824" />
  <path
     d="m 178.0894,142.53763 v 68.1579"
     fill="none"
     stroke="#222222"
     stroke-dasharray="3.8947, 3.8947"
     stroke-miterlimit="10"
     id="path826" />
  <path
     d="m 178.0894,212.64293 v 2"
     fill="none"
     stroke="#222222"
     stroke-miterlimit="10"
     id="path828" />
  <path
     d="m 104.3886,34.642929 v 2"
     fill="none"
     stroke="#222222"
     stroke-miterlimit="10"
     id="path830" />
  <path
     d="M 104.3886,40.635429 V 302.14663"
     fill="none"
     stroke="#222222"
     stroke-dasharray="3.9925, 3.9925"
     stroke-miterlimit="10"
     id="path832" />
  <path
     d="m 104.3886,304.14293 v 2"
     fill="none"
     stroke="#222222"
     stroke-miterlimit="10"
     id="path834" />
  <path
     d="M 6.2265,37.018329 H 16.9261 V 103.59273 H 6.2265 Z"
     fill="#b36429"
     id="path836"
     style="fill:#000000;fill-opacity:1" />
  <path
     d="m 84.7017,64.218829 h 39.3739 V 103.59273 H 84.7017 Z"
     fill="#767676"
     id="path838"
     style="fill:#555555;fill-opacity:1" />
  <ellipse
     cx="30.079201"
     cy="83.90583"
     fill="none"
     rx="2.8622999"
     ry="5.0430999"
     stroke="#222222"
     stroke-miterlimit="10"
     id="ellipse840" />
  <path
     d="m 28.2235,87.741329 c -0.5001,0.7529 -1.1492,1.2076 -1.8585,1.2076 -1.5808,0 -2.8623,-2.2579 -2.8623,-5.0431 h -6.5765"
     fill="none"
     stroke="#222222"
     stroke-miterlimit="10"
     id="path842" />
  <ellipse
     cx="34.372601"
     cy="83.90583"
     fill="none"
     rx="2.8622999"
     ry="5.0430999"
     stroke="#222222"
     stroke-miterlimit="10"
     id="ellipse844" />
  <ellipse
     cx="38.6661"
     cy="83.90583"
     fill="none"
     rx="2.8622999"
     ry="5.0430999"
     stroke="#222222"
     stroke-miterlimit="10"
     id="ellipse846" />
  <ellipse
     cx="42.959599"
     cy="83.90583"
     fill="none"
     rx="2.8622999"
     ry="5.0430999"
     stroke="#222222"
     stroke-miterlimit="10"
     id="ellipse848" />
  <ellipse
     cx="47.253101"
     cy="83.90583"
     fill="none"
     rx="2.8622999"
     ry="5.0430999"
     stroke="#222222"
     stroke-miterlimit="10"
     id="ellipse850" />
  <ellipse
     cx="51.546501"
     cy="83.90583"
     fill="none"
     rx="2.8622999"
     ry="5.0430999"
     stroke="#222222"
     stroke-miterlimit="10"
     id="ellipse852" />
  <ellipse
     cx="55.84"
     cy="83.90583"
     fill="none"
     rx="2.8622999"
     ry="5.0430999"
     stroke="#222222"
     stroke-miterlimit="10"
     id="ellipse854" />
  <ellipse
     cx="60.133499"
     cy="83.90583"
     fill="none"
     rx="2.8622999"
     ry="5.0430999"
     stroke="#222222"
     stroke-miterlimit="10"
     id="ellipse856" />
  <ellipse
     cx="64.426903"
     cy="83.90583"
     fill="none"
     rx="2.8622999"
     ry="5.0430999"
     stroke="#222222"
     stroke-miterlimit="10"
     id="ellipse858" />
  <ellipse
     cx="68.720398"
     cy="83.90583"
     fill="none"
     rx="2.8622999"
     ry="5.0430999"
     stroke="#222222"
     stroke-miterlimit="10"
     id="ellipse860" />
  <ellipse
     cx="73.013901"
     cy="83.90583"
     fill="none"
     rx="2.8622999"
     ry="5.0430999"
     stroke="#222222"
     stroke-miterlimit="10"
     id="ellipse862" />
  <path
     d="m 75.16,87.240329 c 0.5245,1.0477 1.2921,1.7086 2.1474,1.7086 1.5808,0 2.8623,-2.2579 2.8623,-5.0431 0,-2.7852 -1.2815,-5.0431 -2.8623,-5.0431 -1.5808,0 -2.8623,2.2579 -2.8623,5.0431 h 10.2566"
     fill="none"
     stroke="#222222"
     stroke-miterlimit="10"
     id="path864" />
  <path
     d="m 6.2265,127.01833 h 10.6996 v 66.5744 H 6.2265 Z"
     fill="#b36429"
     id="path866"
     style="fill:#000000;fill-opacity:1" />
  <path
     d="m 158.4025,154.21883 h 39.3739 v 39.3739 h -39.3739 z"
     fill="#767676"
     id="path868"
     style="fill:#555555;fill-opacity:1" />
  <ellipse
     cx="44.382099"
     cy="173.90573"
     fill="none"
     rx="5.9748998"
     ry="5.0430999"
     stroke="#222222"
     stroke-miterlimit="10"
     id="ellipse870" />
  <path
     d="m 40.5085,177.74133 c -1.0439,0.7529 -2.3988,1.2076 -3.8795,1.2076 -3.2998,0 -5.9749,-2.2579 -5.9749,-5.0431 h -13.728"
     fill="none"
     stroke="#222222"
     stroke-miterlimit="10"
     id="path872" />
  <ellipse
     cx="53.344398"
     cy="173.90573"
     fill="none"
     rx="5.9748998"
     ry="5.0430999"
     stroke="#222222"
     stroke-miterlimit="10"
     id="ellipse874" />
  <ellipse
     cx="62.306702"
     cy="173.90573"
     fill="none"
     rx="5.9748998"
     ry="5.0430999"
     stroke="#222222"
     stroke-miterlimit="10"
     id="ellipse876" />
  <ellipse
     cx="71.268997"
     cy="173.90573"
     fill="none"
     rx="5.9748998"
     ry="5.0430999"
     stroke="#222222"
     stroke-miterlimit="10"
     id="ellipse878" />
  <ellipse
     cx="80.2313"
     cy="173.90573"
     fill="none"
     rx="5.9748998"
     ry="5.0430999"
     stroke="#222222"
     stroke-miterlimit="10"
     id="ellipse880" />
  <ellipse
     cx="89.193604"
     cy="173.90573"
     fill="none"
     rx="5.9748998"
     ry="5.0430999"
     stroke="#222222"
     stroke-miterlimit="10"
     id="ellipse882" />
  <ellipse
     cx="98.155899"
     cy="173.90573"
     fill="none"
     rx="5.9748998"
     ry="5.0430999"
     stroke="#222222"
     stroke-miterlimit="10"
     id="ellipse884" />
  <ellipse
     cx="107.1182"
     cy="173.90573"
     fill="none"
     rx="5.9748998"
     ry="5.0430999"
     stroke="#222222"
     stroke-miterlimit="10"
     id="ellipse886" />
  <ellipse
     cx="116.0805"
     cy="173.90573"
     fill="none"
     rx="5.9748998"
     ry="5.0430999"
     stroke="#222222"
     stroke-miterlimit="10"
     id="ellipse888" />
  <ellipse
     cx="125.0428"
     cy="173.90573"
     fill="none"
     rx="5.9748998"
     ry="5.0430999"
     stroke="#222222"
     stroke-miterlimit="10"
     id="ellipse890" />
  <ellipse
     cx="134.0051"
     cy="173.90573"
     fill="none"
     rx="5.9748998"
     ry="5.0430999"
     stroke="#222222"
     stroke-miterlimit="10"
     id="ellipse892" />
  <path
     d="m 138.4849,177.24033 c 1.0948,1.0477 2.6972,1.7086 4.4825,1.7086 3.2998,0 5.9749,-2.2579 5.9749,-5.0431 0,-2.7852 -2.675,-5.0431 -5.9749,-5.0431 -3.2998,0 -5.9749,2.2579 -5.9749,5.0431 h 21.4099"
     fill="none"
     stroke="#222222"
     stroke-miterlimit="10"
     id="path894" />
  <path
     d="m 6.2265,217.01833 h 10.6996 v 66.5744 H 6.2265 Z"
     fill="#b36429"
     id="path896"
     style="fill:#000000;fill-opacity:1" />
  <path
     d="m 124.3867,244.21883 h 39.3739 v 39.3739 h -39.3739 z"
     fill="#767676"
     id="path898"
     style="fill:#555555;fill-opacity:1" />
  <ellipse
     cx="37.9081"
     cy="263.90573"
     fill="none"
     rx="4.566"
     ry="5.0430999"
     stroke="#222222"
     stroke-miterlimit="10"
     id="ellipse900" />
  <path
     d="m 34.9479,267.74133 c -0.7977,0.7529 -1.8332,1.2076 -2.9647,1.2076 -2.5217,0 -4.566,-2.2579 -4.566,-5.0431 h -10.491"
     fill="none"
     stroke="#222222"
     stroke-miterlimit="10"
     id="path902" />
  <ellipse
     cx="44.757099"
     cy="263.90573"
     fill="none"
     rx="4.566"
     ry="5.0430999"
     stroke="#222222"
     stroke-miterlimit="10"
     id="ellipse904" />
  <ellipse
     cx="51.606098"
     cy="263.90573"
     fill="none"
     rx="4.566"
     ry="5.0430999"
     stroke="#222222"
     stroke-miterlimit="10"
     id="ellipse906" />
  <ellipse
     cx="58.455101"
     cy="263.90573"
     fill="none"
     rx="4.566"
     ry="5.0430999"
     stroke="#222222"
     stroke-miterlimit="10"
     id="ellipse908" />
  <ellipse
     cx="65.3041"
     cy="263.90573"
     fill="none"
     rx="4.566"
     ry="5.0430999"
     stroke="#222222"
     stroke-miterlimit="10"
     id="ellipse910" />
  <ellipse
     cx="72.153099"
     cy="263.90573"
     fill="none"
     rx="4.566"
     ry="5.0430999"
     stroke="#222222"
     stroke-miterlimit="10"
     id="ellipse912" />
  <ellipse
     cx="79.002197"
     cy="263.90573"
     fill="none"
     rx="4.566"
     ry="5.0430999"
     stroke="#222222"
     stroke-miterlimit="10"
     id="ellipse914" />
  <ellipse
     cx="85.851196"
     cy="263.90573"
     fill="none"
     rx="4.566"
     ry="5.0430999"
     stroke="#222222"
     stroke-miterlimit="10"
     id="ellipse916" />
  <ellipse
     cx="92.700203"
     cy="263.90573"
     fill="none"
     rx="4.566"
     ry="5.0430999"
     stroke="#222222"
     stroke-miterlimit="10"
     id="ellipse918" />
  <ellipse
     cx="99.549202"
     cy="263.90573"
     fill="none"
     rx="4.566"
     ry="5.0430999"
     stroke="#222222"
     stroke-miterlimit="10"
     id="ellipse920" />
  <ellipse
     cx="106.3982"
     cy="263.90573"
     fill="none"
     rx="4.566"
     ry="5.0430999"
     stroke="#222222"
     stroke-miterlimit="10"
     id="ellipse922" />
  <path
     d="m 109.8217,267.24033 c 0.8367,1.0477 2.0612,1.7086 3.4255,1.7086 2.5217,0 4.566,-2.2579 4.566,-5.0431 0,-2.7852 -2.0443,-5.0431 -4.566,-5.0431 -2.5217,0 -4.566,2.2579 -4.566,5.0431 h 16.3615"
     fill="none"
     stroke="#222222"
     stroke-miterlimit="10"
     id="path924" />
  <path
     d="M 0,103.59273 H 205.5"
     fill="none"
     stroke="#222222"
     stroke-miterlimit="10"
     id="path926" />
  <path
     d="M 0,193.59273 H 205.5"
     fill="none"
     stroke="#222222"
     stroke-miterlimit="10"
     id="path928" />
  <path
     d="M 0,283.59273 H 205.5"
     fill="none"
     stroke="#222222"
     stroke-miterlimit="10"
     id="path930" />
  <path
     d="M 178.0894,237.64293 H 111.5648"
     fill="none"
     stroke="#222222"
     stroke-miterlimit="10"
     id="path932" />
  <path
     d="m 113.0238,232.65663 -8.6352,4.9863 8.6352,4.9863 z"
     fill="#222222"
     id="path934" />
  <path
     d="m 104.3886,147.14293 h 66.5245"
     fill="none"
     stroke="#222222"
     stroke-miterlimit="10"
     id="path936" />
  <path
     d="m 169.4542,152.12923 8.6352,-4.9863 -8.6352,-4.9863 z"
     id="path938"
     style="fill:#222222" />
  <path
     d="M -8,-0.35707086 H 234 V 314.14293 H -8 Z"
     fill="none"
     id="path1032" />
  <g
     aria-label="posición de
equilibrio"
     id="text1926"
     style="font-size:16px;line-height:1">
    <path
       d="m 70.300347,15.824 q -0.08,0 -0.208,-0.032 -0.128,-0.016 -0.128,-0.112 0,-0.128 0.112,-0.192 0.128,-0.048 0.256,-0.096 0.24,-0.08 0.464,-0.192 0.224,-0.096 0.224,-0.416 V 6.6719999 q 0,-0.128 -0.08,-0.384 -0.064,-0.256 -0.224,-0.496 -0.16,-0.24 -0.432,-0.288 -0.064,-0.016 -0.096,-0.08 -0.032,-0.064 -0.032,-0.128 0,-0.08 0.032,-0.128 0.032,-0.048 0.08,-0.064 0.608,-0.144 1.04,-0.304 0.432,-0.176 0.816,-0.336 0.016,0 0.016,0 0,-0.016 0.016,-0.016 0.032,0 0.064,0.048 0.032,0.048 0.032,0.096 0,0.144 -0.048,0.464 -0.032,0.304 -0.032,0.496 0,0.128 0.016,0.144 0.16,-0.16 0.576,-0.4 0.432,-0.256 0.976,-0.448 0.544,-0.208 1.04,-0.208 0.832,0 1.408,0.448 0.592,0.432 0.896,1.136 0.32,0.688 0.32,1.44 0,0.72 -0.272,1.408 -0.272,0.672 -0.768,1.2160001 -0.496,0.544 -1.152,0.88 -0.656,0.32 -1.408,0.32 -0.224,0 -0.544,-0.08 -0.304,-0.064 -0.608,-0.176 -0.288,-0.112 -0.448,-0.256 -0.016,0 -0.032,0.192 -0.016,0.176 -0.032,0.368 0,0.208 0,0.256 v 2.992 q 0,0.208 0.16,0.32 0.176,0.128 0.384,0.176 0.224,0.064 0.384,0.112 0.128,0.048 0.24,0.096 0.128,0.064 0.128,0.192 0,0.096 -0.128,0.112 -0.128,0.032 -0.224,0.032 -0.464,0 -0.784,-0.048 -0.304,-0.032 -0.72,-0.032 -0.272,0 -0.448,0.016 -0.16,0.016 -0.336,0.032 -0.176,0.032 -0.496,0.032 z m 3.744,-4.832 q 0.24,0 0.576,-0.144 0.352,-0.144 0.688,-0.464 0.352,-0.32 0.576,-0.8640001 0.24,-0.544 0.24,-1.344 0,-0.928 -0.24,-1.488 -0.24,-0.56 -0.592,-0.848 -0.352,-0.288 -0.72,-0.384 -0.368,-0.096 -0.624,-0.096 -0.384,0 -0.8,0.16 -0.4,0.16 -0.688,0.368 -0.272,0.192 -0.272,0.304 0,0.352 -0.016,0.72 0,0.352 -0.016,0.688 0,0.336 -0.016,0.608 0,0.256 0,0.4 0,0.64 0.288,1.184 0.304,0.5440001 0.736,0.8800001 0.448,0.32 0.88,0.32 z"
       style="font-family:'EB Garamond';-inkscape-font-specification:'EB Garamond';text-align:center;text-anchor:middle"
       id="path158" />
    <path
       d="m 81.716847,11.488 q -0.896,0 -1.616,-0.416 -0.72,-0.416 -1.152,-1.1360001 -0.416,-0.736 -0.416,-1.664 0,-0.672 0.256,-1.312 0.272,-0.64 0.752,-1.168 0.48,-0.528 1.12,-0.832 0.64,-0.32 1.376,-0.32 0.928,0 1.664,0.448 0.752,0.448 1.184,1.184 0.448,0.72 0.448,1.584 0,0.928 -0.416,1.76 -0.4,0.8320001 -1.2,1.3600001 -0.8,0.512 -2,0.512 z m 0.336,-0.48 q 0.544,0 0.976,-0.208 0.432,-0.208 0.672,-0.672 0.192,-0.3680001 0.256,-0.8960001 0.064,-0.528 0.064,-0.992 0,-0.768 -0.288,-1.472 -0.272,-0.72 -0.784,-1.168 -0.496,-0.464 -1.184,-0.464 -0.432,0 -0.784,0.144 -0.336,0.128 -0.624,0.496 -0.32,0.4 -0.416,0.976 -0.096,0.576 -0.096,1.152 0,0.784 0.288,1.504 0.288,0.7040001 0.784,1.1520001 0.496,0.448 1.136,0.448 z"
       style="font-family:'EB Garamond';-inkscape-font-specification:'EB Garamond';text-align:center;text-anchor:middle"
       id="path160" />
    <path
       d="m 88.183097,11.488 q -0.496,0 -0.928,-0.16 -0.432,-0.144 -0.736,-0.416 -0.08,-0.176 -0.128,-0.592 -0.032,-0.4160001 -0.048,-0.6880001 0,-0.144 0.208,-0.144 0.064,0 0.112,0.032 0.064,0.016 0.08,0.08 0.208,0.7840001 0.656,1.1200001 0.464,0.336 0.928,0.336 0.464,0 0.784,-0.304 0.336,-0.32 0.336,-0.7840001 0,-0.432 -0.288,-0.736 -0.288,-0.32 -1.008,-0.768 -0.544,-0.336 -0.88,-0.64 -0.336,-0.304 -0.496,-0.624 -0.144,-0.32 -0.144,-0.72 0,-0.512 0.24,-0.928 0.24,-0.416 0.72,-0.656 0.48,-0.256 1.2,-0.256 0.48,0 0.8,0.096 0.32,0.096 0.48,0.208 0.128,0.176 0.208,0.56 0.096,0.368 0.096,0.704 0,0.112 -0.16,0.112 -0.096,0 -0.192,-0.032 -0.08,-0.048 -0.112,-0.112 -0.208,-0.528 -0.528,-0.8 -0.304,-0.288 -0.768,-0.288 -0.4,0 -0.72,0.24 -0.304,0.24 -0.304,0.704 0,0.368 0.224,0.656 0.24,0.288 0.88,0.656 0.928,0.528 1.376,0.992 0.464,0.448 0.464,1.2 0,0.8640001 -0.656,1.4080001 -0.656,0.544 -1.696,0.544 z"
       style="font-family:'EB Garamond';-inkscape-font-specification:'EB Garamond';text-align:center;text-anchor:middle"
       id="path162" />
    <path
       d="m 91.739347,11.312 q -0.144,0 -0.24,-0.048 -0.08,-0.032 -0.08,-0.128 0,-0.128 0.112,-0.176 0.128,-0.048 0.256,-0.08 0.336,-0.08 0.512,-0.192 0.176,-0.128 0.176,-0.416 V 6.7999999 q 0,-0.432 -0.16,-0.768 -0.144,-0.336 -0.56,-0.4 -0.08,-0.016 -0.128,-0.064 -0.032,-0.048 -0.032,-0.144 0,-0.176 0.144,-0.192 0.64,-0.144 1.056,-0.384 0.416,-0.256 0.624,-0.416 0.144,-0.112 0.224,-0.112 0.096,0 0.096,0.08 0,0.128 -0.048,0.512 -0.032,0.368 -0.064,0.832 -0.032,0.448 -0.032,0.816 V 10.272 q 0,0.272 0.176,0.4 0.192,0.128 0.512,0.208 0.128,0.032 0.24,0.08 0.128,0.048 0.128,0.176 0,0.176 -0.32,0.176 -0.304,0 -0.496,-0.032 -0.176,-0.016 -0.352,-0.032 -0.16,-0.016 -0.448,-0.016 -0.272,0 -0.448,0.016 -0.176,0.016 -0.352,0.032 -0.176,0.032 -0.496,0.032 z m 1.28,-8.3040001 q -0.336,0 -0.576,-0.224 -0.224,-0.24 -0.224,-0.576 0,-0.352 0.224,-0.576 0.24,-0.24 0.576,-0.24 0.352,0 0.576,0.24 0.24,0.224 0.24,0.576 0,0.336 -0.24,0.576 -0.224,0.224 -0.576,0.224 z"
       style="font-family:'EB Garamond';-inkscape-font-specification:'EB Garamond';text-align:center;text-anchor:middle"
       id="path164" />
    <path
       d="m 98.349597,11.504 q -0.8,0 -1.456,-0.4 -0.64,-0.416 -1.024,-1.1200001 -0.368,-0.72 -0.368,-1.6 0,-1.04 0.448,-1.888 0.464,-0.848 1.232,-1.344 0.768,-0.512 1.696,-0.512 1.04,0 1.824003,0.56 0.192,0.144 0.192,0.304 0,0.128 -0.112,0.288 -0.112,0.16 -0.272,0.272 -0.16,0.096 -0.304,0.096 -0.08,0 -0.16,-0.048 -0.08,-0.064 -0.176003,-0.128 -0.352,-0.272 -0.784,-0.512 -0.432,-0.24 -0.72,-0.24 -0.784,0 -1.28,0.736 -0.48,0.72 -0.48,1.904 0,0.752 0.32,1.36 0.336,0.608 0.88,0.9600001 0.56,0.352 1.232,0.352 0.464,0 0.8,-0.144 0.336003,-0.16 0.720003,-0.5440001 0.032,-0.032 0.08,-0.048 0.048,-0.032 0.08,-0.032 0.176,0 0.176,0.224 0,0.096 -0.064,0.2240001 -0.048,0.112 -0.176,0.272 -0.256,0.32 -0.608,0.56 -0.352003,0.224 -0.784003,0.336 -0.416,0.112 -0.912,0.112 z"
       style="font-family:'EB Garamond';-inkscape-font-specification:'EB Garamond';text-align:center;text-anchor:middle"
       id="path166" />
    <path
       d="m 102.1456,11.312 q -0.144,0 -0.24,-0.048 -0.08,-0.032 -0.08,-0.128 0,-0.128 0.112,-0.176 0.128,-0.048 0.256,-0.08 0.336,-0.08 0.512,-0.192 0.176,-0.128 0.176,-0.416 V 6.7999999 q 0,-0.432 -0.16,-0.768 -0.144,-0.336 -0.56,-0.4 -0.08,-0.016 -0.128,-0.064 -0.032,-0.048 -0.032,-0.144 0,-0.176 0.144,-0.192 0.64,-0.144 1.056,-0.384 0.416,-0.256 0.624,-0.416 0.144,-0.112 0.224,-0.112 0.096,0 0.096,0.08 0,0.128 -0.048,0.512 -0.032,0.368 -0.064,0.832 -0.032,0.448 -0.032,0.816 V 10.272 q 0,0.272 0.176,0.4 0.192,0.128 0.512,0.208 0.128,0.032 0.24,0.08 0.128,0.048 0.128,0.176 0,0.176 -0.32,0.176 -0.304,0 -0.496,-0.032 -0.176,-0.016 -0.352,-0.032 -0.16,-0.016 -0.448,-0.016 -0.272,0 -0.448,0.016 -0.176,0.016 -0.352,0.032 -0.176,0.032 -0.496,0.032 z m 1.28,-8.3040001 q -0.336,0 -0.576,-0.224 -0.224,-0.24 -0.224,-0.576 0,-0.352 0.224,-0.576 0.24,-0.24 0.576,-0.24 0.352,0 0.576,0.24 0.24,0.224 0.24,0.576 0,0.336 -0.24,0.576 -0.224,0.224 -0.576,0.224 z"
       style="font-family:'EB Garamond';-inkscape-font-specification:'EB Garamond';text-align:center;text-anchor:middle"
       id="path168" />
    <path
       d="m 109.09185,11.488 q -0.896,0 -1.616,-0.416 -0.72,-0.416 -1.152,-1.1360001 -0.416,-0.736 -0.416,-1.664 0,-0.672 0.256,-1.312 0.272,-0.64 0.752,-1.168 0.48,-0.528 1.12,-0.832 0.64,-0.32 1.376,-0.32 0.928,0 1.664,0.448 0.752,0.448 1.184,1.184 0.448,0.72 0.448,1.584 0,0.928 -0.416,1.76 -0.4,0.8320001 -1.2,1.3600001 -0.8,0.512 -2,0.512 z m 0.336,-0.48 q 0.544,0 0.976,-0.208 0.432,-0.208 0.672,-0.672 0.192,-0.3680001 0.256,-0.8960001 0.064,-0.528 0.064,-0.992 0,-0.768 -0.288,-1.472 -0.272,-0.72 -0.784,-1.168 -0.496,-0.464 -1.184,-0.464 -0.432,0 -0.784,0.144 -0.336,0.128 -0.624,0.496 -0.32,0.4 -0.416,0.976 -0.096,0.576 -0.096,1.152 0,0.784 0.288,1.504 0.288,0.7040001 0.784,1.1520001 0.496,0.448 1.136,0.448 z m -0.4,-7.0560001 q -0.128,0 -0.128,-0.144 0,-0.048 0.016,-0.112 0.016,-0.08 0.048,-0.176 0.112,-0.304 0.352,-0.768 0.256,-0.48 0.496,-0.928 0.256,-0.448 0.384,-0.656 0.08,-0.128 0.192,-0.20799996 0.128,-0.08 0.24,-0.08 0.304,0 0.544,0.08 0.24,0.08 0.24,0.25599996 0,0.096 -0.048,0.16 -0.032,0.064 -0.112,0.176 -0.192,0.272 -0.528,0.688 -0.32,0.4 -0.656,0.784 -0.336,0.384 -0.544,0.592 -0.336,0.336 -0.496,0.336 z"
       style="font-family:'EB Garamond';-inkscape-font-specification:'EB Garamond';text-align:center;text-anchor:middle"
       id="path170" />
    <path
       d="m 113.9581,11.312 q -0.144,0 -0.24,-0.048 -0.08,-0.032 -0.08,-0.128 0,-0.128 0.096,-0.16 0.096,-0.048 0.272,-0.096 0.24,-0.064 0.464,-0.176 0.224,-0.112 0.224,-0.432 V 6.8319999 q 0,-0.432 -0.096,-0.736 -0.08,-0.304 -0.496,-0.416 -0.064,-0.032 -0.112,-0.064 -0.048,-0.048 -0.048,-0.144 0,-0.176 0.144,-0.192 0.56,-0.144 0.912,-0.352 0.352,-0.208 0.688,-0.464 0.048,-0.032 0.08,-0.048 0.048,-0.032 0.096,-0.032 0.032,0 0.048,0.032 0.032,0.032 0.032,0.08 0,0.112 -0.048,0.464 -0.032,0.336 -0.032,0.56 0,0.064 0,0.128 0.016,0.048 0.032,0.064 0.56,-0.528 1.184,-0.8 0.64,-0.272 1.392,-0.272 0.784,0 1.296,0.64 0.512,0.64 0.512,1.584 V 10.272 q 0,0.32 0.224,0.432 0.224,0.096 0.464,0.176 0.128,0.048 0.24,0.112 0.128,0.048 0.128,0.176 0,0.096 -0.112,0.112 -0.112,0.032 -0.208,0.032 -0.32,0 -0.496,-0.032 -0.176,-0.016 -0.336,-0.032 -0.16,-0.016 -0.448,-0.016 -0.272,0 -0.448,0.016 -0.176,0.016 -0.368,0.032 -0.176,0.032 -0.496,0.032 -0.08,0 -0.208,-0.032 -0.112,-0.016 -0.112,-0.112 0,-0.128 0.112,-0.176 0.128,-0.064 0.256,-0.112 0.24,-0.08 0.464,-0.176 0.224,-0.112 0.224,-0.432 V 6.9119999 q 0,-0.704 -0.4,-1.088 -0.384,-0.4 -1.04,-0.416 -0.576,0 -1.008,0.192 -0.432,0.176 -0.768,0.448 -0.064,0.064 -0.096,0.176 -0.032,0.096 -0.032,0.192 V 10.272 q 0,0.32 0.224,0.432 0.224,0.112 0.464,0.176 0.368,0.096 0.368,0.256 0,0.096 -0.08,0.128 -0.08,0.048 -0.24,0.048 -0.32,0 -0.512,-0.032 -0.176,-0.016 -0.336,-0.032 -0.16,-0.016 -0.448,-0.016 -0.272,0 -0.448,0.016 -0.16,0.016 -0.352,0.032 -0.176,0.032 -0.496,0.032 z"
       style="font-family:'EB Garamond';-inkscape-font-specification:'EB Garamond';text-align:center;text-anchor:middle"
       id="path172" />
    <path
       d="m 130.5911,11.568 q -0.032,0 -0.112,-0.064 -0.064,-0.064 -0.064,-0.096 0,-0.16 0.032,-0.448 0.048,-0.304 0.048,-0.512 v -0.096 q -0.24,0.368 -0.768,0.752 -0.528,0.384 -1.328,0.384 -0.912,0 -1.584,-0.48 -0.656,-0.48 -1.024,-1.2320001 -0.352,-0.752 -0.352,-1.552 0,-0.928 0.432,-1.744 0.432,-0.816 1.232,-1.328 0.816,-0.512 1.936,-0.512 0.32,0 0.64,0.064 0.336,0.048 0.512,0.112 0.144,0.048 0.208,0.048 0.112,0 0.112,-0.384 v -2.272 q 0,-0.656 -0.208,-0.88 -0.208,-0.224 -0.592,-0.288 -0.144,-0.032 -0.144,-0.20799996 0,-0.144 0.128,-0.192 0.704,-0.176 1.104,-0.336 0.4,-0.16 0.624,-0.256 0.064,-0.032 0.112,-0.032 0.064,-0.01600000103516 0.096,-0.01600000103516 0.096,0 0.112,0.09600000103516 0,0.096 -0.032,0.336 -0.016,0.224 -0.048,0.67199996 -0.032,0.448 -0.032,1.168 v 7.232 q 0,0.5440001 0.08,0.8000001 0.08,0.24 0.256,0.24 0.08,0 0.272,-0.016 0.208,-0.016 0.416,-0.032 0.288,-0.016 0.288,0.144 0,0.112 -0.08,0.208 -0.064,0.08 -0.144,0.08 -0.448,0.064 -0.88,0.192 -0.432,0.112 -0.992,0.352 -0.128,0.064 -0.176,0.08 -0.032,0.016 -0.08,0.016 z m -1.616,-0.912 q 0.416,0 0.816,-0.208 0.4,-0.224 0.704,-0.5760001 l 0.016,-2.88 q 0,-0.432 -0.256,-0.848 -0.24,-0.416 -0.688,-0.672 -0.432,-0.272 -1.024,-0.272 -0.368,0 -0.832,0.224 -0.464,0.224 -0.8,0.8 -0.336,0.56 -0.336,1.632 0,0.912 0.272,1.472 0.272,0.544 0.656,0.8320001 0.4,0.288 0.8,0.4 0.416,0.096 0.672,0.096 z"
       style="font-family:'EB Garamond';-inkscape-font-specification:'EB Garamond';text-align:center;text-anchor:middle"
       id="path174" />
    <path
       d="m 136.38085,11.504 q -0.88,0 -1.536,-0.432 -0.656,-0.432 -1.024,-1.2160001 -0.368,-0.8 -0.368,-1.84 0,-0.928 0.416,-1.68 0.432,-0.768 1.136,-1.232 0.704,-0.464 1.536,-0.464 0.64,0 1.136,0.256 0.496,0.256 0.768,0.72 0.288,0.448 0.288,1.04 0,0.496 -0.48,0.496 h -3.376 q -0.224,0 -0.32,0.128 -0.08,0.112 -0.08,0.464 0,0.768 0.336,1.408 0.336,0.624 0.896,1.0080001 0.56,0.368 1.232,0.368 0.48,0 0.864,-0.176 0.4,-0.192 0.704,-0.5440001 0.064,-0.08 0.096,-0.096 0.032,-0.032 0.08,-0.032 0.128,0 0.128,0.16 0,0.3040001 -0.288,0.6720001 -0.24,0.304 -0.576,0.528 -0.336,0.224 -0.736,0.336 -0.4,0.128 -0.832,0.128 z m -1.472,-4.8480001 h 1.456 q 0.384,0 0.656,-0.016 0.272,-0.016 0.528,-0.064 0.08,-0.016 0.096,-0.096 0.032,-0.096 0.032,-0.256 0,-0.464 -0.416,-0.784 -0.4,-0.336 -0.96,-0.336 -0.368,0 -0.736,0.224 -0.368,0.208 -0.608,0.528 -0.24,0.32 -0.24,0.64 0,0.16 0.192,0.16 z"
       style="font-family:'EB Garamond';-inkscape-font-specification:'EB Garamond';text-align:center;text-anchor:middle"
       id="path176" />
    <path
       d="m 77.880847,27.754925 q -0.88,0 -1.536,-0.432 -0.656,-0.432 -1.024,-1.216 -0.368,-0.8 -0.368,-1.84 0,-0.928 0.416,-1.68 0.432,-0.768 1.136,-1.232 0.704,-0.464 1.536,-0.464 0.64,0 1.136,0.256 0.496,0.256 0.768,0.72 0.288,0.448 0.288,1.04 0,0.496 -0.48,0.496 h -3.376 q -0.224,0 -0.32,0.128 -0.08,0.112 -0.08,0.464 0,0.768 0.336,1.408 0.336,0.624 0.896,1.008 0.56,0.368 1.232,0.368 0.48,0 0.864,-0.176 0.4,-0.192 0.704,-0.544 0.064,-0.08 0.096,-0.096 0.032,-0.032 0.08,-0.032 0.128,0 0.128,0.16 0,0.304 -0.288,0.672 -0.24,0.304 -0.576,0.528 -0.336,0.224 -0.736,0.336 -0.4,0.128 -0.832,0.128 z m -1.472,-4.848 h 1.456 q 0.384,0 0.656,-0.016 0.272,-0.016 0.528,-0.064 0.08,-0.016 0.096,-0.096 0.032,-0.096 0.032,-0.256 0,-0.464 -0.416,-0.784 -0.4,-0.336 -0.96,-0.336 -0.368,0 -0.736,0.224 -0.368,0.208 -0.608,0.528 -0.24,0.32 -0.24,0.64 0,0.16 0.192,0.16 z"
       style="font-family:'EB Garamond';-inkscape-font-specification:'EB Garamond';text-align:center;text-anchor:middle"
       id="path178" />
    <path
       d="m 85.862597,32.074925 q -0.08,0 -0.208,-0.032 -0.112,-0.016 -0.112,-0.112 0,-0.128 0.112,-0.192 0.128,-0.048 0.256,-0.096 0.24,-0.08 0.464,-0.192 0.224,-0.096 0.224,-0.416 v -3.728 q 0,-0.272 -0.032,-0.368 -0.016,-0.112 -0.064,-0.112 -0.032,0 -0.08,0 -0.032,0 -0.064,0.032 -0.128,0.112 -0.448,0.336 -0.32,0.208 -0.736,0.368 -0.416,0.176 -0.848,0.176 -0.832,0 -1.568,-0.352 -0.72,-0.352 -1.184,-1.04 -0.448,-0.688 -0.448,-1.68 0,-1.136 0.496,-1.984 0.496,-0.848 1.392,-1.312 0.896,-0.48 2.064,-0.48 0.544,0 0.992,0.096 0.448,0.08 0.736,0.176 0.288,0.08 0.32,0.08 0.176,0 0.256,-0.112 0.08,-0.112 0.16,-0.288 0.016,-0.016 0.048,-0.032 0.032,-0.032 0.064,-0.032 0.08,0 0.16,0.048 0.096,0.048 0.096,0.112 0,0.16 -0.096,0.672 -0.096,0.496 -0.096,1.184 v 8.24 q 0,0.32 0.288,0.416 0.304,0.112 0.544,0.192 0.128,0.048 0.24,0.096 0.128,0.064 0.128,0.192 0,0.096 -0.112,0.112 -0.112,0.032 -0.208,0.032 -0.48,0 -0.752,-0.048 -0.256,-0.032 -0.688,-0.032 -0.272,0 -0.448,0.016 -0.16,0.016 -0.352,0.032 -0.176,0.032 -0.496,0.032 z m -0.944,-5.184 q 0.528,0 1.008,-0.208 0.48,-0.224 0.688,-0.448 0,-0.224 0,-0.672 0,-0.448 0,-0.96 0,-0.512 -0.016,-0.928 0,-0.416 0,-0.56 -0.016,-0.72 -0.576,-1.216 -0.544,-0.496 -1.344,-0.496 -0.576,0 -1.088,0.336 -0.512,0.32 -0.832,0.944 -0.32,0.624 -0.32,1.552 0,0.8 0.24,1.328 0.256,0.512 0.64,0.8 0.384,0.288 0.816,0.416 0.432,0.112 0.784,0.112 z"
       style="font-family:'EB Garamond';-inkscape-font-specification:'EB Garamond';text-align:center;text-anchor:middle"
       id="path180" />
    <path
       d="m 94.766347,27.818925 q -0.112,0 -0.112,-0.128 0,-0.16 0.032,-0.464 0.048,-0.32 0.048,-0.528 0,-0.032 0,-0.048 0,-0.032 0,-0.048 -0.624,0.608 -1.264,0.88 -0.624,0.256 -1.376,0.256 -0.512,0 -0.928,-0.224 -0.416,-0.208 -0.656,-0.624 -0.24,-0.432 -0.24,-1.056 v -3.248 q 0,-0.352 -0.16,-0.56 -0.16,-0.208 -0.528,-0.352 -0.08,-0.032 -0.144,-0.08 -0.064,-0.048 -0.064,-0.176 0,-0.144 0.064,-0.192 0.08,-0.048 0.176,-0.064 0.544,-0.032 0.832,-0.08 0.304,-0.064 0.752,-0.176 0.048,-0.016 0.064,-0.016 0.032,0 0.064,0 0.176,0 0.16,0.224 -0.048,0.368 -0.08,0.624 -0.016,0.24 -0.016,0.608 v 3.12 q 0,0.384 0.192,0.72 0.192,0.32 0.496,0.528 0.32,0.208 0.656,0.208 0.416,0 0.72,-0.048 0.32,-0.048 0.624,-0.272 0.176,-0.128 0.448,-0.416 0.272,-0.288 0.272,-0.784 v -2.928 q 0,-0.336 -0.208,-0.496 -0.192,-0.176 -0.448,-0.24 -0.256,-0.064 -0.416,-0.064 -0.144,0 -0.24,-0.048 -0.096,-0.064 -0.096,-0.224 0,-0.144 0.096,-0.192 0.112,-0.048 0.24,-0.048 0.496,-0.016 0.816,-0.032 0.336,-0.032 0.592,-0.08 0.272,-0.064 0.56,-0.144 0.032,-0.016 0.08,-0.016 0.048,-0.016 0.08,-0.016 0.208,0 0.208,0.176 0,0.016 -0.016,0.064 0,0.032 -0.016,0.08 -0.016,0.048 -0.048,0.272 -0.016,0.224 -0.048,0.464 -0.016,0.24 -0.016,0.368 v 3.696 q 0,0.432 0.08,0.624 0.096,0.176 0.208,0.176 0.128,0 0.368,-0.016 0.256,-0.032 0.368,-0.032 0.08,0 0.16,0.032 0.08,0.032 0.08,0.176 0,0.128 -0.064,0.176 -0.064,0.032 -0.16,0.048 -0.624,0.08 -1.072,0.24 -0.448,0.16 -0.8,0.304 -0.048,0.016 -0.144,0.048 -0.096,0.048 -0.176,0.048 z"
       style="font-family:'EB Garamond';-inkscape-font-specification:'EB Garamond';text-align:center;text-anchor:middle"
       id="path182" />
    <path
       d="m 98.051847,27.562925 q -0.144,0 -0.24,-0.048 -0.08,-0.032 -0.08,-0.128 0,-0.128 0.112,-0.176 0.128,-0.048 0.256,-0.08 0.336,-0.08 0.512,-0.192 0.176,-0.128 0.176,-0.416 v -3.472 q 0,-0.432 -0.16,-0.768 -0.144,-0.336 -0.56,-0.4 -0.08,-0.016 -0.128,-0.064 -0.032,-0.048 -0.032,-0.144 0,-0.176 0.144,-0.192 0.64,-0.144 1.056,-0.384 0.416,-0.256 0.624,-0.416 0.144,-0.112 0.224,-0.112 0.096,0 0.096,0.08 0,0.128 -0.048,0.512 -0.032,0.368 -0.064,0.832 -0.032,0.448 -0.032,0.816 v 3.712 q 0,0.272 0.176003,0.4 0.192,0.128 0.512,0.208 0.128,0.032 0.24,0.08 0.128,0.048 0.128,0.176 0,0.176 -0.32,0.176 -0.304,0 -0.496,-0.032 -0.176003,-0.016 -0.352003,-0.032 -0.16,-0.016 -0.448,-0.016 -0.272,0 -0.448,0.016 -0.176,0.016 -0.352,0.032 -0.176,0.032 -0.496,0.032 z m 1.28,-8.304 q -0.336,0 -0.576,-0.224 -0.224,-0.24 -0.224,-0.576 0,-0.352 0.224,-0.576 0.24,-0.24 0.576,-0.24 0.352,0 0.576,0.24 0.240003,0.224 0.240003,0.576 0,0.336 -0.240003,0.576 -0.224,0.224 -0.576,0.224 z"
       style="font-family:'EB Garamond';-inkscape-font-specification:'EB Garamond';text-align:center;text-anchor:middle"
       id="path184" />
    <path
       d="m 101.8781,27.562925 q -0.08,0 -0.208,-0.032 -0.112,-0.016 -0.112,-0.112 0,-0.128 0.112,-0.176 0.128,-0.064 0.256,-0.112 0.24,-0.08 0.464,-0.176 0.224,-0.112 0.224,-0.432 v -8.064 q 0,-0.464 -0.176,-0.768 -0.16,-0.32 -0.56,-0.4 -0.128,-0.032 -0.128,-0.208 0,-0.16 0.112,-0.192 0.416,-0.096 0.72,-0.192 0.304,-0.112 0.56,-0.224 0.272,-0.112 0.528,-0.208 0.064,-0.032 0.096,-0.032 0.032,0 0.048,0.048 0.032,0.032 0.032,0.064 0,0.144 -0.064,0.624 -0.048,0.464 -0.048,1.552 v 8 q 0,0.32 0.224,0.432 0.224,0.096 0.464,0.176 0.128,0.048 0.24,0.112 0.128,0.048 0.128,0.176 0,0.096 -0.128,0.112 -0.112,0.032 -0.192,0.032 -0.304,0 -0.496,-0.032 -0.176,-0.016 -0.352,-0.032 -0.16,-0.016 -0.448,-0.016 -0.272,0 -0.448,0.016 -0.176,0.016 -0.352,0.032 -0.176,0.032 -0.496,0.032 z"
       style="font-family:'EB Garamond';-inkscape-font-specification:'EB Garamond';text-align:center;text-anchor:middle"
       id="path186" />
    <path
       d="m 105.80185,27.562925 q -0.144,0 -0.24,-0.048 -0.08,-0.032 -0.08,-0.128 0,-0.128 0.112,-0.176 0.128,-0.048 0.256,-0.08 0.336,-0.08 0.512,-0.192 0.176,-0.128 0.176,-0.416 v -3.472 q 0,-0.432 -0.16,-0.768 -0.144,-0.336 -0.56,-0.4 -0.08,-0.016 -0.128,-0.064 -0.032,-0.048 -0.032,-0.144 0,-0.176 0.144,-0.192 0.64,-0.144 1.056,-0.384 0.416,-0.256 0.624,-0.416 0.144,-0.112 0.224,-0.112 0.096,0 0.096,0.08 0,0.128 -0.048,0.512 -0.032,0.368 -0.064,0.832 -0.032,0.448 -0.032,0.816 v 3.712 q 0,0.272 0.176,0.4 0.192,0.128 0.512,0.208 0.128,0.032 0.24,0.08 0.128,0.048 0.128,0.176 0,0.176 -0.32,0.176 -0.304,0 -0.496,-0.032 -0.176,-0.016 -0.352,-0.032 -0.16,-0.016 -0.448,-0.016 -0.272,0 -0.448,0.016 -0.176,0.016 -0.352,0.032 -0.176,0.032 -0.496,0.032 z m 1.28,-8.304 q -0.336,0 -0.576,-0.224 -0.224,-0.24 -0.224,-0.576 0,-0.352 0.224,-0.576 0.24,-0.24 0.576,-0.24 0.352,0 0.576,0.24 0.24,0.224 0.24,0.576 0,0.336 -0.24,0.576 -0.224,0.224 -0.576,0.224 z"
       style="font-family:'EB Garamond';-inkscape-font-specification:'EB Garamond';text-align:center;text-anchor:middle"
       id="path188" />
    <path
       d="m 113.1481,27.738925 q -0.352,0 -0.704,-0.064 -0.352,-0.064 -0.672,-0.144 -0.352,-0.096 -0.624,-0.176 -0.256,-0.08 -0.336,-0.08 -0.096,0 -0.192,0.064 -0.08,0.064 -0.16,0.144 -0.08,0.08 -0.144,0.08 -0.064,0 -0.144,-0.048 -0.08,-0.064 -0.08,-0.144 0,-0.144 0.048,-0.496 0.064,-0.352 0.064,-0.656 v -7.76 q 0,-0.416 -0.208,-0.72 -0.208,-0.304 -0.528,-0.448 -0.064,-0.032 -0.144,-0.08 -0.064,-0.064 -0.064,-0.16 0,-0.08 0.064,-0.112 0.064,-0.032 0.128,-0.048 0.208,-0.048 0.56,-0.176 0.368,-0.128 0.688,-0.256 0.32,-0.128 0.432,-0.176 0.096,-0.048 0.144,-0.048 0.032,0 0.064,0.032 0.032,0.032 0.032,0.08 0,0.064 -0.032,0.544 -0.016,0.464 -0.016,1.136 v 3.28 q 0,0.304 0.032,0.416 0.032,0.096 0.112,0.112 0.496,-0.416 1.152,-0.672 0.656,-0.272 1.184,-0.272 0.816,0 1.456,0.416 0.656,0.416 1.04,1.136 0.384,0.704 0.384,1.6 0,1.088 -0.448,1.936 -0.448,0.832 -1.248,1.296 -0.784,0.464 -1.84,0.464 z m 0.368,-0.496 q 0.608,0 1.04,-0.368 0.448,-0.384 0.688,-1.024 0.24,-0.656 0.24,-1.456 0,-0.624 -0.24,-1.28 -0.224,-0.656 -0.72,-1.104 -0.48,-0.448 -1.248,-0.448 -0.64,0 -1.12,0.208 -0.48,0.208 -0.832,0.528 v 3.104 q 0,0.56 0.304,0.976 0.32,0.416 0.816,0.64 0.512,0.224 1.072,0.224 z"
       style="font-family:'EB Garamond';-inkscape-font-specification:'EB Garamond';text-align:center;text-anchor:middle"
       id="path190" />
    <path
       d="m 118.0381,27.562925 q -0.16,0 -0.24,-0.048 -0.08,-0.032 -0.08,-0.128 0,-0.128 0.096,-0.16 0.096,-0.048 0.272,-0.096 0.304,-0.08 0.448,-0.224 0.16,-0.16 0.16,-0.384 v -3.44 q 0,-0.432 -0.128,-0.752 -0.128,-0.32 -0.528,-0.4 -0.064,-0.016 -0.112,-0.08 -0.048,-0.064 -0.048,-0.128 0,-0.16 0.144,-0.192 0.416,-0.128 0.864,-0.368 0.464,-0.256 0.72,-0.416 0.096,-0.064 0.144,-0.08 0.064,-0.032 0.096,-0.032 0.08,0 0.08,0.112 0,0.048 -0.016,0.24 0,0.192 -0.016,0.448 0,0.256 -0.016,0.512 0,0.032 0.032,0.032 0.256,-0.32 0.56,-0.56 0.32,-0.24 0.64,-0.384 0.336,-0.144 0.64,-0.144 0.336,0 0.544,0.144 0.224,0.144 0.224,0.368 0,0.16 -0.096,0.352 -0.08,0.192 -0.224,0.336 -0.144,0.144 -0.304,0.144 -0.096,0 -0.208,-0.032 -0.112,-0.048 -0.24,-0.112 -0.128,-0.048 -0.256,-0.096 -0.128,-0.048 -0.256,-0.048 -0.384,0 -0.752,0.272 -0.352,0.272 -0.352,1.072 v 3.232 q 0,0.208 0.224,0.352 0.224,0.128 0.624,0.256 0.176,0.048 0.272,0.096 0.096,0.048 0.096,0.16 0,0.176 -0.32,0.176 -0.48,0 -0.736,-0.048 -0.24,-0.032 -0.656,-0.032 -0.272,0 -0.448,0.016 -0.16,0.016 -0.352,0.032 -0.176,0.032 -0.496,0.032 z"
       style="font-family:'EB Garamond';-inkscape-font-specification:'EB Garamond';text-align:center;text-anchor:middle"
       id="path192" />
    <path
       d="m 123.30185,27.562925 q -0.144,0 -0.24,-0.048 -0.08,-0.032 -0.08,-0.128 0,-0.128 0.112,-0.176 0.128,-0.048 0.256,-0.08 0.336,-0.08 0.512,-0.192 0.176,-0.128 0.176,-0.416 v -3.472 q 0,-0.432 -0.16,-0.768 -0.144,-0.336 -0.56,-0.4 -0.08,-0.016 -0.128,-0.064 -0.032,-0.048 -0.032,-0.144 0,-0.176 0.144,-0.192 0.64,-0.144 1.056,-0.384 0.416,-0.256 0.624,-0.416 0.144,-0.112 0.224,-0.112 0.096,0 0.096,0.08 0,0.128 -0.048,0.512 -0.032,0.368 -0.064,0.832 -0.032,0.448 -0.032,0.816 v 3.712 q 0,0.272 0.176,0.4 0.192,0.128 0.512,0.208 0.128,0.032 0.24,0.08 0.128,0.048 0.128,0.176 0,0.176 -0.32,0.176 -0.304,0 -0.496,-0.032 -0.176,-0.016 -0.352,-0.032 -0.16,-0.016 -0.448,-0.016 -0.272,0 -0.448,0.016 -0.176,0.016 -0.352,0.032 -0.176,0.032 -0.496,0.032 z m 1.28,-8.304 q -0.336,0 -0.576,-0.224 -0.224,-0.24 -0.224,-0.576 0,-0.352 0.224,-0.576 0.24,-0.24 0.576,-0.24 0.352,0 0.576,0.24 0.24,0.224 0.24,0.576 0,0.336 -0.24,0.576 -0.224,0.224 -0.576,0.224 z"
       style="font-family:'EB Garamond';-inkscape-font-specification:'EB Garamond';text-align:center;text-anchor:middle"
       id="path194" />
    <path
       d="m 130.2481,27.738925 q -0.896,0 -1.616,-0.416 -0.72,-0.416 -1.152,-1.136 -0.416,-0.736 -0.416,-1.664 0,-0.672 0.256,-1.312 0.272,-0.64 0.752,-1.168 0.48,-0.528 1.12,-0.832 0.64,-0.32 1.376,-0.32 0.928,0 1.664,0.448 0.752,0.448 1.184,1.184 0.448,0.72 0.448,1.584 0,0.928 -0.416,1.76 -0.4,0.832 -1.2,1.36 -0.8,0.512 -2,0.512 z m 0.336,-0.48 q 0.544,0 0.976,-0.208 0.432,-0.208 0.672,-0.672 0.192,-0.368 0.256,-0.896 0.064,-0.528 0.064,-0.992 0,-0.768 -0.288,-1.472 -0.272,-0.72 -0.784,-1.168 -0.496,-0.464 -1.184,-0.464 -0.432,0 -0.784,0.144 -0.336,0.128 -0.624,0.496 -0.32,0.4 -0.416,0.976 -0.096,0.576 -0.096,1.152 0,0.784 0.288,1.504 0.288,0.704 0.784,1.152 0.496,0.448 1.136,0.448 z"
       style="font-family:'EB Garamond';-inkscape-font-specification:'EB Garamond';text-align:center;text-anchor:middle"
       id="path196" />
  </g>
  <g
     aria-label="desplazamiento"
     id="text1926-5"
     style="font-size:16px;line-height:1">
    <path
       d="m 114.0406,131.89343 q -0.032,0 -0.112,-0.064 -0.064,-0.064 -0.064,-0.096 0,-0.16 0.032,-0.448 0.048,-0.304 0.048,-0.512 v -0.096 q -0.24,0.368 -0.768,0.752 -0.528,0.384 -1.328,0.384 -0.912,0 -1.584,-0.48 -0.656,-0.48 -1.024,-1.232 -0.352,-0.752 -0.352,-1.552 0,-0.928 0.432,-1.744 0.432,-0.816 1.232,-1.328 0.816,-0.512 1.936,-0.512 0.32,0 0.64,0.064 0.336,0.048 0.512,0.112 0.144,0.048 0.208,0.048 0.112,0 0.112,-0.384 v -2.272 q 0,-0.656 -0.208,-0.88 -0.208,-0.224 -0.592,-0.288 -0.144,-0.032 -0.144,-0.208 0,-0.144 0.128,-0.192 0.704,-0.176 1.104,-0.336 0.4,-0.16 0.624,-0.256 0.064,-0.032 0.112,-0.032 0.064,-0.016 0.096,-0.016 0.096,0 0.112,0.096 0,0.096 -0.032,0.336 -0.016,0.224 -0.048,0.672 -0.032,0.448 -0.032,1.168 v 7.232 q 0,0.544 0.08,0.8 0.08,0.24 0.256,0.24 0.08,0 0.272,-0.016 0.208,-0.016 0.416,-0.032 0.288,-0.016 0.288,0.144 0,0.112 -0.08,0.208 -0.064,0.08 -0.144,0.08 -0.448,0.064 -0.88,0.192 -0.432,0.112 -0.992,0.352 -0.128,0.064 -0.176,0.08 -0.032,0.016 -0.08,0.016 z m -1.616,-0.912 q 0.416,0 0.816,-0.208 0.4,-0.224 0.704,-0.576 l 0.016,-2.88 q 0,-0.432 -0.256,-0.848 -0.24,-0.416 -0.688,-0.672 -0.432,-0.272 -1.024,-0.272 -0.368,0 -0.832,0.224 -0.464,0.224 -0.8,0.8 -0.336,0.56 -0.336,1.632 0,0.912 0.272,1.472 0.272,0.544 0.656,0.832 0.4,0.288 0.8,0.4 0.416,0.096 0.672,0.096 z"
       style="font-family:'EB Garamond';-inkscape-font-specification:'EB Garamond';text-align:center;text-anchor:middle"
       id="path199" />
    <path
       d="m 119.83035,131.82943 q -0.88,0 -1.536,-0.432 -0.656,-0.432 -1.024,-1.216 -0.368,-0.8 -0.368,-1.84 0,-0.928 0.416,-1.68 0.432,-0.768 1.136,-1.232 0.704,-0.464 1.536,-0.464 0.64,0 1.136,0.256 0.496,0.256 0.768,0.72 0.288,0.448 0.288,1.04 0,0.496 -0.48,0.496 h -3.376 q -0.224,0 -0.32,0.128 -0.08,0.112 -0.08,0.464 0,0.768 0.336,1.408 0.336,0.624 0.896,1.008 0.56,0.368 1.232,0.368 0.48,0 0.864,-0.176 0.4,-0.192 0.704,-0.544 0.064,-0.08 0.096,-0.096 0.032,-0.032 0.08,-0.032 0.128,0 0.128,0.16 0,0.304 -0.288,0.672 -0.24,0.304 -0.576,0.528 -0.336,0.224 -0.736,0.336 -0.4,0.128 -0.832,0.128 z m -1.472,-4.848 h 1.456 q 0.384,0 0.656,-0.016 0.272,-0.016 0.528,-0.064 0.08,-0.016 0.096,-0.096 0.032,-0.096 0.032,-0.256 0,-0.464 -0.416,-0.784 -0.4,-0.336 -0.96,-0.336 -0.368,0 -0.736,0.224 -0.368,0.208 -0.608,0.528 -0.24,0.32 -0.24,0.64 0,0.16 0.192,0.16 z"
       style="font-family:'EB Garamond';-inkscape-font-specification:'EB Garamond';text-align:center;text-anchor:middle"
       id="path201" />
    <path
       d="m 124.97635,131.81343 q -0.496,0 -0.928,-0.16 -0.432,-0.144 -0.736,-0.416 -0.08,-0.176 -0.128,-0.592 -0.032,-0.416 -0.048,-0.688 0,-0.144 0.208,-0.144 0.064,0 0.112,0.032 0.064,0.016 0.08,0.08 0.208,0.784 0.656,1.12 0.464,0.336 0.928,0.336 0.464,0 0.784,-0.304 0.336,-0.32 0.336,-0.784 0,-0.432 -0.288,-0.736 -0.288,-0.32 -1.008,-0.768 -0.544,-0.336 -0.88,-0.64 -0.336,-0.304 -0.496,-0.624 -0.144,-0.32 -0.144,-0.72 0,-0.512 0.24,-0.928 0.24,-0.416 0.72,-0.656 0.48,-0.256 1.2,-0.256 0.48,0 0.8,0.096 0.32,0.096 0.48,0.208 0.128,0.176 0.208,0.56 0.096,0.368 0.096,0.704 0,0.112 -0.16,0.112 -0.096,0 -0.192,-0.032 -0.08,-0.048 -0.112,-0.112 -0.208,-0.528 -0.528,-0.8 -0.304,-0.288 -0.768,-0.288 -0.4,0 -0.72,0.24 -0.304,0.24 -0.304,0.704 0,0.368 0.224,0.656 0.24,0.288 0.88,0.656 0.928,0.528 1.376,0.992 0.464,0.448 0.464,1.2 0,0.864 -0.656,1.408 -0.656,0.544 -1.696,0.544 z"
       style="font-family:'EB Garamond';-inkscape-font-specification:'EB Garamond';text-align:center;text-anchor:middle"
       id="path203" />
    <path
       d="m 128.4686,136.14943 q -0.08,0 -0.208,-0.032 -0.128,-0.016 -0.128,-0.112 0,-0.128 0.112,-0.192 0.128,-0.048 0.256,-0.096 0.24,-0.08 0.464,-0.192 0.224,-0.096 0.224,-0.416 v -8.112 q 0,-0.128 -0.08,-0.384 -0.064,-0.256 -0.224,-0.496 -0.16,-0.24 -0.432,-0.288 -0.064,-0.016 -0.096,-0.08 -0.032,-0.064 -0.032,-0.128 0,-0.08 0.032,-0.128 0.032,-0.048 0.08,-0.064 0.608,-0.144 1.04,-0.304 0.432,-0.176 0.816,-0.336 0.016,0 0.016,0 0,-0.016 0.016,-0.016 0.032,0 0.064,0.048 0.032,0.048 0.032,0.096 0,0.144 -0.048,0.464 -0.032,0.304 -0.032,0.496 0,0.128 0.016,0.144 0.16,-0.16 0.576,-0.4 0.432,-0.256 0.976,-0.448 0.544,-0.208 1.04,-0.208 0.832,0 1.408,0.448 0.592,0.432 0.896,1.136 0.32,0.688 0.32,1.44 0,0.72 -0.272,1.408 -0.272,0.672 -0.768,1.216 -0.496,0.544 -1.152,0.88 -0.656,0.32 -1.408,0.32 -0.224,0 -0.544,-0.08 -0.304,-0.064 -0.608,-0.176 -0.288,-0.112 -0.448,-0.256 -0.016,0 -0.032,0.192 -0.016,0.176 -0.032,0.368 0,0.208 0,0.256 v 2.992 q 0,0.208 0.16,0.32 0.176,0.128 0.384,0.176 0.224,0.064 0.384,0.112 0.128,0.048 0.24,0.096 0.128,0.064 0.128,0.192 0,0.096 -0.128,0.112 -0.128,0.032 -0.224,0.032 -0.464,0 -0.784,-0.048 -0.304,-0.032 -0.72,-0.032 -0.272,0 -0.448,0.016 -0.16,0.016 -0.336,0.032 -0.176,0.032 -0.496,0.032 z m 3.744,-4.832 q 0.24,0 0.576,-0.144 0.352,-0.144 0.688,-0.464 0.352,-0.32 0.576,-0.864 0.24,-0.544 0.24,-1.344 0,-0.928 -0.24,-1.488 -0.24,-0.56 -0.592,-0.848 -0.352,-0.288 -0.72,-0.384 -0.368,-0.096 -0.624,-0.096 -0.384,0 -0.8,0.16 -0.4,0.16 -0.688,0.368 -0.272,0.192 -0.272,0.304 0,0.352 -0.016,0.72 0,0.352 -0.016,0.688 0,0.336 -0.016,0.608 0,0.256 0,0.4 0,0.64 0.288,1.184 0.304,0.544 0.736,0.88 0.448,0.32 0.88,0.32 z"
       style="font-family:'EB Garamond';-inkscape-font-specification:'EB Garamond';text-align:center;text-anchor:middle"
       id="path205" />
    <path
       d="m 136.5151,131.63743 q -0.08,0 -0.208,-0.032 -0.112,-0.016 -0.112,-0.112 0,-0.128 0.112,-0.176 0.128,-0.064 0.256,-0.112 0.24,-0.08 0.464,-0.176 0.224,-0.112 0.224,-0.432 v -8.064 q 0,-0.464 -0.176,-0.768 -0.16,-0.32 -0.56,-0.4 -0.128,-0.032 -0.128,-0.208 0,-0.16 0.112,-0.192 0.416,-0.096 0.72,-0.192 0.304,-0.112 0.56,-0.224 0.272,-0.112 0.528,-0.208 0.064,-0.032 0.096,-0.032 0.032,0 0.048,0.048 0.032,0.032 0.032,0.064 0,0.144 -0.064,0.624 -0.048,0.464 -0.048,1.552 v 8 q 0,0.32 0.224,0.432 0.224,0.096 0.464,0.176 0.128,0.048 0.24,0.112 0.128,0.048 0.128,0.176 0,0.096 -0.128,0.112 -0.112,0.032 -0.192,0.032 -0.304,0 -0.496,-0.032 -0.176,-0.016 -0.352,-0.032 -0.16,-0.016 -0.448,-0.016 -0.272,0 -0.448,0.016 -0.176,0.016 -0.352,0.032 -0.176,0.032 -0.496,0.032 z"
       style="font-family:'EB Garamond';-inkscape-font-specification:'EB Garamond';text-align:center;text-anchor:middle"
       id="path207" />
    <path
       d="m 141.60685,131.81343 q -0.288,0 -0.592,-0.224 -0.288,-0.224 -0.496,-0.544 -0.192,-0.32 -0.192,-0.608 0,-0.512 0.272,-0.8 0.272,-0.288 0.864,-0.528 l 1.632,-0.672 q 0.32,-0.128 0.368,-0.224 0.064,-0.096 0.08,-0.416 l 0.032,-1.024 q 0.016,-0.416 -0.24,-0.72 -0.24,-0.304 -0.704,-0.304 -0.24,0 -0.48,0.08 -0.24,0.08 -0.4,0.208 -0.096,0.064 -0.128,0.192 -0.032,0.128 -0.032,0.272 0,0.064 0,0.144 0.016,0.08 0.016,0.144 0,0.08 -0.208,0.224 -0.192,0.128 -0.448,0.24 -0.24,0.096 -0.4,0.096 -0.08,0 -0.128,-0.032 -0.048,-0.048 -0.048,-0.112 0,-0.256 0.16,-0.544 0.176,-0.304 0.48,-0.56 0.368,-0.336 0.8,-0.592 0.432,-0.256 0.848,-0.4 0.416,-0.144 0.736,-0.144 0.576,0 0.944,0.416 0.384,0.4 0.368,1.008 l -0.08,3.84 q -0.016,0.336 0.144,0.544 0.176,0.208 0.432,0.208 0.4,0 0.592,-0.176 0.08,-0.08 0.128,-0.08 0.08,0 0.128,0.048 0.048,0.048 0.048,0.128 0,0.176 -0.176,0.352 -0.256,0.256 -0.56,0.4 -0.288,0.16 -0.544,0.16 -0.736,0 -1.168,-0.832 h -0.048 q -0.528,0.432 -1.008,0.624 -0.48,0.208 -0.992,0.208 z m 0.752,-0.768 q 0.32,0 0.544,-0.096 0.224,-0.112 0.4,-0.288 0.08,-0.08 0.128,-0.208 0.064,-0.144 0.08,-0.448 l 0.032,-0.784 q 0.016,-0.176 -0.016,-0.256 -0.032,-0.08 -0.128,-0.08 -0.032,0 -0.112,0.016 -0.08,0.016 -0.208,0.064 -0.848,0.304 -1.184,0.64 -0.32,0.32 -0.32,0.592 0,0.416 0.24,0.64 0.256,0.208 0.544,0.208 z"
       style="font-family:'EB Garamond';-inkscape-font-specification:'EB Garamond';text-align:center;text-anchor:middle"
       id="path209" />
    <path
       d="m 146.42135,131.66943 q -0.064,0 -0.144,-0.096 -0.08,-0.112 -0.08,-0.176 0,-0.048 0.096,-0.208 0.112,-0.16 0.24,-0.368 0.144,-0.208 0.256,-0.352 0.4,-0.576 0.768,-1.104 0.368,-0.544 0.72,-1.072 0.368,-0.544 0.752,-1.136 0.384,-0.608 0.816,-1.296 0.032,-0.048 0.032,-0.096 0,-0.064 -0.176,-0.064 l -1.584,-0.048 q -0.224,-0.016 -0.416,0.096 -0.192,0.112 -0.288,0.208 -0.096,0.096 -0.192,0.208 -0.08,0.112 -0.176,0.24 -0.08,0.128 -0.176,0.256 -0.08,0.112 -0.16,0.224 -0.096,0.096 -0.256,0.032 -0.144,-0.064 -0.096,-0.192 0.048,-0.144 0.112,-0.416 0.08,-0.288 0.128,-0.592 0.064,-0.304 0.064,-0.496 0,-0.128 0.096,-0.208 0.096,-0.08 0.144,-0.08 0.064,0 0.24,0.144 0.08,0.064 0.272,0.08 0.208,0.016 0.416,0.016 0.176,0 0.336,0 0.16,-0.016 0.272,-0.016 0.832,0 1.536,-0.016 0.704,-0.016 1.44,-0.032 0.048,0 0.08,0.032 0.032,0.032 0.048,0.08 0.016,0.048 -0.016,0.08 -0.16,0.208 -0.304,0.384 -0.144,0.176 -0.304,0.416 l -3.12,4.72 q -0.064,0.112 -0.016,0.176 0.048,0.064 0.16,0.064 h 1.888 q 0.176,0 0.352,-0.096 0.192,-0.096 0.368,-0.272 0.192,-0.192 0.416,-0.496 0.224,-0.32 0.464,-0.672 0.08,-0.112 0.208,-0.064 0.144,0.048 0.144,0.176 0,0.048 -0.064,0.304 -0.064,0.24 -0.16,0.56 -0.08,0.304 -0.16,0.576 -0.064,0.272 -0.096,0.368 -0.048,0.224 -0.256,0.224 -0.352,0 -1.2,-0.048 -0.832,-0.032 -2.144,-0.032 -0.336,0 -0.704,0.032 -0.368,0.048 -0.576,0.048 z"
       style="font-family:'EB Garamond';-inkscape-font-specification:'EB Garamond';text-align:center;text-anchor:middle"
       id="path211" />
    <path
       d="m 153.7006,131.81343 q -0.288,0 -0.592,-0.224 -0.288,-0.224 -0.496,-0.544 -0.192,-0.32 -0.192,-0.608 0,-0.512 0.272,-0.8 0.272,-0.288 0.864,-0.528 l 1.632,-0.672 q 0.32,-0.128 0.368,-0.224 0.064,-0.096 0.08,-0.416 l 0.032,-1.024 q 0.016,-0.416 -0.24,-0.72 -0.24,-0.304 -0.704,-0.304 -0.24,0 -0.48,0.08 -0.24,0.08 -0.4,0.208 -0.096,0.064 -0.128,0.192 -0.032,0.128 -0.032,0.272 0,0.064 0,0.144 0.016,0.08 0.016,0.144 0,0.08 -0.208,0.224 -0.192,0.128 -0.448,0.24 -0.24,0.096 -0.4,0.096 -0.08,0 -0.128,-0.032 -0.048,-0.048 -0.048,-0.112 0,-0.256 0.16,-0.544 0.176,-0.304 0.48,-0.56 0.368,-0.336 0.8,-0.592 0.432,-0.256 0.848,-0.4 0.416,-0.144 0.736,-0.144 0.576,0 0.944,0.416 0.384,0.4 0.368,1.008 l -0.08,3.84 q -0.016,0.336 0.144,0.544 0.176,0.208 0.432,0.208 0.4,0 0.592,-0.176 0.08,-0.08 0.128,-0.08 0.08,0 0.128,0.048 0.048,0.048 0.048,0.128 0,0.176 -0.176,0.352 -0.256,0.256 -0.56,0.4 -0.288,0.16 -0.544,0.16 -0.736,0 -1.168,-0.832 h -0.048 q -0.528,0.432 -1.008,0.624 -0.48,0.208 -0.992,0.208 z m 0.752,-0.768 q 0.32,0 0.544,-0.096 0.224,-0.112 0.4,-0.288 0.08,-0.08 0.128,-0.208 0.064,-0.144 0.08,-0.448 l 0.032,-0.784 q 0.016,-0.176 -0.016,-0.256 -0.032,-0.08 -0.128,-0.08 -0.032,0 -0.112,0.016 -0.08,0.016 -0.208,0.064 -0.848,0.304 -1.184,0.64 -0.32,0.32 -0.32,0.592 0,0.416 0.24,0.64 0.256,0.208 0.544,0.208 z"
       style="font-family:'EB Garamond';-inkscape-font-specification:'EB Garamond';text-align:center;text-anchor:middle"
       id="path213" />
    <path
       d="m 158.9076,131.63743 q -0.128,0 -0.224,-0.032 -0.096,-0.032 -0.096,-0.144 0,-0.112 0.096,-0.16 0.112,-0.048 0.272,-0.096 0.224,-0.08 0.448,-0.176 0.24,-0.112 0.24,-0.432 v -3.44 q 0,-0.432 -0.096,-0.752 -0.096,-0.336 -0.512,-0.4 -0.064,-0.016 -0.112,-0.064 -0.032,-0.048 -0.032,-0.144 0,-0.16 0.128,-0.192 0.432,-0.112 0.688,-0.224 0.256,-0.128 0.448,-0.272 0.208,-0.16 0.496,-0.336 0.032,-0.016 0.064,-0.032 0.032,-0.032 0.08,-0.032 0.096,0 0.096,0.112 0,0.112 -0.048,0.464 -0.032,0.336 -0.032,0.56 0,0.16 0.032,0.192 h 0.032 q 0.368,-0.352 0.96,-0.704 0.608,-0.368 1.536,-0.368 0.576,0 0.96,0.256 0.384,0.24 0.64,0.848 h 0.048 q 0.512,-0.464 1.168,-0.784 0.656,-0.32 1.44,-0.32 0.528,0 0.88,0.32 0.352,0.32 0.528,0.832 0.192,0.512 0.192,1.072 v 3.408 q 0,0.32 0.224,0.432 0.224,0.096 0.464,0.176 0.16,0.048 0.256,0.096 0.112,0.048 0.112,0.16 0,0.096 -0.08,0.128 -0.064,0.048 -0.24,0.048 -0.32,0 -0.496,-0.032 -0.176,-0.016 -0.336,-0.032 -0.144,-0.016 -0.432,-0.016 -0.272,0 -0.448,0.016 -0.176,0.016 -0.368,0.032 -0.192,0.032 -0.512,0.032 -0.144,0 -0.24,-0.048 -0.08,-0.032 -0.08,-0.128 0,-0.128 0.096,-0.176 0.112,-0.048 0.272,-0.08 0.256,-0.064 0.464,-0.176 0.224,-0.112 0.224,-0.432 v -3.36 q 0,-0.384 -0.176,-0.72 -0.176,-0.352 -0.464,-0.576 -0.288,-0.224 -0.64,-0.224 -0.4,0 -0.752,0.096 -0.336,0.096 -0.64,0.336 -0.448,0.352 -0.448,1.152 v 3.296 q 0,0.32 0.24,0.432 0.24,0.112 0.48,0.176 0.16,0.032 0.256,0.096 0.112,0.048 0.112,0.16 0,0.096 -0.08,0.128 -0.08,0.048 -0.24,0.048 -0.32,0 -0.512,-0.032 -0.176,-0.016 -0.352,-0.032 -0.16,-0.016 -0.448,-0.016 -0.272,0 -0.448,0.016 -0.176,0.016 -0.368,0.032 -0.192,0.032 -0.512,0.032 -0.128,0 -0.224,-0.048 -0.096,-0.032 -0.096,-0.128 0,-0.128 0.112,-0.16 0.128,-0.048 0.256,-0.096 0.24,-0.08 0.464,-0.176 0.24,-0.112 0.24,-0.432 v -3.36 q 0,-0.384 -0.176,-0.72 -0.176,-0.352 -0.464,-0.576 -0.288,-0.224 -0.64,-0.224 -0.4,0 -0.752,0.096 -0.336,0.096 -0.64,0.336 -0.432,0.32 -0.432,1.152 v 3.296 q 0,0.32 0.224,0.432 0.224,0.096 0.464,0.176 0.128,0.048 0.24,0.096 0.128,0.032 0.128,0.16 0,0.096 -0.096,0.128 -0.08,0.048 -0.224,0.048 -0.32,0 -0.512,-0.032 -0.176,-0.016 -0.336,-0.032 -0.16,-0.016 -0.448,-0.016 -0.272,0 -0.448,0.016 -0.16,0.016 -0.352,0.032 -0.176,0.032 -0.496,0.032 z"
       style="font-family:'EB Garamond';-inkscape-font-specification:'EB Garamond';text-align:center;text-anchor:middle"
       id="path215" />
    <path
       d="m 171.3451,131.63743 q -0.144,0 -0.24,-0.048 -0.08,-0.032 -0.08,-0.128 0,-0.128 0.112,-0.176 0.128,-0.048 0.256,-0.08 0.336,-0.08 0.512,-0.192 0.176,-0.128 0.176,-0.416 v -3.472 q 0,-0.432 -0.16,-0.768 -0.144,-0.336 -0.56,-0.4 -0.08,-0.016 -0.128,-0.064 -0.032,-0.048 -0.032,-0.144 0,-0.176 0.144,-0.192 0.64,-0.144 1.056,-0.384 0.416,-0.256 0.624,-0.416 0.144,-0.112 0.224,-0.112 0.096,0 0.096,0.08 0,0.128 -0.048,0.512 -0.032,0.368 -0.064,0.832 -0.032,0.448 -0.032,0.816 v 3.712 q 0,0.272 0.176,0.4 0.192,0.128 0.512,0.208 0.128,0.032 0.24,0.08 0.128,0.048 0.128,0.176 0,0.176 -0.32,0.176 -0.304,0 -0.496,-0.032 -0.176,-0.016 -0.352,-0.032 -0.16,-0.016 -0.448,-0.016 -0.272,0 -0.448,0.016 -0.176,0.016 -0.352,0.032 -0.176,0.032 -0.496,0.032 z m 1.28,-8.304 q -0.336,0 -0.576,-0.224 -0.224,-0.24 -0.224,-0.576 0,-0.352 0.224,-0.576 0.24,-0.24 0.576,-0.24 0.352,0 0.576,0.24 0.24,0.224 0.24,0.576 0,0.336 -0.24,0.576 -0.224,0.224 -0.576,0.224 z"
       style="font-family:'EB Garamond';-inkscape-font-specification:'EB Garamond';text-align:center;text-anchor:middle"
       id="path217" />
    <path
       d="m 177.95535,131.82943 q -0.88,0 -1.536,-0.432 -0.656,-0.432 -1.024,-1.216 -0.368,-0.8 -0.368,-1.84 0,-0.928 0.416,-1.68 0.432,-0.768 1.136,-1.232 0.704,-0.464 1.536,-0.464 0.64,0 1.136,0.256 0.496,0.256 0.768,0.72 0.288,0.448 0.288,1.04 0,0.496 -0.48,0.496 h -3.376 q -0.224,0 -0.32,0.128 -0.08,0.112 -0.08,0.464 0,0.768 0.336,1.408 0.336,0.624 0.896,1.008 0.56,0.368 1.232,0.368 0.48,0 0.864,-0.176 0.4,-0.192 0.704,-0.544 0.064,-0.08 0.096,-0.096 0.032,-0.032 0.08,-0.032 0.128,0 0.128,0.16 0,0.304 -0.288,0.672 -0.24,0.304 -0.576,0.528 -0.336,0.224 -0.736,0.336 -0.4,0.128 -0.832,0.128 z m -1.472,-4.848 h 1.456 q 0.384,0 0.656,-0.016 0.272,-0.016 0.528,-0.064 0.08,-0.016 0.096,-0.096 0.032,-0.096 0.032,-0.256 0,-0.464 -0.416,-0.784 -0.4,-0.336 -0.96,-0.336 -0.368,0 -0.736,0.224 -0.368,0.208 -0.608,0.528 -0.24,0.32 -0.24,0.64 0,0.16 0.192,0.16 z"
       style="font-family:'EB Garamond';-inkscape-font-specification:'EB Garamond';text-align:center;text-anchor:middle"
       id="path219" />
    <path
       d="m 181.50135,131.63743 q -0.144,0 -0.24,-0.048 -0.08,-0.032 -0.08,-0.128 0,-0.128 0.096,-0.16 0.096,-0.048 0.272,-0.096 0.24,-0.064 0.464,-0.176 0.224,-0.112 0.224,-0.432 v -3.44 q 0,-0.432 -0.096,-0.736 -0.08,-0.304 -0.496,-0.416 -0.064,-0.032 -0.112,-0.064 -0.048,-0.048 -0.048,-0.144 0,-0.176 0.144,-0.192 0.56,-0.144 0.912,-0.352 0.352,-0.208 0.688,-0.464 0.048,-0.032 0.08,-0.048 0.048,-0.032 0.096,-0.032 0.032,0 0.048,0.032 0.032,0.032 0.032,0.08 0,0.112 -0.048,0.464 -0.032,0.336 -0.032,0.56 0,0.064 0,0.128 0.016,0.048 0.032,0.064 0.56,-0.528 1.184,-0.8 0.64,-0.272 1.392,-0.272 0.784,0 1.296,0.64 0.512,0.64 0.512,1.584 v 3.408 q 0,0.32 0.224,0.432 0.224,0.096 0.464,0.176 0.128,0.048 0.24,0.112 0.128,0.048 0.128,0.176 0,0.096 -0.112,0.112 -0.112,0.032 -0.208,0.032 -0.32,0 -0.496,-0.032 -0.176,-0.016 -0.336,-0.032 -0.16,-0.016 -0.448,-0.016 -0.272,0 -0.448,0.016 -0.176,0.016 -0.368,0.032 -0.176,0.032 -0.496,0.032 -0.08,0 -0.208,-0.032 -0.112,-0.016 -0.112,-0.112 0,-0.128 0.112,-0.176 0.128,-0.064 0.256,-0.112 0.24,-0.08 0.464,-0.176 0.224,-0.112 0.224,-0.432 v -3.36 q 0,-0.704 -0.4,-1.088 -0.384,-0.4 -1.04,-0.416 -0.576,0 -1.008,0.192 -0.432,0.176 -0.768,0.448 -0.064,0.064 -0.096,0.176 -0.032,0.096 -0.032,0.192 v 3.856 q 0,0.32 0.224,0.432 0.224,0.112 0.464,0.176 0.368,0.096 0.368,0.256 0,0.096 -0.08,0.128 -0.08,0.048 -0.24,0.048 -0.32,0 -0.512,-0.032 -0.176,-0.016 -0.336,-0.032 -0.16,-0.016 -0.448,-0.016 -0.272,0 -0.448,0.016 -0.16,0.016 -0.352,0.032 -0.176,0.032 -0.496,0.032 z"
       style="font-family:'EB Garamond';-inkscape-font-specification:'EB Garamond';text-align:center;text-anchor:middle"
       id="path221" />
    <path
       d="m 192.25885,131.81343 q -0.784,0 -1.232,-0.48 -0.432,-0.48 -0.432,-1.424 v -3.712 q 0,-0.128 -0.096,-0.176 -0.096,-0.064 -0.416,-0.064 h -0.096 q -0.08,0 -0.144,-0.096 -0.048,-0.112 -0.048,-0.224 0,-0.032 0.048,-0.096 0.048,-0.064 0.064,-0.08 0.32,-0.224 0.576,-0.448 0.272,-0.224 0.48,-0.432 0.224,-0.224 0.368,-0.4 0.08,-0.08 0.128,-0.128 0.064,-0.064 0.144,-0.064 0.08,0 0.144,0.032 0.08,0.032 0.064,0.144 l -0.08,0.72 q -0.016,0.176 0.08,0.24 0.096,0.064 0.304,0.064 h 1.824 q 0.064,0 0.112,0.112 0.048,0.096 0.048,0.24 0,0.144 -0.048,0.288 -0.048,0.128 -0.112,0.128 h -1.584 q -0.4,0 -0.528,0.064 -0.112,0.064 -0.112,0.384 v 3.152 q 0,0.64 0.272,1.008 0.272,0.368 0.784,0.368 0.464,0 0.72,-0.064 0.256,-0.08 0.464,-0.224 0.032,-0.032 0.064,-0.032 0.064,0 0.08,0.08 0.032,0.064 0.032,0.144 0,0.08 -0.272,0.32 -0.256,0.24 -0.688,0.448 -0.416,0.208 -0.912,0.208 z"
       style="font-family:'EB Garamond';-inkscape-font-specification:'EB Garamond';text-align:center;text-anchor:middle"
       id="path223" />
    <path
       d="m 198.0101,131.81343 q -0.896,0 -1.616,-0.416 -0.72,-0.416 -1.152,-1.136 -0.416,-0.736 -0.416,-1.664 0,-0.672 0.256,-1.312 0.272,-0.64 0.752,-1.168 0.48,-0.528 1.12,-0.832 0.64,-0.32 1.376,-0.32 0.928,0 1.664,0.448 0.752,0.448 1.184,1.184 0.448,0.72 0.448,1.584 0,0.928 -0.416,1.76 -0.4,0.832 -1.2,1.36 -0.8,0.512 -2,0.512 z m 0.336,-0.48 q 0.544,0 0.976,-0.208 0.432,-0.208 0.672,-0.672 0.192,-0.368 0.256,-0.896 0.064,-0.528 0.064,-0.992 0,-0.768 -0.288,-1.472 -0.272,-0.72 -0.784,-1.168 -0.496,-0.464 -1.184,-0.464 -0.432,0 -0.784,0.144 -0.336,0.128 -0.624,0.496 -0.32,0.4 -0.416,0.976 -0.096,0.576 -0.096,1.152 0,0.784 0.288,1.504 0.288,0.704 0.784,1.152 0.496,0.448 1.136,0.448 z"
       style="font-family:'EB Garamond';-inkscape-font-specification:'EB Garamond';text-align:center;text-anchor:middle"
       id="path225" />
  </g>
  <g
     aria-label="fuerza restauradora"
     id="text1926-5-6"
     style="font-size:16px;line-height:1">
    <path
       d="m 109.20859,228.30137 q -0.16,0 -0.24,-0.048 -0.08,-0.032 -0.08,-0.128 0,-0.128 0.096,-0.176 0.112,-0.048 0.272,-0.08 0.368,-0.08 0.528,-0.224 0.16,-0.16 0.16,-0.48 v -4.512 q -0.16,0 -0.368,0 -0.208,-0.016 -0.464,-0.032 -0.048,-0.016 -0.144,-0.112 -0.08,-0.096 -0.08,-0.176 0,-0.032 0.048,-0.048 0.048,-0.032 0.064,-0.048 0.288,-0.144 0.496,-0.256 0.208,-0.112 0.448,-0.224 0,-1.392 0.336,-2.32 0.352,-0.928 0.896,-1.472 0.544,-0.544 1.152,-0.768 0.608,-0.24 1.136,-0.24 0.896,0 1.328,0.272 0.432,0.272 0.432,0.688 0,0.32 -0.16,0.48 -0.16,0.16 -0.384,0.16 -0.144,0 -0.272,-0.112 -0.112,-0.112 -0.272,-0.256 -0.208,-0.208 -0.512,-0.384 -0.304,-0.192 -0.832,-0.192 -0.752,0 -1.248,0.656 -0.48,0.656 -0.48,2.016 v 1.408 q 0,0.096 0.048,0.128 0.064,0.032 0.128,0.032 h 2 q 0.08,0 0.144,0.048 0.064,0.048 0.064,0.128 0,0.112 -0.032,0.24 -0.016,0.128 -0.064,0.224 -0.048,0.128 -0.144,0.128 h -1.84 q -0.192,0 -0.256,0.064 -0.048,0.048 -0.048,0.144 v 4.336 q 0,0.32 0.208,0.48 0.208,0.144 0.848,0.224 0.368,0.048 0.368,0.256 0,0.096 -0.08,0.128 -0.08,0.048 -0.24,0.048 -0.48,0 -0.848,-0.048 -0.368,-0.032 -0.784,-0.032 -0.272,0 -0.448,0.016 -0.176,0.016 -0.368,0.032 -0.192,0.032 -0.512,0.032 z"
       style="font-family:'EB Garamond';-inkscape-font-specification:'EB Garamond';text-align:center;text-anchor:middle"
       id="path228" />
    <path
       d="m 119.45434,228.55737 q -0.112,0 -0.112,-0.128 0,-0.16 0.032,-0.464 0.048,-0.32 0.048,-0.528 0,-0.032 0,-0.048 0,-0.032 0,-0.048 -0.624,0.608 -1.264,0.88 -0.624,0.256 -1.376,0.256 -0.512,0 -0.928,-0.224 -0.416,-0.208 -0.656,-0.624 -0.24,-0.432 -0.24,-1.056 v -3.248 q 0,-0.352 -0.16,-0.56 -0.16,-0.208 -0.528,-0.352 -0.08,-0.032 -0.144,-0.08 -0.064,-0.048 -0.064,-0.176 0,-0.144 0.064,-0.192 0.08,-0.048 0.176,-0.064 0.544,-0.032 0.832,-0.08 0.304,-0.064 0.752,-0.176 0.048,-0.016 0.064,-0.016 0.032,0 0.064,0 0.176,0 0.16,0.224 -0.048,0.368 -0.08,0.624 -0.016,0.24 -0.016,0.608 v 3.12 q 0,0.384 0.192,0.72 0.192,0.32 0.496,0.528 0.32,0.208 0.656,0.208 0.416,0 0.72,-0.048 0.32,-0.048 0.624,-0.272 0.176,-0.128 0.448,-0.416 0.272,-0.288 0.272,-0.784 v -2.928 q 0,-0.336 -0.208,-0.496 -0.192,-0.176 -0.448,-0.24 -0.256,-0.064 -0.416,-0.064 -0.144,0 -0.24,-0.048 -0.096,-0.064 -0.096,-0.224 0,-0.144 0.096,-0.192 0.112,-0.048 0.24,-0.048 0.496,-0.016 0.816,-0.032 0.336,-0.032 0.592,-0.08 0.272,-0.064 0.56,-0.144 0.032,-0.016 0.08,-0.016 0.048,-0.016 0.08,-0.016 0.208,0 0.208,0.176 0,0.016 -0.016,0.064 0,0.032 -0.016,0.08 -0.016,0.048 -0.048,0.272 -0.016,0.224 -0.048,0.464 -0.016,0.24 -0.016,0.368 v 3.696 q 0,0.432 0.08,0.624 0.096,0.176 0.208,0.176 0.128,0 0.368,-0.016 0.256,-0.032 0.368,-0.032 0.08,0 0.16,0.032 0.08,0.032 0.08,0.176 0,0.128 -0.064,0.176 -0.064,0.032 -0.16,0.048 -0.624,0.08 -1.072,0.24 -0.448,0.16 -0.8,0.304 -0.048,0.016 -0.144,0.048 -0.096,0.048 -0.176,0.048 z"
       style="font-family:'EB Garamond';-inkscape-font-specification:'EB Garamond';text-align:center;text-anchor:middle"
       id="path230" />
    <path
       d="m 125.44384,228.49337 q -0.88,0 -1.536,-0.432 -0.656,-0.432 -1.024,-1.216 -0.368,-0.8 -0.368,-1.84 0,-0.928 0.416,-1.68 0.432,-0.768 1.136,-1.232 0.704,-0.464 1.536,-0.464 0.64,0 1.136,0.256 0.496,0.256 0.768,0.72 0.288,0.448 0.288,1.04 0,0.496 -0.48,0.496 h -3.376 q -0.224,0 -0.32,0.128 -0.08,0.112 -0.08,0.464 0,0.768 0.336,1.408 0.336,0.624 0.896,1.008 0.56,0.368 1.232,0.368 0.48,0 0.864,-0.176 0.4,-0.192 0.704,-0.544 0.064,-0.08 0.096,-0.096 0.032,-0.032 0.08,-0.032 0.128,0 0.128,0.16 0,0.304 -0.288,0.672 -0.24,0.304 -0.576,0.528 -0.336,0.224 -0.736,0.336 -0.4,0.128 -0.832,0.128 z m -1.472,-4.848 h 1.456 q 0.384,0 0.656,-0.016 0.272,-0.016 0.528,-0.064 0.08,-0.016 0.096,-0.096 0.032,-0.096 0.032,-0.256 0,-0.464 -0.416,-0.784 -0.4,-0.336 -0.96,-0.336 -0.368,0 -0.736,0.224 -0.368,0.208 -0.608,0.528 -0.24,0.32 -0.24,0.64 0,0.16 0.192,0.16 z"
       style="font-family:'EB Garamond';-inkscape-font-specification:'EB Garamond';text-align:center;text-anchor:middle"
       id="path232" />
    <path
       d="m 129.06984,228.30137 q -0.16,0 -0.24,-0.048 -0.08,-0.032 -0.08,-0.128 0,-0.128 0.096,-0.16 0.096,-0.048 0.272,-0.096 0.304,-0.08 0.448,-0.224 0.16,-0.16 0.16,-0.384 v -3.44 q 0,-0.432 -0.128,-0.752 -0.128,-0.32 -0.528,-0.4 -0.064,-0.016 -0.112,-0.08 -0.048,-0.064 -0.048,-0.128 0,-0.16 0.144,-0.192 0.416,-0.128 0.864,-0.368 0.464,-0.256 0.72,-0.416 0.096,-0.064 0.144,-0.08 0.064,-0.032 0.096,-0.032 0.08,0 0.08,0.112 0,0.048 -0.016,0.24 0,0.192 -0.016,0.448 0,0.256 -0.016,0.512 0,0.032 0.032,0.032 0.256,-0.32 0.56,-0.56 0.32,-0.24 0.64,-0.384 0.336,-0.144 0.64,-0.144 0.336,0 0.544,0.144 0.224,0.144 0.224,0.368 0,0.16 -0.096,0.352 -0.08,0.192 -0.224,0.336 -0.144,0.144 -0.304,0.144 -0.096,0 -0.208,-0.032 -0.112,-0.048 -0.24,-0.112 -0.128,-0.048 -0.256,-0.096 -0.128,-0.048 -0.256,-0.048 -0.384,0 -0.752,0.272 -0.352,0.272 -0.352,1.072 v 3.232 q 0,0.208 0.224,0.352 0.224,0.128 0.624,0.256 0.176,0.048 0.272,0.096 0.096,0.048 0.096,0.16 0,0.176 -0.32,0.176 -0.48,0 -0.736,-0.048 -0.24,-0.032 -0.656,-0.032 -0.272,0 -0.448,0.016 -0.16,0.016 -0.352,0.032 -0.176,0.032 -0.496,0.032 z"
       style="font-family:'EB Garamond';-inkscape-font-specification:'EB Garamond';text-align:center;text-anchor:middle"
       id="path234" />
    <path
       d="m 134.25359,228.33337 q -0.064,0 -0.144,-0.096 -0.08,-0.112 -0.08,-0.176 0,-0.048 0.096,-0.208 0.112,-0.16 0.24,-0.368 0.144,-0.208 0.256,-0.352 0.4,-0.576 0.768,-1.104 0.368,-0.544 0.72,-1.072 0.368,-0.544 0.752,-1.136 0.384,-0.608 0.816,-1.296 0.032,-0.048 0.032,-0.096 0,-0.064 -0.176,-0.064 l -1.584,-0.048 q -0.224,-0.016 -0.416,0.096 -0.192,0.112 -0.288,0.208 -0.096,0.096 -0.192,0.208 -0.08,0.112 -0.176,0.24 -0.08,0.128 -0.176,0.256 -0.08,0.112 -0.16,0.224 -0.096,0.096 -0.256,0.032 -0.144,-0.064 -0.096,-0.192 0.048,-0.144 0.112,-0.416 0.08,-0.288 0.128,-0.592 0.064,-0.304 0.064,-0.496 0,-0.128 0.096,-0.208 0.096,-0.08 0.144,-0.08 0.064,0 0.24,0.144 0.08,0.064 0.272,0.08 0.208,0.016 0.416,0.016 0.176,0 0.336,0 0.16,-0.016 0.272,-0.016 0.832,0 1.536,-0.016 0.704,-0.016 1.44,-0.032 0.048,0 0.08,0.032 0.032,0.032 0.048,0.08 0.016,0.048 -0.016,0.08 -0.16,0.208 -0.304,0.384 -0.144,0.176 -0.304,0.416 l -3.12,4.72 q -0.064,0.112 -0.016,0.176 0.048,0.064 0.16,0.064 h 1.888 q 0.176,0 0.352,-0.096 0.192,-0.096 0.368,-0.272 0.192,-0.192 0.416,-0.496 0.224,-0.32 0.464,-0.672 0.08,-0.112 0.208,-0.064 0.144,0.048 0.144,0.176 0,0.048 -0.064,0.304 -0.064,0.24 -0.16,0.56 -0.08,0.304 -0.16,0.576 -0.064,0.272 -0.096,0.368 -0.048,0.224 -0.256,0.224 -0.352,0 -1.2,-0.048 -0.832,-0.032 -2.144,-0.032 -0.336,0 -0.704,0.032 -0.368,0.048 -0.576,0.048 z"
       style="font-family:'EB Garamond';-inkscape-font-specification:'EB Garamond';text-align:center;text-anchor:middle"
       id="path236" />
    <path
       d="m 141.53284,228.47737 q -0.288,0 -0.592,-0.224 -0.288,-0.224 -0.496,-0.544 -0.192,-0.32 -0.192,-0.608 0,-0.512 0.272,-0.8 0.272,-0.288 0.864,-0.528 l 1.632,-0.672 q 0.32,-0.128 0.368,-0.224 0.064,-0.096 0.08,-0.416 l 0.032,-1.024 q 0.016,-0.416 -0.24,-0.72 -0.24,-0.304 -0.704,-0.304 -0.24,0 -0.48,0.08 -0.24,0.08 -0.4,0.208 -0.096,0.064 -0.128,0.192 -0.032,0.128 -0.032,0.272 0,0.064 0,0.144 0.016,0.08 0.016,0.144 0,0.08 -0.208,0.224 -0.192,0.128 -0.448,0.24 -0.24,0.096 -0.4,0.096 -0.08,0 -0.128,-0.032 -0.048,-0.048 -0.048,-0.112 0,-0.256 0.16,-0.544 0.176,-0.304 0.48,-0.56 0.368,-0.336 0.8,-0.592 0.432,-0.256 0.848,-0.4 0.416,-0.144 0.736,-0.144 0.576,0 0.944,0.416 0.384,0.4 0.368,1.008 l -0.08,3.84 q -0.016,0.336 0.144,0.544 0.176,0.208 0.432,0.208 0.4,0 0.592,-0.176 0.08,-0.08 0.128,-0.08 0.08,0 0.128,0.048 0.048,0.048 0.048,0.128 0,0.176 -0.176,0.352 -0.256,0.256 -0.56,0.4 -0.288,0.16 -0.544,0.16 -0.736,0 -1.168,-0.832 h -0.048 q -0.528,0.432 -1.008,0.624 -0.48,0.208 -0.992,0.208 z m 0.752,-0.768 q 0.32,0 0.544,-0.096 0.224,-0.112 0.4,-0.288 0.08,-0.08 0.128,-0.208 0.064,-0.144 0.08,-0.448 l 0.032,-0.784 q 0.016,-0.176 -0.016,-0.256 -0.032,-0.08 -0.128,-0.08 -0.032,0 -0.112,0.016 -0.08,0.016 -0.208,0.064 -0.848,0.304 -1.184,0.64 -0.32,0.32 -0.32,0.592 0,0.416 0.24,0.64 0.256,0.208 0.544,0.208 z"
       style="font-family:'EB Garamond';-inkscape-font-specification:'EB Garamond';text-align:center;text-anchor:middle"
       id="path238" />
    <path
       d="m 150.00734,228.30137 q -0.16,0 -0.24,-0.048 -0.08,-0.032 -0.08,-0.128 0,-0.128 0.096,-0.16 0.096,-0.048 0.272,-0.096 0.304,-0.08 0.448,-0.224 0.16,-0.16 0.16,-0.384 v -3.44 q 0,-0.432 -0.128,-0.752 -0.128,-0.32 -0.528,-0.4 -0.064,-0.016 -0.112,-0.08 -0.048,-0.064 -0.048,-0.128 0,-0.16 0.144,-0.192 0.416,-0.128 0.864,-0.368 0.464,-0.256 0.72,-0.416 0.096,-0.064 0.144,-0.08 0.064,-0.032 0.096,-0.032 0.08,0 0.08,0.112 0,0.048 -0.016,0.24 0,0.192 -0.016,0.448 0,0.256 -0.016,0.512 0,0.032 0.032,0.032 0.256,-0.32 0.56,-0.56 0.32,-0.24 0.64,-0.384 0.336,-0.144 0.64,-0.144 0.336,0 0.544,0.144 0.224,0.144 0.224,0.368 0,0.16 -0.096,0.352 -0.08,0.192 -0.224,0.336 -0.144,0.144 -0.304,0.144 -0.096,0 -0.208,-0.032 -0.112,-0.048 -0.24,-0.112 -0.128,-0.048 -0.256,-0.096 -0.128,-0.048 -0.256,-0.048 -0.384,0 -0.752,0.272 -0.352,0.272 -0.352,1.072 v 3.232 q 0,0.208 0.224,0.352 0.224,0.128 0.624,0.256 0.176,0.048 0.272,0.096 0.096,0.048 0.096,0.16 0,0.176 -0.32,0.176 -0.48,0 -0.736,-0.048 -0.24,-0.032 -0.656,-0.032 -0.272,0 -0.448,0.016 -0.16,0.016 -0.352,0.032 -0.176,0.032 -0.496,0.032 z"
       style="font-family:'EB Garamond';-inkscape-font-specification:'EB Garamond';text-align:center;text-anchor:middle"
       id="path240" />
    <path
       d="m 157.97509,228.49337 q -0.88,0 -1.536,-0.432 -0.656,-0.432 -1.024,-1.216 -0.368,-0.8 -0.368,-1.84 0,-0.928 0.416,-1.68 0.432,-0.768 1.136,-1.232 0.704,-0.464 1.536,-0.464 0.64,0 1.136,0.256 0.496,0.256 0.768,0.72 0.288,0.448 0.288,1.04 0,0.496 -0.48,0.496 h -3.376 q -0.224,0 -0.32,0.128 -0.08,0.112 -0.08,0.464 0,0.768 0.336,1.408 0.336,0.624 0.896,1.008 0.56,0.368 1.232,0.368 0.48,0 0.864,-0.176 0.4,-0.192 0.704,-0.544 0.064,-0.08 0.096,-0.096 0.032,-0.032 0.08,-0.032 0.128,0 0.128,0.16 0,0.304 -0.288,0.672 -0.24,0.304 -0.576,0.528 -0.336,0.224 -0.736,0.336 -0.4,0.128 -0.832,0.128 z m -1.472,-4.848 h 1.456 q 0.384,0 0.656,-0.016 0.272,-0.016 0.528,-0.064 0.08,-0.016 0.096,-0.096 0.032,-0.096 0.032,-0.256 0,-0.464 -0.416,-0.784 -0.4,-0.336 -0.96,-0.336 -0.368,0 -0.736,0.224 -0.368,0.208 -0.608,0.528 -0.24,0.32 -0.24,0.64 0,0.16 0.192,0.16 z"
       style="font-family:'EB Garamond';-inkscape-font-specification:'EB Garamond';text-align:center;text-anchor:middle"
       id="path242" />
    <path
       d="m 163.12109,228.47737 q -0.496,0 -0.928,-0.16 -0.432,-0.144 -0.736,-0.416 -0.08,-0.176 -0.128,-0.592 -0.032,-0.416 -0.048,-0.688 0,-0.144 0.208,-0.144 0.064,0 0.112,0.032 0.064,0.016 0.08,0.08 0.208,0.784 0.656,1.12 0.464,0.336 0.928,0.336 0.464,0 0.784,-0.304 0.336,-0.32 0.336,-0.784 0,-0.432 -0.288,-0.736 -0.288,-0.32 -1.008,-0.768 -0.544,-0.336 -0.88,-0.64 -0.336,-0.304 -0.496,-0.624 -0.144,-0.32 -0.144,-0.72 0,-0.512 0.24,-0.928 0.24,-0.416 0.72,-0.656 0.48,-0.256 1.2,-0.256 0.48,0 0.8,0.096 0.32,0.096 0.48,0.208 0.128,0.176 0.208,0.56 0.096,0.368 0.096,0.704 0,0.112 -0.16,0.112 -0.096,0 -0.192,-0.032 -0.08,-0.048 -0.112,-0.112 -0.208,-0.528 -0.528,-0.8 -0.304,-0.288 -0.768,-0.288 -0.4,0 -0.72,0.24 -0.304,0.24 -0.304,0.704 0,0.368 0.224,0.656 0.24,0.288 0.88,0.656 0.928,0.528 1.376,0.992 0.464,0.448 0.464,1.2 0,0.864 -0.656,1.408 -0.656,0.544 -1.696,0.544 z"
       style="font-family:'EB Garamond';-inkscape-font-specification:'EB Garamond';text-align:center;text-anchor:middle"
       id="path244" />
    <path
       d="m 168.99734,228.47737 q -0.784,0 -1.232,-0.48 -0.432,-0.48 -0.432,-1.424 v -3.712 q 0,-0.128 -0.096,-0.176 -0.096,-0.064 -0.416,-0.064 h -0.096 q -0.08,0 -0.144,-0.096 -0.048,-0.112 -0.048,-0.224 0,-0.032 0.048,-0.096 0.048,-0.064 0.064,-0.08 0.32,-0.224 0.576,-0.448 0.272,-0.224 0.48,-0.432 0.224,-0.224 0.368,-0.4 0.08,-0.08 0.128,-0.128 0.064,-0.064 0.144,-0.064 0.08,0 0.144,0.032 0.08,0.032 0.064,0.144 l -0.08,0.72 q -0.016,0.176 0.08,0.24 0.096,0.064 0.304,0.064 h 1.824 q 0.064,0 0.112,0.112 0.048,0.096 0.048,0.24 0,0.144 -0.048,0.288 -0.048,0.128 -0.112,0.128 h -1.584 q -0.4,0 -0.528,0.064 -0.112,0.064 -0.112,0.384 v 3.152 q 0,0.64 0.272,1.008 0.272,0.368 0.784,0.368 0.464,0 0.72,-0.064 0.256,-0.08 0.464,-0.224 0.032,-0.032 0.064,-0.032 0.064,0 0.08,0.08 0.032,0.064 0.032,0.144 0,0.08 -0.272,0.32 -0.256,0.24 -0.688,0.448 -0.416,0.208 -0.912,0.208 z"
       style="font-family:'EB Garamond';-inkscape-font-specification:'EB Garamond';text-align:center;text-anchor:middle"
       id="path246" />
    <path
       d="m 172.87659,228.47737 q -0.288,0 -0.592,-0.224 -0.288,-0.224 -0.496,-0.544 -0.192,-0.32 -0.192,-0.608 0,-0.512 0.272,-0.8 0.272,-0.288 0.864,-0.528 l 1.632,-0.672 q 0.32,-0.128 0.368,-0.224 0.064,-0.096 0.08,-0.416 l 0.032,-1.024 q 0.016,-0.416 -0.24,-0.72 -0.24,-0.304 -0.704,-0.304 -0.24,0 -0.48,0.08 -0.24,0.08 -0.4,0.208 -0.096,0.064 -0.128,0.192 -0.032,0.128 -0.032,0.272 0,0.064 0,0.144 0.016,0.08 0.016,0.144 0,0.08 -0.208,0.224 -0.192,0.128 -0.448,0.24 -0.24,0.096 -0.4,0.096 -0.08,0 -0.128,-0.032 -0.048,-0.048 -0.048,-0.112 0,-0.256 0.16,-0.544 0.176,-0.304 0.48,-0.56 0.368,-0.336 0.8,-0.592 0.432,-0.256 0.848,-0.4 0.416,-0.144 0.736,-0.144 0.576,0 0.944,0.416 0.384,0.4 0.368,1.008 l -0.08,3.84 q -0.016,0.336 0.144,0.544 0.176,0.208 0.432,0.208 0.4,0 0.592,-0.176 0.08,-0.08 0.128,-0.08 0.08,0 0.128,0.048 0.048,0.048 0.048,0.128 0,0.176 -0.176,0.352 -0.256,0.256 -0.56,0.4 -0.288,0.16 -0.544,0.16 -0.736,0 -1.168,-0.832 h -0.048 q -0.528,0.432 -1.008,0.624 -0.48,0.208 -0.992,0.208 z m 0.752,-0.768 q 0.32,0 0.544,-0.096 0.224,-0.112 0.4,-0.288 0.08,-0.08 0.128,-0.208 0.064,-0.144 0.08,-0.448 l 0.032,-0.784 q 0.016,-0.176 -0.016,-0.256 -0.032,-0.08 -0.128,-0.08 -0.032,0 -0.112,0.016 -0.08,0.016 -0.208,0.064 -0.848,0.304 -1.184,0.64 -0.32,0.32 -0.32,0.592 0,0.416 0.24,0.64 0.256,0.208 0.544,0.208 z"
       style="font-family:'EB Garamond';-inkscape-font-specification:'EB Garamond';text-align:center;text-anchor:middle"
       id="path248" />
    <path
       d="m 183.23559,228.55737 q -0.112,0 -0.112,-0.128 0,-0.16 0.032,-0.464 0.048,-0.32 0.048,-0.528 0,-0.032 0,-0.048 0,-0.032 0,-0.048 -0.624,0.608 -1.264,0.88 -0.624,0.256 -1.376,0.256 -0.512,0 -0.928,-0.224 -0.416,-0.208 -0.656,-0.624 -0.24,-0.432 -0.24,-1.056 v -3.248 q 0,-0.352 -0.16,-0.56 -0.16,-0.208 -0.528,-0.352 -0.08,-0.032 -0.144,-0.08 -0.064,-0.048 -0.064,-0.176 0,-0.144 0.064,-0.192 0.08,-0.048 0.176,-0.064 0.544,-0.032 0.832,-0.08 0.304,-0.064 0.752,-0.176 0.048,-0.016 0.064,-0.016 0.032,0 0.064,0 0.176,0 0.16,0.224 -0.048,0.368 -0.08,0.624 -0.016,0.24 -0.016,0.608 v 3.12 q 0,0.384 0.192,0.72 0.192,0.32 0.496,0.528 0.32,0.208 0.656,0.208 0.416,0 0.72,-0.048 0.32,-0.048 0.624,-0.272 0.176,-0.128 0.448,-0.416 0.272,-0.288 0.272,-0.784 v -2.928 q 0,-0.336 -0.208,-0.496 -0.192,-0.176 -0.448,-0.24 -0.256,-0.064 -0.416,-0.064 -0.144,0 -0.24,-0.048 -0.096,-0.064 -0.096,-0.224 0,-0.144 0.096,-0.192 0.112,-0.048 0.24,-0.048 0.496,-0.016 0.816,-0.032 0.336,-0.032 0.592,-0.08 0.272,-0.064 0.56,-0.144 0.032,-0.016 0.08,-0.016 0.048,-0.016 0.08,-0.016 0.208,0 0.208,0.176 0,0.016 -0.016,0.064 0,0.032 -0.016,0.08 -0.016,0.048 -0.048,0.272 -0.016,0.224 -0.048,0.464 -0.016,0.24 -0.016,0.368 v 3.696 q 0,0.432 0.08,0.624 0.096,0.176 0.208,0.176 0.128,0 0.368,-0.016 0.256,-0.032 0.368,-0.032 0.08,0 0.16,0.032 0.08,0.032 0.08,0.176 0,0.128 -0.064,0.176 -0.064,0.032 -0.16,0.048 -0.624,0.08 -1.072,0.24 -0.448,0.16 -0.8,0.304 -0.048,0.016 -0.144,0.048 -0.096,0.048 -0.176,0.048 z"
       style="font-family:'EB Garamond';-inkscape-font-specification:'EB Garamond';text-align:center;text-anchor:middle"
       id="path250" />
    <path
       d="m 186.60109,228.30137 q -0.16,0 -0.24,-0.048 -0.08,-0.032 -0.08,-0.128 0,-0.128 0.096,-0.16 0.096,-0.048 0.272,-0.096 0.304,-0.08 0.448,-0.224 0.16,-0.16 0.16,-0.384 v -3.44 q 0,-0.432 -0.128,-0.752 -0.128,-0.32 -0.528,-0.4 -0.064,-0.016 -0.112,-0.08 -0.048,-0.064 -0.048,-0.128 0,-0.16 0.144,-0.192 0.416,-0.128 0.864,-0.368 0.464,-0.256 0.72,-0.416 0.096,-0.064 0.144,-0.08 0.064,-0.032 0.096,-0.032 0.08,0 0.08,0.112 0,0.048 -0.016,0.24 0,0.192 -0.016,0.448 0,0.256 -0.016,0.512 0,0.032 0.032,0.032 0.256,-0.32 0.56,-0.56 0.32,-0.24 0.64,-0.384 0.336,-0.144 0.64,-0.144 0.336,0 0.544,0.144 0.224,0.144 0.224,0.368 0,0.16 -0.096,0.352 -0.08,0.192 -0.224,0.336 -0.144,0.144 -0.304,0.144 -0.096,0 -0.208,-0.032 -0.112,-0.048 -0.24,-0.112 -0.128,-0.048 -0.256,-0.096 -0.128,-0.048 -0.256,-0.048 -0.384,0 -0.752,0.272 -0.352,0.272 -0.352,1.072 v 3.232 q 0,0.208 0.224,0.352 0.224,0.128 0.624,0.256 0.176,0.048 0.272,0.096 0.096,0.048 0.096,0.16 0,0.176 -0.32,0.176 -0.48,0 -0.736,-0.048 -0.24,-0.032 -0.656,-0.032 -0.272,0 -0.448,0.016 -0.16,0.016 -0.352,0.032 -0.176,0.032 -0.496,0.032 z"
       style="font-family:'EB Garamond';-inkscape-font-specification:'EB Garamond';text-align:center;text-anchor:middle"
       id="path252" />
    <path
       d="m 193.03284,228.47737 q -0.288,0 -0.592,-0.224 -0.288,-0.224 -0.496,-0.544 -0.192,-0.32 -0.192,-0.608 0,-0.512 0.272,-0.8 0.272,-0.288 0.864,-0.528 l 1.632,-0.672 q 0.32,-0.128 0.368,-0.224 0.064,-0.096 0.08,-0.416 l 0.032,-1.024 q 0.016,-0.416 -0.24,-0.72 -0.24,-0.304 -0.704,-0.304 -0.24,0 -0.48,0.08 -0.24,0.08 -0.4,0.208 -0.096,0.064 -0.128,0.192 -0.032,0.128 -0.032,0.272 0,0.064 0,0.144 0.016,0.08 0.016,0.144 0,0.08 -0.208,0.224 -0.192,0.128 -0.448,0.24 -0.24,0.096 -0.4,0.096 -0.08,0 -0.128,-0.032 -0.048,-0.048 -0.048,-0.112 0,-0.256 0.16,-0.544 0.176,-0.304 0.48,-0.56 0.368,-0.336 0.8,-0.592 0.432,-0.256 0.848,-0.4 0.416,-0.144 0.736,-0.144 0.576,0 0.944,0.416 0.384,0.4 0.368,1.008 l -0.08,3.84 q -0.016,0.336 0.144,0.544 0.176,0.208 0.432,0.208 0.4,0 0.592,-0.176 0.08,-0.08 0.128,-0.08 0.08,0 0.128,0.048 0.048,0.048 0.048,0.128 0,0.176 -0.176,0.352 -0.256,0.256 -0.56,0.4 -0.288,0.16 -0.544,0.16 -0.736,0 -1.168,-0.832 h -0.048 q -0.528,0.432 -1.008,0.624 -0.48,0.208 -0.992,0.208 z m 0.752,-0.768 q 0.32,0 0.544,-0.096 0.224,-0.112 0.4,-0.288 0.08,-0.08 0.128,-0.208 0.064,-0.144 0.08,-0.448 l 0.032,-0.784 q 0.016,-0.176 -0.016,-0.256 -0.032,-0.08 -0.128,-0.08 -0.032,0 -0.112,0.016 -0.08,0.016 -0.208,0.064 -0.848,0.304 -1.184,0.64 -0.32,0.32 -0.32,0.592 0,0.416 0.24,0.64 0.256,0.208 0.544,0.208 z"
       style="font-family:'EB Garamond';-inkscape-font-specification:'EB Garamond';text-align:center;text-anchor:middle"
       id="path254" />
    <path
       d="m 203.24784,228.55737 q -0.032,0 -0.112,-0.064 -0.064,-0.064 -0.064,-0.096 0,-0.16 0.032,-0.448 0.048,-0.304 0.048,-0.512 v -0.096 q -0.24,0.368 -0.768,0.752 -0.528,0.384 -1.328,0.384 -0.912,0 -1.584,-0.48 -0.656,-0.48 -1.024,-1.232 -0.352,-0.752 -0.352,-1.552 0,-0.928 0.432,-1.744 0.432,-0.816 1.232,-1.328 0.816,-0.512 1.936,-0.512 0.32,0 0.64,0.064 0.336,0.048 0.512,0.112 0.144,0.048 0.208,0.048 0.112,0 0.112,-0.384 v -2.272 q 0,-0.656 -0.208,-0.88 -0.208,-0.224 -0.592,-0.288 -0.144,-0.032 -0.144,-0.208 0,-0.144 0.128,-0.192 0.704,-0.176 1.104,-0.336 0.4,-0.16 0.624,-0.256 0.064,-0.032 0.112,-0.032 0.064,-0.016 0.096,-0.016 0.096,0 0.112,0.096 0,0.096 -0.032,0.336 -0.016,0.224 -0.048,0.672 -0.032,0.448 -0.032,1.168 v 7.232 q 0,0.544 0.08,0.8 0.08,0.24 0.256,0.24 0.08,0 0.272,-0.016 0.208,-0.016 0.416,-0.032 0.288,-0.016 0.288,0.144 0,0.112 -0.08,0.208 -0.064,0.08 -0.144,0.08 -0.448,0.064 -0.88,0.192 -0.432,0.112 -0.992,0.352 -0.128,0.064 -0.176,0.08 -0.032,0.016 -0.08,0.016 z m -1.616,-0.912 q 0.416,0 0.816,-0.208 0.4,-0.224 0.704,-0.576 l 0.016,-2.88 q 0,-0.432 -0.256,-0.848 -0.24,-0.416 -0.688,-0.672 -0.432,-0.272 -1.024,-0.272 -0.368,0 -0.832,0.224 -0.464,0.224 -0.8,0.8 -0.336,0.56 -0.336,1.632 0,0.912 0.272,1.472 0.272,0.544 0.656,0.832 0.4,0.288 0.8,0.4 0.416,0.096 0.672,0.096 z"
       style="font-family:'EB Garamond';-inkscape-font-specification:'EB Garamond';text-align:center;text-anchor:middle"
       id="path256" />
    <path
       d="m 209.37359,228.47737 q -0.896,0 -1.616,-0.416 -0.72,-0.416 -1.152,-1.136 -0.416,-0.736 -0.416,-1.664 0,-0.672 0.256,-1.312 0.272,-0.64 0.752,-1.168 0.48,-0.528 1.12,-0.832 0.64,-0.32 1.376,-0.32 0.928,0 1.664,0.448 0.752,0.448 1.184,1.184 0.448,0.72 0.448,1.584 0,0.928 -0.416,1.76 -0.4,0.832 -1.2,1.36 -0.8,0.512 -2,0.512 z m 0.336,-0.48 q 0.544,0 0.976,-0.208 0.432,-0.208 0.672,-0.672 0.192,-0.368 0.256,-0.896 0.064,-0.528 0.064,-0.992 0,-0.768 -0.288,-1.472 -0.272,-0.72 -0.784,-1.168 -0.496,-0.464 -1.184,-0.464 -0.432,0 -0.784,0.144 -0.336,0.128 -0.624,0.496 -0.32,0.4 -0.416,0.976 -0.096,0.576 -0.096,1.152 0,0.784 0.288,1.504 0.288,0.704 0.784,1.152 0.496,0.448 1.136,0.448 z"
       style="font-family:'EB Garamond';-inkscape-font-specification:'EB Garamond';text-align:center;text-anchor:middle"
       id="path258" />
    <path
       d="m 214.31984,228.30137 q -0.16,0 -0.24,-0.048 -0.08,-0.032 -0.08,-0.128 0,-0.128 0.096,-0.16 0.096,-0.048 0.272,-0.096 0.304,-0.08 0.448,-0.224 0.16,-0.16 0.16,-0.384 v -3.44 q 0,-0.432 -0.128,-0.752 -0.128,-0.32 -0.528,-0.4 -0.064,-0.016 -0.112,-0.08 -0.048,-0.064 -0.048,-0.128 0,-0.16 0.144,-0.192 0.416,-0.128 0.864,-0.368 0.464,-0.256 0.72,-0.416 0.096,-0.064 0.144,-0.08 0.064,-0.032 0.096,-0.032 0.08,0 0.08,0.112 0,0.048 -0.016,0.24 0,0.192 -0.016,0.448 0,0.256 -0.016,0.512 0,0.032 0.032,0.032 0.256,-0.32 0.56,-0.56 0.32,-0.24 0.64,-0.384 0.336,-0.144 0.64,-0.144 0.336,0 0.544,0.144 0.224,0.144 0.224,0.368 0,0.16 -0.096,0.352 -0.08,0.192 -0.224,0.336 -0.144,0.144 -0.304,0.144 -0.096,0 -0.208,-0.032 -0.112,-0.048 -0.24,-0.112 -0.128,-0.048 -0.256,-0.096 -0.128,-0.048 -0.256,-0.048 -0.384,0 -0.752,0.272 -0.352,0.272 -0.352,1.072 v 3.232 q 0,0.208 0.224,0.352 0.224,0.128 0.624,0.256 0.176,0.048 0.272,0.096 0.096,0.048 0.096,0.16 0,0.176 -0.32,0.176 -0.48,0 -0.736,-0.048 -0.24,-0.032 -0.656,-0.032 -0.272,0 -0.448,0.016 -0.16,0.016 -0.352,0.032 -0.176,0.032 -0.496,0.032 z"
       style="font-family:'EB Garamond';-inkscape-font-specification:'EB Garamond';text-align:center;text-anchor:middle"
       id="path260" />
    <path
       d="m 220.75159,228.47737 q -0.288,0 -0.592,-0.224 -0.288,-0.224 -0.496,-0.544 -0.192,-0.32 -0.192,-0.608 0,-0.512 0.272,-0.8 0.272,-0.288 0.864,-0.528 l 1.632,-0.672 q 0.32,-0.128 0.368,-0.224 0.064,-0.096 0.08,-0.416 l 0.032,-1.024 q 0.016,-0.416 -0.24,-0.72 -0.24,-0.304 -0.704,-0.304 -0.24,0 -0.48,0.08 -0.24,0.08 -0.4,0.208 -0.096,0.064 -0.128,0.192 -0.032,0.128 -0.032,0.272 0,0.064 0,0.144 0.016,0.08 0.016,0.144 0,0.08 -0.208,0.224 -0.192,0.128 -0.448,0.24 -0.24,0.096 -0.4,0.096 -0.08,0 -0.128,-0.032 -0.048,-0.048 -0.048,-0.112 0,-0.256 0.16,-0.544 0.176,-0.304 0.48,-0.56 0.368,-0.336 0.8,-0.592 0.432,-0.256 0.848,-0.4 0.416,-0.144 0.736,-0.144 0.576,0 0.944,0.416 0.384,0.4 0.368,1.008 l -0.08,3.84 q -0.016,0.336 0.144,0.544 0.176,0.208 0.432,0.208 0.4,0 0.592,-0.176 0.08,-0.08 0.128,-0.08 0.08,0 0.128,0.048 0.048,0.048 0.048,0.128 0,0.176 -0.176,0.352 -0.256,0.256 -0.56,0.4 -0.288,0.16 -0.544,0.16 -0.736,0 -1.168,-0.832 h -0.048 q -0.528,0.432 -1.008,0.624 -0.48,0.208 -0.992,0.208 z m 0.752,-0.768 q 0.32,0 0.544,-0.096 0.224,-0.112 0.4,-0.288 0.08,-0.08 0.128,-0.208 0.064,-0.144 0.08,-0.448 l 0.032,-0.784 q 0.016,-0.176 -0.016,-0.256 -0.032,-0.08 -0.128,-0.08 -0.032,0 -0.112,0.016 -0.08,0.016 -0.208,0.064 -0.848,0.304 -1.184,0.64 -0.32,0.32 -0.32,0.592 0,0.416 0.24,0.64 0.256,0.208 0.544,0.208 z"
       style="font-family:'EB Garamond';-inkscape-font-specification:'EB Garamond';text-align:center;text-anchor:middle"
       id="path262" />
  </g>
</svg>
