<?xml version="1.0" encoding="UTF-8" standalone="no"?>
<svg
   xmlns:dc="http://purl.org/dc/elements/1.1/"
   xmlns:cc="http://creativecommons.org/ns#"
   xmlns:rdf="http://www.w3.org/1999/02/22-rdf-syntax-ns#"
   xmlns:svg="http://www.w3.org/2000/svg"
   xmlns="http://www.w3.org/2000/svg"
   xmlns:xlink="http://www.w3.org/1999/xlink"
   xmlns:sodipodi="http://sodipodi.sourceforge.net/DTD/sodipodi-0.dtd"
   xmlns:inkscape="http://www.inkscape.org/namespaces/inkscape"
   version="1.0"
   width="950.53131"
   height="391.38696"
   id="parabola"
   sodipodi:version="0.32"
   inkscape:version="1.0.1 (c497b03c, 2020-09-10)"
   sodipodi:docname="resistencia-colores.svg"
   inkscape:output_extension="org.inkscape.output.svg.inkscape">
  <metadata
     id="metadata12">
    <rdf:RDF>
      <cc:Work
         rdf:about="">
        <dc:format>image/svg+xml</dc:format>
        <dc:type
           rdf:resource="http://purl.org/dc/dcmitype/StillImage" />
        <dc:title />
      </cc:Work>
    </rdf:RDF>
  </metadata>
  <defs
     id="defs10">
    <linearGradient
       inkscape:collect="always"
       id="linearGradient10354">
      <stop
         style="stop-color:#dddddd;stop-opacity:1;"
         offset="0"
         id="stop10356" />
      <stop
         style="stop-color:#dddddd;stop-opacity:0;"
         offset="1"
         id="stop10358" />
    </linearGradient>
    <linearGradient
       inkscape:collect="always"
       id="linearGradient22740">
      <stop
         style="stop-color:#dddd00;stop-opacity:1"
         offset="0"
         id="stop22742" />
      <stop
         style="stop-color:#eeaa00;stop-opacity:0;"
         offset="1"
         id="stop22744" />
    </linearGradient>
    <linearGradient
       inkscape:collect="always"
       id="linearGradient14978">
      <stop
         style="stop-color:#eeaa00;stop-opacity:1;"
         offset="0"
         id="stop14980" />
      <stop
         style="stop-color:#eeaa00;stop-opacity:0;"
         offset="1"
         id="stop14982" />
    </linearGradient>
    <linearGradient
       inkscape:collect="always"
       id="linearGradient14001">
      <stop
         style="stop-color:#eeaa00;stop-opacity:1;"
         offset="0"
         id="stop14003" />
      <stop
         style="stop-color:#eeaa00;stop-opacity:0;"
         offset="1"
         id="stop14005" />
    </linearGradient>
    <linearGradient
       inkscape:collect="always"
       id="linearGradient13024">
      <stop
         style="stop-color:#eeaa00;stop-opacity:1;"
         offset="0"
         id="stop13026" />
      <stop
         style="stop-color:#eeaa00;stop-opacity:0;"
         offset="1"
         id="stop13028" />
    </linearGradient>
    <linearGradient
       inkscape:collect="always"
       xlink:href="#linearGradient13024"
       id="linearGradient13030"
       x1="200.20132"
       y1="422.98682"
       x2="276"
       y2="152.41582"
       gradientUnits="userSpaceOnUse" />
    <linearGradient
       inkscape:collect="always"
       xlink:href="#linearGradient14001"
       id="linearGradient14007"
       x1="474.16098"
       y1="355.34409"
       x2="476.64429"
       y2="151.53734"
       gradientUnits="userSpaceOnUse" />
    <linearGradient
       inkscape:collect="always"
       xlink:href="#linearGradient14978"
       id="linearGradient14984"
       x1="747.71887"
       y1="424.74377"
       x2="800.04834"
       y2="176.1347"
       gradientUnits="userSpaceOnUse" />
    <linearGradient
       inkscape:collect="always"
       xlink:href="#linearGradient22740"
       id="linearGradient22746"
       x1="49.260612"
       y1="324.15814"
       x2="49.853588"
       y2="260.90775"
       gradientUnits="userSpaceOnUse" />
    <linearGradient
       inkscape:collect="always"
       xlink:href="#linearGradient22740"
       id="linearGradient23719"
       gradientUnits="userSpaceOnUse"
       x1="49.260612"
       y1="324.15814"
       x2="49.853588"
       y2="260.90775"
       gradientTransform="translate(825,10)" />
    <linearGradient
       inkscape:collect="always"
       xlink:href="#linearGradient22740"
       id="linearGradient25661"
       gradientUnits="userSpaceOnUse"
       x1="49.260612"
       y1="324.15814"
       x2="49.853588"
       y2="260.90775"
       gradientTransform="translate(834.75,0.25)" />
    <linearGradient
       inkscape:collect="always"
       xlink:href="#linearGradient22740"
       id="linearGradient25674"
       gradientUnits="userSpaceOnUse"
       x1="49.260612"
       y1="324.15814"
       x2="49.853588"
       y2="260.90775" />
    <linearGradient
       inkscape:collect="always"
       xlink:href="#linearGradient22740"
       id="linearGradient25676"
       gradientUnits="userSpaceOnUse"
       gradientTransform="translate(834.75,0.25)"
       x1="49.260612"
       y1="324.15814"
       x2="49.853588"
       y2="260.90775" />
    <linearGradient
       inkscape:collect="always"
       xlink:href="#linearGradient14001"
       id="linearGradient25678"
       gradientUnits="userSpaceOnUse"
       x1="474.16098"
       y1="355.34409"
       x2="476.64429"
       y2="151.53734" />
    <linearGradient
       inkscape:collect="always"
       xlink:href="#linearGradient13024"
       id="linearGradient25680"
       gradientUnits="userSpaceOnUse"
       x1="200.20132"
       y1="422.98682"
       x2="276"
       y2="152.41582" />
    <linearGradient
       inkscape:collect="always"
       xlink:href="#linearGradient14978"
       id="linearGradient25682"
       gradientUnits="userSpaceOnUse"
       x1="747.71887"
       y1="424.74377"
       x2="800.04834"
       y2="176.1347" />
    <linearGradient
       inkscape:collect="always"
       xlink:href="#linearGradient14978"
       id="linearGradient25689"
       gradientUnits="userSpaceOnUse"
       x1="747.71887"
       y1="424.74377"
       x2="800.04834"
       y2="176.1347" />
    <linearGradient
       inkscape:collect="always"
       xlink:href="#linearGradient13024"
       id="linearGradient25692"
       gradientUnits="userSpaceOnUse"
       x1="200.20132"
       y1="422.98682"
       x2="276"
       y2="152.41582" />
    <linearGradient
       inkscape:collect="always"
       xlink:href="#linearGradient14001"
       id="linearGradient25695"
       gradientUnits="userSpaceOnUse"
       x1="474.16098"
       y1="355.34409"
       x2="476.64429"
       y2="151.53734" />
    <linearGradient
       inkscape:collect="always"
       xlink:href="#linearGradient22740"
       id="linearGradient25698"
       gradientUnits="userSpaceOnUse"
       gradientTransform="matrix(0.9277789,0,0,1.0009087,835.82422,-0.02262232)"
       x1="49.260612"
       y1="324.15814"
       x2="49.853588"
       y2="260.90775" />
    <linearGradient
       inkscape:collect="always"
       xlink:href="#linearGradient22740"
       id="linearGradient25701"
       gradientUnits="userSpaceOnUse"
       x1="49.260612"
       y1="324.15814"
       x2="49.853588"
       y2="260.90775"
       gradientTransform="matrix(0.9259272,0,0,1.0009325,11.120252,-0.2797527)" />
    <linearGradient
       inkscape:collect="always"
       xlink:href="#linearGradient14978"
       id="linearGradient10367"
       gradientUnits="userSpaceOnUse"
       x1="747.71887"
       y1="424.74377"
       x2="800.04834"
       y2="176.1347"
       gradientTransform="translate(0,-100)" />
    <linearGradient
       inkscape:collect="always"
       xlink:href="#linearGradient13024"
       id="linearGradient10370"
       gradientUnits="userSpaceOnUse"
       x1="200.20132"
       y1="422.98682"
       x2="276"
       y2="152.41582"
       gradientTransform="translate(0,-100)" />
    <linearGradient
       inkscape:collect="always"
       xlink:href="#linearGradient14001"
       id="linearGradient10373"
       gradientUnits="userSpaceOnUse"
       x1="474.16098"
       y1="355.34409"
       x2="476.64429"
       y2="151.53734"
       gradientTransform="translate(0,-100)" />
    <linearGradient
       inkscape:collect="always"
       xlink:href="#linearGradient10354"
       id="linearGradient10379"
       gradientUnits="userSpaceOnUse"
       x1="99.709"
       y1="320.0238"
       x2="99.893135"
       y2="285.13083"
       gradientTransform="translate(0,-100)" />
    <linearGradient
       inkscape:collect="always"
       xlink:href="#linearGradient10354"
       id="linearGradient10383"
       gradientUnits="userSpaceOnUse"
       gradientTransform="translate(825.23152,-100.24999)"
       x1="99.709"
       y1="320.0238"
       x2="99.893135"
       y2="285.13083" />
    <linearGradient
       inkscape:collect="always"
       xlink:href="#linearGradient14978"
       id="linearGradient11520"
       gradientUnits="userSpaceOnUse"
       gradientTransform="translate(-24.468675,-209.11305)"
       x1="747.71887"
       y1="424.74377"
       x2="800.04834"
       y2="176.1347" />
    <linearGradient
       inkscape:collect="always"
       xlink:href="#linearGradient13024"
       id="linearGradient11523"
       gradientUnits="userSpaceOnUse"
       gradientTransform="translate(-24.468675,-209.11305)"
       x1="200.20132"
       y1="422.98682"
       x2="276"
       y2="152.41582" />
    <linearGradient
       inkscape:collect="always"
       xlink:href="#linearGradient14001"
       id="linearGradient11526"
       gradientUnits="userSpaceOnUse"
       gradientTransform="matrix(1.0003241,0,0,0.8750257,-24.630706,-159.05042)"
       x1="474.16098"
       y1="355.34409"
       x2="476.64429"
       y2="151.53734" />
    <linearGradient
       inkscape:collect="always"
       xlink:href="#linearGradient10354"
       id="linearGradient11529"
       gradientUnits="userSpaceOnUse"
       gradientTransform="matrix(0.9978705,0,0,1.2222804,-24.158776,-263.29716)"
       x1="99.709"
       y1="320.0238"
       x2="99.893135"
       y2="285.13083" />
    <linearGradient
       inkscape:collect="always"
       xlink:href="#linearGradient10354"
       id="linearGradient11532"
       gradientUnits="userSpaceOnUse"
       gradientTransform="matrix(0.9957507,0,0,1.2223083,800.89412,-263.30554)"
       x1="99.709"
       y1="320.0238"
       x2="99.893135"
       y2="285.13083" />
  </defs>
  <sodipodi:namedview
     inkscape:window-height="766"
     inkscape:window-width="1440"
     inkscape:pageshadow="2"
     inkscape:pageopacity="0.0"
     guidetolerance="10.0"
     gridtolerance="10000"
     objecttolerance="10000"
     borderopacity="1.0"
     bordercolor="#666666"
     pagecolor="#ffffff"
     id="base"
     showgrid="true"
     height="500px"
     width="1000px"
     inkscape:zoom="1.1383333"
     inkscape:cx="475.2658"
     inkscape:cy="176.23797"
     inkscape:window-x="0"
     inkscape:window-y="25"
     inkscape:current-layer="parabola"
     showguides="true"
     inkscape:guide-bbox="true"
     inkscape:object-paths="true"
     inkscape:grid-points="true"
     inkscape:document-rotation="0"
     fit-margin-top="0"
     fit-margin-left="0"
     fit-margin-right="0"
     fit-margin-bottom="0"
     inkscape:window-maximized="0">
    <inkscape:grid
       id="GridFromPre046Settings"
       type="xygrid"
       originx="-24.734201"
       originy="-35.11305"
       spacingx="5px"
       spacingy="5px"
       color="#3f3fff"
       empcolor="#3f3fff"
       opacity="0.15"
       empopacity="0.38"
       empspacing="5" />
  </sodipodi:namedview>
  <desc
     id="desc3">Parabola</desc>
  <rect
     style="fill:url(#linearGradient11532);fill-opacity:1;stroke:#000000;stroke-width:0.531039;stroke-miterlimit:4;stroke-dasharray:none;stroke-opacity:1"
     id="rect10381"
     width="125"
     height="25"
     x="825.26581"
     y="89.886948" />
  <rect
     style="fill:url(#linearGradient11529);fill-opacity:1;stroke:#000000;stroke-width:0.531598;stroke-miterlimit:4;stroke-dasharray:none;stroke-opacity:1"
     id="rect21769"
     width="125"
     height="25"
     x="0.26579899"
     y="89.886948" />
  <rect
     style="fill:url(#linearGradient11526);fill-opacity:1;stroke:#eeaa00;stroke-width:2.11787;stroke-miterlimit:0;stroke-dasharray:none;stroke-opacity:1"
     id="rect5161"
     width="450"
     height="175"
     x="250.26579"
     y="14.88695" />
  <path
     style="fill:url(#linearGradient11523);fill-opacity:1;fill-rule:evenodd;stroke:#eeaa00;stroke-width:2;stroke-linecap:butt;stroke-linejoin:miter;stroke-miterlimit:4;stroke-dasharray:none;stroke-opacity:1"
     d="m 250.2658,9.88695 c 0,0 -25,-20 -75,0 -25,30 0,65 -50,80 0,10 0,15 0,25 50,15 25,50 50,80 50,20 75,0 75,0 z"
     id="path5157"
     sodipodi:nodetypes="ccccccc" />
  <path
     style="fill:url(#linearGradient11520);fill-opacity:1;fill-rule:evenodd;stroke:#eeaa00;stroke-width:2;stroke-linecap:butt;stroke-linejoin:miter;stroke-miterlimit:4;stroke-dasharray:none;stroke-opacity:1"
     d="m 700.2658,9.88695 v 185 c 0,0 25,20 75,0 25,-30 0,-65 50,-80 0,-10 0,-15 0,-25 -50,-15 -25,-50 -50,-80 -50,-20 -75,0 -75,0 z"
     id="path5159"
     sodipodi:nodetypes="ccccccc" />
  <path
     style="fill:#ab2524;fill-opacity:1;fill-rule:evenodd;stroke:#eeaa00;stroke-width:1px;stroke-linecap:butt;stroke-linejoin:miter;stroke-opacity:1"
     d="m 300.2658,14.88695 c 0,-10 50,-10 50,0 0,25 -5,150 -5,175 0,10 -50,10 -50,0 0,-25 5,-150 5,-175 z"
     id="path11069"
     sodipodi:nodetypes="ccccc" />
  <path
     style="fill:#83639d;fill-opacity:1;fill-rule:evenodd;stroke:#eeaa00;stroke-width:1px;stroke-linecap:butt;stroke-linejoin:miter;stroke-opacity:1"
     d="m 375.2658,14.88695 c 0,-10 50,-10 50,0 0,25 -5,150 -5,175 0,10 -50,10 -50,0 0,-25 5,-150 5,-175 z"
     id="path12040"
     sodipodi:nodetypes="ccccc" />
  <path
     style="fill:#48a43f;fill-opacity:1;fill-rule:evenodd;stroke:#eeaa00;stroke-width:1px;stroke-linecap:butt;stroke-linejoin:miter;stroke-opacity:1"
     d="m 450.2658,14.88695 c 0,-10 50,-10 50,0 0,25 -5,150 -5,175 0,10 -50,10 -50,0 0,-25 5,-150 5,-175 z"
     id="path12042"
     sodipodi:nodetypes="ccccc" />
  <path
     style="fill:#c0c0c0;fill-opacity:1;fill-rule:evenodd;stroke:#eeaa00;stroke-width:1px;stroke-linecap:butt;stroke-linejoin:miter;stroke-opacity:1"
     d="m 550.2658,14.88695 c 0,-10 50,-10 50,0 0,25 -5,150 -5,175 0,10 -50,10 -50,0 0,-25 5,-150 5,-175 z"
     id="path12044"
     sodipodi:nodetypes="ccccc" />
  <g
     aria-label="1ª cifra"
     id="text2342"
     style="font-style:normal;font-variant:normal;font-weight:normal;font-stretch:normal;font-size:48px;line-height:0%;font-family:'Times New Roman';text-align:end;writing-mode:lr-tb;text-anchor:end;fill:#000000;fill-opacity:1;stroke:#000000;stroke-width:1px;stroke-linecap:butt;stroke-linejoin:miter;stroke-opacity:1">
    <path
       d="m 126.67523,297.96846 q -0.336,0 -0.528,-0.192 -0.192,-0.192 -0.192,-0.384 0,-0.432 0.72,-0.624 1.824,-0.48 2.976,-0.864 1.2,-0.432 1.728,-1.152 0.576,-0.768 0.576,-2.16 v -18.336 q 0,-0.912 -0.576,-1.392 -0.576,-0.48 -1.488,-0.672 -0.912,-0.192 -1.968,-0.24 -0.48,-0.048 -0.864,-0.24 -0.384,-0.192 -0.384,-0.576 0,-0.336 0.336,-0.576 0.384,-0.24 0.864,-0.288 2.16,-0.336 3.84,-0.816 1.728,-0.528 3.36,-2.16 0.048,-0.048 0.096,-0.048 0.096,0 0.144,0 0.24,0 0.432,0.144 0.192,0.096 0.144,0.288 -0.096,0.72 -0.144,1.584 -0.048,0.816 -0.048,1.824 v 22.08 q 0,1.2 0.432,1.824 0.48,0.624 1.584,1.008 1.104,0.336 3.072,0.816 0.288,0.048 0.528,0.24 0.288,0.144 0.288,0.384 0,0.528 -0.672,0.528 -1.344,0 -2.496,-0.096 -1.104,-0.048 -2.208,-0.096 -1.056,-0.048 -2.352,-0.048 -1.296,0 -2.448,0.048 -1.152,0.048 -2.304,0.096 -1.152,0.096 -2.448,0.096 z"
       style="font-style:normal;font-variant:normal;font-weight:normal;font-stretch:normal;font-size:48px;line-height:1.25;font-family:'EB Garamond';-inkscape-font-specification:'EB Garamond';fill:#000000;fill-opacity:1;stroke:#000000;stroke-opacity:1"
       id="path78" />
    <path
       d="m 157.32173,288.41646 q 0.24,0 0.432,0.144 0.24,0.144 0.24,0.384 0,0.048 -0.048,0.096 0,0 0,0.048 -0.24,0.48 -0.624,0.768 -0.336,0.24 -0.864,0.24 h -9.504 q -0.24,0 -0.48,-0.192 -0.192,-0.192 -0.192,-0.384 0,-0.336 0.336,-0.72 0.336,-0.384 0.816,-0.384 z m -7.872,-3.456 q -0.624,0 -1.248,-0.48 -0.624,-0.48 -1.008,-1.152 -0.384,-0.672 -0.384,-1.2 0,-0.912 0.288,-1.488 0.336,-0.624 1.488,-1.056 l 3.648,-1.344 q 0.624,-0.24 0.72,-0.384 0.144,-0.192 0.144,-0.768 v -1.104 q 0,-0.72 -0.48,-1.2 -0.432,-0.528 -1.296,-0.528 -0.576,0 -1.248,0.144 -0.672,0.144 -0.816,0.48 -0.096,0.24 -0.096,0.576 0,0.336 0,0.624 0,0.192 -0.384,0.384 -0.384,0.144 -0.912,0.288 -0.48,0.144 -0.864,0.24 -0.144,0.048 -0.24,-0.096 -0.048,-0.144 0.048,-0.384 0.24,-0.528 0.432,-0.912 0.192,-0.432 0.768,-0.912 0.48,-0.432 1.248,-0.864 0.816,-0.48 1.68,-0.816 0.912,-0.336 1.728,-0.336 1.104,0 2.064,0.768 0.96,0.768 0.912,1.776 l -0.144,5.952 q 0,0.624 0.144,1.248 0.192,0.624 0.864,0.624 0.336,0 0.48,-0.096 0.144,-0.144 0.288,-0.192 0.096,-0.096 0.192,-0.144 0.096,-0.048 0.192,-0.048 0.192,0 0.336,0.24 0.144,0.24 0.144,0.48 0,0.048 -0.144,0.24 -0.096,0.192 -0.336,0.432 -0.336,0.336 -0.864,0.672 -0.48,0.336 -1.008,0.336 -1.2,0 -1.728,-0.624 -0.528,-0.672 -0.624,-0.864 h -0.192 q -0.528,0.432 -1.44,0.96 -0.864,0.528 -2.352,0.528 z m 1.344,-1.92 q 0.624,0 1.104,-0.288 0.48,-0.336 0.816,-0.624 0.192,-0.144 0.24,-0.336 0.048,-0.24 0.096,-0.768 l 0.048,-1.392 q 0,-0.432 -0.192,-0.528 -0.144,-0.096 -0.528,0 -1.776,0.48 -2.448,1.152 -0.672,0.624 -0.672,1.152 0,0.816 0.528,1.248 0.528,0.384 1.008,0.384 z"
       style="font-style:normal;font-variant:normal;font-weight:normal;font-stretch:normal;font-size:48px;line-height:1.25;font-family:'EB Garamond';-inkscape-font-specification:'EB Garamond';fill:#000000;fill-opacity:1;stroke:#000000;stroke-opacity:1"
       id="path80" />
    <path
       d="m 179.29448,298.54446 q -2.4,0 -4.368,-1.2 -1.92,-1.248 -3.072,-3.36 -1.104,-2.16 -1.104,-4.8 0,-3.12 1.344,-5.664 1.392,-2.544 3.696,-4.032 2.304,-1.536 5.088,-1.536 3.12,0 5.472,1.68 0.576,0.432 0.576,0.912 0,0.384 -0.336,0.864 -0.336,0.48 -0.816,0.816 -0.48,0.288 -0.912,0.288 -0.24,0 -0.48,-0.144 -0.24,-0.192 -0.528,-0.384 -1.056,-0.816 -2.352,-1.536 -1.296,-0.72 -2.16,-0.72 -2.352,0 -3.84,2.208 -1.44,2.16 -1.44,5.712 0,2.256 0.96,4.08 1.008,1.824 2.64,2.88 1.68,1.056 3.696,1.056 1.392,0 2.4,-0.432 1.008,-0.48 2.16,-1.632 0.096,-0.096 0.24,-0.144 0.144,-0.096 0.24,-0.096 0.528,0 0.528,0.672 0,0.288 -0.192,0.672 -0.144,0.336 -0.528,0.816 -0.768,0.96 -1.824,1.68 -1.056,0.672 -2.352,1.008 -1.248,0.336 -2.736,0.336 z"
       style="font-style:normal;font-variant:normal;font-weight:normal;font-stretch:normal;font-size:48px;line-height:1.25;font-family:'EB Garamond';-inkscape-font-specification:'EB Garamond';fill:#000000;fill-opacity:1;stroke:#000000;stroke-opacity:1"
       id="path82" />
    <path
       d="m 190.68248,297.96846 q -0.432,0 -0.72,-0.144 -0.24,-0.096 -0.24,-0.384 0,-0.384 0.336,-0.528 0.384,-0.144 0.768,-0.24 1.008,-0.24 1.536,-0.576 0.528,-0.384 0.528,-1.248 v -10.416 q 0,-1.296 -0.48,-2.304 -0.432,-1.008 -1.68,-1.2 -0.24,-0.048 -0.384,-0.192 -0.096,-0.144 -0.096,-0.432 0,-0.528 0.432,-0.576 1.92,-0.432 3.168,-1.152 1.248,-0.768 1.872,-1.248 0.432,-0.336 0.672,-0.336 0.288,0 0.288,0.24 0,0.384 -0.144,1.536 -0.096,1.104 -0.192,2.496 -0.096,1.344 -0.096,2.448 v 11.136 q 0,0.816 0.528,1.2 0.576,0.384 1.536,0.624 0.384,0.096 0.72,0.24 0.384,0.144 0.384,0.528 0,0.528 -0.96,0.528 -0.912,0 -1.488,-0.096 -0.528,-0.048 -1.056,-0.096 -0.48,-0.048 -1.344,-0.048 -0.816,0 -1.344,0.048 -0.528,0.048 -1.056,0.096 -0.528,0.096 -1.488,0.096 z m 3.84,-24.912 q -1.008,0 -1.728,-0.672 -0.672,-0.72 -0.672,-1.728 0,-1.056 0.672,-1.728 0.72,-0.72 1.728,-0.72 1.056,0 1.728,0.72 0.72,0.672 0.72,1.728 0,1.008 -0.72,1.728 -0.672,0.672 -1.728,0.672 z"
       style="font-style:normal;font-variant:normal;font-weight:normal;font-stretch:normal;font-size:48px;line-height:1.25;font-family:'EB Garamond';-inkscape-font-specification:'EB Garamond';fill:#000000;fill-opacity:1;stroke:#000000;stroke-opacity:1"
       id="path84" />
    <path
       d="m 202.40123,297.96846 q -0.48,0 -0.72,-0.144 -0.24,-0.096 -0.24,-0.384 0,-0.384 0.288,-0.528 0.336,-0.144 0.816,-0.24 1.104,-0.24 1.584,-0.672 0.48,-0.48 0.48,-1.44 v -13.536 q -0.48,0 -1.104,0 -0.624,-0.048 -1.392,-0.096 -0.144,-0.048 -0.432,-0.336 -0.24,-0.288 -0.24,-0.528 0,-0.096 0.144,-0.144 0.144,-0.096 0.192,-0.144 0.864,-0.432 1.488,-0.768 0.624,-0.336 1.344,-0.672 0,-4.176 1.008,-6.96 1.056,-2.784 2.688,-4.416 1.632,-1.632 3.456,-2.304 1.824,-0.72 3.408,-0.72 2.688,0 3.984,0.816 1.296,0.816 1.296,2.064 0,0.96 -0.48,1.44 -0.48,0.48 -1.152,0.48 -0.432,0 -0.816,-0.336 -0.336,-0.336 -0.816,-0.768 -0.624,-0.624 -1.536,-1.152 -0.912,-0.576 -2.496,-0.576 -2.256,0 -3.744,1.968 -1.44,1.968 -1.44,6.048 v 4.224 q 0,0.288 0.144,0.384 0.192,0.096 0.384,0.096 h 6 q 0.24,0 0.432,0.144 0.192,0.144 0.192,0.384 0,0.336 -0.096,0.72 -0.048,0.384 -0.192,0.672 -0.144,0.384 -0.432,0.384 h -5.52 q -0.576,0 -0.768,0.192 -0.144,0.144 -0.144,0.432 v 13.008 q 0,0.96 0.624,1.44 0.624,0.432 2.544,0.672 1.104,0.144 1.104,0.768 0,0.288 -0.24,0.384 -0.24,0.144 -0.72,0.144 -1.44,0 -2.544,-0.144 -1.104,-0.096 -2.352,-0.096 -0.816,0 -1.344,0.048 -0.528,0.048 -1.104,0.096 -0.576,0.096 -1.536,0.096 z"
       style="font-style:normal;font-variant:normal;font-weight:normal;font-stretch:normal;font-size:48px;line-height:1.25;font-family:'EB Garamond';-inkscape-font-specification:'EB Garamond';fill:#000000;fill-opacity:1;stroke:#000000;stroke-opacity:1"
       id="path86" />
    <path
       d="m 217.92248,297.96846 q -0.48,0 -0.72,-0.144 -0.24,-0.096 -0.24,-0.384 0,-0.384 0.288,-0.48 0.288,-0.144 0.816,-0.288 0.912,-0.24 1.344,-0.672 0.48,-0.48 0.48,-1.152 v -10.32 q 0,-1.296 -0.384,-2.256 -0.384,-0.96 -1.584,-1.2 -0.192,-0.048 -0.336,-0.24 -0.144,-0.192 -0.144,-0.384 0,-0.48 0.432,-0.576 1.248,-0.384 2.592,-1.104 1.392,-0.768 2.16,-1.248 0.288,-0.192 0.432,-0.24 0.192,-0.096 0.288,-0.096 0.24,0 0.24,0.336 0,0.144 -0.048,0.72 0,0.576 -0.048,1.344 0,0.768 -0.048,1.536 0,0.096 0.096,0.096 0.768,-0.96 1.68,-1.68 0.96,-0.72 1.92,-1.152 1.008,-0.432 1.92,-0.432 1.008,0 1.632,0.432 0.672,0.432 0.672,1.104 0,0.48 -0.288,1.056 -0.24,0.576 -0.672,1.008 -0.432,0.432 -0.912,0.432 -0.288,0 -0.624,-0.096 -0.336,-0.144 -0.72,-0.336 -0.384,-0.144 -0.768,-0.288 -0.384,-0.144 -0.768,-0.144 -1.152,0 -2.256,0.816 -1.056,0.816 -1.056,3.216 v 9.696 q 0,0.624 0.672,1.056 0.672,0.384 1.872,0.768 0.528,0.144 0.816,0.288 0.288,0.144 0.288,0.48 0,0.528 -0.96,0.528 -1.44,0 -2.208,-0.144 -0.72,-0.096 -1.968,-0.096 -0.816,0 -1.344,0.048 -0.48,0.048 -1.056,0.096 -0.528,0.096 -1.488,0.096 z"
       style="font-style:normal;font-variant:normal;font-weight:normal;font-stretch:normal;font-size:48px;line-height:1.25;font-family:'EB Garamond';-inkscape-font-specification:'EB Garamond';fill:#000000;fill-opacity:1;stroke:#000000;stroke-opacity:1"
       id="path88" />
    <path
       d="m 237.21773,298.49646 q -0.864,0 -1.776,-0.672 -0.864,-0.672 -1.488,-1.632 -0.576,-0.96 -0.576,-1.824 0,-1.536 0.816,-2.4 0.816,-0.864 2.592,-1.584 l 4.896,-2.016 q 0.96,-0.384 1.104,-0.672 0.192,-0.288 0.24,-1.248 l 0.096,-3.072 q 0.048,-1.248 -0.72,-2.16 -0.72,-0.912 -2.112,-0.912 -0.72,0 -1.44,0.24 -0.72,0.24 -1.2,0.624 -0.288,0.192 -0.384,0.576 -0.096,0.384 -0.096,0.816 0,0.192 0,0.432 0.048,0.24 0.048,0.432 0,0.24 -0.624,0.672 -0.576,0.384 -1.344,0.72 -0.72,0.288 -1.2,0.288 -0.24,0 -0.384,-0.096 -0.144,-0.144 -0.144,-0.336 0,-0.768 0.48,-1.632 0.528,-0.912 1.44,-1.68 1.104,-1.008 2.4,-1.776 1.296,-0.768 2.544,-1.2 1.248,-0.432 2.208,-0.432 1.728,0 2.832,1.248 1.152,1.2 1.104,3.024 l -0.24,11.52 q -0.048,1.008 0.432,1.632 0.528,0.624 1.296,0.624 1.2,0 1.776,-0.528 0.24,-0.24 0.384,-0.24 0.24,0 0.384,0.144 0.144,0.144 0.144,0.384 0,0.528 -0.528,1.056 -0.768,0.768 -1.68,1.2 -0.864,0.48 -1.632,0.48 -2.208,0 -3.504,-2.496 h -0.144 q -1.584,1.296 -3.024,1.872 -1.44,0.624 -2.976,0.624 z m 2.256,-2.304 q 0.96,0 1.632,-0.288 0.672,-0.336 1.2,-0.864 0.24,-0.24 0.384,-0.624 0.192,-0.432 0.24,-1.344 l 0.096,-2.352 q 0.048,-0.528 -0.048,-0.768 -0.096,-0.24 -0.384,-0.24 -0.096,0 -0.336,0.048 -0.24,0.048 -0.624,0.192 -2.544,0.912 -3.552,1.92 -0.96,0.96 -0.96,1.776 0,1.248 0.72,1.92 0.768,0.624 1.632,0.624 z"
       style="font-style:normal;font-variant:normal;font-weight:normal;font-stretch:normal;font-size:48px;line-height:1.25;font-family:'EB Garamond';-inkscape-font-specification:'EB Garamond';fill:#000000;fill-opacity:1;stroke:#000000;stroke-opacity:1"
       id="path90" />
  </g>
  <g
     aria-label="2ª cifra"
     id="text3341"
     style="font-style:normal;font-variant:normal;font-weight:normal;font-stretch:normal;font-size:48px;line-height:0%;font-family:'Times New Roman';text-align:end;writing-mode:lr-tb;text-anchor:end;fill:#000000;fill-opacity:1;stroke:#000000;stroke-width:1px;stroke-linecap:butt;stroke-linejoin:miter;stroke-opacity:1">
    <path
       d="m 216.65125,372.96846 q -0.336,0 -1.056,-0.048 -0.72,-0.048 -1.632,-0.096 -0.912,-0.048 -1.92,-0.096 -0.96,-0.048 -1.872,-0.048 -0.912,0 -2.592,0.048 -1.68,0.048 -3.552,0.096 -1.824,0 -3.216,0.048 -1.392,0.048 -1.776,0.048 -0.192,0 -0.576,-0.288 -0.384,-0.336 -0.384,-0.528 0,-0.24 0.096,-0.336 0.096,-0.096 0.288,-0.288 l 8.208,-8.496 q 2.4,-2.496 3.984,-5.568 1.584,-3.12 1.584,-6.288 0,-2.544 -1.536,-3.984 -1.536,-1.488 -3.6,-1.488 -1.968,0 -3.648,1.104 -1.68,1.056 -2.688,2.784 -0.144,0.288 -0.384,0.48 -0.192,0.192 -0.432,0.192 -0.192,0 -0.48,-0.384 -0.24,-0.432 -0.24,-1.056 0,-0.576 0.672,-1.584 0.72,-1.008 1.968,-2.064 1.248,-1.056 2.976,-1.776 1.728,-0.768 3.744,-0.768 2.4,0 4.128,1.008 1.728,1.008 2.64,2.784 0.912,1.776 0.912,4.128 0,1.296 -0.48,2.784 -0.432,1.488 -1.248,2.928 -0.768,1.44 -1.776,2.688 -0.624,0.768 -1.872,2.064 -1.2,1.248 -2.64,2.688 -1.392,1.44 -2.688,2.736 -1.248,1.248 -2.064,2.112 -0.816,0.816 -0.816,0.912 0,0.24 0.672,0.336 0.816,0.048 1.824,0.096 1.056,0.048 2.4,0.048 1.392,0 2.784,-0.048 1.392,-0.048 2.688,-0.096 1.392,-0.096 2.16,-0.24 0.768,-0.144 1.296,-0.576 0.528,-0.48 1.104,-1.44 0.192,-0.288 0.48,-0.672 0.336,-0.432 0.72,-0.432 0.24,0 0.288,0.192 0.048,0.192 0.048,0.384 0,0.24 -0.288,0.96 -0.24,0.672 -0.576,1.68 -0.336,1.008 -0.576,2.208 -0.144,0.768 -0.48,0.96 -0.336,0.192 -0.576,0.192 z"
       style="font-style:normal;font-variant:normal;font-weight:normal;font-stretch:normal;font-size:48px;line-height:1.25;font-family:'EB Garamond';-inkscape-font-specification:'EB Garamond';fill:#000000;fill-opacity:1;stroke:#000000;stroke-opacity:1"
       id="path93" />
    <path
       d="m 232.32175,363.41646 q 0.24,0 0.432,0.144 0.24,0.144 0.24,0.384 0,0.048 -0.048,0.096 0,0 0,0.048 -0.24,0.48 -0.624,0.768 -0.336,0.24 -0.864,0.24 h -9.504 q -0.24,0 -0.48,-0.192 -0.192,-0.192 -0.192,-0.384 0,-0.336 0.336,-0.72 0.336,-0.384 0.816,-0.384 z m -7.872,-3.456 q -0.624,0 -1.248,-0.48 -0.624,-0.48 -1.008,-1.152 -0.384,-0.672 -0.384,-1.2 0,-0.912 0.288,-1.488 0.336,-0.624 1.488,-1.056 l 3.648,-1.344 q 0.624,-0.24 0.72,-0.384 0.144,-0.192 0.144,-0.768 v -1.104 q 0,-0.72 -0.48,-1.2 -0.432,-0.528 -1.296,-0.528 -0.576,0 -1.248,0.144 -0.672,0.144 -0.816,0.48 -0.096,0.24 -0.096,0.576 0,0.336 0,0.624 0,0.192 -0.384,0.384 -0.384,0.144 -0.912,0.288 -0.48,0.144 -0.864,0.24 -0.144,0.048 -0.24,-0.096 -0.048,-0.144 0.048,-0.384 0.24,-0.528 0.432,-0.912 0.192,-0.432 0.768,-0.912 0.48,-0.432 1.248,-0.864 0.816,-0.48 1.68,-0.816 0.912,-0.336 1.728,-0.336 1.104,0 2.064,0.768 0.96,0.768 0.912,1.776 l -0.144,5.952 q 0,0.624 0.144,1.248 0.192,0.624 0.864,0.624 0.336,0 0.48,-0.096 0.144,-0.144 0.288,-0.192 0.096,-0.096 0.192,-0.144 0.096,-0.048 0.192,-0.048 0.192,0 0.336,0.24 0.144,0.24 0.144,0.48 0,0.048 -0.144,0.24 -0.096,0.192 -0.336,0.432 -0.336,0.336 -0.864,0.672 -0.48,0.336 -1.008,0.336 -1.2,0 -1.728,-0.624 -0.528,-0.672 -0.624,-0.864 h -0.192 q -0.528,0.432 -1.44,0.96 -0.864,0.528 -2.352,0.528 z m 1.344,-1.92 q 0.624,0 1.104,-0.288 0.48,-0.336 0.816,-0.624 0.192,-0.144 0.24,-0.336 0.048,-0.24 0.096,-0.768 l 0.048,-1.392 q 0,-0.432 -0.192,-0.528 -0.144,-0.096 -0.528,0 -1.776,0.48 -2.448,1.152 -0.672,0.624 -0.672,1.152 0,0.816 0.528,1.248 0.528,0.384 1.008,0.384 z"
       style="font-style:normal;font-variant:normal;font-weight:normal;font-stretch:normal;font-size:48px;line-height:1.25;font-family:'EB Garamond';-inkscape-font-specification:'EB Garamond';fill:#000000;fill-opacity:1;stroke:#000000;stroke-opacity:1"
       id="path95" />
    <path
       d="m 254.2945,373.54446 q -2.4,0 -4.368,-1.2 -1.92,-1.248 -3.072,-3.36 -1.104,-2.16 -1.104,-4.8 0,-3.12 1.344,-5.664 1.392,-2.544 3.696,-4.032 2.304,-1.536 5.088,-1.536 3.12,0 5.472,1.68 0.576,0.432 0.576,0.912 0,0.384 -0.336,0.864 -0.336,0.48 -0.816,0.816 -0.48,0.288 -0.912,0.288 -0.24,0 -0.48,-0.144 -0.24,-0.192 -0.528,-0.384 -1.056,-0.816 -2.352,-1.536 -1.296,-0.72 -2.16,-0.72 -2.352,0 -3.84,2.208 -1.44,2.16 -1.44,5.712 0,2.256 0.96,4.08 1.008,1.824 2.64,2.88 1.68,1.056 3.696,1.056 1.392,0 2.4,-0.432 1.008,-0.48 2.16,-1.632 0.096,-0.096 0.24,-0.144 0.144,-0.096 0.24,-0.096 0.528,0 0.528,0.672 0,0.288 -0.192,0.672 -0.144,0.336 -0.528,0.816 -0.768,0.96 -1.824,1.68 -1.056,0.672 -2.352,1.008 -1.248,0.336 -2.736,0.336 z"
       style="font-style:normal;font-variant:normal;font-weight:normal;font-stretch:normal;font-size:48px;line-height:1.25;font-family:'EB Garamond';-inkscape-font-specification:'EB Garamond';fill:#000000;fill-opacity:1;stroke:#000000;stroke-opacity:1"
       id="path97" />
    <path
       d="m 265.6825,372.96846 q -0.432,0 -0.72,-0.144 -0.24,-0.096 -0.24,-0.384 0,-0.384 0.336,-0.528 0.384,-0.144 0.768,-0.24 1.008,-0.24 1.536,-0.576 0.528,-0.384 0.528,-1.248 v -10.416 q 0,-1.296 -0.48,-2.304 -0.432,-1.008 -1.68,-1.2 -0.24,-0.048 -0.384,-0.192 -0.096,-0.144 -0.096,-0.432 0,-0.528 0.432,-0.576 1.92,-0.432 3.168,-1.152 1.248,-0.768 1.872,-1.248 0.432,-0.336 0.672,-0.336 0.288,0 0.288,0.24 0,0.384 -0.144,1.536 -0.096,1.104 -0.192,2.496 -0.096,1.344 -0.096,2.448 v 11.136 q 0,0.816 0.528,1.2 0.576,0.384 1.536,0.624 0.384,0.096 0.72,0.24 0.384,0.144 0.384,0.528 0,0.528 -0.96,0.528 -0.912,0 -1.488,-0.096 -0.528,-0.048 -1.056,-0.096 -0.48,-0.048 -1.344,-0.048 -0.816,0 -1.344,0.048 -0.528,0.048 -1.056,0.096 -0.528,0.096 -1.488,0.096 z m 3.84,-24.912 q -1.008,0 -1.728,-0.672 -0.672,-0.72 -0.672,-1.728 0,-1.056 0.672,-1.728 0.72,-0.72 1.728,-0.72 1.056,0 1.728,0.72 0.72,0.672 0.72,1.728 0,1.008 -0.72,1.728 -0.672,0.672 -1.728,0.672 z"
       style="font-style:normal;font-variant:normal;font-weight:normal;font-stretch:normal;font-size:48px;line-height:1.25;font-family:'EB Garamond';-inkscape-font-specification:'EB Garamond';fill:#000000;fill-opacity:1;stroke:#000000;stroke-opacity:1"
       id="path99" />
    <path
       d="m 277.40125,372.96846 q -0.48,0 -0.72,-0.144 -0.24,-0.096 -0.24,-0.384 0,-0.384 0.288,-0.528 0.336,-0.144 0.816,-0.24 1.104,-0.24 1.584,-0.672 0.48,-0.48 0.48,-1.44 v -13.536 q -0.48,0 -1.104,0 -0.624,-0.048 -1.392,-0.096 -0.144,-0.048 -0.432,-0.336 -0.24,-0.288 -0.24,-0.528 0,-0.096 0.144,-0.144 0.144,-0.096 0.192,-0.144 0.864,-0.432 1.488,-0.768 0.624,-0.336 1.344,-0.672 0,-4.176 1.008,-6.96 1.056,-2.784 2.688,-4.416 1.632,-1.632 3.456,-2.304 1.824,-0.72 3.408,-0.72 2.688,0 3.984,0.816 1.296,0.816 1.296,2.064 0,0.96 -0.48,1.44 -0.48,0.48 -1.152,0.48 -0.432,0 -0.816,-0.336 -0.336,-0.336 -0.816,-0.768 -0.624,-0.624 -1.536,-1.152 -0.912,-0.576 -2.496,-0.576 -2.256,0 -3.744,1.968 -1.44,1.968 -1.44,6.048 v 4.224 q 0,0.288 0.144,0.384 0.192,0.096 0.384,0.096 h 6 q 0.24,0 0.432,0.144 0.192,0.144 0.192,0.384 0,0.336 -0.096,0.72 -0.048,0.384 -0.192,0.672 -0.144,0.384 -0.432,0.384 h -5.52 q -0.576,0 -0.768,0.192 -0.144,0.144 -0.144,0.432 v 13.008 q 0,0.96 0.624,1.44 0.624,0.432 2.544,0.672 1.104,0.144 1.104,0.768 0,0.288 -0.24,0.384 -0.24,0.144 -0.72,0.144 -1.44,0 -2.544,-0.144 -1.104,-0.096 -2.352,-0.096 -0.816,0 -1.344,0.048 -0.528,0.048 -1.104,0.096 -0.576,0.096 -1.536,0.096 z"
       style="font-style:normal;font-variant:normal;font-weight:normal;font-stretch:normal;font-size:48px;line-height:1.25;font-family:'EB Garamond';-inkscape-font-specification:'EB Garamond';fill:#000000;fill-opacity:1;stroke:#000000;stroke-opacity:1"
       id="path101" />
    <path
       d="m 292.9225,372.96846 q -0.48,0 -0.72,-0.144 -0.24,-0.096 -0.24,-0.384 0,-0.384 0.288,-0.48 0.288,-0.144 0.816,-0.288 0.912,-0.24 1.344,-0.672 0.48,-0.48 0.48,-1.152 v -10.32 q 0,-1.296 -0.384,-2.256 -0.384,-0.96 -1.584,-1.2 -0.192,-0.048 -0.336,-0.24 -0.144,-0.192 -0.144,-0.384 0,-0.48 0.432,-0.576 1.248,-0.384 2.592,-1.104 1.392,-0.768 2.16,-1.248 0.288,-0.192 0.432,-0.24 0.192,-0.096 0.288,-0.096 0.24,0 0.24,0.336 0,0.144 -0.048,0.72 0,0.576 -0.048,1.344 0,0.768 -0.048,1.536 0,0.096 0.096,0.096 0.768,-0.96 1.68,-1.68 0.96,-0.72 1.92,-1.152 1.008,-0.432 1.92,-0.432 1.008,0 1.632,0.432 0.672,0.432 0.672,1.104 0,0.48 -0.288,1.056 -0.24,0.576 -0.672,1.008 -0.432,0.432 -0.912,0.432 -0.288,0 -0.624,-0.096 -0.336,-0.144 -0.72,-0.336 -0.384,-0.144 -0.768,-0.288 -0.384,-0.144 -0.768,-0.144 -1.152,0 -2.256,0.816 -1.056,0.816 -1.056,3.216 v 9.696 q 0,0.624 0.672,1.056 0.672,0.384 1.872,0.768 0.528,0.144 0.816,0.288 0.288,0.144 0.288,0.48 0,0.528 -0.96,0.528 -1.44,0 -2.208,-0.144 -0.72,-0.096 -1.968,-0.096 -0.816,0 -1.344,0.048 -0.48,0.048 -1.056,0.096 -0.528,0.096 -1.488,0.096 z"
       style="font-style:normal;font-variant:normal;font-weight:normal;font-stretch:normal;font-size:48px;line-height:1.25;font-family:'EB Garamond';-inkscape-font-specification:'EB Garamond';fill:#000000;fill-opacity:1;stroke:#000000;stroke-opacity:1"
       id="path103" />
    <path
       d="m 312.21775,373.49646 q -0.864,0 -1.776,-0.672 -0.864,-0.672 -1.488,-1.632 -0.576,-0.96 -0.576,-1.824 0,-1.536 0.816,-2.4 0.816,-0.864 2.592,-1.584 l 4.896,-2.016 q 0.96,-0.384 1.104,-0.672 0.192,-0.288 0.24,-1.248 l 0.096,-3.072 q 0.048,-1.248 -0.72,-2.16 -0.72,-0.912 -2.112,-0.912 -0.72,0 -1.44,0.24 -0.72,0.24 -1.2,0.624 -0.288,0.192 -0.384,0.576 -0.096,0.384 -0.096,0.816 0,0.192 0,0.432 0.048,0.24 0.048,0.432 0,0.24 -0.624,0.672 -0.576,0.384 -1.344,0.72 -0.72,0.288 -1.2,0.288 -0.24,0 -0.384,-0.096 -0.144,-0.144 -0.144,-0.336 0,-0.768 0.48,-1.632 0.528,-0.912 1.44,-1.68 1.104,-1.008 2.4,-1.776 1.296,-0.768 2.544,-1.2 1.248,-0.432 2.208,-0.432 1.728,0 2.832,1.248 1.152,1.2 1.104,3.024 l -0.24,11.52 q -0.048,1.008 0.432,1.632 0.528,0.624 1.296,0.624 1.2,0 1.776,-0.528 0.24,-0.24 0.384,-0.24 0.24,0 0.384,0.144 0.144,0.144 0.144,0.384 0,0.528 -0.528,1.056 -0.768,0.768 -1.68,1.2 -0.864,0.48 -1.632,0.48 -2.208,0 -3.504,-2.496 h -0.144 q -1.584,1.296 -3.024,1.872 -1.44,0.624 -2.976,0.624 z m 2.256,-2.304 q 0.96,0 1.632,-0.288 0.672,-0.336 1.2,-0.864 0.24,-0.24 0.384,-0.624 0.192,-0.432 0.24,-1.344 l 0.096,-2.352 q 0.048,-0.528 -0.048,-0.768 -0.096,-0.24 -0.384,-0.24 -0.096,0 -0.336,0.048 -0.24,0.048 -0.624,0.192 -2.544,0.912 -3.552,1.92 -0.96,0.96 -0.96,1.776 0,1.248 0.72,1.92 0.768,0.624 1.632,0.624 z"
       style="font-style:normal;font-variant:normal;font-weight:normal;font-stretch:normal;font-size:48px;line-height:1.25;font-family:'EB Garamond';-inkscape-font-specification:'EB Garamond';fill:#000000;fill-opacity:1;stroke:#000000;stroke-opacity:1"
       id="path105" />
  </g>
  <g
     aria-label="Tolerancia"
     id="text3345"
     style="font-style:normal;font-variant:normal;font-weight:normal;font-stretch:normal;font-size:48px;line-height:0%;font-family:'Times New Roman';text-align:start;writing-mode:lr-tb;text-anchor:start;fill:#000000;fill-opacity:1;stroke:#000000;stroke-width:1px;stroke-linecap:butt;stroke-linejoin:miter;stroke-opacity:1">
    <path
       d="m 647.4675,298.06446 q -0.624,0 -1.008,-0.144 -0.384,-0.096 -0.384,-0.384 0,-0.336 0.384,-0.528 0.384,-0.192 1.2,-0.336 1.824,-0.336 2.784,-1.152 0.96,-0.864 0.96,-2.592 v -18.624 q 0,-2.208 -0.096,-3.36 -0.096,-1.2 -0.336,-1.68 -0.192,-0.48 -0.576,-0.528 -0.672,-0.144 -1.44,-0.144 -0.72,-0.048 -1.968,-0.048 h -2.256 q -1.152,0 -2.304,0.48 -1.104,0.432 -1.632,1.392 -0.144,0.24 -0.48,0.72 -0.336,0.432 -0.72,0.768 -0.384,0.336 -0.768,0.336 -0.192,0 -0.288,-0.192 -0.048,-0.192 -0.048,-0.432 0,-0.48 0.24,-0.96 0.672,-1.392 0.96,-2.448 0.336,-1.104 0.528,-2.592 0.096,-0.816 0.336,-0.96 0.288,-0.144 0.48,-0.144 0.192,0 0.576,0.576 0.432,0.576 0.624,0.96 0.288,0.48 1.296,0.72 1.056,0.24 2.064,0.24 h 16.896 q 1.68,0 2.736,-0.192 1.056,-0.192 1.824,-0.528 0.576,-0.288 0.912,-0.624 0.384,-0.336 0.96,-0.336 0.144,0 0.24,0.384 0.096,0.336 0.096,0.72 0,0.24 -0.096,0.672 -0.048,0.432 -0.096,0.672 -0.144,0.864 -0.288,1.248 -0.096,0.384 -0.144,0.672 -0.048,0.288 -0.048,0.912 v 0.576 q 0,0.432 -0.192,1.008 -0.192,0.528 -0.576,0.528 -0.336,0 -0.528,-0.528 -0.192,-0.528 -0.384,-1.44 -0.192,-1.008 -1.152,-1.584 -0.96,-0.624 -3.264,-0.624 h -4.848 q -1.056,0 -1.584,0.288 -0.528,0.288 -0.672,1.44 -0.144,1.152 -0.144,3.792 v 18.864 q 0,1.728 1.008,2.592 1.008,0.816 2.784,1.152 0.816,0.144 1.2,0.336 0.384,0.192 0.384,0.528 0,0.288 -0.384,0.384 -0.384,0.144 -1.008,0.144 -1.296,0 -2.16,-0.096 -0.816,-0.048 -1.584,-0.096 -0.768,-0.048 -1.872,-0.048 -1.2,0 -2.112,0.048 -0.864,0.048 -1.824,0.096 -0.912,0.096 -2.208,0.096 z"
       style="font-style:normal;font-variant:normal;font-weight:normal;font-stretch:normal;font-size:48px;line-height:1.25;font-family:'EB Garamond';-inkscape-font-specification:'EB Garamond';fill:#000000;fill-opacity:1;stroke:#000000;stroke-opacity:1"
       id="path108" />
    <path
       d="m 675.52125,298.49646 q -2.688,0 -4.848,-1.248 -2.16,-1.248 -3.456,-3.408 -1.248,-2.208 -1.248,-4.992 0,-2.016 0.768,-3.936 0.816,-1.92 2.256,-3.504 1.44,-1.584 3.36,-2.496 1.92,-0.96 4.128,-0.96 2.784,0 4.992,1.344 2.256,1.344 3.552,3.552 1.344,2.16 1.344,4.752 0,2.784 -1.248,5.28 -1.2,2.496 -3.6,4.08 -2.4,1.536 -6,1.536 z m 1.008,-1.44 q 1.632,0 2.928,-0.624 1.296,-0.624 2.016,-2.016 0.576,-1.104 0.768,-2.688 0.192,-1.584 0.192,-2.976 0,-2.304 -0.864,-4.416 -0.816,-2.16 -2.352,-3.504 -1.488,-1.392 -3.552,-1.392 -1.296,0 -2.352,0.432 -1.008,0.384 -1.872,1.488 -0.96,1.2 -1.248,2.928 -0.288,1.728 -0.288,3.456 0,2.352 0.864,4.512 0.864,2.112 2.352,3.456 1.488,1.344 3.408,1.344 z"
       style="font-style:normal;font-variant:normal;font-weight:normal;font-stretch:normal;font-size:48px;line-height:1.25;font-family:'EB Garamond';-inkscape-font-specification:'EB Garamond';fill:#000000;fill-opacity:1;stroke:#000000;stroke-opacity:1"
       id="path110" />
    <path
       d="m 689.13,297.96846 q -0.24,0 -0.624,-0.096 -0.336,-0.048 -0.336,-0.336 0,-0.384 0.336,-0.528 0.384,-0.192 0.768,-0.336 0.72,-0.24 1.392,-0.528 0.672,-0.336 0.672,-1.296 v -24.192 q 0,-1.392 -0.528,-2.304 -0.48,-0.96 -1.68,-1.2 -0.384,-0.096 -0.384,-0.624 0,-0.48 0.336,-0.576 1.248,-0.288 2.16,-0.576 0.912,-0.336 1.68,-0.672 0.816,-0.336 1.584,-0.624 0.192,-0.096 0.288,-0.096 0.096,0 0.144,0.144 0.096,0.096 0.096,0.192 0,0.432 -0.192,1.872 -0.144,1.392 -0.144,4.656 v 24 q 0,0.96 0.672,1.296 0.672,0.288 1.392,0.528 0.384,0.144 0.72,0.336 0.384,0.144 0.384,0.528 0,0.288 -0.384,0.336 -0.336,0.096 -0.576,0.096 -0.912,0 -1.488,-0.096 -0.528,-0.048 -1.056,-0.096 -0.48,-0.048 -1.344,-0.048 -0.816,0 -1.344,0.048 -0.528,0.048 -1.056,0.096 -0.528,0.096 -1.488,0.096 z"
       style="font-style:normal;font-variant:normal;font-weight:normal;font-stretch:normal;font-size:48px;line-height:1.25;font-family:'EB Garamond';-inkscape-font-specification:'EB Garamond';fill:#000000;fill-opacity:1;stroke:#000000;stroke-opacity:1"
       id="path112" />
    <path
       d="m 709.01325,298.54446 q -2.64,0 -4.608,-1.296 -1.968,-1.296 -3.072,-3.648 -1.104,-2.4 -1.104,-5.52 0,-2.784 1.248,-5.04 1.296,-2.304 3.408,-3.696 2.112,-1.392 4.608,-1.392 1.92,0 3.408,0.768 1.488,0.768 2.304,2.16 0.864,1.344 0.864,3.12 0,1.488 -1.44,1.488 h -10.128 q -0.672,0 -0.96,0.384 -0.24,0.336 -0.24,1.392 0,2.304 1.008,4.224 1.008,1.872 2.688,3.024 1.68,1.104 3.696,1.104 1.44,0 2.592,-0.528 1.2,-0.576 2.112,-1.632 0.192,-0.24 0.288,-0.288 0.096,-0.096 0.24,-0.096 0.384,0 0.384,0.48 0,0.912 -0.864,2.016 -0.72,0.912 -1.728,1.584 -1.008,0.672 -2.208,1.008 -1.2,0.384 -2.496,0.384 z m -4.416,-14.544 h 4.368 q 1.152,0 1.968,-0.048 0.816,-0.048 1.584,-0.192 0.24,-0.048 0.288,-0.288 0.096,-0.288 0.096,-0.768 0,-1.392 -1.248,-2.352 -1.2,-1.008 -2.88,-1.008 -1.104,0 -2.208,0.672 -1.104,0.624 -1.824,1.584 -0.72,0.96 -0.72,1.92 0,0.48 0.576,0.48 z"
       style="font-style:normal;font-variant:normal;font-weight:normal;font-stretch:normal;font-size:48px;line-height:1.25;font-family:'EB Garamond';-inkscape-font-specification:'EB Garamond';fill:#000000;fill-opacity:1;stroke:#000000;stroke-opacity:1"
       id="path114" />
    <path
       d="m 719.89125,297.96846 q -0.48,0 -0.72,-0.144 -0.24,-0.096 -0.24,-0.384 0,-0.384 0.288,-0.48 0.288,-0.144 0.816,-0.288 0.912,-0.24 1.344,-0.672 0.48,-0.48 0.48,-1.152 v -10.32 q 0,-1.296 -0.384,-2.256 -0.384,-0.96 -1.584,-1.2 -0.192,-0.048 -0.336,-0.24 -0.144,-0.192 -0.144,-0.384 0,-0.48 0.432,-0.576 1.248,-0.384 2.592,-1.104 1.392,-0.768 2.16,-1.248 0.288,-0.192 0.432,-0.24 0.192,-0.096 0.288,-0.096 0.24,0 0.24,0.336 0,0.144 -0.048,0.72 0,0.576 -0.048,1.344 0,0.768 -0.048,1.536 0,0.096 0.096,0.096 0.768,-0.96 1.68,-1.68 0.96,-0.72 1.92,-1.152 1.008,-0.432 1.92,-0.432 1.008,0 1.632,0.432 0.672,0.432 0.672,1.104 0,0.48 -0.288,1.056 -0.24,0.576 -0.672,1.008 -0.432,0.432 -0.912,0.432 -0.288,0 -0.624,-0.096 -0.336,-0.144 -0.72,-0.336 -0.384,-0.144 -0.768,-0.288 -0.384,-0.144 -0.768,-0.144 -1.152,0 -2.256,0.816 -1.056,0.816 -1.056,3.216 v 9.696 q 0,0.624 0.672,1.056 0.672,0.384 1.872,0.768 0.528,0.144 0.816,0.288 0.288,0.144 0.288,0.48 0,0.528 -0.96,0.528 -1.44,0 -2.208,-0.144 -0.72,-0.096 -1.968,-0.096 -0.816,0 -1.344,0.048 -0.48,0.048 -1.056,0.096 -0.528,0.096 -1.488,0.096 z"
       style="font-style:normal;font-variant:normal;font-weight:normal;font-stretch:normal;font-size:48px;line-height:1.25;font-family:'EB Garamond';-inkscape-font-specification:'EB Garamond';fill:#000000;fill-opacity:1;stroke:#000000;stroke-opacity:1"
       id="path116" />
    <path
       d="m 739.1865,298.49646 q -0.864,0 -1.776,-0.672 -0.864,-0.672 -1.488,-1.632 -0.576,-0.96 -0.576,-1.824 0,-1.536 0.816,-2.4 0.816,-0.864 2.592,-1.584 l 4.896,-2.016 q 0.96,-0.384 1.104,-0.672 0.192,-0.288 0.24,-1.248 l 0.096,-3.072 q 0.048,-1.248 -0.72,-2.16 -0.72,-0.912 -2.112,-0.912 -0.72,0 -1.44,0.24 -0.72,0.24 -1.2,0.624 -0.288,0.192 -0.384,0.576 -0.096,0.384 -0.096,0.816 0,0.192 0,0.432 0.048,0.24 0.048,0.432 0,0.24 -0.624,0.672 -0.576,0.384 -1.344,0.72 -0.72,0.288 -1.2,0.288 -0.24,0 -0.384,-0.096 -0.144,-0.144 -0.144,-0.336 0,-0.768 0.48,-1.632 0.528,-0.912 1.44,-1.68 1.104,-1.008 2.4,-1.776 1.296,-0.768 2.544,-1.2 1.248,-0.432 2.208,-0.432 1.728,0 2.832,1.248 1.152,1.2 1.104,3.024 l -0.24,11.52 q -0.048,1.008 0.432,1.632 0.528,0.624 1.296,0.624 1.2,0 1.776,-0.528 0.24,-0.24 0.384,-0.24 0.24,0 0.384,0.144 0.144,0.144 0.144,0.384 0,0.528 -0.528,1.056 -0.768,0.768 -1.68,1.2 -0.864,0.48 -1.632,0.48 -2.208,0 -3.504,-2.496 h -0.144 q -1.584,1.296 -3.024,1.872 -1.44,0.624 -2.976,0.624 z m 2.256,-2.304 q 0.96,0 1.632,-0.288 0.672,-0.336 1.2,-0.864 0.24,-0.24 0.384,-0.624 0.192,-0.432 0.24,-1.344 l 0.096,-2.352 q 0.048,-0.528 -0.048,-0.768 -0.096,-0.24 -0.384,-0.24 -0.096,0 -0.336,0.048 -0.24,0.048 -0.624,0.192 -2.544,0.912 -3.552,1.92 -0.96,0.96 -0.96,1.776 0,1.248 0.72,1.92 0.768,0.624 1.632,0.624 z"
       style="font-style:normal;font-variant:normal;font-weight:normal;font-stretch:normal;font-size:48px;line-height:1.25;font-family:'EB Garamond';-inkscape-font-specification:'EB Garamond';fill:#000000;fill-opacity:1;stroke:#000000;stroke-opacity:1"
       id="path118" />
    <path
       d="m 754.8075,297.96846 q -0.432,0 -0.72,-0.144 -0.24,-0.096 -0.24,-0.384 0,-0.384 0.288,-0.48 0.288,-0.144 0.816,-0.288 0.72,-0.192 1.392,-0.528 0.672,-0.336 0.672,-1.296 v -10.32 q 0,-1.296 -0.288,-2.208 -0.24,-0.912 -1.488,-1.248 -0.192,-0.096 -0.336,-0.192 -0.144,-0.144 -0.144,-0.432 0,-0.528 0.432,-0.576 1.68,-0.432 2.736,-1.056 1.056,-0.624 2.064,-1.392 0.144,-0.096 0.24,-0.144 0.144,-0.096 0.288,-0.096 0.096,0 0.144,0.096 0.096,0.096 0.096,0.24 0,0.336 -0.144,1.392 -0.096,1.008 -0.096,1.68 0,0.192 0,0.384 0.048,0.144 0.096,0.192 1.68,-1.584 3.552,-2.4 1.92,-0.816 4.176,-0.816 2.352,0 3.888,1.92 1.536,1.92 1.536,4.752 v 10.224 q 0,0.96 0.672,1.296 0.672,0.288 1.392,0.528 0.384,0.144 0.72,0.336 0.384,0.144 0.384,0.528 0,0.288 -0.336,0.336 -0.336,0.096 -0.624,0.096 -0.96,0 -1.488,-0.096 -0.528,-0.048 -1.008,-0.096 -0.48,-0.048 -1.344,-0.048 -0.816,0 -1.344,0.048 -0.528,0.048 -1.104,0.096 -0.528,0.096 -1.488,0.096 -0.24,0 -0.624,-0.096 -0.336,-0.048 -0.336,-0.336 0,-0.384 0.336,-0.528 0.384,-0.192 0.768,-0.336 0.72,-0.24 1.392,-0.528 0.672,-0.336 0.672,-1.296 v -10.08 q 0,-2.112 -1.2,-3.264 -1.152,-1.2 -3.12,-1.248 -1.728,0 -3.024,0.576 -1.296,0.528 -2.304,1.344 -0.192,0.192 -0.288,0.528 -0.096,0.288 -0.096,0.576 v 11.568 q 0,0.96 0.672,1.296 0.672,0.336 1.392,0.528 1.104,0.288 1.104,0.768 0,0.288 -0.24,0.384 -0.24,0.144 -0.72,0.144 -0.96,0 -1.536,-0.096 -0.528,-0.048 -1.008,-0.096 -0.48,-0.048 -1.344,-0.048 -0.816,0 -1.344,0.048 -0.48,0.048 -1.056,0.096 -0.528,0.096 -1.488,0.096 z"
       style="font-style:normal;font-variant:normal;font-weight:normal;font-stretch:normal;font-size:48px;line-height:1.25;font-family:'EB Garamond';-inkscape-font-specification:'EB Garamond';fill:#000000;fill-opacity:1;stroke:#000000;stroke-opacity:1"
       id="path120" />
    <path
       d="m 788.232,298.54446 q -2.4,0 -4.368,-1.2 -1.92,-1.248 -3.072,-3.36 -1.104,-2.16 -1.104,-4.8 0,-3.12 1.344,-5.664 1.392,-2.544 3.696,-4.032 2.304,-1.536 5.088,-1.536 3.12,0 5.472,1.68 0.576,0.432 0.576,0.912 0,0.384 -0.336,0.864 -0.336,0.48 -0.816,0.816 -0.48,0.288 -0.912,0.288 -0.24,0 -0.48,-0.144 -0.24,-0.192 -0.528,-0.384 -1.056,-0.816 -2.352,-1.536 -1.296,-0.72 -2.16,-0.72 -2.352,0 -3.84,2.208 -1.44,2.16 -1.44,5.712 0,2.256 0.96,4.08 1.008,1.824 2.64,2.88 1.68,1.056 3.696,1.056 1.392,0 2.4,-0.432 1.008,-0.48 2.16,-1.632 0.096,-0.096 0.24,-0.144 0.144,-0.096 0.24,-0.096 0.528,0 0.528,0.672 0,0.288 -0.192,0.672 -0.144,0.336 -0.528,0.816 -0.768,0.96 -1.824,1.68 -1.056,0.672 -2.352,1.008 -1.248,0.336 -2.736,0.336 z"
       style="font-style:normal;font-variant:normal;font-weight:normal;font-stretch:normal;font-size:48px;line-height:1.25;font-family:'EB Garamond';-inkscape-font-specification:'EB Garamond';fill:#000000;fill-opacity:1;stroke:#000000;stroke-opacity:1"
       id="path122" />
    <path
       d="m 799.62,297.96846 q -0.432,0 -0.72,-0.144 -0.24,-0.096 -0.24,-0.384 0,-0.384 0.336,-0.528 0.384,-0.144 0.768,-0.24 1.008,-0.24 1.536,-0.576 0.528,-0.384 0.528,-1.248 v -10.416 q 0,-1.296 -0.48,-2.304 -0.432,-1.008 -1.68,-1.2 -0.24,-0.048 -0.384,-0.192 -0.096,-0.144 -0.096,-0.432 0,-0.528 0.432,-0.576 1.92,-0.432 3.168,-1.152 1.248,-0.768 1.872,-1.248 0.432,-0.336 0.672,-0.336 0.288,0 0.288,0.24 0,0.384 -0.144,1.536 -0.096,1.104 -0.192,2.496 -0.096,1.344 -0.096,2.448 v 11.136 q 0,0.816 0.528,1.2 0.576,0.384 1.536,0.624 0.384,0.096 0.72,0.24 0.384,0.144 0.384,0.528 0,0.528 -0.96,0.528 -0.912,0 -1.488,-0.096 -0.528,-0.048 -1.056,-0.096 -0.48,-0.048 -1.344,-0.048 -0.816,0 -1.344,0.048 -0.528,0.048 -1.056,0.096 -0.528,0.096 -1.488,0.096 z m 3.84,-24.912 q -1.008,0 -1.728,-0.672 -0.672,-0.72 -0.672,-1.728 0,-1.056 0.672,-1.728 0.72,-0.72 1.728,-0.72 1.056,0 1.728,0.72 0.72,0.672 0.72,1.728 0,1.008 -0.72,1.728 -0.672,0.672 -1.728,0.672 z"
       style="font-style:normal;font-variant:normal;font-weight:normal;font-stretch:normal;font-size:48px;line-height:1.25;font-family:'EB Garamond';-inkscape-font-specification:'EB Garamond';fill:#000000;fill-opacity:1;stroke:#000000;stroke-opacity:1"
       id="path124" />
    <path
       d="m 814.84275,298.49646 q -0.864,0 -1.776,-0.672 -0.864,-0.672 -1.488,-1.632 -0.576,-0.96 -0.576,-1.824 0,-1.536 0.816,-2.4 0.816,-0.864 2.592,-1.584 l 4.896,-2.016 q 0.96,-0.384 1.104,-0.672 0.192,-0.288 0.24,-1.248 l 0.096,-3.072 q 0.048,-1.248 -0.72,-2.16 -0.72,-0.912 -2.112,-0.912 -0.72,0 -1.44,0.24 -0.72,0.24 -1.2,0.624 -0.288,0.192 -0.384,0.576 -0.096,0.384 -0.096,0.816 0,0.192 0,0.432 0.048,0.24 0.048,0.432 0,0.24 -0.624,0.672 -0.576,0.384 -1.344,0.72 -0.72,0.288 -1.2,0.288 -0.24,0 -0.384,-0.096 -0.144,-0.144 -0.144,-0.336 0,-0.768 0.48,-1.632 0.528,-0.912 1.44,-1.68 1.104,-1.008 2.4,-1.776 1.296,-0.768 2.544,-1.2 1.248,-0.432 2.208,-0.432 1.728,0 2.832,1.248 1.152,1.2 1.104,3.024 l -0.24,11.52 q -0.048,1.008 0.432,1.632 0.528,0.624 1.296,0.624 1.2,0 1.776,-0.528 0.24,-0.24 0.384,-0.24 0.24,0 0.384,0.144 0.144,0.144 0.144,0.384 0,0.528 -0.528,1.056 -0.768,0.768 -1.68,1.2 -0.864,0.48 -1.632,0.48 -2.208,0 -3.504,-2.496 h -0.144 q -1.584,1.296 -3.024,1.872 -1.44,0.624 -2.976,0.624 z m 2.256,-2.304 q 0.96,0 1.632,-0.288 0.672,-0.336 1.2,-0.864 0.24,-0.24 0.384,-0.624 0.192,-0.432 0.24,-1.344 l 0.096,-2.352 q 0.048,-0.528 -0.048,-0.768 -0.096,-0.24 -0.384,-0.24 -0.096,0 -0.336,0.048 -0.24,0.048 -0.624,0.192 -2.544,0.912 -3.552,1.92 -0.96,0.96 -0.96,1.776 0,1.248 0.72,1.92 0.768,0.624 1.632,0.624 z"
       style="font-style:normal;font-variant:normal;font-weight:normal;font-stretch:normal;font-size:48px;line-height:1.25;font-family:'EB Garamond';-inkscape-font-specification:'EB Garamond';fill:#000000;fill-opacity:1;stroke:#000000;stroke-opacity:1"
       id="path126" />
  </g>
  <g
     aria-label="Multiplicador"
     id="text3349"
     style="font-style:normal;font-variant:normal;font-weight:normal;font-stretch:normal;font-size:48px;line-height:0%;font-family:'Times New Roman';text-align:start;writing-mode:lr-tb;text-anchor:start;fill:#000000;fill-opacity:1;stroke:#000000;stroke-width:1px;stroke-linecap:butt;stroke-linejoin:miter;stroke-opacity:1">
    <path
       d="m 539.4995,373.06446 q -0.624,0 -1.008,-0.144 -0.384,-0.096 -0.384,-0.384 0,-0.336 0.384,-0.528 0.384,-0.192 1.2,-0.336 1.2,-0.24 1.968,-1.152 0.768,-0.912 1.008,-2.592 0.576,-4.32 1.008,-8.208 0.432,-3.936 0.672,-7.056 0.288,-3.168 0.288,-5.184 0,-0.384 0,-0.816 0,-0.432 -0.048,-0.768 -0.048,-0.384 -0.144,-0.768 -0.096,-0.432 -0.576,-0.816 -0.864,-0.72 -1.68,-0.96 -0.816,-0.288 -1.92,-0.48 -0.48,-0.096 -0.768,-0.336 -0.288,-0.288 -0.288,-0.624 0,-0.384 0.432,-0.432 0.48,-0.096 1.2,-0.096 0.48,0 1.44,0.048 1.008,0.048 2.16,0.144 1.152,0.096 2.112,0.144 1.008,0.048 1.488,0.048 0.336,0 0.576,0.192 0.24,0.192 0.336,0.576 0.24,0.864 0.48,1.824 0.24,0.96 0.576,1.872 l 7.584,19.248 q 0.144,0.336 0.528,0.432 0.384,0.048 0.576,-0.288 l 9.456,-19.68 q 0.24,-0.816 0.48,-1.824 0.24,-1.008 0.384,-1.776 0.144,-0.624 0.48,-0.624 h 1.728 q 1.44,0 3.024,-0.192 1.632,-0.192 2.448,-0.192 0.24,0 0.624,0.096 0.384,0.048 0.384,0.384 0,0.336 -0.288,0.528 -0.24,0.192 -0.96,0.48 -0.624,0.24 -1.392,0.528 -0.768,0.288 -1.44,0.576 -0.48,0.192 -0.816,0.672 -0.336,0.432 -0.336,0.96 0,3.36 0.096,6.336 0.144,2.928 0.288,5.664 0.144,2.688 0.336,5.328 0.192,2.64 0.336,5.376 0.096,1.488 0.96,2.304 0.864,0.768 2.64,1.104 0.816,0.144 1.2,0.336 0.384,0.192 0.384,0.528 0,0.288 -0.384,0.384 -0.384,0.144 -1.008,0.144 -1.296,0 -2.16,-0.096 -0.816,-0.048 -1.584,-0.096 -0.768,-0.048 -1.872,-0.048 -0.96,0 -1.632,0.048 -0.624,0.048 -1.392,0.096 -0.72,0.096 -2.016,0.096 -0.624,0 -1.008,-0.144 -0.384,-0.096 -0.384,-0.384 0,-0.336 0.384,-0.528 0.384,-0.24 1.2,-0.336 1.392,-0.192 1.92,-0.96 0.528,-0.816 0.528,-2.496 0,-3.456 -0.096,-6.24 -0.048,-2.784 -0.192,-5.472 -0.144,-2.736 -0.288,-5.952 -0.048,-0.528 -0.288,-0.48 -0.24,0 -0.48,0.48 l -11.04,22.512 q -0.096,0.24 -0.432,0.24 -0.336,0.048 -0.432,-0.288 -1.872,-5.616 -4.032,-11.04 -2.112,-5.472 -4.8,-11.76 -0.096,-0.24 -0.336,-0.24 -0.24,0 -0.288,0.24 -0.432,3.36 -0.816,6.192 -0.336,2.784 -0.528,5.52 -0.192,2.736 -0.192,6 0,1.296 0.816,2.4 0.816,1.056 2.304,1.344 0.816,0.144 1.2,0.336 0.384,0.192 0.384,0.528 0,0.288 -0.384,0.384 -0.384,0.144 -1.008,0.144 -1.296,0 -1.968,-0.096 -0.624,-0.048 -1.152,-0.096 -0.48,-0.048 -1.392,-0.048 -0.864,0 -1.344,0.048 -0.48,0.048 -1.104,0.096 -0.624,0.096 -1.92,0.096 z"
       style="font-style:normal;font-variant:normal;font-weight:normal;font-stretch:normal;font-size:48px;line-height:1.25;font-family:'EB Garamond';-inkscape-font-specification:'EB Garamond';fill:#000000;fill-opacity:1;stroke:#000000;stroke-opacity:1"
       id="path129" />
    <path
       d="m 597.98225,373.73646 q -0.336,0 -0.336,-0.384 0,-0.48 0.096,-1.392 0.144,-0.96 0.144,-1.584 0,-0.096 0,-0.144 0,-0.096 0,-0.144 -1.872,1.824 -3.792,2.64 -1.872,0.768 -4.128,0.768 -1.536,0 -2.784,-0.672 -1.248,-0.624 -1.968,-1.872 -0.72,-1.296 -0.72,-3.168 v -9.744 q 0,-1.056 -0.48,-1.68 -0.48,-0.624 -1.584,-1.056 -0.24,-0.096 -0.432,-0.24 -0.192,-0.144 -0.192,-0.528 0,-0.432 0.192,-0.576 0.24,-0.144 0.528,-0.192 1.632,-0.096 2.496,-0.24 0.912,-0.192 2.256,-0.528 0.144,-0.048 0.192,-0.048 0.096,0 0.192,0 0.528,0 0.48,0.672 -0.144,1.104 -0.24,1.872 -0.048,0.72 -0.048,1.824 v 9.36 q 0,1.152 0.576,2.16 0.576,0.96 1.488,1.584 0.96,0.624 1.968,0.624 1.248,0 2.16,-0.144 0.96,-0.144 1.872,-0.816 0.528,-0.384 1.344,-1.248 0.816,-0.864 0.816,-2.352 v -8.784 q 0,-1.008 -0.624,-1.488 -0.576,-0.528 -1.344,-0.72 -0.768,-0.192 -1.248,-0.192 -0.432,0 -0.72,-0.144 -0.288,-0.192 -0.288,-0.672 0,-0.432 0.288,-0.576 0.336,-0.144 0.72,-0.144 1.488,-0.048 2.448,-0.096 1.008,-0.096 1.776,-0.24 0.816,-0.192 1.68,-0.432 0.096,-0.048 0.24,-0.048 0.144,-0.048 0.24,-0.048 0.624,0 0.624,0.528 0,0.048 -0.048,0.192 0,0.096 -0.048,0.24 -0.048,0.144 -0.144,0.816 -0.048,0.672 -0.144,1.392 -0.048,0.72 -0.048,1.104 v 11.088 q 0,1.296 0.24,1.872 0.288,0.528 0.624,0.528 0.384,0 1.104,-0.048 0.768,-0.096 1.104,-0.096 0.24,0 0.48,0.096 0.24,0.096 0.24,0.528 0,0.384 -0.192,0.528 -0.192,0.096 -0.48,0.144 -1.872,0.24 -3.216,0.72 -1.344,0.48 -2.4,0.912 -0.144,0.048 -0.432,0.144 -0.288,0.144 -0.528,0.144 z"
       style="font-style:normal;font-variant:normal;font-weight:normal;font-stretch:normal;font-size:48px;line-height:1.25;font-family:'EB Garamond';-inkscape-font-specification:'EB Garamond';fill:#000000;fill-opacity:1;stroke:#000000;stroke-opacity:1"
       id="path131" />
    <path
       d="m 607.59875,372.96846 q -0.24,0 -0.624,-0.096 -0.336,-0.048 -0.336,-0.336 0,-0.384 0.336,-0.528 0.384,-0.192 0.768,-0.336 0.72,-0.24 1.392,-0.528 0.672,-0.336 0.672,-1.296 v -24.192 q 0,-1.392 -0.528,-2.304 -0.48,-0.96 -1.68,-1.2 -0.384,-0.096 -0.384,-0.624 0,-0.48 0.336,-0.576 1.248,-0.288 2.16,-0.576 0.912,-0.336 1.68,-0.672 0.816,-0.336 1.584,-0.624 0.192,-0.096 0.288,-0.096 0.096,0 0.144,0.144 0.096,0.096 0.096,0.192 0,0.432 -0.192,1.872 -0.144,1.392 -0.144,4.656 v 24 q 0,0.96 0.672,1.296 0.672,0.288 1.392,0.528 0.384,0.144 0.72,0.336 0.384,0.144 0.384,0.528 0,0.288 -0.384,0.336 -0.336,0.096 -0.576,0.096 -0.912,0 -1.488,-0.096 -0.528,-0.048 -1.056,-0.096 -0.48,-0.048 -1.344,-0.048 -0.816,0 -1.344,0.048 -0.528,0.048 -1.056,0.096 -0.528,0.096 -1.488,0.096 z"
       style="font-style:normal;font-variant:normal;font-weight:normal;font-stretch:normal;font-size:48px;line-height:1.25;font-family:'EB Garamond';-inkscape-font-specification:'EB Garamond';fill:#000000;fill-opacity:1;stroke:#000000;stroke-opacity:1"
       id="path133" />
    <path
       d="m 626.33,373.49646 q -2.352,0 -3.696,-1.44 -1.296,-1.44 -1.296,-4.272 v -11.136 q 0,-0.384 -0.288,-0.528 -0.288,-0.192 -1.248,-0.192 h -0.288 q -0.24,0 -0.432,-0.288 -0.144,-0.336 -0.144,-0.672 0,-0.096 0.144,-0.288 0.144,-0.192 0.192,-0.24 0.96,-0.672 1.728,-1.344 0.816,-0.672 1.44,-1.296 0.672,-0.672 1.104,-1.2 0.24,-0.24 0.384,-0.384 0.192,-0.192 0.432,-0.192 0.24,0 0.432,0.096 0.24,0.096 0.192,0.432 l -0.24,2.16 q -0.048,0.528 0.24,0.72 0.288,0.192 0.912,0.192 h 5.472 q 0.192,0 0.336,0.336 0.144,0.288 0.144,0.72 0,0.432 -0.144,0.864 -0.144,0.384 -0.336,0.384 h -4.752 q -1.2,0 -1.584,0.192 -0.336,0.192 -0.336,1.152 v 9.456 q 0,1.92 0.816,3.024 0.816,1.104 2.352,1.104 1.392,0 2.16,-0.192 0.768,-0.24 1.392,-0.672 0.096,-0.096 0.192,-0.096 0.192,0 0.24,0.24 0.096,0.192 0.096,0.432 0,0.24 -0.816,0.96 -0.768,0.72 -2.064,1.344 -1.248,0.624 -2.736,0.624 z"
       style="font-style:normal;font-variant:normal;font-weight:normal;font-stretch:normal;font-size:48px;line-height:1.25;font-family:'EB Garamond';-inkscape-font-specification:'EB Garamond';fill:#000000;fill-opacity:1;stroke:#000000;stroke-opacity:1"
       id="path135" />
    <path
       d="m 634.46375,372.96846 q -0.432,0 -0.72,-0.144 -0.24,-0.096 -0.24,-0.384 0,-0.384 0.336,-0.528 0.384,-0.144 0.768,-0.24 1.008,-0.24 1.536,-0.576 0.528,-0.384 0.528,-1.248 v -10.416 q 0,-1.296 -0.48,-2.304 -0.432,-1.008 -1.68,-1.2 -0.24,-0.048 -0.384,-0.192 -0.096,-0.144 -0.096,-0.432 0,-0.528 0.432,-0.576 1.92,-0.432 3.168,-1.152 1.248,-0.768 1.872,-1.248 0.432,-0.336 0.672,-0.336 0.288,0 0.288,0.24 0,0.384 -0.144,1.536 -0.096,1.104 -0.192,2.496 -0.096,1.344 -0.096,2.448 v 11.136 q 0,0.816 0.528,1.2 0.576,0.384 1.536,0.624 0.384,0.096 0.72,0.24 0.384,0.144 0.384,0.528 0,0.528 -0.96,0.528 -0.912,0 -1.488,-0.096 -0.528,-0.048 -1.056,-0.096 -0.48,-0.048 -1.344,-0.048 -0.816,0 -1.344,0.048 -0.528,0.048 -1.056,0.096 -0.528,0.096 -1.488,0.096 z m 3.84,-24.912 q -1.008,0 -1.728,-0.672 -0.672,-0.72 -0.672,-1.728 0,-1.056 0.672,-1.728 0.72,-0.72 1.728,-0.72 1.056,0 1.728,0.72 0.72,0.672 0.72,1.728 0,1.008 -0.72,1.728 -0.672,0.672 -1.728,0.672 z"
       style="font-style:normal;font-variant:normal;font-weight:normal;font-stretch:normal;font-size:48px;line-height:1.25;font-family:'EB Garamond';-inkscape-font-specification:'EB Garamond';fill:#000000;fill-opacity:1;stroke:#000000;stroke-opacity:1"
       id="path137" />
    <path
       d="m 645.9905,386.50446 q -0.24,0 -0.624,-0.096 -0.384,-0.048 -0.384,-0.336 0,-0.384 0.336,-0.576 0.384,-0.144 0.768,-0.288 0.72,-0.24 1.392,-0.576 0.672,-0.288 0.672,-1.248 v -24.336 q 0,-0.384 -0.24,-1.152 -0.192,-0.768 -0.672,-1.488 -0.48,-0.72 -1.296,-0.864 -0.192,-0.048 -0.288,-0.24 -0.096,-0.192 -0.096,-0.384 0,-0.24 0.096,-0.384 0.096,-0.144 0.24,-0.192 1.824,-0.432 3.12,-0.912 1.296,-0.528 2.448,-1.008 0.048,0 0.048,0 0,-0.048 0.048,-0.048 0.096,0 0.192,0.144 0.096,0.144 0.096,0.288 0,0.432 -0.144,1.392 -0.096,0.912 -0.096,1.488 0,0.384 0.048,0.432 0.48,-0.48 1.728,-1.2 1.296,-0.768 2.928,-1.344 1.632,-0.624 3.12,-0.624 2.496,0 4.224,1.344 1.776,1.296 2.688,3.408 0.96,2.064 0.96,4.32 0,2.16 -0.816,4.224 -0.816,2.016 -2.304,3.648 -1.488,1.632 -3.456,2.64 -1.968,0.96 -4.224,0.96 -0.672,0 -1.632,-0.24 -0.912,-0.192 -1.824,-0.528 -0.864,-0.336 -1.344,-0.768 -0.048,0 -0.096,0.576 -0.048,0.528 -0.096,1.104 0,0.624 0,0.768 v 8.976 q 0,0.624 0.48,0.96 0.528,0.384 1.152,0.528 0.672,0.192 1.152,0.336 0.384,0.144 0.72,0.288 0.384,0.192 0.384,0.576 0,0.288 -0.384,0.336 -0.384,0.096 -0.672,0.096 -1.392,0 -2.352,-0.144 -0.912,-0.096 -2.16,-0.096 -0.816,0 -1.344,0.048 -0.48,0.048 -1.008,0.096 -0.528,0.096 -1.488,0.096 z m 11.232,-14.496 q 0.72,0 1.728,-0.432 1.056,-0.432 2.064,-1.392 1.056,-0.96 1.728,-2.592 0.72,-1.632 0.72,-4.032 0,-2.784 -0.72,-4.464 -0.72,-1.68 -1.776,-2.544 -1.056,-0.864 -2.16,-1.152 -1.104,-0.288 -1.872,-0.288 -1.152,0 -2.4,0.48 -1.2,0.48 -2.064,1.104 -0.816,0.576 -0.816,0.912 0,1.056 -0.048,2.16 0,1.056 -0.048,2.064 0,1.008 -0.048,1.824 0,0.768 0,1.2 0,1.92 0.864,3.552 0.912,1.632 2.208,2.64 1.344,0.96 2.64,0.96 z"
       style="font-style:normal;font-variant:normal;font-weight:normal;font-stretch:normal;font-size:48px;line-height:1.25;font-family:'EB Garamond';-inkscape-font-specification:'EB Garamond';fill:#000000;fill-opacity:1;stroke:#000000;stroke-opacity:1"
       id="path139" />
    <path
       d="m 670.13,372.96846 q -0.24,0 -0.624,-0.096 -0.336,-0.048 -0.336,-0.336 0,-0.384 0.336,-0.528 0.384,-0.192 0.768,-0.336 0.72,-0.24 1.392,-0.528 0.672,-0.336 0.672,-1.296 v -24.192 q 0,-1.392 -0.528,-2.304 -0.48,-0.96 -1.68,-1.2 -0.384,-0.096 -0.384,-0.624 0,-0.48 0.336,-0.576 1.248,-0.288 2.16,-0.576 0.912,-0.336 1.68,-0.672 0.816,-0.336 1.584,-0.624 0.192,-0.096 0.288,-0.096 0.096,0 0.144,0.144 0.096,0.096 0.096,0.192 0,0.432 -0.192,1.872 -0.144,1.392 -0.144,4.656 v 24 q 0,0.96 0.672,1.296 0.672,0.288 1.392,0.528 0.384,0.144 0.72,0.336 0.384,0.144 0.384,0.528 0,0.288 -0.384,0.336 -0.336,0.096 -0.576,0.096 -0.912,0 -1.488,-0.096 -0.528,-0.048 -1.056,-0.096 -0.48,-0.048 -1.344,-0.048 -0.816,0 -1.344,0.048 -0.528,0.048 -1.056,0.096 -0.528,0.096 -1.488,0.096 z"
       style="font-style:normal;font-variant:normal;font-weight:normal;font-stretch:normal;font-size:48px;line-height:1.25;font-family:'EB Garamond';-inkscape-font-specification:'EB Garamond';fill:#000000;fill-opacity:1;stroke:#000000;stroke-opacity:1"
       id="path141" />
    <path
       d="m 681.90125,372.96846 q -0.432,0 -0.72,-0.144 -0.24,-0.096 -0.24,-0.384 0,-0.384 0.336,-0.528 0.384,-0.144 0.768,-0.24 1.008,-0.24 1.536,-0.576 0.528,-0.384 0.528,-1.248 v -10.416 q 0,-1.296 -0.48,-2.304 -0.432,-1.008 -1.68,-1.2 -0.24,-0.048 -0.384,-0.192 -0.096,-0.144 -0.096,-0.432 0,-0.528 0.432,-0.576 1.92,-0.432 3.168,-1.152 1.248,-0.768 1.872,-1.248 0.432,-0.336 0.672,-0.336 0.288,0 0.288,0.24 0,0.384 -0.144,1.536 -0.096,1.104 -0.192,2.496 -0.096,1.344 -0.096,2.448 v 11.136 q 0,0.816 0.528,1.2 0.576,0.384 1.536,0.624 0.384,0.096 0.72,0.24 0.384,0.144 0.384,0.528 0,0.528 -0.96,0.528 -0.912,0 -1.488,-0.096 -0.528,-0.048 -1.056,-0.096 -0.48,-0.048 -1.344,-0.048 -0.816,0 -1.344,0.048 -0.528,0.048 -1.056,0.096 -0.528,0.096 -1.488,0.096 z m 3.84,-24.912 q -1.008,0 -1.728,-0.672 -0.672,-0.72 -0.672,-1.728 0,-1.056 0.672,-1.728 0.72,-0.72 1.728,-0.72 1.056,0 1.728,0.72 0.72,0.672 0.72,1.728 0,1.008 -0.72,1.728 -0.672,0.672 -1.728,0.672 z"
       style="font-style:normal;font-variant:normal;font-weight:normal;font-stretch:normal;font-size:48px;line-height:1.25;font-family:'EB Garamond';-inkscape-font-specification:'EB Garamond';fill:#000000;fill-opacity:1;stroke:#000000;stroke-opacity:1"
       id="path143" />
    <path
       d="m 701.732,373.54446 q -2.4,0 -4.368,-1.2 -1.92,-1.248 -3.072,-3.36 -1.104,-2.16 -1.104,-4.8 0,-3.12 1.344,-5.664 1.392,-2.544 3.696,-4.032 2.304,-1.536 5.088,-1.536 3.12,0 5.472,1.68 0.576,0.432 0.576,0.912 0,0.384 -0.336,0.864 -0.336,0.48 -0.816,0.816 -0.48,0.288 -0.912,0.288 -0.24,0 -0.48,-0.144 -0.24,-0.192 -0.528,-0.384 -1.056,-0.816 -2.352,-1.536 -1.296,-0.72 -2.16,-0.72 -2.352,0 -3.84,2.208 -1.44,2.16 -1.44,5.712 0,2.256 0.96,4.08 1.008,1.824 2.64,2.88 1.68,1.056 3.696,1.056 1.392,0 2.4,-0.432 1.008,-0.48 2.16,-1.632 0.096,-0.096 0.24,-0.144 0.144,-0.096 0.24,-0.096 0.528,0 0.528,0.672 0,0.288 -0.192,0.672 -0.144,0.336 -0.528,0.816 -0.768,0.96 -1.824,1.68 -1.056,0.672 -2.352,1.008 -1.248,0.336 -2.736,0.336 z"
       style="font-style:normal;font-variant:normal;font-weight:normal;font-stretch:normal;font-size:48px;line-height:1.25;font-family:'EB Garamond';-inkscape-font-specification:'EB Garamond';fill:#000000;fill-opacity:1;stroke:#000000;stroke-opacity:1"
       id="path145" />
    <path
       d="m 715.874,373.49646 q -0.864,0 -1.776,-0.672 -0.864,-0.672 -1.488,-1.632 -0.576,-0.96 -0.576,-1.824 0,-1.536 0.816,-2.4 0.816,-0.864 2.592,-1.584 l 4.896,-2.016 q 0.96,-0.384 1.104,-0.672 0.192,-0.288 0.24,-1.248 l 0.096,-3.072 q 0.048,-1.248 -0.72,-2.16 -0.72,-0.912 -2.112,-0.912 -0.72,0 -1.44,0.24 -0.72,0.24 -1.2,0.624 -0.288,0.192 -0.384,0.576 -0.096,0.384 -0.096,0.816 0,0.192 0,0.432 0.048,0.24 0.048,0.432 0,0.24 -0.624,0.672 -0.576,0.384 -1.344,0.72 -0.72,0.288 -1.2,0.288 -0.24,0 -0.384,-0.096 -0.144,-0.144 -0.144,-0.336 0,-0.768 0.48,-1.632 0.528,-0.912 1.44,-1.68 1.104,-1.008 2.4,-1.776 1.296,-0.768 2.544,-1.2 1.248,-0.432 2.208,-0.432 1.728,0 2.832,1.248 1.152,1.2 1.104,3.024 l -0.24,11.52 q -0.048,1.008 0.432,1.632 0.528,0.624 1.296,0.624 1.2,0 1.776,-0.528 0.24,-0.24 0.384,-0.24 0.24,0 0.384,0.144 0.144,0.144 0.144,0.384 0,0.528 -0.528,1.056 -0.768,0.768 -1.68,1.2 -0.864,0.48 -1.632,0.48 -2.208,0 -3.504,-2.496 h -0.144 q -1.584,1.296 -3.024,1.872 -1.44,0.624 -2.976,0.624 z m 2.256,-2.304 q 0.96,0 1.632,-0.288 0.672,-0.336 1.2,-0.864 0.24,-0.24 0.384,-0.624 0.192,-0.432 0.24,-1.344 l 0.096,-2.352 q 0.048,-0.528 -0.048,-0.768 -0.096,-0.24 -0.384,-0.24 -0.096,0 -0.336,0.048 -0.24,0.048 -0.624,0.192 -2.544,0.912 -3.552,1.92 -0.96,0.96 -0.96,1.776 0,1.248 0.72,1.92 0.768,0.624 1.632,0.624 z"
       style="font-style:normal;font-variant:normal;font-weight:normal;font-stretch:normal;font-size:48px;line-height:1.25;font-family:'EB Garamond';-inkscape-font-specification:'EB Garamond';fill:#000000;fill-opacity:1;stroke:#000000;stroke-opacity:1"
       id="path147" />
    <path
       d="m 746.519,373.73646 q -0.096,0 -0.336,-0.192 -0.192,-0.192 -0.192,-0.288 0,-0.48 0.096,-1.344 0.144,-0.912 0.144,-1.536 v -0.288 q -0.72,1.104 -2.304,2.256 -1.584,1.152 -3.984,1.152 -2.736,0 -4.752,-1.44 -1.968,-1.44 -3.072,-3.696 -1.056,-2.256 -1.056,-4.656 0,-2.784 1.296,-5.232 1.296,-2.448 3.696,-3.984 2.448,-1.536 5.808,-1.536 0.96,0 1.92,0.192 1.008,0.144 1.536,0.336 0.432,0.144 0.624,0.144 0.336,0 0.336,-1.152 v -6.816 q 0,-1.968 -0.624,-2.64 -0.624,-0.672 -1.776,-0.864 -0.432,-0.096 -0.432,-0.624 0,-0.432 0.384,-0.576 2.112,-0.528 3.312,-1.008 1.2,-0.48 1.872,-0.768 0.192,-0.096 0.336,-0.096 0.192,-0.048 0.288,-0.048 0.288,0 0.336,0.288 0,0.288 -0.096,1.008 -0.048,0.672 -0.144,2.016 -0.096,1.344 -0.096,3.504 v 21.696 q 0,1.632 0.24,2.4 0.24,0.72 0.768,0.72 0.24,0 0.816,-0.048 0.624,-0.048 1.248,-0.096 0.864,-0.048 0.864,0.432 0,0.336 -0.24,0.624 -0.192,0.24 -0.432,0.24 -1.344,0.192 -2.64,0.576 -1.296,0.336 -2.976,1.056 -0.384,0.192 -0.528,0.24 -0.096,0.048 -0.24,0.048 z m -4.848,-2.736 q 1.248,0 2.448,-0.624 1.2,-0.672 2.112,-1.728 l 0.048,-8.64 q 0,-1.296 -0.768,-2.544 -0.72,-1.248 -2.064,-2.016 -1.296,-0.816 -3.072,-0.816 -1.104,0 -2.496,0.672 -1.392,0.672 -2.4,2.4 -1.008,1.68 -1.008,4.896 0,2.736 0.816,4.416 0.816,1.632 1.968,2.496 1.2,0.864 2.4,1.2 1.248,0.288 2.016,0.288 z"
       style="font-style:normal;font-variant:normal;font-weight:normal;font-stretch:normal;font-size:48px;line-height:1.25;font-family:'EB Garamond';-inkscape-font-specification:'EB Garamond';fill:#000000;fill-opacity:1;stroke:#000000;stroke-opacity:1"
       id="path149" />
    <path
       d="m 764.89625,373.49646 q -2.688,0 -4.848,-1.248 -2.16,-1.248 -3.456,-3.408 -1.248,-2.208 -1.248,-4.992 0,-2.016 0.768,-3.936 0.816,-1.92 2.256,-3.504 1.44,-1.584 3.36,-2.496 1.92,-0.96 4.128,-0.96 2.784,0 4.992,1.344 2.256,1.344 3.552,3.552 1.344,2.16 1.344,4.752 0,2.784 -1.248,5.28 -1.2,2.496 -3.6,4.08 -2.4,1.536 -6,1.536 z m 1.008,-1.44 q 1.632,0 2.928,-0.624 1.296,-0.624 2.016,-2.016 0.576,-1.104 0.768,-2.688 0.192,-1.584 0.192,-2.976 0,-2.304 -0.864,-4.416 -0.816,-2.16 -2.352,-3.504 -1.488,-1.392 -3.552,-1.392 -1.296,0 -2.352,0.432 -1.008,0.384 -1.872,1.488 -0.96,1.2 -1.248,2.928 -0.288,1.728 -0.288,3.456 0,2.352 0.864,4.512 0.864,2.112 2.352,3.456 1.488,1.344 3.408,1.344 z"
       style="font-style:normal;font-variant:normal;font-weight:normal;font-stretch:normal;font-size:48px;line-height:1.25;font-family:'EB Garamond';-inkscape-font-specification:'EB Garamond';fill:#000000;fill-opacity:1;stroke:#000000;stroke-opacity:1"
       id="path151" />
    <path
       d="m 779.735,372.96846 q -0.48,0 -0.72,-0.144 -0.24,-0.096 -0.24,-0.384 0,-0.384 0.288,-0.48 0.288,-0.144 0.816,-0.288 0.912,-0.24 1.344,-0.672 0.48,-0.48 0.48,-1.152 v -10.32 q 0,-1.296 -0.384,-2.256 -0.384,-0.96 -1.584,-1.2 -0.192,-0.048 -0.336,-0.24 -0.144,-0.192 -0.144,-0.384 0,-0.48 0.432,-0.576 1.248,-0.384 2.592,-1.104 1.392,-0.768 2.16,-1.248 0.288,-0.192 0.432,-0.24 0.192,-0.096 0.288,-0.096 0.24,0 0.24,0.336 0,0.144 -0.048,0.72 0,0.576 -0.048,1.344 0,0.768 -0.048,1.536 0,0.096 0.096,0.096 0.768,-0.96 1.68,-1.68 0.96,-0.72 1.92,-1.152 1.008,-0.432 1.92,-0.432 1.008,0 1.632,0.432 0.672,0.432 0.672,1.104 0,0.48 -0.288,1.056 -0.24,0.576 -0.672,1.008 -0.432,0.432 -0.912,0.432 -0.288,0 -0.624,-0.096 -0.336,-0.144 -0.72,-0.336 -0.384,-0.144 -0.768,-0.288 -0.384,-0.144 -0.768,-0.144 -1.152,0 -2.256,0.816 -1.056,0.816 -1.056,3.216 v 9.696 q 0,0.624 0.672,1.056 0.672,0.384 1.872,0.768 0.528,0.144 0.816,0.288 0.288,0.144 0.288,0.48 0,0.528 -0.96,0.528 -1.44,0 -2.208,-0.144 -0.72,-0.096 -1.968,-0.096 -0.816,0 -1.344,0.048 -0.48,0.048 -1.056,0.096 -0.528,0.096 -1.488,0.096 z"
       style="font-style:normal;font-variant:normal;font-weight:normal;font-stretch:normal;font-size:48px;line-height:1.25;font-family:'EB Garamond';-inkscape-font-specification:'EB Garamond';fill:#000000;fill-opacity:1;stroke:#000000;stroke-opacity:1"
       id="path153" />
  </g>
  <path
     style="fill:none;fill-rule:evenodd;stroke:#000000;stroke-width:3;stroke-linecap:butt;stroke-linejoin:miter;stroke-miterlimit:4;stroke-dasharray:none;stroke-opacity:1"
     d="M 50.265799,314.88695 H 275.2658 l 50,-125"
     id="path3373"
     sodipodi:nodetypes="ccc" />
  <path
     style="fill:none;fill-rule:evenodd;stroke:#000000;stroke-width:3;stroke-linecap:butt;stroke-linejoin:miter;stroke-miterlimit:4;stroke-dasharray:none;stroke-opacity:1"
     d="m 125.2658,389.88695 h 225 l 50,-200"
     id="path4344"
     sodipodi:nodetypes="ccc" />
  <path
     style="fill:none;fill-rule:evenodd;stroke:#000000;stroke-width:3;stroke-linecap:butt;stroke-linejoin:miter;stroke-miterlimit:4;stroke-dasharray:none;stroke-opacity:1"
     d="m 850.2658,389.88695 h -350 l -25,-200"
     id="path4346"
     sodipodi:nodetypes="ccc" />
  <path
     style="fill:none;fill-rule:evenodd;stroke:#000000;stroke-width:3;stroke-linecap:butt;stroke-linejoin:miter;stroke-miterlimit:4;stroke-dasharray:none;stroke-opacity:1"
     d="m 900.2658,314.88695 h -300 l -25,-125"
     id="path4348"
     sodipodi:nodetypes="ccc" />
</svg>
