<?xml version="1.0" encoding="UTF-8" standalone="no"?>
<svg
   viewBox="0 0 198.75661 85.716789"
   version="1.1"
   id="svg213"
   sodipodi:docname="Duke_University_logo.svg"
   width="198.75661"
   height="85.716789"
   inkscape:version="1.1 (c4e8f9e, 2021-05-24)"
   xmlns:inkscape="http://www.inkscape.org/namespaces/inkscape"
   xmlns:sodipodi="http://sodipodi.sourceforge.net/DTD/sodipodi-0.dtd"
   xmlns="http://www.w3.org/2000/svg"
   xmlns:svg="http://www.w3.org/2000/svg">
  <defs
     id="defs217" />
  <sodipodi:namedview
     id="namedview215"
     pagecolor="#ffffff"
     bordercolor="#666666"
     borderopacity="1.0"
     inkscape:pageshadow="2"
     inkscape:pageopacity="0.0"
     inkscape:pagecheckerboard="0"
     showgrid="false"
     fit-margin-top="0"
     fit-margin-left="0"
     fit-margin-right="0"
     fit-margin-bottom="0"
     inkscape:zoom="6.0520775"
     inkscape:cx="99.387359"
     inkscape:cy="42.464757"
     inkscape:window-width="1440"
     inkscape:window-height="900"
     inkscape:window-x="0"
     inkscape:window-y="0"
     inkscape:window-maximized="0"
     inkscape:current-layer="svg213" />
  <g
     transform="matrix(1.25,0,0,-1.25,-327.19511,412.67552)"
     id="g211">
    <path
       d="m 365.85,330.14 c -0.215,0 -0.42875,-0.0532 -0.64375,-0.15625 l -5.4641,-2.0797 c -0.587,-0.215 -1.0142,-0.38731 -1.2812,-0.52031 -0.266,-0.134 -0.39844,-0.334 -0.39844,-0.6 0,-0.374 0.19844,-0.61587 0.59844,-0.72187 0.399,-0.106 0.85493,-0.25207 1.3609,-0.43907 0.507,-0.187 0.96094,-0.50793 1.3609,-0.96093 0.401,-0.454 0.6,-1.2142 0.6,-2.2812 v -40.18 c 0,-0.853 -0.0942,-1.4933 -0.28125,-1.9203 -0.186,-0.426 -0.46606,-0.7485 -0.83906,-0.9625 -0.374,-0.212 -0.80225,-0.37213 -1.2812,-0.47813 -0.48,-0.106 -0.98575,-0.23956 -1.5188,-0.40156 -0.426,-0.105 -0.77263,-0.22581 -1.0406,-0.35781 -0.267,-0.134 -0.4,-0.3875 -0.4,-0.7625 0,-0.372 0.25338,-0.59813 0.75938,-0.67813 0.507,-0.078 0.89393,-0.12031 1.1609,-0.12031 0.694,0 1.5898,0.0511 2.6828,0.15312 1.096,0.102 2.1273,0.15469 3.0953,0.15469 0.912,0 1.7956,-0.0527 2.6516,-0.15469 0.858,-0.102 1.7671,-0.15312 2.7281,-0.15312 0.427,0 0.83962,0.0544 1.2406,0.15937 0.399,0.107 0.6,0.3185 0.6,0.6375 0,0.374 -0.22768,0.59913 -0.67968,0.67813 -0.453,0.08 -1.0016,0.22719 -1.6406,0.44219 -0.375,0.104 -0.7615,0.33 -1.1625,0.675 -0.399,0.347 -0.59687,0.97156 -0.59687,1.8766 v 11.333 c 0,0.265 0.18637,0.4 0.55937,0.4 0.16,0 0.40087,-0.16069 0.72187,-0.47969 l 12.08,-11.412 c 0.586,-0.586 0.87813,-1.0126 0.87813,-1.2766 0,-0.267 -0.14606,-0.50675 -0.43906,-0.71875 -0.295,-0.213 -0.65225,-0.34587 -1.0812,-0.39687 -0.693,-0.108 -1.2527,-0.22894 -1.6797,-0.36094 -0.426,-0.134 -0.6375,-0.38538 -0.6375,-0.75938 0,-0.373 0.18437,-0.59656 0.55937,-0.67656 0.373,-0.078 0.98607,-0.12031 1.8391,-0.12031 0.959,0 1.9187,0.0511 2.8797,0.15312 0.959,0.102 1.9736,0.15469 3.0406,0.15469 1.227,0 2.3469,-0.0527 3.3609,-0.15469 1.013,-0.102 1.947,-0.15312 2.8,-0.15312 1.387,0 2.0797,0.26544 2.0797,0.79844 0,0.266 -0.17175,0.48062 -0.51875,0.64062 -0.348,0.159 -0.814,0.35744 -1.4,0.59844 -0.587,0.24 -1.2682,0.54731 -2.0422,0.92031 -0.774,0.375 -1.5594,0.93213 -2.3594,1.6781 l -13.841,12.556 c -0.108,0.105 -0.242,0.25206 -0.4,0.43906 -0.161,0.187 -0.24063,0.41269 -0.24063,0.67969 0,0.213 0.69369,0.78575 2.0797,1.7188 1.386,0.933 2.9739,1.9314 4.7609,2.9984 1.787,1.066 3.519,2.0654 5.2,2.9984 1.68,0.933 2.8136,1.532 3.4016,1.8 0.265,0.106 0.62468,0.22638 1.0797,0.35938 0.453,0.132 0.89288,0.27906 1.3219,0.43906 0.425,0.159 0.78312,0.33331 1.0781,0.52031 0.293,0.187 0.43907,0.387 0.43907,0.6 0,0.426 -0.15813,0.694 -0.47813,0.8 -0.321,0.106 -0.66706,0.16094 -1.0391,0.16094 -0.802,0 -1.7492,-0.0271 -2.8422,-0.0781 -1.094,-0.051 -2.1499,-0.0781 -3.1609,-0.0781 -1.069,0 -2.1486,0.0271 -3.2406,0.0781 -1.093,0.051 -2.0663,0.0781 -2.9203,0.0781 -0.267,0 -0.51938,-0.0816 -0.75938,-0.24063 -0.24,-0.161 -0.35937,-0.34693 -0.35937,-0.56093 0,-0.321 0.15769,-0.5745 0.47969,-0.7625 0.319,-0.186 0.66662,-0.37182 1.0406,-0.55782 0.374,-0.187 0.71862,-0.42787 1.0406,-0.72187 0.318,-0.294 0.47813,-0.70863 0.47813,-1.2406 0,-0.268 -0.30731,-0.65393 -0.92031,-1.1609 -0.613,-0.506 -1.3717,-1.0813 -2.2797,-1.7203 -0.905,-0.642 -1.906,-1.3081 -3,-2.0031 -1.094,-0.694 -2.1197,-1.3202 -3.0797,-1.8812 -0.96,-0.561 -1.8003,-1.0139 -2.5203,-1.3609 -0.72,-0.347 -1.1336,-0.52031 -1.2406,-0.52031 -0.479,0 -0.71875,0.42725 -0.71875,1.2812 v 32.922 c 0,0.587 -0.0928,0.97338 -0.28282,1.1594 -0.186,0.188 -0.38812,0.28281 -0.60312,0.28281 h -0.725 z m -80.872,-3.8594 c -2.565,0 -4.848,-0.0757 -6.85,-0.22969 -2.004,-0.155 -3.9928,-0.23281 -5.9688,-0.23281 h -7.2828 c -0.268,0 -0.57387,-0.0121 -0.92188,-0.0391 -0.347,-0.026 -0.67843,-0.0809 -0.99843,-0.16093 -0.32,-0.081 -0.60007,-0.21557 -0.83907,-0.40157 -0.24199,-0.187 -0.36093,-0.43937 -0.36093,-0.75937 0,-0.427 0.17175,-0.6825 0.51875,-0.7625 0.347,-0.079 0.97425,-0.17213 1.8812,-0.27813 0.532,-0.054 1.1048,-0.0949 1.7188,-0.12187 0.614,-0.026 1.2009,-0.0804 1.7609,-0.15938 0.559,-0.08 1.0254,-0.21356 1.3984,-0.40156 0.374,-0.186 0.56094,-0.46506 0.56094,-0.83906 v -37.639 c 0,-1.174 -0.10631,-2.0803 -0.32031,-2.7203 -0.213,-0.642 -0.49207,-1.1332 -0.83906,-1.4812 -0.347,-0.347 -0.73338,-0.58887 -1.1594,-0.72187 -0.427,-0.134 -0.85425,-0.22825 -1.2812,-0.28125 -1.227,-0.213 -2.026,-0.48 -2.4,-0.8 -0.374,-0.319 -0.55937,-0.64094 -0.55937,-0.96094 0,-0.412 0.18537,-0.64275 0.55937,-0.69375 0.374,-0.051 0.66569,-0.0766 0.87969,-0.0766 0.96,0 2.1061,0.0511 3.4391,0.15312 1.334,0.103 2.5891,0.15469 3.7641,0.15469 h 18.908 c 3.418,0 6.6357,0.57431 9.6547,1.7203 3.019,1.147 5.6492,2.7062 7.8922,4.6812 2.242,1.974 4.0176,4.2945 5.3266,6.9625 1.309,2.666 1.9641,5.4942 1.9641,8.4812 0,4.802 -0.80113,8.9503 -2.4031,12.445 -1.603,3.493 -3.7802,6.3606 -6.5312,8.6016 -2.751,2.24 -5.9691,3.8939 -9.6531,4.9609 -3.687,1.067 -7.6378,1.6 -11.858,1.6 z m -1.7719,-2.3906 c 1.659,0 3.426,-0.2 5.3,-0.6 1.873,-0.4 3.7206,-1.0282 5.5406,-1.8812 1.82,-0.854 3.5734,-1.92 5.2594,-3.2 1.685,-1.28 3.1728,-2.8025 4.4578,-4.5625 1.286,-1.761 2.301,-3.7616 3.05,-6.0016 0.75,-2.24 1.125,-4.7216 1.125,-7.4406 0,-2.722 -0.375,-5.1368 -1.125,-7.2438 -0.749,-2.106 -1.7378,-3.9479 -2.9688,-5.5219 -1.232,-1.574 -2.6236,-2.9196 -4.1766,-4.0406 -1.553,-1.121 -3.1048,-2.0142 -4.6578,-2.6812 -1.552,-0.667 -3.0519,-1.1597 -4.4969,-1.4797 -1.446,-0.322 -2.7034,-0.48125 -3.7734,-0.48125 -1.286,0 -2.5424,0.15925 -3.7734,0.48125 -1.233,0.32 -2.3297,0.81268 -3.2937,1.4797 -0.964,0.667 -1.7401,1.5063 -2.3281,2.5203 -0.588,1.013 -0.88281,2.2151 -0.88281,3.6031 v 34.489 c 0,0.266 0.0393,0.55969 0.12031,0.87969 0.08,0.319 0.3335,0.59963 0.7625,0.84063 0.428,0.24 1.0978,0.44056 2.0078,0.60156 0.909,0.159 2.1931,0.23906 3.8531,0.23906 z m 125.25,-15.353 c -2.504,0 -4.6634,-0.53513 -6.4734,-1.6031 -1.811,-1.068 -3.3166,-2.4169 -4.5156,-4.0469 -1.199,-1.63 -2.089,-3.446 -2.675,-5.45 -0.586,-2.003 -0.87968,-3.9378 -0.87968,-5.8078 0,-5.023 1.2046,-8.988 3.6156,-11.9 2.41,-2.911 5.8298,-4.3672 10.258,-4.3672 2.08,0 3.8533,0.30843 5.3203,0.92343 1.466,0.615 2.6781,1.3131 3.6391,2.0891 0.96,0.776 1.6537,1.4996 2.0797,2.1656 0.429,0.667 0.64218,1.0796 0.64218,1.2406 0,0.426 -0.24287,0.63906 -0.72187,0.63906 -0.32,0 -0.61469,-0.17388 -0.87969,-0.52188 -0.268,-0.346 -0.64131,-0.71775 -1.1203,-1.1188 -0.48,-0.401 -1.146,-0.75868 -2,-1.0797 -0.855,-0.321 -2.053,-0.47969 -3.6,-0.47969 -2.454,0 -4.4425,0.3855 -5.9625,1.1625 -1.52,0.775 -2.6918,1.7794 -3.5188,3.0094 -0.827,1.228 -1.3867,2.645 -1.6797,4.25 -0.294,1.603 -0.43907,3.2589 -0.43907,4.9719 v 1.6844 c 0,0.48 0.0501,0.85544 0.15312,1.1234 h 19.466 c 0.693,0 1.1312,0.11938 1.3172,0.35938 0.185,0.24 0.27969,0.73268 0.27969,1.4797 0,0.852 -0.21363,1.9194 -0.64063,3.1984 -0.426,1.28 -1.1176,2.5198 -2.0766,3.7188 -0.959,1.2 -2.2249,2.2267 -3.7969,3.0797 -1.572,0.854 -3.5006,1.2797 -5.7906,1.2797 z m -88.923,-1.3109 c -0.587,0 -1.0661,-0.0282 -1.4391,-0.0813 -0.374,-0.054 -0.56094,-0.26563 -0.56094,-0.64063 0,-0.267 0.15869,-0.468 0.47969,-0.6 0.32,-0.134 0.96131,-0.333 1.9203,-0.6 0.48,-0.107 0.98831,-0.241 1.5203,-0.4 0.533,-0.16 0.8,-0.53487 0.8,-1.1219 0,-1.175 -0.0131,-2.4955 -0.0391,-3.9625 -0.026,-1.467 -0.0375,-2.9754 -0.0375,-4.5234 0,-1.496 -0.0141,-2.9888 -0.0391,-4.4828 -0.026,-1.496 -0.0375,-2.8558 -0.0375,-4.0828 0,-1.709 0.14506,-3.2583 0.43906,-4.6453 0.294,-1.387 0.79931,-2.5871 1.5203,-3.6031 0.721,-1.014 1.7079,-1.7848 2.9609,-2.3188 1.254,-0.533 2.8158,-0.80156 4.6828,-0.80156 1.602,0 3.0288,0.25043 4.2828,0.74843 1.254,0.498 2.3472,1.0526 3.2812,1.6656 0.933,0.613 1.6943,1.1606 2.2812,1.6406 0.587,0.479 1.04,0.72032 1.361,0.72032 0.374,0 0.55936,-0.32038 0.55936,-0.95938 v -1.8406 c 0,-0.374 0.0251,-0.67932 0.0781,-0.92032 0.051,-0.241 0.23219,-0.35937 0.54219,-0.35937 0.377,0 1.3731,0.15687 2.9891,0.47187 1.616,0.316 3.8361,0.68525 6.6641,1.1062 0.586,0.107 1.0006,0.21019 1.2406,0.31719 0.238,0.104 0.36093,0.31525 0.36093,0.63125 0,0.421 -0.30887,0.65738 -0.92187,0.70938 -0.614,0.054 -1.6936,0.0812 -3.2406,0.0812 -0.373,0 -0.81431,0.10375 -1.3203,0.31875 -0.508,0.213 -0.75938,0.74656 -0.75938,1.6016 0,4.055 0.0507,8.0954 0.15469,12.123 0.102,4.029 0.15469,8.0716 0.15469,12.127 0,0.746 -0.21432,1.212 -0.64532,1.4 -0.427,0.187 -0.77519,0.28125 -1.0422,0.28125 -0.805,0 -1.5939,-0.0271 -2.3719,-0.0781 -0.776,-0.051 -1.5662,-0.0766 -2.3672,-0.0766 -0.694,0 -1.3746,0.0256 -2.0406,0.0766 -0.668,0.051 -1.3471,0.0781 -2.0391,0.0781 -0.427,0 -0.82756,-0.0419 -1.2016,-0.12188 -0.373,-0.08 -0.55937,-0.25175 -0.55937,-0.51875 0,-0.32 0.30631,-0.586 0.92031,-0.8 0.613,-0.213 1.08,-0.37425 1.4,-0.48125 0.96,-0.267 1.7071,-0.467 2.2391,-0.6 0.533,-0.134 0.94662,-0.25337 1.2406,-0.35937 0.293,-0.106 0.48095,-0.23956 0.56095,-0.40156 0.079,-0.159 0.12031,-0.34638 0.12031,-0.55938 0,-2.88 -0.0271,-5.7334 -0.0781,-8.5594 -0.053,-2.828 -0.0781,-5.6811 -0.0781,-8.5641 0,-0.799 -0.0937,-1.6282 -0.27968,-2.4812 -0.185,-0.854 -0.5985,-1.6127 -1.2375,-2.2797 -0.638,-0.666 -1.5849,-1.2121 -2.8359,-1.6391 -1.251,-0.428 -2.9947,-0.64218 -5.2297,-0.64218 -1.97,0 -3.5148,0.44187 -4.6328,1.3219 -1.119,0.88 -1.6766,2.146 -1.6766,3.8 0,3.574 0.0251,7.1342 0.0781,10.681 0.05,3.548 0.075,7.1084 0.075,10.684 0,0.585 -0.066,0.98443 -0.2,1.1984 -0.135,0.214 -0.47081,0.32188 -1.0078,0.32188 -0.59,0 -1.1809,-0.0271 -1.7719,-0.0781 -0.59,-0.051 -1.1809,-0.0766 -1.7719,-0.0766 -0.59,0 -1.166,0.0256 -1.725,0.0766 -0.559,0.051 -1.1343,0.0781 -1.7203,0.0781 z m 90.061,-0.61719 c 1.707,0 3.1196,-0.467 4.2406,-1.4 1.119,-0.933 1.6797,-2.0911 1.6797,-3.4781 0,-0.747 -0.0922,-1.3591 -0.28125,-1.8391 -0.186,-0.48 -0.57181,-0.87843 -1.1578,-1.1984 -0.587,-0.32 -1.4153,-0.54825 -2.4813,-0.68125 -1.067,-0.134 -2.4806,-0.2 -4.2406,-0.2 -1.707,0 -3.0279,0.0146 -3.9609,0.0406 -0.933,0.026 -1.6267,0.0663 -2.0797,0.12031 -0.453,0.052 -0.72156,0.12 -0.80156,0.2 -0.078,0.079 -0.11876,0.19938 -0.11876,0.35938 0,0.639 0.21363,1.4118 0.64063,2.3188 0.426,0.906 1.025,1.7861 1.8,2.6391 0.774,0.852 1.7342,1.5844 2.8812,2.1984 1.146,0.612 2.4397,0.92031 3.8797,0.92031 z m -41.008,-36.059 c -1.604,0 -2.8719,-0.92057 -2.8719,-2.4266 0,-1.556 0.88144,-2.0155 2.7234,-2.5625 1.455,-0.436 1.9656,-0.77175 1.9656,-1.4438 0,-0.847 -0.58412,-1.2688 -1.8031,-1.2688 -0.821,0 -1.6806,0.39782 -2.2656,1.0328 l -0.93126,-0.90782 c 0.732,-0.859 1.8279,-1.4062 3.0969,-1.4062 2.227,0 3.2203,1.0705 3.2203,2.6375 0,1.555 -1.0685,2.103 -2.7875,2.625 -1.504,0.447 -1.9016,0.74625 -1.9016,1.3562 0,0.584 0.43525,1.0828 1.4562,1.0828 0.858,0 1.4796,-0.27438 2.0266,-0.83438 l 0.92188,0.93438 c -0.771,0.746 -1.669,1.1812 -2.85,1.1812 z m -101.2,-0.13594 v -5.0531 c 0,-2.4 1.1199,-3.7938 3.2719,-3.7938 2.165,0 3.3469,1.3298 3.3469,3.7688 v 5.0781 h -1.3078 v -5.1031 c 0,-1.592 -0.64606,-2.4359 -2.0141,-2.4359 -1.307,0 -1.9906,0.882 -1.9906,2.525 v 5.0141 h -1.3062 z m 35.183,0 v -8.7094 h 1.3062 v 8.7094 z m 79.873,0 v -8.7094 h 1.3062 v 8.7094 z m 27.978,0 3.1234,-5.2641 v -3.4453 h 1.3078 v 3.4453 l 3.1203,5.2641 h -1.5047 l -1.3688,-2.4141 c -0.31,-0.561 -0.74631,-1.3952 -0.89531,-1.7172 -0.15,0.322 -0.59631,1.1931 -0.89531,1.7281 l -1.3562,2.4031 h -1.5312 z m -125.5,-0.002 v -8.7078 h 1.2672 v 4.5156 c 0,0.485 -0.0109,1.6926 -0.0109,2.0156 0.136,-0.224 0.43588,-0.74731 0.64688,-1.0703 l 3.4703,-5.4609 h 1.2453 v 8.7078 h -1.2703 v -4.4906 c 0,-0.486 0.0141,-1.7291 0.0141,-2.0531 -0.125,0.224 -0.49787,0.87025 -0.72187,1.2312 l -3.3094,5.3125 h -1.3312 z m 29.448,0 3.0219,-8.7078 h 1.3812 l 2.9859,8.7078 h -1.3922 l -1.7922,-5.5359 c -0.162,-0.51 -0.41194,-1.2932 -0.48594,-1.6062 -0.075,0.313 -0.32338,1.0838 -0.48438,1.5938 l -1.8172,5.5484 h -1.4172 z m 17.814,0 v -8.7078 h 5.7984 v 1.2688 h -4.4906 v 2.7484 h 2.5 v 1.2688 h -2.5 v 2.1531 h 4.3031 v 1.2688 h -5.6109 z m 16.361,0 v -8.7078 h 1.2813 v 3.4453 h 1.9656 l 1.7281,-3.4453 h 1.5078 l -1.7797,3.5578 c 1.182,0.299 1.9156,1.157 1.9156,2.55 0,1.793 -1.2804,2.6 -2.7984,2.6 z m 45.697,0 v -1.2812 h 2.5375 v -7.4266 h 1.3063 v 7.4266 h 2.5375 v 1.2812 h -6.3812 z m -44.416,-1.2312 h 2.5391 c 0.883,0 1.4797,-0.49825 1.4797,-1.4062 0,-0.946 -0.60868,-1.3938 -1.4797,-1.3938 h -2.5391 z"
       fill="#001a57"
       id="path209" />
  </g>
</svg>
