<?xml version="1.0" encoding="UTF-8" standalone="no"?>
<svg
   viewBox="0 0 139.30725 47.991253"
   version="1.1"
   id="svg23"
   sodipodi:docname="duketoday-logo.svg"
   width="139.30725"
   height="47.991253"
   inkscape:version="1.1 (c4e8f9e, 2021-05-24)"
   xmlns:inkscape="http://www.inkscape.org/namespaces/inkscape"
   xmlns:sodipodi="http://sodipodi.sourceforge.net/DTD/sodipodi-0.dtd"
   xmlns="http://www.w3.org/2000/svg"
   xmlns:svg="http://www.w3.org/2000/svg"
   xmlns:rdf="http://www.w3.org/1999/02/22-rdf-syntax-ns#"
   xmlns:cc="http://creativecommons.org/ns#"
   xmlns:dc="http://purl.org/dc/elements/1.1/">
  <sodipodi:namedview
     id="namedview25"
     pagecolor="#ffffff"
     bordercolor="#666666"
     borderopacity="1.0"
     inkscape:pageshadow="2"
     inkscape:pageopacity="0.0"
     inkscape:pagecheckerboard="0"
     showgrid="false"
     fit-margin-top="0"
     fit-margin-left="0"
     fit-margin-right="0"
     fit-margin-bottom="0"
     inkscape:zoom="4.3157895"
     inkscape:cx="141.92073"
     inkscape:cy="23.634146"
     inkscape:window-width="1440"
     inkscape:window-height="900"
     inkscape:window-x="0"
     inkscape:window-y="0"
     inkscape:window-maximized="0"
     inkscape:current-layer="svg23" />
  <defs
     id="defs11">
    <style
       id="style9">.cls-1{fill:#001a57;}.cls-2{fill:#e89923;}</style>
  </defs>
  <title
     id="title13">Artboard 1</title>
  <g
     id="Layer_1"
     transform="translate(-0.41523846,-1.45)">
    <path
       class="cls-1"
       d="m 9.12,48.16 a 29.48,29.48 0 0 0 -3.3,0.13 26.2,26.2 0 0 1 -3,0.14 A 7.56,7.56 0 0 1 2,48.36 0.53,0.53 0 0 1 1.5,47.8 1.16,1.16 0 0 1 2,46.92 4.94,4.94 0 0 1 4.1,46.22 5.77,5.77 0 0 0 5.26,46 2.4,2.4 0 0 0 6.26,45.37 3.16,3.16 0 0 0 7,44 7.65,7.65 0 0 0 7.28,41.62 v -33 A 0.77,0.77 0 0 0 6.79,7.89 4.39,4.39 0 0 0 5.57,7.53 C 5.05,7.46 4.57,7.42 4.02,7.39 3.47,7.36 3.02,7.39 2.52,7.29 2.02,7.19 1.42,7.18 0.88,7.09 A 0.6,0.6 0 0 1 0.42,6.43 0.81,0.81 0 0 1 0.74,5.76 1.87,1.87 0 0 1 1.48,5.41 5.25,5.25 0 0 1 2.35,5.27 h 7.19 c 1.73,0 3.48,-0.07 5.23,-0.21 1.75,-0.14 3.76,-0.2 6,-0.2 a 37.25,37.25 0 0 1 10.39,1.4 23.58,23.58 0 0 1 8.46,4.35 20.55,20.55 0 0 1 5.72,7.53 26.14,26.14 0 0 1 2.11,10.86 16.63,16.63 0 0 1 -1.72,7.43 19.74,19.74 0 0 1 -4.67,6.1 22.56,22.56 0 0 1 -6.92,4.1 23.43,23.43 0 0 1 -8.45,1.51 H 9.12 m 4.19,-8.77 a 6.18,6.18 0 0 0 0.77,3.15 6.94,6.94 0 0 0 2,2.21 9.06,9.06 0 0 0 2.92,1.32 13.17,13.17 0 0 0 3.31,0.42 15.3,15.3 0 0 0 3.3,-0.42 21.91,21.91 0 0 0 3.94,-1.3 21.5,21.5 0 0 0 4.08,-2.35 17.8,17.8 0 0 0 3.66,-3.54 17,17 0 0 0 2.61,-4.86 18.7,18.7 0 0 0 1,-6.34 20.32,20.32 0 0 0 -1,-6.52 18.87,18.87 0 0 0 -6.57,-9.26 26.13,26.13 0 0 0 -4.61,-2.8 22.93,22.93 0 0 0 -9.5,-2.18 21.24,21.24 0 0 0 -3.38,0.21 6.06,6.06 0 0 0 -1.76,0.53 1.24,1.24 0 0 0 -0.66,0.74 2.87,2.87 0 0 0 -0.11,0.77 z m 48.4,10 a 10.45,10.45 0 0 1 -4.1,-0.7 5.9,5.9 0 0 1 -2.6,-2 8.49,8.49 0 0 1 -1.33,-3.16 19.16,19.16 0 0 1 -0.38,-4.07 v -15 a 0.93,0.93 0 0 0 -0.7,-1 c -0.44,-0.13 -0.88,-0.25 -1.33,-0.35 a 16.37,16.37 0 0 1 -1.68,-0.53 0.56,0.56 0 0 1 -0.42,-0.52 0.51,0.51 0 0 1 0.43,-0.56 13.54,13.54 0 0 1 2.76,0 c 0.51,0 1,0.07 1.52,0.07 A 11.79,11.79 0 0 0 55.43,21.48 11.49,11.49 0 0 1 57,21.44 c 0.55,0 0.77,0.1 0.88,0.29 a 2.11,2.11 0 0 1 0.18,1.05 q 0,4.7 -0.07,9.36 c 0,3.1 -0.07,6.22 -0.06,9.36 A 4,4 0 0 0 59.39,44.83 6.39,6.39 0 0 0 63.45,46 14.53,14.53 0 0 0 68,45.42 6,6 0 0 0 70.52,44 4.17,4.17 0 0 0 71.6,42 10,10 0 0 0 72,39.9 q 0,-3.78 0.07,-7.5 c 0,-2.47 0.07,-5 0.07,-7.5 A 1.17,1.17 0 0 0 72,24.4 0.83,0.83 0 0 0 71.51,24.05 c -0.26,-0.09 -0.62,-0.2 -1.09,-0.32 l -2,-0.52 -1.23,-0.42 c -0.53,-0.19 -0.8,-0.42 -0.8,-0.7 0,-0.28 0.16,-0.39 0.49,-0.46 a 4.79,4.79 0 0 1 1,-0.11 15.14,15.14 0 0 1 1.79,0.07 15.14,15.14 0 0 0 1.79,0.07 c 0.61,0 1.39,0 2.07,-0.07 a 20.35,20.35 0 0 1 2.08,-0.07 2.63,2.63 0 0 1 0.91,0.25 q 0.57,0.24 0.57,1.23 0,5.33 -0.14,10.62 v 10.63 c 0,0.74 0.22,1.21 0.66,1.4 a 3.13,3.13 0 0 0 1.16,0.28 c 1.35,0 2.3,0 2.84,0.07 0.54,0.07 0.8,0.25 0.8,0.62 a 0.54,0.54 0 0 1 -0.31,0.55 5.14,5.14 0 0 1 -1.09,0.28 c -2.48,0.37 -4.42,0.69 -5.84,1 a 21,21 0 0 1 -2.62,0.41 c -0.27,0 -0.43,-0.1 -0.47,-0.31 A 3.7,3.7 0 0 1 72.01,47.74 V 46.1 c 0,-0.56 -0.16,-0.84 -0.49,-0.84 a 2.2,2.2 0 0 0 -1.19,0.63 c -0.52,0.42 -1.18,0.9 -2,1.44 a 16.23,16.23 0 0 1 -2.88,1.46 10.22,10.22 0 0 1 -3.75,0.65 M 88.24,8.25 a 3,3 0 0 0 -0.52,-2 2.82,2.82 0 0 0 -1.2,-0.84 C 86.13,5.25 85.73,5.12 85.33,5 A 0.62,0.62 0 0 1 84.81,4.37 0.56,0.56 0 0 1 85.16,3.84 10.9,10.9 0 0 1 86.28,3.39 l 4.79,-1.81 a 1.35,1.35 0 0 1 0.56,-0.13 h 0.64 a 0.69,0.69 0 0 1 0.52,0.24 1.48,1.48 0 0 1 0.25,1 v 28.87 c 0,0.74 0.21,1.12 0.63,1.12 a 5.48,5.48 0 0 0 1.09,-0.46 c 0.63,-0.3 1.37,-0.7 2.21,-1.19 0.84,-0.49 1.74,-1 2.7,-1.65 0.96,-0.65 1.83,-1.19 2.62,-1.75 0.79,-0.56 1.47,-1.06 2,-1.51 0.53,-0.45 0.81,-0.78 0.81,-1 a 1.43,1.43 0 0 0 -0.42,-1.09 4.1,4.1 0 0 0 -0.91,-0.63 c -0.33,-0.16 -0.63,-0.32 -0.91,-0.49 a 0.73,0.73 0 0 1 -0.42,-0.66 0.61,0.61 0 0 1 0.31,-0.5 1.23,1.23 0 0 1 0.67,-0.21 c 0.74,0 1.6,0 2.56,0.07 0.96,0.07 1.9,0.07 2.83,0.07 0.93,0 1.81,0 2.77,-0.07 0.96,-0.07 1.79,-0.07 2.49,-0.07 a 2.8,2.8 0 0 1 0.91,0.15 0.63,0.63 0 0 1 0.42,0.69 0.68,0.68 0 0 1 -0.38,0.53 5.32,5.32 0 0 1 -1,0.46 c -0.37,0.14 -0.76,0.27 -1.15,0.38 a 8.94,8.94 0 0 0 -1,0.32 c -0.52,0.23 -1.51,0.76 -3,1.57 -1.49,0.81 -3,1.7 -4.56,2.63 -1.56,0.93 -3,1.81 -4.17,2.63 -1.17,0.82 -1.82,1.32 -1.82,1.5 a 0.88,0.88 0 0 0 0.21,0.6 l 0.35,0.39 12.13,11 a 8.63,8.63 0 0 0 2.06,1.48 c 0.68,0.32 1.28,0.59 1.79,0.8 l 1.23,0.53 c 0.31,0.14 0.46,0.32 0.46,0.56 0,0.47 -0.61,0.7 -1.83,0.7 -0.82,0 -1.64,-0.05 -2.45,-0.14 -1,-0.09 -2,-0.14 -3,-0.13 a 26.17,26.17 0 0 0 -2.66,0.13 23.65,23.65 0 0 1 -2.52,0.14 8.66,8.66 0 0 1 -1.61,-0.11 0.54,0.54 0 0 1 -0.49,-0.59 0.66,0.66 0 0 1 0.55,-0.66 10.85,10.85 0 0 1 1.48,-0.32 1.89,1.89 0 0 0 0.94,-0.35 0.79,0.79 0 0 0 0.39,-0.63 c 0,-0.23 -0.26,-0.6 -0.77,-1.12 L 94,34.68 q -0.42,-0.42 -0.63,-0.42 c -0.33,0 -0.49,0.12 -0.49,0.35 v 9.93 a 2.09,2.09 0 0 0 0.53,1.65 2.68,2.68 0 0 0 1,0.59 10.17,10.17 0 0 0 1.44,0.38 q 0.6,0.11 0.6,0.6 c 0,0.28 -0.18,0.47 -0.53,0.56 a 4.46,4.46 0 0 1 -1.09,0.14 19,19 0 0 1 -2.39,-0.14 19.92,19.92 0 0 0 -2.32,-0.13 19.7,19.7 0 0 0 -2.71,0.13 16.76,16.76 0 0 1 -2.35,0.14 6.65,6.65 0 0 1 -1,-0.11 c -0.44,-0.07 -0.67,-0.27 -0.67,-0.59 a 0.67,0.67 0 0 1 0.36,-0.67 4.25,4.25 0 0 1 0.91,-0.31 c 0.46,-0.14 0.91,-0.26 1.33,-0.35 A 4.39,4.39 0 0 0 87.26,46 1.8,1.8 0 0 0 88,45.15 4.37,4.37 0 0 0 88.24,43.47 V 8.25"
       id="path15" />
    <path
       class="cls-1"
       d="m 121.29,30.87 a 3.06,3.06 0 0 0 -0.14,1 v 1.48 a 24.43,24.43 0 0 0 0.39,4.35 9.94,9.94 0 0 0 1.46,3.71 7.87,7.87 0 0 0 3.1,2.59 11.32,11.32 0 0 0 5.22,1 9.33,9.33 0 0 0 3.15,-0.42 5.86,5.86 0 0 0 1.76,-0.94 6.75,6.75 0 0 0 1,-1 1,1 0 0 1 0.77,-0.45 c 0.42,0 0.63,0.19 0.63,0.56 a 3.53,3.53 0 0 1 -0.56,1.09 8.59,8.59 0 0 1 -1.82,1.89 12.94,12.94 0 0 1 -3.25,1.9 12,12 0 0 1 -4.67,0.81 q -5.81,0 -9,-3.82 -3.19,-3.82 -3.17,-10.43 a 18,18 0 0 1 0.84,-5.09 15.2,15.2 0 0 1 2.34,-4.78 13.3,13.3 0 0 1 4,-3.54 10.93,10.93 0 0 1 5.67,-1.4 10.4,10.4 0 0 1 5,1.12 10.61,10.61 0 0 1 5.14,5.95 9.3,9.3 0 0 1 0.56,2.81 2.31,2.31 0 0 1 -0.24,1.29 c -0.16,0.21 -0.55,0.32 -1.15,0.32 h -17 m 6.71,-2.1 a 30.62,30.62 0 0 0 3.71,-0.17 6.33,6.33 0 0 0 2.17,-0.6 2.09,2.09 0 0 0 1,-1.05 4.64,4.64 0 0 0 0.25,-1.61 3.83,3.83 0 0 0 -1.48,-3.05 5.56,5.56 0 0 0 -3.68,-1.22 7.07,7.07 0 0 0 -3.4,0.8 9.13,9.13 0 0 0 -2.6,1.93 9.56,9.56 0 0 0 -1.58,2.31 5,5 0 0 0 -0.56,2 0.46,0.46 0 0 0 0.1,0.32 1.57,1.57 0 0 0 0.7,0.17 c 0.4,0 1,0.08 1.83,0.11 0.83,0.03 2,0 3.47,0 z"
       id="path17" />
  </g>
  <metadata
     id="metadata187">
    <rdf:RDF>
      <cc:Work
         rdf:about="">
        <dc:title>Artboard 1</dc:title>
      </cc:Work>
    </rdf:RDF>
  </metadata>
</svg>
