<?xml version="1.0" encoding="UTF-8" standalone="no"?>
<!-- Created with Inkscape (http://www.inkscape.org/) -->

<svg
   version="1.0"
   width="792.19989"
   height="208.23526"
   id="svg2"
   sodipodi:docname="imperial.svg"
   inkscape:version="1.1 (c4e8f9e, 2021-05-24)"
   xmlns:inkscape="http://www.inkscape.org/namespaces/inkscape"
   xmlns:sodipodi="http://sodipodi.sourceforge.net/DTD/sodipodi-0.dtd"
   xmlns="http://www.w3.org/2000/svg"
   xmlns:svg="http://www.w3.org/2000/svg"
   xmlns:rdf="http://www.w3.org/1999/02/22-rdf-syntax-ns#"
   xmlns:cc="http://creativecommons.org/ns#"
   xmlns:dc="http://purl.org/dc/elements/1.1/">
  <metadata
     id="metadata9">
    <rdf:RDF>
      <cc:Work
         rdf:about="">
        <dc:format>image/svg+xml</dc:format>
        <dc:type
           rdf:resource="http://purl.org/dc/dcmitype/StillImage" />
      </cc:Work>
    </rdf:RDF>
  </metadata>
  <sodipodi:namedview
     pagecolor="#ffffff"
     bordercolor="#666666"
     borderopacity="1"
     objecttolerance="10"
     gridtolerance="10"
     guidetolerance="10"
     inkscape:pageopacity="0"
     inkscape:pageshadow="2"
     inkscape:window-width="1440"
     inkscape:window-height="900"
     id="namedview7"
     showgrid="false"
     inkscape:zoom="0.7225"
     inkscape:cx="465.74394"
     inkscape:cy="113.49481"
     inkscape:window-x="0"
     inkscape:window-y="0"
     inkscape:window-maximized="0"
     inkscape:current-layer="layer1"
     inkscape:pagecheckerboard="0"
     fit-margin-top="0"
     fit-margin-left="0"
     fit-margin-right="0"
     fit-margin-bottom="0" />
  <defs
     id="defs4" />
  <g
     id="layer1"
     transform="translate(-5.5912423,-6.3451902)">
    <path
       d="M 6.6232731,94.387032 H 19.212866 V 11.360836 H 6.6232731 Z M 117.9103,58.246217 c -0.22167,-9.301965 -2.22045,-15.822862 -5.99634,-19.562711 -3.77605,-3.739738 -7.99971,-5.53954 -12.670986,-5.399413 -4.268954,0.04302 -7.913783,1.042411 -10.934497,2.998171 -3.020835,1.955875 -5.526089,4.610359 -7.515769,7.963457 h -0.217062 c -1.277554,-3.400583 -3.280853,-6.068634 -6.009905,-8.00416 -2.729145,-1.935411 -6.00768,-2.921232 -9.835617,-2.957468 -4.533462,0.108592 -8.218989,1.166768 -11.056592,3.174531 -2.837655,2.007879 -4.976618,4.31416 -6.416895,6.91885 H 46.931044 L 46.279859,34.586465 H 35.426761 c 0.113045,2.512097 0.212532,5.112316 0.29846,7.800664 0.08591,2.688453 0.131134,5.695662 0.135664,9.021637 V 94.387032 H 48.233416 V 58.137686 c 0.149209,-4.736885 1.45158,-8.341015 3.907115,-10.812401 2.455487,-2.471291 5.168759,-3.714873 8.139823,-3.730749 3.615401,0.09275 6.260841,1.508177 7.936327,4.246275 1.675405,2.73819 2.502953,6.242833 2.482647,10.513937 V 94.387032 H 83.071859 V 57.4865 c 0.124305,-4.377374 1.340756,-7.778008 3.649356,-10.201911 2.308483,-2.423809 4.962966,-3.653826 7.963458,-3.690053 3.775902,0.06788 6.534397,1.587315 8.275487,4.558301 1.74094,2.971078 2.60014,6.98672 2.57761,12.046938 v 34.187257 h 12.37253 z m 26.95933,-14.54315 -0.65119,-9.116602 h -11.07016 c 0.11305,2.643237 0.21254,5.550959 0.29846,8.723174 0.0859,3.172318 0.13114,6.704094 0.13567,10.595339 V 118.58944 H 146.172 V 87.332518 h 0.21706 c 1.49907,2.48039 3.62898,4.4656 6.38977,5.955637 2.76072,1.490039 5.94882,2.254277 9.56429,2.292717 6.56156,0.04522 12.34987,-2.5143 17.36495,-7.678566 5.01498,-5.164253 7.6559,-13.204582 7.92276,-24.121009 -0.14024,-9.390153 -2.38321,-16.792863 -6.72892,-22.208153 -4.34581,-5.415185 -9.95324,-8.178199 -16.8223,-8.289051 -4.18978,0.01363 -7.88435,0.909009 -11.08372,2.686143 -3.19943,1.777251 -5.83583,4.354859 -7.9092,7.732831 z m 1.30237,15.519929 c 0.11077,-4.506259 1.49002,-8.246052 4.13775,-11.219392 2.64767,-2.973247 5.89907,-4.515289 9.75422,-4.62613 4.84089,0.156064 8.50833,2.204585 11.00232,6.145569 2.4939,3.941073 3.74653,8.838527 3.75789,14.692378 -0.0181,6.303864 -1.31146,11.413858 -3.87998,15.329998 -2.56861,3.91617 -6.30388,5.933036 -11.20583,6.050604 -3.27178,0.03392 -6.30613,-1.173483 -9.10303,-3.622222 -2.79696,-2.448715 -4.28474,-6.34226 -4.46334,-11.680646 z m 95.43519,23.876814 c -1.92421,0.829819 -4.09935,1.503614 -6.52542,2.021387 -2.42616,0.517791 -5.27962,0.784597 -8.56038,0.800419 -4.86584,0.06784 -9.02619,-1.343061 -12.48106,-4.232708 -3.45492,-2.889622 -5.33612,-7.66498 -5.64361,-14.326089 h 37.98584 c 0.217,-1.501316 0.32554,-3.273986 0.32559,-5.318018 0.07,-7.655916 -1.75238,-14.294388 -5.46725,-19.915435 -3.71497,-5.620943 -9.74295,-8.569364 -18.08397,-8.845273 -8.52875,0.221645 -15.13104,3.332863 -19.80691,9.333664 -4.67588,6.000904 -7.04547,13.561888 -7.10877,22.682973 0.0588,9.238719 2.54595,16.564552 7.4615,21.977521 4.91554,5.412984 11.90673,8.180522 20.97361,8.302621 4.08797,-0.02713 7.74184,-0.379859 10.96163,-1.058177 3.21971,-0.678317 5.8968,-1.519431 8.03129,-2.523345 z M 208.50525,58.354748 c 0.28261,-3.708101 1.50811,-7.253442 3.67649,-10.636035 2.16833,-3.3825 5.53731,-5.191348 10.10694,-5.426549 4.75272,0.221636 8.05386,2.003351 9.90345,5.34515 1.84951,3.341894 2.70871,6.914368 2.57761,10.717434 z m 80.41882,-24.745062 c -0.53139,-0.108472 -1.04239,-0.189871 -1.533,-0.244198 -0.49069,-0.0542 -1.02882,-0.08134 -1.6144,-0.0814 -3.32605,0.03624 -6.38753,1.130591 -9.18443,3.283062 -2.79696,2.152587 -4.90879,5.14623 -6.3355,8.980938 h -0.43412 L 269.38849,34.58646 h -10.96163 c 0.16053,2.747246 0.27358,5.609747 0.33916,8.587512 0.0656,2.977868 0.0972,6.193095 0.095,9.645691 v 41.567364 h 12.58959 v -31.69104 c 0.0452,-5.281804 1.28426,-9.47833 3.71719,-12.589593 2.43287,-3.111174 5.78829,-4.70296 10.06624,-4.775363 1.39278,4.9e-5 2.6228,0.10858 3.69006,0.325593 z m 23.46355,-15.519929 c -0.0317,-2.159238 -0.70095,-3.918343 -2.00782,-5.277321 -1.30692,-1.358816 -3.0615,-2.059743 -5.26375,-2.102786 -2.20681,0.04304 -3.97948,0.743973 -5.31802,2.102787 -1.33856,1.358977 -2.02592,3.118082 -2.06209,5.27732 0.0316,2.0599 0.70092,3.773783 2.00782,5.141652 1.30688,1.368012 3.06147,2.077985 5.26375,2.129923 2.30175,-0.05194 4.10155,-0.761909 5.39942,-2.129921 1.29783,-1.367871 1.95806,-3.081754 1.98069,-5.141654 z m -1.08531,16.388177 h -12.58959 v 59.909098 h 12.58959 z m 58.13228,23.117097 c 0.16275,-6.568341 -1.38381,-12.207424 -4.6397,-16.917266 -3.25597,-4.709734 -9.19803,-7.174289 -17.82621,-7.393672 -4.05411,0.0385 -7.74868,0.531412 -11.08372,1.478737 -3.33508,0.947444 -6.08001,2.118672 -8.23479,3.513688 l 2.60474,8.356885 c 1.93546,-1.263886 4.16939,-2.263275 6.70179,-2.998171 2.53237,-0.734794 5.14615,-1.110129 7.84136,-1.126006 5.77246,0.278162 9.28615,1.946824 10.54107,5.005992 1.25485,3.059261 1.75681,5.840365 1.50587,8.343318 -10.367,-0.0022 -18.50229,1.847325 -24.4059,5.548647 -5.90364,3.701387 -8.91085,9.268115 -9.02164,16.700202 0.0339,4.764067 1.56691,8.829451 4.599,12.196166 3.03207,3.366723 7.35974,5.125828 12.98302,5.277321 3.76238,-0.04748 7.06352,-0.820766 9.90345,-2.31985 2.83986,-1.499082 5.10996,-3.439071 6.81032,-5.819973 h 0.32559 l 0.86825,6.945983 h 11.39575 c -0.3686,-1.982949 -0.60828,-4.20331 -0.71902,-6.66109 -0.11084,-2.457766 -0.16058,-4.976586 -0.14923,-7.556468 z m -12.264,16.605239 c -0.0927,3.545362 -1.31823,6.439519 -3.67648,8.682478 -2.35832,2.242983 -5.29318,3.400646 -8.80458,3.472991 -2.40806,0.01584 -4.45658,-0.748403 -6.14557,-2.292719 -1.68903,-1.544295 -2.57084,-3.963628 -2.64544,-7.258006 0.26905,-5.173289 2.57985,-8.582969 6.93242,-10.229048 4.35252,-1.646023 9.1324,-2.396694 14.33965,-2.252014 z M 397.78904,7.3451902 h -12.5896 V 94.387032 h 12.5896 z M 490.39717,82.0145 c -1.83831,0.881825 -4.07675,1.587275 -6.71536,2.116353 -2.63871,0.529098 -5.39268,0.800426 -8.26192,0.813984 -8.6599,-0.04973 -15.43404,-2.799182 -20.32243,-8.248354 -4.88843,-5.449137 -7.3756,-13.299537 -7.4615,-23.551222 0.16278,-10.80104 2.82179,-18.909201 7.97703,-24.324505 5.15519,-5.415173 11.82984,-8.123922 20.02396,-8.126256 3.09535,0.02494 5.85836,0.327927 8.28905,0.908946 2.43059,0.581165 4.51529,1.291138 6.2541,2.129921 l 2.71328,-10.310442 c -1.13738,-0.65789 -3.17685,-1.349776 -6.11844,-2.075659 -2.94169,-0.725717 -6.79906,-1.11914 -11.57211,-1.18027 -11.7666,0.05435 -21.44394,3.798662 -29.03204,11.232954 -7.58813,7.434437 -11.51333,18.233259 -11.77561,32.396497 0.16506,13.326728 3.71492,23.600983 10.64961,30.822797 6.93465,7.221833 16.26378,10.875705 27.98742,10.961628 4.5379,-0.03618 8.48571,-0.397947 11.84344,-1.085309 3.35762,-0.687363 5.92166,-1.483256 7.69214,-2.387682 z m 38.353,-48.730407 c -8.10819,0.05433 -14.79189,2.794733 -20.0511,8.221223 -5.25924,5.426596 -7.98155,13.213685 -8.16695,23.361291 0.16957,9.73163 2.78788,17.26548 7.85492,22.601573 5.06703,5.336107 11.56531,8.040335 19.49488,8.112692 7.05448,0.0814 13.40353,-2.387681 19.04719,-7.40724 5.64355,-5.019547 8.62815,-13.077963 8.9538,-24.175273 -0.10633,-9.304231 -2.57993,-16.715985 -7.4208,-22.235284 -4.84098,-5.519194 -11.41162,-8.345519 -19.71194,-8.478982 z m 14.21756,31.039859 c -0.0453,6.132025 -1.36573,11.260108 -3.96139,15.384265 -2.59574,4.124187 -6.19534,6.267671 -10.79883,6.430461 -4.65103,-0.167309 -8.2642,-2.30175 -10.83953,-6.403328 -2.57537,-4.101549 -3.88226,-9.166323 -3.92068,-15.194336 -0.052,-5.419732 1.08303,-10.34432 3.40516,-14.77378 2.32209,-4.42937 6.14328,-6.77635 11.46358,-7.040946 5.21624,0.282683 8.97412,2.647751 11.27366,7.095211 2.29945,4.44755 3.42546,9.281696 3.37803,14.502453 z M 580.93741,7.3451902 H 568.34782 V 94.387032 h 12.58959 z m 28.61695,0 h -12.5896 V 94.387032 h 12.5896 z M 667.2576,83.09981 c -1.92421,0.829819 -4.09935,1.503614 -6.52543,2.021387 -2.42616,0.517791 -5.27961,0.784597 -8.56037,0.800419 -4.86584,0.06784 -9.02619,-1.343061 -12.48107,-4.232708 -3.45492,-2.889622 -5.33612,-7.66498 -5.64361,-14.326089 h 37.98584 c 0.21701,-1.501316 0.32554,-3.273986 0.3256,-5.318018 0.07,-7.655916 -1.75238,-14.294388 -5.46725,-19.915435 -3.71497,-5.620943 -9.74296,-8.569364 -18.08398,-8.845273 -8.52874,0.221645 -15.13104,3.332863 -19.8069,9.333664 -4.67588,6.000904 -7.04547,13.561888 -7.10878,22.682973 0.0588,9.238719 2.54595,16.564552 7.46151,21.977521 4.91553,5.412984 11.90673,8.180522 20.97361,8.302621 4.08796,-0.02713 7.74183,-0.379859 10.96163,-1.058177 3.2197,-0.678317 5.8968,-1.519431 8.03129,-2.523345 z M 634.15565,58.354748 c 0.28262,-3.708101 1.50811,-7.253442 3.67649,-10.636035 2.16834,-3.3825 5.53732,-5.191348 10.10695,-5.426549 4.75271,0.221636 8.05386,2.003351 9.90345,5.34515 1.8495,3.341894 2.70871,6.914368 2.57761,10.717434 z m 89.1013,-23.768283 -0.54265,8.031292 h -0.21707 c -1.21875,-2.478071 -3.1497,-4.6306 -5.79284,-6.457595 -2.64322,-1.826878 -6.17499,-2.785567 -10.59533,-2.876069 -6.75156,0.04754 -12.59414,2.774382 -17.52776,8.180521 -4.93364,5.406246 -7.52029,13.206902 -7.75996,23.401993 0.10853,8.528745 2.30628,15.483764 6.59326,20.865078 4.28696,5.381331 10.01196,8.157913 17.17502,8.329754 3.87317,-0.04748 7.22406,-0.875028 10.05268,-2.482646 2.82855,-1.607611 5.01273,-3.710397 6.55256,-6.308363 h 0.21707 v 5.752141 c -0.086,6.726655 -1.65063,11.587929 -4.69397,14.583849 -3.04343,2.99589 -7.05002,4.46558 -12.0198,4.40907 -3.3871,-0.0407 -6.46214,-0.47484 -9.22514,-1.30237 -2.76303,-0.82756 -5.07836,-1.80434 -6.94598,-2.93034 l -2.82181,9.76779 c 2.39446,1.4154 5.25696,2.49167 8.58752,3.2288 3.33052,0.73708 6.76281,1.10789 10.29687,1.11244 9.27936,-0.19833 16.00828,-2.24969 20.18677,-6.15411 4.17839,-3.90445 6.78313,-8.47213 7.81423,-13.70304 1.03098,-5.230926 1.4651,-9.935269 1.30237,-14.113044 V 51.84289 c 0.002,-3.968119 0.0519,-7.31901 0.14923,-10.052683 0.0972,-2.733567 0.22831,-5.134812 0.39342,-7.203742 z m -1.95356,34.838442 c -0.1357,4.992445 -1.49234,8.73676 -4.06991,11.232955 -2.57765,2.496222 -5.56225,3.744328 -8.9538,3.74432 -4.694,-0.103997 -8.30265,-1.985199 -10.82597,-5.643611 -2.52336,-3.658381 -3.7986,-8.469916 -3.82571,-14.434619 0.0723,-6.480169 1.44706,-11.590165 4.12417,-15.330004 2.67708,-3.739747 6.22242,-5.648081 10.63604,-5.725005 3.90934,0.106322 7.02508,1.521745 9.34723,4.246275 2.32206,2.724623 3.51138,6.120734 3.56795,10.188344 z m 70.38487,13.674903 c -1.92421,0.829819 -4.09935,1.503614 -6.52542,2.021387 -2.42616,0.517791 -5.27962,0.784597 -8.56038,0.800419 -4.86584,0.06784 -9.02619,-1.343061 -12.48106,-4.232708 -3.45492,-2.889622 -5.33612,-7.66498 -5.64361,-14.326089 h 37.98584 c 0.217,-1.501316 0.32554,-3.273986 0.32559,-5.318018 0.07,-7.655916 -1.75238,-14.294388 -5.46725,-19.915435 -3.71497,-5.620943 -9.74295,-8.569364 -18.08397,-8.845273 -8.52875,0.221645 -15.13104,3.332863 -19.80691,9.333664 -4.67588,6.000904 -7.04547,13.561888 -7.10877,22.682973 0.0588,9.238719 2.54595,16.564552 7.4615,21.977521 4.91554,5.412984 11.90673,8.180522 20.97361,8.302621 4.08797,-0.02713 7.74184,-0.379859 10.96163,-1.058177 3.21971,-0.678317 5.8968,-1.519431 8.03129,-2.523345 z M 758.58632,58.354748 c 0.28261,-3.708101 1.50811,-7.253442 3.67649,-10.636035 2.16833,-3.3825 5.53731,-5.191348 10.10694,-5.426549 4.75272,0.221636 8.05386,2.003351 9.90345,5.34515 1.84951,3.341894 2.70871,6.914368 2.57761,10.717434 z"
       id="text3368"
       style="font-style:normal;font-variant:normal;font-weight:normal;font-stretch:normal;font-size:108.532px;line-height:100%;font-family:'Adobe Heiti Std R';-inkscape-font-specification:'Adobe Heiti Std R';text-align:start;writing-mode:lr-tb;text-anchor:start;fill:#003e74;fill-opacity:1;stroke:#003e74;stroke-width:2;stroke-linecap:butt;stroke-linejoin:miter;stroke-miterlimit:4;stroke-dasharray:none;stroke-opacity:1" />
    <path
       d="M 52.453341,208.24609 H 19.410674 V 133.53606 H 6.4176248 v 85.68692 H 52.453341 Z m 36.0309,-52.0842 c -8.368034,0.0561 -15.265917,2.88429 -20.693672,8.48468 -5.42778,5.6005 -8.237337,13.63714 -8.428679,24.10995 0.17501,10.0435 2.877225,17.81878 8.106654,23.32588 5.229404,5.50711 11.935939,8.298 20.119625,8.37268 7.280548,0.084 13.833071,-2.4642 19.657581,-7.64462 5.82441,-5.18041 8.90466,-13.49707 9.24075,-24.95001 -0.10974,-9.60241 -2.66261,-17.25168 -7.65862,-22.94786 -4.99612,-5.69606 -11.777323,-8.61296 -20.343639,-8.7507 z m 14.673189,32.03458 c -0.0467,6.32854 -1.4095,11.62096 -4.088336,15.87728 -2.678926,4.25636 -6.393888,6.46853 -11.144898,6.63654 -4.800082,-0.17267 -8.529046,-2.37551 -11.186904,-6.60853 -2.657901,-4.23299 -4.006675,-9.46008 -4.046326,-15.68127 -0.05369,-5.59342 1.117738,-10.67582 3.514283,-15.24723 2.396503,-4.57132 6.340151,-6.99351 11.830956,-7.26659 5.383394,0.29175 9.261703,2.73261 11.634938,7.32259 2.373147,4.59008 3.535237,9.57915 3.486287,14.96721 z m 77.15757,-6.72054 c -0.24741,-9.38538 -2.44092,-15.98457 -6.58053,-19.7976 -4.13972,-3.81291 -8.74142,-5.65173 -13.80512,-5.51644 -4.66474,0.10973 -8.58039,1.20649 -11.74694,3.29026 -3.16662,2.08389 -5.48613,4.49675 -6.95856,7.23859 h -0.33603 l -0.67206,-9.18474 h -11.31291 c 0.11667,2.5996 0.21934,5.29714 0.30803,8.09265 0.0887,2.79561 0.13533,5.88519 0.14001,9.26875 v 44.35558 h 12.99305 v -37.187 c 0.15165,-4.94236 1.55643,-8.69466 4.21434,-11.25692 2.65785,-2.56215 5.65876,-3.85025 9.00272,-3.86431 4.36131,0.12607 7.42756,1.7222 9.19874,4.78839 1.7711,3.06629 2.62517,6.8466 2.56221,11.34092 v 36.17892 H 180.315 Z m 67.94136,-52.0842 h -12.99305 v 35.05883 h -0.22401 c -1.36049,-2.40348 -3.42799,-4.37297 -6.20251,-5.90848 -2.77459,-1.5354 -6.15819,-2.32879 -10.15081,-2.38019 -7.10093,0.0584 -13.11675,2.90996 -18.04746,8.55469 -4.93074,5.64483 -7.50228,13.73281 -7.71462,24.26396 0.15167,9.64213 2.50853,17.26807 7.07057,22.87784 4.56202,5.60979 10.41915,8.47535 17.57142,8.5967 4.39865,-0.0607 8.20229,-1.08743 11.41092,-3.08025 3.20855,-1.99283 5.64007,-4.5877 7.29459,-7.78463 h 0.33602 l 0.67206,9.63278 h 11.42492 c -0.11674,-2.19818 -0.21941,-4.77438 -0.30803,-7.72863 -0.0887,-2.95422 -0.1354,-5.86646 -0.14001,-8.7367 z m -12.99305,64.5172 c -0.0537,4.44072 -1.31848,8.18835 -3.7943,11.24291 -2.47591,3.05459 -5.84084,4.64605 -10.09482,4.77439 -4.94709,-0.13534 -8.71806,-2.18883 -11.31291,-6.1605 -2.5949,-3.97164 -3.90167,-9.04937 -3.92032,-15.23323 0.021,-6.2608 1.3511,-11.46455 3.99033,-15.61126 2.63919,-4.14662 6.46149,-6.29812 11.46692,-6.45452 3.7546,0.0374 6.94218,1.44684 9.56277,4.22834 2.6205,2.7816 3.98794,6.71125 4.10233,11.78895 z m 54.70853,-37.74704 c -8.36804,0.0561 -15.26592,2.88429 -20.69368,8.48468 -5.42778,5.6005 -8.23733,13.63714 -8.42867,24.10995 0.175,10.0435 2.87722,17.81878 8.10665,23.32588 5.2294,5.50711 11.93594,8.298 20.11962,8.37268 7.28055,0.084 13.83307,-2.4642 19.65759,-7.64462 5.82441,-5.18041 8.90466,-13.49707 9.24075,-24.95001 -0.10974,-9.60241 -2.66261,-17.25168 -7.65862,-22.94786 -4.99612,-5.69606 -11.77733,-8.61296 -20.34364,-8.7507 z m 14.67318,32.03458 c -0.0467,6.32854 -1.40949,11.62096 -4.08833,15.87728 -2.67893,4.25636 -6.39389,6.46853 -11.1449,6.63654 -4.80008,-0.17267 -8.52905,-2.37551 -11.1869,-6.60853 -2.6579,-4.23299 -4.00668,-9.46008 -4.04633,-15.68127 -0.0537,-5.59342 1.11774,-10.67582 3.51428,-15.24723 2.39651,-4.57132 6.34015,-6.99351 11.83096,-7.26659 5.38339,0.29175 9.2617,2.73261 11.63494,7.32259 2.37314,4.59008 3.53524,9.57915 3.48628,14.96721 z m 77.15759,-6.72054 c -0.24741,-9.38538 -2.44092,-15.98457 -6.58053,-19.7976 -4.13972,-3.81291 -8.74142,-5.65173 -13.80512,-5.51644 -4.66474,0.10973 -8.58039,1.20649 -11.74694,3.29026 -3.16662,2.08389 -5.48613,4.49675 -6.95857,7.23859 h -0.33602 l -0.67206,-9.18474 h -11.31291 c 0.11667,2.5996 0.21934,5.29714 0.30803,8.09265 0.0887,2.79561 0.13533,5.88519 0.14001,9.26875 v 44.35558 h 12.99305 v -37.187 c 0.15165,-4.94236 1.55643,-8.69466 4.21434,-11.25692 2.65785,-2.56215 5.65876,-3.85025 9.00272,-3.86431 4.36131,0.12607 7.42756,1.7222 9.19874,4.78839 1.7711,3.06629 2.62517,6.8466 2.56221,11.34092 v 36.17892 h 12.99305 z"
       transform="scale(1.0320468,0.9689483)"
       id="text3372"
       style="font-style:normal;font-variant:normal;font-weight:normal;font-stretch:normal;font-size:112.01px;line-height:100%;font-family:'Adobe Heiti Std R';-inkscape-font-specification:'Adobe Heiti Std R';text-align:start;writing-mode:lr-tb;text-anchor:start;fill:#003e74;fill-opacity:1;stroke:#003e74;stroke-width:2;stroke-linecap:butt;stroke-linejoin:miter;stroke-miterlimit:4;stroke-dasharray:none;stroke-opacity:1" />
  </g>
</svg>
