<?xml version="1.0" encoding="UTF-8" standalone="no"?>
<svg
   xmlns:dc="http://purl.org/dc/elements/1.1/"
   xmlns:cc="http://creativecommons.org/ns#"
   xmlns:rdf="http://www.w3.org/1999/02/22-rdf-syntax-ns#"
   xmlns:svg="http://www.w3.org/2000/svg"
   xmlns="http://www.w3.org/2000/svg"
   xmlns:sodipodi="http://sodipodi.sourceforge.net/DTD/sodipodi-0.dtd"
   xmlns:inkscape="http://www.inkscape.org/namespaces/inkscape"
   version="1.0"
   width="97.000000pt"
   height="73.000000pt"
   viewBox="0 0 97.000000 73.000000"
   preserveAspectRatio="xMidYMid meet"
   id="svg2"
   inkscape:version="0.92.1 r15371"
   sodipodi:docname="Logo IES Peñacastillo vectorizado Enero 2020.svg">
  <defs
     id="defs12">
    <inkscape:path-effect
       effect="spiro"
       id="path-effect3820"
       is_visible="true" />
  </defs>
  <sodipodi:namedview
     pagecolor="#ffffff"
     bordercolor="#666666"
     borderopacity="1"
     objecttolerance="10"
     gridtolerance="10"
     guidetolerance="10"
     inkscape:pageopacity="0"
     inkscape:pageshadow="2"
     inkscape:window-width="1344"
     inkscape:window-height="768"
     id="namedview10"
     showgrid="false"
     inkscape:zoom="8.5956232"
     inkscape:cx="11.019219"
     inkscape:cy="84.645602"
     inkscape:window-x="39"
     inkscape:window-y="5"
     inkscape:window-maximized="0"
     inkscape:current-layer="svg2" />
  <metadata
     id="metadata4">
Created by potrace 1.13, written by Peter Selinger 2001-2015
<rdf:RDF>
  <cc:Work
     rdf:about="">
    <dc:format>image/svg+xml</dc:format>
    <dc:type
       rdf:resource="http://purl.org/dc/dcmitype/StillImage" />
    <dc:title></dc:title>
  </cc:Work>
</rdf:RDF>
</metadata>
  <g
     transform="translate(0.000000,73.000000) scale(0.100000,-0.100000)"
     fill="#000000"
     stroke="none"
     id="g6"
     style="fill:#000080">
    <path
       d="M 0,365 0,0 l 485,0 485,0 0,365 0,365 -485,0 -485,0 z m 520,286 c 0,-16 5,-31 11,-33 8,-3 5,-41 -10,-127 C 487,291 495,201 547,174 L 560.292,159.07809 549,123 C 528,81 491,56 464,67 c -21,8 -34,45 -34,97 0,57 35,253 62,345 16,55 19,76 10,79 -19,6 -16,92 3,92 10,0 15,-10 15,-29 z m 160,2 c 0,-45 -11,-71 -29,-76 -10,-2 -18,-10 -19,-18 -1,-8 -3,-70 -6,-139 -6,-143 10,-217 52,-235 27,-12 28,-30 3,-72 -23,-37 -57,-51 -77,-31 -24,23 -37,126 -31,243 7,137 36,295 54,295 8,0 16,14 20,30 7,38 33,40 33,3 z M 825,438 C 796,352 763,294 723,261 c -56,-46 -65,-43 -77,22 -7,37 -6,38 36,56 50,21 86,56 125,117 15,23 29,41 31,39 2,-2 -4,-28 -13,-57 z M 400,425 c 25,-18 44,-39 42,-46 -2,-7 -6,-35 -9,-61 -3,-26 -10,-48 -14,-48 -5,0 -28,14 -51,30 -96,68 -149,57 -250,-50 -38,-40 -68,-69 -68,-65 0,4 24,44 54,88 129,197 190,228 296,152 z"
       id="path8"
       style="fill:#000080"
       inkscape:connector-curvature="0"
       sodipodi:nodetypes="cccccccccsccccccsccssscscccccscscccccsccsssccscc" />
  </g>
  <path
     sodipodi:type="arc"
     style="fill:#ff0000"
     id="path2989"
     sodipodi:cx="103.99686"
     sodipodi:cy="18.209248"
     sodipodi:rx="2.8996866"
     sodipodi:ry="6.4263325"
     d="m 106.89654,18.209248 a 2.8996866,6.4263325 0 1 1 -5.79937,0 2.8996866,6.4263325 0 1 1 5.79937,0 z"
     transform="matrix(0.8,0,0,0.8,-1.7554859,2.0062696)" />
  <path
     sodipodi:type="star"
     style="fill:#ffff00"
     id="path2991"
     sodipodi:sides="5"
     sodipodi:cx="5.0156741"
     sodipodi:cy="30.748432"
     sodipodi:r1="3.8806953"
     sodipodi:r2="1.9403477"
     sodipodi:arg1="0.75683451"
     sodipodi:arg2="1.385153"
     inkscape:flatsided="false"
     inkscape:rounded="0"
     inkscape:randomized="0"
     d="M 7.8369907,33.413009 5.3738212,32.65544 3.3533458,34.255063 3.3126752,31.678348 1.1669822,30.251073 3.6050158,29.416144 4.29938,26.934416 5.8468382,28.995117 8.421672,28.8886 6.9400201,30.997112 z"
     transform="matrix(0.8,0,0,0.8,0.00510228,-2.9962626)"
     inkscape:transform-center-x="0.22134706"
     inkscape:transform-center-y="-0.15369257" />
  <path
     sodipodi:type="star"
     style="fill:#ffff00"
     id="path2997"
     sodipodi:sides="5"
     sodipodi:cx="5.0156741"
     sodipodi:cy="30.748432"
     sodipodi:r1="3.8806953"
     sodipodi:r2="1.9403477"
     sodipodi:arg1="0.75683451"
     sodipodi:arg2="1.385153"
     inkscape:flatsided="false"
     inkscape:rounded="0"
     inkscape:randomized="0"
     d="M 7.8369907,33.413009 5.3738212,32.65544 3.3533458,34.255063 3.3126752,31.678348 1.1669822,30.251073 3.6050158,29.416144 4.29938,26.934416 5.8468382,28.995117 8.421672,28.8886 6.9400201,30.997112 z"
     transform="matrix(0.8,0,0,0.8,7.413426,-6.5458875)"
     inkscape:transform-center-x="0.22134706"
     inkscape:transform-center-y="-0.15369257" />
  <path
     inkscape:transform-center-y="-0.15369257"
     inkscape:transform-center-x="0.22134706"
     transform="matrix(0.8,0,0,0.8,12.784867,-12.815479)"
     d="M 7.8369907,33.413009 5.3738212,32.65544 3.3533458,34.255063 3.3126752,31.678348 1.1669822,30.251073 3.6050158,29.416144 4.29938,26.934416 5.8468382,28.995117 8.421672,28.8886 6.9400201,30.997112 z"
     inkscape:randomized="0"
     inkscape:rounded="0"
     inkscape:flatsided="false"
     sodipodi:arg2="1.385153"
     sodipodi:arg1="0.75683451"
     sodipodi:r2="1.9403477"
     sodipodi:r1="3.8806953"
     sodipodi:cy="30.748432"
     sodipodi:cx="5.0156741"
     sodipodi:sides="5"
     id="path2999"
     style="fill:#ffff00"
     sodipodi:type="star" />
  <path
     sodipodi:type="star"
     style="fill:#ffff00"
     id="path3001"
     sodipodi:sides="5"
     sodipodi:cx="5.0156741"
     sodipodi:cy="30.748432"
     sodipodi:r1="3.8806953"
     sodipodi:r2="1.9403477"
     sodipodi:arg1="0.75683451"
     sodipodi:arg2="1.385153"
     inkscape:flatsided="false"
     inkscape:rounded="0"
     inkscape:randomized="0"
     d="M 7.8369907,33.413009 5.3738212,32.65544 3.3533458,34.255063 3.3126752,31.678348 1.1669822,30.251073 3.6050158,29.416144 4.29938,26.934416 5.8468382,28.995117 8.421672,28.8886 6.9400201,30.997112 z"
     transform="matrix(0.8,0,0,0.8,16.300941,-20.188087)"
     inkscape:transform-center-x="0.22134706"
     inkscape:transform-center-y="-0.15369257" />
  <path
     style="fill:#00ff00;stroke:#00ff00"
     d="M 6.6477853,67.509941 C 7.0498595,66.232422 15.804952,52.893137 19.445364,48.011513 c 6.420578,-8.609697 11.38152,-13.000468 16.024457,-14.182732 1.713513,-0.436324 4.127927,-0.429579 5.891768,0.01646 2.803563,0.708962 6.597008,2.738972 9.561217,5.116552 1.403592,1.125815 3.450968,3.199659 3.878111,3.928243 l 0.397425,0.677896 -0.329944,2.065051 c -0.181469,1.135778 -0.512469,3.405177 -0.735556,5.043108 -0.560188,4.112946 -1.16422,6.391102 -1.754613,6.617656 -0.388032,0.148902 -1.861517,-0.690898 -6.067184,-3.457935 -5.955087,-3.918036 -8.910949,-5.201662 -12.394509,-5.382496 -2.768339,-0.143706 -4.685149,0.2796 -7.357713,1.624869 -3.435823,1.729464 -6.502048,4.303456 -12.293437,10.31992 -3.080993,3.200732 -6.5605756,6.617528 -7.2869357,7.15545 l -0.4490575,0.332558 0.1183925,-0.376171 0,0 z"
     id="path3771"
     inkscape:connector-curvature="0"
     transform="scale(0.8,0.8)" />
  <path
     style="fill:#00ff00;stroke:#00ff00;stroke-opacity:1"
     d="m 83.621756,62.337646 c -0.989769,-0.274069 -1.525913,-1.194114 -2.192716,-3.762795 -0.210226,-0.809835 -0.535091,-2.378496 -0.721923,-3.485912 -0.612391,-3.629832 -0.45347,-3.851409 4.326433,-6.032133 2.856772,-1.303339 4.239441,-2.096069 6.171387,-3.538263 3.148068,-2.350027 5.863983,-5.437951 9.420173,-10.710492 1.88155,-2.78966 3.8104,-5.370206 4.014,-5.370206 0.31182,0 -0.79805,4.628096 -1.86061,7.758621 -1.68313,4.958869 -4.341522,10.826194 -6.377486,14.075737 -2.13145,3.401943 -4.538164,6.097153 -7.483598,8.380661 -2.879231,2.232183 -4.310204,2.957655 -5.29566,2.684782 l 0,0 z"
     id="path3781"
     inkscape:connector-curvature="0"
     transform="scale(0.8,0.8)" />
  <path
     style="fill:#ffff00;stroke:#ffff00;stroke-width:0.80000001"
     d="m 46.50627,66.276359 c -2.91206,-1.759118 -3.268844,-5.54329 -3.349761,-8.620889 0.06258,-8.289375 1.968818,-16.407774 3.449749,-24.522933 1.12387,-5.325706 2.583541,-10.571662 3.879015,-15.856408 1.346575,-2.546414 -2.188588,-4.415838 -1.395589,-7.077425 -0.288222,-1.5277758 0.207498,-6.2530666 2.387672,-4.3871346 0.663863,2.2475312 0.602005,4.6481796 1.942778,6.6624336 0.005,3.155954 -0.614524,6.29045 -1.056123,9.415697 -1.441683,9.28104 -3.19522,18.728182 -1.915959,28.132317 0.467615,2.734493 3.61469,3.422971 4.629732,5.79082 1.263917,2.305472 1.02431,5.744918 -0.979887,7.598456 -2.009184,1.567578 -4.448597,3.15935 -7.097743,2.949546 l -0.493884,-0.08449 0,5e-6 z"
     id="path3783"
     inkscape:connector-curvature="0" />
  <path
     style="fill:#ffff00;stroke:#ffff00"
     d="m 77.151606,81.877516 c -1.511458,-0.472702 -2.129517,-1.93687 -3.389069,-4.416922 -3.516064,-6.923112 -2.840779,-21.323906 -1.274246,-36.580743 1.186082,-11.551534 3.225507,-22.321206 4.862552,-25.677868 0.493553,-1.012 0.640964,-1.182825 1.243618,-1.441153 1.107664,-0.4748 1.856552,-1.742866 2.503301,-4.2387526 0.638999,-2.4659772 1.795329,-3.6283007 2.864545,-2.8793927 0.838186,0.5870886 1.146045,2.6569894 0.829933,5.5800913 -0.436906,4.040096 -1.536345,6.123577 -3.635206,6.88886 -0.510675,0.186201 -1.14812,0.571344 -1.457232,0.880457 -0.685222,0.685222 -0.822376,1.337985 -0.947283,4.508448 -0.05094,1.293104 -0.197211,4.819749 -0.325038,7.836991 -0.513499,12.120694 -0.469024,18.641142 0.159925,23.446428 0.898306,6.863224 2.69793,10.57281 5.988313,12.343782 3.165551,1.703783 3.447715,3.107859 1.435673,7.144069 -1.761832,3.534279 -4.067414,5.840186 -6.587707,6.588633 -0.966543,0.287031 -1.398511,0.290277 -2.272079,0.01707 z"
     id="path3785"
     inkscape:connector-curvature="0"
     transform="scale(0.8,0.8)"
     sodipodi:nodetypes="cssssssssssssssscc" />
  <rect
     style="fill:#ffff00"
     id="rect3787"
     width="5.9561129"
     height="6.5830722"
     x="69.278999"
     y="6.7672415"
     transform="scale(0.8,0.8)" />
  <path
     style="fill:#00ff00;stroke:#00ff00;stroke-width:0.80000001px;stroke-linecap:butt;stroke-linejoin:miter;stroke-opacity:1"
     inkscape:path-effect="#path-effect3820"
     inkscape:original-d="m 51.562858,38.225947 c 0.778524,0.749236 1.462799,1.683904 2.520855,2.050758 0.324783,0.204144 0.556281,0.668745 0.808645,0.858397 -0.185952,0.783488 -0.05556,1.598165 -0.02002,2.392852 0.04624,0.636154 0.02477,1.325727 0.366189,1.89009 0.290513,0.431858 0.719188,0.832974 0.71898,1.390296 0.05014,0.678076 -0.11727,1.350346 -0.08185,2.027987 -0.16826,0.466355 -0.752948,0.338796 -1.10081,0.179215 -0.852017,-0.382988 -1.890942,-1.019474 -2.421978,-1.770964 -0.575959,-1.04268 -0.652705,-2.243796 -0.80387,-3.431812 -0.34613,-1.836278 -0.528272,-3.768396 0.01387,-5.586819 z"
     id="path3818"
     d="m 51.562858,38.225947 2.520855,2.050758 0.808645,0.858397 c -0.07979,0.794769 -0.0865,1.596859 -0.02002,2.392852 0.05355,0.641211 0.155455,1.282134 0.366189,1.89009 0.171462,0.494657 0.414421,0.964469 0.71898,1.390296 l -0.08185,2.027987 c -0.349317,0.134831 -0.726764,0.19628 -1.10081,0.179215 -0.529299,-0.02415 -1.050307,-0.207556 -1.478014,-0.520297 -0.427707,-0.312742 -0.76046,-0.753609 -0.943964,-1.250667 -0.370025,-1.116779 -0.639425,-2.266878 -0.80387,-3.431812 -0.26119,-1.850272 -0.256503,-3.737867 0.01387,-5.586819 z"
     inkscape:connector-curvature="0"
     sodipodi:nodetypes="cccccccccccc" />
  <path
     style="fill:#00ffff"
     d="m 29.122436,64.725906 c -1.435286,-0.924048 -2.029632,-2.615055 -2.738948,-4.080959 -0.642731,-1.990549 -0.492483,-4.116419 -0.550773,-6.178053 0.06094,-2.981594 0.724425,-5.928827 1.806554,-8.700497 0.35811,-1.211001 0.69553,-2.460224 1.415419,-3.516389 1.340008,0.388483 0.465767,2.121598 1.100746,3.046255 1.102931,3.938683 2.157437,8.087905 4.841349,11.291504 1.123167,1.299325 2.577062,2.373759 4.260677,2.800436 -1.530001,2.177756 -3.434836,4.187745 -5.872817,5.337365 -1.095648,0.714335 -2.60098,1.14555 -3.779842,0.363302 -0.174114,-0.101725 -0.337247,-0.222788 -0.482365,-0.362964 z"
     id="path3783-1"
     inkscape:connector-curvature="0" />
</svg>
