<?xml version="1.0" encoding="UTF-8" standalone="no"?>
<svg
   width="1073.8555pt"
   height="812.68298pt"
   viewBox="0 0 1073.8555 812.68298"
   version="1.2"
   id="svg386"
   sodipodi:docname="rsm.svg"
   inkscape:version="1.1 (c4e8f9e, 2021-05-24)"
   xmlns:inkscape="http://www.inkscape.org/namespaces/inkscape"
   xmlns:sodipodi="http://sodipodi.sourceforge.net/DTD/sodipodi-0.dtd"
   xmlns="http://www.w3.org/2000/svg"
   xmlns:svg="http://www.w3.org/2000/svg">
  <sodipodi:namedview
     id="namedview388"
     pagecolor="#ffffff"
     bordercolor="#666666"
     borderopacity="1.0"
     inkscape:pageshadow="2"
     inkscape:pageopacity="0.0"
     inkscape:pagecheckerboard="0"
     inkscape:document-units="pt"
     showgrid="false"
     fit-margin-top="0"
     fit-margin-left="0"
     fit-margin-right="0"
     fit-margin-bottom="0"
     inkscape:zoom="0.28434157"
     inkscape:cx="497.64091"
     inkscape:cy="865.15664"
     inkscape:window-width="1440"
     inkscape:window-height="900"
     inkscape:window-x="0"
     inkscape:window-y="0"
     inkscape:window-maximized="0"
     inkscape:current-layer="svg386" />
  <defs
     id="defs53">
    <clipPath
       id="clip1">
      <path
         d="M 363,0.00390625 H 611 V 286 H 363 Z m 0,0"
         id="path9" />
    </clipPath>
    <clipPath
       id="clip2">
      <path
         d="m 659,13 h 414.8555 V 388 H 659 Z m 0,0"
         id="path12" />
    </clipPath>
    <clipPath
       id="clip3">
      <path
         d="m 976,1234 h 6 v 8.8789 h -6 z m 0,0"
         id="path15" />
    </clipPath>
    <filter
       id="alpha"
       filterUnits="objectBoundingBox"
       x="0"
       y="0"
       width="1"
       height="1">
      <feColorMatrix
         type="matrix"
         in="SourceGraphic"
         values="0 0 0 0 1 0 0 0 0 1 0 0 0 0 1 0 0 0 1 0"
         id="feColorMatrix18" />
    </filter>
    <mask
       id="mask0">
      <g
         filter="url(#alpha)"
         id="g23">
        <rect
           x="0"
           y="0"
           width="1073.86"
           height="1242.88"
           style="fill:#000000;fill-opacity:0.419998;stroke:none"
           id="rect21" />
      </g>
    </mask>
    <clipPath
       id="clip5">
      <path
         d="M 0.363281,0.761719 H 0.449219 V 1.617188 H 0.363281 Z m 0,0"
         id="path26" />
    </clipPath>
    <clipPath
       id="clip4">
      <rect
         x="0"
         y="0"
         width="1"
         height="2"
         id="rect29" />
    </clipPath>
    <g
       id="surface2536"
       clip-path="url(#clip4)">
      <g
         clip-path="url(#clip5)"
         clip-rule="nonzero"
         id="g34">
        <path
           style="fill:#117dbf;fill-opacity:1;fill-rule:nonzero;stroke:none"
           d="M 0.449219,0.851562 V 0.761719 C 0.429688,1.050781 0.402344,1.335938 0.367188,1.617188 0.417969,1.371094 0.449219,1.113281 0.449219,0.851562"
           id="path32" />
      </g>
    </g>
    <mask
       id="mask1">
      <g
         filter="url(#alpha)"
         id="g39">
        <rect
           x="0"
           y="0"
           width="1073.86"
           height="1242.88"
           style="fill:#000000;fill-opacity:0.419998;stroke:none"
           id="rect37" />
      </g>
    </mask>
    <clipPath
       id="clip7">
      <path
         d="M 0.449219,0.851562 H 0.488281 V 2.761719 H 0.449219 Z m 0,0"
         id="path42" />
    </clipPath>
    <clipPath
       id="clip6">
      <rect
         x="0"
         y="0"
         width="1"
         height="3"
         id="rect45" />
    </clipPath>
    <g
       id="surface2539"
       clip-path="url(#clip6)">
      <g
         clip-path="url(#clip7)"
         clip-rule="nonzero"
         id="g50">
        <path
           style="fill:#117dbf;fill-opacity:1;fill-rule:nonzero;stroke:none"
           d="m 0.488281,1.808594 c 0,-0.324219 -0.015625,-0.640625 -0.039062,-0.957032 V 2.765625 C 0.472656,2.445312 0.488281,2.128906 0.488281,1.808594"
           id="path48" />
      </g>
    </g>
  </defs>
  <path
     style="fill:#077dbf;fill-opacity:1;fill-rule:nonzero;stroke:none"
     d="m 92.652344,685.3789 c 4.574218,4.91016 6.863281,7.41016 11.433596,12.48828 -0.0273,8.9961 -0.0391,13.49219 -0.0625,22.48828 -5.964846,-0.30468 -8.945315,-0.46093 -14.910159,-0.77343 0.01563,-7.32813 0.02344,-10.99219 0.03906,-18.31641 -8.09375,-0.19922 -12.140625,-0.30078 -20.234375,-0.51172 -0.0078,9.82422 -0.01172,14.73828 -0.02344,24.5625 9.351563,0.6211 14.03125,0.92578 23.386719,1.51953 4.675781,5.22657 7.015625,7.88672 11.687505,13.27735 -0.0273,9.92187 -0.0547,19.83984 -0.0781,29.76172 -4.585947,4.40625 -6.87501,6.5625 -11.449229,10.78906 -10.84375,-1.57813 -16.265625,-2.39063 -27.097656,-4.06641 -4.558594,-5.38281 -6.835938,-8.03515 -11.398438,-13.25 v -15.21484 c 5.96875,0.66406 8.953126,0.98828 14.925782,1.6289 -0.0039,4.80079 -0.0039,7.19922 -0.01172,11.9961 8.0625,1.02734 12.09375,1.53125 20.164063,2.51562 0.01562,-8.72656 0.02734,-13.08984 0.04297,-21.8125 -9.59375,-0.84765 -14.386718,-1.28125 -23.976562,-2.17187 -4.453125,-5.07031 -6.683594,-7.5625 -11.144532,-12.46094 v -30.93359 c 4.582032,-4.51563 6.875,-6.82032 11.464844,-11.51953 10.898438,0 16.347656,0.004 27.242188,0.004"
     id="path55" />
  <path
     style="fill:#077dbf;fill-opacity:1;fill-rule:nonzero;stroke:none"
     d="m 148.06641,770.98828 c 0.0234,-5.375 0.0352,-8.0625 0.0547,-13.44141 5.94141,0.53125 8.91016,0.78906 14.85157,1.29688 -0.0469,10.41015 -0.0898,20.82031 -0.13672,31.22656 -16.89453,-2.0586 -33.76953,-4.25781 -50.625,-6.59766 0.0195,-6.55078 0.0312,-9.82812 0.0508,-16.3789 2.20703,0.2539 3.30859,0.38281 5.51953,0.63281 0.0703,-21.92578 0.14063,-43.84766 0.21094,-65.77344 -2.21094,-0.0547 -3.32031,-0.0781 -5.53125,-0.12891 0.0195,-6.57812 0.0273,-9.86328 0.0469,-16.4414 16.9336,0.004 33.86328,0.004 50.78906,0.008 -0.043,10.42969 -0.0898,20.86328 -0.13671,31.29297 -5.94532,-0.21484 -8.92188,-0.32813 -14.86719,-0.55078 0.0234,-5.40235 0.0352,-8.10547 0.0547,-13.50781 -6.03516,-0.12891 -9.05469,-0.19532 -15.09375,-0.32813 -0.0391,10.04297 -0.0547,15.06641 -0.0937,25.11328 7.79687,0.42578 11.69921,0.63672 19.49609,1.04297 -0.0273,6.90625 -0.043,10.35938 -0.0703,17.26563 -7.79688,-0.57032 -11.69532,-0.86329 -19.48828,-1.46485 -0.0352,10.04688 -0.0547,15.06641 -0.0937,25.11328 6.02343,0.66016 9.03515,0.98438 15.0625,1.6211"
     id="path57" />
  <path
     style="fill:#077dbf;fill-opacity:1;fill-rule:nonzero;stroke:none"
     d="m 212.63281,685.46875 c 4.5586,5.68359 6.83985,8.55468 11.39453,14.35937 -0.0352,7.55859 -0.0547,11.33594 -0.0937,18.89453 -5.97265,-0.18359 -8.95703,-0.27734 -14.92968,-0.46875 0.0273,-5.74609 0.043,-8.62109 0.0703,-14.36719 -8.99219,-0.16015 -13.48828,-0.24609 -22.48047,-0.41796 -0.11328,23.78125 -0.22656,47.5664 -0.33984,71.35156 8.98046,0.85156 13.47265,1.26562 22.45703,2.0664 0.0273,-5.75 0.043,-8.62109 0.0703,-14.36718 5.97266,0.44531 8.95703,0.66406 14.92578,1.09375 -0.0352,7.58203 -0.0547,11.375 -0.0937,18.95703 -4.61328,5.30859 -6.91797,7.93359 -11.52734,13.10156 -9.81641,-1.03516 -19.62891,-2.11719 -29.4375,-3.25 -4.55078,-6.01562 -6.82813,-8.99609 -11.37891,-14.89062 0.11719,-26.15235 0.23828,-52.30469 0.35938,-78.45704 4.60937,-5.375 6.91406,-8.09765 11.52734,-13.61328 9.82422,0.004 19.65234,0.004 29.47656,0.008"
     id="path59" />
  <path
     style="fill:#077dbf;fill-opacity:1;fill-rule:nonzero;stroke:none"
     d="m 268.75391,704.86718 c -8.54688,-0.1289 -12.82032,-0.1914 -21.36719,-0.32812 -0.125,25.18359 -0.25391,50.36328 -0.37891,75.54687 8.54297,0.67188 12.82031,0.99219 21.36719,1.61328 0.125,-25.61328 0.25391,-51.22265 0.37891,-76.83203 m 3.5625,-19.38672 c 4.55859,5.97657 6.83593,8.98829 11.39453,15.06641 -0.14063,28.9375 -0.27735,57.875 -0.41797,86.8125 -4.61719,5.66797 -6.92969,8.47656 -11.54297,14.02734 -9.45703,-0.8125 -18.91406,-1.66796 -28.36328,-2.57031 -4.55469,-6.25 -6.83203,-9.35547 -11.38672,-15.51172 0.13672,-27.78906 0.27734,-55.57812 0.41797,-83.36718 4.61719,-5.72657 6.92578,-8.6211 11.53906,-14.46485 9.45313,0.004 18.90625,0.004 28.35938,0.008"
     id="path61" />
  <path
     style="fill:#077dbf;fill-opacity:1;fill-rule:nonzero;stroke:none"
     d="m 332.26953,805.98828 c -6.46875,-21.52344 -12.97656,-43.02735 -19.53906,-64.51953 -0.0664,14.41406 -0.13281,28.82812 -0.19531,43.23828 2.32812,0.14062 3.49218,0.21093 5.82031,0.34765 -0.0352,7.98828 -0.0508,11.98438 -0.0859,19.97657 -10.66406,-0.75391 -15.99609,-1.15625 -26.65234,-2 0.0351,-7.85938 0.0547,-11.78516 0.0937,-19.64063 2.32812,0.15234 3.49218,0.23047 5.82031,0.37891 0.12109,-26.19141 0.24609,-52.37891 0.37109,-78.57032 -2.32812,-0.0312 -3.49218,-0.0469 -5.82031,-0.0781 0.0391,-7.85547 0.0547,-11.78516 0.0937,-19.64063 9.0625,-0.0273 13.59375,-0.043 22.65625,-0.0703 6.55859,21.29688 13.06641,42.60938 19.52734,63.9336 0.0625,-14.56641 0.125,-29.13672 0.1875,-43.70313 -2.23828,-0.0234 -3.35937,-0.0352 -5.59765,-0.0625 0.0351,-8.03516 0.0547,-12.05469 0.0898,-20.08984 10.64844,0 15.97266,0 26.625,0 -0.0312,8.15234 -0.0469,12.22265 -0.082,20.37109 -2.32812,-0.0234 -3.48828,-0.0312 -5.81641,-0.0586 -0.10937,26.98437 -0.21875,53.96875 -0.32421,80.95312 2.32812,0.11719 3.49609,0.17578 5.82421,0.28906 -0.0312,8.14844 -0.0469,12.22266 -0.0781,20.3711 -9.16797,-0.53516 -13.75391,-0.82031 -22.91797,-1.42578"
     id="path63" />
  <path
     style="fill:#077dbf;fill-opacity:1;fill-rule:nonzero;stroke:none"
     d="m 405.88672,706.36718 c -8.55078,-0.0625 -12.82422,-0.0937 -21.375,-0.16406 l -0.27735,82.0625 c 8.5625,0.35156 12.84375,0.51172 21.40625,0.8125 0.082,-27.57031 0.16407,-55.14062 0.2461,-82.71094 m 3.53125,-20.87109 c 4.5664,6.42187 6.85156,9.64844 11.42187,16.12109 -0.082,30.96094 -0.16406,61.92578 -0.24609,92.88672 -4.61328,6.26953 -6.92188,9.39063 -11.53906,15.59375 -15.15625,-0.65234 -30.3125,-1.38672 -45.46485,-2.20312 0.0312,-8.17969 0.0469,-12.26953 0.0781,-20.44922 2.21875,0.10156 3.32812,0.15234 5.54687,0.2539 0.10157,-27.23437 0.19922,-54.46875 0.30078,-81.70703 -2.21484,-0.0195 -3.32421,-0.0312 -5.53906,-0.0508 0.0312,-8.17969 0.0469,-12.26953 0.0781,-20.44922 15.12109,0 30.24218,0 45.36328,0.004"
     id="path65" />
  <path
     style="fill:#077dbf;fill-opacity:1;fill-rule:nonzero;stroke:none"
     d="m 460.91797,757.64843 c -1.45703,-9.25781 -2.91406,-18.51562 -4.3711,-27.77734 -1.49218,9.21875 -2.98437,18.43359 -4.48046,27.64844 3.54296,0.0547 5.3125,0.082 8.85156,0.1289 m -12.25391,20.78516 c -0.77344,4.78125 -1.16015,7.16797 -1.93359,11.9375 1.61719,0.0391 2.42578,0.0586 4.03906,0.0977 -0.0195,8.42187 -0.0273,12.63281 -0.043,21.05468 -9.82812,-0.26953 -14.74219,-0.42187 -24.5664,-0.77343 0.0195,-8.3711 0.0312,-12.55469 0.0547,-20.92579 2.24219,0.0664 3.36328,0.0977 5.60547,0.16016 5.91797,-34.84766 11.79688,-69.70703 17.64844,-104.56641 6.08594,0 9.12891,0 15.21484,0 5.45313,35.20704 10.91016,70.41016 16.36328,105.61719 2.13282,0.0312 3.19532,0.0469 5.32813,0.0742 -0.0117,8.47266 -0.0156,12.71094 -0.0273,21.18359 -9.82813,-0.15234 -14.74219,-0.2539 -24.57032,-0.48437 0.0156,-8.44141 0.0234,-12.66406 0.0352,-21.10547 1.70703,0.0352 2.55859,0.0508 4.26172,0.082 -0.75391,-4.82422 -1.12891,-7.23437 -1.88672,-12.05469 -6.21094,-0.10937 -9.3125,-0.16796 -15.52344,-0.29687"
     id="path67" />
  <path
     style="fill:#077dbf;fill-opacity:1;fill-rule:nonzero;stroke:none"
     d="m 534.15625,706.82812 c -7.38672,0 -11.08203,0 -18.46875,-0.0117 -0.008,11.42969 -0.0117,22.85938 -0.0156,34.28516 7.39063,0.0234 11.08985,0.0273 18.48438,0.0273 0,-11.43359 0,-22.86719 0,-34.30078 m 0,55.55469 c -7.39844,-0.004 -11.09766,-0.0117 -18.49609,-0.0391 -0.004,9.67968 -0.008,19.35937 -0.0117,29.03515 2.33203,0.0117 3.49609,0.0195 5.83203,0.0274 -0.004,8.49609 -0.004,12.74609 -0.008,21.24218 -10.6836,-0.0469 -16.02344,-0.0937 -26.70704,-0.23047 0.008,-8.48437 0.0117,-12.72656 0.0195,-21.20703 2.22265,0.0234 3.33203,0.0352 5.55468,0.0547 0.0234,-28.18359 0.0469,-56.36719 0.0703,-84.55078 -2.21875,-0.004 -3.32422,-0.004 -5.54297,-0.0117 0.008,-8.57422 0.0156,-12.86328 0.0234,-21.44141 H 537.625 c 4.60937,6.65235 6.91406,9.98047 11.52734,16.62891 0.004,13.84375 0.0117,27.69141 0.0156,41.53516 -1.66016,2.32422 -2.48828,3.48828 -4.14453,5.8164 1.65625,2.25782 2.48828,3.38672 4.14843,5.64063 l 0.0117,36.51953 c 2.33203,-0.008 3.5,-0.0117 5.83203,-0.0234 0.004,8.49219 0.004,12.74219 0.0117,21.23828 -10.68359,0.0664 -16.02734,0.0781 -26.71093,0.0547 0.004,-8.49609 0.004,-12.74609 0.004,-21.24609 2.33594,0.004 3.5,0.004 5.83203,0.004 0,-9.67968 0.004,-19.36718 0.004,-29.04687"
     id="path69" />
  <path
     style="fill:#077dbf;fill-opacity:1;fill-rule:nonzero;stroke:none"
     d="m 579.74609,791.16015 c -0.0117,-10.22265 -0.0156,-15.33594 -0.0273,-25.5625 -5.48047,-19.61719 -10.94922,-39.24219 -16.40625,-58.87109 -1.74609,0.004 -2.61719,0.004 -4.36328,0.008 -0.004,-8.52734 -0.008,-12.78906 -0.0117,-21.31641 h -0.0586 c 9.15234,0 13.72656,0 22.8789,0 0.008,8.50782 0.0156,12.76172 0.0234,21.26954 -1.34375,0.004 -2.01563,0.008 -3.35547,0.0117 2.97656,10.72266 5.95313,21.44922 8.9375,32.17579 3.08203,-10.7461 6.16406,-21.48829 9.25,-32.23047 -1.07422,0.004 -1.61328,0.004 -2.6875,0.008 -0.0117,-8.49219 -0.0156,-12.73828 -0.0312,-21.23438 9.03906,0 13.5625,0 22.60156,0 h 0.22266 c 0.0156,8.45704 0.0234,12.6875 0.0391,21.14844 -1.99219,0.008 -2.98828,0.0117 -4.98047,0.0195 -5.70312,19.61719 -11.40234,39.23438 -17.09765,58.85157 0.0156,10.20312 0.0234,15.30859 0.0391,25.51171 1.85937,-0.0312 2.79297,-0.0469 4.65234,-0.0781 0.0156,8.45312 0.0195,12.67969 0.0352,21.13672 -9.60547,0.19922 -14.40625,0.28125 -24.01563,0.41015 -0.008,-8.48437 -0.0117,-12.72265 -0.0195,-21.20703 1.75,-0.0195 2.625,-0.0273 4.375,-0.0508"
     id="path71" />
  <path
     style="fill:#077dbf;fill-opacity:1;fill-rule:nonzero;stroke:none"
     d="m 697.37891,685.41406 c 4.60937,6.33594 6.91406,9.48828 11.52734,15.75781 0.0352,9.46094 0.0703,18.92188 0.10937,28.38281 -5.98046,0.125 -8.96875,0.1836 -14.94921,0.29297 -0.0312,-9.51562 -0.0508,-14.27734 -0.082,-23.79297 -8.10156,0.0703 -12.15625,0.10157 -20.25781,0.16407 0.0352,11.07421 0.0703,22.14843 0.10547,33.22265 9.38672,-0.18359 14.07813,-0.28515 23.46094,-0.5 4.72656,6.25781 7.08984,9.3711 11.8164,15.55469 0.0469,12.51953 0.0937,25.04297 0.14454,37.5625 -4.57032,6.5 -6.85547,9.76562 -11.42969,16.3125 -10.91797,0.57812 -16.37891,0.84375 -27.30078,1.32422 -4.61719,-6.16797 -6.92578,-9.27344 -11.54297,-15.50781 -0.0234,-8.49219 -0.0352,-12.73438 -0.0586,-21.22657 6.00782,-0.16797 9.00782,-0.25781 15.01563,-0.44922 0.0195,6.48829 0.0312,9.73438 0.0508,16.22266 8.11719,-0.30469 12.17188,-0.46875 20.28516,-0.82031 -0.0312,-9.44531 -0.0664,-18.89063 -0.0977,-28.33985 -9.63672,0.30079 -14.45312,0.44141 -24.08594,0.69922 -4.5,-6.22656 -6.75,-9.35156 -11.25,-15.63281 -0.0391,-14.38281 -0.082,-28.76562 -0.12109,-43.14844 4.56641,-6.45703 6.85156,-9.67187 11.41797,-16.07812 10.89844,0 16.34765,0 27.24219,0"
     id="path73" />
  <path
     style="fill:#077dbf;fill-opacity:1;fill-rule:nonzero;stroke:none"
     d="m 758.17969,685.48437 c 4.61718,6.13672 6.92187,9.1875 11.53906,15.23438 0.0391,8.01953 0.0547,12.02734 0.0937,20.04687 -5.97656,0.13672 -8.96484,0.20313 -14.9375,0.33203 -0.0312,-6.24219 -0.043,-9.36328 -0.0703,-15.60547 -8.9961,0.10938 -13.4961,0.16016 -22.49219,0.26172 0.11328,26.76563 0.22656,53.53516 0.33594,80.30469 9.00781,-0.48438 13.50781,-0.73828 22.51172,-1.27734 -0.0274,-6.24219 -0.043,-9.36329 -0.0703,-15.60547 5.98047,-0.30078 8.96875,-0.45703 14.94532,-0.77735 0.0391,8.04688 0.0586,12.07032 0.0937,20.11719 -4.5625,6.375 -6.84375,9.57813 -11.40625,16.02344 -9.83594,0.71484 -19.67579,1.38672 -29.51954,2.00781 -4.61718,-5.92187 -6.92968,-8.90625 -11.54687,-14.91406 -0.11719,-30.14844 -0.23828,-60.29688 -0.35938,-90.44922 4.5625,-6.3125 6.84375,-9.45313 11.40625,-15.69531 9.82422,0 19.65235,-0.004 29.47657,-0.004"
     id="path75" />
  <path
     style="fill:#077dbf;fill-opacity:1;fill-rule:nonzero;stroke:none"
     d="m 817.19141,752.08984 c -7.20313,0.38672 -10.80469,0.57422 -18.01172,0.9375 0.0469,9.64062 0.0937,19.28125 0.14062,28.92187 2.32813,-0.16796 3.49219,-0.2539 5.82031,-0.42187 0.0391,7.70703 0.0586,11.55859 0.0977,19.26562 -10.65625,0.9375 -15.98047,1.38672 -26.64062,2.23047 -0.0352,-7.85547 -0.0547,-11.78125 -0.0937,-19.63672 2.21875,-0.14843 3.32421,-0.22265 5.54296,-0.37109 -0.125,-25.99219 -0.25,-51.98047 -0.375,-77.96875 -2.21484,0.0273 -3.32421,0.043 -5.53906,0.0742 -0.0391,-7.85547 -0.0586,-11.78516 -0.0937,-19.64063 10.64844,0 15.97656,0 26.625,-0.004 0.0391,7.70703 0.0586,11.5625 0.0937,19.26953 -2.32422,0.0312 -3.48828,0.0508 -5.8164,0.082 0.0469,9.61719 0.0937,19.23438 0.14453,28.84766 7.20312,-0.25782 10.80468,-0.39063 18.00781,-0.66797 -0.0469,-9.48438 -0.0937,-18.96485 -0.14063,-28.44922 -2.32812,0.0352 -3.49218,0.0547 -5.8164,0.0898 -0.0391,-7.66797 -0.0586,-11.5039 -0.0977,-19.17187 10.65235,0 15.97656,-0.004 26.62891,-0.004 0.0352,7.5 0.0547,11.25 0.0937,18.75 -2.30469,0.0391 -3.45703,0.0586 -5.76172,0.0977 0.125,25.03515 0.25,50.0664 0.37891,75.10156 2.30468,-0.18359 3.45312,-0.27734 5.75781,-0.46875 0.0391,7.5 0.0586,11.25 0.0937,18.75 -10.64453,1.05469 -15.96485,1.55859 -26.61719,2.51953 -0.0391,-7.66797 -0.0586,-11.5 -0.0937,-19.17187 2.32422,-0.17578 3.48828,-0.26172 5.81641,-0.44141 -0.0508,-9.50781 -0.0977,-19.01172 -0.14453,-28.51953"
     id="path77" />
  <path
     style="fill:#077dbf;fill-opacity:1;fill-rule:nonzero;stroke:none"
     d="m 882.5,703.48828 c -8.54297,0.16406 -12.81641,0.24218 -21.35938,0.39843 0.1211,24.33204 0.24219,48.66016 0.35938,72.99219 8.53906,-0.75781 12.80859,-1.14844 21.34375,-1.95703 -0.11328,-23.8125 -0.22656,-47.62109 -0.34375,-71.43359 m 3.38281,-18.02735 c 4.61328,5.52344 6.91797,8.25 11.53125,13.63282 0.1211,26.18359 0.23828,52.36718 0.35938,78.55078 -4.55469,5.90234 -6.82813,8.88281 -11.38282,14.90625 -9.43359,1.08593 -18.87109,2.125 -28.3164,3.125 -4.61328,-5.17188 -6.91797,-7.79297 -11.53125,-13.10547 -0.13672,-27.57813 -0.27344,-55.16016 -0.41406,-82.74219 4.55859,-5.80469 6.83593,-8.67578 11.39453,-14.35937 9.45312,-0.004 18.90625,-0.004 28.35937,-0.008"
     id="path79" />
  <path
     style="fill:#077dbf;fill-opacity:1;fill-rule:nonzero;stroke:none"
     d="m 942.16016,702.24218 c -8.54297,0.19141 -12.8125,0.28516 -21.35547,0.46875 0.0937,22.79297 0.1875,45.58985 0.28125,68.38282 8.52734,-0.89454 12.78906,-1.35938 21.3125,-2.30469 -0.0781,-22.1836 -0.16016,-44.36719 -0.23828,-66.54688 m 3.40625,-16.79297 c 4.60546,5.13672 6.90625,7.66797 11.50781,12.64454 0.0742,24.29296 0.14844,48.58203 0.22265,72.875 -4.55468,5.58984 -6.83203,8.41796 -11.38281,14.14843 -9.41797,1.26953 -18.83984,2.4961 -28.26953,3.67969 -4.59766,-4.73047 -6.89453,-7.13672 -11.49609,-12.02734 -0.11719,-25.9375 -0.23047,-51.8711 -0.34766,-77.8086 4.5625,-5.47265 6.84375,-8.17578 11.40625,-13.50781 9.45313,0 18.90625,-0.004 28.35938,-0.004"
     id="path81" />
  <path
     style="fill:#077dbf;fill-opacity:1;fill-rule:nonzero;stroke:none"
     d="m 986.26172,701.13281 c 0.0352,20.83203 0.0742,41.66406 0.11328,62.49609 6.01562,-0.74219 9.01953,-1.11719 15.0312,-1.88672 0,-4.79687 0,-7.19531 -0.01,-11.99218 5.9258,-0.63672 8.8907,-0.96094 14.8164,-1.61719 v 26.67969 c -16.82418,2.63671 -33.66011,5.1914 -50.52339,7.57421 -0.0195,-6.47656 -0.0274,-9.71875 -0.0469,-16.19921 2.20703,-0.25782 3.3125,-0.38672 5.51953,-0.65235 -0.0547,-21.33984 -0.10937,-42.68359 -0.16015,-64.02734 -2.21485,0.0547 -3.32032,0.0781 -5.53516,0.13281 -0.0195,-6.48047 -0.0273,-9.71875 -0.043,-16.19531 10.64844,-0.004 15.97266,-0.008 26.625,-0.0117 0.008,6.22266 0.0117,9.33203 0.0234,15.55469 -2.32422,0.0586 -3.48828,0.0898 -5.8125,0.14453"
     id="path83" />
  <path
     style="fill:#077dbf;fill-opacity:1;fill-rule:nonzero;stroke:none"
     d="m 387.19141,475.51562 c 3.4414,0.19922 6.88281,0.40234 10.32421,0.59766 7.17579,0.39843 14.35157,0.67968 21.53125,0.91015 9.33594,0.30078 18.66797,0.51172 28.00782,0.55469 5.72656,0.0234 11.45312,0.0977 17.17968,0.12891 8.85938,0.0469 17.71485,0.0117 26.57032,0.125 13.6914,0.17578 27.38281,0.14062 41.07031,0.0586 9.86719,-0.0547 19.73437,-0.22656 29.59766,-0.48437 12.66015,-0.33594 25.3164,-0.83204 37.94921,-1.69532 16.28516,-1.11328 32.52735,-2.62109 48.60157,-5.57031 10.78906,-1.97656 21.4414,-4.46484 31.51953,-8.96875 2.10547,-0.94141 4.1289,-2.03516 6.30859,-3.32031 v 1.42578 c 0,21.82031 -0.008,43.64062 0.0312,65.46094 0,1.19531 -0.24609,1.51953 -1.49609,1.51953 -99.06641,-0.0352 -198.13281,-0.0312 -297.19531,-0.0312 z m 0,0"
     id="path119" />
  <path
     style="fill:#077dbf;fill-opacity:1;fill-rule:nonzero;stroke:none"
     d="m 540.30078,377.99218 c -1.71094,0.63282 -3.53516,0.67578 -5.3125,0.94532 -22.49609,3.44921 -44.97266,6.99609 -67.08203,12.5 -7.32031,1.82031 -14.58203,3.87109 -21.44141,7.09375 -1.94922,0.91796 -3.82812,1.97656 -5.42578,3.45312 -2.53906,2.35156 -2.5625,4.73438 -0.0273,7.09766 1.98828,1.85547 4.40234,3.02343 6.88672,4.05078 7.07422,2.93359 14.49218,4.6914 21.94922,6.28125 14.17187,3.01953 28.48828,5.19531 42.84375,7.12109 14.83984,1.9961 29.69921,3.87891 44.53906,5.8711 12.98828,1.74218 25.98828,3.43359 38.6914,6.78125 6.04688,1.59375 12.06641,3.26171 17.53125,6.4414 1.26563,0.73828 2.45313,1.59766 3.33594,2.79688 1.25391,1.70312 1.14844,3.39843 -0.28906,4.96875 -1.54688,1.69531 -3.55078,2.6875 -5.60547,3.5625 -5.63281,2.40234 -11.57422,3.70703 -17.55078,4.83984 -8.62109,1.63672 -17.33594,2.56641 -26.05078,3.53906 -13.20313,1.48047 -26.46485,2.01563 -39.71485,2.71485 -10.65625,0.5625 -21.32031,1.01562 -31.98437,1.47265 -10.17578,0.4375 -20.35547,0.83594 -30.53516,1.22266 -11.10937,0.42187 -22.22265,0.82812 -33.33203,1.21875 -11.92578,0.42187 -23.85547,0.8125 -35.78125,1.22656 -2.91797,0.10156 -5.83594,0.2461 -8.75781,0.3711 0,-31.48829 0.008,-62.98047 -0.0195,-94.47266 0,-0.91406 0.20312,-1.12109 1.11719,-1.12109 50.67187,0.0273 101.34375,0.0234 152.01562,0.0234"
     id="path121" />
  <path
     style="fill:#077dbf;fill-opacity:1;fill-rule:nonzero;stroke:none"
     d="m 685.85156,377.99218 v 64.09766 c -3.65234,-2.14063 -7.36719,-3.72656 -11.17578,-5.08984 -10.18359,-3.63672 -20.67969,-6.09375 -31.24219,-8.29297 -15.37109,-3.19532 -30.8789,-5.60547 -46.42968,-7.74219 -11.01172,-1.50781 -22.0625,-2.71484 -33.10547,-4.00781 -12.2461,-1.4336 -24.46485,-3.08985 -36.35547,-6.53516 -2.45313,-0.70703 -4.85938,-1.56641 -7.14063,-2.73047 -1.04687,-0.53515 -2.05859,-1.14062 -2.92187,-1.96094 -1.75781,-1.67968 -1.79297,-3.44531 -0.10547,-5.19921 1.69531,-1.76563 3.86328,-2.79688 6.04297,-3.78907 5.25781,-2.39453 10.87109,-3.76172 16.32031,-5.60156 11.09766,-3.75 22.10547,-7.73047 32.85156,-12.41406 0.46875,-0.20313 1.01172,-0.29297 1.35547,-0.73438 z m 0,0"
     id="path123" />
  <path
     style="fill:#077dbf;fill-opacity:1;fill-rule:nonzero;stroke:none"
     d="M 685.85156,576.6289 H 387.19141 v -54.52734 h 298.66015 z m 0,0"
     id="path125" />
  <path
     style="fill:#ffffff;fill-opacity:1;fill-rule:nonzero;stroke:none"
     d="m 469.92578,545.96875 v 12.60156 h -51.41797 v -7.41406 c 4.20703,-3.53516 9.03906,-7.30079 14.4961,-11.29688 12.22265,-8.88672 18.33593,-15.6875 18.33593,-20.40234 0,-6.27344 -3.26953,-9.41016 -9.80078,-9.41016 -7.94531,0 -11.92187,3.78906 -11.92187,11.37109 0,1.79297 0.57422,4.31641 1.71875,7.57032 l -10.65625,-1.92188 c -0.8086,-2.41015 -1.21094,-4.34375 -1.21094,-5.80078 0,-10.63281 8.63672,-15.94531 25.91016,-15.94531 7.30468,0 13.3164,1.37109 18.03125,4.10937 4.71484,2.74219 7.07031,6.25 7.07031,10.52735 0,4.89453 -4.66406,10.21875 -13.99219,15.98437 l -6.26172,3.83985 -6.91797,4.42187 c -0.4414,0.28125 -1.51562,0.87109 -3.23437,1.76563 z m 0,0"
     id="path127" />
  <path
     style="fill:#ffffff;fill-opacity:1;fill-rule:nonzero;stroke:none"
     d="m 508.21094,509.50781 c -5.25,0 -7.87891,7.62109 -7.87891,22.85937 0,15.24219 2.62891,22.85938 7.87891,22.85938 5.21875,0 7.83203,-7.61719 7.83203,-22.85938 0,-15.23828 -2.61328,-22.85937 -7.83203,-22.85937 m 0,-4.1875 c 19.22656,0 28.84375,9.01562 28.84375,27.04687 0,18.03125 -9.61719,27.05078 -28.84375,27.05078 -19.26172,0 -28.89063,-9.01953 -28.89063,-27.05078 0,-18.03125 9.62891,-27.04687 28.89063,-27.04687"
     id="path129" />
  <path
     style="fill:#ffffff;fill-opacity:1;fill-rule:nonzero;stroke:none"
     d="m 583.32031,506.125 v 52.44531 h -19.29687 v -39.4961 c -5.14844,1.89454 -9.9336,2.95704 -14.34375,3.1875 v -6.91406 c 10.13672,-0.76953 17.27343,-3.84375 21.41797,-9.22265 z m 0,0"
     id="path131" />
  <path
     style="fill:#ffffff;fill-opacity:1;fill-rule:nonzero;stroke:none"
     d="m 643.83203,525.875 c 2.89453,-1.92188 4.34375,-4.19922 4.34375,-6.83985 0,-6.30078 -4.86719,-9.45312 -14.59766,-9.45312 -8.25,0 -12.375,2.26953 -12.375,6.80078 0,2.74219 3.70313,4.99609 11.11329,6.76562 l 7.82812,1.84375 c 0.77344,0.20313 2.00391,0.4961 3.6875,0.88282 m -21.82031,9.91015 c -4.57813,2.15235 -6.86719,5.02344 -6.86719,8.60938 0,3.02343 1.78125,5.60937 5.35156,7.76172 3.57032,2.14843 7.82813,3.22656 12.77735,3.22656 3.875,0 7.15625,-0.79297 9.85156,-2.38281 2.69141,-1.58985 4.03906,-3.50782 4.03906,-5.76172 0,-3.69141 -3.83594,-6.40625 -11.51562,-8.14844 -3.76953,-0.84375 -8.31641,-1.94531 -13.63672,-3.30469 m -4.84766,-2.1875 c -6.16406,-3.27734 -9.24609,-7.39062 -9.24609,-12.33203 0,-4.73828 2.39844,-8.57031 7.19922,-11.48828 4.79687,-2.92188 11.10156,-4.38281 18.91406,-4.38281 6.83594,0 12.36719,1.13672 16.59375,3.40234 4.22656,2.26563 6.33984,5.23047 6.33984,8.89453 0,4.07031 -2.8125,7.33594 -8.4375,9.79688 9.19532,3.6875 13.78907,8.62109 13.78907,14.79297 0,5.14843 -2.63282,9.3164 -7.90235,12.5039 -5.26953,3.19141 -12.16406,4.78516 -20.68359,4.78516 -7.87891,0 -14.41406,-1.44141 -19.59766,-4.32422 -5.1875,-2.87891 -7.78125,-6.49609 -7.78125,-10.85156 0,-4.73828 3.60547,-8.33985 10.8125,-10.79688"
     id="path133" />
  <path
     style="fill:#077dbf;fill-opacity:1;fill-rule:nonzero;stroke:none"
     d="m 292.12891,437.30468 v -3.73047 h 6.24218 v 8.51954 h -21.3164 v -4.76954 h 2.32422 v -19 h -2.32422 v -4.78515 h 21.3164 v 8.53515 h -6.24218 v -3.75 h -6.33985 v 7.10547 h 8.19141 v 4.76953 h -8.19141 v 7.10547 z m 0,0"
     id="path135" />
  <path
     style="fill:#077dbf;fill-opacity:1;fill-rule:nonzero;stroke:none"
     d="m 318.14062,413.53906 4.8125,3.67578 v 6.62891 h -6.26953 v -5.51954 h -8.5 v 7.64454 h 9.83594 l 4.93359,3.69531 v 8.76562 l -4.8125,3.66407 h -11.43359 l -4.8125,-3.66407 v -4.85547 h 6.28906 v 3.73047 h 8.5 v -6.57031 h -10.09375 l -4.69531,-3.64062 v -9.87891 l 4.8125,-3.67578 z m 0,0"
     id="path137" />
  <path
     style="fill:#077dbf;fill-opacity:1;fill-rule:nonzero;stroke:none"
     d="m 334.85547,418.33984 h -2.13672 v 3.73437 h -6.24609 v -8.53515 h 22.86718 v 8.53515 h -6.24609 v -3.73437 h -1.94922 v 18.98437 h 2.39453 v 4.76563 h -11.17187 v -4.76563 h 2.48828 z m 0,0"
     id="path139" />
  <path
     style="fill:#077dbf;fill-opacity:1;fill-rule:nonzero;stroke:none"
     d="m 352.85937,437.30468 h 6.29297 v 4.78907 h -6.29297 z m 0,0"
     id="path141" />
  <path
     style="fill:#077dbf;fill-opacity:1;fill-rule:nonzero;stroke:none"
     d="m 737.39844,413.53906 4.8125,3.67578 v 10.28906 l -4.88282,3.76563 h -9.17968 v 6.03515 h 7.79297 v -3.73047 h 6.26953 v 8.51954 h -20.35547 v -11.92969 l 4.8125,-3.66016 h 9.27344 v -8.17969 h -7.79297 v 5.51954 h -6.29297 v -6.62891 l 4.8125,-3.67578 z m 0,0"
     id="path143" />
  <path
     style="fill:#077dbf;fill-opacity:1;fill-rule:nonzero;stroke:none"
     d="m 759.81641,418.34375 h -7.79297 v 18.96093 h 7.79297 z m 1.45703,-4.78907 4.8125,3.67969 v 21.19531 l -4.8125,3.66407 h -10.73047 l -4.8125,-3.66407 v -21.19531 l 4.8125,-3.67969 z m 0,0"
     id="path145" />
  <path
     style="fill:#077dbf;fill-opacity:1;fill-rule:nonzero;stroke:none"
     d="m 769.60547,442.09375 v -4.76954 h 2.4414 v -19 h -2.4414 v -4.76953 h 8.73437 v 23.76953 h 2.44141 v 4.76954 z m 0,0"
     id="path147" />
  <path
     style="fill:#077dbf;fill-opacity:1;fill-rule:nonzero;stroke:none"
     d="m 799.84375,413.53906 4.8125,3.67578 v 10.28906 l -4.88281,3.76563 h -9.17969 v 6.03515 h 7.79297 v -3.73047 h 6.26953 v 8.51954 h -20.35547 v -11.92969 l 4.8125,-3.66016 h 9.27344 v -8.17969 h -7.79297 v 5.51954 h -6.29297 v -6.62891 l 4.8125,-3.67578 z m 0,0"
     id="path149" />
  <path
     style="fill:#077dbf;fill-opacity:1;fill-rule:nonzero;stroke:none"
     d="m 195.19531,284.33593 c 10.38672,-4.52343 20.80078,-8.89843 31.30078,-13.14453 -1.92187,-2.95312 -3.85547,-6.0664 -5.79297,-9.33984 -1.9375,-3.26953 -4.44921,-7.46094 -7.53515,-12.57813 -9.48047,3.8125 -18.89063,7.79297 -28.23047,11.9375 4.10156,9.25 6.15625,13.875 10.25781,23.125 m 24.17188,-108.85547 c -6.00782,-16.625 -12.01172,-33.25 -18.01953,-49.87499 -21.9375,8.07031 -43.5625,16.76171 -64.98438,26.12499 7.17188,16.15625 14.33984,32.3125 21.50781,48.47266 20.28125,-8.84375 40.73438,-17.06641 61.4961,-24.72266 m -69.76172,41.17969 c -10.69531,-23.14453 -21.39453,-46.29297 -32.09375,-69.4375 30.8789,-14.03906 62.20312,-26.63672 94.20703,-37.8789 l 24.88672,72.33593 c -29.55469,10.38282 -58.48047,22.01563 -87,34.98047 m -5.31641,11.2461 c 33.91016,-15.82422 68.41797,-29.70313 103.83985,-41.75782 -9.67969,-29.11328 -19.36329,-58.22656 -29.04297,-87.339843 -38.98828,13.242193 -76.98047,28.523443 -114.28125,45.957033 13.16015,27.71094 26.32422,55.42578 39.48437,83.14063 M 225.76172,67.496087 c 10.86719,5.355469 21.6289,10.917969 32.28125,16.691406 8.92187,31.050787 17.84375,62.097657 26.76562,93.148437 -5.05859,10.13282 -9.98437,20.30078 -14.79297,30.55469 -4.60156,1.45313 -6.90234,2.19141 -11.49218,3.71094 10.32422,19.36719 20.4414,38.82812 30.36328,58.40625 8.27734,-2.61719 12.42969,-3.86719 20.75781,-6.26172 3.0625,10.66406 4.59766,15.99219 7.66016,26.65625 -6.28907,1.80469 -9.42188,2.74219 -15.67969,4.67969 -10.42969,3.3125 -20.78906,6.75781 -31.125,10.35156 -8.29688,2.95312 -12.42969,4.48437 -20.66016,7.67578 -4.00781,-10.34766 -6.00781,-15.51953 -10.01562,-25.86719 6.73828,-2.60547 10.12109,-3.875 16.90234,-6.33203 -10.83984,-19.10547 -21.88281,-38.08984 -33.1289,-56.96094 -22.875,8.80469 -45.33204,18.35938 -67.53907,28.73047 9.28125,19.54688 18.56641,39.09375 27.84766,58.64063 7.57031,-3.59766 11.375,-5.34375 19.01172,-8.73828 4.5,10.13672 6.7539,15.20703 11.2539,25.34765 -21.85546,9.90235 -43.21875,20.57813 -64.26171,32.10547 -5.40235,-9.6914 -8.10157,-14.53515 -13.5,-24.22656 7.25781,-4.04688 10.91015,-6.01953 18.24218,-9.86719 -28.55468,-54.42969 -57.105465,-108.85547 -85.660152,-163.28125 -8.976563,4.71094 -13.445313,7.12891 -22.328126,12.08203 -5.402343,-9.6914 -8.101562,-14.53906 -13.5,-24.22656 C 94.773438,116.68359 158.85937,89.042962 225.76172,67.496087 m 2.53906,-9.097656 C 155.60937,81.425775 86.199219,111.59765 19.746094,148.98828 c 7.152344,12.52734 14.304687,25.05078 21.460937,37.57812 8.925781,-5.09765 13.414063,-7.58203 22.433594,-12.43359 26.648437,49.57031 53.292965,99.14453 79.941405,148.71484 -7.5,4.03516 -11.23047,6.10156 -18.64844,10.33594 7.15625,12.52734 14.3086,25.05469 21.46485,37.58203 25.44922,-14.27344 51.3789,-27.24219 78.07031,-39.03125 -5.72656,-13.24219 -11.44922,-26.48437 -17.17188,-39.72266 -7.60937,3.28907 -11.39843,4.98438 -18.94531,8.47266 -6.86328,-14.84766 -13.72265,-29.69531 -20.58594,-44.53906 16.9961,-7.71875 34.1211,-14.98828 51.48438,-21.84766 4.88281,7.91406 9.22266,15.22656 13.04297,21.92188 3.8164,6.69531 7.84375,13.70312 12.0625,21.01172 -6.05078,2.27734 -9.06641,3.44921 -15.08203,5.84375 l 16.02734,40.20312 c 26.91406,-10.48828 54.11719,-19.64062 81.89844,-27.55078 -3.83985,-13.90234 -7.6836,-27.80859 -11.52344,-41.71484 -8.82422,2.4375 -13.21875,3.71875 -21.98828,6.40234 -4.20703,-8.27344 -8.07031,-15.85156 -11.57031,-22.73828 -3.5,-6.89063 -7.19922,-14.08594 -11.10157,-21.58985 2.21485,-0.70312 3.32032,-1.05078 5.53516,-1.73828 5.69141,-12.47265 11.67188,-24.8125 17.94141,-37.00781 -9.06641,-32.80469 -18.12891,-65.60937 -27.19141,-98.410158 -12.89453,-7.003906 -25.875,-13.769531 -39,-20.332031 m 52.86719,12.511718 c 9.2539,35.593751 18.50781,71.183601 27.76172,106.777351 -7.44141,13.90625 -14.50782,28.00781 -21.1836,42.29687 1.90625,3.88281 3.77735,7.67578 5.60547,11.36719 1.83203,3.70312 4.22266,8.5039 7.15625,14.41797 9.71875,-2.83985 14.59375,-4.1875 24.375,-6.73047 5.625,21.63281 11.2461,43.26562 16.8711,64.89453 -70.30079,18.91406 -136.66797,46.5625 -199.64844,83.07422 -11.375,-19.23828 -22.75391,-38.47656 -34.12891,-57.71485 7.35157,-4.34765 11.05078,-6.46875 18.48047,-10.61718 C 102.90234,276.44531 79.347656,234.21484 55.792969,191.98046 47.082031,196.84375 42.75,199.33203 34.128906,204.42968 22.753906,185.1914 11.375,165.95312 0,146.71875 73.429688,103.92968 150.64453,69.980462 231.84375,44.886712 248.5,53.191399 264.91406,61.847649 281.16797,70.910149"
     id="path151" />
  <g
     clip-path="url(#clip1)"
     clip-rule="nonzero"
     id="g155"
     transform="translate(0,-0.00391311)">
    <path
       style="fill:#077dbf;fill-opacity:1;fill-rule:nonzero;stroke:none"
       d="m 548.22266,47.441406 c -40.47657,-0.199218 -80.69141,1.765625 -120.95313,5.914063 2.83984,25.953125 5.68359,51.906251 8.52344,77.863281 40.92969,-4.19531 81.77344,-5.94141 122.91015,-5.26172 7.40235,8.61328 14.67969,17.29688 21.86329,26.09375 -1.33204,27.59766 -2.66797,55.19922 -4.00391,82.80078 -7.11328,8.20313 -14.10156,16.47266 -20.99609,24.85938 -38.71485,-0.58203 -77.05469,1.30859 -115.52344,5.70312 -7.69922,-7.66797 -15.48047,-15.21094 -23.38281,-22.67187 -1.89063,-12.76172 -3.78125,-25.52344 -5.67188,-38.28516 10.53125,-1.55859 21.09375,-2.92187 31.67578,-4.08984 1.33594,12.11718 2.67188,24.23437 4.01172,36.35156 16.23438,-1.78906 32.52734,-3.09766 48.84375,-3.91797 16.08203,-0.80859 32.1875,-1.14844 48.28906,-1.01172 0.21875,-26.10937 0.4336,-52.21484 0.65235,-78.32031 -39.30078,-0.0625 -78.29688,2.15625 -117.33985,6.67578 -8.57812,-7.55859 -17.23437,-14.98047 -26.0039,-22.31641 -4.04688,-27.33203 -8.09766,-54.667964 -12.14844,-81.999995 7.10937,-9.628906 14.39453,-19.121094 21.84766,-28.480469 50.02734,-5.808594 100.01562,-8.273437 150.37109,-7.421875 8.32812,8.578125 16.5,17.308594 24.50391,26.1875 -0.625,12.890625 -1.25,25.777344 -1.8711,38.660157 -11.99219,-0.578126 -24,-0.933594 -36.0039,-1.066407 0.13281,-12.089843 0.26953,-24.179687 0.40625,-36.265625 m -9.91797,44.128906 c 18.20703,0.136719 36.35937,0.675782 54.54297,1.621094 l 2.86718,-49.289062 c -9.58203,-10.753906 -19.3164,-21.328125 -29.23828,-31.765625 -54.16015,-1.183594 -107.91406,1.46875 -161.69531,7.976562 -8.86719,11.371094 -17.53516,22.855469 -26.02734,34.5 4.60156,29.101563 9.20312,58.199219 13.80859,87.300779 10.58203,8.53125 20.96875,17.3125 31.14062,26.33594 37.2461,-4.48047 74.44141,-6.87109 111.95313,-7.19531 0.0312,20.92968 0.0586,41.85547 0.0898,62.78125 -27.3789,0.23047 -54.58593,1.61328 -81.84765,4.15625 -1.21875,-12.13282 -2.4375,-24.26172 -3.65625,-36.39063 -16.32813,1.63672 -32.61328,3.74219 -48.82422,6.30078 2.57031,16.25782 5.14062,32.51172 7.71094,48.76953 9.55468,8.69922 18.89843,17.62891 28.01562,26.78125 40.64063,-4.85156 81.17188,-6.85156 122.09375,-6.02343 8.15625,-10.00782 16.55859,-19.81641 25.1875,-29.41407 1.71094,-29.41015 3.42188,-58.82421 5.13281,-88.23437 -8.45312,-10.74219 -17.15234,-21.28516 -26.08984,-31.62891 -39.94141,-0.86328 -79.62891,0.54297 -119.41016,4.23438 -2.07422,-20.82422 -4.14843,-41.648439 -6.22265,-62.472658 33.47656,-3.117187 66.90234,-4.75 100.51953,-4.917968 -0.0156,12.191406 -0.0352,24.382812 -0.0508,36.574218 M 523.84766,66.96875 c -23.51954,0.445312 -46.9375,1.589844 -70.38672,3.441406 l 3.29687,38.871094 c 37.87891,-2.94531 75.64063,-3.87891 113.6211,-2.80078 11.22656,13.17187 22.125,26.55469 32.74218,40.21875 -2.33984,32.11719 -4.67968,64.23828 -7.02343,96.35547 -10.97266,11.8164 -21.58985,23.96093 -31.82422,36.42578 -43.91016,-1.19141 -87.38282,0.95312 -130.96485,6.46094 -11.42968,-11.39063 -23.21875,-22.42969 -35.32812,-33.10157 -3.71094,-21.41797 -7.42188,-42.83984 -11.13672,-64.26172 24.94531,-4.14062 49.91797,-7.36328 75.09766,-9.69531 1.03125,12.04688 2.0625,24.08985 3.09375,36.13672 19.40234,-1.66016 38.85937,-2.64453 58.32812,-2.96094 -0.21094,-13 -0.41797,-26.0039 -0.62891,-39.0039 -34.72265,0.8164 -69.13671,3.40234 -103.59375,7.78125 -12.77343,-11.22657 -25.92578,-21.96094 -39.26953,-32.4961 -5.5,-31.73046 -11,-63.460934 -16.49609,-95.195309 10.57031,-14.871093 21.4375,-29.46875 32.64062,-43.867187 59.20313,-7.601563 118.4375,-10.523438 178.10157,-8.789063 12.54297,13.222657 24.76562,26.675781 36.71875,40.433594 -1.57422,21.582031 -3.14844,43.164063 -4.72266,64.742185 -27.26172,-1.8164 -54.46484,-2.625 -81.78516,-2.42968 -0.16015,-12.089849 -0.32031,-24.175786 -0.48046,-36.26563"
       id="path153" />
  </g>
  <g
     clip-path="url(#clip2)"
     clip-rule="nonzero"
     id="g159"
     transform="translate(0,-0.00391311)">
    <path
       style="fill:#077dbf;fill-opacity:1;fill-rule:nonzero;stroke:none"
       d="m 741.69922,257.625 c 8.3789,2.15234 12.55469,3.28516 20.88672,5.66016 -3.04297,10.66796 -4.5625,16 -7.60547,26.67187 -23.82422,-6.60156 -47.76563,-12.23437 -72.03516,-16.95312 l 5.09375,-27.26563 c 8.47266,1.58203 12.70313,2.42969 21.14063,4.23438 12.86718,-60.09766 25.73047,-120.19922 38.59765,-180.300785 -10.32812,-2.210937 -15.50781,-3.246094 -25.8789,-5.183594 2.03906,-10.902343 3.05468,-16.355469 5.09375,-27.261719 26,5.019532 51.73828,10.855469 77.36328,17.539063 16.94922,45.269535 31.04297,91.226565 42.1875,138.265625 38.51953,-29.28906 78.68359,-55.73047 120.71484,-79.69922 24.52344,11.40235 48.57029,23.5625 72.29299,36.55078 -5.3867,9.69922 -8.082,14.54688 -13.4688,24.24219 -9.4804,-5.26953 -14.25,-7.83594 -23.8398,-12.83203 -28.39064,54.51172 -56.78517,109.02344 -85.1797,163.53125 7.83203,4.08203 11.73047,6.17969 19.47656,10.48437 -5.38672,9.69532 -8.08203,14.54688 -13.46875,24.24219 -22.13281,-12.07812 -44.60547,-23.20703 -67.625,-33.48828 4.44531,-10.16406 6.66406,-15.24609 11.10938,-25.41016 8.02734,3.51172 12.02343,5.32422 19.98047,9.0586 23.73828,-50.58203 47.47656,-101.16407 71.21484,-151.74219 -43.125,24.78516 -84.18359,52.25 -123.42188,82.82422 -3.5,-1.27735 -5.2539,-1.90625 -8.76171,-3.14844 C 814.71094,189.17187 800.62891,141.86719 783.41406,95.273438 769.50781,149.39062 755.60547,203.50781 741.69922,257.625 m 43.72656,-129.05078 c 12.74609,37.70703 23.47266,75.82422 32.14453,114.67187 7.77344,2.6875 11.64844,4.07813 19.3711,6.96094 15.42968,-11.94141 31.13281,-23.64844 47.07031,-34.69531 16.48047,-11.42969 33.53125,-22.35938 50.71484,-32.9375 -17.66406,38.72656 -35.33203,77.45312 -52.99609,116.17969 -8.0625,-3.67969 -12.11328,-5.46485 -20.25,-8.91797 -5.63281,13.28125 -11.26953,26.5625 -16.90625,39.83984 28.07031,12.19141 55.30469,25.67578 82.01953,40.60156 7.14062,-12.53906 14.27734,-25.07422 21.41406,-37.60937 -7.66406,-4.36328 -11.51953,-6.49219 -19.26953,-10.64063 26.54297,-49.6289 53.08594,-99.2539 79.62892,-148.88281 9.3242,4.98828 13.9609,7.55078 23.1836,12.80078 7.1406,-12.53515 14.2773,-25.07031 21.414,-37.60547 -28.9843,-16.27734 -58.49996,-31.27343 -88.74214,-45.08593 -19.40235,11.23047 -38.70313,22.83203 -57.35547,35.00781 -18.50391,12.07812 -36.66407,25.05469 -54.44922,38.42187 -10.55469,-43.35937 -23.56641,-85.796871 -38.98438,-127.667965 -31.5664,-8.476563 -63.32812,-15.621094 -95.48047,-21.480469 -2.5039,14.207032 -5.00781,28.414063 -7.51171,42.621094 10.14453,1.785156 15.21093,2.746094 25.32031,4.796875 -11.19531,55.156245 -22.39063,110.312495 -33.58594,165.468745 -8.39844,-1.70312 -12.60937,-2.5039 -21.04297,-3.98828 -2.5039,14.20703 -5.00781,28.41407 -7.51172,42.6211 29.51172,5.4414 58.52344,12.27734 87.35938,20.58203 4.10156,-13.83203 8.20703,-27.66016 12.3125,-41.48828 -8.39063,-2.49219 -12.60156,-3.67969 -21.03906,-5.94532 11.05859,-41.21093 22.11718,-82.41796 33.17187,-123.6289 m -17.07422,115.7539 c 8.39844,2.39844 12.58594,3.65235 20.9336,6.27344 -6.69532,21.32422 -13.38672,42.64844 -20.07813,63.97266 -36.13672,-11.01172 -72.59375,-19.59375 -109.84766,-25.86328 3.52735,-22.06641 7.05469,-44.13672 10.58594,-66.20703 8.57031,1.36718 12.84766,2.10937 21.39063,3.69921 8.86328,-47.53906 17.72265,-95.07421 26.58203,-142.613276 -10.01172,-1.863282 -15.02735,-2.734375 -25.07422,-4.339844 3.52734,-22.066406 7.05469,-44.136719 10.58203,-66.207031 41.45703,6.886719 82.27734,15.929687 122.76172,27.199219 13.47266,36.921874 25.10937,74.281252 34.89062,112.347652 16.27735,-11.67187 32.78125,-23.15234 49.46485,-34.03906 16.07031,-10.48437 32.58594,-20.624999 49.32031,-30.230468 39.10938,17.417968 77.00392,36.839848 113.99222,58.402348 -11.375,19.23437 -22.7539,38.47265 -34.1289,57.71093 -9.1914,-5.4375 -13.8164,-8.08984 -23.1172,-13.2539 -23.4844,42.26953 -46.96487,84.53906 -70.44924,126.8125 7.93359,4.40625 11.8789,6.66797 19.71875,11.30468 -11.375,19.23829 -22.75391,38.47657 -34.12891,57.71485 -33.33203,-19.33203 -67.54297,-36.28906 -103.12109,-51.08594 8.40625,-20.71094 16.8125,-41.41797 25.21875,-62.12891 8.16015,3.31641 12.22656,5.02735 20.32031,8.5625 l 27.5664,-63.12109 c -10.94921,7.30859 -21.82031,14.78516 -32.33984,22.55469 -9.82812,7.25781 -19.64062,14.79297 -29.39844,22.27734 -11.21875,-4.30078 -22.52734,-8.36328 -33.91797,-12.18359 -5.51171,-24.72656 -11.80468,-49.17578 -18.89453,-73.4961 -6.27734,21.98047 -12.55468,43.96094 -18.83203,65.9375"
       id="path157" />
  </g>
  <path
     style="fill:#077dbf;fill-opacity:1;fill-rule:evenodd;stroke:none"
     d="M 1027.168,525.13671 C 918.80469,452.99609 846.58203,658.35546 741.38672,584.77734 848.21094,603.35156 921.79687,413.07812 1027.168,525.13671"
     id="path161" />
  <path
     style="fill:#077dbf;fill-opacity:1;fill-rule:evenodd;stroke:none"
     d="m 991.66797,550.59765 c -25.26563,-16.21484 -49.70703,25.26563 -18.57813,41.54297 40.05466,20.94141 79.45316,-35.69531 35.17576,-67.55469 -38.75779,-24.0664 -81.80857,9.8086 -94.84763,32.28907 26.13672,-16.61329 58.4375,-34.91016 86.01172,-16.5586 18.03901,12.00391 3.56251,44.57422 -17.19532,32.71094 -17.77734,-9.35938 -8.48437,-28.50391 9.4336,-22.42969"
     id="path163" />
  <path
     style="fill:#077dbf;fill-opacity:1;fill-rule:evenodd;stroke:none"
     d="m 769.03125,537.92578 c -19.84766,-12.73828 -39.04688,19.84375 -14.59766,32.63281 31.46485,16.44922 65.60157,-29.49219 27.63282,-53.06641 -30.44532,-18.90234 -64.25782,7.70313 -74.50391,25.36328 20.53125,-13.05078 45.23437,-26.36328 67.5625,-13.00781 15.34766,9.17969 4.33984,35.09375 -13.50391,25.69531 -13.96484,-7.35546 -6.66406,-22.39062 7.41016,-17.61718"
     id="path165" />
  <path
     style="fill:#077dbf;fill-opacity:1;fill-rule:evenodd;stroke:none"
     d="m 914.08984,592.57421 c 1.95313,21.44141 33.67969,7.50391 19.12891,-10.74218 -14.55078,-18.2461 -62.62109,-2.10547 -81.69141,10.74218 21.07813,-21.6914 74.52735,-47.13671 95.03516,-16.03125 20.55078,31.17579 -34.53906,53.94922 -32.47266,16.03125"
     id="path167" />
  <path
     style="fill:#077dbf;fill-opacity:1;fill-rule:evenodd;stroke:none"
     d="m 811.98437,517.30859 c -18.33593,-11.28125 8.25,-33.50391 18.12891,-12.35547 9.87109,21.14453 -25.95703,57.02734 -45.94141,68.39453 28.79688,-9.23437 74.3086,-41.00781 56.60938,-78 -15.67969,-32.76562 -63.67969,6.95313 -28.79688,21.96094"
     id="path169" />
  <path
     style="fill:#077dbf;fill-opacity:1;fill-rule:evenodd;stroke:none"
     d="M 45.832031,525.13671 C 154.19531,452.99609 226.41797,658.35546 331.61328,584.77734 224.78906,603.35156 151.20312,413.07812 45.832031,525.13671"
     id="path171" />
  <path
     style="fill:#077dbf;fill-opacity:1;fill-rule:evenodd;stroke:none"
     d="m 81.332031,550.59765 c 25.265629,-16.21484 49.707029,25.26563 18.578125,41.54297 -40.054687,20.94141 -79.453125,-35.69531 -35.175781,-67.55469 38.757815,-24.0664 81.808595,9.8086 94.847655,32.28907 -26.13672,-16.61329 -58.4375,-34.91016 -86.007811,-16.5586 -18.039063,12.00391 -3.566407,44.57422 17.191406,32.71094 17.777345,-9.35938 8.484375,-28.50391 -9.433594,-22.42969"
     id="path173" />
  <path
     style="fill:#077dbf;fill-opacity:1;fill-rule:evenodd;stroke:none"
     d="m 303.96875,537.92578 c 19.84766,-12.73828 39.04687,19.84375 14.59766,32.63281 -31.46485,16.44922 -65.60157,-29.49219 -27.63282,-53.06641 30.44532,-18.90234 64.25782,7.70313 74.50391,25.36328 -20.53125,-13.05078 -45.23438,-26.36328 -67.5625,-13.00781 -15.34766,9.17969 -4.33984,35.09375 13.50391,25.69531 13.96484,-7.35546 6.66406,-22.39062 -7.41016,-17.61718"
     id="path175" />
  <path
     style="fill:#077dbf;fill-opacity:1;fill-rule:evenodd;stroke:none"
     d="m 158.91016,592.57421 c -1.95313,21.44141 -33.67969,7.50391 -19.12891,-10.74218 14.55469,-18.2461 62.62109,-2.10547 81.69141,10.74218 -21.07813,-21.6914 -74.52735,-47.13671 -95.03516,-16.03125 -20.55078,31.17579 34.53906,53.94922 32.47266,16.03125"
     id="path177" />
  <path
     style="fill:#077dbf;fill-opacity:1;fill-rule:evenodd;stroke:none"
     d="m 261.01562,517.30859 c 18.33594,-11.28125 -8.25,-33.50391 -18.1289,-12.35547 -9.8711,21.14453 25.95703,57.02734 45.94531,68.39453 -28.80078,-9.23437 -74.3125,-41.00781 -56.61328,-78 15.67969,-32.76562 63.67969,6.95313 28.79687,21.96094"
     id="path179" />
</svg>
