<?xml version="1.0" encoding="UTF-8" standalone="no"?>
<svg
   width="1089.3633pt"
   height="185.9375pt"
   viewBox="0 0 1089.3633 185.9375"
   version="1.2"
   id="svg72"
   sodipodi:docname="uam.svg"
   inkscape:version="1.1 (c4e8f9e, 2021-05-24)"
   xmlns:inkscape="http://www.inkscape.org/namespaces/inkscape"
   xmlns:sodipodi="http://sodipodi.sourceforge.net/DTD/sodipodi-0.dtd"
   xmlns="http://www.w3.org/2000/svg"
   xmlns:svg="http://www.w3.org/2000/svg">
  <defs
     id="defs76" />
  <sodipodi:namedview
     id="namedview74"
     pagecolor="#ffffff"
     bordercolor="#666666"
     borderopacity="1.0"
     inkscape:pageshadow="2"
     inkscape:pageopacity="0.0"
     inkscape:pagecheckerboard="0"
     inkscape:document-units="pt"
     showgrid="false"
     fit-margin-top="0"
     fit-margin-left="0"
     fit-margin-right="0"
     fit-margin-bottom="0"
     inkscape:zoom="0.3984375"
     inkscape:cx="1522.1961"
     inkscape:cy="128"
     inkscape:window-width="1440"
     inkscape:window-height="900"
     inkscape:window-x="0"
     inkscape:window-y="0"
     inkscape:window-maximized="0"
     inkscape:current-layer="svg72" />
  <g
     id="surface2576"
     transform="translate(-15.820312,-12.53125)">
    <path
       style="fill:#477528;fill-opacity:1;fill-rule:nonzero;stroke:none"
       d="M 105.95703,73.636719 H 86.386719 c -1.832031,0 -3.382813,1.546875 -3.382813,3.378906 v 75.976565 c 0,15.30859 -6.546875,22.4375 -20.507812,22.4375 -13.960938,0 -20.511719,-7.12891 -20.511719,-22.4375 V 77.015625 c 0,-1.832031 -1.546875,-3.378906 -3.378906,-3.378906 H 19.035156 c -1.621094,0 -3.214844,1.671875 -3.214844,3.378906 v 80.746095 c 0,12.47265 4.152344,22.77344 12.007813,29.78515 8.121094,7.25 19.816406,10.92188 34.667969,10.92188 14.851562,0 26.546875,-3.67188 34.667968,-10.92188 7.855468,-7.01171 12.007818,-17.3125 12.007818,-29.78515 V 77.015625 c 0,-1.707031 -1.59375,-3.378906 -3.21485,-3.378906"
       id="path9" />
    <path
       style="fill:#477528;fill-opacity:1;fill-rule:nonzero;stroke:none"
       d="m 362.29687,73.636719 h -25.1289 c -1.03516,0 -2.4375,0.617187 -3.12891,1.484375 h -0.004 l -30.70704,36.609376 c -0.23828,0.23437 -0.5664,0.38281 -0.92968,0.38281 h -0.23438 c -0.36328,0 -0.6875,-0.14844 -0.92969,-0.38281 L 270.52734,75.121094 h -0.004 c -0.69141,-0.867188 -2.09375,-1.484375 -3.125,-1.484375 h -25.13282 c -1.625,0 -3.21875,1.671875 -3.21875,3.378906 V 191.48437 c 0,1.70704 1.59375,3.37891 3.21875,3.37891 h 19.57032 c 1.83203,0 3.3789,-1.54687 3.3789,-3.37891 v -81.30078 l 34.96485,40.78516 c 0.0781,0.0898 0.16406,0.17969 0.2539,0.26172 l 0.0156,0.0156 c 0.47656,0.42578 1.125,0.69141 1.83203,0.69141 0.71094,0 1.35547,-0.26563 1.83203,-0.69141 l 0.0156,-0.0156 c 0.0898,-0.082 0.17578,-0.17188 0.2539,-0.26172 l 34.96485,-40.78516 v 81.30078 c 0,1.83204 1.54687,3.37891 3.38281,3.37891 h 19.5664 c 1.625,0 3.21875,-1.67187 3.21875,-3.37891 V 77.015625 c 0,-1.707031 -1.59375,-3.378906 -3.21875,-3.378906"
       id="path11" />
    <path
       style="fill:#477528;fill-opacity:1;fill-rule:nonzero;stroke:none"
       d="m 148.66406,147.95703 h 33.71875 L 165.70312,98.023438 Z m 80.1836,47.16406 h -58.10547 v -4.57031 h 25.43359 l -4.5,-14.00391 -7.6875,-23.32812 h -36.91406 l -8.21875,23.34766 -4.44141,13.98437 h 16.60938 v 4.57031 h -38.30469 v -4.57031 h 15.0625 l 5.53125,-14.67187 36.33984,-102.898441 h 1.50391 l 0.14844,0.421875 35.66015,102.156246 5.55469,14.99219 h 16.32813 z m 0,0"
       id="path13" />
    <path
       style="fill:#0075c7;fill-opacity:1;fill-rule:nonzero;stroke:none"
       d="M 198.57812,12.53125 188.12891,73.359375 239.05078,51.875 V 12.53125 Z m 0,0"
       id="path15" />
    <path
       style="fill:#0075c7;fill-opacity:1;fill-rule:nonzero;stroke:none"
       d="m 437.93359,72.71875 v 1.554688 h -6.39843 l -0.0625,5.492187 v 24.683595 c 0.0625,6.39844 0.1914,12.47266 12.21484,12.47266 12.14844,0 12.92187,-5.30079 13.11719,-11.05079 V 79.765625 l -0.0664,-5.492187 h -6.52734 V 72.71875 h 14.28125 v 1.554688 h -5.6211 l -0.0664,5.492187 v 23.523435 c -0.0625,8.46094 -0.12891,15.70313 -16.86328,15.70313 -2.39454,0 -8.07813,-0.25781 -11.69532,-1.7461 -5.7539,-2.45703 -5.88281,-7.49609 -5.94922,-13.69921 V 79.765625 l -0.0625,-5.492187 h -5.55859 V 72.71875 Z m 0,0"
       id="path17" />
    <path
       style="fill:#0075c7;fill-opacity:1;fill-rule:nonzero;stroke:none"
       d="m 499.83984,116.79297 h 5.04297 v 1.55078 h -16.67578 v -1.55078 h 5.10938 l 0.0625,-5.10547 V 99.925781 c -0.0625,-6.589843 -0.0625,-8.53125 -1.67969,-10.078125 -1.03516,-0.972656 -2.39063,-1.035156 -2.97266,-1.035156 -2.32422,0 -4.07031,1.164062 -5.30078,2.324219 C 480,94.5625 479.87109,99.152344 479.74219,103.22266 v 8.46484 l 0.0664,5.10547 h 5.30078 v 1.55078 h -17.32031 v -1.55078 h 5.6875 l 0.0625,-5.10547 V 94.304688 l -0.0625,-5.621094 h -5.6875 v -1.550782 h 6.14063 c 2.83984,0 3.80859,-0.06641 6.13672,-0.261718 L 480,92.949219 c 1.68359,-2.523438 4.14062,-6.335938 11.11719,-6.335938 8.72265,0 8.72265,6.722657 8.72265,10.277344 0,1.550781 0,3.164065 -0.0625,4.714845 v 10.08203 z m 0,0"
       id="path19" />
    <path
       style="fill:#0075c7;fill-opacity:1;fill-rule:nonzero;stroke:none"
       d="m 512.70312,76.921875 c 0,-2.070313 1.67969,-3.8125 3.8125,-3.8125 2,0 3.7461,1.742187 3.7461,3.8125 0,2.066406 -1.7461,3.746094 -3.7461,3.746094 -1.03515,0 -2.0039,-0.386719 -2.71484,-1.097657 -0.71094,-0.710937 -1.09766,-1.679687 -1.09766,-2.648437 m 1.22657,10.210937 c 2.58593,-0.06641 3.48828,-0.06641 6.00781,-0.261718 l -0.0625,6.785156 v 17.64453 l 0.0625,5.49219 h 5.17187 v 1.55078 h -17.1914 v -1.55078 h 5.55859 l 0.0664,-5.49219 V 93.65625 l -0.0664,-4.972656 h -5.55859 v -1.550782 z m 0,0"
       id="path21" />
    <path
       style="fill:#0075c7;fill-opacity:1;fill-rule:nonzero;stroke:none"
       d="m 561.23047,87.132812 v 1.550782 h -4.71485 l -2.51953,5.878906 -9.4375,24.36328 h -1.67968 L 533.25,94.5625 530.85937,88.683594 h -4.65234 v -1.550782 h 17.96484 v 1.550782 h -5.8164 l 1.55078,4.457031 6.33203,16.738285 6.46484,-16.800785 1.61329,-4.394531 h -6.01172 v -1.550782 z m 0,0"
       id="path23" />
    <path
       style="fill:#0075c7;fill-opacity:1;fill-rule:nonzero;stroke:none"
       d="m 583.86328,98.894531 c -0.0625,-2.457031 -0.12891,-4.976562 -1.09766,-7.175781 -1.35937,-2.972656 -3.75,-3.617188 -5.625,-3.617188 -6.20312,0 -6.71484,6.914063 -7.04296,10.792969 z m 7.5625,10.468749 c -1.875,4.45703 -4.58594,9.62891 -13.70312,9.62891 -2.77735,0 -6.84766,-0.32422 -10.53125,-4.00781 -3.6836,-3.7461 -4.32813,-8.53125 -4.32813,-12.34375 0,-1.67969 0.12891,-3.167974 0.44922,-4.523442 0.64844,-2.972657 2.26562,-6.007813 4.39844,-7.949219 2.38672,-2.324219 6.07031,-3.878907 10.01172,-3.878907 4.20312,0 7.5664,1.683594 9.82421,3.945313 3.49219,3.554687 3.8125,7.558594 4.00782,10.468755 h -21.51953 c 0,3.61718 0,7.55859 1.35546,10.85546 1.94141,4.97657 6.20313,5.49219 8.14454,5.49219 1.67968,0 3.16796,-0.45312 4.32812,-0.96875 3.75,-1.9375 5.17188,-5.49219 5.88281,-7.30078 z m 0,0"
       id="path25" />
    <path
       style="fill:#0075c7;fill-opacity:1;fill-rule:nonzero;stroke:none"
       d="m 606.09375,116.79297 h 5.49219 v 1.55078 h -17.25391 v -1.55078 h 5.42578 l 0.0664,-5.49219 V 94.046875 l -0.0664,-5.429687 h -5.42578 v -1.484376 h 5.94922 c 2.51562,-0.06641 3.42187,-0.06641 5.94531,-0.324218 l -0.0664,7.496094 c 1.61718,-3.425782 3.75,-7.820313 8.91406,-7.820313 4.26562,0 5.82031,3.296875 5.82031,6.074219 0,2.390625 -0.97266,4.332031 -3.29687,4.332031 -0.97266,0 -3.23047,-0.710937 -3.23047,-3.363281 0,-0.449219 0.32422,-2.453125 0.32422,-2.90625 0,-1.875 -1.29297,-1.9375 -1.6836,-1.9375 -0.44922,0 -1.16406,0.191406 -2.26172,1.226562 -4.39062,4.328125 -4.58593,11.050784 -4.71484,16.542974 v 4.84765 z m 0,0"
       id="path27" />
    <path
       style="fill:#0075c7;fill-opacity:1;fill-rule:nonzero;stroke:none"
       d="m 626.38672,106.64844 c 0.1914,2.84375 0.44922,5.8789 3.03515,8.33594 2.00391,1.87109 4.07032,2.19531 5.88282,2.19531 4.64843,0 7.23437,-2.32422 7.23437,-5.55469 0,-3.6875 -3.23047,-4.91406 -7.55859,-6.39844 -3.81641,-1.29297 -9.56641,-3.29687 -9.56641,-9.628904 0,-5.625 4.19922,-9.242187 10.40625,-9.242187 3.36328,0 6.33203,1.035156 9.04688,1.875 L 644.99609,96.5 h -1.875 c -0.45312,-2.582031 -1.48437,-8.335938 -7.55859,-8.335938 -3.61719,0 -5.6875,2.199219 -5.6875,4.589844 0,1.164063 0.44922,2.195313 1.16016,2.910156 0.91015,0.902344 1.42187,1.097657 6.46484,2.90625 5.03906,1.874998 9.94922,3.878908 9.94922,10.339848 0,5.8789 -4.78125,10.08203 -12.14453,10.08203 -4.00782,0 -7.36719,-1.03516 -10.73047,-2.07031 v -10.27344 z m 0,0"
       id="path29" />
    <path
       style="fill:#0075c7;fill-opacity:1;fill-rule:nonzero;stroke:none"
       d="m 656.49609,76.921875 c 0,-2.070313 1.6836,-3.8125 3.81641,-3.8125 2,0 3.74609,1.742187 3.74609,3.8125 0,2.066406 -1.74609,3.746094 -3.74609,3.746094 -1.03516,0 -2.00391,-0.386719 -2.71484,-1.097657 -0.71094,-0.710937 -1.10157,-1.679687 -1.10157,-2.648437 m 1.23047,10.210937 c 2.58594,-0.06641 3.49219,-0.06641 6.00781,-0.261718 l -0.0625,6.785156 v 17.64453 l 0.0625,5.49219 h 5.16797 v 1.55078 h -17.18359 v -1.55078 h 5.55469 l 0.0664,-5.49219 V 93.65625 l -0.0664,-4.972656 h -5.55469 v -1.550782 z m 0,0"
       id="path31" />
    <path
       style="fill:#0075c7;fill-opacity:1;fill-rule:nonzero;stroke:none"
       d="m 680.53516,101.67188 c 0,5.94531 0,14.86328 7.10937,14.86328 7.04297,0 7.04297,-9.62891 7.04297,-13.44141 0,-2.58594 -0.0625,-7.625 -1.42188,-10.597656 -1.16406,-2.390625 -3.23046,-3.878906 -5.8789,-3.878906 -6.85156,0.06641 -6.85156,9.304687 -6.85156,13.054692 m 14.80078,-28.949224 c 2.71484,0 3.61718,-0.06641 5.8164,-0.261718 l -0.0625,6.851562 v 31.85938 l 0.0625,5.62109 h 5.16797 v 1.55078 H 694.6875 v -4.97656 c -0.83594,1.61719 -2.90625,5.49219 -8.91797,5.49219 -6.78516,0 -12.33984,-5.75 -12.33984,-16.08985 0,-8.851561 4.39062,-16.285155 12.72656,-16.285155 5.75391,0 7.30859,3.105469 8.53125,5.496094 V 79.3125 l -0.0625,-5.039062 h -6.33203 v -1.550782 z m 0,0"
       id="path33" />
    <path
       style="fill:#0075c7;fill-opacity:1;fill-rule:nonzero;stroke:none"
       d="m 729.32812,99.539062 -5.8164,1.746098 c -3.36328,1.03125 -6.20313,2.26172 -6.20313,8.66015 0,1.8711 0,6.84766 4.39063,6.84766 2.26562,0 3.6875,-1.16406 4.58984,-2.06641 2.77735,-2.78125 2.90625,-6.26953 3.03906,-9.6289 z m 11.50391,17.253908 v 1.55078 h -4.71875 c -0.84375,0 -1.55469,0 -2.32812,-0.12891 -3.8125,-0.45312 -4.45704,-2.84375 -4.84766,-4.32812 -1.22656,1.74219 -3.55078,5.10547 -10.21094,5.10547 -1.09375,0 -4.07031,-0.0664 -6.07422,-2.07031 -0.96875,-0.96875 -2.38672,-3.16797 -2.38672,-7.30079 0,-2.45703 0.51172,-4.52343 2.12891,-6.20312 1.8125,-1.8125 3.62109,-2.19922 9.24219,-3.36328 3.75,-0.77344 5.49219,-1.421878 7.6914,-2.195315 V 95.53125 c -0.0664,-4.394531 -0.13281,-7.625 -5.23437,-7.625 -5.03906,0 -5.10547,3.167969 -5.16797,5.171875 -0.0703,1.355469 -0.13281,3.292969 -3.10547,3.292969 -1.35547,0 -3.16797,0 -3.16797,-2.710938 0,-0.84375 0.19532,-1.617187 0.51953,-2.390625 1.55079,-3.816406 6.33204,-4.847656 11.11329,-4.847656 2.58593,0 5.36328,0.386719 7.36718,1.355469 4.00782,2.003906 4.00782,5.621094 4.00782,8.59375 v 14.152346 c -0.0625,4.84765 0.51953,6.26953 3.55468,6.26953 z m 0,0"
       id="path35" />
    <path
       style="fill:#0075c7;fill-opacity:1;fill-rule:nonzero;stroke:none"
       d="m 752.58984,101.67188 c 0,5.94531 0,14.86328 7.10547,14.86328 7.04688,0 7.04688,-9.62891 7.04688,-13.44141 0,-2.58594 -0.0625,-7.625 -1.42188,-10.597656 -1.16406,-2.390625 -3.23047,-3.878906 -5.8789,-3.878906 -6.85157,0.06641 -6.85157,9.304687 -6.85157,13.054692 m 14.80078,-28.949224 c 2.71485,0 3.61719,-0.06641 5.8125,-0.261718 l -0.0625,6.851562 v 31.85938 l 0.0625,5.62109 h 5.17188 v 1.55078 h -11.63281 v -4.97656 c -0.83985,1.61719 -2.91016,5.49219 -8.91797,5.49219 -6.78516,0 -12.33985,-5.75 -12.33985,-16.08985 0,-8.851561 4.39063,-16.285155 12.72657,-16.285155 5.7539,0 7.30468,3.105469 8.53125,5.496094 V 79.3125 l -0.0625,-5.039062 h -6.33203 v -1.550782 z m 0,0"
       id="path37" />
    <path
       style="fill:#0075c7;fill-opacity:1;fill-rule:nonzero;stroke:none"
       d="m 816.76172,84.289062 -5.49219,16.347658 h 10.59766 z m 1.9375,-12.085937 h 1.29297 l 12.79297,38.839845 2.0039,5.75 h 5.82031 v 1.55078 h -20.61718 v -1.55078 h 6.65625 l -1.48828,-5.42969 -2.77735,-8.91797 h -11.76172 l -2.96875,8.91797 -1.62109,5.42969 h 6.72266 v 1.55078 h -14.41016 v -1.55078 h 5.36328 l 2.00391,-5.62109 z m 0,0"
       id="path39" />
    <path
       style="fill:#0075c7;fill-opacity:1;fill-rule:nonzero;stroke:none"
       d="m 866.66406,87.132812 c 3.03516,0 3.7461,-0.06641 6.14063,-0.257812 l -0.0664,6.71875 v 17.90234 l 0.0664,5.29688 h 5.36328 v 1.55078 h -5.42969 c -2.77734,0.0664 -3.87891,0.12891 -6.20312,0.25781 l -0.32032,-5.75 c -1.16406,1.7461 -4.07422,6.14063 -11.05468,6.14063 -3.10157,0 -5.8125,-0.97266 -7.23438,-2.52344 -2.07031,-2.06641 -2.07031,-5.23437 -2.07031,-6.71875 l 0.0664,-7.82031 -0.19531,-13.246096 h -4.84375 v -1.550782 h 5.03906 c 2.97266,-0.06641 4.00782,-0.06641 6.33204,-0.257812 l -0.0664,6.71875 v 10.92188 c 0.0664,6.20312 0.12891,9.30468 1.875,11.05078 0.71094,0.71093 2.00391,1.28906 3.62109,1.28906 1.80469,0 3.875,-0.77344 5.49219,-2.39063 3.03906,-2.96875 3.09766,-6.52734 3.16797,-9.5625 V 93.59375 l -0.0703,-4.910156 h -5.8125 v -1.550782 z m 0,0"
       id="path41" />
    <path
       style="fill:#0075c7;fill-opacity:1;fill-rule:nonzero;stroke:none"
       d="m 891.92969,78.601562 -0.12891,8.53125 h 6.91406 v 1.808594 h -6.84765 l -0.12891,21.519534 c 0.0625,2.19922 0.0625,6.00781 3.55078,6.00781 2.26172,0 3.6211,-1.61328 4.58985,-3.80859 l 1.35937,0.64453 c -1.42187,2.97265 -2.97656,5.36328 -8.33594,5.36328 -7.43359,0 -7.43359,-4.65234 -7.43359,-7.75391 l 0.19141,-21.972654 h -5.03907 v -1.808594 h 4.97657 l 0.13281,-8.53125 z m 0,0"
       id="path43" />
    <path
       style="fill:#0075c7;fill-opacity:1;fill-rule:nonzero;stroke:none"
       d="m 916.29297,84.417969 h -1.8711 l 3.29297,-9.371094 c 0.64453,-1.746094 1.16407,-2.261719 2.84375,-2.324219 h 2.91016 c 0.83984,0 2.00391,0.128906 2.00391,1.484375 0,0.839844 -0.71485,1.613281 -1.49219,2.390625 z m -6.33203,18.609371 c 0,8.91797 1.16015,14.21875 7.49609,14.21875 7.36328,0 7.625,-6.33203 7.625,-14.54296 0,-3.875005 -0.26172,-6.332036 -0.32422,-7.17188 -0.32031,-2.390625 -0.90234,-7.753906 -7.23828,-7.625 -6.71875,0.128906 -7.55859,6.398438 -7.55859,15.12109 m 22.35547,-0.38671 c 0,9.69531 -6.39454,16.28515 -14.85938,16.28515 -8.21094,0 -14.80078,-6.39844 -14.80078,-16.08984 0,-11.050784 7.36719,-16.546878 15.05859,-16.609378 8.39844,-0.06641 14.60157,6.65625 14.60157,16.414068"
       id="path45" />
    <path
       style="fill:#0075c7;fill-opacity:1;fill-rule:nonzero;stroke:none"
       d="M 968.96094,116.79297 H 974 v 1.55078 h -16.67188 v -1.55078 h 5.10547 l 0.0625,-5.10547 V 99.925781 c -0.0625,-6.589843 -0.0625,-8.53125 -1.67968,-10.078125 -1.03125,-0.972656 -2.38672,-1.035156 -2.96875,-1.035156 -2.32813,0 -4.07422,1.164062 -5.30079,2.324219 -3.42578,3.425781 -3.55468,8.015625 -3.68359,12.085941 v 8.46484 l 0.0664,5.10547 h 5.30078 v 1.55078 h -17.32422 v -1.55078 h 5.69141 l 0.0625,-5.10547 V 94.304688 l -0.0625,-5.621094 h -5.69141 v -1.550782 h 6.14062 c 2.84375,0 3.8125,-0.06641 6.14063,-0.261718 l -0.0664,6.078125 c 1.6836,-2.523438 4.13672,-6.335938 11.11719,-6.335938 8.72266,0 8.72266,6.722657 8.72266,10.277344 0,1.550781 0,3.164065 -0.0625,4.714845 v 10.08203 z m 0,0"
       id="path47" />
    <path
       style="fill:#0075c7;fill-opacity:1;fill-rule:nonzero;stroke:none"
       d="m 986.02344,103.02734 c 0,8.91797 1.16015,14.21875 7.49218,14.21875 7.36718,0 7.62498,-6.33203 7.62498,-14.53906 0,-3.878905 -0.2578,-6.335936 -0.3203,-7.17578 -0.3203,-2.390625 -0.90233,-7.753906 -7.23827,-7.625 -6.71875,0.128906 -7.55859,6.398438 -7.55859,15.12109 m 22.35546,-0.38671 c 0,9.69531 -6.3945,16.28515 -14.86328,16.28515 -8.20703,0 -14.79687,-6.39844 -14.79687,-16.08984 0,-11.050784 7.36719,-16.542971 15.05859,-16.609378 8.39846,-0.06641 14.60156,6.65625 14.60156,16.414068"
       id="path49" />
    <path
       style="fill:#0075c7;fill-opacity:1;fill-rule:nonzero;stroke:none"
       d="m 1025.1172,92.367188 c 0.9023,-1.421876 1.6797,-2.652344 3.3594,-3.878907 1.8125,-1.226562 4.5273,-2.199219 7.625,-2.199219 1.2929,0 3.0351,0.195313 4.5859,0.90625 3.3633,1.550782 4.0078,4.199219 4.4609,6.203126 1.293,-2.390626 3.875,-6.976563 11.1133,-6.976563 1.7461,0 4.3985,0.191406 6.4649,2.066406 2.5234,2.328125 2.5234,5.429688 2.5234,7.949219 l -0.1953,14.86328 0.066,5.49219 h 5.2969 v 1.55078 h -16.8672 v -1.55078 h 5.1015 l 0.07,-5.49219 c 0.062,-4.13672 0.125,-8.27344 0.125,-12.472655 0,-5.296875 0,-9.886719 -4.7813,-9.886719 -2.5195,0 -4.2617,1.097656 -5.4922,2.261719 -3.2304,3.167969 -3.3594,8.140625 -3.4883,12.406255 v 7.6914 l 0.062,5.49219 h 5.168 v 1.55078 h -16.7344 v -1.55078 h 5.1055 l 0.066,-5.49219 V 98.828125 c 0,-3.683594 -0.066,-5.171875 -0.3906,-6.527344 -0.2578,-0.773437 -0.9688,-3.554687 -4.6524,-3.554687 -2.3242,0 -4.3281,0.90625 -5.6211,2.199218 -2.8437,2.90625 -2.9726,7.753907 -3.1015,12.472658 v 7.88281 l 0.066,5.49219 h 4.9726 v 1.55078 h -17.0586 v -1.55078 h 5.5547 l 0.066,-5.49219 V 94.820312 l -0.066,-6.136718 h -5.5547 v -1.550782 h 6.2657 c 2.9062,0 3.5586,-0.06641 6.0117,-0.261718 z m 0,0"
       id="path51" />
    <path
       style="fill:#0075c7;fill-opacity:1;fill-rule:nonzero;stroke:none"
       d="m 1093.6797,99.539062 -5.8125,1.746098 c -3.3633,1.03125 -6.207,2.26172 -6.207,8.66015 0,1.8711 0,6.84766 4.3945,6.84766 2.2617,0 3.6836,-1.16406 4.5859,-2.06641 2.7813,-2.78125 2.9102,-6.26953 3.0391,-9.6289 z m 11.5039,17.253908 v 1.55078 h -4.7188 c -0.8398,0 -1.5507,0 -2.3281,-0.12891 -3.8125,-0.45312 -4.457,-2.84375 -4.8437,-4.32812 -1.2266,1.74219 -3.5547,5.10547 -10.211,5.10547 -1.0976,0 -4.0742,-0.0664 -6.0781,-2.07031 -0.9687,-0.96875 -2.3867,-3.16797 -2.3867,-7.30079 0,-2.45703 0.5156,-4.52343 2.1289,-6.20312 1.8125,-1.8125 3.6211,-2.19922 9.2461,-3.36328 3.7461,-0.77344 5.4922,-1.421878 7.6875,-2.195315 V 95.53125 c -0.062,-4.394531 -0.1289,-7.625 -5.2344,-7.625 -5.039,0 -5.1055,3.167969 -5.168,5.171875 -0.066,1.355469 -0.1289,3.292969 -3.1054,3.292969 -1.3516,0 -3.168,0 -3.168,-2.710938 0,-0.84375 0.1953,-1.617187 0.5234,-2.390625 1.5469,-3.816406 6.3321,-4.847656 11.1133,-4.847656 2.586,0 5.3594,0.386719 7.3633,1.355469 4.0078,2.003906 4.0078,5.621094 4.0078,8.59375 v 14.152346 c -0.062,4.84765 0.5196,6.26953 3.5586,6.26953 z m 0,0"
       id="path53" />
    <path
       style="fill:#0075c7;fill-opacity:1;fill-rule:nonzero;stroke:none"
       d="m 427.26953,177.06641 c 0,5.9414 0,14.85937 7.10938,14.85937 7.04296,0 7.04296,-9.62891 7.04296,-13.4375 0,-2.58594 -0.0625,-7.62891 -1.42187,-10.60156 -1.16406,-2.39063 -3.23047,-3.875 -5.87891,-3.875 -6.85156,0.0625 -6.85156,9.30469 -6.85156,13.05469 m 14.80078,-28.95313 c 2.71485,0 3.61719,-0.0664 5.81641,-0.25781 l -0.0664,6.84765 v 31.85938 l 0.0664,5.625 h 5.16797 v 1.55078 h -11.63282 v -4.97656 c -0.83984,1.61719 -2.90625,5.49219 -8.91796,5.49219 -6.78516,0 -12.33985,-5.75 -12.33985,-16.08985 0,-8.85547 4.39063,-16.28906 12.73047,-16.28906 5.75,0 7.30078,3.10547 8.52734,5.49609 v -12.66797 l -0.0625,-5.03906 h -6.33203 v -1.55078 z m 0,0"
       id="path55" />
    <path
       style="fill:#0075c7;fill-opacity:1;fill-rule:nonzero;stroke:none"
       d="m 478.38672,174.28516 c -0.0625,-2.45313 -0.12891,-4.97657 -1.09766,-7.17188 -1.35547,-2.97266 -3.75,-3.62109 -5.62109,-3.62109 -6.20703,0 -6.72266,6.91406 -7.04688,10.79297 z m 7.5625,10.46875 c -1.875,4.46093 -4.58985,9.6289 -13.70313,9.6289 -2.77734,0 -6.84765,-0.32422 -10.53125,-4.0039 -3.68359,-3.75 -4.32812,-8.53125 -4.32812,-12.34375 0,-1.6836 0.1289,-3.16797 0.44922,-4.52344 0.64843,-2.97266 2.26562,-6.01172 4.39453,-7.95313 2.39062,-2.32422 6.07812,-3.875 10.01562,-3.875 4.20313,0 7.5625,1.67969 9.82422,3.94532 3.49219,3.55078 3.8125,7.55468 4.00781,10.46484 h -21.51953 c 0,3.62109 0,7.5625 1.35547,10.85937 1.94141,4.97657 6.20313,5.49219 8.14453,5.49219 1.67969,0 3.16797,-0.45312 4.32813,-0.97265 3.75,-1.9375 5.17187,-5.49219 5.88281,-7.30079 z m 0,0"
       id="path57" />
    <path
       style="fill:#0075c7;fill-opacity:1;fill-rule:nonzero;stroke:none"
       d="m 549.01953,148.11328 h 14.15234 v 1.55078 h -5.94531 l -0.0625,5.03906 v 30.89063 l 0.0625,6.59375 h 5.94531 v 1.55078 h -20.22656 v -1.55078 h 6.98047 l 0.0625,-6.59375 v -34.57422 l -17.38281,43.55859 h -1.03516 l -17.05859,-43.55859 -0.0625,3.68359 v 30.89063 l 0.0625,6.59375 h 7.04297 v 1.55078 H 506.5625 v -1.55078 h 5.94531 l 0.0664,-6.59375 v -30.89063 l -0.0664,-5.03906 h -5.94531 v -1.55078 h 14.53906 l 13.82813,35.35156 z m 0,0"
       id="path59" />
    <path
       style="fill:#0075c7;fill-opacity:1;fill-rule:nonzero;stroke:none"
       d="m 586.88672,174.92969 -5.81641,1.74609 c -3.35937,1.03516 -6.20312,2.26172 -6.20312,8.66016 0,1.875 0,6.85156 4.39453,6.85156 2.26562,0 3.68359,-1.16406 4.58984,-2.07031 2.77735,-2.77735 2.90625,-6.26953 3.03516,-9.62891 z m 11.5039,17.25781 v 1.55078 h -4.71875 c -0.83984,0 -1.55078,0 -2.32421,-0.12891 -3.8125,-0.45312 -4.46094,-2.84375 -4.84766,-4.33203 -1.22656,1.7461 -3.55469,5.10547 -10.21094,5.10547 -1.09765,0 -4.07031,-0.0625 -6.07422,-2.0664 -0.97265,-0.97266 -2.39062,-3.16797 -2.39062,-7.30469 0,-2.45703 0.51562,-4.52344 2.13281,-6.20313 1.80859,-1.80859 3.61719,-2.19531 9.24219,-3.35937 3.74609,-0.77735 5.49219,-1.42188 7.6875,-2.19922 v -2.32422 c -0.0625,-4.39453 -0.12891,-7.625 -5.23047,-7.625 -5.04297,0 -5.10938,3.16406 -5.17188,5.16797 -0.0664,1.35937 -0.1289,3.29687 -3.10546,3.29687 -1.35157,0 -3.16407,0 -3.16407,-2.71484 0,-0.83984 0.19532,-1.61328 0.51953,-2.39062 1.55079,-3.8125 6.33204,-4.84766 11.11329,-4.84766 2.58593,0 5.36328,0.39062 7.36718,1.35547 4.00391,2.0039 4.00391,5.625 4.00391,8.59765 v 14.15235 c -0.0625,4.84765 0.51953,6.26953 3.55859,6.26953 z m 0,0"
       id="path61" />
    <path
       style="fill:#0075c7;fill-opacity:1;fill-rule:nonzero;stroke:none"
       d="m 610.15234,177.06641 c 0,5.9414 0,14.85937 7.10547,14.85937 7.04297,0 7.04297,-9.62891 7.04297,-13.4375 0,-2.58594 -0.0586,-7.62891 -1.42187,-10.60156 -1.16407,-2.39063 -3.22657,-3.875 -5.87891,-3.875 -6.84766,0.0625 -6.84766,9.30469 -6.84766,13.05469 m 14.79688,-28.95313 c 2.71484,0 3.62109,-0.0664 5.8164,-0.25781 l -0.0625,6.84765 v 31.85938 l 0.0625,5.625 h 5.16797 v 1.55078 h -11.63281 v -4.97656 c -0.83594,1.61719 -2.90625,5.49219 -8.91797,5.49219 -6.78515,0 -12.33984,-5.75 -12.33984,-16.08985 0,-8.85547 4.39062,-16.28906 12.73047,-16.28906 5.7539,0 7.30078,3.10547 8.52734,5.49609 v -12.66797 l -0.0586,-5.03906 h -6.33594 v -1.55078 z m 0,0"
       id="path63" />
    <path
       style="fill:#0075c7;fill-opacity:1;fill-rule:nonzero;stroke:none"
       d="m 650.15234,192.1875 h 5.49219 v 1.55078 h -17.25391 v -1.55078 h 5.42969 l 0.0625,-5.49219 v -17.2539 l -0.0625,-5.42969 h -5.42969 v -1.48828 h 5.94532 c 2.51953,-0.0664 3.42578,-0.0664 5.94922,-0.32032 l -0.0703,7.4961 c 1.61719,-3.42578 3.75,-7.82031 8.91797,-7.82031 4.26563,0 5.82031,3.29296 5.82031,6.07421 0,2.39063 -0.97265,4.32813 -3.29687,4.32813 -0.97266,0 -3.23047,-0.71094 -3.23047,-3.35938 0,-0.45312 0.32031,-2.45703 0.32031,-2.91015 0,-1.8711 -1.28906,-1.9375 -1.67968,-1.9375 -0.44922,0 -1.16016,0.19531 -2.26172,1.23047 -4.39063,4.32812 -4.58985,11.04687 -4.71485,16.54297 v 4.84765 z m 0,0"
       id="path65" />
    <path
       style="fill:#0075c7;fill-opacity:1;fill-rule:nonzero;stroke:none"
       d="m 671.28125,152.3125 c 0,-2.06641 1.68359,-3.8125 3.81641,-3.8125 2,0 3.75,1.74609 3.75,3.8125 0,2.07031 -1.75,3.75 -3.75,3.75 -1.03516,0 -2.00391,-0.39063 -2.71485,-1.09766 -0.71094,-0.71484 -1.10156,-1.67968 -1.10156,-2.65234 m 1.23047,10.21094 c 2.58594,-0.0625 3.48828,-0.0625 6.00781,-0.25782 l -0.0625,6.78516 v 17.64453 l 0.0625,5.49219 h 5.16797 v 1.55078 H 666.5 v -1.55078 h 5.55859 l 0.0664,-5.49219 v -17.64453 l -0.0664,-4.97656 H 666.5 v -1.55078 z m 0,0"
       id="path67" />
    <path
       style="fill:#0075c7;fill-opacity:1;fill-rule:nonzero;stroke:none"
       d="m 695.32422,177.06641 c 0,5.9414 0,14.85937 7.10547,14.85937 7.04297,0 7.04297,-9.62891 7.04297,-13.4375 0,-2.58594 -0.0625,-7.62891 -1.42188,-10.60156 -1.16406,-2.39063 -3.23047,-3.875 -5.87891,-3.875 -6.84765,0.0625 -6.84765,9.30469 -6.84765,13.05469 m 14.79687,-28.95313 c 2.71485,0 3.6211,-0.0664 5.81641,-0.25781 l -0.0664,6.84765 v 31.85938 l 0.0664,5.625 h 5.16797 v 1.55078 h -11.63281 v -4.97656 c -0.83594,1.61719 -2.90625,5.49219 -8.91797,5.49219 -6.78516,0 -12.33985,-5.75 -12.33985,-16.08985 0,-8.85547 4.39063,-16.28906 12.73047,-16.28906 5.75,0 7.30078,3.10547 8.52735,5.49609 v -12.66797 l -0.0625,-5.03906 h -6.33204 v -1.55078 z m 0,0"
       id="path69" />
  </g>
</svg>
