<?xml version="1.0" encoding="UTF-8" standalone="no"?>
<svg
   width="301.21484pt"
   height="301.99219pt"
   viewBox="0 0 301.21484 301.99219"
   version="1.2"
   id="svg60"
   sodipodi:docname="uc.svg"
   inkscape:version="1.1 (c4e8f9e, 2021-05-24)"
   xmlns:inkscape="http://www.inkscape.org/namespaces/inkscape"
   xmlns:sodipodi="http://sodipodi.sourceforge.net/DTD/sodipodi-0.dtd"
   xmlns="http://www.w3.org/2000/svg"
   xmlns:svg="http://www.w3.org/2000/svg">
  <defs
     id="defs64" />
  <sodipodi:namedview
     id="namedview62"
     pagecolor="#ffffff"
     bordercolor="#666666"
     borderopacity="1.0"
     inkscape:pageshadow="2"
     inkscape:pageopacity="0.0"
     inkscape:pagecheckerboard="0"
     inkscape:document-units="pt"
     showgrid="false"
     fit-margin-top="0"
     fit-margin-left="0"
     fit-margin-right="0"
     fit-margin-bottom="0"
     inkscape:zoom="0.23159145"
     inkscape:cx="192.14872"
     inkscape:cy="427.47692"
     inkscape:window-width="1440"
     inkscape:window-height="900"
     inkscape:window-x="0"
     inkscape:window-y="0"
     inkscape:window-maximized="0"
     inkscape:current-layer="svg60" />
  <g
     id="surface3946"
     transform="translate(-150.95312,-100.64844)">
    <path
       style="fill:#116168;fill-opacity:1;fill-rule:nonzero;stroke:none"
       d="M 150.95312,100.64844 H 452.16797 V 402.64062 H 150.95312 Z m 0,0"
       id="path9" />
    <path
       style="fill:#ffffff;fill-opacity:1;fill-rule:nonzero;stroke:none"
       d="m 239.8125,270.16797 c -34.47266,0 -64.75,-20.00781 -64.75,-55.13281 v -90.26172 h 47.07031 v 86.25781 c 0,12.67187 10.17188,17.56641 18.1211,17.56641 7.95703,0 18.12109,-4.89454 18.12109,-17.33985 v -86.48437 h 46.1875 v 90.26172 c 0,35.125 -30.27344,55.13281 -64.75,55.13281"
       id="path11" />
    <path
       style="fill:#ffffff;fill-opacity:1;fill-rule:nonzero;stroke:none"
       d="m 428.74219,172.42969 c -8.81641,-5.8125 -17.21875,-9.21875 -33.12891,-9.21875 -23.42578,0 -35.35937,16.72656 -35.35937,33.23047 0,16.50781 12.59765,33.23437 37.78515,33.23437 13.48438,0 23.625,-3.05859 30.82813,-8.625 l -0.125,40.57813 c -8.44532,5.9375 -22.96485,8.98437 -38.87891,8.98437 -38.44922,0 -77.5625,-25.53125 -77.5625,-74.17187 0,-48.19532 39.11328,-74.17188 77.5625,-74.17188 15.91406,0 30.60156,3.50391 39.00391,8.34766 z m 0,0"
       id="path13" />
    <path
       style="fill:#ffffff;fill-opacity:1;fill-rule:nonzero;stroke:none"
       d="m 185.85156,342.94141 c -6.52734,0 -10.98047,-3.83985 -10.98047,-10.23438 v -18.39062 h 2.95313 v 18.125 c 0,4.89843 2.95703,7.85156 8.07422,7.85156 5.07031,0 8.07031,-2.95313 8.07031,-7.85156 v -18.125 h 2.86719 v 18.39062 c 0,6.39453 -4.45703,10.23438 -10.98438,10.23438"
       id="path15" />
    <path
       style="fill:#ffffff;fill-opacity:1;fill-rule:nonzero;stroke:none"
       d="m 227.48437,343.07422 -13.84765,-15.87891 c -2.38281,-2.73437 -4.94141,-5.77734 -6.87891,-8.11719 l -0.0898,0.0469 c 0.0898,2.60156 0.0898,5.24609 0.0898,7.80469 v 15.52343 h -2.95703 v -28.13671 h 2.07422 l 13.05078,14.94921 c 1.94531,2.20704 4.54688,5.25 6.39844,7.54297 l 0.0898,-0.043 c -0.0898,-2.51562 -0.0898,-5.07421 -0.0898,-7.45312 V 314.3164 h 2.95312 v 28.75781 z m 0,0"
       id="path17" />
    <path
       style="fill:#ffffff;fill-opacity:1;fill-rule:nonzero;stroke:none"
       d="m 235.99609,314.31641 h 2.95703 v 28.13671 h -2.95703 z m 0,0"
       id="path19" />
    <path
       style="fill:#ffffff;fill-opacity:1;fill-rule:nonzero;stroke:none"
       d="m 256.41797,342.89453 h -0.83985 l -11.24609,-28.57812 h 3.12891 l 5.91406,15.08203 c 0.87891,2.29297 1.89453,5.02734 2.73047,7.54297 h 0.0937 c 0.78906,-2.46875 1.76172,-5.16016 2.68359,-7.54297 l 5.95703,-15.08203 h 2.82032 z m 0,0"
       id="path21" />
    <path
       style="fill:#ffffff;fill-opacity:1;fill-rule:nonzero;stroke:none"
       d="m 272.29297,342.45312 v -28.13671 h 14.68359 v 2.55859 h -11.73047 v 10.14453 h 9.61719 v 2.55469 h -9.61719 v 10.32422 h 13.27735 v 2.55468 z m 0,0"
       id="path23" />
    <path
       style="fill:#ffffff;fill-opacity:1;fill-rule:nonzero;stroke:none"
       d="M 300.96094,316.875 H 296.375 v 10.14453 h 4.76172 c 2.95312,0 5.55859,-1.85156 5.55859,-5.07422 0,-3.17578 -2.60547,-5.07031 -5.73437,-5.07031 m 9.65625,25.57812 -9.39453,-12.8789 H 296.375 v 12.8789 h -2.95703 v -28.13671 h 8.02734 c 4.27735,0 8.2461,2.82421 8.2461,7.6289 0,3.66406 -2.38282,6.3086 -5.51172,7.19141 l 9.8789,13.3164 z m 0,0"
       id="path25" />
    <path
       style="fill:#ffffff;fill-opacity:1;fill-rule:nonzero;stroke:none"
       d="m 323.9375,342.94141 c -3.26563,0 -5.91016,-1.0625 -7.45313,-2.16407 l -0.83984,-3.48437 c 2.42578,1.85156 5.16016,3.04297 8.42578,3.04297 3.48438,0 5.9961,-2.07032 5.9961,-5.16016 0,-2.91016 -1.76563,-4.71875 -5.6875,-6.08594 -5.02735,-1.76172 -7.41016,-4.49609 -7.41016,-8.16015 0,-3.48047 2.64453,-7.09766 8.33203,-7.09766 2.55859,0 4.80859,0.83594 5.95703,1.62891 l -0.61719,2.47265 c -1.10156,-0.79297 -3.26562,-1.63281 -5.42578,-1.63281 -3.52734,0 -5.3789,2.29297 -5.3789,4.45703 0,2.2461 1.58593,3.96875 5.15625,5.33203 5.03125,1.89844 8.07422,4.27735 8.07422,8.82422 0,4.85156 -3.52735,8.02735 -9.12891,8.02735"
       id="path27" />
    <path
       style="fill:#ffffff;fill-opacity:1;fill-rule:nonzero;stroke:none"
       d="m 339.55078,314.31641 h 2.95313 v 28.13671 h -2.95313 z m 0,0"
       id="path29" />
    <path
       style="fill:#ffffff;fill-opacity:1;fill-rule:nonzero;stroke:none"
       d="m 357.14453,316.875 h -3.96875 v 23.02344 h 3.96875 c 7.41016,0 13.01172,-4.01563 13.01172,-11.51563 0,-7.49219 -5.60156,-11.50781 -13.01172,-11.50781 m 0.44141,25.57812 h -7.36719 v -28.13671 h 7.36719 c 8.51172,0 15.61328,5.11718 15.61328,14.0664 0,8.95703 -7.10156,14.07031 -15.61328,14.07031"
       id="path31" />
    <path
       style="fill:#ffffff;fill-opacity:1;fill-rule:nonzero;stroke:none"
       d="m 390.75,323.49219 c -0.52734,-1.28125 -1.05469,-2.82032 -1.49609,-4.32422 h -0.0899 c -0.4414,1.5039 -1.01562,3.04297 -1.54297,4.32422 l -3.39843,8.64062 h 9.8789 z m 7.58594,18.96093 -3.22266,-7.89453 h -11.90234 l -3.17578,7.89453 h -2.91407 l 11.64453,-28.70703 h 0.92969 l 11.64063,28.70703 z m 0,0"
       id="path33" />
    <path
       style="fill:#ffffff;fill-opacity:1;fill-rule:nonzero;stroke:none"
       d="m 413.33203,316.875 h -3.96875 v 23.02344 h 3.96875 c 7.41016,0 13.00781,-4.01563 13.00781,-11.51563 0,-7.49219 -5.59765,-11.50781 -13.00781,-11.50781 m 0.44141,25.57812 h -7.36719 v -28.13671 h 7.36719 c 8.51172,0 15.60937,5.11718 15.60937,14.0664 0,8.95703 -7.09765,14.07031 -15.60937,14.07031"
       id="path35" />
    <path
       style="fill:#ffffff;fill-opacity:1;fill-rule:nonzero;stroke:none"
       d="m 181.24219,355.32812 h -3.63282 v 21.07813 h 3.63282 c 6.78515,0 11.91406,-3.67578 11.91406,-10.53906 0,-6.86719 -5.12891,-10.53907 -11.91406,-10.53907 m 0.40625,23.41797 h -6.74219 v -25.75781 h 6.74219 c 7.78906,0 14.29297,4.68359 14.29297,12.87891 0,8.19531 -6.50391,12.8789 -14.29297,12.8789"
       id="path37" />
    <path
       style="fill:#ffffff;fill-opacity:1;fill-rule:nonzero;stroke:none"
       d="m 201.26953,378.74609 v -25.75781 h 13.44531 v 2.33984 h -10.74218 v 9.28907 h 8.80078 v 2.33984 h -8.80078 v 9.44922 H 216.125 v 2.33984 z m 0,0"
       id="path39" />
    <path
       style="fill:#ffffff;fill-opacity:1;fill-rule:nonzero;stroke:none"
       d="m 250.64453,356.66016 c -1.49219,-0.96485 -4.03516,-1.77344 -6.78125,-1.77344 -5.8125,0 -11.18359,4.15625 -11.18359,10.98047 0,6.78515 5.28906,10.9414 11.18359,10.9414 2.98828,0 5.44922,-0.60547 7.26563,-1.73437 l -0.64454,2.74219 c -1.61718,0.89062 -3.67578,1.375 -6.90625,1.375 -6.90234,0 -13.64453,-5.04688 -13.64453,-13.32422 0,-8.35938 6.82422,-13.32422 13.64453,-13.32422 3.3125,0 5.85547,0.72656 7.58985,1.73828 z m 0,0"
       id="path41" />
    <path
       style="fill:#ffffff;fill-opacity:1;fill-rule:nonzero;stroke:none"
       d="m 266.71484,361.38672 c -0.48437,-1.17188 -0.96875,-2.58594 -1.375,-3.95703 h -0.082 c -0.40234,1.37109 -0.92578,2.78515 -1.41015,3.95703 l -3.10938,7.91406 h 9.04688 z m 6.94141,17.35937 -2.94531,-7.22656 H 259.8125 l -2.90625,7.22656 h -2.66797 l 10.66016,-26.28515 h 0.84765 l 10.66016,26.28515 z m 0,0"
       id="path43" />
    <path
       style="fill:#ffffff;fill-opacity:1;fill-rule:nonzero;stroke:none"
       d="m 302.72656,379.3125 -12.67578,-14.53516 c -2.18359,-2.5039 -4.51953,-5.28906 -6.29687,-7.42968 l -0.082,0.0391 c 0.082,2.38672 0.082,4.80859 0.082,7.14844 v 14.21093 h -2.70704 v -25.75781 h 1.89844 l 11.95313,13.6875 c 1.77343,2.01953 4.15625,4.80078 5.85156,6.90234 l 0.0781,-0.043 c -0.0781,-2.30079 -0.0781,-4.64063 -0.0781,-6.82032 v -13.72656 h 2.70703 v 26.32422 z m 0,0"
       id="path45" />
    <path
       style="fill:#ffffff;fill-opacity:1;fill-rule:nonzero;stroke:none"
       d="m 320.49219,355.32812 v 23.41797 h -2.70313 v -23.41797 h -8.84375 v -2.33984 H 329.375 v 2.33984 z m 0,0"
       id="path47" />
    <path
       style="fill:#ffffff;fill-opacity:1;fill-rule:nonzero;stroke:none"
       d="m 341.56641,361.38672 c -0.48438,-1.17188 -0.96485,-2.58594 -1.3711,-3.95703 h -0.082 c -0.40625,1.37109 -0.92969,2.78515 -1.41406,3.95703 l -3.10938,7.91406 h 9.04688 z m 6.94531,17.35937 -2.94922,-7.22656 h -10.89844 l -2.90625,7.22656 h -2.66406 L 339.75,352.46094 h 0.85156 l 10.65625,26.28515 z m 0,0"
       id="path49" />
    <path
       style="fill:#ffffff;fill-opacity:1;fill-rule:nonzero;stroke:none"
       d="m 363.00391,365.74609 h -4.39844 v 10.66016 h 4.55859 c 3.11328,0 5.89844,-1.94141 5.89844,-5.33203 0,-3.35156 -2.78516,-5.32813 -6.05859,-5.32813 m -1.16797,-10.41797 h -3.23047 v 8.07813 h 3.34765 c 2.42579,0 4.44532,-1.45703 4.44532,-4.03906 0,-2.625 -2.01953,-4.03907 -4.5625,-4.03907 m 1.85547,23.41797 h -7.78907 v -25.75781 h 6.33594 c 3.59375,0 6.90234,2.38281 6.90234,6.37891 0,2.05859 -1.08984,4.07812 -2.82421,4.80468 2.90625,0.60547 5.49218,3.51172 5.49218,6.90235 0,4.84765 -3.95703,7.67187 -8.11718,7.67187"
       id="path51" />
    <path
       style="fill:#ffffff;fill-opacity:1;fill-rule:nonzero;stroke:none"
       d="m 384,355.32812 h -4.19922 v 9.28907 h 4.35938 c 2.70703,0 5.08593,-1.69922 5.08593,-4.64453 0,-2.90625 -2.3789,-4.64454 -5.24609,-4.64454 m 8.84375,23.41797 -8.60156,-11.78906 h -4.44141 v 11.78906 h -2.70703 v -25.75781 h 7.35156 c 3.91406,0 7.55078,2.58203 7.55078,6.98438 0,3.35156 -2.18359,5.77343 -5.05078,6.58203 l 9.04297,12.1914 z m 0,0"
       id="path53" />
    <path
       style="fill:#ffffff;fill-opacity:1;fill-rule:nonzero;stroke:none"
       d="m 399.86719,352.98828 h 2.70312 v 25.75781 h -2.70312 z m 0,0"
       id="path55" />
    <path
       style="fill:#ffffff;fill-opacity:1;fill-rule:nonzero;stroke:none"
       d="m 420.375,361.38672 c -0.48438,-1.17188 -0.96875,-2.58594 -1.37109,-3.95703 h -0.082 c -0.40234,1.37109 -0.92578,2.78515 -1.41015,3.95703 l -3.10938,7.91406 h 9.04297 z m 6.94531,17.35937 -2.94531,-7.22656 h -10.90234 l -2.90625,7.22656 h -2.66407 l 10.65625,-26.28515 h 0.84766 l 10.66016,26.28515 z m 0,0"
       id="path57" />
  </g>
</svg>
