<?xml version="1.0" encoding="UTF-8" standalone="no"?>
<svg
   enable-background="new 0 0 200 120"
   height="101.48758"
   viewBox="0 0 175.86389 101.48758"
   width="175.86389"
   version="1.1"
   id="svg252"
   sodipodi:docname="faraday_s_experiment_Thumbnail.svg"
   inkscape:version="1.2.2 (b0a8486, 2022-12-01)"
   xmlns:inkscape="http://www.inkscape.org/namespaces/inkscape"
   xmlns:sodipodi="http://sodipodi.sourceforge.net/DTD/sodipodi-0.dtd"
   xmlns="http://www.w3.org/2000/svg"
   xmlns:svg="http://www.w3.org/2000/svg">
  <defs
     id="defs256" />
  <sodipodi:namedview
     id="namedview254"
     pagecolor="#ffffff"
     bordercolor="#666666"
     borderopacity="1.0"
     inkscape:showpageshadow="2"
     inkscape:pageopacity="0.0"
     inkscape:pagecheckerboard="0"
     inkscape:deskcolor="#d1d1d1"
     showgrid="false"
     inkscape:zoom="1.9666667"
     inkscape:cx="85.423729"
     inkscape:cy="50.847458"
     inkscape:window-width="1280"
     inkscape:window-height="800"
     inkscape:window-x="1920"
     inkscape:window-y="213"
     inkscape:window-maximized="0"
     inkscape:current-layer="svg252" />
  <path
     d="m 111.10109,9.8832772 -7.4096,3.2602998 h 14.2271 l 7.4096,-3.2602998 z"
     fill="#e43f32"
     id="path182" />
  <path
     d="m 125.32819,9.8832772 -7.4096,3.2602998 h 36.3086 l 7.4097,-3.2602998 z"
     fill="#e7e7e7"
     id="path184" />
  <path
     d="m 175.86389,9.8832772 h -14.227 l -7.4097,3.2602998 h 14.2271 z"
     fill="#2c9fd0"
     id="path186" />
  <path
     d="m 15.398888,3.4927772 c 8.3114,8.8160998 6.7353,37.9515998 -5.7133997,37.9515998"
     fill="none"
     stroke="#b36429"
     stroke-linecap="round"
     stroke-miterlimit="10"
     stroke-width="1.7784"
     id="path188" />
  <path
     d="m 15.398888,3.4927772 c -1.4816,-1.5716 -3.2775,-2.49749995 -5.3819,-2.49749995 -16.5259997,0 -5.5610997,82.26349975 -5.5610997,82.26349975 H 25.491188"
     fill="none"
     stroke="#eb9d62"
     stroke-linecap="round"
     stroke-miterlimit="10"
     stroke-width="1.7784"
     id="path190" />
  <path
     d="m 9.6854883,41.444377 c -10.8048,0 -4.0093,-40.44899975 12.5166997,-40.44899975 2.1045,0 3.9003,0.92589995 5.3819,2.49749995"
     fill="none"
     stroke="#eb9d62"
     stroke-linecap="round"
     stroke-miterlimit="10"
     stroke-width="1.7784"
     id="path192" />
  <path
     d="m 27.573688,3.4927772 c 8.3114,8.8160998 6.7353,37.9515998 -5.7134,37.9515998"
     fill="none"
     stroke="#b36429"
     stroke-linecap="round"
     stroke-miterlimit="10"
     stroke-width="1.7784"
     id="path194" />
  <path
     d="m 21.860388,41.444377 c -10.8048,0 -4.0093,-40.44899975 12.5167,-40.44899975 2.1045,0 3.9003,0.92589995 5.3819,2.49749995"
     fill="none"
     stroke="#eb9d62"
     stroke-linecap="round"
     stroke-miterlimit="10"
     stroke-width="1.7784"
     id="path196" />
  <path
     d="m 39.748588,3.4927772 c 8.3114,8.8160998 6.7353,37.9515998 -5.7134,37.9515998"
     fill="none"
     stroke="#b36429"
     stroke-linecap="round"
     stroke-miterlimit="10"
     stroke-width="1.7784"
     id="path198" />
  <path
     d="m 34.035288,41.444377 c -10.8049,0 -4.0093,-40.44899975 12.5167,-40.44899975 2.1045,0 3.9003,0.92589995 5.3819,2.49749995"
     fill="none"
     stroke="#eb9d62"
     stroke-linecap="round"
     stroke-miterlimit="10"
     stroke-width="1.7784"
     id="path200" />
  <path
     d="m 51.923488,3.4927772 c 8.3114,8.8160998 6.7353,37.9515998 -5.7134,37.9515998"
     fill="none"
     stroke="#b36429"
     stroke-linecap="round"
     stroke-miterlimit="10"
     stroke-width="1.7784"
     id="path202" />
  <path
     d="m 46.210188,41.444377 c -10.8049,0 -4.0093,-40.44899975 12.5167,-40.44899975 2.1045,0 3.9003,0.92589995 5.3819,2.49749995"
     fill="none"
     stroke="#eb9d62"
     stroke-linecap="round"
     stroke-miterlimit="10"
     stroke-width="1.7784"
     id="path204" />
  <path
     d="m 64.098388,3.4927772 c 8.3114,8.8160998 6.7353,37.9515998 -5.7134,37.9515998"
     fill="none"
     stroke="#b36429"
     stroke-linecap="round"
     stroke-miterlimit="10"
     stroke-width="1.7784"
     id="path206" />
  <path
     d="m 58.385088,41.444377 c -10.8049,0 -4.0093,-40.44899975 12.5167,-40.44899975 2.1045,0 3.9003,0.92589995 5.3819,2.49749995"
     fill="none"
     stroke="#eb9d62"
     stroke-linecap="round"
     stroke-miterlimit="10"
     stroke-width="1.7784"
     id="path208" />
  <path
     d="m 76.273288,3.4927772 c 8.3114,8.8160998 6.7353,37.9515998 -5.7134,37.9515998"
     fill="none"
     stroke="#b36429"
     stroke-linecap="round"
     stroke-miterlimit="10"
     stroke-width="1.7784"
     id="path210" />
  <path
     d="m 70.559888,41.444377 c -10.8049,0 -4.0093,-40.44899975 12.5167,-40.44899975 2.1045,0 3.9003,0.92589995 5.3819,2.49749995"
     fill="none"
     stroke="#eb9d62"
     stroke-linecap="round"
     stroke-miterlimit="10"
     stroke-width="1.7784"
     id="path212" />
  <path
     d="m 88.448188,3.4927772 c 8.3114,8.8160998 6.7353,37.9515998 -5.7134,37.9515998"
     fill="none"
     stroke="#b36429"
     stroke-linecap="round"
     stroke-miterlimit="10"
     stroke-width="1.7784"
     id="path214" />
  <path
     d="m 82.734788,41.444377 c -10.8049,0 -5.4474,-42.9890998 10.8823,-40.44899975 5.1204,0.79649995 4.7804,7.48799995 5.035,11.49189975 1.2516,19.6841 -11.6625,69.9183 -11.6625,69.9183 h -23.5826"
     fill="none"
     stroke="#eb9d62"
     stroke-linecap="round"
     stroke-miterlimit="10"
     stroke-width="1.7784"
     id="path216" />
  <circle
     cx="44.917587"
     cy="82.40538"
     fill="#e7e7e7"
     r="18.489401"
     stroke="#222222"
     stroke-linecap="round"
     stroke-miterlimit="10"
     stroke-width="1.1856"
     id="circle218" />
  <path
     d="m 55.472788,78.991977 c 0,-3.2601 -3.3894,-7.8509 -10.9229,-7.8509 -7.9655,0 -10.0696,5.1348 -10.0696,7.8509 l -3.398,-3.7501 c 1.5063,-4.0829 5.5805,-8.1969 13.4676,-8.1969 8.1204,0 12.7389,4.2935 14.3557,8.5384 z"
     fill="#ffffff"
     id="path220" />
  <path
     d="m 44.549788,72.108277 v -6.0304"
     fill="none"
     stroke="#222222"
     stroke-miterlimit="10"
     stroke-width="0.2964"
     id="path222" />
  <path
     d="m 55.176988,79.136377 4.2856,-4.4479"
     fill="none"
     stroke="#222222"
     stroke-miterlimit="10"
     stroke-width="0.2964"
     id="path224" />
  <path
     d="m 30.857888,74.478777 3.7612,4.8993"
     fill="none"
     stroke="#222222"
     stroke-miterlimit="10"
     stroke-width="0.2964"
     id="path226" />
  <circle
     cx="44.549786"
     cy="93.498978"
     fill="#222222"
     r="2.8445001"
     id="circle228" />
  <path
     d="m 44.549788,93.498977 2.3667,-15.6503"
     fill="none"
     stroke="#222222"
     stroke-miterlimit="10"
     stroke-width="1.1856"
     id="path230" />
  <path
     d="m 49.709788,79.145777 -2.1573,-5.5033 -3.688,4.6194 z"
     fill="#222222"
     id="path232" />
  <path
     d="m 42.766588,75.026177 c 0,-1.5938 0.668,-2.4912 1.79,-2.4912 1.1191,0 1.7773,0.8955 1.7773,2.4805 0,1.5869 -0.6582,2.4648 -1.7842,2.4648 -1.119,0 -1.7831,-0.8653 -1.7831,-2.4541 z m 3.0206,-0.0088 c 0,-1.2813 -0.4355,-1.9912 -1.2344,-1.9912 -0.791,0 -1.2393,0.6963 -1.2393,1.9912 0,1.2773 0.4375,1.9756 1.2393,1.9756 0.8008,0 1.2344,-0.6963 1.2344,-1.9756 z"
     fill="#222222"
     id="path234" />
  <path
     d="m 103.69119,13.143577 h 14.2271 v 18.673 h -14.2271 z"
     fill="#f56a60"
     id="path236" />
  <path
     d="m 117.91829,13.143577 h 36.3087 v 18.673 h -36.3087 z"
     fill="#f5f5f5"
     id="path238" />
  <path
     d="m 154.22689,13.143577 h 14.2271 v 18.673 h -14.2271 z"
     fill="#95d4ef"
     id="path240" />
  <path
     d="m 175.86389,9.8832772 -7.4099,3.2602998 v 18.6731 l 7.4099,-3.2604 z"
     fill="#4797b0"
     id="path242" />
  <path
     d="m 51.193388,92.810277 1.3076,-3.3652 h 0.6367 l -1.6416,4.0537 h -0.6465 l -1.582,-4.0537 h 0.6748 z"
     fill="#222222"
     id="path244" />
  <path
     d="M -11.623012,-9.1091228 H 188.37699 V 110.89088 H -11.623012 Z"
     fill="none"
     id="path246" />
</svg>
