<?xml version="1.0" encoding="UTF-8" standalone="no"?>
<svg
   xmlns:dc="http://purl.org/dc/elements/1.1/"
   xmlns:cc="http://creativecommons.org/ns#"
   xmlns:rdf="http://www.w3.org/1999/02/22-rdf-syntax-ns#"
   xmlns:svg="http://www.w3.org/2000/svg"
   xmlns="http://www.w3.org/2000/svg"
   xmlns:sodipodi="http://sodipodi.sourceforge.net/DTD/sodipodi-0.dtd"
   xmlns:inkscape="http://www.inkscape.org/namespaces/inkscape"
   sodipodi:docname="experimento-Faraday.svg"
   inkscape:version="1.0 (4035a4f, 2020-05-01)"
   version="1.1"
   id="svg2"
   height="364.7157"
   width="1035.4001">
  <defs
     id="defs4">
    <inkscape:perspective
       id="perspective4429"
       inkscape:persp3d-origin="573.32395 : 255.17435 : 1"
       inkscape:vp_z="923.79077 : 752.04724 : 1"
       inkscape:vp_y="0 : 1000 : 0"
       inkscape:vp_x="88.571424 : 492.04724 : 1"
       sodipodi:type="inkscape:persp3d" />
  </defs>
  <sodipodi:namedview
     inkscape:document-rotation="0"
     fit-margin-bottom="0"
     fit-margin-right="0"
     fit-margin-left="0"
     fit-margin-top="0"
     inkscape:window-maximized="0"
     inkscape:window-y="0"
     inkscape:window-x="0"
     inkscape:window-height="900"
     inkscape:window-width="1440"
     showgrid="false"
     inkscape:current-layer="g3873"
     inkscape:document-units="px"
     inkscape:cy="185.84172"
     inkscape:cx="341.26894"
     inkscape:zoom="1.1383002"
     inkscape:pageshadow="2"
     inkscape:pageopacity="0.0"
     borderopacity="1.0"
     bordercolor="#666666"
     pagecolor="#ffffff"
     id="base" />
  <metadata
     id="metadata7">
    <rdf:RDF>
      <cc:Work
         rdf:about="">
        <dc:format>image/svg+xml</dc:format>
        <dc:type
           rdf:resource="http://purl.org/dc/dcmitype/StillImage" />
        <dc:title></dc:title>
      </cc:Work>
    </rdf:RDF>
  </metadata>
  <g
     transform="translate(-14.599929,-508.91791)"
     id="layer1"
     inkscape:groupmode="layer"
     inkscape:label="Layer 1">
    <rect
       ry="11.913844"
       rx="39.712814"
       y="601.39227"
       x="75.304024"
       height="220.12245"
       width="95.310753"
       id="rect3773"
       style="fill:#ff8080;fill-opacity:1;stroke:#000000;stroke-width:1.58851254;stroke-miterlimit:4;stroke-dasharray:none" />
    <text
       id="text3775"
       y="654.49396"
       x="97.08934"
       style="font-style:normal;font-weight:normal;line-height:0%;font-family:sans-serif;text-align:center;letter-spacing:0px;word-spacing:0px;text-anchor:middle;fill:#000000;fill-opacity:1;stroke:none"
       xml:space="preserve"><tspan
         style="font-size:31.7703px;line-height:1.25;font-family:sans-serif"
         y="654.49396"
         x="97.08934"
         id="tspan3777"
         sodipodi:role="line">+</tspan></text>
    <text
       id="text3779"
       y="655.5708"
       x="155.41045"
       style="font-style:normal;font-weight:normal;line-height:0%;font-family:sans-serif;text-align:center;letter-spacing:0px;word-spacing:0px;text-anchor:middle;fill:#000000;fill-opacity:1;stroke:none"
       xml:space="preserve"><tspan
         style="font-size:31.7703px;line-height:1.25;font-family:sans-serif"
         y="655.5708"
         x="155.41045"
         id="tspan3781"
         sodipodi:role="line">-</tspan></text>
    <path
       transform="matrix(0.79425629,0,0,0.79425629,1.5516509,429.07707)"
       d="m 212.85715,232.66591 c 0,11.04569 -26.86292,20 -60,20 -33.13709,0 -60.000003,-8.95431 -60.000003,-20 0,-11.0457 26.862913,-20 60.000003,-20 33.13708,0 60,8.9543 60,20 z"
       sodipodi:ry="20"
       sodipodi:rx="60"
       sodipodi:cy="232.66591"
       sodipodi:cx="152.85715"
       id="path3786"
       style="fill:#d59368;fill-opacity:1;stroke:#000000;stroke-width:2;stroke-miterlimit:4;stroke-dasharray:none"
       sodipodi:type="arc" />
    <rect
       ry="1.0599095"
       rx="9.061038"
       y="592.81561"
       x="135.91383"
       height="19.58309"
       width="21.74649"
       id="rect3773-6"
       style="fill:#ca7740;fill-opacity:1;stroke:#000000;stroke-width:1.58851253999999997;stroke-miterlimit:4;stroke-dasharray:none" />
    <path
       transform="matrix(0.18122076,0,0,0.07066063,119.08621,577.48575)"
       d="m 212.85715,232.66591 c 0,11.04569 -26.86292,20 -60,20 -33.13709,0 -60.000003,-8.95431 -60.000003,-20 0,-11.0457 26.862913,-20 60.000003,-20 33.13708,0 60,8.9543 60,20 z"
       sodipodi:ry="20"
       sodipodi:rx="60"
       sodipodi:cy="232.66591"
       sodipodi:cx="152.85715"
       id="path3786-3"
       style="fill:#ca7740;fill-opacity:1;stroke:#000000;stroke-width:14.03776360000000167;stroke-miterlimit:4;stroke-dasharray:none"
       sodipodi:type="arc" />
    <rect
       ry="1.0599095"
       rx="9.061038"
       y="592.8158"
       x="91.662422"
       height="19.58309"
       width="21.74649"
       id="rect3773-6-6"
       style="fill:#ca7740;fill-opacity:1;stroke:#000000;stroke-width:1.58851253999999997;stroke-miterlimit:4;stroke-dasharray:none" />
    <path
       transform="matrix(0.18122076,0,0,0.07066063,74.834781,577.4859)"
       d="m 212.85715,232.66591 c 0,11.04569 -26.86292,20 -60,20 -33.13709,0 -60.000003,-8.95431 -60.000003,-20 0,-11.0457 26.862913,-20 60.000003,-20 33.13708,0 60,8.9543 60,20 z"
       sodipodi:ry="20"
       sodipodi:rx="60"
       sodipodi:cy="232.66591"
       sodipodi:cx="152.85715"
       id="path3786-3-3"
       style="fill:#ca7740;fill-opacity:1;stroke:#000000;stroke-width:14.03776360000000167;stroke-miterlimit:4;stroke-dasharray:none"
       sodipodi:type="arc" />
  </g>
  <g
     inkscape:label="Layer 1 copy"
     inkscape:groupmode="layer"
     id="g3873"
     transform="translate(-14.599929,-508.91791)">
    <rect
       style="fill:#ffcccc;fill-opacity:1;stroke:#000000;stroke-width:1.58899999;stroke-miterlimit:4;stroke-dasharray:none"
       id="rect3879"
       width="95.310753"
       height="220.12245"
       x="75.304024"
       y="601.39227"
       rx="39.712814"
       ry="11.913844" />
    <text
       xml:space="preserve"
       style="font-style:normal;font-weight:normal;line-height:0%;font-family:sans-serif;text-align:center;letter-spacing:0px;word-spacing:0px;text-anchor:middle;fill:#000000;fill-opacity:1;stroke:none"
       x="97.08934"
       y="654.49396"
       id="text3881"><tspan
         style="font-style:normal;font-variant:normal;font-weight:normal;font-stretch:normal;font-size:31.7703px;line-height:1.25;font-family:Inconsolata;-inkscape-font-specification:Inconsolata"
         sodipodi:role="line"
         id="tspan3883"
         x="97.08934"
         y="654.49396">+</tspan></text>
    <text
       xml:space="preserve"
       style="font-style:normal;font-weight:normal;line-height:0%;font-family:sans-serif;text-align:center;letter-spacing:0px;word-spacing:0px;text-anchor:middle;fill:#000000;fill-opacity:1;stroke:none"
       x="155.41045"
       y="655.5708"
       id="text3885"><tspan
         style="font-style:normal;font-variant:normal;font-weight:normal;font-stretch:normal;font-size:31.7703px;line-height:1.25;font-family:Inconsolata;-inkscape-font-specification:Inconsolata"
         sodipodi:role="line"
         id="tspan3887"
         x="155.41045"
         y="655.5708">-</tspan></text>
    <path
       sodipodi:type="arc"
       style="fill:#ffcccc;fill-opacity:1;stroke:#000000;stroke-width:2;stroke-miterlimit:4;stroke-dasharray:none"
       id="path3889"
       sodipodi:cx="152.85715"
       sodipodi:cy="232.66591"
       sodipodi:rx="60"
       sodipodi:ry="20"
       d="m 212.85715,232.66591 c 0,11.04569 -26.86292,20 -60,20 -33.13709,0 -60.000003,-8.95431 -60.000003,-20 0,-11.0457 26.862913,-20 60.000003,-20 33.13708,0 60,8.9543 60,20 z"
       transform="matrix(0.79425629,0,0,0.79425629,1.5516509,429.07707)" />
    <rect
       style="fill:#ffcccc;fill-opacity:1;stroke:#000000;stroke-width:1.58851254;stroke-miterlimit:4;stroke-dasharray:none"
       id="rect3891"
       width="21.74649"
       height="19.58309"
       x="135.91383"
       y="592.81561"
       rx="9.061038"
       ry="1.0599095" />
    <path
       sodipodi:type="arc"
       style="fill:#ffcccc;fill-opacity:1;stroke:#000000;stroke-width:14.0377636;stroke-miterlimit:4;stroke-dasharray:none"
       id="path3893"
       sodipodi:cx="152.85715"
       sodipodi:cy="232.66591"
       sodipodi:rx="60"
       sodipodi:ry="20"
       d="m 212.85715,232.66591 c 0,11.04569 -26.86292,20 -60,20 -33.13709,0 -60.000003,-8.95431 -60.000003,-20 0,-11.0457 26.862913,-20 60.000003,-20 33.13708,0 60,8.9543 60,20 z"
       transform="matrix(0.18122076,0,0,0.07066063,119.08621,577.48575)" />
    <rect
       style="fill:#ffcccc;fill-opacity:1;stroke:#000000;stroke-width:1.58851254;stroke-miterlimit:4;stroke-dasharray:none"
       id="rect3895"
       width="21.74649"
       height="19.58309"
       x="91.662422"
       y="592.8158"
       rx="9.061038"
       ry="1.0599095" />
    <path
       sodipodi:type="arc"
       style="fill:#ffcccc;fill-opacity:1;stroke:#000000;stroke-width:14.0377636;stroke-miterlimit:4;stroke-dasharray:none"
       id="path3897"
       sodipodi:cx="152.85715"
       sodipodi:cy="232.66591"
       sodipodi:rx="60"
       sodipodi:ry="20"
       d="m 212.85715,232.66591 c 0,11.04569 -26.86292,20 -60,20 -33.13709,0 -60.000003,-8.95431 -60.000003,-20 0,-11.0457 26.862913,-20 60.000003,-20 33.13708,0 60,8.9543 60,20 z"
       transform="matrix(0.18122076,0,0,0.07066063,74.834781,577.4859)" />
    <path
       sodipodi:nodetypes="cccccc"
       inkscape:connector-curvature="0"
       id="path3957"
       d="m 147.468,591.83145 0,-78.94204 100.98389,0 0,157.71661 28.3663,0 52.54274,-30.33556"
       style="fill:none;stroke:#555555;stroke-width:7.94256306;stroke-linecap:butt;stroke-linejoin:round;stroke-miterlimit:4;stroke-opacity:1;stroke-dasharray:none" />
    <path
       transform="matrix(0.79395577,0.02184695,-0.02184695,0.79395577,11.607472,340.91147)"
       d="m 352.85713,404.80878 c 0,1.97244 -1.59898,3.57143 -3.57142,3.57143 -1.97245,0 -3.57143,-1.59899 -3.57143,-3.57143 0,-1.97245 1.59898,-3.57143 3.57143,-3.57143 1.97244,0 3.57142,1.59898 3.57142,3.57143 z"
       sodipodi:ry="3.5714285"
       sodipodi:rx="3.5714285"
       sodipodi:cy="404.80878"
       sodipodi:cx="349.28571"
       id="path3971"
       style="fill:#000000;fill-opacity:1;stroke:#555555;stroke-width:10;stroke-miterlimit:4;stroke-dasharray:none;stroke-opacity:1"
       sodipodi:type="arc" />
    <path
       transform="matrix(0.79395577,0.02184695,-0.02184695,0.79395577,79.093709,342.76879)"
       d="m 352.85713,404.80878 c 0,1.97244 -1.59898,3.57143 -3.57142,3.57143 -1.97245,0 -3.57143,-1.59899 -3.57143,-3.57143 0,-1.97245 1.59898,-3.57143 3.57143,-3.57143 1.97244,0 3.57142,1.59898 3.57142,3.57143 z"
       sodipodi:ry="3.5714285"
       sodipodi:rx="3.5714285"
       sodipodi:cy="404.80878"
       sodipodi:cx="349.28571"
       id="path3971-6"
       style="fill:#000000;fill-opacity:1;stroke:#555555;stroke-width:10;stroke-miterlimit:4;stroke-dasharray:none;stroke-opacity:1"
       sodipodi:type="arc" />
    <path
       inkscape:connector-curvature="0"
       id="path3991"
       d="m 352.08856,672.49148 43.10047,1.18598"
       style="fill:none;stroke:#555555;stroke-width:7.94256306;stroke-linecap:butt;stroke-linejoin:miter;stroke-miterlimit:4;stroke-opacity:1;stroke-dasharray:none" />
    <path
       sodipodi:nodetypes="ccccc"
       inkscape:connector-curvature="0"
       id="path3993"
       d="m 101.40101,591.9468 0,-79.05739 -82.829581,0 3.030458,338.13677 392.423063,0"
       style="fill:none;stroke:#555555;stroke-width:7.94299984;stroke-linecap:butt;stroke-linejoin:round;stroke-miterlimit:4;stroke-opacity:1;stroke-dasharray:none" />
    <g
       transform="matrix(1.0431619,0,0,1.0431619,-61.76899,61.839754)"
       id="g3857">
      <ellipse
         style="fill:none;stroke:#ff6600;stroke-width:30;stroke-miterlimit:4;stroke-dasharray:none"
         id="path3769"
         transform="matrix(0.67890693,0,0,0.69190034,208.29267,480.12933)"
         cx="450.71429"
         cy="263.38019"
         rx="152.14285"
         ry="149.28572" />
    </g>
    <g
       style="stroke:#000000"
       transform="matrix(1.0222987,0,0,1.0222987,-51.039324,75.658773)"
       id="g3929">
      <ellipse
         style="fill:none;stroke:#000000;stroke-width:30;stroke-miterlimit:4;stroke-dasharray:none"
         id="path3931"
         transform="matrix(0.67890693,0,0,0.69190034,208.29267,480.12933)"
         cx="450.71429"
         cy="263.38019"
         rx="152.14285"
         ry="149.28572" />
    </g>
    <g
       style="stroke:#000000"
       transform="matrix(1.0640251,0,0,1.0640251,-72.498656,48.020735)"
       id="g3904">
      <ellipse
         style="fill:none;stroke:#000000;stroke-width:30;stroke-miterlimit:4;stroke-dasharray:none"
         id="path3906"
         transform="matrix(0.67890693,0,0,0.69190034,208.29267,480.12933)"
         cx="450.71429"
         cy="263.38019"
         rx="152.14285"
         ry="149.28572" />
    </g>
    <circle
       r="107.74907"
       cy="752.79071"
       cx="474.71429"
       style="fill:none;stroke:#000000;stroke-width:21.4486;stroke-miterlimit:4;stroke-dasharray:none;stroke-opacity:1"
       id="path3877" />
    <path
       sodipodi:nodetypes="cscscsssscc"
       inkscape:connector-curvature="0"
       id="path3995"
       d="m 372.15572,675.89119 c 11.03277,0.88515 19.74874,-0.35514 25.72997,1.01806 5.88025,1.34994 10.95533,3.02835 12.30264,4.01951 0.30163,2.29914 -3.07861,4.41614 -4.70162,6.56798 -1.50876,2.00036 -5.79083,5.20783 -2.3758,4.14543 3.9466,-1.2663 10.62854,-3.72327 12.72261,-6.69191 1.04702,-1.48431 1.67082,-3.71414 1.1446,-5.71657 -0.52622,-2.00243 -1.8377,-3.47512 -3.36213,-4.63952 -3.04887,-2.3288 -7.19091,-3.31632 -13.72576,-4.81653 -6.53486,-1.50023 -15.91797,-0.8543 -27.34181,-0.62429 -3.47102,1.74668 2.8444,5.99128 -0.3927,6.73784 z"
       style="font-size:medium;font-style:normal;font-variant:normal;font-weight:normal;font-stretch:normal;text-indent:0;text-align:start;text-decoration:none;line-height:normal;letter-spacing:normal;word-spacing:normal;text-transform:none;direction:ltr;block-progression:tb;writing-mode:lr-tb;text-anchor:start;baseline-shift:baseline;color:#000000;fill:#555555;fill-opacity:1;stroke:none;stroke-width:7.94299984;marker:none;visibility:visible;display:inline;overflow:visible;enable-background:accumulate;font-family:Sans;-inkscape-font-specification:Sans" />
    <path
       sodipodi:nodetypes="csscsscsccscssssccc"
       inkscape:connector-curvature="0"
       id="path4213"
       d="m 383.7575,725.00144 c 3.69696,-1.21901 9.4514,-3.56349 11.69114,-5.22848 1.11989,-0.8325 2.15601,-1.83978 2.82606,-3.38119 0.67005,-1.54142 0.57853,-3.69186 -0.21797,-5.18376 -1.59313,-2.98385 -4.16959,-4.04708 -7.59841,-5.31946 -3.42882,-1.27238 -8.0064,-2.26326 -13.90138,-3.54293 -5.81774,-1.2629 -9.32741,-2.77367 -11.6907,-4.17127 -0.40506,-0.77103 1.95199,-0.26824 2.81882,-1.41621 1.58378,-2.09744 4.1218,-7.12756 5.20808,-9.04978 -1.58447,-0.55909 -7.73322,0.56814 -10.42876,1.12681 -2.67741,0.77132 -5.78084,2.10659 -7.70492,3.75455 -2.05485,1.75997 -2.4526,4.88449 -2.406,6.77247 0.0462,1.888 1.10714,3.28513 2.06853,4.13913 1.92274,1.70801 4.1836,2.51983 7.49321,3.54023 3.30962,1.02037 7.62308,2.03654 13.17162,3.09152 5.67024,1.07815 9.88536,2.18712 12.6115,3.19875 0.77787,0.28863 1.55621,0.46715 1.7028,1.10249 -0.57969,0.37067 0.51515,0.15532 -2.49228,1.55115 1.52643,-3.04605 -2.48683,5.38985 -3.15134,9.01598 z"
       style="font-size:medium;font-style:normal;font-variant:normal;font-weight:normal;font-stretch:normal;text-indent:0;text-align:start;text-decoration:none;line-height:normal;letter-spacing:normal;word-spacing:normal;text-transform:none;direction:ltr;block-progression:tb;writing-mode:lr-tb;text-anchor:start;baseline-shift:baseline;color:#000000;fill:#555555;fill-opacity:1;stroke:none;stroke-width:7.94299984;marker:none;visibility:visible;display:inline;overflow:visible;enable-background:accumulate;font-family:Sans;-inkscape-font-specification:Sans" />
    <path
       sodipodi:nodetypes="csscsscsccscsssscccc"
       inkscape:connector-curvature="0"
       id="path4213-0"
       d="m 380.27089,755.51355 c 3.09766,-1.79386 6.65857,-4.41026 8.60363,-6.4116 0.97254,-1.00069 1.83446,-2.16053 2.24971,-3.78918 0.41524,-1.62865 -0.0186,-3.73685 -1.04316,-5.08239 -2.04925,-2.69108 -4.76245,-3.32916 -8.35048,-4.03753 -3.58803,-0.70837 -8.2651,-0.95537 -14.2888,-1.27705 -5.94478,-0.31745 -10.27569,-1.06966 -12.83187,-2.07184 -0.52302,-0.69644 0.949,-0.98419 1.23569,-1.89722 0.54957,-1.75025 2.03651,-8.86964 2.077,-9.58684 -1.65342,-0.29882 -3.97871,1.48787 -6.55041,2.46984 -2.51984,1.18908 -5.37015,3.00287 -7.00632,4.93701 -1.74736,2.06559 -1.64092,5.21351 -1.29337,7.06983 0.34721,1.85636 1.61765,3.0661 2.70308,3.75557 2.17088,1.37899 4.53238,1.81929 7.96249,2.29794 3.43011,0.47865 7.85049,0.79281 13.4963,0.948 5.76966,0.15864 10.1078,0.58009 12.96053,1.14332 0.81397,0.16068 1.17971,0.34306 1.72141,0.53727 -1.08724,0.82272 -0.0752,0.38674 -2.2598,1.52108 0.23113,-0.094 -0.2424,7.42256 0.047,9.83093 z"
       style="font-size:medium;font-style:normal;font-variant:normal;font-weight:normal;font-stretch:normal;text-indent:0;text-align:start;text-decoration:none;line-height:normal;letter-spacing:normal;word-spacing:normal;text-transform:none;direction:ltr;block-progression:tb;writing-mode:lr-tb;text-anchor:start;baseline-shift:baseline;color:#000000;fill:#555555;fill-opacity:1;stroke:none;stroke-width:7.94299984;marker:none;visibility:visible;display:inline;overflow:visible;enable-background:accumulate;font-family:Sans;-inkscape-font-specification:Sans" />
    <path
       sodipodi:nodetypes="cscsscsccscsssscccc"
       inkscape:connector-curvature="0"
       id="path4213-0-5"
       d="m 393.73639,782.22747 c 1.04756,-1.0813 1.95063,-2.31158 2.28644,-3.97028 0.33585,-1.65868 -0.36834,-3.7216 -1.69457,-4.97344 -2.65247,-2.50367 -5.89306,-2.9043 -10.16597,-3.29918 -4.27288,-0.39482 -9.77996,-0.23566 -16.87294,-0.0342 -7.00006,0.19888 -11.43181,-0.40741 -14.52205,-1.18439 -0.67787,-0.64857 1.85528,-1.16088 1.86948,-2.19315 0.0253,-1.83647 -0.73161,-6.7829 -0.58746,-8.75926 -2.40837,0.41374 -3.70645,1.28252 -6.63084,2.48377 -2.84436,1.40308 -6.0183,3.45726 -7.75742,5.52609 -1.85727,2.20948 -1.4405,5.3367 -0.86081,7.1561 0.57935,1.8195 2.1812,2.91473 3.51789,3.50766 2.6734,1.18582 5.48325,1.41986 9.54965,1.59952 4.06642,0.17968 9.27874,0.10963 15.91319,-0.22498 6.77998,-0.34228 11.90582,-0.298 15.30306,0.016 0.96934,0.0895 1.41511,0.23961 2.06829,0.38614 -0.25151,0.59829 0.78535,0.3279 -1.67092,1.64739 1.84626,6.02848 2.80682,7.49101 2.96474,8.47572 -3.42655,2.8464 6.50933,-5.36322 7.29024,-6.15951 z"
       style="font-size:medium;font-style:normal;font-variant:normal;font-weight:normal;font-stretch:normal;text-indent:0;text-align:start;text-decoration:none;line-height:normal;letter-spacing:normal;word-spacing:normal;text-transform:none;direction:ltr;block-progression:tb;writing-mode:lr-tb;text-anchor:start;baseline-shift:baseline;color:#000000;fill:#555555;fill-opacity:1;stroke:none;stroke-width:7.94299984;marker:none;visibility:visible;display:inline;overflow:visible;enable-background:accumulate;font-family:Sans;-inkscape-font-specification:Sans" />
    <path
       sodipodi:nodetypes="csscsscsccscsssscccc"
       inkscape:connector-curvature="0"
       id="path4213-0-5-4"
       d="m 405.24438,818.37696 c 4.4571,-2.65136 4.17829,-2.81139 6.24858,-5.20345 1.03516,-1.19603 1.89038,-2.52325 2.05873,-4.20988 0.16839,-1.68663 -0.87519,-3.65366 -2.51234,-4.74259 -3.27435,-2.17786 -6.94341,-2.19833 -11.76467,-2.09284 -4.82123,0.10559 -10.95178,0.90508 -18.8482,1.93141 -7.79299,1.0129 -12.81799,0.92694 -16.36603,0.51515 -0.8379,-0.56524 0.84674,-1.53044 0.55081,-2.12384 -0.63488,-1.27305 -2.84007,-6.29298 -3.26676,-7.98702 -0.21079,-0.60396 -1.19683,0.78844 -4.31312,2.32224 -3.00174,1.72496 -6.29046,4.13502 -7.97489,6.39249 -1.79888,2.41093 -0.94368,5.46855 -0.0695,7.2082 0.87376,1.73978 2.79923,2.64105 4.36595,3.07426 3.13349,0.86645 6.30073,0.77163 10.86451,0.47644 4.56385,-0.2952 10.3763,-0.97189 17.74407,-2.07703 7.52938,-1.12935 13.25945,-1.68274 17.09268,-1.76655 1.09371,-0.0247 1.61026,0.0732 2.35799,0.14257 -0.40385,0.41606 1.16092,-0.11341 -1.41738,1.4833 5.04641,5.78835 0.23742,0.50435 5.56526,6.46779 z"
       style="font-size:medium;font-style:normal;font-variant:normal;font-weight:normal;font-stretch:normal;text-indent:0;text-align:start;text-decoration:none;line-height:normal;letter-spacing:normal;word-spacing:normal;text-transform:none;direction:ltr;block-progression:tb;writing-mode:lr-tb;text-anchor:start;baseline-shift:baseline;color:#000000;fill:#555555;fill-opacity:1;stroke:none;stroke-width:7.94299984;marker:none;visibility:visible;display:inline;overflow:visible;enable-background:accumulate;font-family:Sans;-inkscape-font-specification:Sans" />
    <path
       sodipodi:nodetypes="cscsscsccscssssccccc"
       inkscape:connector-curvature="0"
       id="path4213-0-5-4-6"
       d="m 430.38067,833.37251 c 0.79057,-1.3521 1.38822,-2.80347 1.27249,-4.49445 -0.11563,-1.691 -1.43216,-3.456 -3.17049,-4.25613 -3.47666,-1.60025 -6.97627,-1.00755 -11.55314,-0.0982 -4.57684,0.90938 -10.28773,2.72168 -17.64415,5.05252 -7.26007,2.30034 -12.06247,3.05491 -15.51078,3.24158 -1.6486,-0.41732 -0.81395,-0.63559 -1.14341,-1.76015 -0.42775,-1.46003 -4.81458,-5.58661 -4.74887,-6.27725 -0.29976,-0.56026 0.6375,-0.50012 -2.08088,1.53261 -2.57794,2.20206 -5.31715,5.12748 -6.55262,7.63453 -1.31942,2.67745 -0.004,5.54912 1.11391,7.11826 1.11747,1.56931 3.09979,2.13626 4.66364,2.30167 3.12775,0.33084 6.13028,-0.29174 10.43075,-1.34503 4.30054,-1.05337 9.72842,-2.69143 16.56817,-5.01168 6.98983,-2.37111 12.35937,-3.87385 15.99831,-4.59677 1.03824,-0.20657 3.9033,-1.09048 5.57825,-1.31479 1.23821,0.31774 0.5104,1.25165 -0.0853,1.80114 2.29523,1.78609 4.20967,2.45949 5.10667,3.14095 0.70832,-0.81075 1.19783,-1.70444 1.75743,-2.66881 z"
       style="font-size:medium;font-style:normal;font-variant:normal;font-weight:normal;font-stretch:normal;text-indent:0;text-align:start;text-decoration:none;line-height:normal;letter-spacing:normal;word-spacing:normal;text-transform:none;direction:ltr;block-progression:tb;writing-mode:lr-tb;text-anchor:start;baseline-shift:baseline;color:#000000;fill:#555555;fill-opacity:1;stroke:none;stroke-width:7.94299984;marker:none;visibility:visible;display:inline;overflow:visible;enable-background:accumulate;font-family:Sans;-inkscape-font-specification:Sans" />
    <path
       sodipodi:nodetypes="cscscsssscc"
       inkscape:connector-curvature="0"
       id="path3995-9"
       d="m 574.35466,676.2926 c -8.26491,0.17087 -16.89159,-0.57835 -22.64961,0.79485 -5.86863,1.39958 -11.17854,2.84978 -12.52585,3.84094 -0.30163,2.29914 3.07861,4.41614 4.70162,6.56798 1.50876,2.00036 5.79083,5.20783 2.3758,4.14543 -3.9466,-1.2663 -10.62854,-3.72327 -12.72261,-6.69191 -1.04702,-1.48431 -1.67082,-3.71414 -1.1446,-5.71657 0.52622,-2.00243 1.8377,-3.47512 3.36213,-4.63952 3.04887,-2.3288 7.19091,-3.31632 13.72576,-4.81653 6.53486,-1.50023 14.31083,-1.56859 25.73467,-1.33858 3.47102,1.74668 -1.41584,3.71449 -0.85731,7.85391 z"
       style="font-size:medium;font-style:normal;font-variant:normal;font-weight:normal;font-stretch:normal;text-indent:0;text-align:start;text-decoration:none;line-height:normal;letter-spacing:normal;word-spacing:normal;text-transform:none;direction:ltr;block-progression:tb;writing-mode:lr-tb;text-anchor:start;baseline-shift:baseline;color:#000000;fill:#555555;fill-opacity:1;stroke:none;stroke-width:7.94299984;marker:none;visibility:visible;display:inline;overflow:visible;enable-background:accumulate;font-family:Sans;-inkscape-font-specification:Sans" />
    <path
       sodipodi:nodetypes="csscsscsccscssssccc"
       inkscape:connector-curvature="0"
       id="path4213-4"
       d="m 565.61003,725.00107 c -3.69696,-1.21901 -9.4514,-3.56349 -11.69114,-5.22848 -1.11989,-0.8325 -2.15601,-1.83978 -2.82606,-3.38119 -0.67005,-1.54142 -0.57853,-3.69186 0.21797,-5.18376 1.59313,-2.98385 4.16959,-4.04708 7.59841,-5.31946 3.42882,-1.27238 8.0064,-2.26326 13.90138,-3.54293 5.81774,-1.2629 9.32741,-2.77367 11.6907,-4.17127 0.40506,-0.77103 -1.95199,-0.26824 -2.81882,-1.41621 -1.58378,-2.09744 -4.1218,-7.12756 -5.20808,-9.04978 1.58447,-0.55909 7.73322,0.56814 10.42876,1.12681 2.67741,0.77132 5.78084,2.10659 7.70492,3.75455 2.05485,1.75997 2.4526,4.88449 2.406,6.77247 -0.0462,1.888 -1.10714,3.28513 -2.06853,4.13913 -1.92274,1.70801 -4.1836,2.51983 -7.49321,3.54023 -3.30962,1.02037 -7.62308,2.03654 -13.17162,3.09152 -5.67024,1.07815 -9.88536,2.18712 -12.6115,3.19875 -0.77787,0.28863 -1.55621,0.46715 -1.7028,1.10249 0.57969,0.37067 -0.51515,0.15532 2.49228,1.55115 -1.52643,-3.04605 2.48683,5.38985 3.15134,9.01598 z"
       style="font-size:medium;font-style:normal;font-variant:normal;font-weight:normal;font-stretch:normal;text-indent:0;text-align:start;text-decoration:none;line-height:normal;letter-spacing:normal;word-spacing:normal;text-transform:none;direction:ltr;block-progression:tb;writing-mode:lr-tb;text-anchor:start;baseline-shift:baseline;color:#000000;fill:#555555;fill-opacity:1;stroke:none;stroke-width:7.94299984;marker:none;visibility:visible;display:inline;overflow:visible;enable-background:accumulate;font-family:Sans;-inkscape-font-specification:Sans" />
    <path
       sodipodi:nodetypes="csscsscsccscsssscccc"
       inkscape:connector-curvature="0"
       id="path4213-0-9"
       d="m 569.09664,755.51318 c -3.09766,-1.79386 -6.65857,-4.41026 -8.60363,-6.4116 -0.97254,-1.00069 -1.83446,-2.16053 -2.24971,-3.78918 -0.41524,-1.62865 0.0186,-3.73685 1.04316,-5.08239 2.04925,-2.69108 4.76245,-3.32916 8.35048,-4.03753 3.58803,-0.70837 8.2651,-0.95537 14.2888,-1.27705 5.94478,-0.31745 10.27569,-1.06966 12.83187,-2.07184 0.52302,-0.69644 -0.949,-0.98419 -1.23569,-1.89722 -0.54957,-1.75025 -2.03651,-8.86964 -2.077,-9.58684 1.65342,-0.29882 3.97871,1.48787 6.55041,2.46984 2.51984,1.18908 5.37015,3.00287 7.00632,4.93701 1.74736,2.06559 1.64092,5.21351 1.29337,7.06983 -0.34721,1.85636 -1.61765,3.0661 -2.70308,3.75557 -2.17088,1.37899 -4.53238,1.81929 -7.96249,2.29794 -3.43011,0.47865 -7.85049,0.79281 -13.4963,0.948 -5.76966,0.15864 -10.1078,0.58009 -12.96053,1.14332 -0.81397,0.16068 -1.17971,0.34306 -1.72141,0.53727 1.08724,0.82272 0.0752,0.38674 2.2598,1.52108 -0.23113,-0.094 0.2424,7.42256 -0.047,9.83093 z"
       style="font-size:medium;font-style:normal;font-variant:normal;font-weight:normal;font-stretch:normal;text-indent:0;text-align:start;text-decoration:none;line-height:normal;letter-spacing:normal;word-spacing:normal;text-transform:none;direction:ltr;block-progression:tb;writing-mode:lr-tb;text-anchor:start;baseline-shift:baseline;color:#000000;fill:#555555;fill-opacity:1;stroke:none;stroke-width:7.94299984;marker:none;visibility:visible;display:inline;overflow:visible;enable-background:accumulate;font-family:Sans;-inkscape-font-specification:Sans" />
    <path
       sodipodi:nodetypes="cscsscsccscsssscccc"
       inkscape:connector-curvature="0"
       id="path4213-0-5-7"
       d="m 555.63114,782.2271 c -1.04756,-1.0813 -1.95063,-2.31158 -2.28644,-3.97028 -0.33585,-1.65868 0.36834,-3.7216 1.69457,-4.97344 2.65247,-2.50367 5.89306,-2.9043 10.16597,-3.29918 4.27288,-0.39482 9.77996,-0.23566 16.87294,-0.0342 7.00006,0.19888 11.43181,-0.40741 14.52205,-1.18439 0.67787,-0.64857 -1.85528,-1.16088 -1.86948,-2.19315 -0.0253,-1.83647 0.73161,-6.7829 0.58746,-8.75926 2.40837,0.41374 3.70645,1.28252 6.63084,2.48377 2.84436,1.40308 6.0183,3.45726 7.75742,5.52609 1.85727,2.20948 1.4405,5.3367 0.86081,7.1561 -0.57935,1.8195 -2.1812,2.91473 -3.51789,3.50766 -2.6734,1.18582 -5.48325,1.41986 -9.54965,1.59952 -4.06642,0.17968 -9.27874,0.10963 -15.91319,-0.22498 -6.77998,-0.34228 -11.90582,-0.298 -15.30306,0.016 -0.96934,0.0895 -1.41511,0.23961 -2.06829,0.38614 0.25151,0.59829 -0.78535,0.3279 1.67092,1.64739 -1.84626,6.02848 -2.80682,7.49101 -2.96474,8.47572 3.42655,2.8464 -6.50933,-5.36322 -7.29024,-6.15951 z"
       style="font-size:medium;font-style:normal;font-variant:normal;font-weight:normal;font-stretch:normal;text-indent:0;text-align:start;text-decoration:none;line-height:normal;letter-spacing:normal;word-spacing:normal;text-transform:none;direction:ltr;block-progression:tb;writing-mode:lr-tb;text-anchor:start;baseline-shift:baseline;color:#000000;fill:#555555;fill-opacity:1;stroke:none;stroke-width:7.94299984;marker:none;visibility:visible;display:inline;overflow:visible;enable-background:accumulate;font-family:Sans;-inkscape-font-specification:Sans" />
    <path
       sodipodi:nodetypes="csscsscsccscsssscccc"
       inkscape:connector-curvature="0"
       id="path4213-0-5-4-62"
       d="m 544.12315,818.37659 c -4.4571,-2.65136 -4.17829,-2.81139 -6.24858,-5.20345 -1.03516,-1.19603 -1.89038,-2.52325 -2.05873,-4.20988 -0.16839,-1.68663 0.87519,-3.65366 2.51234,-4.74259 3.27435,-2.17786 6.94341,-2.19833 11.76467,-2.09284 4.82123,0.10559 10.95178,0.90508 18.8482,1.93141 7.79299,1.0129 12.81799,0.92694 16.36603,0.51515 0.8379,-0.56524 -0.84674,-1.53044 -0.55081,-2.12384 0.63488,-1.27305 2.84007,-6.29298 3.26676,-7.98702 0.21079,-0.60396 1.19683,0.78844 4.31312,2.32224 3.00174,1.72496 6.29046,4.13502 7.97489,6.39249 1.79888,2.41093 0.94368,5.46855 0.0695,7.2082 -0.87376,1.73978 -2.79923,2.64105 -4.36595,3.07426 -3.13349,0.86645 -6.30073,0.77163 -10.86451,0.47644 -4.56385,-0.2952 -10.3763,-0.97189 -17.74407,-2.07703 -7.52938,-1.12935 -13.25945,-1.68274 -17.09268,-1.76655 -1.09371,-0.0247 -1.61026,0.0732 -2.35799,0.14257 0.40385,0.41606 -1.16092,-0.11341 1.41738,1.4833 -5.04641,5.78835 -0.23742,0.50435 -5.56526,6.46779 z"
       style="font-size:medium;font-style:normal;font-variant:normal;font-weight:normal;font-stretch:normal;text-indent:0;text-align:start;text-decoration:none;line-height:normal;letter-spacing:normal;word-spacing:normal;text-transform:none;direction:ltr;block-progression:tb;writing-mode:lr-tb;text-anchor:start;baseline-shift:baseline;color:#000000;fill:#555555;fill-opacity:1;stroke:none;stroke-width:7.94299984;marker:none;visibility:visible;display:inline;overflow:visible;enable-background:accumulate;font-family:Sans;-inkscape-font-specification:Sans" />
    <path
       sodipodi:nodetypes="cscsscsccscssssccccc"
       inkscape:connector-curvature="0"
       id="path4213-0-5-4-6-2"
       d="m 518.98686,833.37214 c -0.79057,-1.3521 -1.38822,-2.80347 -1.27249,-4.49445 0.11563,-1.691 1.43216,-3.456 3.17049,-4.25613 3.47666,-1.60025 6.97627,-1.00755 11.55314,-0.0982 4.57684,0.90938 10.28773,2.72168 17.64415,5.05252 7.26007,2.30034 12.06247,3.05491 15.51078,3.24158 1.6486,-0.41732 0.81395,-0.63559 1.14341,-1.76015 0.42775,-1.46003 4.81458,-5.58661 4.74887,-6.27725 0.29976,-0.56026 -0.6375,-0.50012 2.08088,1.53261 2.57794,2.20206 5.31715,5.12748 6.55262,7.63453 1.31942,2.67745 0.004,5.54912 -1.11391,7.11826 -1.11747,1.56931 -3.09979,2.13626 -4.66364,2.30167 -3.12775,0.33084 -6.13028,-0.29174 -10.43075,-1.34503 -4.30054,-1.05337 -9.72842,-2.69143 -16.56817,-5.01168 -6.98983,-2.37111 -12.35937,-3.87385 -15.99831,-4.59677 -1.03824,-0.20657 -3.9033,-1.09048 -5.57825,-1.31479 -1.23821,0.31774 -0.5104,1.25165 0.0853,1.80114 -2.29523,1.78609 -4.20967,2.45949 -5.10667,3.14095 -0.70832,-0.81075 -1.19783,-1.70444 -1.75743,-2.66881 z"
       style="font-size:medium;font-style:normal;font-variant:normal;font-weight:normal;font-stretch:normal;text-indent:0;text-align:start;text-decoration:none;line-height:normal;letter-spacing:normal;word-spacing:normal;text-transform:none;direction:ltr;block-progression:tb;writing-mode:lr-tb;text-anchor:start;baseline-shift:baseline;color:#000000;fill:#555555;fill-opacity:1;stroke:none;stroke-width:7.94299984;marker:none;visibility:visible;display:inline;overflow:visible;enable-background:accumulate;font-family:Sans;-inkscape-font-specification:Sans" />
    <rect
       y="572.90582"
       x="800.79767"
       height="187.73669"
       width="248.40469"
       id="rect4395"
       style="fill:#2a54a9;fill-opacity:1;stroke:#000000;stroke-width:1.59530556;stroke-linejoin:miter;stroke-miterlimit:4;stroke-dasharray:none" />
    <path
       sodipodi:nodetypes="ccccc"
       transform="translate(0,308.2677)"
       inkscape:connector-curvature="0"
       id="path4385"
       d="m 572.85714,364.09448 95.71429,0 0,142.85715 171.42857,0 0,-74.28615"
       style="fill:none;stroke:#555555;stroke-width:7.94299984;stroke-linecap:butt;stroke-linejoin:round;stroke-miterlimit:4;stroke-opacity:1;stroke-dasharray:none" />
    <path
       sodipodi:nodetypes="cccccccc"
       inkscape:connector-curvature="0"
       id="path4387"
       d="m 1008.156,740.93318 0,106.11577 -458.156,0 -11.25,7.9375 473.406,0 c 2.0776,-0.002 3.9674,-1.89115 3.969,-3.96875 l 0,-110.08452 z"
       style="font-size:medium;font-style:normal;font-variant:normal;font-weight:normal;font-stretch:normal;text-indent:0;text-align:start;text-decoration:none;line-height:normal;letter-spacing:normal;word-spacing:normal;text-transform:none;direction:ltr;block-progression:tb;writing-mode:lr-tb;text-anchor:start;baseline-shift:baseline;color:#000000;fill:#555555;fill-opacity:1;stroke:none;stroke-width:7.94299984;marker:none;visibility:visible;display:inline;overflow:visible;enable-background:accumulate;font-family:Sans;-inkscape-font-specification:Sans" />
    <path
       transform="translate(-4.0457968,307.25755)"
       d="m 857.11442,426.40152 c 0,7.53154 -6.10552,13.63706 -13.63706,13.63706 -7.53154,0 -13.63706,-6.10552 -13.63706,-13.63706 0,-7.53154 6.10552,-13.63706 13.63706,-13.63706 7.53154,0 13.63706,6.10552 13.63706,13.63706 z"
       sodipodi:ry="13.637059"
       sodipodi:rx="13.637059"
       sodipodi:cy="426.40152"
       sodipodi:cx="843.47736"
       id="path4475"
       style="fill:#ccddaa;fill-opacity:1;stroke:#000000;stroke-width:1.58899999;stroke-linejoin:miter;stroke-miterlimit:4;stroke-dasharray:none"
       sodipodi:type="arc" />
    <path
       d="m 857.11442,426.40152 c 0,7.53154 -6.10552,13.63706 -13.63706,13.63706 -7.53154,0 -13.63706,-6.10552 -13.63706,-13.63706 0,-7.53154 6.10552,-13.63706 13.63706,-13.63706 7.53154,0 13.63706,6.10552 13.63706,13.63706 z"
       sodipodi:ry="13.637059"
       sodipodi:rx="13.637059"
       sodipodi:cy="426.40152"
       sodipodi:cx="843.47736"
       id="path4475-4"
       style="fill:#ccddaa;fill-opacity:1;stroke:#000000;stroke-width:1.58899999;stroke-linejoin:miter;stroke-miterlimit:4;stroke-dasharray:none"
       sodipodi:type="arc"
       transform="translate(169.0227,307.2571)" />
    <path
       transform="translate(29.499705,353.78505)"
       d="m 905.09669,377.91418 c 0,5.29998 -4.29647,9.59645 -9.59645,9.59645 -5.29997,0 -9.59644,-4.29647 -9.59644,-9.59645 0,-5.29997 4.29647,-9.59644 9.59644,-9.59644 5.29998,0 9.59645,4.29647 9.59645,9.59644 z"
       sodipodi:ry="9.5964489"
       sodipodi:rx="9.5964489"
       sodipodi:cy="377.91418"
       sodipodi:cx="895.50024"
       id="path4495"
       style="fill:#ccddaa;fill-opacity:1;stroke:#000000;stroke-width:1.58899999;stroke-linejoin:miter;stroke-miterlimit:4;stroke-dasharray:none"
       sodipodi:type="arc" />
    <rect
       y="588.1004"
       x="815.81842"
       height="118.52364"
       width="218.3632"
       id="rect4497"
       style="fill:#f9f9f9;fill-opacity:1;stroke:#000000;stroke-width:1.63679338000000008;stroke-linejoin:miter;stroke-miterlimit:4;stroke-dasharray:none" />
    <path
       inkscape:connector-curvature="0"
       id="path4513"
       d="m 845.7145,627.50504 c 0,0 74.81622,-48.35599 158.571,0"
       style="fill:none;stroke:#000000;stroke-width:0.99999881px;stroke-linecap:butt;stroke-linejoin:miter;stroke-opacity:1" />
    <path
       d="m 853.57601,637.19447 4.06212,-1.87535 0.57061,1.23597 -4.06212,1.87535 -0.57061,-1.23597"
       style="font-style:normal;font-weight:normal;font-size:17px;line-height:125%;font-family:Sans;text-align:center;letter-spacing:0px;word-spacing:0px;text-anchor:middle;fill:#000000;fill-opacity:1;stroke:none"
       id="path3051" />
    <path
       d="m 862.0618,637.66422 2.54499,-1.0132 -3.49706,-8.78406 -2.54758,1.6575 -0.56493,-1.41902 2.53215,-1.65137 1.55784,-0.6202 4.062,10.2031 2.54498,-1.0132 0.52195,1.31106 -6.63239,2.64044 -0.52195,-1.31105"
       style="font-style:normal;font-weight:normal;font-size:17px;line-height:125%;font-family:Sans;text-align:center;letter-spacing:0px;word-spacing:0px;text-anchor:middle;fill:#000000;fill-opacity:1;stroke:none"
       id="path3053" />
    <path
       d="m 872.33923,623.34709 c -0.8211,0.26656 -1.30799,0.87261 -1.46067,1.81816 -0.14912,0.93859 0.0394,2.21846 0.56571,3.83959 0.52456,1.61589 1.12368,2.76248 1.79736,3.43978 0.67724,0.67032 1.42641,0.87221 2.24751,0.60566 0.82636,-0.26826 1.3141,-0.87168 1.46323,-1.81027 0.15268,-0.94555 -0.0333,-2.22627 -0.55781,-3.84216 -0.52627,-1.62113 -1.12802,-2.76687 -1.80526,-3.4372 -0.67368,-0.67729 -1.4237,-0.88181 -2.25007,-0.61356 m -0.41007,-1.26323 c 1.32112,-0.42886 2.49909,-0.23236 3.53389,0.58952 1.03835,0.81492 1.88046,2.21717 2.52634,4.20675 0.64415,1.98433 0.78623,3.61383 0.42622,4.88851 -0.35647,1.26771 -1.19527,2.116 -2.51639,2.54487 -1.32114,0.42887 -2.50088,0.23585 -3.53923,-0.57906 -1.0348,-0.82189 -1.87428,-2.22499 -2.51844,-4.20932 -0.64587,-1.98958 -0.79058,-3.61823 -0.43411,-4.88595 0.36002,-1.27466 1.20059,-2.12644 2.52172,-2.55532"
       style="font-style:normal;font-weight:normal;font-size:17px;line-height:125%;font-family:Sans;text-align:center;letter-spacing:0px;word-spacing:0px;text-anchor:middle;fill:#000000;fill-opacity:1;stroke:none"
       id="path3055" />
    <path
       d="m 923.51622,614.7423 c -0.8632,0.0126 -1.50714,0.44815 -1.93183,1.30665 -0.41924,0.85289 -0.61643,2.13146 -0.59155,3.8357 0.0248,1.69871 0.2592,2.97098 0.70323,3.8168 0.44948,0.84021 1.10581,1.25402 1.96901,1.24142 0.86871,-0.0127 1.51269,-0.44546 1.93194,-1.29835 0.42468,-0.8585 0.62464,-2.1371 0.59985,-3.83582 -0.0249,-1.70424 -0.26205,-2.97646 -0.71153,-3.81668 -0.44403,-0.84582 -1.10041,-1.26239 -1.96912,-1.24972 m -0.0194,-1.32799 c 1.38884,-0.0203 2.45649,0.51484 3.20296,1.60529 0.7519,1.08486 1.14312,2.67307 1.17365,4.76463 0.0304,2.08605 -0.31427,3.685 -1.03412,4.79685 -0.71441,1.10625 -1.76603,1.66951 -3.15487,1.68977 -1.38886,0.0203 -2.45924,-0.51202 -3.21115,-1.59686 -0.74646,-1.09046 -1.13491,-2.67871 -1.16535,-4.76476 -0.0305,-2.09156 0.31141,-3.69047 1.02582,-4.79673 0.71985,-1.11184 1.7742,-1.67791 3.16306,-1.69819"
       style="font-style:normal;font-weight:normal;font-size:17px;line-height:125%;font-family:Sans;text-align:center;letter-spacing:0px;word-spacing:0px;text-anchor:middle;fill:#000000;fill-opacity:1;stroke:none"
       id="path3057" />
    <path
       d="m 971.7635,621.94218 -1.28426,4.4416 4.44159,1.28425 -0.39196,1.35561 -4.44159,-1.28426 -1.28426,4.44159 -1.33966,-0.38735 1.28426,-4.44159 -4.44159,-1.28426 0.39196,-1.3556 4.44159,1.28425 1.28426,-4.44159 1.33966,0.38735"
       style="font-style:normal;font-weight:normal;font-size:17px;line-height:125%;font-family:Sans;text-align:center;letter-spacing:0px;word-spacing:0px;text-anchor:middle;fill:#000000;fill-opacity:1;stroke:none"
       id="path3059" />
    <path
       d="m 977.43033,633.46356 2.56178,0.96998 3.34787,-8.84201 -2.99853,-0.49628 0.54084,-1.42838 2.983,0.4904 1.56812,0.59374 -3.88871,10.27039 2.56177,0.96997 -0.49968,1.3197 -6.67614,-2.5278 0.49968,-1.31971"
       style="font-style:normal;font-weight:normal;font-size:17px;line-height:125%;font-family:Sans;text-align:center;letter-spacing:0px;word-spacing:0px;text-anchor:middle;fill:#000000;fill-opacity:1;stroke:none"
       id="path3061" />
    <path
       d="m 994.69415,629.85641 c -0.78504,-0.35913 -1.5536,-0.24215 -2.30567,0.35094 -0.74475,0.59037 -1.47166,1.66052 -2.18072,3.21045 -0.70677,1.5449 -1.04116,2.79462 -1.00317,3.74915 0.0453,0.95181 0.46049,1.60728 1.24552,1.96642 0.79006,0.36144 1.55746,0.24697 2.30222,-0.34339 0.75207,-0.5931 1.48149,-1.66209 2.18827,-3.207 0.70905,-1.54993 1.04093,-2.8008 0.99562,-3.75261 -0.038,-0.95453 -0.45202,-1.61251 -1.24207,-1.97396 m 0.55252,-1.20774 c 1.26308,0.57785 1.99769,1.51942 2.20383,2.82472 0.21345,1.30258 -0.11493,2.90496 -0.98513,4.80715 -0.86793,1.89716 -1.86559,3.19335 -2.993,3.88858 -1.1201,0.6925 -2.31169,0.74983 -3.57478,0.17199 -1.2631,-0.57784 -2.00137,-1.51805 -2.21483,-2.82062 -0.20613,-1.30531 0.12476,-2.90654 0.99268,-4.8037 0.87021,-1.90219 1.86536,-3.19953 2.98545,-3.89204 1.12742,-0.69522 2.32267,-0.75392 3.58578,-0.17608"
       style="font-style:normal;font-weight:normal;font-size:17px;line-height:125%;font-family:Sans;text-align:center;letter-spacing:0px;word-spacing:0px;text-anchor:middle;fill:#000000;fill-opacity:1;stroke:none"
       id="path3063" />
    <path
       inkscape:connector-curvature="0"
       id="path4522"
       d="m 924.28572,605.3585 0,-9.27836"
       style="fill:none;stroke:#000000;stroke-width:0.84949964px;stroke-linecap:butt;stroke-linejoin:miter;stroke-opacity:1" />
    <path
       sodipodi:nodetypes="cccc"
       inkscape:connector-curvature="0"
       id="path4524"
       d="m 920,706.36218 10,0 -5,-61.42857 z"
       style="fill:#b50000;stroke:#000000;stroke-width:1px;stroke-linecap:butt;stroke-linejoin:miter;stroke-opacity:1;fill-opacity:1" />
  </g>
</svg>
