<?xml version="1.0" encoding="UTF-8" standalone="no"?>
<svg
   enable-background="new 0 0 200 120"
   height="101.48758"
   viewBox="0 0 175.86389 101.48758"
   width="175.86389"
   version="1.1"
   id="svg252"
   sodipodi:docname="experimento-Faraday.svg"
   inkscape:version="1.3.2 (091e20e, 2023-11-25)"
   xmlns:inkscape="http://www.inkscape.org/namespaces/inkscape"
   xmlns:sodipodi="http://sodipodi.sourceforge.net/DTD/sodipodi-0.dtd"
   xmlns="http://www.w3.org/2000/svg"
   xmlns:svg="http://www.w3.org/2000/svg">
  <defs
     id="defs256" />
  <sodipodi:namedview
     id="namedview254"
     pagecolor="#ffffff"
     bordercolor="#666666"
     borderopacity="1.0"
     inkscape:showpageshadow="2"
     inkscape:pageopacity="0.0"
     inkscape:pagecheckerboard="0"
     inkscape:deskcolor="#d1d1d1"
     showgrid="false"
     inkscape:zoom="2.6860576"
     inkscape:cx="96.609991"
     inkscape:cy="58.077682"
     inkscape:window-width="1512"
     inkscape:window-height="945"
     inkscape:window-x="1920"
     inkscape:window-y="89"
     inkscape:window-maximized="0"
     inkscape:current-layer="svg252" />
  <path
     d="m 111.10109,9.8832772 -7.4096,3.2602998 h 14.2271 l 7.4096,-3.2602998 z"
     fill="#e43f32"
     id="path182" />
  <path
     d="m 125.32819,9.8832772 -7.4096,3.2602998 h 36.3086 l 7.4097,-3.2602998 z"
     fill="#e7e7e7"
     id="path184" />
  <path
     d="m 175.86389,9.8832772 h -14.227 l -7.4097,3.2602998 h 14.2271 z"
     fill="#2c9fd0"
     id="path186" />
  <path
     d="m 15.398888,3.4927772 c 8.3114,8.8160998 6.7353,37.9515998 -5.7133998,37.9515998"
     fill="none"
     stroke="#b36429"
     stroke-linecap="round"
     stroke-miterlimit="10"
     stroke-width="1.7784"
     id="path188" />
  <path
     d="m 15.398888,3.4927772 c -1.4816,-1.5716 -3.2775,-2.49749995 -5.3819,-2.49749995 -16.5259995,0 -5.5610998,82.26349975 -5.5610998,82.26349975 H 25.491188"
     fill="none"
     stroke="#eb9d62"
     stroke-linecap="round"
     stroke-miterlimit="10"
     stroke-width="1.7784"
     id="path190" />
  <path
     d="m 9.6854882,41.444377 c -10.8048,0 -4.0093,-40.44899975 12.5166998,-40.44899975 2.1045,0 3.9003,0.92589995 5.3819,2.49749995"
     fill="none"
     stroke="#eb9d62"
     stroke-linecap="round"
     stroke-miterlimit="10"
     stroke-width="1.7784"
     id="path192" />
  <path
     d="m 27.573688,3.4927772 c 8.3114,8.8160998 6.7353,37.9515998 -5.7134,37.9515998"
     fill="none"
     stroke="#b36429"
     stroke-linecap="round"
     stroke-miterlimit="10"
     stroke-width="1.7784"
     id="path194" />
  <path
     d="m 21.860388,41.444377 c -10.8048,0 -4.0093,-40.44899975 12.5167,-40.44899975 2.1045,0 3.9003,0.92589995 5.3819,2.49749995"
     fill="none"
     stroke="#eb9d62"
     stroke-linecap="round"
     stroke-miterlimit="10"
     stroke-width="1.7784"
     id="path196" />
  <path
     d="m 39.748588,3.4927772 c 8.3114,8.8160998 6.7353,37.9515998 -5.7134,37.9515998"
     fill="none"
     stroke="#b36429"
     stroke-linecap="round"
     stroke-miterlimit="10"
     stroke-width="1.7784"
     id="path198" />
  <path
     d="m 34.035288,41.444377 c -10.8049,0 -4.0093,-40.44899975 12.5167,-40.44899975 2.1045,0 3.9003,0.92589995 5.3819,2.49749995"
     fill="none"
     stroke="#eb9d62"
     stroke-linecap="round"
     stroke-miterlimit="10"
     stroke-width="1.7784"
     id="path200" />
  <path
     d="m 51.923488,3.4927772 c 8.3114,8.8160998 6.7353,37.9515998 -5.7134,37.9515998"
     fill="none"
     stroke="#b36429"
     stroke-linecap="round"
     stroke-miterlimit="10"
     stroke-width="1.7784"
     id="path202" />
  <path
     d="m 46.210188,41.444377 c -10.8049,0 -4.0093,-40.44899975 12.5167,-40.44899975 2.1045,0 3.9003,0.92589995 5.3819,2.49749995"
     fill="none"
     stroke="#eb9d62"
     stroke-linecap="round"
     stroke-miterlimit="10"
     stroke-width="1.7784"
     id="path204" />
  <path
     d="m 64.098388,3.4927772 c 8.3114,8.8160998 6.7353,37.9515998 -5.7134,37.9515998"
     fill="none"
     stroke="#b36429"
     stroke-linecap="round"
     stroke-miterlimit="10"
     stroke-width="1.7784"
     id="path206" />
  <path
     d="m 58.385088,41.444377 c -10.8049,0 -4.0093,-40.44899975 12.5167,-40.44899975 2.1045,0 3.9003,0.92589995 5.3819,2.49749995"
     fill="none"
     stroke="#eb9d62"
     stroke-linecap="round"
     stroke-miterlimit="10"
     stroke-width="1.7784"
     id="path208" />
  <path
     d="m 76.273288,3.4927772 c 8.3114,8.8160998 6.7353,37.9515998 -5.7134,37.9515998"
     fill="none"
     stroke="#b36429"
     stroke-linecap="round"
     stroke-miterlimit="10"
     stroke-width="1.7784"
     id="path210" />
  <path
     d="m 70.559888,41.444377 c -10.8049,0 -4.0093,-40.44899975 12.5167,-40.44899975 2.1045,0 3.9003,0.92589995 5.3819,2.49749995"
     fill="none"
     stroke="#eb9d62"
     stroke-linecap="round"
     stroke-miterlimit="10"
     stroke-width="1.7784"
     id="path212" />
  <path
     d="m 88.448188,3.4927772 c 8.3114,8.8160998 6.7353,37.9515998 -5.7134,37.9515998"
     fill="none"
     stroke="#b36429"
     stroke-linecap="round"
     stroke-miterlimit="10"
     stroke-width="1.7784"
     id="path214" />
  <path
     d="m 82.734788,41.444377 c -10.8049,0 -5.4474,-42.9890998 10.8823,-40.44899975 5.1204,0.79649995 4.7804,7.48799995 5.035,11.49189975 1.2516,19.6841 -11.6625,69.9183 -11.6625,69.9183 h -23.5826"
     fill="none"
     stroke="#eb9d62"
     stroke-linecap="round"
     stroke-miterlimit="10"
     stroke-width="1.7784"
     id="path216" />
  <circle
     cx="44.917587"
     cy="82.40538"
     fill="#e7e7e7"
     r="18.489401"
     stroke="#222222"
     stroke-linecap="round"
     stroke-miterlimit="10"
     stroke-width="1.1856"
     id="circle218" />
  <path
     d="m 55.472788,78.991977 c 0,-3.2601 -3.3894,-7.8509 -10.9229,-7.8509 -7.9655,0 -10.0696,5.1348 -10.0696,7.8509 l -3.398,-3.7501 c 1.5063,-4.0829 5.5805,-8.1969 13.4676,-8.1969 8.1204,0 12.7389,4.2935 14.3557,8.5384 z"
     fill="#ffffff"
     id="path220" />
  <path
     d="m 44.549788,72.108277 v -6.0304"
     fill="none"
     stroke="#222222"
     stroke-miterlimit="10"
     stroke-width="0.2964"
     id="path222" />
  <path
     d="m 55.176988,79.136377 4.2856,-4.4479"
     fill="none"
     stroke="#222222"
     stroke-miterlimit="10"
     stroke-width="0.2964"
     id="path224" />
  <path
     d="m 30.857888,74.478777 3.7612,4.8993"
     fill="none"
     stroke="#222222"
     stroke-miterlimit="10"
     stroke-width="0.2964"
     id="path226" />
  <circle
     cx="44.549786"
     cy="93.498978"
     fill="#222222"
     r="2.8445001"
     id="circle228" />
  <path
     d="m 44.549788,93.498977 2.3667,-15.6503"
     fill="none"
     stroke="#222222"
     stroke-miterlimit="10"
     stroke-width="1.1856"
     id="path230" />
  <path
     d="m 49.709788,79.145777 -2.1573,-5.5033 -3.688,4.6194 z"
     fill="#222222"
     id="path232" />
  <path
     d="m 103.69119,13.143577 h 14.2271 v 18.673 h -14.2271 z"
     fill="#f56a60"
     id="path236" />
  <path
     d="m 117.91829,13.143577 h 36.3087 v 18.673 h -36.3087 z"
     fill="#f5f5f5"
     id="path238" />
  <path
     d="m 154.22689,13.143577 h 14.2271 v 18.673 h -14.2271 z"
     fill="#95d4ef"
     id="path240" />
  <path
     d="m 175.86389,9.8832772 -7.4099,3.2602998 v 18.6731 l 7.4099,-3.2604 z"
     fill="#4797b0"
     id="path242" />
  <path
     d="M -11.623012,-9.1091228 H 188.37699 V 110.89088 H -11.623012 Z"
     fill="none"
     id="path246" />
  <path
     style="font-size:5.33333px;line-height:1;font-family:'EB Garamond';-inkscape-font-specification:'EB Garamond';text-align:center;text-anchor:middle;stroke-width:1.333"
     d="m 44.469787,76.042661 q -0.272,0 -0.474666,-0.149333 -0.197334,-0.149333 -0.330667,-0.394666 -0.133333,-0.250667 -0.197333,-0.549333 -0.064,-0.298667 -0.064,-0.592 0,-0.304 0.064,-0.613333 0.064,-0.309333 0.197333,-0.565333 0.138667,-0.256 0.352,-0.410666 0.213333,-0.16 0.506666,-0.16 0.272,0 0.469333,0.149333 0.202667,0.149333 0.336,0.4 0.133333,0.245333 0.197333,0.543999 0.064,0.293334 0.064,0.581333 0,0.298667 -0.064,0.608 -0.064,0.309333 -0.202666,0.570666 -0.133334,0.261334 -0.346667,0.421333 -0.208,0.16 -0.506666,0.16 z m 0.09067,-0.138666 q 0.213333,0 0.341333,-0.213333 0.133333,-0.218667 0.192,-0.565333 0.05867,-0.346667 0.05867,-0.746667 0,-0.298666 -0.048,-0.586666 -0.04267,-0.288 -0.138666,-0.522666 -0.09067,-0.234667 -0.229334,-0.373333 -0.133333,-0.138667 -0.314666,-0.138667 -0.213333,0 -0.341333,0.208 -0.122667,0.208 -0.181333,0.554666 -0.05333,0.341333 -0.05333,0.741333 0,0.298667 0.04267,0.592 0.048,0.293333 0.133333,0.533333 0.09067,0.234666 0.224,0.378666 0.133333,0.138667 0.314667,0.138667 z"
     id="text1"
     aria-label="0" />
  <path
     style="font-size:10.6667px;line-height:1;font-family:'EB Garamond';-inkscape-font-specification:'EB Garamond';text-align:center;text-anchor:middle;stroke-width:1.333"
     d="m 49.309598,93.728627 q -0.138667,0 -0.224,-0.0427 -0.08533,-0.032 -0.08533,-0.096 0,-0.0747 0.08533,-0.128 0.096,-0.064 0.266667,-0.11734 0.277334,-0.0853 0.512002,-0.256 0.234667,-0.17066 0.405334,-0.56533 0.298668,-0.68267 0.544002,-1.28001 0.256001,-0.59733 0.480002,-1.173332 0.224,-0.576002 0.458668,-1.19467 0.245334,-0.629336 0.512001,-1.365338 0.05333,-0.149334 0.096,-0.298667 0.04267,-0.149334 0.05333,-0.320001 0.096,-0.032 0.192001,-0.064 0.096,-0.032 0.192,-0.096 0.096,-0.064 0.128001,-0.192001 0.04267,-0.128 0.07467,-0.170667 0.01067,-0.01067 0.02133,-0.01067 0.02133,0 0.032,0.02133 0.02133,0.04267 0.032,0.106667 0.02133,0.064 0.04267,0.128 0.256001,0.81067 0.533335,1.653339 0.277334,0.842669 0.533335,1.632005 0.266668,0.778669 0.480002,1.408005 0.224,0.61867 0.352001,1.00267 0.149333,0.42667 0.320001,0.64 0.170667,0.21333 0.352001,0.29867 0.192,0.0853 0.405334,0.128 0.181334,0.032 0.266668,0.10667 0.08533,0.064 0.08533,0.13866 0,0.064 -0.08533,0.0853 -0.08533,0.0213 -0.224001,0.0213 -0.149334,0 -0.405334,-0.0213 -0.256001,-0.0107 -0.544002,-0.032 -0.288001,-0.0107 -0.533335,-0.0107 -0.202667,0 -0.416001,0 -0.213334,0 -0.394668,0.0107 -0.181334,0 -0.309335,0 -0.138667,0 -0.224,-0.032 -0.08533,-0.032 -0.08533,-0.096 0,-0.0747 0.106667,-0.128 0.106667,-0.0533 0.245334,-0.0747 0.352001,-0.0533 0.501335,-0.18133 0.149334,-0.128 0.149334,-0.29867 0,-0.16 -0.07467,-0.45867 -0.064,-0.30933 -0.160001,-0.65067 -0.096,-0.352 -0.181334,-0.61867 -0.02133,-0.0853 -0.08533,-0.096 -0.05333,-0.0213 -0.202667,-0.0213 h -2.016007 q -0.04267,0 -0.096,0.0427 -0.04267,0.032 -0.08533,0.14934 -0.032,0.10667 -0.106667,0.34133 -0.07467,0.224 -0.149334,0.48 -0.07467,0.25601 -0.128,0.45867 -0.05333,0.20267 -0.05333,0.256 0,0.23467 0.181333,0.39467 0.181334,0.14934 0.437335,0.21334 0.352001,0.096 0.352001,0.21333 0,0.064 -0.08533,0.096 -0.08533,0.0213 -0.224001,0.0213 -0.138667,0 -0.405335,-0.0107 -0.266667,-0.0107 -0.565335,-0.0107 -0.352001,0 -0.682669,0.032 -0.330667,0.032 -0.597335,0.032 z m 2.496008,-3.061344 h 1.653339 q 0.149333,0 0.149333,-0.05333 0,-0.02133 -0.01067,-0.04267 0,-0.032 -0.01067,-0.064 l -0.832003,-2.602675 q -0.064,-0.192001 -0.096,-0.192001 -0.02133,0 -0.08533,0.181334 l -0.97067,2.613342 q -0.02133,0.064 -0.02133,0.08533 0,0.05333 0.05333,0.064 0.064,0.01067 0.170667,0.01067 z"
     id="text1-4"
     aria-label="A" />
</svg>
