<?xml version="1.0" encoding="UTF-8" standalone="no"?>
<svg
   version="1.1"
   width="600"
   height="600"
   id="svg350"
   sodipodi:docname="iman.svg"
   inkscape:version="1.3.2 (091e20e, 2023-11-25)"
   xmlns:inkscape="http://www.inkscape.org/namespaces/inkscape"
   xmlns:sodipodi="http://sodipodi.sourceforge.net/DTD/sodipodi-0.dtd"
   xmlns:xlink="http://www.w3.org/1999/xlink"
   xmlns="http://www.w3.org/2000/svg"
   xmlns:svg="http://www.w3.org/2000/svg"
   xmlns:rdf="http://www.w3.org/1999/02/22-rdf-syntax-ns#"
   xmlns:cc="http://creativecommons.org/ns#"
   xmlns:dc="http://purl.org/dc/elements/1.1/">
  <metadata
     id="metadata354">
    <rdf:RDF>
      <cc:Work
         rdf:about="">
        <dc:format>image/svg+xml</dc:format>
        <dc:type
           rdf:resource="http://purl.org/dc/dcmitype/StillImage" />
        <dc:title>VFPt_cylindrical_magnet</dc:title>
      </cc:Work>
    </rdf:RDF>
  </metadata>
  <sodipodi:namedview
     inkscape:document-rotation="0"
     pagecolor="#ffffff"
     bordercolor="#666666"
     borderopacity="1"
     objecttolerance="10"
     gridtolerance="10"
     guidetolerance="10"
     inkscape:pageopacity="0"
     inkscape:pageshadow="2"
     inkscape:window-width="1440"
     inkscape:window-height="769"
     id="namedview352"
     showgrid="false"
     inkscape:zoom="0.965"
     inkscape:cx="434.71503"
     inkscape:cy="329.53368"
     inkscape:window-x="0"
     inkscape:window-y="25"
     inkscape:window-maximized="0"
     inkscape:current-layer="svg350"
     inkscape:showpageshadow="2"
     inkscape:pagecheckerboard="0"
     inkscape:deskcolor="#d1d1d1" />
  <title
     id="title133">VFPt_cylindrical_magnet</title>
  <desc
     id="desc135">VFPt_cylindrical_magnet
created with VectorFieldPlot 1.0
http://commons.wikimedia.org/wiki/User:Geek3/VectorFieldPlot

about: http://commons.wikimedia.org/wiki/File:VFPt_cylindrical_magnet.svg
rights: GNU Free Documentation license,
        Creative Commons Attribution ShareAlike license
  </desc>
  <defs
     id="defs138">
    <path
       id="arrow1"
       stroke="none"
       fill="#000000"
       transform="scale(0.01)"
       d="M 0.3,0 L -2.2,2.25 L 3.8,0 L -2.2,-2.25 L 0.3,0 Z" />
    <defs
       id="defs335">
      <linearGradient
         gradientUnits="userSpaceOnUse"
         y2="-0.25"
         y1="0.25"
         x2="0"
         x1="0"
         id="magnetGrad1"
         gradientTransform="matrix(100,0,0,100,-300,-300)">
        <stop
           id="stop324"
           stop-opacity="0.125"
           offset="0"
           stop-color="#000000" />
        <stop
           id="stop326"
           stop-opacity="0.125"
           offset="0.07"
           stop-color="#ffffff" />
        <stop
           id="stop328"
           stop-opacity="0.5"
           offset="0.25"
           stop-color="#ffffff" />
        <stop
           id="stop330"
           stop-opacity="0.2"
           offset="0.6"
           stop-color="#ffffff" />
        <stop
           id="stop332"
           stop-opacity="0.33"
           offset="1"
           stop-color="#000000" />
      </linearGradient>
    </defs>
  </defs>
  <g
     id="fieldline1"
     style="fill:none;stroke:#000000;stroke-width:0.02;stroke-linecap:round;stroke-linejoin:round"
     transform="matrix(0,-100,-100,0,300,300)">
    <path
       d="M 0,-0.2333 0.1971,-0.2343 0.34,-0.2368 0.441,-0.2403 0.5157,-0.2447 0.5737,-0.25 0.471,-0.3305 0.4183,-0.3692 0.3722,-0.4 0.3293,-0.4259 0.2882,-0.4479 0.2482,-0.4666 0.2091,-0.4822 0.1705,-0.495 0.1323,-0.5051 0.0943,-0.5126 0.0565,-0.5176 0.0188,-0.5201 h -0.0377 l -0.0376,0.0025 -0.0378,0.005 -0.038,0.0075 -0.0382,0.0101 -0.0386,0.0128 -0.0392,0.0156 -0.0399,0.0187 -0.0411,0.022 -0.043,0.0259 -0.046,0.0309 -0.0528,0.0386 -0.1026,0.0805 0.058,0.0053 0.0747,0.0044 0.101,0.0035 0.143,0.0025 z"
       id="path141" />
    <g
       id="arrows1">
      <use
         xlink:href="#arrow1"
         transform="matrix(-1.9993596,0.05060915,-0.05060915,-1.9993596,0,-0.5193)"
         id="use143"
         x="0"
         y="0"
         width="100%"
         height="100%" />
    </g>
  </g>
  <g
     id="fieldline2"
     style="fill:none;stroke:#000000;stroke-width:0.02;stroke-linecap:round;stroke-linejoin:round"
     transform="matrix(0,-100,-100,0,300,300)">
    <path
       d="M 0,-0.2 0.2187,-0.2011 0.3671,-0.2038 0.4675,-0.2077 0.5399,-0.2125 0.5948,-0.2183 0.6379,-0.225 0.6722,-0.2326 0.6998,-0.2409 0.7224,-0.25 0.7116,-0.2708 0.6956,-0.3087 0.6481,-0.4324 0.6215,-0.4952 0.5958,-0.5501 0.5698,-0.5997 0.5432,-0.6453 0.5158,-0.6875 0.4875,-0.7266 0.4583,-0.7627 0.4282,-0.796 0.3973,-0.8265 0.3656,-0.8544 0.3331,-0.8797 0.2999,-0.9024 0.2661,-0.9226 0.2317,-0.9402 0.1969,-0.9552 0.1616,-0.9677 0.1261,-0.9777 0.0902,-0.9852 0.0542,-0.9902 0.0181,-0.9927 h -0.0362 l -0.0361,0.0025 -0.0361,0.005 -0.0358,0.0075 -0.0356,0.01 -0.0352,0.0125 -0.0348,0.0151 -0.0344,0.0175 -0.0338,0.0202 -0.0332,0.0227 -0.0325,0.0253 -0.0317,0.0279 -0.031,0.0306 -0.0301,0.0333 -0.0291,0.0361 -0.0283,0.039 -0.0274,0.0422 -0.0266,0.0456 -0.026,0.0497 -0.0257,0.0548 -0.0265,0.0628 -0.0476,0.1236 -0.016,0.038 -0.0108,0.0208 0.0226,0.0091 0.0276,0.0083 0.0344,0.0076 0.043,0.0067 0.055,0.0058 0.0724,0.0048 0.1004,0.0039 0.1483,0.0027 z"
       id="path147" />
    <g
       id="arrows2">
      <use
         xlink:href="#arrow1"
         transform="matrix(-1.1781107,-1.6161854,1.6161854,-1.1781107,0.5083,-0.6969)"
         id="use149"
         x="0"
         y="0"
         width="100%"
         height="100%" />
      <use
         xlink:href="#arrow1"
         transform="matrix(-1.129934,1.650227,-1.650227,-1.129934,-0.5083,-0.6969)"
         id="use151"
         x="0"
         y="0"
         width="100%"
         height="100%" />
    </g>
  </g>
  <g
     id="fieldline3"
     style="fill:none;stroke:#000000;stroke-width:0.02;stroke-linecap:round;stroke-linejoin:round"
     transform="matrix(0,-100,-100,0,300,300)">
    <path
       d="M 0,-0.1667 0.2353,-0.1678 0.3865,-0.1705 0.4855,-0.1744 0.5559,-0.1793 0.6088,-0.1852 0.65,-0.192 0.6826,-0.1997 0.7084,-0.2081 0.7284,-0.217 0.7434,-0.2261 0.7539,-0.2351 0.761,-0.2442 0.7667,-0.2562 0.773,-0.2769 0.7803,-0.3126 0.7879,-0.3643 0.7943,-0.4267 0.7985,-0.4926 0.8002,-0.5588 0.7993,-0.6238 0.796,-0.6872 0.7902,-0.7489 0.7821,-0.8088 0.7717,-0.8668 0.7591,-0.9231 0.7443,-0.9774 0.7275,-1.0299 0.7086,-1.0804 0.6878,-1.129 0.6651,-1.1755 0.6407,-1.22 0.6145,-1.2624 0.5867,-1.3025 0.5574,-1.3405 0.5267,-1.3762 0.4946,-1.4096 0.4613,-1.4406 0.4268,-1.4693 0.3913,-1.4956 0.3549,-1.5194 0.3176,-1.5408 0.2795,-1.5597 0.2408,-1.5761 0.2015,-1.59 0.1618,-1.6014 0.1216,-1.6103 0.0813,-1.6166 0.0407,-1.6204 0,-1.6217 l -0.0407,0.0013 -0.0406,0.0038 -0.0404,0.0063 -0.0401,0.0089 -0.0397,0.0114 -0.0393,0.0139 -0.0387,0.0164 -0.0381,0.0189 -0.0373,0.0214 -0.0365,0.0239 -0.0355,0.0262 -0.0344,0.0287 -0.0333,0.0311 -0.0321,0.0334 -0.0307,0.0356 -0.0293,0.038 -0.0278,0.0402 -0.0262,0.0423 -0.0244,0.0445 -0.0227,0.0465 -0.0208,0.0486 -0.0189,0.0505 -0.0169,0.0525 -0.0147,0.0544 -0.0126,0.0562 -0.0104,0.0581 -0.0081,0.0599 -0.0058,0.0616 -0.0033,0.0635 -9e-4,0.065 0.0017,0.0661 0.0042,0.066 0.0064,0.0623 0.0076,0.0518 0.0073,0.0356 0.0063,0.0207 0.0057,0.012 0.0071,0.0092 0.0105,0.0089 0.015,0.0091 0.0201,0.0089 0.0258,0.0084 0.0326,0.0077 0.0412,0.0068 0.0529,0.0059 0.0704,0.0049 0.0991,0.0039 0.1511,0.0027 z"
       id="path155" />
    <g
       id="arrows3">
      <use
         xlink:href="#arrow1"
         transform="matrix(-0.24581734,-1.984836,1.984836,-0.24581734,0.7894,-0.7509)"
         id="use157"
         x="0"
         y="0"
         width="100%"
         height="100%" />
      <use
         xlink:href="#arrow1"
         transform="matrix(-1.999611,0.03944188,-0.03944188,-1.999611,0,-1.6206)"
         id="use159"
         x="0"
         y="0"
         width="100%"
         height="100%" />
      <use
         xlink:href="#arrow1"
         transform="matrix(-0.21391645,1.988527,-1.988527,-0.21391645,-0.7894,-0.7509)"
         id="use161"
         x="0"
         y="0"
         width="100%"
         height="100%" />
    </g>
  </g>
  <g
     id="fieldline6"
     style="fill:none;stroke:#000000;stroke-width:0.02;stroke-linecap:round;stroke-linejoin:round"
     transform="matrix(0,-100,-100,0,300,300)">
    <path
       d="m -3.01,-2.0232 0.0766,0.106 0.0785,0.1043 0.0802,0.1025 0.0819,0.1006 0.0835,0.0988 0.0852,0.0967 0.0866,0.0947 0.0881,0.0926 0.0896,0.0905 0.0908,0.0882 0.0921,0.086 0.0932,0.0837 0.0943,0.0813 0.0952,0.0788 0.0959,0.0763 0.0964,0.0734 0.0965,0.0703 0.0958,0.0668 0.0939,0.0626 0.0904,0.0572 0.0843,0.0506 0.0759,0.0429 0.066,0.0345 0.0568,0.0273 0.0498,0.0213 0.0448,0.0166 0.042,0.013 0.0416,0.0103 0.0438,0.0082 0.0495,0.0066 0.0597,0.0051 0.0795,0.0039 0.1214,0.0029 0.2233,0.0017 h 0.3738 l 0.2233,-0.0017 0.1214,-0.0029 0.0795,-0.0039 0.0597,-0.0051 0.0495,-0.0066 0.0438,-0.0082 0.0416,-0.0103 0.042,-0.013 0.0448,-0.0166 0.0498,-0.0213 0.0568,-0.0273 0.066,-0.0345 L 1.141,-0.2613 1.2253,-0.3119 1.3157,-0.3691 1.4096,-0.4317 1.5054,-0.4985 1.6019,-0.5688 1.6983,-0.6422 1.7942,-0.7185 1.8894,-0.7973 1.9837,-0.8786 2.0769,-0.9623 2.169,-1.0483 2.2598,-1.1365 2.3494,-1.227 2.4375,-1.3196 2.5241,-1.4143 2.6093,-1.511 2.6928,-1.6098 2.7747,-1.7104 2.8549,-1.8129 2.9334,-1.9172 3.01,-2.0232"
       id="path195" />
    <g
       id="arrows6">
      <use
         xlink:href="#arrow1"
         transform="matrix(1.3031379,1.5171788,-1.5171788,1.3031379,-2.6239,-1.5286)"
         id="use197"
         x="0"
         y="0"
         width="100%"
         height="100%" />
      <use
         xlink:href="#arrow1"
         transform="matrix(1.5736546,1.2343464,-1.2343464,1.5736546,-1.7204,-0.66)"
         id="use199"
         x="0"
         y="0"
         width="100%"
         height="100%" />
      <use
         xlink:href="#arrow1"
         transform="matrix(1.9952491,0.13777182,-0.13777182,1.9952491,-0.6274,-0.0773)"
         id="use201"
         x="0"
         y="0"
         width="100%"
         height="100%" />
      <use
         xlink:href="#arrow1"
         transform="matrix(1.9924804,-0.17326825,0.17326825,1.9924804,0.6275,-0.0771)"
         id="use203"
         x="0"
         y="0"
         width="100%"
         height="100%" />
      <use
         xlink:href="#arrow1"
         transform="matrix(1.5660851,-1.2439362,1.2439362,1.5660851,1.7205,-0.6599)"
         id="use205"
         x="0"
         y="0"
         width="100%"
         height="100%" />
      <use
         xlink:href="#arrow1"
         transform="matrix(1.2919815,-1.5266905,1.5266905,1.2919815,2.624,-1.5285)"
         id="use207"
         x="0"
         y="0"
         width="100%"
         height="100%" />
    </g>
  </g>
  <g
     id="fieldline7"
     style="fill:none;stroke:#000000;stroke-width:0.02;stroke-linecap:round;stroke-linejoin:round"
     transform="matrix(0,-100,-100,0,300,300)">
    <path
       d="m -3.01,-0.7827 0.1804,0.0772 0.1793,0.074 0.1778,0.0708 0.1763,0.0675 0.1746,0.0642 0.1725,0.0608 0.1698,0.0573 0.1659,0.0534 0.1598,0.0489 0.1497,0.0433 0.1336,0.0362 0.1119,0.028 0.0915,0.0207 0.0758,0.0148 0.0667,0.0106 0.0634,0.0077 0.0674,0.0055 0.0817,0.0039 0.1199,0.0027 0.2386,0.0016 H 0.2534 L 0.492,-0.0352 0.6119,-0.0379 0.6936,-0.0418 0.761,-0.0473 0.8244,-0.055 0.8911,-0.0656 0.9669,-0.0804 1.0584,-0.1011 1.1703,-0.1291 1.3039,-0.1653 1.4536,-0.2086 1.6134,-0.2575 1.7793,-0.3109 1.9491,-0.3682 2.1216,-0.429 2.2962,-0.4932 2.4725,-0.5607 2.6503,-0.6315 2.8296,-0.7055 3.01,-0.7827"
       id="path211" />
    <g
       id="arrows7">
      <use
         xlink:href="#arrow1"
         transform="matrix(1.8677856,0.71510622,-0.71510622,1.8677856,-2.4304,-0.5446)"
         id="use213"
         x="0"
         y="0"
         width="100%"
         height="100%" />
      <use
         xlink:href="#arrow1"
         transform="matrix(1.9303073,0.52336772,-0.52336772,1.9303073,-1.2419,-0.1485)"
         id="use215"
         x="0"
         y="0"
         width="100%"
         height="100%" />
      <use
         xlink:href="#arrow1"
         transform="matrix(2,0,0,2,0,-0.0336)"
         id="use217"
         x="0"
         y="0"
         width="100%"
         height="100%" />
      <use
         xlink:href="#arrow1"
         transform="matrix(1.9303073,-0.52336772,0.52336772,1.9303073,1.2419,-0.1485)"
         id="use219"
         x="0"
         y="0"
         width="100%"
         height="100%" />
      <use
         xlink:href="#arrow1"
         transform="matrix(1.8671609,-0.7167359,0.7167359,1.8671609,2.4304,-0.5446)"
         id="use221"
         x="0"
         y="0"
         width="100%"
         height="100%" />
    </g>
  </g>
  <g
     id="fieldline8"
     style="fill:none;stroke:#000000;stroke-width:0.02;stroke-linecap:round;stroke-linejoin:round"
     transform="matrix(0,-100,-100,0,300,300)">
    <path
       d="M -3.01,0 H 3.01"
       id="path225" />
    <g
       id="arrows8">
      <use
         xlink:href="#arrow1"
         transform="matrix(2,0,0,2,-2.408,0)"
         id="use227"
         x="0"
         y="0"
         width="100%"
         height="100%" />
      <use
         xlink:href="#arrow1"
         transform="matrix(2,0,0,2,-1.204,0)"
         id="use229"
         x="0"
         y="0"
         width="100%"
         height="100%" />
      <use
         xlink:href="#arrow1"
         transform="scale(2)"
         id="use231"
         x="0"
         y="0"
         width="100%"
         height="100%" />
      <use
         xlink:href="#arrow1"
         transform="matrix(2,0,0,2,1.204,0)"
         id="use233"
         x="0"
         y="0"
         width="100%"
         height="100%" />
      <use
         xlink:href="#arrow1"
         transform="matrix(2,0,0,2,2.408,0)"
         id="use235"
         x="0"
         y="0"
         width="100%"
         height="100%" />
    </g>
  </g>
  <g
     id="fieldline9"
     style="fill:none;stroke:#000000;stroke-width:0.02;stroke-linecap:round;stroke-linejoin:round"
     transform="matrix(0,-100,-100,0,300,300)">
    <path
       d="M -3.01,0.7827 -2.8296,0.7055 -2.6503,0.6315 -2.4725,0.5607 -2.2962,0.4932 -2.1216,0.429 -1.9491,0.3682 -1.7793,0.3109 -1.6134,0.2575 -1.4536,0.2086 -1.3039,0.1653 -1.1703,0.1291 -1.0584,0.1011 -0.9669,0.0804 -0.8911,0.0656 -0.8244,0.055 -0.761,0.0473 -0.6936,0.0418 -0.6119,0.0379 -0.492,0.0352 -0.2534,0.0336 H 0.2534 L 0.492,0.0352 0.6119,0.0379 0.6936,0.0418 0.761,0.0473 0.8244,0.055 0.8911,0.0656 0.9669,0.0804 1.0584,0.1011 1.1703,0.1291 1.3039,0.1653 1.4536,0.2086 1.6134,0.2575 1.7793,0.3109 1.9491,0.3682 2.1216,0.429 2.2962,0.4932 2.4725,0.5607 2.6503,0.6315 2.8296,0.7055 3.01,0.7827"
       id="path239" />
    <g
       id="arrows9">
      <use
         xlink:href="#arrow1"
         transform="matrix(1.8677856,-0.71510622,0.71510622,1.8677856,-2.4304,0.5446)"
         id="use241"
         x="0"
         y="0"
         width="100%"
         height="100%" />
      <use
         xlink:href="#arrow1"
         transform="matrix(1.9303073,-0.52336772,0.52336772,1.9303073,-1.2419,0.1485)"
         id="use243"
         x="0"
         y="0"
         width="100%"
         height="100%" />
      <use
         xlink:href="#arrow1"
         transform="matrix(2,0,0,2,0,0.0336)"
         id="use245"
         x="0"
         y="0"
         width="100%"
         height="100%" />
      <use
         xlink:href="#arrow1"
         transform="matrix(1.9303073,0.52336772,-0.52336772,1.9303073,1.2419,0.1485)"
         id="use247"
         x="0"
         y="0"
         width="100%"
         height="100%" />
      <use
         xlink:href="#arrow1"
         transform="matrix(1.8671609,0.7167359,-0.7167359,1.8671609,2.4304,0.5446)"
         id="use249"
         x="0"
         y="0"
         width="100%"
         height="100%" />
    </g>
  </g>
  <g
     id="fieldline10"
     style="fill:none;stroke:#000000;stroke-width:0.02;stroke-linecap:round;stroke-linejoin:round"
     transform="matrix(0,-100,-100,0,300,300)">
    <path
       d="m -3.01,2.0232 0.0766,-0.106 0.0785,-0.1043 0.0802,-0.1025 0.0819,-0.1006 0.0835,-0.0988 0.0852,-0.0967 0.0866,-0.0947 0.0881,-0.0926 0.0896,-0.0905 0.0908,-0.0882 0.0921,-0.086 0.0932,-0.0837 0.0943,-0.0813 0.0952,-0.0788 0.0959,-0.0763 0.0964,-0.0734 0.0965,-0.0703 0.0958,-0.0668 0.0939,-0.0626 0.0904,-0.0572 0.0843,-0.0506 0.0759,-0.0429 0.066,-0.0345 0.0568,-0.0273 0.0498,-0.0213 0.0448,-0.0166 0.042,-0.013 0.0416,-0.0103 0.0438,-0.0082 0.0495,-0.0066 0.0597,-0.0051 0.0795,-0.0039 0.1214,-0.0029 0.2233,-0.0017 h 0.3738 l 0.2233,0.0017 0.1214,0.0029 0.0795,0.0039 0.0597,0.0051 0.0495,0.0066 0.0438,0.0082 0.0416,0.0103 0.042,0.013 0.0448,0.0166 0.0498,0.0213 0.0568,0.0273 0.066,0.0345 L 1.141,0.2613 1.2253,0.3119 1.3157,0.3691 1.4096,0.4317 1.5054,0.4985 1.6019,0.5688 1.6983,0.6422 1.7942,0.7185 1.8894,0.7973 1.9837,0.8786 2.0769,0.9623 2.169,1.0483 2.2598,1.1365 2.3494,1.227 2.4375,1.3196 2.5241,1.4143 2.6093,1.511 2.6928,1.6098 2.7747,1.7104 2.8549,1.8129 2.9334,1.9172 3.01,2.0232"
       id="path253" />
    <g
       id="arrows10">
      <use
         xlink:href="#arrow1"
         transform="matrix(1.3031379,-1.5171788,1.5171788,1.3031379,-2.6239,1.5286)"
         id="use255"
         x="0"
         y="0"
         width="100%"
         height="100%" />
      <use
         xlink:href="#arrow1"
         transform="matrix(1.5736546,-1.2343464,1.2343464,1.5736546,-1.7204,0.66)"
         id="use257"
         x="0"
         y="0"
         width="100%"
         height="100%" />
      <use
         xlink:href="#arrow1"
         transform="matrix(1.9952491,-0.13777182,0.13777182,1.9952491,-0.6274,0.0773)"
         id="use259"
         x="0"
         y="0"
         width="100%"
         height="100%" />
      <use
         xlink:href="#arrow1"
         transform="matrix(1.9924804,0.17326825,-0.17326825,1.9924804,0.6275,0.0771)"
         id="use261"
         x="0"
         y="0"
         width="100%"
         height="100%" />
      <use
         xlink:href="#arrow1"
         transform="matrix(1.5660851,1.2439362,-1.2439362,1.5660851,1.7205,0.6599)"
         id="use263"
         x="0"
         y="0"
         width="100%"
         height="100%" />
      <use
         xlink:href="#arrow1"
         transform="matrix(1.2919815,1.5266905,-1.5266905,1.2919815,2.624,1.5285)"
         id="use265"
         x="0"
         y="0"
         width="100%"
         height="100%" />
    </g>
  </g>
  <g
     id="fieldline13"
     style="fill:none;stroke:#000000;stroke-width:0.02;stroke-linecap:round;stroke-linejoin:round"
     transform="matrix(0,-100,-100,0,300,300)">
    <path
       d="M 0,0.1667 0.2353,0.1678 0.3865,0.1705 0.4855,0.1744 0.5559,0.1793 0.6088,0.1852 0.65,0.192 0.6826,0.1997 0.7084,0.2081 0.7284,0.217 0.7434,0.2261 0.7539,0.2351 0.761,0.2442 0.7667,0.2562 0.773,0.2769 0.7803,0.3126 0.7879,0.3643 0.7943,0.4267 0.7985,0.4926 0.8002,0.5588 0.7993,0.6238 0.796,0.6872 0.7902,0.7489 0.7821,0.8088 0.7717,0.8668 0.7591,0.9231 0.7443,0.9774 0.7275,1.0299 0.7086,1.0804 0.6878,1.129 0.6651,1.1755 0.6407,1.22 0.6145,1.2624 0.5867,1.3025 0.5574,1.3405 0.5267,1.3762 0.4946,1.4096 0.4613,1.4406 0.4268,1.4693 0.3913,1.4956 0.3549,1.5194 0.3176,1.5408 0.2795,1.5597 0.2408,1.5761 0.2015,1.59 0.1618,1.6014 0.1216,1.6103 0.0813,1.6166 0.0407,1.6204 0,1.6217 -0.0407,1.6204 -0.0813,1.6166 -0.1217,1.6103 -0.1618,1.6014 -0.2015,1.59 -0.2408,1.5761 -0.2795,1.5597 -0.3176,1.5408 -0.3549,1.5194 -0.3914,1.4955 -0.4269,1.4693 -0.4613,1.4406 -0.4946,1.4095 -0.5267,1.3761 -0.5574,1.3405 -0.5867,1.3025 -0.6145,1.2623 -0.6407,1.22 -0.6651,1.1755 -0.6878,1.129 -0.7086,1.0804 -0.7275,1.0299 -0.7444,0.9774 -0.7591,0.923 -0.7717,0.8668 -0.7821,0.8087 -0.7902,0.7488 -0.796,0.6872 -0.7993,0.6237 -0.8002,0.5587 -0.7985,0.4926 -0.7943,0.4266 -0.7879,0.3643 -0.7803,0.3125 -0.773,0.2769 -0.7667,0.2562 -0.761,0.2442 -0.7539,0.235 -0.7434,0.2261 -0.7284,0.217 -0.7083,0.2081 -0.6825,0.1997 -0.6499,0.192 -0.6087,0.1852 -0.5558,0.1793 -0.4854,0.1744 -0.3863,0.1705 -0.2352,0.1678 Z"
       id="path299" />
    <g
       id="arrows13">
      <use
         xlink:href="#arrow1"
         transform="matrix(-0.24581734,1.984836,-1.984836,-0.24581734,0.7894,0.7509)"
         id="use301"
         x="0"
         y="0"
         width="100%"
         height="100%" />
      <use
         xlink:href="#arrow1"
         transform="matrix(-1.999611,-0.03944188,0.03944188,-1.999611,0,1.6206)"
         id="use303"
         x="0"
         y="0"
         width="100%"
         height="100%" />
      <use
         xlink:href="#arrow1"
         transform="matrix(-0.21391645,-1.988527,1.988527,-0.21391645,-0.7894,0.7509)"
         id="use305"
         x="0"
         y="0"
         width="100%"
         height="100%" />
    </g>
  </g>
  <g
     id="fieldline14"
     style="fill:none;stroke:#000000;stroke-width:0.02;stroke-linecap:round;stroke-linejoin:round"
     transform="matrix(0,-100,-100,0,300,300)">
    <path
       d="M 0,0.2 0.2187,0.2011 0.3671,0.2038 0.4675,0.2077 0.5399,0.2125 0.5948,0.2183 0.6379,0.225 0.6722,0.2326 0.6998,0.2409 0.7224,0.25 0.7116,0.2708 0.6956,0.3087 0.6481,0.4324 0.6215,0.4952 0.5958,0.5501 0.5698,0.5997 0.5432,0.6453 0.5158,0.6875 0.4875,0.7266 0.4583,0.7627 0.4282,0.796 0.3973,0.8265 0.3656,0.8544 0.3331,0.8797 0.2999,0.9024 0.2661,0.9226 0.2317,0.9402 0.1969,0.9552 0.1616,0.9677 0.1261,0.9777 0.0902,0.9852 0.0542,0.9902 0.0181,0.9927 H -0.0181 L -0.0542,0.9902 -0.0903,0.9852 -0.1261,0.9777 -0.1617,0.9677 -0.1969,0.9552 -0.2317,0.9401 -0.2661,0.9226 -0.2999,0.9024 -0.3331,0.8797 -0.3656,0.8544 -0.3973,0.8265 -0.4283,0.7959 -0.4584,0.7626 -0.4875,0.7265 -0.5158,0.6875 -0.5432,0.6453 -0.5698,0.5997 -0.5958,0.55 -0.6215,0.4952 -0.648,0.4324 -0.6956,0.3088 -0.7116,0.2708 -0.7224,0.25 -0.6998,0.2409 -0.6722,0.2326 -0.6378,0.225 -0.5948,0.2183 -0.5398,0.2125 -0.4674,0.2077 -0.367,0.2038 -0.2187,0.2011 Z"
       id="path309" />
    <g
       id="arrows14">
      <use
         xlink:href="#arrow1"
         transform="matrix(-1.1781107,1.6161854,-1.6161854,-1.1781107,0.5083,0.6969)"
         id="use311"
         x="0"
         y="0"
         width="100%"
         height="100%" />
      <use
         xlink:href="#arrow1"
         transform="matrix(-1.129934,-1.650227,1.650227,-1.129934,-0.5083,0.6969)"
         id="use313"
         x="0"
         y="0"
         width="100%"
         height="100%" />
    </g>
  </g>
  <g
     id="fieldline15"
     style="fill:none;stroke:#000000;stroke-width:0.02;stroke-linecap:round;stroke-linejoin:round"
     transform="matrix(0,-100,-100,0,300,300)">
    <path
       d="M 0,0.2333 0.1971,0.2343 0.34,0.2368 0.441,0.2403 0.5157,0.2447 0.5737,0.25 0.471,0.3305 0.4183,0.3692 0.3722,0.4 0.3293,0.4259 0.2882,0.4479 0.2482,0.4666 0.2091,0.4822 0.1705,0.495 0.1323,0.5051 0.0943,0.5126 0.0565,0.5176 0.0188,0.5201 H -0.0189 L -0.0565,0.5176 -0.0943,0.5126 -0.1323,0.5051 -0.1705,0.495 -0.2091,0.4822 -0.2483,0.4666 -0.2882,0.4479 -0.3293,0.4259 -0.3723,0.4 -0.4183,0.3691 -0.4711,0.3305 -0.5737,0.25 -0.5157,0.2447 -0.441,0.2403 -0.34,0.2368 -0.197,0.2343 Z"
       id="path317" />
    <g
       id="arrows15">
      <use
         xlink:href="#arrow1"
         transform="matrix(-1.9993596,-0.05060915,0.05060915,-1.9993596,0,0.5193)"
         id="use319"
         x="0"
         y="0"
         width="100%"
         height="100%" />
    </g>
  </g>
  <rect
     x="-375"
     y="-325"
     width="150"
     height="50"
     style="fill:#ffffff;fill-opacity:1;stroke:none;stroke-width:100"
     id="rect337"
     transform="matrix(0,-1,-1,0,0,0)" />
  <rect
     x="-300"
     y="-325"
     width="75"
     height="50"
     style="fill:#b50000;fill-opacity:1;stroke:none;stroke-width:100"
     id="rect339"
     transform="matrix(0,-1,-1,0,0,0)" />
  <rect
     x="-375"
     y="-325"
     width="150"
     height="50"
     style="display:inline;fill:url(#magnetGrad1);stroke:#000000;stroke-width:4;stroke-linejoin:miter"
     id="rect341"
     transform="matrix(0,-1,-1,0,0,0)" />
  <g
     aria-label="N"
     id="text1383"
     style="font-style:normal;font-weight:normal;font-size:40px;line-height:1.25;font-family:sans-serif;fill:#000000;fill-opacity:1;stroke:none;stroke-width:1">
    <path
       d="m 311.87427,261.92359 q -0.36,0 -1.44,-0.6 -1.04,-0.6 -2,-1.92 -0.16,-0.2 -1,-1.2 -0.8,-1 -2.08,-2.48 -1.24,-1.52 -2.72,-3.28 -1.48,-1.76 -2.96,-3.52 -1.48,-1.76 -2.76,-3.24 -1.28,-1.52 -2.16,-2.52 -0.84,-1.04 -1.04,-1.28 -0.28,-0.36 -0.48,-0.48 -0.2,-0.16 -0.36,-0.16 -0.2,0 -0.28,0.32 -0.08,0.28 -0.08,0.52 -0.04,1.96 -0.08,4.52 -0.04,2.56 -0.08,5.28 -0.04,2.72 -0.04,5.2 0,1.08 0.52,2 0.56,0.92 2.04,1.2 0.68,0.12 1,0.28 0.32,0.16 0.32,0.44 0,0.24 -0.32,0.32 -0.32,0.12 -0.84,0.12 -1.08,0 -1.64,-0.08 -0.52,-0.04 -0.96,-0.08 -0.4,-0.04 -1.16,-0.04 -0.72,0 -1.12,0.04 -0.4,0.04 -0.92,0.08 -0.52,0.08 -1.6,0.08 -0.52,0 -0.84,-0.12 -0.32,-0.08 -0.32,-0.32 0,-0.28 0.32,-0.44 0.32,-0.16 1,-0.32 1.16,-0.32 1.68,-1.16 0.52,-0.88 0.64,-2.12 0.16,-1.52 0.32,-4 0.16,-2.52 0.28,-5.6 0.12,-3.12 0.12,-6.4 0,-2.12 -1.12,-3.04 -1.08,-0.92 -2.84,-1.48 -0.16,-0.08 -0.72,-0.32 -0.52,-0.28 -0.52,-0.64 0,-0.36 0.36,-0.44 0.36,-0.12 0.56,-0.12 1.16,0.04 1.88,0.08 0.72,0 1.28,0.04 0.56,0.04 1.24,0.08 0.68,0 1.76,0 0.36,0 0.56,0.2 0.2,0.2 0.4,0.48 0.16,0.24 1.04,1.36 0.92,1.08 2.24,2.76 1.36,1.64 2.96,3.6 1.6,1.92 3.2,3.88 1.6,1.92 2.96,3.6 1.36,1.64 2.24,2.72 0.92,1.08 1.08,1.28 0.16,0.16 0.44,0.48 0.32,0.32 0.56,0.32 0.36,0 0.4,-0.84 0,-0.56 0,-2.12 0.04,-1.6 0.04,-3.84 0.04,-2.28 0.04,-4.92 0,-2.64 0,-5.4 -0.04,-0.8 -0.84,-1.44 -0.8,-0.64 -1.48,-0.76 -0.68,-0.12 -1.24,-0.32 -0.56,-0.2 -0.56,-0.48 0,-0.24 0.56,-0.32 0.56,-0.12 1.08,-0.12 0.4,0 0.76,0 0.4,0 0.76,0 0.4,0 0.76,0 0.96,0 1.52,0 0.56,-0.04 1.2,-0.08 0.68,-0.04 1.88,-0.04 0.52,0 0.84,0.12 0.32,0.08 0.32,0.32 0,0.56 -1.32,0.8 -1.48,0.28 -1.96,0.72 -0.48,0.44 -0.56,1.44 0,0.2 -0.04,1.56 0,1.36 0,3.44 0,2.08 -0.04,4.48 0,2.4 0,4.8 0,2.36 0,4.24 0,0.96 0.04,1.76 0.08,0.76 0.12,1.32 0.04,0.52 0.04,0.8 0,0.64 -0.28,0.8 -0.24,0.2 -0.56,0.2 z"
       style="font-style:normal;font-variant:normal;font-weight:normal;font-stretch:normal;font-family:'EB Garamond';-inkscape-font-specification:'EB Garamond';fill:#ffffff;fill-opacity:1;stroke-width:1"
       id="path112" />
  </g>
  <g
     aria-label="S"
     id="text1383-5"
     style="font-style:normal;font-weight:normal;font-size:40px;line-height:1.25;font-family:sans-serif;fill:#000000;fill-opacity:1;stroke:none;stroke-width:1">
    <path
       d="m 299.76187,366.09212 q -1.68,0 -3.12,-0.52 -1.4,-0.48 -2.52,-1.4 -0.16,-0.16 -0.32,-0.36 -0.12,-0.2 -0.2,-0.44 -0.2,-0.8 -0.28,-2.08 -0.04,-1.28 -0.12,-2.12 0,-0.28 0.24,-0.4 0.24,-0.16 0.56,-0.16 0.2,0 0.4,0.12 0.2,0.08 0.24,0.32 0.8,3.08 2.36,4.4 1.6,1.32 3.32,1.32 1.4,0 2.48,-0.6 1.08,-0.6 1.68,-1.68 0.64,-1.12 0.64,-2.6 0,-1.64 -0.56,-2.64 -0.52,-1.04 -1.52,-1.8 -1,-0.76 -2.44,-1.64 -1.56,-1 -3.08,-2 -1.52,-1.04 -2.52,-2.36 -1,-1.36 -1,-3.28 0,-2.04 0.92,-3.68 0.92,-1.64 2.76,-2.6 1.88,-1 4.68,-1 1.44,0 2.48,0.32 1.08,0.28 1.72,0.56 0.32,0.12 0.52,0.4 0.24,0.28 0.32,0.6 0.24,0.84 0.52,1.92 0.28,1.08 0.28,2.04 0,0.44 -0.6,0.44 -0.36,0 -0.72,-0.16 -0.32,-0.16 -0.4,-0.4 -0.84,-2.12 -1.96,-3.24 -1.12,-1.12 -2.84,-1.12 -1.2,0 -2.24,0.44 -1.04,0.44 -1.72,1.44 -0.64,1 -0.64,2.68 0,1.2 0.76,2.2 0.8,0.96 2.08,1.84 1.28,0.88 2.76,1.8 1.4,0.84 2.72,1.84 1.36,1 2.2,2.4 0.88,1.36 0.88,3.36 0,2.36 -1.08,4.16 -1.08,1.76 -3.04,2.72 -1.96,0.96 -4.6,0.96 z"
       style="font-style:normal;font-variant:normal;font-weight:normal;font-stretch:normal;font-family:'EB Garamond';-inkscape-font-specification:'EB Garamond';stroke-width:1"
       id="path115" />
  </g>
</svg>
