<?xml version="1.0" encoding="UTF-8" standalone="no"?>
<!-- Created with Inkscape (http://www.inkscape.org/) -->

<svg
   width="1900"
   height="1700"
   viewBox="0 0 1900 1700"
   id="svg2"
   version="1.1"
   inkscape:version="1.2 (dc2aeda, 2022-05-15)"
   sodipodi:docname="Thin_film_interference.svg"
   xmlns:inkscape="http://www.inkscape.org/namespaces/inkscape"
   xmlns:sodipodi="http://sodipodi.sourceforge.net/DTD/sodipodi-0.dtd"
   xmlns="http://www.w3.org/2000/svg"
   xmlns:svg="http://www.w3.org/2000/svg"
   xmlns:rdf="http://www.w3.org/1999/02/22-rdf-syntax-ns#"
   xmlns:cc="http://creativecommons.org/ns#"
   xmlns:dc="http://purl.org/dc/elements/1.1/">
  <defs
     id="defs4">
    <marker
       inkscape:stockid="Arrow1Send"
       orient="auto"
       refY="0.0"
       refX="0.0"
       id="Arrow1Send"
       style="overflow:visible;"
       inkscape:isstock="true">
      <path
         id="path4328"
         d="M 0.0,0.0 L 5.0,-5.0 L -12.5,0.0 L 5.0,5.0 L 0.0,0.0 z "
         style="fill-rule:evenodd;stroke:#000000;stroke-width:1pt;stroke-opacity:1;fill:#000000;fill-opacity:1"
         transform="scale(0.2) rotate(180) translate(6,0)" />
    </marker>
    <marker
       inkscape:stockid="Arrow2Mend"
       orient="auto"
       refY="0.0"
       refX="0.0"
       id="Arrow2Mend"
       style="overflow:visible;"
       inkscape:isstock="true">
      <path
         id="path4340"
         style="fill-rule:evenodd;stroke-width:0.625;stroke-linejoin:round;stroke:#000000;stroke-opacity:1;fill:#000000;fill-opacity:1"
         d="M 8.7185878,4.0337352 L -2.2072895,0.016013256 L 8.7185884,-4.0017078 C 6.9730900,-1.6296469 6.9831476,1.6157441 8.7185878,4.0337352 z "
         transform="scale(0.6) rotate(180) translate(0,0)" />
    </marker>
    <marker
       inkscape:isstock="true"
       style="overflow:visible"
       id="marker4434"
       refX="0"
       refY="0"
       orient="auto"
       inkscape:stockid="TriangleOutM">
      <path
         transform="scale(0.4,0.4)"
         style="fill:#800000;fill-opacity:1;fill-rule:evenodd;stroke:#800000;stroke-width:1pt;stroke-opacity:1"
         d="m 5.77,0 -8.65,5 0,-10 8.65,5 z"
         id="path4436"
         inkscape:connector-curvature="0" />
    </marker>
    <marker
       inkscape:stockid="Arrow1Send"
       orient="auto"
       refY="0"
       refX="0"
       id="Arrow1Send-0"
       style="overflow:visible"
       inkscape:isstock="true">
      <path
         inkscape:connector-curvature="0"
         id="path4328-7"
         d="M 0,0 5,-5 -12.5,0 5,5 0,0 Z"
         style="fill:#000000;fill-opacity:1;fill-rule:evenodd;stroke:#000000;stroke-width:1pt;stroke-opacity:1"
         transform="matrix(-0.2,0,0,-0.2,-1.2,0)" />
    </marker>
    <marker
       inkscape:stockid="Arrow1Send"
       orient="auto"
       refY="0"
       refX="0"
       id="Arrow1Send-7"
       style="overflow:visible"
       inkscape:isstock="true">
      <path
         inkscape:connector-curvature="0"
         id="path4328-4"
         d="M 0,0 5,-5 -12.5,0 5,5 0,0 Z"
         style="fill:#000000;fill-opacity:1;fill-rule:evenodd;stroke:#000000;stroke-width:1pt;stroke-opacity:1"
         transform="matrix(-0.2,0,0,-0.2,-1.2,0)" />
    </marker>
  </defs>
  <sodipodi:namedview
     id="base"
     pagecolor="#ffffff"
     bordercolor="#666666"
     borderopacity="1.0"
     inkscape:pageopacity="0.0"
     inkscape:pageshadow="2"
     inkscape:zoom="0.32573526"
     inkscape:cx="927.13329"
     inkscape:cy="862.66376"
     inkscape:document-units="px"
     inkscape:current-layer="layer1"
     showgrid="false"
     fit-margin-top="0"
     fit-margin-left="0"
     fit-margin-right="0"
     fit-margin-bottom="0"
     inkscape:window-width="1280"
     inkscape:window-height="800"
     inkscape:window-x="1920"
     inkscape:window-y="213"
     inkscape:window-maximized="0"
     units="px"
     inkscape:showpageshadow="2"
     inkscape:pagecheckerboard="0"
     inkscape:deskcolor="#d1d1d1" />
  <metadata
     id="metadata7">
    <rdf:RDF>
      <cc:Work
         rdf:about="">
        <dc:format>image/svg+xml</dc:format>
        <dc:type
           rdf:resource="http://purl.org/dc/dcmitype/StillImage" />
        <dc:title />
      </cc:Work>
    </rdf:RDF>
  </metadata>
  <g
     inkscape:label="Layer 1"
     inkscape:groupmode="layer"
     id="layer1"
     transform="translate(1095,317.63777)"
     style="display:inline;opacity:0.98000004">
    <rect
       transform="translate(-1095,-317.63779)"
       style="display:inline;opacity:1;fill:#d4f1f1;fill-opacity:1;fill-rule:evenodd;stroke:none;stroke-width:10;stroke-linecap:square;stroke-linejoin:miter;stroke-miterlimit:4;stroke-dasharray:30, 30;stroke-dashoffset:0;stroke-opacity:1"
       id="rect4873"
       width="1900"
       height="428.30469"
       x="-8.7216749e-006"
       y="972.69019" />
    <g
       aria-label="n2"
       id="text4967-5-1-7"
       style="font-style:italic;line-height:0%;font-family:serif;-inkscape-font-specification:'serif Italic';letter-spacing:0px;word-spacing:0px;display:inline;opacity:0.98;stroke-width:1px">
      <path
         d="m -1013.8852,1039.427 q -0.6,0 -1.2,-0.5 -0.5,-0.4 -0.9,-1.1 -0.4,-0.6 -0.6,-1.4 -0.1,-0.8 0.2,-1.4 l 11.6,-28.4 q 1.8,-4.4 0.2,-4.4 -1,0 -2.1,0.3 -1.1,0.2 -2.4,1.2 -1.3,1 -2.9,3.1 -0.4,0.4 -0.9,0.4 -0.4,-0.1 -0.6,-0.8 0,-0.6 0.3,-1.5 0.4,-1 0.9,-1.9 0.5,-1 0.9,-1.6 1.5,-2.29997 4,-3.59997 2.6,-1.3 6,-1.4 1.1,0 2.00002,0.6 0.9,0.5 1.3,1.5 0.5,1 0,2.19997 l -6.60002,17 q -0.3,0.7 0.1,0.8 0.5,0.1 0.8,-0.4 4.10002,-7 8.30002,-11.8 4.3,-4.9 8.2,-7.39997 3.9,-2.5 6.9,-2.5 2.1,0 3.6,1.5 1.6,1.4 2,3.89997 0.5,2.4 -0.9,5.6 l -9.2,21.8 q -1.5,3.6 0.5,3.6 1.2,0 2.9,-0.9 1.8,-0.9 3.6,-2.1 1.8,-1.3 3.1,-2.3 1.4,-1.1 1.8,-1.5 0.1,-0.1 0.1,-0.1 0.1,0 0.2,0 0.3,0 0.5,0.3 0.3,0.2 0.3,0.6 0,0.8 -0.4,1.4 -2.6,3.1 -5.6,5.6 -2.9,2.5 -6.1,4 -3.1,1.4 -6.3,1.4 -0.9,0 -1.8,-0.7 -0.9,-0.6 -1.4,-1.6 -0.4,-1 0.1,-2.1 2.9,-6.7 5.8,-13.3 3,-6.7 5.6,-13.4 1.6,-4.1 1.1,-5.7 -0.5,-1.7 -1.9,-1.8 -1.1,-0.1 -2.6,0.8 -1.5,0.8 -3.4,2.6 -1.9,1.7 -4.1,4.4 -1.2,1.4 -3.2,4.4 -2,2.9 -4.50002,6.8 -2.5,3.8 -5.2,8.2 -2.6,4.3 -5,8.5 -0.9,1.6 -1.6,2.3 -0.7,0.8 -1.5,0.8 z"
         style="font-size:100px;line-height:1.25;font-family:'EB Garamond';-inkscape-font-specification:'EB Garamond Italic'"
         id="path532" />
      <path
         d="m -940.25033,1058.022 q -0.455,0 -1.43,-0.065 -0.975,-0.065 -2.21,-0.13 -1.235,-0.065 -2.6,-0.13 -1.3,-0.065 -2.535,-0.065 -1.235,0 -3.51,0.065 -2.275,0.065 -4.81,0.13 -2.47,0 -4.355,0.065 -1.885,0.065 -2.405,0.065 -0.26,0 -0.78,-0.39 -0.52,-0.455 -0.52,-0.715 0,-0.325 0.13,-0.455 0.13,-0.13 0.39,-0.39 l 11.115,-11.505 q 3.25,-3.38 5.395,-7.54 2.145,-4.225 2.145,-8.515 0,-3.445 -2.08,-5.395 -2.08,-2.015 -4.875,-2.015 -2.665,0 -4.94,1.495 -2.275,1.43 -3.64,3.77 -0.195,0.39 -0.52,0.65 -0.26,0.26 -0.585,0.26 -0.26,0 -0.65,-0.52 -0.325,-0.585 -0.325,-1.43 0,-0.78 0.91,-2.145 0.975,-1.365 2.665,-2.795 1.69,-1.43 4.03,-2.405 2.34,-1.04 5.07,-1.04 3.25,0 5.59,1.365 2.34,1.365 3.575,3.77 1.235,2.405 1.235,5.59 0,1.755 -0.65,3.77 -0.585,2.015 -1.69,3.965 -1.04,1.95 -2.405,3.64 -0.845,1.04 -2.535,2.795 -1.625,1.69 -3.575,3.64 -1.885,1.95 -3.64,3.705 -1.69,1.69 -2.795,2.86 -1.105,1.105 -1.105,1.235 0,0.325 0.91,0.455 1.105,0.065 2.47,0.13 1.43,0.065 3.25,0.065 1.885,0 3.77,-0.065 1.885,-0.065 3.64,-0.13 1.885,-0.13 2.925,-0.325 1.04,-0.195 1.755,-0.78 0.715,-0.65 1.495,-1.95 0.26,-0.39 0.65,-0.91 0.455,-0.585 0.975,-0.585 0.325,0 0.39,0.26 0.065,0.26 0.065,0.52 0,0.325 -0.39,1.3 -0.325,0.91 -0.78,2.275 -0.455,1.365 -0.78,2.99 -0.195,1.04 -0.65,1.3 -0.455,0.26 -0.78,0.26 z"
         style="font-style:normal;font-size:65%;font-family:'EB Garamond';-inkscape-font-specification:'EB Garamond';baseline-shift:sub"
         id="path534" />
    </g>
    <rect
       transform="translate(-1095,-317.63779)"
       style="display:inline;opacity:1;fill:#aae3e3;fill-opacity:1;fill-rule:evenodd;stroke:none;stroke-width:10;stroke-linecap:square;stroke-linejoin:miter;stroke-miterlimit:4;stroke-dasharray:30, 30;stroke-dashoffset:0;stroke-opacity:1"
       id="rect4873-8"
       width="1900"
       height="299.48746"
       x="0"
       y="1400.5126" />
    <g
       style="display:inline"
       id="g4626"
       transform="translate(-1095,-317.94329)">
      <path
         sodipodi:nodetypes="cc"
         inkscape:connector-curvature="0"
         id="path4307"
         d="m 1661.6488,1108.1993 0,-114.78303"
         style="fill:none;fill-rule:evenodd;stroke:#000000;stroke-width:10;stroke-linecap:butt;stroke-linejoin:miter;stroke-miterlimit:4;stroke-dasharray:none;stroke-opacity:1;marker-end:url(#Arrow1Send)" />
      <path
         sodipodi:nodetypes="cc"
         inkscape:connector-curvature="0"
         id="path4307-2"
         d="m 1661.6488,1269.4664 0,114.783"
         style="display:inline;fill:none;fill-rule:evenodd;stroke:#000000;stroke-width:10;stroke-linecap:butt;stroke-linejoin:miter;stroke-miterlimit:4;stroke-dasharray:none;stroke-opacity:1;marker-end:url(#Arrow1Send-7)" />
    </g>
    <path
       transform="translate(-1095,-317.63779)"
       style="display:inline;fill:none;fill-rule:evenodd;stroke:#000000;stroke-width:10;stroke-linecap:butt;stroke-linejoin:miter;stroke-miterlimit:4;stroke-dasharray:none;stroke-opacity:1"
       d="m 1166.6529,895.1184 c -16.4523,21.75606 -26.1302,49.9837 -24.437,77.78823"
       id="path4284-0"
       inkscape:connector-curvature="0"
       sodipodi:nodetypes="cc" />
    <path
       transform="translate(-1095,-317.63779)"
       style="display:inline;fill:none;fill-rule:evenodd;stroke:#000000;stroke-width:10;stroke-linecap:butt;stroke-linejoin:miter;stroke-miterlimit:4;stroke-dasharray:none;stroke-opacity:1"
       d="m 671.92355,898.68575 c 21.75606,-16.45225 45.97085,-25.5283 73.77538,-23.83513"
       id="path4284"
       inkscape:connector-curvature="0"
       sodipodi:nodetypes="cc" />
    <path
       transform="translate(-1095,-317.63779)"
       style="display:inline;fill:none;fill-rule:evenodd;stroke:#000000;stroke-width:10;stroke-linecap:butt;stroke-linejoin:miter;stroke-miterlimit:4;stroke-dasharray:30, 30;stroke-dashoffset:0;stroke-opacity:1"
       d="m 995.71429,1399.6549 0,-422.51204"
       id="path4855"
       inkscape:connector-curvature="0"
       sodipodi:nodetypes="cc" />
    <path
       transform="translate(-1095,-317.63779)"
       style="display:inline;fill:none;fill-rule:evenodd;stroke:#000000;stroke-width:10;stroke-linecap:butt;stroke-linejoin:miter;stroke-miterlimit:4;stroke-dasharray:30, 30;stroke-dashoffset:0;stroke-opacity:1"
       d="M 1245.7143,974.28571 997.85714,726.42857"
       id="path4857"
       inkscape:connector-curvature="0" />
    <path
       transform="translate(-1095,-317.63779)"
       style="display:inline;fill:none;fill-rule:evenodd;stroke:#000000;stroke-width:10;stroke-linecap:butt;stroke-linejoin:miter;stroke-miterlimit:4;stroke-dasharray:30, 30;stroke-dashoffset:0;stroke-opacity:1"
       d="m 745.71429,973.56342 0,-973.58749404"
       id="path4859"
       inkscape:connector-curvature="0" />
    <path
       transform="translate(-1095,-317.63779)"
       style="display:inline;fill:none;fill-rule:evenodd;stroke:#4d4d4d;stroke-width:10.79188919;stroke-linecap:butt;stroke-linejoin:miter;stroke-miterlimit:4;stroke-dasharray:none;stroke-opacity:1"
       d="m 0,1401.0557 1900.0001,0"
       id="path4838-0"
       inkscape:connector-curvature="0" />
    <path
       transform="translate(-1095,-317.63779)"
       style="display:inline;fill:none;fill-rule:evenodd;stroke:#4d4d4d;stroke-width:10.79188919;stroke-linecap:butt;stroke-linejoin:miter;stroke-miterlimit:4;stroke-dasharray:none;stroke-opacity:1"
       d="m 0,975.03845 1900,0"
       id="path4838"
       inkscape:connector-curvature="0" />
    <g
       transform="translate(-1095,-317.63779)"
       id="g4782"
       style="display:inline;fill:#c1272d;fill-opacity:0.98039216;stroke:none">
      <path
         style="color:#000000;font-style:normal;font-variant:normal;font-weight:normal;font-stretch:normal;font-size:medium;line-height:normal;font-family:sans-serif;text-indent:0;text-align:start;text-decoration:none;text-decoration-line:none;text-decoration-style:solid;text-decoration-color:#000000;letter-spacing:normal;word-spacing:normal;text-transform:none;direction:ltr;block-progression:tb;writing-mode:lr-tb;baseline-shift:baseline;text-anchor:start;white-space:normal;clip-rule:nonzero;display:inline;overflow:visible;visibility:visible;opacity:1;isolation:auto;mix-blend-mode:normal;color-interpolation:sRGB;color-interpolation-filters:linearRGB;solid-color:#000000;solid-opacity:1;fill:#c1272d;fill-opacity:0.98039216;fill-rule:evenodd;stroke:none;stroke-width:10;stroke-linecap:butt;stroke-linejoin:miter;stroke-miterlimit:4;stroke-dasharray:none;stroke-dashoffset:0;stroke-opacity:1;color-rendering:auto;image-rendering:auto;shape-rendering:auto;text-rendering:auto;enable-background:accumulate"
         d="M 1715.7726,0.01366006 1353.6074,362.17881 745.71484,970.07138 119.25,343.60654 0.05305713,223.14882 0,234.964 l 112.17969,115.71481 630,630 3.53515,-3.53711 3.53516,3.53711 611.4277,-611.42969 369.2417,-369.15039001 z"
         id="path4147"
         inkscape:connector-curvature="0"
         sodipodi:nodetypes="ccccccccccccc" />
      <path
         id="path4788"
         d="m 132.03431,363.46288 -38.608026,-10.32376 28.284276,-28.28427 10.32375,38.60803 z"
         style="fill:#c1272d;fill-opacity:0.98039216;fill-rule:evenodd;stroke:none;stroke-width:4pt;stroke-opacity:1"
         inkscape:connector-curvature="0" />
      <path
         id="path4794"
         d="m 1373.4629,349.39425 -10.3238,38.60803 -28.2843,-28.28427 38.6081,-10.32376 z"
         style="fill:#c1272d;fill-opacity:0.98039216;fill-rule:evenodd;stroke:none;stroke-width:4pt;stroke-opacity:1"
         inkscape:connector-curvature="0" />
    </g>
    <g
       transform="translate(-1095,-317.63779)"
       id="g4814"
       style="display:inline;fill:#c1272d;fill-opacity:0.98039216;stroke:none">
      <path
         style="color:#000000;font-style:normal;font-variant:normal;font-weight:normal;font-stretch:normal;font-size:medium;line-height:normal;font-family:sans-serif;text-indent:0;text-align:start;text-decoration:none;text-decoration-line:none;text-decoration-style:solid;text-decoration-color:#000000;letter-spacing:normal;word-spacing:normal;text-transform:none;direction:ltr;block-progression:tb;writing-mode:lr-tb;baseline-shift:baseline;text-anchor:start;white-space:normal;clip-rule:nonzero;display:inline;overflow:visible;visibility:visible;opacity:1;isolation:auto;mix-blend-mode:normal;color-interpolation:sRGB;color-interpolation-filters:linearRGB;solid-color:#000000;solid-opacity:1;fill:#c1272d;fill-opacity:0.98039216;fill-rule:evenodd;stroke:none;stroke-width:10;stroke-linecap:butt;stroke-linejoin:miter;stroke-miterlimit:4;stroke-dasharray:none;stroke-dashoffset:0;stroke-opacity:1;color-rendering:auto;image-rendering:auto;shape-rendering:auto;text-rendering:auto;enable-background:accumulate"
         d="m 1900.0329,314.60877 -294.2184,294.06222 -365.0778,364.185 -102.9281,178.51421 -141.65821,245.3594 -153.91601,-266.5918 -93.2951,-158.11502 -8.66015,5 93.29509,158.11502 153.78181,262.6632 8.79436,0 9.50871,0.1786 140.8097,-241.6094 102.2698,-177.37359 364.1462,-363.2553 287.1872,-287.18723 z"
         id="path4149"
         inkscape:connector-curvature="0"
         sodipodi:nodetypes="ccccccccccccccccc" />
      <path
         style="fill:#c1272d;fill-opacity:0.98039216;fill-rule:evenodd;stroke:none;stroke-width:4pt;stroke-opacity:1"
         d="m 849.44475,1152.6261 -34.62051,-19.9644 34.64102,-20 -0.0205,39.9644 z"
         id="path4820"
         inkscape:connector-curvature="0" />
      <path
         style="fill:#c1272d;fill-opacity:0.98039216;fill-rule:evenodd;stroke:none;stroke-width:4pt;stroke-opacity:1"
         d="m 1153.6787,1133.883 0.021,39.9645 -34.641,-20 34.6205,-19.9645 z"
         id="path4826"
         inkscape:connector-curvature="0" />
      <path
         style="fill:#c1272d;fill-opacity:0.98039216;fill-rule:evenodd;stroke:none;stroke-width:4pt;stroke-opacity:1"
         d="m 1625.6696,595.88668 -10.3238,38.60804 -28.2842,-28.28427 38.608,-10.32377 z"
         id="path4830"
         inkscape:connector-curvature="0" />
    </g>
    <g
       aria-label="Luz incidente"
       id="text4867"
       style="line-height:0%;-inkscape-font-specification:sans-serif;letter-spacing:0px;word-spacing:0px;display:inline;stroke-width:1px">
      <path
         d="m -918.45198,37.226611 q -0.92625,0 -1.49625,-0.285 -0.49875,-0.21375 -0.49875,-0.57 0,-0.64125 0.64125,-0.855 0.7125,-0.285 0.92625,-0.35625 2.77875,-0.57 4.275,-1.63875 1.49625,-1.14 1.49625,-3.49125 V -3.0296387 q 0,-1.71 -0.35625,-2.49375 -0.35625,-0.855 -1.2825,-1.21125 -0.92625,-0.4275 -2.7075,-0.7125 -2.35125,-0.4275 -2.35125,-1.425 0,-0.4275 0.57,-0.57 0.57,-0.21375 1.49625,-0.21375 1.92375,0 3.06375,0.07125 1.21125,0.07125 2.28,0.1425 1.06875,0 2.63625,0 1.78125,0 3.06375,0 1.2825,-0.07125 2.63625,-0.1425 1.35375,-0.07125 3.2775,-0.07125 0.92625,0 1.49625,0.21375 0.57,0.1425 0.57,0.57 0,0.49875 -0.57,0.855 -0.57,0.35625 -1.78125,0.57 -2.63625,0.49875 -4.48875,1.21125 -1.8525,0.64125 -1.8525,2.7075 V 30.030361 q 0,2.20875 0.9975,3.2775 0.9975,1.06875 4.48875,1.06875 h 8.835 q 1.92375,0 3.34875,-0.57 1.49625,-0.64125 2.20875,-1.2825 1.425,-1.21125 2.06625,-2.1375 0.7125,-0.9975 1.63875,-2.92125 0.1425,-0.4275 0.57,-1.2825 0.49875,-0.855 0.9975,-0.855 0.4275,0 0.64125,0.4275 0.21375,0.4275 0.21375,0.855 0,0.07125 -0.0712,0.21375 0,0.07125 0,0.1425 -0.49875,1.8525 -0.92625,3.34875 -0.35625,1.49625 -0.64125,2.85 -0.21375,1.35375 -0.35625,2.85 -0.0712,0.49875 -0.285,0.855 -0.1425,0.35625 -0.7125,0.35625 -3.5625,0 -6.84,-0.07125 -3.2775,-0.07125 -6.34125,-0.1425 -2.9925,0 -5.77125,-0.07125 -2.77875,-0.07125 -5.48625,-0.07125 -1.78125,0 -4.06125,0.07125 -2.20875,0.07125 -3.91875,0.1425 -1.63875,0.1425 -1.63875,0.1425 z"
         style="font-size:71.25px;line-height:1.25;font-family:'EB Garamond';-inkscape-font-specification:'EB Garamond'"
         id="path502" />
      <path
         d="m -854.68325,38.224111 q -0.49875,0 -0.49875,-0.57 0,-0.7125 0.1425,-2.06625 0.21375,-1.425 0.21375,-2.35125 0,-0.1425 0,-0.21375 0,-0.1425 0,-0.21375 -2.77875,2.7075 -5.62875,3.91875 -2.77875,1.14 -6.1275,1.14 -2.28,0 -4.1325,-0.9975 -1.8525,-0.92625 -2.92125,-2.77875 -1.06875,-1.92375 -1.06875,-4.7025 v -14.46375 q 0,-1.5675 -0.7125,-2.49375 -0.7125,-0.92625 -2.35125,-1.5675 -0.35625,-0.1425 -0.64125,-0.35625 -0.285,-0.21375 -0.285,-0.7837497 0,-0.64125 0.285,-0.855 0.35625,-0.21375 0.78375,-0.285 2.4225,-0.1425 3.705,-0.35625 1.35375,-0.285 3.34875,-0.78375 0.21375,-0.07125 0.285,-0.07125 0.1425,0 0.285,0 0.78375,0 0.7125,0.9975 -0.21375,1.6387497 -0.35625,2.7787497 -0.0712,1.06875 -0.0712,2.7075 v 13.89375 q 0,1.71 0.855,3.20625 0.855,1.425 2.20875,2.35125 1.425,0.92625 2.92125,0.92625 1.8525,0 3.20625,-0.21375 1.425,-0.21375 2.77875,-1.21125 0.78375,-0.57 1.995,-1.8525 1.21125,-1.2825 1.21125,-3.49125 v -13.03875 q 0,-1.49625 -0.92625,-2.20875 -0.855,-0.78375 -1.995,-1.06875 -1.14,-0.285 -1.8525,-0.285 -0.64125,0 -1.06875,-0.21375 -0.4275,-0.285 -0.4275,-0.9974997 0,-0.64125 0.4275,-0.855 0.49875,-0.21375 1.06875,-0.21375 2.20875,-0.07125 3.63375,-0.1425 1.49625,-0.1425 2.63625,-0.35625 1.21125,-0.285 2.49375,-0.64125 0.1425,-0.07125 0.35625,-0.07125 0.21375,-0.07125 0.35625,-0.07125 0.92625,0 0.92625,0.78375 0,0.07125 -0.0712,0.285 0,0.1425 -0.0712,0.35625 -0.0713,0.21375 -0.21375,1.21125 -0.0713,0.9974997 -0.21375,2.0662497 -0.0713,1.06875 -0.0713,1.63875 v 16.45875 q 0,1.92375 0.35625,2.77875 0.4275,0.78375 0.92625,0.78375 0.57,0 1.63875,-0.07125 1.14,-0.1425 1.63875,-0.1425 0.35625,0 0.7125,0.1425 0.35625,0.1425 0.35625,0.78375 0,0.57 -0.285,0.78375 -0.285,0.1425 -0.7125,0.21375 -2.77875,0.35625 -4.77375,1.06875 -1.995,0.7125 -3.5625,1.35375 -0.21375,0.07125 -0.64125,0.21375 -0.4275,0.21375 -0.78375,0.21375 z"
         style="font-size:71.25px;line-height:1.25;font-family:'EB Garamond';-inkscape-font-specification:'EB Garamond'"
         id="path504" />
      <path
         d="m -840.43336,37.226611 q -0.285,0 -0.64125,-0.4275 -0.35625,-0.49875 -0.35625,-0.78375 0,-0.21375 0.4275,-0.92625 0.49875,-0.7125 1.06875,-1.63875 0.64125,-0.92625 1.14,-1.5675 1.78125,-2.565 3.42,-4.91625 1.63875,-2.4225 3.20625,-4.77375 1.63875,-2.4225 3.34875,-5.05875 1.71,-2.7075 3.63375,-5.77125 0.1425,-0.21375 0.1425,-0.4275 0,-0.285 -0.78375,-0.285 l -7.05375,-0.21375 q -0.9975,-0.07125 -1.8525,0.4275 -0.855,0.49875 -1.2825,0.92625 -0.4275,0.4275 -0.855,0.92625 -0.35625,0.49875 -0.78375,1.06875 -0.35625,0.57 -0.78375,1.14 -0.35625,0.49875 -0.7125,0.9975 -0.4275,0.4275 -1.14,0.1425 -0.64125,-0.285 -0.4275,-0.855 0.21375,-0.64125 0.49875,-1.8525 0.35625,-1.2825 0.57,-2.63625 0.285,-1.3537497 0.285,-2.2087497 0,-0.57 0.4275,-0.92625 0.4275,-0.35625 0.64125,-0.35625 0.285,0 1.06875,0.64125 0.35625,0.285 1.21125,0.35625 0.92625,0.07125 1.8525,0.07125 0.78375,0 1.49625,0 0.7125,-0.07125 1.21125,-0.07125 3.705,0 6.84,-0.07125 3.135,-0.07125 6.4125,-0.1425 0.21375,0 0.35625,0.1425 0.1425,0.1425 0.21375,0.35625 0.0713,0.21375 -0.0712,0.35625 -0.7125,0.92625 -1.35375,1.7099997 -0.64125,0.78375 -1.35375,1.8525 l -13.89375,21.01875 q -0.285,0.49875 -0.0712,0.78375 0.21375,0.285 0.7125,0.285 h 8.4075 q 0.78375,0 1.5675,-0.4275 0.855,-0.4275 1.63875,-1.21125 0.855,-0.855 1.8525,-2.20875 0.9975,-1.425 2.06625,-2.9925 0.35625,-0.49875 0.92625,-0.285 0.64125,0.21375 0.64125,0.78375 0,0.21375 -0.285,1.35375 -0.285,1.06875 -0.7125,2.49375 -0.35625,1.35375 -0.7125,2.565 -0.285,1.21125 -0.4275,1.63875 -0.21375,0.9975 -1.14,0.9975 -1.5675,0 -5.34375,-0.21375 -3.705,-0.1425 -9.5475,-0.1425 -1.49625,0 -3.135,0.1425 -1.63875,0.21375 -2.565,0.21375 z"
         style="font-size:71.25px;line-height:1.25;font-family:'EB Garamond';-inkscape-font-specification:'EB Garamond'"
         id="path506" />
      <path
         d="m -798.96602,37.084111 q -0.64125,0 -1.06875,-0.21375 -0.35625,-0.1425 -0.35625,-0.57 0,-0.57 0.49875,-0.78375 0.57,-0.21375 1.14,-0.35625 1.49625,-0.35625 2.28,-0.855 0.78375,-0.57 0.78375,-1.8525 v -15.46125 q 0,-1.92375 -0.7125,-3.42 -0.64125,-1.49625 -2.49375,-1.78125 -0.35625,-0.07125 -0.57,-0.285 -0.1425,-0.21375 -0.1425,-0.64125 0,-0.78375 0.64125,-0.855 2.85,-0.6412497 4.7025,-1.7099997 1.8525,-1.14 2.77875,-1.8525 0.64125,-0.49875 0.9975,-0.49875 0.4275,0 0.4275,0.35625 0,0.57 -0.21375,2.28 -0.1425,1.6387497 -0.285,3.7049997 -0.1425,1.995 -0.1425,3.63375 v 16.53 q 0,1.21125 0.78375,1.78125 0.855,0.57 2.28,0.92625 0.57,0.1425 1.06875,0.35625 0.57,0.21375 0.57,0.78375 0,0.78375 -1.425,0.78375 -1.35375,0 -2.20875,-0.1425 -0.78375,-0.07125 -1.5675,-0.1425 -0.7125,-0.07125 -1.995,-0.07125 -1.21125,0 -1.995,0.07125 -0.78375,0.07125 -1.5675,0.1425 -0.78375,0.1425 -2.20875,0.1425 z m 5.7,-36.97874967 q -1.49625,0 -2.565,-0.9975 -0.9975,-1.06875003 -0.9975,-2.56500003 0,-1.5675 0.9975,-2.565 1.06875,-1.06875 2.565,-1.06875 1.5675,0 2.565,1.06875 1.06875,0.9975 1.06875,2.565 0,1.49625 -1.06875,2.56500003 -0.9975,0.9975 -2.565,0.9975 z"
         style="font-size:71.25px;line-height:1.25;font-family:'EB Garamond';-inkscape-font-specification:'EB Garamond'"
         id="path508" />
      <path
         d="m -781.50985,37.084111 q -0.64125,0 -1.06875,-0.21375 -0.35625,-0.1425 -0.35625,-0.57 0,-0.57 0.4275,-0.7125 0.4275,-0.21375 1.21125,-0.4275 1.06875,-0.285 2.06625,-0.78375 0.9975,-0.49875 0.9975,-1.92375 v -15.31875 q 0,-1.92375 -0.4275,-3.2775 -0.35625,-1.35375 -2.20875,-1.8525 -0.285,-0.1425 -0.49875,-0.285 -0.21375,-0.21375 -0.21375,-0.64125 0,-0.78375 0.64125,-0.855 2.49375,-0.6412497 4.06125,-1.5674997 1.5675,-0.92625 3.06375,-2.06625 0.21375,-0.1425 0.35625,-0.21375 0.21375,-0.1425 0.4275,-0.1425 0.1425,0 0.21375,0.1425 0.1425,0.1425 0.1425,0.35625 0,0.49875 -0.21375,2.06625 -0.1425,1.4962497 -0.1425,2.4937497 0,0.285 0,0.57 0.0713,0.21375 0.1425,0.285 2.49375,-2.3512497 5.2725,-3.5624997 2.85,-1.21125 6.19875,-1.21125 3.49125,0 5.77125,2.8499997 2.28,2.85 2.28,7.05375 v 15.17625 q 0,1.425 0.9975,1.92375 0.9975,0.4275 2.06625,0.78375 0.57,0.21375 1.06875,0.49875 0.57,0.21375 0.57,0.78375 0,0.4275 -0.49875,0.49875 -0.49875,0.1425 -0.92625,0.1425 -1.425,0 -2.20875,-0.1425 -0.78375,-0.07125 -1.49625,-0.1425 -0.7125,-0.07125 -1.995,-0.07125 -1.21125,0 -1.995,0.07125 -0.78375,0.07125 -1.63875,0.1425 -0.78375,0.1425 -2.20875,0.1425 -0.35625,0 -0.92625,-0.1425 -0.49875,-0.07125 -0.49875,-0.49875 0,-0.57 0.49875,-0.78375 0.57,-0.285 1.14,-0.49875 1.06875,-0.35625 2.06625,-0.78375 0.9975,-0.49875 0.9975,-1.92375 v -14.9625 q 0,-3.135 -1.78125,-4.845 -1.71,-1.78125 -4.63125,-1.8525 -2.565,0 -4.48875,0.855 -1.92375,0.78375 -3.42,1.995 -0.285,0.285 -0.4275,0.78375 -0.1425,0.4275 -0.1425,0.855 v 17.17125 q 0,1.425 0.9975,1.92375 0.9975,0.49875 2.06625,0.78375 1.63875,0.4275 1.63875,1.14 0,0.4275 -0.35625,0.57 -0.35625,0.21375 -1.06875,0.21375 -1.425,0 -2.28,-0.1425 -0.78375,-0.07125 -1.49625,-0.1425 -0.7125,-0.07125 -1.995,-0.07125 -1.21125,0 -1.995,0.07125 -0.7125,0.07125 -1.5675,0.1425 -0.78375,0.1425 -2.20875,0.1425 z"
         style="font-size:71.25px;line-height:1.25;font-family:'EB Garamond';-inkscape-font-specification:'EB Garamond'"
         id="path510" />
      <path
         d="m -731.84861,37.939111 q -3.5625,0 -6.48375,-1.78125 -2.85,-1.8525 -4.56,-4.9875 -1.63875,-3.20625 -1.63875,-7.125 0,-4.63125 1.995,-8.4075 2.06625,-3.77625 5.48625,-5.9849997 3.42,-2.28 7.5525,-2.28 4.63125,0 8.1225,2.49375 0.855,0.6412497 0.855,1.3537497 0,0.57 -0.49875,1.2825 -0.49875,0.7125 -1.21125,1.21125 -0.7125,0.4275 -1.35375,0.4275 -0.35625,0 -0.7125,-0.21375 -0.35625,-0.285 -0.78375,-0.57 -1.5675,-1.21125 -3.49125,-2.28 -1.92375,-1.06875 -3.20625,-1.06875 -3.49125,0 -5.7,3.2775 -2.1375,3.20625 -2.1375,8.47875 0,3.34875 1.425,6.05625 1.49625,2.7075 3.91875,4.275 2.49375,1.5675 5.48625,1.5675 2.06625,0 3.5625,-0.64125 1.49625,-0.7125 3.20625,-2.4225 0.1425,-0.1425 0.35625,-0.21375 0.21375,-0.1425 0.35625,-0.1425 0.78375,0 0.78375,0.9975 0,0.4275 -0.285,0.9975 -0.21375,0.49875 -0.78375,1.21125 -1.14,1.425 -2.7075,2.49375 -1.5675,0.9975 -3.49125,1.49625 -1.8525,0.49875 -4.06125,0.49875 z"
         style="font-size:71.25px;line-height:1.25;font-family:'EB Garamond';-inkscape-font-specification:'EB Garamond'"
         id="path512" />
      <path
         d="m -714.89114,37.084111 q -0.64125,0 -1.06875,-0.21375 -0.35625,-0.1425 -0.35625,-0.57 0,-0.57 0.49875,-0.78375 0.57,-0.21375 1.14,-0.35625 1.49625,-0.35625 2.28,-0.855 0.78375,-0.57 0.78375,-1.8525 v -15.46125 q 0,-1.92375 -0.7125,-3.42 -0.64125,-1.49625 -2.49375,-1.78125 -0.35625,-0.07125 -0.57,-0.285 -0.1425,-0.21375 -0.1425,-0.64125 0,-0.78375 0.64125,-0.855 2.85,-0.6412497 4.7025,-1.7099997 1.8525,-1.14 2.77875,-1.8525 0.64125,-0.49875 0.9975,-0.49875 0.4275,0 0.4275,0.35625 0,0.57 -0.21375,2.28 -0.1425,1.6387497 -0.285,3.7049997 -0.1425,1.995 -0.1425,3.63375 v 16.53 q 0,1.21125 0.78375,1.78125 0.855,0.57 2.28,0.92625 0.57,0.1425 1.06875,0.35625 0.57,0.21375 0.57,0.78375 0,0.78375 -1.425,0.78375 -1.35375,0 -2.20875,-0.1425 -0.78375,-0.07125 -1.5675,-0.1425 -0.7125,-0.07125 -1.995,-0.07125 -1.21125,0 -1.995,0.07125 -0.78375,0.07125 -1.5675,0.1425 -0.78375,0.1425 -2.20875,0.1425 z m 5.7,-36.97874967 q -1.49625,0 -2.565,-0.9975 -0.9975,-1.06875003 -0.9975,-2.56500003 0,-1.5675 0.9975,-2.565 1.06875,-1.06875 2.565,-1.06875 1.5675,0 2.565,1.06875 1.06875,0.9975 1.06875,2.565 0,1.49625 -1.06875,2.56500003 -0.9975,0.9975 -2.565,0.9975 z"
         style="font-size:71.25px;line-height:1.25;font-family:'EB Garamond';-inkscape-font-specification:'EB Garamond'"
         id="path514" />
      <path
         d="m -675.13371,38.224111 q -0.1425,0 -0.49875,-0.285 -0.285,-0.285 -0.285,-0.4275 0,-0.7125 0.1425,-1.995 0.21375,-1.35375 0.21375,-2.28 v -0.4275 q -1.06875,1.63875 -3.42,3.34875 -2.35125,1.71 -5.91375,1.71 -4.06125,0 -7.05375,-2.1375 -2.92125,-2.1375 -4.56,-5.48625 -1.5675,-3.34875 -1.5675,-6.91125 0,-4.1325 1.92375,-7.76625 1.92375,-3.63375 5.48625,-5.9137497 3.63375,-2.28 8.62125,-2.28 1.425,0 2.85,0.285 1.49625,0.21375 2.28,0.49875 0.64125,0.21375 0.92625,0.21375 0.49875,0 0.49875,-1.71 v -10.1175 q 0,-2.92125 -0.92625,-3.91875 -0.92625,-0.9975 -2.63625,-1.2825 -0.64125,-0.1425 -0.64125,-0.92625 0,-0.6412503 0.57,-0.8550003 3.135,-0.78375 4.91625,-1.49625 1.78125,-0.7125 2.77875,-1.14 0.285,-0.1425 0.49875,-0.1425 0.285,-0.07125 0.4275,-0.07125 0.4275,0 0.49875,0.4275 0,0.4275 -0.1425,1.49625 -0.0712,0.9975 -0.21375,2.9925003 -0.1425,1.995 -0.1425,5.20125 V 29.032861 q 0,2.4225 0.35625,3.5625 0.35625,1.06875 1.14,1.06875 0.35625,0 1.21125,-0.07125 0.92625,-0.07125 1.8525,-0.1425 1.2825,-0.07125 1.2825,0.64125 0,0.49875 -0.35625,0.92625 -0.285,0.35625 -0.64125,0.35625 -1.995,0.285 -3.91875,0.855 -1.92375,0.49875 -4.4175,1.5675 -0.57,0.285 -0.78375,0.35625 -0.1425,0.07125 -0.35625,0.07125 z m -7.19625,-4.06125 q 1.8525,0 3.63375,-0.92625 1.78125,-0.9975 3.135,-2.565 l 0.0712,-12.825 q 0,-1.92375 -1.14,-3.77625 -1.06875,-1.8525 -3.06375,-2.9925 -1.92375,-1.2112497 -4.56,-1.2112497 -1.63875,0 -3.705,0.9974997 -2.06625,0.9975 -3.5625,3.5625 -1.49625,2.49375 -1.49625,7.2675 0,4.06125 1.21125,6.555 1.21125,2.4225 2.92125,3.705 1.78125,1.2825 3.5625,1.78125 1.8525,0.4275 2.9925,0.4275 z"
         style="font-size:71.25px;line-height:1.25;font-family:'EB Garamond';-inkscape-font-specification:'EB Garamond'"
         id="path516" />
      <path
         d="m -649.3413,37.939111 q -3.91875,0 -6.84,-1.92375 -2.92125,-1.92375 -4.56,-5.415 -1.63875,-3.5625 -1.63875,-8.19375 0,-4.1325 1.8525,-7.48125 1.92375,-3.42 5.05875,-5.4862497 3.135,-2.06625 6.84,-2.06625 2.85,0 5.05875,1.14 2.20875,1.14 3.42,3.2062497 1.2825,1.995 1.2825,4.63125 0,2.20875 -2.1375,2.20875 h -15.03375 q -0.9975,0 -1.425,0.57 -0.35625,0.49875 -0.35625,2.06625 0,3.42 1.49625,6.27 1.49625,2.77875 3.99,4.48875 2.49375,1.63875 5.48625,1.63875 2.1375,0 3.8475,-0.78375 1.78125,-0.855 3.135,-2.4225 0.285,-0.35625 0.4275,-0.4275 0.1425,-0.1425 0.35625,-0.1425 0.57,0 0.57,0.7125 0,1.35375 -1.2825,2.9925 -1.06875,1.35375 -2.565,2.35125 -1.49625,0.9975 -3.2775,1.49625 -1.78125,0.57 -3.705,0.57 z m -6.555,-21.58875 h 6.48375 q 1.71,0 2.92125,-0.07125 1.21125,-0.07125 2.35125,-0.285 0.35625,-0.07125 0.4275,-0.4275 0.1425,-0.4275 0.1425,-1.14 0,-2.06625 -1.8525,-3.49125 -1.78125,-1.4962497 -4.275,-1.4962497 -1.63875,0 -3.2775,0.9974997 -1.63875,0.92625 -2.7075,2.35125 -1.06875,1.425 -1.06875,2.85 0,0.7125 0.855,0.7125 z"
         style="font-size:71.25px;line-height:1.25;font-family:'EB Garamond';-inkscape-font-specification:'EB Garamond'"
         id="path518" />
      <path
         d="m -633.5951,37.084111 q -0.64125,0 -1.06875,-0.21375 -0.35625,-0.1425 -0.35625,-0.57 0,-0.57 0.4275,-0.7125 0.4275,-0.21375 1.21125,-0.4275 1.06875,-0.285 2.06625,-0.78375 0.9975,-0.49875 0.9975,-1.92375 v -15.31875 q 0,-1.92375 -0.4275,-3.2775 -0.35625,-1.35375 -2.20875,-1.8525 -0.285,-0.1425 -0.49875,-0.285 -0.21375,-0.21375 -0.21375,-0.64125 0,-0.78375 0.64125,-0.855 2.49375,-0.6412497 4.06125,-1.5674997 1.5675,-0.92625 3.06375,-2.06625 0.21375,-0.1425 0.35625,-0.21375 0.21375,-0.1425 0.4275,-0.1425 0.1425,0 0.21375,0.1425 0.1425,0.1425 0.1425,0.35625 0,0.49875 -0.21375,2.06625 -0.1425,1.4962497 -0.1425,2.4937497 0,0.285 0,0.57 0.0712,0.21375 0.1425,0.285 2.49375,-2.3512497 5.2725,-3.5624997 2.85,-1.21125 6.19875,-1.21125 3.49125,0 5.77125,2.8499997 2.28,2.85 2.28,7.05375 v 15.17625 q 0,1.425 0.9975,1.92375 0.9975,0.4275 2.06625,0.78375 0.57,0.21375 1.06875,0.49875 0.57,0.21375 0.57,0.78375 0,0.4275 -0.49875,0.49875 -0.49875,0.1425 -0.92625,0.1425 -1.425,0 -2.20875,-0.1425 -0.78375,-0.07125 -1.49625,-0.1425 -0.7125,-0.07125 -1.995,-0.07125 -1.21125,0 -1.995,0.07125 -0.78375,0.07125 -1.63875,0.1425 -0.78375,0.1425 -2.20875,0.1425 -0.35625,0 -0.92625,-0.1425 -0.49875,-0.07125 -0.49875,-0.49875 0,-0.57 0.49875,-0.78375 0.57,-0.285 1.14,-0.49875 1.06875,-0.35625 2.06625,-0.78375 0.9975,-0.49875 0.9975,-1.92375 v -14.9625 q 0,-3.135 -1.78125,-4.845 -1.71,-1.78125 -4.63125,-1.8525 -2.565,0 -4.48875,0.855 -1.92375,0.78375 -3.42,1.995 -0.285,0.285 -0.4275,0.78375 -0.1425,0.4275 -0.1425,0.855 v 17.17125 q 0,1.425 0.9975,1.92375 0.9975,0.49875 2.06625,0.78375 1.63875,0.4275 1.63875,1.14 0,0.4275 -0.35625,0.57 -0.35625,0.21375 -1.06875,0.21375 -1.425,0 -2.28,-0.1425 -0.78375,-0.07125 -1.49625,-0.1425 -0.7125,-0.07125 -1.995,-0.07125 -1.21125,0 -1.995,0.07125 -0.7125,0.07125 -1.5675,0.1425 -0.78375,0.1425 -2.20875,0.1425 z"
         style="font-size:71.25px;line-height:1.25;font-family:'EB Garamond';-inkscape-font-specification:'EB Garamond'"
         id="path520" />
      <path
         d="m -585.64386,37.867861 q -3.49125,0 -5.48625,-2.1375 -1.92375,-2.1375 -1.92375,-6.34125 v -16.53 q 0,-0.57 -0.4275,-0.78375 -0.4275,-0.285 -1.8525,-0.285 h -0.4275 q -0.35625,0 -0.64125,-0.4275 -0.21375,-0.49875 -0.21375,-0.9975 0,-0.1425 0.21375,-0.4274997 0.21375,-0.285 0.285,-0.35625 1.425,-0.9975 2.565,-1.995 1.21125,-0.9975 2.1375,-1.92375 0.9975,-0.9975 1.63875,-1.78125 0.35625,-0.35625 0.57,-0.57 0.285,-0.285 0.64125,-0.285 0.35625,0 0.64125,0.1425 0.35625,0.1425 0.285,0.64125 l -0.35625,3.20625 q -0.0713,0.78375 0.35625,1.06875 0.4275,0.285 1.35375,0.285 h 8.1225 q 0.285,0 0.49875,0.49875 0.21375,0.4275 0.21375,1.06875 0,0.6412497 -0.21375,1.2824997 -0.21375,0.57 -0.49875,0.57 h -7.05375 q -1.78125,0 -2.35125,0.285 -0.49875,0.285 -0.49875,1.71 v 14.03625 q 0,2.85 1.21125,4.48875 1.21125,1.63875 3.49125,1.63875 2.06625,0 3.20625,-0.285 1.14,-0.35625 2.06625,-0.9975 0.1425,-0.1425 0.285,-0.1425 0.285,0 0.35625,0.35625 0.1425,0.285 0.1425,0.64125 0,0.35625 -1.21125,1.425 -1.14,1.06875 -3.06375,1.995 -1.8525,0.92625 -4.06125,0.92625 z"
         style="font-size:71.25px;line-height:1.25;font-family:'EB Garamond';-inkscape-font-specification:'EB Garamond'"
         id="path522" />
      <path
         d="m -561.56142,37.939111 q -3.91875,0 -6.84,-1.92375 -2.92125,-1.92375 -4.56,-5.415 -1.63875,-3.5625 -1.63875,-8.19375 0,-4.1325 1.8525,-7.48125 1.92375,-3.42 5.05875,-5.4862497 3.135,-2.06625 6.84,-2.06625 2.85,0 5.05875,1.14 2.20875,1.14 3.42,3.2062497 1.2825,1.995 1.2825,4.63125 0,2.20875 -2.1375,2.20875 h -15.03375 q -0.9975,0 -1.425,0.57 -0.35625,0.49875 -0.35625,2.06625 0,3.42 1.49625,6.27 1.49625,2.77875 3.99,4.48875 2.49375,1.63875 5.48625,1.63875 2.1375,0 3.8475,-0.78375 1.78125,-0.855 3.135,-2.4225 0.285,-0.35625 0.4275,-0.4275 0.1425,-0.1425 0.35625,-0.1425 0.57,0 0.57,0.7125 0,1.35375 -1.2825,2.9925 -1.06875,1.35375 -2.565,2.35125 -1.49625,0.9975 -3.2775,1.49625 -1.78125,0.57 -3.705,0.57 z m -6.555,-21.58875 h 6.48375 q 1.71,0 2.92125,-0.07125 1.21125,-0.07125 2.35125,-0.285 0.35625,-0.07125 0.4275,-0.4275 0.1425,-0.4275 0.1425,-1.14 0,-2.06625 -1.8525,-3.49125 -1.78125,-1.4962497 -4.275,-1.4962497 -1.63875,0 -3.2775,0.9974997 -1.63875,0.92625 -2.7075,2.35125 -1.06875,1.425 -1.06875,2.85 0,0.7125 0.855,0.7125 z"
         style="font-size:71.25px;line-height:1.25;font-family:'EB Garamond';-inkscape-font-specification:'EB Garamond'"
         id="path524" />
    </g>
    <g
       aria-label="Luz reflejada"
       id="text4867-3"
       style="line-height:0%;-inkscape-font-specification:sans-serif;letter-spacing:0px;word-spacing:0px;display:inline;opacity:0.98;stroke-width:1px">
      <path
         d="m 352.29543,60.169055 q -0.92625,0 -1.49625,-0.285 -0.49875,-0.21375 -0.49875,-0.57 0,-0.64125 0.64125,-0.855 0.7125,-0.285 0.92625,-0.35625 2.77875,-0.57 4.275,-1.63875 1.49625,-1.14 1.49625,-3.49125 v -33.06 q 0,-1.71 -0.35625,-2.49375 -0.35625,-0.855 -1.2825,-1.21125 -0.92625,-0.4275 -2.7075,-0.7125 -2.35125,-0.4275 -2.35125,-1.425 0,-0.4275 0.57,-0.57 0.57,-0.21375 1.49625,-0.21375 1.92375,0 3.06375,0.07125 1.21125,0.07125 2.28,0.1425 1.06875,0 2.63625,0 1.78125,0 3.06375,0 1.2825,-0.07125 2.63625,-0.1425 1.35375,-0.07125 3.2775,-0.07125 0.92625,0 1.49625,0.21375 0.57,0.1425 0.57,0.57 0,0.49875 -0.57,0.855 -0.57,0.35625 -1.78125,0.57 -2.63625,0.49875 -4.48875,1.21125 -1.8525,0.64125 -1.8525,2.7075 v 33.55875 q 0,2.20875 0.9975,3.2775 0.9975,1.06875 4.48875,1.06875 h 8.835 q 1.92375,0 3.34875,-0.57 1.49625,-0.64125 2.20875,-1.2825 1.425,-1.21125 2.06625,-2.1375 0.7125,-0.9975 1.63875,-2.92125 0.1425,-0.4275 0.57,-1.2825 0.49875,-0.855 0.9975,-0.855 0.4275,0 0.64125,0.4275 0.21375,0.4275 0.21375,0.855 0,0.07125 -0.0713,0.21375 0,0.07125 0,0.1425 -0.49875,1.8525 -0.92625,3.34875 -0.35625,1.49625 -0.64125,2.85 -0.21375,1.35375 -0.35625,2.85 -0.0713,0.49875 -0.285,0.855 -0.1425,0.35625 -0.7125,0.35625 -3.5625,0 -6.84,-0.07125 -3.2775,-0.07125 -6.34125,-0.1425 -2.9925,0 -5.77125,-0.07125 -2.77875,-0.07125 -5.48625,-0.07125 -1.78125,0 -4.06125,0.07125 -2.20875,0.07125 -3.91875,0.1425 -1.63875,0.1425 -1.63875,0.1425 z"
         style="font-size:71.25px;line-height:1.25;font-family:'EB Garamond';-inkscape-font-specification:'EB Garamond'"
         id="path564" />
      <path
         d="m 416.06415,61.166555 q -0.49875,0 -0.49875,-0.57 0,-0.7125 0.1425,-2.06625 0.21375,-1.425 0.21375,-2.35125 0,-0.1425 0,-0.21375 0,-0.1425 0,-0.21375 -2.77875,2.7075 -5.62875,3.91875 -2.77875,1.14 -6.1275,1.14 -2.28,0 -4.1325,-0.9975 -1.8525,-0.92625 -2.92125,-2.77875 -1.06875,-1.92375 -1.06875,-4.7025 v -14.46375 q 0,-1.5675 -0.7125,-2.49375 -0.7125,-0.92625 -2.35125,-1.5675 -0.35625,-0.1425 -0.64125,-0.35625 -0.285,-0.21375 -0.285,-0.78375 0,-0.64125 0.285,-0.855 0.35625,-0.21375 0.78375,-0.285 2.4225,-0.1425 3.705,-0.35625 1.35375,-0.285 3.34875,-0.78375 0.21375,-0.07125 0.285,-0.07125 0.1425,0 0.285,0 0.78375,0 0.7125,0.9975 -0.21375,1.63875 -0.35625,2.77875 -0.0713,1.06875 -0.0713,2.7075 v 13.89375 q 0,1.71 0.855,3.20625 0.855,1.425 2.20875,2.35125 1.425,0.92625 2.92125,0.92625 1.8525,0 3.20625,-0.21375 1.425,-0.21375 2.77875,-1.21125 0.78375,-0.57 1.995,-1.8525 1.21125,-1.2825 1.21125,-3.49125 v -13.03875 q 0,-1.49625 -0.92625,-2.20875 -0.855,-0.78375 -1.995,-1.06875 -1.14,-0.285 -1.8525,-0.285 -0.64125,0 -1.06875,-0.21375 -0.4275,-0.285 -0.4275,-0.9975 0,-0.64125 0.4275,-0.855 0.49875,-0.21375 1.06875,-0.21375 2.20875,-0.07125 3.63375,-0.1425 1.49625,-0.1425 2.63625,-0.35625 1.21125,-0.285 2.49375,-0.64125 0.1425,-0.07125 0.35625,-0.07125 0.21375,-0.07125 0.35625,-0.07125 0.92625,0 0.92625,0.78375 0,0.07125 -0.0713,0.285 0,0.1425 -0.0712,0.35625 -0.0713,0.21375 -0.21375,1.21125 -0.0713,0.9975 -0.21375,2.06625 -0.0713,1.06875 -0.0713,1.63875 v 16.45875 q 0,1.92375 0.35625,2.77875 0.4275,0.78375 0.92625,0.78375 0.57,0 1.63875,-0.07125 1.14,-0.1425 1.63875,-0.1425 0.35625,0 0.7125,0.1425 0.35625,0.1425 0.35625,0.78375 0,0.57 -0.285,0.78375 -0.285,0.1425 -0.7125,0.21375 -2.77875,0.35625 -4.77375,1.06875 -1.995,0.7125 -3.5625,1.35375 -0.21375,0.07125 -0.64125,0.21375 -0.4275,0.21375 -0.78375,0.21375 z"
         style="font-size:71.25px;line-height:1.25;font-family:'EB Garamond';-inkscape-font-specification:'EB Garamond'"
         id="path566" />
      <path
         d="m 430.31404,60.169055 q -0.285,0 -0.64125,-0.4275 -0.35625,-0.49875 -0.35625,-0.78375 0,-0.21375 0.4275,-0.92625 0.49875,-0.7125 1.06875,-1.63875 0.64125,-0.92625 1.14,-1.5675 1.78125,-2.565 3.42,-4.91625 1.63875,-2.4225 3.20625,-4.77375 1.63875,-2.4225 3.34875,-5.05875 1.71,-2.7075 3.63375,-5.77125 0.1425,-0.21375 0.1425,-0.4275 0,-0.285 -0.78375,-0.285 l -7.05375,-0.21375 q -0.9975,-0.07125 -1.8525,0.4275 -0.855,0.49875 -1.2825,0.92625 -0.4275,0.4275 -0.855,0.92625 -0.35625,0.49875 -0.78375,1.06875 -0.35625,0.57 -0.78375,1.14 -0.35625,0.49875 -0.7125,0.9975 -0.4275,0.4275 -1.14,0.1425 -0.64125,-0.285 -0.4275,-0.855 0.21375,-0.64125 0.49875,-1.8525 0.35625,-1.2825 0.57,-2.63625 0.285,-1.35375 0.285,-2.20875 0,-0.57 0.4275,-0.92625 0.4275,-0.35625 0.64125,-0.35625 0.285,0 1.06875,0.64125 0.35625,0.285 1.21125,0.35625 0.92625,0.07125 1.8525,0.07125 0.78375,0 1.49625,0 0.7125,-0.07125 1.21125,-0.07125 3.705,0 6.84,-0.07125 3.135,-0.07125 6.4125,-0.1425 0.21375,0 0.35625,0.1425 0.1425,0.1425 0.21375,0.35625 0.0713,0.21375 -0.0712,0.35625 -0.7125,0.92625 -1.35375,1.71 -0.64125,0.78375 -1.35375,1.8525 l -13.89375,21.01875 q -0.285,0.49875 -0.0712,0.78375 0.21375,0.285 0.7125,0.285 h 8.4075 q 0.78375,0 1.5675,-0.4275 0.855,-0.4275 1.63875,-1.21125 0.855,-0.855 1.8525,-2.20875 0.9975,-1.425 2.06625,-2.9925 0.35625,-0.49875 0.92625,-0.285 0.64125,0.21375 0.64125,0.78375 0,0.21375 -0.285,1.35375 -0.285,1.06875 -0.7125,2.49375 -0.35625,1.35375 -0.7125,2.565 -0.285,1.21125 -0.4275,1.63875 -0.21375,0.9975 -1.14,0.9975 -1.5675,0 -5.34375,-0.21375 -3.705,-0.1425 -9.5475,-0.1425 -1.49625,0 -3.135,0.1425 -1.63875,0.21375 -2.565,0.21375 z"
         style="font-size:71.25px;line-height:1.25;font-family:'EB Garamond';-inkscape-font-specification:'EB Garamond'"
         id="path568" />
      <path
         d="m 472.13764,60.026555 q -0.7125,0 -1.06875,-0.21375 -0.35625,-0.1425 -0.35625,-0.57 0,-0.57 0.4275,-0.7125 0.4275,-0.21375 1.21125,-0.4275 1.35375,-0.35625 1.995,-0.9975 0.7125,-0.7125 0.7125,-1.71 v -15.31875 q 0,-1.92375 -0.57,-3.34875 -0.57,-1.425 -2.35125,-1.78125 -0.285,-0.07125 -0.49875,-0.35625 -0.21375,-0.285 -0.21375,-0.57 0,-0.7125 0.64125,-0.855 1.8525,-0.57 3.8475,-1.63875 2.06625,-1.14 3.20625,-1.8525 0.4275,-0.285 0.64125,-0.35625 0.285,-0.1425 0.4275,-0.1425 0.35625,0 0.35625,0.49875 0,0.21375 -0.0713,1.06875 0,0.855 -0.0712,1.995 0,1.14 -0.0713,2.28 0,0.1425 0.1425,0.1425 1.14,-1.425 2.49375,-2.49375 1.425,-1.06875 2.85,-1.71 1.49625,-0.64125 2.85,-0.64125 1.49625,0 2.4225,0.64125 0.9975,0.64125 0.9975,1.63875 0,0.7125 -0.4275,1.5675 -0.35625,0.855 -0.9975,1.49625 -0.64125,0.64125 -1.35375,0.64125 -0.4275,0 -0.92625,-0.1425 -0.49875,-0.21375 -1.06875,-0.49875 -0.57,-0.21375 -1.14,-0.4275 -0.57,-0.21375 -1.14,-0.21375 -1.71,0 -3.34875,1.21125 -1.5675,1.21125 -1.5675,4.77375 v 14.3925 q 0,0.92625 0.9975,1.5675 0.9975,0.57 2.77875,1.14 0.78375,0.21375 1.21125,0.4275 0.4275,0.21375 0.4275,0.7125 0,0.78375 -1.425,0.78375 -2.1375,0 -3.2775,-0.21375 -1.06875,-0.1425 -2.92125,-0.1425 -1.21125,0 -1.995,0.07125 -0.7125,0.07125 -1.5675,0.1425 -0.78375,0.1425 -2.20875,0.1425 z"
         style="font-size:71.25px;line-height:1.25;font-family:'EB Garamond';-inkscape-font-specification:'EB Garamond'"
         id="path570" />
      <path
         d="m 507.62011,60.881555 q -3.91875,0 -6.84,-1.92375 -2.92125,-1.92375 -4.56,-5.415 -1.63875,-3.5625 -1.63875,-8.19375 0,-4.1325 1.8525,-7.48125 1.92375,-3.42 5.05875,-5.48625 3.135,-2.06625 6.84,-2.06625 2.85,0 5.05875,1.14 2.20875,1.14 3.42,3.20625 1.2825,1.995 1.2825,4.63125 0,2.20875 -2.1375,2.20875 h -15.03375 q -0.9975,0 -1.425,0.57 -0.35625,0.49875 -0.35625,2.06625 0,3.42 1.49625,6.27 1.49625,2.77875 3.99,4.48875 2.49375,1.63875 5.48625,1.63875 2.1375,0 3.8475,-0.78375 1.78125,-0.855 3.135,-2.4225 0.285,-0.35625 0.4275,-0.4275 0.1425,-0.1425 0.35625,-0.1425 0.57,0 0.57,0.7125 0,1.35375 -1.2825,2.9925 -1.06875,1.35375 -2.565,2.35125 -1.49625,0.9975 -3.2775,1.49625 -1.78125,0.57 -3.705,0.57 z m -6.555,-21.58875 h 6.48375 q 1.71,0 2.92125,-0.07125 1.21125,-0.07125 2.35125,-0.285 0.35625,-0.07125 0.4275,-0.4275 0.1425,-0.4275 0.1425,-1.14 0,-2.06625 -1.8525,-3.49125 -1.78125,-1.49625 -4.275,-1.49625 -1.63875,0 -3.2775,0.9975 -1.63875,0.92625 -2.7075,2.35125 -1.06875,1.425 -1.06875,2.85 0,0.7125 0.855,0.7125 z"
         style="font-size:71.25px;line-height:1.25;font-family:'EB Garamond';-inkscape-font-specification:'EB Garamond'"
         id="path572" />
      <path
         d="m 523.58007,60.026555 q -0.35625,0 -0.92625,-0.1425 -0.49875,-0.07125 -0.49875,-0.49875 0,-0.57 0.49875,-0.78375 0.57,-0.285 1.14,-0.49875 1.06875,-0.35625 2.06625,-0.92625 0.9975,-0.64125 0.9975,-2.20875 v -20.0925 q -0.7125,0 -1.92375,0 -1.14,-0.07125 -2.28,-0.1425 -0.21375,-0.07125 -0.49875,-0.49875 -0.21375,-0.49875 -0.21375,-0.855 0,-0.285 0.21375,-0.35625 1.63875,-0.4275 2.63625,-0.855 0.9975,-0.49875 2.06625,-0.9975 0.0712,-6.4125 1.8525,-10.61625 1.78125,-4.20375 4.48875,-6.62625 2.77875,-2.4225 5.62875,-3.42 2.92125,-0.9974998 5.2725,-0.9974998 0.78375,0 1.78125,0.1425 0.9975,0.07125 1.995,0.4274998 0.285,0.07125 0.49875,0.1425 0.285,0 0.57,-0.07125 0.21375,-0.1425 0.4275,-0.2137498 0.285,-0.1425 0.57,-0.21375 0.1425,-0.07125 0.35625,-0.07125 0.21375,0 0.285,0.07125 0.1425,0.07125 0.1425,0.3562498 0,0.64125 -0.21375,2.77875 -0.21375,2.06625 -0.21375,6.91125 v 35.1975 q 0,1.5675 0.92625,2.20875 0.9975,0.57 2.06625,0.92625 0.57,0.21375 1.06875,0.49875 0.57,0.21375 0.57,0.78375 0,0.4275 -0.57,0.49875 -0.49875,0.1425 -0.855,0.1425 -1.425,0 -2.28,-0.1425 -0.78375,-0.07125 -1.49625,-0.1425 -0.7125,-0.07125 -1.995,-0.07125 -1.21125,0 -1.995,0.07125 -0.7125,0.07125 -1.5675,0.1425 -0.78375,0.1425 -2.20875,0.1425 -0.35625,0 -0.92625,-0.1425 -0.49875,-0.07125 -0.49875,-0.49875 0,-0.57 0.49875,-0.78375 0.57,-0.285 1.14,-0.49875 1.06875,-0.35625 2.06625,-0.92625 1.06875,-0.64125 1.06875,-2.20875 v -19.5225 q 0,-0.4275 -0.285,-0.57 -0.285,-0.1425 -0.49875,-0.1425 h -9.8325 q -2.06625,0 -2.49375,0.4275 -0.35625,0.35625 -0.35625,0.9975 v 18.81 q 0,1.5675 0.9975,2.20875 0.9975,0.57 2.06625,0.92625 0.57,0.21375 1.06875,0.49875 0.57,0.21375 0.57,0.78375 0,0.4275 -0.57,0.49875 -0.49875,0.1425 -0.855,0.1425 -1.425,0 -2.28,-0.1425 -0.78375,-0.07125 -1.49625,-0.1425 -0.7125,-0.07125 -1.995,-0.07125 -1.21125,0 -1.995,0.07125 -0.7125,0.07125 -1.5675,0.1425 -0.78375,0.1425 -2.20875,0.1425 z m 10.04625,-28.71375 h 11.04375 q 0.35625,0 0.49875,-0.1425 0.1425,-0.21375 0.1425,-0.57 v -11.115 q 0,-1.14 -0.21375,-2.77875 -0.1425,-1.71 -1.06875,-2.9925 -0.92625,-1.35375 -3.20625,-1.35375 -2.20875,0 -4.275,1.425 -2.06625,1.35375 -3.42,4.34625 -1.2825,2.9925 -1.2825,7.8375 v 3.91875 q 0,0.855 0.49875,1.14 0.57,0.285 1.2825,0.285 z"
         style="font-size:71.25px;line-height:1.25;font-family:'EB Garamond';-inkscape-font-specification:'EB Garamond'"
         id="path574" />
      <path
         d="m 571.45997,60.881555 q -3.91875,0 -6.84,-1.92375 -2.92125,-1.92375 -4.56,-5.415 -1.63875,-3.5625 -1.63875,-8.19375 0,-4.1325 1.8525,-7.48125 1.92375,-3.42 5.05875,-5.48625 3.135,-2.06625 6.84,-2.06625 2.85,0 5.05875,1.14 2.20875,1.14 3.42,3.20625 1.2825,1.995 1.2825,4.63125 0,2.20875 -2.1375,2.20875 h -15.03375 q -0.9975,0 -1.425,0.57 -0.35625,0.49875 -0.35625,2.06625 0,3.42 1.49625,6.27 1.49625,2.77875 3.99,4.48875 2.49375,1.63875 5.48625,1.63875 2.1375,0 3.8475,-0.78375 1.78125,-0.855 3.135,-2.4225 0.285,-0.35625 0.4275,-0.4275 0.1425,-0.1425 0.35625,-0.1425 0.57,0 0.57,0.7125 0,1.35375 -1.2825,2.9925 -1.06875,1.35375 -2.565,2.35125 -1.49625,0.9975 -3.2775,1.49625 -1.78125,0.57 -3.705,0.57 z m -6.555,-21.58875 h 6.48375 q 1.71,0 2.92125,-0.07125 1.21125,-0.07125 2.35125,-0.285 0.35625,-0.07125 0.4275,-0.4275 0.1425,-0.4275 0.1425,-1.14 0,-2.06625 -1.8525,-3.49125 -1.78125,-1.49625 -4.275,-1.49625 -1.63875,0 -3.2775,0.9975 -1.63875,0.92625 -2.7075,2.35125 -1.06875,1.425 -1.06875,2.85 0,0.7125 0.855,0.7125 z"
         style="font-size:71.25px;line-height:1.25;font-family:'EB Garamond';-inkscape-font-specification:'EB Garamond'"
         id="path576" />
      <path
         d="m 584.14243,80.261555 q -0.35625,0 -0.92625,-0.21375 -0.57,-0.1425 -0.57,-0.49875 0,-0.4275 0.35625,-0.78375 0.35625,-0.35625 0.4275,-0.4275 1.2825,-0.35625 2.49375,-1.35375 1.21125,-0.9975 2.20875,-3.135 0.78375,-1.63875 1.21125,-4.1325 0.49875,-2.4225 0.7125,-5.13 0.21375,-2.7075 0.285,-5.2725 0.0712,-2.565 0.0712,-4.4175 v -14.9625 q 0,-1.92375 -0.7125,-3.34875 -0.7125,-1.49625 -2.565,-1.8525 -0.285,-0.07125 -0.4275,-0.35625 -0.1425,-0.285 -0.1425,-0.57 0,-0.7125 0.49875,-0.855 2.7075,-0.64125 4.56,-1.78125 1.8525,-1.14 2.85,-1.78125 0.35625,-0.21375 0.57,-0.35625 0.285,-0.1425 0.35625,-0.1425 0.49875,0 0.49875,0.35625 -0.21375,2.20875 -0.35625,5.415 -0.1425,3.135 -0.1425,5.5575 v 13.11 q 0,2.20875 -0.1425,5.20125 -0.0712,2.92125 -0.49875,6.05625 -0.4275,3.20625 -1.49625,6.05625 -0.855,2.4225 -2.49375,4.63125 -1.63875,2.20875 -3.42,3.5625 -1.78125,1.425 -3.20625,1.425 z m 8.19375,-57.21375 q -1.49625,0 -2.565,-0.9975 -0.9975,-1.06875 -0.9975,-2.565 0,-1.5675 0.9975,-2.565 1.06875,-1.06875 2.565,-1.06875 1.5675,0 2.565,1.06875 1.06875,0.9975 1.06875,2.565 0,1.49625 -1.06875,2.565 -0.9975,0.9975 -2.565,0.9975 z"
         style="font-size:71.25px;line-height:1.25;font-family:'EB Garamond';-inkscape-font-specification:'EB Garamond'"
         id="path578" />
      <path
         d="m 608.50991,60.810305 q -1.2825,0 -2.63625,-0.9975 -1.2825,-0.9975 -2.20875,-2.4225 -0.855,-1.425 -0.855,-2.7075 0,-2.28 1.21125,-3.5625 1.21125,-1.2825 3.8475,-2.35125 l 7.2675,-2.9925 q 1.425,-0.57 1.63875,-0.9975 0.285,-0.4275 0.35625,-1.8525 l 0.1425,-4.56 q 0.0713,-1.8525 -1.06875,-3.20625 -1.06875,-1.35375 -3.135,-1.35375 -1.06875,0 -2.1375,0.35625 -1.06875,0.35625 -1.78125,0.92625 -0.4275,0.285 -0.57,0.855 -0.1425,0.57 -0.1425,1.21125 0,0.285 0,0.64125 0.0712,0.35625 0.0712,0.64125 0,0.35625 -0.92625,0.9975 -0.855,0.57 -1.995,1.06875 -1.06875,0.4275 -1.78125,0.4275 -0.35625,0 -0.57,-0.1425 -0.21375,-0.21375 -0.21375,-0.49875 0,-1.14 0.7125,-2.4225 0.78375,-1.35375 2.1375,-2.49375 1.63875,-1.49625 3.5625,-2.63625 1.92375,-1.14 3.77625,-1.78125 1.8525,-0.64125 3.2775,-0.64125 2.565,0 4.20375,1.8525 1.71,1.78125 1.63875,4.48875 l -0.35625,17.1 q -0.0713,1.49625 0.64125,2.4225 0.78375,0.92625 1.92375,0.92625 1.78125,0 2.63625,-0.78375 0.35625,-0.35625 0.57,-0.35625 0.35625,0 0.57,0.21375 0.21375,0.21375 0.21375,0.57 0,0.78375 -0.78375,1.5675 -1.14,1.14 -2.49375,1.78125 -1.2825,0.7125 -2.4225,0.7125 -3.2775,0 -5.20125,-3.705 h -0.21375 q -2.35125,1.92375 -4.48875,2.77875 -2.1375,0.92625 -4.4175,0.92625 z m 3.34875,-3.42 q 1.425,0 2.4225,-0.4275 0.9975,-0.49875 1.78125,-1.2825 0.35625,-0.35625 0.57,-0.92625 0.285,-0.64125 0.35625,-1.995 l 0.1425,-3.49125 q 0.0712,-0.78375 -0.0713,-1.14 -0.1425,-0.35625 -0.57,-0.35625 -0.1425,0 -0.49875,0.07125 -0.35625,0.07125 -0.92625,0.285 -3.77625,1.35375 -5.2725,2.85 -1.425,1.425 -1.425,2.63625 0,1.8525 1.06875,2.85 1.14,0.92625 2.4225,0.92625 z"
         style="font-size:71.25px;line-height:1.25;font-family:'EB Garamond';-inkscape-font-specification:'EB Garamond'"
         id="path580" />
      <path
         d="m 654.03854,61.166555 q -0.1425,0 -0.49875,-0.285 -0.285,-0.285 -0.285,-0.4275 0,-0.7125 0.1425,-1.995 0.21375,-1.35375 0.21375,-2.28 v -0.4275 q -1.06875,1.63875 -3.42,3.34875 -2.35125,1.71 -5.91375,1.71 -4.06125,0 -7.05375,-2.1375 -2.92125,-2.1375 -4.56,-5.48625 -1.5675,-3.34875 -1.5675,-6.91125 0,-4.1325 1.92375,-7.76625 1.92375,-3.63375 5.48625,-5.91375 3.63375,-2.28 8.62125,-2.28 1.425,0 2.85,0.285 1.49625,0.21375 2.28,0.49875 0.64125,0.21375 0.92625,0.21375 0.49875,0 0.49875,-1.71 v -10.1175 q 0,-2.92125 -0.92625,-3.91875 -0.92625,-0.9975 -2.63625,-1.2825 -0.64125,-0.1425 -0.64125,-0.92625 0,-0.64125 0.57,-0.855 3.135,-0.78375 4.91625,-1.49625 1.78125,-0.7125 2.77875,-1.1399998 0.285,-0.1425 0.49875,-0.1425 0.285,-0.07125 0.4275,-0.07125 0.4275,0 0.49875,0.4274998 0,0.4275 -0.1425,1.49625 -0.0712,0.9975 -0.21375,2.9925 -0.1425,1.995 -0.1425,5.20125 v 32.205 q 0,2.4225 0.35625,3.5625 0.35625,1.06875 1.14,1.06875 0.35625,0 1.21125,-0.07125 0.92625,-0.07125 1.8525,-0.1425 1.2825,-0.07125 1.2825,0.64125 0,0.49875 -0.35625,0.92625 -0.285,0.35625 -0.64125,0.35625 -1.995,0.285 -3.91875,0.855 -1.92375,0.49875 -4.4175,1.5675 -0.57,0.285 -0.78375,0.35625 -0.1425,0.07125 -0.35625,0.07125 z m -7.19625,-4.06125 q 1.8525,0 3.63375,-0.92625 1.78125,-0.9975 3.135,-2.565 l 0.0712,-12.825 q 0,-1.92375 -1.14,-3.77625 -1.06875,-1.8525 -3.06375,-2.9925 -1.92375,-1.21125 -4.56,-1.21125 -1.63875,0 -3.705,0.9975 -2.06625,0.9975 -3.5625,3.5625 -1.49625,2.49375 -1.49625,7.2675 0,4.06125 1.21125,6.555 1.21125,2.4225 2.92125,3.705 1.78125,1.2825 3.5625,1.78125 1.8525,0.4275 2.9925,0.4275 z"
         style="font-size:71.25px;line-height:1.25;font-family:'EB Garamond';-inkscape-font-specification:'EB Garamond'"
         id="path582" />
      <path
         d="m 672.99094,60.810305 q -1.2825,0 -2.63625,-0.9975 -1.2825,-0.9975 -2.20875,-2.4225 -0.855,-1.425 -0.855,-2.7075 0,-2.28 1.21125,-3.5625 1.21125,-1.2825 3.8475,-2.35125 l 7.2675,-2.9925 q 1.425,-0.57 1.63875,-0.9975 0.285,-0.4275 0.35625,-1.8525 l 0.1425,-4.56 q 0.0712,-1.8525 -1.06875,-3.20625 -1.06875,-1.35375 -3.135,-1.35375 -1.06875,0 -2.1375,0.35625 -1.06875,0.35625 -1.78125,0.92625 -0.4275,0.285 -0.57,0.855 -0.1425,0.57 -0.1425,1.21125 0,0.285 0,0.64125 0.0713,0.35625 0.0713,0.64125 0,0.35625 -0.92625,0.9975 -0.855,0.57 -1.995,1.06875 -1.06875,0.4275 -1.78125,0.4275 -0.35625,0 -0.57,-0.1425 -0.21375,-0.21375 -0.21375,-0.49875 0,-1.14 0.7125,-2.4225 0.78375,-1.35375 2.1375,-2.49375 1.63875,-1.49625 3.5625,-2.63625 1.92375,-1.14 3.77625,-1.78125 1.8525,-0.64125 3.2775,-0.64125 2.565,0 4.20375,1.8525 1.71,1.78125 1.63875,4.48875 l -0.35625,17.1 q -0.0712,1.49625 0.64125,2.4225 0.78375,0.92625 1.92375,0.92625 1.78125,0 2.63625,-0.78375 0.35625,-0.35625 0.57,-0.35625 0.35625,0 0.57,0.21375 0.21375,0.21375 0.21375,0.57 0,0.78375 -0.78375,1.5675 -1.14,1.14 -2.49375,1.78125 -1.2825,0.7125 -2.4225,0.7125 -3.2775,0 -5.20125,-3.705 h -0.21375 q -2.35125,1.92375 -4.48875,2.77875 -2.1375,0.92625 -4.4175,0.92625 z m 3.34875,-3.42 q 1.425,0 2.4225,-0.4275 0.9975,-0.49875 1.78125,-1.2825 0.35625,-0.35625 0.57,-0.92625 0.285,-0.64125 0.35625,-1.995 l 0.1425,-3.49125 q 0.0712,-0.78375 -0.0713,-1.14 -0.1425,-0.35625 -0.57,-0.35625 -0.1425,0 -0.49875,0.07125 -0.35625,0.07125 -0.92625,0.285 -3.77625,1.35375 -5.2725,2.85 -1.425,1.425 -1.425,2.63625 0,1.8525 1.06875,2.85 1.14,0.92625 2.4225,0.92625 z"
         style="font-size:71.25px;line-height:1.25;font-family:'EB Garamond';-inkscape-font-specification:'EB Garamond'"
         id="path584" />
    </g>
    <g
       aria-label="D"
       transform="translate(-1095,-317.63779)"
       id="text4967"
       style="line-height:0%;font-family:'Liberation Serif';-inkscape-font-specification:'Liberation Serif, Normal';letter-spacing:0px;word-spacing:0px;display:inline;fill:#0000ff;stroke-width:1px">
      <path
         d="m 965.24651,718.65671 q -0.75,0 -3.375,-0.15 -2.55,-0.15 -5.925,-0.3 -3.3,-0.075 -6.3,-0.075 -1.5,0 -2.55,0.075 -0.975,0.075 -2.175,0.15 -1.125,0.15 -3.15,0.15 -0.975,0 -1.575,-0.225 -0.6,-0.225 -0.6,-0.75 0,-0.6 0.6,-0.75 0.6,-0.225 1.875,-0.45 2.85,-0.525 3.9,-1.725 1.125,-1.2 1.125,-3.9 v -33.75 q 0,-2.7 -1.125,-3.825 -1.05,-1.125 -3.9,-1.65 -1.275,-0.225 -1.875,-0.45 -0.6,-0.3 -0.6,-0.9 0,-0.525 0.6,-0.75 0.6,-0.225 1.575,-0.225 1.95,0 3.075,0.075 1.2,0 2.325,0.075 1.125,0 2.925,0 1.2,0 3,-0.075 1.875,-0.075 3.825,-0.225 2.025,-0.15 3.6,-0.225 1.65,-0.075 2.4,-0.075 7.65,0 13.05,1.875 5.4,1.8 8.775,5.1 3.375,3.225 4.95,7.575 1.65,4.275 1.65,9.225 0,5.4 -2.025,10.125 -2.025,4.725 -5.625,8.4 -3.6,3.6 -8.325,5.625 -4.725,2.025 -10.125,2.025 z m -0.9,-2.625 q 5.85,0 10.35,-2.85 4.5,-2.85 6.975,-7.875 2.55,-5.025 2.55,-11.55 0,-5.4 -1.8,-9.6 -1.8,-4.275 -4.8,-7.125 -3,-2.925 -6.75,-4.425 -3.75,-1.575 -7.575,-1.575 -3.225,0 -5.55,0.225 -2.25,0.15 -3.45,1.125 -1.2,0.975 -1.2,3.225 v 33.45 q 0,3 1.65,4.5 1.65,1.5 4.2,2.025 2.625,0.45 5.4,0.45 z"
         style="font-size:75px;line-height:1.25;font-family:'EB Garamond';-inkscape-font-specification:'EB Garamond'"
         id="path545" />
    </g>
    <g
       aria-label="A"
       transform="translate(-1095,-317.63779)"
       id="text4967-0"
       style="line-height:0%;font-family:'Liberation Serif';-inkscape-font-specification:'Liberation Serif, Normal';letter-spacing:0px;word-spacing:0px;display:inline;fill:#0000ff;stroke-width:1px">
      <path
         d="m 704.89976,1057.6248 q -0.975,0 -1.575,-0.3 -0.6,-0.225 -0.6,-0.675 0,-0.525 0.6,-0.9 0.675,-0.45 1.875,-0.825 1.95,-0.6 3.6,-1.8 1.65,-1.2 2.85,-3.975 2.1,-4.8 3.825,-9 1.8,-4.2 3.375,-8.25 1.575,-4.05 3.225,-8.4 1.725,-4.425 3.6,-9.6 0.375,-1.05 0.675,-2.1 0.3,-1.05 0.375,-2.25 0.675,-0.225 1.35,-0.45 0.675,-0.225 1.35,-0.675 0.675,-0.45 0.9,-1.35 0.3,-0.9 0.525,-1.2 0.075,-0.075 0.15,-0.075 0.15,0 0.225,0.15 0.15,0.3 0.225,0.75 0.15,0.45 0.3,0.9 1.8,5.7 3.75,11.625 1.95,5.925 3.75,11.475 1.875,5.475 3.375,9.9 1.575,4.35 2.475,7.05 1.05,3 2.25,4.5 1.2,1.5 2.475,2.1 1.35,0.6 2.85,0.9 1.275,0.225 1.875,0.75 0.6,0.45 0.6,0.975 0,0.45 -0.6,0.6 -0.6,0.15 -1.575,0.15 -1.05,0 -2.85,-0.15 -1.8,-0.075 -3.825,-0.225 -2.025,-0.075 -3.75,-0.075 -1.425,0 -2.925,0 -1.5,0 -2.775,0.075 -1.275,0 -2.175,0 -0.975,0 -1.575,-0.225 -0.6,-0.225 -0.6,-0.675 0,-0.525 0.75,-0.9 0.75,-0.375 1.725,-0.525 2.475,-0.375 3.525,-1.275 1.05,-0.9 1.05,-2.1 0,-1.125 -0.525,-3.225 -0.45,-2.175 -1.125,-4.575 -0.675,-2.475 -1.275,-4.35 -0.15,-0.6 -0.6,-0.675 -0.375,-0.15 -1.425,-0.15 h -14.175 q -0.3,0 -0.675,0.3 -0.3,0.225 -0.6,1.05 -0.225,0.75 -0.75,2.4 -0.525,1.575 -1.05,3.375 -0.525,1.8 -0.9,3.225 -0.375,1.425 -0.375,1.8 0,1.65 1.275,2.775 1.275,1.05 3.075,1.5 2.475,0.675 2.475,1.5 0,0.45 -0.6,0.675 -0.6,0.15 -1.575,0.15 -0.975,0 -2.85,-0.075 -1.875,-0.075 -3.975,-0.075 -2.475,0 -4.8,0.225 -2.325,0.225 -4.2,0.225 z m 17.55,-21.525 h 11.625 q 1.05,0 1.05,-0.375 0,-0.15 -0.075,-0.3 0,-0.225 -0.075,-0.45 l -5.85,-18.3 q -0.45,-1.35 -0.675,-1.35 -0.15,0 -0.6,1.275 l -6.825,18.375 q -0.15,0.45 -0.15,0.6 0,0.375 0.375,0.45 0.45,0.075 1.2,0.075 z"
         style="font-size:75px;line-height:1.25;font-family:'EB Garamond';-inkscape-font-specification:'EB Garamond'"
         id="path542" />
    </g>
    <g
       aria-label="B"
       transform="translate(-1095,-317.63779)"
       id="text4967-8"
       style="line-height:0%;font-family:'Liberation Serif';-inkscape-font-specification:'Liberation Serif, Normal';letter-spacing:0px;word-spacing:0px;display:inline;fill:#0000ff;stroke-width:1px">
      <path
         d="m 979.21597,1487.9497 q -0.975,0 -1.575,-0.225 -0.6,-0.15 -0.6,-0.6 0,-0.9 2.475,-1.35 2.85,-0.525 4.35,-1.725 1.5,-1.2 1.5,-3.9 v -33.75 q 0,-2.7 -1.125,-3.975 -1.125,-1.275 -3.9,-1.5 -1.275,-0.15 -1.875,-0.525 -0.6,-0.45 -0.6,-0.975 0,-0.45 0.6,-0.6 0.6,-0.225 1.575,-0.225 2.025,0 3.15,0 1.125,0 2.1,0.075 1.05,0 2.55,0 1.425,0 2.475,-0.075 1.05,-0.15 2.325,-0.225 1.35,-0.075 3.525,-0.075 8.77503,0 13.05003,2.55 4.35,2.475 4.35,8.625 0,2.55 -0.9,4.5 -0.825,1.875 -1.65,2.7 -1.2,1.2 -2.175,1.875 -0.975,0.6 -2.85,1.35 -0.3,0.075 -0.3,0.375 0,0.225 0.3,0.375 1.725,0.525 3.525,1.35 1.875,0.825 3.45,2.175 1.65,1.275 2.625,3.45 1.05,2.1 1.05,5.4 0,4.125 -1.35,6.525 -1.275,2.4 -3.075,3.675 -1.8,1.275 -3.375,2.1 -2.325,1.2 -5.4,1.875 -3.075,0.675 -7.35003,0.675 -0.975,0 -2.925,-0.15 -1.95,-0.15 -4.2,-0.15 -1.95,0 -3.3,0.075 -1.35,0.075 -2.85,0.15 -1.425,0.15 -3.6,0.15 z m 17.925,-3.15 q 3.30003,0 6.15003,-1.5 2.85,-1.5 4.575,-4.05 1.725,-2.625 1.725,-5.85 0,-2.925 -0.975,-4.8 -0.975,-1.95 -2.25,-3.15 -1.275,-1.2 -2.325,-1.725 -0.975,-0.6 -3.075,-1.2 -2.10003,-0.675 -5.47503,-0.675 -2.4,0 -3.375,0.975 -0.9,0.975 -0.9,1.725 v 14.925 q 0,3.15 1.5,4.275 1.575,1.05 4.425,1.05 z m -2.475,-25.05 q 2.025,0 4.35,-0.45 2.40003,-0.45 4.72503,-1.725 0.825,-0.45 2.1,-2.175 1.275,-1.725 1.275,-4.95 0,-2.175 -0.825,-4.425 -0.825,-2.325 -3.15,-3.9 -2.325,-1.575 -6.97503,-1.575 -3.075,0 -4.05,0.825 -0.9,0.825 -0.9,2.55 v 13.05 q 0,1.95 1.275,2.4 1.275,0.375 2.175,0.375 z"
         style="font-size:75px;line-height:1.25;font-family:'EB Garamond';-inkscape-font-specification:'EB Garamond'"
         id="path548" />
    </g>
    <g
       aria-label="C"
       transform="translate(-1095,-317.63779)"
       id="text4967-6"
       style="line-height:0%;font-family:'Liberation Serif';-inkscape-font-specification:'Liberation Serif, Normal';letter-spacing:0px;word-spacing:0px;display:inline;fill:#0000ff;stroke-width:1px">
      <path
         d="m 1282.9228,1052.3138 q -5.25,0 -10.125,-1.8 -4.875,-1.8 -8.7,-5.1 -3.825,-3.375 -6.075,-8.025 -2.175,-4.725 -2.175,-10.425 0,-5.475 2.325,-10.125 2.325,-4.65 6.375,-8.1 4.05,-3.45 9.225,-5.325 5.25,-1.95 11.025,-1.95 2.925,0 4.95,0.225 2.025,0.225 3.9,0.675 1.95,0.375 4.5,1.05 1.125,0.3 1.575,0.9 0.525,0.6 0.6,1.65 0.15,1.725 0.375,3.75 0.225,1.95 0.3,4.875 0.075,0.525 -0.525,0.9 -0.525,0.3 -1.2,0.15 -0.6,-0.15 -0.825,-0.975 -0.75,-2.85 -1.725,-4.875 -0.975,-2.1 -2.925,-3.45 -1.875,-1.275 -4.575,-1.875 -2.625,-0.675 -5.7,-0.675 -4.35,0 -8.1,1.8 -3.675,1.725 -6.375,4.8 -2.625,3 -4.125,6.825 -1.5,3.825 -1.5,7.95 0,4.575 1.425,9 1.5,4.425 4.2,8.025 2.775,3.525 6.525,5.7 3.825,2.1 8.475,2.1 5.4,0 8.925,-2.475 3.525,-2.475 6,-6.9 0.525,-0.975 1.5,-0.975 1.05,0 1.05,1.2 0,0.6 -0.3,1.95 -0.3,1.275 -0.825,2.775 -0.45,1.425 -0.9,2.55 -0.525,1.05 -0.9,1.35 -0.3,0.3 -1.5,0.675 -2.775,1.125 -6.675,1.65 -3.825,0.525 -7.5,0.525 z"
         style="font-size:75px;line-height:1.25;font-family:'EB Garamond';-inkscape-font-specification:'EB Garamond'"
         id="path551" />
    </g>
    <g
       aria-label="n1"
       id="text4967-5-1"
       style="font-style:italic;line-height:0%;font-family:serif;-inkscape-font-specification:'serif Italic';letter-spacing:0px;word-spacing:0px;display:inline;stroke-width:1px">
      <path
         d="m -1012.1628,613.40969 q -0.6,0 -1.2,-0.5 -0.5,-0.4 -0.9,-1.1 -0.4,-0.6 -0.6,-1.4 -0.1,-0.8 0.2,-1.4 l 11.6,-28.4 q 1.8,-4.4 0.2,-4.4 -1,0 -2.1,0.3 -1.1,0.2 -2.4,1.2 -1.3,1 -2.9,3.1 -0.4,0.4 -0.9,0.4 -0.4,-0.1 -0.6,-0.8 0,-0.6 0.3,-1.5 0.4,-1 0.9,-1.9 0.5,-1 0.9,-1.6 1.5,-2.3 4,-3.6 2.6,-1.3 5.99997,-1.4 1.1,0 2,0.6 0.9,0.5 1.3,1.5 0.5,1 0,2.2 l -6.59997,17 q -0.3,0.7 0.1,0.8 0.5,0.1 0.8,-0.4 4.09997,-7 8.29997,-11.8 4.3,-4.9 8.2,-7.4 3.9,-2.5 6.9,-2.5 2.1,0 3.6,1.5 1.6,1.4 2,3.9 0.5,2.4 -0.9,5.6 l -9.2,21.8 q -1.5,3.6 0.5,3.6 1.2,0 2.9,-0.9 1.8,-0.9 3.6,-2.1 1.8,-1.3 3.1,-2.3 1.4,-1.1 1.8,-1.5 0.1,-0.1 0.1,-0.1 0.1,0 0.2,0 0.3,0 0.5,0.3 0.3,0.2 0.3,0.6 0,0.8 -0.4,1.4 -2.6,3.1 -5.6,5.6 -2.9,2.5 -6.1,4 -3.1,1.4 -6.3,1.4 -0.9,0 -1.8,-0.7 -0.9,-0.6 -1.4,-1.6 -0.4,-1 0.1,-2.1 2.9,-6.7 5.8,-13.3 3,-6.7 5.6,-13.4 1.6,-4.1 1.1,-5.7 -0.5,-1.7 -1.9,-1.8 -1.1,-0.1 -2.6,0.8 -1.5,0.8 -3.4,2.6 -1.9,1.7 -4.1,4.4 -1.2,1.4 -3.2,4.4 -2,2.9 -4.5,6.8 -2.49997,3.8 -5.19997,8.2 -2.6,4.3 -5,8.5 -0.9,1.6 -1.6,2.3 -0.7,0.8 -1.5,0.8 z"
         style="font-size:100px;line-height:1.25;font-family:'EB Garamond';-inkscape-font-specification:'EB Garamond Italic'"
         id="path527" />
      <path
         d="m -958.80798,632.00469 q -0.455,0 -0.715,-0.26 -0.26,-0.26 -0.26,-0.52 0,-0.585 0.975,-0.845 2.47,-0.65 4.03,-1.17 1.625,-0.585 2.34,-1.56 0.78,-1.04 0.78,-2.925 v -24.83 q 0,-1.235 -0.78,-1.885 -0.78,-0.65 -2.015,-0.91 -1.235,-0.26 -2.665,-0.325 -0.65,-0.065 -1.17,-0.325 -0.52,-0.26 -0.52,-0.78 0,-0.455 0.455,-0.78 0.52,-0.325 1.17,-0.39 2.925,-0.455 5.2,-1.105 2.34,-0.715 4.55,-2.925 0.065,-0.065 0.13,-0.065 0.13,0 0.195,0 0.325,0 0.585,0.195 0.26,0.13 0.195,0.39 -0.13,0.975 -0.195,2.145 -0.065,1.105 -0.065,2.47 v 29.9 q 0,1.625 0.585,2.47 0.65,0.845 2.145,1.365 1.495,0.455 4.16,1.105 0.39,0.065 0.715,0.325 0.39,0.195 0.39,0.52 0,0.715 -0.91,0.715 -1.82,0 -3.38,-0.13 -1.495,-0.065 -2.99,-0.13 -1.43,-0.065 -3.185,-0.065 -1.755,0 -3.315,0.065 -1.56,0.065 -3.12,0.13 -1.56,0.13 -3.315,0.13 z"
         style="font-style:normal;font-size:65%;font-family:'EB Garamond';-inkscape-font-specification:'EB Garamond';baseline-shift:sub"
         id="path529" />
    </g>
    <g
       aria-label=" 1"
       id="text4247"
       style="font-style:italic;line-height:0%;font-family:serif;-inkscape-font-specification:'serif Italic';letter-spacing:0px;word-spacing:0px;display:inline;stroke-width:1px">
      <path
         d="m -445.4601,504.7696 q -2,0 -3.8,-2.3 -1.7,-2.3 -2.8,-5.8 -1,-3.6 -1,-7.3 0,-5.2 1.2,-11.2 1.3,-6.1 3.5,-12.3 2.2,-6.3 5.1,-12 3,-5.8 6.4,-10.3 3.4,-4.6 7.1,-7.2 3.7,-2.7 7.3,-2.7 4.6,0 6.6,4.5 2,4.4 2,13 0,4.7 -1.4,10.5 -1.3,5.7 -3.7,11.8 -2.4,6 -5.6,11.6 -3.1,5.6 -6.7,10.1 -3.5,4.4 -7.2,7 -3.6,2.6 -7,2.6 z m 2.6,-8.1 q 2.5,0 5.2,-2.2 2.7,-2.2 5.3,-5.9 2.7,-3.7 5.1,-8.2 2.4,-4.6 4.2,-9.3 0.4,-0.8 0.2,-1.1 -0.1,-0.4 -1,-0.4 l -20.2,-0.1 q -0.6,0 -1,0.5 -0.4,0.5 -0.6,1 -0.9,2.5 -1.9,5.9 -1,3.4 -1.8,6.9 -0.7,3.5 -0.7,6.4 0,3 1.5,4.8 1.6,1.7 5.7,1.7 z m 0.9,-32 h 20 q 1.2,0 1.6,-1.3 0.8,-2.5 1.5,-5.4 0.7,-3 1.1,-5.7 0.5,-2.7 0.5,-4.2 0,-3.4 -1.6,-5.1 -1.6,-1.7 -5.5,-1.7 -2,0 -4.8,2.1 -2.8,2 -6.2,6.8 -3.3,4.8 -7.2,13.2 -0.2,0.5 -0.2,0.9 0.1,0.4 0.8,0.4 z"
         style="font-size:100px;line-height:1.25;font-family:'EB Garamond';-inkscape-font-specification:'EB Garamond Italic'"
         id="path537" />
      <path
         d="m -410.30517,523.5646 q -0.455,0 -0.715,-0.26 -0.26,-0.26 -0.26,-0.52 0,-0.585 0.975,-0.845 2.47,-0.65 4.03,-1.17 1.625,-0.585 2.34,-1.56 0.78,-1.04 0.78,-2.925 v -24.83 q 0,-1.235 -0.78,-1.885 -0.78,-0.65 -2.015,-0.91 -1.235,-0.26 -2.665,-0.325 -0.65,-0.065 -1.17,-0.325 -0.52,-0.26 -0.52,-0.78 0,-0.455 0.455,-0.78 0.52,-0.325 1.17,-0.39 2.925,-0.455 5.2,-1.105 2.34,-0.715 4.55,-2.925 0.065,-0.065 0.13,-0.065 0.13,0 0.195,0 0.325,0 0.585,0.195 0.26,0.13 0.195,0.39 -0.13,0.975 -0.195,2.145 -0.065,1.105 -0.065,2.47 v 29.9 q 0,1.625 0.585,2.47 0.65,0.845 2.145,1.365 1.495,0.455 4.16,1.105 0.39,0.065 0.715,0.325 0.39,0.195 0.39,0.52 0,0.715 -0.91,0.715 -1.82,0 -3.38,-0.13 -1.495,-0.065 -2.99,-0.13 -1.43,-0.065 -3.185,-0.065 -1.755,0 -3.315,0.065 -1.56,0.065 -3.12,0.13 -1.56,0.13 -3.315,0.13 z"
         style="font-style:normal;font-size:65%;font-family:'EB Garamond';-inkscape-font-specification:'EB Garamond';baseline-shift:sub"
         id="path539" />
    </g>
    <g
       aria-label=" 1"
       id="text4247-8"
       style="font-style:italic;line-height:0%;font-family:serif;-inkscape-font-specification:'serif Italic';letter-spacing:0px;word-spacing:0px;display:inline;opacity:0.98;stroke-width:1px">
      <path
         d="m -31.742799,621.36814 q -2,0 -3.8,-2.3 -1.7,-2.3 -2.8,-5.8 -1,-3.6 -1,-7.3 0,-5.2 1.2,-11.2 1.3,-6.1 3.5,-12.3 2.2,-6.3 5.1,-12 3,-5.8 6.4,-10.3 3.4,-4.6 7.1,-7.2 3.7,-2.7 7.2999996,-2.7 4.6,0 6.6,4.5 2.00000002,4.4 2.00000002,13 0,4.7 -1.40000002,10.5 -1.3,5.7 -3.7,11.8 -2.4,6 -5.5999996,11.6 -3.1,5.6 -6.7,10.1 -3.5,4.4 -7.2,7 -3.6,2.6 -7,2.6 z m 2.6,-8.1 q 2.5,0 5.2,-2.2 2.7,-2.2 5.3,-5.9 2.7,-3.7 5.1,-8.2 2.4,-4.6 4.1999996,-9.3 0.4,-0.8 0.2,-1.1 -0.1,-0.4 -0.9999996,-0.4 l -20.2,-0.1 q -0.6,0 -1,0.5 -0.4,0.5 -0.6,1 -0.9,2.5 -1.9,5.9 -1,3.4 -1.8,6.9 -0.7,3.5 -0.7,6.4 0,3 1.5,4.8 1.6,1.7 5.7,1.7 z m 0.9,-32 h 19.9999996 q 1.2,0 1.6,-1.3 0.8,-2.5 1.5,-5.4 0.7,-3 1.1,-5.7 0.5,-2.7 0.5,-4.2 0,-3.4 -1.6,-5.1 -1.6,-1.7 -5.4999996,-1.7 -2,0 -4.8,2.1 -2.8,2 -6.2,6.8 -3.3,4.8 -7.2,13.2 -0.2,0.5 -0.2,0.9 0.1,0.4 0.8,0.4 z"
         style="font-size:100px;line-height:1.25;font-family:'EB Garamond';-inkscape-font-specification:'EB Garamond Italic'"
         id="path554" />
      <path
         d="m 3.4121304,640.16314 q -0.455,0 -0.715,-0.26 -0.26,-0.26 -0.26,-0.52 0,-0.585 0.975,-0.845 2.47,-0.65 4.03,-1.17 1.625,-0.585 2.34,-1.56 0.7799996,-1.04 0.7799996,-2.925 v -24.83 q 0,-1.235 -0.7799996,-1.885 -0.78,-0.65 -2.015,-0.91 -1.235,-0.26 -2.665,-0.325 -0.65,-0.065 -1.17,-0.325 -0.52,-0.26 -0.52,-0.78 0,-0.455 0.455,-0.78 0.52,-0.325 1.17,-0.39 2.925,-0.455 5.1999996,-1.105 2.34,-0.715 4.55,-2.925 0.065,-0.065 0.13,-0.065 0.13,0 0.195,0 0.325,0 0.585,0.195 0.26,0.13 0.195,0.39 -0.13,0.975 -0.195,2.145 -0.065,1.105 -0.065,2.47 v 29.9 q 0,1.625 0.585,2.47 0.65,0.845 2.145,1.365 1.495,0.455 4.16,1.105 0.39,0.065 0.715,0.325 0.39,0.195 0.39,0.52 0,0.715 -0.91,0.715 -1.82,0 -3.38,-0.13 -1.495,-0.065 -2.99,-0.13 -1.43,-0.065 -3.185,-0.065 -1.755,0 -3.3149996,0.065 -1.56,0.065 -3.12,0.13 -1.56,0.13 -3.315,0.13 z"
         style="font-style:normal;font-size:65%;font-family:'EB Garamond';-inkscape-font-specification:'EB Garamond';baseline-shift:sub"
         id="path556" />
    </g>
    <g
       aria-label="d"
       id="text4247-8-9"
       style="font-style:italic;line-height:0%;font-family:serif;-inkscape-font-specification:'serif Italic';letter-spacing:0px;word-spacing:0px;display:inline;opacity:0.98;stroke-width:1px">
      <path
         d="m 547.3988,901.94602 q -2.9,0 -4.7,-2 -1.8,-2 -1.8,-5.2 0,-3.8 1.6,-8.5 1.7,-4.7 4.5,-9.5 2.9,-4.8 6.5,-8.9 3.9,-4.4 7.9,-6.8 4,-2.5 7.2,-2.5 1.3,0 2.1,0.4 0.8,0.3 3.6,2.1 2.1,1.3 2.3,1.5 0.3,0.1 0.1,0.1 0.3,0 0.5,-0.7 l 6.7,-22.5 q 0.2,-0.6 0.2,-0.9 0.1,-0.4 0.1,-0.5 0.1,-0.2 0.1,-0.3 0,-0.2 0,-0.3 0,-1.1 -0.6,-1.7 -0.6,-0.7 -2.2,-1.3 -2.2,-0.8 -2.6,-0.9 -0.4,-0.2 -0.4,-0.5 0,-0.7 0.8,-1.1 0.8,-0.4 2.6,-0.7 1.5,-0.2 3,-0.4 1.6,-0.3 2.9,-0.4 1.3,-0.2 2.2,-0.3 0.9,-0.1 1.2,-0.1 1.2,0 1.2,1.4 0,0.5 -0.1,1.1 -0.1,0.5 -0.3,1.2 l -16.2,56.1 q -0.2,0.8 -0.4,1.6 -0.1,0.7 -0.1,1.5 0,2.2 1.4,2.2 1.3,0 3.1,-0.9 1.8,-1 3.6,-2.6 1.8,-1.6 3.1,-3.4 0.2,-0.3 0.4,-0.4 0.2,-0.1 0.4,-0.1 0.8,0 0.6,0.8 0,1.1 -1.1,2.8 -1.1,1.7 -2.9,3.6 -1.8,1.8 -3.9,3.4 -2,1.6 -3.9,2.6 -1.9,1 -3.2,1 -1.1,0 -2.1,-0.7 -1,-0.6 -1.7,-1.6 -0.6,-1.1 -0.6,-2.2 0,-0.5 0.4,-2.6 0.2,-1.1 0.6,-2.7 0.4,-1.7 0.7,-3.2 0.4,-1.6 0.5,-2.3 0.2,-0.7 0,0.2 0.2,-0.8 -0.1,-1.1 -0.2,-0.4 -0.5,0.1 -6.9,8.7 -12.1,12.4 -5.2,3.7 -10.6,3.7 z m 3.7,-4.7 q 2.7,0 5.9,-1.9 3.2,-2 6.3,-5.2 3.2,-3.3 5.8,-7.2 2.7,-3.9 4.3,-7.8 1.6,-3.9 1.6,-7.2 0,-2.9 -1.3,-4.5 -1.3,-1.7 -3.7,-1.7 -2.3,0 -5.2,2.2 -2.9,2.2 -5.9,5.8 -3,3.6 -5.6,7.9 -2.5,4.2 -4.1,8.4 -1.5,4.2 -1.5,7.4 0,2.2 0.7,3 0.8,0.8 2.7,0.8 z"
         style="font-size:100px;line-height:1.25;font-family:'EB Garamond';-inkscape-font-specification:'EB Garamond Italic'"
         id="path587" />
    </g>
    <g
       aria-label=" 2"
       id="text4247-7"
       style="font-style:italic;line-height:0%;font-family:serif;-inkscape-font-specification:'serif Italic';letter-spacing:0px;word-spacing:0px;display:inline;opacity:0.98;stroke-width:1px">
      <path
         d="m -179.10173,908.87601 q -2,0 -3.8,-2.3 -1.7,-2.3 -2.8,-5.8 -1,-3.6 -1,-7.3 0,-5.2 1.2,-11.2 1.3,-6.1 3.5,-12.3 2.2,-6.3 5.1,-12 3,-5.8 6.4,-10.3 3.4,-4.6 7.1,-7.2 3.7,-2.7 7.3,-2.7 4.6,0 6.6,4.5 2,4.4 2,13 0,4.7 -1.4,10.5 -1.3,5.7 -3.7,11.8 -2.4,6 -5.6,11.6 -3.1,5.6 -6.7,10.1 -3.5,4.4 -7.2,7 -3.6,2.6 -7,2.6 z m 2.6,-8.1 q 2.5,0 5.2,-2.2 2.7,-2.2 5.3,-5.9 2.7,-3.7 5.1,-8.2 2.4,-4.6 4.2,-9.3 0.4,-0.8 0.2,-1.1 -0.1,-0.4 -1,-0.4 l -20.2,-0.1 q -0.6,0 -1,0.5 -0.4,0.5 -0.6,1 -0.9,2.5 -1.9,5.9 -1,3.4 -1.8,6.9 -0.7,3.5 -0.7,6.4 0,3 1.5,4.8 1.6,1.7 5.7,1.7 z m 0.9,-32 h 20 q 1.2,0 1.6,-1.3 0.8,-2.5 1.5,-5.4 0.7,-3 1.1,-5.7 0.5,-2.7 0.5,-4.2 0,-3.4 -1.6,-5.1 -1.6,-1.7 -5.5,-1.7 -2,0 -4.8,2.1 -2.8,2 -6.2,6.8 -3.3,4.8 -7.2,13.2 -0.2,0.5 -0.2,0.9 0.1,0.4 0.8,0.4 z"
         style="font-size:100px;line-height:1.25;font-family:'EB Garamond';-inkscape-font-specification:'EB Garamond Italic'"
         id="path559" />
      <path
         d="m -123.6668,927.67101 q -0.455,0 -1.43,-0.065 -0.975,-0.065 -2.21,-0.13 -1.235,-0.065 -2.6,-0.13 -1.3,-0.065 -2.535,-0.065 -1.235,0 -3.51,0.065 -2.275,0.065 -4.81,0.13 -2.47,0 -4.355,0.065 -1.885,0.065 -2.405,0.065 -0.26,0 -0.78,-0.39 -0.52,-0.455 -0.52,-0.715 0,-0.325 0.13,-0.455 0.13,-0.13 0.39,-0.39 l 11.115,-11.505 q 3.25,-3.38 5.395,-7.54 2.145,-4.225 2.145,-8.515 0,-3.445 -2.08,-5.395 -2.08,-2.015 -4.875,-2.015 -2.665,0 -4.94,1.495 -2.275,1.43 -3.64,3.77 -0.195,0.39 -0.52,0.65 -0.26,0.26 -0.585,0.26 -0.26,0 -0.65,-0.52 -0.325,-0.585 -0.325,-1.43 0,-0.78 0.91,-2.145 0.975,-1.365 2.665,-2.795 1.69,-1.43 4.03,-2.405 2.34,-1.04 5.07,-1.04 3.25,0 5.59,1.365 2.34,1.365 3.575,3.77 1.235,2.405 1.235,5.59 0,1.755 -0.65,3.77 -0.585,2.015 -1.69,3.965 -1.04,1.95 -2.405,3.64 -0.845,1.04 -2.535,2.795 -1.625,1.69 -3.575,3.64 -1.885,1.95 -3.64,3.705 -1.69,1.69 -2.795,2.86 -1.105,1.105 -1.105,1.235 0,0.325 0.91,0.455 1.105,0.065 2.47,0.13 1.43,0.065 3.25,0.065 1.885,0 3.77,-0.065 1.885,-0.065 3.64,-0.13 1.885,-0.13 2.925,-0.325 1.04,-0.195 1.755,-0.78 0.715,-0.65 1.495,-1.95 0.26,-0.39 0.65,-0.91 0.455,-0.585 0.975,-0.585 0.325,0 0.39,0.26 0.065,0.26 0.065,0.52 0,0.325 -0.39,1.3 -0.325,0.91 -0.78,2.275 -0.455,1.365 -0.78,2.99 -0.195,1.04 -0.65,1.3 -0.455,0.26 -0.78,0.26 z"
         style="font-style:normal;font-size:65%;font-family:'EB Garamond';-inkscape-font-specification:'EB Garamond';baseline-shift:sub"
         id="path561" />
    </g>
    <path
       transform="translate(-1095,-317.63779)"
       style="display:inline;fill:none;fill-rule:evenodd;stroke:#000000;stroke-width:10;stroke-linecap:butt;stroke-linejoin:miter;stroke-miterlimit:4;stroke-dasharray:none;stroke-opacity:1"
       d="m 945.13093,1312.8121 c 17.36151,-10.8376 30.76622,-13.6782 53.01681,-10.2444"
       id="path4284-07"
       inkscape:connector-curvature="0"
       sodipodi:nodetypes="cc" />
  </g>
</svg>
