<?xml version="1.0" encoding="utf-8"?>
<!-- Generator: Adobe Illustrator 24.1.0, SVG Export Plug-In . SVG Version: 6.00 Build 0)  -->
<svg version="1.1" id="Ebene_1" xmlns="http://www.w3.org/2000/svg" xmlns:xlink="http://www.w3.org/1999/xlink" x="0px" y="0px"
	 viewBox="0 0 283.46 283.46" style="enable-background:new 0 0 283.46 283.46;" xml:space="preserve">
<style type="text/css">
	.st0{fill:none;stroke:#878787;stroke-width:12.4876;stroke-linecap:round;stroke-miterlimit:10;}
	.st1{fill:#706F6F;}
	.st2{fill:#36A9E1;}
	.st3{fill:none;stroke:#F9B419;stroke-width:3.6631;stroke-linecap:round;stroke-linejoin:round;stroke-miterlimit:10;}
	.st4{fill:#F9B419;}
	.st5{fill:none;stroke:#706F6F;stroke-width:5.85;stroke-linecap:round;stroke-miterlimit:10;}
	.st6{fill:none;stroke:#C6C6C6;stroke-width:3.2676;stroke-linecap:round;stroke-linejoin:round;stroke-miterlimit:10;}
	.st7{fill:#C6C6C6;}
	.st8{fill:#9D9D9C;}
	.st9{fill:#FFFFFF;}
	.st10{fill:#95C11F;}
	.st11{fill:none;stroke:#95C11F;stroke-width:3.519;stroke-linecap:round;stroke-linejoin:round;stroke-miterlimit:10;}
	.st12{fill:none;stroke:#878787;stroke-width:6.2177;stroke-linecap:round;stroke-miterlimit:10;}
</style>
<g>
	<path class="st0" d="M147.45,171"/>
	<path class="st1" d="M167.6,146.73c0-2.06-1.63-5.27-3.66-5.27l-7.92-0.02l0.02-11.26c0-1.46-1.8-2.65-4.03-2.65
		s-4.03,1.18-4.04,2.64l-0.02,11.26l-7.99-0.02l0.02-11.26c0-1.46-1.72-2.65-3.86-2.65c-2.13,0-3.86,1.18-3.87,2.64l-0.02,11.26
		l-6.75-0.01c-2.03,0-3.67,3.2-3.67,5.26c0,0.72-3.22,26.42,22.46,26.48C169.97,173.16,167.6,147.6,167.6,146.73z"/>
	<path class="st2" d="M233.69,172.97c-1.36,0-19.89,15.14-19.89,28.25c0,13.11,9.94,19.21,18.98,19.21s17.85-5.2,19.21-18.31
		S233.69,172.97,233.69,172.97z M236.99,214.21c7.44-2.71,9.81-13.45,9.81-13.45C248.16,213.02,236.99,214.21,236.99,214.21z"/>
	<g>
		<line class="st3" x1="86.42" y1="34.65" x2="89.38" y2="51.72"/>
		<line class="st3" x1="103.72" y1="53.9" x2="112.11" y2="42.62"/>
		<line class="st3" x1="113.01" y1="65.74" x2="128.08" y2="63.13"/>
		<line class="st3" x1="109.5" y1="81.35" x2="120.69" y2="89.24"/>
		<line class="st3" x1="96.48" y1="89.81" x2="99" y2="104.37"/>
		<line class="st3" x1="81.2" y1="85.21" x2="73.98" y2="97.32"/>
		<line class="st3" x1="72.92" y1="73.19" x2="57.93" y2="76.3"/>
		<line class="st3" x1="76.51" y1="58.09" x2="65.4" y2="50.7"/>
		<path class="st4" d="M90.12,55.21c-8.12,1.4-13.57,9.13-12.16,17.25c1.4,8.12,9.13,13.57,17.25,12.16
			c8.12-1.4,13.57-9.13,12.16-17.25C105.97,59.25,98.25,53.81,90.12,55.21z M82.46,72.26c-2.52-9.88,6.81-12.49,6.81-12.49
			C82.59,63.26,82.46,72.26,82.46,72.26z"/>
	</g>
	<path class="st5" d="M144.96,169.61c0,0,1.42,41.67,1.01,48.6c-0.41,6.92-0.88,27.7-20.72,23.98c0,0-26.67-3.41-54.53-27.82"/>
	<g>
		<line class="st6" x1="52.67" y1="183.36" x2="52.77" y2="214.52"/>
		<path class="st7" d="M52.62,182.52c0.2,0.43,13.51-16.54-0.66-38.43c0,0-5.72,13.19-2.55,33.59
			C49.4,177.68,52.01,181.23,52.62,182.52z"/>
		<path class="st7" d="M53.95,182.71c-0.48,0.03,9.2,18.66,36.32,14.2c0,0-10.52-10.66-30.62-15.37
			C59.64,181.54,55.36,182.63,53.95,182.71z"/>
		<path class="st7" d="M51.45,182.92c0.48,0.03-11.63,16.14-36.61,15.18c0,0,8.57-15.7,30.91-16.35
			C45.75,181.75,50.03,182.84,51.45,182.92z"/>
		<circle class="st8" cx="52.65" cy="183.58" r="4.57"/>
		<path class="st9" d="M45.53,186.36c0,0-10.15,8.57-23.16,10.31C22.37,196.67,33.79,192.86,45.53,186.36z"/>
	</g>
	<g>
		<path class="st10" d="M217.39,84.12c16.23,11.87,29.58-13.88,29.58-13.88C217.32,64.6,217.39,84.12,217.39,84.12z M218.58,83.01
			c0,0,7.78-9.73,25.04-11.36C243.62,71.65,231.01,73.85,218.58,83.01z"/>
		<line class="st11" x1="218.17" y1="84.26" x2="217.76" y2="106.48"/>
		<path class="st10" d="M188.15,71.32c0,0,13.35,25.74,29.58,13.88C217.72,85.2,217.8,65.68,188.15,71.32z M191.5,72.73
			c17.26,1.63,25.04,11.36,25.04,11.36C204.11,74.93,191.5,72.73,191.5,72.73z"/>
	</g>
	<path class="st5" d="M45.91,134.18c1.65-13.73,6.11-26.59,12.78-38"/>
	<path class="st5" d="M205.42,223.95c-13.45,10.6-29.72,17.78-47.5,20.24"/>
	<path class="st5" d="M233.7,103.69c6.11,12.86,9.53,27.25,9.53,42.43c0,4.32-0.28,8.57-0.81,12.74"/>
	<path class="st12" d="M233.7,103.69"/>
	<path class="st5" d="M128.08,48.65c6.57-1.37,11.65-1.54,18.63-1.54c16.49,0,32.04,4.03,45.71,11.16"/>
</g>
</svg>
