<?xml version="1.0" encoding="UTF-8" standalone="no"?>
<svg
   xmlns:dc="http://purl.org/dc/elements/1.1/"
   xmlns:cc="http://creativecommons.org/ns#"
   xmlns:rdf="http://www.w3.org/1999/02/22-rdf-syntax-ns#"
   xmlns:svg="http://www.w3.org/2000/svg"
   xmlns="http://www.w3.org/2000/svg"
   xmlns:sodipodi="http://sodipodi.sourceforge.net/DTD/sodipodi-0.dtd"
   xmlns:inkscape="http://www.inkscape.org/namespaces/inkscape"
   width="461.5"
   height="190.87521"
   version="1.1"
   id="svg70"
   sodipodi:docname="fision.svg"
   inkscape:version="1.0 (4035a4f, 2020-05-01)">
  <metadata
     id="metadata76">
    <rdf:RDF>
      <cc:Work
         rdf:about="">
        <dc:format>image/svg+xml</dc:format>
        <dc:type
           rdf:resource="http://purl.org/dc/dcmitype/StillImage" />
        <dc:title></dc:title>
      </cc:Work>
    </rdf:RDF>
  </metadata>
  <defs
     id="defs74" />
  <sodipodi:namedview
     inkscape:document-rotation="0"
     pagecolor="#ffffff"
     bordercolor="#666666"
     borderopacity="1"
     objecttolerance="10"
     gridtolerance="10"
     guidetolerance="10"
     inkscape:pageopacity="0"
     inkscape:pageshadow="2"
     inkscape:window-width="1440"
     inkscape:window-height="787"
     id="namedview72"
     showgrid="false"
     fit-margin-top="0"
     fit-margin-left="0"
     fit-margin-right="0"
     fit-margin-bottom="0"
     inkscape:zoom="1.247535"
     inkscape:cx="224.7565"
     inkscape:cy="93.337106"
     inkscape:window-x="0"
     inkscape:window-y="23"
     inkscape:window-maximized="0"
     inkscape:current-layer="svg70" />
  <path
     id="path10"
     d="M 0,97.872606 H 42"
     stroke-dasharray="3"
     stroke-width="4"
     stroke="#7fb3ff"
     fill="none" />
  <path
     id="path12"
     d="m 419.712,127.86961 -55.363,-14.38 33.074,64.711 -45.298,-57.52 -25.165,42.421 14.379,-48.983 -30.76,13.033 27.165,-28.760004 -36.668,-28.042 38.826,12.942 -12.223,-58.24 28.041,53.926 42.434,-35.791 -34.525,44.419 44.579,-9.348 -43.14,20.133 z"
     fill="#ffd03f" />
  <path
     id="path14"
     d="m 375,90.622606 75,-11.25 m -22,-41.25 -50.5,37.5 m 44.25,77.250004 -48.716,-40.997"
     stroke-dasharray="3"
     stroke-width="4"
     stroke="#7fb3ff"
     fill="none" />
  <circle
     transform="rotate(-90)"
     id="circle16"
     stroke-width="2"
     stroke="#000000"
     fill="#7feeff"
     cx="-97.872589"
     cy="42.75"
     r="7.5" />
  <circle
     transform="rotate(-90)"
     id="circle18"
     stroke-width="2"
     stroke="#000000"
     fill="#1ca8e5"
     cx="-97.955597"
     cy="101.25"
     r="41.25" />
  <circle
     transform="rotate(-90)"
     id="circle20"
     fill="#1fbaff"
     cx="-97.955597"
     cy="101.25"
     r="34.778999" />
  <path
     id="path22"
     fill="#a6a7e5"
     d="m 228.75,53.355606 c 2.813,0 5.201,6.401 7.855,6.938 2.75,0.556 8.026,-5.712 10.549,-4.639 2.525,1.075 -1.237,13.397 1.001,14.931 2.233,1.531 10.724,-4.869 12.612,-2.939 1.879,1.921 -4.411,10.065 -2.933,12.323 1.466,2.241 8.83,0.799 9.843,3.314 1.002,2.487 -1.938,5.928 -1.434,8.628 0.46,2.467 7.438,4.442 7.438,7.043 0,2.813004 -4.785,5.393004 -5.321,8.047004 -0.556,2.75 1.34,6.377 0.267,8.9 -1.074,2.525 -5.491,3.293 -7.025,5.53 -1.531,2.234 -2.391,4.813 -4.32,6.7 -1.921,1.879 -5.93,0.504 -8.188,1.982 -2.241,1.466 -1.408,8.614 -3.923,9.627 -2.487,1.002 -6.289,-1.716 -8.988,-1.212 -2.468,0.46 -4.832,2.095 -7.433,2.095 -2.813,0 -4.198,-7.438 -6.852,-7.975 -2.75,-0.556 -7.72,7.603 -10.243,6.53 -2.525,-1.075 -1.808,-7.79 -4.045,-9.324 -2.234,-1.531 -9.982,3.308 -11.87,1.378 -1.879,-1.921 4.729,-10.595 3.251,-12.853 -1.466,-2.241 -9.716,-0.611 -10.729,-3.125 -1.002,-2.487 4.89,-6.816 4.386,-9.517 -0.46,-2.468 -11.956,-4.183 -11.956,-6.784004 0,-2.813 7.079,-5.561 7.616,-8.215 0.556,-2.75 0.16,-5.925 1.233,-8.447 1.075,-2.525 4.417,-3.855 5.951,-6.093 1.531,-2.233 -1.876,-9.311 0.054,-11.199 1.921,-1.879 11.431,5.539 13.688,4.061 2.241,-1.466 -0.984,-13.758 1.531,-14.771 2.488,-1.002 8.736,10.329 11.436,9.825 2.467,-0.459 3.947,-10.759 6.549,-10.759 z" />
  <path
     id="path24"
     stroke-width="2"
     stroke="#000000"
     fill="none"
     d="m 228.75,53.355606 c 2.813,0 5.201,6.401 7.855,6.938 2.75,0.556 8.026,-5.712 10.549,-4.639 2.525,1.075 -1.237,13.397 1.001,14.931 2.233,1.531 10.724,-4.869 12.612,-2.939 1.879,1.921 -4.411,10.065 -2.933,12.323 1.466,2.241 8.83,0.799 9.843,3.314 1.002,2.487 -1.938,5.928 -1.434,8.628 0.46,2.467 7.438,4.442 7.438,7.043 0,2.813004 -4.785,5.393004 -5.321,8.047004 -0.556,2.75 1.34,6.377 0.267,8.9 -1.074,2.525 -5.491,3.293 -7.025,5.53 -1.531,2.234 -2.391,4.813 -4.32,6.7 -1.921,1.879 -5.93,0.504 -8.188,1.982 -2.241,1.466 -1.408,8.614 -3.923,9.627 -2.487,1.002 -6.289,-1.716 -8.988,-1.212 -2.468,0.46 -4.832,2.095 -7.433,2.095 -2.813,0 -4.198,-7.438 -6.852,-7.975 -2.75,-0.556 -7.72,7.603 -10.243,6.53 -2.525,-1.075 -1.808,-7.79 -4.045,-9.324 -2.234,-1.531 -9.982,3.308 -11.87,1.378 -1.879,-1.921 4.729,-10.595 3.251,-12.853 -1.466,-2.241 -9.716,-0.611 -10.729,-3.125 -1.002,-2.487 4.89,-6.816 4.386,-9.517 -0.46,-2.468 -11.956,-4.183 -11.956,-6.784004 0,-2.813 7.079,-5.561 7.616,-8.215 0.556,-2.75 0.16,-5.925 1.233,-8.447 1.075,-2.525 4.417,-3.855 5.951,-6.093 1.531,-2.233 -1.876,-9.311 0.054,-11.199 1.921,-1.879 11.431,5.539 13.688,4.061 2.241,-1.466 -0.984,-13.758 1.531,-14.771 2.488,-1.002 8.736,10.329 11.436,9.825 2.467,-0.459 3.947,-10.759 6.549,-10.759 z" />
  <path
     id="path26"
     fill="#b8baff"
     d="m 228.75,58.541606 c 2.461,0 4.481,6.345 6.804,6.813 2.417,0.487 7.271,-5.726 9.488,-4.783 2.22,0.943 -1.454,12.45 0.512,13.798 1.963,1.345 9.909,-4.86 11.568,-3.165 1.651,1.688 -4.465,9.315 -3.167,11.299 1.289,1.969 8.407,0.36 9.297,2.57 0.88,2.187 -2.384,5.404 -1.942,7.778 0.402,2.162 7.261,3.825 7.261,6.103 0,2.461004 -4.913,4.651004 -5.381,6.974004 -0.487,2.417 1.85,5.812 0.908,8.029 -0.943,2.22 -5.443,2.558 -6.791,4.525 -1.345,1.963 -1.573,4.67 -3.269,6.329 -1.688,1.651 -5.65,-0.109 -7.634,1.189 -1.97,1.289 -0.9,8.216 -3.111,9.106 -2.187,0.88 -5.725,-2.188 -8.098,-1.746 -2.162,0.402 -4.168,2.525 -6.446,2.525 -2.461,0 -3.596,-7.265 -5.918,-7.732 -2.417,-0.486 -6.998,7.401 -9.215,6.459 -2.22,-0.943 -1.242,-7.48 -3.208,-8.828 -1.963,-1.345 -9.25,3.478 -10.909,1.782 -1.651,-1.688 4.746,-9.785 3.448,-11.769 -1.289,-1.969 -9.193,-0.194 -10.083,-2.404 -0.88,-2.186 5,-6.191 4.559,-8.564 -0.402,-2.162 -11.264,-3.595 -11.264,-5.874004 0,-2.461 6.946,-4.799 7.414,-7.122 0.486,-2.417 -0.521,-5.412 0.421,-7.629 0.943,-2.22 4.491,-3.056 5.838,-5.022 1.345,-1.963 -2.208,-8.658 -0.513,-10.316 1.688,-1.651 10.526,5.465 12.51,4.167 1.969,-1.289 -1.219,-12.774 0.992,-13.665 2.186,-0.88 7.891,9.821 10.264,9.379 2.161,-0.403 3.386,-10.206 5.665,-10.206 z" />
  <path
     id="path28"
     fill="#7cbaff"
     d="m 348.155,35.052606 c 2.637,0 6.585,-11.373 8.962,-10.595 2.47,0.811 6.244,2.39 8.292,3.9 2.044,1.508 -0.302,8.146 1.18,10.21 1.468,2.045 2.039,4.011 2.817,6.462 0.733,2.313 -4.879,4.192 -4.879,6.747 0,2.637 0.468,2.894 -0.311,5.271 -0.811,2.47 -0.36,3.127 -1.871,5.176 -1.508,2.043 3.573,9.976 1.51,11.457 -2.045,1.468 -6.7,-2.057 -9.151,-1.278 -2.313,0.733 -3.994,8.961 -6.549,8.961 -2.637,0 -6.002,-3.266 -8.378,-4.045 -2.47,-0.81 -3.364,-5.306 -5.412,-6.817 -2.044,-1.508 -5.276,-1.934 -6.758,-3.997 -1.468,-2.044 -8.095,-2.938 -8.872,-5.389 -0.733,-2.313 0.409,-6.783 0.409,-9.338 0,-2.637 7.9,-4.295 8.68,-6.671 0.81,-2.47 3.257,-2.74 4.768,-4.789 1.508,-2.043 3.222,-1.41 5.286,-2.892 2.044,-1.468 -0.711,-11.769 1.74,-12.546 2.312,-0.733 5.982,10.173 8.537,10.173 z" />
  <path
     id="path30"
     stroke-width="2"
     stroke="#000000"
     fill="none"
     d="m 348.155,35.052606 c 2.637,0 6.585,-11.373 8.962,-10.595 2.47,0.811 6.244,2.39 8.292,3.9 2.044,1.508 -0.302,8.146 1.18,10.21 1.468,2.045 2.039,4.011 2.817,6.462 0.733,2.313 -4.879,4.192 -4.879,6.747 0,2.637 0.468,2.894 -0.311,5.271 -0.811,2.47 -0.36,3.127 -1.871,5.176 -1.508,2.043 3.573,9.976 1.51,11.457 -2.045,1.468 -6.7,-2.057 -9.151,-1.278 -2.313,0.733 -3.994,8.961 -6.549,8.961 -2.637,0 -6.002,-3.266 -8.378,-4.045 -2.47,-0.81 -3.364,-5.306 -5.412,-6.817 -2.044,-1.508 -5.276,-1.934 -6.758,-3.997 -1.468,-2.044 -8.095,-2.938 -8.872,-5.389 -0.733,-2.313 0.409,-6.783 0.409,-9.338 0,-2.637 7.9,-4.295 8.68,-6.671 0.81,-2.47 3.257,-2.74 4.768,-4.789 1.508,-2.043 3.222,-1.41 5.286,-2.892 2.044,-1.468 -0.711,-11.769 1.74,-12.546 2.312,-0.733 5.982,10.173 8.537,10.173 z" />
  <path
     id="path32"
     fill="#70a7e5"
     d="m 372.778,133.09261 c 1.74,1.74 10.646,-2.179 11.684,-0.09 1.044,2.101 2.345,5.387 2.677,7.662 0.331,2.27 -4.786,4.941 -5.162,7.205 -0.373,2.242 -1.248,3.929 -2.315,5.992 -1.018,1.967 -5.434,0.065 -7.083,1.715 -1.74,1.74 -1.855,2.317 -3.944,3.354 -2.102,1.043 -2.483,1.753 -4.758,2.085 -2.27,0.332 -4.173,7.721 -6.437,7.345 -2.242,-0.373 -3.123,-5.103 -5.186,-6.17 -1.967,-1.018 -7.818,2.545 -9.467,0.896 -1.74,-1.74 -1.989,-5.8 -3.027,-7.889 -1.043,-2.101 0.949,-5.395 0.617,-7.67 -0.332,-2.27 -1.917,-4.608 -1.541,-6.871 0.373,-2.243 -2.808,-6.752 -1.74,-8.815 1.018,-1.966 4.368,-4.081 6.018,-5.73 1.74,-1.74 7.433,1.63 9.522,0.593 2.101,-1.043 3.892,0.125 6.166,-0.207 2.27,-0.331 3.146,1.007 5.408,1.384 2.243,0.373 6.781,-6.966 8.844,-5.899 1.965,1.018 -1.925,9.461 -0.276,11.11 z" />
  <path
     id="path34"
     stroke-width="2"
     stroke="#000000"
     fill="none"
     d="m 372.778,133.09261 c 1.74,1.74 10.646,-2.179 11.684,-0.09 1.044,2.101 2.345,5.387 2.677,7.662 0.331,2.27 -4.786,4.941 -5.162,7.205 -0.373,2.242 -1.248,3.929 -2.315,5.992 -1.018,1.967 -5.434,0.065 -7.083,1.715 -1.74,1.74 -1.855,2.317 -3.944,3.354 -2.102,1.043 -2.483,1.753 -4.758,2.085 -2.27,0.332 -4.173,7.721 -6.437,7.345 -2.242,-0.373 -3.123,-5.103 -5.186,-6.17 -1.967,-1.018 -7.818,2.545 -9.467,0.896 -1.74,-1.74 -1.989,-5.8 -3.027,-7.889 -1.043,-2.101 0.949,-5.395 0.617,-7.67 -0.332,-2.27 -1.917,-4.608 -1.541,-6.871 0.373,-2.243 -2.808,-6.752 -1.74,-8.815 1.018,-1.966 4.368,-4.081 6.018,-5.73 1.74,-1.74 7.433,1.63 9.522,0.593 2.101,-1.043 3.892,0.125 6.166,-0.207 2.27,-0.331 3.146,1.007 5.408,1.384 2.243,0.373 6.781,-6.966 8.844,-5.899 1.965,1.018 -1.925,9.461 -0.276,11.11 z" />
  <circle
     transform="rotate(-90)"
     id="circle36"
     stroke-width="2"
     stroke="#000000"
     fill="#7feeff"
     cx="-152.8726"
     cy="421.75"
     r="7.5" />
  <circle
     transform="rotate(-90)"
     id="circle38"
     stroke-width="2"
     stroke="#000000"
     fill="#7feeff"
     cx="-79.122589"
     cy="453"
     r="7.5" />
  <circle
     transform="rotate(-90)"
     id="circle40"
     stroke-width="2"
     stroke="#000000"
     fill="#7feeff"
     cx="-38.122601"
     cy="428"
     r="7.5" />
  <g
     transform="rotate(-90,121.2288,131.7288)"
     id="g60">
    <path
       id="path56"
       d="m 154.693,162.121 v 7.58"
       stroke-width="15"
       stroke="#808080"
       fill="none"
       stroke-miterlimit="1" />
    <path
       id="path58"
       d="m 131.382,164.14 23.311,3.114 23.317,-3.114 -23.317,17.379 z"
       fill="#808080" />
  </g>
  <g
     transform="rotate(-90,121.2288,131.7288)"
     id="g66">
    <path
       id="path62"
       d="m 154.693,291.114 v 7.58"
       stroke-width="15"
       stroke="#808080"
       fill="none"
       stroke-miterlimit="1" />
    <path
       id="path64"
       d="m 131.382,293.134 23.311,3.114 23.317,-3.114 -23.317,17.379 z"
       fill="#808080" />
  </g>
  <text
     id="text46"
     y="111.1376"
     x="74.602333"
     style="font-style:normal;font-weight:normal;font-size:24px;line-height:1.25;font-family:sans-serif;fill:#000000;fill-opacity:1;stroke:none"
     xml:space="preserve"><tspan
       style="font-style:normal;font-variant:normal;font-weight:normal;font-stretch:normal;font-size:24px;font-family:'EB Garamond';-inkscape-font-specification:'EB Garamond'"
       y="111.1376"
       x="74.602333"
       id="tspan44"
       sodipodi:role="line"><tspan
   id="tspan48"
   style="font-style:normal;font-variant:normal;font-weight:normal;font-stretch:normal;font-size:24px;font-family:'EB Garamond';-inkscape-font-specification:'EB Garamond';baseline-shift:super">235</tspan>U</tspan></text>
  <text
     xml:space="preserve"
     style="font-style:normal;font-weight:normal;font-size:24px;line-height:1.25;font-family:sans-serif;fill:#000000;fill-opacity:1;stroke:none"
     x="201.78862"
     y="111.42081"
     id="text46-7"><tspan
       sodipodi:role="line"
       id="tspan44-5"
       x="201.78862"
       y="111.42081"
       style="font-style:normal;font-variant:normal;font-weight:normal;font-stretch:normal;font-size:24px;font-family:'EB Garamond';-inkscape-font-specification:'EB Garamond'"><tspan
   style="font-style:normal;font-variant:normal;font-weight:normal;font-stretch:normal;font-size:24px;font-family:'EB Garamond';-inkscape-font-specification:'EB Garamond';baseline-shift:super"
   id="tspan48-0">236</tspan>U</tspan></text>
  <text
     id="text46-7-0"
     y="19.6152"
     x="322.01782"
     style="font-style:normal;font-weight:normal;font-size:24px;line-height:1.25;font-family:sans-serif;fill:#000000;fill-opacity:1;stroke:none"
     xml:space="preserve"><tspan
       style="font-style:normal;font-variant:normal;font-weight:normal;font-stretch:normal;font-size:24px;font-family:'EB Garamond';-inkscape-font-specification:'EB Garamond'"
       y="19.6152"
       x="322.01782"
       id="tspan44-5-0"
       sodipodi:role="line"><tspan
   id="tspan121"
   style="font-size:65%;baseline-shift:super">141</tspan>Ba</tspan></text>
  <text
     xml:space="preserve"
     style="font-style:normal;font-weight:normal;font-size:24px;line-height:1.25;font-family:sans-serif;fill:#000000;fill-opacity:1;stroke:none"
     x="338.49951"
     y="190.7552"
     id="text46-7-0-4"><tspan
       sodipodi:role="line"
       id="tspan44-5-0-1"
       x="338.49951"
       y="190.7552"
       style="font-style:normal;font-variant:normal;font-weight:normal;font-stretch:normal;font-size:24px;font-family:'EB Garamond';-inkscape-font-specification:'EB Garamond'"><tspan
   id="tspan144"
   style="font-size:65%;baseline-shift:super">92</tspan>Kr</tspan></text>
</svg>
