<?xml version="1.0" encoding="UTF-8" standalone="no"?>
<svg
   xmlns:dc="http://purl.org/dc/elements/1.1/"
   xmlns:cc="http://creativecommons.org/ns#"
   xmlns:rdf="http://www.w3.org/1999/02/22-rdf-syntax-ns#"
   xmlns:svg="http://www.w3.org/2000/svg"
   xmlns="http://www.w3.org/2000/svg"
   xmlns:sodipodi="http://sodipodi.sourceforge.net/DTD/sodipodi-0.dtd"
   xmlns:inkscape="http://www.inkscape.org/namespaces/inkscape"
   enable-background="new 0 0 200 120"
   height="94.223801"
   viewBox="0 0 185.961 94.223801"
   width="185.961"
   version="1.1"
   id="svg74"
   sodipodi:docname="equilibrio-quimico.svg"
   inkscape:version="1.0.2 (e86c8708, 2021-01-15)">
  <metadata
     id="metadata80">
    <rdf:RDF>
      <cc:Work
         rdf:about="">
        <dc:format>image/svg+xml</dc:format>
        <dc:type
           rdf:resource="http://purl.org/dc/dcmitype/StillImage" />
        <dc:title />
      </cc:Work>
    </rdf:RDF>
  </metadata>
  <defs
     id="defs78" />
  <sodipodi:namedview
     pagecolor="#ffffff"
     bordercolor="#666666"
     borderopacity="1"
     objecttolerance="10"
     gridtolerance="10"
     guidetolerance="10"
     inkscape:pageopacity="0"
     inkscape:pageshadow="2"
     inkscape:window-width="1440"
     inkscape:window-height="763"
     id="namedview76"
     showgrid="false"
     fit-margin-top="0"
     fit-margin-left="0"
     fit-margin-right="0"
     fit-margin-bottom="0"
     inkscape:zoom="3.7983194"
     inkscape:cx="85.416161"
     inkscape:cy="41.702443"
     inkscape:window-x="0"
     inkscape:window-y="25"
     inkscape:window-maximized="0"
     inkscape:current-layer="svg74"
     inkscape:document-rotation="0" />
  <circle
     cx="42.2075"
     cy="84.694603"
     fill="#2c9fd0"
     r="9.5291996"
     id="circle10" />
  <path
     d="m 13.1669,22.9895 c 0,0 9.899,6.0396 25.451,6.0396 15.552,0 29.0147,-6.0396 29.0147,-6.0396 l 1.2499,37.0173 c 0,0 3.9258,6.3171 -28.4618,6.3171 -32.3876,0 -29.5187,-7.1315 -29.5187,-7.1315 z"
     fill="#c9e9f6"
     id="path12" />
  <path
     d="m 79.5153,1 c 0,0 -3.1587,0 -7.2198,4.0611 -4.0611,4.0611 0,46.703 0,55.9534 0,9.2504 -19.6288,8.3479 -32.0378,8.3479 -12.409,0 -32.0378,0.9025 -32.0378,-8.3479 0,-9.2504 4.0611,-51.8923 0,-55.9534 C 4.1588,1 1,1 1,1"
     fill="none"
     stroke="#95d4ef"
     stroke-linecap="round"
     stroke-miterlimit="10"
     stroke-width="2"
     id="path14" />
  <g
     fill="#2c9fd0"
     id="g28"
     transform="translate(-7.0391,-15.584)">
    <circle
       cx="71.693901"
       cy="68.771698"
       r="2.9779"
       id="circle16" />
    <circle
       cx="45.657001"
       cy="63.553398"
       r="2.9779"
       id="circle18" />
    <circle
       cx="47.296799"
       cy="54.5224"
       r="2.9779"
       id="circle20" />
    <circle
       cx="62.9706"
       cy="72.6129"
       r="2.9779"
       id="circle22" />
    <circle
       cx="26.9251"
       cy="72.6129"
       r="2.9779"
       id="circle24" />
    <circle
       cx="54.5863"
       cy="66.531303"
       r="2.9779"
       id="circle26" />
  </g>
  <circle
     cx="40.257698"
     cy="59.192398"
     fill="#eb9d62"
     r="2.9779"
     id="circle30" />
  <circle
     cx="21.3335"
     cy="45.863201"
     fill="#eb9d62"
     r="2.9779"
     id="circle32" />
  <circle
     cx="29.2519"
     cy="53.187698"
     fill="#eb9d62"
     r="2.9779"
     id="circle34" />
  <path
     d="m 118.6126,22.9895 c 0,0 9.899,6.0396 25.451,6.0396 15.552,0 29.0148,-6.0396 29.0148,-6.0396 l 1.2499,37.0173 c 0,0 3.9258,6.3171 -28.4618,6.3171 -32.3876,0 -29.5187,-7.1315 -29.5187,-7.1315 z"
     fill="#c9e9f6"
     id="path36" />
  <path
     d="m 184.961,1 c 0,0 -3.1587,0 -7.2198,4.0611 -4.0611,4.0611 0,46.703 0,55.9534 0,9.2504 -19.6288,8.3479 -32.0378,8.3479 -12.409,0 -32.0378,0.9025 -32.0378,-8.3479 0,-9.2504 4.0611,-51.8923 0,-55.9534 C 109.6045,1 106.4458,1 106.4458,1"
     fill="none"
     stroke="#95d4ef"
     stroke-linecap="round"
     stroke-miterlimit="10"
     stroke-width="2"
     id="path38" />
  <circle
     cx="170.10051"
     cy="53.187698"
     fill="#2c9fd0"
     r="2.9779"
     id="circle40" />
  <circle
     cx="151.77661"
     cy="39.907501"
     fill="#2c9fd0"
     r="2.9779"
     id="circle42" />
  <circle
     cx="134.6976"
     cy="54.051003"
     fill="#2c9fd0"
     r="2.9779"
     id="circle44" />
  <circle
     cx="164.3551"
     cy="45.863201"
     fill="#2c9fd0"
     r="2.9779"
     id="circle46" />
  <circle
     cx="125.3317"
     cy="57.0289"
     fill="#2c9fd0"
     r="2.9779"
     id="circle48" />
  <circle
     cx="155.9707"
     cy="56.2145"
     fill="#2c9fd0"
     r="2.9779"
     id="circle50" />
  <circle
     cx="145.70331"
     cy="59.192398"
     fill="#eb9d62"
     r="2.9779"
     id="circle52" />
  <circle
     cx="126.7792"
     cy="45.863201"
     fill="#eb9d62"
     r="2.9779"
     id="circle54" />
  <circle
     cx="143.23711"
     cy="44.6567"
     fill="#eb9d62"
     r="2.9779"
     id="circle56" />
  <circle
     cx="146.21501"
     cy="84.694603"
     fill="#eb9d62"
     r="9.5291996"
     id="circle60" />
  <path
     d="m 77.791,81.8768 h 33.52 l -10.5037,-5.7763"
     fill="none"
     stroke="#222222"
     stroke-linecap="round"
     stroke-miterlimit="10"
     id="path64" />
  <path
     d="M 111.311,86.2547 H 77.791 L 88.2947,92.031"
     fill="none"
     stroke="#222222"
     stroke-linecap="round"
     stroke-miterlimit="10"
     id="path66" />
  <path
     d="m -7.0391,-15.584 h 200 v 120 h -200 z"
     fill="none"
     id="path68" />
  <g
     aria-label="R"
     id="text145"
     style="font-style:normal;font-weight:normal;font-size:16px;line-height:1.25;font-family:sans-serif;fill:#000000;fill-opacity:1;stroke:none">
    <path
       d="m 46.4635,90.1186 q -0.448,0 -0.848,-0.08 -0.4,-0.064 -0.736,-0.256 -0.336,-0.192 -0.624,-0.528 -0.384,-0.48 -0.736,-0.912 -0.352,-0.448 -0.752,-1.024 -0.384,-0.576 -0.944,-1.472 -0.24,-0.4 -0.688,-0.624 -0.352,-0.176 -0.704,-0.24 -0.336,-0.08 -0.56,-0.096 -0.128,-0.016 -0.192,0.08 -0.048,0.096 -0.048,0.24 v 2.816 q 0,0.512 0.24,0.896 0.24,0.368 0.832,0.48 0.272,0.048 0.4,0.112 0.128,0.064 0.128,0.176 0,0.096 -0.128,0.128 -0.128,0.048 -0.336,0.048 -0.432,0 -0.672,-0.032 -0.224,-0.032 -0.416,-0.048 -0.176,-0.032 -0.48,-0.032 -0.4,0 -0.72,0.032 -0.304,0.016 -0.624,0.048 -0.304,0.032 -0.736,0.032 -0.208,0 -0.336,-0.048 -0.128,-0.032 -0.128,-0.128 0,-0.192 0.528,-0.288 0.608,-0.112 0.88,-0.368 0.288,-0.256 0.288,-0.848 v -6.816 q 0,-0.608 -0.064,-0.912 -0.048,-0.32 -0.256,-0.448 -0.192,-0.128 -0.656,-0.176 -0.272,-0.032 -0.4,-0.112 -0.128,-0.096 -0.128,-0.208 0,-0.096 0.128,-0.128 0.128,-0.048 0.336,-0.048 0.432,0 0.64,0 0.224,0 0.416,0.016 0.192,0 0.512,0 0.304,0 0.544,-0.016 0.24,-0.032 0.528,-0.048 0.304,-0.016 0.768,-0.016 1.76,0 2.672,0.656 0.928,0.656 0.928,1.968 0,0.72 -0.288,1.248 -0.288,0.512 -0.72,0.864 -0.432,0.352 -0.88,0.576 -0.064,0.016 -0.064,0.08 0.016,0.048 0.064,0.128 0.496,0.752 0.944,1.424 0.464,0.672 1.008,1.312 0.544,0.64 1.296,1.328 0.416,0.368 0.848,0.448 0.432,0.08 0.992,0.08 0.24,0 0.24,0.176 0,0.24 -0.24,0.352 -0.24,0.128 -0.544,0.16 -0.304,0.048 -0.512,0.048 z m -5.984,-5.6 q 0.736,0 1.264,-0.336 0.544,-0.336 0.832,-0.88 0.304,-0.544 0.304,-1.152 0,-0.656 -0.176,-1.2 -0.16,-0.544 -0.672,-0.864 -0.496,-0.336 -1.504,-0.336 -0.512,0 -0.672,0.336 -0.16,0.32 -0.192,1.152 -0.016,0.4 -0.032,1.088 0,0.672 0,1.632 0,0.4 0.224,0.48 0.224,0.08 0.624,0.08 z"
       style="font-style:normal;font-variant:normal;font-weight:normal;font-stretch:normal;font-size:16px;font-family:'EB Garamond';-inkscape-font-specification:'EB Garamond'"
       id="path46" />
  </g>
  <g
     aria-label="P"
     id="text145-3"
     style="font-style:normal;font-weight:normal;font-size:16px;line-height:1.25;font-family:sans-serif;fill:#000000;fill-opacity:1;stroke:none">
    <path
       d="m 142.65501,89.998602 q -0.208,0 -0.336,-0.048 -0.128,-0.032 -0.128,-0.128 0,-0.192 0.528,-0.288 0.608,-0.112 0.88,-0.368 0.288,-0.256 0.288,-0.848 v -6.752 q 0,-0.72 -0.192,-1.104 -0.176,-0.384 -0.784,-0.496 -0.272,-0.048 -0.4,-0.128 -0.128,-0.08 -0.128,-0.192 0,-0.096 0.128,-0.128 0.128,-0.048 0.336,-0.048 0.432,0 0.64,0 0.224,0 0.416,0.016 0.192,0 0.512,0 0.32,0 0.64,-0.016 0.336,-0.032 0.624,-0.048 0.288,-0.032 0.512,-0.032 1.824,0 2.928,0.752 1.12,0.752 1.12,2.096 0,0.976 -0.384,1.808 -0.384,0.816 -1.184,1.312 -0.784,0.496 -2.016,0.496 -0.352,0 -0.544,-0.096 -0.176,-0.112 -0.176,-0.208 0,-0.064 0.08,-0.144 0.096,-0.08 0.176,-0.08 0.08,0 0.24,0.016 0.176,0.016 0.496,0.016 0.96,0 1.44,-0.8 0.496,-0.8 0.496,-2.208 0,-1.28 -0.752,-1.888 -0.752,-0.624 -1.92,-0.624 -0.448,0 -0.736,0.16 -0.288,0.144 -0.288,0.512 v 7.632 q 0,0.576 0.24,0.928 0.24,0.352 0.832,0.464 0.272,0.048 0.4,0.112 0.128,0.064 0.128,0.176 0,0.096 -0.128,0.128 -0.128,0.048 -0.336,0.048 -0.432,0 -0.672,-0.032 -0.224,-0.032 -0.416,-0.048 -0.176,-0.032 -0.48,-0.032 -0.4,0 -0.72,0.032 -0.304,0.016 -0.624,0.048 -0.304,0.032 -0.736,0.032 z"
       style="font-style:normal;font-variant:normal;font-weight:normal;font-stretch:normal;font-size:16px;font-family:'EB Garamond';-inkscape-font-specification:'EB Garamond'"
       id="path49" />
  </g>
</svg>
