<?xml version="1.0" encoding="UTF-8" standalone="no"?>
<svg
   width="349.58pt"
   height="101.85pt"
   viewBox="0 0 349.58 101.85"
   version="1.1"
   id="svg77"
   sodipodi:docname="imagen-derecha-invertida-aumentada-reducida.pdf"
   xmlns:inkscape="http://www.inkscape.org/namespaces/inkscape"
   xmlns:sodipodi="http://sodipodi.sourceforge.net/DTD/sodipodi-0.dtd"
   xmlns:xlink="http://www.w3.org/1999/xlink"
   xmlns="http://www.w3.org/2000/svg"
   xmlns:svg="http://www.w3.org/2000/svg">
  <sodipodi:namedview
     id="namedview77"
     pagecolor="#ffffff"
     bordercolor="#000000"
     borderopacity="0.25"
     inkscape:showpageshadow="2"
     inkscape:pageopacity="0.0"
     inkscape:pagecheckerboard="0"
     inkscape:deskcolor="#d1d1d1"
     inkscape:document-units="pt" />
  <defs
     id="defs17">
    <g
       id="g17">
      <g
         id="glyph-0-0">
        <path
           d="M -0.328125 2.890625 C 0.21875 2.890625 0.984375 2.15625 1.6875 1.296875 C 3.15625 -0.53125 4.15625 -2.546875 4.15625 -3.78125 C 4.15625 -4.03125 3.90625 -4.21875 3.828125 -4.21875 C 3.765625 -4.21875 3.640625 -4.09375 3.640625 -4.03125 C 3.640625 -2.703125 3.21875 -1.578125 2.78125 -0.75 C 2.6875 -0.578125 2.625 -0.53125 2.625 -0.78125 C 2.6875 -2.109375 2.5 -2.890625 2.328125 -3.46875 C 2.1875 -3.890625 1.96875 -4.125 1.65625 -4.125 C 1.203125 -4.125 0.625 -3.484375 0.625 -2.875 C 0.625 -2.734375 0.671875 -2.609375 0.71875 -2.609375 C 0.796875 -2.609375 0.890625 -2.828125 0.90625 -2.890625 C 0.984375 -3.125 1.265625 -3.53125 1.46875 -3.53125 C 1.671875 -3.53125 2.046875 -3 2.046875 -1.53125 C 2.046875 -0.625 1.96875 0.125 1.671875 0.734375 C 1.21875 1.625 0.6875 2.296875 0.21875 2.296875 C 0.09375 2.296875 0.015625 2.21875 -0.078125 2.140625 C -0.171875 2.0625 -0.265625 1.96875 -0.390625 1.96875 C -0.578125 1.96875 -0.78125 2.203125 -0.78125 2.46875 C -0.78125 2.75 -0.53125 2.890625 -0.328125 2.890625 Z M -0.328125 2.890625 "
           id="path1" />
      </g>
      <g
         id="glyph-0-1">
        <path
           d="M 2.796875 0.140625 C 5.296875 0.140625 6.6875 -2.140625 6.6875 -4.0625 C 6.6875 -5.4375 6 -6.625 4.453125 -6.625 C 1.953125 -6.625 0.5625 -4.34375 0.5625 -2.421875 C 0.5625 -1.046875 1.25 0.140625 2.796875 0.140625 Z M 2.828125 -0.171875 C 1.8125 -0.171875 1.40625 -1.109375 1.40625 -2.046875 C 1.40625 -3.984375 2.6875 -6.34375 4.421875 -6.34375 C 5.4375 -6.34375 5.84375 -5.375 5.84375 -4.4375 C 5.84375 -2.5 4.640625 -0.171875 2.828125 -0.171875 Z M 2.828125 -0.171875 "
           id="path2" />
      </g>
      <g
         id="glyph-1-0">
        <path
           d="M 7.3125 21.59375 C 7.5625 21.59375 7.84375 21.4375 7.84375 21.15625 C 7.84375 21.109375 7.5625 20.84375 7.546875 20.796875 C 5.84375 18.890625 3.640625 8.140625 3.640625 -5.703125 C 3.640625 -19.546875 5.890625 -28.96875 7.609375 -30.875 C 7.65625 -30.921875 7.875 -31.203125 7.875 -31.234375 C 7.875 -31.421875 7.5625 -31.5625 7.4375 -31.5625 C 7.234375 -31.5625 7.015625 -31.46875 6.890625 -31.359375 C 4.984375 -29.4375 1.984375 -19.296875 1.984375 -5.453125 C 1.984375 8.390625 5.0625 19.5625 6.96875 21.46875 C 7.078125 21.578125 7.1875 21.59375 7.3125 21.59375 Z M 7.3125 21.59375 "
           id="path3" />
      </g>
      <g
         id="glyph-1-1">
        <path
           d="M 1.546875 21.59375 C 1.671875 21.59375 1.796875 21.578125 1.890625 21.46875 C 3.8125 19.5625 6.875 8.390625 6.875 -5.453125 C 6.875 -19.296875 3.890625 -29.4375 1.96875 -31.359375 C 1.859375 -31.46875 1.640625 -31.5625 1.4375 -31.5625 C 1.296875 -31.5625 1 -31.421875 1 -31.234375 C 1 -31.203125 1.21875 -30.921875 1.25 -30.875 C 2.96875 -28.96875 5.21875 -19.546875 5.21875 -5.703125 C 5.21875 8.140625 3.03125 18.890625 1.3125 20.796875 C 1.296875 20.84375 1.015625 21.109375 1.015625 21.15625 C 1.015625 21.4375 1.296875 21.59375 1.546875 21.59375 Z M 1.546875 21.59375 "
           id="path4" />
      </g>
      <g
         id="glyph-2-0">
        <path
           d="M 0.484375 -1.046875 C 0.609375 -1.046875 0.703125 -1.21875 0.78125 -1.359375 C 1.125 -1.953125 1.703125 -3.40625 1.703125 -3.734375 C 1.703125 -3.875 1.6875 -3.96875 1.5625 -3.96875 C 1.25 -3.96875 0.9375 -3.796875 0.84375 -3.421875 C 0.78125 -3.1875 0.34375 -1.484375 0.34375 -1.265625 C 0.34375 -1.15625 0.359375 -1.046875 0.484375 -1.046875 Z M 0.484375 -1.046875 "
           id="path5" />
      </g>
      <g
         id="glyph-3-0">
        <path
           d="M 3.5625 0.1875 C 3.539062 0.1875 3.515625 0.171875 3.484375 0.140625 C 3.460938 0.117188 3.453125 0.101562 3.453125 0.09375 C 3.453125 0.0195312 3.457031 -0.0703125 3.46875 -0.1875 C 3.488281 -0.3125 3.5 -0.421875 3.5 -0.515625 L 3.5 -0.5625 C 3.394531 -0.414062 3.234375 -0.257812 3.015625 -0.09375 C 2.796875 0.0585938 2.519531 0.140625 2.1875 0.140625 C 1.8125 0.140625 1.484375 0.0390625 1.203125 -0.15625 C 0.929688 -0.351562 0.71875 -0.609375 0.5625 -0.921875 C 0.414062 -1.234375 0.34375 -1.554688 0.34375 -1.890625 C 0.34375 -2.273438 0.429688 -2.632812 0.609375 -2.96875 C 0.796875 -3.3125 1.054688 -3.585938 1.390625 -3.796875 C 1.722656 -4.015625 2.125 -4.125 2.59375 -4.125 C 2.726562 -4.125 2.863281 -4.113281 3 -4.09375 C 3.132812 -4.070312 3.238281 -4.046875 3.3125 -4.015625 C 3.375 -3.992188 3.414062 -3.984375 3.4375 -3.984375 C 3.488281 -3.984375 3.515625 -4.066406 3.515625 -4.234375 L 3.515625 -5.640625 C 3.515625 -5.910156 3.46875 -6.09375 3.375 -6.1875 C 3.289062 -6.28125 3.171875 -6.34375 3.015625 -6.375 C 2.953125 -6.382812 2.921875 -6.425781 2.921875 -6.5 C 2.921875 -6.5625 2.945312 -6.601562 3 -6.625 C 3.289062 -6.695312 3.519531 -6.765625 3.6875 -6.828125 C 3.851562 -6.890625 3.984375 -6.941406 4.078125 -6.984375 C 4.097656 -7.003906 4.117188 -7.015625 4.140625 -7.015625 C 4.171875 -7.015625 4.191406 -7.015625 4.203125 -7.015625 C 4.242188 -7.015625 4.269531 -6.992188 4.28125 -6.953125 C 4.28125 -6.910156 4.273438 -6.84375 4.265625 -6.75 C 4.253906 -6.65625 4.238281 -6.515625 4.21875 -6.328125 C 4.207031 -6.140625 4.203125 -5.898438 4.203125 -5.609375 L 4.203125 -1.09375 C 4.203125 -0.863281 4.21875 -0.695312 4.25 -0.59375 C 4.289062 -0.5 4.347656 -0.453125 4.421875 -0.453125 C 4.453125 -0.453125 4.507812 -0.453125 4.59375 -0.453125 C 4.675781 -0.460938 4.757812 -0.472656 4.84375 -0.484375 C 4.96875 -0.484375 5.03125 -0.453125 5.03125 -0.390625 C 5.03125 -0.335938 5.015625 -0.289062 4.984375 -0.25 C 4.953125 -0.21875 4.921875 -0.203125 4.890625 -0.203125 C 4.703125 -0.179688 4.515625 -0.144531 4.328125 -0.09375 C 4.148438 -0.0390625 3.945312 0.03125 3.71875 0.125 C 3.664062 0.15625 3.628906 0.171875 3.609375 0.171875 C 3.597656 0.179688 3.582031 0.1875 3.5625 0.1875 Z M 2.546875 -0.375 C 2.722656 -0.375 2.894531 -0.414062 3.0625 -0.5 C 3.226562 -0.59375 3.375 -0.71875 3.5 -0.875 L 3.515625 -2.65625 C 3.515625 -2.84375 3.460938 -3.019531 3.359375 -3.1875 C 3.253906 -3.363281 3.109375 -3.503906 2.921875 -3.609375 C 2.742188 -3.722656 2.53125 -3.78125 2.28125 -3.78125 C 2.125 -3.78125 1.945312 -3.734375 1.75 -3.640625 C 1.5625 -3.546875 1.398438 -3.378906 1.265625 -3.140625 C 1.128906 -2.910156 1.0625 -2.570312 1.0625 -2.125 C 1.0625 -1.75 1.113281 -1.445312 1.21875 -1.21875 C 1.332031 -0.988281 1.472656 -0.8125 1.640625 -0.6875 C 1.804688 -0.570312 1.972656 -0.488281 2.140625 -0.4375 C 2.304688 -0.394531 2.441406 -0.375 2.546875 -0.375 Z M 2.546875 -0.375 "
           id="path6" />
      </g>
      <g
         id="glyph-3-1">
        <path
           d="M 2.125 0.15625 C 1.757812 0.15625 1.4375 0.0664062 1.15625 -0.109375 C 0.882812 -0.296875 0.671875 -0.550781 0.515625 -0.875 C 0.367188 -1.207031 0.296875 -1.59375 0.296875 -2.03125 C 0.296875 -2.414062 0.382812 -2.765625 0.5625 -3.078125 C 0.738281 -3.390625 0.972656 -3.640625 1.265625 -3.828125 C 1.554688 -4.023438 1.875 -4.125 2.21875 -4.125 C 2.488281 -4.125 2.722656 -4.070312 2.921875 -3.96875 C 3.128906 -3.863281 3.289062 -3.710938 3.40625 -3.515625 C 3.53125 -3.328125 3.59375 -3.113281 3.59375 -2.875 C 3.59375 -2.664062 3.492188 -2.5625 3.296875 -2.5625 L 1.1875 -2.5625 C 1.09375 -2.5625 1.023438 -2.535156 0.984375 -2.484375 C 0.953125 -2.429688 0.9375 -2.332031 0.9375 -2.1875 C 0.9375 -1.875 1.003906 -1.582031 1.140625 -1.3125 C 1.285156 -1.050781 1.472656 -0.84375 1.703125 -0.6875 C 1.929688 -0.53125 2.1875 -0.453125 2.46875 -0.453125 C 2.664062 -0.453125 2.847656 -0.488281 3.015625 -0.5625 C 3.179688 -0.644531 3.328125 -0.757812 3.453125 -0.90625 C 3.472656 -0.9375 3.488281 -0.957031 3.5 -0.96875 C 3.519531 -0.976562 3.539062 -0.984375 3.5625 -0.984375 C 3.613281 -0.984375 3.640625 -0.953125 3.640625 -0.890625 C 3.640625 -0.765625 3.578125 -0.625 3.453125 -0.46875 C 3.359375 -0.34375 3.238281 -0.234375 3.09375 -0.140625 C 2.957031 -0.046875 2.804688 0.0234375 2.640625 0.078125 C 2.472656 0.128906 2.300781 0.15625 2.125 0.15625 Z M 1.203125 -2.875 L 2.109375 -2.875 C 2.273438 -2.875 2.410156 -2.875 2.515625 -2.875 C 2.628906 -2.882812 2.738281 -2.898438 2.84375 -2.921875 C 2.882812 -2.929688 2.910156 -2.953125 2.921875 -2.984375 C 2.929688 -3.023438 2.9375 -3.078125 2.9375 -3.140625 C 2.9375 -3.328125 2.847656 -3.488281 2.671875 -3.625 C 2.503906 -3.769531 2.304688 -3.84375 2.078125 -3.84375 C 1.921875 -3.84375 1.765625 -3.796875 1.609375 -3.703125 C 1.460938 -3.609375 1.335938 -3.492188 1.234375 -3.359375 C 1.140625 -3.234375 1.09375 -3.101562 1.09375 -2.96875 C 1.09375 -2.90625 1.128906 -2.875 1.203125 -2.875 Z M 1.203125 -2.875 "
           id="path7" />
      </g>
      <g
         id="glyph-3-2">
        <path
           d="M 0.484375 0.03125 C 0.421875 0.03125 0.375 0.0195312 0.34375 0 C 0.3125 -0.0078125 0.296875 -0.0351562 0.296875 -0.078125 C 0.296875 -0.128906 0.3125 -0.160156 0.34375 -0.171875 C 0.382812 -0.191406 0.441406 -0.210938 0.515625 -0.234375 C 0.640625 -0.273438 0.734375 -0.328125 0.796875 -0.390625 C 0.859375 -0.453125 0.890625 -0.53125 0.890625 -0.625 L 0.890625 -2.765625 C 0.890625 -2.941406 0.863281 -3.09375 0.8125 -3.21875 C 0.757812 -3.351562 0.648438 -3.441406 0.484375 -3.484375 C 0.460938 -3.484375 0.441406 -3.492188 0.421875 -3.515625 C 0.398438 -3.546875 0.390625 -3.578125 0.390625 -3.609375 C 0.390625 -3.671875 0.421875 -3.710938 0.484375 -3.734375 C 0.648438 -3.785156 0.828125 -3.859375 1.015625 -3.953125 C 1.210938 -4.054688 1.363281 -4.144531 1.46875 -4.21875 C 1.507812 -4.238281 1.539062 -4.253906 1.5625 -4.265625 C 1.582031 -4.273438 1.597656 -4.28125 1.609375 -4.28125 C 1.648438 -4.28125 1.671875 -4.257812 1.671875 -4.21875 C 1.671875 -4.195312 1.664062 -4.144531 1.65625 -4.0625 C 1.65625 -3.988281 1.648438 -3.894531 1.640625 -3.78125 C 1.640625 -3.675781 1.640625 -3.570312 1.640625 -3.46875 C 1.640625 -3.457031 1.644531 -3.453125 1.65625 -3.453125 C 1.757812 -3.585938 1.875 -3.703125 2 -3.796875 C 2.132812 -3.898438 2.269531 -3.976562 2.40625 -4.03125 C 2.539062 -4.09375 2.671875 -4.125 2.796875 -4.125 C 2.941406 -4.125 3.054688 -4.09375 3.140625 -4.03125 C 3.234375 -3.976562 3.28125 -3.90625 3.28125 -3.8125 C 3.28125 -3.738281 3.257812 -3.660156 3.21875 -3.578125 C 3.1875 -3.503906 3.140625 -3.4375 3.078125 -3.375 C 3.015625 -3.320312 2.953125 -3.296875 2.890625 -3.296875 C 2.847656 -3.296875 2.800781 -3.300781 2.75 -3.3125 C 2.707031 -3.332031 2.660156 -3.351562 2.609375 -3.375 C 2.554688 -3.394531 2.503906 -3.414062 2.453125 -3.4375 C 2.398438 -3.457031 2.347656 -3.46875 2.296875 -3.46875 C 2.128906 -3.46875 1.972656 -3.410156 1.828125 -3.296875 C 1.679688 -3.179688 1.609375 -2.957031 1.609375 -2.625 L 1.609375 -0.625 C 1.609375 -0.53125 1.65625 -0.453125 1.75 -0.390625 C 1.84375 -0.335938 1.972656 -0.285156 2.140625 -0.234375 C 2.210938 -0.210938 2.265625 -0.191406 2.296875 -0.171875 C 2.335938 -0.160156 2.359375 -0.128906 2.359375 -0.078125 C 2.359375 -0.00390625 2.289062 0.03125 2.15625 0.03125 C 1.957031 0.03125 1.804688 0.0195312 1.703125 0 C 1.609375 -0.0078125 1.472656 -0.015625 1.296875 -0.015625 C 1.179688 -0.015625 1.085938 -0.0078125 1.015625 0 C 0.953125 0 0.878906 0.00390625 0.796875 0.015625 C 0.722656 0.0234375 0.617188 0.03125 0.484375 0.03125 Z M 0.484375 0.03125 "
           id="path8" />
      </g>
      <g
         id="glyph-3-3">
        <path
           d="M 2.125 0.15625 C 1.789062 0.15625 1.488281 0.0703125 1.21875 -0.09375 C 0.945312 -0.269531 0.734375 -0.503906 0.578125 -0.796875 C 0.421875 -1.097656 0.34375 -1.429688 0.34375 -1.796875 C 0.34375 -2.222656 0.4375 -2.613281 0.625 -2.96875 C 0.820312 -3.320312 1.078125 -3.601562 1.390625 -3.8125 C 1.710938 -4.019531 2.066406 -4.125 2.453125 -4.125 C 2.878906 -4.125 3.257812 -4.007812 3.59375 -3.78125 C 3.664062 -3.71875 3.703125 -3.65625 3.703125 -3.59375 C 3.703125 -3.539062 3.675781 -3.476562 3.625 -3.40625 C 3.582031 -3.34375 3.53125 -3.289062 3.46875 -3.25 C 3.40625 -3.207031 3.34375 -3.1875 3.28125 -3.1875 C 3.25 -3.1875 3.210938 -3.195312 3.171875 -3.21875 C 3.140625 -3.238281 3.109375 -3.265625 3.078125 -3.296875 C 2.921875 -3.398438 2.753906 -3.503906 2.578125 -3.609375 C 2.398438 -3.710938 2.253906 -3.765625 2.140625 -3.765625 C 1.804688 -3.765625 1.535156 -3.609375 1.328125 -3.296875 C 1.128906 -2.992188 1.03125 -2.597656 1.03125 -2.109375 C 1.03125 -1.796875 1.097656 -1.515625 1.234375 -1.265625 C 1.378906 -1.015625 1.566406 -0.816406 1.796875 -0.671875 C 2.023438 -0.523438 2.273438 -0.453125 2.546875 -0.453125 C 2.742188 -0.453125 2.910156 -0.484375 3.046875 -0.546875 C 3.191406 -0.609375 3.34375 -0.71875 3.5 -0.875 C 3.507812 -0.882812 3.523438 -0.894531 3.546875 -0.90625 C 3.566406 -0.914062 3.582031 -0.921875 3.59375 -0.921875 C 3.664062 -0.921875 3.703125 -0.875 3.703125 -0.78125 C 3.703125 -0.75 3.691406 -0.707031 3.671875 -0.65625 C 3.648438 -0.601562 3.613281 -0.546875 3.5625 -0.484375 C 3.457031 -0.347656 3.328125 -0.226562 3.171875 -0.125 C 3.023438 -0.03125 2.863281 0.0351562 2.6875 0.078125 C 2.519531 0.128906 2.332031 0.15625 2.125 0.15625 Z M 2.125 0.15625 "
           id="path9" />
      </g>
      <g
         id="glyph-3-4">
        <path
           d="M 0.390625 0.03125 C 0.253906 0.03125 0.1875 -0.00390625 0.1875 -0.078125 C 0.1875 -0.140625 0.265625 -0.191406 0.421875 -0.234375 C 0.515625 -0.273438 0.609375 -0.320312 0.703125 -0.375 C 0.796875 -0.425781 0.84375 -0.515625 0.84375 -0.640625 L 0.84375 -5.640625 C 0.84375 -5.816406 0.8125 -5.972656 0.75 -6.109375 C 0.695312 -6.242188 0.582031 -6.328125 0.40625 -6.359375 C 0.34375 -6.367188 0.3125 -6.414062 0.3125 -6.5 C 0.3125 -6.5625 0.34375 -6.601562 0.40625 -6.625 C 0.488281 -6.65625 0.59375 -6.6875 0.71875 -6.71875 C 0.851562 -6.757812 0.988281 -6.804688 1.125 -6.859375 C 1.269531 -6.910156 1.394531 -6.960938 1.5 -7.015625 C 1.53125 -7.023438 1.550781 -7.03125 1.5625 -7.03125 C 1.582031 -7.03125 1.597656 -7.019531 1.609375 -7 C 1.628906 -6.988281 1.640625 -6.972656 1.640625 -6.953125 C 1.640625 -6.910156 1.628906 -6.851562 1.609375 -6.78125 C 1.585938 -6.707031 1.570312 -6.582031 1.5625 -6.40625 C 1.550781 -6.226562 1.546875 -5.960938 1.546875 -5.609375 L 1.546875 -3.875 C 1.546875 -3.757812 1.550781 -3.675781 1.5625 -3.625 C 1.570312 -3.582031 1.585938 -3.539062 1.609375 -3.5 C 1.722656 -3.582031 1.859375 -3.671875 2.015625 -3.765625 C 2.171875 -3.859375 2.34375 -3.941406 2.53125 -4.015625 C 2.726562 -4.085938 2.925781 -4.125 3.125 -4.125 C 3.457031 -4.125 3.726562 -3.992188 3.9375 -3.734375 C 4.15625 -3.484375 4.265625 -3.160156 4.265625 -2.765625 L 4.265625 -0.671875 C 4.265625 -0.546875 4.304688 -0.453125 4.390625 -0.390625 C 4.484375 -0.328125 4.578125 -0.273438 4.671875 -0.234375 C 4.742188 -0.210938 4.800781 -0.191406 4.84375 -0.171875 C 4.882812 -0.148438 4.90625 -0.117188 4.90625 -0.078125 C 4.90625 -0.00390625 4.835938 0.03125 4.703125 0.03125 C 4.566406 0.03125 4.460938 0.0234375 4.390625 0.015625 C 4.328125 0.00390625 4.265625 0 4.203125 0 C 4.140625 -0.0078125 4.046875 -0.015625 3.921875 -0.015625 C 3.816406 -0.015625 3.726562 -0.0078125 3.65625 0 C 3.59375 0 3.523438 0.00390625 3.453125 0.015625 C 3.378906 0.0234375 3.28125 0.03125 3.15625 0.03125 C 3.019531 0.03125 2.953125 -0.00390625 2.953125 -0.078125 C 2.953125 -0.128906 2.972656 -0.160156 3.015625 -0.171875 C 3.054688 -0.191406 3.113281 -0.210938 3.1875 -0.234375 C 3.28125 -0.273438 3.363281 -0.328125 3.4375 -0.390625 C 3.519531 -0.453125 3.5625 -0.546875 3.5625 -0.671875 L 3.5625 -2.71875 C 3.5625 -2.875 3.515625 -3.019531 3.421875 -3.15625 C 3.328125 -3.300781 3.207031 -3.410156 3.0625 -3.484375 C 2.925781 -3.566406 2.785156 -3.609375 2.640625 -3.609375 C 2.515625 -3.609375 2.367188 -3.585938 2.203125 -3.546875 C 2.035156 -3.515625 1.90625 -3.460938 1.8125 -3.390625 C 1.707031 -3.304688 1.632812 -3.21875 1.59375 -3.125 C 1.5625 -3.03125 1.546875 -2.878906 1.546875 -2.671875 L 1.546875 -0.640625 C 1.554688 -0.515625 1.597656 -0.425781 1.671875 -0.375 C 1.742188 -0.320312 1.832031 -0.273438 1.9375 -0.234375 C 2.007812 -0.210938 2.0625 -0.191406 2.09375 -0.171875 C 2.132812 -0.148438 2.15625 -0.117188 2.15625 -0.078125 C 2.15625 -0.00390625 2.085938 0.03125 1.953125 0.03125 C 1.816406 0.03125 1.71875 0.0234375 1.65625 0.015625 C 1.59375 0.00390625 1.53125 0 1.46875 0 C 1.40625 -0.0078125 1.316406 -0.015625 1.203125 -0.015625 C 1.085938 -0.015625 0.992188 -0.0078125 0.921875 0 C 0.847656 0 0.773438 0.00390625 0.703125 0.015625 C 0.628906 0.0234375 0.523438 0.03125 0.390625 0.03125 Z M 0.390625 0.03125 "
           id="path10" />
      </g>
      <g
         id="glyph-3-5">
        <path
           d="M 1.171875 0.140625 C 1.046875 0.140625 0.921875 0.09375 0.796875 0 C 0.679688 -0.09375 0.582031 -0.203125 0.5 -0.328125 C 0.414062 -0.460938 0.375 -0.59375 0.375 -0.71875 C 0.375 -0.925781 0.425781 -1.085938 0.53125 -1.203125 C 0.644531 -1.328125 0.828125 -1.441406 1.078125 -1.546875 L 2.09375 -1.96875 C 2.226562 -2.019531 2.304688 -2.0625 2.328125 -2.09375 C 2.347656 -2.132812 2.363281 -2.222656 2.375 -2.359375 L 2.390625 -3 C 2.398438 -3.175781 2.351562 -3.328125 2.25 -3.453125 C 2.144531 -3.578125 1.992188 -3.640625 1.796875 -3.640625 C 1.703125 -3.640625 1.601562 -3.617188 1.5 -3.578125 C 1.40625 -3.546875 1.320312 -3.503906 1.25 -3.453125 C 1.21875 -3.429688 1.191406 -3.394531 1.171875 -3.34375 C 1.160156 -3.289062 1.15625 -3.234375 1.15625 -3.171875 C 1.15625 -3.140625 1.15625 -3.109375 1.15625 -3.078125 C 1.164062 -3.046875 1.171875 -3.015625 1.171875 -2.984375 C 1.171875 -2.953125 1.128906 -2.90625 1.046875 -2.84375 C 0.960938 -2.789062 0.867188 -2.742188 0.765625 -2.703125 C 0.660156 -2.660156 0.578125 -2.640625 0.515625 -2.640625 C 0.472656 -2.640625 0.441406 -2.644531 0.421875 -2.65625 C 0.410156 -2.675781 0.40625 -2.703125 0.40625 -2.734375 C 0.40625 -2.835938 0.4375 -2.953125 0.5 -3.078125 C 0.570312 -3.203125 0.671875 -3.316406 0.796875 -3.421875 C 0.953125 -3.554688 1.117188 -3.675781 1.296875 -3.78125 C 1.472656 -3.894531 1.644531 -3.976562 1.8125 -4.03125 C 1.988281 -4.09375 2.144531 -4.125 2.28125 -4.125 C 2.519531 -4.125 2.71875 -4.039062 2.875 -3.875 C 3.03125 -3.707031 3.101562 -3.492188 3.09375 -3.234375 L 3.046875 -0.84375 C 3.046875 -0.707031 3.078125 -0.59375 3.140625 -0.5 C 3.210938 -0.414062 3.300781 -0.375 3.40625 -0.375 C 3.570312 -0.375 3.695312 -0.410156 3.78125 -0.484375 C 3.8125 -0.515625 3.835938 -0.53125 3.859375 -0.53125 C 3.890625 -0.53125 3.914062 -0.519531 3.9375 -0.5 C 3.957031 -0.488281 3.96875 -0.460938 3.96875 -0.421875 C 3.96875 -0.347656 3.929688 -0.273438 3.859375 -0.203125 C 3.753906 -0.0976562 3.640625 -0.0117188 3.515625 0.046875 C 3.390625 0.109375 3.273438 0.140625 3.171875 0.140625 C 2.867188 0.140625 2.625 -0.03125 2.4375 -0.375 L 2.40625 -0.375 C 2.1875 -0.195312 1.976562 -0.0664062 1.78125 0.015625 C 1.582031 0.0976562 1.378906 0.140625 1.171875 0.140625 Z M 1.640625 -0.34375 C 1.765625 -0.34375 1.875 -0.363281 1.96875 -0.40625 C 2.0625 -0.445312 2.144531 -0.503906 2.21875 -0.578125 C 2.25 -0.609375 2.273438 -0.648438 2.296875 -0.703125 C 2.328125 -0.765625 2.347656 -0.859375 2.359375 -0.984375 L 2.375 -1.46875 C 2.375 -1.539062 2.367188 -1.59375 2.359375 -1.625 C 2.347656 -1.664062 2.320312 -1.6875 2.28125 -1.6875 C 2.269531 -1.6875 2.242188 -1.679688 2.203125 -1.671875 C 2.171875 -1.671875 2.128906 -1.660156 2.078125 -1.640625 C 1.734375 -1.515625 1.488281 -1.378906 1.34375 -1.234375 C 1.207031 -1.097656 1.140625 -0.976562 1.140625 -0.875 C 1.140625 -0.695312 1.191406 -0.5625 1.296875 -0.46875 C 1.398438 -0.382812 1.515625 -0.34375 1.640625 -0.34375 Z M 1.640625 -0.34375 "
           id="path11" />
      </g>
      <g
         id="glyph-3-6">
        <path
           d="M 0.4375 0.03125 C 0.375 0.03125 0.320312 0.0195312 0.28125 0 C 0.25 -0.0078125 0.234375 -0.0351562 0.234375 -0.078125 C 0.234375 -0.128906 0.257812 -0.164062 0.3125 -0.1875 C 0.363281 -0.207031 0.414062 -0.222656 0.46875 -0.234375 C 0.601562 -0.273438 0.707031 -0.316406 0.78125 -0.359375 C 0.851562 -0.410156 0.890625 -0.5 0.890625 -0.625 L 0.890625 -2.78125 C 0.890625 -2.957031 0.859375 -3.113281 0.796875 -3.25 C 0.734375 -3.394531 0.617188 -3.484375 0.453125 -3.515625 C 0.421875 -3.515625 0.394531 -3.523438 0.375 -3.546875 C 0.351562 -3.566406 0.34375 -3.597656 0.34375 -3.640625 C 0.34375 -3.710938 0.375 -3.753906 0.4375 -3.765625 C 0.707031 -3.816406 0.925781 -3.894531 1.09375 -4 C 1.269531 -4.101562 1.398438 -4.1875 1.484375 -4.25 C 1.546875 -4.300781 1.59375 -4.328125 1.625 -4.328125 C 1.664062 -4.328125 1.6875 -4.3125 1.6875 -4.28125 C 1.6875 -4.226562 1.675781 -4.125 1.65625 -3.96875 C 1.644531 -3.8125 1.628906 -3.632812 1.609375 -3.4375 C 1.597656 -3.25 1.59375 -3.082031 1.59375 -2.9375 L 1.59375 -0.625 C 1.59375 -0.507812 1.628906 -0.425781 1.703125 -0.375 C 1.785156 -0.320312 1.894531 -0.273438 2.03125 -0.234375 C 2.082031 -0.222656 2.128906 -0.207031 2.171875 -0.1875 C 2.222656 -0.164062 2.25 -0.128906 2.25 -0.078125 C 2.25 -0.00390625 2.179688 0.03125 2.046875 0.03125 C 1.921875 0.03125 1.820312 0.0234375 1.75 0.015625 C 1.675781 0.00390625 1.601562 0 1.53125 0 C 1.457031 -0.0078125 1.363281 -0.015625 1.25 -0.015625 C 1.132812 -0.015625 1.039062 -0.0078125 0.96875 0 C 0.894531 0 0.820312 0.00390625 0.75 0.015625 C 0.675781 0.0234375 0.570312 0.03125 0.4375 0.03125 Z M 1.234375 -5.140625 C 1.085938 -5.140625 0.96875 -5.1875 0.875 -5.28125 C 0.78125 -5.382812 0.734375 -5.503906 0.734375 -5.640625 C 0.734375 -5.785156 0.78125 -5.90625 0.875 -6 C 0.96875 -6.101562 1.085938 -6.15625 1.234375 -6.15625 C 1.378906 -6.15625 1.5 -6.101562 1.59375 -6 C 1.6875 -5.90625 1.734375 -5.785156 1.734375 -5.640625 C 1.734375 -5.503906 1.6875 -5.382812 1.59375 -5.28125 C 1.5 -5.1875 1.378906 -5.140625 1.234375 -5.140625 Z M 1.234375 -5.140625 "
           id="path12" />
      </g>
      <g
         id="glyph-3-7">
        <path
           d="M 0.4375 0.03125 C 0.375 0.03125 0.320312 0.0195312 0.28125 0 C 0.25 -0.0078125 0.234375 -0.0351562 0.234375 -0.078125 C 0.234375 -0.128906 0.253906 -0.160156 0.296875 -0.171875 C 0.335938 -0.191406 0.394531 -0.210938 0.46875 -0.234375 C 0.570312 -0.265625 0.664062 -0.300781 0.75 -0.34375 C 0.84375 -0.394531 0.890625 -0.488281 0.890625 -0.625 L 0.890625 -2.765625 C 0.890625 -2.941406 0.867188 -3.09375 0.828125 -3.21875 C 0.796875 -3.34375 0.695312 -3.429688 0.53125 -3.484375 C 0.5 -3.492188 0.472656 -3.503906 0.453125 -3.515625 C 0.429688 -3.535156 0.421875 -3.566406 0.421875 -3.609375 C 0.421875 -3.679688 0.453125 -3.722656 0.515625 -3.734375 C 0.753906 -3.785156 0.945312 -3.851562 1.09375 -3.9375 C 1.238281 -4.03125 1.378906 -4.128906 1.515625 -4.234375 C 1.535156 -4.242188 1.550781 -4.253906 1.5625 -4.265625 C 1.582031 -4.273438 1.601562 -4.28125 1.625 -4.28125 C 1.632812 -4.28125 1.644531 -4.273438 1.65625 -4.265625 C 1.664062 -4.253906 1.671875 -4.238281 1.671875 -4.21875 C 1.671875 -4.164062 1.660156 -4.066406 1.640625 -3.921875 C 1.628906 -3.785156 1.625 -3.671875 1.625 -3.578125 C 1.625 -3.546875 1.625 -3.519531 1.625 -3.5 C 1.632812 -3.476562 1.640625 -3.460938 1.640625 -3.453125 C 1.878906 -3.671875 2.128906 -3.835938 2.390625 -3.953125 C 2.648438 -4.066406 2.9375 -4.125 3.25 -4.125 C 3.570312 -4.125 3.835938 -3.988281 4.046875 -3.71875 C 4.265625 -3.457031 4.375 -3.128906 4.375 -2.734375 L 4.375 -0.625 C 4.375 -0.488281 4.421875 -0.398438 4.515625 -0.359375 C 4.609375 -0.316406 4.707031 -0.273438 4.8125 -0.234375 C 4.863281 -0.210938 4.910156 -0.191406 4.953125 -0.171875 C 5.003906 -0.148438 5.03125 -0.113281 5.03125 -0.0625 C 5.03125 -0.0195312 5.003906 0.00390625 4.953125 0.015625 C 4.910156 0.0234375 4.867188 0.03125 4.828125 0.03125 C 4.703125 0.03125 4.601562 0.0234375 4.53125 0.015625 C 4.457031 0.00390625 4.382812 0 4.3125 0 C 4.25 -0.0078125 4.15625 -0.015625 4.03125 -0.015625 C 3.925781 -0.015625 3.835938 -0.0078125 3.765625 0 C 3.691406 0 3.613281 0.00390625 3.53125 0.015625 C 3.457031 0.0234375 3.351562 0.03125 3.21875 0.03125 C 3.1875 0.03125 3.144531 0.0234375 3.09375 0.015625 C 3.039062 0.00390625 3.015625 -0.0195312 3.015625 -0.0625 C 3.015625 -0.113281 3.039062 -0.148438 3.09375 -0.171875 C 3.144531 -0.191406 3.195312 -0.210938 3.25 -0.234375 C 3.351562 -0.273438 3.445312 -0.316406 3.53125 -0.359375 C 3.625 -0.398438 3.671875 -0.488281 3.671875 -0.625 L 3.671875 -2.71875 C 3.671875 -3.007812 3.585938 -3.234375 3.421875 -3.390625 C 3.265625 -3.554688 3.050781 -3.644531 2.78125 -3.65625 C 2.539062 -3.65625 2.332031 -3.613281 2.15625 -3.53125 C 1.976562 -3.457031 1.816406 -3.363281 1.671875 -3.25 C 1.648438 -3.21875 1.628906 -3.179688 1.609375 -3.140625 C 1.597656 -3.097656 1.59375 -3.054688 1.59375 -3.015625 L 1.59375 -0.625 C 1.59375 -0.488281 1.640625 -0.394531 1.734375 -0.34375 C 1.828125 -0.300781 1.925781 -0.265625 2.03125 -0.234375 C 2.175781 -0.191406 2.25 -0.140625 2.25 -0.078125 C 2.25 -0.0351562 2.234375 -0.0078125 2.203125 0 C 2.171875 0.0195312 2.117188 0.03125 2.046875 0.03125 C 1.921875 0.03125 1.816406 0.0234375 1.734375 0.015625 C 1.660156 0.00390625 1.585938 0 1.515625 0 C 1.453125 -0.0078125 1.363281 -0.015625 1.25 -0.015625 C 1.132812 -0.015625 1.039062 -0.0078125 0.96875 0 C 0.90625 0 0.832031 0.00390625 0.75 0.015625 C 0.675781 0.0234375 0.570312 0.03125 0.4375 0.03125 Z M 0.4375 0.03125 "
           id="path13" />
      </g>
      <g
         id="glyph-3-8">
        <path
           d="M 2.140625 0.203125 C 2.109375 0.203125 2.070312 0.148438 2.03125 0.046875 C 1.988281 -0.0429688 1.960938 -0.117188 1.953125 -0.171875 C 1.910156 -0.285156 1.867188 -0.398438 1.828125 -0.515625 C 1.785156 -0.640625 1.742188 -0.757812 1.703125 -0.875 C 1.554688 -1.28125 1.398438 -1.679688 1.234375 -2.078125 C 1.066406 -2.472656 0.898438 -2.875 0.734375 -3.28125 C 0.691406 -3.394531 0.617188 -3.5 0.515625 -3.59375 C 0.421875 -3.695312 0.328125 -3.757812 0.234375 -3.78125 C 0.179688 -3.800781 0.132812 -3.820312 0.09375 -3.84375 C 0.0625 -3.863281 0.046875 -3.898438 0.046875 -3.953125 C 0.046875 -3.984375 0.0703125 -4.003906 0.125 -4.015625 C 0.175781 -4.023438 0.21875 -4.03125 0.25 -4.03125 C 0.382812 -4.03125 0.476562 -4.023438 0.53125 -4.015625 C 0.59375 -4.015625 0.65625 -4.007812 0.71875 -4 C 0.78125 -3.988281 0.867188 -3.984375 0.984375 -3.984375 C 1.097656 -3.984375 1.179688 -3.988281 1.234375 -4 C 1.296875 -4.007812 1.359375 -4.015625 1.421875 -4.015625 C 1.492188 -4.023438 1.59375 -4.03125 1.71875 -4.03125 C 1.757812 -4.03125 1.800781 -4.023438 1.84375 -4.015625 C 1.894531 -4.003906 1.921875 -3.984375 1.921875 -3.953125 C 1.921875 -3.898438 1.894531 -3.859375 1.84375 -3.828125 C 1.800781 -3.804688 1.75 -3.785156 1.6875 -3.765625 C 1.625 -3.742188 1.578125 -3.691406 1.546875 -3.609375 C 1.515625 -3.535156 1.5 -3.453125 1.5 -3.359375 C 1.5 -3.316406 1.5 -3.269531 1.5 -3.21875 C 1.507812 -3.175781 1.519531 -3.132812 1.53125 -3.09375 L 2.328125 -1 C 2.328125 -0.988281 2.328125 -0.984375 2.328125 -0.984375 C 2.335938 -0.984375 2.347656 -0.988281 2.359375 -1 L 3.109375 -2.9375 C 3.140625 -3.007812 3.160156 -3.082031 3.171875 -3.15625 C 3.179688 -3.226562 3.1875 -3.289062 3.1875 -3.34375 C 3.1875 -3.476562 3.164062 -3.570312 3.125 -3.625 C 3.09375 -3.6875 3.03125 -3.734375 2.9375 -3.765625 C 2.84375 -3.796875 2.78125 -3.820312 2.75 -3.84375 C 2.71875 -3.863281 2.703125 -3.898438 2.703125 -3.953125 C 2.703125 -3.984375 2.722656 -4.003906 2.765625 -4.015625 C 2.804688 -4.023438 2.851562 -4.03125 2.90625 -4.03125 C 2.976562 -4.03125 3.070312 -4.019531 3.1875 -4 C 3.3125 -3.988281 3.457031 -3.984375 3.625 -3.984375 C 3.800781 -3.984375 3.921875 -3.988281 3.984375 -4 C 4.046875 -4.019531 4.125 -4.03125 4.21875 -4.03125 C 4.269531 -4.03125 4.316406 -4.023438 4.359375 -4.015625 C 4.398438 -4.003906 4.421875 -3.984375 4.421875 -3.953125 C 4.421875 -3.878906 4.34375 -3.816406 4.1875 -3.765625 C 4.082031 -3.742188 3.96875 -3.664062 3.84375 -3.53125 C 3.726562 -3.40625 3.632812 -3.257812 3.5625 -3.09375 L 2.796875 -1.21875 C 2.773438 -1.195312 2.742188 -1.132812 2.703125 -1.03125 C 2.671875 -0.925781 2.628906 -0.8125 2.578125 -0.6875 C 2.535156 -0.570312 2.492188 -0.46875 2.453125 -0.375 C 2.421875 -0.28125 2.40625 -0.234375 2.40625 -0.234375 C 2.40625 -0.234375 2.390625 -0.203125 2.359375 -0.140625 C 2.335938 -0.078125 2.3125 -0.0117188 2.28125 0.046875 C 2.25 0.117188 2.21875 0.171875 2.1875 0.203125 Z M 2.140625 0.203125 "
           id="path14" />
      </g>
      <g
         id="glyph-3-9">
        <path
           d="M 1.890625 0.140625 C 1.554688 0.140625 1.296875 0.0390625 1.109375 -0.15625 C 0.929688 -0.351562 0.84375 -0.648438 0.84375 -1.046875 L 0.84375 -3.359375 C 0.84375 -3.410156 0.820312 -3.445312 0.78125 -3.46875 C 0.75 -3.5 0.664062 -3.515625 0.53125 -3.515625 L 0.46875 -3.515625 C 0.4375 -3.515625 0.40625 -3.535156 0.375 -3.578125 C 0.351562 -3.617188 0.34375 -3.660156 0.34375 -3.703125 C 0.34375 -3.722656 0.351562 -3.742188 0.375 -3.765625 C 0.394531 -3.796875 0.410156 -3.8125 0.421875 -3.8125 C 0.554688 -3.90625 0.675781 -4 0.78125 -4.09375 C 0.894531 -4.1875 0.992188 -4.273438 1.078125 -4.359375 C 1.171875 -4.453125 1.25 -4.535156 1.3125 -4.609375 C 1.34375 -4.648438 1.367188 -4.679688 1.390625 -4.703125 C 1.410156 -4.722656 1.4375 -4.734375 1.46875 -4.734375 C 1.507812 -4.734375 1.539062 -4.722656 1.5625 -4.703125 C 1.59375 -4.691406 1.609375 -4.664062 1.609375 -4.625 L 1.5625 -4.171875 C 1.550781 -4.097656 1.566406 -4.046875 1.609375 -4.015625 C 1.648438 -3.992188 1.710938 -3.984375 1.796875 -3.984375 L 2.9375 -3.984375 C 2.957031 -3.984375 2.976562 -3.960938 3 -3.921875 C 3.019531 -3.878906 3.03125 -3.828125 3.03125 -3.765625 C 3.03125 -3.703125 3.019531 -3.644531 3 -3.59375 C 2.976562 -3.539062 2.957031 -3.515625 2.9375 -3.515625 L 1.9375 -3.515625 C 1.769531 -3.515625 1.660156 -3.5 1.609375 -3.46875 C 1.566406 -3.4375 1.546875 -3.359375 1.546875 -3.234375 L 1.546875 -1.265625 C 1.546875 -1.003906 1.601562 -0.796875 1.71875 -0.640625 C 1.832031 -0.484375 1.992188 -0.40625 2.203125 -0.40625 C 2.398438 -0.40625 2.550781 -0.421875 2.65625 -0.453125 C 2.757812 -0.484375 2.851562 -0.53125 2.9375 -0.59375 C 2.945312 -0.601562 2.960938 -0.609375 2.984375 -0.609375 C 3.003906 -0.609375 3.019531 -0.59375 3.03125 -0.5625 C 3.039062 -0.53125 3.046875 -0.5 3.046875 -0.46875 C 3.046875 -0.4375 2.988281 -0.367188 2.875 -0.265625 C 2.769531 -0.171875 2.628906 -0.0820312 2.453125 0 C 2.273438 0.09375 2.085938 0.140625 1.890625 0.140625 Z M 1.890625 0.140625 "
           id="path15" />
      </g>
      <g
         id="glyph-3-10">
        <path
           d="M 3.65625 0.1875 C 3.601562 0.1875 3.578125 0.160156 3.578125 0.109375 C 3.578125 0.046875 3.582031 -0.046875 3.59375 -0.171875 C 3.613281 -0.304688 3.625 -0.421875 3.625 -0.515625 C 3.625 -0.523438 3.625 -0.535156 3.625 -0.546875 C 3.625 -0.554688 3.625 -0.5625 3.625 -0.5625 C 3.363281 -0.3125 3.101562 -0.128906 2.84375 -0.015625 C 2.582031 0.0859375 2.296875 0.140625 1.984375 0.140625 C 1.773438 0.140625 1.582031 0.09375 1.40625 0 C 1.226562 -0.0820312 1.085938 -0.210938 0.984375 -0.390625 C 0.890625 -0.566406 0.84375 -0.785156 0.84375 -1.046875 L 0.84375 -3.078125 C 0.84375 -3.222656 0.804688 -3.335938 0.734375 -3.421875 C 0.671875 -3.503906 0.566406 -3.578125 0.421875 -3.640625 C 0.390625 -3.648438 0.359375 -3.664062 0.328125 -3.6875 C 0.304688 -3.707031 0.296875 -3.742188 0.296875 -3.796875 C 0.296875 -3.859375 0.304688 -3.898438 0.328125 -3.921875 C 0.359375 -3.941406 0.394531 -3.953125 0.4375 -3.953125 C 0.664062 -3.972656 0.835938 -3.992188 0.953125 -4.015625 C 1.078125 -4.035156 1.234375 -4.066406 1.421875 -4.109375 C 1.441406 -4.117188 1.457031 -4.125 1.46875 -4.125 C 1.476562 -4.125 1.488281 -4.125 1.5 -4.125 C 1.570312 -4.125 1.609375 -4.078125 1.609375 -3.984375 C 1.585938 -3.835938 1.570312 -3.710938 1.5625 -3.609375 C 1.550781 -3.503906 1.546875 -3.375 1.546875 -3.21875 L 1.546875 -1.28125 C 1.546875 -1.113281 1.582031 -0.960938 1.65625 -0.828125 C 1.738281 -0.691406 1.84375 -0.582031 1.96875 -0.5 C 2.101562 -0.414062 2.238281 -0.375 2.375 -0.375 C 2.550781 -0.375 2.703125 -0.378906 2.828125 -0.390625 C 2.960938 -0.410156 3.09375 -0.46875 3.21875 -0.5625 C 3.289062 -0.613281 3.382812 -0.695312 3.5 -0.8125 C 3.613281 -0.9375 3.671875 -1.101562 3.671875 -1.3125 L 3.671875 -3.140625 C 3.671875 -3.273438 3.628906 -3.378906 3.546875 -3.453125 C 3.460938 -3.523438 3.363281 -3.570312 3.25 -3.59375 C 3.144531 -3.625 3.0625 -3.640625 3 -3.640625 C 2.9375 -3.640625 2.882812 -3.648438 2.84375 -3.671875 C 2.8125 -3.691406 2.796875 -3.738281 2.796875 -3.8125 C 2.796875 -3.863281 2.816406 -3.898438 2.859375 -3.921875 C 2.898438 -3.941406 2.945312 -3.953125 3 -3.953125 C 3.207031 -3.960938 3.378906 -3.972656 3.515625 -3.984375 C 3.648438 -3.992188 3.769531 -4.007812 3.875 -4.03125 C 3.988281 -4.050781 4.109375 -4.078125 4.234375 -4.109375 C 4.242188 -4.117188 4.257812 -4.125 4.28125 -4.125 C 4.300781 -4.132812 4.316406 -4.140625 4.328125 -4.140625 C 4.410156 -4.140625 4.453125 -4.101562 4.453125 -4.03125 C 4.453125 -4.019531 4.453125 -4.003906 4.453125 -3.984375 C 4.453125 -3.972656 4.445312 -3.957031 4.4375 -3.9375 C 4.425781 -3.914062 4.414062 -3.859375 4.40625 -3.765625 C 4.394531 -3.671875 4.382812 -3.570312 4.375 -3.46875 C 4.363281 -3.375 4.359375 -3.300781 4.359375 -3.25 L 4.359375 -0.953125 C 4.359375 -0.765625 4.375 -0.632812 4.40625 -0.5625 C 4.445312 -0.488281 4.492188 -0.453125 4.546875 -0.453125 C 4.597656 -0.453125 4.675781 -0.457031 4.78125 -0.46875 C 4.882812 -0.476562 4.957031 -0.484375 5 -0.484375 C 5.03125 -0.484375 5.0625 -0.472656 5.09375 -0.453125 C 5.132812 -0.441406 5.15625 -0.40625 5.15625 -0.34375 C 5.15625 -0.289062 5.140625 -0.253906 5.109375 -0.234375 C 5.085938 -0.222656 5.054688 -0.210938 5.015625 -0.203125 C 4.753906 -0.171875 4.53125 -0.117188 4.34375 -0.046875 C 4.15625 0.0117188 3.988281 0.0703125 3.84375 0.125 C 3.820312 0.132812 3.789062 0.144531 3.75 0.15625 C 3.71875 0.175781 3.6875 0.1875 3.65625 0.1875 Z M 3.65625 0.1875 "
           id="path16" />
      </g>
      <g
         id="glyph-3-11">
        <path
           d="M 0.4375 0.03125 C 0.382812 0.03125 0.335938 0.0195312 0.296875 0 C 0.253906 -0.0078125 0.234375 -0.0351562 0.234375 -0.078125 C 0.234375 -0.128906 0.253906 -0.160156 0.296875 -0.171875 C 0.347656 -0.191406 0.40625 -0.210938 0.46875 -0.234375 C 0.5625 -0.273438 0.65625 -0.316406 0.75 -0.359375 C 0.84375 -0.398438 0.890625 -0.488281 0.890625 -0.625 L 0.890625 -2.765625 C 0.890625 -2.941406 0.867188 -3.097656 0.828125 -3.234375 C 0.796875 -3.367188 0.691406 -3.453125 0.515625 -3.484375 C 0.492188 -3.484375 0.472656 -3.492188 0.453125 -3.515625 C 0.429688 -3.535156 0.421875 -3.566406 0.421875 -3.609375 C 0.421875 -3.671875 0.453125 -3.710938 0.515625 -3.734375 C 0.691406 -3.773438 0.832031 -3.820312 0.9375 -3.875 C 1.039062 -3.925781 1.132812 -3.984375 1.21875 -4.046875 C 1.300781 -4.109375 1.40625 -4.175781 1.53125 -4.25 C 1.539062 -4.25 1.550781 -4.253906 1.5625 -4.265625 C 1.570312 -4.273438 1.585938 -4.28125 1.609375 -4.28125 C 1.648438 -4.28125 1.671875 -4.257812 1.671875 -4.21875 C 1.671875 -4.164062 1.660156 -4.066406 1.640625 -3.921875 C 1.628906 -3.785156 1.625 -3.671875 1.625 -3.578125 C 1.625 -3.515625 1.628906 -3.472656 1.640625 -3.453125 L 1.671875 -3.453125 C 1.816406 -3.597656 2.015625 -3.742188 2.265625 -3.890625 C 2.515625 -4.046875 2.832031 -4.125 3.21875 -4.125 C 3.457031 -4.125 3.65625 -4.070312 3.8125 -3.96875 C 3.976562 -3.863281 4.113281 -3.6875 4.21875 -3.4375 L 4.25 -3.4375 C 4.457031 -3.632812 4.695312 -3.796875 4.96875 -3.921875 C 5.25 -4.054688 5.550781 -4.125 5.875 -4.125 C 6.09375 -4.125 6.273438 -4.054688 6.421875 -3.921875 C 6.566406 -3.796875 6.675781 -3.625 6.75 -3.40625 C 6.832031 -3.195312 6.875 -2.972656 6.875 -2.734375 L 6.875 -0.625 C 6.875 -0.488281 6.914062 -0.398438 7 -0.359375 C 7.09375 -0.316406 7.191406 -0.273438 7.296875 -0.234375 C 7.359375 -0.210938 7.410156 -0.191406 7.453125 -0.171875 C 7.503906 -0.160156 7.53125 -0.128906 7.53125 -0.078125 C 7.53125 -0.0351562 7.515625 -0.0078125 7.484375 0 C 7.453125 0.0195312 7.398438 0.03125 7.328125 0.03125 C 7.191406 0.03125 7.085938 0.0234375 7.015625 0.015625 C 6.941406 0.00390625 6.875 0 6.8125 0 C 6.75 -0.0078125 6.660156 -0.015625 6.546875 -0.015625 C 6.429688 -0.015625 6.335938 -0.0078125 6.265625 0 C 6.191406 0 6.113281 0.00390625 6.03125 0.015625 C 5.945312 0.0234375 5.84375 0.03125 5.71875 0.03125 C 5.65625 0.03125 5.601562 0.0195312 5.5625 0 C 5.53125 -0.0078125 5.515625 -0.0351562 5.515625 -0.078125 C 5.515625 -0.128906 5.535156 -0.164062 5.578125 -0.1875 C 5.617188 -0.207031 5.671875 -0.222656 5.734375 -0.234375 C 5.847656 -0.265625 5.945312 -0.300781 6.03125 -0.34375 C 6.125 -0.394531 6.171875 -0.488281 6.171875 -0.625 L 6.171875 -2.71875 C 6.171875 -2.875 6.132812 -3.019531 6.0625 -3.15625 C 5.988281 -3.300781 5.890625 -3.421875 5.765625 -3.515625 C 5.648438 -3.609375 5.519531 -3.65625 5.375 -3.65625 C 5.207031 -3.65625 5.050781 -3.632812 4.90625 -3.59375 C 4.757812 -3.550781 4.625 -3.484375 4.5 -3.390625 C 4.320312 -3.242188 4.234375 -3.003906 4.234375 -2.671875 L 4.234375 -0.625 C 4.234375 -0.488281 4.28125 -0.394531 4.375 -0.34375 C 4.476562 -0.300781 4.578125 -0.265625 4.671875 -0.234375 C 4.742188 -0.222656 4.800781 -0.207031 4.84375 -0.1875 C 4.882812 -0.164062 4.90625 -0.128906 4.90625 -0.078125 C 4.90625 -0.0351562 4.890625 -0.0078125 4.859375 0 C 4.828125 0.0195312 4.773438 0.03125 4.703125 0.03125 C 4.566406 0.03125 4.460938 0.0234375 4.390625 0.015625 C 4.316406 0.00390625 4.242188 0 4.171875 0 C 4.097656 -0.0078125 4.003906 -0.015625 3.890625 -0.015625 C 3.773438 -0.015625 3.679688 -0.0078125 3.609375 0 C 3.535156 0 3.457031 0.00390625 3.375 0.015625 C 3.300781 0.0234375 3.195312 0.03125 3.0625 0.03125 C 3.007812 0.03125 2.960938 0.0195312 2.921875 0 C 2.878906 -0.0078125 2.859375 -0.0351562 2.859375 -0.078125 C 2.859375 -0.128906 2.882812 -0.160156 2.9375 -0.171875 C 2.988281 -0.191406 3.039062 -0.210938 3.09375 -0.234375 C 3.1875 -0.273438 3.28125 -0.316406 3.375 -0.359375 C 3.476562 -0.398438 3.53125 -0.488281 3.53125 -0.625 L 3.53125 -2.71875 C 3.53125 -2.875 3.492188 -3.019531 3.421875 -3.15625 C 3.347656 -3.300781 3.25 -3.421875 3.125 -3.515625 C 3.007812 -3.609375 2.878906 -3.65625 2.734375 -3.65625 C 2.566406 -3.65625 2.410156 -3.632812 2.265625 -3.59375 C 2.117188 -3.550781 1.984375 -3.484375 1.859375 -3.390625 C 1.679688 -3.253906 1.59375 -3.015625 1.59375 -2.671875 L 1.59375 -0.625 C 1.59375 -0.488281 1.640625 -0.398438 1.734375 -0.359375 C 1.828125 -0.316406 1.925781 -0.273438 2.03125 -0.234375 C 2.082031 -0.210938 2.128906 -0.191406 2.171875 -0.171875 C 2.222656 -0.160156 2.25 -0.128906 2.25 -0.078125 C 2.25 -0.0351562 2.226562 -0.0078125 2.1875 0 C 2.15625 0.0195312 2.109375 0.03125 2.046875 0.03125 C 1.921875 0.03125 1.816406 0.0234375 1.734375 0.015625 C 1.660156 0.00390625 1.585938 0 1.515625 0 C 1.453125 -0.0078125 1.363281 -0.015625 1.25 -0.015625 C 1.132812 -0.015625 1.039062 -0.0078125 0.96875 0 C 0.90625 0 0.832031 0.00390625 0.75 0.015625 C 0.675781 0.0234375 0.570312 0.03125 0.4375 0.03125 Z M 0.4375 0.03125 "
           id="path17" />
      </g>
    </g>
  </defs>
  <path
     fill="none"
     stroke-width="0.3985"
     stroke-linecap="butt"
     stroke-linejoin="miter"
     stroke="rgb(0%, 0%, 0%)"
     stroke-opacity="1"
     stroke-miterlimit="10"
     d="M -70.865781 -0.00190625 L 70.868594 -0.00190625 "
     transform="matrix(1, 0, 0, -1, 71.065, 58.002)"
     id="path18" />
  <path
     fill="none"
     stroke-width="0.79701"
     stroke-linecap="butt"
     stroke-linejoin="miter"
     stroke="rgb(0%, 0%, 0%)"
     stroke-opacity="1"
     stroke-miterlimit="10"
     d="M -42.522031 -0.00190625 L -42.522031 27.638719 "
     transform="matrix(1, 0, 0, -1, 71.065, 58.002)"
     id="path19" />
  <path
     fill="none"
     stroke-width="0.6376"
     stroke-linecap="round"
     stroke-linejoin="round"
     stroke="rgb(0%, 0%, 0%)"
     stroke-opacity="1"
     stroke-miterlimit="10"
     d="M -1.555399 2.072144 C -1.426493 1.2948 -0.00071125 0.130737 0.389914 0.00183125 C -0.00071125 -0.130981 -1.426493 -1.295044 -1.555399 -2.072388 "
     transform="matrix(0, -1, -1, 0, 28.5448, 30.36257)"
     id="path20" />
  <g
     fill="rgb(0%, 0%, 0%)"
     fill-opacity="1"
     id="g20">
    <use
       xlink:href="#glyph-0-0"
       x="20.333"
       y="44.491"
       id="use20" />
  </g>
  <g
     fill="rgb(0%, 0%, 0%)"
     fill-opacity="1"
     id="g21">
    <use
       xlink:href="#glyph-0-1"
       x="24.923"
       y="25.797"
       id="use21" />
  </g>
  <g
     fill="rgb(0%, 0%, 0%)"
     fill-opacity="1"
     id="g22">
    <use
       xlink:href="#glyph-1-0"
       x="42.273"
       y="62.984"
       id="use22" />
  </g>
  <g
     fill="rgb(0%, 0%, 0%)"
     fill-opacity="1"
     id="g23">
    <use
       xlink:href="#glyph-1-1"
       x="90.990114"
       y="62.984"
       id="use23" />
  </g>
  <path
     fill="none"
     stroke-width="0.79701"
     stroke-linecap="butt"
     stroke-linejoin="miter"
     stroke="rgb(0%, 0%, 0%)"
     stroke-opacity="1"
     stroke-miterlimit="10"
     d="M 42.520938 -0.00190625 L 42.520938 27.638719 "
     transform="matrix(1, 0, 0, -1, 71.065, 58.002)"
     id="path23" />
  <path
     fill="none"
     stroke-width="0.6376"
     stroke-linecap="round"
     stroke-linejoin="round"
     stroke="rgb(0%, 0%, 0%)"
     stroke-opacity="1"
     stroke-miterlimit="10"
     d="M -1.555399 2.073481 C -1.426493 1.296138 -0.00071125 0.128169 0.389914 -0.0007375 C -0.00071125 -0.129644 -1.426493 -1.293706 -1.555399 -2.07105 "
     transform="matrix(0, -1, -1, 0, 113.5852, 30.36257)"
     id="path24" />
  <g
     fill="rgb(0%, 0%, 0%)"
     fill-opacity="1"
     id="g24">
    <use
       xlink:href="#glyph-0-0"
       x="117.304"
       y="46.51"
       id="use24" />
  </g>
  <g
     fill="rgb(0%, 0%, 0%)"
     fill-opacity="1"
     id="g25">
    <use
       xlink:href="#glyph-2-0"
       x="121.797"
       y="42.226"
       id="use25" />
  </g>
  <g
     fill="rgb(0%, 0%, 0%)"
     fill-opacity="1"
     id="g26">
    <use
       xlink:href="#glyph-0-1"
       x="117.304"
       y="25.747"
       id="use26" />
  </g>
  <g
     fill="rgb(0%, 0%, 0%)"
     fill-opacity="1"
     id="g27">
    <use
       xlink:href="#glyph-2-0"
       x="124.547"
       y="21.463"
       id="use27" />
  </g>
  <g
     fill="rgb(0%, 0%, 0%)"
     fill-opacity="1"
     id="g31">
    <use
       xlink:href="#glyph-3-0"
       x="129.088"
       y="25.747"
       id="use28" />
    <use
       xlink:href="#glyph-3-1"
       x="134.129076"
       y="25.747"
       id="use29" />
    <use
       xlink:href="#glyph-3-2"
       x="138.01449"
       y="25.747"
       id="use30" />
    <use
       xlink:href="#glyph-3-1"
       x="141.341998"
       y="25.747"
       id="use31" />
  </g>
  <g
     fill="rgb(0%, 0%, 0%)"
     fill-opacity="1"
     id="g34">
    <use
       xlink:href="#glyph-3-3"
       x="145.137749"
       y="25.747"
       id="use32" />
    <use
       xlink:href="#glyph-3-4"
       x="149.192527"
       y="25.747"
       id="use33" />
    <use
       xlink:href="#glyph-3-5"
       x="154.323266"
       y="25.747"
       id="use34" />
  </g>
  <path
     fill="none"
     stroke-width="0.79701"
     stroke-linecap="butt"
     stroke-linejoin="miter"
     stroke="rgb(0%, 0%, 0%)"
     stroke-opacity="1"
     stroke-miterlimit="10"
     d="M 56.692813 -0.00190625 L 56.692813 -27.638625 "
     transform="matrix(1, 0, 0, -1, 71.065, 58.002)"
     id="path34" />
  <path
     fill="none"
     stroke-width="0.6376"
     stroke-linecap="round"
     stroke-linejoin="round"
     stroke="rgb(0%, 0%, 0%)"
     stroke-opacity="1"
     stroke-miterlimit="10"
     d="M -1.555492 2.073411 C -1.426586 1.296067 -0.000805 0.128099 0.38982 -0.0008075 C -0.000805 -0.129714 -1.426586 -1.293776 -1.555492 -2.07112 "
     transform="matrix(0, 1, 1, 0, 127.75862, 85.64143)"
     id="path35" />
  <g
     fill="rgb(0%, 0%, 0%)"
     fill-opacity="1"
     id="g35">
    <use
       xlink:href="#glyph-0-0"
       x="131.478"
       y="74.857"
       id="use35" />
  </g>
  <g
     fill="rgb(0%, 0%, 0%)"
     fill-opacity="1"
     id="g36">
    <use
       xlink:href="#glyph-2-0"
       x="135.971"
       y="70.573"
       id="use36" />
  </g>
  <g
     fill="rgb(0%, 0%, 0%)"
     fill-opacity="1"
     id="g37">
    <use
       xlink:href="#glyph-0-1"
       x="131.478"
       y="98.32"
       id="use37" />
  </g>
  <g
     fill="rgb(0%, 0%, 0%)"
     fill-opacity="1"
     id="g38">
    <use
       xlink:href="#glyph-2-0"
       x="138.721"
       y="94.036"
       id="use38" />
  </g>
  <g
     fill="rgb(0%, 0%, 0%)"
     fill-opacity="1"
     id="g40">
    <use
       xlink:href="#glyph-3-6"
       x="143.262"
       y="98.32"
       id="use39" />
    <use
       xlink:href="#glyph-3-7"
       x="145.702837"
       y="98.32"
       id="use40" />
  </g>
  <g
     fill="rgb(0%, 0%, 0%)"
     fill-opacity="1"
     id="g41">
    <use
       xlink:href="#glyph-3-8"
       x="150.723987"
       y="98.32"
       id="use41" />
  </g>
  <g
     fill="rgb(0%, 0%, 0%)"
     fill-opacity="1"
     id="g47">
    <use
       xlink:href="#glyph-3-1"
       x="154.838541"
       y="98.32"
       id="use42" />
    <use
       xlink:href="#glyph-3-2"
       x="158.723955"
       y="98.32"
       id="use43" />
    <use
       xlink:href="#glyph-3-9"
       x="162.051464"
       y="98.32"
       id="use44" />
    <use
       xlink:href="#glyph-3-6"
       x="165.17972"
       y="98.32"
       id="use45" />
    <use
       xlink:href="#glyph-3-0"
       x="167.620557"
       y="98.32"
       id="use46" />
    <use
       xlink:href="#glyph-3-5"
       x="172.661633"
       y="98.32"
       id="use47" />
  </g>
  <path
     fill="none"
     stroke-width="0.3985"
     stroke-linecap="butt"
     stroke-linejoin="miter"
     stroke="rgb(0%, 0%, 0%)"
     stroke-opacity="1"
     stroke-miterlimit="10"
     d="M 99.212344 -0.00190625 L 240.946719 -0.00190625 "
     transform="matrix(1, 0, 0, -1, 71.065, 58.002)"
     id="path47" />
  <path
     fill="none"
     stroke-width="0.79701"
     stroke-linecap="butt"
     stroke-linejoin="miter"
     stroke="rgb(0%, 0%, 0%)"
     stroke-opacity="1"
     stroke-miterlimit="10"
     d="M 127.56 -0.00190625 L 127.56 27.638719 "
     transform="matrix(1, 0, 0, -1, 71.065, 58.002)"
     id="path48" />
  <path
     fill="none"
     stroke-width="0.6376"
     stroke-linecap="round"
     stroke-linejoin="round"
     stroke="rgb(0%, 0%, 0%)"
     stroke-opacity="1"
     stroke-miterlimit="10"
     d="M -1.555399 2.070933 C -1.426493 1.293589 -0.00071125 0.129526 0.389914 0.00062 C -0.00071125 -0.128286 -1.426493 -1.296255 -1.555399 -2.073599 "
     transform="matrix(0, -1, -1, 0, 198.62562, 30.36257)"
     id="path49" />
  <g
     fill="rgb(0%, 0%, 0%)"
     fill-opacity="1"
     id="g49">
    <use
       xlink:href="#glyph-0-0"
       x="190.413"
       y="44.491"
       id="use49" />
  </g>
  <g
     fill="rgb(0%, 0%, 0%)"
     fill-opacity="1"
     id="g50">
    <use
       xlink:href="#glyph-0-1"
       x="195.004"
       y="25.797"
       id="use50" />
  </g>
  <g
     fill="rgb(0%, 0%, 0%)"
     fill-opacity="1"
     id="g51">
    <use
       xlink:href="#glyph-1-0"
       x="212.353"
       y="62.984"
       id="use51" />
  </g>
  <g
     fill="rgb(0%, 0%, 0%)"
     fill-opacity="1"
     id="g52">
    <use
       xlink:href="#glyph-1-1"
       x="261.070114"
       y="62.984"
       id="use52" />
  </g>
  <path
     fill="none"
     stroke-width="0.79701"
     stroke-linecap="butt"
     stroke-linejoin="miter"
     stroke="rgb(0%, 0%, 0%)"
     stroke-opacity="1"
     stroke-miterlimit="10"
     d="M 212.602969 -0.00190625 L 212.602969 41.8145 "
     transform="matrix(1, 0, 0, -1, 71.065, 58.002)"
     id="path52" />
  <path
     fill="none"
     stroke-width="0.6376"
     stroke-linecap="round"
     stroke-linejoin="round"
     stroke="rgb(0%, 0%, 0%)"
     stroke-opacity="1"
     stroke-miterlimit="10"
     d="M -1.553028 2.07231 C -1.424121 1.294966 0.00166 0.130904 0.388379 -0.00190875 C 0.00166 -0.130815 -1.424121 -1.294877 -1.553028 -2.072221 "
     transform="matrix(0, -1, -1, 0, 283.66606, 16.18916)"
     id="path53" />
  <g
     fill="rgb(0%, 0%, 0%)"
     fill-opacity="1"
     id="g53">
    <use
       xlink:href="#glyph-0-0"
       x="287.385"
       y="39.424"
       id="use53" />
  </g>
  <g
     fill="rgb(0%, 0%, 0%)"
     fill-opacity="1"
     id="g54">
    <use
       xlink:href="#glyph-2-0"
       x="291.878"
       y="35.14"
       id="use54" />
  </g>
  <g
     fill="rgb(0%, 0%, 0%)"
     fill-opacity="1"
     id="g55">
    <use
       xlink:href="#glyph-0-1"
       x="287.385"
       y="11.573"
       id="use55" />
  </g>
  <g
     fill="rgb(0%, 0%, 0%)"
     fill-opacity="1"
     id="g56">
    <use
       xlink:href="#glyph-2-0"
       x="294.628"
       y="7.289"
       id="use56" />
  </g>
  <g
     fill="rgb(0%, 0%, 0%)"
     fill-opacity="1"
     id="g65">
    <use
       xlink:href="#glyph-3-5"
       x="299.169"
       y="11.573"
       id="use57" />
    <use
       xlink:href="#glyph-3-10"
       x="303.144077"
       y="11.573"
       id="use58" />
    <use
       xlink:href="#glyph-3-11"
       x="308.394368"
       y="11.573"
       id="use59" />
    <use
       xlink:href="#glyph-3-1"
       x="316.14527"
       y="11.573"
       id="use60" />
    <use
       xlink:href="#glyph-3-7"
       x="320.030684"
       y="11.573"
       id="use61" />
    <use
       xlink:href="#glyph-3-9"
       x="325.290937"
       y="11.573"
       id="use62" />
    <use
       xlink:href="#glyph-3-5"
       x="328.419194"
       y="11.573"
       id="use63" />
    <use
       xlink:href="#glyph-3-0"
       x="332.394271"
       y="11.573"
       id="use64" />
    <use
       xlink:href="#glyph-3-5"
       x="337.435347"
       y="11.573"
       id="use65" />
  </g>
  <path
     fill="none"
     stroke-width="0.79701"
     stroke-linecap="butt"
     stroke-linejoin="miter"
     stroke="rgb(0%, 0%, 0%)"
     stroke-opacity="1"
     stroke-miterlimit="10"
     d="M 226.774844 -0.00190625 L 226.774844 13.466844 "
     transform="matrix(1, 0, 0, -1, 71.065, 58.002)"
     id="path65" />
  <path
     fill="none"
     stroke-width="0.6376"
     stroke-linecap="round"
     stroke-linejoin="round"
     stroke="rgb(0%, 0%, 0%)"
     stroke-opacity="1"
     stroke-miterlimit="10"
     d="M -1.553874 2.073855 C -1.424968 1.296511 0.00081375 0.128542 0.387532 -0.00036375 C 0.00081375 -0.12927 -1.424968 -1.293333 -1.553874 -2.070676 "
     transform="matrix(0, -1, -1, 0, 297.83948, 44.53597)"
     id="path66" />
  <g
     fill="rgb(0%, 0%, 0%)"
     fill-opacity="1"
     id="g66">
    <use
       xlink:href="#glyph-0-0"
       x="301.559"
       y="53.597"
       id="use66" />
  </g>
  <g
     fill="rgb(0%, 0%, 0%)"
     fill-opacity="1"
     id="g67">
    <use
       xlink:href="#glyph-2-0"
       x="306.052"
       y="49.313"
       id="use67" />
  </g>
  <g
     fill="rgb(0%, 0%, 0%)"
     fill-opacity="1"
     id="g68">
    <use
       xlink:href="#glyph-0-1"
       x="301.559"
       y="39.92"
       id="use68" />
  </g>
  <g
     fill="rgb(0%, 0%, 0%)"
     fill-opacity="1"
     id="g69">
    <use
       xlink:href="#glyph-2-0"
       x="308.802"
       y="35.636"
       id="use69" />
  </g>
  <g
     fill="rgb(0%, 0%, 0%)"
     fill-opacity="1"
     id="g71">
    <use
       xlink:href="#glyph-3-2"
       x="313.343"
       y="39.92"
       id="use70" />
    <use
       xlink:href="#glyph-3-1"
       x="316.670508"
       y="39.92"
       id="use71" />
  </g>
  <g
     fill="rgb(0%, 0%, 0%)"
     fill-opacity="1"
     id="g77">
    <use
       xlink:href="#glyph-3-0"
       x="320.466259"
       y="39.92"
       id="use72" />
    <use
       xlink:href="#glyph-3-10"
       x="325.507335"
       y="39.92"
       id="use73" />
    <use
       xlink:href="#glyph-3-3"
       x="330.757625"
       y="39.92"
       id="use74" />
    <use
       xlink:href="#glyph-3-6"
       x="334.812403"
       y="39.92"
       id="use75" />
    <use
       xlink:href="#glyph-3-0"
       x="337.25324"
       y="39.92"
       id="use76" />
    <use
       xlink:href="#glyph-3-5"
       x="342.294316"
       y="39.92"
       id="use77" />
  </g>
</svg>
