<?xml version="1.0" encoding="UTF-8" standalone="no"?>
<!-- Created with Sodipodi ("http://www.sodipodi.com/") -->

<svg
   sodipodi:version="0.34"
   width="836"
   height="579.75488"
   viewBox="0 0 209 144.93872"
   sodipodi:docname="efecto-leidenfrost.svg"
   id="svg2"
   version="1.1"
   inkscape:version="1.1.2 (b8e25be8, 2022-02-05)"
   xmlns:inkscape="http://www.inkscape.org/namespaces/inkscape"
   xmlns:sodipodi="http://sodipodi.sourceforge.net/DTD/sodipodi-0.dtd"
   xmlns:xlink="http://www.w3.org/1999/xlink"
   xmlns="http://www.w3.org/2000/svg"
   xmlns:svg="http://www.w3.org/2000/svg"
   xmlns:rdf="http://www.w3.org/1999/02/22-rdf-syntax-ns#"
   xmlns:cc="http://creativecommons.org/ns#"
   xmlns:dc="http://purl.org/dc/elements/1.1/">
  <g
     aria-label="Gota de líquido elevada sobre una capa de vapor"
     id="text1059"
     style="font-size:12px;line-height:1.25;stroke-width:0.25"
     transform="translate(0,-9.0612765)">
    <path
       d="m 44.041185,17.689276 q -0.828,0 -1.584,-0.288 -0.744,-0.3 -1.332,-0.828 -0.576,-0.528 -0.912,-1.236 -0.336,-0.72 -0.336,-1.548 0,-0.888 0.348,-1.656 0.348,-0.768 0.96,-1.344 0.612,-0.576 1.404,-0.8999995 0.804,-0.324 1.704,-0.324 0.204,0 0.552,0.048 0.36,0.036 0.732,0.096 0.384,0.06 0.684,0.132 0.312,0.06 0.432,0.12 0.06,0.024 0.072,0.059997 0.024,0.024 0.036,0.084 0.048,0.348 0.084,0.696 0.036,0.336 0.036,0.576 0,0.084 -0.06,0.168 -0.048,0.072 -0.12,0.072 -0.12,0 -0.18,-0.108 -0.06,-0.108 -0.096,-0.216 -0.072,-0.192 -0.156,-0.324 -0.072,-0.144 -0.216,-0.312 -0.072,-0.096 -0.312,-0.24 -0.228,-0.156 -0.624,-0.276 -0.396,-0.12 -0.972,-0.12 -0.696,0 -1.272,0.3 -0.576,0.288001 -0.996,0.804001 -0.408,0.503999 -0.636,1.151999 -0.216,0.648 -0.216,1.356 0,0.852 0.264,1.524001 0.264,0.672 0.708,1.139999 0.444,0.468 1.008,0.708 0.564,0.24 1.164,0.24 0.696,0 1.02,-0.168 0.336,-0.168 0.444,-0.276 0.132,-0.132 0.24,-0.372 0.12,-0.24 0.12,-0.552 0,-0.108 0,-0.228 0.012,-0.119999 0.012,-0.24 0.012,-0.12 0.012,-0.228 0,-0.132 -0.012,-0.215999 -0.012,-0.096 -0.048,-0.144001 -0.096,-0.131999 -0.336,-0.215999 -0.24,-0.084 -0.48,-0.12 -0.24,-0.036 -0.36,-0.036 -0.048,0 -0.144,-0.06 -0.096,-0.06 -0.096,-0.144 0,-0.096 0.096,-0.144 0.096,-0.06 0.144,-0.06 0.3,0 0.516,0.012 0.216,0.012 0.444,0.024 0.228,0.012 0.552,0.012 0.312,0 0.528,-0.024 0.216,-0.024 0.54,-0.024 0.048,0 0.144,0.036 0.108,0.036 0.108,0.156001 0,0.084 -0.108,0.144 -0.096,0.06 -0.144,0.072 -0.264,0.072 -0.372,0.216 -0.096,0.132 -0.132,0.372 -0.036,0.263999 -0.048,0.468 -0.012,0.204 -0.012,0.432 v 0.323999 q 0,0.06 0.024,0.096 0.024,0.036 0.048,0.096 0.036,0.06 0.096,0.108 0.06,0.048 0.06,0.096 0,0.048 -0.024,0.132001 -0.012,0.072 -0.144,0.096 -0.084,0.012 -0.336,0.143999 -0.24,0.120001 -0.612,0.276 -0.372,0.156 -0.852,0.264 -0.48,0.12 -1.056,0.120001 z"
       style="font-family:'EB Garamond';-inkscape-font-specification:'EB Garamond'"
       id="path1595" />
    <path
       d="m 50.887372,17.689276 q -0.672,0 -1.212,-0.312 -0.54,-0.312 -0.864,-0.852 -0.312,-0.552 -0.312,-1.248 0,-0.504 0.192,-0.984 0.204,-0.48 0.564,-0.876 0.36,-0.396 0.84,-0.624 0.48,-0.24 1.032,-0.24 0.696,0 1.248,0.336 0.564,0.336 0.888,0.888 0.336,0.54 0.336,1.188 0,0.696 -0.312,1.32 -0.3,0.624 -0.9,1.02 -0.6,0.384 -1.5,0.384 z m 0.252,-0.36 q 0.408,0 0.732,-0.156 0.324,-0.156 0.504,-0.504 0.144,-0.276 0.192,-0.672 0.048,-0.396 0.048,-0.744 0,-0.576 -0.216,-1.104 -0.204,-0.54 -0.588,-0.876 -0.372,-0.348 -0.888,-0.348 -0.324,0 -0.588,0.108 -0.252,0.096 -0.468,0.372 -0.24,0.3 -0.312,0.732 -0.072,0.432 -0.072,0.864 0,0.588 0.216,1.128 0.216,0.528 0.588,0.864 0.372,0.336 0.852,0.336 z"
       style="font-family:'EB Garamond';-inkscape-font-specification:'EB Garamond'"
       id="path1597" />
    <path
       d="m 56.27706,17.689276 q -0.588,0 -0.924,-0.36 -0.324,-0.36 -0.324,-1.068 v -2.784 q 0,-0.096 -0.072,-0.132 -0.072,-0.048 -0.312,-0.048 h -0.072 q -0.06,0 -0.108,-0.072 -0.036,-0.084 -0.036,-0.168 0,-0.024 0.036,-0.072 0.036,-0.048 0.048,-0.06 0.24,-0.168 0.432,-0.336 0.204,-0.168 0.36,-0.324 0.168,-0.168 0.276,-0.3 0.06,-0.06 0.096,-0.096 0.048,-0.048 0.108,-0.048 0.06,0 0.108,0.024 0.06,0.024 0.048,0.108 l -0.06,0.54 q -0.012,0.132 0.06,0.18 0.072,0.048 0.228,0.048 h 1.368 q 0.048,0 0.084,0.084 0.036,0.072 0.036,0.18 0,0.108 -0.036,0.216 -0.036,0.096 -0.084,0.096 h -1.188 q -0.3,0 -0.396,0.048 -0.084,0.048 -0.084,0.288 v 2.364 q 0,0.48 0.204,0.756 0.204,0.276 0.588,0.276 0.348,0 0.54,-0.048 0.192,-0.06 0.348,-0.168 0.024,-0.024 0.048,-0.024 0.048,0 0.06,0.06 0.024,0.048 0.024,0.108 0,0.06 -0.204,0.24 -0.192,0.18 -0.516,0.336 -0.312,0.156 -0.684,0.156 z"
       style="font-family:'EB Garamond';-inkscape-font-specification:'EB Garamond'"
       id="path1599" />
    <path
       d="m 59.186497,17.689276 q -0.216,0 -0.444,-0.168 -0.216,-0.168 -0.372,-0.408 -0.144,-0.24 -0.144,-0.456 0,-0.384 0.204,-0.6 0.204,-0.216 0.648,-0.396 l 1.224,-0.504 q 0.24,-0.096 0.276,-0.168 0.048,-0.072 0.06,-0.312 l 0.024,-0.768 q 0.012,-0.312 -0.18,-0.54 -0.18,-0.228 -0.528,-0.228 -0.18,0 -0.36,0.06 -0.18,0.06 -0.3,0.156 -0.072,0.048 -0.096,0.144 -0.024,0.096 -0.024,0.204 0,0.048 0,0.108 0.012,0.06 0.012,0.108 0,0.06 -0.156,0.168 -0.144,0.096 -0.336,0.18 -0.18,0.072 -0.3,0.072 -0.06,0 -0.096,-0.024 -0.036,-0.036 -0.036,-0.084 0,-0.192 0.12,-0.408 0.132,-0.228 0.36,-0.42 0.276,-0.252 0.6,-0.444 0.324,-0.192 0.636,-0.3 0.312,-0.108 0.552,-0.108 0.432,0 0.708,0.312 0.288,0.3 0.276,0.756 l -0.06,2.88 q -0.012,0.252 0.108,0.408 0.132,0.156 0.324,0.156 0.3,0 0.444,-0.132 0.06,-0.06 0.096,-0.06 0.06,0 0.096,0.036 0.036,0.036 0.036,0.096 0,0.132 -0.132,0.264 -0.192,0.192 -0.42,0.3 -0.216,0.12 -0.408,0.12 -0.552,0 -0.876,-0.624 h -0.036 q -0.396,0.324 -0.756,0.468 -0.36,0.156 -0.744,0.156 z m 0.564,-0.576 q 0.24,0 0.408,-0.072 0.168,-0.084 0.3,-0.216 0.06,-0.06 0.096,-0.156 0.048,-0.108 0.06,-0.336 l 0.024,-0.588 q 0.012,-0.132 -0.012,-0.192 -0.024,-0.06 -0.096,-0.06 -0.024,0 -0.084,0.012 -0.06,0.012 -0.156,0.048 -0.636,0.228 -0.888,0.48 -0.24,0.24 -0.24,0.444 0,0.312 0.18,0.48 0.192,0.156 0.408,0.156 z"
       style="font-family:'EB Garamond';-inkscape-font-specification:'EB Garamond'"
       id="path1601" />
    <path
       d="m 69.238372,17.749276 q -0.024,0 -0.084,-0.048 -0.048,-0.048 -0.048,-0.072 0,-0.12 0.024,-0.336 0.036,-0.228 0.036,-0.384 v -0.072 q -0.18,0.276 -0.576,0.564 -0.396,0.288 -0.996,0.288 -0.684,0 -1.188,-0.36 -0.492,-0.36 -0.768,-0.924 -0.264,-0.564 -0.264,-1.164 0,-0.696 0.324,-1.308 0.324,-0.612 0.924,-0.996 0.612,-0.384 1.452,-0.384 0.24,0 0.48,0.048 0.252,0.036 0.384,0.084 0.108,0.036 0.156,0.036 0.084,0 0.084,-0.288 v -1.704 q 0,-0.492 -0.156,-0.66 -0.156,-0.1679995 -0.444,-0.2159995 -0.108,-0.024 -0.108,-0.156 0,-0.108 0.096,-0.144 0.528,-0.132 0.828,-0.252 0.3,-0.12 0.468,-0.192 0.048,-0.024 0.084,-0.024 0.048,-0.012 0.072,-0.012 0.072,0 0.084,0.072 0,0.072 -0.024,0.252 -0.012,0.168 -0.036,0.504 -0.024,0.3359995 -0.024,0.8759995 v 5.424 q 0,0.408 0.06,0.6 0.06,0.18 0.192,0.18 0.06,0 0.204,-0.012 0.156,-0.012 0.312,-0.024 0.216,-0.012 0.216,0.108 0,0.084 -0.06,0.156 -0.048,0.06 -0.108,0.06 -0.336,0.048 -0.66,0.144 -0.324,0.084 -0.744,0.264 -0.096,0.048 -0.132,0.06 -0.024,0.012 -0.06,0.012 z m -1.212,-0.684 q 0.312,0 0.612,-0.156 0.3,-0.168 0.528,-0.432 l 0.012,-2.16 q 0,-0.324 -0.192,-0.636 -0.18,-0.312 -0.516,-0.504 -0.324,-0.204 -0.768,-0.204 -0.276,0 -0.624,0.168 -0.348,0.168 -0.6,0.6 -0.252,0.42 -0.252,1.224 0,0.684 0.204,1.104 0.204,0.408 0.492,0.624 0.3,0.216 0.6,0.3 0.312,0.072 0.504,0.072 z"
       style="font-family:'EB Garamond';-inkscape-font-specification:'EB Garamond'"
       id="path1603" />
    <path
       d="m 73.580685,17.701276 q -0.66,0 -1.152,-0.324 -0.492,-0.324 -0.768,-0.912 -0.276,-0.6 -0.276,-1.38 0,-0.696 0.312,-1.26 0.324,-0.576 0.852,-0.924 0.528,-0.348 1.152,-0.348 0.48,0 0.852,0.192 0.372,0.192 0.576,0.54 0.216,0.336 0.216,0.78 0,0.372 -0.36,0.372 h -2.532 q -0.168,0 -0.24,0.096 -0.06,0.084 -0.06,0.348 0,0.576 0.252,1.056 0.252,0.468 0.672,0.756 0.42,0.276 0.924,0.276 0.36,0 0.648,-0.132 0.3,-0.144 0.528,-0.408 0.048,-0.06 0.072,-0.072 0.024,-0.024 0.06,-0.024 0.096,0 0.096,0.12 0,0.228 -0.216,0.504 -0.18,0.228 -0.432,0.396 -0.252,0.168 -0.552,0.252 -0.3,0.096 -0.624,0.096 z m -1.104,-3.636 h 1.092 q 0.288,0 0.492,-0.012 0.204,-0.012 0.396,-0.048 0.06,-0.012 0.072,-0.072 0.024,-0.072 0.024,-0.192 0,-0.348 -0.312,-0.588 -0.3,-0.252 -0.72,-0.252 -0.276,0 -0.552,0.168 -0.276,0.156 -0.456,0.396 -0.18,0.24 -0.18,0.48 0,0.12 0.144,0.12 z"
       style="font-family:'EB Garamond';-inkscape-font-specification:'EB Garamond'"
       id="path1605" />
    <path
       d="m 78.57081,17.557276 q -0.06,0 -0.156,-0.024 -0.084,-0.012 -0.084,-0.084 0,-0.096 0.084,-0.132 0.096,-0.048 0.192,-0.084 0.18,-0.06 0.348,-0.132 0.168,-0.084 0.168,-0.324 v -6.048 q 0,-0.348 -0.132,-0.576 -0.12,-0.2399995 -0.42,-0.2999995 -0.096,-0.024 -0.096,-0.156 0,-0.12 0.084,-0.144 0.312,-0.072 0.54,-0.144 0.228,-0.084 0.42,-0.168 0.204,-0.084 0.396,-0.156 0.048,-0.024 0.072,-0.024 0.024,0 0.036,0.036 0.024,0.024 0.024,0.048 0,0.108 -0.048,0.468 -0.036,0.348 -0.036,1.1639995 v 6 q 0,0.24 0.168,0.324 0.168,0.072 0.348,0.132 0.096,0.036 0.18,0.084 0.096,0.036 0.096,0.132 0,0.072 -0.096,0.084 -0.084,0.024 -0.144,0.024 -0.228,0 -0.372,-0.024 -0.132,-0.012 -0.264,-0.024 -0.12,-0.012 -0.336,-0.012 -0.204,0 -0.336,0.012 -0.132,0.012 -0.264,0.024 -0.132,0.024 -0.372,0.024 z"
       style="font-family:'EB Garamond';-inkscape-font-specification:'EB Garamond'"
       id="path1607" />
    <path
       d="m 81.513622,17.557276 q -0.108,0 -0.18,-0.036 -0.06,-0.024 -0.06,-0.096 0,-0.096 0.084,-0.132 0.096,-0.036 0.192,-0.06 0.252,-0.06 0.384,-0.144 0.132,-0.096 0.132,-0.312 v -2.604 q 0,-0.324 -0.12,-0.576 -0.108,-0.252 -0.42,-0.3 -0.06,-0.012 -0.096,-0.048 -0.024,-0.036 -0.024,-0.108 0,-0.132 0.108,-0.144 0.48,-0.108 0.792,-0.288 0.312,-0.192 0.468,-0.312 0.108,-0.084 0.168,-0.084 0.072,0 0.072,0.06 0,0.096 -0.036,0.384 -0.024,0.276 -0.048,0.624 -0.024,0.336 -0.024,0.612 v 2.784 q 0,0.204 0.132,0.3 0.144,0.096 0.384,0.156 0.096,0.024 0.18,0.06 0.096,0.036 0.096,0.132 0,0.132 -0.24,0.132 -0.228,0 -0.372,-0.024 -0.132,-0.012 -0.264,-0.024 -0.12,-0.012 -0.336,-0.012 -0.204,0 -0.336,0.012 -0.132,0.012 -0.264,0.024 -0.132,0.024 -0.372,0.024 z m 0.672,-5.52 q -0.096,0 -0.096,-0.108 0,-0.036 0.012,-0.084 0.012,-0.06 0.036,-0.132 0.084,-0.228 0.264,-0.576 0.192,-0.36 0.372,-0.696 0.192,-0.336 0.288,-0.4919995 0.06,-0.096 0.144,-0.156 0.096,-0.06 0.18,-0.06 0.228,0 0.408,0.06 0.18,0.06 0.18,0.192 0,0.072 -0.036,0.1199995 -0.024,0.048 -0.084,0.132 -0.144,0.204 -0.396,0.516 -0.24,0.3 -0.492,0.588 -0.252,0.288 -0.408,0.444 -0.252,0.252 -0.372,0.252 z"
       style="font-family:'EB Garamond';-inkscape-font-specification:'EB Garamond'"
       id="path1609" />
    <path
       d="m 87.88731,20.941276 q -0.06,0 -0.156,-0.024 -0.084,-0.012 -0.084,-0.084 0,-0.096 0.084,-0.144 0.096,-0.036 0.192,-0.072 0.18,-0.06 0.348,-0.144 0.168,-0.072 0.168,-0.312 v -2.796 q 0,-0.204 -0.024,-0.276 -0.012,-0.084 -0.048,-0.084 -0.024,0 -0.06,0 -0.024,0 -0.048,0.024 -0.096,0.084 -0.336,0.252 -0.24,0.156 -0.552,0.276 -0.312,0.132 -0.636,0.132 -0.624,0 -1.176,-0.264 -0.54,-0.264 -0.888,-0.78 -0.336,-0.516 -0.336,-1.26 0,-0.852 0.372,-1.488 0.372,-0.636 1.044,-0.984 0.672,-0.36 1.548,-0.36 0.408,0 0.744,0.072 0.336,0.06 0.552,0.132 0.216,0.06 0.24,0.06 0.132,0 0.192,-0.084 0.06,-0.084 0.12,-0.216 0.012,-0.012 0.036,-0.024 0.024,-0.024 0.048,-0.024 0.06,0 0.12,0.036 0.072,0.036 0.072,0.084 0,0.12 -0.072,0.504 -0.072,0.372 -0.072,0.888 v 6.18 q 0,0.24 0.216,0.312 0.228,0.084 0.408,0.144 0.096,0.036 0.18,0.072 0.096,0.048 0.096,0.144 0,0.072 -0.084,0.084 -0.084,0.024 -0.156,0.024 -0.36,0 -0.564,-0.036 -0.192,-0.024 -0.516,-0.024 -0.204,0 -0.336,0.012 -0.12,0.012 -0.264,0.024 -0.132,0.024 -0.372,0.024 z m -0.708,-3.888 q 0.396,0 0.756,-0.156 0.36,-0.168 0.516,-0.336 0,-0.168 0,-0.504 0,-0.336 0,-0.72 0,-0.384 -0.012,-0.696 0,-0.312 0,-0.42 -0.012,-0.54 -0.432,-0.912 -0.408,-0.372 -1.008,-0.372 -0.432,0 -0.816,0.252 -0.384,0.24 -0.624,0.708 -0.24,0.468 -0.24,1.164 0,0.6 0.18,0.996 0.192,0.384 0.48,0.6 0.288,0.216 0.612,0.312 0.324,0.084 0.588,0.084 z"
       style="font-family:'EB Garamond';-inkscape-font-specification:'EB Garamond'"
       id="path1611" />
    <path
       d="m 94.565122,17.749276 q -0.084,0 -0.084,-0.096 0,-0.12 0.024,-0.348 0.036,-0.24 0.036,-0.396 0,-0.024 0,-0.036 0,-0.024 0,-0.036 -0.468,0.456 -0.948,0.66 -0.468,0.192 -1.032,0.192 -0.384,0 -0.696,-0.168 -0.312,-0.156 -0.492,-0.468 -0.18,-0.324 -0.18,-0.792 v -2.436 q 0,-0.264 -0.12,-0.42 -0.12,-0.156 -0.396,-0.264 -0.06,-0.024 -0.108,-0.06 -0.048,-0.036 -0.048,-0.132 0,-0.108 0.048,-0.144 0.06,-0.036 0.132,-0.048 0.408,-0.024 0.624,-0.06 0.228,-0.048 0.564,-0.132 0.036,-0.012 0.048,-0.012 0.024,0 0.048,0 0.132,0 0.12,0.168 -0.036,0.276 -0.06,0.468 -0.012,0.18 -0.012,0.456 v 2.34 q 0,0.288 0.144,0.54 0.144,0.24 0.372,0.396 0.24,0.156 0.492,0.156 0.312,0 0.54,-0.036 0.24,-0.036 0.468,-0.204 0.132,-0.096 0.336,-0.312 0.204,-0.216 0.204,-0.588 v -2.196 q 0,-0.252 -0.156,-0.372 -0.144,-0.132 -0.336,-0.18 -0.192,-0.048 -0.312,-0.048 -0.108,0 -0.18,-0.036 -0.072,-0.048 -0.072,-0.168 0,-0.108 0.072,-0.144 0.084,-0.036 0.18,-0.036 0.372,-0.012 0.612,-0.024 0.252,-0.024 0.444,-0.06 0.204,-0.048 0.42,-0.108 0.024,-0.012 0.06,-0.012 0.036,-0.012 0.06,-0.012 0.156,0 0.156,0.132 0,0.012 -0.012,0.048 0,0.024 -0.012,0.06 -0.012,0.036 -0.036,0.204 -0.012,0.168 -0.036,0.348 -0.012,0.18 -0.012,0.276 v 2.772 q 0,0.324 0.06,0.468 0.072,0.132 0.156,0.132 0.096,0 0.276,-0.012 0.192,-0.024 0.276,-0.024 0.06,0 0.12,0.024 0.06,0.024 0.06,0.132 0,0.096 -0.048,0.132 -0.048,0.024 -0.12,0.036 -0.468,0.06 -0.804,0.18 -0.336,0.12 -0.6,0.228 -0.036,0.012 -0.108,0.036 -0.072,0.036 -0.132,0.036 z"
       style="font-family:'EB Garamond';-inkscape-font-specification:'EB Garamond'"
       id="path1613" />
    <path
       d="m 97.029247,17.557276 q -0.108,0 -0.18,-0.036 -0.06,-0.024 -0.06,-0.096 0,-0.096 0.084,-0.132 0.096,-0.036 0.192,-0.06 0.252,-0.06 0.384,-0.144 0.132,-0.096 0.132,-0.312 v -2.604 q 0,-0.324 -0.12,-0.576 -0.108,-0.252 -0.42,-0.3 -0.06,-0.012 -0.096,-0.048 -0.024,-0.036 -0.024,-0.108 0,-0.132 0.108,-0.144 0.48,-0.108 0.792,-0.288 0.312,-0.192 0.468,-0.312 0.108,-0.084 0.168,-0.084 0.072,0 0.072,0.06 0,0.096 -0.036,0.384 -0.024,0.276 -0.048,0.624 -0.024,0.336 -0.024,0.612 v 2.784 q 0,0.204 0.132,0.3 0.144,0.096 0.384,0.156 0.096,0.024 0.18,0.06 0.096,0.036 0.096,0.132 0,0.132 -0.24,0.132 -0.228,0 -0.372,-0.024 -0.132,-0.012 -0.264,-0.024 -0.12,-0.012 -0.336,-0.012 -0.204,0 -0.336,0.012 -0.132,0.012 -0.264,0.024 -0.132,0.024 -0.372,0.024 z m 0.96,-6.228 q -0.252,0 -0.432,-0.168 -0.168,-0.18 -0.168,-0.432 0,-0.264 0.168,-0.432 0.18,-0.18 0.432,-0.18 0.264,0 0.432,0.18 0.18,0.168 0.18,0.432 0,0.252 -0.18,0.432 -0.168,0.168 -0.432,0.168 z"
       style="font-family:'EB Garamond';-inkscape-font-specification:'EB Garamond'"
       id="path1615" />
    <path
       d="m 103.71493,17.749276 q -0.024,0 -0.084,-0.048 -0.048,-0.048 -0.048,-0.072 0,-0.12 0.024,-0.336 0.036,-0.228 0.036,-0.384 v -0.072 q -0.18,0.276 -0.576,0.564 -0.396,0.288 -0.996,0.288 -0.684,0 -1.188,-0.36 -0.492,-0.36 -0.768,-0.924 -0.263995,-0.564 -0.263995,-1.164 0,-0.696 0.323995,-1.308 0.324,-0.612 0.924,-0.996 0.612,-0.384 1.452,-0.384 0.24,0 0.48,0.048 0.252,0.036 0.384,0.084 0.108,0.036 0.156,0.036 0.084,0 0.084,-0.288 v -1.704 q 0,-0.492 -0.156,-0.66 -0.156,-0.1679995 -0.444,-0.2159995 -0.108,-0.024 -0.108,-0.156 0,-0.108 0.096,-0.144 0.528,-0.132 0.828,-0.252 0.3,-0.12 0.468,-0.192 0.048,-0.024 0.084,-0.024 0.048,-0.012 0.072,-0.012 0.072,0 0.084,0.072 0,0.072 -0.024,0.252 -0.012,0.168 -0.036,0.504 -0.024,0.3359995 -0.024,0.8759995 v 5.424 q 0,0.408 0.06,0.6 0.06,0.18 0.192,0.18 0.06,0 0.204,-0.012 0.156,-0.012 0.312,-0.024 0.216,-0.012 0.216,0.108 0,0.084 -0.06,0.156 -0.048,0.06 -0.108,0.06 -0.336,0.048 -0.66,0.144 -0.324,0.084 -0.744,0.264 -0.096,0.048 -0.132,0.06 -0.024,0.012 -0.06,0.012 z m -1.212,-0.684 q 0.312,0 0.612,-0.156 0.3,-0.168 0.528,-0.432 l 0.012,-2.16 q 0,-0.324 -0.192,-0.636 -0.18,-0.312 -0.516,-0.504 -0.324,-0.204 -0.768,-0.204 -0.276,0 -0.624,0.168 -0.348,0.168 -0.6,0.6 -0.252,0.42 -0.252,1.224 0,0.684 0.204,1.104 0.204,0.408 0.492,0.624 0.3,0.216 0.6,0.3 0.312,0.072 0.504,0.072 z"
       style="font-family:'EB Garamond';-inkscape-font-specification:'EB Garamond'"
       id="path1617" />
    <path
       d="m 108.30925,17.689276 q -0.672,0 -1.212,-0.312 -0.54,-0.312 -0.864,-0.852 -0.312,-0.552 -0.312,-1.248 0,-0.504 0.192,-0.984 0.204,-0.48 0.564,-0.876 0.36,-0.396 0.84,-0.624 0.48,-0.24 1.032,-0.24 0.696,0 1.248,0.336 0.564,0.336 0.888,0.888 0.336,0.54 0.336,1.188 0,0.696 -0.312,1.32 -0.3,0.624 -0.9,1.02 -0.6,0.384 -1.5,0.384 z m 0.252,-0.36 q 0.408,0 0.732,-0.156 0.324,-0.156 0.504,-0.504 0.144,-0.276 0.192,-0.672 0.048,-0.396 0.048,-0.744 0,-0.576 -0.216,-1.104 -0.204,-0.54 -0.588,-0.876 -0.372,-0.348 -0.888,-0.348 -0.324,0 -0.588,0.108 -0.252,0.096 -0.468,0.372 -0.24,0.3 -0.312,0.732 -0.072,0.432 -0.072,0.864 0,0.588 0.216,1.128 0.216,0.528 0.588,0.864 0.372,0.336 0.852,0.336 z"
       style="font-family:'EB Garamond';-inkscape-font-specification:'EB Garamond'"
       id="path1619" />
    <path
       d="m 116.37756,17.701276 q -0.66,0 -1.152,-0.324 -0.492,-0.324 -0.768,-0.912 -0.276,-0.6 -0.276,-1.38 0,-0.696 0.312,-1.26 0.324,-0.576 0.852,-0.924 0.528,-0.348 1.152,-0.348 0.48,0 0.852,0.192 0.372,0.192 0.576,0.54 0.216,0.336 0.216,0.78 0,0.372 -0.36,0.372 h -2.532 q -0.168,0 -0.24,0.096 -0.06,0.084 -0.06,0.348 0,0.576 0.252,1.056 0.252,0.468 0.672,0.756 0.42,0.276 0.924,0.276 0.36,0 0.648,-0.132 0.3,-0.144 0.528,-0.408 0.048,-0.06 0.072,-0.072 0.024,-0.024 0.06,-0.024 0.096,0 0.096,0.12 0,0.228 -0.216,0.504 -0.18,0.228 -0.432,0.396 -0.252,0.168 -0.552,0.252 -0.3,0.096 -0.624,0.096 z m -1.104,-3.636 h 1.092 q 0.288,0 0.492,-0.012 0.204,-0.012 0.396,-0.048 0.06,-0.012 0.072,-0.072 0.024,-0.072 0.024,-0.192 0,-0.348 -0.312,-0.588 -0.3,-0.252 -0.72,-0.252 -0.276,0 -0.552,0.168 -0.276,0.156 -0.456,0.396 -0.18,0.24 -0.18,0.48 0,0.12 0.144,0.12 z"
       style="font-family:'EB Garamond';-inkscape-font-specification:'EB Garamond'"
       id="path1621" />
    <path
       d="m 118.97706,17.557276 q -0.06,0 -0.156,-0.024 -0.084,-0.012 -0.084,-0.084 0,-0.096 0.084,-0.132 0.096,-0.048 0.192,-0.084 0.18,-0.06 0.348,-0.132 0.168,-0.084 0.168,-0.324 v -6.048 q 0,-0.348 -0.132,-0.576 -0.12,-0.2399995 -0.42,-0.2999995 -0.096,-0.024 -0.096,-0.156 0,-0.12 0.084,-0.144 0.312,-0.072 0.54,-0.144 0.228,-0.084 0.42,-0.168 0.204,-0.084 0.396,-0.156 0.048,-0.024 0.072,-0.024 0.024,0 0.036,0.036 0.024,0.024 0.024,0.048 0,0.108 -0.048,0.468 -0.036,0.348 -0.036,1.1639995 v 6 q 0,0.24 0.168,0.324 0.168,0.072 0.348,0.132 0.096,0.036 0.18,0.084 0.096,0.036 0.096,0.132 0,0.072 -0.096,0.084 -0.084,0.024 -0.144,0.024 -0.228,0 -0.372,-0.024 -0.132,-0.012 -0.264,-0.024 -0.12,-0.012 -0.336,-0.012 -0.204,0 -0.336,0.012 -0.132,0.012 -0.264,0.024 -0.132,0.024 -0.372,0.024 z"
       style="font-family:'EB Garamond';-inkscape-font-specification:'EB Garamond'"
       id="path1623" />
    <path
       d="m 123.94787,17.701276 q -0.66,0 -1.152,-0.324 -0.492,-0.324 -0.768,-0.912 -0.276,-0.6 -0.276,-1.38 0,-0.696 0.312,-1.26 0.324,-0.576 0.852,-0.924 0.528,-0.348 1.152,-0.348 0.48,0 0.852,0.192 0.372,0.192 0.576,0.54 0.216,0.336 0.216,0.78 0,0.372 -0.36,0.372 h -2.532 q -0.168,0 -0.24,0.096 -0.06,0.084 -0.06,0.348 0,0.576 0.252,1.056 0.252,0.468 0.672,0.756 0.42,0.276 0.924,0.276 0.36,0 0.648,-0.132 0.3,-0.144 0.528,-0.408 0.048,-0.06 0.072,-0.072 0.024,-0.024 0.06,-0.024 0.096,0 0.096,0.12 0,0.228 -0.216,0.504 -0.18,0.228 -0.432,0.396 -0.252,0.168 -0.552,0.252 -0.3,0.096 -0.624,0.096 z m -1.104,-3.636 h 1.092 q 0.288,0 0.492,-0.012 0.204,-0.012 0.396,-0.048 0.06,-0.012 0.072,-0.072 0.024,-0.072 0.024,-0.192 0,-0.348 -0.312,-0.588 -0.3,-0.252 -0.72,-0.252 -0.276,0 -0.552,0.168 -0.276,0.156 -0.456,0.396 -0.18,0.24 -0.18,0.48 0,0.12 0.144,0.12 z"
       style="font-family:'EB Garamond';-inkscape-font-specification:'EB Garamond'"
       id="path1625" />
    <path
       d="m 128.64737,17.773276 q -0.048,0 -0.12,-0.192 -0.072,-0.18 -0.096,-0.264 -0.084,-0.204 -0.156,-0.42 -0.072,-0.228 -0.144,-0.42 -0.264,-0.744 -0.576,-1.452 -0.3,-0.72 -0.588,-1.452 -0.084,-0.216 -0.264,-0.384 -0.168,-0.18 -0.348,-0.228 -0.096,-0.036 -0.156,-0.072 -0.06,-0.036 -0.06,-0.12 0,-0.072 0.084,-0.084 0.096,-0.024 0.156,-0.024 0.24,0 0.348,0.012 0.108,0.012 0.216,0.036 0.108,0.012 0.312,0.012 0.216,0 0.324,-0.012 0.108,-0.024 0.228,-0.036 0.12,-0.012 0.348,-0.012 0.06,0 0.144,0.024 0.096,0.012 0.096,0.084 0,0.084 -0.084,0.132 -0.084,0.048 -0.192,0.084 -0.12,0.048 -0.18,0.192 -0.06,0.132 -0.06,0.3 0,0.084 0.012,0.168 0.012,0.084 0.036,0.156 l 0.948,2.52 q 0.012,0.012 0.012,0.012 0.012,0 0.024,-0.012 l 0.912,-2.34 q 0.048,-0.12 0.072,-0.252 0.024,-0.144 0.024,-0.24 0,-0.24 -0.072,-0.336 -0.072,-0.108 -0.24,-0.168 -0.156,-0.06 -0.216,-0.096 -0.06,-0.036 -0.06,-0.12 0,-0.072 0.072,-0.084 0.084,-0.024 0.168,-0.024 0.132,0 0.348,0.036 0.216,0.024 0.528,0.024 0.312,0 0.42,-0.024 0.12,-0.036 0.288,-0.036 0.096,0 0.168,0.024 0.072,0.012 0.072,0.084 0,0.132 -0.276,0.216 -0.18,0.048 -0.396,0.276 -0.216,0.228 -0.348,0.528 l -0.936,2.256 q -0.024,0.048 -0.096,0.24 -0.072,0.18 -0.156,0.408 -0.084,0.216 -0.144,0.384 -0.06,0.156 -0.06,0.156 0,0 -0.048,0.12 -0.048,0.108 -0.108,0.228 -0.06,0.132 -0.108,0.192 z"
       style="font-family:'EB Garamond';-inkscape-font-specification:'EB Garamond'"
       id="path1627" />
    <path
       d="m 132.54587,17.689276 q -0.216,0 -0.444,-0.168 -0.216,-0.168 -0.372,-0.408 -0.144,-0.24 -0.144,-0.456 0,-0.384 0.204,-0.6 0.204,-0.216 0.648,-0.396 l 1.224,-0.504 q 0.24,-0.096 0.276,-0.168 0.048,-0.072 0.06,-0.312 l 0.024,-0.768 q 0.012,-0.312 -0.18,-0.54 -0.18,-0.228 -0.528,-0.228 -0.18,0 -0.36,0.06 -0.18,0.06 -0.3,0.156 -0.072,0.048 -0.096,0.144 -0.024,0.096 -0.024,0.204 0,0.048 0,0.108 0.012,0.06 0.012,0.108 0,0.06 -0.156,0.168 -0.144,0.096 -0.336,0.18 -0.18,0.072 -0.3,0.072 -0.06,0 -0.096,-0.024 -0.036,-0.036 -0.036,-0.084 0,-0.192 0.12,-0.408 0.132,-0.228 0.36,-0.42 0.276,-0.252 0.6,-0.444 0.324,-0.192 0.636,-0.3 0.312,-0.108 0.552,-0.108 0.432,0 0.708,0.312 0.288,0.3 0.276,0.756 l -0.06,2.88 q -0.012,0.252 0.108,0.408 0.132,0.156 0.324,0.156 0.3,0 0.444,-0.132 0.06,-0.06 0.096,-0.06 0.06,0 0.096,0.036 0.036,0.036 0.036,0.096 0,0.132 -0.132,0.264 -0.192,0.192 -0.42,0.3 -0.216,0.12 -0.408,0.12 -0.552,0 -0.876,-0.624 h -0.036 q -0.396,0.324 -0.756,0.468 -0.36,0.156 -0.744,0.156 z m 0.564,-0.576 q 0.24,0 0.408,-0.072 0.168,-0.084 0.3,-0.216 0.06,-0.06 0.096,-0.156 0.048,-0.108 0.06,-0.336 l 0.024,-0.588 q 0.012,-0.132 -0.012,-0.192 -0.024,-0.06 -0.096,-0.06 -0.024,0 -0.084,0.012 -0.06,0.012 -0.156,0.048 -0.636,0.228 -0.888,0.48 -0.24,0.24 -0.24,0.444 0,0.312 0.18,0.48 0.192,0.156 0.408,0.156 z"
       style="font-family:'EB Garamond';-inkscape-font-specification:'EB Garamond'"
       id="path1629" />
    <path
       d="m 140.20712,17.749276 q -0.024,0 -0.084,-0.048 -0.048,-0.048 -0.048,-0.072 0,-0.12 0.024,-0.336 0.036,-0.228 0.036,-0.384 v -0.072 q -0.18,0.276 -0.576,0.564 -0.396,0.288 -0.996,0.288 -0.684,0 -1.188,-0.36 -0.492,-0.36 -0.768,-0.924 -0.264,-0.564 -0.264,-1.164 0,-0.696 0.324,-1.308 0.324,-0.612 0.924,-0.996 0.612,-0.384 1.452,-0.384 0.24,0 0.48,0.048 0.252,0.036 0.384,0.084 0.108,0.036 0.156,0.036 0.084,0 0.084,-0.288 v -1.704 q 0,-0.492 -0.156,-0.66 -0.156,-0.1679995 -0.444,-0.2159995 -0.108,-0.024 -0.108,-0.156 0,-0.108 0.096,-0.144 0.528,-0.132 0.828,-0.252 0.3,-0.12 0.468,-0.192 0.048,-0.024 0.084,-0.024 0.048,-0.012 0.072,-0.012 0.072,0 0.084,0.072 0,0.072 -0.024,0.252 -0.012,0.168 -0.036,0.504 -0.024,0.3359995 -0.024,0.8759995 v 5.424 q 0,0.408 0.06,0.6 0.06,0.18 0.192,0.18 0.06,0 0.204,-0.012 0.156,-0.012 0.312,-0.024 0.216,-0.012 0.216,0.108 0,0.084 -0.06,0.156 -0.048,0.06 -0.108,0.06 -0.336,0.048 -0.66,0.144 -0.324,0.084 -0.744,0.264 -0.096,0.048 -0.132,0.06 -0.024,0.012 -0.06,0.012 z m -1.212,-0.684 q 0.312,0 0.612,-0.156 0.3,-0.168 0.528,-0.432 l 0.012,-2.16 q 0,-0.324 -0.192,-0.636 -0.18,-0.312 -0.516,-0.504 -0.324,-0.204 -0.768,-0.204 -0.276,0 -0.624,0.168 -0.348,0.168 -0.6,0.6 -0.252,0.42 -0.252,1.224 0,0.684 0.204,1.104 0.204,0.408 0.492,0.624 0.3,0.216 0.6,0.3 0.312,0.072 0.504,0.072 z"
       style="font-family:'EB Garamond';-inkscape-font-specification:'EB Garamond'"
       id="path1631" />
    <path
       d="m 143.39743,17.689276 q -0.216,0 -0.444,-0.168 -0.216,-0.168 -0.372,-0.408 -0.144,-0.24 -0.144,-0.456 0,-0.384 0.204,-0.6 0.204,-0.216 0.648,-0.396 l 1.224,-0.504 q 0.24,-0.096 0.276,-0.168 0.048,-0.072 0.06,-0.312 l 0.024,-0.768 q 0.012,-0.312 -0.18,-0.54 -0.18,-0.228 -0.528,-0.228 -0.18,0 -0.36,0.06 -0.18,0.06 -0.3,0.156 -0.072,0.048 -0.096,0.144 -0.024,0.096 -0.024,0.204 0,0.048 0,0.108 0.012,0.06 0.012,0.108 0,0.06 -0.156,0.168 -0.144,0.096 -0.336,0.18 -0.18,0.072 -0.3,0.072 -0.06,0 -0.096,-0.024 -0.036,-0.036 -0.036,-0.084 0,-0.192 0.12,-0.408 0.132,-0.228 0.36,-0.42 0.276,-0.252 0.6,-0.444 0.324,-0.192 0.636,-0.3 0.312,-0.108 0.552,-0.108 0.432,0 0.708,0.312 0.288,0.3 0.276,0.756 l -0.06,2.88 q -0.012,0.252 0.108,0.408 0.132,0.156 0.324,0.156 0.3,0 0.444,-0.132 0.06,-0.06 0.096,-0.06 0.06,0 0.096,0.036 0.036,0.036 0.036,0.096 0,0.132 -0.132,0.264 -0.192,0.192 -0.42,0.3 -0.216,0.12 -0.408,0.12 -0.552,0 -0.876,-0.624 h -0.036 q -0.396,0.324 -0.756,0.468 -0.36,0.156 -0.744,0.156 z m 0.564,-0.576 q 0.24,0 0.408,-0.072 0.168,-0.084 0.3,-0.216 0.06,-0.06 0.096,-0.156 0.048,-0.108 0.06,-0.336 l 0.024,-0.588 q 0.012,-0.132 -0.012,-0.192 -0.024,-0.06 -0.096,-0.06 -0.024,0 -0.084,0.012 -0.06,0.012 -0.156,0.048 -0.636,0.228 -0.888,0.48 -0.24,0.24 -0.24,0.444 0,0.312 0.18,0.48 0.192,0.156 0.408,0.156 z"
       style="font-family:'EB Garamond';-inkscape-font-specification:'EB Garamond'"
       id="path1633" />
    <path
       d="m 41.065185,32.87747 q -0.372,0 -0.696,-0.12 -0.324,-0.108 -0.552,-0.312 -0.06,-0.132 -0.096,-0.444 -0.024,-0.312 -0.036,-0.516 0,-0.108 0.156,-0.108 0.048,0 0.084,0.024 0.048,0.012 0.06,0.06 0.156,0.588 0.492,0.84 0.348,0.252 0.696,0.252 0.348,0 0.588,-0.228 0.252,-0.24 0.252,-0.588 0,-0.324 -0.216,-0.552 -0.216,-0.24 -0.756,-0.576 -0.408,-0.252 -0.66,-0.48 -0.252,-0.228 -0.372,-0.468 -0.108,-0.24 -0.108,-0.54 0,-0.384 0.18,-0.696 0.18,-0.312 0.54,-0.492 0.36,-0.192 0.9,-0.192 0.36,0 0.6,0.072 0.24,0.072 0.36,0.156 0.096,0.132 0.156,0.42 0.072,0.276 0.072,0.528 0,0.084 -0.12,0.084 -0.072,0 -0.144,-0.024 -0.06,-0.036 -0.084,-0.084 -0.156,-0.396 -0.396,-0.6 -0.228,-0.216 -0.576,-0.216 -0.3,0 -0.54,0.18 -0.228,0.18 -0.228,0.528 0,0.276 0.168,0.492 0.18,0.216 0.66,0.492 0.696,0.396 1.032,0.744 0.348,0.336 0.348,0.9 0,0.648 -0.492,1.056 -0.492,0.408 -1.272,0.408 z"
       style="font-family:'EB Garamond';-inkscape-font-specification:'EB Garamond'"
       id="path1635" />
    <path
       d="m 46.012372,32.87747 q -0.672,0 -1.212,-0.312 -0.54,-0.312 -0.864,-0.852 -0.312,-0.552 -0.312,-1.248 0,-0.504 0.192,-0.984 0.204,-0.48 0.564,-0.876 0.36,-0.396 0.84,-0.624 0.48,-0.24 1.032,-0.24 0.696,0 1.248,0.336 0.564,0.336 0.888,0.888 0.336,0.54 0.336,1.188 0,0.696 -0.312,1.32 -0.3,0.624 -0.9,1.02 -0.6,0.384 -1.5,0.384 z m 0.252,-0.36 q 0.408,0 0.732,-0.156 0.324,-0.156 0.504,-0.504 0.144,-0.276 0.192,-0.672 0.048,-0.396 0.048,-0.744 0,-0.576 -0.216,-1.104 -0.204,-0.54 -0.588,-0.876 -0.372,-0.348 -0.888,-0.348 -0.324,0 -0.588,0.108 -0.252,0.096 -0.468,0.372 -0.24,0.3 -0.312,0.732 -0.072,0.432 -0.072,0.864 0,0.588 0.216,1.128 0.216,0.528 0.588,0.864 0.372,0.336 0.852,0.336 z"
       style="font-family:'EB Garamond';-inkscape-font-specification:'EB Garamond'"
       id="path1637" />
    <path
       d="m 52.24206,32.87747 q -0.264,0 -0.528,-0.048 -0.264,-0.048 -0.504,-0.108 -0.264,-0.072 -0.468,-0.132 -0.192,-0.06 -0.252,-0.06 -0.072,0 -0.144,0.048 -0.06,0.048 -0.12,0.108 -0.06,0.06 -0.108,0.06 -0.048,0 -0.108,-0.036 -0.06,-0.048 -0.06,-0.108 0,-0.108 0.036,-0.372 0.048,-0.264 0.048,-0.492 v -5.82 q 0,-0.312 -0.156,-0.54 -0.156,-0.228 -0.396,-0.336 -0.048,-0.024 -0.108,-0.06 -0.048,-0.048 -0.048,-0.12 0,-0.06 0.048,-0.084 0.048,-0.024 0.096,-0.036 0.156,-0.036 0.42,-0.132 0.276,-0.096 0.516,-0.192 0.24,-0.096 0.324,-0.132 0.072,-0.036 0.108,-0.036 0.024,0 0.048,0.024 0.024,0.024 0.024,0.06 0,0.048 -0.024,0.408 -0.012,0.348 -0.012,0.852 v 2.46 q 0,0.228 0.024,0.312 0.024,0.072 0.084,0.084 0.372,-0.312 0.864,-0.504 0.492,-0.204 0.888,-0.204 0.612,0 1.092,0.312 0.492,0.312 0.78,0.852 0.288,0.528 0.288,1.2 0,0.816 -0.336,1.452 -0.336,0.624 -0.936,0.972 -0.588,0.348 -1.38,0.348 z m 0.276,-0.372 q 0.456,0 0.78,-0.276 0.336,-0.288 0.516,-0.768 0.18,-0.492 0.18,-1.092 0,-0.468 -0.18,-0.96 -0.168,-0.492 -0.54,-0.828 -0.36,-0.336 -0.936,-0.336 -0.48,0 -0.84,0.156 -0.36,0.156 -0.624,0.396 v 2.328 q 0,0.42 0.228,0.732 0.24,0.312 0.612,0.48 0.384,0.168 0.804,0.168 z"
       style="font-family:'EB Garamond';-inkscape-font-specification:'EB Garamond'"
       id="path1639" />
    <path
       d="m 55.90956,32.74547 q -0.12,0 -0.18,-0.036 -0.06,-0.024 -0.06,-0.096 0,-0.096 0.072,-0.12 0.072,-0.036 0.204,-0.072 0.228,-0.06 0.336,-0.168 0.12,-0.12 0.12,-0.288 v -2.58 q 0,-0.324 -0.096,-0.564 -0.096,-0.24 -0.396,-0.3 -0.048,-0.012 -0.084,-0.06 -0.036,-0.048 -0.036,-0.096 0,-0.12 0.108,-0.144 0.312,-0.096 0.648,-0.276 0.348,-0.192 0.54,-0.312 0.072,-0.048 0.108,-0.06 0.048,-0.024 0.072,-0.024 0.06,0 0.06,0.084 0,0.036 -0.012,0.18 0,0.144 -0.012,0.336 0,0.192 -0.012,0.384 0,0.024 0.024,0.024 0.192,-0.24 0.42,-0.42 0.24,-0.18 0.48,-0.288 0.252,-0.108 0.48,-0.108 0.252,0 0.408,0.108 0.168,0.108 0.168,0.276 0,0.12 -0.072,0.264 -0.06,0.144 -0.168,0.252 -0.108,0.108 -0.228,0.108 -0.072,0 -0.156,-0.024 -0.084,-0.036 -0.18,-0.084 -0.096,-0.036 -0.192,-0.072 -0.096,-0.036 -0.192,-0.036 -0.288,0 -0.564,0.204 -0.264,0.204 -0.264,0.804 v 2.424 q 0,0.156 0.168,0.264 0.168,0.096 0.468,0.192 0.132,0.036 0.204,0.072 0.072,0.036 0.072,0.12 0,0.132 -0.24,0.132 -0.36,0 -0.552,-0.036 -0.18,-0.024 -0.492,-0.024 -0.204,0 -0.336,0.012 -0.12,0.012 -0.264,0.024 -0.132,0.024 -0.372,0.024 z"
       style="font-family:'EB Garamond';-inkscape-font-specification:'EB Garamond'"
       id="path1641" />
    <path
       d="m 61.885372,32.88947 q -0.66,0 -1.152,-0.324 -0.492,-0.324 -0.768,-0.912 -0.276,-0.6 -0.276,-1.38 0,-0.696 0.312,-1.26 0.324,-0.576 0.852,-0.924 0.528,-0.348 1.152,-0.348 0.48,0 0.852,0.192 0.372,0.192 0.576,0.54 0.216,0.336 0.216,0.78 0,0.372 -0.36,0.372 h -2.532 q -0.168,0 -0.24,0.096 -0.06,0.084 -0.06,0.348 0,0.576 0.252,1.056 0.252,0.468 0.672,0.756 0.42,0.276 0.924,0.276 0.36,0 0.648,-0.132 0.3,-0.144 0.528,-0.408 0.048,-0.06 0.072,-0.072 0.024,-0.024 0.06,-0.024 0.096,0 0.096,0.12 0,0.228 -0.216,0.504 -0.18,0.228 -0.432,0.396 -0.252,0.168 -0.552,0.252 -0.3,0.096 -0.624,0.096 z m -1.104,-3.636 h 1.092 q 0.288,0 0.492,-0.012 0.204,-0.012 0.396,-0.048 0.06,-0.012 0.072,-0.072 0.024,-0.072 0.024,-0.192 0,-0.348 -0.312,-0.588 -0.3,-0.252 -0.72,-0.252 -0.276,0 -0.552,0.168 -0.276,0.156 -0.456,0.396 -0.18,0.24 -0.18,0.48 0,0.12 0.144,0.12 z"
       style="font-family:'EB Garamond';-inkscape-font-specification:'EB Garamond'"
       id="path1643" />
    <path
       d="m 70.799497,32.93747 q -0.084,0 -0.084,-0.096 0,-0.12 0.024,-0.348 0.036,-0.24 0.036,-0.396 0,-0.024 0,-0.036 0,-0.024 0,-0.036 -0.468,0.456 -0.948,0.66 -0.468,0.192 -1.032,0.192 -0.384,0 -0.696,-0.168 -0.312,-0.156 -0.492,-0.468 -0.18,-0.324 -0.18,-0.792 v -2.436 q 0,-0.264 -0.12,-0.42 -0.12,-0.156 -0.396,-0.264 -0.06,-0.024 -0.108,-0.06 -0.048,-0.036 -0.048,-0.132 0,-0.108 0.048,-0.144 0.06,-0.036 0.132,-0.048 0.408,-0.024 0.624,-0.06 0.228,-0.048 0.564,-0.132 0.036,-0.012 0.048,-0.012 0.024,0 0.048,0 0.132,0 0.12,0.168 -0.036,0.276 -0.06,0.468 -0.012,0.18 -0.012,0.456 v 2.34 q 0,0.288 0.144,0.54 0.144,0.24 0.372,0.396 0.24,0.156 0.492,0.156 0.312,0 0.54,-0.036 0.24,-0.036 0.468,-0.204 0.132,-0.096 0.336,-0.312 0.204,-0.216 0.204,-0.588 v -2.196 q 0,-0.252 -0.156,-0.372 -0.144,-0.132 -0.336,-0.18 -0.192,-0.048 -0.312,-0.048 -0.108,0 -0.18,-0.036 -0.072,-0.048 -0.072,-0.168 0,-0.108 0.072,-0.144 0.084,-0.036 0.18,-0.036 0.372,-0.012 0.612,-0.024 0.252,-0.024 0.444,-0.06 0.204,-0.048 0.42,-0.108 0.024,-0.012 0.06,-0.012 0.036,-0.012 0.06,-0.012 0.156,0 0.156,0.132 0,0.012 -0.012,0.048 0,0.024 -0.012,0.06 -0.012,0.036 -0.036,0.204 -0.012,0.168 -0.036,0.348 -0.012,0.18 -0.012,0.276 v 2.772 q 0,0.324 0.06,0.468 0.072,0.132 0.156,0.132 0.096,0 0.276,-0.012 0.192,-0.024 0.276,-0.024 0.06,0 0.12,0.024 0.06,0.024 0.06,0.132 0,0.096 -0.048,0.132 -0.048,0.024 -0.12,0.036 -0.468,0.06 -0.804,0.18 -0.336,0.12 -0.6,0.228 -0.036,0.012 -0.108,0.036 -0.072,0.036 -0.132,0.036 z"
       style="font-family:'EB Garamond';-inkscape-font-specification:'EB Garamond'"
       id="path1645" />
    <path
       d="m 73.263622,32.74547 q -0.108,0 -0.18,-0.036 -0.06,-0.024 -0.06,-0.096 0,-0.096 0.072,-0.12 0.072,-0.036 0.204,-0.072 0.18,-0.048 0.348,-0.132 0.168,-0.084 0.168,-0.324 v -2.58 q 0,-0.324 -0.072,-0.552 -0.06,-0.228 -0.372,-0.312 -0.048,-0.024 -0.084,-0.048 -0.036,-0.036 -0.036,-0.108 0,-0.132 0.108,-0.144 0.42,-0.108 0.684,-0.264 0.264,-0.156 0.516,-0.348 0.036,-0.024 0.06,-0.036 0.036,-0.024 0.072,-0.024 0.024,0 0.036,0.024 0.024,0.024 0.024,0.06 0,0.084 -0.036,0.348 -0.024,0.252 -0.024,0.42 0,0.048 0,0.096 0.012,0.036 0.024,0.048 0.42,-0.396 0.888,-0.6 0.48,-0.204 1.044,-0.204 0.588,0 0.972,0.48 0.384,0.48 0.384,1.188 v 2.556 q 0,0.24 0.168,0.324 0.168,0.072 0.348,0.132 0.096,0.036 0.18,0.084 0.096,0.036 0.096,0.132 0,0.072 -0.084,0.084 -0.084,0.024 -0.156,0.024 -0.24,0 -0.372,-0.024 -0.132,-0.012 -0.252,-0.024 -0.12,-0.012 -0.336,-0.012 -0.204,0 -0.336,0.012 -0.132,0.012 -0.276,0.024 -0.132,0.024 -0.372,0.024 -0.06,0 -0.156,-0.024 -0.084,-0.012 -0.084,-0.084 0,-0.096 0.084,-0.132 0.096,-0.048 0.192,-0.084 0.18,-0.06 0.348,-0.132 0.168,-0.084 0.168,-0.324 v -2.52 q 0,-0.528 -0.3,-0.816 -0.288,-0.3 -0.78,-0.312 -0.432,0 -0.756,0.144 -0.324,0.132 -0.576,0.336 -0.048,0.048 -0.072,0.132 -0.024,0.072 -0.024,0.144 v 2.892 q 0,0.24 0.168,0.324 0.168,0.084 0.348,0.132 0.276,0.072 0.276,0.192 0,0.072 -0.06,0.096 -0.06,0.036 -0.18,0.036 -0.24,0 -0.384,-0.024 -0.132,-0.012 -0.252,-0.024 -0.12,-0.012 -0.336,-0.012 -0.204,0 -0.336,0.012 -0.12,0.012 -0.264,0.024 -0.132,0.024 -0.372,0.024 z"
       style="font-family:'EB Garamond';-inkscape-font-specification:'EB Garamond'"
       id="path1647" />
    <path
       d="m 80.467747,32.87747 q -0.216,0 -0.444,-0.168 -0.216,-0.168 -0.372,-0.408 -0.144,-0.24 -0.144,-0.456 0,-0.384 0.204,-0.6 0.204,-0.216 0.648,-0.396 l 1.224,-0.504 q 0.24,-0.096 0.276,-0.168 0.048,-0.072 0.06,-0.312 l 0.024,-0.768 q 0.012,-0.312 -0.18,-0.54 -0.18,-0.228 -0.528,-0.228 -0.18,0 -0.36,0.06 -0.18,0.06 -0.3,0.156 -0.072,0.048 -0.096,0.144 -0.024,0.096 -0.024,0.204 0,0.048 0,0.108 0.012,0.06 0.012,0.108 0,0.06 -0.156,0.168 -0.144,0.096 -0.336,0.18 -0.18,0.072 -0.3,0.072 -0.06,0 -0.096,-0.024 -0.036,-0.036 -0.036,-0.084 0,-0.192 0.12,-0.408 0.132,-0.228 0.36,-0.42 0.276,-0.252 0.6,-0.444 0.324,-0.192 0.636,-0.3 0.312,-0.108 0.552,-0.108 0.432,0 0.708,0.312 0.288,0.3 0.276,0.756 l -0.06,2.88 q -0.012,0.252 0.108,0.408 0.132,0.156 0.324,0.156 0.3,0 0.444,-0.132 0.06,-0.06 0.096,-0.06 0.06,0 0.096,0.036 0.036,0.036 0.036,0.096 0,0.132 -0.132,0.264 -0.192,0.192 -0.42,0.3 -0.216,0.12 -0.408,0.12 -0.552,0 -0.876,-0.624 h -0.036 q -0.396,0.324 -0.756,0.468 -0.36,0.156 -0.744,0.156 z m 0.564,-0.576 q 0.24,0 0.408,-0.072 0.168,-0.084 0.3,-0.216 0.06,-0.06 0.096,-0.156 0.048,-0.108 0.06,-0.336 l 0.024,-0.588 q 0.012,-0.132 -0.012,-0.192 -0.024,-0.06 -0.096,-0.06 -0.024,0 -0.084,0.012 -0.06,0.012 -0.156,0.048 -0.636,0.228 -0.888,0.48 -0.24,0.24 -0.24,0.444 0,0.312 0.18,0.48 0.192,0.156 0.408,0.156 z"
       style="font-family:'EB Garamond';-inkscape-font-specification:'EB Garamond'"
       id="path1649" />
    <path
       d="m 88.791622,32.88947 q -0.6,0 -1.092,-0.3 -0.48,-0.312 -0.768,-0.84 -0.276,-0.54 -0.276,-1.2 0,-0.78 0.336,-1.416 0.348,-0.636 0.924,-1.008 0.576,-0.384 1.272,-0.384 0.78,0 1.368,0.42 0.144,0.108 0.144,0.228 0,0.096 -0.084,0.216 -0.084,0.12 -0.204,0.204 -0.12,0.072 -0.228,0.072 -0.06,0 -0.12,-0.036 -0.06,-0.048 -0.132,-0.096 -0.264,-0.204 -0.588,-0.384 -0.324,-0.18 -0.54,-0.18 -0.588,0 -0.96,0.552 -0.36,0.54 -0.36,1.428 0,0.564 0.24,1.02 0.252,0.456 0.66,0.72 0.42,0.264 0.924,0.264 0.348,0 0.6,-0.108 0.252,-0.12 0.54,-0.408 0.024,-0.024 0.06,-0.036 0.036,-0.024 0.06,-0.024 0.132,0 0.132,0.168 0,0.072 -0.048,0.168 -0.036,0.084 -0.132,0.204 -0.192,0.24 -0.456,0.42 -0.264,0.168 -0.588,0.252 -0.312,0.084 -0.684,0.084 z"
       style="font-family:'EB Garamond';-inkscape-font-specification:'EB Garamond'"
       id="path1651" />
    <path
       d="m 92.327122,32.87747 q -0.216,0 -0.444,-0.168 -0.216,-0.168 -0.372,-0.408 -0.144,-0.24 -0.144,-0.456 0,-0.384 0.204,-0.6 0.204,-0.216 0.648,-0.396 l 1.224,-0.504 q 0.24,-0.096 0.276,-0.168 0.048,-0.072 0.06,-0.312 l 0.024,-0.768 q 0.012,-0.312 -0.18,-0.54 -0.18,-0.228 -0.528,-0.228 -0.18,0 -0.36,0.06 -0.18,0.06 -0.3,0.156 -0.072,0.048 -0.096,0.144 -0.024,0.096 -0.024,0.204 0,0.048 0,0.108 0.012,0.06 0.012,0.108 0,0.06 -0.156,0.168 -0.144,0.096 -0.336,0.18 -0.18,0.072 -0.3,0.072 -0.06,0 -0.096,-0.024 -0.036,-0.036 -0.036,-0.084 0,-0.192 0.12,-0.408 0.132,-0.228 0.36,-0.42 0.276,-0.252 0.6,-0.444 0.324,-0.192 0.636,-0.3 0.312,-0.108 0.552,-0.108 0.432,0 0.708,0.312 0.288,0.3 0.276,0.756 l -0.06,2.88 q -0.012,0.252 0.108,0.408 0.132,0.156 0.324,0.156 0.3,0 0.444,-0.132 0.06,-0.06 0.096,-0.06 0.06,0 0.096,0.036 0.036,0.036 0.036,0.096 0,0.132 -0.132,0.264 -0.192,0.192 -0.42,0.3 -0.216,0.12 -0.408,0.12 -0.552,0 -0.876,-0.624 h -0.036 q -0.396,0.324 -0.756,0.468 -0.36,0.156 -0.744,0.156 z m 0.564,-0.576 q 0.24,0 0.408,-0.072 0.168,-0.084 0.3,-0.216 0.06,-0.06 0.096,-0.156 0.048,-0.108 0.06,-0.336 l 0.024,-0.588 q 0.012,-0.132 -0.012,-0.192 -0.024,-0.06 -0.096,-0.06 -0.024,0 -0.084,0.012 -0.06,0.012 -0.156,0.048 -0.636,0.228 -0.888,0.48 -0.24,0.24 -0.24,0.444 0,0.312 0.18,0.48 0.192,0.156 0.408,0.156 z"
       style="font-family:'EB Garamond';-inkscape-font-specification:'EB Garamond'"
       id="path1653" />
    <path
       d="m 96.184372,36.12947 q -0.06,0 -0.156,-0.024 -0.096,-0.012 -0.096,-0.084 0,-0.096 0.084,-0.144 0.096,-0.036 0.192,-0.072 0.18,-0.06 0.348,-0.144 0.168,-0.072 0.168,-0.312 v -6.084 q 0,-0.096 -0.06,-0.288 -0.048,-0.192 -0.168,-0.372 -0.12,-0.18 -0.324,-0.216 -0.048,-0.012 -0.072,-0.06 -0.024,-0.048 -0.024,-0.096 0,-0.06 0.024,-0.096 0.024,-0.036 0.06,-0.048 0.456,-0.108 0.78,-0.228 0.324,-0.132 0.612,-0.252 0.012,0 0.012,0 0,-0.012 0.012,-0.012 0.024,0 0.048,0.036 0.024,0.036 0.024,0.072 0,0.108 -0.036,0.348 -0.024,0.228 -0.024,0.372 0,0.096 0.012,0.108 0.12,-0.12 0.432,-0.3 0.324,-0.192 0.732,-0.336 0.408,-0.156 0.78,-0.156 0.623998,0 1.055998,0.336 0.444,0.324 0.672,0.852 0.24,0.516 0.24,1.08 0,0.54 -0.204,1.056 -0.204,0.504 -0.576,0.912 -0.372,0.408 -0.863998,0.66 -0.492,0.24 -1.056,0.24 -0.168,0 -0.408,-0.06 -0.228,-0.048 -0.456,-0.132 -0.216,-0.084 -0.336,-0.192 -0.012,0 -0.024,0.144 -0.012,0.132 -0.024,0.276 0,0.156 0,0.192 v 2.244 q 0,0.156 0.12,0.24 0.132,0.096 0.288,0.132 0.168,0.048 0.288,0.084 0.096,0.036 0.18,0.072 0.096,0.048 0.096,0.144 0,0.072 -0.096,0.084 -0.096,0.024 -0.168,0.024 -0.348,0 -0.588,-0.036 -0.228,-0.024 -0.54,-0.024 -0.204,0 -0.336,0.012 -0.12,0.012 -0.252,0.024 -0.132,0.024 -0.372,0.024 z m 2.808,-3.624 q 0.18,0 0.432,-0.108 0.264,-0.108 0.516,-0.348 0.263998,-0.24 0.431998,-0.648 0.18,-0.408 0.18,-1.008 0,-0.696 -0.18,-1.116 -0.18,-0.42 -0.443998,-0.636 -0.264,-0.216 -0.54,-0.288 -0.276,-0.072 -0.468,-0.072 -0.288,0 -0.6,0.12 -0.3,0.12 -0.516,0.276 -0.204,0.144 -0.204,0.228 0,0.264 -0.012,0.54 0,0.264 -0.012,0.516 0,0.252 -0.012,0.456 0,0.192 0,0.3 0,0.48 0.216,0.888 0.228,0.408 0.552,0.66 0.336,0.24 0.66,0.24 z"
       style="font-family:'EB Garamond';-inkscape-font-specification:'EB Garamond'"
       id="path1655" />
    <path
       d="m 103.10837,32.87747 q -0.216,0 -0.444,-0.168 -0.216,-0.168 -0.372,-0.408 -0.144,-0.24 -0.144,-0.456 0,-0.384 0.204,-0.6 0.204,-0.216 0.648,-0.396 l 1.224,-0.504 q 0.24,-0.096 0.276,-0.168 0.048,-0.072 0.06,-0.312 l 0.024,-0.768 q 0.012,-0.312 -0.18,-0.54 -0.18,-0.228 -0.528,-0.228 -0.18,0 -0.36,0.06 -0.18,0.06 -0.3,0.156 -0.072,0.048 -0.096,0.144 -0.024,0.096 -0.024,0.204 0,0.048 0,0.108 0.012,0.06 0.012,0.108 0,0.06 -0.156,0.168 -0.144,0.096 -0.336,0.18 -0.18,0.072 -0.3,0.072 -0.06,0 -0.096,-0.024 -0.036,-0.036 -0.036,-0.084 0,-0.192 0.12,-0.408 0.132,-0.228 0.36,-0.42 0.276,-0.252 0.6,-0.444 0.324,-0.192 0.636,-0.3 0.312,-0.108 0.552,-0.108 0.432,0 0.708,0.312 0.288,0.3 0.276,0.756 l -0.06,2.88 q -0.012,0.252 0.108,0.408 0.132,0.156 0.324,0.156 0.3,0 0.444,-0.132 0.06,-0.06 0.096,-0.06 0.06,0 0.096,0.036 0.036,0.036 0.036,0.096 0,0.132 -0.132,0.264 -0.192,0.192 -0.42,0.3 -0.216,0.12 -0.408,0.12 -0.552,0 -0.876,-0.624 h -0.036 q -0.396,0.324 -0.756,0.468 -0.36,0.156 -0.744,0.156 z m 0.564,-0.576 q 0.24,0 0.408,-0.072 0.168,-0.084 0.3,-0.216 0.06,-0.06 0.096,-0.156 0.048,-0.108 0.06,-0.336 l 0.024,-0.588 q 0.012,-0.132 -0.012,-0.192 -0.024,-0.06 -0.096,-0.06 -0.024,0 -0.084,0.012 -0.06,0.012 -0.156,0.048 -0.636,0.228 -0.888,0.48 -0.24,0.24 -0.24,0.444 0,0.312 0.18,0.48 0.192,0.156 0.408,0.156 z"
       style="font-family:'EB Garamond';-inkscape-font-specification:'EB Garamond'"
       id="path1657" />
    <path
       d="m 113.16025,32.93747 q -0.024,0 -0.084,-0.048 -0.048,-0.048 -0.048,-0.072 0,-0.12 0.024,-0.336 0.036,-0.228 0.036,-0.384 v -0.072 q -0.18,0.276 -0.576,0.564 -0.396,0.288 -0.996,0.288 -0.684,0 -1.188,-0.36 -0.492,-0.36 -0.768,-0.924 -0.264,-0.564 -0.264,-1.164 0,-0.696 0.324,-1.308 0.324,-0.612 0.924,-0.996 0.612,-0.384 1.452,-0.384 0.24,0 0.48,0.048 0.252,0.036 0.384,0.084 0.108,0.036 0.156,0.036 0.084,0 0.084,-0.288 v -1.704 q 0,-0.492 -0.156,-0.66 -0.156,-0.168 -0.444,-0.216 -0.108,-0.024 -0.108,-0.156 0,-0.108 0.096,-0.144 0.528,-0.132 0.828,-0.252 0.3,-0.12 0.468,-0.192 0.048,-0.024 0.084,-0.024 0.048,-0.012 0.072,-0.012 0.072,0 0.084,0.072 0,0.072 -0.024,0.252 -0.012,0.168 -0.036,0.504 -0.024,0.336 -0.024,0.876 v 5.424 q 0,0.408 0.06,0.6 0.06,0.18 0.192,0.18 0.06,0 0.204,-0.012 0.156,-0.012 0.312,-0.024 0.216,-0.012 0.216,0.108 0,0.084 -0.06,0.156 -0.048,0.06 -0.108,0.06 -0.336,0.048 -0.66,0.144 -0.324,0.084 -0.744,0.264 -0.096,0.048 -0.132,0.06 -0.024,0.012 -0.06,0.012 z m -1.212,-0.684 q 0.312,0 0.612,-0.156 0.3,-0.168 0.528,-0.432 l 0.012,-2.16 q 0,-0.324 -0.192,-0.636 -0.18,-0.312 -0.516,-0.504 -0.324,-0.204 -0.768,-0.204 -0.276,0 -0.624,0.168 -0.348,0.168 -0.6,0.6 -0.252,0.42 -0.252,1.224 0,0.684 0.204,1.104 0.204,0.408 0.492,0.624 0.3,0.216 0.6,0.3 0.312,0.072 0.504,0.072 z"
       style="font-family:'EB Garamond';-inkscape-font-specification:'EB Garamond'"
       id="path1659" />
    <path
       d="m 117.50256,32.88947 q -0.66,0 -1.152,-0.324 -0.492,-0.324 -0.768,-0.912 -0.276,-0.6 -0.276,-1.38 0,-0.696 0.312,-1.26 0.324,-0.576 0.852,-0.924 0.528,-0.348 1.152,-0.348 0.48,0 0.852,0.192 0.372,0.192 0.576,0.54 0.216,0.336 0.216,0.78 0,0.372 -0.36,0.372 h -2.532 q -0.168,0 -0.24,0.096 -0.06,0.084 -0.06,0.348 0,0.576 0.252,1.056 0.252,0.468 0.672,0.756 0.42,0.276 0.924,0.276 0.36,0 0.648,-0.132 0.3,-0.144 0.528,-0.408 0.048,-0.06 0.072,-0.072 0.024,-0.024 0.06,-0.024 0.096,0 0.096,0.12 0,0.228 -0.216,0.504 -0.18,0.228 -0.432,0.396 -0.252,0.168 -0.552,0.252 -0.3,0.096 -0.624,0.096 z m -1.104,-3.636 h 1.092 q 0.288,0 0.492,-0.012 0.204,-0.012 0.396,-0.048 0.06,-0.012 0.072,-0.072 0.024,-0.072 0.024,-0.192 0,-0.348 -0.312,-0.588 -0.3,-0.252 -0.72,-0.252 -0.276,0 -0.552,0.168 -0.276,0.156 -0.456,0.396 -0.18,0.24 -0.18,0.48 0,0.12 0.144,0.12 z"
       style="font-family:'EB Garamond';-inkscape-font-specification:'EB Garamond'"
       id="path1661" />
    <path
       d="m 124.59268,32.96147 q -0.048,0 -0.12,-0.192 -0.072,-0.18 -0.096,-0.264 -0.084,-0.204 -0.156,-0.42 -0.072,-0.228 -0.144,-0.42 -0.264,-0.744 -0.576,-1.452 -0.3,-0.72 -0.588,-1.452 -0.084,-0.216 -0.264,-0.384 -0.168,-0.18 -0.348,-0.228 -0.096,-0.036 -0.156,-0.072 -0.06,-0.036 -0.06,-0.12 0,-0.072 0.084,-0.084 0.096,-0.024 0.156,-0.024 0.24,0 0.348,0.012 0.108,0.012 0.216,0.036 0.108,0.012 0.312,0.012 0.216,0 0.324,-0.012 0.108,-0.024 0.228,-0.036 0.12,-0.012 0.348,-0.012 0.06,0 0.144,0.024 0.096,0.012 0.096,0.084 0,0.084 -0.084,0.132 -0.084,0.048 -0.192,0.084 -0.12,0.048 -0.18,0.192 -0.06,0.132 -0.06,0.3 0,0.084 0.012,0.168 0.012,0.084 0.036,0.156 l 0.948,2.52 q 0.012,0.012 0.012,0.012 0.012,0 0.024,-0.012 l 0.912,-2.34 q 0.048,-0.12 0.072,-0.252 0.024,-0.144 0.024,-0.24 0,-0.24 -0.072,-0.336 -0.072,-0.108 -0.24,-0.168 -0.156,-0.06 -0.216,-0.096 -0.06,-0.036 -0.06,-0.12 0,-0.072 0.072,-0.084 0.084,-0.024 0.168,-0.024 0.132,0 0.348,0.036 0.216,0.024 0.528,0.024 0.312,0 0.42,-0.024 0.12,-0.036 0.288,-0.036 0.096,0 0.168,0.024 0.072,0.012 0.072,0.084 0,0.132 -0.276,0.216 -0.18,0.048 -0.396,0.276 -0.216,0.228 -0.348,0.528 l -0.936,2.256 q -0.024,0.048 -0.096,0.24 -0.072,0.18 -0.156,0.408 -0.084,0.216 -0.144,0.384 -0.06,0.156 -0.06,0.156 0,0 -0.048,0.12 -0.048,0.108 -0.108,0.228 -0.06,0.132 -0.108,0.192 z"
       style="font-family:'EB Garamond';-inkscape-font-specification:'EB Garamond'"
       id="path1663" />
    <path
       d="m 128.49118,32.87747 q -0.216,0 -0.444,-0.168 -0.216,-0.168 -0.372,-0.408 -0.144,-0.24 -0.144,-0.456 0,-0.384 0.204,-0.6 0.204,-0.216 0.648,-0.396 l 1.224,-0.504 q 0.24,-0.096 0.276,-0.168 0.048,-0.072 0.06,-0.312 l 0.024,-0.768 q 0.012,-0.312 -0.18,-0.54 -0.18,-0.228 -0.528,-0.228 -0.18,0 -0.36,0.06 -0.18,0.06 -0.3,0.156 -0.072,0.048 -0.096,0.144 -0.024,0.096 -0.024,0.204 0,0.048 0,0.108 0.012,0.06 0.012,0.108 0,0.06 -0.156,0.168 -0.144,0.096 -0.336,0.18 -0.18,0.072 -0.3,0.072 -0.06,0 -0.096,-0.024 -0.036,-0.036 -0.036,-0.084 0,-0.192 0.12,-0.408 0.132,-0.228 0.36,-0.42 0.276,-0.252 0.6,-0.444 0.324,-0.192 0.636,-0.3 0.312,-0.108 0.552,-0.108 0.432,0 0.708,0.312 0.288,0.3 0.276,0.756 l -0.06,2.88 q -0.012,0.252 0.108,0.408 0.132,0.156 0.324,0.156 0.3,0 0.444,-0.132 0.06,-0.06 0.096,-0.06 0.06,0 0.096,0.036 0.036,0.036 0.036,0.096 0,0.132 -0.132,0.264 -0.192,0.192 -0.42,0.3 -0.216,0.12 -0.408,0.12 -0.552,0 -0.876,-0.624 h -0.036 q -0.396,0.324 -0.756,0.468 -0.36,0.156 -0.744,0.156 z m 0.564,-0.576 q 0.24,0 0.408,-0.072 0.168,-0.084 0.3,-0.216 0.06,-0.06 0.096,-0.156 0.048,-0.108 0.06,-0.336 l 0.024,-0.588 q 0.012,-0.132 -0.012,-0.192 -0.024,-0.06 -0.096,-0.06 -0.024,0 -0.084,0.012 -0.06,0.012 -0.156,0.048 -0.636,0.228 -0.888,0.48 -0.24,0.24 -0.24,0.444 0,0.312 0.18,0.48 0.192,0.156 0.408,0.156 z"
       style="font-family:'EB Garamond';-inkscape-font-specification:'EB Garamond'"
       id="path1665" />
    <path
       d="m 132.34843,36.12947 q -0.06,0 -0.156,-0.024 -0.096,-0.012 -0.096,-0.084 0,-0.096 0.084,-0.144 0.096,-0.036 0.192,-0.072 0.18,-0.06 0.348,-0.144 0.168,-0.072 0.168,-0.312 v -6.084 q 0,-0.096 -0.06,-0.288 -0.048,-0.192 -0.168,-0.372 -0.12,-0.18 -0.324,-0.216 -0.048,-0.012 -0.072,-0.06 -0.024,-0.048 -0.024,-0.096 0,-0.06 0.024,-0.096 0.024,-0.036 0.06,-0.048 0.456,-0.108 0.78,-0.228 0.324,-0.132 0.612,-0.252 0.012,0 0.012,0 0,-0.012 0.012,-0.012 0.024,0 0.048,0.036 0.024,0.036 0.024,0.072 0,0.108 -0.036,0.348 -0.024,0.228 -0.024,0.372 0,0.096 0.012,0.108 0.12,-0.12 0.432,-0.3 0.324,-0.192 0.732,-0.336 0.408,-0.156 0.78,-0.156 0.624,0 1.056,0.336 0.444,0.324 0.672,0.852 0.24,0.516 0.24,1.08 0,0.54 -0.204,1.056 -0.204,0.504 -0.576,0.912 -0.372,0.408 -0.864,0.66 -0.492,0.24 -1.056,0.24 -0.168,0 -0.408,-0.06 -0.228,-0.048 -0.456,-0.132 -0.216,-0.084 -0.336,-0.192 -0.012,0 -0.024,0.144 -0.012,0.132 -0.024,0.276 0,0.156 0,0.192 v 2.244 q 0,0.156 0.12,0.24 0.132,0.096 0.288,0.132 0.168,0.048 0.288,0.084 0.096,0.036 0.18,0.072 0.096,0.048 0.096,0.144 0,0.072 -0.096,0.084 -0.096,0.024 -0.168,0.024 -0.348,0 -0.588,-0.036 -0.228,-0.024 -0.54,-0.024 -0.204,0 -0.336,0.012 -0.12,0.012 -0.252,0.024 -0.132,0.024 -0.372,0.024 z m 2.808,-3.624 q 0.18,0 0.432,-0.108 0.264,-0.108 0.516,-0.348 0.264,-0.24 0.432,-0.648 0.18,-0.408 0.18,-1.008 0,-0.696 -0.18,-1.116 -0.18,-0.42 -0.444,-0.636 -0.264,-0.216 -0.54,-0.288 -0.276,-0.072 -0.468,-0.072 -0.288,0 -0.6,0.12 -0.3,0.12 -0.516,0.276 -0.204,0.144 -0.204,0.228 0,0.264 -0.012,0.54 0,0.264 -0.012,0.516 0,0.252 -0.012,0.456 0,0.192 0,0.3 0,0.48 0.216,0.888 0.228,0.408 0.552,0.66 0.336,0.24 0.66,0.24 z"
       style="font-family:'EB Garamond';-inkscape-font-specification:'EB Garamond'"
       id="path1667" />
    <path
       d="m 140.91081,32.87747 q -0.672,0 -1.212,-0.312 -0.54,-0.312 -0.864,-0.852 -0.312,-0.552 -0.312,-1.248 0,-0.504 0.192,-0.984 0.204,-0.48 0.564,-0.876 0.36,-0.396 0.84,-0.624 0.48,-0.24 1.032,-0.24 0.696,0 1.248,0.336 0.564,0.336 0.888,0.888 0.336,0.54 0.336,1.188 0,0.696 -0.312,1.32 -0.3,0.624 -0.9,1.02 -0.6,0.384 -1.5,0.384 z m 0.252,-0.36 q 0.408,0 0.732,-0.156 0.324,-0.156 0.504,-0.504 0.144,-0.276 0.192,-0.672 0.048,-0.396 0.048,-0.744 0,-0.576 -0.216,-1.104 -0.204,-0.54 -0.588,-0.876 -0.372,-0.348 -0.888,-0.348 -0.324,0 -0.588,0.108 -0.252,0.096 -0.468,0.372 -0.24,0.3 -0.312,0.732 -0.072,0.432 -0.072,0.864 0,0.588 0.216,1.128 0.216,0.528 0.588,0.864 0.372,0.336 0.852,0.336 z"
       style="font-family:'EB Garamond';-inkscape-font-specification:'EB Garamond'"
       id="path1669" />
    <path
       d="m 144.6205,32.74547 q -0.12,0 -0.18,-0.036 -0.06,-0.024 -0.06,-0.096 0,-0.096 0.072,-0.12 0.072,-0.036 0.204,-0.072 0.228,-0.06 0.336,-0.168 0.12,-0.12 0.12,-0.288 v -2.58 q 0,-0.324 -0.096,-0.564 -0.096,-0.24 -0.396,-0.3 -0.048,-0.012 -0.084,-0.06 -0.036,-0.048 -0.036,-0.096 0,-0.12 0.108,-0.144 0.312,-0.096 0.648,-0.276 0.348,-0.192 0.54,-0.312 0.072,-0.048 0.108,-0.06 0.048,-0.024 0.072,-0.024 0.06,0 0.06,0.084 0,0.036 -0.012,0.18 0,0.144 -0.012,0.336 0,0.192 -0.012,0.384 0,0.024 0.024,0.024 0.192,-0.24 0.42,-0.42 0.24,-0.18 0.48,-0.288 0.252,-0.108 0.48,-0.108 0.252,0 0.408,0.108 0.168,0.108 0.168,0.276 0,0.12 -0.072,0.264 -0.06,0.144 -0.168,0.252 -0.108,0.108 -0.228,0.108 -0.072,0 -0.156,-0.024 -0.084,-0.036 -0.18,-0.084 -0.096,-0.036 -0.192,-0.072 -0.096,-0.036 -0.192,-0.036 -0.288,0 -0.564,0.204 -0.264,0.204 -0.264,0.804 v 2.424 q 0,0.156 0.168,0.264 0.168,0.096 0.468,0.192 0.132,0.036 0.204,0.072 0.072,0.036 0.072,0.12 0,0.132 -0.24,0.132 -0.36,0 -0.552,-0.036 -0.18,-0.024 -0.492,-0.024 -0.204,0 -0.336,0.012 -0.12,0.012 -0.264,0.024 -0.132,0.024 -0.372,0.024 z"
       style="font-family:'EB Garamond';-inkscape-font-specification:'EB Garamond'"
       id="path1671" />
  </g>
  <metadata
     id="metadata28">
    <rdf:RDF>
      <cc:Work
         rdf:about="">
        <dc:format>image/svg+xml</dc:format>
        <dc:type
           rdf:resource="http://purl.org/dc/dcmitype/StillImage" />
      </cc:Work>
    </rdf:RDF>
  </metadata>
  <defs
     id="defs4">
    <linearGradient
       id="linearGradient649">
      <stop
         style="stop-color: rgb(255, 194, 143); stop-opacity: 1;"
         offset="0"
         id="stop650" />
      <stop
         style="stop-color: rgb(198, 47, 55); stop-opacity: 1;"
         offset="1"
         id="stop651" />
    </linearGradient>
    <linearGradient
       id="linearGradient609">
      <stop
         style="stop-color: rgb(255, 255, 255); stop-opacity: 1;"
         offset="0"
         id="stop610" />
      <stop
         style="stop-color: rgb(198, 255, 255); stop-opacity: 1;"
         offset="1"
         id="stop611" />
    </linearGradient>
    <radialGradient
       xlink:href="#linearGradient609"
       id="radialGradient612"
       cx="85.123443"
       cy="78.041439"
       r="60.065454"
       fx="85.123443"
       fy="78.041439"
       spreadMethod="reflect"
       gradientTransform="matrix(1.422074,0,0,0.70319828,0,-9.0612765)"
       gradientUnits="userSpaceOnUse" />
    <linearGradient
       xlink:href="#linearGradient649"
       id="linearGradient648"
       x1="37.818904"
       y1="325.31238"
       x2="37.818904"
       y2="400.53576"
       gradientUnits="userSpaceOnUse"
       gradientTransform="matrix(2.6394444,0,0,0.37886762,0,-9.0612765)" />
  </defs>
  <sodipodi:namedview
     id="base"
     showgrid="false"
     inkscape:zoom="0.83928571"
     inkscape:cx="253.78724"
     inkscape:cy="246.6383"
     inkscape:window-width="1280"
     inkscape:window-height="800"
     inkscape:window-x="1920"
     inkscape:window-y="213"
     inkscape:window-maximized="0"
     inkscape:current-layer="svg2"
     pagecolor="#ffffff"
     bordercolor="#666666"
     borderopacity="1.0"
     inkscape:pageshadow="2"
     inkscape:pageopacity="0.0"
     inkscape:pagecheckerboard="0"
     fit-margin-top="0"
     fit-margin-left="0"
     fit-margin-right="0"
     fit-margin-bottom="0" />
  <rect
     style="fill:url(#linearGradient648);fill-opacity:1;fill-rule:evenodd;stroke-width:1"
     id="rect647"
     width="209"
     height="30"
     x="0"
     y="114.93872" />
  <path
     style="opacity:1;fill:url(#radialGradient612);fill-opacity:1;fill-rule:evenodd;stroke:#007f7f;stroke-width:1.25;stroke-linecap:round;stroke-linejoin:round;stroke-dasharray:none;stroke-opacity:1"
     d="m 15.83855,83.994744 c 3.78943,-38.39232 50.28682,-53.43907 75.74958,-53.71336 26.87187,-0.28576 75.40277,15.0619 80.22567,54.05767 1.1576,10.07977 -8.9656,24.040266 -17.2158,22.380566 -20.2375,-4.4154 -40.6238,-5.2899 -60.94396,-5.5091 -37.29431,-0.058 -44.9379,2.2767 -62.32126,5.1648 -7.92603,1.4452 -16.47941,-12.743596 -15.49423,-22.380576 z"
     id="path607"
     sodipodi:nodetypes="cssssss" />
  <g
     aria-label="0.2 mm "
     id="text634"
     style="line-height:0%;font-family:Arial;-inkscape-font-specification:Arial;text-align:center;text-anchor:middle"
     transform="translate(0,-9.0612765)">
    <path
       d="m 78.830968,121.458 q -0.612,0 -1.068,-0.336 -0.444,-0.336 -0.744,-0.888 -0.3,-0.564 -0.444,-1.236 -0.144,-0.672 -0.144,-1.332 0,-0.684 0.144,-1.38 0.144,-0.696 0.444,-1.272 0.312,-0.576 0.792,-0.924 0.48,-0.36 1.14,-0.36 0.612,0 1.056,0.336 0.456,0.336 0.756,0.9 0.3,0.552 0.444,1.224 0.144,0.66 0.144,1.308 0,0.672 -0.144,1.368 -0.144,0.696 -0.456,1.284 -0.3,0.588 -0.78,0.948 -0.468,0.36 -1.14,0.36 z m 0.204,-0.312 q 0.48,0 0.768,-0.48 0.3,-0.492 0.432,-1.272 0.132,-0.78 0.132,-1.68 0,-0.672 -0.108,-1.32 -0.096,-0.648 -0.312,-1.176 -0.204,-0.528 -0.516,-0.84 -0.3,-0.312 -0.708,-0.312 -0.48,0 -0.768,0.468 -0.276,0.468 -0.408,1.248 -0.12,0.768 -0.12,1.668 0,0.672 0.096,1.332 0.108,0.66 0.3,1.2 0.204,0.528 0.504,0.852 0.3,0.312 0.708,0.312 z"
       style="font-size:12px;line-height:1;font-family:'EB Garamond';-inkscape-font-specification:'EB Garamond'"
       id="path196" />
    <path
       d="m 83.036593,121.458 q -0.264,0 -0.468,-0.192 -0.192,-0.204 -0.192,-0.468 0,-0.276 0.192,-0.468 0.204,-0.192 0.468,-0.192 0.276,0 0.468,0.192 0.192,0.192 0.192,0.468 0,0.264 -0.192,0.468 -0.192,0.192 -0.468,0.192 z"
       style="font-size:12px;line-height:1;font-family:'EB Garamond';-inkscape-font-specification:'EB Garamond'"
       id="path198" />
    <path
       d="m 89.450218,121.326 q -0.084,0 -0.264,-0.012 -0.18,-0.012 -0.408,-0.024 -0.228,-0.012 -0.48,-0.024 -0.24,-0.012 -0.468,-0.012 -0.228,0 -0.648,0.012 -0.42,0.012 -0.888,0.024 -0.456,0 -0.804,0.012 -0.348,0.012 -0.444,0.012 -0.048,0 -0.144,-0.072 -0.096,-0.084 -0.096,-0.132 0,-0.06 0.024,-0.084 0.024,-0.024 0.072,-0.072 l 2.052,-2.124 q 0.6,-0.624 0.996,-1.392 0.396,-0.78 0.396,-1.572 0,-0.636 -0.384,-0.996 -0.384,-0.372 -0.9,-0.372 -0.492,0 -0.912,0.276 -0.42,0.264 -0.672,0.696 -0.036,0.072 -0.096,0.12 -0.048,0.048 -0.108,0.048 -0.048,0 -0.12,-0.096 -0.06,-0.108 -0.06,-0.264 0,-0.144 0.168,-0.396 0.18,-0.252 0.492,-0.516 0.312,-0.264 0.744,-0.444 0.432,-0.192 0.936,-0.192 0.6,0 1.032,0.252 0.432,0.252 0.66,0.696 0.228,0.444 0.228,1.032 0,0.324 -0.12,0.696 -0.108,0.372 -0.312,0.732 -0.192,0.36 -0.444,0.672 -0.156,0.192 -0.468,0.516 -0.3,0.312 -0.66,0.672 -0.348,0.36 -0.672,0.684 -0.312,0.312 -0.516,0.528 -0.204,0.204 -0.204,0.228 0,0.06 0.168,0.084 0.204,0.012 0.456,0.024 0.264,0.012 0.6,0.012 0.348,0 0.696,-0.012 0.348,-0.012 0.672,-0.024 0.348,-0.024 0.54,-0.06 0.192,-0.036 0.324,-0.144 0.132,-0.12 0.276,-0.36 0.048,-0.072 0.12,-0.168 0.084,-0.108 0.18,-0.108 0.06,0 0.072,0.048 0.012,0.048 0.012,0.096 0,0.06 -0.072,0.24 -0.06,0.168 -0.144,0.42 -0.084,0.252 -0.144,0.552 -0.036,0.192 -0.12,0.24 -0.084,0.048 -0.144,0.048 z"
       style="font-size:12px;line-height:1;font-family:'EB Garamond';-inkscape-font-specification:'EB Garamond'"
       id="path200" />
    <path
       d="m 93.106468,121.326 q -0.096,0 -0.168,-0.024 -0.072,-0.024 -0.072,-0.108 0,-0.084 0.072,-0.12 0.084,-0.036 0.204,-0.072 0.168,-0.06 0.336,-0.132 0.18,-0.084 0.18,-0.324 v -2.58 q 0,-0.324 -0.072,-0.564 -0.072,-0.252 -0.384,-0.3 -0.048,-0.012 -0.084,-0.048 -0.024,-0.036 -0.024,-0.108 0,-0.12 0.096,-0.144 0.324,-0.084 0.516,-0.168 0.192,-0.096 0.336,-0.204 0.156,-0.12 0.372,-0.252 0.024,-0.012 0.048,-0.024 0.024,-0.024 0.06,-0.024 0.072,0 0.072,0.084 0,0.084 -0.036,0.348 -0.024,0.252 -0.024,0.42 0,0.12 0.024,0.144 h 0.024 q 0.276,-0.264 0.72,-0.528 0.456,-0.276 1.152,-0.276 0.432,0 0.72,0.192 0.288,0.18 0.48,0.636 h 0.036 q 0.384,-0.348 0.876,-0.588 0.492,-0.24 1.08,-0.24 0.396002,0 0.660002,0.24 0.264,0.24 0.396,0.624 0.144,0.384 0.144,0.804 v 2.556 q 0,0.24 0.168,0.324 0.168,0.072 0.348,0.132 0.12,0.036 0.192,0.072 0.084,0.036 0.084,0.12 0,0.072 -0.06,0.096 -0.048,0.036 -0.18,0.036 -0.24,0 -0.372,-0.024 -0.132,-0.012 -0.252,-0.024 -0.108,-0.012 -0.324,-0.012 -0.204,0 -0.336,0.012 -0.132002,0.012 -0.276002,0.024 -0.144,0.024 -0.384,0.024 -0.108,0 -0.18,-0.036 -0.06,-0.024 -0.06,-0.096 0,-0.096 0.072,-0.132 0.084,-0.036 0.204,-0.06 0.192,-0.048 0.348,-0.132 0.168002,-0.084 0.168002,-0.324 v -2.52 q 0,-0.288 -0.132002,-0.54 -0.132,-0.264 -0.348,-0.432 -0.216,-0.168 -0.48,-0.168 -0.3,0 -0.564,0.072 -0.252,0.072 -0.48,0.252 -0.336,0.264 -0.336,0.864 v 2.472 q 0,0.24 0.18,0.324 0.18,0.084 0.36,0.132 0.12,0.024 0.192,0.072 0.084,0.036 0.084,0.12 0,0.072 -0.06,0.096 -0.06,0.036 -0.18,0.036 -0.24,0 -0.384,-0.024 -0.132,-0.012 -0.264,-0.024 -0.12,-0.012 -0.336,-0.012 -0.204,0 -0.336,0.012 -0.132,0.012 -0.276,0.024 -0.144,0.024 -0.384,0.024 -0.096,0 -0.168,-0.036 -0.072,-0.024 -0.072,-0.096 0,-0.096 0.084,-0.12 0.096,-0.036 0.192,-0.072 0.18,-0.06 0.348,-0.132 0.18,-0.084 0.18,-0.324 v -2.52 q 0,-0.288 -0.132,-0.54 -0.132,-0.264 -0.348,-0.432 -0.216,-0.168 -0.48,-0.168 -0.3,0 -0.564,0.072 -0.252,0.072 -0.48,0.252 -0.324,0.24 -0.324,0.864 v 2.472 q 0,0.24 0.168,0.324 0.168,0.072 0.348,0.132 0.096,0.036 0.18,0.072 0.096,0.024 0.096,0.12 0,0.072 -0.072,0.096 -0.06,0.036 -0.168,0.036 -0.24,0 -0.384,-0.024 -0.132,-0.012 -0.252,-0.024 -0.12,-0.012 -0.336,-0.012 -0.204,0 -0.336,0.012 -0.12,0.012 -0.264,0.024 -0.132,0.024 -0.372,0.024 z"
       style="font-size:12px;line-height:1;font-family:'EB Garamond';-inkscape-font-specification:'EB Garamond'"
       id="path202" />
    <path
       d="m 102.43459,121.326 q -0.096,0 -0.168,-0.024 -0.072,-0.024 -0.072,-0.108 0,-0.084 0.072,-0.12 0.084,-0.036 0.204,-0.072 0.168,-0.06 0.336,-0.132 0.18,-0.084 0.18,-0.324 v -2.58 q 0,-0.324 -0.072,-0.564 -0.072,-0.252 -0.384,-0.3 -0.048,-0.012 -0.084,-0.048 -0.024,-0.036 -0.024,-0.108 0,-0.12 0.096,-0.144 0.324,-0.084 0.516,-0.168 0.192,-0.096 0.336,-0.204 0.156,-0.12 0.372,-0.252 0.024,-0.012 0.048,-0.024 0.024,-0.024 0.06,-0.024 0.072,0 0.072,0.084 0,0.084 -0.036,0.348 -0.024,0.252 -0.024,0.42 0,0.12 0.024,0.144 h 0.024 q 0.276,-0.264 0.72,-0.528 0.456,-0.276 1.152,-0.276 0.432,0 0.72,0.192 0.288,0.18 0.48,0.636 h 0.036 q 0.384,-0.348 0.876,-0.588 0.492,-0.24 1.08,-0.24 0.396,0 0.66,0.24 0.264,0.24 0.396,0.624 0.144,0.384 0.144,0.804 v 2.556 q 0,0.24 0.168,0.324 0.168,0.072 0.348,0.132 0.12,0.036 0.192,0.072 0.084,0.036 0.084,0.12 0,0.072 -0.06,0.096 -0.048,0.036 -0.18,0.036 -0.24,0 -0.372,-0.024 -0.132,-0.012 -0.252,-0.024 -0.108,-0.012 -0.324,-0.012 -0.204,0 -0.336,0.012 -0.132,0.012 -0.276,0.024 -0.144,0.024 -0.384,0.024 -0.108,0 -0.18,-0.036 -0.06,-0.024 -0.06,-0.096 0,-0.096 0.072,-0.132 0.084,-0.036 0.204,-0.06 0.192,-0.048 0.348,-0.132 0.168,-0.084 0.168,-0.324 v -2.52 q 0,-0.288 -0.132,-0.54 -0.132,-0.264 -0.348,-0.432 -0.216,-0.168 -0.48,-0.168 -0.3,0 -0.564,0.072 -0.252,0.072 -0.48,0.252 -0.336,0.264 -0.336,0.864 v 2.472 q 0,0.24 0.18,0.324 0.18,0.084 0.36,0.132 0.12,0.024 0.192,0.072 0.084,0.036 0.084,0.12 0,0.072 -0.06,0.096 -0.06,0.036 -0.18,0.036 -0.24,0 -0.384,-0.024 -0.132,-0.012 -0.264,-0.024 -0.12,-0.012 -0.336,-0.012 -0.204,0 -0.336,0.012 -0.132,0.012 -0.276,0.024 -0.144,0.024 -0.384,0.024 -0.096,0 -0.168,-0.036 -0.072,-0.024 -0.072,-0.096 0,-0.096 0.084,-0.12 0.096,-0.036 0.192,-0.072 0.18,-0.06 0.348,-0.132 0.18,-0.084 0.18,-0.324 v -2.52 q 0,-0.288 -0.132,-0.54 -0.132,-0.264 -0.348,-0.432 -0.216,-0.168 -0.48,-0.168 -0.3,0 -0.564,0.072 -0.252,0.072 -0.48,0.252 -0.324,0.24 -0.324,0.864 v 2.472 q 0,0.24 0.168,0.324 0.168,0.072 0.348,0.132 0.096,0.036 0.18,0.072 0.096,0.024 0.096,0.12 0,0.072 -0.072,0.096 -0.06,0.036 -0.168,0.036 -0.24,0 -0.384,-0.024 -0.132,-0.012 -0.252,-0.024 -0.12,-0.012 -0.336,-0.012 -0.204,0 -0.336,0.012 -0.12,0.012 -0.264,0.024 -0.132,0.024 -0.372,0.024 z"
       style="font-size:12px;line-height:1;font-family:'EB Garamond';-inkscape-font-specification:'EB Garamond'"
       id="path204" />
  </g>
  <g
     aria-label="0.1 mm"
     id="text637"
     style="line-height:0%;font-family:Arial;-inkscape-font-specification:Arial;text-align:center;text-anchor:middle"
     transform="translate(0,-9.0612765)">
    <path
       d="m 174.21618,121.28211 q -0.612,0 -1.068,-0.336 -0.444,-0.336 -0.744,-0.888 -0.3,-0.564 -0.444,-1.236 -0.144,-0.672 -0.144,-1.332 0,-0.684 0.144,-1.38 0.144,-0.696 0.444,-1.272 0.312,-0.576 0.792,-0.924 0.48,-0.36 1.14,-0.36 0.612,0 1.056,0.336 0.456,0.336 0.756,0.9 0.3,0.552 0.444,1.224 0.144,0.66 0.144,1.308 0,0.672 -0.144,1.368 -0.144,0.696 -0.456,1.284 -0.3,0.588 -0.78,0.948 -0.468,0.36 -1.14,0.36 z m 0.204,-0.312 q 0.48,0 0.768,-0.48 0.3,-0.492 0.432,-1.272 0.132,-0.78 0.132,-1.68 0,-0.672 -0.108,-1.32 -0.096,-0.648 -0.312,-1.176 -0.204,-0.528 -0.516,-0.84 -0.3,-0.312 -0.708,-0.312 -0.48,0 -0.768,0.468 -0.276,0.468 -0.408,1.248 -0.12,0.768 -0.12,1.668 0,0.672 0.096,1.332 0.108,0.66 0.3,1.2 0.204,0.528 0.504,0.852 0.3,0.312 0.708,0.312 z"
       style="font-size:12px;line-height:1;font-family:'EB Garamond';-inkscape-font-specification:'EB Garamond'"
       id="path242" />
    <path
       d="m 178.42181,121.28211 q -0.264,0 -0.468,-0.192 -0.192,-0.204 -0.192,-0.468 0,-0.276 0.192,-0.468 0.204,-0.192 0.468,-0.192 0.276,0 0.468,0.192 0.192,0.192 0.192,0.468 0,0.264 -0.192,0.468 -0.192,0.192 -0.468,0.192 z"
       style="font-size:12px;line-height:1;font-family:'EB Garamond';-inkscape-font-specification:'EB Garamond'"
       id="path244" />
    <path
       d="m 181.09143,121.15011 q -0.084,0 -0.132,-0.048 -0.048,-0.048 -0.048,-0.096 0,-0.108 0.18,-0.156 0.456,-0.12 0.744,-0.216 0.3,-0.108 0.432,-0.288 0.144,-0.192 0.144,-0.54 v -4.584 q 0,-0.228 -0.144,-0.348 -0.144,-0.12 -0.372,-0.168 -0.228,-0.048 -0.492,-0.06 -0.12,-0.012 -0.216,-0.06 -0.096,-0.048 -0.096,-0.144 0,-0.084 0.084,-0.144 0.096,-0.06 0.216,-0.072 0.54,-0.084 0.96,-0.204 0.432,-0.132 0.84,-0.54 0.012,-0.012 0.024,-0.012 0.024,0 0.036,0 0.06,0 0.108,0.036 0.048,0.024 0.036,0.072 -0.024,0.18 -0.036,0.396 -0.012,0.204 -0.012,0.456 v 5.52 q 0,0.3 0.108,0.456 0.12,0.156 0.396,0.252 0.276,0.084 0.768,0.204 0.072,0.012 0.132,0.06 0.072,0.036 0.072,0.096 0,0.132 -0.168,0.132 -0.336,0 -0.624,-0.024 -0.276,-0.012 -0.552,-0.024 -0.264,-0.012 -0.588,-0.012 -0.324,0 -0.612,0.012 -0.288,0.012 -0.576,0.024 -0.288,0.024 -0.612,0.024 z"
       style="font-size:12px;line-height:1;font-family:'EB Garamond';-inkscape-font-specification:'EB Garamond'"
       id="path246" />
    <path
       d="m 188.49168,121.15011 q -0.096,0 -0.168,-0.024 -0.072,-0.024 -0.072,-0.108 0,-0.084 0.072,-0.12 0.084,-0.036 0.204,-0.072 0.168,-0.06 0.336,-0.132 0.18,-0.084 0.18,-0.324 v -2.58 q 0,-0.324 -0.072,-0.564 -0.072,-0.252 -0.384,-0.3 -0.048,-0.012 -0.084,-0.048 -0.024,-0.036 -0.024,-0.108 0,-0.12 0.096,-0.144 0.324,-0.084 0.516,-0.168 0.192,-0.096 0.336,-0.204 0.156,-0.12 0.372,-0.252 0.024,-0.012 0.048,-0.024 0.024,-0.024 0.06,-0.024 0.072,0 0.072,0.084 0,0.084 -0.036,0.348 -0.024,0.252 -0.024,0.42 0,0.12 0.024,0.144 h 0.024 q 0.276,-0.264 0.72,-0.528 0.456,-0.276 1.152,-0.276 0.432,0 0.72,0.192 0.288,0.18 0.48,0.636 h 0.036 q 0.384,-0.348 0.876,-0.588 0.492,-0.24 1.08,-0.24 0.396,0 0.66,0.24 0.264,0.24 0.396,0.624 0.144,0.384 0.144,0.804 v 2.556 q 0,0.24 0.168,0.324 0.168,0.072 0.348,0.132 0.12,0.036 0.192,0.072 0.084,0.036 0.084,0.12 0,0.072 -0.06,0.096 -0.048,0.036 -0.18,0.036 -0.24,0 -0.372,-0.024 -0.132,-0.012 -0.252,-0.024 -0.108,-0.012 -0.324,-0.012 -0.204,0 -0.336,0.012 -0.132,0.012 -0.276,0.024 -0.144,0.024 -0.384,0.024 -0.108,0 -0.18,-0.036 -0.06,-0.024 -0.06,-0.096 0,-0.096 0.072,-0.132 0.084,-0.036 0.204,-0.06 0.192,-0.048 0.348,-0.132 0.168,-0.084 0.168,-0.324 v -2.52 q 0,-0.288 -0.132,-0.54 -0.132,-0.264 -0.348,-0.432 -0.216,-0.168 -0.48,-0.168 -0.3,0 -0.564,0.072 -0.252,0.072 -0.48,0.252 -0.336,0.264 -0.336,0.864 v 2.472 q 0,0.24 0.18,0.324 0.18,0.084 0.36,0.132 0.12,0.024 0.192,0.072 0.084,0.036 0.084,0.12 0,0.072 -0.06,0.096 -0.06,0.036 -0.18,0.036 -0.24,0 -0.384,-0.024 -0.132,-0.012 -0.264,-0.024 -0.12,-0.012 -0.336,-0.012 -0.204,0 -0.336,0.012 -0.132,0.012 -0.276,0.024 -0.144,0.024 -0.384,0.024 -0.096,0 -0.168,-0.036 -0.072,-0.024 -0.072,-0.096 0,-0.096 0.084,-0.12 0.096,-0.036 0.192,-0.072 0.18,-0.06 0.348,-0.132 0.18,-0.084 0.18,-0.324 v -2.52 q 0,-0.288 -0.132,-0.54 -0.132,-0.264 -0.348,-0.432 -0.216,-0.168 -0.48,-0.168 -0.3,0 -0.564,0.072 -0.252,0.072 -0.48,0.252 -0.324,0.24 -0.324,0.864 v 2.472 q 0,0.24 0.168,0.324 0.168,0.072 0.348,0.132 0.096,0.036 0.18,0.072 0.096,0.024 0.096,0.12 0,0.072 -0.072,0.096 -0.06,0.036 -0.168,0.036 -0.24,0 -0.384,-0.024 -0.132,-0.012 -0.252,-0.024 -0.12,-0.012 -0.336,-0.012 -0.204,0 -0.336,0.012 -0.12,0.012 -0.264,0.024 -0.132,0.024 -0.372,0.024 z"
       style="font-size:12px;line-height:1;font-family:'EB Garamond';-inkscape-font-specification:'EB Garamond'"
       id="path248" />
    <path
       d="m 197.81981,121.15011 q -0.096,0 -0.168,-0.024 -0.072,-0.024 -0.072,-0.108 0,-0.084 0.072,-0.12 0.084,-0.036 0.204,-0.072 0.168,-0.06 0.336,-0.132 0.18,-0.084 0.18,-0.324 v -2.58 q 0,-0.324 -0.072,-0.564 -0.072,-0.252 -0.384,-0.3 -0.048,-0.012 -0.084,-0.048 -0.024,-0.036 -0.024,-0.108 0,-0.12 0.096,-0.144 0.324,-0.084 0.516,-0.168 0.192,-0.096 0.336,-0.204 0.156,-0.12 0.372,-0.252 0.024,-0.012 0.048,-0.024 0.024,-0.024 0.06,-0.024 0.072,0 0.072,0.084 0,0.084 -0.036,0.348 -0.024,0.252 -0.024,0.42 0,0.12 0.024,0.144 h 0.024 q 0.276,-0.264 0.72,-0.528 0.456,-0.276 1.152,-0.276 0.432,0 0.72,0.192 0.288,0.18 0.48,0.636 h 0.036 q 0.384,-0.348 0.876,-0.588 0.492,-0.24 1.08,-0.24 0.396,0 0.66,0.24 0.264,0.24 0.396,0.624 0.144,0.384 0.144,0.804 v 2.556 q 0,0.24 0.168,0.324 0.168,0.072 0.348,0.132 0.12,0.036 0.192,0.072 0.084,0.036 0.084,0.12 0,0.072 -0.06,0.096 -0.048,0.036 -0.18,0.036 -0.24,0 -0.372,-0.024 -0.132,-0.012 -0.252,-0.024 -0.108,-0.012 -0.324,-0.012 -0.204,0 -0.336,0.012 -0.132,0.012 -0.276,0.024 -0.144,0.024 -0.384,0.024 -0.108,0 -0.18,-0.036 -0.06,-0.024 -0.06,-0.096 0,-0.096 0.072,-0.132 0.084,-0.036 0.204,-0.06 0.192,-0.048 0.348,-0.132 0.168,-0.084 0.168,-0.324 v -2.52 q 0,-0.288 -0.132,-0.54 -0.132,-0.264 -0.348,-0.432 -0.216,-0.168 -0.48,-0.168 -0.3,0 -0.564,0.072 -0.252,0.072 -0.48,0.252 -0.336,0.264 -0.336,0.864 v 2.472 q 0,0.24 0.18,0.324 0.18,0.084 0.36,0.132 0.12,0.024 0.192,0.072 0.084,0.036 0.084,0.12 0,0.072 -0.06,0.096 -0.06,0.036 -0.18,0.036 -0.24,0 -0.384,-0.024 -0.132,-0.012 -0.264,-0.024 -0.12,-0.012 -0.336,-0.012 -0.204,0 -0.336,0.012 -0.132,0.012 -0.276,0.024 -0.144,0.024 -0.384,0.024 -0.096,0 -0.168,-0.036 -0.072,-0.024 -0.072,-0.096 0,-0.096 0.084,-0.12 0.096,-0.036 0.192,-0.072 0.18,-0.06 0.348,-0.132 0.18,-0.084 0.18,-0.324 v -2.52 q 0,-0.288 -0.132,-0.54 -0.132,-0.264 -0.348,-0.432 -0.216,-0.168 -0.48,-0.168 -0.3,0 -0.564,0.072 -0.252,0.072 -0.48,0.252 -0.324,0.24 -0.324,0.864 v 2.472 q 0,0.24 0.168,0.324 0.168,0.072 0.348,0.132 0.096,0.036 0.18,0.072 0.096,0.024 0.096,0.12 0,0.072 -0.072,0.096 -0.06,0.036 -0.168,0.036 -0.24,0 -0.384,-0.024 -0.132,-0.012 -0.252,-0.024 -0.12,-0.012 -0.336,-0.012 -0.204,0 -0.336,0.012 -0.12,0.012 -0.264,0.024 -0.132,0.024 -0.372,0.024 z"
       style="font-size:12px;line-height:1;font-family:'EB Garamond';-inkscape-font-specification:'EB Garamond'"
       id="path250" />
  </g>
  <g
     aria-label="Superficie caliente"
     id="text644"
     style="line-height:0%;font-family:Arial;-inkscape-font-specification:Arial;text-align:center;text-anchor:middle;fill:#ffffff"
     transform="translate(0,-9.0612765)">
    <path
       d="m 65.518,141.718 q -0.504,0 -0.936,-0.156 -0.42,-0.144 -0.756,-0.42 -0.048,-0.048 -0.096,-0.108 -0.036,-0.06 -0.06,-0.132 -0.06,-0.24 -0.084,-0.624 -0.012,-0.384 -0.036,-0.636 0,-0.084 0.072,-0.12 0.072,-0.048 0.168,-0.048 0.06,0 0.12,0.036 0.06,0.024 0.072,0.096 0.24,0.924 0.708,1.32 0.48,0.396 0.996,0.396 0.42,0 0.744,-0.18 0.324,-0.18 0.504,-0.504 0.192,-0.336 0.192,-0.78 0,-0.492 -0.168,-0.792 -0.156,-0.312 -0.456,-0.54 -0.3,-0.228 -0.732,-0.492 -0.468,-0.3 -0.924,-0.6 -0.456,-0.312 -0.756,-0.708 -0.3,-0.408 -0.3,-0.984 0,-0.612 0.276,-1.104 0.276,-0.492 0.828,-0.78 0.564,-0.3 1.404,-0.3 0.432,0 0.744,0.096 0.324,0.084 0.516,0.168 0.096,0.036 0.156,0.12 0.072,0.084 0.096,0.18 0.072,0.252 0.156,0.576 0.084,0.324 0.084,0.612 0,0.132 -0.18,0.132 -0.108,0 -0.216,-0.048 -0.096,-0.048 -0.12,-0.12 -0.252,-0.636 -0.588,-0.972 -0.336,-0.336 -0.852,-0.336 -0.36,0 -0.672,0.132 -0.312,0.132 -0.516,0.432 -0.192,0.3 -0.192,0.804 0,0.36 0.228,0.66 0.24,0.288 0.624,0.552 0.384,0.264 0.828,0.54 0.42,0.252 0.816,0.552 0.408,0.3 0.66,0.72 0.264,0.408 0.264,1.008 0,0.708 -0.324,1.248 -0.324,0.528 -0.912,0.816 -0.588,0.288 -1.38,0.288 z"
       style="font-size:12px;line-height:1.25;font-family:'EB Garamond';-inkscape-font-specification:'EB Garamond'"
       id="path207" />
    <path
       d="m 73.040125,141.754 q -0.084,0 -0.084,-0.096 0,-0.12 0.024,-0.348 0.036,-0.24 0.036,-0.396 0,-0.024 0,-0.036 0,-0.024 0,-0.036 -0.468,0.456 -0.948,0.66 -0.468,0.192 -1.032,0.192 -0.384,0 -0.696,-0.168 -0.312,-0.156 -0.492,-0.468 -0.18,-0.324 -0.18,-0.792 v -2.436 q 0,-0.264 -0.12,-0.42 -0.12,-0.156 -0.396,-0.264 -0.06,-0.024 -0.108,-0.06 -0.048,-0.036 -0.048,-0.132 0,-0.108 0.048,-0.144 0.06,-0.036 0.132,-0.048 0.408,-0.024 0.624,-0.06 0.228,-0.048 0.564,-0.132 0.036,-0.012 0.048,-0.012 0.024,0 0.048,0 0.132,0 0.12,0.168 -0.036,0.276 -0.06,0.468 -0.012,0.18 -0.012,0.456 v 2.34 q 0,0.288 0.144,0.54 0.144,0.24 0.372,0.396 0.24,0.156 0.492,0.156 0.312,0 0.54,-0.036 0.24,-0.036 0.468,-0.204 0.132,-0.096 0.336,-0.312 0.204,-0.216 0.204,-0.588 v -2.196 q 0,-0.252 -0.156,-0.372 -0.144,-0.132 -0.336,-0.18 -0.192,-0.048 -0.312,-0.048 -0.108,0 -0.18,-0.036 -0.072,-0.048 -0.072,-0.168 0,-0.108 0.072,-0.144 0.084,-0.036 0.18,-0.036 0.372,-0.012 0.612,-0.024 0.252,-0.024 0.444,-0.06 0.204,-0.048 0.42,-0.108 0.024,-0.012 0.06,-0.012 0.036,-0.012 0.06,-0.012 0.156,0 0.156,0.132 0,0.012 -0.012,0.048 0,0.024 -0.012,0.06 -0.012,0.036 -0.036,0.204 -0.012,0.168 -0.036,0.348 -0.012,0.18 -0.012,0.276 v 2.772 q 0,0.324 0.06,0.468 0.072,0.132 0.156,0.132 0.096,0 0.276,-0.012 0.192,-0.024 0.276,-0.024 0.06,0 0.12,0.024 0.06,0.024 0.06,0.132 0,0.096 -0.048,0.132 -0.048,0.024 -0.12,0.036 -0.468,0.06 -0.804,0.18 -0.336,0.12 -0.6,0.228 -0.036,0.012 -0.108,0.036 -0.072,0.036 -0.132,0.036 z"
       style="font-size:12px;line-height:1.25;font-family:'EB Garamond';-inkscape-font-specification:'EB Garamond'"
       id="path209" />
    <path
       d="m 75.45625,144.946 q -0.06,0 -0.156,-0.024 -0.096,-0.012 -0.096,-0.084 0,-0.096 0.084,-0.144 0.096,-0.036 0.192,-0.072 0.18,-0.06 0.348,-0.144 0.168,-0.072 0.168,-0.312 v -6.084 q 0,-0.096 -0.06,-0.288 -0.048,-0.192 -0.168,-0.372 -0.12,-0.18 -0.324,-0.216 -0.048,-0.012 -0.072,-0.06 -0.024,-0.048 -0.024,-0.096 0,-0.06 0.024,-0.096 0.024,-0.036 0.06,-0.048 0.456,-0.108 0.78,-0.228 0.324,-0.132 0.612,-0.252 0.012,0 0.012,0 0,-0.012 0.012,-0.012 0.024,0 0.048,0.036 0.024,0.036 0.024,0.072 0,0.108 -0.036,0.348 -0.024,0.228 -0.024,0.372 0,0.096 0.012,0.108 0.12,-0.12 0.432,-0.3 0.324,-0.192 0.732,-0.336 0.408,-0.156 0.78,-0.156 0.624,0 1.056,0.336 0.444,0.324 0.672,0.852 0.24,0.516 0.24,1.08 0,0.54 -0.204,1.056 -0.204,0.504 -0.576,0.912 -0.372,0.408 -0.864,0.66 -0.492,0.24 -1.056,0.24 -0.168,0 -0.408,-0.06 -0.228,-0.048 -0.456,-0.132 -0.216,-0.084 -0.336,-0.192 -0.012,0 -0.024,0.144 -0.012,0.132 -0.024,0.276 0,0.156 0,0.192 v 2.244 q 0,0.156 0.12,0.24 0.132,0.096 0.288,0.132 0.168,0.048 0.288,0.084 0.096,0.036 0.18,0.072 0.096,0.048 0.096,0.144 0,0.072 -0.096,0.084 -0.096,0.024 -0.168,0.024 -0.348,0 -0.588,-0.036 -0.228,-0.024 -0.54,-0.024 -0.204,0 -0.336,0.012 -0.12,0.012 -0.252,0.024 -0.132,0.024 -0.372,0.024 z m 2.808,-3.624 q 0.18,0 0.432,-0.108 0.264,-0.108 0.516,-0.348 0.264,-0.24 0.432,-0.648 0.18,-0.408 0.18,-1.008 0,-0.696 -0.18,-1.116 -0.18,-0.42 -0.444,-0.636 -0.264,-0.216 -0.54,-0.288 -0.276,-0.072 -0.468,-0.072 -0.288,0 -0.6,0.12 -0.3,0.12 -0.516,0.276 -0.204,0.144 -0.204,0.228 0,0.264 -0.012,0.54 0,0.264 -0.012,0.516 0,0.252 -0.012,0.456 0,0.192 0,0.3 0,0.48 0.216,0.888 0.228,0.408 0.552,0.66 0.336,0.24 0.66,0.24 z"
       style="font-size:12px;line-height:1.25;font-family:'EB Garamond';-inkscape-font-specification:'EB Garamond'"
       id="path211" />
    <path
       d="m 83.766625,141.706 q -0.66,0 -1.152,-0.324 -0.492,-0.324 -0.768,-0.912 -0.276,-0.6 -0.276,-1.38 0,-0.696 0.312,-1.26 0.324,-0.576 0.852,-0.924 0.528,-0.348 1.152,-0.348 0.48,0 0.852,0.192 0.372,0.192 0.576,0.54 0.216,0.336 0.216,0.78 0,0.372 -0.36,0.372 h -2.532 q -0.168,0 -0.24,0.096 -0.06,0.084 -0.06,0.348 0,0.576 0.252,1.056 0.252,0.468 0.672,0.756 0.42,0.276 0.924,0.276 0.36,0 0.648,-0.132 0.3,-0.144 0.528,-0.408 0.048,-0.06 0.072,-0.072 0.024,-0.024 0.06,-0.024 0.096,0 0.096,0.12 0,0.228 -0.216,0.504 -0.18,0.228 -0.432,0.396 -0.252,0.168 -0.552,0.252 -0.3,0.096 -0.624,0.096 z m -1.104,-3.636 h 1.092 q 0.288,0 0.492,-0.012 0.204,-0.012 0.396,-0.048 0.06,-0.012 0.072,-0.072 0.024,-0.072 0.024,-0.192 0,-0.348 -0.312,-0.588 -0.3,-0.252 -0.72,-0.252 -0.276,0 -0.552,0.168 -0.276,0.156 -0.456,0.396 -0.18,0.24 -0.18,0.48 0,0.12 0.144,0.12 z"
       style="font-size:12px;line-height:1.25;font-family:'EB Garamond';-inkscape-font-specification:'EB Garamond'"
       id="path213" />
    <path
       d="m 86.486125,141.562 q -0.12,0 -0.18,-0.036 -0.06,-0.024 -0.06,-0.096 0,-0.096 0.072,-0.12 0.072,-0.036 0.204,-0.072 0.228,-0.06 0.336,-0.168 0.12,-0.12 0.12,-0.288 v -2.58 q 0,-0.324 -0.096,-0.564 -0.096,-0.24 -0.396,-0.3 -0.048,-0.012 -0.084,-0.06 -0.036,-0.048 -0.036,-0.096 0,-0.12 0.108,-0.144 0.312,-0.096 0.648,-0.276 0.348,-0.192 0.54,-0.312 0.072,-0.048 0.108,-0.06 0.048,-0.024 0.072,-0.024 0.06,0 0.06,0.084 0,0.036 -0.012,0.18 0,0.144 -0.012,0.336 0,0.192 -0.012,0.384 0,0.024 0.024,0.024 0.192,-0.24 0.42,-0.42 0.24,-0.18 0.48,-0.288 0.252,-0.108 0.48,-0.108 0.252,0 0.408,0.108 0.168,0.108 0.168,0.276 0,0.12 -0.072,0.264 -0.06,0.144 -0.168,0.252 -0.108,0.108 -0.228,0.108 -0.072,0 -0.156,-0.024 -0.084,-0.036 -0.18,-0.084 -0.096,-0.036 -0.192,-0.072 -0.096,-0.036 -0.192,-0.036 -0.288,0 -0.564,0.204 -0.264,0.204 -0.264,0.804 v 2.424 q 0,0.156 0.168,0.264 0.168,0.096 0.468,0.192 0.132,0.036 0.204,0.072 0.072,0.036 0.072,0.12 0,0.132 -0.24,0.132 -0.36,0 -0.552,-0.036 -0.18,-0.024 -0.492,-0.024 -0.204,0 -0.336,0.012 -0.12,0.012 -0.264,0.024 -0.132,0.024 -0.372,0.024 z"
       style="font-size:12px;line-height:1.25;font-family:'EB Garamond';-inkscape-font-specification:'EB Garamond'"
       id="path215" />
    <path
       d="m 90.433937,141.562 q -0.06,0 -0.156,-0.024 -0.084,-0.012 -0.084,-0.084 0,-0.096 0.084,-0.132 0.096,-0.048 0.192,-0.084 0.18,-0.06 0.348,-0.156 0.168,-0.108 0.168,-0.372 v -3.384 q -0.12,0 -0.276,0 -0.156,0 -0.348,-0.024 -0.048,-0.012 -0.096,-0.072 -0.036,-0.06 -0.036,-0.144 0,-0.084 0.132,-0.12 0.216,-0.06 0.336,-0.12 0.132,-0.072 0.288,-0.144 0,-1.08 0.3,-1.788 0.3,-0.708 0.756,-1.116 0.468,-0.408 0.96,-0.576 0.492,-0.168 0.888,-0.168 0.36,0 0.72,0.072 0.36,0.072 0.6,0.24 0.24,0.168 0.24,0.468 0,0.336 -0.192,0.48 -0.18,0.144 -0.408,0.144 -0.156,0 -0.252,-0.108 -0.096,-0.12 -0.216,-0.264 -0.144,-0.192 -0.372,-0.372 -0.228,-0.18 -0.648,-0.18 -0.384,0 -0.744,0.24 -0.348,0.228 -0.576,0.732 -0.216,0.504 -0.216,1.32 v 0.66 q 0,0.144 0.084,0.18 0.096,0.036 0.216,0.06 0.336,0.036 0.696,0.06 0.372,0.024 0.708,0.024 0.324,0 0.564,-0.024 0.24,-0.024 0.324,-0.06 0.168,-0.096 0.324,-0.192 0.156,-0.108 0.312,-0.204 0.048,-0.024 0.096,-0.012 0.048,0.012 0.048,0.06 -0.012,0.204 -0.06,0.636 -0.036,0.432 -0.036,1.212 v 2.484 q 0,0.264 0.168,0.372 0.168,0.096 0.348,0.156 0.096,0.036 0.18,0.084 0.096,0.036 0.096,0.132 0,0.072 -0.096,0.084 -0.084,0.024 -0.144,0.024 -0.24,0 -0.384,-0.024 -0.132,-0.012 -0.252,-0.024 -0.12,-0.012 -0.336,-0.012 -0.204,0 -0.336,0.012 -0.12,0.012 -0.264,0.024 -0.132,0.024 -0.372,0.024 -0.06,0 -0.156,-0.024 -0.084,-0.012 -0.084,-0.084 0,-0.096 0.084,-0.132 0.096,-0.048 0.192,-0.084 0.18,-0.06 0.348,-0.156 0.168,-0.108 0.168,-0.372 v -2.532 q 0,-0.336 -0.132,-0.576 -0.132,-0.24 -0.444,-0.3 -0.024,-0.012 -0.216,-0.012 -0.18,0 -0.432,0 -0.18,0 -0.372,0 -0.192,0 -0.36,0.012 -0.348,0.012 -0.42,0.072 -0.06,0.06 -0.06,0.168 v 3.168 q 0,0.264 0.168,0.372 0.168,0.096 0.348,0.156 0.096,0.036 0.18,0.084 0.096,0.036 0.096,0.132 0,0.072 -0.096,0.084 -0.084,0.024 -0.144,0.024 -0.24,0 -0.384,-0.024 -0.132,-0.012 -0.252,-0.024 -0.12,-0.012 -0.336,-0.012 -0.204,0 -0.336,0.012 -0.12,0.012 -0.264,0.024 -0.132,0.024 -0.372,0.024 z"
       style="font-size:12px;line-height:1.25;font-family:'EB Garamond';-inkscape-font-specification:'EB Garamond'"
       id="path217" />
    <path
       d="m 98.672875,141.706 q -0.6,0 -1.092,-0.3 -0.48,-0.312 -0.768,-0.84 -0.276,-0.54 -0.276,-1.2 0,-0.78 0.336,-1.416 0.348,-0.636 0.924,-1.008 0.576,-0.384 1.272,-0.384 0.78,0 1.367995,0.42 0.144,0.108 0.144,0.228 0,0.096 -0.084,0.216 -0.084,0.12 -0.204,0.204 -0.12,0.072 -0.228,0.072 -0.06,0 -0.119995,-0.036 -0.06,-0.048 -0.132,-0.096 -0.264,-0.204 -0.588,-0.384 -0.324,-0.18 -0.54,-0.18 -0.588,0 -0.96,0.552 -0.36,0.54 -0.36,1.428 0,0.564 0.24,1.02 0.252,0.456 0.66,0.72 0.42,0.264 0.924,0.264 0.348,0 0.6,-0.108 0.251995,-0.12 0.539995,-0.408 0.024,-0.024 0.06,-0.036 0.036,-0.024 0.06,-0.024 0.132,0 0.132,0.168 0,0.072 -0.048,0.168 -0.036,0.084 -0.132,0.204 -0.192,0.24 -0.455995,0.42 -0.264,0.168 -0.588,0.252 -0.312,0.084 -0.684,0.084 z"
       style="font-size:12px;line-height:1.25;font-family:'EB Garamond';-inkscape-font-specification:'EB Garamond'"
       id="path219" />
    <path
       d="m 101.51987,141.562 q -0.108,0 -0.18,-0.036 -0.06,-0.024 -0.06,-0.096 0,-0.096 0.084,-0.132 0.096,-0.036 0.192,-0.06 0.252,-0.06 0.384,-0.144 0.132,-0.096 0.132,-0.312 v -2.604 q 0,-0.324 -0.12,-0.576 -0.108,-0.252 -0.42,-0.3 -0.06,-0.012 -0.096,-0.048 -0.024,-0.036 -0.024,-0.108 0,-0.132 0.108,-0.144 0.48,-0.108 0.792,-0.288 0.312,-0.192 0.468,-0.312 0.108,-0.084 0.168,-0.084 0.072,0 0.072,0.06 0,0.096 -0.036,0.384 -0.024,0.276 -0.048,0.624 -0.024,0.336 -0.024,0.612 v 2.784 q 0,0.204 0.132,0.3 0.144,0.096 0.384,0.156 0.096,0.024 0.18,0.06 0.096,0.036 0.096,0.132 0,0.132 -0.24,0.132 -0.228,0 -0.372,-0.024 -0.132,-0.012 -0.264,-0.024 -0.12,-0.012 -0.336,-0.012 -0.204,0 -0.336,0.012 -0.132,0.012 -0.264,0.024 -0.132,0.024 -0.372,0.024 z m 0.96,-6.228 q -0.252,0 -0.432,-0.168 -0.168,-0.18 -0.168,-0.432 0,-0.264 0.168,-0.432 0.18,-0.18 0.432,-0.18 0.264,0 0.432,0.18 0.18,0.168 0.18,0.432 0,0.252 -0.18,0.432 -0.168,0.168 -0.432,0.168 z"
       style="font-size:12px;line-height:1.25;font-family:'EB Garamond';-inkscape-font-specification:'EB Garamond'"
       id="path221" />
    <path
       d="m 106.47756,141.706 q -0.66,0 -1.152,-0.324 -0.492,-0.324 -0.768,-0.912 -0.276,-0.6 -0.276,-1.38 0,-0.696 0.312,-1.26 0.324,-0.576 0.852,-0.924 0.528,-0.348 1.152,-0.348 0.48,0 0.852,0.192 0.372,0.192 0.576,0.54 0.216,0.336 0.216,0.78 0,0.372 -0.36,0.372 h -2.532 q -0.168,0 -0.24,0.096 -0.06,0.084 -0.06,0.348 0,0.576 0.252,1.056 0.252,0.468 0.672,0.756 0.42,0.276 0.924,0.276 0.36,0 0.648,-0.132 0.3,-0.144 0.528,-0.408 0.048,-0.06 0.072,-0.072 0.024,-0.024 0.06,-0.024 0.096,0 0.096,0.12 0,0.228 -0.216,0.504 -0.18,0.228 -0.432,0.396 -0.252,0.168 -0.552,0.252 -0.3,0.096 -0.624,0.096 z m -1.104,-3.636 h 1.092 q 0.288,0 0.492,-0.012 0.204,-0.012 0.396,-0.048 0.06,-0.012 0.072,-0.072 0.024,-0.072 0.024,-0.192 0,-0.348 -0.312,-0.588 -0.3,-0.252 -0.72,-0.252 -0.276,0 -0.552,0.168 -0.276,0.156 -0.456,0.396 -0.18,0.24 -0.18,0.48 0,0.12 0.144,0.12 z"
       style="font-size:12px;line-height:1.25;font-family:'EB Garamond';-inkscape-font-specification:'EB Garamond'"
       id="path223" />
    <path
       d="m 113.55569,141.706 q -0.6,0 -1.092,-0.3 -0.48,-0.312 -0.768,-0.84 -0.276,-0.54 -0.276,-1.2 0,-0.78 0.336,-1.416 0.348,-0.636 0.924,-1.008 0.576,-0.384 1.272,-0.384 0.78,0 1.368,0.42 0.144,0.108 0.144,0.228 0,0.096 -0.084,0.216 -0.084,0.12 -0.204,0.204 -0.12,0.072 -0.228,0.072 -0.06,0 -0.12,-0.036 -0.06,-0.048 -0.132,-0.096 -0.264,-0.204 -0.588,-0.384 -0.324,-0.18 -0.54,-0.18 -0.588,0 -0.96,0.552 -0.36,0.54 -0.36,1.428 0,0.564 0.24,1.02 0.252,0.456 0.66,0.72 0.42,0.264 0.924,0.264 0.348,0 0.6,-0.108 0.252,-0.12 0.54,-0.408 0.024,-0.024 0.06,-0.036 0.036,-0.024 0.06,-0.024 0.132,0 0.132,0.168 0,0.072 -0.048,0.168 -0.036,0.084 -0.132,0.204 -0.192,0.24 -0.456,0.42 -0.264,0.168 -0.588,0.252 -0.312,0.084 -0.684,0.084 z"
       style="font-size:12px;line-height:1.25;font-family:'EB Garamond';-inkscape-font-specification:'EB Garamond'"
       id="path225" />
    <path
       d="m 117.09119,141.694 q -0.216,0 -0.444,-0.168 -0.216,-0.168 -0.372,-0.408 -0.144,-0.24 -0.144,-0.456 0,-0.384 0.204,-0.6 0.204,-0.216 0.648,-0.396 l 1.224,-0.504 q 0.24,-0.096 0.276,-0.168 0.048,-0.072 0.06,-0.312 l 0.024,-0.768 q 0.012,-0.312 -0.18,-0.54 -0.18,-0.228 -0.528,-0.228 -0.18,0 -0.36,0.06 -0.18,0.06 -0.3,0.156 -0.072,0.048 -0.096,0.144 -0.024,0.096 -0.024,0.204 0,0.048 0,0.108 0.012,0.06 0.012,0.108 0,0.06 -0.156,0.168 -0.144,0.096 -0.336,0.18 -0.18,0.072 -0.3,0.072 -0.06,0 -0.096,-0.024 -0.036,-0.036 -0.036,-0.084 0,-0.192 0.12,-0.408 0.132,-0.228 0.36,-0.42 0.276,-0.252 0.6,-0.444 0.324,-0.192 0.636,-0.3 0.312,-0.108 0.552,-0.108 0.432,0 0.708,0.312 0.288,0.3 0.276,0.756 l -0.06,2.88 q -0.012,0.252 0.108,0.408 0.132,0.156 0.324,0.156 0.3,0 0.444,-0.132 0.06,-0.06 0.096,-0.06 0.06,0 0.096,0.036 0.036,0.036 0.036,0.096 0,0.132 -0.132,0.264 -0.192,0.192 -0.42,0.3 -0.216,0.12 -0.408,0.12 -0.552,0 -0.876,-0.624 h -0.036 q -0.396,0.324 -0.756,0.468 -0.36,0.156 -0.744,0.156 z m 0.564,-0.576 q 0.24,0 0.408,-0.072 0.168,-0.084 0.3,-0.216 0.06,-0.06 0.096,-0.156 0.048,-0.108 0.06,-0.336 l 0.024,-0.588 q 0.012,-0.132 -0.012,-0.192 -0.024,-0.06 -0.096,-0.06 -0.024,0 -0.084,0.012 -0.06,0.012 -0.156,0.048 -0.636,0.228 -0.888,0.48 -0.24,0.24 -0.24,0.444 0,0.312 0.18,0.48 0.192,0.156 0.408,0.156 z"
       style="font-size:12px;line-height:1.25;font-family:'EB Garamond';-inkscape-font-specification:'EB Garamond'"
       id="path227" />
    <path
       d="m 120.93644,141.562 q -0.06,0 -0.156,-0.024 -0.084,-0.012 -0.084,-0.084 0,-0.096 0.084,-0.132 0.096,-0.048 0.192,-0.084 0.18,-0.06 0.348,-0.132 0.168,-0.084 0.168,-0.324 v -6.048 q 0,-0.348 -0.132,-0.576 -0.12,-0.24 -0.42,-0.3 -0.096,-0.024 -0.096,-0.156 0,-0.12 0.084,-0.144 0.312,-0.072 0.54,-0.144 0.228,-0.084 0.42,-0.168 0.204,-0.084 0.396,-0.156 0.048,-0.024 0.072,-0.024 0.024,0 0.036,0.036 0.024,0.024 0.024,0.048 0,0.108 -0.048,0.468 -0.036,0.348 -0.036,1.164 v 6 q 0,0.24 0.168,0.324 0.168,0.072 0.348,0.132 0.096,0.036 0.18,0.084 0.096,0.036 0.096,0.132 0,0.072 -0.096,0.084 -0.084,0.024 -0.144,0.024 -0.228,0 -0.372,-0.024 -0.132,-0.012 -0.264,-0.024 -0.12,-0.012 -0.336,-0.012 -0.204,0 -0.336,0.012 -0.132,0.012 -0.264,0.024 -0.132,0.024 -0.372,0.024 z"
       style="font-size:12px;line-height:1.25;font-family:'EB Garamond';-inkscape-font-specification:'EB Garamond'"
       id="path229" />
    <path
       d="m 123.87925,141.562 q -0.108,0 -0.18,-0.036 -0.06,-0.024 -0.06,-0.096 0,-0.096 0.084,-0.132 0.096,-0.036 0.192,-0.06 0.252,-0.06 0.384,-0.144 0.132,-0.096 0.132,-0.312 v -2.604 q 0,-0.324 -0.12,-0.576 -0.108,-0.252 -0.42,-0.3 -0.06,-0.012 -0.096,-0.048 -0.024,-0.036 -0.024,-0.108 0,-0.132 0.108,-0.144 0.48,-0.108 0.792,-0.288 0.312,-0.192 0.468,-0.312 0.108,-0.084 0.168,-0.084 0.072,0 0.072,0.06 0,0.096 -0.036,0.384 -0.024,0.276 -0.048,0.624 -0.024,0.336 -0.024,0.612 v 2.784 q 0,0.204 0.132,0.3 0.144,0.096 0.384,0.156 0.096,0.024 0.18,0.06 0.096,0.036 0.096,0.132 0,0.132 -0.24,0.132 -0.228,0 -0.372,-0.024 -0.132,-0.012 -0.264,-0.024 -0.12,-0.012 -0.336,-0.012 -0.204,0 -0.336,0.012 -0.132,0.012 -0.264,0.024 -0.132,0.024 -0.372,0.024 z m 0.96,-6.228 q -0.252,0 -0.432,-0.168 -0.168,-0.18 -0.168,-0.432 0,-0.264 0.168,-0.432 0.18,-0.18 0.432,-0.18 0.264,0 0.432,0.18 0.18,0.168 0.18,0.432 0,0.252 -0.18,0.432 -0.168,0.168 -0.432,0.168 z"
       style="font-size:12px;line-height:1.25;font-family:'EB Garamond';-inkscape-font-specification:'EB Garamond'"
       id="path231" />
    <path
       d="m 128.83694,141.706 q -0.66,0 -1.152,-0.324 -0.492,-0.324 -0.768,-0.912 -0.276,-0.6 -0.276,-1.38 0,-0.696 0.312,-1.26 0.324,-0.576 0.852,-0.924 0.528,-0.348 1.152,-0.348 0.48,0 0.852,0.192 0.372,0.192 0.576,0.54 0.216,0.336 0.216,0.78 0,0.372 -0.36,0.372 h -2.532 q -0.168,0 -0.24,0.096 -0.06,0.084 -0.06,0.348 0,0.576 0.252,1.056 0.252,0.468 0.672,0.756 0.42,0.276 0.924,0.276 0.36,0 0.648,-0.132 0.3,-0.144 0.528,-0.408 0.048,-0.06 0.072,-0.072 0.024,-0.024 0.06,-0.024 0.096,0 0.096,0.12 0,0.228 -0.216,0.504 -0.18,0.228 -0.432,0.396 -0.252,0.168 -0.552,0.252 -0.3,0.096 -0.624,0.096 z m -1.104,-3.636 h 1.092 q 0.288,0 0.492,-0.012 0.204,-0.012 0.396,-0.048 0.06,-0.012 0.072,-0.072 0.024,-0.072 0.024,-0.192 0,-0.348 -0.312,-0.588 -0.3,-0.252 -0.72,-0.252 -0.276,0 -0.552,0.168 -0.276,0.156 -0.456,0.396 -0.18,0.24 -0.18,0.48 0,0.12 0.144,0.12 z"
       style="font-size:12px;line-height:1.25;font-family:'EB Garamond';-inkscape-font-specification:'EB Garamond'"
       id="path233" />
    <path
       d="m 131.49644,141.562 q -0.108,0 -0.18,-0.036 -0.06,-0.024 -0.06,-0.096 0,-0.096 0.072,-0.12 0.072,-0.036 0.204,-0.072 0.18,-0.048 0.348,-0.132 0.168,-0.084 0.168,-0.324 v -2.58 q 0,-0.324 -0.072,-0.552 -0.06,-0.228 -0.372,-0.312 -0.048,-0.024 -0.084,-0.048 -0.036,-0.036 -0.036,-0.108 0,-0.132 0.108,-0.144 0.42,-0.108 0.684,-0.264 0.264,-0.156 0.516,-0.348 0.036,-0.024 0.06,-0.036 0.036,-0.024 0.072,-0.024 0.024,0 0.036,0.024 0.024,0.024 0.024,0.06 0,0.084 -0.036,0.348 -0.024,0.252 -0.024,0.42 0,0.048 0,0.096 0.012,0.036 0.024,0.048 0.42,-0.396 0.888,-0.6 0.48,-0.204 1.044,-0.204 0.588,0 0.972,0.48 0.384,0.48 0.384,1.188 v 2.556 q 0,0.24 0.168,0.324 0.168,0.072 0.348,0.132 0.096,0.036 0.18,0.084 0.096,0.036 0.096,0.132 0,0.072 -0.084,0.084 -0.084,0.024 -0.156,0.024 -0.24,0 -0.372,-0.024 -0.132,-0.012 -0.252,-0.024 -0.12,-0.012 -0.336,-0.012 -0.204,0 -0.336,0.012 -0.132,0.012 -0.276,0.024 -0.132,0.024 -0.372,0.024 -0.06,0 -0.156,-0.024 -0.084,-0.012 -0.084,-0.084 0,-0.096 0.084,-0.132 0.096,-0.048 0.192,-0.084 0.18,-0.06 0.348,-0.132 0.168,-0.084 0.168,-0.324 v -2.52 q 0,-0.528 -0.3,-0.816 -0.288,-0.3 -0.78,-0.312 -0.432,0 -0.756,0.144 -0.324,0.132 -0.576,0.336 -0.048,0.048 -0.072,0.132 -0.024,0.072 -0.024,0.144 v 2.892 q 0,0.24 0.168,0.324 0.168,0.084 0.348,0.132 0.276,0.072 0.276,0.192 0,0.072 -0.06,0.096 -0.06,0.036 -0.18,0.036 -0.24,0 -0.384,-0.024 -0.132,-0.012 -0.252,-0.024 -0.12,-0.012 -0.336,-0.012 -0.204,0 -0.336,0.012 -0.12,0.012 -0.264,0.024 -0.132,0.024 -0.372,0.024 z"
       style="font-size:12px;line-height:1.25;font-family:'EB Garamond';-inkscape-font-specification:'EB Garamond'"
       id="path235" />
    <path
       d="m 139.56456,141.694 q -0.588,0 -0.924,-0.36 -0.324,-0.36 -0.324,-1.068 v -2.784 q 0,-0.096 -0.072,-0.132 -0.072,-0.048 -0.312,-0.048 h -0.072 q -0.06,0 -0.108,-0.072 -0.036,-0.084 -0.036,-0.168 0,-0.024 0.036,-0.072 0.036,-0.048 0.048,-0.06 0.24,-0.168 0.432,-0.336 0.204,-0.168 0.36,-0.324 0.168,-0.168 0.276,-0.3 0.06,-0.06 0.096,-0.096 0.048,-0.048 0.108,-0.048 0.06,0 0.108,0.024 0.06,0.024 0.048,0.108 l -0.06,0.54 q -0.012,0.132 0.06,0.18 0.072,0.048 0.228,0.048 h 1.368 q 0.048,0 0.084,0.084 0.036,0.072 0.036,0.18 0,0.108 -0.036,0.216 -0.036,0.096 -0.084,0.096 h -1.188 q -0.3,0 -0.396,0.048 -0.084,0.048 -0.084,0.288 v 2.364 q 0,0.48 0.204,0.756 0.204,0.276 0.588,0.276 0.348,0 0.54,-0.048 0.192,-0.06 0.348,-0.168 0.024,-0.024 0.048,-0.024 0.048,0 0.06,0.06 0.024,0.048 0.024,0.108 0,0.06 -0.204,0.24 -0.192,0.18 -0.516,0.336 -0.312,0.156 -0.684,0.156 z"
       style="font-size:12px;line-height:1.25;font-family:'EB Garamond';-inkscape-font-specification:'EB Garamond'"
       id="path237" />
    <path
       d="m 143.626,141.706 q -0.66,0 -1.152,-0.324 -0.492,-0.324 -0.768,-0.912 -0.276,-0.6 -0.276,-1.38 0,-0.696 0.312,-1.26 0.324,-0.576 0.852,-0.924 0.528,-0.348 1.152,-0.348 0.48,0 0.852,0.192 0.372,0.192 0.576,0.54 0.216,0.336 0.216,0.78 0,0.372 -0.36,0.372 h -2.532 q -0.168,0 -0.24,0.096 -0.06,0.084 -0.06,0.348 0,0.576 0.252,1.056 0.252,0.468 0.672,0.756 0.42,0.276 0.924,0.276 0.36,0 0.648,-0.132 0.3,-0.144 0.528,-0.408 0.048,-0.06 0.072,-0.072 0.024,-0.024 0.06,-0.024 0.096,0 0.096,0.12 0,0.228 -0.216,0.504 -0.18,0.228 -0.432,0.396 -0.252,0.168 -0.552,0.252 -0.3,0.096 -0.624,0.096 z m -1.104,-3.636 h 1.092 q 0.288,0 0.492,-0.012 0.204,-0.012 0.396,-0.048 0.06,-0.012 0.072,-0.072 0.024,-0.072 0.024,-0.192 0,-0.348 -0.312,-0.588 -0.3,-0.252 -0.72,-0.252 -0.276,0 -0.552,0.168 -0.276,0.156 -0.456,0.396 -0.18,0.24 -0.18,0.48 0,0.12 0.144,0.12 z"
       style="font-size:12px;line-height:1.25;font-family:'EB Garamond';-inkscape-font-specification:'EB Garamond'"
       id="path239" />
  </g>
  <g
     id="g3787"
     transform="translate(-1.7006458,-9.1827512)">
    <path
       sodipodi:nodetypes="cc"
       id="path653"
       d="m 171.814,118.5354 -13.8354,1.8433"
       style="fill:none;stroke:#000000;stroke-width:0.625;stroke-linecap:round;stroke-linejoin:round;stroke-dasharray:none;stroke-opacity:1"
       inkscape:connector-curvature="0" />
    <path
       sodipodi:nodetypes="cc"
       id="path654"
       d="m 157.7769,117.2798 -0.0209,6.3195"
       style="fill:none;stroke:#000000;stroke-width:0.625;stroke-linecap:round;stroke-linejoin:round;stroke-dasharray:none;stroke-opacity:1"
       inkscape:connector-curvature="0" />
  </g>
</svg>
