<?xml version="1.0" encoding="UTF-8" standalone="no"?>
<!-- Created with Inkscape (http://www.inkscape.org/) -->

<svg
   id="svg4919"
   version="1.1"
   inkscape:version="1.3.2 (091e20e, 2023-11-25)"
   width="1293.2645"
   height="502.77264"
   sodipodi:docname="PS-polimerizacion.svg"
   xmlns:inkscape="http://www.inkscape.org/namespaces/inkscape"
   xmlns:sodipodi="http://sodipodi.sourceforge.net/DTD/sodipodi-0.dtd"
   xmlns="http://www.w3.org/2000/svg"
   xmlns:svg="http://www.w3.org/2000/svg"
   xmlns:rdf="http://www.w3.org/1999/02/22-rdf-syntax-ns#"
   xmlns:cc="http://creativecommons.org/ns#"
   xmlns:dc="http://purl.org/dc/elements/1.1/">
  <metadata
     id="metadata4925">
    <rdf:RDF>
      <cc:Work
         rdf:about="">
        <dc:format>image/svg+xml</dc:format>
        <dc:type
           rdf:resource="http://purl.org/dc/dcmitype/StillImage" />
      </cc:Work>
    </rdf:RDF>
  </metadata>
  <defs
     id="defs4923">
    <marker
       inkscape:stockid="Arrow2Lend"
       orient="auto"
       refY="0"
       refX="0"
       id="Arrow2Lend"
       style="overflow:visible">
      <path
         id="path5500"
         style="font-size:12px;fill-rule:evenodd;stroke-width:0.625;stroke-linejoin:round"
         d="M 8.7185878,4.0337352 -2.2072895,0.01601326 8.7185884,-4.0017078 c -1.7454984,2.3720609 -1.7354408,5.6174519 -6e-7,8.035443 z"
         transform="matrix(-1.1,0,0,-1.1,-1.1,0)" />
    </marker>
    <marker
       inkscape:stockid="Arrow1Lend"
       orient="auto"
       refY="0"
       refX="0"
       id="Arrow1Lend"
       style="overflow:visible">
      <path
         id="path5482"
         d="M 0,0 5,-5 -12.5,0 5,5 Z"
         style="fill-rule:evenodd;stroke:#000000;stroke-width:1pt;marker-start:none"
         transform="matrix(-0.8,0,0,-0.8,-10,0)" />
    </marker>
  </defs>
  <sodipodi:namedview
     pagecolor="#ffffff"
     bordercolor="#666666"
     borderopacity="1"
     objecttolerance="10"
     gridtolerance="10"
     guidetolerance="10"
     inkscape:pageopacity="0"
     inkscape:pageshadow="2"
     inkscape:window-width="1920"
     inkscape:window-height="1027"
     id="namedview4921"
     showgrid="false"
     inkscape:zoom="0.70946497"
     inkscape:cx="490.51048"
     inkscape:cy="94.437362"
     inkscape:window-x="0"
     inkscape:window-y="25"
     inkscape:window-maximized="0"
     inkscape:current-layer="svg4919"
     inkscape:snap-global="false"
     inkscape:showpageshadow="2"
     inkscape:pagecheckerboard="0"
     inkscape:deskcolor="#d1d1d1">
    <inkscape:grid
       type="xygrid"
       id="grid6397"
       originx="-104.23943"
       originy="-13.666436"
       spacingy="1"
       spacingx="1"
       units="px"
       visible="false" />
  </sodipodi:namedview>
  <path
     style="fill:none;stroke:#000000;stroke-width:4;stroke-linecap:butt;stroke-linejoin:miter;stroke-miterlimit:4;stroke-dasharray:none;stroke-opacity:1"
     d="m 111.45907,279.31101 82.79337,-45.75423 112.2068,74.07828 107.84925,-65.36319 110.02802,65.36319 1.08939,128.54759 -112.2068,61.00564 -110.02802,-61.00564 -1.08939,-128.54759"
     id="path4929"
     inkscape:connector-curvature="0" />
  <path
     style="fill:none;stroke:#000000;stroke-width:4;stroke-linecap:butt;stroke-linejoin:miter;stroke-miterlimit:4;stroke-dasharray:none;stroke-opacity:1"
     d="m 124.53171,293.47303 87.15091,-47.933"
     id="path4931"
     inkscape:connector-curvature="0" />
  <path
     style="fill:none;stroke:#000000;stroke-width:3;stroke-linecap:butt;stroke-linejoin:miter;stroke-miterlimit:4;stroke-dasharray:none;stroke-opacity:1;marker-mid:none;marker-end:url(#Arrow2Lend)"
     d="m 579.89522,368.64069 416.14555,1.08939"
     id="path4933"
     inkscape:connector-curvature="0" />
  <path
     style="fill:none;stroke:#000000;stroke-width:3;stroke-linecap:butt;stroke-linejoin:miter;stroke-miterlimit:4;stroke-dasharray:none;stroke-opacity:1"
     d="m 1033.08,5.941113 -20.6984,-0.06608 1.0894,213.519727 22.097,0.0604"
     id="path4935"
     inkscape:connector-curvature="0"
     sodipodi:nodetypes="cccc" />
  <path
     style="fill:none;stroke:#000000;stroke-width:3;stroke-linecap:butt;stroke-linejoin:miter;stroke-miterlimit:4;stroke-dasharray:none;stroke-opacity:1"
     d="m 1222.6993,1.770477 21.7216,-0.252992 1.0894,220.056045 h -22.8771"
     id="path4937"
     inkscape:connector-curvature="0"
     sodipodi:nodetypes="cccc" />
  <path
     style="fill:none;stroke:#000000;stroke-width:4;stroke-linecap:butt;stroke-linejoin:miter;stroke-miterlimit:4;stroke-dasharray:none;stroke-opacity:1"
     d="m 992.77267,99.562264 81.70403,-42.486073 106.7598,61.005629 2.1788,126.36883 -111.1174,61.00563 -1.0894,129.63698 111.1174,65.36319 108.9387,-63.18441 V 305.45628 l -108.1684,-61.07172"
     id="path4939"
     inkscape:connector-curvature="0"
     sodipodi:nodetypes="cccccccccc" />
  <path
     style="fill:none;stroke:#000000;stroke-width:4;stroke-linecap:butt;stroke-linejoin:miter;stroke-miterlimit:4;stroke-dasharray:none;stroke-opacity:1"
     d="m 1181.3574,117.70234 83.7619,-44.285353"
     id="path4941"
     inkscape:connector-curvature="0"
     sodipodi:nodetypes="cc" />
  <ellipse
     style="fill:none;stroke:#000000;stroke-width:4;stroke-linecap:square;stroke-linejoin:round;stroke-miterlimit:4;stroke-dasharray:none;stroke-dashoffset:0;stroke-opacity:1"
     id="path6106"
     cx="413.21912"
     cy="369.73013"
     rx="72.801979"
     ry="72.988892" />
  <ellipse
     style="fill:none;stroke:#000000;stroke-width:4;stroke-linecap:square;stroke-linejoin:round;stroke-miterlimit:4;stroke-dasharray:none;stroke-dashoffset:0;stroke-opacity:1"
     id="path6106-3"
     cx="1182.6418"
     cy="371.27106"
     rx="72.801979"
     ry="72.988892" />
  <g
     id="text3"
     style="font-size:64px;font-family:'EB Garamond';-inkscape-font-specification:'EB Garamond'"
     aria-label="H2C">
    <path
       d="m 1.856,328.72088 q -0.832,0 -1.34400003,-0.256 -0.512000000517578,-0.192 -0.512000000517578,-0.576 0,-0.64 2.048000030517578,-1.024 2.432,-0.448 3.136,-1.472 0.768,-1.024 0.768,-3.328 v -28.928 q 0,-2.24 -0.512,-3.136 -0.448,-0.96 -2.88,-1.408 -2.11200003,-0.384 -2.11200003,-1.152 0,-0.384 0.448,-0.576 0.44800003,-0.256 1.40800003,-0.256 1.728,0 2.688,0.064 0.96,0.064 1.792,0.128 0.832,0 2.112,0 1.344,0 2.176,0 0.896,-0.064 1.856,-0.128 1.024,-0.064 2.752,-0.064 1.856,0 1.856,0.832 0,0.448 -0.512,0.704 -0.512,0.256 -1.6,0.448 -2.368,0.448 -3.392,1.6 -0.96,1.088 -0.96,2.944 v 12.608 q 0,0.384 0.32,0.512 0.32,0.064 0.576,0.064 h 23.744 q 0.448,0 0.448,-0.768 v -12.48 q 0,-1.728 -0.896,-2.88 -0.896,-1.152 -3.328,-1.6 -1.088,-0.192 -1.6,-0.448 -0.512,-0.256 -0.512,-0.704 0,-0.832 1.856,-0.832 1.728,0 2.816,0.064 1.152,0.064 2.176,0.128 1.024,0 2.432,0 1.152,0 1.792,0 0.64,-0.064 1.472,-0.128 0.832,-0.064 2.56,-0.064 0.896,0 1.344,0.256 0.512,0.192 0.512,0.576 0,0.768 -2.112,1.152 -2.368,0.448 -2.88,1.536 -0.512,1.088 -0.512,2.944 v 28.928 q 0,2.368 0.576,3.392 0.64,1.024 3.008,1.472 2.048,0.384 2.048,1.024 0,0.384 -0.512,0.576 -0.512,0.256 -1.344,0.256 -1.728,0 -2.688,-0.128 -0.96,-0.064 -1.792,-0.128 -0.832,-0.064 -2.176,-0.064 -1.344,0 -2.24,0.064 -0.832,0.064 -1.856,0.128 -1.024,0.128 -2.752,0.128 -0.832,0 -1.344,-0.256 -0.512,-0.192 -0.512,-0.576 0,-0.448 0.448,-0.64 0.512,-0.192 1.6,-0.384 2.048,-0.384 3.2,-1.472 1.216,-1.152 1.216,-3.2 v -12.48 q 0,-0.32 0,-0.64 0,-0.32 -0.32,-0.32 H 11.392 q -0.32,0 -0.32,0.704 v 12.16 q 0,1.984 1.472,3.456 1.472,1.408 3.648,1.792 1.088,0.192 1.536,0.384 0.512,0.192 0.512,0.64 0,0.384 -0.512,0.576 -0.512,0.256 -1.344,0.256 -1.728,0 -2.88,-0.128 -1.088,-0.064 -2.112,-0.128 -1.024,-0.064 -2.496,-0.064 -1.344,0 -2.304,0.064 -0.896,0.064 -1.984,0.128 -1.024,0.128 -2.752,0.128 z"
       id="path1" />
    <path
       style="font-size:41.6px;baseline-shift:sub"
       d="m 66.902365,341.32568 q -0.2912,0 -0.9152,-0.0416 -0.624,-0.0416 -1.4144,-0.0832 -0.7904,-0.0416 -1.664,-0.0832 -0.832,-0.0416 -1.6224,-0.0416 -0.7904,0 -2.2464,0.0416 -1.456,0.0416 -3.078399,0.0832 -1.5808,0 -2.7872,0.0416 -1.2064,0.0416 -1.5392,0.0416 -0.1664,0 -0.4992,-0.2496 -0.3328,-0.2912 -0.3328,-0.4576 0,-0.208 0.0832,-0.2912 0.0832,-0.0832 0.2496,-0.2496 l 7.113599,-7.3632 q 2.08,-2.1632 3.4528,-4.8256 1.3728,-2.704 1.3728,-5.4496 0,-2.2048 -1.3312,-3.4528 -1.3312,-1.2896 -3.12,-1.2896 -1.705599,0 -3.161599,0.9568 -1.456,0.9152 -2.3296,2.4128 -0.1248,0.2496 -0.3328,0.416 -0.1664,0.1664 -0.3744,0.1664 -0.1664,0 -0.416,-0.3328 -0.208,-0.3744 -0.208,-0.9152 0,-0.4992 0.5824,-1.3728 0.624,-0.8736 1.7056,-1.7888 1.0816,-0.9152 2.5792,-1.5392 1.497599,-0.6656 3.244799,-0.6656 2.08,0 3.5776,0.8736 1.4976,0.8736 2.288,2.4128 0.7904,1.5392 0.7904,3.5776 0,1.1232 -0.416,2.4128 -0.3744,1.2896 -1.0816,2.5376 -0.6656,1.248 -1.5392,2.3296 -0.5408,0.6656 -1.6224,1.7888 -1.04,1.0816 -2.288,2.3296 -1.2064,1.248 -2.329599,2.3712 -1.0816,1.0816 -1.7888,1.8304 -0.7072,0.7072 -0.7072,0.7904 0,0.208 0.5824,0.2912 0.7072,0.0416 1.5808,0.0832 0.915199,0.0416 2.079999,0.0416 1.2064,0 2.4128,-0.0416 1.2064,-0.0416 2.3296,-0.0832 1.2064,-0.0832 1.872,-0.208 0.6656,-0.1248 1.1232,-0.4992 0.4576,-0.416 0.9568,-1.248 0.1664,-0.2496 0.416,-0.5824 0.2912,-0.3744 0.624,-0.3744 0.208,0 0.2496,0.1664 0.0416,0.1664 0.0416,0.3328 0,0.208 -0.2496,0.832 -0.208,0.5824 -0.4992,1.456 -0.2912,0.8736 -0.4992,1.9136 -0.1248,0.6656 -0.416,0.832 -0.2912,0.1664 -0.4992,0.1664 z"
       id="path2" />
    <path
       d="m 95.487945,329.36088 q -4.48,0 -8.64,-1.536 -4.16,-1.536 -7.424,-4.352 -3.264,-2.88 -5.184,-6.848 -1.856,-4.032 -1.856,-8.896 0,-4.672 1.984,-8.64 1.984,-3.968 5.44,-6.912 3.456,-2.944 7.872,-4.544 4.48,-1.664 9.408,-1.664 2.496,0 4.224005,0.192 1.728,0.192 3.328,0.576 1.664,0.32 3.84,0.896 0.96,0.256 1.344,0.768 0.448,0.512 0.512,1.408 0.128,1.472 0.32,3.2 0.192,1.664 0.256,4.16 0.064,0.448 -0.448,0.768 -0.448,0.256 -1.024,0.128 -0.512,-0.128 -0.704,-0.832 -0.64,-2.432 -1.472,-4.16 -0.832,-1.792 -2.496,-2.944 -1.6,-1.088 -3.904,-1.6 -2.240005,-0.576 -4.864005,-0.576 -3.712,0 -6.912,1.536 -3.136,1.472 -5.44,4.096 -2.24,2.56 -3.52,5.824 -1.28,3.264 -1.28,6.784 0,3.904 1.216,7.68 1.28,3.776 3.584,6.848 2.368,3.008 5.568,4.864 3.264,1.792 7.232,1.792 4.608005,0 7.616005,-2.112 3.008,-2.112 5.12,-5.888 0.448,-0.832 1.28,-0.832 0.896,0 0.896,1.024 0,0.512 -0.256,1.664 -0.256,1.088 -0.704,2.368 -0.384,1.216 -0.768,2.176 -0.448,0.896 -0.768,1.152 -0.256,0.256 -1.28,0.576 -2.368,0.96 -5.696,1.408 -3.264005,0.448 -6.400005,0.448 z"
       id="path3" />
  </g>
  <path
     style="font-style:italic;font-size:64px;font-family:'EB Garamond';-inkscape-font-specification:'EB Garamond Italic'"
     d="m 1259.9726,235.43182 q -0.384,0 -0.768,-0.32 -0.32,-0.256 -0.576,-0.704 -0.256,-0.384 -0.384,-0.896 -0.064,-0.512 0.128,-0.896 l 7.424,-18.176 q 1.152,-2.816 0.128,-2.816 -0.64,0 -1.344,0.192 -0.704,0.128 -1.536,0.768 -0.832,0.64 -1.856,1.984 -0.256,0.256 -0.576,0.256 -0.256,-0.064 -0.384,-0.512 0,-0.384 0.192,-0.96 0.256,-0.64 0.576,-1.216 0.32,-0.64 0.576,-1.024 0.96,-1.472 2.56,-2.304 1.664,-0.832 3.84,-0.896 0.704,0 1.28,0.384 0.576,0.32 0.832,0.96 0.32,0.64 0,1.408 l -4.224,10.88 q -0.192,0.448 0.064,0.512 0.32,0.064 0.512,-0.256 2.624,-4.48 5.312,-7.552 2.752,-3.136 5.248,-4.736 2.496,-1.6 4.416,-1.6 1.344,0 2.304,0.96 1.024,0.896 1.28,2.496 0.32,1.536 -0.576,3.584 l -5.888,13.952 q -0.96,2.304 0.32,2.304 0.768,0 1.856,-0.576 1.152,-0.576 2.304,-1.344 1.152,-0.832 1.984,-1.472 0.896,-0.704 1.152,-0.96 0.064,-0.064 0.064,-0.064 0.064,0 0.128,0 0.192,0 0.32,0.192 0.192,0.128 0.192,0.384 0,0.512 -0.256,0.896 -1.664,1.984 -3.584,3.584 -1.856,1.6 -3.904,2.56 -1.984,0.896 -4.032,0.896 -0.576,0 -1.152,-0.448 -0.576,-0.384 -0.896,-1.024 -0.256,-0.64 0.064,-1.344 1.856,-4.288 3.712,-8.512 1.92,-4.288 3.584,-8.576 1.024,-2.624 0.704,-3.648 -0.32,-1.088 -1.216,-1.152 -0.704,-0.064 -1.664,0.512 -0.96,0.512 -2.176,1.664 -1.216,1.088 -2.624,2.816 -0.768,0.896 -2.048,2.816 -1.28,1.856 -2.88,4.352 -1.6,2.432 -3.328,5.248 -1.664,2.752 -3.2,5.44 -0.576,1.024 -1.024,1.472 -0.448,0.512 -0.96,0.512 z"
     id="text5"
     aria-label="n" />
</svg>
