<svg xmlns="http://www.w3.org/2000/svg" xmlns:xlink="http://www.w3.org/1999/xlink" width="484.335" height="47.823" viewBox="0 0 363.251 35.867" version="1.2"><defs><clipPath id="b"><path d="M0 0h911v571H0z"/></clipPath><clipPath id="c"><path d="M0 0h911v571H0z"/></clipPath><clipPath id="d"><path d="M0 0h911v571H0z"/></clipPath><clipPath id="e"><path d="M0 0h911v571H0z"/></clipPath><clipPath id="f"><path d="M0 0h911v571H0z"/></clipPath><clipPath id="g"><path d="M0 0h911v571H0z"/></clipPath><clipPath id="h"><path d="M0 0h911v571H0z"/></clipPath><clipPath id="i"><path d="M0 0h911v571H0z"/></clipPath><clipPath id="j"><path d="M0 0h911v571H0z"/></clipPath><clipPath id="k"><path d="M0 0h911v571H0z"/></clipPath><clipPath id="l"><path d="M0 0h911v571H0z"/></clipPath><clipPath id="m"><path d="M0 0h911v571H0z"/></clipPath><clipPath id="n"><path d="M0 0h911v571H0z"/></clipPath><clipPath id="o"><path d="M0 0h911v571H0z"/></clipPath><clipPath id="p"><path d="M0 0h911v571H0z"/></clipPath><clipPath id="q"><path d="M0 0h911v571H0z"/></clipPath><clipPath id="r"><path d="M0 0h911v571H0z"/></clipPath><clipPath id="s"><path d="M0 0h911v571H0z"/></clipPath><clipPath id="t"><path d="M0 0h911v571H0z"/></clipPath><clipPath id="u"><path d="M0 0h911v571H0z"/></clipPath><clipPath id="v"><path d="M0 0h911v571H0z"/></clipPath><clipPath id="w"><path d="M0 0h911v571H0z"/></clipPath><clipPath id="x"><path d="M0 0h911v571H0z"/></clipPath><clipPath id="y"><path d="M0 0h911v571H0z"/></clipPath><clipPath id="z"><path d="M0 0h911v571H0z"/></clipPath><clipPath id="A"><path d="M0 0h911v571H0z"/></clipPath><clipPath id="B"><path d="M0 0h911v571H0z"/></clipPath><clipPath id="C"><path d="M0 0h911v571H0z"/></clipPath><clipPath id="D"><path d="M0 0h911v571H0z"/></clipPath><clipPath id="E"><path d="M0 0h911v571H0z"/></clipPath><clipPath id="F"><path d="M0 0h911v571H0z"/></clipPath><clipPath id="G"><path d="M0 0h911v571H0z"/></clipPath><clipPath id="H"><path d="M0 0h911v571H0z"/></clipPath><clipPath id="I"><path d="M0 0h911v571H0z"/></clipPath><clipPath id="J"><path d="M0 0h911v571H0z"/></clipPath><clipPath id="K"><path d="M0 0h911v571H0z"/></clipPath><clipPath id="L"><path d="M0 0h911v571H0z"/></clipPath><clipPath id="M"><path d="M0 0h911v571H0z"/></clipPath><clipPath id="N"><path d="M0 0h911v571H0z"/></clipPath><clipPath id="O"><path d="M0 0h911v571H0z"/></clipPath><clipPath id="P"><path d="M0 0h911v571H0z"/></clipPath><clipPath id="Q"><path d="M0 0h911v571H0z"/></clipPath><clipPath id="R"><path d="M0 0h911v571H0z"/></clipPath><clipPath id="S"><path d="M0 0h911v571H0z"/></clipPath><clipPath id="T"><path d="M0 0h911v571H0z"/></clipPath><clipPath id="U"><path d="M0 0h911v571H0z"/></clipPath><clipPath id="V"><path d="M0 0h911v571H0z"/></clipPath><clipPath id="W"><path d="M0 0h911v571H0z"/></clipPath><clipPath id="X"><path d="M0 0h911v571H0z"/></clipPath><clipPath id="Y"><path d="M0 0h911v571H0z"/></clipPath><clipPath id="Z"><path d="M0 0h911v571H0z"/></clipPath><clipPath id="aa"><path d="M0 0h911v571H0z"/></clipPath><clipPath id="ab"><path d="M0 0h911v571H0z"/></clipPath><clipPath id="ac"><path d="M0 0h911v571H0z"/></clipPath><clipPath id="ad"><path d="M0 0h911v571H0z"/></clipPath><clipPath id="ae"><path d="M0 0h911v571H0z"/></clipPath><clipPath id="af"><path d="M0 0h911v571H0z"/></clipPath><clipPath id="ag"><path d="M0 0h911v571H0z"/></clipPath><clipPath id="ah"><path d="M0 0h911v571H0z"/></clipPath><clipPath id="ai"><path d="M0 0h911v571H0z"/></clipPath><clipPath id="aj"><path d="M0 0h911v571H0z"/></clipPath><clipPath id="ak"><path d="M0 0h911v571H0z"/></clipPath><clipPath id="al"><path d="M0 0h911v571H0z"/></clipPath><clipPath id="am"><path d="M0 0h911v571H0z"/></clipPath><clipPath id="an"><path d="M0 0h911v571H0z"/></clipPath><clipPath id="ao"><path d="M0 0h911v571H0z"/></clipPath><clipPath id="ap"><path d="M0 0h911v571H0z"/></clipPath><clipPath id="aq"><path d="M0 0h911v571H0z"/></clipPath><clipPath id="ar"><path d="M0 0h433v342H0z"/></clipPath><clipPath id="at"><path d="M284 200h87v111h-87zm0 0"/></clipPath><clipPath id="au"><path d="M369.527 293.71l-32.015-55.44v-36.516c0-.543.234-1.043.613-1.41h-22.078c.387.36.621.867.621 1.41v37.851l-31.242 54.106c-3.317 5.738.191 12.793 6.363 13.953 6.602 1.93 20.113 3.254 35.719 3.254 15.695 0 29.273-1.34 35.836-3.29a9.24 9.24 0 003.129-1.284c.066-.047.132-.086.191-.125 3.844-2.63 5.48-7.977 2.863-12.508zm0 0"/></clipPath><clipPath id="as"><path d="M0 0h433v342H0z"/></clipPath><clipPath id="aw"><path d="M0 0h433v342H0z"/></clipPath><clipPath id="ax"><path d="M0 0h433v342H0z"/></clipPath><clipPath id="ay"><path d="M0 0h433v342H0z"/></clipPath><clipPath id="az"><path d="M0 0h433v342H0z"/></clipPath><clipPath id="aA"><path d="M0 0h433v342H0z"/></clipPath><clipPath id="aB"><path d="M0 0h433v342H0z"/></clipPath><clipPath id="aG"><path d="M.742.566h431.95V341.04H.741zm0 0"/></clipPath><clipPath id="aC"><path d="M0 0h433v342H0z"/></clipPath><clipPath id="aD"><path d="M0 0h433v342H0z"/></clipPath><clipPath id="aE"><path d="M0 0h433v342H0z"/></clipPath><clipPath id="aF"><path d="M0 0h433v342H0z"/></clipPath><clipPath id="aN"><path d="M0 0h433v342H0z"/></clipPath><clipPath id="aO"><path d="M0 0h433v342H0z"/></clipPath><clipPath id="aP"><path d="M0 0h433v342H0z"/></clipPath><clipPath id="aR"><path d="M80 200h88v111H80zm0 0"/></clipPath><clipPath id="aS"><path d="M166.156 293.71l-32.015-55.44v-36.516c0-.543.234-1.043.62-1.41h-22.077c.379.36.613.867.613 1.41v37.851l-31.238 54.106c-3.313 5.738.187 12.793 6.359 13.953 6.602 1.93 20.113 3.254 35.719 3.254 15.695 0 29.273-1.34 35.836-3.29a9.24 9.24 0 003.129-1.284l.191-.125c3.848-2.63 5.48-7.977 2.863-12.508zm0 0"/></clipPath><clipPath id="aQ"><path d="M0 0h433v342H0z"/></clipPath><clipPath id="aU"><path d="M0 0h433v342H0z"/></clipPath><clipPath id="aV"><path d="M0 0h433v342H0z"/></clipPath><clipPath id="aW"><path d="M0 0h433v342H0z"/></clipPath><clipPath id="aX"><path d="M0 0h433v342H0z"/></clipPath><clipPath id="aY"><path d="M0 0h433v342H0z"/></clipPath><clipPath id="bb"><path d="M.742.566h431.95V341.04H.741zm0 0"/></clipPath><clipPath id="aZ"><path d="M0 0h433v342H0z"/></clipPath><clipPath id="ba"><path d="M0 0h433v342H0z"/></clipPath><clipPath id="bg"><path d="M.742.566h431.95V341.04H.741zm0 0"/></clipPath><clipPath id="be"><path d="M0 0h433v342H0z"/></clipPath><clipPath id="bf"><path d="M0 0h433v342H0z"/></clipPath><clipPath id="bj"><path d="M0 0h433v342H0z"/></clipPath><clipPath id="bk"><path d="M0 0h433v342H0z"/></clipPath><clipPath id="bl"><path d="M0 0h433v342H0z"/></clipPath><clipPath id="bm"><path d="M0 0h433v342H0z"/></clipPath><clipPath id="bn"><path d="M0 0h433v342H0z"/></clipPath><clipPath id="bo"><path d="M0 0h433v342H0z"/></clipPath><clipPath id="bp"><path d="M0 0h433v342H0z"/></clipPath><symbol overflow="visible" id="bq"><path d="M1.188 8.484c-.094 0-.227-.015-.391-.046-.156-.032-.235-.106-.235-.22 0-.167.07-.288.22-.359l.468-.187c.3-.094.586-.211.86-.344.28-.125.421-.387.421-.781V-8.531c0-.164-.047-.406-.14-.719a3.111 3.111 0 00-.422-.922c-.2-.3-.469-.476-.813-.531a.26.26 0 01-.172-.156.502.502 0 01-.062-.235c0-.101.02-.18.062-.234a.305.305 0 01.141-.125 13.776 13.776 0 001.938-.578 46.82 46.82 0 001.515-.61c.02 0 .031-.004.031-.015 0-.008.008-.016.032-.016.039 0 .078.031.109.094a.29.29 0 01.063.172c0 .18-.028.46-.079.843-.043.387-.062.7-.062.938 0 .168.008.258.031.266.195-.196.555-.446 1.078-.75a10.785 10.785 0 011.797-.829c.676-.25 1.32-.375 1.938-.375 1.03 0 1.906.274 2.625.813a5.277 5.277 0 011.671 2.11c.395.867.594 1.765.594 2.702 0 .887-.172 1.75-.515 2.594a7.49 7.49 0 01-1.422 2.281 7.23 7.23 0 01-2.14 1.625 5.788 5.788 0 01-2.626.61c-.281 0-.617-.047-1-.14a8.886 8.886 0 01-1.125-.329C5.211-.19 4.93-.352 4.734-.53c-.023 0-.043.117-.062.344-.024.226-.04.46-.047.703-.012.25-.016.406-.016.468v5.563c0 .258.102.46.313.61.207.144.445.253.719.327.27.07.504.133.703.188.156.062.304.125.453.187.144.07.219.192.219.36 0 .113-.079.187-.235.219a2.173 2.173 0 01-.422.046 11.21 11.21 0 01-1.437-.078 9.894 9.894 0 00-1.36-.078c-.335 0-.605.008-.812.031-.21.02-.422.047-.64.079a6.943 6.943 0 01-.922.046zM8.155-.5c.29 0 .649-.086 1.078-.266.426-.187.852-.476 1.282-.875.425-.394.78-.925 1.062-1.593.29-.676.438-1.508.438-2.5 0-1.157-.153-2.079-.454-2.766-.292-.695-.656-1.223-1.093-1.578-.438-.363-.887-.602-1.344-.719-.45-.125-.836-.187-1.156-.187-.469 0-.961.105-1.469.312-.512.2-.938.422-1.281.672-.344.242-.516.43-.516.563 0 .437-.008.882-.016 1.328-.011.449-.023.882-.03 1.296-.012.418-.024.793-.032 1.125a21.27 21.27 0 00-.016.75c0 .793.18 1.528.547 2.204.375.68.832 1.218 1.375 1.625.54.406 1.082.609 1.625.609zm0 0"/></symbol><symbol overflow="visible" id="br"><path d="M1.969.156c-.262 0-.477-.039-.64-.11-.157-.07-.235-.163-.235-.28 0-.196.316-.36.953-.485.758-.133 1.254-.36 1.484-.672.227-.32.344-.836.344-1.546v-13.454c0-.695-.078-1.187-.234-1.468-.149-.29-.594-.504-1.344-.641-.656-.125-.985-.305-.985-.547 0-.113.067-.203.204-.265.132-.07.351-.11.656-.11.531 0 .945.012 1.25.031.3.012.578.024.828.032.258.011.586.015.984.015.414 0 .754-.004 1.016-.015.27-.008.563-.02.875-.032.313-.02.734-.03 1.266-.03.57 0 .859.124.859.374 0 .149-.078.262-.234.344-.157.074-.407.14-.75.203-.73.137-1.25.383-1.563.734-.305.344-.453.805-.453 1.375v5.86c0 .117.047.187.14.219a.93.93 0 00.266.046h11.047c.133 0 .203-.117.203-.359v-5.797c0-.531-.14-.973-.422-1.328-.273-.363-.78-.613-1.53-.75-.345-.063-.595-.129-.75-.203-.157-.082-.235-.195-.235-.344 0-.25.285-.375.86-.375.53 0 .968.012 1.312.031.351.012.687.024 1 .032a32.363 32.363 0 001.968 0c.196-.008.426-.02.688-.032.258-.02.656-.03 1.187-.03.282 0 .493.038.641.108.145.063.219.153.219.266 0 .242-.328.422-.985.547-.73.137-1.172.375-1.328.719-.156.336-.234.789-.234 1.36V-2.97c0 .73.094 1.258.281 1.578.188.313.645.54 1.375.672.633.125.953.29.953.485 0 .117-.078.21-.234.28-.156.071-.367.11-.625.11-.543 0-.965-.015-1.266-.047-.293-.03-.57-.058-.828-.078-.25-.023-.586-.031-1-.031-.418 0-.762.008-1.031.031-.274.02-.563.047-.875.078-.313.032-.742.047-1.281.047-.262 0-.47-.039-.625-.11-.157-.07-.235-.163-.235-.28 0-.145.07-.243.219-.297.145-.063.39-.125.734-.188.633-.113 1.133-.344 1.5-.687.364-.352.547-.848.547-1.485v-5.796-.297c0-.102-.047-.157-.14-.157H6.39c-.094 0-.141.11-.141.329v5.656c0 .617.223 1.148.672 1.594.457.449 1.023.73 1.703.843.344.063.586.125.734.188.145.054.22.152.22.297 0 .117-.079.21-.235.28-.156.071-.367.11-.625.11-.543 0-.985-.015-1.328-.047-.344-.03-.68-.058-1-.078C6.078.008 5.69 0 5.234 0c-.418 0-.773.008-1.062.031-.281.02-.59.047-.922.078-.324.032-.75.047-1.281.047zm0 0"/></symbol><symbol overflow="visible" id="bs"><path d="M14.406-.422c.203.094.594.125.594-.266 0-.265-.156-1.156-.719-1.421L3.875-7.281c-.094 0-.094-.094-.031-.157l10.203-5.171c.594-.297.922-1.172.922-1.516 0-.188-.094-.297-.266-.297a.538.538 0 00-.25.078L2.47-8.454c-.594.298-.985 1.11-.985 1.376 0 .172.72.562 1.22.797zm0 0"/></symbol><symbol overflow="visible" id="bu"><path d="M3.422.422c.89 0 1.64-.75 1.64-1.64 0-.891-.75-1.641-1.64-1.641-.89 0-1.64.75-1.64 1.64 0 .89.75 1.64 1.64 1.64zm0 0"/></symbol><symbol overflow="visible" id="bt"><path d="M6.813.39c3.953 0 7.14-2.14 7.14-5.624 0-2.204-1.719-3.454-3.89-4.844-.422-.281-.485-.39.171-.813.36-.203.86-.421 1.25-.593.954-.454 1.844-1.422 1.844-2.97 0-2.562-2.765-4.265-5.625-4.265-3.234 0-6.547 1.672-6.547 4.438 0 2.297 1.703 3.922 3.485 5.297.328.203.468.328.125.53C2.969-7.405.53-6.515.53-4.28.531-1.516 3.328.39 6.813.39zM8.53-11.452c-.172.203-.375.172-.64-.031-1.282-1.016-2.594-2.141-2.594-3.688 0-1.281.86-2.14 1.984-2.14 1.438 0 1.938 1.28 1.938 2.734 0 1.219-.203 2.594-.688 3.125zM7.344-.984c-1.516 0-2.5-1.72-2.5-3.454 0-1.515.218-2.468.984-3.203.219-.156.297-.25.39-.25.141 0 .235.125.438.297 1.25.985 3.016 2.563 3.016 4.078 0 1.407-.953 2.532-2.328 2.532zm0 0"/></symbol><symbol overflow="visible" id="bv"><path d="M3.984 1.125c4.641 0 8.985-2.797 8.985-7.14 0-2.938-2.313-4.641-5.5-4.641-.157 0-.157-.11-.032-.172 2.97-.531 4.22-2.89 4.22-4.219 0-2.234-2.048-3.672-4.454-3.672-4.437 0-6.047 3.094-6.047 3.75 0 .36.36.781.657.781.421 0 1.375-2.359 3.515-2.359 1.313 0 2.234.985 2.234 2.172 0 2-.812 3.016-3.484 4.438-.562.296-1.14.828-1.344 1.671-.093.36.485.594.813.438.265-.11.828-.688 1.922-.688 1.797 0 2.797 1.641 2.797 4.079 0 2.718-1.422 4.265-3.235 4.265-.922 0-1.734-.984-2.265-1.672-.235-.265-.438-.422-.75-.422-.641 0-.97 1.079-.97 1.907 0 .859 1.595 1.484 2.938 1.484zm0 0"/></symbol><symbol overflow="visible" id="bw"><path d="M2.594.094c1.297 0 3.86-.157 5.047-.157 1.171 0 3.906.126 5.156.126.297 0 .469-.157.469-.454 0-.39-.204-.5-.563-.625-1.547-.437-2.828-.796-2.828-1.906v-13.5c0-1.094.188-1.703.188-2.172 0-.203-.36-.328-.657-.328-.156 0-.297.094-.36.125-1.968.969-3.78 1.594-6.25 1.75-.5.031-.952.266-.952.797 0 .484.453.656.781.719 1.297.234 2.547.5 2.547 2v10.64c0 1.22-1.031 1.5-2.547 1.875-.36.094-.578.297-.578.657 0 .265.297.453.547.453zm0 0"/></symbol><symbol overflow="visible" id="bx"><path d="M7.14.422c5.36 0 7.563-5.36 7.563-9.86 0-4.312-2.328-9.328-7.203-9.328-5.36 0-7.563 5.235-7.563 9.782 0 4.406 2.297 9.406 7.204 9.406zm.454-1.469c-2.032 0-3.016-4.344-3.016-8.437 0-4.11.625-7.86 2.438-7.86 2 0 3.062 4.344 3.062 8.453 0 4.125-.703 7.844-2.484 7.844zm0 0"/></symbol><mask id="aI"><g filter="url(#a)"><path fill-opacity=".3" d="M0 0h433v342H0z"/></g></mask><mask id="aK"><g filter="url(#a)"><path fill-opacity=".3" d="M0 0h433v342H0z"/></g></mask><mask id="aM"><g filter="url(#a)"><path fill-opacity=".5" d="M0 0h433v342H0z"/></g></mask><mask id="bd"><g filter="url(#a)"><path fill-opacity=".5" d="M0 0h433v342H0z"/></g></mask><mask id="bi"><g filter="url(#a)"><path fill-opacity=".5" d="M0 0h433v342H0z"/></g></mask><g id="aH" clip-path="url(#aC)"><path d="M323.516 198.508v2.402l2.41 24.649c0 .171.605.312 1.363.312s1.363-.14 1.363-.312l2.184-24.649v-2.469" fill="#d4d4d4"/></g><g id="aJ" clip-path="url(#aD)"><path d="M323.516 198.508v2.402l2.41 24.649c.008-.176.613-.317 1.363-.317.746 0 1.36.14 1.363.317l2.184-24.649v-2.469" fill="#b0b0b0"/></g><g id="aL" clip-path="url(#aE)"><path d="M327.922 198.43v4.511l.594 11.168 1.363-11.945v-3.734" fill="#fff"/></g><g id="bc" clip-path="url(#aZ)"><path d="M124.816 198.43v4.511l.598 11.168 1.367-11.945v-3.734" fill="#fff"/></g><g id="bh" clip-path="url(#be)"><path d="M123.719 197.664c6.437 0 12.031 1.04 10.613 1.848-.25.148-.984.468-2.34.718-1.59.301-3.176.403-4.52.48a67.898 67.898 0 01-3.761.106c-6.438 0-9.39-.601-10.613-1.296-1.41-.817 4.183-1.856 10.62-1.856zm0 0" fill="#ccc" fill-rule="evenodd"/></g><linearGradient id="av" gradientUnits="userSpaceOnUse" x1="333.937" y1="297.73" x2="437.432" y2="297.73" gradientTransform="matrix(.86996 0 0 .86996 -8.4 -3.38)"><stop offset="0" stop-color="#d7d7d7"/><stop offset=".125" stop-color="#d7d7d7"/><stop offset=".25" stop-color="#d8d8d8"/><stop offset=".375" stop-color="#d8d8d8"/><stop offset=".5" stop-color="#d9d9d9"/><stop offset=".625" stop-color="#dadada"/><stop offset=".75" stop-color="#dadada"/><stop offset=".875" stop-color="#dbdbdb"/><stop offset="1" stop-color="#dcdcdc"/></linearGradient><linearGradient id="aT" gradientUnits="userSpaceOnUse" x1="100.172" y1="297.73" x2="203.661" y2="297.73" gradientTransform="matrix(.86996 0 0 .86996 -8.4 -3.38)"><stop offset="0" stop-color="#d7d7d7"/><stop offset=".125" stop-color="#d7d7d7"/><stop offset=".25" stop-color="#d8d8d8"/><stop offset=".375" stop-color="#d8d8d8"/><stop offset=".5" stop-color="#d9d9d9"/><stop offset=".625" stop-color="#dadada"/><stop offset=".75" stop-color="#dadada"/><stop offset=".875" stop-color="#dbdbdb"/><stop offset="1" stop-color="#dcdcdc"/></linearGradient><filter id="a" filterUnits="objectBoundingBox" x="0" y="0" width="1" height="1"><feColorMatrix in="SourceGraphic" values="0 0 0 0 1 0 0 0 0 1 0 0 0 0 1 0 0 0 1 0"/></filter></defs><g transform="translate(-2599.233 -1951.61)"><use xlink:href="#bq" x="2598.671" y="1976.717" width="100%" height="100%"/><use xlink:href="#br" x="2614.11" y="1976.717" width="100%" height="100%"/></g><use xlink:href="#bs" x="2646.471" y="1976.717" width="100%" height="100%" transform="translate(-2599.233 -1951.61)"/><g transform="translate(-2599.233 -1951.61)"><use xlink:href="#bt" x="2671.192" y="1976.717" width="100%" height="100%"/><use xlink:href="#bu" x="2685.739" y="1976.717" width="100%" height="100%"/><use xlink:href="#bv" x="2692.581" y="1976.717" width="100%" height="100%"/></g><path d="M122.993 13.113h43.824" fill="none" stroke="#000" stroke-width="1.594" stroke-miterlimit="10"/><path d="M166.817 13.113l-6.472-1.941 3.238 1.941h3.234" stroke="#000" stroke-width="1.594" stroke-linecap="round" stroke-linejoin="round" stroke-miterlimit="10"/><path d="M123.79 16.684h43.828" fill="none" stroke="#000" stroke-width="1.594" stroke-miterlimit="10"/><path d="M123.79 16.683l6.477 1.942-3.239-1.941h-3.238" stroke="#000" stroke-width="1.594" stroke-linecap="round" stroke-linejoin="round" stroke-miterlimit="10"/><path d="M182.689 35.867H363.25V0H182.689zm0 0" fill="#a83075"/><g transform="translate(-2599.233 -1951.61)" fill="#fff"><use xlink:href="#bt" x="2786.881" y="1976.717" width="100%" height="100%"/><use xlink:href="#bu" x="2801.428" y="1976.717" width="100%" height="100%"/><use xlink:href="#bv" x="2808.27" y="1976.717" width="100%" height="100%"/></g><use xlink:href="#bs" x="2831.057" y="1976.717" width="100%" height="100%" transform="translate(-2599.233 -1951.61)" fill="#fff"/><g transform="translate(-2599.233 -1951.61)" fill="#fff"><use xlink:href="#bq" x="2855.826" y="1976.717" width="100%" height="100%"/><use xlink:href="#br" x="2871.265" y="1976.717" width="100%" height="100%"/></g><use xlink:href="#bs" x="2903.626" y="1976.717" width="100%" height="100%" transform="translate(-2599.233 -1951.61)" fill="#fff"/><g transform="translate(-2599.233 -1951.61)" fill="#fff"><use xlink:href="#bw" x="2928.347" y="1976.717" width="100%" height="100%"/><use xlink:href="#bx" x="2942.894" y="1976.717" width="100%" height="100%"/></g></svg>