<svg xmlns="http://www.w3.org/2000/svg" xmlns:xlink="http://www.w3.org/1999/xlink" width="1273.729" height="197.613" viewBox="0 0 955.297 148.21" version="1.2"><defs><clipPath id="b"><path d="M0 0h911v571H0z"/></clipPath><clipPath id="c"><path d="M0 0h911v571H0z"/></clipPath><clipPath id="d"><path d="M0 0h911v571H0z"/></clipPath><clipPath id="e"><path d="M0 0h911v571H0z"/></clipPath><clipPath id="f"><path d="M0 0h911v571H0z"/></clipPath><clipPath id="g"><path d="M0 0h911v571H0z"/></clipPath><clipPath id="h"><path d="M0 0h911v571H0z"/></clipPath><clipPath id="i"><path d="M0 0h911v571H0z"/></clipPath><clipPath id="j"><path d="M0 0h911v571H0z"/></clipPath><clipPath id="k"><path d="M0 0h911v571H0z"/></clipPath><clipPath id="l"><path d="M0 0h911v571H0z"/></clipPath><clipPath id="m"><path d="M0 0h911v571H0z"/></clipPath><clipPath id="n"><path d="M0 0h911v571H0z"/></clipPath><clipPath id="o"><path d="M0 0h911v571H0z"/></clipPath><clipPath id="p"><path d="M0 0h911v571H0z"/></clipPath><clipPath id="q"><path d="M0 0h911v571H0z"/></clipPath><clipPath id="r"><path d="M0 0h911v571H0z"/></clipPath><clipPath id="s"><path d="M0 0h911v571H0z"/></clipPath><clipPath id="t"><path d="M0 0h911v571H0z"/></clipPath><clipPath id="u"><path d="M0 0h911v571H0z"/></clipPath><clipPath id="v"><path d="M0 0h911v571H0z"/></clipPath><clipPath id="w"><path d="M0 0h911v571H0z"/></clipPath><clipPath id="x"><path d="M0 0h911v571H0z"/></clipPath><clipPath id="y"><path d="M0 0h911v571H0z"/></clipPath><clipPath id="z"><path d="M0 0h911v571H0z"/></clipPath><clipPath id="A"><path d="M0 0h911v571H0z"/></clipPath><clipPath id="B"><path d="M0 0h911v571H0z"/></clipPath><clipPath id="C"><path d="M0 0h911v571H0z"/></clipPath><clipPath id="D"><path d="M0 0h911v571H0z"/></clipPath><clipPath id="E"><path d="M0 0h911v571H0z"/></clipPath><clipPath id="F"><path d="M0 0h911v571H0z"/></clipPath><clipPath id="G"><path d="M0 0h911v571H0z"/></clipPath><clipPath id="H"><path d="M0 0h911v571H0z"/></clipPath><clipPath id="I"><path d="M0 0h911v571H0z"/></clipPath><clipPath id="J"><path d="M0 0h911v571H0z"/></clipPath><clipPath id="K"><path d="M0 0h911v571H0z"/></clipPath><clipPath id="L"><path d="M0 0h911v571H0z"/></clipPath><clipPath id="M"><path d="M0 0h911v571H0z"/></clipPath><clipPath id="N"><path d="M0 0h911v571H0z"/></clipPath><clipPath id="O"><path d="M0 0h911v571H0z"/></clipPath><clipPath id="P"><path d="M0 0h911v571H0z"/></clipPath><clipPath id="Q"><path d="M0 0h911v571H0z"/></clipPath><clipPath id="R"><path d="M0 0h911v571H0z"/></clipPath><clipPath id="S"><path d="M0 0h911v571H0z"/></clipPath><clipPath id="T"><path d="M0 0h911v571H0z"/></clipPath><clipPath id="U"><path d="M0 0h911v571H0z"/></clipPath><clipPath id="V"><path d="M0 0h911v571H0z"/></clipPath><clipPath id="W"><path d="M0 0h911v571H0z"/></clipPath><clipPath id="X"><path d="M0 0h911v571H0z"/></clipPath><clipPath id="Y"><path d="M0 0h911v571H0z"/></clipPath><clipPath id="Z"><path d="M0 0h911v571H0z"/></clipPath><clipPath id="aa"><path d="M0 0h911v571H0z"/></clipPath><clipPath id="ab"><path d="M0 0h911v571H0z"/></clipPath><clipPath id="ac"><path d="M0 0h911v571H0z"/></clipPath><clipPath id="ad"><path d="M0 0h911v571H0z"/></clipPath><clipPath id="ae"><path d="M0 0h911v571H0z"/></clipPath><clipPath id="af"><path d="M0 0h911v571H0z"/></clipPath><clipPath id="ag"><path d="M0 0h911v571H0z"/></clipPath><clipPath id="ah"><path d="M0 0h911v571H0z"/></clipPath><clipPath id="ai"><path d="M0 0h911v571H0z"/></clipPath><clipPath id="aj"><path d="M0 0h911v571H0z"/></clipPath><clipPath id="ak"><path d="M0 0h911v571H0z"/></clipPath><clipPath id="al"><path d="M0 0h911v571H0z"/></clipPath><clipPath id="am"><path d="M0 0h911v571H0z"/></clipPath><clipPath id="an"><path d="M0 0h911v571H0z"/></clipPath><clipPath id="ao"><path d="M0 0h911v571H0z"/></clipPath><clipPath id="ap"><path d="M0 0h911v571H0z"/></clipPath><clipPath id="aq"><path d="M0 0h911v571H0z"/></clipPath><clipPath id="ar"><path d="M0 0h433v342H0z"/></clipPath><clipPath id="at"><path d="M284 200h87v111h-87zm0 0"/></clipPath><clipPath id="au"><path d="M369.527 293.71l-32.015-55.44v-36.516c0-.543.234-1.043.613-1.41h-22.078c.387.36.621.867.621 1.41v37.851l-31.242 54.106c-3.317 5.738.191 12.793 6.363 13.953 6.602 1.93 20.113 3.254 35.719 3.254 15.695 0 29.273-1.34 35.836-3.29a9.24 9.24 0 003.129-1.284c.066-.047.132-.086.191-.125 3.844-2.63 5.48-7.977 2.863-12.508zm0 0"/></clipPath><clipPath id="as"><path d="M0 0h433v342H0z"/></clipPath><clipPath id="aw"><path d="M0 0h433v342H0z"/></clipPath><clipPath id="ax"><path d="M0 0h433v342H0z"/></clipPath><clipPath id="ay"><path d="M0 0h433v342H0z"/></clipPath><clipPath id="az"><path d="M0 0h433v342H0z"/></clipPath><clipPath id="aA"><path d="M0 0h433v342H0z"/></clipPath><clipPath id="aB"><path d="M0 0h433v342H0z"/></clipPath><clipPath id="aG"><path d="M.742.566h431.95V341.04H.741zm0 0"/></clipPath><clipPath id="aC"><path d="M0 0h433v342H0z"/></clipPath><clipPath id="aD"><path d="M0 0h433v342H0z"/></clipPath><clipPath id="aE"><path d="M0 0h433v342H0z"/></clipPath><clipPath id="aF"><path d="M0 0h433v342H0z"/></clipPath><clipPath id="aN"><path d="M0 0h433v342H0z"/></clipPath><clipPath id="aO"><path d="M0 0h433v342H0z"/></clipPath><clipPath id="aP"><path d="M0 0h433v342H0z"/></clipPath><clipPath id="aR"><path d="M80 200h88v111H80zm0 0"/></clipPath><clipPath id="aS"><path d="M166.156 293.71l-32.015-55.44v-36.516c0-.543.234-1.043.62-1.41h-22.077c.379.36.613.867.613 1.41v37.851l-31.238 54.106c-3.313 5.738.187 12.793 6.359 13.953 6.602 1.93 20.113 3.254 35.719 3.254 15.695 0 29.273-1.34 35.836-3.29a9.24 9.24 0 003.129-1.284l.191-.125c3.848-2.63 5.48-7.977 2.863-12.508zm0 0"/></clipPath><clipPath id="aQ"><path d="M0 0h433v342H0z"/></clipPath><clipPath id="aU"><path d="M0 0h433v342H0z"/></clipPath><clipPath id="aV"><path d="M0 0h433v342H0z"/></clipPath><clipPath id="aW"><path d="M0 0h433v342H0z"/></clipPath><clipPath id="aX"><path d="M0 0h433v342H0z"/></clipPath><clipPath id="aY"><path d="M0 0h433v342H0z"/></clipPath><clipPath id="bb"><path d="M.742.566h431.95V341.04H.741zm0 0"/></clipPath><clipPath id="aZ"><path d="M0 0h433v342H0z"/></clipPath><clipPath id="ba"><path d="M0 0h433v342H0z"/></clipPath><clipPath id="bg"><path d="M.742.566h431.95V341.04H.741zm0 0"/></clipPath><clipPath id="be"><path d="M0 0h433v342H0z"/></clipPath><clipPath id="bf"><path d="M0 0h433v342H0z"/></clipPath><clipPath id="bj"><path d="M0 0h433v342H0z"/></clipPath><clipPath id="bk"><path d="M0 0h433v342H0z"/></clipPath><clipPath id="bl"><path d="M0 0h433v342H0z"/></clipPath><clipPath id="bm"><path d="M0 0h433v342H0z"/></clipPath><clipPath id="bn"><path d="M0 0h433v342H0z"/></clipPath><clipPath id="bo"><path d="M0 0h433v342H0z"/></clipPath><clipPath id="bp"><path d="M0 0h433v342H0z"/></clipPath><symbol overflow="visible" id="bT"><path d="M1.453.094c-.2 0-.351-.028-.453-.078C.906-.035.86-.117.86-.234c0-.157.054-.258.171-.313.125-.05.297-.11.516-.172.375-.094.656-.234.844-.422a.954.954 0 00.28-.703v-6.39c0-.54-.077-1.008-.233-1.407-.157-.394-.485-.64-.985-.734a.375.375 0 01-.203-.156.393.393 0 01-.094-.235c0-.195.086-.316.266-.359a8.658 8.658 0 001.625-.688 36.931 36.931 0 001.328-.765c.113-.082.207-.14.281-.172a.456.456 0 01.157-.047c.101 0 .156.074.156.219 0 .055-.008.2-.016.437-.012.243-.023.524-.031.844-.012.313-.027.625-.047.938 0 .043.02.062.063.062.32-.394.675-.738 1.062-1.031.383-.3.781-.54 1.188-.719a2.95 2.95 0 011.171-.265c.414 0 .754.09 1.016.265.27.18.406.406.406.688 0 .199-.058.418-.172.656-.105.23-.246.437-.421.625-.18.18-.368.265-.563.265a1.1 1.1 0 01-.39-.078 5.446 5.446 0 01-.438-.187c-.156-.063-.32-.125-.484-.188a1.254 1.254 0 00-.47-.093c-.48 0-.945.171-1.39.515-.437.336-.656.996-.656 1.985v6.015c0 .262.133.477.406.64.281.169.664.329 1.156.485.22.063.383.125.5.188.125.054.188.152.188.297 0 .218-.2.328-.594.328-.594 0-1.047-.028-1.36-.078a7.703 7.703 0 00-1.218-.079c-.344 0-.621.012-.828.032-.211.023-.43.047-.656.078-.23.031-.543.047-.938.047zm0 0"/></symbol><symbol overflow="visible" id="bP"><path d="M6.969.422c-1.117 0-2.121-.258-3.016-.766a5.878 5.878 0 01-2.125-2.14c-.523-.907-.781-1.93-.781-3.079 0-.832.16-1.644.484-2.437.32-.79.782-1.516 1.375-2.172A6.946 6.946 0 015-11.734a5.8 5.8 0 012.563-.579c1.144 0 2.175.278 3.093.829a6.285 6.285 0 012.203 2.187c.551.906.829 1.89.829 2.953 0 1.157-.258 2.25-.766 3.282a6.14 6.14 0 01-2.25 2.515C9.68.098 8.445.422 6.969.422zm.625-.89c.664 0 1.265-.13 1.797-.391.539-.258.96-.676 1.265-1.25.227-.457.383-1.016.469-1.672.082-.656.125-1.27.125-1.844 0-.945-.18-1.863-.531-2.75-.344-.883-.828-1.61-1.453-2.172a3.212 3.212 0 00-2.22-.844c-.53 0-1.01.086-1.437.25-.43.168-.82.48-1.171.938-.399.5-.657 1.11-.782 1.828-.117.71-.172 1.418-.172 2.125 0 .969.176 1.898.532 2.781.351.887.836 1.61 1.453 2.172.613.555 1.32.828 2.125.828zm0 0"/></symbol><symbol overflow="visible" id="bR"><path d="M10.89.563c-.136 0-.203-.079-.203-.235 0-.2.02-.488.063-.875.05-.383.078-.707.078-.969v-.109-.078c-.773.762-1.555 1.308-2.344 1.64a6.697 6.697 0 01-2.562.485A3.71 3.71 0 014.188.016a2.994 2.994 0 01-1.22-1.188c-.292-.531-.437-1.18-.437-1.953v-6.031c0-.438-.101-.785-.297-1.047-.199-.258-.527-.477-.984-.656A1.35 1.35 0 01.969-11c-.074-.063-.11-.172-.11-.328 0-.188.04-.305.125-.36a.87.87 0 01.329-.124c.675-.04 1.195-.094 1.562-.157.363-.07.82-.176 1.375-.312a.547.547 0 01.14-.031h.11c.207 0 .305.136.297.406-.063.46-.11.844-.14 1.156-.032.305-.048.684-.048 1.14v5.797c0 .481.118.922.36 1.329.238.406.55.742.937 1a2.1 2.1 0 001.203.39c.52 0 .973-.031 1.36-.093.383-.063.765-.235 1.14-.516.22-.156.493-.41.829-.766.343-.351.515-.836.515-1.453v-5.453c0-.414-.125-.727-.375-.938a2.062 2.062 0 00-.86-.421 3.193 3.193 0 00-.765-.125.997.997 0 01-.453-.094c-.117-.07-.172-.207-.172-.406 0-.176.063-.297.188-.36.132-.062.28-.094.437-.094.613-.019 1.125-.046 1.531-.078a9.76 9.76 0 001.094-.14c.332-.07.676-.157 1.031-.25a.62.62 0 01.157-.047c.062-.008.109-.016.14-.016.258 0 .39.11.39.328 0 .024-.007.059-.015.11a4.701 4.701 0 01-.047.156c-.023.062-.046.234-.078.516-.023.273-.047.558-.078.859a6.819 6.819 0 00-.047.672v6.875c0 .543.051.93.156 1.156.114.219.239.328.375.328.157 0 .383-.008.688-.031.312-.031.54-.047.687-.047.094 0 .188.024.282.063.101.03.156.136.156.312 0 .168-.043.277-.125.328a.849.849 0 01-.281.094c-.782.105-1.45.258-2 .453a31.12 31.12 0 00-1.485.563c-.062.02-.156.05-.28.093a.797.797 0 01-.313.078zm0 0"/></symbol><symbol overflow="visible" id="bS"><path d="M6.344.453c-1.094 0-2.047-.266-2.86-.797-.812-.539-1.449-1.3-1.906-2.281-.46-.988-.687-2.129-.687-3.422 0-1.144.257-2.187.78-3.125a6.474 6.474 0 012.11-2.281 5.137 5.137 0 012.86-.86c.789 0 1.492.165 2.109.485.613.312 1.094.75 1.438 1.312.343.563.515 1.215.515 1.954 0 .617-.297.921-.89.921H3.546c-.281 0-.48.075-.594.22-.105.148-.156.437-.156.874 0 .961.207 1.828.625 2.61a5.142 5.142 0 001.656 1.874c.695.461 1.461.688 2.297.688.594 0 1.133-.11 1.625-.328a3.828 3.828 0 001.297-1 .634.634 0 01.172-.188.248.248 0 01.156-.046c.156 0 .234.101.234.296 0 .375-.18.793-.53 1.25a4.995 4.995 0 01-1.079.985 5.174 5.174 0 01-1.375.625c-.492.156-1 .234-1.531.234zm-2.75-9.015h2.719c.468 0 .867-.008 1.203-.032a7.52 7.52 0 001-.125c.093-.02.156-.082.187-.187.031-.114.047-.27.047-.469 0-.57-.258-1.063-.766-1.469-.5-.406-1.101-.61-1.796-.61-.461 0-.918.138-1.375.407-.45.262-.825.594-1.125 1-.293.399-.438.793-.438 1.188 0 .199.113.296.344.296zm0 0"/></symbol><symbol overflow="visible" id="ca"><path d="M4.281.422A5.054 5.054 0 012.547.125a4.002 4.002 0 01-1.36-.781C1.095-.875 1.02-1.238.97-1.75c-.055-.52-.09-.945-.11-1.281 0-.176.13-.266.391-.266.082 0 .156.016.219.047.07.023.117.074.14.156.258.969.672 1.664 1.235 2.078.562.418 1.129.625 1.703.625.582 0 1.078-.191 1.484-.578.407-.383.61-.863.61-1.437 0-.54-.184-1.004-.547-1.39-.356-.384-.98-.852-1.875-1.407-.668-.414-1.211-.813-1.625-1.188-.418-.382-.727-.773-.922-1.171a3.052 3.052 0 01-.281-1.329c0-.632.148-1.207.453-1.718.3-.52.75-.93 1.343-1.235.594-.312 1.336-.469 2.235-.469.594 0 1.086.063 1.484.188.395.117.692.242.89.375.157.219.286.563.391 1.031.114.461.172.899.172 1.313 0 .148-.101.219-.296.219a.774.774 0 01-.344-.079.461.461 0 01-.219-.187c-.262-.656-.586-1.156-.969-1.5-.386-.352-.867-.531-1.437-.531-.5 0-.946.152-1.328.453-.387.293-.579.726-.579 1.297 0 .46.141.87.422 1.234.29.355.832.762 1.625 1.219 1.157.648 2.016 1.258 2.579 1.828.562.562.843 1.308.843 2.234 0 1.074-.406 1.95-1.219 2.625C6.625.082 5.57.422 4.281.422zm0 0"/></symbol><symbol overflow="visible" id="bU"><path d="M5.625.422c-.969 0-1.73-.297-2.281-.89C2.8-1.07 2.53-1.958 2.53-3.126v-6.906c0-.156-.062-.266-.187-.328-.117-.07-.371-.11-.766-.11h-.187c-.094 0-.18-.062-.25-.187a.95.95 0 01-.094-.406c0-.04.023-.098.078-.172.063-.082.102-.133.125-.157.395-.28.754-.554 1.078-.828.332-.281.629-.554.89-.828.27-.27.493-.515.673-.734.101-.094.187-.172.25-.235.07-.07.16-.109.265-.109a.63.63 0 01.266.063c.094.03.133.12.125.265l-.156 1.328c-.024.219.023.371.14.453.125.075.317.11.578.11H8.75c.07 0 .14.07.203.203.063.125.094.277.094.453 0 .18-.031.355-.094.531-.062.168-.133.25-.203.25H5.797c-.492 0-.813.043-.969.125-.148.074-.219.309-.219.703v5.86c0 .793.164 1.418.5 1.875.344.46.832.687 1.47.687.57 0 1.015-.039 1.327-.125.32-.093.614-.226.875-.406.031-.04.067-.063.11-.063.082 0 .14.047.171.141.032.086.047.18.047.281 0 .094-.168.293-.5.594-.324.293-.75.57-1.28.828a3.8 3.8 0 01-1.704.39zm0 0"/></symbol><symbol overflow="visible" id="bZ"><path d="M3.484.422c-.367 0-.73-.14-1.093-.422a3.82 3.82 0 01-.922-1.016c-.25-.394-.375-.77-.375-1.125 0-.632.164-1.129.5-1.484.343-.363.883-.691 1.625-.984L6.25-5.86c.395-.157.625-.29.688-.407.07-.125.117-.382.14-.78l.063-1.907c.02-.52-.125-.969-.438-1.344-.305-.375-.742-.562-1.312-.562-.305 0-.606.054-.907.156-.293.094-.539.219-.734.375a.598.598 0 00-.25.36 2.634 2.634 0 00-.031.78c.008.094.015.184.015.266 0 .094-.125.23-.375.406-.25.168-.53.313-.843.438-.305.125-.555.187-.75.187a.404.404 0 01-.235-.062.247.247 0 01-.093-.203c0-.313.101-.649.312-1.016.207-.375.5-.719.875-1.031a9.032 9.032 0 011.484-1.094c.54-.32 1.067-.57 1.579-.75.519-.176.976-.265 1.375-.265.718 0 1.304.257 1.765.765.469.5.692 1.125.672 1.875l-.14 7.14c-.024.419.07.759.28 1.016.208.262.47.391.782.391.5 0 .867-.11 1.11-.328.093-.102.171-.156.234-.156a.318.318 0 01.328.328c0 .218-.11.437-.328.656a4.39 4.39 0 01-1.032.75c-.367.195-.71.297-1.03.297-.907 0-1.634-.516-2.173-1.547h-.078c-.656.531-1.281.922-1.875 1.172-.594.25-1.21.375-1.844.375zm1.391-1.438c.395 0 .734-.062 1.016-.187.28-.125.53-.297.75-.516.093-.101.171-.238.234-.406.07-.164.117-.438.14-.813l.063-1.468c.02-.219.008-.375-.031-.469a.237.237 0 00-.234-.156c-.043 0-.118.011-.22.031a2.96 2.96 0 00-.374.125c-1.055.375-1.782.766-2.188 1.172-.406.406-.61.777-.61 1.11 0 .523.15.917.454 1.187.313.261.645.39 1 .39zm0 0"/></symbol><symbol overflow="visible" id="bX"><path d="M1.156.094C1.063.094.938.078.781.047.633.016.562-.055.562-.172c0-.164.07-.281.22-.344.155-.07.312-.14.468-.203.3-.094.586-.203.86-.328.28-.133.421-.398.421-.797v-15c0-.57-.105-1.05-.312-1.437-.211-.383-.563-.63-1.063-.735-.156-.03-.234-.156-.234-.375 0-.195.066-.316.203-.359a14.478 14.478 0 002.39-.766c.333-.144.66-.28.985-.406a.456.456 0 01.172-.047c.039 0 .07.028.094.078a.217.217 0 01.046.125c0 .18-.039.559-.109 1.141-.062.586-.094 1.555-.094 2.906v14.875c0 .399.133.664.407.797.28.125.57.235.875.328.156.063.304.133.453.203.156.063.234.18.234.344 0 .117-.078.188-.234.219a1.809 1.809 0 01-.36.047c-.375 0-.68-.016-.906-.047-.23-.031-.45-.055-.656-.078a9.672 9.672 0 00-.86-.032c-.335 0-.609.012-.828.032-.218.023-.437.047-.656.078a6.943 6.943 0 01-.922.047zm0 0"/></symbol><symbol overflow="visible" id="bM"><path d="M6.344.453c-1 0-1.903-.258-2.703-.766C2.836-.82 2.203-1.516 1.734-2.39c-.46-.882-.687-1.875-.687-2.968 0-1.282.281-2.446.844-3.5.562-1.051 1.316-1.891 2.265-2.516a5.651 5.651 0 013.157-.938c1.289 0 2.421.344 3.39 1.032.238.187.36.383.36.578 0 .156-.07.336-.204.531-.136.2-.304.367-.5.5-.199.125-.39.188-.578.188a.508.508 0 01-.297-.11 3.673 3.673 0 00-.328-.219 9.838 9.838 0 00-1.453-.953c-.531-.3-.98-.453-1.344-.453-.968 0-1.757.453-2.359 1.36-.605.898-.906 2.078-.906 3.546 0 .938.203 1.79.61 2.547.405.75.944 1.344 1.624 1.782.688.43 1.445.64 2.281.64.582 0 1.082-.093 1.5-.281.414-.188.86-.52 1.329-1a.914.914 0 01.156-.094.36.36 0 01.14-.047c.22 0 .329.141.329.422 0 .117-.04.25-.11.406-.062.149-.172.32-.328.516A5.046 5.046 0 019.485-.39a4.987 4.987 0 01-1.438.625 6.372 6.372 0 01-1.703.22zm0 0"/></symbol><symbol overflow="visible" id="br"><path d="M9.672.094A.973.973 0 019.297 0c-.149-.063-.219-.148-.219-.266 0-.156.07-.273.219-.359a1.5 1.5 0 01.469-.172c.53-.164.875-.344 1.03-.531.157-.188.157-.52 0-1l-.5-1.594c-.023-.101-.07-.164-.14-.187-.062-.02-.203-.032-.422-.032H5.266a.47.47 0 00-.282.079.61.61 0 00-.187.28c-.242.524-.402.903-.484 1.141-.086.23-.125.465-.125.704 0 .375.109.636.328.78.218.137.476.259.78.36.157.055.306.117.454.188.156.074.234.187.234.343 0 .118-.078.204-.234.266a.975.975 0 01-.36.094c-.386 0-.695-.016-.921-.047-.219-.031-.434-.055-.64-.078A9.206 9.206 0 003-.063c-.336 0-.594.012-.781.032-.188.023-.383.047-.578.078-.2.031-.496.047-.891.047A.973.973 0 01.375 0C.227-.063.156-.148.156-.266c0-.156.07-.27.219-.343a2.64 2.64 0 01.453-.172c.32-.07.613-.149.875-.235.27-.093.535-.265.797-.515.258-.25.508-.649.75-1.203l3.438-7.97c.218-.5.32-.862.312-1.093-.012-.226.004-.363.047-.406.101-.094.234-.219.39-.375.157-.164.305-.332.454-.5.156-.164.265-.281.328-.344.113-.133.207-.226.281-.281.082-.05.145-.078.188-.078.062 0 .101.023.124.062a.65.65 0 01.079.219l4.015 10.312c.196.5.442.997.735 1.485.289.48.734.781 1.328.906a.97.97 0 01.453.156c.156.094.234.22.234.375 0 .118-.078.203-.234.266a1.006 1.006 0 01-.375.094 9.414 9.414 0 01-1.36-.078 8.33 8.33 0 00-1.25-.079c-.335 0-.64.012-.921.032-.282.023-.563.047-.844.078a8.991 8.991 0 01-1 .047zM5.89-5.203h3.562c.164 0 .258-.016.281-.047.02-.031.008-.113-.03-.25a26.774 26.774 0 00-.875-2.297c-.2-.488-.384-.953-.548-1.39l-.39-1.016c-.086-.219-.153-.328-.204-.328-.054 0-.125.11-.218.328a638.2 638.2 0 00-.953 2.265C6.14-7.05 5.8-6.237 5.5-5.5c-.055.137-.047.219.016.25.07.031.195.047.375.047zm0 0"/></symbol><symbol overflow="visible" id="bs"><path d="M14.547.422c-.117 0-.258-.04-.422-.11a1.699 1.699 0 01-.438-.296 4.474 4.474 0 01-.421-.407L5.922-9.453a2.122 2.122 0 00-.438-.406c-.148-.114-.25-.172-.312-.172-.074 0-.125.07-.156.203a2.793 2.793 0 00-.047.61 187.268 187.268 0 00.062 4.952c.02.72.047 1.36.078 1.922.04.531.176.906.407 1.125.226.219.601.375 1.125.469.156.023.312.07.468.14.157.075.235.188.235.344 0 .118-.074.204-.219.266a1.006 1.006 0 01-.375.094c-.574 0-1-.032-1.281-.094-.274-.063-.649-.094-1.125-.094-.5 0-.914.032-1.235.094-.324.063-.777.094-1.359.094A1.08 1.08 0 011.375 0c-.148-.063-.219-.148-.219-.266 0-.156.078-.27.235-.343.164-.07.328-.118.484-.141.508-.094.914-.242 1.219-.453.3-.207.469-.586.5-1.14.02-.188.039-.532.062-1.032.02-.508.04-1.098.063-1.766.02-.675.035-1.375.047-2.093.007-.727.02-1.41.03-2.047.009-.633.017-1.14.017-1.516 0-.176-.118-.39-.344-.64a4.294 4.294 0 00-.86-.704 2.603 2.603 0 00-1-.406c-.18-.039-.343-.11-.5-.203-.148-.102-.218-.227-.218-.375 0-.113.07-.203.218-.266a1.08 1.08 0 01.375-.093c.301 0 .598.007.891.015.3.012.613.028.938.047.332.024.671.04 1.015.047.344.012.707.016 1.094.016.113 0 .223.054.328.156.113.094.21.195.297.297l7.219 8.656.171.234c.083.094.157.141.22.141.038 0 .07-.023.093-.078a.697.697 0 00.047-.297l-.11-6.188c-.023-.593-.156-1.066-.406-1.421-.25-.364-.695-.594-1.328-.688-.18-.039-.34-.11-.484-.203-.149-.102-.219-.227-.219-.375 0-.113.07-.203.219-.266a.973.973 0 01.375-.093c.394 0 .71.011.953.03.238.024.473.048.703.079.238.031.54.047.906.047.352 0 .617-.016.797-.047.176-.031.367-.055.578-.078.207-.02.5-.031.875-.031.102 0 .227.03.375.093.145.063.219.153.219.266 0 .148-.074.273-.219.375a1.519 1.519 0 01-.484.203c-.617.094-1.024.324-1.219.688-.2.355-.297.828-.297 1.421v9.813c0 .305-.043.555-.125.75-.086.195-.203.297-.36.297zm0 0"/></symbol><symbol overflow="visible" id="bw"><path d="M1.484.094A1.08 1.08 0 011.11 0C.961-.063.891-.148.891-.266c0-.156.078-.27.234-.343.164-.07.328-.118.484-.141.508-.094.961-.25 1.36-.469.394-.218.594-.593.594-1.125v-8.125c0-.613-.133-1.086-.391-1.422-.25-.343-.695-.562-1.328-.656-.18-.039-.344-.11-.5-.203-.149-.102-.219-.227-.219-.375 0-.113.07-.203.219-.266a1.08 1.08 0 01.375-.093c.406 0 .742.011 1.015.03.282.024.555.048.829.079.28.031.593.047.937.047a262.971 262.971 0 003.89-.047c.614-.008 1.176-.02 1.688-.031.52-.008.945-.016 1.281-.016.063 0 .133.012.22.031.093.024.14.075.14.157.039.75.097 1.343.172 1.78.082.438.125.759.125.954a.614.614 0 01-.079.25c-.042.094-.093.14-.156.14-.086 0-.183-.038-.297-.124a1.046 1.046 0 01-.265-.422 6.142 6.142 0 00-.657-1.235c-.242-.343-.617-.515-1.125-.515h-2.89c-.125 0-.281.043-.469.125-.187.074-.281.21-.281.406v3.969c0 .093.035.234.11.422.07.187.144.28.218.28h2.36c.312 0 .538-.1.687-.312.156-.207.289-.488.406-.843.04-.102.098-.211.172-.329.082-.113.176-.171.281-.171a.3.3 0 01.266.156c.07.094.098.187.078.281a68.37 68.37 0 01-.047.844 10.654 10.654 0 000 1.61c.031.273.055.546.078.827.02.075 0 .18-.062.313-.055.125-.133.187-.235.187-.18 0-.304-.101-.375-.312a1.982 1.982 0 00-.156-.406c-.086-.313-.226-.52-.422-.625-.199-.114-.375-.18-.531-.204a7.85 7.85 0 00-1.031-.062H6.547c-.281 0-.48.023-.594.063-.105.042-.156.199-.156.468v3.39c0 .544.05.888.156 1.032.113.137.39.203.828.203h2.985c.613 0 1.129-.176 1.546-.531.415-.363.723-.766.922-1.203.032-.063.07-.149.125-.266.051-.113.145-.172.282-.172.144 0 .226.059.25.172.03.106.046.203.046.297-.042.399-.117.828-.218 1.297a16.25 16.25 0 01-.282 1.203c-.023.086-.09.168-.203.25a.547.547 0 01-.296.11c-.743 0-1.454-.012-2.141-.032-.68-.023-1.328-.035-1.953-.047A65.478 65.478 0 016.03-.062a48.204 48.204 0 00-1.625-.032c-.355 0-.683.016-.984.047l-.906.094a9.869 9.869 0 01-1.032.047zm0 0"/></symbol><symbol overflow="visible" id="bq"><path d="M13.984.422c-.398 0-.777-.063-1.14-.188a3.528 3.528 0 01-1-.515A5.061 5.061 0 0111-1.078c-.2-.227-.46-.586-.781-1.078a59.255 59.255 0 01-1-1.563c-.336-.55-.61-1.035-.828-1.453-.118-.219-.368-.414-.75-.594a2.76 2.76 0 00-1.25-.28c-.094 0-.22.046-.375.14-.149.093-.22.21-.22.343v3.22c0 .53.118.898.36 1.093.239.2.614.352 1.125.453.164.012.328.055.485.125.156.074.234.188.234.344 0 .117-.074.203-.219.266a1.006 1.006 0 01-.375.093c-.293 0-.547-.008-.765-.015a9.739 9.739 0 01-.625-.047c-.188-.02-.387-.035-.594-.047-.211-.008-.45-.016-.719-.016-.418 0-.797.016-1.14.047l-1 .094c-.325.031-.684.047-1.079.047A1.08 1.08 0 011.11 0C.961-.063.891-.148.891-.266c0-.156.078-.27.234-.343.164-.07.328-.118.484-.141.508-.094.961-.25 1.36-.469.394-.218.594-.593.594-1.125v-8.125c0-.613-.133-1.086-.391-1.422-.25-.343-.695-.562-1.328-.656-.18-.039-.344-.11-.5-.203-.149-.102-.219-.227-.219-.375 0-.113.07-.203.219-.266a1.08 1.08 0 01.375-.093c.406 0 .742.011 1.015.03.282.024.555.048.829.079.28.031.593.047.937.047.406 0 .922-.024 1.547-.078.625-.051 1.242-.078 1.86-.078.874 0 1.69.105 2.452.312.77.2 1.391.543 1.86 1.031.476.48.719 1.157.719 2.032.019.574-.102 1.086-.36 1.53-.25.45-.57.813-.953 1.095-.375.273-.75.464-1.125.578-.2.062-.266.164-.203.297A17.463 17.463 0 0012-3.36c.352.511.676.949.969 1.312.219.23.504.453.86.672.362.219.718.402 1.062.547.343.137.597.215.765.234.094.024.203.059.328.11.133.043.204.148.204.312 0 .117-.122.211-.36.297a4.325 4.325 0 01-.875.219c-.336.05-.656.078-.969.078zM6.547-6.875c1.125 0 2.078-.219 2.86-.656.788-.438 1.175-1.196 1.155-2.282 0-.632-.187-1.156-.562-1.562-.375-.406-.852-.71-1.422-.922a5.078 5.078 0 00-1.765-.312c-.375 0-.641.058-.797.171-.149.106-.22.325-.22.657v4.172c0 .355.063.57.188.64.133.063.32.094.563.094zm0 0"/></symbol><symbol overflow="visible" id="bK"><path d="M1.484.094A1.08 1.08 0 011.11 0C.961-.063.891-.148.891-.266c0-.156.078-.27.234-.343.164-.07.328-.118.484-.141.508-.094.961-.25 1.36-.469.394-.218.594-.593.594-1.125v-8.125c0-.613-.133-1.086-.391-1.422-.25-.343-.695-.562-1.328-.656-.18-.039-.344-.11-.5-.203-.149-.102-.219-.227-.219-.375 0-.113.07-.203.219-.266a1.08 1.08 0 01.375-.093c.406 0 .758.011 1.062.03.313.024.617.048.922.079.313.031.645.047 1 .047.352 0 .676-.016.969-.047a17.264 17.264 0 011.969-.11c.101 0 .226.032.375.094.144.063.218.153.218.266 0 .148-.074.273-.218.375a1.519 1.519 0 01-.485.203c-.418.055-.75.168-1 .344-.25.18-.437.406-.562.687-.117.282-.172.633-.172 1.047v8.125c0 .531.195.906.594 1.125.394.219.851.375 1.375.469.156.023.312.07.468.14.164.075.25.188.25.344 0 .118-.078.204-.234.266a.975.975 0 01-.36.094c-.386 0-.742-.016-1.062-.047-.324-.031-.656-.063-1-.094-.336-.031-.71-.047-1.125-.047-.418 0-.797.016-1.14.047l-1 .094c-.325.031-.684.047-1.079.047zm0 0"/></symbol><symbol overflow="visible" id="bY"><path d="M1.313.094A1.07 1.07 0 01.875.016a.256.256 0 01-.156-.25c0-.157.054-.258.172-.313.125-.05.289-.11.5-.172.3-.07.586-.176.859-.312.281-.145.422-.414.422-.813v-6.39c0-.54-.059-1-.172-1.375-.105-.375-.414-.63-.922-.766a.877.877 0 01-.219-.14c-.054-.051-.078-.133-.078-.25 0-.22.086-.337.266-.36.695-.176 1.258-.395 1.687-.656.438-.258.864-.547 1.282-.86.062-.039.117-.078.171-.109a.291.291 0 01.157-.047c.039 0 .078.024.11.063a.256.256 0 01.046.156c0 .137-.027.418-.078.844a8.51 8.51 0 00-.078 1.047c0 .085.004.164.015.234.008.062.024.105.047.125a7.617 7.617 0 012.219-1.484c.781-.333 1.64-.5 2.578-.5.969 0 1.77.398 2.406 1.187.633.793.954 1.773.954 2.938v6.343c0 .399.132.664.406.797.281.125.57.235.875.328.156.063.304.133.453.203.156.063.234.18.234.344 0 .117-.074.188-.219.219a1.746 1.746 0 01-.39.047c-.399 0-.703-.016-.922-.047-.219-.031-.43-.055-.625-.078-.2-.02-.477-.032-.828-.032-.336 0-.61.012-.828.032-.219.023-.446.047-.672.078-.23.031-.543.047-.938.047-.105 0-.23-.016-.375-.047-.148-.031-.218-.102-.218-.219 0-.164.07-.281.218-.344.145-.07.301-.14.47-.203.288-.094.577-.203.858-.328.282-.133.422-.398.422-.797v-6.25c0-.875-.246-1.55-.734-2.031-.492-.488-1.14-.742-1.953-.766-.711 0-1.336.118-1.875.344A6.217 6.217 0 005-9.703a.756.756 0 00-.188.328 1.49 1.49 0 00-.046.36v7.171c0 .399.132.668.406.813a4.1 4.1 0 00.875.312c.445.125.672.29.672.485 0 .117-.055.199-.157.25-.093.05-.242.078-.437.078-.398 0-.71-.016-.938-.047-.23-.031-.445-.055-.64-.078-.2-.02-.477-.032-.828-.032-.336 0-.606.012-.813.032-.21.023-.43.047-.656.078-.23.031-.543.047-.938.047zm0 0"/></symbol><symbol overflow="visible" id="bG"><path d="M3.188.094a.464.464 0 01-.344-.125c-.074-.082-.11-.16-.11-.235 0-.175.149-.304.454-.39.75-.196 1.363-.38 1.843-.547.489-.164.848-.399 1.078-.703.227-.313.344-.758.344-1.344v-11.36c0-.374-.121-.66-.36-.859a2.083 2.083 0 00-.921-.406 7.622 7.622 0 00-1.219-.156c-.2-.02-.375-.067-.531-.14a.4.4 0 01-.235-.376c0-.133.07-.25.22-.344.144-.101.316-.164.515-.187a16.934 16.934 0 002.39-.516c.708-.207 1.399-.648 2.079-1.328a.11.11 0 01.078-.031h.062c.102 0 .192.027.266.078.082.055.113.117.094.188a11.65 11.65 0 00-.094.968c-.012.344-.016.727-.016 1.14V-2.89c0 .5.094.883.281 1.141.188.25.504.453.954.61.457.148 1.097.32 1.921.515.114.023.223.07.329.14.113.063.171.15.171.25 0 .22-.14.329-.421.329-.555 0-1.063-.016-1.532-.047-.468-.031-.93-.055-1.375-.078a37.065 37.065 0 00-2.984 0c-.469.023-.945.047-1.422.078-.48.031-.984.047-1.516.047zm0 0"/></symbol><symbol overflow="visible" id="bF"><path d="M7.203.422a5.904 5.904 0 01-2.578-.578 5.2 5.2 0 01-1.953-1.625c-.492-.696-.735-1.5-.735-2.407 0-.875.223-1.617.672-2.234a6.3 6.3 0 011.625-1.531c.625-.406 1.188-.75 1.688-1.031.133-.082.18-.141.14-.172a2.068 2.068 0 00-.234-.219c-.594-.508-1.156-1-1.687-1.469a6.232 6.232 0 01-1.282-1.578c-.324-.582-.484-1.289-.484-2.125 0-.77.266-1.473.797-2.11.539-.632 1.226-1.14 2.062-1.515a6.079 6.079 0 012.563-.578c.789 0 1.547.168 2.266.5.726.324 1.32.79 1.78 1.39.458.594.688 1.297.688 2.11 0 .71-.183 1.29-.547 1.734-.355.45-.699.82-1.03 1.11-.282.242-.532.449-.75.625-.22.168-.497.375-.829.625-.262.187-.39.32-.39.39 0 .063.078.141.234.235a22.707 22.707 0 012 1.531c.57.492 1.02 1.023 1.344 1.594.332.574.5 1.25.5 2.031 0 1.031-.293 1.945-.876 2.734A6.107 6.107 0 019.985-.266a5.991 5.991 0 01-2.78.688zm.406-.875c.875 0 1.602-.317 2.188-.953a3.296 3.296 0 00.875-2.282c0-.613-.172-1.195-.516-1.75A6.976 6.976 0 008.828-7a15.91 15.91 0 00-1.656-1.328 1.636 1.636 0 00-.328-.219.511.511 0 00-.266-.078c-.086 0-.203.059-.36.172-.636.523-1.116 1.047-1.437 1.578-.312.523-.468 1.258-.468 2.203 0 .7.128 1.371.39 2.016a3.97 3.97 0 001.125 1.578c.5.418 1.094.625 1.781.625zm.954-10.203c.695-.57 1.148-1.203 1.359-1.89.207-.696.312-1.505.312-2.423 0-.832-.214-1.55-.64-2.156-.43-.602-1.078-.906-1.953-.906-.461 0-.918.133-1.375.39-.45.262-.829.61-1.141 1.047-.305.43-.453.914-.453 1.453 0 .75.14 1.344.422 1.782.289.437.695.84 1.218 1.203.532.367 1.145.84 1.844 1.422.051.03.117.062.203.093.082.032.149.028.204-.015zm0 0"/></symbol><symbol overflow="visible" id="bN"><path d="M1.313.094A1.07 1.07 0 01.875.016a.256.256 0 01-.156-.25c0-.157.07-.266.219-.329a3.44 3.44 0 01.453-.156c.414-.094.734-.21.953-.36.219-.155.328-.41.328-.765v-6.453c0-.539-.094-1.02-.281-1.437-.188-.414-.54-.66-1.047-.735a.38.38 0 01-.235-.125.46.46 0 01-.062-.265c0-.22.086-.336.266-.36.789-.176 1.44-.414 1.953-.719.52-.312.91-.566 1.171-.765.176-.133.313-.203.407-.203.125 0 .187.047.187.14 0 .157-.027.47-.078.938a33.38 33.38 0 00-.14 1.547 27.86 27.86 0 00-.047 1.531v6.906c0 .336.109.586.328.75.226.157.547.282.953.375.156.043.305.094.453.156a.333.333 0 01.219.329c0 .218-.2.328-.594.328-.375 0-.68-.016-.906-.047-.23-.031-.45-.055-.657-.078a9.468 9.468 0 00-.843-.032c-.336 0-.61.012-.828.032-.22.023-.438.047-.657.078a6.943 6.943 0 01-.921.047zm2.375-15.438c-.418 0-.774-.144-1.063-.437a1.468 1.468 0 01-.422-1.063c0-.437.14-.797.422-1.078a1.45 1.45 0 011.063-.437c.437 0 .8.148 1.093.437.29.281.438.64.438 1.078 0 .418-.149.774-.438 1.063-.293.293-.656.437-1.093.437zm0 0"/></symbol><symbol overflow="visible" id="cf"><path d="M1.313.094C1.155.094 1.016.07.89.03.773-.008.719-.098.719-.234c0-.145.062-.243.187-.297.125-.063.285-.125.485-.188.28-.094.562-.203.843-.328.29-.133.438-.398.438-.797v-6.39c0-.54-.059-1.016-.172-1.422-.117-.406-.434-.645-.953-.719a.355.355 0 01-.203-.125.46.46 0 01-.063-.266c0-.195.078-.316.235-.359.539-.133.968-.273 1.28-.422.313-.156.595-.328.845-.515.25-.188.55-.391.906-.61a.919.919 0 00.125-.078.218.218 0 01.14-.047c.125 0 .188.074.188.219 0 .137-.027.418-.078.844a8.51 8.51 0 00-.078 1.046c0 .211.02.329.062.36h.063c.457-.438 1.054-.875 1.797-1.313.75-.445 1.695-.671 2.843-.671.72 0 1.313.156 1.782.468.476.305.875.828 1.187 1.578h.094a9.42 9.42 0 012.172-1.453 6.036 6.036 0 012.672-.594c.656 0 1.203.2 1.64.594.438.399.77.914 1 1.547.227.637.344 1.297.344 1.985v6.343c0 .399.133.664.406.797.282.125.57.234.875.328.196.063.36.125.485.188.132.054.203.152.203.297 0 .117-.047.199-.14.25-.095.05-.25.078-.47.078-.398 0-.703-.016-.922-.047-.218-.031-.421-.055-.609-.078a8.346 8.346 0 00-.812-.032c-.336 0-.61.012-.828.032-.22.023-.45.047-.688.078a7.742 7.742 0 01-.953.047 1.07 1.07 0 01-.438-.078.256.256 0 01-.156-.25c0-.157.063-.266.188-.329.132-.062.3-.113.5-.156.312-.07.601-.176.875-.312.27-.145.406-.414.406-.813v-6.25c0-.476-.11-.926-.328-1.344a3.142 3.142 0 00-.875-1.062 1.865 1.865 0 00-1.188-.422c-.492 0-.949.063-1.375.188a3.29 3.29 0 00-1.203.625c-.562.437-.844 1.152-.844 2.14v6.125c0 .399.145.668.438.813.3.136.601.242.906.312.195.043.36.102.485.172a.326.326 0 01.203.313c0 .117-.055.199-.157.25-.093.05-.242.078-.437.078-.399 0-.711-.016-.938-.047-.23-.031-.449-.055-.656-.078a9.468 9.468 0 00-.844-.032c-.343 0-.625.012-.843.032-.22.023-.45.047-.688.078-.23.031-.543.047-.937.047-.168 0-.313-.028-.438-.078-.117-.051-.172-.133-.172-.25 0-.157.07-.258.219-.313.156-.05.313-.11.469-.172.3-.094.594-.203.875-.328.289-.133.437-.398.437-.797v-6.25c0-.476-.11-.926-.328-1.344a3.242 3.242 0 00-.86-1.062 1.865 1.865 0 00-1.187-.422c-.5 0-.965.063-1.39.188a3.29 3.29 0 00-1.204.625c-.53.398-.796 1.109-.796 2.14v6.125c0 .399.132.664.406.797.281.125.57.234.875.328.156.063.305.121.453.172.145.055.219.156.219.313 0 .117-.059.199-.172.25a.98.98 0 01-.422.078c-.398 0-.71-.016-.938-.047-.23-.031-.445-.055-.64-.078-.2-.02-.477-.032-.828-.032-.336 0-.606.012-.813.032-.21.023-.43.047-.656.078-.23.031-.543.047-.938.047zm0 0"/></symbol><symbol overflow="visible" id="bO"><path d="M10.625.563c-.043 0-.11-.043-.203-.125-.086-.075-.125-.133-.125-.172 0-.2.02-.477.062-.844.051-.363.079-.676.079-.938v-.187c-.293.46-.766.93-1.422 1.406-.657.477-1.48.719-2.47.719C5.41.422 4.43.125 3.61-.468a6.02 6.02 0 01-1.906-2.298 6.757 6.757 0 01-.656-2.89c0-1.145.266-2.223.797-3.235a6.47 6.47 0 012.297-2.468c1.007-.633 2.207-.954 3.593-.954.395 0 .797.04 1.204.11.406.062.718.137.937.219.176.054.305.078.39.078.133 0 .204-.235.204-.703v-4.235c0-.812-.133-1.351-.39-1.625-.25-.281-.618-.46-1.095-.547-.18-.03-.265-.156-.265-.375 0-.187.078-.304.234-.359.875-.219 1.555-.426 2.047-.625.5-.195.89-.36 1.172-.484a.454.454 0 01.219-.063c.07-.008.125-.015.156-.015.125 0 .195.058.219.171 0 .118-.016.32-.047.61a29.448 29.448 0 00-.172 3.438v13.452c0 .668.05 1.157.156 1.47.102.304.258.452.469.452.101 0 .281-.004.531-.015.25-.02.5-.04.75-.063.363-.02.547.07.547.266a.575.575 0 01-.14.375c-.094.105-.188.156-.282.156-.555.086-1.101.2-1.64.344a14.09 14.09 0 00-1.844.672l-.313.14a.463.463 0 01-.156.031zM7.609-1.125c.52 0 1.024-.133 1.516-.406.5-.27.938-.625 1.313-1.063l.03-5.344c0-.539-.155-1.066-.468-1.578a3.524 3.524 0 00-1.281-1.265c-.543-.332-1.18-.5-1.906-.5-.461 0-.977.14-1.547.422-.575.28-1.07.777-1.485 1.484-.418.7-.625 1.71-.625 3.031 0 1.137.164 2.047.5 2.735.344.68.754 1.199 1.235 1.562.488.356.984.602 1.484.735.508.125.922.187 1.234.187zm0 0"/></symbol><symbol overflow="visible" id="bL"><path d="M3.484.422c-.367 0-.73-.14-1.093-.422a3.82 3.82 0 01-.922-1.016c-.25-.394-.375-.77-.375-1.125 0-.632.164-1.129.5-1.484.343-.363.883-.691 1.625-.984L6.25-5.86c.395-.157.625-.29.688-.407.07-.125.117-.382.14-.78l.063-1.907c.02-.52-.125-.969-.438-1.344-.305-.375-.742-.562-1.312-.562-.305 0-.606.054-.907.156-.293.094-.539.219-.734.375a.598.598 0 00-.25.36 2.634 2.634 0 00-.031.78c.008.094.015.184.015.266 0 .094-.125.23-.375.406-.25.168-.53.313-.843.438-.305.125-.555.187-.75.187a.404.404 0 01-.235-.062.247.247 0 01-.093-.203c0-.313.101-.649.312-1.016.207-.375.5-.719.875-1.031a9.032 9.032 0 011.484-1.094c.54-.32 1.067-.57 1.579-.75.519-.176.976-.265 1.375-.265.718 0 1.304.257 1.765.765.469.5.692 1.125.672 1.875l-.14 7.14c-.024.419.07.759.28 1.016.208.262.47.391.782.391.5 0 .867-.11 1.11-.328.093-.102.171-.156.234-.156a.318.318 0 01.328.328c0 .218-.11.437-.328.656a4.39 4.39 0 01-1.032.75c-.367.195-.71.297-1.03.297-.907 0-1.634-.516-2.173-1.547h-.078c-.656.531-1.281.922-1.875 1.172-.594.25-1.21.375-1.844.375zm1.391-1.438c.395 0 .734-.062 1.016-.187.28-.125.53-.297.75-.516.093-.101.171-.238.234-.406.07-.164.117-.438.14-.813l.063-1.468c.02-.219.008-.375-.031-.469a.237.237 0 00-.234-.156c-.043 0-.118.011-.22.031a2.96 2.96 0 00-.374.125c-1.055.375-1.782.766-2.188 1.172-.406.406-.61.777-.61 1.11 0 .523.15.917.454 1.187.313.261.645.39 1 .39zm.39-12.578c-.167 0-.25-.086-.25-.265 0-.063.008-.133.032-.22.02-.093.05-.202.094-.327.132-.375.351-.852.656-1.438.312-.582.617-1.148.922-1.703.312-.562.55-.969.718-1.219.094-.164.211-.297.36-.39.156-.102.3-.157.437-.157.375 0 .707.055 1 .157.301.093.454.25.454.468 0 .125-.028.231-.079.313-.043.074-.117.18-.218.313-.23.343-.555.773-.97 1.28-.405.5-.82.993-1.233 1.47-.418.468-.75.835-1 1.093-.418.418-.727.625-.922.625zm0 0"/></symbol><symbol overflow="visible" id="bW"><path d="M7.703.422A7.11 7.11 0 016.391.297 32.829 32.829 0 015.14.03C4.71-.094 4.332-.203 4-.297c-.324-.101-.54-.156-.64-.156a.582.582 0 00-.344.125c-.106.086-.211.172-.313.266-.094.101-.183.156-.265.156a.505.505 0 01-.266-.11c-.106-.07-.156-.156-.156-.25 0-.175.035-.484.109-.921.07-.438.11-.844.11-1.22v-14.437c0-.508-.133-.953-.391-1.328a2.373 2.373 0 00-.985-.844 1.104 1.104 0 01-.25-.156.334.334 0 01-.14-.281c0-.102.039-.172.125-.203.082-.04.16-.07.234-.094a12.21 12.21 0 001.063-.328c.445-.156.867-.313 1.265-.469.395-.164.66-.281.797-.344a.847.847 0 01.266-.078c.039 0 .082.024.125.063.039.031.062.078.062.14 0 .086-.015.418-.047 1a40.767 40.767 0 00-.046 2.125v6.094c0 .375.019.633.062.766.04.125.11.199.203.218a7.952 7.952 0 012.14-1.25c.813-.332 1.548-.5 2.204-.5 1.008 0 1.914.262 2.719.782a5.434 5.434 0 011.921 2.093c.477.875.72 1.872.72 2.985 0 1.344-.282 2.539-.845 3.578-.554 1.043-1.32 1.855-2.296 2.437-.98.57-2.125.86-3.438.86zM8.391-.5c.75 0 1.394-.234 1.937-.703.55-.469.973-1.102 1.266-1.906.3-.801.453-1.696.453-2.688 0-.781-.149-1.578-.438-2.39a4.928 4.928 0 00-1.328-2.047c-.605-.551-1.386-.829-2.344-.829-.792 0-1.484.133-2.078.391-.593.25-1.109.574-1.546.969v5.781c0 .688.19 1.293.578 1.813.382.511.89.906 1.515 1.187A4.776 4.776 0 008.391-.5zm0 0"/></symbol><symbol overflow="visible" id="bV"><path d="M6.344.453c-1.094 0-2.047-.266-2.86-.797-.812-.539-1.449-1.3-1.906-2.281-.46-.988-.687-2.129-.687-3.422 0-1.144.257-2.187.78-3.125a6.474 6.474 0 012.11-2.281 5.137 5.137 0 012.86-.86c.789 0 1.492.165 2.109.485.613.312 1.094.75 1.438 1.312.343.563.515 1.215.515 1.954 0 .617-.297.921-.89.921H3.546c-.281 0-.48.075-.594.22-.105.148-.156.437-.156.874 0 .961.207 1.828.625 2.61a5.142 5.142 0 001.656 1.874c.695.461 1.461.688 2.297.688.594 0 1.133-.11 1.625-.328a3.828 3.828 0 001.297-1 .634.634 0 01.172-.188.248.248 0 01.156-.046c.156 0 .234.101.234.296 0 .375-.18.793-.53 1.25a4.995 4.995 0 01-1.079.985 5.174 5.174 0 01-1.375.625c-.492.156-1 .234-1.531.234zm-2.75-9.015h2.719c.468 0 .867-.008 1.203-.032a7.52 7.52 0 001-.125c.093-.02.156-.082.187-.187.031-.114.047-.27.047-.469 0-.57-.258-1.063-.766-1.469-.5-.406-1.101-.61-1.796-.61-.461 0-.918.138-1.375.407-.45.262-.825.594-1.125 1-.293.399-.438.793-.438 1.188 0 .199.113.296.344.296zm2.297-5.032c-.168 0-.25-.086-.25-.265 0-.063.007-.133.03-.22.02-.093.052-.202.095-.327.132-.375.351-.852.656-1.438.312-.582.617-1.148.922-1.703.312-.562.55-.969.718-1.219.094-.164.211-.297.36-.39.156-.102.3-.157.437-.157.375 0 .707.055 1 .157.301.093.454.25.454.468 0 .125-.028.231-.079.313-.043.074-.117.18-.218.313-.23.343-.555.773-.97 1.28-.405.5-.82.993-1.234 1.47-.417.468-.75.835-1 1.093-.417.418-.726.625-.921.625zm0 0"/></symbol><symbol overflow="visible" id="bQ"><path d="M1.313.094C1.113.094.96.066.859.016.766-.035.72-.117.72-.234c0-.157.062-.266.187-.329.125-.062.285-.113.485-.156.457-.094.785-.234.984-.422.195-.187.297-.476.297-.875v-8.39c-.2 0-.43-.004-.688-.016-.25-.008-.539-.023-.859-.047-.055-.02-.137-.086-.25-.203C.77-10.797.719-10.906.719-11c0-.04.023-.078.078-.11a.499.499 0 00.125-.078c.351-.175.66-.332.922-.468.258-.145.535-.285.828-.422 0-1.727.21-3.164.64-4.313.426-1.156.977-2.066 1.657-2.734.676-.676 1.39-1.156 2.14-1.438.75-.289 1.454-.437 2.11-.437 1.113 0 1.937.172 2.469.516.539.336.812.757.812 1.265 0 .399-.102.696-.297.89-.2.2-.437.298-.719.298a.74.74 0 01-.5-.203c-.148-.133-.32-.297-.515-.485a5.67 5.67 0 00-.953-.718c-.375-.227-.891-.344-1.547-.344-.93 0-1.696.406-2.297 1.218-.606.813-.906 2.063-.906 3.75v2.61c0 .125.03.21.093.25a.57.57 0 00.235.047h3.718c.094 0 .176.031.25.093.083.063.126.141.126.235 0 .148-.016.297-.047.453a1.4 1.4 0 01-.125.422c-.063.156-.153.234-.266.234H5.328c-.242 0-.398.04-.469.11-.062.062-.093.156-.093.28v8.063c0 .399.125.688.375.875.257.188.785.328 1.578.422.457.063.687.227.687.485 0 .117-.054.199-.156.25-.094.05-.242.078-.438.078A14.43 14.43 0 015.234.016c-.46-.051-.945-.079-1.453-.079-.344 0-.625.012-.844.032-.21.023-.433.047-.671.078a7.742 7.742 0 01-.954.047zm0 0"/></symbol><symbol overflow="visible" id="by"><path d="M1.969.156c-.262 0-.477-.039-.64-.11-.157-.07-.235-.163-.235-.28 0-.196.316-.36.953-.485.758-.133 1.254-.36 1.484-.672.227-.32.344-.836.344-1.546v-13.454c0-.695-.078-1.187-.234-1.468-.149-.29-.594-.504-1.344-.641-.656-.125-.985-.305-.985-.547 0-.113.067-.203.204-.265.132-.07.351-.11.656-.11.531 0 .945.012 1.25.031.3.012.578.024.828.032.258.011.586.015.984.015.414 0 .754-.004 1.016-.015.27-.008.563-.02.875-.032.313-.02.734-.03 1.266-.03.57 0 .859.124.859.374 0 .149-.078.262-.234.344-.157.074-.407.14-.75.203-.73.137-1.25.383-1.563.734-.305.344-.453.805-.453 1.375v5.86c0 .117.047.187.14.219a.93.93 0 00.266.046h11.047c.133 0 .203-.117.203-.359v-5.797c0-.531-.14-.973-.422-1.328-.273-.363-.78-.613-1.53-.75-.345-.063-.595-.129-.75-.203-.157-.082-.235-.195-.235-.344 0-.25.285-.375.86-.375.53 0 .968.012 1.312.031.351.012.687.024 1 .032a32.363 32.363 0 001.968 0c.196-.008.426-.02.688-.032.258-.02.656-.03 1.187-.03.282 0 .493.038.641.108.145.063.219.153.219.266 0 .242-.328.422-.985.547-.73.137-1.172.375-1.328.719-.156.336-.234.789-.234 1.36V-2.97c0 .73.094 1.258.281 1.578.188.313.645.54 1.375.672.633.125.953.29.953.485 0 .117-.078.21-.234.28-.156.071-.367.11-.625.11-.543 0-.965-.015-1.266-.047-.293-.03-.57-.058-.828-.078-.25-.023-.586-.031-1-.031-.418 0-.762.008-1.031.031-.274.02-.563.047-.875.078-.313.032-.742.047-1.281.047-.262 0-.47-.039-.625-.11-.157-.07-.235-.163-.235-.28 0-.145.07-.243.219-.297.145-.063.39-.125.734-.188.633-.113 1.133-.344 1.5-.687.364-.352.547-.848.547-1.485v-5.796-.297c0-.102-.047-.157-.14-.157H6.39c-.094 0-.141.11-.141.329v5.656c0 .617.223 1.148.672 1.594.457.449 1.023.73 1.703.843.344.063.586.125.734.188.145.054.22.152.22.297 0 .117-.079.21-.235.28-.156.071-.367.11-.625.11-.543 0-.985-.015-1.328-.047-.344-.03-.68-.058-1-.078C6.078.008 5.69 0 5.234 0c-.418 0-.773.008-1.062.031-.281.02-.59.047-.922.078-.324.032-.75.047-1.281.047zm0 0"/></symbol><symbol overflow="visible" id="bB"><path d="M4.797 1.125c-.461 0-.95-.074-1.469-.219A6.76 6.76 0 012.016.391c-.356-.2-.532-.383-.532-.547 0-.133.079-.313.235-.531.164-.22.351-.41.562-.579.207-.164.38-.25.516-.25.219 0 .414.063.594.188.175.117.363.25.562.406.258.219.555.43.89.625.345.2.79.297 1.345.297.726 0 1.421-.188 2.078-.563A4.669 4.669 0 009.89-2.125c.425-.664.64-1.406.64-2.219 0-.77-.133-1.508-.39-2.218-.262-.72-.649-1.313-1.157-1.782-.5-.469-1.136-.703-1.906-.703-.219 0-.512.027-.875.078a3.04 3.04 0 00-1.062.375c-.094.055-.211.047-.344-.015-.125-.07-.18-.157-.156-.25.082-.258.203-.473.359-.641.156-.176.332-.3.531-.375.176-.082.461-.238.86-.469.394-.226.816-.515 1.265-.86a5.384 5.384 0 001.14-1.187 2.47 2.47 0 00.485-1.468c0-.813-.265-1.532-.797-2.157-.523-.625-1.187-.937-2-.937-.773 0-1.39.137-1.859.406-.469.262-.844.57-1.125.922-.273.344-.48.652-.625.922-.137.262-.262.39-.375.39-.086 0-.188-.054-.313-.171a.561.561 0 01-.171-.391c0-.258.109-.602.328-1.031.219-.426.562-.852 1.031-1.281.469-.438 1.063-.805 1.781-1.11.727-.3 1.598-.453 2.61-.453.656 0 1.273.148 1.859.438a3.991 3.991 0 011.438 1.203c.374.5.562 1.09.562 1.765 0 .469-.102.965-.297 1.485-.2.511-.527 1.023-.984 1.53-.45.5-1.059.981-1.828 1.438-.063.024-.094.059-.094.11 0 .054.035.078.11.078.85 0 1.616.215 2.296.64a4.71 4.71 0 011.625 1.688c.406.71.61 1.484.61 2.328 0 1.117-.243 2.117-.72 3A7.298 7.298 0 0110.439-.78 8.666 8.666 0 017.78.64c-.98.32-1.976.484-2.984.484zm0 0"/></symbol><symbol overflow="visible" id="bu"><path d="M8.984.422a7.082 7.082 0 01-3.609-.953 7.353 7.353 0 01-2.61-2.563 6.598 6.598 0 01-.984-3.515c0-.883.192-1.743.578-2.579a7.8 7.8 0 011.594-2.265 7.65 7.65 0 012.313-1.594 6.638 6.638 0 012.718-.578c.97 0 1.907.172 2.813.516.906.336 1.71.812 2.422 1.437a7.023 7.023 0 011.703 2.203c.414.836.625 1.75.625 2.75 0 1.211-.297 2.36-.89 3.453-.587 1.086-1.438 1.97-2.563 2.657C11.977.078 10.609.42 8.984.42zm.47-1.078c.85 0 1.562-.188 2.124-.563a4.177 4.177 0 001.36-1.453 6.243 6.243 0 00.718-1.89 9.69 9.69 0 00.203-1.891c0-1.008-.21-1.988-.625-2.938-.418-.957-1-1.742-1.75-2.359-.75-.613-1.64-.922-2.671-.922-.938 0-1.731.277-2.376.828-.648.543-1.136 1.242-1.468 2.094a7.242 7.242 0 00-.5 2.703c0 1.149.18 2.211.547 3.188.363.968.914 1.746 1.656 2.328.75.586 1.676.875 2.781.875zm0 0"/></symbol><symbol overflow="visible" id="cb"><path d="M9.734.422a9.048 9.048 0 01-2.984-.5 8.42 8.42 0 01-2.547-1.453 7.018 7.018 0 01-1.766-2.235C2-4.629 1.781-5.578 1.781-6.609c0-1.051.227-2.004.688-2.86a6.947 6.947 0 011.86-2.219 8.857 8.857 0 012.655-1.421c1-.344 2.024-.516 3.079-.516.507 0 .976.023 1.406.063.426.042.832.101 1.219.171.382.063.765.153 1.14.266.219.063.367.133.453.203a.49.49 0 01.172.281c.102.293.176.704.219 1.235.05.523.078.953.078 1.297 0 .23-.059.386-.172.468-.105.086-.219.086-.344 0-.125-.082-.242-.226-.343-.437-.262-.695-.57-1.235-.922-1.61a2.835 2.835 0 00-1.328-.78c-.524-.157-1.18-.235-1.97-.235-.991 0-1.882.262-2.671.781a5.528 5.528 0 00-1.86 2.047 5.858 5.858 0 00-.671 2.766c0 1.117.234 2.168.703 3.156a6.215 6.215 0 002 2.406c.851.617 1.832.922 2.937.922.5 0 1.016-.094 1.547-.281a4.836 4.836 0 001.485-.828 3.472 3.472 0 001.015-1.329c.125-.28.32-.457.594-.53.281-.083.422.03.422.343 0 .086-.047.262-.14.531-.087.262-.196.555-.329.875l-.328.828a1.167 1.167 0 01-.25.375c-.094.094-.219.18-.375.25-.418.2-1.023.383-1.812.547-.782.176-1.516.266-2.204.266zm0 0"/></symbol><symbol overflow="visible" id="cc"><path d="M1.484.094A1.08 1.08 0 011.11 0C.961-.063.891-.148.891-.266c0-.156.078-.27.234-.343.164-.07.328-.118.484-.141.508-.094.961-.25 1.36-.469.394-.218.594-.593.594-1.125v-8.125c0-.613-.133-1.086-.391-1.422-.25-.343-.695-.562-1.328-.656-.18-.039-.344-.11-.5-.203-.149-.102-.219-.227-.219-.375 0-.113.07-.203.219-.266a1.08 1.08 0 01.375-.093c.406 0 .758.011 1.062.03.313.024.617.048.922.079.313.031.645.047 1 .047.352 0 .676-.016.969-.047a17.264 17.264 0 011.969-.11c.101 0 .226.032.375.094.144.063.218.153.218.266 0 .148-.074.273-.218.375a1.519 1.519 0 01-.485.203c-.617.094-1.058.313-1.328.656-.273.336-.406.809-.406 1.422v8.14c0 .524.066.872.203 1.048.145.18.438.265.875.265h2.906c.414 0 .77-.078 1.063-.234.289-.156.55-.395.781-.719.238-.332.477-.738.719-1.218.039-.051.101-.133.187-.25.094-.126.207-.188.344-.188.145 0 .227.059.25.172.031.105.047.203.047.297 0 .156-.031.367-.094.625a7.232 7.232 0 01-.219.812c-.086.274-.168.54-.25.797-.074.262-.132.469-.172.625-.023.086-.09.168-.203.25a.547.547 0 01-.296.11c-.743 0-1.454-.012-2.141-.032-.68-.023-1.328-.035-1.953-.047A65.478 65.478 0 016.03-.062a48.204 48.204 0 00-1.625-.032c-.543.024-1.023.059-1.437.11-.418.05-.914.078-1.485.078zm0 0"/></symbol><symbol overflow="visible" id="bv"><path d="M1.484.094A1.08 1.08 0 011.11 0C.961-.063.891-.148.891-.266c0-.156.078-.27.234-.343.164-.07.328-.118.484-.141.508-.094.961-.25 1.36-.469.394-.218.594-.593.594-1.125v-8.125c0-.613-.133-1.086-.391-1.422-.25-.343-.695-.562-1.328-.656-.18-.039-.344-.11-.5-.203-.149-.102-.219-.227-.219-.375 0-.113.07-.203.219-.266a1.08 1.08 0 01.375-.093c.406 0 .742.011 1.015.03.282.024.555.048.829.079.28.031.593.047.937.047.25 0 .566-.008.953-.031.395-.02.774-.047 1.14-.079.364-.03.634-.046.813-.046 1.82 0 3.39.195 4.703.578 1.313.375 2.317 1.031 3.016 1.969.707.93 1.05 2.234 1.031 3.921 0 1.47-.414 2.735-1.234 3.797-.824 1.055-1.902 1.871-3.235 2.453-1.324.575-2.773.86-4.343.86-.137 0-.375-.016-.719-.047a69.629 69.629 0 00-1.11-.094 14.598 14.598 0 00-1.109-.047c-.355 0-.683.016-.984.047l-.906.094a9.869 9.869 0 01-1.032.047zM8.063-.75c1.132 0 2.101-.281 2.906-.844a5.641 5.641 0 001.86-2.203 6.618 6.618 0 00.655-2.89c0-1.313-.242-2.41-.718-3.297a4.605 4.605 0 00-2.063-1.985c-.887-.445-1.953-.672-3.203-.672-.398 0-.781.09-1.156.266-.367.18-.547.477-.547.89v8.86c0 .563.223 1.016.672 1.36.445.343.976.515 1.593.515zm0 0"/></symbol><symbol overflow="visible" id="bx"><path d="M1.484.094A1.08 1.08 0 011.11 0C.961-.063.891-.148.891-.266c0-.156.078-.27.234-.343.164-.07.328-.118.484-.141.508-.094.961-.25 1.36-.469.394-.218.594-.593.594-1.125v-8.125c0-.613-.133-1.086-.391-1.422-.25-.343-.695-.562-1.328-.656-.18-.039-.344-.11-.5-.203-.149-.102-.219-.227-.219-.375 0-.113.07-.203.219-.266a1.08 1.08 0 01.375-.093c.406 0 .742.011 1.015.03.282.024.555.048.829.079.28.031.593.047.937.047.27 0 .566-.016.89-.047.333-.031.688-.055 1.063-.078.375-.02.758-.031 1.156-.031.875 0 1.692.12 2.454.359.769.242 1.39.633 1.859 1.172.476.531.719 1.234.719 2.11 0 1.323-.399 2.382-1.188 3.171C10.66-5.89 9.586-5.5 8.234-5.5c-.199 0-.433-.04-.703-.125-.261-.094-.39-.234-.39-.422a.44.44 0 01.093-.266c.07-.093.192-.14.36-.14.133 0 .265.012.39.031.133.024.239.031.313.031.562 0 1.02-.289 1.375-.875a3.76 3.76 0 00.531-1.953c0-.937-.293-1.742-.875-2.422-.586-.687-1.324-1.03-2.219-1.03-.375 0-.687.07-.937.202-.25.125-.375.344-.375.656v9.47c0 .53.195.905.594 1.124.394.219.851.375 1.375.469.156.023.312.07.468.14.164.075.25.188.25.344 0 .118-.078.204-.234.266a.975.975 0 01-.36.094c-.386 0-.742-.016-1.062-.047-.324-.031-.656-.063-1-.094-.336-.031-.71-.047-1.125-.047-.418 0-.797.016-1.14.047l-1 .094c-.325.031-.684.047-1.079.047zm0 0"/></symbol><symbol overflow="visible" id="bt"><path d="M9.734.39C8.336.39 7.035.099 5.828-.483c-1.21-.594-2.187-1.414-2.937-2.47-.743-1.062-1.11-2.28-1.11-3.655 0-1.051.211-2.004.64-2.86a6.716 6.716 0 011.75-2.219 8.364 8.364 0 012.563-1.421 8.986 8.986 0 013.032-.516c.75 0 1.414.043 2 .125.582.074 1.16.188 1.734.344a.83.83 0 01.406.234.734.734 0 01.219.422c.102.344.195.75.281 1.219.094.46.149.851.172 1.172 0 .074-.039.195-.11.359-.062.156-.155.234-.28.234-.118 0-.204-.07-.266-.218-.063-.157-.14-.344-.235-.563a4.197 4.197 0 00-.921-1.328 3.542 3.542 0 00-1.391-.813c-.543-.175-1.21-.265-2-.265-.992 0-1.855.262-2.594.781-.73.512-1.297 1.195-1.703 2.047a6.365 6.365 0 00-.61 2.766c0 1.117.235 2.18.704 3.187a6.413 6.413 0 002 2.469c.851.637 1.832.953 2.937.953.739 0 1.32-.156 1.75-.469.426-.32.641-.789.641-1.406v-1.313a.921.921 0 00-.234-.624 1.408 1.408 0 00-.61-.407 2.89 2.89 0 00-.89-.187c-.2-.02-.387-.082-.563-.188-.18-.113-.265-.238-.265-.375 0-.164.078-.27.234-.312.156-.051.297-.078.422-.078.332 0 .64.007.922.015.28.012.566.028.859.047.3.024.64.031 1.016.031.394 0 .738-.02 1.03-.062.302-.04.642-.063 1.017-.063.156 0 .316.04.484.11.176.062.265.168.265.312 0 .157-.085.282-.25.375a2.696 2.696 0 01-.406.188 1.488 1.488 0 00-.578.36c-.156.155-.234.382-.234.671v1.734c0 .243.05.43.156.563.102.125.191.226.266.297a.48.48 0 01.14.14c.04.043.063.086.063.125 0 .086-.059.184-.172.297a1.417 1.417 0 01-.39.25c-.274.137-.813.313-1.626.531-.812.22-1.953.329-3.422.329zm0 0"/></symbol><symbol overflow="visible" id="cd"><path d="M.031 8.531c-.101 0-.234-.027-.39-.078-.157-.043-.235-.117-.235-.219 0-.117.055-.226.156-.328l.172-.172c.352-.093.696-.28 1.032-.562.343-.281.656-.719.937-1.313.207-.46.375-1.03.5-1.718.133-.68.235-1.399.297-2.157.063-.75.098-1.48.11-2.187.019-.719.03-1.332.03-1.844v-6.25c0-.539-.1-1.015-.296-1.422-.2-.406-.555-.656-1.063-.75a.268.268 0 01-.187-.14.692.692 0 01-.047-.25c0-.196.066-.317.203-.36.75-.176 1.379-.422 1.89-.734.52-.32.922-.57 1.204-.75.101-.063.187-.11.25-.14a.439.439 0 01.14-.063c.133 0 .204.047.204.14a40.278 40.278 0 00-.157 2.25 67.195 67.195 0 00-.047 2.329v5.484c0 .617-.015 1.336-.046 2.156A24.69 24.69 0 014.452 2a11.9 11.9 0 01-.61 2.516 7.493 7.493 0 01-1.046 1.937c-.461.613-.938 1.113-1.438 1.5-.492.383-.933.578-1.328.578zm3.406-23.875c-.417 0-.773-.144-1.062-.437a1.468 1.468 0 01-.422-1.063c0-.437.14-.797.422-1.078a1.45 1.45 0 011.063-.437c.437 0 .8.148 1.093.437.29.281.438.64.438 1.078 0 .418-.149.774-.438 1.063-.293.293-.656.437-1.093.437zm0 0"/></symbol><symbol overflow="visible" id="ch"><path d="M1.156.156C1.082.156.992.094.891-.03.797-.164.75-.273.75-.36c0-.063.063-.192.188-.391.125-.195.269-.422.437-.672.176-.258.332-.476.469-.656a330.048 330.048 0 002.781-4.063A91.73 91.73 0 006-8.25c.477-.75.988-1.55 1.531-2.406a.3.3 0 00.063-.188c0-.07-.11-.11-.328-.11l-2.954-.077a1.38 1.38 0 00-.78.172c-.231.136-.407.265-.532.39a4.3 4.3 0 00-.344.39c-.105.138-.215.282-.328.438-.105.157-.215.313-.328.47l-.297.421c-.125.125-.281.148-.469.063-.187-.083-.25-.204-.187-.36.05-.176.117-.437.203-.781.094-.352.176-.719.25-1.094.07-.375.11-.68.11-.922 0-.156.054-.281.171-.375.125-.101.211-.156.266-.156.082 0 .234.09.453.266.094.086.266.136.516.156.25.012.504.016.765.016h.625c.196-.008.364-.016.5-.016 1.032 0 1.985-.008 2.86-.031.875-.02 1.765-.04 2.671-.063.063 0 .114.024.157.063.039.03.066.078.078.14.02.063.016.117-.016.156-.199.25-.39.485-.578.704a8.74 8.74 0 00-.562.78L3.719-1.421c-.086.137-.094.246-.031.328.062.074.16.11.296.11H7.5c.219 0 .441-.055.672-.172.226-.125.445-.297.656-.516.238-.226.5-.535.781-.922.282-.394.567-.812.86-1.25.101-.133.238-.172.406-.11.164.056.25.165.25.329 0 .055-.043.234-.125.547-.074.305-.168.652-.281 1.047-.106.386-.203.746-.297 1.078-.086.336-.149.562-.188.687-.062.282-.218.422-.468.422-.438 0-1.18-.027-2.22-.078a79.841 79.841 0 00-4-.078c-.417 0-.855.023-1.312.078-.46.05-.82.078-1.078.078zm0 0"/></symbol><symbol overflow="visible" id="ce"><path d="M1.11 1.844c.218 0 .425-.028.624-.078a.615.615 0 00.438-.375l8.844-20.672c.05-.133.046-.25-.016-.344-.055-.102-.18-.156-.375-.156-.262 0-.496.031-.703.093a.653.653 0 00-.453.407L.625 1.39c-.055.125-.04.226.047.312.094.094.238.14.437.14zm0 0"/></symbol><symbol overflow="visible" id="bJ"><path d="M9.844.5c-.242 0-.438-.18-.594-.531a70.814 70.814 0 01-2-4.594 138.724 138.724 0 00-2.156-5.14c-.063-.133-.121-.208-.172-.22-.055-.007-.09.063-.11.22a66.977 66.977 0 01-.156 2.046 70.131 70.131 0 00-.187 2.594c-.043.918-.094 1.844-.157 2.781 0 .25.047.559.141.922.102.356.414.578.938.672.156.023.312.07.468.14.157.075.235.188.235.344 0 .118-.074.204-.219.266A1.006 1.006 0 015.5.094c-.375 0-.664-.016-.86-.047-.199-.031-.374-.063-.53-.094a2.981 2.981 0 00-.594-.047c-.282 0-.512.016-.688.047-.18.031-.371.063-.578.094-.21.031-.512.047-.906.047A.973.973 0 01.969 0C.82-.063.75-.148.75-.266c0-.156.078-.27.234-.343.157-.07.313-.118.47-.141.519-.094.894-.3 1.124-.625.227-.332.367-.656.422-.969.102-.562.207-1.207.313-1.937.113-.739.218-1.489.312-2.25.102-.758.191-1.489.266-2.188.082-.695.148-1.289.203-1.781.05-.5.078-.836.078-1.016a.695.695 0 00-.422-.671c-.281-.145-.742-.266-1.375-.36-.18-.039-.34-.11-.484-.203-.149-.102-.22-.227-.22-.375 0-.113.071-.203.22-.266a.973.973 0 01.375-.093c.394 0 .671.007.828.015.156.012.304.028.453.047.156.024.41.031.765.031.458 0 .735-.007.829-.03.101-.02.254-.032.453-.032h.234c.063 0 .102.023.125.062L10.36-3.156c.094.199.172.308.235.328.07.023.148-.067.234-.266a267.183 267.183 0 001.719-3.984c.562-1.313 1.18-2.813 1.86-4.5.132-.332.269-.703.405-1.11.145-.406.254-.609.329-.609l1.125-.031c.52 0 1.023-.024 1.515-.078.5-.051.922-.078 1.266-.078.094 0 .21.03.36.093.155.063.234.153.234.266 0 .148-.079.273-.235.375a1.519 1.519 0 01-.484.203c-.617.094-1.059.188-1.328.281-.262.086-.39.325-.39.72v2.03c.007.637.019 1.25.03 1.844.008.594.024 1.184.047 1.766.02.586.04 1.183.063 1.797.02.617.05 1.261.093 1.937.04.461.204.79.485.984.289.2.691.344 1.203.438.164.023.328.07.484.14.157.075.235.188.235.344 0 .118-.078.203-.235.266a.975.975 0 01-.359.094c-.375 0-.703-.016-.984-.047a82.965 82.965 0 01-.813-.094 7.485 7.485 0 00-.906-.047c-.387 0-.735.016-1.047.047l-.906.094a9.869 9.869 0 01-1.031.047A1.08 1.08 0 0113.187 0c-.148-.063-.218-.148-.218-.266 0-.156.078-.27.234-.343.164-.07.328-.118.485-.141.507-.094.867-.234 1.078-.422.207-.187.312-.488.312-.906v-2.578c0-.782-.008-1.567-.016-2.36-.011-.8-.03-1.664-.062-2.593-.023-.239-.074-.348-.156-.329-.086.024-.172.133-.266.329L10.36.03c-.086.157-.168.27-.25.344A.35.35 0 019.844.5zm0 0"/></symbol><symbol overflow="visible" id="cg"><path d="M6.36.625c-.075 0-.173-.156-.298-.469A8.47 8.47 0 015.829-.5a22.38 22.38 0 01-.39-1.063c-.118-.363-.231-.707-.344-1.03a60.746 60.746 0 00-1.422-3.61c-.5-1.176-.992-2.367-1.469-3.578a2.641 2.641 0 00-.64-.969c-.293-.29-.586-.477-.875-.563-.157-.05-.29-.109-.391-.171-.094-.063-.14-.16-.14-.297 0-.114.07-.188.218-.219.145-.031.27-.047.375-.047.395 0 .68.012.86.031.175.024.35.047.53.079.176.023.438.03.782.03.351 0 .617-.007.797-.03.176-.032.363-.055.562-.079.196-.02.485-.03.86-.03.101 0 .226.015.375.046.144.031.218.105.218.219 0 .136-.07.246-.203.328a1.827 1.827 0 01-.468.203.874.874 0 00-.454.469c-.093.23-.14.48-.14.75 0 .148.004.289.015.422.02.136.051.265.094.39l2.36 6.25c.019.024.03.031.03.031.009 0 .024-.007.048-.03L9.28-8.782c.082-.196.14-.41.172-.64.04-.227.063-.423.063-.579 0-.395-.063-.676-.188-.844-.117-.164-.308-.3-.578-.406a3.302 3.302 0 01-.547-.234c-.094-.063-.14-.16-.14-.297 0-.114.062-.188.187-.219.133-.031.27-.047.406-.047.219 0 .504.027.86.078.363.043.8.063 1.312.063.52 0 .875-.02 1.063-.063.187-.05.414-.078.687-.078.164 0 .305.016.422.047.113.031.172.105.172.219 0 .219-.227.398-.672.531-.305.086-.633.313-.984.688a4.52 4.52 0 00-.86 1.312L8.328-3.656a6.248 6.248 0 00-.25.578 40.2 40.2 0 00-.375 1.015c-.137.368-.258.684-.36.954l-.14.39s-.043.094-.125.281a8.298 8.298 0 01-.266.594 4.862 4.862 0 01-.265.469zm0 0"/></symbol><symbol overflow="visible" id="bE"><path d="M3.766.953c-.22 0-.383-.078-.485-.234a.998.998 0 01-.14-.547c0-.055.066-.207.203-.469.144-.258.285-.508.422-.75l8.421-15.047c.04-.062.055-.117.047-.172-.011-.062-.125-.101-.343-.125H4.28c-.48 0-.902.09-1.265.266-.356.18-.7.543-1.032 1.094a3.82 3.82 0 00-.171.281 1.406 1.406 0 01-.25.328.423.423 0 01-.297.14c-.075 0-.125-.046-.157-.14a.962.962 0 01-.046-.281c0-.094.015-.203.046-.328.032-.133.055-.239.079-.313.093-.437.18-.941.265-1.515.094-.582.16-1.063.203-1.438.02-.133.063-.223.125-.265a.402.402 0 01.172-.063c.04 0 .313.047.813.14.507.087 1.07.126 1.687.126h.844c.27 0 .57.007.906.015.344.012.742.016 1.203.016.969 0 1.942-.004 2.922-.016a105.57 105.57 0 002.547-.047c.727-.03 1.188-.054 1.375-.078.031 0 .066.047.11.14.038.087.062.165.062.235 0 .168-.078.387-.235.657-.148.261-.308.523-.484.78-.18.262-.312.481-.406.657L4.344.156a7.02 7.02 0 01-.313.516c-.117.187-.203.281-.265.281zm0 0"/></symbol><symbol overflow="visible" id="bC"><path d="M1.906-5.5a.466.466 0 01-.297-.11c-.086-.081-.125-.163-.125-.25 0-.1.02-.253.063-.452.039-.196.113-.38.219-.547.113-.164.257-.25.437-.25h12.281c.102 0 .192.039.266.109a.304.304 0 01.125.25c0 .293-.094.574-.281.844-.188.273-.403.406-.64.406zm0 0"/></symbol><symbol overflow="visible" id="bD"><path d="M7.484.469a6.733 6.733 0 01-2.921-.672C3.632-.66 2.875-1.348 2.28-2.266c-.594-.925-.89-2.082-.89-3.468 0-1.114.129-2.125.39-3.032.258-.914.586-1.722.985-2.421a13.61 13.61 0 011.203-1.829 14.85 14.85 0 011.015-1.171c.5-.52 1.133-1.098 1.907-1.735a19.242 19.242 0 012.703-1.812 13.961 13.961 0 013.344-1.328c.175-.04.316-.032.421.03.114.055.149.11.11.173a.902.902 0 01-.375.406 6.03 6.03 0 01-.39.187c-1.337.575-2.485 1.23-3.454 1.97-.96.73-1.813 1.64-2.563 2.733-.324.47-.703 1.122-1.14 1.954-.43.824-.805 1.742-1.125 2.75a10.318 10.318 0 00-.469 3.062c.02 1.086.242 2.012.672 2.781.438.762.977 1.34 1.625 1.735.645.398 1.297.605 1.953.625.813.023 1.524-.258 2.14-.844.614-.582.923-1.488.923-2.719 0-.613-.118-1.18-.344-1.703a3.402 3.402 0 00-.953-1.297 2.113 2.113 0 00-1.406-.515c-.524 0-.965.03-1.329.093a3.006 3.006 0 00-1.046.36c-.188.074-.297.07-.329-.016-.023-.094.016-.195.11-.312.156-.164.285-.297.39-.391.114-.102.254-.21.422-.328.219-.156.617-.36 1.203-.61.582-.25 1.149-.374 1.704-.374.695 0 1.335.164 1.921.484a3.908 3.908 0 011.422 1.297c.375.543.563 1.168.563 1.875 0 .937-.184 1.781-.547 2.531a6.134 6.134 0 01-1.422 1.938A6.45 6.45 0 019.641.03 5.747 5.747 0 017.484.47zm0 0"/></symbol><symbol overflow="visible" id="bI"><path d="M3.125.094c1.61 0 2.86-.157 4.469-.157 1.562 0 2.672.157 4.36.157.25 0 .421-.157.421-.328 0-.188-.266-.329-.5-.391-2.438-.594-3.156-.75-3.156-2.266v-13.687c0-.828.031-1.516.11-2.11.03-.14-.173-.265-.345-.265-.062 0-.125 0-.156.031-1.344 1.344-2.672 1.578-4.453 1.844-.422.062-.75.265-.75.531 0 .328.39.485.766.516 1.28.078 2.5.297 2.5 1.422V-3.25c0 1.766-1 2.031-3.266 2.594-.234.062-.453.234-.453.39 0 .172.156.36.453.36zm0 0"/></symbol><symbol overflow="visible" id="bz"><path d="M14.406-.422c.203.094.594.125.594-.266 0-.265-.156-1.156-.719-1.421L3.875-7.281c-.094 0-.094-.094-.031-.157l10.203-5.171c.594-.297.922-1.172.922-1.516 0-.188-.094-.297-.266-.297a.538.538 0 00-.25.078L2.47-8.454c-.594.298-.985 1.11-.985 1.376 0 .172.72.562 1.22.797zm0 0"/></symbol><symbol overflow="visible" id="bH"><path d="M2.078-14.313c-.203-.093-.594-.109-.594.266 0 .266.157 1.172.72 1.438l10.405 5.171c.094.032.125.125.032.157L2.437-2.11c-.593.296-.921 1.156-.921 1.515 0 .172.093.297.265.297a.51.51 0 00.235-.094l12-5.89c.593-.297.984-1.094.984-1.36 0-.187-.719-.578-1.219-.812zm0 0"/></symbol><symbol overflow="visible" id="bA"><path d="M4.313 1.125c4.046 0 8.265-2.703 8.265-7.172 0-2.516-1.984-4.656-4.515-4.656-.157 0-.157-.125-.032-.188 2.328-1.343 3.125-3.03 3.125-4.453 0-2.031-1.906-3.406-3.875-3.406-4.031 0-5.734 2.828-5.734 3.875 0 .297.328.563.469.563.453 0 .921-2.641 4-2.641 1.593 0 2.796 1.453 2.796 3.094 0 2.109-3.078 3.656-3.75 3.984-.39.172-.75.5-.89 1.016-.063.203.297.375.5.265.687-.39 1.484-.453 1.937-.453 2.282 0 3.454 2.406 3.454 4.703C10.063-1.875 7.89 0 5.718 0c-1.11 0-1.735-.469-2.235-.922-.39-.297-.718-.594-1.156-.594-.453 0-1.312.954-1.312 1.36 0 .484 1.906 1.281 3.296 1.281zm0 0"/></symbol><mask id="aI"><g filter="url(#a)"><path fill-opacity=".3" d="M0 0h433v342H0z"/></g></mask><mask id="aK"><g filter="url(#a)"><path fill-opacity=".3" d="M0 0h433v342H0z"/></g></mask><mask id="aM"><g filter="url(#a)"><path fill-opacity=".5" d="M0 0h433v342H0z"/></g></mask><mask id="bd"><g filter="url(#a)"><path fill-opacity=".5" d="M0 0h433v342H0z"/></g></mask><mask id="bi"><g filter="url(#a)"><path fill-opacity=".5" d="M0 0h433v342H0z"/></g></mask><g id="aH" clip-path="url(#aC)"><path d="M323.516 198.508v2.402l2.41 24.649c0 .171.605.312 1.363.312s1.363-.14 1.363-.312l2.184-24.649v-2.469" fill="#d4d4d4"/></g><g id="aJ" clip-path="url(#aD)"><path d="M323.516 198.508v2.402l2.41 24.649c.008-.176.613-.317 1.363-.317.746 0 1.36.14 1.363.317l2.184-24.649v-2.469" fill="#b0b0b0"/></g><g id="aL" clip-path="url(#aE)"><path d="M327.922 198.43v4.511l.594 11.168 1.363-11.945v-3.734" fill="#fff"/></g><g id="bc" clip-path="url(#aZ)"><path d="M124.816 198.43v4.511l.598 11.168 1.367-11.945v-3.734" fill="#fff"/></g><g id="bh" clip-path="url(#be)"><path d="M123.719 197.664c6.437 0 12.031 1.04 10.613 1.848-.25.148-.984.468-2.34.718-1.59.301-3.176.403-4.52.48a67.898 67.898 0 01-3.761.106c-6.438 0-9.39-.601-10.613-1.296-1.41-.817 4.183-1.856 10.62-1.856zm0 0" fill="#ccc" fill-rule="evenodd"/></g><linearGradient id="av" gradientUnits="userSpaceOnUse" x1="333.937" y1="297.73" x2="437.432" y2="297.73" gradientTransform="matrix(.86996 0 0 .86996 -8.4 -3.38)"><stop offset="0" stop-color="#d7d7d7"/><stop offset=".125" stop-color="#d7d7d7"/><stop offset=".25" stop-color="#d8d8d8"/><stop offset=".375" stop-color="#d8d8d8"/><stop offset=".5" stop-color="#d9d9d9"/><stop offset=".625" stop-color="#dadada"/><stop offset=".75" stop-color="#dadada"/><stop offset=".875" stop-color="#dbdbdb"/><stop offset="1" stop-color="#dcdcdc"/></linearGradient><linearGradient id="aT" gradientUnits="userSpaceOnUse" x1="100.172" y1="297.73" x2="203.661" y2="297.73" gradientTransform="matrix(.86996 0 0 .86996 -8.4 -3.38)"><stop offset="0" stop-color="#d7d7d7"/><stop offset=".125" stop-color="#d7d7d7"/><stop offset=".25" stop-color="#d8d8d8"/><stop offset=".375" stop-color="#d8d8d8"/><stop offset=".5" stop-color="#d9d9d9"/><stop offset=".625" stop-color="#dadada"/><stop offset=".75" stop-color="#dadada"/><stop offset=".875" stop-color="#dbdbdb"/><stop offset="1" stop-color="#dcdcdc"/></linearGradient><filter id="a" filterUnits="objectBoundingBox" x="0" y="0" width="1" height="1"><feColorMatrix in="SourceGraphic" values="0 0 0 0 1 0 0 0 0 1 0 0 0 0 1 0 0 0 1 0"/></filter></defs><path d="M0 1.19h955.297" fill="none" stroke="#000" stroke-width="2.38" stroke-miterlimit="10"/><use xlink:href="#bq" x="2314.884" y="2198.596" width="100%" height="100%" transform="translate(-2302.93 -2162.779)"/><use xlink:href="#br" x="2332.406" y="2198.596" width="100%" height="100%" transform="translate(-2302.93 -2162.779)"/><use xlink:href="#bs" x="2350.076" y="2198.596" width="100%" height="100%" transform="translate(-2302.93 -2162.779)"/><use xlink:href="#bt" x="2369.561" y="2198.596" width="100%" height="100%" transform="translate(-2302.93 -2162.779)"/><use xlink:href="#bu" x="2388.72" y="2198.596" width="100%" height="100%" transform="translate(-2302.93 -2162.779)"/><use xlink:href="#bv" x="2414.482" y="2198.596" width="100%" height="100%" transform="translate(-2302.93 -2162.779)"/><use xlink:href="#bw" x="2433.907" y="2198.596" width="100%" height="100%" transform="translate(-2302.93 -2162.779)"/><use xlink:href="#bx" x="2455.624" y="2198.596" width="100%" height="100%" transform="translate(-2302.93 -2162.779)"/><use xlink:href="#by" x="2471.093" y="2198.596" width="100%" height="100%" transform="translate(-2302.93 -2162.779)"/><use xlink:href="#bz" x="2568.277" y="2198.596" width="100%" height="100%" transform="translate(-2302.93 -2162.779)"/><use xlink:href="#bA" x="2592.998" y="2198.596" width="100%" height="100%" transform="translate(-2302.93 -2162.779)"/><g transform="translate(-2302.93 -2162.779)"><use xlink:href="#bB" x="2750.119" y="2198.596" width="100%" height="100%"/><use xlink:href="#bC" x="2764.398" y="2198.596" width="100%" height="100%"/><use xlink:href="#bD" x="2780.76" y="2198.596" width="100%" height="100%"/></g><use xlink:href="#bE" x="2921.284" y="2198.596" width="100%" height="100%" transform="translate(-2302.93 -2162.779)"/><g transform="translate(-2302.93 -2162.779)"><use xlink:href="#bF" x="3016.3" y="2198.596" width="100%" height="100%"/><use xlink:href="#bC" x="3030.58" y="2198.596" width="100%" height="100%"/><use xlink:href="#bG" x="3046.941" y="2198.596" width="100%" height="100%"/><use xlink:href="#bG" x="3061.22" y="2198.596" width="100%" height="100%"/></g><use xlink:href="#bH" x="3158.664" y="2198.596" width="100%" height="100%" transform="translate(-2302.93 -2162.779)"/><g transform="translate(-2302.93 -2162.779)"><use xlink:href="#bI" x="3183.385" y="2198.596" width="100%" height="100%"/><use xlink:href="#bI" x="3197.932" y="2198.596" width="100%" height="100%"/></g><path d="M0 52.448h955.297" fill="none" stroke="#000" stroke-width="1.488" stroke-miterlimit="10"/><use xlink:href="#bJ" x="2314.884" y="2249.412" width="100%" height="100%" transform="translate(-2302.93 -2162.779)"/><use xlink:href="#bw" x="2337.374" y="2249.412" width="100%" height="100%" transform="translate(-2302.93 -2162.779)"/><use xlink:href="#bv" x="2353.14" y="2249.412" width="100%" height="100%" transform="translate(-2302.93 -2162.779)"/><use xlink:href="#bK" x="2372.566" y="2249.412" width="100%" height="100%" transform="translate(-2302.93 -2162.779)"/><use xlink:href="#bu" x="2383.424" y="2249.412" width="100%" height="100%" transform="translate(-2302.93 -2162.779)"/><g transform="translate(-2302.93 -2162.779)"><use xlink:href="#bL" x="2520.617" y="2249.412" width="100%" height="100%"/><use xlink:href="#bM" x="2532.487" y="2249.412" width="100%" height="100%"/><use xlink:href="#bN" x="2544.594" y="2249.412" width="100%" height="100%"/><use xlink:href="#bO" x="2551.883" y="2249.412" width="100%" height="100%"/><use xlink:href="#bP" x="2566.935" y="2249.412" width="100%" height="100%"/></g><g transform="translate(-2302.93 -2162.779)"><use xlink:href="#bQ" x="2587.581" y="2249.412" width="100%" height="100%"/><use xlink:href="#bR" x="2597.041" y="2249.412" width="100%" height="100%"/><use xlink:href="#bS" x="2612.718" y="2249.412" width="100%" height="100%"/><use xlink:href="#bT" x="2624.32" y="2249.412" width="100%" height="100%"/><use xlink:href="#bU" x="2634.256" y="2249.412" width="100%" height="100%"/><use xlink:href="#bS" x="2643.597" y="2249.412" width="100%" height="100%"/></g><g transform="translate(-2302.93 -2162.779)"><use xlink:href="#bL" x="2710.858" y="2249.412" width="100%" height="100%"/><use xlink:href="#bM" x="2722.727" y="2249.412" width="100%" height="100%"/><use xlink:href="#bN" x="2734.835" y="2249.412" width="100%" height="100%"/><use xlink:href="#bO" x="2742.124" y="2249.412" width="100%" height="100%"/><use xlink:href="#bP" x="2757.176" y="2249.412" width="100%" height="100%"/></g><g transform="translate(-2302.93 -2162.779)"><use xlink:href="#bO" x="2777.851" y="2249.412" width="100%" height="100%"/><use xlink:href="#bV" x="2792.904" y="2249.412" width="100%" height="100%"/><use xlink:href="#bW" x="2804.506" y="2249.412" width="100%" height="100%"/><use xlink:href="#bN" x="2819.826" y="2249.412" width="100%" height="100%"/><use xlink:href="#bX" x="2827.115" y="2249.412" width="100%" height="100%"/></g><g transform="translate(-2302.93 -2162.779)"><use xlink:href="#bY" x="2889.914" y="2249.412" width="100%" height="100%"/><use xlink:href="#bS" x="2905.621" y="2249.412" width="100%" height="100%"/><use xlink:href="#bR" x="2917.223" y="2249.412" width="100%" height="100%"/><use xlink:href="#bU" x="2932.9" y="2249.412" width="100%" height="100%"/><use xlink:href="#bT" x="2942.241" y="2249.412" width="100%" height="100%"/><use xlink:href="#bP" x="2952.177" y="2249.412" width="100%" height="100%"/></g><use xlink:href="#bW" x="2990.82" y="2249.412" width="100%" height="100%" transform="translate(-2302.93 -2162.779)"/><g transform="translate(-2302.93 -2162.779)"><use xlink:href="#bZ" x="3005.575" y="2249.412" width="100%" height="100%"/><use xlink:href="#ca" x="3017.445" y="2249.412" width="100%" height="100%"/><use xlink:href="#bS" x="3027.054" y="2249.412" width="100%" height="100%"/></g><g transform="translate(-2302.93 -2162.779)"><use xlink:href="#bO" x="3044.576" y="2249.412" width="100%" height="100%"/><use xlink:href="#bV" x="3059.628" y="2249.412" width="100%" height="100%"/><use xlink:href="#bW" x="3071.23" y="2249.412" width="100%" height="100%"/><use xlink:href="#bN" x="3086.55" y="2249.412" width="100%" height="100%"/><use xlink:href="#bX" x="3093.839" y="2249.412" width="100%" height="100%"/></g><use xlink:href="#bW" x="3124.896" y="2249.412" width="100%" height="100%" transform="translate(-2302.93 -2162.779)"/><g transform="translate(-2302.93 -2162.779)"><use xlink:href="#bZ" x="3139.651" y="2249.412" width="100%" height="100%"/><use xlink:href="#ca" x="3151.521" y="2249.412" width="100%" height="100%"/><use xlink:href="#bS" x="3161.13" y="2249.412" width="100%" height="100%"/></g><g transform="translate(-2302.93 -2162.779)"><use xlink:href="#bQ" x="3178.652" y="2249.412" width="100%" height="100%"/><use xlink:href="#bR" x="3188.112" y="2249.412" width="100%" height="100%"/><use xlink:href="#bS" x="3203.789" y="2249.412" width="100%" height="100%"/><use xlink:href="#bT" x="3215.391" y="2249.412" width="100%" height="100%"/><use xlink:href="#bU" x="3225.327" y="2249.412" width="100%" height="100%"/><use xlink:href="#bS" x="3234.668" y="2249.412" width="100%" height="100%"/></g><path d="M0 103.264h955.297" fill="none" stroke="#000" stroke-width="1.488" stroke-miterlimit="10"/><use xlink:href="#cb" x="2314.884" y="2300.227" width="100%" height="100%" transform="translate(-2302.93 -2162.779)"/><use xlink:href="#bu" x="2333.001" y="2300.227" width="100%" height="100%" transform="translate(-2302.93 -2162.779)"/><use xlink:href="#cc" x="2352.813" y="2300.227" width="100%" height="100%" transform="translate(-2302.93 -2162.779)"/><use xlink:href="#bu" x="2368.282" y="2300.227" width="100%" height="100%" transform="translate(-2302.93 -2162.779)"/><use xlink:href="#bq" x="2388.095" y="2300.227" width="100%" height="100%" transform="translate(-2302.93 -2162.779)"/><path d="M205.73 148.21h158.524v-35.868H205.73zm0 0" fill="#ee6375"/><g transform="translate(-2302.93 -2162.779)"><use xlink:href="#bT" x="2564.868" y="2300.227" width="100%" height="100%"/><use xlink:href="#bP" x="2574.804" y="2300.227" width="100%" height="100%"/><use xlink:href="#cd" x="2589.53" y="2300.227" width="100%" height="100%"/><use xlink:href="#bP" x="2596.252" y="2300.227" width="100%" height="100%"/></g><path d="M364.254 148.21h210.789v-35.868h-210.79zm0 0" fill="#d4a34f"/><g transform="translate(-2302.93 -2162.779)"><use xlink:href="#bY" x="2679.139" y="2300.227" width="100%" height="100%"/><use xlink:href="#bZ" x="2694.846" y="2300.227" width="100%" height="100%"/><use xlink:href="#bT" x="2706.716" y="2300.227" width="100%" height="100%"/><use xlink:href="#bZ" x="2716.652" y="2300.227" width="100%" height="100%"/><use xlink:href="#bY" x="2728.521" y="2300.227" width="100%" height="100%"/><use xlink:href="#cd" x="2744.229" y="2300.227" width="100%" height="100%"/><use xlink:href="#bZ" x="2750.952" y="2300.227" width="100%" height="100%"/><use xlink:href="#ce" x="2762.821" y="2300.227" width="100%" height="100%"/></g><g transform="translate(-2302.93 -2162.779)"><use xlink:href="#bZ" x="2772.906" y="2300.227" width="100%" height="100%"/><use xlink:href="#cf" x="2784.776" y="2300.227" width="100%" height="100%"/><use xlink:href="#bZ" x="2807.92" y="2300.227" width="100%" height="100%"/><use xlink:href="#bT" x="2819.79" y="2300.227" width="100%" height="100%"/><use xlink:href="#bN" x="2829.725" y="2300.227" width="100%" height="100%"/><use xlink:href="#bX" x="2837.014" y="2300.227" width="100%" height="100%"/><use xlink:href="#bX" x="2844.153" y="2300.227" width="100%" height="100%"/><use xlink:href="#bP" x="2851.293" y="2300.227" width="100%" height="100%"/></g><path d="M575.043 148.21h100.898v-35.868H575.043zm0 0" fill="#218730"/><use xlink:href="#cg" x="2898.184" y="2300.227" width="100%" height="100%" transform="translate(-2302.93 -2162.779)"/><g transform="translate(-2302.93 -2162.779)"><use xlink:href="#bS" x="2910.5" y="2300.227" width="100%" height="100%"/><use xlink:href="#bT" x="2922.102" y="2300.227" width="100%" height="100%"/><use xlink:href="#bO" x="2932.038" y="2300.227" width="100%" height="100%"/><use xlink:href="#bS" x="2947.09" y="2300.227" width="100%" height="100%"/></g><path d="M675.941 148.21h134.07v-35.868h-134.07zm0 0" fill="#4275a8"/><use xlink:href="#bZ" x="3023.254" y="2300.227" width="100%" height="100%" transform="translate(-2302.93 -2162.779)" fill="#fff"/><g transform="translate(-2302.93 -2162.779)" fill="#fff"><use xlink:href="#ch" x="3034.529" y="2300.227" width="100%" height="100%"/><use xlink:href="#bR" x="3045.744" y="2300.227" width="100%" height="100%"/><use xlink:href="#bX" x="3061.421" y="2300.227" width="100%" height="100%"/></g><path d="M810.012 148.21h145.285v-35.868H810.012zm0 0" fill="#a83075"/><g transform="translate(-2302.93 -2162.779)" fill="#fff"><use xlink:href="#cg" x="3148.309" y="2300.227" width="100%" height="100%"/><use xlink:href="#bN" x="3161.339" y="2300.227" width="100%" height="100%"/><use xlink:href="#bP" x="3168.627" y="2300.227" width="100%" height="100%"/></g><use xlink:href="#bX" x="3182.936" y="2300.227" width="100%" height="100%" transform="translate(-2302.93 -2162.779)" fill="#fff"/><g transform="translate(-2302.93 -2162.779)" fill="#fff"><use xlink:href="#bS" x="3190.046" y="2300.227" width="100%" height="100%"/><use xlink:href="#bU" x="3201.648" y="2300.227" width="100%" height="100%"/><use xlink:href="#bZ" x="3210.989" y="2300.227" width="100%" height="100%"/></g></svg>