<?xml version="1.0" encoding="UTF-8" standalone="no"?>
<svg
   width="382.83203pt"
   height="78.988281pt"
   viewBox="0 0 382.83204 78.988282"
   version="1.1"
   id="svg118"
   sodipodi:docname="Sin tiÌtulo.svg"
   inkscape:version="1.3 (0e150ed, 2023-07-21)"
   xmlns:inkscape="http://www.inkscape.org/namespaces/inkscape"
   xmlns:sodipodi="http://sodipodi.sourceforge.net/DTD/sodipodi-0.dtd"
   xmlns="http://www.w3.org/2000/svg"
   xmlns:svg="http://www.w3.org/2000/svg">
  <sodipodi:namedview
     id="namedview118"
     pagecolor="#ffffff"
     bordercolor="#000000"
     borderopacity="0.25"
     inkscape:showpageshadow="2"
     inkscape:pageopacity="0.0"
     inkscape:pagecheckerboard="0"
     inkscape:deskcolor="#d1d1d1"
     inkscape:document-units="pt"
     inkscape:zoom="0.72734177"
     inkscape:cx="262.60007"
     inkscape:cy="147.79847"
     inkscape:window-width="1920"
     inkscape:window-height="1080"
     inkscape:window-x="0"
     inkscape:window-y="0"
     inkscape:window-maximized="0"
     inkscape:current-layer="svg118" />
  <defs
     id="defs5">
    <clipPath
       id="clip-0">
      <path
         clip-rule="nonzero"
         d="M 16.410156,51 H 185 V 90 H 16.410156 Z m 0,0"
         id="path1" />
    </clipPath>
    <clipPath
       id="clip-1">
      <path
         clip-rule="nonzero"
         d="M 16.410156,10 H 400 V 47 H 16.410156 Z m 0,0"
         id="path2" />
    </clipPath>
    <clipPath
       id="clip-2">
      <path
         clip-rule="nonzero"
         d="M 16.410156,119 H 400 v 37 H 16.410156 Z m 0,0"
         id="path3" />
    </clipPath>
    <clipPath
       id="clip-3">
      <path
         clip-rule="nonzero"
         d="M 16.410156,159 H 158 v 33 H 16.410156 Z m 0,0"
         id="path4" />
    </clipPath>
    <clipPath
       id="clip-4">
      <path
         clip-rule="nonzero"
         d="M 16.410156,195 H 118 v 33.17969 H 16.410156 Z m 0,0"
         id="path5" />
    </clipPath>
  </defs>
  <g
     clip-path="url(#clip-0)"
     id="g6"
     transform="translate(-16.410156,-10.753906)">
    <path
       fill-rule="nonzero"
       fill="#d8e8c3"
       fill-opacity="1"
       d="M 170.30859,89.742188 H 30.265625 c -7.648437,0 -13.855469,-6.203126 -13.855469,-13.855469 v -10.90625 c 0,-7.65625 6.207032,-13.855469 13.855469,-13.855469 H 170.30859 c 7.65235,0 13.85547,6.199219 13.85547,13.855469 v 10.90625 c 0,7.652343 -6.20312,13.855469 -13.85547,13.855469"
       id="path6" />
  </g>
  <path
     fill-rule="nonzero"
     fill="#13a538"
     fill-opacity="1"
     d="m 16.050782,59.464844 c -0.503907,0.417969 -1.21875,0.625 -2.148438,0.625 h -1.78125 v 3.078125 H 10.34375 v -8.558594 h 3.675782 c 0.847656,0 1.523437,0.222657 2.027343,0.664063 0.5,0.441406 0.753907,1.121094 0.753907,2.046875 0,1.011719 -0.25,1.726562 -0.75,2.144531 m -1.367188,-3.082031 c -0.226562,-0.191407 -0.542969,-0.285157 -0.949219,-0.285157 h -1.613281 v 2.519532 h 1.613281 c 0.40625,0 0.722657,-0.105469 0.949219,-0.308594 0.226562,-0.207031 0.339844,-0.53125 0.339844,-0.976562 0,-0.445313 -0.113282,-0.761719 -0.339844,-0.949219"
     id="path7" />
  <path
     fill-rule="nonzero"
     fill="#13a538"
     fill-opacity="1"
     d="m 18.136719,63.167969 h 1.65625 v -8.558594 h -1.65625 z m 0,0"
     id="path8" />
  <path
     fill-rule="nonzero"
     fill="#13a538"
     fill-opacity="1"
     d="m 23.910156,59.316406 c 0.308594,-0.03516 0.527344,-0.08594 0.660157,-0.144531 0.238281,-0.101562 0.359375,-0.257812 0.359375,-0.46875 0,-0.261719 -0.09375,-0.4375 -0.277344,-0.539062 -0.179688,-0.09766 -0.449219,-0.144531 -0.800781,-0.144531 -0.394531,0 -0.675781,0.09375 -0.839844,0.289062 -0.121094,0.144531 -0.199219,0.335938 -0.238281,0.582031 h -1.59375 c 0.03516,-0.554687 0.1875,-1.007812 0.464844,-1.367187 0.441406,-0.554688 1.191406,-0.835938 2.261718,-0.835938 0.695313,0 1.3125,0.136719 1.855469,0.414063 0.539063,0.273437 0.808594,0.792969 0.808594,1.554687 v 2.902344 c 0,0.203125 0.0039,0.445312 0.01172,0.730469 0.01172,0.21875 0.04687,0.363281 0.09766,0.441406 0.05469,0.07813 0.136718,0.144531 0.246094,0.195313 v 0.242187 h -1.800782 c -0.05078,-0.128906 -0.08594,-0.25 -0.105468,-0.359375 -0.01563,-0.113281 -0.03125,-0.242188 -0.04297,-0.382812 -0.230469,0.246093 -0.496094,0.457031 -0.796875,0.632812 -0.359375,0.203125 -0.761719,0.304688 -1.214844,0.304688 -0.574219,0 -1.050781,-0.160157 -1.425781,-0.488282 -0.375,-0.328125 -0.566407,-0.792968 -0.566407,-1.390625 0,-0.777343 0.304688,-1.339843 0.910157,-1.691406 0.332031,-0.1875 0.816406,-0.324219 1.460937,-0.402344 z m 1.011719,0.773438 c -0.105469,0.06641 -0.210937,0.117188 -0.320312,0.160156 -0.105469,0.03906 -0.253907,0.07813 -0.445313,0.113282 l -0.375,0.07031 c -0.351562,0.0625 -0.605468,0.136719 -0.761718,0.226562 -0.257813,0.148438 -0.390626,0.382813 -0.390626,0.703126 0,0.28125 0.07813,0.484374 0.238282,0.609374 0.160156,0.128907 0.355468,0.191407 0.582031,0.191407 0.359375,0 0.695313,-0.105469 1,-0.3125 0.304687,-0.210938 0.460937,-0.59375 0.472656,-1.144531 z m 0,0"
     id="path9" />
  <path
     fill-rule="nonzero"
     fill="#13a538"
     fill-opacity="1"
     d="m 33.121094,57.203125 c 0.414062,0.339844 0.621094,0.910157 0.621094,1.703125 v 4.261719 h -1.695313 v -3.851563 c 0,-0.332031 -0.04297,-0.585937 -0.132812,-0.765624 -0.160157,-0.324219 -0.46875,-0.484376 -0.921875,-0.484376 -0.558594,0 -0.941406,0.234376 -1.148438,0.710938 -0.105468,0.253906 -0.160156,0.574219 -0.160156,0.964844 v 3.425781 H 28.03125 v -6.316406 h 1.601563 v 0.921875 c 0.210937,-0.324219 0.410156,-0.558594 0.601562,-0.703125 0.339844,-0.253907 0.769531,-0.382813 1.289063,-0.382813 0.648437,0 1.183594,0.171875 1.597656,0.515625"
     id="path10" />
  <path
     fill-rule="nonzero"
     fill="#13a538"
     fill-opacity="1"
     d="m 41.941406,56.941406 c 0.296876,0.167969 0.539063,0.402344 0.726563,0.699219 v -3.019531 h 1.675781 v 8.546875 h -1.609375 v -0.875 C 42.5,62.667969 42.230469,62.9375 41.929688,63.109375 41.625,63.28125 41.25,63.363282 40.800782,63.363282 c -0.738282,0 -1.359376,-0.296876 -1.867188,-0.894532 -0.503906,-0.597656 -0.753906,-1.367187 -0.753906,-2.300781 0,-1.082031 0.246094,-1.929687 0.746094,-2.550781 C 39.421875,57 40.085938,56.6875 40.917969,56.6875 c 0.382813,0 0.722656,0.08594 1.023437,0.253906 m 0.40625,4.507813 c 0.242188,-0.347656 0.363282,-0.800781 0.363282,-1.351563 0,-0.777343 -0.195313,-1.328124 -0.585938,-1.660156 -0.238281,-0.203125 -0.519531,-0.304687 -0.835937,-0.304687 -0.484375,0 -0.839844,0.183593 -1.066407,0.550781 -0.226562,0.367188 -0.335937,0.820312 -0.335937,1.359375 0,0.585937 0.113281,1.054687 0.34375,1.402344 0.230469,0.351562 0.578125,0.527343 1.046875,0.527343 0.46875,0 0.824219,-0.175781 1.070312,-0.523437"
     id="path11" />
  <path
     fill-rule="nonzero"
     fill="#13a538"
     fill-opacity="1"
     d="m 49.972656,56.96875 c 0.4375,0.195313 0.804688,0.507813 1.09375,0.933594 0.257813,0.378906 0.425782,0.8125 0.503907,1.308594 0.04297,0.292968 0.05859,0.710937 0.05078,1.257812 h -4.605469 c 0.02344,0.632813 0.242188,1.078125 0.660157,1.335938 0.253906,0.15625 0.554687,0.234375 0.910156,0.234375 0.378906,0 0.6875,-0.09375 0.921875,-0.289063 0.128906,-0.101562 0.242187,-0.25 0.339843,-0.433594 h 1.6875 c -0.04297,0.375 -0.246093,0.753907 -0.613281,1.140626 -0.566406,0.617187 -1.359375,0.925781 -2.378906,0.925781 -0.84375,0 -1.585937,-0.261719 -2.230469,-0.777344 -0.644531,-0.519531 -0.964844,-1.367187 -0.964844,-2.535156 0,-1.097657 0.289063,-1.9375 0.871094,-2.523438 0.582032,-0.585937 1.335938,-0.875 2.265625,-0.875 0.546875,0 1.042969,0.09766 1.488281,0.296875 m -2.476562,1.429688 c -0.234375,0.238281 -0.382812,0.566406 -0.441406,0.976562 h 2.851562 c -0.03125,-0.4375 -0.179687,-0.769531 -0.441406,-1 -0.265625,-0.226562 -0.59375,-0.339844 -0.980469,-0.339844 -0.425781,0 -0.753906,0.121094 -0.988281,0.363282"
     id="path12" />
  <path
     fill-rule="nonzero"
     fill="#13a538"
     fill-opacity="1"
     d="m 56.714844,55.503906 c 0.6875,-0.703124 1.566406,-1.058593 2.628906,-1.058593 1.425782,0 2.46875,0.472656 3.125,1.417969 0.363282,0.53125 0.558594,1.0625 0.585938,1.597656 h -1.789063 c -0.113281,-0.410156 -0.257812,-0.722656 -0.4375,-0.929688 -0.316406,-0.371094 -0.789062,-0.558594 -1.414062,-0.558594 -0.636719,0 -1.140625,0.261719 -1.507813,0.789063 -0.367187,0.523437 -0.550781,1.265625 -0.550781,2.226563 0,0.957031 0.191406,1.679687 0.582031,2.15625 0.386719,0.476562 0.878906,0.714843 1.476563,0.714843 0.613281,0 1.082031,-0.203125 1.402343,-0.613281 0.179688,-0.222656 0.328126,-0.550781 0.445313,-0.992188 h 1.777344 c -0.152344,0.933594 -0.546875,1.691407 -1.175781,2.273438 -0.628907,0.585938 -1.4375,0.878906 -2.421876,0.878906 -1.21875,0 -2.175781,-0.394531 -2.871093,-1.183594 -0.695313,-0.792968 -1.046875,-1.882812 -1.046875,-3.265624 0,-1.492188 0.398437,-2.644532 1.191406,-3.453126"
     id="path13" />
  <path
     fill-rule="nonzero"
     fill="#13a538"
     fill-opacity="1"
     d="m 69.625,62.394532 c -0.53125,0.65625 -1.34375,0.988281 -2.429687,0.988281 -1.089844,0 -1.898438,-0.332031 -2.433594,-0.988281 -0.535156,-0.660157 -0.800781,-1.453126 -0.800781,-2.382813 0,-0.914063 0.265625,-1.703125 0.800781,-2.371094 0.535156,-0.671875 1.34375,-1.003906 2.433594,-1.003906 1.085937,0 1.898437,0.332031 2.429687,1.003906 0.535156,0.667969 0.804688,1.457031 0.804688,2.371094 0,0.929687 -0.269532,1.722656 -0.804688,2.382813 m -1.320312,-0.914063 c 0.257812,-0.34375 0.386718,-0.835937 0.386718,-1.46875 0,-0.632813 -0.128906,-1.121094 -0.386718,-1.464844 -0.261719,-0.339843 -0.632813,-0.511719 -1.117188,-0.511719 -0.484375,0 -0.855468,0.171876 -1.117187,0.511719 -0.261719,0.34375 -0.390625,0.832031 -0.390625,1.464844 0,0.632813 0.128906,1.125 0.390625,1.46875 0.261719,0.339844 0.632812,0.515625 1.117187,0.515625 0.484375,0 0.855469,-0.175781 1.117188,-0.515625"
     id="path14" />
  <path
     fill-rule="nonzero"
     fill="#13a538"
     fill-opacity="1"
     d="m 76.714844,57.203125 c 0.417969,0.339844 0.625,0.910157 0.625,1.703125 v 4.261719 h -1.699219 v -3.851563 c 0,-0.332031 -0.04297,-0.585937 -0.128906,-0.765624 -0.164063,-0.324219 -0.472656,-0.484376 -0.921875,-0.484376 -0.558594,0 -0.941406,0.234376 -1.148438,0.710938 -0.109374,0.253906 -0.160156,0.574219 -0.160156,0.964844 v 3.425781 H 71.625 v -6.316406 h 1.601563 v 0.921875 c 0.210937,-0.324219 0.414062,-0.558594 0.601562,-0.703125 0.339844,-0.253907 0.769531,-0.382813 1.289063,-0.382813 0.652344,0 1.183594,0.171875 1.597656,0.515625"
     id="path15" />
  <path
     fill-rule="nonzero"
     fill="#13a538"
     fill-opacity="1"
     d="m 82.773438,56.839844 h 1.777346 l -2.285159,6.328125 H 80.519532 L 78.25,56.839844 h 1.859375 l 1.316407,4.667969 z m 0,0"
     id="path16" />
  <path
     fill-rule="nonzero"
     fill="#13a538"
     fill-opacity="1"
     d="m 87.191404,56.085938 h -1.67968 v -1.527344 h 1.67968 z m -1.67968,0.753906 h 1.67968 v 6.328125 h -1.67968 z m 0,0"
     id="path17" />
  <path
     fill-rule="nonzero"
     fill="#13a538"
     fill-opacity="1"
     d="m 92.691404,56.839844 h 1.77735 l -2.28907,6.328125 h -1.74218 l -2.26953,-6.328125 h 1.85937 l 1.31641,4.667969 z m 0,0"
     id="path18" />
  <path
     fill-rule="nonzero"
     fill="#13a538"
     fill-opacity="1"
     d="m 99.527344,56.96875 c 0.44141,0.195313 0.808586,0.507813 1.093746,0.933594 0.25781,0.378906 0.42969,0.8125 0.50391,1.308594 0.0469,0.292968 0.0625,0.710937 0.0547,1.257812 h -4.609366 c 0.0273,0.632813 0.24609,1.078125 0.66406,1.335938 0.25,0.15625 0.55469,0.234375 0.91016,0.234375 0.3789,0 0.68359,-0.09375 0.91797,-0.289063 0.13281,-0.101562 0.24218,-0.25 0.34375,-0.433594 h 1.687496 c -0.043,0.375 -0.25,0.753907 -0.61328,1.140626 -0.566406,0.617187 -1.359376,0.925781 -2.378906,0.925781 -0.84375,0 -1.58594,-0.261719 -2.23047,-0.777344 -0.64453,-0.519531 -0.96484,-1.367187 -0.96484,-2.535156 0,-1.097657 0.28906,-1.9375 0.87109,-2.523438 0.58203,-0.585937 1.33594,-0.875 2.26172,-0.875 0.55078,0 1.04687,0.09766 1.48828,0.296875 m -2.47266,1.429688 c -0.23437,0.238281 -0.38281,0.566406 -0.4414,0.976562 h 2.84765 c -0.0273,-0.4375 -0.17578,-0.769531 -0.4414,-1 -0.26172,-0.226562 -0.58985,-0.339844 -0.97656,-0.339844 -0.42579,0 -0.75782,0.121094 -0.98829,0.363282"
     id="path19" />
  <path
     fill-rule="nonzero"
     fill="#13a538"
     fill-opacity="1"
     d="m 107.12109,57.203125 c 0.41406,0.339844 0.62109,0.910157 0.62109,1.703125 v 4.261719 h -1.69531 v -3.851563 c 0,-0.332031 -0.043,-0.585937 -0.13281,-0.765624 -0.16016,-0.324219 -0.46875,-0.484376 -0.92188,-0.484376 -0.55468,0 -0.9414,0.234376 -1.14843,0.710938 -0.10547,0.253906 -0.16016,0.574219 -0.16016,0.964844 v 3.425781 h -1.65234 v -6.316406 h 1.60156 v 0.921875 c 0.21094,-0.324219 0.41016,-0.558594 0.60156,-0.703125 0.33985,-0.253907 0.76953,-0.382813 1.28906,-0.382813 0.64844,0 1.1836,0.171875 1.59766,0.515625"
     id="path20" />
  <path
     fill-rule="nonzero"
     fill="#13a538"
     fill-opacity="1"
     d="m 113.0664,59.109375 c -0.0312,-0.234375 -0.11328,-0.449219 -0.23828,-0.636719 -0.1875,-0.257812 -0.47656,-0.386718 -0.86719,-0.386718 -0.55859,0 -0.9414,0.277344 -1.14843,0.832031 -0.10547,0.292969 -0.16016,0.683594 -0.16016,1.171875 0,0.460938 0.0547,0.832031 0.16016,1.117188 0.19922,0.523437 0.57031,0.789062 1.11718,0.789062 0.39063,0 0.66407,-0.105469 0.82813,-0.316406 0.16406,-0.207032 0.26172,-0.476563 0.29687,-0.8125 h 1.6875 c -0.0391,0.503906 -0.21875,0.980468 -0.54297,1.429687 -0.51953,0.722657 -1.28906,1.085938 -2.30859,1.085938 -1.01953,0 -1.76953,-0.300781 -2.25,-0.90625 -0.48047,-0.601563 -0.71875,-1.386719 -0.71875,-2.347657 0,-1.085937 0.26563,-1.929687 0.79297,-2.535156 0.53125,-0.605468 1.26563,-0.90625 2.19922,-0.90625 0.79297,0 1.44531,0.179688 1.94922,0.535156 0.5039,0.355469 0.80468,0.984376 0.89843,1.886719 z m 0,0"
     id="path21" />
  <path
     fill-rule="nonzero"
     fill="#13a538"
     fill-opacity="1"
     d="m 117.59375,56.085938 h -1.67579 v -1.527344 h 1.67579 z m -1.67579,0.753906 h 1.67579 v 6.328125 h -1.67579 z m 0,0"
     id="path22" />
  <path
     fill-rule="nonzero"
     fill="#13a538"
     fill-opacity="1"
     d="m 121.70312,59.316406 c 0.30859,-0.03516 0.52734,-0.08594 0.66016,-0.144531 0.23828,-0.101562 0.35547,-0.257812 0.35547,-0.46875 0,-0.261719 -0.0898,-0.4375 -0.27344,-0.539062 -0.17969,-0.09766 -0.44922,-0.144531 -0.80078,-0.144531 -0.39844,0 -0.67969,0.09375 -0.84375,0.289062 -0.11719,0.144531 -0.19532,0.335938 -0.23438,0.582031 h -1.59765 c 0.0352,-0.554687 0.1914,-1.007812 0.46875,-1.367187 0.4375,-0.554688 1.1914,-0.835938 2.26171,-0.835938 0.69532,0 1.3125,0.136719 1.85547,0.414063 0.53907,0.273437 0.8086,0.792969 0.8086,1.554687 v 2.902344 c 0,0.203125 0.004,0.445312 0.0117,0.730469 0.0117,0.21875 0.043,0.363281 0.0977,0.441406 0.0547,0.07813 0.13672,0.144531 0.2461,0.195313 v 0.242187 h -1.80079 c -0.0508,-0.128906 -0.0859,-0.25 -0.10546,-0.359375 -0.0195,-0.113281 -0.0312,-0.242188 -0.043,-0.382812 -0.23047,0.246093 -0.4961,0.457031 -0.79688,0.632812 -0.35937,0.203125 -0.76172,0.304688 -1.21484,0.304688 -0.57422,0 -1.05078,-0.160157 -1.42578,-0.488282 -0.375,-0.328125 -0.5625,-0.792968 -0.5625,-1.390625 0,-0.777343 0.30078,-1.339843 0.90234,-1.691406 0.33203,-0.1875 0.82031,-0.324219 1.46484,-0.402344 z m 1.01172,0.773438 c -0.10547,0.06641 -0.21094,0.117188 -0.32031,0.160156 -0.10938,0.03906 -0.25782,0.07813 -0.44532,0.113282 l -0.375,0.07031 c -0.35546,0.0625 -0.60937,0.136719 -0.76171,0.226562 -0.26172,0.148438 -0.39063,0.382813 -0.39063,0.703126 0,0.28125 0.0781,0.484374 0.23828,0.609374 0.16016,0.128907 0.35156,0.191407 0.58203,0.191407 0.36328,0 0.69532,-0.105469 1,-0.3125 0.30469,-0.210938 0.46094,-0.59375 0.47266,-1.144531 z m 0,0"
     id="path23" />
  <g
     clip-path="url(#clip-1)"
     id="g24"
     transform="translate(-16.410156,-10.753906)">
    <path
       fill-rule="nonzero"
       fill="#107627"
       fill-opacity="1"
       d="M 372.37891,46.75 H 16.410156 V 37.546875 C 16.410156,22.75 28.40625,10.753906 43.207031,10.753906 H 393.38672 c 3.23437,0 5.85547,2.621094 5.85547,5.851563 v 3.28125 c 0,14.835937 -12.02735,26.863281 -26.86328,26.863281"
       id="path24" />
  </g>
  <g
     clip-path="url(#clip-2)"
     id="g25"
     transform="translate(-16.410156,-10.753906)">
    <path
       fill-rule="nonzero"
       fill="#107627"
       fill-opacity="1"
       d="M 372.37891,155.09375 H 16.410156 v -9.20313 c 0,-14.79687 11.996094,-26.79296 26.796875,-26.79296 H 393.38672 c 3.23437,0 5.85547,2.62109 5.85547,5.85156 v 3.28125 c 0,14.83594 -12.02735,26.86328 -26.86328,26.86328"
       id="path25" />
  </g>
  <path
     fill-rule="nonzero"
     fill="#ffffff"
     fill-opacity="1"
     d="m 8.605469,14.390625 h 2.066406 l 3.738281,6.570313 v -6.570313 h 1.832032 V 23.8125 h -1.96875 L 10.441406,17.128906 V 23.8125 H 8.605469 Z m 0,0"
     id="path26" />
  <path
     fill-rule="nonzero"
     fill="#ffffff"
     fill-opacity="1"
     d="m 23.753906,22.960938 c -0.585937,0.726562 -1.480468,1.085937 -2.679687,1.085937 -1.195313,0 -2.089844,-0.359375 -2.675781,-1.085937 -0.589844,-0.726563 -0.882813,-1.601563 -0.882813,-2.621094 0,-1.007812 0.292969,-1.875 0.882813,-2.613281 0.585937,-0.734375 1.480468,-1.105469 2.675781,-1.105469 1.199219,0 2.09375,0.371094 2.679687,1.105469 0.589844,0.738281 0.882813,1.605469 0.882813,2.613281 0,1.019531 -0.292969,1.894531 -0.882813,2.621094 m -1.457031,-1.007813 c 0.285157,-0.378906 0.429688,-0.917969 0.429688,-1.613281 0,-0.699219 -0.144531,-1.234375 -0.429688,-1.613281 -0.285156,-0.375 -0.695312,-0.5625 -1.226562,-0.5625 -0.53125,0 -0.941407,0.1875 -1.230469,0.5625 -0.289062,0.378906 -0.433594,0.914062 -0.433594,1.613281 0,0.695312 0.144532,1.234375 0.433594,1.613281 0.289062,0.378907 0.699219,0.570313 1.230469,0.570313 0.53125,0 0.941406,-0.191406 1.226562,-0.570313"
     id="path27" />
  <path
     fill-rule="nonzero"
     fill="#ffffff"
     fill-opacity="1"
     d="m 29.808594,16.683594 c 0.02344,0 0.07813,0.0039 0.15625,0.0078 v 1.8672 c -0.113281,-0.01172 -0.214844,-0.01953 -0.304688,-0.02344 -0.08984,-0.0078 -0.160156,-0.0078 -0.21875,-0.0078 -0.730468,0 -1.222656,0.238281 -1.476562,0.714844 -0.140625,0.269531 -0.210938,0.683594 -0.210938,1.238281 v 3.332031 h -1.832031 v -6.96875 h 1.738281 v 1.214834 c 0.28125,-0.464844 0.523438,-0.78125 0.734376,-0.953125 0.339843,-0.28125 0.785156,-0.425781 1.328124,-0.425781 0.03516,0 0.0625,0 0.08594,0.0039"
     id="path28" />
  <path
     fill-rule="nonzero"
     fill="#ffffff"
     fill-opacity="1"
     d="m 39.726563,16.871094 c 0.300781,0.121094 0.570312,0.328125 0.8125,0.625 0.195312,0.246094 0.328125,0.542969 0.394531,0.894531 0.04297,0.238281 0.06641,0.578125 0.06641,1.03125 l -0.01563,4.390625 h -1.86328 v -4.433594 c 0,-0.265624 -0.04297,-0.484374 -0.128906,-0.652343 -0.164063,-0.328125 -0.460938,-0.488281 -0.894532,-0.488281 -0.503906,0 -0.851562,0.210937 -1.042968,0.628906 -0.09766,0.21875 -0.148438,0.484375 -0.148438,0.796875 V 23.8125 h -1.832031 v -4.148437 c 0,-0.414063 -0.04297,-0.714844 -0.128906,-0.902344 -0.152344,-0.335937 -0.453125,-0.503906 -0.902344,-0.503906 -0.519531,0 -0.867187,0.167969 -1.046875,0.503906 -0.09766,0.195313 -0.144531,0.480469 -0.144531,0.859375 V 23.8125 h -1.847657 v -6.953125 h 1.769532 V 17.875 c 0.222656,-0.363281 0.4375,-0.621094 0.636718,-0.773437 0.355469,-0.273438 0.8125,-0.410157 1.375,-0.410157 0.535157,0 0.964844,0.117188 1.292969,0.351563 0.261719,0.21875 0.464844,0.496094 0.601563,0.839844 0.234375,-0.410157 0.53125,-0.710938 0.886718,-0.902344 0.375,-0.191406 0.792969,-0.289063 1.253907,-0.289063 0.304687,0 0.609375,0.05859 0.90625,0.179688"
     id="path29" />
  <path
     fill-rule="nonzero"
     fill="#ffffff"
     fill-opacity="1"
     d="m 45.433594,19.574219 c 0.339844,-0.04297 0.582031,-0.09375 0.726562,-0.160156 0.261719,-0.109375 0.390626,-0.28125 0.390626,-0.515625 0,-0.285156 -0.09766,-0.484375 -0.300782,-0.589844 -0.199218,-0.113281 -0.496094,-0.164062 -0.882812,-0.164062 -0.4375,0 -0.746094,0.105468 -0.925782,0.320312 -0.128906,0.15625 -0.21875,0.371094 -0.261718,0.636719 h -1.757813 c 0.03906,-0.609375 0.210938,-1.109375 0.515625,-1.5 0.484375,-0.617188 1.3125,-0.921875 2.488282,-0.921875 0.769531,0 1.449218,0.152344 2.042968,0.453125 0.597656,0.304687 0.894532,0.875 0.894532,1.714843 v 3.195313 c 0,0.222656 0.0039,0.488281 0.01172,0.804687 0.01172,0.238282 0.04687,0.398438 0.109375,0.484376 0.05859,0.08594 0.148438,0.15625 0.265625,0.210937 V 23.8125 h -1.980468 c -0.05469,-0.140625 -0.09375,-0.273437 -0.113282,-0.394531 -0.02344,-0.125 -0.03906,-0.265625 -0.05078,-0.421875 -0.253906,0.273438 -0.546875,0.503906 -0.875,0.695312 -0.394531,0.226563 -0.839844,0.339844 -1.339844,0.339844 -0.632812,0 -1.15625,-0.179687 -1.570312,-0.542968 -0.414063,-0.359376 -0.621094,-0.871094 -0.621094,-1.527344 0,-0.859375 0.332031,-1.476563 1,-1.863282 0.363281,-0.207031 0.898437,-0.355468 1.609375,-0.445312 z m 1.113281,0.851563 c -0.117187,0.07031 -0.234375,0.132812 -0.351562,0.175781 -0.121094,0.04297 -0.285157,0.08594 -0.492188,0.125 l -0.414062,0.07422 c -0.386719,0.07031 -0.667969,0.152343 -0.835938,0.25 -0.289062,0.167968 -0.429687,0.425781 -0.429687,0.773437 0,0.3125 0.08594,0.535156 0.261718,0.675781 0.175782,0.136719 0.386719,0.207032 0.636719,0.207032 0.402344,0 0.765625,-0.113282 1.101563,-0.34375 0.335937,-0.230469 0.511718,-0.652344 0.523437,-1.261719 z m 0,0"
     id="path30" />
  <path
     fill-rule="nonzero"
     fill="#ffffff"
     fill-opacity="1"
     d="m 51.367188,21.589844 c 0.03516,0.324219 0.121094,0.550781 0.25,0.6875 0.226562,0.242188 0.644531,0.367188 1.257812,0.367188 0.359375,0 0.644532,-0.05469 0.859375,-0.160157 0.210938,-0.109375 0.316407,-0.269531 0.316407,-0.480469 0,-0.203124 -0.08594,-0.359374 -0.257813,-0.464843 C 53.625,21.429688 52.988282,21.246094 51.886719,20.988282 51.097656,20.792969 50.539063,20.546875 50.214844,20.253906 49.890625,19.964844 49.730469,19.546875 49.730469,19 c 0,-0.644531 0.253906,-1.195312 0.757813,-1.660156 0.503906,-0.460938 1.21875,-0.691406 2.136718,-0.691406 0.871094,0 1.582032,0.171875 2.128906,0.519531 0.550782,0.347656 0.863282,0.949219 0.945313,1.800781 h -1.820313 c -0.02734,-0.234375 -0.09375,-0.421875 -0.199218,-0.558594 -0.203125,-0.246093 -0.542969,-0.367187 -1.027344,-0.367187 -0.398438,0 -0.679688,0.05859 -0.847656,0.183594 -0.171875,0.121093 -0.253906,0.269531 -0.253906,0.433593 0,0.210938 0.08984,0.359376 0.269531,0.453126 0.179687,0.09766 0.8125,0.269531 1.902343,0.507812 0.726563,0.167969 1.269532,0.425781 1.632813,0.773438 0.355469,0.347656 0.535156,0.785156 0.535156,1.308593 0,0.691407 -0.257812,1.253907 -0.769531,1.691407 -0.515625,0.4375 -1.3125,0.65625 -2.386719,0.65625 -1.097656,0 -1.910156,-0.234376 -2.429687,-0.695313 -0.523438,-0.460937 -0.785156,-1.050781 -0.785156,-1.765625 z m 0,0"
     id="path31" />
  <path
     fill-rule="nonzero"
     fill="#ffffff"
     fill-opacity="1"
     d="m 64.566406,16.957032 c 0.324219,0.1875 0.59375,0.441406 0.796876,0.769531 v -3.324219 h 1.847656 V 23.8125 H 65.441406 V 22.847656 C 65.179688,23.261719 64.882813,23.5625 64.550782,23.75 c -0.332032,0.1875 -0.746094,0.28125 -1.238282,0.28125 -0.8125,0 -1.5,-0.328125 -2.054687,-0.988281 -0.554688,-0.660156 -0.835938,-1.503906 -0.835938,-2.535156 0,-1.1875 0.273438,-2.125 0.820313,-2.804688 0.550781,-0.683593 1.28125,-1.023437 2.199218,-1.023437 0.421876,0 0.796876,0.09375 1.125,0.277344 m 0.445313,4.964843 c 0.269531,-0.382812 0.402344,-0.882812 0.402344,-1.492187 0,-0.851563 -0.214844,-1.460938 -0.644531,-1.828125 -0.265626,-0.21875 -0.570313,-0.332031 -0.921876,-0.332031 -0.53125,0 -0.921874,0.203124 -1.171874,0.605468 -0.25,0.402344 -0.375,0.902344 -0.375,1.5 0,0.640625 0.128906,1.15625 0.382812,1.542969 0.25,0.386719 0.636719,0.578125 1.152344,0.578125 0.515625,0 0.90625,-0.191406 1.175781,-0.574219"
     id="path32" />
  <path
     fill-rule="nonzero"
     fill="#ffffff"
     fill-opacity="1"
     d="m 73.40625,16.988282 c 0.484375,0.214843 0.886719,0.558593 1.203125,1.027343 0.285157,0.417969 0.472657,0.894531 0.554688,1.441407 0.05078,0.320312 0.07031,0.78125 0.0625,1.382812 h -5.074219 c 0.02734,0.699219 0.269531,1.1875 0.726562,1.46875 0.277344,0.175781 0.613282,0.265625 1.003907,0.265625 0.414062,0 0.753906,-0.109375 1.011719,-0.320313 0.140624,-0.117187 0.265624,-0.277343 0.375,-0.480468 h 1.859374 c -0.04687,0.414062 -0.273437,0.832031 -0.675781,1.257812 -0.621093,0.679688 -1.496093,1.019532 -2.621093,1.019532 -0.925782,0 -1.742188,-0.289063 -2.453126,-0.859376 -0.707031,-0.570312 -1.0625,-1.5 -1.0625,-2.789062 0,-1.207031 0.320313,-2.132812 0.960938,-2.777344 0.636719,-0.644531 1.46875,-0.964844 2.492188,-0.964844 0.605468,0 1.152343,0.109376 1.636718,0.328126 m -2.726562,1.570312 c -0.257813,0.269531 -0.417969,0.625 -0.484375,1.082031 h 3.136719 c -0.03125,-0.484375 -0.191407,-0.851562 -0.484376,-1.101562 -0.289062,-0.25 -0.648437,-0.375 -1.078124,-0.375 -0.46875,0 -0.832032,0.132812 -1.089844,0.394531"
     id="path33" />
  <path
     fill-rule="nonzero"
     fill="#ffffff"
     fill-opacity="1"
     d="m 85.593754,22.960938 c -0.58985,0.726562 -1.48047,1.085937 -2.679691,1.085937 -1.195313,0 -2.089844,-0.359375 -2.675781,-1.085937 -0.589844,-0.726563 -0.882813,-1.601563 -0.882813,-2.621094 0,-1.007812 0.292969,-1.875 0.882813,-2.613281 0.585937,-0.734375 1.480468,-1.105469 2.675781,-1.105469 1.199221,0 2.089841,0.371094 2.679691,1.105469 0.58593,0.738281 0.88281,1.605469 0.88281,2.613281 0,1.019531 -0.29688,1.894531 -0.88281,2.621094 m -1.45703,-1.007813 c 0.28515,-0.378906 0.42578,-0.917969 0.42578,-1.613281 0,-0.699219 -0.14063,-1.234375 -0.42578,-1.613281 -0.28516,-0.375 -0.695318,-0.5625 -1.226568,-0.5625 -0.535156,0 -0.945312,0.1875 -1.230468,0.5625 -0.289063,0.378906 -0.433594,0.914062 -0.433594,1.613281 0,0.695312 0.144531,1.234375 0.433594,1.613281 0.285156,0.378907 0.695312,0.570313 1.230468,0.570313 0.53125,0 0.941408,-0.191406 1.226568,-0.570313"
     id="path34" />
  <path
     fill-rule="nonzero"
     fill="#ffffff"
     fill-opacity="1"
     d="m 91.648434,16.683594 c 0.0234,0 0.0742,0.0039 0.15625,0.0078 v 1.8672 c -0.11328,-0.01172 -0.21484,-0.01953 -0.30468,-0.02344 -0.0898,-0.0078 -0.16407,-0.0078 -0.21875,-0.0078 -0.73438,0 -1.22657,0.238281 -1.47657,0.714844 -0.14062,0.269531 -0.21093,0.683594 -0.21093,1.238281 v 3.332031 h -1.83594 v -6.96875 h 1.74219 v 1.214834 c 0.28125,-0.464844 0.52343,-0.78125 0.73437,-0.953125 0.33985,-0.28125 0.78125,-0.425781 1.32813,-0.425781 0.0352,0 0.0625,0 0.0859,0.0039"
     id="path35" />
  <path
     fill-rule="nonzero"
     fill="#ffffff"
     fill-opacity="1"
     d="m 96.320314,16.839844 c 0.44141,0.183594 0.80078,0.519531 1.07031,1.007812 V 16.84375 h 1.77735 v 6.609375 c 0,0.902344 -0.15235,1.578125 -0.45313,2.035157 -0.51953,0.78125 -1.51562,1.175781 -2.99219,1.175781 -0.89062,0 -1.61718,-0.175781 -2.17968,-0.523438 -0.5625,-0.351562 -0.875,-0.871093 -0.9336,-1.566406 h 1.98047 c 0.0547,0.210937 0.13672,0.363281 0.25,0.460937 0.19922,0.164063 0.52734,0.246094 0.99219,0.246094 0.65625,0 1.09375,-0.21875 1.3164,-0.65625 0.14454,-0.28125 0.21875,-0.753906 0.21875,-1.417968 v -0.449219 c -0.17578,0.296875 -0.36328,0.523437 -0.5625,0.671875 -0.36328,0.277344 -0.83203,0.414062 -1.41406,0.414062 -0.89453,0 -1.60937,-0.3125 -2.14453,-0.941406 -0.53516,-0.628906 -0.80078,-1.480469 -0.80078,-2.554688 0,-1.035156 0.25781,-1.90625 0.76953,-2.609374 0.51563,-0.707032 1.24609,-1.058594 2.19141,-1.058594 0.34765,0 0.65234,0.05078 0.91406,0.160156 m 0.62109,4.996094 c 0.29297,-0.324219 0.4375,-0.835938 0.4375,-1.539063 0,-0.660156 -0.14062,-1.164062 -0.41797,-1.507812 -0.27734,-0.34375 -0.64843,-0.519531 -1.11718,-0.519531 -0.63672,0 -1.07422,0.300781 -1.31641,0.902343 -0.125,0.320313 -0.19141,0.714844 -0.19141,1.183594 0,0.402344 0.0664,0.765625 0.20313,1.078125 0.24609,0.589844 0.6875,0.882812 1.32422,0.882812 0.42578,0 0.78515,-0.160156 1.07812,-0.480468"
     id="path36" />
  <path
     fill-rule="nonzero"
     fill="#ffffff"
     fill-opacity="1"
     d="m 103.6289,19.574219 c 0.33985,-0.04297 0.58203,-0.09375 0.72657,-0.160156 0.26171,-0.109375 0.39453,-0.28125 0.39453,-0.515625 0,-0.285156 -0.10157,-0.484375 -0.30469,-0.589844 -0.19922,-0.113281 -0.49609,-0.164062 -0.88281,-0.164062 -0.4336,0 -0.7461,0.105468 -0.92578,0.320312 -0.12891,0.15625 -0.21485,0.371094 -0.25782,0.636719 h -1.75781 c 0.0352,-0.609375 0.20703,-1.109375 0.51172,-1.5 0.48437,-0.617188 1.3125,-0.921875 2.49219,-0.921875 0.76562,0 1.44531,0.152344 2.03906,0.453125 0.59766,0.304687 0.89453,0.875 0.89453,1.714843 v 3.195313 c 0,0.222656 0.004,0.488281 0.0117,0.804687 0.0117,0.238282 0.0508,0.398438 0.10937,0.484376 0.0586,0.08594 0.14844,0.15625 0.26563,0.210937 V 23.8125 h -1.98045 c -0.0547,-0.140625 -0.0937,-0.273437 -0.11328,-0.394531 -0.0195,-0.125 -0.0391,-0.265625 -0.0508,-0.421875 -0.25391,0.273438 -0.54688,0.503906 -0.875,0.695312 -0.39453,0.226563 -0.83985,0.339844 -1.33594,0.339844 -0.63672,0 -1.16016,-0.179687 -1.57422,-0.542968 -0.41406,-0.359376 -0.62109,-0.871094 -0.62109,-1.527344 0,-0.859375 0.33203,-1.476563 1,-1.863282 0.36328,-0.207031 0.90234,-0.355468 1.60937,-0.445312 z m 1.11328,0.851563 c -0.11718,0.07031 -0.23437,0.132812 -0.35156,0.175781 -0.12109,0.04297 -0.28515,0.08594 -0.49219,0.125 l -0.41406,0.07422 c -0.38672,0.07031 -0.66797,0.152343 -0.83594,0.25 -0.28906,0.167968 -0.42968,0.425781 -0.42968,0.773437 0,0.3125 0.0859,0.535156 0.26172,0.675781 0.17578,0.136719 0.38671,0.207032 0.64062,0.207032 0.39844,0 0.76172,-0.113282 1.09766,-0.34375 0.33593,-0.230469 0.51172,-0.652344 0.52343,-1.261719 z m 0,0"
     id="path37" />
  <path
     fill-rule="nonzero"
     fill="#ffffff"
     fill-opacity="1"
     d="m 113.76562,17.246094 c 0.45703,0.375 0.68359,1 0.68359,1.875 V 23.8125 h -1.86328 v -4.238281 c 0,-0.367187 -0.0508,-0.648437 -0.14843,-0.84375 -0.17579,-0.355469 -0.51563,-0.535156 -1.01563,-0.535156 -0.61328,0 -1.03125,0.261719 -1.26172,0.785156 -0.11718,0.277344 -0.17578,0.632813 -0.17578,1.0625 V 23.8125 h -1.82422 v -6.953125 h 1.76563 V 17.875 c 0.23047,-0.359375 0.45312,-0.617187 0.66406,-0.773437 0.37109,-0.28125 0.84375,-0.421875 1.41797,-0.421875 0.71484,0 1.30078,0.1875 1.75781,0.566406"
     id="path38" />
  <path
     fill-rule="nonzero"
     fill="#ffffff"
     fill-opacity="1"
     d="m 118.01562,16.015625 h -1.84375 v -1.683593 h 1.84375 z m -1.84375,0.832031 h 1.84375 V 23.8125 h -1.84375 z m 0,0"
     id="path39" />
  <path
     fill-rule="nonzero"
     fill="#ffffff"
     fill-opacity="1"
     d="M 119.38671,18.328125 V 16.84375 h 5.50782 v 1.515625 l -3.41797,3.957031 h 3.53906 V 23.8125 h -5.875 v -1.417968 l 3.45313,-4.066407 z m 0,0"
     id="path40" />
  <path
     fill-rule="nonzero"
     fill="#ffffff"
     fill-opacity="1"
     d="m 129.08593,19.574219 c 0.33985,-0.04297 0.58203,-0.09375 0.72657,-0.160156 0.26171,-0.109375 0.39453,-0.28125 0.39453,-0.515625 0,-0.285156 -0.10157,-0.484375 -0.30078,-0.589844 -0.20313,-0.113281 -0.4961,-0.164062 -0.88672,-0.164062 -0.4336,0 -0.7461,0.105468 -0.92578,0.320312 -0.12891,0.15625 -0.21485,0.371094 -0.25782,0.636719 h -1.75781 c 0.0391,-0.609375 0.20703,-1.109375 0.51172,-1.5 0.48437,-0.617188 1.3125,-0.921875 2.49219,-0.921875 0.76562,0 1.44531,0.152344 2.03906,0.453125 0.59766,0.304687 0.89453,0.875 0.89453,1.714843 v 3.195313 c 0,0.222656 0.004,0.488281 0.0117,0.804687 0.0117,0.238282 0.0508,0.398438 0.10937,0.484376 0.0586,0.08594 0.14844,0.15625 0.26954,0.210937 V 23.8125 h -1.98047 c -0.0586,-0.140625 -0.0977,-0.273437 -0.11719,-0.394531 -0.0195,-0.125 -0.0391,-0.265625 -0.0508,-0.421875 -0.25391,0.273438 -0.54297,0.503906 -0.875,0.695312 -0.39453,0.226563 -0.83985,0.339844 -1.33594,0.339844 -0.63672,0 -1.16016,-0.179687 -1.57422,-0.542968 -0.41406,-0.359376 -0.61719,-0.871094 -0.61719,-1.527344 0,-0.859375 0.33204,-1.476563 0.9961,-1.863282 0.36719,-0.207031 0.90234,-0.355468 1.60937,-0.445312 z m 1.11328,0.851563 c -0.11718,0.07031 -0.23437,0.132812 -0.35156,0.175781 -0.12109,0.04297 -0.28515,0.08594 -0.49219,0.125 l -0.41406,0.07422 c -0.38672,0.07031 -0.66797,0.152343 -0.83594,0.25 -0.28515,0.167968 -0.42968,0.425781 -0.42968,0.773437 0,0.3125 0.0859,0.535156 0.26172,0.675781 0.17578,0.136719 0.38671,0.207032 0.64062,0.207032 0.39844,0 0.76563,-0.113282 1.10156,-0.34375 0.33203,-0.230469 0.50782,-0.652344 0.51953,-1.261719 z m 0,0"
     id="path41" />
  <path
     fill-rule="nonzero"
     fill="#ffffff"
     fill-opacity="1"
     d="m 137.77343,19.34375 c -0.0352,-0.257812 -0.12109,-0.492187 -0.26172,-0.703125 -0.20312,-0.28125 -0.52343,-0.421875 -0.95312,-0.421875 -0.61719,0 -1.03906,0.304688 -1.26563,0.914063 -0.11718,0.324219 -0.17968,0.753906 -0.17968,1.289062 0,0.511719 0.0625,0.921875 0.17968,1.230469 0.21875,0.578125 0.62891,0.871094 1.23047,0.871094 0.42969,0 0.73047,-0.117188 0.91016,-0.347656 0.17969,-0.230469 0.28906,-0.527344 0.32812,-0.894532 h 1.85938 c -0.043,0.554688 -0.24219,1.078125 -0.60156,1.574219 -0.57032,0.796875 -1.41797,1.195313 -2.53907,1.195313 -1.12109,0 -1.94921,-0.332032 -2.47656,-1 -0.52734,-0.664063 -0.79297,-1.527344 -0.79297,-2.585938 0,-1.195312 0.29297,-2.125 0.875,-2.789062 0.58594,-0.664063 1.39063,-0.996094 2.42188,-0.996094 0.87109,0 1.58594,0.195312 2.14453,0.589844 0.55469,0.390624 0.88672,1.082031 0.98828,2.074218 z m 0,0"
     id="path42" />
  <path
     fill-rule="nonzero"
     fill="#ffffff"
     fill-opacity="1"
     d="m 142.75781,16.015625 h -1.84375 v -1.683593 h 1.84375 z m -1.84375,0.832031 h 1.84375 V 23.8125 h -1.84375 z m 0,0"
     id="path43" />
  <path
     fill-rule="nonzero"
     fill="#ffffff"
     fill-opacity="1"
     d="m 150.33203,22.960938 c -0.58594,0.726562 -1.48047,1.085937 -2.67578,1.085937 -1.19922,0 -2.08985,-0.359375 -2.67969,-1.085937 -0.58594,-0.726563 -0.88281,-1.601563 -0.88281,-2.621094 0,-1.007812 0.29687,-1.875 0.88281,-2.613281 0.58984,-0.734375 1.48047,-1.105469 2.67969,-1.105469 1.19531,0 2.08984,0.371094 2.67578,1.105469 0.58984,0.738281 0.88281,1.605469 0.88281,2.613281 0,1.019531 -0.29297,1.894531 -0.88281,2.621094 M 148.875,21.953125 c 0.28906,-0.378906 0.42968,-0.917969 0.42968,-1.613281 0,-0.699219 -0.14062,-1.234375 -0.42968,-1.613281 -0.28516,-0.375 -0.69532,-0.5625 -1.22657,-0.5625 -0.53125,0 -0.9414,0.1875 -1.23047,0.5625 -0.28515,0.378906 -0.42968,0.914062 -0.42968,1.613281 0,0.695312 0.14453,1.234375 0.42968,1.613281 0.28907,0.378907 0.69922,0.570313 1.23047,0.570313 0.53125,0 0.94141,-0.191406 1.22657,-0.570313 m 0.96093,-7.957031 -1.94531,1.910156 h -1.31641 l 1.22657,-1.910156 z m 0,0"
     id="path44" />
  <path
     fill-rule="nonzero"
     fill="#ffffff"
     fill-opacity="1"
     d="m 158.13671,17.246094 c 0.45704,0.375 0.6836,1 0.6836,1.875 V 23.8125 h -1.86328 v -4.238281 c 0,-0.367187 -0.0508,-0.648437 -0.14844,-0.84375 -0.17578,-0.355469 -0.51563,-0.535156 -1.01563,-0.535156 -0.61328,0 -1.03515,0.261719 -1.26171,0.785156 -0.11719,0.277344 -0.17579,0.632813 -0.17579,1.0625 V 23.8125 h -1.82421 v -6.953125 h 1.76562 V 17.875 c 0.23047,-0.359375 0.45313,-0.617187 0.66016,-0.773437 0.375,-0.28125 0.84765,-0.421875 1.42187,-0.421875 0.71485,0 1.30078,0.1875 1.75781,0.566406"
     id="path45" />
  <path
     fill-rule="nonzero"
     fill="#ffffff"
     fill-opacity="1"
     d="m 160.48437,23.8125 h 1.9375 v -1.910156 h -1.9375 z m 0,0"
     id="path46" />
  <path
     fill-rule="nonzero"
     fill="#ffffff"
     fill-opacity="1"
     d="m 167.9375,14.402344 h 6.71484 v 1.65625 h -4.76172 v 2.167969 h 4.17578 v 1.636719 h -4.17578 V 23.8125 h -1.95312 z m 0,0"
     id="path47" />
  <path
     fill-rule="nonzero"
     fill="#ffffff"
     fill-opacity="1"
     d="m 177.60156,16.847656 v 4.195313 c 0,0.398437 0.0469,0.695313 0.13672,0.898437 0.16797,0.351563 0.49218,0.53125 0.97656,0.53125 0.61719,0 1.04297,-0.253906 1.26953,-0.757812 0.12109,-0.273438 0.17969,-0.632812 0.17969,-1.078125 v -3.789063 h 1.84765 V 23.8125 h -1.77343 v -0.984375 c -0.0156,0.02344 -0.0586,0.08594 -0.125,0.191407 -0.0703,0.105468 -0.14844,0.199218 -0.24219,0.28125 -0.28516,0.257812 -0.5625,0.429687 -0.82813,0.523437 -0.26562,0.09375 -0.57421,0.140625 -0.93359,0.140625 -1.02734,0 -1.71875,-0.367188 -2.07812,-1.109375 -0.19922,-0.410156 -0.29688,-1.015625 -0.29688,-1.8125 v -4.195313 z m 0,0"
     id="path48" />
  <path
     fill-rule="nonzero"
     fill="#ffffff"
     fill-opacity="1"
     d="m 189.39843,17.246094 c 0.45703,0.375 0.6836,1 0.6836,1.875 V 23.8125 h -1.86328 v -4.238281 c 0,-0.367187 -0.0508,-0.648437 -0.14844,-0.84375 -0.17578,-0.355469 -0.51563,-0.535156 -1.01563,-0.535156 -0.61328,0 -1.03515,0.261719 -1.26172,0.785156 -0.11718,0.277344 -0.17968,0.632813 -0.17968,1.0625 V 23.8125 h -1.82032 v -6.953125 h 1.76563 V 17.875 c 0.23047,-0.359375 0.45312,-0.617187 0.66016,-0.773437 0.375,-0.28125 0.84765,-0.421875 1.42187,-0.421875 0.71484,0 1.30078,0.1875 1.75781,0.566406"
     id="path49" />
  <path
     fill-rule="nonzero"
     fill="#ffffff"
     fill-opacity="1"
     d="m 195.94531,19.34375 c -0.0352,-0.257812 -0.1211,-0.492187 -0.26563,-0.703125 -0.20312,-0.28125 -0.52343,-0.421875 -0.95312,-0.421875 -0.61719,0 -1.03516,0.304688 -1.26172,0.914063 -0.12109,0.324219 -0.17969,0.753906 -0.17969,1.289062 0,0.511719 0.0586,0.921875 0.17969,1.230469 0.21875,0.578125 0.62891,0.871094 1.23047,0.871094 0.42578,0 0.73047,-0.117188 0.91015,-0.347656 0.17969,-0.230469 0.28907,-0.527344 0.32422,-0.894532 h 1.85938 c -0.043,0.554688 -0.24219,1.078125 -0.60156,1.574219 -0.57032,0.796875 -1.41797,1.195313 -2.53907,1.195313 -1.12109,0 -1.94531,-0.332032 -2.47265,-1 -0.53125,-0.664063 -0.79688,-1.527344 -0.79688,-2.585938 0,-1.195312 0.29297,-2.125 0.87891,-2.789062 0.58203,-0.664063 1.39062,-0.996094 2.41797,-0.996094 0.875,0 1.58984,0.195312 2.14453,0.589844 0.55859,0.390624 0.88672,1.082031 0.98828,2.074218 z m 0,0"
     id="path50" />
  <path
     fill-rule="nonzero"
     fill="#ffffff"
     fill-opacity="1"
     d="m 200.92968,16.015625 h -1.84765 v -1.683593 h 1.84765 z m -1.84765,0.832031 h 1.84765 V 23.8125 h -1.84765 z m 0,0"
     id="path51" />
  <path
     fill-rule="nonzero"
     fill="#ffffff"
     fill-opacity="1"
     d="m 208.5039,22.960938 c -0.58984,0.726562 -1.48047,1.085937 -2.67969,1.085937 -1.19531,0 -2.08984,-0.359375 -2.67578,-1.085937 -0.58984,-0.726563 -0.88281,-1.601563 -0.88281,-2.621094 0,-1.007812 0.29297,-1.875 0.88281,-2.613281 0.58594,-0.734375 1.48047,-1.105469 2.67578,-1.105469 1.19922,0 2.08985,0.371094 2.67969,1.105469 0.58594,0.738281 0.88281,1.605469 0.88281,2.613281 0,1.019531 -0.29687,1.894531 -0.88281,2.621094 m -1.45703,-1.007813 c 0.28516,-0.378906 0.42578,-0.917969 0.42578,-1.613281 0,-0.699219 -0.14062,-1.234375 -0.42578,-1.613281 -0.28516,-0.375 -0.69531,-0.5625 -1.22656,-0.5625 -0.53516,0 -0.94531,0.1875 -1.23047,0.5625 -0.28906,0.378906 -0.43359,0.914062 -0.43359,1.613281 0,0.695312 0.14453,1.234375 0.43359,1.613281 0.28516,0.378907 0.69531,0.570313 1.23047,0.570313 0.53125,0 0.9414,-0.191406 1.22656,-0.570313"
     id="path52" />
  <path
     fill-rule="nonzero"
     fill="#ffffff"
     fill-opacity="1"
     d="m 216.30859,17.246094 c 0.45312,0.375 0.68359,1 0.68359,1.875 V 23.8125 H 215.125 v -4.238281 c 0,-0.367187 -0.0469,-0.648437 -0.14454,-0.84375 -0.17968,-0.355469 -0.51562,-0.535156 -1.01562,-0.535156 -0.61328,0 -1.03516,0.261719 -1.26172,0.785156 -0.12109,0.277344 -0.17969,0.632813 -0.17969,1.0625 V 23.8125 h -1.82031 v -6.953125 h 1.76172 V 17.875 c 0.23437,-0.359375 0.45312,-0.617187 0.66406,-0.773437 0.3711,-0.28125 0.84375,-0.421875 1.41797,-0.421875 0.71875,0 1.30469,0.1875 1.76172,0.566406"
     id="path53" />
  <path
     fill-rule="nonzero"
     fill="#ffffff"
     fill-opacity="1"
     d="m 221.44531,19.574219 c 0.33984,-0.04297 0.58203,-0.09375 0.72656,-0.160156 0.26172,-0.109375 0.39453,-0.28125 0.39453,-0.515625 0,-0.285156 -0.10156,-0.484375 -0.30469,-0.589844 -0.19921,-0.113281 -0.49609,-0.164062 -0.88281,-0.164062 -0.43359,0 -0.74609,0.105468 -0.92578,0.320312 -0.12891,0.15625 -0.21484,0.371094 -0.25781,0.636719 h -1.76172 c 0.0391,-0.609375 0.21094,-1.109375 0.51562,-1.5 0.48438,-0.617188 1.3125,-0.921875 2.49219,-0.921875 0.76563,0 1.44531,0.152344 2.03906,0.453125 0.59766,0.304687 0.89454,0.875 0.89454,1.714843 v 3.195313 c 0,0.222656 0.004,0.488281 0.0117,0.804687 0.0117,0.238282 0.0469,0.398438 0.10938,0.484376 0.0586,0.08594 0.14844,0.15625 0.26562,0.210937 V 23.8125 h -1.98046 c -0.0547,-0.140625 -0.0937,-0.273437 -0.11329,-0.394531 -0.0195,-0.125 -0.0391,-0.265625 -0.0508,-0.421875 -0.2539,0.273438 -0.54687,0.503906 -0.875,0.695312 -0.39453,0.226563 -0.83984,0.339844 -1.33593,0.339844 -0.63672,0 -1.16016,-0.179687 -1.57422,-0.542968 -0.41407,-0.359376 -0.6211,-0.871094 -0.6211,-1.527344 0,-0.859375 0.33203,-1.476563 1,-1.863282 0.36328,-0.207031 0.90235,-0.355468 1.60938,-0.445312 z m 1.11328,0.851563 c -0.11719,0.07031 -0.23438,0.132812 -0.35156,0.175781 -0.1211,0.04297 -0.28516,0.08594 -0.49219,0.125 l -0.41406,0.07422 c -0.38672,0.07031 -0.66797,0.152343 -0.83594,0.25 -0.28906,0.167968 -0.42969,0.425781 -0.42969,0.773437 0,0.3125 0.0859,0.535156 0.26172,0.675781 0.17578,0.136719 0.38672,0.207032 0.63672,0.207032 0.40234,0 0.76562,-0.113282 1.10156,-0.34375 0.33594,-0.230469 0.51172,-0.652344 0.52344,-1.261719 z m 0,0"
     id="path54" />
  <path
     fill-rule="nonzero"
     fill="#ffffff"
     fill-opacity="1"
     d="m 234.65625,16.871094 c 0.30078,0.121094 0.57031,0.328125 0.8125,0.625 0.19531,0.246094 0.32812,0.542969 0.39843,0.894531 0.043,0.238281 0.0625,0.578125 0.0625,1.03125 l -0.0117,4.390625 h -1.86718 v -4.433594 c 0,-0.265624 -0.043,-0.484374 -0.12891,-0.652343 -0.16016,-0.328125 -0.46094,-0.488281 -0.89453,-0.488281 -0.50391,0 -0.84766,0.210937 -1.04297,0.628906 -0.0937,0.21875 -0.14453,0.484375 -0.14453,0.796875 V 23.8125 h -1.83594 v -4.148437 c 0,-0.414063 -0.043,-0.714844 -0.1289,-0.902344 -0.15235,-0.335937 -0.45313,-0.503906 -0.89844,-0.503906 -0.51953,0 -0.8711,0.167969 -1.04688,0.503906 -0.10156,0.195313 -0.14843,0.480469 -0.14843,0.859375 V 23.8125 h -1.84766 v -6.953125 h 1.76953 V 17.875 c 0.22656,-0.363281 0.44141,-0.621094 0.64063,-0.773437 0.35156,-0.273438 0.8125,-0.410157 1.37109,-0.410157 0.53516,0 0.96484,0.117188 1.29297,0.351563 0.26562,0.21875 0.46484,0.496094 0.60156,0.839844 0.23828,-0.410157 0.53516,-0.710938 0.88672,-0.902344 0.375,-0.191406 0.79297,-0.289063 1.25391,-0.289063 0.30859,0 0.60937,0.05859 0.90625,0.179688"
     id="path55" />
  <path
     fill-rule="nonzero"
     fill="#ffffff"
     fill-opacity="1"
     d="m 239.47656,16.015625 h -1.84766 v -1.683593 h 1.84766 z m -1.84766,0.832031 h 1.84766 V 23.8125 h -1.84766 z m 0,0"
     id="path56" />
  <path
     fill-rule="nonzero"
     fill="#ffffff"
     fill-opacity="1"
     d="m 245.78125,16.988282 c 0.48437,0.214843 0.88671,0.558593 1.20312,1.027343 0.28516,0.417969 0.47266,0.894531 0.55469,1.441407 0.0508,0.320312 0.0703,0.78125 0.0625,1.382812 h -5.07422 c 0.0273,0.699219 0.26953,1.1875 0.72656,1.46875 0.27735,0.175781 0.61328,0.265625 1.00391,0.265625 0.41406,0 0.7539,-0.109375 1.01172,-0.320313 0.14062,-0.117187 0.26562,-0.277343 0.375,-0.480468 h 1.85937 c -0.0469,0.414062 -0.27344,0.832031 -0.67578,1.257812 -0.62109,0.679688 -1.49609,1.019532 -2.61719,1.019532 -0.92968,0 -1.74609,-0.289063 -2.45703,-0.859376 -0.70703,-0.570312 -1.0625,-1.5 -1.0625,-2.789062 0,-1.207031 0.32031,-2.132812 0.96094,-2.777344 0.64062,-0.644531 1.46875,-0.964844 2.49219,-0.964844 0.60547,0 1.15234,0.109376 1.63672,0.328126 m -2.72657,1.570312 c -0.25781,0.269531 -0.41797,0.625 -0.48437,1.082031 h 3.14062 c -0.0351,-0.484375 -0.19531,-0.851562 -0.48828,-1.101562 -0.28906,-0.25 -0.64844,-0.375 -1.07812,-0.375 -0.46875,0 -0.83203,0.132812 -1.08985,0.394531"
     id="path57" />
  <path
     fill-rule="nonzero"
     fill="#ffffff"
     fill-opacity="1"
     d="m 254.14062,17.246094 c 0.45313,0.375 0.68359,1 0.68359,1.875 V 23.8125 h -1.86718 v -4.238281 c 0,-0.367187 -0.0469,-0.648437 -0.14844,-0.84375 -0.17578,-0.355469 -0.51172,-0.535156 -1.01172,-0.535156 -0.61328,0 -1.03516,0.261719 -1.26172,0.785156 -0.12109,0.277344 -0.17969,0.632813 -0.17969,1.0625 V 23.8125 h -1.82031 v -6.953125 h 1.76172 V 17.875 c 0.23438,-0.359375 0.45313,-0.617187 0.66406,-0.773437 0.3711,-0.28125 0.84375,-0.421875 1.41797,-0.421875 0.71875,0 1.30469,0.1875 1.76172,0.566406"
     id="path58" />
  <path
     fill-rule="nonzero"
     fill="#ffffff"
     fill-opacity="1"
     d="m 255.80078,18.207032 v -1.296876 h 0.97265 v -1.945312 h 1.80078 v 1.945312 h 1.13282 v 1.296876 h -1.13282 v 3.683593 c 0,0.285157 0.0352,0.460938 0.10938,0.53125 0.0742,0.07031 0.29297,0.105469 0.66406,0.105469 0.0547,0 0.11328,0 0.17578,-0.0039 0.0625,0 0.125,-0.0039 0.1836,-0.0078 v 1.363281 l -0.86328,0.02734 c -0.86329,0.03125 -1.44922,-0.117187 -1.76563,-0.445312 -0.20312,-0.207032 -0.30469,-0.53125 -0.30469,-0.964844 v -4.289062 z m 0,0"
     id="path59" />
  <path
     fill-rule="nonzero"
     fill="#ffffff"
     fill-opacity="1"
     d="m 266.6875,22.960938 c -0.58985,0.726562 -1.48047,1.085937 -2.67969,1.085937 -1.19531,0 -2.08985,-0.359375 -2.67578,-1.085937 -0.58985,-0.726563 -0.88282,-1.601563 -0.88282,-2.621094 0,-1.007812 0.29297,-1.875 0.88282,-2.613281 0.58593,-0.734375 1.48047,-1.105469 2.67578,-1.105469 1.19922,0 2.08984,0.371094 2.67969,1.105469 0.58593,0.738281 0.8789,1.605469 0.8789,2.613281 0,1.019531 -0.29297,1.894531 -0.8789,2.621094 m -1.45704,-1.007813 c 0.28516,-0.378906 0.42579,-0.917969 0.42579,-1.613281 0,-0.699219 -0.14063,-1.234375 -0.42579,-1.613281 -0.28906,-0.375 -0.69531,-0.5625 -1.23046,-0.5625 -0.53125,0 -0.94141,0.1875 -1.23047,0.5625 -0.28516,0.378906 -0.42969,0.914062 -0.42969,1.613281 0,0.695312 0.14453,1.234375 0.42969,1.613281 0.28906,0.378907 0.69922,0.570313 1.23047,0.570313 0.53515,0 0.9414,-0.191406 1.23046,-0.570313"
     id="path60" />
  <path
     fill-rule="nonzero"
     fill="#ffffff"
     fill-opacity="1"
     d="m 272.78515,25.148438 0.23047,0.01172 c 0.17578,0.0078 0.34766,0.0039 0.50781,-0.01953 0.16407,-0.01953 0.30078,-0.07031 0.41016,-0.144531 0.10547,-0.07422 0.20703,-0.222656 0.29687,-0.453125 0.0937,-0.230469 0.13282,-0.371094 0.1211,-0.421875 l -2.5625,-7.277344 h 2.02734 l 1.51953,5.140625 1.44141,-5.140625 h 1.93359 l -2.38672,6.855469 c -0.46093,1.320313 -0.82812,2.140625 -1.09765,2.457031 -0.26563,0.316406 -0.80469,0.476563 -1.60938,0.476563 -0.16406,0 -0.29297,-0.0039 -0.39062,-0.0039 -0.10156,-0.0039 -0.2461,-0.01172 -0.44141,-0.02344 z m 0,0"
     id="path61" />
  <path
     fill-rule="nonzero"
     fill="#ffffff"
     fill-opacity="1"
     d="m 287.59375,19.34375 c -0.0352,-0.257812 -0.1211,-0.492187 -0.26172,-0.703125 -0.20703,-0.28125 -0.52344,-0.421875 -0.95703,-0.421875 -0.61329,0 -1.03516,0.304688 -1.26172,0.914063 -0.1211,0.324219 -0.17969,0.753906 -0.17969,1.289062 0,0.511719 0.0586,0.921875 0.17969,1.230469 0.21875,0.578125 0.6289,0.871094 1.23047,0.871094 0.42578,0 0.73046,-0.117188 0.91015,-0.347656 0.17969,-0.230469 0.28906,-0.527344 0.32813,-0.894532 h 1.85937 c -0.043,0.554688 -0.24609,1.078125 -0.60156,1.574219 -0.57422,0.796875 -1.41797,1.195313 -2.53906,1.195313 -1.125,0 -1.94922,-0.332032 -2.47657,-1 -0.53125,-0.664063 -0.79687,-1.527344 -0.79687,-2.585938 0,-1.195312 0.29297,-2.125 0.87891,-2.789062 0.58203,-0.664063 1.39062,-0.996094 2.41796,-0.996094 0.875,0 1.58985,0.195312 2.14454,0.589844 0.55859,0.390624 0.88671,1.082031 0.99218,2.074218 z m 0,0"
     id="path62" />
  <path
     fill-rule="nonzero"
     fill="#ffffff"
     fill-opacity="1"
     d="m 296.51562,22.960938 c -0.58594,0.726562 -1.48047,1.085937 -2.67969,1.085937 -1.19531,0 -2.08984,-0.359375 -2.67578,-1.085937 -0.58984,-0.726563 -0.88281,-1.601563 -0.88281,-2.621094 0,-1.007812 0.29297,-1.875 0.88281,-2.613281 0.58594,-0.734375 1.48047,-1.105469 2.67578,-1.105469 1.19922,0 2.09375,0.371094 2.67969,1.105469 0.58984,0.738281 0.88281,1.605469 0.88281,2.613281 0,1.019531 -0.29297,1.894531 -0.88281,2.621094 m -1.45703,-1.007813 c 0.28516,-0.378906 0.42969,-0.917969 0.42969,-1.613281 0,-0.699219 -0.14453,-1.234375 -0.42969,-1.613281 -0.28516,-0.375 -0.69531,-0.5625 -1.22656,-0.5625 -0.53516,0 -0.94141,0.1875 -1.23047,0.5625 -0.28906,0.378906 -0.4336,0.914062 -0.4336,1.613281 0,0.695312 0.14454,1.234375 0.4336,1.613281 0.28906,0.378907 0.69531,0.570313 1.23047,0.570313 0.53125,0 0.9414,-0.191406 1.22656,-0.570313"
     id="path63" />
  <path
     fill-rule="nonzero"
     fill="#ffffff"
     fill-opacity="1"
     d="m 304.32031,17.246094 c 0.45703,0.375 0.68359,1 0.68359,1.875 V 23.8125 h -1.86719 v -4.238281 c 0,-0.367187 -0.0469,-0.648437 -0.14453,-0.84375 -0.17968,-0.355469 -0.51562,-0.535156 -1.01562,-0.535156 -0.61328,0 -1.03516,0.261719 -1.26172,0.785156 -0.11719,0.277344 -0.17969,0.632813 -0.17969,1.0625 V 23.8125 h -1.82031 v -6.953125 h 1.76562 V 17.875 c 0.23047,-0.359375 0.45313,-0.617187 0.66016,-0.773437 0.375,-0.28125 0.84766,-0.421875 1.41797,-0.421875 0.71875,0 1.30469,0.1875 1.76172,0.566406"
     id="path64" />
  <path
     fill-rule="nonzero"
     fill="#ffffff"
     fill-opacity="1"
     d="m 310.98828,16.847656 h 1.95703 l -2.51563,6.964844 h -1.92187 l -2.4961,-6.964844 h 2.04297 l 1.45313,5.136719 z m 0,0"
     id="path65" />
  <path
     fill-rule="nonzero"
     fill="#ffffff"
     fill-opacity="1"
     d="m 315.85156,16.015625 h -1.84766 v -1.683593 h 1.84766 z m -1.84766,0.832031 h 1.84766 V 23.8125 h -1.84766 z m 0,0"
     id="path66" />
  <path
     fill-rule="nonzero"
     fill="#ffffff"
     fill-opacity="1"
     d="m 321.90625,16.847656 h 1.95703 l -2.51563,6.964844 h -1.92187 l -2.5,-6.964844 h 2.04687 l 1.45313,5.136719 z m 0,0"
     id="path67" />
  <path
     fill-rule="nonzero"
     fill="#ffffff"
     fill-opacity="1"
     d="m 329.43359,16.988282 c 0.48828,0.214843 0.88672,0.558593 1.20312,1.027343 0.28516,0.417969 0.47266,0.894531 0.55469,1.441407 0.0508,0.320312 0.0703,0.78125 0.0625,1.382812 h -5.07422 c 0.0274,0.699219 0.26953,1.1875 0.72657,1.46875 0.28125,0.175781 0.61328,0.265625 1.00781,0.265625 0.41406,0 0.75,-0.109375 1.01172,-0.320313 0.13672,-0.117187 0.26172,-0.277343 0.37109,-0.480468 h 1.86328 c -0.0508,0.414062 -0.27734,0.832031 -0.67969,1.257812 -0.62109,0.679688 -1.49609,1.019532 -2.61718,1.019532 -0.92969,0 -1.7461,-0.289063 -2.45703,-0.859376 -0.70704,-0.570312 -1.0625,-1.5 -1.0625,-2.789062 0,-1.207031 0.32031,-2.132812 0.96093,-2.777344 0.64063,-0.644531 1.46875,-0.964844 2.49219,-0.964844 0.60547,0 1.15234,0.109376 1.63672,0.328126 m -2.72656,1.570312 c -0.25391,0.269531 -0.41797,0.625 -0.48438,1.082031 h 3.14063 c -0.0352,-0.484375 -0.19532,-0.851562 -0.48438,-1.101562 -0.29297,-0.25 -0.65234,-0.375 -1.08203,-0.375 -0.46875,0 -0.83203,0.132812 -1.08984,0.394531"
     id="path68" />
  <path
     fill-rule="nonzero"
     fill="#ffffff"
     fill-opacity="1"
     d="m 337.79296,17.246094 c 0.45704,0.375 0.6836,1 0.6836,1.875 V 23.8125 h -1.86719 v -4.238281 c 0,-0.367187 -0.0469,-0.648437 -0.14453,-0.84375 -0.17969,-0.355469 -0.51563,-0.535156 -1.01563,-0.535156 -0.61328,0 -1.03515,0.261719 -1.26171,0.785156 -0.11719,0.277344 -0.17969,0.632813 -0.17969,1.0625 V 23.8125 h -1.82031 v -6.953125 h 1.76562 V 17.875 c 0.23047,-0.359375 0.45313,-0.617187 0.66016,-0.773437 0.375,-0.28125 0.84765,-0.421875 1.41797,-0.421875 0.71875,0 1.30468,0.1875 1.76171,0.566406"
     id="path69" />
  <path
     fill-rule="nonzero"
     fill="#ffffff"
     fill-opacity="1"
     d="m 344.33593,19.34375 c -0.0312,-0.257812 -0.12109,-0.492187 -0.26172,-0.703125 -0.20312,-0.28125 -0.52343,-0.421875 -0.95312,-0.421875 -0.61719,0 -1.03516,0.304688 -1.26172,0.914063 -0.12109,0.324219 -0.17969,0.753906 -0.17969,1.289062 0,0.511719 0.0586,0.921875 0.17969,1.230469 0.21484,0.578125 0.625,0.871094 1.23047,0.871094 0.42578,0 0.73047,-0.117188 0.90625,-0.347656 0.17969,-0.230469 0.28906,-0.527344 0.32812,-0.894532 h 1.85938 c -0.043,0.554688 -0.24219,1.078125 -0.60156,1.574219 -0.57032,0.796875 -1.41797,1.195313 -2.53907,1.195313 -1.12109,0 -1.94531,-0.332032 -2.47656,-1 -0.52734,-0.664063 -0.79297,-1.527344 -0.79297,-2.585938 0,-1.195312 0.29297,-2.125 0.87891,-2.789062 0.58203,-0.664063 1.39062,-0.996094 2.41797,-0.996094 0.875,0 1.58984,0.195312 2.14453,0.589844 0.55859,0.390624 0.88672,1.082031 0.98828,2.074218 z m 0,0"
     id="path70" />
  <path
     fill-rule="nonzero"
     fill="#ffffff"
     fill-opacity="1"
     d="m 349.32421,16.015625 h -1.84765 v -1.683593 h 1.84765 z m -1.84765,0.832031 h 1.84765 V 23.8125 h -1.84765 z m 0,0"
     id="path71" />
  <path
     fill-rule="nonzero"
     fill="#ffffff"
     fill-opacity="1"
     d="m 353.84765,19.574219 c 0.33594,-0.04297 0.58203,-0.09375 0.72656,-0.160156 0.26172,-0.109375 0.39063,-0.28125 0.39063,-0.515625 0,-0.285156 -0.0977,-0.484375 -0.30078,-0.589844 -0.19922,-0.113281 -0.4961,-0.164062 -0.88281,-0.164062 -0.4375,0 -0.7461,0.105468 -0.92579,0.320312 -0.1289,0.15625 -0.21875,0.371094 -0.26171,0.636719 h -1.75782 c 0.0391,-0.609375 0.21094,-1.109375 0.51563,-1.5 0.48437,-0.617188 1.3125,-0.921875 2.49219,-0.921875 0.76562,0 1.44531,0.152344 2.03906,0.453125 0.59765,0.304687 0.89453,0.875 0.89453,1.714843 v 3.195313 c 0,0.222656 0.004,0.488281 0.0117,0.804687 0.0117,0.238282 0.0469,0.398438 0.10937,0.484376 0.0586,0.08594 0.14844,0.15625 0.26563,0.210937 V 23.8125 h -1.98047 c -0.0547,-0.140625 -0.0937,-0.273437 -0.11328,-0.394531 -0.0234,-0.125 -0.0391,-0.265625 -0.0508,-0.421875 -0.25391,0.273438 -0.54688,0.503906 -0.875,0.695312 -0.39453,0.226563 -0.83985,0.339844 -1.33985,0.339844 -0.63281,0 -1.15625,-0.179687 -1.57031,-0.542968 -0.41406,-0.359376 -0.62109,-0.871094 -0.62109,-1.527344 0,-0.859375 0.33203,-1.476563 1,-1.863282 0.36328,-0.207031 0.89843,-0.355468 1.60937,-0.445312 z m 1.11328,0.851563 c -0.11718,0.07031 -0.23437,0.132812 -0.35156,0.175781 -0.12109,0.04297 -0.28516,0.08594 -0.49219,0.125 l -0.41406,0.07422 c -0.38672,0.07031 -0.66797,0.152343 -0.83594,0.25 -0.28906,0.167968 -0.43359,0.425781 -0.43359,0.773437 0,0.3125 0.0898,0.535156 0.26562,0.675781 0.17579,0.136719 0.38672,0.207032 0.63672,0.207032 0.40235,0 0.76563,-0.113282 1.10157,-0.34375 0.33593,-0.230469 0.51171,-0.652344 0.52343,-1.261719 z m 0,0"
     id="path72" />
  <g
     clip-path="url(#clip-3)"
     id="g73"
     transform="translate(-16.410156,-10.753906)">
    <path
       fill-rule="nonzero"
       fill="#d8e8c3"
       fill-opacity="1"
       d="M 143.80859,191.72266 H 30.269531 c -7.65625,0 -13.855469,-6.20313 -13.855469,-13.85547 v -4.8086 c 0,-7.64843 6.199219,-13.85547 13.855469,-13.85547 H 143.80859 c 7.65235,0 13.85547,6.20704 13.85547,13.85547 v 4.8086 c 0,7.65234 -6.20312,13.85547 -13.85547,13.85547"
       id="path73" />
  </g>
  <path
     fill-rule="nonzero"
     fill="#13a538"
     fill-opacity="1"
     d="m 15.980469,159.71875 h 2.574219 v 8.55468 h -1.667969 v -5.78515 c 0,-0.16797 0.0039,-0.40235 0.0078,-0.69922 0.0039,-0.30078 0.0039,-0.53125 0.0039,-0.69531 l -1.621094,7.17968 h -1.738281 l -1.609375,-7.17968 c 0,0.16406 0.0039,0.39453 0.0078,0.69531 0.0039,0.29687 0.0039,0.53125 0.0039,0.69922 v 5.78515 h -1.667968 v -8.55468 h 2.605468 l 1.554688,6.72656 z m 0,0"
     id="path74" />
  <path
     fill-rule="nonzero"
     fill="#13a538"
     fill-opacity="1"
     d="m 24.199219,162.07421 c 0.441406,0.19922 0.804687,0.51172 1.09375,0.9375 0.257813,0.375 0.425781,0.8125 0.503906,1.3086 0.04687,0.28906 0.0625,0.71094 0.05469,1.2539 H 21.24219 c 0.02734,0.63672 0.246094,1.08204 0.660156,1.33594 0.253906,0.16016 0.558594,0.23828 0.914062,0.23828 0.375,0 0.683594,-0.0977 0.917969,-0.28906 0.128907,-0.10547 0.242188,-0.25 0.339844,-0.4375 h 1.691406 c -0.04687,0.375 -0.25,0.75781 -0.613281,1.14453 -0.570312,0.61719 -1.363281,0.92188 -2.382812,0.92188 -0.839844,0 -1.582032,-0.25782 -2.230469,-0.77735 -0.640625,-0.51953 -0.964844,-1.36328 -0.964844,-2.53125 0,-1.09765 0.292969,-1.9375 0.875,-2.52343 0.578125,-0.58594 1.332031,-0.87891 2.261719,-0.87891 0.550781,0 1.046875,0.10156 1.488281,0.29687 m -2.476563,1.42969 c -0.234374,0.24219 -0.378906,0.57031 -0.441406,0.98047 h 2.851563 c -0.03125,-0.44141 -0.175781,-0.77344 -0.441407,-1 -0.261718,-0.22656 -0.589843,-0.33984 -0.980468,-0.33984 -0.425782,0 -0.753906,0.12109 -0.988282,0.35937"
     id="path75" />
  <path
     fill-rule="nonzero"
     fill="#13a538"
     fill-opacity="1"
     d="m 34.585938,161.97265 c 0.269531,0.10547 0.515625,0.29688 0.734375,0.56641 0.179687,0.22265 0.300781,0.49219 0.359375,0.8125 0.03906,0.21484 0.05859,0.52344 0.05859,0.93359 l -0.01172,3.99219 h -1.691402 v -4.03125 c 0,-0.24219 -0.03906,-0.4375 -0.117187,-0.58984 -0.148437,-0.29688 -0.417969,-0.44532 -0.8125,-0.44532 -0.460937,0 -0.773437,0.19141 -0.949219,0.57032 -0.08984,0.20312 -0.132812,0.44531 -0.132812,0.72656 v 3.76953 h -1.667969 v -3.76953 c 0,-0.375 -0.03516,-0.64844 -0.113281,-0.82031 -0.140625,-0.30469 -0.410156,-0.45704 -0.820313,-0.45704 -0.472656,0 -0.789062,0.15235 -0.949219,0.45704 -0.08984,0.17578 -0.136718,0.43359 -0.136718,0.77734 v 3.8125 h -1.675782 v -6.32031 h 1.605469 v 0.92578 c 0.207031,-0.32813 0.402344,-0.5625 0.582031,-0.70313 0.320313,-0.24609 0.738282,-0.37109 1.25,-0.37109 0.484376,0 0.875,0.10547 1.171876,0.31641 0.238281,0.19921 0.421874,0.45312 0.546874,0.76171 0.214844,-0.37109 0.484376,-0.64453 0.804688,-0.8164 0.339844,-0.17578 0.71875,-0.26172 1.140625,-0.26172 0.277344,0 0.550781,0.0547 0.824219,0.16406"
     id="path76" />
  <path
     fill-rule="nonzero"
     fill="#13a538"
     fill-opacity="1"
     d="m 42.539063,167.5 c -0.535157,0.66015 -1.347657,0.99218 -2.433594,0.99218 -1.089844,0 -1.898437,-0.33203 -2.433594,-0.99218 -0.535156,-0.65625 -0.800781,-1.45313 -0.800781,-2.37891 0,-0.91406 0.265625,-1.70313 0.800781,-2.375 0.535157,-0.66797 1.34375,-1 2.433594,-1 1.085937,0 1.898437,0.33203 2.433594,1 0.53125,0.67187 0.800781,1.46094 0.800781,2.375 0,0.92578 -0.269531,1.72266 -0.800781,2.37891 m -1.324219,-0.91407 c 0.257812,-0.34375 0.386719,-0.83203 0.386719,-1.46484 0,-0.63672 -0.128907,-1.12109 -0.386719,-1.46484 -0.257812,-0.34375 -0.632812,-0.51172 -1.117188,-0.51172 -0.480468,0 -0.855468,0.16797 -1.117187,0.51172 -0.261719,0.34375 -0.390625,0.82812 -0.390625,1.46484 0,0.63281 0.128906,1.12109 0.390625,1.46484 0.261719,0.34375 0.636719,0.51563 1.117187,0.51563 0.484376,0 0.859376,-0.17188 1.117188,-0.51563"
     id="path77" />
  <path
     fill-rule="nonzero"
     fill="#13a538"
     fill-opacity="1"
     d="m 48.039063,161.80078 c 0.01953,0 0.07031,0.004 0.140625,0.008 v 1.69531 c -0.101563,-0.0117 -0.195313,-0.0195 -0.277344,-0.0234 -0.08203,-0.004 -0.148438,-0.004 -0.195312,-0.004 -0.667969,0 -1.113282,0.21484 -1.34375,0.64844 -0.125,0.24218 -0.191407,0.61718 -0.191407,1.125 v 3.02734 h -1.664062 v -6.33203 h 1.578125 v 1.10547 c 0.253906,-0.42188 0.476562,-0.71094 0.667968,-0.86719 0.308594,-0.25781 0.710938,-0.38672 1.207032,-0.38672 0.03125,0 0.05469,0 0.07813,0.004"
     id="path78" />
  <path
     fill-rule="nonzero"
     fill="#13a538"
     fill-opacity="1"
     d="m 50.851563,161.1914 h -1.679688 v -1.52734 h 1.679688 z m -1.679688,0.75391 h 1.679688 v 6.33203 h -1.679688 z m 0,0"
     id="path79" />
  <path
     fill-rule="nonzero"
     fill="#13a538"
     fill-opacity="1"
     d="m 54.960938,164.42578 c 0.308594,-0.0391 0.527344,-0.0859 0.660156,-0.14453 0.238281,-0.10157 0.355469,-0.25782 0.355469,-0.46875 0,-0.26172 -0.08984,-0.44141 -0.273438,-0.53907 -0.179687,-0.0977 -0.449219,-0.14843 -0.800781,-0.14843 -0.398438,0 -0.679688,0.0977 -0.84375,0.28906 -0.117188,0.14453 -0.195312,0.33984 -0.234375,0.58203 h -1.597656 c 0.03516,-0.55078 0.191406,-1.00781 0.46875,-1.36328 0.4375,-0.5586 1.191406,-0.83594 2.261719,-0.83594 0.695312,0 1.3125,0.13672 1.855468,0.41016 0.539063,0.27734 0.808594,0.79687 0.808594,1.55859 v 2.90234 c 0,0.19922 0.0039,0.44532 0.01172,0.73047 0.01172,0.21485 0.04297,0.36328 0.09766,0.44141 0.05469,0.0781 0.136719,0.14062 0.246094,0.19141 v 0.24609 h -1.800781 c -0.05078,-0.12891 -0.08594,-0.25 -0.105469,-0.36328 -0.01953,-0.10938 -0.03516,-0.23828 -0.04687,-0.38281 -0.226563,0.25 -0.492188,0.46093 -0.792969,0.63281 -0.359375,0.20703 -0.761719,0.30859 -1.214844,0.30859 -0.574219,0 -1.050781,-0.16406 -1.429687,-0.48828 -0.375,-0.32812 -0.5625,-0.79297 -0.5625,-1.39062 0,-0.78125 0.304687,-1.34375 0.90625,-1.69141 0.332031,-0.1875 0.820312,-0.32422 1.464844,-0.40625 z m 1.011718,0.77343 c -0.105468,0.0664 -0.214843,0.11719 -0.320312,0.16016 -0.109375,0.0391 -0.257812,0.0781 -0.445312,0.11328 l -0.378907,0.0664 c -0.351562,0.0625 -0.605469,0.14062 -0.757812,0.22656 -0.261719,0.15234 -0.390625,0.38672 -0.390625,0.70313 0,0.28515 0.07813,0.48828 0.238281,0.61328 0.160156,0.125 0.351563,0.1875 0.582031,0.1875 0.359375,0 0.691406,-0.10157 0.996094,-0.3125 0.304688,-0.20703 0.464844,-0.58985 0.476562,-1.14453 z m 0,0"
     id="path80" />
  <path
     fill-rule="nonzero"
     fill="#13a538"
     fill-opacity="1"
     d="m 66.492188,162.07421 c 0.441406,0.19922 0.808594,0.51172 1.09375,0.9375 0.261718,0.375 0.429687,0.8125 0.507812,1.3086 0.04297,0.28906 0.05859,0.71094 0.05078,1.2539 h -4.609376 c 0.02734,0.63672 0.246094,1.08204 0.664063,1.33594 0.25,0.16016 0.554687,0.23828 0.914063,0.23828 0.375,0 0.679687,-0.0977 0.917968,-0.28906 0.128906,-0.10547 0.242188,-0.25 0.339844,-0.4375 h 1.6875 c -0.04297,0.375 -0.246094,0.75781 -0.613281,1.14453 -0.566407,0.61719 -1.359375,0.92188 -2.378907,0.92188 -0.84375,0 -1.585937,-0.25782 -2.230468,-0.77735 -0.644532,-0.51953 -0.964844,-1.36328 -0.964844,-2.53125 0,-1.09765 0.289062,-1.9375 0.871094,-2.52343 0.582031,-0.58594 1.335937,-0.87891 2.261718,-0.87891 0.550782,0 1.046876,0.10156 1.488282,0.29687 m -2.472656,1.42969 c -0.234376,0.24219 -0.382813,0.57031 -0.441407,0.98047 h 2.851563 c -0.03125,-0.44141 -0.179688,-0.77344 -0.441406,-1 -0.265626,-0.22656 -0.59375,-0.33984 -0.980469,-0.33984 -0.425781,0 -0.757813,0.12109 -0.988281,0.35937"
     id="path81" />
  <path
     fill-rule="nonzero"
     fill="#13a538"
     fill-opacity="1"
     d="m 72.769532,164.21875 c -0.03125,-0.23829 -0.113282,-0.44922 -0.238282,-0.64063 -0.1875,-0.25391 -0.476562,-0.38281 -0.867187,-0.38281 -0.558594,0 -0.941407,0.27734 -1.148438,0.83203 -0.105469,0.29297 -0.160156,0.68359 -0.160156,1.16797 0,0.46484 0.05469,0.83594 0.160156,1.11719 0.199219,0.52734 0.570313,0.78906 1.117188,0.78906 0.390625,0 0.664062,-0.10547 0.828125,-0.3125 0.164062,-0.21094 0.261718,-0.48047 0.296875,-0.8125 h 1.6875 c -0.03906,0.5039 -0.21875,0.98047 -0.542969,1.42969 -0.519531,0.72265 -1.289062,1.08203 -2.308594,1.08203 -1.019531,0 -1.769531,-0.30078 -2.25,-0.90235 -0.480468,-0.60547 -0.71875,-1.38672 -0.71875,-2.35156 0,-1.08594 0.261719,-1.92969 0.792969,-2.53125 0.53125,-0.60547 1.265625,-0.90625 2.199219,-0.90625 0.792968,0 1.445312,0.17578 1.949218,0.53516 0.503907,0.35547 0.804688,0.98437 0.898438,1.88672 z m 0,0"
     id="path82" />
  <path
     fill-rule="nonzero"
     fill="#13a538"
     fill-opacity="1"
     d="m 80.871094,167.5 c -0.53125,0.66015 -1.34375,0.99218 -2.429688,0.99218 -1.089843,0 -1.898437,-0.33203 -2.433593,-0.99218 -0.535157,-0.65625 -0.800781,-1.45313 -0.800781,-2.37891 0,-0.91406 0.265624,-1.70313 0.800781,-2.375 0.535156,-0.66797 1.34375,-1 2.433593,-1 1.085938,0 1.898438,0.33203 2.429688,1 0.535156,0.67187 0.804688,1.46094 0.804688,2.375 0,0.92578 -0.269532,1.72266 -0.804688,2.37891 m -1.320312,-0.91407 c 0.257812,-0.34375 0.386718,-0.83203 0.386718,-1.46484 0,-0.63672 -0.128906,-1.12109 -0.386718,-1.46484 -0.257813,-0.34375 -0.632813,-0.51172 -1.117188,-0.51172 -0.484375,0 -0.855469,0.16797 -1.117188,0.51172 -0.261718,0.34375 -0.390624,0.82812 -0.390624,1.46484 0,0.63281 0.128906,1.12109 0.390624,1.46484 0.261719,0.34375 0.632813,0.51563 1.117188,0.51563 0.484375,0 0.859375,-0.17188 1.117188,-0.51563"
     id="path83" />
  <path
     fill-rule="nonzero"
     fill="#13a538"
     fill-opacity="1"
     d="m 87.960934,162.30859 c 0.41407,0.34375 0.6211,0.91016 0.6211,1.70703 v 4.26172 h -1.69531 v -3.85156 c 0,-0.33203 -0.043,-0.58594 -0.13282,-0.76563 -0.16015,-0.32422 -0.46875,-0.48828 -0.92187,-0.48828 -0.55469,0 -0.9375,0.23828 -1.14453,0.71484 -0.10938,0.25 -0.16016,0.57422 -0.16016,0.96485 v 3.42578 h -1.65625 v -6.32031 h 1.60156 v 0.92578 c 0.21094,-0.32422 0.41407,-0.5586 0.60157,-0.70313 0.33984,-0.2539 0.76953,-0.38281 1.28906,-0.38281 0.65234,0 1.18359,0.17188 1.59765,0.51172"
     id="path84" />
  <path
     fill-rule="nonzero"
     fill="#13a538"
     fill-opacity="1"
     d="m 95.398434,167.5 c -0.53515,0.66015 -1.34375,0.99218 -2.43359,0.99218 -1.08594,0 -1.89844,-0.33203 -2.42969,-0.99218 -0.53515,-0.65625 -0.80078,-1.45313 -0.80078,-2.37891 0,-0.91406 0.26563,-1.70313 0.80078,-2.375 0.53125,-0.66797 1.34375,-1 2.42969,-1 1.08984,0 1.89844,0.33203 2.43359,1 0.53516,0.67187 0.80079,1.46094 0.80079,2.375 0,0.92578 -0.26563,1.72266 -0.80079,2.37891 m -1.32421,-0.91407 c 0.26171,-0.34375 0.39062,-0.83203 0.39062,-1.46484 0,-0.63672 -0.12891,-1.12109 -0.39062,-1.46484 -0.25782,-0.34375 -0.62891,-0.51172 -1.11329,-0.51172 -0.48437,0 -0.85546,0.16797 -1.11718,0.51172 -0.26172,0.34375 -0.39063,0.82812 -0.39063,1.46484 0,0.63281 0.12891,1.12109 0.39063,1.46484 0.26172,0.34375 0.63281,0.51563 1.11718,0.51563 0.48438,0 0.85547,-0.17188 1.11329,-0.51563 m 0.87109,-7.22656 -1.76563,1.73438 h -1.19531 l 1.11719,-1.73438 z m 0,0"
     id="path85" />
  <path
     fill-rule="nonzero"
     fill="#13a538"
     fill-opacity="1"
     d="m 105.28125,161.97265 c 0.26953,0.10547 0.51562,0.29688 0.73828,0.56641 0.17578,0.22265 0.29687,0.49219 0.35937,0.8125 0.0391,0.21484 0.0586,0.52344 0.0586,0.93359 l -0.0117,3.99219 h -1.69531 v -4.03125 c 0,-0.24219 -0.0391,-0.4375 -0.11719,-0.58984 -0.14453,-0.29688 -0.41797,-0.44532 -0.8125,-0.44532 -0.45703,0 -0.77344,0.19141 -0.94531,0.57032 -0.0898,0.20312 -0.13282,0.44531 -0.13282,0.72656 v 3.76953 h -1.66797 v -3.76953 c 0,-0.375 -0.0391,-0.64844 -0.11718,-0.82031 -0.13672,-0.30469 -0.41016,-0.45704 -0.82032,-0.45704 -0.468746,0 -0.789056,0.15235 -0.949206,0.45704 -0.0898,0.17578 -0.13282,0.43359 -0.13282,0.77734 v 3.8125 h -1.67968 v -6.32031 h 1.60937 v 0.92578 c 0.20313,-0.32813 0.39844,-0.5625 0.57813,-0.70313 0.32421,-0.24609 0.738276,-0.37109 1.249996,-0.37109 0.48437,0 0.875,0.10547 1.17187,0.31641 0.24219,0.19921 0.42188,0.45312 0.54688,0.76171 0.21484,-0.37109 0.48437,-0.64453 0.80859,-0.8164 0.33984,-0.17578 0.71875,-0.26172 1.13672,-0.26172 0.27734,0 0.55469,0.0547 0.82422,0.16406"
     id="path86" />
  <path
     fill-rule="nonzero"
     fill="#13a538"
     fill-opacity="1"
     d="m 109.66015,161.1914 h -1.67968 v -1.52734 h 1.67968 z m -1.67968,0.75391 h 1.67578 v 6.33203 h -1.67578 z m 0,0"
     id="path87" />
  <path
     fill-rule="nonzero"
     fill="#13a538"
     fill-opacity="1"
     d="m 115.04687,164.21875 c -0.0312,-0.23829 -0.11328,-0.44922 -0.23828,-0.64063 -0.1875,-0.25391 -0.47656,-0.38281 -0.87109,-0.38281 -0.5586,0 -0.9375,0.27734 -1.14454,0.83203 -0.10937,0.29297 -0.16406,0.68359 -0.16406,1.16797 0,0.46484 0.0547,0.83594 0.16406,1.11719 0.19922,0.52734 0.57032,0.78906 1.11719,0.78906 0.38672,0 0.66406,-0.10547 0.82813,-0.3125 0.16015,-0.21094 0.26172,-0.48047 0.29687,-0.8125 h 1.6875 c -0.0391,0.5039 -0.21875,0.98047 -0.54687,1.42969 -0.51563,0.72265 -1.28516,1.08203 -2.30469,1.08203 -1.01953,0 -1.76953,-0.30078 -2.25,-0.90235 -0.48047,-0.60547 -0.72266,-1.38672 -0.72266,-2.35156 0,-1.08594 0.26563,-1.92969 0.79688,-2.53125 0.53125,-0.60547 1.26562,-0.90625 2.19922,-0.90625 0.79297,0 1.4414,0.17578 1.94922,0.53516 0.5039,0.35547 0.80468,0.98437 0.89843,1.88672 z m 0,0"
     id="path88" />
  <path
     fill-rule="nonzero"
     fill="#13a538"
     fill-opacity="1"
     d="m 120.3789,164.42578 c 0.3086,-0.0391 0.53125,-0.0859 0.66016,-0.14453 0.24219,-0.10157 0.35937,-0.25782 0.35937,-0.46875 0,-0.26172 -0.0937,-0.44141 -0.27343,-0.53907 -0.1836,-0.0977 -0.45313,-0.14843 -0.80469,-0.14843 -0.39453,0 -0.67578,0.0977 -0.83985,0.28906 -0.11718,0.14453 -0.19921,0.33984 -0.23828,0.58203 h -1.59375 c 0.0352,-0.55078 0.1875,-1.00781 0.46485,-1.36328 0.4414,-0.5586 1.1914,-0.83594 2.26172,-0.83594 0.69531,0 1.3125,0.13672 1.85546,0.41016 0.53907,0.27734 0.8125,0.79687 0.8125,1.55859 v 2.90234 c 0,0.19922 0,0.44532 0.008,0.73047 0.0117,0.21485 0.0469,0.36328 0.10156,0.44141 0.0547,0.0781 0.13281,0.14062 0.24219,0.19141 v 0.24609 h -1.80078 c -0.0508,-0.12891 -0.082,-0.25 -0.10157,-0.36328 -0.0195,-0.10938 -0.0352,-0.23828 -0.0469,-0.38281 -0.23047,0.25 -0.4961,0.46093 -0.79688,0.63281 -0.35547,0.20703 -0.76172,0.30859 -1.21484,0.30859 -0.57422,0 -1.05078,-0.16406 -1.42578,-0.48828 -0.375,-0.32812 -0.5625,-0.79297 -0.5625,-1.39062 0,-0.78125 0.30078,-1.34375 0.90625,-1.69141 0.33203,-0.1875 0.8164,-0.32422 1.46094,-0.40625 z m 1.01172,0.77343 c -0.10547,0.0664 -0.21094,0.11719 -0.32031,0.16016 -0.10547,0.0391 -0.25391,0.0781 -0.44141,0.11328 l -0.3789,0.0664 c -0.35157,0.0625 -0.60547,0.14062 -0.76172,0.22656 -0.25782,0.15234 -0.39063,0.38672 -0.39063,0.70313 0,0.28515 0.082,0.48828 0.23828,0.61328 0.16016,0.125 0.35547,0.1875 0.58203,0.1875 0.36329,0 0.69532,-0.10157 1,-0.3125 0.30469,-0.20703 0.46094,-0.58985 0.47266,-1.14453 z m 0,0"
     id="path89" />
  <g
     clip-path="url(#clip-4)"
     id="g90"
     transform="translate(-16.410156,-10.753906)">
    <path
       fill-rule="nonzero"
       fill="#d8e8c3"
       fill-opacity="1"
       d="M 103.76172,228.17969 H 30.269531 c -7.652343,0 -13.859375,-6.20313 -13.859375,-13.85547 v -4.80469 c 0,-7.65234 6.207032,-13.85547 13.859375,-13.85547 h 73.492189 c 7.65234,0 13.85547,6.20313 13.85547,13.85547 v 4.80469 c 0,7.65234 -6.20313,13.85547 -13.85547,13.85547"
       id="path90" />
  </g>
  <path
     fill-rule="nonzero"
     fill="#13a538"
     fill-opacity="1"
     d="m 16.050782,200.01953 c -0.503907,0.41797 -1.21875,0.6289 -2.148438,0.6289 h -1.78125 v 3.07813 H 10.34375 v -8.5586 h 3.675782 c 0.847656,0 1.523437,0.21875 2.027343,0.66016 0.5,0.44141 0.753907,1.125 0.753907,2.05078 0,1.01172 -0.25,1.72656 -0.75,2.14063 m -1.367188,-3.08203 c -0.226562,-0.1875 -0.542969,-0.28516 -0.949219,-0.28516 h -1.613281 v 2.51953 h 1.613281 c 0.40625,0 0.722657,-0.10156 0.949219,-0.30469 0.226562,-0.20703 0.339844,-0.53125 0.339844,-0.97656 0,-0.44531 -0.113282,-0.76172 -0.339844,-0.95312"
     id="path91" />
  <path
     fill-rule="nonzero"
     fill="#13a538"
     fill-opacity="1"
     d="m 21.617188,197.25 c 0.01953,0 0.07031,0.004 0.140625,0.008 v 1.69531 c -0.101563,-0.0117 -0.195313,-0.0195 -0.277344,-0.0234 -0.08203,-0.004 -0.148437,-0.004 -0.195313,-0.004 -0.667968,0 -1.113281,0.21484 -1.34375,0.64843 -0.128906,0.24219 -0.191406,0.6211 -0.191406,1.125 v 3.02735 h -1.664062 v -6.32813 h 1.578125 v 1.10157 c 0.253906,-0.42188 0.476562,-0.71094 0.667969,-0.86719 0.308593,-0.25794 0.710937,-0.38685 1.207031,-0.38685 0.03125,0 0.05469,0 0.07813,0.004"
     id="path92" />
  <path
     fill-rule="nonzero"
     fill="#13a538"
     fill-opacity="1"
     d="m 26.851563,197.52343 c 0.441406,0.19922 0.808593,0.51172 1.09375,0.9375 0.257812,0.375 0.429687,0.8125 0.503906,1.3086 0.04687,0.28906 0.0625,0.71093 0.05469,1.2539 h -4.609374 c 0.02734,0.63672 0.246093,1.08203 0.660156,1.33594 0.253906,0.16016 0.558594,0.23828 0.914062,0.23828 0.378906,0 0.683594,-0.0937 0.917969,-0.28906 0.128906,-0.10547 0.242187,-0.25 0.34375,-0.43359 h 1.6875 c -0.04297,0.375 -0.25,0.7539 -0.613281,1.14062 -0.566406,0.61719 -1.359375,0.92188 -2.378906,0.92188 -0.84375,0 -1.585938,-0.25782 -2.230469,-0.77735 -0.644531,-0.51953 -0.964844,-1.36328 -0.964844,-2.53125 0,-1.09765 0.289063,-1.9375 0.871094,-2.52344 0.582031,-0.58593 1.335937,-0.8789 2.261719,-0.8789 0.550781,0 1.046874,0.10156 1.488281,0.29687 m -2.472657,1.42969 c -0.234374,0.24219 -0.382812,0.57031 -0.441406,0.98047 h 2.847656 c -0.02734,-0.4375 -0.175781,-0.77344 -0.441406,-1 -0.261718,-0.22656 -0.589844,-0.33984 -0.976562,-0.33984 -0.425782,0 -0.757813,0.12109 -0.988282,0.35937"
     id="path93" />
  <path
     fill-rule="nonzero"
     fill="#13a538"
     fill-opacity="1"
     d="m 30.625,201.70312 c 0.03516,0.29688 0.109375,0.50391 0.226563,0.62891 0.207031,0.21875 0.585937,0.33203 1.144531,0.33203 0.324219,0 0.585938,-0.0508 0.777344,-0.14844 0.191406,-0.0937 0.289062,-0.23828 0.289062,-0.43359 0,-0.1836 -0.07813,-0.32813 -0.230468,-0.42578 -0.15625,-0.0937 -0.734376,-0.26172 -1.734376,-0.4961 -0.71875,-0.17969 -1.226562,-0.40234 -1.519531,-0.66797 -0.292969,-0.26562 -0.441406,-0.64453 -0.441406,-1.14062 0,-0.58203 0.230469,-1.08594 0.691406,-1.50391 0.460938,-0.42187 1.105469,-0.63281 1.9375,-0.63281 0.792969,0 1.4375,0.16016 1.9375,0.47656 0.496094,0.3125 0.78125,0.85938 0.855469,1.63281 H 32.90625 c -0.02344,-0.21093 -0.08594,-0.3789 -0.179687,-0.5039 -0.183594,-0.22656 -0.496094,-0.33594 -0.933594,-0.33594 -0.359375,0 -0.617187,0.0547 -0.769531,0.16797 -0.152344,0.10937 -0.230469,0.24219 -0.230469,0.39453 0,0.1875 0.08203,0.32422 0.246094,0.41016 0.160156,0.0898 0.734375,0.24218 1.726562,0.46093 0.65625,0.15235 1.152344,0.38672 1.480469,0.69922 0.324219,0.32032 0.488281,0.71485 0.488281,1.19141 0,0.625 -0.234375,1.14062 -0.699219,1.53516 -0.46875,0.39843 -1.191406,0.59765 -2.167968,0.59765 -0.996094,0 -1.734375,-0.21094 -2.207032,-0.63281 -0.476562,-0.41797 -0.714843,-0.95313 -0.714843,-1.60547 z m 0,0"
     id="path94" />
  <path
     fill-rule="nonzero"
     fill="#13a538"
     fill-opacity="1"
     d="m 37.601563,197.39843 v 3.8125 c 0,0.35938 0.04297,0.63282 0.128906,0.8125 0.148437,0.32032 0.445313,0.48438 0.882813,0.48438 0.5625,0 0.949218,-0.23047 1.15625,-0.6875 0.105468,-0.2461 0.160156,-0.57422 0.160156,-0.98047 v -3.44141 h 1.679687 v 6.32813 H 40 v -0.89453 c -0.01563,0.0195 -0.05469,0.0781 -0.113281,0.17187 -0.0625,0.0977 -0.136719,0.1836 -0.222656,0.25781 -0.257813,0.23047 -0.507813,0.39063 -0.75,0.47657 -0.238281,0.082 -0.523438,0.125 -0.847657,0.125 -0.933593,0 -1.5625,-0.33594 -1.886718,-1.00782 C 36,202.48437 35.90625,201.9375 35.90625,201.21093 v -3.8125 z m 0,0"
     id="path95" />
  <path
     fill-rule="nonzero"
     fill="#13a538"
     fill-opacity="1"
     d="m 48.539063,198.07421 c 0.515625,0.54688 0.773437,1.34766 0.773437,2.40625 0,1.11329 -0.25,1.96485 -0.757812,2.54688 -0.503906,0.58594 -1.152344,0.87891 -1.945313,0.87891 -0.507812,0 -0.929687,-0.12891 -1.261719,-0.37891 -0.1875,-0.14063 -0.363281,-0.33984 -0.539062,-0.60938 v 3.29688 h -1.636719 v -8.81641 h 1.585938 v 0.9336 c 0.175781,-0.27344 0.367187,-0.49219 0.570312,-0.64844 0.371094,-0.28516 0.8125,-0.42578 1.320313,-0.42578 0.746094,0 1.375,0.27344 1.890625,0.8164 m -1.269531,1.19141 c -0.226563,-0.375 -0.589844,-0.5625 -1.09375,-0.5625 -0.605469,0 -1.023438,0.28516 -1.25,0.85547 -0.117188,0.30078 -0.175782,0.68359 -0.175782,1.14844 0,0.73437 0.195313,1.25 0.59375,1.55078 0.230469,0.17187 0.511719,0.25781 0.832032,0.25781 0.464843,0 0.820312,-0.17578 1.0625,-0.53125 0.246093,-0.35547 0.367187,-0.83203 0.367187,-1.42187 0,-0.48829 -0.113281,-0.92188 -0.335937,-1.29688"
     id="path96" />
  <path
     fill-rule="nonzero"
     fill="#13a538"
     fill-opacity="1"
     d="m 52.128906,197.39843 v 3.8125 c 0,0.35938 0.04297,0.63282 0.128907,0.8125 0.148437,0.32032 0.445312,0.48438 0.882812,0.48438 0.5625,0 0.945313,-0.23047 1.15625,-0.6875 0.105469,-0.2461 0.160157,-0.57422 0.160157,-0.98047 v -3.44141 h 1.679687 v 6.32813 h -1.609375 v -0.89453 c -0.01563,0.0195 -0.05469,0.0781 -0.117188,0.17187 -0.0625,0.0977 -0.132812,0.1836 -0.21875,0.25781 -0.257812,0.23047 -0.507812,0.39063 -0.75,0.47657 -0.242187,0.082 -0.523437,0.125 -0.847656,0.125 -0.933594,0 -1.5625,-0.33594 -1.886718,-1.00782 -0.183594,-0.37109 -0.273438,-0.91796 -0.273438,-1.64453 v -3.8125 z m 0,0"
     id="path97" />
  <path
     fill-rule="nonzero"
     fill="#13a538"
     fill-opacity="1"
     d="m 61.867188,197.52343 c 0.441406,0.19922 0.804687,0.51172 1.09375,0.9375 0.257812,0.375 0.425781,0.8125 0.503906,1.3086 0.04687,0.28906 0.0625,0.71093 0.05469,1.2539 h -4.609376 c 0.02734,0.63672 0.246094,1.08203 0.660157,1.33594 0.253906,0.16016 0.558593,0.23828 0.914062,0.23828 0.375,0 0.683594,-0.0937 0.917969,-0.28906 0.128906,-0.10547 0.242188,-0.25 0.34375,-0.43359 h 1.6875 c -0.04687,0.375 -0.25,0.7539 -0.613281,1.14062 -0.566407,0.61719 -1.359375,0.92188 -2.382813,0.92188 -0.839844,0 -1.582031,-0.25782 -2.226562,-0.77735 -0.644532,-0.51953 -0.964844,-1.36328 -0.964844,-2.53125 0,-1.09765 0.289062,-1.9375 0.871094,-2.52344 0.578125,-0.58593 1.335937,-0.8789 2.261718,-0.8789 0.550782,0 1.046876,0.10156 1.488282,0.29687 m -2.476563,1.42969 c -0.230469,0.24219 -0.378906,0.57031 -0.4375,0.98047 h 2.847657 c -0.03125,-0.4375 -0.175782,-0.77344 -0.441407,-1 -0.261719,-0.22656 -0.589843,-0.33984 -0.980469,-0.33984 -0.421874,0 -0.753906,0.12109 -0.988281,0.35937"
     id="path98" />
  <path
     fill-rule="nonzero"
     fill="#13a538"
     fill-opacity="1"
     d="m 65.640625,201.70312 c 0.03516,0.29688 0.109375,0.50391 0.226563,0.62891 0.207031,0.21875 0.585937,0.33203 1.140625,0.33203 0.328125,0 0.589843,-0.0508 0.78125,-0.14844 0.191406,-0.0937 0.289062,-0.23828 0.289062,-0.43359 0,-0.1836 -0.07813,-0.32813 -0.234375,-0.42578 -0.152344,-0.0937 -0.730468,-0.26172 -1.730468,-0.4961 -0.71875,-0.17969 -1.226563,-0.40234 -1.519532,-0.66797 -0.292968,-0.26562 -0.441406,-0.64453 -0.441406,-1.14062 0,-0.58203 0.230469,-1.08594 0.691406,-1.50391 0.457032,-0.42187 1.105469,-0.63281 1.9375,-0.63281 0.792969,0 1.4375,0.16016 1.9375,0.47656 0.496094,0.3125 0.78125,0.85938 0.855469,1.63281 h -1.652344 c -0.02344,-0.21093 -0.08594,-0.3789 -0.179687,-0.5039 -0.183594,-0.22656 -0.496094,-0.33594 -0.933594,-0.33594 -0.359375,0 -0.617188,0.0547 -0.769531,0.16797 -0.15625,0.10937 -0.230469,0.24219 -0.230469,0.39453 0,0.1875 0.07813,0.32422 0.242188,0.41016 0.164062,0.0898 0.738281,0.24218 1.726562,0.46093 0.660156,0.15235 1.15625,0.38672 1.484375,0.69922 0.324219,0.32032 0.488281,0.71485 0.488281,1.19141 0,0.625 -0.234375,1.14062 -0.703125,1.53516 -0.464843,0.39843 -1.1875,0.59765 -2.164062,0.59765 -0.996094,0 -1.734375,-0.21094 -2.207031,-0.63281 -0.476563,-0.41797 -0.714844,-0.95313 -0.714844,-1.60547 z m 0,0"
     id="path99" />
  <path
     fill-rule="nonzero"
     fill="#13a538"
     fill-opacity="1"
     d="m 70.320313,198.63281 v -1.17969 h 0.878906 v -1.76172 h 1.636719 v 1.76172 h 1.03125 v 1.17969 h -1.03125 v 3.34375 c 0,0.26172 0.03516,0.42187 0.101562,0.48437 0.06641,0.0664 0.265625,0.0977 0.601563,0.0977 0.05078,0 0.105469,0 0.160156,-0.004 0.05859,0 0.113281,-0.004 0.167969,-0.008 v 1.23828 l -0.785156,0.0273 c -0.78125,0.0273 -1.316407,-0.10938 -1.601563,-0.40625 -0.1875,-0.19141 -0.28125,-0.48047 -0.28125,-0.87891 v -3.89453 z m 0,0"
     id="path100" />
  <path
     fill-rule="nonzero"
     fill="#13a538"
     fill-opacity="1"
     d="m 80.203125,202.94921 c -0.53125,0.66016 -1.34375,0.99219 -2.429687,0.99219 -1.089844,0 -1.898438,-0.33203 -2.433594,-0.99219 -0.535156,-0.65625 -0.800781,-1.45312 -0.800781,-2.3789 0,-0.91406 0.265625,-1.70313 0.800781,-2.375 0.535156,-0.66797 1.34375,-1 2.433594,-1 1.085937,0 1.898437,0.33203 2.429687,1 0.535157,0.67187 0.804688,1.46094 0.804688,2.375 0,0.92578 -0.269531,1.72265 -0.804688,2.3789 m -1.320312,-0.91406 c 0.257812,-0.34375 0.386719,-0.83203 0.386719,-1.46484 0,-0.63281 -0.128907,-1.1211 -0.386719,-1.46485 -0.261719,-0.33984 -0.632813,-0.51171 -1.117188,-0.51171 -0.484375,0 -0.855469,0.17187 -1.117187,0.51171 -0.261719,0.34375 -0.390625,0.83204 -0.390625,1.46485 0,0.63281 0.128906,1.12109 0.390625,1.46484 0.261718,0.34375 0.632812,0.51953 1.117187,0.51953 0.484375,0 0.855469,-0.17578 1.117188,-0.51953"
     id="path101" />
  <path
     fill-rule="nonzero"
     fill="#ffffff"
     fill-opacity="1"
     d="m 17.566406,126.32031 c -0.546874,0.45703 -1.332031,0.6875 -2.347656,0.6875 h -1.953125 v 3.36719 h -1.945312 v -9.36719 h 4.023437 c 0.929688,0 1.667969,0.24219 2.21875,0.72656 0.550782,0.48047 0.828125,1.23047 0.828125,2.24219 0,1.10547 -0.273437,1.88672 -0.824219,2.34375 m -1.492187,-3.375 c -0.25,-0.20703 -0.597656,-0.3086 -1.042969,-0.3086 h -1.765625 v 2.75782 h 1.765625 c 0.445313,0 0.792969,-0.11328 1.042969,-0.33594 0.246094,-0.22656 0.371094,-0.58203 0.371094,-1.07031 0,-0.48438 -0.125,-0.83594 -0.371094,-1.04297"
     id="path102" />
  <path
     fill-rule="nonzero"
     fill="#ffffff"
     fill-opacity="1"
     d="m 23.660156,123.28515 c 0.02344,0.004 0.07422,0.008 0.15625,0.0117 v 1.85547 c -0.113281,-0.0117 -0.214843,-0.0195 -0.304687,-0.0273 -0.08984,-0.004 -0.160156,-0.004 -0.214844,-0.004 -0.730469,0 -1.21875,0.23828 -1.46875,0.71094 -0.140625,0.26562 -0.210937,0.67968 -0.210937,1.23437 v 3.3086 h -1.824219 v -6.92579 h 1.730469 v 1.20704 c 0.277344,-0.46094 0.523437,-0.77735 0.730468,-0.94532 0.339844,-0.28515 0.777344,-0.42578 1.320313,-0.42578 0.03516,0 0.0625,0 0.08594,0"
     id="path103" />
  <path
     fill-rule="nonzero"
     fill="#ffffff"
     fill-opacity="1"
     d="m 30.65625,129.52734 c -0.585937,0.72266 -1.472656,1.08594 -2.664062,1.08594 -1.191406,0 -2.078125,-0.36328 -2.664063,-1.08594 -0.582031,-0.71875 -0.875,-1.58984 -0.875,-2.60547 0,-1 0.292969,-1.86328 0.875,-2.59766 0.585938,-0.73046 1.472657,-1.09765 2.664063,-1.09765 1.191406,0 2.078125,0.36719 2.664062,1.09765 0.582032,0.73438 0.875,1.59766 0.875,2.59766 0,1.01563 -0.292968,1.88672 -0.875,2.60547 m -1.449218,-1 c 0.28125,-0.375 0.425781,-0.91016 0.425781,-1.60547 0,-0.69531 -0.144531,-1.22656 -0.425781,-1.60156 -0.285157,-0.375 -0.691407,-0.5625 -1.222657,-0.5625 -0.527343,0 -0.9375,0.1875 -1.222656,0.5625 -0.285156,0.375 -0.429687,0.90625 -0.429687,1.60156 0,0.69531 0.144531,1.23047 0.429687,1.60547 0.285156,0.375 0.695313,0.56641 1.222656,0.56641 0.53125,0 0.9375,-0.19141 1.222657,-0.56641"
     id="path104" />
  <path
     fill-rule="nonzero"
     fill="#ffffff"
     fill-opacity="1"
     d="m 33.101563,131.70312 0.230469,0.0156 c 0.175781,0.008 0.34375,0 0.507812,-0.0195 0.160156,-0.0234 0.296875,-0.0703 0.40625,-0.14843 0.105469,-0.0703 0.203125,-0.22266 0.292969,-0.44922 0.09375,-0.23047 0.132812,-0.36719 0.121093,-0.42188 l -2.546874,-7.23047 h 2.015624 l 1.511719,5.10938 1.429688,-5.10938 h 1.925781 l -2.375,6.8125 c -0.457031,1.3125 -0.824219,2.12891 -1.089844,2.44532 -0.265625,0.3125 -0.800781,0.47265 -1.601562,0.47265 -0.164063,0 -0.292969,-0.004 -0.390625,-0.004 -0.09766,-0.004 -0.242188,-0.0117 -0.4375,-0.0234 z m 0,0"
     id="path105" />
  <path
     fill-rule="nonzero"
     fill="#ffffff"
     fill-opacity="1"
     d="m 44.578125,123.58984 c 0.484375,0.21484 0.882813,0.55859 1.199219,1.02344 0.285156,0.41015 0.46875,0.89062 0.550781,1.43359 0.05078,0.31641 0.07031,0.77344 0.0625,1.375 H 41.34375 c 0.02734,0.69531 0.269532,1.17969 0.722656,1.46094 0.277344,0.17578 0.609376,0.26172 1,0.26172 0.414063,0 0.75,-0.10547 1.003907,-0.31641 0.140625,-0.11719 0.265625,-0.27344 0.375,-0.48047 h 1.847656 c -0.04687,0.41406 -0.269531,0.82813 -0.671875,1.25391 -0.621094,0.67187 -1.488281,1.01172 -2.605469,1.01172 -0.921875,0 -1.734375,-0.28516 -2.4375,-0.85547 -0.707031,-0.56641 -1.058593,-1.49219 -1.058593,-2.77344 0,-1.19922 0.316406,-2.12109 0.953124,-2.75781 0.636719,-0.64063 1.464844,-0.96094 2.476563,-0.96094 0.605469,0 1.148437,0.10938 1.628906,0.32422 m -2.707031,1.5625 c -0.257812,0.26562 -0.417969,0.62109 -0.484375,1.07422 h 3.121094 c -0.03125,-0.48047 -0.195313,-0.84375 -0.480469,-1.09375 -0.289062,-0.25 -0.648438,-0.375 -1.074219,-0.375 -0.464843,0 -0.828125,0.13281 -1.082031,0.39453"
     id="path106" />
  <path
     fill-rule="nonzero"
     fill="#ffffff"
     fill-opacity="1"
     d="m 51.449219,125.93359 c -0.03516,-0.25781 -0.121094,-0.49219 -0.261719,-0.69922 -0.203125,-0.28125 -0.519531,-0.41797 -0.949218,-0.41797 -0.613282,0 -1.03125,0.30078 -1.253907,0.90625 -0.121093,0.32422 -0.179687,0.75 -0.179687,1.28125 0,0.50781 0.05859,0.91797 0.179687,1.22656 0.214844,0.57422 0.621094,0.86329 1.222657,0.86329 0.425781,0 0.726562,-0.11719 0.902343,-0.34375 0.179688,-0.23047 0.289063,-0.52735 0.328125,-0.89063 h 1.847656 c -0.04297,0.55078 -0.242187,1.07422 -0.597656,1.5625 -0.570312,0.79297 -1.410156,1.19141 -2.527344,1.19141 -1.113281,0 -1.933593,-0.33203 -2.460937,-0.99219 -0.523437,-0.66016 -0.789063,-1.51953 -0.789063,-2.57031 0,-1.19141 0.289063,-2.11328 0.871094,-2.77735 0.582032,-0.66015 1.382813,-0.98828 2.40625,-0.98828 0.867188,0 1.582032,0.19531 2.132813,0.58203 0.554687,0.39063 0.882812,1.07813 0.984375,2.06641 z m 0,0"
     id="path107" />
  <path
     fill-rule="nonzero"
     fill="#ffffff"
     fill-opacity="1"
     d="m 53.832032,124.80078 v -1.28907 h 0.964843 v -1.92968 h 1.792969 v 1.92968 h 1.125 v 1.28907 h -1.125 v 3.66406 c 0,0.28125 0.03516,0.46094 0.105469,0.52734 0.07422,0.0703 0.292969,0.10547 0.664062,0.10547 0.05469,0 0.113281,0 0.171875,-0.004 0.0625,0 0.125,-0.004 0.183594,-0.008 v 1.35547 l -0.859375,0.0273 c -0.855469,0.0312 -1.441406,-0.11329 -1.753906,-0.44141 -0.203125,-0.20703 -0.304688,-0.52734 -0.304688,-0.96094 v -4.26562 z m 0,0"
     id="path108" />
  <path
     fill-rule="nonzero"
     fill="#ffffff"
     fill-opacity="1"
     d="m 64.652344,129.52734 c -0.582031,0.72266 -1.46875,1.08594 -2.660156,1.08594 -1.191406,0 -2.078125,-0.36328 -2.664063,-1.08594 -0.585937,-0.71875 -0.878906,-1.58984 -0.878906,-2.60547 0,-1 0.292969,-1.86328 0.878906,-2.59766 0.585938,-0.73046 1.472657,-1.09765 2.664063,-1.09765 1.191406,0 2.078125,0.36719 2.660156,1.09765 0.585938,0.73438 0.878906,1.59766 0.878906,2.59766 0,1.01563 -0.292968,1.88672 -0.878906,2.60547 m -1.449219,-1 c 0.285157,-0.375 0.429688,-0.91016 0.429688,-1.60547 0,-0.69531 -0.144531,-1.22656 -0.429688,-1.60156 -0.28125,-0.375 -0.6875,-0.5625 -1.21875,-0.5625 -0.53125,0 -0.9375,0.1875 -1.222656,0.5625 -0.285156,0.375 -0.429687,0.90625 -0.429687,1.60156 0,0.69531 0.144531,1.23047 0.429687,1.60547 0.285156,0.375 0.691406,0.56641 1.222656,0.56641 0.53125,0 0.9375,-0.19141 1.21875,-0.56641"
     id="path109" />
  <path
     fill-rule="nonzero"
     fill="#ffffff"
     fill-opacity="1"
     d="m 74.117188,123.55859 c 0.324218,0.18359 0.589844,0.44141 0.792968,0.76562 v -3.30078 h 1.835938 v 9.35157 h -1.757812 v -0.96094 c -0.257813,0.41406 -0.554688,0.71094 -0.882813,0.89844 -0.332031,0.1875 -0.742187,0.28125 -1.234375,0.28125 -0.808594,0 -1.492188,-0.32813 -2.042969,-0.98438 C 70.273438,128.95312 70,128.11718 70,127.08984 c 0,-1.18359 0.269532,-2.10938 0.816406,-2.78906 0.542969,-0.67969 1.269532,-1.01563 2.183594,-1.01563 0.417969,0 0.789063,0.0898 1.117188,0.27344 m 0.445312,4.9375 c 0.265625,-0.38281 0.398438,-0.875 0.398438,-1.48047 0,-0.84766 -0.210938,-1.45312 -0.640625,-1.82031 -0.261719,-0.21875 -0.566407,-0.32813 -0.914063,-0.32813 -0.53125,0 -0.917968,0.19922 -1.167968,0.59766 -0.246094,0.40234 -0.371094,0.89844 -0.371094,1.49219 0,0.64062 0.125,1.15234 0.378906,1.53515 0.25,0.38282 0.632812,0.57422 1.144531,0.57422 0.515625,0 0.902344,-0.1914 1.171875,-0.57031"
     id="path110" />
  <path
     fill-rule="nonzero"
     fill="#ffffff"
     fill-opacity="1"
     d="m 82.90625,123.58984 c 0.484375,0.21484 0.882814,0.55859 1.199224,1.02344 0.28125,0.41015 0.46875,0.89062 0.55078,1.43359 0.0508,0.31641 0.0703,0.77344 0.0586,1.375 h -5.042969 c 0.02734,0.69531 0.269531,1.17969 0.722657,1.46094 0.277343,0.17578 0.609374,0.26172 1,0.26172 0.410156,0 0.746093,-0.10547 1.003906,-0.31641 0.140625,-0.11719 0.265625,-0.27344 0.375,-0.48047 h 1.847656 c -0.0469,0.41406 -0.27344,0.82813 -0.67187,1.25391 -0.621099,0.67187 -1.488286,1.01172 -2.605474,1.01172 -0.921875,0 -1.734375,-0.28516 -2.4375,-0.85547 -0.707031,-0.56641 -1.058594,-1.49219 -1.058594,-2.77344 0,-1.19922 0.316407,-2.12109 0.953126,-2.75781 0.636718,-0.64063 1.460937,-0.96094 2.476562,-0.96094 0.605469,0 1.148438,0.10938 1.628906,0.32422 m -2.707031,1.5625 c -0.257813,0.26562 -0.417969,0.62109 -0.484375,1.07422 h 3.121094 c -0.03125,-0.48047 -0.195313,-0.84375 -0.484375,-1.09375 -0.289063,-0.25 -0.644531,-0.375 -1.070313,-0.375 -0.46875,0 -0.828125,0.13281 -1.082031,0.39453"
     id="path111" />
  <path
     fill-rule="nonzero"
     fill="#ffffff"
     fill-opacity="1"
     d="m 95.691404,123.93359 c -0.14843,-0.64063 -0.50781,-1.08984 -1.08593,-1.34375 -0.32422,-0.13672 -0.67969,-0.20703 -1.07422,-0.20703 -0.75391,0 -1.375,0.28515 -1.85938,0.85156 -0.48437,0.57031 -0.72656,1.42578 -0.72656,2.56641 0,1.14843 0.26172,1.96484 0.78906,2.4414 0.52344,0.47657 1.1211,0.71875 1.78906,0.71875 0.66016,0 1.19532,-0.1914 1.61719,-0.5664 0.41797,-0.37891 0.67578,-0.8711 0.77344,-1.48047 h -2.16797 v -1.56641 h 3.90234 v 5.02735 h -1.29687 l -0.19531,-1.16797 c -0.37891,0.4414 -0.71485,0.7539 -1.01563,0.9375 -0.51953,0.3164 -1.15625,0.47265 -1.90625,0.47265 -1.24219,0 -2.26172,-0.42968 -3.05078,-1.28906 -0.82812,-0.86328 -1.24219,-2.04297 -1.24219,-3.54297 0,-1.51562 0.41797,-2.73047 1.25391,-3.64453 0.83594,-0.91797 1.9375,-1.375 3.30859,-1.375 1.19141,0 2.14844,0.30469 2.8711,0.90625 0.72265,0.60547 1.13672,1.35938 1.24218,2.26172 z m 0,0"
     id="path112" />
  <path
     fill-rule="nonzero"
     fill="#ffffff"
     fill-opacity="1"
     d="m 103.88281,123.58984 c 0.48437,0.21484 0.88281,0.55859 1.19922,1.02344 0.28515,0.41015 0.46484,0.89062 0.55078,1.43359 0.0508,0.31641 0.0703,0.77344 0.0625,1.375 h -5.04688 c 0.0273,0.69531 0.26954,1.17969 0.72266,1.46094 0.27734,0.17578 0.60938,0.26172 1,0.26172 0.41406,0 0.75,-0.10547 1.00391,-0.31641 0.14453,-0.11719 0.26562,-0.27344 0.375,-0.48047 h 1.84765 c -0.0469,0.41406 -0.26953,0.82813 -0.66797,1.25391 -0.62109,0.67187 -1.49218,1.01172 -2.60937,1.01172 -0.92188,0 -1.73438,-0.28516 -2.437496,-0.85547 -0.70703,-0.56641 -1.05859,-1.49219 -1.05859,-2.77344 0,-1.19922 0.3164,-2.12109 0.95312,-2.75781 0.636716,-0.64063 1.464836,-0.96094 2.476556,-0.96094 0.60547,0 1.14844,0.10938 1.62891,0.32422 m -2.70703,1.5625 c -0.25781,0.26562 -0.41797,0.62109 -0.48438,1.07422 h 3.1211 c -0.0312,-0.48047 -0.19532,-0.84375 -0.48047,-1.09375 -0.28906,-0.25 -0.64844,-0.375 -1.07422,-0.375 -0.46484,0 -0.82813,0.13281 -1.08203,0.39453"
     id="path113" />
  <path
     fill-rule="nonzero"
     fill="#ffffff"
     fill-opacity="1"
     d="m 108.01562,128.16406 c 0.0352,0.32422 0.1211,0.55078 0.2461,0.6875 0.22656,0.24219 0.64453,0.35937 1.2539,0.35937 0.35547,0 0.64063,-0.0508 0.85156,-0.15625 0.21094,-0.10547 0.31641,-0.26562 0.31641,-0.47656 0,-0.20312 -0.0859,-0.35937 -0.25391,-0.46484 -0.17187,-0.10547 -0.80078,-0.28907 -1.89453,-0.54688 -0.78906,-0.19531 -1.34375,-0.4375 -1.66406,-0.73047 -0.32422,-0.28906 -0.48437,-0.70312 -0.48437,-1.24609 0,-0.63672 0.2539,-1.1875 0.75781,-1.64844 0.5,-0.45703 1.21094,-0.6875 2.12109,-0.6875 0.86719,0 1.57031,0.17188 2.11719,0.51563 0.54687,0.34375 0.85937,0.9414 0.9414,1.78906 h -1.81249 c -0.0234,-0.23438 -0.0898,-0.41797 -0.19532,-0.55078 -0.20312,-0.2461 -0.54297,-0.3711 -1.02343,-0.3711 -0.39454,0 -0.67579,0.0625 -0.84375,0.1836 -0.16797,0.125 -0.25,0.26953 -0.25,0.43359 0,0.20703 0.0898,0.35938 0.26562,0.44922 0.17969,0.0977 0.80859,0.26563 1.89453,0.50391 0.71875,0.16797 1.26172,0.42578 1.62109,0.76953 0.35547,0.34765 0.53125,0.78125 0.53125,1.30078 0,0.6875 -0.2539,1.25 -0.76562,1.68359 -0.51172,0.4336 -1.30078,0.65235 -2.37109,0.65235 -1.09375,0 -1.89844,-0.23047 -2.41797,-0.69141 -0.51953,-0.46094 -0.78125,-1.04687 -0.78125,-1.75781 z m 0,0"
     id="path114" />
  <path
     fill-rule="nonzero"
     fill="#ffffff"
     fill-opacity="1"
     d="m 113.13671,124.80078 v -1.28907 h 0.96485 v -1.92968 h 1.79297 v 1.92968 h 1.125 v 1.28907 h -1.125 v 3.66406 c 0,0.28125 0.0352,0.46094 0.10937,0.52734 0.0703,0.0703 0.28906,0.10547 0.66016,0.10547 0.0547,0 0.11328,0 0.17578,-0.004 0.0586,0 0.12109,-0.004 0.17969,-0.008 v 1.35547 l -0.85938,0.0273 c -0.85547,0.0312 -1.4414,-0.11329 -1.7539,-0.44141 -0.20313,-0.20703 -0.30469,-0.52734 -0.30469,-0.96094 v -4.26562 z m 0,0"
     id="path115" />
  <path
     fill-rule="nonzero"
     fill="#ffffff"
     fill-opacity="1"
     d="m 120.04296,122.62109 h -1.83593 v -1.67188 h 1.83593 z m -1.83593,0.82812 h 1.83593 v 6.92579 h -1.83593 z m 0,0"
     id="path116" />
  <path
     fill-rule="nonzero"
     fill="#ffffff"
     fill-opacity="1"
     d="m 127.57421,129.52734 c -0.58203,0.72266 -1.47265,1.08594 -2.66406,1.08594 -1.1875,0 -2.07812,-0.36328 -2.66015,-1.08594 -0.58594,-0.71875 -0.87891,-1.58984 -0.87891,-2.60547 0,-1 0.29297,-1.86328 0.87891,-2.59766 0.58203,-0.73046 1.47265,-1.09765 2.66015,-1.09765 1.19141,0 2.08203,0.36719 2.66406,1.09765 0.58594,0.73438 0.87891,1.59766 0.87891,2.59766 0,1.01563 -0.29297,1.88672 -0.87891,2.60547 m -1.44921,-1 c 0.28515,-0.375 0.42578,-0.91016 0.42578,-1.60547 0,-0.69531 -0.14063,-1.22656 -0.42578,-1.60156 -0.28516,-0.375 -0.6875,-0.5625 -1.21875,-0.5625 -0.53125,0 -0.9375,0.1875 -1.22266,0.5625 -0.28516,0.375 -0.42969,0.90625 -0.42969,1.60156 0,0.69531 0.14453,1.23047 0.42969,1.60547 0.28516,0.375 0.69141,0.56641 1.22266,0.56641 0.53125,0 0.93359,-0.19141 1.21875,-0.56641 m 0.95312,-7.91016 -1.92969,1.89844 h -1.30859 l 1.21875,-1.89844 z m 0,0"
     id="path117" />
  <path
     fill-rule="nonzero"
     fill="#ffffff"
     fill-opacity="1"
     d="m 135.33593,123.84765 c 0.45313,0.3711 0.67969,0.9961 0.67969,1.86328 v 4.66407 h -1.85547 v -4.21094 c 0,-0.36719 -0.0508,-0.64453 -0.14453,-0.83985 -0.17969,-0.35546 -0.51562,-0.53515 -1.01172,-0.53515 -0.60937,0 -1.02734,0.26172 -1.2539,0.78125 -0.11719,0.27734 -0.17969,0.6289 -0.17969,1.05469 v 3.75 h -1.8086 v -6.91407 h 1.75391 v 1.01172 c 0.23047,-0.35547 0.44922,-0.61328 0.65625,-0.76953 0.375,-0.28125 0.84375,-0.41797 1.41406,-0.41797 0.71094,0 1.29297,0.1875 1.75,0.5625"
     id="path118" />
</svg>
