<?xml version="1.0" encoding="UTF-8" standalone="no"?>
<svg
   xmlns:dc="http://purl.org/dc/elements/1.1/"
   xmlns:cc="http://creativecommons.org/ns#"
   xmlns:rdf="http://www.w3.org/1999/02/22-rdf-syntax-ns#"
   xmlns:svg="http://www.w3.org/2000/svg"
   xmlns="http://www.w3.org/2000/svg"
   xmlns:xlink="http://www.w3.org/1999/xlink"
   xmlns:sodipodi="http://sodipodi.sourceforge.net/DTD/sodipodi-0.dtd"
   xmlns:inkscape="http://www.inkscape.org/namespaces/inkscape"
   width="400.76199"
   height="63.028332"
   viewBox="0 0 400.762 63.028332"
   id="svg2"
   version="1.1"
   inkscape:version="1.0.1 (c497b03c, 2020-09-10)"
   sodipodi:docname="hibridacion-BeCl2.svg">
  <defs
     id="defs4">
    <marker
       inkscape:stockid="Arrow1Mstart"
       orient="auto"
       refY="0"
       refX="0"
       id="Arrow1Mstart"
       style="overflow:visible"
       inkscape:isstock="true">
      <path
         id="path5301"
         d="M 0,0 5,-5 -12.5,0 5,5 Z"
         style="fill-rule:evenodd;stroke:#000000;stroke-width:1pt"
         transform="matrix(0.4,0,0,0.4,4,0)" />
    </marker>
    <linearGradient
       id="linearGradient4990"
       inkscape:collect="always">
      <stop
         id="stop4992"
         offset="0"
         style="stop-color:#000080;stop-opacity:1;" />
      <stop
         id="stop4994"
         offset="1"
         style="stop-color:#c83737;stop-opacity:1" />
    </linearGradient>
    <marker
       inkscape:stockid="Arrow1Mend"
       orient="auto"
       refY="0"
       refX="0"
       id="marker4851"
       style="overflow:visible"
       inkscape:isstock="true">
      <path
         inkscape:connector-curvature="0"
         id="path4853"
         d="M 0,0 5,-5 -12.5,0 5,5 Z"
         style="fill:#000000;fill-opacity:1;fill-rule:evenodd;stroke:#000000;stroke-width:1pt;stroke-opacity:1"
         transform="matrix(-0.4,0,0,-0.4,-4,0)" />
    </marker>
    <marker
       inkscape:stockid="Arrow1Mstart"
       orient="auto"
       refY="0"
       refX="0"
       id="marker4763"
       style="overflow:visible"
       inkscape:isstock="true">
      <path
         inkscape:connector-curvature="0"
         id="path4765"
         d="M 0,0 5,-5 -12.5,0 5,5 Z"
         style="fill:#000000;fill-opacity:1;fill-rule:evenodd;stroke:#000000;stroke-width:1pt;stroke-opacity:1"
         transform="matrix(0.4,0,0,0.4,4,0)" />
    </marker>
    <linearGradient
       inkscape:collect="always"
       id="linearGradient4514">
      <stop
         style="stop-color:#0000ff;stop-opacity:1;"
         offset="0"
         id="stop4516" />
      <stop
         style="stop-color:#ff00ff;stop-opacity:1"
         offset="1"
         id="stop4518" />
    </linearGradient>
    <marker
       inkscape:stockid="Arrow1Sstart"
       orient="auto"
       refY="0"
       refX="0"
       id="Arrow1Sstart"
       style="overflow:visible"
       inkscape:isstock="true">
      <path
         id="path4346"
         d="M 0,0 5,-5 -12.5,0 5,5 Z"
         style="fill:#000000;fill-opacity:1;fill-rule:evenodd;stroke:#000000;stroke-width:1pt;stroke-opacity:1"
         transform="matrix(0.2,0,0,0.2,1.2,0)"
         inkscape:connector-curvature="0" />
    </marker>
    <marker
       inkscape:stockid="Arrow1Send"
       orient="auto"
       refY="0"
       refX="0"
       id="Arrow1Send"
       style="overflow:visible"
       inkscape:isstock="true">
      <path
         id="path4349"
         d="M 0,0 5,-5 -12.5,0 5,5 Z"
         style="fill:#000000;fill-opacity:1;fill-rule:evenodd;stroke:#000000;stroke-width:1pt;stroke-opacity:1"
         transform="matrix(-0.2,0,0,-0.2,-1.2,0)"
         inkscape:connector-curvature="0" />
    </marker>
    <linearGradient
       inkscape:collect="always"
       xlink:href="#linearGradient4514"
       id="linearGradient4520"
       x1="160.35504"
       y1="1092.3795"
       x2="160.35504"
       y2="1127.3795"
       gradientUnits="userSpaceOnUse"
       gradientTransform="translate(-1.9559097)" />
    <linearGradient
       gradientTransform="matrix(1,0,0,0.76940338,84.43649,424.67971)"
       inkscape:collect="always"
       xlink:href="#linearGradient4990"
       id="linearGradient4255-9"
       x1="106.22757"
       y1="888.05408"
       x2="208.39914"
       y2="887.37952"
       gradientUnits="userSpaceOnUse" />
    <linearGradient
       inkscape:collect="always"
       xlink:href="#linearGradient4990"
       id="linearGradient5037"
       gradientUnits="userSpaceOnUse"
       gradientTransform="matrix(-1,0,0,0.76940338,221.54058,424.67971)"
       x1="106.22757"
       y1="888.05408"
       x2="208.39914"
       y2="887.37952" />
  </defs>
  <sodipodi:namedview
     id="base"
     pagecolor="#ffffff"
     bordercolor="#666666"
     borderopacity="1.0"
     inkscape:pageopacity="0.0"
     inkscape:pageshadow="2"
     inkscape:zoom="2"
     inkscape:cx="230.75645"
     inkscape:cy="96.983112"
     inkscape:document-units="px"
     inkscape:current-layer="layer1"
     showgrid="true"
     units="px"
     inkscape:window-width="1440"
     inkscape:window-height="766"
     inkscape:window-x="0"
     inkscape:window-y="25"
     inkscape:window-maximized="0"
     fit-margin-top="0"
     fit-margin-left="0"
     fit-margin-right="0"
     fit-margin-bottom="0"
     inkscape:snap-grids="true"
     inkscape:document-rotation="0"
     lock-margins="true">
    <inkscape:grid
       type="xygrid"
       id="grid3355"
       originx="-75.000002"
       originy="-12.660195" />
  </sodipodi:namedview>
  <metadata
     id="metadata7">
    <rdf:RDF>
      <cc:Work
         rdf:about="">
        <dc:format>image/svg+xml</dc:format>
        <dc:type
           rdf:resource="http://purl.org/dc/dcmitype/StillImage" />
        <dc:title />
      </cc:Work>
    </rdf:RDF>
  </metadata>
  <g
     inkscape:label="Layer 1"
     inkscape:groupmode="layer"
     id="layer1"
     transform="translate(36.600861,-1079.6945)">
    <path
       style="fill:none;fill-rule:evenodd;stroke:#000000;stroke-width:1px;stroke-linecap:butt;stroke-linejoin:miter;stroke-opacity:1;marker-end:url(#marker4851)"
       d="M -36.600861,1108.5487 H 353.39914"
       id="path5129"
       inkscape:connector-curvature="0" />
    <g
       aria-label=" "
       id="text4834"
       style="font-style:normal;font-weight:normal;line-height:0%;font-family:sans-serif;text-align:center;letter-spacing:0px;word-spacing:0px;text-anchor:middle;fill:#000000;fill-opacity:1;stroke:none;stroke-width:1px;stroke-linecap:butt;stroke-linejoin:miter;stroke-opacity:1" />
    <path
       style="opacity:1;fill:url(#linearGradient4520);fill-opacity:1;fill-rule:evenodd;stroke:none;stroke-width:2;stroke-linecap:butt;stroke-linejoin:miter;stroke-miterlimit:4;stroke-dasharray:none;stroke-opacity:1"
       d="m 102.18193,1083.9547 c -15.583542,1.7292 -16.521092,45.5909 0,48.9152 34.90967,7.0245 62.07717,-54.9977 101.32427,-48.9152 16.51032,2.5586 16.37157,45.2093 0,48.9152 -34.58462,7.8289 -61.68594,-53.3137 -101.32427,-48.9152 z"
       id="path3344-6-5"
       inkscape:connector-curvature="0"
       sodipodi:nodetypes="sssss"
       inkscape:transform-center-x="-19.500016"
       inkscape:transform-center-y="14.099212" />
    <path
       style="fill:#800000;fill-opacity:1;fill-rule:evenodd;stroke:none;stroke-width:2;stroke-linecap:butt;stroke-linejoin:miter;stroke-miterlimit:4;stroke-dasharray:none;stroke-opacity:1"
       d="m 126.43391,1098.5207 c -8.14491,0.705 -8.63493,18.5894 0,19.9448 18.24592,2.8642 32.44532,-22.4249 52.95824,-19.9448 8.6293,1.0433 8.55679,18.4338 0,19.9448 -18.07603,3.1922 -32.24083,-21.7383 -52.95824,-19.9448 z"
       id="path3344-6-9"
       inkscape:connector-curvature="0"
       sodipodi:nodetypes="sssss"
       inkscape:transform-center-x="-10.191898"
       inkscape:transform-center-y="5.7488553" />
    <g
       aria-label="-"
       transform="scale(1.440381,0.69426076)"
       id="text4392"
       style="font-style:normal;font-weight:normal;font-size:24px;line-height:0%;font-family:sans-serif;text-align:center;letter-spacing:0px;word-spacing:0px;text-anchor:middle;fill:#000000;fill-opacity:1;stroke:none;stroke-width:1px;stroke-linecap:butt;stroke-linejoin:miter;stroke-opacity:1">
      <path
         d="m 116.74012,1597.7525 q -0.144,0 -0.144,-0.144 0,-0.408 0.096,-0.84 0.12,-0.432 0.288,-0.456 1.152,-0.168 2.304,-0.312 1.152,-0.168 2.304,-0.288 0.072,0 0.12,0.048 0.072,0.024 0.072,0.096 0,0.456 -0.12,0.864 -0.096,0.384 -0.384,0.432 -1.08,0.168 -2.208,0.336 -1.104,0.144 -2.328,0.264 z"
         style="font-style:normal;font-variant:normal;font-weight:normal;font-stretch:normal;font-size:24px;line-height:1.25;font-family:'EB Garamond';-inkscape-font-specification:'EB Garamond'"
         id="path105" />
    </g>
    <g
       aria-label="-"
       transform="scale(1.440381,0.69426076)"
       id="text4392-1"
       style="font-style:normal;font-weight:normal;font-size:24px;line-height:0%;font-family:sans-serif;text-align:center;letter-spacing:0px;word-spacing:0px;text-anchor:middle;fill:#000000;fill-opacity:1;stroke:none;stroke-width:1px;stroke-linecap:butt;stroke-linejoin:miter;stroke-opacity:1">
      <path
         d="m 88.969692,1597.7525 q -0.144,0 -0.144,-0.144 0,-0.408 0.096,-0.84 0.12,-0.432 0.288,-0.456 1.152,-0.168 2.304,-0.312 1.152,-0.168 2.304,-0.288 0.072,0 0.12,0.048 0.072,0.024 0.072,0.096 0,0.456 -0.12,0.864 -0.096,0.384 -0.384,0.432 -1.08,0.168 -2.208,0.336 -1.104,0.144 -2.328,0.264 z"
         style="font-style:normal;font-variant:normal;font-weight:normal;font-stretch:normal;font-size:24px;line-height:1.25;font-family:'EB Garamond';-inkscape-font-specification:'EB Garamond'"
         id="path102" />
    </g>
    <path
       inkscape:transform-center-y="8.4627917"
       inkscape:transform-center-x="-19.500016"
       sodipodi:nodetypes="sssss"
       inkscape:connector-curvature="0"
       id="path3344-6-0"
       d="m 219.03131,1093.7865 c -15.58354,1.038 -16.52109,27.3653 0,29.3606 34.90967,4.2164 62.07717,-33.0114 101.32427,-29.3606 16.51032,1.5359 16.37157,27.1362 0,29.3606 -34.58462,4.6992 -61.68594,-32.0007 -101.32427,-29.3606 z"
       style="fill:url(#linearGradient4255-9);fill-opacity:1;fill-rule:evenodd;stroke:none;stroke-width:2;stroke-linecap:butt;stroke-linejoin:miter;stroke-miterlimit:4;stroke-dasharray:none;stroke-opacity:1" />
    <g
       aria-label="+"
       id="text4996"
       style="font-style:normal;font-weight:normal;font-size:24px;line-height:0%;font-family:sans-serif;text-align:center;letter-spacing:0px;word-spacing:0px;text-anchor:middle;fill:#000000;fill-opacity:1;stroke:none;stroke-width:1px;stroke-linecap:butt;stroke-linejoin:miter;stroke-opacity:1">
      <path
         d="m 242.41461,1114.4287 q -0.096,0 -0.192,-0.12 -0.096,-0.096 -0.096,-0.216 v -5.064 q 0,-0.12 -0.096,-0.12 h -4.848 q -0.12,0 -0.24,-0.096 -0.096,-0.096 -0.096,-0.192 0,-0.12 0.048,-0.336 0.072,-0.216 0.192,-0.384 0.12,-0.192 0.336,-0.192 h 4.536 q 0.12,0 0.144,-0.048 0.024,-0.048 0.024,-0.144 v -4.104 q 0,-0.264 0.24,-0.432 0.24,-0.168 0.504,-0.24 0.288,-0.072 0.36,-0.072 0.12,0 0.216,0.096 0.12,0.096 0.12,0.216 v 4.584 q 0,0.144 0.048,0.144 h 4.92 q 0.12,0 0.216,0.072 0.096,0.048 0.096,0.168 0,0.312 -0.216,0.648 -0.192,0.312 -0.528,0.312 h -4.44 q -0.096,0 -0.096,0.096 v 4.848 q 0,0.24 -0.24,0.384 -0.24,0.12 -0.528,0.144 -0.264,0.048 -0.384,0.048 z"
         style="font-style:normal;font-variant:normal;font-weight:normal;font-stretch:normal;font-size:24px;line-height:1.25;font-family:'EB Garamond';-inkscape-font-specification:'EB Garamond'"
         id="path99" />
    </g>
    <g
       aria-label="-"
       transform="scale(1.440381,0.69426076)"
       id="text4392-6"
       style="font-style:normal;font-weight:normal;font-size:24px;line-height:0%;font-family:sans-serif;text-align:center;letter-spacing:0px;word-spacing:0px;text-anchor:middle;fill:#000000;fill-opacity:1;stroke:none;stroke-width:1px;stroke-linecap:butt;stroke-linejoin:miter;stroke-opacity:1">
      <path
         d="m 202.28028,1597.7525 q -0.144,0 -0.144,-0.144 0,-0.408 0.096,-0.84 0.12,-0.432 0.288,-0.456 1.152,-0.168 2.304,-0.312 1.152,-0.168 2.304,-0.288 0.072,0 0.12,0.048 0.072,0.024 0.072,0.096 0,0.456 -0.12,0.864 -0.096,0.384 -0.384,0.432 -1.08,0.168 -2.208,0.336 -1.104,0.144 -2.328,0.264 z"
         style="font-style:normal;font-variant:normal;font-weight:normal;font-stretch:normal;font-size:24px;line-height:1.25;font-family:'EB Garamond';-inkscape-font-specification:'EB Garamond'"
         id="path96" />
    </g>
    <path
       style="fill:url(#linearGradient5037);fill-opacity:1;fill-rule:evenodd;stroke:none;stroke-width:2;stroke-linecap:butt;stroke-linejoin:miter;stroke-miterlimit:4;stroke-dasharray:none;stroke-opacity:1"
       d="m 86.94576,1093.7865 c 15.58354,1.038 16.52109,27.3653 0,29.3606 -34.90967,4.2164 -62.07717,-33.0114 -101.32427,-29.3606 -16.51032,1.5359 -16.37157,27.1362 0,29.3606 34.58462,4.6992 61.68594,-32.0007 101.32427,-29.3606 z"
       id="path5027"
       inkscape:connector-curvature="0"
       sodipodi:nodetypes="sssss"
       inkscape:transform-center-x="-19.500016"
       inkscape:transform-center-y="8.4627917" />
    <g
       aria-label="+"
       transform="scale(-1,1)"
       id="text5029"
       style="font-style:normal;font-weight:normal;font-size:24px;line-height:0%;font-family:sans-serif;text-align:center;letter-spacing:0px;word-spacing:0px;text-anchor:middle;fill:#000000;fill-opacity:1;stroke:none;stroke-width:1px;stroke-linecap:butt;stroke-linejoin:miter;stroke-opacity:1">
      <path
         d="m -63.562467,1114.4287 q -0.096,0 -0.192,-0.12 -0.096,-0.096 -0.096,-0.216 v -5.064 q 0,-0.12 -0.096,-0.12 h -4.848 q -0.12,0 -0.24,-0.096 -0.096,-0.096 -0.096,-0.192 0,-0.12 0.048,-0.336 0.072,-0.216 0.192,-0.384 0.12,-0.192 0.336,-0.192 h 4.536 q 0.12,0 0.144,-0.048 0.024,-0.048 0.024,-0.144 v -4.104 q 0,-0.264 0.24,-0.432 0.24,-0.168 0.504,-0.24 0.288,-0.072 0.36,-0.072 0.12,0 0.216,0.096 0.12,0.096 0.12,0.216 v 4.584 q 0,0.144 0.048,0.144 h 4.92 q 0.12,0 0.216,0.072 0.096,0.048 0.096,0.168 0,0.312 -0.216,0.648 -0.192,0.312 -0.528,0.312 h -4.44 q -0.096,0 -0.096,0.096 v 4.848 q 0,0.24 -0.24,0.384 -0.24,0.12 -0.528,0.144 -0.264,0.048 -0.384,0.048 z"
         style="font-style:normal;font-variant:normal;font-weight:normal;font-stretch:normal;font-size:24px;line-height:1.25;font-family:'EB Garamond';-inkscape-font-specification:'EB Garamond'"
         id="path93" />
    </g>
    <g
       aria-label="-"
       transform="scale(-1.440381,0.69426076)"
       id="text5033"
       style="font-style:normal;font-weight:normal;font-size:24px;line-height:0%;font-family:sans-serif;text-align:center;letter-spacing:0px;word-spacing:0px;text-anchor:middle;fill:#000000;fill-opacity:1;stroke:none;stroke-width:1px;stroke-linecap:butt;stroke-linejoin:miter;stroke-opacity:1">
      <path
         d="m -10.147603,1597.7525 q -0.144,0 -0.144,-0.144 0,-0.408 0.096,-0.84 0.12,-0.432 0.2880003,-0.456 1.152,-0.168 2.304,-0.312 1.152,-0.168 2.304,-0.288 0.072,0 0.12,0.048 0.072,0.024 0.072,0.096 0,0.456 -0.12,0.864 -0.096,0.384 -0.384,0.432 -1.08,0.168 -2.208,0.336 -1.104,0.144 -2.3280003,0.264 z"
         style="font-style:normal;font-variant:normal;font-weight:normal;font-stretch:normal;font-size:24px;line-height:1.25;font-family:'EB Garamond';-inkscape-font-specification:'EB Garamond'"
         id="path90" />
    </g>
    <g
       aria-label="+"
       id="text5121"
       style="font-style:normal;font-weight:normal;font-size:24px;line-height:0%;font-family:sans-serif;text-align:center;letter-spacing:0px;word-spacing:0px;text-anchor:middle;fill:#000000;fill-opacity:1;stroke:none;stroke-width:1px;stroke-linecap:butt;stroke-linejoin:miter;stroke-opacity:1">
      <path
         d="m 198.58901,1114.4287 q -0.096,0 -0.192,-0.12 -0.096,-0.096 -0.096,-0.216 v -5.064 q 0,-0.12 -0.096,-0.12 h -4.848 q -0.12,0 -0.24,-0.096 -0.096,-0.096 -0.096,-0.192 0,-0.12 0.048,-0.336 0.072,-0.216 0.192,-0.384 0.12,-0.192 0.336,-0.192 h 4.536 q 0.12,0 0.144,-0.048 0.024,-0.048 0.024,-0.144 v -4.104 q 0,-0.264 0.24,-0.432 0.24,-0.168 0.504,-0.24 0.288,-0.072 0.36,-0.072 0.12,0 0.216,0.096 0.12,0.096 0.12,0.216 v 4.584 q 0,0.144 0.048,0.144 h 4.92 q 0.12,0 0.216,0.072 0.096,0.048 0.096,0.168 0,0.312 -0.216,0.648 -0.192,0.312 -0.528,0.312 h -4.44 q -0.096,0 -0.096,0.096 v 4.848 q 0,0.24 -0.24,0.384 -0.24,0.12 -0.528,0.144 -0.264,0.048 -0.384,0.048 z"
         style="font-style:normal;font-variant:normal;font-weight:normal;font-stretch:normal;font-size:24px;line-height:1.25;font-family:'EB Garamond';-inkscape-font-specification:'EB Garamond'"
         id="path87" />
    </g>
    <g
       aria-label="+"
       id="text5125"
       style="font-style:normal;font-weight:normal;font-size:24px;line-height:0%;font-family:sans-serif;text-align:center;letter-spacing:0px;word-spacing:0px;text-anchor:middle;fill:#000000;fill-opacity:1;stroke:none;stroke-width:1px;stroke-linecap:butt;stroke-linejoin:miter;stroke-opacity:1">
      <path
         d="m 110.58901,1114.4287 q -0.096,0 -0.192,-0.12 -0.096,-0.096 -0.096,-0.216 v -5.064 q 0,-0.12 -0.096,-0.12 h -4.848 q -0.12,0 -0.24,-0.096 -0.096,-0.096 -0.096,-0.192 0,-0.12 0.048,-0.336 0.072,-0.216 0.192,-0.384 0.12,-0.192 0.336,-0.192 h 4.536 q 0.12,0 0.144,-0.048 0.024,-0.048 0.024,-0.144 v -4.104 q 0,-0.264 0.24,-0.432 0.24,-0.168 0.504,-0.24 0.288,-0.072 0.36,-0.072 0.12,0 0.216,0.096 0.12,0.096 0.12,0.216 v 4.584 q 0,0.144 0.048,0.144 h 4.92 q 0.12,0 0.216,0.072 0.096,0.048 0.096,0.168 0,0.312 -0.216,0.648 -0.192,0.312 -0.528,0.312 h -4.44 q -0.096,0 -0.096,0.096 v 4.848 q 0,0.24 -0.24,0.384 -0.24,0.12 -0.528,0.144 -0.264,0.048 -0.384,0.048 z"
         style="font-style:normal;font-variant:normal;font-weight:normal;font-stretch:normal;font-size:24px;line-height:1.25;font-family:'EB Garamond';-inkscape-font-specification:'EB Garamond'"
         id="path84" />
    </g>
    <g
       aria-label="z"
       id="text5161"
       style="font-style:normal;font-weight:normal;font-size:16px;line-height:0%;font-family:sans-serif;text-align:center;letter-spacing:0px;word-spacing:0px;text-anchor:middle;fill:#000000;fill-opacity:1;stroke:none;stroke-width:1px;stroke-linecap:butt;stroke-linejoin:miter;stroke-opacity:1">
      <path
         d="m 361.31314,1112.1647 q -0.4,0 -0.736,-0.256 -0.336,-0.256 -0.64,-0.544 -0.24,-0.224 -0.448,-0.4 -0.192,-0.176 -0.352,-0.176 -0.48,0 -0.752,0.288 -0.256,0.272 -0.256,0.64 0,0.16 -0.096,0.192 -0.08,0.032 -0.144,0.032 -0.048,0 -0.128,-0.128 -0.08,-0.128 -0.096,-0.288 -0.016,-0.176 0.064,-0.4 0.096,-0.24 0.32,-0.448 l 4.608,-4.464 0.368,-0.128 q -0.16,0.224 -0.288,0.336 -0.128,0.096 -0.336,0.096 -0.24,0 -0.496,-0.096 -0.24,-0.112 -0.512,-0.24 -0.304,-0.16 -0.64,-0.288 -0.336,-0.128 -0.72,-0.128 -0.288,0 -0.528,0.24 -0.24,0.224 -0.24,0.464 0,0.112 0.032,0.272 0.032,0.16 0.128,0.304 0.096,0.16 0,0.288 -0.112,0.112 -0.352,0.24 -0.224,0.112 -0.304,0.112 -0.08,0 -0.208,-0.144 -0.128,-0.144 -0.128,-0.4 0,-0.432 0.208,-0.736 0.208,-0.32 0.592,-0.672 0.192,-0.176 0.48,-0.336 0.288,-0.176 0.576,-0.288 0.288,-0.112 0.464,-0.112 0.272,0 0.528,0.08 0.272,0.08 0.528,0.176 0.288,0.112 0.544,0.208 0.256,0.096 0.464,0.096 0.24,0 0.384,-0.08 0.16,-0.08 0.336,-0.256 0.08,-0.08 0.224,-0.176 0.144,-0.112 0.256,-0.112 0.048,0 0.096,0.064 0.048,0.048 0.048,0.128 0,0.112 -0.144,0.352 -0.144,0.224 -0.368,0.448 l -4.56,4.496 -0.24,-0.112 q 0.192,-0.176 0.32,-0.208 0.144,-0.048 0.336,-0.048 0.368,0 0.672,0.208 0.304,0.208 0.608,0.464 0.272,0.224 0.528,0.416 0.272,0.192 0.544,0.192 0.368,0 0.528,-0.224 0.16,-0.24 0.208,-0.592 0.048,-0.368 0.048,-0.72 0,-0.288 0.048,-0.368 0.048,-0.096 0.192,-0.096 0.176,0 0.352,0.224 0.176,0.208 0.176,0.592 0,0.336 -0.24,0.688 -0.24,0.352 -0.592,0.656 -0.352,0.304 -0.704,0.48 -0.336,0.192 -0.56,0.192 z"
         style="font-style:italic;font-variant:normal;font-weight:normal;font-stretch:normal;font-size:16px;line-height:1.25;font-family:'EB Garamond';-inkscape-font-specification:'EB Garamond Italic'"
         id="path81" />
    </g>
    <g
       aria-label="Cl"
       id="text5171"
       style="font-style:normal;font-weight:normal;font-size:16px;line-height:0%;font-family:sans-serif;text-align:center;letter-spacing:0px;word-spacing:0px;text-anchor:middle;fill:#000000;fill-opacity:1;stroke:none;stroke-width:1px;stroke-linecap:butt;stroke-linejoin:miter;stroke-opacity:1">
      <path
         d="m 34.827643,1142.7228 q -1.12,0 -2.16,-0.384 -1.04,-0.384 -1.856,-1.088 -0.816,-0.72 -1.296,-1.712 -0.464,-1.008 -0.464,-2.224 0,-1.168 0.496,-2.16 0.496,-0.992 1.36,-1.728 0.864,-0.736 1.968,-1.136 1.12,-0.416 2.352,-0.416 0.624,0 1.056,0.048 0.432,0.048 0.832,0.144 0.416,0.08 0.96,0.224 0.24,0.064 0.336,0.192 0.112,0.128 0.128,0.352 0.032,0.368 0.08,0.8 0.048,0.416 0.064,1.04 0.016,0.112 -0.112,0.192 -0.112,0.064 -0.256,0.032 -0.128,-0.032 -0.176,-0.208 -0.16,-0.608 -0.368,-1.04 -0.208,-0.448 -0.624,-0.736 -0.4,-0.272 -0.976,-0.4 -0.56,-0.144 -1.216,-0.144 -0.928,0 -1.728,0.384 -0.784,0.368 -1.36,1.024 -0.56,0.64 -0.88,1.456 -0.32,0.816 -0.32,1.696 0,0.976 0.304,1.92 0.32,0.944 0.896,1.712 0.592,0.752 1.392,1.216 0.816,0.448 1.808,0.448 1.152,0 1.904,-0.528 0.752,-0.528 1.28,-1.472 0.112,-0.208 0.32,-0.208 0.224,0 0.224,0.256 0,0.128 -0.064,0.416 -0.064,0.272 -0.176,0.592 -0.096,0.304 -0.192,0.544 -0.112,0.224 -0.192,0.288 -0.064,0.064 -0.32,0.144 -0.592,0.24 -1.424,0.352 -0.816,0.112 -1.6,0.112 z"
         style="font-style:normal;font-variant:normal;font-weight:normal;font-stretch:normal;font-size:16px;line-height:1.25;font-family:'EB Garamond';-inkscape-font-specification:'EB Garamond'"
         id="path76" />
      <path
         d="m 40.314643,1142.5308 q -0.08,0 -0.208,-0.032 -0.112,-0.016 -0.112,-0.112 0,-0.128 0.112,-0.176 0.128,-0.064 0.256,-0.112 0.24,-0.08 0.464,-0.176 0.224,-0.112 0.224,-0.432 v -8.064 q 0,-0.464 -0.176,-0.768 -0.16,-0.32 -0.56,-0.4 -0.128,-0.032 -0.128,-0.208 0,-0.16 0.112,-0.192 0.416,-0.096 0.72,-0.192 0.304,-0.112 0.56,-0.224 0.272,-0.112 0.528,-0.208 0.064,-0.032 0.096,-0.032 0.032,0 0.048,0.048 0.032,0.032 0.032,0.064 0,0.144 -0.064,0.624 -0.048,0.464 -0.048,1.552 v 8 q 0,0.32 0.224,0.432 0.224,0.096 0.464,0.176 0.128,0.048 0.24,0.112 0.128,0.048 0.128,0.176 0,0.096 -0.128,0.112 -0.112,0.032 -0.192,0.032 -0.304,0 -0.496,-0.032 -0.176,-0.016 -0.352,-0.032 -0.16,-0.016 -0.448,-0.016 -0.272,0 -0.448,0.016 -0.176,0.016 -0.352,0.032 -0.176,0.032 -0.496,0.032 z"
         style="font-style:normal;font-variant:normal;font-weight:normal;font-stretch:normal;font-size:16px;line-height:1.25;font-family:'EB Garamond';-inkscape-font-specification:'EB Garamond'"
         id="path78" />
    </g>
    <g
       aria-label="Cl"
       id="text5179"
       style="font-style:normal;font-weight:normal;font-size:16px;line-height:0%;font-family:sans-serif;text-align:center;letter-spacing:0px;word-spacing:0px;text-anchor:middle;fill:#000000;fill-opacity:1;stroke:none;stroke-width:1px;stroke-linecap:butt;stroke-linejoin:miter;stroke-opacity:1">
      <path
         d="m 268.52643,1142.7228 q -1.12,0 -2.16,-0.384 -1.04,-0.384 -1.856,-1.088 -0.816,-0.72 -1.296,-1.712 -0.464,-1.008 -0.464,-2.224 0,-1.168 0.496,-2.16 0.496,-0.992 1.36,-1.728 0.864,-0.736 1.968,-1.136 1.12,-0.416 2.352,-0.416 0.624,0 1.056,0.048 0.432,0.048 0.832,0.144 0.416,0.08 0.96,0.224 0.24,0.064 0.336,0.192 0.112,0.128 0.128,0.352 0.032,0.368 0.08,0.8 0.048,0.416 0.064,1.04 0.016,0.112 -0.112,0.192 -0.112,0.064 -0.256,0.032 -0.128,-0.032 -0.176,-0.208 -0.16,-0.608 -0.368,-1.04 -0.208,-0.448 -0.624,-0.736 -0.4,-0.272 -0.976,-0.4 -0.56,-0.144 -1.216,-0.144 -0.928,0 -1.728,0.384 -0.784,0.368 -1.36,1.024 -0.56,0.64 -0.88,1.456 -0.32,0.816 -0.32,1.696 0,0.976 0.304,1.92 0.32,0.944 0.896,1.712 0.592,0.752 1.392,1.216 0.816,0.448 1.808,0.448 1.152,0 1.904,-0.528 0.752,-0.528 1.28,-1.472 0.112,-0.208 0.32,-0.208 0.224,0 0.224,0.256 0,0.128 -0.064,0.416 -0.064,0.272 -0.176,0.592 -0.096,0.304 -0.192,0.544 -0.112,0.224 -0.192,0.288 -0.064,0.064 -0.32,0.144 -0.592,0.24 -1.424,0.352 -0.816,0.112 -1.6,0.112 z"
         style="font-style:normal;font-variant:normal;font-weight:normal;font-stretch:normal;font-size:16px;line-height:1.25;font-family:'EB Garamond';-inkscape-font-specification:'EB Garamond'"
         id="path71" />
      <path
         d="m 274.01343,1142.5308 q -0.08,0 -0.208,-0.032 -0.112,-0.016 -0.112,-0.112 0,-0.128 0.112,-0.176 0.128,-0.064 0.256,-0.112 0.24,-0.08 0.464,-0.176 0.224,-0.112 0.224,-0.432 v -8.064 q 0,-0.464 -0.176,-0.768 -0.16,-0.32 -0.56,-0.4 -0.128,-0.032 -0.128,-0.208 0,-0.16 0.112,-0.192 0.416,-0.096 0.72,-0.192 0.304,-0.112 0.56,-0.224 0.272,-0.112 0.528,-0.208 0.064,-0.032 0.096,-0.032 0.032,0 0.048,0.048 0.032,0.032 0.032,0.064 0,0.144 -0.064,0.624 -0.048,0.464 -0.048,1.552 v 8 q 0,0.32 0.224,0.432 0.224,0.096 0.464,0.176 0.128,0.048 0.24,0.112 0.128,0.048 0.128,0.176 0,0.096 -0.128,0.112 -0.112,0.032 -0.192,0.032 -0.304,0 -0.496,-0.032 -0.176,-0.016 -0.352,-0.032 -0.16,-0.016 -0.448,-0.016 -0.272,0 -0.448,0.016 -0.176,0.016 -0.352,0.032 -0.176,0.032 -0.496,0.032 z"
         style="font-style:normal;font-variant:normal;font-weight:normal;font-stretch:normal;font-size:16px;line-height:1.25;font-family:'EB Garamond';-inkscape-font-specification:'EB Garamond'"
         id="path73" />
    </g>
    <g
       aria-label="Be"
       id="text5187"
       style="font-style:normal;font-weight:normal;font-size:16px;line-height:0%;font-family:sans-serif;text-align:center;letter-spacing:0px;word-spacing:0px;text-anchor:middle;fill:#000000;fill-opacity:1;stroke:none;stroke-width:1px;stroke-linecap:butt;stroke-linejoin:miter;stroke-opacity:1">
      <path
         d="m 145.98142,1142.1788 q -0.208,0 -0.336,-0.048 -0.128,-0.032 -0.128,-0.128 0,-0.192 0.528,-0.288 0.608,-0.112 0.928,-0.368 0.32,-0.256 0.32,-0.832 v -7.2 q 0,-0.576 -0.24,-0.848 -0.24,-0.272 -0.832,-0.32 -0.272,-0.032 -0.4,-0.112 -0.128,-0.096 -0.128,-0.208 0,-0.096 0.128,-0.128 0.128,-0.048 0.336,-0.048 0.432,0 0.672,0 0.24,0 0.448,0.016 0.224,0 0.544,0 0.304,0 0.528,-0.016 0.224,-0.032 0.496,-0.048 0.288,-0.016 0.752,-0.016 1.872,0 2.784,0.544 0.928,0.528 0.928,1.84 0,0.544 -0.192,0.96 -0.176,0.4 -0.352,0.576 -0.256,0.256 -0.464,0.4 -0.208,0.128 -0.608,0.288 -0.064,0.016 -0.064,0.08 0,0.048 0.064,0.08 0.368,0.112 0.752,0.288 0.4,0.176 0.736,0.464 0.352,0.272 0.56,0.736 0.224,0.448 0.224,1.152 0,0.88 -0.288,1.392 -0.272,0.512 -0.656,0.784 -0.384,0.272 -0.72,0.448 -0.496,0.256 -1.152,0.4 -0.656,0.144 -1.568,0.144 -0.208,0 -0.624,-0.032 -0.416,-0.032 -0.896,-0.032 -0.416,0 -0.704,0.016 -0.288,0.016 -0.608,0.032 -0.304,0.032 -0.768,0.032 z m 3.824,-0.672 q 0.704,0 1.312,-0.32 0.608,-0.32 0.976,-0.864 0.368,-0.56 0.368,-1.248 0,-0.624 -0.208,-1.024 -0.208,-0.416 -0.48,-0.672 -0.272,-0.256 -0.496,-0.368 -0.208,-0.128 -0.656,-0.256 -0.448,-0.144 -1.168,-0.144 -0.512,0 -0.72,0.208 -0.192,0.208 -0.192,0.368 v 3.184 q 0,0.672 0.32,0.912 0.336,0.224 0.944,0.224 z m -0.528,-5.344 q 0.432,0 0.928,-0.096 0.512,-0.096 1.008,-0.368 0.176,-0.096 0.448,-0.464 0.272,-0.368 0.272,-1.056 0,-0.464 -0.176,-0.944 -0.176,-0.496 -0.672,-0.832 -0.496,-0.336 -1.488,-0.336 -0.656,0 -0.864,0.176 -0.192,0.176 -0.192,0.544 v 2.784 q 0,0.416 0.272,0.512 0.272,0.08 0.464,0.08 z"
         style="font-style:normal;font-variant:normal;font-weight:normal;font-stretch:normal;font-size:16px;line-height:1.25;font-family:'EB Garamond';-inkscape-font-specification:'EB Garamond'"
         id="path66" />
      <path
         d="m 158.02767,1142.3388 q -0.88,0 -1.536,-0.432 -0.656,-0.432 -1.024,-1.216 -0.368,-0.8 -0.368,-1.84 0,-0.928 0.416,-1.68 0.432,-0.768 1.136,-1.232 0.704,-0.464 1.536,-0.464 0.64,0 1.136,0.256 0.496,0.256 0.768,0.72 0.288,0.448 0.288,1.04 0,0.496 -0.48,0.496 h -3.376 q -0.224,0 -0.32,0.128 -0.08,0.112 -0.08,0.464 0,0.768 0.336,1.408 0.336,0.624 0.896,1.008 0.56,0.368 1.232,0.368 0.48,0 0.864,-0.176 0.4,-0.192 0.704,-0.544 0.064,-0.08 0.096,-0.096 0.032,-0.032 0.08,-0.032 0.128,0 0.128,0.16 0,0.304 -0.288,0.672 -0.24,0.304 -0.576,0.528 -0.336,0.224 -0.736,0.336 -0.4,0.128 -0.832,0.128 z m -1.472,-4.848 h 1.456 q 0.384,0 0.656,-0.016 0.272,-0.016 0.528,-0.064 0.08,-0.016 0.096,-0.096 0.032,-0.096 0.032,-0.256 0,-0.464 -0.416,-0.784 -0.4,-0.336 -0.96,-0.336 -0.368,0 -0.736,0.224 -0.368,0.208 -0.608,0.528 -0.24,0.32 -0.24,0.64 0,0.16 0.192,0.16 z"
         style="font-style:normal;font-variant:normal;font-weight:normal;font-stretch:normal;font-size:16px;line-height:1.25;font-family:'EB Garamond';-inkscape-font-specification:'EB Garamond'"
         id="path68" />
    </g>
  </g>
</svg>
