<?xml version="1.0" encoding="UTF-8" standalone="no"?>
<svg
   xmlns:dc="http://purl.org/dc/elements/1.1/"
   xmlns:cc="http://creativecommons.org/ns#"
   xmlns:rdf="http://www.w3.org/1999/02/22-rdf-syntax-ns#"
   xmlns:svg="http://www.w3.org/2000/svg"
   xmlns="http://www.w3.org/2000/svg"
   xmlns:sodipodi="http://sodipodi.sourceforge.net/DTD/sodipodi-0.dtd"
   xmlns:inkscape="http://www.inkscape.org/namespaces/inkscape"
   viewBox="0 0 308.79235 118.40918"
   version="1.1"
   id="svg185"
   sodipodi:docname="hibridacion-acetileno.svg"
   width="308.79236"
   height="118.40918"
   inkscape:version="1.0.1 (c497b03c, 2020-09-10)">
  <metadata
     id="metadata191">
    <rdf:RDF>
      <cc:Work
         rdf:about="">
        <dc:format>image/svg+xml</dc:format>
        <dc:type
           rdf:resource="http://purl.org/dc/dcmitype/StillImage" />
        <dc:title />
      </cc:Work>
    </rdf:RDF>
  </metadata>
  <defs
     id="defs189" />
  <sodipodi:namedview
     pagecolor="#ffffff"
     bordercolor="#666666"
     borderopacity="1"
     objecttolerance="10"
     gridtolerance="10"
     guidetolerance="10"
     inkscape:pageopacity="0"
     inkscape:pageshadow="2"
     inkscape:window-width="1440"
     inkscape:window-height="769"
     id="namedview187"
     showgrid="false"
     fit-margin-top="0"
     fit-margin-left="0"
     fit-margin-right="0"
     fit-margin-bottom="0"
     inkscape:zoom="2.4999195"
     inkscape:cx="192.76507"
     inkscape:cy="61.530915"
     inkscape:window-x="0"
     inkscape:window-y="25"
     inkscape:window-maximized="0"
     inkscape:current-layer="svg185"
     inkscape:document-rotation="0" />
  <style
     id="style10">.st0,.st1,.st3{stroke-miterlimit:10}.st0{fill:none;stroke:#333}.st1,.st3{stroke-linecap:round;stroke-linejoin:round}.st1{fill:#fff;stroke:#dd5f52;stroke-width:.75}.st3{opacity:.2;stroke:#000;stroke-width:.25}.st4{fill:#efaba2}.st8,.st9{fill:none;stroke:#333;stroke-miterlimit:10;stroke-dasharray:5.6385,3.759}.st9{stroke-dasharray:5.6528,3.7685}.st10{fill:#333}.st11{fill:none;stroke:#333;stroke-linejoin:round;stroke-miterlimit:10}</style>
  <g
     id="Art"
     transform="translate(-26.441986,1.3209151)">
    <path
       id="Line_1_"
       class="st0"
       d="m 145.85,60.59 h 56.88" />
    <g
       id="Structure_02">
      <g
         id="Orbitals_1_">
        <path
           id="Orbital_Bottom_Right_1_"
           class="st1"
           d="m 202.8,60.52 c 3.25,0.17 8.22,15.21 8.15,19.73 -0.07,4.52 -3.83,8.16 -8.34,8.09 -4.52,-0.07 -8.16,-3.83 -8.09,-8.35 0.06,-4.51 4.95,-19.68 8.28,-19.47 z" />
        <g
           id="Orbital_Top_Left">
          <radialGradient
             id="fill_1_"
             cx="-904.87"
             cy="1621.1851"
             r="14.873"
             gradientTransform="matrix(0.9935,0.1126,-0.1126,0.9936,1284.214,-1461.194)"
             gradientUnits="userSpaceOnUse">
            <stop
               offset=".005"
               stop-color="#f29888"
               id="stop14" />
            <stop
               offset=".351"
               stop-color="#f19686"
               id="stop16" />
            <stop
               offset=".548"
               stop-color="#ee8d7e"
               id="stop18" />
            <stop
               offset=".708"
               stop-color="#e87f72"
               id="stop20" />
            <stop
               offset=".848"
               stop-color="#df6c60"
               id="stop22" />
            <stop
               offset=".974"
               stop-color="#d55249"
               id="stop24" />
            <stop
               offset="1"
               stop-color="#d24c43"
               id="stop26" />
          </radialGradient>
          <path
             id="fill_13_"
             d="m 202.64,60.52 c -3.25,-0.17 -8.2,-15.21 -8.13,-19.73 0.07,-4.52 3.83,-8.16 8.34,-8.09 4.52,0.07 8.16,3.83 8.09,8.35 -0.07,4.51 -4.98,19.68 -8.3,19.47 z"
             fill="url(#fill_1_)"
             stroke="#dd5f52"
             stroke-width="0.25"
             stroke-linecap="round"
             stroke-linejoin="round"
             stroke-miterlimit="10"
             style="fill:url(#fill_1_)" />
          <path
             id="Shadow_10_"
             class="st3"
             d="m 203.27,57.21 c -3.25,-0.17 -8.2,-14.43 -8.13,-18.95 0,-0.2 0.02,-0.39 0.04,-0.58 -0.41,0.96 -0.65,2 -0.67,3.11 -0.07,4.52 4.88,19.56 8.13,19.73 2.79,0.17 6.69,-10.47 7.92,-16.57 -1.63,5.87 -4.88,13.41 -7.29,13.26 z" />
          <path
             id="Shine_11_"
             class="st4"
             d="m 205.43,38.64 c -0.39,0.89 0.01,1.93 0.9,2.32 0.89,0.39 1.93,-0.01 2.33,-0.91 0.39,-0.89 -0.01,-1.93 -0.91,-2.32 -0.89,-0.39 -1.93,0.01 -2.32,0.91 z" />
        </g>
        <path
           id="Orbital_Bottom_Left_1_"
           class="st1"
           d="m 202.77,60.57 c 2.03,2.55 -5.93,16.24 -9.36,19.19 -3.43,2.95 -8.64,2.55 -11.59,-0.88 -2.95,-3.43 -2.55,-8.64 0.88,-11.59 3.43,-2.94 18.02,-9.34 20.07,-6.72 z" />
        <g
           id="Orbital_Top_Right_1_">
          <radialGradient
             id="fill_2_"
             cx="-799.133"
             cy="1893.847"
             r="14.873"
             gradientTransform="matrix(0.575,0.818,-0.8181,0.575,2221.065,-383.387)"
             gradientUnits="userSpaceOnUse">
            <stop
               offset=".005"
               stop-color="#f29888"
               id="stop34" />
            <stop
               offset=".351"
               stop-color="#f19686"
               id="stop36" />
            <stop
               offset=".548"
               stop-color="#ee8d7e"
               id="stop38" />
            <stop
               offset=".708"
               stop-color="#e87f72"
               id="stop40" />
            <stop
               offset=".848"
               stop-color="#df6c60"
               id="stop42" />
            <stop
               offset=".974"
               stop-color="#d55249"
               id="stop44" />
            <stop
               offset="1"
               stop-color="#d24c43"
               id="stop46" />
          </radialGradient>
          <path
             id="fill_17_"
             d="m 202.67,60.45 c -2.03,-2.55 5.94,-16.23 9.37,-19.18 3.43,-2.95 8.64,-2.55 11.59,0.88 2.95,3.43 2.55,8.64 -0.88,11.59 -3.43,2.95 -18.03,9.34 -20.08,6.71 z"
             fill="url(#fill_2_)"
             stroke="#dd5f52"
             stroke-width="0.25"
             stroke-linecap="round"
             stroke-linejoin="round"
             stroke-miterlimit="10"
             style="fill:url(#fill_2_)" />
          <path
             id="Shadow_14_"
             class="st3"
             d="m 205.56,58.73 c -2.03,-2.55 5.36,-15.71 8.79,-18.66 0.15,-0.13 0.3,-0.24 0.46,-0.36 -0.99,0.33 -1.93,0.84 -2.77,1.56 -3.43,2.95 -11.4,16.63 -9.37,19.18 1.72,2.2 12.27,-1.94 17.65,-5.07 -5.47,2.68 -13.27,5.26 -14.76,3.35 z" />
          <path
             id="Shine_15_"
             class="st4"
             d="m 220.89,48.02 c -0.93,0.3 -1.44,1.29 -1.14,2.22 0.3,0.93 1.29,1.44 2.22,1.14 0.93,-0.29 1.44,-1.29 1.14,-2.22 -0.3,-0.93 -1.29,-1.44 -2.22,-1.14 z" />
        </g>
      </g>
    </g>
    <g
       id="Structure_01">
      <g
         id="Orbitals">
        <path
           id="Orbital_Bottom_Right"
           class="st1"
           d="m 145.92,60.01 c 3.25,0.17 8.22,15.21 8.15,19.73 -0.07,4.52 -3.83,8.16 -8.34,8.09 -4.52,-0.07 -8.16,-3.83 -8.09,-8.35 0.06,-4.51 4.96,-19.67 8.28,-19.47 z" />
        <g
           id="Orbital_Top_Left_1_">
          <radialGradient
             id="fill_3_"
             cx="-961.755"
             cy="1621.5649"
             r="14.873"
             gradientTransform="matrix(0.9935,0.1126,-0.1126,0.9936,1283.895,-1455.672)"
             gradientUnits="userSpaceOnUse">
            <stop
               offset=".005"
               stop-color="#f29888"
               id="stop56" />
            <stop
               offset=".351"
               stop-color="#f19686"
               id="stop58" />
            <stop
               offset=".548"
               stop-color="#ee8d7e"
               id="stop60" />
            <stop
               offset=".708"
               stop-color="#e87f72"
               id="stop62" />
            <stop
               offset=".848"
               stop-color="#df6c60"
               id="stop64" />
            <stop
               offset=".974"
               stop-color="#d55249"
               id="stop66" />
            <stop
               offset="1"
               stop-color="#d24c43"
               id="stop68" />
          </radialGradient>
          <path
             id="fill_21_"
             d="m 145.76,60.01 c -3.25,-0.17 -8.2,-15.21 -8.13,-19.73 0.07,-4.52 3.83,-8.16 8.34,-8.09 4.52,0.07 8.16,3.83 8.09,8.35 -0.06,4.51 -4.97,19.68 -8.3,19.47 z"
             fill="url(#fill_3_)"
             stroke="#dd5f52"
             stroke-width="0.25"
             stroke-linecap="round"
             stroke-linejoin="round"
             stroke-miterlimit="10"
             style="fill:url(#fill_3_)" />
          <path
             id="Shadow_18_"
             class="st3"
             d="m 146.39,56.7 c -3.25,-0.17 -8.2,-14.43 -8.13,-18.95 0,-0.2 0.02,-0.39 0.04,-0.58 -0.41,0.96 -0.65,2 -0.67,3.11 -0.07,4.52 4.88,19.56 8.13,19.73 2.79,0.17 6.69,-10.47 7.92,-16.57 -1.62,5.87 -4.87,13.41 -7.29,13.26 z" />
          <path
             id="Shine_21_"
             class="st4"
             d="m 148.55,38.13 c -0.39,0.89 0.01,1.93 0.9,2.32 0.89,0.39 1.93,-0.01 2.33,-0.91 0.39,-0.89 -0.01,-1.93 -0.91,-2.32 -0.89,-0.39 -1.93,0.02 -2.32,0.91 z" />
        </g>
        <path
           id="Orbital_Bottom_Left"
           class="st1"
           d="m 145.9,60.06 c 2.03,2.55 -5.93,16.24 -9.36,19.19 -3.43,2.95 -8.64,2.55 -11.59,-0.88 -2.95,-3.43 -2.55,-8.64 0.88,-11.59 3.43,-2.94 18.01,-9.34 20.07,-6.72 z" />
        <g
           id="Orbital_Top_Right">
          <radialGradient
             id="fill_4_"
             cx="-836.59302"
             cy="1936.653"
             r="14.873"
             gradientTransform="matrix(0.575,0.818,-0.8181,0.575,2220.748,-377.867)"
             gradientUnits="userSpaceOnUse">
            <stop
               offset=".005"
               stop-color="#f29888"
               id="stop76" />
            <stop
               offset=".351"
               stop-color="#f19686"
               id="stop78" />
            <stop
               offset=".548"
               stop-color="#ee8d7e"
               id="stop80" />
            <stop
               offset=".708"
               stop-color="#e87f72"
               id="stop82" />
            <stop
               offset=".848"
               stop-color="#df6c60"
               id="stop84" />
            <stop
               offset=".974"
               stop-color="#d55249"
               id="stop86" />
            <stop
               offset="1"
               stop-color="#d24c43"
               id="stop88" />
          </radialGradient>
          <path
             id="fill_19_"
             d="m 145.79,59.95 c -2.03,-2.55 5.94,-16.23 9.37,-19.18 3.43,-2.95 8.64,-2.55 11.59,0.88 2.95,3.43 2.55,8.64 -0.88,11.59 -3.42,2.94 -18.03,9.33 -20.08,6.71 z"
             fill="url(#fill_4_)"
             stroke="#dd5f52"
             stroke-width="0.25"
             stroke-linecap="round"
             stroke-linejoin="round"
             stroke-miterlimit="10"
             style="fill:url(#fill_4_)" />
          <path
             id="Shadow_16_"
             class="st3"
             d="m 148.69,58.22 c -2.03,-2.55 5.36,-15.71 8.79,-18.66 0.15,-0.13 0.3,-0.24 0.46,-0.36 -0.99,0.33 -1.93,0.84 -2.77,1.56 -3.43,2.95 -11.4,16.63 -9.37,19.18 1.72,2.2 12.27,-1.94 17.65,-5.07 -5.48,2.69 -13.27,5.26 -14.76,3.35 z" />
          <path
             id="Shine_19_"
             class="st4"
             d="m 164.01,47.51 c -0.93,0.3 -1.44,1.29 -1.14,2.22 0.3,0.93 1.29,1.44 2.22,1.14 0.93,-0.29 1.44,-1.29 1.14,-2.22 -0.3,-0.93 -1.29,-1.44 -2.22,-1.14 z" />
        </g>
      </g>
    </g>
    <g
       id="Dashed_Line_x5F_04">
      <g
         id="g103">
        <path
           class="st0"
           d="m 145.85,79.63 h 3"
           id="path97" />
        <path
           class="st8"
           d="m 152.61,79.63 h 45.11"
           id="path99" />
        <path
           class="st0"
           d="m 199.6,79.63 h 3"
           id="path101" />
      </g>
    </g>
    <g
       id="Dashed_Line_x5F_03">
      <g
         id="g112">
        <path
           class="st0"
           d="m 134.35,70.85 h 3"
           id="path106" />
        <path
           class="st9"
           d="m 141.12,70.85 h 45.22"
           id="path108" />
        <path
           class="st0"
           d="m 188.23,70.85 h 3"
           id="path110" />
      </g>
    </g>
    <g
       id="Dashed_Line_x5F_02">
      <g
         id="g121">
        <path
           class="st0"
           d="m 159.32,48.59 h 3"
           id="path115" />
        <path
           class="st8"
           d="m 166.08,48.59 h 45.11"
           id="path117" />
        <path
           class="st0"
           d="m 213.07,48.59 h 3"
           id="path119" />
      </g>
    </g>
    <g
       id="Dashed_Line_x5F_01">
      <g
         id="g130">
        <path
           class="st0"
           d="m 145.73,39.72 h 3"
           id="path124" />
        <path
           class="st9"
           d="m 152.49,39.72 h 45.23"
           id="path126" />
        <path
           class="st0"
           d="m 199.6,39.72 h 3"
           id="path128" />
      </g>
    </g>
  </g>
  <path
     id="Label_line_4_"
     class="st0"
     d="m 136.34801,72.170915 -10.04,29.880005" />
  <path
     id="Label_line_3_"
     class="st0"
     d="m 149.96801,80.950915 15.06,21.100005" />
  <path
     id="Label_line_2_"
     class="st11"
     d="m 176.65801,36.830915 35.33,-11.01 -19.94,19.13" />
  <path
     id="Label_line_1_"
     class="st11"
     d="m 117.44801,36.830915 -18.599996,-9.36 27.459996,26.83" />
  <path
     id="Label_line"
     class="st0"
     d="m 150.94801,61.910915 v -42.31" />
  <g
     aria-label="orbitales p"
     id="text232"
     style="font-style:normal;font-weight:normal;font-size:24px;line-height:1.25;font-family:sans-serif;fill:#000000;fill-opacity:1;stroke:none">
    <path
       d="m 4.776,33.65801 q -1.344,0 -2.424,-0.624 -1.08,-0.624 -1.72799997,-1.704 Q 2.6226044e-8,30.22601 2.6226044e-8,28.83401 q 0,-1.008 0.384000003773956,-1.968 0.408,-0.96 1.12799997,-1.752 0.72,-0.792 1.68,-1.248 0.96,-0.48 2.064,-0.48 1.392,0 2.496,0.672 1.128,0.672 1.776,1.776 0.672,1.08 0.672,2.376 0,1.392 -0.624,2.64 -0.6,1.248 -1.8,2.04 -1.2,0.768 -3,0.768 z m 0.504,-0.72 q 0.816,0 1.464,-0.312 0.648,-0.312 1.008,-1.008 0.288,-0.552 0.384,-1.344 0.096,-0.792 0.096,-1.488 0,-1.152 -0.432,-2.208 -0.408,-1.08 -1.176,-1.752 -0.744,-0.696 -1.776,-0.696 -0.648,0 -1.176,0.216 -0.504,0.192 -0.936,0.744 -0.48,0.6 -0.624,1.464 -0.144,0.864 -0.144,1.728 0,1.176 0.432,2.256 0.432,1.056 1.176,1.728 0.744,0.672 1.704,0.672 z"
       style="font-style:normal;font-variant:normal;font-weight:normal;font-stretch:normal;font-size:24px;font-family:'EB Garamond';-inkscape-font-specification:'EB Garamond'"
       id="path125" />
    <path
       d="m 12.195375,33.39401 q -0.24,0 -0.36,-0.072 -0.12,-0.048 -0.12,-0.192 0,-0.192 0.144,-0.24 0.144,-0.072 0.408,-0.144 0.456,-0.12 0.672,-0.336 0.24,-0.24 0.24,-0.576 v -5.16 q 0,-0.648 -0.192,-1.128 -0.192,-0.48 -0.792,-0.6 -0.096,-0.024 -0.168,-0.12 -0.072,-0.096 -0.072,-0.192 0,-0.24 0.216,-0.288 0.624,-0.192 1.296,-0.552 0.696,-0.384 1.08,-0.624 0.144,-0.096 0.216,-0.12 0.096,-0.048 0.144,-0.048 0.12,0 0.12,0.168 0,0.072 -0.024,0.36 0,0.288 -0.024,0.672 0,0.384 -0.024,0.768 0,0.048 0.048,0.048 0.384,-0.48 0.84,-0.84 0.48,-0.36 0.96,-0.576 0.504,-0.216 0.96,-0.216 0.504,0 0.816,0.216 0.336,0.216 0.336,0.552 0,0.24 -0.144,0.528 -0.12,0.288 -0.336,0.504 -0.216,0.216 -0.456,0.216 -0.144,0 -0.312,-0.048 -0.168,-0.072 -0.36,-0.168 -0.192,-0.072 -0.384,-0.144 -0.192,-0.072 -0.384,-0.072 -0.576,0 -1.128,0.408 -0.528,0.408 -0.528,1.608 v 4.848 q 0,0.312 0.336,0.528 0.336,0.192 0.936,0.384 0.264,0.072 0.408,0.144 0.144,0.072 0.144,0.24 0,0.264 -0.48,0.264 -0.72,0 -1.104,-0.072 -0.36,-0.048 -0.984,-0.048 -0.408,0 -0.672,0.024 -0.24,0.024 -0.528,0.048 -0.264,0.048 -0.744,0.048 z"
       style="font-style:normal;font-variant:normal;font-weight:normal;font-stretch:normal;font-size:24px;font-family:'EB Garamond';-inkscape-font-specification:'EB Garamond'"
       id="path127" />
    <path
       d="m 25.251,33.65801 q -0.528,0 -1.056,-0.096 -0.528,-0.096 -1.008,-0.216 -0.528,-0.144 -0.936,-0.264 -0.384,-0.12 -0.504,-0.12 -0.144,0 -0.288,0.096 -0.12,0.096 -0.24,0.216 -0.12,0.12 -0.216,0.12 -0.096,0 -0.216,-0.072 -0.12,-0.096 -0.12,-0.216 0,-0.216 0.072,-0.744 0.096,-0.528 0.096,-0.984 v -11.64 q 0,-0.624 -0.312,-1.08 -0.312,-0.456 -0.792,-0.672 -0.096,-0.048 -0.216,-0.12 -0.096,-0.096 -0.096,-0.24 0,-0.12 0.096,-0.168 0.096,-0.048 0.192,-0.072 0.312,-0.072 0.84,-0.264 0.552,-0.192 1.032,-0.384 0.48,-0.192 0.648,-0.264 0.144,-0.072 0.216,-0.072 0.048,0 0.096,0.048 0.048,0.048 0.048,0.12 0,0.096 -0.048,0.816 -0.024,0.696 -0.024,1.704 v 4.92 q 0,0.456 0.048,0.624 0.048,0.144 0.168,0.168 0.744,-0.624 1.728,-1.008 0.984,-0.408 1.776,-0.408 1.224,0 2.184,0.624 0.984,0.624 1.56,1.704 0.576,1.056 0.576,2.4 0,1.632 -0.672,2.904 -0.672,1.248 -1.872,1.944 -1.176,0.696 -2.76,0.696 z m 0.552,-0.744 q 0.912,0 1.56,-0.552 0.672,-0.576 1.032,-1.536 0.36,-0.984 0.36,-2.184 0,-0.936 -0.36,-1.92 -0.336,-0.984 -1.08,-1.656 -0.72,-0.672 -1.872,-0.672 -0.96,0 -1.68,0.312 -0.72,0.312 -1.248,0.792 v 4.656 q 0,0.84 0.456,1.464 0.48,0.624 1.224,0.96 0.768,0.336 1.608,0.336 z"
       style="font-style:normal;font-variant:normal;font-weight:normal;font-stretch:normal;font-size:24px;font-family:'EB Garamond';-inkscape-font-specification:'EB Garamond'"
       id="path129" />
    <path
       d="m 32.466,33.39401 q -0.216,0 -0.36,-0.072 -0.12,-0.048 -0.12,-0.192 0,-0.192 0.168,-0.264 0.192,-0.072 0.384,-0.12 0.504,-0.12 0.768,-0.288 0.264,-0.192 0.264,-0.624 v -5.208 q 0,-0.648 -0.24,-1.152 -0.216,-0.504 -0.84,-0.6 -0.12,-0.024 -0.192,-0.096 -0.048,-0.072 -0.048,-0.216 0,-0.264 0.216,-0.288 0.96,-0.216 1.584,-0.576 0.624,-0.384 0.936,-0.624 0.216,-0.168 0.336,-0.168 0.144,0 0.144,0.12 0,0.192 -0.072,0.768 -0.048,0.552 -0.096,1.248 -0.048,0.672 -0.048,1.224 v 5.568 q 0,0.408 0.264,0.6 0.288,0.192 0.768,0.312 0.192,0.048 0.36,0.12 0.192,0.072 0.192,0.264 0,0.264 -0.48,0.264 -0.456,0 -0.744,-0.048 -0.264,-0.024 -0.528,-0.048 -0.24,-0.024 -0.672,-0.024 -0.408,0 -0.672,0.024 -0.264,0.024 -0.528,0.048 -0.264,0.048 -0.744,0.048 z m 1.92,-12.456 q -0.504,0 -0.864,-0.336 -0.336,-0.36 -0.336,-0.864 0,-0.528 0.336,-0.864 0.36,-0.36 0.864,-0.36 0.528,0 0.864,0.36 0.36,0.336 0.36,0.864 0,0.504 -0.36,0.864 -0.336,0.336 -0.864,0.336 z"
       style="font-style:normal;font-variant:normal;font-weight:normal;font-stretch:normal;font-size:24px;font-family:'EB Garamond';-inkscape-font-specification:'EB Garamond'"
       id="path131" />
    <path
       d="m 41.805375,33.65801 q -1.176,0 -1.848,-0.72 -0.648,-0.72 -0.648,-2.136 v -5.568 q 0,-0.192 -0.144,-0.264 -0.144,-0.096 -0.624,-0.096 h -0.144 q -0.12,0 -0.216,-0.144 -0.072,-0.168 -0.072,-0.336 0,-0.048 0.072,-0.144 0.072,-0.096 0.096,-0.12 0.48,-0.336 0.864,-0.672 0.408,-0.336 0.72,-0.648 0.336,-0.336 0.552,-0.6 0.12,-0.12 0.192,-0.192 0.096,-0.096 0.216,-0.096 0.12,0 0.216,0.048 0.12,0.048 0.096,0.216 l -0.12,1.08 q -0.024,0.264 0.12,0.36 0.144,0.096 0.456,0.096 h 2.736 q 0.096,0 0.168,0.168 0.072,0.144 0.072,0.36 0,0.216 -0.072,0.432 -0.072,0.192 -0.168,0.192 h -2.376 q -0.6,0 -0.792,0.096 -0.168,0.096 -0.168,0.576 v 4.728 q 0,0.96 0.408,1.512 0.408,0.552 1.176,0.552 0.696,0 1.08,-0.096 0.384,-0.12 0.696,-0.336 0.048,-0.048 0.096,-0.048 0.096,0 0.12,0.12 0.048,0.096 0.048,0.216 0,0.12 -0.408,0.48 -0.384,0.36 -1.032,0.672 -0.624,0.312 -1.368,0.312 z"
       style="font-style:normal;font-variant:normal;font-weight:normal;font-stretch:normal;font-size:24px;font-family:'EB Garamond';-inkscape-font-specification:'EB Garamond'"
       id="path133" />
    <path
       d="m 47.62425,33.65801 q -0.432,0 -0.888,-0.336 -0.432,-0.336 -0.744,-0.816 -0.288,-0.48 -0.288,-0.912 0,-0.768 0.408,-1.2 0.408,-0.432 1.296,-0.792 l 2.448,-1.008 q 0.48,-0.192 0.552,-0.336 0.096,-0.144 0.12,-0.624 l 0.048,-1.536 q 0.024,-0.624 -0.36,-1.08 -0.36,-0.456 -1.056,-0.456 -0.36,0 -0.72,0.12 -0.36,0.12 -0.6,0.312 -0.144,0.096 -0.192,0.288 -0.048,0.192 -0.048,0.408 0,0.096 0,0.216 0.024,0.12 0.024,0.216 0,0.12 -0.312,0.336 -0.288,0.192 -0.672,0.36 -0.36,0.144 -0.6,0.144 -0.12,0 -0.192,-0.048 -0.072,-0.072 -0.072,-0.168 0,-0.384 0.24,-0.816 0.264,-0.456 0.72,-0.84 0.552,-0.504 1.2,-0.888 0.648,-0.384 1.272,-0.6 0.624,-0.216 1.104,-0.216 0.864,0 1.416,0.624 0.576,0.6 0.552,1.512 l -0.12,5.76 q -0.024,0.504 0.216,0.816 0.264,0.312 0.648,0.312 0.6,0 0.888,-0.264 0.12,-0.12 0.192,-0.12 0.12,0 0.192,0.072 0.072,0.072 0.072,0.192 0,0.264 -0.264,0.528 -0.384,0.384 -0.84,0.6 -0.432,0.24 -0.816,0.24 -1.104,0 -1.752,-1.248 h -0.072 q -0.792,0.648 -1.512,0.936 -0.72,0.312 -1.488,0.312 z m 1.128,-1.152 q 0.48,0 0.816,-0.144 0.336,-0.168 0.6,-0.432 0.12,-0.12 0.192,-0.312 0.096,-0.216 0.12,-0.672 l 0.048,-1.176 q 0.024,-0.264 -0.024,-0.384 -0.048,-0.12 -0.192,-0.12 -0.048,0 -0.168,0.024 -0.12,0.024 -0.312,0.096 -1.272,0.456 -1.776,0.96 -0.48,0.48 -0.48,0.888 0,0.624 0.36,0.96 0.384,0.312 0.816,0.312 z"
       style="font-style:normal;font-variant:normal;font-weight:normal;font-stretch:normal;font-size:24px;font-family:'EB Garamond';-inkscape-font-specification:'EB Garamond'"
       id="path135" />
    <path
       d="m 55.31475,33.39401 q -0.12,0 -0.312,-0.048 -0.168,-0.024 -0.168,-0.168 0,-0.192 0.168,-0.264 0.192,-0.096 0.384,-0.168 0.36,-0.12 0.696,-0.264 0.336,-0.168 0.336,-0.648 v -12.096 q 0,-0.696 -0.264,-1.152 -0.24,-0.48 -0.84,-0.6 -0.192,-0.048 -0.192,-0.312 0,-0.24 0.168,-0.288 0.624,-0.144 1.08,-0.288 0.456,-0.168 0.84,-0.336 0.408,-0.168 0.792,-0.312 0.096,-0.048 0.144,-0.048 0.048,0 0.072,0.072 0.048,0.048 0.048,0.096 0,0.216 -0.096,0.936 -0.072,0.696 -0.072,2.328 v 12 q 0,0.48 0.336,0.648 0.336,0.144 0.696,0.264 0.192,0.072 0.36,0.168 0.192,0.072 0.192,0.264 0,0.144 -0.192,0.168 -0.168,0.048 -0.288,0.048 -0.456,0 -0.744,-0.048 -0.264,-0.024 -0.528,-0.048 -0.24,-0.024 -0.672,-0.024 -0.408,0 -0.672,0.024 -0.264,0.024 -0.528,0.048 -0.264,0.048 -0.744,0.048 z"
       style="font-style:normal;font-variant:normal;font-weight:normal;font-stretch:normal;font-size:24px;font-family:'EB Garamond';-inkscape-font-specification:'EB Garamond'"
       id="path137" />
    <path
       d="m 65.256375,33.68201 q -1.32,0 -2.304,-0.648 -0.984,-0.648 -1.536,-1.824 -0.552,-1.2 -0.552,-2.76 0,-1.392 0.624,-2.52 0.648,-1.152 1.704,-1.848 1.056,-0.696 2.304,-0.696 0.96,0 1.704,0.384 0.744,0.384 1.152,1.08 0.432,0.672 0.432,1.56 0,0.744 -0.72,0.744 h -5.064 q -0.336,0 -0.48,0.192 -0.12,0.168 -0.12,0.696 0,1.152 0.504,2.112 0.504,0.936 1.344,1.512 0.84,0.552 1.848,0.552 0.72,0 1.296,-0.264 0.6,-0.288 1.056,-0.816 0.096,-0.12 0.144,-0.144 0.048,-0.048 0.12,-0.048 0.192,0 0.192,0.24 0,0.456 -0.432,1.008 -0.36,0.456 -0.864,0.792 -0.504,0.336 -1.104,0.504 -0.6,0.192 -1.248,0.192 z m -2.208,-7.272 h 2.184 q 0.576,0 0.984,-0.024 0.408,-0.024 0.792,-0.096 0.12,-0.024 0.144,-0.144 0.048,-0.144 0.048,-0.384 0,-0.696 -0.624,-1.176 -0.6,-0.504 -1.44,-0.504 -0.552,0 -1.104,0.336 -0.552,0.312 -0.912,0.792 -0.36,0.48 -0.36,0.96 0,0.24 0.288,0.24 z"
       style="font-style:normal;font-variant:normal;font-weight:normal;font-stretch:normal;font-size:24px;font-family:'EB Garamond';-inkscape-font-specification:'EB Garamond'"
       id="path139" />
    <path
       d="m 72.975375,33.65801 q -0.744,0 -1.392,-0.24 -0.648,-0.216 -1.104,-0.624 -0.12,-0.264 -0.192,-0.888 -0.048,-0.624 -0.072,-1.032 0,-0.216 0.312,-0.216 0.096,0 0.168,0.048 0.096,0.024 0.12,0.12 0.312,1.176 0.984,1.68 0.696,0.504 1.392,0.504 0.696,0 1.176,-0.456 0.504,-0.48 0.504,-1.176 0,-0.648 -0.432,-1.104 -0.432,-0.48 -1.512,-1.152 -0.816,-0.504 -1.32,-0.96 -0.504,-0.456 -0.744,-0.936 -0.216,-0.48 -0.216,-1.08 0,-0.768 0.36,-1.392 0.36,-0.624 1.08,-0.984 0.72,-0.384 1.8,-0.384 0.72,0 1.2,0.144 0.48,0.144 0.72,0.312 0.192,0.264 0.312,0.84 0.144,0.552 0.144,1.056 0,0.168 -0.24,0.168 -0.144,0 -0.288,-0.048 -0.12,-0.072 -0.168,-0.168 -0.312,-0.792 -0.792,-1.2 -0.456,-0.432 -1.152,-0.432 -0.6,0 -1.08,0.36 -0.456,0.36 -0.456,1.056 0,0.552 0.336,0.984 0.36,0.432 1.32,0.984 1.392,0.792 2.064,1.488 0.696,0.672 0.696,1.8 0,1.296 -0.984,2.112 -0.984,0.816 -2.544,0.816 z"
       style="font-style:normal;font-variant:normal;font-weight:normal;font-stretch:normal;font-size:24px;font-family:'EB Garamond';-inkscape-font-specification:'EB Garamond'"
       id="path141" />
    <path
       d="m 82.995,40.16201 q -0.12,0 -0.312,-0.048 -0.192,-0.024 -0.192,-0.168 0,-0.192 0.168,-0.288 0.192,-0.072 0.384,-0.144 0.36,-0.12 0.696,-0.288 0.336,-0.144 0.336,-0.624 v -12.168 q 0,-0.192 -0.12,-0.576 -0.096,-0.384 -0.336,-0.744 -0.24,-0.36 -0.648,-0.432 -0.096,-0.024 -0.144,-0.12 -0.048,-0.096 -0.048,-0.192 0,-0.12 0.048,-0.192 0.048,-0.072 0.12,-0.096 0.912,-0.216 1.56,-0.456 0.648,-0.264 1.224,-0.504 0.024,0 0.024,0 0,-0.024 0.024,-0.024 0.048,0 0.096,0.072 0.048,0.072 0.048,0.144 0,0.216 -0.072,0.696 -0.048,0.456 -0.048,0.744 0,0.192 0.024,0.216 0.24,-0.24 0.864,-0.6 0.648,-0.384 1.464,-0.672 0.816,-0.312 1.56,-0.312 1.248,0 2.112,0.672 0.888,0.648 1.344,1.704 0.48,1.032 0.48,2.16 0,1.08 -0.408,2.112 -0.408,1.008 -1.152,1.824 -0.744,0.816 -1.728,1.32 -0.984,0.48 -2.112,0.48 -0.336,0 -0.816,-0.12 -0.456,-0.096 -0.912,-0.264 -0.432,-0.168 -0.672,-0.384 -0.024,0 -0.048,0.288 -0.024,0.264 -0.048,0.552 0,0.312 0,0.384 v 4.488 q 0,0.312 0.24,0.48 0.264,0.192 0.576,0.264 0.336,0.096 0.576,0.168 0.192,0.072 0.36,0.144 0.192,0.096 0.192,0.288 0,0.144 -0.192,0.168 -0.192,0.048 -0.336,0.048 -0.696,0 -1.176,-0.072 -0.456,-0.048 -1.08,-0.048 -0.408,0 -0.672,0.024 -0.24,0.024 -0.504,0.048 -0.264,0.048 -0.744,0.048 z m 5.616,-7.248 q 0.36,0 0.864,-0.216 0.528,-0.216 1.032,-0.696 0.528,-0.48 0.864,-1.296 0.36,-0.816 0.36,-2.016 0,-1.392 -0.36,-2.232 -0.36,-0.84 -0.888,-1.272 -0.528,-0.432 -1.08,-0.576 -0.552,-0.144 -0.936,-0.144 -0.576,0 -1.2,0.24 -0.6,0.24 -1.032,0.552 -0.408,0.288 -0.408,0.456 0,0.528 -0.024,1.08 0,0.528 -0.024,1.032 0,0.504 -0.024,0.912 0,0.384 0,0.6 0,0.96 0.432,1.776 0.456,0.816 1.104,1.32 0.672,0.48 1.32,0.48 z"
       style="font-style:normal;font-variant:normal;font-weight:normal;font-stretch:normal;font-size:24px;font-family:'EB Garamond';-inkscape-font-specification:'EB Garamond'"
       id="path143" />
  </g>
  <g
     aria-label="orbitales p"
     id="text232-3"
     style="font-style:normal;font-weight:normal;font-size:24px;line-height:1.25;font-family:sans-serif;fill:#000000;fill-opacity:1;stroke:none">
    <path
       d="m 219.91736,33.65801 q -1.344,0 -2.424,-0.624 -1.08,-0.624 -1.728,-1.704 -0.624,-1.104 -0.624,-2.496 0,-1.008 0.384,-1.968 0.408,-0.96 1.128,-1.752 0.72,-0.792 1.68,-1.248 0.96,-0.48 2.064,-0.48 1.392,0 2.496,0.672 1.128,0.672 1.776,1.776 0.672,1.08 0.672,2.376 0,1.392 -0.624,2.64 -0.6,1.248 -1.8,2.04 -1.2,0.768 -3,0.768 z m 0.504,-0.72 q 0.816,0 1.464,-0.312 0.648,-0.312 1.008,-1.008 0.288,-0.552 0.384,-1.344 0.096,-0.792 0.096,-1.488 0,-1.152 -0.432,-2.208 -0.408,-1.08 -1.176,-1.752 -0.744,-0.696 -1.776,-0.696 -0.648,0 -1.176,0.216 -0.504,0.192 -0.936,0.744 -0.48,0.6 -0.624,1.464 -0.144,0.864 -0.144,1.728 0,1.176 0.432,2.256 0.432,1.056 1.176,1.728 0.744,0.672 1.704,0.672 z"
       style="font-style:normal;font-variant:normal;font-weight:normal;font-stretch:normal;font-size:24px;font-family:'EB Garamond';-inkscape-font-specification:'EB Garamond'"
       id="path161" />
    <path
       d="m 227.33674,33.39401 q -0.24,0 -0.36,-0.072 -0.12,-0.048 -0.12,-0.192 0,-0.192 0.144,-0.24 0.144,-0.072 0.408,-0.144 0.456,-0.12 0.672,-0.336 0.24,-0.24 0.24,-0.576 v -5.16 q 0,-0.648 -0.192,-1.128 -0.192,-0.48 -0.792,-0.6 -0.096,-0.024 -0.168,-0.12 -0.072,-0.096 -0.072,-0.192 0,-0.24 0.216,-0.288 0.624,-0.192 1.296,-0.552 0.696,-0.384 1.08,-0.624 0.144,-0.096 0.216,-0.12 0.096,-0.048 0.144,-0.048 0.12,0 0.12,0.168 0,0.072 -0.024,0.36 0,0.288 -0.024,0.672 0,0.384 -0.024,0.768 0,0.048 0.048,0.048 0.384,-0.48 0.84,-0.84 0.48,-0.36 0.96,-0.576 0.504,-0.216 0.96,-0.216 0.504,0 0.816,0.216 0.336,0.216 0.336,0.552 0,0.24 -0.144,0.528 -0.12,0.288 -0.336,0.504 -0.216,0.216 -0.456,0.216 -0.144,0 -0.312,-0.048 -0.168,-0.072 -0.36,-0.168 -0.192,-0.072 -0.384,-0.144 -0.192,-0.072 -0.384,-0.072 -0.576,0 -1.128,0.408 -0.528,0.408 -0.528,1.608 v 4.848 q 0,0.312 0.336,0.528 0.336,0.192 0.936,0.384 0.264,0.072 0.408,0.144 0.144,0.072 0.144,0.24 0,0.264 -0.48,0.264 -0.72,0 -1.104,-0.072 -0.36,-0.048 -0.984,-0.048 -0.408,0 -0.672,0.024 -0.24,0.024 -0.528,0.048 -0.264,0.048 -0.744,0.048 z"
       style="font-style:normal;font-variant:normal;font-weight:normal;font-stretch:normal;font-size:24px;font-family:'EB Garamond';-inkscape-font-specification:'EB Garamond'"
       id="path163" />
    <path
       d="m 240.39236,33.65801 q -0.528,0 -1.056,-0.096 -0.528,-0.096 -1.008,-0.216 -0.528,-0.144 -0.936,-0.264 -0.384,-0.12 -0.504,-0.12 -0.144,0 -0.288,0.096 -0.12,0.096 -0.24,0.216 -0.12,0.12 -0.216,0.12 -0.096,0 -0.216,-0.072 -0.12,-0.096 -0.12,-0.216 0,-0.216 0.072,-0.744 0.096,-0.528 0.096,-0.984 v -11.64 q 0,-0.624 -0.312,-1.08 -0.312,-0.456 -0.792,-0.672 -0.096,-0.048 -0.216,-0.12 -0.096,-0.096 -0.096,-0.24 0,-0.12 0.096,-0.168 0.096,-0.048 0.192,-0.072 0.312,-0.072 0.84,-0.264 0.552,-0.192 1.032,-0.384 0.48,-0.192 0.648,-0.264 0.144,-0.072 0.216,-0.072 0.048,0 0.096,0.048 0.048,0.048 0.048,0.12 0,0.096 -0.048,0.816 -0.024,0.696 -0.024,1.704 v 4.92 q 0,0.456 0.048,0.624 0.048,0.144 0.168,0.168 0.744,-0.624 1.728,-1.008 0.984,-0.408 1.776,-0.408 1.224,0 2.184,0.624 0.984,0.624 1.56,1.704 0.576,1.056 0.576,2.4 0,1.632 -0.672,2.904 -0.672,1.248 -1.872,1.944 -1.176,0.696 -2.76,0.696 z m 0.552,-0.744 q 0.912,0 1.56,-0.552 0.672,-0.576 1.032,-1.536 0.36,-0.984 0.36,-2.184 0,-0.936 -0.36,-1.92 -0.336,-0.984 -1.08,-1.656 -0.72,-0.672 -1.872,-0.672 -0.96,0 -1.68,0.312 -0.72,0.312 -1.248,0.792 v 4.656 q 0,0.84 0.456,1.464 0.48,0.624 1.224,0.96 0.768,0.336 1.608,0.336 z"
       style="font-style:normal;font-variant:normal;font-weight:normal;font-stretch:normal;font-size:24px;font-family:'EB Garamond';-inkscape-font-specification:'EB Garamond'"
       id="path165" />
    <path
       d="m 247.60736,33.39401 q -0.216,0 -0.36,-0.072 -0.12,-0.048 -0.12,-0.192 0,-0.192 0.168,-0.264 0.192,-0.072 0.384,-0.12 0.504,-0.12 0.768,-0.288 0.264,-0.192 0.264,-0.624 v -5.208 q 0,-0.648 -0.24,-1.152 -0.216,-0.504 -0.84,-0.6 -0.12,-0.024 -0.192,-0.096 -0.048,-0.072 -0.048,-0.216 0,-0.264 0.216,-0.288 0.96,-0.216 1.584,-0.576 0.624,-0.384 0.936,-0.624 0.216,-0.168 0.336,-0.168 0.144,0 0.144,0.12 0,0.192 -0.072,0.768 -0.048,0.552 -0.096,1.248 -0.048,0.672 -0.048,1.224 v 5.568 q 0,0.408 0.264,0.6 0.288,0.192 0.768,0.312 0.192,0.048 0.36,0.12 0.192,0.072 0.192,0.264 0,0.264 -0.48,0.264 -0.456,0 -0.744,-0.048 -0.264,-0.024 -0.528,-0.048 -0.24,-0.024 -0.672,-0.024 -0.408,0 -0.672,0.024 -0.264,0.024 -0.528,0.048 -0.264,0.048 -0.744,0.048 z m 1.92,-12.456 q -0.504,0 -0.864,-0.336 -0.336,-0.36 -0.336,-0.864 0,-0.528 0.336,-0.864 0.36,-0.36 0.864,-0.36 0.528,0 0.864,0.36 0.36,0.336 0.36,0.864 0,0.504 -0.36,0.864 -0.336,0.336 -0.864,0.336 z"
       style="font-style:normal;font-variant:normal;font-weight:normal;font-stretch:normal;font-size:24px;font-family:'EB Garamond';-inkscape-font-specification:'EB Garamond'"
       id="path167" />
    <path
       d="m 256.94674,33.65801 q -1.176,0 -1.848,-0.72 -0.648,-0.72 -0.648,-2.136 v -5.568 q 0,-0.192 -0.144,-0.264 -0.144,-0.096 -0.624,-0.096 h -0.144 q -0.12,0 -0.216,-0.144 -0.072,-0.168 -0.072,-0.336 0,-0.048 0.072,-0.144 0.072,-0.096 0.096,-0.12 0.48,-0.336 0.864,-0.672 0.408,-0.336 0.72,-0.648 0.336,-0.336 0.552,-0.6 0.12,-0.12 0.192,-0.192 0.096,-0.096 0.216,-0.096 0.12,0 0.216,0.048 0.12,0.048 0.096,0.216 l -0.12,1.08 q -0.024,0.264 0.12,0.36 0.144,0.096 0.456,0.096 h 2.736 q 0.096,0 0.168,0.168 0.072,0.144 0.072,0.36 0,0.216 -0.072,0.432 -0.072,0.192 -0.168,0.192 h -2.376 q -0.6,0 -0.792,0.096 -0.168,0.096 -0.168,0.576 v 4.728 q 0,0.96 0.408,1.512 0.408,0.552 1.176,0.552 0.696,0 1.08,-0.096 0.384,-0.12 0.696,-0.336 0.048,-0.048 0.096,-0.048 0.096,0 0.12,0.12 0.048,0.096 0.048,0.216 0,0.12 -0.408,0.48 -0.384,0.36 -1.032,0.672 -0.624,0.312 -1.368,0.312 z"
       style="font-style:normal;font-variant:normal;font-weight:normal;font-stretch:normal;font-size:24px;font-family:'EB Garamond';-inkscape-font-specification:'EB Garamond'"
       id="path169" />
    <path
       d="m 262.76561,33.65801 q -0.432,0 -0.888,-0.336 -0.432,-0.336 -0.744,-0.816 -0.288,-0.48 -0.288,-0.912 0,-0.768 0.408,-1.2 0.408,-0.432 1.296,-0.792 l 2.448,-1.008 q 0.48,-0.192 0.552,-0.336 0.096,-0.144 0.12,-0.624 l 0.048,-1.536 q 0.024,-0.624 -0.36,-1.08 -0.36,-0.456 -1.056,-0.456 -0.36,0 -0.72,0.12 -0.36,0.12 -0.6,0.312 -0.144,0.096 -0.192,0.288 -0.048,0.192 -0.048,0.408 0,0.096 0,0.216 0.024,0.12 0.024,0.216 0,0.12 -0.312,0.336 -0.288,0.192 -0.672,0.36 -0.36,0.144 -0.6,0.144 -0.12,0 -0.192,-0.048 -0.072,-0.072 -0.072,-0.168 0,-0.384 0.24,-0.816 0.264,-0.456 0.72,-0.84 0.552,-0.504 1.2,-0.888 0.648,-0.384 1.272,-0.6 0.624,-0.216 1.104,-0.216 0.864,0 1.416,0.624 0.576,0.6 0.552,1.512 l -0.12,5.76 q -0.024,0.504 0.216,0.816 0.264,0.312 0.648,0.312 0.6,0 0.888,-0.264 0.12,-0.12 0.192,-0.12 0.12,0 0.192,0.072 0.072,0.072 0.072,0.192 0,0.264 -0.264,0.528 -0.384,0.384 -0.84,0.6 -0.432,0.24 -0.816,0.24 -1.104,0 -1.752,-1.248 h -0.072 q -0.792,0.648 -1.512,0.936 -0.72,0.312 -1.488,0.312 z m 1.128,-1.152 q 0.48,0 0.816,-0.144 0.336,-0.168 0.6,-0.432 0.12,-0.12 0.192,-0.312 0.096,-0.216 0.12,-0.672 l 0.048,-1.176 q 0.024,-0.264 -0.024,-0.384 -0.048,-0.12 -0.192,-0.12 -0.048,0 -0.168,0.024 -0.12,0.024 -0.312,0.096 -1.272,0.456 -1.776,0.96 -0.48,0.48 -0.48,0.888 0,0.624 0.36,0.96 0.384,0.312 0.816,0.312 z"
       style="font-style:normal;font-variant:normal;font-weight:normal;font-stretch:normal;font-size:24px;font-family:'EB Garamond';-inkscape-font-specification:'EB Garamond'"
       id="path171" />
    <path
       d="m 270.45611,33.39401 q -0.12,0 -0.312,-0.048 -0.168,-0.024 -0.168,-0.168 0,-0.192 0.168,-0.264 0.192,-0.096 0.384,-0.168 0.36,-0.12 0.696,-0.264 0.336,-0.168 0.336,-0.648 v -12.096 q 0,-0.696 -0.264,-1.152 -0.24,-0.48 -0.84,-0.6 -0.192,-0.048 -0.192,-0.312 0,-0.24 0.168,-0.288 0.624,-0.144 1.08,-0.288 0.456,-0.168 0.84,-0.336 0.408,-0.168 0.792,-0.312 0.096,-0.048 0.144,-0.048 0.048,0 0.072,0.072 0.048,0.048 0.048,0.096 0,0.216 -0.096,0.936 -0.072,0.696 -0.072,2.328 v 12 q 0,0.48 0.336,0.648 0.336,0.144 0.696,0.264 0.192,0.072 0.36,0.168 0.192,0.072 0.192,0.264 0,0.144 -0.192,0.168 -0.168,0.048 -0.288,0.048 -0.456,0 -0.744,-0.048 -0.264,-0.024 -0.528,-0.048 -0.24,-0.024 -0.672,-0.024 -0.408,0 -0.672,0.024 -0.264,0.024 -0.528,0.048 -0.264,0.048 -0.744,0.048 z"
       style="font-style:normal;font-variant:normal;font-weight:normal;font-stretch:normal;font-size:24px;font-family:'EB Garamond';-inkscape-font-specification:'EB Garamond'"
       id="path173" />
    <path
       d="m 280.39774,33.68201 q -1.32,0 -2.304,-0.648 -0.984,-0.648 -1.536,-1.824 -0.552,-1.2 -0.552,-2.76 0,-1.392 0.624,-2.52 0.648,-1.152 1.704,-1.848 1.056,-0.696 2.304,-0.696 0.96,0 1.704,0.384 0.744,0.384 1.152,1.08 0.432,0.672 0.432,1.56 0,0.744 -0.72,0.744 h -5.064 q -0.336,0 -0.48,0.192 -0.12,0.168 -0.12,0.696 0,1.152 0.504,2.112 0.504,0.936 1.344,1.512 0.84,0.552 1.848,0.552 0.72,0 1.296,-0.264 0.6,-0.288 1.056,-0.816 0.096,-0.12 0.144,-0.144 0.048,-0.048 0.12,-0.048 0.192,0 0.192,0.24 0,0.456 -0.432,1.008 -0.36,0.456 -0.864,0.792 -0.504,0.336 -1.104,0.504 -0.6,0.192 -1.248,0.192 z m -2.208,-7.272 h 2.184 q 0.576,0 0.984,-0.024 0.408,-0.024 0.792,-0.096 0.12,-0.024 0.144,-0.144 0.048,-0.144 0.048,-0.384 0,-0.696 -0.624,-1.176 -0.6,-0.504 -1.44,-0.504 -0.552,0 -1.104,0.336 -0.552,0.312 -0.912,0.792 -0.36,0.48 -0.36,0.96 0,0.24 0.288,0.24 z"
       style="font-style:normal;font-variant:normal;font-weight:normal;font-stretch:normal;font-size:24px;font-family:'EB Garamond';-inkscape-font-specification:'EB Garamond'"
       id="path175" />
    <path
       d="m 288.11674,33.65801 q -0.744,0 -1.392,-0.24 -0.648,-0.216 -1.104,-0.624 -0.12,-0.264 -0.192,-0.888 -0.048,-0.624 -0.072,-1.032 0,-0.216 0.312,-0.216 0.096,0 0.168,0.048 0.096,0.024 0.12,0.12 0.312,1.176 0.984,1.68 0.696,0.504 1.392,0.504 0.696,0 1.176,-0.456 0.504,-0.48 0.504,-1.176 0,-0.648 -0.432,-1.104 -0.432,-0.48 -1.512,-1.152 -0.816,-0.504 -1.32,-0.96 -0.504,-0.456 -0.744,-0.936 -0.216,-0.48 -0.216,-1.08 0,-0.768 0.36,-1.392 0.36,-0.624 1.08,-0.984 0.72,-0.384 1.8,-0.384 0.72,0 1.2,0.144 0.48,0.144 0.72,0.312 0.192,0.264 0.312,0.84 0.144,0.552 0.144,1.056 0,0.168 -0.24,0.168 -0.144,0 -0.288,-0.048 -0.12,-0.072 -0.168,-0.168 -0.312,-0.792 -0.792,-1.2 -0.456,-0.432 -1.152,-0.432 -0.6,0 -1.08,0.36 -0.456,0.36 -0.456,1.056 0,0.552 0.336,0.984 0.36,0.432 1.32,0.984 1.392,0.792 2.064,1.488 0.696,0.672 0.696,1.8 0,1.296 -0.984,2.112 -0.984,0.816 -2.544,0.816 z"
       style="font-style:normal;font-variant:normal;font-weight:normal;font-stretch:normal;font-size:24px;font-family:'EB Garamond';-inkscape-font-specification:'EB Garamond'"
       id="path177" />
    <path
       d="m 298.13636,40.16201 q -0.12,0 -0.312,-0.048 -0.192,-0.024 -0.192,-0.168 0,-0.192 0.168,-0.288 0.192,-0.072 0.384,-0.144 0.36,-0.12 0.696,-0.288 0.336,-0.144 0.336,-0.624 v -12.168 q 0,-0.192 -0.12,-0.576 -0.096,-0.384 -0.336,-0.744 -0.24,-0.36 -0.648,-0.432 -0.096,-0.024 -0.144,-0.12 -0.048,-0.096 -0.048,-0.192 0,-0.12 0.048,-0.192 0.048,-0.072 0.12,-0.096 0.912,-0.216 1.56,-0.456 0.648,-0.264 1.224,-0.504 0.024,0 0.024,0 0,-0.024 0.024,-0.024 0.048,0 0.096,0.072 0.048,0.072 0.048,0.144 0,0.216 -0.072,0.696 -0.048,0.456 -0.048,0.744 0,0.192 0.024,0.216 0.24,-0.24 0.864,-0.6 0.648,-0.384 1.464,-0.672 0.816,-0.312 1.56,-0.312 1.248,0 2.112,0.672 0.888,0.648 1.344,1.704 0.48,1.032 0.48,2.16 0,1.08 -0.408,2.112 -0.408,1.008 -1.152,1.824 -0.744,0.816 -1.728,1.32 -0.984,0.48 -2.112,0.48 -0.336,0 -0.816,-0.12 -0.456,-0.096 -0.912,-0.264 -0.432,-0.168 -0.672,-0.384 -0.024,0 -0.048,0.288 -0.024,0.264 -0.048,0.552 0,0.312 0,0.384 v 4.488 q 0,0.312 0.24,0.48 0.264,0.192 0.576,0.264 0.336,0.096 0.576,0.168 0.192,0.072 0.36,0.144 0.192,0.096 0.192,0.288 0,0.144 -0.192,0.168 -0.192,0.048 -0.336,0.048 -0.696,0 -1.176,-0.072 -0.456,-0.048 -1.08,-0.048 -0.408,0 -0.672,0.024 -0.24,0.024 -0.504,0.048 -0.264,0.048 -0.744,0.048 z m 5.616,-7.248 q 0.36,0 0.864,-0.216 0.528,-0.216 1.032,-0.696 0.528,-0.48 0.864,-1.296 0.36,-0.816 0.36,-2.016 0,-1.392 -0.36,-2.232 -0.36,-0.84 -0.888,-1.272 -0.528,-0.432 -1.08,-0.576 -0.552,-0.144 -0.936,-0.144 -0.576,0 -1.2,0.24 -0.6,0.24 -1.032,0.552 -0.408,0.288 -0.408,0.456 0,0.528 -0.024,1.08 0,0.528 -0.024,1.032 0,0.504 -0.024,0.912 0,0.384 0,0.6 0,0.96 0.432,1.776 0.456,0.816 1.104,1.32 0.672,0.48 1.32,0.48 z"
       style="font-style:normal;font-variant:normal;font-weight:normal;font-stretch:normal;font-size:24px;font-family:'EB Garamond';-inkscape-font-specification:'EB Garamond'"
       id="path179" />
  </g>
  <g
     aria-label="enlace σ "
     id="text263"
     style="font-style:normal;font-weight:normal;font-size:24px;line-height:1.25;font-family:sans-serif;fill:#000000;fill-opacity:1;stroke:none">
    <path
       d="m 119.44557,17.28 q -1.32,0 -2.304,-0.648 -0.984,-0.648 -1.536,-1.824 -0.552,-1.2 -0.552,-2.76 0,-1.392 0.624,-2.5199999 0.648,-1.152 1.704,-1.848 1.056,-0.696 2.304,-0.696 0.96,0 1.704,0.384 0.744,0.384 1.152,1.08 0.432,0.672 0.432,1.5599999 0,0.744 -0.72,0.744 h -5.064 q -0.336,0 -0.48,0.192 -0.12,0.168 -0.12,0.696 0,1.152 0.504,2.112 0.504,0.936 1.344,1.512 0.84,0.552 1.848,0.552 0.72,0 1.296,-0.264 0.6,-0.288 1.056,-0.816 0.096,-0.12 0.144,-0.144 0.048,-0.048 0.12,-0.048 0.192,0 0.192,0.24 0,0.456 -0.432,1.008 -0.36,0.456 -0.864,0.792 -0.504,0.336 -1.104,0.504 -0.6,0.192 -1.248,0.192 z m -2.208,-7.272 h 2.184 q 0.576,0 0.984,-0.024 0.408,-0.024 0.792,-0.096 0.12,-0.024 0.144,-0.144 0.048,-0.144 0.048,-0.384 0,-0.696 -0.624,-1.176 -0.6,-0.504 -1.44,-0.504 -0.552,0 -1.104,0.336 -0.552,0.312 -0.912,0.792 -0.36,0.48 -0.36,0.96 0,0.2399999 0.288,0.2399999 z"
       style="font-style:normal;font-variant:normal;font-weight:normal;font-stretch:normal;font-size:24px;font-family:'EB Garamond';-inkscape-font-specification:'EB Garamond'"
       id="path146" />
    <path
       d="m 124.76457,16.992 q -0.216,0 -0.36,-0.072 -0.12,-0.048 -0.12,-0.192 0,-0.192 0.144,-0.24 0.144,-0.072 0.408,-0.144 0.36,-0.096 0.696,-0.264 0.336,-0.168 0.336,-0.648 v -5.16 q 0,-0.6479999 -0.144,-1.1039999 -0.12,-0.456 -0.744,-0.624 -0.096,-0.048 -0.168,-0.096 -0.072,-0.072 -0.072,-0.216 0,-0.264 0.216,-0.288 0.84,-0.216 1.368,-0.528 0.528,-0.312 1.032,-0.696 0.072,-0.048 0.12,-0.072 0.072,-0.048 0.144,-0.048 0.048,0 0.072,0.048 0.048,0.048 0.048,0.12 0,0.168 -0.072,0.696 -0.048,0.504 -0.048,0.84 0,0.096 0,0.192 0.024,0.072 0.048,0.096 0.84,-0.792 1.776,-1.2 0.96,-0.408 2.088,-0.408 1.176,0 1.944,0.96 0.768,0.96 0.768,2.3759999 v 5.112 q 0,0.48 0.336,0.648 0.336,0.144 0.696,0.264 0.192,0.072 0.36,0.168 0.192,0.072 0.192,0.264 0,0.144 -0.168,0.168 -0.168,0.048 -0.312,0.048 -0.48,0 -0.744,-0.048 -0.264,-0.024 -0.504,-0.048 -0.24,-0.024 -0.672,-0.024 -0.408,0 -0.672,0.024 -0.264,0.024 -0.552,0.048 -0.264,0.048 -0.744,0.048 -0.12,0 -0.312,-0.048 -0.168,-0.024 -0.168,-0.168 0,-0.192 0.168,-0.264 0.192,-0.096 0.384,-0.168 0.36,-0.12 0.696,-0.264 0.336,-0.168 0.336,-0.648 v -5.04 q 0,-1.0559999 -0.6,-1.6319999 -0.576,-0.6 -1.56,-0.624 -0.864,0 -1.512,0.288 -0.648,0.264 -1.152,0.672 -0.096,0.096 -0.144,0.264 -0.048,0.144 -0.048,0.288 V 15.432 q 0,0.48 0.336,0.648 0.336,0.168 0.696,0.264 0.552,0.144 0.552,0.384 0,0.144 -0.12,0.192 -0.12,0.072 -0.36,0.072 -0.48,0 -0.768,-0.048 -0.264,-0.024 -0.504,-0.048 -0.24,-0.024 -0.672,-0.024 -0.408,0 -0.672,0.024 -0.24,0.024 -0.528,0.048 -0.264,0.048 -0.744,0.048 z"
       style="font-style:normal;font-variant:normal;font-weight:normal;font-stretch:normal;font-size:24px;font-family:'EB Garamond';-inkscape-font-specification:'EB Garamond'"
       id="path148" />
    <path
       d="m 137.30082,16.992 q -0.12,0 -0.312,-0.048 -0.168,-0.024 -0.168,-0.168 0,-0.192 0.168,-0.264 0.192,-0.096 0.384,-0.168 0.36,-0.12 0.696,-0.264 0.336,-0.168 0.336,-0.648 V 3.3360001 q 0,-0.696 -0.264,-1.152 -0.24,-0.48 -0.84,-0.6 -0.192,-0.048 -0.192,-0.312 0,-0.24 0.168,-0.28800002 0.624,-0.144 1.08,-0.288 0.456,-0.168 0.84,-0.336 0.408,-0.168 0.792,-0.312 0.096,-0.04800000370605 0.144,-0.04800000370605 0.048,0 0.072,0.07200000370605 0.048,0.048 0.048,0.096 0,0.216 -0.096,0.93600002 -0.072,0.696 -0.072,2.328 V 15.432 q 0,0.48 0.336,0.648 0.336,0.144 0.696,0.264 0.192,0.072 0.36,0.168 0.192,0.072 0.192,0.264 0,0.144 -0.192,0.168 -0.168,0.048 -0.288,0.048 -0.456,0 -0.744,-0.048 -0.264,-0.024 -0.528,-0.048 -0.24,-0.024 -0.672,-0.024 -0.408,0 -0.672,0.024 -0.264,0.024 -0.528,0.048 -0.264,0.048 -0.744,0.048 z"
       style="font-style:normal;font-variant:normal;font-weight:normal;font-stretch:normal;font-size:24px;font-family:'EB Garamond';-inkscape-font-specification:'EB Garamond'"
       id="path150" />
    <path
       d="m 144.93845,17.256 q -0.432,0 -0.888,-0.336 -0.432,-0.336 -0.744,-0.816 -0.288,-0.48 -0.288,-0.912 0,-0.768 0.408,-1.2 0.408,-0.432 1.296,-0.792 l 2.448,-1.008 q 0.48,-0.192 0.552,-0.336 0.096,-0.144 0.12,-0.624 l 0.048,-1.5359999 q 0.024,-0.624 -0.36,-1.08 -0.36,-0.456 -1.056,-0.456 -0.36,0 -0.72,0.12 -0.36,0.12 -0.6,0.312 -0.144,0.096 -0.192,0.288 -0.048,0.192 -0.048,0.408 0,0.096 0,0.216 0.024,0.12 0.024,0.216 0,0.12 -0.312,0.3359999 -0.288,0.192 -0.672,0.36 -0.36,0.144 -0.6,0.144 -0.12,0 -0.192,-0.048 -0.072,-0.072 -0.072,-0.168 0,-0.3839999 0.24,-0.8159999 0.264,-0.456 0.72,-0.84 0.552,-0.504 1.2,-0.888 0.648,-0.384 1.272,-0.6 0.624,-0.216 1.104,-0.216 0.864,0 1.416,0.624 0.576,0.6 0.552,1.512 l -0.12,5.7599999 q -0.024,0.504 0.216,0.816 0.264,0.312 0.648,0.312 0.6,0 0.888,-0.264 0.12,-0.12 0.192,-0.12 0.12,0 0.192,0.072 0.072,0.072 0.072,0.192 0,0.264 -0.264,0.528 -0.384,0.384 -0.84,0.6 -0.432,0.24 -0.816,0.24 -1.104,0 -1.752,-1.248 h -0.072 q -0.792,0.648 -1.512,0.936 -0.72,0.312 -1.488,0.312 z m 1.128,-1.152 q 0.48,0 0.816,-0.144 0.336,-0.168 0.6,-0.432 0.12,-0.12 0.192,-0.312 0.096,-0.216 0.12,-0.672 l 0.048,-1.176 q 0.024,-0.264 -0.024,-0.384 -0.048,-0.12 -0.192,-0.12 -0.048,0 -0.168,0.024 -0.12,0.024 -0.312,0.096 -1.272,0.456 -1.776,0.96 -0.48,0.48 -0.48,0.888 0,0.624 0.36,0.96 0.384,0.312 0.816,0.312 z"
       style="font-style:normal;font-variant:normal;font-weight:normal;font-stretch:normal;font-size:24px;font-family:'EB Garamond';-inkscape-font-specification:'EB Garamond'"
       id="path152" />
    <path
       d="m 156.80495,17.28 q -1.2,0 -2.184,-0.6 -0.96,-0.624 -1.536,-1.68 -0.552,-1.08 -0.552,-2.4 0,-1.56 0.672,-2.8319999 0.696,-1.272 1.848,-2.016 1.152,-0.768 2.544,-0.768 1.56,0 2.736,0.84 0.288,0.216 0.288,0.456 0,0.192 -0.168,0.432 -0.168,0.24 -0.408,0.408 -0.24,0.144 -0.456,0.144 -0.12,0 -0.24,-0.072 -0.12,-0.096 -0.264,-0.192 -0.528,-0.408 -1.176,-0.768 -0.648,-0.36 -1.08,-0.36 -1.176,0 -1.92,1.104 -0.72,1.0799999 -0.72,2.8559999 0,1.128 0.48,2.04 0.504,0.912 1.32,1.44 0.84,0.528 1.848,0.528 0.696,0 1.2,-0.216 0.504,-0.24 1.08,-0.816 0.048,-0.048 0.12,-0.072 0.072,-0.048 0.12,-0.048 0.264,0 0.264,0.336 0,0.144 -0.096,0.336 -0.072,0.168 -0.264,0.408 -0.384,0.48 -0.912,0.84 -0.528,0.336 -1.176,0.504 -0.624,0.168 -1.368,0.168 z"
       style="font-style:normal;font-variant:normal;font-weight:normal;font-stretch:normal;font-size:24px;font-family:'EB Garamond';-inkscape-font-specification:'EB Garamond'"
       id="path154" />
    <path
       d="m 166.0862,17.28 q -1.32,0 -2.304,-0.648 -0.984,-0.648 -1.536,-1.824 -0.552,-1.2 -0.552,-2.76 0,-1.392 0.624,-2.5199999 0.648,-1.152 1.704,-1.848 1.056,-0.696 2.304,-0.696 0.96,0 1.704,0.384 0.744,0.384 1.152,1.08 0.432,0.672 0.432,1.5599999 0,0.744 -0.72,0.744 h -5.064 q -0.336,0 -0.48,0.192 -0.12,0.168 -0.12,0.696 0,1.152 0.504,2.112 0.504,0.936 1.344,1.512 0.84,0.552 1.848,0.552 0.72,0 1.296,-0.264 0.6,-0.288 1.056,-0.816 0.096,-0.12 0.144,-0.144 0.048,-0.048 0.12,-0.048 0.192,0 0.192,0.24 0,0.456 -0.432,1.008 -0.36,0.456 -0.864,0.792 -0.504,0.336 -1.104,0.504 -0.6,0.192 -1.248,0.192 z m -2.208,-7.272 h 2.184 q 0.576,0 0.984,-0.024 0.408,-0.024 0.792,-0.096 0.12,-0.024 0.144,-0.144 0.048,-0.144 0.048,-0.384 0,-0.696 -0.624,-1.176 -0.6,-0.504 -1.44,-0.504 -0.552,0 -1.104,0.336 -0.552,0.312 -0.912,0.792 -0.36,0.48 -0.36,0.96 0,0.2399999 0.288,0.2399999 z"
       style="font-style:normal;font-variant:normal;font-weight:normal;font-stretch:normal;font-size:24px;font-family:'EB Garamond';-inkscape-font-specification:'EB Garamond'"
       id="path156" />
    <path
       d="m 179.49845,17.256 q -0.888,0 -1.56,-0.456 -0.648,-0.456 -1.104,-1.2 -0.432,-0.768 -0.648,-1.632 -0.216,-0.888 -0.216,-1.728 0,-1.08 0.408,-2.04 0.408,-0.9599999 1.056,-1.6799999 0.672,-0.744 1.416,-1.152 0.768,-0.432 1.44,-0.432 0.384,0 1.032,0.024 0.648,0.024 1.392,0.048 0.744,0.024 1.44,0.048 0.696,0.024 1.152,0.024 0.432,0 0.84,-0.264 0.408,-0.288 0.504,-0.288 0.12,0 0.144,0.072 0.048,0.048 0.048,0.144 0,0.888 -0.456,1.44 -0.456,0.552 -0.984,0.552 -0.12,0 -0.504,0 -0.36,-0.024 -0.816,-0.024 -0.432,-0.024 -0.768,-0.024 -0.336,-0.024 -0.408,-0.024 -0.072,0 -0.144,0.048 -0.048,0.048 -0.048,0.12 0.024,0.072 0.096,0.168 0.24,0.288 0.648,0.96 0.408,0.6479999 0.408,1.6079999 0,0.888 -0.336,1.896 -0.312,0.984 -0.912,1.848 -0.6,0.864 -1.392,1.416 -0.792,0.528 -1.728,0.528 z m -0.528,-1.872 q 1.224,0 2.064,-0.6 0.84,-0.6 1.272,-1.56 0.432,-0.96 0.432,-2.04 0,-0.408 -0.096,-0.984 -0.096,-0.5759999 -0.336,-1.0559999 -0.216,-0.48 -0.648,-0.552 -0.216,-0.048 -0.6,-0.048 -0.36,-0.024 -0.6,-0.024 -1.128,0 -1.92,0.72 -0.792,0.72 -1.2,1.7759999 -0.408,1.032 -0.408,2.064 0,0.96 0.576,1.632 0.6,0.672 1.464,0.672 z"
       style="font-style:normal;font-variant:normal;font-weight:normal;font-stretch:normal;font-size:24px;font-family:'EB Garamond';-inkscape-font-specification:'EB Garamond'"
       id="path158" />
  </g>
  <g
     aria-label="enlaces π "
     id="text263-4"
     style="font-style:normal;font-weight:normal;font-size:24px;line-height:1.25;font-family:sans-serif;fill:#000000;fill-opacity:1;stroke:none">
    <path
       d="m 110.06143,118.36118 q -1.32,0 -2.304,-0.648 -0.984,-0.648 -1.536,-1.824 -0.552,-1.2 -0.552,-2.76 0,-1.392 0.624,-2.52 0.648,-1.152 1.704,-1.848 1.056,-0.696 2.304,-0.696 0.96,0 1.704,0.384 0.744,0.384 1.152,1.08 0.432,0.672 0.432,1.56 0,0.744 -0.72,0.744 h -5.064 q -0.336,0 -0.48,0.192 -0.12,0.168 -0.12,0.696 0,1.152 0.504,2.112 0.504,0.936 1.344,1.512 0.84,0.552 1.848,0.552 0.72,0 1.296,-0.264 0.6,-0.288 1.056,-0.816 0.096,-0.12 0.144,-0.144 0.048,-0.048 0.12,-0.048 0.192,0 0.192,0.24 0,0.456 -0.432,1.008 -0.36,0.456 -0.864,0.792 -0.504,0.336 -1.104,0.504 -0.6,0.192 -1.248,0.192 z m -2.208,-7.272 h 2.184 q 0.576,0 0.984,-0.024 0.408,-0.024 0.792,-0.096 0.12,-0.024 0.144,-0.144 0.048,-0.144 0.048,-0.384 0,-0.696 -0.624,-1.176 -0.6,-0.504 -1.44,-0.504 -0.552,0 -1.104,0.336 -0.552,0.312 -0.912,0.792 -0.36,0.48 -0.36,0.96 0,0.24 0.288,0.24 z"
       style="font-style:normal;font-variant:normal;font-weight:normal;font-stretch:normal;font-size:24px;font-family:'EB Garamond';-inkscape-font-specification:'EB Garamond'"
       id="path182" />
    <path
       d="m 115.38043,118.07318 q -0.216,0 -0.36,-0.072 -0.12,-0.048 -0.12,-0.192 0,-0.192 0.144,-0.24 0.144,-0.072 0.408,-0.144 0.36,-0.096 0.696,-0.264 0.336,-0.168 0.336,-0.648 v -5.16 q 0,-0.648 -0.144,-1.104 -0.12,-0.456 -0.744,-0.624 -0.096,-0.048 -0.168,-0.096 -0.072,-0.072 -0.072,-0.216 0,-0.264 0.216,-0.288 0.84,-0.216 1.368,-0.528 0.528,-0.312 1.032,-0.696 0.072,-0.048 0.12,-0.072 0.072,-0.048 0.144,-0.048 0.048,0 0.072,0.048 0.048,0.048 0.048,0.12 0,0.168 -0.072,0.696 -0.048,0.504 -0.048,0.84 0,0.096 0,0.192 0.024,0.072 0.048,0.096 0.84,-0.792 1.776,-1.2 0.96,-0.408 2.088,-0.408 1.176,0 1.944,0.96 0.768,0.96 0.768,2.376 v 5.112 q 0,0.48 0.336,0.648 0.336,0.144 0.696,0.264 0.192,0.072 0.36,0.168 0.192,0.072 0.192,0.264 0,0.144 -0.168,0.168 -0.168,0.048 -0.312,0.048 -0.48,0 -0.744,-0.048 -0.264,-0.024 -0.504,-0.048 -0.24,-0.024 -0.672,-0.024 -0.408,0 -0.672,0.024 -0.264,0.024 -0.552,0.048 -0.264,0.048 -0.744,0.048 -0.12,0 -0.312,-0.048 -0.168,-0.024 -0.168,-0.168 0,-0.192 0.168,-0.264 0.192,-0.096 0.384,-0.168 0.36,-0.12 0.696,-0.264 0.336,-0.168 0.336,-0.648 v -5.04 q 0,-1.056 -0.6,-1.632 -0.576,-0.6 -1.56,-0.624 -0.864,0 -1.512,0.288 -0.648,0.264 -1.152,0.672 -0.096,0.096 -0.144,0.264 -0.048,0.144 -0.048,0.288 v 5.784 q 0,0.48 0.336,0.648 0.336,0.168 0.696,0.264 0.552,0.144 0.552,0.384 0,0.144 -0.12,0.192 -0.12,0.072 -0.36,0.072 -0.48,0 -0.768,-0.048 -0.264,-0.024 -0.504,-0.048 -0.24,-0.024 -0.672,-0.024 -0.408,0 -0.672,0.024 -0.24,0.024 -0.528,0.048 -0.264,0.048 -0.744,0.048 z"
       style="font-style:normal;font-variant:normal;font-weight:normal;font-stretch:normal;font-size:24px;font-family:'EB Garamond';-inkscape-font-specification:'EB Garamond'"
       id="path184" />
    <path
       d="m 127.91668,118.07318 q -0.12,0 -0.312,-0.048 -0.168,-0.024 -0.168,-0.168 0,-0.192 0.168,-0.264 0.192,-0.096 0.384,-0.168 0.36,-0.12 0.696,-0.264 0.336,-0.168 0.336,-0.648 v -12.096 q 0,-0.696 -0.264,-1.152 -0.24,-0.48 -0.84,-0.6 -0.192,-0.048 -0.192,-0.312 0,-0.24 0.168,-0.288 0.624,-0.144 1.08,-0.288 0.456,-0.168 0.84,-0.336 0.408,-0.168 0.792,-0.312 0.096,-0.048 0.144,-0.048 0.048,0 0.072,0.072 0.048,0.048 0.048,0.096 0,0.216 -0.096,0.936 -0.072,0.696 -0.072,2.328 v 12 q 0,0.48 0.336,0.648 0.336,0.144 0.696,0.264 0.192,0.072 0.36,0.168 0.192,0.072 0.192,0.264 0,0.144 -0.192,0.168 -0.168,0.048 -0.288,0.048 -0.456,0 -0.744,-0.048 -0.264,-0.024 -0.528,-0.048 -0.24,-0.024 -0.672,-0.024 -0.408,0 -0.672,0.024 -0.264,0.024 -0.528,0.048 -0.264,0.048 -0.744,0.048 z"
       style="font-style:normal;font-variant:normal;font-weight:normal;font-stretch:normal;font-size:24px;font-family:'EB Garamond';-inkscape-font-specification:'EB Garamond'"
       id="path186" />
    <path
       d="m 135.55431,118.33718 q -0.432,0 -0.888,-0.336 -0.432,-0.336 -0.744,-0.816 -0.288,-0.48 -0.288,-0.912 0,-0.768 0.408,-1.2 0.408,-0.432 1.296,-0.792 l 2.448,-1.008 q 0.48,-0.192 0.552,-0.336 0.096,-0.144 0.12,-0.624 l 0.048,-1.536 q 0.024,-0.624 -0.36,-1.08 -0.36,-0.456 -1.056,-0.456 -0.36,0 -0.72,0.12 -0.36,0.12 -0.6,0.312 -0.144,0.096 -0.192,0.288 -0.048,0.192 -0.048,0.408 0,0.096 0,0.216 0.024,0.12 0.024,0.216 0,0.12 -0.312,0.336 -0.288,0.192 -0.672,0.36 -0.36,0.144 -0.6,0.144 -0.12,0 -0.192,-0.048 -0.072,-0.072 -0.072,-0.168 0,-0.384 0.24,-0.816 0.264,-0.456 0.72,-0.84 0.552,-0.504 1.2,-0.888 0.648,-0.384 1.272,-0.6 0.624,-0.216 1.104,-0.216 0.864,0 1.416,0.624 0.576,0.6 0.552,1.512 l -0.12,5.76 q -0.024,0.504 0.216,0.816 0.264,0.312 0.648,0.312 0.6,0 0.888,-0.264 0.12,-0.12 0.192,-0.12 0.12,0 0.192,0.072 0.072,0.072 0.072,0.192 0,0.264 -0.264,0.528 -0.384,0.384 -0.84,0.6 -0.432,0.24 -0.816,0.24 -1.104,0 -1.752,-1.248 h -0.072 q -0.792,0.648 -1.512,0.936 -0.72,0.312 -1.488,0.312 z m 1.128,-1.152 q 0.48,0 0.816,-0.144 0.336,-0.168 0.6,-0.432 0.12,-0.12 0.192,-0.312 0.096,-0.216 0.12,-0.672 l 0.048,-1.176 q 0.024,-0.264 -0.024,-0.384 -0.048,-0.12 -0.192,-0.12 -0.048,0 -0.168,0.024 -0.12,0.024 -0.312,0.096 -1.272,0.456 -1.776,0.96 -0.48,0.48 -0.48,0.888 0,0.624 0.36,0.96 0.384,0.312 0.816,0.312 z"
       style="font-style:normal;font-variant:normal;font-weight:normal;font-stretch:normal;font-size:24px;font-family:'EB Garamond';-inkscape-font-specification:'EB Garamond'"
       id="path188" />
    <path
       d="m 147.42081,118.36118 q -1.2,0 -2.184,-0.6 -0.96,-0.624 -1.536,-1.68 -0.552,-1.08 -0.552,-2.4 0,-1.56 0.672,-2.832 0.696,-1.272 1.848,-2.016 1.152,-0.768 2.544,-0.768 1.56,0 2.736,0.84 0.288,0.216 0.288,0.456 0,0.192 -0.168,0.432 -0.168,0.24 -0.408,0.408 -0.24,0.144 -0.456,0.144 -0.12,0 -0.24,-0.072 -0.12,-0.096 -0.264,-0.192 -0.528,-0.408 -1.176,-0.768 -0.648,-0.36 -1.08,-0.36 -1.176,0 -1.92,1.104 -0.72,1.08 -0.72,2.856 0,1.128 0.48,2.04 0.504,0.912 1.32,1.44 0.84,0.528 1.848,0.528 0.696,0 1.2,-0.216 0.504,-0.24 1.08,-0.816 0.048,-0.048 0.12,-0.072 0.072,-0.048 0.12,-0.048 0.264,0 0.264,0.336 0,0.144 -0.096,0.336 -0.072,0.168 -0.264,0.408 -0.384,0.48 -0.912,0.84 -0.528,0.336 -1.176,0.504 -0.624,0.168 -1.368,0.168 z"
       style="font-style:normal;font-variant:normal;font-weight:normal;font-stretch:normal;font-size:24px;font-family:'EB Garamond';-inkscape-font-specification:'EB Garamond'"
       id="path190" />
    <path
       d="m 156.70206,118.36118 q -1.32,0 -2.304,-0.648 -0.984,-0.648 -1.536,-1.824 -0.552,-1.2 -0.552,-2.76 0,-1.392 0.624,-2.52 0.648,-1.152 1.704,-1.848 1.056,-0.696 2.304,-0.696 0.96,0 1.704,0.384 0.744,0.384 1.152,1.08 0.432,0.672 0.432,1.56 0,0.744 -0.72,0.744 h -5.064 q -0.336,0 -0.48,0.192 -0.12,0.168 -0.12,0.696 0,1.152 0.504,2.112 0.504,0.936 1.344,1.512 0.84,0.552 1.848,0.552 0.72,0 1.296,-0.264 0.6,-0.288 1.056,-0.816 0.096,-0.12 0.144,-0.144 0.048,-0.048 0.12,-0.048 0.192,0 0.192,0.24 0,0.456 -0.432,1.008 -0.36,0.456 -0.864,0.792 -0.504,0.336 -1.104,0.504 -0.6,0.192 -1.248,0.192 z m -2.208,-7.272 h 2.184 q 0.576,0 0.984,-0.024 0.408,-0.024 0.792,-0.096 0.12,-0.024 0.144,-0.144 0.048,-0.144 0.048,-0.384 0,-0.696 -0.624,-1.176 -0.6,-0.504 -1.44,-0.504 -0.552,0 -1.104,0.336 -0.552,0.312 -0.912,0.792 -0.36,0.48 -0.36,0.96 0,0.24 0.288,0.24 z"
       style="font-style:normal;font-variant:normal;font-weight:normal;font-stretch:normal;font-size:24px;font-family:'EB Garamond';-inkscape-font-specification:'EB Garamond'"
       id="path192" />
    <path
       d="m 164.42106,118.33718 q -0.744,0 -1.392,-0.24 -0.648,-0.216 -1.104,-0.624 -0.12,-0.264 -0.192,-0.888 -0.048,-0.624 -0.072,-1.032 0,-0.216 0.312,-0.216 0.096,0 0.168,0.048 0.096,0.024 0.12,0.12 0.312,1.176 0.984,1.68 0.696,0.504 1.392,0.504 0.696,0 1.176,-0.456 0.504,-0.48 0.504,-1.176 0,-0.648 -0.432,-1.104 -0.432,-0.48 -1.512,-1.152 -0.816,-0.504 -1.32,-0.96 -0.504,-0.456 -0.744,-0.936 -0.216,-0.48 -0.216,-1.08 0,-0.768 0.36,-1.392 0.36,-0.624 1.08,-0.984 0.72,-0.384 1.8,-0.384 0.72,0 1.2,0.144 0.48,0.144 0.72,0.312 0.192,0.264 0.312,0.84 0.144,0.552 0.144,1.056 0,0.168 -0.24,0.168 -0.144,0 -0.288,-0.048 -0.12,-0.072 -0.168,-0.168 -0.312,-0.792 -0.792,-1.2 -0.456,-0.432 -1.152,-0.432 -0.6,0 -1.08,0.36 -0.456,0.36 -0.456,1.056 0,0.552 0.336,0.984 0.36,0.432 1.32,0.984 1.392,0.792 2.064,1.488 0.696,0.672 0.696,1.8 0,1.296 -0.984,2.112 -0.984,0.816 -2.544,0.816 z"
       style="font-style:normal;font-variant:normal;font-weight:normal;font-stretch:normal;font-size:24px;font-family:'EB Garamond';-inkscape-font-specification:'EB Garamond'"
       id="path194" />
    <path
       d="m 177.60868,118.40918 q -0.168,0 -0.528,-0.144 -0.36,-0.144 -0.672,-0.336 -0.288,-0.216 -0.288,-0.408 0,-0.48 0.12,-0.912 0.12,-0.456 0.264,-0.96 l 1.488,-5.256 q 0.096,-0.336 0,-0.504 -0.072,-0.168 -0.48,-0.168 -0.816,0 -1.392,0.192 -0.576,0.192 -0.984,0.672 -0.384,0.48 -0.696,1.392 -0.024,0.096 -0.072,0.24 -0.024,0.12 -0.168,0.12 -0.144,0 -0.264,-0.24 -0.096,-0.264 -0.096,-0.72 0,-0.504 0.192,-1.056 0.216,-0.552 0.672,-1.032 0.48,-0.504 1.248,-0.816 0.792,-0.312 1.968,-0.312 0.84,0 1.704,0.048 0.864,0.048 1.68,0.096 0.624,0.024 1.2,0.072 0.6,0.024 1.128,0.024 0.504,0 0.864,-0.12 0.384,-0.144 0.624,-0.288 0.192,-0.12 0.312,-0.216 0.144,-0.096 0.24,-0.096 0.192,0 0.24,0.168 0.072,0.168 0.072,0.576 0,0.336 -0.144,0.72 -0.144,0.384 -0.36,0.648 -0.192,0.24 -0.384,0.24 -0.48,0 -0.984,-0.048 -0.504,-0.048 -0.768,-0.048 -0.384,0 -0.576,0.12 -0.168,0.12 -0.24,0.624 -0.024,0.264 -0.12,0.864 -0.096,0.6 -0.216,1.344 -0.096,0.72 -0.168,1.392 -0.072,0.648 -0.072,1.008 0,0.456 0.264,0.648 0.288,0.192 0.648,0.216 0.192,0.024 0.408,0 0.24,-0.048 0.408,-0.12 0.144,-0.048 0.24,-0.096 0.12,-0.048 0.144,-0.048 0.168,0 0.192,0.096 0.048,0.096 0.048,0.288 0,0.408 -0.192,0.888 -0.192,0.48 -0.576,0.84 -0.384,0.336 -0.984,0.336 -0.6,0 -1.08,-0.6 -0.48,-0.6 -0.48,-1.8 0,-0.456 0.096,-1.224 0.096,-0.792 0.216,-1.656 0.12,-0.864 0.216,-1.56 0.096,-0.696 0.096,-0.984 0,-0.216 -0.096,-0.408 -0.096,-0.192 -0.288,-0.192 l -1.872,-0.072 q -0.24,-0.024 -0.384,0.096 -0.144,0.12 -0.216,0.408 -0.552,2.112 -0.768,3.528 -0.192,1.392 -0.24,2.28 -0.024,0.6 0.024,0.984 0.048,0.384 0.072,0.624 0.048,0.312 0.024,0.48 0,0.168 -0.264,0.168 z"
       style="font-style:normal;font-variant:normal;font-weight:normal;font-stretch:normal;font-size:24px;font-family:'EB Garamond';-inkscape-font-specification:'EB Garamond'"
       id="path196" />
  </g>
</svg>
