<?xml version="1.0" encoding="UTF-8" standalone="no"?>
<svg
   xmlns:dc="http://purl.org/dc/elements/1.1/"
   xmlns:cc="http://creativecommons.org/ns#"
   xmlns:rdf="http://www.w3.org/1999/02/22-rdf-syntax-ns#"
   xmlns:svg="http://www.w3.org/2000/svg"
   xmlns="http://www.w3.org/2000/svg"
   xmlns:xlink="http://www.w3.org/1999/xlink"
   xmlns:sodipodi="http://sodipodi.sourceforge.net/DTD/sodipodi-0.dtd"
   xmlns:inkscape="http://www.inkscape.org/namespaces/inkscape"
   width="248"
   height="210"
   viewBox="0 0 248 209.99999"
   id="svg2"
   version="1.1"
   inkscape:version="1.0.1 (c497b03c, 2020-09-10)"
   sodipodi:docname="hibridacion-BF3.svg">
  <defs
     id="defs4">
    <marker
       inkscape:stockid="Arrow1Sstart"
       orient="auto"
       refY="0"
       refX="0"
       id="Arrow1Sstart"
       style="overflow:visible"
       inkscape:isstock="true">
      <path
         id="path4346"
         d="M 0,0 5,-5 -12.5,0 5,5 0,0 Z"
         style="fill:#000000;fill-opacity:1;fill-rule:evenodd;stroke:#000000;stroke-width:1pt;stroke-opacity:1"
         transform="matrix(0.2,0,0,0.2,1.2,0)"
         inkscape:connector-curvature="0" />
    </marker>
    <marker
       inkscape:stockid="Arrow1Send"
       orient="auto"
       refY="0"
       refX="0"
       id="Arrow1Send"
       style="overflow:visible"
       inkscape:isstock="true">
      <path
         id="path4349"
         d="M 0,0 5,-5 -12.5,0 5,5 0,0 Z"
         style="fill:#000000;fill-opacity:1;fill-rule:evenodd;stroke:#000000;stroke-width:1pt;stroke-opacity:1"
         transform="matrix(-0.2,0,0,-0.2,-1.2,0)"
         inkscape:connector-curvature="0" />
    </marker>
    <marker
       inkscape:isstock="true"
       style="overflow:visible"
       id="marker4613"
       refX="0"
       refY="0"
       orient="auto"
       inkscape:stockid="Arrow1Mstart">
      <path
         transform="matrix(0.4,0,0,0.4,4,0)"
         style="fill:#000000;fill-opacity:1;fill-rule:evenodd;stroke:#000000;stroke-width:1pt;stroke-opacity:1"
         d="M 0,0 5,-5 -12.5,0 5,5 0,0 Z"
         id="path4615"
         inkscape:connector-curvature="0" />
    </marker>
    <marker
       inkscape:isstock="true"
       style="overflow:visible"
       id="marker4535"
       refX="0"
       refY="0"
       orient="auto"
       inkscape:stockid="Arrow1Mend">
      <path
         transform="matrix(-0.4,0,0,-0.4,-4,0)"
         style="fill:#000000;fill-opacity:1;fill-rule:evenodd;stroke:#000000;stroke-width:1pt;stroke-opacity:1"
         d="M 0,0 5,-5 -12.5,0 5,5 0,0 Z"
         id="path4537"
         inkscape:connector-curvature="0" />
    </marker>
    <linearGradient
       inkscape:collect="always"
       xlink:href="#linearGradient4312"
       id="linearGradient4318"
       x1="-415.05301"
       y1="260.64966"
       x2="-355.05301"
       y2="260.64966"
       gradientUnits="userSpaceOnUse"
       gradientTransform="matrix(-0.35194414,-0.60958514,0.60958514,-0.35194414,-63.959696,933.86197)" />
    <linearGradient
       inkscape:collect="always"
       id="linearGradient4312">
      <stop
         style="stop-color:#000080;stop-opacity:1;"
         offset="0"
         id="stop4314" />
      <stop
         style="stop-color:#000080;stop-opacity:0;"
         offset="1"
         id="stop4316" />
    </linearGradient>
    <linearGradient
       inkscape:collect="always"
       xlink:href="#linearGradient4356"
       id="linearGradient4362"
       x1="-370.8219"
       y1="1071.5291"
       x2="-351.60086"
       y2="1077.3795"
       gradientUnits="userSpaceOnUse"
       gradientTransform="matrix(-0.35194414,-0.60958514,0.60958514,-0.35194414,-537.86107,1234.6583)" />
    <linearGradient
       inkscape:collect="always"
       id="linearGradient4356">
      <stop
         style="stop-color:#c83737;stop-opacity:1;"
         offset="0"
         id="stop4358" />
      <stop
         style="stop-color:#ffaaaa;stop-opacity:1"
         offset="1"
         id="stop4360" />
    </linearGradient>
    <linearGradient
       inkscape:collect="always"
       xlink:href="#linearGradient4990"
       id="linearGradient5037"
       gradientUnits="userSpaceOnUse"
       gradientTransform="matrix(-0.60958514,0.35194415,0.27078701,0.46901687,36.200907,641.67747)"
       x1="106.22757"
       y1="888.05408"
       x2="208.39914"
       y2="887.37952" />
    <linearGradient
       id="linearGradient4990"
       inkscape:collect="always">
      <stop
         id="stop4992"
         offset="0"
         style="stop-color:#000080;stop-opacity:1;" />
      <stop
         id="stop4994"
         offset="1"
         style="stop-color:#c83737;stop-opacity:1" />
    </linearGradient>
    <linearGradient
       inkscape:collect="always"
       xlink:href="#linearGradient4312"
       id="linearGradient4962"
       gradientUnits="userSpaceOnUse"
       x1="-415.05301"
       y1="260.64966"
       x2="-355.05301"
       y2="260.64966" />
    <linearGradient
       inkscape:collect="always"
       xlink:href="#linearGradient4356"
       id="linearGradient4964"
       gradientUnits="userSpaceOnUse"
       x1="-370.8219"
       y1="1071.5291"
       x2="-351.60086"
       y2="1077.3795" />
    <linearGradient
       inkscape:collect="always"
       xlink:href="#linearGradient4312"
       id="linearGradient4966"
       gradientUnits="userSpaceOnUse"
       x1="-415.05301"
       y1="260.64966"
       x2="-355.05301"
       y2="260.64966"
       gradientTransform="matrix(-0.35194414,0.60958514,-0.60958514,-0.35194414,253.75557,1414.912)" />
    <linearGradient
       inkscape:collect="always"
       xlink:href="#linearGradient4356"
       id="linearGradient4968"
       gradientUnits="userSpaceOnUse"
       x1="-370.8219"
       y1="1071.5291"
       x2="-351.60086"
       y2="1077.3795"
       gradientTransform="matrix(-0.35194414,0.60958514,-0.60958514,-0.35194414,751.20353,1674.9245)" />
    <linearGradient
       inkscape:collect="always"
       xlink:href="#linearGradient4990"
       id="linearGradient4970"
       gradientUnits="userSpaceOnUse"
       gradientTransform="matrix(0,-0.70388829,-0.54157403,0,715.39727,1133.4514)"
       x1="106.22757"
       y1="888.05408"
       x2="208.39914"
       y2="887.37952" />
    <linearGradient
       inkscape:collect="always"
       xlink:href="#linearGradient4990"
       id="linearGradient4972"
       gradientUnits="userSpaceOnUse"
       gradientTransform="matrix(0.60958514,0.35194415,0.27078701,-0.46901687,-49.391604,1474.3994)"
       x1="106.22757"
       y1="888.05408"
       x2="208.39914"
       y2="887.37952" />
  </defs>
  <sodipodi:namedview
     id="base"
     pagecolor="#ffffff"
     bordercolor="#666666"
     borderopacity="1.0"
     inkscape:pageopacity="0.0"
     inkscape:pageshadow="2"
     inkscape:zoom="2.8175282"
     inkscape:cx="147.78277"
     inkscape:cy="113.17857"
     inkscape:document-units="px"
     inkscape:current-layer="layer1"
     showgrid="true"
     units="px"
     inkscape:window-width="1440"
     inkscape:window-height="766"
     inkscape:window-x="0"
     inkscape:window-y="25"
     inkscape:window-maximized="0"
     fit-margin-top="9"
     fit-margin-left="9"
     fit-margin-right="9"
     fit-margin-bottom="9"
     inkscape:snap-grids="true"
     inkscape:document-rotation="0">
    <inkscape:grid
       type="xygrid"
       id="grid3355"
       originx="-219.6788"
       originy="-27.122806" />
  </sodipodi:namedview>
  <metadata
     id="metadata7">
    <rdf:RDF>
      <cc:Work
         rdf:about="">
        <dc:format>image/svg+xml</dc:format>
        <dc:type
           rdf:resource="http://purl.org/dc/dcmitype/StillImage" />
        <dc:title />
      </cc:Work>
    </rdf:RDF>
  </metadata>
  <g
     inkscape:label="Layer 1"
     inkscape:groupmode="layer"
     id="layer1"
     transform="translate(-108.07793,-950.2567)">
    <path
       inkscape:connector-curvature="0"
       id="path3440"
       d="m 234.44756,1082.6828 -57.91059,33.4347 c -57.35514,33.114 -59.2067,33.114 -59.2067,33.114"
       style="fill:none;fill-rule:evenodd;stroke:#000000;stroke-width:1.99999988;stroke-linecap:butt;stroke-linejoin:miter;stroke-miterlimit:4;stroke-dasharray:1.99999999, 1.99999999000000006;stroke-dashoffset:0;stroke-opacity:1;"
       inkscape:transform-center-x="40.940557"
       inkscape:transform-center-y="23.841246" />
    <path
       inkscape:connector-curvature="0"
       id="path3438"
       d="m 234.10991,1082.5749 57.9106,33.4347 c 54.07346,31.2194 54.07346,33.2219 54.07346,33.2219"
       style="fill:none;fill-rule:evenodd;stroke:#000000;stroke-width:1.99999988;stroke-linecap:butt;stroke-linejoin:miter;stroke-miterlimit:4;stroke-dasharray:1.99999999, 1.99999999000000006;stroke-dashoffset:0;stroke-opacity:1;"
       inkscape:transform-center-y="23.688046"
       inkscape:transform-center-x="-41.028951" />
    <path
       inkscape:transform-center-y="8.4627917"
       inkscape:transform-center-x="-19.500016"
       sodipodi:nodetypes="sssss"
       inkscape:connector-curvature="0"
       id="path5027-8"
       d="m 189.64213,1096.9249 c 9.86481,-4.8518 19.70207,10.867 10.33329,17.8978 -19.79648,14.8565 -49.45949,1.7244 -72.09906,17.7627 -9.52389,6.7469 -0.42944,22.3037 10.33329,17.8978 22.73613,-9.3073 26.34038,-41.2172 51.43248,-53.5583 z"
       style="fill:url(#linearGradient5037);fill-opacity:1;fill-rule:evenodd;stroke:none;stroke-width:2;stroke-linecap:butt;stroke-linejoin:miter;stroke-miterlimit:4;stroke-dasharray:none;stroke-opacity:1;" />
    <path
       inkscape:transform-center-y="8.4627917"
       inkscape:transform-center-x="-19.500016"
       sodipodi:nodetypes="sssss"
       inkscape:connector-curvature="0"
       id="path5027-0"
       d="m 268.14362,1113.8917 c -9.13417,-6.1173 -0.43996,-22.496 10.33329,-17.8978 22.76436,9.716 26.22315,41.971 51.43248,53.5583 10.60499,4.8744 19.53029,-10.78 10.33329,-17.8978 -19.42841,-15.0364 -48.86529,-2.2029 -72.09906,-17.7627 z"
       style="fill:url(#linearGradient4972);fill-opacity:1;fill-rule:evenodd;stroke:none;stroke-width:2;stroke-linecap:butt;stroke-linejoin:miter;stroke-miterlimit:4;stroke-dasharray:none;stroke-opacity:1;" />
    <path
       style="fill:none;fill-rule:evenodd;stroke:#000000;stroke-width:1.99999988;stroke-linecap:butt;stroke-linejoin:miter;stroke-miterlimit:4;stroke-dasharray:1.99999999, 1.99999999000000006;stroke-dashoffset:0;stroke-opacity:1;"
       d="m 234.18541,1015.8363 0,66.8694"
       id="path3436"
       inkscape:connector-curvature="0" />
    <g
       transform="matrix(0.70388829,0,0,0.70388829,487.95299,338.42869)"
       id="g4364">
      <path
         inkscape:connector-curvature="0"
         style="opacity:1;fill:url(#linearGradient4962);fill-opacity:1;fill-rule:evenodd;stroke:none;stroke-width:1;stroke-miterlimit:4;stroke-dasharray:none;stroke-dashoffset:0;stroke-opacity:1;"
         d="m -394.97656,198.25391 c -9.04726,-0.1172 -18.25018,3.77851 -19.54688,12.03906 -2.80835,17.89044 8.52505,33.75448 19.60938,50.24609 10.22203,-15.34973 20.18456,-31.37305 18.55078,-50.24609 -0.67451,-7.79178 -9.56602,-11.92187 -18.61328,-12.03906 z m 0.0625,62.28515 c -0.0247,0.0371 -0.0495,0.0742 -0.0742,0.11133 h 0.14844 c -0.0249,-0.037 -0.0494,-0.0743 -0.0742,-0.11133 z"
         transform="translate(33.452157,796.72983)"
         id="rect3473" />
      <path
         style="opacity:1;fill:url(#linearGradient4964);fill-opacity:1;fill-rule:evenodd;stroke:none;stroke-width:1;stroke-miterlimit:4;stroke-dasharray:none;stroke-dashoffset:0;stroke-opacity:1;"
         d="m -361.84669,1057.3802 c -5.01754,7.532 -10.16054,14.7031 -8.73331,22.785 1.2925,7.319 16.16733,7.3811 17.05972,0 1.03175,-8.5337 -3.55767,-15.7866 -8.26005,-22.785 h -0.0664 z"
         id="rect3466"
         inkscape:connector-curvature="0" />
    </g>
    <path
       id="path4370"
       d="m 271.91262,1104.3659 c 3.25557,-5.4739 4.11972,-12.4549 -0.45942,-16.1526 -9.91737,-8.0084 -23.57657,-6.683 -37.53068,-5.7302 5.75938,11.6334 12.02071,23.3457 24.10043,28.9921 4.98714,2.3311 10.6341,-1.6355 13.88967,-7.1093 z m -37.9901,-21.8828 c -0.0139,-0.028 -0.0278,-0.056 -0.0417,-0.084 l -0.0522,0.091 c 0.0313,0 0.0627,0 0.094,-0.01 z"
       style="fill:url(#linearGradient4966);fill-opacity:1;fill-rule:evenodd;stroke:none;stroke-width:0.703888;stroke-miterlimit:4;stroke-dasharray:none;stroke-dashoffset:0;stroke-opacity:1;"
       inkscape:connector-curvature="0" />
    <path
       inkscape:connector-curvature="0"
       id="path4372"
       d="m 233.99009,1082.2094 c -2.8255,-5.7095 -5.38684,-11.3684 -10.81576,-13.3428 -4.91644,-1.788 -10.1894,7.2577 -6.00406,10.3994 4.83889,3.6323 10.87537,3.3873 16.79647,2.9838 l 0.0234,-0.041 z"
       style="fill:url(#linearGradient4968);fill-opacity:1;fill-rule:evenodd;stroke:none;stroke-width:0.703888;stroke-miterlimit:4;stroke-dasharray:none;stroke-dashoffset:0;stroke-opacity:1;" />
    <path
       id="path4380"
       d="m 195.90263,1104.8595 c 3.11268,5.5563 8.72636,9.7952 14.21824,7.6784 11.89413,-4.5845 17.57589,-17.0764 23.72786,-29.6374 -12.95455,-0.8289 -26.22838,-1.2626 -37.15811,6.3756 -4.51236,3.1534 -3.90069,10.0271 -0.78799,15.5834 z m 37.9461,-21.959 c 0.0313,0 0.0627,0 0.094,0.01 l -0.0522,-0.091 c -0.0138,0.028 -0.0279,0.056 -0.0418,0.084 z"
       style="fill:url(#linearGradient4318);fill-opacity:1;fill-rule:evenodd;stroke:none;stroke-width:0.703888;stroke-miterlimit:4;stroke-dasharray:none;stroke-dashoffset:0;stroke-opacity:1;"
       inkscape:connector-curvature="0" />
    <path
       inkscape:connector-curvature="0"
       id="path4382"
       d="m 234.05201,1083.0959 c 6.35729,0.4078 12.53873,1.019 16.96303,-2.6954 4.00667,-3.3637 -1.19058,-12.4531 -6.00406,-10.3993 -5.56514,2.3744 -8.37118,7.7247 -10.98233,13.0542 l 0.0234,0.041 z"
       style="fill:url(#linearGradient4362);fill-opacity:1;fill-rule:evenodd;stroke:none;stroke-width:0.703888;stroke-miterlimit:4;stroke-dasharray:none;stroke-dashoffset:0;stroke-opacity:1;" />
    <g
       aria-label="+"
       id="text4456"
       style="font-style:normal;font-variant:normal;font-weight:normal;font-stretch:normal;font-size:24px;line-height:0%;font-family:'EB Garamond';-inkscape-font-specification:'EB Garamond, Normal';font-variant-ligatures:normal;font-variant-caps:normal;font-variant-numeric:normal;font-variant-east-asian:normal;text-align:center;letter-spacing:0px;word-spacing:0px;text-anchor:middle;fill:#000000;fill-opacity:1;stroke:none;stroke-width:0.703888px;stroke-linecap:butt;stroke-linejoin:miter;stroke-opacity:1">
      <path
         d="m 233.11625,1057.5578 q -0.096,0 -0.192,-0.12 -0.096,-0.096 -0.096,-0.216 v -5.064 q 0,-0.12 -0.096,-0.12 h -4.848 q -0.12,0 -0.24,-0.096 -0.096,-0.096 -0.096,-0.192 0,-0.12 0.048,-0.336 0.072,-0.216 0.192,-0.384 0.12,-0.192 0.336,-0.192 h 4.536 q 0.12,0 0.144,-0.048 0.024,-0.048 0.024,-0.144 v -4.104 q 0,-0.264 0.24,-0.432 0.24,-0.168 0.504,-0.24 0.288,-0.072 0.36,-0.072 0.12,0 0.216,0.096 0.12,0.096 0.12,0.216 v 4.584 q 0,0.144 0.048,0.144 h 4.92 q 0.12,0 0.216,0.072 0.096,0.048 0.096,0.168 0,0.312 -0.216,0.648 -0.192,0.312 -0.528,0.312 h -4.44 q -0.096,0 -0.096,0.096 v 4.848 q 0,0.24 -0.24,0.384 -0.24,0.12 -0.528,0.144 -0.264,0.048 -0.384,0.048 z"
         style="font-style:normal;font-variant:normal;font-weight:normal;font-stretch:normal;font-size:24px;line-height:1.25;font-family:'EB Garamond';-inkscape-font-specification:'EB Garamond, Normal';font-variant-ligatures:normal;font-variant-caps:normal;font-variant-numeric:normal;font-variant-east-asian:normal;stroke-width:0.703888px"
         id="path112" />
    </g>
    <g
       aria-label="+"
       id="text4460"
       style="font-style:normal;font-variant:normal;font-weight:normal;font-stretch:normal;font-size:24px;line-height:0%;font-family:'EB Garamond';-inkscape-font-specification:'EB Garamond, Normal';font-variant-ligatures:normal;font-variant-caps:normal;font-variant-numeric:normal;font-variant-east-asian:normal;text-align:center;letter-spacing:0px;word-spacing:0px;text-anchor:middle;fill:#000000;fill-opacity:1;stroke:none;stroke-width:0.703888px;stroke-linecap:butt;stroke-linejoin:miter;stroke-opacity:1">
      <path
         d="m 261.27178,1103.7911 q -0.096,0 -0.192,-0.12 -0.096,-0.096 -0.096,-0.216 v -5.064 q 0,-0.12 -0.096,-0.12 h -4.848 q -0.12,0 -0.24,-0.096 -0.096,-0.096 -0.096,-0.192 0,-0.12 0.048,-0.336 0.072,-0.216 0.192,-0.384 0.12,-0.192 0.336,-0.192 h 4.536 q 0.12,0 0.144,-0.048 0.024,-0.048 0.024,-0.144 v -4.104 q 0,-0.264 0.24,-0.432 0.24,-0.168 0.504,-0.24 0.288,-0.072 0.36,-0.072 0.12,0 0.216,0.096 0.12,0.096 0.12,0.216 v 4.584 q 0,0.144 0.048,0.144 h 4.92 q 0.12,0 0.216,0.072 0.096,0.048 0.096,0.168 0,0.312 -0.216,0.648 -0.192,0.312 -0.528,0.312 h -4.44 q -0.096,0 -0.096,0.096 v 4.848 q 0,0.24 -0.24,0.384 -0.24,0.12 -0.528,0.144 -0.264,0.048 -0.384,0.048 z"
         style="font-style:normal;font-variant:normal;font-weight:normal;font-stretch:normal;font-size:24px;line-height:1.25;font-family:'EB Garamond';-inkscape-font-specification:'EB Garamond, Normal';font-variant-ligatures:normal;font-variant-caps:normal;font-variant-numeric:normal;font-variant-east-asian:normal;stroke-width:0.703888px"
         id="path109" />
    </g>
    <g
       aria-label="+"
       id="text4464"
       style="font-style:normal;font-variant:normal;font-weight:normal;font-stretch:normal;font-size:24px;line-height:0%;font-family:'EB Garamond';-inkscape-font-specification:'EB Garamond, Normal';font-variant-ligatures:normal;font-variant-caps:normal;font-variant-numeric:normal;font-variant-east-asian:normal;text-align:center;letter-spacing:0px;word-spacing:0px;text-anchor:middle;fill:#000000;fill-opacity:1;stroke:none;stroke-width:0.703888px;stroke-linecap:butt;stroke-linejoin:miter;stroke-opacity:1">
      <path
         d="m 208.96072,1103.7911 q -0.096,0 -0.192,-0.12 -0.096,-0.096 -0.096,-0.216 v -5.064 q 0,-0.12 -0.096,-0.12 h -4.848 q -0.12,0 -0.24,-0.096 -0.096,-0.096 -0.096,-0.192 0,-0.12 0.048,-0.336 0.072,-0.216 0.192,-0.384 0.12,-0.192 0.336,-0.192 h 4.536 q 0.12,0 0.144,-0.048 0.024,-0.048 0.024,-0.144 v -4.104 q 0,-0.264 0.24,-0.432 0.24,-0.168 0.504,-0.24 0.288,-0.072 0.36,-0.072 0.12,0 0.216,0.096 0.12,0.096 0.12,0.216 v 4.584 q 0,0.144 0.048,0.144 h 4.92 q 0.12,0 0.216,0.072 0.096,0.048 0.096,0.168 0,0.312 -0.216,0.648 -0.192,0.312 -0.528,0.312 h -4.44 q -0.096,0 -0.096,0.096 v 4.848 q 0,0.24 -0.24,0.384 -0.24,0.12 -0.528,0.144 -0.264,0.048 -0.384,0.048 z"
         style="font-style:normal;font-variant:normal;font-weight:normal;font-stretch:normal;font-size:24px;line-height:1.25;font-family:'EB Garamond';-inkscape-font-specification:'EB Garamond, Normal';font-variant-ligatures:normal;font-variant-caps:normal;font-variant-numeric:normal;font-variant-east-asian:normal;stroke-width:0.703888px"
         id="path106" />
    </g>
    <g
       aria-label="-"
       id="text4468"
       style="font-style:normal;font-variant:normal;font-weight:normal;font-stretch:normal;font-size:24px;line-height:0%;font-family:'EB Garamond';-inkscape-font-specification:'EB Garamond, Normal';font-variant-ligatures:normal;font-variant-caps:normal;font-variant-numeric:normal;font-variant-east-asian:normal;text-align:center;letter-spacing:0px;word-spacing:0px;text-anchor:middle;fill:#000000;fill-opacity:1;stroke:none;stroke-width:0.703888px;stroke-linecap:butt;stroke-linejoin:miter;stroke-opacity:1">
      <path
         d="m 218.90737,1076.4024 q -0.144,0 -0.144,-0.144 0,-0.408 0.096,-0.84 0.12,-0.432 0.288,-0.456 1.152,-0.168 2.304,-0.312 1.152,-0.168 2.304,-0.288 0.072,0 0.12,0.048 0.072,0.024 0.072,0.096 0,0.456 -0.12,0.864 -0.096,0.384 -0.384,0.432 -1.08,0.168 -2.208,0.336 -1.104,0.144 -2.328,0.264 z"
         style="font-style:normal;font-variant:normal;font-weight:normal;font-stretch:normal;font-size:24px;line-height:1.25;font-family:'EB Garamond';-inkscape-font-specification:'EB Garamond, Normal';font-variant-ligatures:normal;font-variant-caps:normal;font-variant-numeric:normal;font-variant-east-asian:normal;stroke-width:0.703888px"
         id="path103" />
    </g>
    <g
       aria-label="-"
       id="text4472"
       style="font-style:normal;font-variant:normal;font-weight:normal;font-stretch:normal;font-size:24px;line-height:0%;font-family:'EB Garamond';-inkscape-font-specification:'EB Garamond, Normal';font-variant-ligatures:normal;font-variant-caps:normal;font-variant-numeric:normal;font-variant-east-asian:normal;text-align:center;letter-spacing:0px;word-spacing:0px;text-anchor:middle;fill:#000000;fill-opacity:1;stroke:none;stroke-width:0.703888px;stroke-linecap:butt;stroke-linejoin:miter;stroke-opacity:1">
      <path
         d="m 243.0629,1076.4024 q -0.144,0 -0.144,-0.144 0,-0.408 0.096,-0.84 0.12,-0.432 0.288,-0.456 1.152,-0.168 2.304,-0.312 1.152,-0.168 2.304,-0.288 0.072,0 0.12,0.048 0.072,0.024 0.072,0.096 0,0.456 -0.12,0.864 -0.096,0.384 -0.384,0.432 -1.08,0.168 -2.208,0.336 -1.104,0.144 -2.328,0.264 z"
         style="font-style:normal;font-variant:normal;font-weight:normal;font-stretch:normal;font-size:24px;line-height:1.25;font-family:'EB Garamond';-inkscape-font-specification:'EB Garamond, Normal';font-variant-ligatures:normal;font-variant-caps:normal;font-variant-numeric:normal;font-variant-east-asian:normal;stroke-width:0.703888px"
         id="path100" />
    </g>
    <g
       aria-label="-"
       id="text4476"
       style="font-style:normal;font-variant:normal;font-weight:normal;font-stretch:normal;font-size:24px;line-height:0%;font-family:'EB Garamond';-inkscape-font-specification:'EB Garamond, Normal';font-variant-ligatures:normal;font-variant-caps:normal;font-variant-numeric:normal;font-variant-east-asian:normal;text-align:center;letter-spacing:0px;word-spacing:0px;text-anchor:middle;fill:#000000;fill-opacity:1;stroke:none;stroke-width:0.703888px;stroke-linecap:butt;stroke-linejoin:miter;stroke-opacity:1">
      <path
         d="m 230.98513,1095.5191 q -0.144,0 -0.144,-0.144 0,-0.408 0.096,-0.84 0.12,-0.432 0.288,-0.456 1.152,-0.168 2.304,-0.312 1.152,-0.168 2.304,-0.288 0.072,0 0.12,0.048 0.072,0.024 0.072,0.096 0,0.456 -0.12,0.864 -0.096,0.384 -0.384,0.432 -1.08,0.168 -2.208,0.336 -1.104,0.144 -2.328,0.264 z"
         style="font-style:normal;font-variant:normal;font-weight:normal;font-stretch:normal;font-size:24px;line-height:1.25;font-family:'EB Garamond';-inkscape-font-specification:'EB Garamond, Normal';font-variant-ligatures:normal;font-variant-caps:normal;font-variant-numeric:normal;font-variant-east-asian:normal;stroke-width:0.703888px"
         id="path97" />
    </g>
    <path
       inkscape:transform-center-y="8.4627917"
       inkscape:transform-center-x="-19.500016"
       sodipodi:nodetypes="sssss"
       inkscape:connector-curvature="0"
       id="path5027"
       d="m 244.42082,1038.7117 c -0.73064,10.9691 -19.26211,11.629 -20.66658,0 -2.96788,-24.5725 23.23634,-43.69538 20.66658,-71.32095 -1.0811,-11.62142 -19.10085,-11.52376 -20.66658,0 -3.30771,24.34371 22.52492,43.42005 20.66658,71.32095 z"
       style="fill:url(#linearGradient4970);fill-opacity:1;fill-rule:evenodd;stroke:none;stroke-width:2;stroke-linecap:butt;stroke-linejoin:miter;stroke-miterlimit:4;stroke-dasharray:none;stroke-opacity:1;" />
    <g
       aria-label="+"
       transform="matrix(0,-1,-1,0,0,0)"
       id="text5029"
       style="font-style:normal;font-variant:normal;font-weight:normal;font-stretch:normal;font-size:24px;line-height:0%;font-family:'EB Garamond';-inkscape-font-specification:'EB Garamond, Normal';font-variant-ligatures:normal;font-variant-caps:normal;font-variant-numeric:normal;font-variant-east-asian:normal;text-align:center;letter-spacing:0px;word-spacing:0px;text-anchor:middle;fill:#000000;fill-opacity:1;stroke:none;stroke-width:1px;stroke-linecap:butt;stroke-linejoin:miter;stroke-opacity:1">
      <path
         d="m -1035.3815,-228.14989 q -0.096,0 -0.192,-0.12 -0.096,-0.096 -0.096,-0.216 v -5.064 q 0,-0.12 -0.096,-0.12 h -4.848 q -0.12,0 -0.24,-0.096 -0.096,-0.096 -0.096,-0.192 0,-0.12 0.048,-0.336 0.072,-0.216 0.192,-0.384 0.12,-0.192 0.336,-0.192 h 4.536 q 0.12,0 0.144,-0.048 0.024,-0.048 0.024,-0.144 v -4.104 q 0,-0.264 0.24,-0.432 0.24,-0.168 0.504,-0.24 0.288,-0.072 0.36,-0.072 0.12,0 0.216,0.096 0.12,0.096 0.12,0.216 v 4.584 q 0,0.144 0.048,0.144 h 4.92 q 0.12,0 0.216,0.072 0.096,0.048 0.096,0.168 0,0.312 -0.216,0.648 -0.192,0.312 -0.528,0.312 h -4.44 q -0.096,0 -0.096,0.096 v 4.848 q 0,0.24 -0.24,0.384 -0.24,0.12 -0.528,0.144 -0.264,0.048 -0.384,0.048 z"
         style="font-style:normal;font-variant:normal;font-weight:normal;font-stretch:normal;font-size:24px;line-height:1.25;font-family:'EB Garamond';-inkscape-font-specification:'EB Garamond, Normal';font-variant-ligatures:normal;font-variant-caps:normal;font-variant-numeric:normal;font-variant-east-asian:normal"
         id="path94" />
    </g>
    <g
       aria-label="-"
       transform="scale(1.440381,-0.69426076)"
       id="text5033"
       style="font-style:normal;font-variant:normal;font-weight:normal;font-stretch:normal;font-size:24px;line-height:0%;font-family:'EB Garamond';-inkscape-font-specification:'EB Garamond, Normal';font-variant-ligatures:normal;font-variant-caps:normal;font-variant-numeric:normal;font-variant-east-asian:normal;text-align:center;letter-spacing:0px;word-spacing:0px;text-anchor:middle;fill:#000000;fill-opacity:1;stroke:none;stroke-width:1px;stroke-linecap:butt;stroke-linejoin:miter;stroke-opacity:1">
      <path
         d="m 160.02977,-1397.5176 q -0.144,0 -0.144,-0.144 0,-0.408 0.096,-0.84 0.12,-0.432 0.288,-0.456 1.152,-0.168 2.304,-0.312 1.152,-0.168 2.304,-0.288 0.072,0 0.12,0.048 0.072,0.024 0.072,0.096 0,0.456 -0.12,0.864 -0.096,0.384 -0.384,0.432 -1.08,0.168 -2.208,0.336 -1.104,0.144 -2.328,0.264 z"
         style="font-style:normal;font-variant:normal;font-weight:normal;font-stretch:normal;font-size:24px;line-height:1.25;font-family:'EB Garamond';-inkscape-font-specification:'EB Garamond, Normal';font-variant-ligatures:normal;font-variant-caps:normal;font-variant-numeric:normal;font-variant-east-asian:normal"
         id="path91" />
    </g>
    <g
       aria-label="+"
       transform="scale(1,-1)"
       id="text5029-9"
       style="font-style:normal;font-variant:normal;font-weight:normal;font-stretch:normal;font-size:24px;line-height:0%;font-family:'EB Garamond';-inkscape-font-specification:'EB Garamond, Normal';font-variant-ligatures:normal;font-variant-caps:normal;font-variant-numeric:normal;font-variant-east-asian:normal;text-align:center;letter-spacing:0px;word-spacing:0px;text-anchor:middle;fill:#000000;fill-opacity:1;stroke:none;stroke-width:1px;stroke-linecap:butt;stroke-linejoin:miter;stroke-opacity:1">
      <path
         d="m 277.02044,-1101.6282 q -0.096,0 -0.192,-0.12 -0.096,-0.096 -0.096,-0.216 v -5.064 q 0,-0.12 -0.096,-0.12 h -4.848 q -0.12,0 -0.24,-0.096 -0.096,-0.096 -0.096,-0.192 0,-0.12 0.048,-0.336 0.072,-0.216 0.192,-0.384 0.12,-0.192 0.336,-0.192 h 4.536 q 0.12,0 0.144,-0.048 0.024,-0.048 0.024,-0.144 v -4.104 q 0,-0.264 0.24,-0.432 0.24,-0.168 0.504,-0.24 0.288,-0.072 0.36,-0.072 0.12,0 0.216,0.096 0.12,0.096 0.12,0.216 v 4.584 q 0,0.144 0.048,0.144 h 4.92 q 0.12,0 0.216,0.072 0.096,0.048 0.096,0.168 0,0.312 -0.216,0.648 -0.192,0.312 -0.528,0.312 h -4.44 q -0.096,0 -0.096,0.096 v 4.848 q 0,0.24 -0.24,0.384 -0.24,0.12 -0.528,0.144 -0.264,0.048 -0.384,0.048 z"
         style="font-style:normal;font-variant:normal;font-weight:normal;font-stretch:normal;font-size:24px;line-height:1.25;font-family:'EB Garamond';-inkscape-font-specification:'EB Garamond, Normal';font-variant-ligatures:normal;font-variant-caps:normal;font-variant-numeric:normal;font-variant-east-asian:normal"
         id="path88" />
    </g>
    <g
       aria-label="-"
       transform="scale(1.440381,-0.69426076)"
       id="text5033-6"
       style="font-style:normal;font-variant:normal;font-weight:normal;font-stretch:normal;font-size:24px;line-height:0%;font-family:'EB Garamond';-inkscape-font-specification:'EB Garamond, Normal';font-variant-ligatures:normal;font-variant-caps:normal;font-variant-numeric:normal;font-variant-east-asian:normal;text-align:center;letter-spacing:0px;word-spacing:0px;text-anchor:middle;fill:#000000;fill-opacity:1;stroke:none;stroke-width:1px;stroke-linecap:butt;stroke-linejoin:miter;stroke-opacity:1">
      <path
         d="m 227.45314,-1641.0699 q -0.144,0 -0.144,-0.144 0,-0.408 0.096,-0.84 0.12,-0.432 0.288,-0.456 1.152,-0.168 2.304,-0.312 1.152,-0.168 2.304,-0.288 0.072,0 0.12,0.048 0.072,0.024 0.072,0.096 0,0.456 -0.12,0.864 -0.096,0.384 -0.384,0.432 -1.08,0.168 -2.208,0.336 -1.104,0.144 -2.328,0.264 z"
         style="font-style:normal;font-variant:normal;font-weight:normal;font-stretch:normal;font-size:24px;line-height:1.25;font-family:'EB Garamond';-inkscape-font-specification:'EB Garamond, Normal';font-variant-ligatures:normal;font-variant-caps:normal;font-variant-numeric:normal;font-variant-east-asian:normal"
         id="path85" />
    </g>
    <g
       aria-label="+"
       transform="scale(-1,1)"
       id="text5029-7"
       style="font-style:normal;font-variant:normal;font-weight:normal;font-stretch:normal;font-size:24px;line-height:0%;font-family:'EB Garamond';-inkscape-font-specification:'EB Garamond, Normal';font-variant-ligatures:normal;font-variant-caps:normal;font-variant-numeric:normal;font-variant-east-asian:normal;text-align:center;letter-spacing:0px;word-spacing:0px;text-anchor:middle;fill:#000000;fill-opacity:1;stroke:none;stroke-width:1px;stroke-linecap:butt;stroke-linejoin:miter;stroke-opacity:1">
      <path
         d="m -193.24833,1114.3545 q -0.096,0 -0.192,-0.12 -0.096,-0.096 -0.096,-0.216 v -5.064 q 0,-0.12 -0.096,-0.12 h -4.848 q -0.12,0 -0.24,-0.096 -0.096,-0.096 -0.096,-0.192 0,-0.12 0.048,-0.336 0.072,-0.216 0.192,-0.384 0.12,-0.192 0.336,-0.192 h 4.536 q 0.12,0 0.144,-0.048 0.024,-0.048 0.024,-0.144 v -4.104 q 0,-0.264 0.24,-0.432 0.24,-0.168 0.504,-0.24 0.288,-0.072 0.36,-0.072 0.12,0 0.216,0.096 0.12,0.096 0.12,0.216 v 4.584 q 0,0.144 0.048,0.144 h 4.92 q 0.12,0 0.216,0.072 0.096,0.048 0.096,0.168 0,0.312 -0.216,0.648 -0.192,0.312 -0.528,0.312 h -4.44 q -0.096,0 -0.096,0.096 v 4.848 q 0,0.24 -0.24,0.384 -0.24,0.12 -0.528,0.144 -0.264,0.048 -0.384,0.048 z"
         style="font-style:normal;font-variant:normal;font-weight:normal;font-stretch:normal;font-size:24px;line-height:1.25;font-family:'EB Garamond';-inkscape-font-specification:'EB Garamond, Normal';font-variant-ligatures:normal;font-variant-caps:normal;font-variant-numeric:normal;font-variant-east-asian:normal"
         id="path82" />
    </g>
    <g
       aria-label="-"
       transform="scale(-1.440381,0.69426076)"
       id="text5033-2"
       style="font-style:normal;font-variant:normal;font-weight:normal;font-stretch:normal;font-size:24px;line-height:0%;font-family:'EB Garamond';-inkscape-font-specification:'EB Garamond, Normal';font-variant-ligatures:normal;font-variant-caps:normal;font-variant-numeric:normal;font-variant-east-asian:normal;text-align:center;letter-spacing:0px;word-spacing:0px;text-anchor:middle;fill:#000000;fill-opacity:1;stroke:none;stroke-width:1px;stroke-linecap:butt;stroke-linejoin:miter;stroke-opacity:1">
      <path
         d="m -97.66576,1641.1084 q -0.144,0 -0.144,-0.144 0,-0.408 0.096,-0.84 0.12,-0.432 0.288,-0.456 1.152,-0.168 2.304,-0.312 1.152,-0.168 2.304,-0.288 0.072,0 0.12,0.048 0.072,0.024 0.072,0.096 0,0.456 -0.12,0.864 -0.096,0.384 -0.384,0.432 -1.08,0.168 -2.208,0.336 -1.104,0.144 -2.328,0.264 z"
         style="font-style:normal;font-variant:normal;font-weight:normal;font-stretch:normal;font-size:24px;line-height:1.25;font-family:'EB Garamond';-inkscape-font-specification:'EB Garamond, Normal';font-variant-ligatures:normal;font-variant-caps:normal;font-variant-numeric:normal;font-variant-east-asian:normal"
         id="path79" />
    </g>
  </g>
</svg>
