<?xml version="1.0" encoding="UTF-8" standalone="no"?>
<svg
   version="1.1"
   width="320"
   height="300"
   id="svg120"
   sodipodi:docname="VFPt_Earths_Magnetic_Field_Confusion_overlay.svg"
   inkscape:version="1.3.2 (091e20e, 2023-11-25)"
   xmlns:inkscape="http://www.inkscape.org/namespaces/inkscape"
   xmlns:sodipodi="http://sodipodi.sourceforge.net/DTD/sodipodi-0.dtd"
   xmlns:xlink="http://www.w3.org/1999/xlink"
   xmlns="http://www.w3.org/2000/svg"
   xmlns:svg="http://www.w3.org/2000/svg"
   xmlns:rdf="http://www.w3.org/1999/02/22-rdf-syntax-ns#"
   xmlns:cc="http://creativecommons.org/ns#"
   xmlns:dc="http://purl.org/dc/elements/1.1/">
  <metadata
     id="metadata124">
    <rdf:RDF>
      <cc:Work
         rdf:about="">
        <dc:format>image/svg+xml</dc:format>
        <dc:type
           rdf:resource="http://purl.org/dc/dcmitype/StillImage" />
        <dc:title>VFPt_Earths_Magnetic_Field_Confusion_overlay</dc:title>
      </cc:Work>
    </rdf:RDF>
  </metadata>
  <sodipodi:namedview
     pagecolor="#ffffff"
     bordercolor="#666666"
     borderopacity="1"
     objecttolerance="10"
     gridtolerance="10"
     guidetolerance="10"
     inkscape:pageopacity="0"
     inkscape:pageshadow="2"
     inkscape:window-width="1512"
     inkscape:window-height="945"
     id="namedview122"
     showgrid="false"
     inkscape:zoom="1.5733333"
     inkscape:cx="300.9534"
     inkscape:cy="202.11865"
     inkscape:window-x="1920"
     inkscape:window-y="89"
     inkscape:window-maximized="0"
     inkscape:current-layer="svg120"
     inkscape:showpageshadow="2"
     inkscape:pagecheckerboard="0"
     inkscape:deskcolor="#d1d1d1" />
  <title
     id="title2">VFPt_Earths_Magnetic_Field_Confusion_overlay</title>
  <desc
     id="desc4">VFPt_Earths_Magnetic_Field_Confusion_overlay
created with VectorFieldPlot 1.3
https://commons.wikimedia.org/wiki/User:Geek3/VectorFieldPlot

about: https://commons.wikimedia.org/wiki/File:VFPt_Earths_Magnetic_Field_Confusion_overlay.svg
rights: GNU Free Documentation license,
        Creative Commons Attribution ShareAlike license
  </desc>
  <defs
     id="defs7">
    <path
       id="arrow1"
       stroke="none"
       fill="#000000"
       transform="scale(0.0666666666667)"
       d="M 0.3,0 L -2.2,2.25 L 3.8,0 L -2.2,-2.25 L 0.3,0 Z" />
    <radialGradient
       r="405.35715"
       fy="495.30679"
       fx="107.20115"
       cy="495.30679"
       cx="107.20115"
       gradientTransform="matrix(1.150346,0,0,1.150346,-16.1173,-74.46758)"
       gradientUnits="userSpaceOnUse"
       id="radialGradient24414"
       xlink:href="#linearGradient13206"
       inkscape:collect="always" />
    <linearGradient
       id="linearGradient13206">
      <stop
         style="stop-color:#f2c41f;stop-opacity:1;"
         offset="0"
         id="stop13208" />
      <stop
         style="stop-color:#b9380a;stop-opacity:1;"
         offset="1"
         id="stop2186" />
    </linearGradient>
    <radialGradient
       r="55.703125"
       fy="407.22339"
       fx="209.15753"
       cy="407.22339"
       cx="209.15753"
       gradientTransform="matrix(2.971416,0.433793,-0.445445,3.041429,176.2001,-314.492)"
       gradientUnits="userSpaceOnUse"
       id="radialGradient24416"
       xlink:href="#linearGradient5142"
       inkscape:collect="always" />
    <linearGradient
       id="linearGradient5142">
      <stop
         id="stop5144"
         offset="0"
         style="stop-color:#bfd1eb;stop-opacity:1;" />
      <stop
         style="stop-color:#315c9b;stop-opacity:1;"
         offset="0.61538464"
         id="stop5150" />
      <stop
         id="stop5146"
         offset="1"
         style="stop-color:#11233a;stop-opacity:1;" />
    </linearGradient>
    <radialGradient
       r="406.37308"
       fy="504.90085"
       fx="136.1499"
       cy="504.90085"
       cx="136.1499"
       gradientUnits="userSpaceOnUse"
       id="radialGradient24418"
       xlink:href="#linearGradient4437"
       inkscape:collect="always" />
    <linearGradient
       id="linearGradient4437"
       inkscape:collect="always">
      <stop
         id="stop4439"
         offset="0"
         style="stop-color:#ffffff;stop-opacity:0.85624999" />
      <stop
         id="stop4441"
         offset="1"
         style="stop-color:#ffffff;stop-opacity:0;" />
    </linearGradient>
  </defs>
  <g
     style="fill:none;stroke:#000000;stroke-width:0.13333334;stroke-linecap:round;stroke-linejoin:round"
     id="fieldlines"
     transform="matrix(15,0,0,-15,160,150)">
    <g
       id="fieldline1">
      <path
         d="M 0.854,0.311 L 0.998,-0.074 L 1.126,-0.397 L 1.233,-0.650 L 1.325,-0.851 L 1.406,-1.011 L 1.480,-1.141 L 1.631,-0.795 L 1.699,-0.625 L 1.748,-0.478 L 1.786,-0.342 L 1.814,-0.213 L 1.833,-0.089 L 1.843,0.032 L 1.844,0.149 L 1.838,0.263 L 1.824,0.374 L 1.802,0.482 L 1.772,0.587 L 1.735,0.690 L 1.690,0.789 L 1.638,0.886 L 1.577,0.980 L 1.509,1.071 L 1.432,1.160 L 1.347,1.246 L 1.252,1.329 L 1.148,1.410 L 1.032,1.490 L 0.900,1.570 L 0.739,1.658 L 0.400,1.825 L 0.427,1.678 L 0.469,1.503 L 0.527,1.291 L 0.608,1.027 L 0.717,0.698 L 0.854,0.311 Z"
         id="path1" />
      <g
         id="arrows1">
        <use
           xlink:href="#arrow1"
           transform="translate(1.736,0.630) rotate(115.68) scale(2.4)"
           id="use1" />
      </g>
    </g>
    <g
       id="fieldline2">
      <path
         d="M 0.683,0.249 L 0.844,-0.182 L 0.980,-0.524 L 1.090,-0.782 L 1.182,-0.978 L 1.262,-1.131 L 1.333,-1.252 L 1.398,-1.347 L 1.458,-1.420 L 1.512,-1.475 L 1.560,-1.513 L 1.598,-1.535 L 1.623,-1.542 L 1.651,-1.535 L 1.773,-1.490 L 1.940,-1.419 L 2.109,-1.338 L 2.271,-1.252 L 2.423,-1.161 L 2.566,-1.066 L 2.700,-0.967 L 2.824,-0.864 L 2.940,-0.759 L 3.047,-0.650 L 3.144,-0.539 L 3.233,-0.425 L 3.313,-0.308 L 3.384,-0.191 L 3.446,-0.071 L 3.499,0.049 L 3.544,0.170 L 3.579,0.292 L 3.607,0.413 L 3.625,0.534 L 3.635,0.655 L 3.636,0.774 L 3.629,0.892 L 3.614,1.008 L 3.590,1.122 L 3.558,1.233 L 3.519,1.342 L 3.471,1.448 L 3.416,1.551 L 3.353,1.649 L 3.283,1.744 L 3.205,1.835 L 3.120,1.921 L 3.028,2.002 L 2.930,2.077 L 2.824,2.147 L 2.712,2.212 L 2.594,2.270 L 2.470,2.321 L 2.340,2.366 L 2.204,2.403 L 2.063,2.434 L 1.916,2.456 L 1.765,2.471 L 1.608,2.478 L 1.447,2.476 L 1.281,2.466 L 1.110,2.447 L 0.935,2.418 L 0.755,2.381 L 0.574,2.334 L 0.400,2.281 L 0.278,2.237 L 0.252,2.224 L 0.238,2.203 L 0.222,2.162 L 0.210,2.102 L 0.204,2.025 L 0.206,1.930 L 0.217,1.816 L 0.240,1.678 L 0.277,1.509 L 0.333,1.300 L 0.414,1.032 L 0.530,0.682 L 0.683,0.249 Z"
         id="path2" />
      <g
         id="arrows2">
        <use
           xlink:href="#arrow1"
           transform="translate(3.522,1.280) rotate(115.21) scale(2.4)"
           id="use2" />
      </g>
    </g>
    <g
       id="fieldline3">
      <path
         d="M 0.513,0.187 L 0.689,-0.287 L 0.831,-0.646 L 0.942,-0.908 L 1.033,-1.104 L 1.113,-1.257 L 1.185,-1.379 L 1.252,-1.477 L 1.316,-1.557 L 1.378,-1.623 L 1.441,-1.677 L 1.508,-1.723 L 1.580,-1.763 L 1.662,-1.798 L 1.761,-1.830 L 1.880,-1.860 L 2.023,-1.886 L 2.188,-1.907 L 2.372,-1.921 L 2.569,-1.928 L 2.775,-1.926 L 2.986,-1.916 L 3.197,-1.897 L 3.408,-1.869 L 3.617,-1.834 L 3.823,-1.790 L 4.026,-1.738 L 4.225,-1.679 L 4.419,-1.612 L 4.608,-1.538 L 4.791,-1.457 L 4.969,-1.369 L 5.141,-1.275 L 5.307,-1.174 L 5.466,-1.068 L 5.618,-0.956 L 5.762,-0.839 L 5.900,-0.718 L 6.029,-0.591 L 6.151,-0.461 L 6.265,-0.326 L 6.371,-0.188 L 6.469,-0.047 L 6.558,0.096 L 6.639,0.243 L 6.711,0.391 L 6.774,0.541 L 6.829,0.692 L 6.876,0.844 L 6.914,0.996 L 6.943,1.149 L 6.963,1.302 L 6.975,1.455 L 6.978,1.606 L 6.973,1.757 L 6.959,1.906 L 6.937,2.054 L 6.907,2.199 L 6.868,2.342 L 6.822,2.483 L 6.767,2.620 L 6.704,2.755 L 6.634,2.886 L 6.556,3.013 L 6.471,3.136 L 6.378,3.255 L 6.278,3.369 L 6.171,3.478 L 6.057,3.582 L 5.937,3.681 L 5.810,3.773 L 5.676,3.860 L 5.537,3.940 L 5.392,4.014 L 5.242,4.081 L 5.086,4.141 L 4.925,4.194 L 4.760,4.240 L 4.590,4.277 L 4.416,4.307 L 4.239,4.328 L 4.058,4.342 L 3.875,4.347 L 3.689,4.344 L 3.500,4.331 L 3.310,4.311 L 3.119,4.281 L 2.927,4.243 L 2.734,4.196 L 2.541,4.140 L 2.349,4.075 L 2.157,4.002 L 1.967,3.920 L 1.779,3.829 L 1.592,3.730 L 1.409,3.623 L 1.230,3.508 L 1.056,3.387 L 0.888,3.259 L 0.729,3.128 L 0.583,2.996 L 0.451,2.867 L 0.338,2.745 L 0.245,2.634 L 0.173,2.534 L 0.118,2.446 L 0.077,2.366 L 0.047,2.289 L 0.026,2.211 L 0.013,2.129 L 0.007,2.039 L 0.009,1.936 L 0.021,1.818 L 0.044,1.678 L 0.082,1.510 L 0.138,1.301 L 0.221,1.029 L 0.343,0.663 L 0.513,0.187 Z"
         id="path3" />
      <g
         id="arrows3">
        <use
           xlink:href="#arrow1"
           transform="translate(6.811,2.478) rotate(113.26) scale(2.4)"
           id="use3" />
      </g>
    </g>
    <g
       id="fieldline4">
      <path
         d="M 10.733,9.690 L 10.478,9.729 L 10.220,9.760 L 9.959,9.783 L 9.695,9.798 L 9.428,9.804 L 9.159,9.802 L 8.888,9.791 L 8.616,9.772 L 8.342,9.744 L 8.068,9.707 L 7.792,9.662 L 7.516,9.608 L 7.240,9.546 L 6.965,9.474 L 6.689,9.394 L 6.415,9.306 L 6.141,9.209 L 5.869,9.103 L 5.599,8.989 L 5.331,8.867 L 5.065,8.736 L 4.801,8.597 L 4.541,8.451 L 4.284,8.296 L 4.031,8.133 L 3.781,7.963 L 3.536,7.786 L 3.295,7.601 L 3.059,7.409 L 2.827,7.211 L 2.602,7.006 L 2.381,6.794 L 2.167,6.576 L 1.959,6.353 L 1.757,6.124 L 1.562,5.890 L 1.374,5.651 L 1.193,5.407 L 1.020,5.160 L 0.855,4.910 L 0.698,4.657 L 0.551,4.404 L 0.414,4.151 L 0.288,3.901 L 0.175,3.658 L 0.076,3.427 L -0.008,3.209 L -0.077,3.010 L -0.131,2.830 L -0.171,2.668 L -0.199,2.523 L -0.216,2.388 L -0.225,2.260 L -0.224,2.133 L -0.216,2.004 L -0.198,1.865 L -0.168,1.710 L -0.125,1.528 L -0.061,1.303 L 0.034,1.004 L 0.179,0.579 L 0.385,0.005 L 0.580,-0.515 L 0.722,-0.874 L 0.831,-1.129 L 0.921,-1.322 L 1.002,-1.476 L 1.078,-1.605 L 1.153,-1.717 L 1.231,-1.818 L 1.315,-1.913 L 1.408,-2.005 L 1.513,-2.097 L 1.635,-2.192 L 1.778,-2.292 L 1.945,-2.398 L 2.135,-2.508 L 2.348,-2.621 L 2.580,-2.735 L 2.830,-2.848 L 3.091,-2.957 L 3.362,-3.060 L 3.641,-3.157 L 3.925,-3.247 L 4.214,-3.330 L 4.507,-3.405 L 4.804,-3.472 L 5.102,-3.531 L 5.403,-3.581 L 5.706,-3.624 L 6.009,-3.658 L 6.314,-3.683 L 6.618,-3.700 L 6.923,-3.709 L 7.228,-3.709 L 7.532,-3.701 L 7.835,-3.684 L 8.136,-3.659 L 8.436,-3.625 L 8.734,-3.584 L 9.029,-3.534 L 9.321,-3.475 L 9.611,-3.409 L 9.897,-3.335 L 10.180,-3.254 L 10.459,-3.164 L 10.733,-3.067"
         id="path4" />
      <g
         id="arrows4">
        <use
           xlink:href="#arrow1"
           transform="translate(3.047,7.395) rotate(-139.27) scale(2.4)"
           id="use4" />
        <use
           xlink:href="#arrow1"
           transform="translate(7.088,-3.707) rotate(0.79) scale(2.4)"
           id="use5" />
      </g>
    </g>
    <g
       id="fieldline5">
      <path
         d="M 0.367,10.067 L 0.238,9.566 L 0.119,9.069 L 0.009,8.574 L -0.091,8.083 L -0.183,7.596 L -0.265,7.113 L -0.338,6.635 L -0.401,6.164 L -0.456,5.700 L -0.501,5.246 L -0.536,4.803 L -0.562,4.377 L -0.579,3.975 L -0.586,3.602 L -0.585,3.267 L -0.576,2.972 L -0.561,2.715 L -0.540,2.489 L -0.513,2.285 L -0.479,2.090 L -0.436,1.895 L -0.381,1.683 L -0.306,1.430 L -0.195,1.092 L -0.012,0.569 L 0.275,-0.222 L 0.502,-0.829 L 0.649,-1.203 L 0.760,-1.466 L 0.856,-1.674 L 0.948,-1.856 L 1.045,-2.028 L 1.151,-2.199 L 1.273,-2.381 L 1.418,-2.580 L 1.592,-2.804 L 1.797,-3.054 L 2.033,-3.328 L 2.296,-3.621 L 2.583,-3.926 L 2.889,-4.241 L 3.211,-4.559 L 3.547,-4.880 L 3.895,-5.200 L 4.254,-5.519 L 4.624,-5.837 L 5.004,-6.152 L 5.394,-6.465 L 5.794,-6.774 L 6.202,-7.080 L 6.619,-7.382 L 7.045,-7.680 L 7.479,-7.973 L 7.922,-8.262 L 8.372,-8.546 L 8.830,-8.825 L 9.295,-9.099 L 9.768,-9.367 L 10.247,-9.630 L 10.733,-9.887"
         id="path5" />
      <g
         id="arrows5">
        <use
           xlink:href="#arrow1"
           transform="translate(-0.106,7.999) rotate(-100.68) scale(2.4)"
           id="use6" />
        <use
           xlink:href="#arrow1"
           transform="translate(5.060,-6.196) rotate(-38.82) scale(2.4)"
           id="use7" />
      </g>
    </g>
    <g
       id="fieldline6">
      <path
         d="M -3.664,10.067 L -1.221,3.356 L 1.221,-3.356 L 3.664,-10.067"
         id="path7" />
      <g
         id="arrows6">
        <use
           xlink:href="#arrow1"
           transform="translate(-2.736,7.518) rotate(-70.00) scale(2.4)"
           id="use8" />
        <use
           xlink:href="#arrow1"
           transform="translate(2.736,-7.518) rotate(-70.00) scale(2.4)"
           id="use9" />
      </g>
    </g>
    <g
       id="fieldline7">
      <path
         d="M -10.733,9.887 L -10.247,9.630 L -9.768,9.367 L -9.295,9.099 L -8.830,8.825 L -8.372,8.546 L -7.922,8.262 L -7.479,7.973 L -7.045,7.680 L -6.619,7.382 L -6.202,7.080 L -5.794,6.774 L -5.394,6.465 L -5.004,6.152 L -4.624,5.837 L -4.254,5.519 L -3.895,5.200 L -3.547,4.880 L -3.211,4.559 L -2.889,4.241 L -2.583,3.926 L -2.296,3.621 L -2.033,3.328 L -1.797,3.054 L -1.592,2.804 L -1.418,2.580 L -1.273,2.381 L -1.151,2.199 L -1.045,2.028 L -0.948,1.856 L -0.856,1.674 L -0.760,1.466 L -0.649,1.203 L -0.502,0.829 L -0.275,0.222 L 0.012,-0.569 L 0.195,-1.092 L 0.306,-1.430 L 0.381,-1.683 L 0.436,-1.895 L 0.479,-2.090 L 0.513,-2.285 L 0.540,-2.489 L 0.561,-2.715 L 0.576,-2.972 L 0.585,-3.267 L 0.586,-3.602 L 0.579,-3.975 L 0.562,-4.377 L 0.536,-4.803 L 0.501,-5.246 L 0.456,-5.700 L 0.401,-6.164 L 0.338,-6.635 L 0.265,-7.113 L 0.183,-7.596 L 0.091,-8.083 L -0.009,-8.574 L -0.119,-9.069 L -0.238,-9.566 L -0.367,-10.067"
         id="path9" />
      <g
         id="arrows7">
        <use
           xlink:href="#arrow1"
           transform="translate(-5.061,6.196) rotate(-39.32) scale(2.4)"
           id="use10" />
        <use
           xlink:href="#arrow1"
           transform="translate(0.106,-7.999) rotate(-101.21) scale(2.4)"
           id="use11" />
      </g>
    </g>
    <g
       id="fieldline8">
      <path
         d="M -10.733,3.067 L -10.460,3.164 L -10.182,3.253 L -9.900,3.335 L -9.615,3.408 L -9.326,3.474 L -9.035,3.532 L -8.740,3.582 L -8.444,3.624 L -8.145,3.658 L -7.845,3.683 L -7.543,3.700 L -7.240,3.709 L -6.937,3.709 L -6.633,3.701 L -6.329,3.684 L -6.025,3.659 L -5.723,3.626 L -5.421,3.584 L -5.121,3.534 L -4.823,3.476 L -4.528,3.410 L -4.236,3.336 L -3.947,3.254 L -3.664,3.164 L -3.385,3.068 L -3.115,2.966 L -2.853,2.858 L -2.603,2.746 L -2.370,2.632 L -2.155,2.519 L -1.963,2.409 L -1.795,2.303 L -1.650,2.203 L -1.526,2.108 L -1.419,2.016 L -1.326,1.924 L -1.241,1.830 L -1.163,1.730 L -1.087,1.620 L -1.012,1.495 L -0.933,1.345 L -0.844,1.159 L -0.740,0.916 L -0.604,0.577 L -0.418,0.083 L -0.207,-0.498 L -0.053,-0.947 L 0.048,-1.260 L 0.116,-1.494 L 0.162,-1.682 L 0.193,-1.840 L 0.213,-1.980 L 0.223,-2.111 L 0.225,-2.237 L 0.218,-2.364 L 0.203,-2.496 L 0.177,-2.639 L 0.140,-2.797 L 0.089,-2.972 L 0.024,-3.167 L -0.057,-3.380 L -0.153,-3.609 L -0.263,-3.848 L -0.386,-4.096 L -0.520,-4.348 L -0.665,-4.601 L -0.819,-4.853 L -0.981,-5.103 L -1.152,-5.350 L -1.330,-5.594 L -1.516,-5.833 L -1.709,-6.068 L -1.909,-6.297 L -2.115,-6.521 L -2.327,-6.740 L -2.545,-6.952 L -2.768,-7.158 L -2.998,-7.358 L -3.232,-7.551 L -3.471,-7.737 L -3.714,-7.916 L -3.962,-8.087 L -4.213,-8.251 L -4.468,-8.408 L -4.727,-8.556 L -4.988,-8.697 L -5.253,-8.830 L -5.519,-8.954 L -5.788,-9.070 L -6.059,-9.178 L -6.331,-9.277 L -6.604,-9.368 L -6.878,-9.450 L -7.153,-9.524 L -7.428,-9.589 L -7.703,-9.646 L -7.978,-9.693 L -8.252,-9.733 L -8.525,-9.763 L -8.797,-9.785 L -9.068,-9.799 L -9.336,-9.804 L -9.603,-9.801 L -9.867,-9.789 L -10.128,-9.769 L -10.387,-9.741 L -10.642,-9.705 L -10.733,-9.690"
         id="path11" />
      <g
         id="arrows8">
        <use
           xlink:href="#arrow1"
           transform="translate(-7.088,3.707) rotate(-0.74) scale(2.4)"
           id="use12" />
        <use
           xlink:href="#arrow1"
           transform="translate(-3.047,-7.395) rotate(-140.83) scale(2.4)"
           id="use13" />
      </g>
    </g>
    <g
       id="fieldline9">
      <path
         d="M -0.513,-0.187 L -0.343,-0.663 L -0.221,-1.029 L -0.138,-1.301 L -0.082,-1.510 L -0.044,-1.678 L -0.021,-1.818 L -0.009,-1.936 L -0.007,-2.039 L -0.013,-2.129 L -0.026,-2.211 L -0.047,-2.289 L -0.077,-2.366 L -0.118,-2.446 L -0.172,-2.534 L -0.245,-2.634 L -0.338,-2.745 L -0.451,-2.867 L -0.582,-2.996 L -0.729,-3.128 L -0.888,-3.259 L -1.056,-3.387 L -1.230,-3.508 L -1.409,-3.623 L -1.592,-3.730 L -1.778,-3.829 L -1.967,-3.919 L -2.157,-4.002 L -2.349,-4.075 L -2.541,-4.140 L -2.734,-4.196 L -2.927,-4.243 L -3.119,-4.281 L -3.310,-4.311 L -3.500,-4.331 L -3.688,-4.344 L -3.875,-4.347 L -4.058,-4.342 L -4.239,-4.328 L -4.416,-4.307 L -4.590,-4.277 L -4.759,-4.240 L -4.925,-4.194 L -5.086,-4.141 L -5.241,-4.081 L -5.392,-4.014 L -5.537,-3.940 L -5.676,-3.860 L -5.810,-3.773 L -5.937,-3.681 L -6.057,-3.582 L -6.171,-3.478 L -6.278,-3.369 L -6.378,-3.255 L -6.471,-3.136 L -6.556,-3.013 L -6.634,-2.886 L -6.704,-2.755 L -6.767,-2.621 L -6.821,-2.483 L -6.868,-2.342 L -6.907,-2.199 L -6.937,-2.054 L -6.959,-1.906 L -6.973,-1.757 L -6.978,-1.606 L -6.975,-1.455 L -6.963,-1.302 L -6.943,-1.149 L -6.914,-0.997 L -6.876,-0.844 L -6.830,-0.692 L -6.775,-0.541 L -6.711,-0.391 L -6.639,-0.243 L -6.558,-0.097 L -6.469,0.047 L -6.371,0.188 L -6.265,0.326 L -6.151,0.461 L -6.029,0.591 L -5.900,0.718 L -5.762,0.839 L -5.618,0.956 L -5.466,1.068 L -5.307,1.174 L -5.141,1.275 L -4.970,1.369 L -4.792,1.457 L -4.608,1.538 L -4.419,1.612 L -4.225,1.679 L -4.026,1.738 L -3.824,1.790 L -3.617,1.834 L -3.408,1.869 L -3.197,1.897 L -2.986,1.916 L -2.776,1.926 L -2.569,1.928 L -2.372,1.921 L -2.189,1.907 L -2.023,1.886 L -1.881,1.860 L -1.761,1.830 L -1.662,1.798 L -1.580,1.763 L -1.508,1.723 L -1.441,1.677 L -1.378,1.623 L -1.316,1.557 L -1.252,1.477 L -1.185,1.379 L -1.113,1.257 L -1.033,1.104 L -0.942,0.908 L -0.831,0.646 L -0.689,0.287 L -0.513,-0.187 Z"
         id="path13" />
      <g
         id="arrows9">
        <use
           xlink:href="#arrow1"
           transform="translate(-6.810,-2.479) rotate(106.74) scale(2.4)"
           id="use14" />
      </g>
    </g>
    <g
       id="fieldline10">
      <path
         d="M -0.683,-0.249 L -0.530,-0.682 L -0.414,-1.031 L -0.333,-1.299 L -0.277,-1.509 L -0.240,-1.678 L -0.217,-1.816 L -0.206,-1.930 L -0.204,-2.025 L -0.210,-2.102 L -0.222,-2.162 L -0.238,-2.203 L -0.252,-2.224 L -0.278,-2.237 L -0.400,-2.281 L -0.573,-2.334 L -0.755,-2.381 L -0.935,-2.418 L -1.110,-2.447 L -1.281,-2.466 L -1.447,-2.476 L -1.608,-2.478 L -1.764,-2.471 L -1.916,-2.456 L -2.062,-2.434 L -2.204,-2.403 L -2.340,-2.366 L -2.470,-2.321 L -2.594,-2.270 L -2.712,-2.212 L -2.824,-2.147 L -2.930,-2.077 L -3.028,-2.002 L -3.120,-1.921 L -3.205,-1.835 L -3.283,-1.744 L -3.353,-1.650 L -3.416,-1.551 L -3.471,-1.448 L -3.519,-1.342 L -3.558,-1.234 L -3.590,-1.122 L -3.614,-1.008 L -3.629,-0.892 L -3.636,-0.774 L -3.635,-0.655 L -3.625,-0.534 L -3.607,-0.413 L -3.580,-0.292 L -3.544,-0.170 L -3.499,-0.049 L -3.446,0.071 L -3.384,0.190 L -3.313,0.308 L -3.233,0.424 L -3.144,0.538 L -3.047,0.650 L -2.940,0.759 L -2.825,0.864 L -2.700,0.967 L -2.566,1.066 L -2.423,1.161 L -2.271,1.252 L -2.109,1.338 L -1.940,1.419 L -1.773,1.490 L -1.651,1.535 L -1.623,1.542 L -1.598,1.535 L -1.560,1.513 L -1.512,1.475 L -1.458,1.420 L -1.398,1.347 L -1.333,1.252 L -1.262,1.131 L -1.182,0.978 L -1.090,0.782 L -0.980,0.524 L -0.844,0.182 L -0.683,-0.249 Z"
         id="path14" />
      <g
         id="arrows10">
        <use
           xlink:href="#arrow1"
           transform="translate(-3.521,-1.283) rotate(104.79) scale(2.4)"
           id="use15" />
      </g>
    </g>
    <g
       id="fieldline11">
      <path
         d="M -0.854,-0.311 L -0.717,-0.698 L -0.608,-1.027 L -0.527,-1.291 L -0.468,-1.503 L -0.427,-1.678 L -0.400,-1.825 L -0.739,-1.658 L -0.900,-1.570 L -1.032,-1.490 L -1.148,-1.410 L -1.252,-1.329 L -1.347,-1.246 L -1.432,-1.160 L -1.509,-1.071 L -1.577,-0.980 L -1.638,-0.886 L -1.690,-0.789 L -1.735,-0.689 L -1.772,-0.587 L -1.802,-0.482 L -1.824,-0.374 L -1.838,-0.263 L -1.844,-0.149 L -1.843,-0.032 L -1.833,0.089 L -1.814,0.213 L -1.786,0.342 L -1.748,0.478 L -1.699,0.625 L -1.631,0.795 L -1.480,1.141 L -1.406,1.011 L -1.325,0.850 L -1.233,0.650 L -1.126,0.397 L -0.998,0.074 L -0.854,-0.311 Z"
         id="path15" />
      <g
         id="arrows11">
        <use
           xlink:href="#arrow1"
           transform="translate(-1.735,-0.633) rotate(104.32) scale(2.4)"
           id="use16" />
      </g>
    </g>
  </g>
  <g
     id="symbols2"
     transform="matrix(15,0,0,-15,160,150)">
    <g
       transform="rotate(-70)"
       id="magnet1">
      <defs
         id="defs105">
        <linearGradient
           gradientUnits="userSpaceOnUse"
           y2="-1"
           y1="1"
           x2="0"
           x1="0"
           id="magnetGrad1">
          <stop
             id="stop94"
             stop-opacity="0.125"
             offset="0"
             stop-color="#000000" />
          <stop
             id="stop96"
             stop-opacity="0.125"
             offset="0.07"
             stop-color="#ffffff" />
          <stop
             id="stop98"
             stop-opacity="0.5"
             offset="0.25"
             stop-color="#ffffff" />
          <stop
             id="stop100"
             stop-opacity="0.2"
             offset="0.6"
             stop-color="#ffffff" />
          <stop
             id="stop102"
             stop-opacity="0.33"
             offset="1"
             stop-color="#000000" />
        </linearGradient>
      </defs>
      <rect
         id="rect107"
         style="fill:#00cc00;stroke:none"
         height="2"
         width="4"
         y="-1"
         x="-2" />
      <rect
         id="rect109"
         style="fill:#ff0000;stroke:none"
         height="2"
         width="2"
         y="-1"
         x="0" />
      <rect
         id="rect111"
         style="fill:url(#magnetGrad1);stroke:#000000;stroke-width:0.15000001;stroke-linejoin:miter"
         height="2"
         width="4"
         y="-1"
         x="-2" />
      <text
         id="text113"
         style="font-size:120px;font-family:'Bitstream Vera Sans';text-anchor:middle;fill:#000000;stroke:none"
         transform="matrix(0.01,0,0,-0.01,-1.3,-0.44)"
         y="-1">S</text>
      <text
         id="text115"
         style="font-size:120px;font-family:'Bitstream Vera Sans';text-anchor:middle;fill:#000000;stroke:none"
         transform="matrix(0.01,0,0,-0.01,1.3,-0.44)"
         y="-1">N</text>
    </g>
  </g>
  <g
     style="display:inline;opacity:0.74;stroke:none;stroke-width:2.32346082;stroke-miterlimit:4;stroke-dasharray:none;stroke-opacity:1"
     inkscape:label="skins"
     id="g22959"
     transform="matrix(0.4616281,-0.31471314,0.31302049,0.45917047,-339.59299,49.158661)">
    <g
       transform="matrix(0.691474,0,0,0.691474,194.6521,226.2037)"
       id="g3528"
       style="display:inline;stroke:none;stroke-width:3.36015654;stroke-miterlimit:4;stroke-dasharray:none;stroke-opacity:1">
      <circle
         style="color:#000000;display:inline;overflow:visible;visibility:visible;fill:url(#radialGradient24414);fill-opacity:1;fill-rule:evenodd;stroke:none;stroke-width:5.6437459;stroke-linecap:round;stroke-linejoin:round;stroke-miterlimit:4;stroke-dasharray:none;stroke-dashoffset:0;stroke-opacity:1;marker:none;marker-start:none;marker-mid:none;marker-end:none"
         id="path1307"
         transform="matrix(0.595377,0,0,0.595377,484.3515,236.1627)"
         cx="261.42856"
         cy="648.07648"
         r="392.85715" />
      <g
         style="display:inline;stroke:none;stroke-width:2.03562093;stroke-miterlimit:4;stroke-dasharray:none;stroke-opacity:1"
         inkscape:label="titre 3"
         id="layer7"
         transform="matrix(1.649352,0,0,1.652007,-456.9646,-1157.083)">
        <path
           sodipodi:nodetypes="cccccccccccccccccccccccccccccccc"
           id="path2495-1"
           d="m 685.79834,936.8631 c -32.76808,-4.93347 -67.11167,2.38183 -95.15749,19.98847 6.70091,4.75188 33.47985,14.65682 20.05068,21.2461 -7.40299,13.03187 -31.39864,28.25703 -46.28999,18.68545 -14.85645,5.58808 -34.57523,24.60068 -29.29017,39.87828 20.02708,6.571 22.77241,18.9918 18.78287,21.7385 -22.06633,12.7917 -27.57786,49.4131 -21.04149,68.6413 21.70411,60.5474 88.29596,100.1795 151.8732,90.1663 50.25358,-6.5873 95.21077,-42.4725 112.79522,-90.0049 4.08443,-34.8935 -25.0242,31.0706 -24.50763,-2.9505 1.65443,-20.6432 -19.40389,-11.2893 -29.66898,-20.7225 -13.89675,5.8998 -36.74148,-23.8871 -37.4247,4.5024 4.81353,13.7973 42.44306,-9.0631 21.44813,14.0941 -13.70214,16.3501 -48.5274,51.7702 -49.13854,73.4666 -5.54522,30.7089 -32.51552,0.3119 -41.46381,-11.9629 -3.37758,-21.7716 8.39814,-56.4164 -8.88553,-70.104 -20.69691,-4.9459 -38.25594,-10.2474 -41.78365,-35.1486 -1.60466,-17.6363 13.26507,-40.5432 31.90691,-40.9177 29.4066,-11.3851 31.70139,26.0793 56.13443,31.4975 9.18613,-6.5023 30.53215,-5.0874 34.00483,-13.7012 -15.55946,-5.9631 23.09448,-9.56 2.29501,-19.906 -12.40841,-0.9205 -22.36882,8.8259 -17.76835,19.5292 -24.57911,0.932 -17.62879,-38.7948 -42.66093,-30.7095 -4.42621,19.5859 -38.18253,-0.7277 -13.0712,-0.014 9.07314,-2.0336 -10.84194,-16.8977 0.66461,-12.6749 5.89895,0.8127 26.98919,-2.1935 22.57593,-7.8524 12.27088,-4.67428 16.91595,20.0143 30.90871,5.2966 10.25581,-11.41407 -0.24916,-15.87426 -11.22076,-11.20616 -5.68993,-9.5673 27.49686,-24.63229 40.24223,-20.94712 5.86251,10.21162 20.56162,13.77653 20.45157,-1.48464 9.22666,-11.69675 39.61538,16.32179 20.55054,-2.47475 -20.71997,-19.22379 -47.32709,-31.94762 -75.31165,-35.94933 z"
           style="color:#000000;display:inline;overflow:visible;visibility:visible;fill:url(#radialGradient24416);fill-opacity:1;fill-rule:nonzero;stroke:none;stroke-width:2.03562093;stroke-linecap:round;stroke-linejoin:round;stroke-miterlimit:4;stroke-dasharray:none;stroke-dashoffset:0;stroke-opacity:1;marker:none;marker-start:none;marker-mid:none;marker-end:none"
           inkscape:connector-curvature="0" />
      </g>
      <circle
         style="color:#000000;display:inline;overflow:visible;visibility:visible;opacity:0.76025235;fill:url(#radialGradient24418);fill-opacity:1;fill-rule:evenodd;stroke:none;stroke-width:5.6437459;stroke-linecap:round;stroke-linejoin:round;stroke-miterlimit:4;stroke-dasharray:none;stroke-dashoffset:0;stroke-opacity:1;marker:none;marker-start:none;marker-mid:none;marker-end:none"
         id="path2653"
         transform="matrix(0.595377,0,0,0.595377,484.3515,236.1627)"
         cx="261.42856"
         cy="648.07648"
         r="392.85715" />
    </g>
  </g>
</svg>
