<?xml version="1.0" encoding="UTF-8" standalone="no"?>
<!-- Created with Inkscape (http://www.inkscape.org/) -->

<svg
   width="113.24202mm"
   height="86.993576mm"
   viewBox="0 0 113.24202 86.993573"
   version="1.1"
   id="svg8"
   inkscape:version="1.3.2 (091e20e, 2023-11-25)"
   sodipodi:docname="Repeated-cutting-a-magnet.svg"
   xmlns:inkscape="http://www.inkscape.org/namespaces/inkscape"
   xmlns:sodipodi="http://sodipodi.sourceforge.net/DTD/sodipodi-0.dtd"
   xmlns:xlink="http://www.w3.org/1999/xlink"
   xmlns="http://www.w3.org/2000/svg"
   xmlns:svg="http://www.w3.org/2000/svg"
   xmlns:rdf="http://www.w3.org/1999/02/22-rdf-syntax-ns#"
   xmlns:cc="http://creativecommons.org/ns#"
   xmlns:dc="http://purl.org/dc/elements/1.1/">
  <defs
     id="defs2">
    <marker
       inkscape:isstock="true"
       style="overflow:visible"
       id="marker5573"
       refX="0"
       refY="0"
       orient="auto"
       inkscape:stockid="Arrow1Mend">
      <path
         transform="matrix(-0.4,0,0,-0.4,-4,0)"
         style="fill:#000000;fill-opacity:1;fill-rule:evenodd;stroke:#000000;stroke-width:1pt;stroke-opacity:1"
         d="M 0,0 5,-5 -12.5,0 5,5 Z"
         id="path5571" />
    </marker>
    <marker
       inkscape:stockid="Arrow1Mend"
       orient="auto"
       refY="0"
       refX="0"
       id="marker5509"
       style="overflow:visible"
       inkscape:isstock="true">
      <path
         id="path5507"
         d="M 0,0 5,-5 -12.5,0 5,5 Z"
         style="fill:#000000;fill-opacity:1;fill-rule:evenodd;stroke:#000000;stroke-width:1pt;stroke-opacity:1"
         transform="matrix(-0.4,0,0,-0.4,-4,0)" />
    </marker>
    <marker
       inkscape:isstock="true"
       style="overflow:visible"
       id="marker5387"
       refX="0"
       refY="0"
       orient="auto"
       inkscape:stockid="Arrow1Mend">
      <path
         transform="matrix(-0.4,0,0,-0.4,-4,0)"
         style="fill:#000000;fill-opacity:1;fill-rule:evenodd;stroke:#000000;stroke-width:1pt;stroke-opacity:1"
         d="M 0,0 5,-5 -12.5,0 5,5 Z"
         id="path5385" />
    </marker>
    <marker
       inkscape:isstock="true"
       style="overflow:visible"
       id="marker5340"
       refX="0"
       refY="0"
       orient="auto"
       inkscape:stockid="Arrow1Mend">
      <path
         transform="matrix(-0.4,0,0,-0.4,-4,0)"
         style="fill:#000000;fill-opacity:1;fill-rule:evenodd;stroke:#000000;stroke-width:1pt;stroke-opacity:1"
         d="M 0,0 5,-5 -12.5,0 5,5 Z"
         id="path5338" />
    </marker>
    <marker
       inkscape:isstock="true"
       style="overflow:visible"
       id="marker5299"
       refX="0"
       refY="0"
       orient="auto"
       inkscape:stockid="Arrow1Mend"
       inkscape:collect="always">
      <path
         transform="matrix(-0.4,0,0,-0.4,-4,0)"
         style="fill:#000000;fill-opacity:1;fill-rule:evenodd;stroke:#000000;stroke-width:1pt;stroke-opacity:1"
         d="M 0,0 5,-5 -12.5,0 5,5 Z"
         id="path5297" />
    </marker>
    <marker
       inkscape:stockid="Arrow1Mend"
       orient="auto"
       refY="0"
       refX="0"
       id="Arrow1Mend"
       style="overflow:visible"
       inkscape:isstock="true"
       inkscape:collect="always">
      <path
         id="path4876"
         d="M 0,0 5,-5 -12.5,0 5,5 Z"
         style="fill:#000000;fill-opacity:1;fill-rule:evenodd;stroke:#000000;stroke-width:1pt;stroke-opacity:1"
         transform="matrix(-0.4,0,0,-0.4,-4,0)" />
    </marker>
    <linearGradient
       id="magnetGrad1"
       x1="0"
       x2="0"
       y1="0.25"
       y2="-0.25"
       gradientUnits="userSpaceOnUse">
      <stop
         stop-color="#000000"
         offset="0"
         stop-opacity="0.125"
         id="stop298" />
      <stop
         stop-color="#ffffff"
         offset="0.07"
         stop-opacity="0.125"
         id="stop300" />
      <stop
         stop-color="#ffffff"
         offset="0.25"
         stop-opacity="0.5"
         id="stop302" />
      <stop
         stop-color="#ffffff"
         offset="0.6"
         stop-opacity="0.2"
         id="stop304" />
      <stop
         stop-color="#000000"
         offset="1"
         stop-opacity="0.33"
         id="stop306" />
    </linearGradient>
    <linearGradient
       inkscape:collect="always"
       xlink:href="#magnetGrad1"
       id="linearGradient3865"
       gradientUnits="userSpaceOnUse"
       x1="0"
       y1="0.25"
       x2="0"
       y2="-0.25"
       gradientTransform="matrix(53.622445,0,0,26.458333,90.595397,-61.503194)" />
    <linearGradient
       inkscape:collect="always"
       xlink:href="#magnetGrad1"
       id="linearGradient955"
       gradientUnits="userSpaceOnUse"
       x1="0"
       y1="0.25"
       x2="0"
       y2="-0.25" />
    <linearGradient
       inkscape:collect="always"
       xlink:href="#magnetGrad1"
       id="linearGradient963"
       gradientUnits="userSpaceOnUse"
       gradientTransform="matrix(12.876444,0,0,26.458333,122.32488,-123.46184)"
       x1="0"
       y1="0.25"
       x2="0"
       y2="-0.25" />
  </defs>
  <sodipodi:namedview
     id="base"
     pagecolor="#ffffff"
     bordercolor="#666666"
     borderopacity="1.0"
     inkscape:pageopacity="0.0"
     inkscape:pageshadow="2"
     inkscape:zoom="1.3534284"
     inkscape:cx="315.12565"
     inkscape:cy="93.835773"
     inkscape:document-units="mm"
     inkscape:current-layer="g3936"
     showgrid="false"
     inkscape:window-width="1512"
     inkscape:window-height="945"
     inkscape:window-x="1920"
     inkscape:window-y="89"
     inkscape:window-maximized="0"
     fit-margin-top="5"
     fit-margin-left="5"
     fit-margin-right="5"
     fit-margin-bottom="5"
     inkscape:showpageshadow="2"
     inkscape:pagecheckerboard="0"
     inkscape:deskcolor="#d1d1d1" />
  <metadata
     id="metadata5">
    <rdf:RDF>
      <cc:Work
         rdf:about="">
        <dc:format>image/svg+xml</dc:format>
        <dc:type
           rdf:resource="http://purl.org/dc/dcmitype/StillImage" />
      </cc:Work>
    </rdf:RDF>
  </metadata>
  <g
     inkscape:label="Ebene 1"
     inkscape:groupmode="layer"
     id="layer1"
     transform="translate(-15.075586,4.6386524)">
    <g
       id="g3943"
       transform="translate(-18.898812,-50.648814)">
      <rect
         transform="scale(1,-1)"
         id="rect3853"
         style="fill:#00ff00;stroke:none;stroke-width:26.4583"
         height="13.229166"
         width="50.645554"
         y="-68.117775"
         x="50.378567" />
      <rect
         transform="scale(1,-1)"
         id="rect3855"
         style="fill:#ff0000;stroke:none;stroke-width:26.4583"
         height="13.229166"
         width="40.231339"
         y="-68.117767"
         x="90.580902" />
      <rect
         transform="scale(1,-1)"
         id="rect3857"
         style="fill:url(#linearGradient3865);stroke:#000000;stroke-width:1.05833;stroke-linejoin:miter"
         height="13.229166"
         width="80.43367"
         y="-68.117775"
         x="50.378567" />
      <text
         x="57.323875"
         id="text3859"
         style="font-size:7.9375px;font-family:'Bitstream Vera Sans';text-anchor:middle;fill:#000000;stroke:none;stroke-width:0.0661458"
         y="64.397072">S</text>
      <text
         x="123.86693"
         y="64.397072"
         style="font-size:7.9375px;font-family:'Bitstream Vera Sans';text-anchor:middle;fill:#000000;stroke:none;stroke-width:0.0661458"
         id="text3805">N</text>
    </g>
    <g
       id="magnet1"
       transform="matrix(26.458333,0,0,-26.458333,40.74017,37.312715)">
      <defs
         id="defs309" />
      <rect
         x="-0.75"
         y="-0.24999999"
         width="1.5"
         height="0.5"
         style="fill:#00ff00;stroke:none"
         id="rect311" />
      <rect
         x="0"
         y="-0.25"
         width="0.75"
         height="0.5"
         style="fill:#ff0000;stroke:none"
         id="rect313" />
      <rect
         x="-0.75"
         y="-0.25"
         width="1.5"
         height="0.5"
         style="fill:url(#linearGradient955);stroke:#000000;stroke-width:0.04;stroke-linejoin:miter"
         id="rect315" />
      <text
         y="-0.25"
         transform="matrix(0.0025,0,0,-0.0025,-0.4875,-0.11)"
         style="font-size:120px;font-family:'Bitstream Vera Sans';text-anchor:middle;fill:#000000;stroke:none"
         id="text317">S</text>
      <text
         y="-0.25"
         transform="matrix(0.0025,0,0,-0.0025,0.4875,-0.11)"
         style="font-size:120px;font-family:'Bitstream Vera Sans';text-anchor:middle;fill:#000000;stroke:none"
         id="text319">N</text>
    </g>
    <g
       id="g3936"
       transform="translate(-97.062796,-59.690785)">
      <rect
         transform="scale(1,-1)"
         id="rect3825"
         style="fill:#00ff00;stroke:none;stroke-width:26.4583"
         height="13.229166"
         width="14.495342"
         y="-130.07642"
         x="112.66755" />
      <rect
         transform="scale(1,-1)"
         id="rect3827"
         style="fill:#ff0000;stroke:none;stroke-width:26.4583"
         height="13.229166"
         width="9.9219999"
         y="-130.07642"
         x="122.06021" />
      <rect
         transform="scale(1,-1)"
         id="rect3829"
         style="fill:url(#linearGradient963);stroke:#000000;stroke-width:1.05833;stroke-linejoin:miter"
         height="13.229166"
         width="19.314667"
         y="-130.07642"
         x="112.66755" />
      <text
         x="117.32319"
         id="text3831"
         style="font-size:7.9375px;font-family:'Bitstream Vera Sans';text-anchor:middle;fill:#000000;stroke:none;stroke-width:0.0661458"
         y="126.35572">S</text>
      <text
         x="127.02121"
         id="text3833"
         style="font-size:7.9375px;font-family:'Bitstream Vera Sans';text-anchor:middle;fill:#000000;stroke:none;stroke-width:0.0661458"
         y="126.35572">N</text>
    </g>
    <use
       x="0"
       y="0"
       xlink:href="#magnet1"
       id="use3947"
       transform="translate(61.912843)"
       width="100%"
       height="100%" />
    <use
       x="0"
       y="0"
       xlink:href="#g3936"
       id="use3965"
       transform="translate(30.956174)"
       width="100%"
       height="100%" />
    <use
       height="100%"
       width="100%"
       transform="translate(61.912843)"
       id="use3967"
       xlink:href="#g3936"
       y="0"
       x="0" />
    <use
       x="0"
       y="0"
       xlink:href="#g3936"
       id="use3969"
       transform="translate(92.869017)"
       width="100%"
       height="100%" />
    <g
       id="g4023">
      <path
         inkscape:connector-curvature="0"
         id="path4010"
         d="m 68.210078,-4.6386524 c -1.678701,0 -3.044274,1.3655731 -3.044274,3.044274 0,1.67869834 1.365573,3.044274 3.044274,3.044274 0.734975,0 1.409573,-0.2624674 1.935796,-0.6973631 l 5.623075,7.73215 c 0,0 1.40782,-1.0235285 -0.0026,-2.9627309 l -3.041643,-4.1807801 0.428097,-0.588639 c 0.526225,0.4348957 1.200824,0.6973631 1.935803,0.6973631 1.678699,0 3.044274,-1.36557566 3.044274,-3.044274 0,-1.6787009 -1.365575,-3.044274 -3.044274,-3.044274 -1.6787,0 -3.044275,1.3655731 -3.044275,3.044274 v 0.91226287 l -0.394976,0.54362025 -0.394974,-0.54362025 V -1.5943784 c 0,-1.6787009 -1.365573,-3.044274 -3.044273,-3.044274 z m 0,1.3046889 c 0.960686,0 1.739584,0.7788979 1.739584,1.7395851 0,0.96068454 -0.778898,1.73958519 -1.739584,1.73958519 -0.960685,0 -1.739585,-0.77890065 -1.739585,-1.73958519 0,-0.9606872 0.7789,-1.7395851 1.739585,-1.7395851 z m 6.878498,0 c 0.960685,0 1.739585,0.7788979 1.739585,1.7395851 0,0.96068454 -0.7789,1.73958519 -1.739585,1.73958519 -0.960686,0 -1.739586,-0.77890065 -1.739586,-1.73958519 0,-0.9606872 0.7789,-1.7395851 1.739586,-1.7395851 z m -3.399328,4.3489628 c 0.240063,0 0.434896,0.1948336 0.434896,0.4348963 0,0.2400628 -0.194833,0.4348963 -0.434896,0.4348963 -0.240062,0 -0.434897,-0.1948335 -0.434897,-0.4348963 0,-0.2400627 0.194835,-0.4348963 0.434897,-0.4348963 z m -1.384531,0.695664 -1.474572,2.0275338 h 2.150696 l 0.399222,-0.5487164 z"
         style="fill:#000000;stroke-width:0.264583" />
    </g>
    <use
       x="0"
       y="0"
       xlink:href="#g4023"
       id="use4025"
       transform="translate(-30.95642,26.472368)"
       width="100%"
       height="100%" />
    <use
       height="100%"
       width="100%"
       transform="translate(30.956423,26.472368)"
       id="use4027"
       xlink:href="#g4023"
       y="0"
       x="0" />
    <g
       aria-label="..."
       transform="rotate(-90,-0.75887375,0.75887375)"
       style="font-style:normal;font-weight:normal;font-size:10.5833px;line-height:1.25;font-family:sans-serif;letter-spacing:0px;word-spacing:0px;fill:#000000;fill-opacity:1;stroke:none;stroke-width:0.264583"
       id="text4035">
      <path
         d="m -82.354927,26.123543 h 1.090373 v 1.312582 h -1.090373 z"
         style="stroke-width:0.264583"
         id="path4037"
         inkscape:connector-curvature="0" />
      <path
         d="m -78.985624,26.123543 h 1.090373 v 1.312582 h -1.090373 z"
         style="stroke-width:0.264583"
         id="path4039"
         inkscape:connector-curvature="0" />
      <path
         d="m -75.616321,26.123543 h 1.090373 v 1.312582 h -1.090373 z"
         style="stroke-width:0.264583"
         id="path4041"
         inkscape:connector-curvature="0" />
    </g>
    <use
       x="0"
       y="0"
       xlink:href="#text4035"
       id="use4044"
       transform="translate(30.956174)"
       width="100%"
       height="100%" />
    <use
       height="100%"
       width="100%"
       transform="translate(30.956174)"
       id="use4046"
       xlink:href="#text4035"
       y="0"
       x="0" />
    <use
       x="0"
       y="0"
       xlink:href="#text4035"
       id="use4048"
       transform="translate(61.912843)"
       width="100%"
       height="100%" />
    <use
       height="100%"
       width="100%"
       transform="translate(92.869017)"
       id="use4050"
       xlink:href="#text4035"
       y="0"
       x="0" />
    <path
       style="fill:none;stroke:#000000;stroke-width:0.5;stroke-linecap:butt;stroke-linejoin:miter;stroke-miterlimit:4;stroke-dasharray:none;stroke-opacity:1;marker-end:url(#Arrow1Mend)"
       d="M 38.58253,45.75161 C 26.998274,55.450251 26.998274,55.450251 26.998274,55.450251"
       id="path4060"
       inkscape:connector-curvature="0" />
    <path
       inkscape:connector-curvature="0"
       id="path5241"
       d="M 100.49537,45.75161 C 88.911118,55.450251 88.911118,55.450251 88.911118,55.450251"
       style="fill:none;stroke:#000000;stroke-width:0.5;stroke-linecap:butt;stroke-linejoin:miter;stroke-miterlimit:4;stroke-dasharray:none;stroke-opacity:1;marker-end:url(#marker5340)" />
    <path
       style="fill:none;stroke:#000000;stroke-width:0.5;stroke-linecap:butt;stroke-linejoin:miter;stroke-miterlimit:4;stroke-dasharray:none;stroke-opacity:1;marker-end:url(#marker5387)"
       d="m 104.81066,45.75161 c 11.58425,9.698641 11.58425,9.698641 11.58425,9.698641"
       id="path5266"
       inkscape:connector-curvature="0" />
    <path
       inkscape:connector-curvature="0"
       id="path5284"
       d="m 42.897811,45.75161 c 11.584256,9.698641 11.584256,9.698641 11.584256,9.698641"
       style="fill:none;stroke:#000000;stroke-width:0.5;stroke-linecap:butt;stroke-linejoin:miter;stroke-miterlimit:4;stroke-dasharray:none;stroke-opacity:1;marker-end:url(#marker5299)" />
    <path
       inkscape:connector-curvature="0"
       id="path5469"
       d="M 69.52445,19.293273 52.648527,28.991914"
       style="fill:none;stroke:#000000;stroke-width:0.5;stroke-linecap:butt;stroke-linejoin:miter;stroke-miterlimit:4;stroke-dasharray:none;stroke-opacity:1;marker-end:url(#marker5573)"
       sodipodi:nodetypes="cc" />
    <path
       style="fill:none;stroke:#000000;stroke-width:0.5;stroke-linecap:butt;stroke-linejoin:miter;stroke-miterlimit:4;stroke-dasharray:none;stroke-opacity:1;marker-end:url(#marker5509)"
       d="m 73.839731,19.293273 16.875923,9.698641"
       id="path5471"
       inkscape:connector-curvature="0"
       sodipodi:nodetypes="cc" />
  </g>
</svg>
