<?xml version="1.0" encoding="UTF-8" standalone="no"?>
<svg
   width="36pt"
   height="36pt"
   viewBox="0 0 36 36"
   version="1.1"
   id="svg144"
   sodipodi:docname="404.svg"
   inkscape:version="1.2.2 (b0a8486, 2022-12-01)"
   xmlns:inkscape="http://www.inkscape.org/namespaces/inkscape"
   xmlns:sodipodi="http://sodipodi.sourceforge.net/DTD/sodipodi-0.dtd"
   xmlns="http://www.w3.org/2000/svg"
   xmlns:svg="http://www.w3.org/2000/svg">
  <defs
     id="defs148" />
  <sodipodi:namedview
     id="namedview146"
     pagecolor="#ffffff"
     bordercolor="#666666"
     borderopacity="1.0"
     inkscape:showpageshadow="2"
     inkscape:pageopacity="0.0"
     inkscape:pagecheckerboard="0"
     inkscape:deskcolor="#d1d1d1"
     inkscape:document-units="pt"
     showgrid="false"
     inkscape:zoom="4.9166667"
     inkscape:cx="24"
     inkscape:cy="24"
     inkscape:window-width="1280"
     inkscape:window-height="456"
     inkscape:window-x="1931"
     inkscape:window-y="434"
     inkscape:window-maximized="0"
     inkscape:current-layer="svg144" />
  <path
     fill-rule="nonzero"
     fill="rgb(100%, 79.998779%, 30.195618%)"
     fill-opacity="1"
     d="M 36 18 C 36 27.941406 27.941406 36 18 36 C 8.058594 36 0 27.941406 0 18 C 0 8.058594 8.058594 0 18 0 C 27.941406 0 36 8.058594 36 18 "
     id="path132" />
  <path
     fill-rule="nonzero"
     fill="rgb(39.99939%, 27.058411%, 0%)"
     fill-opacity="1"
     d="M 14 16.5 C 14 18.433594 12.878906 20 11.5 20 C 10.121094 20 9 18.433594 9 16.5 C 9 14.566406 10.121094 13 11.5 13 C 12.878906 13 14 14.566406 14 16.5 Z M 14 16.5 "
     id="path134" />
  <path
     fill-rule="nonzero"
     fill="rgb(39.99939%, 27.058411%, 0%)"
     fill-opacity="1"
     d="M 27 16.5 C 27 18.433594 25.878906 20 24.5 20 C 23.121094 20 22 18.433594 22 16.5 C 22 14.566406 23.121094 13 24.5 13 C 25.878906 13 27 14.566406 27 16.5 Z M 27 16.5 "
     id="path136" />
  <path
     fill-rule="nonzero"
     fill="rgb(39.99939%, 27.058411%, 0%)"
     fill-opacity="1"
     d="M 23.484375 27.878906 C 23.472656 27.835938 22.339844 23.5 18 23.5 C 13.660156 23.5 12.527344 27.835938 12.515625 27.878906 C 12.460938 28.09375 12.558594 28.308594 12.746094 28.421875 C 12.933594 28.535156 13.179688 28.507812 13.34375 28.363281 C 13.351562 28.355469 14.355469 27.5 18 27.5 C 21.589844 27.5 22.617188 28.328125 22.65625 28.363281 C 22.75 28.453125 22.875 28.5 23 28.5 C 23.085938 28.5 23.167969 28.480469 23.246094 28.4375 C 23.441406 28.324219 23.539062 28.097656 23.484375 27.878906 Z M 23.484375 27.878906 "
     id="path138" />
  <path
     fill-rule="nonzero"
     fill="rgb(36.470032%, 67.842102%, 92.547607%)"
     fill-opacity="1"
     d="M 10 30 C 10 32.761719 7.761719 35 5 35 C 2.238281 35 0 32.761719 0 30 C 0 27.238281 4 20 5 20 C 6 20 10 27.238281 10 30 Z M 10 30 "
     id="path140" />
  <path
     fill-rule="nonzero"
     fill="rgb(39.99939%, 27.058411%, 0%)"
     fill-opacity="1"
     d="M 30 13 C 24.445312 13 22.199219 8.632812 22.105469 8.445312 C 21.859375 7.953125 22.058594 7.351562 22.550781 7.105469 C 23.042969 6.859375 23.644531 7.058594 23.890625 7.546875 C 23.96875 7.695312 25.714844 11 30 11 C 30.554688 11 31 11.449219 31 12 C 31 12.554688 30.554688 13 30 13 Z M 6 13 C 5.449219 13 5 12.550781 5 12 C 5 11.449219 5.449219 11 6 11 C 11.082031 11 11.996094 7.878906 12.03125 7.746094 C 12.179688 7.21875 12.722656 6.898438 13.253906 7.039062 C 13.78125 7.175781 14.101562 7.710938 13.96875 8.242188 C 13.921875 8.4375 12.703125 13 6 13 Z M 6 13 "
     id="path142" />
</svg>
