<?xml version="1.0" encoding="UTF-8" standalone="no"?>
<svg
   width="100pt"
   height="100pt"
   viewBox="0 0 100 100"
   version="1.1"
   id="svg144"
   sodipodi:docname="coffee.svg"
   inkscape:version="1.2.2 (b0a8486, 2022-12-01)"
   xmlns:inkscape="http://www.inkscape.org/namespaces/inkscape"
   xmlns:sodipodi="http://sodipodi.sourceforge.net/DTD/sodipodi-0.dtd"
   xmlns="http://www.w3.org/2000/svg"
   xmlns:svg="http://www.w3.org/2000/svg">
  <defs
     id="defs148" />
  <sodipodi:namedview
     id="namedview146"
     pagecolor="#ffffff"
     bordercolor="#666666"
     borderopacity="1.0"
     inkscape:showpageshadow="2"
     inkscape:pageopacity="0.0"
     inkscape:pagecheckerboard="0"
     inkscape:deskcolor="#d1d1d1"
     inkscape:document-units="pt"
     showgrid="false"
     inkscape:zoom="4.9166667"
     inkscape:cx="24"
     inkscape:cy="24"
     inkscape:window-width="1280"
     inkscape:window-height="800"
     inkscape:window-x="1920"
     inkscape:window-y="213"
     inkscape:window-maximized="0"
     inkscape:current-layer="svg144" />
  <g
     id="g422"
     transform="scale(2.7777778)">
    <path
       fill-rule="nonzero"
       fill="#99aab5"
       fill-opacity="1"
       d="M 36,26 C 36,31.523438 27.941406,36 18,36 8.058594,36 0,31.523438 0,26 0,20.476562 8.058594,16 18,16 c 9.941406,0 18,4.476562 18,10 z m 0,0"
       id="path132" />
    <path
       fill-rule="nonzero"
       fill="#ccd6dd"
       fill-opacity="1"
       d="M 36,24 C 36,29.523438 27.941406,34 18,34 8.058594,34 0,29.523438 0,24 0,18.476562 8.058594,14 18,14 c 9.941406,0 18,4.476562 18,10 z m 0,0"
       id="path134" />
    <path
       fill-rule="nonzero"
       fill="#f5f8fa"
       fill-opacity="1"
       d="M 18,31 C 3.042969,31 1,16 1,12 h 34 c 0,2 -1.957031,19 -17,19 z m 0,0"
       id="path136" />
    <path
       fill-rule="nonzero"
       fill="#ccd6dd"
       fill-opacity="1"
       d="M 34.386719,9.644531 C 36.828125,-0.480469 24.605469,1.9375 22.179688,3.84375 20.839844,3.695312 19.445312,3.609375 18,3.609375 8.609375,3.609375 1,6.839844 1,12.054688 1,17.269531 8.609375,21.5 18,21.5 c 9.390625,0 17,-4.230469 17,-9.445312 0,-0.863282 -0.226562,-1.664063 -0.613281,-2.410157 z M 31.882812,6.953125 c -1.359374,-0.9375 -3.101562,-1.695313 -5.121093,-2.25 1.875,-0.578125 4.550781,-0.308594 5.121093,2.25 z m 0,0"
       id="path138" />
    <path
       fill-rule="nonzero"
       fill="#8a4b38"
       fill-opacity="1"
       d="m 33,13 c 0,3.867188 -6.714844,7 -15,7 C 9.7148439,20 3,16.867188 3,13 3,9.1328121 9.7148439,6 18,6 c 8.285156,0 15,3.1328121 15,7 z m 0,0"
       id="path140"
       style="stroke-width:0.999999" />
    <path
       fill-rule="nonzero"
       fill="#d99e82"
       fill-opacity="1"
       d="m 20,17 c -0.257812,0 -0.511719,-0.09766 -0.707031,-0.292969 -2.335938,-2.335937 -2.375,-4.886719 -0.125,-8.261719 0.738281,-1.109374 0.898437,-2.246093 0.476562,-3.378906 -0.460937,-1.234375 -1.4375,-1.996094 -1.730469,-2.074218 -0.550781,0 -0.957031,-0.445313 -0.957031,-0.996094 C 16.957031,1.441406 17.449219,1 18,1 c 0.996094,0 2.394531,1.152344 3.183594,2.625 1.035156,1.933594 0.910156,4.039062 -0.351563,5.929688 -1.960937,2.941406 -1.53125,4.332031 -0.125,5.738281 0.390625,0.390625 0.390625,1.023437 0,1.414062 C 20.511719,16.902344 20.257812,17 20,17 Z m -6,-2 c -0.257812,0 -0.511719,-0.09766 -0.707031,-0.292969 -2.335938,-2.335937 -2.375,-4.886719 -0.125,-8.261719 C 13.894531,5.355469 14.0625,4.363281 13.660156,3.496094 13.21875,2.535156 12.230469,2.027344 11.976562,2 11.425781,2 10.988281,1.550781 10.988281,1 c 0,-0.554688 0.457031,-1 1.011719,-1 0.996094,0 2.585938,0.972656 3.359375,2.421875 0.480469,0.898437 1.050781,2.761719 -0.527344,5.132813 -1.960937,2.941406 -1.53125,4.332031 -0.125,5.734374 0.390625,0.394532 0.390625,1.023438 0,1.414063 C 14.511719,14.902344 14.257812,15 14,15 Z m 0,0"
       id="path142" />
  </g>
</svg>
