<svg xmlns="http://www.w3.org/2000/svg" xmlns:xlink="http://www.w3.org/1999/xlink" width="378.043" height="37.797" viewBox="0 0 100.024 10"><defs><clipPath id="c"><path d="M9.234.727h6.477v6.476H9.234Zm0 0"/></clipPath><clipPath id="d"><path d="M9.234 18H12v2H9.234Zm0 0"/></clipPath><clipPath id="e"><path d="M13 18h2.71v2H13Zm0 0"/></clipPath><clipPath id="f"><path d="M11 23h3v1.21h-3Zm0 0"/></clipPath><clipPath id="g"><path d="M10 17.734h5V23h-5Zm0 0"/></clipPath><clipPath id="h"><path d="M14 19h1.71v4H14Zm0 0"/></clipPath><clipPath id="i"><path d="M9.234 19H11v4H9.234Zm0 0"/></clipPath><clipPath id="j"><path d="M18 9.23h6v6.477h-6Zm0 0"/></clipPath><clipPath id="k"><path d="M.727 11H7.21v4.707H.727Zm0 0"/></clipPath><clipPath id="l"><path d="M3 9.234h2V12H3Zm0 0"/></clipPath><symbol id="a" overflow="visible"><path d="M4.344-1.984c.265-.72.281-1.313.718-1.813a.076.076 0 0 1 .11 0c.312.25.578.578.578 1 0 .406-.14.75-.39.75-.204 0-.329-.156-.329-.36 0-.077.016-.202.063-.265.062-.078-.032-.094-.094-.094-.094 0-.188.032-.219.125a.635.635 0 0 0-.078.329c0 .39.422.546.766.546.687 0 1.078-.484 1.078-1.093 0-.547-.516-.938-1.063-1.235-.109-.047.079-.156.11-.172.078-.062.156-.187.156-.265 0-.032-.031-.047-.078-.047a4.432 4.432 0 0 0-.547.25c-.047.016-.094.031-.125.016a4.71 4.71 0 0 0-1.578-.266c-.688 0-1.281.125-1.719.344-.719.359-1 .828-1 1.437 0 .719.688 1.078 1.36 1.078.906 0 1.234-.687 1.234-1.422 0-.078 0-.14-.016-.203 0-.125-.14-.187-.25-.187-.047 0-.078.047-.078.11.016.093.016.202.016.296 0 .89-.438 1.14-.906 1.14-.344 0-.72-.359-.72-.78 0-.891.829-1.547 2.204-1.547.328 0 .765.093 1.11.218.046.016.046.047.015.078-.656.516-1.094 1.063-1.516 2.125-.578 1.375-.812 1.766-1.61 1.766-.202 0-.484-.14-.64-.281C.86-.437.875-.453.922-.453c.265-.047.36-.25.36-.484 0-.235-.235-.47-.532-.47-.328 0-.484.298-.484.641 0 .532.625.907 1.421.907 1.157 0 2.032-.485 2.657-2.125Zm0 0" style="stroke:none"/></symbol><symbol id="b" overflow="visible"><path d="M2.844-.766a.201.201 0 0 0 .203-.171c.078-.532.422-.86.828-.86.172 0 .453.234.453.578 0 .516-.375 1.094-1.062 1.094-.438 0-.797-.516-.797-.953 0-.281.031-.531.094-.813 0-.046.03-.078.078-.078 1.703-.078 3.156-1.078 3.156-2.047 0-.406-.438-.546-.984-.546-1.094 0-2.5.75-3.016 1.734a4.075 4.075 0 0 0-.188.437c0 .032-.03.063-.078.047-.437-.14-.687-.406-.687-.875 0-.719.64-1.14 1.281-1.14.172 0 .531.062.797.203.047.015.078 0 .078-.032 0-.125-.031-.25-.14-.296a2.26 2.26 0 0 0-.844-.141C.78-4.625.203-3.906.203-3.203c0 .672.547 1.015 1.25 1.156.047 0 .063.031.047.078a4.534 4.534 0 0 0-.078.75c0 .89.937 1.36 1.797 1.36.61 0 1.172-.157 1.484-.485.266-.281.406-.625.406-.969 0-.515-.515-.765-1.109-.765-.766 0-1.219.484-1.219 1.219 0 .046.031.093.063.093Zm-.172-1.546c.015-.032.031-.079.047-.11.406-1.078 1.484-1.875 2.11-1.875.218 0 .468.11.468.422 0 .89-1.5 1.516-2.578 1.625-.047 0-.063-.016-.047-.063Zm0 0" style="stroke:none"/></symbol></defs><path d="M58.345 99.583c.309-.725.996-.846 1.492-.316.233.25.34.572.47.88.145.35.278.709.532.999.258.294.452.3.73.02.321-.325.484-.745.633-1.166.24-.671.453-1.351.693-2.023.113-.313.253-.619.402-.918.219-.433.577-.684 1.07-.67.534.018.938.275 1.159.77.294.663.37 1.372.425 2.086.088 1.137.277 2.253.644 3.336.105.31.213.624.482.87.282-.266.382-.584.482-.901.371-1.17.54-2.387.784-3.587.17-.829.3-1.667.564-2.473.134-.404.29-.798.563-1.133.654-.803 1.629-.65 1.991.319.277.743.271 1.531.33 2.306.112 1.486.22 2.974.582 4.428.151.605.324 1.207.637 1.754.165.292.284.294.484.02.284-.389.397-.847.479-1.308.19-1.096.352-2.199.552-3.293a7.378 7.378 0 0 1 .831-2.32c.255-.453.573-.852 1.043-1.101.873-.464 1.712-.112 1.995.835.173.582.189 1.186.222 1.784.074 1.273.426 2.453 1.1 3.535.16.26.317.637.639.616.348-.02.404-.438.501-.722.31-.906.586-1.824.99-2.697.329-.713.742-1.37 1.286-1.94.39-.41.86-.625 1.435-.59.602.037.962.293 1.117.874.097.364.138.744.19 1.118.133.979.365 1.926.889 2.78.056.094.124.184.197.268.042.048.103.078.184.14.247-.279.323-.63.458-.948.27-.636.527-1.279.975-1.82.272-.33.583-.616.971-.803.743-.355 1.33-.078 1.522.72.072.303.124.611.201.912.033.127.099.249.162.366.425.763.863.782 1.323.053.142-.225.247-.475.37-.71.093-.18.174-.365.284-.53.59-.892 1.498-.841 1.98.106.08.158.162.316.237.478.174.373.467.582.866.666.722.15 1.453.214 2.188.265.489.034.978.07 1.466.109.199.016.398.04.567.306-1.424-.255-2.797-.083-4.162-.193-.95-.077-1.67-.44-1.983-1.405-.045-.142-.098-.297-.289-.395-.26.137-.358.41-.476.665-.14.303-.246.625-.413.912-.742 1.279-2.208.944-2.79-.008-.236-.386-.35-.818-.407-1.263-.02-.155-.032-.314-.071-.463-.053-.201-.185-.23-.354-.12-.345.222-.598.529-.804.88-.306.523-.504 1.09-.7 1.659-.087.252-.168.51-.283.75-.274.57-.78.722-1.335.404-.398-.227-.679-.571-.908-.961-.461-.783-.683-1.642-.803-2.532-.057-.42-.079-.846-.161-1.259-.114-.567-.415-.694-.921-.417-.441.242-.757.617-1.037 1.025-.653.948-1.043 2.013-1.359 3.109-.104.362-.203.734-.358 1.074-.297.65-.825.79-1.425.402-.44-.283-.765-.684-1.029-1.128a6.647 6.647 0 0 1-.952-3.166c-.02-.512-.071-1.02-.122-1.531a2.054 2.054 0 0 0-.122-.518c-.173-.46-.397-.548-.822-.317-.487.266-.802.697-1.06 1.176-.538.994-.769 2.082-.938 3.187-.132.856-.25 1.716-.39 2.571a2.167 2.167 0 0 1-.4.983c-.347.458-.911.52-1.338.128-.403-.37-.64-.851-.83-1.356-.475-1.264-.675-2.584-.791-3.918-.084-.976-.15-1.953-.225-2.93a2.434 2.434 0 0 0-.177-.78c-.123-.29-.252-.319-.504-.11-.357.296-.538.705-.686 1.13-.338.971-.485 1.985-.67 2.991-.177.963-.302 1.936-.55 2.886-.084.324-.168.648-.329.944-.322.595-.874.696-1.38.24-.441-.395-.71-.911-.907-1.462-.416-1.163-.607-2.373-.709-3.598-.038-.445-.098-.887-.248-1.31-.156-.44-.326-.482-.67-.18-.258.226-.409.527-.546.832-.288.629-.469 1.298-.68 1.954-.134.425-.262.855-.498 1.237-.42.68-1.02.831-1.714.432a2.133 2.133 0 0 1-.784-.804 4.885 4.885 0 0 1-.243-.476c-.194-.435-.307-.967-1.016-.72" style="fill:#2e3440;fill-opacity:1;fill-rule:nonzero;stroke:none;stroke-width:.371228;stroke-opacity:1" transform="translate(-58.345 -94.84)"/><path d="M158.369 99.583c-.31-.725-.997-.846-1.492-.316-.234.25-.341.572-.47.88-.145.35-.279.709-.533.999-.256.294-.452.3-.729.02-.322-.325-.484-.745-.634-1.166-.239-.671-.452-1.351-.693-2.023a8.585 8.585 0 0 0-.401-.918c-.22-.433-.578-.684-1.07-.67-.534.018-.939.275-1.16.77-.292.663-.37 1.372-.424 2.086-.089 1.137-.277 2.253-.644 3.336-.106.31-.213.624-.481.87-.283-.266-.383-.584-.483-.901-.372-1.17-.541-2.387-.785-3.587-.17-.829-.297-1.667-.564-2.473-.133-.404-.29-.798-.563-1.133-.654-.803-1.628-.65-1.99.319-.278.743-.272 1.531-.331 2.306-.112 1.486-.22 2.974-.582 4.428-.15.605-.323 1.207-.636 1.754-.166.292-.285.294-.485.02-.284-.389-.397-.847-.478-1.308-.19-1.096-.353-2.199-.553-3.293a7.378 7.378 0 0 0-.83-2.32c-.256-.453-.573-.852-1.043-1.101-.873-.464-1.713-.112-1.996.835-.172.582-.188 1.186-.221 1.784-.074 1.273-.427 2.453-1.1 3.535-.16.26-.317.637-.64.616-.347-.02-.404-.438-.5-.722-.31-.906-.587-1.824-.99-2.697-.328-.713-.742-1.37-1.286-1.94-.39-.41-.86-.625-1.436-.59-.602.037-.961.293-1.116.874-.097.364-.138.744-.19 1.118-.134.979-.366 1.926-.89 2.78a1.955 1.955 0 0 1-.196.268c-.043.048-.103.078-.185.14-.246-.279-.323-.63-.458-.948-.268-.636-.526-1.279-.974-1.82-.273-.33-.583-.616-.972-.803-.742-.355-1.33-.078-1.521.72-.073.303-.125.611-.202.912-.033.127-.098.249-.162.366-.425.763-.863.782-1.323.053-.142-.225-.246-.475-.37-.71-.092-.18-.173-.365-.284-.53-.59-.892-1.497-.841-1.979.106-.08.158-.162.316-.238.478-.174.373-.467.582-.865.666-.723.15-1.453.214-2.189.265-.488.034-.977.07-1.466.109-.198.016-.397.04-.567.306 1.424-.255 2.798-.083 4.162-.193.951-.077 1.67-.44 1.984-1.405.045-.142.097-.297.288-.395.26.137.359.41.476.665.14.303.247.625.413.912.743 1.279 2.207.944 2.79-.008.237-.386.351-.818.408-1.263.019-.155.032-.314.07-.463.053-.201.185-.23.355-.12.345.222.597.529.803.88.306.523.505 1.09.7 1.659.087.252.169.51.283.75.274.57.78.722 1.336.404.397-.227.678-.571.908-.961.46-.783.684-1.642.803-2.532.056-.42.078-.846.16-1.259.114-.567.416-.694.922-.417.44.242.757.617 1.037 1.025.652.948 1.042 2.013 1.358 3.109.106.362.203.734.358 1.074.298.65.826.79 1.426.402.44-.283.764-.684 1.028-1.128a6.63 6.63 0 0 0 .953-3.166c.02-.512.07-1.02.122-1.531.018-.176.06-.352.121-.518.173-.46.398-.548.823-.317.487.266.801.697 1.06 1.176.538.994.768 2.082.938 3.187.132.856.25 1.716.39 2.571.058.354.177.693.399.983.348.458.912.52 1.338.128.403-.37.64-.851.83-1.356.475-1.264.675-2.584.791-3.918.084-.976.151-1.953.225-2.93.02-.27.071-.532.177-.78.123-.29.252-.319.505-.11.356.296.538.705.686 1.13.337.971.484 1.985.67 2.991.176.963.301 1.936.55 2.886.085.324.167.648.328.944.322.595.875.696 1.38.24.442-.395.71-.911.907-1.462.416-1.163.608-2.373.71-3.598.037-.445.098-.887.247-1.31.157-.44.328-.482.67-.18.258.226.408.527.547.832.287.629.468 1.298.679 1.954.136.425.262.855.498 1.237.42.68 1.021.831 1.714.432.337-.194.592-.47.785-.804.09-.154.17-.314.242-.476.194-.435.309-.967 1.017-.72" style="fill:#2e3440;fill-opacity:1;fill-rule:nonzero;stroke:none;stroke-width:.371228" transform="translate(-58.345 -94.84)"/><path d="M113.357 99.84a5 5 0 1 0-10 0 5 5 0 0 0 10 0zm0 0" style="fill:#2e3440;fill-opacity:1;fill-rule:nonzero;stroke:none;stroke-width:.400877" transform="translate(-58.345 -94.84)"/><use xlink:href="#a" width="100%" height="100%" x="7.654" y="12.238" style="fill:#eceff4;fill-opacity:1" transform="matrix(.40088 0 0 .40088 45.012 .002)"/><use xlink:href="#b" width="100%" height="100%" x="11.251" y="17.139" style="fill:#eceff4;fill-opacity:1" transform="matrix(.40088 0 0 .40088 45.012 .002)"/><path d="M108.357 96.66a.229.229 0 0 0 0-.457.229.229 0 0 0 0 .457zm0 0" style="fill:#eceff4;fill-opacity:1;fill-rule:nonzero;stroke:none;stroke-width:.400877" transform="translate(-58.345 -94.84)"/><g clip-path="url(#c)" style="fill:#eceff4;fill-opacity:1" transform="matrix(.40088 0 0 .40088 45.012 .002)"><path d="M9.68 5.578c.125.219.367.332.672.371a.36.36 0 0 0 .547-.008c.152-.02.316-.05.484-.093.219.777.586 1.355 1.09 1.355.5 0 .867-.578 1.086-1.355.578.144 1.406.242 1.703-.27.12-.21.113-.473-.012-.773a.38.38 0 0 0-.168-.43.39.39 0 0 0-.113-.04c-.031-.038-.059-.077-.09-.116-.07-.086-.156-.168-.238-.254.414-.426.918-1.098.62-1.613-.25-.434-.921-.47-1.702-.27-.22-.777-.586-1.355-1.086-1.355-.258 0-.48.152-.664.398a.372.372 0 0 0-.286.36c0 .042.012.077.024.117a3.845 3.845 0 0 0-.164.48c-.781-.2-1.453-.164-1.703.27-.297.511.207 1.187.62 1.613-.413.426-.917 1.098-.62 1.613Zm5.21-.496c.016 0 .036-.004.055-.004.176.617-.672.559-1.297.402.051-.246.09-.507.114-.773.218-.156.422-.316.605-.48.11.113.156.156.23.25a.347.347 0 0 0-.074.324.382.382 0 0 0 .368.281zm-1.097-1.367c.105.082.203.164.297.25-.094.082-.192.168-.297.25a5.345 5.345 0 0 0 0-.5zm1.14-1.172c.184.312-.312.898-.566 1.16a7.143 7.143 0 0 0-.605-.484 6.881 6.881 0 0 0-.114-.77c.352-.09 1.106-.222 1.286.094ZM11.59 4.98c.191.118.105.079.437.254-.125.051-.25.098-.37.137a9.006 9.006 0 0 1-.067-.39zm.883 1.84c-.262 0-.54-.422-.723-1.078.234-.078.48-.176.723-.285.238.11.484.207.722.285-.187.656-.465 1.078-.722 1.078zm.812-1.449a5.406 5.406 0 0 1-.37-.137c.327-.175.241-.136.437-.254a8.99 8.99 0 0 1-.067.391zm.067-2.422c-.141-.086-.141-.097-.434-.254a5.32 5.32 0 0 1 .367-.136c.024.12.047.253.067.39zm-1.5-1.082c.253.035.43-.172.43-.383a.38.38 0 0 0-.087-.23c.09-.094.184-.149.278-.149.257 0 .535.422.722 1.082a6.925 6.925 0 0 0-.722.286 7.68 7.68 0 0 0-.723-.285c.031-.114.066-.223.102-.32Zm-.196.692c.121.039.242.086.367.136-.296.157-.293.168-.433.254.02-.137.043-.27.066-.39zm-.113.87c.34-.23.598-.374.93-.534.324.156.586.304.925.535.028.363.028.699 0 1.07a6.772 6.772 0 0 1-.93.535 6.966 6.966 0 0 1-.925-.535 6.994 6.994 0 0 1 0-1.07zm-1.535-.886c.18-.316.933-.184 1.285-.094-.05.246-.09.508-.113.77-.22.156-.422.32-.606.484-.254-.262-.75-.848-.566-1.16Zm1.14 1.672c-.105-.082-.203-.168-.296-.25.093-.086.191-.168.296-.25a5.345 5.345 0 0 0 0 .5zm-.574.012c.184.164.387.324.606.48.023.266.062.527.113.77a2.927 2.927 0 0 1-.328.07.346.346 0 0 0-.246-.223.363.363 0 0 0-.446.227c-.128-.031-.222-.086-.265-.164-.184-.317.312-.899.566-1.16Zm0 0" style="fill:#eceff4;fill-opacity:1;fill-rule:nonzero;stroke:none"/></g><g clip-path="url(#d)" style="fill:#eceff4;fill-opacity:1" transform="matrix(.40088 0 0 .40088 45.012 .002)"><path d="M9.613 19.266h1.14v-.38h.38v-.378H9.234v.379h.38zm0 0" style="fill:#eceff4;fill-opacity:1;fill-rule:nonzero;stroke:none"/></g><g clip-path="url(#e)" style="fill:#eceff4;fill-opacity:1" transform="matrix(.40088 0 0 .40088 45.012 .002)"><path d="M13.813 18.887h.378v.379h1.141v-.38h.379v-.378h-1.899Zm0 0" style="fill:#eceff4;fill-opacity:1;fill-rule:nonzero;stroke:none"/></g><g clip-path="url(#f)" style="fill:#eceff4;fill-opacity:1" transform="matrix(.40088 0 0 .40088 45.012 .002)"><path d="M12.852 23.059h-.758l-.38.77h-.57v.382h2.657v-.383h-.57zm0 0" style="fill:#eceff4;fill-opacity:1;fill-rule:nonzero;stroke:none"/></g><g clip-path="url(#g)" style="fill:#eceff4;fill-opacity:1" transform="matrix(.40088 0 0 .40088 45.012 .002)"><path d="M12.094 17.734v2.86h-.582v-.192h-.758v.758h.758v-.187h.582v1.707h.758v-1.707h.582v.187h.757v-.758h-.757v.192h-.582v-2.86zm0 0" style="fill:#eceff4;fill-opacity:1;fill-rule:nonzero;stroke:none"/></g><g clip-path="url(#h)" style="fill:#eceff4;fill-opacity:1" transform="matrix(.40088 0 0 .40088 45.012 .002)"><path d="M14.191 21.543v.566a.571.571 0 0 0 1.14 0v-2.464h-1.14v.378h.38v1.52zm0 0" style="fill:#eceff4;fill-opacity:1;fill-rule:nonzero;stroke:none"/></g><g clip-path="url(#i)" style="fill:#eceff4;fill-opacity:1" transform="matrix(.40088 0 0 .40088 45.012 .002)"><path d="M10.754 20.023v-.378h-1.14v2.464a.571.571 0 0 0 1.14 0v-.566h-.379v-1.52zm0 0" style="fill:#eceff4;fill-opacity:1;fill-rule:nonzero;stroke:none"/></g><g clip-path="url(#j)" style="fill:#eceff4;fill-opacity:1" transform="matrix(.40088 0 0 .40088 45.012 .002)"><path d="m18.27 14.25.8-.418a.564.564 0 0 0 .782-.008l.558.281c0 .024-.004.047-.004.07 0 .247.157.458.38.536v.996h.378v-.996a.572.572 0 0 0 .379-.535c0-.024-.004-.047-.008-.07l.563-.282c.101.102.242.16.394.16a.571.571 0 0 0 .387-.152l.8.418.176-.336-.804-.418c.004-.027.008-.05.008-.078a.563.563 0 0 0-.38-.535v-.828a.566.566 0 0 0 .38-.535c0-.028-.004-.051-.008-.079l.804-.418-.175-.336-.801.418a.574.574 0 0 0-.387-.156.572.572 0 0 0-.394.16l-.563-.277c.004-.023.008-.047.008-.07a.572.572 0 0 0-.379-.535V9.23h-.379v.997a.566.566 0 0 0-.379.535c0 .023.004.047.004.07l-.558.277a.58.58 0 0 0-.395-.16.567.567 0 0 0-.387.156l-.8-.418-.176.336.8.418c-.003.028-.007.051-.007.079 0 .246.16.457.379.535v.828a.568.568 0 0 0-.38.535c0 .027.005.05.009.078l-.801.418zm1.753-2.73c0-.024-.003-.047-.003-.07l.558-.278a.58.58 0 0 0 .395.16.572.572 0 0 0 .394-.16l.563.277c-.004.024-.008.047-.008.07 0 .247.16.458.379.536v.828a.568.568 0 0 0-.38.535c0 .023.005.043.009.066l-.563.282a.572.572 0 0 0-.394-.16.58.58 0 0 0-.395.16l-.558-.282c0-.023.003-.043.003-.066a.563.563 0 0 0-.378-.535v-.828a.566.566 0 0 0 .378-.535zm0 0" style="fill:#eceff4;fill-opacity:1;fill-rule:nonzero;stroke:none"/></g><g clip-path="url(#k)" style="fill:#eceff4;fill-opacity:1" transform="matrix(.40088 0 0 .40088 45.012 .002)"><path d="m7.078 11.918-1.766 1.02v1.57l.247-.242.265.265-.703.707-.703-.707.266-.265.246.242v-1.352L.727 15.54H7.21v-3.687zm0 0" style="fill:#eceff4;fill-opacity:1;fill-rule:nonzero;stroke:none"/></g><path d="m105.117 99.889-.263.152.076.133 1.187-.687-.303-.527-.528.304.152.265-.132.075-.152-.263-.529.304.152.264.265-.153zm0 0" style="fill:#eceff4;fill-opacity:1;fill-rule:nonzero;stroke:none;stroke-width:.400877" transform="translate(-58.345 -94.84)"/><path d="m104.364 99.91-.104.386.387.103.04-.147-.135-.036v-.002l.302-.174-.077-.131-.3.174.034-.133zm0 0" style="fill:#eceff4;fill-opacity:1;fill-rule:nonzero;stroke:none;stroke-width:.400877" transform="translate(-58.345 -94.84)"/><g clip-path="url(#l)" style="fill:#eceff4;fill-opacity:1" transform="matrix(.40088 0 0 .40088 45.012 .002)"><path d="m4.191 9.95.336.09.098-.364-.96-.258-.259.96.367.099.09-.336.621 1.082.329-.192Zm0 0" style="fill:#eceff4;fill-opacity:1;fill-rule:nonzero;stroke:none"/></g></svg>