<svg xmlns="http://www.w3.org/2000/svg" xmlns:xlink="http://www.w3.org/1999/xlink" width="357.463" height="494.504" viewBox="0 0 268.098 370.878"><defs><clipPath id="p"><path d="M0 41h203v203H0Zm0 0"/></clipPath><clipPath id="q"><path d="M0 60h39v75H0Zm0 0"/></clipPath><clipPath id="r"><path d="M0 56h43v83H0Zm0 0"/></clipPath><clipPath id="s"><path d="M0 75h54v52H0Zm0 0"/></clipPath><clipPath id="t"><path d="M0 72h22v34H0Zm0 0"/></clipPath><clipPath id="u"><path d="M0 73h21v32H0Zm0 0"/></clipPath><clipPath id="v"><path d="M135 126h133.098v113H135Zm0 0"/></clipPath><clipPath id="w"><path d="M0 98h49v163H0Zm0 0"/></clipPath><clipPath id="x"><path d="M0 143h2v73H0Zm0 0"/></clipPath><clipPath id="y"><path d="M0 139h7v81H0Zm0 0"/></clipPath><clipPath id="z"><path d="M0 0h268.098v370.879H0Zm0 0"/></clipPath><clipPath id="c"><path d="M0 292h120v57H0Zm0 0"/></clipPath><clipPath id="b"><path d="M0 0h269v371H0z"/></clipPath><clipPath id="C"><path d="M0 127h141v209H0Zm0 0"/></clipPath><clipPath id="D"><path d="M0 123h145v217H0Zm0 0"/></clipPath><clipPath id="E"><path d="M0 0h268.098v370.879H0Zm0 0"/></clipPath><clipPath id="e"><path d="M0 127h147v146H0Zm0 0"/></clipPath><clipPath id="d"><path d="M0 0h269v371H0z"/></clipPath><clipPath id="H"><path d="M0 50h194v185H0Zm0 0"/></clipPath><clipPath id="I"><path d="M0 0h268.098v370.879H0Zm0 0"/></clipPath><clipPath id="f"><path d="M0 0h269v371H0z"/></clipPath><clipPath id="g"><path d="M0 0h269v371H0z"/></clipPath><clipPath id="h"><path d="M0 0h269v371H0z"/></clipPath><clipPath id="i"><path d="M0 0h269v371H0z"/></clipPath><clipPath id="R"><path d="M0 118h43v45H0Zm0 0"/></clipPath><clipPath id="S"><path d="M0 0h268.098v370.879H0Zm0 0"/></clipPath><clipPath id="j"><path d="M0 0h269v371H0z"/></clipPath><clipPath id="k"><path d="M0 0h269v371H0z"/></clipPath><clipPath id="l"><path d="M0 0h269v371H0z"/></clipPath><clipPath id="Z"><path d="M0 0h268.098v370.879H0Zm0 0"/></clipPath><clipPath id="m"><path d="M0 0h269v371H0z"/></clipPath><clipPath id="n"><path d="M0 0h269v371H0z"/></clipPath><clipPath id="ae"><path d="M0 134h176v125H0Zm0 0"/></clipPath><clipPath id="af"><path d="M0 134h176v94H0Zm0 0"/></clipPath><clipPath id="ag"><path d="M0 130h180v133H0Zm0 0"/></clipPath><clipPath id="o"><path d="M0 0h269v371H0z"/></clipPath><clipPath id="ai"><path d="M0 0h8v370.879H0Zm0 0"/></clipPath><g clip-path="url(#b)"><g id="B" clip-path="url(#c)"><path d="M119.633 328.582c-1.09 14.805-50.465 23.246-110.285 18.852-59.82-4.395-107.434-19.961-106.348-34.766 1.09-14.809 50.465-23.246 110.285-18.852 59.824 4.395 107.434 19.961 106.348 34.766Zm0 0"/></g></g><g clip-path="url(#d)"><g id="G" clip-path="url(#e)"><path fill="#633D24" d="M-43.762 170.121c-19.918 18.063 10.797 75.402 73.5 80.695 22.942 27.086 91.711 27.551 109.383 8.875 8.48-8.097 13.535-26.078-3.484-65.09-10.567-24.218-63.219-63.64-95.98-66.808-15.903-1.535-32.563 4.703-48.173 14.348"/></g></g><g id="K" clip-path="url(#f)"><path fill="none" stroke="#577850" stroke-linecap="round" stroke-linejoin="round" stroke-width="6.215" d="M-136.389-97.173c5.47 4.266 6.512 5.04 14.327.581" transform="matrix(-1 -.4845 .47449 -.9886 0 0)"/></g><g id="M" clip-path="url(#g)"><path fill="none" stroke="#577850" stroke-linecap="round" stroke-linejoin="round" stroke-width="5.179" d="M99.643 29.19c7.136-2.34 15.63-1.761 24.268 1.84 7.311-3.575 15.294-6.361 23.89-4.552" transform="matrix(1 .4845 -.47449 .9886 0 0)"/></g><g id="O" clip-path="url(#h)"><path fill="none" stroke="#577850" stroke-linecap="round" stroke-linejoin="round" stroke-width="5.179" d="M138.106 13.33c-3.603.383-10.637 1.507-14.827 4.52-5.884-3.714-11.591-3.64-16.439-3.047" transform="matrix(1 .4845 -.47449 .9886 0 0)"/></g><g id="Q" clip-path="url(#i)"><path fill="none" stroke="#577850" stroke-linecap="round" stroke-linejoin="round" stroke-width="6.174" d="M-53.648-60.189c-10.494 13.029-32.998 19.237-48.602 10.59" transform="matrix(-.9695 -.55881 .56677 -1 0 0)"/></g><g id="U" clip-path="url(#j)"><path fill="#E0B285" d="M14.79 117.348c-4.173 3.086 3.01 9.898 11.898 19.082 8.886 9.187 16.117 17.265 20.285 14.18 4.172-3.09.351-13.036-8.535-22.223-8.891-9.184-19.477-14.125-23.649-11.04Zm0 0"/></g><g id="W" clip-path="url(#k)"><path d="M21.941 121.398c-.918 6.055 3.457 13.141 9.774 15.825 6.312 2.68 12.176-.055 13.098-6.11.917-6.058-3.458-13.14-9.774-15.824-6.312-2.684-12.18.05-13.098 6.11Zm0 0"/></g><g id="Y" clip-path="url(#l)"><path fill="none" stroke="#577850" stroke-linecap="round" stroke-linejoin="round" stroke-width="6.58" d="M214.935-77.742c-11.184 13.88-35.165 20.5-51.797 11.283" transform="matrix(.97264 .39425 .40548 -1 0 0)"/></g><g id="ab" clip-path="url(#m)"><path fill="#E0B285" d="M158.188 181.738c.16 5.203-9.61 3.742-22.29 2.399-12.68-1.34-23.468-2.051-23.632-7.254-.16-5.203 9.984-8.332 22.664-6.992 12.68 1.34 23.093 6.644 23.257 11.847Zm0 0"/></g><g id="ad" clip-path="url(#n)"><path d="M150.598 178.594c-4.172 4.469-12.422 5.394-18.422 2.066-6.004-3.328-7.488-9.648-3.317-14.12 4.168-4.47 12.418-5.395 18.422-2.067 6 3.328 7.485 9.652 3.317 14.12Zm0 0"/></g><g id="ah" clip-path="url(#o)"><g clip-path="url(#p)"><path fill="none" stroke="#577850" stroke-linecap="round" stroke-linejoin="round" stroke-width="17.264" d="M128.025 6.25c18.169-1.108 36.79 1.123 48.334 6.114 13.836 5.986 45.408 19.491 39.05 54.056 19.54 38.816 10.168 61.684-26.043 77.837-18.283 8.155-40.014 21.432-61.343 20.806h.095c-21.328.627-43.062-12.651-61.343-20.809-36.21-16.149-34.174-38.878-26.044-77.832 8.129-38.957 25.217-48.074 39.054-54.057 11.538-4.991 30.164-7.22 48.332-6.116l-.092.002Zm0 0" transform="matrix(1 .4845 -.47449 .9886 0 0)"/></g><g clip-path="url(#q)"><path fill="#A5D69A" d="M25.297 124.156c-9.262 15.477-50.766 15.297-74.934-11.652-12.246-13.649-29.105-30.856-44.277-34.5-8.363-2.008-9.027-9.504 4.105-10.844 40.618-4.137 84.141-14.95 128.024 5.61"/></g><g clip-path="url(#r)"><path fill="none" stroke="#577850" stroke-linecap="round" stroke-linejoin="round" stroke-width="8.695" d="M18.465 125.52C8.38 140.649-33.02 138.74-55.663 110.717c-11.474-14.193-27.356-32.145-42.294-36.43-8.235-2.361-8.489-9.904 4.687-10.7 40.751-2.455 84.766-11.482 127.427 10.956" transform="matrix(1 -.04155 .05443 .99525 0 0)"/></g><g clip-path="url(#s)"><path fill="#FDAA95" d="M46.273 118.973c15.704-26.668 1.114-42.395-10.8-35.692C11.37 96.844-31.7 72.633-78.543 75.453c24.45 14.192 35.84 40.14 59.863 47.844 11.785 3.777 58.137 7.254 64.953-4.324Zm0 0"/></g><g clip-path="url(#t)"><path fill="none" stroke="#DD8278" stroke-linecap="round" stroke-linejoin="round" stroke-width="2.611" d="M-80.61 74.186s76.005 5.011 92.923 30.86c1.741-3.916 5.562-11.134 5.562-11.134C4.562 68.785-60.386 73.127-80.611 74.186Zm0 0" transform="matrix(1 -.01493 .02766 .99491 0 0)"/></g><g clip-path="url(#u)"><path fill="#DD8378" d="M-78.559 75.012s76.145 3.851 93.778 29.316c1.633-3.922 5.254-11.16 5.254-11.16-14.008-24.8-78.836-19.512-99.032-18.156Zm0 0"/></g><path fill="#A5D69A" d="M140.262 175.602c-5.012 17.347 23.277 47.91 59.347 47.496 18.274-.211 42.274.578 55.227 9.324 7.14 4.82 13.062.223 5.129-10.395-24.535-32.832-46.172-72.347-90.953-90.84"/><g clip-path="url(#v)"><path fill="none" stroke="#577850" stroke-linecap="round" stroke-linejoin="round" stroke-width="6.673" d="M-171.676 4.745c-7.741 11.61-39.515 10.146-56.894-11.359-8.804-10.895-20.993-24.673-32.459-27.96-6.32-1.813-6.513-7.603 3.6-8.213 31.272-1.884 65.055-8.814 97.796 8.408" transform="matrix(-.84451 -1 -.99478 .8274 0 0)"/></g><path fill="#FDAA95" d="M132.363 155.047c9.407-29.52 30.782-28.984 33.707-15.574 5.914 27.14 52.508 43.468 81.512 80.578-26.785-8.973-53.637-.317-75.316-13.274-10.63-6.355-43.985-38.918-39.903-51.73Zm0 0"/><path fill="none" stroke="#DD8278" stroke-linecap="round" stroke-linejoin="round" stroke-width="1.99" d="M-249.012-34.843s57.932 3.82 70.825 23.52c1.327-2.985 4.237-8.487 4.237-8.487-10.145-19.149-59.649-15.84-75.062-15.033Zm0 0" transform="matrix(-.85643 -1 -.99462 .83926 0 0)"/><path fill="#DD8378" d="M247.918 219.77s-53.414-54.727-84.05-51.086c1.831-3.832 4.812-11.36 4.812-11.36 27.734-5.926 66.84 46.356 79.238 62.446Zm0 0"/><path fill="#9B6E4E" d="M105.328 125.594c44.848 29.691 74.8 63.558 66.84 75.582-7.961 12.027-50.84-2.317-95.688-32.008-44.847-29.691-74.8-63.563-66.84-75.586 7.962-12.023 50.837 2.32 95.688 32.012Zm0 0"/><g clip-path="url(#w)"><path fill="none" stroke="#714223" stroke-width="6.633" d="M88.754 128.842a17.588 17.588 0 0 1-.575 3.643c-3.52 12.989-16.588 46.543-28.871 48.54-18.535 3.01-30.92-11.82-28.825-19.571 5.719-21.136 23.728-48.215 37.465-63.245.887-.97 2.227-1.013 3.812-.34" transform="matrix(1 .76452 -.713 .92896 0 0)"/></g><g clip-path="url(#x)"><path fill="#8B5936" d="M-3.11 187.543a19.295 19.295 0 0 1-3.171 2.945c-12.782 9.375-49.774 30.555-63.48 23.02-20.68-11.375-22.493-34.621-14.872-40.219 20.79-15.262 58.106-26.648 82.559-30.11 1.578-.222 2.949.762 4.054 2.598"/></g><g clip-path="url(#y)"><path fill="none" stroke="#714223" stroke-linecap="round" stroke-linejoin="round" stroke-width="6.633" d="M88.754 128.842a17.588 17.588 0 0 1-.575 3.643c-3.52 12.989-16.588 46.543-28.871 48.54-18.535 3.01-30.92-11.82-28.825-19.571 5.719-21.136 23.728-48.215 37.465-63.245.887-.97 2.227-1.013 3.812-.34" transform="matrix(1 .76452 -.713 .92896 0 0)"/></g><g clip-path="url(#z)" mask="url(#A)"><use xlink:href="#B"/></g><g clip-path="url(#C)"><path fill="#A26B46" d="M-37.125 164.063c-19.918 18.062-57.95 123.726-58.285 131.625-1.676 39.39 95.894 42.128 103.902 30.519 8.38 16.11 102.258 9.316 104.742-6.715 5.829-37.68 39.422-85.879 22.403-124.89-10.567-24.22-63.219-63.641-95.98-66.809-15.903-1.535-32.563 4.703-48.173 14.348"/></g><g clip-path="url(#D)"><path fill="none" stroke="#714223" stroke-linecap="round" stroke-linejoin="round" stroke-width="6.926" d="M49.704 132.973C44.169 155 66.363 247.231 69.764 252.955c16.967 28.549 86.066-15.053 86.29-26.973 13.24 7.445 75.386-41.153 69.734-53.613-13.291-29.28-12.12-78.933-41.91-98.49-18.494-12.14-73.247-15.359-97.484-2.303-11.763 6.339-20.475 18.51-26.889 32.593" transform="matrix(1 .66202 -.65298 .98635 0 0)"/></g><path fill="none" stroke="#714223" stroke-width="8.927" d="M289.858 101.29c26.675 55.466-13.548 94.1-27.329 96.34-20.783 3.376-31.174-32.138-24.025-37.139 16.815-11.99 20.404-24.388 13.239-47.23" transform="matrix(.04007 .99507 1 -.02726 0 0)"/><path fill="#A26B46" stroke="#714223" stroke-linecap="round" stroke-linejoin="round" stroke-width="8.927" d="M289.858 101.29c26.675 55.466-13.548 94.1-27.329 96.34-20.783 3.376-31.174-32.138-24.025-37.139 16.815-11.99 20.404-24.388 13.239-47.23" transform="matrix(.04007 .99507 1 -.02726 0 0)"/><path fill="none" stroke="#714223" stroke-linecap="round" stroke-linejoin="round" stroke-width="7.291" d="M156.02 227.197c-23.28-59.776-17.663-104.369-17.663-104.004" transform="matrix(1 .66202 -.65298 .98635 0 0)"/><g clip-path="url(#E)" mask="url(#F)"><use xlink:href="#G"/></g><g clip-path="url(#H)"><path fill="#A5D699" d="M125.059 68.207c18.695 7.707 36.257 18.934 45.433 29.461 10.996 12.621 36.16 41.27 13.403 72.36 1.12 47.84-19.102 65.906-62.977 64.331-22.152-.797-50.184 1.801-71.215-9.152l.094.047c-21.625-9.715-37.059-33.371-51.469-50.293-28.547-33.508-15.726-54.992 10.887-89.563 26.613-34.574 48.027-35.308 64.703-34.52 13.906.657 33.59 7.477 51.234 17.372l-.093-.043Zm0 0"/></g><path fill="#C1EBB7" stroke="#C1EBB7" stroke-linecap="round" stroke-linejoin="round" stroke-width="16.072" d="M124.39 24.744c-29.087-.557-42.92 5.42-51.764 11.821-8.844 6.402 26.436-3.212 52.906 2.602 21.557-6.086 58.369 7.584 53.525-.848-4.847-8.43-33.516-13.168-54.666-13.575Zm0 0" transform="matrix(1 .42772 -.4174 .98931 0 0)"/><path fill="#C1EBB7" d="M89.137 142.422c-4.657-2.16-8.403.285-10.535 1.32-2.13 1.04 2.027 4.399 7.226 6.801 5.203 2.402 9.707 3.543 9.84 1.035.133-2.512-3.148-7.586-6.531-9.156Zm0 0"/><path fill="#771C33" stroke="#000" stroke-linecap="round" stroke-linejoin="round" stroke-width="5.179" d="M142.026 107.49c-6.784 1.83-24.007-.658-26.524.113 5.13 3.401 4.678 10.51 13.133 10.151 8.445-.361 7.94-7.1 13.39-10.265Zm0 0" transform="matrix(1 .4845 -.47449 .9886 0 0)"/><g clip-path="url(#I)"><g mask="url(#J)"><use xlink:href="#K"/></g><g mask="url(#L)"><use xlink:href="#M"/></g><g mask="url(#N)"><use xlink:href="#O"/></g><g mask="url(#P)"><use xlink:href="#Q"/></g></g><g clip-path="url(#R)"><path fill="#FDB695" d="M26.68 133.422c-7.707-8.32-13.864-13.844-19.184-14.969-2.297-.484-4.434-.152-6.476 1.125-6.48 4.059-2.442 20.344 9.914 30.832 11.754 9.977 26.671 16.344 30.984 9.953 1.582-2.34 1.324-5.105-.219-8.297-2.469-5.109-8.226-11.32-15.02-18.644Zm0 0"/></g><path fill="none" stroke="#000" stroke-linecap="round" stroke-linejoin="round" stroke-width="7.456" d="M104.288 99.924c2.706-14.228-3.521-27.687-20.187-32.632-11.919-3.54-27.948 2.334-30.661 16.054-1.386 6.992 4.19 11.339 23.714 18.027 12.16 4.167 25.318 8.087 27.134-1.45Zm0 0" transform="matrix(.97112 .47392 -.48356 1 0 0)"/><path d="M52.957 149.348c9.508-12.946 9.969-29.356-3.824-42.2-9.863-9.187-28.27-10.91-37.54 1.524-4.726 6.336-1.413 13.324 14.313 29.266 9.793 9.93 20.676 20.085 27.051 11.41Zm0 0"/><path d="M25.191 113.242c-7.402 5.617-8.937 16.371-3.421 24.024 5.511 7.648 15.98 9.3 23.382 3.683 7.407-5.617 8.938-16.37 3.426-24.023-5.516-7.649-15.984-9.301-23.387-3.684Zm0 0"/><path fill="#FFF" d="M38.34 107.34c-2.434 2.543-1.188 7.812 2.785 11.773 3.973 3.961 9.172 5.11 11.61 2.567 2.433-2.543 1.187-7.813-2.786-11.774-3.972-3.96-9.172-5.11-11.61-2.566Zm0 0"/><g clip-path="url(#S)"><g mask="url(#T)"><use xlink:href="#U"/></g><g mask="url(#V)"><use xlink:href="#W"/></g><g mask="url(#X)"><use xlink:href="#Y"/></g></g><path fill="#FDB695" d="M138.258 182.285c11.277.945 19.402 2.39 23.574 5.899 1.797 1.511 2.86 3.406 3.121 5.808.828 7.625-14.41 14.5-30.254 11.23-15.07-3.113-29.273-10.96-26.941-18.316.855-2.695 3.176-4.203 6.629-4.957 5.523-1.21 13.941-.5 23.87.336Zm0 0"/><path fill="none" stroke="#000" stroke-linecap="round" stroke-linejoin="round" stroke-width="7.456" d="M-160.317 95.402c2.703-14.227-3.52-27.684-20.186-32.633-11.92-3.535-27.946 2.338-30.661 16.055-1.386 6.992 4.188 11.34 23.712 18.03 12.158 4.165 25.318 8.085 27.135-1.452Zm0 0" transform="matrix(-.97112 -.47392 -.48356 1 0 0)"/><path d="M109.555 171.379c4.254-15.508 16.804-26.016 35.382-23.066 13.286 2.113 26.008 15.582 22.012 30.585-2.035 7.649-9.55 9.356-31.746 6.793-13.82-1.597-28.496-3.914-25.648-14.312Zm0 0"/><path d="M154.969 170.988c.183 9.317-7.285 17.176-16.68 17.551-9.394.375-17.16-6.871-17.34-16.187-.183-9.32 7.285-17.176 16.68-17.555 9.394-.375 17.16 6.871 17.34 16.191Zm0 0"/><path fill="#FFF" d="M151.46 156.953c-.483 3.496-5.378 5.77-10.933 5.082-5.554-.691-9.668-4.086-9.183-7.582.48-3.496 5.375-5.77 10.933-5.078 5.555.688 9.664 4.082 9.184 7.578Zm0 0"/><g clip-path="url(#Z)"><g mask="url(#aa)"><use xlink:href="#ab"/></g><g mask="url(#ac)"><use xlink:href="#ad"/></g></g><path fill="#714223" d="M198.234 236.137c10.098 7.32 15.746 16.332 12.618 20.129-3.133 3.793-13.856.933-23.95-6.391-10.097-7.32-15.746-16.332-12.617-20.129 3.13-3.793 13.852-.934 23.95 6.39Zm0 0"/><g clip-path="url(#ae)"><path fill="#E5AA62" d="M-21.207 134.398c-7.629 17.922-22.234 18.493-22.742 36.77-.465 17.777 43.96 56.316 87.91 57.883 11.352 14.875 76.273 33.078 91.918 28.64 15.644-4.433 28.273-20.199 39.289-35.32-19.566 11.625-192.152-60.75-196.375-87.973Zm0 0"/></g><g clip-path="url(#af)"><path fill="#F5BF83" d="M-21.207 134.398c-9.758 41.391 107.738 113.883 196.375 87.973-19.566 11.625-192.152-60.75-196.375-87.973Zm0 0"/></g><g clip-path="url(#ag)"><path fill="none" stroke="#A87230" stroke-linecap="round" stroke-linejoin="round" stroke-width="8.031" d="M29.545 123.233c-.143 18.176-12.364 23.967-6.325 39.863 5.899 15.451 57.328 32.458 95.263 17.854 14.921 8.667 76.584.753 88.319-8.74 11.736-9.489 16.896-27.625 20.912-44.622-12.526 17.095-184.94 17.515-198.169-4.355Zm0 0" transform="matrix(1 .42219 -.41184 .98938 0 0)"/></g><path fill="none" stroke="#577850" stroke-linecap="round" stroke-linejoin="round" stroke-width="8.515" d="M142.955 250.611c3.265-12.038 6.812-23.967 12.734-23.42 4.689.434 4.817 6.414 3.05 16.588 5.64-7.773 10.842-11.34 14.234-8.39 3.808 3.317 1.852 8.763-6.585 18.238-5.024 8.525-4.292 15.33-14.727 14.99-4.932-.16-16.455-12.625-8.706-18.006Zm0 0" transform="matrix(1 -.14478 .15823 .99656 0 0)"/><path fill="#A5D69A" stroke="#577850" stroke-linecap="round" stroke-linejoin="round" stroke-width="6.967" d="M142.955 250.611c3.265-12.038 6.812-23.967 12.734-23.42 4.689.434 4.817 6.414 3.05 16.588 5.64-7.773 10.842-11.34 14.234-8.39 3.808 3.317 1.852 8.763-6.585 18.238-5.024 8.525-4.292 15.33-14.727 14.99-4.932-.16-16.455-12.625-8.706-18.006Zm0 0" transform="matrix(1 -.14478 .15823 .99656 0 0)"/><path fill="#A5D69A" stroke="#577850" stroke-linecap="round" stroke-linejoin="round" stroke-width="6.58" d="M142.306 258.591c-7.967-7.464-9.367-14.174-7.555-16.29 2.938-3.434 8.657-.181 14.81 7.788" transform="matrix(1 -.14478 .15823 .99656 0 0)"/></g><mask id="A"><g filter="url(#a)"><path fill-opacity=".15" d="M-58.981-81.593H327.08v534.064H-58.981z"/></g></mask><mask id="F"><g filter="url(#a)"><path fill-opacity=".45" d="M-58.981-81.593H327.08v534.064H-58.981z"/></g></mask><mask id="J"><g filter="url(#a)"><path fill-opacity=".5" d="M-58.981-81.593H327.08v534.064H-58.981z"/></g></mask><mask id="L"><g filter="url(#a)"><path fill-opacity=".5" d="M-58.981-81.593H327.08v534.064H-58.981z"/></g></mask><mask id="N"><g filter="url(#a)"><path fill-opacity=".5" d="M-58.981-81.593H327.08v534.064H-58.981z"/></g></mask><mask id="P"><g filter="url(#a)"><path fill-opacity=".5" d="M-58.981-81.593H327.08v534.064H-58.981z"/></g></mask><mask id="T"><g filter="url(#a)"><path fill-opacity=".33" d="M-58.981-81.593H327.08v534.064H-58.981z"/></g></mask><mask id="V"><g filter="url(#a)"><path fill-opacity=".33" d="M-58.981-81.593H327.08v534.064H-58.981z"/></g></mask><mask id="X"><g filter="url(#a)"><path fill-opacity=".5" d="M-58.981-81.593H327.08v534.064H-58.981z"/></g></mask><mask id="aa"><g filter="url(#a)"><path fill-opacity=".33" d="M-58.981-81.593H327.08v534.064H-58.981z"/></g></mask><mask id="ac"><g filter="url(#a)"><path fill-opacity=".33" d="M-58.981-81.593H327.08v534.064H-58.981z"/></g></mask><filter id="a" width="1" height="1" x="0" y="0"><feColorMatrix color-interpolation-filters="sRGB" values="0 0 0 0 1 0 0 0 0 1 0 0 0 0 1 0 0 0 1 0"/></filter></defs><use xlink:href="#ah"/><g clip-path="url(#ai)"><path fill="none" stroke="#777" stroke-linecap="round" stroke-linejoin="round" stroke-width="7.5" d="M3.75 367.129V3.75"/></g></svg>