<?xml version="1.0" encoding="UTF-8" standalone="no"?>
<svg
   width="268.09758pt"
   height="370.877998pt"
   viewBox="0 0 268.09758 370.877998"
   version="1.1"
   id="svg517"
   sodipodi:docname="home.svg"
   inkscape:version="1.2.2 (b0a8486, 2022-12-01)"
   xmlns:inkscape="http://www.inkscape.org/namespaces/inkscape"
   xmlns:sodipodi="http://sodipodi.sourceforge.net/DTD/sodipodi-0.dtd"
   xmlns:xlink="http://www.w3.org/1999/xlink"
   xmlns="http://www.w3.org/2000/svg"
   xmlns:svg="http://www.w3.org/2000/svg">
  <sodipodi:namedview
     id="namedview519"
     pagecolor="#ffffff"
     bordercolor="#666666"
     borderopacity="1.0"
     inkscape:showpageshadow="2"
     inkscape:pageopacity="0.0"
     inkscape:pagecheckerboard="0"
     inkscape:deskcolor="#d1d1d1"
     inkscape:document-units="pt"
     showgrid="false"
     inkscape:zoom="0.4772459"
     inkscape:cx="178.10525"
     inkscape:cy="247.25199"
     inkscape:window-width="1280"
     inkscape:window-height="456"
     inkscape:window-x="1920"
     inkscape:window-y="731"
     inkscape:window-maximized="0"
     inkscape:current-layer="svg517" />
  <defs
     id="defs509">
    <filter
       id="filter-remove-color"
       x="0"
       y="0"
       width="1"
       height="1">
      <feColorMatrix
         color-interpolation-filters="sRGB"
         values="0 0 0 0 1 0 0 0 0 1 0 0 0 0 1 0 0 0 1 0"
         id="feColorMatrix132" />
    </filter>
    <clipPath
       id="clip-0">
      <path
         clip-rule="nonzero"
         d="M 0 41 L 203 41 L 203 244 L 0 244 Z M 0 41 "
         id="path135" />
    </clipPath>
    <clipPath
       id="clip-1">
      <path
         clip-rule="nonzero"
         d="M 0 60 L 39 60 L 39 135 L 0 135 Z M 0 60 "
         id="path138" />
    </clipPath>
    <clipPath
       id="clip-2">
      <path
         clip-rule="nonzero"
         d="M 0 56 L 43 56 L 43 139 L 0 139 Z M 0 56 "
         id="path141" />
    </clipPath>
    <clipPath
       id="clip-3">
      <path
         clip-rule="nonzero"
         d="M 0 75 L 54 75 L 54 127 L 0 127 Z M 0 75 "
         id="path144" />
    </clipPath>
    <clipPath
       id="clip-4">
      <path
         clip-rule="nonzero"
         d="M 0 72 L 22 72 L 22 106 L 0 106 Z M 0 72 "
         id="path147" />
    </clipPath>
    <clipPath
       id="clip-5">
      <path
         clip-rule="nonzero"
         d="M 0 73 L 21 73 L 21 105 L 0 105 Z M 0 73 "
         id="path150" />
    </clipPath>
    <clipPath
       id="clip-6">
      <path
         clip-rule="nonzero"
         d="M 135 126 L 268.097656 126 L 268.097656 239 L 135 239 Z M 135 126 "
         id="path153" />
    </clipPath>
    <clipPath
       id="clip-7">
      <path
         clip-rule="nonzero"
         d="M 0 98 L 49 98 L 49 261 L 0 261 Z M 0 98 "
         id="path156" />
    </clipPath>
    <clipPath
       id="clip-8">
      <path
         clip-rule="nonzero"
         d="M 0 143 L 2 143 L 2 216 L 0 216 Z M 0 143 "
         id="path159" />
    </clipPath>
    <clipPath
       id="clip-9">
      <path
         clip-rule="nonzero"
         d="M 0 139 L 7 139 L 7 220 L 0 220 Z M 0 139 "
         id="path162" />
    </clipPath>
    <clipPath
       id="clip-10">
      <path
         clip-rule="nonzero"
         d="M 0 0 L 268.097656 0 L 268.097656 370.878906 L 0 370.878906 Z M 0 0 "
         id="path165" />
    </clipPath>
    <mask
       id="mask-0">
      <g
         filter="url(#filter-remove-color)"
         id="g170">
        <rect
           x="-58.981468"
           y="-81.59316"
           width="386.060515"
           height="534.064317"
           fill="rgb(0%, 0%, 0%)"
           fill-opacity="0.15"
           id="rect168" />
      </g>
    </mask>
    <clipPath
       id="clip-11">
      <path
         clip-rule="nonzero"
         d="M 0 292 L 120 292 L 120 349 L 0 349 Z M 0 292 "
         id="path173" />
    </clipPath>
    <clipPath
       id="clip-12">
      <rect
         x="0"
         y="0"
         width="269"
         height="371"
         id="rect176" />
    </clipPath>
    <g
       id="source-2560"
       clip-path="url(#clip-12)">
      <g
         clip-path="url(#clip-11)"
         id="g181">
        <path
           fill-rule="nonzero"
           fill="rgb(0%, 0%, 0%)"
           fill-opacity="1"
           d="M 119.632812 328.582031 C 118.542969 343.386719 69.167969 351.828125 9.347656 347.433594 C -50.472656 343.039062 -98.085938 327.472656 -97 312.667969 C -95.910156 297.859375 -46.535156 289.421875 13.285156 293.816406 C 73.109375 298.210938 120.71875 313.777344 119.632812 328.582031 Z M 119.632812 328.582031 "
           id="path179" />
      </g>
    </g>
    <clipPath
       id="clip-13">
      <path
         clip-rule="nonzero"
         d="M 0 127 L 141 127 L 141 336 L 0 336 Z M 0 127 "
         id="path184" />
    </clipPath>
    <clipPath
       id="clip-14">
      <path
         clip-rule="nonzero"
         d="M 0 123 L 145 123 L 145 340 L 0 340 Z M 0 123 "
         id="path187" />
    </clipPath>
    <clipPath
       id="clip-15">
      <path
         clip-rule="nonzero"
         d="M 0 0 L 268.097656 0 L 268.097656 370.878906 L 0 370.878906 Z M 0 0 "
         id="path190" />
    </clipPath>
    <mask
       id="mask-1">
      <g
         filter="url(#filter-remove-color)"
         id="g195">
        <rect
           x="-58.981468"
           y="-81.59316"
           width="386.060515"
           height="534.064317"
           fill="rgb(0%, 0%, 0%)"
           fill-opacity="0.45"
           id="rect193" />
      </g>
    </mask>
    <clipPath
       id="clip-16">
      <path
         clip-rule="nonzero"
         d="M 0 127 L 147 127 L 147 273 L 0 273 Z M 0 127 "
         id="path198" />
    </clipPath>
    <clipPath
       id="clip-17">
      <rect
         x="0"
         y="0"
         width="269"
         height="371"
         id="rect201" />
    </clipPath>
    <g
       id="source-2563"
       clip-path="url(#clip-17)">
      <g
         clip-path="url(#clip-16)"
         id="g206">
        <path
           fill-rule="nonzero"
           fill="rgb(38.822937%, 23.921204%, 14.117432%)"
           fill-opacity="1"
           d="M -43.761719 170.121094 C -63.679688 188.183594 -32.964844 245.523438 29.738281 250.816406 C 52.679688 277.902344 121.449219 278.367188 139.121094 259.691406 C 147.601562 251.59375 152.65625 233.613281 135.636719 194.601562 C 125.070312 170.382812 72.417969 130.960938 39.65625 127.792969 C 23.753906 126.257812 7.09375 132.496094 -8.515625 142.140625 "
           id="path204" />
      </g>
    </g>
    <clipPath
       id="clip-18">
      <path
         clip-rule="nonzero"
         d="M 0 50 L 194 50 L 194 235 L 0 235 Z M 0 50 "
         id="path209" />
    </clipPath>
    <clipPath
       id="clip-19">
      <path
         clip-rule="nonzero"
         d="M 0 0 L 268.097656 0 L 268.097656 370.878906 L 0 370.878906 Z M 0 0 "
         id="path212" />
    </clipPath>
    <mask
       id="mask-2">
      <g
         filter="url(#filter-remove-color)"
         id="g217">
        <rect
           x="-58.981468"
           y="-81.59316"
           width="386.060515"
           height="534.064317"
           fill="rgb(0%, 0%, 0%)"
           fill-opacity="0.5"
           id="rect215" />
      </g>
    </mask>
    <clipPath
       id="clip-20">
      <rect
         x="0"
         y="0"
         width="269"
         height="371"
         id="rect220" />
    </clipPath>
    <g
       id="source-2566"
       clip-path="url(#clip-20)">
      <path
         fill="none"
         stroke-width="6.215106"
         stroke-linecap="round"
         stroke-linejoin="round"
         stroke="rgb(34.117126%, 47.058105%, 31.37207%)"
         stroke-opacity="1"
         stroke-miterlimit="4"
         d="M -136.388681 -97.173019 C -130.919242 -92.9071 -129.876591 -92.133911 -122.062168 -96.591905 "
         transform="matrix(-1, -0.484496, 0.474488, -0.988595, 0, 0)"
         id="path223" />
    </g>
    <mask
       id="mask-3">
      <g
         filter="url(#filter-remove-color)"
         id="g228">
        <rect
           x="-58.981468"
           y="-81.59316"
           width="386.060515"
           height="534.064317"
           fill="rgb(0%, 0%, 0%)"
           fill-opacity="0.5"
           id="rect226" />
      </g>
    </mask>
    <clipPath
       id="clip-21">
      <rect
         x="0"
         y="0"
         width="269"
         height="371"
         id="rect231" />
    </clipPath>
    <g
       id="source-2569"
       clip-path="url(#clip-21)">
      <path
         fill="none"
         stroke-width="5.179255"
         stroke-linecap="round"
         stroke-linejoin="round"
         stroke="rgb(34.117126%, 47.058105%, 31.37207%)"
         stroke-opacity="1"
         stroke-miterlimit="4"
         d="M 99.642867 29.189144 C 106.778885 26.849621 115.272382 27.428659 123.911064 31.030425 C 131.222441 27.455128 139.205162 24.669037 147.801685 26.477811 "
         transform="matrix(1, 0.484496, -0.474488, 0.988595, 0, 0)"
         id="path234" />
    </g>
    <mask
       id="mask-4">
      <g
         filter="url(#filter-remove-color)"
         id="g239">
        <rect
           x="-58.981468"
           y="-81.59316"
           width="386.060515"
           height="534.064317"
           fill="rgb(0%, 0%, 0%)"
           fill-opacity="0.5"
           id="rect237" />
      </g>
    </mask>
    <clipPath
       id="clip-22">
      <rect
         x="0"
         y="0"
         width="269"
         height="371"
         id="rect242" />
    </clipPath>
    <g
       id="source-2572"
       clip-path="url(#clip-22)">
      <path
         fill="none"
         stroke-width="5.179255"
         stroke-linecap="round"
         stroke-linejoin="round"
         stroke="rgb(34.117126%, 47.058105%, 31.37207%)"
         stroke-opacity="1"
         stroke-miterlimit="4"
         d="M 138.106168 13.329986 C 134.502751 13.713008 127.469453 14.836552 123.278509 17.850642 C 117.394645 14.135542 111.687762 14.209947 106.840482 14.803485 "
         transform="matrix(1, 0.484496, -0.474488, 0.988595, 0, 0)"
         id="path245" />
    </g>
    <mask
       id="mask-5">
      <g
         filter="url(#filter-remove-color)"
         id="g250">
        <rect
           x="-58.981468"
           y="-81.59316"
           width="386.060515"
           height="534.064317"
           fill="rgb(0%, 0%, 0%)"
           fill-opacity="0.5"
           id="rect248" />
      </g>
    </mask>
    <clipPath
       id="clip-23">
      <rect
         x="0"
         y="0"
         width="269"
         height="371"
         id="rect253" />
    </clipPath>
    <g
       id="source-2575"
       clip-path="url(#clip-23)">
      <path
         fill="none"
         stroke-width="6.173976"
         stroke-linecap="round"
         stroke-linejoin="round"
         stroke="rgb(34.117126%, 47.058105%, 31.37207%)"
         stroke-opacity="1"
         stroke-miterlimit="4"
         d="M -53.647831 -60.188863 C -64.142314 -47.160348 -86.645974 -40.952197 -102.249647 -49.599849 "
         transform="matrix(-0.969502, -0.558813, 0.56677, -1, 0, 0)"
         id="path256" />
    </g>
    <clipPath
       id="clip-24">
      <path
         clip-rule="nonzero"
         d="M 0 118 L 43 118 L 43 163 L 0 163 Z M 0 118 "
         id="path259" />
    </clipPath>
    <clipPath
       id="clip-25">
      <path
         clip-rule="nonzero"
         d="M 0 0 L 268.097656 0 L 268.097656 370.878906 L 0 370.878906 Z M 0 0 "
         id="path262" />
    </clipPath>
    <mask
       id="mask-6">
      <g
         filter="url(#filter-remove-color)"
         id="g267">
        <rect
           x="-58.981468"
           y="-81.59316"
           width="386.060515"
           height="534.064317"
           fill="rgb(0%, 0%, 0%)"
           fill-opacity="0.33"
           id="rect265" />
      </g>
    </mask>
    <clipPath
       id="clip-26">
      <rect
         x="0"
         y="0"
         width="269"
         height="371"
         id="rect270" />
    </clipPath>
    <g
       id="source-2578"
       clip-path="url(#clip-26)">
      <path
         fill-rule="nonzero"
         fill="rgb(87.841797%, 69.802856%, 52.156067%)"
         fill-opacity="1"
         d="M 14.789062 117.347656 C 10.617188 120.433594 17.800781 127.246094 26.6875 136.429688 C 35.574219 145.617188 42.804688 153.695312 46.972656 150.609375 C 51.144531 147.519531 47.324219 137.574219 38.4375 128.386719 C 29.546875 119.203125 18.960938 114.261719 14.789062 117.347656 Z M 14.789062 117.347656 "
         id="path273" />
    </g>
    <mask
       id="mask-7">
      <g
         filter="url(#filter-remove-color)"
         id="g278">
        <rect
           x="-58.981468"
           y="-81.59316"
           width="386.060515"
           height="534.064317"
           fill="rgb(0%, 0%, 0%)"
           fill-opacity="0.33"
           id="rect276" />
      </g>
    </mask>
    <clipPath
       id="clip-27">
      <rect
         x="0"
         y="0"
         width="269"
         height="371"
         id="rect281" />
    </clipPath>
    <g
       id="source-2581"
       clip-path="url(#clip-27)">
      <path
         fill-rule="nonzero"
         fill="rgb(0%, 0%, 0%)"
         fill-opacity="1"
         d="M 21.941406 121.398438 C 21.023438 127.453125 25.398438 134.539062 31.714844 137.222656 C 38.027344 139.902344 43.890625 137.167969 44.8125 131.113281 C 45.730469 125.054688 41.355469 117.972656 35.039062 115.289062 C 28.726562 112.605469 22.859375 115.339844 21.941406 121.398438 Z M 21.941406 121.398438 "
         id="path284" />
    </g>
    <mask
       id="mask-8">
      <g
         filter="url(#filter-remove-color)"
         id="g289">
        <rect
           x="-58.981468"
           y="-81.59316"
           width="386.060515"
           height="534.064317"
           fill="rgb(0%, 0%, 0%)"
           fill-opacity="0.5"
           id="rect287" />
      </g>
    </mask>
    <clipPath
       id="clip-28">
      <rect
         x="0"
         y="0"
         width="269"
         height="371"
         id="rect292" />
    </clipPath>
    <g
       id="source-2584"
       clip-path="url(#clip-28)">
      <path
         fill="none"
         stroke-width="6.579666"
         stroke-linecap="round"
         stroke-linejoin="round"
         stroke="rgb(34.117126%, 47.058105%, 31.37207%)"
         stroke-opacity="1"
         stroke-miterlimit="4"
         d="M 214.934912 -77.74152 C 203.750968 -63.861772 179.77004 -57.24213 163.138283 -66.459423 "
         transform="matrix(0.972637, 0.394254, 0.405477, -1, 0, 0)"
         id="path295" />
    </g>
    <clipPath
       id="clip-29">
      <path
         clip-rule="nonzero"
         d="M 0 0 L 268.097656 0 L 268.097656 370.878906 L 0 370.878906 Z M 0 0 "
         id="path298" />
    </clipPath>
    <mask
       id="mask-9">
      <g
         filter="url(#filter-remove-color)"
         id="g303">
        <rect
           x="-58.981468"
           y="-81.59316"
           width="386.060515"
           height="534.064317"
           fill="rgb(0%, 0%, 0%)"
           fill-opacity="0.33"
           id="rect301" />
      </g>
    </mask>
    <clipPath
       id="clip-30">
      <rect
         x="0"
         y="0"
         width="269"
         height="371"
         id="rect306" />
    </clipPath>
    <g
       id="source-2587"
       clip-path="url(#clip-30)">
      <path
         fill-rule="nonzero"
         fill="rgb(87.841797%, 69.802856%, 52.156067%)"
         fill-opacity="1"
         d="M 158.1875 181.738281 C 158.347656 186.941406 148.578125 185.480469 135.898438 184.136719 C 123.21875 182.796875 112.429688 182.085938 112.265625 176.882812 C 112.105469 171.679688 122.25 168.550781 134.929688 169.890625 C 147.609375 171.230469 158.023438 176.535156 158.1875 181.738281 Z M 158.1875 181.738281 "
         id="path309" />
    </g>
    <mask
       id="mask-10">
      <g
         filter="url(#filter-remove-color)"
         id="g314">
        <rect
           x="-58.981468"
           y="-81.59316"
           width="386.060515"
           height="534.064317"
           fill="rgb(0%, 0%, 0%)"
           fill-opacity="0.33"
           id="rect312" />
      </g>
    </mask>
    <clipPath
       id="clip-31">
      <rect
         x="0"
         y="0"
         width="269"
         height="371"
         id="rect317" />
    </clipPath>
    <g
       id="source-2590"
       clip-path="url(#clip-31)">
      <path
         fill-rule="nonzero"
         fill="rgb(0%, 0%, 0%)"
         fill-opacity="1"
         d="M 150.597656 178.59375 C 146.425781 183.0625 138.175781 183.988281 132.175781 180.660156 C 126.171875 177.332031 124.6875 171.011719 128.859375 166.539062 C 133.027344 162.070312 141.277344 161.144531 147.28125 164.472656 C 153.28125 167.800781 154.765625 174.125 150.597656 178.59375 Z M 150.597656 178.59375 "
         id="path320" />
    </g>
    <clipPath
       id="clip-32">
      <path
         clip-rule="nonzero"
         d="M 0 134 L 176 134 L 176 259 L 0 259 Z M 0 134 "
         id="path323" />
    </clipPath>
    <clipPath
       id="clip-33">
      <path
         clip-rule="nonzero"
         d="M 0 134 L 176 134 L 176 228 L 0 228 Z M 0 134 "
         id="path326" />
    </clipPath>
    <clipPath
       id="clip-34">
      <path
         clip-rule="nonzero"
         d="M 0 130 L 180 130 L 180 263 L 0 263 Z M 0 130 "
         id="path329" />
    </clipPath>
    <clipPath
       id="clip-35">
      <rect
         x="0"
         y="0"
         width="269"
         height="371"
         id="rect332" />
    </clipPath>
    <g
       id="source-2592"
       clip-path="url(#clip-35)">
      <g
         clip-path="url(#clip-0)"
         id="g337">
        <path
           fill="none"
           stroke-width="17.264183"
           stroke-linecap="round"
           stroke-linejoin="round"
           stroke="rgb(34.117126%, 47.058105%, 31.37207%)"
           stroke-opacity="1"
           stroke-miterlimit="4"
           d="M 128.024583 6.250925 C 146.193892 5.142355 164.81465 7.372671 176.358706 12.363891 C 190.194965 18.34964 221.767356 31.855414 215.409856 66.419646 C 234.9487 105.235695 225.576613 128.103649 189.366366 144.257384 C 171.08313 152.411663 149.352005 165.689395 128.023414 165.06274 C 128.023414 165.06274 128.11773 165.063933 128.11773 165.063933 C 106.789609 165.689614 85.055871 152.41184 66.774907 144.253979 C 30.565645 128.105232 32.600979 105.375514 40.731222 66.421865 C 48.859943 27.46501 65.947905 18.347602 79.784783 12.364515 C 91.322931 7.373658 109.948769 5.144402 128.117377 6.248912 C 128.117377 6.248912 128.024583 6.250925 128.024583 6.250925 Z M 128.024583 6.250925 "
           transform="matrix(1, 0.484496, -0.474488, 0.988595, 0, 0)"
           id="path335" />
      </g>
      <g
         clip-path="url(#clip-1)"
         id="g341">
        <path
           fill-rule="nonzero"
           fill="rgb(64.704895%, 83.920288%, 60.391235%)"
           fill-opacity="1"
           d="M 25.296875 124.15625 C 16.035156 139.632812 -25.46875 139.453125 -49.636719 112.503906 C -61.882812 98.855469 -78.742188 81.648438 -93.914062 78.003906 C -102.277344 75.996094 -102.941406 68.5 -89.808594 67.160156 C -49.191406 63.023438 -5.667969 52.210938 38.214844 72.769531 "
           id="path339" />
      </g>
      <g
         clip-path="url(#clip-2)"
         id="g345">
        <path
           fill="none"
           stroke-width="8.694831"
           stroke-linecap="round"
           stroke-linejoin="round"
           stroke="rgb(34.117126%, 47.058105%, 31.37207%)"
           stroke-opacity="1"
           stroke-miterlimit="4"
           d="M 18.464835 125.519528 C 8.379622 140.648915 -33.020385 138.740054 -55.663055 110.716985 C -67.136647 96.524436 -83.018884 78.572267 -97.957495 74.286707 C -106.192258 71.925539 -106.445784 64.383093 -93.269636 63.586917 C -52.518809 61.131674 -8.504052 52.105054 34.157476 74.542727 "
           transform="matrix(1, -0.0415485, 0.0544301, 0.995251, 0, 0)"
           id="path343" />
      </g>
      <g
         clip-path="url(#clip-3)"
         id="g349">
        <path
           fill-rule="nonzero"
           fill="rgb(99.215698%, 66.665649%, 58.430481%)"
           fill-opacity="1"
           d="M 46.273438 118.972656 C 61.976562 92.304688 47.386719 76.578125 35.472656 83.28125 C 11.371094 96.84375 -31.699219 72.632812 -78.542969 75.453125 C -54.09375 89.644531 -42.703125 115.59375 -18.679688 123.296875 C -6.894531 127.074219 39.457031 130.550781 46.273438 118.972656 Z M 46.273438 118.972656 "
           id="path347" />
      </g>
      <g
         clip-path="url(#clip-4)"
         id="g353">
        <path
           fill="none"
           stroke-width="2.611312"
           stroke-linecap="round"
           stroke-linejoin="round"
           stroke="rgb(86.665344%, 50.979614%, 47.058105%)"
           stroke-opacity="1"
           stroke-miterlimit="4"
           d="M -80.610764 74.185733 C -80.610764 74.185733 -4.604865 79.197266 12.312903 105.04607 C 14.054036 101.130272 17.874797 93.912317 17.874797 93.912317 C 4.56207 68.785054 -60.386157 73.126758 -80.610764 74.185733 Z M -80.610764 74.185733 "
           transform="matrix(1, -0.0149263, 0.0276626, 0.994915, 0, 0)"
           id="path351" />
      </g>
      <g
         clip-path="url(#clip-5)"
         id="g357">
        <path
           fill-rule="nonzero"
           fill="rgb(86.665344%, 51.371765%, 47.058105%)"
           fill-opacity="1"
           d="M -78.558594 75.011719 C -78.558594 75.011719 -2.414062 78.863281 15.21875 104.328125 C 16.851562 100.40625 20.472656 93.167969 20.472656 93.167969 C 6.464844 68.367188 -58.363281 73.65625 -78.558594 75.011719 Z M -78.558594 75.011719 "
           id="path355" />
      </g>
      <path
         fill-rule="nonzero"
         fill="rgb(64.704895%, 83.920288%, 60.391235%)"
         fill-opacity="1"
         d="M 140.261719 175.601562 C 135.25 192.949219 163.539062 223.511719 199.609375 223.097656 C 217.882812 222.886719 241.882812 223.675781 254.835938 232.421875 C 261.976562 237.242188 267.898438 232.644531 259.964844 222.027344 C 235.429688 189.195312 213.792969 149.679688 169.011719 131.1875 "
         id="path359" />
      <g
         clip-path="url(#clip-6)"
         id="g363">
        <path
           fill="none"
           stroke-width="6.673052"
           stroke-linecap="round"
           stroke-linejoin="round"
           stroke="rgb(34.117126%, 47.058105%, 31.37207%)"
           stroke-opacity="1"
           stroke-miterlimit="4"
           d="M -171.675564 4.744971 C -179.417001 16.35507 -211.190511 14.89144 -228.570078 -6.613981 C -237.373983 -17.509342 -249.5631 -31.287475 -261.029027 -34.574671 C -267.349153 -36.387349 -267.54173 -42.176836 -257.429104 -42.786651 C -226.15651 -44.67139 -192.374061 -51.60052 -159.633095 -34.379412 "
           transform="matrix(-0.844511, -1, -0.994776, 0.827402, 0, 0)"
           id="path361" />
      </g>
      <path
         fill-rule="nonzero"
         fill="rgb(99.215698%, 66.665649%, 58.430481%)"
         fill-opacity="1"
         d="M 132.363281 155.046875 C 141.769531 125.527344 163.144531 126.0625 166.070312 139.472656 C 171.984375 166.613281 218.578125 182.941406 247.582031 220.050781 C 220.796875 211.078125 193.945312 219.734375 172.265625 206.777344 C 161.636719 200.421875 128.28125 167.859375 132.363281 155.046875 Z M 132.363281 155.046875 "
         id="path365" />
      <path
         fill="none"
         stroke-width="1.990274"
         stroke-linecap="round"
         stroke-linejoin="round"
         stroke="rgb(86.665344%, 50.979614%, 47.058105%)"
         stroke-opacity="1"
         stroke-miterlimit="4"
         d="M -249.012141 -34.843285 C -249.012141 -34.843285 -191.079938 -31.023685 -178.186736 -11.323227 C -176.859616 -14.307889 -173.9499 -19.809905 -173.9499 -19.809905 C -184.094933 -38.958674 -233.598949 -35.649532 -249.012141 -34.843285 Z M -249.012141 -34.843285 "
         transform="matrix(-0.856432, -1, -0.994625, 0.839261, 0, 0)"
         id="path367" />
      <path
         fill-rule="nonzero"
         fill="rgb(86.665344%, 51.371765%, 47.058105%)"
         fill-opacity="1"
         d="M 247.917969 219.769531 C 247.917969 219.769531 194.503906 165.042969 163.867188 168.683594 C 165.699219 164.851562 168.679688 157.324219 168.679688 157.324219 C 196.414062 151.398438 235.519531 203.679688 247.917969 219.769531 Z M 247.917969 219.769531 "
         id="path369" />
      <path
         fill-rule="nonzero"
         fill="rgb(60.783386%, 43.136597%, 30.587769%)"
         fill-opacity="1"
         d="M 105.328125 125.59375 C 150.175781 155.285156 180.128906 189.152344 172.167969 201.175781 C 164.207031 213.203125 121.328125 198.859375 76.480469 169.167969 C 31.632812 139.476562 1.679688 105.605469 9.640625 93.582031 C 17.601562 81.558594 60.476562 95.902344 105.328125 125.59375 Z M 105.328125 125.59375 "
         id="path371" />
      <g
         clip-path="url(#clip-7)"
         id="g375">
        <path
           fill="none"
           stroke-width="6.633439"
           stroke-linecap="butt"
           stroke-linejoin="miter"
           stroke="rgb(44.313049%, 25.881958%, 13.725281%)"
           stroke-opacity="1"
           stroke-miterlimit="4"
           d="M 88.753734 128.84171 C 88.684741 130.092699 88.498095 131.310161 88.179423 132.484899 C 84.659212 145.473879 71.590941 179.028135 59.307965 181.025431 C 40.773464 184.034142 28.387233 169.204058 30.482553 161.453937 C 36.201979 140.318165 54.211369 113.239297 67.947873 98.208804 C 68.834722 97.239261 70.174931 97.195944 71.759636 97.868092 "
           transform="matrix(1, 0.764519, -0.712992, 0.928962, 0, 0)"
           id="path373" />
      </g>
      <g
         clip-path="url(#clip-8)"
         id="g379">
        <path
           fill-rule="nonzero"
           fill="rgb(54.508972%, 34.901428%, 21.176147%)"
           fill-opacity="1"
           d="M -3.109375 187.542969 C -4.070312 188.652344 -5.125 189.640625 -6.28125 190.488281 C -19.0625 199.863281 -56.054688 221.042969 -69.761719 213.507812 C -90.441406 202.132812 -92.253906 178.886719 -84.632812 173.289062 C -63.84375 158.027344 -26.527344 146.640625 -2.074219 143.179688 C -0.496094 142.957031 0.875 143.941406 1.980469 145.777344 "
           id="path377" />
      </g>
      <g
         clip-path="url(#clip-9)"
         id="g383">
        <path
           fill="none"
           stroke-width="6.633439"
           stroke-linecap="round"
           stroke-linejoin="round"
           stroke="rgb(44.313049%, 25.881958%, 13.725281%)"
           stroke-opacity="1"
           stroke-miterlimit="4"
           d="M 88.753734 128.84171 C 88.684741 130.092699 88.498095 131.310161 88.179423 132.484899 C 84.659212 145.473879 71.590941 179.028135 59.307965 181.025431 C 40.773464 184.034142 28.387233 169.204058 30.482553 161.453937 C 36.201979 140.318165 54.211369 113.239297 67.947873 98.208804 C 68.834722 97.239261 70.174931 97.195944 71.759636 97.868092 "
           transform="matrix(1, 0.764519, -0.712992, 0.928962, 0, 0)"
           id="path381" />
      </g>
      <g
         clip-path="url(#clip-10)"
         id="g389">
        <g
           mask="url(#mask-0)"
           id="g387">
          <use
             xlink:href="#source-2560"
             id="use385" />
        </g>
      </g>
      <g
         clip-path="url(#clip-13)"
         id="g393">
        <path
           fill-rule="nonzero"
           fill="rgb(63.528442%, 41.960144%, 27.450562%)"
           fill-opacity="1"
           d="M -37.125 164.0625 C -57.042969 182.125 -95.074219 287.789062 -95.410156 295.6875 C -97.085938 335.078125 0.484375 337.816406 8.492188 326.207031 C 16.871094 342.316406 110.75 335.523438 113.234375 319.492188 C 119.0625 281.8125 152.65625 233.613281 135.636719 194.601562 C 125.070312 170.382812 72.417969 130.960938 39.65625 127.792969 C 23.753906 126.257812 7.09375 132.496094 -8.515625 142.140625 "
           id="path391" />
      </g>
      <g
         clip-path="url(#clip-14)"
         id="g397">
        <path
           fill="none"
           stroke-width="6.926415"
           stroke-linecap="round"
           stroke-linejoin="round"
           stroke="rgb(44.313049%, 25.881958%, 13.725281%)"
           stroke-opacity="1"
           stroke-miterlimit="4"
           d="M 49.703824 132.972971 C 44.169218 155.000201 66.362808 247.230818 69.764798 252.955223 C 86.730717 281.503833 155.829822 237.901941 156.053832 225.981529 C 169.294482 233.426988 231.4399 184.829114 225.788234 172.369272 C 212.496883 143.088977 213.6684 93.436333 183.878407 73.879161 C 165.38418 61.738193 110.630608 58.520292 86.393854 71.575748 C 74.630654 77.914591 65.918587 90.086599 59.504966 104.169327 "
           transform="matrix(1, 0.662019, -0.652981, 0.986348, 0, 0)"
           id="path395" />
      </g>
      <path
         fill="none"
         stroke-width="8.926919"
         stroke-linecap="butt"
         stroke-linejoin="miter"
         stroke="rgb(44.313049%, 25.881958%, 13.725281%)"
         stroke-opacity="1"
         stroke-miterlimit="4"
         d="M 289.857973 101.289155 C 316.532801 156.755582 276.309664 195.390563 262.529358 197.630173 C 241.745503 201.005848 231.355047 165.492456 238.503942 160.491191 C 255.318547 148.501106 258.908417 136.103371 251.742582 113.261565 "
         transform="matrix(0.0400651, 0.995071, 1, -0.0272615, 0, 0)"
         id="path399" />
      <path
         fill-rule="nonzero"
         fill="rgb(63.528442%, 41.960144%, 27.450562%)"
         fill-opacity="1"
         stroke-width="8.926919"
         stroke-linecap="round"
         stroke-linejoin="round"
         stroke="rgb(44.313049%, 25.881958%, 13.725281%)"
         stroke-opacity="1"
         stroke-miterlimit="4"
         d="M 289.857973 101.289155 C 316.532801 156.755582 276.309664 195.390563 262.529358 197.630173 C 241.745503 201.005848 231.355047 165.492456 238.503942 160.491191 C 255.318547 148.501106 258.908417 136.103371 251.742582 113.261565 "
         transform="matrix(0.0400651, 0.995071, 1, -0.0272615, 0, 0)"
         id="path401" />
      <path
         fill="none"
         stroke-width="7.290952"
         stroke-linecap="round"
         stroke-linejoin="round"
         stroke="rgb(44.313049%, 25.881958%, 13.725281%)"
         stroke-opacity="1"
         stroke-miterlimit="4"
         d="M 156.019252 227.196794 C 132.740463 167.420636 138.356778 122.828128 138.356521 123.192649 "
         transform="matrix(1, 0.662019, -0.652981, 0.986348, 0, 0)"
         id="path403" />
      <g
         clip-path="url(#clip-15)"
         id="g409">
        <g
           mask="url(#mask-1)"
           id="g407">
          <use
             xlink:href="#source-2563"
             id="use405" />
        </g>
      </g>
      <g
         clip-path="url(#clip-18)"
         id="g413">
        <path
           fill-rule="nonzero"
           fill="rgb(64.704895%, 83.920288%, 59.999084%)"
           fill-opacity="1"
           d="M 125.058594 68.207031 C 143.753906 75.914062 161.316406 87.140625 170.492188 97.667969 C 181.488281 110.289062 206.652344 138.9375 183.894531 170.027344 C 185.015625 217.867188 164.792969 235.933594 120.917969 234.359375 C 98.765625 233.5625 70.734375 236.160156 49.703125 225.207031 C 49.703125 225.207031 49.796875 225.253906 49.796875 225.253906 C 28.171875 215.539062 12.738281 191.882812 -1.671875 174.960938 C -30.21875 141.453125 -17.398438 119.96875 9.214844 85.398438 C 35.828125 50.824219 57.242188 50.089844 73.917969 50.878906 C 87.824219 51.535156 107.507812 58.355469 125.152344 68.25 C 125.152344 68.25 125.058594 68.207031 125.058594 68.207031 Z M 125.058594 68.207031 "
           id="path411" />
      </g>
      <path
         fill-rule="nonzero"
         fill="rgb(75.68512%, 92.155457%, 71.763611%)"
         fill-opacity="1"
         stroke-width="16.071551"
         stroke-linecap="round"
         stroke-linejoin="round"
         stroke="rgb(75.68512%, 92.155457%, 71.763611%)"
         stroke-opacity="1"
         stroke-miterlimit="4"
         d="M 124.390545 24.74358 C 95.302723 24.186916 81.469332 30.163716 72.625818 36.565469 C 63.782304 42.967222 99.062131 33.352674 125.532126 39.16726 C 147.089342 33.080961 183.900934 46.751498 179.057032 38.319158 C 174.20982 29.888249 145.540939 25.150682 124.390545 24.74358 Z M 124.390545 24.74358 "
         transform="matrix(1, 0.427721, -0.417403, 0.989313, 0, 0)"
         id="path415" />
      <path
         fill-rule="nonzero"
         fill="rgb(75.68512%, 92.155457%, 71.763611%)"
         fill-opacity="1"
         d="M 89.136719 142.421875 C 84.480469 140.261719 80.734375 142.707031 78.601562 143.742188 C 76.472656 144.78125 80.628906 148.140625 85.828125 150.542969 C 91.03125 152.945312 95.535156 154.085938 95.667969 151.578125 C 95.800781 149.066406 92.519531 143.992188 89.136719 142.421875 Z M 89.136719 142.421875 "
         id="path417" />
      <path
         fill-rule="nonzero"
         fill="rgb(46.665955%, 10.980225%, 19.999695%)"
         fill-opacity="1"
         stroke-width="5.179255"
         stroke-linecap="round"
         stroke-linejoin="round"
         stroke="rgb(0%, 0%, 0%)"
         stroke-opacity="1"
         stroke-miterlimit="4"
         d="M 142.025779 107.489212 C 135.242193 109.320151 118.018563 106.831865 115.50167 107.603053 C 120.631142 111.004292 120.179755 118.112652 128.634742 117.754345 C 137.080349 117.392733 136.57462 110.654659 142.025779 107.489212 Z M 142.025779 107.489212 "
         transform="matrix(1, 0.484496, -0.474488, 0.988595, 0, 0)"
         id="path419" />
      <g
         clip-path="url(#clip-19)"
         id="g437">
        <g
           mask="url(#mask-2)"
           id="g423">
          <use
             xlink:href="#source-2566"
             id="use421" />
        </g>
        <g
           mask="url(#mask-3)"
           id="g427">
          <use
             xlink:href="#source-2569"
             id="use425" />
        </g>
        <g
           mask="url(#mask-4)"
           id="g431">
          <use
             xlink:href="#source-2572"
             id="use429" />
        </g>
        <g
           mask="url(#mask-5)"
           id="g435">
          <use
             xlink:href="#source-2575"
             id="use433" />
        </g>
      </g>
      <g
         clip-path="url(#clip-24)"
         id="g441">
        <path
           fill-rule="nonzero"
           fill="rgb(99.215698%, 71.37146%, 58.430481%)"
           fill-opacity="1"
           d="M 26.679688 133.421875 C 18.972656 125.101562 12.816406 119.578125 7.496094 118.453125 C 5.199219 117.96875 3.0625 118.300781 1.019531 119.578125 C -5.460938 123.636719 -1.421875 139.921875 10.933594 150.410156 C 22.6875 160.386719 37.605469 166.753906 41.917969 160.363281 C 43.5 158.023438 43.242188 155.257812 41.699219 152.066406 C 39.230469 146.957031 33.472656 140.746094 26.679688 133.421875 Z M 26.679688 133.421875 "
           id="path439" />
      </g>
      <path
         fill="none"
         stroke-width="7.456365"
         stroke-linecap="round"
         stroke-linejoin="round"
         stroke="rgb(0%, 0%, 0%)"
         stroke-opacity="1"
         stroke-miterlimit="4"
         d="M 104.28798 99.923914 C 106.994007 85.696172 100.766881 72.23715 84.101115 67.291573 C 72.182303 63.752589 56.153396 69.626288 53.439734 83.34593 C 52.054422 90.338389 57.629548 94.684529 77.15421 101.372885 C 89.313448 105.540116 102.471948 109.460342 104.28798 99.923914 Z M 104.28798 99.923914 "
         transform="matrix(0.971119, 0.473916, -0.483558, 1, 0, 0)"
         id="path443" />
      <path
         fill-rule="nonzero"
         fill="rgb(0%, 0%, 0%)"
         fill-opacity="1"
         d="M 52.957031 149.347656 C 62.464844 136.402344 62.925781 119.992188 49.132812 107.148438 C 39.269531 97.960938 20.863281 96.238281 11.59375 108.671875 C 6.867188 115.007812 10.179688 121.996094 25.90625 137.9375 C 35.699219 147.867188 46.582031 158.023438 52.957031 149.347656 Z M 52.957031 149.347656 "
         id="path445" />
      <path
         fill-rule="nonzero"
         fill="rgb(0%, 0%, 0%)"
         fill-opacity="1"
         d="M 25.191406 113.242188 C 17.789062 118.859375 16.253906 129.613281 21.769531 137.265625 C 27.28125 144.914062 37.75 146.566406 45.152344 140.949219 C 52.558594 135.332031 54.089844 124.578125 48.578125 116.925781 C 43.0625 109.277344 32.59375 107.625 25.191406 113.242188 Z M 25.191406 113.242188 "
         id="path447" />
      <path
         fill-rule="nonzero"
         fill="rgb(100%, 100%, 100%)"
         fill-opacity="1"
         d="M 38.339844 107.339844 C 35.90625 109.882812 37.152344 115.152344 41.125 119.113281 C 45.097656 123.074219 50.296875 124.222656 52.734375 121.679688 C 55.167969 119.136719 53.921875 113.867188 49.949219 109.90625 C 45.976562 105.945312 40.777344 104.796875 38.339844 107.339844 Z M 38.339844 107.339844 "
         id="path449" />
      <g
         clip-path="url(#clip-25)"
         id="g463">
        <g
           mask="url(#mask-6)"
           id="g453">
          <use
             xlink:href="#source-2578"
             id="use451" />
        </g>
        <g
           mask="url(#mask-7)"
           id="g457">
          <use
             xlink:href="#source-2581"
             id="use455" />
        </g>
        <g
           mask="url(#mask-8)"
           id="g461">
          <use
             xlink:href="#source-2584"
             id="use459" />
        </g>
      </g>
      <path
         fill-rule="nonzero"
         fill="rgb(99.215698%, 71.37146%, 58.430481%)"
         fill-opacity="1"
         d="M 138.257812 182.285156 C 149.535156 183.230469 157.660156 184.675781 161.832031 188.183594 C 163.628906 189.695312 164.691406 191.589844 164.953125 193.992188 C 165.78125 201.617188 150.542969 208.492188 134.699219 205.222656 C 119.628906 202.109375 105.425781 194.261719 107.757812 186.90625 C 108.613281 184.210938 110.933594 182.703125 114.386719 181.949219 C 119.910156 180.738281 128.328125 181.449219 138.257812 182.285156 Z M 138.257812 182.285156 "
         id="path465" />
      <path
         fill="none"
         stroke-width="7.456365"
         stroke-linecap="round"
         stroke-linejoin="round"
         stroke="rgb(0%, 0%, 0%)"
         stroke-opacity="1"
         stroke-miterlimit="4"
         d="M -160.317215 95.402013 C -157.613674 81.175452 -163.8369 67.718353 -180.503146 62.769171 C -192.422858 59.23351 -208.448702 65.107356 -211.164029 78.824426 C -212.549789 85.816129 -206.975965 90.164685 -187.451908 96.854948 C -175.294068 101.019087 -162.133944 104.939474 -160.317215 95.402013 Z M -160.317215 95.402013 "
         transform="matrix(-0.971119, -0.473916, -0.483558, 1, 0, 0)"
         id="path467" />
      <path
         fill-rule="nonzero"
         fill="rgb(0%, 0%, 0%)"
         fill-opacity="1"
         d="M 109.554688 171.378906 C 113.808594 155.871094 126.359375 145.363281 144.9375 148.3125 C 158.222656 150.425781 170.945312 163.894531 166.949219 178.898438 C 164.914062 186.546875 157.398438 188.253906 135.203125 185.691406 C 121.382812 184.09375 106.707031 181.777344 109.554688 171.378906 Z M 109.554688 171.378906 "
         id="path469" />
      <path
         fill-rule="nonzero"
         fill="rgb(0%, 0%, 0%)"
         fill-opacity="1"
         d="M 154.96875 170.988281 C 155.152344 180.304688 147.683594 188.164062 138.289062 188.539062 C 128.894531 188.914062 121.128906 181.667969 120.949219 172.351562 C 120.765625 163.03125 128.234375 155.175781 137.628906 154.796875 C 147.023438 154.421875 154.789062 161.667969 154.96875 170.988281 Z M 154.96875 170.988281 "
         id="path471" />
      <path
         fill-rule="nonzero"
         fill="rgb(100%, 100%, 100%)"
         fill-opacity="1"
         d="M 151.460938 156.953125 C 150.976562 160.449219 146.082031 162.722656 140.527344 162.035156 C 134.972656 161.34375 130.859375 157.949219 131.34375 154.453125 C 131.824219 150.957031 136.71875 148.683594 142.277344 149.375 C 147.832031 150.0625 151.941406 153.457031 151.460938 156.953125 Z M 151.460938 156.953125 "
         id="path473" />
      <g
         clip-path="url(#clip-29)"
         id="g483">
        <g
           mask="url(#mask-9)"
           id="g477">
          <use
             xlink:href="#source-2587"
             id="use475" />
        </g>
        <g
           mask="url(#mask-10)"
           id="g481">
          <use
             xlink:href="#source-2590"
             id="use479" />
        </g>
      </g>
      <path
         fill-rule="nonzero"
         fill="rgb(44.313049%, 25.881958%, 13.725281%)"
         fill-opacity="1"
         d="M 198.234375 236.136719 C 208.332031 243.457031 213.980469 252.46875 210.851562 256.265625 C 207.71875 260.058594 196.996094 257.199219 186.902344 249.875 C 176.804688 242.554688 171.15625 233.542969 174.285156 229.746094 C 177.414062 225.953125 188.136719 228.8125 198.234375 236.136719 Z M 198.234375 236.136719 "
         id="path485" />
      <g
         clip-path="url(#clip-32)"
         id="g489">
        <path
           fill-rule="nonzero"
           fill="rgb(89.802551%, 66.665649%, 38.430786%)"
           fill-opacity="1"
           d="M -21.207031 134.398438 C -28.835938 152.320312 -43.441406 152.890625 -43.949219 171.167969 C -44.414062 188.945312 0.0117188 227.484375 43.960938 229.050781 C 55.3125 243.925781 120.234375 262.128906 135.878906 257.691406 C 151.523438 253.257812 164.152344 237.492188 175.167969 222.371094 C 155.601562 233.996094 -16.984375 161.621094 -21.207031 134.398438 Z M -21.207031 134.398438 "
           id="path487" />
      </g>
      <g
         clip-path="url(#clip-33)"
         id="g493">
        <path
           fill-rule="nonzero"
           fill="rgb(96.076965%, 74.900818%, 51.371765%)"
           fill-opacity="1"
           d="M -21.207031 134.398438 C -30.964844 175.789062 86.53125 248.28125 175.167969 222.371094 C 155.601562 233.996094 -16.984375 161.621094 -21.207031 134.398438 Z M -21.207031 134.398438 "
           id="path491" />
      </g>
      <g
         clip-path="url(#clip-34)"
         id="g497">
        <path
           fill="none"
           stroke-width="8.031465"
           stroke-linecap="round"
           stroke-linejoin="round"
           stroke="rgb(65.881348%, 44.7052%, 18.823242%)"
           stroke-opacity="1"
           stroke-miterlimit="4"
           d="M 29.545197 123.233177 C 29.401649 141.408624 17.181192 147.199752 23.220189 163.096277 C 29.118712 178.547379 80.548472 195.553973 118.483113 180.949777 C 133.404283 189.61726 195.066829 181.703175 206.8019 172.210484 C 218.538354 162.721152 223.697944 144.584655 227.713581 127.587752 C 215.187503 144.682608 42.774589 145.102731 29.545197 123.233177 Z M 29.545197 123.233177 "
           transform="matrix(1, 0.422188, -0.411839, 0.989383, 0, 0)"
           id="path495" />
      </g>
      <path
         fill="none"
         stroke-width="8.514662"
         stroke-linecap="round"
         stroke-linejoin="round"
         stroke="rgb(34.117126%, 47.058105%, 31.37207%)"
         stroke-opacity="1"
         stroke-miterlimit="4"
         d="M 142.95544 250.611045 C 146.219512 238.573447 149.7673 226.643704 155.68861 227.190396 C 160.377702 227.624703 160.50563 233.605216 158.739581 243.77907 C 164.379599 236.006401 169.58085 232.438585 172.973362 235.389141 C 176.780618 238.705693 174.825066 244.152244 166.388319 253.627414 C 161.363712 262.151929 162.095532 268.95709 151.661055 268.617049 C 146.729325 268.457151 135.205597 255.991888 142.95544 250.611045 Z M 142.95544 250.611045 "
         transform="matrix(1, -0.144784, 0.158229, 0.996558, 0, 0)"
         id="path499" />
      <path
         fill-rule="nonzero"
         fill="rgb(64.704895%, 83.920288%, 60.391235%)"
         fill-opacity="1"
         stroke-width="6.966541"
         stroke-linecap="round"
         stroke-linejoin="round"
         stroke="rgb(34.117126%, 47.058105%, 31.37207%)"
         stroke-opacity="1"
         stroke-miterlimit="4"
         d="M 142.95544 250.611045 C 146.219512 238.573447 149.7673 226.643704 155.68861 227.190396 C 160.377702 227.624703 160.50563 233.605216 158.739581 243.77907 C 164.379599 236.006401 169.58085 232.438585 172.973362 235.389141 C 176.780618 238.705693 174.825066 244.152244 166.388319 253.627414 C 161.363712 262.151929 162.095532 268.95709 151.661055 268.617049 C 146.729325 268.457151 135.205597 255.991888 142.95544 250.611045 Z M 142.95544 250.611045 "
         transform="matrix(1, -0.144784, 0.158229, 0.996558, 0, 0)"
         id="path501" />
      <path
         fill-rule="nonzero"
         fill="rgb(64.704895%, 83.920288%, 60.391235%)"
         fill-opacity="1"
         stroke-width="6.579511"
         stroke-linecap="round"
         stroke-linejoin="round"
         stroke="rgb(34.117126%, 47.058105%, 31.37207%)"
         stroke-opacity="1"
         stroke-miterlimit="4"
         d="M 142.306004 258.59136 C 134.33865 251.126966 132.939438 244.416912 134.750831 242.300795 C 137.688739 238.866681 143.408337 242.120047 149.561459 250.089132 "
         transform="matrix(1, -0.144784, 0.158229, 0.996558, 0, 0)"
         id="path503" />
    </g>
    <clipPath
       id="clip-36">
      <path
         clip-rule="nonzero"
         d="M 0 0 L 8 0 L 8 370.878906 L 0 370.878906 Z M 0 0 "
         id="path506" />
    </clipPath>
  </defs>
  <use
     xlink:href="#source-2592"
     id="use511" />
  <g
     clip-path="url(#clip-36)"
     id="g515">
    <path
       fill="none"
       stroke-width="7.5"
       stroke-linecap="round"
       stroke-linejoin="round"
       stroke="rgb(46.665955%, 46.665955%, 46.665955%)"
       stroke-opacity="1"
       stroke-miterlimit="4"
       d="M 3.75 367.128906 C 3.75 367.128906 3.75 3.75 3.75 3.75 "
       id="path513" />
  </g>
</svg>
