<svg xmlns="http://www.w3.org/2000/svg" xmlns:xlink="http://www.w3.org/1999/xlink" width="377.953" height="377.953" version="1.2" viewBox="0 0 283.465 283.465"><defs><clipPath id="a"><path d="M0 0h25.34v25.34H0Zm0 0"/></clipPath><clipPath id="d"><path d="M9.434.926h6.476v6.476H9.434Zm0 0"/></clipPath><clipPath id="e"><path d="M9.434 18H12v2H9.434Zm0 0"/></clipPath><clipPath id="f"><path d="M14 18h1.91v2H14Zm0 0"/></clipPath><clipPath id="g"><path d="M11 23h3v1.41h-3zm0 0"/></clipPath><clipPath id="h"><path d="M10 17.934h5V23h-5zm0 0"/></clipPath><clipPath id="i"><path d="M14 19h1.91v4H14Zm0 0"/></clipPath><clipPath id="j"><path d="M9.434 19H11v4H9.434Zm0 0"/></clipPath><clipPath id="k"><path d="M18 9.43h6.414v6.476H18Zm0 0"/></clipPath><clipPath id="l"><path d="M.926 12H7.41v3.906H.926Zm0 0"/></clipPath><clipPath id="m"><path d="M3 10h4.41v4H3Zm0 0"/></clipPath><clipPath id="n"><path d="M3 9.434h3V12H3Zm0 0"/></clipPath><symbol id="b" overflow="visible"><path d="M4.344-1.984c.265-.72.281-1.313.718-1.813a.076.076 0 0 1 .11 0c.312.25.578.578.578 1 0 .406-.14.75-.39.75-.204 0-.329-.156-.329-.36 0-.077.016-.202.063-.265.062-.078-.032-.094-.094-.094-.094 0-.188.032-.219.125a.635.635 0 0 0-.078.329c0 .39.422.546.766.546.687 0 1.078-.484 1.078-1.093 0-.547-.516-.938-1.063-1.235-.109-.047.079-.156.11-.172.078-.062.156-.187.156-.265 0-.032-.031-.047-.078-.047a4.432 4.432 0 0 0-.547.25c-.047.016-.094.031-.125.016a4.71 4.71 0 0 0-1.578-.266c-.688 0-1.281.125-1.719.344-.719.359-1 .828-1 1.437 0 .719.688 1.078 1.36 1.078.906 0 1.234-.687 1.234-1.422 0-.078 0-.14-.016-.203 0-.125-.14-.187-.25-.187-.047 0-.078.047-.078.11.016.093.016.202.016.296 0 .89-.438 1.14-.906 1.14-.344 0-.72-.359-.72-.78 0-.891.829-1.547 2.204-1.547.328 0 .765.093 1.11.218.046.016.046.047.015.078-.656.516-1.094 1.063-1.516 2.125-.578 1.375-.812 1.766-1.61 1.766-.202 0-.484-.14-.64-.281C.86-.437.875-.453.922-.453c.265-.047.36-.25.36-.484 0-.235-.235-.47-.532-.47-.328 0-.484.298-.484.641 0 .532.625.907 1.421.907 1.157 0 2.032-.485 2.657-2.125zm0 0" style="stroke:none"/></symbol><symbol id="c" overflow="visible"><path d="M2.844-.766a.201.201 0 0 0 .203-.171c.078-.532.422-.86.828-.86.172 0 .453.234.453.578 0 .516-.375 1.094-1.062 1.094-.438 0-.797-.516-.797-.953 0-.281.031-.531.094-.813 0-.046.03-.078.078-.078 1.703-.078 3.156-1.078 3.156-2.047 0-.406-.438-.546-.984-.546-1.094 0-2.5.75-3.016 1.734a4.075 4.075 0 0 0-.188.437c0 .032-.03.063-.078.047-.437-.14-.687-.406-.687-.875 0-.719.64-1.14 1.281-1.14.172 0 .531.062.797.203.047.015.078 0 .078-.032 0-.125-.031-.25-.14-.296a2.26 2.26 0 0 0-.844-.141C.78-4.625.203-3.906.203-3.203c0 .672.547 1.015 1.25 1.156.047 0 .063.031.047.078a4.534 4.534 0 0 0-.078.75c0 .89.937 1.36 1.797 1.36.61 0 1.172-.157 1.484-.485.266-.281.406-.625.406-.969 0-.515-.515-.765-1.109-.765-.766 0-1.219.484-1.219 1.219 0 .046.031.093.063.093zm-.172-1.546c.015-.032.031-.079.047-.11.406-1.078 1.484-1.875 2.11-1.875.218 0 .468.11.468.422 0 .89-1.5 1.516-2.578 1.625-.047 0-.063-.016-.047-.063zm0 0" style="stroke:none"/></symbol></defs><g clip-path="url(#a)" style="fill:#2e3440;fill-opacity:1" transform="scale(11.18652)"><path d="M0 25.34h25.344V-.004H0Zm0 0" style="fill:#2e3440;fill-opacity:1;fill-rule:nonzero;stroke:none"/><path d="M12.473 0c0 6.887-5.586 12.473-12.473 12.473-6.887 0-12.473-5.586-12.473-12.473 0-6.887 5.586-12.473 12.473-12.473 6.887 0 12.473 5.586 12.473 12.473zm0 0" style="fill:#2e3440;fill-opacity:1;fill-rule:nonzero;stroke:#fff;stroke-width:.3985;stroke-linecap:butt;stroke-linejoin:miter;stroke-miterlimit:10;stroke-opacity:1" transform="matrix(1 0 0 -1 12.672 12.668)"/></g><use xlink:href="#b" width="100%" height="100%" x="7.854" y="12.439" style="fill:#eceff4;fill-opacity:1" transform="scale(11.18652)"/><use xlink:href="#c" width="100%" height="100%" x="11.451" y="17.34" style="fill:#eceff4;fill-opacity:1" transform="scale(11.18652)"/><path d="M12.672 4.734a.57.57 0 0 0 0-1.14.571.571 0 0 0 0 1.14zm0 0" style="fill:#eceff4;fill-opacity:1;fill-rule:nonzero;stroke:none" transform="scale(11.18652)"/><g clip-path="url(#d)" style="fill:#eceff4;fill-opacity:1" transform="scale(11.18652)"><path d="M9.879 5.777c.125.223.367.336.672.371a.35.35 0 0 0 .27.122.349.349 0 0 0 .277-.13c.152-.019.316-.05.484-.093.219.777.586 1.355 1.09 1.355.5 0 .867-.578 1.086-1.355.578.148 1.406.246 1.703-.27.121-.207.113-.472-.012-.77a.377.377 0 0 0-.168-.429c-.035-.023-.074-.031-.113-.039l-.09-.117c-.07-.086-.156-.172-.238-.258.414-.426.918-1.098.62-1.613-.25-.434-.92-.469-1.702-.27-.219-.777-.586-1.355-1.086-1.355-.258 0-.48.152-.664.398a.376.376 0 0 0-.285.363c0 .04.011.079.023.114a3.844 3.844 0 0 0-.164.48c-.781-.199-1.453-.164-1.703.27-.297.515.207 1.187.621 1.613-.414.426-.918 1.098-.621 1.613Zm5.21-.492c.02 0 .036-.004.056-.008.175.621-.672.559-1.297.403.05-.246.09-.508.113-.77.223-.156.422-.32.605-.484.11.113.157.156.23.25a.353.353 0 0 0-.073.328.382.382 0 0 0 .367.281zm-1.097-1.37c.106.081.203.167.297.25a4.767 4.767 0 0 1-.297.25 5.345 5.345 0 0 0 0-.5zm1.14-1.173c.184.317-.312.899-.566 1.16a6.552 6.552 0 0 0-.605-.48 6.82 6.82 0 0 0-.113-.774c.351-.086 1.105-.218 1.285.094ZM11.79 5.18c.191.117.106.078.438.254-.125.05-.25.097-.372.14a9.21 9.21 0 0 1-.066-.394zm.883 1.843c-.262 0-.535-.421-.723-1.082.235-.078.48-.171.723-.285.238.114.484.207.723.285-.188.66-.465 1.082-.723 1.082zm.812-1.449a8.866 8.866 0 0 1-.37-.14c.327-.176.241-.137.437-.254-.02.136-.043.27-.067.394zm.067-2.426c-.14-.086-.14-.097-.434-.253a5.32 5.32 0 0 1 .367-.137c.024.125.047.254.067.39zm-1.5-1.078a.383.383 0 0 0 .43-.383.383.383 0 0 0-.086-.234c.09-.094.183-.144.277-.144.258 0 .535.421.723 1.078a6.925 6.925 0 0 0-.723.285 7.68 7.68 0 0 0-.723-.285c.031-.114.067-.219.102-.317zm-.196.688c.122.039.243.086.368.137-.297.16-.293.167-.43.253.016-.136.039-.265.062-.39zm-.113.87c.34-.23.598-.374.93-.534.324.16.586.304.926.535.027.363.027.7 0 1.07a7.445 7.445 0 0 1-.926.54 7.22 7.22 0 0 1-.93-.54 6.994 6.994 0 0 1 0-1.07zm-1.535-.886c.18-.312.934-.18 1.285-.094a6.82 6.82 0 0 0-.113.774 7.12 7.12 0 0 0-.606.48c-.253-.261-.75-.843-.566-1.16zm1.14 1.672a4.767 4.767 0 0 1-.296-.25c.094-.082.191-.168.297-.25a5.345 5.345 0 0 0 0 .5zm-.574.012c.184.164.387.328.606.484.023.262.062.524.113.77-.113.027-.226.05-.328.066a.355.355 0 0 0-.246-.223.367.367 0 0 0-.445.23c-.13-.03-.223-.085-.266-.167-.184-.313.313-.899.566-1.16Zm0 0" style="fill:#eceff4;fill-opacity:1;fill-rule:nonzero;stroke:none"/></g><g clip-path="url(#e)" style="fill:#eceff4;fill-opacity:1" transform="scale(11.18652)"><path d="M9.813 19.465h1.14v-.38h.379v-.378H9.434v.379h.379Zm0 0" style="fill:#eceff4;fill-opacity:1;fill-rule:nonzero;stroke:none"/></g><g clip-path="url(#f)" style="fill:#eceff4;fill-opacity:1" transform="scale(11.18652)"><path d="M14.012 19.086h.379v.379h1.14v-.38h.38v-.378h-1.9zm0 0" style="fill:#eceff4;fill-opacity:1;fill-rule:nonzero;stroke:none"/></g><g clip-path="url(#g)" style="fill:#eceff4;fill-opacity:1" transform="scale(11.18652)"><path d="M13.05 23.258h-.757l-.379.773h-.57v.38H14v-.38h-.57zm0 0" style="fill:#eceff4;fill-opacity:1;fill-rule:nonzero;stroke:none"/></g><g clip-path="url(#h)" style="fill:#eceff4;fill-opacity:1" transform="scale(11.18652)"><path d="M12.293 17.934v2.859h-.582v-.188h-.758v.758h.758v-.191h.582v1.707h.758v-1.707h.582v.191h.758v-.758h-.758v.188h-.582v-2.86zm0 0" style="fill:#eceff4;fill-opacity:1;fill-rule:nonzero;stroke:none"/></g><g clip-path="url(#i)" style="fill:#eceff4;fill-opacity:1" transform="scale(11.18652)"><path d="M14.39 21.742v.57a.57.57 0 0 0 1.14 0v-2.468h-1.14v.379h.38v1.52zm0 0" style="fill:#eceff4;fill-opacity:1;fill-rule:nonzero;stroke:none"/></g><g clip-path="url(#j)" style="fill:#eceff4;fill-opacity:1" transform="scale(11.18652)"><path d="M10.953 20.223v-.38h-1.14v2.47a.57.57 0 0 0 1.14 0v-.57h-.379v-1.52zm0 0" style="fill:#eceff4;fill-opacity:1;fill-rule:nonzero;stroke:none"/></g><g clip-path="url(#k)" style="fill:#eceff4;fill-opacity:1" transform="scale(11.18652)"><path d="m18.469 14.45.8-.419a.574.574 0 0 0 .387.156.58.58 0 0 0 .395-.16l.558.282c0 .02-.004.043-.004.066 0 .246.157.457.38.535v.996h.378v-.996a.572.572 0 0 0 .38-.535.345.345 0 0 0-.009-.066l.563-.282c.101.098.242.16.394.16a.574.574 0 0 0 .387-.156l.8.418.177-.336-.805-.418c.004-.027.008-.05.008-.078a.566.566 0 0 0-.38-.535v-.828a.563.563 0 0 0 .38-.535c0-.024-.004-.051-.008-.078l.805-.418-.176-.336-.8.418a.571.571 0 0 0-.782.007l-.563-.28c.004-.024.008-.048.008-.071a.576.576 0 0 0-.379-.535V9.43h-.379v.996a.57.57 0 0 0-.379.535c0 .023.004.047.004.07l-.558.281a.571.571 0 0 0-.781-.008l-.801-.417-.176.336.8.418a.568.568 0 0 0 .371.613v.828a.572.572 0 0 0-.378.535c0 .028.004.051.008.078l-.801.418Zm1.754-2.731c0-.024-.004-.043-.004-.067l.558-.28a.58.58 0 0 0 .395.16.572.572 0 0 0 .394-.16l.563.28c-.004.024-.008.043-.008.067 0 .25.16.457.379.535v.828a.572.572 0 0 0-.379.535c0 .024.004.047.008.07l-.563.278a.576.576 0 0 0-.79 0l-.557-.277c0-.024.004-.047.004-.07a.566.566 0 0 0-.38-.536v-.828a.563.563 0 0 0 .38-.535zm0 0" style="fill:#eceff4;fill-opacity:1;fill-rule:nonzero;stroke:none"/></g><g clip-path="url(#l)" style="fill:#eceff4;fill-opacity:1" transform="scale(11.18652)"><path d="m7.277 12.117-1.765 1.02v1.574l.246-.246.265.27-.703.703-.703-.704.266-.27.246.247v-1.356L.926 15.738H7.41v-3.683l-.125.058zm0 0" style="fill:#eceff4;fill-opacity:1;fill-rule:nonzero;stroke:none"/></g><g clip-path="url(#m)" style="fill:#eceff4;fill-opacity:1" transform="scale(11.18652)"><path d="m4.59 12.79-.656.382.191.328 2.96-1.71-.757-1.317-1.316.761.379.657-.329.187-.378-.656-1.32.762.378.656.66-.38zm0 0" style="fill:#eceff4;fill-opacity:1;fill-rule:nonzero;stroke:none"/></g><path d="m2.71 12.844-.257.96.965.259.098-.368-.336-.09.754-.433-.192-.332-.75.433.086-.332zm0 0" style="fill:#eceff4;fill-opacity:1;fill-rule:nonzero;stroke:none" transform="scale(11.18652)"/><g clip-path="url(#n)" style="fill:#eceff4;fill-opacity:1" transform="scale(11.18652)"><path d="m4.39 10.152.337.09.101-.367-.965-.258-.258.961.368.098.09-.332.62 1.078.329-.188zm0 0" style="fill:#eceff4;fill-opacity:1;fill-rule:nonzero;stroke:none"/></g></svg>