<svg xmlns="http://www.w3.org/2000/svg" width="458.365" height="37.359" version="1.2" viewBox="0 0 343.773 28.02"><defs><clipPath id="a"><path d="M3.316 3.316H41v28.032H3.316Zm0 0"/></clipPath><clipPath id="b"><path d="M90 11h14v20.348H90Zm0 0"/></clipPath><clipPath id="c"><path d="M122 3.316h33.602v28.032H122Zm0 0"/></clipPath><clipPath id="d"><path d="M202 11h27v20.348h-27zm0 0"/></clipPath><clipPath id="e"><path d="M245 11h20v20.348h-20zm0 0"/></clipPath><clipPath id="f"><path d="M326 11h21.09v20H326Zm0 0"/></clipPath></defs><path d="m115.172 20.71-2.766 1.786-2.105-.562-.606-.13-5.48-1.093 2.312-1.781 2.07.465zm0 0" style="fill:#ff6363;fill-opacity:1;fill-rule:nonzero;stroke:none"/><path d="m110.3 21.934-.605-.13v-2.183l5.477 1.09-2.766 1.785zm0 0" style="fill:#ff3d47;fill-opacity:1;fill-rule:nonzero;stroke:none"/><path d="m115.172 15.234-2.215.993-2.656.468-.606-.097-5.48-.817 2.57-1.863 2.3.398.61.098zm0 0" style="fill:#ff6363;fill-opacity:1;fill-rule:nonzero;stroke:none"/><path d="m110.3 16.695-.605-.097v-2.184l5.477.82-2.215.993zm0 0" style="fill:#ff3d47;fill-opacity:1;fill-rule:nonzero;stroke:none"/><path d="M115.172 20.71v2.185l-10.957 2.75V23.44l5.48-1.363.606-.144zm0 0" style="fill:#ff8597;fill-opacity:1;fill-rule:nonzero;stroke:none"/><path d="m110.3 21.934 4.872-1.223v2.184l-5.477 1.382v-2.199zm0 0" style="fill:#ff6363;fill-opacity:1;fill-rule:nonzero;stroke:none"/><path d="M115.172 15.234v2.184l-10.957 3.293v-2.184l5.48-1.652.606-.18zm0 0" style="fill:#ff8597;fill-opacity:1;fill-rule:nonzero;stroke:none"/><path d="m110.3 16.695 4.872-1.46v2.183l-5.477 1.656v-2.199Zm0 0" style="fill:#ff6363;fill-opacity:1;fill-rule:nonzero;stroke:none"/><path d="M115.172 10.3v2.184l-5.477 1.66-.61.172-4.87 1.465v-2.183zm0 0" style="fill:#ff8597;fill-opacity:1;fill-rule:nonzero;stroke:none"/><path d="M115.172 10.3v2.184l-5.477 1.66v-2.207Zm0 0" style="fill:#ff6363;fill-opacity:1;fill-rule:nonzero;stroke:none"/><path d="M116.266 8.633v1.12c0 .599-.485 1.095-1.094 1.095h-10.957a1.102 1.102 0 0 1-1.094-1.094V8.633Zm0 0" style="fill:#705c57;fill-opacity:1;fill-rule:nonzero;stroke:none"/><path d="M116.266 8.633v1.12c0 .599-.485 1.095-1.094 1.095h-5.477V8.633Zm0 0" style="fill:#51423d;fill-opacity:1;fill-rule:nonzero;stroke:none"/><path d="M116.266 26.191v1.125H103.12v-1.125c0-.609.496-1.09 1.094-1.09h10.957c.61 0 1.094.481 1.094 1.09zm0 0" style="fill:#705c57;fill-opacity:1;fill-rule:nonzero;stroke:none"/><path d="M116.266 26.191v1.125h-6.57v-2.214h5.476c.61 0 1.094.48 1.094 1.09zm0 0" style="fill:#51423d;fill-opacity:1;fill-rule:nonzero;stroke:none"/><path d="M176.582 8.633v4.449l-3.57 1.766-3.547-1.766v-4.45Zm0 0" style="fill:#deebf0;fill-opacity:1;fill-rule:nonzero;stroke:none"/><path d="M176.582 8.633v4.449l-3.57 1.766V8.633Zm0 0" style="fill:#c5e1e6;fill-opacity:1;fill-rule:nonzero;stroke:none"/><path d="M176.582 13.082v10.684c0 1.96-1.605 3.55-3.57 3.55a3.55 3.55 0 0 1-3.547-3.55V13.082Zm0 0" style="fill:#ff6363;fill-opacity:1;fill-rule:nonzero;stroke:none"/><path d="M173.012 13.082h3.57v10.684c0 1.96-1.605 3.55-3.57 3.55zm0 0" style="fill:#ff3d47;fill-opacity:1;fill-rule:nonzero;stroke:none"/><path d="M162.09 8.633v4.449l-3.55 1.766-3.567-1.766v-4.45Zm0 0" style="fill:#deebf0;fill-opacity:1;fill-rule:nonzero;stroke:none"/><path d="M162.09 8.633v4.449l-3.55 1.766V8.633Zm0 0" style="fill:#c5e1e6;fill-opacity:1;fill-rule:nonzero;stroke:none"/><path d="M162.09 13.082v10.684a3.55 3.55 0 0 1-3.55 3.55c-1.962 0-3.567-1.59-3.567-3.55V13.082Zm0 0" style="fill:#00dcbf;fill-opacity:1;fill-rule:nonzero;stroke:none"/><path d="M158.54 13.082h3.55v10.684a3.55 3.55 0 0 1-3.55 3.55zm0 0" style="fill:#00b0ab;fill-opacity:1;fill-rule:nonzero;stroke:none"/><path d="M160.367 16.633h10.817v1.785h-10.817zm0 0" style="fill:#c5e1e6;fill-opacity:1;fill-rule:nonzero;stroke:none"/><path d="M160.309 15.746h3.566v3.566h-3.566zM165.77 16.633h5.414v1.785h-5.414zm0 0" style="fill:#a6d1d7;fill-opacity:1;fill-rule:nonzero;stroke:none"/><path d="M167.684 15.746h3.546v3.566h-3.546zm0 0" style="fill:#8cb8c5;fill-opacity:1;fill-rule:nonzero;stroke:none"/><path d="M61.395 8.633v4.449l-3.551 1.766-3.567-1.766v-4.45Zm0 0" style="fill:#deebf0;fill-opacity:1;fill-rule:nonzero;stroke:none"/><path d="M61.395 8.633v4.449l-3.551 1.766V8.633Zm0 0" style="fill:#c5e1e6;fill-opacity:1;fill-rule:nonzero;stroke:none"/><path d="M61.395 13.082v10.684c0 1.96-1.606 3.55-3.551 3.55-1.961 0-3.567-1.59-3.567-3.55V13.082Zm0 0" style="fill:#ff6363;fill-opacity:1;fill-rule:nonzero;stroke:none"/><path d="M57.844 13.082h3.55v10.684c0 1.96-1.605 3.55-3.55 3.55zm0 0" style="fill:#ff3d47;fill-opacity:1;fill-rule:nonzero;stroke:none"/><path d="M46.918 8.633v4.449l-3.566 1.766-3.567-1.766v-4.45Zm0 0" style="fill:#deebf0;fill-opacity:1;fill-rule:nonzero;stroke:none"/><path d="M46.918 8.633v4.449l-3.566 1.766V8.633Zm0 0" style="fill:#c5e1e6;fill-opacity:1;fill-rule:nonzero;stroke:none"/><path d="M46.918 13.082v10.684c0 1.96-1.605 3.55-3.566 3.55-1.961 0-3.567-1.59-3.567-3.55V13.082Zm0 0" style="fill:#00dcbf;fill-opacity:1;fill-rule:nonzero;stroke:none"/><path d="M43.352 13.082h3.566v10.684c0 1.96-1.605 3.55-3.566 3.55zm0 0" style="fill:#00b0ab;fill-opacity:1;fill-rule:nonzero;stroke:none"/><path d="M45.2 16.633h10.796v1.785H45.2Zm0 0" style="fill:#c5e1e6;fill-opacity:1;fill-rule:nonzero;stroke:none"/><path d="M45.137 15.746h3.566v3.566h-3.566zM50.598 16.633h5.398v1.785h-5.398zm0 0" style="fill:#a6d1d7;fill-opacity:1;fill-rule:nonzero;stroke:none"/><path d="M52.496 15.746h3.566v3.566h-3.566zm0 0" style="fill:#8cb8c5;fill-opacity:1;fill-rule:nonzero;stroke:none"/><g clip-path="url(#a)" style="fill:#eceff4;fill-opacity:1" transform="translate(-3.316 -3.316)"><path d="M27.223 18.809c1.609-4.18 1.675-7.653 4.308-10.606.13-.191.387-.191.578-.062 1.93 1.476 3.407 3.402 3.407 5.91 0 2.441-.77 4.437-2.25 4.437-1.223 0-1.93-.968-1.93-2.187 0-.45.066-1.156.387-1.543.386-.45-.254-.516-.641-.516-.516 0-1.094.133-1.285.707-.192.516-.383 1.156-.383 1.992 0 2.317 2.504 3.153 4.434 3.153 4.113 0 6.363-2.828 6.363-6.426 0-3.219-3.023-5.527-6.3-7.266-.516-.254.51-.898.706-.96.45-.387.899-1.094.899-1.61 0-.191-.192-.32-.387-.258-1.219.453-2.313.899-3.274 1.48-.257.126-.52.126-.773.067-2.7-1.031-6.043-1.547-9.254-1.547-4.047 0-7.453.707-10.09 2.055-4.242 2.125-5.914 4.887-5.914 8.422 0 4.242 4.114 6.363 7.969 6.363 5.398 0 7.262-4.113 7.262-8.422 0-.383 0-.77-.063-1.156 0-.77-.773-1.094-1.476-1.094-.258 0-.453.324-.387.582.062.64.062 1.219.062 1.801 0 5.203-2.57 6.684-5.336 6.684-1.992 0-4.242-2.122-4.242-4.567 0-5.203 4.825-9.062 12.922-9.062 1.93 0 4.563.449 6.617 1.222.262.13.262.254 0 .45-3.851 3.023-6.363 6.3-8.933 12.472-3.278 8.094-4.688 10.477-9.383 10.477-1.281 0-2.89-.84-3.852-1.676-.195-.191-.132-.254.125-.32 1.606-.254 2.125-1.414 2.125-2.766 0-1.41-1.355-2.762-3.152-2.762-1.93 0-2.766 1.672-2.766 3.73 0 3.145 3.602 5.329 8.356 5.329 6.75 0 11.89-2.89 15.55-12.527zm0 0" style="fill:#eceff4;fill-opacity:1;fill-rule:nonzero;stroke:none"/></g><path d="M69.879 27.316c-.129 0-.305-.046-.516-.128-.222-.079-.32-.208-.32-.383 0-.211.098-.356.32-.453.211-.079.453-.145.707-.196a6.257 6.257 0 0 0 1.864-.64c.546-.29.836-.801.836-1.543v-2.7c0-.386-.047-.722-.13-1.027a4.392 4.392 0 0 0-.19-.773c-.048-.254-.114-.414-.196-.512l-3.598-6.04c-.383-.722-.738-1.253-1.027-1.608a3.49 3.49 0 0 0-.965-.774c-.352-.203-.816-.414-1.414-.64a6.435 6.435 0 0 1-.707-.254.595.595 0 0 1-.254-.516c0-.16.078-.277.254-.32.21-.082.387-.133.512-.133.808 0 1.433.05 1.87.133.462.043 1.055.062 1.798.062.722 0 1.316-.02 1.8-.062a12.374 12.374 0 0 1 1.926-.133c.13 0 .29.05.512.133.21.043.32.16.32.32 0 .223-.11.383-.32.516-.223.125-.43.218-.64.253-.61.133-1.028.32-1.286.579-.222.226-.129.644.258 1.285l3.531 5.976c.133.227.211.325.262.325.031 0 .094-.098.191-.325l3.34-6.36c.211-.386.196-.675-.062-.901a2.285 2.285 0 0 0-.774-.579c-.254-.128-.496-.222-.707-.32-.176-.129-.254-.273-.254-.45 0-.16.078-.292.254-.386.211-.082.403-.129.582-.129.512 0 .867.035 1.094.063.254 0 .48.035.703.066.258.051.613.067 1.094.067.516 0 .902-.016 1.156-.067.258-.031.531-.066.836-.066.29-.028.707-.063 1.219-.063.133 0 .293.047.515.13.211.093.32.226.32.386 0 .176-.109.32-.32.45a4.894 4.894 0 0 1-.64.32c-.945.257-1.672.496-2.184.706-.515.227-1.011.692-1.48 1.415l-2.828 5.078c-.352.64-.676 1.218-.961 1.734-.262.516-.387 1.012-.387 1.48v3.66c0 .481.125.868.387 1.157.254.258.59.484 1.027.644.414.13.863.258 1.348.383.207.051.418.117.644.196.207.097.32.242.32.453 0 .175-.113.304-.32.383-.226.082-.386.128-.515.128-.516 0-1.012-.03-1.477-.066-.437-.047-.883-.082-1.352-.125a21.02 21.02 0 0 0-1.542-.066c-.61 0-1.141.03-1.606.066-.437.043-.883.078-1.348.125-.437.035-.933.066-1.48.066zm0 0" style="fill:#eceff4;fill-opacity:1;fill-rule:nonzero;stroke:none"/><g clip-path="url(#b)" style="fill:#eceff4;fill-opacity:1" transform="translate(-3.316 -3.316)"><path d="M96.285 31.082c-1.078 0-1.93-.129-2.57-.387a13.966 13.966 0 0 0-1.735-.449c-.226-.082-.355-.144-.386-.191 0-.035-.035-.094-.067-.196-.093-.207-.195-.546-.32-1.027a42.34 42.34 0 0 1-.258-1.543c-.047-.547-.097-.976-.129-1.281v-.582c.032-.258.192-.387.45-.387.21 0 .355.129.449.387.129.262.226.48.32.644.211.383.516.934.902 1.606.387.64.868 1.222 1.477 1.738.598.48 1.32.707 2.187.707 1.286 0 2.204-.34 2.766-1.031.59-.672.895-1.43.895-2.25 0-.594-.16-1.152-.446-1.672-.261-.512-.742-.98-1.418-1.41l-3.21-2.059c-1.028-.644-1.864-1.363-2.504-2.183-.614-.856-.903-1.836-.903-2.957 0-1.063.32-1.946.961-2.637.645-.723 1.45-1.254 2.445-1.606a8.697 8.697 0 0 1 3.086-.578c.977 0 1.797.063 2.442.192.64.129 1.105.222 1.41.258.16 0 .293.066.387.19.082.13.144.259.195.388.082.48.125 1.011.125 1.609.035.61.086 1.156.133 1.668 0 .129-.047.305-.133.516-.094.222-.219.32-.379.32-.18 0-.355-.082-.516-.258a1.152 1.152 0 0 1-.257-.578c-.258-.852-.625-1.508-1.098-1.992-.48-.465-.961-.785-1.477-.965-.48-.207-.882-.32-1.218-.32-.946 0-1.72.289-2.313.836-.613.515-.902 1.187-.902 1.992 0 .898.21 1.574.644 1.992.465.434 1.094.887 1.864 1.352l3.468 2.117a7.02 7.02 0 0 1 2.059 2.054c.547.774.836 1.676.836 2.703 0 .739-.29 1.512-.836 2.313-.563.82-1.383 1.527-2.445 2.121-1.07.547-2.41.836-3.98.836zm0 0" style="fill:#eceff4;fill-opacity:1;fill-rule:nonzero;stroke:none"/></g><g clip-path="url(#c)" style="fill:#eceff4;fill-opacity:1" transform="translate(-3.316 -3.316)"><path d="M137.977 26.008c.582 0 1.16-.387 1.222-.969.453-3.21 2.442-5.14 4.887-5.14.96 0 2.7 1.347 2.7 3.472 0 3.02-2.25 6.43-6.298 6.43-2.574 0-4.695-3.086-4.695-5.66 0-1.606.129-3.086.516-4.817.066-.262.191-.387.511-.387 9.965-.515 18.578-6.363 18.578-12.019 0-2.379-2.574-3.277-5.789-3.277-6.492 0-14.718 4.5-17.8 10.28-.383.642-.77 1.544-1.032 2.509-.058.191-.254.32-.511.257-2.57-.773-4.047-2.312-4.047-5.144 0-4.176 3.793-6.684 7.52-6.684 1.027 0 3.21.32 4.753 1.157.258.132.453 0 .453-.192 0-.644-.261-1.41-.836-1.672-1.93-.77-3.597-.898-4.953-.898-7.258 0-10.664 4.242-10.664 8.418 0 3.922 3.211 5.914 7.324 6.75.32.066.32.254.32.515-.32 1.54-.511 3.083-.511 4.368 0 5.207 5.527 8.03 10.602 8.03 3.601 0 6.812-.894 8.742-2.89a8.023 8.023 0 0 0 2.375-5.718c0-3.02-3.016-4.497-6.551-4.497-4.5 0-7.2 2.891-7.2 7.262 0 .254.192.516.384.516zm-.961-9.13c.066-.19.191-.386.254-.64 2.382-6.3 8.742-11.058 12.406-11.058 1.285 0 2.762.71 2.762 2.508 0 5.207-8.805 8.933-15.168 9.578-.254.062-.32-.133-.254-.387zm0 0" style="fill:#eceff4;fill-opacity:1;fill-rule:nonzero;stroke:none"/></g><path d="M180.309 27.316c-.125 0-.305-.046-.512-.128-.227-.079-.32-.208-.32-.383 0-.211.093-.356.32-.453.207-.079.414-.145.64-.196.723-.125 1.368-.336 1.93-.64.547-.29.836-.801.836-1.543V12.727c0-.805-.195-1.446-.582-1.926-.351-.465-.945-.77-1.797-.903a3.165 3.165 0 0 1-.707-.32c-.226-.129-.32-.273-.32-.45 0-.16.094-.292.32-.386.207-.082.387-.129.512-.129.547 0 1.031.035 1.418.063.387 0 .738.035 1.09.066.386.051.804.067 1.285.067h5.398a58.43 58.43 0 0 1 2.317-.067c.722-.031 1.316-.066 1.797-.066.082 0 .164.035.257.066.13.051.196.11.196.196.078 1.027.16 1.843.254 2.44.132.61.191 1.06.191 1.349 0 .097-.047.195-.125.32-.05.129-.113.195-.195.195-.125 0-.285-.066-.45-.195a1.265 1.265 0 0 1-.32-.512 11.03 11.03 0 0 0-.965-1.734c-.304-.465-.82-.711-1.543-.711h-3.984c-.129 0-.352.066-.645.195-.253.094-.386.254-.386.516v5.46c0 .13.035.352.133.641.128.258.222.387.32.387h3.277c.418 0 .739-.144.965-.45.211-.288.387-.671.516-1.16.082-.124.16-.269.258-.445.128-.16.253-.257.382-.257a.45.45 0 0 1 .387.195.697.697 0 0 1 .125.383c-.043.351-.094.758-.125 1.222v1.094c0 .352.016.707.066 1.09.028.387.059.773.059 1.16.035.094.02.219-.059.383-.101.176-.195.258-.324.258-.258 0-.433-.13-.511-.387-.098-.29-.176-.48-.258-.582-.098-.414-.29-.703-.582-.832a2.377 2.377 0 0 0-.703-.32 17.372 17.372 0 0 0-1.415-.063h-1.48c-.383 0-.676.043-.836.125-.129.05-.195.258-.195.645v4.625c0 .742.066 1.207.195 1.414.16.18.547.258 1.16.258h4.114c.851 0 1.554-.223 2.117-.707.597-.512 1.027-1.06 1.289-1.672.031-.079.093-.192.191-.32.078-.16.207-.255.383-.255.21 0 .34.094.387.254.035.13.066.258.066.387-.098.563-.195 1.156-.32 1.797a27.463 27.463 0 0 1-.387 1.676c-.05.093-.16.187-.32.32a.776.776 0 0 1-.387.125c-1.027 0-2.023-.031-2.957-.062h-2.7c-.866-.032-1.702-.063-2.503-.063a50.36 50.36 0 0 0-2.25-.066c-.485 0-.934.03-1.352.066-.386.043-.804.078-1.218.125a15.66 15.66 0 0 1-1.418.066zm0 0" style="fill:#eceff4;fill-opacity:1;fill-rule:nonzero;stroke:none"/><g clip-path="url(#d)" style="fill:#eceff4;fill-opacity:1" transform="translate(-3.316 -3.316)"><path d="M214.863 31.21c-.308 0-.582-.257-.836-.769-1-2.09-1.914-4.195-2.765-6.3-.82-2.137-1.801-4.496-2.957-7.067-.098-.21-.176-.324-.258-.324-.047 0-.094.113-.129.324-.047.77-.11 1.719-.191 2.824-.094 1.079-.18 2.25-.258 3.54a74.703 74.703 0 0 0-.192 3.851c0 .356.067.773.192 1.29.129.48.531.769 1.222.894.258.05.48.117.707.195.207.098.32.242.32.453 0 .176-.113.305-.32.383-.226.082-.386.129-.511.129-.516 0-.934-.031-1.223-.067-.258-.046-.496-.082-.707-.125a4.416 4.416 0 0 0-.836-.066c-.387 0-.707.031-.965.066-.222.043-.484.079-.77.125a10.57 10.57 0 0 1-1.222.067c-.129 0-.305-.047-.516-.13-.226-.077-.32-.206-.32-.382 0-.21.094-.355.32-.453a4.93 4.93 0 0 1 .645-.195c.723-.125 1.238-.399 1.543-.832.336-.465.527-.914.578-1.352.16-.77.32-1.637.45-2.633.16-1.027.32-2.07.452-3.148.125-1.063.22-2.074.32-3.02.126-.933.204-1.754.255-2.445.082-.672.129-1.16.129-1.414 0-.418-.192-.723-.579-.899-.386-.21-1.011-.382-1.863-.515a3.247 3.247 0 0 1-.707-.32c-.176-.13-.258-.274-.258-.45 0-.16.082-.293.258-.386.211-.082.387-.13.516-.13.547 0 .93.036 1.156.063.207 0 .418.035.64.067h2.188c.16-.032.383-.067.64-.067h.321c.078 0 .145.035.195.067l6.043 14.074c.125.305.223.484.32.515.13 0 .223-.128.32-.386.802-1.88 1.606-3.727 2.38-5.528.77-1.796 1.62-3.855 2.57-6.171a51.3 51.3 0 0 0 .512-1.543c.21-.543.387-.832.515-.832l1.543-.063c.723 0 1.415-.016 2.055-.066a14.935 14.935 0 0 1 1.738-.13c.16 0 .336.048.512.13.211.093.324.226.324.386 0 .176-.113.32-.324.45a2.233 2.233 0 0 1-.64.32c-.868.133-1.48.258-1.868.387-.347.128-.515.449-.515.96V19.965c.035.816.066 1.637.066 2.441.035.77.082 1.59.129 2.442.031.867.082 1.734.133 2.636.027.641.254 1.121.64 1.414.415.254.98.45 1.668.575.211.05.422.117.645.195.258.098.387.242.387.453 0 .176-.114.305-.32.383-.227.082-.387.129-.516.129-.516 0-.961-.031-1.348-.067-.387-.046-.773-.082-1.156-.125a12.133 12.133 0 0 0-1.223-.066c-.515 0-.996.031-1.414.066-.437.043-.867.079-1.289.125-.383.036-.867.067-1.41.067-.133 0-.309-.047-.516-.13-.226-.077-.32-.206-.32-.382 0-.21.094-.355.32-.453.207-.078.418-.145.645-.195.722-.125 1.219-.32 1.476-.575.29-.257.45-.675.45-1.289v-6.746c0-1.11-.032-2.312-.063-3.597-.05-.336-.129-.485-.258-.454-.097.051-.191.196-.324.454l-5.844 13.3a1.65 1.65 0 0 1-.386.45c-.098.132-.196.195-.32.195zm0 0" style="fill:#eceff4;fill-opacity:1;fill-rule:nonzero;stroke:none"/></g><g clip-path="url(#e)" style="fill:#eceff4;fill-opacity:1" transform="translate(-3.316 -3.316)"><path d="M256.668 31.082c-1.465 0-2.863-.242-4.18-.707a11.23 11.23 0 0 1-3.468-1.992 9.575 9.575 0 0 1-2.442-3.024c-.613-1.187-.898-2.52-.898-3.98 0-1.414.32-2.719.96-3.918a9.955 9.955 0 0 1 2.57-3.086c1.063-.855 2.286-1.496 3.665-1.93a12.994 12.994 0 0 1 4.242-.707c.676 0 1.317.032 1.93.063.594.047 1.156.129 1.668.258.55.093 1.098.226 1.61.386.288.094.48.176.577.254a.757.757 0 0 1 .258.387c.13.387.211.945.254 1.672.082.738.133 1.332.133 1.8 0 .356-.098.575-.258.708-.129.093-.289.093-.45 0-.175-.133-.32-.336-.452-.645-.356-.98-.77-1.738-1.285-2.246-.48-.52-1.075-.855-1.801-1.027-.735-.211-1.653-.328-2.762-.328-1.379 0-2.601.37-3.664 1.097-1.074.688-1.926 1.637-2.57 2.824-.614 1.16-.899 2.426-.899 3.793 0 1.512.32 2.942.961 4.305.645 1.383 1.547 2.492 2.703 3.344 1.188.87 2.57 1.285 4.114 1.285.675 0 1.382-.129 2.117-.387a9.013 9.013 0 0 0 2.058-1.156 4.55 4.55 0 0 0 1.414-1.863c.16-.387.418-.61.774-.707.383-.13.574.03.574.453 0 .125-.059.383-.191.77a7.897 7.897 0 0 1-.45 1.218c-.175.434-.32.805-.449 1.094-.097.223-.191.383-.324.515a3.011 3.011 0 0 1-.508.383c-.613.258-1.449.496-2.512.707-1.078.258-2.09.387-3.019.387zm0 0" style="fill:#eceff4;fill-opacity:1;fill-rule:nonzero;stroke:none"/></g><path d="M284.574 27.316c-.133 0-.308-.046-.515-.128-.227-.079-.325-.208-.325-.383 0-.211.098-.356.325-.453.207-.079.414-.145.64-.196.723-.125 1.367-.336 1.93-.64.543-.29.836-.801.836-1.543V12.727c0-.805-.195-1.446-.582-1.926-.352-.465-.945-.77-1.797-.903a3.247 3.247 0 0 1-.707-.32c-.227-.129-.32-.273-.32-.45 0-.16.093-.292.32-.386.21-.082.383-.129.516-.129.546 0 1.043.035 1.476.063.418 0 .832.035 1.219.066.422.051.902.067 1.418.067.465 0 .894-.016 1.281-.067.422-.031.852-.066 1.29-.066.464-.028.96-.063 1.476-.063.125 0 .289.047.511.13.211.093.325.226.325.386 0 .176-.114.32-.325.45a3.424 3.424 0 0 1-.707.32c-.816.132-1.414.437-1.796.902-.387.48-.579 1.12-.579 1.926v11.246c0 .742.082 1.222.258 1.48.207.223.61.32 1.219.32h4.05c.548 0 1.028-.097 1.415-.32a2.959 2.959 0 0 0 1.09-.965c.34-.465.675-1.027 1.027-1.672.035-.082.129-.207.262-.386.125-.16.27-.254.449-.254.207 0 .336.094.387.254.03.129.058.261.058.386 0 .227-.043.516-.125.903-.097.355-.195.707-.32 1.09l-.387 1.156a7.436 7.436 0 0 0-.195.84c-.047.093-.16.187-.32.32a.74.74 0 0 1-.383.125c-1.028 0-2.028-.031-2.957-.063h-2.7c-.867-.03-1.703-.062-2.507-.062a50.02 50.02 0 0 0-2.25-.066c-.739.05-1.399.097-1.992.128a13.87 13.87 0 0 1-1.989.13zM304.43 27.316c-.13 0-.305-.046-.512-.128-.227-.079-.32-.208-.32-.383 0-.211.093-.356.32-.453a4.7 4.7 0 0 1 .64-.196c.723-.125 1.368-.336 1.93-.64.547-.29.836-.801.836-1.543V12.727c0-.805-.195-1.446-.582-1.926-.351-.465-.945-.77-1.797-.903a3.247 3.247 0 0 1-.707-.32c-.226-.129-.32-.273-.32-.45 0-.16.094-.292.32-.386.211-.082.387-.129.516-.129.547 0 1.043.035 1.476.063.418 0 .833.035 1.22.066.421.051.902.067 1.413.067.465 0 .903-.016 1.285-.067.418-.031.852-.066 1.29-.066.464-.028.96-.063 1.476-.063.125 0 .29.047.512.13.21.093.32.226.32.386 0 .176-.11.32-.32.45-.223.124-.45.241-.707.32-.817.132-1.41.437-1.797.902-.387.48-.578 1.12-.578 1.926v11.246c0 .742.082 1.222.258 1.48.207.223.609.32 1.222.32h4.047c.547 0 1.027-.097 1.414-.32a2.959 2.959 0 0 0 1.09-.965c.336-.465.676-1.027 1.027-1.672.036-.082.133-.207.262-.386.125-.16.27-.254.445-.254.211 0 .34.094.387.254.035.129.066.261.066.386 0 .227-.046.516-.128.903-.098.355-.196.707-.325 1.09a57.31 57.31 0 0 1-.386 1.156c-.094.351-.16.629-.188.84-.05.093-.16.187-.324.32a.752.752 0 0 1-.383.125c-1.027 0-2.023-.031-2.957-.063h-2.7c-.866-.03-1.702-.062-2.507-.062a50.02 50.02 0 0 0-2.25-.066c-.738.05-1.394.097-1.992.128-.563.083-1.223.13-1.992.13zm0 0" style="fill:#eceff4;fill-opacity:1;fill-rule:nonzero;stroke:none"/><g clip-path="url(#f)" style="fill:#eceff4;fill-opacity:1" transform="translate(-3.316 -3.316)"><path d="M332.379 30.633c-.129 0-.305-.047-.516-.13-.226-.077-.32-.206-.32-.382 0-.21.094-.355.32-.453.211-.078.45-.145.707-.195a6.296 6.296 0 0 0 1.864-.641c.546-.289.836-.8.836-1.543v-2.7c0-.386-.051-.722-.13-1.026a4.392 4.392 0 0 0-.19-.774c-.052-.254-.114-.414-.196-.512l-3.598-6.039c-.386-.722-.742-1.254-1.027-1.61a3.49 3.49 0 0 0-.965-.773c-.352-.203-.816-.414-1.414-.64a6.156 6.156 0 0 1-.707-.254.595.595 0 0 1-.254-.516c0-.16.078-.277.254-.32.21-.082.387-.133.516-.133.8 0 1.43.051 1.863.133.469.043 1.058.063 1.8.063.723 0 1.317-.02 1.798-.063.515-.082 1.16-.133 1.93-.133.124 0 .288.051.51.133.212.043.325.16.325.32 0 .223-.113.383-.324.516-.223.125-.43.219-.64.254-.614.133-1.028.32-1.286.578-.223.227-.129.645.258 1.285l3.531 5.977c.13.226.211.324.262.324.027 0 .094-.098.187-.324l3.344-6.36c.211-.386.196-.675-.066-.902a2.22 2.22 0 0 0-.766-.578c-.262-.13-.5-.223-.71-.32-.177-.13-.255-.274-.255-.45 0-.16.078-.293.254-.386a1.64 1.64 0 0 1 .582-.13c.516 0 .867.036 1.09.063.258 0 .48.035.707.067.258.05.613.066 1.094.066.516 0 .898-.016 1.156-.066.258-.032.531-.067.836-.067.29-.027.707-.062 1.223-.062.125 0 .285.047.511.129.211.093.32.226.32.386 0 .176-.109.32-.32.45-.226.125-.43.242-.64.32-.95.258-1.672.496-2.188.707-.511.226-1.011.691-1.476 1.414l-2.828 5.078c-.352.64-.672 1.219-.965 1.734-.254.516-.383 1.012-.383 1.48v3.661c0 .48.129.867.383 1.156a2.84 2.84 0 0 0 1.027.645c.418.129.867.258 1.348.383.21.05.422.117.648.195.203.098.32.242.32.453 0 .176-.117.305-.32.383-.226.082-.386.129-.515.129-.512 0-1.012-.031-1.48-.067-.43-.046-.884-.082-1.349-.125a21.014 21.014 0 0 0-1.542-.066c-.61 0-1.141.031-1.606.066-.434.043-.883.079-1.352.125-.433.036-.93.067-1.476.067zm0 0" style="fill:#eceff4;fill-opacity:1;fill-rule:nonzero;stroke:none"/></g><path d="M230.762 6.09h6.218v3.773h-6.218zm0 0" style="fill:#deebf0;fill-opacity:1;fill-rule:nonzero;stroke:none"/><path d="M233.86 6.09h3.117v3.773h-3.118zm0 0" style="fill:#a6d1d7;fill-opacity:1;fill-rule:nonzero;stroke:none"/><path d="M228.27 8.613h11.199v18.703h-11.2zm0 0" style="fill:#00dcbf;fill-opacity:1;fill-rule:nonzero;stroke:none"/><path d="M233.86 8.613h5.605v18.703h-5.606zm0 0" style="fill:#00b0ab;fill-opacity:1;fill-rule:nonzero;stroke:none"/><path d="M235.727 12.36v1.238h-1.239v1.23h-1.254v-1.23h-1.238v-1.239h1.238v-1.257h1.254v1.257zM231.996 23.559h3.727v1.238h-3.727zm0 0" style="fill:#66514c;fill-opacity:1;fill-rule:nonzero;stroke:none"/><path d="M230.762 16.086h6.218v2.488h-6.218zM230.762 19.813h6.218V22.3h-6.218zm0 0" style="fill:#deebf0;fill-opacity:1;fill-rule:nonzero;stroke:none"/><path d="M234.488 14.828h-.629v-3.726h.63v1.257h1.238v1.239h-1.239zM233.86 23.559h1.863v1.238h-1.864zm0 0" style="fill:#51423d;fill-opacity:1;fill-rule:nonzero;stroke:none"/><path d="M233.86 16.086h3.117v2.488h-3.118zM233.86 19.813h3.117V22.3h-3.118zm0 0" style="fill:#c5e1e6;fill-opacity:1;fill-rule:nonzero;stroke:none"/><path d="M271.621 6.637h1.317v2.636h-1.317zm0 0" style="fill:#51423d;fill-opacity:1;fill-rule:nonzero;stroke:none"/><path d="M272.277 6.637h.66v2.636h-.66zm0 0" style="fill:#3d302e;fill-opacity:1;fill-rule:nonzero;stroke:none"/><path d="M266.047 23.363h-2.348v-1.32h3.664zm0 0" style="fill:#a6d1d7;fill-opacity:1;fill-rule:nonzero;stroke:none"/><path d="M280.84 23.363h-2.344l-1.316-1.32h3.66zm0 0" style="fill:#8cb8c5;fill-opacity:1;fill-rule:nonzero;stroke:none"/><path d="M267.54 22.043h9.464v1.316h-9.465zm0 0" style="fill:#a6d1d7;fill-opacity:1;fill-rule:nonzero;stroke:none"/><path d="M272.277 22.043H277v1.316h-4.723zm0 0" style="fill:#8cb8c5;fill-opacity:1;fill-rule:nonzero;stroke:none"/><path d="m269.773 12.566-4.593 11.375a2.632 2.632 0 0 0 1.574 3.375l5.254-13.207zm0 0" style="fill:#ff6363;fill-opacity:1;fill-rule:nonzero;stroke:none"/><path d="m279.383 23.973-4.598-11.407-2.348 1.286 5.352 13.464c1.399-.496 2.059-2.039 1.594-3.343zm0 0" style="fill:#ff3d47;fill-opacity:1;fill-rule:nonzero;stroke:none"/><path d="M271.621 20.727h1.317v3.953h-1.317zm0 0" style="fill:#deebf0;fill-opacity:1;fill-rule:nonzero;stroke:none"/><path d="M270.305 3.34h3.953v3.953h-3.953zm0 0" style="fill:#705c57;fill-opacity:1;fill-rule:nonzero;stroke:none"/><path d="M272.277 20.727h.66v3.953h-.66zm0 0" style="fill:#c5e1e6;fill-opacity:1;fill-rule:nonzero;stroke:none"/><path d="M272.277 3.34h1.977v3.953h-1.977zm0 0" style="fill:#51423d;fill-opacity:1;fill-rule:nonzero;stroke:none"/><path d="M272.277 8.613a3.286 3.286 0 0 0-3.289 3.297 3.288 3.288 0 0 0 3.29 3.305 3.3 3.3 0 0 0 3.296-3.305 3.298 3.298 0 0 0-3.297-3.297zm0 0" style="fill:#deebf0;fill-opacity:1;fill-rule:nonzero;stroke:none"/><path d="M275.574 11.91a3.3 3.3 0 0 1-3.297 3.305V8.613a3.298 3.298 0 0 1 3.297 3.297zm0 0" style="fill:#c5e1e6;fill-opacity:1;fill-rule:nonzero;stroke:none"/><path d="M272.277 9.93c-1.09 0-1.972.886-1.972 1.98a1.976 1.976 0 1 0 3.953 0 1.98 1.98 0 0 0-1.98-1.98zm0 0" style="fill:#a6d1d7;fill-opacity:1;fill-rule:nonzero;stroke:none"/><path d="M272.277 13.883V9.93a1.98 1.98 0 0 1 1.98 1.98 1.957 1.957 0 0 1-1.98 1.973zm0 0" style="fill:#8cb8c5;fill-opacity:1;fill-rule:nonzero;stroke:none"/><path d="M271.621 11.246h1.317v1.316h-1.317zm0 0" style="fill:#deebf0;fill-opacity:1;fill-rule:nonzero;stroke:none"/><path d="M272.277 11.246h.66v1.316h-.66zm0 0" style="fill:#c5e1e6;fill-opacity:1;fill-rule:nonzero;stroke:none"/></svg>