<?xml version="1.0" encoding="UTF-8" standalone="no"?>
<svg
   viewBox="0 0 377.95276 374.4581"
   version="1.1"
   id="svg830"
   sodipodi:docname="logo.svg"
   inkscape:version="1.1 (c4e8f9e, 2021-05-24)"
   width="377.95276"
   height="374.4581"
   xmlns:inkscape="http://www.inkscape.org/namespaces/inkscape"
   xmlns:sodipodi="http://sodipodi.sourceforge.net/DTD/sodipodi-0.dtd"
   xmlns="http://www.w3.org/2000/svg"
   xmlns:svg="http://www.w3.org/2000/svg">
  <defs
     id="defs834">
    <clipPath
       id="clip2">
      <path
         d="m 9.789062,0.925781 h 5.765626 V 7.402344 H 9.789062 Z m 0,0"
         id="path930" />
    </clipPath>
    <clipPath
       id="clip3">
      <path
         d="M 9.433594,18 H 12 v 2 H 9.433594 Z m 0,0"
         id="path933" />
    </clipPath>
    <clipPath
       id="clip4">
      <path
         d="m 14,18 h 1.910156 v 2 H 14 Z m 0,0"
         id="path936" />
    </clipPath>
    <clipPath
       id="clip5">
      <path
         d="m 11,23 h 3 v 1.410156 h -3 z m 0,0"
         id="path939" />
    </clipPath>
    <clipPath
       id="clip6">
      <path
         d="m 10,17.933594 h 5 V 23 h -5 z m 0,0"
         id="path942" />
    </clipPath>
    <clipPath
       id="clip7">
      <path
         d="m 14,19 h 1.910156 v 4 H 14 Z m 0,0"
         id="path945" />
    </clipPath>
    <clipPath
       id="clip8">
      <path
         d="M 9.433594,19 H 11 v 4 H 9.433594 Z m 0,0"
         id="path948" />
    </clipPath>
    <clipPath
       id="clip9">
      <path
         d="m 18.296875,9.429688 h 5.757813 v 6.476562 h -5.757813 z m 0,0"
         id="path951" />
    </clipPath>
    <clipPath
       id="clip10">
      <path
         d="M 0.738281,12 H 7.59375 v 3.90625 H 0.738281 Z m 0,0"
         id="path954" />
    </clipPath>
    <clipPath
       id="clip11">
      <path
         d="m 3,10 h 4.59375 v 4 H 3 Z m 0,0"
         id="path957" />
    </clipPath>
    <clipPath
       id="clip12">
      <path
         d="M 3,9.433594 H 6 V 12 H 3 Z m 0,0"
         id="path960" />
    </clipPath>
  </defs>
  <sodipodi:namedview
     id="namedview832"
     pagecolor="#ffffff"
     bordercolor="#666666"
     borderopacity="1.0"
     inkscape:pageshadow="2"
     inkscape:pageopacity="0.0"
     inkscape:pagecheckerboard="0"
     showgrid="false"
     inkscape:zoom="0.83795137"
     inkscape:cx="173.04107"
     inkscape:cy="264.33515"
     inkscape:window-width="1440"
     inkscape:window-height="763"
     inkscape:window-x="1920"
     inkscape:window-y="25"
     inkscape:window-maximized="0"
     inkscape:current-layer="svg830"
     fit-margin-top="0"
     fit-margin-left="0"
     fit-margin-right="0"
     fit-margin-bottom="0" />
  <path
     fill="#F4900C"
     d="M 342.92914,87.254596 C 308.28347,51.716537 245.87927,47.685041 188.97638,47.685041 132.0735,47.685041 69.669294,51.716537 35.023623,87.254596 6.1102364,116.91339 0,163.18111 0,205.59581 c 0,55.25459 20.8084,118.75066 66.74016,149.54331 31.569554,21.16535 79.71654,19.27559 122.23622,19.27559 42.51969,0 90.66667,1.88976 122.23623,-19.27559 45.93176,-30.80315 66.74016,-94.28872 66.74016,-149.54331 0,-42.4147 -6.11024,-88.68242 -35.02363,-118.341214 z"
     id="path824"
     style="fill:#000000;fill-opacity:1;stroke-width:10.4987" />
  <path
     fill="#3f7123"
     d="m 219.13527,54.97113 c 0.72441,4.409449 -2.33071,8.020998 -6.79265,8.020998 h -46.72966 c -4.47244,0 -7.52756,-3.611549 -6.79265,-8.020998 L 166.64183,8.0209976 C 167.37674,3.60105 171.63921,0 176.11165,0 h 25.73228 c 4.47244,0 8.73491,3.6115487 9.45932,8.0209976 z"
     id="path826"
     style="fill:#000000;fill-opacity:1;stroke-width:10.4987" />
  <g
     id="g1654"
     transform="matrix(10.390823,0,0,10.390823,60.389949,52.2295)"
     style="fill:#ff8300;fill-opacity:1">
    <g
       style="fill:#ff8300;fill-opacity:1"
       id="g973"
       transform="matrix(1.3333333,0,0,1.3333333,-4.1536456,-1.6038595)">
      <g
         id="use971"
         transform="translate(7.8540001,12.515)"
         style="fill:#ff8300;fill-opacity:1">
        <path
           style="fill:#ff8300;fill-opacity:1;stroke:none"
           d="m 5.15625,-2.109375 c 0,0.109375 0.015625,0.21875 0.03125,0.296875 0.03125,0.125 0.15625,0.171875 0.265625,0.171875 0.03125,0 0.0625,-0.046875 0.0625,-0.09375 -0.03125,-0.078125 -0.0625,-0.25 -0.078125,-0.453125 0,-0.046875 0.03125,-0.078125 0.078125,-0.078125 0.1875,-0.046875 0.296875,-0.203125 0.296875,-0.34375 0,-0.15625 -0.140625,-0.25 -0.203125,-0.25 -0.21875,0 -0.328125,0.125 -0.390625,0.265625 0,0.03125 -0.03125,0.0625 -0.078125,0.0625 C 4.84375,-2.515625 4.59375,-2.484375 4.375,-2.4375 c -0.046875,0 -0.0625,0 -0.0625,-0.046875 C 4.390625,-2.90625 4.453125,-3.25 4.578125,-3.46875 4.640625,-3.5625 4.5,-3.609375 4.4375,-3.609375 c -0.03125,0 -0.0625,0.015625 -0.09375,0.03125 -0.34375,0.28125 -0.78125,0.75 -1.125,1.5 C 3.1875,-2.03125 3.15625,-2 3.125,-1.984375 2.578125,-1.703125 2.09375,-1.34375 1.875,-1.109375 1.796875,-1.03125 1.96875,-1 2.015625,-1 2.0625,-1 2.109375,-1 2.140625,-1.03125 2.328125,-1.171875 2.625,-1.375 2.9375,-1.546875 c 0.046875,-0.03125 0.046875,-0.015625 0.03125,0.03125 -0.296875,0.75 -0.546875,1.40625 -1.375,1.40625 -0.359375,0 -0.609375,-0.1875 -0.71875,-0.296875 -0.03125,-0.046875 -0.03125,-0.046875 0.015625,-0.0625 0.3125,-0.03125 0.46875,-0.21875 0.46875,-0.46875 0,-0.234375 -0.234375,-0.46875 -0.546875,-0.46875 -0.328125,0 -0.484375,0.296875 -0.484375,0.65625 0,0.53125 0.5625,0.890625 1.359375,0.890625 1.15625,0 2.09375,-0.671875 2.515625,-2.15625 C 4.21875,-2.0625 4.25,-2.078125 4.296875,-2.09375 c 0.25,-0.078125 0.5,-0.125 0.796875,-0.125 0.078125,0 0.0625,0.046875 0.0625,0.109375 z M 6.25,-4.640625 c -0.28125,0.1875 -0.734375,0.28125 -0.96875,0.28125 -0.75,0 -1.6875,-0.265625 -2.453125,-0.265625 -0.609375,0 -1.125,0.0625 -1.5,0.25 -0.46875,0.25 -0.71875,0.5 -0.71875,1.046875 0,0.4375 0.328125,0.703125 0.6875,0.875 0.21875,0.109375 0.453125,0.109375 0.671875,0.109375 0.671875,0 1.046875,-0.5625 1.0625,-1.34375 C 3.03125,-3.71875 3,-3.75 2.96875,-3.75 c -0.078125,0 -0.171875,0.03125 -0.1875,0.125 -0.078125,0.703125 -0.359375,1.03125 -0.796875,1.03125 -0.28125,0 -0.734375,-0.1875 -0.734375,-0.71875 0,-0.59375 0.421875,-1.09375 1.234375,-1.09375 0.71875,0 1.484375,0.6875 2.546875,0.6875 0.46875,0 0.875,-0.296875 1.1875,-0.609375 0.0625,-0.0625 0.09375,-0.171875 0.09375,-0.25 0,-0.046875 -0.015625,-0.078125 -0.0625,-0.0625 z m 0,0"
           id="path1510" />
      </g>
    </g>
    <g
       style="fill:#ff8300;fill-opacity:1"
       id="g977"
       transform="matrix(1.3333333,0,0,1.3333333,-4.1536456,-1.6038595)">
      <g
         id="use975"
         transform="translate(12.03,16.035999)"
         style="fill:#ff8300;fill-opacity:1">
        <path
           style="fill:#ff8300;fill-opacity:1;stroke:none"
           d="m 1.4375,0.171875 c 0.4375,0 0.828125,0.40625 1.203125,0.78125 0.359375,0.328125 0.828125,0.5 1.296875,0.5 0.65625,0 0.96875,-0.25 1.265625,-0.734375 C 5.21875,0.6875 5.21875,0.65625 5.171875,0.65625 5.078125,0.65625 4.90625,0.75 4.828125,0.828125 4.625,1.015625 4.40625,1.125 4.3125,1.125 3.921875,1.125 3.6875,0.71875 3.28125,0.375 3.171875,0.28125 3.046875,0.203125 2.921875,0.15625 2.90625,0.140625 2.8125,0.109375 2.90625,0.09375 c 1.234375,-0.234375 1.953125,-1.453125 1.953125,-2.671875 0,-0.828125 -0.734375,-1.3125 -1.265625,-1.3125 -0.78125,0 -1.15625,0.671875 -1.15625,1.375 0,0.4375 0.234375,0.625 0.53125,0.796875 0.03125,0.015625 0.0625,0 0.0625,-0.03125 0,-0.109375 -0.125,-0.25 -0.1875,-0.421875 -0.015625,-0.0625 -0.046875,-0.15625 -0.046875,-0.296875 0,-0.453125 0.203125,-1.140625 0.625,-1.140625 0.390625,0 0.703125,0.65625 0.703125,1.15625 0,0.8125 -0.125,1.421875 -0.59375,1.84375 C 3.234375,-0.34375 2.9375,-0.125 2.421875,-0.125 c -0.5,0 -0.96875,-0.546875 -0.96875,-1.21875 0,-1.484375 0.9375,-3.015625 2.1875,-3.015625 0.359375,0 0.8125,0.265625 1.046875,0.59375 C 4.734375,-3.6875 4.859375,-3.625 4.953125,-3.625 4.984375,-3.625 5,-3.65625 5,-3.6875 c -0.125,-0.5 -0.71875,-0.953125 -1.453125,-0.953125 -1.859375,0 -3.125,1.390625 -3.125,3.109375 0,0.640625 0.375,1.140625 0.875,1.40625 0.046875,0.03125 0.046875,0.046875 0,0.0625 -0.25,0.078125 -0.5,0.28125 -0.671875,0.5 -0.0625,0.09375 0.09375,0.125 0.15625,0.125 0.046875,0 0.09375,-0.015625 0.125,-0.046875 0.1875,-0.171875 0.390625,-0.34375 0.53125,-0.34375 z m 0,0"
           id="path1506" />
      </g>
    </g>
    <path
       style="fill:#ff8300;fill-opacity:1;fill-rule:nonzero;stroke:none;stroke-width:1.33333"
       d="m 12.742187,4.7086403 c 0.416667,0 0.760418,-0.3437506 0.760418,-0.7604173 0,-0.4166666 -0.343751,-0.760416 -0.760418,-0.760416 -0.416666,0 -0.760417,0.3437494 -0.760417,0.760416 0,0.4166667 0.343751,0.7604173 0.760417,0.7604173 z m 0,0"
       id="path979" />
    <g
       clip-path="url(#clip2)"
       clip-rule="nonzero"
       id="g983"
       transform="matrix(1.3333333,0,0,1.3333333,-4.1536456,-1.6038595)"
       style="fill:#ff8300;fill-opacity:1">
      <path
         style="fill:#ff8300;fill-opacity:1;fill-rule:nonzero;stroke:none"
         d="M 9.878906,5.777344 C 10.007812,6 10.246094,6.113281 10.550781,6.148438 c 0.07813,0.078124 0.160157,0.121093 0.269531,0.121093 0.125,0 0.207032,-0.046875 0.277344,-0.128906 0.15625,-0.019531 0.320313,-0.050781 0.488282,-0.09375 0.21875,0.777344 0.585937,1.355469 1.085937,1.355469 0.5,0 0.867187,-0.578125 1.085937,-1.355469 0.582032,0.148437 1.410157,0.246094 1.707032,-0.269531 C 15.585938,5.570312 15.578125,5.304688 15.449219,5.007812 15.496094,4.84375 15.433594,4.664062 15.28125,4.578125 15.246094,4.554688 15.207031,4.546875 15.167969,4.539062 15.140625,4.5 15.113281,4.460938 15.078125,4.421875 15.007812,4.335938 14.925781,4.25 14.84375,4.164062 15.253906,3.738281 15.761719,3.066406 15.464844,2.550781 15.214844,2.117188 14.542969,2.082031 13.757812,2.28125 13.539062,1.503906 13.171875,0.925781 12.671875,0.925781 c -0.257813,0 -0.476563,0.152344 -0.664063,0.398438 -0.160156,0.042969 -0.285156,0.1875 -0.285156,0.363281 0,0.039062 0.01172,0.078125 0.02344,0.113281 -0.0586,0.144531 -0.113284,0.3125 -0.160158,0.480469 C 10.800781,2.082031 10.128906,2.117188 9.878906,2.550781 9.582031,3.066406 10.089844,3.738281 10.5,4.164062 10.089844,4.589844 9.582031,5.261719 9.878906,5.777344 Z m 5.210938,-0.492188 c 0.01953,0 0.03906,-0.00391 0.05469,-0.00781 0.175781,0.621094 -0.667969,0.558594 -1.296875,0.402344 0.05469,-0.246094 0.08984,-0.507813 0.117188,-0.769532 0.21875,-0.15625 0.417968,-0.320312 0.605468,-0.484375 0.105469,0.113281 0.152344,0.15625 0.226563,0.25 -0.08594,0.113281 -0.101563,0.21875 -0.07031,0.328125 0.04688,0.171875 0.199219,0.28125 0.363282,0.28125 z m -1.09375,-1.371094 c 0.105468,0.082032 0.203125,0.167969 0.296875,0.25 -0.09375,0.085938 -0.191407,0.167969 -0.296875,0.25 0.0039,-0.195312 0.0039,-0.304687 0,-0.5 z M 15.136719,2.742188 C 15.316406,3.058594 14.820312,3.640625 14.570312,3.902344 14.382812,3.738281 14.183594,3.578125 13.964844,3.421875 13.9375,3.15625 13.902344,2.894531 13.847656,2.648438 14.199219,2.5625 14.953125,2.429688 15.136719,2.742188 Z m -3.34375,2.4375 c 0.191406,0.117187 0.105469,0.078124 0.4375,0.253906 -0.128907,0.050781 -0.25,0.097656 -0.371094,0.140625 -0.02734,-0.125 -0.04687,-0.257813 -0.06641,-0.394531 z m 0.878906,1.84375 c -0.257813,0 -0.535156,-0.421876 -0.722656,-1.082032 0.238281,-0.078125 0.480469,-0.171875 0.722656,-0.285156 0.242187,0.113281 0.484375,0.207031 0.722656,0.285156 -0.1875,0.660156 -0.464843,1.082032 -0.722656,1.082032 z m 0.8125,-1.449219 C 13.367188,5.53125 13.242188,5.484375 13.117188,5.433594 c 0.324218,-0.175782 0.242187,-0.136719 0.433593,-0.253906 -0.01953,0.136718 -0.03906,0.269531 -0.06641,0.394531 z m 0.06641,-2.425781 C 13.414062,3.0625 13.414062,3.050781 13.117188,2.894531 c 0.125,-0.050781 0.25,-0.097656 0.367187,-0.136719 0.02734,0.125 0.04687,0.253907 0.06641,0.390626 z M 12.054688,2.070312 c 0.253906,0.03125 0.425781,-0.175781 0.425781,-0.382812 0,-0.089844 -0.03516,-0.167969 -0.08594,-0.234375 0.09375,-0.09375 0.1875,-0.144531 0.277344,-0.144531 0.257813,0 0.535156,0.421875 0.722656,1.078125 C 13.15625,2.464844 12.914062,2.5625 12.671875,2.671875 12.429688,2.5625 12.1875,2.464844 11.949219,2.386719 c 0.03125,-0.113281 0.06641,-0.21875 0.105469,-0.316407 z m -0.195313,0.6875 c 0.117187,0.039063 0.242187,0.085938 0.367187,0.136719 -0.296874,0.160157 -0.292968,0.167969 -0.433593,0.253907 0.01953,-0.136719 0.03906,-0.265626 0.06641,-0.390626 z m -0.117187,0.871094 c 0.339843,-0.230468 0.601562,-0.375 0.929687,-0.535156 0.324219,0.160156 0.585937,0.304688 0.929687,0.535156 0.02344,0.363282 0.02734,0.699219 0,1.070313 C 13.296875,4.90625 13.015625,5.070312 12.671875,5.238281 12.328125,5.070312 12.050781,4.90625 11.742188,4.699219 11.71875,4.335938 11.71875,4 11.742188,3.628906 Z M 10.207031,2.742188 c 0.183594,-0.3125 0.933594,-0.179688 1.289063,-0.09375 -0.05078,0.246093 -0.08984,0.507812 -0.117188,0.773437 -0.21875,0.15625 -0.417968,0.316406 -0.601562,0.480469 -0.253906,-0.261719 -0.75,-0.84375 -0.570313,-1.160156 z m 1.140625,1.671874 C 11.242188,4.332031 11.144531,4.25 11.050781,4.164062 c 0.09375,-0.082031 0.191407,-0.167968 0.296875,-0.25 -0.0039,0.195313 -0.0039,0.304688 0,0.5 z m -0.570312,0.011719 c 0.183594,0.164063 0.382812,0.328125 0.601562,0.484375 0.02734,0.261719 0.06641,0.523438 0.117188,0.769532 C 11.378906,5.707031 11.269531,5.730469 11.164062,5.746094 11.113281,5.617188 11.027344,5.550781 10.917969,5.523438 10.75,5.476562 10.554688,5.550781 10.472656,5.753906 10.347656,5.722656 10.253906,5.667969 10.207031,5.585938 10.027344,5.273438 10.523438,4.6875 10.777344,4.425781 Z m 0,0"
         id="path981" />
    </g>
    <g
       clip-path="url(#clip3)"
       clip-rule="nonzero"
       id="g987"
       transform="matrix(1.3333333,0,0,1.3333333,-4.1536456,-1.6038595)"
       style="fill:#ff8300;fill-opacity:1">
      <path
         style="fill:#ff8300;fill-opacity:1;fill-rule:nonzero;stroke:none"
         d="m 9.8125,19.464844 h 1.140625 v -0.378906 h 0.378906 V 18.707031 H 9.433594 v 0.378907 H 9.8125 Z m 0,0"
         id="path985" />
    </g>
    <g
       clip-path="url(#clip4)"
       clip-rule="nonzero"
       id="g991"
       transform="matrix(1.3333333,0,0,1.3333333,-4.1536456,-1.6038595)"
       style="fill:#ff8300;fill-opacity:1">
      <path
         style="fill:#ff8300;fill-opacity:1;fill-rule:nonzero;stroke:none"
         d="m 14.011719,19.085938 h 0.378906 v 0.378906 h 1.140625 v -0.378906 h 0.378906 v -0.378907 h -1.898437 z m 0,0"
         id="path989" />
    </g>
    <g
       clip-path="url(#clip5)"
       clip-rule="nonzero"
       id="g995"
       transform="matrix(1.3333333,0,0,1.3333333,-4.1536456,-1.6038595)"
       style="fill:#ff8300;fill-opacity:1">
      <path
         style="fill:#ff8300;fill-opacity:1;fill-rule:nonzero;stroke:none"
         d="M 13.050781,23.257812 H 12.292969 L 11.914062,24.03125 H 11.34375 v 0.378906 H 14 V 24.03125 h -0.570312 z m 0,0"
         id="path993" />
    </g>
    <g
       clip-path="url(#clip6)"
       clip-rule="nonzero"
       id="g999"
       transform="matrix(1.3333333,0,0,1.3333333,-4.1536456,-1.6038595)"
       style="fill:#ff8300;fill-opacity:1">
      <path
         style="fill:#ff8300;fill-opacity:1;fill-rule:nonzero;stroke:none"
         d="m 12.292969,17.933594 v 2.859375 h -0.582031 v -0.1875 h -0.757813 v 0.757812 h 0.757813 v -0.191406 h 0.582031 v 1.707031 h 0.757812 v -1.707031 h 0.582031 v 0.191406 h 0.757813 v -0.757812 h -0.757813 v 0.1875 h -0.582031 v -2.859375 z m 0,0"
         id="path997" />
    </g>
    <g
       clip-path="url(#clip7)"
       clip-rule="nonzero"
       id="g1003"
       transform="matrix(1.3333333,0,0,1.3333333,-4.1536456,-1.6038595)"
       style="fill:#ff8300;fill-opacity:1">
      <path
         style="fill:#ff8300;fill-opacity:1;fill-rule:nonzero;stroke:none"
         d="M 14.390625,21.742188 V 22.3125 c 0,0.3125 0.253906,0.566406 0.570313,0.566406 0.3125,0 0.570312,-0.253906 0.570312,-0.566406 v -2.46875 h -1.140625 v 0.378906 h 0.378906 v 1.519532 z m 0,0"
         id="path1001" />
    </g>
    <g
       clip-path="url(#clip8)"
       clip-rule="nonzero"
       id="g1007"
       transform="matrix(1.3333333,0,0,1.3333333,-4.1536456,-1.6038595)"
       style="fill:#ff8300;fill-opacity:1">
      <path
         style="fill:#ff8300;fill-opacity:1;fill-rule:nonzero;stroke:none"
         d="M 10.953125,20.222656 V 19.84375 H 9.8125 v 2.46875 c 0,0.3125 0.257812,0.566406 0.570312,0.566406 0.316407,0 0.570313,-0.253906 0.570313,-0.566406 v -0.570312 h -0.378906 v -1.519532 z m 0,0"
         id="path1005" />
    </g>
    <g
       clip-path="url(#clip9)"
       clip-rule="nonzero"
       id="g1011"
       transform="matrix(1.3333333,0,0,1.3333333,-4.1536456,-1.6038595)"
       style="fill:#ff8300;fill-opacity:1">
      <path
         style="fill:#ff8300;fill-opacity:1;fill-rule:nonzero;stroke:none"
         d="m 18.472656,14.449219 0.800782,-0.417969 c 0.101562,0.09375 0.234374,0.15625 0.386718,0.15625 0.152344,0 0.289063,-0.0625 0.390625,-0.160156 l 0.5625,0.28125 c -0.0039,0.01953 -0.0078,0.04297 -0.0078,0.06641 0,0.246094 0.160156,0.457031 0.378906,0.535156 v 0.996094 H 21.3672 V 14.91016 c 0.21875,-0.07813 0.378906,-0.289062 0.378906,-0.535156 0,-0.02344 -0.0039,-0.04687 -0.0078,-0.06641 l 0.5625,-0.28125 c 0.101563,0.09766 0.238281,0.160156 0.390625,0.160156 0.152344,0 0.285156,-0.0625 0.386719,-0.15625 l 0.800781,0.417969 0.175782,-0.335938 -0.800782,-0.417969 c 0.0039,-0.02734 0.0078,-0.05078 0.0078,-0.07812 0,-0.246094 -0.160157,-0.457032 -0.378907,-0.535157 V 12.25391 c 0.21875,-0.07813 0.378907,-0.285156 0.378907,-0.535156 0,-0.02344 -0.0039,-0.05078 -0.0078,-0.07813 l 0.800782,-0.417969 -0.175782,-0.335937 -0.800781,0.417969 c -0.101563,-0.09375 -0.234375,-0.152344 -0.386719,-0.152344 -0.152344,0 -0.289062,0.05859 -0.390625,0.160156 l -0.5625,-0.28125 c 0.0039,-0.02344 0.0078,-0.04687 0.0078,-0.07031 0,-0.246094 -0.160156,-0.453126 -0.378906,-0.535157 V 9.429688 h -0.382813 v 0.996093 c -0.21875,0.08203 -0.378906,0.289063 -0.378906,0.535157 0,0.02344 0.0039,0.04687 0.0078,0.07031 l -0.5625,0.28125 c -0.101562,-0.101562 -0.238281,-0.160156 -0.390625,-0.160156 -0.152344,0 -0.285156,0.05859 -0.386718,0.152344 l -0.800782,-0.417969 -0.175781,0.335937 0.800781,0.417969 c -0.0039,0.02734 -0.0078,0.05469 -0.0078,0.07813 0,0.25 0.160156,0.457031 0.378906,0.535156 v 0.828125 c -0.21875,0.07813 -0.378906,0.289063 -0.378906,0.535157 0,0.02734 0.0039,0.05078 0.0078,0.07812 l -0.800781,0.417969 z m 1.753906,-2.730469 c 0,-0.02344 -0.0039,-0.04297 -0.0078,-0.06641 l 0.5625,-0.28125 c 0.101562,0.09766 0.242188,0.160156 0.394531,0.160156 0.152344,0 0.292969,-0.0625 0.394531,-0.160156 l 0.5625,0.28125 c -0.0039,0.02344 -0.0078,0.04297 -0.0078,0.06641 0,0.25 0.160156,0.457031 0.378906,0.535156 v 0.828125 c -0.21875,0.07813 -0.378906,0.289063 -0.378906,0.535157 0,0.02344 0.0039,0.04687 0.0078,0.07031 l -0.5625,0.277344 c -0.101562,-0.09766 -0.242187,-0.15625 -0.394531,-0.15625 -0.152343,0 -0.292969,0.05859 -0.394531,0.15625 L 20.21875,13.6875 c 0.0039,-0.02344 0.0078,-0.04687 0.0078,-0.07031 0,-0.246094 -0.15625,-0.457032 -0.378906,-0.535157 v -0.828125 c 0.222656,-0.07813 0.378906,-0.285156 0.378906,-0.535156 z m 0,0"
         id="path1009" />
    </g>
    <g
       clip-path="url(#clip10)"
       clip-rule="nonzero"
       id="g1015"
       transform="matrix(1.3333333,0,0,1.3333333,-4.1536456,-1.6038595)"
       style="fill:#ff8300;fill-opacity:1">
      <path
         style="fill:#ff8300;fill-opacity:1;fill-rule:nonzero;stroke:none"
         d="M 7.453125,12.078125 5.585938,13.15625 v 1.660156 l 0.261718,-0.257812 0.28125,0.28125 -0.742187,0.75 -0.746094,-0.75 0.28125,-0.28125 0.261719,0.257812 V 13.386719 L 0.738281,15.90625 H 7.59375 v -3.894531 l -0.132812,0.0625 z m 0,0"
         id="path1013" />
    </g>
    <g
       clip-path="url(#clip11)"
       clip-rule="nonzero"
       id="g1019"
       transform="matrix(1.3333333,0,0,1.3333333,-4.1536456,-1.6038595)"
       style="fill:#ff8300;fill-opacity:1">
      <path
         style="fill:#ff8300;fill-opacity:1;fill-rule:nonzero;stroke:none"
         d="m 4.613281,12.789062 -0.695312,0.402344 0.203125,0.347656 3.132812,-1.808593 -0.804687,-1.390625 -1.390625,0.804687 0.398437,0.691407 -0.34375,0.203124 -0.402343,-0.695312 -1.394532,0.804688 0.402344,0.691406 0.695312,-0.398438 z m 0,0"
         id="path1017" />
    </g>
    <path
       style="fill:#ff8300;fill-opacity:1;fill-rule:nonzero;stroke:none;stroke-width:1.33333"
       d="m -0.64843769,15.52114 -0.36458261,1.359375 1.35937459,0.359374 0.13541599,-0.515624 -0.47395732,-0.125 0.005208,-0.0052 1.05729194,-0.609376 -0.26562529,-0.468749 -1.06249997,0.614583 0.12499999,-0.46875 z m 0,0"
       id="path1021" />
    <g
       clip-path="url(#clip12)"
       clip-rule="nonzero"
       id="g1025"
       transform="matrix(1.3333333,0,0,1.3333333,-4.1536456,-1.6038595)"
       style="fill:#ff8300;fill-opacity:1">
      <path
         style="fill:#ff8300;fill-opacity:1;fill-rule:nonzero;stroke:none"
         d="m 4.402344,10 0.355468,0.09375 0.105469,-0.386719 -1.015625,-0.273437 -0.273437,1.019531 0.386719,0.101563 0.09375,-0.351563 0.65625,1.140625 0.347656,-0.199219 z m 0,0"
         id="path1023" />
    </g>
  </g>
</svg>
