<svg xmlns="http://www.w3.org/2000/svg" width="458.302" height="49.896" version="1.2" viewBox="0 0 343.727 37.422"><defs><clipPath id="a"><path d="M3.316 3.32H41V33H3.316Zm0 0"/></clipPath><clipPath id="b"><path d="M90 3.32h31v37.422H90Zm0 0"/></clipPath><clipPath id="c"><path d="M340 17h7.043v6H340Zm0 0"/></clipPath><clipPath id="d"><path d="M343 17h4.043v6H343Zm0 0"/></clipPath></defs><g clip-path="url(#a)" style="fill:#eceff4;fill-opacity:1" transform="translate(-3.316 -3.32)"><path d="M33.121 18.895c0 .738.067 1.273.133 1.875.133.738.941 1.011 1.676 1.011.203 0 .34-.273.34-.539-.137-.472-.34-1.547-.473-2.816 0-.336.133-.473.473-.473 1.136-.265 1.878-1.277 1.878-2.148 0-.938-.875-1.543-1.347-1.543-1.27 0-2.008.804-2.281 1.61-.133.269-.266.405-.598.405-1.817.063-3.293.266-4.703.602-.27 0-.403 0-.332-.336.535-2.484.87-4.7 1.61-5.973.335-.605-.474-.875-.872-.875-.203 0-.34.07-.54.203-2.081 1.68-4.765 4.63-6.98 9.196-.136.265-.27.406-.535.539-3.425 1.742-6.312 3.96-7.656 5.367-.469.54.606.738.879.738.266 0 .531-.066.8-.199 1.075-.941 2.954-2.148 4.833-3.223.27-.132.336-.07.203.204-1.813 4.628-3.422 8.656-8.457 8.656-2.149 0-3.692-1.14-4.43-1.88-.203-.202-.203-.269.133-.335 1.883-.133 2.816-1.344 2.816-2.82 0-1.473-1.406-2.883-3.285-2.883-2.015 0-3.09 1.808-3.09 3.957 0 3.289 3.489 5.504 8.461 5.504 7.043 0 12.817-4.094 15.434-13.219a.727.727 0 0 1 .543-.54c1.539-.401 3.152-.737 4.965-.808.402 0 .402.336.402.743zm6.64-15.504c-1.675 1.074-4.491 1.675-5.968 1.675-4.566 0-10.336-1.613-15.105-1.613-3.625 0-6.848.336-9.13 1.547-2.886 1.473-4.425 3.02-4.425 6.375 0 2.684 2.012 4.297 4.226 5.371 1.274.668 2.817.738 4.094.738 4.094 0 6.442-3.558 6.578-8.324a.43.43 0 0 0-.402-.402c-.469 0-1.074.265-1.14.805-.47 4.296-2.282 6.378-4.97 6.378-1.68 0-4.496-1.21-4.496-4.433 0-3.692 2.622-6.711 7.586-6.711 4.43 0 9.192 4.16 15.703 4.16 2.887 0 5.305-1.809 7.317-3.691.336-.336.539-1.075.539-1.543 0-.27-.133-.536-.406-.332zm0 0" style="fill:#eceff4;fill-opacity:1;fill-rule:nonzero;stroke:none"/></g><path d="M62.61 29.129c-1.13 0-2.016-.133-2.688-.399a14.422 14.422 0 0 0-1.813-.472c-.23-.082-.367-.153-.398-.203 0-.035-.035-.098-.07-.2-.098-.214-.2-.57-.332-1.074-.106-.539-.188-1.074-.274-1.613-.047-.566-.098-1.02-.133-1.34v-.605c.036-.266.203-.403.47-.403.218 0 .37.137.472.403.133.27.234.504.336.672.218.402.535.972.941 1.68a7.238 7.238 0 0 0 1.54 1.812c.624.5 1.374.738 2.28.738 1.348 0 2.305-.352 2.887-1.074.625-.703.942-1.496.942-2.352 0-.62-.168-1.207-.47-1.742-.269-.539-.773-1.027-1.476-1.477l-3.355-2.148c-1.074-.672-1.95-1.426-2.621-2.281-.633-.89-.942-1.918-.942-3.09 0-1.11.34-2.031 1.012-2.754.668-.75 1.508-1.305 2.55-1.676a9.135 9.135 0 0 1 3.223-.605c1.024 0 1.875.07 2.547.203.676.133 1.16.234 1.477.27.168 0 .3.066.406.199.082.136.149.27.2.402.081.504.132 1.059.132 1.68.035.636.086 1.207.137 1.746 0 .133-.05.316-.137.535-.098.238-.234.336-.402.336-.184 0-.367-.082-.535-.266a1.28 1.28 0 0 1-.27-.605c-.27-.89-.656-1.578-1.14-2.082-.504-.489-1.004-.824-1.543-1.008-.504-.219-.922-.336-1.274-.336-.992 0-1.797.3-2.422.871-.633.54-.933 1.242-.933 2.086 0 .938.214 1.64.668 2.078.484.453 1.14.922 1.945 1.41l3.629 2.215a7.252 7.252 0 0 1 2.144 2.149c.575.804.875 1.746.875 2.816 0 .773-.3 1.578-.875 2.414-.586.86-1.441 1.602-2.55 2.219-1.125.57-2.516.87-4.16.87zM74.219 28.66c-.133 0-.317-.05-.535-.133-.235-.086-.336-.218-.336-.402 0-.219.101-.371.336-.469.218-.086.437-.156.671-.203.754-.137 1.426-.351 2.012-.672.57-.3.871-.84.871-1.613V13.426c0-.84-.195-1.512-.601-2.016-.367-.484-.992-.805-1.88-.937a3.31 3.31 0 0 1-.741-.34c-.23-.133-.332-.281-.332-.469 0-.164.101-.3.332-.402.218-.082.406-.133.539-.133.57 0 1.09.035 1.547.07.433 0 .87.028 1.273.063.434.05.937.07 1.477.07.488 0 .937-.02 1.343-.07.438-.035.887-.063 1.34-.063.488-.035 1.008-.07 1.547-.07.133 0 .3.05.535.133.219.101.336.238.336.402 0 .188-.117.336-.336.469a3.73 3.73 0 0 1-.738.34c-.59.097-1.055.265-1.41.535-.367.234-.64.539-.805.937-.187.407-.27.907-.27 1.48v11.743c0 .773.286 1.312.876 1.613.57.32 1.238.535 2.011.672.223.047.434.117.672.203.219.098.336.25.336.469 0 .184-.117.316-.336.402-.238.082-.402.133-.535.133-.54 0-1.059-.031-1.543-.066-.457-.047-.926-.082-1.414-.133-.504-.035-1.04-.07-1.61-.07-.636 0-1.19.035-1.675.07-.457.05-.926.086-1.41.133-.457.035-.977.066-1.547.066zm0 0" style="fill:#eceff4;fill-opacity:1;fill-rule:nonzero;stroke:none"/><g clip-path="url(#b)" style="fill:#eceff4;fill-opacity:1" transform="translate(-3.316 -3.32)"><path d="M97.004 32.922c2.75 0 5.098 2.484 7.45 4.766 2.148 2.011 5.097 3.085 7.921 3.085 4.094 0 5.969-1.543 7.781-4.496.133-.203.07-.402-.133-.402-.668 0-1.68.535-2.214 1.004-1.141 1.21-2.547 1.883-3.153 1.883-2.351 0-3.761-2.485-6.312-4.633a10.587 10.587 0 0 0-2.149-1.344c-.132-.066-.668-.265-.199-.336 7.719-1.472 12.082-8.926 12.082-16.508 0-5.035-4.496-8.058-7.789-8.058-4.762 0-7.113 4.164-7.113 8.457 0 2.754 1.476 3.828 3.222 4.902.204.133.47.07.47-.133 0-.675-.735-1.547-1.141-2.55-.2-.47-.332-.942-.332-1.883 0-2.817 1.273-7.043 3.82-7.043 2.484 0 4.367 4.023 4.367 7.18 0 4.898-.809 8.656-3.691 11.277-1.75 1.61-3.625 3.02-6.848 3.02-3.02 0-5.906-3.356-5.906-7.516 0-9.13 5.773-18.528 13.488-18.528 2.148 0 4.902 1.61 6.379 3.625.336.47 1.074.871 1.676.871.136 0 .27-.132.203-.402-.672-3.023-4.36-5.77-8.926-5.77-11.344 0-19.2 8.454-19.2 19.06 0 3.89 2.348 6.98 5.438 8.66.27.132.203.203 0 .335-1.543.47-3.09 1.743-4.16 3.09-.402.535.606.738.938.738.273 0 .605-.07.808-.273 1.14-1.074 2.414-2.078 3.223-2.078zm0 0" style="fill:#eceff4;fill-opacity:1;fill-rule:nonzero;stroke:none"/></g><path d="M141.496 28.66c-.14 0-.324-.05-.543-.133-.23-.086-.336-.218-.336-.402 0-.219.106-.371.336-.469.219-.086.438-.156.676-.203.754-.137 1.426-.351 2.012-.672.57-.3.875-.84.875-1.613V13.426c0-.84-.203-1.512-.606-2.016-.37-.484-.988-.805-1.883-.937a3.249 3.249 0 0 1-.734-.34c-.238-.133-.34-.281-.34-.469 0-.164.102-.3.34-.402.215-.082.398-.133.535-.133.567 0 1.094.035 1.543.07.438 0 .871.028 1.277.063.434.05.942.07 1.477.07.484 0 .938-.02 1.34-.07.437-.035.89-.063 1.344-.063a21.34 21.34 0 0 1 1.543-.07c.132 0 .3.05.539.133.218.101.332.238.332.402 0 .188-.114.336-.332.469a3.664 3.664 0 0 1-.743.34c-.585.097-1.054.265-1.406.535-.37.234-.637.539-.804.937-.184.407-.27.907-.27 1.48v11.743c0 .773.281 1.312.871 1.613.57.32 1.242.535 2.016.672.218.047.433.117.668.203.218.098.336.25.336.469 0 .184-.118.316-.336.402-.235.082-.403.133-.535.133-.54 0-1.06-.031-1.543-.066-.454-.047-.922-.082-1.41-.133a22.84 22.84 0 0 0-1.61-.07c-.64 0-1.195.035-1.68.07-.449.05-.922.086-1.41.133a19.72 19.72 0 0 1-1.539.066zM167.8 29.262c-.316 0-.6-.266-.87-.801a122.269 122.269 0 0 1-2.883-6.578c-.86-2.235-1.883-4.7-3.09-7.383-.102-.219-.184-.336-.27-.336-.046 0-.097.117-.132.336-.051.8-.118 1.793-.203 2.95a145.836 145.836 0 0 0-.266 3.695 81.576 81.576 0 0 0-.203 4.023c0 .371.066.809.203 1.344.133.504.555.804 1.273.941.27.047.504.117.739.203.218.098.332.25.332.469 0 .184-.114.316-.332.402-.235.082-.403.133-.54.133-.535 0-.968-.031-1.273-.066-.27-.047-.52-.082-.734-.133a4.766 4.766 0 0 0-.875-.07c-.403 0-.739.035-1.008.07-.238.05-.504.086-.805.133-.32.035-.738.066-1.273.066-.133 0-.32-.05-.54-.133-.234-.086-.335-.218-.335-.402 0-.219.101-.371.336-.469.219-.086.433-.156.672-.203.754-.137 1.293-.418 1.609-.871.352-.488.555-.957.605-1.414.168-.8.336-1.707.47-2.75.167-1.07.335-2.164.468-3.29.137-1.108.234-2.163.336-3.151.137-.977.219-1.832.27-2.551.085-.707.132-1.207.132-1.48 0-.434-.203-.755-.601-.938-.403-.215-1.055-.403-1.95-.535a3.249 3.249 0 0 1-.734-.34c-.183-.133-.27-.281-.27-.469 0-.164.086-.3.27-.402.215-.082.399-.133.535-.133.567 0 .973.035 1.207.07.22 0 .434.028.672.063H161.023c.168-.035.403-.063.672-.063h.336c.082 0 .153.028.203.063l6.305 14.699c.137.32.238.504.336.539.137 0 .238-.133.34-.406.836-1.961 1.676-3.89 2.484-5.77.801-1.879 1.692-4.027 2.684-6.441.168-.488.351-1.028.535-1.613.219-.57.402-.872.539-.872l1.61-.066c.757 0 1.472-.02 2.148-.07.703-.082 1.305-.133 1.812-.133.168 0 .352.05.54.133.214.101.331.238.331.402 0 .188-.117.336-.332.469a2.33 2.33 0 0 1-.675.34c-.907.132-1.543.265-1.946.398-.37.137-.539.473-.539 1.012V17.52c.035.855.07 1.71.07 2.55.036.805.083 1.66.133 2.551.036.906.086 1.813.133 2.75.035.668.27 1.176.676 1.477.434.265 1.02.468 1.742.605.219.047.434.117.672.203.27.098.402.25.402.469 0 .184-.117.316-.336.402-.234.082-.402.133-.535.133-.539 0-1.011-.031-1.41-.066-.402-.047-.808-.082-1.21-.133-.372-.035-.786-.07-1.278-.07-.531 0-1.04.035-1.473.07-.453.05-.906.086-1.344.133-.402.035-.906.066-1.476.066-.133 0-.32-.05-.535-.133-.235-.086-.336-.218-.336-.402 0-.219.101-.371.336-.469.215-.086.433-.156.672-.203.753-.137 1.277-.34 1.543-.605.3-.266.468-.703.468-1.34V18.46c0-1.16-.03-2.422-.066-3.762-.05-.351-.133-.5-.27-.472-.097.054-.199.203-.336.472l-6.109 13.895a1.74 1.74 0 0 1-.398.472c-.102.133-.203.196-.34.196zM211.715 29.129c-1.524 0-2.985-.25-4.36-.738a11.732 11.732 0 0 1-3.625-2.078 10.046 10.046 0 0 1-2.55-3.153c-.637-1.242-.942-2.64-.942-4.164 0-1.476.336-2.836 1.008-4.094a10.527 10.527 0 0 1 2.688-3.222c1.101-.887 2.379-1.563 3.82-2.016a13.728 13.728 0 0 1 4.434-.738c.707 0 1.375.035 2.011.07.621.047 1.211.133 1.75.266.567.101 1.137.238 1.672.402.3.102.504.188.61.27a.736.736 0 0 1 .265.402c.137.402.219.992.27 1.742.082.774.132 1.399.132 1.883 0 .371-.097.605-.265.738-.137.102-.305.102-.473 0-.183-.133-.336-.351-.469-.668-.367-1.027-.808-1.812-1.343-2.351-.504-.535-1.121-.887-1.88-1.075-.773-.218-1.73-.335-2.886-.335-1.441 0-2.719.382-3.828 1.14-1.121.723-2.008 1.715-2.684 2.957-.636 1.207-.937 2.531-.937 3.957 0 1.578.336 3.07 1.008 4.496.668 1.442 1.609 2.602 2.816 3.492 1.242.907 2.684 1.344 4.297 1.344.703 0 1.441-.136 2.215-.402a9.227 9.227 0 0 0 2.148-1.215 4.742 4.742 0 0 0 1.477-1.945c.168-.399.437-.633.804-.735.403-.136.606.032.606.47 0 .132-.066.405-.203.804a8.41 8.41 0 0 1-.473 1.273c-.183.457-.332.844-.465 1.145-.101.234-.203.402-.336.535-.132.133-.32.27-.539.406-.636.266-1.511.52-2.613.738-1.125.266-2.184.399-3.16.399zM256.805 29.262c-.317 0-.602-.266-.871-.801-1.04-2.184-2-4.383-2.887-6.578-.856-2.235-1.879-4.7-3.086-7.383-.102-.219-.184-.336-.27-.336-.05 0-.101.117-.132.336-.055.8-.121 1.793-.204 2.95a145.034 145.034 0 0 0-.27 3.695 77.042 77.042 0 0 0-.198 4.023c0 .371.066.809.199 1.344.137.504.555.804 1.273.941.274.047.504.117.739.203.222.098.336.25.336.469 0 .184-.114.316-.336.402-.235.082-.403.133-.535.133-.536 0-.973-.031-1.278-.066-.265-.047-.52-.082-.738-.133a4.681 4.681 0 0 0-.871-.07 7.5 7.5 0 0 0-1.004.07c-.238.05-.504.086-.809.133-.316.035-.738.066-1.273.066-.137 0-.32-.05-.54-.133-.234-.086-.335-.218-.335-.402 0-.219.101-.371.336-.469.219-.086.437-.156.676-.203.753-.137 1.293-.418 1.609-.871.352-.488.555-.957.602-1.414.167-.8.335-1.707.472-2.75.168-1.07.336-2.164.469-3.29.133-1.108.234-2.163.332-3.151.137-.977.223-1.832.273-2.551.082-.707.133-1.207.133-1.48 0-.434-.203-.755-.605-.938-.399-.215-1.059-.403-1.946-.535a3.393 3.393 0 0 1-.742-.34c-.183-.133-.265-.281-.265-.469 0-.164.082-.3.265-.402.223-.082.406-.133.54-.133.57 0 .976.035 1.21.07.215 0 .434.028.672.063H250.027c.164-.035.403-.063.668-.063h.34c.082 0 .149.028.2.063l6.308 14.699c.133.32.238.504.336.539.133 0 .234-.133.336-.406.84-1.961 1.68-3.89 2.484-5.77a445.032 445.032 0 0 0 2.684-6.441c.172-.488.355-1.028.539-1.613.215-.57.398-.872.531-.872l1.617-.066c.75 0 1.473-.02 2.149-.07.703-.082 1.304-.133 1.808-.133.168 0 .352.05.536.133.218.101.335.238.335.402 0 .188-.117.336-.335.469a2.232 2.232 0 0 1-.668.34c-.907.132-1.543.265-1.946.398-.37.137-.539.473-.539 1.012V17.52c.035.855.07 1.71.07 2.55.028.805.082 1.66.133 2.551.035.906.082 1.813.133 2.75.035.668.27 1.176.668 1.477.441.265 1.027.468 1.75.605.215.047.434.117.672.203.266.098.402.25.402.469 0 .184-.12.316-.34.402-.23.082-.398.133-.53.133-.544 0-1.013-.031-1.415-.066-.398-.047-.805-.082-1.207-.133-.371-.035-.785-.07-1.277-.07-.535 0-1.04.035-1.473.07-.457.05-.906.086-1.344.133-.406.035-.906.066-1.476.066-.137 0-.32-.05-.54-.133-.23-.086-.335-.218-.335-.402 0-.219.105-.371.336-.469.218-.086.437-.156.672-.203.753-.137 1.273-.34 1.543-.605.3-.266.468-.703.468-1.34V18.46c0-1.16-.03-2.422-.062-3.762-.051-.351-.137-.5-.27-.472-.101.054-.203.203-.336.472l-6.109 13.895a1.678 1.678 0 0 1-.402.472c-.102.133-.203.196-.336.196zM275.262 28.66c-.133 0-.317-.05-.535-.133-.239-.086-.336-.218-.336-.402 0-.219.097-.371.336-.469.218-.086.437-.156.668-.203.757-.137 1.43-.351 2.015-.672.57-.3.871-.84.871-1.613V13.426c0-.84-.199-1.512-.601-2.016-.367-.484-.992-.805-1.88-.937a3.36 3.36 0 0 1-.737-.34c-.235-.133-.336-.281-.336-.469 0-.164.101-.3.336-.402.218-.082.402-.133.535-.133.57 0 1.074.035 1.476.07.406 0 .774.028 1.145.063.398.05.836.07 1.34.07h5.64c.89-.035 1.692-.07 2.414-.07a43.629 43.629 0 0 1 1.883-.063c.082 0 .168.028.266.063.133.05.203.12.203.203.082 1.074.164 1.93.265 2.55.137.637.2 1.11.2 1.41 0 .098-.047.2-.133.333-.05.137-.113.203-.2.203-.132 0-.3-.066-.468-.203a1.384 1.384 0 0 1-.336-.535 11.228 11.228 0 0 0-1.008-1.813c-.32-.484-.855-.738-1.613-.738h-4.156c-.141 0-.371.066-.676.2-.266.105-.399.273-.399.538v5.703c0 .14.028.371.133.676.133.266.235.398.336.398h3.422c.434 0 .773-.148 1.004-.468.219-.301.406-.703.539-1.207.086-.137.168-.285.27-.473.132-.168.265-.266.402-.266.168 0 .3.07.402.204a.735.735 0 0 1 .133.398c-.047.371-.098.793-.133 1.277v1.141c0 .371.016.738.067 1.144.035.399.066.801.066 1.208.035.097.016.234-.066.402-.102.183-.2.265-.332.265-.274 0-.457-.132-.54-.402-.101-.3-.183-.504-.269-.601-.098-.438-.3-.739-.602-.872-.27-.167-.52-.289-.738-.34-.457-.03-.941-.066-1.48-.066h-1.54c-.406 0-.706.055-.878.137-.133.05-.196.27-.196.668v4.832c0 .773.063 1.258.196 1.48.172.184.574.27 1.21.27h4.298c.89 0 1.628-.238 2.21-.738.625-.54 1.075-1.11 1.348-1.746.031-.086.098-.2.2-.34.081-.168.218-.266.402-.266.218 0 .355.098.402.266.035.14.07.273.07.406-.105.586-.203 1.207-.336 1.879-.136.672-.27 1.262-.406 1.746-.05.098-.164.203-.332.336a.76.76 0 0 1-.406.133c-1.074 0-2.113-.035-3.086-.067h-2.82a68.253 68.253 0 0 0-2.618-.066c-.804-.035-1.593-.07-2.347-.07-.504 0-.977.035-1.41.07-.403.05-.84.086-1.274.133a17.05 17.05 0 0 1-1.48.066zM314.594 29.129c-.184 0-.383-.063-.602-.203a2.877 2.877 0 0 1-.668-.399 2.5 2.5 0 0 1-.543-.535l-10.601-13.09a4.65 4.65 0 0 0-.668-.535c-.188-.168-.325-.273-.407-.273-.136 0-.234.105-.27.273v8.051c.036 1.043.103 1.95.204 2.75.031.773.219 1.312.535 1.613.352.32.89.535 1.61.672.218.047.441.117.671.203.27.098.403.25.403.469 0 .184-.113.316-.332.402-.238.082-.406.133-.54.133-.855 0-1.476-.05-1.874-.133-.407-.086-.942-.136-1.617-.136-.72 0-1.325.05-1.81.136-.456.082-1.073.133-1.882.133-.183 0-.387-.05-.605-.133-.18-.086-.266-.218-.266-.402 0-.219.098-.371.336-.469.219-.086.437-.156.668-.203.758-.137 1.348-.351 1.75-.672.434-.3.687-.84.734-1.613.035-.266.07-.75.07-1.473.032-.754.067-1.61.067-2.55.035-.977.066-1.98.066-3.02.036-1.074.067-2.05.067-2.957.035-.887.07-1.629.07-2.211 0-.219-.183-.508-.535-.879a6.323 6.323 0 0 0-1.215-1.004c-.5-.3-.988-.504-1.473-.601a3.618 3.618 0 0 1-.671-.34c-.235-.133-.336-.281-.336-.469 0-.164.101-.3.336-.402.218-.082.402-.133.535-.133.402 0 .824.035 1.277.07.438 0 .887.028 1.344.063.484 0 .969.035 1.472.07h1.547a.66.66 0 0 1 .47.2c.167.132.335.269.472.402l10.398 12.484c.035.102.106.203.203.336.137.133.235.203.34.203.028 0 .082-.035.133-.137a1.06 1.06 0 0 0 .062-.402l-.195-8.926c0-.84-.187-1.512-.543-2.012-.363-.539-1.004-.875-1.945-1.007a3.743 3.743 0 0 1-.672-.34c-.234-.133-.332-.281-.332-.469 0-.164.098-.3.332-.402.219-.082.406-.133.54-.133.57 0 1.023.035 1.343.07.351 0 .687.028 1.004.063.355.05.804.07 1.347.07.485 0 .872-.02 1.137-.07.27-.035.54-.063.809-.063.3-.035.734-.07 1.273-.07.133 0 .301.05.535.133.22.101.34.238.34.402 0 .188-.12.336-.34.469a4.94 4.94 0 0 1-.672.34c-.906.132-1.507.468-1.812 1.007-.266.5-.398 1.172-.398 2.012v14.164c0 .399-.07.735-.204 1.004-.101.3-.253.469-.472.469zm0 0" style="fill:#eceff4;fill-opacity:1;fill-rule:nonzero;stroke:none"/><path d="m52.59 21.762-2.887 1.863-2.183-.605-.653-.114-5.722-1.144 2.421-1.86 2.164.485zm0 0" style="fill:#ff6363;fill-opacity:1;fill-rule:nonzero;stroke:none"/><path d="m47.52 23.02-.653-.114v-2.281l5.723 1.137-2.887 1.863zm0 0" style="fill:#ff3d47;fill-opacity:1;fill-rule:nonzero;stroke:none"/><path d="m52.59 16.04-2.317 1.046-2.753.465h-.012l-.64-.086-5.723-.852 2.687-1.949 2.398.422.637.101zm0 0" style="fill:#ff6363;fill-opacity:1;fill-rule:nonzero;stroke:none"/><path d="m47.508 17.55-.64-.085v-2.278l5.722.852-2.317 1.047-2.753.465zm0 0" style="fill:#ff3d47;fill-opacity:1;fill-rule:nonzero;stroke:none"/><path d="M52.59 21.762v2.285l-11.445 2.871v-2.305l5.722-1.426.653-.167zm0 0" style="fill:#ff8597;fill-opacity:1;fill-rule:nonzero;stroke:none"/><path d="m47.52 23.02 5.07-1.258v2.285l-5.723 1.426v-2.285Zm0 0" style="fill:#ff6363;fill-opacity:1;fill-rule:nonzero;stroke:none"/><path d="M52.59 16.04v2.284l-11.445 3.438v-2.297l5.722-1.711.64-.203h.013zm0 0" style="fill:#ff8597;fill-opacity:1;fill-rule:nonzero;stroke:none"/><path d="m47.52 17.55 5.07-1.51v2.284l-5.723 1.711v-2.281l.64-.203zm0 0" style="fill:#ff6363;fill-opacity:1;fill-rule:nonzero;stroke:none"/><path d="M52.59 10.89v2.282l-5.723 1.715-.637.199-5.085 1.527v-2.3Zm0 0" style="fill:#ff8597;fill-opacity:1;fill-rule:nonzero;stroke:none"/><path d="M52.59 10.89v2.282l-5.723 1.715v-2.282zm0 0" style="fill:#ff6363;fill-opacity:1;fill-rule:nonzero;stroke:none"/><path d="M53.75 9.129v1.191c0 .621-.52 1.14-1.16 1.14H41.145c-.618 0-1.141-.519-1.141-1.14V9.13Zm0 0" style="fill:#705c57;fill-opacity:1;fill-rule:nonzero;stroke:none"/><path d="M53.75 9.129v1.191c0 .621-.52 1.14-1.16 1.14h-5.723V9.13Zm0 0" style="fill:#51423d;fill-opacity:1;fill-rule:nonzero;stroke:none"/><path d="M53.75 27.484v1.176H40.004v-1.176c0-.636.523-1.136 1.14-1.136H52.59c.64 0 1.16.5 1.16 1.136zm0 0" style="fill:#705c57;fill-opacity:1;fill-rule:nonzero;stroke:none"/><path d="M53.75 27.484v1.176h-6.883v-2.312h5.723c.64 0 1.16.5 1.16 1.136zm0 0" style="fill:#51423d;fill-opacity:1;fill-rule:nonzero;stroke:none"/><path d="M137.465 9.129h-4.012v4.012l1.996 1.34 2.016-1.34zm0 0" style="fill:#c5e1e6;fill-opacity:1;fill-rule:nonzero;stroke:none"/><path d="M124.074 9.129h-4.011v4.012l2.015 1.34 1.996-1.34zm0 0" style="fill:#deebf0;fill-opacity:1;fill-rule:nonzero;stroke:none"/><path d="m131.02 6.46-1.625 4.903-.637-.218-.625-.22.625-1.882.418-1.258h-2.668l1.625-4.898.625.218.637.215-1.04 3.14zm0 0" style="fill:#00eecf;fill-opacity:1;fill-rule:nonzero;stroke:none"/><path d="m129.395 3.32-.637 1.883V3.105ZM131.02 6.46l-1.625 4.903-.637-.218V9.043l.418-1.258h-.418V6.461Zm0 0" style="fill:#00dcbf;fill-opacity:1;fill-rule:nonzero;stroke:none"/><path d="M137.465 13.14v7.297c0 4.801-3.89 8.692-8.707 8.692a8.691 8.691 0 0 1-8.696-8.692v-7.296h4.012v7.296c0 2.583 2.113 4.684 4.684 4.684 2.582 0 4.695-2.101 4.695-4.683V13.14zm0 0" style="fill:#ff6363;fill-opacity:1;fill-rule:nonzero;stroke:none"/><path d="M137.465 13.14v7.297c0 4.801-3.89 8.692-8.707 8.692V25.12c2.582 0 4.695-2.101 4.695-4.683V13.14zm0 0" style="fill:#ff3d47;fill-opacity:1;fill-rule:nonzero;stroke:none"/><path d="M187.992 6.496h6.492v3.926h-6.492zm0 0" style="fill:#deebf0;fill-opacity:1;fill-rule:nonzero;stroke:none"/><path d="M191.246 6.496h3.238v3.926h-3.238zm0 0" style="fill:#a6d1d7;fill-opacity:1;fill-rule:nonzero;stroke:none"/><path d="M185.387 9.129h11.699V28.66h-11.7zm0 0" style="fill:#00dcbf;fill-opacity:1;fill-rule:nonzero;stroke:none"/><path d="M191.246 9.129h5.84V28.66h-5.84zm0 0" style="fill:#00b0ab;fill-opacity:1;fill-rule:nonzero;stroke:none"/><path d="M193.191 13.02v1.312h-1.308v1.293h-1.293v-1.293h-1.309V13.02h1.309v-1.293h1.293v1.293zM189.281 24.719h3.906v1.308h-3.906zm0 0" style="fill:#66514c;fill-opacity:1;fill-rule:nonzero;stroke:none"/><path d="M187.992 16.93h6.492v2.597h-6.492zM187.992 20.824h6.492v2.602h-6.492zm0 0" style="fill:#deebf0;fill-opacity:1;fill-rule:nonzero;stroke:none"/><path d="M191.883 15.625h-.637v-3.898h.637v1.293h1.308v1.312h-1.308zM191.246 24.719h1.945v1.308h-1.945zm0 0" style="fill:#51423d;fill-opacity:1;fill-rule:nonzero;stroke:none"/><path d="M191.246 16.93h3.238v2.597h-3.238zM191.246 20.824h3.238v2.602h-3.238zm0 0" style="fill:#c5e1e6;fill-opacity:1;fill-rule:nonzero;stroke:none"/><path d="M230.93 7.066h1.375V9.82h-1.375zm0 0" style="fill:#51423d;fill-opacity:1;fill-rule:nonzero;stroke:none"/><path d="M231.617 7.066h.688V9.82h-.688zm0 0" style="fill:#3d302e;fill-opacity:1;fill-rule:nonzero;stroke:none"/><path d="M225.105 24.535h-2.449V23.16h3.828zm0 0" style="fill:#a6d1d7;fill-opacity:1;fill-rule:nonzero;stroke:none"/><path d="M240.563 24.535h-2.45l-1.379-1.375h3.829zm0 0" style="fill:#8cb8c5;fill-opacity:1;fill-rule:nonzero;stroke:none"/><path d="M226.668 23.16h9.887v1.375h-9.887zm0 0" style="fill:#a6d1d7;fill-opacity:1;fill-rule:nonzero;stroke:none"/><path d="M231.617 23.16h4.934v1.375h-4.934zm0 0" style="fill:#8cb8c5;fill-opacity:1;fill-rule:nonzero;stroke:none"/><path d="m229.004 13.258-4.805 11.883c-.52 1.425.219 3 1.645 3.52l5.492-13.794zm0 0" style="fill:#ff6363;fill-opacity:1;fill-rule:nonzero;stroke:none"/><path d="m239.04 25.152-4.806-11.894-2.449 1.34 5.59 14.062a2.768 2.768 0 0 0 1.664-3.508zm0 0" style="fill:#ff3d47;fill-opacity:1;fill-rule:nonzero;stroke:none"/><path d="M230.93 21.781h1.375v4.125h-1.375zm0 0" style="fill:#deebf0;fill-opacity:1;fill-rule:nonzero;stroke:none"/><path d="M229.555 3.625h4.129v4.129h-4.13zm0 0" style="fill:#705c57;fill-opacity:1;fill-rule:nonzero;stroke:none"/><path d="M231.617 21.781h.688v4.125h-.688zm0 0" style="fill:#c5e1e6;fill-opacity:1;fill-rule:nonzero;stroke:none"/><path d="M231.617 3.625h2.063v4.129h-2.063zm0 0" style="fill:#51423d;fill-opacity:1;fill-rule:nonzero;stroke:none"/><path d="M231.617 9.129a3.437 3.437 0 0 0-3.441 3.441 3.44 3.44 0 0 0 3.441 3.442 3.45 3.45 0 0 0 3.442-3.442 3.447 3.447 0 0 0-3.442-3.441zm0 0" style="fill:#deebf0;fill-opacity:1;fill-rule:nonzero;stroke:none"/><path d="M235.059 12.57a3.45 3.45 0 0 1-3.442 3.442V9.129a3.447 3.447 0 0 1 3.442 3.441zm0 0" style="fill:#c5e1e6;fill-opacity:1;fill-rule:nonzero;stroke:none"/><path d="M231.617 10.504c-1.14 0-2.062.922-2.062 2.066a2.063 2.063 0 0 0 4.125 0 2.059 2.059 0 0 0-2.063-2.066zm0 0" style="fill:#a6d1d7;fill-opacity:1;fill-rule:nonzero;stroke:none"/><path d="M231.617 14.633v-4.13c1.145 0 2.063.923 2.063 2.067a2.06 2.06 0 0 1-2.063 2.063zm0 0" style="fill:#8cb8c5;fill-opacity:1;fill-rule:nonzero;stroke:none"/><path d="M230.93 11.883h1.375v1.375h-1.375zm0 0" style="fill:#deebf0;fill-opacity:1;fill-rule:nonzero;stroke:none"/><path d="M231.617 11.883h.688v1.375h-.688zm0 0" style="fill:#c5e1e6;fill-opacity:1;fill-rule:nonzero;stroke:none"/><path d="M332.047 12.367h1.293v15.66h-1.293zm0 0" style="fill:#a6d1d7;fill-opacity:1;fill-rule:nonzero;stroke:none"/><path d="M339.848 8.477h1.293v5.218h-1.293zm0 0" style="fill:#ff9e00;fill-opacity:1;fill-rule:nonzero;stroke:none"/><path d="M325.57 13.66h1.293v5.219h-1.293zm0 0" style="fill:#fdbd00;fill-opacity:1;fill-rule:nonzero;stroke:none"/><path d="m322.516 15.555-.45-1.207 9.176-3.422.453 1.207zm0 0" style="fill:#a6d1d7;fill-opacity:1;fill-rule:nonzero;stroke:none"/><path d="M332.684 12.367h.652v15.66h-.652zM334.129 11.227l-.453-1.207 9.176-3.442.457 1.207zm0 0" style="fill:#8cb8c5;fill-opacity:1;fill-rule:nonzero;stroke:none"/><path d="M332.684 9.129a1.945 1.945 0 0 0-1.946 1.945c0 1.074.871 1.93 1.946 1.93a1.932 1.932 0 0 0 1.945-1.93 1.945 1.945 0 0 0-1.945-1.945zm0 0" style="fill:#deebf0;fill-opacity:1;fill-rule:nonzero;stroke:none"/><path d="M328.156 27.367h9.059v1.293h-9.059zm0 0" style="fill:#705c57;fill-opacity:1;fill-rule:nonzero;stroke:none"/><path d="M341.777 14.348c0 .703-.566 1.293-1.289 1.293-.703 0-1.293-.59-1.293-1.293s.59-1.293 1.293-1.293c.723 0 1.29.59 1.29 1.293zM326.223 18.223a1.945 1.945 0 0 0 0 3.89 1.936 1.936 0 0 0 1.933-1.945c0-1.074-.86-1.945-1.933-1.945zm0 2.586a.644.644 0 0 1-.653-.641c0-.352.285-.652.653-.652.351 0 .64.3.64.652 0 .352-.289.64-.64.64zm0 0" style="fill:#66514c;fill-opacity:1;fill-rule:nonzero;stroke:none"/><path d="M326.223 18.223v1.293c.351 0 .64.3.64.652 0 .352-.289.64-.64.64v1.305a1.936 1.936 0 0 0 1.933-1.945c0-1.074-.86-1.945-1.933-1.945zm0 0" style="fill:#51423d;fill-opacity:1;fill-rule:nonzero;stroke:none"/><path d="M330.738 25.992h-9.093l1.293-5.183h6.507zm0 0" style="fill:#705c57;fill-opacity:1;fill-rule:nonzero;stroke:none"/><path d="M330.738 25.992h-4.515V20.81h3.222zM341.777 14.348c0 .703-.566 1.293-1.289 1.293v-2.586c.723 0 1.29.59 1.29 1.293zm0 0" style="fill:#51423d;fill-opacity:1;fill-rule:nonzero;stroke:none"/><g clip-path="url(#c)" transform="translate(-3.316 -3.32)"><path d="M347.043 22.836h-6.477l1.305-5.168h3.879Zm0 0" style="fill:#705c57;fill-opacity:1;fill-rule:nonzero;stroke:none"/></g><g clip-path="url(#d)" transform="translate(-3.316 -3.32)"><path d="M347.043 22.836h-3.238v-5.168h1.945Zm0 0" style="fill:#51423d;fill-opacity:1;fill-rule:nonzero;stroke:none"/></g><path d="M332.684 13.004V9.129c1.074 0 1.945.871 1.945 1.945s-.871 1.93-1.945 1.93zm0 0" style="fill:#c5e1e6;fill-opacity:1;fill-rule:nonzero;stroke:none"/><path d="M332.684 27.367h4.53v1.293h-4.53zm0 0" style="fill:#51423d;fill-opacity:1;fill-rule:nonzero;stroke:none"/></svg>