<svg xmlns="http://www.w3.org/2000/svg" width="458.396" height="47.089" version="1.2" viewBox="0 0 343.797 35.316"><defs><clipPath id="a"><path d="M3.316 3.32H39V32H3.316Zm0 0"/></clipPath><clipPath id="b"><path d="M85 3.32h29v35.317H85Zm0 0"/></clipPath><clipPath id="c"><path d="M330 11h17.113v20H330Zm0 0"/></clipPath></defs><g clip-path="url(#a)" style="fill:#eceff4;fill-opacity:1" transform="translate(-3.316 -3.32)"><path d="M31.445 18.016c0 .699.063 1.207.13 1.773.124.695.886.953 1.577.953.192 0 .32-.258.32-.508-.128-.445-.32-1.46-.445-2.66 0-.316.125-.445.446-.445 1.074-.25 1.773-1.203 1.773-2.027 0-.883-.824-1.457-1.27-1.457-1.199 0-1.898.761-2.152 1.523-.125.25-.25.379-.566.379-1.711.062-3.106.254-4.438.57-.254 0-.379 0-.316-.316.508-2.344.824-4.438 1.52-5.637.316-.57-.446-.828-.82-.828-.192 0-.321.066-.509.191-1.965 1.586-4.5 4.371-6.59 8.68-.128.25-.253.383-.503.508-3.235 1.644-5.957 3.738-7.227 5.066-.441.508.57.7.828.7.25 0 .5-.067.758-.192 1.012-.887 2.785-2.027 4.559-3.039.253-.129.316-.066.19.188-1.71 4.37-3.23 8.171-7.98 8.171-2.027 0-3.484-1.074-4.18-1.773-.19-.191-.19-.254.126-.316 1.773-.125 2.66-1.27 2.66-2.665 0-1.39-1.332-2.718-3.102-2.718-1.902 0-2.918 1.707-2.918 3.734 0 3.106 3.293 5.195 7.985 5.195 6.648 0 12.097-3.863 14.566-12.476a.69.69 0 0 1 .512-.508c1.457-.383 2.976-.7 4.687-.762.38 0 .38.317.38.696zm6.27-14.63c-1.582 1.012-4.242 1.579-5.637 1.579-4.308 0-9.754-1.52-14.254-1.52-3.422 0-6.46.317-8.617 1.461-2.723 1.39-4.18 2.848-4.18 6.016 0 2.535 1.903 4.055 3.993 5.066 1.203.633 2.656.7 3.863.7 3.863 0 6.082-3.356 6.21-7.86 0-.187-.19-.375-.382-.375-.441 0-1.012.25-1.078.758-.442 4.055-2.153 6.02-4.688 6.02-1.582 0-4.242-1.141-4.242-4.184 0-3.48 2.473-6.332 7.16-6.332 4.18 0 8.676 3.926 14.82 3.926 2.727 0 5.004-1.707 6.907-3.485.316-.316.508-1.011.508-1.457 0-.254-.13-.504-.383-.312zm0 0" style="fill:#eceff4;fill-opacity:1;fill-rule:nonzero;stroke:none"/></g><path d="M59.09 27.492c-1.063 0-1.903-.125-2.535-.379a14.717 14.717 0 0 0-1.711-.445c-.219-.074-.348-.14-.375-.188 0-.035-.035-.093-.067-.19-.093-.204-.191-.536-.316-1.017-.098-.503-.176-1.011-.254-1.52-.047-.534-.094-.964-.125-1.265v-.57c.031-.25.188-.383.441-.383.207 0 .348.133.446.383.125.254.222.473.316.633.207.379.508.918.887 1.586a6.764 6.764 0 0 0 1.457 1.71c.586.473 1.297.696 2.152.696 1.27 0 2.172-.332 2.723-1.012.59-.668.89-1.414.89-2.218 0-.59-.16-1.141-.445-1.645-.254-.508-.726-.973-1.394-1.398l-3.164-2.024c-1.016-.633-1.84-1.348-2.473-2.156-.602-.836-.89-1.809-.89-2.914 0-1.047.32-1.918.952-2.598.633-.71 1.426-1.234 2.41-1.582a8.539 8.539 0 0 1 3.04-.57c.965 0 1.773.062 2.406.187.637.13 1.094.227 1.394.258.157 0 .282.059.38.188.078.129.144.254.19.379.079.476.126 1 .126 1.585.035.602.082 1.141.125 1.645 0 .129-.043.3-.125.508-.094.222-.223.316-.38.316-.175 0-.35-.078-.507-.25a1.199 1.199 0 0 1-.25-.574c-.258-.836-.621-1.488-1.078-1.961-.477-.46-.95-.777-1.457-.953-.473-.207-.871-.316-1.203-.316-.938 0-1.696.285-2.285.824-.598.508-.883 1.172-.883 1.965 0 .886.203 1.55.633 1.964.457.426 1.074.871 1.836 1.329l3.421 2.093c.84.551 1.52 1.23 2.028 2.028.539.757.824 1.644.824 2.656 0 .73-.285 1.488-.824 2.281-.555.809-1.364 1.508-2.406 2.09-1.063.539-2.38.824-3.93.824zM70.047 27.05c-.125 0-.297-.05-.504-.124-.219-.082-.316-.207-.316-.383 0-.207.097-.348.316-.441.207-.082.41-.145.637-.192.707-.129 1.343-.332 1.894-.637.54-.28.824-.789.824-1.52V12.669c0-.79-.187-1.426-.566-1.898-.352-.461-.937-.758-1.777-.887a2.832 2.832 0 0 1-.696-.32c-.218-.126-.316-.266-.316-.442 0-.156.098-.281.316-.379.203-.078.38-.129.504-.129.54 0 1.032.035 1.461.067.41 0 .824.027 1.203.062.41.047.883.063 1.391.063.465 0 .89-.016 1.27-.063a15 15 0 0 1 1.265-.062c.461-.032.953-.067 1.461-.067.125 0 .281.051.504.13.207.097.316.222.316.378 0 .176-.109.316-.316.441a3.208 3.208 0 0 1-.695.32c-.555.095-1 .255-1.332.505a1.931 1.931 0 0 0-.762.886c-.172.383-.25.856-.25 1.395v11.086c0 .73.266 1.238.824 1.52.54.304 1.172.507 1.899.636.207.047.41.11.632.192.207.093.317.234.317.441 0 .176-.11.3-.317.383-.222.074-.379.125-.504.125-.507 0-1-.031-1.457-.067-.43-.043-.87-.074-1.336-.125-.472-.03-.98-.066-1.519-.066-.598 0-1.121.035-1.582.066-.43.051-.871.082-1.328.125-.43.036-.922.067-1.461.067zm0 0" style="fill:#eceff4;fill-opacity:1;fill-rule:nonzero;stroke:none"/><g clip-path="url(#b)" style="fill:#eceff4;fill-opacity:1" transform="translate(-3.316 -3.32)"><path d="M91.738 31.258c2.594 0 4.813 2.344 7.032 4.496 2.027 1.902 4.812 2.914 7.476 2.914 3.863 0 5.637-1.457 7.348-4.242.125-.192.062-.383-.13-.383-.632 0-1.581.508-2.089.95-1.074 1.144-2.406 1.777-2.977 1.777-2.218 0-3.546-2.344-5.957-4.372a9.858 9.858 0 0 0-2.027-1.27c-.125-.062-.633-.25-.187-.316 7.285-1.39 11.402-8.425 11.402-15.582 0-4.75-4.246-7.605-7.352-7.605-4.496 0-6.71 3.93-6.71 7.984 0 2.598 1.394 3.614 3.038 4.625.192.125.442.067.442-.125 0-.636-.692-1.46-1.074-2.41-.192-.441-.317-.887-.317-1.773 0-2.66 1.203-6.649 3.61-6.649 2.343 0 4.117 3.797 4.117 6.778 0 4.62-.762 8.168-3.48 10.644-1.653 1.52-3.423 2.848-6.465 2.848-2.848 0-5.575-3.164-5.575-7.094 0-8.617 5.45-17.488 12.73-17.488 2.028 0 4.63 1.523 6.024 3.422.317.441 1.012.824 1.578.824.133 0 .258-.125.192-.383-.633-2.848-4.114-5.441-8.426-5.441-10.703 0-18.117 7.976-18.117 17.988 0 3.672 2.219 6.586 5.133 8.172.253.125.191.191 0 .316-1.457.442-2.915 1.649-3.93 2.914-.375.508.574.7.89.7.254 0 .57-.067.762-.254 1.074-1.016 2.278-1.965 3.04-1.965zm0 0" style="fill:#eceff4;fill-opacity:1;fill-rule:nonzero;stroke:none"/></g><path d="M133.543 27.05c-.129 0-.305-.05-.512-.124-.218-.082-.316-.207-.316-.383 0-.207.098-.348.316-.441.207-.082.414-.145.637-.192.715-.129 1.348-.332 1.902-.637.535-.28.825-.789.825-1.52V12.669c0-.79-.192-1.426-.575-1.898-.347-.461-.93-.758-1.773-.887a2.767 2.767 0 0 1-.695-.32c-.223-.126-.32-.266-.32-.442 0-.156.097-.281.32-.379.203-.078.378-.129.507-.129.536 0 1.032.035 1.457.067.414 0 .82.027 1.204.062.41.047.886.063 1.394.063.457 0 .883-.016 1.266-.063.414-.035.84-.062 1.27-.062.456-.032.948-.067 1.452-.067.125 0 .286.051.508.13.207.097.317.222.317.378 0 .176-.11.316-.317.441a3.125 3.125 0 0 1-.695.32c-.559.095-1 .255-1.332.505a1.9 1.9 0 0 0-.758.886c-.176.383-.254.856-.254 1.395v11.086c0 .73.266 1.238.82 1.52.54.304 1.172.507 1.903.636.207.047.41.11.633.192.207.093.316.234.316.441 0 .176-.11.3-.316.383-.223.074-.383.125-.508.125-.504 0-.996-.031-1.453-.067-.43-.043-.875-.074-1.332-.125-.477-.03-.985-.066-1.52-.066-.605 0-1.129.035-1.586.066-.426.051-.871.082-1.328.125-.43.036-.922.067-1.457.067zM158.371 27.617c-.3 0-.566-.25-.82-.758a111.747 111.747 0 0 1-2.723-6.207 133.532 133.532 0 0 0-2.914-6.968c-.098-.207-.176-.317-.254-.317-.047 0-.094.11-.129.317-.047.757-.11 1.695-.187 2.785a133.135 133.135 0 0 0-.254 3.488 76.9 76.9 0 0 0-.192 3.797c0 .348.063.762.192 1.27.125.472.523.757 1.2.886.257.047.48.11.698.192.207.093.317.234.317.441 0 .176-.11.3-.317.383-.218.074-.379.125-.508.125-.507 0-.914-.031-1.203-.067-.25-.043-.492-.074-.695-.125a4.601 4.601 0 0 0-.82-.066c-.383 0-.7.035-.953.066-.223.051-.477.082-.758.125-.305.036-.7.067-1.203.067-.13 0-.301-.051-.508-.125-.223-.082-.317-.207-.317-.383 0-.207.094-.348.317-.441.207-.082.41-.145.633-.192.71-.129 1.218-.394 1.52-.82.331-.465.523-.906.57-1.336.16-.758.316-1.613.44-2.594.161-1.015.317-2.043.446-3.105.13-1.047.223-2.043.313-2.977.133-.922.207-1.726.258-2.41.082-.664.125-1.137.125-1.395 0-.406-.192-.71-.567-.886-.383-.203-1-.375-1.84-.504a2.767 2.767 0 0 1-.695-.32c-.176-.126-.254-.266-.254-.442 0-.156.078-.281.254-.379.203-.078.379-.129.508-.129.535 0 .914.035 1.137.067.207 0 .41.027.632.062h2.153c.16-.035.382-.062.636-.062h.317a.32.32 0 0 1 .191.062l5.953 13.871c.13.301.223.477.317.508.129 0 .222-.125.32-.379.79-1.855 1.582-3.676 2.344-5.445a483.315 483.315 0 0 0 2.531-6.082c.16-.465.332-.969.508-1.52.207-.539.379-.824.508-.824l1.52-.066c.714 0 1.39-.016 2.027-.063.664-.078 1.234-.129 1.71-.129.16 0 .333.051.508.13.203.097.317.222.317.378 0 .176-.114.316-.317.441a2.028 2.028 0 0 1-.636.32c-.856.13-1.457.255-1.836.38-.352.125-.508.445-.508.953v5.32c.031.805.066 1.617.066 2.406.031.758.074 1.57.125 2.41.031.856.078 1.711.125 2.594.031.633.254 1.11.637 1.395.41.25.965.441 1.644.57.208.047.41.11.633.192.258.093.383.234.383.441 0 .176-.11.3-.316.383-.223.074-.383.125-.508.125-.508 0-.953-.031-1.328-.067-.383-.043-.766-.074-1.145-.125a12.87 12.87 0 0 0-1.203-.066c-.504 0-.984.035-1.39.066-.43.051-.856.082-1.27.125-.383.036-.856.067-1.395.067-.125 0-.3-.051-.504-.125-.222-.082-.32-.207-.32-.383 0-.207.098-.348.32-.441.204-.082.41-.145.633-.192.715-.129 1.203-.32 1.457-.57.282-.25.442-.664.442-1.266v-6.652c0-1.094-.031-2.285-.063-3.547-.047-.332-.125-.477-.254-.45-.093.052-.187.192-.316.45l-5.766 13.11a1.547 1.547 0 0 1-.379.445c-.097.129-.187.187-.32.187zM199.82 27.492c-1.441 0-2.816-.234-4.117-.699a11.12 11.12 0 0 1-3.422-1.961 9.484 9.484 0 0 1-2.406-2.977c-.602-1.171-.887-2.488-.887-3.925 0-1.395.317-2.676.95-3.868a9.902 9.902 0 0 1 2.535-3.039 10.855 10.855 0 0 1 3.609-1.902 12.947 12.947 0 0 1 4.184-.695c.664 0 1.296.031 1.898.062.586.047 1.14.125 1.648.254.536.098 1.075.223 1.583.38.285.093.472.175.57.253a.693.693 0 0 1 .254.379c.129.383.207.937.254 1.648.078.727.125 1.317.125 1.774 0 .347-.094.57-.25.699-.13.094-.29.094-.446 0-.175-.129-.316-.332-.441-.633-.352-.969-.766-1.71-1.27-2.219-.476-.507-1.058-.84-1.773-1.011-.73-.207-1.633-.317-2.723-.317-1.363 0-2.566.36-3.613 1.075-1.059.68-1.898 1.617-2.535 2.789-.598 1.136-.883 2.39-.883 3.738 0 1.488.316 2.894.95 4.238.632 1.363 1.519 2.457 2.66 3.297 1.171.856 2.53 1.27 4.054 1.27.664 0 1.36-.13 2.09-.383a8.75 8.75 0 0 0 2.027-1.14 4.549 4.549 0 0 0 1.395-1.837c.16-.379.41-.601.758-.695.382-.129.574.027.574.441 0 .125-.067.383-.192.758a8.48 8.48 0 0 1-.445 1.207c-.176.43-.316.793-.441 1.078a1.509 1.509 0 0 1-.317.504 2.86 2.86 0 0 1-.507.383c-.606.25-1.43.492-2.47.695-1.062.254-2.062.38-2.98.38zM242.375 27.617c-.3 0-.566-.25-.824-.758a111.747 111.747 0 0 1-2.723-6.207 133.54 133.54 0 0 0-2.914-6.968c-.094-.207-.172-.317-.254-.317-.047 0-.094.11-.125.317-.05.757-.113 1.695-.191 2.785a117.8 117.8 0 0 0-.254 3.488 72.492 72.492 0 0 0-.188 3.797c0 .348.063.762.188 1.27.129.472.523.757 1.203.886.254.047.473.11.695.192.207.093.317.234.317.441 0 .176-.11.3-.317.383-.222.074-.379.125-.504.125-.507 0-.918-.031-1.207-.067-.25-.043-.488-.074-.695-.125a4.617 4.617 0 0 0-.824-.066c-.38 0-.695.035-.95.066-.222.051-.472.082-.761.125-.3.036-.695.067-1.2.067-.128 0-.304-.051-.511-.125-.219-.082-.316-.207-.316-.383 0-.207.097-.348.316-.441.207-.082.414-.145.637-.192.715-.129 1.222-.394 1.52-.82.335-.465.523-.906.57-1.336.156-.758.316-1.613.445-2.594.156-1.015.316-2.043.441-3.105.125-1.047.223-2.043.317-2.977.125-.922.207-1.726.254-2.41.078-.664.128-1.137.128-1.395 0-.406-.191-.71-.574-.886-.375-.203-.996-.375-1.836-.504a2.832 2.832 0 0 1-.695-.32c-.176-.126-.254-.266-.254-.442 0-.156.078-.281.254-.379.203-.078.379-.129.504-.129.539 0 .922.035 1.144.067.204 0 .41.027.633.062h2.153c.156-.035.382-.062.632-.062h.32c.079 0 .141.027.188.062l5.953 13.871c.13.301.223.477.317.508.125 0 .222-.125.316-.379.797-1.855 1.586-3.676 2.348-5.445a483.315 483.315 0 0 0 2.531-6.082c.16-.465.336-.969.512-1.52.203-.539.375-.824.5-.824l1.527-.066c.707 0 1.39-.016 2.027-.063.665-.078 1.23-.129 1.707-.129.157 0 .333.051.504.13.207.097.317.222.317.378 0 .176-.11.316-.317.441a1.925 1.925 0 0 1-.632.32c-.856.13-1.454.255-1.836.38-.348.125-.508.445-.508.953v5.32c.035.805.066 1.617.066 2.406.028.758.078 1.57.125 2.41.035.856.078 1.711.125 2.594.035.633.258 1.11.633 1.395.414.25.969.441 1.652.57.204.047.41.11.633.192.25.093.38.234.38.441 0 .176-.114.3-.321.383-.219.074-.375.125-.5.125a14.3 14.3 0 0 1-1.336-.067c-.375-.043-.758-.074-1.14-.125a12.87 12.87 0 0 0-1.204-.066c-.508 0-.98.035-1.39.066-.43.051-.856.082-1.27.125a15.1 15.1 0 0 1-1.395.067c-.125 0-.3-.051-.507-.125-.22-.082-.313-.207-.313-.383 0-.207.094-.348.313-.441a3.94 3.94 0 0 1 .632-.192c.715-.129 1.207-.32 1.461-.57.286-.25.442-.664.442-1.266v-6.652c0-1.094-.031-2.285-.059-3.547-.05-.332-.133-.477-.258-.45-.093.052-.191.192-.316.45l-5.766 13.11a1.49 1.49 0 0 1-.379.445c-.093.129-.191.187-.316.187zM259.797 27.05c-.125 0-.3-.05-.508-.124-.223-.082-.316-.207-.316-.383 0-.207.093-.348.316-.441a3.94 3.94 0 0 1 .633-.192c.715-.129 1.344-.332 1.902-.637.54-.28.82-.789.82-1.52V12.669c0-.79-.187-1.426-.566-1.898-.348-.461-.937-.758-1.777-.887a2.9 2.9 0 0 1-.696-.32c-.218-.126-.316-.266-.316-.442 0-.156.098-.281.316-.379.207-.078.383-.129.508-.129.54 0 1.012.035 1.395.067.379 0 .73.027 1.078.062.375.047.789.063 1.266.063h5.32c.84-.032 1.598-.063 2.281-.063.711-.035 1.297-.062 1.774-.062.078 0 .16.027.253.062.125.047.188.113.188.188.082 1.015.16 1.82.254 2.41.129.601.191 1.047.191 1.328 0 .094-.047.191-.129.316-.047.13-.109.192-.187.192-.129 0-.285-.063-.442-.192a1.214 1.214 0 0 1-.316-.504c-.3-.667-.621-1.238-.953-1.71-.3-.461-.809-.7-1.524-.7h-3.921c-.13 0-.352.067-.637.192-.254.097-.379.254-.379.508v5.382c0 .13.031.348.125.637.129.25.227.375.316.375h3.235c.406 0 .726-.14.945-.441.207-.282.383-.664.508-1.137.082-.133.16-.273.258-.45.125-.156.25-.25.379-.25.16 0 .285.067.379.192.078.125.125.25.125.375-.047.352-.094.746-.125 1.207v1.078c0 .348.015.696.062 1.078.035.375.063.758.063 1.141.03.09.015.223-.063.379-.098.176-.187.25-.316.25-.254 0-.43-.125-.504-.379-.098-.285-.176-.477-.258-.566-.094-.414-.281-.7-.567-.825-.253-.16-.492-.273-.699-.32-.43-.027-.886-.062-1.394-.062h-1.453c-.383 0-.664.05-.829.125-.125.05-.187.257-.187.632v4.563c0 .73.062 1.187.187 1.394.165.176.54.254 1.145.254h4.055c.836 0 1.535-.222 2.086-.695.59-.508 1.015-1.047 1.27-1.644a1.38 1.38 0 0 1 .19-.32c.079-.161.208-.255.376-.255.207 0 .336.094.382.254.032.13.063.254.063.38-.094.554-.188 1.14-.313 1.776a29.304 29.304 0 0 1-.382 1.645c-.047.094-.16.191-.317.316a.696.696 0 0 1-.383.125c-1.011 0-1.992-.03-2.914-.058h-2.66a60.732 60.732 0 0 0-2.469-.067c-.761-.03-1.504-.066-2.218-.066-.473 0-.918.035-1.328.066-.383.051-.793.082-1.204.125-.382.036-.855.067-1.394.067zM296.918 27.492c-.176 0-.363-.062-.566-.191a2.756 2.756 0 0 1-.633-.375 2.413 2.413 0 0 1-.512-.508l-10.008-12.355a4.45 4.45 0 0 0-.633-.504c-.171-.16-.3-.258-.378-.258-.13 0-.223.097-.258.258v7.601c.035.98.097 1.836.191 2.594.035.73.207 1.238.508 1.52.332.304.84.507 1.52.636.206.047.414.11.632.192.254.093.383.234.383.441 0 .176-.11.3-.316.383-.223.074-.383.125-.508.125-.809 0-1.395-.051-1.774-.125-.378-.082-.886-.133-1.523-.133-.676 0-1.25.05-1.707.133-.43.074-1.012.125-1.773.125-.176 0-.368-.051-.575-.125-.168-.082-.25-.207-.25-.383 0-.207.094-.348.317-.441a3.94 3.94 0 0 1 .633-.192c.71-.129 1.269-.332 1.648-.637.41-.28.648-.789.695-1.52.031-.25.063-.71.063-1.39.035-.715.066-1.52.066-2.406.031-.922.059-1.871.059-2.852.035-1.015.066-1.933.066-2.789.031-.84.067-1.539.067-2.09 0-.206-.176-.476-.508-.824a5.581 5.581 0 0 0-1.145-.949c-.472-.285-.933-.476-1.39-.57a3.04 3.04 0 0 1-.637-.32c-.219-.126-.317-.266-.317-.442 0-.156.098-.281.317-.379.207-.078.383-.129.508-.129.382 0 .777.035 1.203.067.414 0 .84.027 1.27.062.456 0 .917.031 1.39.063h1.46a.63.63 0 0 1 .442.191c.157.125.317.25.446.379l9.816 11.785c.031.094.098.192.191.317.13.125.223.191.32.191.028 0 .075-.035.126-.133.03-.074.058-.203.058-.375l-.183-8.426c0-.793-.176-1.425-.512-1.902-.344-.508-.95-.82-1.836-.95a3.11 3.11 0 0 1-.633-.32c-.222-.124-.316-.265-.316-.44 0-.157.094-.282.316-.38.207-.078.38-.129.508-.129.54 0 .965.035 1.266.067.336 0 .648.027.949.062.332.047.758.063 1.27.063.456 0 .824-.016 1.074-.063.257-.035.507-.062.761-.062.286-.032.696-.067 1.207-.067.125 0 .282.051.5.13.207.097.32.222.32.378 0 .176-.113.317-.32.442a3.858 3.858 0 0 1-.632.32c-.856.129-1.422.441-1.711.949-.25.477-.375 1.11-.375 1.902v13.368c0 .378-.067.691-.192.949-.097.285-.238.441-.445.441zm0 0" style="fill:#eceff4;fill-opacity:1;fill-rule:nonzero;stroke:none"/><g clip-path="url(#c)" style="fill:#eceff4;fill-opacity:1" transform="translate(-3.316 -3.32)"><path d="M331.531 30.371c-.129 0-.3-.05-.508-.125-.222-.082-.316-.207-.316-.383 0-.207.094-.347.316-.441a3.94 3.94 0 0 1 .633-.192c.711-.128 1.344-.332 1.899-.636.543-.282.824-.79.824-1.52V15.988c0-.789-.192-1.425-.567-1.898-.347-.461-.937-.758-1.777-.887a2.9 2.9 0 0 1-.695-.32c-.219-.125-.317-.266-.317-.442 0-.156.098-.28.317-.379.207-.078.379-.128.504-.128.543 0 1.015.035 1.398.066.38 0 .727.027 1.078.063.375.046.79.062 1.262.062h5.324c.84-.031 1.598-.062 2.282-.062.71-.036 1.296-.063 1.773-.063.078 0 .16.027.25.063.129.046.191.113.191.187.082 1.016.16 1.82.258 2.41.125.602.184 1.047.184 1.328 0 .094-.043.192-.125.317-.047.129-.11.191-.192.191-.125 0-.28-.062-.441-.191a1.299 1.299 0 0 1-.316-.504 9.89 9.89 0 0 0-.954-1.711c-.296-.461-.804-.7-1.52-.7h-3.921c-.133 0-.352.067-.637.192-.254.098-.379.254-.379.508v5.383c0 .129.028.347.125.636.125.25.223.375.317.375h3.23c.41 0 .73-.14.95-.441.207-.281.382-.664.507-1.137.082-.133.157-.273.254-.449.13-.156.254-.25.38-.25.16 0 .288.066.378.191.082.125.133.25.133.375-.051.352-.098.747-.133 1.207v1.079c0 .347.02.695.066 1.078.032.375.067.758.067 1.14.027.09.012.223-.067.38-.097.175-.191.25-.316.25-.254 0-.43-.126-.508-.38-.098-.285-.172-.476-.254-.566-.093-.414-.285-.7-.566-.824-.258-.16-.492-.274-.7-.32-.429-.028-.886-.063-1.394-.063h-1.453c-.383 0-.668.05-.824.125-.13.05-.192.258-.192.633v4.562c0 .73.063 1.188.192 1.395.156.176.535.254 1.136.254h4.055c.84 0 1.54-.223 2.09-.696.586-.507 1.012-1.047 1.27-1.644a1.38 1.38 0 0 1 .191-.32.405.405 0 0 1 .379-.254c.203 0 .332.093.379.254.031.128.062.253.062.378-.097.555-.191 1.141-.316 1.778a23.923 23.923 0 0 1-.379 1.644c-.05.094-.16.192-.316.317a.706.706 0 0 1-.383.125c-1.012 0-1.992-.032-2.914-.059h-2.66a60.92 60.92 0 0 0-2.47-.066c-.761-.032-1.503-.067-2.218-.067-.473 0-.918.035-1.328.067-.383.05-.797.082-1.203.125-.383.035-.856.066-1.395.066zm0 0" style="fill:#eceff4;fill-opacity:1;fill-rule:nonzero;stroke:none"/></g><path d="m49.633 20.54-2.723 1.757-2.058-.57-.618-.11-5.402-1.078 2.285-1.754 2.043.457zm0 0" style="fill:#ff6363;fill-opacity:1;fill-rule:nonzero;stroke:none"/><path d="m44.852 21.727-.618-.11v-2.152l5.399 1.074-2.723 1.758zm0 0" style="fill:#ff3d47;fill-opacity:1;fill-rule:nonzero;stroke:none"/><path d="m49.633 15.137-2.184.988-2.597.441h-.012l-.606-.082-5.402-.804 2.535-1.84 2.266.398.601.094zm0 0" style="fill:#ff6363;fill-opacity:1;fill-rule:nonzero;stroke:none"/><path d="m44.84 16.566-.606-.082v-2.152l5.399.805-2.184.988-2.597.441zm0 0" style="fill:#ff3d47;fill-opacity:1;fill-rule:nonzero;stroke:none"/><path d="M49.633 20.54v2.155l-10.801 2.707V23.23l5.402-1.343.618-.16zm0 0" style="fill:#ff8597;fill-opacity:1;fill-rule:nonzero;stroke:none"/><path d="m44.852 21.727 4.78-1.188v2.156l-5.398 1.348v-2.156zm0 0" style="fill:#ff6363;fill-opacity:1;fill-rule:nonzero;stroke:none"/><path d="M49.633 15.137v2.16l-10.801 3.242v-2.168l5.402-1.613.606-.192h.012zm0 0" style="fill:#ff8597;fill-opacity:1;fill-rule:nonzero;stroke:none"/><path d="m44.852 16.566 4.78-1.43v2.16l-5.398 1.614v-2.152l.606-.192zm0 0" style="fill:#ff6363;fill-opacity:1;fill-rule:nonzero;stroke:none"/><path d="M49.633 10.277v2.153l-5.399 1.617-.601.191-4.801 1.442v-2.172zm0 0" style="fill:#ff8597;fill-opacity:1;fill-rule:nonzero;stroke:none"/><path d="M49.633 10.277v2.153l-5.399 1.617v-2.152zm0 0" style="fill:#ff6363;fill-opacity:1;fill-rule:nonzero;stroke:none"/><path d="M50.73 8.613v1.125c0 .586-.492 1.078-1.097 1.078H38.832a1.093 1.093 0 0 1-1.078-1.078V8.613zm0 0" style="fill:#705c57;fill-opacity:1;fill-rule:nonzero;stroke:none"/><path d="M50.73 8.613v1.125c0 .586-.492 1.078-1.097 1.078h-5.399V8.613Zm0 0" style="fill:#51423d;fill-opacity:1;fill-rule:nonzero;stroke:none"/><path d="M50.73 25.938v1.113H37.754v-1.113c0-.598.496-1.075 1.078-1.075h10.8c.606 0 1.098.477 1.098 1.075zm0 0" style="fill:#705c57;fill-opacity:1;fill-rule:nonzero;stroke:none"/><path d="M50.73 25.938v1.113h-6.496v-2.188h5.399c.605 0 1.097.477 1.097 1.075zm0 0" style="fill:#51423d;fill-opacity:1;fill-rule:nonzero;stroke:none"/><path d="M129.742 8.613h-3.789v3.79l1.887 1.265 1.902-1.266zm0 0" style="fill:#c5e1e6;fill-opacity:1;fill-rule:nonzero;stroke:none"/><path d="M117.102 8.613h-3.786v3.79l1.903 1.265 1.883-1.266zm0 0" style="fill:#deebf0;fill-opacity:1;fill-rule:nonzero;stroke:none"/><path d="m123.66 6.098-1.539 4.625-.598-.207-.59-.207.59-1.774.391-1.187h-2.516l1.536-4.625.59.207.597.203-.98 2.965zm0 0" style="fill:#00eecf;fill-opacity:1;fill-rule:nonzero;stroke:none"/><path d="m122.121 3.133-.598 1.777V2.93ZM123.66 6.098l-1.539 4.625-.598-.207v-1.98l.391-1.188h-.39v-1.25zm0 0" style="fill:#00dcbf;fill-opacity:1;fill-rule:nonzero;stroke:none"/><path d="M129.742 12.402v6.887c0 4.531-3.676 8.203-8.219 8.203a8.203 8.203 0 0 1-8.207-8.203v-6.887h3.786v6.887a4.435 4.435 0 0 0 4.421 4.422c2.434 0 4.43-1.984 4.43-4.422v-6.887zm0 0" style="fill:#ff6363;fill-opacity:1;fill-rule:nonzero;stroke:none"/><path d="M129.742 12.402v6.887c0 4.531-3.676 8.203-8.219 8.203v-3.781c2.434 0 4.43-1.984 4.43-4.422v-6.887zm0 0" style="fill:#ff3d47;fill-opacity:1;fill-rule:nonzero;stroke:none"/><path d="M177.426 6.129h6.133v3.707h-6.133zm0 0" style="fill:#deebf0;fill-opacity:1;fill-rule:nonzero;stroke:none"/><path d="M180.5 6.129h3.059v3.707H180.5Zm0 0" style="fill:#a6d1d7;fill-opacity:1;fill-rule:nonzero;stroke:none"/><path d="M174.973 8.613h11.039v18.438h-11.04zm0 0" style="fill:#00dcbf;fill-opacity:1;fill-rule:nonzero;stroke:none"/><path d="M180.5 8.613h5.512v18.438H180.5Zm0 0" style="fill:#00b0ab;fill-opacity:1;fill-rule:nonzero;stroke:none"/><path d="M182.336 12.29v1.233h-1.234v1.223h-1.223v-1.223h-1.234V12.29h1.234v-1.223h1.223v1.223zM178.645 23.328h3.687v1.238h-3.687zm0 0" style="fill:#66514c;fill-opacity:1;fill-rule:nonzero;stroke:none"/><path d="M177.426 15.977h6.133v2.453h-6.133zM177.426 19.656h6.133v2.453h-6.133zm0 0" style="fill:#deebf0;fill-opacity:1;fill-rule:nonzero;stroke:none"/><path d="M181.102 14.746h-.602v-3.68h.602v1.223h1.234v1.234h-1.234zM180.5 23.328h1.836v1.238H180.5Zm0 0" style="fill:#51423d;fill-opacity:1;fill-rule:nonzero;stroke:none"/><path d="M180.5 15.977h3.059v2.453H180.5ZM180.5 19.656h3.059v2.453H180.5Zm0 0" style="fill:#c5e1e6;fill-opacity:1;fill-rule:nonzero;stroke:none"/><path d="M217.953 6.668h1.3V9.27h-1.3zm0 0" style="fill:#51423d;fill-opacity:1;fill-rule:nonzero;stroke:none"/><path d="M218.605 6.668h.649V9.27h-.649zm0 0" style="fill:#3d302e;fill-opacity:1;fill-rule:nonzero;stroke:none"/><path d="M212.457 23.152h-2.312v-1.297h3.613zm0 0" style="fill:#a6d1d7;fill-opacity:1;fill-rule:nonzero;stroke:none"/><path d="M227.043 23.152h-2.309l-1.3-1.297h3.609zm0 0" style="fill:#8cb8c5;fill-opacity:1;fill-rule:nonzero;stroke:none"/><path d="M213.934 21.855h9.328v1.297h-9.328zm0 0" style="fill:#a6d1d7;fill-opacity:1;fill-rule:nonzero;stroke:none"/><path d="M218.605 21.855h4.653v1.297h-4.653zm0 0" style="fill:#8cb8c5;fill-opacity:1;fill-rule:nonzero;stroke:none"/><path d="m216.133 12.512-4.531 11.215a2.594 2.594 0 0 0 1.554 3.324l5.18-13.02zm0 0" style="fill:#ff6363;fill-opacity:1;fill-rule:nonzero;stroke:none"/><path d="m225.605 23.738-4.53-11.226-2.313 1.265 5.273 13.274a2.616 2.616 0 0 0 1.57-3.313zm0 0" style="fill:#ff3d47;fill-opacity:1;fill-rule:nonzero;stroke:none"/><path d="M217.953 20.555h1.3v3.898h-1.3zm0 0" style="fill:#deebf0;fill-opacity:1;fill-rule:nonzero;stroke:none"/><path d="M216.656 3.422h3.899v3.894h-3.899zm0 0" style="fill:#705c57;fill-opacity:1;fill-rule:nonzero;stroke:none"/><path d="M218.605 20.555h.649v3.898h-.649zm0 0" style="fill:#c5e1e6;fill-opacity:1;fill-rule:nonzero;stroke:none"/><path d="M218.605 3.422h1.946v3.894h-1.946zm0 0" style="fill:#51423d;fill-opacity:1;fill-rule:nonzero;stroke:none"/><path d="M218.605 8.613a3.245 3.245 0 0 0-3.25 3.25 3.244 3.244 0 0 0 3.25 3.246 3.253 3.253 0 0 0 3.247-3.246c0-1.793-1.461-3.25-3.247-3.25zm0 0" style="fill:#deebf0;fill-opacity:1;fill-rule:nonzero;stroke:none"/><path d="M221.852 11.863c0 1.79-1.461 3.246-3.247 3.246V8.613a3.254 3.254 0 0 1 3.247 3.25zm0 0" style="fill:#c5e1e6;fill-opacity:1;fill-rule:nonzero;stroke:none"/><path d="M218.605 9.914c-1.082 0-1.949.871-1.949 1.95 0 1.073.867 1.945 1.95 1.945a1.943 1.943 0 0 0 1.945-1.946c0-1.078-.867-1.949-1.946-1.949zm0 0" style="fill:#a6d1d7;fill-opacity:1;fill-rule:nonzero;stroke:none"/><path d="M218.605 13.809V9.914c1.079 0 1.946.871 1.946 1.95a1.943 1.943 0 0 1-1.946 1.945zm0 0" style="fill:#8cb8c5;fill-opacity:1;fill-rule:nonzero;stroke:none"/><path d="M217.953 11.215h1.3v1.297h-1.3zm0 0" style="fill:#deebf0;fill-opacity:1;fill-rule:nonzero;stroke:none"/><path d="M218.605 11.215h.649v1.297h-.649zm0 0" style="fill:#c5e1e6;fill-opacity:1;fill-rule:nonzero;stroke:none"/><path d="M313.39 11.672h1.22v14.777h-1.22zm0 0" style="fill:#a6d1d7;fill-opacity:1;fill-rule:nonzero;stroke:none"/><path d="M320.754 8h1.219v4.926h-1.22zm0 0" style="fill:#ff9e00;fill-opacity:1;fill-rule:nonzero;stroke:none"/><path d="M307.277 12.89h1.22v4.93h-1.22zm0 0" style="fill:#fdbd00;fill-opacity:1;fill-rule:nonzero;stroke:none"/><path d="m304.395 14.68-.426-1.137 8.66-3.234.43 1.14zm0 0" style="fill:#a6d1d7;fill-opacity:1;fill-rule:nonzero;stroke:none"/><path d="M313.992 11.672h.613v14.777h-.613zM315.352 10.594l-.426-1.14 8.66-3.247.43 1.14zm0 0" style="fill:#8cb8c5;fill-opacity:1;fill-rule:nonzero;stroke:none"/><path d="M313.992 8.613a1.84 1.84 0 0 0-1.84 1.84c0 1.012.825 1.82 1.84 1.82a1.826 1.826 0 0 0 1.836-1.82 1.84 1.84 0 0 0-1.836-1.84zm0 0" style="fill:#deebf0;fill-opacity:1;fill-rule:nonzero;stroke:none"/><path d="M309.719 25.828h8.55v1.223h-8.55zm0 0" style="fill:#705c57;fill-opacity:1;fill-rule:nonzero;stroke:none"/><path d="M322.574 13.543c0 .664-.535 1.219-1.219 1.219a1.23 1.23 0 0 1-1.218-1.219c0-.668.554-1.223 1.218-1.223.684 0 1.22.555 1.22 1.223zM307.895 17.2c-1.016 0-1.84.82-1.84 1.835a1.84 1.84 0 0 0 1.84 1.836 1.829 1.829 0 0 0 1.824-1.836 1.826 1.826 0 0 0-1.824-1.836zm0 2.44a.606.606 0 0 1-.618-.605c0-.332.266-.617.618-.617.332 0 .601.285.601.617s-.27.606-.601.606zm0 0" style="fill:#66514c;fill-opacity:1;fill-rule:nonzero;stroke:none"/><path d="M307.895 17.2v1.218c.332 0 .601.285.601.617s-.27.606-.601.606v1.23a1.829 1.829 0 0 0 1.824-1.836 1.826 1.826 0 0 0-1.824-1.836zm0 0" style="fill:#51423d;fill-opacity:1;fill-rule:nonzero;stroke:none"/><path d="M312.152 24.531h-8.582l1.223-4.89h6.14zm0 0" style="fill:#705c57;fill-opacity:1;fill-rule:nonzero;stroke:none"/><path d="M312.152 24.531h-4.257v-4.89h3.039zM322.574 13.543c0 .664-.535 1.219-1.219 1.219V12.32c.684 0 1.22.555 1.22 1.223zm0 0" style="fill:#51423d;fill-opacity:1;fill-rule:nonzero;stroke:none"/><path d="M324.414 18.418h-6.113l1.23-4.875h3.664zm0 0" style="fill:#705c57;fill-opacity:1;fill-rule:nonzero;stroke:none"/><path d="M324.414 18.418h-3.059v-4.875h1.84zm0 0" style="fill:#51423d;fill-opacity:1;fill-rule:nonzero;stroke:none"/><path d="M313.992 12.273v-3.66a1.84 1.84 0 0 1 1.836 1.84c0 1.012-.824 1.82-1.836 1.82zm0 0" style="fill:#c5e1e6;fill-opacity:1;fill-rule:nonzero;stroke:none"/><path d="M313.992 25.828h4.278v1.223h-4.278zm0 0" style="fill:#51423d;fill-opacity:1;fill-rule:nonzero;stroke:none"/></svg>