<svg xmlns="http://www.w3.org/2000/svg" xmlns:xlink="http://www.w3.org/1999/xlink" width="377.953" height="377.953" version="1.2" viewBox="0 0 283.465 283.465"><defs><clipPath id="c"><path d="M9.434.926h6.476v6.476H9.434Zm0 0"/></clipPath><clipPath id="d"><path d="M9.434 18H12v2H9.434Zm0 0"/></clipPath><clipPath id="e"><path d="M14 18h1.91v2H14Zm0 0"/></clipPath><clipPath id="f"><path d="M11 23h3v1.41h-3zm0 0"/></clipPath><clipPath id="g"><path d="M10 17.934h5V23h-5zm0 0"/></clipPath><clipPath id="h"><path d="M14 19h1.91v4H14Zm0 0"/></clipPath><clipPath id="i"><path d="M9.434 19H11v4H9.434Zm0 0"/></clipPath><clipPath id="j"><path d="M18 9.43h6.414v6.476H18Zm0 0"/></clipPath><clipPath id="k"><path d="M.926 12H7.41v3.906H.926Zm0 0"/></clipPath><clipPath id="l"><path d="M3 10h4.41v4H3Zm0 0"/></clipPath><clipPath id="m"><path d="M3 9.434h3V12H3Zm0 0"/></clipPath><symbol id="a" overflow="visible"><path d="M5.156-2.11c0 .11.016.22.032.297.03.125.156.172.265.172.031 0 .063-.046.063-.093a1.857 1.857 0 0 1-.079-.454c0-.046.032-.078.079-.078.187-.046.296-.203.296-.343 0-.157-.14-.25-.203-.25-.218 0-.328.125-.39.265 0 .031-.032.063-.078.063a4.878 4.878 0 0 0-.766.094c-.047 0-.063 0-.063-.047.079-.422.141-.766.266-.985.063-.094-.078-.14-.14-.14-.032 0-.063.015-.094.03-.344.282-.782.75-1.125 1.5a.265.265 0 0 1-.094.095c-.547.28-1.031.64-1.25.875-.078.078.094.109.14.109.047 0 .094 0 .126-.031.187-.14.484-.344.796-.516.047-.031.047-.016.032.031-.297.75-.547 1.407-1.375 1.407-.36 0-.61-.188-.719-.297C.844-.453.844-.453.891-.47c.312-.031.468-.219.468-.469 0-.234-.234-.468-.546-.468-.329 0-.485.297-.485.656 0 .531.563.89 1.36.89C2.843.14 3.78-.53 4.203-2.015c.016-.046.047-.062.094-.078.25-.078.5-.125.797-.125.078 0 .062.047.062.11zM6.25-4.64c-.281.187-.734.28-.969.28-.75 0-1.687-.265-2.453-.265-.61 0-1.125.063-1.5.25-.469.25-.719.5-.719 1.047 0 .437.329.703.688.875.219.11.453.11.672.11.672 0 1.047-.563 1.062-1.345a.067.067 0 0 0-.062-.062c-.078 0-.172.031-.188.125-.078.703-.36 1.031-.797 1.031-.28 0-.734-.187-.734-.719 0-.593.422-1.093 1.234-1.093.72 0 1.485.687 2.547.687.469 0 .875-.297 1.188-.61a.383.383 0 0 0 .093-.25c0-.046-.015-.077-.062-.062zm0 0" style="stroke:none"/></symbol><symbol id="b" overflow="visible"><path d="M1.438.172c.437 0 .828.406 1.203.781.359.328.828.5 1.296.5.657 0 .97-.25 1.266-.734.016-.031.016-.063-.031-.063-.094 0-.266.094-.344.172-.203.188-.422.297-.516.297-.39 0-.625-.406-1.03-.75a1.234 1.234 0 0 0-.36-.219C2.906.141 2.812.11 2.906.094 4.141-.141 4.86-1.36 4.86-2.578c0-.828-.734-1.313-1.265-1.313-.781 0-1.156.672-1.156 1.375 0 .438.234.625.53.797.032.016.063 0 .063-.031 0-.11-.125-.25-.187-.422-.016-.062-.047-.156-.047-.297 0-.453.203-1.14.625-1.14.39 0 .703.656.703 1.156 0 .812-.125 1.422-.594 1.844-.297.265-.594.484-1.11.484-.5 0-.968-.547-.968-1.219 0-1.484.938-3.015 2.188-3.015.359 0 .812.265 1.046.593.047.079.172.141.266.141.031 0 .047-.031.047-.063-.125-.5-.719-.953-1.453-.953C1.687-4.64.422-3.25.422-1.53c0 .64.375 1.14.875 1.406.047.031.047.047 0 .063-.25.078-.5.28-.672.5C.562.53.719.561.781.561A.177.177 0 0 0 .906.516c.188-.172.39-.344.531-.344zm0 0" style="stroke:none"/></symbol></defs><path d="M0 283.464h283.464V0H0Zm0 0" style="clip-rule:nonzero;fill:#2e3440;fill-opacity:1;fill-rule:nonzero;stroke:none;stroke-width:11.1848"/><path d="M281.236 141.732c0-77.026-62.477-139.503-139.504-139.503C64.706 2.229 2.23 64.706 2.23 141.732c0 77.027 62.477 139.504 139.503 139.504 77.027 0 139.504-62.477 139.504-139.504zm0 0" style="clip-rule:nonzero;fill:#2e3440;fill-opacity:1;fill-rule:nonzero;stroke:#eceff4;stroke-width:4.45713;stroke-linecap:butt;stroke-linejoin:miter;stroke-miterlimit:10;stroke-opacity:1"/><use xlink:href="#a" width="100%" height="100%" x="7.854" y="12.515" style="fill:#eceff4;fill-opacity:1" transform="matrix(11.18476 0 0 11.18476 0 .044)"/><use xlink:href="#b" width="100%" height="100%" x="12.03" y="16.036" style="fill:#eceff4;fill-opacity:1" transform="matrix(11.18476 0 0 11.18476 0 .044)"/><path d="M141.732 52.997c3.496 0 6.335-2.884 6.335-6.379 0-3.495-2.84-6.379-6.335-6.379-3.539 0-6.379 2.884-6.379 6.38 0 3.494 2.84 6.378 6.38 6.378zm0 0" style="fill:#eceff4;fill-opacity:1;fill-rule:nonzero;stroke:none;stroke-width:11.1848"/><g clip-path="url(#c)" style="fill:#eceff4;fill-opacity:1" transform="matrix(11.18476 0 0 11.18476 0 .044)"><path d="M9.879 5.777c.125.223.367.336.672.371a.35.35 0 0 0 .27.122.349.349 0 0 0 .277-.13c.152-.019.316-.05.484-.093.219.777.586 1.355 1.09 1.355.5 0 .867-.578 1.086-1.355.578.148 1.406.246 1.703-.27.121-.207.113-.472-.012-.77a.377.377 0 0 0-.168-.429c-.035-.023-.074-.031-.113-.039l-.09-.117c-.07-.086-.156-.172-.238-.258.414-.426.918-1.098.62-1.613-.25-.434-.92-.469-1.702-.27-.219-.777-.586-1.355-1.086-1.355-.258 0-.48.152-.664.398a.376.376 0 0 0-.285.363c0 .04.011.079.023.114a3.844 3.844 0 0 0-.164.48c-.781-.199-1.453-.164-1.703.27-.297.515.207 1.187.621 1.613-.414.426-.918 1.098-.621 1.613Zm5.21-.492c.02 0 .036-.004.056-.008.175.621-.672.559-1.297.403.05-.246.09-.508.113-.77.223-.156.422-.32.605-.484.11.113.157.156.23.25a.353.353 0 0 0-.073.328.382.382 0 0 0 .367.281zm-1.097-1.37c.106.081.203.167.297.25a4.767 4.767 0 0 1-.297.25 5.345 5.345 0 0 0 0-.5zm1.14-1.173c.184.317-.312.899-.566 1.16a6.552 6.552 0 0 0-.605-.48 6.82 6.82 0 0 0-.113-.774c.351-.086 1.105-.218 1.285.094ZM11.79 5.18c.191.117.106.078.438.254-.125.05-.25.097-.372.14a9.21 9.21 0 0 1-.066-.394zm.883 1.843c-.262 0-.535-.421-.723-1.082.235-.078.48-.171.723-.285.238.114.484.207.723.285-.188.66-.465 1.082-.723 1.082zm.812-1.449a8.866 8.866 0 0 1-.37-.14c.327-.176.241-.137.437-.254-.02.136-.043.27-.067.394zm.067-2.426c-.14-.086-.14-.097-.434-.253a5.32 5.32 0 0 1 .367-.137c.024.125.047.254.067.39zm-1.5-1.078a.383.383 0 0 0 .43-.383.383.383 0 0 0-.086-.234c.09-.094.183-.144.277-.144.258 0 .535.421.723 1.078a6.925 6.925 0 0 0-.723.285 7.68 7.68 0 0 0-.723-.285c.031-.114.067-.219.102-.317zm-.196.688c.122.039.243.086.368.137-.297.16-.293.167-.43.253.016-.136.039-.265.062-.39zm-.113.87c.34-.23.598-.374.93-.534.324.16.586.304.926.535.027.363.027.7 0 1.07a7.445 7.445 0 0 1-.926.54 7.22 7.22 0 0 1-.93-.54 6.994 6.994 0 0 1 0-1.07zm-1.535-.886c.18-.312.934-.18 1.285-.094a6.82 6.82 0 0 0-.113.774 7.12 7.12 0 0 0-.606.48c-.253-.261-.75-.843-.566-1.16zm1.14 1.672a4.767 4.767 0 0 1-.296-.25c.094-.082.191-.168.297-.25a5.345 5.345 0 0 0 0 .5zm-.574.012c.184.164.387.328.606.484.023.262.062.524.113.77-.113.027-.226.05-.328.066a.355.355 0 0 0-.246-.223.367.367 0 0 0-.445.23c-.13-.03-.223-.085-.266-.167-.184-.313.313-.899.566-1.16Zm0 0" style="fill:#eceff4;fill-opacity:1;fill-rule:nonzero;stroke:none"/></g><g clip-path="url(#d)" style="fill:#eceff4;fill-opacity:1" transform="matrix(11.18476 0 0 11.18476 0 .044)"><path d="M9.813 19.465h1.14v-.38h.379v-.378H9.434v.379h.379Zm0 0" style="fill:#eceff4;fill-opacity:1;fill-rule:nonzero;stroke:none"/></g><g clip-path="url(#e)" style="fill:#eceff4;fill-opacity:1" transform="matrix(11.18476 0 0 11.18476 0 .044)"><path d="M14.012 19.086h.379v.379h1.14v-.38h.38v-.378h-1.9zm0 0" style="fill:#eceff4;fill-opacity:1;fill-rule:nonzero;stroke:none"/></g><g clip-path="url(#f)" style="fill:#eceff4;fill-opacity:1" transform="matrix(11.18476 0 0 11.18476 0 .044)"><path d="M13.05 23.258h-.757l-.379.773h-.57v.38H14v-.38h-.57zm0 0" style="fill:#eceff4;fill-opacity:1;fill-rule:nonzero;stroke:none"/></g><g clip-path="url(#g)" style="fill:#eceff4;fill-opacity:1" transform="matrix(11.18476 0 0 11.18476 0 .044)"><path d="M12.293 17.934v2.859h-.582v-.188h-.758v.758h.758v-.191h.582v1.707h.758v-1.707h.582v.191h.758v-.758h-.758v.188h-.582v-2.86zm0 0" style="fill:#eceff4;fill-opacity:1;fill-rule:nonzero;stroke:none"/></g><g clip-path="url(#h)" style="fill:#eceff4;fill-opacity:1" transform="matrix(11.18476 0 0 11.18476 0 .044)"><path d="M14.39 21.742v.57a.57.57 0 0 0 1.14 0v-2.468h-1.14v.379h.38v1.52zm0 0" style="fill:#eceff4;fill-opacity:1;fill-rule:nonzero;stroke:none"/></g><g clip-path="url(#i)" style="fill:#eceff4;fill-opacity:1" transform="matrix(11.18476 0 0 11.18476 0 .044)"><path d="M10.953 20.223v-.38h-1.14v2.47a.57.57 0 0 0 1.14 0v-.57h-.379v-1.52zm0 0" style="fill:#eceff4;fill-opacity:1;fill-rule:nonzero;stroke:none"/></g><g clip-path="url(#j)" style="fill:#eceff4;fill-opacity:1" transform="matrix(11.18476 0 0 11.18476 0 .044)"><path d="m18.469 14.45.8-.419a.574.574 0 0 0 .387.156.58.58 0 0 0 .395-.16l.558.282c0 .02-.004.043-.004.066 0 .246.157.457.38.535v.996h.378v-.996a.572.572 0 0 0 .38-.535.345.345 0 0 0-.009-.066l.563-.282c.101.098.242.16.394.16a.574.574 0 0 0 .387-.156l.8.418.177-.336-.805-.418c.004-.027.008-.05.008-.078a.566.566 0 0 0-.38-.535v-.828a.563.563 0 0 0 .38-.535c0-.024-.004-.051-.008-.078l.805-.418-.176-.336-.8.418a.571.571 0 0 0-.782.007l-.563-.28c.004-.024.008-.048.008-.071a.576.576 0 0 0-.379-.535V9.43h-.379v.996a.57.57 0 0 0-.379.535c0 .023.004.047.004.07l-.558.281a.571.571 0 0 0-.781-.008l-.801-.417-.176.336.8.418a.568.568 0 0 0 .371.613v.828a.572.572 0 0 0-.378.535c0 .028.004.051.008.078l-.801.418Zm1.754-2.731c0-.024-.004-.043-.004-.067l.558-.28a.58.58 0 0 0 .395.16.572.572 0 0 0 .394-.16l.563.28c-.004.024-.008.043-.008.067 0 .25.16.457.379.535v.828a.572.572 0 0 0-.379.535c0 .024.004.047.008.07l-.563.278a.576.576 0 0 0-.79 0l-.557-.277c0-.024.004-.047.004-.07a.566.566 0 0 0-.38-.536v-.828a.563.563 0 0 0 .38-.535zm0 0" style="fill:#eceff4;fill-opacity:1;fill-rule:nonzero;stroke:none"/></g><g clip-path="url(#k)" style="fill:#eceff4;fill-opacity:1" transform="matrix(11.18476 0 0 11.18476 0 .044)"><path d="m7.277 12.117-1.765 1.02v1.574l.246-.246.265.27-.703.703-.703-.704.266-.27.246.247v-1.356L.926 15.738H7.41v-3.683l-.125.058zm0 0" style="fill:#eceff4;fill-opacity:1;fill-rule:nonzero;stroke:none"/></g><g clip-path="url(#l)" style="fill:#eceff4;fill-opacity:1" transform="matrix(11.18476 0 0 11.18476 0 .044)"><path d="m4.59 12.79-.656.382.191.328 2.96-1.71-.757-1.317-1.316.761.379.657-.329.187-.378-.656-1.32.762.378.656.66-.38zm0 0" style="fill:#eceff4;fill-opacity:1;fill-rule:nonzero;stroke:none"/></g><path d="m30.322 143.698-2.884 10.748 10.792 2.884 1.092-4.107-3.758-1.005 8.433-4.85-2.141-3.713-8.389 4.85.961-3.714zm0 0" style="fill:#eceff4;fill-opacity:1;fill-rule:nonzero;stroke:none;stroke-width:11.1848"/><g clip-path="url(#m)" style="fill:#eceff4;fill-opacity:1" transform="matrix(11.18476 0 0 11.18476 0 .044)"><path d="m4.39 10.152.337.09.101-.367-.965-.258-.258.961.368.098.09-.332.62 1.078.329-.188zm0 0" style="fill:#eceff4;fill-opacity:1;fill-rule:nonzero;stroke:none"/></g></svg>