<?xml version="1.0" encoding="UTF-8" standalone="no"?>
<svg
   version="1.1"
   preserveAspectRatio="xMidYMid meet"
   zoomAndPan="magnify"
   id="Electron shell Silver"
   viewBox="-1000 -1150 1831.2544 1610.32"
   width="732.50177"
   height="644.12799"
   inkscape:version="1.1.2 (b8e25be8, 2022-02-05)"
   sodipodi:docname="Capa_electroÌnica_047_Plata.svg"
   xmlns:inkscape="http://www.inkscape.org/namespaces/inkscape"
   xmlns:sodipodi="http://sodipodi.sourceforge.net/DTD/sodipodi-0.dtd"
   xmlns:xlink="http://www.w3.org/1999/xlink"
   xmlns="http://www.w3.org/2000/svg"
   xmlns:svg="http://www.w3.org/2000/svg"
   xmlns:rdf="http://www.w3.org/1999/02/22-rdf-syntax-ns#"
   xmlns:cc="http://creativecommons.org/ns#"
   xmlns:dc="http://purl.org/dc/elements/1.1/">
  <metadata
     id="metadata74">
    <rdf:RDF>
      <cc:Work
         rdf:about="">
        <dc:format>image/svg+xml</dc:format>
        <dc:type
           rdf:resource="http://purl.org/dc/dcmitype/StillImage" />
      </cc:Work>
    </rdf:RDF>
  </metadata>
  <sodipodi:namedview
     pagecolor="#ffffff"
     bordercolor="#666666"
     borderopacity="1"
     objecttolerance="10"
     gridtolerance="10"
     guidetolerance="10"
     inkscape:pageopacity="0"
     inkscape:pageshadow="2"
     inkscape:window-width="1280"
     inkscape:window-height="800"
     id="namedview72"
     showgrid="false"
     inkscape:zoom="0.43528401"
     inkscape:cx="356.08935"
     inkscape:cy="271.08737"
     inkscape:window-x="1920"
     inkscape:window-y="213"
     inkscape:window-maximized="0"
     inkscape:current-layer="Electron shell Silver"
     inkscape:pagecheckerboard="0"
     fit-margin-top="0"
     fit-margin-left="0"
     fit-margin-right="0"
     fit-margin-bottom="0" />
  <defs
     id="defs3">
    <circle
       id="electron"
       fill="#77868b"
       stroke="none"
       r="30"
       cx="0"
       cy="0" />
  </defs>
  <circle
     fill="#ffc0c0"
     r="200"
     stroke="#343434"
     stroke-width="10"
     id="circle6"
     cx="-84.37281"
     cy="-243.67999" />
  <g
     id="g6237"
     transform="translate(-61.27,-243.68)">
    <g
       aria-label="47: Plata"
       id="text10"
       style="font-weight:bold;font-size:120px;line-height:0%;text-anchor:end">
      <path
         d="m -915.45,-817.46001 q -0.72,0 -1.68,-0.48 -0.96,-0.48 -0.96,-1.32 0,-1.2 0.84,-1.68 0.84,-0.48 1.92,-0.72 4.8,-0.84 6.48,-2.28 1.68,-1.56 1.68,-5.16 v -6.84 q 0,-0.6 -0.72,-0.84 -0.72,-0.36 -1.32,-0.36 -3.72,0 -8.52,0.24 -4.8,0.24 -9.84,0.48 -4.92,0.24 -9.36,0.24 -0.6,0 -1.2,-0.24 -0.6,-0.24 -0.6,-0.72 0,-0.48 0.6,-1.32 0.84,-1.08 1.32,-1.68 0.6,-0.72 1.08,-1.44 0.6,-0.84 1.2,-1.68 l 29.64,-47.4 q 0.96,-1.56 2.4,-2.88 1.56,-1.32 2.88,-1.32 h 1.08 q 0.96,0 1.08,0.96 0.24,0.84 -0.24,1.56 l -28.2,44.76 q -0.48,0.96 -0.12,1.32 0.36,0.36 1.08,0.36 h 16.8 q 0.36,0 0.6,-0.24 0.36,-0.24 0.36,-0.6 v -14.4 q 0,-2.16 0.24,-2.88 0.36,-0.84 1.68,-1.32 3.24,-1.56 6.96,-2.04 3.72,-0.48 5.16,-0.48 2.4,0 2.76,2.4 0.48,2.28 0.48,6.84 v 12.6 q 0,0.84 0.6,0.84 1.56,0.12 2.28,0.12 0.84,0 2.04,0 1.8,0 3.24,0 1.44,-0.12 3.6,-0.24 1.44,0 1.44,0.84 0,0.96 -0.48,2.76 -0.48,1.8 -1.2,3.36 -0.6,1.44 -1.08,1.44 -1.44,0 -2.76,0 -1.32,-0.12 -2.88,-0.12 -1.2,0 -1.8,0.12 -0.48,0 -1.32,0.12 -0.48,0.12 -1.08,0.36 -0.6,0.24 -0.6,0.36 v 6.84 q 0,3.36 1.56,4.8 1.56,1.44 6.24,2.76 1.08,0.36 1.92,0.84 0.96,0.48 0.96,1.56 0,0.72 -0.84,1.2 -0.72,0.48 -1.68,0.48 -2.64,0 -5.76,-0.12 -3,-0.12 -5.88,-0.24 -2.88,-0.12 -5.4,-0.12 -2.52,0 -5.4,0.12 -2.76,0.12 -5.64,0.24 -2.88,0.24 -5.64,0.24 z"
         style="font-family:'EB Garamond';-inkscape-font-specification:'EB Garamond Bold'"
         id="path6239" />
      <path
         d="m -857.57438,-814.22001 q -1.43999,0 -2.52,-1.2 -0.96,-1.08 -0.96,-2.64 0,-0.84 1.20001,-2.64 1.2,-1.92 2.03999,-3.48 l 28.92001,-51.72 q 0.48,-0.96 0,-1.32 -0.36,-0.36 -1.32001,-0.36 h -26.88 q -3,0 -4.79999,1.08 -1.80001,0.96 -3.6,3.48 -0.48,0.6 -1.44001,2.16 -0.83999,1.44 -2.03999,2.76 -1.20001,1.2 -2.4,1.2 -0.72001,0 -1.32001,-0.6 -0.59999,-0.6 -0.59999,-1.44 0,-0.84 0.59999,-2.88 0.6,-2.04 0.72001,-2.76 0.72,-3.96 1.79999,-8.52 1.08,-4.56 1.08,-7.92 0,-1.32 0.96001,-1.68 0.95999,-0.48 1.55999,-0.36 1.44001,0.12 4.56001,0.6 3.24,0.48 7.07999,0.72 2.88,0 6.72,0.12 3.84001,0 7.44001,0.12 3.71999,0 6.12,0 4.43999,0 8.04,0 3.6,-0.12 6.36,-0.24 2.88,-0.12 4.67999,-0.24 0.48,0 0.84001,0.84 0.36,0.84 0.36,1.68 0,0.6 -0.72001,1.8 -0.6,1.08 -1.55999,2.64 -0.96,1.56 -2.16001,3.48 l -36,63.48 q -0.59999,1.08 -1.55999,2.4 -0.84001,1.44 -1.20001,1.44 z"
         style="font-family:'EB Garamond';-inkscape-font-specification:'EB Garamond Bold'"
         id="path6241" />
      <path
         d="m -798.37875,-847.34001 q -3.84,0 -6.72,-2.76 -2.88,-2.88 -2.88,-6.84 0,-4.2 2.88,-7.08 2.88,-2.88 6.72,-2.88 4.32,0 7.08,2.88 2.88,2.88 2.88,7.08 0,3.96 -2.88,6.84 -2.76,2.76 -7.08,2.76 z m 0,33.12 q -3.84,0 -6.72,-2.88 -2.88,-2.76 -2.88,-6.72 0,-4.2 2.88,-7.08 2.88,-2.88 6.72,-2.88 4.32,0 7.08,2.88 2.88,2.88 2.88,7.08 0,3.96 -2.88,6.72 -2.76,2.88 -7.08,2.88 z"
         style="font-family:'EB Garamond';-inkscape-font-specification:'EB Garamond Bold'"
         id="path6243" />
      <path
         d="m -747.66937,-817.46001 q -0.96,0 -1.68,-0.36 -0.72001,-0.48 -0.72001,-1.32 0,-1.92 2.52,-2.52 4.56001,-0.96 6.24,-2.4 1.80001,-1.56 1.80001,-5.52 v -53.76 q 0,-4.08 -1.44001,-5.88 -1.43999,-1.92 -5.76,-2.88 -1.55999,-0.36 -2.15999,-0.96 -0.60001,-0.72 -0.60001,-1.56 0,-0.72 0.72001,-1.2 0.72,-0.6 1.91999,-0.6 2.76,0 5.52,0.12 2.88,0.12 5.52001,0.36 2.76,0.12 5.16,0.12 2.88,0 5.03999,-0.24 2.28,-0.36 4.92001,-0.6 2.76,-0.36 6.59999,-0.36 14.64,0 23.16001,6.24 8.64,6.12 8.64,16.92 0,7.56 -3.24,13.92 -3.12,6.36 -9.6,10.32 -6.36001,3.84 -16.20001,3.84 -3.12,0 -4.79999,-0.96 -1.56,-0.96 -1.56,-2.28 0,-0.84 0.71999,-1.32 0.84001,-0.6 1.44001,-0.6 1.31999,0 2.28,0.36 0.96,0.24 2.63999,0.24 5.04,0 7.56001,-5.64 2.64,-5.64 2.64,-14.88 0,-11.04 -3.6,-15.96 -3.60001,-4.92 -10.08001,-4.92 -3.36,0 -5.15999,1.56 -1.68,1.44 -1.68,4.56 l -0.12,55.8 q 0,3.84 2.04,5.52 2.03999,1.56 7.08,2.64 1.31999,0.24 1.92,0.84 0.72,0.48 0.72,1.56 0,0.84 -0.6,1.32 -0.60001,0.48 -1.68001,0.48 -2.64,0 -6.11999,-0.24 -3.36,-0.12 -6.72,-0.24 -3.36,-0.12 -5.76,-0.12 -2.52,0 -5.52,0.12 -3,0.12 -6.24,0.24 -3.12,0.24 -5.76,0.24 z"
         style="font-family:'EB Garamond';-inkscape-font-specification:'EB Garamond Bold'"
         id="path6245" />
      <path
         d="m -674.89875,-817.46001 q -1.08,0 -1.8,-0.36 -0.6,-0.48 -0.6,-1.32 0,-0.96 0.72,-1.44 0.72,-0.6 2.04,-0.96 1.8,-0.6 3.12,-1.32 1.44,-0.72 1.44,-3.24 v -57.72 q 0,-3.24 -0.96,-5.64 -0.84,-2.4 -3.84,-3 -1.2,-0.24 -1.2,-1.8 0,-1.56 1.08,-1.8 3.12,-0.6 6.72,-1.68 3.6,-1.2 6.84,-2.4 3.24,-1.32 5.04,-1.92 0.96,-0.36 1.56,-0.36 0.72,0 0.96,0.48 0.24,0.36 0.24,0.96 0,0.84 -0.36,3.12 -0.24,2.28 -0.36,5.16 v 66.36 q 0,2.64 1.32,3.36 1.44,0.6 3.24,1.2 1.32,0.48 2.04,0.96 0.72,0.48 0.72,1.44 0,0.84 -0.72,1.32 -0.6,0.36 -1.68,0.36 -2.28,0 -4.56,-0.12 -2.16,-0.12 -4.32,-0.12 -2.04,-0.12 -4.2,-0.12 -2.04,0 -4.08,0.12 -1.92,0.12 -3.96,0.24 -2.04,0.24 -4.44,0.24 z"
         style="font-family:'EB Garamond';-inkscape-font-specification:'EB Garamond Bold'"
         id="path6247" />
      <path
         d="m -629.52,-816.14001 q -3.24,0 -6,-1.56 -2.76,-1.56 -4.44,-4.08 -1.56,-2.52 -1.56,-5.52 0,-4.08 2.52,-6.84 2.64,-2.76 7.68,-4.92 l 10.68,-4.68 q 2.4,-1.08 2.88,-1.92 0.6,-0.84 0.6,-3.12 l 0.12,-6.84 q 0.12,-3.36 -1.2,-5.28 -1.32,-2.04 -3.96,-2.04 -1.56,0 -3.12,0.72 -1.56,0.6 -2.4,1.44 -0.36,0.48 -0.6,1.2 -0.12,0.6 -0.12,1.32 0,0.72 0.12,1.8 0.12,0.96 0.12,1.68 0,0.72 -1.92,1.92 -1.92,1.08 -4.44,2.04 -2.52,0.84 -4.32,0.84 -0.84,0 -1.56,-0.72 -0.6,-0.72 -0.6,-1.8 0,-1.92 1.32,-3.72 1.32,-1.92 4.32,-4.32 3.12,-2.64 6.84,-4.68 3.72,-2.04 7.32,-3.24 3.72,-1.2 6.24,-1.2 6.48,0 10.32,4.2 3.84,4.08 3.6,10.92 l -0.6,24.24 q -0.12,2.76 0.96,4.68 1.08,1.92 2.64,1.92 2.28,0 3.96,-1.56 0.36,-0.36 0.72,-0.36 0.6,0 0.96,0.36 0.48,0.36 0.48,0.96 0,1.44 -2.16,3.72 -2.28,2.16 -4.8,3.24 -2.52,1.2 -5.28,1.2 -6.72,0 -11.16,-6.84 h -0.24 q -3.96,3.6 -7.2,5.16 -3.12,1.68 -6.72,1.68 z m 7.2,-7.8 q 1.32,0 2.16,-0.36 0.84,-0.48 1.68,-1.44 0.36,-0.48 0.6,-1.2 0.24,-0.84 0.24,-1.92 l 0.36,-8.64 q 0,-1.2 -0.36,-1.56 -0.36,-0.36 -0.84,-0.36 -0.24,0 -0.6,0.12 -0.36,0.12 -0.84,0.36 -3.48,1.68 -5.16,3.48 -1.68,1.68 -1.68,5.52 0,3.48 1.44,4.8 1.44,1.2 3,1.2 z"
         style="font-family:'EB Garamond';-inkscape-font-specification:'EB Garamond Bold'"
         id="path6249" />
      <path
         d="m -566.22,-816.14001 q -7.92,0 -11.88,-3.96 -3.96,-4.08 -3.96,-11.4 v -27.6 q 0,-1.08 -0.84,-1.56 -0.72,-0.48 -2.88,-0.6 h -1.56 q -0.84,0 -1.44,-1.32 -0.48,-1.44 -0.48,-2.52 0,-0.24 0.12,-0.6 0.24,-0.48 0.6,-0.6 2.88,-1.08 6.12,-3.24 3.36,-2.28 6.36,-4.8 3.12,-2.52 5.04,-4.2 0.84,-0.6 1.44,-1.08 0.6,-0.48 1.56,-0.48 1.08,0 1.56,0.48 0.48,0.36 0.24,1.92 l -0.72,7.08 q -0.12,1.44 0.6,2.04 0.84,0.48 2.28,0.48 h 14.28 q 0.36,0 0.72,0.84 0.36,0.84 0.36,1.56 0,1.68 -0.48,3.24 -0.48,1.56 -1.08,1.56 h -11.16 q -2.76,0 -3.84,0.72 -0.96,0.6 -0.96,2.28 v 22.68 q 0,5.52 2.04,8.28 2.16,2.64 5.64,2.64 3.48,0 5.04,-0.72 1.68,-0.72 3,-1.2 0.48,-0.24 0.72,-0.24 0.6,0 0.96,0.72 0.36,0.72 0.36,1.68 0,0.72 -2.52,2.64 -2.52,1.92 -6.6,3.6 -3.96,1.68 -8.64,1.68 z"
         style="font-family:'EB Garamond';-inkscape-font-specification:'EB Garamond Bold'"
         id="path6251" />
      <path
         d="m -532.02,-816.14001 q -3.24,0 -6,-1.56 -2.76,-1.56 -4.44,-4.08 -1.56,-2.52 -1.56,-5.52 0,-4.08 2.52,-6.84 2.64,-2.76 7.68,-4.92 l 10.68,-4.68 q 2.4,-1.08 2.88,-1.92 0.6,-0.84 0.6,-3.12 l 0.12,-6.84 q 0.12,-3.36 -1.2,-5.28 -1.32,-2.04 -3.96,-2.04 -1.56,0 -3.12,0.72 -1.56,0.6 -2.4,1.44 -0.36,0.48 -0.6,1.2 -0.12,0.6 -0.12,1.32 0,0.72 0.12,1.8 0.12,0.96 0.12,1.68 0,0.72 -1.92,1.92 -1.92,1.08 -4.44,2.04 -2.52,0.84 -4.32,0.84 -0.84,0 -1.56,-0.72 -0.6,-0.72 -0.6,-1.8 0,-1.92 1.32,-3.72 1.32,-1.92 4.32,-4.32 3.12,-2.64 6.84,-4.68 3.72,-2.04 7.32,-3.24 3.72,-1.2 6.24,-1.2 6.48,0 10.32,4.2 3.84,4.08 3.6,10.92 l -0.6,24.24 q -0.12,2.76 0.96,4.68 1.08,1.92 2.64,1.92 2.28,0 3.96,-1.56 0.36,-0.36 0.72,-0.36 0.6,0 0.96,0.36 0.48,0.36 0.48,0.96 0,1.44 -2.16,3.72 -2.28,2.16 -4.8,3.24 -2.52,1.2 -5.28,1.2 -6.72,0 -11.16,-6.84 h -0.24 q -3.96,3.6 -7.2,5.16 -3.12,1.68 -6.72,1.68 z m 7.2,-7.8 q 1.32,0 2.16,-0.36 0.84,-0.48 1.68,-1.44 0.36,-0.48 0.6,-1.2 0.24,-0.84 0.24,-1.92 l 0.36,-8.64 q 0,-1.2 -0.36,-1.56 -0.36,-0.36 -0.84,-0.36 -0.24,0 -0.6,0.12 -0.36,0.12 -0.84,0.36 -3.48,1.68 -5.16,3.48 -1.68,1.68 -1.68,5.52 0,3.48 1.44,4.8 1.44,1.2 3,1.2 z"
         style="font-family:'EB Garamond';-inkscape-font-specification:'EB Garamond Bold'"
         id="path6253" />
    </g>
    <g
       aria-label="2, 8, 18, 18, 1"
       id="text14"
       style="font-weight:bold;font-size:120px;line-height:0%;text-anchor:end">
      <path
         d="m 277.82812,-829.52 q -0.72,0 -3.6,-0.12 -2.76,0 -6.6,-0.12 -3.72,-0.12 -7.68,-0.24 -3.96,-0.12 -6.96,-0.12 -2.76,0 -6.12,0.12 -3.24,0.12 -6.24,0.12 -2.88,0.12 -4.92,0.12 -1.92,0.12 -2.28,0.12 -0.36,0 -1.44,-0.6 -0.96,-0.72 -0.96,-1.44 0,-0.96 0.48,-1.56 0.48,-0.6 0.96,-1.08 l 17.52,-19.44 q 6.36,-6.96 9.48,-13.92 3.12,-7.08 3.12,-15.36 0,-5.04 -2.64,-8.4 -2.51999,-3.48 -7.2,-3.48 -4.2,0 -7.92,2.4 -3.72,2.4 -6.36,5.16 -0.6,0.72 -1.68,1.68 -1.08,0.84 -2.16,0.84 -0.96,0 -1.32,-0.72 -0.36,-0.84 -0.36,-2.04 0,-2.04 1.92,-4.92 2.04,-3 5.52,-6 3.6,-3 8.16,-5.04 4.68,-2.04 9.84,-2.04 6.24,0 10.44,2.76 4.32,2.76 6.60001,7.32 2.27999,4.56 2.27999,9.96 0,3.36 -1.56,7.44 -1.44,3.96 -3.59999,7.68 -2.16001,3.6 -4.44001,6.24 -1.79999,2.04 -4.55999,4.8 -2.64001,2.64 -5.52001,5.4 -2.88,2.76 -5.52,5.16 -2.64,2.4 -4.2,3.96 -1.55999,1.56 -1.55999,1.8 0,0.48 1.79999,0.72 2.16,0.24 5.16,0.36 3.12,0.12 5.64,0.12 2.76,0 5.40001,-0.12 2.63999,-0.12 5.27999,-0.36 2.64001,-0.24 4.56,-0.96 2.04,-0.84 3.48,-2.28 1.56,-1.56 2.76,-3.96 0.36001,-0.84 1.2,-1.68 0.96,-0.96 2.16001,-0.96 0.95999,0 1.31999,0.84 0.36001,0.72 0,1.56 -1.07999,3.12 -2.28,6.84 -1.08,3.6 -1.91999,6.6 -0.84001,2.88 -0.96001,4.08 -0.12,1.44 -1.2,2.16 -1.08,0.6 -1.32,0.6 z"
         style="font-family:'EB Garamond';-inkscape-font-specification:'EB Garamond Bold'"
         id="path6256" />
      <path
         d="m 292.98375,-810.32 q -3,0 -3,-1.92 0,-0.84 0.72,-1.2 0.72,-0.36 1.92,-0.72 3.24,-0.84 5.52,-2.28 2.28,-1.44 3.48,-3.6 1.32,-2.04 1.32,-4.68 0,-2.28 -1.44,-3.6 -1.44,-1.2 -3.48,-1.68 -2.16,-0.6 -3.72,-2.28 -1.44,-1.8 -1.44,-4.68 0,-3.12 2.52,-5.16 2.52,-2.16 5.76,-2.16 5.4,0 8.76,3.48 3.36,3.36 3.36,8.88 0,4.92 -1.8,8.76 -1.8,3.96 -4.8,6.84 -2.88,3 -6.48,4.44 -3.48,1.56 -7.2,1.56 z"
         style="font-family:'EB Garamond';-inkscape-font-specification:'EB Garamond Bold'"
         id="path6258" />
      <path
         d="m 377.03437,-828.44 q -6.6,0 -12.24,-2.4 -5.63999,-2.4 -9,-6.6 -3.36,-4.2 -3.36,-9.72 0,-4.8 2.76,-7.8 2.76001,-3.12 6.72,-5.28 3.96,-2.28 7.44,-4.2 1.08,-0.6 0.72001,-0.96 -0.24,-0.48 -1.20001,-1.08 -3.59999,-2.88 -6.84,-6 -3.12,-3.12 -5.16,-6.84 -2.03999,-3.84 -2.03999,-8.52 0,-5.4 3.71999,-9.36 3.84001,-3.96 9.72001,-6.12 5.88,-2.16 12.23999,-2.16 5.52,0 10.56001,2.16 5.15999,2.04 8.27999,5.88 3.12,3.84 3.12,8.88 0,4.68 -2.28,7.68 -2.16,2.88 -4.91999,4.2 -1.32,0.72 -2.76001,1.44 -1.32,0.72 -2.52,1.44 -1.92,1.2 -1.92,1.8 0,0.6 1.20001,1.32 4.44,2.88 7.91999,5.76 3.6,2.76 5.64001,6.24 2.15999,3.36 2.15999,7.8 0,6.84 -3.83999,11.88 -3.84001,5.04 -10.2,7.8 -6.24,2.76 -13.92001,2.76 z m 2.16,-5.16 q 4.32,0 7.08001,-3.12 2.75999,-3.12 2.75999,-7.56 0,-3.24 -2.04,-6.24 -1.91999,-3.12 -4.8,-5.88 -2.88,-2.76 -5.64,-4.68 -0.59999,-0.6 -1.08,-0.84 -0.36,-0.36 -0.84,-0.36 -0.23999,0 -1.56,0.84 -2.52,2.4 -3.6,5.52 -0.96,3.12 -0.96,7.92 0,3.6 1.32001,6.96 1.32,3.24 3.71999,5.4 2.40001,2.04 5.64,2.04 z m 4.56,-42 q 1.92,-2.04 2.64001,-5.76 0.83999,-3.72 0.83999,-7.68 0,-4.56 -1.92,-7.92 -1.8,-3.36 -6.35999,-3.36 -2.40001,0 -4.32001,1.2 -1.91999,1.08 -3.23999,3.12 -1.20001,2.04 -1.20001,4.8 0,3.36 1.56,6 1.68,2.64 4.20001,4.92 2.51999,2.16 5.39999,4.44 0.72,0.6 1.32,0.72 0.60001,0 1.08,-0.48 z"
         style="font-family:'EB Garamond';-inkscape-font-specification:'EB Garamond Bold'"
         id="path6260" />
      <path
         d="m 414.39,-810.32 q -3,0 -3,-1.92 0,-0.84 0.72,-1.2 0.72,-0.36 1.92,-0.72 3.24,-0.84 5.52,-2.28 2.28,-1.44 3.48,-3.6 1.32,-2.04 1.32,-4.68 0,-2.28 -1.44,-3.6 -1.44,-1.2 -3.48,-1.68 -2.16,-0.6 -3.72,-2.28 -1.44,-1.8 -1.44,-4.68 0,-3.12 2.52,-5.16 2.52,-2.16 5.76,-2.16 5.4,0 8.76,3.48 3.36,3.36 3.36,8.88 0,4.92 -1.8,8.76 -1.8,3.96 -4.8,6.84 -2.88,3 -6.48,4.44 -3.48,1.56 -7.2,1.56 z"
         style="font-family:'EB Garamond';-inkscape-font-specification:'EB Garamond Bold'"
         id="path6262" />
      <path
         d="m 480.68063,-829.64 q -0.72001,0 -1.44,-0.48 -0.72001,-0.48 -0.72001,-1.2 0,-1.92 2.28001,-2.52 3.35999,-0.84 5.76,-1.68 2.39999,-0.84 3.71999,-2.28 1.32,-1.56 1.32,-4.08 v -43.44 q 0,-2.88 -1.56,-4.32 -1.44,-1.56 -3.84,-2.28 -2.28,-0.72 -4.92,-1.08 -0.96,-0.24 -2.03999,-0.84 -1.08001,-0.6 -1.08001,-1.92 0,-1.56 1.08001,-2.16 1.19999,-0.72 2.63999,-0.84 7.08,-0.6 12.72,-2.28 5.64001,-1.68 11.16,-4.92 0.24001,-0.12 0.60001,-0.24 0.35999,-0.12 0.71999,-0.12 0.84,0 1.56,0.36 0.84,0.36 0.84,0.84 0,1.56 -0.35999,3.6 -0.24001,1.92 -0.24001,5.16 v 54.6 q 0,2.28 1.44,3.72 1.44,1.44 4.08,2.4 2.64,0.84 6.12,1.8 0.96001,0.36 1.56001,0.84 0.59999,0.48 0.59999,1.56 0,1.68 -1.8,1.68 -2.75999,0 -6.6,-0.12 -3.71999,-0.12 -7.44,-0.24 -3.59999,-0.12 -6.24,-0.12 -2.52,0 -6.12,0.12 -3.6,0.12 -7.32,0.24 -3.72,0.24 -6.47999,0.24 z"
         style="font-family:'EB Garamond';-inkscape-font-specification:'EB Garamond Bold'"
         id="path6264" />
      <path
         d="m 561.95625,-828.44 q -6.6,0 -12.24,-2.4 -5.64,-2.4 -9,-6.6 -3.36,-4.2 -3.36,-9.72 0,-4.8 2.76,-7.8 2.76,-3.12 6.72,-5.28 3.96,-2.28 7.44,-4.2 1.08,-0.6 0.72,-0.96 -0.24,-0.48 -1.2,-1.08 -3.6,-2.88 -6.84,-6 -3.12,-3.12 -5.16,-6.84 -2.04,-3.84 -2.04,-8.52 0,-5.4 3.72,-9.36 3.84,-3.96 9.72,-6.12 5.88,-2.16 12.24,-2.16 5.52,0 10.56,2.16 5.16,2.04 8.28,5.88 3.12,3.84 3.12,8.88 0,4.68 -2.28,7.68 -2.16,2.88 -4.92,4.2 -1.32,0.72 -2.76,1.44 -1.32,0.72 -2.52,1.44 -1.92,1.2 -1.92,1.8 0,0.6 1.2,1.32 4.44,2.88 7.92,5.76 3.6,2.76 5.64,6.24 2.16,3.36 2.16,7.8 0,6.84 -3.84,11.88 -3.84,5.04 -10.2,7.8 -6.24,2.76 -13.92,2.76 z m 2.16,-5.16 q 4.32,0 7.08,-3.12 2.76,-3.12 2.76,-7.56 0,-3.24 -2.04,-6.24 -1.92,-3.12 -4.8,-5.88 -2.88,-2.76 -5.64,-4.68 -0.6,-0.6 -1.08,-0.84 -0.36,-0.36 -0.84,-0.36 -0.24,0 -1.56,0.84 -2.52,2.4 -3.6,5.52 -0.96,3.12 -0.96,7.92 0,3.6 1.32,6.96 1.32,3.24 3.72,5.4 2.4,2.04 5.64,2.04 z m 4.56,-42 q 1.92,-2.04 2.64,-5.76 0.84,-3.72 0.84,-7.68 0,-4.56 -1.92,-7.92 -1.8,-3.36 -6.36,-3.36 -2.4,0 -4.32,1.2 -1.92,1.08 -3.24,3.12 -1.2,2.04 -1.2,4.8 0,3.36 1.56,6 1.68,2.64 4.2,4.92 2.52,2.16 5.4,4.44 0.72,0.6 1.32,0.72 0.6,0 1.08,-0.48 z"
         style="font-family:'EB Garamond';-inkscape-font-specification:'EB Garamond Bold'"
         id="path6266" />
      <path
         d="m 599.31187,-810.32 q -3,0 -3,-1.92 0,-0.84 0.72001,-1.2 0.72,-0.36 1.91999,-0.72 3.24,-0.84 5.52,-2.28 2.28001,-1.44 3.48,-3.6 1.32001,-2.04 1.32001,-4.68 0,-2.28 -1.44001,-3.6 -1.43999,-1.2 -3.48,-1.68 -2.16,-0.6 -3.71999,-2.28 -1.44001,-1.8 -1.44001,-4.68 0,-3.12 2.52,-5.16 2.52,-2.16 5.76,-2.16 5.40001,0 8.76,3.48 3.36,3.36 3.36,8.88 0,4.92 -1.8,8.76 -1.79999,3.96 -4.79999,6.84 -2.88,3 -6.48,4.44 -3.48,1.56 -7.20001,1.56 z"
         style="font-family:'EB Garamond';-inkscape-font-specification:'EB Garamond Bold'"
         id="path6268" />
      <path
         d="m 665.6025,-829.64 q -0.72,0 -1.44,-0.48 -0.72,-0.48 -0.72,-1.2 0,-1.92 2.28,-2.52 3.36,-0.84 5.76,-1.68 2.4,-0.84 3.72,-2.28 1.32,-1.56 1.32,-4.08 v -43.44 q 0,-2.88 -1.56,-4.32 -1.44,-1.56 -3.84,-2.28 -2.28,-0.72 -4.92,-1.08 -0.96,-0.24 -2.04,-0.84 -1.08,-0.6 -1.08,-1.92 0,-1.56 1.08,-2.16 1.2,-0.72 2.64,-0.84 7.08,-0.6 12.72,-2.28 5.64,-1.68 11.16,-4.92 0.24,-0.12 0.6,-0.24 0.36,-0.12 0.72,-0.12 0.84,0 1.56,0.36 0.84,0.36 0.84,0.84 0,1.56 -0.36,3.6 -0.24,1.92 -0.24,5.16 v 54.6 q 0,2.28 1.44,3.72 1.44,1.44 4.08,2.4 2.64,0.84 6.12,1.8 0.96,0.36 1.56,0.84 0.6,0.48 0.6,1.56 0,1.68 -1.8,1.68 -2.76,0 -6.6,-0.12 -3.72,-0.12 -7.44,-0.24 -3.6,-0.12 -6.24,-0.12 -2.52,0 -6.12,0.12 -3.6,0.12 -7.32,0.24 -3.72,0.24 -6.48,0.24 z"
         style="font-family:'EB Garamond';-inkscape-font-specification:'EB Garamond Bold'"
         id="path6270" />
      <path
         d="m 746.87812,-828.44 q -6.59999,0 -12.24,-2.4 -5.64,-2.4 -9,-6.6 -3.35999,-4.2 -3.35999,-9.72 0,-4.8 2.76,-7.8 2.76,-3.12 6.71999,-5.28 3.96,-2.28 7.44,-4.2 1.08001,-0.6 0.72001,-0.96 -0.24,-0.48 -1.20001,-1.08 -3.6,-2.88 -6.84,-6 -3.12,-3.12 -5.16,-6.84 -2.03999,-3.84 -2.03999,-8.52 0,-5.4 3.72,-9.36 3.83999,-3.96 9.71999,-6.12 5.88,-2.16 12.24,-2.16 5.52,0 10.56001,2.16 5.15999,2.04 8.27999,5.88 3.12,3.84 3.12,8.88 0,4.68 -2.27999,7.68 -2.16001,2.88 -4.92001,4.2 -1.31999,0.72 -2.76,1.44 -1.31999,0.72 -2.52,1.44 -1.91999,1.2 -1.91999,1.8 0,0.6 1.19999,1.32 4.44001,2.88 7.92001,5.76 3.59999,2.76 5.64,6.24 2.15999,3.36 2.15999,7.8 0,6.84 -3.84,11.88 -3.83999,5.04 -10.19999,7.8 -6.24,2.76 -13.92001,2.76 z m 2.16001,-5.16 q 4.31999,0 7.07999,-3.12 2.76,-3.12 2.76,-7.56 0,-3.24 -2.04,-6.24 -1.91999,-3.12 -4.79999,-5.88 -2.88,-2.76 -5.64,-4.68 -0.6,-0.6 -1.08001,-0.84 -0.36,-0.36 -0.84,-0.36 -0.24,0 -1.55999,0.84 -2.52,2.4 -3.60001,5.52 -0.96,3.12 -0.96,7.92 0,3.6 1.32001,6.96 1.31999,3.24 3.72,5.4 2.4,2.04 5.64,2.04 z m 4.55999,-42 q 1.92001,-2.04 2.64,-5.76 0.84,-3.72 0.84,-7.68 0,-4.56 -1.91999,-7.92 -1.80001,-3.36 -6.36,-3.36 -2.4,0 -4.32001,1.2 -1.91999,1.08 -3.24,3.12 -1.19999,2.04 -1.19999,4.8 0,3.36 1.55999,6 1.68001,2.64 4.20001,4.92 2.51999,2.16 5.39999,4.44 0.72001,0.6 1.32001,0.72 0.59999,0 1.07999,-0.48 z"
         style="font-family:'EB Garamond';-inkscape-font-specification:'EB Garamond Bold'"
         id="path6272" />
      <path
         d="m 784.23375,-810.32 q -3,0 -3,-1.92 0,-0.84 0.72,-1.2 0.72,-0.36 1.92,-0.72 3.24,-0.84 5.52,-2.28 2.28,-1.44 3.48,-3.6 1.32,-2.04 1.32,-4.68 0,-2.28 -1.44,-3.6 -1.44,-1.2 -3.48,-1.68 -2.16,-0.6 -3.72,-2.28 -1.44,-1.8 -1.44,-4.68 0,-3.12 2.52,-5.16 2.52,-2.16 5.76,-2.16 5.4,0 8.76,3.48 3.36,3.36 3.36,8.88 0,4.92 -1.8,8.76 -1.8,3.96 -4.8,6.84 -2.88,3 -6.48,4.44 -3.48,1.56 -7.2,1.56 z"
         style="font-family:'EB Garamond';-inkscape-font-specification:'EB Garamond Bold'"
         id="path6274" />
      <path
         d="m 850.52437,-829.64 q -0.71999,0 -1.43999,-0.48 -0.72001,-0.48 -0.72001,-1.2 0,-1.92 2.28,-2.52 3.36,-0.84 5.76,-1.68 2.40001,-0.84 3.72,-2.28 1.32001,-1.56 1.32001,-4.08 v -43.44 q 0,-2.88 -1.56001,-4.32 -1.43999,-1.56 -3.84,-2.28 -2.28,-0.72 -4.92,-1.08 -0.96,-0.24 -2.03999,-0.84 -1.08001,-0.6 -1.08001,-1.92 0,-1.56 1.08001,-2.16 1.19999,-0.72 2.63999,-0.84 7.08001,-0.6 12.72001,-2.28 5.64,-1.68 11.15999,-4.92 0.24001,-0.12 0.60001,-0.24 0.36,-0.12 0.72,-0.12 0.83999,0 1.55999,0.36 0.84001,0.36 0.84001,0.84 0,1.56 -0.36,3.6 -0.24001,1.92 -0.24001,5.16 v 54.6 q 0,2.28 1.44,3.72 1.44,1.44 4.08,2.4 2.64,0.84 6.12,1.8 0.96001,0.36 1.56001,0.84 0.59999,0.48 0.59999,1.56 0,1.68 -1.8,1.68 -2.75999,0 -6.6,-0.12 -3.72,-0.12 -7.43999,-0.24 -3.6,-0.12 -6.24,-0.12 -2.52,0 -6.12,0.12 -3.60001,0.12 -7.32001,0.24 -3.72,0.24 -6.48,0.24 z"
         style="font-family:'EB Garamond';-inkscape-font-specification:'EB Garamond Bold'"
         id="path6276" />
    </g>
  </g>
  <g
     aria-label="Ag"
     id="text16"
     style="font-weight:bold;font-size:160px;line-height:0%;text-anchor:middle">
    <path
       d="m -178.66906,-211.67 q -1.76,0 -3.04,-0.64 -1.12,-0.48 -1.12,-1.92 0,-1.6 0.96,-2.24 1.12,-0.8 2.88,-1.28 4.64,-1.28 8,-4 3.52,-2.72 5.28,-6.72 4,-8.96 7.52,-17.6 3.52,-8.8 6.88,-17.28 3.36,-8.64 6.72,-17.44 3.36,-8.96 6.72,-18.08 2.4,-6.56 3.04,-9.44 0.64,-3.04 0.96,-3.52 2.88,-0.8 5.44,-1.44 2.56,-0.64 5.44,-1.76 2.88,-1.12 4.8,-2.88 2.08,-1.76 3.04,-2.72 0.64,-0.48 1.28,-0.48 0.64,-0.16 1.28,0.96 0.48,0.96 0.8,2.08 0.48,0.96 0.8,2.24 3.36,10.72 6.88,21.92 3.52,11.04 7.039996,22.08 3.68,11.04 7.2,21.92 3.52,10.72 6.88,20.96 0.96,3.2 2.88,5.44 2.08,2.24 4.64,3.52 2.56,1.28 5.76,2.24 1.76,0.48 2.72,1.28 1.12,0.64 1.12,2.08 0,1.12 -0.96,1.76 -0.96,0.64 -2.24,0.64 -3.2,0 -8,-0.32 -4.64,-0.16 -9.44,-0.32 -4.8,-0.16 -8.48,-0.16 -3.04,0 -7.519996,0.16 -4.32,0.16 -8.8,0.32 -4.48,0.16 -7.68,0.16 -1.44,0 -2.56,-0.48 -0.96,-0.64 -0.96,-1.76 0,-1.44 1.12,-2.24 1.12,-0.8 2.72,-1.12 5.92,-1.28 8.64,-3.36 2.72,-2.08 1.76,-6.24 -0.64,-3.04 -1.6,-6.4 -0.96,-3.36 -1.92,-6.72 -0.8,-3.52 -1.76,-6.72 -0.32,-1.28 -0.8,-1.92 -0.48,-0.64 -1.92,-0.64 h -28.32 q -1.12,0 -1.76,0.64 -0.64,0.64 -0.96,2.08 -0.64,2.24 -1.44,4.48 -0.8,2.24 -1.6,4.48 -0.64,2.24 -1.28,4.48 -0.64,2.24 -1.28,4.32 -1.12,4.8 0.96,7.36 2.08,2.56 8.96,4.16 3.84,0.8 3.84,3.36 0,1.12 -0.96,1.76 -0.8,0.48 -2.72,0.48 -4.64,0 -8.64,-0.32 -4,-0.16 -8.8,-0.16 -4.8,0 -9.12,0.48 -4.32,0.48 -9.28,0.48 z m 38.56,-46.72 h 20.8 q 2.4,0 2.4,-1.12 0,-0.48 -0.16,-0.8 0,-0.32 -0.16,-0.8 l -10.72,-36.16 q -0.48,-1.76 -0.96,-1.76 -0.32,0 -1.12,1.76 l -12.64,36.16 q -0.32,0.64 -0.32,1.28 0,0.8 0.8,1.12 0.96,0.32 2.08,0.32 z"
       style="font-family:'EB Garamond';-inkscape-font-specification:'EB Garamond Bold'"
       id="path6297" />
    <path
       d="m -32.316564,-166.23 q -15.68,0 -24.48,-4.96 -8.64,-4.8 -8.64,-13.28 0,-4.8 1.12,-7.84 1.12,-2.88 5.12,-5.76 3.04,-2.24 5.92,-4.48 2.88,-2.24 4.96,-3.68 l 7.84,2.72 q -4.96,2.88 -7.84,6.24 -2.72,3.36 -2.72,7.84 0,6.56 5.44,10.88 5.6,4.32 13.92,4.32 11.04,0 15.68,-4.32 2.88,-2.88 4.64,-6.56 1.76,-3.52 1.76,-7.2 0,-2.56 -1.76,-4.16 -1.76,-1.6 -6.4,-2.72 -4.48,-1.12 -12.64,-1.92 -16.64,-1.6 -23.68,-6.24 -7.04,-4.64 -7.04,-12.32 0,-1.44 0.8,-2.88 0.96,-1.6 3.52,-3.36 2.56,-1.92 4.64,-3.36 2.08,-1.6 3.52,-2.88 1.44,-1.44 1.92,-2.56 l 8,2.72 q -3.2,1.12 -5.28,3.04 -1.92,1.92 -1.92,3.36 0,1.76 2.08,2.88 2.08,1.12 7.04,1.92 4.96,0.64 13.6,1.28 17.28,1.44 25.12,5.44 7.84,3.84 7.84,11.36 0,6.56 -3.68,12.96 -3.68,6.56 -9.76,11.84 -6.08,5.44 -13.6,8.48 -7.36,3.2 -15.04,3.2 z m 2.08,-68.64 q 5.12,0 8,-5.6 3.04,-5.76 3.04,-15.04 0,-5.92 -1.6,-10.24 -1.44,-4.48 -4,-6.88 -2.56,-2.56 -6.08,-2.56 -3.04,0 -5.6,2.56 -2.56,2.56 -4.16,6.88 -1.44,4.16 -1.44,9.76 0,5.92 1.6,10.72 1.6,4.8 4.32,7.68 2.72,2.72 5.92,2.72 z m -1.76,7.04 q -7.04,0 -13.92,-3.36 -6.72,-3.52 -11.2,-9.6 -4.32,-6.08 -4.32,-13.6 0,-8 4.48,-14.24 4.64,-6.24 12,-9.6 7.52,-3.52 15.84,-3.52 4.96,0 9.28,1.12 4.48,1.12 9.76,1.92 3.04,0.64 6.08,0.96 3.03999997,0.32 6.72,0.32 2.4,0 4.8,-0.16 2.4,-0.32 4,-0.32 2.56,0 2.56,3.52 0,3.04 -2.08,5.76 -0.96,1.12 -2.08,1.12 h -4.32 q -4.16,0 -5.60000003,1.28 -0.32,0.32 -0.48,0.8 -0.16,0.32 -0.32,1.76 0,1.28 0,4.96 0,8.32 -4.31999997,15.36 -4.32,7.04 -11.36,11.36 -7.04,4.16 -15.52,4.16 z"
       style="font-family:'EB Garamond';-inkscape-font-specification:'EB Garamond Bold'"
       id="path6299" />
  </g>
  <g
     stroke="#77868b"
     stroke-width="8"
     fill="none"
     id="g18"
     transform="translate(-84.37281,-243.68)">
    <circle
       id="shell_1"
       r="300"
       cx="0"
       cy="0" />
    <use
       id="electron_0_shell_1"
       xlink:href="#electron"
       y="-300"
       x="0"
       width="100%"
       height="100%" />
    <use
       id="electron_1_shell_1"
       xlink:href="#electron_0_shell_1"
       transform="scale(-1)"
       x="0"
       y="0"
       width="100%"
       height="100%" />
    <circle
       id="shell_2"
       r="400"
       cx="0"
       cy="0" />
    <use
       id="electron_0_shell_2"
       xlink:href="#electron"
       y="-400"
       x="0"
       width="100%"
       height="100%" />
    <use
       id="electron_1_shell_2"
       xlink:href="#electron_0_shell_2"
       transform="rotate(45)"
       x="0"
       y="0"
       width="100%"
       height="100%" />
    <use
       id="electron_2_shell_2"
       xlink:href="#electron_0_shell_2"
       transform="rotate(90)"
       x="0"
       y="0"
       width="100%"
       height="100%" />
    <use
       id="electron_3_shell_2"
       xlink:href="#electron_0_shell_2"
       transform="rotate(135)"
       x="0"
       y="0"
       width="100%"
       height="100%" />
    <use
       id="electron_4_shell_2"
       xlink:href="#electron_0_shell_2"
       transform="scale(-1)"
       x="0"
       y="0"
       width="100%"
       height="100%" />
    <use
       id="electron_5_shell_2"
       xlink:href="#electron_0_shell_2"
       transform="rotate(-135)"
       x="0"
       y="0"
       width="100%"
       height="100%" />
    <use
       id="electron_6_shell_2"
       xlink:href="#electron_0_shell_2"
       transform="rotate(-90)"
       x="0"
       y="0"
       width="100%"
       height="100%" />
    <use
       id="electron_7_shell_2"
       xlink:href="#electron_0_shell_2"
       transform="rotate(-45)"
       x="0"
       y="0"
       width="100%"
       height="100%" />
    <circle
       id="shell_3"
       r="500"
       cx="0"
       cy="0" />
    <use
       id="electron_0_shell_3"
       xlink:href="#electron"
       y="-500"
       x="0"
       width="100%"
       height="100%" />
    <use
       id="electron_1_shell_3"
       xlink:href="#electron_0_shell_3"
       transform="rotate(20)"
       x="0"
       y="0"
       width="100%"
       height="100%" />
    <use
       id="electron_2_shell_3"
       xlink:href="#electron_0_shell_3"
       transform="rotate(40)"
       x="0"
       y="0"
       width="100%"
       height="100%" />
    <use
       id="electron_3_shell_3"
       xlink:href="#electron_0_shell_3"
       transform="rotate(60)"
       x="0"
       y="0"
       width="100%"
       height="100%" />
    <use
       id="electron_4_shell_3"
       xlink:href="#electron_0_shell_3"
       transform="rotate(80)"
       x="0"
       y="0"
       width="100%"
       height="100%" />
    <use
       id="electron_5_shell_3"
       xlink:href="#electron_0_shell_3"
       transform="rotate(100)"
       x="0"
       y="0"
       width="100%"
       height="100%" />
    <use
       id="electron_6_shell_3"
       xlink:href="#electron_0_shell_3"
       transform="rotate(120)"
       x="0"
       y="0"
       width="100%"
       height="100%" />
    <use
       id="electron_7_shell_3"
       xlink:href="#electron_0_shell_3"
       transform="rotate(140)"
       x="0"
       y="0"
       width="100%"
       height="100%" />
    <use
       id="electron_8_shell_3"
       xlink:href="#electron_0_shell_3"
       transform="rotate(160)"
       x="0"
       y="0"
       width="100%"
       height="100%" />
    <use
       id="electron_9_shell_3"
       xlink:href="#electron_0_shell_3"
       transform="scale(-1)"
       x="0"
       y="0"
       width="100%"
       height="100%" />
    <use
       id="electron_10_shell_3"
       xlink:href="#electron_0_shell_3"
       transform="rotate(-160)"
       x="0"
       y="0"
       width="100%"
       height="100%" />
    <use
       id="electron_11_shell_3"
       xlink:href="#electron_0_shell_3"
       transform="rotate(-140)"
       x="0"
       y="0"
       width="100%"
       height="100%" />
    <use
       id="electron_12_shell_3"
       xlink:href="#electron_0_shell_3"
       transform="rotate(-120)"
       x="0"
       y="0"
       width="100%"
       height="100%" />
    <use
       id="electron_13_shell_3"
       xlink:href="#electron_0_shell_3"
       transform="rotate(-100)"
       x="0"
       y="0"
       width="100%"
       height="100%" />
    <use
       id="electron_14_shell_3"
       xlink:href="#electron_0_shell_3"
       transform="rotate(-80)"
       x="0"
       y="0"
       width="100%"
       height="100%" />
    <use
       id="electron_15_shell_3"
       xlink:href="#electron_0_shell_3"
       transform="rotate(-60)"
       x="0"
       y="0"
       width="100%"
       height="100%" />
    <use
       id="electron_16_shell_3"
       xlink:href="#electron_0_shell_3"
       transform="rotate(-40)"
       x="0"
       y="0"
       width="100%"
       height="100%" />
    <use
       id="electron_17_shell_3"
       xlink:href="#electron_0_shell_3"
       transform="rotate(-20)"
       x="0"
       y="0"
       width="100%"
       height="100%" />
    <circle
       id="shell_4"
       r="600"
       cx="0"
       cy="0" />
    <use
       id="electron_0_shell_4"
       xlink:href="#electron"
       y="-600"
       x="0"
       width="100%"
       height="100%" />
    <use
       id="electron_1_shell_4"
       xlink:href="#electron_0_shell_4"
       transform="rotate(20)"
       x="0"
       y="0"
       width="100%"
       height="100%" />
    <use
       id="electron_2_shell_4"
       xlink:href="#electron_0_shell_4"
       transform="rotate(40)"
       x="0"
       y="0"
       width="100%"
       height="100%" />
    <use
       id="electron_3_shell_4"
       xlink:href="#electron_0_shell_4"
       transform="rotate(60)"
       x="0"
       y="0"
       width="100%"
       height="100%" />
    <use
       id="electron_4_shell_4"
       xlink:href="#electron_0_shell_4"
       transform="rotate(80)"
       x="0"
       y="0"
       width="100%"
       height="100%" />
    <use
       id="electron_5_shell_4"
       xlink:href="#electron_0_shell_4"
       transform="rotate(100)"
       x="0"
       y="0"
       width="100%"
       height="100%" />
    <use
       id="electron_6_shell_4"
       xlink:href="#electron_0_shell_4"
       transform="rotate(120)"
       x="0"
       y="0"
       width="100%"
       height="100%" />
    <use
       id="electron_7_shell_4"
       xlink:href="#electron_0_shell_4"
       transform="rotate(140)"
       x="0"
       y="0"
       width="100%"
       height="100%" />
    <use
       id="electron_8_shell_4"
       xlink:href="#electron_0_shell_4"
       transform="rotate(160)"
       x="0"
       y="0"
       width="100%"
       height="100%" />
    <use
       id="electron_9_shell_4"
       xlink:href="#electron_0_shell_4"
       transform="scale(-1)"
       x="0"
       y="0"
       width="100%"
       height="100%" />
    <use
       id="electron_10_shell_4"
       xlink:href="#electron_0_shell_4"
       transform="rotate(-160)"
       x="0"
       y="0"
       width="100%"
       height="100%" />
    <use
       id="electron_11_shell_4"
       xlink:href="#electron_0_shell_4"
       transform="rotate(-140)"
       x="0"
       y="0"
       width="100%"
       height="100%" />
    <use
       id="electron_12_shell_4"
       xlink:href="#electron_0_shell_4"
       transform="rotate(-120)"
       x="0"
       y="0"
       width="100%"
       height="100%" />
    <use
       id="electron_13_shell_4"
       xlink:href="#electron_0_shell_4"
       transform="rotate(-100)"
       x="0"
       y="0"
       width="100%"
       height="100%" />
    <use
       id="electron_14_shell_4"
       xlink:href="#electron_0_shell_4"
       transform="rotate(-80)"
       x="0"
       y="0"
       width="100%"
       height="100%" />
    <use
       id="electron_15_shell_4"
       xlink:href="#electron_0_shell_4"
       transform="rotate(-60)"
       x="0"
       y="0"
       width="100%"
       height="100%" />
    <use
       id="electron_16_shell_4"
       xlink:href="#electron_0_shell_4"
       transform="rotate(-40)"
       x="0"
       y="0"
       width="100%"
       height="100%" />
    <use
       id="electron_17_shell_4"
       xlink:href="#electron_0_shell_4"
       transform="rotate(-20)"
       x="0"
       y="0"
       width="100%"
       height="100%" />
    <circle
       id="shell_5"
       r="700"
       cx="0"
       cy="0" />
    <use
       id="electron_0_shell_5"
       xlink:href="#electron"
       y="-700"
       x="0"
       width="100%"
       height="100%" />
  </g>
</svg>
