<?xml version="1.0" encoding="UTF-8" standalone="no"?>
<svg
   width="198.820343pt"
   height="88.418129pt"
   viewBox="0 0 198.820343 88.418129"
   version="1.1"
   id="svg36"
   sodipodi:docname="induccion-mutua.svg"
   inkscape:version="1.3.2 (091e20e, 2023-11-25)"
   xmlns:inkscape="http://www.inkscape.org/namespaces/inkscape"
   xmlns:sodipodi="http://sodipodi.sourceforge.net/DTD/sodipodi-0.dtd"
   xmlns="http://www.w3.org/2000/svg"
   xmlns:svg="http://www.w3.org/2000/svg">
  <sodipodi:namedview
     id="namedview36"
     pagecolor="#ffffff"
     bordercolor="#000000"
     borderopacity="0.25"
     inkscape:showpageshadow="2"
     inkscape:pageopacity="0.0"
     inkscape:pagecheckerboard="0"
     inkscape:deskcolor="#d1d1d1"
     inkscape:document-units="pt"
     inkscape:zoom="2.0018519"
     inkscape:cx="132.62719"
     inkscape:cy="58.945419"
     inkscape:window-width="1376"
     inkscape:window-height="449"
     inkscape:window-x="0"
     inkscape:window-y="25"
     inkscape:window-maximized="0"
     inkscape:current-layer="svg36" />
  <defs
     id="defs7">
    <clipPath
       id="clip-0">
      <path
         clip-rule="nonzero"
         d="M 28 83 L 31 83 L 31 88.417969 L 28 88.417969 Z M 28 83 "
         id="path1" />
    </clipPath>
    <clipPath
       id="clip-1">
      <path
         clip-rule="nonzero"
         d="M 113 15 L 198.820312 15 L 198.820312 72.683594 L 113 72.683594 Z M 113 15 "
         id="path2" />
    </clipPath>
    <clipPath
       id="clip-2">
      <path
         clip-rule="nonzero"
         d="M 132 49 L 180 49 L 180 88.417969 L 132 88.417969 Z M 132 49 "
         id="path3" />
    </clipPath>
    <clipPath
       id="clip-3">
      <path
         clip-rule="nonzero"
         d="M 140 54 L 170 54 L 170 88.417969 L 140 88.417969 Z M 140 54 "
         id="path4" />
    </clipPath>
    <clipPath
       id="clip-4">
      <path
         clip-rule="nonzero"
         d="M 132.296875 96.074219 L 179.917969 96.074219 L 179.917969 48.449219 L 132.296875 48.449219 Z M 156.105469 65.117188 C 152.160156 65.117188 148.964844 68.316406 148.964844 72.261719 C 148.964844 76.207031 152.160156 79.40625 156.105469 79.40625 C 160.050781 79.40625 163.25 76.207031 163.25 72.261719 C 163.25 68.316406 160.050781 65.117188 156.105469 65.117188 Z M 156.105469 65.117188 "
         id="path5" />
    </clipPath>
    <clipPath
       id="clip-5">
      <path
         clip-rule="nonzero"
         d="M 162 57.683594 L 166 57.683594 L 166 62.683594 L 162 62.683594 Z M 162 57.683594 "
         id="path6" />
    </clipPath>
    <clipPath
       id="clip-6">
      <path
         clip-rule="nonzero"
         d="M 132.296875 96.074219 L 179.917969 96.074219 L 179.917969 48.449219 L 132.296875 48.449219 Z M 156.105469 65.117188 C 152.160156 65.117188 148.964844 68.316406 148.964844 72.261719 C 148.964844 76.207031 152.160156 79.40625 156.105469 79.40625 C 160.050781 79.40625 163.25 76.207031 163.25 72.261719 C 163.25 68.316406 160.050781 65.117188 156.105469 65.117188 Z M 156.105469 65.117188 "
         id="path7" />
    </clipPath>
  </defs>
  <path
     fill="none"
     stroke-width="0.3985"
     stroke-linecap="butt"
     stroke-linejoin="miter"
     stroke="rgb(0%, 0%, 0%)"
     stroke-opacity="1"
     stroke-miterlimit="10"
     d="M 0.199219 72.261719 L 12.671875 72.261719 M 44.421875 72.261719 L 65.113281 72.261719 M 77.019531 72.261719 L 85.238281 72.261719 L 85.238281 15.570312 L 54.625 15.570312 M 30.8125 15.570312 L 0.199219 15.570312 L 0.199219 72.261719 "
     id="path8" />
  <path
     fill="none"
     stroke-width="0.797"
     stroke-linecap="butt"
     stroke-linejoin="bevel"
     stroke="rgb(0%, 0%, 0%)"
     stroke-opacity="1"
     stroke-miterlimit="10"
     d="M 12.273438 72.261719 L 15.316406 66.308594 L 20.609375 78.214844 L 25.898438 66.308594 L 31.191406 78.214844 L 36.484375 66.308594 L 41.773438 78.214844 L 44.820312 72.261719 "
     id="path9" />
  <path
     fill="none"
     stroke-width="0.3985"
     stroke-linecap="butt"
     stroke-linejoin="miter"
     stroke="rgb(0%, 0%, 0%)"
     stroke-opacity="1"
     stroke-miterlimit="10"
     d="M 73.03125 72.261719 L 77.019531 72.261719 M 69.101562 72.261719 L 65.113281 72.261719 "
     id="path10" />
  <path
     fill="none"
     stroke-width="0.797"
     stroke-linecap="butt"
     stroke-linejoin="miter"
     stroke="rgb(0%, 0%, 0%)"
     stroke-opacity="1"
     stroke-miterlimit="10"
     d="M 73.03125 66.308594 L 73.03125 78.214844 M 69.101562 60.355469 L 69.101562 84.167969 "
     id="path11" />
  <path
     fill-rule="nonzero"
     fill="rgb(0%, 0%, 0%)"
     fill-opacity="1"
     stroke-width="0.3985"
     stroke-linecap="butt"
     stroke-linejoin="miter"
     stroke="rgb(0%, 0%, 0%)"
     stroke-opacity="1"
     stroke-miterlimit="10"
     d="M 62.738281 72.261719 L 62.738281 70.277344 L 58.523438 72.261719 L 62.738281 74.246094 Z M 62.738281 72.261719 "
     id="path12" />
  <path
     fill-rule="nonzero"
     fill="rgb(0%, 0%, 0%)"
     fill-opacity="1"
     d="M 57.679688 66.28125 C 58.179688 66.28125 58.414062 66.234375 58.867188 66.234375 C 59.304688 66.234375 59.445312 66.28125 59.945312 66.28125 C 60.101562 66.28125 60.242188 66.25 60.242188 66.171875 C 60.242188 66.078125 60.195312 66.03125 59.992188 66 C 59.554688 65.90625 59.351562 65.71875 59.492188 65.25 L 60.867188 60.75 C 61.007812 60.28125 61.257812 60.125 61.742188 60.03125 C 61.976562 60 62.117188 59.921875 62.117188 59.828125 C 62.117188 59.75 62.023438 59.71875 61.867188 59.71875 C 61.367188 59.71875 61.257812 59.75 60.851562 59.75 C 60.429688 59.75 60.273438 59.71875 59.773438 59.71875 C 59.617188 59.71875 59.476562 59.75 59.476562 59.828125 C 59.476562 59.921875 59.523438 60 59.710938 60.03125 C 60.164062 60.125 60.273438 60.28125 60.132812 60.75 L 58.757812 65.25 C 58.617188 65.71875 58.289062 65.90625 57.789062 66 C 57.570312 66.03125 57.429688 66.078125 57.429688 66.171875 C 57.429688 66.25 57.507812 66.28125 57.679688 66.28125 Z M 57.679688 66.28125 "
     id="path13" />
  <path
     fill-rule="nonzero"
     fill="rgb(0%, 0%, 0%)"
     fill-opacity="1"
     d="M 61.136719 68.738281 C 61.511719 68.738281 61.839844 68.707031 62.214844 68.707031 C 62.558594 68.707031 62.871094 68.738281 63.246094 68.738281 C 63.308594 68.738281 63.355469 68.707031 63.355469 68.660156 C 63.355469 68.613281 63.277344 68.582031 63.230469 68.566406 C 62.683594 68.441406 62.496094 68.394531 62.496094 68.050781 L 62.496094 64.847656 C 62.496094 64.644531 62.511719 64.472656 62.527344 64.347656 C 62.542969 64.316406 62.480469 64.285156 62.433594 64.285156 C 62.433594 64.285156 62.402344 64.285156 62.402344 64.285156 C 62.074219 64.597656 61.730469 64.660156 61.308594 64.722656 C 61.214844 64.738281 61.136719 64.785156 61.136719 64.847656 C 61.136719 64.941406 61.214844 64.972656 61.308594 64.972656 C 61.605469 65.003906 61.902344 65.050781 61.902344 65.332031 L 61.902344 67.972656 C 61.902344 68.363281 61.652344 68.441406 61.136719 68.566406 C 61.089844 68.582031 61.042969 68.613281 61.042969 68.660156 C 61.042969 68.707031 61.074219 68.738281 61.136719 68.738281 Z M 61.136719 68.738281 "
     id="path14" />
  <path
     fill="none"
     stroke-width="0.797"
     stroke-linecap="butt"
     stroke-linejoin="bevel"
     stroke="rgb(0%, 0%, 0%)"
     stroke-opacity="1"
     stroke-miterlimit="10"
     d="M 55.023438 15.410156 C 55.023438 18.699219 53.390625 21.363281 51.371094 21.363281 C 49.355469 21.363281 47.722656 18.699219 47.722656 15.410156 C 47.722656 13.765625 48.386719 12.433594 49.207031 12.433594 C 50.03125 12.433594 50.695312 13.765625 50.695312 15.410156 C 50.695312 18.699219 49.0625 21.363281 47.046875 21.363281 C 45.027344 21.363281 43.394531 18.699219 43.394531 15.410156 C 43.394531 13.765625 44.0625 12.433594 44.882812 12.433594 C 45.703125 12.433594 46.371094 13.765625 46.371094 15.410156 C 46.371094 18.699219 44.734375 21.363281 42.71875 21.363281 C 40.703125 21.363281 39.066406 18.699219 39.066406 15.410156 C 39.066406 13.765625 39.734375 12.433594 40.554688 12.433594 C 41.378906 12.433594 42.042969 13.765625 42.042969 15.410156 C 42.042969 18.699219 40.410156 21.363281 38.394531 21.363281 C 36.375 21.363281 34.742188 18.699219 34.742188 15.410156 C 34.742188 13.765625 35.40625 12.433594 36.230469 12.433594 C 37.050781 12.433594 37.71875 13.765625 37.71875 15.410156 C 37.71875 18.699219 36.082031 21.363281 34.066406 21.363281 C 32.050781 21.363281 30.414062 18.699219 30.414062 15.410156 "
     id="path15" />
  <path
     fill-rule="nonzero"
     fill="rgb(0%, 0%, 0%)"
     fill-opacity="1"
     stroke-width="0.3985"
     stroke-linecap="butt"
     stroke-linejoin="miter"
     stroke="rgb(0%, 0%, 0%)"
     stroke-opacity="1"
     stroke-miterlimit="10"
     d="M 68.195312 15.570312 L 68.195312 17.554688 L 72.414062 15.570312 L 68.195312 13.585938 Z M 68.195312 15.570312 "
     id="path16" />
  <path
     fill-rule="nonzero"
     fill="rgb(0%, 0%, 0%)"
     fill-opacity="1"
     d="M 66.609375 25.644531 C 67.109375 25.644531 67.34375 25.597656 67.796875 25.597656 C 68.234375 25.597656 68.375 25.644531 68.875 25.644531 C 69.03125 25.644531 69.171875 25.613281 69.171875 25.535156 C 69.171875 25.441406 69.125 25.394531 68.921875 25.363281 C 68.484375 25.269531 68.28125 25.082031 68.421875 24.613281 L 69.796875 20.113281 C 69.9375 19.644531 70.1875 19.488281 70.671875 19.394531 C 70.90625 19.363281 71.046875 19.285156 71.046875 19.191406 C 71.046875 19.113281 70.953125 19.082031 70.796875 19.082031 C 70.296875 19.082031 70.1875 19.113281 69.78125 19.113281 C 69.359375 19.113281 69.203125 19.082031 68.703125 19.082031 C 68.546875 19.082031 68.40625 19.113281 68.40625 19.191406 C 68.40625 19.285156 68.453125 19.363281 68.640625 19.394531 C 69.09375 19.488281 69.203125 19.644531 69.0625 20.113281 L 67.6875 24.613281 C 67.546875 25.082031 67.21875 25.269531 66.71875 25.363281 C 66.5 25.394531 66.359375 25.441406 66.359375 25.535156 C 66.359375 25.613281 66.4375 25.644531 66.609375 25.644531 Z M 66.609375 25.644531 "
     id="path17" />
  <path
     fill-rule="nonzero"
     fill="rgb(0%, 0%, 0%)"
     fill-opacity="1"
     d="M 70.066406 28.101562 C 70.441406 28.101562 70.769531 28.070312 71.144531 28.070312 C 71.488281 28.070312 71.800781 28.101562 72.175781 28.101562 C 72.238281 28.101562 72.285156 28.070312 72.285156 28.023438 C 72.285156 27.976562 72.207031 27.945312 72.160156 27.929688 C 71.613281 27.804688 71.425781 27.757812 71.425781 27.414062 L 71.425781 24.210938 C 71.425781 24.007812 71.441406 23.835938 71.457031 23.710938 C 71.472656 23.679688 71.410156 23.648438 71.363281 23.648438 C 71.363281 23.648438 71.332031 23.648438 71.332031 23.648438 C 71.003906 23.960938 70.660156 24.023438 70.238281 24.085938 C 70.144531 24.101562 70.066406 24.148438 70.066406 24.210938 C 70.066406 24.304688 70.144531 24.335938 70.238281 24.335938 C 70.535156 24.367188 70.832031 24.414062 70.832031 24.695312 L 70.832031 27.335938 C 70.832031 27.726562 70.582031 27.804688 70.066406 27.929688 C 70.019531 27.945312 69.972656 27.976562 69.972656 28.023438 C 69.972656 28.070312 70.003906 28.101562 70.066406 28.101562 Z M 70.066406 28.101562 "
     id="path18" />
  <path
     fill-rule="nonzero"
     fill="rgb(0%, 0%, 0%)"
     fill-opacity="1"
     d="M 25.910156 86.082031 C 26.066406 86.082031 26.175781 85.800781 26.535156 85.160156 C 26.941406 84.441406 27.660156 83.332031 27.957031 82.957031 C 28.285156 82.519531 28.503906 82.378906 28.628906 82.378906 C 28.769531 82.378906 28.816406 82.488281 28.816406 82.691406 C 28.816406 82.894531 28.878906 83.035156 28.988281 83.035156 C 29.269531 83.035156 29.488281 82.597656 29.488281 82.238281 C 29.488281 81.957031 29.347656 81.738281 29.019531 81.738281 C 28.550781 81.738281 27.675781 82.644531 26.878906 84.019531 C 26.847656 84.082031 26.707031 84.050781 26.753906 83.957031 L 27.207031 82.832031 C 27.441406 82.238281 27.550781 81.785156 27.003906 81.785156 C 26.769531 81.785156 26.535156 81.878906 26.378906 81.988281 C 26.207031 82.113281 26.097656 82.253906 26.097656 82.363281 C 26.097656 82.457031 26.191406 82.488281 26.269531 82.441406 C 26.363281 82.394531 26.566406 82.332031 26.753906 82.332031 C 26.878906 82.332031 26.863281 82.503906 26.816406 82.675781 L 25.894531 85.066406 C 25.753906 85.457031 25.660156 85.675781 25.660156 85.847656 C 25.660156 85.957031 25.816406 86.082031 25.910156 86.082031 Z M 25.910156 86.082031 "
     id="path19" />
  <g
     clip-path="url(#clip-0)"
     id="g20">
    <path
       fill-rule="nonzero"
       fill="rgb(0%, 0%, 0%)"
       fill-opacity="1"
       d="M 28.488281 88.417969 C 28.863281 88.417969 29.191406 88.386719 29.566406 88.386719 C 29.910156 88.386719 30.222656 88.417969 30.597656 88.417969 C 30.660156 88.417969 30.707031 88.386719 30.707031 88.339844 C 30.707031 88.292969 30.628906 88.261719 30.582031 88.246094 C 30.035156 88.121094 29.847656 88.074219 29.847656 87.730469 L 29.847656 84.527344 C 29.847656 84.324219 29.863281 84.152344 29.878906 84.027344 C 29.894531 83.996094 29.832031 83.964844 29.785156 83.964844 C 29.785156 83.964844 29.753906 83.964844 29.753906 83.964844 C 29.425781 84.277344 29.082031 84.339844 28.660156 84.402344 C 28.566406 84.417969 28.488281 84.464844 28.488281 84.527344 C 28.488281 84.621094 28.566406 84.652344 28.660156 84.652344 C 28.957031 84.683594 29.253906 84.730469 29.253906 85.011719 L 29.253906 87.652344 C 29.253906 88.042969 29.003906 88.121094 28.488281 88.246094 C 28.441406 88.261719 28.394531 88.292969 28.394531 88.339844 C 28.394531 88.386719 28.425781 88.417969 28.488281 88.417969 Z M 28.488281 88.417969 "
       id="path20" />
  </g>
  <path
     fill-rule="nonzero"
     fill="rgb(0%, 0%, 0%)"
     fill-opacity="1"
     d="M 37.3125 6.609375 C 37.8125 6.609375 37.96875 6.5625 38.375 6.5625 C 38.71875 6.5625 38.859375 6.609375 39.359375 6.609375 C 39.53125 6.609375 39.65625 6.578125 39.65625 6.5 C 39.65625 6.40625 39.578125 6.375 39.375 6.328125 C 38.859375 6.234375 38.671875 5.984375 38.75 5.609375 C 39.109375 4.15625 39.640625 2.515625 39.90625 1.53125 C 39.96875 1.3125 40.078125 1.1875 40.140625 1.1875 C 40.21875 1.1875 40.296875 1.28125 40.375 1.421875 C 41.15625 2.890625 41.921875 4.84375 42.640625 6.359375 C 42.75 6.5625 42.859375 6.609375 43.0625 6.609375 C 43.234375 6.609375 43.46875 6.5625 43.828125 6.5625 C 43.875 6.5625 43.90625 6.5625 43.90625 6.5 C 43.90625 6.375 43.828125 6.3125 43.71875 6.234375 C 43.609375 6.15625 43.46875 6.09375 43.390625 5.90625 C 43.328125 5.75 43.296875 5.640625 43.359375 5.4375 C 43.484375 4.984375 44.75 1.265625 44.84375 1.03125 C 45.0625 0.515625 45.171875 0.40625 45.671875 0.359375 C 45.90625 0.34375 46.046875 0.25 46.046875 0.15625 C 46.046875 0.078125 45.96875 0.046875 45.8125 0.046875 C 45.25 0.046875 45.0625 0.109375 44.671875 0.109375 C 44.28125 0.109375 43.953125 0.078125 43.59375 0.078125 C 43.4375 0.078125 43.265625 0.109375 43.265625 0.1875 C 43.265625 0.28125 43.34375 0.359375 43.546875 0.375 C 44.171875 0.484375 44.421875 0.671875 44.3125 1.140625 C 44.25 1.453125 43.296875 4.59375 43.140625 5.015625 C 43.078125 5.171875 43.046875 5.21875 43 5.21875 C 42.9375 5.21875 42.828125 5.09375 42.796875 5.03125 L 40.515625 0.21875 C 40.46875 0.125 40.375 0.046875 40.265625 0.046875 C 39.921875 0.046875 39.515625 0 38.96875 0 C 38.90625 0 38.734375 0.015625 38.734375 0.140625 C 38.734375 0.25 38.890625 0.3125 39.109375 0.328125 C 39.875 0.375 39.859375 0.71875 39.65625 1.3125 L 38.28125 5.609375 C 38.171875 5.9375 37.984375 6.1875 37.359375 6.328125 C 37.125 6.375 37.078125 6.40625 37.078125 6.5 C 37.078125 6.578125 37.15625 6.609375 37.3125 6.609375 Z M 37.3125 6.609375 "
     id="path21" />
  <path
     fill-rule="nonzero"
     fill="rgb(0%, 0%, 0%)"
     fill-opacity="1"
     d="M 44.949219 9.070312 C 45.324219 9.070312 45.652344 9.039062 46.027344 9.039062 C 46.371094 9.039062 46.683594 9.070312 47.058594 9.070312 C 47.121094 9.070312 47.167969 9.039062 47.167969 8.992188 C 47.167969 8.945312 47.089844 8.914062 47.042969 8.898438 C 46.496094 8.773438 46.308594 8.726562 46.308594 8.382812 L 46.308594 5.179688 C 46.308594 4.976562 46.324219 4.804688 46.339844 4.679688 C 46.355469 4.648438 46.292969 4.617188 46.246094 4.617188 C 46.246094 4.617188 46.214844 4.617188 46.214844 4.617188 C 45.886719 4.929688 45.542969 4.992188 45.121094 5.054688 C 45.027344 5.070312 44.949219 5.117188 44.949219 5.179688 C 44.949219 5.273438 45.027344 5.304688 45.121094 5.304688 C 45.417969 5.335938 45.714844 5.382812 45.714844 5.664062 L 45.714844 8.304688 C 45.714844 8.695312 45.464844 8.773438 44.949219 8.898438 C 44.902344 8.914062 44.855469 8.945312 44.855469 8.992188 C 44.855469 9.039062 44.886719 9.070312 44.949219 9.070312 Z M 44.949219 9.070312 "
     id="path22" />
  <g
     clip-path="url(#clip-1)"
     id="g23">
    <path
       fill="none"
       stroke-width="0.3985"
       stroke-linecap="butt"
       stroke-linejoin="miter"
       stroke="rgb(0%, 0%, 0%)"
       stroke-opacity="1"
       stroke-miterlimit="10"
       d="M 113.585938 72.261719 L 144.199219 72.261719 M 168.011719 72.261719 L 198.625 72.261719 L 198.625 15.570312 L 168.011719 15.570312 M 144.199219 15.570312 L 113.585938 15.570312 L 113.585938 72.261719 "
       id="path23" />
  </g>
  <g
     clip-path="url(#clip-2)"
     id="g24">
    <path
       fill="none"
       stroke-width="0.797"
       stroke-linecap="butt"
       stroke-linejoin="miter"
       stroke="rgb(0%, 0%, 0%)"
       stroke-opacity="1"
       stroke-miterlimit="10"
       d="M 156.105469 60.355469 C 149.53125 60.355469 144.199219 65.6875 144.199219 72.261719 C 144.199219 78.839844 149.53125 84.167969 156.105469 84.167969 C 162.683594 84.167969 168.011719 78.839844 168.011719 72.261719 C 168.011719 65.6875 162.683594 60.355469 156.105469 60.355469 Z M 156.105469 60.355469 "
       id="path24" />
  </g>
  <g
     clip-path="url(#clip-3)"
     id="g26">
    <g
       clip-path="url(#clip-4)"
       id="g25">
      <path
         fill="none"
         stroke-width="0.3985"
         stroke-linecap="butt"
         stroke-linejoin="miter"
         stroke="rgb(0%, 0%, 0%)"
         stroke-opacity="1"
         stroke-miterlimit="10"
         d="M 146.582031 86.550781 L 164.304688 59.964844 "
         id="path25" />
    </g>
  </g>
  <g
     clip-path="url(#clip-5)"
     id="g28">
    <g
       clip-path="url(#clip-6)"
       id="g27">
      <path
         fill-rule="evenodd"
         fill="rgb(0%, 0%, 0%)"
         fill-opacity="1"
         d="M 165.632812 57.976562 C 164.914062 58.695312 163.585938 59.964844 162.175781 60.460938 C 163.640625 60.242188 164.304688 60.683594 164.664062 62.121094 C 164.582031 60.628906 165.246094 58.914062 165.632812 57.976562 Z M 165.632812 57.976562 "
         id="path26" />
    </g>
  </g>
  <path
     fill-rule="nonzero"
     fill="rgb(0%, 0%, 0%)"
     fill-opacity="1"
     stroke-width="0.3985"
     stroke-linecap="butt"
     stroke-linejoin="miter"
     stroke="rgb(0%, 0%, 0%)"
     stroke-opacity="1"
     stroke-miterlimit="10"
     d="M 130.628906 72.261719 L 130.628906 70.277344 L 126.414062 72.261719 L 130.628906 74.246094 Z M 130.628906 72.261719 "
     id="path28" />
  <path
     fill-rule="nonzero"
     fill="rgb(0%, 0%, 0%)"
     fill-opacity="1"
     d="M 125.605469 66.28125 C 126.105469 66.28125 126.339844 66.234375 126.792969 66.234375 C 127.230469 66.234375 127.371094 66.28125 127.871094 66.28125 C 128.027344 66.28125 128.167969 66.25 128.167969 66.171875 C 128.167969 66.078125 128.121094 66.03125 127.917969 66 C 127.480469 65.90625 127.277344 65.71875 127.417969 65.25 L 128.792969 60.75 C 128.933594 60.28125 129.183594 60.125 129.667969 60.03125 C 129.902344 60 130.042969 59.921875 130.042969 59.828125 C 130.042969 59.75 129.949219 59.71875 129.792969 59.71875 C 129.292969 59.71875 129.183594 59.75 128.777344 59.75 C 128.355469 59.75 128.199219 59.71875 127.699219 59.71875 C 127.542969 59.71875 127.402344 59.75 127.402344 59.828125 C 127.402344 59.921875 127.449219 60 127.636719 60.03125 C 128.089844 60.125 128.199219 60.28125 128.058594 60.75 L 126.683594 65.25 C 126.542969 65.71875 126.214844 65.90625 125.714844 66 C 125.496094 66.03125 125.355469 66.078125 125.355469 66.171875 C 125.355469 66.25 125.433594 66.28125 125.605469 66.28125 Z M 125.605469 66.28125 "
     id="path29" />
  <path
     fill-rule="nonzero"
     fill="rgb(0%, 0%, 0%)"
     fill-opacity="1"
     d="M 131.101562 68.738281 C 131.132812 68.738281 131.210938 68.722656 131.242188 68.582031 C 131.304688 68.253906 131.445312 67.941406 131.460938 67.832031 C 131.460938 67.785156 131.460938 67.738281 131.414062 67.738281 C 131.335938 67.738281 131.273438 67.847656 131.242188 67.894531 C 131.070312 68.175781 130.960938 68.222656 130.585938 68.238281 C 130.335938 68.253906 130.070312 68.269531 129.804688 68.269531 C 129.554688 68.269531 129.351562 68.253906 129.195312 68.238281 C 129.132812 68.238281 129.101562 68.222656 129.101562 68.191406 C 129.101562 68.160156 130.210938 67.082031 130.539062 66.707031 C 130.820312 66.363281 131.054688 65.863281 131.054688 65.488281 C 131.054688 64.816406 130.617188 64.332031 129.929688 64.332031 C 129.132812 64.332031 128.554688 65.019531 128.554688 65.253906 C 128.554688 65.378906 128.617188 65.457031 128.664062 65.457031 C 128.710938 65.457031 128.757812 65.410156 128.789062 65.347656 C 128.992188 65.035156 129.320312 64.800781 129.695312 64.800781 C 130.085938 64.800781 130.414062 65.097656 130.414062 65.582031 C 130.414062 66.207031 130.085938 66.816406 129.617188 67.300781 L 128.460938 68.519531 C 128.414062 68.566406 128.398438 68.566406 128.398438 68.613281 C 128.398438 68.660156 128.492188 68.738281 128.539062 68.738281 C 128.664062 68.738281 129.726562 68.707031 130.085938 68.707031 C 130.445312 68.707031 130.960938 68.738281 131.101562 68.738281 Z M 131.101562 68.738281 "
     id="path30" />
  <path
     fill="none"
     stroke-width="0.797"
     stroke-linecap="butt"
     stroke-linejoin="bevel"
     stroke="rgb(0%, 0%, 0%)"
     stroke-opacity="1"
     stroke-miterlimit="10"
     d="M 168.410156 15.410156 C 168.410156 18.699219 166.777344 21.363281 164.757812 21.363281 C 162.742188 21.363281 161.109375 18.699219 161.109375 15.410156 C 161.109375 13.765625 161.773438 12.433594 162.597656 12.433594 C 163.417969 12.433594 164.085938 13.765625 164.085938 15.410156 C 164.085938 18.699219 162.449219 21.363281 160.433594 21.363281 C 158.417969 21.363281 156.78125 18.699219 156.78125 15.410156 C 156.78125 13.765625 157.449219 12.433594 158.269531 12.433594 C 159.089844 12.433594 159.757812 13.765625 159.757812 15.410156 C 159.757812 18.699219 158.125 21.363281 156.105469 21.363281 C 154.089844 21.363281 152.457031 18.699219 152.457031 15.410156 C 152.457031 13.765625 153.121094 12.433594 153.941406 12.433594 C 154.765625 12.433594 155.429688 13.765625 155.429688 15.410156 C 155.429688 18.699219 153.796875 21.363281 151.78125 21.363281 C 149.761719 21.363281 148.128906 18.699219 148.128906 15.410156 C 148.128906 13.765625 148.796875 12.433594 149.617188 12.433594 C 150.4375 12.433594 151.105469 13.765625 151.105469 15.410156 C 151.105469 18.699219 149.46875 21.363281 147.453125 21.363281 C 145.4375 21.363281 143.800781 18.699219 143.800781 15.410156 "
     id="path31" />
  <path
     fill-rule="nonzero"
     fill="rgb(0%, 0%, 0%)"
     fill-opacity="1"
     stroke-width="0.3985"
     stroke-linecap="butt"
     stroke-linejoin="miter"
     stroke="rgb(0%, 0%, 0%)"
     stroke-opacity="1"
     stroke-miterlimit="10"
     d="M 181.582031 15.570312 L 181.582031 17.554688 L 185.800781 15.570312 L 181.582031 13.585938 Z M 181.582031 15.570312 "
     id="path32" />
  <path
     fill-rule="nonzero"
     fill="rgb(0%, 0%, 0%)"
     fill-opacity="1"
     d="M 180.03125 25.644531 C 180.53125 25.644531 180.765625 25.597656 181.21875 25.597656 C 181.65625 25.597656 181.796875 25.644531 182.296875 25.644531 C 182.453125 25.644531 182.59375 25.613281 182.59375 25.535156 C 182.59375 25.441406 182.546875 25.394531 182.34375 25.363281 C 181.90625 25.269531 181.703125 25.082031 181.84375 24.613281 L 183.21875 20.113281 C 183.359375 19.644531 183.609375 19.488281 184.09375 19.394531 C 184.328125 19.363281 184.46875 19.285156 184.46875 19.191406 C 184.46875 19.113281 184.375 19.082031 184.21875 19.082031 C 183.71875 19.082031 183.609375 19.113281 183.203125 19.113281 C 182.78125 19.113281 182.625 19.082031 182.125 19.082031 C 181.96875 19.082031 181.828125 19.113281 181.828125 19.191406 C 181.828125 19.285156 181.875 19.363281 182.0625 19.394531 C 182.515625 19.488281 182.625 19.644531 182.484375 20.113281 L 181.109375 24.613281 C 180.96875 25.082031 180.640625 25.269531 180.140625 25.363281 C 179.921875 25.394531 179.78125 25.441406 179.78125 25.535156 C 179.78125 25.613281 179.859375 25.644531 180.03125 25.644531 Z M 180.03125 25.644531 "
     id="path33" />
  <path
     fill-rule="nonzero"
     fill="rgb(0%, 0%, 0%)"
     fill-opacity="1"
     d="M 185.527344 28.101562 C 185.558594 28.101562 185.636719 28.085938 185.667969 27.945312 C 185.730469 27.617188 185.871094 27.304688 185.886719 27.195312 C 185.886719 27.148438 185.886719 27.101562 185.839844 27.101562 C 185.761719 27.101562 185.699219 27.210938 185.667969 27.257812 C 185.496094 27.539062 185.386719 27.585938 185.011719 27.601562 C 184.761719 27.617188 184.496094 27.632812 184.230469 27.632812 C 183.980469 27.632812 183.777344 27.617188 183.621094 27.601562 C 183.558594 27.601562 183.527344 27.585938 183.527344 27.554688 C 183.527344 27.523438 184.636719 26.445312 184.964844 26.070312 C 185.246094 25.726562 185.480469 25.226562 185.480469 24.851562 C 185.480469 24.179688 185.042969 23.695312 184.355469 23.695312 C 183.558594 23.695312 182.980469 24.382812 182.980469 24.617188 C 182.980469 24.742188 183.042969 24.820312 183.089844 24.820312 C 183.136719 24.820312 183.183594 24.773438 183.214844 24.710938 C 183.417969 24.398438 183.746094 24.164062 184.121094 24.164062 C 184.511719 24.164062 184.839844 24.460938 184.839844 24.945312 C 184.839844 25.570312 184.511719 26.179688 184.042969 26.664062 L 182.886719 27.882812 C 182.839844 27.929688 182.824219 27.929688 182.824219 27.976562 C 182.824219 28.023438 182.917969 28.101562 182.964844 28.101562 C 183.089844 28.101562 184.152344 28.070312 184.511719 28.070312 C 184.871094 28.070312 185.386719 28.101562 185.527344 28.101562 Z M 185.527344 28.101562 "
     id="path34" />
  <path
     fill-rule="nonzero"
     fill="rgb(0%, 0%, 0%)"
     fill-opacity="1"
     d="M 150.734375 6.609375 C 151.234375 6.609375 151.390625 6.5625 151.796875 6.5625 C 152.140625 6.5625 152.28125 6.609375 152.78125 6.609375 C 152.953125 6.609375 153.078125 6.578125 153.078125 6.5 C 153.078125 6.40625 153 6.375 152.796875 6.328125 C 152.28125 6.234375 152.09375 5.984375 152.171875 5.609375 C 152.53125 4.15625 153.0625 2.515625 153.328125 1.53125 C 153.390625 1.3125 153.5 1.1875 153.5625 1.1875 C 153.640625 1.1875 153.71875 1.28125 153.796875 1.421875 C 154.578125 2.890625 155.34375 4.84375 156.0625 6.359375 C 156.171875 6.5625 156.28125 6.609375 156.484375 6.609375 C 156.65625 6.609375 156.890625 6.5625 157.25 6.5625 C 157.296875 6.5625 157.328125 6.5625 157.328125 6.5 C 157.328125 6.375 157.25 6.3125 157.140625 6.234375 C 157.03125 6.15625 156.890625 6.09375 156.8125 5.90625 C 156.75 5.75 156.71875 5.640625 156.78125 5.4375 C 156.90625 4.984375 158.171875 1.265625 158.265625 1.03125 C 158.484375 0.515625 158.59375 0.40625 159.09375 0.359375 C 159.328125 0.34375 159.46875 0.25 159.46875 0.15625 C 159.46875 0.078125 159.390625 0.046875 159.234375 0.046875 C 158.671875 0.046875 158.484375 0.109375 158.09375 0.109375 C 157.703125 0.109375 157.375 0.078125 157.015625 0.078125 C 156.859375 0.078125 156.6875 0.109375 156.6875 0.1875 C 156.6875 0.28125 156.765625 0.359375 156.96875 0.375 C 157.59375 0.484375 157.84375 0.671875 157.734375 1.140625 C 157.671875 1.453125 156.71875 4.59375 156.5625 5.015625 C 156.5 5.171875 156.46875 5.21875 156.421875 5.21875 C 156.359375 5.21875 156.25 5.09375 156.21875 5.03125 L 153.9375 0.21875 C 153.890625 0.125 153.796875 0.046875 153.6875 0.046875 C 153.34375 0.046875 152.9375 0 152.390625 0 C 152.328125 0 152.15625 0.015625 152.15625 0.140625 C 152.15625 0.25 152.3125 0.3125 152.53125 0.328125 C 153.296875 0.375 153.28125 0.71875 153.078125 1.3125 L 151.703125 5.609375 C 151.59375 5.9375 151.40625 6.1875 150.78125 6.328125 C 150.546875 6.375 150.5 6.40625 150.5 6.5 C 150.5 6.578125 150.578125 6.609375 150.734375 6.609375 Z M 150.734375 6.609375 "
     id="path35" />
  <path
     fill-rule="nonzero"
     fill="rgb(0%, 0%, 0%)"
     fill-opacity="1"
     d="M 160.410156 9.070312 C 160.441406 9.070312 160.519531 9.054688 160.550781 8.914062 C 160.613281 8.585938 160.753906 8.273438 160.769531 8.164062 C 160.769531 8.117188 160.769531 8.070312 160.722656 8.070312 C 160.644531 8.070312 160.582031 8.179688 160.550781 8.226562 C 160.378906 8.507812 160.269531 8.554688 159.894531 8.570312 C 159.644531 8.585938 159.378906 8.601562 159.113281 8.601562 C 158.863281 8.601562 158.660156 8.585938 158.503906 8.570312 C 158.441406 8.570312 158.410156 8.554688 158.410156 8.523438 C 158.410156 8.492188 159.519531 7.414062 159.847656 7.039062 C 160.128906 6.695312 160.363281 6.195312 160.363281 5.820312 C 160.363281 5.148438 159.925781 4.664062 159.238281 4.664062 C 158.441406 4.664062 157.863281 5.351562 157.863281 5.585938 C 157.863281 5.710938 157.925781 5.789062 157.972656 5.789062 C 158.019531 5.789062 158.066406 5.742188 158.097656 5.679688 C 158.300781 5.367188 158.628906 5.132812 159.003906 5.132812 C 159.394531 5.132812 159.722656 5.429688 159.722656 5.914062 C 159.722656 6.539062 159.394531 7.148438 158.925781 7.632812 L 157.769531 8.851562 C 157.722656 8.898438 157.707031 8.898438 157.707031 8.945312 C 157.707031 8.992188 157.800781 9.070312 157.847656 9.070312 C 157.972656 9.070312 159.035156 9.039062 159.394531 9.039062 C 159.753906 9.039062 160.269531 9.070312 160.410156 9.070312 Z M 160.410156 9.070312 "
     id="path36" />
</svg>
