<?xml version="1.0" encoding="UTF-8" standalone="no"?>
<svg
   width="268.61813pt"
   height="143.66587pt"
   viewBox="0 0 268.61813 143.66587"
   version="1.1"
   id="svg34"
   sodipodi:docname="motor-ac.svg"
   inkscape:version="1.3.2 (091e20e, 2023-11-25)"
   xmlns:inkscape="http://www.inkscape.org/namespaces/inkscape"
   xmlns:sodipodi="http://sodipodi.sourceforge.net/DTD/sodipodi-0.dtd"
   xmlns="http://www.w3.org/2000/svg"
   xmlns:svg="http://www.w3.org/2000/svg">
  <sodipodi:namedview
     id="namedview34"
     pagecolor="#ffffff"
     bordercolor="#000000"
     borderopacity="0.25"
     inkscape:showpageshadow="2"
     inkscape:pageopacity="0.0"
     inkscape:pagecheckerboard="0"
     inkscape:deskcolor="#d1d1d1"
     inkscape:document-units="pt"
     inkscape:zoom="1.2320255"
     inkscape:cx="178.97358"
     inkscape:cy="95.777242"
     inkscape:window-width="1376"
     inkscape:window-height="449"
     inkscape:window-x="2008"
     inkscape:window-y="256"
     inkscape:window-maximized="0"
     inkscape:current-layer="svg34" />
  <defs
     id="defs9">
    <clipPath
       id="clip-0">
      <path
         clip-rule="nonzero"
         d="M 15 3 L 139 3 L 139 59.871094 L 15 59.871094 Z M 15 3 "
         id="path1" />
    </clipPath>
    <clipPath
       id="clip-1">
      <path
         clip-rule="nonzero"
         d="M 5.339844 2.878906 L 148 2.878906 L 148 93.871094 L 5.339844 93.871094 Z M 5.339844 2.878906 "
         id="path2" />
    </clipPath>
    <clipPath
       id="clip-2">
      <path
         clip-rule="nonzero"
         d="M 5.339844 21 L 148 21 L 148 93.871094 L 5.339844 93.871094 Z M 5.339844 21 "
         id="path3" />
    </clipPath>
    <clipPath
       id="clip-3">
      <path
         clip-rule="nonzero"
         d="M 2.074219 49.871094 L 201 49.871094 L 201 128.871094 L 2.074219 128.871094 Z M 2.074219 49.871094 "
         id="path4" />
    </clipPath>
    <clipPath
       id="clip-4">
      <path
         clip-rule="nonzero"
         d="M 200.339844 87 L 266 87 L 266 140.871094 L 200.339844 140.871094 Z M 200.339844 87 "
         id="path5" />
    </clipPath>
    <clipPath
       id="clip-5">
      <path
         clip-rule="nonzero"
         d="M 142.339844 59 L 266 59 L 266 115.871094 L 142.339844 115.871094 Z M 142.339844 59 "
         id="path6" />
    </clipPath>
    <clipPath
       id="clip-6">
      <path
         clip-rule="nonzero"
         d="M 133 50 L 266.0625 50 L 266.0625 141.15625 L 133 141.15625 Z M 133 50 "
         id="path7" />
    </clipPath>
    <clipPath
       id="clip-7">
      <path
         clip-rule="nonzero"
         d="M 133 77.871094 L 266.0625 77.871094 L 266.0625 124.871094 L 133 124.871094 Z M 133 77.871094 "
         id="path8" />
    </clipPath>
    <clipPath
       id="clip-8">
      <path
         clip-rule="nonzero"
         d="M 200 115 L 201 115 L 201 141.15625 L 200 141.15625 Z M 200 115 "
         id="path9" />
    </clipPath>
  </defs>
  <g
     clip-path="url(#clip-0)"
     id="g10">
    <path
       fill-rule="nonzero"
       fill="rgb(72.157288%, 74.902344%, 75.686646%)"
       fill-opacity="1"
       d="M 138.367188 31.1875 L 138.140625 31.1875 L 73.222656 59.140625 L 15.335938 30.972656 L 78.945312 3.238281 Z M 138.367188 31.1875 "
       id="path10" />
  </g>
  <path
     fill-rule="nonzero"
     fill="rgb(60.784912%, 63.529968%, 64.31427%)"
     fill-opacity="1"
     d="M 138.140625 31.1875 L 138.367188 31.1875 C 136.066406 38.910156 135.957031 47.339844 138.140625 56.496094 L 73.222656 84.449219 C 70.496094 75.246094 70.316406 66.761719 73.222656 59.140625 Z M 138.140625 31.1875 "
     id="path11" />
  <path
     fill-rule="nonzero"
     fill="rgb(45.097351%, 47.450256%, 47.842407%)"
     fill-opacity="1"
     d="M 15.335938 30.972656 L 73.222656 59.140625 C 70.316406 66.761719 70.496094 75.246094 73.222656 84.449219 L 15.335938 55.839844 Z M 15.335938 30.972656 "
     id="path12" />
  <g
     clip-path="url(#clip-1)"
     id="g13">
    <path
       fill="none"
       stroke-width="0.6603"
       stroke-linecap="butt"
       stroke-linejoin="miter"
       stroke="rgb(0%, 0%, 0%)"
       stroke-opacity="1"
       stroke-miterlimit="10"
       d="M 86.882826 -123.576219 L 151.800795 -95.623094 C 149.617201 -86.466844 149.726576 -78.037156 152.027357 -70.3145 L 92.605482 -42.365281 L 28.996108 -70.099656 L 28.996108 -94.966844 Z M 86.882826 -123.576219 "
       transform="matrix(1, 0, 0, -1, -13.66017, -39.127)"
       id="path13" />
  </g>
  <g
     clip-path="url(#clip-2)"
     id="g14">
    <path
       fill="none"
       stroke-width="0.6603"
       stroke-linecap="butt"
       stroke-linejoin="miter"
       stroke="rgb(0%, 0%, 0%)"
       stroke-opacity="1"
       stroke-miterlimit="10"
       d="M 28.996108 -70.099656 L 86.882826 -98.267625 L 151.800795 -70.3145 M 86.882826 -98.267625 C 83.976576 -105.888719 84.156264 -114.373094 86.882826 -123.576219 "
       transform="matrix(1, 0, 0, -1, -13.66017, -39.127)"
       id="path14" />
  </g>
  <path
     fill="none"
     stroke-width="0.6603"
     stroke-linecap="butt"
     stroke-linejoin="miter"
     stroke="rgb(0%, 0%, 0%)"
     stroke-opacity="1"
     stroke-dasharray="4.068412 4.068412"
     stroke-miterlimit="10"
     d="M 87.66017 -110.923875 L 144.742201 -139.142625 "
     transform="matrix(1, 0, 0, -1, -13.66017, -39.127)"
     id="path15" />
  <path
     fill-rule="nonzero"
     fill="rgb(0%, 0%, 0%)"
     fill-opacity="1"
     d="M 127.136719 101.824219 L 126.898438 101.035156 L 130.800781 99.871094 L 129.355469 96.066406 L 130.128906 95.773438 L 131.886719 100.410156 Z M 127.136719 101.824219 "
     id="path16" />
  <path
     fill="none"
     stroke-width="0.6603"
     stroke-linecap="butt"
     stroke-linejoin="miter"
     stroke="rgb(0%, 0%, 0%)"
     stroke-opacity="1"
     stroke-dasharray="4.068412 4.068412"
     stroke-miterlimit="10"
     d="M 102.699232 -104.59575 L 159.781264 -132.810594 "
     transform="matrix(1, 0, 0, -1, -13.66017, -39.127)"
     id="path17" />
  <path
     fill-rule="nonzero"
     fill="rgb(0%, 0%, 0%)"
     fill-opacity="1"
     d="M 142.175781 95.503906 L 141.9375 94.703125 L 145.835938 93.546875 L 144.394531 89.738281 L 145.167969 89.445312 L 146.925781 94.078125 Z M 142.175781 95.503906 "
     id="path18" />
  <path
     fill="none"
     stroke-width="0.6603"
     stroke-linecap="butt"
     stroke-linejoin="miter"
     stroke="rgb(0%, 0%, 0%)"
     stroke-opacity="1"
     stroke-dasharray="4.068412 4.068412"
     stroke-miterlimit="10"
     d="M 117.738295 -98.267625 L 174.820326 -126.482469 "
     transform="matrix(1, 0, 0, -1, -13.66017, -39.127)"
     id="path19" />
  <path
     fill-rule="nonzero"
     fill="rgb(0%, 0%, 0%)"
     fill-opacity="1"
     d="M 157.210938 89.171875 L 156.976562 88.382812 L 160.875 87.21875 L 159.429688 83.410156 L 160.203125 83.117188 L 161.960938 87.757812 Z M 157.210938 89.171875 "
     id="path20" />
  <path
     fill="none"
     stroke-width="0.6603"
     stroke-linecap="butt"
     stroke-linejoin="miter"
     stroke="rgb(0%, 0%, 0%)"
     stroke-opacity="1"
     stroke-dasharray="4.068412 4.068412"
     stroke-miterlimit="10"
     d="M 132.773451 -91.9395 L 189.859389 -120.150438 "
     transform="matrix(1, 0, 0, -1, -13.66017, -39.127)"
     id="path21" />
  <path
     fill-rule="nonzero"
     fill="rgb(0%, 0%, 0%)"
     fill-opacity="1"
     d="M 172.25 82.84375 L 172.015625 82.050781 L 175.914062 80.890625 L 174.46875 77.085938 L 175.242188 76.789062 L 177 81.425781 Z M 172.25 82.84375 "
     id="path22" />
  <path
     fill="none"
     stroke-width="0.6603"
     stroke-linecap="butt"
     stroke-linejoin="miter"
     stroke="rgb(0%, 0%, 0%)"
     stroke-opacity="1"
     stroke-dasharray="4.068412 4.068412"
     stroke-miterlimit="10"
     d="M 147.812514 -85.603563 L 204.894545 -113.826219 "
     transform="matrix(1, 0, 0, -1, -13.66017, -39.127)"
     id="path23" />
  <path
     fill-rule="nonzero"
     fill="rgb(0%, 0%, 0%)"
     fill-opacity="1"
     d="M 187.289062 76.515625 L 187.050781 75.722656 L 190.949219 74.5625 L 189.507812 70.757812 L 190.28125 70.464844 L 192.039062 75.097656 Z M 187.289062 76.515625 "
     id="path24" />
  <path
     fill="none"
     stroke-width="1.3205"
     stroke-linecap="butt"
     stroke-linejoin="miter"
     stroke="rgb(74.118042%, 49.411011%, 9.411621%)"
     stroke-opacity="1"
     stroke-miterlimit="10"
     d="M 51.281264 -148.267625 L 113.339857 -124.041063 L 113.363295 -102.869188 L 190.570326 -71.029344 L 190.621107 -125.240281 L 113.363295 -157.060594 L 113.363295 -135.880906 L 55.968764 -159.341844 "
     transform="matrix(1, 0, 0, -1, -13.66017, -39.127)"
     id="path25" />
  <g
     clip-path="url(#clip-3)"
     id="g26">
    <path
       fill="none"
       stroke-width="0.6603"
       stroke-linecap="round"
       stroke-linejoin="round"
       stroke="rgb(45.097351%, 47.450256%, 47.842407%)"
       stroke-opacity="1"
       stroke-dasharray="4.068412 4.068412"
       stroke-miterlimit="4"
       d="M 16.218764 -167.607469 L 214.089857 -89.4395 "
       transform="matrix(1, 0, 0, -1, -13.66017, -39.127)"
       id="path26" />
  </g>
  <g
     clip-path="url(#clip-4)"
     id="g27">
    <path
       fill-rule="nonzero"
       fill="rgb(60.784912%, 63.529968%, 64.31427%)"
       fill-opacity="1"
       d="M 265.578125 87.527344 L 265.351562 112.839844 L 200.429688 140.789062 L 200.429688 115.476562 L 265.351562 87.527344 Z M 265.578125 87.527344 "
       id="path27" />
  </g>
  <g
     clip-path="url(#clip-5)"
     id="g28">
    <path
       fill-rule="nonzero"
       fill="rgb(72.157288%, 74.902344%, 75.686646%)"
       fill-opacity="1"
       d="M 265.578125 87.527344 L 265.351562 87.527344 L 200.429688 115.476562 L 142.546875 87.3125 L 206.15625 59.578125 Z M 265.578125 87.527344 "
       id="path28" />
  </g>
  <path
     fill-rule="nonzero"
     fill="rgb(45.097351%, 47.450256%, 47.842407%)"
     fill-opacity="1"
     d="M 200.429688 115.476562 L 200.429688 140.789062 L 142.546875 112.179688 C 145.417969 105.746094 144.976562 97.179688 142.546875 87.3125 Z M 200.429688 115.476562 "
     id="path29" />
  <g
     clip-path="url(#clip-6)"
     id="g30">
    <path
       fill="none"
       stroke-width="0.6603"
       stroke-linecap="butt"
       stroke-linejoin="miter"
       stroke="rgb(0%, 0%, 0%)"
       stroke-opacity="1"
       stroke-miterlimit="10"
       d="M 214.089857 -179.916063 L 279.011732 -151.966844 L 279.238295 -126.654344 L 219.81642 -98.705125 L 156.207045 -126.4395 C 158.636732 -136.306688 159.078139 -144.873094 156.207045 -151.306688 Z M 214.089857 -179.916063 "
       transform="matrix(1, 0, 0, -1, -13.66017, -39.127)"
       id="path30" />
  </g>
  <g
     clip-path="url(#clip-7)"
     id="g31">
    <path
       fill="none"
       stroke-width="0.6603"
       stroke-linecap="butt"
       stroke-linejoin="miter"
       stroke="rgb(0%, 0%, 0%)"
       stroke-opacity="1"
       stroke-miterlimit="10"
       d="M 156.207045 -126.4395 L 214.089857 -154.603563 L 279.011732 -126.654344 "
       transform="matrix(1, 0, 0, -1, -13.66017, -39.127)"
       id="path31" />
  </g>
  <g
     clip-path="url(#clip-8)"
     id="g32">
    <path
       fill="none"
       stroke-width="0.6603"
       stroke-linecap="butt"
       stroke-linejoin="miter"
       stroke="rgb(0%, 0%, 0%)"
       stroke-opacity="1"
       stroke-miterlimit="10"
       d="M 214.089857 -154.603563 L 214.089857 -179.916063 "
       transform="matrix(1, 0, 0, -1, -13.66017, -39.127)"
       id="path32" />
  </g>
  <path
     fill="none"
     stroke-width="0.6603"
     stroke-linecap="round"
     stroke-linejoin="round"
     stroke="rgb(0%, 0%, 0%)"
     stroke-opacity="1"
     stroke-miterlimit="4"
     d="M 204.000014 -86.412156 C 203.644545 -83.560594 204.207045 -80.9395 205.437514 -78.912156 C 206.97267 -76.392625 209.539076 -74.779344 212.632826 -74.779344 C 218.203139 -74.779344 223.371107 -79.990281 224.175795 -86.412156 C 224.56642 -89.505906 223.871107 -92.310594 222.433607 -94.396531 "
     transform="matrix(1, 0, 0, -1, -13.66017, -39.127)"
     id="path33" />
  <path
     fill-rule="nonzero"
     fill="rgb(0%, 0%, 0%)"
     fill-opacity="1"
     d="M 207.554688 51.949219 L 208.203125 51.816406 L 208.847656 55.015625 L 211.984375 54.136719 L 212.160156 54.769531 L 208.339844 55.839844 Z M 91.480469 -16.40625 L 91.054688 -16.40625 C 90.527344 -14.8125 90.285156 -14.484375 88.199219 -14.496094 L 86.46875 -14.496094 L 86.46875 -18.195312 L 88.039062 -18.195312 C 89.277344 -18.195312 89.546875 -18.050781 89.546875 -16.945312 L 89.976562 -16.945312 L 89.976562 -20.066406 L 89.546875 -20.066406 C 89.546875 -18.980469 89.277344 -18.722656 88.039062 -18.722656 L 86.46875 -18.722656 L 86.46875 -22.140625 L 88.441406 -22.140625 C 90.097656 -22.140625 90.433594 -21.882812 90.636719 -20.535156 L 91.066406 -20.535156 L 90.984375 -22.742188 L 83.925781 -22.742188 L 83.925781 -22.34375 C 85.011719 -22.34375 85.230469 -22.121094 85.230469 -21.105469 L 85.230469 -15.492188 C 85.230469 -14.441406 85.011719 -14.3125 83.925781 -14.3125 L 83.925781 -13.90625 L 91.105469 -13.90625 L 91.480469 -16.40625 M 95.4375 -14.300781 C 94.46875 -14.300781 94.402344 -14.484375 94.402344 -15.265625 L 94.402344 -23.398438 L 94.066406 -23.398438 L 92.289062 -22.933594 L 92.289062 -22.566406 C 92.289062 -22.566406 92.492188 -22.597656 92.71875 -22.597656 C 93.054688 -22.597656 93.285156 -22.566406 93.285156 -22.019531 L 93.285156 -15.265625 C 93.285156 -14.515625 93.230469 -14.300781 92.34375 -14.300781 L 92.34375 -13.90625 L 95.4375 -13.90625 L 95.4375 -14.300781 M 101.320312 -15.828125 C 100.890625 -15.265625 100.472656 -14.777344 99.386719 -14.777344 C 98.308594 -14.777344 97.285156 -15.632812 97.285156 -17.484375 L 101.535156 -17.484375 C 101.46875 -19.367188 100.5 -20.429688 99.035156 -20.429688 C 97.460938 -20.429688 96.199219 -19.355469 96.199219 -17.105469 C 96.199219 -14.941406 97.449219 -13.773438 99.0625 -13.773438 C 100.449219 -13.773438 101.09375 -14.617188 101.578125 -15.644531 Z M 97.273438 -17.980469 C 97.378906 -19.230469 97.917969 -19.894531 98.832031 -19.894531 C 99.789062 -19.894531 100.230469 -18.980469 100.273438 -17.980469 L 97.273438 -17.980469 M 107.429688 -15.898438 C 106.820312 -15.117188 106.363281 -14.777344 105.488281 -14.777344 C 104.105469 -14.777344 103.445312 -15.9375 103.445312 -17.578125 C 103.445312 -19.128906 104.105469 -19.933594 105.195312 -19.933594 C 106.351562 -19.933594 105.90625 -18.398438 106.902344 -18.398438 C 107.277344 -18.398438 107.46875 -18.613281 107.46875 -19.007812 C 107.46875 -19.78125 106.6875 -20.429688 105.421875 -20.429688 C 103.488281 -20.429688 102.382812 -19.0625 102.382812 -16.945312 C 102.382812 -15.074219 103.394531 -13.773438 105.074219 -13.773438 C 106.511719 -13.773438 107.171875 -14.617188 107.683594 -15.710938 L 107.429688 -15.898438 M 111.878906 -15.117188 C 111.542969 -14.738281 111.371094 -14.566406 110.9375 -14.566406 C 110.414062 -14.566406 110.292969 -14.890625 110.292969 -15.84375 L 110.292969 -19.703125 L 111.8125 -19.703125 L 111.8125 -20.269531 L 110.292969 -20.269531 L 110.308594 -22.109375 L 109.957031 -22.109375 C 109.472656 -20.96875 109.070312 -20.398438 108.4375 -20.015625 L 108.4375 -19.703125 L 109.179688 -19.703125 L 109.179688 -15.46875 C 109.179688 -14.257812 109.566406 -13.773438 110.46875 -13.773438 C 111.328125 -13.773438 111.613281 -14.179688 112.136719 -14.898438 L 111.878906 -15.117188 M 114.601562 -20.390625 L 114.277344 -20.390625 L 112.609375 -19.984375 L 112.609375 -19.605469 C 112.609375 -19.605469 112.757812 -19.640625 113.027344 -19.640625 C 113.511719 -19.640625 113.511719 -19.398438 113.511719 -18.90625 L 113.511719 -15.214844 C 113.511719 -14.460938 113.417969 -14.300781 112.53125 -14.300781 L 112.53125 -13.90625 L 115.890625 -13.90625 L 115.890625 -14.300781 C 114.882812 -14.300781 114.628906 -14.433594 114.628906 -15.277344 L 114.628906 -18.347656 C 114.949219 -18.886719 115.378906 -19.445312 115.691406 -19.445312 C 115.851562 -19.445312 116.121094 -18.988281 116.566406 -18.988281 C 116.859375 -18.988281 117.15625 -19.203125 117.15625 -19.71875 C 117.15625 -20.175781 116.902344 -20.472656 116.375 -20.472656 C 115.730469 -20.472656 115.328125 -19.996094 114.640625 -19.007812 L 114.601562 -19.007812 L 114.601562 -20.390625 M 119.289062 -23.230469 C 118.820312 -23.230469 118.523438 -22.878906 118.523438 -22.476562 C 118.523438 -22.058594 118.832031 -21.703125 119.289062 -21.703125 C 119.761719 -21.703125 120.058594 -22.058594 120.058594 -22.476562 C 120.058594 -22.878906 119.761719 -23.230469 119.289062 -23.230469 Z M 120.796875 -14.28125 C 119.894531 -14.28125 119.828125 -14.484375 119.828125 -15.265625 L 119.828125 -20.390625 L 119.480469 -20.390625 L 117.785156 -20.015625 L 117.785156 -19.621094 C 117.785156 -19.621094 117.933594 -19.648438 118.121094 -19.648438 C 118.511719 -19.648438 118.710938 -19.597656 118.710938 -19.019531 L 118.710938 -15.265625 C 118.710938 -14.496094 118.671875 -14.28125 117.769531 -14.28125 L 117.769531 -13.90625 L 120.796875 -13.90625 L 120.796875 -14.28125 M 126.628906 -15.898438 C 126.019531 -15.117188 125.566406 -14.777344 124.691406 -14.777344 C 123.304688 -14.777344 122.644531 -15.9375 122.644531 -17.578125 C 122.644531 -19.128906 123.304688 -19.933594 124.394531 -19.933594 C 125.550781 -19.933594 125.105469 -18.398438 126.101562 -18.398438 C 126.480469 -18.398438 126.667969 -18.613281 126.667969 -19.007812 C 126.667969 -19.78125 125.886719 -20.429688 124.621094 -20.429688 C 122.6875 -20.429688 121.582031 -19.0625 121.582031 -16.945312 C 121.582031 -15.074219 122.59375 -13.773438 124.273438 -13.773438 C 125.710938 -13.773438 126.371094 -14.617188 126.882812 -15.710938 L 126.628906 -15.898438 M 131.960938 -16.382812 C 131.328125 -15.898438 130.859375 -15.328125 130.859375 -14.851562 C 130.859375 -14.476562 131.152344 -14.105469 131.613281 -13.882812 L 131.613281 -13.824219 C 130.886719 -13.128906 130.523438 -12.671875 130.523438 -12.226562 C 130.523438 -11.484375 131.046875 -10.742188 132.808594 -10.742188 C 134.503906 -10.742188 136.492188 -11.363281 136.492188 -13.164062 C 136.492188 -14.714844 135.203125 -14.769531 133.507812 -14.769531 C 132.269531 -14.769531 131.921875 -14.898438 131.921875 -15.308594 C 131.921875 -15.53125 132.136719 -16.019531 132.269531 -16.203125 C 132.621094 -16.085938 132.996094 -16.007812 133.429688 -16.007812 C 134.839844 -16.007812 135.808594 -16.800781 135.808594 -18.050781 C 135.808594 -18.722656 135.511719 -19.164062 135.324219 -19.4375 L 135.324219 -19.503906 L 136.585938 -19.464844 L 136.585938 -20.1875 L 134.851562 -20.09375 C 134.851562 -20.09375 134.246094 -20.429688 133.359375 -20.429688 C 131.933594 -20.429688 130.925781 -19.578125 130.925781 -18.234375 C 130.925781 -17.359375 131.316406 -16.78125 131.960938 -16.40625 Z M 133.265625 -19.945312 C 134.125 -19.945312 134.609375 -19.222656 134.609375 -18.132812 C 134.609375 -16.855469 134.113281 -16.476562 133.441406 -16.476562 C 132.566406 -16.476562 132.109375 -17.136719 132.109375 -18.289062 C 132.109375 -19.421875 132.566406 -19.945312 133.265625 -19.945312 Z M 131.949219 -13.773438 C 132.136719 -13.773438 132.390625 -13.761719 133.46875 -13.742188 C 134.367188 -13.730469 135.808594 -13.761719 135.808594 -12.789062 C 135.808594 -12.214844 135.175781 -11.515625 133.585938 -11.515625 C 132.21875 -11.515625 131.570312 -11.902344 131.570312 -12.6875 C 131.570312 -12.96875 131.664062 -13.273438 131.949219 -13.773438 M 142.421875 -15.828125 C 141.992188 -15.265625 141.574219 -14.777344 140.484375 -14.777344 C 139.410156 -14.777344 138.386719 -15.632812 138.386719 -17.484375 L 142.636719 -17.484375 C 142.570312 -19.367188 141.601562 -20.429688 140.136719 -20.429688 C 138.5625 -20.429688 137.296875 -19.355469 137.296875 -17.105469 C 137.296875 -14.941406 138.546875 -13.773438 140.160156 -13.773438 C 141.546875 -13.773438 142.191406 -14.617188 142.679688 -15.644531 Z M 138.371094 -17.980469 C 138.480469 -19.230469 139.019531 -19.894531 139.933594 -19.894531 C 140.886719 -19.894531 141.332031 -18.980469 141.371094 -17.980469 L 138.371094 -17.980469 M 149.609375 -18.03125 C 149.609375 -19.578125 149.03125 -20.429688 147.808594 -20.429688 C 146.957031 -20.429688 146.367188 -19.945312 145.640625 -19.300781 L 145.585938 -19.300781 L 145.601562 -20.390625 L 145.292969 -20.390625 L 143.582031 -19.996094 L 143.582031 -19.605469 C 143.582031 -19.605469 143.71875 -19.640625 143.945312 -19.640625 C 144.308594 -19.640625 144.511719 -19.527344 144.511719 -19.046875 L 144.511719 -15.265625 C 144.511719 -14.515625 144.472656 -14.28125 143.570312 -14.28125 L 143.570312 -13.90625 L 146.648438 -13.90625 L 146.648438 -14.28125 C 145.683594 -14.28125 145.628906 -14.515625 145.628906 -15.265625 L 145.628906 -18.722656 C 146.03125 -19.085938 146.527344 -19.566406 147.253906 -19.566406 C 147.859375 -19.566406 148.492188 -19.316406 148.492188 -17.695312 L 148.492188 -15.265625 C 148.492188 -14.515625 148.453125 -14.28125 147.496094 -14.28125 L 147.496094 -13.90625 L 150.605469 -13.90625 L 150.605469 -14.28125 C 149.703125 -14.28125 149.609375 -14.515625 149.609375 -15.265625 L 149.609375 -18.03125 M 156.421875 -15.828125 C 155.992188 -15.265625 155.574219 -14.777344 154.484375 -14.777344 C 153.410156 -14.777344 152.386719 -15.632812 152.386719 -17.484375 L 156.636719 -17.484375 C 156.570312 -19.367188 155.601562 -20.429688 154.136719 -20.429688 C 152.5625 -20.429688 151.296875 -19.355469 151.296875 -17.105469 C 151.296875 -14.941406 152.546875 -13.773438 154.160156 -13.773438 C 155.546875 -13.773438 156.191406 -14.617188 156.679688 -15.644531 Z M 152.371094 -17.980469 C 152.480469 -19.230469 153.019531 -19.894531 153.933594 -19.894531 C 154.886719 -19.894531 155.332031 -18.980469 155.371094 -17.980469 L 152.371094 -17.980469 M 159.601562 -20.390625 L 159.277344 -20.390625 L 157.609375 -19.984375 L 157.609375 -19.605469 C 157.609375 -19.605469 157.757812 -19.640625 158.027344 -19.640625 C 158.511719 -19.640625 158.511719 -19.398438 158.511719 -18.90625 L 158.511719 -15.214844 C 158.511719 -14.460938 158.417969 -14.300781 157.53125 -14.300781 L 157.53125 -13.90625 L 160.890625 -13.90625 L 160.890625 -14.300781 C 159.882812 -14.300781 159.628906 -14.433594 159.628906 -15.277344 L 159.628906 -18.347656 C 159.949219 -18.886719 160.378906 -19.445312 160.691406 -19.445312 C 160.851562 -19.445312 161.121094 -18.988281 161.566406 -18.988281 C 161.859375 -18.988281 162.15625 -19.203125 162.15625 -19.71875 C 162.15625 -20.175781 161.902344 -20.472656 161.375 -20.472656 C 160.730469 -20.472656 160.328125 -19.996094 159.640625 -19.007812 L 159.601562 -19.007812 L 159.601562 -20.390625 M 166.183594 -14.738281 C 166.261719 -14.148438 166.398438 -13.84375 166.988281 -13.84375 C 167.675781 -13.84375 167.996094 -14.121094 168.441406 -14.769531 L 168.238281 -14.980469 C 168.050781 -14.777344 167.863281 -14.648438 167.605469 -14.648438 C 167.324219 -14.648438 167.203125 -14.757812 167.203125 -15.308594 L 167.203125 -18.355469 C 167.203125 -19.757812 166.652344 -20.429688 165.1875 -20.429688 C 163.722656 -20.429688 162.820312 -19.703125 162.820312 -18.949219 C 162.820312 -18.507812 163.117188 -18.308594 163.386719 -18.308594 C 163.761719 -18.308594 163.976562 -18.507812 163.976562 -18.925781 C 163.976562 -19.730469 164.113281 -20.015625 164.878906 -20.015625 C 165.683594 -20.015625 166.085938 -19.566406 166.085938 -18.398438 L 166.085938 -17.808594 C 164.933594 -17.441406 162.550781 -17.097656 162.550781 -15.316406 C 162.550781 -14.460938 163.117188 -13.816406 164.152344 -13.816406 C 165.011719 -13.816406 165.496094 -14.1875 166.128906 -14.738281 Z M 166.085938 -15.148438 C 165.628906 -14.769531 165.144531 -14.554688 164.703125 -14.554688 C 164.125 -14.554688 163.734375 -14.972656 163.734375 -15.644531 C 163.734375 -16.6875 164.863281 -17.054688 166.085938 -17.359375 L 166.085938 -15.148438 M 172.378906 -15.117188 C 172.042969 -14.738281 171.871094 -14.566406 171.4375 -14.566406 C 170.914062 -14.566406 170.792969 -14.890625 170.792969 -15.84375 L 170.792969 -19.703125 L 172.3125 -19.703125 L 172.3125 -20.269531 L 170.792969 -20.269531 L 170.808594 -22.109375 L 170.457031 -22.109375 C 169.972656 -20.96875 169.570312 -20.398438 168.9375 -20.015625 L 168.9375 -19.703125 L 169.679688 -19.703125 L 169.679688 -15.46875 C 169.679688 -14.257812 170.066406 -13.773438 170.96875 -13.773438 C 171.828125 -13.773438 172.113281 -14.179688 172.636719 -14.898438 L 172.378906 -15.117188 M 176.109375 -20.429688 C 174.292969 -20.429688 173.097656 -19.109375 173.097656 -17.160156 C 173.097656 -14.980469 174.226562 -13.773438 176.109375 -13.773438 C 177.859375 -13.773438 179.09375 -14.953125 179.09375 -17.21875 C 179.09375 -19.203125 177.953125 -20.429688 176.109375 -20.429688 Z M 176.054688 -19.914062 C 177.253906 -19.914062 177.859375 -18.804688 177.859375 -17.148438 C 177.859375 -14.953125 177.265625 -14.3125 176.164062 -14.3125 C 175.007812 -14.300781 174.347656 -15.195312 174.347656 -17.339844 C 174.347656 -19.0625 175.035156 -19.914062 176.054688 -19.914062 M 182 -20.390625 L 181.679688 -20.390625 L 180.011719 -19.984375 L 180.011719 -19.605469 C 180.011719 -19.605469 180.160156 -19.640625 180.429688 -19.640625 C 180.910156 -19.640625 180.910156 -19.398438 180.910156 -18.90625 L 180.910156 -15.214844 C 180.910156 -14.460938 180.816406 -14.300781 179.929688 -14.300781 L 179.929688 -13.90625 L 183.292969 -13.90625 L 183.292969 -14.300781 C 182.285156 -14.300781 182.027344 -14.433594 182.027344 -15.277344 L 182.027344 -18.347656 C 182.351562 -18.886719 182.78125 -19.445312 183.089844 -19.445312 C 183.253906 -19.445312 183.519531 -18.988281 183.964844 -18.988281 C 184.261719 -18.988281 184.554688 -19.203125 184.554688 -19.71875 C 184.554688 -20.175781 184.300781 -20.472656 183.777344 -20.472656 C 183.128906 -20.472656 182.726562 -19.996094 182.042969 -19.007812 L 182 -19.007812 L 182 -20.390625 M 118.347656 102.800781 C 119.40625 102.554688 120.300781 102.007812 120.300781 100.804688 C 120.300781 99.996094 119.765625 99.363281 117.878906 99.363281 L 115.058594 99.363281 L 114.988281 99.695312 C 115.816406 99.695312 116.027344 99.820312 115.835938 100.714844 L 114.886719 105.300781 C 114.699219 106.226562 114.511719 106.355469 113.660156 106.355469 L 113.59375 106.691406 L 116.808594 106.691406 C 118.558594 106.691406 119.941406 105.882812 119.941406 104.386719 C 119.941406 103.445312 119.21875 102.976562 118.347656 102.855469 Z M 116.429688 102.652344 L 117.007812 99.820312 C 117.242188 99.800781 117.34375 99.785156 117.566406 99.785156 C 118.816406 99.785156 119.195312 100.277344 119.195312 100.882812 C 119.195312 101.984375 118.613281 102.652344 117.074219 102.652344 Z M 116.339844 103.101562 L 116.996094 103.101562 C 117.933594 103.101562 118.792969 103.394531 118.792969 104.414062 C 118.792969 106.066406 117.398438 106.289062 116.382812 106.289062 C 116.105469 106.289062 115.960938 106.277344 115.703125 106.261719 L 116.339844 103.101562 M 83.917969 27.113281 L 81.035156 25.777344 L 80.605469 26.023438 C 81.121094 26.265625 81.257812 26.414062 81.183594 26.660156 C 81.121094 26.890625 80.789062 27.136719 79.933594 27.632812 L 75.332031 30.304688 L 75.269531 30.273438 L 77.609375 24.195312 L 75.53125 23.234375 L 75.105469 23.480469 C 75.65625 23.734375 75.722656 23.914062 75.527344 24.433594 L 69.460938 27.960938 C 68.027344 28.789062 67.585938 28.855469 66.621094 28.40625 L 66.195312 28.65625 L 69.054688 29.976562 L 69.480469 29.730469 C 68.566406 29.3125 68.640625 29.0625 70.058594 28.234375 L 75.433594 25.113281 L 75.496094 25.144531 L 72.949219 31.898438 L 73.355469 32.089844 L 80.476562 27.949219 C 81.5 27.355469 82.019531 27.183594 82.414062 27.15625 C 82.796875 27.132812 83.050781 27.15625 83.492188 27.359375 L 83.917969 27.113281 M 207.757812 85.023438 L 210.511719 83.339844 L 210.195312 83.1875 C 209.835938 83.335938 209.597656 83.347656 209.402344 83.257812 C 209.109375 83.117188 209.28125 82.738281 208.167969 82.226562 C 206.882812 81.644531 205.035156 81.617188 203.542969 82.484375 C 202.054688 83.351562 202.359375 84.203125 202.683594 85.035156 C 203.019531 85.890625 203.550781 86.652344 202.296875 87.382812 C 201.21875 88.011719 200.21875 87.988281 199.300781 87.5625 C 198.039062 86.996094 197.871094 86.441406 199.402344 85.105469 L 199.023438 84.933594 L 196.066406 86.765625 L 196.445312 86.9375 C 196.738281 86.78125 197.074219 86.738281 197.242188 86.820312 C 197.523438 86.949219 197.574219 87.421875 198.847656 88.007812 C 200.265625 88.660156 202.222656 88.640625 203.871094 87.679688 C 205.5625 86.695312 204.992188 85.765625 204.613281 84.851562 C 204.308594 84.070312 203.941406 83.363281 205.003906 82.746094 C 205.886719 82.234375 206.820312 82.191406 207.652344 82.574219 C 208.902344 83.140625 208.613281 83.789062 207.390625 84.855469 L 207.757812 85.023438 "
     id="path34" />
</svg>
