<?xml version="1.0" encoding="UTF-8" standalone="no"?>
<svg
   width="50.390556"
   height="59.502422"
   viewBox="0 0 50.390556 59.502422"
   version="1.1"
   id="svg157"
   sodipodi:docname="paypal.svg"
   inkscape:version="1.2.2 (b0a8486, 2022-12-01)"
   xmlns:inkscape="http://www.inkscape.org/namespaces/inkscape"
   xmlns:sodipodi="http://sodipodi.sourceforge.net/DTD/sodipodi-0.dtd"
   xmlns:xlink="http://www.w3.org/1999/xlink"
   xmlns="http://www.w3.org/2000/svg"
   xmlns:svg="http://www.w3.org/2000/svg"
   xmlns:rdf="http://www.w3.org/1999/02/22-rdf-syntax-ns#"
   xmlns:cc="http://creativecommons.org/ns#"
   xmlns:dc="http://purl.org/dc/elements/1.1/">
  <sodipodi:namedview
     id="namedview159"
     pagecolor="#ffffff"
     bordercolor="#666666"
     borderopacity="1.0"
     inkscape:showpageshadow="2"
     inkscape:pageopacity="0.0"
     inkscape:pagecheckerboard="0"
     inkscape:deskcolor="#d1d1d1"
     showgrid="false"
     inkscape:zoom="2.8019619"
     inkscape:cx="135.26237"
     inkscape:cy="12.134355"
     inkscape:window-width="1280"
     inkscape:window-height="800"
     inkscape:window-x="1920"
     inkscape:window-y="213"
     inkscape:window-maximized="0"
     inkscape:current-layer="svg157" />
  <!-- Generator: Sketch 3.6 (26304) - http://www.bohemiancoding.com/sketch -->
  <title
     id="title132">pp_fc_hl</title>
  <desc
     id="desc134">Created with Sketch.</desc>
  <defs
     id="defs137">
    <path
       id="path-1"
       d="M 0.03636364,60 H 245.24485 V 0.49757576 H 0.03636364 V 60 Z" />
    <mask
       id="mask-2"
       fill="#ffffff">
      <use
         xlink:href="#path-1"
         id="use143" />
    </mask>
  </defs>
  <g
     id="Clip-6"
     style="fill:none;fill-rule:evenodd;stroke:none;stroke-width:1"
     transform="translate(-0.03636364,-0.49757576)" />
  <path
     d="m 25.546667,57.548485 1.812727,-11.494546 0.11697,-0.636969 c 0.08727,-0.55394 0.370909,-1.060606 0.798181,-1.425455 0.427273,-0.364848 0.972122,-0.566061 1.53394,-0.566061 h 1.439394 c 2.399394,0 4.603636,-0.256363 6.552121,-0.761818 2.078788,-0.538788 3.927879,-1.378182 5.495152,-2.492727 1.661818,-1.181818 3.057575,-2.709697 4.14909,-4.54 1.151516,-1.930909 1.99697,-4.255758 2.513334,-6.909091 0.456363,-2.34303 0.541818,-4.440606 0.255151,-6.235151 -0.303636,-1.895758 -1.033939,-3.513334 -2.170303,-4.809091 -0.689091,-0.784849 -1.570909,-1.464849 -2.620606,-2.021212 l -0.02485,-0.01333 -6.06e-4,-0.0303 C 45.76303,13.273939 45.749091,11.32303 45.354545,9.6436364 44.958182,7.9606061 44.155758,6.4460606 42.899394,5.0145454 40.296364,2.0484849 35.561818,0.54424242 28.827879,0.54424242 h -18.49394 c -0.6181814,0 -1.2181814,0.22121212 -1.6884844,0.62303028 -0.4703031,0.4018182 -0.7818182,0.96 -0.8787879,1.5709091 L 0.06606061,51.570303 c -0.07030303,0.445455 0.05757575,0.898182 0.35090909,1.24 0.29333333,0.343636 0.72,0.540606 1.1709091,0.540606 H 13.061212 l -0.0103,0.05454 -0.787879,4.996364 c -0.06061,0.388485 0.05091,0.782424 0.306061,1.080606 0.255151,0.298788 0.626667,0.470909 1.019394,0.470909 h 9.62303 c 0.54,0 1.06303,-0.193333 1.473333,-0.544242 0.410303,-0.350909 0.683031,-0.837576 0.767273,-1.370303 l 0.09455,-0.490303"
     id="Fill-8"
     fill="#27346a"
     mask="url(#mask-2)"
     style="fill-rule:evenodd;stroke:none;stroke-width:1"
     transform="translate(-0.03636364,-0.49757576)" />
  <path
     d="m 18.953939,15.676364 c 0.121819,-0.77394 0.618182,-1.407273 1.286667,-1.727879 0.304242,-0.145455 0.643636,-0.226667 0.999394,-0.226667 h 14.496364 c 1.717575,0 3.318787,0.112728 4.78303,0.348485 0.418182,0.06727 0.824848,0.144848 1.220606,0.232727 0.395758,0.08788 0.779394,0.185455 1.150909,0.294546 0.186061,0.05394 0.368485,0.110909 0.548485,0.170909 0.718788,0.238788 1.387879,0.52 2.003636,0.846061 C 46.169091,10.986061 45.438182,7.8363636 42.934545,4.9836364 40.178182,1.8430303 35.198788,0.49757576 28.827879,0.49757576 h -18.49394 c -1.3018178,0 -2.4103026,0.94727274 -2.6133329,2.23333334 L 0.02,51.56303 c -0.15212121,0.963637 0.59272727,1.834546 1.5678788,1.834546 H 13.004849 l 5.94909,-37.721212"
     id="Fill-9"
     fill="#27346a"
     mask="url(#mask-2)"
     style="fill-rule:evenodd;stroke:none;stroke-width:1"
     transform="translate(-0.03636364,-0.49757576)" />
  <path
     d="m 45.406666,15.11697 v 0 C 45.351516,15.470303 45.290303,15.829697 45.217575,16.2 42.779394,28.721818 34.435151,33.050909 23.778181,33.050909 h -5.426666 c -1.301818,0 -2.401212,0.947879 -2.604243,2.233939 l -3.566666,22.612727 c -0.132728,0.842425 0.518788,1.604849 1.371515,1.604849 h 9.623636 c 1.138788,0 2.108485,-0.828485 2.286061,-1.953939 l 0.09455,-0.489091 1.812727,-11.495758 0.11697,-0.635151 c 0.177576,-1.125455 1.147273,-1.95394 2.286061,-1.95394 h 1.439394 c 9.32303,0 16.62303,-3.787879 18.756363,-14.741818 0.890909,-4.57697 0.430303,-8.397576 -1.926666,-11.083636 -0.712728,-0.812122 -1.6,-1.484243 -2.634546,-2.032121"
     id="Fill-11"
     fill="#2790c3"
     style="fill-rule:evenodd;stroke:none;stroke-width:1" />
  <path
     d="M 42.854545,14.1 C 42.48303,13.990909 42.099394,13.893333 41.703636,13.805454 41.307878,13.717575 40.901212,13.64 40.48303,13.572727 39.018787,13.33697 37.417575,13.224242 35.7,13.224242 H 21.203636 c -0.355758,0 -0.695152,0.08121 -0.999394,0.226667 -0.668485,0.320606 -1.164848,0.953939 -1.286667,1.727879 l -3.081212,19.535757 -0.08909,0.570303 c 0.203031,-1.28606 1.302425,-2.233939 2.604243,-2.233939 h 5.426666 c 10.65697,0 19.001213,-4.329091 21.439394,-16.850909 0.07273,-0.370303 0.13394,-0.729697 0.189091,-1.08303 -0.615757,-0.326061 -1.284848,-0.607273 -2.003636,-0.846061 -0.18,-0.06 -0.362424,-0.11697 -0.548485,-0.170909"
     id="Fill-12"
     fill="#1f264f"
     style="fill-rule:evenodd;stroke:none;stroke-width:1" />
  <metadata
     id="metadata488">
    <rdf:RDF>
      <cc:Work
         rdf:about="">
        <dc:title>pp_fc_hl</dc:title>
      </cc:Work>
    </rdf:RDF>
  </metadata>
</svg>
