<svg width="500" height="501" viewBox="0 0 500 501" fill="none" xmlns="http://www.w3.org/2000/svg">
<path d="M249.897 0.782593C111.682 0.782593 0 112.671 0 250.68C0 356.603 65.8165 447.101 158.782 483.506C156.52 463.761 154.669 433.321 159.605 411.725C164.13 392.185 188.811 287.496 188.811 287.496C188.811 287.496 181.407 272.481 181.407 250.474C181.407 215.715 201.563 189.799 226.656 189.799C248.046 189.799 258.33 205.842 258.33 224.97C258.33 246.361 244.755 278.446 237.557 308.269C231.592 333.156 250.103 353.518 274.578 353.518C319.005 353.518 353.147 306.624 353.147 239.162C353.147 179.31 310.16 137.558 248.663 137.558C177.499 137.558 135.747 190.828 135.747 245.949C135.747 267.34 143.974 290.375 154.258 302.922C156.314 305.39 156.52 307.652 155.903 310.12C154.052 317.936 149.733 335.007 148.91 338.504C147.882 343.029 145.208 344.057 140.477 341.795C109.626 326.986 90.2921 281.326 90.2921 244.715C90.2921 165.941 147.47 93.5428 255.45 93.5428C342.04 93.5428 409.502 155.246 409.502 237.928C409.502 324.106 355.204 393.419 279.926 393.419C254.628 393.419 230.769 380.256 222.748 364.625C222.748 364.625 210.202 412.342 207.116 424.065C201.563 445.867 186.343 473.016 176.059 489.676C199.506 496.875 224.188 500.783 250.103 500.783C388.112 500.783 500 388.894 500 250.885C499.794 112.671 387.906 0.782593 249.897 0.782593Z" fill="#E60023"/>
</svg>
