<?xml version="1.0" encoding="UTF-8" standalone="no"?>
<svg
   width="176pt"
   height="124pt"
   viewBox="0 0 176 124"
   version="1.1"
   id="svg136"
   sodipodi:docname="youtube.svg"
   inkscape:version="1.2.2 (b0a8486, 2022-12-01)"
   xmlns:inkscape="http://www.inkscape.org/namespaces/inkscape"
   xmlns:sodipodi="http://sodipodi.sourceforge.net/DTD/sodipodi-0.dtd"
   xmlns="http://www.w3.org/2000/svg"
   xmlns:svg="http://www.w3.org/2000/svg">
  <defs
     id="defs140" />
  <sodipodi:namedview
     id="namedview138"
     pagecolor="#ffffff"
     bordercolor="#666666"
     borderopacity="1.0"
     inkscape:showpageshadow="2"
     inkscape:pageopacity="0.0"
     inkscape:pagecheckerboard="0"
     inkscape:deskcolor="#d1d1d1"
     inkscape:document-units="pt"
     showgrid="false"
     inkscape:zoom="0.921875"
     inkscape:cx="117.15254"
     inkscape:cy="82.440678"
     inkscape:window-width="1280"
     inkscape:window-height="456"
     inkscape:window-x="1920"
     inkscape:window-y="501"
     inkscape:window-maximized="0"
     inkscape:current-layer="svg136" />
  <path
     fill-rule="nonzero"
     fill="#ff0000"
     fill-opacity="1"
     d="M 172.32422,19.363281 C 170.29687,11.742188 164.33594,5.738281 156.76172,3.703125 143.03906,0 88,0 88,0 88,0 32.964844,0 19.238281,3.703125 11.664062,5.738281 5.703125,11.742188 3.675781,19.363281 0,33.175781 0,62 0,62 c 0,0 0,28.82031 3.675781,42.63672 2.027344,7.62109 7.988281,13.625 15.5625,15.66015 C 32.964844,124 88,124 88,124 c 0,0 55.03906,0 68.76172,-3.70313 7.57422,-2.03515 13.53515,-8.03906 15.5625,-15.66015 C 176,90.82031 176,62 176,62 c 0,0 0,-28.824219 -3.67578,-42.636719"
     id="path132" />
  <path
     fill-rule="nonzero"
     fill="#ffffff"
     fill-opacity="1"
     d="M 70,88.16797 116,62 70,35.832031 Z m 0,0"
     id="path134" />
</svg>
