<?xml version="1.0" encoding="UTF-8" standalone="no"?>
<svg
   xmlns:dc="http://purl.org/dc/elements/1.1/"
   xmlns:cc="http://creativecommons.org/ns#"
   xmlns:rdf="http://www.w3.org/1999/02/22-rdf-syntax-ns#"
   xmlns:svg="http://www.w3.org/2000/svg"
   xmlns="http://www.w3.org/2000/svg"
   xmlns:sodipodi="http://sodipodi.sourceforge.net/DTD/sodipodi-0.dtd"
   xmlns:inkscape="http://www.inkscape.org/namespaces/inkscape"
   width="100.02pt"
   height="100.02pt"
   viewBox="0 0 100.02 100.02"
   version="1.2"
   id="svg22"
   sodipodi:docname="Dalton.svg"
   inkscape:version="1.0.1 (c497b03c, 2020-09-10)">
  <metadata
     id="metadata26">
    <rdf:RDF>
      <cc:Work
         rdf:about="">
        <dc:format>image/svg+xml</dc:format>
        <dc:type
           rdf:resource="http://purl.org/dc/dcmitype/StillImage" />
        <dc:title></dc:title>
      </cc:Work>
    </rdf:RDF>
  </metadata>
  <sodipodi:namedview
     pagecolor="#ffffff"
     bordercolor="#666666"
     borderopacity="1"
     objecttolerance="10"
     gridtolerance="10"
     guidetolerance="10"
     inkscape:pageopacity="0"
     inkscape:pageshadow="2"
     inkscape:window-width="704"
     inkscape:window-height="480"
     id="namedview24"
     showgrid="false"
     inkscape:zoom="4.3416318"
     inkscape:cx="66.679998"
     inkscape:cy="66.679998"
     inkscape:window-x="0"
     inkscape:window-y="23"
     inkscape:window-maximized="0"
     inkscape:current-layer="svg22" />
  <defs
     id="defs13">
    <clipPath
       id="clip1">
      <path
         d="M 0 0 L 100.019531 0 L 100.019531 100.019531 L 0 100.019531 Z M 0 0 "
         id="path10" />
    </clipPath>
  </defs>
  <g
     id="surface3759">
    <path
       style=" stroke:none;fill-rule:nonzero;fill:rgb(73.298645%,79.998779%,93.299866%);fill-opacity:1;"
       d="M 99.824219 50.007812 C 99.824219 22.496094 77.523438 0.191406 50.011719 0.191406 C 22.5 0.191406 0.199219 22.496094 0.199219 50.007812 C 0.199219 77.519531 22.5 99.820312 50.011719 99.820312 C 77.523438 99.820312 99.824219 77.519531 99.824219 50.007812 Z M 99.824219 50.007812 "
       id="path15" />
    <g
       clip-path="url(#clip1)"
       clip-rule="nonzero"
       id="g19">
      <path
         style="fill:none;stroke-width:0.3985;stroke-linecap:butt;stroke-linejoin:miter;stroke:rgb(73.298645%,79.998779%,93.299866%);stroke-opacity:1;stroke-miterlimit:10;"
         d="M 49.812219 -0.0008125 C 49.812219 27.510906 27.511437 49.815594 -0.00028125 49.815594 C -27.512 49.815594 -49.812781 27.510906 -49.812781 -0.0008125 C -49.812781 -27.512531 -27.512 -49.813312 -0.00028125 -49.813312 C 27.511437 -49.813312 49.812219 -27.512531 49.812219 -0.0008125 Z M 49.812219 -0.0008125 "
         transform="matrix(1,0,0,-1,50.012,50.007)"
         id="path17" />
    </g>
  </g>
</svg>
