<?xml version="1.0" encoding="UTF-8" standalone="no"?>
<!-- Created with Inkscape (http://www.inkscape.org/) -->

<svg
   xmlns:dc="http://purl.org/dc/elements/1.1/"
   xmlns:cc="http://creativecommons.org/ns#"
   xmlns:rdf="http://www.w3.org/1999/02/22-rdf-syntax-ns#"
   xmlns:svg="http://www.w3.org/2000/svg"
   xmlns="http://www.w3.org/2000/svg"
   xmlns:sodipodi="http://sodipodi.sourceforge.net/DTD/sodipodi-0.dtd"
   xmlns:inkscape="http://www.inkscape.org/namespaces/inkscape"
   width="150"
   height="150"
   id="svg3804"
   version="1.1"
   inkscape:version="0.48.4 r9939"
   sodipodi:docname="atommodell.svg"
   inkscape:export-filename="/home/koebes/Documents/Fachschule Technik/Elektrotechnik/atommodell.png"
   inkscape:export-xdpi="180"
   inkscape:export-ydpi="180">
  <defs
     id="defs3806" />
  <sodipodi:namedview
     id="base"
     pagecolor="#ffffff"
     bordercolor="#666666"
     borderopacity="1.0"
     inkscape:pageopacity="0.0"
     inkscape:pageshadow="2"
     inkscape:zoom="4.9497475"
     inkscape:cx="72.731275"
     inkscape:cy="71.337534"
     inkscape:current-layer="layer1"
     inkscape:document-units="px"
     showgrid="true"
     inkscape:window-width="1920"
     inkscape:window-height="1060"
     inkscape:window-x="-8"
     inkscape:window-y="-4"
     inkscape:window-maximized="1">
    <inkscape:grid
       type="xygrid"
       id="grid3812"
       empspacing="5"
       visible="true"
       enabled="true"
       snapvisiblegridlinesonly="true" />
  </sodipodi:namedview>
  <metadata
     id="metadata3809">
    <rdf:RDF>
      <cc:Work
         rdf:about="">
        <dc:format>image/svg+xml</dc:format>
        <dc:type
           rdf:resource="http://purl.org/dc/dcmitype/StillImage" />
        <dc:title></dc:title>
      </cc:Work>
    </rdf:RDF>
  </metadata>
  <g
     id="layer1"
     inkscape:label="Layer 1"
     inkscape:groupmode="layer"
     transform="translate(0,-330)">
    <path
       sodipodi:type="arc"
       style="fill:none;stroke:#000000;stroke-width:3.23282094;stroke-linecap:round;stroke-linejoin:bevel;stroke-miterlimit:4;stroke-opacity:1;stroke-dasharray:none;stroke-dashoffset:21.40240053999999859"
       id="path3814"
       sodipodi:cx="250"
       sodipodi:cy="250"
       sodipodi:rx="230"
       sodipodi:ry="230"
       d="m 480,250 a 230,230 0 1 1 -460,0 230,230 0 1 1 460,0 z"
       transform="matrix(0.30932737,0,0,0.30932737,-1.0780776,329.64688)" />
    <path
       sodipodi:type="arc"
       style="fill:none;stroke:#000000;stroke-width:3.23282094;stroke-linecap:round;stroke-linejoin:bevel;stroke-miterlimit:4;stroke-opacity:1;stroke-dasharray:none;stroke-dashoffset:21.40240053999999859"
       id="path3816"
       sodipodi:cx="250"
       sodipodi:cy="250"
       sodipodi:rx="190"
       sodipodi:ry="190"
       d="m 440,250 a 190,190 0 1 1 -380,0 190,190 0 1 1 380,0 z"
       transform="matrix(0.30932737,0,0,0.30932737,-1.0780776,329.64688)" />
    <path
       transform="matrix(0.30932737,0,0,0.30932737,-5.1761169,321.15244)"
       sodipodi:type="arc"
       style="fill:#ffffff;fill-opacity:1;stroke:#000000;stroke-width:3.23282094;stroke-linecap:round;stroke-linejoin:bevel;stroke-miterlimit:4;stroke-opacity:1;stroke-dasharray:none;stroke-dashoffset:21.40240053999999859"
       id="path3818-83"
       sodipodi:cx="250"
       sodipodi:cy="260"
       sodipodi:rx="20"
       sodipodi:ry="20"
       d="m 270,260 a 20,20 0 1 1 -40,0 20,20 0 1 1 40,0 z" />
    <path
       transform="matrix(0.30932737,0,0,0.30932737,2.9146586,320.36925)"
       sodipodi:type="arc"
       style="fill:#ff0000;fill-opacity:1;stroke:#000000;stroke-width:3.23282094;stroke-linecap:round;stroke-linejoin:bevel;stroke-miterlimit:4;stroke-opacity:1;stroke-dasharray:none;stroke-dashoffset:21.40240053999999859"
       id="path3818-4"
       sodipodi:cx="250"
       sodipodi:cy="260"
       sodipodi:rx="20"
       sodipodi:ry="20"
       d="m 270,260 a 20,20 0 1 1 -40,0 20,20 0 1 1 40,0 z" />
    <path
       sodipodi:type="arc"
       style="fill:#ff0000;fill-opacity:1;stroke:#000000;stroke-width:3.23282094;stroke-linecap:round;stroke-linejoin:bevel;stroke-miterlimit:4;stroke-opacity:1;stroke-dasharray:none;stroke-dashoffset:21.40240053999999859"
       id="path3818"
       sodipodi:cx="250"
       sodipodi:cy="260"
       sodipodi:rx="20"
       sodipodi:ry="20"
       d="m 270,260 a 20,20 0 1 1 -40,0 20,20 0 1 1 40,0 z"
       transform="matrix(0.30932737,0,0,0.30932737,-7.4664557,327.65051)" />
    <path
       transform="matrix(0.30932737,0,0,0.30932737,-3.0700581,333.43121)"
       sodipodi:type="arc"
       style="fill:#ffffff;fill-opacity:1;stroke:#000000;stroke-width:3.23282094;stroke-linecap:round;stroke-linejoin:bevel;stroke-miterlimit:4;stroke-opacity:1;stroke-dasharray:none;stroke-dashoffset:21.40240053999999859"
       id="path3818-5"
       sodipodi:cx="250"
       sodipodi:cy="260"
       sodipodi:rx="20"
       sodipodi:ry="20"
       d="m 270,260 a 20,20 0 1 1 -40,0 20,20 0 1 1 40,0 z" />
    <path
       transform="matrix(0.30932737,0,0,0.30932737,6.6024553,326.84758)"
       sodipodi:type="arc"
       style="fill:#ffffff;fill-opacity:1;stroke:#000000;stroke-width:3.23282094;stroke-linecap:round;stroke-linejoin:bevel;stroke-miterlimit:4;stroke-opacity:1;stroke-dasharray:none;stroke-dashoffset:21.40240053999999859"
       id="path3818-80"
       sodipodi:cx="250"
       sodipodi:cy="260"
       sodipodi:rx="20"
       sodipodi:ry="20"
       d="m 270,260 a 20,20 0 1 1 -40,0 20,20 0 1 1 40,0 z" />
    <path
       transform="matrix(0.30932737,0,0,0.30932737,3.6144847,330.74818)"
       sodipodi:type="arc"
       style="fill:#ff0000;fill-opacity:1;stroke:#000000;stroke-width:3.23282094;stroke-linecap:round;stroke-linejoin:bevel;stroke-miterlimit:4;stroke-opacity:1;stroke-dasharray:none;stroke-dashoffset:21.40240053999999859"
       id="path3818-8"
       sodipodi:cx="250"
       sodipodi:cy="260"
       sodipodi:rx="20"
       sodipodi:ry="20"
       d="m 270,260 a 20,20 0 1 1 -40,0 20,20 0 1 1 40,0 z" />
    <path
       transform="matrix(0.30932737,0,0,0.30932737,-3.7808531,322.96234)"
       sodipodi:type="arc"
       style="fill:#ffffff;fill-opacity:1;stroke:#000000;stroke-width:3.23282094;stroke-linecap:round;stroke-linejoin:bevel;stroke-miterlimit:4;stroke-opacity:1;stroke-dasharray:none;stroke-dashoffset:21.40240053999999859"
       id="path3818-0"
       sodipodi:cx="250"
       sodipodi:cy="260"
       sodipodi:rx="20"
       sodipodi:ry="20"
       d="m 270,260 a 20,20 0 1 1 -40,0 20,20 0 1 1 40,0 z" />
    <path
       sodipodi:type="arc"
       style="fill:#00ffff;fill-opacity:1;stroke:#000000;stroke-width:3.23282094;stroke-linecap:round;stroke-linejoin:bevel;stroke-miterlimit:4;stroke-opacity:1;stroke-dasharray:none;stroke-dashoffset:21.40240053999999859"
       id="path4390"
       sodipodi:cx="250"
       sodipodi:cy="60"
       sodipodi:rx="10"
       sodipodi:ry="10"
       d="m 260,60 a 10,10 0 1 1 -20,0 10,10 0 1 1 20,0 z"
       transform="matrix(0.30932737,0,0,0.30932737,-32.620694,338.63054)"
       inkscape:transform-center-x="20"
       inkscape:transform-center-y="-40" />
    <path
       sodipodi:type="arc"
       style="fill:#00ffff;fill-opacity:1;stroke:#000000;stroke-width:3.23282094;stroke-linecap:round;stroke-linejoin:bevel;stroke-miterlimit:4;stroke-opacity:1;stroke-dasharray:none;stroke-dashoffset:21.40240053999999859"
       id="path4390-4"
       sodipodi:cx="250"
       sodipodi:cy="60"
       sodipodi:rx="10"
       sodipodi:ry="10"
       d="m 260,60 a 10,10 0 1 1 -20,0 10,10 0 1 1 20,0 z"
       transform="matrix(0.30932737,0,0,0.30932737,35.451072,434.84671)"
       inkscape:transform-center-x="20"
       inkscape:transform-center-y="-40" />
    <path
       sodipodi:type="arc"
       style="fill:#00ffff;fill-opacity:1;stroke:#000000;stroke-width:3.23282094;stroke-linecap:round;stroke-linejoin:bevel;stroke-miterlimit:4;stroke-opacity:1;stroke-dasharray:none;stroke-dashoffset:21.40240053999999859"
       id="path4390-6"
       sodipodi:cx="250"
       sodipodi:cy="60"
       sodipodi:rx="10"
       sodipodi:ry="10"
       d="m 260,60 a 10,10 0 1 1 -20,0 10,10 0 1 1 20,0 z"
       transform="matrix(0.30932737,0,0,0.30932737,-58.275118,431.14136)"
       inkscape:transform-center-x="20"
       inkscape:transform-center-y="-40" />
  </g>
</svg>
