<?xml version="1.0" encoding="UTF-8" standalone="no"?>
<svg
   width="484.53604"
   height="383.82999"
   viewBox="0 0 363.40203 287.87249"
   class="displayed_equation"
   version="1.1"
   id="svg158"
   sodipodi:docname="niveles-energia-H.svg"
   inkscape:version="1.2.1 (9c6d41e4, 2022-07-14)"
   xmlns:inkscape="http://www.inkscape.org/namespaces/inkscape"
   xmlns:sodipodi="http://sodipodi.sourceforge.net/DTD/sodipodi-0.dtd"
   xmlns="http://www.w3.org/2000/svg"
   xmlns:svg="http://www.w3.org/2000/svg">
  <defs
     id="defs162" />
  <sodipodi:namedview
     id="namedview160"
     pagecolor="#ffffff"
     bordercolor="#666666"
     borderopacity="1.0"
     inkscape:showpageshadow="2"
     inkscape:pageopacity="0.0"
     inkscape:pagecheckerboard="0"
     inkscape:deskcolor="#d1d1d1"
     showgrid="false"
     inkscape:zoom="0.99046469"
     inkscape:cx="214.04095"
     inkscape:cy="239.28163"
     inkscape:window-width="1280"
     inkscape:window-height="800"
     inkscape:window-x="1920"
     inkscape:window-y="213"
     inkscape:window-maximized="0"
     inkscape:current-layer="svg158" />
  <path
     d="M 50.910001,283.79369 H 318.49203 V 3.864001 H 50.910001 Z m 0,0"
     fill="#c0ddf2"
     id="path132" />
  <path
     d="M 50.910001,283.79369 H 318.49203"
     fill="none"
     stroke-width="0.797"
     stroke="#000000"
     stroke-miterlimit="10"
     id="path134" />
  <path
     d="M 50.910001,73.84838 H 318.49203"
     fill="none"
     stroke-width="0.797"
     stroke="#000000"
     stroke-miterlimit="10"
     id="path138" />
  <path
     d="M 50.910001,34.94603 H 318.49203"
     fill="none"
     stroke-width="0.797"
     stroke="#000000"
     stroke-miterlimit="10"
     id="path142" />
  <path
     d="M 50.910001,21.36009 H 318.49203"
     fill="none"
     stroke-width="0.797"
     stroke="#000000"
     stroke-miterlimit="10"
     id="path146" />
  <path
     d="M 50.910001,15.18431 H 318.49203 M 50.910001,12.09838 H 318.49203 M 50.910001,10.03978 H 318.49203 M 50.910001,3.864 H 318.49203"
     fill="none"
     stroke-width="0.797"
     stroke="#000000"
     stroke-miterlimit="10"
     id="path150" />
  <path
     d="M 50.910001,3.864 H 318.49203"
     fill="none"
     stroke-width="0.797"
     stroke="#000000"
     stroke-miterlimit="10"
     id="path154" />
  <g
     aria-label="Nivel energético"
     transform="rotate(-90,-13.425499,-2.105031)"
     id="text385"
     style="font-size:18px;line-height:1.25;stroke-width:0.75">
    <path
       d="m -202.82028,369.8085 q -0.162,0 -0.648,-0.27 -0.468,-0.27 -0.9,-0.864 -0.072,-0.09 -0.45,-0.54 -0.36,-0.45 -0.936,-1.116 -0.558,-0.684 -1.224,-1.476 -0.666,-0.792 -1.332,-1.584 -0.666,-0.792 -1.242,-1.458 -0.576,-0.684 -0.972,-1.134 -0.378,-0.468 -0.468,-0.576 -0.126,-0.162 -0.216,-0.216 -0.09,-0.072 -0.162,-0.072 -0.09,0 -0.126,0.144 -0.036,0.126 -0.036,0.234 -0.018,0.882 -0.036,2.034 -0.018,1.152 -0.036,2.376 -0.018,1.224 -0.018,2.34 0,0.486 0.234,0.9 0.252,0.414 0.918,0.54 0.306,0.054 0.45,0.126 0.144,0.072 0.144,0.198 0,0.108 -0.144,0.144 -0.144,0.054 -0.378,0.054 -0.486,0 -0.738,-0.036 -0.234,-0.018 -0.432,-0.036 -0.18,-0.018 -0.522,-0.018 -0.324,0 -0.504,0.018 -0.18,0.018 -0.414,0.036 -0.234,0.036 -0.72,0.036 -0.234,0 -0.378,-0.054 -0.144,-0.036 -0.144,-0.144 0,-0.126 0.144,-0.198 0.144,-0.072 0.45,-0.144 0.522,-0.144 0.756,-0.522 0.234,-0.396 0.288,-0.954 0.072,-0.684 0.144,-1.8 0.072,-1.134 0.126,-2.52 0.054,-1.404 0.054,-2.88 0,-0.954 -0.504,-1.368 -0.486,-0.414 -1.278,-0.666 -0.072,-0.036 -0.324,-0.144 -0.234,-0.126 -0.234,-0.288 0,-0.162 0.162,-0.198 0.162,-0.054 0.252,-0.054 0.522,0.018 0.846,0.036 0.324,0 0.576,0.018 0.252,0.018 0.558,0.036 0.306,0 0.792,0 0.162,0 0.252,0.09 0.09,0.09 0.18,0.216 0.072,0.108 0.468,0.612 0.414,0.486 1.008,1.242 0.612,0.738 1.332,1.62 0.72,0.864 1.44,1.746 0.72,0.864 1.332,1.62 0.612,0.738 1.008,1.224 0.414,0.486 0.486,0.576 0.072,0.072 0.198,0.216 0.144,0.144 0.252,0.144 0.162,0 0.18,-0.378 0,-0.252 0,-0.954 0.018,-0.72 0.018,-1.728 0.018,-1.026 0.018,-2.214 0,-1.188 0,-2.43 -0.018,-0.36 -0.378,-0.648 -0.36,-0.288 -0.666,-0.342 -0.306,-0.054 -0.558,-0.144 -0.252,-0.09 -0.252,-0.216 0,-0.108 0.252,-0.144 0.252,-0.054 0.486,-0.054 0.18,0 0.342,0 0.18,0 0.342,0 0.18,0 0.342,0 0.432,0 0.684,0 0.252,-0.018 0.54,-0.036 0.306,-0.018 0.846,-0.018 0.234,0 0.378,0.054 0.144,0.036 0.144,0.144 0,0.252 -0.594,0.36 -0.666,0.126 -0.882,0.324 -0.216,0.198 -0.252,0.648 0,0.09 -0.018,0.702 0,0.612 0,1.548 0,0.936 -0.018,2.016 0,1.08 0,2.16 0,1.062 0,1.908 0,0.432 0.018,0.792 0.036,0.342 0.054,0.594 0.018,0.234 0.018,0.36 0,0.288 -0.126,0.36 -0.108,0.09 -0.252,0.09 z"
       style="font-family:'EB Garamond';-inkscape-font-specification:'EB Garamond'"
       id="path912" />
    <path
       d="m -199.79629,369.5565 q -0.162,0 -0.27,-0.054 -0.09,-0.036 -0.09,-0.144 0,-0.144 0.126,-0.198 0.144,-0.054 0.288,-0.09 0.378,-0.09 0.576,-0.216 0.198,-0.144 0.198,-0.468 v -3.906 q 0,-0.486 -0.18,-0.864 -0.162,-0.378 -0.63,-0.45 -0.09,-0.018 -0.144,-0.072 -0.036,-0.054 -0.036,-0.162 0,-0.198 0.162,-0.216 0.72,-0.162 1.188,-0.432 0.468,-0.288 0.702,-0.468 0.162,-0.126 0.252,-0.126 0.108,0 0.108,0.09 0,0.144 -0.054,0.576 -0.036,0.414 -0.072,0.936 -0.036,0.504 -0.036,0.918 v 4.176 q 0,0.306 0.198,0.45 0.216,0.144 0.576,0.234 0.144,0.036 0.27,0.09 0.144,0.054 0.144,0.198 0,0.198 -0.36,0.198 -0.342,0 -0.558,-0.036 -0.198,-0.018 -0.396,-0.036 -0.18,-0.018 -0.504,-0.018 -0.306,0 -0.504,0.018 -0.198,0.018 -0.396,0.036 -0.198,0.036 -0.558,0.036 z m 1.44,-9.342 q -0.378,0 -0.648,-0.252 -0.252,-0.27 -0.252,-0.648 0,-0.396 0.252,-0.648 0.27,-0.27 0.648,-0.27 0.396,0 0.648,0.27 0.27,0.252 0.27,0.648 0,0.378 -0.27,0.648 -0.252,0.252 -0.648,0.252 z"
       style="font-family:'EB Garamond';-inkscape-font-specification:'EB Garamond'"
       id="path914" />
    <path
       d="m -192.32631,369.8805 q -0.072,0 -0.18,-0.288 -0.108,-0.27 -0.144,-0.396 -0.126,-0.306 -0.234,-0.63 -0.108,-0.342 -0.216,-0.63 -0.396,-1.116 -0.864,-2.178 -0.45,-1.08 -0.882,-2.178 -0.126,-0.324 -0.396,-0.576 -0.252,-0.27 -0.522,-0.342 -0.144,-0.054 -0.234,-0.108 -0.09,-0.054 -0.09,-0.18 0,-0.108 0.126,-0.126 0.144,-0.036 0.234,-0.036 0.36,0 0.522,0.018 0.162,0.018 0.324,0.054 0.162,0.018 0.468,0.018 0.324,0 0.486,-0.018 0.162,-0.036 0.342,-0.054 0.18,-0.018 0.522,-0.018 0.09,0 0.216,0.036 0.144,0.018 0.144,0.126 0,0.126 -0.126,0.198 -0.126,0.072 -0.288,0.126 -0.18,0.072 -0.27,0.288 -0.09,0.198 -0.09,0.45 0,0.126 0.018,0.252 0.018,0.126 0.054,0.234 l 1.422,3.78 q 0.018,0.018 0.018,0.018 0.018,0 0.036,-0.018 l 1.368,-3.51 q 0.072,-0.18 0.108,-0.378 0.036,-0.216 0.036,-0.36 0,-0.36 -0.108,-0.504 -0.108,-0.162 -0.36,-0.252 -0.234,-0.09 -0.324,-0.144 -0.09,-0.054 -0.09,-0.18 0,-0.108 0.108,-0.126 0.126,-0.036 0.252,-0.036 0.198,0 0.522,0.054 0.324,0.036 0.792,0.036 0.468,0 0.63,-0.036 0.18,-0.054 0.432,-0.054 0.144,0 0.252,0.036 0.108,0.018 0.108,0.126 0,0.198 -0.414,0.324 -0.27,0.072 -0.594,0.414 -0.324,0.342 -0.522,0.792 l -1.404,3.384 q -0.036,0.072 -0.144,0.36 -0.108,0.27 -0.234,0.612 -0.126,0.324 -0.216,0.576 -0.09,0.234 -0.09,0.234 0,0 -0.072,0.18 -0.072,0.162 -0.162,0.342 -0.09,0.198 -0.162,0.288 z"
       style="font-family:'EB Garamond';-inkscape-font-specification:'EB Garamond'"
       id="path916" />
    <path
       d="m -184.91034,369.7725 q -0.99,0 -1.728,-0.486 -0.738,-0.486 -1.152,-1.368 -0.414,-0.9 -0.414,-2.07 0,-1.044 0.468,-1.89 0.486,-0.864 1.278,-1.386 0.792,-0.522 1.728,-0.522 0.72,0 1.278,0.288 0.558,0.288 0.864,0.81 0.324,0.504 0.324,1.17 0,0.558 -0.54,0.558 h -3.798 q -0.252,0 -0.36,0.144 -0.09,0.126 -0.09,0.522 0,0.864 0.378,1.584 0.378,0.702 1.008,1.134 0.63,0.414 1.386,0.414 0.54,0 0.972,-0.198 0.45,-0.216 0.792,-0.612 0.072,-0.09 0.108,-0.108 0.036,-0.036 0.09,-0.036 0.144,0 0.144,0.18 0,0.342 -0.324,0.756 -0.27,0.342 -0.648,0.594 -0.378,0.252 -0.828,0.378 -0.45,0.144 -0.936,0.144 z m -1.656,-5.454 h 1.638 q 0.432,0 0.738,-0.018 0.306,-0.018 0.594,-0.072 0.09,-0.018 0.108,-0.108 0.036,-0.108 0.036,-0.288 0,-0.522 -0.468,-0.882 -0.45,-0.378 -1.08,-0.378 -0.414,0 -0.828,0.252 -0.414,0.234 -0.684,0.594 -0.27,0.36 -0.27,0.72 0,0.18 0.216,0.18 z"
       style="font-family:'EB Garamond';-inkscape-font-specification:'EB Garamond'"
       id="path918" />
    <path
       d="m -181.02235,369.5565 q -0.09,0 -0.234,-0.036 -0.126,-0.018 -0.126,-0.126 0,-0.144 0.126,-0.198 0.144,-0.072 0.288,-0.126 0.27,-0.09 0.522,-0.198 0.252,-0.126 0.252,-0.486 v -9.072 q 0,-0.522 -0.198,-0.864 -0.18,-0.36 -0.63,-0.45 -0.144,-0.036 -0.144,-0.234 0,-0.18 0.126,-0.216 0.468,-0.108 0.81,-0.216 0.342,-0.126 0.63,-0.252 0.306,-0.126 0.594,-0.234 0.072,-0.036 0.108,-0.036 0.036,0 0.054,0.054 0.036,0.036 0.036,0.072 0,0.162 -0.072,0.702 -0.054,0.522 -0.054,1.746 v 9 q 0,0.36 0.252,0.486 0.252,0.108 0.522,0.198 0.144,0.054 0.27,0.126 0.144,0.054 0.144,0.198 0,0.108 -0.144,0.126 -0.126,0.036 -0.216,0.036 -0.342,0 -0.558,-0.036 -0.198,-0.018 -0.396,-0.036 -0.18,-0.018 -0.504,-0.018 -0.306,0 -0.504,0.018 -0.198,0.018 -0.396,0.036 -0.198,0.036 -0.558,0.036 z"
       style="font-family:'EB Garamond';-inkscape-font-specification:'EB Garamond'"
       id="path920" />
    <path
       d="m -169.97037,369.7725 q -0.99,0 -1.728,-0.486 -0.738,-0.486 -1.152,-1.368 -0.414,-0.9 -0.414,-2.07 0,-1.044 0.468,-1.89 0.486,-0.864 1.278,-1.386 0.792,-0.522 1.728,-0.522 0.72,0 1.278,0.288 0.558,0.288 0.864,0.81 0.324,0.504 0.324,1.17 0,0.558 -0.54,0.558 h -3.798 q -0.252,0 -0.36,0.144 -0.09,0.126 -0.09,0.522 0,0.864 0.378,1.584 0.378,0.702 1.008,1.134 0.63,0.414 1.386,0.414 0.54,0 0.972,-0.198 0.45,-0.216 0.792,-0.612 0.072,-0.09 0.108,-0.108 0.036,-0.036 0.09,-0.036 0.144,0 0.144,0.18 0,0.342 -0.324,0.756 -0.27,0.342 -0.648,0.594 -0.378,0.252 -0.828,0.378 -0.45,0.144 -0.936,0.144 z m -1.656,-5.454 h 1.638 q 0.432,0 0.738,-0.018 0.306,-0.018 0.594,-0.072 0.09,-0.018 0.108,-0.108 0.036,-0.108 0.036,-0.288 0,-0.522 -0.468,-0.882 -0.45,-0.378 -1.08,-0.378 -0.414,0 -0.828,0.252 -0.414,0.234 -0.684,0.594 -0.27,0.36 -0.27,0.72 0,0.18 0.216,0.18 z"
       style="font-family:'EB Garamond';-inkscape-font-specification:'EB Garamond'"
       id="path922" />
    <path
       d="m -165.99239,369.5565 q -0.162,0 -0.27,-0.054 -0.09,-0.036 -0.09,-0.144 0,-0.144 0.108,-0.18 0.108,-0.054 0.306,-0.108 0.27,-0.072 0.522,-0.198 0.252,-0.126 0.252,-0.486 v -3.87 q 0,-0.486 -0.108,-0.828 -0.09,-0.342 -0.558,-0.468 -0.072,-0.036 -0.126,-0.072 -0.054,-0.054 -0.054,-0.162 0,-0.198 0.162,-0.216 0.63,-0.162 1.026,-0.396 0.396,-0.234 0.774,-0.522 0.054,-0.036 0.09,-0.054 0.054,-0.036 0.108,-0.036 0.036,0 0.054,0.036 0.036,0.036 0.036,0.09 0,0.126 -0.054,0.522 -0.036,0.378 -0.036,0.63 0,0.072 0,0.144 0.018,0.054 0.036,0.072 0.63,-0.594 1.332,-0.9 0.72,-0.306 1.566,-0.306 0.882,0 1.458,0.72 0.576,0.72 0.576,1.782 v 3.834 q 0,0.36 0.252,0.486 0.252,0.108 0.522,0.198 0.144,0.054 0.27,0.126 0.144,0.054 0.144,0.198 0,0.108 -0.126,0.126 -0.126,0.036 -0.234,0.036 -0.36,0 -0.558,-0.036 -0.198,-0.018 -0.378,-0.036 -0.18,-0.018 -0.504,-0.018 -0.306,0 -0.504,0.018 -0.198,0.018 -0.414,0.036 -0.198,0.036 -0.558,0.036 -0.09,0 -0.234,-0.036 -0.126,-0.018 -0.126,-0.126 0,-0.144 0.126,-0.198 0.144,-0.072 0.288,-0.126 0.27,-0.09 0.522,-0.198 0.252,-0.126 0.252,-0.486 v -3.78 q 0,-0.792 -0.45,-1.224 -0.432,-0.45 -1.17,-0.468 -0.648,0 -1.134,0.216 -0.486,0.198 -0.864,0.504 -0.072,0.072 -0.108,0.198 -0.036,0.108 -0.036,0.216 v 4.338 q 0,0.36 0.252,0.486 0.252,0.126 0.522,0.198 0.414,0.108 0.414,0.288 0,0.108 -0.09,0.144 -0.09,0.054 -0.27,0.054 -0.36,0 -0.576,-0.036 -0.198,-0.018 -0.378,-0.036 -0.18,-0.018 -0.504,-0.018 -0.306,0 -0.504,0.018 -0.18,0.018 -0.396,0.036 -0.198,0.036 -0.558,0.036 z"
       style="font-family:'EB Garamond';-inkscape-font-specification:'EB Garamond'"
       id="path924" />
    <path
       d="m -153.44639,369.7725 q -0.99,0 -1.728,-0.486 -0.738,-0.486 -1.152,-1.368 -0.414,-0.9 -0.414,-2.07 0,-1.044 0.468,-1.89 0.486,-0.864 1.278,-1.386 0.792,-0.522 1.728,-0.522 0.72,0 1.278,0.288 0.558,0.288 0.864,0.81 0.324,0.504 0.324,1.17 0,0.558 -0.54,0.558 h -3.798 q -0.252,0 -0.36,0.144 -0.09,0.126 -0.09,0.522 0,0.864 0.378,1.584 0.378,0.702 1.008,1.134 0.63,0.414 1.386,0.414 0.54,0 0.972,-0.198 0.45,-0.216 0.792,-0.612 0.072,-0.09 0.108,-0.108 0.036,-0.036 0.09,-0.036 0.144,0 0.144,0.18 0,0.342 -0.324,0.756 -0.27,0.342 -0.648,0.594 -0.378,0.252 -0.828,0.378 -0.45,0.144 -0.936,0.144 z m -1.656,-5.454 h 1.638 q 0.432,0 0.738,-0.018 0.306,-0.018 0.594,-0.072 0.09,-0.018 0.108,-0.108 0.036,-0.108 0.036,-0.288 0,-0.522 -0.468,-0.882 -0.45,-0.378 -1.08,-0.378 -0.414,0 -0.828,0.252 -0.414,0.234 -0.684,0.594 -0.27,0.36 -0.27,0.72 0,0.18 0.216,0.18 z"
       style="font-family:'EB Garamond';-inkscape-font-specification:'EB Garamond'"
       id="path926" />
    <path
       d="m -149.3784,369.5565 q -0.18,0 -0.27,-0.054 -0.09,-0.036 -0.09,-0.144 0,-0.144 0.108,-0.18 0.108,-0.054 0.306,-0.108 0.342,-0.09 0.504,-0.252 0.18,-0.18 0.18,-0.432 v -3.87 q 0,-0.486 -0.144,-0.846 -0.144,-0.36 -0.594,-0.45 -0.072,-0.018 -0.126,-0.09 -0.054,-0.072 -0.054,-0.144 0,-0.18 0.162,-0.216 0.468,-0.144 0.972,-0.414 0.522,-0.288 0.81,-0.468 0.108,-0.072 0.162,-0.09 0.072,-0.036 0.108,-0.036 0.09,0 0.09,0.126 0,0.054 -0.018,0.27 0,0.216 -0.018,0.504 0,0.288 -0.018,0.576 0,0.036 0.036,0.036 0.288,-0.36 0.63,-0.63 0.36,-0.27 0.72,-0.432 0.378,-0.162 0.72,-0.162 0.378,0 0.612,0.162 0.252,0.162 0.252,0.414 0,0.18 -0.108,0.396 -0.09,0.216 -0.252,0.378 -0.162,0.162 -0.342,0.162 -0.108,0 -0.234,-0.036 -0.126,-0.054 -0.27,-0.126 -0.144,-0.054 -0.288,-0.108 -0.144,-0.054 -0.288,-0.054 -0.432,0 -0.846,0.306 -0.396,0.306 -0.396,1.206 v 3.636 q 0,0.234 0.252,0.396 0.252,0.144 0.702,0.288 0.198,0.054 0.306,0.108 0.108,0.054 0.108,0.18 0,0.198 -0.36,0.198 -0.54,0 -0.828,-0.054 -0.27,-0.036 -0.738,-0.036 -0.306,0 -0.504,0.018 -0.18,0.018 -0.396,0.036 -0.198,0.036 -0.558,0.036 z"
       style="font-family:'EB Garamond';-inkscape-font-specification:'EB Garamond'"
       id="path928" />
    <path
       d="m -140.73841,374.7225 q -1.53,0 -2.43,-0.594 -0.882,-0.576 -0.882,-1.566 0,-0.468 0.144,-0.792 0.144,-0.324 0.45,-0.558 0.252,-0.216 0.666,-0.558 0.432,-0.324 0.882,-0.684 l 0.756,0.036 q -0.864,0.558 -1.206,1.062 -0.342,0.504 -0.342,1.224 0,0.72 0.63,1.206 0.648,0.504 1.584,0.504 1.062,0 1.71,-0.486 0.45,-0.342 0.702,-0.9 0.252,-0.54 0.252,-1.152 0,-0.396 -0.288,-0.666 -0.27,-0.252 -0.864,-0.414 -0.594,-0.162 -1.548,-0.216 -1.692,-0.126 -2.358,-0.45 -0.648,-0.324 -0.648,-1.008 0,-0.18 0.09,-0.324 0.108,-0.162 0.324,-0.342 0.414,-0.324 0.612,-0.468 0.198,-0.162 0.288,-0.27 0.108,-0.108 0.198,-0.27 l 0.612,0.306 q -0.396,0.144 -0.666,0.396 -0.27,0.234 -0.27,0.432 0,0.252 0.27,0.45 0.27,0.18 0.792,0.288 0.522,0.108 1.278,0.162 1.656,0.09 2.466,0.54 0.81,0.45 0.81,1.278 0,0.702 -0.36,1.368 -0.342,0.684 -0.918,1.242 -0.576,0.558 -1.296,0.882 -0.702,0.342 -1.44,0.342 z m 0.216,-7.758 q 0.684,0 1.134,-0.684 0.45,-0.702 0.45,-1.728 0,-0.522 -0.252,-0.972 -0.234,-0.468 -0.63,-0.738 -0.378,-0.288 -0.828,-0.288 -0.414,0 -0.792,0.306 -0.36,0.288 -0.594,0.756 -0.216,0.468 -0.216,1.026 0,0.63 0.234,1.17 0.234,0.522 0.63,0.846 0.396,0.306 0.864,0.306 z m -0.108,0.63 q -0.738,0 -1.404,-0.378 -0.666,-0.378 -1.098,-0.99 -0.414,-0.63 -0.414,-1.368 0,-0.846 0.432,-1.476 0.45,-0.648 1.17,-1.008 0.72,-0.36 1.53,-0.36 0.522,0 0.9,0.144 0.396,0.126 0.774,0.234 0.432,0.126 0.684,0.162 0.252,0.018 0.522,0.018 0.216,0 0.54,-0.018 0.324,-0.036 0.45,-0.036 0.234,0 0.234,0.27 0,0.162 -0.18,0.342 -0.09,0.09 -0.144,0.09 h -0.486 q -0.486,0 -0.54,0.144 -0.018,0.072 -0.054,0.216 -0.018,0.126 -0.036,0.288 -0.018,0.162 -0.018,0.324 0,0.918 -0.396,1.692 -0.396,0.774 -1.044,1.242 -0.648,0.468 -1.422,0.468 z"
       style="font-family:'EB Garamond';-inkscape-font-specification:'EB Garamond'"
       id="path930" />
    <path
       d="m -132.58441,369.7725 q -0.99,0 -1.728,-0.486 -0.738,-0.486 -1.152,-1.368 -0.414,-0.9 -0.414,-2.07 0,-1.044 0.468,-1.89 0.486,-0.864 1.278,-1.386 0.792,-0.522 1.728,-0.522 0.72,0 1.278,0.288 0.558,0.288 0.864,0.81 0.324,0.504 0.324,1.17 0,0.558 -0.54,0.558 h -3.798 q -0.252,0 -0.36,0.144 -0.09,0.126 -0.09,0.522 0,0.864 0.378,1.584 0.378,0.702 1.008,1.134 0.63,0.414 1.386,0.414 0.54,0 0.972,-0.198 0.45,-0.216 0.792,-0.612 0.072,-0.09 0.108,-0.108 0.036,-0.036 0.09,-0.036 0.144,0 0.144,0.18 0,0.342 -0.324,0.756 -0.27,0.342 -0.648,0.594 -0.378,0.252 -0.828,0.378 -0.45,0.144 -0.936,0.144 z m -1.656,-5.454 h 1.638 q 0.432,0 0.738,-0.018 0.306,-0.018 0.594,-0.072 0.09,-0.018 0.108,-0.108 0.036,-0.108 0.036,-0.288 0,-0.522 -0.468,-0.882 -0.45,-0.378 -1.08,-0.378 -0.414,0 -0.828,0.252 -0.414,0.234 -0.684,0.594 -0.27,0.36 -0.27,0.72 0,0.18 0.216,0.18 z m 1.386,-3.042 q -0.144,0 -0.144,-0.162 0,-0.054 0.018,-0.126 0.018,-0.09 0.054,-0.198 0.126,-0.342 0.396,-0.864 0.288,-0.54 0.558,-1.044 0.288,-0.504 0.432,-0.738 0.09,-0.144 0.216,-0.234 0.144,-0.09 0.27,-0.09 0.342,0 0.612,0.09 0.27,0.09 0.27,0.288 0,0.108 -0.054,0.18 -0.036,0.072 -0.126,0.198 -0.216,0.306 -0.594,0.774 -0.36,0.45 -0.738,0.882 -0.378,0.432 -0.612,0.666 -0.378,0.378 -0.558,0.378 z"
       style="font-family:'EB Garamond';-inkscape-font-specification:'EB Garamond'"
       id="path932" />
    <path
       d="m -125.99642,369.7545 q -0.882,0 -1.386,-0.54 -0.486,-0.54 -0.486,-1.602 v -4.176 q 0,-0.144 -0.108,-0.198 -0.108,-0.072 -0.468,-0.072 h -0.108 q -0.09,0 -0.162,-0.108 -0.054,-0.126 -0.054,-0.252 0,-0.036 0.054,-0.108 0.054,-0.072 0.072,-0.09 0.36,-0.252 0.648,-0.504 0.306,-0.252 0.54,-0.486 0.252,-0.252 0.414,-0.45 0.09,-0.09 0.144,-0.144 0.072,-0.072 0.162,-0.072 0.09,0 0.162,0.036 0.09,0.036 0.072,0.162 l -0.09,0.81 q -0.018,0.198 0.09,0.27 0.108,0.072 0.342,0.072 h 2.052 q 0.072,0 0.126,0.126 0.054,0.108 0.054,0.27 0,0.162 -0.054,0.324 -0.054,0.144 -0.126,0.144 h -1.782 q -0.45,0 -0.594,0.072 -0.126,0.072 -0.126,0.432 v 3.546 q 0,0.72 0.306,1.134 0.306,0.414 0.882,0.414 0.522,0 0.81,-0.072 0.288,-0.09 0.522,-0.252 0.036,-0.036 0.072,-0.036 0.072,0 0.09,0.09 0.036,0.072 0.036,0.162 0,0.09 -0.306,0.36 -0.288,0.27 -0.774,0.504 -0.468,0.234 -1.026,0.234 z"
       style="font-family:'EB Garamond';-inkscape-font-specification:'EB Garamond'"
       id="path934" />
    <path
       d="m -122.95444,369.5565 q -0.162,0 -0.27,-0.054 -0.09,-0.036 -0.09,-0.144 0,-0.144 0.126,-0.198 0.144,-0.054 0.288,-0.09 0.378,-0.09 0.576,-0.216 0.198,-0.144 0.198,-0.468 v -3.906 q 0,-0.486 -0.18,-0.864 -0.162,-0.378 -0.63,-0.45 -0.09,-0.018 -0.144,-0.072 -0.036,-0.054 -0.036,-0.162 0,-0.198 0.162,-0.216 0.72,-0.162 1.188,-0.432 0.468,-0.288 0.702,-0.468 0.162,-0.126 0.252,-0.126 0.108,0 0.108,0.09 0,0.144 -0.054,0.576 -0.036,0.414 -0.072,0.936 -0.036,0.504 -0.036,0.918 v 4.176 q 0,0.306 0.198,0.45 0.216,0.144 0.576,0.234 0.144,0.036 0.27,0.09 0.144,0.054 0.144,0.198 0,0.198 -0.36,0.198 -0.342,0 -0.558,-0.036 -0.198,-0.018 -0.396,-0.036 -0.18,-0.018 -0.504,-0.018 -0.306,0 -0.504,0.018 -0.198,0.018 -0.396,0.036 -0.198,0.036 -0.558,0.036 z m 1.44,-9.342 q -0.378,0 -0.648,-0.252 -0.252,-0.27 -0.252,-0.648 0,-0.396 0.252,-0.648 0.27,-0.27 0.648,-0.27 0.396,0 0.648,0.27 0.27,0.252 0.27,0.648 0,0.378 -0.27,0.648 -0.252,0.252 -0.648,0.252 z"
       style="font-family:'EB Garamond';-inkscape-font-specification:'EB Garamond'"
       id="path936" />
    <path
       d="m -115.50246,369.7725 q -0.9,0 -1.638,-0.45 -0.72,-0.468 -1.152,-1.26 -0.414,-0.81 -0.414,-1.8 0,-1.17 0.504,-2.124 0.522,-0.954 1.386,-1.512 0.864,-0.576 1.908,-0.576 1.17,0 2.052,0.63 0.216,0.162 0.216,0.342 0,0.144 -0.126,0.324 -0.126,0.18 -0.306,0.306 -0.18,0.108 -0.342,0.108 -0.09,0 -0.18,-0.054 -0.09,-0.072 -0.198,-0.144 -0.396,-0.306 -0.882,-0.576 -0.486,-0.27 -0.81,-0.27 -0.882,0 -1.44,0.828 -0.54,0.81 -0.54,2.142 0,0.846 0.36,1.53 0.378,0.684 0.99,1.08 0.63,0.396 1.386,0.396 0.522,0 0.9,-0.162 0.378,-0.18 0.81,-0.612 0.036,-0.036 0.09,-0.054 0.054,-0.036 0.09,-0.036 0.198,0 0.198,0.252 0,0.108 -0.072,0.252 -0.054,0.126 -0.198,0.306 -0.288,0.36 -0.684,0.63 -0.396,0.252 -0.882,0.378 -0.468,0.126 -1.026,0.126 z"
       style="font-family:'EB Garamond';-inkscape-font-specification:'EB Garamond'"
       id="path938" />
    <path
       d="m -108.15848,369.7545 q -1.008,0 -1.818,-0.468 -0.81,-0.468 -1.296,-1.278 -0.468,-0.828 -0.468,-1.872 0,-0.756 0.288,-1.476 0.306,-0.72 0.846,-1.314 0.54,-0.594 1.26,-0.936 0.72,-0.36 1.548,-0.36 1.044,0 1.872,0.504 0.846,0.504 1.332,1.332 0.504,0.81 0.504,1.782 0,1.044 -0.468,1.98 -0.45,0.936 -1.35,1.53 -0.9,0.576 -2.25,0.576 z m 0.378,-0.54 q 0.612,0 1.098,-0.234 0.486,-0.234 0.756,-0.756 0.216,-0.414 0.288,-1.008 0.072,-0.594 0.072,-1.116 0,-0.864 -0.324,-1.656 -0.306,-0.81 -0.882,-1.314 -0.558,-0.522 -1.332,-0.522 -0.486,0 -0.882,0.162 -0.378,0.144 -0.702,0.558 -0.36,0.45 -0.468,1.098 -0.108,0.648 -0.108,1.296 0,0.882 0.324,1.692 0.324,0.792 0.882,1.296 0.558,0.504 1.278,0.504 z"
       style="font-family:'EB Garamond';-inkscape-font-specification:'EB Garamond'"
       id="path940" />
  </g>
  <g
     aria-label="Energía de enlace (eV)"
     transform="rotate(-90,-13.425499,-2.105031)"
     id="text385-7"
     style="font-size:18px;line-height:1.25;stroke-width:0.75">
    <path
       d="m -233.89722,24.100468 q -0.234,0 -0.378,-0.054 -0.144,-0.036 -0.144,-0.144 0,-0.216 0.594,-0.324 0.684,-0.126 1.008,-0.414 0.324,-0.288 0.324,-0.936 v -8.1 q 0,-0.648 -0.27,-0.918 -0.252,-0.27 -0.936,-0.396 -0.306,-0.054 -0.45,-0.144 -0.144,-0.09 -0.144,-0.216 0,-0.108 0.144,-0.144 0.144,-0.054 0.378,-0.054 0.684,0 1.152,0.018 0.486,0.018 0.936,0.036 0.468,0 1.098,0 0.594,0 1.242,0 0.666,-0.018 1.224,-0.018 0.612,-0.018 1.026,-0.018 0.432,-0.018 0.504,-0.018 0.09,0 0.198,0.036 0.108,0.036 0.126,0.126 0.09,0.504 0.18,1.008 0.09,0.486 0.09,0.846 0,0.162 -0.09,0.216 -0.072,0.054 -0.162,0.054 -0.09,0 -0.126,-0.036 -0.036,-0.054 -0.072,-0.144 -0.09,-0.306 -0.18,-0.576 -0.09,-0.288 -0.216,-0.414 -0.252,-0.288 -0.558,-0.378 -0.306,-0.108 -0.648,-0.108 h -2.358 q -0.144,0 -0.396,0.162 -0.252,0.162 -0.252,0.414 v 3.816 q 0,0.162 0.09,0.288 0.108,0.108 0.234,0.108 h 1.782 q 0.522,0 0.72,-0.18 0.198,-0.198 0.324,-0.702 0.108,-0.396 0.324,-0.396 0.072,0 0.144,0.072 0.09,0.072 0.09,0.216 0,0.072 -0.018,0.324 0,0.252 -0.018,0.522 -0.018,0.27 -0.018,0.414 0,0.18 0,0.486 0.018,0.288 0.018,0.558 0.018,0.27 0.018,0.342 0,0.126 -0.036,0.216 -0.018,0.09 -0.126,0.09 -0.27,0 -0.414,-0.576 -0.108,-0.414 -0.288,-0.612 -0.18,-0.198 -0.54,-0.198 h -1.674 q -0.306,0 -0.468,0.09 -0.144,0.072 -0.144,0.378 v 3.456 q 0,0.684 0.288,0.954 0.288,0.252 0.9,0.252 h 1.332 q 0.576,0 0.954,-0.054 0.396,-0.072 0.684,-0.252 0.288,-0.198 0.504,-0.522 0.234,-0.324 0.522,-0.864 0.054,-0.108 0.126,-0.18 0.072,-0.072 0.162,-0.054 0.09,0.018 0.144,0.09 0.054,0.054 0.054,0.162 0,0.162 -0.09,0.576 -0.09,0.396 -0.234,0.828 -0.126,0.432 -0.234,0.684 -0.054,0.126 -0.108,0.216 -0.036,0.09 -0.144,0.09 -0.864,0 -1.602,-0.018 -0.738,-0.018 -1.404,-0.036 -0.666,-0.018 -1.314,-0.036 -0.63,-0.018 -1.314,-0.018 -0.396,0 -0.684,0.018 -0.288,0.036 -0.594,0.054 -0.306,0.036 -0.792,0.036 z"
       style="font-family:'EB Garamond';-inkscape-font-specification:'EB Garamond'"
       id="path812" />
    <path
       d="m -224.14124,24.064468 q -0.162,0 -0.27,-0.054 -0.09,-0.036 -0.09,-0.144 0,-0.144 0.108,-0.18 0.108,-0.054 0.306,-0.108 0.27,-0.072 0.522,-0.198 0.252,-0.126 0.252,-0.486 v -3.87 q 0,-0.486 -0.108,-0.828 -0.09,-0.342 -0.558,-0.468 -0.072,-0.036 -0.126,-0.072 -0.054,-0.054 -0.054,-0.162 0,-0.198 0.162,-0.216 0.63,-0.162 1.026,-0.396 0.396,-0.234 0.774,-0.522 0.054,-0.036 0.09,-0.054 0.054,-0.036 0.108,-0.036 0.036,0 0.054,0.036 0.036,0.036 0.036,0.09 0,0.126 -0.054,0.522 -0.036,0.378 -0.036,0.63 0,0.072 0,0.144 0.018,0.054 0.036,0.072 0.63,-0.594 1.332,-0.9 0.72,-0.306 1.566,-0.306 0.882,0 1.458,0.72 0.576,0.72 0.576,1.782 v 3.834 q 0,0.36 0.252,0.486 0.252,0.108 0.522,0.198 0.144,0.054 0.27,0.126 0.144,0.054 0.144,0.198 0,0.108 -0.126,0.126 -0.126,0.036 -0.234,0.036 -0.36,0 -0.558,-0.036 -0.198,-0.018 -0.378,-0.036 -0.18,-0.018 -0.504,-0.018 -0.306,0 -0.504,0.018 -0.198,0.018 -0.414,0.036 -0.198,0.036 -0.558,0.036 -0.09,0 -0.234,-0.036 -0.126,-0.018 -0.126,-0.126 0,-0.144 0.126,-0.198 0.144,-0.072 0.288,-0.126 0.27,-0.09 0.522,-0.198 0.252,-0.126 0.252,-0.486 v -3.78 q 0,-0.792 -0.45,-1.224 -0.432,-0.45 -1.17,-0.468 -0.648,0 -1.134,0.216 -0.486,0.198 -0.864,0.504 -0.072,0.072 -0.108,0.198 -0.036,0.108 -0.036,0.216 v 4.338 q 0,0.36 0.252,0.486 0.252,0.126 0.522,0.198 0.414,0.108 0.414,0.288 0,0.108 -0.09,0.144 -0.09,0.054 -0.27,0.054 -0.36,0 -0.576,-0.036 -0.198,-0.018 -0.378,-0.036 -0.18,-0.018 -0.504,-0.018 -0.306,0 -0.504,0.018 -0.18,0.018 -0.396,0.036 -0.198,0.036 -0.558,0.036 z"
       style="font-family:'EB Garamond';-inkscape-font-specification:'EB Garamond'"
       id="path814" />
    <path
       d="m -211.59524,24.280468 q -0.99,0 -1.728,-0.486 -0.738,-0.486 -1.152,-1.368 -0.414,-0.9 -0.414,-2.07 0,-1.044 0.468,-1.89 0.486,-0.864 1.278,-1.386 0.792,-0.522 1.728,-0.522 0.72,0 1.278,0.288 0.558,0.288 0.864,0.81 0.324,0.504 0.324,1.17 0,0.558 -0.54,0.558 h -3.798 q -0.252,0 -0.36,0.144 -0.09,0.126 -0.09,0.522 0,0.864 0.378,1.584 0.378,0.702 1.008,1.134 0.63,0.414 1.386,0.414 0.54,0 0.972,-0.198 0.45,-0.216 0.792,-0.612 0.072,-0.09 0.108,-0.108 0.036,-0.036 0.09,-0.036 0.144,0 0.144,0.18 0,0.342 -0.324,0.756 -0.27,0.342 -0.648,0.594 -0.378,0.252 -0.828,0.378 -0.45,0.144 -0.936,0.144 z m -1.656,-5.454 h 1.638 q 0.432,0 0.738,-0.018 0.306,-0.018 0.594,-0.072 0.09,-0.018 0.108,-0.108 0.036,-0.108 0.036,-0.288 0,-0.522 -0.468,-0.882 -0.45,-0.378 -1.08,-0.378 -0.414,0 -0.828,0.252 -0.414,0.234 -0.684,0.594 -0.27,0.36 -0.27,0.72 0,0.18 0.216,0.18 z"
       style="font-family:'EB Garamond';-inkscape-font-specification:'EB Garamond'"
       id="path816" />
    <path
       d="m -207.52725,24.064468 q -0.18,0 -0.27,-0.054 -0.09,-0.036 -0.09,-0.144 0,-0.144 0.108,-0.18 0.108,-0.054 0.306,-0.108 0.342,-0.09 0.504,-0.252 0.18,-0.18 0.18,-0.432 v -3.87 q 0,-0.486 -0.144,-0.846 -0.144,-0.36 -0.594,-0.45 -0.072,-0.018 -0.126,-0.09 -0.054,-0.072 -0.054,-0.144 0,-0.18 0.162,-0.216 0.468,-0.144 0.972,-0.414 0.522,-0.288 0.81,-0.468 0.108,-0.072 0.162,-0.09 0.072,-0.036 0.108,-0.036 0.09,0 0.09,0.126 0,0.054 -0.018,0.27 0,0.216 -0.018,0.504 0,0.288 -0.018,0.576 0,0.036 0.036,0.036 0.288,-0.36 0.63,-0.63 0.36,-0.27 0.72,-0.432 0.378,-0.162 0.72,-0.162 0.378,0 0.612,0.162 0.252,0.162 0.252,0.414 0,0.18 -0.108,0.396 -0.09,0.216 -0.252,0.378 -0.162,0.162 -0.342,0.162 -0.108,0 -0.234,-0.036 -0.126,-0.054 -0.27,-0.126 -0.144,-0.054 -0.288,-0.108 -0.144,-0.054 -0.288,-0.054 -0.432,0 -0.846,0.306 -0.396,0.306 -0.396,1.206 v 3.636 q 0,0.234 0.252,0.396 0.252,0.144 0.702,0.288 0.198,0.054 0.306,0.108 0.108,0.054 0.108,0.18 0,0.198 -0.36,0.198 -0.54,0 -0.828,-0.054 -0.27,-0.036 -0.738,-0.036 -0.306,0 -0.504,0.018 -0.18,0.018 -0.396,0.036 -0.198,0.036 -0.558,0.036 z"
       style="font-family:'EB Garamond';-inkscape-font-specification:'EB Garamond'"
       id="path818" />
    <path
       d="m -198.88725,29.230468 q -1.53,0 -2.43,-0.594 -0.882,-0.576 -0.882,-1.566 0,-0.468 0.144,-0.792 0.144,-0.324 0.45,-0.558 0.252,-0.216 0.666,-0.558 0.432,-0.324 0.882,-0.684 l 0.756,0.036 q -0.864,0.558 -1.206,1.062 -0.342,0.504 -0.342,1.224 0,0.72 0.63,1.206 0.648,0.504 1.584,0.504 1.062,0 1.71,-0.486 0.45,-0.342 0.702,-0.9 0.252,-0.54 0.252,-1.152 0,-0.396 -0.288,-0.666 -0.27,-0.252 -0.864,-0.414 -0.594,-0.162 -1.548,-0.216 -1.692,-0.126 -2.358,-0.45 -0.648,-0.324 -0.648,-1.008 0,-0.18 0.09,-0.324 0.108,-0.162 0.324,-0.342 0.414,-0.324 0.612,-0.468 0.198,-0.162 0.288,-0.27 0.108,-0.108 0.198,-0.27 l 0.612,0.306 q -0.396,0.144 -0.666,0.396 -0.27,0.234 -0.27,0.432 0,0.252 0.27,0.45 0.27,0.18 0.792,0.288 0.522,0.108 1.278,0.162 1.656,0.09 2.466,0.54 0.81,0.45 0.81,1.278 0,0.702 -0.36,1.368 -0.342,0.684 -0.918,1.242 -0.576,0.558 -1.296,0.882 -0.702,0.342 -1.44,0.342 z m 0.216,-7.758 q 0.684,0 1.134,-0.684 0.45,-0.702 0.45,-1.728 0,-0.522 -0.252,-0.972 -0.234,-0.468 -0.63,-0.738 -0.378,-0.288 -0.828,-0.288 -0.414,0 -0.792,0.306 -0.36,0.288 -0.594,0.756 -0.216,0.468 -0.216,1.026 0,0.63 0.234,1.17 0.234,0.522 0.63,0.846 0.396,0.306 0.864,0.306 z m -0.108,0.63 q -0.738,0 -1.404,-0.378 -0.666,-0.378 -1.098,-0.99 -0.414,-0.63 -0.414,-1.368 0,-0.846 0.432,-1.476 0.45,-0.648 1.17,-1.008 0.72,-0.36 1.53,-0.36 0.522,0 0.9,0.144 0.396,0.126 0.774,0.234 0.432,0.126 0.684,0.162 0.252,0.018 0.522,0.018 0.216,0 0.54,-0.018 0.324,-0.036 0.45,-0.036 0.234,0 0.234,0.27 0,0.162 -0.18,0.342 -0.09,0.09 -0.144,0.09 h -0.486 q -0.486,0 -0.54,0.144 -0.018,0.072 -0.054,0.216 -0.018,0.126 -0.036,0.288 -0.018,0.162 -0.018,0.324 0,0.918 -0.396,1.692 -0.396,0.774 -1.044,1.242 -0.648,0.468 -1.422,0.468 z"
       style="font-family:'EB Garamond';-inkscape-font-specification:'EB Garamond'"
       id="path820" />
    <path
       d="m -193.77526,24.064468 q -0.162,0 -0.27,-0.054 -0.09,-0.036 -0.09,-0.144 0,-0.144 0.126,-0.198 0.144,-0.054 0.288,-0.09 0.378,-0.09 0.576,-0.216 0.198,-0.144 0.198,-0.468 v -3.906 q 0,-0.486 -0.18,-0.864 -0.162,-0.378 -0.63,-0.45 -0.09,-0.018 -0.144,-0.072 -0.036,-0.054 -0.036,-0.162 0,-0.198 0.162,-0.216 0.72,-0.162 1.188,-0.432 0.468,-0.288 0.702,-0.468 0.162,-0.126 0.252,-0.126 0.108,0 0.108,0.09 0,0.144 -0.054,0.576 -0.036,0.414 -0.072,0.936 -0.036,0.504 -0.036,0.918 v 4.176 q 0,0.306 0.198,0.45 0.216,0.144 0.576,0.234 0.144,0.036 0.27,0.09 0.144,0.054 0.144,0.198 0,0.198 -0.36,0.198 -0.342,0 -0.558,-0.036 -0.198,-0.018 -0.396,-0.036 -0.18,-0.018 -0.504,-0.018 -0.306,0 -0.504,0.018 -0.198,0.018 -0.396,0.036 -0.198,0.036 -0.558,0.036 z m 1.008,-8.28 q -0.144,0 -0.144,-0.162 0,-0.054 0.018,-0.126 0.018,-0.09 0.054,-0.198 0.126,-0.342 0.396,-0.864 0.288,-0.54 0.558,-1.044 0.288,-0.504 0.432,-0.738 0.09,-0.144 0.216,-0.234 0.144,-0.09 0.27,-0.09 0.342,0 0.612,0.09 0.27,0.09 0.27,0.288 0,0.108 -0.054,0.18 -0.036,0.072 -0.126,0.198 -0.216,0.306 -0.594,0.774 -0.36,0.45 -0.738,0.882 -0.378,0.432 -0.612,0.666 -0.378,0.378 -0.558,0.378 z"
       style="font-family:'EB Garamond';-inkscape-font-specification:'EB Garamond'"
       id="path822" />
    <path
       d="m -188.05128,24.262468 q -0.324,0 -0.666,-0.252 -0.324,-0.252 -0.558,-0.612 -0.216,-0.36 -0.216,-0.684 0,-0.576 0.306,-0.9 0.306,-0.324 0.972,-0.594 l 1.836,-0.756 q 0.36,-0.144 0.414,-0.252 0.072,-0.108 0.09,-0.468 l 0.036,-1.152 q 0.018,-0.468 -0.27,-0.81 -0.27,-0.342 -0.792,-0.342 -0.27,0 -0.54,0.09 -0.27,0.09 -0.45,0.234 -0.108,0.072 -0.144,0.216 -0.036,0.144 -0.036,0.306 0,0.072 0,0.162 0.018,0.09 0.018,0.162 0,0.09 -0.234,0.252 -0.216,0.144 -0.504,0.27 -0.27,0.108 -0.45,0.108 -0.09,0 -0.144,-0.036 -0.054,-0.054 -0.054,-0.126 0,-0.288 0.18,-0.612 0.198,-0.342 0.54,-0.63 0.414,-0.378 0.9,-0.666 0.486,-0.288 0.954,-0.45 0.468,-0.162 0.828,-0.162 0.648,0 1.062,0.468 0.432,0.45 0.414,1.134 l -0.09,4.32 q -0.018,0.378 0.162,0.612 0.198,0.234 0.486,0.234 0.45,0 0.666,-0.198 0.09,-0.09 0.144,-0.09 0.09,0 0.144,0.054 0.054,0.054 0.054,0.144 0,0.198 -0.198,0.396 -0.288,0.288 -0.63,0.45 -0.324,0.18 -0.612,0.18 -0.828,0 -1.314,-0.936 h -0.054 q -0.594,0.486 -1.134,0.702 -0.54,0.234 -1.116,0.234 z m 0.846,-0.864 q 0.36,0 0.612,-0.108 0.252,-0.126 0.45,-0.324 0.09,-0.09 0.144,-0.234 0.072,-0.162 0.09,-0.504 l 0.036,-0.882 q 0.018,-0.198 -0.018,-0.288 -0.036,-0.09 -0.144,-0.09 -0.036,0 -0.126,0.018 -0.09,0.018 -0.234,0.072 -0.954,0.342 -1.332,0.72 -0.36,0.36 -0.36,0.666 0,0.468 0.27,0.72 0.288,0.234 0.612,0.234 z"
       style="font-family:'EB Garamond';-inkscape-font-specification:'EB Garamond'"
       id="path824" />
    <path
       d="m -172.94934,24.352468 q -0.036,0 -0.126,-0.072 -0.072,-0.072 -0.072,-0.108 0,-0.18 0.036,-0.504 0.054,-0.342 0.054,-0.576 v -0.108 q -0.27,0.414 -0.864,0.846 -0.594,0.432 -1.494,0.432 -1.026,0 -1.782,-0.54 -0.738,-0.54 -1.152,-1.386 -0.396,-0.846 -0.396,-1.746 0,-1.044 0.486,-1.962 0.486,-0.918 1.386,-1.494 0.918,-0.576 2.178,-0.576 0.36,0 0.72,0.072 0.378,0.054 0.576,0.126 0.162,0.054 0.234,0.054 0.126,0 0.126,-0.432 v -2.556 q 0,-0.738 -0.234,-0.99 -0.234,-0.252 -0.666,-0.324 -0.162,-0.036 -0.162,-0.234 0,-0.162 0.144,-0.216 0.792,-0.198 1.242,-0.378 0.45,-0.18 0.702,-0.288 0.072,-0.036 0.126,-0.036 0.072,-0.018 0.108,-0.018 0.108,0 0.126,0.108 0,0.108 -0.036,0.378 -0.018,0.252 -0.054,0.756 -0.036,0.504 -0.036,1.314 v 8.136 q 0,0.612 0.09,0.9 0.09,0.27 0.288,0.27 0.09,0 0.306,-0.018 0.234,-0.018 0.468,-0.036 0.324,-0.018 0.324,0.162 0,0.126 -0.09,0.234 -0.072,0.09 -0.162,0.09 -0.504,0.072 -0.99,0.216 -0.486,0.126 -1.116,0.396 -0.144,0.072 -0.198,0.09 -0.036,0.018 -0.09,0.018 z m -1.818,-1.026 q 0.468,0 0.918,-0.234 0.45,-0.252 0.792,-0.648 l 0.018,-3.24 q 0,-0.486 -0.288,-0.954 -0.27,-0.468 -0.774,-0.756 -0.486,-0.306 -1.152,-0.306 -0.414,0 -0.936,0.252 -0.522,0.252 -0.9,0.9 -0.378,0.63 -0.378,1.836 0,1.026 0.306,1.656 0.306,0.612 0.738,0.936 0.45,0.324 0.9,0.45 0.468,0.108 0.756,0.108 z"
       style="font-family:'EB Garamond';-inkscape-font-specification:'EB Garamond'"
       id="path826" />
    <path
       d="m -166.43336,24.280468 q -0.99,0 -1.728,-0.486 -0.738,-0.486 -1.152,-1.368 -0.414,-0.9 -0.414,-2.07 0,-1.044 0.468,-1.89 0.486,-0.864 1.278,-1.386 0.792,-0.522 1.728,-0.522 0.72,0 1.278,0.288 0.558,0.288 0.864,0.81 0.324,0.504 0.324,1.17 0,0.558 -0.54,0.558 h -3.798 q -0.252,0 -0.36,0.144 -0.09,0.126 -0.09,0.522 0,0.864 0.378,1.584 0.378,0.702 1.008,1.134 0.63,0.414 1.386,0.414 0.54,0 0.972,-0.198 0.45,-0.216 0.792,-0.612 0.072,-0.09 0.108,-0.108 0.036,-0.036 0.09,-0.036 0.144,0 0.144,0.18 0,0.342 -0.324,0.756 -0.27,0.342 -0.648,0.594 -0.378,0.252 -0.828,0.378 -0.45,0.144 -0.936,0.144 z m -1.656,-5.454 h 1.638 q 0.432,0 0.738,-0.018 0.306,-0.018 0.594,-0.072 0.09,-0.018 0.108,-0.108 0.036,-0.108 0.036,-0.288 0,-0.522 -0.468,-0.882 -0.45,-0.378 -1.08,-0.378 -0.414,0 -0.828,0.252 -0.414,0.234 -0.684,0.594 -0.27,0.36 -0.27,0.72 0,0.18 0.216,0.18 z"
       style="font-family:'EB Garamond';-inkscape-font-specification:'EB Garamond'"
       id="path828" />
    <path
       d="m -155.81339,24.280468 q -0.99,0 -1.728,-0.486 -0.738,-0.486 -1.152,-1.368 -0.414,-0.9 -0.414,-2.07 0,-1.044 0.468,-1.89 0.486,-0.864 1.278,-1.386 0.792,-0.522 1.728,-0.522 0.72,0 1.278,0.288 0.558,0.288 0.864,0.81 0.324,0.504 0.324,1.17 0,0.558 -0.54,0.558 h -3.798 q -0.252,0 -0.36,0.144 -0.09,0.126 -0.09,0.522 0,0.864 0.378,1.584 0.378,0.702 1.008,1.134 0.63,0.414 1.386,0.414 0.54,0 0.972,-0.198 0.45,-0.216 0.792,-0.612 0.072,-0.09 0.108,-0.108 0.036,-0.036 0.09,-0.036 0.144,0 0.144,0.18 0,0.342 -0.324,0.756 -0.27,0.342 -0.648,0.594 -0.378,0.252 -0.828,0.378 -0.45,0.144 -0.936,0.144 z m -1.656,-5.454 h 1.638 q 0.432,0 0.738,-0.018 0.306,-0.018 0.594,-0.072 0.09,-0.018 0.108,-0.108 0.036,-0.108 0.036,-0.288 0,-0.522 -0.468,-0.882 -0.45,-0.378 -1.08,-0.378 -0.414,0 -0.828,0.252 -0.414,0.234 -0.684,0.594 -0.27,0.36 -0.27,0.72 0,0.18 0.216,0.18 z"
       style="font-family:'EB Garamond';-inkscape-font-specification:'EB Garamond'"
       id="path830" />
    <path
       d="m -151.8354,24.064468 q -0.162,0 -0.27,-0.054 -0.09,-0.036 -0.09,-0.144 0,-0.144 0.108,-0.18 0.108,-0.054 0.306,-0.108 0.27,-0.072 0.522,-0.198 0.252,-0.126 0.252,-0.486 v -3.87 q 0,-0.486 -0.108,-0.828 -0.09,-0.342 -0.558,-0.468 -0.072,-0.036 -0.126,-0.072 -0.054,-0.054 -0.054,-0.162 0,-0.198 0.162,-0.216 0.63,-0.162 1.026,-0.396 0.396,-0.234 0.774,-0.522 0.054,-0.036 0.09,-0.054 0.054,-0.036 0.108,-0.036 0.036,0 0.054,0.036 0.036,0.036 0.036,0.09 0,0.126 -0.054,0.522 -0.036,0.378 -0.036,0.63 0,0.072 0,0.144 0.018,0.054 0.036,0.072 0.63,-0.594 1.332,-0.9 0.72,-0.306 1.566,-0.306 0.882,0 1.458,0.72 0.576,0.72 0.576,1.782 v 3.834 q 0,0.36 0.252,0.486 0.252,0.108 0.522,0.198 0.144,0.054 0.27,0.126 0.144,0.054 0.144,0.198 0,0.108 -0.126,0.126 -0.126,0.036 -0.234,0.036 -0.36,0 -0.558,-0.036 -0.198,-0.018 -0.378,-0.036 -0.18,-0.018 -0.504,-0.018 -0.306,0 -0.504,0.018 -0.198,0.018 -0.414,0.036 -0.198,0.036 -0.558,0.036 -0.09,0 -0.234,-0.036 -0.126,-0.018 -0.126,-0.126 0,-0.144 0.126,-0.198 0.144,-0.072 0.288,-0.126 0.27,-0.09 0.522,-0.198 0.252,-0.126 0.252,-0.486 v -3.78 q 0,-0.792 -0.45,-1.224 -0.432,-0.45 -1.17,-0.468 -0.648,0 -1.134,0.216 -0.486,0.198 -0.864,0.504 -0.072,0.072 -0.108,0.198 -0.036,0.108 -0.036,0.216 v 4.338 q 0,0.36 0.252,0.486 0.252,0.126 0.522,0.198 0.414,0.108 0.414,0.288 0,0.108 -0.09,0.144 -0.09,0.054 -0.27,0.054 -0.36,0 -0.576,-0.036 -0.198,-0.018 -0.378,-0.036 -0.18,-0.018 -0.504,-0.018 -0.306,0 -0.504,0.018 -0.18,0.018 -0.396,0.036 -0.198,0.036 -0.558,0.036 z"
       style="font-family:'EB Garamond';-inkscape-font-specification:'EB Garamond'"
       id="path832" />
    <path
       d="m -142.42141,24.064468 q -0.09,0 -0.234,-0.036 -0.126,-0.018 -0.126,-0.126 0,-0.144 0.126,-0.198 0.144,-0.072 0.288,-0.126 0.27,-0.09 0.522,-0.198 0.252,-0.126 0.252,-0.486 v -9.072 q 0,-0.522 -0.198,-0.864 -0.18,-0.36 -0.63,-0.45 -0.144,-0.036 -0.144,-0.234 0,-0.18 0.126,-0.216 0.468,-0.108 0.81,-0.216 0.342,-0.126 0.63,-0.252 0.306,-0.126 0.594,-0.234 0.072,-0.036 0.108,-0.036 0.036,0 0.054,0.054 0.036,0.036 0.036,0.072 0,0.162 -0.072,0.702 -0.054,0.522 -0.054,1.746 v 9 q 0,0.36 0.252,0.486 0.252,0.108 0.522,0.198 0.144,0.054 0.27,0.126 0.144,0.054 0.144,0.198 0,0.108 -0.144,0.126 -0.126,0.036 -0.216,0.036 -0.342,0 -0.558,-0.036 -0.198,-0.018 -0.396,-0.036 -0.18,-0.018 -0.504,-0.018 -0.306,0 -0.504,0.018 -0.198,0.018 -0.396,0.036 -0.198,0.036 -0.558,0.036 z"
       style="font-family:'EB Garamond';-inkscape-font-specification:'EB Garamond'"
       id="path834" />
    <path
       d="m -136.69741,24.262468 q -0.324,0 -0.666,-0.252 -0.324,-0.252 -0.558,-0.612 -0.216,-0.36 -0.216,-0.684 0,-0.576 0.306,-0.9 0.306,-0.324 0.972,-0.594 l 1.836,-0.756 q 0.36,-0.144 0.414,-0.252 0.072,-0.108 0.09,-0.468 l 0.036,-1.152 q 0.018,-0.468 -0.27,-0.81 -0.27,-0.342 -0.792,-0.342 -0.27,0 -0.54,0.09 -0.27,0.09 -0.45,0.234 -0.108,0.072 -0.144,0.216 -0.036,0.144 -0.036,0.306 0,0.072 0,0.162 0.018,0.09 0.018,0.162 0,0.09 -0.234,0.252 -0.216,0.144 -0.504,0.27 -0.27,0.108 -0.45,0.108 -0.09,0 -0.144,-0.036 -0.054,-0.054 -0.054,-0.126 0,-0.288 0.18,-0.612 0.198,-0.342 0.54,-0.63 0.414,-0.378 0.9,-0.666 0.486,-0.288 0.954,-0.45 0.468,-0.162 0.828,-0.162 0.648,0 1.062,0.468 0.432,0.45 0.414,1.134 l -0.09,4.32 q -0.018,0.378 0.162,0.612 0.198,0.234 0.486,0.234 0.45,0 0.666,-0.198 0.09,-0.09 0.144,-0.09 0.09,0 0.144,0.054 0.054,0.054 0.054,0.144 0,0.198 -0.198,0.396 -0.288,0.288 -0.63,0.45 -0.324,0.18 -0.612,0.18 -0.828,0 -1.314,-0.936 h -0.054 q -0.594,0.486 -1.134,0.702 -0.54,0.234 -1.116,0.234 z m 0.846,-0.864 q 0.36,0 0.612,-0.108 0.252,-0.126 0.45,-0.324 0.09,-0.09 0.144,-0.234 0.072,-0.162 0.09,-0.504 l 0.036,-0.882 q 0.018,-0.198 -0.018,-0.288 -0.036,-0.09 -0.144,-0.09 -0.036,0 -0.126,0.018 -0.09,0.018 -0.234,0.072 -0.954,0.342 -1.332,0.72 -0.36,0.36 -0.36,0.666 0,0.468 0.27,0.72 0.288,0.234 0.612,0.234 z"
       style="font-family:'EB Garamond';-inkscape-font-specification:'EB Garamond'"
       id="path836" />
    <path
       d="m -127.78744,24.280468 q -0.9,0 -1.638,-0.45 -0.72,-0.468 -1.152,-1.26 -0.414,-0.81 -0.414,-1.8 0,-1.17 0.504,-2.124 0.522,-0.954 1.386,-1.512 0.864,-0.576 1.908,-0.576 1.17,0 2.052,0.63 0.216,0.162 0.216,0.342 0,0.144 -0.126,0.324 -0.126,0.18 -0.306,0.306 -0.18,0.108 -0.342,0.108 -0.09,0 -0.18,-0.054 -0.09,-0.072 -0.198,-0.144 -0.396,-0.306 -0.882,-0.576 -0.486,-0.27 -0.81,-0.27 -0.882,0 -1.44,0.828 -0.54,0.81 -0.54,2.142 0,0.846 0.36,1.53 0.378,0.684 0.99,1.08 0.63,0.396 1.386,0.396 0.522,0 0.9,-0.162 0.378,-0.18 0.81,-0.612 0.036,-0.036 0.09,-0.054 0.054,-0.036 0.09,-0.036 0.198,0 0.198,0.252 0,0.108 -0.072,0.252 -0.054,0.126 -0.198,0.306 -0.288,0.36 -0.684,0.63 -0.396,0.252 -0.882,0.378 -0.468,0.126 -1.026,0.126 z"
       style="font-family:'EB Garamond';-inkscape-font-specification:'EB Garamond'"
       id="path838" />
    <path
       d="m -120.82146,24.280468 q -0.99,0 -1.728,-0.486 -0.738,-0.486 -1.152,-1.368 -0.414,-0.9 -0.414,-2.07 0,-1.044 0.468,-1.89 0.486,-0.864 1.278,-1.386 0.792,-0.522 1.728,-0.522 0.72,0 1.278,0.288 0.558,0.288 0.864,0.81 0.324,0.504 0.324,1.17 0,0.558 -0.54,0.558 h -3.798 q -0.252,0 -0.36,0.144 -0.09,0.126 -0.09,0.522 0,0.864 0.378,1.584 0.378,0.702 1.008,1.134 0.63,0.414 1.386,0.414 0.54,0 0.972,-0.198 0.45,-0.216 0.792,-0.612 0.072,-0.09 0.108,-0.108 0.036,-0.036 0.09,-0.036 0.144,0 0.144,0.18 0,0.342 -0.324,0.756 -0.27,0.342 -0.648,0.594 -0.378,0.252 -0.828,0.378 -0.45,0.144 -0.936,0.144 z m -1.656,-5.454 h 1.638 q 0.432,0 0.738,-0.018 0.306,-0.018 0.594,-0.072 0.09,-0.018 0.108,-0.108 0.036,-0.108 0.036,-0.288 0,-0.522 -0.468,-0.882 -0.45,-0.378 -1.08,-0.378 -0.414,0 -0.828,0.252 -0.414,0.234 -0.684,0.594 -0.27,0.36 -0.27,0.72 0,0.18 0.216,0.18 z"
       style="font-family:'EB Garamond';-inkscape-font-specification:'EB Garamond'"
       id="path840" />
    <path
       d="m -109.76949,27.862468 q -0.18,0 -0.306,-0.126 -0.378,-0.378 -0.828,-1.08 -0.432,-0.702 -0.864,-1.602 -0.432,-0.9 -0.792,-1.908 -0.342,-1.026 -0.558,-2.034 -0.198,-1.026 -0.198,-1.944 0,-1.152 0.306,-2.304 0.306,-1.152 0.792,-2.178 0.486,-1.044 1.026,-1.854 0.558,-0.828 1.044,-1.314 0.09,-0.09 0.216,-0.144 0.144,-0.054 0.27,-0.054 0.09,0 0.234,0.09 0.162,0.072 0.162,0.198 0,0.018 -0.054,0.09 -0.054,0.072 -0.108,0.162 -0.054,0.072 -0.072,0.09 -0.54,0.63 -1.08,1.692 -0.54,1.062 -0.9,2.43 -0.342,1.35 -0.342,2.88 0,1.152 0.198,2.394 0.198,1.224 0.522,2.376 0.324,1.134 0.72,2.016 0.414,0.9 0.828,1.386 0.018,0.018 0.072,0.09 0.072,0.072 0.126,0.144 0.072,0.09 0.072,0.108 0,0.18 -0.162,0.288 -0.144,0.108 -0.324,0.108 z"
       style="font-family:'EB Garamond';-inkscape-font-specification:'EB Garamond'"
       id="path842" />
    <path
       d="m -104.53151,24.280468 q -0.99,0 -1.728,-0.486 -0.738,-0.486 -1.152,-1.368 -0.414,-0.9 -0.414,-2.07 0,-1.044 0.468,-1.89 0.486,-0.864 1.278,-1.386 0.792,-0.522 1.728,-0.522 0.72,0 1.278,0.288 0.558,0.288 0.864,0.81 0.324,0.504 0.324,1.17 0,0.558 -0.54,0.558 h -3.798 q -0.252,0 -0.36,0.144 -0.09,0.126 -0.09,0.522 0,0.864 0.378,1.584 0.378,0.702 1.008,1.134 0.63,0.414 1.386,0.414 0.54,0 0.972,-0.198 0.45,-0.216 0.792,-0.612 0.072,-0.09 0.108,-0.108 0.036,-0.036 0.09,-0.036 0.144,0 0.144,0.18 0,0.342 -0.324,0.756 -0.27,0.342 -0.648,0.594 -0.378,0.252 -0.828,0.378 -0.45,0.144 -0.936,0.144 z m -1.656,-5.454 h 1.638 q 0.432,0 0.738,-0.018 0.306,-0.018 0.594,-0.072 0.09,-0.018 0.108,-0.108 0.036,-0.108 0.036,-0.288 0,-0.522 -0.468,-0.882 -0.45,-0.378 -1.08,-0.378 -0.414,0 -0.828,0.252 -0.414,0.234 -0.684,0.594 -0.27,0.36 -0.27,0.72 0,0.18 0.216,0.18 z"
       style="font-family:'EB Garamond';-inkscape-font-specification:'EB Garamond'"
       id="path844" />
    <path
       d="m -95.62152,24.226468 q -0.144,0 -0.198,-0.126 -0.072,-0.198 -0.18,-0.522 -0.108,-0.342 -0.198,-0.576 l -3.294,-8.838 q -0.18,-0.504 -0.486,-0.846 -0.306,-0.342 -0.774,-0.468 -0.288,-0.09 -0.45,-0.18 -0.144,-0.09 -0.144,-0.216 0,-0.108 0.144,-0.144 0.144,-0.054 0.378,-0.054 0.288,0 0.63,0.018 0.36,0.018 0.756,0.036 0.396,0 0.81,0 0.36,0 0.702,0 0.36,-0.018 0.648,-0.018 0.306,-0.018 0.486,-0.018 0.234,0 0.378,0.054 0.144,0.036 0.144,0.144 0,0.126 -0.144,0.234 -0.144,0.09 -0.45,0.126 -0.504,0.054 -0.846,0.234 -0.324,0.162 -0.324,0.468 0,0.306 0.072,0.54 0.09,0.216 0.126,0.342 l 2.592,6.84 q 0.036,0.072 0.09,0.09 0.054,0.018 0.108,-0.108 l 2.466,-6.48 q 0.36,-0.954 0.036,-1.386 -0.306,-0.45 -0.882,-0.522 -0.27,-0.036 -0.432,-0.126 -0.162,-0.108 -0.162,-0.234 0,-0.108 0.144,-0.144 0.144,-0.054 0.378,-0.054 0.234,0 0.522,0 0.288,0 0.594,0.018 0.324,0 0.666,0 0.522,0 1.116,-0.018 0.594,-0.036 0.936,-0.036 0.234,0 0.378,0.054 0.144,0.036 0.144,0.144 0,0.126 -0.144,0.216 -0.144,0.072 -0.45,0.144 -0.666,0.144 -1.116,0.612 -0.45,0.468 -0.648,0.954 l -3.384,8.208 q -0.036,0.09 -0.144,0.378 -0.09,0.27 -0.198,0.594 -0.108,0.324 -0.216,0.54 -0.018,0.054 -0.072,0.09 -0.054,0.036 -0.108,0.036 z"
       style="font-family:'EB Garamond';-inkscape-font-specification:'EB Garamond'"
       id="path846" />
    <path
       d="m -87.845542,27.862468 q -0.18,0 -0.342,-0.108 -0.144,-0.108 -0.144,-0.288 0,-0.018 0.054,-0.108 0.072,-0.072 0.144,-0.144 0.072,-0.072 0.072,-0.09 0.414,-0.486 0.81,-1.386 0.414,-0.882 0.738,-2.016 0.324,-1.152 0.522,-2.376 0.198,-1.242 0.198,-2.394 0,-1.53 -0.36,-2.88 -0.342,-1.368 -0.882,-2.43 -0.522,-1.062 -1.08,-1.692 -0.018,-0.018 -0.072,-0.09 -0.054,-0.09 -0.108,-0.162 -0.054,-0.072 -0.054,-0.09 0,-0.126 0.144,-0.198 0.162,-0.09 0.252,-0.09 0.144,0 0.27,0.054 0.144,0.054 0.216,0.144 0.486,0.486 1.026,1.314 0.558,0.81 1.044,1.854 0.486,1.026 0.792,2.178 0.306,1.152 0.306,2.304 0,0.918 -0.216,1.944 -0.198,1.008 -0.558,2.034 -0.342,1.008 -0.774,1.908 -0.432,0.9 -0.882,1.602 -0.432,0.702 -0.81,1.08 -0.126,0.126 -0.306,0.126 z"
       style="font-family:'EB Garamond';-inkscape-font-specification:'EB Garamond'"
       id="path848" />
  </g>
  <g
     aria-label="1"
     id="text593"
     style="font-size:12px;line-height:1.25;stroke-width:0.75"
     transform="translate(-11.320468,-15.53053)">
    <path
       d="m 332.9925,303.1642 q -0.084,0 -0.132,-0.048 -0.048,-0.048 -0.048,-0.096 0,-0.108 0.18,-0.156 0.456,-0.12 0.744,-0.216 0.3,-0.108 0.432,-0.288 0.144,-0.192 0.144,-0.54 v -4.584 q 0,-0.228 -0.144,-0.348 -0.144,-0.12 -0.372,-0.168 -0.228,-0.048 -0.492,-0.06 -0.12,-0.012 -0.216,-0.06 -0.096,-0.048 -0.096,-0.144 0,-0.084 0.084,-0.144 0.096,-0.06 0.216,-0.072 0.54,-0.084 0.96,-0.204 0.432,-0.132 0.84,-0.54 0.012,-0.012 0.024,-0.012 0.024,0 0.036,0 0.06,0 0.108,0.036 0.048,0.024 0.036,0.072 -0.024,0.18 -0.036,0.396 -0.012,0.204 -0.012,0.456 v 5.52 q 0,0.3 0.108,0.456 0.12,0.156 0.396,0.252 0.276,0.084 0.768,0.204 0.072,0.012 0.132,0.06 0.072,0.036 0.072,0.096 0,0.132 -0.168,0.132 -0.336,0 -0.624,-0.024 -0.276,-0.012 -0.552,-0.024 -0.264,-0.012 -0.588,-0.012 -0.324,0 -0.612,0.012 -0.288,0.012 -0.576,0.024 -0.288,0.024 -0.612,0.024 z"
       style="font-family:'EB Garamond';-inkscape-font-specification:'EB Garamond'"
       id="path943" />
  </g>
  <g
     aria-label="2"
     id="text593-40"
     style="font-size:12px;line-height:1.25;stroke-width:0.75"
     transform="translate(-11.320468,-15.53053)">
    <path
       d="m 337.4565,93.176907 q -0.084,0 -0.264,-0.012 -0.18,-0.012 -0.408,-0.024 -0.228,-0.012 -0.48,-0.024 -0.24,-0.012 -0.468,-0.012 -0.228,0 -0.648,0.012 -0.42,0.012 -0.888,0.024 -0.456,0 -0.804,0.012 -0.348,0.012 -0.444,0.012 -0.048,0 -0.144,-0.072 -0.096,-0.084 -0.096,-0.132 0,-0.06 0.024,-0.084 0.024,-0.024 0.072,-0.072 l 2.052,-2.124 q 0.6,-0.624 0.996,-1.392 0.396,-0.78 0.396,-1.572 0,-0.636 -0.384,-0.996 -0.384,-0.372 -0.9,-0.372 -0.492,0 -0.912,0.276 -0.42,0.264 -0.672,0.696 -0.036,0.072 -0.096,0.12 -0.048,0.048 -0.108,0.048 -0.048,0 -0.12,-0.096 -0.06,-0.108 -0.06,-0.264 0,-0.144 0.168,-0.396 0.18,-0.252 0.492,-0.516 0.312,-0.264 0.744,-0.444 0.432,-0.192 0.936,-0.192 0.6,0 1.032,0.252 0.432,0.252 0.66,0.696 0.228,0.444 0.228,1.032 0,0.324 -0.12,0.696 -0.108,0.372 -0.312,0.732 -0.192,0.36 -0.444,0.672 -0.156,0.192 -0.468,0.516 -0.3,0.312 -0.66,0.672 -0.348,0.36 -0.672,0.684 -0.312,0.312 -0.516,0.528 -0.204,0.204 -0.204,0.228 0,0.06 0.168,0.084 0.204,0.012 0.456,0.024 0.264,0.012 0.6,0.012 0.348,0 0.696,-0.012 0.348,-0.012 0.672,-0.024 0.348,-0.024 0.54,-0.06 0.192,-0.036 0.324,-0.144 0.132,-0.12 0.276,-0.36 0.048,-0.072 0.12,-0.168 0.084,-0.108 0.18,-0.108 0.06,0 0.072,0.048 0.012,0.048 0.012,0.096 0,0.06 -0.072,0.24 -0.06,0.168 -0.144,0.42 -0.084,0.252 -0.144,0.552 -0.036,0.192 -0.12,0.24 -0.084,0.048 -0.144,0.048 z"
       style="font-family:'EB Garamond';-inkscape-font-specification:'EB Garamond'"
       id="path909" />
  </g>
  <g
     aria-label="∞"
     id="text593-6"
     style="font-size:12px;line-height:1.25;stroke-width:0.75"
     transform="translate(-11.320468,-15.53053)">
    <path
       d="m 334.67249,21.638532 q -0.552,0 -0.972,-0.3 -0.42,-0.3 -0.66,-0.78 -0.228,-0.492 -0.228,-1.044 0,-0.588 0.264,-1.128 0.276,-0.54 0.756,-0.888 0.48,-0.348 1.092,-0.348 0.492,0 0.84,0.216 0.348,0.204 0.636,0.564 0.288,0.36 0.576,0.816 0.048,0.072 0.084,0.048 0.048,-0.024 0.084,-0.084 0.168,-0.312 0.42,-0.672 0.264,-0.36 0.636,-0.624 0.372,-0.264 0.9,-0.264 0.552,0 0.972,0.3 0.42,0.3 0.648,0.792 0.24,0.48 0.24,1.032 0,0.588 -0.276,1.128 -0.264,0.54 -0.744,0.888 -0.468,0.348 -1.092,0.348 -0.48,0 -0.84,-0.216 -0.348,-0.216 -0.636,-0.576 -0.288,-0.372 -0.576,-0.828 -0.084,-0.132 -0.168,0.036 -0.168,0.3 -0.42,0.672 -0.252,0.372 -0.636,0.648 -0.372,0.264 -0.9,0.264 z m 0.192,-0.864 q 0.576,0 0.936,-0.24 0.372,-0.252 0.684,-0.636 0.072,-0.096 0.072,-0.144 0,-0.06 -0.036,-0.108 -0.024,-0.06 -0.084,-0.132 -0.24,-0.348 -0.528,-0.696 -0.288,-0.36 -0.624,-0.588 -0.324,-0.24 -0.696,-0.24 -0.384,0 -0.708,0.192 -0.324,0.192 -0.528,0.504 -0.192,0.3 -0.192,0.66 0,0.432 0.24,0.756 0.252,0.312 0.636,0.492 0.396,0.18 0.828,0.18 z m 4.368,0.048 q 0.384,0 0.696,-0.192 0.312,-0.204 0.492,-0.516 0.192,-0.324 0.192,-0.672 0,-0.432 -0.252,-0.756 -0.24,-0.324 -0.636,-0.492 -0.384,-0.18 -0.816,-0.18 -0.576,0 -0.924,0.252 -0.348,0.252 -0.66,0.636 -0.072,0.084 -0.072,0.144 0,0.048 0.036,0.108 0.036,0.06 0.084,0.132 0.24,0.348 0.528,0.708 0.288,0.348 0.624,0.588 0.336,0.24 0.708,0.24 z"
       style="font-family:'EB Garamond';-inkscape-font-specification:'EB Garamond'"
       id="path900" />
  </g>
  <g
     aria-label="4"
     id="text593-7"
     style="font-size:12px;line-height:1.25;stroke-width:0.75"
     transform="translate(-11.320468,-15.53053)">
    <path
       d="m 335.1045,40.760625 q -0.06,0 -0.144,-0.036 -0.072,-0.036 -0.072,-0.12 0,-0.06 0.072,-0.096 0.072,-0.036 0.144,-0.048 0.564,-0.072 0.744,-0.24 0.18,-0.168 0.18,-0.456 v -1.116 q 0,-0.06 -0.084,-0.084 -0.084,-0.024 -0.096,-0.024 -0.492,0 -0.924,0.024 -0.42,0.012 -0.888,0.036 -0.468,0.012 -1.104,0.024 -0.048,0 -0.084,-0.036 -0.036,-0.048 -0.036,-0.084 0,-0.024 0.012,-0.036 0.156,-0.192 0.228,-0.264 0.072,-0.084 0.12,-0.132 0.048,-0.06 0.12,-0.168 l 3.168,-4.548 q 0.072,-0.108 0.168,-0.216 0.108,-0.12 0.192,-0.12 h 0.252 q 0.06,0 0.012,0.084 -0.036,0.084 -0.036,0.084 l -3.24,4.656 q -0.012,0.024 -0.024,0.072 -0.012,0.036 0.024,0.036 h 2.076 q 0.048,0 0.096,-0.024 0.048,-0.036 0.048,-0.072 v -1.86 q 0,-0.132 0.012,-0.18 0.024,-0.048 0.096,-0.084 0.18,-0.096 0.384,-0.12 0.204,-0.036 0.288,-0.036 0.132,0 0.156,0.192 0.024,0.192 0.024,0.576 v 1.548 q 0,0.072 0.06,0.072 0.132,0.012 0.252,0.012 0.12,0 0.228,0 0.168,0 0.336,0 0.18,-0.012 0.372,-0.024 0.132,0 0.132,0.096 0,0.096 -0.06,0.204 -0.048,0.108 -0.108,0.18 -0.06,0.072 -0.084,0.072 -0.132,0 -0.288,0 -0.156,-0.012 -0.3,-0.012 -0.108,0 -0.204,0.012 -0.096,0 -0.168,0.012 -0.048,0.012 -0.108,0.036 -0.048,0.024 -0.048,0.036 v 1.128 q 0,0.348 0.156,0.48 0.168,0.132 0.648,0.264 0.072,0.012 0.144,0.06 0.072,0.048 0.072,0.108 0,0.048 -0.06,0.096 -0.048,0.036 -0.12,0.036 -0.336,0 -0.54,-0.024 -0.192,-0.012 -0.36,-0.024 -0.168,-0.012 -0.456,-0.012 -0.3,0 -0.492,0.012 -0.18,0.012 -0.372,0.024 -0.192,0.024 -0.516,0.024 z"
       style="font-family:'EB Garamond';-inkscape-font-specification:'EB Garamond'"
       id="path903" />
  </g>
  <g
     aria-label="3"
     id="text593-1"
     style="font-size:12px;line-height:1.25;stroke-width:0.75"
     transform="translate(-11.320468,-15.53053)">
    <path
       d="m 334.14449,54.484561 q -0.276,0 -0.588,-0.096 -0.312,-0.084 -0.528,-0.204 -0.216,-0.12 -0.216,-0.216 0,-0.084 0.096,-0.216 0.096,-0.132 0.216,-0.228 0.132,-0.108 0.216,-0.108 0.132,0 0.24,0.072 0.108,0.072 0.228,0.168 0.156,0.132 0.36,0.252 0.204,0.12 0.54,0.12 0.444,0 0.84,-0.228 0.396,-0.228 0.648,-0.624 0.264,-0.408 0.264,-0.9 0,-0.468 -0.156,-0.9 -0.156,-0.432 -0.468,-0.708 -0.3,-0.288 -0.768,-0.288 -0.132,0 -0.36,0.036 -0.216,0.024 -0.42,0.144 -0.06,0.036 -0.144,0 -0.072,-0.048 -0.06,-0.108 0.048,-0.156 0.144,-0.252 0.096,-0.108 0.216,-0.156 0.108,-0.048 0.348,-0.18 0.24,-0.144 0.504,-0.348 0.276,-0.216 0.468,-0.48 0.192,-0.276 0.192,-0.6 0,-0.492 -0.324,-0.864 -0.312,-0.384 -0.804,-0.384 -0.468,0 -0.756,0.168 -0.276,0.156 -0.444,0.372 -0.168,0.204 -0.252,0.372 -0.084,0.156 -0.156,0.156 -0.048,0 -0.12,-0.072 -0.072,-0.072 -0.072,-0.156 0,-0.156 0.132,-0.408 0.132,-0.264 0.408,-0.528 0.288,-0.264 0.72,-0.444 0.444,-0.18 1.056,-0.18 0.396,0 0.744,0.18 0.36,0.168 0.588,0.48 0.228,0.3 0.228,0.708 0,0.288 -0.12,0.6 -0.12,0.312 -0.396,0.624 -0.276,0.3 -0.744,0.576 -0.036,0.012 -0.036,0.048 0,0.024 0.048,0.024 0.516,0 0.924,0.264 0.408,0.252 0.648,0.684 0.252,0.42 0.252,0.936 0,0.672 -0.288,1.212 -0.288,0.528 -0.768,0.912 -0.48,0.372 -1.08,0.564 -0.588,0.204 -1.2,0.204 z"
       style="font-family:'EB Garamond';-inkscape-font-specification:'EB Garamond'"
       id="path906" />
  </g>
  <g
     aria-label="–13.6"
     id="text593-4"
     style="font-size:12px;line-height:1.25;stroke-width:0.75"
     transform="translate(-11.320468,-15.53053)">
    <path
       d="m 33.634493,300.72702 q -0.06,0 -0.12,-0.048 -0.048,-0.048 -0.048,-0.096 0,-0.06 0.024,-0.18 0.024,-0.12 0.084,-0.216 0.072,-0.108 0.18,-0.108 h 4.956 q 0.06,0 0.108,0.048 0.048,0.036 0.048,0.096 0,0.18 -0.12,0.348 -0.108,0.156 -0.252,0.156 z"
       style="font-family:'EB Garamond';-inkscape-font-specification:'EB Garamond'"
       id="path851" />
    <path
       d="m 40.750484,302.98302 q -0.084,0 -0.132,-0.048 -0.048,-0.048 -0.048,-0.096 0,-0.108 0.18,-0.156 0.456,-0.12 0.744,-0.216 0.3,-0.108 0.432,-0.288 0.144,-0.192 0.144,-0.54 v -4.584 q 0,-0.228 -0.144,-0.348 -0.144,-0.12 -0.372,-0.168 -0.228,-0.048 -0.492,-0.06 -0.12,-0.012 -0.216,-0.06 -0.096,-0.048 -0.096,-0.144 0,-0.084 0.084,-0.144 0.096,-0.06 0.216,-0.072 0.54,-0.084 0.96,-0.204 0.432,-0.132 0.84,-0.54 0.012,-0.012 0.024,-0.012 0.024,0 0.036,0 0.06,0 0.108,0.036 0.048,0.024 0.036,0.072 -0.024,0.18 -0.036,0.396 -0.012,0.204 -0.012,0.456 v 5.52 q 0,0.3 0.108,0.456 0.12,0.156 0.396,0.252 0.276,0.084 0.768,0.204 0.072,0.012 0.132,0.06 0.072,0.036 0.072,0.096 0,0.132 -0.168,0.132 -0.336,0 -0.624,-0.024 -0.276,-0.012 -0.552,-0.024 -0.264,-0.012 -0.588,-0.012 -0.324,0 -0.612,0.012 -0.288,0.012 -0.576,0.024 -0.288,0.024 -0.612,0.024 z"
       style="font-family:'EB Garamond';-inkscape-font-specification:'EB Garamond'"
       id="path853" />
    <path
       d="m 47.158479,303.40302 q -0.276,0 -0.588,-0.096 -0.312,-0.084 -0.528,-0.204 -0.216,-0.12 -0.216,-0.216 0,-0.084 0.096,-0.216 0.096,-0.132 0.216,-0.228 0.132,-0.108 0.216,-0.108 0.132,0 0.24,0.072 0.108,0.072 0.228,0.168 0.156,0.132 0.36,0.252 0.204,0.12 0.54,0.12 0.444,0 0.84,-0.228 0.396,-0.228 0.648,-0.624 0.264,-0.408 0.264,-0.9 0,-0.468 -0.156,-0.9 -0.156,-0.432 -0.468,-0.708 -0.3,-0.288 -0.768,-0.288 -0.132,0 -0.36,0.036 -0.216,0.024 -0.42,0.144 -0.06,0.036 -0.144,0 -0.072,-0.048 -0.06,-0.108 0.048,-0.156 0.144,-0.252 0.096,-0.108 0.216,-0.156 0.108,-0.048 0.348,-0.18 0.24,-0.144 0.504,-0.348 0.276,-0.216 0.468,-0.48 0.192,-0.276 0.192,-0.6 0,-0.492 -0.324,-0.864 -0.312,-0.384 -0.804,-0.384 -0.468,0 -0.756,0.168 -0.276,0.156 -0.444,0.372 -0.168,0.204 -0.252,0.372 -0.084,0.156 -0.156,0.156 -0.048,0 -0.12,-0.072 -0.072,-0.072 -0.072,-0.156 0,-0.156 0.132,-0.408 0.132,-0.264 0.408,-0.528 0.288,-0.264 0.72,-0.444 0.444,-0.18 1.056,-0.18 0.396,0 0.744,0.18 0.36,0.168 0.588,0.48 0.228,0.3 0.228,0.708 0,0.288 -0.12,0.6 -0.12,0.312 -0.396,0.624 -0.276,0.3 -0.744,0.576 -0.036,0.012 -0.036,0.048 0,0.024 0.048,0.024 0.516,0 0.924,0.264 0.408,0.252 0.648,0.684 0.252,0.42 0.252,0.936 0,0.672 -0.288,1.212 -0.288,0.528 -0.768,0.912 -0.48,0.372 -1.08,0.564 -0.588,0.204 -1.2,0.204 z"
       style="font-family:'EB Garamond';-inkscape-font-specification:'EB Garamond'"
       id="path855" />
    <path
       d="m 52.366473,303.11502 q -0.264,0 -0.468,-0.192 -0.192,-0.204 -0.192,-0.468 0,-0.276 0.192,-0.468 0.204,-0.192 0.468,-0.192 0.276,0 0.468,0.192 0.192,0.192 0.192,0.468 0,0.264 -0.192,0.468 -0.192,0.192 -0.468,0.192 z"
       style="font-family:'EB Garamond';-inkscape-font-specification:'EB Garamond'"
       id="path857" />
    <path
       d="m 56.770468,303.13902 q -0.612,0 -1.176,-0.276 -0.564,-0.276 -0.924,-0.828 -0.36,-0.564 -0.36,-1.404 0,-0.672 0.156,-1.224 0.156,-0.552 0.396,-0.972 0.24,-0.432 0.48,-0.732 0.252,-0.312 0.42,-0.48 0.3,-0.312 0.768,-0.696 0.468,-0.384 1.08,-0.732 0.624,-0.348 1.356,-0.54 0.108,-0.024 0.168,0.012 0.072,0.036 0.048,0.072 -0.048,0.108 -0.156,0.168 -0.096,0.048 -0.156,0.072 -0.804,0.348 -1.392,0.792 -0.576,0.444 -1.032,1.104 -0.192,0.288 -0.456,0.792 -0.264,0.492 -0.456,1.104 -0.192,0.612 -0.192,1.236 0.012,0.66 0.276,1.128 0.264,0.456 0.648,0.696 0.396,0.24 0.792,0.252 0.492,0.012 0.864,-0.336 0.372,-0.36 0.372,-1.104 0,-0.372 -0.144,-0.684 -0.132,-0.324 -0.384,-0.528 -0.24,-0.204 -0.564,-0.204 -0.312,0 -0.54,0.036 -0.216,0.036 -0.42,0.144 -0.108,0.048 -0.132,0 -0.012,-0.06 0.048,-0.132 0.096,-0.096 0.156,-0.156 0.072,-0.06 0.168,-0.132 0.132,-0.096 0.48,-0.24 0.36,-0.156 0.696,-0.156 0.42,0 0.768,0.192 0.36,0.192 0.576,0.528 0.228,0.324 0.228,0.756 0,0.564 -0.216,1.02 -0.216,0.456 -0.576,0.78 -0.36,0.324 -0.804,0.492 -0.432,0.18 -0.864,0.18 z"
       style="font-family:'EB Garamond';-inkscape-font-specification:'EB Garamond'"
       id="path859" />
  </g>
  <g
     aria-label="–3.40"
     id="text593-4-4"
     style="font-size:12px;line-height:1.25;stroke-width:0.75"
     transform="translate(-11.320468,-15.53053)">
    <path
       d="m 33.658495,90.782907 q -0.06,0 -0.12,-0.048 -0.048,-0.048 -0.048,-0.096 0,-0.06 0.024,-0.18 0.024,-0.12 0.084,-0.216 0.072,-0.108 0.18,-0.108 h 4.956 q 0.06,0 0.108,0.048 0.048,0.036 0.048,0.096 0,0.18 -0.12,0.348 -0.108,0.156 -0.252,0.156 z"
       style="font-family:'EB Garamond';-inkscape-font-specification:'EB Garamond'"
       id="path862" />
    <path
       d="m 41.422486,93.458907 q -0.276,0 -0.588,-0.096 -0.312,-0.084 -0.528,-0.204 -0.216,-0.12 -0.216,-0.216 0,-0.084 0.096,-0.216 0.096,-0.132 0.216,-0.228 0.132,-0.108 0.216,-0.108 0.132,0 0.24,0.072 0.108,0.072 0.228,0.168 0.156,0.132 0.36,0.252 0.204,0.12 0.54,0.12 0.444,0 0.84,-0.228 0.396,-0.228 0.648,-0.624 0.264,-0.408 0.264,-0.9 0,-0.468 -0.156,-0.9 -0.156,-0.432 -0.468,-0.708 -0.3,-0.288 -0.768,-0.288 -0.132,0 -0.36,0.036 -0.216,0.024 -0.42,0.144 -0.06,0.036 -0.144,0 -0.072,-0.048 -0.06,-0.108 0.048,-0.156 0.144,-0.252 0.096,-0.108 0.216,-0.156 0.108,-0.048 0.348,-0.18 0.24,-0.144 0.504,-0.348 0.276,-0.216 0.468,-0.48 0.192,-0.276 0.192,-0.6 0,-0.492 -0.324,-0.864 -0.312,-0.384 -0.804,-0.384 -0.468,0 -0.756,0.168 -0.276,0.156 -0.444,0.372 -0.168,0.204 -0.252,0.372 -0.084,0.156 -0.156,0.156 -0.048,0 -0.12,-0.072 -0.072,-0.072 -0.072,-0.156 0,-0.156 0.132,-0.408 0.132,-0.264 0.408,-0.528 0.288,-0.264 0.72,-0.444 0.444,-0.18 1.056,-0.18 0.396,0 0.744,0.18 0.36,0.168 0.588,0.48 0.228,0.3 0.228,0.708 0,0.288 -0.12,0.6 -0.12,0.312 -0.396,0.624 -0.276,0.3 -0.744,0.576 -0.036,0.012 -0.036,0.048 0,0.024 0.048,0.024 0.516,0 0.924,0.264 0.408,0.252 0.648,0.684 0.252,0.42 0.252,0.936 0,0.672 -0.288,1.212 -0.288,0.528 -0.768,0.912 -0.48,0.372 -1.08,0.564 -0.588,0.204 -1.2,0.204 z"
       style="font-family:'EB Garamond';-inkscape-font-specification:'EB Garamond'"
       id="path864" />
    <path
       d="m 46.630481,93.170907 q -0.264,0 -0.468,-0.192 -0.192,-0.204 -0.192,-0.468 0,-0.276 0.192,-0.468 0.204,-0.192 0.468,-0.192 0.276,0 0.468,0.192 0.192,0.192 0.192,0.468 0,0.264 -0.192,0.468 -0.192,0.192 -0.468,0.192 z"
       style="font-family:'EB Garamond';-inkscape-font-specification:'EB Garamond'"
       id="path866" />
    <path
       d="m 50.530475,93.038907 q -0.06,0 -0.144,-0.036 -0.072,-0.036 -0.072,-0.12 0,-0.06 0.072,-0.096 0.072,-0.036 0.144,-0.048 0.564,-0.072 0.744,-0.24 0.18,-0.168 0.18,-0.456 v -1.116 q 0,-0.06 -0.084,-0.084 -0.084,-0.024 -0.096,-0.024 -0.492,0 -0.924,0.024 -0.42,0.012 -0.888,0.036 -0.468,0.012 -1.104,0.024 -0.048,0 -0.084,-0.036 -0.036,-0.048 -0.036,-0.084 0,-0.024 0.012,-0.036 0.156,-0.192 0.228,-0.264 0.072,-0.084 0.12,-0.132 0.048,-0.06 0.12,-0.168 l 3.168,-4.548 q 0.072,-0.108 0.168,-0.216 0.108,-0.12 0.192,-0.12 h 0.252 q 0.06,0 0.012,0.084 -0.036,0.084 -0.036,0.084 l -3.24,4.656 q -0.012,0.024 -0.024,0.072 -0.012,0.036 0.024,0.036 h 2.076 q 0.048,0 0.096,-0.024 0.048,-0.036 0.048,-0.072 v -1.86 q 0,-0.132 0.012,-0.18 0.024,-0.048 0.096,-0.084 0.18,-0.096 0.384,-0.12 0.204,-0.036 0.288,-0.036 0.132,0 0.156,0.192 0.024,0.192 0.024,0.576 v 1.548 q 0,0.072 0.06,0.072 0.132,0.012 0.252,0.012 0.12,0 0.228,0 0.168,0 0.336,0 0.18,-0.012 0.372,-0.024 0.132,0 0.132,0.096 0,0.096 -0.06,0.204 -0.048,0.108 -0.108,0.18 -0.06,0.072 -0.084,0.072 -0.132,0 -0.288,0 -0.156,-0.012 -0.3,-0.012 -0.108,0 -0.204,0.012 -0.096,0 -0.168,0.012 -0.048,0.012 -0.108,0.036 -0.048,0.024 -0.048,0.036 v 1.128 q 0,0.348 0.156,0.48 0.168,0.132 0.648,0.264 0.072,0.012 0.144,0.06 0.072,0.048 0.072,0.108 0,0.048 -0.06,0.096 -0.048,0.036 -0.12,0.036 -0.336,0 -0.54,-0.024 -0.192,-0.012 -0.36,-0.024 -0.168,-0.012 -0.456,-0.012 -0.3,0 -0.492,0.012 -0.18,0.012 -0.372,0.024 -0.192,0.024 -0.516,0.024 z"
       style="font-family:'EB Garamond';-inkscape-font-specification:'EB Garamond'"
       id="path868" />
    <path
       d="m 56.71047,93.170907 q -0.612,0 -1.068,-0.336 -0.444,-0.336 -0.744,-0.888 -0.3,-0.564 -0.444,-1.236 -0.144,-0.672 -0.144,-1.332 0,-0.684 0.144,-1.38 0.144,-0.696 0.444,-1.272 0.312,-0.576 0.792,-0.924 0.48,-0.36 1.14,-0.36 0.612,0 1.056,0.336 0.456,0.336 0.756,0.9 0.3,0.552 0.444,1.224 0.144,0.66 0.144,1.308 0,0.672 -0.144,1.368 -0.144,0.696 -0.456,1.284 -0.3,0.588 -0.78,0.948 -0.468,0.36 -1.14,0.36 z m 0.204,-0.312 q 0.48,0 0.768,-0.48 0.3,-0.492 0.432,-1.272 0.132,-0.78 0.132,-1.68 0,-0.672 -0.108,-1.32 -0.096,-0.648 -0.312,-1.176 -0.204,-0.528 -0.516,-0.84 -0.3,-0.312 -0.708,-0.312 -0.48,0 -0.768,0.468 -0.276,0.468 -0.408,1.248 -0.12,0.768 -0.12,1.668 0,0.672 0.096,1.332 0.108,0.66 0.3,1.2 0.204,0.528 0.504,0.852 0.3,0.312 0.708,0.312 z"
       style="font-family:'EB Garamond';-inkscape-font-specification:'EB Garamond'"
       id="path870" />
  </g>
  <g
     aria-label="–1.51"
     id="text593-4-4-9"
     style="font-size:12px;line-height:1.25;stroke-width:0.75"
     transform="translate(-11.320468,-15.53053)">
    <path
       d="m 34.102496,51.850564 q -0.06,0 -0.12,-0.048 -0.048,-0.048 -0.048,-0.096 0,-0.06 0.024,-0.18 0.024,-0.12 0.084,-0.216 0.072,-0.108 0.18,-0.108 h 4.956 q 0.06,0 0.108,0.048 0.048,0.036 0.048,0.096 0,0.18 -0.12,0.348 -0.108,0.156 -0.252,0.156 z"
       style="font-family:'EB Garamond';-inkscape-font-specification:'EB Garamond'"
       id="path873" />
    <path
       d="m 41.218486,54.106564 q -0.084,0 -0.132,-0.048 -0.048,-0.048 -0.048,-0.096 0,-0.108 0.18,-0.156 0.456,-0.12 0.744,-0.216 0.3,-0.108 0.432,-0.288 0.144,-0.192 0.144,-0.54 v -4.584 q 0,-0.228 -0.144,-0.348 -0.144,-0.12 -0.372,-0.168 -0.228,-0.048 -0.492,-0.06 -0.12,-0.012 -0.216,-0.06 -0.096,-0.048 -0.096,-0.144 0,-0.084 0.084,-0.144 0.096,-0.06 0.216,-0.072 0.54,-0.084 0.96,-0.204 0.432,-0.132 0.84,-0.54 0.012,-0.012 0.024,-0.012 0.024,0 0.036,0 0.06,0 0.108,0.036 0.048,0.024 0.036,0.072 -0.024,0.18 -0.036,0.396 -0.012,0.204 -0.012,0.456 v 5.52 q 0,0.3 0.108,0.456 0.12,0.156 0.396,0.252 0.276,0.084 0.768,0.204 0.072,0.012 0.132,0.06 0.072,0.036 0.072,0.096 0,0.132 -0.168,0.132 -0.336,0 -0.624,-0.024 -0.276,-0.012 -0.552,-0.024 -0.264,-0.012 -0.588,-0.012 -0.324,0 -0.612,0.012 -0.288,0.012 -0.576,0.024 -0.288,0.024 -0.612,0.024 z"
       style="font-family:'EB Garamond';-inkscape-font-specification:'EB Garamond'"
       id="path875" />
    <path
       d="m 47.074481,54.238564 q -0.264,0 -0.468,-0.192 -0.192,-0.204 -0.192,-0.468 0,-0.276 0.192,-0.468 0.204,-0.192 0.468,-0.192 0.276,0 0.468,0.192 0.192,0.192 0.192,0.468 0,0.264 -0.192,0.468 -0.192,0.192 -0.468,0.192 z"
       style="font-family:'EB Garamond';-inkscape-font-specification:'EB Garamond'"
       id="path877" />
    <path
       d="m 49.762475,54.526564 q -0.132,0 -0.288,-0.036 -0.156,-0.024 -0.156,-0.108 0,-0.096 0.156,-0.168 0.168,-0.06 0.276,-0.06 0.948,0 1.56,-0.336 0.624,-0.348 0.924,-0.864 0.312,-0.516 0.312,-1.032 0,-0.468 -0.276,-0.828 -0.276,-0.36 -0.912,-0.66 -0.624,-0.3 -1.692,-0.576 -0.156,-0.132 -0.228,-0.264 -0.06,-0.132 -0.06,-0.288 0,-0.168 0.06,-0.408 0.072,-0.24 0.168,-0.504 0.096,-0.276 0.192,-0.54 0.096,-0.264 0.156,-0.456 0.06,-0.18 0.18,-0.276 0.12,-0.108 0.312,-0.156 0.276,-0.072 0.564,-0.132 0.288,-0.06 0.6,-0.108 0.312,-0.06 0.636,-0.096 0.336,-0.048 0.684,-0.084 0.096,-0.012 0.132,0.06 0.048,0.06 0,0.144 -0.048,0.096 -0.108,0.204 -0.048,0.096 -0.096,0.192 -0.084,0.18 -0.192,0.276 -0.096,0.084 -0.252,0.108 -0.228,0.024 -0.528,0.06 -0.3,0.024 -0.6,0.06 -0.3,0.024 -0.552,0.048 -0.252,0.024 -0.384,0.048 -0.084,0.012 -0.204,0.216 -0.12,0.192 -0.216,0.42 -0.096,0.216 -0.108,0.312 -0.012,0.084 0.012,0.144 0.036,0.06 0.144,0.084 0.672,0.192 1.224,0.396 0.552,0.192 0.96,0.408 0.672,0.348 0.996,0.828 0.336,0.468 0.336,1.2 0,0.66 -0.396,1.236 -0.396,0.576 -1.068,0.96 -0.324,0.18 -0.684,0.3 -0.36,0.132 -0.756,0.204 -0.396,0.072 -0.828,0.072 z"
       style="font-family:'EB Garamond';-inkscape-font-specification:'EB Garamond'"
       id="path879" />
    <path
       d="m 55.49847,54.106564 q -0.084,0 -0.132,-0.048 -0.048,-0.048 -0.048,-0.096 0,-0.108 0.18,-0.156 0.456,-0.12 0.744,-0.216 0.3,-0.108 0.432,-0.288 0.144,-0.192 0.144,-0.54 v -4.584 q 0,-0.228 -0.144,-0.348 -0.144,-0.12 -0.372,-0.168 -0.228,-0.048 -0.492,-0.06 -0.12,-0.012 -0.216,-0.06 -0.096,-0.048 -0.096,-0.144 0,-0.084 0.084,-0.144 0.096,-0.06 0.216,-0.072 0.54,-0.084 0.96,-0.204 0.432,-0.132 0.84,-0.54 0.012,-0.012 0.024,-0.012 0.024,0 0.036,0 0.06,0 0.108,0.036 0.048,0.024 0.036,0.072 -0.024,0.18 -0.036,0.396 -0.012,0.204 -0.012,0.456 v 5.52 q 0,0.3 0.108,0.456 0.12,0.156 0.396,0.252 0.276,0.084 0.768,0.204 0.072,0.012 0.132,0.06 0.072,0.036 0.072,0.096 0,0.132 -0.168,0.132 -0.336,0 -0.624,-0.024 -0.276,-0.012 -0.552,-0.024 -0.264,-0.012 -0.588,-0.012 -0.324,0 -0.612,0.012 -0.288,0.012 -0.576,0.024 -0.288,0.024 -0.612,0.024 z"
       style="font-family:'EB Garamond';-inkscape-font-specification:'EB Garamond'"
       id="path881" />
  </g>
  <g
     aria-label="–0.850"
     id="text593-4-4-9-8"
     style="font-size:12px;line-height:1.25;stroke-width:0.75"
     transform="translate(-11.320468,-15.53053)">
    <path
       d="m 27.898501,38.222623 q -0.06,0 -0.12,-0.048 -0.048,-0.048 -0.048,-0.096 0,-0.06 0.024,-0.18 0.024,-0.12 0.084,-0.216 0.072,-0.108 0.18,-0.108 h 4.956 q 0.06,0 0.108,0.048 0.048,0.036 0.048,0.096 0,0.18 -0.12,0.348 -0.108,0.156 -0.252,0.156 z"
       style="font-family:'EB Garamond';-inkscape-font-specification:'EB Garamond'"
       id="path884" />
    <path
       d="m 36.670492,40.610623 q -0.612,0 -1.068,-0.336 -0.444,-0.336 -0.744,-0.888 -0.3,-0.564 -0.444,-1.236 -0.144,-0.672 -0.144,-1.332 0,-0.684 0.144,-1.38 0.144,-0.696 0.444,-1.272 0.312,-0.576 0.792,-0.924 0.48,-0.36 1.14,-0.36 0.612,0 1.056,0.336 0.456,0.336 0.756,0.9 0.3,0.552 0.444,1.224 0.144,0.66 0.144,1.308 0,0.672 -0.144,1.368 -0.144,0.696 -0.456,1.284 -0.3,0.588 -0.78,0.948 -0.468,0.36 -1.14,0.36 z m 0.204,-0.312 q 0.48,0 0.768,-0.48 0.3,-0.492 0.432,-1.272 0.132,-0.78 0.132,-1.68 0,-0.672 -0.108,-1.32 -0.096,-0.648 -0.312,-1.176 -0.204,-0.528 -0.516,-0.84 -0.3,-0.312 -0.708,-0.312 -0.48,0 -0.768,0.468 -0.276,0.468 -0.408,1.248 -0.12,0.768 -0.12,1.668 0,0.672 0.096,1.332 0.108,0.66 0.3,1.2 0.204,0.528 0.504,0.852 0.3,0.312 0.708,0.312 z"
       style="font-family:'EB Garamond';-inkscape-font-specification:'EB Garamond'"
       id="path886" />
    <path
       d="m 40.870486,40.610623 q -0.264,0 -0.468,-0.192 -0.192,-0.204 -0.192,-0.468 0,-0.276 0.192,-0.468 0.204,-0.192 0.468,-0.192 0.276,0 0.468,0.192 0.192,0.192 0.192,0.468 0,0.264 -0.192,0.468 -0.192,0.192 -0.468,0.192 z"
       style="font-family:'EB Garamond';-inkscape-font-specification:'EB Garamond'"
       id="path888" />
    <path
       d="m 45.154481,40.610623 q -0.552,0 -1.044,-0.228 -0.48,-0.24 -0.78,-0.66 -0.3,-0.42 -0.3,-0.972 0,-0.528 0.276,-0.9 0.276,-0.372 0.648,-0.612 0.384,-0.252 0.684,-0.42 0.084,-0.048 0.06,-0.072 -0.024,-0.024 -0.096,-0.084 -0.36,-0.312 -0.684,-0.588 -0.312,-0.288 -0.516,-0.636 -0.192,-0.36 -0.192,-0.864 0,-0.468 0.324,-0.852 0.324,-0.384 0.828,-0.612 0.504,-0.228 1.032,-0.228 0.48,0 0.912,0.204 0.444,0.192 0.72,0.552 0.276,0.36 0.276,0.852 0,0.432 -0.216,0.708 -0.216,0.264 -0.42,0.444 -0.168,0.144 -0.3,0.252 -0.132,0.096 -0.336,0.252 -0.156,0.108 -0.156,0.156 0,0.036 0.096,0.096 0.456,0.312 0.804,0.612 0.348,0.3 0.54,0.648 0.204,0.348 0.204,0.816 0,0.624 -0.348,1.104 -0.348,0.48 -0.888,0.756 -0.54,0.276 -1.128,0.276 z m 0.168,-0.348 q 0.528,0 0.876,-0.384 0.36,-0.396 0.36,-0.924 0,-0.372 -0.216,-0.708 -0.204,-0.336 -0.528,-0.624 -0.324,-0.3 -0.672,-0.54 -0.072,-0.06 -0.132,-0.084 -0.048,-0.036 -0.108,-0.036 -0.048,0 -0.144,0.072 -0.384,0.312 -0.576,0.636 -0.192,0.312 -0.192,0.888 0,0.42 0.156,0.816 0.156,0.384 0.456,0.636 0.3,0.252 0.72,0.252 z m 0.384,-4.116 q 0.42,-0.348 0.54,-0.768 0.132,-0.42 0.132,-0.972 0,-0.504 -0.264,-0.864 -0.252,-0.372 -0.78,-0.372 -0.276,0 -0.552,0.156 -0.276,0.156 -0.468,0.42 -0.18,0.264 -0.18,0.588 0,0.456 0.168,0.72 0.18,0.264 0.492,0.492 0.324,0.216 0.744,0.564 0.036,0.024 0.084,0.048 0.048,0.012 0.084,-0.012 z"
       style="font-family:'EB Garamond';-inkscape-font-specification:'EB Garamond'"
       id="path890" />
    <path
       d="m 49.318475,40.898623 q -0.132,0 -0.288,-0.036 -0.156,-0.024 -0.156,-0.108 0,-0.096 0.156,-0.168 0.168,-0.06 0.276,-0.06 0.948,0 1.56,-0.336 0.624,-0.348 0.924,-0.864 0.312,-0.516 0.312,-1.032 0,-0.468 -0.276,-0.828 -0.276,-0.36 -0.912,-0.66 -0.624,-0.3 -1.692,-0.576 -0.156,-0.132 -0.228,-0.264 -0.06,-0.132 -0.06,-0.288 0,-0.168 0.06,-0.408 0.072,-0.24 0.168,-0.504 0.096,-0.276 0.192,-0.54 0.096,-0.264 0.156,-0.456 0.06,-0.18 0.18,-0.276 0.12,-0.108 0.312,-0.156 0.276,-0.072 0.564,-0.132 0.288,-0.06 0.6,-0.108 0.312,-0.06 0.636,-0.096 0.336,-0.048 0.684,-0.084 0.096,-0.012 0.132,0.06 0.048,0.06 0,0.144 -0.048,0.096 -0.108,0.204 -0.048,0.096 -0.096,0.192 -0.084,0.18 -0.192,0.276 -0.096,0.084 -0.252,0.108 -0.228,0.024 -0.528,0.06 -0.3,0.024 -0.6,0.06 -0.3,0.024 -0.552,0.048 -0.252,0.024 -0.384,0.048 -0.084,0.012 -0.204,0.216 -0.12,0.192 -0.216,0.42 -0.096,0.216 -0.108,0.312 -0.012,0.084 0.012,0.144 0.036,0.06 0.144,0.084 0.672,0.192 1.224,0.396 0.552,0.192 0.96,0.408 0.672,0.348 0.996,0.828 0.336,0.468 0.336,1.2 0,0.66 -0.396,1.236 -0.396,0.576 -1.068,0.96 -0.324,0.18 -0.684,0.3 -0.36,0.132 -0.756,0.204 -0.396,0.072 -0.828,0.072 z"
       style="font-family:'EB Garamond';-inkscape-font-specification:'EB Garamond'"
       id="path892" />
    <path
       d="m 56.71047,40.610623 q -0.612,0 -1.068,-0.336 -0.444,-0.336 -0.744,-0.888 -0.3,-0.564 -0.444,-1.236 -0.144,-0.672 -0.144,-1.332 0,-0.684 0.144,-1.38 0.144,-0.696 0.444,-1.272 0.312,-0.576 0.792,-0.924 0.48,-0.36 1.14,-0.36 0.612,0 1.056,0.336 0.456,0.336 0.756,0.9 0.3,0.552 0.444,1.224 0.144,0.66 0.144,1.308 0,0.672 -0.144,1.368 -0.144,0.696 -0.456,1.284 -0.3,0.588 -0.78,0.948 -0.468,0.36 -1.14,0.36 z m 0.204,-0.312 q 0.48,0 0.768,-0.48 0.3,-0.492 0.432,-1.272 0.132,-0.78 0.132,-1.68 0,-0.672 -0.108,-1.32 -0.096,-0.648 -0.312,-1.176 -0.204,-0.528 -0.516,-0.84 -0.3,-0.312 -0.708,-0.312 -0.48,0 -0.768,0.468 -0.276,0.468 -0.408,1.248 -0.12,0.768 -0.12,1.668 0,0.672 0.096,1.332 0.108,0.66 0.3,1.2 0.204,0.528 0.504,0.852 0.3,0.312 0.708,0.312 z"
       style="font-family:'EB Garamond';-inkscape-font-specification:'EB Garamond'"
       id="path894" />
  </g>
  <g
     aria-label="0"
     id="text593-4-4-9-8-5"
     style="font-size:12px;line-height:1.25;stroke-width:0.75"
     transform="translate(-11.320468,-15.53053)">
    <path
       d="m 56.71047,23.25853 q -0.612,0 -1.068,-0.336 -0.444,-0.336 -0.744,-0.888 -0.3,-0.564 -0.444,-1.236 -0.144,-0.672 -0.144,-1.332 0,-0.684 0.144,-1.38 0.144,-0.696 0.444,-1.272 0.312,-0.576 0.792,-0.924 0.48,-0.36 1.14,-0.36 0.612,0 1.056,0.336 0.456,0.336 0.756,0.9 0.3,0.552 0.444,1.224 0.144,0.66 0.144,1.308 0,0.672 -0.144,1.368 -0.144,0.696 -0.456,1.284 -0.3,0.588 -0.78,0.948 -0.468,0.36 -1.14,0.36 z m 0.204,-0.312 q 0.48,0 0.768,-0.48 0.3,-0.492 0.432,-1.272 0.132,-0.78 0.132,-1.68 0,-0.672 -0.108,-1.32 -0.096,-0.648 -0.312,-1.176 -0.204,-0.528 -0.516,-0.84 -0.3,-0.312 -0.708,-0.312 -0.48,0 -0.768,0.468 -0.276,0.468 -0.408,1.248 -0.12,0.768 -0.12,1.668 0,0.672 0.096,1.332 0.108,0.66 0.3,1.2 0.204,0.528 0.504,0.852 0.3,0.312 0.708,0.312 z"
       style="font-family:'EB Garamond';-inkscape-font-specification:'EB Garamond'"
       id="path897" />
  </g>
</svg>
