<?xml version="1.0" encoding="UTF-8" standalone="no"?>
<svg
   width="719.67175pt"
   height="719.6828pt"
   viewBox="0 0 719.67175 719.6828"
   version="1.2"
   id="svg59"
   sodipodi:docname="corrosivo.svg"
   inkscape:version="1.1 (c4e8f9e, 2021-05-24)"
   xmlns:inkscape="http://www.inkscape.org/namespaces/inkscape"
   xmlns:sodipodi="http://sodipodi.sourceforge.net/DTD/sodipodi-0.dtd"
   xmlns="http://www.w3.org/2000/svg"
   xmlns:svg="http://www.w3.org/2000/svg">
  <sodipodi:namedview
     id="namedview61"
     pagecolor="#ffffff"
     bordercolor="#666666"
     borderopacity="1.0"
     inkscape:pageshadow="2"
     inkscape:pageopacity="0.0"
     inkscape:pagecheckerboard="0"
     inkscape:document-units="pt"
     showgrid="false"
     fit-margin-top="0"
     fit-margin-left="0"
     fit-margin-right="0"
     fit-margin-bottom="0"
     inkscape:zoom="0.38310413"
     inkscape:cx="478.98205"
     inkscape:cy="480.28718"
     inkscape:window-width="1440"
     inkscape:window-height="900"
     inkscape:window-x="0"
     inkscape:window-y="0"
     inkscape:window-maximized="0"
     inkscape:current-layer="svg59" />
  <defs
     id="defs12">
    <clipPath
       id="clip1">
      <path
         d="M 0,0.078125 H 508.92187 V 508.94141 H 0 Z m 0,0"
         id="path9" />
    </clipPath>
  </defs>
  <g
     id="surface2417"
     transform="rotate(-45,434.29216,179.98345)">
    <path
       style="fill:#0f0c0c;fill-opacity:1;fill-rule:nonzero;stroke:none"
       d="m 147.85937,171.34766 c -7.86328,-7.86329 -9.93359,-15.37891 -7.75781,-22.08985 L 83.546875,92.703125 57.695312,118.55469 198.62891,259.48437 224.47656,233.63672 173.23828,182.39453 c -7.95312,0.98438 -17.44141,-3.11328 -25.37891,-11.04687"
       id="path14" />
    <path
       style="fill:#0f0c0c;fill-opacity:1;fill-rule:nonzero;stroke:none"
       d="m 170.44141,174.78906 c 2.30078,2.30078 6.71093,4.48438 14.67187,1.83203 1.81641,-0.60547 3.48438,-2.02343 5.24609,-3.52734 0.92188,-0.78125 2.40235,-2.03125 3.11719,-2.35156 0.42969,0.082 1.27735,0.40625 1.8711,0.64062 2.25,0.87891 5.32421,2.08203 8.69921,0.96094 1.88672,-0.63281 3.3125,-1.6875 4.50391,-2.875 0.88672,-0.89063 1.64063,-1.85156 2.35547,-2.76172 0.75,-0.95703 1.47266,-1.87109 2.32422,-2.72656 0.28906,-0.28906 0.59375,-0.57031 0.91797,-0.84375 1.61328,-1.35547 7.4375,-1.96875 11.86328,-1.6875 l 0.49609,-7.66406 c -2.04297,-0.13282 -12.47265,-0.58594 -17.29687,3.46875 -1.90235,1.59765 -3.19922,3.25 -4.34375,4.71093 -1.36328,1.73828 -2.1875,2.73828 -3.25,3.09375 -0.73828,0.24219 -2.1875,-0.32812 -3.46875,-0.82812 -1.98828,-0.77735 -4.24219,-1.66016 -6.69532,-0.9375 -2.17187,0.63672 -4.15234,2.32422 -6.0664,3.95312 -0.88281,0.75 -2.21485,1.88282 -2.73438,2.09766 -1.39062,0.46484 -2.63281,0.71875 -3.6914,0.78516 -1.27735,0.59375 -3.19922,1.34765 -5.63672,1.78125 l -2.88281,2.8789"
       id="path16" />
    <path
       style="fill:#0f0c0c;fill-opacity:1;fill-rule:nonzero;stroke:none"
       d="m 166.75391,164.33594 -1.35157,7.55859 c 3.01563,0.53906 5.6836,0.41406 7.92188,0.0156 2.4375,-0.4336 4.35937,-1.1875 5.63672,-1.78125 0.48047,-0.22266 0.8789,-0.42579 1.16797,-0.57422 2.00781,-1.03125 3.08593,-2.83203 4.03906,-4.41797 0.99219,-1.66406 1.66406,-2.70313 2.83594,-3.15235 1.37109,-0.51953 2.65625,-0.36718 4.28125,-0.17187 1.85546,0.22266 4.16796,0.49609 6.67968,-0.39844 3.10938,-1.10547 4.84766,-4.01562 6.52735,-6.82812 1.17968,-1.97266 2.39843,-4.01953 3.86718,-5.04297 l -4.39843,-6.29688 c -0.6836,0.48047 -1.30469,1.01172 -1.8711,1.57813 -1.77343,1.77344 -3.03906,3.89844 -4.1914,5.82812 -0.65235,1.08985 -1.58985,2.65625 -2.22657,3.29297 -0.11328,0.11328 -0.21484,0.19531 -0.30859,0.24219 -0.75391,0.26953 -1.64844,0.17969 -3.16406,-0.004 -2.13281,-0.2539 -4.78906,-0.57031 -7.92578,0.625 -1.61328,0.61328 -2.86719,1.52344 -3.86328,2.51953 -1.29688,1.30079 -2.16407,2.74219 -2.83594,3.86329 -0.31641,0.53125 -0.78516,1.3125 -1.03516,1.5664 -2.27344,1.15625 -5.42578,2.35938 -9.78515,1.57813"
       id="path18" />
    <path
       style="fill:#0f0c0c;fill-opacity:1;fill-rule:nonzero;stroke:none"
       d="m 154.03906,129.37109 c -0.30859,1.03125 -0.71094,1.89453 -1.14844,2.64453 0.19532,0.88672 0.46875,2.19141 0.36329,2.60547 -0.39454,0.87891 -2.41407,2.44141 -3.75,3.47266 -0.44141,0.33984 -0.86329,0.67187 -1.27344,0.99609 0,2.58594 0.53906,6.1211 1.08984,7.76953 l -6.14062,2.04688 c -0.4336,2.45703 -0.69141,5.07812 -0.79688,7.32812 l 7.67188,0.36329 c 0.23047,-4.85938 1.08203,-8.95704 1.78125,-10.4336 0.043,-0.0547 0.0898,-0.11328 0.16015,-0.17969 0.47657,-0.47656 1.49219,-1.26562 2.20313,-1.8125 1.20312,-0.92968 2.48828,-1.92187 3.61328,-3.04687 1.01562,-1.01953 1.90234,-2.14844 2.47266,-3.42969 1.15234,-2.58594 0.54687,-5.32031 0.0625,-7.51953 -0.28516,-1.29687 -0.67969,-3.07422 -0.29688,-3.5625 0.0977,-0.125 0.19922,-0.24219 0.30859,-0.35156 0.54297,-0.54297 1.27344,-0.93359 2.52344,-1.57031 1.82422,-0.9336 4.23828,-2.17188 6.89844,-4.83203 0.35937,-0.35938 0.72266,-0.74219 1.08984,-1.15625 l -5.74609,-5.09766 c -2.125,2.39844 -3.88281,3.29687 -5.74219,4.25 -1.75,0.89453 -3.73828,1.91406 -5.39453,4.04297 -0.082,0.10156 -0.14844,0.20703 -0.21875,0.30859 0.59375,1.92969 1.10547,4.35156 0.26953,7.16406"
       id="path20" />
    <path
       style="fill:#0f0c0c;fill-opacity:1;fill-rule:nonzero;stroke:none"
       d="m 153.83984,106.66016 c -0.96875,1.15234 -1.89062,1.73828 -2.95703,2.41797 -1.8164,1.16015 -4.08203,2.60156 -5.30859,6.28125 -1.09375,3.28125 -0.14453,6.10156 0.54297,8.15625 0.5625,1.66406 0.86328,2.65234 0.5625,3.66406 -0.375,1.26562 -0.9961,1.78125 -2.01953,2.63281 -1.2461,1.04687 -2.96094,2.47656 -3.65625,5.17969 -1.14454,4.39843 0.1289,11.59765 1.03125,14.29687 l 1.14453,-0.38281 6.14062,-2.04688 c -0.55078,-1.64843 -1.08984,-5.18359 -1.08984,-7.76953 0.004,-0.86328 0.0625,-1.62109 0.20312,-2.17187 0.0703,-0.26172 0.26563,-0.46485 1.15625,-1.21094 0.95703,-0.80078 2.25391,-1.90234 3.30078,-3.69141 0.4375,-0.75 0.83985,-1.61328 1.14844,-2.64453 0.83594,-2.8125 0.32422,-5.23437 -0.26953,-7.16406 -0.125,-0.39844 -0.25,-0.78125 -0.37109,-1.13672 -0.58203,-1.73437 -0.79297,-2.51172 -0.53907,-3.28125 0.35547,-1.05859 0.67969,-1.29297 2.15235,-2.23047 1.25781,-0.80468 2.98047,-1.90234 4.70703,-3.94921 3.27344,-3.89454 3.5,-9.67579 3.67969,-14.320318 l 0.20312,-3.492187 -7.64453,-0.765625 -0.23047,3.957031 c -0.13672,3.472659 -0.30469,7.796879 -1.88672,9.671879"
       id="path22" />
    <path
       style="fill:#0f0c0c;fill-opacity:1;fill-rule:nonzero;stroke:none"
       d="m 174.19531,134.38281 c -4.16797,4.17188 -8.76953,10.78516 -3.8789,15.67188 4.88671,4.89062 12.50781,-0.14453 15.09375,-2.73047 2.28515,-2.28516 8.48828,-15.42578 16.4375,-25.00781 -1.0625,-1.09375 -1.66016,-2.3086 -1.92188,-3.55469 -10.58594,9.07031 -21.92578,11.8164 -25.73047,15.62109"
       id="path24" />
    <path
       style="fill:#0f0c0c;fill-opacity:1;fill-rule:nonzero;stroke:none"
       d="m 313.49219,155.68359 c -7.69532,-6.78515 -77.04688,-63.921871 -77.04688,-63.921871 l 7.57813,-10.292969 c 0,0 73.42578,51.70312 82.02734,57.80859 8.59766,6.11328 10.85938,14.25782 6.22266,18.89844 -4.64063,4.63672 -11.08985,4.29688 -18.78125,-2.49219 z m 16.34765,-23.70312 c -12.38672,-8.99219 -69.90234,-48.964845 -75.51953,-52.777345 -8.26172,-5.605469 -3.5625,-13.515625 -5.26172,-18.15625 0,0 -22.78125,32.136719 -24.55078,34.445313 -6.35937,8.312502 -15.16015,7.074222 -20.64844,12.562502 -1.98437,1.98437 -4.8164,6.54297 -3.93359,10.70703 0.26172,1.24609 0.85938,2.46094 1.92188,3.55469 0.0312,0.0352 0.0547,0.0742 0.0898,0.10547 4.75391,4.7539 10.52344,1.01953 14.14062,-2.60157 5.60547,-5.60156 6.10938,-11.53906 7.46875,-12.89843 1.35547,-1.35547 4.07032,-1.8086 9.05079,1.80859 4.97656,3.625 68.05468,48.03125 77.89453,55.15625 9.84375,7.1289 23.08203,6.44922 28.85156,-2.03516 5.76953,-8.48828 2.88281,-20.875 -9.50391,-29.87109"
       id="path26" />
    <path
       style="fill:#0f0c0c;fill-opacity:1;fill-rule:nonzero;stroke:none"
       d="m 390.67578,304.01172 c -9.01562,6.08984 -19.40625,10.1875 -21.39453,12.17187 -2.58984,2.58985 -8.28516,9.82422 -3.39453,14.71485 4.88672,4.88672 12.16406,0.67187 16.33203,-3.5 3.30078,-3.29688 5.74219,-11.51172 12.23437,-20.42188 -1.02343,-0.39062 -2.01171,-1.02344 -2.93359,-1.94531 -0.33203,-0.33203 -0.60547,-0.67578 -0.84375,-1.01953"
       id="path28" />
    <path
       style="fill:#0f0c0c;fill-opacity:1;fill-rule:nonzero;stroke:none"
       d="m 371.19141,179.21875 c 6.14843,8.56641 60.8125,86.37891 60.8125,86.37891 l -10.29688,7.58203 c 0,0 -62.50781,-74.50391 -69.29687,-82.19532 -6.78907,-7.69531 -7.58204,-13.46484 -2.94141,-18.10156 4.63672,-4.64062 14.82031,-3.28125 21.72266,6.33594 z M 343.76562,193.875 c 7.125,9.84375 56.6875,79.22266 60.30469,84.20703 2.0625,2.84766 2.45313,6.47266 1.78516,7.14063 -0.66797,0.67187 -5.80078,0.55859 -10.20703,4.96875 -3.36719,3.36718 -8.14453,9.19531 -4.97266,13.82031 0.23828,0.34375 0.51172,0.6875 0.84375,1.01953 0.92188,0.92187 1.91016,1.55469 2.93359,1.94531 4.22266,1.63672 9.02735,-0.85547 12.35157,-4.17578 7.7539,-7.75781 2.19531,-10.26562 10.5039,-16.62891 2.3125,-1.76953 32.84766,-24.48046 32.84766,-24.48046 -4.64453,-1.69922 -10.95313,2.92968 -16.55859,-5.33204 -3.8125,-5.61718 -48.27735,-70.21484 -57.27344,-82.60546 -8.9961,-12.38672 -21.79297,-14.06641 -30.28125,-8.29297 -8.48438,5.76953 -9.40625,18.57031 -2.27735,28.41406"
       id="path30" />
    <path
       style="fill:#0f0c0c;fill-opacity:1;fill-rule:nonzero;stroke:none"
       d="m 406.1875,336.47266 c -0.72656,0.80078 -1.125,1.24218 -2.48828,1.76171 -2.53906,0.96094 -6.11328,1.77344 -8.70313,0.16016 l -4.05468,6.52344 c 2.90234,1.80469 7.94531,3.35547 15.48046,0.49609 3.09375,-1.17578 4.46094,-2.6875 5.46094,-3.78906 0.8086,-0.89453 1.14063,-1.26563 3.00391,-1.67969 1.3164,-0.29687 1.5,-0.1875 2.27734,0.26563 1.75781,1.02734 3.96094,2.02343 7.89844,0.83984 4.49609,-1.35937 6.42578,-4.30078 7.83203,-6.44922 0.77344,-1.17187 1.38281,-2.10547 2.30469,-2.77344 1.40625,-1.02343 3.19531,-1.09765 6.5,-1.14453 1.79687,-0.0273 3.83594,-0.0547 6.14062,-0.33203 l -0.91406,-7.625 c -1.90625,0.23047 -3.64844,0.25391 -5.33594,0.27735 -3.67187,0.0547 -7.46484,0.10937 -10.91015,2.61328 -2.05469,1.49609 -3.25,3.3125 -4.20313,4.77343 -1.2539,1.91016 -1.88281,2.77735 -3.6289,3.30469 -1.06641,0.32031 -1.07813,0.3125 -1.8086,-0.11328 -1.72265,-1.00781 -3.89453,-2.01562 -7.83203,-1.13281 -3.91797,0.8789 -5.55469,2.40234 -7.01953,4.02344"
       id="path32" />
    <path
       style="fill:#0f0c0c;fill-opacity:1;fill-rule:nonzero;stroke:none"
       d="m 387.67578,336.39062 c 4.89453,0.31641 6.53125,0.29297 11.52734,-2.33593 3.25391,-1.70703 4.71875,-3.52344 5.89454,-4.98438 0.93359,-1.16015 1.60546,-2 3.3164,-2.98437 0.8711,-0.50782 0.96485,-0.47657 2.13672,-0.125 1.77734,0.53515 4.75391,1.4375 8.98047,-1.07032 3.87891,-2.30468 4.92969,-5.14062 5.69922,-7.21093 0.59765,-1.60938 0.96094,-2.58203 2.67578,-3.76953 l -4.375,-6.31641 c -3.69922,2.5625 -4.73828,5.36719 -5.5,7.41406 -0.60156,1.6211 -0.87891,2.35938 -2.41797,3.27344 -1.32422,0.78516 -1.61328,0.69922 -2.83984,0.32812 -1.66797,-0.5039 -4.45313,-1.34375 -8.21094,0.82813 -2.94531,1.70312 -4.33203,3.42969 -5.44922,4.81641 -0.98437,1.22265 -1.63672,2.03125 -3.48047,3 -3.3125,1.73828 -3.46875,1.73046 -7.46094,1.47265 l -2.39062,-0.14062 -0.40625,7.66797 2.30078,0.13671"
       id="path34" />
    <path
       style="fill:#0f0c0c;fill-opacity:1;fill-rule:nonzero;stroke:none"
       d="m 365.53906,278.13281 c -2.10937,3.33594 -1.36719,6.47266 -0.82812,8.76172 0.49609,2.08594 0.59765,2.84766 -0.0703,3.87891 -1.05078,1.61718 -1.55078,1.86718 -2.3125,2.24609 -1.51562,0.75391 -2.99609,1.64844 -4.45703,4.28125 -2.55468,4.59375 -2.66797,6.88672 -2.66797,14.125 h 7.67969 c 0,-6.85547 0.10938,-7.53516 1.69922,-10.39844 0.42969,-0.76172 0.48438,-0.79297 1.16406,-1.13281 1.58985,-0.78906 3.3125,-1.82422 5.33594,-4.9375 2.51172,-3.87109 1.66406,-7.45703 1.10547,-9.82812 -0.42578,-1.79688 -0.49219,-2.35938 -0.16016,-2.89063 0.67188,-1.05469 1.53907,-1.50391 3.29297,-2.33984 2.1211,-1.01563 4.76563,-2.27735 7.22656,-5.39453 l -6.02734,-4.75782 c -1.35547,1.71485 -2.74609,2.37891 -4.51172,3.22266 -2.04297,0.97656 -4.58984,2.19141 -6.46875,5.16406"
       id="path36" />
    <path
       style="fill:#0f0c0c;fill-opacity:1;fill-rule:nonzero;stroke:none"
       d="m 363.34766,272.99219 c 0.96484,-0.96485 1.94921,-2.24219 2.83593,-4.03907 2.44141,-4.96093 2.5586,-7.6914 2.69532,-10.85937 l 0.20312,-3.24609 -7.64844,-0.71875 -0.22656,3.63671 c -0.125,2.85157 -0.18359,4.28125 -1.91406,7.79297 -0.91016,1.84375 -1.76953,2.42578 -3.07422,3.3086 -1.67188,1.1289 -3.96094,2.67578 -5.46094,6.58203 -1.66015,4.3125 -0.40234,7.03906 0.4336,8.84375 0.55468,1.19922 0.65234,1.41797 0.30078,2.38281 -0.60938,1.65234 -1,1.91016 -1.71094,2.375 -0.94141,0.61328 -2.51172,1.64063 -3.46875,4.10156 -1.23828,3.17578 -3.70313,11.11328 0.0742,16.19532 l 6.16406,-4.58204 c -0.92578,-1.24609 -0.52344,-5.125 0.91797,-8.82812 l 0.0781,-0.16797 0.4336,-0.28906 c 0.65625,-0.42578 1.3164,-0.90235 1.96875,-1.55078 0.98047,-0.98047 1.92969,-2.36719 2.75,-4.60938 1.44922,-3.94922 0.2539,-6.53515 -0.53516,-8.25 -0.59375,-1.27734 -0.73047,-1.58203 -0.23828,-2.86328 0.33594,-0.87891 0.67188,-1.40625 1.10938,-1.84766 0.38671,-0.38671 0.85546,-0.70312 1.48437,-1.1289 0.83203,-0.5625 1.82031,-1.22656 2.82813,-2.23828"
       id="path38" />
    <path
       style="fill:#0f0c0c;fill-opacity:1;fill-rule:nonzero;stroke:none"
       d="M 367.14844,340.17187 C 357.51953,339.14844 345.26562,327.56641 344.6875,315.5 l -0.11719,-2.54297 -2.39453,-0.87891 c -3.54297,-1.30078 -6.87109,-4.4375 -9.53906,-6.96093 -3.39844,-3.20313 -6.07813,-5.73438 -9.50391,-4.99219 -2.48047,0.54297 -4.44922,2.69531 -5.39062,5.91016 -0.15625,0.52343 -0.27735,1.08203 -0.3711,1.66015 l 11.84375,11.84766 c -4.40625,-4.40625 -4.63672,-8.79688 -4.17968,-10.96485 0.73828,0.63672 1.60156,1.4375 2.32812,2.125 2.67969,2.52735 5.95313,5.51172 9.90234,7.51172 0.76954,5.70313 3.3086,11.06641 6.80469,15.63672 6.35547,-0.51172 12.55469,3.16797 15.42969,6.04688 l -4.06641,4.0664 c 2.83985,1.65625 5.77344,2.85938 8.63672,3.46875 1.63672,4.12891 3.23047,10.63282 4.33594,15.14844 0.96094,3.92969 1.44531,5.86719 1.94141,6.98047 1.51562,3.41016 10.93359,14.51562 17.29296,20.875 l 5.42969,-5.42969 c -7.17969,-7.18359 -14.83594,-16.73437 -15.71094,-18.57422 -0.2539,-0.61328 -0.9414,-3.42187 -1.49218,-5.67968 -1.4375,-5.8711 -3.40625,-13.91797 -5.6875,-18.48438 l -0.9375,-1.87891 -2.09375,-0.21875"
       id="path40" />
    <path
       style="fill:#0f0c0c;fill-opacity:1;fill-rule:nonzero;stroke:none"
       d="m 329.21484,319.54297 -20.2539,-20.25781 c -9.125,-9.125 -15.6836,-4.50782 -17.64063,-2.55079 -0.54297,0.54297 -1.17187,1.30469 -1.72656,2.23438 l 8.23047,8.23047 c -2.41797,-2.41797 -2.24219,-4.13672 -1.22656,-5.14844 1.01562,-1.01562 3.05859,-1.20703 6.92968,2.66797 l 32.51953,32.51562 c 2.38282,-2.03515 4.96094,-3.03906 7.52735,-3.33593 l -14.35938,-14.35547"
       id="path42" />
    <path
       style="fill:#0f0c0c;fill-opacity:1;fill-rule:nonzero;stroke:none"
       d="m 341.51562,342.70312 0.78125,0.78125 20.02344,12.44532 -7.61719,-10.89844 -0.16796,-0.16797 -0.46485,0.46484 c -0.0742,-0.0703 -7.10156,-6.48437 -12.55469,-2.625"
       id="path44" />
    <path
       style="fill:#0f0c0c;fill-opacity:1;fill-rule:nonzero;stroke:none"
       d="m 286.42187,295.79687 c -5.23437,-5.23437 -12.86328,-4.64453 -16.69921,-0.80468 -3.66016,3.66015 -4.82813,11.33203 0.9375,17.10156 l 1.6875,1.6875 c 2.48046,-1.69922 7.10546,-3.00391 13.63671,2.84766 l 0.0352,-0.0391 -9.92578,-9.92578 c -2.03516,-2.03125 -1.55078,-5.54297 -0.92969,-6.25 0.70703,-0.70703 3.4961,-1.51953 5.82813,0.8125 l 35.28125,35.28125 5.42968,-5.42969 -35.28125,-35.28125"
       id="path46" />
    <path
       style="fill:#0f0c0c;fill-opacity:1;fill-rule:nonzero;stroke:none"
       d="m 272.34766,313.78125 c -0.52344,0.35937 -0.95313,0.73437 -1.28516,1.06641 -4.45313,4.45312 -4.15625,12.0039 2.55078,18.71093 l 0.125,0.125 c 4.03516,-1.99218 9.85938,-0.40234 15.06641,4.26953 l 0.0312,-0.0312 -9.79297,-9.79296 c -3.36328,-3.36719 -3.44922,-6.95313 -2.54688,-7.85157 0.76953,-0.76953 3.25,0.90235 5.30078,2.94922 l 23.87891,23.87891 5.42969,-5.42969 -23.87891,-23.87891 c -0.42187,-0.42187 -0.83594,-0.80468 -1.24219,-1.16796 -6.53125,-5.85157 -11.15625,-4.54688 -13.63671,-2.84766"
       id="path48" />
    <path
       style="fill:#0f0c0c;fill-opacity:1;fill-rule:nonzero;stroke:none"
       d="m 273.73828,333.68359 c -0.73047,0.35938 -1.40625,0.82422 -2.00391,1.41797 -3.41015,3.41016 -4.04687,10.15235 2.19922,17.53906 4.52735,5.34766 25.15625,27.32032 29.0586,31.22266 3.17968,3.17969 16.94922,16.09375 26.22265,21.17969 2.76563,1.51562 5.38672,2.46875 7.91797,3.39453 5.46875,1.99609 11.125,4.05859 19.51563,12.45312 l 5.43359,-5.43359 c -9.59375,-9.59375 -16.35547,-12.05859 -22.31641,-14.23437 -2.36718,-0.86329 -4.60546,-1.6836 -6.85937,-2.91407 -7.78906,-4.27343 -20.67188,-16.0625 -24.48438,-19.875 -3.60156,-3.60156 -24.24218,-25.57422 -28.625,-30.7539 -3.16796,-3.74219 -3.27734,-6.5 -2.63281,-7.14453 0.45313,-0.21094 3.49219,0.0664 7.31641,3.89062 l 21.86719,21.86719 0.19921,-10.66406 -16.63671,-16.63672 c -0.36329,-0.36328 -0.73438,-0.70703 -1.10547,-1.03907 -5.20703,-4.67187 -11.03125,-6.26171 -15.06641,-4.26953"
       id="path50" />
    <path
       style="fill:#0f0c0c;fill-opacity:1;fill-rule:nonzero;stroke:none"
       d="m 344.07031,333.85156 c -0.16406,0.0156 -0.33203,0.0274 -0.49609,0.0469 -2.56641,0.29687 -5.14453,1.30078 -7.52735,3.33593 -0.32421,0.28125 -0.64843,0.57422 -0.96875,0.89063 -5.05078,5.05469 -11.20312,16.52344 4.36719,36.59375 l 6.06641,-4.70703 c -5.12891,-6.61719 -12.60547,-18.85156 -5,-26.45313 0.32812,-0.32812 0.66406,-0.60937 1.0039,-0.85547 5.45313,-3.85937 12.48047,2.55469 12.55469,2.625 l 5.42969,-5.4297 c -2.875,-2.87891 -9.07422,-6.5586 -15.42969,-6.04688"
       id="path52" />
    <g
       clip-path="url(#clip1)"
       clip-rule="nonzero"
       id="g56">
      <path
         style="fill:#ee2e30;fill-opacity:1;fill-rule:nonzero;stroke:none"
         d="m 468.60156,468.67187 c -35.26562,0.004 -393.011716,0.008 -428.281248,0.008 0,-35.26563 0.01172,-393.015628 0.0078,-428.277346 35.265625,0 393.007818,-0.0039 428.273438,-0.0039 0,35.265624 0,393.011726 0,428.273436 z M 0.0117188,0.0820312 0,509 508.92187,508.992 V 0.078125 L 0.0117188,0.0820312"
         id="path54" />
    </g>
  </g>
</svg>
