<?xml version="1.0" encoding="UTF-8" standalone="no"?>
<svg
   version="1.1"
   height="344"
   viewBox="0 0 168.77993 344"
   width="168.77992"
   id="svg115"
   sodipodi:docname="electrolisis-agua-cat.svg"
   inkscape:version="1.3 (0e150ed, 2023-07-21)"
   xmlns:inkscape="http://www.inkscape.org/namespaces/inkscape"
   xmlns:sodipodi="http://sodipodi.sourceforge.net/DTD/sodipodi-0.dtd"
   xmlns:xlink="http://www.w3.org/1999/xlink"
   xmlns="http://www.w3.org/2000/svg"
   xmlns:svg="http://www.w3.org/2000/svg">
  <sodipodi:namedview
     id="namedview117"
     pagecolor="#ffffff"
     bordercolor="#666666"
     borderopacity="1.0"
     inkscape:pageshadow="2"
     inkscape:pageopacity="0.0"
     inkscape:pagecheckerboard="0"
     showgrid="false"
     inkscape:zoom="1.9461032"
     inkscape:cx="191.92199"
     inkscape:cy="178.56196"
     inkscape:window-width="1920"
     inkscape:window-height="1080"
     inkscape:window-x="0"
     inkscape:window-y="34"
     inkscape:window-maximized="0"
     inkscape:current-layer="svg115"
     fit-margin-top="0"
     fit-margin-left="0"
     fit-margin-right="0"
     fit-margin-bottom="0"
     inkscape:showpageshadow="2"
     inkscape:deskcolor="#d1d1d1" />
  <defs
     id="defs19">
    <linearGradient
       id="g"
       x1="63.390381"
       y1="144.93524"
       x2="249.68048"
       y2="144.93524"
       gradientTransform="matrix(0.77298795,0,0,1.2936812,-37.107999,-19.000006)"
       gradientUnits="userSpaceOnUse">
      <stop
         offset="0%"
         stop-color="#c1d5de"
         id="stop9" />
      <stop
         offset="100%"
         stop-color="#1791c0"
         id="stop11" />
    </linearGradient>
    <linearGradient
       id="h"
       x1="187.74838"
       y1="92.677223"
       x2="211.21693"
       y2="92.677223"
       gradientTransform="matrix(0.42610219,0,0,2.3468548,-37.107999,-19.000006)"
       gradientUnits="userSpaceOnUse">
      <stop
         offset="0%"
         stop-color="#d5d871"
         id="stop14" />
      <stop
         offset="100%"
         stop-color="#c5ad0b"
         id="stop16" />
    </linearGradient>
  </defs>
  <path
     style="fill:url(#g)"
     d="m 11.892001,117.99999 h 23 V 47.999994 h 26 V 117.99999 H 106.892 V 89.999994 h 26 v 27.999996 h 23 v 171 H 11.892001 Z"
     id="path21" />
  <path
     style="fill:none;stroke:#000000;stroke-width:4px;stroke-linecap:round"
     d="m 2.8920006,99.999994 9.0000004,8.999996 v 180 H 155.892 v -180 l 9,-8.999996"
     id="path23" />
  <path
     style="fill:none;stroke:#000000;stroke-width:2px;stroke-linecap:round"
     d="m 29.892001,153.99999 5,-5 V 13.999994 a 13,13 0 0 1 26,0 V 148.99999 l 5,5 m 35.999999,0 5,-5 V 13.999994 a 13,13 0 0 1 26,0 V 148.99999 l 5,5 m -89.999999,72 v 99 h 32 m 9,0 H 119.892 v -99 m -39.999999,81 v 36 m 9,-27 v 18"
     id="path25" />
  <path
     style="fill:url(#h);stroke:#000000;stroke-width:1px"
     d="m 43.392001,171.99999 a 9,4 0 0 1 9,0 v 53 a 9,4 0 0 1 -9,0 z"
     id="c" />
  <use
     xlink:href="#c"
     x="72"
     y="0"
     id="use28"
     width="100%"
     height="100%" />
  <path
     id="b"
     style="fill:#eeeeff;stroke:#9999dd;stroke-width:1px"
     d="m 47.892001,52.999994 a 3.5,3.5 0 0 0 7,0 3.5,3.5 0 0 0 -7,0 m 1.5,6 a 2,2 0 0 0 4,0 2,2 0 0 0 -4,0" />
  <use
     xlink:href="#b"
     x="-7"
     y="19"
     id="use31"
     width="100%"
     height="100%" />
  <use
     xlink:href="#b"
     x="-1"
     y="40"
     id="use33"
     width="100%"
     height="100%" />
  <use
     xlink:href="#b"
     x="-6"
     y="65"
     id="use35"
     width="100%"
     height="100%" />
  <use
     xlink:href="#b"
     x="1"
     y="95"
     id="use37"
     width="100%"
     height="100%" />
  <use
     xlink:href="#b"
     x="73"
     y="45"
     id="use39"
     width="100%"
     height="100%" />
  <use
     xlink:href="#b"
     x="65"
     y="60"
     id="use41"
     width="100%"
     height="100%" />
  <use
     xlink:href="#b"
     x="71"
     y="79"
     id="use43"
     width="100%"
     height="100%" />
  <use
     xlink:href="#b"
     x="64"
     y="100"
     id="use45"
     width="100%"
     height="100%" />
  <use
     xlink:href="#b"
     x="77"
     y="110"
     id="use47"
     width="100%"
     height="100%" />
  <path
     style="fill:#eeeeff;stroke:#9999dd;stroke-width:1px"
     d="m 38.892001,170.99999 a 3,3 0 0 0 6,0 3,3 0 0 0 -6,0 m 10,10 a 3,3 0 0 0 6,0 3,3 0 0 0 -6,0 m 0,14 a 3,3 0 0 0 6,0 3,3 0 0 0 -6,0 m -8,7 a 3,3 0 0 0 6,0 3,3 0 0 0 -6,0 m 10,9 a 3,3 0 0 0 6,0 3,3 0 0 0 -6,0 m -12,10 a 3,3 0 0 0 6,0 3,3 0 0 0 -6,0 m 78.999999,-50 a 3,3 0 0 0 6,0 3,3 0 0 0 -6,0 m -7,13 a 3,3 0 0 0 6,0 3,3 0 0 0 -6,0 m 1,20 a 3,3 0 0 0 6,0 3,3 0 0 0 -6,0 m 7,17 a 3,3 0 0 0 6,0 3,3 0 0 0 -6,0 m 3,-14 a 3,3 0 0 0 6,0 3,3 0 0 0 -6,0 m 0,-16 a 3,3 0 0 0 6,0 3,3 0 0 0 -6,0"
     id="path49" />
  <g
     id="text289"
     style="font-size:16px;line-height:1.25"
     aria-label="O2">
    <path
       style="font-family:'EB Garamond';-inkscape-font-specification:'EB Garamond'"
       d="m 45.005431,25.482894 q -1.056,0 -2.016,-0.368 -0.96,-0.384 -1.696,-1.072 -0.736,-0.704 -1.168,-1.664 -0.432,-0.976 -0.432,-2.16 0,-1.088 0.352,-2.08 0.352,-1.008 1.04,-1.792 0.688,-0.784 1.712,-1.248 1.024,-0.464 2.352,-0.464 1.056,0 2.016,0.384 0.96,0.368 1.696,1.072 0.736,0.688 1.168,1.664 0.432,0.96 0.432,2.144 0,1.072 -0.352,2.08 -0.352,1.008 -1.04,1.792 -0.688,0.784 -1.712,1.248 -1.024,0.464 -2.352,0.464 z m 0.24,-0.64 q 1.232,0 2.048,-0.512 0.816,-0.528 1.216,-1.456 0.416,-0.944 0.416,-2.192 0,-1.104 -0.256,-2.08 -0.256,-0.976 -0.768,-1.712 -0.496,-0.752 -1.248,-1.168 -0.752,-0.416 -1.76,-0.416 -1.2,0 -2.016,0.512 -0.816,0.512 -1.232,1.44 -0.416,0.912 -0.416,2.16 0,1.12 0.24,2.096 0.256,0.976 0.752,1.728 0.512,0.752 1.264,1.184 0.752,0.416 1.76,0.416 z"
       id="path1" />
    <path
       style="font-size:65%;baseline-shift:sub"
       d="m 55.539008,28.490094 q -0.0728,0 -0.2288,-0.0104 -0.156,-0.0104 -0.3536,-0.0208 -0.1976,-0.0104 -0.416,-0.0208 -0.208,-0.0104 -0.4056,-0.0104 -0.1976,0 -0.5616,0.0104 -0.364,0.0104 -0.7696,0.0208 -0.3952,0 -0.6968,0.0104 -0.3016,0.0104 -0.3848,0.0104 -0.0416,0 -0.1248,-0.0624 -0.0832,-0.0728 -0.0832,-0.1144 0,-0.052 0.0208,-0.0728 0.0208,-0.0208 0.0624,-0.0624 l 1.7784,-1.8408 q 0.52,-0.5408 0.8632,-1.2064 0.3432,-0.676 0.3432,-1.3624 0,-0.5512 -0.3328,-0.8632 -0.3328,-0.3224 -0.78,-0.3224 -0.4264,0 -0.7904,0.2392 -0.364,0.2288 -0.5824,0.6032 -0.0312,0.0624 -0.0832,0.104 -0.0416,0.0416 -0.0936,0.0416 -0.0416,0 -0.104,-0.0832 -0.052,-0.0936 -0.052,-0.2288 0,-0.1248 0.1456,-0.3432 0.156,-0.2184 0.4264,-0.4472 0.2704,-0.2288 0.6448,-0.3848 0.3744,-0.1664 0.8112,-0.1664 0.52,0 0.8944,0.2184 0.3744,0.2184 0.572,0.6032 0.1976,0.3848 0.1976,0.8944 0,0.2808 -0.104,0.6032 -0.0936,0.3224 -0.2704,0.6344 -0.1664,0.312 -0.3848,0.5824 -0.1352,0.1664 -0.4056,0.4472 -0.26,0.2704 -0.572,0.5824 -0.3016,0.312 -0.5824,0.5928 -0.2704,0.2704 -0.4472,0.4576 -0.1768,0.1768 -0.1768,0.1976 0,0.052 0.1456,0.0728 0.1768,0.0104 0.3952,0.0208 0.2288,0.0104 0.52,0.0104 0.3016,0 0.6032,-0.0104 0.3016,-0.0104 0.5824,-0.0208 0.3016,-0.0208 0.468,-0.052 0.1664,-0.0312 0.2808,-0.1248 0.1144,-0.104 0.2392,-0.312 0.0416,-0.0624 0.104,-0.1456 0.0728,-0.0936 0.156,-0.0936 0.052,0 0.0624,0.0416 0.0104,0.0416 0.0104,0.0832 0,0.052 -0.0624,0.208 -0.052,0.1456 -0.1248,0.364 -0.0728,0.2184 -0.1248,0.4784 -0.0312,0.1664 -0.104,0.208 -0.0728,0.0416 -0.1248,0.0416 z"
       id="path2" />
  </g>
  <g
     id="text289-3"
     style="font-size:16px;line-height:1.25"
     aria-label="H2">
    <path
       style="font-family:'EB Garamond';-inkscape-font-specification:'EB Garamond'"
       d="m 111.71843,25.250893 q -0.208,0 -0.336,-0.064 -0.128,-0.048 -0.128,-0.144 0,-0.16 0.512,-0.256 0.608,-0.112 0.784,-0.368 0.192,-0.256 0.192,-0.832 v -7.232 q 0,-0.56 -0.128,-0.784 -0.112,-0.24 -0.72,-0.352 -0.528,-0.096 -0.528,-0.288 0,-0.096 0.112,-0.144 0.112,-0.064 0.352,-0.064 0.432,0 0.672,0.016 0.24,0.016 0.448,0.032 0.208,0 0.528,0 0.336,0 0.544,0 0.224,-0.016 0.464,-0.032 0.256,-0.016 0.688,-0.016 0.464,0 0.464,0.208 0,0.112 -0.128,0.176 -0.128,0.064 -0.4,0.112 -0.592,0.112 -0.848,0.4 -0.24,0.272 -0.24,0.736 v 3.152 q 0,0.096 0.08,0.128 0.08,0.016 0.144,0.016 h 5.936 q 0.112,0 0.112,-0.192 v -3.12 q 0,-0.432 -0.224,-0.72 -0.224,-0.288 -0.832,-0.4 -0.272,-0.048 -0.4,-0.112 -0.128,-0.064 -0.128,-0.176 0,-0.208 0.464,-0.208 0.432,0 0.704,0.016 0.288,0.016 0.544,0.032 0.256,0 0.608,0 0.288,0 0.448,0 0.16,-0.016 0.368,-0.032 0.208,-0.016 0.64,-0.016 0.224,0 0.336,0.064 0.128,0.048 0.128,0.144 0,0.192 -0.528,0.288 -0.592,0.112 -0.72,0.384 -0.128,0.272 -0.128,0.736 v 7.232 q 0,0.592 0.144,0.848 0.16,0.256 0.752,0.368 0.512,0.096 0.512,0.256 0,0.096 -0.128,0.144 -0.128,0.064 -0.336,0.064 -0.432,0 -0.672,-0.032 -0.24,-0.016 -0.448,-0.032 -0.208,-0.016 -0.544,-0.016 -0.336,0 -0.56,0.016 -0.208,0.016 -0.464,0.032 -0.256,0.032 -0.688,0.032 -0.208,0 -0.336,-0.064 -0.128,-0.048 -0.128,-0.144 0,-0.112 0.112,-0.16 0.128,-0.048 0.4,-0.096 0.512,-0.096 0.8,-0.368 0.304,-0.288 0.304,-0.8 v -3.12 q 0,-0.08 0,-0.16 0,-0.08 -0.08,-0.08 h -6.112 q -0.08,0 -0.08,0.176 v 3.04 q 0,0.496 0.368,0.864 0.368,0.352 0.912,0.448 0.272,0.048 0.384,0.096 0.128,0.048 0.128,0.16 0,0.096 -0.128,0.144 -0.128,0.064 -0.336,0.064 -0.432,0 -0.72,-0.032 -0.272,-0.016 -0.528,-0.032 -0.256,-0.016 -0.624,-0.016 -0.336,0 -0.576,0.016 -0.224,0.016 -0.496,0.032 -0.256,0.032 -0.688,0.032 z"
       id="path3" />
    <path
       style="font-size:65%;baseline-shift:sub"
       d="m 127.98002,28.402093 q -0.0728,0 -0.2288,-0.0104 -0.156,-0.0104 -0.3536,-0.0208 -0.1976,-0.0104 -0.416,-0.0208 -0.208,-0.0104 -0.4056,-0.0104 -0.1976,0 -0.5616,0.0104 -0.364,0.0104 -0.7696,0.0208 -0.3952,0 -0.6968,0.0104 -0.3016,0.0104 -0.3848,0.0104 -0.0416,0 -0.1248,-0.0624 -0.0832,-0.0728 -0.0832,-0.1144 0,-0.052 0.0208,-0.0728 0.0208,-0.0208 0.0624,-0.0624 l 1.7784,-1.8408 q 0.52,-0.5408 0.8632,-1.2064 0.3432,-0.676 0.3432,-1.3624 0,-0.5512 -0.3328,-0.8632 -0.3328,-0.3224 -0.78,-0.3224 -0.4264,0 -0.7904,0.2392 -0.364,0.2288 -0.5824,0.6032 -0.0312,0.0624 -0.0832,0.104 -0.0416,0.0416 -0.0936,0.0416 -0.0416,0 -0.104,-0.0832 -0.052,-0.0936 -0.052,-0.2288 0,-0.1248 0.1456,-0.3432 0.156,-0.2184 0.4264,-0.4472 0.2704,-0.2288 0.6448,-0.3848 0.3744,-0.1664 0.8112,-0.1664 0.52,0 0.8944,0.2184 0.3744,0.2184 0.572,0.6032 0.1976,0.3848 0.1976,0.8944 0,0.2808 -0.104,0.6032 -0.0936,0.3224 -0.2704,0.6344 -0.1664,0.312 -0.3848,0.5824 -0.1352,0.1664 -0.4056,0.4472 -0.26,0.2704 -0.572,0.5824 -0.3016,0.312 -0.5824,0.5928 -0.2704,0.2704 -0.4472,0.4576 -0.1768,0.1768 -0.1768,0.1976 0,0.052 0.1456,0.0728 0.1768,0.0104 0.3952,0.0208 0.2288,0.0104 0.52,0.0104 0.3016,0 0.6032,-0.0104 0.3016,-0.0104 0.5824,-0.0208 0.3016,-0.0208 0.468,-0.052 0.1664,-0.0312 0.2808,-0.1248 0.1144,-0.104 0.2392,-0.312 0.0416,-0.0624 0.104,-0.1456 0.0728,-0.0936 0.156,-0.0936 0.052,0 0.0624,0.0416 0.0104,0.0416 0.0104,0.0832 0,0.052 -0.0624,0.208 -0.052,0.1456 -0.1248,0.364 -0.0728,0.2184 -0.1248,0.4784 -0.0312,0.1664 -0.104,0.208 -0.0728,0.0416 -0.1248,0.0416 z"
       id="path4" />
  </g>
  <path
     style="font-size:16px;line-height:1.25;font-family:'EB Garamond';-inkscape-font-specification:'EB Garamond'"
     d="m 6.352,303.14532 q -0.032,0 -0.112,-0.032 -0.064,-0.032 -0.176,-0.112 -0.464,-0.368 -1.04,-0.784 -0.576,-0.432 -1.04,-0.848 -0.208,-0.192 -0.208,-0.304 0,-0.112 0.176,-0.192 0.192,-0.08 0.416,-0.128 0.224,-0.048 0.336,-0.048 0.288,0 0.432,0.208 0.32,0.464 0.624,0.944 0.32,0.48 0.608,0.96 0.08,0.128 0.08,0.24 0,0.096 -0.096,0.096 z m -5.888,11.04 q -0.208,0 -0.336,-0.064 -0.128,-0.048 -0.128,-0.144 0,-0.112 0.128,-0.192 0.144,-0.096 0.4,-0.176 0.416,-0.128 0.768,-0.384 0.352,-0.256 0.608,-0.848 0.448,-1.024 0.816,-1.92 0.384,-0.896 0.72,-1.76 0.336,-0.864 0.688,-1.792 0.368,-0.944 0.768,-2.048 0.08,-0.224 0.144,-0.448 0.064,-0.224 0.08,-0.48 0.144,-0.048 0.288,-0.096 0.144,-0.048 0.288,-0.144 0.144,-0.096 0.192,-0.288 0.064,-0.192 0.112,-0.256 0.016,-0.016 0.032,-0.016 0.032,0 0.048,0.032 0.032,0.064 0.048,0.16 0.032,0.096 0.064,0.192 0.384,1.216 0.8,2.48 0.416,1.264 0.8,2.448 0.4,1.168 0.72,2.112 0.336,0.928 0.528,1.504 0.224,0.64 0.48,0.96 0.256,0.32 0.528,0.448 0.288,0.128 0.608,0.192 0.272,0.048 0.4,0.16 0.128,0.096 0.128,0.208 0,0.096 -0.128,0.128 -0.128,0.032 -0.336,0.032 -0.224,0 -0.608,-0.032 -0.384,-0.016 -0.816,-0.048 -0.432,-0.016 -0.8,-0.016 -0.304,0 -0.624,0 -0.32,0 -0.592,0.016 -0.272,0 -0.464,0 -0.208,0 -0.336,-0.048 -0.128,-0.048 -0.128,-0.144 0,-0.112 0.16,-0.192 0.16,-0.08 0.368,-0.112 0.528,-0.08 0.752,-0.272 0.224,-0.192 0.224,-0.448 0,-0.24 -0.112,-0.688 -0.096,-0.464 -0.24,-0.976 -0.144,-0.528 -0.272,-0.928 -0.032,-0.128 -0.128,-0.144 -0.08,-0.032 -0.304,-0.032 H 3.776 q -0.064,0 -0.144,0.064 -0.064,0.048 -0.128,0.224 -0.048,0.16 -0.16,0.512 -0.112,0.336 -0.224,0.72 -0.112,0.384 -0.192,0.688 -0.08,0.304 -0.08,0.384 0,0.352 0.272,0.592 0.272,0.224 0.656,0.32 0.528,0.144 0.528,0.32 0,0.096 -0.128,0.144 -0.128,0.032 -0.336,0.032 -0.208,0 -0.608,-0.016 -0.4,-0.016 -0.848,-0.016 -0.528,0 -1.024,0.048 -0.496,0.048 -0.896,0.048 z m 3.744,-4.592 h 2.48 q 0.224,0 0.224,-0.08 0,-0.032 -0.016,-0.064 0,-0.048 -0.016,-0.096 l -1.248,-3.904 q -0.096,-0.288 -0.144,-0.288 -0.032,0 -0.128,0.272 l -1.456,3.92 q -0.032,0.096 -0.032,0.128 0,0.08 0.08,0.096 0.096,0.016 0.256,0.016 z m 7.599991,4.56 q -0.144,0 -0.24,-0.048 -0.08,-0.032 -0.08,-0.128 0,-0.128 0.096,-0.16 0.096,-0.048 0.272,-0.096 0.24,-0.064 0.464,-0.176 0.224,-0.112 0.224,-0.432 v -3.44 q 0,-0.432 -0.096,-0.736 -0.08,-0.304 -0.496,-0.416 -0.064,-0.032 -0.112,-0.064 -0.048,-0.048 -0.048,-0.144 0,-0.176 0.144,-0.192 0.56,-0.144 0.912,-0.352 0.352,-0.208 0.688,-0.464 0.048,-0.032 0.08,-0.048 0.048,-0.032 0.096,-0.032 0.032,0 0.048,0.032 0.032,0.032 0.032,0.08 0,0.112 -0.048,0.464 -0.032,0.336 -0.032,0.56 0,0.064 0,0.128 0.016,0.048 0.032,0.064 0.56,-0.528 1.184,-0.8 0.64,-0.272 1.392,-0.272 0.784,0 1.296,0.64 0.512,0.64 0.512,1.584 v 3.408 q 0,0.32 0.224,0.432 0.224,0.096 0.464,0.176 0.128,0.048 0.24,0.112 0.128,0.048 0.128,0.176 0,0.096 -0.112,0.112 -0.112,0.032 -0.208,0.032 -0.32,0 -0.496,-0.032 -0.176,-0.016 -0.336,-0.032 -0.16,-0.016 -0.448,-0.016 -0.272,0 -0.448,0.016 -0.176,0.016 -0.368,0.032 -0.176,0.032 -0.496,0.032 -0.08,0 -0.208,-0.032 -0.112,-0.016 -0.112,-0.112 0,-0.128 0.112,-0.176 0.128,-0.064 0.256,-0.112 0.24,-0.08 0.464,-0.176 0.224,-0.112 0.224,-0.432 v -3.36 q 0,-0.704 -0.4,-1.088 -0.384,-0.4 -1.04,-0.416 -0.576,0 -1.008,0.192 -0.432,0.176 -0.768,0.448 -0.064,0.064 -0.096,0.176 -0.032,0.096 -0.032,0.192 v 3.856 q 0,0.32 0.224,0.432 0.224,0.112 0.464,0.176 0.368,0.096 0.368,0.256 0,0.096 -0.08,0.128 -0.08,0.048 -0.24,0.048 -0.32,0 -0.512,-0.032 -0.176,-0.016 -0.336,-0.032 -0.16,-0.016 -0.448,-0.016 -0.272,0 -0.448,0.016 -0.16,0.016 -0.352,0.032 -0.176,0.032 -0.496,0.032 z m 11.487998,0.176 q -0.896,0 -1.616,-0.416 -0.72,-0.416 -1.152,-1.136 -0.416,-0.736 -0.416,-1.664 0,-0.672 0.256,-1.312 0.272,-0.64 0.752,-1.168 0.48,-0.528 1.12,-0.832 0.64,-0.32 1.376,-0.32 0.928,0 1.664,0.448 0.752,0.448 1.184,1.184 0.448,0.72 0.448,1.584 0,0.928 -0.416,1.76 -0.4,0.832 -1.2,1.36 -0.8,0.512 -2,0.512 z m 0.336,-0.48 q 0.544,0 0.976,-0.208 0.432,-0.208 0.672,-0.672 0.192,-0.368 0.256,-0.896 0.064,-0.528 0.064,-0.992 0,-0.768 -0.288,-1.472 -0.272,-0.72 -0.784,-1.168 -0.496,-0.464 -1.184,-0.464 -0.432,0 -0.784,0.144 -0.336,0.128 -0.624,0.496 -0.32,0.4 -0.416,0.976 -0.096,0.576 -0.096,1.152 0,0.784 0.288,1.504 0.288,0.704 0.784,1.152 0.496,0.448 1.136,0.448 z m 9.551983,0.56 q -0.032,0 -0.112,-0.064 -0.064,-0.064 -0.064,-0.096 0,-0.16 0.032,-0.448 0.048,-0.304 0.048,-0.512 v -0.096 q -0.24,0.368 -0.768,0.752 -0.528,0.384 -1.328,0.384 -0.912,0 -1.584,-0.48 -0.656,-0.48 -1.024,-1.232 -0.352,-0.752 -0.352,-1.552 0,-0.928 0.432,-1.744 0.432,-0.816 1.232,-1.328 0.816,-0.512 1.936,-0.512 0.32,0 0.64,0.064 0.336,0.048 0.512,0.112 0.144,0.048 0.208,0.048 0.112,0 0.112,-0.384 v -2.272 q 0,-0.656 -0.208,-0.88 -0.208,-0.224 -0.592,-0.288 -0.144,-0.032 -0.144,-0.208 0,-0.144 0.128,-0.192 0.704,-0.176 1.104,-0.336 0.4,-0.16 0.624,-0.256 0.064,-0.032 0.112,-0.032 0.064,-0.016 0.096,-0.016 0.096,0 0.112,0.096 0,0.096 -0.032,0.336 -0.016,0.224 -0.048,0.672 -0.032,0.448 -0.032,1.168 v 7.232 q 0,0.544 0.08,0.8 0.08,0.24 0.256,0.24 0.08,0 0.272,-0.016 0.208,-0.016 0.416,-0.032 0.288,-0.016 0.288,0.144 0,0.112 -0.08,0.208 -0.064,0.08 -0.144,0.08 -0.448,0.064 -0.88,0.192 -0.432,0.112 -0.992,0.352 -0.128,0.064 -0.176,0.08 -0.032,0.016 -0.08,0.016 z m -1.616,-0.912 q 0.416,0 0.816,-0.208 0.4,-0.224 0.704,-0.576 l 0.016,-2.88 q 0,-0.432 -0.256,-0.848 -0.24,-0.416 -0.688,-0.672 -0.432,-0.272 -1.024,-0.272 -0.368,0 -0.832,0.224 -0.464,0.224 -0.8,0.8 -0.336,0.56 -0.336,1.632 0,0.912 0.272,1.472 0.272,0.544 0.656,0.832 0.4,0.288 0.8,0.4 0.416,0.096 0.672,0.096 z m 7.407978,0.848 q -0.88,0 -1.536,-0.432 -0.656,-0.432 -1.024,-1.216 -0.368,-0.8 -0.368,-1.84 0,-0.928 0.416,-1.68 0.432,-0.768 1.136,-1.232 0.704,-0.464 1.536,-0.464 0.64,0 1.136,0.256 0.496,0.256 0.768,0.72 0.288,0.448 0.288,1.04 0,0.496 -0.48,0.496 h -3.376 q -0.224,0 -0.32,0.128 -0.08,0.112 -0.08,0.464 0,0.768 0.336,1.408 0.336,0.624 0.896,1.008 0.56,0.368 1.232,0.368 0.48,0 0.864,-0.176 0.4,-0.192 0.704,-0.544 0.064,-0.08 0.096,-0.096 0.032,-0.032 0.08,-0.032 0.128,0 0.128,0.16 0,0.304 -0.288,0.672 -0.24,0.304 -0.576,0.528 -0.336,0.224 -0.736,0.336 -0.4,0.128 -0.832,0.128 z m -1.472,-4.848 h 1.456 q 0.384,0 0.656,-0.016 0.272,-0.016 0.528,-0.064 0.08,-0.016 0.096,-0.096 0.032,-0.096 0.032,-0.256 0,-0.464 -0.416,-0.784 -0.4,-0.336 -0.96,-0.336 -0.368,0 -0.736,0.224 -0.368,0.208 -0.608,0.528 -0.24,0.32 -0.24,0.64 0,0.16 0.192,0.16 z"
     id="text1958"
     aria-label="Ànode" />
  <path
     style="font-size:16px;line-height:1.25;font-family:'EB Garamond';-inkscape-font-specification:'EB Garamond'"
     d="m 130.66801,313.27333 q -1.12,0 -2.16,-0.384 -1.04,-0.384 -1.856,-1.088 -0.816,-0.72 -1.296,-1.712 -0.464,-1.008 -0.464,-2.224 0,-1.168 0.496,-2.16 0.496,-0.992 1.36,-1.728 0.864,-0.736 1.968,-1.136 1.12,-0.416 2.352,-0.416 0.624,0 1.056,0.048 0.432,0.048 0.832,0.144 0.416,0.08 0.96,0.224 0.24,0.064 0.336,0.192 0.112,0.128 0.128,0.352 0.032,0.368 0.08,0.8 0.048,0.416 0.064,1.04 0.016,0.112 -0.112,0.192 -0.112,0.064 -0.256,0.032 -0.128,-0.032 -0.176,-0.208 -0.16,-0.608 -0.368,-1.04 -0.208,-0.448 -0.624,-0.736 -0.4,-0.272 -0.976,-0.4 -0.56,-0.144 -1.216,-0.144 -0.928,0 -1.728,0.384 -0.784,0.368 -1.36,1.024 -0.56,0.64 -0.88,1.456 -0.32,0.816 -0.32,1.696 0,0.976 0.304,1.92 0.32,0.944 0.896,1.712 0.592,0.752 1.392,1.216 0.816,0.448 1.808,0.448 1.152,0 1.904,-0.528 0.752,-0.528 1.28,-1.472 0.112,-0.208 0.32,-0.208 0.224,0 0.224,0.256 0,0.128 -0.064,0.416 -0.064,0.272 -0.176,0.592 -0.096,0.304 -0.192,0.544 -0.112,0.224 -0.192,0.288 -0.064,0.064 -0.32,0.144 -0.592,0.24 -1.424,0.352 -0.816,0.112 -1.6,0.112 z m 8.43199,-7.552 q -0.16,0 -0.496,-0.336 -0.208,-0.208 -0.544,-0.592 -0.336,-0.384 -0.672,-0.784 -0.32,-0.416 -0.512,-0.688 -0.064,-0.112 -0.112,-0.176 -0.048,-0.064 -0.048,-0.16 0,-0.176 0.24,-0.256 0.24,-0.08 0.544,-0.08 0.128,0 0.24,0.08 0.128,0.08 0.192,0.208 0.128,0.208 0.368,0.656 0.256,0.448 0.496,0.928 0.256,0.464 0.368,0.768 0.032,0.096 0.048,0.176 0.016,0.064 0.016,0.112 0,0.144 -0.128,0.144 z m -1.712,7.536 q -0.288,0 -0.592,-0.224 -0.288,-0.224 -0.496,-0.544 -0.192,-0.32 -0.192,-0.608 0,-0.512 0.272,-0.8 0.272,-0.288 0.864,-0.528 l 1.632,-0.672 q 0.32,-0.128 0.368,-0.224 0.064,-0.096 0.08,-0.416 l 0.032,-1.024 q 0.016,-0.416 -0.24,-0.72 -0.24,-0.304 -0.704,-0.304 -0.24,0 -0.48,0.08 -0.24,0.08 -0.4,0.208 -0.096,0.064 -0.128,0.192 -0.032,0.128 -0.032,0.272 0,0.064 0,0.144 0.016,0.08 0.016,0.144 0,0.08 -0.208,0.224 -0.192,0.128 -0.448,0.24 -0.24,0.096 -0.4,0.096 -0.08,0 -0.128,-0.032 -0.048,-0.048 -0.048,-0.112 0,-0.256 0.16,-0.544 0.176,-0.304 0.48,-0.56 0.368,-0.336 0.8,-0.592 0.432,-0.256 0.848,-0.4 0.416,-0.144 0.736,-0.144 0.576,0 0.944,0.416 0.384,0.4 0.368,1.008 l -0.08,3.84 q -0.016,0.336 0.144,0.544 0.176,0.208 0.432,0.208 0.4,0 0.592,-0.176 0.08,-0.08 0.128,-0.08 0.08,0 0.128,0.048 0.048,0.048 0.048,0.128 0,0.176 -0.176,0.352 -0.256,0.256 -0.56,0.4 -0.288,0.16 -0.544,0.16 -0.736,0 -1.168,-0.832 h -0.048 q -0.528,0.432 -1.008,0.624 -0.48,0.208 -0.992,0.208 z m 0.752,-0.768 q 0.32,0 0.544,-0.096 0.224,-0.112 0.4,-0.288 0.08,-0.08 0.128,-0.208 0.064,-0.144 0.08,-0.448 l 0.032,-0.784 q 0.016,-0.176 -0.016,-0.256 -0.032,-0.08 -0.128,-0.08 -0.032,0 -0.112,0.016 -0.08,0.016 -0.208,0.064 -0.848,0.304 -1.184,0.64 -0.32,0.32 -0.32,0.592 0,0.416 0.24,0.64 0.256,0.208 0.544,0.208 z m 6.78397,0.768 q -0.784,0 -1.232,-0.48 -0.432,-0.48 -0.432,-1.424 v -3.712 q 0,-0.128 -0.096,-0.176 -0.096,-0.064 -0.416,-0.064 h -0.096 q -0.08,0 -0.144,-0.096 -0.048,-0.112 -0.048,-0.224 0,-0.032 0.048,-0.096 0.048,-0.064 0.064,-0.08 0.32,-0.224 0.576,-0.448 0.272,-0.224 0.48,-0.432 0.224,-0.224 0.368,-0.4 0.08,-0.08 0.128,-0.128 0.064,-0.064 0.144,-0.064 0.08,0 0.144,0.032 0.08,0.032 0.064,0.144 l -0.08,0.72 q -0.016,0.176 0.08,0.24 0.096,0.064 0.304,0.064 h 1.824 q 0.064,0 0.112,0.112 0.048,0.096 0.048,0.24 0,0.144 -0.048,0.288 -0.048,0.128 -0.112,0.128 h -1.584 q -0.4,0 -0.528,0.064 -0.112,0.064 -0.112,0.384 v 3.152 q 0,0.64 0.272,1.008 0.272,0.368 0.784,0.368 0.464,0 0.72,-0.064 0.256,-0.08 0.464,-0.224 0.032,-0.032 0.064,-0.032 0.064,0 0.08,0.08 0.032,0.064 0.032,0.144 0,0.08 -0.272,0.32 -0.256,0.24 -0.688,0.448 -0.416,0.208 -0.912,0.208 z m 5.74399,0 q -0.896,0 -1.616,-0.416 -0.72,-0.416 -1.152,-1.136 -0.416,-0.736 -0.416,-1.664 0,-0.672 0.256,-1.312 0.272,-0.64 0.752,-1.168 0.48,-0.528 1.12,-0.832 0.64,-0.32 1.376,-0.32 0.928,0 1.664,0.448 0.752,0.448 1.184,1.184 0.448,0.72 0.448,1.584 0,0.928 -0.416,1.76 -0.4,0.832 -1.2,1.36 -0.8,0.512 -2,0.512 z m 0.336,-0.48 q 0.544,0 0.976,-0.208 0.432,-0.208 0.672,-0.672 0.192,-0.368 0.256,-0.896 0.064,-0.528 0.064,-0.992 0,-0.768 -0.288,-1.472 -0.272,-0.72 -0.784,-1.168 -0.496,-0.464 -1.184,-0.464 -0.432,0 -0.784,0.144 -0.336,0.128 -0.624,0.496 -0.32,0.4 -0.416,0.976 -0.096,0.576 -0.096,1.152 0,0.784 0.288,1.504 0.288,0.704 0.784,1.152 0.496,0.448 1.136,0.448 z m 9.55198,0.56 q -0.032,0 -0.112,-0.064 -0.064,-0.064 -0.064,-0.096 0,-0.16 0.032,-0.448 0.048,-0.304 0.048,-0.512 v -0.096 q -0.24,0.368 -0.768,0.752 -0.528,0.384 -1.328,0.384 -0.912,0 -1.584,-0.48 -0.656,-0.48 -1.024,-1.232 -0.352,-0.752 -0.352,-1.552 0,-0.928 0.432,-1.744 0.432,-0.816 1.232,-1.328 0.816,-0.512 1.936,-0.512 0.32,0 0.64,0.064 0.336,0.048 0.512,0.112 0.144,0.048 0.208,0.048 0.112,0 0.112,-0.384 v -2.272 q 0,-0.656 -0.208,-0.88 -0.208,-0.224 -0.592,-0.288 -0.144,-0.032 -0.144,-0.208 0,-0.144 0.128,-0.192 0.704,-0.176 1.104,-0.336 0.4,-0.16 0.624,-0.256 0.064,-0.032 0.112,-0.032 0.064,-0.016 0.096,-0.016 0.096,0 0.112,0.096 0,0.096 -0.032,0.336 -0.016,0.224 -0.048,0.672 -0.032,0.448 -0.032,1.168 v 7.232 q 0,0.544 0.08,0.8 0.08,0.24 0.256,0.24 0.08,0 0.272,-0.016 0.208,-0.016 0.416,-0.032 0.288,-0.016 0.288,0.144 0,0.112 -0.08,0.208 -0.064,0.08 -0.144,0.08 -0.448,0.064 -0.88,0.192 -0.432,0.112 -0.992,0.352 -0.128,0.064 -0.176,0.08 -0.032,0.016 -0.08,0.016 z m -1.616,-0.912 q 0.416,0 0.816,-0.208 0.4,-0.224 0.704,-0.576 l 0.016,-2.88 q 0,-0.432 -0.256,-0.848 -0.24,-0.416 -0.688,-0.672 -0.432,-0.272 -1.024,-0.272 -0.368,0 -0.832,0.224 -0.464,0.224 -0.8,0.8 -0.336,0.56 -0.336,1.632 0,0.912 0.272,1.472 0.272,0.544 0.656,0.832 0.4,0.288 0.8,0.4 0.416,0.096 0.672,0.096 z m 7.40798,0.848 q -0.88,0 -1.536,-0.432 -0.656,-0.432 -1.024,-1.216 -0.368,-0.8 -0.368,-1.84 0,-0.928 0.416,-1.68 0.432,-0.768 1.136,-1.232 0.704,-0.464 1.536,-0.464 0.64,0 1.136,0.256 0.496,0.256 0.768,0.72 0.288,0.448 0.288,1.04 0,0.496 -0.48,0.496 h -3.376 q -0.224,0 -0.32,0.128 -0.08,0.112 -0.08,0.464 0,0.768 0.336,1.408 0.336,0.624 0.896,1.008 0.56,0.368 1.232,0.368 0.48,0 0.864,-0.176 0.4,-0.192 0.704,-0.544 0.064,-0.08 0.096,-0.096 0.032,-0.032 0.08,-0.032 0.128,0 0.128,0.16 0,0.304 -0.288,0.672 -0.24,0.304 -0.576,0.528 -0.336,0.224 -0.736,0.336 -0.4,0.128 -0.832,0.128 z m -1.472,-4.848 h 1.456 q 0.384,0 0.656,-0.016 0.272,-0.016 0.528,-0.064 0.08,-0.016 0.096,-0.096 0.032,-0.096 0.032,-0.256 0,-0.464 -0.416,-0.784 -0.4,-0.336 -0.96,-0.336 -0.368,0 -0.736,0.224 -0.368,0.208 -0.608,0.528 -0.24,0.32 -0.24,0.64 0,0.16 0.192,0.16 z"
     id="text1958-3"
     aria-label="Càtode" />
</svg>
