<?xml version="1.0" encoding="UTF-8" standalone="no"?>
<svg
   width="720pt"
   height="720pt"
   viewBox="0 0 720 720"
   version="1.2"
   id="svg25"
   sodipodi:docname="oxidante.svg"
   inkscape:version="1.1 (c4e8f9e, 2021-05-24)"
   xmlns:inkscape="http://www.inkscape.org/namespaces/inkscape"
   xmlns:sodipodi="http://sodipodi.sourceforge.net/DTD/sodipodi-0.dtd"
   xmlns="http://www.w3.org/2000/svg"
   xmlns:svg="http://www.w3.org/2000/svg">
  <sodipodi:namedview
     id="namedview27"
     pagecolor="#ffffff"
     bordercolor="#666666"
     borderopacity="1.0"
     inkscape:pageshadow="2"
     inkscape:pageopacity="0.0"
     inkscape:pagecheckerboard="0"
     inkscape:document-units="pt"
     showgrid="false"
     inkscape:zoom="0.27083333"
     inkscape:cx="478.15385"
     inkscape:cy="480"
     inkscape:window-width="764"
     inkscape:window-height="480"
     inkscape:window-x="0"
     inkscape:window-y="25"
     inkscape:window-maximized="0"
     inkscape:current-layer="svg25" />
  <defs
     id="defs12">
    <clipPath
       id="clip1">
      <path
         d="M 0 0.277344 L 719.707031 0.277344 L 719.707031 719.941406 L 0 719.941406 Z M 0 0.277344 "
         id="path9" />
    </clipPath>
  </defs>
  <g
     id="surface2845">
    <g
       clip-path="url(#clip1)"
       clip-rule="nonzero"
       id="g16">
      <path
         style=" stroke:none;fill-rule:nonzero;fill:rgb(93.608093%,18.185425%,19.468689%);fill-opacity:1;"
         d="M 662.6875 360.132812 C 637.75 385.070312 384.785156 638.039062 359.851562 662.976562 C 334.914062 638.039062 81.953125 385.070312 57.019531 360.132812 C 81.953125 335.195312 334.914062 82.234375 359.851562 57.296875 C 384.785156 82.234375 637.75 335.195312 662.6875 360.132812 Z M 0 360.132812 L 359.851562 720 L 719.707031 360.132812 L 359.851562 0.277344 L 0 360.132812 "
         id="path14" />
    </g>
    <path
       style=" stroke:none;fill-rule:nonzero;fill:rgb(6.29425%,5.767822%,5.058289%);fill-opacity:1;"
       d="M 335.726562 485.238281 L 265.507812 485.238281 L 265.507812 514.8125 L 460.605469 514.8125 L 460.605469 485.238281 L 381.414062 485.238281 C 374.097656 487.039062 366.445312 488 358.570312 488 C 350.695312 488 343.046875 487.039062 335.726562 485.238281 "
       id="path18" />
    <path
       style=" stroke:none;fill-rule:nonzero;fill:rgb(6.29425%,5.767822%,5.058289%);fill-opacity:1;"
       d="M 358.570312 460.617188 C 321.035156 460.617188 290.609375 430.191406 290.609375 392.65625 C 290.609375 355.125 321.035156 324.695312 358.570312 324.695312 C 396.105469 324.695312 426.53125 355.125 426.53125 392.65625 C 426.53125 430.191406 396.105469 460.617188 358.570312 460.617188 Z M 447.113281 390.710938 L 450.246094 366.382812 C 446.402344 352.953125 439.691406 340.734375 430.8125 330.4375 L 424.710938 335.566406 L 420.480469 330.238281 L 418.109375 318.191406 C 409.171875 311.035156 398.917969 305.457031 387.769531 301.875 L 382.804688 309.535156 L 379.523438 299.628906 C 372.78125 298.117188 365.769531 297.3125 358.570312 297.3125 C 350.933594 297.3125 343.507812 298.21875 336.386719 299.914062 L 336.480469 304.046875 L 327.109375 306.425781 L 325.425781 303.238281 C 317.445312 306.195312 309.96875 310.191406 303.15625 315.0625 L 305.488281 320.835938 L 296.328125 320.433594 C 286.992188 328.488281 279.234375 338.320312 273.578125 349.410156 L 273.769531 360.015625 L 268.011719 407.054688 L 263.652344 401.660156 C 267.46875 442.40625 296.925781 475.695312 335.726562 485.238281 C 343.046875 487.039062 350.695312 488 358.570312 488 C 366.445312 488 374.097656 487.039062 381.414062 485.238281 C 415.570312 476.839844 442.484375 450.039062 451.042969 415.945312 L 447.429688 421.730469 L 447.113281 390.710938 "
       id="path20" />
    <path
       style=" stroke:none;fill-rule:nonzero;fill:rgb(6.29425%,5.767822%,5.058289%);fill-opacity:1;"
       d="M 349.609375 133.152344 L 349.609375 156.816406 L 343.402344 189.085938 L 335.410156 209.136719 L 325.289062 195.855469 L 320.8125 187.21875 L 318.25 178.257812 L 301.929688 158.417969 L 305.789062 173.03125 L 297.769531 188.175781 L 294.570312 210.578125 L 298.550781 242.710938 L 284.183594 235.125 L 274.730469 221.136719 L 261.929688 205.777344 L 265.449219 227.535156 L 265.621094 264.179688 L 269.171875 283.386719 L 251.691406 272.65625 L 236.011719 260.816406 L 239.53125 294.738281 L 239.53125 336.976562 L 246.890625 375.378906 L 254.570312 390.417969 L 268.011719 407.054688 L 273.769531 360.015625 L 273.367188 337.78125 L 268.363281 317.605469 L 266.089844 302.738281 L 279.179688 315.507812 L 287.089844 320.027344 L 296.328125 320.433594 L 305.488281 320.835938 L 299.03125 304.855469 L 306.296875 280.15625 L 309.71875 255.039062 L 316.925781 287.15625 L 327.109375 306.425781 L 336.480469 304.046875 L 335.996094 282.742188 L 350.296875 254.726562 L 350.609375 233.105469 L 368.3125 254.101562 L 372.070312 277.128906 L 382.804688 309.535156 L 408.574219 269.765625 L 420.480469 330.238281 L 424.710938 335.566406 L 439.4375 323.1875 L 452.753906 313.789062 L 452.597656 348.097656 L 447.113281 390.710938 L 447.429688 421.730469 L 471.710938 382.878906 L 482.730469 350.097656 L 482.730469 310.097656 L 471.851562 264.976562 L 471.851562 272.335938 L 460.011719 283.539062 L 446.25 289.9375 L 450.246094 271.175781 L 457.296875 247.675781 L 449.621094 220.101562 L 445.292969 231.695312 L 437.609375 239.683594 L 424.171875 246.085938 L 427.371094 227.535156 L 427.371094 205.457031 L 408.8125 165.457031 L 408.8125 173.777344 L 404.972656 191.695312 L 397.609375 205.777344 L 383.53125 212.816406 L 383.53125 180.175781 L 375.851562 154.578125 L 365.292969 129.296875 L 357.65625 98.21875 L 349.609375 133.152344 "
       id="path22" />
  </g>
</svg>
