<?xml version="1.0" encoding="UTF-8" standalone="no"?>
<svg
   width="424.36517"
   height="387.55533"
   viewBox="-4.425 -6.167 424.36517 387.55533"
   xml:space="preserve"
   id="svg2"
   version="1.1"
   inkscape:version="1.2.2 (b0a8486, 2022-12-01)"
   sodipodi:docname="Bohr.svg"
   xmlns:inkscape="http://www.inkscape.org/namespaces/inkscape"
   xmlns:sodipodi="http://sodipodi.sourceforge.net/DTD/sodipodi-0.dtd"
   xmlns="http://www.w3.org/2000/svg"
   xmlns:svg="http://www.w3.org/2000/svg"
   xmlns:rdf="http://www.w3.org/1999/02/22-rdf-syntax-ns#"
   xmlns:cc="http://creativecommons.org/ns#"
   xmlns:dc="http://purl.org/dc/elements/1.1/"
   xmlns:a="http://ns.adobe.com/AdobeSVGViewerExtensions/3.0/"><g
   aria-label="Mayor energía"
   id="text533"
   style="font-size:18.6667px;line-height:1.25;fill:#4477aa"><path
     d="m 319.43882,16.965543 q -0.24266,0 -0.392,-0.056 -0.14933,-0.03733 -0.14933,-0.149334 0,-0.130667 0.14933,-0.205333 0.14934,-0.07467 0.46667,-0.130667 0.46667,-0.09333 0.76533,-0.448001 0.29867,-0.354667 0.39201,-1.008002 0.224,-1.680003 0.392,-3.192006 0.168,-1.530669 0.26133,-2.7440046 0.112,-1.2320022 0.112,-2.0160036 0,-0.1493336 0,-0.3173339 0,-0.1680004 -0.0187,-0.2986673 -0.0187,-0.1493336 -0.056,-0.2986672 -0.0373,-0.1680003 -0.224,-0.3173339 -0.336,-0.2800005 -0.65333,-0.373334 -0.31734,-0.1120002 -0.74667,-0.186667 -0.18667,-0.037333 -0.29867,-0.1306669 -0.112,-0.1120002 -0.112,-0.2426671 0,-0.1493336 0.168,-0.1680003 0.18667,-0.037333 0.46667,-0.037333 0.18667,0 0.56,0.018667 0.392,0.018667 0.84,0.056 0.448,0.037333 0.82134,0.056 0.392,0.018667 0.57867,0.018667 0.13066,0 0.224,0.074667 0.0933,0.074667 0.13066,0.2240004 0.0933,0.3360006 0.18667,0.7093346 0.0933,0.373334 0.224,0.7280013 l 2.94934,7.4853465 q 0.056,0.130667 0.20533,0.168001 0.14934,0.01867 0.224,-0.112001 l 3.67734,-7.6533467 q 0.0933,-0.3173339 0.18667,-0.7093346 0.0933,-0.3920007 0.14933,-0.6906679 0.056,-0.2426671 0.18667,-0.2426671 h 0.672 q 0.56,0 1.176,-0.074667 0.63467,-0.074667 0.95201,-0.074667 0.0933,0 0.24266,0.037333 0.14934,0.018667 0.14934,0.1493336 0,0.1306669 -0.112,0.2053337 -0.0933,0.074667 -0.37334,0.186667 -0.24266,0.093333 -0.54133,0.2053337 -0.29867,0.1120002 -0.56,0.2240004 -0.18667,0.074667 -0.31734,0.2613338 -0.13066,0.1680003 -0.13066,0.373334 0,1.3066691 0.0373,2.4640045 0.056,1.1386687 0.112,2.2026706 0.056,1.045335 0.13067,2.072004 0.0747,1.026668 0.13066,2.09067 0.0373,0.578668 0.37334,0.896002 0.336,0.298667 1.02667,0.429334 0.31733,0.056 0.46666,0.130667 0.14934,0.07467 0.14934,0.205333 0,0.112001 -0.14934,0.149334 -0.14933,0.056 -0.392,0.056 -0.504,0 -0.84,-0.03733 -0.31733,-0.01867 -0.616,-0.03733 -0.29867,-0.01867 -0.728,-0.01867 -0.37334,0 -0.63467,0.01867 -0.24267,0.01867 -0.54133,0.03733 -0.28,0.03733 -0.784,0.03733 -0.24267,0 -0.39201,-0.056 -0.14933,-0.03733 -0.14933,-0.149334 0,-0.130667 0.14933,-0.205333 0.14934,-0.09333 0.46667,-0.130667 0.54134,-0.07467 0.74667,-0.373334 0.20533,-0.317334 0.20533,-0.970669 0,-1.344002 -0.0373,-2.426671 -0.0187,-1.082668 -0.0747,-2.128004 -0.056,-1.0640013 -0.112,-2.3146702 -0.0187,-0.2053337 -0.112,-0.186667 -0.0933,0 -0.18666,0.186667 l -4.29334,8.7546822 q -0.0373,0.09333 -0.16801,0.09333 -0.13066,0.01867 -0.168,-0.112001 -0.728,-2.184004 -1.568,-4.293341 -0.82133,-2.128004 -1.86667,-4.5733411 -0.0373,-0.093334 -0.13067,-0.093334 -0.0933,0 -0.112,0.093334 -0.168,1.306669 -0.31733,2.4080041 -0.13067,1.082669 -0.20533,2.146671 -0.0747,1.064001 -0.0747,2.333337 0,0.504001 0.31733,0.933335 0.31734,0.410668 0.89601,0.522668 0.31733,0.056 0.46666,0.130667 0.14934,0.07467 0.14934,0.205333 0,0.112001 -0.14934,0.149334 -0.14933,0.056 -0.392,0.056 -0.504,0 -0.76533,-0.03733 -0.24267,-0.01867 -0.448,-0.03733 -0.18667,-0.01867 -0.54134,-0.01867 -0.336,0 -0.52266,0.01867 -0.18667,0.01867 -0.42934,0.03733 -0.24267,0.03733 -0.74667,0.03733 z"
     style="font-family:'EB Garamond';-inkscape-font-specification:'EB Garamond';text-align:center;text-anchor:middle"
     id="path1244" /><path
     d="m 337.17216,17.133543 q -0.336,0 -0.69067,-0.261333 -0.336,-0.261334 -0.57866,-0.634668 -0.224,-0.373334 -0.224,-0.709335 0,-0.597334 0.31733,-0.933335 0.31733,-0.336001 1.008,-0.616001 l 1.90401,-0.784001 q 0.37333,-0.149334 0.42933,-0.261334 0.0747,-0.112 0.0933,-0.485334 l 0.0373,-1.194669 q 0.0187,-0.485334 -0.28,-0.840002 -0.28,-0.354667 -0.82134,-0.354667 -0.28,0 -0.56,0.09333 -0.28,0.09333 -0.46667,0.242668 -0.112,0.07467 -0.14933,0.224 -0.0373,0.149334 -0.0373,0.317334 0,0.07467 0,0.168 0.0187,0.09333 0.0187,0.168 0,0.09333 -0.24266,0.261334 -0.22401,0.149334 -0.52267,0.280001 -0.28,0.112 -0.46667,0.112 -0.0933,0 -0.14933,-0.03733 -0.056,-0.056 -0.056,-0.130667 0,-0.298668 0.18666,-0.634668 0.20534,-0.354667 0.56,-0.653335 0.42934,-0.392 0.93334,-0.6906676 0.504,-0.2986672 0.98933,-0.4666675 0.48534,-0.1680003 0.85867,-0.1680003 0.672,0 1.10134,0.4853342 0.448,0.4666672 0.42933,1.1760022 l -0.0933,4.480008 q -0.0187,0.392001 0.168,0.634668 0.20533,0.242667 0.504,0.242667 0.46667,0 0.69067,-0.205334 0.0933,-0.09333 0.14933,-0.09333 0.0933,0 0.14934,0.056 0.056,0.056 0.056,0.149333 0,0.205334 -0.20534,0.410668 -0.29867,0.298667 -0.65333,0.466667 -0.336,0.186667 -0.63467,0.186667 -0.85867,0 -1.36267,-0.970668 h -0.056 q -0.616,0.504001 -1.176,0.728001 -0.56,0.242667 -1.15734,0.242667 z m 0.87734,-0.896001 q 0.37333,0 0.63467,-0.112 0.26133,-0.130667 0.46666,-0.336001 0.0933,-0.09333 0.14934,-0.242667 0.0747,-0.168 0.0933,-0.522668 l 0.0373,-0.914668 q 0.0187,-0.205334 -0.0187,-0.298667 -0.0373,-0.09333 -0.14934,-0.09333 -0.0373,0 -0.13066,0.01867 -0.0933,0.01867 -0.24267,0.07467 -0.98934,0.354667 -1.38134,0.746668 -0.37333,0.373334 -0.37333,0.690668 0,0.485334 0.28,0.746668 0.29867,0.242667 0.63467,0.242667 z"
     style="font-family:'EB Garamond';-inkscape-font-specification:'EB Garamond';text-align:center;text-anchor:middle"
     id="path1246" /><path
     d="m 343.44414,22.192219 q -0.35467,0 -0.65334,-0.186667 -0.29867,-0.168 -0.29867,-0.578668 0,-0.336 0.14934,-0.597334 0.168,-0.242667 0.46667,-0.242667 0.20533,0 0.392,0.056 0.20533,0.056 0.35466,0.056 0.112,0 0.18667,-0.056 0.0933,-0.03733 0.168,-0.149334 0.20533,-0.336 0.46667,-0.840001 0.28,-0.504001 0.56,-1.138669 0.29867,-0.634668 0.56,-1.344002 0.056,-0.168001 0.056,-0.429334 0,-0.149334 -0.0187,-0.280001 -0.0187,-0.149333 -0.056,-0.261334 l -2.16533,-5.469343 q -0.13067,-0.336 -0.35467,-0.578668 -0.20533,-0.2613334 -0.48534,-0.3360002 -0.14933,-0.056 -0.29866,-0.1306669 -0.13067,-0.074667 -0.13067,-0.2053337 0,-0.1120002 0.13067,-0.1306669 0.14933,-0.037333 0.24266,-0.037333 0.37334,0 0.54134,0.018667 0.18667,0.018667 0.336,0.056 0.168,0.018667 0.48533,0.018667 0.336,0 0.504,-0.018667 0.16801,-0.037333 0.35467,-0.056 0.18667,-0.018667 0.56,-0.018667 0.112,0 0.24267,0.056 0.13067,0.037333 0.13067,0.1493336 0,0.1306669 -0.20534,0.2613338 -0.18666,0.1120002 -0.336,0.1493336 -0.18666,0.056 -0.28,0.2053337 -0.0933,0.130667 -0.0933,0.392 0,0.112001 0.056,0.280001 0.056,0.149334 0.0933,0.242667 l 1.51201,3.73334 q 0.0373,0.112 0.112,0.112 0.056,0 0.0933,-0.112 l 1.288,-3.416006 q 0.056,-0.130667 0.0933,-0.336001 0.056,-0.224 0.056,-0.354667 0,-0.354667 -0.112,-0.485334 -0.0933,-0.149334 -0.26133,-0.2240003 -0.14933,-0.074667 -0.35467,-0.186667 -0.18666,-0.1306669 -0.18666,-0.2613338 0,-0.1120002 0.13066,-0.1493336 0.14934,-0.056 0.24267,-0.056 0.26133,0 0.52267,0.056 0.28,0.037333 0.80267,0.037333 0.35466,0 0.504,-0.018667 0.168,-0.037333 0.28,-0.056 0.112,-0.018667 0.31733,-0.018667 0.0933,0 0.224,0.037333 0.14934,0.018667 0.14934,0.1306669 0,0.1306669 -0.14934,0.2053337 -0.13067,0.074667 -0.28,0.1306669 -0.28,0.074667 -0.59733,0.4480012 -0.31734,0.354667 -0.504,0.802668 l -2.53868,6.048011 q -0.0187,0.056 -0.20533,0.485334 -0.168,0.429334 -0.42933,1.064002 -0.26134,0.634668 -0.57867,1.362669 -0.29867,0.728001 -0.57867,1.400002 -0.168,0.373334 -0.48533,0.560001 -0.31734,0.205334 -0.728,0.205334 z"
     style="font-family:'EB Garamond';-inkscape-font-specification:'EB Garamond';text-align:center;text-anchor:middle"
     id="path1248" /><path
     d="m 354.32679,17.133543 q -1.04534,0 -1.88534,-0.485334 -0.84,-0.485334 -1.344,-1.325336 -0.48533,-0.858668 -0.48533,-1.941336 0,-0.784002 0.29866,-1.53067 0.31734,-0.746668 0.87734,-1.362669 0.56,-0.6160011 1.30667,-0.9706684 0.74667,-0.373334 1.60533,-0.373334 1.08267,0 1.94134,0.5226676 0.87734,0.5226678 1.38134,1.3813358 0.52266,0.840002 0.52266,1.848003 0,1.082669 -0.48533,2.053337 -0.46667,0.970669 -1.4,1.58667 -0.93334,0.597334 -2.33334,0.597334 z m 0.392,-0.560001 q 0.63467,0 1.13867,-0.242667 0.504,-0.242667 0.784,-0.784001 0.224,-0.429334 0.29867,-1.045335 0.0747,-0.616002 0.0747,-1.157336 0,-0.896001 -0.336,-1.717336 -0.31733,-0.840002 -0.91466,-1.362669 -0.57867,-0.5413347 -1.38134,-0.5413347 -0.504,0 -0.91467,0.1680003 -0.392,0.1493334 -0.728,0.5786674 -0.37333,0.466668 -0.48533,1.138669 -0.112,0.672001 -0.112,1.344002 0,0.914669 0.336,1.75467 0.336,0.821335 0.91466,1.344003 0.57867,0.522667 1.32534,0.522667 z"
     style="font-family:'EB Garamond';-inkscape-font-specification:'EB Garamond';text-align:center;text-anchor:middle"
     id="path1250" /><path
     d="m 360.11345,16.92821 q -0.18667,0 -0.28,-0.056 -0.0933,-0.03733 -0.0933,-0.149334 0,-0.149334 0.112,-0.186667 0.112,-0.056 0.31734,-0.112 0.35466,-0.09333 0.52266,-0.261334 0.18667,-0.186667 0.18667,-0.448001 v -4.01334 q 0,-0.504001 -0.14933,-0.877335 -0.14934,-0.373334 -0.616,-0.466668 -0.0747,-0.01867 -0.13067,-0.09333 -0.056,-0.07467 -0.056,-0.149334 0,-0.186667 0.168,-0.2240004 0.48533,-0.1493336 1.008,-0.4293341 0.54134,-0.2986672 0.84,-0.4853342 0.112,-0.074667 0.168,-0.093333 0.0747,-0.037333 0.112,-0.037333 0.0933,0 0.0933,0.1306669 0,0.056 -0.0187,0.2800005 0,0.2240004 -0.0187,0.5226676 0,0.2986677 -0.0187,0.5973347 0,0.03733 0.0373,0.03733 0.29867,-0.373334 0.65333,-0.6533344 0.37334,-0.2800005 0.74667,-0.4480008 0.392,-0.1680003 0.74667,-0.1680003 0.392,0 0.63467,0.1680003 0.26133,0.1680003 0.26133,0.4293341 0,0.186667 -0.112,0.4106671 -0.0933,0.224001 -0.26133,0.392001 -0.168,0.168 -0.35467,0.168 -0.112,0 -0.24267,-0.03733 -0.13066,-0.056 -0.28,-0.130667 -0.14933,-0.056 -0.29866,-0.112 -0.14934,-0.056 -0.29867,-0.056 -0.448,0 -0.87734,0.317334 -0.41066,0.317334 -0.41066,1.250669 v 3.770673 q 0,0.242667 0.26133,0.410668 0.26133,0.149333 0.728,0.298667 0.20534,0.056 0.31734,0.112 0.112,0.056 0.112,0.186667 0,0.205334 -0.37334,0.205334 -0.56,0 -0.85867,-0.056 -0.28,-0.03733 -0.76533,-0.03733 -0.31734,0 -0.52267,0.01867 -0.18667,0.01867 -0.41067,0.03733 -0.20533,0.03733 -0.57866,0.03733 z"
     style="font-family:'EB Garamond';-inkscape-font-specification:'EB Garamond';text-align:center;text-anchor:middle"
     id="path1252" /><path
     d="m 373.14278,17.15221 q -1.02667,0 -1.79201,-0.504001 -0.76533,-0.504001 -1.19467,-1.418669 -0.42933,-0.933335 -0.42933,-2.146671 0,-1.082668 0.48533,-1.960003 0.504,-0.896002 1.32534,-1.4373361 0.82133,-0.5413343 1.792,-0.5413343 0.74667,0 1.32534,0.2986672 0.57867,0.2986672 0.896,0.8400012 0.336,0.522668 0.336,1.213336 0,0.578668 -0.56,0.578668 h -3.93867 q -0.26134,0 -0.37334,0.149333 -0.0933,0.130667 -0.0933,0.541334 0,0.896002 0.392,1.64267 0.392,0.728001 1.04533,1.176002 0.65334,0.429334 1.43734,0.429334 0.56,0 1.008,-0.205333 0.46667,-0.224001 0.82134,-0.634668 0.0747,-0.09333 0.112,-0.112 0.0373,-0.03733 0.0933,-0.03733 0.14933,0 0.14933,0.186667 0,0.354668 -0.336,0.784002 -0.28,0.354667 -0.672,0.616001 -0.392,0.261334 -0.85867,0.392 -0.46666,0.149334 -0.97066,0.149334 z m -1.71734,-5.65601 h 1.69867 q 0.448,0 0.76533,-0.01867 0.31734,-0.01867 0.616,-0.07467 0.0933,-0.01867 0.112,-0.112 0.0373,-0.112 0.0373,-0.298667 0,-0.541334 -0.48534,-0.914668 -0.46666,-0.3920011 -1.12,-0.3920011 -0.42933,0 -0.85867,0.2613338 -0.42933,0.2426673 -0.70933,0.6160013 -0.28,0.373334 -0.28,0.746668 0,0.186667 0.224,0.186667 z"
     style="font-family:'EB Garamond';-inkscape-font-specification:'EB Garamond';text-align:center;text-anchor:middle"
     id="path1254" /><path
     d="m 377.26811,16.92821 q -0.168,0 -0.28,-0.056 -0.0933,-0.03733 -0.0933,-0.149334 0,-0.149334 0.112,-0.186667 0.112,-0.056 0.31734,-0.112 0.28,-0.07467 0.54133,-0.205334 0.26133,-0.130667 0.26133,-0.504001 v -4.01334 q 0,-0.504001 -0.112,-0.858669 -0.0933,-0.354667 -0.57866,-0.485334 -0.0747,-0.03733 -0.13067,-0.07467 -0.056,-0.056 -0.056,-0.168 0,-0.2053337 0.168,-0.2240004 0.65333,-0.1680003 1.064,-0.4106674 0.41067,-0.2426671 0.80267,-0.5413343 0.056,-0.037333 0.0933,-0.056 0.056,-0.037333 0.112,-0.037333 0.0373,0 0.056,0.037333 0.0373,0.037333 0.0373,0.093333 0,0.1306669 -0.056,0.5413343 -0.0373,0.3920007 -0.0373,0.6533348 0,0.07467 0,0.149334 0.0187,0.056 0.0373,0.07467 0.65333,-0.616002 1.38133,-0.9333359 0.74667,-0.3173339 1.62401,-0.3173339 0.91466,0 1.512,0.746668 0.59733,0.7466688 0.59733,1.8480038 v 3.976007 q 0,0.373334 0.26134,0.504001 0.26133,0.112 0.54133,0.205334 0.14933,0.056 0.28,0.130667 0.14933,0.056 0.14933,0.205333 0,0.112001 -0.13066,0.130667 -0.13067,0.03733 -0.24267,0.03733 -0.37333,0 -0.57867,-0.03733 -0.20533,-0.01867 -0.392,-0.03733 -0.18666,-0.01867 -0.52267,-0.01867 -0.31733,0 -0.52266,0.01867 -0.20534,0.01867 -0.42934,0.03733 -0.20533,0.03733 -0.57866,0.03733 -0.0933,0 -0.24267,-0.03733 -0.13067,-0.01867 -0.13067,-0.130667 0,-0.149333 0.13067,-0.205333 0.14933,-0.07467 0.29867,-0.130667 0.28,-0.09333 0.54133,-0.205334 0.26133,-0.130667 0.26133,-0.504001 v -3.920007 q 0,-0.821335 -0.46666,-1.269336 -0.448,-0.466667 -1.21334,-0.485334 -0.672,0 -1.176,0.224001 -0.504,0.205333 -0.896,0.522667 -0.0747,0.07467 -0.112,0.205334 -0.0373,0.112 -0.0373,0.224 v 4.498675 q 0,0.373334 0.26134,0.504001 0.26133,0.130667 0.54133,0.205334 0.42934,0.112 0.42934,0.298667 0,0.112 -0.0933,0.149334 -0.0933,0.056 -0.28,0.056 -0.37333,0 -0.59733,-0.03733 -0.20534,-0.01867 -0.392,-0.03733 -0.18667,-0.01867 -0.52267,-0.01867 -0.31734,0 -0.52267,0.01867 -0.18667,0.01867 -0.41067,0.03733 -0.20533,0.03733 -0.57866,0.03733 z"
     style="font-family:'EB Garamond';-inkscape-font-specification:'EB Garamond';text-align:center;text-anchor:middle"
     id="path1256" /><path
     d="m 390.27879,17.15221 q -1.02667,0 -1.792,-0.504001 -0.76534,-0.504001 -1.19467,-1.418669 -0.42933,-0.933335 -0.42933,-2.146671 0,-1.082668 0.48533,-1.960003 0.504,-0.896002 1.32534,-1.4373361 0.82133,-0.5413343 1.792,-0.5413343 0.74667,0 1.32534,0.2986672 0.57866,0.2986672 0.896,0.8400012 0.336,0.522668 0.336,1.213336 0,0.578668 -0.56,0.578668 h -3.93868 q -0.26133,0 -0.37333,0.149333 -0.0933,0.130667 -0.0933,0.541334 0,0.896002 0.392,1.64267 0.392,0.728001 1.04533,1.176002 0.65334,0.429334 1.43734,0.429334 0.56,0 1.008,-0.205333 0.46667,-0.224001 0.82133,-0.634668 0.0747,-0.09333 0.112,-0.112 0.0373,-0.03733 0.0933,-0.03733 0.14933,0 0.14933,0.186667 0,0.354668 -0.336,0.784002 -0.28,0.354667 -0.672,0.616001 -0.392,0.261334 -0.85867,0.392 -0.46667,0.149334 -0.97067,0.149334 z m -1.71733,-5.65601 h 1.69867 q 0.448,0 0.76533,-0.01867 0.31733,-0.01867 0.616,-0.07467 0.0933,-0.01867 0.112,-0.112 0.0373,-0.112 0.0373,-0.298667 0,-0.541334 -0.48534,-0.914668 -0.46667,-0.3920011 -1.12,-0.3920011 -0.42934,0 -0.85867,0.2613338 -0.42933,0.2426673 -0.70933,0.6160013 -0.28,0.373334 -0.28,0.746668 0,0.186667 0.224,0.186667 z"
     style="font-family:'EB Garamond';-inkscape-font-specification:'EB Garamond';text-align:center;text-anchor:middle"
     id="path1258" /><path
     d="m 394.49745,16.92821 q -0.18666,0 -0.28,-0.056 -0.0933,-0.03733 -0.0933,-0.149334 0,-0.149334 0.112,-0.186667 0.112,-0.056 0.31733,-0.112 0.35467,-0.09333 0.52267,-0.261334 0.18667,-0.186667 0.18667,-0.448001 v -4.01334 q 0,-0.504001 -0.14934,-0.877335 -0.14933,-0.373334 -0.616,-0.466668 -0.0747,-0.01867 -0.13066,-0.09333 -0.056,-0.07467 -0.056,-0.149334 0,-0.186667 0.168,-0.2240004 0.48533,-0.1493336 1.008,-0.4293341 0.54133,-0.2986672 0.84,-0.4853342 0.112,-0.074667 0.168,-0.093333 0.0747,-0.037333 0.112,-0.037333 0.0933,0 0.0933,0.1306669 0,0.056 -0.0187,0.2800005 0,0.2240004 -0.0187,0.5226676 0,0.2986677 -0.0187,0.5973347 0,0.03733 0.0373,0.03733 0.29866,-0.373334 0.65333,-0.6533344 0.37333,-0.2800005 0.74667,-0.4480008 0.392,-0.1680003 0.74667,-0.1680003 0.392,0 0.63466,0.1680003 0.26134,0.1680003 0.26134,0.4293341 0,0.186667 -0.112,0.4106671 -0.0933,0.224001 -0.26134,0.392001 -0.168,0.168 -0.35466,0.168 -0.112,0 -0.24267,-0.03733 -0.13067,-0.056 -0.28,-0.130667 -0.14933,-0.056 -0.29867,-0.112 -0.14933,-0.056 -0.29866,-0.056 -0.44801,0 -0.87734,0.317334 -0.41067,0.317334 -0.41067,1.250669 v 3.770673 q 0,0.242667 0.26134,0.410668 0.26133,0.149333 0.728,0.298667 0.20533,0.056 0.31733,0.112 0.112,0.056 0.112,0.186667 0,0.205334 -0.37333,0.205334 -0.56,0 -0.85867,-0.056 -0.28,-0.03733 -0.76533,-0.03733 -0.31734,0 -0.52267,0.01867 -0.18667,0.01867 -0.41067,0.03733 -0.20533,0.03733 -0.57867,0.03733 z"
     style="font-family:'EB Garamond';-inkscape-font-specification:'EB Garamond';text-align:center;text-anchor:middle"
     id="path1260" /><path
     d="m 403.45746,22.285553 q -1.58667,0 -2.52,-0.616001 -0.91467,-0.597335 -0.91467,-1.624003 0,-0.485335 0.14933,-0.821335 0.14934,-0.336001 0.46667,-0.578668 0.26134,-0.224 0.69067,-0.578668 0.448,-0.336 0.91467,-0.709334 l 0.784,0.03733 q -0.896,0.578668 -1.25067,1.101335 -0.35467,0.522668 -0.35467,1.269336 0,0.746668 0.65334,1.250669 0.672,0.522668 1.64267,0.522668 1.10133,0 1.77333,-0.504001 0.46667,-0.354668 0.728,-0.933335 0.26134,-0.560001 0.26134,-1.194669 0,-0.410668 -0.29867,-0.690668 -0.28,-0.261334 -0.896,-0.429334 -0.616,-0.168 -1.60534,-0.224001 -1.75467,-0.130666 -2.44533,-0.466667 -0.67201,-0.336001 -0.67201,-1.045335 0,-0.186667 0.0933,-0.336001 0.112,-0.168 0.336,-0.354667 0.42933,-0.336001 0.63467,-0.485334 0.20533,-0.168001 0.29866,-0.280001 0.112,-0.112 0.20534,-0.28 l 0.63467,0.317334 q -0.41067,0.149333 -0.69067,0.410667 -0.28,0.242667 -0.28,0.448001 0,0.261334 0.28,0.466667 0.28,0.186667 0.82133,0.298667 0.54134,0.112001 1.32534,0.168001 1.71733,0.09333 2.55734,0.560001 0.84,0.466667 0.84,1.325335 0,0.728002 -0.37334,1.41867 -0.35466,0.709334 -0.952,1.288002 -0.59733,0.578668 -1.344,0.914668 -0.728,0.354668 -1.49334,0.354668 z m 0.224,-8.045348 q 0.70934,0 1.17601,-0.709335 0.46666,-0.728001 0.46666,-1.792003 0,-0.541334 -0.26133,-1.008002 -0.24267,-0.485334 -0.65334,-0.7653346 -0.392,-0.2986672 -0.85866,-0.2986672 -0.42934,0 -0.82134,0.3173339 -0.37333,0.2986669 -0.616,0.7840019 -0.224,0.485334 -0.224,1.064001 0,0.653335 0.24267,1.213336 0.24266,0.541334 0.65333,0.877335 0.41067,0.317334 0.896,0.317334 z m -0.112,0.653334 q -0.76533,0 -1.456,-0.392 -0.69067,-0.392001 -1.13867,-1.026669 -0.42933,-0.653334 -0.42933,-1.418669 0,-0.877335 0.448,-1.53067 0.46667,-0.6720008 1.21333,-1.0453348 0.74667,-0.373334 1.58667,-0.373334 0.54134,0 0.93334,0.1493336 0.41067,0.1306669 0.80267,0.2426671 0.448,0.1306669 0.70933,0.1680003 0.26134,0.018667 0.54134,0.018667 0.224,0 0.56,-0.018667 0.336,-0.037333 0.46666,-0.037333 0.24267,0 0.24267,0.2800005 0,0.1680003 -0.18667,0.3546673 -0.0933,0.09333 -0.14933,0.09333 h -0.504 q -0.504,0 -0.56,0.149334 -0.0187,0.07467 -0.056,0.224 -0.0187,0.130667 -0.0373,0.298667 -0.0187,0.168001 -0.0187,0.336001 0,0.952002 -0.41067,1.75467 -0.41067,0.802668 -1.08267,1.288002 -0.672,0.485334 -1.47467,0.485334 z"
     style="font-family:'EB Garamond';-inkscape-font-specification:'EB Garamond';text-align:center;text-anchor:middle"
     id="path1262" /><path
     d="m 408.75879,16.92821 q -0.168,0 -0.28,-0.056 -0.0933,-0.03733 -0.0933,-0.149334 0,-0.149334 0.13067,-0.205334 0.14933,-0.056 0.29866,-0.09333 0.392,-0.09333 0.59734,-0.224001 0.20533,-0.149333 0.20533,-0.485334 V 11.6642 q 0,-0.504001 -0.18666,-0.896001 -0.168,-0.392001 -0.65334,-0.466668 -0.0933,-0.01867 -0.14933,-0.07467 -0.0373,-0.056 -0.0373,-0.168 0,-0.2053338 0.168,-0.2240005 0.74667,-0.1680003 1.23201,-0.4480008 0.48533,-0.2986672 0.728,-0.4853342 0.168,-0.1306669 0.26133,-0.1306669 0.112,0 0.112,0.093333 0,0.1493336 -0.056,0.5973344 -0.0373,0.4293341 -0.0747,0.970668 -0.0373,0.522668 -0.0373,0.952002 v 4.330674 q 0,0.317334 0.20534,0.466668 0.224,0.149333 0.59733,0.242667 0.14933,0.03733 0.28,0.09333 0.14933,0.056 0.14933,0.205335 0,0.205334 -0.37333,0.205334 -0.35467,0 -0.57867,-0.03733 -0.20533,-0.01867 -0.41067,-0.03733 -0.18666,-0.01867 -0.52266,-0.01867 -0.31734,0 -0.52267,0.01867 -0.20533,0.01867 -0.41067,0.03733 -0.20533,0.03733 -0.57867,0.03733 z m 1.04534,-8.5866825 q -0.14933,0 -0.14933,-0.1680003 0,-0.056 0.0187,-0.1306669 0.0187,-0.093333 0.056,-0.2053337 0.13067,-0.3546673 0.41067,-0.8960016 0.29867,-0.5600011 0.57867,-1.0826687 0.29866,-0.5226676 0.448,-0.7653347 0.0933,-0.1493336 0.224,-0.2426671 0.14933,-0.093333 0.28,-0.093333 0.35467,0 0.63467,0.093333 0.28,0.093333 0.28,0.2986672 0,0.1120002 -0.056,0.186667 -0.0373,0.074667 -0.13067,0.2053337 -0.224,0.3173339 -0.616,0.8026681 -0.37333,0.4666676 -0.76534,0.9146684 -0.392,0.4480008 -0.63466,0.6906679 -0.392,0.3920007 -0.57867,0.3920007 z"
     style="font-family:'EB Garamond';-inkscape-font-specification:'EB Garamond';text-align:center;text-anchor:middle"
     id="path1264" /><path
     d="m 414.69479,17.133543 q -0.336,0 -0.69067,-0.261333 -0.336,-0.261334 -0.57867,-0.634668 -0.224,-0.373334 -0.224,-0.709335 0,-0.597334 0.31734,-0.933335 0.31733,-0.336001 1.008,-0.616001 l 1.904,-0.784001 q 0.37334,-0.149334 0.42934,-0.261334 0.0747,-0.112 0.0933,-0.485334 l 0.0373,-1.194669 q 0.0187,-0.485334 -0.28,-0.840002 -0.28,-0.354667 -0.82133,-0.354667 -0.28,0 -0.56,0.09333 -0.28,0.09333 -0.46667,0.242668 -0.112,0.07467 -0.14933,0.224 -0.0373,0.149334 -0.0373,0.317334 0,0.07467 0,0.168 0.0187,0.09333 0.0187,0.168 0,0.09333 -0.24267,0.261334 -0.224,0.149334 -0.52267,0.280001 -0.28,0.112 -0.46666,0.112 -0.0933,0 -0.14934,-0.03733 -0.056,-0.056 -0.056,-0.130667 0,-0.298668 0.18667,-0.634668 0.20533,-0.354667 0.56,-0.653335 0.42934,-0.392 0.93334,-0.6906676 0.504,-0.2986672 0.98933,-0.4666675 0.48534,-0.1680003 0.85867,-0.1680003 0.672,0 1.10134,0.4853342 0.448,0.4666672 0.42933,1.1760022 l -0.0933,4.480008 q -0.0187,0.392001 0.168,0.634668 0.20533,0.242667 0.504,0.242667 0.46666,0 0.69066,-0.205334 0.0933,-0.09333 0.14934,-0.09333 0.0933,0 0.14933,0.056 0.056,0.056 0.056,0.149333 0,0.205334 -0.20533,0.410668 -0.29867,0.298667 -0.65334,0.466667 -0.336,0.186667 -0.63466,0.186667 -0.85867,0 -1.36267,-0.970668 h -0.056 q -0.616,0.504001 -1.17601,0.728001 -0.56,0.242667 -1.15733,0.242667 z m 0.87733,-0.896001 q 0.37334,0 0.63467,-0.112 0.26134,-0.130667 0.46667,-0.336001 0.0933,-0.09333 0.14933,-0.242667 0.0747,-0.168 0.0933,-0.522668 l 0.0373,-0.914668 q 0.0187,-0.205334 -0.0187,-0.298667 -0.0373,-0.09333 -0.14933,-0.09333 -0.0373,0 -0.13067,0.01867 -0.0933,0.01867 -0.24266,0.07467 -0.98934,0.354667 -1.38134,0.746668 -0.37333,0.373334 -0.37333,0.690668 0,0.485334 0.28,0.746668 0.29866,0.242667 0.63466,0.242667 z"
     style="font-family:'EB Garamond';-inkscape-font-specification:'EB Garamond';text-align:center;text-anchor:middle"
     id="path1266" /></g><metadata
   id="metadata263"><rdf:RDF><cc:Work
       rdf:about=""><dc:format>image/svg+xml</dc:format><dc:type
         rdf:resource="http://purl.org/dc/dcmitype/StillImage" /></cc:Work></rdf:RDF></metadata><sodipodi:namedview
   pagecolor="#ffffff"
   bordercolor="#666666"
   borderopacity="1"
   objecttolerance="10"
   gridtolerance="10"
   guidetolerance="10"
   inkscape:pageopacity="0"
   inkscape:pageshadow="2"
   inkscape:window-width="1280"
   inkscape:window-height="800"
   id="namedview261"
   showgrid="false"
   inkscape:zoom="1.313924"
   inkscape:cx="258.00579"
   inkscape:cy="191.03084"
   inkscape:window-x="1920"
   inkscape:window-y="213"
   inkscape:window-maximized="0"
   inkscape:current-layer="svg2"
   inkscape:document-rotation="0"
   fit-margin-top="0"
   fit-margin-left="0"
   fit-margin-right="0"
   fit-margin-bottom="0"
   inkscape:showpageshadow="2"
   inkscape:pagecheckerboard="0"
   inkscape:deskcolor="#d1d1d1" />
	<defs
   id="defs4">
	
		<defs
   id="defs8">
			<filter
   height="17.319"
   width="17.32"
   y="168.448"
   x="97.111"
   filterUnits="userSpaceOnUse"
   id="Adobe_OpacityMaskFilter"
   color-interpolation-filters="sRGB">
				<feColorMatrix
   id="feColorMatrix11"
   values="1 0 0 0 0  0 1 0 0 0  0 0 1 0 0  0 0 0 1 0"
   type="matrix" />
			</filter>
		</defs>
		<mask
   id="XMLID_1_"
   height="17.319"
   width="17.32"
   y="168.448"
   x="97.111"
   maskUnits="userSpaceOnUse">
			<g
   id="g14"
   style="filter:url(#Adobe_OpacityMaskFilter)">
				
					<radialGradient
   gradientUnits="userSpaceOnUse"
   fy="177.1084"
   fx="105.7715"
   r="8.6594"
   cy="177.1084"
   cx="105.7715"
   id="XMLID_2_">
					<stop
   id="stop17"
   style="stop-color:#FFFFFF"
   offset="0" />
					<stop
   id="stop19"
   style="stop-color:#FAFAFA"
   offset="0.1019" />
					<stop
   id="stop21"
   style="stop-color:#EBEBEB"
   offset="0.2256" />
					<stop
   id="stop23"
   style="stop-color:#D2D2D2"
   offset="0.3606" />
					<stop
   id="stop25"
   style="stop-color:#B0B0B0"
   offset="0.5037" />
					<stop
   id="stop27"
   style="stop-color:#848484"
   offset="0.6532" />
					<stop
   id="stop29"
   style="stop-color:#4E4E4E"
   offset="0.8081" />
					<stop
   id="stop31"
   style="stop-color:#0F0F0F"
   offset="0.9645" />
					<stop
   id="stop33"
   style="stop-color:#000000"
   offset="1" />
					<a:midPointStop
   style="stop-color:#FFFFFF"
   offset="0" />
					<a:midPointStop
   style="stop-color:#FFFFFF"
   offset="0.6667" />
					<a:midPointStop
   style="stop-color:#000000"
   offset="1" />
				</radialGradient>
				<circle
   id="circle35"
   r="8.6599998"
   cy="177.10699"
   cx="105.771"
   style="fill:url(#XMLID_2_)" /> 
			</g>
		</mask>
		 
		<defs
   id="defs39">
			<filter
   height="17.32"
   width="17.32"
   y="201.66499"
   x="80.237999"
   filterUnits="userSpaceOnUse"
   id="Adobe_OpacityMaskFilter_1_"
   color-interpolation-filters="sRGB">
				<feColorMatrix
   id="feColorMatrix42"
   values="1 0 0 0 0  0 1 0 0 0  0 0 1 0 0  0 0 0 1 0"
   type="matrix" />
			</filter>
		</defs>
		<mask
   id="XMLID_3_"
   height="17.32"
   width="17.32"
   y="201.665"
   x="80.238"
   maskUnits="userSpaceOnUse">
			<g
   id="g45"
   style="filter:url(#Adobe_OpacityMaskFilter_1_)">
				
					<radialGradient
   gradientUnits="userSpaceOnUse"
   fy="210.3252"
   fx="88.897499"
   r="8.6602001"
   cy="210.3252"
   cx="88.897499"
   id="XMLID_4_">
					<stop
   id="stop48"
   style="stop-color:#FFFFFF"
   offset="0" />
					<stop
   id="stop50"
   style="stop-color:#FAFAFA"
   offset="0.1019" />
					<stop
   id="stop52"
   style="stop-color:#EBEBEB"
   offset="0.2256" />
					<stop
   id="stop54"
   style="stop-color:#D2D2D2"
   offset="0.3606" />
					<stop
   id="stop56"
   style="stop-color:#B0B0B0"
   offset="0.5037" />
					<stop
   id="stop58"
   style="stop-color:#848484"
   offset="0.6532" />
					<stop
   id="stop60"
   style="stop-color:#4E4E4E"
   offset="0.8081" />
					<stop
   id="stop62"
   style="stop-color:#0F0F0F"
   offset="0.9645" />
					<stop
   id="stop64"
   style="stop-color:#000000"
   offset="1" />
					<a:midPointStop
   style="stop-color:#FFFFFF"
   offset="0" />
					<a:midPointStop
   style="stop-color:#FFFFFF"
   offset="0.6667" />
					<a:midPointStop
   style="stop-color:#000000"
   offset="1" />
				</radialGradient>
				<circle
   id="circle66"
   r="8.6599998"
   cy="210.325"
   cx="88.898003"
   style="fill:url(#XMLID_4_)" /> 
			</g>
		</mask>
		 
		 
		 
		<defs
   id="defs74">
			<filter
   height="23.093"
   width="23.093"
   y="119.376"
   x="112.31"
   filterUnits="userSpaceOnUse"
   id="Adobe_OpacityMaskFilter_2_"
   color-interpolation-filters="sRGB">
				<feColorMatrix
   id="feColorMatrix77"
   values="1 0 0 0 0  0 1 0 0 0  0 0 1 0 0  0 0 0 1 0"
   type="matrix" />
			</filter>
		</defs>
		<mask
   id="XMLID_5_"
   height="23.093"
   width="23.093"
   y="119.376"
   x="112.31"
   maskUnits="userSpaceOnUse">
			<g
   id="g80"
   style="filter:url(#Adobe_OpacityMaskFilter_2_)">
				
					<radialGradient
   gradientUnits="userSpaceOnUse"
   fy="130.9229"
   fx="123.8564"
   r="11.5466"
   cy="130.9229"
   cx="123.8564"
   id="XMLID_6_">
					<stop
   id="stop83"
   style="stop-color:#FFFFFF"
   offset="0" />
					<stop
   id="stop85"
   style="stop-color:#FAFAFA"
   offset="0.1019" />
					<stop
   id="stop87"
   style="stop-color:#EBEBEB"
   offset="0.2256" />
					<stop
   id="stop89"
   style="stop-color:#D2D2D2"
   offset="0.3606" />
					<stop
   id="stop91"
   style="stop-color:#B0B0B0"
   offset="0.5037" />
					<stop
   id="stop93"
   style="stop-color:#848484"
   offset="0.6532" />
					<stop
   id="stop95"
   style="stop-color:#4E4E4E"
   offset="0.8081" />
					<stop
   id="stop97"
   style="stop-color:#0F0F0F"
   offset="0.9645" />
					<stop
   id="stop99"
   style="stop-color:#000000"
   offset="1" />
					<a:midPointStop
   style="stop-color:#FFFFFF"
   offset="0" />
					<a:midPointStop
   style="stop-color:#FFFFFF"
   offset="0.6667" />
					<a:midPointStop
   style="stop-color:#000000"
   offset="1" />
				</radialGradient>
				<circle
   id="circle101"
   r="11.547"
   cy="130.923"
   cx="123.856"
   style="fill:url(#XMLID_6_)" /> 
			</g>
		</mask>
		 
		 
		
		
		
		
		
		
		
		
		
		
		
	




<filter
   inkscape:collect="always"
   style="color-interpolation-filters:sRGB"
   id="filter1610"
   x="-0.30000003"
   width="1.6000001"
   y="-0.30000003"
   height="1.6000001"><feGaussianBlur
     inkscape:collect="always"
     stdDeviation="2.1650001"
     id="feGaussianBlur1612" /></filter><filter
   inkscape:collect="always"
   style="color-interpolation-filters:sRGB"
   id="filter1614"
   x="-0.30000003"
   width="1.6000001"
   y="-0.30000003"
   height="1.6000001"><feGaussianBlur
     inkscape:collect="always"
     stdDeviation="2.1650001"
     id="feGaussianBlur1616" /></filter><filter
   inkscape:collect="always"
   style="color-interpolation-filters:sRGB"
   id="filter1618"
   x="-0.30000002"
   width="1.6"
   y="-0.30000002"
   height="1.6"><feGaussianBlur
     inkscape:collect="always"
     stdDeviation="2.8867502"
     id="feGaussianBlur1620" /></filter></defs>
	<circle
   style="fill:#228833;fill-opacity:1;filter:url(#filter1614)"
   id="circle37"
   r="8.6599998"
   cy="177.10699"
   cx="105.771"
   mask="url(#XMLID_1_)"
   transform="matrix(1.4561598,0,0,1.4571745,-4.4240911,-16.46549)" /><circle
   style="fill:#228833;fill-opacity:1;filter:url(#filter1610)"
   id="circle68"
   r="8.6599998"
   cy="210.325"
   cx="88.898003"
   mask="url(#XMLID_3_)"
   transform="matrix(1.4561598,0,0,1.4571745,-4.4240911,-16.46549)" /><ellipse
   style="fill:none;stroke:#ccbb44;stroke-width:2.91333;stroke-dasharray:1.45667;stroke-opacity:1"
   id="circle70"
   cy="174.31218"
   cx="175.93002"
   rx="70.801407"
   ry="70.850739" /><ellipse
   style="fill:none;stroke:#ccbb44;stroke-width:2.91333;stroke-dasharray:1.45667;stroke-opacity:1"
   id="circle72"
   cy="174.31218"
   cx="175.93002"
   rx="125.79765"
   ry="125.88531" /><circle
   style="fill:#ccbb44;fill-opacity:1;filter:url(#filter1618)"
   id="circle103"
   r="11.547"
   cy="130.923"
   cx="123.856"
   mask="url(#XMLID_5_)"
   transform="matrix(1.4561598,0,0,1.4571745,-4.4240911,-16.46549)" /><ellipse
   style="fill:none;stroke:#ccbb44;stroke-width:2.91333;stroke-dasharray:1.45667;stroke-opacity:1"
   id="circle105"
   cy="174.31218"
   cx="175.93002"
   rx="178.89798"
   ry="179.02263" /><line
   style="fill:none;stroke:#4477aa;stroke-width:2.91334;stroke-opacity:1"
   id="line107"
   y2="37.671455"
   x2="364.31198"
   y1="174.31218"
   x1="175.93002" /><path
   style="fill:#4477aa;fill-opacity:1;stroke-width:0.999652"
   inkscape:connector-curvature="0"
   id="path109"
   d="m 368.22178,31.055884 c -4.8694,1.688865 -8.26954,2.45971 -12.40648,3.497219 l 8.83306,12.19655 c 0.75284,-1.37703 4.05977,-6.606829 7.18178,-10.710232 3.33898,-4.393382 6.57602,-8.088776 8.86073,-10.229365 -2.74195,1.509632 -7.25895,3.437474 -12.46909,5.245828 z" /><line
   style="fill:none;stroke:#228833;stroke-width:2.91334;stroke-opacity:1"
   id="line111"
   y2="258.71756"
   x2="140.65018"
   y1="283.38751"
   x1="128.0078" /><path
   style="fill:#228833;fill-opacity:1;stroke-width:0.999652"
   inkscape:connector-curvature="0"
   id="path113"
   d="m 141.10599,252.74312 c -2.61381,2.7118 -4.57526,4.34092 -6.9255,6.38534 l 9.7854,5.01996 c 0.035,-1.14388 0.46305,-5.64801 1.13871,-9.3536 0.72371,-3.96643 1.61051,-7.44471 2.39248,-9.59695 -1.28871,1.89141 -3.59527,4.64401 -6.39109,7.54525 z" /><path
   style="fill:none;stroke:#ee6677;stroke-width:2.91334;stroke-opacity:1"
   inkscape:connector-curvature="0"
   id="path115"
   d="m 142.70485,270.69259 c 11.17603,-1.14388 23.12819,-3.59922 30.99145,6.32414 5.64408,7.12267 4.30586,15.74186 17.34869,16.45004 6.11004,0.33078 12.75014,-5.32888 23.09032,1.10891 10.1043,6.29354 5.24655,14.11565 13.25688,22.13157 7.26042,7.26547 21.0386,-3.68811 29.53093,0.16612 14.58634,6.62431 0.0335,20.96874 12.6715,26.10965 8.25206,3.35733 36.2045,-12.92368 36.2045,18.17388" /><path
   style="fill:#ee6677;fill-opacity:1;stroke-width:0.999652"
   inkscape:connector-curvature="0"
   id="path117"
   d="m 308.85706,368.20525 c 1.4911,-4.9369 2.86426,-8.14415 4.45148,-12.10329 h -15.05088 c 0.67276,1.41638 2.96184,7.16639 4.45149,12.10329 1.59595,5.28372 2.68661,10.07491 3.07541,13.18306 0.38734,-3.10815 1.47946,-7.89934 3.0725,-13.18306 z" /><g
   aria-label="n = 1"
   transform="matrix(0.99965182,0,0,1.0003483,1.3371795e-5,-8.9261135)"
   id="text119"
   style="font-size:18.6667px;line-height:0%;stroke-width:0.999652"><path
     d="m 157.89943,129.7356 q -0.168,0 -0.28,-0.056 -0.0933,-0.0373 -0.0933,-0.14934 0,-0.14933 0.112,-0.18666 0.112,-0.056 0.31733,-0.112 0.28,-0.0747 0.54133,-0.20534 0.26134,-0.13067 0.26134,-0.504 v -4.01334 q 0,-0.504 -0.112,-0.85867 -0.0933,-0.35467 -0.57867,-0.48533 -0.0747,-0.0373 -0.13067,-0.0747 -0.056,-0.056 -0.056,-0.168 0,-0.20533 0.168,-0.224 0.65334,-0.168 1.064,-0.41067 0.41067,-0.24266 0.80267,-0.54133 0.056,-0.0373 0.0933,-0.056 0.056,-0.0373 0.112,-0.0373 0.0373,0 0.056,0.0373 0.0373,0.0373 0.0373,0.0933 0,0.13067 -0.056,0.54134 -0.0373,0.392 -0.0373,0.65333 0,0.0747 0,0.14933 0.0187,0.056 0.0373,0.0747 0.65333,-0.616 1.38134,-0.93333 0.74666,-0.31734 1.624,-0.31734 0.91467,0 1.512,0.74667 0.59734,0.74667 0.59734,1.848 v 3.97601 q 0,0.37333 0.26133,0.504 0.26133,0.112 0.54133,0.20534 0.14934,0.056 0.28,0.13066 0.14934,0.056 0.14934,0.20534 0,0.112 -0.13067,0.13066 -0.13067,0.0373 -0.24267,0.0373 -0.37333,0 -0.57866,-0.0373 -0.20534,-0.0187 -0.392,-0.0373 -0.18667,-0.0187 -0.52267,-0.0187 -0.31734,0 -0.52267,0.0187 -0.20533,0.0187 -0.42933,0.0373 -0.20534,0.0373 -0.57867,0.0373 -0.0933,0 -0.24267,-0.0373 -0.13067,-0.0187 -0.13067,-0.13066 0,-0.14934 0.13067,-0.20534 0.14934,-0.0747 0.29867,-0.13066 0.28,-0.0933 0.54133,-0.20534 0.26134,-0.13067 0.26134,-0.504 v -3.92001 q 0,-0.82133 -0.46667,-1.26933 -0.448,-0.46667 -1.21334,-0.48534 -0.672,0 -1.176,0.224 -0.504,0.20534 -0.896,0.52267 -0.0747,0.0747 -0.112,0.20534 -0.0373,0.112 -0.0373,0.224 v 4.49867 q 0,0.37333 0.26133,0.504 0.26133,0.13067 0.54133,0.20534 0.42934,0.112 0.42934,0.29866 0,0.112 -0.0933,0.14934 -0.0933,0.056 -0.28001,0.056 -0.37333,0 -0.59733,-0.0373 -0.20533,-0.0187 -0.392,-0.0373 -0.18667,-0.0187 -0.52267,-0.0187 -0.31733,0 -0.52267,0.0187 -0.18666,0.0187 -0.41066,0.0373 -0.20534,0.0373 -0.57867,0.0373 z"
     style="font-style:normal;font-variant:normal;font-weight:normal;font-stretch:normal;font-size:18.6667px;font-family:'EB Garamond';-inkscape-font-specification:'EB Garamond';stroke-width:0.999652"
     id="path105" /><path
     d="m 171.83529,123.81825 q -0.0933,0 -0.18667,-0.0747 -0.0747,-0.0747 -0.0747,-0.14934 0,-0.0933 0.0373,-0.26133 0.056,-0.168 0.14933,-0.29867 0.0933,-0.14933 0.26134,-0.14933 h 7.98934 q 0.0933,0 0.168,0.056 0.0933,0.056 0.0933,0.14933 0,0.18667 -0.18667,0.46667 -0.18667,0.26133 -0.41067,0.26133 z m 0,3.19201 q -0.0933,0 -0.18667,-0.0747 -0.0747,-0.0747 -0.0747,-0.14933 0,-0.0933 0.0373,-0.26134 0.056,-0.168 0.14933,-0.29866 0.0933,-0.14934 0.26134,-0.14934 h 7.98934 q 0.0933,0 0.168,0.056 0.0933,0.056 0.0933,0.14934 0,0.24266 -0.18667,0.48533 -0.18667,0.24267 -0.41067,0.24267 z"
     style="font-style:normal;font-variant:normal;font-weight:normal;font-stretch:normal;font-size:18.6667px;font-family:'EB Garamond';-inkscape-font-specification:'EB Garamond';stroke-width:0.999652"
     id="path107" /><path
     d="m 186.92965,129.7356 q -0.13067,0 -0.20533,-0.0747 -0.0747,-0.0747 -0.0747,-0.14933 0,-0.168 0.28,-0.24267 0.70933,-0.18667 1.15733,-0.336 0.46667,-0.168 0.67201,-0.448 0.224,-0.29867 0.224,-0.84 v -7.13068 q 0,-0.35467 -0.224,-0.54134 -0.224,-0.18667 -0.57867,-0.26133 -0.35467,-0.0747 -0.76534,-0.0933 -0.18666,-0.0187 -0.336,-0.0933 -0.14933,-0.0747 -0.14933,-0.224 0,-0.13067 0.13067,-0.224 0.14933,-0.0933 0.336,-0.112 0.84,-0.13067 1.49333,-0.31733 0.672,-0.20534 1.30667,-0.84001 0.0187,-0.0187 0.0373,-0.0187 0.0373,0 0.056,0 0.0933,0 0.168,0.056 0.0747,0.0373 0.056,0.112 -0.0373,0.28 -0.056,0.616 -0.0187,0.31733 -0.0187,0.70933 v 8.58669 q 0,0.46666 0.168,0.70933 0.18667,0.24267 0.616,0.392 0.42933,0.13067 1.19467,0.31734 0.112,0.0187 0.20533,0.0933 0.112,0.056 0.112,0.14933 0,0.20534 -0.26133,0.20534 -0.52267,0 -0.97067,-0.0373 -0.42933,-0.0187 -0.85867,-0.0373 -0.41067,-0.0187 -0.91467,-0.0187 -0.504,0 -0.952,0.0187 -0.448,0.0187 -0.896,0.0373 -0.448,0.0373 -0.952,0.0373 z"
     style="font-style:normal;font-variant:normal;font-weight:normal;font-stretch:normal;font-size:18.6667px;font-family:'EB Garamond';-inkscape-font-specification:'EB Garamond';stroke-width:0.999652"
     id="path110" /></g><g
   aria-label="n = 2"
   transform="matrix(0.99965182,0,0,1.0003483,1.3371795e-5,-8.9261135)"
   id="text131"
   style="font-size:18.6667px;line-height:0%;stroke-width:0.999652"><path
     d="m 157.89943,74.009598 q -0.168,0 -0.28,-0.056 -0.0933,-0.03733 -0.0933,-0.149334 0,-0.149333 0.112,-0.186667 0.112,-0.056 0.31733,-0.112 0.28,-0.07467 0.54133,-0.205333 0.26134,-0.130667 0.26134,-0.504001 v -4.013341 q 0,-0.504001 -0.112,-0.858668 -0.0933,-0.354668 -0.57867,-0.485334 -0.0747,-0.03733 -0.13067,-0.07467 -0.056,-0.056 -0.056,-0.168001 0,-0.205333 0.168,-0.224 0.65334,-0.168 1.064,-0.410667 0.41067,-0.242667 0.80267,-0.541335 0.056,-0.03733 0.0933,-0.056 0.056,-0.03733 0.112,-0.03733 0.0373,0 0.056,0.03733 0.0373,0.03733 0.0373,0.09333 0,0.130667 -0.056,0.541334 -0.0373,0.392001 -0.0373,0.653335 0,0.07467 0,0.149333 0.0187,0.056 0.0373,0.07467 0.65333,-0.616001 1.38134,-0.933335 0.74666,-0.317334 1.624,-0.317334 0.91467,0 1.512,0.746668 0.59734,0.746668 0.59734,1.848003 v 3.976008 q 0,0.373334 0.26133,0.504001 0.26133,0.112 0.54133,0.205333 0.14934,0.056 0.28,0.130667 0.14934,0.056 0.14934,0.205334 0,0.112 -0.13067,0.130667 -0.13067,0.03733 -0.24267,0.03733 -0.37333,0 -0.57866,-0.03733 -0.20534,-0.01867 -0.392,-0.03733 -0.18667,-0.01867 -0.52267,-0.01867 -0.31734,0 -0.52267,0.01867 -0.20533,0.01867 -0.42933,0.03733 -0.20534,0.03733 -0.57867,0.03733 -0.0933,0 -0.24267,-0.03733 -0.13067,-0.01867 -0.13067,-0.130667 0,-0.149334 0.13067,-0.205334 0.14934,-0.07467 0.29867,-0.130667 0.28,-0.09333 0.54133,-0.205333 0.26134,-0.130667 0.26134,-0.504001 v -3.920007 q 0,-0.821335 -0.46667,-1.269336 -0.448,-0.466668 -1.21334,-0.485334 -0.672,0 -1.176,0.224 -0.504,0.205334 -0.896,0.522668 -0.0747,0.07467 -0.112,0.205333 -0.0373,0.112001 -0.0373,0.224001 v 4.498675 q 0,0.373334 0.26133,0.504001 0.26133,0.130666 0.54133,0.205333 0.42934,0.112 0.42934,0.298667 0,0.112001 -0.0933,0.149334 -0.0933,0.056 -0.28001,0.056 -0.37333,0 -0.59733,-0.03733 -0.20533,-0.01867 -0.392,-0.03733 -0.18667,-0.01867 -0.52267,-0.01867 -0.31733,0 -0.52267,0.01867 -0.18666,0.01867 -0.41066,0.03733 -0.20534,0.03733 -0.57867,0.03733 z"
     style="font-style:normal;font-variant:normal;font-weight:normal;font-stretch:normal;font-size:18.6667px;font-family:'EB Garamond';-inkscape-font-specification:'EB Garamond';stroke-width:0.999652"
     id="path98" /><path
     d="m 171.83529,68.092254 q -0.0933,0 -0.18667,-0.07467 -0.0747,-0.07467 -0.0747,-0.149333 0,-0.09333 0.0373,-0.261334 0.056,-0.168 0.14933,-0.298667 0.0933,-0.149334 0.26134,-0.149334 h 7.98934 q 0.0933,0 0.168,0.056 0.0933,0.056 0.0933,0.149334 0,0.186667 -0.18667,0.466667 -0.18667,0.261334 -0.41067,0.261334 z m 0,3.192006 q -0.0933,0 -0.18667,-0.07467 -0.0747,-0.07467 -0.0747,-0.149334 0,-0.09333 0.0373,-0.261333 0.056,-0.168001 0.14933,-0.298668 0.0933,-0.149333 0.26134,-0.149333 h 7.98934 q 0.0933,0 0.168,0.056 0.0933,0.056 0.0933,0.149334 0,0.242667 -0.18667,0.485334 -0.18667,0.242667 -0.41067,0.242667 z"
     style="font-style:normal;font-variant:normal;font-weight:normal;font-stretch:normal;font-size:18.6667px;font-family:'EB Garamond';-inkscape-font-specification:'EB Garamond';stroke-width:0.999652"
     id="path100" /><path
     d="m 192.75366,74.009598 q -0.13067,0 -0.41067,-0.01867 -0.28,-0.01867 -0.63467,-0.03733 -0.35466,-0.01867 -0.74666,-0.03733 -0.37334,-0.01867 -0.72801,-0.01867 -0.35466,0 -1.008,0.01867 -0.65333,0.01867 -1.38133,0.03733 -0.70934,0 -1.25067,0.01867 -0.54134,0.01867 -0.69067,0.01867 -0.0747,0 -0.224,-0.112 -0.14933,-0.130667 -0.14933,-0.205333 0,-0.09333 0.0373,-0.130667 0.0373,-0.03733 0.112,-0.112001 l 3.19201,-3.304006 q 0.93333,-0.970668 1.54933,-2.165337 0.616,-1.213335 0.616,-2.445338 0,-0.989335 -0.59733,-1.549336 -0.59734,-0.578667 -1.4,-0.578667 -0.76534,0 -1.41867,0.429334 -0.65334,0.410667 -1.04534,1.082668 -0.056,0.112001 -0.14933,0.186667 -0.0747,0.07467 -0.168,0.07467 -0.0747,0 -0.18667,-0.149333 -0.0933,-0.168001 -0.0933,-0.410668 0,-0.224 0.26133,-0.616001 0.28,-0.392001 0.76534,-0.802668 0.48533,-0.410667 1.15733,-0.690668 0.672,-0.298667 1.456,-0.298667 0.93334,0 1.60534,0.392001 0.672,0.392 1.02667,1.082668 0.35467,0.690668 0.35467,1.605336 0,0.504001 -0.18667,1.082669 -0.168,0.578668 -0.48534,1.138669 -0.29866,0.560001 -0.69066,1.045335 -0.24267,0.298667 -0.728,0.802668 -0.46667,0.485334 -1.02667,1.045335 -0.54134,0.560001 -1.04534,1.064002 -0.48533,0.485334 -0.80267,0.821335 -0.31733,0.317334 -0.31733,0.354667 0,0.09333 0.26133,0.130667 0.31734,0.01867 0.70934,0.03733 0.41067,0.01867 0.93333,0.01867 0.54134,0 1.08267,-0.01867 0.54134,-0.01867 1.04534,-0.03733 0.54133,-0.03733 0.84,-0.09333 0.29867,-0.056 0.504,-0.224001 0.20533,-0.186667 0.42933,-0.560001 0.0747,-0.112 0.18667,-0.261334 0.13067,-0.168 0.28,-0.168 0.0933,0 0.112,0.07467 0.0187,0.07467 0.0187,0.149334 0,0.09333 -0.112,0.373334 -0.0933,0.261333 -0.224,0.653334 -0.13067,0.392001 -0.224,0.858668 -0.056,0.298668 -0.18667,0.373334 -0.13067,0.07467 -0.224,0.07467 z"
     style="font-style:normal;font-variant:normal;font-weight:normal;font-stretch:normal;font-size:18.6667px;font-family:'EB Garamond';-inkscape-font-specification:'EB Garamond';stroke-width:0.999652"
     id="path102" /></g><g
   aria-label="n = 3"
   transform="matrix(0.99965182,0,0,1.0003483,1.3371795e-5,-8.9261135)"
   id="text143"
   style="font-size:18.6667px;line-height:0%;stroke-width:0.999652"><path
     d="m 157.89943,20.282917 q -0.168,0 -0.28,-0.056 -0.0933,-0.03733 -0.0933,-0.149333 0,-0.149334 0.112,-0.186667 0.112,-0.056 0.31733,-0.112001 0.28,-0.07467 0.54133,-0.205333 0.26134,-0.130667 0.26134,-0.504001 v -4.013341 q 0,-0.504001 -0.112,-0.858668 -0.0933,-0.354667 -0.57867,-0.485334 -0.0747,-0.03733 -0.13067,-0.07467 -0.056,-0.056 -0.056,-0.168 0,-0.205334 0.168,-0.224001 0.65334,-0.168 1.064,-0.410667 0.41067,-0.242667 0.80267,-0.541334 0.056,-0.03733 0.0933,-0.056 0.056,-0.03733 0.112,-0.03733 0.0373,0 0.056,0.03733 0.0373,0.03733 0.0373,0.09333 0,0.130667 -0.056,0.541334 -0.0373,0.392001 -0.0373,0.653335 0,0.07467 0,0.149333 0.0187,0.056 0.0373,0.07467 0.65333,-0.616001 1.38134,-0.933335 0.74666,-0.317334 1.624,-0.317334 0.91467,0 1.512,0.746668 0.59734,0.746668 0.59734,1.848004 v 3.976007 q 0,0.373334 0.26133,0.504001 0.26133,0.112 0.54133,0.205333 0.14934,0.056 0.28,0.130667 0.14934,0.056 0.14934,0.205334 0,0.112 -0.13067,0.130667 -0.13067,0.03733 -0.24267,0.03733 -0.37333,0 -0.57866,-0.03733 -0.20534,-0.01867 -0.392,-0.03733 -0.18667,-0.01867 -0.52267,-0.01867 -0.31734,0 -0.52267,0.01867 -0.20533,0.01867 -0.42933,0.03733 -0.20534,0.03733 -0.57867,0.03733 -0.0933,0 -0.24267,-0.03733 -0.13067,-0.01867 -0.13067,-0.130667 0,-0.149334 0.13067,-0.205334 0.14934,-0.07467 0.29867,-0.130667 0.28,-0.09333 0.54133,-0.205333 0.26134,-0.130667 0.26134,-0.504001 v -3.920007 q 0,-0.821335 -0.46667,-1.269336 -0.448,-0.466667 -1.21334,-0.485334 -0.672,0 -1.176,0.224 -0.504,0.205334 -0.896,0.522668 -0.0747,0.07467 -0.112,0.205334 -0.0373,0.112 -0.0373,0.224 v 4.498675 q 0,0.373334 0.26133,0.504001 0.26133,0.130667 0.54133,0.205333 0.42934,0.112001 0.42934,0.298668 0,0.112 -0.0933,0.149333 -0.0933,0.056 -0.28001,0.056 -0.37333,0 -0.59733,-0.03733 -0.20533,-0.01867 -0.392,-0.03733 -0.18667,-0.01867 -0.52267,-0.01867 -0.31733,0 -0.52267,0.01867 -0.18666,0.01867 -0.41066,0.03733 -0.20534,0.03733 -0.57867,0.03733 z"
     style="font-style:normal;font-variant:normal;font-weight:normal;font-stretch:normal;font-size:18.6667px;font-family:'EB Garamond';-inkscape-font-specification:'EB Garamond';stroke-width:0.999652"
     id="path91" /><path
     d="m 171.83529,14.365573 q -0.0933,0 -0.18667,-0.07467 -0.0747,-0.07467 -0.0747,-0.149334 0,-0.09333 0.0373,-0.261334 0.056,-0.168 0.14933,-0.298667 0.0933,-0.149334 0.26134,-0.149334 h 7.98934 q 0.0933,0 0.168,0.056 0.0933,0.056 0.0933,0.149334 0,0.186667 -0.18667,0.466668 -0.18667,0.261333 -0.41067,0.261333 z m 0,3.192006 q -0.0933,0 -0.18667,-0.07467 -0.0747,-0.07467 -0.0747,-0.149333 0,-0.09333 0.0373,-0.261334 0.056,-0.168 0.14933,-0.298667 0.0933,-0.149334 0.26134,-0.149334 h 7.98934 q 0.0933,0 0.168,0.056 0.0933,0.056 0.0933,0.149334 0,0.242667 -0.18667,0.485334 -0.18667,0.242667 -0.41067,0.242667 z"
     style="font-style:normal;font-variant:normal;font-weight:normal;font-stretch:normal;font-size:18.6667px;font-family:'EB Garamond';-inkscape-font-specification:'EB Garamond';stroke-width:0.999652"
     id="path93" /><path
     d="m 187.93765,20.936252 q -0.42933,0 -0.91467,-0.149334 -0.48533,-0.130667 -0.82133,-0.317334 -0.336,-0.186667 -0.336,-0.336 0,-0.130667 0.14933,-0.336001 0.14933,-0.205334 0.336,-0.354667 0.20533,-0.168 0.336,-0.168 0.20534,0 0.37334,0.112 0.168,0.112 0.35466,0.261334 0.24267,0.205333 0.56,0.392 0.31734,0.186667 0.84001,0.186667 0.69066,0 1.30666,-0.354667 0.61601,-0.354667 1.00801,-0.970668 0.41066,-0.634668 0.41066,-1.400003 0,-0.728001 -0.24266,-1.400003 -0.24267,-0.672001 -0.728,-1.101335 -0.46667,-0.448001 -1.19467,-0.448001 -0.20534,0 -0.56,0.056 -0.336,0.03733 -0.65334,0.224001 -0.0933,0.056 -0.224,0 -0.112,-0.07467 -0.0933,-0.168 0.0747,-0.242668 0.224,-0.392001 0.14933,-0.168 0.336,-0.242667 0.168,-0.07467 0.54133,-0.280001 0.37334,-0.224 0.784,-0.541334 0.42934,-0.336001 0.72801,-0.746668 0.29866,-0.429334 0.29866,-0.933335 0,-0.765335 -0.504,-1.344003 -0.48533,-0.5973339 -1.25067,-0.5973339 -0.728,0 -1.176,0.2613338 -0.42933,0.2426671 -0.69067,0.5786681 -0.26133,0.317333 -0.392,0.578667 -0.13066,0.242667 -0.24267,0.242667 -0.0747,0 -0.18666,-0.112 -0.112,-0.112 -0.112,-0.242667 0,-0.242667 0.20533,-0.634668 0.20534,-0.4106671 0.63467,-0.8213345 0.448,-0.4106675 1.12,-0.690668 0.69067,-0.2800005 1.64267,-0.2800005 0.616,0 1.15734,0.2800005 0.56,0.2613338 0.91466,0.7466681 0.35467,0.4666675 0.35467,1.1013354 0,0.448001 -0.18667,0.933335 -0.18666,0.485334 -0.616,0.970668 -0.42933,0.466668 -1.15733,0.896002 -0.056,0.01867 -0.056,0.07467 0,0.03733 0.0747,0.03733 0.80266,0 1.43733,0.410668 0.63467,0.392 1.008,1.064001 0.392,0.653335 0.392,1.456003 0,1.045335 -0.448,1.885337 -0.448,0.821335 -1.19467,1.418669 -0.74666,0.578668 -1.68,0.877335 -0.91467,0.317334 -1.86667,0.317334 z"
     style="font-style:normal;font-variant:normal;font-weight:normal;font-stretch:normal;font-size:18.6667px;font-family:'EB Garamond';-inkscape-font-specification:'EB Garamond';stroke-width:0.999652"
     id="path95" /></g><g
   aria-label="Energía emitida"
   transform="matrix(0.99965182,0,0,1.0003483,1.3371795e-5,-8.9261135)"
   id="text199"
   style="font-style:normal;font-variant:normal;font-weight:normal;font-stretch:normal;font-size:18.6667px;line-height:0%;font-family:Arial;-inkscape-font-specification:Arial;fill:#ee6677;fill-opacity:1;stroke-width:0.999652"><path
     d="m 306.727,346.50965 q -0.24267,0 -0.392,-0.056 -0.14934,-0.0373 -0.14934,-0.14933 0,-0.224 0.616,-0.336 0.70934,-0.13067 1.04534,-0.42933 0.336,-0.29867 0.336,-0.97067 v -8.40002 q 0,-0.672 -0.28,-0.952 -0.26133,-0.28 -0.97067,-0.41067 -0.31733,-0.056 -0.46667,-0.14933 -0.14933,-0.0933 -0.14933,-0.224 0,-0.112 0.14933,-0.14933 0.14934,-0.056 0.392,-0.056 0.70934,0 1.19467,0.0187 0.504,0.0187 0.97067,0.0373 0.48534,0 1.13867,0 0.616,0 1.288,0 0.69067,-0.0187 1.26934,-0.0187 0.63467,-0.0187 1.064,-0.0187 0.448,-0.0187 0.52267,-0.0187 0.0933,0 0.20533,0.0373 0.112,0.0373 0.13067,0.13067 0.0933,0.52266 0.18667,1.04533 0.0933,0.504 0.0933,0.87734 0,0.168 -0.0933,0.224 -0.0747,0.056 -0.16801,0.056 -0.0933,0 -0.13066,-0.0373 -0.0373,-0.056 -0.0747,-0.14933 -0.0933,-0.31733 -0.18667,-0.59734 -0.0933,-0.29866 -0.224,-0.42933 -0.26133,-0.29867 -0.57866,-0.392 -0.31734,-0.112 -0.67201,-0.112 h -2.44533 q -0.14934,0 -0.41067,0.168 -0.26133,0.168 -0.26133,0.42933 v 3.95734 q 0,0.16801 0.0933,0.29867 0.112,0.112 0.24267,0.112 h 1.848 q 0.54133,0 0.74667,-0.18666 0.20533,-0.20534 0.336,-0.72801 0.112,-0.41066 0.336,-0.41066 0.0747,0 0.14933,0.0747 0.0933,0.0747 0.0933,0.224 0,0.0747 -0.0187,0.336 0,0.26134 -0.0187,0.54134 -0.0187,0.28 -0.0187,0.42933 0,0.18667 0,0.504 0.0187,0.29867 0.0187,0.57867 0.0187,0.28 0.0187,0.35467 0,0.13067 -0.0373,0.224 -0.0187,0.0933 -0.13067,0.0933 -0.28,0 -0.42933,-0.59733 -0.11201,-0.42934 -0.29867,-0.63467 -0.18667,-0.20533 -0.56,-0.20533 H 310.311 q -0.31733,0 -0.48533,0.0933 -0.14933,0.0747 -0.14933,0.392 v 3.58401 q 0,0.70933 0.29866,0.98933 0.29867,0.26134 0.93334,0.26134 h 1.38133 q 0.59734,0 0.98934,-0.056 0.41067,-0.0747 0.70933,-0.26134 0.29867,-0.20533 0.52267,-0.54133 0.24267,-0.336 0.54134,-0.896 0.056,-0.112 0.13066,-0.18667 0.0747,-0.0747 0.168,-0.056 0.0933,0.0187 0.14934,0.0933 0.056,0.056 0.056,0.168 0,0.168 -0.0933,0.59734 -0.0933,0.41066 -0.24266,0.85867 -0.13067,0.448 -0.24267,0.70933 -0.056,0.13067 -0.112,0.224 -0.0373,0.0933 -0.14933,0.0933 -0.89601,0 -1.66134,-0.0187 -0.76534,-0.0187 -1.456,-0.0373 -0.69067,-0.0187 -1.36267,-0.0373 -0.65334,-0.0187 -1.36267,-0.0187 -0.41067,0 -0.70934,0.0187 -0.29866,0.0373 -0.616,0.056 -0.31733,0.0373 -0.82133,0.0373 z"
     style="font-style:normal;font-variant:normal;font-weight:normal;font-stretch:normal;font-size:18.6667px;font-family:'EB Garamond';-inkscape-font-specification:'EB Garamond';fill:#ee6677;fill-opacity:1;stroke-width:0.999652"
     id="path171" /><path
     d="m 316.85281,346.47232 q -0.168,0 -0.28,-0.056 -0.0933,-0.0373 -0.0933,-0.14933 0,-0.14934 0.112,-0.18667 0.112,-0.056 0.31734,-0.112 0.28,-0.0747 0.54133,-0.20533 0.26134,-0.13067 0.26134,-0.504 v -4.01335 q 0,-0.504 -0.112,-0.85866 -0.0933,-0.35467 -0.57867,-0.48534 -0.0747,-0.0373 -0.13067,-0.0747 -0.056,-0.056 -0.056,-0.168 0,-0.20534 0.168,-0.22401 0.65334,-0.168 1.064,-0.41066 0.41067,-0.24267 0.80267,-0.54134 0.056,-0.0373 0.0933,-0.056 0.056,-0.0373 0.112,-0.0373 0.0373,0 0.056,0.0373 0.0373,0.0373 0.0373,0.0933 0,0.13066 -0.056,0.54133 -0.0373,0.392 -0.0373,0.65334 0,0.0747 0,0.14933 0.0187,0.056 0.0373,0.0747 0.65333,-0.61601 1.38133,-0.93334 0.74667,-0.31733 1.62401,-0.31733 0.91466,0 1.512,0.74666 0.59733,0.74667 0.59733,1.84801 v 3.97601 q 0,0.37333 0.26134,0.504 0.26133,0.112 0.54133,0.20533 0.14934,0.056 0.28,0.13067 0.14934,0.056 0.14934,0.20533 0,0.112 -0.13067,0.13067 -0.13067,0.0373 -0.24267,0.0373 -0.37333,0 -0.57867,-0.0373 -0.20533,-0.0187 -0.392,-0.0373 -0.18666,-0.0187 -0.52266,-0.0187 -0.31734,0 -0.52267,0.0187 -0.20534,0.0187 -0.42934,0.0373 -0.20533,0.0373 -0.57866,0.0373 -0.0933,0 -0.24267,-0.0373 -0.13067,-0.0187 -0.13067,-0.13067 0,-0.14933 0.13067,-0.20533 0.14933,-0.0747 0.29867,-0.13067 0.28,-0.0933 0.54133,-0.20533 0.26133,-0.13067 0.26133,-0.504 v -3.92001 q 0,-0.82134 -0.46666,-1.26934 -0.448,-0.46666 -1.21334,-0.48533 -0.672,0 -1.176,0.224 -0.504,0.20533 -0.896,0.52267 -0.0747,0.0747 -0.112,0.20533 -0.0373,0.112 -0.0373,0.224 v 4.49868 q 0,0.37333 0.26134,0.504 0.26133,0.13066 0.54133,0.20533 0.42934,0.112 0.42934,0.29867 0,0.112 -0.0933,0.14933 -0.0933,0.056 -0.28,0.056 -0.37333,0 -0.59733,-0.0373 -0.20534,-0.0187 -0.392,-0.0373 -0.18667,-0.0187 -0.52267,-0.0187 -0.31733,0 -0.52267,0.0187 -0.18666,0.0187 -0.41067,0.0373 -0.20533,0.0373 -0.57866,0.0373 z"
     style="font-style:normal;font-variant:normal;font-weight:normal;font-stretch:normal;font-size:18.6667px;font-family:'EB Garamond';-inkscape-font-specification:'EB Garamond';fill:#ee6677;fill-opacity:1;stroke-width:0.999652"
     id="path173" /><path
     d="m 329.85125,346.69632 q -1.02667,0 -1.79201,-0.504 -0.76533,-0.504 -1.19466,-1.41867 -0.42934,-0.93333 -0.42934,-2.14667 0,-1.08267 0.48534,-1.96 0.504,-0.896 1.32533,-1.43734 0.82134,-0.54133 1.792,-0.54133 0.74667,0 1.32534,0.29866 0.57867,0.29867 0.896,0.84001 0.336,0.52266 0.336,1.21333 0,0.57867 -0.56,0.57867 h -3.93867 q -0.26134,0 -0.37334,0.14933 -0.0933,0.13067 -0.0933,0.54134 0,0.896 0.392,1.64267 0.392,0.728 1.04534,1.176 0.65333,0.42933 1.43733,0.42933 0.56,0 1.008,-0.20533 0.46667,-0.224 0.82134,-0.63467 0.0747,-0.0933 0.112,-0.112 0.0373,-0.0373 0.0933,-0.0373 0.14934,0 0.14934,0.18666 0,0.35467 -0.336,0.78401 -0.28001,0.35466 -0.67201,0.616 -0.392,0.26133 -0.85866,0.392 -0.46667,0.14933 -0.97067,0.14933 z m -1.71734,-5.65601 h 1.69867 q 0.448,0 0.76534,-0.0187 0.31733,-0.0187 0.616,-0.0747 0.0933,-0.0187 0.112,-0.112 0.0373,-0.112 0.0373,-0.29867 0,-0.54133 -0.48533,-0.91467 -0.46667,-0.392 -1.12001,-0.392 -0.42933,0 -0.85866,0.26133 -0.42934,0.24267 -0.70934,0.61601 -0.28,0.37333 -0.28,0.74666 0,0.18667 0.224,0.18667 z"
     style="font-style:normal;font-variant:normal;font-weight:normal;font-stretch:normal;font-size:18.6667px;font-family:'EB Garamond';-inkscape-font-specification:'EB Garamond';fill:#ee6677;fill-opacity:1;stroke-width:0.999652"
     id="path175" /><path
     d="m 334.08159,346.47232 q -0.18667,0 -0.28,-0.056 -0.0933,-0.0373 -0.0933,-0.14933 0,-0.14934 0.112,-0.18667 0.112,-0.056 0.31734,-0.112 0.35467,-0.0933 0.52267,-0.26133 0.18666,-0.18667 0.18666,-0.448 v -4.01335 q 0,-0.504 -0.14933,-0.87733 -0.14933,-0.37333 -0.616,-0.46667 -0.0747,-0.0187 -0.13067,-0.0933 -0.056,-0.0747 -0.056,-0.14933 0,-0.18667 0.168,-0.22401 0.48534,-0.14933 1.008,-0.42933 0.54134,-0.29867 0.84,-0.48533 0.112,-0.0747 0.168,-0.0933 0.0747,-0.0373 0.11201,-0.0373 0.0933,0 0.0933,0.13067 0,0.056 -0.0187,0.28 0,0.224 -0.0187,0.52266 0,0.29867 -0.0187,0.59734 0,0.0373 0.0373,0.0373 0.29867,-0.37333 0.65334,-0.65333 0.37333,-0.28 0.74666,-0.448 0.39201,-0.168 0.74667,-0.168 0.392,0 0.63467,0.168 0.26133,0.168 0.26133,0.42933 0,0.18667 -0.112,0.41067 -0.0933,0.224 -0.26133,0.392 -0.168,0.168 -0.35467,0.168 -0.112,0 -0.24266,-0.0373 -0.13067,-0.056 -0.28,-0.13067 -0.14934,-0.056 -0.29867,-0.112 -0.14934,-0.056 -0.29867,-0.056 -0.448,0 -0.87733,0.31733 -0.41067,0.31734 -0.41067,1.25067 v 3.77068 q 0,0.24266 0.26133,0.41066 0.26134,0.14934 0.728,0.29867 0.20534,0.056 0.31734,0.112 0.112,0.056 0.112,0.18667 0,0.20533 -0.37334,0.20533 -0.56,0 -0.85866,-0.056 -0.28001,-0.0373 -0.76534,-0.0373 -0.31733,0 -0.52267,0.0187 -0.18666,0.0187 -0.41066,0.0373 -0.20534,0.0373 -0.57867,0.0373 z"
     style="font-style:normal;font-variant:normal;font-weight:normal;font-stretch:normal;font-size:18.6667px;font-family:'EB Garamond';-inkscape-font-specification:'EB Garamond';fill:#ee6677;fill-opacity:1;stroke-width:0.999652"
     id="path177" /><path
     d="m 343.04131,351.82966 q -1.58667,0 -2.52,-0.616 -0.91467,-0.59733 -0.91467,-1.624 0,-0.48533 0.14933,-0.82133 0.14934,-0.33601 0.46667,-0.57867 0.26133,-0.224 0.69067,-0.57867 0.448,-0.336 0.91467,-0.70933 l 0.784,0.0373 q -0.896,0.57867 -1.25067,1.10133 -0.35467,0.52267 -0.35467,1.26934 0,0.74667 0.65334,1.25067 0.672,0.52267 1.64267,0.52267 1.10133,0 1.77333,-0.50401 0.46667,-0.35466 0.728,-0.93333 0.26134,-0.56 0.26134,-1.19467 0,-0.41067 -0.29867,-0.69067 -0.28,-0.26133 -0.896,-0.42933 -0.616,-0.168 -1.60534,-0.224 -1.75467,-0.13067 -2.44533,-0.46667 -0.67201,-0.336 -0.67201,-1.04533 0,-0.18667 0.0933,-0.336 0.112,-0.168 0.336,-0.35467 0.42933,-0.336 0.63467,-0.48534 0.20533,-0.168 0.29866,-0.28 0.112,-0.112 0.20534,-0.28 l 0.63466,0.31734 q -0.41066,0.14933 -0.69066,0.41066 -0.28,0.24267 -0.28,0.448 0,0.26134 0.28,0.46667 0.28,0.18667 0.82133,0.29867 0.54134,0.112 1.32534,0.168 1.71733,0.0933 2.55734,0.56 0.84,0.46667 0.84,1.32534 0,0.728 -0.37334,1.41867 -0.35466,0.70933 -0.952,1.288 -0.59733,0.57867 -1.344,0.91467 -0.728,0.35466 -1.49334,0.35466 z m 0.224,-8.04534 q 0.70934,0 1.17601,-0.70934 0.46666,-0.728 0.46666,-1.792 0,-0.54134 -0.26133,-1.008 -0.24267,-0.48534 -0.65334,-0.76534 -0.392,-0.29867 -0.85866,-0.29867 -0.42934,0 -0.82134,0.31734 -0.37333,0.29867 -0.616,0.784 -0.224,0.48533 -0.224,1.064 0,0.65334 0.24267,1.21334 0.24266,0.54133 0.65333,0.87733 0.41067,0.31734 0.896,0.31734 z m -0.112,0.65333 q -0.76533,0 -1.456,-0.392 -0.69067,-0.392 -1.13867,-1.02667 -0.42933,-0.65333 -0.42933,-1.41867 0,-0.87733 0.448,-1.53067 0.46667,-0.672 1.21333,-1.04533 0.74667,-0.37334 1.58667,-0.37334 0.54134,0 0.93334,0.14934 0.41067,0.13066 0.80267,0.24266 0.448,0.13067 0.70933,0.168 0.26133,0.0187 0.54134,0.0187 0.224,0 0.56,-0.0187 0.336,-0.0373 0.46666,-0.0373 0.24267,0 0.24267,0.28 0,0.168 -0.18667,0.35467 -0.0933,0.0933 -0.14933,0.0933 h -0.504 q -0.504,0 -0.56,0.14934 -0.0187,0.0747 -0.056,0.224 -0.0187,0.13066 -0.0373,0.29866 -0.0187,0.168 -0.0187,0.336 0,0.95201 -0.41067,1.75467 -0.41067,0.80267 -1.08267,1.28801 -0.672,0.48533 -1.47467,0.48533 z"
     style="font-style:normal;font-variant:normal;font-weight:normal;font-stretch:normal;font-size:18.6667px;font-family:'EB Garamond';-inkscape-font-specification:'EB Garamond';fill:#ee6677;fill-opacity:1;stroke-width:0.999652"
     id="path179" /><path
     d="m 348.35286,346.47232 q -0.168,0 -0.28,-0.056 -0.0933,-0.0373 -0.0933,-0.14933 0,-0.14934 0.13067,-0.20534 0.14933,-0.056 0.29866,-0.0933 0.392,-0.0933 0.59734,-0.224 0.20533,-0.14933 0.20533,-0.48533 v -4.05068 q 0,-0.504 -0.18667,-0.896 -0.168,-0.392 -0.65333,-0.46667 -0.0933,-0.0187 -0.14933,-0.0747 -0.0373,-0.056 -0.0373,-0.168 0,-0.20534 0.168,-0.22401 0.74667,-0.168 1.23201,-0.448 0.48533,-0.29866 0.728,-0.48533 0.168,-0.13067 0.26133,-0.13067 0.112,0 0.112,0.0933 0,0.14933 -0.056,0.59733 -0.0373,0.42933 -0.0747,0.97067 -0.0373,0.52267 -0.0373,0.952 v 4.33068 q 0,0.31733 0.20533,0.46666 0.224,0.14934 0.59734,0.24267 0.14933,0.0373 0.28,0.0933 0.14933,0.056 0.14933,0.20534 0,0.20533 -0.37333,0.20533 -0.35467,0 -0.57867,-0.0373 -0.20533,-0.0187 -0.41067,-0.0373 -0.18666,-0.0187 -0.52266,-0.0187 -0.31734,0 -0.52267,0.0187 -0.20534,0.0187 -0.41067,0.0373 -0.20533,0.0373 -0.57867,0.0373 z m 1.04534,-8.58668 q -0.14934,0 -0.14934,-0.168 0,-0.056 0.0187,-0.13067 0.0187,-0.0933 0.056,-0.20533 0.13067,-0.35467 0.41067,-0.896 0.29867,-0.56 0.57867,-1.08267 0.29866,-0.52267 0.448,-0.76534 0.0933,-0.14933 0.224,-0.24266 0.14933,-0.0933 0.28,-0.0933 0.35467,0 0.63467,0.0933 0.28,0.0933 0.28,0.29866 0,0.112 -0.056,0.18667 -0.0373,0.0747 -0.13067,0.20533 -0.224,0.31734 -0.616,0.80267 -0.37334,0.46667 -0.76534,0.91467 -0.392,0.448 -0.63466,0.69067 -0.392,0.392 -0.57867,0.392 z"
     style="font-style:normal;font-variant:normal;font-weight:normal;font-stretch:normal;font-size:18.6667px;font-family:'EB Garamond';-inkscape-font-specification:'EB Garamond';fill:#ee6677;fill-opacity:1;stroke-width:0.999652"
     id="path181" /><path
     d="m 354.27283,346.67765 q -0.336,0 -0.69066,-0.26133 -0.33601,-0.26133 -0.57867,-0.63467 -0.224,-0.37333 -0.224,-0.70933 0,-0.59734 0.31733,-0.93334 0.31733,-0.336 1.008,-0.616 l 1.90401,-0.784 q 0.37333,-0.14933 0.42933,-0.26133 0.0747,-0.112 0.0933,-0.48534 l 0.0373,-1.19467 q 0.0187,-0.48533 -0.28,-0.84 -0.28,-0.35466 -0.82134,-0.35466 -0.28,0 -0.56,0.0933 -0.28,0.0933 -0.46667,0.24267 -0.112,0.0747 -0.14933,0.224 -0.0373,0.14933 -0.0373,0.31733 0,0.0747 0,0.168 0.0187,0.0933 0.0187,0.168 0,0.0933 -0.24266,0.26133 -0.224,0.14934 -0.52267,0.28001 -0.28,0.112 -0.46667,0.112 -0.0933,0 -0.14933,-0.0373 -0.056,-0.056 -0.056,-0.13067 0,-0.29866 0.18666,-0.63466 0.20534,-0.35467 0.56001,-0.65334 0.42933,-0.392 0.93333,-0.69067 0.504,-0.29866 0.98934,-0.46666 0.48533,-0.168 0.85866,-0.168 0.672,0 1.10134,0.48533 0.448,0.46667 0.42933,1.176 l -0.0933,4.48001 q -0.0187,0.392 0.168,0.63467 0.20533,0.24267 0.504,0.24267 0.46667,0 0.69067,-0.20534 0.0933,-0.0933 0.14933,-0.0933 0.0933,0 0.14934,0.056 0.056,0.056 0.056,0.14933 0,0.20534 -0.20534,0.41067 -0.29867,0.29867 -0.65333,0.46667 -0.336,0.18666 -0.63467,0.18666 -0.85867,0 -1.36267,-0.97066 h -0.056 q -0.616,0.504 -1.176,0.728 -0.56,0.24266 -1.15734,0.24266 z m 0.87734,-0.896 q 0.37333,0 0.63467,-0.112 0.26133,-0.13066 0.46666,-0.336 0.0933,-0.0933 0.14934,-0.24266 0.0747,-0.16801 0.0933,-0.52267 l 0.0373,-0.91467 q 0.0187,-0.20533 -0.0187,-0.29867 -0.0373,-0.0933 -0.14934,-0.0933 -0.0373,0 -0.13066,0.0187 -0.0933,0.0187 -0.24267,0.0747 -0.98934,0.35467 -1.38134,0.74667 -0.37333,0.37333 -0.37333,0.69067 0,0.48533 0.28,0.74667 0.29867,0.24266 0.63467,0.24266 z"
     style="font-style:normal;font-variant:normal;font-weight:normal;font-stretch:normal;font-size:18.6667px;font-family:'EB Garamond';-inkscape-font-specification:'EB Garamond';fill:#ee6677;fill-opacity:1;stroke-width:0.999652"
     id="path183" /><path
     d="m 367.22111,346.69632 q -1.02667,0 -1.792,-0.504 -0.76534,-0.504 -1.19467,-1.41867 -0.42934,-0.93333 -0.42934,-2.14667 0,-1.08267 0.48534,-1.96 0.504,-0.896 1.32533,-1.43734 0.82134,-0.54133 1.79201,-0.54133 0.74666,0 1.32533,0.29866 0.57867,0.29867 0.896,0.84001 0.336,0.52266 0.336,1.21333 0,0.57867 -0.56,0.57867 h -3.93867 q -0.26133,0 -0.37333,0.14933 -0.0933,0.13067 -0.0933,0.54134 0,0.896 0.392,1.64267 0.392,0.728 1.04534,1.176 0.65333,0.42933 1.43733,0.42933 0.56,0 1.00801,-0.20533 0.46666,-0.224 0.82133,-0.63467 0.0747,-0.0933 0.112,-0.112 0.0373,-0.0373 0.0933,-0.0373 0.14934,0 0.14934,0.18666 0,0.35467 -0.336,0.78401 -0.28,0.35466 -0.672,0.616 -0.392,0.26133 -0.85867,0.392 -0.46667,0.14933 -0.97067,0.14933 z m -1.71734,-5.65601 h 1.69867 q 0.448,0 0.76534,-0.0187 0.31733,-0.0187 0.616,-0.0747 0.0933,-0.0187 0.112,-0.112 0.0373,-0.112 0.0373,-0.29867 0,-0.54133 -0.48533,-0.91467 -0.46667,-0.392 -1.12,-0.392 -0.42934,0 -0.85867,0.26133 -0.42934,0.24267 -0.70934,0.61601 -0.28,0.37333 -0.28,0.74666 0,0.18667 0.224,0.18667 z"
     style="font-style:normal;font-variant:normal;font-weight:normal;font-stretch:normal;font-size:18.6667px;font-family:'EB Garamond';-inkscape-font-specification:'EB Garamond';fill:#ee6677;fill-opacity:1;stroke-width:0.999652"
     id="path185" /><path
     d="m 371.35812,346.47232 q -0.14934,0 -0.26134,-0.0373 -0.112,-0.0373 -0.112,-0.168 0,-0.13067 0.112,-0.18667 0.13067,-0.056 0.31734,-0.112 0.26133,-0.0933 0.52266,-0.20533 0.28,-0.13067 0.28,-0.504 v -4.01335 q 0,-0.504 -0.112,-0.87733 -0.112,-0.392 -0.59733,-0.46667 -0.0747,-0.0187 -0.13067,-0.0747 -0.0373,-0.056 -0.0373,-0.168 0,-0.18667 0.14933,-0.22401 0.504,-0.13066 0.80267,-0.26133 0.29867,-0.14933 0.52267,-0.31733 0.24267,-0.18667 0.57867,-0.392 0.0373,-0.0187 0.0747,-0.0373 0.0373,-0.0373 0.0933,-0.0373 0.112,0 0.112,0.13067 0,0.13066 -0.056,0.54133 -0.0373,0.392 -0.0373,0.65334 0,0.18666 0.0373,0.224 h 0.0373 q 0.42933,-0.41067 1.12,-0.82134 0.70934,-0.42933 1.79201,-0.42933 0.672,0 1.12,0.29866 0.448,0.28 0.74667,0.98934 h 0.056 q 0.59733,-0.54134 1.36266,-0.91467 0.76534,-0.37333 1.68001,-0.37333 0.616,0 1.02667,0.37333 0.41066,0.37333 0.616,0.97067 0.224,0.59733 0.224,1.25067 v 3.97601 q 0,0.37333 0.26133,0.504 0.26134,0.112 0.54134,0.20533 0.18666,0.056 0.29866,0.112 0.13067,0.056 0.13067,0.18667 0,0.112 -0.0933,0.14933 -0.0747,0.056 -0.28,0.056 -0.37334,0 -0.57867,-0.0373 -0.20534,-0.0187 -0.392,-0.0373 -0.168,-0.0187 -0.504,-0.0187 -0.31734,0 -0.52267,0.0187 -0.20533,0.0187 -0.42933,0.0373 -0.22401,0.0373 -0.59734,0.0373 -0.168,0 -0.28,-0.056 -0.0933,-0.0373 -0.0933,-0.14933 0,-0.14934 0.112,-0.20534 0.13066,-0.056 0.31733,-0.0933 0.29867,-0.0747 0.54134,-0.20533 0.26133,-0.13067 0.26133,-0.504 v -3.92001 q 0,-0.448 -0.20533,-0.84 -0.20534,-0.41067 -0.54134,-0.672 -0.336,-0.26134 -0.74667,-0.26134 -0.46666,0 -0.87733,0.112 -0.392,0.112 -0.74667,0.392 -0.52267,0.41067 -0.52267,1.34401 v 3.84534 q 0,0.37333 0.28,0.504 0.28,0.13066 0.56,0.20533 0.18667,0.0373 0.29867,0.112 0.13067,0.056 0.13067,0.18667 0,0.112 -0.0933,0.14933 -0.0933,0.056 -0.28,0.056 -0.37333,0 -0.59733,-0.0373 -0.20533,-0.0187 -0.41067,-0.0373 -0.18666,-0.0187 -0.52267,-0.0187 -0.31733,0 -0.52266,0.0187 -0.20534,0.0187 -0.42934,0.0373 -0.224,0.0373 -0.59733,0.0373 -0.14934,0 -0.26134,-0.056 -0.112,-0.0373 -0.112,-0.14933 0,-0.14934 0.13067,-0.18667 0.14933,-0.056 0.29867,-0.112 0.28,-0.0933 0.54133,-0.20533 0.28,-0.13067 0.28,-0.504 v -3.92001 q 0,-0.448 -0.20533,-0.84 -0.20533,-0.41067 -0.54133,-0.672 -0.33601,-0.26134 -0.74667,-0.26134 -0.46667,0 -0.87734,0.112 -0.392,0.112 -0.74667,0.392 -0.504,0.37334 -0.504,1.34401 v 3.84534 q 0,0.37333 0.26134,0.504 0.26133,0.112 0.54133,0.20533 0.14934,0.056 0.28,0.112 0.14934,0.0373 0.14934,0.18667 0,0.112 -0.112,0.14933 -0.0933,0.056 -0.26134,0.056 -0.37333,0 -0.59733,-0.0373 -0.20534,-0.0187 -0.392,-0.0373 -0.18667,-0.0187 -0.52267,-0.0187 -0.31734,0 -0.52267,0.0187 -0.18667,0.0187 -0.41067,0.0373 -0.20533,0.0373 -0.57866,0.0373 z"
     style="font-style:normal;font-variant:normal;font-weight:normal;font-stretch:normal;font-size:18.6667px;font-family:'EB Garamond';-inkscape-font-specification:'EB Garamond';fill:#ee6677;fill-opacity:1;stroke-width:0.999652"
     id="path187" /><path
     d="m 385.86856,346.47232 q -0.168,0 -0.28,-0.056 -0.0933,-0.0373 -0.0933,-0.14933 0,-0.14934 0.13066,-0.20534 0.14934,-0.056 0.29867,-0.0933 0.392,-0.0933 0.59734,-0.224 0.20533,-0.14933 0.20533,-0.48533 v -4.05068 q 0,-0.504 -0.18667,-0.896 -0.168,-0.392 -0.65333,-0.46667 -0.0933,-0.0187 -0.14934,-0.0747 -0.0373,-0.056 -0.0373,-0.168 0,-0.20534 0.168,-0.22401 0.74667,-0.168 1.232,-0.448 0.48534,-0.29866 0.728,-0.48533 0.168,-0.13067 0.26134,-0.13067 0.112,0 0.112,0.0933 0,0.14933 -0.056,0.59733 -0.0373,0.42933 -0.0747,0.97067 -0.0373,0.52267 -0.0373,0.952 v 4.33068 q 0,0.31733 0.20533,0.46666 0.224,0.14934 0.59734,0.24267 0.14933,0.0373 0.28,0.0933 0.14933,0.056 0.14933,0.20534 0,0.20533 -0.37333,0.20533 -0.35467,0 -0.57867,-0.0373 -0.20534,-0.0187 -0.41067,-0.0373 -0.18667,-0.0187 -0.52267,-0.0187 -0.31733,0 -0.52266,0.0187 -0.20534,0.0187 -0.41067,0.0373 -0.20534,0.0373 -0.57867,0.0373 z m 1.49334,-9.68802 q -0.392,0 -0.672,-0.26133 -0.26134,-0.28 -0.26134,-0.672 0,-0.41067 0.26134,-0.672 0.28,-0.28 0.672,-0.28 0.41066,0 0.672,0.28 0.28,0.26133 0.28,0.672 0,0.392 -0.28,0.672 -0.26134,0.26133 -0.672,0.26133 z"
     style="font-style:normal;font-variant:normal;font-weight:normal;font-stretch:normal;font-size:18.6667px;font-family:'EB Garamond';-inkscape-font-specification:'EB Garamond';fill:#ee6677;fill-opacity:1;stroke-width:0.999652"
     id="path189" /><path
     d="m 393.13253,346.67765 q -0.91467,0 -1.43734,-0.56 -0.504,-0.56 -0.504,-1.66133 v -4.33068 q 0,-0.14933 -0.112,-0.20533 -0.112,-0.0747 -0.48533,-0.0747 h -0.112 q -0.0933,0 -0.168,-0.112 -0.056,-0.13066 -0.056,-0.26133 0,-0.0373 0.056,-0.112 0.056,-0.0747 0.0747,-0.0933 0.37334,-0.26133 0.67201,-0.52266 0.31733,-0.26134 0.56,-0.504 0.26133,-0.26134 0.42933,-0.46667 0.0933,-0.0933 0.14933,-0.14934 0.0747,-0.0747 0.168,-0.0747 0.0933,0 0.168,0.0373 0.0933,0.0373 0.0747,0.168 l -0.0933,0.84 q -0.0187,0.20534 0.0933,0.28 0.112,0.0747 0.35467,0.0747 h 2.128 q 0.0747,0 0.13067,0.13067 0.056,0.112 0.056,0.28 0,0.168 -0.056,0.336 -0.056,0.14933 -0.13067,0.14933 h -1.848 q -0.46667,0 -0.616,0.0747 -0.13067,0.0747 -0.13067,0.448 v 3.67734 q 0,0.74667 0.31734,1.176 0.31733,0.42934 0.91466,0.42934 0.54134,0 0.84001,-0.0747 0.29866,-0.0933 0.54133,-0.26133 0.0373,-0.0373 0.0747,-0.0373 0.0747,0 0.0933,0.0933 0.0373,0.0747 0.0373,0.168 0,0.0933 -0.31733,0.37333 -0.29867,0.28 -0.80267,0.52267 -0.48533,0.24266 -1.064,0.24266 z"
     style="font-style:normal;font-variant:normal;font-weight:normal;font-stretch:normal;font-size:18.6667px;font-family:'EB Garamond';-inkscape-font-specification:'EB Garamond';fill:#ee6677;fill-opacity:1;stroke-width:0.999652"
     id="path191" /><path
     d="m 396.29566,346.47232 q -0.168,0 -0.28,-0.056 -0.0933,-0.0373 -0.0933,-0.14933 0,-0.14934 0.13066,-0.20534 0.14934,-0.056 0.29867,-0.0933 0.392,-0.0933 0.59734,-0.224 0.20533,-0.14933 0.20533,-0.48533 v -4.05068 q 0,-0.504 -0.18667,-0.896 -0.168,-0.392 -0.65333,-0.46667 -0.0933,-0.0187 -0.14933,-0.0747 -0.0373,-0.056 -0.0373,-0.168 0,-0.20534 0.168,-0.22401 0.74667,-0.168 1.232,-0.448 0.48534,-0.29866 0.72801,-0.48533 0.168,-0.13067 0.26133,-0.13067 0.112,0 0.112,0.0933 0,0.14933 -0.056,0.59733 -0.0373,0.42933 -0.0747,0.97067 -0.0373,0.52267 -0.0373,0.952 v 4.33068 q 0,0.31733 0.20533,0.46666 0.224,0.14934 0.59734,0.24267 0.14933,0.0373 0.28,0.0933 0.14933,0.056 0.14933,0.20534 0,0.20533 -0.37333,0.20533 -0.35467,0 -0.57867,-0.0373 -0.20533,-0.0187 -0.41067,-0.0373 -0.18666,-0.0187 -0.52267,-0.0187 -0.31733,0 -0.52266,0.0187 -0.20534,0.0187 -0.41067,0.0373 -0.20533,0.0373 -0.57867,0.0373 z m 1.49334,-9.68802 q -0.392,0 -0.672,-0.26133 -0.26134,-0.28 -0.26134,-0.672 0,-0.41067 0.26134,-0.672 0.28,-0.28 0.672,-0.28 0.41067,0 0.672,0.28 0.28,0.26133 0.28,0.672 0,0.392 -0.28,0.672 -0.26133,0.26133 -0.672,0.26133 z"
     style="font-style:normal;font-variant:normal;font-weight:normal;font-stretch:normal;font-size:18.6667px;font-family:'EB Garamond';-inkscape-font-specification:'EB Garamond';fill:#ee6677;fill-opacity:1;stroke-width:0.999652"
     id="path193" /><path
     d="m 406.69564,346.77099 q -0.0373,0 -0.13067,-0.0747 -0.0747,-0.0747 -0.0747,-0.112 0,-0.18667 0.0373,-0.52267 0.056,-0.35466 0.056,-0.59733 v -0.112 q -0.28,0.42933 -0.89601,0.87733 -0.616,0.448 -1.54933,0.448 -1.064,0 -1.84801,-0.56 -0.76533,-0.56 -1.19466,-1.43733 -0.41067,-0.87734 -0.41067,-1.81067 0,-1.08267 0.504,-2.03467 0.504,-0.952 1.43734,-1.54934 0.952,-0.59733 2.25867,-0.59733 0.37333,0 0.74666,0.0747 0.392,0.056 0.59734,0.13067 0.168,0.056 0.24267,0.056 0.13066,0 0.13066,-0.448 v -2.65067 q 0,-0.76534 -0.24266,-1.02667 -0.24267,-0.26133 -0.69067,-0.336 -0.168,-0.0373 -0.168,-0.24267 0,-0.168 0.14933,-0.224 0.82134,-0.20533 1.288,-0.392 0.46667,-0.18667 0.728,-0.29867 0.0747,-0.0373 0.13067,-0.0373 0.0747,-0.0187 0.112,-0.0187 0.112,0 0.13067,0.112 0,0.112 -0.0373,0.392 -0.0187,0.26134 -0.056,0.78401 -0.0373,0.52266 -0.0373,1.36267 v 8.43734 q 0,0.63467 0.0933,0.93334 0.0933,0.28 0.29867,0.28 0.0933,0 0.31734,-0.0187 0.24266,-0.0187 0.48533,-0.0373 0.336,-0.0187 0.336,0.168 0,0.13067 -0.0933,0.24267 -0.0747,0.0933 -0.168,0.0933 -0.52267,0.0747 -1.02667,0.224 -0.504,0.13067 -1.15734,0.41067 -0.14933,0.0747 -0.20533,0.0933 -0.0373,0.0187 -0.0933,0.0187 z m -1.88534,-1.064 q 0.48533,0 0.952,-0.24267 0.46667,-0.26133 0.82134,-0.672 l 0.0187,-3.36001 q 0,-0.504 -0.29866,-0.98933 -0.28001,-0.48534 -0.80267,-0.784 -0.504,-0.31734 -1.19467,-0.31734 -0.42934,0 -0.97067,0.26134 -0.54133,0.26133 -0.93334,0.93333 -0.392,0.65333 -0.392,1.904 0,1.06401 0.31734,1.71734 0.31733,0.63467 0.76533,0.97067 0.46667,0.336 0.93334,0.46667 0.48533,0.112 0.784,0.112 z"
     style="font-style:normal;font-variant:normal;font-weight:normal;font-stretch:normal;font-size:18.6667px;font-family:'EB Garamond';-inkscape-font-specification:'EB Garamond';fill:#ee6677;fill-opacity:1;stroke-width:0.999652"
     id="path195" /><path
     d="m 411.65835,346.67765 q -0.336,0 -0.69066,-0.26133 -0.336,-0.26133 -0.57867,-0.63467 -0.224,-0.37333 -0.224,-0.70933 0,-0.59734 0.31733,-0.93334 0.31734,-0.336 1.008,-0.616 l 1.90401,-0.784 q 0.37333,-0.14933 0.42933,-0.26133 0.0747,-0.112 0.0933,-0.48534 l 0.0373,-1.19467 q 0.0187,-0.48533 -0.28,-0.84 -0.28,-0.35466 -0.82134,-0.35466 -0.28,0 -0.56,0.0933 -0.28,0.0933 -0.46667,0.24267 -0.112,0.0747 -0.14933,0.224 -0.0373,0.14933 -0.0373,0.31733 0,0.0747 0,0.168 0.0187,0.0933 0.0187,0.168 0,0.0933 -0.24266,0.26133 -0.224,0.14934 -0.52267,0.28001 -0.28,0.112 -0.46667,0.112 -0.0933,0 -0.14933,-0.0373 -0.056,-0.056 -0.056,-0.13067 0,-0.29866 0.18666,-0.63466 0.20534,-0.35467 0.56001,-0.65334 0.42933,-0.392 0.93333,-0.69067 0.504,-0.29866 0.98934,-0.46666 0.48533,-0.168 0.85866,-0.168 0.67201,0 1.10134,0.48533 0.448,0.46667 0.42933,1.176 l -0.0933,4.48001 q -0.0187,0.392 0.168,0.63467 0.20533,0.24267 0.504,0.24267 0.46667,0 0.69067,-0.20534 0.0933,-0.0933 0.14933,-0.0933 0.0933,0 0.14934,0.056 0.056,0.056 0.056,0.14933 0,0.20534 -0.20534,0.41067 -0.29866,0.29867 -0.65333,0.46667 -0.336,0.18666 -0.63467,0.18666 -0.85867,0 -1.36267,-0.97066 h -0.056 q -0.616,0.504 -1.176,0.728 -0.56,0.24266 -1.15734,0.24266 z m 0.87734,-0.896 q 0.37333,0 0.63467,-0.112 0.26133,-0.13066 0.46666,-0.336 0.0933,-0.0933 0.14934,-0.24266 0.0747,-0.16801 0.0933,-0.52267 l 0.0373,-0.91467 q 0.0187,-0.20533 -0.0187,-0.29867 -0.0373,-0.0933 -0.14934,-0.0933 -0.0373,0 -0.13066,0.0187 -0.0933,0.0187 -0.24267,0.0747 -0.98933,0.35467 -1.38134,0.74667 -0.37333,0.37333 -0.37333,0.69067 0,0.48533 0.28,0.74667 0.29867,0.24266 0.63467,0.24266 z"
     style="font-style:normal;font-variant:normal;font-weight:normal;font-stretch:normal;font-size:18.6667px;font-family:'EB Garamond';-inkscape-font-specification:'EB Garamond';fill:#ee6677;fill-opacity:1;stroke-width:0.999652"
     id="path197" /></g>
</svg>
