<?xml version="1.0" encoding="UTF-8" standalone="no"?>
<svg
   xmlns:dc="http://purl.org/dc/elements/1.1/"
   xmlns:cc="http://creativecommons.org/ns#"
   xmlns:rdf="http://www.w3.org/1999/02/22-rdf-syntax-ns#"
   xmlns:svg="http://www.w3.org/2000/svg"
   xmlns="http://www.w3.org/2000/svg"
   xmlns:sodipodi="http://sodipodi.sourceforge.net/DTD/sodipodi-0.dtd"
   xmlns:inkscape="http://www.inkscape.org/namespaces/inkscape"
   inkscape:version="1.0 (4035a4f, 2020-05-01)"
   sodipodi:docname="efecto-invernadero.svg"
   id="svg228"
   xml:space="preserve"
   enable-background="new 0 0 442.7 220.7"
   viewBox="0 0 442.7 220.7"
   y="0px"
   x="0px"
   version="1.1"><metadata
   id="metadata234"><rdf:RDF><cc:Work
       rdf:about=""><dc:format>image/svg+xml</dc:format><dc:type
         rdf:resource="http://purl.org/dc/dcmitype/StillImage" /></cc:Work></rdf:RDF></metadata><defs
   id="defs232" /><sodipodi:namedview
   inkscape:current-layer="svg228"
   inkscape:window-maximized="0"
   inkscape:window-y="0"
   inkscape:window-x="0"
   inkscape:cy="110.35"
   inkscape:cx="221.35"
   inkscape:zoom="2.4757172"
   showgrid="false"
   id="namedview230"
   inkscape:window-height="900"
   inkscape:window-width="1440"
   inkscape:pageshadow="2"
   inkscape:pageopacity="0"
   guidetolerance="10"
   gridtolerance="10"
   objecttolerance="10"
   borderopacity="1"
   bordercolor="#666666"
   pagecolor="#ffffff" />
<g
   id="Layer_2">
	<circle
   id="circle10"
   r="5"
   cy="114.8"
   cx="241.9"
   stroke-miterlimit="10"
   stroke="#000000"
   fill="#FFFFFF" />
	<circle
   id="circle12"
   r="5"
   cy="114.8"
   cx="281.9"
   stroke-miterlimit="10"
   stroke="#000000"
   fill="#FFFFFF" />
	<circle
   id="circle14"
   r="5"
   cy="114.8"
   cx="202.8"
   stroke-miterlimit="10"
   stroke="#000000"
   fill="#FFFFFF" />
	<circle
   id="circle16"
   r="5"
   cy="124.8"
   cx="162.8"
   stroke-miterlimit="10"
   stroke="#000000"
   fill="#FFFFFF" />
	<circle
   id="circle18"
   r="5"
   cy="144.8"
   cx="182.8"
   stroke-miterlimit="10"
   stroke="#000000"
   fill="#FFFFFF" />
	<circle
   id="circle20"
   r="5"
   cy="140.8"
   cx="220.8"
   stroke-miterlimit="10"
   stroke="#000000"
   fill="#8DC63F" />
	<circle
   id="circle22"
   r="5"
   cy="140.8"
   cx="260.9"
   stroke-miterlimit="10"
   stroke="#000000"
   fill="#FFFFFF" />
	<circle
   id="circle24"
   r="5.2"
   cy="90.6"
   cx="263.1"
   stroke-miterlimit="10"
   stroke-width="1.0459"
   stroke="#000000"
   fill="#8DC63F" />
	<circle
   id="circle26"
   r="5"
   cy="88.8"
   cx="220.8"
   stroke-miterlimit="10"
   stroke="#000000"
   fill="#FFFFFF" />
	<circle
   id="circle28"
   r="5"
   cy="90.8"
   cx="180.8"
   stroke-miterlimit="10"
   stroke="#000000"
   fill="#FFFFFF" />
	<circle
   id="circle30"
   r="5"
   cy="137"
   cx="123.9"
   stroke-miterlimit="10"
   stroke="#000000"
   fill="#FFFFFF" />
	<circle
   id="circle32"
   r="5"
   cy="148.7"
   cx="86.6"
   stroke-miterlimit="10"
   stroke="#000000"
   fill="#FFFFFF" />
	<circle
   id="circle34"
   r="5"
   cy="168"
   cx="44.7"
   stroke-miterlimit="10"
   stroke="#000000"
   fill="#8DC63F" />
	<circle
   id="circle36"
   r="5"
   cy="180.1"
   cx="73.5"
   stroke-miterlimit="10"
   stroke="#000000"
   fill="#FFFFFF" />
	<circle
   id="circle38"
   r="5"
   cy="164.1"
   cx="111.6"
   stroke-miterlimit="10"
   stroke="#000000"
   fill="#8DC63F" />
	<circle
   id="circle40"
   r="5"
   cy="151.1"
   cx="149.8"
   stroke-miterlimit="10"
   stroke="#000000"
   fill="#FFFFFF" />
	<circle
   id="circle42"
   r="5"
   cy="106.4"
   cx="134.2"
   stroke-miterlimit="10"
   stroke="#000000"
   fill="#8DC63F" />
	<circle
   id="circle44"
   r="5"
   cy="118.5"
   cx="96"
   stroke-miterlimit="10"
   stroke="#000000"
   fill="#FFFFFF" />
	<circle
   id="circle46"
   r="5"
   cy="132.4"
   cx="58.4"
   stroke-miterlimit="10"
   stroke="#000000"
   fill="#8DC63F" />
	<circle
   id="circle48"
   r="5"
   cy="198.7"
   cx="44.7"
   stroke-miterlimit="10"
   stroke="#000000"
   fill="#FFFFFF" />
	<circle
   id="circle50"
   r="5"
   cy="202.7"
   cx="8.7"
   stroke-miterlimit="10"
   stroke="#000000"
   fill="#FFFFFF" />
	<circle
   id="circle52"
   r="5"
   cy="177"
   cx="427.8"
   stroke-miterlimit="10"
   stroke="#000000"
   fill="#FFFFFF" />
	<circle
   id="circle54"
   r="5"
   cy="153.5"
   cx="395.3"
   stroke-miterlimit="10"
   stroke="#000000"
   fill="#8DC63F" />
	<circle
   id="circle56"
   r="5"
   cy="185.2"
   cx="394.7"
   stroke-miterlimit="10"
   stroke="#000000"
   fill="#8DC63F" />
	<circle
   id="circle58"
   r="5"
   cy="208.6"
   cx="427.1"
   stroke-miterlimit="10"
   stroke="#000000"
   fill="#FFFFFF" />
	<circle
   id="circle60"
   r="5"
   cy="167.6"
   cx="10.1"
   stroke-miterlimit="10"
   stroke="#000000"
   fill="#FFFFFF" />
	<circle
   id="circle62"
   r="5"
   cy="219.3"
   cx="22.7"
   stroke-miterlimit="10"
   stroke="#000000"
   fill="#8DC63F" />
	<circle
   id="circle64"
   r="5"
   cy="166.5"
   cx="457.6"
   stroke-miterlimit="10"
   stroke="#000000"
   fill="#FFFFFF" />
	<circle
   id="circle66"
   r="5"
   cy="144.6"
   cx="424"
   stroke-miterlimit="10"
   stroke="#000000"
   fill="#FFFFFF" />
	<circle
   id="circle68"
   r="5"
   cy="140.5"
   cx="356.7"
   stroke-miterlimit="10"
   stroke="#000000"
   fill="#FFFFFF" />
	<circle
   id="circle70"
   r="5"
   cy="128.2"
   cx="319.7"
   stroke-miterlimit="10"
   stroke="#000000"
   fill="#FFFFFF" />
	<circle
   id="circle72"
   r="5"
   cy="146"
   cx="290.5"
   stroke-miterlimit="10"
   stroke="#000000"
   fill="#8DC63F" />
	<circle
   id="circle74"
   r="5"
   cy="158.6"
   cx="328.5"
   stroke-miterlimit="10"
   stroke="#000000"
   fill="#FFFFFF" />
	<circle
   id="circle76"
   r="5"
   cy="171.2"
   cx="366.5"
   stroke-miterlimit="10"
   stroke="#000000"
   fill="#FFFFFF" />
	<circle
   id="circle78"
   r="5"
   cy="121.9"
   cx="382.9"
   stroke-miterlimit="10"
   stroke="#000000"
   fill="#FFFFFF" />
	<circle
   id="circle80"
   r="5"
   cy="109.2"
   cx="345"
   stroke-miterlimit="10"
   stroke="#000000"
   fill="#8DC63F" />
	<circle
   id="circle82"
   r="5"
   cy="98.5"
   cx="306.3"
   stroke-miterlimit="10"
   stroke="#000000"
   fill="#FFFFFF" />
	<circle
   id="circle84"
   r="5"
   cy="16.5"
   cx="306.3"
   stroke-miterlimit="10"
   stroke="#000000"
   fill="#FFFFFF" />
	<circle
   id="circle86"
   r="5"
   cy="29.8"
   cx="305.9"
   stroke-miterlimit="10"
   stroke="#000000"
   fill="#8DC63F" />
</g>
<g
   id="Layer_1">
	<path
   id="path89"
   d="M91.6,36.7c-5.9,3.8-8.8,8-8.8,12.5c0.1,4.8,3.1,8.9,8.8,12.5C76,62.5,71.8,69.8,79,83.6   c-13.8-7.2-21.1-3-21.8,12.5c-3.8-5.9-8-8.8-12.5-8.8c-4.7,0.1-8.9,3.1-12.5,8.8c-0.7-15.6-7.9-19.7-21.8-12.5   c7.2-13.8,3-21-12.5-21.8c5.9-3.8,8.8-8,8.8-12.5c-0.1-4.7-3.1-8.9-8.8-12.5c15.6-0.7,19.7-7.9,12.5-21.7   c13.8,7.1,21.1,3,21.8-12.5c3.7,5.7,7.8,8.6,12.5,8.7c4.6,0.1,8.8-2.8,12.5-8.7C57.9,18,65.2,22.2,79,15   C71.8,28.8,76,36.1,91.6,36.7z M44.7,20c-5.3,0-10.2,1.3-14.7,3.9c-4.5,2.6-8.1,6.2-10.7,10.7c-2.6,4.5-3.9,9.4-3.9,14.7   c0,5.3,1.3,10.2,3.9,14.7c2.6,4.5,6.1,8.1,10.7,10.7c4.5,2.6,9.4,3.9,14.7,3.9c5.3,0,10.2-1.3,14.7-3.9c4.5-2.6,8.1-6.1,10.7-10.7   c2.6-4.5,3.9-9.4,3.9-14.7c0-5.3-1.3-10.2-3.9-14.7c-2.6-4.5-6.1-8-10.7-10.7C55,21.3,50,20,44.7,20z M44.7,72.7   c-6.5,0-12-2.3-16.6-6.9c-4.6-4.6-6.9-10.1-6.9-16.6c0-6.5,2.3-12,6.9-16.6c4.6-4.6,10.1-6.9,16.6-6.9c6.5,0,12,2.3,16.6,6.9   c4.6,4.6,6.9,10.1,6.9,16.6s-2.3,12-6.9,16.6C56.7,70.4,51.2,72.7,44.7,72.7z"
   fill="#010101" />
	<circle
   id="circle91"
   r="312"
   cy="465.6"
   cx="231.2"
   fill="#010101" />
	<g
   id="g95">
		<path
   id="path93"
   d="M186.5,167.2c-8.8,0-16,7.2-16,16c0,8.8,7.2,16,16,16c8.8,0,16-7.2,16-16    C202.5,174.4,195.4,167.2,186.5,167.2z M186.5,196.6c-7.4,0-13.3-6-13.3-13.3c0-7.4,6-13.3,13.3-13.3c7.4,0,13.3,6,13.3,13.3    C199.9,190.6,193.9,196.6,186.5,196.6z M191.5,174.6c-0.1-0.2-0.1-0.3-0.1-0.5c-0.9,0.5-1.8,1.1-2.6,1.7c0.4,0.1,1.5,0.2,1.3,0.8    c-0.1,0.4-2.6,4.5-3.3,5.8c0,0-0.5,0.7-0.4,0.8c-0.5-0.5-1-1-1.5-1.5c-0.5-0.5-1.6-1.1-0.8-1.9c-0.9,0-1.9,0.2-2.7-0.1    c0.4,0.8,0.6,1.7,0.8,2.6c0.2-0.3,0.4-0.7,0.8-0.6c0.3,0.1,0.5,0.5,0.7,0.7c0.3,0.3,0.6,0.4,0.9,0.7c0.4,0.4,0.8,0.8,1.2,1.3    c0.3,0.3,0.6,0.4,0.9,0.4c0.1,0,0.1,0,0.2,0c0.4-0.1,0.8-0.3,1-0.7c1.1-2.1,2.8-6.1,3.3-6.8c0.4-0.6,0.9-0.4,1.5-0.1    c-0.2-0.5-0.5-1-0.7-1.5C191.8,175.3,191.6,175,191.5,174.6z M185.2,192.6h2.7v1.3h-2.7V192.6z M185.2,171.2h2.7v1.3h-2.7V171.2z     M174.5,181.9h2.7v1.3h-2.7V181.9z M195.9,181.9h2.7v1.3h-2.7V181.9z"
   fill="#00AEEF" />
	</g>
	<g
   id="g101">
		<circle
   id="circle97"
   r="5"
   cy="186"
   cx="131.3"
   fill="#ED1C24" />
		<circle
   id="circle99"
   r="10"
   cy="186"
   cx="131.3"
   stroke-miterlimit="10"
   stroke-width="3"
   stroke="#ED1C24"
   fill="none" />
	</g>
	<g
   id="g111">
		<g
   id="g109">
			<polyline
   id="polyline103"
   points="68,85.3 66.7,101.8 81.8,106.9      79.8,122.3 95.7,128.5 93.6,143.8 108.3,148.2 106,163.2 120.2,167.4 125.7,176    "
   stroke-miterlimit="10"
   stroke-width="6.5494"
   stroke="#F9ED32"
   fill="none" />
			<g
   id="g107">
				<path
   id="path105"
   d="M131,184.4c-4-3-9.5-6.3-14.1-7.6l8.1-1.8l5-6.6C129.4,173.1,130,179.5,131,184.4z"
   fill="#F9ED32" />
			</g>
		</g>
	</g>
	<g
   id="g115">
		<path
   id="path113"
   d="M290.1,80.9"
   fill="none" />
	</g>
	<g
   id="g125">
		<g
   id="g123">
			<path
   id="path117"
   d="M240.5,168.9c0,0,3,3.4,10-9.8     c7-13.2-6.8-19.5-1.7-34.4c4.1-12.1,10-16.8,12.4-23.5"
   stroke-miterlimit="10"
   stroke-width="3.3559"
   stroke="#ED1C24"
   fill="none" />
			<g
   id="g121">
				<path
   id="path119"
   d="M262.3,96.3c0.3,2.5,1.1,5.7,2.3,7.9l-3.6-2.3l-4.2,0.5C258.8,100.9,260.9,98.4,262.3,96.3z"
   fill="#ED1C24" />
			</g>
		</g>
	</g>
	<g
   id="g131">
		<circle
   id="circle127"
   r="5"
   cy="170"
   cx="242.4"
   fill="#ED1C24" />
		<circle
   id="circle129"
   r="10"
   cy="170"
   cx="242.4"
   stroke-miterlimit="10"
   stroke-width="3"
   stroke="#ED1C24"
   fill="none" />
	</g>
	<g
   id="g137">
		<circle
   id="circle133"
   r="2.2"
   cy="90.7"
   cx="263"
   fill="#ED1C24" />
		<circle
   id="circle135"
   r="4.5"
   cy="90.7"
   cx="263"
   stroke-miterlimit="10"
   stroke-width="1.35"
   stroke="#ED1C24"
   fill="none" />
	</g>
	<g
   id="g147">
		<g
   id="g145">
			<path
   id="path139"
   d="M266.9,92.6c0,0-0.9,0.6,0.8,2.8     c1.7,2.2,4.1-0.7,6.3,1.1c1.7,1.4,2,3,2.9,3.8"
   stroke-miterlimit="10"
   stroke-width="0.7183"
   stroke="#ED1C24"
   fill="none" />
			<g
   id="g143">
				<path
   id="path141"
   d="M277.8,100.9c-0.5-0.1-1.2-0.2-1.7-0.2l0.7-0.5l0.2-0.9C277.1,99.8,277.5,100.5,277.8,100.9z"
   fill="#ED1C24" />
			</g>
		</g>
	</g>
	<g
   id="g157">
		<g
   id="g155">
			<path
   id="path149"
   d="M267.1,88.5c0,0-0.1,1,2.7,1.1     c2.8,0,2-3.7,4.8-4.2c2.2-0.4,3.6,0.2,4.8,0.1"
   stroke-miterlimit="10"
   stroke-width="0.7183"
   stroke="#ED1C24"
   fill="none" />
			<g
   id="g153">
				<path
   id="path151"
   d="M280.4,85.1c-0.4,0.3-0.9,0.8-1.2,1.3l0-0.9l-0.6-0.7C279.1,84.9,279.8,85,280.4,85.1z"
   fill="#ED1C24" />
			</g>
		</g>
	</g>
	<g
   id="g167">
		<g
   id="g165">
			<path
   id="path159"
   d="M262.3,86.2c0,0,0.9,0.5,2.1-2     c1.3-2.5-2.4-3.4-1.7-6.1c0.5-2.2,1.8-3.1,2.2-4.3"
   stroke-miterlimit="10"
   stroke-width="0.7183"
   stroke="#ED1C24"
   fill="none" />
			<g
   id="g163">
				<path
   id="path161"
   d="M265,72.8c0.1,0.5,0.3,1.2,0.6,1.6l-0.8-0.4l-0.9,0.2C264.3,73.8,264.7,73.2,265,72.8z"
   fill="#ED1C24" />
			</g>
		</g>
	</g>
	<g
   id="g177">
		<g
   id="g175">
			<path
   id="path169"
   d="M258.7,88.2c0,0,1-0.3-0.1-2.9     c-1.1-2.6-4.1-0.3-5.8-2.6c-1.3-1.8-1.2-3.4-1.9-4.4"
   stroke-miterlimit="10"
   stroke-width="0.7183"
   stroke="#ED1C24"
   fill="none" />
			<g
   id="g173">
				<path
   id="path171"
   d="M250.2,77.4c0.5,0.3,1.1,0.5,1.7,0.6l-0.8,0.3l-0.4,0.8C250.6,78.6,250.4,77.9,250.2,77.4z"
   fill="#ED1C24" />
			</g>
		</g>
	</g>
	<g
   id="g187">
		<g
   id="g185">
			<path
   id="path179"
   d="M259,92.7c0,0,0.1-1-2.7-1.1     c-2.8-0.1-2,3.6-4.8,4.1c-2.2,0.4-3.6-0.3-4.8-0.2"
   stroke-miterlimit="10"
   stroke-width="0.7183"
   stroke="#ED1C24"
   fill="none" />
			<g
   id="g183">
				<path
   id="path181"
   d="M245.6,95.8c0.4-0.3,1-0.8,1.2-1.3l-0.1,0.9l0.5,0.7C246.9,96,246.2,95.8,245.6,95.8z"
   fill="#ED1C24" />
			</g>
		</g>
	</g>
	<g
   id="g197">
		<g
   id="g195">
			<line
   id="line189"
   y2="43.1"
   x2="308.4"
   y1="43.1"
   x1="298.8"
   stroke-miterlimit="10"
   stroke-width="3"
   stroke="#ED1C24"
   fill="none" />
			<g
   id="g193">
				<path
   id="path191"
   d="M313.8,43.1c-2.6,0.9-5.7,2.6-7.7,4.3l1.5-4.3l-1.5-4.3C308.1,40.6,311.3,42.2,313.8,43.1z"
   fill="#ED1C24" />
			</g>
		</g>
	</g>
	<g
   id="g207">
		<g
   id="g205">
			<line
   id="line199"
   y2="56.5"
   x2="308.4"
   y1="56.5"
   x1="298.8"
   stroke-miterlimit="10"
   stroke-width="3"
   stroke="#F9ED32"
   fill="none" />
			<g
   id="g203">
				<path
   id="path201"
   d="M313.8,56.5c-2.6,0.9-5.7,2.6-7.7,4.3l1.5-4.3l-1.5-4.3C308.1,53.9,311.3,55.5,313.8,56.5z"
   fill="#F9ED32" />
			</g>
		</g>
	</g>
	<text
   id="text209"
   font-size="12px"
   font-family="MyriadPro-Regular"
   transform="translate(320,19.9985)"><tspan
     id="tspan236"
     style="font-style:normal;font-variant:normal;font-weight:normal;font-stretch:normal;font-family:'EB Garamond';-inkscape-font-specification:'EB Garamond'">Atmósfera</tspan></text>
	<text
   id="text211"
   font-size="12px"
   font-family="MyriadPro-Regular"
   transform="translate(320,33.3321)"><tspan
     id="tspan238"
     style="font-style:normal;font-variant:normal;font-weight:normal;font-stretch:normal;font-family:'EB Garamond';-inkscape-font-specification:'EB Garamond'">Gas de efecto invernadero</tspan></text>
	<text
   id="text213"
   font-size="12px"
   font-family="MyriadPro-Regular"
   transform="translate(320,46.6651)"><tspan
     id="tspan240"
     style="font-style:normal;font-variant:normal;font-weight:normal;font-stretch:normal;font-family:'EB Garamond';-inkscape-font-specification:'EB Garamond'">Radiación infrarroja</tspan></text>
	<text
   id="text215"
   font-size="12px"
   font-family="MyriadPro-Regular"
   transform="translate(320,59.9985)"><tspan
     id="tspan242"
     style="font-style:normal;font-variant:normal;font-weight:normal;font-stretch:normal;font-family:'EB Garamond';-inkscape-font-specification:'EB Garamond'">Luz solar</tspan></text>
	<g
   id="g225">
		<g
   id="g223">
			<path
   id="path217"
   d="M146.2,180.8c20.5-12.3,40.3-20.9,75-12.9"
   stroke-miterlimit="10"
   stroke="#FFFFFF"
   fill="none" />
			<g
   id="g221">
				<path
   id="path219"
   d="M227,169.4c-3,0.3-6.9,1.2-9.4,2.6l2.8-4.2l-0.5-5C221.5,165.1,224.5,167.7,227,169.4z"
   fill="#FFFFFF" />
			</g>
		</g>
	</g>
</g>
</svg>
