<?xml version="1.0" encoding="UTF-8" standalone="no"?>
<svg
   version="1.1"
   x="0"
   y="0"
   width="674.45172"
   height="732.49579"
   viewBox="0 0 674.45172 732.49579"
   id="svg155"
   sodipodi:docname="curva-peralte.svg"
   inkscape:version="1.2 (dc2aeda, 2022-05-15)"
   xmlns:inkscape="http://www.inkscape.org/namespaces/inkscape"
   xmlns:sodipodi="http://sodipodi.sourceforge.net/DTD/sodipodi-0.dtd"
   xmlns="http://www.w3.org/2000/svg"
   xmlns:svg="http://www.w3.org/2000/svg"
   xmlns:rdf="http://www.w3.org/1999/02/22-rdf-syntax-ns#"
   xmlns:cc="http://creativecommons.org/ns#"
   xmlns:dc="http://purl.org/dc/elements/1.1/">
  <metadata
     id="metadata161">
    <rdf:RDF>
      <cc:Work
         rdf:about="">
        <dc:format>image/svg+xml</dc:format>
        <dc:type
           rdf:resource="http://purl.org/dc/dcmitype/StillImage" />
      </cc:Work>
    </rdf:RDF>
  </metadata>
  <defs
     id="defs159">
    <linearGradient
       id="linearGradient3236"
       inkscape:swatch="solid">
      <stop
         style="stop-color:#000000;stop-opacity:1;"
         offset="0"
         id="stop3234" />
    </linearGradient>
    <linearGradient
       id="linearGradient3204"
       inkscape:swatch="solid">
      <stop
         style="stop-color:#dce6f2;stop-opacity:1;"
         offset="0"
         id="stop3202" />
    </linearGradient>
    <linearGradient
       id="linearGradient3196"
       inkscape:swatch="solid">
      <stop
         style="stop-color:#dce6f2;stop-opacity:1;"
         offset="0"
         id="stop3194" />
    </linearGradient>
    <linearGradient
       id="linearGradient3190"
       inkscape:swatch="solid">
      <stop
         style="stop-color:#dce6f2;stop-opacity:1;"
         offset="0"
         id="stop3188" />
    </linearGradient>
    <radialGradient
       id="SVGID_1_"
       cx="320.81931"
       cy="30.439699"
       r="71.976997"
       gradientUnits="userSpaceOnUse"
       gradientTransform="translate(2.686896,3.7060224)">
      <stop
         offset="0"
         style="stop-color:#B9CDE5"
         id="stop14" />
      <stop
         offset="1"
         style="stop-color:#345A88"
         id="stop16" />
    </radialGradient>
    <radialGradient
       id="radialGradient1421"
       cx="320.81931"
       cy="30.439699"
       r="71.976997"
       gradientUnits="userSpaceOnUse">
      <stop
         offset="0"
         style="stop-color:#B9CDE5"
         id="stop1417" />
      <stop
         offset="1"
         style="stop-color:#345A88"
         id="stop1419" />
    </radialGradient>
  </defs>
  <sodipodi:namedview
     pagecolor="#ffffff"
     bordercolor="#666666"
     borderopacity="1"
     objecttolerance="10"
     gridtolerance="10"
     guidetolerance="10"
     inkscape:pageopacity="0"
     inkscape:pageshadow="2"
     inkscape:window-width="1280"
     inkscape:window-height="800"
     id="namedview157"
     showgrid="false"
     showguides="false"
     inkscape:zoom="1.0088143"
     inkscape:cx="314.23028"
     inkscape:cy="340.99437"
     inkscape:window-x="1920"
     inkscape:window-y="213"
     inkscape:window-maximized="0"
     inkscape:current-layer="svg155"
     inkscape:showpageshadow="2"
     inkscape:pagecheckerboard="0"
     inkscape:deskcolor="#d1d1d1" />
  <style
     type="text/css"
     id="style2">
	.st0{fill:#B9CDE5;stroke:#000;stroke-width:2;stroke-linejoin:round;}
	.st1{fill:#DCE6F2;stroke:#000;stroke-width:2;stroke-linejoin:round;}
	.st2{fill:#7FA2CF;stroke:#000;stroke-width:2;stroke-linejoin:round;}
	.st3{fill:#7FA2CF;fill-opacity:0.5;}
	.st4{fill:url(#SVGID_1_);stroke:#000;stroke-width:0.5;}
	.st5{fill:none;stroke:#953735;stroke-width:10;}
	.st6{fill:#953735;}
	.st7{fill:none;stroke:#7FA2CF;stroke-width:10;stroke-dasharray:11,7;}
	.st8{fill:#7FA2CF;}
	.st9{fill:none;stroke:#000;stroke-width:4;stroke-dasharray:11,3;}
	.st10{fill:#A5A6A6;stroke:#345A88;stroke-width:2;}
	.st11{fill:#7FA2CF;stroke:#345A88;stroke-width:4;}
	.st12{fill:none;stroke:#953735;stroke-width:6;stroke-linecap:round;}
	.st13{fill:none;stroke:#345A88;stroke-width:6;stroke-linecap:round;stroke-dasharray:11,11;}
	.st14{fill:#345A88;}
	.st15{fill:none;stroke:#000;stroke-width:5;stroke-linecap:round;}
	.st16{fill:none;stroke:#345A88;stroke-width:5;stroke-dasharray:11,3;}
	.st17{font-family:Liberation Sans,Arial;}
	.st18{font-size:36px;}
	.st19{font-size:41px;}
	.st20{font-style:italic;}
	.st21{font-family:Liberation Serif, Times New Roman, serif;}
	.st22{font-size:48px;}

</style>
  <path
     id="path282"
     style="fill:#b9cde5;fill-opacity:1;stroke:#000000;stroke-width:1.54444px;stroke-linecap:butt;stroke-linejoin:miter;stroke-opacity:1"
     d="M 307.04553,0.77463142 C 212.25477,0.95573142 106.61217,12.000531 2.217143,42.891411 L 192.81082,249.3901 c -3.08557,-2.71989 120.42708,-39.07298 250.38713,0.19344 L 649.08035,42.891411 c 0,0 -147.93942,-42.48747958 -342.03482,-42.11677958 z"
     inkscape:connector-curvature="0"
     sodipodi:nodetypes="sccccs" />
  <path
     id="path1196"
     style="fill:#dce6f2;fill-opacity:1;fill-rule:evenodd;stroke:#000000;stroke-width:2.28806;stroke-miterlimit:4;stroke-dasharray:none;stroke-opacity:1"
     d="m 318.41781,233.05254 c -75.22469,-0.30443 -125.60699,16.54647 -125.60699,16.54647 v 46.1551 c 129.80438,-37.61497 250.38713,-0.0189 250.38713,-0.0189 v -46.15167 c -43.38679,-14.16217 -88.04244,-16.3823 -124.78014,-16.53097 z"
     inkscape:connector-curvature="0"
     sodipodi:nodetypes="sccccs" />
  <polygon
     class="st1"
     points="286.9,238.2 286.9,283.2 204.4,179 204.4,38.2 "
     id="polygon8"
     style="fill:#dce6f2;stroke:#000000;stroke-width:2;stroke-linejoin:round"
     transform="matrix(2.3094897,0,0,1.0306192,-469.7502,3.8978734)" />
  <polygon
     class="st2"
     points="401.9,238.2 401.9,283.2 484.4,179 484.4,38.2 "
     id="polygon10"
     style="fill:#7fa2cf;stroke:#000000;stroke-width:2;stroke-linejoin:round"
     transform="matrix(2.4954796,0,0,1.034267,-559.73264,3.3831584)" />
  <path
     class="st3"
     d="m 404.58691,50.806022 c 21,-8.9 58.3,0.2 25.6,41.499999 -17.6,22.199999 -39.5,34.399999 -71.1,34.399999 -31.6,0 16.4,-63.599998 45.5,-75.899998 z"
     id="path12"
     inkscape:connector-curvature="0"
     style="fill:#7fa2cf;fill-opacity:0.5" />
  <circle
     class="st4"
     cx="350.68689"
     cy="70.106026"
     r="57.099998"
     id="circle19"
     style="fill:url(#SVGID_1_);stroke:#000000;stroke-width:0.5" />
  <g
     id="g33"
     transform="translate(2.686896,3.7060224)">
    <g
       id="g31">
      <line
         class="st5"
         x1="159.60001"
         y1="70.099998"
         x2="346.70001"
         y2="70.099998"
         id="line21"
         style="fill:none;stroke:#953735;stroke-width:10" />
      <g
         id="g25">
        <polygon
           class="st6"
           points="164.3,70.1 170.3,56 137,70.1 170.3,84.2 "
           id="polygon23"
           style="fill:#953735" />
      </g>
      <g
         id="g29">
        <circle
           class="st6"
           cx="346.70001"
           cy="70.099998"
           r="11.3"
           id="circle27"
           style="fill:#953735" />
      </g>
    </g>
  </g>
  <g
     id="g43"
     transform="translate(2.686896,3.7060224)">
    <g
       id="g41">
      <g
         id="g39">
        <polygon
           class="st8"
           points="302.6,377.1 296.2,391 330,378 297.1,362.8 "
           id="polygon37"
           style="fill:#7fa2cf" />
      </g>
    </g>
  </g>
  <g
     id="g57"
     transform="translate(10.686896,7.7060224)">
    <g
       id="g55">
      <path
         class="st9"
         d="m 484.57321,206.31793 c 0,0 16.8,17 18.7,32.5"
         id="path45"
         inkscape:connector-curvature="0"
         style="fill:none;stroke:#000000;stroke-width:4;stroke-dasharray:11, 3"
         sodipodi:nodetypes="cc" />
      <g
         id="g49" />
      <g
         id="g53">
        <polygon
           points="461.5,200.7 457.5,213 451.7,201.4 456.8,203.9 "
           id="polygon51"
           transform="translate(46.622466,36.522412)" />
      </g>
    </g>
    <polygon
       points="429.9,170.1 440.2,177.9 438.7,172.5 442.7,168.5 "
       id="polygon47"
       transform="rotate(18.510512,359.77002,324.84615)" />
  </g>
  <polygon
     class="st10"
     points="191.2,410.2 205.3,410.2 433.1,633.2 418.9,633.3 "
     id="polygon59"
     style="fill:#a5a6a6;stroke:#345a88;stroke-width:2"
     transform="translate(2.686896,3.7060224)" />
  <circle
     class="st11"
     cx="349.68689"
     cy="478.10602"
     r="52.5"
     id="circle61"
     style="fill:#7fa2cf;stroke:#345a88;stroke-width:4" />
  <g
     id="g71"
     transform="translate(2.686896,3.7060224)">
    <g
       id="g69">
      <line
         class="st12"
         x1="347"
         y1="474.39999"
         x2="347"
         y2="676.59998"
         id="line63"
         style="fill:none;stroke:#953735;stroke-width:6;stroke-linecap:round" />
      <g
         id="g67">
        <polygon
           class="st6"
           points="347,672.9 358.1,668.2 347,694.5 335.9,668.2 "
           id="polygon65"
           style="fill:#953735" />
      </g>
    </g>
  </g>
  <g
     id="g81"
     transform="translate(2.686896,3.7060224)">
    <g
       id="g79">
      <line
         class="st12"
         x1="163.60597"
         y1="688.82092"
         x2="295.60596"
         y2="540.52094"
         id="line73"
         style="fill:none;stroke:#953735;stroke-width:6;stroke-linecap:round" />
      <g
         id="g77">
        <polygon
           class="st6"
           points="280.5,535.2 306.3,523 297.1,550 291.9,539.1 "
           id="polygon75"
           style="fill:#953735"
           transform="translate(1.2059766,4.2209182)" />
      </g>
    </g>
  </g>
  <line
     class="st13"
     x1="349.68692"
     y1="478.10602"
     x2="518.78687"
     y2="478.10602"
     id="line83"
     style="fill:none;stroke:#345a88;stroke-width:6;stroke-linecap:round;stroke-dasharray:11, 11" />
  <g
     id="g87"
     transform="translate(2.686896,3.7060224)">
    <polygon
       class="st14"
       points="512.4,474.4 507.7,463.3 534,474.4 507.7,485.5 "
       id="polygon85"
       style="fill:#345a88" />
  </g>
  <line
     class="st15"
     x1="319.38092"
     y1="542.63885"
     x2="319.38092"
     y2="692.53888"
     id="line93"
     style="fill:none;stroke:#000000;stroke-width:5;stroke-linecap:round" />
  <line
     class="st15"
     x1="299.18689"
     y1="523.30304"
     x2="149.3869"
     y2="523.30304"
     id="line95"
     style="fill:none;stroke:#000000;stroke-width:5;stroke-linecap:round" />
  <g
     id="g109"
     transform="translate(2.686896,3.7060224)">
    <g
       id="g107">
      <path
         class="st16"
         d="m 260.2,600.71494 c 6.2,10.6 21.9,18.7 41.3,20.9"
         id="path97"
         inkscape:connector-curvature="0"
         style="fill:none;stroke:#345a88;stroke-width:5;stroke-dasharray:11, 3" />
      <g
         id="g101">
        <polygon
           class="st14"
           points="260.8,598.3 267.7,599.9 257.3,587.5 256,603.6 "
           id="polygon99"
           style="fill:#345a88"
           transform="translate(0,3.0149415)" />
      </g>
      <g
         id="g105">
        <polygon
           class="st14"
           points="300.8,618.4 297.6,612.1 312.1,619.2 296.9,624.3 "
           id="polygon103"
           style="fill:#345a88"
           transform="translate(0,3.0149415)" />
      </g>
    </g>
  </g>
  <g
     id="g123"
     transform="translate(2.686896,3.7060224)">
    <g
       id="g121">
      <path
         class="st16"
         d="m 228.8,463.9 c -10.6,6.2 -18.7,21.9 -20.9,41.3"
         id="path111"
         inkscape:connector-curvature="0"
         style="fill:none;stroke:#345a88;stroke-width:5;stroke-dasharray:11, 3" />
      <g
         id="g115">
        <polygon
           class="st14"
           points="222.9,459.7 228.1,464.5 226.6,471.4 239,461 "
           id="polygon113"
           style="fill:#345a88" />
      </g>
      <g
         id="g119">
        <polygon
           class="st14"
           points="202.2,500.5 208,504.5 214.3,501.3 207.3,515.8 "
           id="polygon117"
           style="fill:#345a88" />
      </g>
    </g>
  </g>
  <path
     class="st7"
     d="M 295.05515,380.98766 C 136.72155,374.07889 13.510565,321.86833 13.510565,258.40633 c 0,-68.10074 141.899235,-123.37091 316.948965,-123.37091 106.21311,0 408.32967,47.16451 277.12614,191.81317"
     id="path35"
     inkscape:connector-curvature="0"
     style="fill:none;stroke:#7fa2cf;stroke-width:9.6274;stroke-dasharray:10.5901, 6.73918"
     sodipodi:nodetypes="cssc" />
  <g
     aria-label="θ"
     id="text126"
     style="font-size:36px;font-family:'Liberation Sans', Arial"
     class="st17 st18">
    <path
       d="m 529.87905,219.09925 q -0.72,0 -1.368,-0.828 -0.612,-0.828 -1.008,-2.088 -0.36,-1.296 -0.36,-2.628 0,-1.872 0.432,-4.032 0.468,-2.196 1.26,-4.428 0.792,-2.268 1.836,-4.32 1.08,-2.088 2.304,-3.708 1.224,-1.656 2.556,-2.592 1.332,-0.972 2.628,-0.972 1.656,0 2.376,1.62 0.72,1.584 0.72,4.68 0,1.692 -0.504,3.78 -0.468,2.052 -1.332,4.248 -0.864,2.16 -2.016,4.176 -1.116,2.016 -2.412,3.636 -1.26,1.584 -2.592,2.52 -1.296,0.936 -2.52,0.936 z m 0.936,-2.916 q 0.9,0 1.872,-0.792 0.972,-0.792 1.908,-2.124 0.972,-1.332 1.836,-2.952 0.864,-1.656 1.512,-3.348 0.144,-0.288 0.072,-0.396 -0.036,-0.144 -0.36,-0.144 l -7.272,-0.036 q -0.216,0 -0.36,0.18 -0.144,0.18 -0.216,0.36 -0.324,0.9 -0.684,2.124 -0.36,1.224 -0.648,2.484 -0.252,1.26 -0.252,2.304 0,1.08 0.54,1.728 0.576,0.612 2.052,0.612 z m 0.324,-11.52 h 7.2 q 0.432,0 0.576,-0.468 0.288,-0.9 0.54,-1.944 0.252,-1.08 0.396,-2.052 0.18,-0.972 0.18,-1.512 0,-1.224 -0.576,-1.836 -0.576,-0.612 -1.98,-0.612 -0.72,0 -1.728,0.756 -1.008,0.72 -2.232,2.448 -1.188,1.728 -2.592,4.752 -0.072,0.18 -0.072,0.324 0.036,0.144 0.288,0.144 z"
       style="font-style:italic;font-family:'EB Garamond';-inkscape-font-specification:'EB Garamond Italic'"
       id="path259" />
  </g>
  <g
     aria-label="θ"
     id="text128"
     style="font-size:36px;font-family:'Liberation Sans', Arial"
     class="st17 st18">
    <path
       d="m 176.99721,487.70401 q -0.72,0 -1.368,-0.828 -0.612,-0.828 -1.008,-2.088 -0.36,-1.296 -0.36,-2.628 0,-1.872 0.432,-4.032 0.468,-2.196 1.26,-4.428 0.792,-2.268 1.836,-4.32 1.08,-2.088 2.304,-3.708 1.224,-1.656 2.556,-2.592 1.332,-0.972 2.628,-0.972 1.656,0 2.376,1.62 0.72,1.584 0.72,4.68 0,1.692 -0.504,3.78 -0.468,2.052 -1.332,4.248 -0.864,2.16 -2.016,4.176 -1.116,2.016 -2.412,3.636 -1.26,1.584 -2.592,2.52 -1.296,0.936 -2.52,0.936 z m 0.936,-2.916 q 0.9,0 1.872,-0.792 0.972,-0.792 1.908,-2.124 0.972,-1.332 1.836,-2.952 0.864,-1.656 1.512,-3.348 0.144,-0.288 0.072,-0.396 -0.036,-0.144 -0.36,-0.144 l -7.272,-0.036 q -0.216,0 -0.36,0.18 -0.144,0.18 -0.216,0.36 -0.324,0.9 -0.684,2.124 -0.36,1.224 -0.648,2.484 -0.252,1.26 -0.252,2.304 0,1.08 0.54,1.728 0.576,0.612 2.052,0.612 z m 0.324,-11.52 h 7.2 q 0.432,0 0.576,-0.468 0.288,-0.9 0.54,-1.944 0.252,-1.08 0.396,-2.052 0.18,-0.972 0.18,-1.512 0,-1.224 -0.576,-1.836 -0.576,-0.612 -1.98,-0.612 -0.72,0 -1.728,0.756 -1.008,0.72 -2.232,2.448 -1.188,1.728 -2.592,4.752 -0.072,0.18 -0.072,0.324 0.036,0.144 0.288,0.144 z"
       style="font-style:italic;font-family:'EB Garamond';-inkscape-font-specification:'EB Garamond Italic'"
       id="path316" />
  </g>
  <g
     aria-label="θ"
     id="text130"
     style="font-size:36px;font-family:'Liberation Sans', Arial"
     class="st17 st18">
    <path
       d="m 262.34792,661.93082 q -0.72,0 -1.368,-0.828 -0.612,-0.828 -1.008,-2.088 -0.36,-1.296 -0.36,-2.628 0,-1.872 0.432,-4.032 0.468,-2.196 1.26,-4.428 0.792,-2.268 1.836,-4.32 1.08,-2.088 2.304,-3.708 1.224,-1.656 2.556,-2.592 1.332,-0.972 2.628,-0.972 1.656,0 2.376,1.62 0.72,1.584 0.72,4.68 0,1.692 -0.504,3.78 -0.468,2.052 -1.332,4.248 -0.864,2.16 -2.016,4.176 -1.116,2.016 -2.412,3.636 -1.26,1.584 -2.592,2.52 -1.296,0.936 -2.52,0.936 z m 0.936,-2.916 q 0.9,0 1.872,-0.792 0.972,-0.792 1.908,-2.124 0.972,-1.332 1.836,-2.952 0.864,-1.656 1.512,-3.348 0.144,-0.288 0.072,-0.396 -0.036,-0.144 -0.36,-0.144 l -7.272,-0.036 q -0.216,0 -0.36,0.18 -0.144,0.18 -0.216,0.36 -0.324,0.9 -0.684,2.124 -0.36,1.224 -0.648,2.484 -0.252,1.26 -0.252,2.304 0,1.08 0.54,1.728 0.576,0.612 2.052,0.612 z m 0.324,-11.52 h 7.2 q 0.432,0 0.576,-0.468 0.288,-0.9 0.54,-1.944 0.252,-1.08 0.396,-2.052 0.18,-0.972 0.18,-1.512 0,-1.224 -0.576,-1.836 -0.576,-0.612 -1.98,-0.612 -0.72,0 -1.728,0.756 -1.008,0.72 -2.232,2.448 -1.188,1.728 -2.592,4.752 -0.072,0.18 -0.072,0.324 0.036,0.144 0.288,0.144 z"
       style="font-style:italic;font-family:'EB Garamond';-inkscape-font-specification:'EB Garamond Italic'"
       id="path313" />
  </g>
  <g
     aria-label="Fuerza centrípeta"
     id="text132"
     style="font-size:41px;font-family:'Liberation Sans', Arial;fill:#345a88"
     class="st8 st17 st19">
    <path
       d="m 407.99325,461.62126 q -0.533,0 -0.861,-0.123 -0.328,-0.082 -0.328,-0.328 0,-0.492 1.353,-0.738 1.558,-0.287 2.132,-0.943 0.615,-0.656 0.615,-2.173 v -17.302 q 0,-1.845 -0.492,-2.829 -0.451,-0.984 -2.009,-1.271 -0.697,-0.123 -1.025,-0.328 -0.328,-0.205 -0.328,-0.492 0,-0.246 0.328,-0.328 0.328,-0.123 0.861,-0.123 1.517,0 2.542,0.041 1.066,0.041 2.091,0.082 1.025,0 2.419,0 1.189,0 2.542,0 1.353,0 2.624,0 1.312,0 2.296,-0.205 1.025,-0.205 1.763,-0.205 0.205,0 0.451,0.082 0.246,0.082 0.287,0.287 0.082,0.451 0.123,1.353 0.041,0.861 0.041,1.681 0.041,0.82 0.041,1.107 0,0.861 -0.369,0.861 -0.205,0 -0.369,-0.123 -0.164,-0.164 -0.246,-0.369 -0.164,-0.697 -0.41,-1.189 -0.246,-0.533 -0.533,-0.82 -0.574,-0.656 -1.271,-0.861 -0.697,-0.246 -1.476,-0.246 h -5.207 q -0.943,0 -1.148,0.615 -0.205,0.615 -0.246,1.435 -0.041,0.779 -0.041,1.927 0,1.107 0,2.173 0,1.025 0,2.091 0,1.066 0.041,1.804 0,0.328 0.041,0.615 0.082,0.287 0.369,0.287 1.312,0 2.665,-0.041 1.353,-0.082 2.091,-0.082 0.902,0 1.558,-0.492 0.656,-0.492 0.943,-1.189 0.082,-0.164 0.328,-0.41 0.246,-0.287 0.41,-0.287 0.164,0 0.369,0.205 0.205,0.164 0.164,0.451 -0.041,0.697 -0.082,1.23 -0.041,0.533 -0.041,1.025 0,0.615 0.041,1.271 0.041,0.615 0.082,1.517 0,0.287 -0.082,0.492 -0.041,0.205 -0.287,0.205 -0.41,0 -0.656,-0.369 -0.205,-0.369 -0.287,-0.574 -0.287,-0.943 -0.861,-1.271 -0.574,-0.369 -1.066,-0.369 -0.533,0 -1.066,0 -0.492,-0.041 -0.984,-0.041 -0.697,0 -1.353,0 -0.656,0 -1.312,0.082 -0.41,0.041 -0.697,0.287 -0.287,0.205 -0.287,0.738 0,1.886 0,3.854 0.041,1.927 0.123,3.977 0.082,1.312 0.615,2.091 0.574,0.779 2.091,1.066 0.697,0.123 1.025,0.287 0.328,0.164 0.328,0.451 0,0.246 -0.328,0.328 -0.328,0.123 -0.861,0.123 -1.107,0 -1.722,-0.082 -0.574,-0.082 -1.066,-0.123 -0.451,-0.082 -1.23,-0.082 -0.984,0 -1.763,0.082 -0.738,0.041 -1.517,0.123 -0.779,0.082 -1.886,0.082 z"
       style="font-family:'EB Garamond';-inkscape-font-specification:'EB Garamond'"
       id="path262" />
    <path
       d="m 441.57221,462.19526 q -0.287,0 -0.287,-0.328 0,-0.41 0.082,-1.189 0.123,-0.82 0.123,-1.353 0,-0.082 0,-0.123 0,-0.082 0,-0.123 -1.599,1.558 -3.239,2.255 -1.599,0.656 -3.526,0.656 -1.312,0 -2.378,-0.574 -1.066,-0.533 -1.681,-1.599 -0.615,-1.107 -0.615,-2.706 v -8.323 q 0,-0.902 -0.41,-1.435 -0.41,-0.533 -1.353,-0.902 -0.205,-0.082 -0.369,-0.205 -0.164,-0.123 -0.164,-0.451 0,-0.369 0.164,-0.492 0.205,-0.123 0.451,-0.164 1.394,-0.082 2.132,-0.205 0.779,-0.164 1.927,-0.451 0.123,-0.041 0.164,-0.041 0.082,0 0.164,0 0.451,0 0.41,0.574 -0.123,0.943 -0.205,1.599 -0.041,0.615 -0.041,1.558 v 7.995 q 0,0.984 0.492,1.845 0.492,0.82 1.271,1.353 0.82,0.533 1.681,0.533 1.066,0 1.845,-0.123 0.82,-0.123 1.599,-0.697 0.451,-0.328 1.148,-1.066 0.697,-0.738 0.697,-2.009 v -7.503 q 0,-0.861 -0.533,-1.271 -0.492,-0.451 -1.148,-0.615 -0.656,-0.164 -1.066,-0.164 -0.369,0 -0.615,-0.123 -0.246,-0.164 -0.246,-0.574 0,-0.369 0.246,-0.492 0.287,-0.123 0.615,-0.123 1.271,-0.041 2.091,-0.082 0.861,-0.082 1.517,-0.205 0.697,-0.164 1.435,-0.369 0.082,-0.041 0.205,-0.041 0.123,-0.041 0.205,-0.041 0.533,0 0.533,0.451 0,0.041 -0.041,0.164 0,0.082 -0.041,0.205 -0.041,0.123 -0.123,0.697 -0.041,0.574 -0.123,1.189 -0.041,0.615 -0.041,0.943 v 9.471 q 0,1.107 0.205,1.599 0.246,0.451 0.533,0.451 0.328,0 0.943,-0.041 0.656,-0.082 0.943,-0.082 0.205,0 0.41,0.082 0.205,0.082 0.205,0.451 0,0.328 -0.164,0.451 -0.164,0.082 -0.41,0.123 -1.599,0.205 -2.747,0.615 -1.148,0.41 -2.05,0.779 -0.123,0.041 -0.369,0.123 -0.246,0.123 -0.451,0.123 z"
       style="font-family:'EB Garamond';-inkscape-font-specification:'EB Garamond'"
       id="path264" />
    <path
       d="m 456.90615,462.03126 q -2.255,0 -3.936,-1.107 -1.681,-1.107 -2.624,-3.116 -0.943,-2.05 -0.943,-4.715 0,-2.378 1.066,-4.305 1.107,-1.968 2.911,-3.157 1.804,-1.189 3.936,-1.189 1.64,0 2.911,0.656 1.271,0.656 1.968,1.845 0.738,1.148 0.738,2.665 0,1.271 -1.23,1.271 h -8.651 q -0.574,0 -0.82,0.328 -0.205,0.287 -0.205,1.189 0,1.968 0.861,3.608 0.861,1.599 2.296,2.583 1.435,0.943 3.157,0.943 1.23,0 2.214,-0.451 1.025,-0.492 1.804,-1.394 0.164,-0.205 0.246,-0.246 0.082,-0.082 0.205,-0.082 0.328,0 0.328,0.41 0,0.779 -0.738,1.722 -0.615,0.779 -1.476,1.353 -0.861,0.574 -1.886,0.861 -1.025,0.328 -2.132,0.328 z m -3.772,-12.423 h 3.731 q 0.984,0 1.681,-0.041 0.697,-0.041 1.353,-0.164 0.205,-0.041 0.246,-0.246 0.082,-0.246 0.082,-0.656 0,-1.189 -1.066,-2.009 -1.025,-0.861 -2.46,-0.861 -0.943,0 -1.886,0.574 -0.943,0.533 -1.558,1.353 -0.615,0.82 -0.615,1.64 0,0.41 0.492,0.41 z"
       style="font-family:'EB Garamond';-inkscape-font-specification:'EB Garamond'"
       id="path266" />
    <path
       d="m 466.17213,461.53926 q -0.41,0 -0.615,-0.123 -0.205,-0.082 -0.205,-0.328 0,-0.328 0.246,-0.41 0.246,-0.123 0.697,-0.246 0.779,-0.205 1.148,-0.574 0.41,-0.41 0.41,-0.984 v -8.815 q 0,-1.107 -0.328,-1.927 -0.328,-0.82 -1.353,-1.025 -0.164,-0.041 -0.287,-0.205 -0.123,-0.164 -0.123,-0.328 0,-0.41 0.369,-0.492 1.066,-0.328 2.214,-0.943 1.189,-0.656 1.845,-1.066 0.246,-0.164 0.369,-0.205 0.164,-0.082 0.246,-0.082 0.205,0 0.205,0.287 0,0.123 -0.041,0.615 0,0.492 -0.041,1.148 0,0.656 -0.041,1.312 0,0.082 0.082,0.082 0.656,-0.82 1.435,-1.435 0.82,-0.615 1.64,-0.984 0.861,-0.369 1.64,-0.369 0.861,0 1.394,0.369 0.574,0.369 0.574,0.943 0,0.41 -0.246,0.902 -0.205,0.492 -0.574,0.861 -0.369,0.369 -0.779,0.369 -0.246,0 -0.533,-0.082 -0.287,-0.123 -0.615,-0.287 -0.328,-0.123 -0.656,-0.246 -0.328,-0.123 -0.656,-0.123 -0.984,0 -1.927,0.697 -0.902,0.697 -0.902,2.747 v 8.282 q 0,0.533 0.574,0.902 0.574,0.328 1.599,0.656 0.451,0.123 0.697,0.246 0.246,0.123 0.246,0.41 0,0.451 -0.82,0.451 -1.23,0 -1.886,-0.123 -0.615,-0.082 -1.681,-0.082 -0.697,0 -1.148,0.041 -0.41,0.041 -0.902,0.082 -0.451,0.082 -1.271,0.082 z"
       style="font-family:'EB Garamond';-inkscape-font-specification:'EB Garamond'"
       id="path268" />
    <path
       d="m 479.45612,461.62126 q -0.164,0 -0.369,-0.246 -0.205,-0.287 -0.205,-0.451 0,-0.123 0.246,-0.533 0.287,-0.41 0.615,-0.943 0.369,-0.533 0.656,-0.902 1.025,-1.476 1.968,-2.829 0.943,-1.394 1.845,-2.747 0.943,-1.394 1.927,-2.911 0.984,-1.558 2.091,-3.321 0.082,-0.123 0.082,-0.246 0,-0.164 -0.451,-0.164 l -4.059,-0.123 q -0.574,-0.041 -1.066,0.246 -0.492,0.287 -0.738,0.533 -0.246,0.246 -0.492,0.533 -0.205,0.287 -0.451,0.615 -0.205,0.328 -0.451,0.656 -0.205,0.287 -0.41,0.574 -0.246,0.246 -0.656,0.082 -0.369,-0.164 -0.246,-0.492 0.123,-0.369 0.287,-1.066 0.205,-0.738 0.328,-1.517 0.164,-0.779 0.164,-1.271 0,-0.328 0.246,-0.533 0.246,-0.205 0.369,-0.205 0.164,0 0.615,0.369 0.205,0.164 0.697,0.205 0.533,0.041 1.066,0.041 0.451,0 0.861,0 0.41,-0.041 0.697,-0.041 2.132,0 3.936,-0.041 1.804,-0.041 3.69,-0.082 0.123,0 0.205,0.082 0.082,0.082 0.123,0.205 0.041,0.123 -0.041,0.205 -0.41,0.533 -0.779,0.984 -0.369,0.451 -0.779,1.066 l -7.995,12.095 q -0.164,0.287 -0.041,0.451 0.123,0.164 0.41,0.164 h 4.838 q 0.451,0 0.902,-0.246 0.492,-0.246 0.943,-0.697 0.492,-0.492 1.066,-1.271 0.574,-0.82 1.189,-1.722 0.205,-0.287 0.533,-0.164 0.369,0.123 0.369,0.451 0,0.123 -0.164,0.779 -0.164,0.615 -0.41,1.435 -0.205,0.779 -0.41,1.476 -0.164,0.697 -0.246,0.943 -0.123,0.574 -0.656,0.574 -0.902,0 -3.075,-0.123 -2.132,-0.082 -5.494,-0.082 -0.861,0 -1.804,0.082 -0.943,0.123 -1.476,0.123 z"
       style="font-family:'EB Garamond';-inkscape-font-specification:'EB Garamond'"
       id="path270" />
    <path
       d="m 498.11107,461.99026 q -0.738,0 -1.517,-0.574 -0.738,-0.574 -1.271,-1.394 -0.492,-0.82 -0.492,-1.558 0,-1.312 0.697,-2.05 0.697,-0.738 2.214,-1.353 l 4.182,-1.722 q 0.82,-0.328 0.943,-0.574 0.164,-0.246 0.205,-1.066 l 0.082,-2.624 q 0.041,-1.066 -0.615,-1.845 -0.615,-0.779 -1.804,-0.779 -0.615,0 -1.23,0.205 -0.615,0.205 -1.025,0.533 -0.246,0.164 -0.328,0.492 -0.082,0.328 -0.082,0.697 0,0.164 0,0.369 0.041,0.205 0.041,0.369 0,0.205 -0.533,0.574 -0.492,0.328 -1.148,0.615 -0.615,0.246 -1.025,0.246 -0.205,0 -0.328,-0.082 -0.123,-0.123 -0.123,-0.287 0,-0.656 0.41,-1.394 0.451,-0.779 1.23,-1.435 0.943,-0.861 2.05,-1.517 1.107,-0.656 2.173,-1.025 1.066,-0.369 1.886,-0.369 1.476,0 2.419,1.066 0.984,1.025 0.943,2.583 l -0.205,9.84 q -0.041,0.861 0.369,1.394 0.451,0.533 1.107,0.533 1.025,0 1.517,-0.451 0.205,-0.205 0.328,-0.205 0.205,0 0.328,0.123 0.123,0.123 0.123,0.328 0,0.451 -0.451,0.902 -0.656,0.656 -1.435,1.025 -0.738,0.41 -1.394,0.41 -1.886,0 -2.993,-2.132 h -0.123 q -1.353,1.107 -2.583,1.599 -1.23,0.533 -2.542,0.533 z m 1.927,-1.968 q 0.82,0 1.394,-0.246 0.574,-0.287 1.025,-0.738 0.205,-0.205 0.328,-0.533 0.164,-0.369 0.205,-1.148 l 0.082,-2.009 q 0.041,-0.451 -0.041,-0.656 -0.082,-0.205 -0.328,-0.205 -0.082,0 -0.287,0.041 -0.205,0.041 -0.533,0.164 -2.173,0.779 -3.034,1.64 -0.82,0.82 -0.82,1.517 0,1.066 0.615,1.64 0.656,0.533 1.394,0.533 z"
       style="font-family:'EB Garamond';-inkscape-font-specification:'EB Garamond'"
       id="path272" />
    <path
       d="m 526.60595,462.03126 q -2.05,0 -3.731,-1.025 -1.64,-1.066 -2.624,-2.87 -0.943,-1.845 -0.943,-4.1 0,-2.665 1.148,-4.838 1.189,-2.173 3.157,-3.444 1.968,-1.312 4.346,-1.312 2.665,0 4.674,1.435 0.492,0.369 0.492,0.779 0,0.328 -0.287,0.738 -0.287,0.41 -0.697,0.697 -0.41,0.246 -0.779,0.246 -0.205,0 -0.41,-0.123 -0.205,-0.164 -0.451,-0.328 -0.902,-0.697 -2.009,-1.312 -1.107,-0.615 -1.845,-0.615 -2.009,0 -3.28,1.886 -1.23,1.845 -1.23,4.879 0,1.927 0.82,3.485 0.861,1.558 2.255,2.46 1.435,0.902 3.157,0.902 1.189,0 2.05,-0.369 0.861,-0.41 1.845,-1.394 0.082,-0.082 0.205,-0.123 0.123,-0.082 0.205,-0.082 0.451,0 0.451,0.574 0,0.246 -0.164,0.574 -0.123,0.287 -0.451,0.697 -0.656,0.82 -1.558,1.435 -0.902,0.574 -2.009,0.861 -1.066,0.287 -2.337,0.287 z"
       style="font-family:'EB Garamond';-inkscape-font-specification:'EB Garamond'"
       id="path274" />
    <path
       d="m 542.47291,462.03126 q -2.255,0 -3.936,-1.107 -1.681,-1.107 -2.624,-3.116 -0.943,-2.05 -0.943,-4.715 0,-2.378 1.066,-4.305 1.107,-1.968 2.911,-3.157 1.804,-1.189 3.936,-1.189 1.64,0 2.911,0.656 1.271,0.656 1.968,1.845 0.738,1.148 0.738,2.665 0,1.271 -1.23,1.271 h -8.651 q -0.574,0 -0.82,0.328 -0.205,0.287 -0.205,1.189 0,1.968 0.861,3.608 0.861,1.599 2.296,2.583 1.435,0.943 3.157,0.943 1.23,0 2.214,-0.451 1.025,-0.492 1.804,-1.394 0.164,-0.205 0.246,-0.246 0.082,-0.082 0.205,-0.082 0.328,0 0.328,0.41 0,0.779 -0.738,1.722 -0.615,0.779 -1.476,1.353 -0.861,0.574 -1.886,0.861 -1.025,0.328 -2.132,0.328 z m -3.772,-12.423 h 3.731 q 0.984,0 1.681,-0.041 0.697,-0.041 1.353,-0.164 0.205,-0.041 0.246,-0.246 0.082,-0.246 0.082,-0.656 0,-1.189 -1.066,-2.009 -1.025,-0.861 -2.46,-0.861 -0.943,0 -1.886,0.574 -0.943,0.533 -1.558,1.353 -0.615,0.82 -0.615,1.64 0,0.41 0.492,0.41 z"
       style="font-family:'EB Garamond';-inkscape-font-specification:'EB Garamond'"
       id="path276" />
    <path
       d="m 551.53389,461.53926 q -0.369,0 -0.615,-0.123 -0.205,-0.082 -0.205,-0.328 0,-0.328 0.246,-0.41 0.246,-0.123 0.697,-0.246 0.615,-0.164 1.189,-0.451 0.574,-0.287 0.574,-1.107 v -8.815 q 0,-1.107 -0.246,-1.886 -0.205,-0.779 -1.271,-1.066 -0.164,-0.082 -0.287,-0.164 -0.123,-0.123 -0.123,-0.369 0,-0.451 0.369,-0.492 1.435,-0.369 2.337,-0.902 0.902,-0.533 1.763,-1.189 0.123,-0.082 0.205,-0.123 0.123,-0.082 0.246,-0.082 0.082,0 0.123,0.082 0.082,0.082 0.082,0.205 0,0.287 -0.123,1.189 -0.082,0.861 -0.082,1.435 0,0.164 0,0.328 0.041,0.123 0.082,0.164 1.435,-1.353 3.034,-2.05 1.64,-0.697 3.567,-0.697 2.009,0 3.321,1.64 1.312,1.64 1.312,4.059 v 8.733 q 0,0.82 0.574,1.107 0.574,0.246 1.189,0.451 0.328,0.123 0.615,0.287 0.328,0.123 0.328,0.451 0,0.246 -0.287,0.287 -0.287,0.082 -0.533,0.082 -0.82,0 -1.271,-0.082 -0.451,-0.041 -0.861,-0.082 -0.41,-0.041 -1.148,-0.041 -0.697,0 -1.148,0.041 -0.451,0.041 -0.943,0.082 -0.451,0.082 -1.271,0.082 -0.205,0 -0.533,-0.082 -0.287,-0.041 -0.287,-0.287 0,-0.328 0.287,-0.451 0.328,-0.164 0.656,-0.287 0.615,-0.205 1.189,-0.451 0.574,-0.287 0.574,-1.107 v -8.61 q 0,-1.804 -1.025,-2.788 -0.984,-1.025 -2.665,-1.066 -1.476,0 -2.583,0.492 -1.107,0.451 -1.968,1.148 -0.164,0.164 -0.246,0.451 -0.082,0.246 -0.082,0.492 v 9.881 q 0,0.82 0.574,1.107 0.574,0.287 1.189,0.451 0.943,0.246 0.943,0.656 0,0.246 -0.205,0.328 -0.205,0.123 -0.615,0.123 -0.82,0 -1.312,-0.082 -0.451,-0.041 -0.861,-0.082 -0.41,-0.041 -1.148,-0.041 -0.697,0 -1.148,0.041 -0.41,0.041 -0.902,0.082 -0.451,0.082 -1.271,0.082 z"
       style="font-family:'EB Garamond';-inkscape-font-specification:'EB Garamond'"
       id="path278" />
    <path
       d="m 579.12688,461.99026 q -2.009,0 -3.157,-1.23 -1.107,-1.23 -1.107,-3.649 v -9.512 q 0,-0.328 -0.246,-0.451 -0.246,-0.164 -1.066,-0.164 h -0.246 q -0.205,0 -0.369,-0.246 -0.123,-0.287 -0.123,-0.574 0,-0.082 0.123,-0.246 0.123,-0.164 0.164,-0.205 0.82,-0.574 1.476,-1.148 0.697,-0.574 1.23,-1.107 0.574,-0.574 0.943,-1.025 0.205,-0.205 0.328,-0.328 0.164,-0.164 0.369,-0.164 0.205,0 0.369,0.082 0.205,0.082 0.164,0.369 l -0.205,1.845 q -0.041,0.451 0.205,0.615 0.246,0.164 0.779,0.164 h 4.674 q 0.164,0 0.287,0.287 0.123,0.246 0.123,0.615 0,0.369 -0.123,0.738 -0.123,0.328 -0.287,0.328 h -4.059 q -1.025,0 -1.353,0.164 -0.287,0.164 -0.287,0.984 v 8.077 q 0,1.64 0.697,2.583 0.697,0.943 2.009,0.943 1.189,0 1.845,-0.164 0.656,-0.205 1.189,-0.574 0.082,-0.082 0.164,-0.082 0.164,0 0.205,0.205 0.082,0.164 0.082,0.369 0,0.205 -0.697,0.82 -0.656,0.615 -1.763,1.148 -1.066,0.533 -2.337,0.533 z"
       style="font-family:'EB Garamond';-inkscape-font-specification:'EB Garamond'"
       id="path280" />
    <path
       d="m 586.26085,461.53926 q -0.41,0 -0.615,-0.123 -0.205,-0.082 -0.205,-0.328 0,-0.328 0.246,-0.41 0.246,-0.123 0.697,-0.246 0.779,-0.205 1.148,-0.574 0.41,-0.41 0.41,-0.984 v -8.815 q 0,-1.107 -0.328,-1.927 -0.328,-0.82 -1.353,-1.025 -0.164,-0.041 -0.287,-0.205 -0.123,-0.164 -0.123,-0.328 0,-0.41 0.369,-0.492 1.066,-0.328 2.214,-0.943 1.189,-0.656 1.845,-1.066 0.246,-0.164 0.369,-0.205 0.164,-0.082 0.246,-0.082 0.205,0 0.205,0.287 0,0.123 -0.041,0.615 0,0.492 -0.041,1.148 0,0.656 -0.041,1.312 0,0.082 0.082,0.082 0.656,-0.82 1.435,-1.435 0.82,-0.615 1.64,-0.984 0.861,-0.369 1.64,-0.369 0.861,0 1.394,0.369 0.574,0.369 0.574,0.943 0,0.41 -0.246,0.902 -0.205,0.492 -0.574,0.861 -0.369,0.369 -0.779,0.369 -0.246,0 -0.533,-0.082 -0.287,-0.123 -0.615,-0.287 -0.328,-0.123 -0.656,-0.246 -0.328,-0.123 -0.656,-0.123 -0.984,0 -1.927,0.697 -0.902,0.697 -0.902,2.747 v 8.282 q 0,0.533 0.574,0.902 0.574,0.328 1.599,0.656 0.451,0.123 0.697,0.246 0.246,0.123 0.246,0.41 0,0.451 -0.82,0.451 -1.23,0 -1.886,-0.123 -0.615,-0.082 -1.681,-0.082 -0.697,0 -1.148,0.041 -0.41,0.041 -0.902,0.082 -0.451,0.082 -1.271,0.082 z"
       style="font-family:'EB Garamond';-inkscape-font-specification:'EB Garamond'"
       id="path283" />
    <path
       d="m 599.74983,461.53926 q -0.369,0 -0.615,-0.123 -0.205,-0.082 -0.205,-0.328 0,-0.328 0.287,-0.451 0.328,-0.123 0.656,-0.205 0.861,-0.205 1.312,-0.492 0.451,-0.328 0.451,-1.066 v -8.897 q 0,-1.107 -0.41,-1.968 -0.369,-0.861 -1.435,-1.025 -0.205,-0.041 -0.328,-0.164 -0.082,-0.123 -0.082,-0.369 0,-0.451 0.369,-0.492 1.64,-0.369 2.706,-0.984 1.066,-0.656 1.599,-1.066 0.369,-0.287 0.574,-0.287 0.246,0 0.246,0.205 0,0.328 -0.123,1.312 -0.082,0.943 -0.164,2.132 -0.082,1.148 -0.082,2.091 v 9.512 q 0,0.697 0.451,1.025 0.492,0.328 1.312,0.533 0.328,0.082 0.615,0.205 0.328,0.123 0.328,0.451 0,0.451 -0.82,0.451 -0.779,0 -1.271,-0.082 -0.451,-0.041 -0.902,-0.082 -0.41,-0.041 -1.148,-0.041 -0.697,0 -1.148,0.041 -0.451,0.041 -0.902,0.082 -0.451,0.082 -1.271,0.082 z m 2.296,-18.86 q -0.328,0 -0.328,-0.369 0,-0.123 0.041,-0.287 0.041,-0.205 0.123,-0.451 0.287,-0.779 0.902,-1.968 0.656,-1.23 1.271,-2.378 0.656,-1.148 0.984,-1.681 0.205,-0.328 0.492,-0.533 0.328,-0.205 0.615,-0.205 0.779,0 1.394,0.205 0.615,0.205 0.615,0.656 0,0.246 -0.123,0.41 -0.082,0.164 -0.287,0.451 -0.492,0.697 -1.353,1.763 -0.82,1.025 -1.681,2.009 -0.861,0.984 -1.394,1.517 -0.861,0.861 -1.271,0.861 z"
       style="font-family:'EB Garamond';-inkscape-font-specification:'EB Garamond'"
       id="path285" />
    <path
       d="m 609.63078,473.10126 q -0.205,0 -0.533,-0.082 -0.328,-0.041 -0.328,-0.287 0,-0.328 0.287,-0.492 0.328,-0.123 0.656,-0.246 0.615,-0.205 1.189,-0.492 0.574,-0.246 0.574,-1.066 v -20.787 q 0,-0.328 -0.205,-0.984 -0.164,-0.656 -0.574,-1.271 -0.41,-0.615 -1.107,-0.738 -0.164,-0.041 -0.246,-0.205 -0.082,-0.164 -0.082,-0.328 0,-0.205 0.082,-0.328 0.082,-0.123 0.205,-0.164 1.558,-0.369 2.665,-0.779 1.107,-0.451 2.091,-0.861 0.041,0 0.041,0 0,-0.041 0.041,-0.041 0.082,0 0.164,0.123 0.082,0.123 0.082,0.246 0,0.369 -0.123,1.189 -0.082,0.779 -0.082,1.271 0,0.328 0.041,0.369 0.41,-0.41 1.476,-1.025 1.107,-0.656 2.501,-1.148 1.394,-0.533 2.665,-0.533 2.132,0 3.608,1.148 1.517,1.107 2.296,2.911 0.82,1.763 0.82,3.69 0,1.845 -0.697,3.608 -0.697,1.722 -1.968,3.116 -1.271,1.394 -2.952,2.255 -1.681,0.82 -3.608,0.82 -0.574,0 -1.394,-0.205 -0.779,-0.164 -1.558,-0.451 -0.738,-0.287 -1.148,-0.656 -0.041,0 -0.082,0.492 -0.041,0.451 -0.082,0.943 0,0.533 0,0.656 v 7.667 q 0,0.533 0.41,0.82 0.451,0.328 0.984,0.451 0.574,0.164 0.984,0.287 0.328,0.123 0.615,0.246 0.328,0.164 0.328,0.492 0,0.246 -0.328,0.287 -0.328,0.082 -0.574,0.082 -1.189,0 -2.009,-0.123 -0.779,-0.082 -1.845,-0.082 -0.697,0 -1.148,0.041 -0.41,0.041 -0.861,0.082 -0.451,0.082 -1.271,0.082 z m 9.594,-12.382 q 0.615,0 1.476,-0.369 0.902,-0.369 1.763,-1.189 0.902,-0.82 1.476,-2.214 0.615,-1.394 0.615,-3.444 0,-2.378 -0.615,-3.813 -0.615,-1.435 -1.517,-2.173 -0.902,-0.738 -1.845,-0.984 -0.943,-0.246 -1.599,-0.246 -0.984,0 -2.05,0.41 -1.025,0.41 -1.763,0.943 -0.697,0.492 -0.697,0.779 0,0.902 -0.041,1.845 0,0.902 -0.041,1.763 0,0.861 -0.041,1.558 0,0.656 0,1.025 0,1.64 0.738,3.034 0.779,1.394 1.886,2.255 1.148,0.82 2.255,0.82 z"
       style="font-family:'EB Garamond';-inkscape-font-specification:'EB Garamond'"
       id="path287" />
    <path
       d="m 638.00276,462.03126 q -2.255,0 -3.936,-1.107 -1.681,-1.107 -2.624,-3.116 -0.943,-2.05 -0.943,-4.715 0,-2.378 1.066,-4.305 1.107,-1.968 2.911,-3.157 1.804,-1.189 3.936,-1.189 1.64,0 2.911,0.656 1.271,0.656 1.968,1.845 0.738,1.148 0.738,2.665 0,1.271 -1.23,1.271 h -8.651 q -0.574,0 -0.82,0.328 -0.205,0.287 -0.205,1.189 0,1.968 0.861,3.608 0.861,1.599 2.296,2.583 1.435,0.943 3.157,0.943 1.23,0 2.214,-0.451 1.025,-0.492 1.804,-1.394 0.164,-0.205 0.246,-0.246 0.082,-0.082 0.205,-0.082 0.328,0 0.328,0.41 0,0.779 -0.738,1.722 -0.615,0.779 -1.476,1.353 -0.861,0.574 -1.886,0.861 -1.025,0.328 -2.132,0.328 z m -3.772,-12.423 h 3.731 q 0.984,0 1.681,-0.041 0.697,-0.041 1.353,-0.164 0.205,-0.041 0.246,-0.246 0.082,-0.246 0.082,-0.656 0,-1.189 -1.066,-2.009 -1.025,-0.861 -2.46,-0.861 -0.943,0 -1.886,0.574 -0.943,0.533 -1.558,1.353 -0.615,0.82 -0.615,1.64 0,0.41 0.492,0.41 z"
       style="font-family:'EB Garamond';-inkscape-font-specification:'EB Garamond'"
       id="path289" />
    <path
       d="m 653.00874,461.99026 q -2.009,0 -3.157,-1.23 -1.107,-1.23 -1.107,-3.649 v -9.512 q 0,-0.328 -0.246,-0.451 -0.246,-0.164 -1.066,-0.164 h -0.246 q -0.205,0 -0.369,-0.246 -0.123,-0.287 -0.123,-0.574 0,-0.082 0.123,-0.246 0.123,-0.164 0.164,-0.205 0.82,-0.574 1.476,-1.148 0.697,-0.574 1.23,-1.107 0.574,-0.574 0.943,-1.025 0.205,-0.205 0.328,-0.328 0.164,-0.164 0.369,-0.164 0.205,0 0.369,0.082 0.205,0.082 0.164,0.369 l -0.205,1.845 q -0.041,0.451 0.205,0.615 0.246,0.164 0.779,0.164 h 4.674 q 0.164,0 0.287,0.287 0.123,0.246 0.123,0.615 0,0.369 -0.123,0.738 -0.123,0.328 -0.287,0.328 h -4.059 q -1.025,0 -1.353,0.164 -0.287,0.164 -0.287,0.984 v 8.077 q 0,1.64 0.697,2.583 0.697,0.943 2.009,0.943 1.189,0 1.845,-0.164 0.656,-0.205 1.189,-0.574 0.082,-0.082 0.164,-0.082 0.164,0 0.205,0.205 0.082,0.164 0.082,0.369 0,0.205 -0.697,0.82 -0.656,0.615 -1.763,1.148 -1.066,0.533 -2.337,0.533 z"
       style="font-family:'EB Garamond';-inkscape-font-specification:'EB Garamond'"
       id="path291" />
    <path
       d="m 662.9307,461.99026 q -0.738,0 -1.517,-0.574 -0.738,-0.574 -1.271,-1.394 -0.492,-0.82 -0.492,-1.558 0,-1.312 0.697,-2.05 0.697,-0.738 2.214,-1.353 l 4.182,-1.722 q 0.82,-0.328 0.943,-0.574 0.164,-0.246 0.205,-1.066 l 0.082,-2.624 q 0.041,-1.066 -0.615,-1.845 -0.615,-0.779 -1.804,-0.779 -0.615,0 -1.23,0.205 -0.615,0.205 -1.025,0.533 -0.246,0.164 -0.328,0.492 -0.082,0.328 -0.082,0.697 0,0.164 0,0.369 0.041,0.205 0.041,0.369 0,0.205 -0.533,0.574 -0.492,0.328 -1.148,0.615 -0.615,0.246 -1.025,0.246 -0.205,0 -0.328,-0.082 -0.123,-0.123 -0.123,-0.287 0,-0.656 0.41,-1.394 0.451,-0.779 1.23,-1.435 0.943,-0.861 2.05,-1.517 1.107,-0.656 2.173,-1.025 1.066,-0.369 1.886,-0.369 1.476,0 2.419,1.066 0.984,1.025 0.943,2.583 l -0.205,9.84 q -0.041,0.861 0.369,1.394 0.451,0.533 1.107,0.533 1.025,0 1.517,-0.451 0.205,-0.205 0.328,-0.205 0.205,0 0.328,0.123 0.123,0.123 0.123,0.328 0,0.451 -0.451,0.902 -0.656,0.656 -1.435,1.025 -0.738,0.41 -1.394,0.41 -1.886,0 -2.993,-2.132 h -0.123 q -1.353,1.107 -2.583,1.599 -1.23,0.533 -2.542,0.533 z m 1.927,-1.968 q 0.82,0 1.394,-0.246 0.574,-0.287 1.025,-0.738 0.205,-0.205 0.328,-0.533 0.164,-0.369 0.205,-1.148 l 0.082,-2.009 q 0.041,-0.451 -0.041,-0.656 -0.082,-0.205 -0.328,-0.205 -0.082,0 -0.287,0.041 -0.205,0.041 -0.533,0.164 -2.173,0.779 -3.034,1.64 -0.82,0.82 -0.82,1.517 0,1.066 0.615,1.64 0.656,0.533 1.394,0.533 z"
       style="font-family:'EB Garamond';-inkscape-font-specification:'EB Garamond'"
       id="path293" />
  </g>
  <g
     aria-label="Normal"
     id="text134"
     style="font-size:41px;font-family:'Liberation Sans', Arial;fill:#953735"
     class="st6 st17 st19">
    <path
       d="m 68.335189,732.49577 q -0.369,0 -1.476,-0.615 -1.066,-0.615 -2.05,-1.968 -0.164,-0.205 -1.025,-1.23 -0.82,-1.025 -2.132,-2.542 -1.271,-1.558 -2.788,-3.362 -1.517,-1.804 -3.034,-3.608 -1.517,-1.804 -2.829,-3.321 -1.312,-1.558 -2.214,-2.583 -0.861,-1.066 -1.066,-1.312 -0.287,-0.369 -0.492,-0.492 -0.205,-0.164 -0.369,-0.164 -0.205,0 -0.287,0.328 -0.082,0.287 -0.082,0.533 -0.041,2.009 -0.082,4.633 -0.041,2.624 -0.082,5.412 -0.041,2.788 -0.041,5.33 0,1.107 0.533,2.05 0.574,0.943 2.091,1.23 0.697,0.123 1.025,0.287 0.328,0.164 0.328,0.451 0,0.246 -0.328,0.328 -0.328,0.123 -0.861,0.123 -1.107,0 -1.681,-0.082 -0.533,-0.041 -0.984,-0.082 -0.41,-0.041 -1.189,-0.041 -0.738,0 -1.148,0.041 -0.41,0.041 -0.943,0.082 -0.533,0.082 -1.64,0.082 -0.533,0 -0.861,-0.123 -0.328,-0.082 -0.328,-0.328 0,-0.287 0.328,-0.451 0.328,-0.164 1.025,-0.328 1.189,-0.328 1.722,-1.189 0.533,-0.902 0.656,-2.173 0.164,-1.558 0.328,-4.1 0.164,-2.583 0.287,-5.74 0.123,-3.198 0.123,-6.56 0,-2.173 -1.148,-3.116 -1.107,-0.943 -2.911,-1.517 -0.164,-0.082 -0.738,-0.328 -0.533,-0.287 -0.533,-0.656 0,-0.369 0.369,-0.451 0.369,-0.123 0.574,-0.123 1.189,0.041 1.927,0.082 0.738,0 1.312,0.041 0.574,0.041 1.271,0.082 0.697,0 1.804,0 0.369,0 0.574,0.205 0.205,0.205 0.41,0.492 0.164,0.246 1.066,1.394 0.943,1.107 2.296,2.829 1.394,1.681 3.034,3.69 1.64,1.968 3.28,3.977 1.64,1.968 3.034,3.69 1.394,1.681 2.296,2.788 0.943,1.107 1.107,1.312 0.164,0.164 0.451,0.492 0.328,0.328 0.574,0.328 0.369,0 0.41,-0.861 0,-0.574 0,-2.173 0.041,-1.64 0.041,-3.936 0.041,-2.337 0.041,-5.043 0,-2.706 0,-5.535 -0.041,-0.82 -0.861,-1.476 -0.82,-0.656 -1.517,-0.779 -0.697,-0.123 -1.271,-0.328 -0.574,-0.205 -0.574,-0.492 0,-0.246 0.574,-0.328 0.574,-0.123 1.107,-0.123 0.41,0 0.779,0 0.41,0 0.779,0 0.41,0 0.779,0 0.984,0 1.558,0 0.574,-0.041 1.23,-0.082 0.697,-0.041 1.927,-0.041 0.533,0 0.861,0.123 0.328,0.082 0.328,0.328 0,0.574 -1.353,0.82 -1.517,0.287 -2.009,0.738 -0.492,0.451 -0.574,1.476 0,0.205 -0.041,1.599 0,1.394 0,3.526 0,2.132 -0.041,4.592 0,2.46 0,4.92 0,2.419 0,4.346 0,0.984 0.041,1.804 0.082,0.779 0.123,1.353 0.041,0.533 0.041,0.82 0,0.656 -0.287,0.82 -0.246,0.205 -0.574,0.205 z"
       style="font-family:'EB Garamond';-inkscape-font-specification:'EB Garamond'"
       id="path319" />
    <path
       d="m 83.013182,732.37277 q -2.296,0 -4.141,-1.066 -1.845,-1.066 -2.952,-2.911 -1.066,-1.886 -1.066,-4.264 0,-1.722 0.656,-3.362 0.697,-1.64 1.927,-2.993 1.23,-1.353 2.87,-2.132 1.64,-0.82 3.526,-0.82 2.378,0 4.264,1.148 1.927,1.148 3.034,3.034 1.148,1.845 1.148,4.059 0,2.378 -1.066,4.51 -1.025,2.132 -3.075,3.485 -2.05,1.312 -5.125,1.312 z m 0.861,-1.23 q 1.394,0 2.501,-0.533 1.107,-0.533 1.722,-1.722 0.492,-0.943 0.656,-2.296 0.164,-1.353 0.164,-2.542 0,-1.968 -0.738,-3.772 -0.697,-1.845 -2.009,-2.993 -1.271,-1.189 -3.034,-1.189 -1.107,0 -2.009,0.369 -0.861,0.328 -1.599,1.271 -0.82,1.025 -1.066,2.501 -0.246,1.476 -0.246,2.952 0,2.009 0.738,3.854 0.738,1.804 2.009,2.952 1.271,1.148 2.911,1.148 z"
       style="font-family:'EB Garamond';-inkscape-font-specification:'EB Garamond'"
       id="path321" />
    <path
       d="m 95.723138,731.92177 q -0.41,0 -0.615,-0.123 -0.205,-0.082 -0.205,-0.328 0,-0.328 0.246,-0.41 0.246,-0.123 0.697,-0.246 0.779,-0.205 1.148,-0.574 0.41,-0.41 0.41,-0.984 v -8.815 q 0,-1.107 -0.328,-1.927 -0.328,-0.82 -1.353,-1.025 -0.164,-0.041 -0.287,-0.205 -0.123,-0.164 -0.123,-0.328 0,-0.41 0.369,-0.492 1.066,-0.328 2.214,-0.943 1.189,-0.656 1.845,-1.066 0.246,-0.164 0.369002,-0.205 0.164,-0.082 0.246,-0.082 0.205,0 0.205,0.287 0,0.123 -0.041,0.615 0,0.492 -0.041,1.148 0,0.656 -0.041,1.312 0,0.082 0.082,0.082 0.656,-0.82 1.435,-1.435 0.82,-0.615 1.64,-0.984 0.861,-0.369 1.64,-0.369 0.861,0 1.394,0.369 0.574,0.369 0.574,0.943 0,0.41 -0.246,0.902 -0.205,0.492 -0.574,0.861 -0.369,0.369 -0.779,0.369 -0.246,0 -0.533,-0.082 -0.287,-0.123 -0.615,-0.287 -0.328,-0.123 -0.656,-0.246 -0.328,-0.123 -0.656,-0.123 -0.984,0 -1.927,0.697 -0.902,0.697 -0.902,2.747 v 8.282 q 0,0.533 0.574,0.902 0.574,0.328 1.599,0.656 0.451,0.123 0.697,0.246 0.246,0.123 0.246,0.41 0,0.451 -0.82,0.451 -1.23,0 -1.886,-0.123 -0.615,-0.082 -1.681002,-0.082 -0.697,0 -1.148,0.041 -0.41,0.041 -0.902,0.082 -0.451,0.082 -1.271,0.082 z"
       style="font-family:'EB Garamond';-inkscape-font-specification:'EB Garamond'"
       id="path323" />
    <path
       d="m 109.21213,731.92177 q -0.328,0 -0.574,-0.082 -0.246,-0.082 -0.246,-0.369 0,-0.287 0.246,-0.41 0.287,-0.123 0.697,-0.246 0.574,-0.205 1.148,-0.451 0.615,-0.287 0.615,-1.107 v -8.815 q 0,-1.107 -0.246,-1.927 -0.246,-0.861 -1.312,-1.025 -0.164,-0.041 -0.287,-0.164 -0.082,-0.123 -0.082,-0.369 0,-0.41 0.328,-0.492 1.107,-0.287 1.763,-0.574 0.656,-0.328 1.148,-0.697 0.533,-0.41 1.271,-0.861 0.082,-0.041 0.164,-0.082 0.082,-0.082 0.205,-0.082 0.246,0 0.246,0.287 0,0.287 -0.123,1.189 -0.082,0.861 -0.082,1.435 0,0.41 0.082,0.492 h 0.082 q 0.943,-0.902 2.46,-1.804 1.558,-0.943 3.936,-0.943 1.476,0 2.46,0.656 0.984,0.615 1.64,2.173 h 0.123 q 1.312,-1.189 2.993,-2.009 1.681,-0.82 3.69,-0.82 1.353,0 2.255,0.82 0.902,0.82 1.353,2.132 0.492,1.312 0.492,2.747 v 8.733 q 0,0.82 0.574,1.107 0.574,0.246 1.189,0.451 0.41,0.123 0.656,0.246 0.287,0.123 0.287,0.41 0,0.246 -0.205,0.328 -0.164,0.123 -0.615,0.123 -0.82,0 -1.271,-0.082 -0.451,-0.041 -0.861,-0.082 -0.369,-0.041 -1.107,-0.041 -0.697,0 -1.148,0.041 -0.451,0.041 -0.943,0.082 -0.492,0.082 -1.312,0.082 -0.369,0 -0.615,-0.123 -0.205,-0.082 -0.205,-0.328 0,-0.328 0.246,-0.451 0.287,-0.123 0.697,-0.205 0.656,-0.164 1.189,-0.451 0.574,-0.287 0.574,-1.107 v -8.61 q 0,-0.984 -0.451,-1.845 -0.451,-0.902 -1.189,-1.476 -0.738,-0.574 -1.64,-0.574 -1.025,0 -1.927,0.246 -0.861,0.246 -1.64,0.861 -1.148,0.902 -1.148,2.952 v 8.446 q 0,0.82 0.615,1.107 0.615,0.287 1.23,0.451 0.41,0.082 0.656,0.246 0.287,0.123 0.287,0.41 0,0.246 -0.205,0.328 -0.205,0.123 -0.615,0.123 -0.82,0 -1.312,-0.082 -0.451,-0.041 -0.902,-0.082 -0.41,-0.041 -1.148,-0.041 -0.697,0 -1.148,0.041 -0.451,0.041 -0.943,0.082 -0.492,0.082 -1.312,0.082 -0.328,0 -0.574,-0.123 -0.246,-0.082 -0.246,-0.328 0,-0.328 0.287,-0.41 0.328,-0.123 0.656,-0.246 0.615,-0.205 1.189,-0.451 0.615,-0.287 0.615,-1.107 v -8.61 q 0,-0.984 -0.451,-1.845 -0.451,-0.902 -1.189,-1.476 -0.738,-0.574 -1.64,-0.574 -1.025,0 -1.927,0.246 -0.861,0.246 -1.64,0.861 -1.107,0.82 -1.107,2.952 v 8.446 q 0,0.82 0.574,1.107 0.574,0.246 1.189,0.451 0.328,0.123 0.615,0.246 0.328,0.082 0.328,0.41 0,0.246 -0.246,0.328 -0.205,0.123 -0.574,0.123 -0.82,0 -1.312,-0.082 -0.451,-0.041 -0.861,-0.082 -0.41,-0.041 -1.148,-0.041 -0.697,0 -1.148,0.041 -0.41,0.041 -0.902,0.082 -0.451,0.082 -1.271,0.082 z"
       style="font-family:'EB Garamond';-inkscape-font-specification:'EB Garamond'"
       id="path325" />
    <path
       d="m 144.10312,732.37277 q -0.738,0 -1.517,-0.574 -0.738,-0.574 -1.271,-1.394 -0.492,-0.82 -0.492,-1.558 0,-1.312 0.697,-2.05 0.697,-0.738 2.214,-1.353 l 4.182,-1.722 q 0.82,-0.328 0.943,-0.574 0.164,-0.246 0.205,-1.066 l 0.082,-2.624 q 0.041,-1.066 -0.615,-1.845 -0.615,-0.779 -1.804,-0.779 -0.615,0 -1.23,0.205 -0.615,0.205 -1.025,0.533 -0.246,0.164 -0.328,0.492 -0.082,0.328 -0.082,0.697 0,0.164 0,0.369 0.041,0.205 0.041,0.369 0,0.205 -0.533,0.574 -0.492,0.328 -1.148,0.615 -0.615,0.246 -1.025,0.246 -0.205,0 -0.328,-0.082 -0.123,-0.123 -0.123,-0.287 0,-0.656 0.41,-1.394 0.451,-0.779 1.23,-1.435 0.943,-0.861 2.05,-1.517 1.107,-0.656 2.173,-1.025 1.066,-0.369 1.886,-0.369 1.476,0 2.419,1.066 0.984,1.025 0.943,2.583 l -0.205,9.84 q -0.041,0.861 0.369,1.394 0.451,0.533 1.107,0.533 1.025,0 1.517,-0.451 0.205,-0.205 0.328,-0.205 0.205,0 0.328,0.123 0.123,0.123 0.123,0.328 0,0.451 -0.451,0.902 -0.656,0.656 -1.435,1.025 -0.738,0.41 -1.394,0.41 -1.886,0 -2.993,-2.132 h -0.123 q -1.353,1.107 -2.583,1.599 -1.23,0.533 -2.542,0.533 z m 1.927,-1.968 q 0.82,0 1.394,-0.246 0.574,-0.287 1.025,-0.738 0.205,-0.205 0.328,-0.533 0.164,-0.369 0.205,-1.148 l 0.082,-2.009 q 0.041,-0.451 -0.041,-0.656 -0.082,-0.205 -0.328,-0.205 -0.082,0 -0.287,0.041 -0.205,0.041 -0.533,0.164 -2.173,0.779 -3.034,1.64 -0.82,0.82 -0.82,1.517 0,1.066 0.615,1.64 0.656,0.533 1.394,0.533 z"
       style="font-family:'EB Garamond';-inkscape-font-specification:'EB Garamond'"
       id="path327" />
    <path
       d="m 157.26405,731.92177 q -0.205,0 -0.533,-0.082 -0.287,-0.041 -0.287,-0.287 0,-0.328 0.287,-0.451 0.328,-0.164 0.656,-0.287 0.615,-0.205 1.189,-0.451 0.574,-0.287 0.574,-1.107 v -20.664 q 0,-1.189 -0.451,-1.968 -0.41,-0.82 -1.435,-1.025 -0.328,-0.082 -0.328,-0.533 0,-0.41 0.287,-0.492 1.066,-0.246 1.845,-0.492 0.779,-0.287 1.435,-0.574 0.697,-0.287 1.353,-0.533 0.164,-0.082 0.246,-0.082 0.082,0 0.123,0.123 0.082,0.082 0.082,0.164 0,0.369 -0.164,1.599 -0.123,1.189 -0.123,3.977 v 20.5 q 0,0.82 0.574,1.107 0.574,0.246 1.189,0.451 0.328,0.123 0.615,0.287 0.328,0.123 0.328,0.451 0,0.246 -0.328,0.287 -0.287,0.082 -0.492,0.082 -0.779,0 -1.271,-0.082 -0.451,-0.041 -0.902,-0.082 -0.41,-0.041 -1.148,-0.041 -0.697,0 -1.148,0.041 -0.451,0.041 -0.902,0.082 -0.451,0.082 -1.271,0.082 z"
       style="font-family:'EB Garamond';-inkscape-font-specification:'EB Garamond'"
       id="path329" />
  </g>
  <g
     aria-label="Gravedad"
     id="text136"
     style="font-size:41px;line-height:1;font-family:'Liberation Sans', Arial;text-align:center;text-anchor:middle;fill:#953735"
     class="st6 st17 st19">
    <path
       d="m 377.28187,721.36471 q -2.829,0 -5.412,-0.984 -2.542,-1.025 -4.551,-2.829 -1.968,-1.804 -3.116,-4.223 -1.148,-2.46 -1.148,-5.289 0,-3.034 1.189,-5.658 1.189,-2.624 3.28,-4.592 2.091,-1.968 4.797,-3.075 2.747,-1.107 5.822,-1.107 0.697,0 1.886,0.164 1.23,0.123 2.501,0.328 1.312,0.205 2.337,0.451 1.066,0.205 1.476,0.41 0.205,0.082 0.246,0.205 0.082,0.082 0.123,0.287 0.164,1.189 0.287,2.378 0.123,1.148 0.123,1.968 0,0.287 -0.205,0.574 -0.164,0.246 -0.41,0.246 -0.41,0 -0.615,-0.369 -0.205,-0.369 -0.328,-0.738 -0.246,-0.656 -0.533,-1.107 -0.246,-0.492 -0.738,-1.066 -0.246,-0.328 -1.066,-0.82 -0.779,-0.533 -2.132,-0.943 -1.353,-0.41 -3.321,-0.41 -2.378,0 -4.346,1.025 -1.968,0.984 -3.403,2.747 -1.394,1.722 -2.173,3.936 -0.738,2.214 -0.738,4.633 0,2.911 0.902,5.207 0.902,2.296 2.419,3.895 1.517,1.599 3.444,2.419 1.927,0.82 3.977,0.82 2.378,0 3.485,-0.574 1.148,-0.574 1.517,-0.943 0.451,-0.451 0.82,-1.271 0.41,-0.82 0.41,-1.886 0,-0.369 0,-0.779 0.041,-0.41 0.041,-0.82 0.041,-0.41 0.041,-0.779 0,-0.451 -0.041,-0.738 -0.041,-0.328 -0.164,-0.492 -0.328,-0.451 -1.148,-0.738 -0.82,-0.287 -1.64,-0.41 -0.82,-0.123 -1.23,-0.123 -0.164,0 -0.492,-0.205 -0.328,-0.205 -0.328,-0.492 0,-0.328 0.328,-0.492 0.328,-0.205 0.492,-0.205 1.025,0 1.763,0.041 0.738,0.041 1.517,0.082 0.779,0.041 1.886,0.041 1.066,0 1.804,-0.082 0.738,-0.082 1.845,-0.082 0.164,0 0.492,0.123 0.369,0.123 0.369,0.533 0,0.287 -0.369,0.492 -0.328,0.205 -0.492,0.246 -0.902,0.246 -1.271,0.738 -0.328,0.451 -0.451,1.271 -0.123,0.902 -0.164,1.599 -0.041,0.697 -0.041,1.476 v 1.107 q 0,0.205 0.082,0.328 0.082,0.123 0.164,0.328 0.123,0.205 0.328,0.369 0.205,0.164 0.205,0.328 0,0.164 -0.082,0.451 -0.041,0.246 -0.492,0.328 -0.287,0.041 -1.148,0.492 -0.82,0.41 -2.091,0.943 -1.271,0.533 -2.911,0.902 -1.64,0.41 -3.608,0.41 z"
       style="font-family:'EB Garamond';-inkscape-font-specification:'EB Garamond'"
       id="path296" />
    <path
       d="m 393.1078,720.91371 q -0.41,0 -0.615,-0.123 -0.205,-0.082 -0.205,-0.328 0,-0.328 0.246,-0.41 0.246,-0.123 0.697,-0.246 0.779,-0.205 1.148,-0.574 0.41,-0.41 0.41,-0.984 v -8.815 q 0,-1.107 -0.328,-1.927 -0.328,-0.82 -1.353,-1.025 -0.164,-0.041 -0.287,-0.205 -0.123,-0.164 -0.123,-0.328 0,-0.41 0.369,-0.492 1.066,-0.328 2.214,-0.943 1.189,-0.656 1.845,-1.066 0.246,-0.164 0.369,-0.205 0.164,-0.082 0.246,-0.082 0.205,0 0.205,0.287 0,0.123 -0.041,0.615 0,0.492 -0.041,1.148 0,0.656 -0.041,1.312 0,0.082 0.082,0.082 0.656,-0.82 1.435,-1.435 0.82,-0.615 1.64,-0.984 0.861,-0.369 1.64,-0.369 0.861,0 1.394,0.369 0.574,0.369 0.574,0.943 0,0.41 -0.246,0.902 -0.205,0.492 -0.574,0.861 -0.369,0.369 -0.779,0.369 -0.246,0 -0.533,-0.082 -0.287,-0.123 -0.615,-0.287 -0.328,-0.123 -0.656,-0.246 -0.328,-0.123 -0.656,-0.123 -0.984,0 -1.927,0.697 -0.902,0.697 -0.902,2.747 v 8.282 q 0,0.533 0.574,0.902 0.574,0.328 1.599,0.656 0.451,0.123 0.697,0.246 0.246,0.123 0.246,0.41 0,0.451 -0.82,0.451 -1.23,0 -1.886,-0.123 -0.615,-0.082 -1.681,-0.082 -0.697,0 -1.148,0.041 -0.41,0.041 -0.902,0.082 -0.451,0.082 -1.271,0.082 z"
       style="font-family:'EB Garamond';-inkscape-font-specification:'EB Garamond'"
       id="path298" />
    <path
       d="m 409.58978,721.36471 q -0.738,0 -1.517,-0.574 -0.738,-0.574 -1.271,-1.394 -0.492,-0.82 -0.492,-1.558 0,-1.312 0.697,-2.05 0.697,-0.738 2.214,-1.353 l 4.182,-1.722 q 0.82,-0.328 0.943,-0.574 0.164,-0.246 0.205,-1.066 l 0.082,-2.624 q 0.041,-1.066 -0.615,-1.845 -0.615,-0.779 -1.804,-0.779 -0.615,0 -1.23,0.205 -0.615,0.205 -1.025,0.533 -0.246,0.164 -0.328,0.492 -0.082,0.328 -0.082,0.697 0,0.164 0,0.369 0.041,0.205 0.041,0.369 0,0.205 -0.533,0.574 -0.492,0.328 -1.148,0.615 -0.615,0.246 -1.025,0.246 -0.205,0 -0.328,-0.082 -0.123,-0.123 -0.123,-0.287 0,-0.656 0.41,-1.394 0.451,-0.779 1.23,-1.435 0.943,-0.861 2.05,-1.517 1.107,-0.656 2.173,-1.025 1.066,-0.369 1.886,-0.369 1.476,0 2.419,1.066 0.984,1.025 0.943,2.583 l -0.205,9.84 q -0.041,0.861 0.369,1.394 0.451,0.533 1.107,0.533 1.025,0 1.517,-0.451 0.205,-0.205 0.328,-0.205 0.205,0 0.328,0.123 0.123,0.123 0.123,0.328 0,0.451 -0.451,0.902 -0.656,0.656 -1.435,1.025 -0.738,0.41 -1.394,0.41 -1.886,0 -2.993,-2.132 h -0.123 q -1.353,1.107 -2.583,1.599 -1.23,0.533 -2.542,0.533 z m 1.927,-1.968 q 0.82,0 1.394,-0.246 0.574,-0.287 1.025,-0.738 0.205,-0.205 0.328,-0.533 0.164,-0.369 0.205,-1.148 l 0.082,-2.009 q 0.041,-0.451 -0.041,-0.656 -0.082,-0.205 -0.328,-0.205 -0.082,0 -0.287,0.041 -0.205,0.041 -0.533,0.164 -2.173,0.779 -3.034,1.64 -0.82,0.82 -0.82,1.517 0,1.066 0.615,1.64 0.656,0.533 1.394,0.533 z"
       style="font-family:'EB Garamond';-inkscape-font-specification:'EB Garamond'"
       id="path300" />
    <path
       d="m 429.10569,721.65171 q -0.164,0 -0.41,-0.656 -0.246,-0.615 -0.328,-0.902 -0.287,-0.697 -0.533,-1.435 -0.246,-0.779 -0.492,-1.435 -0.902,-2.542 -1.968,-4.961 -1.025,-2.46 -2.009,-4.961 -0.287,-0.738 -0.902,-1.312 -0.574,-0.615 -1.189,-0.779 -0.328,-0.123 -0.533,-0.246 -0.205,-0.123 -0.205,-0.41 0,-0.246 0.287,-0.287 0.328,-0.082 0.533,-0.082 0.82,0 1.189,0.041 0.369,0.041 0.738,0.123 0.369,0.041 1.066,0.041 0.738,0 1.107,-0.041 0.369,-0.082 0.779,-0.123 0.41,-0.041 1.189,-0.041 0.205,0 0.492,0.082 0.328,0.041 0.328,0.287 0,0.287 -0.287,0.451 -0.287,0.164 -0.656,0.287 -0.41,0.164 -0.615,0.656 -0.205,0.451 -0.205,1.025 0,0.287 0.041,0.574 0.041,0.287 0.123,0.533 l 3.239,8.61 q 0.041,0.041 0.041,0.041 0.041,0 0.082,-0.041 l 3.116,-7.995 q 0.164,-0.41 0.246,-0.861 0.082,-0.492 0.082,-0.82 0,-0.82 -0.246,-1.148 -0.246,-0.369 -0.82,-0.574 -0.533,-0.205 -0.738,-0.328 -0.205,-0.123 -0.205,-0.41 0,-0.246 0.246,-0.287 0.287,-0.082 0.574,-0.082 0.451,0 1.189,0.123 0.738,0.082 1.804,0.082 1.066,0 1.435,-0.082 0.41,-0.123 0.984,-0.123 0.328,0 0.574,0.082 0.246,0.041 0.246,0.287 0,0.451 -0.943,0.738 -0.615,0.164 -1.353,0.943 -0.738,0.779 -1.189,1.804 l -3.198,7.708 q -0.082,0.164 -0.328,0.82 -0.246,0.615 -0.533,1.394 -0.287,0.738 -0.492,1.312 -0.205,0.533 -0.205,0.533 0,0 -0.164,0.41 -0.164,0.369 -0.369,0.779 -0.205,0.451 -0.369,0.656 z"
       style="font-family:'EB Garamond';-inkscape-font-specification:'EB Garamond'"
       id="path302" />
    <path
       d="m 445.99762,721.40571 q -2.255,0 -3.936,-1.107 -1.681,-1.107 -2.624,-3.116 -0.943,-2.05 -0.943,-4.715 0,-2.378 1.066,-4.305 1.107,-1.968 2.911,-3.157 1.804,-1.189 3.936,-1.189 1.64,0 2.911,0.656 1.271,0.656 1.968,1.845 0.738,1.148 0.738,2.665 0,1.271 -1.23,1.271 h -8.651 q -0.574,0 -0.82,0.328 -0.205,0.287 -0.205,1.189 0,1.968 0.861,3.608 0.861,1.599 2.296,2.583 1.435,0.943 3.157,0.943 1.23,0 2.214,-0.451 1.025,-0.492 1.804,-1.394 0.164,-0.205 0.246,-0.246 0.082,-0.082 0.205,-0.082 0.328,0 0.328,0.41 0,0.779 -0.738,1.722 -0.615,0.779 -1.476,1.353 -0.861,0.574 -1.886,0.861 -1.025,0.328 -2.132,0.328 z m -3.772,-12.423 h 3.731 q 0.984,0 1.681,-0.041 0.697,-0.041 1.353,-0.164 0.205,-0.041 0.246,-0.246 0.082,-0.246 0.082,-0.656 0,-1.189 -1.066,-2.009 -1.025,-0.861 -2.46,-0.861 -0.943,0 -1.886,0.574 -0.943,0.533 -1.558,1.353 -0.615,0.82 -0.615,1.64 0,0.41 0.492,0.41 z"
       style="font-family:'EB Garamond';-inkscape-font-specification:'EB Garamond'"
       id="path304" />
    <path
       d="m 467.48159,721.56971 q -0.082,0 -0.287,-0.164 -0.164,-0.164 -0.164,-0.246 0,-0.41 0.082,-1.148 0.123,-0.779 0.123,-1.312 v -0.246 q -0.615,0.943 -1.968,1.927 -1.353,0.984 -3.403,0.984 -2.337,0 -4.059,-1.23 -1.681,-1.23 -2.624,-3.157 -0.902,-1.927 -0.902,-3.977 0,-2.378 1.107,-4.469 1.107,-2.091 3.157,-3.403 2.091,-1.312 4.961,-1.312 0.82,0 1.64,0.164 0.861,0.123 1.312,0.287 0.369,0.123 0.533,0.123 0.287,0 0.287,-0.984 v -5.822 q 0,-1.681 -0.533,-2.255 -0.533,-0.574 -1.517,-0.738 -0.369,-0.082 -0.369,-0.533 0,-0.369 0.328,-0.492 1.804,-0.451 2.829,-0.861 1.025,-0.41 1.599,-0.656 0.164,-0.082 0.287,-0.082 0.164,-0.041 0.246,-0.041 0.246,0 0.287,0.246 0,0.246 -0.082,0.861 -0.041,0.574 -0.123,1.722 -0.082,1.148 -0.082,2.993 v 18.532 q 0,1.394 0.205,2.05 0.205,0.615 0.656,0.615 0.205,0 0.697,-0.041 0.533,-0.041 1.066,-0.082 0.738,-0.041 0.738,0.369 0,0.287 -0.205,0.533 -0.164,0.205 -0.369,0.205 -1.148,0.164 -2.255,0.492 -1.107,0.287 -2.542,0.902 -0.328,0.164 -0.451,0.205 -0.082,0.041 -0.205,0.041 z m -4.141,-2.337 q 1.066,0 2.091,-0.533 1.025,-0.574 1.804,-1.476 l 0.041,-7.38 q 0,-1.107 -0.656,-2.173 -0.615,-1.066 -1.763,-1.722 -1.107,-0.697 -2.624,-0.697 -0.943,0 -2.132,0.574 -1.189,0.574 -2.05,2.05 -0.861,1.435 -0.861,4.182 0,2.337 0.697,3.772 0.697,1.394 1.681,2.132 1.025,0.738 2.05,1.025 1.066,0.246 1.722,0.246 z"
       style="font-family:'EB Garamond';-inkscape-font-specification:'EB Garamond'"
       id="path306" />
    <path
       d="m 478.38753,721.36471 q -0.738,0 -1.517,-0.574 -0.738,-0.574 -1.271,-1.394 -0.492,-0.82 -0.492,-1.558 0,-1.312 0.697,-2.05 0.697,-0.738 2.214,-1.353 l 4.182,-1.722 q 0.82,-0.328 0.943,-0.574 0.164,-0.246 0.205,-1.066 l 0.082,-2.624 q 0.041,-1.066 -0.615,-1.845 -0.615,-0.779 -1.804,-0.779 -0.615,0 -1.23,0.205 -0.615,0.205 -1.025,0.533 -0.246,0.164 -0.328,0.492 -0.082,0.328 -0.082,0.697 0,0.164 0,0.369 0.041,0.205 0.041,0.369 0,0.205 -0.533,0.574 -0.492,0.328 -1.148,0.615 -0.615,0.246 -1.025,0.246 -0.205,0 -0.328,-0.082 -0.123,-0.123 -0.123,-0.287 0,-0.656 0.41,-1.394 0.451,-0.779 1.23,-1.435 0.943,-0.861 2.05,-1.517 1.107,-0.656 2.173,-1.025 1.066,-0.369 1.886,-0.369 1.476,0 2.419,1.066 0.984,1.025 0.943,2.583 l -0.205,9.84 q -0.041,0.861 0.369,1.394 0.451,0.533 1.107,0.533 1.025,0 1.517,-0.451 0.205,-0.205 0.328,-0.205 0.205,0 0.328,0.123 0.123,0.123 0.123,0.328 0,0.451 -0.451,0.902 -0.656,0.656 -1.435,1.025 -0.738,0.41 -1.394,0.41 -1.886,0 -2.993,-2.132 h -0.123 q -1.353,1.107 -2.583,1.599 -1.23,0.533 -2.542,0.533 z m 1.927,-1.968 q 0.82,0 1.394,-0.246 0.574,-0.287 1.025,-0.738 0.205,-0.205 0.328,-0.533 0.164,-0.369 0.205,-1.148 l 0.082,-2.009 q 0.041,-0.451 -0.041,-0.656 -0.082,-0.205 -0.328,-0.205 -0.082,0 -0.287,0.041 -0.205,0.041 -0.533,0.164 -2.173,0.779 -3.034,1.64 -0.82,0.82 -0.82,1.517 0,1.066 0.615,1.64 0.656,0.533 1.394,0.533 z"
       style="font-family:'EB Garamond';-inkscape-font-specification:'EB Garamond'"
       id="path308" />
    <path
       d="m 504.58645,721.56971 q -0.082,0 -0.287,-0.164 -0.164,-0.164 -0.164,-0.246 0,-0.41 0.082,-1.148 0.123,-0.779 0.123,-1.312 v -0.246 q -0.615,0.943 -1.968,1.927 -1.353,0.984 -3.403,0.984 -2.337,0 -4.059,-1.23 -1.681,-1.23 -2.624,-3.157 -0.902,-1.927 -0.902,-3.977 0,-2.378 1.107,-4.469 1.107,-2.091 3.157,-3.403 2.091,-1.312 4.961,-1.312 0.82,0 1.64,0.164 0.861,0.123 1.312,0.287 0.369,0.123 0.533,0.123 0.287,0 0.287,-0.984 v -5.822 q 0,-1.681 -0.533,-2.255 -0.533,-0.574 -1.517,-0.738 -0.369,-0.082 -0.369,-0.533 0,-0.369 0.328,-0.492 1.804,-0.451 2.829,-0.861 1.025,-0.41 1.599,-0.656 0.164,-0.082 0.287,-0.082 0.164,-0.041 0.246,-0.041 0.246,0 0.287,0.246 0,0.246 -0.082,0.861 -0.041,0.574 -0.123,1.722 -0.082,1.148 -0.082,2.993 v 18.532 q 0,1.394 0.205,2.05 0.205,0.615 0.656,0.615 0.205,0 0.697,-0.041 0.533,-0.041 1.066,-0.082 0.738,-0.041 0.738,0.369 0,0.287 -0.205,0.533 -0.164,0.205 -0.369,0.205 -1.148,0.164 -2.255,0.492 -1.107,0.287 -2.542,0.902 -0.328,0.164 -0.451,0.205 -0.082,0.041 -0.205,0.041 z m -4.141,-2.337 q 1.066,0 2.091,-0.533 1.025,-0.574 1.804,-1.476 l 0.041,-7.38 q 0,-1.107 -0.656,-2.173 -0.615,-1.066 -1.763,-1.722 -1.107,-0.697 -2.624,-0.697 -0.943,0 -2.132,0.574 -1.189,0.574 -2.05,2.05 -0.861,1.435 -0.861,4.182 0,2.337 0.697,3.772 0.697,1.394 1.681,2.132 1.025,0.738 2.05,1.025 1.066,0.246 1.722,0.246 z"
       style="font-family:'EB Garamond';-inkscape-font-specification:'EB Garamond'"
       id="path310" />
  </g>
  <g
     aria-label="v"
     id="text152"
     style="font-style:italic;font-size:48px;font-family:'Liberation Serif', 'Times New Roman', serif"
     class="st20 st21 st22">
    <path
       d="m 137.49182,58.495284 q -1.104,0 -1.92,-0.96 -0.816,-0.96 -1.104,-2.4 -0.24,-1.44 0.288,-2.832 l 3.12,-8.304 q 0.384,-0.96 0.432,-1.536 0.048,-0.624 -0.528,-0.624 -0.336,0 -1.2,0.72 -0.816,0.72 -1.584,1.536 -0.24,0.288 -0.384,0.336 -0.144,0.048 -0.24,0.048 -0.336,0 -0.336,-0.24 0,-0.288 0.096,-0.624 0.144,-0.336 0.48,-0.816 0.864,-1.2 1.728,-2.112 0.912,-0.96 1.728,-1.584 0.816,-0.672 1.488,-1.008 0.72,-0.336 1.248,-0.336 0.384,0 0.72,0.288 0.336,0.288 0.48,0.72 0.192,0.384 0.048,0.864 l -4.32,12.48 q -0.528,1.632 -0.144,2.64 0.384,1.008 1.584,1.008 1.728,0 3.36,-0.96 1.68,-1.008 2.976,-2.64 1.296,-1.68 2.064,-3.696 0.768,-2.016 0.768,-4.08 0,-0.816 -0.336,-1.632 -0.288,-0.816 -0.816,-1.44 -0.336,-0.384 -0.48,-0.768 -0.096,-0.384 -0.096,-0.816 0,-0.432 0.432,-0.864 0.432,-0.48 1.056,-0.768 0.672,-0.336 1.344,-0.336 0.528,0 0.96,0.816 0.432,0.816 0.432,2.496 0,2.112 -0.48,4.176 -0.432,2.064 -1.44,4.08 -0.96,1.968 -2.64,3.888 -2.256,2.64 -4.56,3.984 -2.256,1.296 -4.224,1.296 z"
       style="font-family:'EB Garamond';-inkscape-font-specification:'EB Garamond Italic'"
       id="path256" />
  </g>
</svg>
