<svg xmlns="http://www.w3.org/2000/svg" xmlns:xlink="http://www.w3.org/1999/xlink" width="1177.485" height="284.587" viewBox="0 0 883.114 213.44"><defs><symbol id="a" overflow="visible"><path d="M6.344.453c-1 0-1.903-.258-2.703-.766C2.836-.82 2.203-1.515 1.734-2.39c-.46-.882-.687-1.875-.687-2.968q0-1.921.844-3.5.842-1.578 2.265-2.516a5.65 5.65 0 0 1 3.157-.937q1.935 0 3.39 1.03c.238.188.36.384.36.579 0 .156-.07.336-.204.531q-.205.3-.5.5-.297.188-.578.188a.5.5 0 0 1-.297-.11 4 4 0 0 0-.328-.219 10 10 0 0 0-1.453-.953q-.797-.451-1.344-.453-1.454 0-2.359 1.36-.907 1.345-.906 3.547c0 .937.203 1.789.61 2.546Q4.31-2.64 5.327-1.984c.688.43 1.445.64 2.281.64q.873 0 1.5-.281c.414-.187.86-.52 1.329-1a1 1 0 0 1 .156-.094.4.4 0 0 1 .14-.047q.33 0 .329.422c0 .117-.04.25-.11.406q-.094.223-.328.516A5 5 0 0 1 9.485-.39a5 5 0 0 1-1.438.625 6.4 6.4 0 0 1-1.703.22m0 0" style="stroke:none"/></symbol><symbol id="b" overflow="visible"><path d="M1.453.094Q1.153.092 1 .016.86-.06.86-.234c0-.157.054-.258.171-.313.125-.05.297-.11.516-.172q.562-.14.844-.422a.95.95 0 0 0 .28-.703v-6.39q0-.81-.233-1.407-.235-.592-.985-.734a.38.38 0 0 1-.203-.156.4.4 0 0 1-.094-.235c0-.195.086-.316.266-.359a8.7 8.7 0 0 0 1.625-.687 37 37 0 0 0 1.328-.766q.17-.123.281-.172a.5.5 0 0 1 .157-.047c.101 0 .156.074.156.219 0 .055-.008.2-.016.437q-.018.364-.031.844-.017.469-.047.938 0 .063.063.062.48-.591 1.062-1.031.576-.45 1.188-.719a2.95 2.95 0 0 1 1.171-.265q.622.001 1.016.265c.27.18.406.406.406.688q0 .299-.172.656-.158.344-.421.625c-.18.18-.368.265-.563.265a1.1 1.1 0 0 1-.39-.078 6 6 0 0 1-.438-.187c-.156-.063-.32-.125-.484-.188a1.3 1.3 0 0 0-.47-.093q-.721 0-1.39.515-.656.503-.656 1.985v6.015q-.002.394.406.64.42.252 1.156.485c.22.063.383.125.5.188q.188.08.188.297-.002.328-.594.328-.89-.002-1.36-.078a8 8 0 0 0-1.218-.078q-.517 0-.828.03-.317.034-.656.079-.345.047-.938.047m0 0" style="stroke:none"/></symbol><symbol id="c" overflow="visible"><path d="M1.313.094A1.1 1.1 0 0 1 .875.016a.26.26 0 0 1-.156-.25c0-.157.07-.266.219-.328A3.4 3.4 0 0 1 1.39-.72c.414-.094.734-.21.953-.36q.328-.232.328-.765v-6.453q0-.81-.281-1.437c-.188-.414-.54-.66-1.047-.735a.38.38 0 0 1-.235-.125.46.46 0 0 1-.062-.265c0-.22.086-.336.266-.36q1.184-.263 1.953-.719.78-.467 1.172-.765.264-.201.406-.203.187 0 .187.14 0 .236-.078.938a33 33 0 0 0-.14 1.547 28 28 0 0 0-.047 1.531v6.906q0 .504.328.75c.226.157.547.282.953.375q.232.064.453.156a.33.33 0 0 1 .219.329q-.002.328-.594.328c-.375 0-.68-.016-.906-.047q-.346-.045-.657-.078a10 10 0 0 0-.843-.031q-.502 0-.828.03-.33.034-.657.079a7 7 0 0 1-.921.047m2.375-15.438q-.628.001-1.063-.437a1.47 1.47 0 0 1-.422-1.063q0-.656.422-1.078a1.45 1.45 0 0 1 1.063-.437q.654.002 1.093.437.437.421.438 1.078c0 .418-.149.774-.438 1.063q-.439.438-1.093.437m0 0" style="stroke:none"/></symbol><symbol id="d" overflow="visible"><path d="M4.281.422A5 5 0 0 1 2.547.125a4 4 0 0 1-1.36-.781Q1.047-.983.97-1.75q-.081-.779-.11-1.281 0-.265.391-.266.124 0 .219.047.105.034.14.156.389 1.455 1.235 2.078.843.626 1.703.625.874.001 1.484-.578.61-.575.61-1.437-.001-.81-.547-1.39-.533-.575-1.875-1.407c-.668-.414-1.211-.813-1.625-1.188q-.628-.574-.922-1.171a3.05 3.05 0 0 1-.281-1.329c0-.632.148-1.207.453-1.718q.451-.779 1.344-1.235c.593-.312 1.335-.469 2.234-.469q.889 0 1.484.188.593.175.89.375.235.329.391 1.031.172.692.172 1.313-.002.22-.296.219a.8.8 0 0 1-.344-.079.46.46 0 0 1-.219-.187q-.394-.984-.969-1.5-.58-.53-1.437-.531c-.5 0-.946.152-1.328.453q-.58.44-.578 1.297 0 .689.421 1.234.435.533 1.625 1.219 1.735.973 2.579 1.828.843.844.843 2.234 0 1.612-1.219 2.625C6.626.082 5.57.422 4.281.422m0 0" style="stroke:none"/></symbol><symbol id="e" overflow="visible"><path d="M5.625.422q-1.454 0-2.281-.89-.814-.904-.813-2.657v-6.906q0-.235-.187-.328c-.117-.07-.371-.11-.766-.11h-.187c-.094 0-.18-.062-.25-.187a.95.95 0 0 1-.094-.406c0-.04.023-.098.078-.172.063-.082.102-.133.125-.157q.592-.418 1.078-.828c.332-.281.629-.554.89-.828q.404-.405.673-.734.154-.14.25-.235.106-.107.265-.109a.6.6 0 0 1 .266.063q.139.046.125.265l-.156 1.328q-.036.33.14.453.187.111.578.11H8.75q.107.002.203.203.094.188.094.453 0 .268-.094.531c-.062.168-.133.25-.203.25H5.797q-.736.001-.969.125-.22.111-.219.703v5.86c0 .793.164 1.418.5 1.875q.515.688 1.47.687c.57 0 1.015-.039 1.327-.125q.482-.138.875-.406.046-.061.11-.062.123 0 .172.14.045.13.046.281-.001.142-.5.594-.486.44-1.28.828a3.8 3.8 0 0 1-1.704.39m0 0" style="stroke:none"/></symbol><symbol id="f" overflow="visible"><path d="M3.484.422q-.55 0-1.093-.422a3.8 3.8 0 0 1-.922-1.016q-.375-.592-.375-1.125c0-.632.164-1.129.5-1.484q.513-.545 1.625-.984L6.25-5.86q.593-.234.688-.407c.07-.125.117-.382.14-.78l.063-1.907q.03-.78-.438-1.344-.457-.562-1.312-.562-.457.002-.907.156-.44.141-.734.375a.6.6 0 0 0-.25.36 2.6 2.6 0 0 0-.031.78q.014.142.015.266 0 .141-.375.406-.374.251-.843.438-.458.187-.75.187a.4.4 0 0 1-.235-.062.25.25 0 0 1-.093-.203c0-.313.101-.649.312-1.016q.312-.563.875-1.031a9 9 0 0 1 1.484-1.094q.81-.48 1.579-.75.778-.264 1.375-.265 1.075.002 1.765.765.703.75.672 1.875l-.14 7.14q-.035.63.28 1.016.313.392.782.391c.5 0 .867-.11 1.11-.328q.14-.155.234-.156a.32.32 0 0 1 .328.328q0 .327-.328.656a4.4 4.4 0 0 1-1.032.75c-.367.195-.71.297-1.03.297Q8.09.422 7.28-1.125h-.078Q6.22-.328 5.328.047q-.892.375-1.844.375m1.391-1.438q.593 0 1.016-.187.42-.187.75-.516.14-.153.234-.406.105-.248.14-.812l.063-1.47q.029-.327-.031-.468a.24.24 0 0 0-.234-.156q-.066 0-.22.031a3 3 0 0 0-.374.125q-1.58.563-2.188 1.172-.61.61-.61 1.11-.001.783.454 1.187.468.39 1 .39m0 0" style="stroke:none"/></symbol><symbol id="g" overflow="visible"><path d="M1.156.094q-.14 0-.375-.047Q.561.002.562-.172c0-.164.07-.281.22-.344q.233-.107.468-.203.45-.14.86-.328.42-.199.421-.797v-15q0-.856-.312-1.437-.315-.576-1.063-.735-.234-.046-.234-.375-.001-.293.203-.359.78-.187 1.344-.375.561-.187 1.047-.39.498-.219.984-.407a.5.5 0 0 1 .172-.047q.058.002.094.078a.2.2 0 0 1 .046.125q-.002.269-.109 1.141-.093.88-.094 2.906v14.875q-.002.598.407.797.419.187.875.328c.156.063.304.133.453.203q.234.096.234.344 0 .174-.234.219a2 2 0 0 1-.36.047c-.375 0-.68-.016-.906-.047q-.346-.045-.656-.078a10 10 0 0 0-.86-.031q-.501 0-.828.03-.327.034-.656.079a7 7 0 0 1-.922.047m0 0" style="stroke:none"/></symbol><symbol id="h" overflow="visible"><path d="M6.969.422c-1.117 0-2.121-.258-3.016-.766a5.9 5.9 0 0 1-2.125-2.14c-.523-.907-.781-1.93-.781-3.078Q1.046-6.812 1.53-8c.32-.79.782-1.516 1.375-2.172A7 7 0 0 1 5-11.734a5.8 5.8 0 0 1 2.563-.578q1.716 0 3.093.828a6.3 6.3 0 0 1 2.203 2.187q.828 1.359.829 2.953c0 1.157-.258 2.25-.766 3.282a6.14 6.14 0 0 1-2.25 2.515Q9.183.421 6.969.422m.625-.89q.997 0 1.797-.391.808-.388 1.265-1.25.34-.687.469-1.672.124-.983.125-1.844c0-.945-.18-1.863-.531-2.75-.344-.883-.828-1.61-1.453-2.172a3.2 3.2 0 0 0-2.22-.844c-.53 0-1.01.086-1.437.25q-.645.252-1.171.938-.596.75-.782 1.828-.174 1.065-.172 2.125-.001 1.455.532 2.781.527 1.33 1.453 2.172c.613.555 1.32.828 2.125.828m0 0" style="stroke:none"/></symbol><symbol id="i" overflow="visible"><path d="M6.36.625q-.111 0-.298-.469A9 9 0 0 1 5.829-.5a22 22 0 0 1-.39-1.062q-.176-.546-.344-1.032a61 61 0 0 0-1.422-3.61Q2.92-7.964 2.203-9.78a2.64 2.64 0 0 0-.64-.969q-.44-.435-.875-.562-.237-.078-.391-.172-.14-.093-.14-.297c0-.114.07-.188.218-.219q.218-.047.375-.047.591.001.86.031c.175.024.35.047.53.079.176.023.438.03.782.03.351 0 .617-.007.797-.03a10 10 0 0 1 .562-.079q.296-.03.86-.03.152 0 .375.046.217.047.218.219-.002.204-.203.328a1.8 1.8 0 0 1-.468.203.87.87 0 0 0-.454.469q-.14.345-.14.75 0 .222.015.422.03.203.094.39l2.36 6.25c.019.024.03.031.03.031.009 0 .024-.007.048-.03L9.28-8.782q.123-.294.172-.64c.04-.227.063-.423.063-.579q0-.592-.188-.844-.174-.247-.578-.406a3.3 3.3 0 0 1-.547-.234q-.14-.093-.14-.297 0-.172.187-.219.2-.047.406-.047.327 0 .86.078.544.064 1.312.063.78 0 1.063-.063.279-.076.687-.078.246 0 .422.047.17.047.172.219c0 .219-.227.398-.672.531q-.457.127-.984.688a4.5 4.5 0 0 0-.86 1.312L8.328-3.656a6 6 0 0 0-.25.578 40 40 0 0 0-.375 1.015q-.206.55-.36.954l-.14.39q-.001 0-.125.282a8 8 0 0 1-.266.593 5 5 0 0 1-.265.469Zm0 0" style="stroke:none"/></symbol><symbol id="j" overflow="visible"><path d="M6.344.453q-1.64 0-2.86-.797-1.22-.809-1.906-2.281Q.89-4.107.891-6.047c0-1.144.257-2.187.78-3.125a6.5 6.5 0 0 1 2.11-2.281 5.14 5.14 0 0 1 2.86-.86c.789 0 1.492.165 2.109.485q.92.469 1.438 1.312.515.845.515 1.954c0 .617-.297.921-.89.921H3.547q-.422.001-.594.22-.157.22-.156.874c0 .961.207 1.828.625 2.61a5.14 5.14 0 0 0 1.656 1.874q1.043.69 2.297.688c.594 0 1.133-.11 1.625-.328a3.8 3.8 0 0 0 1.297-1 .6.6 0 0 1 .172-.188.25.25 0 0 1 .156-.046q.234.002.234.296c0 .375-.18.793-.53 1.25a5 5 0 0 1-1.079.985 5.2 5.2 0 0 1-1.375.625q-.736.234-1.531.234m-2.75-9.015h2.719c.468 0 .867-.008 1.203-.032a7.5 7.5 0 0 0 1-.125q.14-.03.187-.187.047-.17.047-.469-.002-.857-.766-1.469-.752-.61-1.796-.61-.69.002-1.375.407-.675.392-1.125 1-.439.597-.438 1.188-.001.298.344.297m0 0" style="stroke:none"/></symbol><symbol id="k" overflow="visible"><path d="M1.313.094A1.1 1.1 0 0 1 .875.016a.26.26 0 0 1-.156-.25c0-.157.054-.258.172-.313.125-.05.289-.11.5-.172q.45-.106.859-.312.422-.216.422-.813v-6.39Q2.67-9.045 2.5-9.61q-.159-.562-.922-.766a.9.9 0 0 1-.219-.14q-.08-.075-.078-.25c0-.22.086-.337.266-.36q1.043-.264 1.687-.656.656-.389 1.282-.86.091-.06.172-.109a.3.3 0 0 1 .156-.047c.039 0 .078.024.11.063a.26.26 0 0 1 .046.156q0 .205-.078.844a9 9 0 0 0-.078 1.047q0 .128.015.234.012.094.047.125a7.6 7.6 0 0 1 2.219-1.485q1.171-.499 2.578-.5c.969 0 1.77.399 2.406 1.188.633.793.954 1.773.954 2.938v6.343c0 .399.132.664.406.797.281.125.57.234.875.328.156.063.304.133.453.203q.234.096.234.344 0 .174-.219.219a1.8 1.8 0 0 1-.39.047c-.399 0-.703-.016-.922-.047s-.43-.055-.625-.078q-.3-.03-.828-.031-.503 0-.828.03c-.219.024-.446.048-.672.079q-.345.047-.938.047-.158 0-.375-.047-.22-.045-.218-.219-.002-.248.218-.344.217-.107.47-.203c.288-.094.577-.203.858-.328q.423-.199.422-.797v-6.25q-.001-1.311-.734-2.031c-.492-.488-1.14-.742-1.953-.766-.711 0-1.336.118-1.875.344A6.2 6.2 0 0 0 5-9.703a.76.76 0 0 0-.187.328 1.5 1.5 0 0 0-.047.36v7.171c0 .399.132.668.406.813a4 4 0 0 0 .875.312c.445.125.672.29.672.485q-.002.175-.157.25c-.093.05-.242.078-.437.078q-.597 0-.937-.047-.348-.045-.641-.078-.3-.03-.828-.031-.503 0-.813.03-.316.034-.656.079-.345.047-.937.047m0 0" style="stroke:none"/></symbol><symbol id="l" overflow="visible"><path d="M7.047 6.36q-.3-.002-.5-.204-.627-.627-1.36-1.781-.72-1.158-1.437-2.656c-.48-.992-.914-2.04-1.297-3.157a27 27 0 0 1-.922-3.359A16 16 0 0 1 1.188-8c0-1.27.164-2.54.5-3.812q.514-1.905 1.312-3.61a23 23 0 0 1 1.719-3.062c.601-.907 1.172-1.625 1.703-2.157a1 1 0 0 1 .375-.234q.215-.094.437-.094.14 0 .391.14.265.13.266.329 0 .034-.094.156a3 3 0 0 0-.188.25q-.08.128-.109.157-.893 1.048-1.797 2.812-.893 1.751-1.469 4c-.386 1.492-.578 3.078-.578 4.766q0 1.909.328 3.953c.22 1.355.504 2.664.86 3.922a26 26 0 0 0 1.203 3.343q.667 1.484 1.36 2.282.03.029.124.156.106.122.219.25c.07.094.11.148.11.172q-.001.293-.266.468a.96.96 0 0 1-.547.172m0 0" style="stroke:none"/></symbol><symbol id="m" overflow="visible"><path d="M5.797 8.625q-2.534 0-4-.969Q.327 6.685.328 5.063q0-.785.235-1.313a2.3 2.3 0 0 1 .75-.922q.405-.362 1.109-.906.703-.55 1.453-1.14l1.234.046q-1.422.919-1.984 1.75-.562.843-.562 2.031-.001 1.185 1.046 2 1.062.828 2.61.829c1.164 0 2.11-.266 2.828-.797a4.05 4.05 0 0 0 1.156-1.485 4.5 4.5 0 0 0 .422-1.906 1.43 1.43 0 0 0-.469-1.094q-.455-.44-1.437-.703c-.656-.18-1.512-.297-2.563-.36Q3.356.889 2.266.36 1.187-.172 1.188-1.312q-.001-.295.156-.547.169-.247.531-.547.686-.53 1.016-.781.327-.262.484-.438c.113-.125.219-.273.313-.453l1.015.516a3.3 3.3 0 0 0-1.11.64q-.437.392-.437.719 0 .423.438.734c.3.211.738.375 1.312.5q.856.175 2.11.25 2.748.16 4.078.89 1.342.75 1.344 2.126c0 .77-.196 1.523-.579 2.266a7.93 7.93 0 0 1-3.671 3.515 5.6 5.6 0 0 1-2.391.547m.36-12.812q1.124 0 1.874-1.141.75-1.155.75-2.86 0-.857-.406-1.609a3.5 3.5 0 0 0-1.047-1.219q-.644-.468-1.375-.468-.688.001-1.297.5a3.6 3.6 0 0 0-.984 1.265 3.8 3.8 0 0 0-.375 1.688q0 1.049.39 1.922c.258.586.61 1.054 1.047 1.406q.656.516 1.422.516m-.173 1.03q-1.22.002-2.328-.624a5.4 5.4 0 0 1-1.797-1.64 3.9 3.9 0 0 1-.703-2.25c0-.938.242-1.755.735-2.454a5.04 5.04 0 0 1 1.922-1.656 5.6 5.6 0 0 1 2.53-.594q.857 0 1.5.219.64.22 1.266.406.704.204 1.125.25t.86.047q.357 0 .89-.047.546-.047.75-.047c.258 0 .391.152.391.453 0 .18-.102.367-.297.563q-.156.157-.25.156h-.797q-.797 0-.89.234a4 4 0 0 0-.079.344 5 5 0 0 0-.109 1.016 6 6 0 0 1-.656 2.797c-.43.855-1 1.543-1.719 2.062a3.92 3.92 0 0 1-2.344.766m0 0" style="stroke:none"/></symbol><symbol id="n" overflow="visible"><path d="M1.313.094q-.159 0-.375-.047Q.716.002.718-.172.717-.42.939-.516q.217-.107.453-.203.45-.14.859-.39.422-.263.422-.907v-8.39h-.688c-.25 0-.539-.02-.859-.063a.43.43 0 0 1-.219-.172.6.6 0 0 1-.11-.359q0-.218.329-.312.543-.14.86-.297.31-.17.687-.344 0-2.686.75-4.438.75-1.746 1.89-2.765 1.139-1.013 2.36-1.422Q8.89-21 9.875-21q.891 0 1.781.188c.594.117 1.086.312 1.485.593q.609.409.609 1.157 0 .83-.469 1.187a1.6 1.6 0 0 1-1.031.36.8.8 0 0 1-.625-.282c-.156-.195-.336-.41-.531-.64a5 5 0 0 0-.922-.922q-.564-.452-1.61-.453-.955.002-1.828.578-.878.58-1.421 1.828c-.368.836-.547 1.93-.547 3.281v1.625c0 .242.07.39.218.453q.217.095.516.14a38 38 0 0 0 1.75.157q.903.064 1.734.063.796 0 1.391-.063.608-.061.813-.156.42-.234.796-.485.388-.248.782-.484.105-.06.234-.031.124.035.125.14-.035.516-.14 1.594c-.075.711-.11 1.703-.11 2.985v6.171q0 .643.422.907.42.251.86.39.245.096.468.203.218.096.219.344 0 .174-.219.219a2 2 0 0 1-.375.047q-.597 0-.937-.047-.348-.045-.641-.078-.3-.03-.828-.031-.517 0-.828.03-.317.034-.657.079a7 7 0 0 1-.921.047q-.158 0-.391-.047c-.149-.031-.219-.102-.219-.219 0-.164.07-.281.219-.344q.234-.107.469-.203.45-.14.859-.39.422-.263.422-.907v-6.28q0-.843-.328-1.438-.33-.593-1.094-.735-.064-.03-.531-.031H6.828q-.469.001-.875.031-.861.035-1.031.188-.158.141-.156.406v7.86c0 .43.132.73.406.906q.42.251.875.39.232.096.453.203.218.096.219.344 0 .174-.219.219a2 2 0 0 1-.375.047q-.597 0-.937-.047-.348-.045-.641-.078-.3-.03-.828-.031-.503 0-.813.03-.316.034-.656.079-.345.047-.937.047m0 0" style="stroke:none"/></symbol><symbol id="o" overflow="visible"><path d="M2.328 6.36q.293-.002.5-.204.622-.627 1.344-1.781.732-1.158 1.453-2.656c.477-.992.91-2.04 1.297-3.157q.575-1.685.922-3.359.341-1.686.343-3.203 0-1.904-.515-3.812a21 21 0 0 0-1.313-3.61 22.6 22.6 0 0 0-1.703-3.062q-.907-1.36-1.703-2.157a1.1 1.1 0 0 0-.375-.234 1.1 1.1 0 0 0-.437-.094q-.141 0-.407.14-.251.13-.25.329 0 .034.094.156c.063.074.117.157.172.25.063.086.102.137.125.157q.891 1.048 1.781 2.812.904 1.751 1.485 4c.382 1.492.578 3.078.578 4.766q0 1.909-.328 3.953a33 33 0 0 1-.875 3.922 24 24 0 0 1-1.203 3.343q-.658 1.484-1.344 2.282-.035.029-.14.156c-.063.082-.134.164-.204.25-.074.094-.11.148-.11.172q0 .293.25.468.264.171.563.172m0 0" style="stroke:none"/></symbol><symbol id="t" overflow="visible"><path d="M4.313-11.953q-.926 0-1.75-.516a4.1 4.1 0 0 1-1.313-1.375 3.5 3.5 0 0 1-.5-1.812c0-.625.164-1.203.5-1.735q.498-.809 1.313-1.297.824-.499 1.75-.5c.632 0 1.218.165 1.75.485q.808.468 1.312 1.265.516.786.516 1.735 0 .956-.516 1.812a4.3 4.3 0 0 1-1.312 1.407 3.1 3.1 0 0 1-1.75.53m0-1.25q.949.001 1.625-.719.67-.714.671-1.64-.002-.985-.671-1.657a2.2 2.2 0 0 0-1.625-.687q-.926 0-1.61.687-.689.673-.687 1.657c0 .617.226 1.164.687 1.64q.684.72 1.61.719m0 0" style="stroke:none"/></symbol><symbol id="u" overflow="visible"><path d="M12.11.453Q10.028.451 8.093-.266a11 11 0 0 1-3.453-2.03A9.6 9.6 0 0 1 2.25-5.485q-.877-1.859-.875-4.125-.002-2.17.922-4.016a10.1 10.1 0 0 1 2.516-3.203 11.8 11.8 0 0 1 3.671-2.125 12.6 12.6 0 0 1 4.375-.766q1.156 0 1.954.094.81.081 1.562.25.763.158 1.766.422c.3.086.515.203.64.36q.2.233.235.656.046.689.14 1.484.092.784.125 1.937.03.204-.203.344a.66.66 0 0 1-.469.078c-.168-.039-.28-.172-.343-.39q-.3-1.138-.688-1.953a3.4 3.4 0 0 0-1.156-1.36q-.751-.498-1.813-.75a10 10 0 0 0-2.265-.25 7.4 7.4 0 0 0-3.203.703 7.7 7.7 0 0 0-2.532 1.89 9.2 9.2 0 0 0-1.64 2.735 8.5 8.5 0 0 0-.594 3.14q-.001 1.817.578 3.579A10.7 10.7 0 0 0 6.61-3.578a8.75 8.75 0 0 0 2.594 2.266q1.499.843 3.344.843 2.154 0 3.547-.984c.937-.656 1.726-1.567 2.375-2.734q.216-.389.61-.391.404 0 .405.469c0 .156-.043.414-.125.765q-.113.518-.312 1.094-.188.58-.36 1.031c-.148.282-.265.465-.359.547-.086.074-.281.156-.594.25-.742.305-1.62.52-2.64.656a21 21 0 0 1-2.985.22m0 0" style="stroke:none"/></symbol><symbol id="v" overflow="visible"><path d="M6.969.422c-1.117 0-2.121-.258-3.016-.766a5.9 5.9 0 0 1-2.125-2.14c-.523-.907-.781-1.93-.781-3.078Q1.046-6.812 1.53-8c.32-.79.782-1.516 1.375-2.172A7 7 0 0 1 5-11.734a5.8 5.8 0 0 1 2.563-.578q1.716 0 3.093.828a6.3 6.3 0 0 1 2.203 2.187q.828 1.359.829 2.953c0 1.157-.258 2.25-.766 3.282a6.14 6.14 0 0 1-2.25 2.515Q9.183.421 6.969.422m.625-.89q.997 0 1.797-.391.808-.388 1.265-1.25.34-.687.469-1.672.124-.983.125-1.844c0-.945-.18-1.863-.531-2.75-.344-.883-.828-1.61-1.453-2.172a3.2 3.2 0 0 0-2.22-.844c-.53 0-1.01.086-1.437.25q-.645.252-1.171.938-.596.75-.782 1.828-.174 1.065-.172 2.125-.001 1.455.532 2.781.527 1.33 1.453 2.172c.613.555 1.32.828 2.125.828m.64-13.126c.164 0 .25-.086.25-.265 0-.063-.011-.133-.03-.22a6 6 0 0 0-.095-.327q-.203-.56-.671-1.438a63 63 0 0 0-.922-1.703 19 19 0 0 0-.703-1.219 1.06 1.06 0 0 0-.375-.39c-.149-.102-.29-.157-.422-.157q-.563.002-1.016.157-.438.14-.437.468-.001.189.062.313.076.112.234.313c.227.343.547.773.954 1.28.414.5.832.993 1.25 1.47.414.468.75.835 1 1.093q.622.626.921.625m0 0" style="stroke:none"/></symbol><symbol id="w" overflow="visible"><path d="M10.625.563q-.064-.001-.203-.125c-.086-.075-.125-.133-.125-.172 0-.2.02-.477.062-.844q.078-.545.079-.938v-.187q-.439.691-1.422 1.406-.985.717-2.47.719-1.705 0-2.937-.89a6 6 0 0 1-1.906-2.298 6.76 6.76 0 0 1-.656-2.89q0-1.717.797-3.235a6.47 6.47 0 0 1 2.297-2.468q1.512-.951 3.593-.953.593.002 1.204.109.609.095.937.219.263.08.39.078c.133 0 .204-.235.204-.703v-4.235c0-.812-.133-1.351-.39-1.625-.25-.281-.618-.46-1.095-.547-.18-.03-.265-.156-.265-.375 0-.187.078-.304.234-.359q1.31-.328 2.047-.625c.5-.195.89-.36 1.172-.484a.45.45 0 0 1 .219-.063c.07-.008.125-.015.156-.015.125 0 .195.058.219.171q0 .176-.047.61-.048.44-.11 1.265a30 30 0 0 0-.062 2.172v13.453q-.001 1.001.156 1.47c.102.304.258.452.469.452.101 0 .281-.004.531-.015q.375-.03.75-.063.546-.029.547.266a.57.57 0 0 1-.14.375q-.141.157-.282.156-.832.129-1.64.344a14 14 0 0 0-1.844.672l-.313.14a.5.5 0 0 1-.156.031M7.609-1.125q.779.002 1.516-.406.75-.406 1.313-1.063l.03-5.344q0-.81-.468-1.578a3.5 3.5 0 0 0-1.281-1.265q-.816-.499-1.906-.5-.692 0-1.547.422-.863.422-1.485 1.484-.626 1.05-.625 3.031-.002 1.704.5 2.735.515 1.019 1.235 1.562.733.535 1.484.735.764.187 1.234.187m0 0" style="stroke:none"/></symbol><symbol id="x" overflow="visible"><path d="M1.313.094C1.156.094 1.016.07.89.03.773-.008.719-.098.719-.234q0-.217.187-.297.186-.094.485-.188.42-.14.843-.328.436-.199.438-.797v-6.39Q2.67-9.045 2.5-9.656q-.175-.609-.953-.719a.36.36 0 0 1-.203-.125.46.46 0 0 1-.063-.266q0-.293.235-.359.81-.199 1.28-.422.47-.234.845-.515.373-.282.906-.61a1 1 0 0 0 .125-.078.22.22 0 0 1 .14-.047q.188 0 .188.219 0 .205-.078.844a9 9 0 0 0-.078 1.047q0 .314.062.359h.063q.684-.656 1.797-1.313 1.123-.67 2.843-.671 1.08 0 1.782.468c.476.305.875.828 1.187 1.578h.094a9.4 9.4 0 0 1 2.172-1.453 6 6 0 0 1 2.672-.594q.984.001 1.64.594.656.598 1 1.547.342.954.344 1.985v6.343q-.002.598.406.797c.282.125.57.234.875.328q.296.094.485.188c.132.054.203.152.203.297q0 .175-.14.25-.141.077-.47.078-.595 0-.922-.047-.327-.045-.609-.078a8 8 0 0 0-.812-.031q-.502 0-.828.03-.33.034-.688.079a8 8 0 0 1-.953.047 1.1 1.1 0 0 1-.438-.078.26.26 0 0 1-.156-.25q0-.235.188-.328.199-.093.5-.157c.312-.07.601-.176.875-.312q.406-.216.406-.813v-6.25q0-.715-.328-1.344a3.14 3.14 0 0 0-.875-1.062 1.87 1.87 0 0 0-1.188-.422q-.737 0-1.375.188a3.3 3.3 0 0 0-1.203.625q-.843.657-.844 2.14v6.125q0 .597.438.813.45.206.906.312c.195.043.36.102.485.172a.33.33 0 0 1 .203.313q-.002.175-.157.25c-.093.05-.242.078-.437.078q-.598 0-.938-.047-.345-.045-.656-.078a10 10 0 0 0-.844-.031q-.515 0-.843.03-.33.034-.688.079-.346.047-.937.047Q8.89.092 8.703.016q-.174-.076-.172-.25c0-.157.07-.258.219-.313.156-.05.313-.11.469-.172q.452-.14.875-.328.435-.199.437-.797v-6.25q0-.715-.328-1.344a3.2 3.2 0 0 0-.86-1.062 1.87 1.87 0 0 0-1.187-.422q-.751 0-1.39.188a3.3 3.3 0 0 0-1.203.625q-.797.595-.797 2.14v6.125c0 .399.132.664.406.797q.42.187.875.328.232.095.453.172c.145.055.219.156.219.313q-.001.175-.172.25a1 1 0 0 1-.422.078q-.597 0-.937-.047-.348-.045-.641-.078-.3-.03-.828-.031-.503 0-.813.03-.316.034-.656.079-.345.047-.937.047m0 0" style="stroke:none"/></symbol><symbol id="y" overflow="visible"><path d="M3.484.422q-.55 0-1.093-.422a3.8 3.8 0 0 1-.922-1.016q-.375-.592-.375-1.125c0-.632.164-1.129.5-1.484q.513-.545 1.625-.984L6.25-5.86q.593-.234.688-.407c.07-.125.117-.382.14-.78l.063-1.907q.03-.78-.438-1.344-.457-.562-1.312-.562-.457.002-.907.156-.44.141-.734.375a.6.6 0 0 0-.25.36 2.6 2.6 0 0 0-.031.78q.014.142.015.266 0 .141-.375.406-.374.251-.843.438-.458.187-.75.187a.4.4 0 0 1-.235-.062.25.25 0 0 1-.093-.203c0-.313.101-.649.312-1.016q.312-.563.875-1.031a9 9 0 0 1 1.484-1.094q.81-.48 1.579-.75.778-.264 1.375-.265 1.075.002 1.765.765.703.75.672 1.875l-.14 7.14q-.035.63.28 1.016.313.392.782.391c.5 0 .867-.11 1.11-.328q.14-.155.234-.156a.32.32 0 0 1 .328.328q0 .327-.328.656a4.4 4.4 0 0 1-1.032.75c-.367.195-.71.297-1.03.297Q8.09.422 7.28-1.125h-.078Q6.22-.328 5.328.047q-.892.375-1.844.375m1.391-1.438q.593 0 1.016-.187.42-.187.75-.516.14-.153.234-.406.105-.248.14-.812l.063-1.47q.029-.327-.031-.468a.24.24 0 0 0-.234-.156q-.066 0-.22.031a3 3 0 0 0-.374.125q-1.58.563-2.188 1.172-.61.61-.61 1.11-.001.783.454 1.187.468.39 1 .39m1.781-12.578c.164 0 .25-.086.25-.265 0-.063-.011-.133-.031-.22a6 6 0 0 0-.094-.327q-.204-.56-.672-1.438a63 63 0 0 0-.921-1.703 19 19 0 0 0-.704-1.219 1.06 1.06 0 0 0-.375-.39c-.148-.102-.289-.157-.421-.157q-.564.002-1.016.157-.439.14-.438.468 0 .189.063.313.076.112.234.313c.227.343.547.773.953 1.28.414.5.832.993 1.25 1.47.414.468.75.835 1 1.093q.622.626.922.625m0 0" style="stroke:none"/></symbol><symbol id="z" overflow="visible"><path d="M2.969-4.453q-.657.001-1.156-.484a1.6 1.6 0 0 1-.485-1.157q-.001-.686.484-1.156.5-.482 1.157-.484.687.002 1.156.484.482.47.484 1.156-.002.657-.484 1.157c-.312.324-.7.484-1.156.484m0 0" style="stroke:none"/></symbol><symbol id="A" overflow="visible"><path d="M6.36.156c-.25 0-.462-.027-.626-.078C5.578.023 5.5-.055 5.5-.172q0-.217.234-.328.246-.124.75-.219c.75-.133 1.32-.375 1.72-.718q.608-.528.608-1.594v-11.547q-.002-1.372-.062-2.094-.064-.732-.203-1.031c-.086-.195-.203-.305-.36-.328a4 4 0 0 0-.89-.094 47 47 0 0 0-1.234-.016H4.672q-.72 0-1.422.282-.689.282-1.016.875c-.062.093-.168.242-.312.437a2.8 2.8 0 0 1-.438.485q-.234.203-.468.203-.127 0-.172-.11a.8.8 0 0 1-.047-.281q-.001-.294.156-.594.422-.856.61-1.531c.125-.445.226-.977.312-1.594q.06-.497.219-.578a.6.6 0 0 1 .281-.094q.123 0 .375.36.247.347.375.593.169.3.813.454.638.14 1.265.14h10.469q1.044.002 1.703-.125a5.2 5.2 0 0 0 1.125-.328q.357-.17.578-.375a.84.84 0 0 1 .594-.219q.076 0 .14.235.061.22.063.453 0 .14-.047.422c-.031.18-.058.312-.078.406a6 6 0 0 1-.156.781q-.081.235-.11.422a3 3 0 0 0-.03.547v.36q-.002.27-.126.609-.11.344-.344.344-.221 0-.343-.329a7 7 0 0 1-.22-.89q-.127-.62-.718-.985-.596-.375-2.031-.375h-3q-.657.001-.985.172-.327.176-.421.89-.08.721-.079 2.36V-3.03q0 1.066.626 1.594c.414.343.988.585 1.718.718q.516.095.75.219.235.111.235.328c0 .117-.079.195-.235.25q-.236.077-.625.078-.798 0-1.328-.047c-.344-.03-.68-.058-1-.078q-.47-.033-1.156-.031-.736-.002-1.297.031-.55.03-1.125.078-.582.047-1.39.047m0 0" style="stroke:none"/></symbol><symbol id="D" overflow="visible"><path d="M19.875.5c-.18 0-.531-.152-1.062-.453q-.786-.436-1.5-1.422c-.075-.094-.32-.383-.735-.875-.406-.5-.922-1.117-1.547-1.86Q14.092-5.234 13-6.546c-.73-.875-1.465-1.742-2.203-2.61Q9.7-10.466 8.75-11.577l-1.594-1.875a75 75 0 0 1-.797-.953q-.205-.265-.359-.36a.46.46 0 0 0-.266-.109c-.093 0-.164.078-.203.234a1.4 1.4 0 0 0-.062.391q-.035 1.454-.063 3.36a751 751 0 0 1-.047 3.937 221 221 0 0 0-.03 3.86q-.002.797.39 1.484.403.69 1.515.89.5.095.735.219c.164.074.25.184.25.328 0 .117-.086.195-.25.25q-.237.077-.625.078-.799 0-1.203-.047-.41-.046-.72-.078Q5.108-.002 4.548 0q-.535-.002-.828.031-.3.03-.688.078-.391.047-1.187.047-.392 0-.625-.078C1.062.023.984-.055.984-.172q0-.217.235-.328.234-.122.75-.25c.57-.156.984-.445 1.234-.875q.389-.638.485-1.562.123-1.123.234-2.985.122-1.858.203-4.156.094-2.311.094-4.75c0-1.05-.274-1.805-.813-2.266q-.814-.684-2.125-1.093-.127-.061-.531-.25-.391-.2-.39-.47c0-.175.085-.288.265-.343q.264-.076.422-.078.856.035 1.39.047.53.017.954.047.419.035.922.047.498.016 1.312.015a.53.53 0 0 1 .406.156q.154.143.313.344.106.175.781 1c.445.543 1 1.227 1.656 2.047q.997 1.235 2.188 2.688 1.2 1.438 2.39 2.89 1.185 1.442 2.204 2.672 1.014 1.235 1.671 2.031.669.8.797.953.105.127.328.36c.157.156.29.234.407.234q.28.001.297-.625-.002-.421.015-1.594.013-1.169.031-2.843.014-1.686.016-3.641v-4.031q-.034-.593-.625-1.063-.596-.482-1.094-.578a5.5 5.5 0 0 1-.937-.219q-.409-.151-.407-.375-.002-.169.407-.25.42-.076.812-.078h1.703q.704 0 1.125-.015.421-.013.907-.032.5-.03 1.39-.03.375 0 .61.077.248.063.25.25c0 .274-.328.469-.985.594q-1.095.205-1.453.531-.363.328-.422 1.078c0 .094-.008.48-.015 1.157-.012.68-.016 1.53-.016 2.562s-.008 2.14-.016 3.328a361 361 0 0 0-.015 3.563v3.156q0 .721.047 1.297.043.58.078.984a9 9 0 0 1 .031.61q-.002.466-.203.593a.7.7 0 0 1-.422.141m0 0" style="stroke:none"/></symbol><symbol id="E" overflow="visible"><path d="M6.344.453c-1 0-1.903-.258-2.703-.766C2.836-.82 2.203-1.515 1.734-2.39c-.46-.882-.687-1.875-.687-2.968q0-1.921.844-3.5.842-1.578 2.265-2.516a5.65 5.65 0 0 1 3.157-.937q1.935 0 3.39 1.03c.238.188.36.384.36.579 0 .156-.07.336-.204.531q-.205.3-.5.5-.297.188-.578.188a.5.5 0 0 1-.297-.11 4 4 0 0 0-.328-.219 10 10 0 0 0-1.453-.953q-.797-.451-1.344-.453-1.454 0-2.359 1.36-.907 1.345-.906 3.547c0 .937.203 1.789.61 2.546Q4.31-2.64 5.327-1.984c.688.43 1.445.64 2.281.64q.873 0 1.5-.281c.414-.187.86-.52 1.329-1a1 1 0 0 1 .156-.094.4.4 0 0 1 .14-.047q.33 0 .329.422c0 .117-.04.25-.11.406q-.094.223-.328.516A5 5 0 0 1 9.485-.39a5 5 0 0 1-1.438.625 6.4 6.4 0 0 1-1.703.22M4.828 8.156q-.486 0-.703-.281-.204-.27-.203-.937-.001-.284.11-.438a.33.33 0 0 1 .28-.14q.235-.002.563.156c.219.113.555.172 1.016.172.394 0 .687-.133.875-.391q.28-.375.28-.938 0-.86-.515-1.28a1.9 1.9 0 0 0-1.234-.423q-.3 0-.469.094a.6.6 0 0 1-.297.094.7.7 0 0 1-.36-.125q-.187-.13-.187-.328-.001-.13.157-.328L6.75-.235h.922L6.547 1.25q-.14.201-.14.297c0 .113.1.223.312.328.476.195.898.5 1.265.906q.563.61.563 1.36a3.2 3.2 0 0 1-.422 1.625A4.5 4.5 0 0 1 7.078 7.03a6.2 6.2 0 0 1-1.234.828q-.61.296-1.016.297m0 0" style="stroke:none"/></symbol><symbol id="F" overflow="visible"><path d="M1.75-12.672q-.532 0-.531-.328 0-.124.093-.219.105-.105.329-.14a4.6 4.6 0 0 0 1.297-.5 3.2 3.2 0 0 0 1.109-1.032q.452-.67.453-1.703 0-.357-.328-.812-.328-.467-.844-.5-.656-.06-1.031-.422a1.13 1.13 0 0 1-.36-.828q-.001-.592.485-.985a1.8 1.8 0 0 1 1.14-.39q1.08 0 1.782.828.703.814.703 2.062 0 1.127-.453 2.032a5.7 5.7 0 0 1-1.14 1.562q-.675.657-1.407 1.016-.721.361-1.297.36m0 0" style="stroke:none"/></symbol><symbol id="G" overflow="visible"><path d="M1.969.156q-.394-.002-.64-.11-.235-.105-.235-.28-.001-.296.953-.485c.758-.133 1.254-.36 1.484-.672q.342-.48.344-1.546v-13.454c0-.695-.078-1.187-.234-1.468-.149-.29-.594-.504-1.344-.641q-.984-.186-.985-.547 0-.17.204-.265c.132-.07.351-.11.656-.11.531 0 .945.012 1.25.031q.451.019.828.032.387.016.984.015.622 0 1.016-.015.406-.013.875-.032.469-.03 1.266-.03.857 0 .859.374 0 .222-.234.344-.236.11-.75.203-1.094.206-1.563.734c-.305.344-.453.805-.453 1.375v5.86c0 .117.047.187.14.219a1 1 0 0 0 .266.046h11.047q.201.002.203-.359v-5.797q0-.796-.422-1.328c-.273-.363-.78-.613-1.53-.75q-.518-.093-.75-.203-.235-.122-.235-.344-.001-.375.86-.375.796.001 1.312.031c.351.012.687.024 1 .032a32 32 0 0 0 1.968 0q.294-.013.688-.032.389-.03 1.187-.03c.282 0 .493.038.641.108q.218.095.219.266 0 .361-.985.547-1.094.204-1.328.719-.234.504-.234 1.36V-2.97q0 1.096.281 1.578c.188.313.645.54 1.375.672.633.125.953.29.953.485q0 .175-.234.28c-.156.071-.367.11-.625.11q-.814 0-1.266-.047-.44-.046-.828-.078-.377-.033-1-.031-.627-.002-1.031.031c-.274.02-.563.047-.875.078q-.471.047-1.281.047-.393-.002-.625-.11-.235-.105-.235-.28c0-.145.07-.243.219-.297q.218-.094.734-.188.95-.17 1.5-.687.547-.529.547-1.485v-6.093q0-.155-.14-.157H6.39q-.141 0-.141.329v5.656q0 .925.672 1.594.684.674 1.703.843.514.094.734.188.219.08.22.297 0 .175-.235.28-.236.108-.625.11-.814 0-1.328-.047-.518-.046-1-.078Q5.92-.002 5.234 0q-.628-.002-1.062.031-.423.03-.922.078-.485.047-1.281.047m0 0" style="stroke:none"/></symbol><symbol id="I" overflow="visible"><path d="M11.219.422a10.1 10.1 0 0 1-3.75-.703 9.9 9.9 0 0 1-3.157-1.985 9.4 9.4 0 0 1-2.171-3.093q-.797-1.812-.797-4.016c0-1.344.21-2.633.64-3.875a10 10 0 0 1 1.938-3.312q1.277-1.466 3.187-2.329c1.27-.57 2.727-.859 4.375-.859q1.97 0 3.75.703a9.5 9.5 0 0 1 3.141 1.985 9.6 9.6 0 0 1 2.172 3.093q.81 1.798.812 4c0 1.336-.218 2.625-.656 3.875a10 10 0 0 1-1.937 3.328Q17.499-1.31 15.594-.437c-1.274.57-2.73.859-4.375.859m.437-1.203q2.296 0 3.813-.953 1.514-.968 2.265-2.703.764-1.747.766-4.079a15 15 0 0 0-.484-3.859q-.47-1.811-1.407-3.187a6.64 6.64 0 0 0-2.343-2.157q-1.393-.78-3.266-.781-2.22.002-3.75.953-1.517.955-2.297 2.672-.767 1.707-.766 4.016-.002 2.078.454 3.906.468 1.814 1.406 3.219c.625.93 1.398 1.652 2.328 2.172.938.523 2.031.78 3.281.78m0 0" style="stroke:none"/></symbol><symbol id="J" overflow="visible"><path d="M1.188 8.484c-.094 0-.227-.015-.391-.046q-.235-.049-.235-.22c0-.167.07-.288.22-.359l.468-.187q.45-.143.86-.344.42-.189.421-.781V-8.531q0-.248-.14-.719a3.1 3.1 0 0 0-.422-.922q-.298-.45-.813-.531a.26.26 0 0 1-.172-.156.5.5 0 0 1-.062-.235q0-.152.062-.234a.3.3 0 0 1 .141-.125 14 14 0 0 0 1.938-.578 47 47 0 0 0 1.515-.61q.03 0 .031-.015c0-.008.008-.016.032-.016.039 0 .078.031.109.094a.3.3 0 0 1 .063.172q-.001.269-.079.844-.063.58-.062.937-.002.253.031.266.293-.294 1.078-.75a11 11 0 0 1 1.797-.828q1.012-.376 1.938-.376c1.03 0 1.906.274 2.625.813a5.3 5.3 0 0 1 1.672 2.11c.394.867.593 1.765.593 2.703q0 1.329-.515 2.593a7.5 7.5 0 0 1-1.422 2.282 7.2 7.2 0 0 1-2.14 1.625 5.8 5.8 0 0 1-2.626.609q-.423 0-1-.14a9 9 0 0 1-1.125-.329q-.55-.216-.844-.484-.034.002-.062.344-.036.339-.047.703-.017.375-.016.468v5.563q-.002.386.313.61.31.216.719.327.405.105.703.188c.156.062.304.125.453.187q.218.107.219.36 0 .17-.235.219a2 2 0 0 1-.422.046 11 11 0 0 1-1.437-.078 10 10 0 0 0-1.36-.078q-.502-.002-.812.031-.314.03-.64.079a7 7 0 0 1-.922.046M8.156-.5c.29 0 .649-.086 1.078-.266.426-.187.852-.476 1.282-.875q.638-.591 1.062-1.593.436-1.013.438-2.5-.002-1.735-.453-2.766-.439-1.044-1.094-1.578-.658-.544-1.344-.719-.675-.187-1.156-.187-.705 0-1.469.312-.767.299-1.281.672-.516.363-.516.563c0 .437-.008.882-.016 1.328q-.018.674-.03 1.297-.019.625-.032 1.125a21 21 0 0 0-.016.75q-.002 1.189.547 2.203c.375.68.832 1.218 1.375 1.625q.81.609 1.625.609m0 0" style="stroke:none"/></symbol><symbol id="K" overflow="visible"><path d="M1.047-5.062q-.188.002-.188-.172-.001-.498.125-1.032c.094-.363.211-.554.36-.578q1.418-.201 2.843-.39 1.436-.2 2.86-.36.092 0 .156.047.077.047.078.14a4 4 0 0 1-.14 1.063q-.128.487-.485.547-1.33.207-2.718.406-1.378.188-2.891.329m0 0" style="stroke:none"/></symbol><symbol id="O" overflow="visible"><path d="M1.64.156q-.39-.002-.624-.11-.222-.106-.22-.25 0-.263.282-.374.293-.105.375-.14 1.17-.234 1.797-.688.623-.47.625-1.453v-13.797c0-.477-.055-.832-.156-1.063a1 1 0 0 0-.547-.5q-.375-.17-1.125-.281c-.649-.125-.969-.32-.969-.594q0-.187.234-.25.234-.076.626-.078.795.001 1.28.031.499.019.938.032.452.016 1.11.015.749 0 1.28-.015c.352-.008.72-.02 1.095-.032q.575-.03 1.375-.03.387 0 .625.077.234.063.234.25 0 .206-.234.36-.236.14-.75.234-1.096.205-1.875.484-.767.283-.766 1.141v14.016q-.002.925.406 1.375.423.438 1.875.437h3.703q.797.001 1.407-.25.608-.246.906-.516.592-.514.875-.906.28-.406.672-1.203.06-.186.25-.531.2-.359.406-.36.17.002.266.172a.75.75 0 0 1 .093.36q-.002.033-.015.078a.13.13 0 0 0-.016.062q-.206.786-.375 1.407-.159.626-.265 1.187c-.075.375-.133.774-.172 1.188a1 1 0 0 1-.094.359c-.055.102-.156.156-.313.156Q14.371.156 13 .125 11.624.09 10.36.078C9.522.066 8.718.051 7.937.031A75 75 0 0 0 5.656 0q-.75-.002-1.687.031-.938.03-1.64.078zm0 0" style="stroke:none"/></symbol><symbol id="S" overflow="visible"><path d="M1.422.156C1.172.156.96.13.797.078.64.023.562-.055.562-.172q0-.217.235-.328.246-.124.75-.219a2.02 2.02 0 0 0 1.219-.703q.481-.576.625-1.61.356-2.682.625-5.109a163 163 0 0 0 .422-4.359q.17-1.95.171-3.203v-.516q0-.264-.03-.468a6 6 0 0 0-.095-.485c-.03-.176-.148-.344-.343-.5q-.55-.45-1.047-.61-.502-.151-1.188-.28-.298-.06-.484-.22a.5.5 0 0 1-.172-.374q0-.235.281-.282c.188-.03.43-.046.735-.046.195 0 .5.011.906.03q.61.036 1.312.095.717.047 1.329.078.608.033.906.031a.53.53 0 0 1 .36.125.56.56 0 0 1 .202.36q.155.533.297 1.124.154.597.36 1.157L12.64-4.547a.43.43 0 0 0 .328.25c.156.031.273-.023.36-.172l5.858-12.187c.102-.344.204-.723.297-1.14a17 17 0 0 0 .235-1.095c.062-.257.16-.39.297-.39h1.078q.889.001 1.89-.11.996-.124 1.5-.125c.102 0 .235.016.391.047q.234.05.234.25a.39.39 0 0 1-.172.328q-.157.128-.609.297-.377.159-.86.328c-.312.118-.609.235-.89.36q-.3.112-.515.406-.205.281-.204.61-.002 2.078.078 3.906.075 1.827.157 3.515.092 1.674.218 3.313.123 1.64.204 3.328.06.925.593 1.422.545.487 1.641.687.516.095.75.219.234.111.234.328c0 .117-.078.195-.234.25-.156.05-.367.078-.625.078q-.813 0-1.328-.047-.518-.046-1-.078-.47-.033-1.156-.031-.597-.002-1 .031c-.274.02-.563.047-.875.078a13 13 0 0 1-1.25.047q-.393 0-.625-.078c-.157-.055-.235-.133-.235-.25q0-.216.235-.344.234-.139.75-.203.857-.107 1.187-.593.328-.499.328-1.547 0-2.138-.047-3.86-.046-1.732-.14-3.406-.08-1.687-.172-3.672c-.024-.219-.086-.32-.188-.312-.093.011-.195.117-.297.312L12.235.156q-.064.14-.28.157-.207.011-.267-.188c-.773-2.32-1.601-4.61-2.484-6.86a241 241 0 0 0-2.984-7.28.225.225 0 0 0-.219-.141q-.141 0-.172.14-.268 2.081-.5 3.829a62 62 0 0 0-.344 3.437 57 57 0 0 0-.109 3.719c0 .531.164 1.023.5 1.469.344.449.82.73 1.438.843q.499.095.734.219c.164.074.25.184.25.328 0 .117-.086.195-.25.25a2 2 0 0 1-.61.078Q6.124.156 5.72.11a30 30 0 0 0-.703-.078C4.805.008 4.516 0 4.14 0a8 8 0 0 0-.844.031q-.3.03-.688.078-.377.047-1.187.047m0 0" style="stroke:none"/></symbol><symbol id="T" overflow="visible"><path d="M.031 8.531c-.101 0-.234-.027-.39-.078q-.235-.065-.235-.219c0-.117.055-.226.156-.328l.172-.172q.528-.14 1.032-.562.515-.422.937-1.313.312-.688.5-1.718c.133-.68.235-1.399.297-2.157q.093-1.126.11-2.187.03-1.077.03-1.844v-6.25q-.001-.81-.296-1.422-.3-.609-1.063-.75a.27.27 0 0 1-.187-.14.7.7 0 0 1-.047-.25q-.001-.295.203-.36 1.124-.265 1.89-.734.78-.48 1.204-.75.154-.095.25-.14a.4.4 0 0 1 .14-.063c.133 0 .204.047.204.14a40 40 0 0 0-.157 2.25 67 67 0 0 0-.047 2.329v5.484q0 .926-.046 2.156A25 25 0 0 1 4.453 2a12 12 0 0 1-.61 2.516 7.5 7.5 0 0 1-1.046 1.937q-.69.92-1.438 1.5-.737.576-1.328.578m3.407-23.875q-.628.001-1.063-.437a1.47 1.47 0 0 1-.422-1.063q0-.656.422-1.078a1.45 1.45 0 0 1 1.063-.437q.654.002 1.093.437.437.421.438 1.078c0 .418-.149.774-.438 1.063q-.439.438-1.093.437m0 0" style="stroke:none"/></symbol><symbol id="U" overflow="visible"><path d="M1.313.094Q1.013.092.859.016.72-.06.72-.234q0-.235.187-.328.186-.093.485-.157.686-.14.984-.422c.195-.187.297-.476.297-.875v-8.39q-.3.001-.688-.016c-.25-.008-.539-.023-.859-.047q-.082-.029-.25-.203Q.718-10.859.719-11c0-.04.023-.078.078-.11a.5.5 0 0 0 .125-.078q.528-.263.922-.468.388-.217.828-.422c0-1.727.21-3.164.64-4.313q.638-1.733 1.657-2.734 1.014-1.015 2.14-1.437 1.126-.436 2.11-.438 1.67 0 2.469.516.81.503.812 1.265c0 .399-.102.696-.297.89q-.298.299-.719.298a.74.74 0 0 1-.5-.203q-.222-.201-.515-.485a5.7 5.7 0 0 0-.953-.718q-.563-.342-1.547-.344-1.395 0-2.297 1.218-.908 1.22-.906 3.75v2.61q0 .189.093.25a.6.6 0 0 0 .235.047h3.718q.14 0 .25.094.125.093.126.234 0 .22-.047.453a1.4 1.4 0 0 1-.125.422q-.096.234-.266.234H5.328c-.242 0-.398.04-.469.11q-.093.094-.093.28v8.063c0 .399.125.688.375.875q.387.282 1.578.422.686.096.687.485-.002.175-.156.25-.143.077-.437.078A14 14 0 0 1 5.234.016q-.69-.077-1.453-.078-.516 0-.844.03-.314.034-.671.079a8 8 0 0 1-.953.047m0 0" style="stroke:none"/></symbol><symbol id="V" overflow="visible"><path d="M1.125 4.375q-.532 0-.531-.328 0-.129.094-.234a.6.6 0 0 1 .328-.126 4.7 4.7 0 0 0 1.297-.5 3.24 3.24 0 0 0 1.109-1.03q.451-.673.453-1.704c0-.242-.11-.508-.328-.812-.219-.313-.5-.477-.844-.5q-.656-.06-1.031-.422a1.13 1.13 0 0 1-.36-.828q-.001-.592.485-.985a1.8 1.8 0 0 1 1.14-.39q1.08 0 1.782.828.703.814.703 2.062 0 1.124-.453 2.031A5.7 5.7 0 0 1 3.829 3c-.45.438-.919.773-1.407 1.016q-.721.358-1.297.359m0 0" style="stroke:none"/></symbol><symbol id="W" overflow="visible"><path d="M10.89.563q-.203 0-.203-.235c0-.2.02-.488.063-.875q.076-.575.078-.969v-.187Q9.668-.56 8.484-.063a6.7 6.7 0 0 1-2.562.485A3.7 3.7 0 0 1 4.188.016a3 3 0 0 1-1.22-1.188q-.437-.795-.437-1.953v-6.031q-.002-.655-.297-1.047-.298-.387-.984-.656A1.4 1.4 0 0 1 .969-11q-.11-.094-.11-.328c0-.188.04-.305.125-.36a.9.9 0 0 1 .329-.124q1.012-.061 1.562-.157.543-.107 1.375-.312a.6.6 0 0 1 .14-.031h.11q.31 0 .297.406-.095.689-.14 1.156-.048.457-.048 1.14v5.797q-.002.72.36 1.329c.238.406.55.742.937 1a2.1 2.1 0 0 0 1.203.39q.78 0 1.36-.093.576-.095 1.14-.516c.22-.156.493-.41.829-.766q.515-.527.515-1.453v-5.453q0-.621-.375-.937a2.06 2.06 0 0 0-.86-.422 3.2 3.2 0 0 0-.765-.125 1 1 0 0 1-.453-.094q-.174-.106-.172-.406 0-.265.188-.36.2-.093.437-.094a35 35 0 0 0 1.531-.078q.61-.046 1.094-.14c.332-.07.676-.156 1.031-.25a.6.6 0 0 1 .157-.047c.062-.008.109-.016.14-.016q.389 0 .39.328-.002.035-.015.11l-.047.156c-.023.063-.046.234-.078.516q-.033.409-.078.859a7 7 0 0 0-.047.672v6.875q0 .816.156 1.156.17.328.376.328c.156 0 .382-.008.687-.031q.468-.047.688-.047c.093 0 .187.024.28.063.102.03.157.136.157.312q-.001.252-.125.328a.9.9 0 0 1-.281.094q-1.173.159-2 .453a31 31 0 0 0-1.485.563q-.094.03-.28.093a.8.8 0 0 1-.313.079m0 0" style="stroke:none"/></symbol><symbol id="X" overflow="visible"><path d="M6.969.422c-1.117 0-2.121-.258-3.016-.766a5.9 5.9 0 0 1-2.125-2.14c-.523-.907-.781-1.93-.781-3.078Q1.046-6.812 1.53-8c.32-.79.782-1.516 1.375-2.172A7 7 0 0 1 5-11.734a5.8 5.8 0 0 1 2.563-.578q1.716 0 3.093.828a6.3 6.3 0 0 1 2.203 2.187q.828 1.359.829 2.953c0 1.157-.258 2.25-.766 3.282a6.14 6.14 0 0 1-2.25 2.515Q9.183.421 6.969.422m.625-.89q.997 0 1.797-.391.808-.388 1.265-1.25.34-.687.469-1.672.124-.983.125-1.844c0-.945-.18-1.863-.531-2.75-.344-.883-.828-1.61-1.453-2.172a3.2 3.2 0 0 0-2.22-.844c-.53 0-1.01.086-1.437.25q-.645.252-1.171.938-.596.75-.782 1.828-.174 1.065-.172 2.125-.001 1.455.532 2.781.527 1.33 1.453 2.172c.613.555 1.32.828 2.125.828m-.75-13.126q-.251.002-.25-.265c0-.063.008-.133.031-.22q.029-.14.094-.327.199-.56.656-1.438c.313-.582.617-1.148.922-1.703q.467-.844.719-1.219c.093-.164.21-.297.359-.39.156-.102.3-.157.438-.157q.56.002 1 .157.451.14.453.468-.001.189-.079.313-.065.112-.218.313c-.23.343-.555.773-.969 1.28-.406.5-.82.993-1.234 1.47-.418.468-.75.835-1 1.093q-.628.626-.922.625m0 0" style="stroke:none"/></symbol><symbol id="Y" overflow="visible"><path d="M7.703.422A7 7 0 0 1 6.391.297 33 33 0 0 1 5.14.03Q4.497-.156 4-.297c-.324-.101-.54-.156-.64-.156a.6.6 0 0 0-.344.125c-.106.086-.211.172-.313.266-.094.101-.183.156-.265.156a.5.5 0 0 1-.266-.11q-.157-.107-.156-.25-.001-.264.109-.921c.07-.438.11-.844.11-1.22v-14.437c0-.508-.133-.953-.391-1.328a2.37 2.37 0 0 0-.985-.844 1.1 1.1 0 0 1-.25-.156.33.33 0 0 1-.14-.281c0-.102.039-.172.125-.203q.123-.059.234-.094a12 12 0 0 0 1.063-.328q.668-.234 1.265-.469.592-.248.797-.344a.9.9 0 0 1 .266-.078c.039 0 .082.024.125.063q.06.047.062.14 0 .128-.047 1a41 41 0 0 0-.046 2.125v6.094c0 .375.019.633.062.766q.062.188.203.219a8 8 0 0 1 2.14-1.25q1.22-.5 2.204-.5 1.512 0 2.719.78a5.43 5.43 0 0 1 1.922 2.095q.716 1.312.718 2.984 0 2.018-.844 3.578-.832 1.564-2.296 2.438c-.98.57-2.125.859-3.438.859M8.391-.5q1.124 0 1.937-.703.826-.702 1.266-1.906.451-1.2.453-2.688c0-.781-.149-1.578-.438-2.39a4.9 4.9 0 0 0-1.328-2.047q-.907-.827-2.344-.828-1.187.002-2.078.39-.89.376-1.546.969v5.781q-.002 1.033.578 1.813c.382.511.89.906 1.515 1.187A4.8 4.8 0 0 0 8.391-.5m0 0" style="stroke:none"/></symbol><symbol id="Z" overflow="visible"><path d="M6.344.453q-1.64 0-2.86-.797-1.22-.809-1.906-2.281Q.89-4.107.891-6.047c0-1.144.257-2.187.78-3.125a6.5 6.5 0 0 1 2.11-2.281 5.14 5.14 0 0 1 2.86-.86c.789 0 1.492.165 2.109.485q.92.469 1.438 1.312.515.845.515 1.954c0 .617-.297.921-.89.921H3.547q-.422.001-.594.22-.157.22-.156.874c0 .961.207 1.828.625 2.61a5.14 5.14 0 0 0 1.656 1.874q1.043.69 2.297.688c.594 0 1.133-.11 1.625-.328a3.8 3.8 0 0 0 1.297-1 .6.6 0 0 1 .172-.188.25.25 0 0 1 .156-.046q.234.002.234.296c0 .375-.18.793-.53 1.25a5 5 0 0 1-1.079.985 5.2 5.2 0 0 1-1.375.625q-.736.234-1.531.234m-2.75-9.015h2.719c.468 0 .867-.008 1.203-.032a7.5 7.5 0 0 0 1-.125q.14-.03.187-.187.047-.17.047-.469-.002-.857-.766-1.469-.752-.61-1.796-.61-.69.002-1.375.407-.675.392-1.125 1-.439.597-.438 1.188-.001.298.344.297m2.297-5.032q-.251.002-.25-.265c0-.063.007-.133.03-.22q.03-.14.095-.327.198-.56.656-1.438.466-.872.922-1.703.467-.844.718-1.219c.094-.164.211-.297.36-.39.156-.102.3-.157.437-.157q.562.002 1 .157.453.14.454.468-.001.189-.079.313-.066.112-.218.313c-.23.343-.555.773-.97 1.28-.405.5-.82.993-1.233 1.47-.418.468-.75.835-1 1.093q-.628.626-.922.625m0 0" style="stroke:none"/></symbol><symbol id="p" overflow="visible"><path d="M2.078-14.312c-.203-.094-.594-.11-.594.265 0 .266.157 1.172.72 1.438l10.405 5.172c.094.03.125.125.032.156L2.438-2.11c-.594.297-.922 1.156-.922 1.515 0 .172.093.297.265.297a.5.5 0 0 0 .235-.094l12-5.89c.593-.297.984-1.094.984-1.36 0-.187-.719-.578-1.219-.812Zm0 0" style="stroke:none"/></symbol><symbol id="q" overflow="visible"><path d="M4.313 1.125c4.046 0 8.265-2.703 8.265-7.172 0-2.516-1.984-4.656-4.515-4.656-.157 0-.157-.125-.032-.188 2.328-1.343 3.125-3.03 3.125-4.453 0-2.031-1.906-3.406-3.875-3.406-4.031 0-5.734 2.828-5.734 3.875 0 .297.328.563.469.563.453 0 .922-2.641 4-2.641 1.593 0 2.797 1.453 2.797 3.094 0 2.109-3.079 3.656-3.75 3.984-.391.172-.75.5-.891 1.016-.063.203.297.375.5.265.687-.39 1.484-.453 1.937-.453 2.282 0 3.454 2.406 3.454 4.703C10.063-1.875 7.89 0 5.719 0c-1.11 0-1.735-.469-2.235-.922-.39-.297-.718-.594-1.156-.594-.453 0-1.312.954-1.312 1.36 0 .484 1.906 1.281 3.297 1.281m0 0" style="stroke:none"/></symbol><symbol id="r" overflow="visible"><path d="M7.313.469c2.89 0 6.109-2.406 6.109-6.125 0-2.14-1.844-3.657-3.906-3.657-1.094 0-2.47.657-2.907.985-.328.234-.515.39-.812.719-.203.234-.14.5.219.328.672-.36 1.328-.453 2.375-.453 1.578 0 2.703 1.687 2.703 3.515 0 2.469-1.453 3.594-3.063 3.563-1.969-.031-4.187-1.844-4.25-5.14 0-3.095 1.75-6.345 2.735-7.766 1.515-2.172 3.328-3.547 6.015-4.704.203-.093.594-.234.766-.593.062-.125-.172-.297-.531-.203-3.657.968-6.453 3.359-7.953 4.875-1.125 1.124-3.594 4.015-3.594 8.453C1.219-1.578 4.25.469 7.313.469m0 0" style="stroke:none"/></symbol><symbol id="s" overflow="visible"><path d="M7.14.422c4.407 0 6.25-5.36 6.25-9.828 0-4.313-1.906-9.344-5.953-9.344-4.406 0-6.25 5.25-6.25 9.766 0 4.406 1.907 9.406 5.954 9.406m.5-.781c-2.671 0-3.984-4.703-3.984-9.157 0-4.468.844-8.39 3.219-8.39 2.672 0 4.078 4.578 4.078 9.047 0 4.453-.922 8.5-3.312 8.5m0 0" style="stroke:none"/></symbol><symbol id="B" overflow="visible"><path d="M3.125.094c1.61 0 2.86-.156 4.469-.156 1.562 0 2.672.156 4.36.156.25 0 .421-.156.421-.328 0-.188-.266-.328-.5-.391-2.437-.594-3.156-.75-3.156-2.266v-13.687c0-.828.031-1.516.11-2.11.03-.14-.173-.265-.345-.265-.062 0-.125 0-.156.031-1.344 1.344-2.672 1.578-4.453 1.844-.422.062-.75.265-.75.531 0 .328.39.485.766.516 1.28.078 2.5.297 2.5 1.422V-3.25c0 1.766-1 2.031-3.266 2.594-.234.062-.453.234-.453.39 0 .172.156.36.453.36m0 0" style="stroke:none"/></symbol><symbol id="C" overflow="visible"><path d="M6.984.422c2.922 0 5.875-2.203 5.875-5.297 0-2.297-1.609-3.61-3.843-5.156-.328-.203-.36-.266.14-.625.688-.5 1.016-.766 1.578-1.25.688-.594 1.579-1.422 1.579-2.844 0-2.422-2.344-4-4.72-4-2.655 0-5.421 1.875-5.421 4.203 0 2.531 1.672 3.656 3.453 5.172.234.219.36.234.094.39-1.532.829-4 2.172-4 4.797 0 2.735 2.531 4.61 5.265 4.61M8.36-10.656c-.125.094-.296 0-.421-.078-2.079-1.703-3.47-2.125-3.47-4.407 0-1.609 1.595-2.89 2.97-2.89 1.718 0 2.593 1.406 2.593 3.062 0 1.813-.297 3.188-1.672 4.313M7.406-.453c-2.078 0-3.297-2.14-3.297-4.219 0-1.906.625-2.734 1.907-3.781.14-.11.265-.172.343-.172.188 0 .36.11.61.297 1.718 1.187 3.5 2.797 3.5 4.64 0 1.75-1.313 3.235-3.063 3.235m0 0" style="stroke:none"/></symbol><symbol id="L" overflow="visible"><path d="M1.906-6.61h13.532c.53 0 .921-.765.921-1.421 0-.188-.203-.36-.39-.36H2.203c-.625 0-.719 1.157-.719 1.422 0 .188.22.36.422.36m0 0" style="stroke:none"/></symbol><symbol id="M" overflow="visible"><path d="M12.016.094c.218 0 .53-.094.656-.719.297-1.484.89-2.703.89-3 0-.156-.03-.36-.203-.36-.328 0-.593.438-.75.688-.734 1.188-1.125 1.297-2.828 1.39-1.062.063-2.25.095-3.39.095-1.094 0-1.953-.032-2.61-.094-.234-.032-.422-.063-.422-.203 0-.157 4.907-4.907 6.25-6.516 1.25-1.516 2.172-3.61 2.172-5.203 0-2.89-1.781-4.922-4.765-4.922-3.36 0-5.797 2.922-5.797 3.844 0 .531.297.89.453.89.172 0 .375-.171.5-.406.828-1.437 2.297-2.422 3.922-2.422 1.703 0 3.187 1.282 3.187 3.39 0 2.626-1.453 5.298-3.453 7.36L.75-.828C.563-.656.5-.625.5-.453c0 .187.453.516.594.516.61 0 5.422-.157 6.906-.157s3.422.188 4.016.188m0 0" style="stroke:none"/></symbol><symbol id="N" overflow="visible"><path d="M3.188 1.125c2.109 0 4.046-.531 5.624-1.422C11-1.578 12.439-3.562 12.439-5.734c0-2.422-1.11-3.875-3.297-5.032-1.375-.718-3.188-1.343-5.422-2-.36-.093-.422-.296-.39-.562.03-.469.89-2.297 1.312-2.344.89-.156 3.578-.36 5.125-.547.5-.047.828-.36 1.093-.953l.5-.969c.157-.28-.03-.547-.328-.515-2.312.218-4.344.562-6.156 1.047-.625.14-1 .468-1.219 1.062-.406 1.313-1.422 3.672-1.422 4.735 0 .53.172.921.704 1.374 5.28 1.36 7.14 2.829 7.14 5.11 0 2.562-2.219 5.531-6.922 5.531-.36 0-1.078.266-1.078.578 0 .266.656.344 1.11.344m0 0" style="stroke:none"/></symbol><symbol id="P" overflow="visible"><path d="M5.984.094c1.61 0 1.907-.156 3.422-.156 1.39 0 1.656.156 3.36.156.234 0 .437-.156.437-.328 0-.188-.297-.36-.531-.422-1.61-.422-1.985-.688-1.985-1.844v-2.797c0-.031.235-.14.376-.172.25-.031.562-.062.921-.062.485 0 1.016.031 1.47.031.108 0 .624-.656.624-1.14 0-.11-.156-.235-.328-.235-.656.031-1.203.063-1.766.063-.359 0-.734 0-1.187-.032-.094 0-.14-.093-.14-.172v-3.843c0-1.25 0-1.907-.454-1.907-.265 0-1.062.063-1.672.391-.234.125-.265.234-.265.656v4.61c0 .125-.203.234-.36.234h-5.14c-.125 0-.063-.172 0-.266l8.03-11.546s.235-.407.063-.407h-.625c-.296 0-.656.469-.89.828L1.484-6.984c-.39.53-.406.468-1.156 1.39-.031.032-.031.063-.031.094 0 .11.156.297.297.297 3.125-.031 4.797-.219 7.234-.219.031 0 .438.094.438.281v2.766c0 .953-.438 1.484-2.282 1.719-.25.031-.546.156-.546.36 0 .265.328.39.546.39m0 0" style="stroke:none"/></symbol><symbol id="Q" overflow="visible"><path d="M3.422.422c.89 0 1.64-.75 1.64-1.64 0-.891-.75-1.641-1.64-1.641s-1.64.75-1.64 1.64.75 1.64 1.64 1.64m0 0" style="stroke:none"/></symbol><symbol id="R" overflow="visible"><path d="M8.36-12.797c-.266 0-.626.156-.797.328-1.704 1.766-3.391 3.453-5.688 4.64-.39.188-.39.22-.39.391s.093.235.359.391C4.14-5.859 5.828-4.172 7.53-2.407c.172.173.532.329.797.329.235 0 .36-.156.125-.688-.562-1.375-1.547-2.765-2.5-3.75-.125-.14-.094-.234.11-.234h21.28c.5 0 .923-.484.923-.953 0-.156-.063-.422-.391-.422H6.063c-.204 0-.235-.062-.11-.203.953-1.047 1.984-2.406 2.672-4.14.031-.063.031-.079.031-.11 0-.156-.125-.219-.297-.219m0 0" style="stroke:none"/></symbol><symbol id="H" overflow="visible"><path d="M8.734.063Q8.593.062 8.281.03A27 27 0 0 0 7.562 0q-.393-.013-.828-.031c-.28-.02-.554-.031-.812-.031q-.393 0-1.125.03Q4.06-.012 3.266 0q-.797-.001-1.407.016c-.406.02-.664.03-.765.03q-.096 0-.266-.14Q.671-.232.672-.312.67-.418.703-.453q.047-.045.14-.125l3.563-3.688a10.5 10.5 0 0 0 1.719-2.437q.687-1.341.688-2.719c0-.726-.227-1.3-.672-1.719a2.15 2.15 0 0 0-1.547-.64A2.9 2.9 0 0 0 3-11.312q-.721.469-1.156 1.203a.8.8 0 0 1-.157.218.3.3 0 0 1-.203.079q-.08.002-.203-.172a.87.87 0 0 1-.11-.453q0-.248.298-.688.31-.434.843-.89.547-.453 1.297-.782a4 4 0 0 1 1.625-.328q1.045.002 1.797.438.75.439 1.14 1.218.39.768.392 1.781-.002.563-.204 1.22-.19.643-.53 1.265-.347.628-.782 1.156-.27.345-.797.89-.534.552-1.156 1.173-.61.626-1.172 1.187-.55.549-.906.922-.344.362-.344.39 0 .111.297.157.34.018.797.047.45.016 1.03.015.609 0 1.204-.015a70 70 0 0 1 1.172-.047q.61-.046.937-.11c.22-.039.407-.125.563-.25.156-.132.316-.343.484-.624q.075-.123.203-.297.14-.188.313-.188.106 0 .125.094.014.081.015.156-.002.111-.109.422-.112.3-.265.734a9 9 0 0 0-.25.954q-.064.328-.204.421a.55.55 0 0 1-.25.079m0 0" style="stroke:none"/></symbol></defs><use xlink:href="#a" width="100%" height="100%" x="24.486" y="25.451" style="fill:#000;fill-opacity:1"/><g style="fill:#000;fill-opacity:1"><use xlink:href="#b" width="100%" height="100%" x="36.147" y="25.451"/><use xlink:href="#c" width="100%" height="100%" x="46.083" y="25.451"/><use xlink:href="#d" width="100%" height="100%" x="53.372" y="25.451"/><use xlink:href="#e" width="100%" height="100%" x="62.98" y="25.451"/><use xlink:href="#f" width="100%" height="100%" x="72.321" y="25.451"/><use xlink:href="#g" width="100%" height="100%" x="84.191" y="25.451"/><use xlink:href="#g" width="100%" height="100%" x="91.331" y="25.451"/></g><use xlink:href="#a" width="100%" height="100%" x="14.46" y="61.317" style="fill:#000;fill-opacity:1"/><use xlink:href="#h" width="100%" height="100%" x="26.002" y="61.317" style="fill:#000;fill-opacity:1"/><use xlink:href="#i" width="100%" height="100%" x="40.282" y="61.317" style="fill:#000;fill-opacity:1"/><g style="fill:#000;fill-opacity:1"><use xlink:href="#f" width="100%" height="100%" x="52.865" y="61.317"/><use xlink:href="#g" width="100%" height="100%" x="64.735" y="61.317"/><use xlink:href="#j" width="100%" height="100%" x="71.874" y="61.317"/><use xlink:href="#k" width="100%" height="100%" x="83.476" y="61.317"/><use xlink:href="#e" width="100%" height="100%" x="99.183" y="61.317"/></g><g style="fill:#000;fill-opacity:1"><use xlink:href="#l" width="100%" height="100%" x="22.359" y="97.182"/><use xlink:href="#m" width="100%" height="100%" x="31.73" y="97.182"/><use xlink:href="#b" width="100%" height="100%" x="44.67" y="97.182"/><use xlink:href="#f" width="100%" height="100%" x="54.606" y="97.182"/><use xlink:href="#n" width="100%" height="100%" x="66.476" y="97.182"/><use xlink:href="#e" width="100%" height="100%" x="81.886" y="97.182"/><use xlink:href="#o" width="100%" height="100%" x="91.227" y="97.182"/></g><use xlink:href="#p" width="100%" height="100%" x="2.658" y="133.048" style="fill:#000;fill-opacity:1"/><g style="fill:#000;fill-opacity:1"><use xlink:href="#q" width="100%" height="100%" x="27.379" y="133.048"/><use xlink:href="#r" width="100%" height="100%" x="41.926" y="133.048"/><use xlink:href="#s" width="100%" height="100%" x="56.473" y="133.048"/><use xlink:href="#s" width="100%" height="100%" x="71.02" y="133.048"/></g><g style="fill:#000;fill-opacity:1"><use xlink:href="#t" width="100%" height="100%" x="90.549" y="133.048"/><use xlink:href="#u" width="100%" height="100%" x="99.176" y="133.048"/></g><use xlink:href="#p" width="100%" height="100%" x="129.239" y="76.766" style="fill:#000;fill-opacity:1"/><g style="fill:#000;fill-opacity:1"><use xlink:href="#d" width="100%" height="100%" x="186.796" y="25.778"/><use xlink:href="#v" width="100%" height="100%" x="196.405" y="25.778"/></g><g style="fill:#000;fill-opacity:1"><use xlink:href="#g" width="100%" height="100%" x="210.714" y="25.778"/><use xlink:href="#c" width="100%" height="100%" x="217.853" y="25.778"/><use xlink:href="#w" width="100%" height="100%" x="225.142" y="25.778"/></g><g style="fill:#000;fill-opacity:1"><use xlink:href="#x" width="100%" height="100%" x="165.69" y="61.644"/><use xlink:href="#j" width="100%" height="100%" x="188.834" y="61.644"/><use xlink:href="#e" width="100%" height="100%" x="200.436" y="61.644"/><use xlink:href="#y" width="100%" height="100%" x="209.777" y="61.644"/><use xlink:href="#g" width="100%" height="100%" x="221.647" y="61.644"/><use xlink:href="#z" width="100%" height="100%" x="228.786" y="61.644"/><use xlink:href="#g" width="100%" height="100%" x="234.736" y="61.644"/><use xlink:href="#c" width="100%" height="100%" x="241.876" y="61.644"/><use xlink:href="#a" width="100%" height="100%" x="249.164" y="61.644"/></g><g style="fill:#000;fill-opacity:1"><use xlink:href="#l" width="100%" height="100%" x="190.5" y="97.509"/><use xlink:href="#A" width="100%" height="100%" x="199.871" y="97.509"/><use xlink:href="#c" width="100%" height="100%" x="219.802" y="97.509"/><use xlink:href="#o" width="100%" height="100%" x="227.091" y="97.509"/></g><g style="fill:#000;fill-opacity:1"><use xlink:href="#B" width="100%" height="100%" x="167.033" y="133.375"/><use xlink:href="#r" width="100%" height="100%" x="181.58" y="133.375"/><use xlink:href="#r" width="100%" height="100%" x="196.127" y="133.375"/><use xlink:href="#C" width="100%" height="100%" x="210.674" y="133.375"/></g><g style="fill:#000;fill-opacity:1"><use xlink:href="#t" width="100%" height="100%" x="230.18" y="133.375"/><use xlink:href="#u" width="100%" height="100%" x="238.807" y="133.375"/></g><use xlink:href="#p" width="100%" height="100%" x="281.242" y="76.766" style="fill:#000;fill-opacity:1"/><use xlink:href="#a" width="100%" height="100%" x="328.492" y="25.793" style="fill:#000;fill-opacity:1"/><g style="fill:#000;fill-opacity:1"><use xlink:href="#b" width="100%" height="100%" x="340.153" y="25.793"/><use xlink:href="#c" width="100%" height="100%" x="350.089" y="25.793"/><use xlink:href="#d" width="100%" height="100%" x="357.378" y="25.793"/><use xlink:href="#e" width="100%" height="100%" x="366.986" y="25.793"/><use xlink:href="#f" width="100%" height="100%" x="376.327" y="25.793"/><use xlink:href="#g" width="100%" height="100%" x="388.197" y="25.793"/><use xlink:href="#g" width="100%" height="100%" x="395.337" y="25.793"/></g><g style="fill:#000;fill-opacity:1"><use xlink:href="#c" width="100%" height="100%" x="336.925" y="61.659"/><use xlink:href="#v" width="100%" height="100%" x="344.213" y="61.659"/><use xlink:href="#k" width="100%" height="100%" x="358.939" y="61.659"/><use xlink:href="#c" width="100%" height="100%" x="374.646" y="61.659"/><use xlink:href="#a" width="100%" height="100%" x="381.934" y="61.659"/></g><g style="fill:#000;fill-opacity:1"><use xlink:href="#l" width="100%" height="100%" x="324.267" y="97.524"/><use xlink:href="#D" width="100%" height="100%" x="333.638" y="97.524"/><use xlink:href="#f" width="100%" height="100%" x="357.198" y="97.524"/><use xlink:href="#u" width="100%" height="100%" x="369.068" y="97.524"/><use xlink:href="#g" width="100%" height="100%" x="390.189" y="97.524"/><use xlink:href="#o" width="100%" height="100%" x="397.329" y="97.524"/></g><g style="fill:#000;fill-opacity:1"><use xlink:href="#C" width="100%" height="100%" x="326.309" y="133.39"/><use xlink:href="#s" width="100%" height="100%" x="340.856" y="133.39"/><use xlink:href="#B" width="100%" height="100%" x="355.403" y="133.39"/></g><g style="fill:#000;fill-opacity:1"><use xlink:href="#t" width="100%" height="100%" x="374.91" y="133.39"/><use xlink:href="#u" width="100%" height="100%" x="383.537" y="133.39"/></g><use xlink:href="#p" width="100%" height="100%" x="433.245" y="76.766" style="fill:#000;fill-opacity:1"/><g style="fill:#000;fill-opacity:1"><use xlink:href="#j" width="100%" height="100%" x="472.834" y="25.793"/><use xlink:href="#k" width="100%" height="100%" x="484.436" y="25.793"/><use xlink:href="#g" width="100%" height="100%" x="500.143" y="25.793"/><use xlink:href="#g" width="100%" height="100%" x="507.283" y="25.793"/><use xlink:href="#f" width="100%" height="100%" x="514.422" y="25.793"/><use xlink:href="#E" width="100%" height="100%" x="526.292" y="25.793"/></g><g style="fill:#000;fill-opacity:1"><use xlink:href="#h" width="100%" height="100%" x="537.834" y="25.793"/><use xlink:href="#d" width="100%" height="100%" x="552.56" y="25.793"/></g><use xlink:href="#w" width="100%" height="100%" x="494.536" y="61.659" style="fill:#000;fill-opacity:1"/><g style="fill:#000;fill-opacity:1"><use xlink:href="#F" width="100%" height="100%" x="509.142" y="61.659"/><use xlink:href="#G" width="100%" height="100%" x="516.342" y="61.659"/></g><g style="fill:#000;fill-opacity:1"><use xlink:href="#l" width="100%" height="100%" x="479.721" y="97.524"/><use xlink:href="#G" width="100%" height="100%" x="489.092" y="97.524"/></g><use xlink:href="#H" width="100%" height="100%" x="513.188" y="103.373" style="fill:#000;fill-opacity:1"/><g style="fill:#000;fill-opacity:1"><use xlink:href="#I" width="100%" height="100%" x="523.184" y="97.524"/><use xlink:href="#o" width="100%" height="100%" x="545.882" y="97.524"/></g><use xlink:href="#s" width="100%" height="100%" x="492.859" y="133.39" style="fill:#000;fill-opacity:1"/><g style="fill:#000;fill-opacity:1"><use xlink:href="#t" width="100%" height="100%" x="512.366" y="133.39"/><use xlink:href="#u" width="100%" height="100%" x="520.993" y="133.39"/></g><use xlink:href="#p" width="100%" height="100%" x="585.248" y="76.766" style="fill:#000;fill-opacity:1"/><g style="fill:#000;fill-opacity:1"><use xlink:href="#w" width="100%" height="100%" x="635.815" y="25.451"/><use xlink:href="#c" width="100%" height="100%" x="650.868" y="25.451"/><use xlink:href="#J" width="100%" height="100%" x="658.156" y="25.451"/><use xlink:href="#h" width="100%" height="100%" x="673.595" y="25.451"/></g><g style="fill:#000;fill-opacity:1"><use xlink:href="#g" width="100%" height="100%" x="687.875" y="25.451"/><use xlink:href="#K" width="100%" height="100%" x="695.014" y="25.451"/></g><g style="fill:#000;fill-opacity:1"><use xlink:href="#w" width="100%" height="100%" x="639.89" y="61.317"/><use xlink:href="#c" width="100%" height="100%" x="654.943" y="61.317"/><use xlink:href="#J" width="100%" height="100%" x="662.231" y="61.317"/><use xlink:href="#h" width="100%" height="100%" x="677.67" y="61.317"/></g><use xlink:href="#g" width="100%" height="100%" x="691.979" y="61.317" style="fill:#000;fill-opacity:1"/><g style="fill:#000;fill-opacity:1"><use xlink:href="#l" width="100%" height="100%" x="638.209" y="97.182"/><use xlink:href="#u" width="100%" height="100%" x="647.58" y="97.182"/><use xlink:href="#I" width="100%" height="100%" x="668.701" y="97.182"/><use xlink:href="#o" width="100%" height="100%" x="691.399" y="97.182"/></g><g style="fill:#000;fill-opacity:1"><use xlink:href="#L" width="100%" height="100%" x="621.391" y="133.048"/><use xlink:href="#M" width="100%" height="100%" x="639.24" y="133.048"/><use xlink:href="#s" width="100%" height="100%" x="653.787" y="133.048"/><use xlink:href="#N" width="100%" height="100%" x="668.334" y="133.048"/></g><g style="fill:#000;fill-opacity:1"><use xlink:href="#t" width="100%" height="100%" x="687.84" y="133.048"/><use xlink:href="#u" width="100%" height="100%" x="696.467" y="133.048"/></g><use xlink:href="#p" width="100%" height="100%" x="737.251" y="76.766" style="fill:#000;fill-opacity:1"/><g style="fill:#000;fill-opacity:1"><use xlink:href="#O" width="100%" height="100%" x="774.847" y="43.711"/><use xlink:href="#h" width="100%" height="100%" x="792.22" y="43.711"/><use xlink:href="#k" width="100%" height="100%" x="806.946" y="43.711"/><use xlink:href="#w" width="100%" height="100%" x="822.653" y="43.711"/><use xlink:href="#h" width="100%" height="100%" x="837.705" y="43.711"/><use xlink:href="#k" width="100%" height="100%" x="852.431" y="43.711"/></g><g style="fill:#000;fill-opacity:1"><use xlink:href="#l" width="100%" height="100%" x="794.541" y="79.577"/><use xlink:href="#D" width="100%" height="100%" x="803.912" y="79.577"/><use xlink:href="#j" width="100%" height="100%" x="827.472" y="79.577"/><use xlink:href="#o" width="100%" height="100%" x="839.074" y="79.577"/></g><g style="fill:#000;fill-opacity:1"><use xlink:href="#L" width="100%" height="100%" x="762.699" y="115.442"/><use xlink:href="#M" width="100%" height="100%" x="780.548" y="115.442"/><use xlink:href="#P" width="100%" height="100%" x="795.095" y="115.442"/><use xlink:href="#C" width="100%" height="100%" x="809.642" y="115.442"/><use xlink:href="#Q" width="100%" height="100%" x="824.189" y="115.442"/><use xlink:href="#P" width="100%" height="100%" x="831.031" y="115.442"/></g><g style="fill:#000;fill-opacity:1"><use xlink:href="#t" width="100%" height="100%" x="850.538" y="115.442"/><use xlink:href="#u" width="100%" height="100%" x="859.165" y="115.442"/></g><g style="fill:#000;fill-opacity:1"><use xlink:href="#R" width="100%" height="100%" x="16.288" y="162.227"/><use xlink:href="#L" width="100%" height="100%" x="33.959" y="162.227"/></g><use xlink:href="#L" width="100%" height="100%" x="45.203" y="162.227" style="fill:#000;fill-opacity:1"/><use xlink:href="#L" width="100%" height="100%" x="56.448" y="162.227" style="fill:#000;fill-opacity:1"/><use xlink:href="#L" width="100%" height="100%" x="67.693" y="162.227" style="fill:#000;fill-opacity:1"/><use xlink:href="#L" width="100%" height="100%" x="78.908" y="162.227" style="fill:#000;fill-opacity:1"/><use xlink:href="#L" width="100%" height="100%" x="90.153" y="162.227" style="fill:#000;fill-opacity:1"/><use xlink:href="#L" width="100%" height="100%" x="101.398" y="162.227" style="fill:#000;fill-opacity:1"/><use xlink:href="#L" width="100%" height="100%" x="112.643" y="162.227" style="fill:#000;fill-opacity:1"/><use xlink:href="#L" width="100%" height="100%" x="123.858" y="162.227" style="fill:#000;fill-opacity:1"/><use xlink:href="#L" width="100%" height="100%" x="135.103" y="162.227" style="fill:#000;fill-opacity:1"/><use xlink:href="#L" width="100%" height="100%" x="146.348" y="162.227" style="fill:#000;fill-opacity:1"/><use xlink:href="#L" width="100%" height="100%" x="157.593" y="162.227" style="fill:#000;fill-opacity:1"/><use xlink:href="#L" width="100%" height="100%" x="168.808" y="162.227" style="fill:#000;fill-opacity:1"/><use xlink:href="#L" width="100%" height="100%" x="180.053" y="162.227" style="fill:#000;fill-opacity:1"/><use xlink:href="#L" width="100%" height="100%" x="191.298" y="162.227" style="fill:#000;fill-opacity:1"/><use xlink:href="#L" width="100%" height="100%" x="202.543" y="162.227" style="fill:#000;fill-opacity:1"/><use xlink:href="#L" width="100%" height="100%" x="213.758" y="162.227" style="fill:#000;fill-opacity:1"/><use xlink:href="#L" width="100%" height="100%" x="225.003" y="162.227" style="fill:#000;fill-opacity:1"/><use xlink:href="#L" width="100%" height="100%" x="236.248" y="162.227" style="fill:#000;fill-opacity:1"/><use xlink:href="#L" width="100%" height="100%" x="247.493" y="162.227" style="fill:#000;fill-opacity:1"/><use xlink:href="#L" width="100%" height="100%" x="258.737" y="162.227" style="fill:#000;fill-opacity:1"/><use xlink:href="#L" width="100%" height="100%" x="269.953" y="162.227" style="fill:#000;fill-opacity:1"/><use xlink:href="#L" width="100%" height="100%" x="281.198" y="162.227" style="fill:#000;fill-opacity:1"/><use xlink:href="#L" width="100%" height="100%" x="292.442" y="162.227" style="fill:#000;fill-opacity:1"/><use xlink:href="#L" width="100%" height="100%" x="303.687" y="162.227" style="fill:#000;fill-opacity:1"/><use xlink:href="#L" width="100%" height="100%" x="314.902" y="162.227" style="fill:#000;fill-opacity:1"/><use xlink:href="#L" width="100%" height="100%" x="326.147" y="162.227" style="fill:#000;fill-opacity:1"/><use xlink:href="#L" width="100%" height="100%" x="337.392" y="162.227" style="fill:#000;fill-opacity:1"/><use xlink:href="#L" width="100%" height="100%" x="348.637" y="162.227" style="fill:#000;fill-opacity:1"/><use xlink:href="#L" width="100%" height="100%" x="359.852" y="162.227" style="fill:#000;fill-opacity:1"/><use xlink:href="#L" width="100%" height="100%" x="371.097" y="162.227" style="fill:#000;fill-opacity:1"/><use xlink:href="#L" width="100%" height="100%" x="382.342" y="162.227" style="fill:#000;fill-opacity:1"/><use xlink:href="#L" width="100%" height="100%" x="393.587" y="162.227" style="fill:#000;fill-opacity:1"/><use xlink:href="#L" width="100%" height="100%" x="404.802" y="162.227" style="fill:#000;fill-opacity:1"/><use xlink:href="#L" width="100%" height="100%" x="416.047" y="162.227" style="fill:#000;fill-opacity:1"/><use xlink:href="#L" width="100%" height="100%" x="427.292" y="162.227" style="fill:#000;fill-opacity:1"/><use xlink:href="#L" width="100%" height="100%" x="438.537" y="162.227" style="fill:#000;fill-opacity:1"/><use xlink:href="#L" width="100%" height="100%" x="449.752" y="162.227" style="fill:#000;fill-opacity:1"/><use xlink:href="#L" width="100%" height="100%" x="460.997" y="162.227" style="fill:#000;fill-opacity:1"/><use xlink:href="#L" width="100%" height="100%" x="472.242" y="162.227" style="fill:#000;fill-opacity:1"/><use xlink:href="#L" width="100%" height="100%" x="483.487" y="162.227" style="fill:#000;fill-opacity:1"/><use xlink:href="#L" width="100%" height="100%" x="494.702" y="162.227" style="fill:#000;fill-opacity:1"/><use xlink:href="#L" width="100%" height="100%" x="505.947" y="162.227" style="fill:#000;fill-opacity:1"/><use xlink:href="#L" width="100%" height="100%" x="517.192" y="162.227" style="fill:#000;fill-opacity:1"/><use xlink:href="#L" width="100%" height="100%" x="528.436" y="162.227" style="fill:#000;fill-opacity:1"/><use xlink:href="#L" width="100%" height="100%" x="539.652" y="162.227" style="fill:#000;fill-opacity:1"/><use xlink:href="#L" width="100%" height="100%" x="550.896" y="162.227" style="fill:#000;fill-opacity:1"/><use xlink:href="#L" width="100%" height="100%" x="562.141" y="162.227" style="fill:#000;fill-opacity:1"/><use xlink:href="#L" width="100%" height="100%" x="573.386" y="162.227" style="fill:#000;fill-opacity:1"/><use xlink:href="#L" width="100%" height="100%" x="584.601" y="162.227" style="fill:#000;fill-opacity:1"/><use xlink:href="#L" width="100%" height="100%" x="595.846" y="162.227" style="fill:#000;fill-opacity:1"/><use xlink:href="#L" width="100%" height="100%" x="607.091" y="162.227" style="fill:#000;fill-opacity:1"/><use xlink:href="#L" width="100%" height="100%" x="618.336" y="162.227" style="fill:#000;fill-opacity:1"/><use xlink:href="#L" width="100%" height="100%" x="629.551" y="162.227" style="fill:#000;fill-opacity:1"/><use xlink:href="#L" width="100%" height="100%" x="640.796" y="162.227" style="fill:#000;fill-opacity:1"/><use xlink:href="#L" width="100%" height="100%" x="652.041" y="162.227" style="fill:#000;fill-opacity:1"/><use xlink:href="#L" width="100%" height="100%" x="663.286" y="162.227" style="fill:#000;fill-opacity:1"/><use xlink:href="#L" width="100%" height="100%" x="674.501" y="162.227" style="fill:#000;fill-opacity:1"/><use xlink:href="#L" width="100%" height="100%" x="685.746" y="162.227" style="fill:#000;fill-opacity:1"/><use xlink:href="#L" width="100%" height="100%" x="696.991" y="162.227" style="fill:#000;fill-opacity:1"/><use xlink:href="#L" width="100%" height="100%" x="708.236" y="162.227" style="fill:#000;fill-opacity:1"/><use xlink:href="#L" width="100%" height="100%" x="719.451" y="162.227" style="fill:#000;fill-opacity:1"/><use xlink:href="#L" width="100%" height="100%" x="730.696" y="162.227" style="fill:#000;fill-opacity:1"/><use xlink:href="#L" width="100%" height="100%" x="741.941" y="162.227" style="fill:#000;fill-opacity:1"/><use xlink:href="#L" width="100%" height="100%" x="753.186" y="162.227" style="fill:#000;fill-opacity:1"/><use xlink:href="#L" width="100%" height="100%" x="764.401" y="162.227" style="fill:#000;fill-opacity:1"/><use xlink:href="#L" width="100%" height="100%" x="775.646" y="162.227" style="fill:#000;fill-opacity:1"/><use xlink:href="#L" width="100%" height="100%" x="786.891" y="162.227" style="fill:#000;fill-opacity:1"/><use xlink:href="#L" width="100%" height="100%" x="798.135" y="162.227" style="fill:#000;fill-opacity:1"/><use xlink:href="#L" width="100%" height="100%" x="809.351" y="162.227" style="fill:#000;fill-opacity:1"/><use xlink:href="#L" width="100%" height="100%" x="820.596" y="162.227" style="fill:#000;fill-opacity:1"/><use xlink:href="#L" width="100%" height="100%" x="831.84" y="162.227" style="fill:#000;fill-opacity:1"/><g style="fill:#000;fill-opacity:1"><use xlink:href="#L" width="100%" height="100%" x="843.085" y="162.227"/><use xlink:href="#L" width="100%" height="100%" x="848.856" y="162.227"/></g><use xlink:href="#S" width="100%" height="100%" x="95.526" y="202.123" style="fill:#000;fill-opacity:1"/><use xlink:href="#f" width="100%" height="100%" x="121.734" y="202.123" style="fill:#000;fill-opacity:1"/><g style="fill:#000;fill-opacity:1"><use xlink:href="#T" width="100%" height="100%" x="133.306" y="202.123"/><use xlink:href="#h" width="100%" height="100%" x="140.03" y="202.123"/><use xlink:href="#b" width="100%" height="100%" x="154.755" y="202.123"/></g><use xlink:href="#U" width="100%" height="100%" x="170.611" y="202.123" style="fill:#000;fill-opacity:1"/><g style="fill:#000;fill-opacity:1"><use xlink:href="#h" width="100%" height="100%" x="179.357" y="202.123"/><use xlink:href="#b" width="100%" height="100%" x="194.082" y="202.123"/><use xlink:href="#e" width="100%" height="100%" x="204.018" y="202.123"/><use xlink:href="#f" width="100%" height="100%" x="213.359" y="202.123"/><use xlink:href="#g" width="100%" height="100%" x="225.229" y="202.123"/><use xlink:href="#j" width="100%" height="100%" x="232.369" y="202.123"/><use xlink:href="#d" width="100%" height="100%" x="243.971" y="202.123"/><use xlink:href="#f" width="100%" height="100%" x="253.579" y="202.123"/><use xlink:href="#V" width="100%" height="100%" x="265.449" y="202.123"/></g><g style="fill:#000;fill-opacity:1"><use xlink:href="#e" width="100%" height="100%" x="278.211" y="202.123"/><use xlink:href="#j" width="100%" height="100%" x="287.552" y="202.123"/><use xlink:href="#x" width="100%" height="100%" x="299.154" y="202.123"/><use xlink:href="#J" width="100%" height="100%" x="322.298" y="202.123"/><use xlink:href="#j" width="100%" height="100%" x="337.737" y="202.123"/><use xlink:href="#b" width="100%" height="100%" x="349.339" y="202.123"/><use xlink:href="#f" width="100%" height="100%" x="359.275" y="202.123"/><use xlink:href="#e" width="100%" height="100%" x="371.145" y="202.123"/><use xlink:href="#W" width="100%" height="100%" x="380.486" y="202.123"/><use xlink:href="#b" width="100%" height="100%" x="396.163" y="202.123"/><use xlink:href="#j" width="100%" height="100%" x="406.099" y="202.123"/><use xlink:href="#d" width="100%" height="100%" x="417.701" y="202.123"/></g><g style="fill:#000;fill-opacity:1"><use xlink:href="#w" width="100%" height="100%" x="433.26" y="202.123"/><use xlink:href="#j" width="100%" height="100%" x="448.312" y="202.123"/></g><g style="fill:#000;fill-opacity:1"><use xlink:href="#U" width="100%" height="100%" x="465.864" y="202.123"/><use xlink:href="#W" width="100%" height="100%" x="475.324" y="202.123"/><use xlink:href="#d" width="100%" height="100%" x="491.001" y="202.123"/><use xlink:href="#c" width="100%" height="100%" x="500.61" y="202.123"/><use xlink:href="#X" width="100%" height="100%" x="507.898" y="202.123"/></g><use xlink:href="#c" width="100%" height="100%" x="528.603" y="202.123" style="fill:#000;fill-opacity:1"/><g style="fill:#000;fill-opacity:1"><use xlink:href="#j" width="100%" height="100%" x="541.841" y="202.123"/><use xlink:href="#Y" width="100%" height="100%" x="553.443" y="202.123"/><use xlink:href="#W" width="100%" height="100%" x="568.764" y="202.123"/><use xlink:href="#g" width="100%" height="100%" x="584.441" y="202.123"/><use xlink:href="#g" width="100%" height="100%" x="591.581" y="202.123"/><use xlink:href="#c" width="100%" height="100%" x="598.72" y="202.123"/><use xlink:href="#a" width="100%" height="100%" x="606.009" y="202.123"/><use xlink:href="#c" width="100%" height="100%" x="618.116" y="202.123"/><use xlink:href="#X" width="100%" height="100%" x="625.404" y="202.123"/></g><g style="fill:#000;fill-opacity:1"><use xlink:href="#x" width="100%" height="100%" x="646.08" y="202.123"/><use xlink:href="#Z" width="100%" height="100%" x="669.224" y="202.123"/><use xlink:href="#d" width="100%" height="100%" x="680.826" y="202.123"/></g><g style="fill:#000;fill-opacity:1"><use xlink:href="#j" width="100%" height="100%" x="696.384" y="202.123"/><use xlink:href="#g" width="100%" height="100%" x="707.986" y="202.123"/><use xlink:href="#j" width="100%" height="100%" x="715.126" y="202.123"/><use xlink:href="#i" width="100%" height="100%" x="726.728" y="202.123"/></g><g style="fill:#000;fill-opacity:1"><use xlink:href="#f" width="100%" height="100%" x="739.341" y="202.123"/><use xlink:href="#w" width="100%" height="100%" x="751.211" y="202.123"/><use xlink:href="#j" width="100%" height="100%" x="766.263" y="202.123"/><use xlink:href="#d" width="100%" height="100%" x="777.865" y="202.123"/></g></svg>