<svg xmlns="http://www.w3.org/2000/svg" xmlns:xlink="http://www.w3.org/1999/xlink" width="1080" height="1080" viewBox="0 0 810 810"><defs><path id="f" d="M46.594-6.61V0H7.984v-53.203h37.547v6.61H15.578v16.343H42.25v6.469H15.578V-6.61Zm0 0"/><path id="g" d="M18.469.453c-3.293 0-6.461-.445-9.5-1.328-3.043-.883-5.422-2.008-7.14-3.375l3.03-5.781c1.782 1.273 3.938 2.289 6.47 3.047A26.861 26.861 0 0 0 19-5.86c6.383 0 9.578-1.82 9.578-5.47 0-1.206-.433-2.163-1.297-2.874-.867-.719-1.945-1.238-3.234-1.563-1.293-.332-3.125-.703-5.5-1.109-3.242-.5-5.887-1.078-7.938-1.734a12.443 12.443 0 0 1-5.296-3.344c-1.47-1.57-2.204-3.781-2.204-6.625 0-3.645 1.52-6.567 4.563-8.766 3.039-2.207 7.117-3.312 12.234-3.312 2.688 0 5.375.328 8.063.984 2.687.656 4.89 1.543 6.61 2.656l-3.11 5.782c-3.293-2.125-7.168-3.188-11.625-3.188-3.094 0-5.453.508-7.078 1.516-1.618 1.011-2.422 2.355-2.422 4.031 0 1.313.453 2.352 1.36 3.11.913.761 2.038 1.32 3.374 1.671 1.344.356 3.235.762 5.672 1.219 3.238.555 5.86 1.148 7.86 1.781 2 .637 3.706 1.715 5.124 3.235 1.426 1.523 2.141 3.652 2.141 6.39 0 3.649-1.559 6.547-4.672 8.703C28.086-.617 23.843.454 18.47.454Zm0 0"/><path id="h" d="M24.469.453c-4.106 0-7.766-.883-10.985-2.656-3.218-1.77-5.742-4.211-7.562-7.328-1.824-3.125-2.734-6.66-2.734-10.61 0-3.945.91-7.476 2.734-10.593 1.82-3.125 4.344-5.555 7.562-7.297 3.22-1.75 6.88-2.625 10.985-2.625 3.644 0 6.898.734 9.765 2.203 2.864 1.469 5.082 3.594 6.657 6.375L35.344-28.5c-1.274-1.926-2.844-3.367-4.719-4.328-1.875-.969-3.953-1.453-6.234-1.453-2.637 0-5.008.586-7.11 1.75-2.093 1.168-3.742 2.828-4.937 4.984-1.188 2.156-1.781 4.625-1.781 7.406 0 2.836.593 5.328 1.78 7.485 1.196 2.156 2.845 3.82 4.938 4.984 2.102 1.168 4.473 1.75 7.11 1.75 2.28 0 4.359-.476 6.234-1.437 1.875-.97 3.445-2.414 4.719-4.344l5.547 3.5c-1.575 2.781-3.793 4.922-6.657 6.422C31.367-.29 28.114.453 24.47.453Zm0 0"/><path id="i" d="M21.578-40.656c5.57 0 9.844 1.37 12.813 4.11 2.968 2.73 4.453 6.808 4.453 12.233V0h-6.922v-5.313C30.703-3.444 28.96-2.02 26.703-1.03c-2.25.992-4.918 1.484-8 1.484-4.512 0-8.125-1.086-10.844-3.265-2.71-2.176-4.062-5.04-4.062-8.594 0-3.54 1.289-6.39 3.875-8.547 2.582-2.156 6.687-3.235 12.312-3.235h11.563v-1.437c0-3.145-.918-5.55-2.75-7.219-1.824-1.676-4.508-2.515-8.047-2.515a21.27 21.27 0 0 0-7 1.187c-2.273.781-4.195 1.836-5.766 3.156l-3.046-5.468c2.082-1.676 4.566-2.957 7.453-3.844 2.882-.883 5.945-1.328 9.187-1.328ZM19.906-5.172c2.79 0 5.196-.617 7.219-1.86 2.031-1.238 3.504-3 4.422-5.28v-5.626h-11.25c-6.188 0-9.281 2.079-9.281 6.235 0 2.031.785 3.633 2.359 4.797 1.57 1.156 3.75 1.734 6.531 1.734Zm0 0"/><path id="j" d="M6.922-56.39h7.297V0H6.922Zm0 0"/><path id="l" d="M31.766.61C26.44.61 21.64-.567 17.359-2.923 13.08-5.273 9.72-8.516 7.281-12.64c-2.43-4.132-3.64-8.785-3.64-13.953 0-5.176 1.21-9.828 3.64-13.953 2.438-4.125 5.805-7.363 10.11-9.719 4.312-2.363 9.129-3.547 14.453-3.547 4.156 0 7.953.7 11.39 2.094 3.446 1.399 6.391 3.461 8.828 6.188l-4.937 4.797c-4.012-4.207-9.008-6.313-14.984-6.313-3.95 0-7.524.89-10.72 2.672-3.187 1.773-5.683 4.215-7.483 7.328-1.793 3.117-2.688 6.602-2.688 10.453 0 3.844.895 7.328 2.688 10.453 1.8 3.118 4.296 5.559 7.484 7.328 3.195 1.774 6.77 2.657 10.719 2.657 5.937 0 10.93-2.13 14.984-6.39l4.938 4.796c-2.438 2.742-5.391 4.82-8.86 6.234C39.734-.098 35.922.61 31.766.61Zm0 0"/><path id="m" d="M43.313-19.906c0 .554-.047 1.289-.141 2.203H10.484c.457 3.543 2.016 6.39 4.672 8.547C17.82-7 21.13-5.922 25.078-5.922c4.813 0 8.688-1.625 11.625-4.875l4.031 4.719c-1.824 2.125-4.09 3.746-6.797 4.86C31.227-.103 28.203.452 24.86.452c-4.261 0-8.039-.867-11.328-2.61-3.293-1.75-5.84-4.195-7.64-7.343-1.805-3.145-2.704-6.691-2.704-10.64 0-3.895.876-7.415 2.626-10.563 1.75-3.145 4.156-5.586 7.218-7.328 3.063-1.75 6.52-2.625 10.375-2.625 3.852 0 7.285.875 10.297 2.625 3.02 1.742 5.375 4.183 7.063 7.328 1.695 3.148 2.547 6.746 2.547 10.797ZM23.405-34.5c-3.5 0-6.43 1.063-8.781 3.188-2.355 2.125-3.734 4.914-4.14 8.359h25.843c-.406-3.395-1.789-6.164-4.14-8.313-2.356-2.156-5.282-3.234-8.782-3.234Zm0 0"/><path id="n" d="M6.922-40.281h7.297V0H6.922Zm3.64-7.75c-1.417 0-2.593-.453-3.53-1.36-.938-.914-1.407-2.035-1.407-3.359 0-1.313.469-2.438 1.406-3.375.938-.938 2.114-1.406 3.532-1.406 1.414 0 2.593.445 3.53 1.328.938.887 1.407 1.992 1.407 3.312 0 1.368-.469 2.516-1.406 3.453-.938.938-2.117 1.407-3.531 1.407Zm0 0"/><path id="o" d="M44.453-40.281V0h-6.906v-6.078c-1.469 2.074-3.406 3.683-5.813 4.828C29.328-.113 26.704.453 23.86.453c-5.367 0-9.593-1.476-12.687-4.437-3.094-2.97-4.64-7.336-4.64-13.11V-40.28h7.296v22.343c0 3.907.938 6.86 2.813 8.86 1.875 2 4.562 3 8.062 3 3.844 0 6.879-1.164 9.11-3.5 2.226-2.332 3.343-5.625 3.343-9.875v-20.828Zm0 0"/><path id="p" d="M2.844-17.5h1.86v15.906H14.5V0H2.844Zm0 0"/><path id="q" d="M7.844.125c-1.262 0-2.403-.285-3.422-.86a6.22 6.22 0 0 1-2.39-2.39c-.587-1.02-.876-2.172-.876-3.453 0-1.281.29-2.426.875-3.438a6.154 6.154 0 0 1 2.39-2.375c1.02-.57 2.161-.859 3.423-.859 1.27 0 2.41.29 3.422.86a6.052 6.052 0 0 1 2.39 2.374c.582 1.012.875 2.157.875 3.438 0 1.281-.293 2.433-.875 3.453a6.116 6.116 0 0 1-2.39 2.39c-1.012.575-2.153.86-3.422.86Zm0-1.578c.937 0 1.773-.207 2.515-.625a4.485 4.485 0 0 0 1.735-1.813c.414-.789.625-1.687.625-2.687 0-1-.211-1.89-.625-2.672a4.51 4.51 0 0 0-1.735-1.813c-.742-.425-1.578-.64-2.515-.64-.93 0-1.766.215-2.516.64a4.573 4.573 0 0 0-1.75 1.813c-.418.781-.625 1.672-.625 2.672 0 1 .207 1.898.625 2.687a4.547 4.547 0 0 0 1.75 1.813c.75.418 1.586.625 2.516.625Zm0 0"/><path id="r" d="M6 .125c-1.063 0-2.086-.148-3.063-.453-.98-.313-1.742-.703-2.28-1.172l.796-1.406c.55.437 1.242.797 2.078 1.078a8.245 8.245 0 0 0 2.594.406c1.195 0 2.082-.187 2.656-.562.582-.375.875-.907.875-1.594 0-.477-.164-.852-.484-1.125-.313-.281-.715-.488-1.203-.625-.48-.145-1.121-.285-1.922-.422-1.063-.195-1.922-.398-2.578-.61a3.754 3.754 0 0 1-1.656-1.062c-.461-.5-.688-1.191-.688-2.078 0-1.102.457-2.004 1.375-2.703.914-.695 2.191-1.047 3.828-1.047.844 0 1.692.117 2.547.344.852.219 1.55.511 2.094.875l-.766 1.437c-1.086-.75-2.375-1.125-3.875-1.125-1.137 0-1.992.2-2.562.594-.575.398-.86.922-.86 1.578 0 .5.16.902.485 1.203.32.293.722.512 1.203.656.488.149 1.156.293 2 .438 1.05.2 1.894.402 2.531.61.633.199 1.176.538 1.625 1.015.445.48.672 1.148.672 2 0 1.148-.48 2.059-1.438 2.734C9.024-.21 7.695.125 6 .125Zm0 0"/><path id="t" d="M13.922-6.031h-11c.101 1.375.629 2.484 1.578 3.328.945.836 2.145 1.25 3.594 1.25.82 0 1.57-.145 2.25-.438a4.904 4.904 0 0 0 1.781-1.28l1 1.14a5.531 5.531 0 0 1-2.188 1.61c-.874.366-1.84.546-2.89.546-1.344 0-2.54-.285-3.578-.86a6.133 6.133 0 0 1-2.438-2.39c-.586-1.02-.875-2.172-.875-3.453 0-1.281.274-2.426.828-3.438.563-1.02 1.329-1.812 2.297-2.375.977-.57 2.078-.859 3.297-.859 1.219 0 2.305.29 3.266.86.969.562 1.726 1.35 2.281 2.359.55 1 .828 2.152.828 3.453ZM7.578-11.72c-1.273 0-2.34.406-3.203 1.219-.855.805-1.34 1.855-1.453 3.156h9.328c-.117-1.3-.605-2.351-1.469-3.156-.855-.813-1.922-1.219-3.203-1.219Zm0 0"/><path id="u" d="M10.844 0 6.672-5.5 2.469 0h-2l5.203-6.75-4.953-6.406h2L6.672-8l3.953-5.156h1.953L7.625-6.75 12.875 0Zm0 0"/><path id="v" d="M9.25-13.25c1.227 0 2.344.281 3.344.844 1 .554 1.781 1.34 2.344 2.36.57 1.01.859 2.167.859 3.468 0 1.324-.29 2.496-.86 3.516A6.036 6.036 0 0 1 12.61-.704c-.992.555-2.109.828-3.359.828-1.063 0-2.027-.219-2.89-.656A5.567 5.567 0 0 1 4.25-2.47v7.313H2.469v-18h1.703v2.61a5.485 5.485 0 0 1 2.11-2c.874-.47 1.863-.704 2.968-.704ZM9.125-1.453c.914 0 1.75-.207 2.5-.625a4.559 4.559 0 0 0 1.766-1.813c.425-.789.64-1.687.64-2.687 0-1-.215-1.883-.64-2.656a4.584 4.584 0 0 0-1.766-1.813 4.877 4.877 0 0 0-2.5-.656c-.938 0-1.777.219-2.516.656a4.573 4.573 0 0 0-1.75 1.813c-.43.773-.64 1.656-.64 2.656 0 1 .21 1.898.64 2.687a4.547 4.547 0 0 0 1.75 1.813c.739.418 1.579.625 2.516.625Zm0 0"/><path id="w" d="M4.172-10.578c.414-.883 1.035-1.55 1.86-2 .831-.445 1.85-.672 3.062-.672v1.719l-.422-.016c-1.387 0-2.469.43-3.25 1.281-.781.844-1.172 2.032-1.172 3.563V0H2.469v-13.156h1.703Zm0 0"/><path id="x" d="M9.406-.797c-.336.305-.75.531-1.25.688-.492.156-1 .234-1.531.234-1.23 0-2.18-.332-2.844-1-.668-.664-1-1.61-1-2.828v-7.953H.421v-1.5h2.36v-2.875h1.766v2.875h4v1.5h-4v7.86c0 .78.191 1.374.578 1.78.395.407.96.61 1.703.61.363 0 .719-.055 1.063-.172.343-.113.64-.281.89-.5Zm0 0"/><path id="y" d="M7.922.125c-1.305 0-2.465-.281-3.484-.844a6.181 6.181 0 0 1-2.407-2.39c-.586-1.032-.875-2.188-.875-3.47 0-1.28.29-2.425.875-3.437a6.116 6.116 0 0 1 2.406-2.375c1.02-.57 2.18-.859 3.485-.859 1.133 0 2.144.227 3.031.672a5.076 5.076 0 0 1 2.125 1.922l-1.328.906a4.22 4.22 0 0 0-1.656-1.453 4.81 4.81 0 0 0-2.172-.5c-.95 0-1.805.215-2.563.64A4.52 4.52 0 0 0 3.58-9.25c-.419.781-.626 1.672-.626 2.672 0 1.023.207 1.922.625 2.703A4.505 4.505 0 0 0 5.36-2.078c.758.418 1.614.625 2.563.625.781 0 1.504-.156 2.172-.469a4.159 4.159 0 0 0 1.656-1.453l1.328.906a5.135 5.135 0 0 1-2.14 1.938c-.899.437-1.903.656-3.016.656Zm0 0"/><path id="z" d="M18.875-13.25c1.645 0 2.938.477 3.875 1.422.945.95 1.422 2.351 1.422 4.203V0h-1.766v-7.453c0-1.363-.336-2.406-1-3.125-.656-.719-1.586-1.078-2.781-1.078-1.367 0-2.445.422-3.234 1.265-.782.844-1.172 2.008-1.172 3.485V0h-1.766v-7.453c0-1.363-.336-2.406-1-3.125-.656-.719-1.59-1.078-2.797-1.078-1.355 0-2.43.422-3.219 1.265-.792.844-1.187 2.008-1.187 3.485V0H2.469v-13.156h1.703v2.406a4.705 4.705 0 0 1 1.953-1.844c.832-.437 1.79-.656 2.875-.656 1.102 0 2.055.234 2.86.703.812.469 1.413 1.164 1.812 2.078a5.156 5.156 0 0 1 2.094-2.047c.906-.488 1.941-.734 3.109-.734Zm0 0"/><path id="A" d="M2.469-13.156H4.25V0H2.469Zm.906-2.875c-.367 0-.672-.125-.922-.375a1.217 1.217 0 0 1-.375-.89c0-.333.125-.626.375-.876s.555-.375.922-.375c.363 0 .672.121.922.36.25.242.375.527.375.859 0 .367-.125.672-.375.922s-.559.375-.922.375Zm0 0"/><path id="B" d="M9.172-13.25c1.656 0 2.969.48 3.937 1.438.977.96 1.47 2.355 1.47 4.187V0h-1.782v-7.453c0-1.363-.344-2.406-1.031-3.125-.68-.719-1.653-1.078-2.922-1.078-1.418 0-2.54.422-3.36 1.265-.824.844-1.234 2.008-1.234 3.485V0H2.469v-13.156h1.703v2.437a4.955 4.955 0 0 1 2.016-1.86c.851-.444 1.847-.671 2.984-.671Zm0 0"/><path id="C" d="M14.469-18.547V0H12.78v-2.594a5.562 5.562 0 0 1-2.125 2.016c-.875.469-1.86.703-2.953.703-1.242 0-2.36-.281-3.36-.844A6.088 6.088 0 0 1 2-3.094c-.563-1.02-.844-2.18-.844-3.484 0-1.3.282-2.457.844-3.469a5.898 5.898 0 0 1 2.344-2.36c1-.562 2.117-.843 3.36-.843 1.062 0 2.019.227 2.874.672a5.478 5.478 0 0 1 2.125 1.922v-7.89ZM7.844-1.453c.914 0 1.742-.207 2.484-.625a4.447 4.447 0 0 0 1.75-1.813c.426-.789.64-1.687.64-2.687 0-1-.214-1.89-.64-2.672a4.47 4.47 0 0 0-1.75-1.813c-.742-.425-1.57-.64-2.484-.64-.93 0-1.766.215-2.516.64a4.573 4.573 0 0 0-1.75 1.813c-.418.781-.625 1.672-.625 2.672 0 1 .207 1.898.625 2.687a4.547 4.547 0 0 0 1.75 1.813c.75.418 1.586.625 2.516.625Zm0 0"/><path id="D" d="M7.078-13.25c1.719 0 3.035.434 3.953 1.297.914.855 1.375 2.121 1.375 3.797V0h-1.703v-2.047c-.406.68-.996 1.211-1.765 1.594-.774.387-1.696.578-2.766.578-1.469 0-2.637-.348-3.5-1.047-.867-.695-1.297-1.625-1.297-2.781 0-1.113.398-2.008 1.203-2.688.813-.687 2.102-1.03 3.875-1.03h4.172v-.798c0-1.133-.32-2-.953-2.594-.637-.593-1.559-.89-2.766-.89a6.95 6.95 0 0 0-2.406.422c-.773.273-1.43.648-1.969 1.125L1.72-11.47c.664-.57 1.468-1.008 2.406-1.312a9.277 9.277 0 0 1 2.953-.469ZM6.453-1.281c1 0 1.852-.227 2.563-.688.718-.457 1.254-1.117 1.609-1.984v-2.14H6.5c-2.25 0-3.375.78-3.375 2.343 0 .773.29 1.375.875 1.813.582.437 1.398.656 2.453.656Zm0 0"/><path id="E" d="M2.469-18.547H4.25V0H2.469Zm0 0"/><path id="F" d="M10.453.156C8.711.156 7.145-.227 5.75-1a8.452 8.452 0 0 1-3.266-3.188C1.691-5.538 1.297-7.063 1.297-8.75c0-1.688.394-3.207 1.187-4.563A8.469 8.469 0 0 1 5.766-16.5c1.406-.77 2.972-1.156 4.703-1.156 1.3 0 2.5.218 3.594.656a7.63 7.63 0 0 1 2.812 1.906l-1.172 1.172C14.336-15.305 12.613-16 10.531-16c-1.386 0-2.648.32-3.781.953a7 7 0 0 0-2.672 2.61c-.637 1.093-.953 2.324-.953 3.687 0 1.367.316 2.602.953 3.703A6.988 6.988 0 0 0 6.75-2.453c1.133.637 2.395.953 3.781.953 2.094 0 3.817-.695 5.172-2.094l1.172 1.172A7.714 7.714 0 0 1 14.062-.5c-1.105.438-2.308.656-3.609.656Zm0 0"/><path id="G" d="M14.328-13.156V0h-1.703v-2.406a4.914 4.914 0 0 1-1.938 1.875c-.812.437-1.742.656-2.78.656-1.72 0-3.079-.477-4.079-1.438-.992-.957-1.484-2.363-1.484-4.218v-7.625h1.781v7.453c0 1.387.336 2.437 1.016 3.156.687.719 1.664 1.078 2.937 1.078 1.383 0 2.473-.422 3.266-1.265.8-.844 1.203-2.016 1.203-3.516v-6.906Zm0 0"/><path id="H" d="M7.078-13.25c1.719 0 3.035.434 3.953 1.297.914.855 1.375 2.121 1.375 3.797V0h-1.703v-2.047c-.406.68-.996 1.211-1.765 1.594-.774.387-1.696.578-2.766.578-1.469 0-2.637-.348-3.5-1.047-.867-.695-1.297-1.625-1.297-2.781 0-1.113.398-2.008 1.203-2.688.813-.687 2.102-1.03 3.875-1.03h4.172v-.798c0-1.133-.32-2-.953-2.594-.637-.593-1.559-.89-2.766-.89a6.95 6.95 0 0 0-2.406.422c-.773.273-1.43.648-1.969 1.125L1.72-11.47c.664-.57 1.468-1.008 2.406-1.312a9.277 9.277 0 0 1 2.953-.469ZM6.453-1.281c1 0 1.852-.227 2.563-.688.718-.457 1.254-1.117 1.609-1.984v-2.14H6.5c-2.25 0-3.375.78-3.375 2.343 0 .773.29 1.375.875 1.813.582.437 1.398.656 2.453.656Zm2.469-17.032h2.375l-4.047 3.11H5.5Zm0 0"/><path id="I" d="M15.219-1.594V0H2.844v-17.5h12v1.594H4.704v6.234h9.046v1.578H4.703v6.5Zm0 0"/><path id="J" d="M9.172-13.25c1.656 0 2.969.48 3.937 1.438.977.96 1.47 2.355 1.47 4.187V0h-1.782v-7.453c0-1.363-.344-2.406-1.031-3.125-.68-.719-1.653-1.078-2.922-1.078-1.418 0-2.54.422-3.36 1.265-.824.844-1.234 2.008-1.234 3.485V0H2.469v-13.156h1.703v2.437a4.955 4.955 0 0 1 2.016-1.86c.851-.444 1.847-.671 2.984-.671Zm1.031-2.11c-.387 0-.73-.081-1.031-.25a5.341 5.341 0 0 1-.969-.75 6.56 6.56 0 0 0-.719-.53 1.042 1.042 0 0 0-.562-.172c-.387 0-.695.148-.922.437-.23.281-.355.672-.375 1.172H4.547c.031-.832.242-1.5.64-2 .407-.5.942-.75 1.61-.75.383 0 .723.086 1.016.25.289.168.628.418 1.015.75.258.23.485.406.672.531.188.117.379.172.578.172.363 0 .66-.133.89-.406.239-.282.376-.664.407-1.157h1.078c-.031.825-.25 1.481-.656 1.97-.399.491-.93.734-1.594.734Zm0 0"/><path id="K" d="M2.656.125c-.375 0-.695-.129-.953-.39a1.395 1.395 0 0 1-.375-.985c0-.383.125-.703.375-.953.258-.258.578-.39.953-.39.364 0 .676.132.938.39.27.25.406.57.406.953 0 .387-.137.715-.406.984-.262.262-.574.391-.938.391Zm0 0"/><path id="L" d="M7.672.156c-1.305 0-2.547-.207-3.734-.625-1.188-.414-2.11-.969-2.766-1.656l.734-1.422C2.531-2.91 3.367-2.395 4.422-2a9.33 9.33 0 0 0 3.25.578c1.57 0 2.75-.285 3.531-.86.781-.581 1.172-1.331 1.172-2.25 0-.695-.215-1.253-.64-1.671a4.303 4.303 0 0 0-1.563-.953c-.617-.227-1.477-.477-2.578-.75-1.313-.332-2.36-.649-3.14-.953a5.35 5.35 0 0 1-2.016-1.407c-.563-.632-.844-1.492-.844-2.578 0-.883.234-1.687.703-2.406.469-.727 1.187-1.313 2.156-1.75.969-.438 2.164-.656 3.594-.656 1 0 1.976.14 2.937.422.957.273 1.786.652 2.485 1.14l-.625 1.469a8.735 8.735 0 0 0-2.344-1.078 8.53 8.53 0 0 0-2.453-.375c-1.531 0-2.688.297-3.469.89-.773.594-1.156 1.356-1.156 2.282 0 .71.21 1.277.64 1.703.426.418.958.742 1.594.969A33.44 33.44 0 0 0 8.25-9.5c1.281.313 2.316.625 3.11.938a5.23 5.23 0 0 1 2.015 1.406c.55.625.828 1.468.828 2.531 0 .887-.242 1.695-.719 2.422-.468.719-1.199 1.293-2.187 1.719-.98.43-2.188.64-3.625.64Zm0 0"/><path id="M" d="M7.844.125c-1.262 0-2.403-.285-3.422-.86a6.22 6.22 0 0 1-2.39-2.39c-.587-1.02-.876-2.172-.876-3.453 0-1.281.29-2.426.875-3.438a6.154 6.154 0 0 1 2.39-2.375c1.02-.57 2.161-.859 3.423-.859 1.27 0 2.41.29 3.422.86a6.052 6.052 0 0 1 2.39 2.374c.582 1.012.875 2.157.875 3.438 0 1.281-.293 2.433-.875 3.453a6.116 6.116 0 0 1-2.39 2.39c-1.012.575-2.153.86-3.422.86Zm0-1.578c.937 0 1.773-.207 2.515-.625a4.485 4.485 0 0 0 1.735-1.813c.414-.789.625-1.687.625-2.687 0-1-.211-1.89-.625-2.672a4.51 4.51 0 0 0-1.735-1.813c-.742-.425-1.578-.64-2.515-.64-.93 0-1.766.215-2.516.64a4.573 4.573 0 0 0-1.75 1.813c-.418.781-.625 1.672-.625 2.672 0 1 .207 1.898.625 2.687a4.547 4.547 0 0 0 1.75 1.813c.75.418 1.586.625 2.516.625Zm1.781-16.86H12l-4.047 3.11h-1.75Zm0 0"/><path id="N" d="M2.672-2.594c.383 0 .703.133.953.39.25.25.375.571.375.954 0 .2-.031.418-.094.656-.054.23-.136.496-.25.797L2.594 3.656H1.406L2.25.031a1.21 1.21 0 0 1-.656-.469 1.33 1.33 0 0 1-.25-.812c0-.383.125-.703.375-.953.25-.258.566-.39.953-.39Zm0 0"/><path id="O" d="M13.531-13.156 6.953 1.578c-.531 1.227-1.152 2.098-1.86 2.61-.698.519-1.538.78-2.515.78-.637 0-1.23-.1-1.781-.296a3.822 3.822 0 0 1-1.422-.89l.828-1.329c.664.664 1.461 1 2.39 1 .602 0 1.118-.168 1.548-.5.425-.336.82-.902 1.187-1.703l.578-1.281L.031-13.156h1.844L6.828-1.97l4.953-11.187Zm0 0"/><path id="P" d="M9.25-13.25c1.227 0 2.344.281 3.344.844 1 .554 1.781 1.34 2.344 2.36.57 1.01.859 2.167.859 3.468 0 1.305-.29 2.465-.86 3.484a6.088 6.088 0 0 1-2.343 2.375c-1 .563-2.117.844-3.344.844-1.105 0-2.094-.234-2.969-.703a5.44 5.44 0 0 1-2.11-2.016V0H2.47v-18.547H4.25v7.89a5.464 5.464 0 0 1 2.11-1.921c.863-.445 1.827-.672 2.89-.672ZM9.125-1.453c.914 0 1.75-.207 2.5-.625a4.559 4.559 0 0 0 1.766-1.813c.425-.789.64-1.687.64-2.687 0-1-.215-1.89-.64-2.672a4.584 4.584 0 0 0-1.766-1.813 4.983 4.983 0 0 0-2.5-.64c-.938 0-1.777.215-2.516.64A4.573 4.573 0 0 0 4.86-9.25c-.43.781-.64 1.672-.64 2.672 0 1 .21 1.898.64 2.687a4.547 4.547 0 0 0 1.75 1.813c.739.418 1.579.625 2.516.625Zm0 0"/><path id="Q" d="M13.922-6.031h-11c.101 1.375.629 2.484 1.578 3.328.945.836 2.145 1.25 3.594 1.25.82 0 1.57-.145 2.25-.438a4.904 4.904 0 0 0 1.781-1.28l1 1.14a5.531 5.531 0 0 1-2.188 1.61c-.874.366-1.84.546-2.89.546-1.344 0-2.54-.285-3.578-.86a6.133 6.133 0 0 1-2.438-2.39c-.586-1.02-.875-2.172-.875-3.453 0-1.281.274-2.426.828-3.438.563-1.02 1.329-1.812 2.297-2.375.977-.57 2.078-.859 3.297-.859 1.219 0 2.305.29 3.266.86.969.562 1.726 1.35 2.281 2.359.55 1 .828 2.152.828 3.453ZM7.578-11.72c-1.273 0-2.34.406-3.203 1.219-.855.805-1.34 1.855-1.453 3.156h9.328c-.117-1.3-.605-2.351-1.469-3.156-.855-.813-1.922-1.219-3.203-1.219Zm1.797-6.594h2.375l-4.047 3.11h-1.75Zm0 0"/><path id="R" d="m1.25-6.578 3.625-4.75h1.656L2.97-6.578 6.53-1.844H4.875Zm4.453 0 3.625-4.75h1.656l-3.562 4.75 3.562 4.734H9.328Zm0 0"/><path id="S" d="M2.469-13.156H4.25V0H2.469Zm2.703-5.156h2.375L3.5-15.204H1.75Zm0 0"/><path id="T" d="M14.656-13.156v11.562c0 2.227-.547 3.88-1.64 4.953-1.094 1.07-2.743 1.61-4.938 1.61-1.219 0-2.375-.18-3.469-.532-1.093-.355-1.98-.851-2.656-1.484l.89-1.36c.634.571 1.407 1.016 2.313 1.329.914.32 1.875.484 2.875.484 1.664 0 2.89-.39 3.672-1.172.781-.773 1.172-1.976 1.172-3.609v-1.672a5.414 5.414 0 0 1-2.172 1.906C9.816-.71 8.832-.5 7.75-.5c-1.23 0-2.352-.27-3.36-.813a5.95 5.95 0 0 1-2.374-2.265c-.575-.977-.86-2.086-.86-3.328 0-1.227.285-2.328.86-3.297a5.893 5.893 0 0 1 2.359-2.25c1-.531 2.125-.797 3.375-.797 1.113 0 2.117.227 3.016.672a5.466 5.466 0 0 1 2.187 1.953v-2.531ZM7.922-2.078c.945 0 1.805-.203 2.578-.61a4.33 4.33 0 0 0 1.781-1.703c.426-.738.64-1.578.64-2.515 0-.926-.214-1.75-.64-2.469a4.388 4.388 0 0 0-1.765-1.703c-.762-.414-1.625-.625-2.594-.625-.95 0-1.805.203-2.563.61a4.327 4.327 0 0 0-1.78 1.702c-.419.73-.626 1.559-.626 2.485 0 .937.207 1.777.625 2.515A4.427 4.427 0 0 0 5.36-2.687c.758.406 1.614.609 2.563.609Zm0 0"/><path id="U" d="M.953-1.844 4.5-6.578l-3.547-4.75h1.64l3.626 4.75-3.625 4.734Zm4.453 0 3.547-4.734-3.547-4.75h1.64l3.626 4.75-3.625 4.734Zm0 0"/><path id="V" d="M6.828-17.172c-.773 0-1.355.211-1.75.625-.387.418-.578 1.031-.578 1.844v1.547h4.047v1.5h-4V0H2.78v-11.656H.421v-1.5h2.36v-1.625c0-1.196.344-2.145 1.031-2.844.688-.695 1.665-1.047 2.938-1.047.5 0 .984.074 1.453.219.469.137.86.34 1.172.61l-.594 1.312c-.523-.426-1.172-.64-1.953-.64Zm0 0"/><path id="W" d="M14.469-13.156v18h-1.766V-2.47A5.58 5.58 0 0 1 10.578-.53c-.855.437-1.812.656-2.875.656-1.25 0-2.375-.273-3.375-.828A6.01 6.01 0 0 1 2-3.063c-.563-1.019-.844-2.19-.844-3.515 0-1.3.282-2.457.844-3.469a5.898 5.898 0 0 1 2.344-2.36c1-.562 2.117-.843 3.36-.843 1.093 0 2.077.234 2.952.703a5.61 5.61 0 0 1 2.125 2v-2.61ZM7.844-1.453c.914 0 1.742-.207 2.484-.625a4.447 4.447 0 0 0 1.75-1.813c.426-.789.64-1.687.64-2.687 0-1-.214-1.883-.64-2.656a4.47 4.47 0 0 0-1.75-1.813c-.742-.437-1.57-.656-2.484-.656-.93 0-1.766.219-2.516.656a4.573 4.573 0 0 0-1.75 1.813c-.418.773-.625 1.656-.625 2.656 0 1 .207 1.898.625 2.687a4.547 4.547 0 0 0 1.75 1.813c.75.418 1.586.625 2.516.625Zm0 0"/><path id="X" d="M9.172-13.25c1.656 0 2.969.48 3.937 1.438.977.96 1.47 2.355 1.47 4.187V0h-1.782v-7.453c0-1.363-.344-2.406-1.031-3.125-.68-.719-1.653-1.078-2.922-1.078-1.418 0-2.54.422-3.36 1.265-.824.844-1.234 2.008-1.234 3.485V0H2.469v-18.547H4.25v7.703c.477-.77 1.145-1.363 2-1.781.852-.414 1.828-.625 2.922-.625Zm0 0"/><path id="Y" d="M.531 4.969c-.55 0-1.07-.074-1.562-.219-.5-.137-.907-.344-1.219-.625l.625-1.344c.523.446 1.203.672 2.047.672.695 0 1.234-.21 1.61-.625.374-.418.562-1.039.562-1.86v-14.124h1.781V.969c0 1.238-.336 2.21-1 2.922-.668.718-1.617 1.078-2.844 1.078ZM3.5-16.063c-.367 0-.672-.125-.922-.375a1.217 1.217 0 0 1-.375-.89c0-.332.125-.625.375-.875s.555-.375.922-.375c.363 0 .672.121.922.36.25.241.375.527.375.859 0 .367-.125.672-.375.922s-.559.375-.922.375Zm0 0"/><path id="Z" d="M6.156-17.5V0H4.344v-15.906H.219V-17.5Zm0 0"/><path id="aa" d="M8.281.156c-1.355 0-2.562-.36-3.625-1.078-1.054-.719-1.875-1.75-2.468-3.094-.594-1.343-.891-2.921-.891-4.734 0-1.813.297-3.39.89-4.734.594-1.344 1.415-2.375 2.47-3.094 1.062-.719 2.269-1.078 3.624-1.078 1.344 0 2.54.36 3.594 1.078 1.063.719 1.895 1.75 2.5 3.094.602 1.343.906 2.921.906 4.734 0 1.813-.304 3.39-.906 4.734-.605 1.344-1.438 2.375-2.5 3.094C10.82-.203 9.625.156 8.281.156Zm0-1.656c1.008 0 1.899-.281 2.672-.844.781-.57 1.383-1.398 1.813-2.484.437-1.082.656-2.39.656-3.922 0-1.531-.219-2.836-.656-3.922-.43-1.082-1.032-1.906-1.813-2.469C10.18-15.71 9.29-16 8.281-16c-1.023 0-1.922.29-2.703.86-.773.562-1.375 1.386-1.812 2.468-.43 1.086-.641 2.39-.641 3.922 0 1.531.21 2.84.64 3.922.438 1.086 1.04 1.914 1.813 2.484.781.563 1.68.844 2.703.844Zm0 0"/><path id="ab" d="M13.531-13.156 7.671 0H5.845L.03-13.156h1.844L6.797-1.953l4.984-11.203Zm0 0"/><path id="ac" d="M16.094-21.89c2.77 0 5.242.578 7.422 1.734 2.175 1.148 3.875 2.758 5.093 4.828 1.22 2.074 1.828 4.445 1.828 7.11 0 2.624-.453 4.679-1.359 6.155-.906 1.481-2.168 2.22-3.781 2.22-1.012 0-1.836-.298-2.469-.891-.625-.602-.969-1.43-1.031-2.485a6.606 6.606 0 0 1-2.547 2.5c-1.074.586-2.293.875-3.656.875-1.45 0-2.758-.344-3.922-1.031A7.527 7.527 0 0 1 8.906-3.75c-.668-1.219-1-2.594-1-4.125 0-1.531.332-2.898 1-4.11a7.373 7.373 0 0 1 2.766-2.828c1.164-.687 2.473-1.03 3.922-1.03 1.32 0 2.515.288 3.578.859a6.665 6.665 0 0 1 2.562 2.39v-3.125h2.016v11.75c0 .824.172 1.422.516 1.797.351.375.82.563 1.406.563.969 0 1.734-.579 2.297-1.735.57-1.156.86-2.77.86-4.844 0-2.394-.54-4.503-1.61-6.328-1.074-1.832-2.578-3.254-4.516-4.265-1.93-1.02-4.133-1.532-6.61-1.532-2.5 0-4.718.528-6.655 1.579a11.269 11.269 0 0 0-4.516 4.406c-1.074 1.887-1.61 4.039-1.61 6.453 0 2.418.532 4.578 1.594 6.484a11.34 11.34 0 0 0 4.469 4.422c1.914 1.063 4.113 1.594 6.594 1.594.969 0 1.984-.117 3.047-.344a11.521 11.521 0 0 0 2.906-1.031l.515 1.531c-.886.446-1.914.797-3.078 1.047-1.168.25-2.297.375-3.39.375-2.813 0-5.309-.601-7.485-1.797-2.168-1.199-3.855-2.867-5.062-5-1.211-2.144-1.813-4.57-1.813-7.281 0-2.727.61-5.148 1.829-7.266 1.218-2.125 2.925-3.78 5.124-4.968 2.208-1.188 4.72-1.782 7.532-1.782Zm-.219 20.25c1.113 0 2.113-.255 3-.766a5.547 5.547 0 0 0 2.11-2.188c.519-.945.78-2.039.78-3.281 0-1.219-.261-2.297-.78-3.234-.512-.946-1.215-1.672-2.11-2.172-.887-.508-1.887-.766-3-.766-1.137 0-2.156.262-3.063.781a5.405 5.405 0 0 0-2.109 2.172c-.5.93-.75 2-.75 3.219 0 1.219.25 2.305.75 3.25a5.613 5.613 0 0 0 2.11 2.203c.906.524 1.925.781 3.062.781Zm0 0"/><path id="ad" d="M17.953-23V0h-2.11v-3.219c-.667 1.094-1.542 1.934-2.624 2.516-1.086.574-2.309.86-3.672.86-1.531 0-2.918-.348-4.156-1.048a7.61 7.61 0 0 1-2.922-2.953c-.7-1.258-1.047-2.695-1.047-4.312 0-1.614.348-3.051 1.047-4.313A7.428 7.428 0 0 1 5.39-15.39c1.238-.695 2.625-1.046 4.156-1.046 1.32 0 2.515.277 3.578.828 1.063.554 1.938 1.355 2.625 2.406V-23ZM9.734-1.797c1.133 0 2.16-.258 3.079-.781a5.605 5.605 0 0 0 2.171-2.25c.532-.977.797-2.086.797-3.328 0-1.239-.265-2.344-.797-3.313a5.605 5.605 0 0 0-2.171-2.25c-.918-.531-1.946-.797-3.079-.797-1.156 0-2.199.266-3.125.797-.918.531-1.64 1.281-2.171 2.25-.524.969-.782 2.074-.782 3.313 0 1.242.258 2.351.781 3.328.532.969 1.254 1.719 2.172 2.25.926.523 1.97.781 3.125.781Zm0 0"/><path id="ae" d="M9.734.156c-1.574 0-2.992-.351-4.25-1.062A7.89 7.89 0 0 1 2.5-3.875c-.719-1.258-1.078-2.688-1.078-4.281 0-1.594.36-3.02 1.078-4.281a7.702 7.702 0 0 1 2.984-2.938c1.258-.707 2.676-1.063 4.25-1.063 1.57 0 2.989.356 4.25 1.063a7.545 7.545 0 0 1 2.954 2.938c.718 1.261 1.078 2.687 1.078 4.28 0 1.595-.36 3.024-1.078 4.282a7.729 7.729 0 0 1-2.954 2.969c-1.261.71-2.68 1.062-4.25 1.062Zm0-1.953c1.157 0 2.192-.258 3.11-.781A5.493 5.493 0 0 0 15-4.828c.52-.977.781-2.086.781-3.328 0-1.239-.261-2.344-.781-3.313a5.493 5.493 0 0 0-2.156-2.25c-.918-.531-1.953-.797-3.11-.797-1.156 0-2.199.266-3.125.797-.918.531-1.64 1.281-2.171 2.25-.524.969-.782 2.074-.782 3.313 0 1.242.258 2.351.781 3.328.532.969 1.254 1.719 2.172 2.25.926.523 1.97.781 3.125.781Zm0 0"/><path id="af" d="M9.828.156C8.211.156 6.77-.19 5.5-.89a7.69 7.69 0 0 1-3-2.968c-.719-1.27-1.078-2.704-1.078-4.297 0-1.594.36-3.02 1.078-4.281a7.664 7.664 0 0 1 3-2.938c1.27-.707 2.71-1.063 4.328-1.063 1.406 0 2.66.278 3.766.829a6.417 6.417 0 0 1 2.625 2.406l-1.657 1.11a5.128 5.128 0 0 0-2.046-1.813 5.991 5.991 0 0 0-2.688-.61c-1.18 0-2.242.266-3.187.797a5.654 5.654 0 0 0-2.204 2.25c-.523.969-.78 2.074-.78 3.313 0 1.261.257 2.375.78 3.344a5.664 5.664 0 0 0 2.204 2.234c.945.523 2.007.781 3.187.781.969 0 1.863-.191 2.688-.578.832-.395 1.515-1 2.046-1.813l1.657 1.125a6.334 6.334 0 0 1-2.64 2.407c-1.118.543-2.368.812-3.75.812Zm0 0"/><path id="ag" d="M17.266-7.469H3.625c.125 1.7.773 3.07 1.953 4.11 1.176 1.043 2.664 1.562 4.469 1.562 1.008 0 1.937-.18 2.781-.547a6.094 6.094 0 0 0 2.203-1.594l1.25 1.422a7.069 7.069 0 0 1-2.718 2c-1.086.45-2.278.672-3.579.672-1.68 0-3.164-.351-4.453-1.062A7.799 7.799 0 0 1 2.5-3.875c-.719-1.258-1.078-2.688-1.078-4.281 0-1.594.344-3.02 1.031-4.281.695-1.258 1.649-2.239 2.86-2.938 1.207-.707 2.566-1.063 4.078-1.063 1.507 0 2.863.356 4.062 1.063a7.417 7.417 0 0 1 2.813 2.922c.687 1.25 1.03 2.683 1.03 4.297ZM9.39-14.53c-1.575 0-2.891.5-3.954 1.5-1.062 1-1.667 2.308-1.812 3.922h11.563c-.149-1.614-.75-2.922-1.813-3.922s-2.39-1.5-3.984-1.5Zm0 0"/><path id="ah" d="M11.375-16.438c2.05 0 3.68.602 4.89 1.797 1.208 1.188 1.813 2.918 1.813 5.188V0h-2.203v-9.234c0-1.696-.43-2.989-1.281-3.875-.844-.895-2.055-1.344-3.625-1.344-1.75 0-3.14.527-4.172 1.578-1.024 1.043-1.531 2.48-1.531 4.313V0H3.062v-16.313h2.11v3.016c.601-.988 1.437-1.758 2.5-2.312 1.062-.551 2.297-.829 3.703-.829Zm0 0"/><path id="ai" d="M11.656-.984c-.418.367-.933.648-1.547.843a6.117 6.117 0 0 1-1.89.297c-1.531 0-2.715-.41-3.547-1.234-.824-.832-1.234-2.004-1.234-3.516v-9.86H.53v-1.858h2.906v-3.563h2.204v3.563h4.968v1.859H5.641v9.734c0 .98.238 1.727.718 2.235.489.5 1.192.75 2.11.75.445 0 .883-.07 1.312-.22.426-.144.79-.35 1.094-.624Zm0 0"/><path id="aj" d="M8.469-21.297c-.961 0-1.684.262-2.172.781-.48.512-.719 1.274-.719 2.282v1.922h5.031v1.859H5.641V0H3.437v-14.453H.531v-1.86h2.906v-2.015c0-1.477.426-2.649 1.282-3.516.863-.875 2.082-1.312 3.656-1.312.613 0 1.207.09 1.781.265.582.18 1.07.43 1.469.75l-.75 1.657c-.637-.54-1.438-.813-2.406-.813Zm0 0"/><path id="ak" d="M3.063-23h2.203V0H3.062Zm0 0"/><path id="al" d="M3.063-16.313h2.203V0H3.062Zm1.124-3.562c-.46 0-.843-.148-1.156-.453a1.55 1.55 0 0 1-.453-1.125c0-.414.149-.774.453-1.078A1.567 1.567 0 0 1 4.187-23c.446 0 .829.152 1.141.453.313.293.469.649.469 1.063a1.574 1.574 0 0 1-1.61 1.61Zm0 0"/><path id="am" d="M11.469-16.438c1.531 0 2.914.352 4.156 1.047a7.364 7.364 0 0 1 2.906 2.922c.707 1.262 1.063 2.7 1.063 4.313 0 1.636-.356 3.086-1.063 4.344a7.467 7.467 0 0 1-2.89 2.937C14.41-.187 13.02.156 11.469.156c-1.324 0-2.516-.27-3.578-.812-1.063-.551-1.938-1.352-2.625-2.406v9.078H3.062v-22.328h2.11v3.234a6.905 6.905 0 0 1 2.625-2.485c1.082-.582 2.305-.874 3.672-.874Zm-.156 14.641c1.132 0 2.164-.258 3.093-.781a5.567 5.567 0 0 0 2.188-2.25c.531-.977.797-2.086.797-3.328 0-1.239-.266-2.336-.797-3.297a5.716 5.716 0 0 0-2.188-2.25c-.93-.54-1.96-.813-3.094-.813-1.156 0-2.199.274-3.124.813a5.867 5.867 0 0 0-2.172 2.25c-.524.96-.782 2.058-.782 3.297 0 1.242.258 2.351.782 3.328.53.969 1.254 1.719 2.171 2.25.926.523 1.97.781 3.126.781Zm0 0"/><path id="an" d="M8.766-16.438c2.132 0 3.77.54 4.906 1.61 1.133 1.062 1.703 2.637 1.703 4.719V0h-2.11v-2.547c-.492.856-1.218 1.524-2.187 2-.96.469-2.101.703-3.422.703-1.824 0-3.273-.43-4.343-1.297-1.075-.875-1.61-2.023-1.61-3.453 0-1.383.5-2.5 1.5-3.343C4.211-8.781 5.813-9.204 8-9.204h5.172v-1c0-1.406-.399-2.473-1.188-3.203-.78-.739-1.921-1.11-3.421-1.11A8.67 8.67 0 0 0 5.578-14c-.95.344-1.766.813-2.453 1.406l-.984-1.64c.82-.696 1.812-1.239 2.968-1.625a11.56 11.56 0 0 1 3.657-.579ZM8-1.578c1.238 0 2.3-.281 3.188-.844.894-.57 1.554-1.394 1.984-2.469v-2.671h-5.11c-2.792 0-4.187.968-4.187 2.906 0 .96.36 1.715 1.078 2.265.727.543 1.742.813 3.047.813Zm0 0"/><clipPath id="a"><path d="M39.137 137.371h185.25v624.75H39.137Zm0 0"/></clipPath><clipPath id="b"><path d="M615 58.605h165v45H615Zm0 0"/></clipPath><clipPath id="c"><path d="M598 375h183.7v5H598Zm0 0"/></clipPath><clipPath id="d"><path d="M238.7 375H423v5H238.7Zm0 0"/></clipPath><clipPath id="e"><path d="M434 346.188h152V391H434Zm0 0"/></clipPath><clipPath id="ao"><path d="M421.02 688.629h59.25V737h-59.25Zm0 0"/></clipPath><clipPath id="ap"><path d="M288.375 692.508h117V733h-117Zm0 0"/></clipPath><clipPath id="aq"><path d="M288.375 692.508h117v40.5h-117Zm0 0"/></clipPath></defs><path fill="#FFF" d="M-81-81h972v972H-81z"/><path fill="#FFF" d="M-81-81h972v972H-81z"/><path fill="#587144" d="M-81-81h972v972H-81z"/><g clip-path="url(#a)"><path fill="#DDCD8D" fill-rule="evenodd" d="M178.148 589.73c27.684 15.934 46.239 45.829 46.239 79.97 0 50.984-41.524 92.413-92.625 92.413-51.106 0-92.625-41.43-92.625-92.414 0-34.14 18.554-64.035 46.234-79.969V183.512c0-25.34 20.84-46.13 46.238-46.13 25.399 0 46.235 20.79 46.235 46.13v84.37h31.789v11.837h-31.79v74.656h31.79v11.836h-31.79v74.66h31.79v11.836h-31.79v74.656h31.79V539.2h-31.79v50.985Zm-28.441 17.149V416.137h-35.894v190.742c-27.528 7.738-47.606 32.926-47.606 62.82 0 36.114 29.356 65.403 65.555 65.403 36.199 0 65.55-29.29 65.55-65.403 0-29.894-20.074-55.082-47.605-62.82Zm11.711-7.59V183.512c0-16.239-13.383-29.59-29.656-29.59-16.274 0-29.66 13.351-29.66 29.59v415.777l-8.364 4.856c-23.422 13.507-38.023 38.543-38.023 65.707 0 41.878 34.066 75.718 75.894 75.718 41.977 0 75.895-33.988 75.895-75.718 0-27.164-14.45-52.047-38.024-65.707l-8.367-4.856Zm0 0"/></g><g clip-path="url(#b)"><path fill="#DDCD8D" d="M747.71 58.723c-.07 0-.21.039-.284.035-5.031-.14-14.156 1.37-23.2 3.875-9.5 2.633-18.648 6.949-28.968 10.262-4.664-2.211-9.403-4.32-14.149-6.028-8.265-2.976-16.25-4.914-22.523-4.914-1.559 0-3.078.098-4.559.285a34.528 34.528 0 0 0-4.312.828c-2.746.711-5.254 1.739-7.38 3.012-3.788 2.27-6.308 5.356-6.839 8.824-2.164.075-4.223.188-5.953.395-4.098.492-7.059 1.32-9.191 2.402-1.07.543-1.938 1.149-2.637 1.797-2.813 2.59-2.711 5.848-2.711 7.856 0 1.351.668 2.855 1.89 4.52 1.223 1.663 3.04 3.433 5.524 5.058a30.153 30.153 0 0 0 4.203 2.297c3.152 1.414 6.984 2.554 11.547 3.156 2.281.3 4.762.465 7.41.465 2.496 0 5.27-.266 8.164-.645 9.488-1.246 20.645-4.23 30.824-7.426 1.711-.539 2.957-1.004 4.598-1.543 1.395.641 2.82 1.227 4.203 1.868 6.61 3.039 13.035 6.003 19.031 8.535l.711-1.684c-5.953-2.516-12.382-5.496-18.992-8.539-.789-.363-1.597-.715-2.39-1.078 9.836-3.313 18.324-6.426 20.918-7.352.27-.097 1.375-.488 1.71-.609 5.422 2.46 11.11 4.852 16.786 6.852 4.672 1.644 9.172 3.03 13.148 4.05 3.98 1.024 7.445 1.684 10.016 1.797 5.125.223 11.53-1.336 16.675-4.164a24.462 24.462 0 0 0 3.567-2.367c1.086-.867 2.047-1.805 2.848-2.832 1.609-2.059 2.566-4.488 2.39-7.106-.34-5.007-3-8.421-6.808-10.437-2.485-1.316-5.532-1.957-8.73-2.367-.727-3.196-2.38-5.45-4.81-6.781-1.718-.942-3.812-1.454-6.132-1.793a26.117 26.117 0 0 0-5.239-.47c-.109.005-.246-.034-.355-.034Zm0 1.832h.036a49.66 49.66 0 0 1 5.383.535c1.48.305 2.965.71 4.277 1.363 2.227 1.117 3.98 2.73 4.844 5.168-1.078-.09-2.094-.3-3.207-.324-16.832 1.734-32.816 7-49.14 12.879-1.5-.75-3.255-1.48-4.598-2.223-1.117-.621-2.399-1.183-3.563-1.793.278-.12.899-.324 1.14-.433 4.15-1.82 12.93-5.579 21.915-8.895 8.965-3.312 18.219-6.168 22.914-6.277Zm-89.124 3.226c1.473 0 3.055.098 4.742.324 1.684.227 3.453.582 5.309 1.004 7.539 1.72 16.23 4.954 24.48 8.754-4.96 2.325-9.383 4.504-15.68 7.102-2.23.922-4.19 1.547-6.343 2.367-2.375-.953-4.754-1.922-7.09-2.762-6.582-2.367-12.961-4.21-18.887-5.129a49.982 49.982 0 0 0-7.77-.574c.383-1.875 1.454-3.719 3.317-5.344.762-.668 1.656-1.28 2.637-1.867 1.953-1.172 4.281-2.16 6.875-2.832 2.594-.676 5.449-1.043 8.41-1.043Zm98.176 7.93c.336-.016.664-.008.965 0 1.718.035 3.367.133 5.023.215-.031.43.004.863-.07 1.293-.344 1.976-1.149 3.91-2.282 5.668-.566.879-1.242 1.699-1.96 2.472-1.434 1.547-3.114 2.852-4.918 3.766-.903.46-1.84.82-2.778 1.078-.941.258-1.883.406-2.816.43-1.946.05-3.621-.184-5.024-.574-1.351-.375-2.449-.907-3.316-1.504 1.644-.305 2.922-1.739 2.922-3.48 0-1.966-1.613-3.552-3.563-3.552-.18 0-.328.008-.5.036a4.634 4.634 0 0 0-1.03.035c-1.017.3-1.977 1.355-2.102 3.011-.075.926.18 1.875.71 2.801.532.922 1.356 1.817 2.422 2.582 1.07.766 2.403 1.422 3.992 1.864 1.59.445 3.415.668 5.524.613 1.09-.031 2.176-.18 3.242-.469a16.543 16.543 0 0 0 3.137-1.219 18.998 18.998 0 0 0 2.887-1.828c.914-.699 1.777-1.484 2.566-2.332a19.962 19.962 0 0 0 2.137-2.726 18.526 18.526 0 0 0 1.605-3.086c.43-1.067.735-2.176.926-3.301.086-.496.039-1.004.07-1.508 2.617.188 5.102.496 7.13 1.149 1.855.597 3.347 1.46 4.417 2.656 1.07 1.195 1.738 2.754 1.887 4.949.074 1.055-.086 2.043-.426 3.016-.34.968-.867 1.898-1.566 2.796-.7.895-1.575 1.754-2.567 2.547a23.547 23.547 0 0 1-3.316 2.188c-2.41 1.324-5.172 2.375-7.91 3.05-2.739.673-5.461.962-7.805.86-2.332-.102-5.668-.719-9.586-1.723s-8.41-2.386-13.043-4.015a209.708 209.708 0 0 1-15-5.957c4.234-1.567 9.762-3.668 17.211-6.133 8.648-2.86 17.766-5.442 22.805-5.668Zm-119.555 4.984c7.613-.039 16.602 2.211 26.156 5.633 1.696.61 3.446 1.336 5.168 2.008-1.617.594-3.453 1.352-4.918 1.832-1.687.55-3.16.973-4.562 1.328-1.7.3-3.969.86-4.953.86-4.055 0-8.403-1.454-11.653-3.731-3.066-2.145-5.011-4.988-5.238-7.93Zm-1.855.04a10.204 10.204 0 0 0 1.64 4.949c1.09 1.683 2.633 3.199 4.418 4.449 1.785 1.25 3.86 2.273 6.024 2.976 2.164.7 4.421 1.075 6.664 1.075 2.324 0 5.91-.688 10.226-1.758 2.567-.637 5.602-1.582 8.516-2.438.156.063.308.114.465.18 3.375 1.398 6.73 3.004 10.12 4.52-2.327 1.035-3.218 1.5-5.808 2.546-10.113 4.086-21.8 7.786-32.039 7.786-2.574 0-4.96-.176-7.16-.47a43.33 43.33 0 0 1-6.059-1.218c-3.675-1.027-6.629-2.43-8.945-3.945-1.156-.758-2.152-1.516-2.992-2.297a16.491 16.491 0 0 1-2.067-2.293c-1.074-1.461-1.535-2.758-1.535-3.445 0-1.036-.035-2.16.215-3.266.25-1.102.797-2.188 1.926-3.227.562-.523 1.3-1.035 2.246-1.507 1.887-.95 4.61-1.747 8.55-2.223 1.602-.195 3.571-.32 5.595-.395Zm64.074.32c1.652.847 3.43 1.648 4.988 2.511.867.48 2.027.954 2.957 1.434-7.238 2.96-13.96 5.758-21.664 8.684-3.371-1.52-6.71-3.063-10.086-4.485 1.055-.32 1.969-.527 3.027-.863 8.282-2.598 15.77-5.3 20.778-7.281Zm0 0"/></g><g clip-path="url(#c)"><path fill="#DDCD8D" d="M599.566 375.941c-1.726.118-1.867 2.977-.222 3.344 1.676.422 3.426.164 5.133.219 56.98-.004 113.96-.004 170.945 0 1.629-.04 3.285.16 4.89-.16.817-.156 1.387-.965 1.38-1.774-.024-1.175-1.157-1.828-2.239-1.718-57.879.007-115.758 0-173.637.003-2.078.055-4.175-.152-6.25.086Zm0 0"/></g><g clip-path="url(#d)"><path fill="#DDCD8D" d="M420.828 375.941c1.73.118 1.871 2.977.223 3.344-1.676.422-3.422.164-5.13.219-56.983-.004-113.964-.004-170.948 0-1.63-.04-3.286.16-4.891-.16-.816-.156-1.387-.965-1.375-1.774.02-1.175 1.156-1.828 2.234-1.718 57.88.007 115.758 0 173.641.003 2.078.055 4.172-.152 6.246.086Zm0 0"/></g><path fill="#DDCD8D" d="M587.668 377.516c-.156 2.582 2.746 4.832 5.187 3.812 1.942-.601 3.043-2.785 2.504-4.723-.394-1.488-1.746-2.734-3.312-2.816-2.203-.387-4.395 1.496-4.379 3.727Zm5.883-.508c.59 1.36-.953 3.008-2.364 2.668-.949-.211-1.71-1.14-1.68-2.125.095-1.008.962-1.84 1.923-2.035.918.007 1.82.613 2.12 1.492ZM432.719 377.516c.156 2.582-2.746 4.832-5.188 3.812-1.941-.601-3.043-2.785-2.504-4.723.395-1.488 1.746-2.734 3.313-2.816 2.203-.387 4.394 1.496 4.379 3.727Zm-5.883-.508c-.59 1.36.953 3.008 2.363 2.668.953-.211 1.711-1.14 1.684-2.125-.098-1.008-.965-1.84-1.926-2.035-.918.007-1.82.613-2.121 1.492Zm0 0"/><g clip-path="url(#e)"><path fill="#DDCD8D" d="M510.188 385.16c.93-.055 1.851-.133 2.773-.242 10.277-1.047 20.031-5.09 28.805-10.418 4.355-2.602 8.238-5.914 12.582-8.535 4.312-2.637 9.148-4.688 14.257-4.844 5.524.102 10.88 3.406 13.407 8.332 1.922 3.707 2.105 8.145 1.02 12.137-.637 2.48-1.774 4.922-3.692 6.672-1.805 1.644-4.29 2.425-6.715 2.336-3.277.093-6.832-1.211-8.629-4.09-2.07-3.203-1.226-8.125 2.16-10.078 2.38-1.414 5.38-1.012 7.77.144 1.164.543 1.441 1.922 2.304 2.778.266-.88.61-1.813.336-2.73-.39-1.45-1.543-2.575-2.843-3.259-2.008-1.101-4.43-1.238-6.63-.726-3.116.758-5.613 3.465-6.202 6.605-.403 2.32-.13 4.82 1.125 6.852 1.672 2.91 4.988 4.554 8.25 4.836 2.37.054 4.82.215 7.086-.633 3.445-1.14 6.156-4.04 7.336-7.442 1.335-3.882 1.398-8.214.078-12.113-1.653-4.933-5.77-8.847-10.653-10.55-2.562-1.016-5.386-.938-8.086-.715-6.5 1-12.222 4.562-17.398 8.437-3.25 2.488-6.57 4.899-10.113 6.969-8.614 5.05-18.309 8.719-28.325 9.281-10.02-.562-19.714-4.23-28.324-9.281-3.543-2.07-6.867-4.48-10.117-6.969-5.176-3.875-10.898-7.437-17.395-8.437-2.703-.223-5.527-.301-8.09.714-4.878 1.704-9 5.618-10.652 10.551-1.316 3.899-1.258 8.23.082 12.113 1.18 3.403 3.887 6.301 7.332 7.442 2.266.848 4.715.687 7.086.633 3.262-.282 6.578-1.926 8.254-4.836 1.254-2.031 1.524-4.531 1.121-6.852-.59-3.14-3.086-5.847-6.199-6.605-2.203-.512-4.625-.375-6.633.726-1.3.684-2.453 1.809-2.844 3.258-.273.918.07 1.852.34 2.73.86-.855 1.137-2.234 2.301-2.777 2.395-1.156 5.39-1.558 7.77-.144 3.39 1.953 4.23 6.875 2.164 10.078-1.797 2.879-5.356 4.183-8.633 4.09-2.422.09-4.906-.692-6.715-2.336-1.918-1.754-3.055-4.192-3.691-6.672-1.086-3.992-.903-8.43 1.02-12.137 2.527-4.926 7.882-8.23 13.41-8.332 5.105.156 9.945 2.207 14.253 4.844 4.344 2.62 8.227 5.933 12.582 8.535 8.774 5.328 18.528 9.371 28.805 10.418.922.11 1.848.187 2.773.242Zm0-3.476c5.054-.16 10.183-1.922 13.777-5.563 3.086-3.215 5.195-7.27 8.578-10.21 1.715-1.614 3.758-2.782 5.691-4.09-2.066-.192-4.09-.735-6.172-.848-3.152-.036-6.421.09-9.332 1.449-4.316 1.941-7.39 5.82-11.71 7.75-.274.113-.551.219-.832.316a16.518 16.518 0 0 1-.833-.316c-4.316-1.93-7.394-5.809-11.707-7.75-2.91-1.36-6.183-1.485-9.336-1.45-2.078.114-4.101.657-6.171.848 1.933 1.309 3.98 2.477 5.691 4.09 3.383 2.942 5.496 6.996 8.578 10.211 3.594 3.64 8.727 5.402 13.777 5.563Zm0-8.934c1.28-.41 2.507-.973 3.625-1.734 3.851-2.461 6.582-6.477 10.894-8.239 3.856-1.425 8.11-1.683 12.086-.617-2.813 1.793-5.555 3.75-7.848 6.195-3.125 3.348-5.945 7.297-10.297 9.153a25.188 25.188 0 0 1-8.46 2.004c-2.91-.18-5.786-.844-8.458-2.004-4.355-1.856-7.171-5.805-10.3-9.153-2.293-2.445-5.035-4.402-7.848-6.195 3.98-1.066 8.234-.808 12.086.617 4.312 1.762 7.043 5.778 10.894 8.239 1.118.761 2.344 1.324 3.625 1.734Zm0-3.602c2.472-1.734 4.398-4.257 5.445-7.097 1.547-4.172 1.36-9.305-1.543-12.856-1.04-1.308-2.395-2.308-3.903-2.98-1.507.672-2.859 1.672-3.902 2.98-2.902 3.551-3.086 8.684-1.543 12.856 1.047 2.84 2.973 5.363 5.445 7.097Zm0-22.09c1.789.907 3.312 2.32 4.238 4.126 1.293 2.277 1.422 4.988 1.148 7.539-.515 3.609-2.511 6.98-5.386 9.203-2.872-2.223-4.872-5.594-5.383-9.203-.278-2.551-.145-5.262 1.144-7.54.926-1.804 2.45-3.218 4.238-4.124Zm0 0"/></g><path fill="#DDCD8D" d="M554.434 383.691c-.668-1.617-2.246-2.578-3.672-3.453-4.614-2.64-10.293-2.55-15.254-1.02-2.656.856-5.34 1.872-7.57 3.602 6.62-.172 12.57 3.118 18.917 4.434 1.942.36 4.016.305 5.86-.453 1.18-.469 2.226-1.805 1.719-3.11Zm-7.125 1.61c-5.66-1.02-11.141-3.344-16.977-3.176 3.652-1.387 7.55-2.3 11.473-2.258 3.957.156 8.203 1.418 10.773 4.602-1.562.969-3.48 1.11-5.27.832ZM465.965 383.691c.668-1.617 2.246-2.578 3.672-3.453 4.61-2.64 10.293-2.55 15.254-1.02 2.656.856 5.34 1.872 7.566 3.602-6.617-.172-12.566 3.118-18.914 4.434-1.941.36-4.02.305-5.86-.453-1.183-.469-2.226-1.805-1.718-3.11Zm7.125 1.61c5.66-1.02 11.14-3.344 16.976-3.176-3.656-1.387-7.554-2.3-11.472-2.258-3.957.156-8.203 1.418-10.774 4.602 1.563.969 3.48 1.11 5.27.832Zm0 0"/><use xlink:href="#f" x="39.136" y="108.375" fill="#DDCD8D"/><use xlink:href="#g" x="90.053" y="108.375" fill="#DDCD8D"/><use xlink:href="#h" x="128.127" y="108.375" fill="#DDCD8D"/><use xlink:href="#i" x="171.521" y="108.375" fill="#DDCD8D"/><use xlink:href="#j" x="216.967" y="108.375" fill="#DDCD8D"/><use xlink:href="#i" x="238.17" y="108.375" fill="#DDCD8D"/><use xlink:href="#k" x="283.615" y="108.375" fill="#DDCD8D"/><use xlink:href="#l" x="304.058" y="108.375" fill="#DDCD8D"/><use xlink:href="#m" x="359.003" y="108.375" fill="#DDCD8D"/><use xlink:href="#j" x="405.513" y="108.375" fill="#DDCD8D"/><use xlink:href="#g" x="426.716" y="108.375" fill="#DDCD8D"/><use xlink:href="#n" x="464.79" y="108.375" fill="#DDCD8D"/><use xlink:href="#o" x="485.993" y="108.375" fill="#DDCD8D"/><use xlink:href="#g" x="537.442" y="108.375" fill="#DDCD8D"/><use xlink:href="#p" x="238.699" y="180.667" fill="#DDCD8D"/><use xlink:href="#q" x="253.422" y="180.667" fill="#DDCD8D"/><use xlink:href="#r" x="269.094" y="180.667" fill="#DDCD8D"/><use xlink:href="#s" x="281.317" y="180.667" fill="#DDCD8D"/><use xlink:href="#t" x="287.866" y="180.667" fill="#DDCD8D"/><use xlink:href="#u" x="302.964" y="180.667" fill="#DDCD8D"/><use xlink:href="#v" x="316.312" y="180.667" fill="#DDCD8D"/><use xlink:href="#t" x="333.259" y="180.667" fill="#DDCD8D"/><use xlink:href="#w" x="348.357" y="180.667" fill="#DDCD8D"/><use xlink:href="#x" x="358.38" y="180.667" fill="#DDCD8D"/><use xlink:href="#q" x="368.528" y="180.667" fill="#DDCD8D"/><use xlink:href="#r" x="384.201" y="180.667" fill="#DDCD8D"/><use xlink:href="#s" x="396.424" y="180.667" fill="#DDCD8D"/><use xlink:href="#w" x="402.973" y="180.667" fill="#DDCD8D"/><use xlink:href="#t" x="412.996" y="180.667" fill="#DDCD8D"/><use xlink:href="#y" x="428.094" y="180.667" fill="#DDCD8D"/><use xlink:href="#q" x="442.167" y="180.667" fill="#DDCD8D"/><use xlink:href="#z" x="457.839" y="180.667" fill="#DDCD8D"/><use xlink:href="#A" x="484.36" y="180.667" fill="#DDCD8D"/><use xlink:href="#t" x="491.084" y="180.667" fill="#DDCD8D"/><use xlink:href="#B" x="506.182" y="180.667" fill="#DDCD8D"/><use xlink:href="#C" x="523.104" y="180.667" fill="#DDCD8D"/><use xlink:href="#D" x="540.051" y="180.667" fill="#DDCD8D"/><use xlink:href="#B" x="554.799" y="180.667" fill="#DDCD8D"/><use xlink:href="#s" x="571.721" y="180.667" fill="#DDCD8D"/><use xlink:href="#C" x="578.27" y="180.667" fill="#DDCD8D"/><use xlink:href="#t" x="595.218" y="180.667" fill="#DDCD8D"/><use xlink:href="#B" x="610.315" y="180.667" fill="#DDCD8D"/><use xlink:href="#q" x="627.237" y="180.667" fill="#DDCD8D"/><use xlink:href="#z" x="642.91" y="180.667" fill="#DDCD8D"/><use xlink:href="#A" x="669.431" y="180.667" fill="#DDCD8D"/><use xlink:href="#B" x="676.155" y="180.667" fill="#DDCD8D"/><use xlink:href="#D" x="693.077" y="180.667" fill="#DDCD8D"/><use xlink:href="#w" x="707.825" y="180.667" fill="#DDCD8D"/><use xlink:href="#t" x="238.699" y="215.167" fill="#DDCD8D"/><use xlink:href="#r" x="253.797" y="215.167" fill="#DDCD8D"/><use xlink:href="#y" x="266.02" y="215.167" fill="#DDCD8D"/><use xlink:href="#D" x="280.092" y="215.167" fill="#DDCD8D"/><use xlink:href="#E" x="294.84" y="215.167" fill="#DDCD8D"/><use xlink:href="#D" x="301.564" y="215.167" fill="#DDCD8D"/><use xlink:href="#s" x="316.312" y="215.167" fill="#DDCD8D"/><use xlink:href="#F" x="322.861" y="215.167" fill="#DDCD8D"/><use xlink:href="#t" x="340.833" y="215.167" fill="#DDCD8D"/><use xlink:href="#E" x="355.93" y="215.167" fill="#DDCD8D"/><use xlink:href="#r" x="362.654" y="215.167" fill="#DDCD8D"/><use xlink:href="#A" x="374.877" y="215.167" fill="#DDCD8D"/><use xlink:href="#G" x="381.601" y="215.167" fill="#DDCD8D"/><use xlink:href="#r" x="398.424" y="215.167" fill="#DDCD8D"/><use xlink:href="#s" x="410.647" y="215.167" fill="#DDCD8D"/><use xlink:href="#D" x="417.196" y="215.167" fill="#DDCD8D"/><use xlink:href="#s" x="431.943" y="215.167" fill="#DDCD8D"/><use xlink:href="#E" x="438.492" y="215.167" fill="#DDCD8D"/><use xlink:href="#D" x="445.216" y="215.167" fill="#DDCD8D"/><use xlink:href="#s" x="459.964" y="215.167" fill="#DDCD8D"/><use xlink:href="#t" x="466.513" y="215.167" fill="#DDCD8D"/><use xlink:href="#r" x="481.61" y="215.167" fill="#DDCD8D"/><use xlink:href="#y" x="493.834" y="215.167" fill="#DDCD8D"/><use xlink:href="#D" x="507.906" y="215.167" fill="#DDCD8D"/><use xlink:href="#E" x="522.654" y="215.167" fill="#DDCD8D"/><use xlink:href="#D" x="529.378" y="215.167" fill="#DDCD8D"/><use xlink:href="#s" x="544.125" y="215.167" fill="#DDCD8D"/><use xlink:href="#s" x="550.674" y="215.167" fill="#DDCD8D"/><use xlink:href="#C" x="557.215" y="215.167" fill="#DDCD8D"/><use xlink:href="#t" x="574.162" y="215.167" fill="#DDCD8D"/><use xlink:href="#s" x="589.259" y="215.167" fill="#DDCD8D"/><use xlink:href="#x" x="595.808" y="215.167" fill="#DDCD8D"/><use xlink:href="#t" x="605.957" y="215.167" fill="#DDCD8D"/><use xlink:href="#z" x="621.054" y="215.167" fill="#DDCD8D"/><use xlink:href="#v" x="647.575" y="215.167" fill="#DDCD8D"/><use xlink:href="#t" x="664.523" y="215.167" fill="#DDCD8D"/><use xlink:href="#w" x="679.62" y="215.167" fill="#DDCD8D"/><use xlink:href="#D" x="689.644" y="215.167" fill="#DDCD8D"/><use xlink:href="#x" x="704.391" y="215.167" fill="#DDCD8D"/><use xlink:href="#G" x="714.54" y="215.167" fill="#DDCD8D"/><use xlink:href="#w" x="731.362" y="215.167" fill="#DDCD8D"/><use xlink:href="#D" x="741.385" y="215.167" fill="#DDCD8D"/><use xlink:href="#r" x="756.133" y="215.167" fill="#DDCD8D"/><use xlink:href="#z" x="238.699" y="249.667" fill="#DDCD8D"/><use xlink:href="#H" x="265.22" y="249.667" fill="#DDCD8D"/><use xlink:href="#r" x="279.967" y="249.667" fill="#DDCD8D"/><use xlink:href="#s" x="292.19" y="249.667" fill="#DDCD8D"/><use xlink:href="#G" x="298.739" y="249.667" fill="#DDCD8D"/><use xlink:href="#r" x="315.562" y="249.667" fill="#DDCD8D"/><use xlink:href="#D" x="327.785" y="249.667" fill="#DDCD8D"/><use xlink:href="#C" x="342.533" y="249.667" fill="#DDCD8D"/><use xlink:href="#D" x="359.48" y="249.667" fill="#DDCD8D"/><use xlink:href="#s" x="374.228" y="249.667" fill="#DDCD8D"/><use xlink:href="#t" x="380.776" y="249.667" fill="#DDCD8D"/><use xlink:href="#B" x="395.874" y="249.667" fill="#DDCD8D"/><use xlink:href="#s" x="412.796" y="249.667" fill="#DDCD8D"/><use xlink:href="#I" x="419.345" y="249.667" fill="#DDCD8D"/><use xlink:href="#r" x="436.068" y="249.667" fill="#DDCD8D"/><use xlink:href="#v" x="448.291" y="249.667" fill="#DDCD8D"/><use xlink:href="#D" x="465.238" y="249.667" fill="#DDCD8D"/><use xlink:href="#J" x="479.986" y="249.667" fill="#DDCD8D"/><use xlink:href="#D" x="496.908" y="249.667" fill="#DDCD8D"/><use xlink:href="#K" x="511.656" y="249.667" fill="#DDCD8D"/><use xlink:href="#s" x="516.955" y="249.667" fill="#DDCD8D"/><use xlink:href="#L" x="523.504" y="249.667" fill="#DDCD8D"/><use xlink:href="#t" x="538.876" y="249.667" fill="#DDCD8D"/><use xlink:href="#s" x="553.974" y="249.667" fill="#DDCD8D"/><use xlink:href="#x" x="560.523" y="249.667" fill="#DDCD8D"/><use xlink:href="#w" x="570.671" y="249.667" fill="#DDCD8D"/><use xlink:href="#D" x="580.695" y="249.667" fill="#DDCD8D"/><use xlink:href="#x" x="595.443" y="249.667" fill="#DDCD8D"/><use xlink:href="#D" x="605.591" y="249.667" fill="#DDCD8D"/><use xlink:href="#s" x="620.339" y="249.667" fill="#DDCD8D"/><use xlink:href="#C" x="626.888" y="249.667" fill="#DDCD8D"/><use xlink:href="#t" x="643.835" y="249.667" fill="#DDCD8D"/><use xlink:href="#s" x="658.932" y="249.667" fill="#DDCD8D"/><use xlink:href="#G" x="665.481" y="249.667" fill="#DDCD8D"/><use xlink:href="#B" x="682.304" y="249.667" fill="#DDCD8D"/><use xlink:href="#D" x="699.226" y="249.667" fill="#DDCD8D"/><use xlink:href="#r" x="238.699" y="284.167" fill="#DDCD8D"/><use xlink:href="#A" x="250.922" y="284.167" fill="#DDCD8D"/><use xlink:href="#z" x="257.646" y="284.167" fill="#DDCD8D"/><use xlink:href="#v" x="284.167" y="284.167" fill="#DDCD8D"/><use xlink:href="#E" x="301.114" y="284.167" fill="#DDCD8D"/><use xlink:href="#t" x="307.838" y="284.167" fill="#DDCD8D"/><use xlink:href="#s" x="322.936" y="284.167" fill="#DDCD8D"/><use xlink:href="#w" x="329.485" y="284.167" fill="#DDCD8D"/><use xlink:href="#t" x="339.508" y="284.167" fill="#DDCD8D"/><use xlink:href="#y" x="354.606" y="284.167" fill="#DDCD8D"/><use xlink:href="#q" x="368.678" y="284.167" fill="#DDCD8D"/><use xlink:href="#z" x="384.351" y="284.167" fill="#DDCD8D"/><use xlink:href="#t" x="410.872" y="284.167" fill="#DDCD8D"/><use xlink:href="#B" x="425.969" y="284.167" fill="#DDCD8D"/><use xlink:href="#C" x="442.892" y="284.167" fill="#DDCD8D"/><use xlink:href="#D" x="459.839" y="284.167" fill="#DDCD8D"/><use xlink:href="#y" x="474.587" y="284.167" fill="#DDCD8D"/><use xlink:href="#A" x="488.659" y="284.167" fill="#DDCD8D"/><use xlink:href="#M" x="495.383" y="284.167" fill="#DDCD8D"/><use xlink:href="#B" x="511.056" y="284.167" fill="#DDCD8D"/><use xlink:href="#N" x="527.978" y="284.167" fill="#DDCD8D"/><use xlink:href="#s" x="533.277" y="284.167" fill="#DDCD8D"/><use xlink:href="#O" x="539.826" y="284.167" fill="#DDCD8D"/><use xlink:href="#s" x="553.374" y="284.167" fill="#DDCD8D"/><use xlink:href="#x" x="559.923" y="284.167" fill="#DDCD8D"/><use xlink:href="#D" x="570.072" y="284.167" fill="#DDCD8D"/><use xlink:href="#z" x="584.819" y="284.167" fill="#DDCD8D"/><use xlink:href="#P" x="611.34" y="284.167" fill="#DDCD8D"/><use xlink:href="#A" x="628.287" y="284.167" fill="#DDCD8D"/><use xlink:href="#Q" x="635.011" y="284.167" fill="#DDCD8D"/><use xlink:href="#B" x="650.109" y="284.167" fill="#DDCD8D"/><use xlink:href="#s" x="667.031" y="284.167" fill="#DDCD8D"/><use xlink:href="#t" x="673.58" y="284.167" fill="#DDCD8D"/><use xlink:href="#r" x="688.678" y="284.167" fill="#DDCD8D"/><use xlink:href="#x" x="700.901" y="284.167" fill="#DDCD8D"/><use xlink:href="#H" x="711.049" y="284.167" fill="#DDCD8D"/><use xlink:href="#D" x="238.699" y="318.667" fill="#DDCD8D"/><use xlink:href="#y" x="253.447" y="318.667" fill="#DDCD8D"/><use xlink:href="#t" x="267.519" y="318.667" fill="#DDCD8D"/><use xlink:href="#v" x="282.617" y="318.667" fill="#DDCD8D"/><use xlink:href="#x" x="299.564" y="318.667" fill="#DDCD8D"/><use xlink:href="#D" x="309.713" y="318.667" fill="#DDCD8D"/><use xlink:href="#C" x="324.46" y="318.667" fill="#DDCD8D"/><use xlink:href="#q" x="341.408" y="318.667" fill="#DDCD8D"/><use xlink:href="#s" x="357.08" y="318.667" fill="#DDCD8D"/><use xlink:href="#E" x="363.629" y="318.667" fill="#DDCD8D"/><use xlink:href="#E" x="370.353" y="318.667" fill="#DDCD8D"/><use xlink:href="#D" x="377.077" y="318.667" fill="#DDCD8D"/><use xlink:href="#z" x="391.825" y="318.667" fill="#DDCD8D"/><use xlink:href="#D" x="418.346" y="318.667" fill="#DDCD8D"/><use xlink:href="#w" x="433.093" y="318.667" fill="#DDCD8D"/><use xlink:href="#E" x="443.117" y="318.667" fill="#DDCD8D"/><use xlink:href="#D" x="449.841" y="318.667" fill="#DDCD8D"/><use xlink:href="#s" x="464.588" y="318.667" fill="#DDCD8D"/><use xlink:href="#R" x="471.137" y="318.667" fill="#DDCD8D"/><use xlink:href="#t" x="483.06" y="318.667" fill="#DDCD8D"/><use xlink:href="#r" x="498.158" y="318.667" fill="#DDCD8D"/><use xlink:href="#y" x="510.381" y="318.667" fill="#DDCD8D"/><use xlink:href="#D" x="524.454" y="318.667" fill="#DDCD8D"/><use xlink:href="#E" x="539.201" y="318.667" fill="#DDCD8D"/><use xlink:href="#D" x="545.925" y="318.667" fill="#DDCD8D"/><use xlink:href="#s" x="560.673" y="318.667" fill="#DDCD8D"/><use xlink:href="#y" x="567.222" y="318.667" fill="#DDCD8D"/><use xlink:href="#t" x="581.295" y="318.667" fill="#DDCD8D"/><use xlink:href="#B" x="596.392" y="318.667" fill="#DDCD8D"/><use xlink:href="#x" x="613.315" y="318.667" fill="#DDCD8D"/><use xlink:href="#S" x="623.463" y="318.667" fill="#DDCD8D"/><use xlink:href="#T" x="630.187" y="318.667" fill="#DDCD8D"/><use xlink:href="#w" x="647.334" y="318.667" fill="#DDCD8D"/><use xlink:href="#D" x="657.358" y="318.667" fill="#DDCD8D"/><use xlink:href="#C" x="672.105" y="318.667" fill="#DDCD8D"/><use xlink:href="#D" x="689.053" y="318.667" fill="#DDCD8D"/><use xlink:href="#U" x="703.8" y="318.667" fill="#DDCD8D"/><use xlink:href="#K" x="715.723" y="318.667" fill="#DDCD8D"/><use xlink:href="#s" x="721.019" y="318.667" fill="#DDCD8D"/><use xlink:href="#p" x="238.699" y="436.646" fill="#DDCD8D"/><use xlink:href="#D" x="253.422" y="436.646" fill="#DDCD8D"/><use xlink:href="#s" x="268.169" y="436.646" fill="#DDCD8D"/><use xlink:href="#y" x="274.718" y="436.646" fill="#DDCD8D"/><use xlink:href="#q" x="288.791" y="436.646" fill="#DDCD8D"/><use xlink:href="#B" x="304.464" y="436.646" fill="#DDCD8D"/><use xlink:href="#V" x="321.386" y="436.646" fill="#DDCD8D"/><use xlink:href="#G" x="329.86" y="436.646" fill="#DDCD8D"/><use xlink:href="#r" x="346.682" y="436.646" fill="#DDCD8D"/><use xlink:href="#A" x="358.905" y="436.646" fill="#DDCD8D"/><use xlink:href="#M" x="365.629" y="436.646" fill="#DDCD8D"/><use xlink:href="#B" x="381.301" y="436.646" fill="#DDCD8D"/><use xlink:href="#s" x="398.224" y="436.646" fill="#DDCD8D"/><use xlink:href="#W" x="404.773" y="436.646" fill="#DDCD8D"/><use xlink:href="#G" x="421.72" y="436.646" fill="#DDCD8D"/><use xlink:href="#t" x="438.542" y="436.646" fill="#DDCD8D"/><use xlink:href="#s" x="453.64" y="436.646" fill="#DDCD8D"/><use xlink:href="#T" x="460.189" y="436.646" fill="#DDCD8D"/><use xlink:href="#t" x="477.336" y="436.646" fill="#DDCD8D"/><use xlink:href="#B" x="492.434" y="436.646" fill="#DDCD8D"/><use xlink:href="#t" x="509.356" y="436.646" fill="#DDCD8D"/><use xlink:href="#w" x="524.454" y="436.646" fill="#DDCD8D"/><use xlink:href="#D" x="534.477" y="436.646" fill="#DDCD8D"/><use xlink:href="#s" x="549.225" y="436.646" fill="#DDCD8D"/><use xlink:href="#D" x="555.774" y="436.646" fill="#DDCD8D"/><use xlink:href="#E" x="570.521" y="436.646" fill="#DDCD8D"/><use xlink:href="#s" x="577.245" y="436.646" fill="#DDCD8D"/><use xlink:href="#X" x="583.794" y="436.646" fill="#DDCD8D"/><use xlink:href="#D" x="600.717" y="436.646" fill="#DDCD8D"/><use xlink:href="#P" x="615.464" y="436.646" fill="#DDCD8D"/><use xlink:href="#E" x="632.412" y="436.646" fill="#DDCD8D"/><use xlink:href="#D" x="639.136" y="436.646" fill="#DDCD8D"/><use xlink:href="#w" x="653.883" y="436.646" fill="#DDCD8D"/><use xlink:href="#s" x="663.907" y="436.646" fill="#DDCD8D"/><use xlink:href="#C" x="670.456" y="436.646" fill="#DDCD8D"/><use xlink:href="#t" x="687.403" y="436.646" fill="#DDCD8D"/><use xlink:href="#R" x="238.699" y="471.146" fill="#DDCD8D"/><use xlink:href="#T" x="250.622" y="471.146" fill="#DDCD8D"/><use xlink:href="#w" x="267.769" y="471.146" fill="#DDCD8D"/><use xlink:href="#D" x="277.793" y="471.146" fill="#DDCD8D"/><use xlink:href="#C" x="292.54" y="471.146" fill="#DDCD8D"/><use xlink:href="#q" x="309.488" y="471.146" fill="#DDCD8D"/><use xlink:href="#r" x="325.16" y="471.146" fill="#DDCD8D"/><use xlink:href="#s" x="337.383" y="471.146" fill="#DDCD8D"/><use xlink:href="#y" x="343.932" y="471.146" fill="#DDCD8D"/><use xlink:href="#t" x="358.005" y="471.146" fill="#DDCD8D"/><use xlink:href="#B" x="373.103" y="471.146" fill="#DDCD8D"/><use xlink:href="#x" x="390.025" y="471.146" fill="#DDCD8D"/><use xlink:href="#S" x="400.173" y="471.146" fill="#DDCD8D"/><use xlink:href="#T" x="406.897" y="471.146" fill="#DDCD8D"/><use xlink:href="#w" x="424.045" y="471.146" fill="#DDCD8D"/><use xlink:href="#D" x="434.068" y="471.146" fill="#DDCD8D"/><use xlink:href="#C" x="448.816" y="471.146" fill="#DDCD8D"/><use xlink:href="#q" x="465.763" y="471.146" fill="#DDCD8D"/><use xlink:href="#r" x="481.436" y="471.146" fill="#DDCD8D"/><use xlink:href="#U" x="493.659" y="471.146" fill="#DDCD8D"/><use xlink:href="#s" x="505.582" y="471.146" fill="#DDCD8D"/><use xlink:href="#v" x="512.131" y="471.146" fill="#DDCD8D"/><use xlink:href="#G" x="529.078" y="471.146" fill="#DDCD8D"/><use xlink:href="#t" x="545.9" y="471.146" fill="#DDCD8D"/><use xlink:href="#C" x="560.998" y="471.146" fill="#DDCD8D"/><use xlink:href="#t" x="577.945" y="471.146" fill="#DDCD8D"/><use xlink:href="#s" x="593.043" y="471.146" fill="#DDCD8D"/><use xlink:href="#t" x="599.592" y="471.146" fill="#DDCD8D"/><use xlink:href="#r" x="614.689" y="471.146" fill="#DDCD8D"/><use xlink:href="#x" x="626.912" y="471.146" fill="#DDCD8D"/><use xlink:href="#D" x="637.061" y="471.146" fill="#DDCD8D"/><use xlink:href="#w" x="651.809" y="471.146" fill="#DDCD8D"/><use xlink:href="#w" x="238.699" y="505.646" fill="#DDCD8D"/><use xlink:href="#t" x="248.722" y="505.646" fill="#DDCD8D"/><use xlink:href="#E" x="263.82" y="505.646" fill="#DDCD8D"/><use xlink:href="#D" x="270.544" y="505.646" fill="#DDCD8D"/><use xlink:href="#y" x="285.292" y="505.646" fill="#DDCD8D"/><use xlink:href="#A" x="299.364" y="505.646" fill="#DDCD8D"/><use xlink:href="#q" x="306.088" y="505.646" fill="#DDCD8D"/><use xlink:href="#B" x="321.761" y="505.646" fill="#DDCD8D"/><use xlink:href="#D" x="338.683" y="505.646" fill="#DDCD8D"/><use xlink:href="#C" x="353.431" y="505.646" fill="#DDCD8D"/><use xlink:href="#D" x="370.378" y="505.646" fill="#DDCD8D"/><use xlink:href="#s" x="385.126" y="505.646" fill="#DDCD8D"/><use xlink:href="#y" x="391.675" y="505.646" fill="#DDCD8D"/><use xlink:href="#q" x="405.748" y="505.646" fill="#DDCD8D"/><use xlink:href="#B" x="421.42" y="505.646" fill="#DDCD8D"/><use xlink:href="#s" x="438.342" y="505.646" fill="#DDCD8D"/><use xlink:href="#W" x="444.891" y="505.646" fill="#DDCD8D"/><use xlink:href="#G" x="461.839" y="505.646" fill="#DDCD8D"/><use xlink:href="#t" x="478.661" y="505.646" fill="#DDCD8D"/><use xlink:href="#s" x="493.759" y="505.646" fill="#DDCD8D"/><use xlink:href="#t" x="500.308" y="505.646" fill="#DDCD8D"/><use xlink:href="#E" x="515.405" y="505.646" fill="#DDCD8D"/><use xlink:href="#s" x="522.129" y="505.646" fill="#DDCD8D"/><use xlink:href="#v" x="528.678" y="505.646" fill="#DDCD8D"/><use xlink:href="#w" x="545.625" y="505.646" fill="#DDCD8D"/><use xlink:href="#t" x="555.649" y="505.646" fill="#DDCD8D"/><use xlink:href="#V" x="570.746" y="505.646" fill="#DDCD8D"/><use xlink:href="#A" x="579.22" y="505.646" fill="#DDCD8D"/><use xlink:href="#Y" x="585.944" y="505.646" fill="#DDCD8D"/><use xlink:href="#q" x="592.793" y="505.646" fill="#DDCD8D"/><use xlink:href="#s" x="608.465" y="505.646" fill="#DDCD8D"/><use xlink:href="#R" x="615.014" y="505.646" fill="#DDCD8D"/><use xlink:href="#y" x="626.937" y="505.646" fill="#DDCD8D"/><use xlink:href="#t" x="641.01" y="505.646" fill="#DDCD8D"/><use xlink:href="#B" x="656.108" y="505.646" fill="#DDCD8D"/><use xlink:href="#x" x="673.03" y="505.646" fill="#DDCD8D"/><use xlink:href="#A" x="683.179" y="505.646" fill="#DDCD8D"/><use xlink:href="#U" x="689.902" y="505.646" fill="#DDCD8D"/><use xlink:href="#s" x="701.826" y="505.646" fill="#DDCD8D"/><use xlink:href="#X" x="708.375" y="505.646" fill="#DDCD8D"/><use xlink:href="#D" x="725.297" y="505.646" fill="#DDCD8D"/><use xlink:href="#T" x="740.045" y="505.646" fill="#DDCD8D"/><use xlink:href="#D" x="757.192" y="505.646" fill="#DDCD8D"/><use xlink:href="#w" x="238.699" y="540.146" fill="#DDCD8D"/><use xlink:href="#t" x="248.722" y="540.146" fill="#DDCD8D"/><use xlink:href="#V" x="263.82" y="540.146" fill="#DDCD8D"/><use xlink:href="#t" x="272.294" y="540.146" fill="#DDCD8D"/><use xlink:href="#w" x="287.391" y="540.146" fill="#DDCD8D"/><use xlink:href="#t" x="297.415" y="540.146" fill="#DDCD8D"/><use xlink:href="#B" x="312.512" y="540.146" fill="#DDCD8D"/><use xlink:href="#y" x="329.435" y="540.146" fill="#DDCD8D"/><use xlink:href="#A" x="343.507" y="540.146" fill="#DDCD8D"/><use xlink:href="#D" x="350.231" y="540.146" fill="#DDCD8D"/><use xlink:href="#s" x="364.979" y="540.146" fill="#DDCD8D"/><use xlink:href="#D" x="371.528" y="540.146" fill="#DDCD8D"/><use xlink:href="#s" x="386.276" y="540.146" fill="#DDCD8D"/><use xlink:href="#E" x="392.825" y="540.146" fill="#DDCD8D"/><use xlink:href="#D" x="399.548" y="540.146" fill="#DDCD8D"/><use xlink:href="#s" x="414.296" y="540.146" fill="#DDCD8D"/><use xlink:href="#y" x="420.845" y="540.146" fill="#DDCD8D"/><use xlink:href="#t" x="434.918" y="540.146" fill="#DDCD8D"/><use xlink:href="#B" x="450.015" y="540.146" fill="#DDCD8D"/><use xlink:href="#x" x="466.938" y="540.146" fill="#DDCD8D"/><use xlink:href="#Q" x="477.086" y="540.146" fill="#DDCD8D"/><use xlink:href="#r" x="492.184" y="540.146" fill="#DDCD8D"/><use xlink:href="#A" x="504.407" y="540.146" fill="#DDCD8D"/><use xlink:href="#z" x="511.131" y="540.146" fill="#DDCD8D"/><use xlink:href="#D" x="537.652" y="540.146" fill="#DDCD8D"/><use xlink:href="#s" x="552.399" y="540.146" fill="#DDCD8D"/><use xlink:href="#v" x="558.948" y="540.146" fill="#DDCD8D"/><use xlink:href="#D" x="575.896" y="540.146" fill="#DDCD8D"/><use xlink:href="#w" x="590.643" y="540.146" fill="#DDCD8D"/><use xlink:href="#x" x="600.667" y="540.146" fill="#DDCD8D"/><use xlink:href="#t" x="610.815" y="540.146" fill="#DDCD8D"/><use xlink:href="#s" x="625.913" y="540.146" fill="#DDCD8D"/><use xlink:href="#C" x="632.462" y="540.146" fill="#DDCD8D"/><use xlink:href="#t" x="649.409" y="540.146" fill="#DDCD8D"/><use xlink:href="#s" x="664.506" y="540.146" fill="#DDCD8D"/><use xlink:href="#D" x="671.055" y="540.146" fill="#DDCD8D"/><use xlink:href="#E" x="685.803" y="540.146" fill="#DDCD8D"/><use xlink:href="#T" x="692.527" y="540.146" fill="#DDCD8D"/><use xlink:href="#q" x="709.674" y="540.146" fill="#DDCD8D"/><use xlink:href="#N" x="725.347" y="540.146" fill="#DDCD8D"/><use xlink:href="#s" x="730.646" y="540.146" fill="#DDCD8D"/><use xlink:href="#O" x="737.195" y="540.146" fill="#DDCD8D"/><use xlink:href="#B" x="238.699" y="574.646" fill="#DDCD8D"/><use xlink:href="#q" x="255.621" y="574.646" fill="#DDCD8D"/><use xlink:href="#s" x="271.294" y="574.646" fill="#DDCD8D"/><use xlink:href="#D" x="277.843" y="574.646" fill="#DDCD8D"/><use xlink:href="#s" x="292.59" y="574.646" fill="#DDCD8D"/><use xlink:href="#E" x="299.139" y="574.646" fill="#DDCD8D"/><use xlink:href="#D" x="305.863" y="574.646" fill="#DDCD8D"/><use xlink:href="#r" x="320.611" y="574.646" fill="#DDCD8D"/><use xlink:href="#s" x="332.834" y="574.646" fill="#DDCD8D"/><use xlink:href="#Z" x="339.383" y="574.646" fill="#DDCD8D"/><use xlink:href="#aa" x="348.407" y="574.646" fill="#DDCD8D"/><use xlink:href="#aa" x="364.954" y="574.646" fill="#DDCD8D"/><use xlink:href="#s" x="381.501" y="574.646" fill="#DDCD8D"/><use xlink:href="#C" x="388.05" y="574.646" fill="#DDCD8D"/><use xlink:href="#A" x="404.998" y="574.646" fill="#DDCD8D"/><use xlink:href="#ab" x="411.722" y="574.646" fill="#DDCD8D"/><use xlink:href="#A" x="425.269" y="574.646" fill="#DDCD8D"/><use xlink:href="#r" x="431.993" y="574.646" fill="#DDCD8D"/><use xlink:href="#A" x="444.216" y="574.646" fill="#DDCD8D"/><use xlink:href="#q" x="450.94" y="574.646" fill="#DDCD8D"/><use xlink:href="#B" x="466.613" y="574.646" fill="#DDCD8D"/><use xlink:href="#t" x="483.535" y="574.646" fill="#DDCD8D"/><use xlink:href="#r" x="498.633" y="574.646" fill="#DDCD8D"/><use xlink:href="#s" x="510.856" y="574.646" fill="#DDCD8D"/><use xlink:href="#t" x="517.405" y="574.646" fill="#DDCD8D"/><use xlink:href="#B" x="532.502" y="574.646" fill="#DDCD8D"/><use xlink:href="#x" x="549.425" y="574.646" fill="#DDCD8D"/><use xlink:href="#w" x="559.573" y="574.646" fill="#DDCD8D"/><use xlink:href="#t" x="569.597" y="574.646" fill="#DDCD8D"/><use xlink:href="#s" x="584.694" y="574.646" fill="#DDCD8D"/><use xlink:href="#E" x="591.243" y="574.646" fill="#DDCD8D"/><use xlink:href="#q" x="597.967" y="574.646" fill="#DDCD8D"/><use xlink:href="#r" x="613.64" y="574.646" fill="#DDCD8D"/><use xlink:href="#s" x="625.863" y="574.646" fill="#DDCD8D"/><use xlink:href="#C" x="632.412" y="574.646" fill="#DDCD8D"/><use xlink:href="#q" x="649.359" y="574.646" fill="#DDCD8D"/><use xlink:href="#r" x="665.031" y="574.646" fill="#DDCD8D"/><use xlink:href="#s" x="677.254" y="574.646" fill="#DDCD8D"/><use xlink:href="#v" x="683.803" y="574.646" fill="#DDCD8D"/><use xlink:href="#G" x="700.751" y="574.646" fill="#DDCD8D"/><use xlink:href="#B" x="717.573" y="574.646" fill="#DDCD8D"/><use xlink:href="#x" x="734.495" y="574.646" fill="#DDCD8D"/><use xlink:href="#q" x="744.644" y="574.646" fill="#DDCD8D"/><use xlink:href="#r" x="760.316" y="574.646" fill="#DDCD8D"/><use xlink:href="#V" x="238.699" y="609.146" fill="#DDCD8D"/><use xlink:href="#A" x="247.173" y="609.146" fill="#DDCD8D"/><use xlink:href="#Y" x="253.897" y="609.146" fill="#DDCD8D"/><use xlink:href="#q" x="260.745" y="609.146" fill="#DDCD8D"/><use xlink:href="#r" x="276.418" y="609.146" fill="#DDCD8D"/><use xlink:href="#s" x="288.641" y="609.146" fill="#DDCD8D"/><use xlink:href="#W" x="295.19" y="609.146" fill="#DDCD8D"/><use xlink:href="#G" x="312.137" y="609.146" fill="#DDCD8D"/><use xlink:href="#t" x="328.96" y="609.146" fill="#DDCD8D"/><use xlink:href="#s" x="344.057" y="609.146" fill="#DDCD8D"/><use xlink:href="#r" x="350.606" y="609.146" fill="#DDCD8D"/><use xlink:href="#t" x="362.829" y="609.146" fill="#DDCD8D"/><use xlink:href="#s" x="377.927" y="609.146" fill="#DDCD8D"/><use xlink:href="#G" x="384.476" y="609.146" fill="#DDCD8D"/><use xlink:href="#r" x="401.298" y="609.146" fill="#DDCD8D"/><use xlink:href="#D" x="413.521" y="609.146" fill="#DDCD8D"/><use xlink:href="#B" x="428.269" y="609.146" fill="#DDCD8D"/><use xlink:href="#s" x="445.191" y="609.146" fill="#DDCD8D"/><use xlink:href="#y" x="451.74" y="609.146" fill="#DDCD8D"/><use xlink:href="#q" x="465.813" y="609.146" fill="#DDCD8D"/><use xlink:href="#z" x="481.485" y="609.146" fill="#DDCD8D"/><use xlink:href="#q" x="508.006" y="609.146" fill="#DDCD8D"/><use xlink:href="#s" x="523.679" y="609.146" fill="#DDCD8D"/><use xlink:href="#w" x="530.228" y="609.146" fill="#DDCD8D"/><use xlink:href="#t" x="540.251" y="609.146" fill="#DDCD8D"/><use xlink:href="#V" x="555.349" y="609.146" fill="#DDCD8D"/><use xlink:href="#t" x="563.822" y="609.146" fill="#DDCD8D"/><use xlink:href="#w" x="578.92" y="609.146" fill="#DDCD8D"/><use xlink:href="#t" x="588.943" y="609.146" fill="#DDCD8D"/><use xlink:href="#B" x="604.041" y="609.146" fill="#DDCD8D"/><use xlink:href="#y" x="620.963" y="609.146" fill="#DDCD8D"/><use xlink:href="#A" x="635.036" y="609.146" fill="#DDCD8D"/><use xlink:href="#D" x="641.76" y="609.146" fill="#DDCD8D"/><use xlink:href="#s" x="656.508" y="609.146" fill="#DDCD8D"/><use xlink:href="#t" x="663.057" y="609.146" fill="#DDCD8D"/><use xlink:href="#B" x="678.154" y="609.146" fill="#DDCD8D"/><use xlink:href="#s" x="695.077" y="609.146" fill="#DDCD8D"/><use xlink:href="#t" x="701.626" y="609.146" fill="#DDCD8D"/><use xlink:href="#r" x="716.723" y="609.146" fill="#DDCD8D"/><use xlink:href="#x" x="728.946" y="609.146" fill="#DDCD8D"/><use xlink:href="#D" x="739.095" y="609.146" fill="#DDCD8D"/><use xlink:href="#t" x="238.699" y="643.646" fill="#DDCD8D"/><use xlink:href="#r" x="253.797" y="643.646" fill="#DDCD8D"/><use xlink:href="#y" x="266.02" y="643.646" fill="#DDCD8D"/><use xlink:href="#D" x="280.092" y="643.646" fill="#DDCD8D"/><use xlink:href="#E" x="294.84" y="643.646" fill="#DDCD8D"/><use xlink:href="#D" x="301.564" y="643.646" fill="#DDCD8D"/><use xlink:href="#K" x="316.312" y="643.646" fill="#DDCD8D"/><use xlink:href="#ac" x="488.052" y="723.793" fill="#DDCD8D"/><use xlink:href="#ad" x="520.071" y="723.793" fill="#DDCD8D"/><use xlink:href="#ae" x="541.086" y="723.793" fill="#DDCD8D"/><use xlink:href="#af" x="560.521" y="723.793" fill="#DDCD8D"/><use xlink:href="#ag" x="577.972" y="723.793" fill="#DDCD8D"/><use xlink:href="#ah" x="596.693" y="723.793" fill="#DDCD8D"/><use xlink:href="#ai" x="617.678" y="723.793" fill="#DDCD8D"/><use xlink:href="#ag" x="630.262" y="723.793" fill="#DDCD8D"/><use xlink:href="#aj" x="648.984" y="723.793" fill="#DDCD8D"/><use xlink:href="#ak" x="659.491" y="723.793" fill="#DDCD8D"/><use xlink:href="#al" x="667.829" y="723.793" fill="#DDCD8D"/><use xlink:href="#am" x="676.167" y="723.793" fill="#DDCD8D"/><use xlink:href="#an" x="697.183" y="723.793" fill="#DDCD8D"/><use xlink:href="#ad" x="715.47" y="723.793" fill="#DDCD8D"/><use xlink:href="#ae" x="736.486" y="723.793" fill="#DDCD8D"/><g clip-path="url(#ao)"><path fill="#1D9BF0" d="M474.027 700.887c.036.52.036 1.039.036 1.562 0 15.946-12.125 34.336-34.301 34.336v-.008a34.145 34.145 0 0 1-18.48-5.41 24.18 24.18 0 0 0 17.844-5.004 12.067 12.067 0 0 1-11.263-8.379c1.805.348 3.668.278 5.442-.21a12.064 12.064 0 0 1-9.672-11.829v-.152a12.005 12.005 0 0 0 5.472 1.512c-5.296-3.547-6.93-10.602-3.73-16.114a34.203 34.203 0 0 0 24.848 12.606 12.09 12.09 0 0 1 3.484-11.531c4.856-4.567 12.492-4.332 17.059.523a24.11 24.11 0 0 0 7.656-2.93 12.117 12.117 0 0 1-5.3 6.676 23.913 23.913 0 0 0 6.921-1.898 24.472 24.472 0 0 1-6.016 6.25Zm0 0"/></g><g clip-path="url(#ap)"><path fill="#AAB2AB" d="m291.7 692.945 110.515.196c1.543 0 2.922-.227 2.922 3.047l-.133 35.996H288.91v-36.13c0-1.616.16-3.109 2.79-3.109Zm0 0"/></g><g clip-path="url(#aq)"><path d="M403.18 692.508H290.57c-1.21 0-2.191.972-2.191 2.168v37.844c0 .27.219.488.492.488h116.004a.493.493 0 0 0 .496-.488v-37.844c0-1.196-.984-2.168-2.191-2.168Zm-112.61.98h112.61c.664 0 1.203.532 1.203 1.188v26.246h-80.488a17.348 17.348 0 0 1-15.16 8.86 17.323 17.323 0 0 1-15.153-8.86h-4.215v-26.246c0-.656.54-1.188 1.203-1.188Zm0 0"/></g><path fill="#FFF" d="M322.04 711.36c.003 7.261-5.946 13.152-13.286 13.156-7.344.004-13.297-5.88-13.3-13.141v-.016c-.005-7.261 5.94-13.148 13.284-13.152 7.34-.004 13.297 5.879 13.301 13.137v.015Zm0 0"/><path d="M319.555 700.652c2.945 2.914 4.422 6.485 4.422 10.707 0 4.227-1.45 7.758-4.348 10.598-3.074 2.992-6.707 4.484-10.902 4.484-4.141 0-7.711-1.48-10.711-4.449-3-2.965-4.496-6.508-4.496-10.633 0-4.12 1.496-7.691 4.496-10.707 2.921-2.914 6.492-4.375 10.71-4.375 4.27 0 7.88 1.461 10.829 4.375ZM300 702.613c-2.492 2.492-3.738 5.407-3.738 8.75 0 3.348 1.234 6.239 3.699 8.676 2.469 2.441 5.406 3.66 8.812 3.66 3.407 0 6.368-1.234 8.887-3.695 2.39-2.29 3.586-5.168 3.586-8.64 0-3.442-1.215-6.368-3.644-8.77-2.43-2.399-5.372-3.602-8.829-3.602-3.457 0-6.382 1.207-8.773 3.621Zm6.559 7.282c-.38-.82-.95-1.235-1.711-1.235-1.344 0-2.016.899-2.016 2.688 0 1.789.672 2.683 2.016 2.683.886 0 1.523-.437 1.902-1.308l1.863.98c-.886 1.559-2.222 2.34-3.996 2.34-1.37 0-2.469-.414-3.293-1.246-.824-.832-1.238-1.977-1.238-3.438 0-1.433.426-2.57 1.277-3.414.848-.843 1.91-1.265 3.176-1.265 1.879 0 3.223.73 4.04 2.191Zm8.765 0c-.383-.82-.941-1.235-1.676-1.235-1.37 0-2.058.899-2.058 2.688 0 1.789.687 2.683 2.058 2.683.891 0 1.512-.437 1.868-1.308l1.902.98c-.887 1.559-2.215 2.34-3.988 2.34-1.368 0-2.465-.414-3.29-1.246-.82-.832-1.234-1.977-1.234-3.438 0-1.433.418-2.57 1.254-3.414.836-.843 1.902-1.265 3.192-1.265 1.875 0 3.218.73 4.027 2.191Zm0 0"/><path fill="#FFF" d="M349.313 707.188c0 .68-.067 1.355-.2 2.019a9.998 9.998 0 0 1-.597 1.945 10.238 10.238 0 0 1-2.27 3.36c-.484.48-1.012.91-1.586 1.285-.57.379-1.176.7-1.808.957a10.56 10.56 0 0 1-8.016 0 10.268 10.268 0 0 1-1.809-.957 10.235 10.235 0 0 1-1.586-1.285 9.993 9.993 0 0 1-1.3-1.57 10.292 10.292 0 0 1-1.567-3.735 10.292 10.292 0 0 1 .598-5.98c.262-.63.586-1.227.969-1.79a9.993 9.993 0 0 1 1.3-1.57 10.492 10.492 0 0 1 3.395-2.246 10.817 10.817 0 0 1 1.965-.586 10.56 10.56 0 0 1 4.086 0c.675.133 1.328.328 1.965.586.632.262 1.238.582 1.808.957.574.379 1.102.809 1.586 1.29a10.238 10.238 0 0 1 2.27 3.359c.265.628.464 1.273.597 1.941.133.668.2 1.34.2 2.02Zm0 0"/><path d="M341.875 704.191a.728.728 0 0 0-.73-.722h-4.625a.728.728 0 0 0-.73.722v4.575h1.288v5.414h3.508v-5.414h1.289ZM340.414 701.305a1.5 1.5 0 0 1-.121.597c-.078.192-.195.36-.344.508a1.627 1.627 0 0 1-.512.34 1.606 1.606 0 0 1-1.722-.34 1.57 1.57 0 0 1-.465-1.105 1.541 1.541 0 0 1 .465-1.105 1.61 1.61 0 0 1 1.117-.46 1.61 1.61 0 0 1 1.117.46 1.533 1.533 0 0 1 .465 1.105Zm0 0"/><path fill-rule="evenodd" d="M338.816 695.781c-3.128 0-5.78 1.078-7.949 3.242-2.226 2.235-3.34 4.883-3.34 7.938 0 3.055 1.114 5.684 3.34 7.883 2.227 2.199 4.875 3.297 7.95 3.297 3.113 0 5.812-1.11 8.097-3.325 2.149-2.105 3.223-4.726 3.223-7.855 0-3.133-1.094-5.777-3.282-7.938-2.187-2.164-4.867-3.242-8.039-3.242Zm.032 2.012c2.566 0 4.742.894 6.535 2.684 1.812 1.77 2.719 3.93 2.719 6.484 0 2.57-.887 4.703-2.66 6.402-1.872 1.824-4.067 2.739-6.594 2.739-2.532 0-4.707-.907-6.54-2.711-1.828-1.809-2.745-3.953-2.745-6.43 0-2.48.925-4.64 2.773-6.484 1.777-1.79 3.945-2.684 6.512-2.684Zm0 0"/><path fill="#FFF" d="M335.566 724.086c.309 0 .59.027.844.082.254.05.469.14.652.262.18.12.32.285.422.488.098.203.149.453.149.75 0 .324-.074.59-.223.805a1.61 1.61 0 0 1-.656.527c.398.113.695.313.894.594.196.285.293.625.293 1.027 0 .32-.062.598-.187.836-.129.234-.3.426-.516.574-.21.153-.457.262-.73.332-.278.074-.559.11-.848.11h-3.137v-6.387Zm-.18 2.582c.25 0 .462-.059.622-.176.164-.12.246-.312.246-.582a.715.715 0 0 0-.082-.363.6.6 0 0 0-.215-.227.988.988 0 0 0-.312-.11 2.29 2.29 0 0 0-.368-.03h-1.332v1.488Zm.083 2.71c.136 0 .27-.01.398-.038a1.03 1.03 0 0 0 .336-.137.66.66 0 0 0 .23-.254.888.888 0 0 0 .087-.41c0-.328-.094-.562-.282-.703-.187-.137-.433-.207-.742-.207h-1.55v1.75ZM338.191 724.086h1.594l1.512 2.523 1.504-2.523h1.582l-2.399 3.934v2.453h-1.421v-2.489ZM384.352 728.895c.078.148.183.27.312.359.129.094.281.164.457.207.172.047.352.066.54.066.124 0 .26-.007.405-.03a1.29 1.29 0 0 0 .407-.122.89.89 0 0 0 .316-.246.615.615 0 0 0 .125-.399.545.545 0 0 0-.168-.418 1.325 1.325 0 0 0-.437-.269 4.78 4.78 0 0 0-.614-.188c-.23-.054-.46-.113-.695-.18a5.883 5.883 0 0 1-.703-.218c-.23-.086-.434-.2-.617-.336a1.57 1.57 0 0 1-.434-.512 1.537 1.537 0 0 1-.168-.746c0-.332.07-.613.211-.855.14-.242.328-.442.555-.606.23-.16.488-.28.777-.355.29-.078.578-.117.867-.117.34 0 .66.035.973.113.309.074.586.195.824.36.242.167.434.382.574.64.141.262.215.574.215.945h-1.379a1.091 1.091 0 0 0-.12-.472.782.782 0 0 0-.278-.297 1.2 1.2 0 0 0-.39-.153 2.29 2.29 0 0 0-.481-.043c-.113 0-.227.012-.34.036a.92.92 0 0 0-.313.125.783.783 0 0 0-.23.222.61.61 0 0 0-.09.34.55.55 0 0 0 .074.305c.047.078.141.148.286.215.14.066.335.132.585.195.25.066.579.152.98.254.122.02.286.066.5.129.216.062.427.16.638.297.21.14.39.324.546.55.153.23.231.524.231.883 0 .293-.059.563-.172.813a1.75 1.75 0 0 1-.512.648 2.463 2.463 0 0 1-.84.426 4.024 4.024 0 0 1-1.164.152c-.355 0-.699-.043-1.035-.129a2.568 2.568 0 0 1-.886-.41 2.054 2.054 0 0 1-.61-.707c-.152-.285-.222-.625-.219-1.02h1.38c0 .216.038.4.117.548ZM392.352 724.086l2.414 6.387h-1.473l-.488-1.422h-2.414l-.508 1.422h-1.43l2.442-6.387Zm.082 3.914-.813-2.34h-.02l-.84 2.34ZM359.078 724.086l2.7 4.285h.015v-4.285h1.332v6.387h-1.422l-2.687-4.278H359v4.278h-1.332v-6.387ZM368.516 725.79a1.387 1.387 0 0 0-.32-.356 1.514 1.514 0 0 0-.426-.239 1.549 1.549 0 0 0-.504-.082c-.32 0-.59.059-.813.184a1.49 1.49 0 0 0-.543.488c-.14.207-.242.442-.305.703a3.502 3.502 0 0 0-.093.813c0 .27.031.531.093.781.063.254.165.484.305.688.137.203.317.363.543.484.223.125.492.183.813.183.433 0 .773-.128 1.02-.394.241-.262.39-.606.444-1.035h1.375a3.153 3.153 0 0 1-.28 1.082 2.548 2.548 0 0 1-.595.824c-.25.227-.539.402-.87.52-.333.12-.696.18-1.094.18-.496 0-.938-.087-1.336-.255a2.93 2.93 0 0 1-1-.703 3.117 3.117 0 0 1-.625-1.05 3.826 3.826 0 0 1-.215-1.305c0-.477.07-.918.215-1.328.144-.407.355-.766.625-1.07.273-.301.605-.54 1-.716.398-.171.84-.257 1.336-.257.355 0 .691.05 1.007.152a2.8 2.8 0 0 1 .852.441c.25.196.457.438.621.723a2.6 2.6 0 0 1 .305.984h-1.375a1.153 1.153 0 0 0-.16-.44ZM400.082 706.953c.004 5.637-4.613 10.211-10.312 10.215-5.7.004-10.325-4.563-10.329-10.2v-.015c-.003-5.637 4.614-10.207 10.313-10.21 5.7-.005 10.324 4.562 10.328 10.194v.016Zm0 0"/><path d="M389.688 695.773c-3.133 0-5.782 1.082-7.954 3.243-2.222 2.234-3.34 4.882-3.34 7.937 0 3.059 1.118 5.684 3.34 7.883 2.227 2.2 4.88 3.3 7.954 3.3 3.113 0 5.812-1.109 8.093-3.327 2.153-2.106 3.227-4.723 3.227-7.856 0-3.129-1.094-5.777-3.285-7.937-2.188-2.16-4.864-3.243-8.036-3.243Zm.027 2.012c2.566 0 4.746.895 6.539 2.684 1.808 1.77 2.715 3.93 2.715 6.484 0 2.57-.887 4.707-2.66 6.402-1.868 1.825-4.067 2.739-6.594 2.739s-4.707-.903-6.535-2.711c-1.832-1.809-2.746-3.95-2.746-6.43 0-2.476.925-4.64 2.773-6.484 1.773-1.79 3.941-2.684 6.508-2.684Zm0 0"/><path d="M384.676 705.375c.453-2.813 2.453-4.316 4.965-4.316 3.609 0 5.808 2.59 5.808 6.043 0 3.37-2.344 5.988-5.867 5.988-2.426 0-4.594-1.477-4.988-4.371h2.847c.082 1.504 1.07 2.031 2.48 2.031 1.606 0 2.65-1.477 2.65-3.73 0-2.368-.9-3.622-2.594-3.622-1.239 0-2.313.446-2.536 1.977l.829-.004-2.243 2.219-2.242-2.219Zm0 0"/><path fill="#FFF" d="M373.98 706.965c.004 5.305-4.34 9.605-9.703 9.61-5.363.003-9.714-4.294-9.718-9.598v-.012c-.004-5.305 4.34-9.606 9.703-9.61 5.363-.003 9.715 4.293 9.718 9.594v.016Zm0 0"/><path d="M372.293 699.023c-2.191-2.164-4.867-3.242-8.04-3.242-3.132 0-5.78 1.078-7.952 3.242-2.227 2.235-3.336 4.883-3.336 7.938 0 3.059 1.11 5.687 3.336 7.883 2.226 2.203 4.879 3.3 7.953 3.3 3.113 0 5.812-1.109 8.094-3.328 2.152-2.105 3.226-4.722 3.226-7.855 0-3.129-1.094-5.777-3.281-7.938Zm-1.418 14.34c-1.867 1.828-4.063 2.739-6.594 2.739-2.527 0-4.707-.903-6.535-2.711-1.832-1.809-2.746-3.95-2.746-6.43 0-1.047.168-2.04.5-2.973l2.996 1.313h-.219v1.328h1.063c0 .187-.02.375-.02.562v.317h-1.043v1.332h1.23c.173.992.552 1.797 1.063 2.433 1.059 1.383 2.762 2.133 4.618 2.133 1.21 0 2.308-.355 2.953-.71l-.457-2.079c-.395.207-1.286.488-2.157.488-.945 0-1.836-.28-2.441-.957-.285-.316-.492-.75-.625-1.308h4.117l5.844 2.558a8.447 8.447 0 0 1-1.547 1.965Zm-7.352-5.855-.023-.016.043.016Zm3.52-.88h.168v-1.327h-3.203l-1.301-.57c.11-.25.242-.473.398-.645.586-.715 1.418-1.012 2.329-1.012.832 0 1.609.242 2.101.45l.527-2.137c-.68-.297-1.683-.559-2.835-.559-1.782 0-3.293.711-4.375 1.906a5.772 5.772 0 0 0-.633.907l-3.719-1.63c.36-.53.781-1.046 1.273-1.534 1.774-1.79 3.942-2.684 6.508-2.684 2.567 0 4.746.894 6.54 2.684 1.812 1.77 2.714 3.933 2.714 6.484 0 .844-.094 1.637-.285 2.387Zm0 0"/></svg>