<svg xmlns="http://www.w3.org/2000/svg" xmlns:xlink="http://www.w3.org/1999/xlink" width="1080" height="1080" version="1.2" viewBox="0 0 810 810"><defs><symbol id="r" overflow="visible"><path d="M3.422-21H5.64v19.078h11.765V0H3.422Zm0 0" style="stroke:none"/></symbol><symbol id="s" overflow="visible"><path d="M8.484-15.906c2.063 0 3.641.515 4.735 1.547 1.101 1.03 1.656 2.558 1.656 4.578V0h-2.031v-2.453c-.48.812-1.188 1.453-2.125 1.922-.93.46-2.031.687-3.313.687-1.761 0-3.164-.422-4.203-1.265-1.031-.844-1.547-1.954-1.547-3.329 0-1.343.485-2.421 1.453-3.234.97-.82 2.508-1.234 4.625-1.234h5.016v-.969c0-1.352-.383-2.383-1.14-3.094-.762-.719-1.872-1.078-3.329-1.078-1 0-1.965.168-2.89.5-.918.336-1.704.79-2.36 1.36l-.969-1.579c.801-.687 1.758-1.21 2.876-1.578a11.13 11.13 0 0 1 3.546-.562Zm-.75 14.375c1.207 0 2.239-.274 3.094-.828.863-.551 1.504-1.344 1.922-2.375v-2.579H7.797c-2.7 0-4.047.938-4.047 2.813 0 .918.348 1.64 1.047 2.172.695.531 1.676.797 2.937.797Zm0 0" style="stroke:none"/></symbol><symbol id="u" overflow="visible"><path d="M11.281-.953c-.398.355-.89.633-1.484.828a6.099 6.099 0 0 1-1.844.281c-1.48 0-2.621-.398-3.422-1.203-.804-.8-1.203-1.93-1.203-3.39v-9.547H.516v-1.797h2.812v-3.453h2.125v3.453h4.813v1.797H5.453v9.421c0 .938.234 1.653.703 2.141.477.492 1.157.735 2.032.735.437 0 .859-.067 1.265-.204a3.078 3.078 0 0 0 1.078-.593Zm0 0" style="stroke:none"/></symbol><symbol id="v" overflow="visible"><path d="M16.703-7.234H3.516c.113 1.648.738 2.976 1.875 3.984 1.144 1.012 2.586 1.516 4.328 1.516.976 0 1.879-.176 2.703-.532a5.852 5.852 0 0 0 2.125-1.546l1.203 1.374A6.801 6.801 0 0 1 13.125-.5c-1.055.438-2.21.656-3.469.656C8.04.156 6.61-.188 5.36-.875A7.611 7.611 0 0 1 2.422-3.75c-.7-1.219-1.047-2.598-1.047-4.14 0-1.54.332-2.923 1-4.141a7.334 7.334 0 0 1 2.766-2.844c1.175-.688 2.492-1.031 3.953-1.031 1.457 0 2.765.344 3.922 1.031a7.188 7.188 0 0 1 2.734 2.828c.656 1.211.984 2.594.984 4.156Zm-7.61-6.829c-1.523 0-2.796.485-3.827 1.454-1.032.968-1.618 2.234-1.75 3.796h11.187c-.148-1.562-.734-2.828-1.765-3.796-1.024-.97-2.305-1.454-3.844-1.454Zm0 0" style="stroke:none"/></symbol><symbol id="w" overflow="visible"><path d="M22.656-15.906c1.977 0 3.532.574 4.657 1.719 1.132 1.136 1.703 2.812 1.703 5.03V0h-2.141v-8.938c0-1.644-.398-2.894-1.188-3.75-.78-.863-1.898-1.296-3.343-1.296-1.637 0-2.93.507-3.875 1.515-.938 1.012-1.407 2.406-1.407 4.188V0h-2.125v-8.938c0-1.644-.398-2.894-1.187-3.75-.793-.863-1.918-1.296-3.375-1.296-1.617 0-2.902.507-3.86 1.515-.949 1.012-1.421 2.406-1.421 4.188V0H2.969v-15.781h2.047v2.875a5.644 5.644 0 0 1 2.328-2.219c1-.52 2.148-.781 3.453-.781 1.32 0 2.469.281 3.437.844.97.562 1.692 1.398 2.172 2.5a6.221 6.221 0 0 1 2.5-2.454c1.094-.593 2.344-.89 3.75-.89Zm0 0" style="stroke:none"/></symbol><symbol id="x" overflow="visible"><path d="M11.094-15.906c1.476 0 2.816.34 4.015 1.015a7.137 7.137 0 0 1 2.829 2.829c.675 1.218 1.015 2.609 1.015 4.171 0 1.586-.34 2.985-1.015 4.204a7.265 7.265 0 0 1-2.813 2.843c-1.188.668-2.531 1-4.031 1C9.82.156 8.672-.109 7.64-.64a6.609 6.609 0 0 1-2.547-2.328v8.781H2.969V-15.78h2.047v3.125a6.511 6.511 0 0 1 2.53-2.406c1.052-.563 2.235-.844 3.548-.844Zm-.14 14.172c1.093 0 2.085-.254 2.983-.766a5.392 5.392 0 0 0 2.126-2.172c.507-.945.765-2.02.765-3.219 0-1.195-.258-2.257-.765-3.187a5.532 5.532 0 0 0-2.125-2.188c-.899-.52-1.891-.78-2.985-.78-1.125 0-2.137.26-3.031.78a5.562 5.562 0 0 0-2.094 2.188c-.512.93-.766 1.992-.766 3.187 0 1.2.254 2.274.766 3.22.508.937 1.207 1.663 2.094 2.171.894.512 1.906.766 3.031.766Zm0 0" style="stroke:none"/></symbol><symbol id="y" overflow="visible"><path d="M5.016-12.688c.5-1.062 1.242-1.863 2.234-2.406.988-.539 2.21-.812 3.672-.812v2.078l-.516-.031c-1.656 0-2.96.511-3.906 1.53-.938 1.024-1.406 2.45-1.406 4.282V0H2.969v-15.781h2.047Zm0 0" style="stroke:none"/></symbol><symbol id="z" overflow="visible"><path d="M17.188-15.781V0h-2.032v-2.875a5.888 5.888 0 0 1-2.312 2.234c-.98.532-2.102.797-3.36.797-2.062 0-3.695-.57-4.89-1.718C3.406-2.72 2.812-4.406 2.812-6.625v-9.156h2.141v8.937c0 1.668.406 2.934 1.219 3.797.82.856 1.992 1.281 3.516 1.281 1.664 0 2.976-.504 3.937-1.515.957-1.008 1.438-2.414 1.438-4.219v-8.281Zm0 0" style="stroke:none"/></symbol><symbol id="A" overflow="visible"><path d="m13.016 0-5-6.594L2.969 0H.563l6.25-8.094L.875-15.78h2.39l4.75 6.187 4.735-6.187h2.344L9.156-8.094 15.453 0Zm0 0" style="stroke:none"/></symbol><symbol id="B" overflow="visible"><path d="M7.203.156c-1.281 0-2.512-.18-3.687-.547C2.348-.766 1.437-1.234.78-1.797l.953-1.687c.664.523 1.5.949 2.5 1.28 1 .337 2.036.5 3.11.5 1.445 0 2.515-.222 3.203-.671.687-.457 1.031-1.098 1.031-1.922 0-.57-.195-1.023-.578-1.36-.375-.331-.855-.581-1.438-.75-.574-.163-1.34-.331-2.296-.5-1.282-.238-2.313-.484-3.094-.734a4.59 4.59 0 0 1-2-1.265c-.555-.602-.828-1.438-.828-2.5 0-1.313.55-2.39 1.656-3.235 1.102-.843 2.633-1.265 4.594-1.265 1.02 0 2.039.136 3.062.406 1.02.273 1.86.625 2.516 1.063l-.938 1.718c-1.293-.894-2.84-1.344-4.64-1.344-1.367 0-2.39.243-3.078.72-.688.48-1.032 1.109-1.032 1.89 0 .594.192 1.074.579 1.437.394.356.878.621 1.453.797.582.168 1.382.34 2.406.516 1.258.242 2.27.48 3.031.719a4.385 4.385 0 0 1 1.938 1.234c.539.586.812 1.387.812 2.406 0 1.375-.574 2.469-1.719 3.282C10.836-.25 9.242.155 7.204.155Zm0 0" style="stroke:none"/></symbol><symbol id="C" overflow="visible"><path d="M17.375-22.266V0h-2.047v-3.125c-.637 1.063-1.48 1.875-2.531 2.438-1.055.562-2.242.843-3.563.843-1.48 0-2.82-.336-4.015-1.015A7.45 7.45 0 0 1 2.39-3.72c-.68-1.219-1.016-2.61-1.016-4.172 0-1.562.336-2.953 1.016-4.171a7.238 7.238 0 0 1 2.828-2.829c1.195-.675 2.535-1.015 4.015-1.015 1.282 0 2.438.265 3.47.797 1.03.53 1.874 1.308 2.53 2.328v-9.485ZM9.422-1.734c1.094 0 2.082-.254 2.969-.766.894-.508 1.597-1.234 2.109-2.172.508-.945.766-2.02.766-3.219 0-1.195-.258-2.265-.766-3.203-.512-.945-1.215-1.676-2.11-2.187-.886-.508-1.874-.766-2.968-.766-1.125 0-2.137.258-3.031.766-.887.511-1.586 1.242-2.094 2.187-.5.938-.75 2.008-.75 3.203 0 1.2.25 2.274.75 3.22.508.937 1.207 1.663 2.094 2.171.894.512 1.906.766 3.03.766Zm0 0" style="stroke:none"/></symbol><symbol id="D" overflow="visible"><path d="M11.016-15.906c1.976 0 3.55.578 4.718 1.734 1.164 1.149 1.75 2.82 1.75 5.016V0H15.36v-8.938c0-1.644-.414-2.894-1.234-3.75-.813-.863-1.98-1.296-3.5-1.296-1.71 0-3.059.507-4.047 1.515-.992 1.012-1.484 2.406-1.484 4.188V0H2.969v-15.781h2.047v2.906c.57-.957 1.375-1.703 2.406-2.234 1.031-.532 2.226-.797 3.594-.797Zm0 0" style="stroke:none"/></symbol><symbol id="E" overflow="visible"><path d="M2.969-22.266h2.125V0H2.969Zm0 0" style="stroke:none"/></symbol><symbol id="F" overflow="visible"><path d="M9.516.156C7.953.156 6.555-.18 5.328-.859a7.528 7.528 0 0 1-2.906-2.875c-.7-1.227-1.047-2.614-1.047-4.157 0-1.539.348-2.921 1.047-4.14a7.476 7.476 0 0 1 2.906-2.844c1.227-.688 2.625-1.031 4.188-1.031 1.351 0 2.566.265 3.64.797a6.043 6.043 0 0 1 2.531 2.328l-1.593 1.078c-.524-.781-1.184-1.363-1.985-1.75a5.739 5.739 0 0 0-2.593-.594c-1.149 0-2.18.258-3.094.766a5.383 5.383 0 0 0-2.125 2.187c-.5.938-.75 2.008-.75 3.203 0 1.22.25 2.297.75 3.235A5.377 5.377 0 0 0 6.422-2.5c.914.512 1.945.766 3.094.766.937 0 1.8-.188 2.593-.563.801-.383 1.461-.969 1.985-1.75l1.594 1.078A5.99 5.99 0 0 1 13.14-.64c-1.086.532-2.293.797-3.625.797Zm0 0" style="stroke:none"/></symbol><symbol id="G" overflow="visible"><path d="M11.094-15.906c1.476 0 2.816.34 4.015 1.015a7.137 7.137 0 0 1 2.829 2.829c.675 1.218 1.015 2.609 1.015 4.171 0 1.563-.34 2.954-1.015 4.172a7.343 7.343 0 0 1-2.829 2.86C13.91-.18 12.57.156 11.094.156c-1.313 0-2.496-.281-3.547-.844-1.055-.562-1.899-1.375-2.531-2.437V0H2.969v-22.266h2.125v9.485c.664-1.02 1.515-1.797 2.547-2.328 1.03-.532 2.18-.797 3.453-.797Zm-.14 14.172c1.093 0 2.085-.254 2.983-.766a5.392 5.392 0 0 0 2.126-2.172c.507-.945.765-2.02.765-3.219 0-1.195-.258-2.265-.765-3.203-.512-.945-1.22-1.676-2.125-2.187-.899-.508-1.891-.766-2.985-.766-1.125 0-2.137.258-3.031.766-.887.511-1.586 1.242-2.094 2.187-.512.938-.766 2.008-.766 3.203 0 1.2.254 2.274.766 3.22.508.937 1.207 1.663 2.094 2.171.894.512 1.906.766 3.031.766Zm0 0" style="stroke:none"/></symbol><symbol id="H" overflow="visible"><path d="M9.422.156c-1.524 0-2.89-.344-4.11-1.031a7.706 7.706 0 0 1-2.89-2.875c-.7-1.219-1.047-2.598-1.047-4.14 0-1.54.348-2.923 1.047-4.141a7.515 7.515 0 0 1 2.89-2.844c1.22-.688 2.586-1.031 4.11-1.031 1.52 0 2.89.344 4.11 1.031a7.305 7.305 0 0 1 2.859 2.844c.695 1.219 1.047 2.601 1.047 4.14 0 1.543-.352 2.922-1.047 4.141a7.488 7.488 0 0 1-2.86 2.875c-1.219.688-2.59 1.031-4.11 1.031Zm0-1.89c1.113 0 2.113-.254 3-.766a5.319 5.319 0 0 0 2.094-2.172c.5-.945.75-2.02.75-3.219 0-1.195-.25-2.265-.75-3.203a5.335 5.335 0 0 0-2.094-2.187c-.887-.508-1.887-.766-3-.766-1.125 0-2.137.258-3.031.766-.887.511-1.586 1.242-2.094 2.187-.5.938-.75 2.008-.75 3.203 0 1.2.25 2.274.75 3.22.508.937 1.207 1.663 2.094 2.171.894.512 1.906.766 3.03.766Zm0 0" style="stroke:none"/></symbol><symbol id="I" overflow="visible"><path d="M2.969-15.781h2.125V0H2.969Zm1.078-3.453a1.53 1.53 0 0 1-1.11-.438 1.474 1.474 0 0 1-.453-1.094c0-.394.149-.742.454-1.047.3-.3.671-.453 1.109-.453.437 0 .805.149 1.11.438.3.293.452.637.452 1.031 0 .45-.152.824-.453 1.125a1.536 1.536 0 0 1-1.11.438Zm0 0" style="stroke:none"/></symbol><symbol id="J" overflow="visible"><path d="M14.094-1.766V0H1.266v-1.406l9.921-12.578h-9.75v-1.797h12.485v1.406L3.984-1.765Zm0 0" style="stroke:none"/></symbol><symbol id="K" overflow="visible"><path d="M9.938-9.875 5.64-5.515V0H3.42v-21h2.22v12.688L17.969-21h2.547l-9.078 9.516L21.155 0h-2.64Zm0 0" style="stroke:none"/></symbol><symbol id="L" overflow="visible"><path d="M16.234-15.781 8.344 1.89c-.649 1.476-1.39 2.523-2.235 3.14-.836.625-1.84.938-3.015.938a6.298 6.298 0 0 1-2.14-.36A4.692 4.692 0 0 1-.75 4.531l.984-1.593C1.035 3.737 2 4.14 3.125 4.14c.719 0 1.332-.204 1.844-.61.508-.398.984-1.074 1.422-2.031l.687-1.531-7.047-15.75H2.25L8.188-2.375l5.937-13.406Zm0 0" style="stroke:none"/></symbol><symbol id="M" overflow="visible"><path d="M17.578-15.781v13.86c0 2.675-.656 4.66-1.969 5.952-1.304 1.29-3.277 1.938-5.921 1.938-1.461 0-2.844-.215-4.157-.64-1.312-.43-2.375-1.024-3.187-1.782l1.078-1.625c.758.676 1.68 1.203 2.765 1.578 1.094.383 2.239.578 3.438.578 2 0 3.469-.465 4.406-1.39.946-.93 1.422-2.376 1.422-4.344v-2a6.509 6.509 0 0 1-2.61 2.281c-1.062.523-2.245.781-3.546.781-1.48 0-2.824-.32-4.031-.969a7.32 7.32 0 0 1-2.86-2.734C1.72-5.473 1.375-6.8 1.375-8.28c0-1.477.344-2.797 1.031-3.953a7.172 7.172 0 0 1 2.844-2.704c1.195-.644 2.547-.968 4.047-.968 1.344 0 2.55.273 3.625.812a6.658 6.658 0 0 1 2.625 2.344v-3.031ZM9.516-2.484c1.132 0 2.16-.243 3.078-.735a5.315 5.315 0 0 0 2.156-2.047c.508-.882.766-1.89.766-3.015 0-1.114-.258-2.102-.766-2.969a5.375 5.375 0 0 0-2.14-2.047c-.907-.5-1.938-.75-3.094-.75-1.149 0-2.18.246-3.094.735a5.231 5.231 0 0 0-2.125 2.046c-.5.875-.75 1.871-.75 2.985 0 1.125.25 2.133.75 3.015a5.333 5.333 0 0 0 2.125 2.047c.914.492 1.945.735 3.094.735Zm0 0" style="stroke:none"/></symbol><symbol id="N" overflow="visible"><path d="M6.203-12.813c-.98 0-1.867-.203-2.656-.609a4.808 4.808 0 0 1-1.86-1.719c-.449-.726-.671-1.55-.671-2.468 0-.914.222-1.735.671-2.453a4.741 4.741 0 0 1 1.86-1.704c.789-.406 1.676-.609 2.656-.609.988 0 1.875.203 2.656.61.79.406 1.41.976 1.86 1.703.457.718.687 1.539.687 2.453 0 .918-.23 1.742-.687 2.468a4.702 4.702 0 0 1-1.86 1.72c-.78.405-1.668.608-2.656.608Zm0-1.343c1.082 0 1.957-.317 2.625-.953.676-.645 1.016-1.477 1.016-2.5 0-1.02-.344-1.848-1.031-2.485-.68-.644-1.547-.968-2.61-.968-1.055 0-1.922.324-2.61.968-.679.637-1.015 1.465-1.015 2.485 0 1.023.332 1.855 1 2.5.676.636 1.55.953 2.625.953Zm0 0" style="stroke:none"/></symbol><symbol id="O" overflow="visible"><path d="M3.188.156c-.45 0-.829-.16-1.141-.484A1.634 1.634 0 0 1 1.594-1.5c0-.457.148-.844.453-1.156a1.55 1.55 0 0 1 1.14-.469c.438 0 .813.156 1.126.469.32.312.484.699.484 1.156 0 .46-.164.852-.484 1.172a1.505 1.505 0 0 1-1.125.484Zm0 0" style="stroke:none"/></symbol><symbol id="ae" overflow="visible"><path d="M11.281-21c2.676 0 4.774.64 6.297 1.922 1.52 1.281 2.281 3.043 2.281 5.281 0 2.242-.761 3.996-2.28 5.266-1.524 1.273-3.622 1.906-6.298 1.906h-5.64V0H3.42v-21ZM11.22-8.578c2.082 0 3.672-.453 4.765-1.36 1.102-.914 1.657-2.203 1.657-3.859 0-1.695-.555-3-1.657-3.906-1.093-.914-2.683-1.375-4.765-1.375H5.64v10.5Zm0 0" style="stroke:none"/></symbol><symbol id="af" overflow="visible"><path d="M16.234-15.781 9.204 0H7.015L.03-15.781H2.25L8.156-2.344l5.969-13.437Zm0 0" style="stroke:none"/></symbol><symbol id="am" overflow="visible"><path d="M3.203-3.125c.469 0 .848.156 1.14.469.302.312.454.699.454 1.156 0 .242-.04.5-.11.781a5.966 5.966 0 0 1-.312.953l-1.25 4.141H1.687L2.704.031a1.478 1.478 0 0 1-.781-.562c-.2-.27-.297-.594-.297-.969 0-.457.145-.844.438-1.156.3-.313.68-.469 1.14-.469Zm0 0" style="stroke:none"/></symbol><symbol id="an" overflow="visible"><path d="M12.547.188c-2.086 0-3.965-.458-5.64-1.375a10.149 10.149 0 0 1-3.923-3.829c-.949-1.632-1.421-3.46-1.421-5.484 0-2.02.472-3.844 1.421-5.469a10.005 10.005 0 0 1 3.938-3.828c1.687-.926 3.566-1.39 5.64-1.39 1.563 0 3.004.261 4.329.78 1.32.524 2.441 1.282 3.359 2.282l-1.406 1.422c-1.649-1.664-3.719-2.5-6.219-2.5-1.656 0-3.168.383-4.531 1.14a8.36 8.36 0 0 0-3.188 3.125C4.133-13.613 3.75-12.133 3.75-10.5c0 1.637.383 3.117 1.156 4.438a8.306 8.306 0 0 0 3.188 3.125c1.363.761 2.875 1.14 4.531 1.14 2.52 0 4.594-.836 6.219-2.516l1.406 1.407c-.918 1-2.043 1.765-3.375 2.297-1.336.53-2.777.796-4.328.796Zm0 0" style="stroke:none"/></symbol><symbol id="ao" overflow="visible"><path d="M7.5-19.078H.125V-21h16.969v1.922H9.719V0H7.5Zm0 0" style="stroke:none"/></symbol><symbol id="ap" overflow="visible"><path d="M2.094-14.844h13.062v1.766H2.094Zm0 6.922h13.062v1.766H2.094Zm0 0" style="stroke:none"/></symbol><symbol id="aq" overflow="visible"><path d="M15.906-1.922V0H1.172v-1.531l8.734-8.547c1.094-1.082 1.832-2.016 2.219-2.797.395-.79.594-1.586.594-2.39 0-1.239-.43-2.204-1.281-2.891-.844-.696-2.06-1.047-3.641-1.047-2.461 0-4.371.781-5.734 2.344L.546-18.187c.812-.958 1.851-1.696 3.125-2.22 1.27-.519 2.707-.78 4.312-.78 2.133 0 3.829.507 5.079 1.515 1.25 1.012 1.874 2.399 1.874 4.156a7.176 7.176 0 0 1-.718 3.125c-.48 1-1.39 2.153-2.735 3.454l-7.14 7.015Zm0 0" style="stroke:none"/></symbol><symbol id="ar" overflow="visible"><path d="M16.375-21v1.531L7.594 0H5.25l8.64-19.078H3.095v3.922H.954V-21Zm0 0" style="stroke:none"/></symbol><symbol id="as" overflow="visible"><path d="M8.703-12c2.195.125 3.867.727 5.016 1.797 1.156 1.062 1.734 2.453 1.734 4.172 0 1.199-.293 2.265-.875 3.203-.586.93-1.445 1.664-2.578 2.203-1.137.543-2.527.813-4.172.813-1.523 0-2.96-.243-4.312-.735-1.344-.5-2.43-1.156-3.25-1.969l1.046-1.718c.708.718 1.641 1.308 2.797 1.765 1.157.45 2.395.672 3.72.672 1.718 0 3.046-.375 3.984-1.125.945-.75 1.421-1.785 1.421-3.11 0-1.3-.476-2.32-1.421-3.062-.938-.738-2.356-1.11-4.25-1.11h-1.5v-1.593l5.812-7.281H1.141V-21h13.5v1.531Zm0 0" style="stroke:none"/></symbol><symbol id="at" overflow="visible"><path d="M3.422-21H5.64V0H3.42Zm0 0" style="stroke:none"/></symbol><symbol id="au" overflow="visible"><path d="M7.375-21V0H5.219v-19.078H.266V-21Zm0 0" style="stroke:none"/></symbol><symbol id="av" overflow="visible"><path d="M19.406-5.516h-4.203V0h-2.156v-5.516H1.203v-1.562L12.328-21h2.406L3.984-7.437h9.125v-4.86h2.094v4.86h4.203Zm0 0" style="stroke:none"/></symbol><symbol id="R" overflow="visible"><path d="M15.86-39.844H.265V-45.5H37.89v5.656H22.297V0h-6.438Zm0 0" style="stroke:none"/></symbol><symbol id="S" overflow="visible"><path d="M37.047-17.031c0 .48-.043 1.11-.125 1.89H8.969c.394 3.032 1.726 5.47 4 7.313 2.27 1.844 5.097 2.766 8.484 2.766 4.113 0 7.426-1.391 9.938-4.172l3.453 4.03c-1.563 1.825-3.508 3.216-5.828 4.173C26.703-.082 24.113.39 21.25.39c-3.637 0-6.867-.743-9.688-2.235-2.812-1.5-4.992-3.593-6.53-6.281-1.532-2.688-2.298-5.719-2.298-9.094 0-3.343.743-6.36 2.235-9.047 1.5-2.687 3.554-4.773 6.172-6.265 2.625-1.5 5.582-2.25 8.875-2.25 3.289 0 6.222.75 8.797 2.25 2.582 1.492 4.597 3.578 6.046 6.265 1.457 2.688 2.188 5.766 2.188 9.235ZM20.016-29.516c-2.993 0-5.496.914-7.516 2.735-2.012 1.824-3.188 4.21-3.531 7.156h22.093c-.343-2.906-1.527-5.281-3.546-7.125-2.012-1.844-4.512-2.766-7.5-2.766Zm0 0" style="stroke:none"/></symbol><symbol id="T" overflow="visible"><path d="M49.016-34.781c4.332 0 7.765 1.261 10.297 3.781 2.53 2.512 3.796 6.234 3.796 11.172V0h-6.234v-19.11c0-3.331-.773-5.843-2.313-7.53-1.53-1.696-3.73-2.547-6.593-2.547-3.168 0-5.684.992-7.547 2.968-1.856 1.969-2.781 4.793-2.781 8.469V0h-6.25v-19.11c0-3.331-.774-5.843-2.313-7.53-1.531-1.696-3.73-2.547-6.594-2.547-3.156 0-5.668.992-7.53 2.968-1.868 1.969-2.798 4.793-2.798 8.469V0H5.922v-34.453h5.969v5.14c1.257-1.78 2.906-3.132 4.937-4.062 2.04-.938 4.363-1.406 6.969-1.406 2.676 0 5.055.543 7.14 1.625 2.083 1.086 3.688 2.668 4.813 4.75 1.3-1.989 3.11-3.547 5.422-4.672 2.32-1.133 4.937-1.703 7.844-1.703Zm0 0" style="stroke:none"/></symbol><symbol id="U" overflow="visible"><path d="M24.188-34.781c3.332 0 6.316.742 8.953 2.218 2.644 1.47 4.71 3.528 6.203 6.172 1.5 2.649 2.25 5.703 2.25 9.172 0 3.461-.75 6.524-2.25 9.188-1.492 2.668-3.559 4.742-6.203 6.219C30.504-.345 27.52.39 24.188.39c-2.481 0-4.75-.473-6.813-1.422-2.055-.957-3.793-2.348-5.219-4.172v17.812H5.922v-47.062h5.969v5.469a13.275 13.275 0 0 1 5.265-4.328c2.125-.977 4.469-1.47 7.032-1.47Zm-.532 29.718c2.207 0 4.188-.507 5.938-1.53 1.758-1.02 3.148-2.454 4.172-4.298 1.02-1.843 1.53-3.953 1.53-6.328 0-2.383-.51-4.5-1.53-6.343-1.024-1.844-2.414-3.258-4.172-4.25-1.75-1-3.73-1.5-5.938-1.5-2.168 0-4.133.511-5.89 1.53-1.75 1.012-3.137 2.43-4.157 4.25-1.011 1.825-1.515 3.93-1.515 6.313 0 2.375.492 4.485 1.484 6.328 1 1.844 2.383 3.278 4.156 4.297 1.782 1.024 3.754 1.532 5.922 1.532Zm0 0" style="stroke:none"/></symbol><symbol id="V" overflow="visible"><path d="M11.89-28.672c1.083-1.988 2.688-3.504 4.813-4.547 2.125-1.039 4.703-1.562 7.735-1.562v6.047c-.344-.04-.82-.063-1.422-.063-3.387 0-6.043 1.012-7.97 3.031-1.929 2.012-2.89 4.883-2.89 8.61V0H5.922v-34.453h5.969Zm0 0" style="stroke:none"/></symbol><symbol id="W" overflow="visible"><path d="M18.453-34.781c4.77 0 8.422 1.172 10.953 3.515 2.54 2.344 3.813 5.836 3.813 10.47V0h-5.922v-4.547C26.254-2.94 24.77-1.719 22.844-.875c-1.93.844-4.215 1.266-6.86 1.266C12.13.39 9.04-.54 6.72-2.406 4.406-4.27 3.25-6.72 3.25-9.75c0-3.031 1.102-5.469 3.313-7.313 2.207-1.843 5.718-2.765 10.53-2.765h9.876v-1.235c0-2.687-.782-4.742-2.344-6.171-1.555-1.426-3.844-2.141-6.875-2.141-2.043 0-4.04.34-5.984 1.016-1.95.668-3.594 1.562-4.938 2.687l-2.61-4.687c1.782-1.426 3.907-2.52 6.376-3.282 2.469-.757 5.086-1.14 7.86-1.14Zm-1.422 30.36c2.383 0 4.442-.532 6.172-1.595 1.738-1.062 2.992-2.566 3.766-4.515v-4.813h-9.61c-5.293 0-7.937 1.778-7.937 5.328 0 1.743.672 3.11 2.015 4.11 1.344.992 3.208 1.484 5.594 1.484Zm0 0" style="stroke:none"/></symbol><symbol id="X" overflow="visible"><path d="M25.281-2.016c-.906.782-2.031 1.383-3.375 1.797a14.29 14.29 0 0 1-4.156.61c-3.469 0-6.156-.93-8.063-2.797-1.906-1.864-2.859-4.531-2.859-8v-18.907H.968v-5.14h5.86v-7.531h6.234v7.53h9.876v5.142h-9.875v18.656c0 1.867.46 3.297 1.39 4.297.938.992 2.27 1.484 4 1.484 1.906 0 3.531-.54 4.875-1.625Zm0 0" style="stroke:none"/></symbol><symbol id="Y" overflow="visible"><path d="M38.031-34.453V0H32.11v-5.203c-1.261 1.781-2.922 3.164-4.984 4.14-2.055.97-4.293 1.454-6.719 1.454-4.593 0-8.215-1.266-10.86-3.797-2.636-2.54-3.952-6.281-3.952-11.219v-19.828h6.234v19.11c0 3.343.8 5.87 2.406 7.577 1.602 1.711 3.899 2.563 6.891 2.563 3.29 0 5.89-.992 7.797-2.984 1.906-2 2.86-4.817 2.86-8.454v-17.812Zm0 0" style="stroke:none"/></symbol><symbol id="aa" overflow="visible"><path d="M24.188-34.781c3.332 0 6.316.742 8.953 2.218 2.644 1.47 4.71 3.528 6.203 6.172 1.5 2.649 2.25 5.703 2.25 9.172 0 3.461-.75 6.524-2.25 9.188-1.492 2.668-3.559 4.742-6.203 6.219C30.504-.345 27.52.39 24.188.39c-2.563 0-4.907-.493-7.032-1.485a13.518 13.518 0 0 1-5.265-4.36V0H5.92v-48.234h6.235v18.984a13.198 13.198 0 0 1 5.188-4.125c2.082-.938 4.363-1.406 6.843-1.406Zm-.532 29.718c2.207 0 4.188-.507 5.938-1.53 1.758-1.02 3.148-2.454 4.172-4.298 1.02-1.843 1.53-3.953 1.53-6.328 0-2.383-.51-4.5-1.53-6.343-1.024-1.844-2.414-3.258-4.172-4.25-1.75-1-3.73-1.5-5.938-1.5-2.168 0-4.14.5-5.922 1.5-1.773.992-3.156 2.406-4.156 4.25-.992 1.843-1.484 3.96-1.484 6.343 0 2.375.492 4.485 1.484 6.328 1 1.844 2.383 3.278 4.156 4.297 1.782 1.024 3.754 1.532 5.922 1.532Zm0 0" style="stroke:none"/></symbol><symbol id="ab" overflow="visible"><path d="M15.797.39c-2.824 0-5.54-.382-8.14-1.14-2.595-.758-4.626-1.723-6.095-2.89l2.594-4.938c1.52 1.086 3.364 1.953 5.532 2.61C11.851-5.32 14.038-5 16.25-5c5.457 0 8.188-1.563 8.188-4.688 0-1.039-.372-1.863-1.11-2.468-.73-.602-1.648-1.047-2.75-1.328-1.105-.282-2.68-.598-4.719-.954-2.773-.425-5.039-.921-6.796-1.484a10.486 10.486 0 0 1-4.516-2.86c-1.25-1.343-1.875-3.226-1.875-5.655 0-3.125 1.297-5.63 3.89-7.516 2.602-1.883 6.094-2.828 10.47-2.828 2.288 0 4.581.289 6.874.86 2.301.562 4.192 1.32 5.672 2.265l-2.672 4.937c-2.812-1.812-6.125-2.718-9.937-2.718-2.649 0-4.664.433-6.047 1.296-1.387.868-2.078 2.012-2.078 3.438 0 1.125.39 2.015 1.172 2.672.78.648 1.742 1.12 2.89 1.422 1.145.304 2.758.652 4.844 1.047 2.77.48 5.008.992 6.719 1.53a10.014 10.014 0 0 1 4.39 2.766c1.22 1.293 1.828 3.11 1.828 5.454 0 3.117-1.335 5.593-4 7.437C24.02-.531 20.392.391 15.797.391Zm0 0" style="stroke:none"/></symbol><symbol id="ac" overflow="visible"><path d="M20.672.39c-3.43 0-6.508-.753-9.235-2.265-2.73-1.52-4.867-3.613-6.406-6.281C3.5-10.82 2.734-13.844 2.734-17.22c0-3.383.766-6.41 2.297-9.078 1.54-2.664 3.676-4.742 6.407-6.234 2.726-1.5 5.804-2.25 9.234-2.25 3.426 0 6.492.75 9.203 2.25 2.707 1.492 4.828 3.57 6.36 6.234 1.538 2.668 2.312 5.695 2.312 9.078 0 3.375-.774 6.399-2.313 9.063-1.53 2.668-3.652 4.761-6.359 6.281C27.165-.363 24.098.391 20.672.391Zm0-5.452c2.207 0 4.187-.508 5.937-1.532 1.758-1.02 3.133-2.453 4.125-4.297 1-1.843 1.5-3.953 1.5-6.328 0-2.383-.5-4.5-1.5-6.343-.992-1.844-2.367-3.258-4.125-4.25-1.75-1-3.73-1.5-5.937-1.5-2.211 0-4.195.5-5.953 1.5-1.75.992-3.137 2.406-4.156 4.25-1.024 1.843-1.532 3.96-1.532 6.343 0 2.375.508 4.485 1.531 6.328 1.02 1.844 2.407 3.278 4.157 4.297 1.758 1.024 3.742 1.532 5.953 1.532Zm0 0" style="stroke:none"/></symbol><symbol id="ad" overflow="visible"><path d="M5.922-48.234h6.234V0H5.922Zm0 0" style="stroke:none"/></symbol><symbol id="ag" overflow="visible"><path d="m9.984-9.328-3.828 3.89V0h-3v-21h3v11.734L17.546-21h3.423L12-11.547 21.547 0H18.03Zm0 0" style="stroke:none"/></symbol><symbol id="ah" overflow="visible"><path d="M17.094-7.86c0 .22-.016.512-.047.876H4.14c.175 1.398.789 2.523 1.843 3.375 1.051.843 2.36 1.265 3.922 1.265 1.895 0 3.422-.64 4.578-1.922l1.594 1.86A7.017 7.017 0 0 1 13.391-.47c-1.063.438-2.258.656-3.579.656-1.68 0-3.167-.343-4.468-1.03C4.039-1.54 3.035-2.509 2.328-3.75c-.71-1.238-1.062-2.64-1.062-4.203 0-1.54.343-2.93 1.03-4.172a7.36 7.36 0 0 1 2.845-2.89c1.207-.688 2.57-1.032 4.093-1.032 1.52 0 2.875.344 4.063 1.031a7.22 7.22 0 0 1 2.797 2.891c.664 1.242 1 2.664 1 4.266Zm-7.86-5.765c-1.375 0-2.53.422-3.468 1.266-.93.843-1.47 1.945-1.625 3.296h10.203c-.168-1.332-.715-2.425-1.64-3.28-.93-.852-2.087-1.282-3.47-1.282Zm0 0" style="stroke:none"/></symbol><symbol id="ai" overflow="visible"><path d="M2.734-22.266H5.61V0H2.734Zm0 0" style="stroke:none"/></symbol><symbol id="aj" overflow="visible"><path d="M16.797-15.906 9.844 0H6.906L-.062-15.906h3l5.468 12.75 5.578-12.75Zm0 0" style="stroke:none"/></symbol><symbol id="ak" overflow="visible"><path d="M2.734-15.906H5.61V0H2.734Zm1.438-3.047c-.563 0-1.031-.18-1.406-.547a1.776 1.776 0 0 1-.547-1.313c0-.519.18-.96.547-1.328.375-.375.843-.562 1.406-.562.562 0 1.023.18 1.39.531.375.344.563.777.563 1.297 0 .543-.188 1-.563 1.375-.367.367-.828.547-1.39.547Zm0 0" style="stroke:none"/></symbol><symbol id="al" overflow="visible"><path d="M11.219-16.047c2.02 0 3.625.586 4.812 1.75 1.188 1.168 1.782 2.883 1.782 5.14V0h-2.875v-8.813c0-1.539-.372-2.703-1.11-3.484-.742-.781-1.797-1.172-3.172-1.172-1.562 0-2.797.461-3.703 1.375-.898.906-1.344 2.211-1.344 3.906V0H2.734v-15.906h2.75v2.406c.582-.82 1.368-1.453 2.36-1.89.988-.438 2.113-.657 3.375-.657Zm0 0" style="stroke:none"/></symbol><symbol id="aw" overflow="visible"><path d="M16.094-21.89c2.77 0 5.242.578 7.422 1.734 2.175 1.148 3.875 2.758 5.093 4.828 1.22 2.074 1.828 4.445 1.828 7.11 0 2.624-.453 4.679-1.359 6.155-.906 1.481-2.168 2.22-3.781 2.22-1.012 0-1.836-.298-2.469-.891-.625-.602-.969-1.43-1.031-2.485a6.606 6.606 0 0 1-2.547 2.5c-1.074.586-2.293.875-3.656.875-1.45 0-2.758-.344-3.922-1.031A7.527 7.527 0 0 1 8.906-3.75c-.668-1.219-1-2.594-1-4.125 0-1.531.332-2.898 1-4.11a7.373 7.373 0 0 1 2.766-2.828c1.164-.687 2.473-1.03 3.922-1.03 1.32 0 2.515.288 3.578.859a6.665 6.665 0 0 1 2.562 2.39v-3.125h2.016v11.75c0 .824.172 1.422.516 1.797.351.375.82.563 1.406.563.969 0 1.734-.579 2.297-1.735.57-1.156.86-2.77.86-4.844 0-2.394-.54-4.503-1.61-6.328-1.074-1.832-2.578-3.254-4.516-4.265-1.93-1.02-4.133-1.532-6.61-1.532-2.5 0-4.718.528-6.655 1.579a11.269 11.269 0 0 0-4.516 4.406c-1.074 1.887-1.61 4.039-1.61 6.453 0 2.418.532 4.578 1.594 6.484a11.34 11.34 0 0 0 4.469 4.422c1.914 1.063 4.113 1.594 6.594 1.594.969 0 1.984-.117 3.047-.344a11.521 11.521 0 0 0 2.906-1.031l.515 1.531c-.886.446-1.914.797-3.078 1.047-1.168.25-2.297.375-3.39.375-2.813 0-5.309-.601-7.485-1.797-2.168-1.199-3.855-2.867-5.062-5-1.211-2.144-1.813-4.57-1.813-7.281 0-2.727.61-5.148 1.829-7.266 1.218-2.125 2.925-3.78 5.124-4.968 2.208-1.188 4.72-1.782 7.532-1.782Zm-.219 20.25c1.113 0 2.113-.255 3-.766a5.547 5.547 0 0 0 2.11-2.188c.519-.945.78-2.039.78-3.281 0-1.219-.261-2.297-.78-3.234-.512-.946-1.215-1.672-2.11-2.172-.887-.508-1.887-.766-3-.766-1.137 0-2.156.262-3.063.781a5.405 5.405 0 0 0-2.109 2.172c-.5.93-.75 2-.75 3.219 0 1.219.25 2.305.75 3.25a5.613 5.613 0 0 0 2.11 2.203c.906.524 1.925.781 3.062.781Zm0 0" style="stroke:none"/></symbol><symbol id="ax" overflow="visible"><path d="M17.953-23V0h-2.11v-3.219c-.667 1.094-1.542 1.934-2.624 2.516-1.086.574-2.309.86-3.672.86-1.531 0-2.918-.348-4.156-1.048a7.61 7.61 0 0 1-2.922-2.953c-.7-1.258-1.047-2.695-1.047-4.312 0-1.614.348-3.051 1.047-4.313A7.428 7.428 0 0 1 5.39-15.39c1.238-.695 2.625-1.046 4.156-1.046 1.32 0 2.515.277 3.578.828 1.063.554 1.938 1.355 2.625 2.406V-23ZM9.734-1.797c1.133 0 2.16-.258 3.079-.781a5.605 5.605 0 0 0 2.171-2.25c.532-.977.797-2.086.797-3.328 0-1.239-.265-2.344-.797-3.313a5.605 5.605 0 0 0-2.171-2.25c-.918-.531-1.946-.797-3.079-.797-1.156 0-2.199.266-3.125.797-.918.531-1.64 1.281-2.171 2.25-.524.969-.782 2.074-.782 3.313 0 1.242.258 2.351.781 3.328.532.969 1.254 1.719 2.172 2.25.926.523 1.97.781 3.125.781Zm0 0" style="stroke:none"/></symbol><symbol id="ay" overflow="visible"><path d="M9.734.156c-1.574 0-2.992-.351-4.25-1.062A7.89 7.89 0 0 1 2.5-3.875c-.719-1.258-1.078-2.688-1.078-4.281 0-1.594.36-3.02 1.078-4.281a7.702 7.702 0 0 1 2.984-2.938c1.258-.707 2.676-1.063 4.25-1.063 1.57 0 2.989.356 4.25 1.063a7.545 7.545 0 0 1 2.954 2.938c.718 1.261 1.078 2.687 1.078 4.28 0 1.595-.36 3.024-1.078 4.282a7.729 7.729 0 0 1-2.954 2.969c-1.261.71-2.68 1.062-4.25 1.062Zm0-1.953c1.157 0 2.192-.258 3.11-.781A5.493 5.493 0 0 0 15-4.828c.52-.977.781-2.086.781-3.328 0-1.239-.261-2.344-.781-3.313a5.493 5.493 0 0 0-2.156-2.25c-.918-.531-1.953-.797-3.11-.797-1.156 0-2.199.266-3.125.797-.918.531-1.64 1.281-2.171 2.25-.524.969-.782 2.074-.782 3.313 0 1.242.258 2.351.781 3.328.532.969 1.254 1.719 2.172 2.25.926.523 1.97.781 3.125.781Zm0 0" style="stroke:none"/></symbol><symbol id="az" overflow="visible"><path d="M9.828.156C8.211.156 6.77-.19 5.5-.89a7.69 7.69 0 0 1-3-2.968c-.719-1.27-1.078-2.704-1.078-4.297 0-1.594.36-3.02 1.078-4.281a7.664 7.664 0 0 1 3-2.938c1.27-.707 2.71-1.063 4.328-1.063 1.406 0 2.66.278 3.766.829a6.417 6.417 0 0 1 2.625 2.406l-1.657 1.11a5.128 5.128 0 0 0-2.046-1.813 5.991 5.991 0 0 0-2.688-.61c-1.18 0-2.242.266-3.187.797a5.654 5.654 0 0 0-2.204 2.25c-.523.969-.78 2.074-.78 3.313 0 1.261.257 2.375.78 3.344a5.664 5.664 0 0 0 2.204 2.234c.945.523 2.007.781 3.187.781.969 0 1.863-.191 2.688-.578.832-.395 1.515-1 2.046-1.813l1.657 1.125a6.334 6.334 0 0 1-2.64 2.407c-1.118.543-2.368.812-3.75.812Zm0 0" style="stroke:none"/></symbol><symbol id="aA" overflow="visible"><path d="M17.266-7.469H3.625c.125 1.7.773 3.07 1.953 4.11 1.176 1.043 2.664 1.562 4.469 1.562 1.008 0 1.937-.18 2.781-.547a6.094 6.094 0 0 0 2.203-1.594l1.25 1.422a7.069 7.069 0 0 1-2.718 2c-1.086.45-2.278.672-3.579.672-1.68 0-3.164-.351-4.453-1.062A7.799 7.799 0 0 1 2.5-3.875c-.719-1.258-1.078-2.688-1.078-4.281 0-1.594.344-3.02 1.031-4.281.695-1.258 1.649-2.239 2.86-2.938 1.207-.707 2.566-1.063 4.078-1.063 1.507 0 2.863.356 4.062 1.063a7.417 7.417 0 0 1 2.813 2.922c.687 1.25 1.03 2.683 1.03 4.297ZM9.39-14.53c-1.575 0-2.891.5-3.954 1.5-1.062 1-1.667 2.308-1.812 3.922h11.563c-.149-1.614-.75-2.922-1.813-3.922s-2.39-1.5-3.984-1.5Zm0 0" style="stroke:none"/></symbol><symbol id="aB" overflow="visible"><path d="M11.375-16.438c2.05 0 3.68.602 4.89 1.797 1.208 1.188 1.813 2.918 1.813 5.188V0h-2.203v-9.234c0-1.696-.43-2.989-1.281-3.875-.844-.895-2.055-1.344-3.625-1.344-1.75 0-3.14.527-4.172 1.578-1.024 1.043-1.531 2.48-1.531 4.313V0H3.062v-16.313h2.11v3.016c.601-.988 1.437-1.758 2.5-2.312 1.062-.551 2.297-.829 3.703-.829Zm0 0" style="stroke:none"/></symbol><symbol id="aC" overflow="visible"><path d="M11.656-.984c-.418.367-.933.648-1.547.843a6.117 6.117 0 0 1-1.89.297c-1.531 0-2.715-.41-3.547-1.234-.824-.832-1.234-2.004-1.234-3.516v-9.86H.53v-1.858h2.906v-3.563h2.204v3.563h4.968v1.859H5.641v9.734c0 .98.238 1.727.718 2.235.489.5 1.192.75 2.11.75.445 0 .883-.07 1.312-.22.426-.144.79-.35 1.094-.624Zm0 0" style="stroke:none"/></symbol><symbol id="aD" overflow="visible"><path d="M8.469-21.297c-.961 0-1.684.262-2.172.781-.48.512-.719 1.274-.719 2.282v1.922h5.031v1.859H5.641V0H3.437v-14.453H.531v-1.86h2.906v-2.015c0-1.477.426-2.649 1.282-3.516.863-.875 2.082-1.312 3.656-1.312.613 0 1.207.09 1.781.265.582.18 1.07.43 1.469.75l-.75 1.657c-.637-.54-1.438-.813-2.406-.813Zm0 0" style="stroke:none"/></symbol><symbol id="aE" overflow="visible"><path d="M3.063-23h2.203V0H3.062Zm0 0" style="stroke:none"/></symbol><symbol id="aF" overflow="visible"><path d="M3.063-16.313h2.203V0H3.062Zm1.124-3.562c-.46 0-.843-.148-1.156-.453a1.55 1.55 0 0 1-.453-1.125c0-.414.149-.774.453-1.078A1.567 1.567 0 0 1 4.187-23c.446 0 .829.152 1.141.453.313.293.469.649.469 1.063a1.574 1.574 0 0 1-1.61 1.61Zm0 0" style="stroke:none"/></symbol><symbol id="aG" overflow="visible"><path d="M11.469-16.438c1.531 0 2.914.352 4.156 1.047a7.364 7.364 0 0 1 2.906 2.922c.707 1.262 1.063 2.7 1.063 4.313 0 1.636-.356 3.086-1.063 4.344a7.467 7.467 0 0 1-2.89 2.937C14.41-.187 13.02.156 11.469.156c-1.324 0-2.516-.27-3.578-.812-1.063-.551-1.938-1.352-2.625-2.406v9.078H3.062v-22.328h2.11v3.234a6.905 6.905 0 0 1 2.625-2.485c1.082-.582 2.305-.874 3.672-.874Zm-.156 14.641c1.132 0 2.164-.258 3.093-.781a5.567 5.567 0 0 0 2.188-2.25c.531-.977.797-2.086.797-3.328 0-1.239-.266-2.336-.797-3.297a5.716 5.716 0 0 0-2.188-2.25c-.93-.54-1.96-.813-3.094-.813-1.156 0-2.199.274-3.124.813a5.867 5.867 0 0 0-2.172 2.25c-.524.96-.782 2.058-.782 3.297 0 1.242.258 2.351.782 3.328.53.969 1.254 1.719 2.171 2.25.926.523 1.97.781 3.126.781Zm0 0" style="stroke:none"/></symbol><symbol id="aH" overflow="visible"><path d="M8.766-16.438c2.132 0 3.77.54 4.906 1.61 1.133 1.062 1.703 2.637 1.703 4.719V0h-2.11v-2.547c-.492.856-1.218 1.524-2.187 2-.96.469-2.101.703-3.422.703-1.824 0-3.273-.43-4.343-1.297-1.075-.875-1.61-2.023-1.61-3.453 0-1.383.5-2.5 1.5-3.343C4.211-8.781 5.813-9.204 8-9.204h5.172v-1c0-1.406-.399-2.473-1.188-3.203-.78-.739-1.921-1.11-3.421-1.11A8.67 8.67 0 0 0 5.578-14c-.95.344-1.766.813-2.453 1.406l-.984-1.64c.82-.696 1.812-1.239 2.968-1.625a11.56 11.56 0 0 1 3.657-.579ZM8-1.578c1.238 0 2.3-.281 3.188-.844.894-.57 1.554-1.394 1.984-2.469v-2.671h-5.11c-2.792 0-4.187.968-4.187 2.906 0 .96.36 1.715 1.078 2.265.727.543 1.742.813 3.047.813Zm0 0" style="stroke:none"/></symbol><clipPath id="c"><path d="M135 37h421v641H135Zm0 0"/></clipPath><clipPath id="d"><path d="M3.102 179.5 531.05 5.918l173.582 527.945-527.95 173.582Zm0 0"/></clipPath><clipPath id="e"><path d="M3.102 179.5 531.05 5.918l173.582 527.945-527.95 173.582Zm0 0"/></clipPath><clipPath id="f"><path d="M184 95h319v535H184Zm0 0"/></clipPath><clipPath id="g"><path d="M3.102 179.5 531.05 5.918l173.582 527.945-527.95 173.582Zm0 0"/></clipPath><clipPath id="h"><path d="M3.102 179.5 531.05 5.918l173.582 527.945-527.95 173.582Zm0 0"/></clipPath><clipPath id="i"><path d="M230 105h228v348H230Zm0 0"/></clipPath><clipPath id="j"><path d="M3.102 179.5 531.05 5.918l173.582 527.945-527.95 173.582Zm0 0"/></clipPath><clipPath id="k"><path d="M3.102 179.5 531.05 5.918l173.582 527.945-527.95 173.582Zm0 0"/></clipPath><clipPath id="b"><path d="M0 0h698v708H0z"/></clipPath><clipPath id="l"><path d="M0 0h307v325H0z"/></clipPath><clipPath id="m"><path d="M0 0h307v325H0z"/></clipPath><clipPath id="aI"><path d="M321.125 729h59.25v48.75h-59.25Zm0 0"/></clipPath><clipPath id="aJ"><path d="M184 733h116.996v40H184Zm0 0"/></clipPath><clipPath id="aK"><path d="M183.996 732.879h117v40.5h-117Zm0 0"/></clipPath><mask id="o"><g filter="url(#a)"><path d="M0 0h810v810H0z" style="fill:#000;fill-opacity:.5176;stroke:none"/></g></mask><mask id="q"><g filter="url(#a)"><path d="M0 0h810v810H0z" style="fill:#000;fill-opacity:.498;stroke:none"/></g></mask><mask id="Q"><g filter="url(#a)"><path d="M0 0h810v810H0z" style="fill:#000;fill-opacity:.498;stroke:none"/></g></mask><g id="n" clip-path="url(#b)"><g clip-path="url(#c)"><g clip-path="url(#d)"><g clip-path="url(#e)"><path d="M510.875 45.852c-39.71-20.059-88.145-4.137-108.203 35.578l-12.285 24.37 57.793 29.208c7.949 4.015 11.136 13.703 7.113 21.637a16.06 16.06 0 0 1-9.344 8.042 16.073 16.073 0 0 1-12.293-.93l-57.773-29.195-21.664 42.938 57.765 29.164c7.946 4 11.13 13.688 7.114 21.637a16.072 16.072 0 0 1-9.344 8.043 16.072 16.072 0 0 1-12.293-.926l-57.746-29.156-21.766 43.136 57.696 29.157c7.949 4.015 11.132 13.703 7.113 21.64a16.066 16.066 0 0 1-9.344 8.04 16.054 16.054 0 0 1-12.293-.926l-57.691-29.141-21.758 43.152 57.668 29.133c7.95 4.016 11.129 13.688 7.113 21.637a16.072 16.072 0 0 1-9.344 8.043 16.073 16.073 0 0 1-12.293-.93l-57.648-29.117-21.762 43.152 57.61 29.102c7.949 4.015 11.129 13.687 7.113 21.637a16.063 16.063 0 0 1-9.344 8.039 16.065 16.065 0 0 1-12.297-.926l-57.601-29.082-18.274 36.277c-58.672 19.746-90.515 83.14-71.148 142.04 19.453 59.16 83.18 91.35 142.34 71.902 58.64-19.282 90.715-82.07 72.328-140.786l190.324-377.367c20.047-39.707 4.117-88.156-35.582-108.222Zm0 0" style="stroke:none;fill-rule:nonzero;fill:#ccd6dd;fill-opacity:1"/></g></g></g><g clip-path="url(#f)"><g clip-path="url(#g)"><g clip-path="url(#h)"><path d="M484.336 99.125c-15.879-8.023-35.254-1.652-43.274 14.227L245.234 501.023c-22.297 1.192-43.375 13.668-54.16 35.02-16.043 31.762-3.3 70.523 28.465 86.566 31.762 16.047 70.524 3.301 86.566-28.46 10.66-21.106 8.391-45.188-3.515-63.758l195.98-387.973c8.024-15.883 1.649-35.27-14.234-43.293Zm0 0" style="stroke:none;fill-rule:nonzero;fill:#d15b12;fill-opacity:1"/></g></g></g><g clip-path="url(#i)"><g clip-path="url(#j)"><g clip-path="url(#k)"><path d="M300.797 452.012a16.073 16.073 0 0 0 9.348-8.04c4.015-7.952.835-17.624-7.114-21.64l-57.61-29.098-14.503 28.762 57.602 29.086a15.995 15.995 0 0 0 12.277.93Zm36.328-71.887a16.052 16.052 0 0 0 9.344-8.04c4.015-7.952.836-17.62-7.114-21.64l-57.668-29.129-14.503 28.762 57.648 29.121a16.054 16.054 0 0 0 12.293.926Zm36.305-71.895a16.084 16.084 0 0 0 9.343-8.043c4.02-7.933.836-17.62-7.113-21.636l-57.695-29.156-14.504 28.761 57.687 29.14a16.024 16.024 0 0 0 12.282.934Zm36.316-71.902a16.066 16.066 0 0 0 9.348-8.043c4.015-7.95.832-17.637-7.117-21.637l-57.762-29.164-14.504 28.762 57.742 29.156a16.005 16.005 0 0 0 12.293.926Zm36.188-71.637a16.06 16.06 0 0 0 9.343-8.043c4.024-7.933.84-17.62-7.113-21.636l-57.793-29.207-14.504 28.761 57.774 29.2a16.094 16.094 0 0 0 12.293.925Zm0 0" style="stroke:none;fill-rule:nonzero;fill:#292f33;fill-opacity:1"/></g></g></g></g><g id="p" clip-path="url(#l)"><path d="M61.117 234.637c-8.847 4.761-17.707 4.941-25.863-4.043-15.32-16.895 5.7-24.621 20.004-27.77 11.855-2.613 25.101-13.531 27.953-25.652 2.629-11.145-1.473-21.57-12.816-26.848-3.965-1.847-7.993-4.418-12.352-5.097-4.324-.668-8.707-.07-13.059-.176-7.39-.184-13.136 2-20.254 3.84-7.3 1.894-16.968-1.43-20.64-8.25-3.117-5.793-1.235-13.16 2.605-18.11 4.72-6.074 10.258-8.445 17.762-8.386 15.5.117 44.863 29.082 57.152 7.796 9.563-16.55-31.738-42.472-37.226-56.754-4.848-12.605-5.18-34.66 7.96-42.75 36.06-22.19 49.512 46.848 59.876 66.137 32.87 61.164 37.988-13.742 61.031-29.605 13.684-9.418 31.129-7.172 34.809 7.199 5.468 21.32-28.508 34.008-26.016 48.363 6.2 35.649 88.281 17.422 110.828 37.707 10.059 9.047 12.617 17.164 7.707 30.563-9.644 26.344-29.39 19.062-50.805 13.894-10.523-2.539-20.808-7.715-31.89-7.187-4.88.23-10.633 1.84-13.086 6.543-3.3 6.328 2.668 10.777 6.375 15.219 4.676 5.605 6.043 14.625 1.5 20.8-6.54 8.899-17.711 10.399-26.043 3.368-10.418-8.797-9.59-39.493-29.125-36.88-15.27 2.055-9.54 25.645-13.973 35.38-6.535 14.359-30.582 20.054-37.625 3.156-3.535-8.485-.547-22.309-10.933-25.176-11.516-3.188-19.485 12.387-27.184 18.324-2.21 1.715-4.445 3.2-6.672 4.395ZM139.934 286.41c9.12 4.695 12.707 15.895 8.007 25.02-4.699 9.125-15.898 12.71-25.02 8.015-9.12-4.707-12.71-15.906-8.007-25.027 4.7-9.121 15.898-12.711 25.02-8.008Zm0 0" style="stroke:none;fill-rule:nonzero;fill:#f4bc33;fill-opacity:1"/></g><g id="P" clip-path="url(#m)"><path d="M245.883 89.645c8.844-4.762 17.707-4.942 25.863 4.046 15.32 16.891-5.703 24.621-20.008 27.77-11.855 2.61-25.101 13.531-27.953 25.648-2.625 11.145 1.477 21.575 12.82 26.852 3.965 1.844 7.993 4.418 12.348 5.098 4.328.668 8.711.066 13.063.171 7.39.188 13.136-2 20.254-3.84 7.3-1.894 16.968 1.434 20.64 8.25 3.117 5.794 1.235 13.165-2.61 18.11-4.714 6.074-10.253 8.445-17.757 8.387-15.5-.117-44.863-29.078-57.152-7.793-9.567 16.55 31.738 42.469 37.226 56.754 4.844 12.601 5.176 34.656-7.96 42.746-36.06 22.191-49.516-46.844-59.876-66.137-32.87-61.164-37.992 13.746-61.035 29.606-13.684 9.417-31.125 7.171-34.805-7.2-5.468-21.32 28.508-34.004 26.012-48.36-6.195-35.651-88.281-17.425-110.828-37.706-10.059-9.05-12.613-17.164-7.707-30.563 9.645-26.343 29.39-19.066 50.805-13.894 10.527 2.539 20.808 7.715 31.894 7.187 4.88-.23 10.63-1.84 13.082-6.547 3.305-6.328-2.664-10.777-6.37-15.214-4.677-5.61-6.048-14.625-1.505-20.805 6.54-8.898 17.711-10.395 26.047-3.367 10.418 8.8 9.59 39.496 29.121 36.879 15.27-2.051 9.543-25.641 13.973-35.38 6.539-14.355 30.586-20.05 37.625-3.156 3.539 8.485.55 22.31 10.937 25.18 11.516 3.188 19.48-12.39 27.184-18.324 2.207-1.715 4.441-3.2 6.672-4.398ZM167.066 37.871c-9.125-4.695-12.707-15.894-8.007-25.016 4.699-9.128 15.898-12.714 25.015-8.015 9.125 4.703 12.711 15.902 8.012 25.027-4.7 9.117-15.899 12.711-25.02 8.004Zm0 0" style="stroke:none;fill-rule:nonzero;fill:#f4bc33;fill-opacity:1"/></g><filter id="a" width="100%" height="100%" x="0%" y="0%" filterUnits="objectBoundingBox"><feColorMatrix in="SourceGraphic" values="0 0 0 0 1 0 0 0 0 1 0 0 0 0 1 0 0 0 1 0"/></filter></defs><path d="M0 0h810v810H0z" style="fill:#fff;fill-opacity:1;stroke:none"/><path d="M0 0h810v810H0z" style="fill:#fff;fill-opacity:1;stroke:none"/><path d="M0 0h810v810H0z" style="fill:#fff;fill-opacity:1;stroke:none"/><use xlink:href="#n" mask="url(#o)" transform="translate(63 36)"/><use xlink:href="#p" mask="url(#q)" transform="translate(80 209)"/><use xlink:href="#r" x="42.129" y="135.203" style="fill:#ff1616;fill-opacity:1"/><use xlink:href="#s" x="59.799" y="135.203" style="fill:#ff1616;fill-opacity:1"/><use xlink:href="#t" x="77.499" y="135.203" style="fill:#ff1616;fill-opacity:1"/><use xlink:href="#u" x="85.359" y="135.203" style="fill:#ff1616;fill-opacity:1"/><use xlink:href="#v" x="97.539" y="135.203" style="fill:#ff1616;fill-opacity:1"/><use xlink:href="#w" x="115.659" y="135.203" style="fill:#ff1616;fill-opacity:1"/><use xlink:href="#x" x="147.489" y="135.203" style="fill:#ff1616;fill-opacity:1"/><use xlink:href="#v" x="167.829" y="135.203" style="fill:#ff1616;fill-opacity:1"/><use xlink:href="#y" x="185.949" y="135.203" style="fill:#ff1616;fill-opacity:1"/><use xlink:href="#s" x="197.979" y="135.203" style="fill:#ff1616;fill-opacity:1"/><use xlink:href="#u" x="215.679" y="135.203" style="fill:#ff1616;fill-opacity:1"/><use xlink:href="#z" x="227.859" y="135.203" style="fill:#ff1616;fill-opacity:1"/><use xlink:href="#y" x="248.049" y="135.203" style="fill:#ff1616;fill-opacity:1"/><use xlink:href="#s" x="260.079" y="135.203" style="fill:#ff1616;fill-opacity:1"/><use xlink:href="#t" x="277.779" y="135.203" style="fill:#ff1616;fill-opacity:1"/><use xlink:href="#v" x="285.639" y="135.203" style="fill:#ff1616;fill-opacity:1"/><use xlink:href="#A" x="303.759" y="135.203" style="fill:#ff1616;fill-opacity:1"/><use xlink:href="#x" x="319.779" y="135.203" style="fill:#ff1616;fill-opacity:1"/><use xlink:href="#y" x="340.119" y="135.203" style="fill:#ff1616;fill-opacity:1"/><use xlink:href="#v" x="352.149" y="135.203" style="fill:#ff1616;fill-opacity:1"/><use xlink:href="#B" x="370.269" y="135.203" style="fill:#ff1616;fill-opacity:1"/><use xlink:href="#s" x="384.939" y="135.203" style="fill:#ff1616;fill-opacity:1"/><use xlink:href="#C" x="402.639" y="135.203" style="fill:#ff1616;fill-opacity:1"/><use xlink:href="#s" x="422.979" y="135.203" style="fill:#ff1616;fill-opacity:1"/><use xlink:href="#t" x="440.679" y="135.203" style="fill:#ff1616;fill-opacity:1"/><use xlink:href="#v" x="448.539" y="135.203" style="fill:#ff1616;fill-opacity:1"/><use xlink:href="#D" x="466.659" y="135.203" style="fill:#ff1616;fill-opacity:1"/><use xlink:href="#t" x="486.968" y="135.203" style="fill:#ff1616;fill-opacity:1"/><use xlink:href="#E" x="494.828" y="135.203" style="fill:#ff1616;fill-opacity:1"/><use xlink:href="#s" x="502.898" y="135.203" style="fill:#ff1616;fill-opacity:1"/><use xlink:href="#t" x="520.598" y="135.203" style="fill:#ff1616;fill-opacity:1"/><use xlink:href="#v" x="528.458" y="135.203" style="fill:#ff1616;fill-opacity:1"/><use xlink:href="#B" x="546.578" y="135.203" style="fill:#ff1616;fill-opacity:1"/><use xlink:href="#F" x="561.248" y="135.203" style="fill:#ff1616;fill-opacity:1"/><use xlink:href="#s" x="578.138" y="135.203" style="fill:#ff1616;fill-opacity:1"/><use xlink:href="#E" x="595.838" y="135.203" style="fill:#ff1616;fill-opacity:1"/><use xlink:href="#s" x="603.908" y="135.203" style="fill:#ff1616;fill-opacity:1"/><use xlink:href="#t" x="621.608" y="135.203" style="fill:#ff1616;fill-opacity:1"/><use xlink:href="#s" x="629.468" y="135.203" style="fill:#ff1616;fill-opacity:1"/><use xlink:href="#G" x="647.168" y="135.203" style="fill:#ff1616;fill-opacity:1"/><use xlink:href="#B" x="667.508" y="135.203" style="fill:#ff1616;fill-opacity:1"/><use xlink:href="#H" x="682.178" y="135.203" style="fill:#ff1616;fill-opacity:1"/><use xlink:href="#E" x="700.988" y="135.203" style="fill:#ff1616;fill-opacity:1"/><use xlink:href="#z" x="709.058" y="135.203" style="fill:#ff1616;fill-opacity:1"/><use xlink:href="#u" x="729.248" y="135.203" style="fill:#ff1616;fill-opacity:1"/><use xlink:href="#s" x="741.428" y="135.203" style="fill:#ff1616;fill-opacity:1"/><use xlink:href="#B" x="42.129" y="177.203" style="fill:#ff1616;fill-opacity:1"/><use xlink:href="#v" x="56.799" y="177.203" style="fill:#ff1616;fill-opacity:1"/><use xlink:href="#t" x="74.919" y="177.203" style="fill:#ff1616;fill-opacity:1"/><use xlink:href="#B" x="82.779" y="177.203" style="fill:#ff1616;fill-opacity:1"/><use xlink:href="#I" x="97.449" y="177.203" style="fill:#ff1616;fill-opacity:1"/><use xlink:href="#w" x="105.519" y="177.203" style="fill:#ff1616;fill-opacity:1"/><use xlink:href="#G" x="137.349" y="177.203" style="fill:#ff1616;fill-opacity:1"/><use xlink:href="#H" x="157.689" y="177.203" style="fill:#ff1616;fill-opacity:1"/><use xlink:href="#E" x="176.499" y="177.203" style="fill:#ff1616;fill-opacity:1"/><use xlink:href="#I" x="184.569" y="177.203" style="fill:#ff1616;fill-opacity:1"/><use xlink:href="#J" x="192.639" y="177.203" style="fill:#ff1616;fill-opacity:1"/><use xlink:href="#s" x="207.969" y="177.203" style="fill:#ff1616;fill-opacity:1"/><use xlink:href="#t" x="225.669" y="177.203" style="fill:#ff1616;fill-opacity:1"/><use xlink:href="#F" x="233.529" y="177.203" style="fill:#ff1616;fill-opacity:1"/><use xlink:href="#H" x="250.419" y="177.203" style="fill:#ff1616;fill-opacity:1"/><use xlink:href="#D" x="269.229" y="177.203" style="fill:#ff1616;fill-opacity:1"/><use xlink:href="#t" x="289.539" y="177.203" style="fill:#ff1616;fill-opacity:1"/><use xlink:href="#z" x="297.399" y="177.203" style="fill:#ff1616;fill-opacity:1"/><use xlink:href="#D" x="317.589" y="177.203" style="fill:#ff1616;fill-opacity:1"/><use xlink:href="#s" x="337.899" y="177.203" style="fill:#ff1616;fill-opacity:1"/><use xlink:href="#t" x="355.599" y="177.203" style="fill:#ff1616;fill-opacity:1"/><use xlink:href="#K" x="363.459" y="177.203" style="fill:#ff1616;fill-opacity:1"/><use xlink:href="#t" x="384.789" y="177.203" style="fill:#ff1616;fill-opacity:1"/><use xlink:href="#L" x="392.649" y="177.203" style="fill:#ff1616;fill-opacity:1"/><use xlink:href="#t" x="408.909" y="177.203" style="fill:#ff1616;fill-opacity:1"/><use xlink:href="#B" x="416.769" y="177.203" style="fill:#ff1616;fill-opacity:1"/><use xlink:href="#I" x="431.439" y="177.203" style="fill:#ff1616;fill-opacity:1"/><use xlink:href="#D" x="439.509" y="177.203" style="fill:#ff1616;fill-opacity:1"/><use xlink:href="#t" x="459.819" y="177.203" style="fill:#ff1616;fill-opacity:1"/><use xlink:href="#v" x="467.678" y="177.203" style="fill:#ff1616;fill-opacity:1"/><use xlink:href="#w" x="485.798" y="177.203" style="fill:#ff1616;fill-opacity:1"/><use xlink:href="#G" x="517.628" y="177.203" style="fill:#ff1616;fill-opacity:1"/><use xlink:href="#s" x="537.968" y="177.203" style="fill:#ff1616;fill-opacity:1"/><use xlink:href="#y" x="555.668" y="177.203" style="fill:#ff1616;fill-opacity:1"/><use xlink:href="#M" x="567.698" y="177.203" style="fill:#ff1616;fill-opacity:1"/><use xlink:href="#H" x="588.278" y="177.203" style="fill:#ff1616;fill-opacity:1"/><use xlink:href="#t" x="607.088" y="177.203" style="fill:#ff1616;fill-opacity:1"/><use xlink:href="#D" x="614.948" y="177.203" style="fill:#ff1616;fill-opacity:1"/><use xlink:href="#z" x="635.258" y="177.203" style="fill:#ff1616;fill-opacity:1"/><use xlink:href="#D" x="655.448" y="177.203" style="fill:#ff1616;fill-opacity:1"/><use xlink:href="#F" x="675.758" y="177.203" style="fill:#ff1616;fill-opacity:1"/><use xlink:href="#s" x="692.648" y="177.203" style="fill:#ff1616;fill-opacity:1"/><use xlink:href="#C" x="42.129" y="219.203" style="fill:#ff1616;fill-opacity:1"/><use xlink:href="#v" x="62.469" y="219.203" style="fill:#ff1616;fill-opacity:1"/><use xlink:href="#G" x="80.589" y="219.203" style="fill:#ff1616;fill-opacity:1"/><use xlink:href="#v" x="100.929" y="219.203" style="fill:#ff1616;fill-opacity:1"/><use xlink:href="#t" x="119.049" y="219.203" style="fill:#ff1616;fill-opacity:1"/><use xlink:href="#x" x="126.909" y="219.203" style="fill:#ff1616;fill-opacity:1"/><use xlink:href="#H" x="147.249" y="219.203" style="fill:#ff1616;fill-opacity:1"/><use xlink:href="#D" x="166.059" y="219.203" style="fill:#ff1616;fill-opacity:1"/><use xlink:href="#v" x="186.369" y="219.203" style="fill:#ff1616;fill-opacity:1"/><use xlink:href="#y" x="204.489" y="219.203" style="fill:#ff1616;fill-opacity:1"/><use xlink:href="#B" x="216.519" y="219.203" style="fill:#ff1616;fill-opacity:1"/><use xlink:href="#v" x="231.189" y="219.203" style="fill:#ff1616;fill-opacity:1"/><use xlink:href="#t" x="249.309" y="219.203" style="fill:#ff1616;fill-opacity:1"/><use xlink:href="#N" x="257.169" y="219.203" style="fill:#ff1616;fill-opacity:1"/><use xlink:href="#K" x="269.589" y="219.203" style="fill:#ff1616;fill-opacity:1"/><use xlink:href="#O" x="290.919" y="219.203" style="fill:#ff1616;fill-opacity:1"/><use xlink:href="#P" mask="url(#Q)" transform="translate(423 209)"/><use xlink:href="#R" x="37.465" y="90.703" style="fill:#d15b12;fill-opacity:1"/><use xlink:href="#S" x="75.615" y="90.703" style="fill:#d15b12;fill-opacity:1"/><use xlink:href="#T" x="115.391" y="90.703" style="fill:#d15b12;fill-opacity:1"/><use xlink:href="#U" x="184.087" y="90.703" style="fill:#d15b12;fill-opacity:1"/><use xlink:href="#S" x="228.412" y="90.703" style="fill:#d15b12;fill-opacity:1"/><use xlink:href="#V" x="268.187" y="90.703" style="fill:#d15b12;fill-opacity:1"/><use xlink:href="#W" x="294.834" y="90.703" style="fill:#d15b12;fill-opacity:1"/><use xlink:href="#X" x="333.7" y="90.703" style="fill:#d15b12;fill-opacity:1"/><use xlink:href="#Y" x="360.606" y="90.703" style="fill:#d15b12;fill-opacity:1"/><use xlink:href="#V" x="404.606" y="90.703" style="fill:#d15b12;fill-opacity:1"/><use xlink:href="#W" x="431.253" y="90.703" style="fill:#d15b12;fill-opacity:1"/><use xlink:href="#Z" x="470.118" y="90.703" style="fill:#d15b12;fill-opacity:1"/><use xlink:href="#W" x="487.601" y="90.703" style="fill:#d15b12;fill-opacity:1"/><use xlink:href="#aa" x="526.467" y="90.703" style="fill:#d15b12;fill-opacity:1"/><use xlink:href="#ab" x="570.791" y="90.703" style="fill:#d15b12;fill-opacity:1"/><use xlink:href="#ac" x="603.352" y="90.703" style="fill:#d15b12;fill-opacity:1"/><use xlink:href="#ad" x="644.622" y="90.703" style="fill:#d15b12;fill-opacity:1"/><use xlink:href="#Y" x="662.755" y="90.703" style="fill:#d15b12;fill-opacity:1"/><use xlink:href="#X" x="706.755" y="90.703" style="fill:#d15b12;fill-opacity:1"/><use xlink:href="#W" x="733.662" y="90.703" style="fill:#d15b12;fill-opacity:1"/><use xlink:href="#ae" x="42.129" y="581.248" style="fill:#ff1616;fill-opacity:1"/><use xlink:href="#H" x="63.669" y="581.248" style="fill:#ff1616;fill-opacity:1"/><use xlink:href="#y" x="82.479" y="581.248" style="fill:#ff1616;fill-opacity:1"/><use xlink:href="#t" x="94.509" y="581.248" style="fill:#ff1616;fill-opacity:1"/><use xlink:href="#v" x="102.369" y="581.248" style="fill:#ff1616;fill-opacity:1"/><use xlink:href="#B" x="120.489" y="581.248" style="fill:#ff1616;fill-opacity:1"/><use xlink:href="#v" x="135.159" y="581.248" style="fill:#ff1616;fill-opacity:1"/><use xlink:href="#t" x="153.279" y="581.248" style="fill:#ff1616;fill-opacity:1"/><use xlink:href="#w" x="161.139" y="581.248" style="fill:#ff1616;fill-opacity:1"/><use xlink:href="#I" x="192.969" y="581.248" style="fill:#ff1616;fill-opacity:1"/><use xlink:href="#B" x="201.039" y="581.248" style="fill:#ff1616;fill-opacity:1"/><use xlink:href="#w" x="215.709" y="581.248" style="fill:#ff1616;fill-opacity:1"/><use xlink:href="#H" x="247.539" y="581.248" style="fill:#ff1616;fill-opacity:1"/><use xlink:href="#t" x="266.349" y="581.248" style="fill:#ff1616;fill-opacity:1"/><use xlink:href="#w" x="274.209" y="581.248" style="fill:#ff1616;fill-opacity:1"/><use xlink:href="#H" x="306.039" y="581.248" style="fill:#ff1616;fill-opacity:1"/><use xlink:href="#u" x="324.849" y="581.248" style="fill:#ff1616;fill-opacity:1"/><use xlink:href="#I" x="337.029" y="581.248" style="fill:#ff1616;fill-opacity:1"/><use xlink:href="#af" x="345.099" y="581.248" style="fill:#ff1616;fill-opacity:1"/><use xlink:href="#H" x="361.359" y="581.248" style="fill:#ff1616;fill-opacity:1"/><use xlink:href="#t" x="380.169" y="581.248" style="fill:#ff1616;fill-opacity:1"/><use xlink:href="#v" x="388.029" y="581.248" style="fill:#ff1616;fill-opacity:1"/><use xlink:href="#E" x="406.149" y="581.248" style="fill:#ff1616;fill-opacity:1"/><use xlink:href="#t" x="414.219" y="581.248" style="fill:#ff1616;fill-opacity:1"/><use xlink:href="#D" x="422.079" y="581.248" style="fill:#ff1616;fill-opacity:1"/><use xlink:href="#H" x="442.388" y="581.248" style="fill:#ff1616;fill-opacity:1"/><use xlink:href="#w" x="461.198" y="581.248" style="fill:#ff1616;fill-opacity:1"/><use xlink:href="#G" x="493.028" y="581.248" style="fill:#ff1616;fill-opacity:1"/><use xlink:href="#y" x="513.368" y="581.248" style="fill:#ff1616;fill-opacity:1"/><use xlink:href="#v" x="525.398" y="581.248" style="fill:#ff1616;fill-opacity:1"/><use xlink:href="#t" x="543.518" y="581.248" style="fill:#ff1616;fill-opacity:1"/><use xlink:href="#C" x="551.378" y="581.248" style="fill:#ff1616;fill-opacity:1"/><use xlink:href="#v" x="571.718" y="581.248" style="fill:#ff1616;fill-opacity:1"/><use xlink:href="#t" x="589.838" y="581.248" style="fill:#ff1616;fill-opacity:1"/><use xlink:href="#E" x="597.698" y="581.248" style="fill:#ff1616;fill-opacity:1"/><use xlink:href="#s" x="605.768" y="581.248" style="fill:#ff1616;fill-opacity:1"/><use xlink:href="#t" x="623.468" y="581.248" style="fill:#ff1616;fill-opacity:1"/><use xlink:href="#z" x="631.328" y="581.248" style="fill:#ff1616;fill-opacity:1"/><use xlink:href="#D" x="651.518" y="581.248" style="fill:#ff1616;fill-opacity:1"/><use xlink:href="#I" x="671.828" y="581.248" style="fill:#ff1616;fill-opacity:1"/><use xlink:href="#C" x="679.898" y="581.248" style="fill:#ff1616;fill-opacity:1"/><use xlink:href="#s" x="700.238" y="581.248" style="fill:#ff1616;fill-opacity:1"/><use xlink:href="#C" x="717.938" y="581.248" style="fill:#ff1616;fill-opacity:1"/><use xlink:href="#v" x="42.129" y="623.248" style="fill:#ff1616;fill-opacity:1"/><use xlink:href="#B" x="60.249" y="623.248" style="fill:#ff1616;fill-opacity:1"/><use xlink:href="#t" x="74.919" y="623.248" style="fill:#ff1616;fill-opacity:1"/><use xlink:href="#v" x="82.779" y="623.248" style="fill:#ff1616;fill-opacity:1"/><use xlink:href="#E" x="100.899" y="623.248" style="fill:#ff1616;fill-opacity:1"/><use xlink:href="#t" x="108.969" y="623.248" style="fill:#ff1616;fill-opacity:1"/><use xlink:href="#ag" x="116.824" y="623.248" style="fill:#ff1616;fill-opacity:1"/><use xlink:href="#ah" x="138.394" y="623.248" style="fill:#ff1616;fill-opacity:1"/><use xlink:href="#ai" x="156.754" y="623.248" style="fill:#ff1616;fill-opacity:1"/><use xlink:href="#aj" x="165.124" y="623.248" style="fill:#ff1616;fill-opacity:1"/><use xlink:href="#ak" x="181.894" y="623.248" style="fill:#ff1616;fill-opacity:1"/><use xlink:href="#al" x="190.264" y="623.248" style="fill:#ff1616;fill-opacity:1"/><use xlink:href="#am" x="210.691" y="623.248" style="fill:#ff1616;fill-opacity:1"/><use xlink:href="#t" x="217.051" y="623.248" style="fill:#ff1616;fill-opacity:1"/><use xlink:href="#L" x="224.911" y="623.248" style="fill:#ff1616;fill-opacity:1"/><use xlink:href="#t" x="241.171" y="623.248" style="fill:#ff1616;fill-opacity:1"/><use xlink:href="#D" x="249.031" y="623.248" style="fill:#ff1616;fill-opacity:1"/><use xlink:href="#z" x="269.341" y="623.248" style="fill:#ff1616;fill-opacity:1"/><use xlink:href="#D" x="289.531" y="623.248" style="fill:#ff1616;fill-opacity:1"/><use xlink:href="#F" x="309.841" y="623.248" style="fill:#ff1616;fill-opacity:1"/><use xlink:href="#s" x="326.731" y="623.248" style="fill:#ff1616;fill-opacity:1"/><use xlink:href="#t" x="344.431" y="623.248" style="fill:#ff1616;fill-opacity:1"/><use xlink:href="#C" x="352.291" y="623.248" style="fill:#ff1616;fill-opacity:1"/><use xlink:href="#v" x="372.631" y="623.248" style="fill:#ff1616;fill-opacity:1"/><use xlink:href="#G" x="390.751" y="623.248" style="fill:#ff1616;fill-opacity:1"/><use xlink:href="#v" x="411.091" y="623.248" style="fill:#ff1616;fill-opacity:1"/><use xlink:href="#t" x="429.211" y="623.248" style="fill:#ff1616;fill-opacity:1"/><use xlink:href="#D" x="437.071" y="623.248" style="fill:#ff1616;fill-opacity:1"/><use xlink:href="#H" x="457.381" y="623.248" style="fill:#ff1616;fill-opacity:1"/><use xlink:href="#w" x="476.191" y="623.248" style="fill:#ff1616;fill-opacity:1"/><use xlink:href="#G" x="508.021" y="623.248" style="fill:#ff1616;fill-opacity:1"/><use xlink:href="#y" x="528.361" y="623.248" style="fill:#ff1616;fill-opacity:1"/><use xlink:href="#s" x="540.391" y="623.248" style="fill:#ff1616;fill-opacity:1"/><use xlink:href="#y" x="558.091" y="623.248" style="fill:#ff1616;fill-opacity:1"/><use xlink:href="#B" x="570.121" y="623.248" style="fill:#ff1616;fill-opacity:1"/><use xlink:href="#v" x="584.791" y="623.248" style="fill:#ff1616;fill-opacity:1"/><use xlink:href="#t" x="602.911" y="623.248" style="fill:#ff1616;fill-opacity:1"/><use xlink:href="#F" x="610.771" y="623.248" style="fill:#ff1616;fill-opacity:1"/><use xlink:href="#H" x="627.661" y="623.248" style="fill:#ff1616;fill-opacity:1"/><use xlink:href="#w" x="646.471" y="623.248" style="fill:#ff1616;fill-opacity:1"/><use xlink:href="#H" x="678.301" y="623.248" style="fill:#ff1616;fill-opacity:1"/><use xlink:href="#M" x="42.129" y="665.248" style="fill:#ff1616;fill-opacity:1"/><use xlink:href="#y" x="62.709" y="665.248" style="fill:#ff1616;fill-opacity:1"/><use xlink:href="#s" x="74.739" y="665.248" style="fill:#ff1616;fill-opacity:1"/><use xlink:href="#C" x="92.439" y="665.248" style="fill:#ff1616;fill-opacity:1"/><use xlink:href="#H" x="112.779" y="665.248" style="fill:#ff1616;fill-opacity:1"/><use xlink:href="#B" x="131.589" y="665.248" style="fill:#ff1616;fill-opacity:1"/><use xlink:href="#t" x="146.259" y="665.248" style="fill:#ff1616;fill-opacity:1"/><use xlink:href="#K" x="154.119" y="665.248" style="fill:#ff1616;fill-opacity:1"/><use xlink:href="#v" x="175.449" y="665.248" style="fill:#ff1616;fill-opacity:1"/><use xlink:href="#E" x="193.569" y="665.248" style="fill:#ff1616;fill-opacity:1"/><use xlink:href="#af" x="201.639" y="665.248" style="fill:#ff1616;fill-opacity:1"/><use xlink:href="#I" x="217.899" y="665.248" style="fill:#ff1616;fill-opacity:1"/><use xlink:href="#D" x="225.969" y="665.248" style="fill:#ff1616;fill-opacity:1"/><use xlink:href="#O" x="246.279" y="665.248" style="fill:#ff1616;fill-opacity:1"/><use xlink:href="#t" x="252.633" y="665.248" style="fill:#ff1616;fill-opacity:1"/><use xlink:href="#an" x="168.055" y="360.641" style="fill:#008037;fill-opacity:1"/><use xlink:href="#H" x="189.625" y="360.641" style="fill:#008037;fill-opacity:1"/><use xlink:href="#y" x="208.435" y="360.641" style="fill:#008037;fill-opacity:1"/><use xlink:href="#y" x="220.465" y="360.641" style="fill:#008037;fill-opacity:1"/><use xlink:href="#v" x="232.495" y="360.641" style="fill:#008037;fill-opacity:1"/><use xlink:href="#F" x="250.615" y="360.641" style="fill:#008037;fill-opacity:1"/><use xlink:href="#u" x="267.505" y="360.641" style="fill:#008037;fill-opacity:1"/><use xlink:href="#H" x="279.685" y="360.641" style="fill:#008037;fill-opacity:1"/><use xlink:href="#ao" x="167.774" y="402.641" style="fill:#008037;fill-opacity:1"/><use xlink:href="#t" x="184.994" y="402.641" style="fill:#008037;fill-opacity:1"/><use xlink:href="#ap" x="192.854" y="402.641" style="fill:#008037;fill-opacity:1"/><use xlink:href="#t" x="210.104" y="402.641" style="fill:#008037;fill-opacity:1"/><use xlink:href="#aq" x="217.964" y="402.641" style="fill:#008037;fill-opacity:1"/><use xlink:href="#ar" x="235.004" y="402.641" style="fill:#008037;fill-opacity:1"/><use xlink:href="#as" x="252.674" y="402.641" style="fill:#008037;fill-opacity:1"/><use xlink:href="#t" x="269.594" y="402.641" style="fill:#008037;fill-opacity:1"/><use xlink:href="#K" x="277.454" y="402.641" style="fill:#008037;fill-opacity:1"/><use xlink:href="#at" x="499.155" y="360.641" style="fill:#ff1616;fill-opacity:1"/><use xlink:href="#D" x="508.215" y="360.641" style="fill:#ff1616;fill-opacity:1"/><use xlink:href="#F" x="528.525" y="360.641" style="fill:#ff1616;fill-opacity:1"/><use xlink:href="#H" x="545.415" y="360.641" style="fill:#ff1616;fill-opacity:1"/><use xlink:href="#y" x="564.225" y="360.641" style="fill:#ff1616;fill-opacity:1"/><use xlink:href="#y" x="576.255" y="360.641" style="fill:#ff1616;fill-opacity:1"/><use xlink:href="#v" x="588.285" y="360.641" style="fill:#ff1616;fill-opacity:1"/><use xlink:href="#F" x="606.405" y="360.641" style="fill:#ff1616;fill-opacity:1"/><use xlink:href="#u" x="623.295" y="360.641" style="fill:#ff1616;fill-opacity:1"/><use xlink:href="#H" x="635.475" y="360.641" style="fill:#ff1616;fill-opacity:1"/><use xlink:href="#ao" x="506.655" y="402.641" style="fill:#ff1616;fill-opacity:1"/><use xlink:href="#t" x="523.875" y="402.641" style="fill:#ff1616;fill-opacity:1"/><use xlink:href="#ap" x="531.735" y="402.641" style="fill:#ff1616;fill-opacity:1"/><use xlink:href="#t" x="548.985" y="402.641" style="fill:#ff1616;fill-opacity:1"/><use xlink:href="#au" x="556.845" y="402.641" style="fill:#ff1616;fill-opacity:1"/><use xlink:href="#av" x="567.675" y="402.641" style="fill:#ff1616;fill-opacity:1"/><use xlink:href="#ar" x="587.505" y="402.641" style="fill:#ff1616;fill-opacity:1"/><use xlink:href="#t" x="605.175" y="402.641" style="fill:#ff1616;fill-opacity:1"/><use xlink:href="#N" x="613.035" y="402.641" style="fill:#ff1616;fill-opacity:1"/><use xlink:href="#K" x="625.455" y="402.641" style="fill:#ff1616;fill-opacity:1"/><use xlink:href="#aw" x="383.027" y="764.163" style="fill:#ff1616;fill-opacity:1"/><use xlink:href="#ax" x="415.046" y="764.163" style="fill:#ff1616;fill-opacity:1"/><use xlink:href="#ay" x="436.061" y="764.163" style="fill:#ff1616;fill-opacity:1"/><use xlink:href="#az" x="455.496" y="764.163" style="fill:#ff1616;fill-opacity:1"/><use xlink:href="#aA" x="472.947" y="764.163" style="fill:#ff1616;fill-opacity:1"/><use xlink:href="#aB" x="491.668" y="764.163" style="fill:#ff1616;fill-opacity:1"/><use xlink:href="#aC" x="512.653" y="764.163" style="fill:#ff1616;fill-opacity:1"/><use xlink:href="#aA" x="525.237" y="764.163" style="fill:#ff1616;fill-opacity:1"/><use xlink:href="#aD" x="543.959" y="764.163" style="fill:#ff1616;fill-opacity:1"/><use xlink:href="#aE" x="554.467" y="764.163" style="fill:#ff1616;fill-opacity:1"/><use xlink:href="#aF" x="562.805" y="764.163" style="fill:#ff1616;fill-opacity:1"/><use xlink:href="#aG" x="571.143" y="764.163" style="fill:#ff1616;fill-opacity:1"/><use xlink:href="#aH" x="592.158" y="764.163" style="fill:#ff1616;fill-opacity:1"/><use xlink:href="#ax" x="610.446" y="764.163" style="fill:#ff1616;fill-opacity:1"/><use xlink:href="#ay" x="631.461" y="764.163" style="fill:#ff1616;fill-opacity:1"/><g clip-path="url(#aI)"><path d="M374.133 741.258c.035.515.035 1.035.035 1.558 0 15.95-12.129 34.34-34.305 34.34v-.011a34.056 34.056 0 0 1-18.476-5.41c.949.117 1.91.171 2.867.175a24.205 24.205 0 0 0 14.973-5.176 12.07 12.07 0 0 1-11.262-8.382 11.97 11.97 0 0 0 5.441-.207 12.06 12.06 0 0 1-9.668-11.829v-.152a11.937 11.937 0 0 0 5.469 1.508c-5.297-3.543-6.93-10.598-3.73-16.113a34.207 34.207 0 0 0 24.847 12.609 12.08 12.08 0 0 1 3.488-11.531c4.856-4.57 12.493-4.336 17.055.523a24.11 24.11 0 0 0 7.656-2.93 12.113 12.113 0 0 1-5.3 6.676 23.855 23.855 0 0 0 6.925-1.902 24.62 24.62 0 0 1-6.015 6.254Zm0 0" style="stroke:none;fill-rule:nonzero;fill:#1d9bf0;fill-opacity:1"/></g><g clip-path="url(#aJ)"><path d="m187.32 733.316 110.516.192c1.543 0 2.922-.227 2.922 3.047l-.133 35.996H184.531v-36.13c0-1.612.16-3.105 2.79-3.105Zm0 0" style="stroke:none;fill-rule:nonzero;fill:#aab2ab;fill-opacity:1"/></g><g clip-path="url(#aK)"><path d="M298.8 732.879H186.188c-1.207 0-2.19.973-2.19 2.164v37.848c0 .27.222.488.495.488h116.004a.493.493 0 0 0 .496-.488v-37.848c0-1.191-.984-2.164-2.191-2.164Zm-112.613.976h112.614c.664 0 1.199.536 1.199 1.188v26.25h-80.488a17.342 17.342 0 0 1-15.157 8.86 17.342 17.342 0 0 1-15.156-8.86h-4.21v-26.25c0-.652.538-1.188 1.198-1.188Zm0 0" style="stroke:none;fill-rule:nonzero;fill:#000;fill-opacity:1"/></g><path d="M217.66 751.73c.004 7.262-5.945 13.149-13.285 13.153-7.344.008-13.297-5.875-13.305-13.137v-.016c-.004-7.261 5.946-13.148 13.285-13.156 7.344-.004 13.301 5.88 13.305 13.14v.016Zm0 0" style="stroke:none;fill-rule:nonzero;fill:#fff;fill-opacity:1"/><path d="M215.172 741.023c2.95 2.914 4.422 6.485 4.422 10.707 0 4.223-1.446 7.754-4.344 10.598-3.074 2.988-6.71 4.485-10.902 4.485-4.145 0-7.715-1.481-10.711-4.45-3-2.965-4.5-6.508-4.5-10.633 0-4.12 1.5-7.69 4.5-10.707 2.922-2.918 6.492-4.375 10.71-4.375 4.27 0 7.88 1.457 10.825 4.375Zm-19.55 1.961c-2.493 2.489-3.74 5.407-3.74 8.75 0 3.344 1.235 6.239 3.7 8.676 2.469 2.438 5.402 3.66 8.813 3.66 3.406 0 6.367-1.234 8.886-3.699 2.387-2.289 3.582-5.164 3.582-8.637 0-3.445-1.215-6.367-3.64-8.77-2.43-2.402-5.371-3.6-8.828-3.6-3.461 0-6.383 1.206-8.774 3.62Zm6.558 7.278c-.383-.82-.95-1.23-1.711-1.23-1.344 0-2.016.894-2.016 2.683 0 1.789.672 2.683 2.016 2.683.886 0 1.52-.433 1.902-1.308l1.863.98c-.89 1.563-2.222 2.344-3.996 2.344-1.37 0-2.468-.418-3.293-1.246-.824-.832-1.238-1.977-1.238-3.438 0-1.433.426-2.574 1.277-3.418.848-.843 1.907-1.261 3.176-1.261 1.88 0 3.223.73 4.035 2.191Zm8.765 0c-.382-.82-.941-1.23-1.675-1.23-1.372 0-2.06.894-2.06 2.683 0 1.789.688 2.683 2.06 2.683.886 0 1.511-.433 1.863-1.308l1.906.98c-.887 1.563-2.219 2.344-3.988 2.344-1.371 0-2.465-.418-3.29-1.246-.82-.832-1.234-1.977-1.234-3.438 0-1.433.418-2.574 1.254-3.418.836-.843 1.899-1.261 3.192-1.261 1.875 0 3.218.73 4.027 2.191Zm0 0" style="stroke:none;fill-rule:nonzero;fill:#000;fill-opacity:1"/><path d="M244.934 747.559c0 .68-.067 1.351-.2 2.02a10.436 10.436 0 0 1-.597 1.94 10.373 10.373 0 0 1-2.27 3.36 10.492 10.492 0 0 1-3.394 2.246 10.56 10.56 0 0 1-9.824-.957 10.302 10.302 0 0 1-1.587-1.29 10.399 10.399 0 0 1-1.304-1.566 10.43 10.43 0 0 1-.965-1.792 9.88 9.88 0 0 1-.598-1.942 10.321 10.321 0 0 1 0-4.039 9.88 9.88 0 0 1 .598-1.941 10.168 10.168 0 0 1 2.27-3.36c.484-.48 1.011-.91 1.585-1.289a10.533 10.533 0 0 1 5.817-1.746 10.56 10.56 0 0 1 5.816 1.746 10.492 10.492 0 0 1 2.887 2.856c.383.566.707 1.164.969 1.793.261.625.46 1.273.597 1.941.133.668.2 1.34.2 2.02Zm0 0" style="stroke:none;fill-rule:nonzero;fill:#fff;fill-opacity:1"/><path d="M237.496 744.563a.728.728 0 0 0-.73-.723h-4.625a.728.728 0 0 0-.73.722v4.575h1.288v5.414h3.504v-5.414h1.293ZM236.035 741.672a1.541 1.541 0 0 1-.465 1.105c-.148.149-.32.262-.511.34a1.538 1.538 0 0 1-.606.121c-.21 0-.41-.039-.605-.12a1.504 1.504 0 0 1-.512-.34 1.533 1.533 0 0 1-.344-1.703c.078-.192.196-.36.344-.509.148-.144.316-.257.512-.34a1.606 1.606 0 0 1 1.722.34 1.57 1.57 0 0 1 .465 1.105Zm0 0" style="stroke:none;fill-rule:nonzero;fill:#000;fill-opacity:1"/><path d="M234.438 736.148c-3.133 0-5.782 1.082-7.954 3.243-2.226 2.238-3.336 4.882-3.336 7.937 0 3.059 1.11 5.684 3.336 7.887 2.227 2.195 4.88 3.297 7.953 3.297 3.114 0 5.813-1.11 8.094-3.328 2.153-2.106 3.227-4.723 3.227-7.856 0-3.129-1.094-5.773-3.281-7.937-2.192-2.16-4.868-3.243-8.04-3.243Zm.03 2.012c2.563 0 4.743.895 6.536 2.684 1.812 1.773 2.715 3.933 2.715 6.484 0 2.574-.887 4.707-2.66 6.402-1.868 1.829-4.067 2.739-6.59 2.739-2.531 0-4.711-.903-6.54-2.711-1.831-1.805-2.745-3.95-2.745-6.43 0-2.476.925-4.637 2.773-6.484 1.773-1.79 3.945-2.684 6.512-2.684Zm0 0" style="stroke:none;fill-rule:evenodd;fill:#000;fill-opacity:1"/><path d="M231.188 764.457c.304 0 .585.027.84.078.253.055.472.145.652.266.183.12.324.285.422.484.101.203.148.453.148.754 0 .32-.07.59-.219.805-.148.215-.367.386-.66.527.402.113.7.309.895.594.199.285.297.625.297 1.023 0 .324-.063.602-.192.84a1.61 1.61 0 0 1-.512.574c-.214.149-.46.262-.734.332-.273.07-.555.106-.848.106h-3.132v-6.383Zm-.184 2.582c.254 0 .46-.059.625-.18.164-.117.246-.312.246-.578a.73.73 0 0 0-.082-.367.598.598 0 0 0-.219-.223.958.958 0 0 0-.312-.113 2.224 2.224 0 0 0-.367-.027h-1.329v1.488Zm.086 2.711c.137 0 .27-.016.398-.043.125-.027.239-.07.336-.133a.724.724 0 0 0 .23-.254.911.911 0 0 0 .087-.41c0-.328-.094-.562-.282-.703-.187-.14-.437-.21-.742-.21h-1.55v1.753ZM233.813 764.457h1.593l1.512 2.52 1.504-2.52h1.582l-2.399 3.934v2.449h-1.421v-2.485ZM279.973 769.262c.078.148.18.27.312.363.13.094.277.16.453.207.176.043.356.066.543.066.125 0 .262-.011.406-.03.145-.02.278-.063.407-.122a.89.89 0 0 0 .316-.246.63.63 0 0 0 .125-.398.559.559 0 0 0-.168-.418c-.11-.11-.258-.2-.437-.27a4.78 4.78 0 0 0-.614-.187c-.23-.055-.46-.114-.695-.18a6.177 6.177 0 0 1-.707-.219 2.442 2.442 0 0 1-.613-.336 1.603 1.603 0 0 1-.438-.515 1.56 1.56 0 0 1-.168-.747c0-.328.07-.613.215-.855.14-.238.324-.441.555-.602.226-.16.488-.28.777-.359.29-.078.578-.113.867-.113.336 0 .66.035.97.11.312.073.585.194.827.362.242.168.434.38.574.641.141.258.211.574.211.945h-1.375a1.234 1.234 0 0 0-.12-.476.801.801 0 0 0-.278-.293 1.048 1.048 0 0 0-.39-.153 2.331 2.331 0 0 0-.481-.046c-.113 0-.23.011-.344.035a.94.94 0 0 0-.308.129.783.783 0 0 0-.23.222.61.61 0 0 0-.09.34c0 .125.023.227.07.305.05.074.144.148.285.215.144.062.34.129.586.195.25.066.578.148.98.25.121.023.29.066.504.129.21.066.426.164.637.3.21.137.39.321.547.552.152.23.226.523.226.882 0 .29-.055.563-.172.813a1.77 1.77 0 0 1-.508.648 2.448 2.448 0 0 1-.843.426 3.978 3.978 0 0 1-1.16.152c-.356 0-.7-.043-1.036-.129a2.607 2.607 0 0 1-.886-.41 1.975 1.975 0 0 1-.61-.707 2.057 2.057 0 0 1-.218-1.02h1.378c0 .216.04.395.118.544ZM287.973 764.457l2.414 6.383h-1.473l-.488-1.422h-2.418l-.504 1.422h-1.43l2.442-6.383Zm.082 3.914-.817-2.34h-.02l-.84 2.34ZM254.7 764.457l2.695 4.281h.015v-4.281h1.332v6.383h-1.418l-2.687-4.274h-.02v4.274h-1.332v-6.383ZM264.133 766.156a1.348 1.348 0 0 0-.317-.351 1.397 1.397 0 0 0-.43-.239 1.448 1.448 0 0 0-.5-.086c-.32 0-.593.063-.816.184a1.53 1.53 0 0 0-.543.492 2.188 2.188 0 0 0-.3.703 3.282 3.282 0 0 0-.094.813c0 .27.027.527.094.781.062.254.164.48.3.684.141.203.32.367.543.488.223.121.496.184.817.184.433 0 .773-.133 1.015-.395.246-.262.395-.61.45-1.039h1.375a3.175 3.175 0 0 1-.282 1.086c-.148.32-.351.594-.597.824a2.555 2.555 0 0 1-.868.52c-.332.12-.695.18-1.093.18-.496 0-.942-.087-1.336-.258a2.868 2.868 0 0 1-1-.7c-.27-.3-.48-.648-.625-1.05a3.86 3.86 0 0 1-.219-1.305c0-.477.074-.918.219-1.328.144-.41.355-.766.625-1.07a2.855 2.855 0 0 1 1-.715c.394-.172.84-.258 1.336-.258.355 0 .691.047 1.008.152.316.098.601.246.851.442.25.195.457.433.617.722.164.285.266.613.309.985h-1.375a1.115 1.115 0 0 0-.164-.446ZM295.703 747.324c.004 5.637-4.613 10.207-10.312 10.215-5.7 0-10.325-4.562-10.329-10.2v-.015c-.003-5.636 4.614-10.21 10.313-10.215 5.7-.004 10.32 4.563 10.328 10.2v.015Zm0 0" style="stroke:none;fill-rule:nonzero;fill:#fff;fill-opacity:1"/><path d="M285.309 736.14c-3.133 0-5.786 1.083-7.954 3.243-2.226 2.238-3.34 4.883-3.34 7.941 0 3.055 1.114 5.684 3.34 7.883 2.227 2.2 4.88 3.297 7.954 3.297 3.113 0 5.808-1.11 8.093-3.324 2.149-2.11 3.227-4.727 3.227-7.856 0-3.133-1.094-5.777-3.285-7.941-2.188-2.16-4.867-3.242-8.035-3.242Zm.027 2.016c2.566 0 4.746.895 6.539 2.684 1.809 1.77 2.715 3.93 2.715 6.484 0 2.57-.887 4.703-2.66 6.403-1.868 1.824-4.067 2.738-6.594 2.738s-4.707-.906-6.535-2.711c-1.832-1.809-2.746-3.953-2.746-6.43 0-2.48.922-4.64 2.773-6.484 1.774-1.79 3.942-2.684 6.508-2.684Zm0 0" style="stroke:none;fill-rule:nonzero;fill:#000;fill-opacity:1"/><path d="M280.297 745.746c.45-2.812 2.453-4.316 4.96-4.316 3.61 0 5.81 2.59 5.81 6.043 0 3.37-2.34 5.988-5.864 5.988-2.426 0-4.598-1.477-4.992-4.375h2.848c.086 1.504 1.074 2.035 2.484 2.035 1.605 0 2.648-1.476 2.648-3.73 0-2.371-.902-3.621-2.593-3.621-1.243 0-2.313.445-2.54 1.976l.829-.004-2.242 2.215-2.239-2.215Zm0 0" style="stroke:none;fill-rule:nonzero;fill:#000;fill-opacity:1"/><path d="M269.598 747.336c.007 5.3-4.34 9.605-9.703 9.61-5.364.003-9.711-4.294-9.715-9.598v-.012c-.004-5.305 4.34-9.61 9.703-9.613 5.363-.004 9.71 4.293 9.715 9.597v.016Zm0 0" style="stroke:none;fill-rule:nonzero;fill:#fff;fill-opacity:1"/><path d="M267.91 739.39c-2.187-2.16-4.867-3.242-8.035-3.242-3.133 0-5.781 1.082-7.953 3.243-2.227 2.238-3.34 4.882-3.34 7.941 0 3.055 1.113 5.684 3.34 7.883 2.226 2.2 4.879 3.3 7.953 3.3 3.113 0 5.813-1.109 8.094-3.327 2.152-2.106 3.226-4.723 3.226-7.856s-1.093-5.777-3.285-7.941Zm-1.414 14.344c-1.867 1.828-4.066 2.739-6.594 2.739-2.527 0-4.707-.903-6.535-2.711-1.832-1.809-2.746-3.953-2.746-6.43 0-1.047.168-2.039.496-2.973l2.996 1.313h-.215V747h1.059c0 .188-.016.375-.016.563v.316h-1.043v1.328h1.23c.173.992.548 1.797 1.06 2.434 1.062 1.386 2.765 2.136 4.62 2.136 1.212 0 2.31-.355 2.95-.715l-.453-2.074c-.399.203-1.285.485-2.157.485-.949 0-1.836-.282-2.441-.953-.285-.32-.492-.75-.625-1.313h4.113l5.848 2.563a8.721 8.721 0 0 1-1.547 1.964Zm-7.351-5.855-.028-.02.043.02Zm3.52-.879h.167v-1.328h-3.203l-1.305-.57c.113-.25.246-.473.403-.649.586-.71 1.418-1.012 2.328-1.012.832 0 1.605.243 2.097.45l.532-2.133c-.68-.301-1.684-.563-2.84-.563-1.778 0-3.293.711-4.371 1.91a6.066 6.066 0 0 0-.637.907l-3.719-1.63c.363-.534.785-1.046 1.278-1.534 1.773-1.79 3.94-2.688 6.507-2.688 2.567 0 4.746.899 6.54 2.688 1.808 1.77 2.714 3.93 2.714 6.484 0 .84-.097 1.637-.285 2.383Zm0 0" style="stroke:none;fill-rule:nonzero;fill:#000;fill-opacity:1"/></svg>