<?xml version="1.0" encoding="UTF-8" standalone="no"?>
<svg
   xmlns:dc="http://purl.org/dc/elements/1.1/"
   xmlns:cc="http://creativecommons.org/ns#"
   xmlns:rdf="http://www.w3.org/1999/02/22-rdf-syntax-ns#"
   xmlns:svg="http://www.w3.org/2000/svg"
   xmlns="http://www.w3.org/2000/svg"
   xmlns:sodipodi="http://sodipodi.sourceforge.net/DTD/sodipodi-0.dtd"
   xmlns:inkscape="http://www.inkscape.org/namespaces/inkscape"
   version="1.0"
   width="310.80222"
   height="189.69832"
   id="svg2"
   sodipodi:docname="desplazamiento.svg"
   inkscape:version="1.0.1 (c497b03c, 2020-09-10)">
  <metadata
     id="metadata39">
    <rdf:RDF>
      <cc:Work
         rdf:about="">
        <dc:format>image/svg+xml</dc:format>
        <dc:type
           rdf:resource="http://purl.org/dc/dcmitype/StillImage" />
        <dc:title />
      </cc:Work>
    </rdf:RDF>
  </metadata>
  <sodipodi:namedview
     fit-margin-bottom="0"
     fit-margin-right="0"
     fit-margin-left="0"
     fit-margin-top="0"
     inkscape:document-rotation="0"
     pagecolor="#ffffff"
     bordercolor="#666666"
     borderopacity="1"
     objecttolerance="10"
     gridtolerance="10"
     guidetolerance="10"
     inkscape:pageopacity="0"
     inkscape:pageshadow="2"
     inkscape:window-width="1440"
     inkscape:window-height="769"
     id="namedview37"
     showgrid="false"
     inkscape:zoom="3.0095143"
     inkscape:cx="186.30835"
     inkscape:cy="106.81753"
     inkscape:window-x="0"
     inkscape:window-y="25"
     inkscape:window-maximized="0"
     inkscape:current-layer="svg2" />
  <defs
     id="defs4">
    <marker
       refX="0"
       refY="0"
       orient="auto"
       style="overflow:visible"
       id="StopM">
      <path
         d="M 0,5.65 V -5.65"
         transform="scale(0.4)"
         style="fill:none;fill-opacity:0.75;fill-rule:evenodd;stroke:#000000;stroke-width:1pt"
         id="path3275" />
    </marker>
    <marker
       refX="0"
       refY="0"
       orient="auto"
       style="overflow:visible"
       id="Arrow2Send">
      <path
         d="M 8.7185878,4.0337352 -2.2072895,0.01601326 8.7185884,-4.0017078 c -1.7454984,2.3720609 -1.7354408,5.6174519 -6e-7,8.035443 z"
         transform="matrix(-0.3,0,0,-0.3,0.69,0)"
         style="font-size:12px;fill-rule:evenodd;stroke-width:0.625;stroke-linejoin:round"
         id="path3352" />
    </marker>
    <marker
       refX="0"
       refY="0"
       orient="auto"
       style="overflow:visible"
       id="Arrow2Mend">
      <path
         d="M 8.7185878,4.0337352 -2.2072895,0.01601326 8.7185884,-4.0017078 c -1.7454984,2.3720609 -1.7354408,5.6174519 -6e-7,8.035443 z"
         transform="scale(-0.6)"
         style="font-size:12px;fill-rule:evenodd;stroke-width:0.625;stroke-linejoin:round"
         id="path3358" />
    </marker>
  </defs>
  <g
     style="fill:#2a54a9;fill-opacity:1"
     id="g3415"
     transform="translate(-225.67587,-357.62505)">
    <path
       d="m 441.96875,363.90625 c -2.27801,0.204 -4.40482,1.45848 -6.53125,3.3125 -2.12643,1.85402 -4.27374,4.36193 -6.53125,7.28125 -4.51501,5.83865 -9.40752,13.39819 -14.75,20.9375 -5.34248,7.53931 -11.12044,15.02145 -17.28125,20.65625 -6.16081,5.6348 -12.6407,9.37428 -19.40625,9.6875 -7.04388,0.32312 -14.91285,-2.90803 -24.1875,-6.46875 -9.27465,-3.56072 -19.96619,-7.40012 -32.75,-7.8125 -6.64466,-0.21434 -15.43515,2.03604 -25.0625,5.40625 -9.62735,3.37021 -20.05405,7.89666 -29.6875,12.46875 -19.26691,9.14419 -35.375,18.40625 -35.375,18.40625 l 1.5,2.59375 c 0,0 16.01108,-9.19484 35.15625,-18.28125 9.57258,-4.5432 19.93687,-9.06009 29.40625,-12.375 9.46938,-3.31491 18.10089,-5.40804 23.96875,-5.21875 12.24123,0.39488 22.5264,4.05263 31.75,7.59375 9.2236,3.54112 17.37553,7.05588 25.40625,6.6875 7.76511,-0.35949 14.83447,-4.57239 21.28125,-10.46875 6.44678,-5.89636 12.32936,-13.55074 17.71875,-21.15625 5.38939,-7.60551 10.29898,-15.16868 14.6875,-20.84375 2.19426,-2.83754 4.24786,-5.17583 6.125,-6.8125 1.87714,-1.63667 3.56048,-2.51008 4.84375,-2.625 1.66529,-0.14913 4.07923,0.7372 6.875,2.75 2.79577,2.0128 5.92986,5.0898 9.1875,8.90625 6.51529,7.63291 13.48465,18.2398 19.53125,29.53125 6.0466,11.29145 11.18759,23.27246 14.0625,33.5625 2.87491,10.29004 3.29783,18.87044 0.84375,23.09375 -5.37215,9.24512 -18.90912,14.44883 -33.0625,18.3125 -14.15338,3.86367 -28.63364,6.29998 -36.1875,11.625 -9.37298,6.60739 -10.57675,17.70615 -9.28125,27.28125 1.2955,9.5751 5.07596,18.12064 5.78125,19.96875 l 2.78125,-1.0625 c -0.85501,-2.24043 -4.3698,-10.26627 -5.59375,-19.3125 -1.22395,-9.04623 -0.15381,-18.63627 8.03125,-24.40625 6.35762,-4.48175 20.92724,-7.27759 35.25,-11.1875 14.32276,-3.90991 28.67645,-9.02022 34.875,-19.6875 3.33128,-5.73289 2.39839,-14.83971 -0.5625,-25.4375 -2.96089,-10.59779 -8.1517,-22.7099 -14.28125,-34.15625 -6.12955,-11.44635 -13.18586,-22.22055 -19.90625,-30.09375 -3.3602,-3.9366 -6.62195,-7.14548 -9.71875,-9.375 -3.0968,-2.22952 -6.06434,-3.53575 -8.90625,-3.28125 z"
       style="fill:#2a54a9;fill-opacity:1;fill-rule:evenodd;stroke:none;stroke-width:3;stroke-linecap:butt;stroke-linejoin:miter;stroke-miterlimit:4;stroke-opacity:1"
       id="path2221" />
    <path
       d="m 422.57732,524.11636 0.25544,20.95255 -13.76864,-15.79554 c 5.10932,1.41306 10.56064,-0.6867 13.5132,-5.15701 z"
       style="font-size:12px;fill:#2a54a9;fill-opacity:1;fill-rule:evenodd;stroke-width:0.625;stroke-linejoin:round"
       id="path3421" />
  </g>
  <path
     d="m 217.94913,0.0312 -0.375,0.0312 0.15625,1.96875 0.21875,-0.0312 v 0.0312 l 0.96875,0.0312 1,0.15625 0.0937,0.0312 h 0.0312 l 0.9375,0.28125 0.0625,0.0312 h 0.0312 l 1,0.375 0.0937,0.0312 0.8125,0.40625 0.84375,-1.8125 -0.875,-0.4375 h -0.0312 l -0.0312,-0.0312 -1.1875,-0.4375 -0.0312,-0.0312 h -0.0625 l -1.125,-0.3125 -0.0625,-0.0312 h -0.0625 l -1.09375,-0.1875 -0.0625,-0.0312 h -0.0625 L 218.07408,0.0312 218.01158,0 Z m -7.25,2.46875 h -0.0312 l -0.0312,0.0312 -0.9375,0.625 h -0.0312 v 0.0312 l -0.96875,0.65625 v 0.03135 l -0.0312,0.0312 -1.875,1.53125 -0.0312,0.0312 -0.0312,0.0312 -0.25,0.21875 1.375,1.46875 0.21875,-0.1875 1.8125,-1.53125 0.0625,-0.0312 0.84375,-0.625 0.0312,-0.0312 0.875,-0.5625 0.0312,-0.0312 0.78125,-0.4375 -1.03125,-1.71875 z m 17.09375,4.03125 0.3125,0.28125 0.0312,0.0312 1.28125,1.09375 V 7.9062 l 1.2813,1.21875 h 0.0312 l 1.3125,1.3125 0.0625,0.0625 1.4375,-1.40625 -0.0625,-0.0625 L 233.44913,9 232.10538,7.6875 V 7.6563 l -1.34375,-1.21875 -0.0312,-0.0312 -1.3125,-1.125 -0.0312,-0.0312 -0.375,-0.28125 z m -26.6875,4.9375 -0.0312,0.0312 -1.84375,2.3125 v 0.0312 l -0.78125,1 1.625,1.1875 0.71875,-0.96875 0.0312,-0.0312 1.8125,-2.25 v -0.0312 l 1.15625,-1.34375 -1.53125,-1.28125 z m 35,3.40625 2.75,3.34375 v 0.0312 l 0.96875,1.28125 1.59375,-1.21875 -0.96875,-1.3125 h -0.0312 v -0.0312 l -2.75,-3.375 z m -42.4375,6.6875 -2.125,3.15625 1.6875,1.125 2.09375,-3.15625 1.25,-1.8125 -1.65625,-1.125 z m 49.6875,2.78125 1.03125,1.4375 v 0.0312 l 2.3125,3.46875 1.65625,-1.125 -2.3125,-3.46875 v -0.0312 l -1.0625,-1.46875 z m -57.125,8.4375 -1.3125,1.9375 1.65625,1.125 1.3125,-1.9375 v -0.03125 l 2.03125,-3.0625 -1.6875,-1.09375 z m 63.65625,1.53125 2.65625,4.4375 h -0.0312 l 0.40625,0.6875 1.75,-0.96875 -0.40625,-0.71875 -2.65625,-4.46875 z m -69.375,6.875 -1.9375,2.65625 v 0.03125 l -0.5,0.625 1.59375,1.21875 0.5,-0.65625 v -0.0312 l 1.96875,-2.6875 1.0625,-1.53125 -1.625,-1.15625 z m 75.3125,3.46875 1.84375,3.40625 v 0.0312 l 0.96875,1.875 1.78125,-0.90625 -0.96875,-1.90625 -0.0312,-0.0312 -1.8125,-3.40625 z m -163.906252,6.375 h 1.1875 0.0312 l 2.375,0.125 h 0.0312 l 2.3125,0.1875 0.125,-2 -2.3125,-0.1875 h -0.0312 l -2.4375,-0.125 h -0.0312 -1.21875 z m 80.687502,0.21875 v 0.0312 l -2.03125,2.125 -0.0312,0.0312 -0.0937,0.125 1.375,1.4375 0.15625,-0.15625 h 0.0312 v -0.0312 l 2.0625,-2.21875 h 0.0312 v -0.0312 l 1.8125,-2.09375 -1.5,-1.3125 z M 84.761628,49.7187 h -0.0312 -0.0312 l -3.09375,0.59375 h -0.0312 -0.0312 l -1.6875,0.40625 0.4375,1.9375 1.6875,-0.375 h 0.0312 l 3.03125,-0.59375 h 0.0312 l 1.03125,-0.125 -0.28125,-2 z m 18.937502,2.375 0.96875,0.15625 h 0.0312 l 2.15625,0.40625 h 0.0312 l 2.65625,0.59375 0.4375,-1.9375 -2.6875,-0.625 h -0.0312 l -2.21875,-0.40625 h -0.0312 l -1,-0.15625 z m -32.343752,0.90625 h -0.03125 l -3.09375,1 0.59375,1.90625 3.09375,-1 h 0.0312 l 2.59375,-0.75 -0.5625,-1.9375 z m 43.937502,1.71875 3.90625,1.15625 h 0.0312 l 1.75,0.59375 0.625,-1.90625 -1.78125,-0.59375 h -0.0312 l -3.9375,-1.1875 z m 146,0.59375 1.125,2.3125 v 0.0312 l 1.40625,3.0625 1.8125,-0.8125 -1.40625,-3.09375 v -0.0312 l -1.125,-2.34375 z m -200.968752,1.46875 -3.4375,1.3125 0.71875,1.875 3.40625,-1.3125 h 0.0312 l 2.1563,-0.78125 -0.6875,-1.875 z m 66.343752,1.59375 0.125,0.0312 5.53125,1.9375 0.65625,-1.875 -5.53125,-1.9375 -0.125,-0.0625 z m 38.71875,-0.3125 h -0.0312 l -1.03125,0.75 -0.0312,0.0312 -1.0625,0.6875 h -0.0312 l -1.03125,0.625 -0.0312,0.0312 -0.9375,0.5 0.9375,1.75 0.96875,-0.5 0.0312,-0.0312 h 0.0312 l 1.09375,-0.65625 0.0312,-0.0312 1.125,-0.71875 v -0.0312 h 0.0312 l 1.09375,-0.78125 v -0.0312 h 0.0312 l 0.71875,-0.5625 -1.2187,-1.59385 z m -27.3125,4.1875 2.5625,0.75 h 0.0312 v 0.0312 l 3.21875,0.78125 v 0.0312 h 0.0312 l 0.21875,-1 0.21875,-0.96875 h -0.0311 l -3.15625,-0.8125 v 0.0312 l -2.53125,-0.78125 z m -92.312502,0.4375 0.78125,1.84375 5.53125,-2.34375 -0.78125,-1.84375 z m 109.812502,-0.0625 h -0.0625 l -1.09375,0.15625 h -0.0625 l -1.09375,0.09375 h -0.0312 -1.375 -0.0625 l -1.40625,-0.0625 h -0.0312 l -0.1875,-0.0312 -0.1875,2 0.21875,0.0312 h 0.0312 0.0312 l 1.5,0.0625 h 0.0312 1.5 0.0312 0.0312 l 1.21875,-0.0937 h 0.0312 0.0312 l 1.1875,-0.1875 h 0.0312 0.0312 l 0.34375,-0.0625 -0.4059,-1.9688 z M 37.917878,66.1562 h -0.0312 v 0.0312 l -3.09375,1.4375 0.84375,1.8125 3.09375,-1.4375 2.34375,-1.0625 -0.8125,-1.8125 z m 228.312502,0.0312 0.4375,1 v 0.0312 l 1.8125,4.5 1.875,-0.75 -1.84375,-4.53125 v -0.0312 l -0.4375,-1 z M 24.261628,72.65615 h -0.0312 l -0.3125,0.15625 0.90625,1.78125 0.28125,-0.15625 h 0.0312 l 5.0625,-2.4687 -0.875,-1.78125 z m -6,2.96875 h -0.0312 l -5.03125,2.59375 0.90625,1.78125 5.03125,-2.5625 0.0312,-0.0312 0.28125,-0.125 -0.90625,-1.8125 z m 252.281252,1.6875 1.25,3.625 v 0.0312 l 0.625,2 1.90625,-0.59365 -0.625,-2.03125 v -0.0312 l -1.25,-3.65625 z m -265.1562524,5.03125 -2.78125,1.53125 0.9375,1.75 2.78125,-1.5312 h 0.0312 l 2.46875,-1.3125 -0.9375,-1.75 z m 268.6875024,6.375 0.15625,0.59375 v 0.06255 l 0.875,3.8125 v 0.0312 l 0.21875,1.2813 1.96875,-0.375 -0.21875,-1.28125 v -0.0312 l -0.0312,-0.0312 -0.875,-3.90625 v -0.0312 l -0.1875,-0.65625 z m 2,11.59375 0.0625,1.28125 v 0.0625 1.375 0.0312 l -0.0625,1.28125 v 0.0625 l -0.15625,1.25 -0.0625,0.40625 1.96875,0.34375 0.0937,-0.46875 v -0.0312 -0.0312 l 0.15625,-1.28125 v -0.0312 -0.0312 l 0.0625,-1.40625 v -0.0312 -0.0312 -1.46875 -0.0312 l -0.0625,-1.34375 z m -2.59375,10.875 -0.0625,0.0937 -1.3125,1.625 -0.0625,0.0625 -1.46875,1.5625 -0.0312,0.0312 -0.84375,0.78125 1.34375,1.46875 0.875,-0.8125 0.0312,-0.0312 0.0312,-0.0312 1.5625,-1.65625 0.0312,-0.0312 0.0312,-0.0312 1.4375,-1.75 0.0312,-0.0312 v -0.0312 l 0.15625,-0.21875 -1.65625,-1.125 z m -10.3125,9 h -0.0312 l -2.09375,1.21875 -0.0312,0.0312 -1,0.5 0.9375,1.78125 1,-0.53125 0.0312,-0.0312 2.1875,-1.25 0.0312,-0.0312 2,-1.25 -1.09375,-1.6875 z m -9.03125,4.53125 h -0.0312 l -2.40625,1 h -0.0312 l -2.46875,0.9375 -0.0312,0.0312 0.65625,1.875 0.0625,-0.0312 2.53125,-0.9375 v -0.0312 l 2.46875,-1 h 0.0312 l 0.5625,-0.25 -0.8125,-1.84375 z m -12.5625,4.53125 -3.78125,1.15625 0.59375,1.90625 3.75,-1.125 h 0.0312 v -0.0312 l 1.96875,-0.625 -0.625,-1.90625 z m -10.28125,3.0938 -4.96875,1.46875 h -0.0312 l 0.3125,0.96875 0.28125,0.9375 4.96875,-1.4375 0.78125,-0.25 -0.56255,-1.90625 z m -14.1875,4.4375 h -0.0312 l -2.0625,0.78125 h -0.0312 l -0.1563,0.0625 0.75,1.84375 0.125,-0.0312 h 0.0312 l 2,-0.78125 h 0.0312 l 3.4375,-1.15625 -0.65625,-1.875 z m -9.40625,4.21875 -0.0312,0.0312 -1.4375,0.9375 h -0.0312 l -0.0312,0.0312 -1.625,1.21875 -0.0312,0.0312 -0.0312,0.0312 -0.375,0.3125 1.3125,1.5 0.3125,-0.28125 0.0625,-0.0312 1.5,-1.15625 0.0312,0.0312 1.375,-0.90625 0.0625,-0.0312 1.46875,-0.84375 -1,-1.75 z m -8.0625,7.5 -0.0312,0.0312 -0.0312,0.0312 -0.75,1.3125 -0.0312,0.0312 -0.0312,0.0312 -0.59375,1.3125 -0.0312,0.0312 -0.0312,0.0312 -0.46875,1.3125 -0.0312,0.0312 v 0.0625 l -0.34375,1.1875 1.9375,0.53125 0.3125,-1.125 0.0312,-0.0625 0.40625,-1.125 0.0312,-0.0937 0.5625,-1.125 0.0312,-0.0937 0.6875,-1.15625 0.0312,-0.0625 0.21875,-0.28125 -1.625,-1.15625 z m -2.65625,11.75 0.0625,0.5 v 0.0312 0.0312 l 0.21875,1.25 v 0.0312 l 0.3125,1.21875 v 0.0312 l 0.34375,1.1875 0.0312,0.0312 v 0.0312 l 0.40625,1.125 v 0.0312 0.0312 l 0.21875,0.5 1.84375,-0.75 -0.1875,-0.46875 -0.0312,-0.0312 -0.34375,-1.0625 -0.34375,-1.125 -0.0312,-0.0625 -0.25,-1.09375 v -0.0622 l -0.21875,-1.09375 v -0.0625 l -0.0626,-0.46875 z m 4.25,11.53125 0.15625,0.25 v 0.0312 l 1.875,3.125 v 0.0312 l 0.6875,1.125 h -0.0312 l 0.28125,0.59375 1.8125,-0.875 -0.28125,-0.59375 v -0.0312 l -0.0312,-0.0312 -0.6875,-1.21875 h -0.0312 l -1.84375,-3.125 -0.0312,-0.0312 -0.125,-0.21875 z"
     style="fill:#b50000;fill-opacity:1;fill-rule:evenodd;stroke:none;stroke-width:2;stroke-linecap:butt;stroke-linejoin:miter;stroke-miterlimit:4;stroke-dasharray:6, 6;stroke-dashoffset:0;stroke-opacity:1"
     id="path3394" />
  <path
     d="M 5.2661976,88.69778 0.87403755,80.79648"
     style="fill:#b50000;fill-opacity:0.74902;fill-rule:evenodd;stroke:#b50000;stroke-width:2;stroke-miterlimit:4;stroke-dasharray:none;stroke-opacity:1"
     id="path3429" />
  <path
     d="m 201.0645,178.46167 8.44588,-3.22318"
     style="fill:#b50000;fill-opacity:0.74902;fill-rule:evenodd;stroke:#b50000;stroke-width:2;stroke-miterlimit:4;stroke-dasharray:none;stroke-opacity:1"
     id="path3431" />
  <path
     id="path3404"
     style="fill:#4c5f26;fill-opacity:1;fill-rule:evenodd;stroke:none;stroke-width:2;stroke-linecap:butt;stroke-linejoin:miter;stroke-miterlimit:4;stroke-dasharray:6, 6;stroke-dashoffset:0;stroke-opacity:1"
     d="m 5.2928776,93.4062 5.3750004,2.6875 0.875,-1.78125 -5.3437504,-2.6875 z m 10.7500004,5.375 5.34375,2.6875 0.90625,-1.8125 -5.375,-2.65625 z m 10.71875,5.34375 5.375,2.6875 0.875,-1.78125 -5.34375,-2.6875 z m 10.75,5.375 5.34375,2.6875 0.90625,-1.8125 -5.375,-2.65625 z m 10.71875,5.34375 5.375,2.6875 0.90625,-1.78125 -5.375,-2.6875 z m 10.75,5.375 5.375,2.6875 0.875,-1.78125 -5.375,-2.6875 z m 10.71875,5.375 5.375,2.65625 0.90625,-1.78125 -5.375,-2.6875 z m 10.75,5.34375 5.375,2.6875 0.875,-1.78125 -5.375,-2.6875 z m 10.71875,5.375 5.375,2.65625 0.90625,-1.78125 -5.375,-2.6875 z m 10.750002,5.34375 5.375,2.6875 0.875,-1.78125 -5.34375,-2.6875 z m 10.75,5.375 5.34375,2.65625 0.90625,-1.78125 -5.375,-2.6875 z m 10.71875,5.34375 5.375,2.6875 0.875,-1.78125 -5.34375,-2.6875 z m 10.75,5.375 5.34375,2.6875 0.90625,-1.8125 -5.375,-2.6875 z m 10.71875,5.34375 5.375,2.6875 0.90625,-1.78125 -5.375,-2.6875 z m 10.75,5.375 5.375,2.6875 0.875,-1.8125 -5.375,-2.65625 z m 10.71875,5.34375 5.375,2.6875 0.90625,-1.78125 -5.375,-2.6875 z m 10.75,5.375 5.375,2.6875 0.875,-1.8125 -5.375,-2.65625 z m 10.71875,5.34375 5.375,2.6875 0.90625,-1.78125 -5.375,-2.6875 z" />
  <path
     id="path3412"
     style="font-size:12px;fill:#008000;fill-rule:evenodd;stroke-width:0.625;stroke-linejoin:round"
     d="m 188.78431,178.50508 9.57651,10.17029 -13.8839,-1.54331 c 3.14554,-1.61101 4.87443,-5.10071 4.30739,-8.62698 z" />
  <g
     aria-label="Espacio recorrido"
     id="text3460"
     style="font-style:normal;font-weight:normal;font-size:16px;font-family:'Bitstream Vera Sans';fill:#b50000;fill-opacity:1;stroke:none;stroke-width:1px;stroke-linecap:butt;stroke-linejoin:miter;stroke-opacity:1">
    <path
       d="m 73.542504,39.333613 q -0.208,0 -0.336,-0.048 -0.128,-0.032 -0.128,-0.128 0,-0.192 0.528,-0.288 0.608,-0.112 0.896,-0.368 0.288,-0.256 0.288,-0.832 v -7.2 q 0,-0.576 -0.24,-0.816 -0.224,-0.24 -0.832,-0.352 -0.272,-0.048 -0.4,-0.128 -0.128,-0.08 -0.128,-0.192 0,-0.096 0.128,-0.128 0.128,-0.048 0.336,-0.048 0.608,0 1.024,0.016 0.432,0.016 0.832,0.032 0.416,0 0.976,0 0.528,0 1.104,0 0.592,-0.016 1.088,-0.016 0.544,-0.016 0.912,-0.016 0.384,-0.016 0.448,-0.016 0.08,0 0.176,0.032 0.096,0.032 0.112,0.112 0.08,0.448 0.16,0.896 0.08,0.432 0.08,0.752 0,0.144 -0.08,0.192 -0.064,0.048 -0.144,0.048 -0.08,0 -0.112,-0.032 -0.032,-0.048 -0.064,-0.128 -0.08,-0.272 -0.16,-0.512 -0.08,-0.256 -0.192,-0.368 -0.224,-0.256 -0.496,-0.336 -0.272,-0.096 -0.576,-0.096 h -2.096 q -0.128,0 -0.352,0.144 -0.224,0.144 -0.224,0.368 v 3.392 q 0,0.144 0.08,0.256 0.096,0.096 0.208,0.096 h 1.584 q 0.464,0 0.64,-0.16 0.176,-0.176 0.288,-0.624 0.096,-0.352 0.288,-0.352 0.064,0 0.128,0.064 0.08,0.064 0.08,0.192 0,0.064 -0.016,0.288 0,0.224 -0.016,0.464 -0.016,0.24 -0.016,0.368 0,0.16 0,0.432 0.016,0.256 0.016,0.496 0.016,0.24 0.016,0.304 0,0.112 -0.032,0.192 -0.016,0.08 -0.112,0.08 -0.24,0 -0.368,-0.512 -0.096,-0.368 -0.256,-0.544 -0.16,-0.176 -0.48,-0.176 h -1.488 q -0.272,0 -0.416,0.08 -0.128,0.064 -0.128,0.336 v 3.072 q 0,0.608 0.256,0.848 0.256,0.224 0.8,0.224 h 1.184 q 0.512,0 0.848,-0.048 0.352,-0.064 0.608,-0.224 0.256,-0.176 0.448,-0.464 0.208,-0.288 0.464,-0.768 0.048,-0.096 0.112,-0.16 0.064,-0.064 0.144,-0.048 0.08,0.016 0.128,0.08 0.048,0.048 0.048,0.144 0,0.144 -0.08,0.512 -0.08,0.352 -0.208,0.736 -0.112,0.384 -0.208,0.608 -0.048,0.112 -0.096,0.192 -0.032,0.08 -0.128,0.08 -0.768,0 -1.424,-0.016 -0.656,-0.016 -1.248,-0.032 -0.592,-0.016 -1.168,-0.032 -0.56,-0.016 -1.168,-0.016 -0.352,0 -0.608,0.016 -0.256,0.032 -0.528,0.048 -0.272,0.032 -0.704,0.032 z"
       style="font-style:normal;font-variant:normal;font-weight:normal;font-stretch:normal;font-size:16px;font-family:'EB Garamond';-inkscape-font-specification:'EB Garamond';fill:#b50000;fill-opacity:1"
       id="path39" />
    <path
       d="m 83.821754,39.477613 q -0.496,0 -0.928,-0.16 -0.432,-0.144 -0.736,-0.416 -0.08,-0.176 -0.128,-0.592 -0.032,-0.416 -0.048,-0.688 0,-0.144 0.208,-0.144 0.064,0 0.112,0.032 0.064,0.016 0.08,0.08 0.208,0.784 0.656,1.12 0.464,0.336 0.928,0.336 0.464,0 0.784,-0.304 0.336,-0.32 0.336,-0.784 0,-0.432 -0.288,-0.736 -0.288,-0.32 -1.008,-0.768 -0.544,-0.336 -0.88,-0.64 -0.336,-0.304 -0.496,-0.624 -0.144,-0.32 -0.144,-0.72 0,-0.512 0.24,-0.928 0.24,-0.416 0.72,-0.656 0.48,-0.256 1.2,-0.256 0.48,0 0.8,0.096 0.32,0.096 0.48,0.208 0.128,0.176 0.208,0.56 0.096,0.368 0.096,0.704 0,0.112 -0.16,0.112 -0.096,0 -0.192,-0.032 -0.08,-0.048 -0.112,-0.112 -0.208,-0.528 -0.528,-0.8 -0.304,-0.288 -0.768,-0.288 -0.4,0 -0.72,0.24 -0.304,0.24 -0.304,0.704 0,0.368 0.224,0.656 0.24,0.288 0.88,0.656 0.928,0.528 1.376,0.992 0.464,0.448 0.464,1.2 0,0.864 -0.656,1.408 -0.656,0.544 -1.696,0.544 z"
       style="font-style:normal;font-variant:normal;font-weight:normal;font-stretch:normal;font-size:16px;font-family:'EB Garamond';-inkscape-font-specification:'EB Garamond';fill:#b50000;fill-opacity:1"
       id="path41" />
    <path
       d="m 87.314004,43.813613 q -0.08,0 -0.208,-0.032 -0.128,-0.016 -0.128,-0.112 0,-0.128 0.112,-0.192 0.128,-0.048 0.256,-0.096 0.24,-0.08 0.464,-0.192 0.224,-0.096 0.224,-0.416 v -8.112 q 0,-0.128 -0.08,-0.384 -0.064,-0.256 -0.224,-0.496 -0.16,-0.24 -0.432,-0.288 -0.064,-0.016 -0.096,-0.08 -0.032,-0.064 -0.032,-0.128 0,-0.08 0.032,-0.128 0.032,-0.048 0.08,-0.064 0.608,-0.144 1.04,-0.304 0.432,-0.176 0.816,-0.336 0.016,0 0.016,0 0,-0.016 0.016,-0.016 0.032,0 0.064,0.048 0.032,0.048 0.032,0.096 0,0.144 -0.048,0.464 -0.032,0.304 -0.032,0.496 0,0.128 0.016,0.144 0.16,-0.16 0.576,-0.4 0.432,-0.256 0.976,-0.448 0.544,-0.208 1.04,-0.208 0.832,0 1.408,0.448 0.592,0.432 0.896,1.136 0.32,0.688 0.32,1.44 0,0.72 -0.272,1.408 -0.272,0.672 -0.768,1.216 -0.496,0.544 -1.152,0.88 -0.656,0.32 -1.408,0.32 -0.224,0 -0.544,-0.08 -0.304,-0.064 -0.608,-0.176 -0.288,-0.112 -0.448,-0.256 -0.016,0 -0.032,0.192 -0.016,0.176 -0.032,0.368 0,0.208 0,0.256 v 2.992 q 0,0.208 0.16,0.32 0.176,0.128 0.384,0.176 0.224,0.064 0.384,0.112 0.128,0.048 0.24,0.096 0.128,0.064 0.128,0.192 0,0.096 -0.128,0.112 -0.128,0.032 -0.224,0.032 -0.464,0 -0.784,-0.048 -0.304,-0.032 -0.72,-0.032 -0.272,0 -0.448,0.016 -0.16,0.016 -0.336,0.032 -0.176,0.032 -0.496,0.032 z m 3.744,-4.832 q 0.24,0 0.576,-0.144 0.352,-0.144 0.688,-0.464 0.352,-0.32 0.576,-0.864 0.24,-0.544 0.24,-1.344 0,-0.928 -0.24,-1.488 -0.24,-0.56 -0.592,-0.848 -0.352,-0.288 -0.72,-0.384 -0.368,-0.096 -0.624,-0.096 -0.384,0 -0.8,0.16 -0.4,0.16 -0.688,0.368 -0.272,0.192 -0.272,0.304 0,0.352 -0.016,0.72 0,0.352 -0.016,0.688 0,0.336 -0.016,0.608 0,0.256 0,0.4 0,0.64 0.288,1.184 0.304,0.544 0.736,0.88 0.448,0.32 0.88,0.32 z"
       style="font-style:normal;font-variant:normal;font-weight:normal;font-stretch:normal;font-size:16px;font-family:'EB Garamond';-inkscape-font-specification:'EB Garamond';fill:#b50000;fill-opacity:1"
       id="path43" />
    <path
       d="m 96.546004,39.477613 q -0.288,0 -0.592,-0.224 -0.288,-0.224 -0.496,-0.544 -0.192,-0.32 -0.192,-0.608 0,-0.512 0.272,-0.8 0.272,-0.288 0.864,-0.528 l 1.632,-0.672 q 0.32,-0.128 0.368,-0.224 0.064,-0.096 0.08,-0.416 l 0.032,-1.024 q 0.016,-0.416 -0.24,-0.72 -0.24,-0.304 -0.704,-0.304 -0.24,0 -0.48,0.08 -0.24,0.08 -0.4,0.208 -0.096,0.064 -0.128,0.192 -0.032,0.128 -0.032,0.272 0,0.064 0,0.144 0.016,0.08 0.016,0.144 0,0.08 -0.208,0.224 -0.192,0.128 -0.448,0.24 -0.24,0.096 -0.4,0.096 -0.08,0 -0.128,-0.032 -0.048,-0.048 -0.048,-0.112 0,-0.256 0.16,-0.544 0.176,-0.304 0.48,-0.56 0.368,-0.336 0.8,-0.592 0.432,-0.256 0.848,-0.4 0.416,-0.144 0.736,-0.144 0.576,0 0.944,0.416 0.384,0.4 0.368,1.008 l -0.08,3.84 q -0.016,0.336 0.144,0.544 0.176,0.208 0.431996,0.208 0.4,0 0.592,-0.176 0.08,-0.08 0.128,-0.08 0.08,0 0.128,0.048 0.048,0.048 0.048,0.128 0,0.176 -0.176,0.352 -0.256,0.256 -0.56,0.4 -0.288,0.16 -0.543996,0.16 -0.736,0 -1.168,-0.832 h -0.048 q -0.528,0.432 -1.008,0.624 -0.48,0.208 -0.992,0.208 z m 0.752,-0.768 q 0.32,0 0.544,-0.096 0.224,-0.112 0.4,-0.288 0.08,-0.08 0.128,-0.208 0.064,-0.144 0.08,-0.448 l 0.032,-0.784 q 0.016,-0.176 -0.016,-0.256 -0.032,-0.08 -0.128,-0.08 -0.032,0 -0.112,0.016 -0.08,0.016 -0.208,0.064 -0.848,0.304 -1.184,0.64 -0.32,0.32 -0.32,0.592 0,0.416 0.24,0.64 0.256,0.208 0.544,0.208 z"
       style="font-style:normal;font-variant:normal;font-weight:normal;font-stretch:normal;font-size:16px;font-family:'EB Garamond';-inkscape-font-specification:'EB Garamond';fill:#b50000;fill-opacity:1"
       id="path45" />
    <path
       d="m 104.457,39.493613 q -0.8,0 -1.456,-0.4 -0.64,-0.416 -1.024,-1.12 -0.368,-0.72 -0.368,-1.6 0,-1.04 0.448,-1.888 0.464,-0.848 1.232,-1.344 0.768,-0.512 1.696,-0.512 1.04,0 1.824,0.56 0.192,0.144 0.192,0.304 0,0.128 -0.112,0.288 -0.112,0.16 -0.272,0.272 -0.16,0.096 -0.304,0.096 -0.08,0 -0.16,-0.048 -0.08,-0.064 -0.176,-0.128 -0.352,-0.272 -0.784,-0.512 -0.432,-0.24 -0.72,-0.24 -0.784,0 -1.28,0.736 -0.48,0.72 -0.48,1.904 0,0.752 0.32,1.36 0.336,0.608 0.88,0.96 0.56,0.352 1.232,0.352 0.464,0 0.8,-0.144 0.336,-0.16 0.72,-0.544 0.032,-0.032 0.08,-0.048 0.048,-0.032 0.08,-0.032 0.176,0 0.176,0.224 0,0.096 -0.064,0.224 -0.048,0.112 -0.176,0.272 -0.256,0.32 -0.608,0.56 -0.352,0.224 -0.784,0.336 -0.416,0.112 -0.912,0.112 z"
       style="font-style:normal;font-variant:normal;font-weight:normal;font-stretch:normal;font-size:16px;font-family:'EB Garamond';-inkscape-font-specification:'EB Garamond';fill:#b50000;fill-opacity:1"
       id="path47" />
    <path
       d="m 108.253,39.301613 q -0.144,0 -0.24,-0.048 -0.08,-0.032 -0.08,-0.128 0,-0.128 0.112,-0.176 0.128,-0.048 0.256,-0.08 0.336,-0.08 0.512,-0.192 0.176,-0.128 0.176,-0.416 v -3.472 q 0,-0.432 -0.16,-0.768 -0.144,-0.336 -0.56,-0.4 -0.08,-0.016 -0.128,-0.064 -0.032,-0.048 -0.032,-0.144 0,-0.176 0.144,-0.192 0.64,-0.144 1.056,-0.384 0.416,-0.256 0.624,-0.416 0.144,-0.112 0.224,-0.112 0.096,0 0.096,0.08 0,0.128 -0.048,0.512 -0.032,0.368 -0.064,0.832 -0.032,0.448 -0.032,0.816 v 3.712 q 0,0.272 0.176,0.4 0.192,0.128 0.512,0.208 0.128,0.032 0.24,0.08 0.128,0.048 0.128,0.176 0,0.176 -0.32,0.176 -0.304,0 -0.496,-0.032 -0.176,-0.016 -0.352,-0.032 -0.16,-0.016 -0.448,-0.016 -0.272,0 -0.448,0.016 -0.176,0.016 -0.352,0.032 -0.176,0.032 -0.496,0.032 z m 1.28,-8.304 q -0.336,0 -0.576,-0.224 -0.224,-0.24 -0.224,-0.576 0,-0.352 0.224,-0.576 0.24,-0.24 0.576,-0.24 0.352,0 0.576,0.24 0.24,0.224 0.24,0.576 0,0.336 -0.24,0.576 -0.224,0.224 -0.576,0.224 z"
       style="font-style:normal;font-variant:normal;font-weight:normal;font-stretch:normal;font-size:16px;font-family:'EB Garamond';-inkscape-font-specification:'EB Garamond';fill:#b50000;fill-opacity:1"
       id="path49" />
    <path
       d="m 115.19925,39.477613 q -0.896,0 -1.616,-0.416 -0.72,-0.416 -1.152,-1.136 -0.416,-0.736 -0.416,-1.664 0,-0.672 0.256,-1.312 0.272,-0.64 0.752,-1.168 0.48,-0.528 1.12,-0.832 0.64,-0.32 1.376,-0.32 0.928,0 1.664,0.448 0.752,0.448 1.184,1.184 0.448,0.72 0.448,1.584 0,0.928 -0.416,1.76 -0.4,0.832 -1.2,1.36 -0.8,0.512 -2,0.512 z m 0.336,-0.48 q 0.544,0 0.976,-0.208 0.432,-0.208 0.672,-0.672 0.192,-0.368 0.256,-0.896 0.064,-0.528 0.064,-0.992 0,-0.768 -0.288,-1.472 -0.272,-0.72 -0.784,-1.168 -0.496,-0.464 -1.184,-0.464 -0.432,0 -0.784,0.144 -0.336,0.128 -0.624,0.496 -0.32,0.4 -0.416,0.976 -0.096,0.576 -0.096,1.152 0,0.784 0.288,1.504 0.288,0.704 0.784,1.152 0.496,0.448 1.136,0.448 z"
       style="font-style:normal;font-variant:normal;font-weight:normal;font-stretch:normal;font-size:16px;font-family:'EB Garamond';-inkscape-font-specification:'EB Garamond';fill:#b50000;fill-opacity:1"
       id="path51" />
    <path
       d="m 123.333,39.301613 q -0.16,0 -0.24,-0.048 -0.08,-0.032 -0.08,-0.128 0,-0.128 0.096,-0.16 0.096,-0.048 0.272,-0.096 0.304,-0.08 0.448,-0.224 0.16,-0.16 0.16,-0.384 v -3.44 q 0,-0.432 -0.128,-0.752 -0.128,-0.32 -0.528,-0.4 -0.064,-0.016 -0.112,-0.08 -0.048,-0.064 -0.048,-0.128 0,-0.16 0.144,-0.192 0.416,-0.128 0.864,-0.368 0.464,-0.256 0.72,-0.416 0.096,-0.064 0.144,-0.08 0.064,-0.032 0.096,-0.032 0.08,0 0.08,0.112 0,0.048 -0.016,0.24 0,0.192 -0.016,0.448 0,0.256 -0.016,0.512 0,0.032 0.032,0.032 0.256,-0.32 0.56,-0.56 0.32,-0.24 0.64,-0.384 0.336,-0.144 0.64,-0.144 0.336,0 0.544,0.144 0.224,0.144 0.224,0.368 0,0.16 -0.096,0.352 -0.08,0.192 -0.224,0.336 -0.144,0.144 -0.304,0.144 -0.096,0 -0.208,-0.032 -0.112,-0.048 -0.24,-0.112 -0.128,-0.048 -0.256,-0.096 -0.128,-0.048 -0.256,-0.048 -0.384,0 -0.752,0.272 -0.352,0.272 -0.352,1.072 v 3.232 q 0,0.208 0.224,0.352 0.224,0.128 0.624,0.256 0.176,0.048 0.272,0.096 0.096,0.048 0.096,0.16 0,0.176 -0.32,0.176 -0.48,0 -0.736,-0.048 -0.24,-0.032 -0.656,-0.032 -0.272,0 -0.448,0.016 -0.16,0.016 -0.352,0.032 -0.176,0.032 -0.496,0.032 z"
       style="font-style:normal;font-variant:normal;font-weight:normal;font-stretch:normal;font-size:16px;font-family:'EB Garamond';-inkscape-font-specification:'EB Garamond';fill:#b50000;fill-opacity:1"
       id="path53" />
    <path
       d="m 131.30075,39.493613 q -0.88,0 -1.536,-0.432 -0.656,-0.432 -1.024,-1.216 -0.368,-0.8 -0.368,-1.84 0,-0.928 0.416,-1.68 0.432,-0.768 1.136,-1.232 0.704,-0.464 1.536,-0.464 0.64,0 1.136,0.256 0.496,0.256 0.768,0.72 0.288,0.448 0.288,1.04 0,0.496 -0.48,0.496 h -3.376 q -0.224,0 -0.32,0.128 -0.08,0.112 -0.08,0.464 0,0.768 0.336,1.408 0.336,0.624 0.896,1.008 0.56,0.368 1.232,0.368 0.48,0 0.864,-0.176 0.4,-0.192 0.704,-0.544 0.064,-0.08 0.096,-0.096 0.032,-0.032 0.08,-0.032 0.128,0 0.128,0.16 0,0.304 -0.288,0.672 -0.24,0.304 -0.576,0.528 -0.336,0.224 -0.736,0.336 -0.4,0.128 -0.832,0.128 z m -1.472,-4.848 h 1.456 q 0.384,0 0.656,-0.016 0.272,-0.016 0.528,-0.064 0.08,-0.016 0.096,-0.096 0.032,-0.096 0.032,-0.256 0,-0.464 -0.416,-0.784 -0.4,-0.336 -0.96,-0.336 -0.368,0 -0.736,0.224 -0.368,0.208 -0.608,0.528 -0.24,0.32 -0.24,0.64 0,0.16 0.192,0.16 z"
       style="font-style:normal;font-variant:normal;font-weight:normal;font-stretch:normal;font-size:16px;font-family:'EB Garamond';-inkscape-font-specification:'EB Garamond';fill:#b50000;fill-opacity:1"
       id="path55" />
    <path
       d="m 137.3945,39.493613 q -0.8,0 -1.456,-0.4 -0.64,-0.416 -1.024,-1.12 -0.368,-0.72 -0.368,-1.6 0,-1.04 0.448,-1.888 0.464,-0.848 1.232,-1.344 0.768,-0.512 1.696,-0.512 1.04,0 1.824,0.56 0.192,0.144 0.192,0.304 0,0.128 -0.112,0.288 -0.112,0.16 -0.272,0.272 -0.16,0.096 -0.304,0.096 -0.08,0 -0.16,-0.048 -0.08,-0.064 -0.176,-0.128 -0.352,-0.272 -0.784,-0.512 -0.432,-0.24 -0.72,-0.24 -0.784,0 -1.28,0.736 -0.48,0.72 -0.48,1.904 0,0.752 0.32,1.36 0.336,0.608 0.88,0.96 0.56,0.352 1.232,0.352 0.464,0 0.8,-0.144 0.336,-0.16 0.72,-0.544 0.032,-0.032 0.08,-0.048 0.048,-0.032 0.08,-0.032 0.176,0 0.176,0.224 0,0.096 -0.064,0.224 -0.048,0.112 -0.176,0.272 -0.256,0.32 -0.608,0.56 -0.352,0.224 -0.784,0.336 -0.416,0.112 -0.912,0.112 z"
       style="font-style:normal;font-variant:normal;font-weight:normal;font-stretch:normal;font-size:16px;font-family:'EB Garamond';-inkscape-font-specification:'EB Garamond';fill:#b50000;fill-opacity:1"
       id="path57" />
    <path
       d="m 143.918,39.477613 q -0.896,0 -1.616,-0.416 -0.72,-0.416 -1.152,-1.136 -0.416,-0.736 -0.416,-1.664 0,-0.672 0.256,-1.312 0.272,-0.64 0.752,-1.168 0.48,-0.528 1.12,-0.832 0.64,-0.32 1.376,-0.32 0.928,0 1.664,0.448 0.752,0.448 1.184,1.184 0.448,0.72 0.448,1.584 0,0.928 -0.416,1.76 -0.4,0.832 -1.2,1.36 -0.8,0.512 -2,0.512 z m 0.336,-0.48 q 0.544,0 0.976,-0.208 0.432,-0.208 0.672,-0.672 0.192,-0.368 0.256,-0.896 0.064,-0.528 0.064,-0.992 0,-0.768 -0.288,-1.472 -0.272,-0.72 -0.784,-1.168 -0.496,-0.464 -1.184,-0.464 -0.432,0 -0.784,0.144 -0.336,0.128 -0.624,0.496 -0.32,0.4 -0.416,0.976 -0.096,0.576 -0.096,1.152 0,0.784 0.288,1.504 0.288,0.704 0.784,1.152 0.496,0.448 1.136,0.448 z"
       style="font-style:normal;font-variant:normal;font-weight:normal;font-stretch:normal;font-size:16px;font-family:'EB Garamond';-inkscape-font-specification:'EB Garamond';fill:#b50000;fill-opacity:1"
       id="path59" />
    <path
       d="m 148.86425,39.301613 q -0.16,0 -0.24,-0.048 -0.08,-0.032 -0.08,-0.128 0,-0.128 0.096,-0.16 0.096,-0.048 0.272,-0.096 0.304,-0.08 0.448,-0.224 0.16,-0.16 0.16,-0.384 v -3.44 q 0,-0.432 -0.128,-0.752 -0.128,-0.32 -0.528,-0.4 -0.064,-0.016 -0.112,-0.08 -0.048,-0.064 -0.048,-0.128 0,-0.16 0.144,-0.192 0.416,-0.128 0.864,-0.368 0.464,-0.256 0.72,-0.416 0.096,-0.064 0.144,-0.08 0.064,-0.032 0.096,-0.032 0.08,0 0.08,0.112 0,0.048 -0.016,0.24 0,0.192 -0.016,0.448 0,0.256 -0.016,0.512 0,0.032 0.032,0.032 0.256,-0.32 0.56,-0.56 0.32,-0.24 0.64,-0.384 0.336,-0.144 0.64,-0.144 0.336,0 0.544,0.144 0.224,0.144 0.224,0.368 0,0.16 -0.096,0.352 -0.08,0.192 -0.224,0.336 -0.144,0.144 -0.304,0.144 -0.096,0 -0.208,-0.032 -0.112,-0.048 -0.24,-0.112 -0.128,-0.048 -0.256,-0.096 -0.128,-0.048 -0.256,-0.048 -0.384,0 -0.752,0.272 -0.352,0.272 -0.352,1.072 v 3.232 q 0,0.208 0.224,0.352 0.224,0.128 0.624,0.256 0.176,0.048 0.272,0.096 0.096,0.048 0.096,0.16 0,0.176 -0.32,0.176 -0.48,0 -0.736,-0.048 -0.24,-0.032 -0.656,-0.032 -0.272,0 -0.448,0.016 -0.16,0.016 -0.352,0.032 -0.176,0.032 -0.496,0.032 z"
       style="font-style:normal;font-variant:normal;font-weight:normal;font-stretch:normal;font-size:16px;font-family:'EB Garamond';-inkscape-font-specification:'EB Garamond';fill:#b50000;fill-opacity:1"
       id="path61" />
    <path
       d="m 154.208,39.301613 q -0.16,0 -0.24,-0.048 -0.08,-0.032 -0.08,-0.128 0,-0.128 0.096,-0.16 0.096,-0.048 0.272,-0.096 0.304,-0.08 0.448,-0.224 0.16,-0.16 0.16,-0.384 v -3.44 q 0,-0.432 -0.128,-0.752 -0.128,-0.32 -0.528,-0.4 -0.064,-0.016 -0.112,-0.08 -0.048,-0.064 -0.048,-0.128 0,-0.16 0.144,-0.192 0.416,-0.128 0.864,-0.368 0.464,-0.256 0.72,-0.416 0.096,-0.064 0.144,-0.08 0.064,-0.032 0.096,-0.032 0.08,0 0.08,0.112 0,0.048 -0.016,0.24 0,0.192 -0.016,0.448 0,0.256 -0.016,0.512 0,0.032 0.032,0.032 0.256,-0.32 0.56,-0.56 0.32,-0.24 0.64,-0.384 0.336,-0.144 0.64,-0.144 0.336,0 0.544,0.144 0.224,0.144 0.224,0.368 0,0.16 -0.096,0.352 -0.08,0.192 -0.224,0.336 -0.144,0.144 -0.304,0.144 -0.096,0 -0.208,-0.032 -0.112,-0.048 -0.24,-0.112 -0.128,-0.048 -0.256,-0.096 -0.128,-0.048 -0.256,-0.048 -0.384,0 -0.752,0.272 -0.352,0.272 -0.352,1.072 v 3.232 q 0,0.208 0.224,0.352 0.224,0.128 0.624,0.256 0.176,0.048 0.272,0.096 0.096,0.048 0.096,0.16 0,0.176 -0.32,0.176 -0.48,0 -0.736,-0.048 -0.24,-0.032 -0.656,-0.032 -0.272,0 -0.448,0.016 -0.16,0.016 -0.352,0.032 -0.176,0.032 -0.496,0.032 z"
       style="font-style:normal;font-variant:normal;font-weight:normal;font-stretch:normal;font-size:16px;font-family:'EB Garamond';-inkscape-font-specification:'EB Garamond';fill:#b50000;fill-opacity:1"
       id="path63" />
    <path
       d="m 159.47175,39.301613 q -0.144,0 -0.24,-0.048 -0.08,-0.032 -0.08,-0.128 0,-0.128 0.112,-0.176 0.128,-0.048 0.256,-0.08 0.336,-0.08 0.512,-0.192 0.176,-0.128 0.176,-0.416 v -3.472 q 0,-0.432 -0.16,-0.768 -0.144,-0.336 -0.56,-0.4 -0.08,-0.016 -0.128,-0.064 -0.032,-0.048 -0.032,-0.144 0,-0.176 0.144,-0.192 0.64,-0.144 1.056,-0.384 0.416,-0.256 0.624,-0.416 0.144,-0.112 0.224,-0.112 0.096,0 0.096,0.08 0,0.128 -0.048,0.512 -0.032,0.368 -0.064,0.832 -0.032,0.448 -0.032,0.816 v 3.712 q 0,0.272 0.176,0.4 0.192,0.128 0.512,0.208 0.128,0.032 0.24,0.08 0.128,0.048 0.128,0.176 0,0.176 -0.32,0.176 -0.304,0 -0.496,-0.032 -0.176,-0.016 -0.352,-0.032 -0.16,-0.016 -0.448,-0.016 -0.272,0 -0.448,0.016 -0.176,0.016 -0.352,0.032 -0.176,0.032 -0.496,0.032 z m 1.28,-8.304 q -0.336,0 -0.576,-0.224 -0.224,-0.24 -0.224,-0.576 0,-0.352 0.224,-0.576 0.24,-0.24 0.576,-0.24 0.352,0 0.576,0.24 0.24,0.224 0.24,0.576 0,0.336 -0.24,0.576 -0.224,0.224 -0.576,0.224 z"
       style="font-style:normal;font-variant:normal;font-weight:normal;font-stretch:normal;font-size:16px;font-family:'EB Garamond';-inkscape-font-specification:'EB Garamond';fill:#b50000;fill-opacity:1"
       id="path65" />
    <path
       d="m 168.386,39.557613 q -0.032,0 -0.112,-0.064 -0.064,-0.064 -0.064,-0.096 0,-0.16 0.032,-0.448 0.048,-0.304 0.048,-0.512 v -0.096 q -0.24,0.368 -0.768,0.752 -0.528,0.384 -1.328,0.384 -0.912,0 -1.584,-0.48 -0.656,-0.48 -1.024,-1.232 -0.352,-0.752 -0.352,-1.552 0,-0.928 0.432,-1.744 0.432,-0.816 1.232,-1.328 0.816,-0.512 1.936,-0.512 0.32,0 0.64,0.064 0.336,0.048 0.512,0.112 0.144,0.048 0.208,0.048 0.112,0 0.112,-0.384 v -2.272 q 0,-0.656 -0.208,-0.88 -0.208,-0.224 -0.592,-0.288 -0.144,-0.032 -0.144,-0.208 0,-0.144 0.128,-0.192 0.704,-0.176 1.104,-0.336 0.4,-0.16 0.624,-0.256 0.064,-0.032 0.112,-0.032 0.064,-0.016 0.096,-0.016 0.096,0 0.112,0.096 0,0.096 -0.032,0.336 -0.016,0.224 -0.048,0.672 -0.032,0.448 -0.032,1.168 v 7.232 q 0,0.544 0.08,0.8 0.08,0.24 0.256,0.24 0.08,0 0.272,-0.016 0.208,-0.016 0.416,-0.032 0.288,-0.016 0.288,0.144 0,0.112 -0.08,0.208 -0.064,0.08 -0.144,0.08 -0.448,0.064 -0.88,0.192 -0.432,0.112 -0.992,0.352 -0.128,0.064 -0.176,0.08 -0.032,0.016 -0.08,0.016 z m -1.616,-0.912 q 0.416,0 0.816,-0.208 0.4,-0.224 0.704,-0.576 l 0.016,-2.88 q 0,-0.432 -0.256,-0.848 -0.24,-0.416 -0.688,-0.672 -0.432,-0.272 -1.024,-0.272 -0.368,0 -0.832,0.224 -0.464,0.224 -0.8,0.8 -0.336,0.56 -0.336,1.632 0,0.912 0.272,1.472 0.272,0.544 0.656,0.832 0.4,0.288 0.8,0.4 0.416,0.096 0.672,0.096 z"
       style="font-style:normal;font-variant:normal;font-weight:normal;font-stretch:normal;font-size:16px;font-family:'EB Garamond';-inkscape-font-specification:'EB Garamond';fill:#b50000;fill-opacity:1"
       id="path67" />
    <path
       d="m 174.51175,39.477613 q -0.896,0 -1.616,-0.416 -0.72,-0.416 -1.152,-1.136 -0.416,-0.736 -0.416,-1.664 0,-0.672 0.256,-1.312 0.272,-0.64 0.752,-1.168 0.48,-0.528 1.12,-0.832 0.64,-0.32 1.376,-0.32 0.928,0 1.664,0.448 0.752,0.448 1.184,1.184 0.448,0.72 0.448,1.584 0,0.928 -0.416,1.76 -0.4,0.832 -1.2,1.36 -0.8,0.512 -2,0.512 z m 0.336,-0.48 q 0.544,0 0.976,-0.208 0.432,-0.208 0.672,-0.672 0.192,-0.368 0.256,-0.896 0.064,-0.528 0.064,-0.992 0,-0.768 -0.288,-1.472 -0.272,-0.72 -0.784,-1.168 -0.496,-0.464 -1.184,-0.464 -0.432,0 -0.784,0.144 -0.336,0.128 -0.624,0.496 -0.32,0.4 -0.416,0.976 -0.096,0.576 -0.096,1.152 0,0.784 0.288,1.504 0.288,0.704 0.784,1.152 0.496,0.448 1.136,0.448 z"
       style="font-style:normal;font-variant:normal;font-weight:normal;font-stretch:normal;font-size:16px;font-family:'EB Garamond';-inkscape-font-specification:'EB Garamond';fill:#b50000;fill-opacity:1"
       id="path69" />
  </g>
  <g
     aria-label="Desplazamiento"
     transform="rotate(26.572847)"
     id="text78"
     style="font-style:normal;font-weight:normal;font-size:16px;line-height:1.25;font-family:sans-serif;fill:#4c5f26;fill-opacity:1;stroke:none">
    <path
       d="m 106.35805,73.287674 q -0.16,0 -0.72,-0.032 -0.544,-0.032 -1.264,-0.064 -0.704,-0.016 -1.344,-0.016 -0.32,0 -0.544,0.016 -0.208,0.016 -0.464,0.032 -0.24,0.032 -0.672,0.032 -0.208,0 -0.336,-0.048 -0.128,-0.048 -0.128,-0.16 0,-0.128 0.128,-0.16 0.128,-0.048 0.4,-0.096 0.608,-0.112 0.832,-0.368 0.24,-0.256 0.24,-0.832 v -7.2 q 0,-0.576 -0.24,-0.816 -0.224,-0.24 -0.832,-0.352 -0.272,-0.048 -0.4,-0.096 -0.128,-0.064 -0.128,-0.192 0,-0.112 0.128,-0.16 0.128,-0.048 0.336,-0.048 0.416,0 0.656,0.016 0.256,0 0.496,0.016 0.24,0 0.624,0 0.256,0 0.64,-0.016 0.4,-0.016 0.816,-0.048 0.432,-0.032 0.768,-0.048 0.352,-0.016 0.512,-0.016 1.632,0 2.784,0.4 1.152,0.384 1.872,1.088 0.72,0.688 1.056,1.616 0.352,0.912 0.352,1.968 0,1.152 -0.432,2.16 -0.432,1.008 -1.2,1.792 -0.768,0.768 -1.776,1.2 -1.008,0.432 -2.16,0.432 z m -0.192,-0.56 q 1.248,0 2.208,-0.608 0.96,-0.608 1.488,-1.68 0.544,-1.072 0.544,-2.464 0,-1.152 -0.384,-2.048 -0.384,-0.912 -1.024,-1.52 -0.64,-0.624 -1.44,-0.944 -0.8,-0.336 -1.616,-0.336 -0.688,0 -1.184,0.048 -0.48,0.032 -0.736,0.24 -0.256,0.208 -0.256,0.688 v 7.136 q 0,0.64 0.352,0.96 0.352,0.32 0.896,0.432 0.56,0.096 1.152,0.096 z"
       style="font-style:normal;font-variant:normal;font-weight:normal;font-stretch:normal;font-size:16px;font-family:'EB Garamond';-inkscape-font-specification:'EB Garamond';fill:#4c5f26;fill-opacity:1"
       id="path72" />
    <path
       d="m 115.89255,73.415674 q -0.88,0 -1.536,-0.432 -0.656,-0.432 -1.024,-1.216 -0.368,-0.8 -0.368,-1.84 0,-0.928 0.416,-1.68 0.432,-0.768 1.136,-1.232 0.704,-0.464 1.536,-0.464 0.64,0 1.136,0.256 0.496,0.256 0.768,0.72 0.288,0.448 0.288,1.04 0,0.496 -0.48,0.496 h -3.376 q -0.224,0 -0.32,0.128 -0.08,0.112 -0.08,0.464 0,0.768 0.336,1.408 0.336,0.624 0.896,1.008 0.56,0.368 1.232,0.368 0.48,0 0.864,-0.176 0.4,-0.192 0.704,-0.544 0.064,-0.08 0.096,-0.096 0.032,-0.032 0.08,-0.032 0.128,0 0.128,0.16 0,0.304 -0.288,0.672 -0.24,0.304 -0.576,0.528 -0.336,0.224 -0.736,0.336 -0.4,0.128 -0.832,0.128 z m -1.472,-4.848 h 1.456 q 0.384,0 0.656,-0.016 0.272,-0.016 0.528,-0.064 0.08,-0.016 0.096,-0.096 0.032,-0.096 0.032,-0.256 0,-0.464 -0.416,-0.784 -0.4,-0.336 -0.96,-0.336 -0.368,0 -0.736,0.224 -0.368,0.208 -0.608,0.528 -0.24,0.32 -0.24,0.64 0,0.16 0.192,0.16 z"
       style="font-style:normal;font-variant:normal;font-weight:normal;font-stretch:normal;font-size:16px;font-family:'EB Garamond';-inkscape-font-specification:'EB Garamond';fill:#4c5f26;fill-opacity:1"
       id="path74" />
    <path
       d="m 121.03855,73.399674 q -0.496,0 -0.928,-0.16 -0.432,-0.144 -0.736,-0.416 -0.08,-0.176 -0.128,-0.592 -0.032,-0.416 -0.048,-0.688 0,-0.144 0.208,-0.144 0.064,0 0.112,0.032 0.064,0.016 0.08,0.08 0.208,0.784 0.656,1.12 0.464,0.336 0.928,0.336 0.464,0 0.784,-0.304 0.336,-0.32 0.336,-0.784 0,-0.432 -0.288,-0.736 -0.288,-0.32 -1.008,-0.768 -0.544,-0.336 -0.88,-0.64 -0.336,-0.304 -0.496,-0.624 -0.144,-0.32 -0.144,-0.72 0,-0.512 0.24,-0.928 0.24,-0.416 0.72,-0.656 0.48,-0.256 1.2,-0.256 0.48,0 0.8,0.096 0.32,0.096 0.48,0.208 0.128,0.176 0.208,0.56 0.096,0.368 0.096,0.704 0,0.112 -0.16,0.112 -0.096,0 -0.192,-0.032 -0.08,-0.048 -0.112,-0.112 -0.208,-0.528 -0.528,-0.8 -0.304,-0.288 -0.768,-0.288 -0.4,0 -0.72,0.24 -0.304,0.24 -0.304,0.704 0,0.368 0.224,0.656 0.24,0.288 0.88,0.656 0.928,0.528 1.376,0.992 0.464,0.448 0.464,1.2 0,0.864 -0.656,1.408 -0.656,0.544 -1.696,0.544 z"
       style="font-style:normal;font-variant:normal;font-weight:normal;font-stretch:normal;font-size:16px;font-family:'EB Garamond';-inkscape-font-specification:'EB Garamond';fill:#4c5f26;fill-opacity:1"
       id="path76" />
    <path
       d="m 124.5308,77.735674 q -0.08,0 -0.208,-0.032 -0.128,-0.016 -0.128,-0.112 0,-0.128 0.112,-0.192 0.128,-0.048 0.256,-0.096 0.24,-0.08 0.464,-0.192 0.224,-0.096 0.224,-0.416 v -8.112 q 0,-0.128 -0.08,-0.384 -0.064,-0.256 -0.224,-0.496 -0.16,-0.24 -0.432,-0.288 -0.064,-0.016 -0.096,-0.08 -0.032,-0.064 -0.032,-0.128 0,-0.08 0.032,-0.128 0.032,-0.048 0.08,-0.064 0.608,-0.144 1.04,-0.304 0.432,-0.176 0.816,-0.336 0.016,0 0.016,0 0,-0.016 0.016,-0.016 0.032,0 0.064,0.048 0.032,0.048 0.032,0.096 0,0.144 -0.048,0.464 -0.032,0.304 -0.032,0.496 0,0.128 0.016,0.144 0.16,-0.16 0.576,-0.4 0.432,-0.256 0.976,-0.448 0.544,-0.208 1.04,-0.208 0.832,0 1.408,0.448 0.592,0.432 0.896,1.136 0.32,0.688 0.32,1.44 0,0.72 -0.272,1.408 -0.272,0.672 -0.768,1.216 -0.496,0.544 -1.152,0.88 -0.656,0.32 -1.408,0.32 -0.224,0 -0.544,-0.08 -0.304,-0.064 -0.608,-0.176 -0.288,-0.112 -0.448,-0.256 -0.016,0 -0.032,0.192 -0.016,0.176 -0.032,0.368 0,0.208 0,0.256 v 2.992 q 0,0.208 0.16,0.32 0.176,0.128 0.384,0.176 0.224,0.064 0.384,0.112 0.128,0.048 0.24,0.096 0.128,0.064 0.128,0.192 0,0.096 -0.128,0.112 -0.128,0.032 -0.224,0.032 -0.464,0 -0.784,-0.048 -0.304,-0.032 -0.72,-0.032 -0.272,0 -0.448,0.016 -0.16,0.016 -0.336,0.032 -0.176,0.032 -0.496,0.032 z m 3.744,-4.832 q 0.24,0 0.576,-0.144 0.352,-0.144 0.688,-0.464 0.352,-0.32 0.576,-0.864 0.24,-0.544 0.24,-1.344 0,-0.928 -0.24,-1.488 -0.24,-0.56 -0.592,-0.848 -0.352,-0.288 -0.72,-0.384 -0.368,-0.096 -0.624,-0.096 -0.384,0 -0.8,0.16 -0.4,0.16 -0.688,0.368 -0.272,0.192 -0.272,0.304 0,0.352 -0.016,0.72 0,0.352 -0.016,0.688 0,0.336 -0.016,0.608 0,0.256 0,0.4 0,0.64 0.288,1.184 0.304,0.544 0.736,0.88 0.448,0.32 0.88,0.32 z"
       style="font-style:normal;font-variant:normal;font-weight:normal;font-stretch:normal;font-size:16px;font-family:'EB Garamond';-inkscape-font-specification:'EB Garamond';fill:#4c5f26;fill-opacity:1"
       id="path78" />
    <path
       d="m 132.5773,73.223674 q -0.08,0 -0.208,-0.032 -0.112,-0.016 -0.112,-0.112 0,-0.128 0.112,-0.176 0.128,-0.064 0.256,-0.112 0.24,-0.08 0.464,-0.176 0.224,-0.112 0.224,-0.432 v -8.064 q 0,-0.464 -0.176,-0.768 -0.16,-0.32 -0.56,-0.4 -0.128,-0.032 -0.128,-0.208 0,-0.16 0.112,-0.192 0.416,-0.096 0.72,-0.192 0.304,-0.112 0.56,-0.224 0.272,-0.112 0.528,-0.208 0.064,-0.032 0.096,-0.032 0.032,0 0.048,0.048 0.032,0.032 0.032,0.064 0,0.144 -0.064,0.624 -0.048,0.464 -0.048,1.552 v 8 q 0,0.32 0.224,0.432 0.224,0.096 0.464,0.176 0.128,0.048 0.24,0.112 0.128,0.048 0.128,0.176 0,0.096 -0.128,0.112 -0.112,0.032 -0.192,0.032 -0.304,0 -0.496,-0.032 -0.176,-0.016 -0.352,-0.032 -0.16,-0.016 -0.448,-0.016 -0.272,0 -0.448,0.016 -0.176,0.016 -0.352,0.032 -0.176,0.032 -0.496,0.032 z"
       style="font-style:normal;font-variant:normal;font-weight:normal;font-stretch:normal;font-size:16px;font-family:'EB Garamond';-inkscape-font-specification:'EB Garamond';fill:#4c5f26;fill-opacity:1"
       id="path80" />
    <path
       d="m 137.66905,73.399674 q -0.288,0 -0.592,-0.224 -0.288,-0.224 -0.496,-0.544 -0.192,-0.32 -0.192,-0.608 0,-0.512 0.272,-0.8 0.272,-0.288 0.864,-0.528 l 1.632,-0.672 q 0.32,-0.128 0.368,-0.224 0.064,-0.096 0.08,-0.416 l 0.032,-1.024 q 0.016,-0.416 -0.24,-0.72 -0.24,-0.304 -0.704,-0.304 -0.24,0 -0.48,0.08 -0.24,0.08 -0.4,0.208 -0.096,0.064 -0.128,0.192 -0.032,0.128 -0.032,0.272 0,0.064 0,0.144 0.016,0.08 0.016,0.144 0,0.08 -0.208,0.224 -0.192,0.128 -0.448,0.24 -0.24,0.096 -0.4,0.096 -0.08,0 -0.128,-0.032 -0.048,-0.048 -0.048,-0.112 0,-0.256 0.16,-0.544 0.176,-0.304 0.48,-0.56 0.368,-0.336 0.8,-0.592 0.432,-0.256 0.848,-0.4 0.416,-0.144 0.736,-0.144 0.576,0 0.944,0.416 0.384,0.4 0.368,1.008 l -0.08,3.84 q -0.016,0.336 0.144,0.544 0.176,0.208 0.432,0.208 0.4,0 0.592,-0.176 0.08,-0.08 0.128,-0.08 0.08,0 0.128,0.048 0.048,0.048 0.048,0.128 0,0.176 -0.176,0.352 -0.256,0.256 -0.56,0.4 -0.288,0.16 -0.544,0.16 -0.736,0 -1.168,-0.832 h -0.048 q -0.528,0.432 -1.008,0.624 -0.48,0.208 -0.992,0.208 z m 0.752,-0.768 q 0.32,0 0.544,-0.096 0.224,-0.112 0.4,-0.288 0.08,-0.08 0.128,-0.208 0.064,-0.144 0.08,-0.448 l 0.032,-0.784 q 0.016,-0.176 -0.016,-0.256 -0.032,-0.08 -0.128,-0.08 -0.032,0 -0.112,0.016 -0.08,0.016 -0.208,0.064 -0.848,0.304 -1.184,0.64 -0.32,0.32 -0.32,0.592 0,0.416 0.24,0.64 0.256,0.208 0.544,0.208 z"
       style="font-style:normal;font-variant:normal;font-weight:normal;font-stretch:normal;font-size:16px;font-family:'EB Garamond';-inkscape-font-specification:'EB Garamond';fill:#4c5f26;fill-opacity:1"
       id="path82" />
    <path
       d="m 142.48355,73.255674 q -0.064,0 -0.144,-0.096 -0.08,-0.112 -0.08,-0.176 0,-0.048 0.096,-0.208 0.112,-0.16 0.24,-0.368 0.144,-0.208 0.256,-0.352 0.4,-0.576 0.768,-1.104 0.368,-0.544 0.72,-1.072 0.368,-0.544 0.752,-1.136 0.384,-0.608 0.816,-1.296 0.032,-0.048 0.032,-0.096 0,-0.064 -0.176,-0.064 l -1.584,-0.048 q -0.224,-0.016 -0.416,0.096 -0.192,0.112 -0.288,0.208 -0.096,0.096 -0.192,0.208 -0.08,0.112 -0.176,0.24 -0.08,0.128 -0.176,0.256 -0.08,0.112 -0.16,0.224 -0.096,0.096 -0.256,0.032 -0.144,-0.064 -0.096,-0.192 0.048,-0.144 0.112,-0.416 0.08,-0.288 0.128,-0.592 0.064,-0.304 0.064,-0.496 0,-0.128 0.096,-0.208 0.096,-0.08 0.144,-0.08 0.064,0 0.24,0.144 0.08,0.064 0.272,0.08 0.208,0.016 0.416,0.016 0.176,0 0.336,0 0.16,-0.016 0.272,-0.016 0.832,0 1.536,-0.016 0.704,-0.016 1.44,-0.032 0.048,0 0.08,0.032 0.032,0.032 0.048,0.08 0.016,0.048 -0.016,0.08 -0.16,0.208 -0.304,0.384 -0.144,0.176 -0.304,0.416 l -3.12,4.72 q -0.064,0.112 -0.016,0.176 0.048,0.064 0.16,0.064 h 1.888 q 0.176,0 0.352,-0.096 0.192,-0.096 0.368,-0.272 0.192,-0.192 0.416,-0.496 0.224,-0.32 0.464,-0.672 0.08,-0.112 0.208,-0.064 0.144,0.048 0.144,0.176 0,0.048 -0.064,0.304 -0.064,0.24 -0.16,0.56 -0.08,0.304 -0.16,0.576 -0.064,0.272 -0.096,0.368 -0.048,0.224 -0.256,0.224 -0.352,0 -1.2,-0.048 -0.832,-0.032 -2.144,-0.032 -0.336,0 -0.704,0.032 -0.368,0.048 -0.576,0.048 z"
       style="font-style:normal;font-variant:normal;font-weight:normal;font-stretch:normal;font-size:16px;font-family:'EB Garamond';-inkscape-font-specification:'EB Garamond';fill:#4c5f26;fill-opacity:1"
       id="path84" />
    <path
       d="m 149.7628,73.399674 q -0.288,0 -0.592,-0.224 -0.288,-0.224 -0.496,-0.544 -0.192,-0.32 -0.192,-0.608 0,-0.512 0.272,-0.8 0.272,-0.288 0.864,-0.528 l 1.632,-0.672 q 0.32,-0.128 0.368,-0.224 0.064,-0.096 0.08,-0.416 l 0.032,-1.024 q 0.016,-0.416 -0.24,-0.72 -0.24,-0.304 -0.704,-0.304 -0.24,0 -0.48,0.08 -0.24,0.08 -0.4,0.208 -0.096,0.064 -0.128,0.192 -0.032,0.128 -0.032,0.272 0,0.064 0,0.144 0.016,0.08 0.016,0.144 0,0.08 -0.208,0.224 -0.192,0.128 -0.448,0.24 -0.24,0.096 -0.4,0.096 -0.08,0 -0.128,-0.032 -0.048,-0.048 -0.048,-0.112 0,-0.256 0.16,-0.544 0.176,-0.304 0.48,-0.56 0.368,-0.336 0.8,-0.592 0.432,-0.256 0.848,-0.4 0.416,-0.144 0.736,-0.144 0.576,0 0.944,0.416 0.384,0.4 0.368,1.008 l -0.08,3.84 q -0.016,0.336 0.144,0.544 0.176,0.208 0.432,0.208 0.4,0 0.592,-0.176 0.08,-0.08 0.128,-0.08 0.08,0 0.128,0.048 0.048,0.048 0.048,0.128 0,0.176 -0.176,0.352 -0.256,0.256 -0.56,0.4 -0.288,0.16 -0.544,0.16 -0.736,0 -1.168,-0.832 h -0.048 q -0.528,0.432 -1.008,0.624 -0.48,0.208 -0.992,0.208 z m 0.752,-0.768 q 0.32,0 0.544,-0.096 0.224,-0.112 0.4,-0.288 0.08,-0.08 0.128,-0.208 0.064,-0.144 0.08,-0.448 l 0.032,-0.784 q 0.016,-0.176 -0.016,-0.256 -0.032,-0.08 -0.128,-0.08 -0.032,0 -0.112,0.016 -0.08,0.016 -0.208,0.064 -0.848,0.304 -1.184,0.64 -0.32,0.32 -0.32,0.592 0,0.416 0.24,0.64 0.256,0.208 0.544,0.208 z"
       style="font-style:normal;font-variant:normal;font-weight:normal;font-stretch:normal;font-size:16px;font-family:'EB Garamond';-inkscape-font-specification:'EB Garamond';fill:#4c5f26;fill-opacity:1"
       id="path86" />
    <path
       d="m 154.9698,73.223674 q -0.128,0 -0.224,-0.032 -0.096,-0.032 -0.096,-0.144 0,-0.112 0.096,-0.16 0.112,-0.048 0.272,-0.096 0.224,-0.08 0.448,-0.176 0.24,-0.112 0.24,-0.432 v -3.44 q 0,-0.432 -0.096,-0.752 -0.096,-0.336 -0.512,-0.4 -0.064,-0.016 -0.112,-0.064 -0.032,-0.048 -0.032,-0.144 0,-0.16 0.128,-0.192 0.432,-0.112 0.688,-0.224 0.256,-0.128 0.448,-0.272 0.208,-0.16 0.496,-0.336 0.032,-0.016 0.064,-0.032 0.032,-0.032 0.08,-0.032 0.096,0 0.096,0.112 0,0.112 -0.048,0.464 -0.032,0.336 -0.032,0.56 0,0.16 0.032,0.192 h 0.032 q 0.368,-0.352 0.96,-0.704 0.608,-0.368 1.536,-0.368 0.576,0 0.96,0.256 0.384,0.24 0.64,0.848 h 0.048 q 0.512,-0.464 1.168,-0.784 0.656,-0.32 1.44,-0.32 0.528,0 0.88,0.32 0.352,0.32 0.528,0.832 0.192,0.512 0.192,1.072 v 3.408 q 0,0.32 0.224,0.432 0.224,0.096 0.464,0.176 0.16,0.048 0.256,0.096 0.112,0.048 0.112,0.16 0,0.096 -0.08,0.128 -0.064,0.048 -0.24,0.048 -0.32,0 -0.496,-0.032 -0.176,-0.016 -0.336,-0.032 -0.144,-0.016 -0.432,-0.016 -0.272,0 -0.448,0.016 -0.176,0.016 -0.368,0.032 -0.192,0.032 -0.512,0.032 -0.144,0 -0.24,-0.048 -0.08,-0.032 -0.08,-0.128 0,-0.128 0.096,-0.176 0.112,-0.048 0.272,-0.08 0.256,-0.064 0.464,-0.176 0.224,-0.112 0.224,-0.432 v -3.36 q 0,-0.384 -0.176,-0.72 -0.176,-0.352 -0.464,-0.576 -0.288,-0.224 -0.64,-0.224 -0.4,0 -0.752,0.096 -0.336,0.096 -0.64,0.336 -0.448,0.352 -0.448,1.152 v 3.296 q 0,0.32 0.24,0.432 0.24,0.112 0.48,0.176 0.16,0.032 0.256,0.096 0.112,0.048 0.112,0.16 0,0.096 -0.08,0.128 -0.08,0.048 -0.24,0.048 -0.32,0 -0.512,-0.032 -0.176,-0.016 -0.352,-0.032 -0.16,-0.016 -0.448,-0.016 -0.272,0 -0.448,0.016 -0.176,0.016 -0.368,0.032 -0.192,0.032 -0.512,0.032 -0.128,0 -0.224,-0.048 -0.096,-0.032 -0.096,-0.128 0,-0.128 0.112,-0.16 0.128,-0.048 0.256,-0.096 0.24,-0.08 0.464,-0.176 0.24,-0.112 0.24,-0.432 v -3.36 q 0,-0.384 -0.176,-0.72 -0.176,-0.352 -0.464,-0.576 -0.288,-0.224 -0.64,-0.224 -0.4,0 -0.752,0.096 -0.336,0.096 -0.64,0.336 -0.432,0.32 -0.432,1.152 v 3.296 q 0,0.32 0.224,0.432 0.224,0.096 0.464,0.176 0.128,0.048 0.24,0.096 0.128,0.032 0.128,0.16 0,0.096 -0.096,0.128 -0.08,0.048 -0.224,0.048 -0.32,0 -0.512,-0.032 -0.176,-0.016 -0.336,-0.032 -0.16,-0.016 -0.448,-0.016 -0.272,0 -0.448,0.016 -0.16,0.016 -0.352,0.032 -0.176,0.032 -0.496,0.032 z"
       style="font-style:normal;font-variant:normal;font-weight:normal;font-stretch:normal;font-size:16px;font-family:'EB Garamond';-inkscape-font-specification:'EB Garamond';fill:#4c5f26;fill-opacity:1"
       id="path88" />
    <path
       d="m 167.4073,73.223674 q -0.144,0 -0.24,-0.048 -0.08,-0.032 -0.08,-0.128 0,-0.128 0.112,-0.176 0.128,-0.048 0.256,-0.08 0.336,-0.08 0.512,-0.192 0.176,-0.128 0.176,-0.416 v -3.472 q 0,-0.432 -0.16,-0.768 -0.144,-0.336 -0.56,-0.4 -0.08,-0.016 -0.128,-0.064 -0.032,-0.048 -0.032,-0.144 0,-0.176 0.144,-0.192 0.64,-0.144 1.056,-0.384 0.416,-0.256 0.624,-0.416 0.144,-0.112 0.224,-0.112 0.096,0 0.096,0.08 0,0.128 -0.048,0.512 -0.032,0.368 -0.064,0.832 -0.032,0.448 -0.032,0.816 v 3.712 q 0,0.272 0.176,0.4 0.192,0.128 0.512,0.208 0.128,0.032 0.24,0.08 0.128,0.048 0.128,0.176 0,0.176 -0.32,0.176 -0.304,0 -0.496,-0.032 -0.176,-0.016 -0.352,-0.032 -0.16,-0.016 -0.448,-0.016 -0.272,0 -0.448,0.016 -0.176,0.016 -0.352,0.032 -0.176,0.032 -0.496,0.032 z m 1.28,-8.304 q -0.336,0 -0.576,-0.224 -0.224,-0.24 -0.224,-0.576 0,-0.352 0.224,-0.576 0.24,-0.24 0.576,-0.24 0.352,0 0.576,0.24 0.24,0.224 0.24,0.576 0,0.336 -0.24,0.576 -0.224,0.224 -0.576,0.224 z"
       style="font-style:normal;font-variant:normal;font-weight:normal;font-stretch:normal;font-size:16px;font-family:'EB Garamond';-inkscape-font-specification:'EB Garamond';fill:#4c5f26;fill-opacity:1"
       id="path90" />
    <path
       d="m 174.01755,73.415674 q -0.88,0 -1.536,-0.432 -0.656,-0.432 -1.024,-1.216 -0.368,-0.8 -0.368,-1.84 0,-0.928 0.416,-1.68 0.432,-0.768 1.136,-1.232 0.704,-0.464 1.536,-0.464 0.64,0 1.136,0.256 0.496,0.256 0.768,0.72 0.288,0.448 0.288,1.04 0,0.496 -0.48,0.496 h -3.376 q -0.224,0 -0.32,0.128 -0.08,0.112 -0.08,0.464 0,0.768 0.336,1.408 0.336,0.624 0.896,1.008 0.56,0.368 1.232,0.368 0.48,0 0.864,-0.176 0.4,-0.192 0.704,-0.544 0.064,-0.08 0.096,-0.096 0.032,-0.032 0.08,-0.032 0.128,0 0.128,0.16 0,0.304 -0.288,0.672 -0.24,0.304 -0.576,0.528 -0.336,0.224 -0.736,0.336 -0.4,0.128 -0.832,0.128 z m -1.472,-4.848 h 1.456 q 0.384,0 0.656,-0.016 0.272,-0.016 0.528,-0.064 0.08,-0.016 0.096,-0.096 0.032,-0.096 0.032,-0.256 0,-0.464 -0.416,-0.784 -0.4,-0.336 -0.96,-0.336 -0.368,0 -0.736,0.224 -0.368,0.208 -0.608,0.528 -0.24,0.32 -0.24,0.64 0,0.16 0.192,0.16 z"
       style="font-style:normal;font-variant:normal;font-weight:normal;font-stretch:normal;font-size:16px;font-family:'EB Garamond';-inkscape-font-specification:'EB Garamond';fill:#4c5f26;fill-opacity:1"
       id="path92" />
    <path
       d="m 177.56355,73.223674 q -0.144,0 -0.24,-0.048 -0.08,-0.032 -0.08,-0.128 0,-0.128 0.096,-0.16 0.096,-0.048 0.272,-0.096 0.24,-0.064 0.464,-0.176 0.224,-0.112 0.224,-0.432 v -3.44 q 0,-0.432 -0.096,-0.736 -0.08,-0.304 -0.496,-0.416 -0.064,-0.032 -0.112,-0.064 -0.048,-0.048 -0.048,-0.144 0,-0.176 0.144,-0.192 0.56,-0.144 0.912,-0.352 0.352,-0.208 0.688,-0.464 0.048,-0.032 0.08,-0.048 0.048,-0.032 0.096,-0.032 0.032,0 0.048,0.032 0.032,0.032 0.032,0.08 0,0.112 -0.048,0.464 -0.032,0.336 -0.032,0.56 0,0.064 0,0.128 0.016,0.048 0.032,0.064 0.56,-0.528 1.184,-0.8 0.64,-0.272 1.392,-0.272 0.784,0 1.296,0.64 0.512,0.64 0.512,1.584 v 3.408 q 0,0.32 0.224,0.432 0.224,0.096 0.464,0.176 0.128,0.048 0.24,0.112 0.128,0.048 0.128,0.176 0,0.096 -0.112,0.112 -0.112,0.032 -0.208,0.032 -0.32,0 -0.496,-0.032 -0.176,-0.016 -0.336,-0.032 -0.16,-0.016 -0.448,-0.016 -0.272,0 -0.448,0.016 -0.176,0.016 -0.368,0.032 -0.176,0.032 -0.496,0.032 -0.08,0 -0.208,-0.032 -0.112,-0.016 -0.112,-0.112 0,-0.128 0.112,-0.176 0.128,-0.064 0.256,-0.112 0.24,-0.08 0.464,-0.176 0.224,-0.112 0.224,-0.432 v -3.36 q 0,-0.704 -0.4,-1.088 -0.384,-0.4 -1.04,-0.416 -0.576,0 -1.008,0.192 -0.432,0.176 -0.768,0.448 -0.064,0.064 -0.096,0.176 -0.032,0.096 -0.032,0.192 v 3.856 q 0,0.32 0.224,0.432 0.224,0.112 0.464,0.176 0.368,0.096 0.368,0.256 0,0.096 -0.08,0.128 -0.08,0.048 -0.24,0.048 -0.32,0 -0.512,-0.032 -0.176,-0.016 -0.336,-0.032 -0.16,-0.016 -0.448,-0.016 -0.272,0 -0.448,0.016 -0.16,0.016 -0.352,0.032 -0.176,0.032 -0.496,0.032 z"
       style="font-style:normal;font-variant:normal;font-weight:normal;font-stretch:normal;font-size:16px;font-family:'EB Garamond';-inkscape-font-specification:'EB Garamond';fill:#4c5f26;fill-opacity:1"
       id="path94" />
    <path
       d="m 188.32105,73.399674 q -0.784,0 -1.232,-0.48 -0.432,-0.48 -0.432,-1.424 v -3.712 q 0,-0.128 -0.096,-0.176 -0.096,-0.064 -0.416,-0.064 h -0.096 q -0.08,0 -0.144,-0.096 -0.048,-0.112 -0.048,-0.224 0,-0.032 0.048,-0.096 0.048,-0.064 0.064,-0.08 0.32,-0.224 0.576,-0.448 0.272,-0.224 0.48,-0.432 0.224,-0.224 0.368,-0.4 0.08,-0.08 0.128,-0.128 0.064,-0.064 0.144,-0.064 0.08,0 0.144,0.032 0.08,0.032 0.064,0.144 l -0.08,0.72 q -0.016,0.176 0.08,0.24 0.096,0.064 0.304,0.064 h 1.824 q 0.064,0 0.112,0.112 0.048,0.096 0.048,0.24 0,0.144 -0.048,0.288 -0.048,0.128 -0.112,0.128 h -1.584 q -0.4,0 -0.528,0.064 -0.112,0.064 -0.112,0.384 v 3.152 q 0,0.64 0.272,1.008 0.272,0.368 0.784,0.368 0.464,0 0.72,-0.064 0.256,-0.08 0.464,-0.224 0.032,-0.032 0.064,-0.032 0.064,0 0.08,0.08 0.032,0.064 0.032,0.144 0,0.08 -0.272,0.32 -0.256,0.24 -0.688,0.448 -0.416,0.208 -0.912,0.208 z"
       style="font-style:normal;font-variant:normal;font-weight:normal;font-stretch:normal;font-size:16px;font-family:'EB Garamond';-inkscape-font-specification:'EB Garamond';fill:#4c5f26;fill-opacity:1"
       id="path96" />
    <path
       d="m 194.0723,73.399674 q -0.896,0 -1.616,-0.416 -0.72,-0.416 -1.152,-1.136 -0.416,-0.736 -0.416,-1.664 0,-0.672 0.256,-1.312 0.272,-0.64 0.752,-1.168 0.48,-0.528 1.12,-0.832 0.64,-0.32 1.376,-0.32 0.928,0 1.664,0.448 0.752,0.448 1.184,1.184 0.448,0.72 0.448,1.584 0,0.928 -0.416,1.76 -0.4,0.832 -1.2,1.36 -0.8,0.512 -2,0.512 z m 0.336,-0.48 q 0.544,0 0.976,-0.208 0.432,-0.208 0.672,-0.672 0.192,-0.368 0.256,-0.896 0.064,-0.528 0.064,-0.992 0,-0.768 -0.288,-1.472 -0.272,-0.72 -0.784,-1.168 -0.496,-0.464 -1.184,-0.464 -0.432,0 -0.784,0.144 -0.336,0.128 -0.624,0.496 -0.32,0.4 -0.416,0.976 -0.096,0.576 -0.096,1.152 0,0.784 0.288,1.504 0.288,0.704 0.784,1.152 0.496,0.448 1.136,0.448 z"
       style="font-style:normal;font-variant:normal;font-weight:normal;font-stretch:normal;font-size:16px;font-family:'EB Garamond';-inkscape-font-specification:'EB Garamond';fill:#4c5f26;fill-opacity:1"
       id="path98" />
  </g>
  <g
     transform="translate(-9.1268624,-7.00086)"
     id="g62">
    <path
       id="rect3436"
       style="fill:#bbccee;fill-opacity:0.360784;stroke:none;stroke-width:2;stroke-linecap:butt;stroke-linejoin:miter;stroke-miterlimit:4;stroke-dasharray:none;stroke-dashoffset:0;stroke-opacity:1"
       d="m 223.86526,153.91444 h 96.06383 v 42.78474 h -96.06383 z" />
    <g
       transform="translate(-222.54901,-354.62419)"
       id="g3440"
       style="fill:#2a54a9;fill-opacity:1">
      <path
         id="path3438"
         style="fill:#2a54a9;fill-opacity:1;fill-rule:evenodd;stroke:none;stroke-width:4;stroke-linecap:butt;stroke-linejoin:miter;stroke-miterlimit:4;stroke-dasharray:none;stroke-opacity:1"
         d="m 461.21875,520 v 4 H 532.25 v -4 z" />
      <path
         id="path3446"
         style="font-size:12px;fill:#2a54a9;fill-opacity:1;fill-rule:evenodd;stroke-width:0.625;stroke-linejoin:round"
         d="m 511.32821,512.31201 26.2221,9.64253 -26.2221,9.64253 c 4.18919,-5.69295 4.16506,-13.48189 0,-19.28506 z" />
    </g>
    <g
       aria-label="Trayectoria"
       id="text925"
       style="font-style:normal;font-weight:normal;font-size:16px;line-height:1.25;font-family:sans-serif;fill:#2a54a9;fill-opacity:1;stroke:none">
      <path
         d="m 243.63681,188.49515 q -0.208,0 -0.336,-0.048 -0.128,-0.032 -0.128,-0.128 0,-0.112 0.128,-0.176 0.128,-0.064 0.4,-0.112 0.608,-0.112 0.928,-0.384 0.32,-0.288 0.32,-0.864 v -6.208 q 0,-0.736 -0.032,-1.12 -0.032,-0.4 -0.112,-0.56 -0.064,-0.16 -0.192,-0.176 -0.224,-0.048 -0.48,-0.048 -0.24,-0.016 -0.656,-0.016 h -0.752 q -0.384,0 -0.768,0.16 -0.368,0.144 -0.544,0.464 -0.048,0.08 -0.16,0.24 -0.112,0.144 -0.24,0.256 -0.128,0.112 -0.256,0.112 -0.064,0 -0.096,-0.064 -0.016,-0.064 -0.016,-0.144 0,-0.16 0.08,-0.32 0.224,-0.464 0.32,-0.816 0.112,-0.368 0.176,-0.864 0.032,-0.272 0.112,-0.32 0.096,-0.048 0.16,-0.048 0.064,0 0.192,0.192 0.144,0.192 0.208,0.32 0.096,0.16 0.432,0.24 0.352,0.08 0.688,0.08 h 5.632 q 0.56,0 0.912,-0.064 0.352,-0.064 0.608,-0.176 0.192,-0.096 0.304,-0.208 0.128,-0.112 0.32,-0.112 0.048,0 0.08,0.128 0.032,0.112 0.032,0.24 0,0.08 -0.032,0.224 -0.016,0.144 -0.032,0.224 -0.048,0.288 -0.096,0.416 -0.032,0.128 -0.048,0.224 -0.016,0.096 -0.016,0.304 v 0.192 q 0,0.144 -0.064,0.336 -0.064,0.176 -0.192,0.176 -0.112,0 -0.176,-0.176 -0.064,-0.176 -0.128,-0.48 -0.064,-0.336 -0.384,-0.528 -0.32,-0.208 -1.088,-0.208 h -1.616 q -0.352,0 -0.528,0.096 -0.176,0.096 -0.224,0.48 -0.048,0.384 -0.048,1.264 v 6.288 q 0,0.576 0.336,0.864 0.336,0.272 0.928,0.384 0.272,0.048 0.4,0.112 0.128,0.064 0.128,0.176 0,0.096 -0.128,0.128 -0.128,0.048 -0.336,0.048 -0.432,0 -0.72,-0.032 -0.272,-0.016 -0.528,-0.032 -0.256,-0.016 -0.624,-0.016 -0.4,0 -0.704,0.016 -0.288,0.016 -0.608,0.032 -0.304,0.032 -0.736,0.032 z"
         style="font-style:normal;font-variant:normal;font-weight:normal;font-stretch:normal;font-size:16px;font-family:'EB Garamond';-inkscape-font-specification:'EB Garamond';fill:#2a54a9;fill-opacity:1"
         id="path102" />
      <path
         d="m 250.12181,188.46315 q -0.16,0 -0.24,-0.048 -0.08,-0.032 -0.08,-0.128 0,-0.128 0.096,-0.16 0.096,-0.048 0.272,-0.096 0.304,-0.08 0.448,-0.224 0.16,-0.16 0.16,-0.384 v -3.44 q 0,-0.432 -0.128,-0.752 -0.128,-0.32 -0.528,-0.4 -0.064,-0.016 -0.112,-0.08 -0.048,-0.064 -0.048,-0.128 0,-0.16 0.144,-0.192 0.416,-0.128 0.864,-0.368 0.464,-0.256 0.72,-0.416 0.096,-0.064 0.144,-0.08 0.064,-0.032 0.096,-0.032 0.08,0 0.08,0.112 0,0.048 -0.016,0.24 0,0.192 -0.016,0.448 0,0.256 -0.016,0.512 0,0.032 0.032,0.032 0.256,-0.32 0.56,-0.56 0.32,-0.24 0.64,-0.384 0.336,-0.144 0.64,-0.144 0.336,0 0.544,0.144 0.224,0.144 0.224,0.368 0,0.16 -0.096,0.352 -0.08,0.192 -0.224,0.336 -0.144,0.144 -0.304,0.144 -0.096,0 -0.208,-0.032 -0.112,-0.048 -0.24,-0.112 -0.128,-0.048 -0.256,-0.096 -0.128,-0.048 -0.256,-0.048 -0.384,0 -0.752,0.272 -0.352,0.272 -0.352,1.072 v 3.232 q 0,0.208 0.224,0.352 0.224,0.128 0.624,0.256 0.176,0.048 0.272,0.096 0.096,0.048 0.096,0.16 0,0.176 -0.32,0.176 -0.48,0 -0.736,-0.048 -0.24,-0.032 -0.656,-0.032 -0.272,0 -0.448,0.016 -0.16,0.016 -0.352,0.032 -0.176,0.032 -0.496,0.032 z"
         style="font-style:normal;font-variant:normal;font-weight:normal;font-stretch:normal;font-size:16px;font-family:'EB Garamond';-inkscape-font-specification:'EB Garamond';fill:#2a54a9;fill-opacity:1"
         id="path104" />
      <path
         d="m 256.55356,188.63915 q -0.288,0 -0.592,-0.224 -0.288,-0.224 -0.496,-0.544 -0.192,-0.32 -0.192,-0.608 0,-0.512 0.272,-0.8 0.272,-0.288 0.864,-0.528 l 1.632,-0.672 q 0.32,-0.128 0.368,-0.224 0.064,-0.096 0.08,-0.416 l 0.032,-1.024 q 0.016,-0.416 -0.24,-0.72 -0.24,-0.304 -0.704,-0.304 -0.24,0 -0.48,0.08 -0.24,0.08 -0.4,0.208 -0.096,0.064 -0.128,0.192 -0.032,0.128 -0.032,0.272 0,0.064 0,0.144 0.016,0.08 0.016,0.144 0,0.08 -0.208,0.224 -0.192,0.128 -0.448,0.24 -0.24,0.096 -0.4,0.096 -0.08,0 -0.128,-0.032 -0.048,-0.048 -0.048,-0.112 0,-0.256 0.16,-0.544 0.176,-0.304 0.48,-0.56 0.368,-0.336 0.8,-0.592 0.432,-0.256 0.848,-0.4 0.416,-0.144 0.736,-0.144 0.576,0 0.944,0.416 0.384,0.4 0.368,1.008 l -0.08,3.84 q -0.016,0.336 0.144,0.544 0.176,0.208 0.432,0.208 0.4,0 0.592,-0.176 0.08,-0.08 0.128,-0.08 0.08,0 0.128,0.048 0.048,0.048 0.048,0.128 0,0.176 -0.176,0.352 -0.256,0.256 -0.56,0.4 -0.288,0.16 -0.544,0.16 -0.736,0 -1.168,-0.832 h -0.048 q -0.528,0.432 -1.008,0.624 -0.48,0.208 -0.992,0.208 z m 0.752,-0.768 q 0.32,0 0.544,-0.096 0.224,-0.112 0.4,-0.288 0.08,-0.08 0.128,-0.208 0.064,-0.144 0.08,-0.448 l 0.032,-0.784 q 0.016,-0.176 -0.016,-0.256 -0.032,-0.08 -0.128,-0.08 -0.032,0 -0.112,0.016 -0.08,0.016 -0.208,0.064 -0.848,0.304 -1.184,0.64 -0.32,0.32 -0.32,0.592 0,0.416 0.24,0.64 0.256,0.208 0.544,0.208 z"
         style="font-style:normal;font-variant:normal;font-weight:normal;font-stretch:normal;font-size:16px;font-family:'EB Garamond';-inkscape-font-specification:'EB Garamond';fill:#2a54a9;fill-opacity:1"
         id="path106" />
      <path
         d="m 261.92431,192.97515 q -0.304,0 -0.56,-0.16 -0.256,-0.144 -0.256,-0.496 0,-0.288 0.128,-0.512 0.144,-0.208 0.4,-0.208 0.176,0 0.336,0.048 0.176,0.048 0.304,0.048 0.096,0 0.16,-0.048 0.08,-0.032 0.144,-0.128 0.176,-0.288 0.4,-0.72 0.24,-0.432 0.48,-0.976 0.256,-0.544 0.48,-1.152 0.048,-0.144 0.048,-0.368 0,-0.128 -0.016,-0.24 -0.016,-0.128 -0.048,-0.224 l -1.856,-4.688 q -0.112,-0.288 -0.304,-0.496 -0.176,-0.224 -0.416,-0.288 -0.128,-0.048 -0.256,-0.112 -0.112,-0.064 -0.112,-0.176 0,-0.096 0.112,-0.112 0.128,-0.032 0.208,-0.032 0.32,0 0.464,0.016 0.16,0.016 0.288,0.048 0.144,0.016 0.416,0.016 0.288,0 0.432,-0.016 0.144,-0.032 0.304,-0.048 0.16,-0.016 0.48,-0.016 0.096,0 0.208,0.048 0.112,0.032 0.112,0.128 0,0.112 -0.176,0.224 -0.16,0.096 -0.288,0.128 -0.16,0.048 -0.24,0.176 -0.08,0.112 -0.08,0.336 0,0.096 0.048,0.24 0.048,0.128 0.08,0.208 l 1.296,3.2 q 0.032,0.096 0.096,0.096 0.048,0 0.08,-0.096 l 1.104,-2.928 q 0.048,-0.112 0.08,-0.288 0.048,-0.192 0.048,-0.304 0,-0.304 -0.096,-0.416 -0.08,-0.128 -0.224,-0.192 -0.128,-0.064 -0.304,-0.16 -0.16,-0.112 -0.16,-0.224 0,-0.096 0.112,-0.128 0.128,-0.048 0.208,-0.048 0.224,0 0.448,0.048 0.24,0.032 0.688,0.032 0.304,0 0.432,-0.016 0.144,-0.032 0.24,-0.048 0.096,-0.016 0.272,-0.016 0.08,0 0.192,0.032 0.128,0.016 0.128,0.112 0,0.112 -0.128,0.176 -0.112,0.064 -0.24,0.112 -0.24,0.064 -0.512,0.384 -0.272,0.304 -0.432,0.688 l -2.176,5.184 q -0.016,0.048 -0.176,0.416 -0.144,0.368 -0.368,0.912 -0.224,0.544 -0.496,1.168 -0.256,0.624 -0.496,1.2 -0.144,0.32 -0.416,0.48 -0.272,0.176 -0.624,0.176 z"
         style="font-style:normal;font-variant:normal;font-weight:normal;font-stretch:normal;font-size:16px;font-family:'EB Garamond';-inkscape-font-specification:'EB Garamond';fill:#2a54a9;fill-opacity:1"
         id="path108" />
      <path
         d="m 270.90206,188.65515 q -0.88,0 -1.536,-0.432 -0.656,-0.432 -1.024,-1.216 -0.368,-0.8 -0.368,-1.84 0,-0.928 0.416,-1.68 0.432,-0.768 1.136,-1.232 0.704,-0.464 1.536,-0.464 0.64,0 1.136,0.256 0.496,0.256 0.768,0.72 0.288,0.448 0.288,1.04 0,0.496 -0.48,0.496 h -3.376 q -0.224,0 -0.32,0.128 -0.08,0.112 -0.08,0.464 0,0.768 0.336,1.408 0.336,0.624 0.896,1.008 0.56,0.368 1.232,0.368 0.48,0 0.864,-0.176 0.4,-0.192 0.704,-0.544 0.064,-0.08 0.096,-0.096 0.032,-0.032 0.08,-0.032 0.128,0 0.128,0.16 0,0.304 -0.288,0.672 -0.24,0.304 -0.576,0.528 -0.336,0.224 -0.736,0.336 -0.4,0.128 -0.832,0.128 z m -1.472,-4.848 h 1.456 q 0.384,0 0.656,-0.016 0.272,-0.016 0.528,-0.064 0.08,-0.016 0.096,-0.096 0.032,-0.096 0.032,-0.256 0,-0.464 -0.416,-0.784 -0.4,-0.336 -0.96,-0.336 -0.368,0 -0.736,0.224 -0.368,0.208 -0.608,0.528 -0.24,0.32 -0.24,0.64 0,0.16 0.192,0.16 z"
         style="font-style:normal;font-variant:normal;font-weight:normal;font-stretch:normal;font-size:16px;font-family:'EB Garamond';-inkscape-font-specification:'EB Garamond';fill:#2a54a9;fill-opacity:1"
         id="path110" />
      <path
         d="m 276.99581,188.65515 q -0.8,0 -1.456,-0.4 -0.64,-0.416 -1.024,-1.12 -0.368,-0.72 -0.368,-1.6 0,-1.04 0.448,-1.888 0.464,-0.848 1.232,-1.344 0.768,-0.512 1.696,-0.512 1.04,0 1.824,0.56 0.192,0.144 0.192,0.304 0,0.128 -0.112,0.288 -0.112,0.16 -0.272,0.272 -0.16,0.096 -0.304,0.096 -0.08,0 -0.16,-0.048 -0.08,-0.064 -0.176,-0.128 -0.352,-0.272 -0.784,-0.512 -0.432,-0.24 -0.72,-0.24 -0.784,0 -1.28,0.736 -0.48,0.72 -0.48,1.904 0,0.752 0.32,1.36 0.336,0.608 0.88,0.96 0.56,0.352 1.232,0.352 0.464,0 0.8,-0.144 0.336,-0.16 0.72,-0.544 0.032,-0.032 0.08,-0.048 0.048,-0.032 0.08,-0.032 0.176,0 0.176,0.224 0,0.096 -0.064,0.224 -0.048,0.112 -0.176,0.272 -0.256,0.32 -0.608,0.56 -0.352,0.224 -0.784,0.336 -0.416,0.112 -0.912,0.112 z"
         style="font-style:normal;font-variant:normal;font-weight:normal;font-stretch:normal;font-size:16px;font-family:'EB Garamond';-inkscape-font-specification:'EB Garamond';fill:#2a54a9;fill-opacity:1"
         id="path112" />
      <path
         d="m 283.11181,188.63915 q -0.784,0 -1.232,-0.48 -0.432,-0.48 -0.432,-1.424 v -3.712 q 0,-0.128 -0.096,-0.176 -0.096,-0.064 -0.416,-0.064 h -0.096 q -0.08,0 -0.144,-0.096 -0.048,-0.112 -0.048,-0.224 0,-0.032 0.048,-0.096 0.048,-0.064 0.064,-0.08 0.32,-0.224 0.576,-0.448 0.272,-0.224 0.48,-0.432 0.224,-0.224 0.368,-0.4 0.08,-0.08 0.128,-0.128 0.064,-0.064 0.144,-0.064 0.08,0 0.144,0.032 0.08,0.032 0.064,0.144 l -0.08,0.72 q -0.016,0.176 0.08,0.24 0.096,0.064 0.304,0.064 h 1.824 q 0.064,0 0.112,0.112 0.048,0.096 0.048,0.24 0,0.144 -0.048,0.288 -0.048,0.128 -0.112,0.128 h -1.584 q -0.4,0 -0.528,0.064 -0.112,0.064 -0.112,0.384 v 3.152 q 0,0.64 0.272,1.008 0.272,0.368 0.784,0.368 0.464,0 0.72,-0.064 0.256,-0.08 0.464,-0.224 0.032,-0.032 0.064,-0.032 0.064,0 0.08,0.08 0.032,0.064 0.032,0.144 0,0.08 -0.272,0.32 -0.256,0.24 -0.688,0.448 -0.416,0.208 -0.912,0.208 z"
         style="font-style:normal;font-variant:normal;font-weight:normal;font-stretch:normal;font-size:16px;font-family:'EB Garamond';-inkscape-font-specification:'EB Garamond';fill:#2a54a9;fill-opacity:1"
         id="path114" />
      <path
         d="m 288.86306,188.63915 q -0.896,0 -1.616,-0.416 -0.72,-0.416 -1.152,-1.136 -0.416,-0.736 -0.416,-1.664 0,-0.672 0.256,-1.312 0.272,-0.64 0.752,-1.168 0.48,-0.528 1.12,-0.832 0.64,-0.32 1.376,-0.32 0.928,0 1.664,0.448 0.752,0.448 1.184,1.184 0.448,0.72 0.448,1.584 0,0.928 -0.416,1.76 -0.4,0.832 -1.2,1.36 -0.8,0.512 -2,0.512 z m 0.336,-0.48 q 0.544,0 0.976,-0.208 0.432,-0.208 0.672,-0.672 0.192,-0.368 0.256,-0.896 0.064,-0.528 0.064,-0.992 0,-0.768 -0.288,-1.472 -0.272,-0.72 -0.784,-1.168 -0.496,-0.464 -1.184,-0.464 -0.432,0 -0.784,0.144 -0.336,0.128 -0.624,0.496 -0.32,0.4 -0.416,0.976 -0.096,0.576 -0.096,1.152 0,0.784 0.288,1.504 0.288,0.704 0.784,1.152 0.496,0.448 1.136,0.448 z"
         style="font-style:normal;font-variant:normal;font-weight:normal;font-stretch:normal;font-size:16px;font-family:'EB Garamond';-inkscape-font-specification:'EB Garamond';fill:#2a54a9;fill-opacity:1"
         id="path116" />
      <path
         d="m 293.80931,188.46315 q -0.16,0 -0.24,-0.048 -0.08,-0.032 -0.08,-0.128 0,-0.128 0.096,-0.16 0.096,-0.048 0.272,-0.096 0.304,-0.08 0.448,-0.224 0.16,-0.16 0.16,-0.384 v -3.44 q 0,-0.432 -0.128,-0.752 -0.128,-0.32 -0.528,-0.4 -0.064,-0.016 -0.112,-0.08 -0.048,-0.064 -0.048,-0.128 0,-0.16 0.144,-0.192 0.416,-0.128 0.864,-0.368 0.464,-0.256 0.72,-0.416 0.096,-0.064 0.144,-0.08 0.064,-0.032 0.096,-0.032 0.08,0 0.08,0.112 0,0.048 -0.016,0.24 0,0.192 -0.016,0.448 0,0.256 -0.016,0.512 0,0.032 0.032,0.032 0.256,-0.32 0.56,-0.56 0.32,-0.24 0.64,-0.384 0.336,-0.144 0.64,-0.144 0.336,0 0.544,0.144 0.224,0.144 0.224,0.368 0,0.16 -0.096,0.352 -0.08,0.192 -0.224,0.336 -0.144,0.144 -0.304,0.144 -0.096,0 -0.208,-0.032 -0.112,-0.048 -0.24,-0.112 -0.128,-0.048 -0.256,-0.096 -0.128,-0.048 -0.256,-0.048 -0.384,0 -0.752,0.272 -0.352,0.272 -0.352,1.072 v 3.232 q 0,0.208 0.224,0.352 0.224,0.128 0.624,0.256 0.176,0.048 0.272,0.096 0.096,0.048 0.096,0.16 0,0.176 -0.32,0.176 -0.48,0 -0.736,-0.048 -0.24,-0.032 -0.656,-0.032 -0.272,0 -0.448,0.016 -0.16,0.016 -0.352,0.032 -0.176,0.032 -0.496,0.032 z"
         style="font-style:normal;font-variant:normal;font-weight:normal;font-stretch:normal;font-size:16px;font-family:'EB Garamond';-inkscape-font-specification:'EB Garamond';fill:#2a54a9;fill-opacity:1"
         id="path118" />
      <path
         d="m 299.07306,188.46315 q -0.144,0 -0.24,-0.048 -0.08,-0.032 -0.08,-0.128 0,-0.128 0.112,-0.176 0.128,-0.048 0.256,-0.08 0.336,-0.08 0.512,-0.192 0.176,-0.128 0.176,-0.416 v -3.472 q 0,-0.432 -0.16,-0.768 -0.144,-0.336 -0.56,-0.4 -0.08,-0.016 -0.128,-0.064 -0.032,-0.048 -0.032,-0.144 0,-0.176 0.144,-0.192 0.64,-0.144 1.056,-0.384 0.416,-0.256 0.624,-0.416 0.144,-0.112 0.224,-0.112 0.096,0 0.096,0.08 0,0.128 -0.048,0.512 -0.032,0.368 -0.064,0.832 -0.032,0.448 -0.032,0.816 v 3.712 q 0,0.272 0.176,0.4 0.192,0.128 0.512,0.208 0.128,0.032 0.24,0.08 0.128,0.048 0.128,0.176 0,0.176 -0.32,0.176 -0.304,0 -0.496,-0.032 -0.176,-0.016 -0.352,-0.032 -0.16,-0.016 -0.448,-0.016 -0.272,0 -0.448,0.016 -0.176,0.016 -0.352,0.032 -0.176,0.032 -0.496,0.032 z m 1.28,-8.304 q -0.336,0 -0.576,-0.224 -0.224,-0.24 -0.224,-0.576 0,-0.352 0.224,-0.576 0.24,-0.24 0.576,-0.24 0.352,0 0.576,0.24 0.24,0.224 0.24,0.576 0,0.336 -0.24,0.576 -0.224,0.224 -0.576,0.224 z"
         style="font-style:normal;font-variant:normal;font-weight:normal;font-stretch:normal;font-size:16px;font-family:'EB Garamond';-inkscape-font-specification:'EB Garamond';fill:#2a54a9;fill-opacity:1"
         id="path120" />
      <path
         d="m 304.14731,188.63915 q -0.288,0 -0.592,-0.224 -0.288,-0.224 -0.496,-0.544 -0.192,-0.32 -0.192,-0.608 0,-0.512 0.272,-0.8 0.272,-0.288 0.864,-0.528 l 1.632,-0.672 q 0.32,-0.128 0.368,-0.224 0.064,-0.096 0.08,-0.416 l 0.032,-1.024 q 0.016,-0.416 -0.24,-0.72 -0.24,-0.304 -0.704,-0.304 -0.24,0 -0.48,0.08 -0.24,0.08 -0.4,0.208 -0.096,0.064 -0.128,0.192 -0.032,0.128 -0.032,0.272 0,0.064 0,0.144 0.016,0.08 0.016,0.144 0,0.08 -0.208,0.224 -0.192,0.128 -0.448,0.24 -0.24,0.096 -0.4,0.096 -0.08,0 -0.128,-0.032 -0.048,-0.048 -0.048,-0.112 0,-0.256 0.16,-0.544 0.176,-0.304 0.48,-0.56 0.368,-0.336 0.8,-0.592 0.432,-0.256 0.848,-0.4 0.416,-0.144 0.736,-0.144 0.576,0 0.944,0.416 0.384,0.4 0.368,1.008 l -0.08,3.84 q -0.016,0.336 0.144,0.544 0.176,0.208 0.432,0.208 0.4,0 0.592,-0.176 0.08,-0.08 0.128,-0.08 0.08,0 0.128,0.048 0.048,0.048 0.048,0.128 0,0.176 -0.176,0.352 -0.256,0.256 -0.56,0.4 -0.288,0.16 -0.544,0.16 -0.736,0 -1.168,-0.832 h -0.048 q -0.528,0.432 -1.008,0.624 -0.48,0.208 -0.992,0.208 z m 0.752,-0.768 q 0.32,0 0.544,-0.096 0.224,-0.112 0.4,-0.288 0.08,-0.08 0.128,-0.208 0.064,-0.144 0.08,-0.448 l 0.032,-0.784 q 0.016,-0.176 -0.016,-0.256 -0.032,-0.08 -0.128,-0.08 -0.032,0 -0.112,0.016 -0.08,0.016 -0.208,0.064 -0.848,0.304 -1.184,0.64 -0.32,0.32 -0.32,0.592 0,0.416 0.24,0.64 0.256,0.208 0.544,0.208 z"
         style="font-style:normal;font-variant:normal;font-weight:normal;font-stretch:normal;font-size:16px;font-family:'EB Garamond';-inkscape-font-specification:'EB Garamond';fill:#2a54a9;fill-opacity:1"
         id="path122" />
    </g>
  </g>
</svg>
