<?xml version="1.0" encoding="UTF-8" standalone="no"?>
<svg
   xmlns:dc="http://purl.org/dc/elements/1.1/"
   xmlns:cc="http://creativecommons.org/ns#"
   xmlns:rdf="http://www.w3.org/1999/02/22-rdf-syntax-ns#"
   xmlns:svg="http://www.w3.org/2000/svg"
   xmlns="http://www.w3.org/2000/svg"
   xmlns:sodipodi="http://sodipodi.sourceforge.net/DTD/sodipodi-0.dtd"
   xmlns:inkscape="http://www.inkscape.org/namespaces/inkscape"
   version="1.0"
   width="310.80222"
   height="189.69832"
   id="svg2"
   sodipodi:docname="desplazamiento.svg"
   inkscape:version="1.0 (4035a4f, 2020-05-01)">
  <metadata
     id="metadata39">
    <rdf:RDF>
      <cc:Work
         rdf:about="">
        <dc:format>image/svg+xml</dc:format>
        <dc:type
           rdf:resource="http://purl.org/dc/dcmitype/StillImage" />
        <dc:title></dc:title>
      </cc:Work>
    </rdf:RDF>
  </metadata>
  <sodipodi:namedview
     fit-margin-bottom="0"
     fit-margin-right="0"
     fit-margin-left="0"
     fit-margin-top="0"
     inkscape:document-rotation="0"
     pagecolor="#ffffff"
     bordercolor="#666666"
     borderopacity="1"
     objecttolerance="10"
     gridtolerance="10"
     guidetolerance="10"
     inkscape:pageopacity="0"
     inkscape:pageshadow="2"
     inkscape:window-width="1440"
     inkscape:window-height="787"
     id="namedview37"
     showgrid="false"
     inkscape:zoom="3.0095143"
     inkscape:cx="186.30835"
     inkscape:cy="106.81753"
     inkscape:window-x="0"
     inkscape:window-y="23"
     inkscape:window-maximized="0"
     inkscape:current-layer="svg2" />
  <defs
     id="defs4">
    <marker
       refX="0"
       refY="0"
       orient="auto"
       style="overflow:visible"
       id="StopM">
      <path
         d="M 0,5.65 V -5.65"
         transform="scale(0.4)"
         style="fill:none;fill-opacity:0.75;fill-rule:evenodd;stroke:#000000;stroke-width:1pt"
         id="path3275" />
    </marker>
    <marker
       refX="0"
       refY="0"
       orient="auto"
       style="overflow:visible"
       id="Arrow2Send">
      <path
         d="M 8.7185878,4.0337352 -2.2072895,0.01601326 8.7185884,-4.0017078 c -1.7454984,2.3720609 -1.7354408,5.6174519 -6e-7,8.035443 z"
         transform="matrix(-0.3,0,0,-0.3,0.69,0)"
         style="font-size:12px;fill-rule:evenodd;stroke-width:0.625;stroke-linejoin:round"
         id="path3352" />
    </marker>
    <marker
       refX="0"
       refY="0"
       orient="auto"
       style="overflow:visible"
       id="Arrow2Mend">
      <path
         d="M 8.7185878,4.0337352 -2.2072895,0.01601326 8.7185884,-4.0017078 c -1.7454984,2.3720609 -1.7354408,5.6174519 -6e-7,8.035443 z"
         transform="scale(-0.6)"
         style="font-size:12px;fill-rule:evenodd;stroke-width:0.625;stroke-linejoin:round"
         id="path3358" />
    </marker>
  </defs>
  <g
     style="fill:#2a54a9;fill-opacity:1"
     id="g3415"
     transform="translate(-225.67587,-357.62505)">
    <path
       d="m 441.96875,363.90625 c -2.27801,0.204 -4.40482,1.45848 -6.53125,3.3125 -2.12643,1.85402 -4.27374,4.36193 -6.53125,7.28125 -4.51501,5.83865 -9.40752,13.39819 -14.75,20.9375 -5.34248,7.53931 -11.12044,15.02145 -17.28125,20.65625 -6.16081,5.6348 -12.6407,9.37428 -19.40625,9.6875 -7.04388,0.32312 -14.91285,-2.90803 -24.1875,-6.46875 -9.27465,-3.56072 -19.96619,-7.40012 -32.75,-7.8125 -6.64466,-0.21434 -15.43515,2.03604 -25.0625,5.40625 -9.62735,3.37021 -20.05405,7.89666 -29.6875,12.46875 -19.26691,9.14419 -35.375,18.40625 -35.375,18.40625 l 1.5,2.59375 c 0,0 16.01108,-9.19484 35.15625,-18.28125 9.57258,-4.5432 19.93687,-9.06009 29.40625,-12.375 9.46938,-3.31491 18.10089,-5.40804 23.96875,-5.21875 12.24123,0.39488 22.5264,4.05263 31.75,7.59375 9.2236,3.54112 17.37553,7.05588 25.40625,6.6875 7.76511,-0.35949 14.83447,-4.57239 21.28125,-10.46875 6.44678,-5.89636 12.32936,-13.55074 17.71875,-21.15625 5.38939,-7.60551 10.29898,-15.16868 14.6875,-20.84375 2.19426,-2.83754 4.24786,-5.17583 6.125,-6.8125 1.87714,-1.63667 3.56048,-2.51008 4.84375,-2.625 1.66529,-0.14913 4.07923,0.7372 6.875,2.75 2.79577,2.0128 5.92986,5.0898 9.1875,8.90625 6.51529,7.63291 13.48465,18.2398 19.53125,29.53125 6.0466,11.29145 11.18759,23.27246 14.0625,33.5625 2.87491,10.29004 3.29783,18.87044 0.84375,23.09375 -5.37215,9.24512 -18.90912,14.44883 -33.0625,18.3125 -14.15338,3.86367 -28.63364,6.29998 -36.1875,11.625 -9.37298,6.60739 -10.57675,17.70615 -9.28125,27.28125 1.2955,9.5751 5.07596,18.12064 5.78125,19.96875 l 2.78125,-1.0625 c -0.85501,-2.24043 -4.3698,-10.26627 -5.59375,-19.3125 -1.22395,-9.04623 -0.15381,-18.63627 8.03125,-24.40625 6.35762,-4.48175 20.92724,-7.27759 35.25,-11.1875 14.32276,-3.90991 28.67645,-9.02022 34.875,-19.6875 3.33128,-5.73289 2.39839,-14.83971 -0.5625,-25.4375 -2.96089,-10.59779 -8.1517,-22.7099 -14.28125,-34.15625 -6.12955,-11.44635 -13.18586,-22.22055 -19.90625,-30.09375 -3.3602,-3.9366 -6.62195,-7.14548 -9.71875,-9.375 -3.0968,-2.22952 -6.06434,-3.53575 -8.90625,-3.28125 z"
       style="fill:#2a54a9;fill-opacity:1;fill-rule:evenodd;stroke:none;stroke-width:3;stroke-linecap:butt;stroke-linejoin:miter;stroke-miterlimit:4;stroke-opacity:1"
       id="path2221" />
    <path
       d="m 422.57732,524.11636 0.25544,20.95255 -13.76864,-15.79554 c 5.10932,1.41306 10.56064,-0.6867 13.5132,-5.15701 z"
       style="font-size:12px;fill:#2a54a9;fill-opacity:1;fill-rule:evenodd;stroke-width:0.625;stroke-linejoin:round"
       id="path3421" />
  </g>
  <path
     d="m 217.94913,0.0312 -0.375,0.0312 0.15625,1.96875 0.21875,-0.0312 v 0.0312 l 0.96875,0.0312 1,0.15625 0.0937,0.0312 h 0.0312 l 0.9375,0.28125 0.0625,0.0312 h 0.0312 l 1,0.375 0.0937,0.0312 0.8125,0.40625 0.84375,-1.8125 -0.875,-0.4375 h -0.0312 l -0.0312,-0.0312 -1.1875,-0.4375 -0.0312,-0.0312 h -0.0625 l -1.125,-0.3125 -0.0625,-0.0312 h -0.0625 l -1.09375,-0.1875 -0.0625,-0.0312 h -0.0625 L 218.07408,0.0312 218.01158,0 Z m -7.25,2.46875 h -0.0312 l -0.0312,0.0312 -0.9375,0.625 h -0.0312 v 0.0312 l -0.96875,0.65625 v 0.03135 l -0.0312,0.0312 -1.875,1.53125 -0.0312,0.0312 -0.0312,0.0312 -0.25,0.21875 1.375,1.46875 0.21875,-0.1875 1.8125,-1.53125 0.0625,-0.0312 0.84375,-0.625 0.0312,-0.0312 0.875,-0.5625 0.0312,-0.0312 0.78125,-0.4375 -1.03125,-1.71875 z m 17.09375,4.03125 0.3125,0.28125 0.0312,0.0312 1.28125,1.09375 V 7.9062 l 1.2813,1.21875 h 0.0312 l 1.3125,1.3125 0.0625,0.0625 1.4375,-1.40625 -0.0625,-0.0625 L 233.44913,9 232.10538,7.6875 V 7.6563 l -1.34375,-1.21875 -0.0312,-0.0312 -1.3125,-1.125 -0.0312,-0.0312 -0.375,-0.28125 z m -26.6875,4.9375 -0.0312,0.0312 -1.84375,2.3125 v 0.0312 l -0.78125,1 1.625,1.1875 0.71875,-0.96875 0.0312,-0.0312 1.8125,-2.25 v -0.0312 l 1.15625,-1.34375 -1.53125,-1.28125 z m 35,3.40625 2.75,3.34375 v 0.0312 l 0.96875,1.28125 1.59375,-1.21875 -0.96875,-1.3125 h -0.0312 v -0.0312 l -2.75,-3.375 z m -42.4375,6.6875 -2.125,3.15625 1.6875,1.125 2.09375,-3.15625 1.25,-1.8125 -1.65625,-1.125 z m 49.6875,2.78125 1.03125,1.4375 v 0.0312 l 2.3125,3.46875 1.65625,-1.125 -2.3125,-3.46875 v -0.0312 l -1.0625,-1.46875 z m -57.125,8.4375 -1.3125,1.9375 1.65625,1.125 1.3125,-1.9375 v -0.03125 l 2.03125,-3.0625 -1.6875,-1.09375 z m 63.65625,1.53125 2.65625,4.4375 h -0.0312 l 0.40625,0.6875 1.75,-0.96875 -0.40625,-0.71875 -2.65625,-4.46875 z m -69.375,6.875 -1.9375,2.65625 v 0.03125 l -0.5,0.625 1.59375,1.21875 0.5,-0.65625 v -0.0312 l 1.96875,-2.6875 1.0625,-1.53125 -1.625,-1.15625 z m 75.3125,3.46875 1.84375,3.40625 v 0.0312 l 0.96875,1.875 1.78125,-0.90625 -0.96875,-1.90625 -0.0312,-0.0312 -1.8125,-3.40625 z m -163.906252,6.375 h 1.1875 0.0312 l 2.375,0.125 h 0.0312 l 2.3125,0.1875 0.125,-2 -2.3125,-0.1875 h -0.0312 l -2.4375,-0.125 h -0.0312 -1.21875 z m 80.687502,0.21875 v 0.0312 l -2.03125,2.125 -0.0312,0.0312 -0.0937,0.125 1.375,1.4375 0.15625,-0.15625 h 0.0312 v -0.0312 l 2.0625,-2.21875 h 0.0312 v -0.0312 l 1.8125,-2.09375 -1.5,-1.3125 z M 84.761628,49.7187 h -0.0312 -0.0312 l -3.09375,0.59375 h -0.0312 -0.0312 l -1.6875,0.40625 0.4375,1.9375 1.6875,-0.375 h 0.0312 l 3.03125,-0.59375 h 0.0312 l 1.03125,-0.125 -0.28125,-2 z m 18.937502,2.375 0.96875,0.15625 h 0.0312 l 2.15625,0.40625 h 0.0312 l 2.65625,0.59375 0.4375,-1.9375 -2.6875,-0.625 h -0.0312 l -2.21875,-0.40625 h -0.0312 l -1,-0.15625 z m -32.343752,0.90625 h -0.03125 l -3.09375,1 0.59375,1.90625 3.09375,-1 h 0.0312 l 2.59375,-0.75 -0.5625,-1.9375 z m 43.937502,1.71875 3.90625,1.15625 h 0.0312 l 1.75,0.59375 0.625,-1.90625 -1.78125,-0.59375 h -0.0312 l -3.9375,-1.1875 z m 146,0.59375 1.125,2.3125 v 0.0312 l 1.40625,3.0625 1.8125,-0.8125 -1.40625,-3.09375 v -0.0312 l -1.125,-2.34375 z m -200.968752,1.46875 -3.4375,1.3125 0.71875,1.875 3.40625,-1.3125 h 0.0312 l 2.1563,-0.78125 -0.6875,-1.875 z m 66.343752,1.59375 0.125,0.0312 5.53125,1.9375 0.65625,-1.875 -5.53125,-1.9375 -0.125,-0.0625 z m 38.71875,-0.3125 h -0.0312 l -1.03125,0.75 -0.0312,0.0312 -1.0625,0.6875 h -0.0312 l -1.03125,0.625 -0.0312,0.0312 -0.9375,0.5 0.9375,1.75 0.96875,-0.5 0.0312,-0.0312 h 0.0312 l 1.09375,-0.65625 0.0312,-0.0312 1.125,-0.71875 v -0.0312 h 0.0312 l 1.09375,-0.78125 v -0.0312 h 0.0312 l 0.71875,-0.5625 -1.2187,-1.59385 z m -27.3125,4.1875 2.5625,0.75 h 0.0312 v 0.0312 l 3.21875,0.78125 v 0.0312 h 0.0312 l 0.21875,-1 0.21875,-0.96875 h -0.0311 l -3.15625,-0.8125 v 0.0312 l -2.53125,-0.78125 z m -92.312502,0.4375 0.78125,1.84375 5.53125,-2.34375 -0.78125,-1.84375 z m 109.812502,-0.0625 h -0.0625 l -1.09375,0.15625 h -0.0625 l -1.09375,0.09375 h -0.0312 -1.375 -0.0625 l -1.40625,-0.0625 h -0.0312 l -0.1875,-0.0312 -0.1875,2 0.21875,0.0312 h 0.0312 0.0312 l 1.5,0.0625 h 0.0312 1.5 0.0312 0.0312 l 1.21875,-0.0937 h 0.0312 0.0312 l 1.1875,-0.1875 h 0.0312 0.0312 l 0.34375,-0.0625 -0.4059,-1.9688 z M 37.917878,66.1562 h -0.0312 v 0.0312 l -3.09375,1.4375 0.84375,1.8125 3.09375,-1.4375 2.34375,-1.0625 -0.8125,-1.8125 z m 228.312502,0.0312 0.4375,1 v 0.0312 l 1.8125,4.5 1.875,-0.75 -1.84375,-4.53125 v -0.0312 l -0.4375,-1 z M 24.261628,72.65615 h -0.0312 l -0.3125,0.15625 0.90625,1.78125 0.28125,-0.15625 h 0.0312 l 5.0625,-2.4687 -0.875,-1.78125 z m -6,2.96875 h -0.0312 l -5.03125,2.59375 0.90625,1.78125 5.03125,-2.5625 0.0312,-0.0312 0.28125,-0.125 -0.90625,-1.8125 z m 252.281252,1.6875 1.25,3.625 v 0.0312 l 0.625,2 1.90625,-0.59365 -0.625,-2.03125 v -0.0312 l -1.25,-3.65625 z m -265.1562524,5.03125 -2.78125,1.53125 0.9375,1.75 2.78125,-1.5312 h 0.0312 l 2.46875,-1.3125 -0.9375,-1.75 z m 268.6875024,6.375 0.15625,0.59375 v 0.06255 l 0.875,3.8125 v 0.0312 l 0.21875,1.2813 1.96875,-0.375 -0.21875,-1.28125 v -0.0312 l -0.0312,-0.0312 -0.875,-3.90625 v -0.0312 l -0.1875,-0.65625 z m 2,11.59375 0.0625,1.28125 v 0.0625 1.375 0.0312 l -0.0625,1.28125 v 0.0625 l -0.15625,1.25 -0.0625,0.40625 1.96875,0.34375 0.0937,-0.46875 v -0.0312 -0.0312 l 0.15625,-1.28125 v -0.0312 -0.0312 l 0.0625,-1.40625 v -0.0312 -0.0312 -1.46875 -0.0312 l -0.0625,-1.34375 z m -2.59375,10.875 -0.0625,0.0937 -1.3125,1.625 -0.0625,0.0625 -1.46875,1.5625 -0.0312,0.0312 -0.84375,0.78125 1.34375,1.46875 0.875,-0.8125 0.0312,-0.0312 0.0312,-0.0312 1.5625,-1.65625 0.0312,-0.0312 0.0312,-0.0312 1.4375,-1.75 0.0312,-0.0312 v -0.0312 l 0.15625,-0.21875 -1.65625,-1.125 z m -10.3125,9 h -0.0312 l -2.09375,1.21875 -0.0312,0.0312 -1,0.5 0.9375,1.78125 1,-0.53125 0.0312,-0.0312 2.1875,-1.25 0.0312,-0.0312 2,-1.25 -1.09375,-1.6875 z m -9.03125,4.53125 h -0.0312 l -2.40625,1 h -0.0312 l -2.46875,0.9375 -0.0312,0.0312 0.65625,1.875 0.0625,-0.0312 2.53125,-0.9375 v -0.0312 l 2.46875,-1 h 0.0312 l 0.5625,-0.25 -0.8125,-1.84375 z m -12.5625,4.53125 -3.78125,1.15625 0.59375,1.90625 3.75,-1.125 h 0.0312 v -0.0312 l 1.96875,-0.625 -0.625,-1.90625 z m -10.28125,3.0938 -4.96875,1.46875 h -0.0312 l 0.3125,0.96875 0.28125,0.9375 4.96875,-1.4375 0.78125,-0.25 -0.56255,-1.90625 z m -14.1875,4.4375 h -0.0312 l -2.0625,0.78125 h -0.0312 l -0.1563,0.0625 0.75,1.84375 0.125,-0.0312 h 0.0312 l 2,-0.78125 h 0.0312 l 3.4375,-1.15625 -0.65625,-1.875 z m -9.40625,4.21875 -0.0312,0.0312 -1.4375,0.9375 h -0.0312 l -0.0312,0.0312 -1.625,1.21875 -0.0312,0.0312 -0.0312,0.0312 -0.375,0.3125 1.3125,1.5 0.3125,-0.28125 0.0625,-0.0312 1.5,-1.15625 0.0312,0.0312 1.375,-0.90625 0.0625,-0.0312 1.46875,-0.84375 -1,-1.75 z m -8.0625,7.5 -0.0312,0.0312 -0.0312,0.0312 -0.75,1.3125 -0.0312,0.0312 -0.0312,0.0312 -0.59375,1.3125 -0.0312,0.0312 -0.0312,0.0312 -0.46875,1.3125 -0.0312,0.0312 v 0.0625 l -0.34375,1.1875 1.9375,0.53125 0.3125,-1.125 0.0312,-0.0625 0.40625,-1.125 0.0312,-0.0937 0.5625,-1.125 0.0312,-0.0937 0.6875,-1.15625 0.0312,-0.0625 0.21875,-0.28125 -1.625,-1.15625 z m -2.65625,11.75 0.0625,0.5 v 0.0312 0.0312 l 0.21875,1.25 v 0.0312 l 0.3125,1.21875 v 0.0312 l 0.34375,1.1875 0.0312,0.0312 v 0.0312 l 0.40625,1.125 v 0.0312 0.0312 l 0.21875,0.5 1.84375,-0.75 -0.1875,-0.46875 -0.0312,-0.0312 -0.34375,-1.0625 -0.34375,-1.125 -0.0312,-0.0625 -0.25,-1.09375 v -0.0622 l -0.21875,-1.09375 v -0.0625 l -0.0626,-0.46875 z m 4.25,11.53125 0.15625,0.25 v 0.0312 l 1.875,3.125 v 0.0312 l 0.6875,1.125 h -0.0312 l 0.28125,0.59375 1.8125,-0.875 -0.28125,-0.59375 v -0.0312 l -0.0312,-0.0312 -0.6875,-1.21875 h -0.0312 l -1.84375,-3.125 -0.0312,-0.0312 -0.125,-0.21875 z"
     style="fill:#b50000;fill-opacity:1;fill-rule:evenodd;stroke:none;stroke-width:2;stroke-linecap:butt;stroke-linejoin:miter;stroke-miterlimit:4;stroke-dasharray:6, 6;stroke-dashoffset:0;stroke-opacity:1"
     id="path3394" />
  <path
     d="M 5.2661976,88.69778 0.87403755,80.79648"
     style="fill:#b50000;fill-opacity:0.74902;fill-rule:evenodd;stroke:#b50000;stroke-width:2;stroke-miterlimit:4;stroke-dasharray:none;stroke-opacity:1"
     id="path3429" />
  <path
     d="m 201.0645,178.46167 8.44588,-3.22318"
     style="fill:#b50000;fill-opacity:0.74902;fill-rule:evenodd;stroke:#b50000;stroke-width:2;stroke-miterlimit:4;stroke-dasharray:none;stroke-opacity:1"
     id="path3431" />
  <path
     id="path3404"
     style="fill:#4c5f26;fill-opacity:1;fill-rule:evenodd;stroke:none;stroke-width:2;stroke-linecap:butt;stroke-linejoin:miter;stroke-miterlimit:4;stroke-dasharray:6, 6;stroke-dashoffset:0;stroke-opacity:1"
     d="m 5.2928776,93.4062 5.3750004,2.6875 0.875,-1.78125 -5.3437504,-2.6875 z m 10.7500004,5.375 5.34375,2.6875 0.90625,-1.8125 -5.375,-2.65625 z m 10.71875,5.34375 5.375,2.6875 0.875,-1.78125 -5.34375,-2.6875 z m 10.75,5.375 5.34375,2.6875 0.90625,-1.8125 -5.375,-2.65625 z m 10.71875,5.34375 5.375,2.6875 0.90625,-1.78125 -5.375,-2.6875 z m 10.75,5.375 5.375,2.6875 0.875,-1.78125 -5.375,-2.6875 z m 10.71875,5.375 5.375,2.65625 0.90625,-1.78125 -5.375,-2.6875 z m 10.75,5.34375 5.375,2.6875 0.875,-1.78125 -5.375,-2.6875 z m 10.71875,5.375 5.375,2.65625 0.90625,-1.78125 -5.375,-2.6875 z m 10.750002,5.34375 5.375,2.6875 0.875,-1.78125 -5.34375,-2.6875 z m 10.75,5.375 5.34375,2.65625 0.90625,-1.78125 -5.375,-2.6875 z m 10.71875,5.34375 5.375,2.6875 0.875,-1.78125 -5.34375,-2.6875 z m 10.75,5.375 5.34375,2.6875 0.90625,-1.8125 -5.375,-2.6875 z m 10.71875,5.34375 5.375,2.6875 0.90625,-1.78125 -5.375,-2.6875 z m 10.75,5.375 5.375,2.6875 0.875,-1.8125 -5.375,-2.65625 z m 10.71875,5.34375 5.375,2.6875 0.90625,-1.78125 -5.375,-2.6875 z m 10.75,5.375 5.375,2.6875 0.875,-1.8125 -5.375,-2.65625 z m 10.71875,5.34375 5.375,2.6875 0.90625,-1.78125 -5.375,-2.6875 z" />
  <path
     id="path3412"
     style="font-size:12px;fill:#008000;fill-rule:evenodd;stroke-width:0.625;stroke-linejoin:round"
     d="m 188.78431,178.50508 9.57651,10.17029 -13.8839,-1.54331 c 3.14554,-1.61101 4.87443,-5.10071 4.30739,-8.62698 z" />
  <text
     x="72.486504"
     y="39.253613"
     style="font-style:normal;font-weight:normal;font-size:16px;font-family:'Bitstream Vera Sans';fill:#b50000;fill-opacity:1;stroke:none;stroke-width:1px;stroke-linecap:butt;stroke-linejoin:miter;stroke-opacity:1"
     id="text3460"
     xml:space="preserve"><tspan
       x="72.486504"
       y="39.253613"
       style="font-style:normal;font-variant:normal;font-weight:normal;font-stretch:normal;font-size:16px;font-family:'EB Garamond';-inkscape-font-specification:'EB Garamond';fill:#b50000;fill-opacity:1"
       id="tspan3462">Espacio recorrido</tspan></text>
  <text
     transform="rotate(26.572847)"
     xml:space="preserve"
     style="font-style:normal;font-weight:normal;font-size:16px;line-height:1.25;font-family:sans-serif;fill:#4c5f26;fill-opacity:1;stroke:none"
     x="100.42205"
     y="73.175674"
     id="text78"><tspan
       sodipodi:role="line"
       id="tspan76"
       x="100.42205"
       y="73.175674"
       style="font-style:normal;font-variant:normal;font-weight:normal;font-stretch:normal;font-size:16px;font-family:'EB Garamond';-inkscape-font-specification:'EB Garamond';fill:#4c5f26;fill-opacity:1">Desplazamiento</tspan></text>
  <g
     transform="translate(-9.1268624,-7.00086)"
     id="g62">
    <rect
       id="rect3436"
       style="fill:#bbccee;fill-opacity:0.360784;stroke:none;stroke-width:2;stroke-linecap:butt;stroke-linejoin:miter;stroke-miterlimit:4;stroke-dasharray:none;stroke-dashoffset:0;stroke-opacity:1"
       y="153.91444"
       x="223.86526"
       height="42.784733"
       width="96.063828" />
    <g
       transform="translate(-222.54901,-354.62419)"
       id="g3440"
       style="fill:#2a54a9;fill-opacity:1">
      <path
         id="path3438"
         style="fill:#2a54a9;fill-opacity:1;fill-rule:evenodd;stroke:none;stroke-width:4;stroke-linecap:butt;stroke-linejoin:miter;stroke-miterlimit:4;stroke-dasharray:none;stroke-opacity:1"
         d="m 461.21875,520 v 4 H 532.25 v -4 z" />
      <path
         id="path3446"
         style="font-size:12px;fill:#2a54a9;fill-opacity:1;fill-rule:evenodd;stroke-width:0.625;stroke-linejoin:round"
         d="m 511.32821,512.31201 26.2221,9.64253 -26.2221,9.64253 c 4.18919,-5.69295 4.16506,-13.48189 0,-19.28506 z" />
    </g>
    <text
       id="text925"
       y="188.41515"
       x="240.21281"
       style="font-style:normal;font-weight:normal;font-size:16px;line-height:1.25;font-family:sans-serif;fill:#2a54a9;fill-opacity:1;stroke:none"
       xml:space="preserve"><tspan
         style="font-style:normal;font-variant:normal;font-weight:normal;font-stretch:normal;font-size:16px;font-family:'EB Garamond';-inkscape-font-specification:'EB Garamond';fill:#2a54a9;fill-opacity:1"
         y="188.41515"
         x="240.21281"
         id="tspan923"
         sodipodi:role="line">Trayectoria</tspan></text>
  </g>
</svg>
