<svg xmlns="http://www.w3.org/2000/svg" xmlns:xlink="http://www.w3.org/1999/xlink" width="1322.822" height="592.274" viewBox="0 0 992.117 444.206"><defs><path id="d" d="M1.594.469c.797 0 1.531-.266 2.453-1.36C5.14-2.187 6.203-3.656 7.266-4.984c.265-.329.406-.329.53.203l.735 3.015c.39 1.47.86 2.235 2.094 2.235 1.922 0 3.453-3.156 3.453-4.39 0-.657-.14-.72-.312-.72-.157 0-.297.125-.422.454-.672 1.625-1.563 2.656-2.188 2.656-.234 0-.531-.188-.703-.797L9.328-6.406c-.172-.563-.11-.89.063-1.157.828-1.265 1.562-2.125 2.187-2.859.766-.922 1.36-1.39 1.89-1.39.298 0 .5.156.735.765.14.328.328.563.594.563.562 0 1.406-1.329 1.36-1.829-.032-.53-.829-1.421-1.688-1.421-1.188 0-2.328 1.03-2.985 1.953L9.156-8.47c-.234.297-.39.266-.469-.062l-.828-3.516c-.296-1.156-.687-1.687-1.39-1.687-1.453 0-3.547 2.484-3.547 3.78 0 .329.062.563.234.563.297 0 .469-.406.563-.53.828-1.204 1.531-1.735 1.86-1.735.265 0 .359.078.5.578l1.25 4.64c.077.204.077.438-.095.594C5.844-4.25 5.11-3.28 3.781-1.922c-.265.266-.594.422-.89.39-.266 0-.5-.234-.641-.765-.063-.297-.188-.594-.531-.594C1.156-2.89.234-1.562.234-.797.234.063.922.47 1.594.47zm0 0"/><path id="r" d="M.031.172C1.688.172 2.484 0 4.016 0c1.421 0 1.921.172 3.578.172.531 0 1-.11 1-.375 0-.297-.172-.453-.828-.594-1.454-.297-2.157-.89-1.688-2.453l4.578-15c.469-1.563 1.297-2.094 2.922-2.39.766-.141 1.219-.36 1.219-.672 0-.266-.266-.36-.797-.36-1.656 0-2.047.094-3.375.094-1.438 0-1.938-.094-3.594-.094-.531 0-.984.094-.984.36 0 .312.125.53.797.671 1.453.297 1.812.828 1.36 2.391l-4.579 15C3.156-1.687 2.062-1.094.437-.797c-.765.14-1.203.297-1.203.594 0 .266.266.375.797.375zm0 0"/><path id="s" d="M5.578.328c3.531 0 4.969-4.187 4.969-7.672 0-3.375-1.516-7.297-4.735-7.297-3.515 0-5 4.094-5 7.625C.813-3.578 2.345.328 5.579.328zm.375-.672c-2.047 0-3.031-3.625-3.031-7.093 0-3.454.64-6.5 2.437-6.5 2.032 0 3.094 3.546 3.094 7.015 0 3.453-.687 6.578-2.5 6.578zm0 0"/><path id="t" d="M.516.094C.348.094.21.07.109.03.016-.008-.03-.07-.03-.156c0-.082.05-.16.156-.235.102-.07.258-.14.469-.203.32-.094.625-.238.906-.437.281-.207.52-.547.719-1.016.351-.812.68-1.57.984-2.281.3-.719.582-1.414.844-2.094.27-.687.547-1.398.828-2.14.29-.739.594-1.547.906-2.422.063-.176.117-.352.172-.532.05-.187.082-.379.094-.578.113-.039.226-.078.344-.11.113-.038.226-.097.343-.171a.622.622 0 0 0 .235-.344.883.883 0 0 1 .125-.312c.008-.008.023-.016.047-.016.02 0 .035.016.046.047.02.043.04.105.063.187.02.075.047.149.078.22.3.968.613 1.952.938 2.952l.968 2.907c.313.93.598 1.761.86 2.5.258.742.46 1.34.61 1.796.175.512.362.899.562 1.157.207.25.421.43.64.531.227.094.469.168.719.219.219.043.375.105.469.187.101.074.156.156.156.25 0 .074-.055.117-.156.14a1.296 1.296 0 0 1-.39.048c-.18 0-.423-.012-.735-.032A48.94 48.94 0 0 0 11 0c-.336-.008-.648-.016-.938-.016h-.75c-.25 0-.484.008-.703.016h-.546a1.43 1.43 0 0 1-.407-.047c-.093-.039-.14-.101-.14-.187 0-.082.062-.157.187-.22.125-.062.27-.108.438-.14.414-.062.71-.164.89-.312.176-.156.266-.332.266-.531 0-.196-.043-.473-.125-.829-.086-.363-.184-.75-.297-1.156-.117-.414-.219-.785-.313-1.11-.03-.093-.085-.148-.156-.171a1.409 1.409 0 0 0-.36-.031H4.454a.332.332 0 0 0-.172.062c-.054.043-.105.137-.156.281-.043.125-.11.325-.203.594-.086.274-.172.563-.266.875-.086.305-.156.574-.219.813-.062.242-.093.39-.093.453 0 .281.11.515.328.703.219.18.476.305.781.375.414.117.625.246.625.39 0 .075-.055.126-.156.157a1.388 1.388 0 0 1-.39.047c-.169 0-.415-.008-.735-.016a39.557 39.557 0 0 0-1-.016c-.418 0-.824.016-1.219.047C1.18.071.828.094.516.094zM4.969-5.36h2.937c.176 0 .266-.032.266-.094a.392.392 0 0 0-.016-.094.392.392 0 0 0-.015-.094l-1.485-4.64c-.074-.227-.133-.344-.172-.344-.023 0-.074.105-.156.313L4.61-5.641a.538.538 0 0 0-.046.141c0 .063.03.105.093.125.07.012.176.016.313.016zm0 0"/><path id="u" d="M6.781.36C6.758.36 6.72.331 6.656.28c-.054-.054-.078-.09-.078-.11 0-.124.016-.3.047-.53a4.8 4.8 0 0 0 .047-.61v-.11c-.188.294-.492.59-.906.891-.418.301-.946.454-1.579.454-.73 0-1.359-.192-1.89-.563a3.803 3.803 0 0 1-1.203-1.469 4.255 4.255 0 0 1-.422-1.843c0-.739.164-1.43.5-2.079A4.182 4.182 0 0 1 2.64-7.266c.644-.406 1.41-.609 2.296-.609.258 0 .52.027.782.078.258.043.457.09.593.14.114.032.196.048.25.048.083 0 .125-.149.125-.454v-2.703c0-.52-.085-.867-.25-1.046-.156-.176-.386-.29-.687-.344-.117-.02-.172-.098-.172-.235 0-.113.047-.191.14-.234.563-.133 1-.266 1.313-.39.32-.133.57-.239.75-.313a.273.273 0 0 1 .14-.047c.04-.008.079-.016.11-.016.07 0 .114.043.125.125 0 .075-.011.204-.031.391-.023.18-.043.445-.063.797-.023.355-.03.82-.03 1.39v8.594c0 .438.03.758.093.953.063.188.16.282.297.282.062 0 .172-.004.328-.016.164-.008.328-.02.484-.031.227-.02.344.039.344.172a.345.345 0 0 1-.094.234c-.054.063-.109.094-.171.094a7.951 7.951 0 0 0-1.047.234A10.05 10.05 0 0 0 7.094.25c-.106.05-.172.082-.203.094a.461.461 0 0 1-.11.015ZM4.875-.72c.32 0 .64-.082.953-.25.32-.176.602-.406.844-.687l.016-3.422c0-.344-.102-.676-.297-1a2.22 2.22 0 0 0-.813-.813c-.344-.207-.75-.312-1.219-.312-.293 0-.625.09-1 .266-.367.18-.683.492-.953.937-.261.45-.39 1.102-.39 1.953 0 .719.101 1.297.312 1.734.219.438.485.774.797 1 .313.231.629.387.953.47.32.085.586.124.797.124zm0 0"/><path id="v" d="M2.219.266c-.23 0-.465-.09-.703-.266a2.387 2.387 0 0 1-.579-.64C.781-.899.704-1.146.704-1.376c0-.406.102-.719.313-.938.218-.226.562-.44 1.03-.64L4-3.75c.25-.094.395-.176.438-.25.039-.082.07-.25.093-.5l.032-1.219a1.274 1.274 0 0 0-.282-.86c-.187-.237-.468-.359-.843-.359a1.77 1.77 0 0 0-.563.094 1.665 1.665 0 0 0-.484.25.44.44 0 0 0-.157.235c-.023.093-.03.199-.03.312v.172c.007.063.015.121.015.172 0 .062-.078.152-.235.266-.156.105-.336.199-.53.28-.2.075-.36.11-.485.11a.248.248 0 0 1-.156-.047.148.148 0 0 1-.047-.11c0-.206.062-.425.187-.655.133-.239.32-.457.563-.657.289-.27.609-.504.953-.703a5.694 5.694 0 0 1 1-.484c.332-.113.629-.172.89-.172.457 0 .832.164 1.125.484.301.325.442.727.422 1.204L5.813-1.61c-.012.261.05.476.187.64.133.168.3.25.5.25.32 0 .555-.07.703-.219.063-.062.113-.093.156-.093.063 0 .11.023.141.062.04.043.063.094.063.156 0 .137-.07.274-.204.407-.199.21-.418.37-.656.484-.242.125-.46.188-.656.188C5.46.266 5-.063 4.657-.72h-.048c-.43.344-.836.598-1.218.75a3.018 3.018 0 0 1-1.172.235Zm.906-.907c.25 0 .46-.039.64-.125.176-.082.333-.195.47-.343a.74.74 0 0 0 .156-.25c.05-.102.082-.274.093-.516l.047-.938c.008-.144 0-.25-.031-.312-.023-.063-.07-.094-.14-.094a.547.547 0 0 0-.141.031 2.302 2.302 0 0 0-.25.063c-.668.25-1.133.508-1.39.766-.263.25-.392.484-.392.703 0 .336.098.59.297.765.196.168.41.25.641.25zm0 0"/><path id="w" d="M.766 5.422c-.063 0-.149-.012-.25-.031C.41 5.367.359 5.32.359 5.25c0-.105.047-.18.141-.219.094-.043.191-.086.297-.125.187-.062.367-.136.547-.218.176-.086.265-.25.265-.5v-9.641c0-.102-.03-.254-.093-.453A1.968 1.968 0 0 0 1.25-6.5a.775.775 0 0 0-.516-.344c-.043-.008-.078-.039-.109-.093a.36.36 0 0 1-.031-.157c0-.062.008-.11.031-.14a.53.53 0 0 1 .094-.094 7.75 7.75 0 0 0 1.234-.36c.344-.132.664-.265.969-.39h.031c0-.008.004-.016.016-.016.02 0 .039.024.062.063.031.031.047.07.047.11 0 .105-.015.28-.047.53-.031.25-.047.454-.047.61 0 .093.004.148.016.156.125-.125.352-.281.688-.469a7.565 7.565 0 0 1 1.156-.531c.437-.164.847-.25 1.234-.25.664 0 1.227.18 1.688.531.468.344.82.793 1.062 1.344.25.555.375 1.125.375 1.719 0 .574-.11 1.133-.328 1.672a4.798 4.798 0 0 1-.906 1.453c-.399.43-.856.773-1.375 1.031a3.73 3.73 0 0 1-1.672.39c-.18 0-.39-.03-.64-.093a6.798 6.798 0 0 1-.72-.203 1.717 1.717 0 0 1-.53-.313c-.024 0-.04.074-.048.219-.011.145-.023.297-.03.453V4.188c0 .164.062.296.187.39.132.094.285.16.453.203.176.04.328.082.453.125.101.04.203.082.297.125.093.04.14.114.14.219 0 .07-.054.117-.156.14-.094.02-.183.032-.266.032-.367 0-.671-.016-.921-.047a6.807 6.807 0 0 0-.86-.047c-.219 0-.398.004-.531.016a4.193 4.193 0 0 0-.406.047c-.137.02-.328.03-.578.03Zm4.437-5.75c.195 0 .43-.055.703-.172.27-.113.54-.297.813-.547.27-.25.5-.586.687-1.016.188-.437.282-.972.282-1.609 0-.726-.102-1.316-.297-1.765-.188-.446-.422-.782-.704-1a2.181 2.181 0 0 0-.843-.454 2.871 2.871 0 0 0-.75-.125 2.57 2.57 0 0 0-.938.188 3.652 3.652 0 0 0-.828.437C3.11-6.234 3-6.113 3-6.03c0 .281-.008.57-.016.86 0 .28-.007.558-.015.827 0 .262-.008.496-.016.703v.485c0 .511.113.98.344 1.406.238.43.531.773.875 1.031.351.262.695.39 1.031.39zm0 0"/><path id="x" d="M3.594.266c-.625 0-1.117-.192-1.469-.563C1.781-.68 1.609-1.25 1.609-2v-4.406c0-.102-.039-.176-.109-.219-.074-.04-.234-.063-.484-.063H.89c-.063 0-.118-.039-.157-.125a.566.566 0 0 1-.062-.265c0-.02.015-.055.047-.11.039-.05.066-.082.078-.093.25-.176.476-.352.687-.532.22-.175.41-.347.579-.515.164-.176.304-.332.421-.469l.172-.172a.218.218 0 0 1 .156-.062c.063 0 .118.015.172.047.063.023.086.074.079.156l-.094.86c-.012.136.02.23.094.28.07.055.19.079.359.079h2.172c.05 0 .093.043.125.125.039.086.062.183.062.296 0 .118-.023.231-.062.344-.032.106-.074.157-.125.157h-1.89c-.313 0-.517.027-.61.078-.094.043-.14.195-.14.453v3.734c0 .512.1.914.312 1.203.218.293.53.438.937.438.363 0 .645-.024.844-.078.207-.063.394-.149.562-.266a.11.11 0 0 1 .079-.031c.05 0 .082.031.093.093.02.055.032.11.032.172 0 .063-.106.188-.313.375-.21.188-.48.368-.813.532-.335.164-.699.25-1.093.25zm0 0"/><path id="y" d="M4.047.281c-.7 0-1.309-.168-1.828-.5-.524-.344-.93-.828-1.219-1.453C.719-2.305.578-3.035.578-3.859c0-.739.164-1.407.5-2a4.066 4.066 0 0 1 1.328-1.454 3.232 3.232 0 0 1 1.828-.562c.508 0 .961.105 1.36.313.394.199.703.48.922.843.218.356.328.774.328 1.25 0 .387-.188.578-.563.578H2.266c-.18 0-.305.047-.375.141-.075.094-.11.281-.11.563 0 .617.133 1.171.407 1.671.269.5.624.903 1.062 1.204.445.292.938.437 1.469.437.375 0 .718-.07 1.031-.219.313-.144.586-.36.828-.64a.45.45 0 0 1 .11-.11.179.179 0 0 1 .093-.031c.102 0 .157.063.157.188 0 .242-.118.507-.344.796-.188.243-.418.45-.688.625-.261.18-.554.313-.875.407-.312.093-.64.14-.984.14Zm-1.75-5.75H4.03c.301 0 .563-.004.782-.015.218-.02.425-.051.625-.094.062-.008.101-.047.125-.11.019-.07.03-.171.03-.296 0-.375-.163-.692-.484-.954a1.807 1.807 0 0 0-1.156-.39c-.293 0-.586.09-.875.266a2.277 2.277 0 0 0-.719.64c-.187.25-.28.5-.28.75 0 .137.07.203.218.203zm0 0"/><path id="T" d="M2.188.266c-.282 0-.528-.106-.735-.313a.993.993 0 0 1-.312-.734c0-.29.101-.535.312-.735.207-.207.453-.312.734-.312.29 0 .536.105.735.312.207.2.312.446.312.735 0 .281-.105.527-.312.734a.983.983 0 0 1-.735.313zm0 0"/><path id="z" d="M1.219-11.063H2.53v.11a.497.497 0 0 0-.14.234 2.994 2.994 0 0 0-.016.39v4.079c.195-.313.43-.582.703-.813.281-.226.57-.406.875-.53.3-.126.61-.188.922-.188.457 0 .86.105 1.203.312.352.211.625.547.813 1.016.195.469.296 1.086.296 1.844V0H6.032v-4.578c0-.531-.062-.953-.187-1.266-.125-.32-.293-.55-.5-.687a1.32 1.32 0 0 0-.719-.203c-.2 0-.406.03-.625.093-.21.063-.414.164-.61.297-.187.137-.359.305-.515.5a2.248 2.248 0 0 0-.375.657 2.414 2.414 0 0 0-.125.812V0H1.219Zm0 0"/><path id="A" d="M4.969.11c-.48 0-.875-.083-1.188-.235a1.616 1.616 0 0 1-.719-.781c-.167-.352-.277-.797-.328-1.328a13.293 13.293 0 0 1-.03-1.891l.187-5.422 1.25-.156.171-.016.016.11a2.344 2.344 0 0 0-.14.25c-.043.074-.075.203-.094.39l-.157 1.875.063.297-.125 2.75c-.031.844-.012 1.5.063 1.969.082.46.222.777.421.953.196.168.461.25.797.25.364 0 .688-.07.969-.219.29-.144.586-.328.89-.547l.376.938a4.061 4.061 0 0 1-1.172.625 4.265 4.265 0 0 1-1.25.187zM1.172-7.61H6.64v.985H1.17zm0 0"/><path id="B" d="M1 2.781v-10.39h1.219v1.5c.113-.383.285-.696.515-.938.227-.25.493-.43.797-.547a2.907 2.907 0 0 1 1-.172c.414 0 .817.086 1.203.25.383.157.723.399 1.016.72.29.312.52.714.688 1.202.175.492.265 1.07.265 1.735 0 .668-.094 1.257-.281 1.765-.18.512-.422.938-.734 1.281-.305.336-.649.59-1.032.766-.375.164-.761.25-1.156.25a2.87 2.87 0 0 1-.89-.14 2.405 2.405 0 0 1-.766-.407A3.252 3.252 0 0 1 2.234-1v3.781Zm3.297-3.64c.258 0 .516-.047.766-.141.257-.094.492-.25.703-.469.218-.226.382-.535.5-.922.125-.382.187-.859.187-1.421 0-.602-.078-1.118-.234-1.547-.157-.426-.383-.754-.672-.985-.293-.238-.652-.367-1.078-.39a1.967 1.967 0 0 0-.875.14c-.274.106-.512.29-.719.547-.21.25-.371.586-.484 1-.118.418-.172.918-.172 1.5.008.356.047.68.11.969.062.293.155.547.28.765.125.211.27.387.438.532.164.136.351.242.562.312.207.074.438.11.688.11zm0 0"/><path id="C" d="M4.172.172a5.05 5.05 0 0 1-1.203-.14A4.245 4.245 0 0 1 1.875-.36a3.924 3.924 0 0 1-.922-.672l.656-1.125.11-.156.093.062c.02.094.047.188.079.281.03.094.101.211.218.344.239.23.52.422.844.578.32.149.738.219 1.25.219.414 0 .766-.047 1.047-.14.281-.102.5-.25.656-.438a.968.968 0 0 0 .125-1.078 1.065 1.065 0 0 0-.328-.36 2.87 2.87 0 0 0-.578-.328 8.45 8.45 0 0 0-.89-.344 8.614 8.614 0 0 1-1.532-.578c-.43-.218-.762-.472-1-.765-.23-.301-.344-.641-.344-1.016 0-.383.102-.719.313-1 .219-.29.535-.516.953-.672.414-.156.926-.234 1.531-.234.352 0 .676.027.969.078.29.043.555.117.797.219.25.093.473.218.672.375.207.148.406.32.593.515L6.5-5.75l-.11.125-.077-.078a.904.904 0 0 0-.079-.266 1.406 1.406 0 0 0-.25-.312 2.823 2.823 0 0 0-.859-.453 3.14 3.14 0 0 0-.938-.157c-.437 0-.82.079-1.14.235-.324.156-.485.398-.485.718a.85.85 0 0 0 .172.5c.114.157.329.32.641.485.313.156.754.32 1.328.484.633.2 1.145.403 1.531.61.383.199.66.433.829.703.175.261.265.574.265.937 0 .43-.117.824-.344 1.188-.23.367-.578.656-1.046.875-.47.215-1.06.328-1.766.328Zm0 0"/><path id="D" d="M3.953-5.125a.947.947 0 0 1-.672-.281.887.887 0 0 1-.297-.672c0-.258.098-.484.297-.672a.947.947 0 0 1 .672-.281c.258 0 .488.093.688.281a.882.882 0 0 1 .312.672.901.901 0 0 1-.297.672.992.992 0 0 1-.703.281Zm0 5.313c-.273 0-.5-.09-.687-.266a.931.931 0 0 1-.282-.688c0-.27.098-.5.297-.687a.947.947 0 0 1 .672-.281c.258 0 .488.093.688.28a.896.896 0 0 1 .312.688.901.901 0 0 1-.297.672.97.97 0 0 1-.703.281Zm0 0"/><path id="E" d="M2.047.703 1.062.22l5.22-11.281.984.515zm0 0"/><path id="F" d="M1.672 0v-.969h1.937V-6.64H1.766v-.968h3.046v6.64h1.782V0Zm2.484-9.203a.816.816 0 0 1-.61-.25.8.8 0 0 1-.25-.594.88.88 0 0 1 .235-.625.854.854 0 0 1 .625-.25.8.8 0 0 1 .594.266.814.814 0 0 1 .266.61c0 .23-.09.429-.266.593a.812.812 0 0 1-.594.25zm0 0"/><path id="G" d="m3.313-3.813-1 .938V0h-1.22v-11.063H2.47v.11a.497.497 0 0 0-.14.234 2.994 2.994 0 0 0-.017.39v6.22l3.813-3.532c.063.012.125.024.188.032.07.011.144.023.218.03.07 0 .149.009.235.016h.672L4.25-4.546 7.969 0 6.422.063Zm0 0"/><path id="H" d="m.828-.813 4.719-5.75h-4.36v-1.046h5.907v.812L2.469-1.03H6.75c.188 0 .316-.008.39-.032a.497.497 0 0 0 .235-.14h.11V0H.827zm0 0"/><path id="I" d="M3.953.188a.93.93 0 0 1-.672-.282A.915.915 0 0 1 3-.766a.9.9 0 0 1 .281-.656.907.907 0 0 1 1.344 0 .9.9 0 0 1 .281.656.915.915 0 0 1-.281.672.937.937 0 0 1-.672.281Zm0 0"/><path id="J" d="M1.203 0v-7.61H2.36v1.36c.196-.313.43-.582.704-.813.269-.226.562-.406.874-.53.32-.126.657-.188 1-.188.426 0 .805.105 1.141.312.332.211.598.547.797 1.016.195.469.297 1.086.297 1.844V0H6v-4.578c0-.531-.063-.953-.188-1.266-.117-.32-.277-.55-.484-.687a1.32 1.32 0 0 0-.719-.203c-.25 0-.511.058-.78.171-.263.106-.5.262-.72.47-.218.198-.402.445-.546.734a2.3 2.3 0 0 0-.204.984V0Zm0 0"/><path id="K" d="M4.531.172A4.512 4.512 0 0 1 3-.078c-.45-.176-.84-.43-1.172-.766a3.347 3.347 0 0 1-.75-1.234c-.18-.5-.266-1.067-.266-1.703 0-.645.086-1.211.266-1.703.188-.5.438-.914.75-1.25.32-.344.695-.602 1.125-.782a3.528 3.528 0 0 1 1.36-.265c.425 0 .828.074 1.203.218.382.137.71.356.984.657.281.293.5.668.656 1.125.164.449.25.984.25 1.61 0 .085-.008.171-.015.265 0 .094-.008.187-.016.281H1.969c.02.492.097.918.234 1.281.145.356.332.649.563.875.238.23.507.403.812.516a3.056 3.056 0 0 0 1.719.062c.238-.062.46-.156.672-.28.207-.126.39-.282.547-.47L7.187-1c-.21.262-.449.48-.718.656-.274.18-.57.309-.89.39A4.249 4.249 0 0 1 4.53.173ZM2.016-4.562h4.171c0-.352-.046-.672-.14-.954a2.238 2.238 0 0 0-.406-.734 1.62 1.62 0 0 0-.61-.469 2.042 2.042 0 0 0-.797-.156c-.273 0-.527.047-.765.14a1.75 1.75 0 0 0-.656.423c-.2.187-.372.43-.516.718-.137.293-.23.637-.281 1.032Zm0 0"/><path id="L" d="M1.313 0v-.969h2.25v-9.125H1.421v-.969h3.36V-.969H7V0Zm0 0"/><path id="M" d="M4.75.188A3.984 3.984 0 0 1 3.203-.11 3.847 3.847 0 0 1 2-.953a3.765 3.765 0 0 1-.781-1.25 4.32 4.32 0 0 1-.282-1.594c0-.562.094-1.082.282-1.562.187-.489.445-.91.781-1.266a3.74 3.74 0 0 1 1.203-.828A3.898 3.898 0 0 1 4.72-7.75c.625 0 1.18.125 1.672.375.5.25.906.594 1.218 1.031l-.75.735-.125.125-.078-.094a.5.5 0 0 0-.062-.234c-.032-.083-.117-.192-.25-.329a2.162 2.162 0 0 0-.797-.453 2.933 2.933 0 0 0-.953-.14c-.324 0-.633.07-.922.203-.281.125-.54.312-.766.562-.23.25-.414.555-.547.907a3.28 3.28 0 0 0-.203 1.187c0 .43.067.824.203 1.188.133.367.317.683.547.953.239.261.52.464.844.609.332.148.688.219 1.063.219.25 0 .488-.031.718-.094.239-.07.461-.176.672-.313a3.82 3.82 0 0 0 .594-.515l.687.812c-.375.399-.793.7-1.25.907-.46.195-.953.296-1.484.296Zm0 0"/><path id="N" d="M1.984-7.61h1.25l-.062 2.22-.14-.25c.062-.344.175-.645.343-.907a2.59 2.59 0 0 1 1.36-1.094 2.945 2.945 0 0 1 1.969.063c.343.137.648.344.921.625l-.531.922-.078.156-.11-.063a.76.76 0 0 0-.11-.25c-.042-.082-.136-.175-.28-.28a1.56 1.56 0 0 0-.485-.22 1.944 1.944 0 0 0-.5-.062c-.281 0-.562.055-.843.156A2.272 2.272 0 0 0 3.39-5.266c-.137.344-.204.758-.204 1.235V.016H1.984Zm0 0"/><path id="O" d="M.578 1.328V.312H7.75v1.016zm0 0"/><path id="P" d="M2.703-6.656H1.047v-.953h1.656v-.625c0-.676.113-1.227.344-1.657.238-.437.566-.757.984-.968.426-.207.91-.313 1.453-.313.477 0 .926.09 1.344.266.414.168.766.43 1.047.781l-.64.89-.094.126-.11-.063a1.232 1.232 0 0 0-.062-.25c-.032-.094-.11-.207-.235-.344a1.68 1.68 0 0 0-.53-.328c-.18-.07-.403-.11-.673-.11-.324 0-.617.071-.875.204a1.34 1.34 0 0 0-.593.61c-.149.28-.22.667-.22 1.156v.625h2.5v.953h-2.5V0h-1.14Zm0 0"/><path id="Q" d="M3.89.172c-.386 0-.765-.086-1.14-.25a3.14 3.14 0 0 1-1.016-.75c-.304-.332-.543-.754-.718-1.266C.836-2.602.75-3.195.75-3.875c0-.695.094-1.29.281-1.781.188-.5.438-.907.75-1.219.313-.32.657-.555 1.032-.703a3.146 3.146 0 0 1 1.14-.219c.363 0 .688.059.969.172.281.105.523.258.734.453.219.188.39.418.516.688v-4.579h1.266v.11a.573.573 0 0 0-.125.234 1.515 1.515 0 0 0-.032.39l.032 9.142c0 .21.003.414.015.609.02.187.067.383.14.578H6.298a1.46 1.46 0 0 1-.125-.39 3.54 3.54 0 0 1-.047-.391v-.406a2.96 2.96 0 0 1-.578.718 2.48 2.48 0 0 1-.75.469 2.341 2.341 0 0 1-.906.172Zm.188-1.047c.363 0 .672-.07.922-.219.258-.156.469-.367.625-.64.156-.27.27-.586.344-.954.07-.363.11-.75.11-1.156a4.93 4.93 0 0 0-.22-1.515c-.148-.457-.375-.817-.687-1.079-.313-.257-.711-.39-1.188-.39-.336 0-.632.07-.89.203-.262.125-.48.313-.656.563a2.817 2.817 0 0 0-.391.875c-.094.335-.14.71-.14 1.125 0 .636.081 1.195.25 1.671.163.47.41.84.734 1.11.32.273.718.406 1.187.406zm0 0"/><path id="R" d="M3.516.188c-.868 0-1.532-.196-2-.594a1.876 1.876 0 0 1-.704-1.5c0-.414.098-.785.297-1.11a2.62 2.62 0 0 1 .829-.828 4.328 4.328 0 0 1 1.218-.531c.469-.125.961-.188 1.485-.188.187 0 .379.008.578.016.195 0 .398.012.61.031.218.012.44.04.671.079l.047.906a6.908 6.908 0 0 0-.625-.063c-.2-.02-.399-.035-.594-.047-.2-.007-.39-.015-.578-.015a6.03 6.03 0 0 0-1.11.094 3.032 3.032 0 0 0-.874.296c-.243.137-.43.313-.563.532-.125.21-.187.46-.187.75 0 .242.039.445.125.609A.963.963 0 0 0 2.484-1c.145.094.313.164.5.203.196.043.41.063.641.063.438 0 .82-.067 1.156-.204.344-.132.63-.335.86-.609.238-.27.421-.598.546-.984.125-.383.188-.828.188-1.328 0-.758-.09-1.348-.266-1.766-.18-.414-.445-.71-.796-.89-.344-.188-.79-.282-1.329-.282-.375 0-.742.074-1.093.219a2.65 2.65 0 0 0-.954.64l-.593-.765A3.5 3.5 0 0 1 2.578-7.5c.469-.176.961-.266 1.485-.266.5 0 .953.063 1.359.188.414.117.77.312 1.062.594.29.28.516.664.672 1.14.164.48.25 1.078.25 1.797V0H6.11v-1.172a2.287 2.287 0 0 1-.53.688c-.2.18-.419.312-.657.406-.23.09-.469.16-.719.203-.242.04-.469.063-.687.063Zm0 0"/><path id="S" d="M4.422.188c-.313 0-.61-.047-.89-.141a2.412 2.412 0 0 1-.75-.406A3.117 3.117 0 0 1 2.186-1l-.421 1H1v-11.063h1.36v.11a.573.573 0 0 0-.126.234 2.994 2.994 0 0 0-.015.39v3.892c.113-.196.254-.38.422-.547.164-.164.347-.313.546-.438.208-.125.422-.21.641-.266.219-.062.43-.093.64-.093.47 0 .895.078 1.282.234.383.156.71.402.984.734.282.325.493.731.641 1.22.156.491.234 1.062.234 1.718 0 .68-.09 1.273-.265 1.781-.18.512-.422.938-.735 1.281a2.898 2.898 0 0 1-2.188 1zm-.14-1.063c.257 0 .515-.05.765-.156.25-.102.473-.266.672-.485.207-.226.367-.53.484-.906.113-.383.172-.848.172-1.39 0-.5-.055-.93-.156-1.297a2.456 2.456 0 0 0-.422-.922c-.18-.25-.399-.43-.656-.547a1.988 1.988 0 0 0-.829-.172c-.417 0-.78.125-1.093.375-.313.25-.559.602-.735 1.047-.18.45-.265.965-.265 1.547 0 .437.035.836.11 1.187.081.356.202.664.358.922.157.25.364.45.626.594.257.137.582.203.968.203Zm0 0"/><path id="U" d="M1.094.11C.894.11.734.085.609.046.492.016.438-.047.438-.141c0-.175.25-.312.75-.406.57-.101 1.007-.273 1.312-.515.313-.25.469-.641.469-1.172v-10.297c0-.54-.117-.922-.344-1.14-.219-.227-.617-.395-1.188-.5-.5-.095-.75-.25-.75-.47 0-.082.055-.144.172-.187a1.64 1.64 0 0 1 .485-.063c.406 0 .742.012 1.015.032.27.011.524.023.766.03.238.013.535.017.89.017.333 0 .602-.004.813-.016.219-.008.445-.02.688-.031.238-.02.566-.032.984-.032.195 0 .352.024.469.063.125.043.187.105.187.187 0 .118-.062.211-.187.282-.117.074-.305.136-.563.187-.562.106-.976.274-1.234.5-.262.219-.39.602-.39 1.14v10.298c0 .53.16.921.484 1.171.32.243.765.415 1.328.516.25.043.437.094.562.156.125.063.188.149.188.25 0 .094-.063.157-.188.188-.125.039-.289.062-.484.062-.406 0-.746-.011-1.016-.03-.261-.024-.515-.044-.765-.063A18.728 18.728 0 0 0 4.016 0c-.387 0-.72.004-1 .016-.282.02-.575.039-.875.062C1.848.098 1.5.11 1.094.11Zm0 0"/><path id="V" d="M1 .063A.766.766 0 0 1 .672 0C.586-.031.547-.094.547-.188c0-.113.047-.19.14-.234a2.92 2.92 0 0 1 .391-.125c.219-.062.43-.144.64-.25.22-.101.329-.305.329-.61v-4.905c0-.415-.043-.766-.125-1.047-.086-.29-.324-.489-.719-.594a.914.914 0 0 1-.156-.094c-.043-.039-.063-.11-.063-.203 0-.164.067-.258.204-.281.53-.133.96-.301 1.296-.5.332-.196.66-.414.985-.656.039-.032.078-.055.11-.079a.311.311 0 0 1 .14-.03c.031 0 .054.015.078.046.02.023.031.059.031.11 0 .105-.023.324-.062.656-.032.324-.047.59-.047.796v.172c.008.055.023.09.047.11a5.988 5.988 0 0 1 1.687-1.14 4.996 4.996 0 0 1 1.984-.392c.739 0 1.352.31 1.844.922.489.606.735 1.356.735 2.25v4.86c0 .304.101.508.312.61.207.093.426.179.656.25.125.042.243.093.36.155.113.055.172.137.172.25 0 .094-.059.149-.172.172-.106.02-.2.032-.281.032-.313 0-.555-.012-.72-.032-.167-.023-.327-.035-.484-.047a5.008 5.008 0 0 0-.625-.03c-.261 0-.476.01-.64.03-.168.012-.34.024-.516.047a6.86 6.86 0 0 1-.719.032A1.75 1.75 0 0 1 7.08.03C6.96.008 6.905-.047 6.905-.14c0-.113.055-.195.172-.25a2.27 2.27 0 0 1 .36-.156 5.99 5.99 0 0 0 .656-.25c.207-.101.312-.305.312-.61v-4.796c0-.664-.187-1.188-.562-1.563-.367-.375-.86-.566-1.485-.578-.543 0-1.023.09-1.437.266-.406.18-.774.39-1.094.64a.599.599 0 0 0-.14.25.885.885 0 0 0-.047.282v5.5c0 .304.101.508.312.61.219.105.442.187.672.25.352.093.531.214.531.359 0 .093-.043.156-.125.187a.718.718 0 0 1-.328.063A6.98 6.98 0 0 1 3.97.03C3.8.008 3.64-.004 3.484-.016a5.158 5.158 0 0 0-.64-.03c-.25 0-.461.01-.625.03-.156.012-.324.024-.5.047A6.86 6.86 0 0 1 1 .063Zm0 0"/><path id="W" d="M4.313.313c-.75 0-1.336-.227-1.75-.672-.418-.457-.626-1.133-.626-2.032v-5.296a.269.269 0 0 0-.14-.25c-.086-.063-.281-.094-.594-.094h-.125c-.086 0-.152-.047-.203-.14a.65.65 0 0 1-.078-.313c0-.032.02-.07.062-.125a.972.972 0 0 0 .094-.125 10.643 10.643 0 0 0 1.516-1.25c.207-.207.379-.399.515-.579l.188-.187a.315.315 0 0 1 .203-.078c.07 0 .14.015.203.047.07.031.102.101.094.203l-.11 1.031c-.023.168.016.281.11.344.094.055.238.078.437.078h2.594c.063 0 .113.055.156.156a.72.72 0 0 1 .079.344c0 .148-.028.281-.079.406-.043.125-.093.188-.156.188h-2.25c-.387 0-.637.031-.75.094-.117.062-.172.246-.172.546v4.5c0 .606.13 1.086.39 1.438.259.344.63.516 1.11.516.446 0 .79-.032 1.032-.094.238-.07.457-.176.656-.313.031-.031.062-.047.093-.047.063 0 .102.04.125.11a.69.69 0 0 1 .032.203c0 .086-.125.242-.375.469-.25.218-.578.43-.985.625a2.901 2.901 0 0 1-1.296.296Zm0 0"/><path id="X" d="M4.86.344c-.837 0-1.563-.207-2.188-.61-.625-.414-1.117-1-1.469-1.75C.86-2.766.687-3.633.687-4.625c0-.883.196-1.688.594-2.406a4.942 4.942 0 0 1 1.61-1.735 3.853 3.853 0 0 1 2.187-.671c.613 0 1.156.124 1.625.374.469.243.832.579 1.094 1.016.27.43.406.922.406 1.485 0 .468-.23.703-.687.703H2.719c-.219 0-.371.058-.453.171-.086.118-.125.34-.125.672 0 .73.156 1.399.468 2 .32.594.75 1.075 1.282 1.438.539.355 1.129.531 1.765.531.457 0 .867-.086 1.235-.266.375-.175.707-.43 1-.765.062-.07.101-.117.125-.14a.227.227 0 0 1 .125-.032c.125 0 .187.074.187.219 0 .293-.14.61-.422.953-.23.293-.508.547-.828.766a3.89 3.89 0 0 1-1.047.484A4.031 4.031 0 0 1 4.86.344ZM2.765-6.563h2.062c.363 0 .676-.003.938-.015.257-.02.507-.05.75-.094.082-.02.132-.07.156-.156.02-.082.031-.203.031-.36 0-.437-.195-.812-.578-1.125-.387-.312-.852-.468-1.39-.468-.344 0-.696.105-1.048.312a3.07 3.07 0 0 0-.859.766c-.23.305-.344.605-.344.906 0 .156.094.234.282.234zm0 0"/><path id="Y" d="M3.281.313c-.469 0-.914-.075-1.328-.22A2.871 2.871 0 0 1 .906-.5C.832-.664.773-.945.734-1.344c-.03-.394-.058-.722-.078-.984 0-.133.098-.203.297-.203.063 0 .117.011.172.031.05.023.086.063.11.125.195.75.507 1.29.937 1.61.437.312.875.468 1.312.468.446 0 .82-.144 1.125-.437.313-.301.47-.672.47-1.11 0-.414-.138-.77-.407-1.062-.274-.29-.75-.649-1.438-1.078a9.785 9.785 0 0 1-1.25-.907c-.324-.289-.558-.586-.703-.89a2.544 2.544 0 0 1-.203-1.032c0-.488.11-.93.328-1.328.227-.394.57-.707 1.032-.937.457-.238 1.03-.36 1.718-.36.446 0 .82.047 1.125.141.313.086.54.184.688.297.125.168.226.43.312.781.082.356.125.696.125 1.016 0 .105-.078.156-.234.156a.692.692 0 0 1-.25-.047.34.34 0 0 1-.172-.156c-.2-.5-.45-.879-.75-1.14-.293-.27-.664-.407-1.11-.407-.374 0-.714.117-1.015.344-.293.23-.438.562-.438 1 0 .344.11.656.329.937.218.274.632.586 1.25.938.875.5 1.53.969 1.968 1.406.438.43.657.996.657 1.703 0 .824-.313 1.496-.938 2.016-.625.508-1.433.766-2.422.766Zm0 0"/><path id="Z" d="M1 .063A.766.766 0 0 1 .672 0C.586-.031.547-.094.547-.188c0-.113.055-.19.172-.234.113-.05.234-.094.36-.125.312-.07.55-.164.718-.281.164-.113.25-.305.25-.578V-6.36c0-.407-.074-.77-.219-1.094-.137-.32-.402-.516-.797-.578C.945-8.04.883-8.066.844-8.11a.423.423 0 0 1-.047-.22c0-.163.066-.253.203-.265.613-.133 1.113-.316 1.5-.547.395-.238.691-.437.89-.593.145-.102.255-.157.329-.157.094 0 .14.04.14.11 0 .125-.023.367-.062.719-.043.355-.078.75-.11 1.187-.03.43-.046.82-.046 1.172v5.297c0 .25.086.437.265.562.176.125.414.227.719.297a2.3 2.3 0 0 1 .36.125c.113.043.171.121.171.234 0 .168-.152.25-.453.25-.293 0-.527-.011-.703-.03-.18-.024-.344-.036-.5-.048a5.544 5.544 0 0 0-.656-.03c-.25 0-.465.01-.64.03a6.989 6.989 0 0 0-.5.047C1.534.051 1.3.063 1 .063Zm1.828-11.829c-.324 0-.594-.109-.812-.328a1.101 1.101 0 0 1-.329-.812 1.125 1.125 0 0 1 1.141-1.156c.332 0 .61.109.828.328.219.218.328.496.328.828a1.125 1.125 0 0 1-1.156 1.14zm0 0"/><path id="aa" d="M8.14.438c-.03 0-.085-.032-.156-.094-.062-.063-.093-.11-.093-.14 0-.15.015-.36.046-.641.04-.282.063-.52.063-.72v-.14c-.23.344-.594.7-1.094 1.063-.5.363-1.133.546-1.89.546-.868 0-1.618-.226-2.25-.671a4.627 4.627 0 0 1-1.454-1.75 5.084 5.084 0 0 1-.515-2.22c0-.882.203-1.71.61-2.484a4.942 4.942 0 0 1 1.765-1.89c.77-.488 1.687-.735 2.75-.735.312 0 .617.028.922.079.312.054.55.109.718.171.145.043.243.063.297.063.114 0 .172-.18.172-.547v-3.234c0-.625-.101-1.04-.297-1.25-.199-.207-.48-.344-.843-.406-.149-.032-.22-.13-.22-.297 0-.133.063-.227.188-.282.664-.164 1.188-.32 1.563-.468.383-.157.687-.282.906-.375a.38.38 0 0 1 .172-.047c.05-.008.094-.016.125-.016.082 0 .133.047.156.14 0 .087-.011.243-.031.47-.023.218-.047.542-.078.968-.031.418-.047.969-.047 1.656V-2.5c0 .512.035.887.11 1.125.07.23.19.344.359.344.082 0 .219-.004.406-.016.188-.02.379-.035.578-.047.27-.008.406.059.406.203 0 .106-.039.2-.109.282-.063.086-.133.125-.203.125-.43.062-.852.152-1.266.265C9.5-.102 9.031.066 8.5.297a1.598 1.598 0 0 1-.234.11.31.31 0 0 1-.125.03ZM5.845-.86c.383 0 .765-.102 1.14-.313A3.626 3.626 0 0 0 8-1.984l.031-4.11c0-.406-.12-.804-.36-1.203a2.886 2.886 0 0 0-.984-.969c-.417-.25-.906-.375-1.468-.375-.344 0-.742.11-1.188.329-.437.21-.82.585-1.14 1.124-.313.532-.47 1.31-.47 2.329 0 .867.126 1.562.376 2.093.258.524.578.922.953 1.204.375.273.754.46 1.14.562.383.094.704.14.954.14Zm0 0"/><path id="ab" d="M2.672.313C2.39.313 2.109.207 1.828 0a2.691 2.691 0 0 1-.703-.766C.937-1.078.844-1.367.844-1.64c0-.488.129-.867.39-1.14.258-.27.672-.52 1.235-.75l2.312-.953c.313-.125.492-.235.547-.329.05-.093.082-.289.094-.593l.047-1.453c.02-.395-.09-.739-.328-1.032-.243-.289-.579-.437-1.016-.437-.23 0-.46.043-.688.125-.23.074-.417.172-.562.297a.455.455 0 0 0-.188.281 1.45 1.45 0 0 0-.03.578c.007.074.015.14.015.203 0 .086-.102.188-.297.313a3.948 3.948 0 0 1-.64.343c-.231.094-.423.141-.579.141a.351.351 0 0 1-.187-.047.203.203 0 0 1-.063-.156c0-.238.078-.5.235-.781.164-.282.394-.54.687-.782a6.61 6.61 0 0 1 1.125-.843c.414-.25.82-.442 1.219-.578.394-.133.742-.204 1.047-.204.55 0 1.004.196 1.36.579.35.386.523.87.515 1.453l-.125 5.468c-.012.325.062.586.218.782.165.199.368.297.61.297.375 0 .656-.082.844-.25.07-.082.132-.125.187-.125.07 0 .129.027.172.078.05.043.078.101.078.172 0 .168-.086.336-.25.5-.25.25-.515.445-.797.578-.281.144-.543.218-.781.218-.7 0-1.258-.39-1.672-1.171h-.062c-.5.406-.98.703-1.438.89-.46.188-.93.281-1.406.281ZM3.734-.782c.301 0 .555-.047.766-.14.219-.102.41-.24.578-.407a.814.814 0 0 0 .203-.297c.051-.133.082-.344.094-.625l.047-1.125c.02-.164.016-.285-.016-.36-.031-.081-.093-.124-.187-.124a.71.71 0 0 0-.157.03 1.445 1.445 0 0 0-.296.095c-.805.28-1.36.578-1.672.89-.313.313-.469.602-.469.86 0 .398.113.699.344.906.238.2.492.297.765.297zm0 0"/><path id="ac" d="M4.86.344c-.762 0-1.45-.196-2.063-.578a4.278 4.278 0 0 1-1.469-1.594C.973-2.504.797-3.266.797-4.11c0-.977.21-1.868.64-2.672a5.246 5.246 0 0 1 1.75-1.938 4.328 4.328 0 0 1 2.422-.719c.989 0 1.852.266 2.594.797.188.137.281.282.281.438 0 .117-.058.25-.171.406-.106.156-.235.29-.391.39a.796.796 0 0 1-.422.141.419.419 0 0 1-.234-.078 1.755 1.755 0 0 0-.25-.172A9.176 9.176 0 0 0 5.89-8.25c-.407-.227-.746-.344-1.016-.344-.742 0-1.344.352-1.813 1.047-.46.688-.687 1.594-.687 2.719 0 .71.156 1.355.469 1.937a3.62 3.62 0 0 0 1.25 1.36c.52.336 1.101.5 1.75.5.437 0 .812-.067 1.125-.203C7.289-1.38 7.633-1.633 8-2a.46.46 0 0 1 .11-.078.262.262 0 0 1 .124-.047c.164 0 .25.11.25.328a.746.746 0 0 1-.078.297c-.054.117-.14.25-.265.406a3.506 3.506 0 0 1-.875.782 3.726 3.726 0 0 1-1.11.484A4.712 4.712 0 0 1 4.86.344Zm0 0"/><path id="ad" d="M.89.063A1.75 1.75 0 0 1 .61.03C.491.008.437-.047.437-.14c0-.113.054-.195.171-.25.114-.062.227-.113.344-.156a5.99 5.99 0 0 0 .656-.25c.22-.101.329-.305.329-.61v-11.5c0-.437-.086-.8-.25-1.093-.157-.3-.422-.488-.797-.563-.125-.03-.188-.128-.188-.296 0-.157.05-.25.156-.282a14.19 14.19 0 0 0 1.032-.28c.289-.095.562-.192.812-.298.25-.113.492-.219.735-.312a.36.36 0 0 1 .14-.047c.031 0 .055.023.078.062.02.043.031.079.031.11 0 .136-.027.43-.078.875-.054.449-.078 1.187-.078 2.219v11.406c0 .304.102.508.313.61.219.093.441.179.672.25.125.042.238.093.343.155.114.055.172.137.172.25 0 .094-.058.149-.172.172-.105.02-.199.032-.28.032-.282 0-.513-.012-.688-.032-.18-.023-.352-.035-.516-.047a5.39 5.39 0 0 0-.64-.03c-.262 0-.477.01-.641.03-.168.012-.336.024-.5.047-.168.02-.403.032-.703.032Zm0 0"/><path id="ae" d="M2.86-5.984c-.337 0-.626-.125-.876-.375s-.375-.54-.375-.875c0-.344.125-.633.375-.875.25-.25.54-.375.875-.375.344 0 .633.125.875.375.25.242.375.53.375.875 0 .336-.125.625-.375.875a1.17 1.17 0 0 1-.875.375zm0 6.296c-.337 0-.626-.124-.876-.374s-.375-.54-.375-.875c0-.344.125-.633.375-.875.25-.25.54-.375.875-.375.344 0 .633.124.875.374.25.243.375.532.375.875 0 .336-.125.625-.375.875a1.17 1.17 0 0 1-.875.376zm0 0"/><path id="ah" d="M1.11.063A.806.806 0 0 1 .765 0C.69-.031.656-.094.656-.188c0-.113.047-.19.14-.234a2.92 2.92 0 0 1 .391-.125c.29-.07.504-.18.641-.328a.722.722 0 0 0 .219-.531v-4.907a2.83 2.83 0 0 0-.188-1.078c-.117-.3-.367-.488-.75-.562a.395.395 0 0 1-.156-.11.326.326 0 0 1-.062-.187c0-.156.066-.25.203-.281.394-.114.804-.29 1.234-.531.438-.239.774-.43 1.016-.579.094-.062.164-.101.219-.125a.385.385 0 0 1 .124-.03c.083 0 .126.054.126.155 0 .043-.008.157-.016.344-.012.18-.024.39-.031.64 0 .243-.012.481-.032.72 0 .03.016.046.047.046.25-.3.52-.566.813-.796.289-.227.593-.41.906-.547.313-.133.613-.204.906-.204.32 0 .582.07.782.204.207.136.312.312.312.53 0 .15-.043.313-.125.5a1.96 1.96 0 0 1-.328.485c-.137.137-.281.203-.438.203a.765.765 0 0 1-.296-.062 3.578 3.578 0 0 1-.344-.156l-.36-.125a.963.963 0 0 0-.359-.079c-.367 0-.719.133-1.063.391-.343.262-.515.774-.515 1.531v4.61c0 .199.101.36.312.484.22.125.516.25.891.375.164.043.297.09.39.14.094.044.141.118.141.22 0 .167-.152.25-.453.25-.46 0-.808-.024-1.047-.063a7.336 7.336 0 0 0-.937-.047c-.262 0-.477.012-.64.031-.157.012-.325.024-.5.047-.169.02-.407.032-.72.032Zm0 0"/><path id="ai" d="M4.875.484c-.063 0-.14-.12-.234-.359a9.577 9.577 0 0 1-.172-.516 13.093 13.093 0 0 1-.297-.812c-.094-.281-.188-.54-.281-.781A53.387 53.387 0 0 0 2.812-4.75 96.274 96.274 0 0 1 1.688-7.5a2.068 2.068 0 0 0-.5-.734C.968-8.461.75-8.602.53-8.656a3.695 3.695 0 0 1-.312-.14c-.074-.052-.11-.13-.11-.235 0-.094.055-.149.172-.172a1.75 1.75 0 0 1 .281-.031c.313 0 .536.011.672.03.133.013.27.028.407.048.132.023.332.031.593.031.27 0 .473-.008.61-.031.144-.02.289-.035.437-.047.156-.02.375-.031.656-.031.083 0 .18.011.297.03.114.024.172.079.172.173 0 .105-.058.187-.172.25a1.585 1.585 0 0 1-.359.156.613.613 0 0 0-.344.36c-.074.18-.11.37-.11.578 0 .117.005.226.017.328.019.105.046.203.078.296L5.312-2.28c.008.023.02.031.032.031.008 0 .02-.008.031-.031L7.109-6.72c.063-.156.11-.32.141-.5.031-.176.047-.32.047-.437 0-.301-.047-.516-.14-.64-.095-.134-.247-.243-.454-.329-.2-.07-.34-.129-.422-.172-.074-.05-.11-.129-.11-.234 0-.094.048-.149.141-.172.102-.02.211-.031.329-.031.164 0 .382.023.656.062.27.031.601.047 1 .047.394 0 .664-.016.812-.047.145-.039.32-.062.532-.062.125 0 .226.011.312.03.094.024.14.079.14.173 0 .168-.171.304-.515.406-.23.063-.484.242-.765.531a3.52 3.52 0 0 0-.657 1L6.391-2.797a4.61 4.61 0 0 0-.188.438c-.094.242-.195.5-.297.78-.105.282-.199.528-.281.735l-.11.297s-.03.074-.093.219c-.063.148-.133.3-.203.453-.074.156-.14.273-.203.36Zm0 0"/><path id="aj" d="M1 .063A.973.973 0 0 1 .687.015C.595-.004.547-.07.547-.188c0-.101.047-.175.14-.218.102-.051.235-.098.391-.14a8.97 8.97 0 0 0 .64-.25c.22-.102.329-.306.329-.61v-4.907c0-.414-.047-.773-.14-1.078-.087-.312-.325-.5-.72-.562a.35.35 0 0 1-.156-.094C1-8.086.984-8.157.984-8.25c0-.156.055-.25.172-.281.414-.102.742-.211.985-.328.238-.114.453-.239.64-.375.196-.145.43-.305.703-.485a.264.264 0 0 0 .094-.047.2.2 0 0 1 .11-.03c.093 0 .14.054.14.155 0 .106-.023.325-.062.657-.032.324-.047.59-.047.796 0 .157.015.25.047.282h.046c.344-.332.801-.672 1.376-1.016.57-.344 1.296-.515 2.171-.515.551 0 1.008.12 1.375.359.364.23.664.637.907 1.219h.078a6.726 6.726 0 0 1 1.656-1.125 4.65 4.65 0 0 1 2.047-.454c.5 0 .914.153 1.25.454.344.304.598.699.765 1.187.176.492.266 1 .266 1.531v4.86c0 .304.102.508.313.61.218.093.441.179.672.25.156.042.28.089.375.14.101.043.156.117.156.219 0 .093-.04.156-.11.187a.81.81 0 0 1-.359.063c-.305 0-.54-.012-.703-.032-.168-.023-.324-.035-.469-.047a5.008 5.008 0 0 0-.625-.03c-.262 0-.476.01-.64.03-.168.012-.344.024-.532.047a6.86 6.86 0 0 1-.719.032.766.766 0 0 1-.328-.063c-.086-.031-.125-.094-.125-.188 0-.113.047-.19.141-.234a1.56 1.56 0 0 1 .375-.125c.25-.062.473-.144.672-.25.207-.101.312-.305.312-.61v-4.796c0-.363-.086-.707-.25-1.031a2.283 2.283 0 0 0-.671-.813 1.466 1.466 0 0 0-.907-.312 3.9 3.9 0 0 0-1.062.14 2.549 2.549 0 0 0-.922.469c-.418.336-.625.883-.625 1.64v4.704c0 .304.11.508.328.61.227.105.457.187.688.25.156.03.28.073.374.124.102.055.157.133.157.234 0 .094-.043.157-.125.188a.718.718 0 0 1-.328.063A6.98 6.98 0 0 1 10.03.03c-.168-.023-.336-.035-.5-.047a5.39 5.39 0 0 0-.64-.03c-.262 0-.477.01-.641.03-.168.012-.344.024-.531.047A6.86 6.86 0 0 1 7 .063.847.847 0 0 1 6.672 0c-.086-.031-.125-.094-.125-.188 0-.113.055-.19.172-.234.113-.039.226-.082.343-.125.227-.07.454-.156.672-.25.22-.101.329-.305.329-.61v-4.796c0-.363-.086-.707-.25-1.031a2.372 2.372 0 0 0-.657-.813 1.466 1.466 0 0 0-.906-.312 3.78 3.78 0 0 0-1.063.14 2.549 2.549 0 0 0-.921.469c-.418.305-.625.852-.625 1.64v4.704c0 .304.101.508.312.61.219.093.442.179.672.25.125.042.242.085.36.124.113.043.171.121.171.234 0 .094-.043.157-.125.188a.792.792 0 0 1-.328.063A6.98 6.98 0 0 1 3.97.03C3.8.008 3.64-.004 3.484-.016a5.158 5.158 0 0 0-.64-.03c-.25 0-.461.01-.625.03-.156.012-.324.024-.5.047A6.86 6.86 0 0 1 1 .063Zm0 0"/><path id="ak" d="M5.328.313c-.844 0-1.61-.196-2.297-.579a4.453 4.453 0 0 1-1.64-1.625C.992-2.586.797-3.379.797-4.266c0-.632.125-1.254.375-1.859a5.522 5.522 0 0 1 1.062-1.672c.457-.5.989-.894 1.594-1.187a4.341 4.341 0 0 1 1.969-.454c.875 0 1.664.215 2.375.641.707.43 1.27.985 1.687 1.672a4.32 4.32 0 0 1 .625 2.266c0 .886-.195 1.726-.578 2.515A4.709 4.709 0 0 1 8.187-.422c-.761.488-1.714.734-2.859.734Zm.484-.672c.52 0 .985-.098 1.391-.297.406-.196.723-.52.953-.969.188-.344.313-.766.375-1.266.063-.5.094-.972.094-1.421 0-.727-.137-1.43-.406-2.11-.274-.676-.649-1.226-1.125-1.656a2.386 2.386 0 0 0-1.688-.656c-.418 0-.789.07-1.11.203-.323.125-.624.367-.905.719-.305.375-.5.84-.594 1.39-.086.543-.125 1.09-.125 1.64 0 .743.133 1.45.406 2.126.27.68.64 1.23 1.11 1.656.476.43 1.019.64 1.625.64zm0 0"/><path id="al" d="M1.5.11c-.2 0-.36-.024-.484-.063C.898.016.844-.047.844-.141c0-.175.25-.312.75-.406.582-.101 1.008-.273 1.281-.515.27-.25.406-.645.406-1.188v-10.266c0-.55-.11-.937-.328-1.156-.219-.226-.621-.394-1.203-.5-.25-.05-.438-.113-.563-.187-.125-.07-.187-.164-.187-.282 0-.082.063-.144.188-.187a1.64 1.64 0 0 1 .484-.063c.57 0 1.055.012 1.453.032.406.011.8.023 1.188.03.394.013.859.017 1.39.017.5 0 1.024-.004 1.578-.016.551-.008 1.067-.016 1.547-.016.508-.008.942-.02 1.297-.031.363-.008.578-.016.64-.016.07 0 .15.016.235.047.094.031.148.086.172.156.07.43.144.856.219 1.282.082.418.125.777.125 1.078 0 .137-.04.23-.11.281a.378.378 0 0 1-.219.063c-.074 0-.124-.02-.156-.063a.752.752 0 0 1-.094-.172 12.57 12.57 0 0 0-.234-.734c-.074-.238-.164-.41-.265-.516a1.569 1.569 0 0 0-.704-.5 2.76 2.76 0 0 0-.828-.125H5.922c-.117 0-.281.074-.5.219-.211.137-.313.309-.313.516v4.828c0 .136.04.258.125.36.082.093.176.14.282.14H7.78c.438 0 .739-.078.907-.235.164-.156.3-.445.406-.875.094-.332.226-.5.406-.5.063 0 .125.032.188.094.07.063.109.152.109.266 0 .062-.008.203-.016.422 0 .21-.011.43-.031.656-.012.23-.016.402-.016.515v.61c.008.25.02.492.032.719.007.23.015.375.015.437 0 .106-.011.195-.031.266-.023.074-.078.11-.172.11-.23 0-.406-.24-.531-.72-.094-.351-.219-.613-.375-.78-.149-.165-.371-.25-.672-.25H5.875c-.25 0-.445.038-.578.109-.125.062-.188.226-.188.484v4.375c0 .586.118.984.36 1.203.25.219.629.328 1.14.328h1.688c.488 0 .894-.023 1.219-.078.332-.05.617-.156.859-.313.238-.164.453-.382.64-.656.196-.27.415-.633.657-1.093a.724.724 0 0 1 .156-.235c.063-.062.129-.082.203-.062a.288.288 0 0 1 .188.093c.039.055.062.125.062.22 0 .136-.039.374-.11.718-.073.344-.167.7-.28 1.062a8.384 8.384 0 0 1-.313.86 2.02 2.02 0 0 1-.125.281.21.21 0 0 1-.187.11c-.73 0-1.407-.012-2.032-.032C8.61.066 8.016.051 7.454.031 6.89.02 6.335.008 5.796 0c-.531-.008-1.09-.016-1.672-.016-.336 0-.625.012-.875.032-.242.02-.492.039-.75.062-.25.02-.586.031-1 .031zm0 0"/><path id="am" d="M.906 6.5c-.074 0-.172-.016-.297-.047C.492 6.43.438 6.38.438 6.297c0-.125.054-.215.171-.266.114-.054.227-.105.344-.156a5.36 5.36 0 0 0 .656-.266c.22-.093.329-.293.329-.593V-6.547c0-.113-.04-.289-.11-.531a2.245 2.245 0 0 0-.328-.719.878.878 0 0 0-.61-.406.234.234 0 0 1-.14-.11.416.416 0 0 1-.047-.187c0-.082.016-.145.047-.188a.359.359 0 0 1 .11-.093 11.005 11.005 0 0 0 1.484-.438c.414-.156.804-.312 1.172-.469.007 0 .015-.003.015-.015 0-.008.008-.016.031-.016.032 0 .055.028.079.078.03.043.046.09.046.141 0 .137-.023.355-.062.656a6.97 6.97 0 0 0-.047.703c0 .125.008.196.031.204.145-.145.414-.336.813-.579a8.216 8.216 0 0 1 1.39-.64 4.378 4.378 0 0 1 1.485-.281c.789 0 1.46.21 2.016.624.55.418.972.961 1.265 1.626.3.656.453 1.343.453 2.062 0 .68-.133 1.34-.39 1.984a5.5 5.5 0 0 1-1.094 1.75 5.452 5.452 0 0 1-1.64 1.25c-.626.301-1.294.454-2 .454-.22 0-.477-.04-.766-.11a6.555 6.555 0 0 1-.86-.25 2.053 2.053 0 0 1-.656-.36c-.012 0-.027.09-.047.266-.012.164-.023.344-.031.532A7.615 7.615 0 0 0 3.53.75v4.266c0 .195.078.351.235.468.164.114.347.196.546.25.208.051.391.098.547.141.114.05.227.102.344.156.113.051.172.14.172.266 0 .082-.063.133-.188.156a1.213 1.213 0 0 1-.312.047 8.75 8.75 0 0 1-1.11-.063 9.869 9.869 0 0 0-1.03-.046 8.94 8.94 0 0 0-.626.015c-.156.008-.32.024-.484.047a4.175 4.175 0 0 1-.719.047ZM6.25-.39c.227 0 .504-.067.828-.204.32-.133.645-.351.969-.656.332-.3.61-.71.828-1.234.219-.52.328-1.16.328-1.922 0-.875-.117-1.578-.344-2.11-.218-.53-.5-.93-.843-1.203a2.553 2.553 0 0 0-1.032-.547 3.432 3.432 0 0 0-.875-.14c-.367 0-.742.078-1.125.234a4.623 4.623 0 0 0-.984.5c-.262.188-.39.336-.39.438 0 .343-.008.687-.016 1.03-.012.337-.024.665-.031.985 0 .324-.008.61-.016.86-.012.25-.016.445-.016.578 0 .605.14 1.168.422 1.687.281.512.629.922 1.047 1.235.414.312.832.468 1.25.468zm0 0"/><path id="ao" d="M4.656.36A5.392 5.392 0 0 1 2.875.077a4.548 4.548 0 0 1-1.438-.812 1.432 1.432 0 0 1-.171-.204.833.833 0 0 1-.125-.25 6.952 6.952 0 0 1-.157-1.171 26.909 26.909 0 0 0-.078-1.22c0-.1.047-.179.14-.233a.68.68 0 0 1 .329-.079c.07 0 .145.024.219.063.07.031.117.094.14.187.301 1.168.75 2 1.344 2.5.602.5 1.235.75 1.89.75.532 0 1-.113 1.407-.343a2.41 2.41 0 0 0 .969-.97c.238-.413.36-.905.36-1.468 0-.625-.106-1.129-.313-1.515a2.907 2.907 0 0 0-.875-1c-.375-.29-.84-.61-1.391-.954a90.902 90.902 0 0 1-1.766-1.14 5.575 5.575 0 0 1-1.421-1.344c-.375-.508-.563-1.129-.563-1.86 0-.78.172-1.476.516-2.093.351-.625.879-1.125 1.578-1.5.707-.375 1.594-.563 2.656-.563.55 0 1.023.059 1.422.172.406.117.734.227.984.328.114.055.211.133.297.235a.92.92 0 0 1 .172.344c.094.312.191.68.297 1.093.101.406.156.793.156 1.156 0 .168-.11.25-.328.25a.992.992 0 0 1-.406-.078c-.125-.062-.203-.14-.235-.234-.324-.8-.699-1.414-1.125-1.844-.43-.426-.964-.64-1.609-.64a3.3 3.3 0 0 0-1.281.25 2.133 2.133 0 0 0-.969.828c-.25.375-.375.883-.375 1.515 0 .461.145.875.438 1.25.3.368.69.72 1.171 1.063.489.336 1.016.672 1.579 1.015.53.325 1.05.68 1.562 1.063.508.375.926.824 1.25 1.344.332.523.5 1.164.5 1.922 0 .898-.21 1.683-.625 2.359-.406.68-.984 1.2-1.734 1.563-.743.363-1.61.546-2.61.546Zm0 0"/><path id="ap" d="M8.344.438c-.106 0-.156-.063-.156-.188 0-.156.015-.379.046-.672.04-.289.063-.535.063-.734V-1.297C7.703-.723 7.102-.313 6.5-.063c-.594.25-1.25.376-1.969.376-.48 0-.918-.106-1.312-.313a2.148 2.148 0 0 1-.938-.89c-.23-.407-.344-.907-.344-1.5v-4.626c0-.332-.078-.597-.234-.796-.148-.196-.398-.368-.75-.516a.642.642 0 0 1-.203-.094c-.063-.05-.094-.14-.094-.265 0-.133.031-.223.094-.266A.538.538 0 0 1 1-9.047c.52-.031.922-.07 1.203-.125.281-.05.633-.133 1.063-.25.039-.008.07-.015.093-.015h.079c.164 0 .242.105.234.312-.043.355-.078.652-.11.89-.023.231-.03.524-.03.876v4.437c0 .367.085.703.265 1.016.187.312.426.57.719.765.3.2.613.297.937.297.395 0 .738-.02 1.031-.062.301-.051.594-.18.875-.39.164-.126.38-.321.641-.595.258-.27.39-.644.39-1.125v-4.171c0-.313-.1-.547-.296-.704a1.574 1.574 0 0 0-.64-.343 2.467 2.467 0 0 0-.595-.094.668.668 0 0 1-.343-.078c-.086-.051-.125-.149-.125-.297 0-.133.046-.223.14-.266a.68.68 0 0 1 .328-.078c.47-.02.86-.039 1.172-.062.313-.02.594-.055.844-.11.25-.05.516-.117.797-.203a.433.433 0 0 1 .11-.015c.038-.008.077-.016.109-.016.195 0 .296.086.296.25 0 .012-.007.039-.015.078A.385.385 0 0 1 10.14-9a5.459 5.459 0 0 0-.063.39c-.023.212-.043.43-.062.657-.024.23-.032.402-.032.516v5.265c0 .418.04.715.125.89.082.169.176.25.282.25.125 0 .3-.007.53-.03.24-.02.411-.032.516-.032.083 0 .16.016.235.047.07.031.11.117.11.25 0 .125-.032.211-.095.25a.52.52 0 0 1-.218.063c-.594.086-1.106.203-1.531.359-.43.145-.81.285-1.141.422a1.04 1.04 0 0 0-.203.078.687.687 0 0 1-.25.063Zm0 0"/><path id="aw" d="M7.453.313a6.968 6.968 0 0 1-2.281-.376 6.218 6.218 0 0 1-1.953-1.109 5.423 5.423 0 0 1-1.344-1.703 4.777 4.777 0 0 1-.5-2.188c0-.8.172-1.53.516-2.187a5.333 5.333 0 0 1 1.421-1.703 6.572 6.572 0 0 1 2.047-1.094 7.232 7.232 0 0 1 2.344-.39 11.31 11.31 0 0 1 2.016.171c.3.055.594.125.875.22.164.042.281.089.344.14.062.054.109.125.14.218.07.231.129.547.172.954.04.398.063.726.063.984 0 .18-.043.297-.126.36-.085.062-.18.062-.28 0-.095-.063-.184-.176-.266-.344-.2-.532-.434-.938-.704-1.22a2.208 2.208 0 0 0-1.015-.608c-.399-.114-.902-.172-1.516-.172-.761 0-1.445.199-2.047.593a4.332 4.332 0 0 0-1.421 1.579 4.435 4.435 0 0 0-.516 2.109c0 .855.18 1.664.547 2.422a4.749 4.749 0 0 0 1.515 1.844c.657.468 1.41.703 2.266.703a3.72 3.72 0 0 0 1.188-.204c.406-.144.78-.359 1.124-.64.352-.281.614-.617.782-1.016a.653.653 0 0 1 .453-.406c.219-.063.328.027.328.266 0 .062-.04.199-.11.406a9.03 9.03 0 0 1-.25.672c-.093.242-.18.449-.25.625a.98.98 0 0 1-.187.281c-.074.074-.172.14-.297.203-.324.156-.789.297-1.39.422a8.203 8.203 0 0 1-1.688.188Zm0 0"/><path id="ax" d="M6.89.313a5.468 5.468 0 0 1-2.765-.72 5.615 5.615 0 0 1-2-1.968c-.5-.82-.75-1.719-.75-2.688 0-.687.145-1.347.438-1.984A5.713 5.713 0 0 1 3.03-8.766c.52-.52 1.11-.925 1.766-1.218a5.024 5.024 0 0 1 2.094-.454c.738 0 1.453.133 2.14.391.696.25 1.317.617 1.86 1.094a5.28 5.28 0 0 1 1.296 1.687 4.7 4.7 0 0 1 .485 2.11c0 .93-.227 1.812-.672 2.656-.45.836-1.105 1.512-1.969 2.031-.855.52-1.902.781-3.14.781ZM7.25-.5c.656 0 1.195-.145 1.625-.438a3.15 3.15 0 0 0 1.031-1.109c.258-.457.442-.941.547-1.453.113-.508.172-.992.172-1.453 0-.77-.164-1.52-.484-2.25A4.6 4.6 0 0 0 8.797-9c-.574-.477-1.258-.719-2.047-.719-.719 0-1.328.215-1.828.64a3.97 3.97 0 0 0-1.125 1.61 5.683 5.683 0 0 0-.375 2.063c0 .886.14 1.703.422 2.453.281.742.703 1.336 1.265 1.781.57.45 1.286.672 2.141.672Zm0 0"/><path id="ay" d="M1.14.063A.925.925 0 0 1 .86 0C.741-.04.687-.11.687-.203A.27.27 0 0 1 .859-.47c.125-.05.25-.082.375-.094a3.722 3.722 0 0 0 1.047-.375c.301-.164.453-.453.453-.859V-8.03c0-.469-.101-.828-.296-1.078-.2-.258-.543-.43-1.032-.516a1.14 1.14 0 0 1-.375-.156c-.117-.07-.172-.16-.172-.266 0-.094.055-.16.172-.203a.746.746 0 0 1 .297-.078c.3 0 .555.012.766.031.219.012.43.027.64.047.22.023.454.031.704.031h1.515c.508-.008 1-.02 1.469-.031.476-.008.914-.016 1.312-.016.395-.007.72-.015.97-.015.05 0 .108.011.171.031.07.012.11.047.11.11.03.574.07 1.027.124 1.359.063.336.094.578.094.734a.513.513 0 0 1-.062.188c-.032.074-.07.109-.11.109-.062 0-.136-.031-.219-.094a.852.852 0 0 1-.218-.312 4.312 4.312 0 0 0-.516-.953c-.18-.258-.46-.391-.844-.391H5.016a.957.957 0 0 0-.36.094c-.136.054-.203.156-.203.312v3.031c0 .075.024.184.078.329.051.148.11.218.172.218H6.5c.238 0 .414-.078.531-.234.114-.164.219-.383.313-.656.031-.07.07-.157.125-.25.062-.094.133-.14.218-.14.083 0 .149.042.204.124.062.074.082.149.062.219-.012.187-.027.402-.047.64-.011.243-.015.446-.015.61 0 .2.007.406.03.625.02.21.04.422.063.64.008.055-.011.133-.062.235-.043.094-.102.14-.172.14-.137 0-.23-.078-.281-.234a2.245 2.245 0 0 0-.125-.312c-.063-.239-.172-.399-.328-.485a1.053 1.053 0 0 0-.407-.14 5.995 5.995 0 0 0-.796-.047h-.797c-.211 0-.356.015-.438.047-.086.023-.125.14-.125.359v2.594c0 .418.04.68.125.781.082.105.29.156.625.156h2.281c.47 0 .86-.133 1.172-.406.32-.281.563-.586.719-.922a.687.687 0 0 0 .094-.187c.039-.094.113-.141.219-.141.101 0 .164.043.187.125a.693.693 0 0 1 .047.234 8.54 8.54 0 0 1-.172 1c-.074.356-.148.657-.219.907a.444.444 0 0 1-.156.187.441.441 0 0 1-.234.094C8.578.047 8.03.035 7.5.016A66.759 66.759 0 0 0 6 0c-.48-.008-.938-.02-1.375-.031a28.23 28.23 0 0 0-1.25-.032c-.273 0-.523.012-.75.032-.23.023-.46.039-.688.062-.23.02-.496.032-.796.032Zm0 0"/><path id="az" d="M1.14.063A.925.925 0 0 1 .86 0C.741-.04.687-.11.687-.203A.27.27 0 0 1 .859-.47c.125-.05.25-.082.375-.094a3.722 3.722 0 0 0 1.047-.375c.301-.164.453-.453.453-.859V-8.03c0-.469-.101-.828-.296-1.078-.2-.258-.543-.43-1.032-.516a1.14 1.14 0 0 1-.375-.156c-.117-.07-.172-.16-.172-.266 0-.094.055-.16.172-.203a.746.746 0 0 1 .297-.078c.3 0 .555.012.766.031.219.012.43.027.64.047.22.023.454.031.704.031h1.515c.508-.008 1-.02 1.469-.031.476-.008.914-.016 1.312-.016.395-.007.72-.015.97-.015.05 0 .108.011.171.031.07.012.11.047.11.11.007.374.019.702.03.984.008.281.016.511.016.687v.422a.513.513 0 0 1-.062.188c-.043.074-.086.109-.125.109a.456.456 0 0 1-.235-.094.615.615 0 0 1-.203-.312c-.136-.457-.273-.79-.406-1-.125-.219-.383-.328-.766-.328H5.016c-.2 0-.344.043-.438.125-.086.086-.125.257-.125.515v2.781c0 .18.04.313.125.407.082.093.207.14.375.14H6.5c.238 0 .414-.07.531-.218.114-.145.219-.352.313-.625.031-.07.07-.157.125-.25.062-.094.133-.141.218-.141.083 0 .149.043.204.125.062.074.082.148.062.219-.012.187-.027.398-.047.625-.011.218-.015.414-.015.578 0 .2.015.398.046.594.032.199.047.406.047.625a.545.545 0 0 1-.062.265c-.043.074-.102.11-.172.11-.074 0-.148-.04-.219-.125-.062-.082-.125-.223-.187-.422-.063-.25-.172-.407-.328-.469a1.682 1.682 0 0 0-.407-.14c-.23-.032-.418-.051-.562-.063a4.275 4.275 0 0 0-.578-.031c-.211 0-.434.027-.672.078-.23.043-.344.168-.344.375v2.61c0 .304.113.558.344.765.238.199.57.34 1 .422a.838.838 0 0 1 .344.125.304.304 0 0 1 .171.28c0 .095-.058.165-.171.204a.975.975 0 0 1-.282.063c-.23 0-.437-.012-.625-.032C5.054.02 4.883.008 4.72 0c-.157 0-.324-.004-.5-.016a4.747 4.747 0 0 0-.547-.03c-.262 0-.531.01-.813.03-.28.012-.562.024-.843.047-.282.02-.575.032-.875.032zm0 0"/><path id="aA" d="M1.14.063A.925.925 0 0 1 .86 0C.741-.04.687-.11.687-.203A.27.27 0 0 1 .859-.47c.125-.05.25-.082.375-.094a3.722 3.722 0 0 0 1.047-.375c.301-.164.453-.453.453-.859V-8.03c0-.469-.101-.828-.296-1.078-.2-.258-.543-.43-1.032-.516a1.14 1.14 0 0 1-.375-.156c-.117-.07-.172-.16-.172-.266 0-.094.055-.16.172-.203a.746.746 0 0 1 .297-.078c.3 0 .567.012.797.031.238.012.473.027.703.047.238.023.5.031.781.031.27 0 .52-.008.75-.031.227-.02.461-.035.704-.047.238-.02.503-.031.796-.031a.77.77 0 0 1 .282.078c.113.043.171.11.171.203 0 .106-.058.195-.171.266a1.213 1.213 0 0 1-.375.156c-.325.055-.579.148-.766.281a1.256 1.256 0 0 0-.422.531c-.086.211-.125.47-.125.782v6.234c0 .406.149.695.453.86.301.167.649.292 1.047.375.113.011.234.042.36.093.125.055.187.14.187.266 0 .094-.059.164-.172.203a.975.975 0 0 1-.281.063c-.293 0-.563-.012-.813-.032-.25-.023-.507-.039-.765-.062a11.641 11.641 0 0 0-1.734 0c-.262.023-.516.039-.766.062-.25.02-.528.032-.828.032Zm0 0"/><path id="aB" d="M11.14.313a.865.865 0 0 1-.312-.079 1.224 1.224 0 0 1-.344-.218 1.966 1.966 0 0 1-.312-.313L4.532-7.25a2.036 2.036 0 0 0-.329-.313c-.117-.082-.195-.125-.234-.125-.063 0-.106.055-.125.157-.024.093-.031.25-.031.468v1.985c.007.648.019 1.25.03 1.812.02.555.048 1.043.079 1.47.031.405.129.694.297.859.176.167.46.292.86.375.124.011.241.042.359.093.125.055.187.14.187.266 0 .094-.059.164-.172.203a.975.975 0 0 1-.281.063c-.438 0-.766-.024-.984-.063a4.875 4.875 0 0 0-.86-.063c-.375 0-.695.024-.953.063-.25.04-.594.063-1.031.063A.925.925 0 0 1 1.062 0C.946-.04.891-.11.891-.203a.27.27 0 0 1 .171-.266c.125-.05.25-.082.375-.094.395-.082.708-.203.938-.359.227-.156.36-.445.39-.875.008-.133.02-.394.032-.781.02-.395.035-.848.047-1.36.02-.519.031-1.054.031-1.609.008-.562.02-1.082.031-1.562.008-.489.016-.88.016-1.172 0-.133-.09-.297-.266-.485A3.699 3.699 0 0 0 2-9.296a2.25 2.25 0 0 0-.766-.329 1.14 1.14 0 0 1-.375-.156c-.117-.07-.171-.16-.171-.266 0-.094.054-.16.171-.203a.733.733 0 0 1 .282-.078c.226 0 .457.008.687.015.227.012.469.024.719.032.25.011.504.023.765.031.27.012.551.016.844.016.082 0 .164.039.25.109.082.074.157.152.219.234l5.547 6.625c.031.055.07.118.125.188.062.074.117.11.172.11.031 0 .054-.02.078-.063a.599.599 0 0 0 .031-.235L10.484-8c-.011-.457-.117-.82-.312-1.094-.188-.27-.524-.445-1-.531a1.123 1.123 0 0 1-.39-.156c-.106-.07-.157-.16-.157-.266 0-.094.05-.16.156-.203a.746.746 0 0 1 .297-.078c.3 0 .54.012.719.031.187.012.367.027.547.047.187.023.414.031.687.031.27 0 .473-.008.61-.031.144-.02.296-.035.453-.047.156-.02.379-.031.672-.031a.77.77 0 0 1 .28.078c.114.043.173.11.173.203 0 .106-.059.195-.172.266a1.213 1.213 0 0 1-.375.156c-.469.086-.781.262-.938.531-.148.274-.218.637-.218 1.094v7.516c0 .23-.032.418-.094.562-.063.156-.156.234-.281.234zm0 0"/><path id="aC" d="M3.469.063A.94.94 0 0 1 3.172 0c-.106-.04-.156-.11-.156-.203a.27.27 0 0 1 .171-.266c.126-.05.25-.082.376-.094a3.722 3.722 0 0 0 1.046-.375c.301-.164.454-.453.454-.859v-6.906c0-.363-.043-.578-.125-.64-.086-.063-.32-.095-.704-.095H2.828c-.242 0-.492.126-.75.376-.262.242-.453.46-.578.656-.031.054-.074.12-.125.203a.854.854 0 0 1-.188.187.384.384 0 0 1-.234.079c-.062 0-.105-.016-.125-.047-.023-.032-.031-.07-.031-.125 0-.094.015-.204.047-.329.039-.124.086-.332.14-.624.063-.29.102-.72.125-1.282.02-.164.063-.265.125-.297a.456.456 0 0 1 .157-.046c.062 0 .125.023.187.062.07.043.176.094.313.156.156.063.343.121.562.172.227.055.524.078.89.078h5.095c.468 0 .859-.023 1.171-.078a4.79 4.79 0 0 0 .813-.219c.113-.039.219-.078.312-.109a.906.906 0 0 1 .25-.047c.063 0 .11.027.141.078a.29.29 0 0 1 .063.172c0 .387.003.711.015.969.02.25.035.465.047.64.02.18.031.352.031.516 0 .043-.023.133-.062.266-.031.125-.094.183-.188.172a.373.373 0 0 1-.234-.172 2.901 2.901 0 0 1-.156-.36 1.632 1.632 0 0 0-.5-.765c-.23-.188-.555-.281-.97-.281l-1.78.015c-.2 0-.356.086-.47.25a.83.83 0 0 0-.155.469v6.906c0 .406.148.695.453.86.312.167.664.292 1.062.375.114.011.235.042.36.093.125.055.187.14.187.266 0 .094-.058.164-.172.203a.985.985 0 0 1-.297.063c-.28 0-.546-.012-.796-.032-.25-.023-.508-.039-.766-.062a11.8 11.8 0 0 0-1.734 0c-.262.023-.516.039-.766.062-.25.02-.527.032-.828.032Zm0 0"/><path id="aD" d="M1.14.063A.925.925 0 0 1 .86 0C.741-.04.687-.11.687-.203A.27.27 0 0 1 .859-.47c.125-.05.25-.082.375-.094a3.722 3.722 0 0 0 1.047-.375c.301-.164.453-.453.453-.859V-8.03c0-.469-.101-.828-.296-1.078-.2-.258-.543-.43-1.032-.516a1.14 1.14 0 0 1-.375-.156c-.117-.07-.172-.16-.172-.266 0-.094.055-.16.172-.203a.746.746 0 0 1 .297-.078c.3 0 .555.012.766.031.219.012.43.027.64.047.22.023.454.031.704.031.195 0 .44-.004.734-.015.3-.02.594-.04.875-.063.281-.02.488-.031.625-.031 1.406 0 2.61.148 3.61.437 1 .293 1.769.797 2.312 1.516.539.71.8 1.71.781 3 0 1.125-.32 2.094-.953 2.906-.625.813-1.45 1.438-2.469 1.875-1.012.438-2.121.656-3.328.656-.105 0-.29-.011-.547-.03-.25-.024-.531-.04-.844-.063-.312-.02-.601-.032-.859-.032-.273 0-.523.012-.75.032-.23.023-.46.039-.688.062-.23.02-.496.032-.796.032Zm5.032-.625c.875 0 1.617-.22 2.234-.657a4.382 4.382 0 0 0 1.422-1.703c.332-.695.5-1.43.5-2.203 0-1.008-.183-1.848-.547-2.516a3.58 3.58 0 0 0-1.578-1.53c-.68-.345-1.496-.517-2.453-.517-.313 0-.61.07-.89.204-.274.136-.407.367-.407.687V-2c0 .418.164.762.5 1.031.344.274.75.406 1.219.406zm0 0"/><path id="aE" d="M7.406.063A.925.925 0 0 1 7.125 0c-.117-.04-.172-.11-.172-.203a.27.27 0 0 1 .172-.266c.113-.062.234-.11.36-.14.406-.125.663-.258.78-.407.126-.144.13-.398.016-.765l-.39-1.235c-.024-.07-.059-.113-.11-.125a1.149 1.149 0 0 0-.328-.03H4.031a.355.355 0 0 0-.218.062c-.055.03-.102.105-.141.218a9.157 9.157 0 0 0-.375.875c-.055.18-.078.356-.078.532 0 .293.082.492.25.593.164.106.363.2.594.282.113.043.226.09.343.14.114.055.172.14.172.266 0 .094-.058.164-.172.203a.975.975 0 0 1-.281.063c-.293 0-.527-.012-.703-.032-.168-.023-.336-.035-.5-.047a5.239 5.239 0 0 0-.625-.03c-.25 0-.45.01-.594.03-.148.012-.297.024-.453.047-.148.02-.375.032-.688.032A.925.925 0 0 1 .282 0C.163-.04.108-.11.108-.203A.27.27 0 0 1 .281-.47c.114-.05.235-.094.36-.125.238-.062.46-.125.671-.187.208-.07.41-.203.61-.39.195-.188.383-.493.562-.923l2.641-6.11c.164-.382.242-.66.234-.827 0-.176.016-.281.047-.313.07-.07.164-.172.282-.297.125-.125.242-.25.359-.375a2.24 2.24 0 0 1 .25-.265 1.14 1.14 0 0 1 .219-.219c.062-.04.109-.063.14-.063.04 0 .07.016.094.047.031.032.05.09.063.172L9.89-2.438c.156.375.343.75.562 1.125.219.375.555.61 1.016.704a.734.734 0 0 1 .344.125.304.304 0 0 1 .171.28c0 .095-.058.165-.171.204a.838.838 0 0 1-.282.063C11.094.063 10.75.038 10.5 0a8.116 8.116 0 0 0-.969-.047c-.261 0-.5.012-.719.031-.21.012-.421.024-.64.047-.211.02-.465.032-.766.032Zm-2.89-4.047H7.25c.125 0 .191-.008.203-.032.02-.03.016-.097-.016-.203-.054-.156-.14-.394-.265-.718-.117-.32-.25-.672-.406-1.047-.149-.375-.29-.727-.422-1.063-.125-.332-.227-.586-.297-.766-.063-.164-.117-.25-.156-.25-.032 0-.09.086-.172.25-.2.47-.446 1.047-.735 1.735-.28.68-.539 1.297-.765 1.86-.043.105-.04.171.015.202.051.024.145.032.282.032zm0 0"/><path id="aF" d="M1.14.063A.925.925 0 0 1 .86 0C.741-.04.687-.11.687-.203A.27.27 0 0 1 .859-.47c.125-.05.25-.082.375-.094a3.722 3.722 0 0 0 1.047-.375c.301-.164.453-.453.453-.859V-8.03c0-.469-.101-.828-.296-1.078-.2-.258-.543-.43-1.032-.516a1.14 1.14 0 0 1-.375-.156c-.117-.07-.172-.16-.172-.266 0-.094.055-.16.172-.203a.746.746 0 0 1 .297-.078c.3 0 .555.012.766.031.219.012.43.027.64.047.22.023.454.031.704.031.32 0 .68-.015 1.078-.047.406-.039.847-.062 1.328-.062 1.133 0 2.066.183 2.797.547.726.367 1.093.976 1.093 1.828 0 .656-.132 1.152-.39 1.484-.262.336-.61.586-1.047.75a.1.1 0 0 0-.063.078c0 .043.02.07.063.078.32.094.648.227.984.391.332.168.614.418.844.75.227.336.344.805.344 1.406 0 .72-.215 1.309-.64 1.766-.43.46-.993.793-1.688 1-.7.21-1.477.313-2.329.313C5.707.063 5.5.05 5.188.03 4.883.008 4.563-.008 4.22-.03c-.336-.02-.617-.032-.844-.032-.406 0-.828.012-1.266.032-.437.023-.761.039-.968.062-.211.02-.211.032 0 .032zM6.048-.61c.77 0 1.351-.227 1.75-.688.406-.457.61-1.004.61-1.64 0-.614-.134-1.079-.391-1.391-.25-.32-.61-.54-1.079-.656-.46-.114-1-.172-1.625-.172-.156 0-.304.027-.437.078a.67.67 0 0 0-.313.234.587.587 0 0 0-.109.375v2.516c0 .375.156.695.469.953.32.262.695.39 1.125.39zm-.844-5.235c.395 0 .8-.035 1.219-.11.414-.07.766-.241 1.047-.515.289-.281.437-.707.437-1.281 0-.3-.054-.594-.156-.875-.094-.281-.293-.508-.594-.688-.293-.187-.73-.28-1.312-.28-.43 0-.766.054-1.016.155-.25.106-.375.29-.375.547v2.485c0 .23.067.383.203.453.145.074.328.11.547.11zm0 0"/><path id="aG" d="M4.406.313C3.79.313 3.305.25 2.953.124A7.39 7.39 0 0 0 2-.156c-.117-.032-.18-.063-.188-.094a.262.262 0 0 0-.062-.094 3.662 3.662 0 0 1-.172-.594 12.66 12.66 0 0 1-.14-.843c-.032-.301-.055-.54-.063-.719v-.328c.008-.133.082-.203.219-.203.133 0 .226.074.281.219.05.148.102.261.156.343.125.219.29.512.5.875.207.367.477.688.813.969.344.281.75.422 1.219.422.707 0 1.222-.188 1.546-.563.332-.382.5-.812.5-1.28 0-.333-.086-.642-.25-.923-.156-.281-.421-.547-.796-.797L3.78-4.906c-.562-.364-1.023-.77-1.375-1.219-.344-.457-.515-1-.515-1.625 0-.594.175-1.086.53-1.484.364-.395.821-.692 1.376-.891a4.8 4.8 0 0 1 1.703-.313c.54 0 .992.04 1.36.11.363.062.628.11.796.14a.318.318 0 0 1 .203.11c.051.062.082.133.094.203.063.281.098.59.11.922.019.336.035.64.046.922a.857.857 0 0 1-.078.281c-.054.125-.125.188-.219.188-.085 0-.167-.047-.25-.141a.831.831 0 0 1-.171-.328c-.137-.477-.336-.848-.594-1.11-.262-.27-.531-.457-.813-.562-.273-.113-.507-.172-.703-.172-.531 0-.965.156-1.297.469-.336.304-.5.672-.5 1.11 0 .5.125.874.375 1.124.25.242.586.492 1.016.75L6.813-5.25c.488.313.878.688 1.171 1.125.301.438.454.938.454 1.5 0 .418-.157.855-.47 1.313-.312.449-.773.835-1.374 1.156C6 .152 5.27.313 4.406.313Zm0 0"/><path id="aH" d="M10.719.313c-.305 0-.594-.047-.875-.141a2.494 2.494 0 0 1-.766-.39 4.092 4.092 0 0 1-.64-.61 8.082 8.082 0 0 1-.61-.828c-.25-.375-.508-.77-.766-1.188a16.05 16.05 0 0 1-.64-1.125c-.086-.164-.274-.316-.563-.453a2.28 2.28 0 0 0-.953-.203.593.593 0 0 0-.297.11c-.105.062-.156.148-.156.25v2.468c0 .406.086.688.266.844.187.148.472.262.86.344.124.011.241.043.359.093.125.055.187.141.187.266 0 .094-.059.164-.172.203a.752.752 0 0 1-.281.063c-.23 0-.43-.008-.594-.016-.168 0-.324-.004-.469-.016a3.217 3.217 0 0 0-.453-.03 10.725 10.725 0 0 0-1.422.015c-.261.023-.515.039-.765.062-.25.02-.528.032-.828.032A.925.925 0 0 1 .859 0C.742-.04.688-.11.688-.203A.27.27 0 0 1 .859-.47c.125-.05.25-.082.375-.094a3.722 3.722 0 0 0 1.047-.375c.301-.164.453-.453.453-.859V-8.03c0-.469-.101-.828-.296-1.078-.2-.258-.543-.43-1.032-.516a1.14 1.14 0 0 1-.375-.156c-.117-.07-.172-.16-.172-.266 0-.094.055-.16.172-.203a.746.746 0 0 1 .297-.078c.3 0 .555.012.766.031.219.012.43.027.64.047.22.023.454.031.704.031.32 0 .722-.015 1.203-.047.476-.039.953-.062 1.421-.062.665 0 1.29.078 1.875.234.594.149 1.07.406 1.438.781.363.375.547.899.547 1.563.008.437-.086.828-.281 1.172a2.81 2.81 0 0 1-.735.844c-.281.21-.57.359-.86.453-.155.043-.21.117-.155.218.144.387.332.797.562 1.235.227.437.473.855.735 1.25.269.398.519.73.75 1 .164.187.382.367.656.531.281.168.55.305.812.406.27.106.461.168.578.188.082.012.172.039.266.078a.237.237 0 0 1 .156.234c0 .094-.094.172-.281.235a2.7 2.7 0 0 1-.656.156c-.262.04-.512.063-.75.063zM5.016-5.266c.863 0 1.593-.164 2.187-.5.602-.332.899-.914.89-1.75 0-.488-.148-.89-.437-1.203a2.593 2.593 0 0 0-1.078-.703 3.844 3.844 0 0 0-1.36-.25c-.292 0-.495.043-.609.125-.105.086-.156.258-.156.516v3.187c0 .282.047.45.14.5.095.055.235.078.423.078zm0 0"/><path id="aI" d="M6.89.313a5.468 5.468 0 0 1-2.765-.72 5.615 5.615 0 0 1-2-1.968c-.5-.82-.75-1.719-.75-2.688 0-.687.145-1.347.438-1.984A5.713 5.713 0 0 1 3.03-8.766c.52-.52 1.11-.925 1.766-1.218a5.024 5.024 0 0 1 2.094-.454c.738 0 1.453.133 2.14.391.696.25 1.317.617 1.86 1.094a5.28 5.28 0 0 1 1.296 1.687 4.7 4.7 0 0 1 .485 2.11c0 .93-.227 1.812-.672 2.656-.45.836-1.105 1.512-1.969 2.031-.855.52-1.902.781-3.14.781ZM7.25-.5c.656 0 1.195-.145 1.625-.438a3.15 3.15 0 0 0 1.031-1.109c.258-.457.442-.941.547-1.453.113-.508.172-.992.172-1.453 0-.77-.164-1.52-.484-2.25A4.6 4.6 0 0 0 8.797-9c-.574-.477-1.258-.719-2.047-.719-.719 0-1.328.215-1.828.64a3.97 3.97 0 0 0-1.125 1.61 5.683 5.683 0 0 0-.375 2.063c0 .886.14 1.703.422 2.453.281.742.703 1.336 1.265 1.781.57.45 1.286.672 2.141.672Zm-.734-11.36c-.125 0-.188-.066-.188-.203 0-.039.004-.093.016-.156.02-.07.047-.156.078-.25.101-.289.27-.66.5-1.11.238-.444.476-.882.719-1.312.238-.425.414-.738.53-.937a1.07 1.07 0 0 1 .298-.281.567.567 0 0 1 .328-.125c.281 0 .535.043.765.125.227.074.344.195.344.359a.435.435 0 0 1-.062.234c-.031.055-.086.133-.156.235-.188.261-.438.59-.75.984-.313.387-.633.762-.954 1.125-.312.367-.57.649-.765.844-.324.312-.559.469-.703.469zm0 0"/><path id="aJ" d="M.86 3.344c-.274 0-.407-.086-.407-.25 0-.055.024-.11.078-.172.051-.055.133-.086.25-.094a3.707 3.707 0 0 0 1-.39c.332-.18.614-.438.844-.782.227-.343.344-.781.344-1.312 0-.188-.086-.395-.25-.625-.168-.239-.383-.364-.64-.375-.337-.031-.602-.133-.798-.313A.9.9 0 0 1 1-1.625c0-.3.125-.55.375-.75.25-.195.54-.297.875-.297.55 0 1.004.215 1.36.64.363.419.546.946.546 1.579 0 .57-.117 1.086-.343 1.547-.231.468-.524.867-.876 1.203a4.117 4.117 0 0 1-1.078.765c-.375.188-.71.282-1 .282zm0 0"/><path id="aK" d="M7.547 6.5a1.1 1.1 0 0 1-.281-.047c-.118-.023-.172-.074-.172-.156 0-.125.054-.215.172-.266.113-.054.226-.105.343-.156a5.36 5.36 0 0 0 .657-.266c.218-.093.328-.293.328-.593V-.297c0-.258-.012-.437-.031-.531-.024-.102-.06-.156-.11-.156h-.11c-.03 0-.062.015-.093.046-.125.106-.34.262-.64.47-.305.21-.653.394-1.048.546A3.262 3.262 0 0 1 5.36.312c-.793 0-1.539-.167-2.234-.5a4.217 4.217 0 0 1-1.688-1.468c-.43-.657-.64-1.457-.64-2.407 0-1.07.234-2.007.703-2.812a4.947 4.947 0 0 1 1.984-1.89c.852-.446 1.832-.672 2.938-.672.52 0 .992.042 1.422.124a12.1 12.1 0 0 1 1.047.25c.27.086.421.126.453.126.164 0 .285-.051.36-.157a1.83 1.83 0 0 0 .233-.406L10-9.563a.179.179 0 0 1 .094-.03.49.49 0 0 1 .25.077c.082.043.125.09.125.141 0 .156-.047.477-.14.953a8.994 8.994 0 0 0-.142 1.703V5.016c0 .3.141.5.422.593.282.102.536.192.766.266.125.05.242.102.36.156.113.051.171.14.171.266 0 .082-.058.133-.172.156a1.04 1.04 0 0 1-.296.047c-.45 0-.797-.023-1.047-.063a8.469 8.469 0 0 0-1-.046 8.94 8.94 0 0 0-.625.015 6.117 6.117 0 0 0-.5.047c-.18.031-.418.047-.72.047ZM6.203-.89c.5 0 .977-.098 1.438-.297.457-.208.785-.422.984-.641v-2.313c0-.488-.008-.93-.016-1.328a29.91 29.91 0 0 1-.015-.797C8.582-6.953 8.313-7.53 7.78-8c-.523-.469-1.164-.703-1.922-.703-.554 0-1.074.156-1.562.469-.48.304-.871.75-1.172 1.343-.305.594-.453 1.336-.453 2.22 0 .76.113 1.39.344 1.89.238.492.539.87.906 1.14.363.274.75.465 1.156.579.414.117.79.171 1.125.171zm0 0"/><path id="aL" d="M1 .063A.766.766 0 0 1 .672 0C.586-.031.547-.094.547-.188c0-.113.055-.19.172-.234.113-.05.234-.094.36-.125.312-.07.55-.164.718-.281.164-.113.25-.305.25-.578V-6.36c0-.407-.074-.77-.219-1.094-.137-.32-.402-.516-.797-.578C.945-8.04.883-8.066.844-8.11a.423.423 0 0 1-.047-.22c0-.163.066-.253.203-.265.613-.133 1.113-.316 1.5-.547.395-.238.691-.437.89-.593.145-.102.255-.157.329-.157.094 0 .14.04.14.11 0 .125-.023.367-.062.719-.043.355-.078.75-.11 1.187-.03.43-.046.82-.046 1.172v5.297c0 .25.086.437.265.562.176.125.414.227.719.297a2.3 2.3 0 0 1 .36.125c.113.043.171.121.171.234 0 .168-.152.25-.453.25-.293 0-.527-.011-.703-.03-.18-.024-.344-.036-.5-.048a5.544 5.544 0 0 0-.656-.03c-.25 0-.465.01-.64.03a6.989 6.989 0 0 0-.5.047C1.534.051 1.3.063 1 .063Zm1.281-10.485c-.125 0-.187-.066-.187-.203 0-.04.004-.094.015-.156.02-.07.047-.156.079-.25.101-.29.269-.66.5-1.11.238-.445.476-.882.718-1.312.239-.426.414-.738.531-.938a1.07 1.07 0 0 1 .297-.28.567.567 0 0 1 .329-.126c.28 0 .535.043.765.125.227.074.344.195.344.36a.435.435 0 0 1-.063.234c-.03.055-.086.133-.156.234-.187.262-.437.59-.75.985a34.33 34.33 0 0 1-.953 1.125c-.313.367-.57.648-.766.843-.324.313-.558.47-.703.47zm0 0"/><path id="aM" d="M2.625.313C2.289.313 2 .186 1.75-.064s-.375-.539-.375-.875c0-.343.125-.632.375-.875.25-.25.54-.375.875-.375.344 0 .633.126.875.376.25.242.375.53.375.875 0 .335-.125.625-.375.875a1.17 1.17 0 0 1-.875.374zm0 0"/><path id="af" d="M.016.11C1.156.11 1.703 0 2.766 0c.968 0 1.312.11 2.453.11.36 0 .687-.063.687-.25 0-.204-.11-.313-.578-.407-1-.203-1.469-.61-1.156-1.687l3.14-10.297c.329-1.078.891-1.438 2.016-1.64.516-.095.844-.267.844-.47 0-.171-.188-.25-.547-.25-1.14 0-1.422.079-2.328.079-.984 0-1.328-.079-2.469-.079-.36 0-.672.079-.672.25 0 .204.078.375.547.47 1 .202 1.25.562.922 1.64L2.485-2.234C2.171-1.156 1.405-.75.296-.547c-.531.094-.828.203-.828.406 0 .188.187.25.547.25zm0 0"/><path id="an" d="M1.094.313C1.64.313 2.14.14 2.78-.61 3.531-1.5 4.266-2.5 5-3.422c.172-.219.266-.219.36.14l.5 2.079c.265 1 .593 1.516 1.437 1.516 1.328 0 2.375-2.157 2.375-3 0-.454-.094-.5-.219-.5-.11 0-.203.093-.281.312-.469 1.125-1.078 1.828-1.516 1.828-.156 0-.36-.14-.468-.547l-.782-2.812c-.11-.375-.062-.61.047-.797a16.7 16.7 0 0 1 1.5-1.953c.531-.64.938-.953 1.297-.953.203 0 .344.109.5.515.094.235.234.39.422.39.39 0 .953-.905.937-1.25-.03-.374-.578-.983-1.171-.983-.813 0-1.594.703-2.047 1.343L6.297-5.813c-.172.204-.281.188-.328-.046l-.563-2.422c-.203-.797-.484-1.156-.953-1.156C3.437-9.438 2-7.734 2-6.845c0 .235.047.39.172.39.203 0 .312-.265.375-.359C3.125-7.64 3.609-8 3.828-8c.188 0 .25.047.344.39l.86 3.188c.046.14.046.297-.063.406-.953 1.094-1.453 1.766-2.375 2.688-.172.187-.406.297-.61.281-.187 0-.343-.156-.437-.531-.047-.203-.14-.406-.36-.406-.39 0-1.03.906-1.03 1.437 0 .594.484.86.937.86zm0 0"/><path id="aq" d="M1.453-7.156h9.578c.36 0 .735-.578.735-.89 0-.142-.188-.25-.329-.25h-9.75c-.406 0-.546.655-.546.858 0 .141.156.282.312.282zm0 3.89h9.578c.36 0 .735-.468.735-.89 0-.125-.188-.25-.329-.25h-9.75c-.406 0-.546.672-.546.875 0 .14.156.265.312.265zm0 0"/><path id="au" d="M.86 3.344c1.171 0 3.296-1.5 3.296-3.797 0-1.281-.812-2.219-1.906-2.219-.656 0-1.25.438-1.25 1.047 0 .516.406.89 1.078.969.5.047.89.64.89 1 0 1.594-1.218 2.281-2.187 2.484-.219.047-.328.156-.328.266 0 .14.14.25.406.25zm0 0"/><path id="av" d="M1.203 6.5c.297 0 1.14-.578 1.14-.89 0-.094-.124-.344-.25-.548-.265-.484-.655-1.28-.655-2.28 0-.345.046-.688.156-1.048l.875-2.828c.078-.281.36-.656.547-.656.109 0 .265.203.453.406C3.89-.844 5 .313 6 .313c2.875 0 4.734-2.735 4.734-4.625 0-1.188-.5-2.485-1.843-3.141.953-1.14 2.687-4.156 2.687-6.094 0-1.187-.703-2.531-2.531-2.531-2.188 0-3.547 2.062-4.735 6.14-1.484 5.063-2.78 8.75-3.859 12.47C-.14 4.483-.094 6.5 1.203 6.5Zm4.75-7.688c-1.687 0-2.719-1.156-2.719-1.75 0-.187.047-.374.094-.546l2.14-6.891c1.079-3.422 2.735-4.063 3.876-4.063.922 0 1.469.782 1.469 1.579 0 1.625-1.766 3.968-3.422 5.296-.829.22-1.813.61-1.813 1.266 0 .5.484 1.047.922 1.047.563 0 1.453-1.11 2.094-1.703.594.234 1.297 1.11 1.297 2.172 0 2.093-2.485 3.593-3.938 3.593zm0 0"/><path id="ag" d="M3.828.219c2.438 0 3.422-2.875 3.422-5.266 0-2.312-1.031-5.016-3.25-5.016-2.422 0-3.438 2.813-3.438 5.235C.563-2.453 1.61.219 3.829.219zm.266-.453c-1.407 0-2.078-2.5-2.078-4.875s.421-4.47 1.671-4.47c1.391 0 2.126 2.438 2.126 4.813 0 2.391-.485 4.532-1.72 4.532zm0 0"/><path id="ar" d="M1.016-3.547H8.28c.297 0 .5-.406.5-.765 0-.094-.11-.188-.203-.188h-7.39c-.344 0-.391.625-.391.766 0 .093.11.187.219.187zm0 0"/><path id="as" d="M.813 4.547c.234 0 .843-.39.843-.656 0-.079-.093-.25-.172-.407-.171-.343-.437-.875-.437-1.546 0-.266.031-.532.125-.797l.594-1.985c.078-.187.25-.437.375-.437.078 0 .187.125.312.281.36.39 1.14 1.219 1.89 1.219 1.97 0 3.25-1.828 3.25-3.188 0-.875-.39-1.765-1.312-2.234C7-6.047 8.156-8.047 8.156-9.406c0-.875-.578-1.828-1.797-1.828-1.515 0-2.546 1.406-3.359 4.203C2.031-3.703 1.156-1.156.328 1.656c-.422 1.422-.437 2.89.484 2.89zM4.171-.906c-1.156 0-1.844-.781-1.844-1.219 0-.125.031-.25.063-.39L3.859-7.22c.735-2.328 1.86-2.828 2.72-2.828.624 0 1 .531 1 1.11 0 1.093-1.204 2.703-2.376 3.593-.64.172-1.312.453-1.312.938 0 .36.375.765.671.765.422 0 1.032-.78 1.485-1.218.406.187.875.765.875 1.453 0 1.453-1.703 2.5-2.75 2.5zm0 0"/><path id="at" d="M.781.219c.406 0 .797-.157 1.266-.719.484-.578.969-1.266 1.453-1.875.125-.156.188-.14.25.094.016.078.344 1.36.36 1.437C4.28-.172 4.53.22 5.124.22c.953 0 1.703-1.516 1.703-2.11 0-.296-.062-.328-.14-.328-.079 0-.141.063-.204.203C6.141-1.25 5.75-.78 5.47-.78c-.125 0-.282-.094-.36-.406l-.53-1.907c-.079-.281-.032-.422.046-.562.39-.594.734-1 1.047-1.36.36-.453.656-.656.89-.656.157 0 .235.094.36.375.062.156.156.25.297.25.265 0 .703-.61.687-.89-.015-.266-.422-.72-.843-.72-.563 0-1.094.5-1.454.985L4.5-4.125c-.11.156-.188.156-.219-.016l-.406-1.656c-.14-.578-.344-.86-.719-.86-.765 0-1.765 1.204-1.765 1.86 0 .172.03.266.109.266.125 0 .219-.157.266-.235.406-.546.734-.828.921-.828.126 0 .172.032.235.282l.61 2.203a.328.328 0 0 1-.063.312c-.625.719-1 1.188-1.578 1.797-.157.14-.329.234-.47.219-.14 0-.25-.11-.312-.36-.046-.14-.109-.28-.265-.28-.281 0-.735.64-.735 1.015 0 .422.329.625.672.625zm0 0"/><clipPath id="a"><path d="M39.348 300H129v5H39.348Zm0 0"/></clipPath><clipPath id="b"><path d="M39.348 242H129v5H39.348Zm0 0"/></clipPath><clipPath id="c"><path d="M39.348 184H129v5H39.348Zm0 0"/></clipPath><clipPath id="e"><path d="M186 7h183v355H186Zm0 0"/></clipPath><clipPath id="f"><path d="m186.402 361.746 181.77-165.242V7.652l-181.77 165.246Zm0 0"/></clipPath><clipPath id="g"><path d="m211.164 556.824 421.45-243.32-289.208-500.926-421.449 243.32Zm0 0"/></clipPath><clipPath id="i"><path d="M167 7h220v374H167Zm0 0"/></clipPath><clipPath id="j"><path d="M120.305 172.898h66.097v188.848h-66.097zm0 0"/></clipPath><clipPath id="k"><path d="m129.309 446.355 191.113-110.34L177.395 88.29l-191.11 110.34Zm0 0"/></clipPath><clipPath id="m"><path d="M120 7h249v166H120Zm0 0"/></clipPath><clipPath id="n"><path d="M120.305 172.898h66.097L368.172 7.652h-66.098zm0 0"/></clipPath><clipPath id="o"><path d="m154.074 366.652 374.594-216.27-194.27-336.487L-40.195 30.168Zm0 0"/></clipPath><clipPath id="q"><path d="M101 7h286v185H101Zm0 0"/></clipPath><linearGradient id="h" x1="0" x2="0" y1="15.636" y2="84.364" gradientTransform="matrix(4.21447 -2.43321 -2.89208 -5.00927 211.166 556.824)" gradientUnits="userSpaceOnUse"><stop offset="0" stop-color="#D9D9D9"/><stop offset=".125" stop-color="#D9D9D9"/><stop offset=".156" stop-color="#D9D9D9"/><stop offset=".172" stop-color="#DADADA"/><stop offset=".188" stop-color="#DADADA"/><stop offset=".203" stop-color="#DBDBDB"/><stop offset=".219" stop-color="#DBDBDB"/><stop offset=".234" stop-color="#DCDCDC"/><stop offset=".25" stop-color="#DCDCDC"/><stop offset=".266" stop-color="#DDD"/><stop offset=".281" stop-color="#DEDEDE"/><stop offset=".297" stop-color="#DEDEDE"/><stop offset=".313" stop-color="#DFDFDF"/><stop offset=".328" stop-color="#DFDFDF"/><stop offset=".344" stop-color="#E0E0E0"/><stop offset=".359" stop-color="#E0E0E0"/><stop offset=".375" stop-color="#E1E1E1"/><stop offset=".391" stop-color="#E1E1E1"/><stop offset=".406" stop-color="#E2E2E2"/><stop offset=".422" stop-color="#E2E2E2"/><stop offset=".438" stop-color="#E3E3E3"/><stop offset=".453" stop-color="#E4E4E4"/><stop offset=".469" stop-color="#E4E4E4"/><stop offset=".484" stop-color="#E5E5E5"/><stop offset=".5" stop-color="#E5E5E5"/><stop offset=".516" stop-color="#E6E6E6"/><stop offset=".531" stop-color="#E6E6E6"/><stop offset=".547" stop-color="#E7E7E7"/><stop offset=".563" stop-color="#E7E7E7"/><stop offset=".578" stop-color="#E8E8E8"/><stop offset=".594" stop-color="#E8E8E8"/><stop offset=".609" stop-color="#E9E9E9"/><stop offset=".625" stop-color="#EAEAEA"/><stop offset=".641" stop-color="#EAEAEA"/><stop offset=".656" stop-color="#EBEBEB"/><stop offset=".672" stop-color="#EBEBEB"/><stop offset=".688" stop-color="#ECECEC"/><stop offset=".703" stop-color="#ECECEC"/><stop offset=".719" stop-color="#EDEDED"/><stop offset=".734" stop-color="#EDEDED"/><stop offset=".75" stop-color="#EEE"/><stop offset=".766" stop-color="#EFEFEF"/><stop offset=".781" stop-color="#EFEFEF"/><stop offset=".797" stop-color="#F0F0F0"/><stop offset=".813" stop-color="#F0F0F0"/><stop offset=".828" stop-color="#F1F1F1"/><stop offset=".844" stop-color="#F1F1F1"/><stop offset=".875" stop-color="#F2F2F2"/><stop offset="1" stop-color="#F2F2F2"/></linearGradient><linearGradient id="l" x1="0" x2="0" y1="15.636" y2="84.364" gradientTransform="matrix(1.91113 -1.10338 -1.43024 -2.47727 129.308 446.355)" gradientUnits="userSpaceOnUse"><stop offset="0" stop-color="#D9D9D9"/><stop offset=".125" stop-color="#D9D9D9"/><stop offset=".156" stop-color="#D9D9D9"/><stop offset=".172" stop-color="#DADADA"/><stop offset=".188" stop-color="#DADADA"/><stop offset=".203" stop-color="#DBDBDB"/><stop offset=".219" stop-color="#DBDBDB"/><stop offset=".234" stop-color="#DCDCDC"/><stop offset=".25" stop-color="#DCDCDC"/><stop offset=".266" stop-color="#DDD"/><stop offset=".281" stop-color="#DEDEDE"/><stop offset=".297" stop-color="#DEDEDE"/><stop offset=".313" stop-color="#DFDFDF"/><stop offset=".328" stop-color="#DFDFDF"/><stop offset=".344" stop-color="#E0E0E0"/><stop offset=".359" stop-color="#E0E0E0"/><stop offset=".375" stop-color="#E1E1E1"/><stop offset=".391" stop-color="#E1E1E1"/><stop offset=".406" stop-color="#E2E2E2"/><stop offset=".422" stop-color="#E2E2E2"/><stop offset=".438" stop-color="#E3E3E3"/><stop offset=".453" stop-color="#E4E4E4"/><stop offset=".469" stop-color="#E4E4E4"/><stop offset=".484" stop-color="#E5E5E5"/><stop offset=".5" stop-color="#E5E5E5"/><stop offset=".516" stop-color="#E6E6E6"/><stop offset=".531" stop-color="#E6E6E6"/><stop offset=".547" stop-color="#E7E7E7"/><stop offset=".563" stop-color="#E7E7E7"/><stop offset=".578" stop-color="#E8E8E8"/><stop offset=".594" stop-color="#E8E8E8"/><stop offset=".609" stop-color="#E9E9E9"/><stop offset=".625" stop-color="#EAEAEA"/><stop offset=".641" stop-color="#EAEAEA"/><stop offset=".656" stop-color="#EBEBEB"/><stop offset=".672" stop-color="#EBEBEB"/><stop offset=".688" stop-color="#ECECEC"/><stop offset=".703" stop-color="#ECECEC"/><stop offset=".719" stop-color="#EDEDED"/><stop offset=".734" stop-color="#EDEDED"/><stop offset=".75" stop-color="#EEE"/><stop offset=".766" stop-color="#EFEFEF"/><stop offset=".781" stop-color="#EFEFEF"/><stop offset=".797" stop-color="#F0F0F0"/><stop offset=".813" stop-color="#F0F0F0"/><stop offset=".828" stop-color="#F1F1F1"/><stop offset=".844" stop-color="#F1F1F1"/><stop offset=".875" stop-color="#F2F2F2"/><stop offset="1" stop-color="#F2F2F2"/></linearGradient><linearGradient id="p" x1="0" x2="0" y1="15.636" y2="84.364" gradientTransform="matrix(3.74595 -2.16271 -1.9427 -3.36487 154.074 366.654)" gradientUnits="userSpaceOnUse"><stop offset="0" stop-color="#D9D9D9"/><stop offset=".125" stop-color="#D9D9D9"/><stop offset=".156" stop-color="#D9D9D9"/><stop offset=".172" stop-color="#DADADA"/><stop offset=".188" stop-color="#DADADA"/><stop offset=".203" stop-color="#DBDBDB"/><stop offset=".219" stop-color="#DBDBDB"/><stop offset=".234" stop-color="#DCDCDC"/><stop offset=".25" stop-color="#DCDCDC"/><stop offset=".266" stop-color="#DDD"/><stop offset=".281" stop-color="#DEDEDE"/><stop offset=".297" stop-color="#DEDEDE"/><stop offset=".313" stop-color="#DFDFDF"/><stop offset=".328" stop-color="#DFDFDF"/><stop offset=".344" stop-color="#E0E0E0"/><stop offset=".359" stop-color="#E0E0E0"/><stop offset=".375" stop-color="#E1E1E1"/><stop offset=".391" stop-color="#E1E1E1"/><stop offset=".406" stop-color="#E2E2E2"/><stop offset=".422" stop-color="#E2E2E2"/><stop offset=".438" stop-color="#E3E3E3"/><stop offset=".453" stop-color="#E4E4E4"/><stop offset=".469" stop-color="#E4E4E4"/><stop offset=".484" stop-color="#E5E5E5"/><stop offset=".5" stop-color="#E5E5E5"/><stop offset=".516" stop-color="#E6E6E6"/><stop offset=".531" stop-color="#E6E6E6"/><stop offset=".547" stop-color="#E7E7E7"/><stop offset=".563" stop-color="#E7E7E7"/><stop offset=".578" stop-color="#E8E8E8"/><stop offset=".594" stop-color="#E8E8E8"/><stop offset=".609" stop-color="#E9E9E9"/><stop offset=".625" stop-color="#EAEAEA"/><stop offset=".641" stop-color="#EAEAEA"/><stop offset=".656" stop-color="#EBEBEB"/><stop offset=".672" stop-color="#EBEBEB"/><stop offset=".688" stop-color="#ECECEC"/><stop offset=".703" stop-color="#ECECEC"/><stop offset=".719" stop-color="#EDEDED"/><stop offset=".734" stop-color="#EDEDED"/><stop offset=".75" stop-color="#EEE"/><stop offset=".766" stop-color="#EFEFEF"/><stop offset=".781" stop-color="#EFEFEF"/><stop offset=".797" stop-color="#F0F0F0"/><stop offset=".813" stop-color="#F0F0F0"/><stop offset=".828" stop-color="#F1F1F1"/><stop offset=".844" stop-color="#F1F1F1"/><stop offset=".875" stop-color="#F2F2F2"/><stop offset="1" stop-color="#F2F2F2"/></linearGradient></defs><g clip-path="url(#a)" transform="translate(-41.336 -7)"><path fill="none" stroke="#000" stroke-miterlimit="10" stroke-width="3.9839597199999996" d="M41.336 302.598h84.754"/></g><path d="M103.871 295.598c-5.664-1.059-14.867-4.246-21.242-7.965v15.93c6.375-3.715 15.578-6.903 21.242-7.965"/><g clip-path="url(#b)" transform="translate(-41.336 -7)"><path fill="none" stroke="#000" stroke-miterlimit="10" stroke-width="3.9839597199999996" d="M41.336 244.684h84.754"/></g><path d="M103.871 237.684c-5.664-1.063-14.867-4.246-21.242-7.965v15.93c6.375-3.715 15.578-6.903 21.242-7.965"/><g clip-path="url(#c)" transform="translate(-41.336 -7)"><path fill="none" stroke="#000" stroke-miterlimit="10" stroke-width="3.9839597199999996" d="M41.336 186.77h84.754"/></g><path d="M103.871 179.77c-5.664-1.063-14.867-4.247-21.242-7.965v15.93c6.375-3.72 15.578-6.903 21.242-7.965"/><path fill="none" stroke="#000" stroke-miterlimit="10" stroke-width="3.982" d="M43.988 255.61h84.754"/><path d="M147.86 255.61c-5.665-1.063-14.872-4.247-21.243-7.965v15.93c6.371-3.716 15.578-6.903 21.242-7.966"/><path fill="none" stroke="#000" stroke-miterlimit="10" stroke-width="3.982" d="M43.988 197.695h84.754"/><path d="M147.86 197.695c-5.665-1.062-14.872-4.246-21.243-7.965v15.93c6.371-3.719 15.578-6.902 21.242-7.965"/><path fill="none" stroke="#000" stroke-miterlimit="10" stroke-width="3.982" d="M43.988 139.781h84.754"/><path d="M147.86 139.781c-5.665-1.062-14.872-4.25-21.243-7.965v15.93c6.371-3.719 15.578-6.902 21.242-7.965"/><path fill="none" stroke="#000" stroke-miterlimit="10" stroke-width="3.982" d="M87.977 215.621h84.753"/><path d="M191.848 215.621c-5.664-1.062-14.871-4.246-21.243-7.965v15.93c6.372-3.719 15.579-6.902 21.243-7.965"/><path fill="none" stroke="#000" stroke-miterlimit="10" stroke-width="3.982" d="M87.977 157.707h84.753"/><path d="M191.848 157.707c-5.664-1.062-14.871-4.25-21.243-7.965v15.93c6.372-3.719 15.579-6.902 21.243-7.965"/><path fill="none" stroke="#000" stroke-miterlimit="10" stroke-width="3.982" d="M87.977 99.793h84.753"/><path d="M191.848 99.793c-5.664-1.063-14.871-4.25-21.243-7.965v15.93c6.372-3.719 15.579-6.906 21.243-7.965"/><path fill="none" stroke="#000" stroke-miterlimit="10" stroke-width="3.982" d="M131.965 175.633h84.754"/><path d="M235.836 175.633c-5.664-1.063-14.867-4.25-21.242-7.965v15.93c6.375-3.72 15.578-6.903 21.242-7.965"/><path fill="none" stroke="#000" stroke-miterlimit="10" stroke-width="3.982" d="M131.965 117.719h84.754"/><path d="M235.836 117.719c-5.664-1.063-14.867-4.25-21.242-7.965v15.93c6.375-3.72 15.578-6.907 21.242-7.965"/><path fill="none" stroke="#000" stroke-miterlimit="10" stroke-width="3.982" d="M131.965 59.8h84.754"/><path d="M235.836 59.8c-5.664-1.058-14.867-4.245-21.242-7.964v15.93c6.375-3.715 15.578-6.903 21.242-7.965"/><path fill="none" stroke="#000" stroke-miterlimit="10" stroke-width="2.655" d="M129.535 373.633H94.5"/><path d="M145.066 373.633c-4.601-.863-12.082-3.453-17.257-6.473v12.945c5.175-3.023 12.656-5.609 17.257-6.472M78.969 373.633c4.601.863 12.078 3.449 17.254 6.472V367.16c-5.176 3.02-12.653 5.61-17.254 6.473"/><use xlink:href="#d" x="145.09" y="406.76" transform="translate(-41.336 -7)"/><g clip-path="url(#e)" transform="translate(-41.336 -7)"><g clip-path="url(#f)"><g clip-path="url(#g)"><path fill="url(#h)" d="M231.844 440.457 33.074 96.176l289.653-167.23 198.77 344.28Zm0 0" style="fill:url(#h)"/></g></g></g><g clip-path="url(#i)" transform="translate(-41.336 -7)"><path fill="none" stroke="#000" stroke-miterlimit="10" stroke-width="1.32909693" d="m186.402 361.746 181.77-165.242V7.652l-181.77 165.246Zm0 0"/></g><g clip-path="url(#j)" transform="translate(-41.336 -7)"><g clip-path="url(#k)"><path fill="url(#l)" d="M136.828 390.367 38.531 220.11l131.348-75.832 98.297 170.258Zm0 0" style="fill:url(#l)"/></g></g><path fill="none" stroke="#000" stroke-miterlimit="10" stroke-width="1.327" d="M78.969 354.746h66.097V165.898H78.97Zm0 0"/><g clip-path="url(#m)" transform="translate(-41.336 -7)"><g clip-path="url(#n)"><g clip-path="url(#o)"><path fill="url(#p)" d="M182.27 280.227 48.75 48.965l257.453-148.64 133.52 231.26Zm0 0" style="fill:url(#p)"/></g></g></g><g clip-path="url(#q)" transform="translate(-41.336 -7)"><path fill="none" stroke="#000" stroke-miterlimit="10" stroke-width="1.32909693" d="M120.305 172.898h66.097L368.172 7.652h-66.098zm0 0"/></g><path fill="none" stroke="#000" stroke-miterlimit="10" stroke-width="3.982" d="M169.969 295.598h84.75"/><path d="M273.836 295.598c-5.664-1.059-14.867-4.246-21.238-7.965v15.93c6.37-3.715 15.574-6.903 21.238-7.965"/><path fill="none" stroke="#000" stroke-miterlimit="10" stroke-width="3.982" d="M169.969 237.684h84.75"/><path d="M273.836 237.684c-5.664-1.063-14.867-4.246-21.238-7.965v15.93c6.37-3.715 15.574-6.903 21.238-7.965"/><path fill="none" stroke="#000" stroke-miterlimit="10" stroke-width="3.982" d="M169.969 179.77h84.75"/><path d="M273.836 179.77c-5.664-1.063-14.867-4.247-21.238-7.965v15.93c6.37-3.72 15.574-6.903 21.238-7.965"/><path fill="none" stroke="#000" stroke-miterlimit="10" stroke-width="3.982" d="M213.957 255.61h84.75"/><path d="M317.824 255.61c-5.664-1.063-14.867-4.247-21.238-7.965v15.93c6.371-3.716 15.574-6.903 21.238-7.966"/><path fill="none" stroke="#000" stroke-miterlimit="10" stroke-width="3.982" d="M213.957 197.695h84.75"/><path d="M317.824 197.695c-5.664-1.062-14.867-4.246-21.238-7.965v15.93c6.371-3.719 15.574-6.902 21.238-7.965"/><path fill="none" stroke="#000" stroke-miterlimit="10" stroke-width="3.982" d="M213.957 139.781h84.75"/><path d="M317.824 139.781c-5.664-1.062-14.867-4.25-21.238-7.965v15.93c6.371-3.719 15.574-6.902 21.238-7.965"/><path fill="none" stroke="#000" stroke-miterlimit="10" stroke-width="3.982" d="M257.945 215.621h84.75"/><path d="M361.813 215.621c-5.665-1.062-14.868-4.246-21.243-7.965v15.93c6.375-3.719 15.578-6.902 21.243-7.965"/><path fill="none" stroke="#000" stroke-miterlimit="10" stroke-width="3.982" d="M257.945 157.707h84.75"/><path d="M361.813 157.707c-5.665-1.062-14.868-4.25-21.243-7.965v15.93c6.375-3.719 15.578-6.902 21.243-7.965"/><path fill="none" stroke="#000" stroke-miterlimit="10" stroke-width="3.982" d="M257.945 99.793h84.75"/><path d="M361.813 99.793c-5.665-1.063-14.868-4.25-21.243-7.965v15.93c6.375-3.719 15.578-6.906 21.243-7.965"/><path fill="none" stroke="#000" stroke-miterlimit="10" stroke-width="3.982" d="M301.934 175.633h84.75"/><path d="M405.8 175.633c-5.663-1.063-14.866-4.25-21.238-7.965v15.93c6.372-3.72 15.575-6.903 21.239-7.965"/><path fill="none" stroke="#000" stroke-miterlimit="10" stroke-width="3.982" d="M301.934 117.719h84.75"/><path d="M405.8 117.719c-5.663-1.063-14.866-4.25-21.238-7.965v15.93c6.372-3.72 15.575-6.907 21.239-7.965"/><path fill="none" stroke="#000" stroke-miterlimit="10" stroke-width="3.982" d="M301.934 59.8h84.75"/><path d="M405.8 59.8c-5.663-1.058-14.866-4.245-21.238-7.964v15.93c6.372-3.715 15.575-6.903 21.239-7.965"/><use xlink:href="#r" x="446.825" y="48.151" transform="translate(-41.336 -7)"/><use xlink:href="#r" x="137.629" y="42.035" transform="translate(-41.336 -7)"/><use xlink:href="#s" x="147.089" y="50.333" transform="translate(-41.336 -7)"/><g transform="translate(-41.336 -7)"><use xlink:href="#t" x="51.738" y="445.784"/><use xlink:href="#u" x="64.892" y="445.784"/><use xlink:href="#v" x="74.51" y="445.784"/><use xlink:href="#w" x="82.095" y="445.784"/><use xlink:href="#x" x="91.96" y="445.784"/><use xlink:href="#v" x="97.929" y="445.784"/><use xlink:href="#u" x="105.514" y="445.784"/><use xlink:href="#v" x="115.132" y="445.784"/></g><g transform="translate(-41.336 -7)"><use xlink:href="#u" x="126.499" y="445.784"/><use xlink:href="#y" x="136.118" y="445.784"/></g><g transform="translate(-41.336 -7)"><use xlink:href="#z" x="147.352" y="445.784"/><use xlink:href="#A" x="155.671" y="445.784"/><use xlink:href="#A" x="163.99" y="445.784"/><use xlink:href="#B" x="172.309" y="445.784"/><use xlink:href="#C" x="180.628" y="445.784"/><use xlink:href="#D" x="188.946" y="445.784"/><use xlink:href="#E" x="197.265" y="445.784"/><use xlink:href="#E" x="205.584" y="445.784"/><use xlink:href="#A" x="213.903" y="445.784"/><use xlink:href="#F" x="222.222" y="445.784"/><use xlink:href="#G" x="230.541" y="445.784"/><use xlink:href="#H" x="238.86" y="445.784"/><use xlink:href="#I" x="247.179" y="445.784"/><use xlink:href="#J" x="255.498" y="445.784"/><use xlink:href="#K" x="263.817" y="445.784"/><use xlink:href="#A" x="272.135" y="445.784"/><use xlink:href="#E" x="280.454" y="445.784"/><use xlink:href="#K" x="288.773" y="445.784"/><use xlink:href="#L" x="297.092" y="445.784"/><use xlink:href="#K" x="305.411" y="445.784"/><use xlink:href="#M" x="313.73" y="445.784"/><use xlink:href="#A" x="322.049" y="445.784"/><use xlink:href="#N" x="330.368" y="445.784"/><use xlink:href="#F" x="338.687" y="445.784"/><use xlink:href="#M" x="347.006" y="445.784"/><use xlink:href="#O" x="355.324" y="445.784"/><use xlink:href="#P" x="363.643" y="445.784"/><use xlink:href="#F" x="371.962" y="445.784"/><use xlink:href="#K" x="380.281" y="445.784"/><use xlink:href="#L" x="388.6" y="445.784"/><use xlink:href="#Q" x="396.919" y="445.784"/><use xlink:href="#O" x="405.238" y="445.784"/><use xlink:href="#C" x="413.557" y="445.784"/><use xlink:href="#L" x="421.876" y="445.784"/><use xlink:href="#R" x="430.195" y="445.784"/><use xlink:href="#S" x="438.513" y="445.784"/><use xlink:href="#E" x="446.832" y="445.784"/></g><use xlink:href="#T" x="455.152" y="445.784" transform="translate(-41.336 -7)"/><g transform="translate(-41.336 -7)"><use xlink:href="#U" x="569.071" y="144.082"/><use xlink:href="#V" x="576.825" y="144.082"/><use xlink:href="#W" x="588.865" y="144.082"/><use xlink:href="#X" x="596.026" y="144.082"/><use xlink:href="#V" x="604.92" y="144.082"/><use xlink:href="#Y" x="616.96" y="144.082"/><use xlink:href="#Z" x="624.326" y="144.082"/><use xlink:href="#aa" x="629.913" y="144.082"/><use xlink:href="#ab" x="641.452" y="144.082"/><use xlink:href="#aa" x="650.551" y="144.082"/></g><g transform="translate(-41.336 -7)"><use xlink:href="#Z" x="666.629" y="144.082"/><use xlink:href="#V" x="672.216" y="144.082"/><use xlink:href="#Z" x="684.257" y="144.082"/><use xlink:href="#ac" x="689.844" y="144.082"/><use xlink:href="#Z" x="699.125" y="144.082"/><use xlink:href="#ab" x="704.712" y="144.082"/><use xlink:href="#ad" x="713.811" y="144.082"/><use xlink:href="#ae" x="719.284" y="144.082"/></g><use xlink:href="#af" x="729.523" y="144.082" transform="translate(-41.336 -7)"/><use xlink:href="#ag" x="736.022" y="149.784" transform="translate(-41.336 -7)"/><g transform="translate(-41.336 -7)"><use xlink:href="#U" x="569.071" y="171.579"/><use xlink:href="#V" x="576.825" y="171.579"/><use xlink:href="#W" x="588.865" y="171.579"/><use xlink:href="#X" x="596.026" y="171.579"/><use xlink:href="#V" x="604.92" y="171.579"/><use xlink:href="#Y" x="616.96" y="171.579"/><use xlink:href="#Z" x="624.326" y="171.579"/><use xlink:href="#aa" x="629.913" y="171.579"/><use xlink:href="#ab" x="641.452" y="171.579"/><use xlink:href="#aa" x="650.551" y="171.579"/></g><g transform="translate(-41.336 -7)"><use xlink:href="#W" x="666.629" y="171.579"/><use xlink:href="#ah" x="673.789" y="171.579"/><use xlink:href="#ab" x="681.406" y="171.579"/><use xlink:href="#Y" x="690.505" y="171.579"/></g><g transform="translate(-41.336 -7)"><use xlink:href="#ab" x="702.432" y="171.579"/><use xlink:href="#W" x="711.531" y="171.579"/><use xlink:href="#ah" x="718.691" y="171.579"/><use xlink:href="#ab" x="726.308" y="171.579"/></g><use xlink:href="#ai" x="734.974" y="171.579" transform="translate(-41.336 -7)"/><g transform="translate(-41.336 -7)"><use xlink:href="#X" x="744.392" y="171.579"/><use xlink:href="#Y" x="753.286" y="171.579"/><use xlink:href="#ab" x="760.652" y="171.579"/><use xlink:href="#ah" x="769.751" y="171.579"/></g><g transform="translate(-41.336 -7)"><use xlink:href="#X" x="781.905" y="171.579"/><use xlink:href="#ad" x="790.799" y="171.579"/></g><g transform="translate(-41.336 -7)"><use xlink:href="#aj" x="800.833" y="171.579"/><use xlink:href="#X" x="818.575" y="171.579"/></g><g transform="translate(-41.336 -7)"><use xlink:href="#aa" x="827.264" y="171.579"/><use xlink:href="#Z" x="838.803" y="171.579"/><use xlink:href="#ak" x="844.39" y="171.579"/><use xlink:href="#ae" x="855.678" y="171.579"/></g><use xlink:href="#af" x="865.894" y="171.579" transform="translate(-41.336 -7)"/><g transform="translate(-41.336 -7)"><use xlink:href="#al" x="569.071" y="199.076"/><use xlink:href="#Y" x="581.933" y="199.076"/><use xlink:href="#am" x="589.299" y="199.076"/><use xlink:href="#X" x="601.134" y="199.076"/><use xlink:href="#Y" x="610.028" y="199.076"/><use xlink:href="#ak" x="617.394" y="199.076"/><use xlink:href="#ah" x="628.682" y="199.076"/></g><g transform="translate(-41.336 -7)"><use xlink:href="#aa" x="640.837" y="199.076"/><use xlink:href="#X" x="652.376" y="199.076"/><use xlink:href="#ad" x="661.27" y="199.076"/></g><g transform="translate(-41.336 -7)"><use xlink:href="#aj" x="671.304" y="199.076"/><use xlink:href="#X" x="689.045" y="199.076"/></g><g transform="translate(-41.336 -7)"><use xlink:href="#aa" x="697.734" y="199.076"/><use xlink:href="#Z" x="709.273" y="199.076"/><use xlink:href="#ak" x="714.86" y="199.076"/><use xlink:href="#ae" x="726.148" y="199.076"/></g><use xlink:href="#an" x="736.364" y="199.076" transform="translate(-41.336 -7)"/><g transform="translate(-41.336 -7)"><use xlink:href="#ao" x="569.071" y="226.573"/><use xlink:href="#X" x="579.675" y="226.573"/></g><g transform="translate(-41.336 -7)"><use xlink:href="#ac" x="593.107" y="226.573"/><use xlink:href="#ap" x="602.388" y="226.573"/><use xlink:href="#aj" x="614.406" y="226.573"/><use xlink:href="#am" x="632.148" y="226.573"/></g><g transform="translate(-41.336 -7)"><use xlink:href="#ad" x="643.664" y="226.573"/><use xlink:href="#X" x="649.138" y="226.573"/><use xlink:href="#ae" x="658.031" y="226.573"/></g><g transform="translate(-41.336 -7)"><use xlink:href="#af" x="756.057" y="255.113"/><use xlink:href="#aq" x="772.043" y="255.113"/></g><use xlink:href="#af" x="791.29" y="255.113" transform="translate(-41.336 -7)"/><use xlink:href="#ag" x="797.803" y="260.815" transform="translate(-41.336 -7)"/><use xlink:href="#X" x="806.107" y="255.113" transform="translate(-41.336 -7)"/><g transform="translate(-41.336 -7)"><use xlink:href="#ar" x="815" y="245.306"/><use xlink:href="#as" x="824.578" y="245.306"/><use xlink:href="#at" x="833.389" y="245.306"/></g><use xlink:href="#au" x="841.965" y="255.113" transform="translate(-41.336 -7)"/><g transform="translate(-41.336 -7)"><use xlink:href="#aa" x="569.071" y="302.268"/><use xlink:href="#ak" x="580.61" y="302.268"/><use xlink:href="#V" x="591.898" y="302.268"/><use xlink:href="#aa" x="603.939" y="302.268"/><use xlink:href="#X" x="615.478" y="302.268"/></g><use xlink:href="#av" x="628.458" y="302.268" transform="translate(-41.336 -7)"/><g transform="translate(-41.336 -7)"><use xlink:href="#X" x="645.042" y="302.268"/><use xlink:href="#Y" x="653.936" y="302.268"/></g><g transform="translate(-41.336 -7)"><use xlink:href="#X" x="665.384" y="302.268"/><use xlink:href="#ad" x="674.277" y="302.268"/></g><use xlink:href="#aw" x="683.832" y="302.268" transform="translate(-41.336 -7)"/><use xlink:href="#ax" x="697.743" y="302.268" transform="translate(-41.336 -7)"/><use xlink:href="#ay" x="712.931" y="302.268" transform="translate(-41.336 -7)"/><use xlink:href="#az" x="725.017" y="302.268" transform="translate(-41.336 -7)"/><use xlink:href="#aA" x="736.442" y="302.268" transform="translate(-41.336 -7)"/><use xlink:href="#aw" x="744.766" y="302.268" transform="translate(-41.336 -7)"/><use xlink:href="#aA" x="758.677" y="302.268" transform="translate(-41.336 -7)"/><use xlink:href="#ay" x="767" y="302.268" transform="translate(-41.336 -7)"/><use xlink:href="#aB" x="779.087" y="302.268" transform="translate(-41.336 -7)"/><use xlink:href="#aC" x="794.024" y="302.268" transform="translate(-41.336 -7)"/><use xlink:href="#ay" x="807.25" y="302.268" transform="translate(-41.336 -7)"/><use xlink:href="#aD" x="823.305" y="302.268" transform="translate(-41.336 -7)"/><use xlink:href="#ay" x="838.196" y="302.268" transform="translate(-41.336 -7)"/><use xlink:href="#aE" x="854.25" y="302.268" transform="translate(-41.336 -7)"/><use xlink:href="#aF" x="867.796" y="302.268" transform="translate(-41.336 -7)"/><use xlink:href="#aG" x="880.658" y="302.268" transform="translate(-41.336 -7)"/><use xlink:href="#ax" x="891.832" y="302.268" transform="translate(-41.336 -7)"/><use xlink:href="#aH" x="907.02" y="302.268" transform="translate(-41.336 -7)"/><use xlink:href="#aw" x="920.475" y="302.268" transform="translate(-41.336 -7)"/><use xlink:href="#aA" x="934.385" y="302.268" transform="translate(-41.336 -7)"/><use xlink:href="#aI" x="942.709" y="302.268" transform="translate(-41.336 -7)"/><g transform="translate(-41.336 -7)"><use xlink:href="#aB" x="957.897" y="302.268"/><use xlink:href="#aJ" x="971.694" y="302.268"/></g><g transform="translate(-41.336 -7)"><use xlink:href="#aK" x="981.021" y="302.268"/><use xlink:href="#ap" x="992.925" y="302.268"/><use xlink:href="#X" x="1004.943" y="302.268"/></g><g transform="translate(-41.336 -7)"><use xlink:href="#X" x="1017.918" y="302.268"/><use xlink:href="#Y" x="1026.812" y="302.268"/></g><use xlink:href="#ac" x="569.071" y="329.765" transform="translate(-41.336 -7)"/><g transform="translate(-41.336 -7)"><use xlink:href="#ab" x="578.01" y="329.765"/><use xlink:href="#ah" x="587.109" y="329.765"/><use xlink:href="#ab" x="594.726" y="329.765"/><use xlink:href="#ac" x="603.825" y="329.765"/><use xlink:href="#W" x="613.107" y="329.765"/><use xlink:href="#X" x="620.267" y="329.765"/><use xlink:href="#ah" x="629.161" y="329.765"/><use xlink:href="#aL" x="636.778" y="329.765"/><use xlink:href="#Y" x="642.365" y="329.765"/><use xlink:href="#W" x="649.731" y="329.765"/><use xlink:href="#Z" x="656.891" y="329.765"/><use xlink:href="#ac" x="662.478" y="329.765"/></g><use xlink:href="#ak" x="671.304" y="329.765" transform="translate(-41.336 -7)"/><g transform="translate(-41.336 -7)"><use xlink:href="#aa" x="687.13" y="329.765"/><use xlink:href="#X" x="698.669" y="329.765"/></g><use xlink:href="#ac" x="712.124" y="329.765" transform="translate(-41.336 -7)"/><g transform="translate(-41.336 -7)"><use xlink:href="#ab" x="721.086" y="329.765"/><use xlink:href="#aa" x="730.185" y="329.765"/><use xlink:href="#ab" x="741.724" y="329.765"/></g><g transform="translate(-41.336 -7)"><use xlink:href="#aj" x="755.361" y="329.765"/><use xlink:href="#X" x="773.103" y="329.765"/></g><g transform="translate(-41.336 -7)"><use xlink:href="#aa" x="781.791" y="329.765"/><use xlink:href="#Z" x="793.33" y="329.765"/><use xlink:href="#ak" x="798.918" y="329.765"/></g><use xlink:href="#aM" x="809.636" y="329.765" transform="translate(-41.336 -7)"/></svg>