<?xml version="1.0" encoding="UTF-8" standalone="no"?>
<svg
   xmlns:dc="http://purl.org/dc/elements/1.1/"
   xmlns:cc="http://creativecommons.org/ns#"
   xmlns:rdf="http://www.w3.org/1999/02/22-rdf-syntax-ns#"
   xmlns:svg="http://www.w3.org/2000/svg"
   xmlns="http://www.w3.org/2000/svg"
   xmlns:xlink="http://www.w3.org/1999/xlink"
   xmlns:sodipodi="http://sodipodi.sourceforge.net/DTD/sodipodi-0.dtd"
   xmlns:inkscape="http://www.inkscape.org/namespaces/inkscape"
   sodipodi:docname="combustion-metano.svg"
   inkscape:version="1.0.1 (c497b03c, 2020-09-10)"
   id="svg8"
   version="1.1"
   viewBox="0 0 700.55401 256.75379"
   height="256.75378mm"
   width="700.55402mm">
  <defs
     id="defs2">
    <marker
       inkscape:isstock="true"
       style="overflow:visible"
       id="Arrow2Lend"
       refX="0"
       refY="0"
       orient="auto"
       inkscape:stockid="Arrow2Lend">
      <path
         transform="matrix(-1.1,0,0,-1.1,-1.1,0)"
         d="M 8.7185878,4.0337352 -2.2072895,0.01601326 8.7185884,-4.0017078 c -1.7454984,2.3720609 -1.7354408,5.6174519 -6e-7,8.035443 z"
         style="fill:#000000;fill-opacity:1;fill-rule:evenodd;stroke:#000000;stroke-width:0.625;stroke-linejoin:round;stroke-opacity:1"
         id="path1352" />
    </marker>
    <marker
       inkscape:isstock="true"
       style="overflow:visible"
       id="Arrow1Mend"
       refX="0"
       refY="0"
       orient="auto"
       inkscape:stockid="Arrow1Mend">
      <path
         transform="matrix(-0.4,0,0,-0.4,-4,0)"
         style="fill:#000000;fill-opacity:1;fill-rule:evenodd;stroke:#000000;stroke-width:1pt;stroke-opacity:1"
         d="M 0,0 5,-5 -12.5,0 5,5 Z"
         id="path1340" />
    </marker>
    <marker
       inkscape:isstock="true"
       style="overflow:visible"
       id="Arrow1Lend"
       refX="0"
       refY="0"
       orient="auto"
       inkscape:stockid="Arrow1Lend">
      <path
         transform="matrix(-0.8,0,0,-0.8,-10,0)"
         style="fill:#000000;fill-opacity:1;fill-rule:evenodd;stroke:#000000;stroke-width:1pt;stroke-opacity:1"
         d="M 0,0 5,-5 -12.5,0 5,5 Z"
         id="path1334" />
    </marker>
    <marker
       inkscape:isstock="true"
       style="overflow:visible"
       id="Arrow1Lstart"
       refX="0"
       refY="0"
       orient="auto"
       inkscape:stockid="Arrow1Lstart">
      <path
         transform="matrix(0.8,0,0,0.8,10,0)"
         style="fill:#000000;fill-opacity:1;fill-rule:evenodd;stroke:#000000;stroke-width:1pt;stroke-opacity:1"
         d="M 0,0 5,-5 -12.5,0 5,5 Z"
         id="path1331" />
    </marker>
    <linearGradient
       id="linearGradient3791">
      <stop
         style="stop-color:#ff6969;stop-opacity:1;"
         offset="0"
         id="stop3793" />
      <stop
         id="stop3803"
         offset="0.118"
         style="stop-color:#ff1616;stop-opacity:1;" />
      <stop
         id="stop3801"
         offset="0.29500002"
         style="stop-color:#fb0d0d;stop-opacity:1;" />
      <stop
         id="stop3799"
         offset="0.55000001"
         style="stop-color:#d70b0b;stop-opacity:1;" />
      <stop
         style="stop-color:#b90b0b;stop-opacity:1;"
         offset="1"
         id="stop3795" />
    </linearGradient>
    <linearGradient
       id="linearGradient3766">
      <stop
         style="stop-color:#42fe42;stop-opacity:1;"
         offset="0"
         id="stop3768" />
      <stop
         id="stop3776"
         offset="0.23873562"
         style="stop-color:#2be52b;stop-opacity:1;" />
      <stop
         id="stop3774"
         offset="0.62885183"
         style="stop-color:#1fa91f;stop-opacity:1;" />
      <stop
         style="stop-color:#126312;stop-opacity:1;"
         offset="1"
         id="stop3770" />
    </linearGradient>
    <radialGradient
       inkscape:collect="always"
       xlink:href="#e-3"
       id="radialGradient3797"
       cx="-1445.0825"
       cy="561.53033"
       fx="-1445.0825"
       fy="561.53033"
       r="85.432541"
       gradientTransform="matrix(0.52016725,0,-1.0487536e-8,0.67050018,623.37841,-403.88101)"
       gradientUnits="userSpaceOnUse" />
    <radialGradient
       inkscape:collect="always"
       xlink:href="#e-3"
       id="radialGradient3797-7"
       cx="-1368.7273"
       cy="582.20306"
       fx="-1368.7273"
       fy="582.20306"
       r="85.432541"
       gradientTransform="matrix(0.52016725,0,-1.0487536e-8,0.67050018,623.37841,-403.88101)"
       gradientUnits="userSpaceOnUse" />
    <radialGradient
       r="85.432541"
       fy="561.53033"
       fx="-1445.0825"
       cy="561.53033"
       cx="-1445.0825"
       gradientTransform="matrix(1.3938608,2.1801786e-8,-2.8102818e-8,1.7967065,2090.3907,-912.55251)"
       gradientUnits="userSpaceOnUse"
       id="radialGradient3823"
       xlink:href="#linearGradient3791"
       inkscape:collect="always" />
    <radialGradient
       gradientUnits="userSpaceOnUse"
       gradientTransform="matrix(0.52017005,0,-1.0487593e-8,0.67050663,623.38262,-303.88429)"
       r="85.432541"
       fy="582.20306"
       fx="-1368.7273"
       cy="582.20306"
       cx="-1368.7273"
       id="radialGradient3797-7-2"
       xlink:href="#e-3"
       inkscape:collect="always" />
    <radialGradient
       gradientUnits="userSpaceOnUse"
       gradientTransform="matrix(0.52017005,0,-1.0487593e-8,0.67050663,623.38262,-303.88429)"
       r="85.432541"
       fy="561.53033"
       fx="-1445.0825"
       cy="561.53033"
       cx="-1445.0825"
       id="radialGradient3797-4"
       xlink:href="#e-3"
       inkscape:collect="always" />
    <linearGradient
       id="linearGradient2441">
      <stop
         style="stop-color:#595959;stop-opacity:1"
         offset="0"
         id="stop2447" />
      <stop
         style="stop-color:#4a4a4a;stop-opacity:1"
         offset="0.25"
         id="stop8434" />
      <stop
         style="stop-color:#212121;stop-opacity:1"
         offset="1"
         id="stop2445" />
    </linearGradient>
    <linearGradient
       id="linearGradient2423">
      <stop
         style="stop-color:#ff0000;stop-opacity:1"
         offset="0"
         id="stop2425" />
      <stop
         style="stop-color:#cf0000;stop-opacity:1"
         offset="0.37931034"
         id="stop8432" />
      <stop
         style="stop-color:#520000;stop-opacity:1"
         offset="1"
         id="stop2427" />
    </linearGradient>
    <radialGradient
       cx="9.3077345"
       cy="57.986698"
       r="189.76378"
       fx="9.3077345"
       fy="57.986698"
       id="radialGradient2435"
       xlink:href="#e-3"
       gradientUnits="userSpaceOnUse"
       gradientTransform="matrix(8.2273407e-4,0.19238089,-0.19977276,8.5445008e-4,214.90643,12.435897)" />
    <radialGradient
       cx="22.307739"
       cy="81.336586"
       r="189.76378"
       fx="22.307739"
       fy="81.336586"
       id="radialGradient5367"
       xlink:href="#e-3"
       gradientUnits="userSpaceOnUse"
       gradientTransform="matrix(-0.00234292,0.184195,-0.18444201,-0.00234597,168.80019,10.04488)" />
    <radialGradient
       cx="444.04724"
       cy="225.81889"
       r="309.31494"
       fx="444.04724"
       fy="225.81889"
       id="radialGradient8293"
       xlink:href="#XMLID_3_"
       gradientUnits="userSpaceOnUse"
       gradientTransform="matrix(-0.00102715,0.11847378,-0.11975283,-0.00103823,210.49158,-36.824863)" />
    <radialGradient
       id="d"
       cx="725.53003"
       cy="483.73001"
       r="343.22"
       gradientTransform="scale(0.54545)"
       gradientUnits="userSpaceOnUse">
      <stop
         stop-color="#fff"
         offset="0"
         id="stop295" />
      <stop
         stop-color="#FDFDFD"
         offset=".25"
         id="stop297" />
      <stop
         stop-color="#D9D9D9"
         offset=".5"
         id="stop299" />
      <stop
         stop-color="#B4B4B4"
         offset=".7"
         id="stop301" />
      <stop
         stop-color="#9C9C9C"
         offset=".8"
         id="stop303" />
      <stop
         stop-color="#7E7E7E"
         offset=".9"
         id="stop305" />
      <stop
         stop-color="#6C6C6C"
         offset=".95"
         id="stop307" />
      <stop
         stop-color="#5B5B5B"
         offset="1"
         id="stop309" />
    </radialGradient>
    <radialGradient
       id="e"
       cx="736.25"
       cy="411.34"
       r="319.81"
       gradientTransform="matrix(0.72295,0,0,-0.66758,-278.5,449.38)"
       gradientUnits="userSpaceOnUse">
      <stop
         stop-color="#FF1212"
         offset="0"
         id="stop312" />
      <stop
         stop-color="#E40202"
         offset=".25"
         id="stop314" />
      <stop
         stop-color="#C40000"
         offset=".5"
         id="stop316" />
      <stop
         stop-color="#A00000"
         offset=".7"
         id="stop318" />
      <stop
         stop-color="#870000"
         offset=".8034"
         id="stop320" />
      <stop
         stop-color="#650000"
         offset=".9045"
         id="stop322" />
      <stop
         stop-color="#4F0000"
         offset=".95"
         id="stop324" />
      <stop
         stop-color="#3F0000"
         offset="1"
         id="stop326" />
    </radialGradient>
    <radialGradient
       id="f"
       cx="272.53"
       cy="489.91"
       r="382.12"
       gradientTransform="scale(0.54545)"
       gradientUnits="userSpaceOnUse">
      <stop
         stop-color="#fff"
         offset="0"
         id="stop329" />
      <stop
         stop-color="#FDFDFD"
         offset=".25"
         id="stop331" />
      <stop
         stop-color="#D9D9D9"
         offset=".5"
         id="stop333" />
      <stop
         stop-color="#B4B4B4"
         offset=".7"
         id="stop335" />
      <stop
         stop-color="#9C9C9C"
         offset=".8"
         id="stop337" />
      <stop
         stop-color="#7E7E7E"
         offset=".9"
         id="stop339" />
      <stop
         stop-color="#6C6C6C"
         offset=".95"
         id="stop341" />
      <stop
         stop-color="#5B5B5B"
         offset="1"
         id="stop343" />
    </radialGradient>
    <radialGradient
       gradientUnits="userSpaceOnUse"
       gradientTransform="matrix(0.09090834,0,0,0.09090834,293.27367,-63.445)"
       r="343.22"
       cy="483.73001"
       cx="725.53003"
       id="d-0">
      <stop
         id="stop295-5"
         offset="0"
         stop-color="#fff" />
      <stop
         id="stop297-6"
         offset=".25"
         stop-color="#FDFDFD" />
      <stop
         id="stop299-7"
         offset=".5"
         stop-color="#D9D9D9" />
      <stop
         id="stop301-8"
         offset=".7"
         stop-color="#B4B4B4" />
      <stop
         id="stop303-0"
         offset=".8"
         stop-color="#9C9C9C" />
      <stop
         id="stop305-6"
         offset=".9"
         stop-color="#7E7E7E" />
      <stop
         id="stop307-5"
         offset=".95"
         stop-color="#6C6C6C" />
      <stop
         id="stop309-7"
         offset="1"
         stop-color="#5B5B5B" />
    </radialGradient>
    <radialGradient
       gradientUnits="userSpaceOnUse"
       gradientTransform="matrix(0.12049167,0,0,-0.11126334,246.857,11.451668)"
       r="319.81"
       cy="411.34"
       cx="736.25"
       id="e-3">
      <stop
         id="stop312-4"
         offset="0"
         stop-color="#FF1212" />
      <stop
         id="stop314-3"
         offset=".25"
         stop-color="#E40202" />
      <stop
         id="stop316-0"
         offset=".5"
         stop-color="#C40000" />
      <stop
         id="stop318-4"
         offset=".7"
         stop-color="#A00000" />
      <stop
         id="stop320-8"
         offset=".8034"
         stop-color="#870000" />
      <stop
         id="stop322-7"
         offset=".9045"
         stop-color="#650000" />
      <stop
         id="stop324-5"
         offset=".95"
         stop-color="#4F0000" />
      <stop
         id="stop326-9"
         offset="1"
         stop-color="#3F0000" />
    </radialGradient>
    <radialGradient
       gradientUnits="userSpaceOnUse"
       gradientTransform="matrix(0.09090834,0,0,0.09090834,293.27367,-63.445)"
       r="382.12"
       cy="489.91"
       cx="272.53"
       id="f-5">
      <stop
         id="stop329-3"
         offset="0"
         stop-color="#fff" />
      <stop
         id="stop331-2"
         offset=".25"
         stop-color="#FDFDFD" />
      <stop
         id="stop333-7"
         offset=".5"
         stop-color="#D9D9D9" />
      <stop
         id="stop335-3"
         offset=".7"
         stop-color="#B4B4B4" />
      <stop
         id="stop337-9"
         offset=".8"
         stop-color="#9C9C9C" />
      <stop
         id="stop339-7"
         offset=".9"
         stop-color="#7E7E7E" />
      <stop
         id="stop341-7"
         offset=".95"
         stop-color="#6C6C6C" />
      <stop
         id="stop343-9"
         offset="1"
         stop-color="#5B5B5B" />
    </radialGradient>
    <marker
       inkscape:stockid="Arrow2Lend"
       orient="auto"
       refY="0"
       refX="0"
       id="Arrow2Lend-0"
       style="overflow:visible"
       inkscape:isstock="true">
      <path
         id="path1352-1"
         style="fill:#000000;fill-opacity:1;fill-rule:evenodd;stroke:#000000;stroke-width:0.625;stroke-linejoin:round;stroke-opacity:1"
         d="M 8.7185878,4.0337352 -2.2072895,0.01601326 8.7185884,-4.0017078 c -1.7454984,2.3720609 -1.7354408,5.6174519 -6e-7,8.035443 z"
         transform="matrix(-1.1,0,0,-1.1,-1.1,0)" />
    </marker>
    <radialGradient
       id="XMLID_1_"
       gradientUnits="userSpaceOnUse"
       cy="379.98001"
       cx="584.96997"
       r="424.32999"
       gradientTransform="matrix(0.09910803,0,0,0.09910803,-307.277,-25)"
       fx="584.96997"
       fy="379.98001"
       fr="0"
       spreadMethod="pad">
      <stop
         stop-color="#fff"
         offset="0"
         id="stop10" />
      <stop
         stop-color="#F4F4F4"
         offset=".25"
         id="stop12" />
      <stop
         stop-color="#B6B6B6"
         offset=".5"
         id="stop14" />
      <stop
         stop-color="#8F8F8F"
         offset=".7"
         id="stop16" />
      <stop
         stop-color="#797979"
         offset=".8"
         id="stop18" />
      <stop
         stop-color="#636363"
         offset=".9"
         id="stop20" />
      <stop
         stop-color="#505050"
         offset="1"
         id="stop22" />
    </radialGradient>
    <radialGradient
       id="XMLID_2_"
       gradientUnits="userSpaceOnUse"
       cy="466.98001"
       cx="136.49001"
       r="365.48001"
       gradientTransform="matrix(0.09910803,0,0,0.09910803,-307.277,-25)"
       xlink:href="#f-5">
      <stop
         stop-color="#fff"
         offset="0"
         id="stop27" />
      <stop
         stop-color="#F4F4F4"
         offset=".25"
         id="stop29" />
      <stop
         stop-color="#B6B6B6"
         offset=".5"
         id="stop31" />
      <stop
         stop-color="#8F8F8F"
         offset=".7"
         id="stop33" />
      <stop
         stop-color="#797979"
         offset=".8"
         id="stop35" />
      <stop
         stop-color="#636363"
         offset=".9"
         id="stop37" />
      <stop
         stop-color="#505050"
         offset="1"
         id="stop39" />
    </radialGradient>
    <radialGradient
       id="XMLID_3_"
       gradientUnits="userSpaceOnUse"
       cy="541.75"
       cx="755.95001"
       gradientTransform="matrix(0.10177404,-0.0781665,-0.07627354,-0.10327057,-305.57809,133.04758)"
       r="355.26999"
       fx="755.95001"
       fy="541.75"
       fr="0"
       spreadMethod="pad">
      <stop
         stop-color="#454545"
         offset="0"
         id="stop46" />
      <stop
         stop-color="#2D2D2D"
         offset=".25"
         id="stop48" />
      <stop
         stop-color="#232323"
         offset=".5"
         id="stop50" />
      <stop
         stop-color="#1B1B1B"
         offset=".7"
         id="stop52" />
      <stop
         stop-color="#151515"
         offset=".85"
         id="stop54" />
      <stop
         stop-color="#0F0F0F"
         offset="1"
         id="stop56" />
    </radialGradient>
    <radialGradient
       id="XMLID_4_"
       gradientUnits="userSpaceOnUse"
       cy="607.96997"
       cx="422.98001"
       r="403.82999"
       gradientTransform="matrix(0.09910803,0,0,0.09910803,-307.277,-25)"
       fx="422.98001"
       fy="607.96997"
       fr="0"
       spreadMethod="pad">
      <stop
         stop-color="#fff"
         offset="0"
         id="stop61" />
      <stop
         stop-color="#F4F4F4"
         offset=".25"
         id="stop63" />
      <stop
         stop-color="#B6B6B6"
         offset=".5"
         id="stop65" />
      <stop
         stop-color="#8F8F8F"
         offset=".7"
         id="stop67" />
      <stop
         stop-color="#797979"
         offset=".8"
         id="stop69" />
      <stop
         stop-color="#636363"
         offset=".9"
         id="stop71" />
      <stop
         stop-color="#505050"
         offset="1"
         id="stop73" />
    </radialGradient>
    <radialGradient
       id="XMLID_5_"
       gradientUnits="userSpaceOnUse"
       cy="147.49001"
       cx="352.48001"
       r="386.51999"
       gradientTransform="matrix(0.09910803,0,0,0.09910803,-307.277,-25)"
       xlink:href="#XMLID_4_">
      <stop
         stop-color="#fff"
         offset="0"
         id="stop78" />
      <stop
         stop-color="#F4F4F4"
         offset=".25"
         id="stop80" />
      <stop
         stop-color="#B6B6B6"
         offset=".5"
         id="stop82" />
      <stop
         stop-color="#8F8F8F"
         offset=".7"
         id="stop84" />
      <stop
         stop-color="#797979"
         offset=".8"
         id="stop86" />
      <stop
         stop-color="#636363"
         offset=".9"
         id="stop88" />
      <stop
         stop-color="#505050"
         offset="1"
         id="stop90" />
    </radialGradient>
    <radialGradient
       inkscape:collect="always"
       xlink:href="#f-5"
       id="radialGradient1248"
       gradientUnits="userSpaceOnUse"
       gradientTransform="matrix(0.09910803,0,0,0.09910803,-307.277,-25)"
       cx="422.98001"
       cy="607.96997"
       fx="422.98001"
       fy="607.96997"
       r="403.82999"
       fr="0"
       spreadMethod="pad" />
    <radialGradient
       inkscape:collect="always"
       xlink:href="#f-5"
       id="radialGradient1256"
       cx="-276.66849"
       cy="36.780972"
       fx="-276.66849"
       fy="36.780972"
       r="25.520315"
       gradientUnits="userSpaceOnUse" />
    <radialGradient
       inkscape:collect="always"
       xlink:href="#f-5"
       id="radialGradient1264"
       cx="-237.81813"
       cy="32.618435"
       fx="-237.81813"
       fy="32.618435"
       r="25.520321"
       gradientUnits="userSpaceOnUse" />
    <radialGradient
       inkscape:collect="always"
       xlink:href="#f-5"
       id="radialGradient1272"
       cx="-255.05028"
       cy="-0.84762597"
       fx="-255.05028"
       fy="-0.84762597"
       r="27.253723"
       gradientTransform="matrix(1,0,0,0.6952813,0,-0.25828748)"
       gradientUnits="userSpaceOnUse" />
    <radialGradient
       spreadMethod="pad"
       fr="0"
       r="355.26999"
       fy="541.75"
       fx="755.95001"
       cy="541.75"
       cx="755.95001"
       gradientTransform="matrix(0.10177404,-0.0781665,-0.07627354,-0.10327057,-305.57809,133.04758)"
       gradientUnits="userSpaceOnUse"
       id="radialGradient1047"
       xlink:href="#XMLID_3_"
       inkscape:collect="always" />
    <radialGradient
       r="319.81"
       cy="411.34"
       cx="736.25"
       gradientTransform="matrix(0.12049167,0,0,-0.11126334,246.857,11.451668)"
       gradientUnits="userSpaceOnUse"
       id="radialGradient1049"
       xlink:href="#e-3"
       inkscape:collect="always" />
    <radialGradient
       r="382.12"
       cy="489.91"
       cx="272.53"
       gradientTransform="matrix(0.09090834,0,0,0.09090834,293.27367,-63.445)"
       gradientUnits="userSpaceOnUse"
       id="radialGradient1051"
       xlink:href="#f-5"
       inkscape:collect="always" />
  </defs>
  <sodipodi:namedview
     inkscape:window-maximized="0"
     inkscape:window-y="25"
     inkscape:window-x="0"
     inkscape:window-height="769"
     inkscape:window-width="1440"
     fit-margin-bottom="10"
     fit-margin-right="0"
     fit-margin-left="0"
     fit-margin-top="10"
     inkscape:snap-grids="true"
     showgrid="true"
     inkscape:document-rotation="0"
     inkscape:current-layer="layer1"
     inkscape:document-units="mm"
     inkscape:cy="611.87312"
     inkscape:cx="1535.6476"
     inkscape:zoom="0.35"
     inkscape:pageshadow="2"
     inkscape:pageopacity="0.0"
     borderopacity="1.0"
     bordercolor="#666666"
     pagecolor="#ffffff"
     id="base">
    <inkscape:grid
       originy="73.445002"
       originx="307.27701"
       id="grid504"
       type="xygrid" />
  </sodipodi:namedview>
  <metadata
     id="metadata5">
    <rdf:RDF>
      <cc:Work
         rdf:about="">
        <dc:format>image/svg+xml</dc:format>
        <dc:type
           rdf:resource="http://purl.org/dc/dcmitype/StillImage" />
        <dc:title />
      </cc:Work>
    </rdf:RDF>
  </metadata>
  <g
     transform="translate(307.277,73.445)"
     id="layer1"
     inkscape:groupmode="layer"
     inkscape:label="Capa 1">
    <path
       style="fill:url(#radialGradient1264);fill-opacity:1;stroke-width:0.099108"
       fill="url(#XMLID_1_)"
       d="m -212.29781,32.618435 c 0,-14.094153 -11.42617,-25.5203173 -25.52032,-25.5203173 -14.09415,0 -25.52032,11.4261643 -25.52032,25.5203173 0,14.094153 11.42617,25.520318 25.52032,25.520318 14.09415,0 25.52032,-11.426165 25.52032,-25.520318 z"
       id="path25" />
    <path
       style="fill:url(#radialGradient1256);fill-opacity:1;stroke-width:0.099108"
       fill="url(#XMLID_2_)"
       d="m -251.14816,36.780973 c 0,-14.094153 -11.42616,-25.520318 -25.52032,-25.520318 -14.09415,0 -25.52031,11.426165 -25.52031,25.520318 0,14.094153 11.42616,25.520317 25.52031,25.520317 14.09416,0 25.52032,-11.426164 25.52032,-25.520317 z"
       id="path42" />
    <path
       fill="none"
       d="m -207.277,84.018833 h -100 V -25 h 100 z"
       id="path44"
       style="stroke-width:0.099108" />
    <path
       style="display:inline;fill:url(#radialGradient1047);fill-opacity:1;stroke-width:0.099108"
       fill="url(#XMLID_3_)"
       d="m -225.01932,10.181368 c 12.28048,16.785928 9.15471,40.207137 -6.98057,52.312192 -16.13578,12.106046 -39.17047,8.311298 -51.45094,-8.474529 -12.28048,-16.785828 -9.15471,-40.207137 6.98067,-52.3121919 16.13578,-12.1060461 39.17146,-8.3111994 51.45094,8.4747279 z"
       id="path59" />
    <path
       style="fill:url(#radialGradient1248);fill-opacity:1;stroke-width:0.099108"
       fill="url(#XMLID_4_)"
       d="m -275.63874,57.694749 c -0.5112,-2.113974 -0.47988,-4.27552 0.10981,-6.444103 1.53617,-5.649158 4.8998,-8.733102 8.12418,-11.598613 4.06611,-3.614073 11.54906,-7.380178 20.46878,-8.519921 4.18593,-0.534886 19.97324,-0.939643 24.21606,9.091378 1.41437,3.343707 2.19633,7.019921 2.19633,10.879089 0,15.435084 -12.51338,27.948464 -27.94846,27.948464 -13.16452,0 -24.20318,-9.104064 -27.16651,-21.358772 z"
       id="path76" />
    <path
       style="fill:url(#radialGradient1272);fill-opacity:1;stroke-width:0.099108"
       fill="url(#XMLID_5_)"
       d="m -234.45936,14.345888 c 2.6341,-1.112686 6.50248,-3.845193 6.567,-5.3697723 0.0227,-0.5384539 0.0966,-1.0285431 0.0958,-1.5695738 -0.0248,-15.0237863 -12.27949,-27.2031719 -27.30327,-27.2031719 -15.02478,0 -27.20417,12.1793856 -27.20417,27.2041629 0,0.6908821 0.10545,1.7045591 0.15015,2.3119922 0.21546,2.9295339 8.04044,6.0134789 9.40783,6.3933599 5.06056,1.405946 9.38008,2.021705 17.83152,1.987116 8.06045,-0.0337 15.5669,-1.688801 20.4549,-3.754212 z"
       id="path93" />
    <path
       sodipodi:nodetypes="sscccs"
       inkscape:connector-curvature="0"
       id="path3000-1"
       d="m -67.039604,-42.169872 c 14.424738,15.300153 13.624929,39.4848506 -1.788897,54.016676 -15.413826,14.531836 -39.603829,13.906963 -54.028609,-1.393197 -0.51044,-0.5414359 -1.0051,-1.0894849 -1.47751,-1.6522373 -0.0387,-11.2141243 16.04607,-53.8979877 30.882547,-62.7829997 8.954823,0.784994 19.782809,4.779805 26.412469,11.811758 z"
       style="color:#000000;display:inline;overflow:visible;visibility:visible;fill:url(#radialGradient3797-7);fill-opacity:1;fill-rule:nonzero;stroke:none;stroke-width:1.49273;marker:none;enable-background:accumulate" />
    <path
       sodipodi:nodetypes="sssccs"
       inkscape:connector-curvature="0"
       id="path3000"
       d="m -118.64654,-63.332 c -21.02787,0 -38.07646,17.172292 -38.07646,38.356207 0,21.1839148 16.50669,39.133711 37.53456,39.133711 0.74413,0 1.34085,1.091455 2.07442,1.049043 8.18614,-7.664591 27.381776,-52.039332 23.669112,-68.929501 -6.714032,-5.977159 -15.537242,-9.60946 -25.201632,-9.60946 z"
       style="color:#000000;display:inline;overflow:visible;visibility:visible;fill:url(#radialGradient3797);fill-opacity:1;fill-rule:nonzero;stroke:none;stroke-width:1.49273;marker:none;enable-background:accumulate" />
    <path
       style="color:#000000;display:inline;overflow:visible;visibility:visible;fill:url(#radialGradient3797-7-2);fill-opacity:1;fill-rule:nonzero;stroke:none;stroke-width:1.49275;marker:none;enable-background:accumulate"
       d="m -67.039114,57.830332 c 14.424816,15.3003 13.625002,39.48523 -1.788907,54.017198 -15.413909,14.53197 -39.604049,13.90709 -54.028899,-1.39321 -0.51044,-0.54144 -1.0051,-1.0895 -1.47752,-1.65226 -0.0387,-11.214229 16.04616,-53.898503 30.882715,-62.7836 8.954871,0.785001 19.782915,4.779851 26.412611,11.811872 z"
       id="path3000-1-5"
       inkscape:connector-curvature="0"
       sodipodi:nodetypes="sscccs" />
    <path
       style="color:#000000;display:inline;overflow:visible;visibility:visible;fill:url(#radialGradient3797-4);fill-opacity:1;fill-rule:nonzero;stroke:none;stroke-width:1.49275;marker:none;enable-background:accumulate"
       d="m -118.64633,36.667999 c -21.02798,0 -38.07667,17.172458 -38.07667,38.356576 0,21.184119 16.50679,39.134085 37.53477,39.134085 0.74413,0 1.34085,1.09147 2.07443,1.04906 8.18618,-7.66467 27.381923,-52.039836 23.66924,-68.930168 -6.71407,-5.977216 -15.53732,-9.609553 -25.20177,-9.609553 z"
       id="path3000-8"
       inkscape:connector-curvature="0"
       sodipodi:nodetypes="sssccs" />
    <path
       id="path2433"
       style="color:#000000;display:inline;overflow:visible;visibility:visible;fill:url(#radialGradient2435);fill-opacity:1;fill-rule:nonzero;stroke:none;stroke-width:0.145107;stroke-linecap:butt;stroke-linejoin:miter;stroke-miterlimit:4;stroke-dasharray:none;stroke-dashoffset:0;stroke-opacity:1;marker:none;marker-start:none;marker-mid:none;marker-end:none;enable-background:accumulate"
       d="m 243.27655,30.758904 a 27.536024,27.536024 0 1 1 -55.07204,0 27.536024,27.536024 0 1 1 55.07204,0 z" />
    <path
       id="path2437"
       style="color:#000000;display:inline;overflow:visible;visibility:visible;fill:url(#radialGradient8293);fill-opacity:1;fill-rule:nonzero;stroke:none;stroke-width:0.102188;stroke-linecap:butt;stroke-linejoin:miter;stroke-miterlimit:4;stroke-dashoffset:0;stroke-opacity:1;marker:none;marker-start:none;marker-mid:none;marker-end:none;enable-background:accumulate"
       d="m 194.04685,-2.0985845 c -17.44776,0 -31.60801,14.1602455 -31.60801,31.6080005 0,17.447756 14.16025,31.608 31.60801,31.608001 5.35222,0 10.39435,-1.334008 14.81405,-3.685151 -2.8573,-1.915325 -4.49601,-13.813475 -3.70112,-27.804695 0.80195,-14.115373 3.7948,-25.3409628 6.8434,-26.1281736 -5.10096,-3.52968884 -11.28811,-5.5979819 -17.95633,-5.5979819 z" />
    <path
       id="path2419"
       style="color:#000000;display:inline;overflow:visible;visibility:visible;fill:url(#radialGradient5367);fill-opacity:1;fill-rule:nonzero;stroke:none;stroke-width:0.102188;stroke-linecap:butt;stroke-linejoin:miter;stroke-miterlimit:4;stroke-dasharray:none;stroke-dashoffset:0;stroke-opacity:1;marker:none;marker-start:none;marker-mid:none;marker-end:none;enable-background:accumulate"
       d="m 170.80926,0.38989997 c -15.19989,0 -27.53326,12.33656703 -27.53326,27.53645103 0,15.199885 12.33338,27.533254 27.53326,27.533258 1.58109,0 3.13151,-0.133295 4.63997,-0.389592 -2.35918,-2.767681 -3.53024,-14.206724 -2.64731,-27.504517 0.8998,-13.551631 3.62562,-24.4050589 6.33885,-25.8886709 -2.62833,-0.83413681 -5.42821,-1.28692903 -8.33151,-1.28692913 z" />
    <g
       transform="matrix(0.16666667,0,0,0.16666667,293.27367,36.555)"
       stroke-width="0.54545"
       id="g356">
      <path
         d="M 600.02,515.45 H 0.02 V 0 h 600 z"
         fill="none"
         id="path348" />
      <path
         style="fill:url(#d)"
         d="m 249.2,305.92 c 0,-89.693 72.711,-162.4 162.4,-162.4 89.693,0 162.4,72.711 162.4,162.4 0,89.693 -72.71,162.4 -162.4,162.4 -89.692,0 -162.4,-72.711 -162.4,-162.4 z"
         fill="url(#d)"
         id="path350" />
      <path
         style="fill:url(#e)"
         d="m 296.2,32.45 c 55.215,0 105.2,22.381 141.39,58.564 19.732,19.733 35.36,40.857 45.491,67.409 1.7553,4.6004 2.8189,11.625 2.9444,19.316 -0.42709,17.945 -10.965,45.266 -18.37,60.317 -21.715,44.333 -35.224,67.676 -64.691,105.86 -11.264,14.595 -29.679,38.222 -47.128,54.524 -21.994,20.546 -42.456,32.385 -45.134,32.638 -4.5813,0.834 -9.4053,1.2774 -14.499,1.2774 -55.215,0 -105.2,-22.381 -141.39,-58.564 -36.184,-36.183 -58.565,-86.172 -58.565,-141.39 0,-55.215 22.381,-105.2 58.565,-141.39 36.184,-36.185 86.173,-58.565 141.39,-58.565"
         fill="url(#e)"
         id="path352" />
      <path
         style="fill:url(#f)"
         d="m 321.5,424.2 c 1.8999,-10.168 -11.672,-28.489 -19.814,-40.93 -24.838,-30.274 -49.161,-64.541 -78.715,-94.095 -29.553,-29.553 -59.798,-59.313 -80.43,-75.188 -13.26,-11.302 -33.406,-26.095 -39.912,-23.059 -3.8477,1.7951 -15.628,9.5984 -25.443,19.413 -29.554,29.553 -47.832,70.38 -47.832,115.48 0,45.098 18.279,85.923 47.832,115.48 29.553,29.553 70.38,47.831 115.48,47.831 45.096,0 84.014,-20.32 115.48,-47.831 5.7742,-5.0493 12.999,-15.275 13.361,-17.095 z"
         fill="url(#f)"
         id="path354" />
    </g>
    <path
       style="stroke-width:0.0909083"
       d="M 393.27701,22.463335 H 293.277 V -63.445 h 100.00001 z"
       fill="none"
       id="path348-3" />
    <path
       style="fill:url(#d-0);stroke-width:0.0909083"
       d="m 334.807,-12.458332 c 0,-14.948834 12.1185,-27.066668 27.06667,-27.066668 14.94884,0 27.06667,12.118501 27.06667,27.066668 0,14.9488333 -12.11833,27.066667 -27.06667,27.066667 -14.94867,0 -27.06667,-12.1185003 -27.06667,-27.066667 z"
       fill="url(#d)"
       id="path350-3" />
    <path
       style="fill:url(#radialGradient1049);stroke-width:0.0909083"
       d="m 342.64034,-58.036667 c 9.2025,0 17.53333,3.730167 23.565,9.760667 3.28866,3.288834 5.89333,6.8095 7.58183,11.234834 0.29255,0.766733 0.46982,1.9375 0.49073,3.219333 -0.0712,2.990834 -1.8275,7.544334 -3.06166,10.052834 -3.61917,7.388833 -5.87067,11.279333 -10.78184,17.6433335 -1.87733,2.4325 -4.9465,6.37033344 -7.85466,9.0873335 -3.66567,3.4243334 -7.076,5.3975001 -7.52234,5.4396668 -0.76355,0.139 -1.56755,0.2129 -2.4165,0.2129 -9.2025,0 -17.53333,-3.7301668 -23.565,-9.7606669 -6.03066,-6.0305001 -9.76083,-14.3619999 -9.76083,-23.5650009 0,-9.2025 3.73017,-17.533333 9.76083,-23.565 6.03067,-6.030833 14.36217,-9.760834 23.565,-9.760834"
       fill="url(#e)"
       id="path352-3" />
    <path
       style="fill:url(#radialGradient1051);stroke-width:0.0909083"
       d="M 346.857,7.2550014 C 347.17365,5.5603347 344.91167,2.5068347 343.55467,0.43333461 339.415,-4.6123322 335.36117,-10.323499 330.4355,-15.249166 c -4.9255,-4.9255 -9.96633,-9.8855 -13.405,-12.531333 -2.21,-1.883667 -5.56766,-4.349167 -6.652,-3.843167 -0.64128,0.299183 -2.60466,1.599733 -4.2405,3.2355 -4.92566,4.9255 -7.972,11.73 -7.972,19.2466671 0,7.5163335 3.0465,14.3205003 7.972,19.2466669 4.9255,4.9255 11.73,7.971834 19.24667,7.971834 7.516,0 14.00233,-3.386667 19.24667,-7.971834 0.96236,-0.8415499 2.1665,-2.5458332 2.22683,-2.8491666 z"
       fill="url(#f)"
       id="path354-8" />
    <path
       id="path1631"
       d="M -5.184183,29.527032 H 90.065815"
       style="fill:none;stroke:#000000;stroke-width:1;stroke-linecap:butt;stroke-linejoin:miter;stroke-miterlimit:4;stroke-dasharray:none;stroke-opacity:1;marker-end:url(#Arrow2Lend)" />
    <text
       id="text1755"
       y="37.535824"
       x="-191.88333"
       style="font-style:normal;font-weight:normal;font-size:10.5833px;line-height:1.25;font-family:sans-serif;fill:#000000;fill-opacity:1;stroke:none;stroke-width:0.264583"
       xml:space="preserve"><tspan
         style="font-style:normal;font-variant:normal;font-weight:normal;font-stretch:normal;font-size:33.8667px;font-family:'EB Garamond';-inkscape-font-specification:'EB Garamond';stroke-width:0.264583"
         y="37.535824"
         x="-191.88333"
         id="tspan1753"
         sodipodi:role="line">+</tspan></text>
    <text
       xml:space="preserve"
       style="font-style:normal;font-weight:normal;font-size:10.5833px;line-height:1.25;font-family:sans-serif;fill:#000000;fill-opacity:1;stroke:none;stroke-width:0.264583"
       x="258.11667"
       y="37.535824"
       id="text1755-0"><tspan
         sodipodi:role="line"
         id="tspan1753-1"
         x="258.11667"
         y="37.535824"
         style="font-style:normal;font-variant:normal;font-weight:normal;font-stretch:normal;font-size:33.8667px;font-family:'EB Garamond';-inkscape-font-specification:'EB Garamond';stroke-width:0.264583">+</tspan></text>
    <g
       aria-label="CH4"
       id="text1879"
       style="font-style:normal;font-weight:normal;font-size:10.5833px;line-height:1.25;font-family:sans-serif;fill:#000000;fill-opacity:1;stroke:none;stroke-width:0.264583">
      <path
         d="m -275.34122,166.96045 q -2.37067,0 -4.57201,-0.8128 -2.20133,-0.8128 -3.92853,-2.30293 -1.72721,-1.524 -2.74321,-3.62374 -0.98213,-2.1336 -0.98213,-4.70747 0,-2.47227 1.04987,-4.572 1.04986,-2.09974 2.87867,-3.65761 1.8288,-1.55787 4.1656,-2.40453 2.37067,-0.88054 4.9784,-0.88054 1.32081,0 2.23521,0.1016 0.9144,0.1016 1.76107,0.3048 0.88053,0.16934 2.032,0.47414 0.508,0.13546 0.7112,0.4064 0.23706,0.27093 0.27093,0.74506 0.0677,0.77894 0.16933,1.69334 0.1016,0.88053 0.13547,2.20133 0.0339,0.23707 -0.23707,0.4064 -0.23706,0.13547 -0.54186,0.0677 -0.27094,-0.0677 -0.37254,-0.44027 -0.33866,-1.28693 -0.77893,-2.20133 -0.44027,-0.94827 -1.3208,-1.55787 -0.84667,-0.57574 -2.06587,-0.84667 -1.18533,-0.3048 -2.57387,-0.3048 -1.96427,0 -3.6576,0.8128 -1.65947,0.77893 -2.87867,2.16747 -1.18534,1.35467 -1.86267,3.08187 -0.67733,1.7272 -0.67733,3.58987 0,2.06587 0.64346,4.064 0.67734,1.99814 1.89654,3.62374 1.25307,1.59173 2.9464,2.57387 1.7272,0.94827 3.82694,0.94827 2.4384,0 4.03013,-1.1176 1.59174,-1.11761 2.70934,-3.11574 0.23707,-0.44027 0.67733,-0.44027 0.47414,0 0.47414,0.54187 0,0.27093 -0.13547,0.88053 -0.13547,0.57574 -0.37253,1.25307 -0.2032,0.64347 -0.4064,1.15147 -0.23707,0.47413 -0.4064,0.6096 -0.13547,0.13547 -0.67734,0.3048 -1.25306,0.508 -3.01413,0.74507 -1.7272,0.23706 -3.38667,0.23706 z"
         style="font-style:normal;font-variant:normal;font-weight:normal;font-stretch:normal;font-size:33.8667px;font-family:'EB Garamond';-inkscape-font-specification:'EB Garamond';stroke-width:0.264583"
         id="path197" />
      <path
         d="m -262.81266,166.62179 q -0.44027,0 -0.7112,-0.13547 -0.27094,-0.1016 -0.27094,-0.3048 0,-0.33867 1.08374,-0.54187 1.28693,-0.23706 1.65947,-0.77893 0.4064,-0.54187 0.4064,-1.76107 V 147.7919 q 0,-1.18533 -0.27094,-1.65947 -0.23706,-0.508 -1.524,-0.74506 -1.1176,-0.2032 -1.1176,-0.6096 0,-0.2032 0.23707,-0.3048 0.23707,-0.13547 0.74507,-0.13547 0.9144,0 1.4224,0.0339 0.508,0.0339 0.94826,0.0677 0.44027,0 1.11761,0 0.7112,0 1.15146,0 0.47414,-0.0339 0.98214,-0.0677 0.54187,-0.0339 1.45627,-0.0339 0.98213,0 0.98213,0.44027 0,0.23706 -0.27093,0.37253 -0.27094,0.13547 -0.84667,0.23707 -1.25307,0.23706 -1.79494,0.84666 -0.508,0.57574 -0.508,1.55787 v 6.67174 q 0,0.2032 0.16934,0.27094 0.16933,0.0339 0.3048,0.0339 h 12.56454 q 0.23707,0 0.23707,-0.4064 v -6.604 q 0,-0.91441 -0.47413,-1.52401 -0.47414,-0.6096 -1.76107,-0.84666 -0.57574,-0.1016 -0.84667,-0.23707 -0.27093,-0.13547 -0.27093,-0.37253 0,-0.44027 0.98213,-0.44027 0.9144,0 1.49014,0.0339 0.6096,0.0339 1.15146,0.0677 0.54187,0 1.28694,0 0.6096,0 0.94827,0 0.33866,-0.0339 0.77893,-0.0677 0.44027,-0.0339 1.35467,-0.0339 0.47413,0 0.7112,0.13547 0.27093,0.1016 0.27093,0.3048 0,0.4064 -1.1176,0.6096 -1.25307,0.23706 -1.524,0.8128 -0.27093,0.57573 -0.27093,1.55787 v 15.30774 q 0,1.25307 0.3048,1.79494 0.33866,0.54187 1.59173,0.77893 1.08374,0.2032 1.08374,0.54187 0,0.2032 -0.27094,0.3048 -0.27093,0.13547 -0.7112,0.13547 -0.9144,0 -1.4224,-0.0677 -0.508,-0.0339 -0.94827,-0.0677 -0.44026,-0.0339 -1.15147,-0.0339 -0.7112,0 -1.18533,0.0339 -0.44027,0.0339 -0.98213,0.0677 -0.54187,0.0677 -1.45627,0.0677 -0.44027,0 -0.7112,-0.13547 -0.27094,-0.1016 -0.27094,-0.3048 0,-0.23707 0.23707,-0.33867 0.27093,-0.1016 0.84667,-0.2032 1.08373,-0.2032 1.69333,-0.77893 0.64347,-0.6096 0.64347,-1.69334 v -6.604 q 0,-0.16934 0,-0.33867 0,-0.16933 -0.16933,-0.16933 h -12.93708 q -0.16934,0 -0.16934,0.37253 v 6.43467 q 0,1.04987 0.77894,1.82881 0.77893,0.74506 1.9304,0.94826 0.57573,0.1016 0.8128,0.2032 0.27093,0.1016 0.27093,0.33867 0,0.2032 -0.27093,0.3048 -0.27093,0.13547 -0.7112,0.13547 -0.9144,0 -1.524,-0.0677 -0.57574,-0.0339 -1.1176,-0.0677 -0.54187,-0.0339 -1.3208,-0.0339 -0.7112,0 -1.21921,0.0339 -0.47413,0.0339 -1.04986,0.0677 -0.54187,0.0677 -1.45627,0.0677 z"
         style="font-style:normal;font-variant:normal;font-weight:normal;font-stretch:normal;font-size:33.8667px;font-family:'EB Garamond';-inkscape-font-specification:'EB Garamond';stroke-width:0.264583"
         id="path199" />
      <path
         d="m -232.97451,173.29183 q -0.11007,0 -0.26416,-0.066 -0.13208,-0.066 -0.13208,-0.22013 0,-0.11007 0.13208,-0.17611 0.13208,-0.066 0.26416,-0.0881 1.03463,-0.13208 1.36483,-0.44027 0.3302,-0.30818 0.3302,-0.8365 v -2.04725 q 0,-0.11006 -0.1541,-0.15409 -0.15409,-0.044 -0.1761,-0.044 -0.90255,0 -1.69503,0.044 -0.77047,0.022 -1.62899,0.066 -0.85852,0.022 -2.02523,0.044 -0.088,0 -0.15409,-0.066 -0.066,-0.0881 -0.066,-0.1541 0,-0.044 0.022,-0.066 0.28617,-0.35221 0.41825,-0.48429 0.13208,-0.15409 0.22014,-0.24215 0.0881,-0.11006 0.22013,-0.30818 l 5.81153,-8.34307 q 0.13208,-0.19812 0.30818,-0.39624 0.19812,-0.22013 0.35222,-0.22013 h 0.46228 q 0.11006,0 0.022,0.15409 -0.066,0.1541 -0.066,0.1541 l -5.9436,8.54118 q -0.022,0.044 -0.044,0.13208 -0.022,0.066 0.044,0.066 h 3.80831 q 0.0881,0 0.1761,-0.044 0.0881,-0.066 0.0881,-0.13208 v -3.41207 q 0,-0.24214 0.022,-0.3302 0.044,-0.0881 0.17611,-0.15409 0.3302,-0.17611 0.70442,-0.22014 0.37423,-0.066 0.52832,-0.066 0.24215,0 0.28618,0.35222 0.044,0.35221 0.044,1.05664 v 2.83972 q 0,0.13208 0.11007,0.13208 0.24215,0.022 0.46228,0.022 0.22013,0 0.41825,0 0.30819,0 0.61638,0 0.3302,-0.022 0.68241,-0.044 0.24215,0 0.24215,0.17611 0,0.1761 -0.11007,0.37422 -0.0881,0.19812 -0.19812,0.3302 -0.11006,0.13208 -0.15409,0.13208 -0.24215,0 -0.52832,0 -0.28617,-0.022 -0.55034,-0.022 -0.19812,0 -0.37422,0.022 -0.17611,0 -0.30819,0.022 -0.0881,0.022 -0.19812,0.066 -0.088,0.044 -0.088,0.066 v 2.06925 q 0,0.63839 0.28617,0.88054 0.30819,0.24214 1.18872,0.48429 0.13208,0.022 0.26416,0.11007 0.13208,0.088 0.13208,0.19812 0,0.0881 -0.11006,0.1761 -0.0881,0.066 -0.22014,0.066 -0.61637,0 -0.9906,-0.044 -0.35221,-0.022 -0.6604,-0.044 -0.30819,-0.022 -0.83651,-0.022 -0.55033,0 -0.90254,0.022 -0.3302,0.022 -0.68242,0.044 -0.35221,0.044 -0.94657,0.044 z"
         style="font-size:65%;baseline-shift:sub"
         id="path201" />
    </g>
    <g
       aria-label="+"
       id="text1755-9"
       style="font-style:normal;font-weight:normal;font-size:10.5833px;line-height:1.25;font-family:sans-serif;fill:#000000;fill-opacity:1;stroke:none;stroke-width:0.264583">
      <path
         d="m -182.33292,166.94267 q -0.13547,0 -0.27094,-0.16933 -0.13546,-0.13547 -0.13546,-0.3048 v -7.14588 q 0,-0.16933 -0.13547,-0.16933 h -6.84107 q -0.16934,0 -0.33867,-0.13547 -0.13547,-0.13546 -0.13547,-0.27093 0,-0.16933 0.0677,-0.47413 0.1016,-0.3048 0.27093,-0.54187 0.16933,-0.27093 0.47413,-0.27093 h 6.40081 q 0.16933,0 0.2032,-0.0677 0.0339,-0.0677 0.0339,-0.2032 v -5.7912 q 0,-0.37254 0.33866,-0.6096 0.33867,-0.23707 0.71121,-0.33867 0.4064,-0.1016 0.508,-0.1016 0.16933,0 0.3048,0.13547 0.16933,0.13546 0.16933,0.3048 v 6.46854 q 0,0.2032 0.0677,0.2032 h 6.94268 q 0.16933,0 0.3048,0.1016 0.13546,0.0677 0.13546,0.23706 0,0.44027 -0.3048,0.9144 -0.27093,0.44027 -0.74506,0.44027 h -6.26534 q -0.13547,0 -0.13547,0.13547 v 6.84107 q 0,0.33867 -0.33867,0.54187 -0.33866,0.16933 -0.74506,0.2032 -0.37254,0.0677 -0.54187,0.0677 z"
         style="font-style:normal;font-variant:normal;font-weight:normal;font-stretch:normal;font-size:33.8667px;font-family:'EB Garamond';-inkscape-font-specification:'EB Garamond';stroke-width:0.264583"
         id="path204" />
    </g>
    <g
       aria-label="2O2"
       id="text1879-1"
       style="font-style:normal;font-weight:normal;font-size:10.5833px;line-height:1.25;font-family:sans-serif;fill:#000000;fill-opacity:1;stroke:none;stroke-width:0.264583">
      <path
         d="m -119.32633,166.57099 q -0.23707,0 -0.74507,-0.0339 -0.508,-0.0339 -1.15147,-0.0677 -0.64346,-0.0339 -1.35467,-0.0677 -0.67733,-0.0339 -1.3208,-0.0339 -0.64346,0 -1.8288,0.0339 -1.18533,0.0339 -2.50613,0.0677 -1.28694,0 -2.26907,0.0339 -0.98214,0.0339 -1.25307,0.0339 -0.13547,0 -0.4064,-0.2032 -0.27094,-0.23706 -0.27094,-0.37253 0,-0.16933 0.0677,-0.23707 0.0677,-0.0677 0.2032,-0.2032 l 5.7912,-5.9944 q 1.69334,-1.76107 2.81094,-3.92854 1.1176,-2.20134 1.1176,-4.43654 0,-1.79493 -1.08373,-2.81093 -1.08374,-1.04987 -2.54001,-1.04987 -1.38853,0 -2.57386,0.77893 -1.18534,0.74507 -1.89654,1.96427 -0.1016,0.2032 -0.27093,0.33867 -0.13547,0.13547 -0.3048,0.13547 -0.13547,0 -0.33867,-0.27094 -0.16933,-0.3048 -0.16933,-0.74507 0,-0.4064 0.47413,-1.1176 0.508,-0.7112 1.38853,-1.45626 0.88054,-0.74507 2.09974,-1.25307 1.2192,-0.54187 2.6416,-0.54187 1.69334,0 2.91254,0.7112 1.2192,0.7112 1.86267,1.96427 0.64346,1.25307 0.64346,2.91254 0,0.9144 -0.33866,1.96426 -0.3048,1.04987 -0.88054,2.06587 -0.54186,1.016 -1.25307,1.89654 -0.44026,0.54187 -1.3208,1.45627 -0.84666,0.88053 -1.86266,1.89653 -0.98214,1.016 -1.89654,1.9304 -0.88053,0.88054 -1.45627,1.49014 -0.57573,0.57573 -0.57573,0.64347 0,0.16933 0.47413,0.23706 0.57574,0.0339 1.28694,0.0677 0.74506,0.0339 1.69333,0.0339 0.98214,0 1.96427,-0.0339 0.98213,-0.0339 1.89654,-0.0677 0.98213,-0.0677 1.524,-0.16933 0.54186,-0.1016 0.9144,-0.4064 0.37253,-0.33867 0.77893,-1.016 0.13547,-0.2032 0.33867,-0.47414 0.23707,-0.3048 0.508,-0.3048 0.16933,0 0.2032,0.13547 0.0339,0.13547 0.0339,0.27093 0,0.16934 -0.2032,0.67734 -0.16934,0.47413 -0.4064,1.18533 -0.23707,0.7112 -0.40641,1.55787 -0.1016,0.54187 -0.33866,0.67733 -0.23707,0.13547 -0.4064,0.13547 z"
         style="font-style:normal;font-variant:normal;font-weight:normal;font-stretch:normal;font-size:33.8667px;font-family:'EB Garamond';-inkscape-font-specification:'EB Garamond';stroke-width:0.264583"
         id="path207" />
      <path
         d="m -104.47684,166.94352 q -2.23521,0 -4.26721,-0.77893 -2.032,-0.8128 -3.58987,-2.26907 -1.55787,-1.49013 -2.47227,-3.52213 -0.9144,-2.06587 -0.9144,-4.57201 0,-2.30293 0.74507,-4.40267 0.74507,-2.1336 2.20134,-3.79307 1.45626,-1.65947 3.62373,-2.6416 2.16747,-0.98214 4.97841,-0.98214 2.2352,0 4.267201,0.8128 2.032002,0.77894 3.58987,2.26907 1.557868,1.45627 2.472269,3.52214 0.914401,2.032 0.914401,4.53814 0,2.26907 -0.745067,4.40267 -0.745068,2.1336 -2.201336,3.79307 -1.456268,1.65947 -3.623736,2.6416 -2.167472,0.98213 -4.978402,0.98213 z m 0.508,-1.35466 q 2.60773,0 4.334935,-1.08374 1.727201,-1.1176 2.573869,-3.08187 0.880534,-1.99813 0.880534,-4.63974 0,-2.3368 -0.541867,-4.40267 -0.541867,-2.06586 -1.625602,-3.62373 -1.049867,-1.59174 -2.641599,-2.47227 -1.59174,-0.88054 -3.72534,-0.88054 -2.54,0 -4.2672,1.08374 -1.72721,1.08373 -2.60774,3.048 -0.88053,1.9304 -0.88053,4.57201 0,2.37066 0.508,4.43653 0.54186,2.06587 1.59173,3.65761 1.08374,1.59173 2.67547,2.50613 1.59174,0.88054 3.72534,0.88054 z"
         style="font-style:normal;font-variant:normal;font-weight:normal;font-stretch:normal;font-size:33.8667px;font-family:'EB Garamond';-inkscape-font-specification:'EB Garamond';stroke-width:0.264583"
         id="path209" />
      <path
         d="m -82.157951,173.30877 q -0.154093,0 -0.484294,-0.022 -0.3302,-0.022 -0.748454,-0.044 -0.418253,-0.022 -0.880534,-0.044 -0.440267,-0.022 -0.858521,-0.022 -0.418253,0 -1.188721,0.022 -0.770467,0.022 -1.628988,0.044 -0.836507,0 -1.474895,0.022 -0.638387,0.022 -0.814494,0.022 -0.08805,0 -0.26416,-0.13208 -0.176107,-0.1541 -0.176107,-0.24215 0,-0.11007 0.04403,-0.15409 0.04403,-0.044 0.13208,-0.13208 l 3.764284,-3.89637 q 1.100667,-1.14469 1.827108,-2.55355 0.726441,-1.43086 0.726441,-2.88375 0,-1.1667 -0.704428,-1.8271 -0.704427,-0.68242 -1.651001,-0.68242 -0.902548,0 -1.673015,0.50631 -0.770468,0.48429 -1.232748,1.27677 -0.06604,0.13208 -0.176107,0.22014 -0.08805,0.088 -0.19812,0.088 -0.08805,0 -0.220133,-0.17611 -0.110067,-0.19812 -0.110067,-0.48429 0,-0.26416 0.308187,-0.72644 0.3302,-0.46228 0.902547,-0.94657 0.572347,-0.4843 1.364828,-0.8145 0.792481,-0.35221 1.717042,-0.35221 1.100667,0 1.893148,0.46228 0.792481,0.46228 1.210734,1.27677 0.418254,0.8145 0.418254,1.89315 0,0.59436 -0.220133,1.27678 -0.198121,0.68241 -0.572348,1.34281 -0.352213,0.6604 -0.814494,1.23275 -0.286173,0.35221 -0.85852,0.94657 -0.550334,0.57235 -1.210735,1.23275 -0.638387,0.6604 -1.232748,1.25476 -0.572347,0.57235 -0.946574,0.96859 -0.374227,0.37423 -0.374227,0.41825 0,0.11007 0.308187,0.1541 0.374227,0.022 0.836508,0.044 0.484293,0.022 1.100667,0.022 0.638387,0 1.276775,-0.022 0.638387,-0.022 1.232748,-0.044 0.638387,-0.044 0.9906,-0.11007 0.352214,-0.066 0.594361,-0.26416 0.242147,-0.22013 0.506307,-0.6604 0.08805,-0.13208 0.220134,-0.30819 0.154093,-0.19812 0.3302,-0.19812 0.110067,0 0.13208,0.0881 0.02201,0.0881 0.02201,0.17611 0,0.11007 -0.13208,0.44027 -0.110066,0.30819 -0.26416,0.77047 -0.154093,0.46228 -0.26416,1.01261 -0.06604,0.35221 -0.220134,0.44027 -0.154093,0.0881 -0.26416,0.0881 z"
         style="font-size:65%;baseline-shift:sub"
         id="path211" />
    </g>
    <path
       style="fill:none;stroke:#000000;stroke-width:1;stroke-linecap:butt;stroke-linejoin:miter;stroke-miterlimit:4;stroke-dasharray:none;stroke-opacity:1;marker-end:url(#Arrow2Lend-0)"
       d="M -5.184,158.66295 H 90.066004"
       id="path1631-4" />
    <g
       aria-label="CO2"
       id="text1879-1-2"
       style="font-style:normal;font-weight:normal;font-size:10.5833px;line-height:1.25;font-family:sans-serif;fill:#000000;fill-opacity:1;stroke:none;stroke-width:0.264583">
      <path
         d="m 176.12686,166.97739 q -2.37067,0 -4.57201,-0.8128 -2.20133,-0.8128 -3.92854,-2.30293 -1.7272,-1.52401 -2.7432,-3.62374 -0.98213,-2.1336 -0.98213,-4.70747 0,-2.47227 1.04986,-4.57201 1.04987,-2.09973 2.87867,-3.6576 1.82881,-1.55787 4.16561,-2.40454 2.37067,-0.88053 4.9784,-0.88053 1.3208,0 2.23521,0.1016 0.9144,0.1016 1.76106,0.3048 0.88054,0.16933 2.03201,0.47413 0.508,0.13547 0.7112,0.4064 0.23706,0.27094 0.27093,0.74507 0.0677,0.77894 0.16933,1.69334 0.1016,0.88053 0.13547,2.20133 0.0339,0.23707 -0.23707,0.4064 -0.23706,0.13547 -0.54186,0.0677 -0.27094,-0.0677 -0.37254,-0.44027 -0.33866,-1.28694 -0.77893,-2.20134 -0.44027,-0.94826 -1.3208,-1.55787 -0.84667,-0.57573 -2.06587,-0.84666 -1.18534,-0.3048 -2.57387,-0.3048 -1.96427,0 -3.6576,0.8128 -1.65947,0.77893 -2.87867,2.16747 -1.18534,1.35466 -1.86267,3.08187 -0.67734,1.7272 -0.67734,3.58987 0,2.06586 0.64347,4.064 0.67734,1.99814 1.89654,3.62374 1.25306,1.59173 2.9464,2.57387 1.7272,0.94826 3.82694,0.94826 2.4384,0 4.03013,-1.1176 1.59174,-1.1176 2.70934,-3.11573 0.23707,-0.44027 0.67733,-0.44027 0.47414,0 0.47414,0.54187 0,0.27093 -0.13547,0.88053 -0.13547,0.57573 -0.37253,1.25307 -0.2032,0.64347 -0.4064,1.15147 -0.23707,0.47413 -0.4064,0.6096 -0.13547,0.13546 -0.67734,0.3048 -1.25307,0.508 -3.01413,0.74506 -1.72721,0.23707 -3.38667,0.23707 z"
         style="font-style:normal;font-variant:normal;font-weight:normal;font-stretch:normal;font-size:33.8667px;font-family:'EB Garamond';-inkscape-font-specification:'EB Garamond';stroke-width:0.264583"
         id="path214" />
      <path
         d="m 199.18796,166.94352 q -2.2352,0 -4.2672,-0.77893 -2.032,-0.8128 -3.58987,-2.26907 -1.55787,-1.49013 -2.47227,-3.52213 -0.9144,-2.06587 -0.9144,-4.57201 0,-2.30293 0.74506,-4.40267 0.74507,-2.1336 2.20134,-3.79307 1.45627,-1.65947 3.62374,-2.6416 2.16747,-0.98214 4.9784,-0.98214 2.2352,0 4.26721,0.8128 2.032,0.77894 3.58987,2.26907 1.55786,1.45627 2.47226,3.52214 0.91441,2.032 0.91441,4.53814 0,2.26907 -0.74507,4.40267 -0.74507,2.1336 -2.20134,3.79307 -1.45627,1.65947 -3.62373,2.6416 -2.16747,0.98213 -4.97841,0.98213 z m 0.508,-1.35466 q 2.60774,0 4.33494,-1.08374 1.7272,-1.1176 2.57387,-3.08187 0.88053,-1.99813 0.88053,-4.63974 0,-2.3368 -0.54186,-4.40267 -0.54187,-2.06586 -1.62561,-3.62373 -1.04986,-1.59174 -2.6416,-2.47227 -1.59173,-0.88054 -3.72534,-0.88054 -2.54,0 -4.2672,1.08374 -1.7272,1.08373 -2.60774,3.048 -0.88053,1.9304 -0.88053,4.57201 0,2.37066 0.508,4.43653 0.54187,2.06587 1.59174,3.65761 1.08373,1.59173 2.67546,2.50613 1.59174,0.88054 3.72534,0.88054 z"
         style="font-style:normal;font-variant:normal;font-weight:normal;font-stretch:normal;font-size:33.8667px;font-family:'EB Garamond';-inkscape-font-specification:'EB Garamond';stroke-width:0.264583"
         id="path216" />
      <path
         d="m 221.50687,173.30877 q -0.15409,0 -0.48429,-0.022 -0.3302,-0.022 -0.74846,-0.044 -0.41825,-0.022 -0.88053,-0.044 -0.44027,-0.022 -0.85852,-0.022 -0.41826,0 -1.18873,0.022 -0.77047,0.022 -1.62899,0.044 -0.83651,0 -1.4749,0.022 -0.63839,0.022 -0.81449,0.022 -0.0881,0 -0.26416,-0.13208 -0.17611,-0.1541 -0.17611,-0.24215 0,-0.11007 0.044,-0.15409 0.044,-0.044 0.13208,-0.13208 l 3.76429,-3.89638 q 1.10067,-1.14469 1.82711,-2.55355 0.72644,-1.43087 0.72644,-2.88376 0,-1.16671 -0.70443,-1.82711 -0.70443,-0.68241 -1.651,-0.68241 -0.90255,0 -1.67302,0.5063 -0.77047,0.4843 -1.23275,1.27678 -0.066,0.13208 -0.17611,0.22014 -0.0881,0.088 -0.19812,0.088 -0.0881,0 -0.22013,-0.17611 -0.11007,-0.19812 -0.11007,-0.48429 0,-0.26416 0.30819,-0.72644 0.3302,-0.46229 0.90255,-0.94658 0.57235,-0.4843 1.36483,-0.8145 0.79248,-0.35221 1.71704,-0.35221 1.10067,0 1.89316,0.46228 0.79248,0.46228 1.21073,1.27678 0.41826,0.81449 0.41826,1.89315 0,0.59436 -0.22014,1.27678 -0.19812,0.68241 -0.57234,1.34281 -0.35222,0.66041 -0.8145,1.23275 -0.28617,0.35222 -0.85852,0.94658 -0.55034,0.57235 -1.21074,1.23275 -0.63839,0.6604 -1.23275,1.25477 -0.57235,0.57234 -0.94658,0.96858 -0.37422,0.37423 -0.37422,0.41826 0,0.11007 0.30818,0.15409 0.37423,0.022 0.83651,0.044 0.4843,0.022 1.10067,0.022 0.63839,0 1.27678,-0.022 0.63839,-0.022 1.23275,-0.044 0.63839,-0.044 0.9906,-0.11006 0.35222,-0.066 0.59436,-0.26416 0.24215,-0.22014 0.50631,-0.66041 0.0881,-0.13208 0.22014,-0.30818 0.15409,-0.19812 0.3302,-0.19812 0.11006,0 0.13208,0.0881 0.022,0.0881 0.022,0.17611 0,0.11006 -0.13208,0.44026 -0.11007,0.30819 -0.26416,0.77047 -0.15409,0.46228 -0.26416,1.01262 -0.066,0.35221 -0.22013,0.44027 -0.1541,0.0881 -0.26417,0.0881 z"
         style="font-size:22.0134px;baseline-shift:sub;stroke-width:0.264583"
         id="path218" />
    </g>
    <g
       aria-label="+"
       id="text1755-0-9"
       style="font-style:normal;font-weight:normal;font-size:10.5833px;line-height:1.25;font-family:sans-serif;fill:#000000;fill-opacity:1;stroke:none;stroke-width:0.264583">
      <path
         d="m 267.66708,166.94267 q -0.13547,0 -0.27094,-0.16933 -0.13546,-0.13547 -0.13546,-0.3048 v -7.14588 q 0,-0.16933 -0.13547,-0.16933 h -6.84107 q -0.16934,0 -0.33867,-0.13547 -0.13547,-0.13546 -0.13547,-0.27093 0,-0.16933 0.0677,-0.47413 0.1016,-0.3048 0.27093,-0.54187 Q 260.318,157.46 260.6228,157.46 h 6.40081 q 0.16933,0 0.2032,-0.0677 0.0339,-0.0677 0.0339,-0.2032 v -5.7912 q 0,-0.37254 0.33866,-0.6096 0.33867,-0.23707 0.71121,-0.33867 0.4064,-0.1016 0.508,-0.1016 0.16933,0 0.3048,0.13547 0.16933,0.13546 0.16933,0.3048 v 6.46854 q 0,0.2032 0.0677,0.2032 h 6.94268 q 0.16933,0 0.3048,0.1016 0.13546,0.0677 0.13546,0.23706 0,0.44027 -0.3048,0.9144 -0.27093,0.44027 -0.74506,0.44027 h -6.26534 q -0.13547,0 -0.13547,0.13547 v 6.84107 q 0,0.33867 -0.33867,0.54187 -0.33866,0.16933 -0.74506,0.2032 -0.37254,0.0677 -0.54187,0.0677 z"
         style="font-style:normal;font-variant:normal;font-weight:normal;font-stretch:normal;font-size:33.8667px;font-family:'EB Garamond';-inkscape-font-specification:'EB Garamond';stroke-width:0.264583"
         id="path221" />
    </g>
    <g
       aria-label="2H2O"
       id="text1879-1-2-5"
       style="font-style:normal;font-weight:normal;font-size:10.5833px;line-height:1.25;font-family:sans-serif;fill:#000000;fill-opacity:1;stroke:none;stroke-width:0.264583">
      <path
         d="m 317.61755,166.57099 q -0.23707,0 -0.74507,-0.0339 -0.508,-0.0339 -1.15147,-0.0677 -0.64347,-0.0339 -1.35467,-0.0677 -0.67733,-0.0339 -1.3208,-0.0339 -0.64347,0 -1.8288,0.0339 -1.18533,0.0339 -2.50614,0.0677 -1.28693,0 -2.26907,0.0339 -0.98213,0.0339 -1.25306,0.0339 -0.13547,0 -0.4064,-0.2032 -0.27094,-0.23706 -0.27094,-0.37253 0,-0.16933 0.0677,-0.23707 0.0677,-0.0677 0.2032,-0.2032 l 5.7912,-5.9944 q 1.69334,-1.76107 2.81094,-3.92854 1.1176,-2.20134 1.1176,-4.43654 0,-1.79493 -1.08374,-2.81093 -1.08373,-1.04987 -2.54,-1.04987 -1.38853,0 -2.57387,0.77893 -1.18533,0.74507 -1.89653,1.96427 -0.1016,0.2032 -0.27094,0.33867 -0.13546,0.13547 -0.3048,0.13547 -0.13546,0 -0.33866,-0.27094 -0.16934,-0.3048 -0.16934,-0.74507 0,-0.4064 0.47414,-1.1176 0.508,-0.7112 1.38853,-1.45626 0.88054,-0.74507 2.09974,-1.25307 1.2192,-0.54187 2.6416,-0.54187 1.69334,0 2.91254,0.7112 1.2192,0.7112 1.86266,1.96427 0.64347,1.25307 0.64347,2.91254 0,0.9144 -0.33866,1.96426 -0.30481,1.04987 -0.88054,2.06587 -0.54187,1.016 -1.25307,1.89654 -0.44026,0.54187 -1.3208,1.45627 -0.84667,0.88053 -1.86267,1.89653 -0.98213,1.016 -1.89653,1.9304 -0.88054,0.88054 -1.45627,1.49014 -0.57573,0.57573 -0.57573,0.64347 0,0.16933 0.47413,0.23706 0.57573,0.0339 1.28693,0.0677 0.74507,0.0339 1.69334,0.0339 0.98213,0 1.96427,-0.0339 0.98213,-0.0339 1.89653,-0.0677 0.98214,-0.0677 1.524,-0.16933 0.54187,-0.1016 0.91441,-0.4064 0.37253,-0.33867 0.77893,-1.016 0.13547,-0.2032 0.33867,-0.47414 0.23706,-0.3048 0.508,-0.3048 0.16933,0 0.2032,0.13547 0.0339,0.13547 0.0339,0.27093 0,0.16934 -0.2032,0.67734 -0.16933,0.47413 -0.4064,1.18533 -0.23706,0.7112 -0.4064,1.55787 -0.1016,0.54187 -0.33866,0.67733 -0.23707,0.13547 -0.4064,0.13547 z"
         style="font-style:normal;font-variant:normal;font-weight:normal;font-stretch:normal;font-size:33.8667px;font-family:'EB Garamond';-inkscape-font-specification:'EB Garamond';stroke-width:0.264583"
         id="path224" />
      <path
         d="m 321.93449,166.63872 q -0.44027,0 -0.7112,-0.13546 -0.27093,-0.1016 -0.27093,-0.3048 0,-0.33867 1.08373,-0.54187 1.28694,-0.23707 1.65947,-0.77893 0.4064,-0.54187 0.4064,-1.76107 v -15.30775 q 0,-1.18533 -0.27093,-1.65947 -0.23707,-0.508 -1.524,-0.74507 -1.11761,-0.2032 -1.11761,-0.6096 0,-0.2032 0.23707,-0.3048 0.23707,-0.13546 0.74507,-0.13546 0.9144,0 1.4224,0.0339 0.508,0.0339 0.94827,0.0677 0.44026,0 1.1176,0 0.7112,0 1.15147,0 0.47413,-0.0339 0.98213,-0.0677 0.54187,-0.0339 1.45627,-0.0339 0.98213,0 0.98213,0.44026 0,0.23707 -0.27093,0.37254 -0.27093,0.13546 -0.84667,0.23706 -1.25307,0.23707 -1.79493,0.84667 -0.508,0.57574 -0.508,1.55787 v 6.67174 q 0,0.2032 0.16933,0.27093 0.16933,0.0339 0.3048,0.0339 h 12.56455 q 0.23706,0 0.23706,-0.4064 v -6.60401 q 0,-0.9144 -0.47413,-1.524 -0.47414,-0.6096 -1.76107,-0.84667 -0.57573,-0.1016 -0.84667,-0.23706 -0.27093,-0.13547 -0.27093,-0.37254 0,-0.44026 0.98213,-0.44026 0.9144,0 1.49014,0.0339 0.6096,0.0339 1.15147,0.0677 0.54186,0 1.28693,0 0.6096,0 0.94827,0 0.33866,-0.0339 0.77893,-0.0677 0.44027,-0.0339 1.35467,-0.0339 0.47413,0 0.7112,0.13546 0.27093,0.1016 0.27093,0.3048 0,0.4064 -1.1176,0.6096 -1.25306,0.23707 -1.524,0.8128 -0.27093,0.57574 -0.27093,1.55787 v 15.30775 q 0,1.25307 0.3048,1.79494 0.33867,0.54186 1.59173,0.77893 1.08374,0.2032 1.08374,0.54187 0,0.2032 -0.27094,0.3048 -0.27093,0.13546 -0.7112,0.13546 -0.9144,0 -1.4224,-0.0677 -0.508,-0.0339 -0.94827,-0.0677 -0.44026,-0.0339 -1.15146,-0.0339 -0.7112,0 -1.18534,0.0339 -0.44026,0.0339 -0.98213,0.0677 -0.54187,0.0677 -1.45627,0.0677 -0.44027,0 -0.7112,-0.13546 -0.27093,-0.1016 -0.27093,-0.3048 0,-0.23707 0.23706,-0.33867 0.27094,-0.1016 0.84667,-0.2032 1.08373,-0.2032 1.69333,-0.77893 0.64347,-0.6096 0.64347,-1.69334 v -6.60401 q 0,-0.16933 0,-0.33866 0,-0.16934 -0.16933,-0.16934 h -12.93708 q -0.16933,0 -0.16933,0.37254 v 6.43467 q 0,1.04987 0.77893,1.8288 0.77893,0.74507 1.9304,0.94827 0.57574,0.1016 0.8128,0.2032 0.27094,0.1016 0.27094,0.33867 0,0.2032 -0.27094,0.3048 -0.27093,0.13546 -0.7112,0.13546 -0.9144,0 -1.524,-0.0677 -0.57573,-0.0339 -1.1176,-0.0677 -0.54187,-0.0339 -1.3208,-0.0339 -0.7112,0 -1.2192,0.0339 -0.47414,0.0339 -1.04987,0.0677 -0.54187,0.0677 -1.45627,0.0677 z"
         style="font-style:normal;font-variant:normal;font-weight:normal;font-stretch:normal;font-size:33.8667px;font-family:'EB Garamond';-inkscape-font-specification:'EB Garamond';stroke-width:0.264583"
         id="path226" />
      <path
         d="m 356.37343,173.30877 q -0.15409,0 -0.4843,-0.022 -0.3302,-0.022 -0.74845,-0.044 -0.41825,-0.022 -0.88053,-0.044 -0.44027,-0.022 -0.85852,-0.022 -0.41826,0 -1.18873,0.022 -0.77046,0.022 -1.62898,0.044 -0.83651,0 -1.4749,0.022 -0.63839,0.022 -0.81449,0.022 -0.0881,0 -0.26416,-0.13208 -0.17611,-0.1541 -0.17611,-0.24215 0,-0.11007 0.044,-0.15409 0.044,-0.044 0.13208,-0.13208 l 3.76428,-3.89637 q 1.10067,-1.14469 1.82711,-2.55355 0.72644,-1.43086 0.72644,-2.88375 0,-1.1667 -0.70443,-1.8271 -0.70442,-0.68242 -1.651,-0.68242 -0.90255,0 -1.67301,0.50631 -0.77047,0.48429 -1.23275,1.27677 -0.066,0.13208 -0.17611,0.22014 -0.0881,0.088 -0.19812,0.088 -0.0881,0 -0.22013,-0.17611 -0.11007,-0.19812 -0.11007,-0.48429 0,-0.26416 0.30819,-0.72644 0.3302,-0.46228 0.90255,-0.94657 0.57234,-0.4843 1.36482,-0.8145 0.79248,-0.35221 1.71705,-0.35221 1.10066,0 1.89314,0.46228 0.79248,0.46228 1.21074,1.27677 0.41825,0.8145 0.41825,1.89315 0,0.59436 -0.22013,1.27678 -0.19812,0.68241 -0.57235,1.34281 -0.35221,0.6604 -0.81449,1.23275 -0.28618,0.35221 -0.85852,0.94657 -0.55034,0.57235 -1.21074,1.23275 -0.63839,0.6604 -1.23275,1.25476 -0.57234,0.57235 -0.94657,0.96859 -0.37423,0.37423 -0.37423,0.41825 0,0.11007 0.30819,0.1541 0.37423,0.022 0.83651,0.044 0.48429,0.022 1.10066,0.022 0.63839,0 1.27678,-0.022 0.63839,-0.022 1.23275,-0.044 0.63838,-0.044 0.9906,-0.11007 0.35221,-0.066 0.59436,-0.26416 0.24215,-0.22013 0.50631,-0.6604 0.0881,-0.13208 0.22013,-0.30819 0.15409,-0.19812 0.3302,-0.19812 0.11007,0 0.13208,0.0881 0.022,0.0881 0.022,0.17611 0,0.11007 -0.13208,0.44027 -0.11006,0.30819 -0.26416,0.77047 -0.15409,0.46228 -0.26416,1.01261 -0.066,0.35221 -0.22013,0.44027 -0.15409,0.0881 -0.26416,0.0881 z"
         style="font-size:65%;baseline-shift:sub"
         id="path228" />
      <path
         d="m 370.49431,166.94352 q -2.2352,0 -4.26721,-0.77893 -2.032,-0.8128 -3.58987,-2.26907 -1.55786,-1.49013 -2.47227,-3.52213 -0.9144,-2.06587 -0.9144,-4.57201 0,-2.30293 0.74507,-4.40267 0.74507,-2.1336 2.20134,-3.79307 1.45626,-1.65947 3.62373,-2.6416 2.16747,-0.98214 4.97841,-0.98214 2.2352,0 4.2672,0.8128 2.032,0.77894 3.58987,2.26907 1.55787,1.45627 2.47227,3.52214 0.9144,2.032 0.9144,4.53814 0,2.26907 -0.74506,4.40267 -0.74507,2.1336 -2.20134,3.79307 -1.45627,1.65947 -3.62374,2.6416 -2.16747,0.98213 -4.9784,0.98213 z m 0.508,-1.35466 q 2.60773,0 4.33494,-1.08374 1.7272,-1.1176 2.57387,-3.08187 0.88053,-1.99813 0.88053,-4.63974 0,-2.3368 -0.54187,-4.40267 -0.54186,-2.06586 -1.6256,-3.62373 -1.04987,-1.59174 -2.6416,-2.47227 -1.59174,-0.88054 -3.72534,-0.88054 -2.54,0 -4.2672,1.08374 -1.7272,1.08373 -2.60774,3.048 -0.88053,1.9304 -0.88053,4.57201 0,2.37066 0.508,4.43653 0.54186,2.06587 1.59173,3.65761 1.08374,1.59173 2.67547,2.50613 1.59174,0.88054 3.72534,0.88054 z"
         style="font-style:normal;font-variant:normal;font-weight:normal;font-stretch:normal;font-size:33.8667px;font-family:'EB Garamond';-inkscape-font-specification:'EB Garamond';stroke-width:0.264583"
         id="path230" />
    </g>
  </g>
</svg>
