<?xml version="1.0" encoding="UTF-8" standalone="no"?>
<svg
   xmlns:dc="http://purl.org/dc/elements/1.1/"
   xmlns:cc="http://creativecommons.org/ns#"
   xmlns:rdf="http://www.w3.org/1999/02/22-rdf-syntax-ns#"
   xmlns:svg="http://www.w3.org/2000/svg"
   xmlns="http://www.w3.org/2000/svg"
   xmlns:sodipodi="http://sodipodi.sourceforge.net/DTD/sodipodi-0.dtd"
   xmlns:inkscape="http://www.inkscape.org/namespaces/inkscape"
   inkscape:version="1.0.1 (c497b03c, 2020-09-10)"
   sodipodi:docname="efecto-invernadero.svg"
   id="svg228"
   xml:space="preserve"
   enable-background="new 0 0 442.7 220.7"
   viewBox="0 0 442.7 220.7"
   y="0px"
   x="0px"
   version="1.1"><metadata
   id="metadata234"><rdf:RDF><cc:Work
       rdf:about=""><dc:format>image/svg+xml</dc:format><dc:type
         rdf:resource="http://purl.org/dc/dcmitype/StillImage" /></cc:Work></rdf:RDF></metadata><defs
   id="defs232">
	
	
	
	
	
	
	
	
	
	
	
	
	
	
	
	
	
	
	
	
	
</defs><sodipodi:namedview
   inkscape:current-layer="svg228"
   inkscape:window-maximized="0"
   inkscape:window-y="25"
   inkscape:window-x="0"
   inkscape:cy="286.46058"
   inkscape:cx="213.27153"
   inkscape:zoom="2.4757172"
   showgrid="false"
   id="namedview230"
   inkscape:window-height="769"
   inkscape:window-width="1440"
   inkscape:pageshadow="2"
   inkscape:pageopacity="0"
   guidetolerance="10"
   gridtolerance="10"
   objecttolerance="10"
   borderopacity="1"
   bordercolor="#666666"
   pagecolor="#ffffff"
   inkscape:document-rotation="0" />
<g
   id="Layer_2">
	<circle
   id="circle10"
   r="5"
   cy="114.8"
   cx="241.9"
   stroke-miterlimit="10"
   stroke="#000000"
   fill="#FFFFFF" />
	<circle
   id="circle12"
   r="5"
   cy="114.8"
   cx="281.9"
   stroke-miterlimit="10"
   stroke="#000000"
   fill="#FFFFFF" />
	<circle
   id="circle14"
   r="5"
   cy="114.8"
   cx="202.8"
   stroke-miterlimit="10"
   stroke="#000000"
   fill="#FFFFFF" />
	<circle
   id="circle16"
   r="5"
   cy="124.8"
   cx="162.8"
   stroke-miterlimit="10"
   stroke="#000000"
   fill="#FFFFFF" />
	<circle
   id="circle18"
   r="5"
   cy="144.8"
   cx="182.8"
   stroke-miterlimit="10"
   stroke="#000000"
   fill="#FFFFFF" />
	<circle
   id="circle20"
   r="5"
   cy="140.8"
   cx="220.8"
   stroke-miterlimit="10"
   stroke="#000000"
   fill="#8DC63F" />
	<circle
   id="circle22"
   r="5"
   cy="140.8"
   cx="260.9"
   stroke-miterlimit="10"
   stroke="#000000"
   fill="#FFFFFF" />
	<circle
   id="circle24"
   r="5.2"
   cy="90.6"
   cx="263.1"
   stroke-miterlimit="10"
   stroke-width="1.0459"
   stroke="#000000"
   fill="#8DC63F" />
	<circle
   id="circle26"
   r="5"
   cy="88.8"
   cx="220.8"
   stroke-miterlimit="10"
   stroke="#000000"
   fill="#FFFFFF" />
	<circle
   id="circle28"
   r="5"
   cy="90.8"
   cx="180.8"
   stroke-miterlimit="10"
   stroke="#000000"
   fill="#FFFFFF" />
	<circle
   id="circle30"
   r="5"
   cy="137"
   cx="123.9"
   stroke-miterlimit="10"
   stroke="#000000"
   fill="#FFFFFF" />
	<circle
   id="circle32"
   r="5"
   cy="148.7"
   cx="86.6"
   stroke-miterlimit="10"
   stroke="#000000"
   fill="#FFFFFF" />
	<circle
   id="circle34"
   r="5"
   cy="168"
   cx="44.7"
   stroke-miterlimit="10"
   stroke="#000000"
   fill="#8DC63F" />
	<circle
   id="circle36"
   r="5"
   cy="180.1"
   cx="73.5"
   stroke-miterlimit="10"
   stroke="#000000"
   fill="#FFFFFF" />
	<circle
   id="circle38"
   r="5"
   cy="164.1"
   cx="111.6"
   stroke-miterlimit="10"
   stroke="#000000"
   fill="#8DC63F" />
	<circle
   id="circle40"
   r="5"
   cy="151.1"
   cx="149.8"
   stroke-miterlimit="10"
   stroke="#000000"
   fill="#FFFFFF" />
	<circle
   id="circle42"
   r="5"
   cy="106.4"
   cx="134.2"
   stroke-miterlimit="10"
   stroke="#000000"
   fill="#8DC63F" />
	<circle
   id="circle44"
   r="5"
   cy="118.5"
   cx="96"
   stroke-miterlimit="10"
   stroke="#000000"
   fill="#FFFFFF" />
	<circle
   id="circle46"
   r="5"
   cy="132.4"
   cx="58.4"
   stroke-miterlimit="10"
   stroke="#000000"
   fill="#8DC63F" />
	<circle
   id="circle48"
   r="5"
   cy="198.7"
   cx="44.7"
   stroke-miterlimit="10"
   stroke="#000000"
   fill="#FFFFFF" />
	<circle
   id="circle50"
   r="5"
   cy="202.7"
   cx="8.7"
   stroke-miterlimit="10"
   stroke="#000000"
   fill="#FFFFFF" />
	<circle
   id="circle52"
   r="5"
   cy="177"
   cx="427.8"
   stroke-miterlimit="10"
   stroke="#000000"
   fill="#FFFFFF" />
	<circle
   id="circle54"
   r="5"
   cy="153.5"
   cx="395.3"
   stroke-miterlimit="10"
   stroke="#000000"
   fill="#8DC63F" />
	<circle
   id="circle56"
   r="5"
   cy="185.2"
   cx="394.7"
   stroke-miterlimit="10"
   stroke="#000000"
   fill="#8DC63F" />
	<circle
   id="circle58"
   r="5"
   cy="208.6"
   cx="427.1"
   stroke-miterlimit="10"
   stroke="#000000"
   fill="#FFFFFF" />
	<circle
   id="circle60"
   r="5"
   cy="167.6"
   cx="10.1"
   stroke-miterlimit="10"
   stroke="#000000"
   fill="#FFFFFF" />
	<circle
   id="circle62"
   r="5"
   cy="219.3"
   cx="22.7"
   stroke-miterlimit="10"
   stroke="#000000"
   fill="#8DC63F" />
	<circle
   id="circle64"
   r="5"
   cy="166.5"
   cx="457.6"
   stroke-miterlimit="10"
   stroke="#000000"
   fill="#FFFFFF" />
	<circle
   id="circle66"
   r="5"
   cy="144.6"
   cx="424"
   stroke-miterlimit="10"
   stroke="#000000"
   fill="#FFFFFF" />
	<circle
   id="circle68"
   r="5"
   cy="140.5"
   cx="356.7"
   stroke-miterlimit="10"
   stroke="#000000"
   fill="#FFFFFF" />
	<circle
   id="circle70"
   r="5"
   cy="128.2"
   cx="319.7"
   stroke-miterlimit="10"
   stroke="#000000"
   fill="#FFFFFF" />
	<circle
   id="circle72"
   r="5"
   cy="146"
   cx="290.5"
   stroke-miterlimit="10"
   stroke="#000000"
   fill="#8DC63F" />
	<circle
   id="circle74"
   r="5"
   cy="158.6"
   cx="328.5"
   stroke-miterlimit="10"
   stroke="#000000"
   fill="#FFFFFF" />
	<circle
   id="circle76"
   r="5"
   cy="171.2"
   cx="366.5"
   stroke-miterlimit="10"
   stroke="#000000"
   fill="#FFFFFF" />
	<circle
   id="circle78"
   r="5"
   cy="121.9"
   cx="382.9"
   stroke-miterlimit="10"
   stroke="#000000"
   fill="#FFFFFF" />
	<circle
   id="circle80"
   r="5"
   cy="109.2"
   cx="345"
   stroke-miterlimit="10"
   stroke="#000000"
   fill="#8DC63F" />
	<circle
   id="circle82"
   r="5"
   cy="98.5"
   cx="306.3"
   stroke-miterlimit="10"
   stroke="#000000"
   fill="#FFFFFF" />
	<circle
   id="circle84"
   r="5"
   cy="16.5"
   cx="306.3"
   stroke-miterlimit="10"
   stroke="#000000"
   fill="#FFFFFF" />
	<circle
   id="circle86"
   r="5"
   cy="29.8"
   cx="305.9"
   stroke-miterlimit="10"
   stroke="#000000"
   fill="#8DC63F" />
</g>
<path
   id="path89"
   d="m 91.6,36.7 c -5.9,3.8 -8.8,8 -8.8,12.5 0.1,4.8 3.1,8.9 8.8,12.5 C 76,62.5 71.8,69.8 79,83.6 65.2,76.4 57.9,80.6 57.2,96.1 53.4,90.2 49.2,87.3 44.7,87.3 40,87.4 35.8,90.4 32.2,96.1 31.5,80.5 24.3,76.4 10.4,83.6 17.6,69.8 13.4,62.6 -2.1,61.8 3.8,58 6.7,53.8 6.7,49.3 6.6,44.6 3.6,40.4 -2.1,36.8 13.5,36.1 17.6,28.9 10.4,15.1 c 13.8,7.1 21.1,3 21.8,-12.5 3.7,5.7 7.8,8.6 12.5,8.7 4.6,0.1 8.8,-2.8 12.5,-8.7 C 57.9,18 65.2,22.2 79,15 71.8,28.8 76,36.1 91.6,36.7 Z M 44.7,20 c -5.3,0 -10.2,1.3 -14.7,3.9 -4.5,2.6 -8.1,6.2 -10.7,10.7 -2.6,4.5 -3.9,9.4 -3.9,14.7 0,5.3 1.3,10.2 3.9,14.7 2.6,4.5 6.1,8.1 10.7,10.7 4.5,2.6 9.4,3.9 14.7,3.9 5.3,0 10.2,-1.3 14.7,-3.9 C 63.9,72.1 67.5,68.6 70.1,64 72.7,59.5 74,54.6 74,49.3 74,44 72.7,39.1 70.1,34.6 67.5,30.1 64,26.6 59.4,23.9 55,21.3 50,20 44.7,20 Z m 0,52.7 c -6.5,0 -12,-2.3 -16.6,-6.9 -4.6,-4.6 -6.9,-10.1 -6.9,-16.6 0,-6.5 2.3,-12 6.9,-16.6 4.6,-4.6 10.1,-6.9 16.6,-6.9 6.5,0 12,2.3 16.6,6.9 4.6,4.6 6.9,10.1 6.9,16.6 0,6.5 -2.3,12 -6.9,16.6 -4.6,4.6 -10.1,6.9 -16.6,6.9 z"
   fill="#010101" /><circle
   id="circle91"
   r="312"
   cy="465.60001"
   cx="231.2"
   fill="#010101" /><g
   id="g95">
		<path
   id="path93"
   d="m 186.5,167.2 c -8.8,0 -16,7.2 -16,16 0,8.8 7.2,16 16,16 8.8,0 16,-7.2 16,-16 0,-8.8 -7.1,-16 -16,-16 z m 0,29.4 c -7.4,0 -13.3,-6 -13.3,-13.3 0,-7.4 6,-13.3 13.3,-13.3 7.4,0 13.3,6 13.3,13.3 0.1,7.3 -5.9,13.3 -13.3,13.3 z m 5,-22 c -0.1,-0.2 -0.1,-0.3 -0.1,-0.5 -0.9,0.5 -1.8,1.1 -2.6,1.7 0.4,0.1 1.5,0.2 1.3,0.8 -0.1,0.4 -2.6,4.5 -3.3,5.8 0,0 -0.5,0.7 -0.4,0.8 -0.5,-0.5 -1,-1 -1.5,-1.5 -0.5,-0.5 -1.6,-1.1 -0.8,-1.9 -0.9,0 -1.9,0.2 -2.7,-0.1 0.4,0.8 0.6,1.7 0.8,2.6 0.2,-0.3 0.4,-0.7 0.8,-0.6 0.3,0.1 0.5,0.5 0.7,0.7 0.3,0.3 0.6,0.4 0.9,0.7 0.4,0.4 0.8,0.8 1.2,1.3 0.3,0.3 0.6,0.4 0.9,0.4 0.1,0 0.1,0 0.2,0 0.4,-0.1 0.8,-0.3 1,-0.7 1.1,-2.1 2.8,-6.1 3.3,-6.8 0.4,-0.6 0.9,-0.4 1.5,-0.1 -0.2,-0.5 -0.5,-1 -0.7,-1.5 -0.2,-0.4 -0.4,-0.7 -0.5,-1.1 z m -6.3,18 h 2.7 v 1.3 h -2.7 z m 0,-21.4 h 2.7 v 1.3 h -2.7 z m -10.7,10.7 h 2.7 v 1.3 h -2.7 z m 21.4,0 h 2.7 v 1.3 h -2.7 z"
   fill="#00aeef" />
	</g><g
   id="g101">
		<circle
   id="circle97"
   r="5"
   cy="186"
   cx="131.3"
   fill="#ed1c24" />
		<circle
   id="circle99"
   r="10"
   cy="186"
   cx="131.3"
   stroke-miterlimit="10"
   stroke-width="3"
   stroke="#ed1c24"
   fill="none" />
	</g><g
   id="g111">
		<g
   id="g109">
			<polyline
   id="polyline103"
   points="68,85.3 66.7,101.8 81.8,106.9      79.8,122.3 95.7,128.5 93.6,143.8 108.3,148.2 106,163.2 120.2,167.4 125.7,176    "
   stroke-miterlimit="10"
   stroke-width="6.5494"
   stroke="#f9ed32"
   fill="none" />
			<g
   id="g107">
				<path
   id="path105"
   d="m 131,184.4 c -4,-3 -9.5,-6.3 -14.1,-7.6 l 8.1,-1.8 5,-6.6 c -0.6,4.7 0,11.1 1,16 z"
   fill="#f9ed32" />
			</g>
		</g>
	</g><g
   id="g115">
		<path
   id="path113"
   d="M 290.1,80.9"
   fill="none" />
	</g><g
   id="g125">
		<g
   id="g123">
			<path
   id="path117"
   d="m 240.5,168.9 c 0,0 3,3.4 10,-9.8 7,-13.2 -6.8,-19.5 -1.7,-34.4 4.1,-12.1 10,-16.8 12.4,-23.5"
   stroke-miterlimit="10"
   stroke-width="3.3559"
   stroke="#ed1c24"
   fill="none" />
			<g
   id="g121">
				<path
   id="path119"
   d="m 262.3,96.3 c 0.3,2.5 1.1,5.7 2.3,7.9 l -3.6,-2.3 -4.2,0.5 c 2,-1.5 4.1,-4 5.5,-6.1 z"
   fill="#ed1c24" />
			</g>
		</g>
	</g><g
   id="g131">
		<circle
   id="circle127"
   r="5"
   cy="170"
   cx="242.39999"
   fill="#ed1c24" />
		<circle
   id="circle129"
   r="10"
   cy="170"
   cx="242.39999"
   stroke-miterlimit="10"
   stroke-width="3"
   stroke="#ed1c24"
   fill="none" />
	</g><g
   id="g137">
		<circle
   id="circle133"
   r="2.2"
   cy="90.699997"
   cx="263"
   fill="#ed1c24" />
		<circle
   id="circle135"
   r="4.5"
   cy="90.699997"
   cx="263"
   stroke-miterlimit="10"
   stroke-width="1.35"
   stroke="#ed1c24"
   fill="none" />
	</g><g
   id="g147">
		<g
   id="g145">
			<path
   id="path139"
   d="m 266.9,92.6 c 0,0 -0.9,0.6 0.8,2.8 1.7,2.2 4.1,-0.7 6.3,1.1 1.7,1.4 2,3 2.9,3.8"
   stroke-miterlimit="10"
   stroke-width="0.7183"
   stroke="#ed1c24"
   fill="none" />
			<g
   id="g143">
				<path
   id="path141"
   d="m 277.8,100.9 c -0.5,-0.1 -1.2,-0.2 -1.7,-0.2 l 0.7,-0.5 0.2,-0.9 c 0.1,0.5 0.5,1.2 0.8,1.6 z"
   fill="#ed1c24" />
			</g>
		</g>
	</g><g
   id="g157">
		<g
   id="g155">
			<path
   id="path149"
   d="m 267.1,88.5 c 0,0 -0.1,1 2.7,1.1 2.8,0 2,-3.7 4.8,-4.2 2.2,-0.4 3.6,0.2 4.8,0.1"
   stroke-miterlimit="10"
   stroke-width="0.7183"
   stroke="#ed1c24"
   fill="none" />
			<g
   id="g153">
				<path
   id="path151"
   d="m 280.4,85.1 c -0.4,0.3 -0.9,0.8 -1.2,1.3 v -0.9 l -0.6,-0.7 c 0.5,0.1 1.2,0.2 1.8,0.3 z"
   fill="#ed1c24" />
			</g>
		</g>
	</g><g
   id="g167">
		<g
   id="g165">
			<path
   id="path159"
   d="m 262.3,86.2 c 0,0 0.9,0.5 2.1,-2 1.3,-2.5 -2.4,-3.4 -1.7,-6.1 0.5,-2.2 1.8,-3.1 2.2,-4.3"
   stroke-miterlimit="10"
   stroke-width="0.7183"
   stroke="#ed1c24"
   fill="none" />
			<g
   id="g163">
				<path
   id="path161"
   d="m 265,72.8 c 0.1,0.5 0.3,1.2 0.6,1.6 l -0.8,-0.4 -0.9,0.2 c 0.4,-0.4 0.8,-1 1.1,-1.4 z"
   fill="#ed1c24" />
			</g>
		</g>
	</g><g
   id="g177">
		<g
   id="g175">
			<path
   id="path169"
   d="m 258.7,88.2 c 0,0 1,-0.3 -0.1,-2.9 -1.1,-2.6 -4.1,-0.3 -5.8,-2.6 -1.3,-1.8 -1.2,-3.4 -1.9,-4.4"
   stroke-miterlimit="10"
   stroke-width="0.7183"
   stroke="#ed1c24"
   fill="none" />
			<g
   id="g173">
				<path
   id="path171"
   d="m 250.2,77.4 c 0.5,0.3 1.1,0.5 1.7,0.6 l -0.8,0.3 -0.4,0.8 c -0.1,-0.5 -0.3,-1.2 -0.5,-1.7 z"
   fill="#ed1c24" />
			</g>
		</g>
	</g><g
   id="g187">
		<g
   id="g185">
			<path
   id="path179"
   d="m 259,92.7 c 0,0 0.1,-1 -2.7,-1.1 -2.8,-0.1 -2,3.6 -4.8,4.1 -2.2,0.4 -3.6,-0.3 -4.8,-0.2"
   stroke-miterlimit="10"
   stroke-width="0.7183"
   stroke="#ed1c24"
   fill="none" />
			<g
   id="g183">
				<path
   id="path181"
   d="m 245.6,95.8 c 0.4,-0.3 1,-0.8 1.2,-1.3 l -0.1,0.9 0.5,0.7 c -0.3,-0.1 -1,-0.3 -1.6,-0.3 z"
   fill="#ed1c24" />
			</g>
		</g>
	</g><g
   id="g197">
		<g
   id="g195">
			<line
   id="line189"
   y2="43.099998"
   x2="308.39999"
   y1="43.099998"
   x1="298.79999"
   stroke-miterlimit="10"
   stroke-width="3"
   stroke="#ed1c24"
   fill="none" />
			<g
   id="g193">
				<path
   id="path191"
   d="m 313.8,43.1 c -2.6,0.9 -5.7,2.6 -7.7,4.3 l 1.5,-4.3 -1.5,-4.3 c 2,1.8 5.2,3.4 7.7,4.3 z"
   fill="#ed1c24" />
			</g>
		</g>
	</g><g
   id="g207">
		<g
   id="g205">
			<line
   id="line199"
   y2="56.5"
   x2="308.39999"
   y1="56.5"
   x1="298.79999"
   stroke-miterlimit="10"
   stroke-width="3"
   stroke="#f9ed32"
   fill="none" />
			<g
   id="g203">
				<path
   id="path201"
   d="m 313.8,56.5 c -2.6,0.9 -5.7,2.6 -7.7,4.3 l 1.5,-4.3 -1.5,-4.3 c 2,1.7 5.2,3.3 7.7,4.3 z"
   fill="#f9ed32" />
			</g>
		</g>
	</g><g
   aria-label="Atmósfera"
   id="text209"
   style="font-size:12px;font-family:MyriadPro-Regular"><path
     d="m 320.324,20.058501 q -0.156,0 -0.252,-0.048 -0.096,-0.036 -0.096,-0.108 0,-0.084 0.096,-0.144 0.108,-0.072 0.3,-0.132 0.312,-0.096 0.576,-0.288 0.264,-0.192 0.456,-0.636 0.336,-0.768 0.612,-1.44 0.288,-0.672 0.54,-1.32 0.252,-0.648 0.516,-1.344 0.276,-0.708 0.576,-1.536 0.06,-0.168 0.108,-0.336 0.048,-0.168 0.06,-0.36 0.108,-0.036 0.216,-0.072 0.108,-0.036 0.216,-0.108 0.108,-0.072 0.144,-0.216 0.048,-0.144 0.084,-0.192 0.012,-0.012 0.024,-0.012 0.024,0 0.036,0.024 0.024,0.048 0.036,0.12 0.024,0.072 0.048,0.144 0.288,0.912 0.6,1.86 0.312,0.948 0.6,1.836 0.3,0.876 0.54,1.584 0.252,0.696 0.396,1.128 0.168,0.48 0.36,0.72 0.192,0.24 0.396,0.336 0.216,0.096 0.456,0.144 0.204,0.036 0.3,0.12 0.096,0.072 0.096,0.156 0,0.072 -0.096,0.096 -0.096,0.024 -0.252,0.024 -0.168,0 -0.456,-0.024 -0.288,-0.012 -0.612,-0.036 -0.324,-0.012 -0.6,-0.012 -0.228,0 -0.468,0 -0.24,0 -0.444,0.012 -0.204,0 -0.348,0 -0.156,0 -0.252,-0.036 -0.096,-0.036 -0.096,-0.108 0,-0.084 0.12,-0.144 0.12,-0.06 0.276,-0.084 0.396,-0.06 0.564,-0.204 0.168,-0.144 0.168,-0.336 0,-0.18 -0.084,-0.516 -0.072,-0.348 -0.18,-0.732 -0.108,-0.396 -0.204,-0.696 -0.024,-0.096 -0.096,-0.108 -0.06,-0.024 -0.228,-0.024 h -2.268 q -0.048,0 -0.108,0.048 -0.048,0.036 -0.096,0.168 -0.036,0.12 -0.12,0.384 -0.084,0.252 -0.168,0.54 -0.084,0.288 -0.144,0.516 -0.06,0.228 -0.06,0.288 0,0.264 0.204,0.444 0.204,0.168 0.492,0.24 0.396,0.108 0.396,0.24 0,0.072 -0.096,0.108 -0.096,0.024 -0.252,0.024 -0.156,0 -0.456,-0.012 -0.3,-0.012 -0.636,-0.012 -0.396,0 -0.768,0.036 -0.372,0.036 -0.672,0.036 z m 2.808,-3.444 h 1.86 q 0.168,0 0.168,-0.06 0,-0.024 -0.012,-0.048 0,-0.036 -0.012,-0.072 l -0.936,-2.928 q -0.072,-0.216 -0.108,-0.216 -0.024,0 -0.096,0.204 l -1.092,2.94 q -0.024,0.072 -0.024,0.096 0,0.06 0.06,0.072 0.072,0.012 0.192,0.012 z"
     style="font-style:normal;font-variant:normal;font-weight:normal;font-stretch:normal;font-family:'EB Garamond';-inkscape-font-specification:'EB Garamond'"
     id="path202" /><path
     d="m 330.56487,20.166501 q -0.588,0 -0.924,-0.36 -0.324,-0.36 -0.324,-1.068 v -2.784 q 0,-0.096 -0.072,-0.132 -0.072,-0.048 -0.31199,-0.048 h -0.072 q -0.06,0 -0.108,-0.072 -0.036,-0.084 -0.036,-0.168 0,-0.024 0.036,-0.072 0.036,-0.048 0.048,-0.06 0.24,-0.168 0.43199,-0.336 0.204,-0.168 0.36,-0.324 0.168,-0.168 0.276,-0.3 0.06,-0.06 0.096,-0.096 0.048,-0.048 0.108,-0.048 0.06,0 0.10801,0.024 0.06,0.024 0.048,0.108 l -0.06,0.54 q -0.012,0.132 0.06,0.18 0.072,0.048 0.228,0.048 h 1.368 q 0.048,0 0.084,0.084 0.036,0.072 0.036,0.18 0,0.108 -0.036,0.216 -0.036,0.096 -0.084,0.096 h -1.18801 q -0.29999,0 -0.39599,0.048 -0.084,0.048 -0.084,0.288 v 2.364 q 0,0.48 0.204,0.756 0.20399,0.276 0.58799,0.276 0.348,0 0.54,-0.048 0.19201,-0.06 0.34801,-0.168 0.024,-0.024 0.048,-0.024 0.048,0 0.06,0.06 0.024,0.048 0.024,0.108 0,0.06 -0.204,0.24 -0.19201,0.18 -0.51601,0.336 -0.312,0.156 -0.684,0.156 z"
     style="font-style:normal;font-variant:normal;font-weight:normal;font-stretch:normal;font-family:'EB Garamond';-inkscape-font-specification:'EB Garamond'"
     id="path204" /><path
     d="m 332.59831,20.034501 q -0.096,0 -0.168,-0.024 -0.072,-0.024 -0.072,-0.108 0,-0.084 0.072,-0.12 0.084,-0.036 0.204,-0.072 0.168,-0.06 0.336,-0.132 0.18,-0.084 0.18,-0.324 v -2.58 q 0,-0.324 -0.072,-0.564 -0.072,-0.252 -0.384,-0.3 -0.048,-0.012 -0.084,-0.048 -0.024,-0.036 -0.024,-0.108 0,-0.12 0.096,-0.144 0.324,-0.084 0.516,-0.168 0.192,-0.096 0.336,-0.204 0.156,-0.12 0.372,-0.252 0.024,-0.012 0.048,-0.024 0.024,-0.024 0.06,-0.024 0.072,0 0.072,0.084 0,0.084 -0.036,0.348 -0.024,0.252 -0.024,0.42 0,0.12 0.024,0.144 h 0.024 q 0.276,-0.264 0.72,-0.528 0.456,-0.276 1.152,-0.276 0.432,0 0.72,0.192 0.288,0.18 0.48,0.636 h 0.036 q 0.384,-0.348 0.876,-0.588 0.492,-0.24 1.08,-0.24 0.396,0 0.66,0.24 0.264,0.24 0.396,0.624 0.144,0.384 0.144,0.804 v 2.556 q 0,0.24 0.168,0.324 0.168,0.072 0.348,0.132 0.12,0.036 0.192,0.072 0.084,0.036 0.084,0.12 0,0.072 -0.06,0.096 -0.048,0.036 -0.18,0.036 -0.24,0 -0.372,-0.024 -0.132,-0.012 -0.252,-0.024 -0.108,-0.012 -0.324,-0.012 -0.204,0 -0.336,0.012 -0.132,0.012 -0.276,0.024 -0.144,0.024 -0.384,0.024 -0.108,0 -0.18,-0.036 -0.06,-0.024 -0.06,-0.096 0,-0.096 0.072,-0.132 0.084,-0.036 0.204,-0.06 0.192,-0.048 0.348,-0.132 0.168,-0.084 0.168,-0.324 v -2.52 q 0,-0.288 -0.132,-0.54 -0.132,-0.264 -0.348,-0.432 -0.216,-0.168 -0.48,-0.168 -0.3,0 -0.564,0.072 -0.252,0.072 -0.48,0.252 -0.336,0.264 -0.336,0.864 v 2.472 q 0,0.24 0.18,0.324 0.18,0.084 0.36,0.132 0.12,0.024 0.192,0.072 0.084,0.036 0.084,0.12 0,0.072 -0.06,0.096 -0.06,0.036 -0.18,0.036 -0.24,0 -0.384,-0.024 -0.132,-0.012 -0.264,-0.024 -0.12,-0.012 -0.336,-0.012 -0.204,0 -0.336,0.012 -0.132,0.012 -0.276,0.024 -0.144,0.024 -0.384,0.024 -0.096,0 -0.168,-0.036 -0.072,-0.024 -0.072,-0.096 0,-0.096 0.084,-0.12 0.096,-0.036 0.192,-0.072 0.18,-0.06 0.348,-0.132 0.18,-0.084 0.18,-0.324 v -2.52 q 0,-0.288 -0.132,-0.54 -0.132,-0.264 -0.348,-0.432 -0.216,-0.168 -0.48,-0.168 -0.3,0 -0.564,0.072 -0.252,0.072 -0.48,0.252 -0.324,0.24 -0.324,0.864 v 2.472 q 0,0.24 0.168,0.324 0.168,0.072 0.348,0.132 0.096,0.036 0.18,0.072 0.096,0.024 0.096,0.12 0,0.072 -0.072,0.096 -0.06,0.036 -0.168,0.036 -0.24,0 -0.384,-0.024 -0.132,-0.012 -0.252,-0.024 -0.12,-0.012 -0.336,-0.012 -0.204,0 -0.336,0.012 -0.12,0.012 -0.264,0.024 -0.132,0.024 -0.372,0.024 z"
     style="font-style:normal;font-variant:normal;font-weight:normal;font-stretch:normal;font-family:'EB Garamond';-inkscape-font-specification:'EB Garamond'"
     id="path206" /><path
     d="m 344.20644,20.166501 q -0.672,0 -1.212,-0.312 -0.54,-0.312 -0.864,-0.852 -0.312,-0.552 -0.312,-1.248 0,-0.504 0.192,-0.984 0.204,-0.48 0.564,-0.876 0.36,-0.396 0.84,-0.624 0.48,-0.24 1.032,-0.24 0.696,0 1.248,0.336 0.564,0.336 0.888,0.888 0.336,0.54 0.336,1.188 0,0.696 -0.312,1.32 -0.3,0.624 -0.9,1.02 -0.6,0.384 -1.5,0.384 z m 0.252,-0.36 q 0.408,0 0.732,-0.156 0.324,-0.156 0.504,-0.504 0.144,-0.276 0.192,-0.672 0.048,-0.396 0.048,-0.744 0,-0.576 -0.216,-1.104 -0.204,-0.54 -0.588,-0.876 -0.372,-0.348 -0.888,-0.348 -0.324,0 -0.588,0.108 -0.252,0.096 -0.468,0.372 -0.24,0.3 -0.312,0.732 -0.072,0.432 -0.072,0.864 0,0.588 0.216,1.128 0.216,0.528 0.588,0.864 0.372,0.336 0.852,0.336 z m -0.3,-5.292 q -0.096,0 -0.096,-0.108 0,-0.036 0.012,-0.084 0.012,-0.06 0.036,-0.132 0.084,-0.228 0.264,-0.576 0.192,-0.36 0.372,-0.696 0.192,-0.336 0.288,-0.492 0.06,-0.096 0.144,-0.156 0.096,-0.06 0.18,-0.06 0.228,0 0.408,0.06 0.18,0.06 0.18,0.192 0,0.072 -0.036,0.12 -0.024,0.048 -0.084,0.132 -0.144,0.204 -0.396,0.516 -0.24,0.3 -0.492,0.588 -0.252,0.288 -0.408,0.444 -0.252,0.252 -0.372,0.252 z"
     style="font-style:normal;font-variant:normal;font-weight:normal;font-stretch:normal;font-family:'EB Garamond';-inkscape-font-specification:'EB Garamond'"
     id="path208" /><path
     d="m 349.05612,20.166501 q -0.372,0 -0.696,-0.12 -0.32399,-0.108 -0.55199,-0.312 -0.06,-0.132 -0.096,-0.444 -0.024,-0.312 -0.036,-0.516 0,-0.108 0.156,-0.108 0.048,0 0.084,0.024 0.048,0.012 0.06,0.06 0.15599,0.588 0.49199,0.84 0.348,0.252 0.69601,0.252 0.348,0 0.58799,-0.228 0.252,-0.24 0.252,-0.588 0,-0.324 -0.216,-0.552 -0.21599,-0.24 -0.756,-0.576 -0.408,-0.252 -0.66,-0.48 -0.252,-0.228 -0.37199,-0.468 -0.108,-0.24 -0.108,-0.54 0,-0.384 0.18,-0.696 0.17999,-0.312 0.53999,-0.492 0.36,-0.192 0.90001,-0.192 0.35999,0 0.59999,0.072 0.24,0.072 0.36,0.156 0.096,0.132 0.156,0.42 0.072,0.276 0.072,0.528 0,0.084 -0.12001,0.084 -0.072,0 -0.144,-0.024 -0.06,-0.036 -0.084,-0.084 -0.156,-0.396 -0.396,-0.6 -0.228,-0.216 -0.57599,-0.216 -0.30001,0 -0.54001,0.18 -0.228,0.18 -0.228,0.528 0,0.276 0.168,0.492 0.18,0.216 0.66001,0.492 0.69599,0.396 1.03199,0.744 0.34801,0.336 0.34801,0.9 0,0.648 -0.49201,1.056 -0.492,0.408 -1.272,0.408 z"
     style="font-style:normal;font-variant:normal;font-weight:normal;font-stretch:normal;font-family:'EB Garamond';-inkscape-font-specification:'EB Garamond'"
     id="path210" /><path
     d="m 351.72331,20.034501 q -0.12,0 -0.18,-0.036 -0.06,-0.024 -0.06,-0.096 0,-0.096 0.072,-0.132 0.084,-0.036 0.204,-0.06 0.276,-0.06 0.396,-0.168 0.12,-0.12 0.12,-0.36 v -3.384 q -0.12,0 -0.276,0 -0.156,-0.012 -0.348,-0.024 -0.036,-0.012 -0.108,-0.084 -0.06,-0.072 -0.06,-0.132 0,-0.024 0.036,-0.036 0.036,-0.024 0.048,-0.036 0.216,-0.108 0.372,-0.192 0.156,-0.084 0.336,-0.168 0,-1.044 0.252,-1.74 0.264,-0.696 0.672,-1.104 0.408,-0.408 0.864,-0.576 0.456,-0.18 0.852,-0.18 0.672,0 0.996,0.204 0.324,0.204 0.324,0.516 0,0.24 -0.12,0.36 -0.12,0.12 -0.288,0.12 -0.108,0 -0.204,-0.084 -0.084,-0.084 -0.204,-0.192 -0.156,-0.156 -0.384,-0.288 -0.228,-0.144 -0.624,-0.144 -0.564,0 -0.936,0.492 -0.36,0.492 -0.36,1.512 v 1.056 q 0,0.072 0.036,0.096 0.048,0.024 0.096,0.024 h 1.5 q 0.06,0 0.108,0.036 0.048,0.036 0.048,0.096 0,0.084 -0.024,0.18 -0.012,0.096 -0.048,0.168 -0.036,0.096 -0.108,0.096 h -1.38 q -0.144,0 -0.192,0.048 -0.036,0.036 -0.036,0.108 v 3.252 q 0,0.24 0.156,0.36 0.156,0.108 0.636,0.168 0.276,0.036 0.276,0.192 0,0.072 -0.06,0.096 -0.06,0.036 -0.18,0.036 -0.36,0 -0.636,-0.036 -0.276,-0.024 -0.588,-0.024 -0.204,0 -0.336,0.012 -0.132,0.012 -0.276,0.024 -0.144,0.024 -0.384,0.024 z"
     style="font-style:normal;font-variant:normal;font-weight:normal;font-stretch:normal;font-family:'EB Garamond';-inkscape-font-specification:'EB Garamond'"
     id="path212" /><path
     d="m 357.26694,20.178501 q -0.66,0 -1.152,-0.324 -0.492,-0.324 -0.768,-0.912 -0.276,-0.6 -0.276,-1.38 0,-0.696 0.312,-1.26 0.324,-0.576 0.852,-0.924 0.528,-0.348 1.152,-0.348 0.48,0 0.852,0.192 0.372,0.192 0.576,0.54 0.216,0.336 0.216,0.78 0,0.372 -0.36,0.372 h -2.532 q -0.168,0 -0.24,0.096 -0.06,0.084 -0.06,0.348 0,0.576 0.252,1.056 0.252,0.468 0.672,0.756 0.42,0.276 0.924,0.276 0.36,0 0.648,-0.132 0.3,-0.144 0.528,-0.408 0.048,-0.06 0.072,-0.072 0.024,-0.024 0.06,-0.024 0.096,0 0.096,0.12 0,0.228 -0.216,0.504 -0.18,0.228 -0.432,0.396 -0.252,0.168 -0.552,0.252 -0.3,0.096 -0.624,0.096 z m -1.104,-3.636 h 1.092 q 0.288,0 0.492,-0.012 0.204,-0.012 0.396,-0.048 0.06,-0.012 0.072,-0.072 0.024,-0.072 0.024,-0.192 0,-0.348 -0.312,-0.588 -0.3,-0.252 -0.72,-0.252 -0.276,0 -0.552,0.168 -0.276,0.156 -0.456,0.396 -0.18,0.24 -0.18,0.48 0,0.12 0.144,0.12 z"
     style="font-style:normal;font-variant:normal;font-weight:normal;font-stretch:normal;font-family:'EB Garamond';-inkscape-font-specification:'EB Garamond'"
     id="path214" /><path
     d="m 359.98644,20.034501 q -0.12,0 -0.18,-0.036 -0.06,-0.024 -0.06,-0.096 0,-0.096 0.072,-0.12 0.072,-0.036 0.204,-0.072 0.228,-0.06 0.336,-0.168 0.12,-0.12 0.12,-0.288 v -2.58 q 0,-0.324 -0.096,-0.564 -0.096,-0.24 -0.396,-0.3 -0.048,-0.012 -0.084,-0.06 -0.036,-0.048 -0.036,-0.096 0,-0.12 0.108,-0.144 0.312,-0.096 0.648,-0.276 0.348,-0.192 0.54,-0.312 0.072,-0.048 0.108,-0.06 0.048,-0.024 0.072,-0.024 0.06,0 0.06,0.084 0,0.036 -0.012,0.18 0,0.144 -0.012,0.336 0,0.192 -0.012,0.384 0,0.024 0.024,0.024 0.192,-0.24 0.42,-0.42 0.24,-0.18 0.48,-0.288 0.252,-0.108 0.48,-0.108 0.252,0 0.408,0.108 0.168,0.108 0.168,0.276 0,0.12 -0.072,0.264 -0.06,0.144 -0.168,0.252 -0.108,0.108 -0.228,0.108 -0.072,0 -0.156,-0.024 -0.084,-0.036 -0.18,-0.084 -0.096,-0.036 -0.192,-0.072 -0.096,-0.036 -0.192,-0.036 -0.288,0 -0.564,0.204 -0.264,0.204 -0.264,0.804 v 2.424 q 0,0.156 0.168,0.264 0.168,0.096 0.468,0.192 0.132,0.036 0.204,0.072 0.072,0.036 0.072,0.12 0,0.132 -0.24,0.132 -0.36,0 -0.552,-0.036 -0.18,-0.024 -0.492,-0.024 -0.204,0 -0.336,0.012 -0.12,0.012 -0.264,0.024 -0.132,0.024 -0.372,0.024 z"
     style="font-style:normal;font-variant:normal;font-weight:normal;font-stretch:normal;font-family:'EB Garamond';-inkscape-font-specification:'EB Garamond'"
     id="path216" /><path
     d="m 364.81025,20.166501 q -0.216,0 -0.444,-0.168 -0.216,-0.168 -0.372,-0.408 -0.144,-0.24 -0.144,-0.456 0,-0.384 0.204,-0.6 0.204,-0.216 0.648,-0.396 l 1.224,-0.504 q 0.24,-0.096 0.276,-0.168 0.048,-0.072 0.06,-0.312 l 0.024,-0.768 q 0.012,-0.312 -0.18,-0.54 -0.18,-0.228 -0.528,-0.228 -0.18,0 -0.36,0.06 -0.18,0.06 -0.3,0.156 -0.072,0.048 -0.096,0.144 -0.024,0.096 -0.024,0.204 0,0.048 0,0.108 0.012,0.06 0.012,0.108 0,0.06 -0.156,0.168 -0.144,0.096 -0.336,0.18 -0.18,0.072 -0.3,0.072 -0.06,0 -0.096,-0.024 -0.036,-0.036 -0.036,-0.084 0,-0.192 0.12,-0.408 0.132,-0.228 0.36,-0.42 0.276,-0.252 0.6,-0.444 0.324,-0.192 0.636,-0.3 0.312,-0.108 0.552,-0.108 0.432,0 0.708,0.312 0.288,0.3 0.276,0.756 l -0.06,2.88 q -0.012,0.252 0.108,0.408 0.132,0.156 0.324,0.156 0.3,0 0.444,-0.132 0.06,-0.06 0.096,-0.06 0.06,0 0.096,0.036 0.036,0.036 0.036,0.096 0,0.132 -0.132,0.264 -0.192,0.192 -0.42,0.3 -0.216,0.12 -0.408,0.12 -0.552,0 -0.876,-0.624 h -0.036 q -0.396,0.324 -0.756,0.468 -0.36,0.156 -0.744,0.156 z m 0.564,-0.576 q 0.24,0 0.408,-0.072 0.168,-0.084 0.3,-0.216 0.06,-0.06 0.096,-0.156 0.048,-0.108 0.06,-0.336 l 0.024,-0.588 q 0.012,-0.132 -0.012,-0.192 -0.024,-0.06 -0.096,-0.06 -0.024,0 -0.084,0.012 -0.06,0.012 -0.156,0.048 -0.636,0.228 -0.888,0.48 -0.24,0.24 -0.24,0.444 0,0.312 0.18,0.48 0.192,0.156 0.408,0.156 z"
     style="font-style:normal;font-variant:normal;font-weight:normal;font-stretch:normal;font-family:'EB Garamond';-inkscape-font-specification:'EB Garamond'"
     id="path218" /></g><g
   aria-label="Gas de efecto invernadero"
   id="text211"
   style="font-size:12px;font-family:MyriadPro-Regular"><path
     d="m 324.704,33.5001 q -0.828,0 -1.584,-0.288 -0.744,-0.3 -1.332,-0.828 -0.576,-0.528 -0.912,-1.236 -0.336,-0.72 -0.336,-1.548 0,-0.888 0.348,-1.656 0.348,-0.768 0.96,-1.344 0.612,-0.576 1.404,-0.9 0.804,-0.324 1.704,-0.324 0.204,0 0.552,0.048 0.36,0.036 0.732,0.096 0.384,0.06 0.684,0.132 0.312,0.06 0.432,0.12 0.06,0.024 0.072,0.06 0.024,0.024 0.036,0.084 0.048,0.348 0.084,0.696 0.036,0.336 0.036,0.576 0,0.084 -0.06,0.168 -0.048,0.072 -0.12,0.072 -0.12,0 -0.18,-0.108 -0.06,-0.108 -0.096,-0.216 -0.072,-0.192 -0.156,-0.324 -0.072,-0.144 -0.216,-0.312 -0.072,-0.096 -0.312,-0.24 -0.228,-0.156 -0.624,-0.276 -0.396,-0.12 -0.972,-0.12 -0.696,0 -1.272,0.3 -0.576,0.288 -0.996,0.804 -0.408,0.504 -0.636,1.152 -0.216,0.648 -0.216,1.356 0,0.852 0.264,1.524 0.264,0.672 0.708,1.14 0.444,0.468 1.008,0.708 0.564,0.24 1.164,0.24 0.696,0 1.02,-0.168 0.336,-0.168 0.444,-0.276 0.132,-0.132 0.24,-0.372 0.12,-0.24 0.12,-0.552 0,-0.108 0,-0.228 0.012,-0.12 0.012,-0.24 0.012,-0.12 0.012,-0.228 0,-0.132 -0.012,-0.216 -0.012,-0.096 -0.048,-0.144 -0.096,-0.132 -0.336,-0.216 -0.24,-0.084 -0.48,-0.12 -0.24,-0.036 -0.36,-0.036 -0.048,0 -0.144,-0.06 -0.096,-0.06 -0.096,-0.144 0,-0.096 0.096,-0.144 0.096,-0.06 0.144,-0.06 0.3,0 0.516,0.012 0.216,0.012 0.444,0.024 0.228,0.012 0.552,0.012 0.312,0 0.528,-0.024 0.216,-0.024 0.54,-0.024 0.048,0 0.144,0.036 0.108,0.036 0.108,0.156 0,0.084 -0.108,0.144 -0.096,0.06 -0.144,0.072 -0.264,0.072 -0.372,0.216 -0.096,0.132 -0.132,0.372 -0.036,0.264 -0.048,0.468 -0.012,0.204 -0.012,0.432 v 0.324 q 0,0.06 0.024,0.096 0.024,0.036 0.048,0.096 0.036,0.06 0.096,0.108 0.06,0.048 0.06,0.096 0,0.048 -0.024,0.132 -0.012,0.072 -0.144,0.096 -0.084,0.012 -0.336,0.144 -0.24,0.12 -0.612,0.276 -0.372,0.156 -0.852,0.264 -0.48,0.12 -1.056,0.12 z"
     style="font-style:normal;font-variant:normal;font-weight:normal;font-stretch:normal;font-family:'EB Garamond';-inkscape-font-specification:'EB Garamond'"
     id="path221" /><path
     d="m 330.14619,33.5001 q -0.216,0 -0.444,-0.168 -0.216,-0.168 -0.372,-0.408 -0.144,-0.24 -0.144,-0.456 0,-0.384 0.204,-0.6 0.204,-0.216 0.648,-0.396 l 1.224,-0.504 q 0.24,-0.096 0.276,-0.168 0.048,-0.072 0.06,-0.312 l 0.024,-0.768 q 0.012,-0.312 -0.18,-0.54 -0.18,-0.228 -0.528,-0.228 -0.18,0 -0.36,0.06 -0.18,0.06 -0.3,0.156 -0.072,0.048 -0.096,0.144 -0.024,0.096 -0.024,0.204 0,0.048 0,0.108 0.012,0.06 0.012,0.108 0,0.06 -0.156,0.168 -0.144,0.096 -0.336,0.18 -0.18,0.072 -0.3,0.072 -0.06,0 -0.096,-0.024 -0.036,-0.036 -0.036,-0.084 0,-0.192 0.12,-0.408 0.132,-0.228 0.36,-0.42 0.276,-0.252 0.6,-0.444 0.324,-0.192 0.636,-0.3 0.312,-0.108 0.552,-0.108 0.432,0 0.708,0.312 0.288,0.3 0.276,0.756 l -0.06,2.88 q -0.012,0.252 0.108,0.408 0.132,0.156 0.324,0.156 0.3,0 0.444,-0.132 0.06,-0.06 0.096,-0.06 0.06,0 0.096,0.036 0.036,0.036 0.036,0.096 0,0.132 -0.132,0.264 -0.192,0.192 -0.42,0.3 -0.216,0.12 -0.408,0.12 -0.552,0 -0.876,-0.624 h -0.036 q -0.396,0.324 -0.756,0.468 -0.36,0.156 -0.744,0.156 z m 0.564,-0.576 q 0.24,0 0.408,-0.072 0.168,-0.084 0.3,-0.216 0.06,-0.06 0.096,-0.156 0.048,-0.108 0.06,-0.336 l 0.024,-0.588 q 0.012,-0.132 -0.012,-0.192 -0.024,-0.06 -0.096,-0.06 -0.024,0 -0.084,0.012 -0.06,0.012 -0.156,0.048 -0.636,0.228 -0.888,0.48 -0.24,0.24 -0.24,0.444 0,0.312 0.18,0.48 0.192,0.156 0.408,0.156 z"
     style="font-style:normal;font-variant:normal;font-weight:normal;font-stretch:normal;font-family:'EB Garamond';-inkscape-font-specification:'EB Garamond'"
     id="path223" /><path
     d="m 335.25144,33.5001 q -0.372,0 -0.696,-0.12 -0.324,-0.108 -0.552,-0.312 -0.06,-0.132 -0.096,-0.444 -0.024,-0.312 -0.036,-0.516 0,-0.108 0.156,-0.108 0.048,0 0.084,0.024 0.048,0.012 0.06,0.06 0.156,0.588 0.492,0.84 0.348,0.252 0.696,0.252 0.348,0 0.588,-0.228 0.252,-0.24 0.252,-0.588 0,-0.324 -0.216,-0.552 -0.216,-0.24 -0.756,-0.576 -0.408,-0.252 -0.66,-0.48 -0.252,-0.228 -0.372,-0.468 -0.108,-0.24 -0.108,-0.54 0,-0.384 0.18,-0.696 0.18,-0.312 0.54,-0.492 0.36,-0.192 0.9,-0.192 0.36,0 0.6,0.072 0.24,0.072 0.36,0.156 0.096,0.132 0.156,0.42 0.072,0.276 0.072,0.528 0,0.084 -0.12,0.084 -0.072,0 -0.144,-0.024 -0.06,-0.036 -0.084,-0.084 -0.156,-0.396 -0.396,-0.6 -0.228,-0.216 -0.576,-0.216 -0.3,0 -0.54,0.18 -0.228,0.18 -0.228,0.528 0,0.276 0.168,0.492 0.18,0.216 0.66,0.492 0.696,0.396 1.032,0.744 0.348,0.336 0.348,0.9 0,0.648 -0.492,1.056 -0.492,0.408 -1.272,0.408 z"
     style="font-style:normal;font-variant:normal;font-weight:normal;font-stretch:normal;font-family:'EB Garamond';-inkscape-font-specification:'EB Garamond'"
     id="path225" /><path
     d="m 344.06525,33.5601 q -0.024,0 -0.084,-0.048 -0.048,-0.048 -0.048,-0.072 0,-0.12 0.024,-0.336 0.036,-0.228 0.036,-0.384 v -0.072 q -0.18,0.276 -0.576,0.564 -0.396,0.288 -0.996,0.288 -0.684,0 -1.188,-0.36 -0.492,-0.36 -0.768,-0.924 -0.264,-0.564 -0.264,-1.164 0,-0.696 0.324,-1.308 0.324,-0.612 0.924,-0.996 0.612,-0.384 1.452,-0.384 0.24,0 0.48,0.048 0.252,0.036 0.384,0.084 0.108,0.036 0.156,0.036 0.084,0 0.084,-0.288 v -1.704 q 0,-0.492 -0.156,-0.66 -0.156,-0.168 -0.444,-0.216 -0.108,-0.024 -0.108,-0.156 0,-0.108 0.096,-0.144 0.528,-0.132 0.828,-0.252 0.3,-0.12 0.468,-0.192 0.048,-0.024 0.084,-0.024 0.048,-0.012 0.072,-0.012 0.072,0 0.084,0.072 0,0.072 -0.024,0.252 -0.012,0.168 -0.036,0.504 -0.024,0.336 -0.024,0.876 v 5.424 q 0,0.408 0.06,0.6 0.06,0.18 0.192,0.18 0.06,0 0.204,-0.012 0.156,-0.012 0.312,-0.024 0.216,-0.012 0.216,0.108 0,0.084 -0.06,0.156 -0.048,0.06 -0.108,0.06 -0.336,0.048 -0.66,0.144 -0.324,0.084 -0.744,0.264 -0.096,0.048 -0.132,0.06 -0.024,0.012 -0.06,0.012 z m -1.212,-0.684 q 0.312,0 0.612,-0.156 0.3,-0.168 0.528,-0.432 l 0.012,-2.16 q 0,-0.324 -0.192,-0.636 -0.18,-0.312 -0.516,-0.504 -0.324,-0.204 -0.768,-0.204 -0.276,0 -0.624,0.168 -0.348,0.168 -0.6,0.6 -0.252,0.42 -0.252,1.224 0,0.684 0.204,1.104 0.204,0.408 0.492,0.624 0.3,0.216 0.6,0.3 0.312,0.072 0.504,0.072 z"
     style="font-style:normal;font-variant:normal;font-weight:normal;font-stretch:normal;font-family:'EB Garamond';-inkscape-font-specification:'EB Garamond'"
     id="path227" /><path
     d="m 348.40756,33.5121 q -0.66,0 -1.152,-0.324 -0.492,-0.324 -0.768,-0.912 -0.276,-0.6 -0.276,-1.38 0,-0.696 0.312,-1.26 0.324,-0.576 0.852,-0.924 0.528,-0.348 1.152,-0.348 0.48,0 0.852,0.192 0.372,0.192 0.576,0.54 0.216,0.336 0.216,0.78 0,0.372 -0.36,0.372 h -2.532 q -0.168,0 -0.24,0.096 -0.06,0.084 -0.06,0.348 0,0.576 0.252,1.056 0.252,0.468 0.672,0.756 0.42,0.276 0.924,0.276 0.36,0 0.648,-0.132 0.3,-0.144 0.528,-0.408 0.048,-0.06 0.072,-0.072 0.024,-0.024 0.06,-0.024 0.096,0 0.096,0.12 0,0.228 -0.216,0.504 -0.18,0.228 -0.432,0.396 -0.252,0.168 -0.552,0.252 -0.3,0.096 -0.624,0.096 z m -1.104,-3.636 h 1.092 q 0.288,0 0.492,-0.012 0.204,-0.012 0.396,-0.048 0.06,-0.012 0.072,-0.072 0.024,-0.072 0.024,-0.192 0,-0.348 -0.312,-0.588 -0.3,-0.252 -0.72,-0.252 -0.276,0 -0.552,0.168 -0.276,0.156 -0.456,0.396 -0.18,0.24 -0.18,0.48 0,0.12 0.144,0.12 z"
     style="font-style:normal;font-variant:normal;font-weight:normal;font-stretch:normal;font-family:'EB Garamond';-inkscape-font-specification:'EB Garamond'"
     id="path229" /><path
     d="m 355.48569,33.5121 q -0.66,0 -1.152,-0.324 -0.492,-0.324 -0.768,-0.912 -0.276,-0.6 -0.276,-1.38 0,-0.696 0.312,-1.26 0.324,-0.576 0.852,-0.924 0.528,-0.348 1.152,-0.348 0.48,0 0.852,0.192 0.372,0.192 0.576,0.54 0.216,0.336 0.216,0.78 0,0.372 -0.36,0.372 h -2.532 q -0.168,0 -0.24,0.096 -0.06,0.084 -0.06,0.348 0,0.576 0.252,1.056 0.252,0.468 0.672,0.756 0.42,0.276 0.924,0.276 0.36,0 0.648,-0.132 0.3,-0.144 0.528,-0.408 0.048,-0.06 0.072,-0.072 0.024,-0.024 0.06,-0.024 0.096,0 0.096,0.12 0,0.228 -0.216,0.504 -0.18,0.228 -0.432,0.396 -0.252,0.168 -0.552,0.252 -0.3,0.096 -0.624,0.096 z m -1.104,-3.636 h 1.092 q 0.288,0 0.492,-0.012 0.204,-0.012 0.396,-0.048 0.06,-0.012 0.072,-0.072 0.024,-0.072 0.024,-0.192 0,-0.348 -0.312,-0.588 -0.3,-0.252 -0.72,-0.252 -0.276,0 -0.552,0.168 -0.276,0.156 -0.456,0.396 -0.18,0.24 -0.18,0.48 0,0.12 0.144,0.12 z"
     style="font-style:normal;font-variant:normal;font-weight:normal;font-stretch:normal;font-family:'EB Garamond';-inkscape-font-specification:'EB Garamond'"
     id="path231" /><path
     d="m 358.14519,33.3681 q -0.12,0 -0.18,-0.036 -0.06,-0.024 -0.06,-0.096 0,-0.096 0.072,-0.132 0.084,-0.036 0.204,-0.06 0.276,-0.06 0.396,-0.168 0.12,-0.12 0.12,-0.36 v -3.384 q -0.12,0 -0.276,0 -0.156,-0.012 -0.348,-0.024 -0.036,-0.012 -0.108,-0.084 -0.06,-0.072 -0.06,-0.132 0,-0.024 0.036,-0.036 0.036,-0.024 0.048,-0.036 0.216,-0.108 0.372,-0.192 0.156,-0.084 0.336,-0.168 0,-1.044 0.252,-1.74 0.264,-0.696 0.672,-1.104 0.408,-0.408 0.864,-0.576 0.456,-0.18 0.852,-0.18 0.672,0 0.996,0.204 0.324,0.204 0.324,0.516 0,0.24 -0.12,0.36 -0.12,0.12 -0.288,0.12 -0.108,0 -0.204,-0.084 -0.084,-0.084 -0.204,-0.192 -0.156,-0.156 -0.384,-0.288 -0.228,-0.144 -0.624,-0.144 -0.564,0 -0.936,0.492 -0.36,0.492 -0.36,1.512 v 1.056 q 0,0.072 0.036,0.096 0.048,0.024 0.096,0.024 h 1.5 q 0.06,0 0.108,0.036 0.048,0.036 0.048,0.096 0,0.084 -0.024,0.18 -0.012,0.096 -0.048,0.168 -0.036,0.096 -0.108,0.096 h -1.38 q -0.144,0 -0.192,0.048 -0.036,0.036 -0.036,0.108 v 3.252 q 0,0.24 0.156,0.36 0.156,0.108 0.636,0.168 0.276,0.036 0.276,0.192 0,0.072 -0.06,0.096 -0.06,0.036 -0.18,0.036 -0.36,0 -0.636,-0.036 -0.276,-0.024 -0.588,-0.024 -0.204,0 -0.336,0.012 -0.132,0.012 -0.276,0.024 -0.144,0.024 -0.384,0.024 z"
     style="font-style:normal;font-variant:normal;font-weight:normal;font-stretch:normal;font-family:'EB Garamond';-inkscape-font-specification:'EB Garamond'"
     id="path233" /><path
     d="m 363.68881,33.5121 q -0.66,0 -1.152,-0.324 -0.492,-0.324 -0.768,-0.912 -0.276,-0.6 -0.276,-1.38 0,-0.696 0.312,-1.26 0.324,-0.576 0.852,-0.924 0.528,-0.348 1.152,-0.348 0.48,0 0.852,0.192 0.372,0.192 0.576,0.54 0.216,0.336 0.216,0.78 0,0.372 -0.36,0.372 h -2.532 q -0.168,0 -0.24,0.096 -0.06,0.084 -0.06,0.348 0,0.576 0.252,1.056 0.252,0.468 0.672,0.756 0.42,0.276 0.924,0.276 0.36,0 0.648,-0.132 0.3,-0.144 0.528,-0.408 0.048,-0.06 0.072,-0.072 0.024,-0.024 0.06,-0.024 0.096,0 0.096,0.12 0,0.228 -0.216,0.504 -0.18,0.228 -0.432,0.396 -0.252,0.168 -0.552,0.252 -0.3,0.096 -0.624,0.096 z m -1.104,-3.636 h 1.092 q 0.288,0 0.492,-0.012 0.204,-0.012 0.396,-0.048 0.06,-0.012 0.072,-0.072 0.024,-0.072 0.024,-0.192 0,-0.348 -0.312,-0.588 -0.3,-0.252 -0.72,-0.252 -0.276,0 -0.552,0.168 -0.276,0.156 -0.456,0.396 -0.18,0.24 -0.18,0.48 0,0.12 0.144,0.12 z"
     style="font-style:normal;font-variant:normal;font-weight:normal;font-stretch:normal;font-family:'EB Garamond';-inkscape-font-specification:'EB Garamond'"
     id="path235" /><path
     d="m 368.25912,33.5121 q -0.59999,0 -1.092,-0.3 -0.48,-0.312 -0.76799,-0.84 -0.276,-0.54 -0.276,-1.2 0,-0.78 0.33599,-1.416 0.348,-0.636 0.924,-1.008 0.576,-0.384 1.272,-0.384 0.78001,0 1.368,0.42 0.144,0.108 0.144,0.228 0,0.096 -0.084,0.216 -0.084,0.12 -0.204,0.204 -0.12,0.072 -0.228,0.072 -0.06,0 -0.12,-0.036 -0.06,-0.048 -0.13199,-0.096 -0.264,-0.204 -0.58801,-0.384 -0.324,-0.18 -0.54,-0.18 -0.58799,0 -0.96,0.552 -0.36,0.54 -0.36,1.428 0,0.564 0.24,1.02 0.252,0.456 0.66001,0.72 0.41999,0.264 0.92399,0.264 0.34801,0 0.60001,-0.108 0.25199,-0.12 0.53999,-0.408 0.024,-0.024 0.06,-0.036 0.036,-0.024 0.06,-0.024 0.132,0 0.132,0.168 0,0.072 -0.048,0.168 -0.036,0.084 -0.132,0.204 -0.192,0.24 -0.456,0.42 -0.26399,0.168 -0.588,0.252 -0.312,0.084 -0.684,0.084 z"
     style="font-style:normal;font-variant:normal;font-weight:normal;font-stretch:normal;font-family:'EB Garamond';-inkscape-font-specification:'EB Garamond'"
     id="path237" /><path
     d="m 372.84612,33.5001 q -0.588,0 -0.924,-0.36 -0.324,-0.36 -0.324,-1.068 v -2.784 q 0,-0.096 -0.072,-0.132 -0.072,-0.048 -0.31199,-0.048 h -0.072 q -0.06,0 -0.108,-0.072 -0.036,-0.084 -0.036,-0.168 0,-0.024 0.036,-0.072 0.036,-0.048 0.048,-0.06 0.24,-0.168 0.43199,-0.336 0.204,-0.168 0.36,-0.324 0.168,-0.168 0.276,-0.3 0.06,-0.06 0.096,-0.096 0.048,-0.048 0.108,-0.048 0.06,0 0.10801,0.024 0.06,0.024 0.048,0.108 l -0.06,0.54 q -0.012,0.132 0.06,0.18 0.072,0.048 0.228,0.048 h 1.368 q 0.048,0 0.084,0.084 0.036,0.072 0.036,0.18 0,0.108 -0.036,0.216 -0.036,0.096 -0.084,0.096 h -1.18801 q -0.29999,0 -0.39599,0.048 -0.084,0.048 -0.084,0.288 v 2.364 q 0,0.48 0.204,0.756 0.20399,0.276 0.58799,0.276 0.348,0 0.54,-0.048 0.19201,-0.06 0.34801,-0.168 0.024,-0.024 0.048,-0.024 0.048,0 0.06,0.06 0.024,0.048 0.024,0.108 0,0.06 -0.204,0.24 -0.19201,0.18 -0.51601,0.336 -0.312,0.156 -0.684,0.156 z"
     style="font-style:normal;font-variant:normal;font-weight:normal;font-stretch:normal;font-family:'EB Garamond';-inkscape-font-specification:'EB Garamond'"
     id="path239" /><path
     d="m 377.15956,33.5001 q -0.672,0 -1.212,-0.312 -0.54,-0.312 -0.864,-0.852 -0.312,-0.552 -0.312,-1.248 0,-0.504 0.192,-0.984 0.204,-0.48 0.564,-0.876 0.36,-0.396 0.84,-0.624 0.48,-0.24 1.032,-0.24 0.696,0 1.248,0.336 0.564,0.336 0.888,0.888 0.336,0.54 0.336,1.188 0,0.696 -0.312,1.32 -0.3,0.624 -0.9,1.02 -0.6,0.384 -1.5,0.384 z m 0.252,-0.36 q 0.408,0 0.732,-0.156 0.324,-0.156 0.504,-0.504 0.144,-0.276 0.192,-0.672 0.048,-0.396 0.048,-0.744 0,-0.576 -0.216,-1.104 -0.204,-0.54 -0.588,-0.876 -0.372,-0.348 -0.888,-0.348 -0.324,0 -0.588,0.108 -0.252,0.096 -0.468,0.372 -0.24,0.3 -0.312,0.732 -0.072,0.432 -0.072,0.864 0,0.588 0.216,1.128 0.216,0.528 0.588,0.864 0.372,0.336 0.852,0.336 z"
     style="font-style:normal;font-variant:normal;font-weight:normal;font-stretch:normal;font-family:'EB Garamond';-inkscape-font-specification:'EB Garamond'"
     id="path241" /><path
     d="m 383.19988,33.3681 q -0.108,0 -0.18,-0.036 -0.06,-0.024 -0.06,-0.096 0,-0.096 0.084,-0.132 0.096,-0.036 0.192,-0.06 0.25199,-0.06 0.38399,-0.144 0.132,-0.096 0.132,-0.312 v -2.604 q 0,-0.324 -0.12,-0.576 -0.108,-0.252 -0.41999,-0.3 -0.06,-0.012 -0.096,-0.048 -0.024,-0.036 -0.024,-0.108 0,-0.132 0.108,-0.144 0.47999,-0.108 0.79199,-0.288 0.312,-0.192 0.468,-0.312 0.10801,-0.084 0.16801,-0.084 0.072,0 0.072,0.06 0,0.096 -0.036,0.384 -0.024,0.276 -0.048,0.624 -0.024,0.336 -0.024,0.612 v 2.784 q 0,0.204 0.132,0.3 0.144,0.096 0.38399,0.156 0.096,0.024 0.18,0.06 0.096,0.036 0.096,0.132 0,0.132 -0.24,0.132 -0.22799,0 -0.37199,-0.024 -0.132,-0.012 -0.264,-0.024 -0.12001,-0.012 -0.33601,-0.012 -0.204,0 -0.336,0.012 -0.132,0.012 -0.264,0.024 -0.132,0.024 -0.37199,0.024 z m 0.95999,-6.228 q -0.252,0 -0.432,-0.168 -0.168,-0.18 -0.168,-0.432 0,-0.264 0.168,-0.432 0.18,-0.18 0.432,-0.18 0.264,0 0.43201,0.18 0.18,0.168 0.18,0.432 0,0.252 -0.18,0.432 -0.16801,0.168 -0.43201,0.168 z"
     style="font-style:normal;font-variant:normal;font-weight:normal;font-stretch:normal;font-family:'EB Garamond';-inkscape-font-specification:'EB Garamond'"
     id="path243" /><path
     d="m 386.12956,33.3681 q -0.108,0 -0.18,-0.036 -0.06,-0.024 -0.06,-0.096 0,-0.096 0.072,-0.12 0.072,-0.036 0.204,-0.072 0.18,-0.048 0.348,-0.132 0.168,-0.084 0.168,-0.324 v -2.58 q 0,-0.324 -0.072,-0.552 -0.06,-0.228 -0.372,-0.312 -0.048,-0.024 -0.084,-0.048 -0.036,-0.036 -0.036,-0.108 0,-0.132 0.108,-0.144 0.42,-0.108 0.684,-0.264 0.264,-0.156 0.516,-0.348 0.036,-0.024 0.06,-0.036 0.036,-0.024 0.072,-0.024 0.024,0 0.036,0.024 0.024,0.024 0.024,0.06 0,0.084 -0.036,0.348 -0.024,0.252 -0.024,0.42 0,0.048 0,0.096 0.012,0.036 0.024,0.048 0.42,-0.396 0.888,-0.6 0.48,-0.204 1.044,-0.204 0.588,0 0.972,0.48 0.384,0.48 0.384,1.188 v 2.556 q 0,0.24 0.168,0.324 0.168,0.072 0.348,0.132 0.096,0.036 0.18,0.084 0.096,0.036 0.096,0.132 0,0.072 -0.084,0.084 -0.084,0.024 -0.156,0.024 -0.24,0 -0.372,-0.024 -0.132,-0.012 -0.252,-0.024 -0.12,-0.012 -0.336,-0.012 -0.204,0 -0.336,0.012 -0.132,0.012 -0.276,0.024 -0.132,0.024 -0.372,0.024 -0.06,0 -0.156,-0.024 -0.084,-0.012 -0.084,-0.084 0,-0.096 0.084,-0.132 0.096,-0.048 0.192,-0.084 0.18,-0.06 0.348,-0.132 0.168,-0.084 0.168,-0.324 v -2.52 q 0,-0.528 -0.3,-0.816 -0.288,-0.3 -0.78,-0.312 -0.432,0 -0.756,0.144 -0.324,0.132 -0.576,0.336 -0.048,0.048 -0.072,0.132 -0.024,0.072 -0.024,0.144 v 2.892 q 0,0.24 0.168,0.324 0.168,0.084 0.348,0.132 0.276,0.072 0.276,0.192 0,0.072 -0.06,0.096 -0.06,0.036 -0.18,0.036 -0.24,0 -0.384,-0.024 -0.132,-0.012 -0.252,-0.024 -0.12,-0.012 -0.336,-0.012 -0.204,0 -0.336,0.012 -0.12,0.012 -0.264,0.024 -0.132,0.024 -0.372,0.024 z"
     style="font-style:normal;font-variant:normal;font-weight:normal;font-stretch:normal;font-family:'EB Garamond';-inkscape-font-specification:'EB Garamond'"
     id="path245" /><path
     d="m 394.193,33.5841 q -0.048,0 -0.12,-0.192 -0.072,-0.18 -0.096,-0.264 -0.084,-0.204 -0.156,-0.42 -0.072,-0.228 -0.144,-0.42 -0.264,-0.744 -0.576,-1.452 -0.3,-0.72 -0.588,-1.452 -0.084,-0.216 -0.264,-0.384 -0.168,-0.18 -0.348,-0.228 -0.096,-0.036 -0.156,-0.072 -0.06,-0.036 -0.06,-0.12 0,-0.072 0.084,-0.084 0.096,-0.024 0.156,-0.024 0.24,0 0.348,0.012 0.108,0.012 0.216,0.036 0.108,0.012 0.312,0.012 0.216,0 0.324,-0.012 0.108,-0.024 0.228,-0.036 0.12,-0.012 0.348,-0.012 0.06,0 0.144,0.024 0.096,0.012 0.096,0.084 0,0.084 -0.084,0.132 -0.084,0.048 -0.192,0.084 -0.12,0.048 -0.18,0.192 -0.06,0.132 -0.06,0.3 0,0.084 0.012,0.168 0.012,0.084 0.036,0.156 l 0.948,2.52 q 0.012,0.012 0.012,0.012 0.012,0 0.024,-0.012 l 0.912,-2.34 q 0.048,-0.12 0.072,-0.252 0.024,-0.144 0.024,-0.24 0,-0.24 -0.072,-0.336 -0.072,-0.108 -0.24,-0.168 -0.156,-0.06 -0.216,-0.096 -0.06,-0.036 -0.06,-0.12 0,-0.072 0.072,-0.084 0.084,-0.024 0.168,-0.024 0.132,0 0.348,0.036 0.216,0.024 0.528,0.024 0.312,0 0.42,-0.024 0.12,-0.036 0.288,-0.036 0.096,0 0.168,0.024 0.072,0.012 0.072,0.084 0,0.132 -0.276,0.216 -0.18,0.048 -0.396,0.276 -0.216,0.228 -0.348,0.528 l -0.936,2.256 q -0.024,0.048 -0.096,0.24 -0.072,0.18 -0.156,0.408 -0.084,0.216 -0.144,0.384 -0.06,0.156 -0.06,0.156 0,0 -0.048,0.12 -0.048,0.108 -0.108,0.228 -0.06,0.132 -0.108,0.192 z"
     style="font-style:normal;font-variant:normal;font-weight:normal;font-stretch:normal;font-family:'EB Garamond';-inkscape-font-specification:'EB Garamond'"
     id="path247" /><path
     d="m 399.12631,33.5121 q -0.66,0 -1.152,-0.324 -0.492,-0.324 -0.768,-0.912 -0.276,-0.6 -0.276,-1.38 0,-0.696 0.312,-1.26 0.324,-0.576 0.852,-0.924 0.528,-0.348 1.152,-0.348 0.48,0 0.852,0.192 0.372,0.192 0.576,0.54 0.216,0.336 0.216,0.78 0,0.372 -0.36,0.372 h -2.532 q -0.168,0 -0.24,0.096 -0.06,0.084 -0.06,0.348 0,0.576 0.252,1.056 0.252,0.468 0.672,0.756 0.42,0.276 0.924,0.276 0.36,0 0.648,-0.132 0.3,-0.144 0.528,-0.408 0.048,-0.06 0.072,-0.072 0.024,-0.024 0.06,-0.024 0.096,0 0.096,0.12 0,0.228 -0.216,0.504 -0.18,0.228 -0.432,0.396 -0.252,0.168 -0.552,0.252 -0.3,0.096 -0.624,0.096 z m -1.104,-3.636 h 1.092 q 0.288,0 0.492,-0.012 0.204,-0.012 0.396,-0.048 0.06,-0.012 0.072,-0.072 0.024,-0.072 0.024,-0.192 0,-0.348 -0.312,-0.588 -0.3,-0.252 -0.72,-0.252 -0.276,0 -0.552,0.168 -0.276,0.156 -0.456,0.396 -0.18,0.24 -0.18,0.48 0,0.12 0.144,0.12 z"
     style="font-style:normal;font-variant:normal;font-weight:normal;font-stretch:normal;font-family:'EB Garamond';-inkscape-font-specification:'EB Garamond'"
     id="path249" /><path
     d="m 401.84581,33.3681 q -0.12,0 -0.18,-0.036 -0.06,-0.024 -0.06,-0.096 0,-0.096 0.072,-0.12 0.072,-0.036 0.204,-0.072 0.228,-0.06 0.336,-0.168 0.12,-0.12 0.12,-0.288 v -2.58 q 0,-0.324 -0.096,-0.564 -0.096,-0.24 -0.396,-0.3 -0.048,-0.012 -0.084,-0.06 -0.036,-0.048 -0.036,-0.096 0,-0.12 0.108,-0.144 0.312,-0.096 0.648,-0.276 0.348,-0.192 0.54,-0.312 0.072,-0.048 0.108,-0.06 0.048,-0.024 0.072,-0.024 0.06,0 0.06,0.084 0,0.036 -0.012,0.18 0,0.144 -0.012,0.336 0,0.192 -0.012,0.384 0,0.024 0.024,0.024 0.192,-0.24 0.42,-0.42 0.24,-0.18 0.48,-0.288 0.252,-0.108 0.48,-0.108 0.252,0 0.408,0.108 0.168,0.108 0.168,0.276 0,0.12 -0.072,0.264 -0.06,0.144 -0.168,0.252 -0.108,0.108 -0.228,0.108 -0.072,0 -0.156,-0.024 -0.084,-0.036 -0.18,-0.084 -0.096,-0.036 -0.192,-0.072 -0.096,-0.036 -0.192,-0.036 -0.288,0 -0.564,0.204 -0.264,0.204 -0.264,0.804 v 2.424 q 0,0.156 0.168,0.264 0.168,0.096 0.468,0.192 0.132,0.036 0.204,0.072 0.072,0.036 0.072,0.12 0,0.132 -0.24,0.132 -0.36,0 -0.552,-0.036 -0.18,-0.024 -0.492,-0.024 -0.204,0 -0.336,0.012 -0.12,0.012 -0.264,0.024 -0.132,0.024 -0.372,0.024 z"
     style="font-style:normal;font-variant:normal;font-weight:normal;font-stretch:normal;font-family:'EB Garamond';-inkscape-font-specification:'EB Garamond'"
     id="path251" /><path
     d="m 405.79363,33.3681 q -0.108,0 -0.18,-0.036 -0.06,-0.024 -0.06,-0.096 0,-0.096 0.072,-0.12 0.072,-0.036 0.204,-0.072 0.18,-0.048 0.34799,-0.132 0.168,-0.084 0.168,-0.324 v -2.58 q 0,-0.324 -0.072,-0.552 -0.06,-0.228 -0.37199,-0.312 -0.048,-0.024 -0.084,-0.048 -0.036,-0.036 -0.036,-0.108 0,-0.132 0.108,-0.144 0.41999,-0.108 0.68399,-0.264 0.264,-0.156 0.516,-0.348 0.036,-0.024 0.06,-0.036 0.036,-0.024 0.072,-0.024 0.024,0 0.036,0.024 0.024,0.024 0.024,0.06 0,0.084 -0.036,0.348 -0.024,0.252 -0.024,0.42 0,0.048 0,0.096 0.012,0.036 0.024,0.048 0.41999,-0.396 0.88799,-0.6 0.48001,-0.204 1.044,-0.204 0.588,0 0.97201,0.48 0.38399,0.48 0.38399,1.188 v 2.556 q 0,0.24 0.168,0.324 0.168,0.072 0.348,0.132 0.096,0.036 0.18,0.084 0.096,0.036 0.096,0.132 0,0.072 -0.084,0.084 -0.084,0.024 -0.156,0.024 -0.24,0 -0.372,-0.024 -0.132,-0.012 -0.25199,-0.024 -0.12,-0.012 -0.336,-0.012 -0.20401,0 -0.33601,0.012 -0.132,0.012 -0.276,0.024 -0.132,0.024 -0.372,0.024 -0.06,0 -0.15599,-0.024 -0.084,-0.012 -0.084,-0.084 0,-0.096 0.084,-0.132 0.096,-0.048 0.19199,-0.084 0.18,-0.06 0.348,-0.132 0.168,-0.084 0.168,-0.324 v -2.52 q 0,-0.528 -0.3,-0.816 -0.288,-0.3 -0.77999,-0.312 -0.43201,0 -0.75601,0.144 -0.324,0.132 -0.57599,0.336 -0.048,0.048 -0.072,0.132 -0.024,0.072 -0.024,0.144 v 2.892 q 0,0.24 0.168,0.324 0.16799,0.084 0.34799,0.132 0.276,0.072 0.276,0.192 0,0.072 -0.06,0.096 -0.06,0.036 -0.18,0.036 -0.23999,0 -0.38399,-0.024 -0.132,-0.012 -0.252,-0.024 -0.12001,-0.012 -0.33601,-0.012 -0.204,0 -0.336,0.012 -0.12,0.012 -0.264,0.024 -0.132,0.024 -0.37199,0.024 z"
     style="font-style:normal;font-variant:normal;font-weight:normal;font-stretch:normal;font-family:'EB Garamond';-inkscape-font-specification:'EB Garamond'"
     id="path253" /><path
     d="m 412.99775,33.5001 q -0.216,0 -0.444,-0.168 -0.216,-0.168 -0.372,-0.408 -0.144,-0.24 -0.144,-0.456 0,-0.384 0.204,-0.6 0.204,-0.216 0.648,-0.396 l 1.224,-0.504 q 0.24,-0.096 0.276,-0.168 0.048,-0.072 0.06,-0.312 l 0.024,-0.768 q 0.012,-0.312 -0.18,-0.54 -0.18,-0.228 -0.528,-0.228 -0.18,0 -0.36,0.06 -0.18,0.06 -0.3,0.156 -0.072,0.048 -0.096,0.144 -0.024,0.096 -0.024,0.204 0,0.048 0,0.108 0.012,0.06 0.012,0.108 0,0.06 -0.156,0.168 -0.144,0.096 -0.336,0.18 -0.18,0.072 -0.3,0.072 -0.06,0 -0.096,-0.024 -0.036,-0.036 -0.036,-0.084 0,-0.192 0.12,-0.408 0.132,-0.228 0.36,-0.42 0.276,-0.252 0.6,-0.444 0.324,-0.192 0.636,-0.3 0.312,-0.108 0.552,-0.108 0.432,0 0.708,0.312 0.288,0.3 0.276,0.756 l -0.06,2.88 q -0.012,0.252 0.108,0.408 0.132,0.156 0.324,0.156 0.3,0 0.444,-0.132 0.06,-0.06 0.096,-0.06 0.06,0 0.096,0.036 0.036,0.036 0.036,0.096 0,0.132 -0.132,0.264 -0.192,0.192 -0.42,0.3 -0.216,0.12 -0.408,0.12 -0.552,0 -0.876,-0.624 h -0.036 q -0.396,0.324 -0.756,0.468 -0.36,0.156 -0.744,0.156 z m 0.564,-0.576 q 0.24,0 0.408,-0.072 0.168,-0.084 0.3,-0.216 0.06,-0.06 0.096,-0.156 0.048,-0.108 0.06,-0.336 l 0.024,-0.588 q 0.012,-0.132 -0.012,-0.192 -0.024,-0.06 -0.096,-0.06 -0.024,0 -0.084,0.012 -0.06,0.012 -0.156,0.048 -0.636,0.228 -0.888,0.48 -0.24,0.24 -0.24,0.444 0,0.312 0.18,0.48 0.192,0.156 0.408,0.156 z"
     style="font-style:normal;font-variant:normal;font-weight:normal;font-stretch:normal;font-family:'EB Garamond';-inkscape-font-specification:'EB Garamond'"
     id="path255" /><path
     d="m 420.659,33.5601 q -0.024,0 -0.084,-0.048 -0.048,-0.048 -0.048,-0.072 0,-0.12 0.024,-0.336 0.036,-0.228 0.036,-0.384 v -0.072 q -0.18,0.276 -0.576,0.564 -0.396,0.288 -0.996,0.288 -0.684,0 -1.188,-0.36 -0.492,-0.36 -0.768,-0.924 -0.264,-0.564 -0.264,-1.164 0,-0.696 0.324,-1.308 0.324,-0.612 0.924,-0.996 0.612,-0.384 1.452,-0.384 0.24,0 0.48,0.048 0.252,0.036 0.384,0.084 0.108,0.036 0.156,0.036 0.084,0 0.084,-0.288 v -1.704 q 0,-0.492 -0.156,-0.66 -0.156,-0.168 -0.444,-0.216 -0.108,-0.024 -0.108,-0.156 0,-0.108 0.096,-0.144 0.528,-0.132 0.828,-0.252 0.3,-0.12 0.468,-0.192 0.048,-0.024 0.084,-0.024 0.048,-0.012 0.072,-0.012 0.072,0 0.084,0.072 0,0.072 -0.024,0.252 -0.012,0.168 -0.036,0.504 -0.024,0.336 -0.024,0.876 v 5.424 q 0,0.408 0.06,0.6 0.06,0.18 0.192,0.18 0.06,0 0.204,-0.012 0.156,-0.012 0.312,-0.024 0.216,-0.012 0.216,0.108 0,0.084 -0.06,0.156 -0.048,0.06 -0.108,0.06 -0.336,0.048 -0.66,0.144 -0.324,0.084 -0.744,0.264 -0.096,0.048 -0.132,0.06 -0.024,0.012 -0.06,0.012 z m -1.212,-0.684 q 0.312,0 0.612,-0.156 0.3,-0.168 0.528,-0.432 l 0.012,-2.16 q 0,-0.324 -0.192,-0.636 -0.18,-0.312 -0.516,-0.504 -0.324,-0.204 -0.768,-0.204 -0.276,0 -0.624,0.168 -0.348,0.168 -0.6,0.6 -0.252,0.42 -0.252,1.224 0,0.684 0.204,1.104 0.204,0.408 0.492,0.624 0.3,0.216 0.6,0.3 0.312,0.072 0.504,0.072 z"
     style="font-style:normal;font-variant:normal;font-weight:normal;font-stretch:normal;font-family:'EB Garamond';-inkscape-font-specification:'EB Garamond'"
     id="path257" /><path
     d="m 425.00131,33.5121 q -0.66,0 -1.152,-0.324 -0.492,-0.324 -0.768,-0.912 -0.276,-0.6 -0.276,-1.38 0,-0.696 0.312,-1.26 0.324,-0.576 0.852,-0.924 0.528,-0.348 1.152,-0.348 0.48,0 0.852,0.192 0.372,0.192 0.576,0.54 0.216,0.336 0.216,0.78 0,0.372 -0.36,0.372 h -2.532 q -0.168,0 -0.24,0.096 -0.06,0.084 -0.06,0.348 0,0.576 0.252,1.056 0.252,0.468 0.672,0.756 0.42,0.276 0.924,0.276 0.36,0 0.648,-0.132 0.3,-0.144 0.528,-0.408 0.048,-0.06 0.072,-0.072 0.024,-0.024 0.06,-0.024 0.096,0 0.096,0.12 0,0.228 -0.216,0.504 -0.18,0.228 -0.432,0.396 -0.252,0.168 -0.552,0.252 -0.3,0.096 -0.624,0.096 z m -1.104,-3.636 h 1.092 q 0.288,0 0.492,-0.012 0.204,-0.012 0.396,-0.048 0.06,-0.012 0.072,-0.072 0.024,-0.072 0.024,-0.192 0,-0.348 -0.312,-0.588 -0.3,-0.252 -0.72,-0.252 -0.276,0 -0.552,0.168 -0.276,0.156 -0.456,0.396 -0.18,0.24 -0.18,0.48 0,0.12 0.144,0.12 z"
     style="font-style:normal;font-variant:normal;font-weight:normal;font-stretch:normal;font-family:'EB Garamond';-inkscape-font-specification:'EB Garamond'"
     id="path259" /><path
     d="m 427.72081,33.3681 q -0.12,0 -0.18,-0.036 -0.06,-0.024 -0.06,-0.096 0,-0.096 0.072,-0.12 0.072,-0.036 0.204,-0.072 0.228,-0.06 0.336,-0.168 0.12,-0.12 0.12,-0.288 v -2.58 q 0,-0.324 -0.096,-0.564 -0.096,-0.24 -0.396,-0.3 -0.048,-0.012 -0.084,-0.06 -0.036,-0.048 -0.036,-0.096 0,-0.12 0.108,-0.144 0.312,-0.096 0.648,-0.276 0.348,-0.192 0.54,-0.312 0.072,-0.048 0.108,-0.06 0.048,-0.024 0.072,-0.024 0.06,0 0.06,0.084 0,0.036 -0.012,0.18 0,0.144 -0.012,0.336 0,0.192 -0.012,0.384 0,0.024 0.024,0.024 0.192,-0.24 0.42,-0.42 0.24,-0.18 0.48,-0.288 0.252,-0.108 0.48,-0.108 0.252,0 0.408,0.108 0.168,0.108 0.168,0.276 0,0.12 -0.072,0.264 -0.06,0.144 -0.168,0.252 -0.108,0.108 -0.228,0.108 -0.072,0 -0.156,-0.024 -0.084,-0.036 -0.18,-0.084 -0.096,-0.036 -0.192,-0.072 -0.096,-0.036 -0.192,-0.036 -0.288,0 -0.564,0.204 -0.264,0.204 -0.264,0.804 v 2.424 q 0,0.156 0.168,0.264 0.168,0.096 0.468,0.192 0.132,0.036 0.204,0.072 0.072,0.036 0.072,0.12 0,0.132 -0.24,0.132 -0.36,0 -0.552,-0.036 -0.18,-0.024 -0.492,-0.024 -0.204,0 -0.336,0.012 -0.12,0.012 -0.264,0.024 -0.132,0.024 -0.372,0.024 z"
     style="font-style:normal;font-variant:normal;font-weight:normal;font-stretch:normal;font-family:'EB Garamond';-inkscape-font-specification:'EB Garamond'"
     id="path261" /><path
     d="m 433.94862,33.5001 q -0.67199,0 -1.212,-0.312 -0.54,-0.312 -0.86399,-0.852 -0.312,-0.552 -0.312,-1.248 0,-0.504 0.192,-0.984 0.20399,-0.48 0.56399,-0.876 0.36,-0.396 0.84001,-0.624 0.47999,-0.24 1.03199,-0.24 0.69601,0 1.248,0.336 0.56401,0.336 0.88801,0.888 0.33599,0.54 0.33599,1.188 0,0.696 -0.31199,1.32 -0.3,0.624 -0.90001,1.02 -0.59999,0.384 -1.5,0.384 z m 0.252,-0.36 q 0.40801,0 0.732,-0.156 0.324,-0.156 0.504,-0.504 0.144,-0.276 0.192,-0.672 0.048,-0.396 0.048,-0.744 0,-0.576 -0.216,-1.104 -0.204,-0.54 -0.58799,-0.876 -0.372,-0.348 -0.88801,-0.348 -0.324,0 -0.588,0.108 -0.25199,0.096 -0.468,0.372 -0.24,0.3 -0.312,0.732 -0.072,0.432 -0.072,0.864 0,0.588 0.216,1.128 0.21601,0.528 0.58801,0.864 0.37199,0.336 0.85199,0.336 z"
     style="font-style:normal;font-variant:normal;font-weight:normal;font-stretch:normal;font-family:'EB Garamond';-inkscape-font-specification:'EB Garamond'"
     id="path263" /></g><g
   aria-label="Radiación infrarroja"
   id="text213"
   style="font-size:12px;font-family:MyriadPro-Regular"><path
     d="m 327.644,46.9171 q -0.336,0 -0.636,-0.06 -0.3,-0.048 -0.552,-0.192 -0.252,-0.144 -0.468,-0.396 -0.288,-0.36 -0.552,-0.684 -0.264,-0.336 -0.564,-0.768 -0.288,-0.432 -0.708,-1.104 -0.18,-0.3 -0.516,-0.468 -0.264,-0.132 -0.528,-0.18 -0.252,-0.06 -0.42,-0.072 -0.096,-0.012 -0.144,0.06 -0.036,0.072 -0.036,0.18 v 2.112 q 0,0.384 0.18,0.672 0.18,0.276 0.624,0.36 0.204,0.036 0.3,0.084 0.096,0.048 0.096,0.132 0,0.072 -0.096,0.096 -0.096,0.036 -0.252,0.036 -0.324,0 -0.504,-0.024 -0.168,-0.024 -0.312,-0.036 -0.132,-0.024 -0.36,-0.024 -0.3,0 -0.54,0.024 -0.228,0.012 -0.468,0.036 -0.228,0.024 -0.552,0.024 -0.156,0 -0.252,-0.036 -0.096,-0.024 -0.096,-0.096 0,-0.144 0.396,-0.216 0.456,-0.084 0.66,-0.276 0.216,-0.192 0.216,-0.636 v -5.112 q 0,-0.456 -0.048,-0.684 -0.036,-0.24 -0.192,-0.336 -0.144,-0.096 -0.492,-0.132 -0.204,-0.024 -0.3,-0.084 -0.096,-0.072 -0.096,-0.156 0,-0.072 0.096,-0.096 0.096,-0.036 0.252,-0.036 0.324,0 0.48,0 0.168,0 0.312,0.012 0.144,0 0.384,0 0.228,0 0.408,-0.012 0.18,-0.024 0.396,-0.036 0.228,-0.012 0.576,-0.012 1.32,0 2.004,0.492 0.696,0.492 0.696,1.476 0,0.54 -0.216,0.936 -0.216,0.384 -0.54,0.648 -0.324,0.264 -0.66,0.432 -0.048,0.012 -0.048,0.06 0.012,0.036 0.048,0.096 0.372,0.564 0.708,1.068 0.348,0.504 0.756,0.984 0.408,0.48 0.972,0.996 0.312,0.276 0.636,0.336 0.324,0.06 0.744,0.06 0.18,0 0.18,0.132 0,0.18 -0.18,0.264 -0.18,0.096 -0.408,0.12 -0.228,0.036 -0.384,0.036 z m -4.488,-4.2 q 0.552,0 0.948,-0.252 0.408,-0.252 0.624,-0.66 0.228,-0.408 0.228,-0.864 0,-0.492 -0.132,-0.9 -0.12,-0.408 -0.504,-0.648 -0.372,-0.252 -1.128,-0.252 -0.384,0 -0.504,0.252 -0.12,0.24 -0.144,0.864 -0.012,0.3 -0.024,0.816 0,0.504 0,1.224 0,0.3 0.168,0.36 0.168,0.06 0.468,0.06 z"
     style="font-style:normal;font-variant:normal;font-weight:normal;font-stretch:normal;font-family:'EB Garamond';-inkscape-font-specification:'EB Garamond'"
     id="path266" /><path
     d="m 329.95869,46.8331 q -0.216,0 -0.444,-0.168 -0.216,-0.168 -0.372,-0.408 -0.144,-0.24 -0.144,-0.456 0,-0.384 0.204,-0.6 0.204,-0.216 0.648,-0.396 l 1.224,-0.504 q 0.24,-0.096 0.276,-0.168 0.048,-0.072 0.06,-0.312 l 0.024,-0.768 q 0.012,-0.312 -0.18,-0.54 -0.18,-0.228 -0.528,-0.228 -0.18,0 -0.36,0.06 -0.18,0.06 -0.3,0.156 -0.072,0.048 -0.096,0.144 -0.024,0.096 -0.024,0.204 0,0.048 0,0.108 0.012,0.06 0.012,0.108 0,0.06 -0.156,0.168 -0.144,0.096 -0.336,0.18 -0.18,0.072 -0.3,0.072 -0.06,0 -0.096,-0.024 -0.036,-0.036 -0.036,-0.084 0,-0.192 0.12,-0.408 0.132,-0.228 0.36,-0.42 0.276,-0.252 0.6,-0.444 0.324,-0.192 0.636,-0.3 0.312,-0.108 0.552,-0.108 0.432,0 0.708,0.312 0.288,0.3 0.276,0.756 l -0.06,2.88 q -0.012,0.252 0.108,0.408 0.132,0.156 0.324,0.156 0.3,0 0.444,-0.132 0.06,-0.06 0.096,-0.06 0.06,0 0.096,0.036 0.036,0.036 0.036,0.096 0,0.132 -0.132,0.264 -0.192,0.192 -0.42,0.3 -0.216,0.12 -0.408,0.12 -0.552,0 -0.876,-0.624 h -0.036 q -0.396,0.324 -0.756,0.468 -0.36,0.156 -0.744,0.156 z m 0.564,-0.576 q 0.24,0 0.408,-0.072 0.168,-0.084 0.3,-0.216 0.06,-0.06 0.096,-0.156 0.048,-0.108 0.06,-0.336 l 0.024,-0.588 q 0.012,-0.132 -0.012,-0.192 -0.024,-0.06 -0.096,-0.06 -0.024,0 -0.084,0.012 -0.06,0.012 -0.156,0.048 -0.636,0.228 -0.888,0.48 -0.24,0.24 -0.24,0.444 0,0.312 0.18,0.48 0.192,0.156 0.408,0.156 z"
     style="font-style:normal;font-variant:normal;font-weight:normal;font-stretch:normal;font-family:'EB Garamond';-inkscape-font-specification:'EB Garamond'"
     id="path268" /><path
     d="m 337.61994,46.8931 q -0.024,0 -0.084,-0.048 -0.048,-0.048 -0.048,-0.072 0,-0.12 0.024,-0.336 0.036,-0.228 0.036,-0.384 v -0.072 q -0.18,0.276 -0.576,0.564 -0.396,0.288 -0.996,0.288 -0.684,0 -1.188,-0.36 -0.492,-0.36 -0.768,-0.924 -0.264,-0.564 -0.264,-1.164 0,-0.696 0.324,-1.308 0.324,-0.612 0.924,-0.996 0.612,-0.384 1.452,-0.384 0.24,0 0.48,0.048 0.252,0.036 0.384,0.084 0.108,0.036 0.156,0.036 0.084,0 0.084,-0.288 v -1.704 q 0,-0.492 -0.156,-0.66 -0.156,-0.168 -0.444,-0.216 -0.108,-0.024 -0.108,-0.156 0,-0.108 0.096,-0.144 0.528,-0.132 0.828,-0.252 0.3,-0.12 0.468,-0.192 0.048,-0.024 0.084,-0.024 0.048,-0.012 0.072,-0.012 0.072,0 0.084,0.072 0,0.072 -0.024,0.252 -0.012,0.168 -0.036,0.504 -0.024,0.336 -0.024,0.876 v 5.424 q 0,0.408 0.06,0.6 0.06,0.18 0.192,0.18 0.06,0 0.204,-0.012 0.156,-0.012 0.312,-0.024 0.216,-0.012 0.216,0.108 0,0.084 -0.06,0.156 -0.048,0.06 -0.108,0.06 -0.336,0.048 -0.66,0.144 -0.324,0.084 -0.744,0.264 -0.096,0.048 -0.132,0.06 -0.024,0.012 -0.06,0.012 z m -1.212,-0.684 q 0.312,0 0.612,-0.156 0.3,-0.168 0.528,-0.432 l 0.012,-2.16 q 0,-0.324 -0.192,-0.636 -0.18,-0.312 -0.516,-0.504 -0.324,-0.204 -0.768,-0.204 -0.276,0 -0.624,0.168 -0.348,0.168 -0.6,0.6 -0.252,0.42 -0.252,1.224 0,0.684 0.204,1.104 0.204,0.408 0.492,0.624 0.3,0.216 0.6,0.3 0.312,0.072 0.504,0.072 z"
     style="font-style:normal;font-variant:normal;font-weight:normal;font-stretch:normal;font-family:'EB Garamond';-inkscape-font-specification:'EB Garamond'"
     id="path270" /><path
     d="m 339.93425,46.7011 q -0.108,0 -0.18,-0.036 -0.06,-0.024 -0.06,-0.096 0,-0.096 0.084,-0.132 0.096,-0.036 0.192,-0.06 0.252,-0.06 0.384,-0.144 0.132,-0.096 0.132,-0.312 v -2.604 q 0,-0.324 -0.12,-0.576 -0.108,-0.252 -0.42,-0.3 -0.06,-0.012 -0.096,-0.048 -0.024,-0.036 -0.024,-0.108 0,-0.132 0.108,-0.144 0.48,-0.108 0.792,-0.288 0.312,-0.192 0.468,-0.312 0.108,-0.084 0.168,-0.084 0.072,0 0.072,0.06 0,0.096 -0.036,0.384 -0.024,0.276 -0.048,0.624 -0.024,0.336 -0.024,0.612 v 2.784 q 0,0.204 0.132,0.3 0.144,0.096 0.384,0.156 0.096,0.024 0.18,0.06 0.096,0.036 0.096,0.132 0,0.132 -0.24,0.132 -0.228,0 -0.372,-0.024 -0.132,-0.012 -0.264,-0.024 -0.12,-0.012 -0.336,-0.012 -0.204,0 -0.336,0.012 -0.132,0.012 -0.264,0.024 -0.132,0.024 -0.372,0.024 z m 0.96,-6.228 q -0.252,0 -0.432,-0.168 -0.168,-0.18 -0.168,-0.432 0,-0.264 0.168,-0.432 0.18,-0.18 0.432,-0.18 0.264,0 0.432,0.18 0.18,0.168 0.18,0.432 0,0.252 -0.18,0.432 -0.168,0.168 -0.432,0.168 z"
     style="font-style:normal;font-variant:normal;font-weight:normal;font-stretch:normal;font-family:'EB Garamond';-inkscape-font-specification:'EB Garamond'"
     id="path272" /><path
     d="m 343.73994,46.8331 q -0.216,0 -0.444,-0.168 -0.216,-0.168 -0.372,-0.408 -0.144,-0.24 -0.144,-0.456 0,-0.384 0.204,-0.6 0.204,-0.216 0.648,-0.396 l 1.224,-0.504 q 0.24,-0.096 0.276,-0.168 0.048,-0.072 0.06,-0.312 l 0.024,-0.768 q 0.012,-0.312 -0.18,-0.54 -0.18,-0.228 -0.528,-0.228 -0.18,0 -0.36,0.06 -0.18,0.06 -0.3,0.156 -0.072,0.048 -0.096,0.144 -0.024,0.096 -0.024,0.204 0,0.048 0,0.108 0.012,0.06 0.012,0.108 0,0.06 -0.156,0.168 -0.144,0.096 -0.336,0.18 -0.18,0.072 -0.3,0.072 -0.06,0 -0.096,-0.024 -0.036,-0.036 -0.036,-0.084 0,-0.192 0.12,-0.408 0.132,-0.228 0.36,-0.42 0.276,-0.252 0.6,-0.444 0.324,-0.192 0.636,-0.3 0.312,-0.108 0.552,-0.108 0.432,0 0.708,0.312 0.288,0.3 0.276,0.756 l -0.06,2.88 q -0.012,0.252 0.108,0.408 0.132,0.156 0.324,0.156 0.3,0 0.444,-0.132 0.06,-0.06 0.096,-0.06 0.06,0 0.096,0.036 0.036,0.036 0.036,0.096 0,0.132 -0.132,0.264 -0.192,0.192 -0.42,0.3 -0.216,0.12 -0.408,0.12 -0.552,0 -0.876,-0.624 h -0.036 q -0.396,0.324 -0.756,0.468 -0.36,0.156 -0.744,0.156 z m 0.564,-0.576 q 0.24,0 0.408,-0.072 0.168,-0.084 0.3,-0.216 0.06,-0.06 0.096,-0.156 0.048,-0.108 0.06,-0.336 l 0.024,-0.588 q 0.012,-0.132 -0.012,-0.192 -0.024,-0.06 -0.096,-0.06 -0.024,0 -0.084,0.012 -0.06,0.012 -0.156,0.048 -0.636,0.228 -0.888,0.48 -0.24,0.24 -0.24,0.444 0,0.312 0.18,0.48 0.192,0.156 0.408,0.156 z"
     style="font-style:normal;font-variant:normal;font-weight:normal;font-stretch:normal;font-family:'EB Garamond';-inkscape-font-specification:'EB Garamond'"
     id="path274" /><path
     d="m 349.67319,46.8451 q -0.6,0 -1.092,-0.3 -0.48,-0.312 -0.768,-0.84 -0.276,-0.54 -0.276,-1.2 0,-0.78 0.336,-1.416 0.348,-0.636 0.924,-1.008 0.576,-0.384 1.272,-0.384 0.78,0 1.368,0.42 0.144,0.108 0.144,0.228 0,0.096 -0.084,0.216 -0.084,0.12 -0.204,0.204 -0.12,0.072 -0.228,0.072 -0.06,0 -0.12,-0.036 -0.06,-0.048 -0.132,-0.096 -0.264,-0.204 -0.588,-0.384 -0.324,-0.18 -0.54,-0.18 -0.588,0 -0.96,0.552 -0.36,0.54 -0.36,1.428 0,0.564 0.24,1.02 0.252,0.456 0.66,0.72 0.42,0.264 0.924,0.264 0.348,0 0.6,-0.108 0.252,-0.12 0.54,-0.408 0.024,-0.024 0.06,-0.036 0.036,-0.024 0.06,-0.024 0.132,0 0.132,0.168 0,0.072 -0.048,0.168 -0.036,0.084 -0.132,0.204 -0.192,0.24 -0.456,0.42 -0.264,0.168 -0.588,0.252 -0.312,0.084 -0.684,0.084 z"
     style="font-style:normal;font-variant:normal;font-weight:normal;font-stretch:normal;font-family:'EB Garamond';-inkscape-font-specification:'EB Garamond'"
     id="path276" /><path
     d="m 352.52019,46.7011 q -0.108,0 -0.18,-0.036 -0.06,-0.024 -0.06,-0.096 0,-0.096 0.084,-0.132 0.096,-0.036 0.192,-0.06 0.252,-0.06 0.384,-0.144 0.132,-0.096 0.132,-0.312 v -2.604 q 0,-0.324 -0.12,-0.576 -0.108,-0.252 -0.42,-0.3 -0.06,-0.012 -0.096,-0.048 -0.024,-0.036 -0.024,-0.108 0,-0.132 0.108,-0.144 0.48,-0.108 0.792,-0.288 0.312,-0.192 0.468,-0.312 0.108,-0.084 0.168,-0.084 0.072,0 0.072,0.06 0,0.096 -0.036,0.384 -0.024,0.276 -0.048,0.624 -0.024,0.336 -0.024,0.612 v 2.784 q 0,0.204 0.132,0.3 0.144,0.096 0.384,0.156 0.096,0.024 0.18,0.06 0.096,0.036 0.096,0.132 0,0.132 -0.24,0.132 -0.228,0 -0.372,-0.024 -0.132,-0.012 -0.264,-0.024 -0.12,-0.012 -0.336,-0.012 -0.204,0 -0.336,0.012 -0.132,0.012 -0.264,0.024 -0.132,0.024 -0.372,0.024 z m 0.96,-6.228 q -0.252,0 -0.432,-0.168 -0.168,-0.18 -0.168,-0.432 0,-0.264 0.168,-0.432 0.18,-0.18 0.432,-0.18 0.264,0 0.432,0.18 0.18,0.168 0.18,0.432 0,0.252 -0.18,0.432 -0.168,0.168 -0.432,0.168 z"
     style="font-style:normal;font-variant:normal;font-weight:normal;font-stretch:normal;font-family:'EB Garamond';-inkscape-font-specification:'EB Garamond'"
     id="path278" /><path
     d="m 357.72987,46.8331 q -0.67199,0 -1.212,-0.312 -0.54,-0.312 -0.86399,-0.852 -0.312,-0.552 -0.312,-1.248 0,-0.504 0.192,-0.984 0.20399,-0.48 0.56399,-0.876 0.36,-0.396 0.84001,-0.624 0.47999,-0.24 1.03199,-0.24 0.69601,0 1.248,0.336 0.56401,0.336 0.88801,0.888 0.33599,0.54 0.33599,1.188 0,0.696 -0.31199,1.32 -0.3,0.624 -0.90001,1.02 -0.59999,0.384 -1.5,0.384 z m 0.252,-0.36 q 0.40801,0 0.732,-0.156 0.324,-0.156 0.504,-0.504 0.144,-0.276 0.192,-0.672 0.048,-0.396 0.048,-0.744 0,-0.576 -0.216,-1.104 -0.204,-0.54 -0.58799,-0.876 -0.372,-0.348 -0.88801,-0.348 -0.324,0 -0.588,0.108 -0.25199,0.096 -0.468,0.372 -0.24,0.3 -0.312,0.732 -0.072,0.432 -0.072,0.864 0,0.588 0.216,1.128 0.21601,0.528 0.58801,0.864 0.37199,0.336 0.85199,0.336 z m -0.3,-5.292 q -0.096,0 -0.096,-0.108 0,-0.036 0.012,-0.084 0.012,-0.06 0.036,-0.132 0.084,-0.228 0.264,-0.576 0.192,-0.36 0.37201,-0.696 0.192,-0.336 0.288,-0.492 0.06,-0.096 0.14399,-0.156 0.096,-0.06 0.18,-0.06 0.228,0 0.408,0.06 0.18,0.06 0.18,0.192 0,0.072 -0.036,0.12 -0.024,0.048 -0.084,0.132 -0.144,0.204 -0.396,0.516 -0.24,0.3 -0.49199,0.588 -0.25201,0.288 -0.40801,0.444 -0.252,0.252 -0.372,0.252 z"
     style="font-style:normal;font-variant:normal;font-weight:normal;font-stretch:normal;font-family:'EB Garamond';-inkscape-font-specification:'EB Garamond'"
     id="path280" /><path
     d="m 361.37956,46.7011 q -0.108,0 -0.18,-0.036 -0.06,-0.024 -0.06,-0.096 0,-0.096 0.072,-0.12 0.072,-0.036 0.204,-0.072 0.18,-0.048 0.348,-0.132 0.168,-0.084 0.168,-0.324 v -2.58 q 0,-0.324 -0.072,-0.552 -0.06,-0.228 -0.372,-0.312 -0.048,-0.024 -0.084,-0.048 -0.036,-0.036 -0.036,-0.108 0,-0.132 0.108,-0.144 0.42,-0.108 0.684,-0.264 0.264,-0.156 0.516,-0.348 0.036,-0.024 0.06,-0.036 0.036,-0.024 0.072,-0.024 0.024,0 0.036,0.024 0.024,0.024 0.024,0.06 0,0.084 -0.036,0.348 -0.024,0.252 -0.024,0.42 0,0.048 0,0.096 0.012,0.036 0.024,0.048 0.42,-0.396 0.888,-0.6 0.48,-0.204 1.044,-0.204 0.588,0 0.972,0.48 0.384,0.48 0.384,1.188 v 2.556 q 0,0.24 0.168,0.324 0.168,0.072 0.348,0.132 0.096,0.036 0.18,0.084 0.096,0.036 0.096,0.132 0,0.072 -0.084,0.084 -0.084,0.024 -0.156,0.024 -0.24,0 -0.372,-0.024 -0.132,-0.012 -0.252,-0.024 -0.12,-0.012 -0.336,-0.012 -0.204,0 -0.336,0.012 -0.132,0.012 -0.276,0.024 -0.132,0.024 -0.372,0.024 -0.06,0 -0.156,-0.024 -0.084,-0.012 -0.084,-0.084 0,-0.096 0.084,-0.132 0.096,-0.048 0.192,-0.084 0.18,-0.06 0.348,-0.132 0.168,-0.084 0.168,-0.324 v -2.52 q 0,-0.528 -0.3,-0.816 -0.288,-0.3 -0.78,-0.312 -0.432,0 -0.756,0.144 -0.324,0.132 -0.576,0.336 -0.048,0.048 -0.072,0.132 -0.024,0.072 -0.024,0.144 v 2.892 q 0,0.24 0.168,0.324 0.168,0.084 0.348,0.132 0.276,0.072 0.276,0.192 0,0.072 -0.06,0.096 -0.06,0.036 -0.18,0.036 -0.24,0 -0.384,-0.024 -0.132,-0.012 -0.252,-0.024 -0.12,-0.012 -0.336,-0.012 -0.204,0 -0.336,0.012 -0.12,0.012 -0.264,0.024 -0.132,0.024 -0.372,0.024 z"
     style="font-style:normal;font-variant:normal;font-weight:normal;font-stretch:normal;font-family:'EB Garamond';-inkscape-font-specification:'EB Garamond'"
     id="path282" /><path
     d="m 370.09831,46.7011 q -0.108,0 -0.18,-0.036 -0.06,-0.024 -0.06,-0.096 0,-0.096 0.084,-0.132 0.096,-0.036 0.192,-0.06 0.252,-0.06 0.384,-0.144 0.132,-0.096 0.132,-0.312 v -2.604 q 0,-0.324 -0.12,-0.576 -0.108,-0.252 -0.42,-0.3 -0.06,-0.012 -0.096,-0.048 -0.024,-0.036 -0.024,-0.108 0,-0.132 0.108,-0.144 0.48,-0.108 0.792,-0.288 0.312,-0.192 0.468,-0.312 0.108,-0.084 0.168,-0.084 0.072,0 0.072,0.06 0,0.096 -0.036,0.384 -0.024,0.276 -0.048,0.624 -0.024,0.336 -0.024,0.612 v 2.784 q 0,0.204 0.132,0.3 0.144,0.096 0.384,0.156 0.096,0.024 0.18,0.06 0.096,0.036 0.096,0.132 0,0.132 -0.24,0.132 -0.228,0 -0.372,-0.024 -0.132,-0.012 -0.264,-0.024 -0.12,-0.012 -0.336,-0.012 -0.204,0 -0.336,0.012 -0.132,0.012 -0.264,0.024 -0.132,0.024 -0.372,0.024 z m 0.96,-6.228 q -0.252,0 -0.432,-0.168 -0.168,-0.18 -0.168,-0.432 0,-0.264 0.168,-0.432 0.18,-0.18 0.432,-0.18 0.264,0 0.432,0.18 0.18,0.168 0.18,0.432 0,0.252 -0.18,0.432 -0.168,0.168 -0.432,0.168 z"
     style="font-style:normal;font-variant:normal;font-weight:normal;font-stretch:normal;font-family:'EB Garamond';-inkscape-font-specification:'EB Garamond'"
     id="path284" /><path
     d="m 373.028,46.7011 q -0.108,0 -0.18,-0.036 -0.06,-0.024 -0.06,-0.096 0,-0.096 0.072,-0.12 0.072,-0.036 0.204,-0.072 0.18,-0.048 0.348,-0.132 0.168,-0.084 0.168,-0.324 v -2.58 q 0,-0.324 -0.072,-0.552 -0.06,-0.228 -0.372,-0.312 -0.048,-0.024 -0.084,-0.048 -0.036,-0.036 -0.036,-0.108 0,-0.132 0.108,-0.144 0.42,-0.108 0.684,-0.264 0.264,-0.156 0.516,-0.348 0.036,-0.024 0.06,-0.036 0.036,-0.024 0.072,-0.024 0.024,0 0.036,0.024 0.024,0.024 0.024,0.06 0,0.084 -0.036,0.348 -0.024,0.252 -0.024,0.42 0,0.048 0,0.096 0.012,0.036 0.024,0.048 0.42,-0.396 0.888,-0.6 0.48,-0.204 1.044,-0.204 0.588,0 0.972,0.48 0.384,0.48 0.384,1.188 v 2.556 q 0,0.24 0.168,0.324 0.168,0.072 0.348,0.132 0.096,0.036 0.18,0.084 0.096,0.036 0.096,0.132 0,0.072 -0.084,0.084 -0.084,0.024 -0.156,0.024 -0.24,0 -0.372,-0.024 -0.132,-0.012 -0.252,-0.024 -0.12,-0.012 -0.336,-0.012 -0.204,0 -0.336,0.012 -0.132,0.012 -0.276,0.024 -0.132,0.024 -0.372,0.024 -0.06,0 -0.156,-0.024 -0.084,-0.012 -0.084,-0.084 0,-0.096 0.084,-0.132 0.096,-0.048 0.192,-0.084 0.18,-0.06 0.348,-0.132 0.168,-0.084 0.168,-0.324 v -2.52 q 0,-0.528 -0.3,-0.816 -0.288,-0.3 -0.78,-0.312 -0.432,0 -0.756,0.144 -0.324,0.132 -0.576,0.336 -0.048,0.048 -0.072,0.132 -0.024,0.072 -0.024,0.144 v 2.892 q 0,0.24 0.168,0.324 0.168,0.084 0.348,0.132 0.276,0.072 0.276,0.192 0,0.072 -0.06,0.096 -0.06,0.036 -0.18,0.036 -0.24,0 -0.384,-0.024 -0.132,-0.012 -0.252,-0.024 -0.12,-0.012 -0.336,-0.012 -0.204,0 -0.336,0.012 -0.12,0.012 -0.264,0.024 -0.132,0.024 -0.372,0.024 z"
     style="font-style:normal;font-variant:normal;font-weight:normal;font-stretch:normal;font-family:'EB Garamond';-inkscape-font-specification:'EB Garamond'"
     id="path286" /><path
     d="m 379.35613,46.7011 q -0.12,0 -0.18,-0.036 -0.06,-0.024 -0.06,-0.096 0,-0.096 0.072,-0.132 0.084,-0.036 0.204,-0.06 0.27599,-0.06 0.39599,-0.168 0.12,-0.12 0.12,-0.36 v -3.384 q -0.12,0 -0.276,0 -0.15599,-0.012 -0.34799,-0.024 -0.036,-0.012 -0.108,-0.084 -0.06,-0.072 -0.06,-0.132 0,-0.024 0.036,-0.036 0.036,-0.024 0.048,-0.036 0.216,-0.108 0.372,-0.192 0.15599,-0.084 0.33599,-0.168 0,-1.044 0.252,-1.74 0.264,-0.696 0.67201,-1.104 0.40799,-0.408 0.86399,-0.576 0.456,-0.18 0.85201,-0.18 0.67199,0 0.99599,0.204 0.32401,0.204 0.32401,0.516 0,0.24 -0.12,0.36 -0.12001,0.12 -0.28801,0.12 -0.108,0 -0.204,-0.084 -0.084,-0.084 -0.204,-0.192 -0.156,-0.156 -0.384,-0.288 -0.22799,-0.144 -0.624,-0.144 -0.564,0 -0.936,0.492 -0.35999,0.492 -0.35999,1.512 v 1.056 q 0,0.072 0.036,0.096 0.048,0.024 0.096,0.024 h 1.5 q 0.06,0 0.108,0.036 0.048,0.036 0.048,0.096 0,0.084 -0.024,0.18 -0.012,0.096 -0.048,0.168 -0.036,0.096 -0.108,0.096 h -1.38 q -0.144,0 -0.192,0.048 -0.036,0.036 -0.036,0.108 v 3.252 q 0,0.24 0.156,0.36 0.156,0.108 0.63599,0.168 0.276,0.036 0.276,0.192 0,0.072 -0.06,0.096 -0.06,0.036 -0.18,0.036 -0.36,0 -0.63599,-0.036 -0.276,-0.024 -0.58801,-0.024 -0.204,0 -0.336,0.012 -0.132,0.012 -0.276,0.024 -0.144,0.024 -0.38399,0.024 z"
     style="font-style:normal;font-variant:normal;font-weight:normal;font-stretch:normal;font-family:'EB Garamond';-inkscape-font-specification:'EB Garamond'"
     id="path288" /><path
     d="m 383.23644,46.7011 q -0.12,0 -0.18,-0.036 -0.06,-0.024 -0.06,-0.096 0,-0.096 0.072,-0.12 0.072,-0.036 0.204,-0.072 0.228,-0.06 0.336,-0.168 0.12,-0.12 0.12,-0.288 v -2.58 q 0,-0.324 -0.096,-0.564 -0.096,-0.24 -0.396,-0.3 -0.048,-0.012 -0.084,-0.06 -0.036,-0.048 -0.036,-0.096 0,-0.12 0.108,-0.144 0.312,-0.096 0.648,-0.276 0.348,-0.192 0.54,-0.312 0.072,-0.048 0.108,-0.06 0.048,-0.024 0.072,-0.024 0.06,0 0.06,0.084 0,0.036 -0.012,0.18 0,0.144 -0.012,0.336 0,0.192 -0.012,0.384 0,0.024 0.024,0.024 0.192,-0.24 0.42,-0.42 0.24,-0.18 0.48,-0.288 0.252,-0.108 0.48,-0.108 0.252,0 0.408,0.108 0.168,0.108 0.168,0.276 0,0.12 -0.072,0.264 -0.06,0.144 -0.168,0.252 -0.108,0.108 -0.228,0.108 -0.072,0 -0.156,-0.024 -0.084,-0.036 -0.18,-0.084 -0.096,-0.036 -0.192,-0.072 -0.096,-0.036 -0.192,-0.036 -0.288,0 -0.564,0.204 -0.264,0.204 -0.264,0.804 v 2.424 q 0,0.156 0.168,0.264 0.168,0.096 0.468,0.192 0.132,0.036 0.204,0.072 0.072,0.036 0.072,0.12 0,0.132 -0.24,0.132 -0.36,0 -0.552,-0.036 -0.18,-0.024 -0.492,-0.024 -0.204,0 -0.336,0.012 -0.12,0.012 -0.264,0.024 -0.132,0.024 -0.372,0.024 z"
     style="font-style:normal;font-variant:normal;font-weight:normal;font-stretch:normal;font-family:'EB Garamond';-inkscape-font-specification:'EB Garamond'"
     id="path290" /><path
     d="m 388.06025,46.8331 q -0.216,0 -0.444,-0.168 -0.216,-0.168 -0.372,-0.408 -0.144,-0.24 -0.144,-0.456 0,-0.384 0.204,-0.6 0.204,-0.216 0.648,-0.396 l 1.224,-0.504 q 0.24,-0.096 0.276,-0.168 0.048,-0.072 0.06,-0.312 l 0.024,-0.768 q 0.012,-0.312 -0.18,-0.54 -0.18,-0.228 -0.528,-0.228 -0.18,0 -0.36,0.06 -0.18,0.06 -0.3,0.156 -0.072,0.048 -0.096,0.144 -0.024,0.096 -0.024,0.204 0,0.048 0,0.108 0.012,0.06 0.012,0.108 0,0.06 -0.156,0.168 -0.144,0.096 -0.336,0.18 -0.18,0.072 -0.3,0.072 -0.06,0 -0.096,-0.024 -0.036,-0.036 -0.036,-0.084 0,-0.192 0.12,-0.408 0.132,-0.228 0.36,-0.42 0.276,-0.252 0.6,-0.444 0.324,-0.192 0.636,-0.3 0.312,-0.108 0.552,-0.108 0.432,0 0.708,0.312 0.288,0.3 0.276,0.756 l -0.06,2.88 q -0.012,0.252 0.108,0.408 0.132,0.156 0.324,0.156 0.3,0 0.444,-0.132 0.06,-0.06 0.096,-0.06 0.06,0 0.096,0.036 0.036,0.036 0.036,0.096 0,0.132 -0.132,0.264 -0.192,0.192 -0.42,0.3 -0.216,0.12 -0.408,0.12 -0.552,0 -0.876,-0.624 h -0.036 q -0.396,0.324 -0.756,0.468 -0.36,0.156 -0.744,0.156 z m 0.564,-0.576 q 0.24,0 0.408,-0.072 0.168,-0.084 0.3,-0.216 0.06,-0.06 0.096,-0.156 0.048,-0.108 0.06,-0.336 l 0.024,-0.588 q 0.012,-0.132 -0.012,-0.192 -0.024,-0.06 -0.096,-0.06 -0.024,0 -0.084,0.012 -0.06,0.012 -0.156,0.048 -0.636,0.228 -0.888,0.48 -0.24,0.24 -0.24,0.444 0,0.312 0.18,0.48 0.192,0.156 0.408,0.156 z"
     style="font-style:normal;font-variant:normal;font-weight:normal;font-stretch:normal;font-family:'EB Garamond';-inkscape-font-specification:'EB Garamond'"
     id="path292" /><path
     d="m 392.0255,46.7011 q -0.12,0 -0.18,-0.036 -0.06,-0.024 -0.06,-0.096 0,-0.096 0.072,-0.12 0.072,-0.036 0.204,-0.072 0.228,-0.06 0.336,-0.168 0.12,-0.12 0.12,-0.288 v -2.58 q 0,-0.324 -0.096,-0.564 -0.096,-0.24 -0.396,-0.3 -0.048,-0.012 -0.084,-0.06 -0.036,-0.048 -0.036,-0.096 0,-0.12 0.108,-0.144 0.312,-0.096 0.648,-0.276 0.348,-0.192 0.54,-0.312 0.072,-0.048 0.108,-0.06 0.048,-0.024 0.072,-0.024 0.06,0 0.06,0.084 0,0.036 -0.012,0.18 0,0.144 -0.012,0.336 0,0.192 -0.012,0.384 0,0.024 0.024,0.024 0.192,-0.24 0.42,-0.42 0.24,-0.18 0.48,-0.288 0.252,-0.108 0.48,-0.108 0.252,0 0.408,0.108 0.168,0.108 0.168,0.276 0,0.12 -0.072,0.264 -0.06,0.144 -0.168,0.252 -0.108,0.108 -0.228,0.108 -0.072,0 -0.156,-0.024 -0.084,-0.036 -0.18,-0.084 -0.096,-0.036 -0.192,-0.072 -0.096,-0.036 -0.192,-0.036 -0.288,0 -0.564,0.204 -0.264,0.204 -0.264,0.804 v 2.424 q 0,0.156 0.168,0.264 0.168,0.096 0.468,0.192 0.132,0.036 0.204,0.072 0.072,0.036 0.072,0.12 0,0.132 -0.24,0.132 -0.36,0 -0.552,-0.036 -0.18,-0.024 -0.492,-0.024 -0.204,0 -0.336,0.012 -0.12,0.012 -0.264,0.024 -0.132,0.024 -0.372,0.024 z"
     style="font-style:normal;font-variant:normal;font-weight:normal;font-stretch:normal;font-family:'EB Garamond';-inkscape-font-specification:'EB Garamond'"
     id="path294" /><path
     d="m 396.03331,46.7011 q -0.12,0 -0.18,-0.036 -0.06,-0.024 -0.06,-0.096 0,-0.096 0.072,-0.12 0.072,-0.036 0.204,-0.072 0.228,-0.06 0.336,-0.168 0.12,-0.12 0.12,-0.288 v -2.58 q 0,-0.324 -0.096,-0.564 -0.096,-0.24 -0.396,-0.3 -0.048,-0.012 -0.084,-0.06 -0.036,-0.048 -0.036,-0.096 0,-0.12 0.108,-0.144 0.312,-0.096 0.648,-0.276 0.348,-0.192 0.54,-0.312 0.072,-0.048 0.108,-0.06 0.048,-0.024 0.072,-0.024 0.06,0 0.06,0.084 0,0.036 -0.012,0.18 0,0.144 -0.012,0.336 0,0.192 -0.012,0.384 0,0.024 0.024,0.024 0.192,-0.24 0.42,-0.42 0.24,-0.18 0.48,-0.288 0.252,-0.108 0.48,-0.108 0.252,0 0.408,0.108 0.168,0.108 0.168,0.276 0,0.12 -0.072,0.264 -0.06,0.144 -0.168,0.252 -0.108,0.108 -0.228,0.108 -0.072,0 -0.156,-0.024 -0.084,-0.036 -0.18,-0.084 -0.096,-0.036 -0.192,-0.072 -0.096,-0.036 -0.192,-0.036 -0.288,0 -0.564,0.204 -0.264,0.204 -0.264,0.804 v 2.424 q 0,0.156 0.168,0.264 0.168,0.096 0.468,0.192 0.132,0.036 0.204,0.072 0.072,0.036 0.072,0.12 0,0.132 -0.24,0.132 -0.36,0 -0.552,-0.036 -0.18,-0.024 -0.492,-0.024 -0.204,0 -0.336,0.012 -0.12,0.012 -0.264,0.024 -0.132,0.024 -0.372,0.024 z"
     style="font-style:normal;font-variant:normal;font-weight:normal;font-stretch:normal;font-family:'EB Garamond';-inkscape-font-specification:'EB Garamond'"
     id="path296" /><path
     d="m 402.26112,46.8331 q -0.67199,0 -1.212,-0.312 -0.54,-0.312 -0.86399,-0.852 -0.312,-0.552 -0.312,-1.248 0,-0.504 0.192,-0.984 0.20399,-0.48 0.56399,-0.876 0.36,-0.396 0.84001,-0.624 0.47999,-0.24 1.03199,-0.24 0.69601,0 1.248,0.336 0.56401,0.336 0.88801,0.888 0.33599,0.54 0.33599,1.188 0,0.696 -0.31199,1.32 -0.3,0.624 -0.90001,1.02 -0.59999,0.384 -1.5,0.384 z m 0.252,-0.36 q 0.40801,0 0.732,-0.156 0.324,-0.156 0.504,-0.504 0.144,-0.276 0.192,-0.672 0.048,-0.396 0.048,-0.744 0,-0.576 -0.216,-1.104 -0.204,-0.54 -0.58799,-0.876 -0.372,-0.348 -0.88801,-0.348 -0.324,0 -0.588,0.108 -0.25199,0.096 -0.468,0.372 -0.24,0.3 -0.312,0.732 -0.072,0.432 -0.072,0.864 0,0.588 0.216,1.128 0.21601,0.528 0.58801,0.864 0.37199,0.336 0.85199,0.336 z"
     style="font-style:normal;font-variant:normal;font-weight:normal;font-stretch:normal;font-family:'EB Garamond';-inkscape-font-specification:'EB Garamond'"
     id="path298" /><path
     d="m 405.39481,50.1091 q -0.06,0 -0.156,-0.036 -0.096,-0.024 -0.096,-0.084 0,-0.072 0.06,-0.132 0.06,-0.06 0.072,-0.072 0.216,-0.06 0.42,-0.228 0.204,-0.168 0.372,-0.528 0.132,-0.276 0.204,-0.696 0.084,-0.408 0.12,-0.864 0.036,-0.456 0.048,-0.888 0.012,-0.432 0.012,-0.744 v -2.52 q 0,-0.324 -0.12,-0.564 -0.12,-0.252 -0.432,-0.312 -0.048,-0.012 -0.072,-0.06 -0.024,-0.048 -0.024,-0.096 0,-0.12 0.084,-0.144 0.456,-0.108 0.768,-0.3 0.312,-0.192 0.48,-0.3 0.06,-0.036 0.096,-0.06 0.048,-0.024 0.06,-0.024 0.084,0 0.084,0.06 -0.036,0.372 -0.06,0.912 -0.024,0.528 -0.024,0.936 v 2.208 q 0,0.372 -0.024,0.876 -0.012,0.492 -0.084,1.02 -0.072,0.54 -0.252,1.02 -0.144,0.408 -0.42,0.78 -0.276,0.372 -0.576,0.6 -0.3,0.24 -0.54,0.24 z m 1.38,-9.636 q -0.252,0 -0.432,-0.168 -0.168,-0.18 -0.168,-0.432 0,-0.264 0.168,-0.432 0.18,-0.18 0.432,-0.18 0.264,0 0.432,0.18 0.18,0.168 0.18,0.432 0,0.252 -0.18,0.432 -0.168,0.168 -0.432,0.168 z"
     style="font-style:normal;font-variant:normal;font-weight:normal;font-stretch:normal;font-family:'EB Garamond';-inkscape-font-specification:'EB Garamond'"
     id="path300" /><path
     d="m 409.50556,46.8331 q -0.216,0 -0.444,-0.168 -0.216,-0.168 -0.372,-0.408 -0.144,-0.24 -0.144,-0.456 0,-0.384 0.204,-0.6 0.204,-0.216 0.648,-0.396 l 1.224,-0.504 q 0.24,-0.096 0.276,-0.168 0.048,-0.072 0.06,-0.312 l 0.024,-0.768 q 0.012,-0.312 -0.18,-0.54 -0.18,-0.228 -0.528,-0.228 -0.18,0 -0.36,0.06 -0.18,0.06 -0.3,0.156 -0.072,0.048 -0.096,0.144 -0.024,0.096 -0.024,0.204 0,0.048 0,0.108 0.012,0.06 0.012,0.108 0,0.06 -0.156,0.168 -0.144,0.096 -0.336,0.18 -0.18,0.072 -0.3,0.072 -0.06,0 -0.096,-0.024 -0.036,-0.036 -0.036,-0.084 0,-0.192 0.12,-0.408 0.132,-0.228 0.36,-0.42 0.276,-0.252 0.6,-0.444 0.324,-0.192 0.636,-0.3 0.312,-0.108 0.552,-0.108 0.432,0 0.708,0.312 0.288,0.3 0.276,0.756 l -0.06,2.88 q -0.012,0.252 0.108,0.408 0.132,0.156 0.324,0.156 0.3,0 0.444,-0.132 0.06,-0.06 0.096,-0.06 0.06,0 0.096,0.036 0.036,0.036 0.036,0.096 0,0.132 -0.132,0.264 -0.192,0.192 -0.42,0.3 -0.216,0.12 -0.408,0.12 -0.552,0 -0.876,-0.624 h -0.036 q -0.396,0.324 -0.756,0.468 -0.36,0.156 -0.744,0.156 z m 0.564,-0.576 q 0.24,0 0.408,-0.072 0.168,-0.084 0.3,-0.216 0.06,-0.06 0.096,-0.156 0.048,-0.108 0.06,-0.336 l 0.024,-0.588 q 0.012,-0.132 -0.012,-0.192 -0.024,-0.06 -0.096,-0.06 -0.024,0 -0.084,0.012 -0.06,0.012 -0.156,0.048 -0.636,0.228 -0.888,0.48 -0.24,0.24 -0.24,0.444 0,0.312 0.18,0.48 0.192,0.156 0.408,0.156 z"
     style="font-style:normal;font-variant:normal;font-weight:normal;font-stretch:normal;font-family:'EB Garamond';-inkscape-font-specification:'EB Garamond'"
     id="path302" /></g><g
   aria-label="Luz solar"
   id="text215"
   style="font-size:12px;font-family:MyriadPro-Regular"><path
     d="m 320.66,60.058501 q -0.156,0 -0.252,-0.048 -0.084,-0.036 -0.084,-0.096 0,-0.108 0.108,-0.144 0.12,-0.048 0.156,-0.06 0.468,-0.096 0.72,-0.276 0.252,-0.192 0.252,-0.588 v -5.568 q 0,-0.288 -0.06,-0.42 -0.06,-0.144 -0.216,-0.204 -0.156,-0.072 -0.456,-0.12 -0.396,-0.072 -0.396,-0.24 0,-0.072 0.096,-0.096 0.096,-0.036 0.252,-0.036 0.324,0 0.516,0.012 0.204,0.012 0.384,0.024 0.18,0 0.444,0 0.3,0 0.516,0 0.216,-0.012 0.444,-0.024 0.228,-0.012 0.552,-0.012 0.156,0 0.252,0.036 0.096,0.024 0.096,0.096 0,0.084 -0.096,0.144 -0.096,0.06 -0.3,0.096 -0.444,0.084 -0.756,0.204 -0.312,0.108 -0.312,0.456 v 5.652 q 0,0.372 0.168,0.552 0.168,0.18 0.756,0.18 h 1.488 q 0.324,0 0.564,-0.096 0.252,-0.108 0.372,-0.216 0.24,-0.204 0.348,-0.36 0.12,-0.168 0.276,-0.492 0.024,-0.072 0.096,-0.216 0.084,-0.144 0.168,-0.144 0.072,0 0.108,0.072 0.036,0.072 0.036,0.144 0,0.012 -0.012,0.036 0,0.012 0,0.024 -0.084,0.312 -0.156,0.564 -0.06,0.252 -0.108,0.48 -0.036,0.228 -0.06,0.48 -0.012,0.084 -0.048,0.144 -0.024,0.06 -0.12,0.06 -0.6,0 -1.152,-0.012 -0.552,-0.012 -1.068,-0.024 -0.504,0 -0.972,-0.012 -0.468,-0.012 -0.924,-0.012 -0.3,0 -0.684,0.012 -0.372,0.012 -0.66,0.024 -0.276,0.024 -0.276,0.024 z"
     style="font-style:normal;font-variant:normal;font-weight:normal;font-stretch:normal;font-family:'EB Garamond';-inkscape-font-specification:'EB Garamond'"
     id="path305" /><path
     d="m 331.39981,60.226501 q -0.084,0 -0.084,-0.096 0,-0.12 0.024,-0.348 0.036,-0.24 0.036,-0.396 0,-0.024 0,-0.036 0,-0.024 0,-0.036 -0.468,0.456 -0.948,0.66 -0.468,0.192 -1.032,0.192 -0.384,0 -0.696,-0.168 -0.312,-0.156 -0.492,-0.468 -0.18,-0.324 -0.18,-0.792 v -2.436 q 0,-0.264 -0.12,-0.42 -0.12,-0.156 -0.396,-0.264 -0.06,-0.024 -0.108,-0.06 -0.048,-0.036 -0.048,-0.132 0,-0.108 0.048,-0.144 0.06,-0.036 0.132,-0.048 0.408,-0.024 0.624,-0.06 0.228,-0.048 0.564,-0.132 0.036,-0.012 0.048,-0.012 0.024,0 0.048,0 0.132,0 0.12,0.168 -0.036,0.276 -0.06,0.468 -0.012,0.18 -0.012,0.456 v 2.34 q 0,0.288 0.144,0.54 0.144,0.24 0.372,0.396 0.24,0.156 0.492,0.156 0.312,0 0.54,-0.036 0.24,-0.036 0.468,-0.204 0.132,-0.096 0.336,-0.312 0.204,-0.216 0.204,-0.588 v -2.196 q 0,-0.252 -0.156,-0.372 -0.144,-0.132 -0.336,-0.18 -0.192,-0.048 -0.312,-0.048 -0.108,0 -0.18,-0.036 -0.072,-0.048 -0.072,-0.168 0,-0.108 0.072,-0.144 0.084,-0.036 0.18,-0.036 0.372,-0.012 0.612,-0.024 0.252,-0.024 0.444,-0.06 0.204,-0.048 0.42,-0.108 0.024,-0.012 0.06,-0.012 0.036,-0.012 0.06,-0.012 0.156,0 0.156,0.132 0,0.012 -0.012,0.048 0,0.024 -0.012,0.06 -0.012,0.036 -0.036,0.204 -0.012,0.168 -0.036,0.348 -0.012,0.18 -0.012,0.276 v 2.772 q 0,0.324 0.06,0.468 0.072,0.132 0.156,0.132 0.096,0 0.276,-0.012 0.192,-0.024 0.276,-0.024 0.06,0 0.12,0.024 0.06,0.024 0.06,0.132 0,0.096 -0.048,0.132 -0.048,0.024 -0.12,0.036 -0.468,0.06 -0.804,0.18 -0.336,0.12 -0.6,0.228 -0.036,0.012 -0.108,0.036 -0.072,0.036 -0.132,0.036 z"
     style="font-style:normal;font-variant:normal;font-weight:normal;font-stretch:normal;font-family:'EB Garamond';-inkscape-font-specification:'EB Garamond'"
     id="path307" /><path
     d="m 333.80394,60.058501 q -0.048,0 -0.108,-0.072 -0.06,-0.084 -0.06,-0.132 0,-0.036 0.072,-0.156 0.084,-0.12 0.18,-0.276 0.108,-0.156 0.192,-0.264 0.3,-0.432 0.576,-0.828 0.276,-0.408 0.54,-0.804 0.276,-0.408 0.564,-0.852 0.288,-0.456 0.612,-0.972 0.024,-0.036 0.024,-0.072 0,-0.048 -0.132,-0.048 l -1.188,-0.036 q -0.168,-0.012 -0.312,0.072 -0.144,0.084 -0.216,0.156 -0.072,0.072 -0.144,0.156 -0.06,0.084 -0.132,0.18 -0.06,0.096 -0.132,0.192 -0.06,0.084 -0.12,0.168 -0.072,0.072 -0.192,0.024 -0.108,-0.048 -0.072,-0.144 0.036,-0.108 0.084,-0.312 0.06,-0.216 0.096,-0.444 0.048,-0.228 0.048,-0.372 0,-0.096 0.072,-0.156 0.072,-0.06 0.108,-0.06 0.048,0 0.18,0.108 0.06,0.048 0.204,0.06 0.156,0.012 0.312,0.012 0.132,0 0.252,0 0.12,-0.012 0.204,-0.012 0.624,0 1.152,-0.012 0.528,-0.012 1.08,-0.024 0.036,0 0.06,0.024 0.024,0.024 0.036,0.06 0.012,0.036 -0.012,0.06 -0.12,0.156 -0.228,0.288 -0.108,0.132 -0.228,0.312 l -2.34,3.54 q -0.048,0.084 -0.012,0.132 0.036,0.048 0.12,0.048 h 1.416 q 0.132,0 0.264,-0.072 0.144,-0.072 0.276,-0.204 0.144,-0.144 0.312,-0.372 0.168,-0.24 0.348,-0.504 0.06,-0.084 0.156,-0.048 0.108,0.036 0.108,0.132 0,0.036 -0.048,0.228 -0.048,0.18 -0.12,0.42 -0.06,0.228 -0.12,0.432 -0.048,0.204 -0.072,0.276 -0.036,0.168 -0.192,0.168 -0.264,0 -0.9,-0.036 -0.624,-0.024 -1.608,-0.024 -0.252,0 -0.528,0.024 -0.276,0.036 -0.432,0.036 z"
     style="font-style:normal;font-variant:normal;font-weight:normal;font-stretch:normal;font-family:'EB Garamond';-inkscape-font-specification:'EB Garamond'"
     id="path309" /><path
     d="m 341.978,60.166501 q -0.372,0 -0.696,-0.12 -0.324,-0.108 -0.552,-0.312 -0.06,-0.132 -0.096,-0.444 -0.024,-0.312 -0.036,-0.516 0,-0.108 0.156,-0.108 0.048,0 0.084,0.024 0.048,0.012 0.06,0.06 0.156,0.588 0.492,0.84 0.348,0.252 0.696,0.252 0.348,0 0.588,-0.228 0.252,-0.24 0.252,-0.588 0,-0.324 -0.216,-0.552 -0.216,-0.24 -0.756,-0.576 -0.408,-0.252 -0.66,-0.48 -0.252,-0.228 -0.372,-0.468 -0.108,-0.24 -0.108,-0.54 0,-0.384 0.18,-0.696 0.18,-0.312 0.54,-0.492 0.36,-0.192 0.9,-0.192 0.36,0 0.6,0.072 0.24,0.072 0.36,0.156 0.096,0.132 0.156,0.42 0.072,0.276 0.072,0.528 0,0.084 -0.12,0.084 -0.072,0 -0.144,-0.024 -0.06,-0.036 -0.084,-0.084 -0.156,-0.396 -0.396,-0.6 -0.228,-0.216 -0.576,-0.216 -0.3,0 -0.54,0.18 -0.228,0.18 -0.228,0.528 0,0.276 0.168,0.492 0.18,0.216 0.66,0.492 0.696,0.396 1.032,0.744 0.348,0.336 0.348,0.9 0,0.648 -0.492,1.056 -0.492,0.408 -1.272,0.408 z"
     style="font-style:normal;font-variant:normal;font-weight:normal;font-stretch:normal;font-family:'EB Garamond';-inkscape-font-specification:'EB Garamond'"
     id="path311" /><path
     d="m 346.92519,60.166501 q -0.672,0 -1.212,-0.312 -0.54,-0.312 -0.864,-0.852 -0.312,-0.552 -0.312,-1.248 0,-0.504 0.192,-0.984 0.204,-0.48 0.564,-0.876 0.36,-0.396 0.84,-0.624 0.48,-0.24 1.032,-0.24 0.696,0 1.248,0.336 0.564,0.336 0.888,0.888 0.336,0.54 0.336,1.188 0,0.696 -0.312,1.32 -0.3,0.624 -0.9,1.02 -0.6,0.384 -1.5,0.384 z m 0.252,-0.36 q 0.408,0 0.732,-0.156 0.324,-0.156 0.504,-0.504 0.144,-0.276 0.192,-0.672 0.048,-0.396 0.048,-0.744 0,-0.576 -0.216,-1.104 -0.204,-0.54 -0.588,-0.876 -0.372,-0.348 -0.888,-0.348 -0.324,0 -0.588,0.108 -0.252,0.096 -0.468,0.372 -0.24,0.3 -0.312,0.732 -0.072,0.432 -0.072,0.864 0,0.588 0.216,1.128 0.216,0.528 0.588,0.864 0.372,0.336 0.852,0.336 z"
     style="font-style:normal;font-variant:normal;font-weight:normal;font-stretch:normal;font-family:'EB Garamond';-inkscape-font-specification:'EB Garamond'"
     id="path313" /><path
     d="m 350.32738,60.034501 q -0.06,0 -0.15601,-0.024 -0.084,-0.012 -0.084,-0.084 0,-0.096 0.084,-0.132 0.096,-0.048 0.19201,-0.084 0.18,-0.06 0.34799,-0.132 0.168,-0.084 0.168,-0.324 v -6.048 q 0,-0.348 -0.132,-0.576 -0.12,-0.24 -0.41999,-0.3 -0.096,-0.024 -0.096,-0.156 0,-0.12 0.084,-0.144 0.31199,-0.072 0.53999,-0.144 0.228,-0.084 0.42,-0.168 0.204,-0.084 0.396,-0.156 0.048,-0.024 0.072,-0.024 0.024,0 0.036,0.036 0.024,0.024 0.024,0.048 0,0.108 -0.048,0.468 -0.036,0.348 -0.036,1.164 v 6 q 0,0.24 0.168,0.324 0.168,0.072 0.34799,0.132 0.096,0.036 0.18,0.084 0.096,0.036 0.096,0.132 0,0.072 -0.096,0.084 -0.084,0.024 -0.144,0.024 -0.22799,0 -0.37199,-0.024 -0.132,-0.012 -0.26401,-0.024 -0.12,-0.012 -0.336,-0.012 -0.204,0 -0.336,0.012 -0.132,0.012 -0.264,0.024 -0.13199,0.024 -0.37199,0.024 z"
     style="font-style:normal;font-variant:normal;font-weight:normal;font-stretch:normal;font-family:'EB Garamond';-inkscape-font-specification:'EB Garamond'"
     id="path315" /><path
     d="m 354.14619,60.166501 q -0.216,0 -0.444,-0.168 -0.216,-0.168 -0.372,-0.408 -0.144,-0.24 -0.144,-0.456 0,-0.384 0.204,-0.6 0.204,-0.216 0.648,-0.396 l 1.224,-0.504 q 0.24,-0.096 0.276,-0.168 0.048,-0.072 0.06,-0.312 l 0.024,-0.768 q 0.012,-0.312 -0.18,-0.54 -0.18,-0.228 -0.528,-0.228 -0.18,0 -0.36,0.06 -0.18,0.06 -0.3,0.156 -0.072,0.048 -0.096,0.144 -0.024,0.096 -0.024,0.204 0,0.048 0,0.108 0.012,0.06 0.012,0.108 0,0.06 -0.156,0.168 -0.144,0.096 -0.336,0.18 -0.18,0.072 -0.3,0.072 -0.06,0 -0.096,-0.024 -0.036,-0.036 -0.036,-0.084 0,-0.192 0.12,-0.408 0.132,-0.228 0.36,-0.42 0.276,-0.252 0.6,-0.444 0.324,-0.192 0.636,-0.3 0.312,-0.108 0.552,-0.108 0.432,0 0.708,0.312 0.288,0.3 0.276,0.756 l -0.06,2.88 q -0.012,0.252 0.108,0.408 0.132,0.156 0.324,0.156 0.3,0 0.444,-0.132 0.06,-0.06 0.096,-0.06 0.06,0 0.096,0.036 0.036,0.036 0.036,0.096 0,0.132 -0.132,0.264 -0.192,0.192 -0.42,0.3 -0.216,0.12 -0.408,0.12 -0.552,0 -0.876,-0.624 h -0.036 q -0.396,0.324 -0.756,0.468 -0.36,0.156 -0.744,0.156 z m 0.564,-0.576 q 0.24,0 0.408,-0.072 0.168,-0.084 0.3,-0.216 0.06,-0.06 0.096,-0.156 0.048,-0.108 0.06,-0.336 l 0.024,-0.588 q 0.012,-0.132 -0.012,-0.192 -0.024,-0.06 -0.096,-0.06 -0.024,0 -0.084,0.012 -0.06,0.012 -0.156,0.048 -0.636,0.228 -0.888,0.48 -0.24,0.24 -0.24,0.444 0,0.312 0.18,0.48 0.192,0.156 0.408,0.156 z"
     style="font-style:normal;font-variant:normal;font-weight:normal;font-stretch:normal;font-family:'EB Garamond';-inkscape-font-specification:'EB Garamond'"
     id="path317" /><path
     d="m 358.11144,60.034501 q -0.12,0 -0.18,-0.036 -0.06,-0.024 -0.06,-0.096 0,-0.096 0.072,-0.12 0.072,-0.036 0.204,-0.072 0.228,-0.06 0.336,-0.168 0.12,-0.12 0.12,-0.288 v -2.58 q 0,-0.324 -0.096,-0.564 -0.096,-0.24 -0.396,-0.3 -0.048,-0.012 -0.084,-0.06 -0.036,-0.048 -0.036,-0.096 0,-0.12 0.108,-0.144 0.312,-0.096 0.648,-0.276 0.348,-0.192 0.54,-0.312 0.072,-0.048 0.108,-0.06 0.048,-0.024 0.072,-0.024 0.06,0 0.06,0.084 0,0.036 -0.012,0.18 0,0.144 -0.012,0.336 0,0.192 -0.012,0.384 0,0.024 0.024,0.024 0.192,-0.24 0.42,-0.42 0.24,-0.18 0.48,-0.288 0.252,-0.108 0.48,-0.108 0.252,0 0.408,0.108 0.168,0.108 0.168,0.276 0,0.12 -0.072,0.264 -0.06,0.144 -0.168,0.252 -0.108,0.108 -0.228,0.108 -0.072,0 -0.156,-0.024 -0.084,-0.036 -0.18,-0.084 -0.096,-0.036 -0.192,-0.072 -0.096,-0.036 -0.192,-0.036 -0.288,0 -0.564,0.204 -0.264,0.204 -0.264,0.804 v 2.424 q 0,0.156 0.168,0.264 0.168,0.096 0.468,0.192 0.132,0.036 0.204,0.072 0.072,0.036 0.072,0.12 0,0.132 -0.24,0.132 -0.36,0 -0.552,-0.036 -0.18,-0.024 -0.492,-0.024 -0.204,0 -0.336,0.012 -0.12,0.012 -0.264,0.024 -0.132,0.024 -0.372,0.024 z"
     style="font-style:normal;font-variant:normal;font-weight:normal;font-stretch:normal;font-family:'EB Garamond';-inkscape-font-specification:'EB Garamond'"
     id="path319" /></g><g
   id="g225">
		<g
   id="g223">
			<path
   id="path217"
   d="m 146.2,180.8 c 20.5,-12.3 40.3,-20.9 75,-12.9"
   stroke-miterlimit="10"
   stroke="#ffffff"
   fill="none" />
			<g
   id="g221">
				<path
   id="path219"
   d="m 227,169.4 c -3,0.3 -6.9,1.2 -9.4,2.6 l 2.8,-4.2 -0.5,-5 c 1.6,2.3 4.6,4.9 7.1,6.6 z"
   fill="#ffffff" />
			</g>
		</g>
	</g>
</svg>
