<?xml version="1.0" encoding="UTF-8" standalone="no"?>
<svg
   viewBox="0 0 2100 2100"
   version="1.1"
   id="svg149"
   sodipodi:docname="secciones-conicas.svg"
   inkscape:version="1.3.2 (091e20e, 2023-11-25)"
   xmlns:inkscape="http://www.inkscape.org/namespaces/inkscape"
   xmlns:sodipodi="http://sodipodi.sourceforge.net/DTD/sodipodi-0.dtd"
   xmlns="http://www.w3.org/2000/svg"
   xmlns:svg="http://www.w3.org/2000/svg"
   xmlns:rdf="http://www.w3.org/1999/02/22-rdf-syntax-ns#"
   xmlns:cc="http://creativecommons.org/ns#"
   xmlns:dc="http://purl.org/dc/elements/1.1/">
  <defs
     id="defs149" />
  <sodipodi:namedview
     id="namedview149"
     pagecolor="#ffffff"
     bordercolor="#000000"
     borderopacity="0.25"
     inkscape:showpageshadow="2"
     inkscape:pageopacity="0.0"
     inkscape:pagecheckerboard="0"
     inkscape:deskcolor="#d1d1d1"
     inkscape:zoom="0.2975018"
     inkscape:cx="1255.4546"
     inkscape:cy="949.57409"
     inkscape:window-width="1512"
     inkscape:window-height="818"
     inkscape:window-x="1920"
     inkscape:window-y="90"
     inkscape:window-maximized="0"
     inkscape:current-layer="svg149" />
  <style
     id="style1">
    .circle {fill: #ff8080;}
    .ellipse {fill: #b3ff80;}
    .parabola {fill: #aaf;}
    .hyperbola {fill: #f95;}
    .far {stroke-dasharray: 26, 26;}
    .line {stroke: #6c5d53; stroke-dasharray: 25, 12, 6, 12; stroke-width: 6;}
    .thin {stroke: #808080; stroke-dasharray: 21, 10, 5, 10; stroke-width: 5;}
  </style>
  <title
     id="title1">Conic Sections</title>
  <metadata
     id="metadata1">
    image/svg+xml
<rdf:RDF>
  <cc:Work
     rdf:about="">
    <dc:format>image/svg+xml</dc:format>
    <dc:type
       rdf:resource="http://purl.org/dc/dcmitype/StillImage" />
    <cc:license
       rdf:resource="http://creativecommons.org/licenses/by-sa/3.0/" />
    <dc:creator
       rdf:resource="https://commons.wikimedia.org/wiki/User:Magister_Mathematicae" />
    <dc:contributor
       rdf:resource="https://commons.wikimedia.org/wiki/User:Phancy_Physicist" />
    <dc:contributor
       rdf:resource="https://commons.wikimedia.org/wiki/User:Yourmomblah" />
    <dc:contributor
       rdf:resource="https://commons.wikimedia.org/wiki/User:Glrx" />
    <dc:contributor
       rdf:resource="https://commons.wikimedia.org/wiki/User:Inna_Z" />
    <dc:contributor
       rdf:resource="https://commons.wikimedia.org/wiki/User:MSG17" />
    <dc:contributor
       rdf:resource="https://commons.wikimedia.org/wiki/User:Mjälten" />
    <dc:contributor
       rdf:resource="https://commons.wikimedia.org/wiki/User:Magog the Ogre" />
    <dc:contributor
       rdf:resource="https://commons.wikimedia.org/wiki/User:Kizule" />
    <dc:contributor
       rdf:resource="https://commons.wikimedia.org/wiki/User:HLFan" />
    <dc:contributor
       rdf:resource="https://commons.wikimedia.org/wiki/User:Independència_i_Socialisme" />
    <dc:contributor
       rdf:resource="https://commons.wikimedia.org/wiki/User:Hidayat~alt" />
    <dc:contributor
       rdf:resource="https://commons.wikimedia.org/wiki/User:Sarang" />
    <dc:contributor
       rdf:resource="https://commons.wikimedia.org/wiki/User:কুউ_পুলক" />
    <dc:contributor
       rdf:resource="https://commons.wikimedia.org/wiki/User:Andreasl01" />
    <dc:contributor
       rdf:resource="https://commons.wikimedia.org/wiki/User:Tengwar" />
    <dc:contributor
       rdf:resource="https://commons.wikimedia.org/wiki/User:Zygimantus" />
    <dc:contributor
       rdf:resource="https://commons.wikimedia.org/wiki/User:Alfa-ketosav" />
    <dc:contributor
       rdf:resource="https://commons.wikimedia.org/wiki/User:Iketsi" />
    <dc:publisher
       rdf:resource="https://commons.wikimedia.org" />
    <cc:attributionURL
       rdf:resource="https://commons.wikimedia.org/wiki/Conic_Sections.svg" />
  </cc:Work>
</rdf:RDF>
</metadata>
  <g
     fill="none"
     stroke="#000"
     stroke-width="9"
     id="g16">
    <g
       stroke-width="3"
       transform="scale(6.26, 3.05)"
       id="g2">
      <path
         d="m25,564 a100,100 0 1 0 200,-1"
         id="path1" />
      <path
         d="m25,565 a100,100 0 1 1 200,1"
         stroke-dasharray="9,9"
         id="path2" />
    </g>
    <path
       class="circle far"
       d="m648,482 a131,63 0 0 1 262,0"
       id="path3" />
    <path
       class="ellipse far"
       d="m468,927 c36,-97 178,-224 318,-283 96,-41 165,-41 188,-1"
       id="path4" />
    <path
       class="parabola far"
       d="m610,1429 c58,-130 381,-707 430,-622 71,123 -147,681 -323,1209"
       id="path5" />
    <path
       stroke-width="13"
       d="m155,1687 624,-1531 624,1531"
       id="path6" />
    <path
       class="thin"
       d="m724,2068 -126,-731"
       id="path7" />
    <path
       class="line"
       d="m31,1719 h1500"
       id="path8" />
    <g
       class="hyperbola"
       id="g10">
      <path
         class="far"
         d="m1174,1950 s92,-583 40,-724 c-27,-75 -138,229 -138,229"
         id="path9" />
      <path
         d="m1174,1952 s92,-583 40,-724"
         id="path10" />
    </g>
    <path
       class="line"
       d="m1122,1713 106,-614 M675,1712 l398,-967 M780,1719 V32"
       id="path11" />
    <path
       class="parabola"
       stroke="none"
       d="m685,1700 357,-894 c71,123 -147,681 -323,1209"
       id="path12" />
    <path
       class="circle"
       d="m652,476 a128,63 0 0 0 256,0"
       id="path13" />
    <path
       class="ellipse"
       d="m973,635 c29,59 -59,188 -199,286 s-277,128 -306,68 c-8,-17 -7,-39 3,-68"
       id="path14" />
    <path
       class="parabola"
       d="m1042,805 c71,123 -147,681 -323,1209"
       id="path15" />
    <path
       class="line"
       d="m675,1712 398,-967"
       id="path16" />
  </g>
  <path
     d="m 992.69333,451.76975 q -7.46665,0 -13.5893,-3.73333 -5.97332,-3.88265 -9.55732,-10.4533 -3.43465,-6.71999 -3.43465,-14.9333 0,-9.70665 4.18132,-17.6213 4.33066,-7.91465 11.49864,-12.54397 7.16798,-4.77865 15.8293,-4.77865 9.70668,0 17.02398,5.22665 1.792,1.344 1.792,2.83733 0,1.19466 -1.0454,2.68799 -1.0453,1.49333 -2.5386,2.53866 -1.4933,0.896 -2.8373,0.896 -0.7467,0 -1.4934,-0.448 -0.7466,-0.59733 -1.6426,-1.19466 -3.2854,-2.53866 -7.31735,-4.77866 -4.03199,-2.23999 -6.71999,-2.23999 -7.31732,0 -11.94664,6.86931 -4.47999,6.71999 -4.47999,17.77063 0,7.01865 2.98666,12.6933 3.136,5.67466 8.21332,8.95998 5.22665,3.28533 11.49864,3.28533 4.33065,0 7.46665,-1.344 3.136,-1.49333 6.72,-5.07732 0.2986,-0.29866 0.7466,-0.448 0.448,-0.29866 0.7467,-0.29866 1.6427,0 1.6427,2.09066 0,0.896 -0.5974,2.09066 -0.448,1.04533 -1.6426,2.53866 -2.3893,2.98666 -5.6747,5.22666 -3.2853,2.09066 -7.3173,3.13599 -3.88265,1.04533 -8.51197,1.04533 z m 35.54117,-1.792 q -1.344,0 -2.24,-0.448 -0.7466,-0.29866 -0.7466,-1.19466 0,-1.19466 1.0453,-1.64266 1.1947,-0.448 2.3893,-0.74667 3.136,-0.74666 4.7787,-1.79199 1.6426,-1.19467 1.6426,-3.88266 v -32.40526 q 0,-4.03199 -1.4933,-7.16798 -1.344,-3.136 -5.2266,-3.73333 -0.7467,-0.14933 -1.1947,-0.59733 -0.2987,-0.448 -0.2987,-1.344 0,-1.64266 1.344,-1.79199 5.9733,-1.344 9.856,-3.584 3.8827,-2.38932 5.824,-3.88265 1.344,-1.04533 2.0906,-1.04533 0.896,0 0.896,0.74666 0,1.19466 -0.448,4.77866 -0.2986,3.43466 -0.5973,7.76531 -0.2987,4.18133 -0.2987,7.61598 v 34.64526 q 0,2.53866 1.6427,3.73332 1.792,1.19467 4.7787,1.94133 1.1946,0.29867 2.24,0.74667 1.1946,0.448 1.1946,1.64266 0,1.64266 -2.9866,1.64266 -2.8374,0 -4.6294,-0.29866 -1.6426,-0.14934 -3.2853,-0.29867 -1.4933,-0.14933 -4.1813,-0.14933 -2.5387,0 -4.1813,0.14933 -1.6427,0.14933 -3.2854,0.29867 -1.6426,0.29866 -4.6293,0.29866 z m 8.3627,-68.69317 q -1.1947,0 -1.1947,-1.344 0,-0.448 0.1493,-1.04533 0.1494,-0.74667 0.448,-1.64266 1.0454,-2.83733 3.2854,-7.16799 2.3893,-4.47999 4.6293,-8.66131 2.3893,-4.18132 3.584,-6.12265 0.7466,-1.19467 1.792,-1.94133 1.1946,-0.74667 2.24,-0.74667 2.8373,0 5.0773,0.74667 2.24,0.74666 2.24,2.38933 0,0.89599 -0.448,1.49333 -0.2987,0.59733 -1.0453,1.64266 -1.792,2.53866 -4.928,6.42132 -2.9867,3.73332 -6.1227,7.31731 -3.136,3.584 -5.0773,5.52532 -3.136,3.136 -4.6293,3.136 z m 28.9707,68.69317 q -1.4933,0 -2.24,-0.448 -0.7467,-0.29866 -0.7467,-1.19466 0,-1.19466 0.896,-1.49333 0.896,-0.448 2.5387,-0.896 2.8373,-0.74666 4.1813,-2.09066 1.4933,-1.49333 1.4933,-3.58399 v -32.10659 q 0,-4.032 -1.1946,-7.01865 -1.1947,-2.98666 -4.928,-3.73333 -0.5973,-0.14933 -1.0453,-0.74666 -0.448,-0.59734 -0.448,-1.19467 0,-1.49333 1.344,-1.79199 3.8826,-1.19467 8.0639,-3.43466 4.3307,-2.38933 6.72,-3.88266 0.896,-0.59733 1.344,-0.74667 0.5974,-0.29866 0.896,-0.29866 0.7467,0 0.7467,1.04533 0,0.448 -0.1493,2.23999 0,1.792 -0.1494,4.18133 0,2.38933 -0.1493,4.77865 0,0.29867 0.2987,0.29867 2.3893,-2.98666 5.2266,-5.22666 2.9867,-2.23999 5.9733,-3.58399 3.136,-1.34399 5.9733,-1.34399 3.136,0 5.0774,1.34399 2.0906,1.344 2.0906,3.43466 0,1.49333 -0.896,3.28533 -0.7466,1.79199 -2.0906,3.13599 -1.344,1.344 -2.8374,1.344 -0.896,0 -1.9413,-0.29867 -1.0453,-0.448 -2.24,-1.04533 -1.1946,-0.448 -2.3893,-0.896 -1.1947,-0.448 -2.3893,-0.448 -3.584,0 -7.0187,2.53866 -3.2853,2.53866 -3.2853,10.00531 v 30.16527 q 0,1.94133 2.0906,3.28532 2.0907,1.19467 5.824,2.38933 1.6427,0.448 2.5387,0.896 0.896,0.448 0.896,1.49333 0,1.64266 -2.9867,1.64266 -4.48,0 -6.8693,-0.448 -2.24,-0.29866 -6.1226,-0.29866 -2.5387,0 -4.1814,0.14933 -1.4933,0.14933 -3.2853,0.29867 -1.6426,0.29866 -4.6293,0.29866 z m 74.3678,1.792 q -7.4667,0 -13.5893,-3.73333 -5.9734,-3.88265 -9.5573,-10.4533 -3.4347,-6.71999 -3.4347,-14.9333 0,-9.70665 4.1813,-17.6213 4.3307,-7.91465 11.4987,-12.54397 7.1679,-4.77865 15.8293,-4.77865 9.7066,0 17.0239,5.22665 1.792,1.344 1.792,2.83733 0,1.19466 -1.0453,2.68799 -1.0453,1.49333 -2.5387,2.53866 -1.4933,0.896 -2.8373,0.896 -0.7467,0 -1.4933,-0.448 -0.7467,-0.59733 -1.6427,-1.19466 -3.2853,-2.53866 -7.3173,-4.77866 -4.032,-2.23999 -6.72,-2.23999 -7.3173,0 -11.9466,6.86931 -4.48,6.71999 -4.48,17.77063 0,7.01865 2.9866,12.6933 3.136,5.67466 8.2133,8.95998 5.2267,3.28533 11.4987,3.28533 4.3306,0 7.4666,-1.344 3.136,-1.49333 6.72,-5.07732 0.2987,-0.29866 0.7467,-0.448 0.448,-0.29866 0.7467,-0.29866 1.6426,0 1.6426,2.09066 0,0.896 -0.5973,2.09066 -0.448,1.04533 -1.6427,2.53866 -2.3893,2.98666 -5.6746,5.22666 -3.2854,2.09066 -7.3174,3.13599 -3.8826,1.04533 -8.5119,1.04533 z m 83.6264,0.59733 q -1.0454,0 -1.0454,-1.19466 0,-1.49333 0.2987,-4.33066 0.448,-2.98666 0.448,-4.92799 0,-0.29866 0,-0.448 0,-0.29866 0,-0.448 -5.824,5.67466 -11.7973,8.21332 -5.824,2.38933 -12.8426,2.38933 -4.7787,0 -8.6613,-2.09067 -3.8827,-1.94132 -6.1227,-5.82398 -2.24,-4.03199 -2.24,-9.85598 v -30.3146 q 0,-3.28532 -1.4933,-5.22665 -1.4934,-1.94133 -4.928,-3.28533 -0.7467,-0.29866 -1.344,-0.74666 -0.5973,-0.448 -0.5973,-1.64267 0,-1.34399 0.5973,-1.79199 0.7467,-0.448 1.6427,-0.59733 5.0773,-0.29867 7.7653,-0.74667 2.8373,-0.59733 7.0186,-1.64266 0.448,-0.14933 0.5973,-0.14933 0.2987,0 0.5974,0 1.6426,0 1.4933,2.09066 -0.448,3.43466 -0.7467,5.82398 -0.1493,2.24 -0.1493,5.67466 v 29.11993 q 0,3.58399 1.792,6.71999 1.792,2.98666 4.6293,4.92799 2.9867,1.94132 6.1227,1.94132 3.8826,0 6.72,-0.448 2.9866,-0.44799 5.824,-2.53866 1.6426,-1.19466 4.1813,-3.88265 2.5386,-2.688 2.5386,-7.31732 v -27.32794 q 0,-3.13599 -1.9413,-4.62932 -1.792,-1.64266 -4.1813,-2.24 -2.3893,-0.59733 -3.8827,-0.59733 -1.344,0 -2.24,-0.448 -0.896,-0.59733 -0.896,-2.09066 0,-1.344 0.896,-1.79199 1.0454,-0.448 2.24,-0.448 4.6294,-0.14934 7.616,-0.29867 3.136,-0.29867 5.5253,-0.74666 2.5387,-0.59734 5.2267,-1.344 0.2987,-0.14933 0.7467,-0.14933 0.448,-0.14934 0.7466,-0.14934 1.9413,0 1.9413,1.64267 0,0.14933 -0.1493,0.59733 0,0.29866 -0.1493,0.74666 -0.1494,0.448 -0.448,2.53866 -0.1494,2.09067 -0.448,4.33066 -0.1494,2.24 -0.1494,3.43466 v 34.49592 q 0,4.03199 0.7467,5.82399 0.896,1.64266 1.9413,1.64266 1.1947,0 3.4347,-0.14933 2.3893,-0.29867 3.4347,-0.29867 0.7466,0 1.4933,0.29867 0.7467,0.29866 0.7467,1.64266 0,1.19466 -0.5974,1.64266 -0.5973,0.29867 -1.4933,0.448 -5.824,0.74667 -10.0053,2.24 -4.1813,1.49333 -7.4667,2.83732 -0.448,0.14934 -1.344,0.448 -0.896,0.448 -1.6426,0.448 z m 29.8666,-2.38933 q -0.7466,0 -1.9413,-0.29866 -1.0453,-0.14934 -1.0453,-1.04533 0,-1.19467 1.0453,-1.64267 1.1947,-0.59733 2.3893,-1.04533 2.24,-0.74666 4.3307,-1.64266 2.0907,-1.04533 2.0907,-4.03199 v -75.26383 q 0,-4.33066 -1.6427,-7.16798 -1.4933,-2.98666 -5.2267,-3.73333 -1.1946,-0.29866 -1.1946,-1.94133 0,-1.49333 1.0453,-1.79199 3.8827,-0.896 6.72,-1.792 2.8373,-1.04533 5.2267,-2.09066 2.5386,-1.04533 4.9279,-1.94133 0.5974,-0.29867 0.896,-0.29867 0.2987,0 0.448,0.448 0.2987,0.29867 0.2987,0.59734 0,1.34399 -0.5973,5.82398 -0.448,4.33066 -0.448,14.4853 v 74.6665 q 0,2.98666 2.0906,4.03199 2.0907,0.896 4.3307,1.64266 1.1947,0.448 2.24,1.04533 1.1947,0.448 1.1947,1.64267 0,0.89599 -1.1947,1.04533 -1.0453,0.29866 -1.792,0.29866 -2.8373,0 -4.6293,-0.29866 -1.6427,-0.14934 -3.2854,-0.29867 -1.4933,-0.14933 -4.1813,-0.14933 -2.5386,0 -4.1813,0.14933 -1.6427,0.14933 -3.2853,0.29867 -1.6427,0.29866 -4.6294,0.29866 z m 64.9599,1.64267 q -8.3627,0 -15.0827,-3.88266 -6.72,-3.88266 -10.752,-10.60264 -3.8826,-6.86932 -3.8826,-15.53063 0,-6.27199 2.3893,-12.24531 2.5387,-5.97332 7.0187,-10.90131 4.48,-4.92799 10.4533,-7.76531 5.9733,-2.98666 12.8426,-2.98666 8.6613,0 15.5306,4.18132 7.0187,4.18132 11.0507,11.05064 4.1813,6.71999 4.1813,14.78397 0,8.66131 -3.8826,16.42663 -3.7334,7.76531 -11.2,12.6933 -7.4667,4.77866 -18.6666,4.77866 z m 3.1359,-4.47999 q 5.0774,0 9.1094,-1.94133 4.032,-1.94133 6.2719,-6.27199 1.792,-3.43466 2.3894,-8.36265 0.5973,-4.92798 0.5973,-9.25864 0,-7.16798 -2.688,-13.73864 -2.5386,-6.71998 -7.3173,-10.9013 -4.6293,-4.33066 -11.0506,-4.33066 -4.032,0 -7.3174,1.344 -3.136,1.19466 -5.8239,4.62932 -2.9867,3.73332 -3.8827,9.10931 -0.896,5.37599 -0.896,10.75198 0,7.31731 2.688,14.0373 2.688,6.57065 7.3173,10.75197 4.6293,4.18133 10.6026,4.18133 z"
     id="text150"
     style="font-size:149.333px;line-height:0.75;font-family:'EB Garamond';-inkscape-font-specification:'EB Garamond';text-align:center;text-anchor:middle;fill:#aa0000;stroke-width:1.33333"
     aria-label="círculo" />
  <path
     d="m 1092.5123,701.76978 q -8.2133,0 -14.3359,-4.03199 -6.1227,-4.03199 -9.5573,-11.34931 -3.4347,-7.46665 -3.4347,-17.17329 0,-8.66132 3.8827,-15.67997 4.032,-7.16798 10.6026,-11.49864 6.5707,-4.33065 14.336,-4.33065 5.9733,0 10.6026,2.38932 4.6293,2.38933 7.168,6.71999 2.688,4.18132 2.688,9.70664 0,4.62933 -4.48,4.62933 h -31.5093 q -2.0906,0 -2.9866,1.19466 -0.7467,1.04533 -0.7467,4.33066 0,7.16798 3.136,13.1413 3.136,5.82399 8.3627,9.40798 5.2266,3.43466 11.4986,3.43466 4.48,0 8.064,-1.64267 3.7333,-1.79199 6.5706,-5.07732 0.5974,-0.74666 0.896,-0.896 0.2987,-0.29866 0.7467,-0.29866 1.1947,0 1.1947,1.49333 0,2.83733 -2.688,6.27198 -2.24,2.83733 -5.376,4.92799 -3.136,2.09067 -6.8693,3.136 -3.7334,1.19466 -7.7654,1.19466 z m -13.7386,-45.2479 h 13.5893 q 3.584,0 6.1227,-0.14933 2.5386,-0.14933 4.928,-0.59733 0.7466,-0.14933 0.896,-0.896 0.2986,-0.896 0.2986,-2.38933 0,-4.33065 -3.8826,-7.31731 -3.7334,-3.136 -8.96,-3.136 -3.4347,0 -6.8693,2.09066 -3.4347,1.94133 -5.6747,4.92799 -2.24,2.98666 -2.24,5.97332 0,1.49333 1.792,1.49333 z m 45.9945,43.4559 q -0.7467,0 -1.9413,-0.29866 -1.0454,-0.14933 -1.0454,-1.04533 0,-1.19467 1.0454,-1.64267 1.1946,-0.59733 2.3893,-1.04533 2.24,-0.74666 4.3306,-1.64266 2.0907,-1.04533 2.0907,-4.03199 v -75.26383 q 0,-4.33066 -1.6427,-7.16798 -1.4933,-2.98666 -5.2266,-3.73333 -1.1947,-0.29866 -1.1947,-1.94133 0,-1.49333 1.0454,-1.79199 3.8826,-0.896 6.7199,-1.792 2.8374,-1.04533 5.2267,-2.09066 2.5387,-1.04533 4.928,-1.94133 0.5973,-0.29866 0.896,-0.29866 0.2986,0 0.448,0.44799 0.2986,0.29867 0.2986,0.59734 0,1.34399 -0.5973,5.82398 -0.448,4.33066 -0.448,14.4853 v 74.6665 q 0,2.98666 2.0907,4.03199 2.0906,0.896 4.3306,1.64266 1.1947,0.448 2.24,1.04533 1.1947,0.448 1.1947,1.64267 0,0.896 -1.1947,1.04533 -1.0453,0.29866 -1.792,0.29866 -2.8373,0 -4.6293,-0.29866 -1.6427,-0.14933 -3.2853,-0.29867 -1.4934,-0.14933 -4.1813,-0.14933 -2.5387,0 -4.1814,0.14933 -1.6426,0.14934 -3.2853,0.29867 -1.6427,0.29866 -4.6293,0.29866 z m 36.5865,0 q -1.344,0 -2.24,-0.44799 -0.7466,-0.29867 -0.7466,-1.19467 0,-1.19466 1.0453,-1.64266 1.1947,-0.448 2.3893,-0.74667 3.136,-0.74666 4.7787,-1.79199 1.6427,-1.19467 1.6427,-3.88266 v -32.40526 q 0,-4.03199 -1.4934,-7.16798 -1.344,-3.136 -5.2266,-3.73333 -0.7467,-0.14933 -1.1947,-0.59733 -0.2987,-0.448 -0.2987,-1.344 0,-1.64266 1.344,-1.79199 5.9734,-1.344 9.856,-3.58399 3.8827,-2.38933 5.824,-3.88266 1.344,-1.04533 2.0907,-1.04533 0.896,0 0.896,0.74666 0,1.19467 -0.448,4.77866 -0.2987,3.43466 -0.5974,7.76531 -0.2986,4.18133 -0.2986,7.61599 v 34.64525 q 0,2.53866 1.6426,3.73332 1.792,1.19467 4.7787,1.94133 1.1946,0.29867 2.24,0.74667 1.1946,0.448 1.1946,1.64266 0,1.64266 -2.9866,1.64266 -2.8373,0 -4.6293,-0.29866 -1.6427,-0.14933 -3.2854,-0.29867 -1.4933,-0.14933 -4.1813,-0.14933 -2.5387,0 -4.1813,0.14933 -1.6427,0.14934 -3.2853,0.29867 -1.6427,0.29866 -4.6294,0.29866 z m 11.9467,-77.50382 q -3.136,0 -5.376,-2.09066 -2.0907,-2.24 -2.0907,-5.37599 0,-3.28532 2.0907,-5.37599 2.24,-2.23999 5.376,-2.23999 3.2853,0 5.376,2.23999 2.24,2.09067 2.24,5.37599 0,3.13599 -2.24,5.37599 -2.0907,2.09066 -5.376,2.09066 z m 24.0427,119.61573 q -0.7467,0 -1.9413,-0.29867 -1.1947,-0.14933 -1.1947,-1.04533 0,-1.19466 1.0453,-1.79199 1.1947,-0.448 2.3894,-0.896 2.24,-0.74667 4.3306,-1.792 2.0907,-0.896 2.0907,-3.88266 v -75.71182 q 0,-1.19467 -0.7467,-3.584 -0.5973,-2.38932 -2.0906,-4.62932 -1.4934,-2.23999 -4.032,-2.68799 -0.5974,-0.14934 -0.896,-0.74667 -0.2987,-0.59733 -0.2987,-1.19466 0,-0.74667 0.2987,-1.19467 0.2986,-0.44799 0.7466,-0.59733 5.6747,-1.34399 9.7067,-2.83732 4.032,-1.64267 7.616,-3.136 0.1493,0 0.1493,0 0,-0.14933 0.1493,-0.14933 0.2987,0 0.5974,0.448 0.2986,0.448 0.2986,0.896 0,1.34399 -0.448,4.33065 -0.2986,2.83733 -0.2986,4.62933 0,1.19466 0.1493,1.34399 1.4933,-1.49333 5.376,-3.73332 4.032,-2.38933 9.1093,-4.18132 5.0773,-1.94133 9.7066,-1.94133 7.7654,0 13.1413,4.18132 5.5254,4.03199 8.3627,10.60264 2.9867,6.42132 2.9867,13.43997 0,6.71999 -2.5387,13.14131 -2.5387,6.27198 -7.168,11.3493 -4.6293,5.07732 -10.752,8.21332 -6.1226,2.98666 -13.1413,2.98666 -2.0906,0 -5.0773,-0.74667 -2.8373,-0.59733 -5.6746,-1.64266 -2.688,-1.04533 -4.1814,-2.38933 -0.1493,0 -0.2986,1.792 -0.1494,1.64266 -0.2987,3.43466 0,1.94132 0,2.38932 v 27.92527 q 0,1.94133 1.4933,2.98666 1.6427,1.19467 3.584,1.64267 2.0907,0.59733 3.584,1.04533 1.1947,0.448 2.24,0.896 1.1947,0.59733 1.1947,1.79199 0,0.896 -1.1947,1.04533 -1.1947,0.29867 -2.0907,0.29867 -4.3306,0 -7.3173,-0.448 -2.8373,-0.29867 -6.72,-0.29867 -2.5386,0 -4.1813,0.14934 -1.4933,0.14933 -3.136,0.29866 -1.6426,0.29867 -4.6293,0.29867 z m 34.9439,-45.09857 q 2.24,0 5.376,-1.34399 3.2853,-1.344 6.4213,-4.33066 3.2854,-2.98666 5.376,-8.06398 2.24,-5.07732 2.24,-12.54397 0,-8.66132 -2.24,-13.88797 -2.24,-5.22666 -5.5253,-7.91465 -3.2853,-2.68799 -6.72,-3.58399 -3.4346,-0.896 -5.824,-0.896 -3.584,0 -7.4666,1.49333 -3.7333,1.49333 -6.4213,3.43466 -2.5387,1.792 -2.5387,2.83733 0,3.28532 -0.1493,6.71998 0,3.28533 -0.1494,6.42132 0,3.13599 -0.1493,5.67465 0,2.38933 0,3.73333 0,5.97332 2.688,11.05064 2.8373,5.07732 6.8693,8.21331 4.1813,2.98666 8.2133,2.98666 z m 58.0904,4.62933 q -4.6293,0 -8.6613,-1.49333 -4.032,-1.344 -6.8693,-3.88266 -0.7467,-1.64266 -1.1947,-5.52532 -0.2986,-3.88266 -0.448,-6.42132 0,-1.344 1.9414,-1.344 0.5973,0 1.0453,0.29867 0.5973,0.14933 0.7467,0.74666 1.9413,7.31732 6.1226,10.45331 4.3307,3.136 8.6613,3.136 4.3307,0 7.3173,-2.83733 3.136,-2.98666 3.136,-7.31732 0,-4.03199 -2.688,-6.86931 -2.688,-2.98666 -9.4079,-7.16799 -5.0774,-3.13599 -8.2134,-5.97332 -3.1359,-2.83733 -4.6293,-5.82398 -1.344,-2.98666 -1.344,-6.71999 0,-4.77866 2.24,-8.66131 2.24,-3.88266 6.72,-6.12266 4.48,-2.38932 11.2,-2.38932 4.48,0 7.4666,0.89599 2.9867,0.896 4.48,1.94133 1.1947,1.64267 1.9414,5.22666 0.8959,3.43466 0.8959,6.57065 0,1.04533 -1.4933,1.04533 -0.896,0 -1.792,-0.29867 -0.7466,-0.44799 -1.0453,-1.04533 -1.9413,-4.92799 -4.928,-7.46665 -2.8373,-2.68799 -7.168,-2.68799 -3.7333,0 -6.72,2.23999 -2.8373,2.24 -2.8373,6.57066 0,3.43466 2.0907,6.12265 2.24,2.68799 8.2133,6.12265 8.6613,4.92799 12.8426,9.25865 4.3307,4.18132 4.3307,11.19997 0,8.06398 -6.1227,13.14131 -6.1226,5.07732 -15.8293,5.07732 z m 58.5385,0.14933 q -8.2133,0 -14.3359,-4.03199 -6.1227,-4.03199 -9.5573,-11.34931 -3.4347,-7.46665 -3.4347,-17.17329 0,-8.66132 3.8827,-15.67997 4.032,-7.16798 10.6026,-11.49864 6.5707,-4.33065 14.336,-4.33065 5.9733,0 10.6026,2.38932 4.6293,2.38933 7.168,6.71999 2.688,4.18132 2.688,9.70664 0,4.62933 -4.48,4.62933 h -31.5093 q -2.0906,0 -2.9866,1.19466 -0.7467,1.04533 -0.7467,4.33066 0,7.16798 3.136,13.1413 3.136,5.82399 8.3627,9.40798 5.2266,3.43466 11.4986,3.43466 4.48,0 8.064,-1.64267 3.7333,-1.79199 6.5706,-5.07732 0.5974,-0.74666 0.896,-0.896 0.2987,-0.29866 0.7467,-0.29866 1.1947,0 1.1947,1.49333 0,2.83733 -2.688,6.27198 -2.24,2.83733 -5.376,4.92799 -3.136,2.09067 -6.8693,3.136 -3.7334,1.19466 -7.7654,1.19466 z m -13.7386,-45.2479 h 13.5893 q 3.584,0 6.1227,-0.14933 2.5386,-0.14933 4.928,-0.59733 0.7466,-0.14933 0.896,-0.896 0.2986,-0.896 0.2986,-2.38933 0,-4.33065 -3.8826,-7.31731 -3.7334,-3.136 -8.96,-3.136 -3.4347,0 -6.8693,2.09066 -3.4347,1.94133 -5.6747,4.92799 -2.24,2.98666 -2.24,5.97332 0,1.49333 1.792,1.49333 z"
     id="text150-7"
     style="font-size:149.333px;line-height:0.75;font-family:'EB Garamond';-inkscape-font-specification:'EB Garamond';text-align:center;text-anchor:middle;fill:#5aa02c;stroke-width:1.33333"
     aria-label="elipse" />
  <path
     d="m 1167.0682,992.08969 q -0.7466,0 -1.9413,-0.29867 -1.1947,-0.14933 -1.1947,-1.04533 0,-1.19466 1.0454,-1.79199 1.1946,-0.448 2.3893,-0.896 2.24,-0.74667 4.3307,-1.792 2.0906,-0.896 2.0906,-3.88266 v -75.71182 q 0,-1.19467 -0.7466,-3.584 -0.5974,-2.38932 -2.0907,-4.62932 -1.4933,-2.23999 -4.032,-2.68799 -0.5973,-0.14934 -0.896,-0.74667 -0.2987,-0.59733 -0.2987,-1.19466 0,-0.74667 0.2987,-1.19467 0.2987,-0.44799 0.7467,-0.59733 5.6746,-1.34399 9.7066,-2.83732 4.032,-1.64267 7.616,-3.136 0.1493,0 0.1493,0 0,-0.14933 0.1494,-0.14933 0.2986,0 0.5973,0.448 0.2987,0.448 0.2987,0.896 0,1.34399 -0.448,4.33065 -0.2987,2.83733 -0.2987,4.62933 0,1.19466 0.1493,1.34399 1.4934,-1.49333 5.376,-3.73332 4.032,-2.38933 9.1093,-4.18132 5.0774,-1.94133 9.7067,-1.94133 7.7653,0 13.1413,4.18132 5.5253,4.03199 8.3626,10.60264 2.9867,6.42132 2.9867,13.43997 0,6.71999 -2.5387,13.14131 -2.5386,6.27198 -7.168,11.3493 -4.6293,5.07732 -10.7519,8.21332 -6.1227,2.98666 -13.1413,2.98666 -2.0907,0 -5.0774,-0.74667 -2.8373,-0.59733 -5.6746,-1.64266 -2.688,-1.04533 -4.1813,-2.38933 -0.1494,0 -0.2987,1.792 -0.1493,1.64266 -0.2987,3.43466 0,1.94132 0,2.38932 v 27.92527 q 0,1.94133 1.4934,2.98666 1.6426,1.19467 3.584,1.64267 2.0906,0.59733 3.5839,1.04533 1.1947,0.448 2.24,0.896 1.1947,0.59733 1.1947,1.79199 0,0.896 -1.1947,1.04533 -1.1946,0.29867 -2.0906,0.29867 -4.3307,0 -7.3173,-0.448 -2.8374,-0.29867 -6.72,-0.29867 -2.5387,0 -4.1813,0.14934 -1.4934,0.14933 -3.136,0.29866 -1.6427,0.29867 -4.6294,0.29867 z m 34.944,-45.09857 q 2.24,0 5.3759,-1.34399 3.2854,-1.344 6.4214,-4.33066 3.2853,-2.98666 5.376,-8.06398 2.2399,-5.07732 2.2399,-12.54397 0,-8.66132 -2.2399,-13.88797 -2.24,-5.22666 -5.5254,-7.91465 -3.2853,-2.68799 -6.72,-3.58399 -3.4346,-0.896 -5.8239,-0.896 -3.584,0 -7.4667,1.49333 -3.7333,1.49333 -6.4213,3.43466 -2.5387,1.792 -2.5387,2.83733 0,3.28532 -0.1493,6.71998 0,3.28533 -0.1493,6.42132 0,3.13599 -0.1494,5.67465 0,2.38933 0,3.73333 0,5.97332 2.688,11.05064 2.8374,5.07732 6.8693,8.21331 4.1814,2.98666 8.2134,2.98666 z m 51.0716,4.62933 q -2.688,0 -5.5253,-2.09066 -2.688,-2.09067 -4.6293,-5.07733 -1.792,-2.98666 -1.792,-5.67465 0,-4.77866 2.5387,-7.46665 2.5386,-2.68799 8.0639,-4.92799 l 15.232,-6.27198 q 2.9867,-1.19467 3.4347,-2.09067 0.5973,-0.89599 0.7466,-3.88265 l 0.2987,-9.55732 q 0.1493,-3.88265 -2.24,-6.71998 -2.24,-2.83733 -6.5707,-2.83733 -2.2399,0 -4.4799,0.74667 -2.24,0.74666 -3.7334,1.94133 -0.896,0.59733 -1.1946,1.79199 -0.2987,1.19467 -0.2987,2.53866 0,0.59734 0,1.344 0.1493,0.74667 0.1493,1.344 0,0.74666 -1.9413,2.09066 -1.792,1.19466 -4.1813,2.23999 -2.24,0.896 -3.7333,0.896 -0.7467,0 -1.1947,-0.29866 -0.448,-0.448 -0.448,-1.04533 0,-2.38933 1.4933,-5.07733 1.6427,-2.83732 4.48,-5.22665 3.4347,-3.13599 7.4667,-5.52532 4.032,-2.38933 7.9146,-3.73333 3.8827,-1.34399 6.8693,-1.34399 5.376,0 8.8107,3.88265 3.584,3.73333 3.4346,9.40798 l -0.7466,35.83992 q -0.1494,3.13599 1.344,5.07732 1.6426,1.94133 4.032,1.94133 3.7333,0 5.5253,-1.64266 0.7466,-0.74667 1.1946,-0.74667 0.7467,0 1.1947,0.448 0.448,0.448 0.448,1.19467 0,1.64266 -1.6427,3.28532 -2.3893,2.38933 -5.2266,3.73333 -2.688,1.49333 -5.0773,1.49333 -6.8693,0 -10.9013,-7.76532 h -0.448 q -4.928,4.03199 -9.408,5.82399 -4.48,1.94133 -9.2587,1.94133 z m 7.0187,-7.16799 q 2.9866,0 5.0773,-0.89599 2.0907,-1.04534 3.7333,-2.688 0.7467,-0.74666 1.1947,-1.94133 0.5973,-1.34399 0.7467,-4.18132 l 0.2986,-7.31732 q 0.1494,-1.64266 -0.1493,-2.38933 -0.2987,-0.74666 -1.1947,-0.74666 -0.2986,0 -1.0453,0.14933 -0.7467,0.14934 -1.9413,0.59733 -7.9147,2.83733 -11.0507,5.97332 -2.9866,2.98666 -2.9866,5.52532 0,3.88266 2.24,5.97332 2.3893,1.94133 5.0773,1.94133 z m 42.4106,5.52532 q -1.4934,0 -2.24,-0.44799 -0.7467,-0.29867 -0.7467,-1.19467 0,-1.19466 0.896,-1.49333 0.896,-0.448 2.5387,-0.896 2.8373,-0.74666 4.1813,-2.09066 1.4933,-1.49333 1.4933,-3.58399 v -32.10659 q 0,-4.03199 -1.1946,-7.01865 -1.1947,-2.98666 -4.928,-3.73333 -0.5974,-0.14933 -1.0454,-0.74666 -0.448,-0.59734 -0.448,-1.19467 0,-1.49333 1.344,-1.79199 3.8827,-1.19467 8.064,-3.43466 4.3307,-2.38933 6.72,-3.88266 0.896,-0.59733 1.344,-0.74667 0.5973,-0.29866 0.896,-0.29866 0.7467,0 0.7467,1.04533 0,0.448 -0.1494,2.23999 0,1.792 -0.1493,4.18133 0,2.38933 -0.1493,4.77865 0,0.29867 0.2986,0.29867 2.3894,-2.98666 5.2267,-5.22666 2.9867,-2.23999 5.9733,-3.58399 3.136,-1.34399 5.9733,-1.34399 3.136,0 5.0774,1.34399 2.0906,1.344 2.0906,3.43466 0,1.49333 -0.896,3.28533 -0.7466,1.79199 -2.0906,3.13599 -1.344,1.344 -2.8374,1.344 -0.896,0 -1.9413,-0.29867 -1.0453,-0.448 -2.24,-1.04533 -1.1947,-0.448 -2.3893,-0.896 -1.1947,-0.448 -2.3893,-0.448 -3.584,0 -7.0187,2.53866 -3.2853,2.53867 -3.2853,10.00532 v 30.16526 q 0,1.94133 2.0906,3.28533 2.0907,1.19466 5.824,2.38932 1.6427,0.448 2.5387,0.896 0.896,0.448 0.896,1.49333 0,1.64266 -2.9867,1.64266 -4.48,0 -6.8693,-0.44799 -2.24,-0.29867 -6.1226,-0.29867 -2.5387,0 -4.1814,0.14933 -1.4933,0.14934 -3.2853,0.29867 -1.6427,0.29866 -4.6293,0.29866 z m 60.0318,1.64267 q -2.688,0 -5.5253,-2.09066 -2.688,-2.09067 -4.6294,-5.07733 -1.792,-2.98666 -1.792,-5.67465 0,-4.77866 2.5387,-7.46665 2.5387,-2.68799 8.064,-4.92799 l 15.232,-6.27198 q 2.9866,-1.19467 3.4346,-2.09067 0.5973,-0.89599 0.7467,-3.88265 l 0.2986,-9.55732 q 0.1494,-3.88265 -2.2399,-6.71998 -2.24,-2.83733 -6.5707,-2.83733 -2.24,0 -4.48,0.74667 -2.24,0.74666 -3.7333,1.94133 -0.896,0.59733 -1.1947,1.79199 -0.2986,1.19467 -0.2986,2.53866 0,0.59734 0,1.344 0.1493,0.74667 0.1493,1.344 0,0.74666 -1.9413,2.09066 -1.792,1.19466 -4.1814,2.23999 -2.24,0.896 -3.7333,0.896 -0.7467,0 -1.1947,-0.29866 -0.448,-0.448 -0.448,-1.04533 0,-2.38933 1.4934,-5.07733 1.6426,-2.83732 4.48,-5.22665 3.4346,-3.13599 7.4666,-5.52532 4.032,-2.38933 7.9147,-3.73333 3.8826,-1.34399 6.8693,-1.34399 5.376,0 8.8106,3.88265 3.584,3.73333 3.4347,9.40798 l -0.7467,35.83992 q -0.1493,3.13599 1.344,5.07732 1.6427,1.94133 4.032,1.94133 3.7333,0 5.5253,-1.64266 0.7467,-0.74667 1.1947,-0.74667 0.7467,0 1.1947,0.448 0.448,0.448 0.448,1.19467 0,1.64266 -1.6427,3.28532 -2.3893,2.38933 -5.2267,3.73333 -2.688,1.49333 -5.0773,1.49333 -6.8693,0 -10.9013,-7.76532 h -0.448 q -4.928,4.03199 -9.408,5.82399 -4.48,1.94133 -9.2586,1.94133 z m 7.0186,-7.16799 q 2.9867,0 5.0774,-0.89599 2.0906,-1.04534 3.7333,-2.688 0.7467,-0.74666 1.1947,-1.94133 0.5973,-1.34399 0.7466,-4.18132 l 0.2987,-7.31732 q 0.1493,-1.64266 -0.1494,-2.38933 -0.2986,-0.74666 -1.1946,-0.74666 -0.2987,0 -1.0453,0.14933 -0.7467,0.14934 -1.9414,0.59733 -7.9146,2.83733 -11.0506,5.97332 -2.9867,2.98666 -2.9867,5.52532 0,3.88266 2.24,5.97332 2.3893,1.94133 5.0773,1.94133 z m 1.9414,-63.16785 q -1.1947,0 -1.1947,-1.344 0,-0.448 0.1493,-1.04533 0.1494,-0.74667 0.448,-1.64266 1.0454,-2.83733 3.2854,-7.16799 2.3893,-4.47999 4.6293,-8.66131 2.3893,-4.18132 3.584,-6.12265 0.7466,-1.19467 1.792,-1.94133 1.1946,-0.74667 2.24,-0.74667 2.8373,0 5.0773,0.74667 2.24,0.74666 2.24,2.38933 0,0.89599 -0.448,1.49333 -0.2987,0.59733 -1.0453,1.64266 -1.792,2.53866 -4.928,6.42132 -2.9867,3.73332 -6.1227,7.31731 -3.136,3.584 -5.0773,5.52532 -3.136,3.136 -4.6293,3.136 z m 71.8292,70.33584 q -3.2854,0 -6.5707,-0.59733 -3.2853,-0.59734 -6.272,-1.344 -3.2853,-0.896 -5.824,-1.64266 -2.3893,-0.74667 -3.136,-0.74667 -0.8959,0 -1.7919,0.59733 -0.7467,0.59733 -1.4934,1.344 -0.7466,0.74666 -1.344,0.74666 -0.5973,0 -1.344,-0.44799 -0.7466,-0.59734 -0.7466,-1.344 0,-1.344 0.448,-4.62932 0.5973,-3.28533 0.5973,-6.12266 v -72.4265 q 0,-3.88266 -1.9413,-6.71998 -1.9414,-2.83733 -4.928,-4.18133 -0.5974,-0.29866 -1.344,-0.74666 -0.5974,-0.59733 -0.5974,-1.49333 0,-0.74667 0.5974,-1.04533 0.5973,-0.29867 1.1946,-0.448 1.9414,-0.448 5.2267,-1.64266 3.4347,-1.19467 6.4213,-2.38933 2.9867,-1.19467 4.032,-1.64267 0.896,-0.44799 1.344,-0.44799 0.2987,0 0.5973,0.29866 0.2987,0.29867 0.2987,0.74667 0,0.59733 -0.2987,5.07732 -0.1493,4.33065 -0.1493,10.60264 v 30.61326 q 0,2.83733 0.2987,3.88266 0.2986,0.896 1.0453,1.04533 4.6293,-3.88266 10.752,-6.27198 6.1226,-2.53866 11.0506,-2.53866 7.616,0 13.5893,3.88265 6.1227,3.88266 9.7067,10.60265 3.584,6.57065 3.584,14.9333 0,10.15464 -4.1814,18.06929 -4.1813,7.76531 -11.6479,12.09597 -7.3174,4.33066 -17.1733,4.33066 z m 3.4346,-4.62933 q 5.6747,0 9.7067,-3.43465 4.1813,-3.584 6.4213,-9.55732 2.24,-6.12265 2.24,-13.5893 0,-5.82399 -2.24,-11.94664 -2.0907,-6.12265 -6.72,-10.30397 -4.48,-4.18133 -11.648,-4.18133 -5.9733,0 -10.4533,1.94133 -4.48,1.94133 -7.7653,4.92799 v 28.9706 q 0,5.22665 2.8373,9.10931 2.9867,3.88266 7.616,5.97332 4.7787,2.09066 10.0053,2.09066 z m 69.7384,4.62933 q -8.3626,0 -15.0826,-3.88266 -6.72,-3.88266 -10.752,-10.60264 -3.8826,-6.86932 -3.8826,-15.53063 0,-6.27199 2.3893,-12.24531 2.5387,-5.97332 7.0186,-10.90131 4.48,-4.92799 10.4534,-7.76531 5.9733,-2.98666 12.8426,-2.98666 8.6613,0 15.5306,4.18132 7.0187,4.18132 11.0507,11.05064 4.1813,6.71999 4.1813,14.78397 0,8.66131 -3.8827,16.42663 -3.7333,7.76531 -11.1999,12.6933 -7.4667,4.77866 -18.6667,4.77866 z m 3.136,-4.47999 q 5.0773,0 9.1093,-1.94133 4.032,-1.94133 6.272,-6.27199 1.792,-3.43466 2.3893,-8.36264 0.5974,-4.92799 0.5974,-9.25865 0,-7.16798 -2.688,-13.73864 -2.5387,-6.71998 -7.3173,-10.9013 -4.6294,-4.33066 -11.0507,-4.33066 -4.032,0 -7.3173,1.344 -3.136,1.19466 -5.824,4.62932 -2.9866,3.73332 -3.8826,9.10931 -0.896,5.37599 -0.896,10.75198 0,7.31731 2.688,14.0373 2.688,6.57065 7.3173,10.75197 4.6293,4.18133 10.6026,4.18133 z m 39.4241,2.83732 q -0.7466,0 -1.9413,-0.29866 -1.0453,-0.14933 -1.0453,-1.04533 0,-1.19467 1.0453,-1.64267 1.1947,-0.59733 2.3893,-1.04533 2.24,-0.74666 4.3307,-1.64266 2.0907,-1.04533 2.0907,-4.03199 v -75.26383 q 0,-4.33066 -1.6427,-7.16798 -1.4933,-2.98666 -5.2267,-3.73333 -1.1946,-0.29866 -1.1946,-1.94133 0,-1.49333 1.0453,-1.79199 3.8827,-0.896 6.72,-1.792 2.8373,-1.04533 5.2267,-2.09066 2.5386,-1.04533 4.9279,-1.94133 0.5974,-0.29866 0.896,-0.29866 0.2987,0 0.448,0.44799 0.2987,0.29867 0.2987,0.59734 0,1.34399 -0.5973,5.82398 -0.448,4.33066 -0.448,14.4853 v 74.6665 q 0,2.98666 2.0906,4.03199 2.0907,0.896 4.3307,1.64266 1.1947,0.448 2.24,1.04533 1.1947,0.448 1.1947,1.64267 0,0.896 -1.1947,1.04533 -1.0453,0.29866 -1.792,0.29866 -2.8373,0 -4.6293,-0.29866 -1.6427,-0.14933 -3.2854,-0.29867 -1.4933,-0.14933 -4.1813,-0.14933 -2.5386,0 -4.1813,0.14933 -1.6427,0.14934 -3.2853,0.29867 -1.6427,0.29866 -4.6294,0.29866 z m 47.4879,1.64267 q -2.688,0 -5.5253,-2.09066 -2.688,-2.09067 -4.6293,-5.07733 -1.792,-2.98666 -1.792,-5.67465 0,-4.77866 2.5386,-7.46665 2.5387,-2.68799 8.064,-4.92799 l 15.232,-6.27198 q 2.9867,-1.19467 3.4347,-2.09067 0.5973,-0.89599 0.7466,-3.88265 l 0.2987,-9.55732 q 0.1493,-3.88265 -2.24,-6.71998 -2.24,-2.83733 -6.5707,-2.83733 -2.24,0 -4.48,0.74667 -2.2399,0.74666 -3.7333,1.94133 -0.896,0.59733 -1.1946,1.79199 -0.2987,1.19467 -0.2987,2.53866 0,0.59734 0,1.344 0.1493,0.74667 0.1493,1.344 0,0.74666 -1.9413,2.09066 -1.792,1.19466 -4.1813,2.23999 -2.24,0.896 -3.7333,0.896 -0.7467,0 -1.1947,-0.29866 -0.448,-0.448 -0.448,-1.04533 0,-2.38933 1.4933,-5.07733 1.6427,-2.83732 4.48,-5.22665 3.4347,-3.13599 7.4667,-5.52532 4.0319,-2.38933 7.9146,-3.73333 3.8827,-1.34399 6.8693,-1.34399 5.376,0 8.8107,3.88265 3.584,3.73333 3.4346,9.40798 l -0.7466,35.83992 q -0.1494,3.13599 1.344,5.07732 1.6426,1.94133 4.032,1.94133 3.7333,0 5.5253,-1.64266 0.7466,-0.74667 1.1946,-0.74667 0.7467,0 1.1947,0.448 0.448,0.448 0.448,1.19467 0,1.64266 -1.6427,3.28532 -2.3893,2.38933 -5.2266,3.73333 -2.688,1.49333 -5.0773,1.49333 -6.8694,0 -10.9013,-7.76532 h -0.448 q -4.928,4.03199 -9.408,5.82399 -4.48,1.94133 -9.2587,1.94133 z m 7.0187,-7.16799 q 2.9866,0 5.0773,-0.89599 2.0907,-1.04534 3.7333,-2.688 0.7467,-0.74666 1.1947,-1.94133 0.5973,-1.34399 0.7467,-4.18132 l 0.2986,-7.31732 q 0.1494,-1.64266 -0.1493,-2.38933 -0.2987,-0.74666 -1.1947,-0.74666 -0.2986,0 -1.0453,0.14933 -0.7467,0.14934 -1.9413,0.59733 -7.9147,2.83733 -11.0507,5.97332 -2.9866,2.98666 -2.9866,5.52532 0,3.88266 2.24,5.97332 2.3893,1.94133 5.0773,1.94133 z"
     id="text150-7-3"
     style="font-size:149.333px;line-height:0.75;font-family:'EB Garamond';-inkscape-font-specification:'EB Garamond';text-align:center;text-anchor:middle;fill:#3771c8;stroke-width:1.33333"
     aria-label="parábola" />
  <path
     d="m 1267.0429,1199.9778 q -2.9867,0 -2.9867,-1.6427 0,-1.344 3.4347,-2.3893 2.24,-0.7467 4.1813,-1.9413 2.0907,-1.1947 2.24,-4.1814 v -74.8158 q 0,-4.032 -1.344,-7.0186 -1.344,-3.136 -5.2266,-3.7334 -1.344,-0.2986 -1.344,-2.0906 0,-1.344 1.1946,-1.792 2.0907,-0.7467 4.928,-1.6427 2.9867,-0.896 6.1227,-1.9413 3.136,-1.1947 5.5253,-2.24 0.5973,-0.2987 0.896,-0.2987 0.448,0 0.7466,0.2987 0.2987,0.2987 0.2987,0.7467 0,0.896 -0.448,2.5386 -0.2987,1.6427 -0.5973,5.6747 -0.2987,4.032 -0.2987,12.0959 v 25.984 q 0,2.3893 0.1493,3.4346 0.2987,1.0454 0.896,2.0907 2.3894,-1.792 5.824,-3.8827 3.584,-2.2399 7.9147,-3.8826 4.3306,-1.6427 8.96,-1.6427 7.3173,0 12.0959,5.824 4.928,5.6747 4.928,14.4853 v 31.3599 q 0,2.9867 1.9414,4.48 1.9413,1.344 4.1813,2.0907 1.6426,0.448 2.5386,1.0453 0.896,0.448 0.896,1.344 0,1.6427 -2.9866,1.6427 -2.9867,0 -4.6293,-0.2987 -1.4934,-0.1493 -2.9867,-0.2986 -1.344,-0.1494 -4.032,-0.1494 -2.5387,0 -4.032,0.1494 -1.4933,0.1493 -3.136,0.2986 -1.4933,0.2987 -4.48,0.2987 -2.9866,0 -2.9866,-1.6427 0,-1.0453 0.896,-1.344 0.896,-0.448 2.5386,-1.0453 2.24,-0.7467 4.032,-2.0907 1.792,-1.4933 1.792,-4.48 v -30.4639 q 0,-3.7333 -2.24,-6.72 -2.0906,-3.136 -5.2266,-4.928 -3.136,-1.792 -6.4214,-1.792 -2.8373,0 -6.5706,0.896 -3.7333,0.7467 -5.824,2.3894 -2.3893,1.9413 -3.2853,4.032 -0.7467,2.0906 -0.7467,6.7199 v 30.3146 q 0.1493,2.9867 1.792,4.1814 1.792,1.1946 4.032,1.9413 1.6427,0.448 2.3893,1.0453 0.896,0.448 0.896,1.344 0,1.6427 -2.9866,1.6427 -2.9867,0 -4.48,-0.2987 -1.4934,-0.1493 -2.8373,-0.2986 -1.344,-0.1494 -4.032,-0.1494 -2.5387,0 -4.1814,0.1494 -1.4933,0.1493 -3.2853,0.2986 -1.6427,0.2987 -4.6293,0.2987 z m 77.6531,0 q -1.344,0 -2.24,-0.448 -0.7467,-0.2987 -0.7467,-1.1947 0,-1.1946 1.0453,-1.6426 1.1947,-0.448 2.3894,-0.7467 3.1359,-0.7467 4.7786,-1.792 1.6427,-1.1947 1.6427,-3.8827 v -32.4052 q 0,-4.032 -1.4934,-7.168 -1.344,-3.136 -5.2266,-3.7333 -0.7467,-0.1494 -1.1947,-0.5974 -0.2986,-0.448 -0.2986,-1.344 0,-1.6426 1.344,-1.792 5.9733,-1.3439 9.8559,-3.5839 3.8827,-2.3894 5.824,-3.8827 1.344,-1.0453 2.0907,-1.0453 0.896,0 0.896,0.7466 0,1.1947 -0.448,4.7787 -0.2987,3.4346 -0.5974,7.7653 -0.2986,4.1813 -0.2986,7.616 v 34.6452 q 0,2.5387 1.6426,3.7334 1.792,1.1946 4.7787,1.9413 1.1947,0.2987 2.24,0.7467 1.1947,0.448 1.1947,1.6426 0,1.6427 -2.9867,1.6427 -2.8373,0 -4.6293,-0.2987 -1.6427,-0.1493 -3.2853,-0.2986 -1.4934,-0.1494 -4.1814,-0.1494 -2.5386,0 -4.1813,0.1494 -1.6427,0.1493 -3.2853,0.2986 -1.6427,0.2987 -4.6293,0.2987 z m 11.9466,-77.5038 q -3.136,0 -5.376,-2.0907 -2.0907,-2.24 -2.0907,-5.376 0,-3.2853 2.0907,-5.376 2.24,-2.24 5.376,-2.24 3.2853,0 5.376,2.24 2.24,2.0907 2.24,5.376 0,3.136 -2.24,5.376 -2.0907,2.0907 -5.376,2.0907 z m 24.0427,119.6157 q -0.7466,0 -1.9413,-0.2987 -1.1947,-0.1493 -1.1947,-1.0453 0,-1.1947 1.0454,-1.792 1.1946,-0.448 2.3893,-0.896 2.24,-0.7467 4.3307,-1.792 2.0906,-0.896 2.0906,-3.8827 v -75.7118 q 0,-1.1946 -0.7466,-3.584 -0.5974,-2.3893 -2.0907,-4.6293 -1.4933,-2.24 -4.032,-2.688 -0.5973,-0.1493 -0.896,-0.7467 -0.2987,-0.5973 -0.2987,-1.1946 0,-0.7467 0.2987,-1.1947 0.2987,-0.448 0.7467,-0.5973 5.6746,-1.344 9.7066,-2.8373 4.032,-1.6427 7.616,-3.136 0.1493,0 0.1493,0 0,-0.1494 0.1494,-0.1494 0.2986,0 0.5973,0.448 0.2987,0.448 0.2987,0.896 0,1.344 -0.448,4.3307 -0.2987,2.8373 -0.2987,4.6293 0,1.1947 0.1493,1.344 1.4934,-1.4933 5.376,-3.7333 4.032,-2.3893 9.1093,-4.1813 5.0773,-1.9414 9.7067,-1.9414 7.7653,0 13.1413,4.1814 5.5253,4.0319 8.3626,10.6026 2.9867,6.4213 2.9867,13.44 0,6.7199 -2.5387,13.1413 -2.5386,6.272 -7.168,11.3493 -4.6293,5.0773 -10.7519,8.2133 -6.1227,2.9866 -13.1413,2.9866 -2.0907,0 -5.0774,-0.7466 -2.8373,-0.5973 -5.6746,-1.6427 -2.688,-1.0453 -4.1813,-2.3893 -0.1494,0 -0.2987,1.792 -0.1493,1.6427 -0.2987,3.4346 0,1.9414 0,2.3894 v 27.9252 q 0,1.9414 1.4934,2.9867 1.6426,1.1947 3.5839,1.6427 2.0907,0.5973 3.584,1.0453 1.1947,0.448 2.24,0.896 1.1947,0.5973 1.1947,1.792 0,0.896 -1.1947,1.0453 -1.1946,0.2987 -2.0906,0.2987 -4.3307,0 -7.3173,-0.448 -2.8374,-0.2987 -6.72,-0.2987 -2.5387,0 -4.1814,0.1494 -1.4933,0.1493 -3.1359,0.2986 -1.6427,0.2987 -4.6294,0.2987 z m 34.944,-45.0986 q 2.2399,0 5.3759,-1.344 3.2854,-1.344 6.4214,-4.3306 3.2853,-2.9867 5.3759,-8.064 2.24,-5.0773 2.24,-12.544 0,-8.6613 -2.24,-13.888 -2.2399,-5.2266 -5.5253,-7.9146 -3.2853,-2.688 -6.72,-3.584 -3.4346,-0.896 -5.8239,-0.896 -3.584,0 -7.4667,1.4933 -3.7333,1.4934 -6.4213,3.4347 -2.5387,1.792 -2.5387,2.8373 0,3.2854 -0.1493,6.72 0,3.2853 -0.1493,6.4213 0,3.136 -0.1494,5.6747 0,2.3893 0,3.7333 0,5.9733 2.688,11.0506 2.8373,5.0774 6.8693,8.2134 4.1814,2.9866 8.2134,2.9866 z m 68.3943,4.7787 q -8.2133,0 -14.3359,-4.032 -6.1227,-4.032 -9.5574,-11.3493 -3.4346,-7.4667 -3.4346,-17.1733 0,-8.6613 3.8826,-15.68 4.032,-7.168 10.6027,-11.4986 6.5706,-4.3307 14.336,-4.3307 5.9733,0 10.6026,2.3894 4.6293,2.3893 7.168,6.7199 2.688,4.1814 2.688,9.7067 0,4.6293 -4.48,4.6293 h -31.5093 q -2.0906,0 -2.9866,1.1947 -0.7467,1.0453 -0.7467,4.3306 0,7.168 3.136,13.1413 3.136,5.824 8.3626,9.408 5.2267,3.4347 11.4987,3.4347 4.48,0 8.064,-1.6427 3.7333,-1.792 6.5706,-5.0773 0.5973,-0.7467 0.896,-0.896 0.2987,-0.2987 0.7467,-0.2987 1.1946,0 1.1946,1.4933 0,2.8374 -2.688,6.272 -2.2399,2.8374 -5.3759,4.928 -3.136,2.0907 -6.8694,3.136 -3.7333,1.1947 -7.7653,1.1947 z m -13.7386,-45.2479 h 13.5893 q 3.584,0 6.1226,-0.1493 2.5387,-0.1494 4.928,-0.5974 0.7467,-0.1493 0.896,-0.896 0.2987,-0.896 0.2987,-2.3893 0,-4.3307 -3.8827,-7.3173 -3.7333,-3.136 -8.9599,-3.136 -3.4347,0 -6.8694,2.0906 -3.4346,1.9414 -5.6746,4.928 -2.24,2.9867 -2.24,5.9734 0,1.4933 1.792,1.4933 z m 11.4986,-25.2373 q -1.1946,0 -1.1946,-1.344 0,-0.448 0.1493,-1.0453 0.1493,-0.7467 0.448,-1.6427 1.0453,-2.8373 3.2853,-7.168 2.3894,-4.48 4.6293,-8.6613 2.3894,-4.1813 3.584,-6.1226 0.7467,-1.1947 1.792,-1.9414 1.1947,-0.7466 2.24,-0.7466 2.8374,0 5.0774,0.7466 2.2399,0.7467 2.2399,2.3894 0,0.896 -0.448,1.4933 -0.2986,0.5973 -1.0453,1.6427 -1.792,2.5386 -4.928,6.4213 -2.9866,3.7333 -6.1226,7.3173 -3.136,3.584 -5.0773,5.5253 -3.136,3.136 -4.6294,3.136 z m 35.9892,68.6932 q -1.4933,0 -2.24,-0.448 -0.7467,-0.2987 -0.7467,-1.1947 0,-1.1946 0.896,-1.4933 0.896,-0.448 2.5387,-0.896 2.8373,-0.7467 4.1813,-2.0907 1.4933,-1.4933 1.4933,-3.584 v -32.1066 q 0,-4.0319 -1.1946,-7.0186 -1.1947,-2.9867 -4.928,-3.7333 -0.5973,-0.1494 -1.0453,-0.7467 -0.448,-0.5973 -0.448,-1.1947 0,-1.4933 1.344,-1.792 3.8826,-1.1946 8.0639,-3.4346 4.3307,-2.3893 6.72,-3.8827 0.896,-0.5973 1.344,-0.7466 0.5974,-0.2987 0.896,-0.2987 0.7467,0 0.7467,1.0453 0,0.448 -0.1493,2.24 0,1.792 -0.1494,4.1813 0,2.3894 -0.1493,4.7787 0,0.2987 0.2987,0.2987 2.3893,-2.9867 5.2266,-5.2267 2.9867,-2.24 5.9733,-3.584 3.136,-1.344 5.9733,-1.344 3.136,0 5.0774,1.344 2.0906,1.344 2.0906,3.4347 0,1.4933 -0.896,3.2853 -0.7466,1.792 -2.0906,3.136 -1.344,1.344 -2.8374,1.344 -0.896,0 -1.9413,-0.2987 -1.0453,-0.448 -2.24,-1.0453 -1.1946,-0.448 -2.3893,-0.896 -1.1947,-0.448 -2.3893,-0.448 -3.584,0 -7.0187,2.5387 -3.2853,2.5386 -3.2853,10.0053 v 30.1652 q 0,1.9414 2.0906,3.2854 2.0907,1.1946 5.824,2.3893 1.6427,0.448 2.5387,0.896 0.896,0.448 0.896,1.4933 0,1.6427 -2.9867,1.6427 -4.48,0 -6.8693,-0.448 -2.24,-0.2987 -6.1226,-0.2987 -2.5387,0 -4.1814,0.1494 -1.4933,0.1493 -3.2853,0.2986 -1.6426,0.2987 -4.6293,0.2987 z m 81.2371,1.6426 q -3.2853,0 -6.5707,-0.5973 -3.2853,-0.5973 -6.272,-1.344 -3.2853,-0.896 -5.8239,-1.6426 -2.3894,-0.7467 -3.136,-0.7467 -0.896,0 -1.792,0.5973 -0.7467,0.5974 -1.4934,1.344 -0.7466,0.7467 -1.344,0.7467 -0.5973,0 -1.344,-0.448 -0.7466,-0.5973 -0.7466,-1.344 0,-1.344 0.448,-4.6293 0.5973,-3.2854 0.5973,-6.1227 v -72.4265 q 0,-3.8826 -1.9413,-6.72 -1.9413,-2.8373 -4.928,-4.1813 -0.5973,-0.2987 -1.344,-0.7467 -0.5973,-0.5973 -0.5973,-1.4933 0,-0.7467 0.5973,-1.0453 0.5973,-0.2987 1.1947,-0.448 1.9413,-0.448 5.2266,-1.6427 3.4347,-1.1946 6.4213,-2.3893 2.9867,-1.1947 4.032,-1.6427 0.896,-0.448 1.344,-0.448 0.2987,0 0.5974,0.2987 0.2986,0.2987 0.2986,0.7467 0,0.5973 -0.2986,5.0773 -0.1494,4.3306 -0.1494,10.6026 v 30.6133 q 0,2.8373 0.2987,3.8826 0.2987,0.896 1.0453,1.0454 4.6293,-3.8827 10.752,-6.272 6.1226,-2.5387 11.0506,-2.5387 7.616,0 13.5893,3.8827 6.1227,3.8826 9.7067,10.6026 3.584,6.5707 3.584,14.9333 0,10.1547 -4.1813,18.0693 -4.1814,7.7653 -11.648,12.096 -7.3173,4.3306 -17.1733,4.3306 z m 3.4346,-4.6293 q 5.6747,0 9.7067,-3.4346 4.1813,-3.584 6.4213,-9.5573 2.24,-6.1227 2.24,-13.5893 0,-5.824 -2.24,-11.9467 -2.0907,-6.1226 -6.72,-10.304 -4.48,-4.1813 -11.648,-4.1813 -5.9733,0 -10.4533,1.9413 -4.4799,1.9414 -7.7653,4.928 v 28.9706 q 0,5.2267 2.8374,9.1093 2.9866,3.8827 7.6159,5.9734 4.7787,2.0906 10.0053,2.0906 z m 69.7385,4.6293 q -8.3627,0 -15.0827,-3.8826 -6.72,-3.8827 -10.7519,-10.6027 -3.8827,-6.8693 -3.8827,-15.5306 0,-6.272 2.3893,-12.2453 2.5387,-5.9733 7.0187,-10.9013 4.48,-4.928 10.4533,-7.7653 5.9733,-2.9867 12.8426,-2.9867 8.6613,0 15.5307,4.1814 7.0186,4.1813 11.0506,11.0506 4.1813,6.72 4.1813,14.784 0,8.6613 -3.8826,16.4266 -3.7334,7.7653 -11.2,12.6933 -7.4667,4.7786 -18.6666,4.7786 z m 3.136,-4.4799 q 5.0773,0 9.1093,-1.9414 4.032,-1.9413 6.272,-6.272 1.792,-3.4346 2.3893,-8.3626 0.5973,-4.928 0.5973,-9.2587 0,-7.1679 -2.688,-13.7386 -2.5386,-6.72 -7.3173,-10.9013 -4.6293,-4.3307 -11.0506,-4.3307 -4.032,0 -7.3174,1.344 -3.1359,1.1947 -5.8239,4.6294 -2.9867,3.7333 -3.8827,9.1093 -0.896,5.376 -0.896,10.752 0,7.3173 2.688,14.0373 2.688,6.5706 7.3173,10.7519 4.6293,4.1814 10.6027,4.1814 z m 39.4241,2.8373 q -0.7467,0 -1.9413,-0.2987 -1.0454,-0.1493 -1.0454,-1.0453 0,-1.1947 1.0454,-1.6427 1.1946,-0.5973 2.3893,-1.0453 2.24,-0.7467 4.3306,-1.6427 2.0907,-1.0453 2.0907,-4.032 v -75.2638 q 0,-4.3306 -1.6427,-7.168 -1.4933,-2.9866 -5.2266,-3.7333 -1.1947,-0.2987 -1.1947,-1.9413 0,-1.4934 1.0454,-1.792 3.8826,-0.896 6.7199,-1.792 2.8374,-1.0453 5.2267,-2.0907 2.5387,-1.0453 4.928,-1.9413 0.5973,-0.2987 0.896,-0.2987 0.2986,0 0.448,0.448 0.2986,0.2987 0.2986,0.5974 0,1.344 -0.5973,5.8239 -0.448,4.3307 -0.448,14.4853 v 74.6665 q 0,2.9867 2.0907,4.032 2.0906,0.896 4.3306,1.6427 1.1947,0.448 2.24,1.0453 1.1947,0.448 1.1947,1.6427 0,0.896 -1.1947,1.0453 -1.0453,0.2987 -1.792,0.2987 -2.8373,0 -4.6293,-0.2987 -1.6427,-0.1493 -3.2853,-0.2986 -1.4933,-0.1494 -4.1813,-0.1494 -2.5387,0 -4.1814,0.1494 -1.6426,0.1493 -3.2853,0.2986 -1.6427,0.2987 -4.6293,0.2987 z m 47.4878,1.6426 q -2.688,0 -5.5253,-2.0906 -2.688,-2.0907 -4.6293,-5.0773 -1.792,-2.9867 -1.792,-5.6747 0,-4.7786 2.5387,-7.4666 2.5386,-2.688 8.0639,-4.928 l 15.232,-6.272 q 2.9867,-1.1947 3.4347,-2.0907 0.5973,-0.896 0.7466,-3.8826 l 0.2987,-9.5573 q 0.1493,-3.8827 -2.24,-6.72 -2.24,-2.8374 -6.5707,-2.8374 -2.24,0 -4.4799,0.7467 -2.24,0.7467 -3.7334,1.9413 -0.896,0.5974 -1.1946,1.792 -0.2987,1.1947 -0.2987,2.5387 0,0.5973 0,1.344 0.1493,0.7467 0.1493,1.344 0,0.7467 -1.9413,2.0906 -1.792,1.1947 -4.1813,2.24 -2.24,0.896 -3.7333,0.896 -0.7467,0 -1.1947,-0.2986 -0.448,-0.448 -0.448,-1.0454 0,-2.3893 1.4933,-5.0773 1.6427,-2.8373 4.48,-5.2266 3.4347,-3.136 7.4667,-5.5254 4.032,-2.3893 7.9146,-3.7333 3.8827,-1.344 6.8693,-1.344 5.376,0 8.8107,3.8827 3.584,3.7333 3.4346,9.408 l -0.7466,35.8399 q -0.1494,3.136 1.344,5.0773 1.6426,1.9413 4.032,1.9413 3.7333,0 5.5253,-1.6426 0.7466,-0.7467 1.1946,-0.7467 0.7467,0 1.1947,0.448 0.448,0.448 0.448,1.1947 0,1.6426 -1.6427,3.2853 -2.3893,2.3893 -5.2266,3.7333 -2.688,1.4933 -5.0773,1.4933 -6.8694,0 -10.9013,-7.7653 h -0.448 q -4.928,4.032 -9.408,5.824 -4.48,1.9413 -9.2587,1.9413 z m 7.0187,-7.1679 q 2.9866,0 5.0773,-0.896 2.0907,-1.0454 3.7333,-2.688 0.7467,-0.7467 1.1947,-1.9414 0.5973,-1.344 0.7467,-4.1813 l 0.2986,-7.3173 q 0.1494,-1.6427 -0.1493,-2.3893 -0.2987,-0.7467 -1.1947,-0.7467 -0.2986,0 -1.0453,0.1493 -0.7467,0.1494 -1.9413,0.5974 -7.9147,2.8373 -11.0507,5.9733 -2.9866,2.9867 -2.9866,5.5253 0,3.8827 2.24,5.9733 2.3893,1.9414 5.0773,1.9414 z"
     id="text150-7-3-4"
     style="font-size:149.333px;line-height:0.75;font-family:'EB Garamond';-inkscape-font-specification:'EB Garamond';text-align:center;text-anchor:middle;fill:#dd5500;stroke-width:1.33333"
     aria-label="hipérbola" />
</svg>
