<?xml version="1.0" encoding="UTF-8" standalone="no"?>
<!-- Created with Inkscape (http://www.inkscape.org/) -->

<svg
   width="512.06335"
   height="425.60229"
   viewBox="0 0 512.06335 425.60229"
   id="svg2"
   version="1.1"
   inkscape:version="1.3.2 (091e20e, 2023-11-25)"
   sodipodi:docname="tipos-equilibrio.svg"
   xmlns:inkscape="http://www.inkscape.org/namespaces/inkscape"
   xmlns:sodipodi="http://sodipodi.sourceforge.net/DTD/sodipodi-0.dtd"
   xmlns="http://www.w3.org/2000/svg"
   xmlns:svg="http://www.w3.org/2000/svg"
   xmlns:rdf="http://www.w3.org/1999/02/22-rdf-syntax-ns#"
   xmlns:cc="http://creativecommons.org/ns#"
   xmlns:dc="http://purl.org/dc/elements/1.1/">
  <title
     id="title4153">Isotop O-14</title>
  <defs
     id="defs4" />
  <sodipodi:namedview
     id="base"
     pagecolor="#ffffff"
     bordercolor="#666666"
     borderopacity="1.0"
     inkscape:pageopacity="0.0"
     inkscape:pageshadow="2"
     inkscape:zoom="1.3110938"
     inkscape:cx="255.89321"
     inkscape:cy="205.93492"
     inkscape:document-units="px"
     inkscape:current-layer="layer1"
     showgrid="false"
     units="px"
     inkscape:window-width="1512"
     inkscape:window-height="945"
     inkscape:window-x="1920"
     inkscape:window-y="89"
     inkscape:window-maximized="0"
     inkscape:showpageshadow="2"
     inkscape:pagecheckerboard="0"
     inkscape:deskcolor="#d1d1d1" />
  <metadata
     id="metadata7">
    <rdf:RDF>
      <cc:Work
         rdf:about="">
        <dc:format>image/svg+xml</dc:format>
        <dc:type
           rdf:resource="http://purl.org/dc/dcmitype/StillImage" />
        <dc:title>types of stability</dc:title>
        <cc:license
           rdf:resource="http://creativecommons.org/licenses/by-sa/4.0/" />
        <dc:date>2018-12-11</dc:date>
        <dc:creator>
          <cc:Agent>
            <dc:title>Michael A. Rundel</dc:title>
          </cc:Agent>
        </dc:creator>
        <dc:rights>
          <cc:Agent>
            <dc:title>CC BY-SA 4.0</dc:title>
          </cc:Agent>
        </dc:rights>
        <dc:subject>
          <rdf:Bag>
            <rdf:li>physics mechanics equilibrium stability</rdf:li>
          </rdf:Bag>
        </dc:subject>
        <dc:description>types of stability: (a) stable equilibrium, (b) neutral equilibrium, (c) unstable equilibrium</dc:description>
      </cc:Work>
      <cc:License
         rdf:about="http://creativecommons.org/licenses/by-sa/4.0/">
        <cc:permits
           rdf:resource="http://creativecommons.org/ns#Reproduction" />
        <cc:permits
           rdf:resource="http://creativecommons.org/ns#Distribution" />
        <cc:requires
           rdf:resource="http://creativecommons.org/ns#Notice" />
        <cc:requires
           rdf:resource="http://creativecommons.org/ns#Attribution" />
        <cc:permits
           rdf:resource="http://creativecommons.org/ns#DerivativeWorks" />
        <cc:requires
           rdf:resource="http://creativecommons.org/ns#ShareAlike" />
      </cc:License>
    </rdf:RDF>
  </metadata>
  <g
     inkscape:label="Ebene 1"
     inkscape:groupmode="layer"
     id="layer1"
     transform="translate(63.12486,-599.75403)">
    <g
       style="stroke-width:1;stroke-linecap:square;stroke-linejoin:miter;stroke-miterlimit:10;stroke-dasharray:none;stroke-dashoffset:0"
       id="misc"
       transform="translate(-252.0453,676.80568)" />
    <g
       id="g4949"
       transform="matrix(1.1141128,0,0,1.1141128,-21.376009,-98.311609)">
      <g
         id="g4939"
         style="fill:none;stroke:none;stroke-width:6.32632;stroke-linecap:round;stroke-linejoin:round;stroke-miterlimit:4;stroke-dasharray:none;stroke-dashoffset:0;stroke-opacity:1"
         transform="matrix(0.31613939,0,0,0.31613939,113.81722,598.25743)">
        <path
           inkscape:connector-curvature="0"
           id="path4937"
           d="M 0,94.775 C 105.99371,197.39622 232.2571,287.23533 378.75,318.71 496.82189,345.0021 622.16275,324.00436 729.59672,270.16511 820.06556,225.7656 900.13106,162.71724 972.12,92.709 c -0.0118,90.64294 -0.0235,181.28587 -0.0353,271.92881 -323.93668,0.33328 -647.87363,-0.33326 -971.8103151,0 C 0.18292327,274.68354 0.09146163,184.72927 0,94.775 Z"
           style="fill:#5698fd;fill-opacity:1;stroke:none;stroke-width:6.32632;stroke-linecap:round;stroke-linejoin:round;stroke-miterlimit:4;stroke-dasharray:none" />
      </g>
      <g
         style="stroke-width:2;stroke-miterlimit:4;stroke-dasharray:none"
         inkscape:tile-y0="131.1184"
         inkscape:tile-x0="-61.894851"
         inkscape:tile-h="48.370961"
         inkscape:tile-w="48.370961"
         inkscape:tile-cy="155.30388"
         inkscape:tile-cx="-37.70937"
         transform="translate(209.34748,3.0642586)"
         id="g4192">
        <circle
           r="23.593765"
           cy="674.23383"
           cx="58.132454"
           id="circle4162"
           style="fill:#ffffff;fill-opacity:1;fill-rule:evenodd;stroke:#000000;stroke-width:2;stroke-linecap:butt;stroke-linejoin:miter;stroke-miterlimit:4;stroke-dasharray:none;stroke-opacity:1" />
        <path
           id="path4164"
           d="m 58.132517,654.11053 a 20.123305,20.123305 0 0 0 -20.123458,20.12326 20.123305,20.123305 0 0 0 0.265223,3.19223 27.064225,27.064225 0 0 1 24.037588,-22.86798 20.123305,20.123305 0 0 0 -4.179353,-0.44751 z"
           style="fill:#000000;fill-opacity:0.129412;fill-rule:evenodd;stroke:none;stroke-width:2;stroke-linecap:butt;stroke-linejoin:miter;stroke-miterlimit:4;stroke-dasharray:none;stroke-opacity:1"
           inkscape:connector-curvature="0" />
      </g>
      <g
         transform="matrix(0.31613939,0,0,0.31613939,113.81722,598.25743)"
         style="fill:none;stroke:#000000;stroke-width:6.32632;stroke-linecap:round;stroke-linejoin:round;stroke-miterlimit:4;stroke-dasharray:none;stroke-dashoffset:0;stroke-opacity:1"
         id="g98">
        <path
           style="stroke-width:6.32632;stroke-linecap:round;stroke-linejoin:round;stroke-miterlimit:4;stroke-dasharray:none"
           d="M 0,94.775 C 105.44019,196.84556 230.84705,286.24921 376.38042,318.19177 493.77311,344.91698 618.65593,324.89493 725.94,271.95 817.87878,227.48732 899.18393,163.63614 972.12,92.709"
           id="path96"
           inkscape:connector-curvature="0" />
      </g>
    </g>
    <g
       id="g5073"
       transform="translate(-6)">
      <g
         id="g4994"
         style="fill:#5698fd;fill-opacity:1;stroke:none;stroke-width:6.32632;stroke-linecap:round;stroke-linejoin:round;stroke-miterlimit:4;stroke-dasharray:none;stroke-dashoffset:0;stroke-opacity:1"
         transform="matrix(0.35221494,0,0,-0.35221494,111.42921,1045.7638)">
        <path
           sodipodi:nodetypes="ccccccc"
           inkscape:connector-curvature="0"
           id="path4992"
           d="M 0,94.775 C 105.44019,196.84556 230.84705,286.24921 376.38042,318.19177 493.77311,344.91698 618.65593,324.89493 725.94,271.95 817.87878,227.48732 899.18393,163.63614 972.12,92.709 l -0.0353,-34.669237 c -162.02,0.344333 -809.79032,-0.344334 -971.8103151,0 z"
           style="fill:#5698fd;fill-opacity:1;stroke:none;stroke-width:6.32632;stroke-linecap:round;stroke-linejoin:round;stroke-miterlimit:4;stroke-dasharray:none" />
      </g>
      <g
         style="stroke-width:2;stroke-miterlimit:4;stroke-dasharray:none"
         inkscape:tile-y0="131.1184"
         inkscape:tile-x0="-61.894851"
         inkscape:tile-h="48.370961"
         inkscape:tile-w="48.370961"
         inkscape:tile-cy="155.30388"
         inkscape:tile-cx="-37.70937"
         transform="matrix(1.1141128,0,0,1.1141128,217.8607,151.33378)"
         id="g4975">
        <circle
           r="23.593765"
           cy="674.23383"
           cx="58.132454"
           id="circle4971"
           style="fill:#ffffff;fill-opacity:1;fill-rule:evenodd;stroke:#000000;stroke-width:2;stroke-linecap:butt;stroke-linejoin:miter;stroke-miterlimit:4;stroke-dasharray:none;stroke-opacity:1" />
        <path
           id="path4973"
           d="m 58.132517,654.11053 a 20.123305,20.123305 0 0 0 -20.123458,20.12326 20.123305,20.123305 0 0 0 0.265223,3.19223 27.064225,27.064225 0 0 1 24.037588,-22.86798 20.123305,20.123305 0 0 0 -4.179353,-0.44751 z"
           style="fill:#000000;fill-opacity:0.129412;fill-rule:evenodd;stroke:none;stroke-width:2;stroke-linecap:butt;stroke-linejoin:miter;stroke-miterlimit:4;stroke-dasharray:none;stroke-opacity:1"
           inkscape:connector-curvature="0" />
      </g>
      <g
         transform="matrix(0.35221494,0,0,-0.35221494,111.42921,1045.7638)"
         style="fill:none;stroke:#000000;stroke-width:6.32632;stroke-linecap:round;stroke-linejoin:round;stroke-miterlimit:4;stroke-dasharray:none;stroke-dashoffset:0;stroke-opacity:1"
         id="g4979">
        <path
           sodipodi:nodetypes="ccccccccccccccccccccccccccccccccccccccccccccccccccccccccccccccccccccccccccccccccccccccccccccccccccccccccccccccccccccccccccccccccccccccccccccccccccccccccccc"
           style="stroke-width:6.32632;stroke-linecap:round;stroke-linejoin:round;stroke-miterlimit:4;stroke-dasharray:none"
           inkscape:connector-curvature="0"
           d="m 0,94.775 6.3125,6.085 6.3125,6 6.313,5.93 6.312,5.84 6.312,5.76 6.313,5.69 6.313,5.6 6.312,5.53 6.312,5.45 6.313,5.36 6.313,5.29 6.312,5.2 6.312,5.13 6.313,5.05 6.313,4.97 6.312,4.88 6.31,4.81 6.31,4.73 6.32,4.65 6.31,4.57 6.31,4.49 6.32,4.41 6.31,4.33 6.31,4.25 6.31,4.17 6.31,4.09 6.32,4.01 6.31,3.93 6.31,3.85 6.32,3.78 6.31,3.69 6.31,3.61 6.31,3.53 6.31,3.46 6.32,3.37 6.31,3.29 6.31,3.22 6.32,3.13 6.31,3.06 6.31,2.97 6.31,2.9 6.31,2.81 6.32,2.74 6.31,2.66 6.31,2.57 6.32,2.5 6.31,2.42 6.31,2.34 6.31,2.25 6.31,2.18 6.32,2.1 6.31,2.02 6.31,1.94 6.32,1.86 6.31,1.78 6.31,1.7 6.31,1.62 6.31,1.54 6.32,1.46 6.31,1.38 6.31,1.3 6.32,1.22 6.31,1.15 6.31,1.06 6.31,0.98 6.31,0.9 6.32,0.83 6.31,0.74 6.31,0.67 6.32,0.58 6.31,0.5 6.31,0.43 6.31,0.34 6.31,0.27 6.32,0.19 6.31,0.1 6.31,0.03 6.32,-0.05 6.31,-0.14 6.31,-0.21 6.31,-0.29 6.31,-0.37 6.32,-0.46 6.31,-0.53 6.31,-0.61 6.32,-0.69 6.31,-0.77 6.31,-0.85 6.31,-0.93 6.31,-1.01 6.32,-1.09 6.31,-1.17 6.31,-1.25 6.32,-1.33 6.31,-1.4 6.31,-1.49 6.31,-1.57 6.31,-1.65 6.32,-1.72 6.31,-1.81 6.31,-1.89 6.32,-1.96 6.31,-2.05 6.31,-2.12 6.31,-2.21 6.31,-2.28 6.32,-2.37 6.31,-2.44 6.31,-2.52 6.32,-2.61 6.31,-2.68 6.31,-2.76 6.31,-2.85 6.31,-2.92 6.32,-3 6.31,-3.08 6.31,-3.16 6.32,-3.25 6.31,-3.32 6.31,-3.4 6.31,-3.48 6.31,-3.56 6.32,-3.64 6.31,-3.72 6.31,-3.79 6.32,-3.88 6.31,-3.96 6.31,-4.04 6.31,-4.12 6.31,-4.19 6.32,-4.28 6.31,-4.36 6.31,-4.43 6.32,-4.52 6.31,-4.6 6.31,-4.67 6.31,-4.76 6.31,-4.83 6.32,-4.92 6.31,-4.99 6.31,-5.08 6.32,-5.15 6.31,-5.23 6.31,-5.32 6.31,-5.39 6.31,-5.47 6.32,-5.55 6.31,-5.64 6.31,-5.71 6.32,-5.79 6.31,-5.87 6.31,-5.95 6.31,-6.031 6.31,-6.11"
           id="path4977" />
      </g>
    </g>
    <g
       id="g5082"
       transform="translate(-6)">
      <g
         transform="matrix(0.35221494,0,0,0.35221494,110.82834,716.95497)"
         style="fill:none;stroke:none;stroke-width:6.32632;stroke-linecap:round;stroke-linejoin:round;stroke-miterlimit:4;stroke-dasharray:none;stroke-dashoffset:0;stroke-opacity:1"
         id="g4953">
        <path
           style="fill:#5698fd;fill-opacity:1;stroke:none;stroke-width:6.32632;stroke-linecap:round;stroke-linejoin:round;stroke-miterlimit:4;stroke-dasharray:none"
           d="m 0,219.34122 972.12,-0.10575 c -0.0118,90.64294 -0.0235,54.7594 -0.0353,145.40234 -323.93668,0.33328 -647.87363,-0.33326 -971.8103151,0 z"
           id="path4951"
           inkscape:connector-curvature="0"
           sodipodi:nodetypes="ccccc" />
      </g>
      <g
         id="g4959"
         transform="matrix(1.1141128,0,0,1.1141128,217.25982,15.962801)"
         inkscape:tile-cx="-37.70937"
         inkscape:tile-cy="155.30388"
         inkscape:tile-w="48.370961"
         inkscape:tile-h="48.370961"
         inkscape:tile-x0="-61.894851"
         inkscape:tile-y0="131.1184"
         style="stroke-width:2;stroke-miterlimit:4;stroke-dasharray:none">
        <circle
           style="fill:#ffffff;fill-opacity:1;fill-rule:evenodd;stroke:#000000;stroke-width:2;stroke-linecap:butt;stroke-linejoin:miter;stroke-miterlimit:4;stroke-dasharray:none;stroke-opacity:1"
           id="circle4955"
           cx="58.132454"
           cy="674.23383"
           r="23.593765" />
        <path
           inkscape:connector-curvature="0"
           style="fill:#000000;fill-opacity:0.129412;fill-rule:evenodd;stroke:none;stroke-width:2;stroke-linecap:butt;stroke-linejoin:miter;stroke-miterlimit:4;stroke-dasharray:none;stroke-opacity:1"
           d="m 58.132517,654.11053 a 20.123305,20.123305 0 0 0 -20.123458,20.12326 20.123305,20.123305 0 0 0 0.265223,3.19223 27.064225,27.064225 0 0 1 24.037588,-22.86798 20.123305,20.123305 0 0 0 -4.179353,-0.44751 z"
           id="path4957" />
      </g>
      <g
         id="g5006"
         style="fill:none;stroke:#000000;stroke-width:6.32632;stroke-linecap:round;stroke-linejoin:round;stroke-miterlimit:4;stroke-dasharray:none;stroke-dashoffset:0;stroke-opacity:1"
         transform="matrix(0.35221494,0,0,0.35221494,110.82834,716.95497)">
        <path
           sodipodi:nodetypes="cc"
           inkscape:connector-curvature="0"
           id="path5004"
           d="m 0,219.34122 972.12,-0.10575"
           style="fill:#5698fd;fill-opacity:1;stroke:#000000;stroke-width:6.32632;stroke-linecap:round;stroke-linejoin:round;stroke-miterlimit:4;stroke-dasharray:none;stroke-opacity:1" />
      </g>
    </g>
    <path
       d="m -16.948825,665.49673 q -2.64,0 -4.608,-1.296 -1.968,-1.296 -3.072,-3.648 -1.104,-2.4 -1.104,-5.52 0,-2.784 1.248,-5.04 1.296,-2.304 3.408,-3.696 2.112,-1.392 4.608,-1.392 1.92,0 3.408,0.768 1.488,0.768 2.304,2.16 0.8640001,1.344 0.8640001,3.12 0,1.488 -1.4400001,1.488 h -10.128 q -0.672,0 -0.96,0.384 -0.24,0.336 -0.24,1.392 0,2.304 1.008,4.224 1.008,1.872 2.688,3.024 1.68,1.104 3.696,1.104 1.44,0 2.592,-0.528 1.2,-0.576 2.112,-1.632 0.192,-0.24 0.288,-0.288 0.096,-0.096 0.24,-0.096 0.3840001,0 0.3840001,0.48 0,0.912 -0.8640001,2.016 -0.72,0.912 -1.728,1.584 -1.008,0.672 -2.208,1.008 -1.2,0.384 -2.496,0.384 z m -4.416,-14.544 h 4.368 q 1.152,0 1.968,-0.048 0.816,-0.048 1.584,-0.192 0.24,-0.048 0.288,-0.288 0.096,-0.288 0.096,-0.768 0,-1.392 -1.248,-2.352 -1.2,-1.008 -2.88,-1.008 -1.104,0 -2.208,0.672 -1.104,0.624 -1.824,1.584 -0.72,0.96 -0.72,1.92 0,0.48 0.576,0.48 z m 19.8239708,14.496 q -1.488,0 -2.784,-0.48 -1.296,-0.432 -2.208,-1.248 -0.24,-0.528 -0.384,-1.776 -0.096,-1.248 -0.144,-2.064 0,-0.432 0.624,-0.432 0.192,0 0.336,0.096 0.192,0.048 0.24,0.24 0.624,2.352 1.968,3.36 1.392,1.008 2.784,1.008 1.39200004,0 2.352,-0.912 1.008,-0.96 1.008,-2.352 0,-1.296 -0.864,-2.208 -0.86399996,-0.96 -3.024,-2.304 -1.632,-1.008 -2.64,-1.92 -1.008,-0.912 -1.488,-1.872 -0.432,-0.96 -0.432,-2.16 0,-1.536 0.72,-2.784 0.72,-1.248 2.16,-1.968 1.44,-0.768 3.60000004,-0.768 1.43999996,0 2.39999996,0.288 0.96,0.288 1.44,0.624 0.384,0.528 0.624,1.68 0.288,1.104 0.288,2.112 0,0.336 -0.48,0.336 -0.288,0 -0.576,-0.096 -0.24,-0.144 -0.336,-0.336 -0.624,-1.584 -1.584,-2.4 -0.912,-0.864 -2.30399996,-0.864 -1.20000004,0 -2.16000004,0.72 -0.912,0.72 -0.912,2.112 0,1.104 0.672,1.968 0.72,0.864 2.64000004,1.968 2.78399996,1.584 4.12799996,2.976 1.392,1.344 1.392,3.6 0,2.592 -1.968,4.224 -1.968,1.632 -5.088,1.632 z m 17.6639982,0 q -2.352,0 -3.696,-1.44 -1.296,-1.44 -1.296,-4.272 v -11.136 q 0,-0.384 -0.288,-0.528 -0.288,-0.192 -1.2480004,-0.192 h -0.288 q -0.24,0 -0.432,-0.288 -0.144,-0.336 -0.144,-0.672 0,-0.096 0.144,-0.288 0.144,-0.192 0.192,-0.24 0.9600004,-0.672 1.7280004,-1.344 0.816,-0.672 1.44,-1.296 0.672,-0.672 1.104,-1.2 0.24,-0.24 0.384,-0.384 0.192,-0.192 0.432,-0.192 0.24,0 0.432,0.096 0.24,0.096 0.192,0.432 l -0.24,2.16 q -0.048,0.528 0.24,0.72 0.288,0.192 0.912,0.192 h 5.472 q 0.192,0 0.336,0.336 0.144,0.288 0.144,0.72 0,0.432 -0.144,0.864 -0.144,0.384 -0.336,0.384 h -4.752 q -1.2,0 -1.584,0.192 -0.336,0.192 -0.336,1.152 v 9.456 q 0,1.92 0.816,3.024 0.816,1.104 2.352,1.104 1.392,0 2.16,-0.192 0.768,-0.24 1.392,-0.672 0.096,-0.096 0.192,-0.096 0.192,0 0.24,0.24 0.096,0.192 0.096,0.432 0,0.24 -0.816,0.96 -0.768,0.72 -2.064,1.344 -1.248,0.624 -2.736,0.624 z m 11.61596,0 q -0.864,0 -1.776,-0.672 -0.864,-0.672 -1.488,-1.632 -0.576,-0.96 -0.576,-1.824 0,-1.536 0.816,-2.4 0.816,-0.864 2.592,-1.584 l 4.896,-2.016 q 0.96,-0.384 1.104,-0.672 0.192,-0.288 0.24,-1.248 l 0.096,-3.072 q 0.048,-1.248 -0.72,-2.16 -0.72,-0.912 -2.112,-0.912 -0.72,0 -1.44,0.24 -0.72,0.24 -1.2,0.624 -0.288,0.192 -0.384,0.576 -0.096,0.384 -0.096,0.816 0,0.192 0,0.432 0.048,0.24 0.048,0.432 0,0.24 -0.624,0.672 -0.576,0.384 -1.344,0.72 -0.72,0.288 -1.2,0.288 -0.24,0 -0.384,-0.096 -0.144,-0.144 -0.144,-0.336 0,-0.768 0.48,-1.632 0.528,-0.912 1.44,-1.68 1.104,-1.008 2.4,-1.776 1.296,-0.768 2.544,-1.2 1.248,-0.432 2.208,-0.432 1.728,0 2.832,1.248 1.152,1.2 1.104,3.024 l -0.24,11.52 q -0.048,1.008 0.432,1.632 0.528,0.624 1.296,0.624 1.2,0 1.776,-0.528 0.24,-0.24 0.384,-0.24 0.24,0 0.384,0.144 0.144,0.144 0.144,0.384 0,0.528 -0.528,1.056 -0.768,0.768 -1.68,1.2 -0.864,0.48 -1.632,0.48 -2.208,0 -3.504,-2.496 h -0.144 q -1.584,1.296 -3.024,1.872 -1.44,0.624 -2.976,0.624 z m 2.256,-2.304 q 0.96,0 1.632,-0.288 0.672,-0.336 1.2,-0.864 0.24,-0.24 0.384,-0.624 0.192,-0.432 0.24,-1.344 l 0.096,-2.352 q 0.048,-0.528 -0.048,-0.768 -0.096,-0.24 -0.384,-0.24 -0.096,0 -0.336,0.048 -0.24,0.048 -0.624,0.192 -2.544,0.912 -3.552,1.92 -0.96,0.96 -0.96,1.776 0,1.248 0.72,1.92 0.768,0.624 1.632,0.624 z m 23.712008,2.304 q -1.056,0 -2.112,-0.192 -1.056,-0.192 -2.016,-0.432 -1.056,-0.288 -1.872,-0.528 -0.768,-0.24 -1.008,-0.24 -0.288,0 -0.576,0.192 -0.24,0.192 -0.48,0.432 -0.24,0.24 -0.432,0.24 -0.192,0 -0.432,-0.144 -0.24,-0.192 -0.24,-0.432 0,-0.432 0.144,-1.488 0.192,-1.056 0.192,-1.968 v -23.28 q 0,-1.248 -0.624,-2.16 -0.624,-0.912 -1.584,-1.344 -0.192,-0.096 -0.432,-0.24 -0.192,-0.192 -0.192,-0.48 0,-0.24 0.192,-0.336 0.192,-0.096 0.384,-0.144 0.624,-0.144 1.68,-0.528 1.104,-0.384 2.064,-0.768 0.96,-0.384 1.296,-0.528 0.288,-0.144 0.432,-0.144 0.096,0 0.192,0.096 0.096,0.096 0.096,0.24 0,0.192 -0.096,1.632 -0.048,1.392 -0.048,3.408 v 9.84 q 0,0.912 0.096,1.248 0.096,0.288 0.336,0.336 1.488,-1.248 3.456,-2.016 1.968,-0.816 3.552,-0.816 2.448,0 4.368,1.248 1.968,1.248 3.12,3.408 1.152,2.112 1.152,4.8 0,3.264 -1.344,5.808 -1.344,2.496 -3.744,3.888 -2.352,1.392 -5.52,1.392 z m 1.104,-1.488 q 1.824,0 3.12,-1.104 1.344,-1.152 2.064,-3.072 0.72,-1.968 0.72,-4.368 0,-1.872 -0.72,-3.84 -0.672,-1.968 -2.16,-3.312 -1.44,-1.344 -3.744,-1.344 -1.92,0 -3.36,0.624 -1.44,0.624 -2.496,1.584 v 9.312 q 0,1.68 0.912,2.928 0.96,1.248 2.448,1.92 1.536,0.672 3.216,0.672 z m 12.336,0.96 q -0.24,0 -0.624,-0.096 -0.336,-0.048 -0.336,-0.336 0,-0.384 0.336,-0.528 0.384,-0.192 0.768,-0.336 0.72,-0.24 1.392,-0.528 0.672,-0.336 0.672,-1.296 v -24.192 q 0,-1.392 -0.528,-2.304 -0.48,-0.96 -1.68,-1.2 -0.384,-0.096 -0.384,-0.624 0,-0.48 0.336,-0.576 1.248,-0.288 2.16,-0.576 0.912,-0.336 1.68,-0.672 0.816,-0.336 1.584,-0.624 0.192,-0.096 0.288,-0.096 0.096,0 0.144,0.144 0.096,0.096 0.096,0.192 0,0.432 -0.192,1.872 -0.144,1.392 -0.144,4.656 v 24 q 0,0.96 0.672,1.296 0.672,0.288 1.392,0.528 0.384,0.144 0.72,0.336 0.384,0.144 0.384,0.528 0,0.288 -0.384,0.336 -0.336,0.096 -0.576,0.096 -0.912,0 -1.488,-0.096 -0.528,-0.048 -1.056,-0.096 -0.48,-0.048 -1.344,-0.048 -0.816,0 -1.344,0.048 -0.528,0.048 -1.056,0.096 -0.528,0.096 -1.488,0.096 z m 19.871989,0.576 q -2.64,0 -4.608,-1.296 -1.968,-1.296 -3.072,-3.648 -1.104,-2.4 -1.104,-5.52 0,-2.784 1.248,-5.04 1.296,-2.304 3.408,-3.696 2.112,-1.392 4.608,-1.392 1.92,0 3.408,0.768 1.488,0.768 2.304,2.16 0.864,1.344 0.864,3.12 0,1.488 -1.44,1.488 h -10.128 q -0.672,0 -0.96,0.384 -0.24,0.336 -0.24,1.392 0,2.304 1.008,4.224 1.008,1.872 2.688,3.024 1.68,1.104 3.696,1.104 1.44,0 2.592,-0.528 1.2,-0.576 2.112,-1.632 0.192,-0.24 0.288,-0.288 0.096,-0.096 0.24,-0.096 0.384,0 0.384,0.48 0,0.912 -0.864,2.016 -0.72,0.912 -1.728,1.584 -1.008,0.672 -2.208,1.008 -1.2,0.384 -2.496,0.384 z m -4.416,-14.544 h 4.368 q 1.152,0 1.968,-0.048 0.816,-0.048 1.584,-0.192 0.24,-0.048 0.288,-0.288 0.096,-0.288 0.096,-0.768 0,-1.392 -1.248,-2.352 -1.2,-1.008 -2.88,-1.008 -1.104,0 -2.208,0.672 -1.104,0.624 -1.824,1.584 -0.72,0.96 -0.72,1.92 0,0.48 0.576,0.48 z"
       id="text1"
       style="font-size:48px;line-height:0.75;font-family:'EB Garamond';-inkscape-font-specification:'EB Garamond';text-align:center;text-anchor:middle;stroke-width:1.33333"
       aria-label="estable" />
    <path
       d="m -26.116828,803.66542 q -0.432,0 -0.72,-0.144 -0.24,-0.096 -0.24,-0.384 0,-0.384 0.288,-0.48 0.288,-0.144 0.816,-0.288 0.72,-0.192 1.392,-0.528 0.672,-0.336 0.672,-1.296 v -10.32 q 0,-1.296 -0.288,-2.208 -0.24,-0.912 -1.488,-1.248 -0.192,-0.096 -0.336,-0.192 -0.144,-0.144 -0.144,-0.432 0,-0.528 0.432,-0.576 1.68,-0.432 2.736,-1.056 1.056,-0.624 2.064,-1.392 0.144,-0.096 0.24,-0.144 0.144,-0.096 0.288,-0.096 0.096,0 0.144,0.096 0.096,0.096 0.096,0.24 0,0.336 -0.144,1.392 -0.096,1.008 -0.096,1.68 0,0.192 0,0.384 0.048,0.144 0.096,0.192 1.68,-1.584 3.552,-2.4 1.92,-0.816 4.176,-0.816 2.352,0 3.8879996,1.92 1.536,1.92 1.536,4.752 v 10.224 q 0,0.96 0.672,1.296 0.672,0.288 1.392,0.528 0.384,0.144 0.72,0.336 0.384,0.144 0.384,0.528 0,0.288 -0.336,0.336 -0.336,0.096 -0.624,0.096 -0.96,0 -1.488,-0.096 -0.528,-0.048 -1.008,-0.096 -0.48,-0.048 -1.344,-0.048 -0.816,0 -1.3439996,0.048 -0.528,0.048 -1.104,0.096 -0.528,0.096 -1.488,0.096 -0.24,0 -0.624,-0.096 -0.336,-0.048 -0.336,-0.336 0,-0.384 0.336,-0.528 0.384,-0.192 0.768,-0.336 0.72,-0.24 1.392,-0.528 0.672,-0.336 0.672,-1.296 v -10.08 q 0,-2.112 -1.2,-3.264 -1.152,-1.2 -3.12,-1.248 -1.728,0 -3.024,0.576 -1.296,0.528 -2.304,1.344 -0.192,0.192 -0.288,0.528 -0.096,0.288 -0.096,0.576 v 11.568 q 0,0.96 0.672,1.296 0.672,0.336 1.392,0.528 1.104,0.288 1.104,0.768 0,0.288 -0.24,0.384 -0.24,0.144 -0.72,0.144 -0.96,0 -1.536,-0.096 -0.528,-0.048 -1.008,-0.096 -0.48,-0.048 -1.344,-0.048 -0.816,0 -1.344,0.048 -0.48,0.048 -1.056,0.096 -0.528,0.096 -1.488,0.096 z m 33.4559937,0.576 q -2.64,0 -4.608,-1.296 -1.96799999,-1.296 -3.07199999,-3.648 -1.10400001,-2.4 -1.10400001,-5.52 0,-2.784 1.24800001,-5.04 1.29599999,-2.304 3.40799999,-3.696 2.112,-1.392 4.608,-1.392 1.92,0 3.4080003,0.768 1.488,0.768 2.304,2.16 0.864,1.344 0.864,3.12 0,1.488 -1.44,1.488 H 2.8271657 q -0.672,0 -0.96,0.384 -0.24,0.336 -0.24,1.392 0,2.304 1.008,4.224 1.008,1.872 2.688,3.024 1.68,1.104 3.696,1.104 1.4400003,0 2.5920003,-0.528 1.2,-0.576 2.112,-1.632 0.192,-0.24 0.288,-0.288 0.096,-0.096 0.24,-0.096 0.384,0 0.384,0.48 0,0.912 -0.864,2.016 -0.72,0.912 -1.728,1.584 -1.008,0.672 -2.2080003,1.008 -1.2,0.384 -2.496,0.384 z m -4.416,-14.544 h 4.368 q 1.152,0 1.968,-0.048 0.8160003,-0.048 1.5840003,-0.192 0.24,-0.048 0.288,-0.288 0.096,-0.288 0.096,-0.768 0,-1.392 -1.2480003,-2.352 -1.2,-1.008 -2.88,-1.008 -1.104,0 -2.208,0.672 -1.104,0.624 -1.824,1.584 -0.72,0.96 -0.72,1.92 0,0.48 0.576,0.48 z m 30.4799703,14.736 q -0.336,0 -0.336,-0.384 0,-0.48 0.096,-1.392 0.144,-0.96 0.144,-1.584 0,-0.096 0,-0.144 0,-0.096 0,-0.144 -1.872,1.824 -3.792,2.64 -1.872,0.768 -4.128,0.768 -1.536,0 -2.784,-0.672 -1.248,-0.624 -1.968,-1.872 -0.72,-1.296 -0.72,-3.168 v -9.744 q 0,-1.056 -0.48,-1.68 -0.48,-0.624 -1.584,-1.056 -0.24,-0.096 -0.432,-0.24 -0.192,-0.144 -0.192,-0.528 0,-0.432 0.192,-0.576 0.24,-0.144 0.528,-0.192 1.632,-0.096 2.496,-0.24 0.912,-0.192 2.256,-0.528 0.144,-0.048 0.192,-0.048 0.096,0 0.192,0 0.528,0 0.48,0.672 -0.144,1.104 -0.24,1.872 -0.048,0.72 -0.048,1.824 v 9.36 q 0,1.152 0.576,2.16 0.576,0.96 1.488,1.584 0.96,0.624 1.968,0.624 1.248,0 2.16,-0.144 0.96,-0.144 1.872,-0.816 0.528,-0.384 1.344,-1.248 0.816,-0.864 0.816,-2.352 v -8.784 q 0,-1.008 -0.624,-1.488 -0.576,-0.528 -1.344,-0.72 -0.768,-0.192 -1.248,-0.192 -0.432,0 -0.72,-0.144 -0.288,-0.192 -0.288,-0.672 0,-0.432 0.288,-0.576 0.336,-0.144 0.72,-0.144 1.488,-0.048 2.448,-0.096 1.008,-0.096 1.776,-0.24 0.816,-0.192 1.68,-0.432 0.096,-0.048 0.24,-0.048 0.144,-0.048 0.24,-0.048 0.624,0 0.624,0.528 0,0.048 -0.048,0.192 0,0.096 -0.048,0.24 -0.048,0.144 -0.144,0.816 -0.048,0.672 -0.144,1.392 -0.048,0.72 -0.048,1.104 v 11.088 q 0,1.296 0.24,1.872 0.288,0.528 0.624,0.528 0.384,0 1.104,-0.048 0.768,-0.096 1.104,-0.096 0.24,0 0.48,0.096 0.24,0.096 0.24,0.528 0,0.384 -0.192,0.528 -0.192,0.096 -0.48,0.144 -1.872,0.24 -3.216,0.72 -1.344,0.48 -2.4,0.912 -0.144,0.048 -0.432,0.144 -0.288,0.144 -0.528,0.144 z m 16.800021,-0.24 q -2.352,0 -3.696,-1.44 -1.296,-1.44 -1.296,-4.272 v -11.136 q 0,-0.384 -0.288,-0.528 -0.288,-0.192 -1.248,-0.192 h -0.288 q -0.24,0 -0.432,-0.288 -0.144,-0.336 -0.144,-0.672 0,-0.096 0.144,-0.288 0.144,-0.192 0.192,-0.24 0.96,-0.672 1.728,-1.344 0.816,-0.672 1.44,-1.296 0.672,-0.672 1.104,-1.2 0.24,-0.24 0.384,-0.384 0.192,-0.192 0.432,-0.192 0.24,0 0.432,0.096 0.24,0.096 0.192,0.432 l -0.24,2.16 q -0.048,0.528 0.24,0.72 0.288,0.192 0.912,0.192 h 5.472 q 0.192,0 0.336,0.336 0.144,0.288 0.144,0.72 0,0.432 -0.144,0.864 -0.144,0.384 -0.336,0.384 h -4.752 q -1.2,0 -1.584,0.192 -0.336,0.192 -0.336,1.152 v 9.456 q 0,1.92 0.816,3.024 0.816,1.104 2.352,1.104 1.392,0 2.16,-0.192 0.768,-0.24 1.392,-0.672 0.096,-0.096 0.192,-0.096 0.192,0 0.24,0.24 0.096,0.192 0.096,0.432 0,0.24 -0.816,0.96 -0.768,0.72 -2.064,1.344 -1.248,0.624 -2.736,0.624 z m 8.35196,-0.528 q -0.48,0 -0.72,-0.144 -0.24,-0.096 -0.24,-0.384 0,-0.384 0.288,-0.48 0.288,-0.144 0.816,-0.288 0.912,-0.24 1.344,-0.672 0.48,-0.48 0.48,-1.152 v -10.32 q 0,-1.296 -0.384,-2.256 -0.384,-0.96 -1.584,-1.2 -0.192,-0.048 -0.336,-0.24 -0.144,-0.192 -0.144,-0.384 0,-0.48 0.432,-0.576 1.248,-0.384 2.592,-1.104 1.392,-0.768 2.16,-1.248 0.288,-0.192 0.432,-0.24 0.192,-0.096 0.288,-0.096 0.24,0 0.24,0.336 0,0.144 -0.048,0.72 0,0.576 -0.048,1.344 0,0.768 -0.048,1.536 0,0.096 0.096,0.096 0.768,-0.96 1.68,-1.68 0.96,-0.72 1.92,-1.152 1.008,-0.432 1.92,-0.432 1.008,0 1.632,0.432 0.672,0.432 0.672,1.104 0,0.48 -0.288,1.056 -0.24,0.576 -0.672,1.008 -0.432,0.432 -0.912,0.432 -0.288,0 -0.624,-0.096 -0.336,-0.144 -0.72,-0.336 -0.384,-0.144 -0.768,-0.288 -0.384,-0.144 -0.768,-0.144 -1.152,0 -2.256,0.816 -1.056,0.816 -1.056,3.216 v 9.696 q 0,0.624 0.672,1.056 0.672,0.384 1.872,0.768 0.528,0.144 0.816,0.288 0.288,0.144 0.288,0.48 0,0.528 -0.96,0.528 -1.44,0 -2.208,-0.144 -0.72,-0.096 -1.968,-0.096 -0.816,0 -1.344,0.048 -0.48,0.048 -1.056,0.096 -0.528,0.096 -1.488,0.096 z m 24.911983,0.528 q -2.688,0 -4.848,-1.248 -2.16,-1.248 -3.456,-3.408 -1.248,-2.208 -1.248,-4.992 0,-2.016 0.768,-3.936 0.816,-1.92 2.256,-3.504 1.44,-1.584 3.36,-2.496 1.92,-0.96 4.128,-0.96 2.784,0 4.992,1.344 2.256,1.344 3.552,3.552 1.344,2.16 1.344,4.752 0,2.784 -1.248,5.28 -1.2,2.496 -3.6,4.08 -2.4,1.536 -6,1.536 z m 1.008,-1.44 q 1.632,0 2.928,-0.624 1.296,-0.624 2.016,-2.016 0.576,-1.104 0.768,-2.688 0.192,-1.584 0.192,-2.976 0,-2.304 -0.864,-4.416 -0.816,-2.16 -2.352,-3.504 -1.488,-1.392 -3.552,-1.392 -1.296,0 -2.352,0.432 -1.008,0.384 -1.872,1.488 -0.96,1.2 -1.248,2.928 -0.288,1.728 -0.288,3.456 0,2.352 0.864,4.512 0.864,2.112 2.352,3.456 1.488,1.344 3.408,1.344 z"
       id="text1-9"
       style="font-size:48px;line-height:0.75;font-family:'EB Garamond';-inkscape-font-specification:'EB Garamond';text-align:center;text-anchor:middle;stroke-width:1.33333"
       aria-label="neutro" />
    <path
       d="m -62.16486,966.9352 q -0.432,0 -0.72,-0.144 -0.24,-0.096 -0.24,-0.384 0,-0.384 0.336,-0.528 0.384,-0.144 0.768,-0.24 1.008,-0.24 1.536,-0.576 0.528,-0.384 0.528,-1.248 v -10.416 q 0,-1.296 -0.48,-2.304 -0.432,-1.008 -1.68,-1.2 -0.24,-0.048 -0.384,-0.192 -0.096,-0.144 -0.096,-0.432 0,-0.528 0.432,-0.576 1.92,-0.432 3.168,-1.152 1.248,-0.768 1.872,-1.248 0.432,-0.336 0.672,-0.336 0.288,0 0.288,0.24 0,0.384 -0.144,1.536 -0.096,1.104 -0.192,2.496 -0.096,1.344 -0.096,2.448 v 11.136 q 0,0.816 0.528,1.2 0.576,0.384 1.536,0.624 0.384,0.096 0.72,0.24 0.384,0.144 0.384,0.528 0,0.528 -0.96,0.528 -0.912,0 -1.488,-0.096 -0.528,-0.048 -1.056,-0.096 -0.48,-0.048 -1.344,-0.048 -0.816,0 -1.344,0.048 -0.528,0.048 -1.056,0.096 -0.528,0.096 -1.488,0.096 z m 3.84,-24.912 q -1.008,0 -1.728,-0.672 -0.672,-0.72 -0.672,-1.728 0,-1.056 0.672,-1.728 0.72,-0.72 1.728,-0.72 1.056,0 1.728,0.72 0.72,0.672 0.72,1.728 0,1.008 -0.72,1.728 -0.672,0.672 -1.728,0.672 z m 7.92004,24.912 q -0.432,0 -0.72,-0.144 -0.24,-0.096 -0.24,-0.384 0,-0.384 0.288,-0.48 0.288,-0.144 0.816,-0.288 0.72,-0.192 1.392,-0.528 0.672,-0.336 0.672,-1.296 v -10.32 q 0,-1.296 -0.288,-2.208 -0.24,-0.912 -1.488,-1.248 -0.192,-0.096 -0.336,-0.192 -0.144,-0.144 -0.144,-0.432 0,-0.528 0.432,-0.576 1.68,-0.432 2.736,-1.056 1.056,-0.624 2.064,-1.392 0.144,-0.096 0.24,-0.144 0.144,-0.096 0.288,-0.096 0.096,0 0.144,0.096 0.096,0.096 0.096,0.24 0,0.336 -0.144,1.392 -0.096,1.008 -0.096,1.68 0,0.192 0,0.384 0.048,0.144 0.096,0.192 1.68,-1.584 3.552,-2.4 1.92,-0.816 4.176,-0.816 2.352,0 3.888,1.92 1.536,1.92 1.536,4.752 v 10.224 q 0,0.96 0.672,1.296 0.672,0.288 1.392,0.528 0.384,0.144 0.72,0.336 0.384,0.144 0.384,0.528 0,0.288 -0.336,0.336 -0.336,0.096 -0.624,0.096 -0.96,0 -1.488,-0.096 -0.528,-0.048 -1.008,-0.096 -0.48,-0.048 -1.344,-0.048 -0.816,0 -1.344,0.048 -0.528,0.048 -1.104,0.096 -0.528,0.096 -1.488,0.096 -0.24,0 -0.624,-0.096 -0.336,-0.048 -0.336,-0.336 0,-0.384 0.336,-0.528 0.384,-0.192 0.768,-0.336 0.72,-0.24 1.392,-0.528 0.672,-0.336 0.672,-1.296 v -10.08 q 0,-2.112 -1.2,-3.264 -1.152,-1.2 -3.12,-1.248 -1.728,0 -3.024,0.576 -1.296,0.528 -2.304,1.344 -0.192,0.192 -0.288,0.528 -0.096,0.288 -0.096,0.576 v 11.568 q 0,0.96 0.672,1.296 0.672,0.336 1.392,0.528 1.104,0.288 1.104,0.768 0,0.288 -0.24,0.384 -0.24,0.144 -0.72,0.144 -0.96,0 -1.536,-0.096 -0.528,-0.048 -1.008,-0.096 -0.48,-0.048 -1.344,-0.048 -0.816,0 -1.344,0.048 -0.48,0.048 -1.056,0.096 -0.528,0.096 -1.488,0.096 z m 33.455994,0.576 q -2.64,0 -4.608,-1.296 -1.968,-1.296 -3.072,-3.648 -1.104,-2.4 -1.104,-5.52 0,-2.784 1.248,-5.04 1.296,-2.304 3.408,-3.696 2.112,-1.392 4.608,-1.392 1.92,0 3.408,0.768 1.488,0.768 2.304,2.16 0.8640002,1.344 0.8640002,3.12 0,1.488 -1.4400002,1.488 h -10.128 q -0.672,0 -0.96,0.384 -0.24,0.336 -0.24,1.392 0,2.304 1.008,4.224 1.008,1.872 2.688,3.024 1.68,1.104 3.696,1.104 1.44,0 2.592,-0.528 1.2,-0.576 2.112,-1.632 0.192,-0.24 0.288,-0.288 0.096,-0.096 0.24,-0.096 0.3840002,0 0.3840002,0.48 0,0.912 -0.8640002,2.016 -0.72,0.912 -1.728,1.584 -1.008,0.672 -2.208,1.008 -1.2,0.384 -2.496,0.384 z m -4.416,-14.544 h 4.368 q 1.152,0 1.968,-0.048 0.816,-0.048 1.584,-0.192 0.24,-0.048 0.288,-0.288 0.096,-0.288 0.096,-0.768 0,-1.392 -1.248,-2.352 -1.2,-1.008 -2.88,-1.008 -1.104,0 -2.208,0.672 -1.104,0.624 -1.824,1.584 -0.72,0.96 -0.72,1.92 0,0.48 0.576,0.48 z m 19.8239709,14.496 q -1.488,0 -2.784,-0.48 -1.296,-0.432 -2.208,-1.248 -0.24,-0.528 -0.384,-1.776 -0.096,-1.248 -0.144,-2.064 0,-0.432 0.624,-0.432 0.192,0 0.336,0.096 0.192,0.048 0.24,0.24 0.624,2.352 1.968,3.36 1.392,1.008 2.784,1.008 1.39199999,0 2.352,-0.912 1.008,-0.96 1.008,-2.352 0,-1.296 -0.864,-2.208 -0.86400001,-0.96 -3.024,-2.304 -1.632,-1.008 -2.64,-1.92 -1.008,-0.912 -1.488,-1.872 -0.432,-0.96 -0.432,-2.16 0,-1.536 0.72,-2.784 0.72,-1.248 2.16,-1.968 1.44,-0.768 3.59999999,-0.768 1.44000001,0 2.40000001,0.288 0.96,0.288 1.44,0.624 0.384,0.528 0.624,1.68 0.288,1.104 0.288,2.112 0,0.336 -0.48,0.336 -0.288,0 -0.576,-0.096 -0.24,-0.144 -0.336,-0.336 -0.624,-1.584 -1.584,-2.4 -0.912,-0.864 -2.30400001,-0.864 -1.19999999,0 -2.15999999,0.72 -0.912,0.72 -0.912,2.112 0,1.104 0.672,1.968 0.72,0.864 2.63999999,1.968 2.78400001,1.584 4.12800001,2.976 1.392,1.344 1.392,3.6 0,2.592 -1.968,4.224 -1.968,1.632 -5.088,1.632 z m 17.6639981,0 q -2.352,0 -3.696,-1.44 -1.296,-1.44 -1.296,-4.272 v -11.136 q 0,-0.384 -0.288,-0.528 -0.288,-0.192 -1.2480003,-0.192 h -0.288 q -0.24,0 -0.432,-0.288 -0.144,-0.336 -0.144,-0.672 0,-0.096 0.144,-0.288 0.144,-0.192 0.192,-0.24 0.9600003,-0.672 1.7280003,-1.344 0.816,-0.672 1.44,-1.296 0.672,-0.672 1.104,-1.2 0.24,-0.24 0.384,-0.384 0.192,-0.192 0.432,-0.192 0.24,0 0.432,0.096 0.24,0.096 0.192,0.432 l -0.24,2.16 q -0.048,0.528 0.24,0.72 0.288,0.192 0.912,0.192 h 5.472 q 0.192,0 0.336,0.336 0.144,0.288 0.144,0.72 0,0.432 -0.144,0.864 -0.144,0.384 -0.336,0.384 h -4.752 q -1.2,0 -1.584,0.192 -0.336,0.192 -0.336,1.152 v 9.456 q 0,1.92 0.816,3.024 0.816,1.104 2.352,1.104 1.392,0 2.16,-0.192 0.768,-0.24 1.392,-0.672 0.096,-0.096 0.192,-0.096 0.192,0 0.24,0.24 0.096,0.192 0.096,0.432 0,0.24 -0.816,0.96 -0.768,0.72 -2.064,1.344 -1.248,0.624 -2.736,0.624 z m 11.61596,0 q -0.864,0 -1.776,-0.672 -0.864,-0.672 -1.488,-1.632 -0.576,-0.96 -0.576,-1.824 0,-1.536 0.816,-2.4 0.816,-0.864 2.592,-1.584 l 4.896,-2.016 q 0.96,-0.384 1.104,-0.672 0.192,-0.288 0.24,-1.248 l 0.096,-3.072 q 0.048,-1.248 -0.72,-2.16 -0.72,-0.912 -2.112,-0.912 -0.72,0 -1.44,0.24 -0.72,0.24 -1.2,0.624 -0.288,0.192 -0.384,0.576 -0.096,0.384 -0.096,0.816 0,0.192 0,0.432 0.048,0.24 0.048,0.432 0,0.24 -0.624,0.672 -0.576,0.384 -1.344,0.72 -0.72,0.288 -1.2,0.288 -0.24,0 -0.384,-0.096 -0.144,-0.144 -0.144,-0.336 0,-0.768 0.48,-1.632 0.528,-0.912 1.44,-1.68 1.104,-1.008 2.4,-1.776 1.296,-0.768 2.544,-1.2 1.248,-0.432 2.208,-0.432 1.728,0 2.832,1.248 1.152,1.2 1.104,3.024 l -0.24,11.52 q -0.048,1.008 0.432,1.632 0.528,0.624 1.296,0.624 1.2,0 1.776,-0.528 0.24,-0.24 0.384,-0.24 0.24,0 0.384,0.144 0.144,0.144 0.144,0.384 0,0.528 -0.528,1.056 -0.768,0.768 -1.68,1.2 -0.864,0.48 -1.632,0.48 -2.208,0 -3.504,-2.496 h -0.144 q -1.584,1.296 -3.024,1.872 -1.44,0.624 -2.976,0.624 z m 2.256,-2.304 q 0.96,0 1.632,-0.288 0.672,-0.336 1.2,-0.864 0.24,-0.24 0.384,-0.624 0.192,-0.432 0.24,-1.344 l 0.096,-2.352 q 0.048,-0.528 -0.048,-0.768 -0.096,-0.24 -0.384,-0.24 -0.096,0 -0.336,0.048 -0.24,0.048 -0.624,0.192 -2.544,0.912 -3.552,1.92 -0.96,0.96 -0.96,1.776 0,1.248 0.72,1.92 0.768,0.624 1.632,0.624 z m 23.712008,2.304 q -1.056,0 -2.112,-0.192 -1.056,-0.192 -2.016,-0.432 -1.056,-0.288 -1.872,-0.528 -0.768,-0.24 -1.008,-0.24 -0.288,0 -0.576,0.192 -0.24,0.192 -0.48,0.432 -0.24,0.24 -0.432,0.24 -0.192,0 -0.432,-0.144 -0.24,-0.192 -0.24,-0.432 0,-0.432 0.144,-1.488 0.192,-1.056 0.192,-1.968 v -23.28 q 0,-1.248 -0.624,-2.16 -0.624,-0.912 -1.584,-1.344 -0.192,-0.096 -0.432,-0.24 -0.192,-0.192 -0.192,-0.48 0,-0.24 0.192,-0.336 0.192,-0.096 0.384,-0.144 0.624,-0.144 1.68,-0.528 1.104,-0.384 2.064,-0.768 0.96,-0.384 1.296,-0.528 0.288,-0.144 0.432,-0.144 0.096,0 0.192,0.096 0.096,0.096 0.096,0.24 0,0.192 -0.096,1.632 -0.048,1.392 -0.048,3.408 v 9.84 q 0,0.912 0.096,1.248 0.096,0.288 0.336,0.336 1.488,-1.248 3.456,-2.016 1.968,-0.816 3.552,-0.816 2.448,0 4.368,1.248 1.968,1.248 3.12,3.408 1.152,2.112 1.152,4.8 0,3.264 -1.344,5.808 -1.344,2.496 -3.744,3.888 -2.352,1.392 -5.52,1.392 z m 1.104,-1.488 q 1.824,0 3.12,-1.104 1.344,-1.152 2.064,-3.072 0.72,-1.968 0.72,-4.368 0,-1.872 -0.72,-3.84 -0.672,-1.968 -2.16,-3.312 -1.44,-1.344 -3.744,-1.344 -1.92,0 -3.36,0.624 -1.44,0.624 -2.496,1.584 v 9.312 q 0,1.68 0.912,2.928 0.96,1.248 2.448,1.92 1.536,0.672 3.216,0.672 z m 12.336,0.96 q -0.24,0 -0.624,-0.096 -0.336,-0.048 -0.336,-0.336 0,-0.384 0.336,-0.528 0.384,-0.192 0.768,-0.336 0.72,-0.24 1.392,-0.528 0.672,-0.336 0.672,-1.296 v -24.192 q 0,-1.392 -0.528,-2.304 -0.48,-0.96 -1.68,-1.2 -0.384,-0.096 -0.384,-0.624 0,-0.48 0.336,-0.576 1.248,-0.288 2.16,-0.576 0.912,-0.336 1.68,-0.672 0.816,-0.336 1.584,-0.624 0.192,-0.096 0.288,-0.096 0.096,0 0.144,0.144 0.096,0.096 0.096,0.192 0,0.432 -0.192,1.872 -0.144,1.392 -0.144,4.656 v 24 q 0,0.96 0.672,1.296 0.672,0.288 1.392,0.528 0.384,0.144 0.72,0.336 0.384,0.144 0.384,0.528 0,0.288 -0.384,0.336 -0.336,0.096 -0.576,0.096 -0.912,0 -1.488,-0.096 -0.528,-0.048 -1.056,-0.096 -0.48,-0.048 -1.344,-0.048 -0.816,0 -1.344,0.048 -0.528,0.048 -1.056,0.096 -0.528,0.096 -1.488,0.096 z m 19.871989,0.576 q -2.64,0 -4.608,-1.296 -1.968,-1.296 -3.072,-3.648 -1.104,-2.4 -1.104,-5.52 0,-2.784 1.248,-5.04 1.296,-2.304 3.408,-3.696 2.112,-1.392 4.608,-1.392 1.92,0 3.408,0.768 1.488,0.768 2.304,2.16 0.864,1.344 0.864,3.12 0,1.488 -1.44,1.488 h -10.128 q -0.672,0 -0.96,0.384 -0.24,0.336 -0.24,1.392 0,2.304 1.008,4.224 1.008,1.872 2.688,3.024 1.68,1.104 3.696,1.104 1.44,0 2.592,-0.528 1.2,-0.576 2.112,-1.632 0.192,-0.24 0.288,-0.288 0.096,-0.096 0.24,-0.096 0.384,0 0.384,0.48 0,0.912 -0.864,2.016 -0.72,0.912 -1.728,1.584 -1.008,0.672 -2.208,1.008 -1.2,0.384 -2.496,0.384 z m -4.416,-14.544 h 4.368 q 1.152,0 1.968,-0.048 0.816,-0.048 1.584,-0.192 0.24,-0.048 0.288,-0.288 0.096,-0.288 0.096,-0.768 0,-1.392 -1.248,-2.352 -1.2,-1.008 -2.88,-1.008 -1.104,0 -2.208,0.672 -1.104,0.624 -1.824,1.584 -0.72,0.96 -0.72,1.92 0,0.48 0.576,0.48 z"
       id="text1-9-5"
       style="font-size:48px;line-height:0.75;font-family:'EB Garamond';-inkscape-font-specification:'EB Garamond';text-align:center;text-anchor:middle;stroke-width:1.33333"
       aria-label="inestable" />
  </g>
</svg>
