<?xml version="1.0" encoding="UTF-8" standalone="no"?>
<svg
   width="327.97382"
   height="239.92697"
   viewBox="0 0 245.98057 179.94524"
   class="displayed_equation"
   version="1.1"
   id="svg987"
   sodipodi:docname="1.svg"
   inkscape:version="1.2.2 (b0a8486, 2022-12-01)"
   xmlns:inkscape="http://www.inkscape.org/namespaces/inkscape"
   xmlns:sodipodi="http://sodipodi.sourceforge.net/DTD/sodipodi-0.dtd"
   xmlns="http://www.w3.org/2000/svg"
   xmlns:svg="http://www.w3.org/2000/svg">
  <sodipodi:namedview
     id="namedview989"
     pagecolor="#ffffff"
     bordercolor="#666666"
     borderopacity="1.0"
     inkscape:showpageshadow="2"
     inkscape:pageopacity="0.0"
     inkscape:pagecheckerboard="0"
     inkscape:deskcolor="#d1d1d1"
     showgrid="false"
     inkscape:zoom="0.52264666"
     inkscape:cx="-26.78674"
     inkscape:cy="206.64056"
     inkscape:window-width="1280"
     inkscape:window-height="800"
     inkscape:window-x="1920"
     inkscape:window-y="213"
     inkscape:window-maximized="0"
     inkscape:current-layer="svg987" />
  <defs
     id="defs147">
    <clipPath
       id="svg189197817912tikz_00001a">
      <path
         d="M 20,15.730469 H 99 V 77 H 20 Z m 0,0"
         id="path132" />
    </clipPath>
    <clipPath
       id="svg189197817912tikz_00001b">
      <path
         d="m 183,15.730469 h 78.71484 V 81 H 183 Z m 0,0"
         id="path135" />
    </clipPath>
    <clipPath
       id="svg189197817912tikz_00001c">
      <path
         d="m 239,130 h 22.71484 v 1 H 239 Z m 0,0"
         id="path138" />
    </clipPath>
    <clipPath
       id="svg189197817912tikz_00001d">
      <path
         d="m 180,176 h 2 v 19.92578 h -2 z m 0,0"
         id="path141" />
    </clipPath>
    <clipPath
       id="svg189197817912tikz_00001e">
      <path
         d="M 15.734375,143 H 39 v 1 H 15.734375 Z m 0,0"
         id="path144" />
    </clipPath>
  </defs>
  <g
     clip-path="url(#svg189197817912tikz_00001a)"
     id="g151"
     transform="translate(-15.734375,-15.855469)">
    <path
       d="m 209.88281,3703.6609 208.39844,-0.4297 213.39844,40.8594 256.13281,183.9844 97.89062,106.6797 v 266.3281"
       transform="matrix(0.1,0,0,-0.1,0,446.37)"
       fill="none"
       stroke-width="6.128"
       stroke-linejoin="round"
       stroke="#000000"
       stroke-dasharray="24.5103, 16.3402"
       stroke-miterlimit="10"
       id="path149" />
  </g>
  <path
     d="m 87.296875,42.031251 26.238285,21.35937 11.2539,-2.54687 31.5,-21.83203"
     fill="none"
     stroke-width="0.6128"
     stroke-linejoin="round"
     stroke="#000000"
     stroke-dasharray="24.5103, 16.3402"
     stroke-miterlimit="10"
     id="path153" />
  <g
     clip-path="url(#svg189197817912tikz_00001b)"
     id="g157"
     transform="translate(-15.734375,-15.855469)">
    <path
       d="M 1835.8984,4305.1453 V 3935.575 l 67.6172,-79.3359 260.0391,-166.9922 215.0391,-26.211 h 238.5546"
       transform="matrix(0.1,0,0,-0.1,0,446.37)"
       fill="none"
       stroke-width="6.128"
       stroke-linejoin="round"
       stroke="#000000"
       stroke-dasharray="24.5103, 16.3402"
       stroke-miterlimit="10"
       id="path155" />
  </g>
  <path
     d="M 208.65235,83.515621 V 111.12109"
     fill="none"
     stroke-width="0.6128"
     stroke-linejoin="round"
     stroke="#000000"
     stroke-dasharray="24.5103, 16.3402"
     stroke-miterlimit="10"
     id="path159" />
  <g
     clip-path="url(#svg189197817912tikz_00001c)"
     id="g163"
     transform="translate(-15.734375,-15.855469)">
    <path
       d="m 2402.2656,3157.5672 h 214.8828"
       transform="matrix(0.1,0,0,-0.1,0,446.37)"
       fill="none"
       stroke-width="6.128"
       stroke-linejoin="round"
       stroke="#000000"
       stroke-dasharray="24.5103, 16.3402"
       stroke-miterlimit="10"
       id="path161" />
  </g>
  <path
     d="m 201.94531,117.39453 -26.61719,19.36719 m -42.75,-14.69531 25.39845,18"
     fill="none"
     stroke-width="0.6128"
     stroke-linejoin="round"
     stroke="#000000"
     stroke-dasharray="24.5103, 16.3402"
     stroke-miterlimit="10"
     id="path165" />
  <g
     clip-path="url(#svg189197817912tikz_00001d)"
     id="g169"
     transform="translate(-15.734375,-15.855469)">
    <path
       d="M 1811.4453,2700.4969 V 2505.6922"
       transform="matrix(0.1,0,0,-0.1,0,446.37)"
       fill="none"
       stroke-width="6.128"
       stroke-linejoin="round"
       stroke="#000000"
       stroke-dasharray="24.5103, 16.3402"
       stroke-miterlimit="10"
       id="path167" />
  </g>
  <path
     d="m 71.683594,159.17969 v 18.92578 m 9.148437,-44.53516 30.179689,-14.44922 m 8.07031,-5.89453 0.23829,-31.953119 m -87.148445,-5.79297 0.445312,35.421869 M 41.160156,122.79297 63.253906,139"
     fill="none"
     stroke-width="0.6128"
     stroke-linejoin="round"
     stroke="#000000"
     stroke-dasharray="24.5103, 16.3402"
     stroke-miterlimit="10"
     id="path171" />
  <g
     clip-path="url(#svg189197817912tikz_00001e)"
     id="g175"
     transform="translate(-15.734375,-15.855469)">
    <path
       d="M 383.75,3030.0281 H 157.34375"
       transform="matrix(0.1,0,0,-0.1,0,446.37)"
       fill="none"
       stroke-width="6.128"
       stroke-linejoin="round"
       stroke="#000000"
       stroke-dasharray="24.5103, 16.3402"
       stroke-miterlimit="10"
       id="path173" />
  </g>
  <path
     d="m 37.789063,51.765625 c -4.410157,-1.4375 -9.148438,0.96875 -10.585938,5.375 -1.4375,4.40625 0.96875,9.148437 5.375,10.585937 4.40625,1.4375 9.148438,-0.96875 10.585938,-5.375 1.4375,-4.410156 -0.96875,-9.148437 -5.375,-10.585937 z m 0,0"
     fill="#96191c"
     id="path177" />
  <path
     d="m 40.96875,53.675781 c -2.898437,-2.894531 -7.597656,-2.894531 -10.492187,0 -2.898438,2.898438 -2.898438,7.597656 0,10.492188 2.894531,2.898437 7.59375,2.898437 10.492187,0 2.894531,-2.894532 2.894531,-7.59375 0,-10.492188 z m 0,0"
     fill="#de1f26"
     id="path179" />
  <path
     d="m 38.75,59.636719 c -1.804687,0 -3.636719,-1.308594 -4.363281,-2.960938 -0.746094,-1.695312 -0.226563,-3.539062 1.421875,-4.160156 2,-0.75 4.734375,0.550781 5.644531,2.976562 0.878906,2.332032 -0.535156,4.152344 -2.703125,4.144532 z m 0,0"
     fill="#f27275"
     id="path181" />
  <path
     d="m 35.171875,68.429687 c -0.890625,0 -1.792969,-0.136718 -2.6875,-0.429687 -4.550781,-1.484375 -7.046875,-6.394531 -5.5625,-10.949219 1.488281,-4.550781 6.398438,-7.046875 10.949219,-5.558594 4.554687,1.484375 7.050781,6.398438 5.5625,10.949219 -1.191406,3.660156 -4.605469,5.988281 -8.261719,5.988281 z M 27.476563,57.234375 c -1.386719,4.246094 0.941406,8.832031 5.1875,10.21875 0.832031,0.269531 1.679687,0.398437 2.507812,0.398437 3.414063,0 6.597656,-2.175781 7.710938,-5.589843 1.386718,-4.25 -0.941407,-8.832032 -5.191407,-10.21875 -4.246093,-1.386719 -8.832031,0.941406 -10.214843,5.191406 z m 0,0"
     id="path183" />
  <path
     d="m 48.972656,54.160156 c -2.171875,-2.175781 -5.691406,-2.175781 -7.867187,0 -2.171875,2.171875 -2.171875,5.695313 0,7.867188 2.175781,2.171875 5.695312,2.171875 7.867187,0 2.175782,-2.171875 2.175782,-5.695313 0,-7.867188 z m 0,0"
     fill="#8b8b8b"
     id="path185" />
  <path
     d="m 48.90625,54.085937 c -1.921875,-1.921875 -5.035156,-1.921875 -6.957031,0 -1.917969,1.921875 -1.917969,5.035157 0,6.957032 1.921875,1.917968 5.035156,1.917968 6.957031,0 1.917969,-1.921875 1.917969,-5.035157 0,-6.957032 z m 0,0"
     fill="#e9e9e9"
     id="path187" />
  <path
     d="m 47.433594,58.144531 c -1.195313,-0.05859 -2.367188,-0.984375 -2.796875,-2.097656 -0.4375,-1.148438 -0.03516,-2.351563 1.078125,-2.710938 1.347656,-0.433593 3.113281,0.515625 3.640625,2.152344 0.503906,1.570313 -0.492188,2.730469 -1.921875,2.65625 z m 0,0"
     fill="#ffffff"
     id="path189" />
  <path
     d="m 45.042969,63.878906 c -1.484375,0 -2.964844,-0.5625 -4.097656,-1.691406 C 39.851563,61.09375 39.25,59.640625 39.25,58.09375 c 0,-1.546875 0.601563,-3.003906 1.695313,-4.097656 2.257812,-2.257813 5.933593,-2.257813 8.191406,0 2.257812,2.261718 2.257812,5.933593 0,8.191406 -1.128906,1.128906 -2.613281,1.691406 -4.09375,1.691406 z m -3.933594,-9.71875 0.160156,0.160156 c -1.011718,1.007813 -1.566406,2.347657 -1.566406,3.773438 0,1.425781 0.554688,2.765625 1.566406,3.773437 2.078125,2.082032 5.464844,2.082032 7.546875,0 2.082032,-2.082031 2.082032,-5.464843 0,-7.546875 -2.082031,-2.082031 -5.46875,-2.082031 -7.546875,0 z m 0,0"
     id="path191" />
  <path
     d="m 31.773438,123.48437 c -2.039063,-2.29687 -5.554688,-2.50781 -7.855469,-0.46875 -2.296875,2.03907 -2.507813,5.5586 -0.46875,7.85547 2.039062,2.29688 5.554687,2.50781 7.855469,0.46875 2.300781,-2.03906 2.507812,-5.55469 0.46875,-7.85547 z m 0,0"
     fill="#8b8b8b"
     id="path193" />
  <path
     d="m 31.707031,123.41015 c -1.800781,-2.03515 -4.910156,-2.21875 -6.941406,-0.41796 -2.03125,1.80468 -2.214844,4.91406 -0.414062,6.94531 1.800781,2.03125 4.910156,2.21484 6.941406,0.41406 2.03125,-1.80469 2.21875,-4.91016 0.414062,-6.94141 z m 0,0"
     fill="#e9e9e9"
     id="path195" />
  <path
     d="m 29.996094,127.37109 c -1.1875,-0.13281 -2.300781,-1.125 -2.664063,-2.26562 -0.371093,-1.17188 0.101563,-2.35157 1.234375,-2.64063 1.375,-0.35156 3.078125,0.70313 3.507813,2.36719 0.410156,1.59766 -0.652344,2.69531 -2.078125,2.53906 z m 0,0"
     fill="#ffffff"
     id="path197" />
  <path
     d="m 27.269531,132.95312 c -1.480468,-0.0898 -2.925781,-0.74218 -3.988281,-1.9375 -1.027344,-1.15625 -1.539062,-2.64453 -1.449219,-4.1875 0.09375,-1.54297 0.78125,-2.96093 1.9375,-3.98828 2.390625,-2.11719 6.054688,-1.89844 8.175782,0.49219 2.121093,2.38672 1.902343,6.05469 -0.484375,8.17187 -1.199219,1.0625 -2.710938,1.53907 -4.191407,1.44922 z m -3.347656,-9.9414 0.148438,0.17187 c -1.0625,0.94531 -1.699219,2.25 -1.78125,3.67188 -0.08594,1.42187 0.386718,2.79297 1.332031,3.85937 1.953125,2.20313 5.332031,2.40625 7.535156,0.44922 2.203125,-1.95312 2.402344,-5.33203 0.449219,-7.53125 -1.953125,-2.20312 -5.332031,-2.40234 -7.535156,-0.44922 z m 0,0"
     id="path199" />
  <path
     d="m 36.105469,65.757812 c -2.171875,-2.171875 -5.695313,-2.171875 -7.867188,0 -2.171875,2.175782 -2.171875,5.695313 0,7.867188 2.171875,2.171875 5.695313,2.171875 7.867188,0 2.175781,-2.171875 2.175781,-5.691406 0,-7.867188 z m 0,0"
     fill="#8b8b8b"
     id="path201" />
  <path
     d="m 36.035156,65.683594 c -1.917968,-1.917969 -5.03125,-1.917969 -6.953125,0 -1.917968,1.921875 -1.917968,5.035156 0,6.957031 1.921875,1.921875 5.035157,1.921875 6.953125,0 1.921875,-1.921875 1.921875,-5.035156 0,-6.957031 z m 0,0"
     fill="#e9e9e9"
     id="path203" />
  <path
     d="m 34.566406,69.746094 c -1.195312,-0.0625 -2.367187,-0.984375 -2.796875,-2.101563 -0.441406,-1.148437 -0.03906,-2.351562 1.074219,-2.710937 1.347656,-0.429688 3.117188,0.519531 3.640625,2.15625 0.507813,1.570312 -0.488281,2.730468 -1.917969,2.65625 z m 0,0"
     fill="#ffffff"
     id="path205" />
  <path
     d="m 32.171875,75.480469 c -1.480469,0 -2.964844,-0.5625 -4.09375,-1.691407 -1.09375,-1.09375 -1.695312,-2.546875 -1.695312,-4.09375 0,-1.550781 0.601562,-3.003906 1.695312,-4.097656 2.257813,-2.257812 5.933594,-2.257812 8.191406,0 2.257813,2.257813 2.257813,5.933594 0,8.191406 -1.128906,1.128907 -2.613281,1.691407 -4.097656,1.691407 z m -3.933594,-9.722657 0.164063,0.160157 c -1.011719,1.007812 -1.566406,2.347656 -1.566406,3.773437 0,1.425781 0.554687,2.765625 1.566406,3.773438 2.078125,2.082031 5.464844,2.082031 7.542969,0 2.082031,-2.078125 2.082031,-5.464844 0,-7.546875 -2.078125,-2.082032 -5.464844,-2.082032 -7.542969,0 z m 0,0"
     id="path207" />
  <path
     d="m 34.632813,110.27344 c -4.3125,-1.69922 -9.1875,0.42187 -10.886719,4.73437 -1.695313,4.3125 0.425781,9.1875 4.738281,10.88281 4.3125,1.69922 9.1875,-0.41797 10.886719,-4.73437 1.695312,-4.3125 -0.421875,-9.1875 -4.738281,-10.88281 z m 0,0"
     fill="#96191c"
     id="path209" />
  <path
     d="m 37.699219,112.36719 c -2.71875,-3.0625 -7.410156,-3.34375 -10.472656,-0.625 -3.066407,2.71875 -3.347657,7.41015 -0.628907,10.47265 2.722657,3.06641 7.410157,3.34375 10.476563,0.625 3.0625,-2.71875 3.34375,-7.40625 0.625,-10.47265 z m 0,0"
     fill="#de1f26"
     id="path211" />
  <path
     d="m 35.132813,118.18359 c -1.804688,-0.10937 -3.554688,-1.52344 -4.179688,-3.21484 -0.644531,-1.73828 -0.01953,-3.54688 1.664063,-4.06641 2.042968,-0.63281 4.691406,0.82813 5.457031,3.30469 0.734375,2.37891 -0.78125,4.10937 -2.941406,3.97656 z m 0,0"
     fill="#f27275"
     id="path213" />
  <path
     d="m 31.035156,126.74609 c -0.886718,-0.0508 -1.785156,-0.24219 -2.65625,-0.58594 -4.457031,-1.7539 -6.652343,-6.80468 -4.898437,-11.26171 1.753906,-4.45313 6.804687,-6.65235 11.261719,-4.89844 4.453125,1.75391 6.652343,6.80469 4.898437,11.26172 -1.410156,3.58203 -4.953125,5.70312 -8.605469,5.48437 z m -7.015625,-11.63672 c -1.636718,4.16016 0.414063,8.875 4.570313,10.51172 0.816406,0.32031 1.652344,0.5 2.480469,0.54688 3.40625,0.20312 6.710937,-1.77735 8.03125,-5.1211 1.636718,-4.15625 -0.417969,-8.87109 -4.574219,-10.50781 -4.160156,-1.63672 -8.871094,0.41406 -10.507813,4.57031 z m 0,0"
     id="path215" />
  <path
     d="m 45.664063,113.32812 c -2.042969,-2.30078 -5.558594,-2.50781 -7.855469,-0.46875 -2.300781,2.03907 -2.507813,5.55469 -0.46875,7.85157 2.039062,2.30078 5.554687,2.50781 7.855469,0.47265 2.296875,-2.04297 2.507812,-5.55859 0.46875,-7.85547 z m 0,0"
     fill="#8b8b8b"
     id="path217" />
  <path
     d="m 45.597656,113.25 c -1.800781,-2.03125 -4.910156,-2.21484 -6.941406,-0.41406 -2.03125,1.80468 -2.21875,4.91015 -0.414062,6.94531 1.800781,2.02734 4.910156,2.21484 6.941406,0.41015 2.03125,-1.80078 2.214844,-4.91015 0.414062,-6.9414 z m 0,0"
     fill="#e9e9e9"
     id="path219" />
  <path
     d="m 43.886719,117.21094 c -1.191406,-0.12891 -2.304688,-1.125 -2.664063,-2.26172 -0.371093,-1.17578 0.101563,-2.35157 1.234375,-2.64063 1.371094,-0.35156 3.078125,0.69922 3.503907,2.36328 0.410156,1.59766 -0.648438,2.69922 -2.074219,2.53907 z m 0,0"
     fill="#ffffff"
     id="path221" />
  <path
     d="m 41.160156,122.79297 c -1.484375,-0.0859 -2.929687,-0.73828 -3.988281,-1.9336 -1.027344,-1.15625 -1.542969,-2.64453 -1.449219,-4.1875 0.08984,-1.54687 0.78125,-2.96093 1.9375,-3.98828 2.386719,-2.11718 6.054688,-1.89843 8.175782,0.48828 2.117187,2.38672 1.898437,6.0586 -0.488282,8.17578 -1.195312,1.0625 -2.710937,1.53516 -4.1875,1.44532 z m -3.351562,-9.9375 0.152344,0.16797 c -1.066407,0.94531 -1.699219,2.2539 -1.785157,3.67578 -0.08594,1.42187 0.390625,2.79297 1.335938,3.85937 1.953125,2.19922 5.332031,2.40235 7.535156,0.44922 2.199219,-1.95312 2.398438,-5.33203 0.449219,-7.53125 -1.953125,-2.20312 -5.335938,-2.40625 -7.535156,-0.45312 z m 0,0"
     id="path223" />
  <path
     d="m 32.125,124.14062 c -2.039062,-2.30078 -5.554687,-2.51172 -7.851562,-0.46875 -2.300782,2.03907 -2.511719,5.55469 -0.472657,7.85157 2.042969,2.30078 5.558594,2.51171 7.855469,0.47265 2.300781,-2.04297 2.511719,-5.55859 0.46875,-7.85547 z m 0,0"
     fill="#8b8b8b"
     id="path225" />
  <path
     d="m 32.0625,124.0625 c -1.804687,-2.03125 -4.914062,-2.21485 -6.945312,-0.41406 -2.03125,1.80468 -2.214844,4.91015 -0.414063,6.9414 1.804688,2.03516 4.910156,2.21875 6.941406,0.41797 2.03125,-1.80469 2.21875,-4.91406 0.417969,-6.94531 z m 0,0"
     fill="#e9e9e9"
     id="path227" />
  <path
     d="m 30.351563,128.02344 c -1.191407,-0.12891 -2.304688,-1.1211 -2.664063,-2.26172 -0.371094,-1.17188 0.101563,-2.34766 1.230469,-2.64063 1.375,-0.35156 3.082031,0.70313 3.507812,2.36328 0.410157,1.60157 -0.652343,2.69922 -2.074218,2.53907 z m 0,0"
     fill="#ffffff"
     id="path229" />
  <path
     d="m 27.621094,133.60937 c -1.480469,-0.0898 -2.925781,-0.74218 -3.984375,-1.9375 -1.027344,-1.15625 -1.542969,-2.64453 -1.449219,-4.1875 0.08984,-1.54297 0.777344,-2.96093 1.9375,-3.98828 2.386719,-2.11719 6.054688,-1.89844 8.171875,0.48828 2.121094,2.39063 1.902344,6.05469 -0.488281,8.17578 -1.191406,1.0586 -2.707031,1.53516 -4.1875,1.44922 z m -3.347656,-9.9414 0.152343,0.16797 c -1.066406,0.94531 -1.703125,2.2539 -1.785156,3.67578 -0.08594,1.42187 0.386719,2.79297 1.335938,3.85937 1.953125,2.20313 5.332031,2.40235 7.53125,0.44922 2.203125,-1.95312 2.402343,-5.33203 0.449218,-7.53516 -1.953125,-2.19921 -5.332031,-2.40234 -7.53125,-0.44921 z m 0,0"
     id="path231" />
  <path
     d="m 78.257813,142.45312 c -0.628907,-4.59375 -4.859375,-7.80859 -9.457032,-7.17968 -4.589843,0.625 -7.804687,4.85937 -7.175781,9.45312 0.625,4.59375 4.859375,7.80859 9.453125,7.17969 4.59375,-0.62891 7.808594,-4.85938 7.179688,-9.45313 z m 0,0"
     fill="#96191c"
     id="path233" />
  <path
     d="m 72.492188,135.59375 c -3.871094,-1.34375 -8.097657,0.70312 -9.441407,4.57422 -1.34375,3.87109 0.703125,8.10156 4.574219,9.4414 3.871094,1.34375 8.097656,-0.70312 9.441406,-4.57422 1.34375,-3.87109 -0.703125,-8.09765 -4.574218,-9.4414 z m 0,0"
     fill="#de1f26"
     id="path235" />
  <path
     d="m 73.101563,141.92969 c -1.625,0.78515 -3.84375,0.40625 -5.21875,-0.76172 -1.410157,-1.20313 -1.75,-3.08594 -0.535157,-4.36328 1.472657,-1.55079 4.496094,-1.57032 6.375,0.21484 1.804688,1.71484 1.328125,3.96875 -0.621093,4.91016 z m 0,0"
     fill="#f27275"
     id="path237" />
  <path
     d="m 73.714844,151.40234 c -0.800781,0.38672 -1.675781,0.66016 -2.605469,0.78516 -4.742187,0.64844 -9.132812,-2.6836 -9.777344,-7.42578 -0.652343,-4.7461 2.679688,-9.13282 7.425782,-9.78125 4.742187,-0.64844 9.132812,2.68359 9.78125,7.42578 0.519531,3.8164 -1.53125,7.39844 -4.824219,8.99609 z M 61.90625,144.67969 c 0.601563,4.42968 4.699219,7.53906 9.125,6.93359 0.867188,-0.11719 1.683594,-0.37109 2.433594,-0.73438 3.070312,-1.48828 4.984375,-4.83203 4.5,-8.39062 -0.605469,-4.42969 -4.703125,-7.53906 -9.128906,-6.93359 -4.425782,0.60546 -7.535157,4.69921 -6.929688,9.125 z m 0,0"
     id="path239" />
  <path
     d="m 79.90625,132.53515 c -2.902344,-1.00781 -6.074219,0.53125 -7.078125,3.42969 -1.007812,2.90625 0.527344,6.07422 3.429688,7.08203 2.902343,1.00782 6.074218,-0.52734 7.082031,-3.42968 1.007811,-2.90235 -0.53125,-6.07422 -3.433594,-7.08204 z m 0,0"
     fill="#8b8b8b"
     id="path241" />
  <path
     d="m 79.8125,132.5 c -2.566406,-0.89063 -5.367187,0.46875 -6.257812,3.03515 -0.890625,2.56641 0.46875,5.36719 3.035156,6.25782 2.5625,0.89062 5.367187,-0.46875 6.257812,-3.03516 0.890625,-2.5625 -0.46875,-5.36719 -3.035156,-6.25781 z m 0,0"
     fill="#e9e9e9"
     id="path243" />
  <path
     d="m 80.261719,136.80078 c -1.101563,0.46484 -2.558594,0.14453 -3.429688,-0.67188 -0.898437,-0.84375 -1.058593,-2.10156 -0.214843,-2.90625 1.023437,-0.98046 3.027343,-0.89453 4.214843,0.34766 1.140625,1.19141 0.75,2.66797 -0.570312,3.23047 z m 0,0"
     fill="#ffffff"
     id="path245" />
  <path
     d="m 80.613281,143.0039 c -1.335937,0.64844 -2.917968,0.78516 -4.425781,0.26172 -1.460937,-0.50781 -2.636719,-1.55468 -3.3125,-2.94531 -0.675781,-1.39453 -0.765625,-2.96094 -0.257812,-4.42578 1.046875,-3.01563 4.351562,-4.61719 7.371093,-3.57031 3.015625,1.04687 4.617184,4.35156 3.570313,7.37109 -0.523438,1.50781 -1.613281,2.66016 -2.945313,3.30859 z m -7.78125,-7.03515 0.214844,0.0742 c -0.46875,1.34765 -0.382812,2.79687 0.238281,4.07812 0.621094,1.28516 1.707032,2.2461 3.054688,2.71485 2.777344,0.96484 5.824219,-0.51172 6.789062,-3.28907 0.964844,-2.78125 -0.511718,-5.82812 -3.292968,-6.79297 -2.777344,-0.96484 -5.824219,0.51172 -6.789063,3.28907 z m 0,0"
     id="path247" />
  <path
     d="m 73.386719,148.58594 c -2.902344,-1.00782 -6.074219,0.53125 -7.082031,3.42968 -1.003907,2.90625 0.53125,6.07422 3.433593,7.08203 2.902344,1.00782 6.074219,-0.52734 7.078125,-3.43359 1.007813,-2.89844 -0.527343,-6.07031 -3.429687,-7.07812 z m 0,0"
     fill="#8b8b8b"
     id="path249" />
  <path
     d="m 73.292969,148.55078 c -2.566406,-0.89063 -5.367188,0.46875 -6.257813,3.03516 -0.890625,2.5664 0.464844,5.36718 3.03125,6.25781 2.566407,0.89062 5.367188,-0.46875 6.257813,-3.03516 0.890625,-2.5664 -0.464844,-5.36719 -3.03125,-6.25781 z m 0,0"
     fill="#e9e9e9"
     id="path251" />
  <path
     d="m 73.742188,152.85156 c -1.101563,0.46875 -2.558594,0.14453 -3.429688,-0.67187 -0.898437,-0.84375 -1.0625,-2.10157 -0.214844,-2.90625 1.023438,-0.98047 3.027344,-0.89454 4.214844,0.34765 1.136719,1.19531 0.75,2.67188 -0.570312,3.23047 z m 0,0"
     fill="#ffffff"
     id="path253" />
  <path
     d="m 74.089844,159.05469 c -1.332031,0.64453 -2.914063,0.78515 -4.421875,0.26171 -1.460938,-0.50781 -2.636719,-1.55468 -3.3125,-2.94531 -0.675781,-1.39062 -0.765625,-2.96484 -0.257813,-4.42578 1.046875,-3.01562 4.351563,-4.61719 7.371094,-3.57031 3.015625,1.04687 4.617188,4.35156 3.570313,7.37109 -0.527344,1.50781 -1.613282,2.66016 -2.949219,3.3086 z m -7.777344,-7.03516 0.214844,0.0742 c -0.46875,1.34765 -0.386719,2.79687 0.238281,4.07812 0.621094,1.28516 1.707031,2.2461 3.050781,2.71485 2.78125,0.96484 5.828125,-0.51172 6.792969,-3.29297 0.964844,-2.77735 -0.511719,-5.82422 -3.292969,-6.78906 -2.78125,-0.96485 -5.824218,0.51171 -6.789062,3.28906 z m 0,0"
     id="path255" />
  <path
     d="m 121.08984,113.23437 c -4.46093,-1.25781 -9.09766,1.33594 -10.35546,5.79688 -1.26172,4.46484 1.33593,9.10156 5.79687,10.35937 4.46094,1.26172 9.09766,-1.33593 10.35938,-5.79687 1.2578,-4.46094 -1.33594,-9.09766 -5.80079,-10.35938 z m 0,0"
     fill="#96191c"
     id="path257" />
  <path
     d="m 124.33203,115.03125 c -3.00782,-2.78125 -7.70312,-2.58985 -10.48047,0.41797 -2.77735,3.01172 -2.58985,7.70703 0.42188,10.48437 3.00781,2.77735 7.70312,2.58985 10.48047,-0.42187 2.77734,-3.01172 2.58984,-7.70313 -0.42188,-10.48047 z m 0,0"
     fill="#de1f26"
     id="path259" />
  <path
     d="m 122.375,121.07031 c -1.80468,0.0703 -3.6875,-1.16016 -4.47656,-2.78125 -0.8164,-1.66797 -0.3711,-3.52734 1.25,-4.21484 1.96875,-0.83203 4.75,0.35937 5.75781,2.74609 0.96875,2.29297 -0.36718,4.16797 -2.53125,4.25 z m 0,0"
     fill="#f27275"
     id="path261" />
  <path
     d="m 119.15234,130 c -0.89062,0.0391 -1.80078,-0.0664 -2.70312,-0.32031 -4.60937,-1.30079 -7.29687,-6.10938 -5.99609,-10.71485 1.30078,-4.60937 6.10937,-7.30078 10.71484,-6 4.60937,1.30469 7.30078,6.10938 6,10.71875 -1.04688,3.70703 -4.36328,6.17188 -8.01563,6.31641 z m -8.14063,-10.87891 c -1.21483,4.30078 1.29688,8.78906 5.59767,10 0.83984,0.23828 1.6914,0.33203 2.51953,0.30078 3.41015,-0.13672 6.5039,-2.4375 7.48047,-5.89453 1.21484,-4.30078 -1.29688,-8.78906 -5.59766,-10.0039 -4.30078,-1.21485 -8.78515,1.29687 -10.00001,5.59765 z m 0,0"
     id="path263" />
  <path
     d="m 132.35156,115.1914 c -2.25782,-2.08593 -5.77735,-1.9414 -7.85937,0.31641 -2.08594,2.25391 -1.9414,5.77734 0.3164,7.85938 2.25782,2.08593 5.77734,1.9414 7.85937,-0.31641 2.08204,-2.25781 1.94533,-5.77734 -0.3164,-7.85938 z m 0,0"
     fill="#8b8b8b"
     id="path265" />
  <path
     d="m 132.28125,115.12109 c -1.9961,-1.83984 -5.10937,-1.71484 -6.94921,0.27735 -1.84375,2 -1.71485,5.10937 0.27734,6.94921 2,1.84375 5.10937,1.71875 6.94922,-0.27734 1.84375,-1.99609 1.71875,-5.10937 -0.27735,-6.94922 z m 0,0"
     fill="#e9e9e9"
     id="path267" />
  <path
     d="m 130.98828,119.23047 c -1.19532,-0.0117 -2.40235,-0.88672 -2.875,-1.98438 -0.48829,-1.13281 -0.13282,-2.34765 0.96484,-2.75 1.32813,-0.48828 3.13281,0.39063 3.72266,2.00391 0.57031,1.55078 -0.37891,2.74609 -1.8125,2.73047 z m 0,0"
     fill="#ffffff"
     id="path269" />
  <path
     d="m 128.83203,125.05859 c -1.48047,0.0586 -2.98829,-0.44531 -4.16015,-1.52734 -1.13672,-1.05078 -1.79688,-2.48047 -1.85938,-4.02344 -0.0625,-1.54687 0.48047,-3.02344 1.53125,-4.16016 2.16407,-2.34765 5.83204,-2.49609 8.1836,-0.32812 2.34375,2.16406 2.49219,5.83594 0.32812,8.18359 -1.08203,1.17188 -2.54297,1.79688 -4.02344,1.85547 z m -4.32422,-9.55859 0.16797,0.15625 c -0.96875,1.04687 -1.46875,2.41015 -1.41015,3.83203 0.0586,1.42578 0.66406,2.74219 1.71484,3.70703 2.16016,1.99609 5.54687,1.85938 7.53907,-0.30078 1.99609,-2.16406 1.85937,-5.54688 -0.30079,-7.54297 -2.16407,-1.99609 -5.54687,-1.85937 -7.54296,0.30469 z m 0,0"
     id="path271" />
  <path
     d="m 121.1875,126.88672 c -2.25781,-2.08203 -5.77734,-1.94141 -7.85937,0.3164 -2.08594,2.25782 -1.94532,5.78125 0.3125,7.86328 2.25781,2.08204 5.77734,1.94141 7.86328,-0.3164 2.08203,-2.25781 1.9414,-5.77735 -0.31641,-7.86328 z m 0,0"
     fill="#8b8b8b"
     id="path273" />
  <path
     d="m 121.11328,126.82031 c -1.9961,-1.84375 -5.10547,-1.71875 -6.94922,0.27734 -1.83985,1.9961 -1.71485,5.10547 0.28125,6.94922 1.9961,1.83985 5.10547,1.71485 6.94922,-0.28125 1.83985,-1.99609 1.71485,-5.10547 -0.28125,-6.94531 z m 0,0"
     fill="#e9e9e9"
     id="path275" />
  <path
     d="m 118.59766,131.33984 c -1.19532,-0.0117 -2.40235,-0.89062 -2.875,-1.98828 -0.48828,-1.12891 -0.13282,-2.34766 0.96484,-2.75 1.32813,-0.48828 3.13282,0.39063 3.72266,2.00391 0.5664,1.55078 -0.37891,2.75 -1.8125,2.73437 z m 0,0"
     fill="#ffffff"
     id="path277" />
  <path
     d="m 117.66406,136.75781 c -1.48047,0.0586 -2.98828,-0.44531 -4.16015,-1.52734 -1.13672,-1.05078 -1.79687,-2.47657 -1.85937,-4.02344 -0.0625,-1.54688 0.48437,-3.02344 1.53125,-4.16016 2.16406,-2.34765 5.83593,-2.49609 8.18359,-0.32812 2.34766,2.16406 2.49609,5.83594 0.32812,8.18359 -1.08203,1.17188 -2.53906,1.79688 -4.02344,1.85547 z m -4.32032,-9.55859 0.16407,0.15625 c -0.96485,1.04687 -1.46485,2.41015 -1.40625,3.83203 0.0547,1.42578 0.66407,2.74219 1.71093,3.70703 2.16407,1.99609 5.54688,1.85937 7.54297,-0.30078 1.9961,-2.16406 1.85938,-5.54688 -0.30468,-7.54297 -2.16407,-1.99609 -5.54687,-1.85938 -7.54297,0.30469 z m 0,0"
     id="path279" />
  <path
     d="m 172.26953,144.73047 c -0.6836,-4.58594 -4.95704,-7.7461 -9.53907,-7.0625 -4.58593,0.68359 -7.75,4.95312 -7.07031,9.53906 0.6875,4.58594 4.95703,7.75 9.54297,7.06641 4.58594,-0.6836 7.75,-4.95704 7.06641,-9.54297 z m 0,0"
     fill="#96191c"
     id="path281" />
  <path
     d="m 166.41015,137.9414 c -3.88281,-1.29296 -8.08594,0.80469 -9.38281,4.69141 -1.29688,3.88672 0.80469,8.08984 4.6914,9.38281 3.88672,1.29688 8.08594,-0.80078 9.38282,-4.6875 1.29687,-3.88672 -0.80469,-8.08984 -4.69141,-9.38672 z m 0,0"
     fill="#de1f26"
     id="path283" />
  <path
     d="m 167.10546,144.26172 c -1.61717,0.80468 -3.83984,0.45312 -5.22656,-0.69922 -1.42969,-1.1875 -1.78906,-3.0625 -0.59375,-4.35547 1.45703,-1.57031 4.48047,-1.625 6.38281,0.13672 1.82422,1.69531 1.375,3.95312 -0.5625,4.91797 z m 0,0"
     fill="#f27275"
     id="path285" />
  <path
     d="m 167.83203,153.72265 c -0.79688,0.40235 -1.66797,0.6836 -2.59375,0.82032 -4.73829,0.70703 -9.16407,-2.57422 -9.8711,-7.3086 -0.70703,-4.73437 2.57031,-9.16015 7.3086,-9.87109 4.73437,-0.70313 9.16406,2.57422 9.87109,7.30859 0.56641,3.8086 -1.44141,7.41797 -4.71484,9.05078 z m -11.89063,-6.57421 c 0.66016,4.42187 4.78906,7.48046 9.21094,6.82031 0.86719,-0.12891 1.67578,-0.39063 2.42187,-0.76172 3.05469,-1.52734 4.92579,-4.89453 4.39454,-8.44922 -0.65625,-4.41797 -4.78907,-7.48047 -9.20704,-6.81641 -4.42187,0.65625 -7.48046,4.78907 -6.82031,9.20704 z m 0,0"
     id="path287" />
  <path
     d="m 173.78906,134.79687 c -2.91407,-0.97265 -6.0625,0.60157 -7.03907,3.51563 -0.96875,2.91406 0.60547,6.0664 3.51954,7.03906 2.91796,0.97266 6.0664,-0.60156 7.03906,-3.51953 0.97265,-2.91406 -0.60547,-6.06641 -3.51953,-7.03516 z m 0,0"
     fill="#8b8b8b"
     id="path289" />
  <path
     d="m 173.69531,134.76172 c -2.57422,-0.85938 -5.35938,0.53125 -6.21875,3.10937 -0.85938,2.57422 0.53125,5.36328 3.10547,6.21875 2.57812,0.86328 5.36328,-0.53125 6.22265,-3.10937 0.85938,-2.57422 -0.53125,-5.35938 -3.10937,-6.21875 z m 0,0"
     fill="#e9e9e9"
     id="path291" />
  <path
     d="m 174.19921,139.04297 c -1.09375,0.48047 -2.55467,0.17968 -3.4375,-0.62891 -0.90625,-0.83203 -1.08592,-2.08594 -0.25,-2.90234 1.01563,-0.99219 3.01954,-0.9336 4.21875,0.29687 1.15625,1.17969 0.78516,2.66016 -0.53125,3.23438 z m 0,0"
     fill="#ffffff"
     id="path293" />
  <path
     d="m 174.625,145.24219 c -1.32421,0.66406 -2.90625,0.82031 -4.41796,0.3164 -1.46875,-0.48828 -2.65625,-1.51953 -3.34766,-2.90234 -0.69141,-1.38672 -0.80469,-2.95703 -0.3125,-4.42188 1.00781,-3.03125 4.29687,-4.67187 7.32422,-3.66406 3.02734,1.01172 4.67187,4.29688 3.66015,7.32813 -0.5039,1.51562 -1.57813,2.68359 -2.90625,3.34375 z m -7.86329,-6.9375 0.21486,0.0703 c -0.44922,1.35547 -0.34766,2.80078 0.28906,4.07812 0.63672,1.27344 1.73047,2.22266 3.08594,2.67578 2.78906,0.92969 5.82031,-0.58203 6.75,-3.375 0.93359,-2.79296 -0.58203,-5.82031 -3.375,-6.75 -2.78907,-0.92968 -5.82032,0.58204 -6.75,3.3711 z m 0,0"
     id="path295" />
  <path
     d="m 167.46484,150.92187 c -2.91406,-0.96875 -6.0625,0.60547 -7.03906,3.51953 -0.97266,2.91407 0.60546,6.06641 3.51953,7.03907 2.91406,0.96875 6.0664,-0.60547 7.03906,-3.51953 0.96875,-2.91407 -0.60547,-6.06641 -3.51953,-7.03907 z m 0,0"
     fill="#8b8b8b"
     id="path297" />
  <path
     d="m 167.37109,150.89062 c -2.57422,-0.85937 -5.36328,0.53125 -6.22266,3.10938 -0.85937,2.57422 0.53516,5.35937 3.10938,6.21875 2.57812,0.85937 5.36328,-0.53125 6.22265,-3.10938 0.85938,-2.57422 -0.53125,-5.35937 -3.10937,-6.21875 z m 0,0"
     fill="#e9e9e9"
     id="path299" />
  <path
     d="m 167.875,155.17578 c -1.09375,0.48047 -2.55468,0.17578 -3.4375,-0.63281 -0.90625,-0.83203 -1.08593,-2.08594 -0.25,-2.90235 1.01171,-0.99218 3.01562,-0.93359 4.21875,0.29688 1.15625,1.17969 0.78515,2.66015 -0.53125,3.23828 z m 0,0"
     fill="#ffffff"
     id="path301" />
  <path
     d="m 168.30078,161.37109 c -1.32422,0.66406 -2.90235,0.82422 -4.41797,0.31641 -1.46875,-0.48828 -2.65625,-1.51953 -3.34766,-2.90625 -0.6914,-1.38281 -0.80469,-2.94922 -0.3164,-4.41797 1.01171,-3.03125 4.30079,-4.67188 7.32812,-3.66406 3.03125,1.01172 4.67188,4.29687 3.66016,7.32812 -0.50391,1.51563 -1.57813,2.6836 -2.90625,3.34375 z m -7.86329,-6.9375 0.21485,0.0703 c -0.45313,1.35547 -0.34766,2.80079 0.28906,4.07813 0.63672,1.27344 1.73047,2.22266 3.08594,2.67578 2.78906,0.92969 5.8164,-0.58203 6.75,-3.375 0.92969,-2.79297 -0.58203,-5.82031 -3.375,-6.75 -2.78906,-0.93359 -5.82031,0.58203 -6.75,3.37109 z m 0,0"
     id="path303" />
  <path
     d="m 210.96875,109.97266 c -4.60157,-0.53907 -8.77343,2.76171 -9.3086,7.36718 -0.53906,4.60547 2.75781,8.76953 7.36328,9.3086 4.60547,0.53906 8.77344,-2.75782 9.3125,-7.36329 0.53516,-4.60546 -2.76172,-8.77343 -7.36718,-9.31249 z m 0,0"
     fill="#96191c"
     id="path305" />
  <path
     d="m 214.45312,111.25 c -3.41406,-2.26563 -8.01562,-1.33594 -10.28125,2.07812 -2.26562,3.41016 -1.33984,8.01563 2.07422,10.28125 3.41406,2.26563 8.01562,1.33985 10.28515,-2.07422 2.26563,-3.41406 1.33594,-8.01953 -2.07812,-10.28515 z m 0,0"
     fill="#de1f26"
     id="path307" />
  <path
     d="m 213.47656,117.51953 c -1.76953,0.35547 -3.82422,-0.5625 -4.86328,-2.03906 -1.07032,-1.51563 -0.92579,-3.42578 0.57031,-4.35938 1.8125,-1.13281 4.74609,-0.39843 6.12109,1.80078 1.32032,2.10938 0.29297,4.17578 -1.82812,4.59766 z m 0,0"
     fill="#f27275"
     id="path309" />
  <path
     d="m 211.70703,126.84765 c -0.8711,0.17579 -1.78907,0.21875 -2.71875,0.10938 -4.75391,-0.55469 -8.17579,-4.875 -7.61719,-9.63281 0.55469,-4.75391 4.875,-8.17188 9.6289,-7.61719 4.75782,0.55469 8.17579,4.875 7.6211,9.63281 -0.44531,3.82422 -3.32813,6.78516 -6.91406,7.50781 z m -9.76172,-9.45312 c -0.51563,4.4375 2.67187,8.46875 7.10937,8.98828 0.87111,0.10156 1.72266,0.0625 2.53907,-0.10547 3.34765,-0.67187 6.03515,-3.4375 6.45312,-7.0039 0.51563,-4.4375 -2.67187,-8.47266 -7.11328,-8.98828 -4.4375,-0.51954 -8.46875,2.66796 -8.98828,7.10937 z m 0,0"
     id="path311" />
  <path
     d="m 222.39843,110.13672 c -2.55859,-1.69922 -6.01172,-1 -7.71093,1.55859 -1.70313,2.55859 -1.0039,6.01563 1.55468,7.71484 2.55861,1.69922 6.01172,1 7.71486,-1.55859 1.69921,-2.55859 1,-6.01172 -1.55861,-7.71484 z m 0,0"
     fill="#8b8b8b"
     id="path313" />
  <path
     d="m 222.3164,110.08203 c -2.26172,-1.50391 -5.3164,-0.88672 -6.8164,1.375 -1.5039,2.26172 -0.88671,5.31641 1.375,6.82031 2.26171,1.5 5.3125,0.88281 6.8164,-1.3789 1.50391,-2.26172 0.88672,-5.3125 -1.375,-6.81641 z m 0,0"
     fill="#e9e9e9"
     id="path315" />
  <path
     d="m 221.6914,114.33984 c -1.1875,0.17578 -2.51562,-0.49609 -3.15625,-1.50781 -0.66015,-1.03906 -0.5039,-2.29687 0.51563,-2.86719 1.23828,-0.6914 3.15625,-0.10937 3.99609,1.39063 0.80859,1.4375 0.0625,2.77343 -1.35547,2.98437 z m 0,0"
     fill="#ffffff"
     id="path317" />
  <path
     d="m 220.48046,120.43359 c -1.45312,0.29297 -3.01953,0.0352 -4.34764,-0.84765 -1.28907,-0.85547 -2.16797,-2.16407 -2.47266,-3.67969 -0.30469,-1.51563 -0.004,-3.0625 0.85156,-4.35156 1.76563,-2.66016 5.36719,-3.38672 8.02735,-1.6211 2.66015,1.76953 3.38672,5.3711 1.62109,8.03125 -0.88281,1.32813 -2.22266,2.17578 -3.6797,2.46875 z m -5.78125,-8.75 0.19141,0.125 c -0.78906,1.1875 -1.06641,2.60938 -0.78516,4.00781 0.28125,1.39454 1.08986,2.60157 2.27736,3.39063 2.45312,1.62891 5.76953,0.95703 7.39843,-1.49609 1.6289,-2.44922 0.95704,-5.76953 -1.49218,-7.39453 -2.45313,-1.62891 -5.76953,-0.96094 -7.39844,1.49218 z m 0,0"
     id="path319" />
  <path
     d="m 212.07812,124.05469 c -2.55859,-1.69922 -6.01172,-1.00391 -7.71094,1.55859 -1.69922,2.55859 -1.00389,6.01172 1.55469,7.71094 2.5625,1.69922 6.01563,1.0039 7.71484,-1.5586 1.69922,-2.55859 1.00391,-6.01172 -1.55859,-7.71093 z m 0,0"
     fill="#8b8b8b"
     id="path321" />
  <path
     d="m 211.99609,123.99609 c -2.26172,-1.5 -5.3125,-0.88281 -6.81641,1.37891 -1.50389,2.26172 -0.88672,5.3125 1.375,6.8164 2.26563,1.50391 5.31641,0.88672 6.81641,-1.375 1.5039,-2.26171 0.88672,-5.3164 -1.375,-6.82031 z m 0,0"
     fill="#e9e9e9"
     id="path323" />
  <path
     d="m 211.37109,128.2539 c -1.1836,0.17969 -2.51563,-0.49609 -3.15625,-1.5039 -0.65625,-1.03906 -0.5,-2.29688 0.51953,-2.8711 1.23438,-0.6875 3.15625,-0.10546 3.99609,1.39063 0.80469,1.44141 0.0586,2.77344 -1.35937,2.98437 z m 0,0"
     fill="#ffffff"
     id="path325" />
  <path
     d="m 210.16406,134.35156 c -1.45313,0.29297 -3.01953,0.0312 -4.34766,-0.85156 -1.29297,-0.85547 -2.16797,-2.16016 -2.47656,-3.67578 -0.30469,-1.51563 -0.004,-3.0625 0.85156,-4.35157 1.76953,-2.66015 5.3711,-3.38671 8.03125,-1.62109 2.66016,1.76953 3.38672,5.36719 1.61719,8.02734 -0.88281,1.33204 -2.22266,2.17969 -3.67578,2.47266 z m -5.78125,-8.75391 0.1875,0.125 c -0.78907,1.19141 -1.06641,2.61329 -0.78516,4.01172 0.28516,1.39453 1.09375,2.60157 2.28125,3.38672 2.44922,1.62891 5.76953,0.96094 7.39844,-1.49219 1.625,-2.44921 0.95703,-5.76953 -1.4961,-7.39843 -2.44921,-1.62891 -5.76953,-0.95703 -7.39843,1.49218 z m 0,0"
     id="path327" />
  <path
     d="m 206.77734,59.597656 c -4.63281,-0.152344 -8.51563,3.476563 -8.66797,8.109375 -0.15625,4.632813 3.47656,8.511719 8.10938,8.667969 4.63282,0.15625 8.51171,-3.472656 8.66796,-8.109375 0.15625,-4.632813 -3.47656,-8.511719 -8.10937,-8.667969 z m 0,0"
     fill="#96191c"
     id="path329" />
  <path
     d="m 210.36328,60.542969 c -3.58985,-1.976563 -8.10157,-0.667969 -10.07813,2.917968 -1.97656,3.589844 -0.66797,8.101563 2.91797,10.078125 3.58984,1.976563 8.10156,0.667969 10.07813,-2.917968 1.97657,-3.589844 0.66796,-8.101563 -2.91797,-10.078125 z m 0,0"
     fill="#de1f26"
     id="path331" />
  <path
     d="m 209.90625,66.871094 c -1.73438,0.5 -3.85938,-0.246094 -5.01563,-1.628907 -1.19141,-1.421875 -1.20312,-3.335937 0.20703,-4.390625 1.71094,-1.28125 4.69531,-0.789062 6.2461,1.285157 1.49218,1.996093 0.64062,4.136718 -1.4375,4.734375 z m 0,0"
     fill="#f27275"
     id="path333" />
  <path
     d="m 208.91406,76.3125 c -0.85547,0.246094 -1.76172,0.367187 -2.69922,0.335937 -4.78516,-0.160156 -8.55078,-4.183593 -8.39063,-8.96875 0.16016,-4.785156 4.18361,-8.550781 8.96875,-8.390625 4.78516,0.160157 8.55079,4.183594 8.39063,8.96875 -0.12891,3.851563 -2.75781,7.035157 -6.26953,8.054688 z m -10.51172,-8.613281 c -0.14844,4.464843 3.36719,8.21875 7.83203,8.371093 0.875,0.02734 1.71875,-0.08203 2.51953,-0.316406 3.27735,-0.949219 5.73047,-3.921875 5.84766,-7.515625 0.15234,-4.464844 -3.36328,-8.21875 -7.82813,-8.367187 -4.46484,-0.148438 -8.21875,3.363281 -8.37109,7.828125 z m 0,0"
     id="path335" />
  <path
     d="m 219.0039,59.1875 c -2.6914,-1.484375 -6.07422,-0.503906 -7.55469,2.1875 -1.48437,2.691406 -0.50389,6.078125 2.1875,7.558594 2.69141,1.480468 6.07422,0.5 7.55861,-2.1875 1.48047,-2.691407 0.5,-6.078125 -2.19142,-7.558594 z m 0,0"
     fill="#8b8b8b"
     id="path337" />
  <path
     d="m 218.91796,59.136719 c -2.37889,-1.308594 -5.37109,-0.441407 -6.67967,1.933593 -1.3125,2.382813 -0.44533,5.371094 1.93359,6.679688 2.37891,1.3125 5.37109,0.445312 6.67969,-1.933594 1.30859,-2.378906 0.44531,-5.367187 -1.93361,-6.679687 z m 0,0"
     fill="#e9e9e9"
     id="path339" />
  <path
     d="m 218.64453,63.429687 c -1.16407,0.277344 -2.54688,-0.285156 -3.26953,-1.238281 -0.74218,-0.984375 -0.6875,-2.246094 0.28125,-2.902344 1.17187,-0.792968 3.13282,-0.371093 4.09375,1.054688 0.92187,1.367187 0.28907,2.757812 -1.10547,3.085937 z m 0,0"
     fill="#ffffff"
     id="path341" />
  <path
     d="m 217.94531,69.605469 c -1.42578,0.410156 -3.00782,0.28125 -4.40625,-0.488282 -1.35547,-0.746093 -2.33594,-1.976562 -2.76953,-3.460937 -0.42969,-1.484375 -0.25391,-3.050781 0.49218,-4.40625 1.53907,-2.796875 5.06641,-3.820313 7.86719,-2.277344 2.79688,1.539063 3.82031,5.070313 2.27734,7.867188 -0.76953,1.398437 -2.03906,2.355468 -3.46093,2.765625 z m -6.48438,-8.246094 0.19922,0.109375 c -0.6875,1.25 -0.84765,2.691406 -0.45312,4.0625 0.39843,1.367187 1.30468,2.5 2.55078,3.1875 2.57812,1.421875 5.83203,0.480469 7.25,-2.097656 1.42187,-2.578125 0.47656,-5.832032 -2.09766,-7.25 -2.57812,-1.417969 -5.83203,-0.476563 -7.25,2.097656 z m 0,0"
     id="path343" />
  <path
     d="m 211.09765,73.089844 c -2.6914,-1.480469 -6.07422,-0.5 -7.55859,2.191406 -1.48047,2.691406 -0.5,6.074219 2.1914,7.554687 2.69141,1.484374 6.07422,0.503907 7.55469,-2.1875 1.48438,-2.691406 0.50391,-6.074218 -2.1875,-7.558593 z m 0,0"
     fill="#8b8b8b"
     id="path345" />
  <path
     d="m 211.01171,73.042969 c -2.37889,-1.3125 -5.37109,-0.445313 -6.68359,1.933593 -1.30859,2.378907 -0.44141,5.371094 1.9375,6.679688 2.37891,1.308594 5.37109,0.445312 6.67969,-1.9375 1.30859,-2.375 0.44531,-5.367188 -1.9336,-6.675781 z m 0,0"
     fill="#e9e9e9"
     id="path347" />
  <path
     d="m 208.69531,77.746094 c -1.16407,0.273437 -2.54688,-0.289063 -3.26563,-1.242188 -0.74609,-0.980469 -0.69139,-2.246094 0.27736,-2.898437 1.17578,-0.796875 3.13281,-0.371094 4.09375,1.050781 0.92578,1.371094 0.29296,2.761719 -1.10548,3.089844 z m 0,0"
     fill="#ffffff"
     id="path349" />
  <path
     d="m 210.03906,83.507812 c -1.42578,0.414063 -3.00782,0.285157 -4.40625,-0.484375 -1.35157,-0.746093 -2.33594,-1.976562 -2.76953,-3.460937 -0.42969,-1.484375 -0.25391,-3.050781 0.49218,-4.40625 1.53907,-2.796875 5.07032,-3.820313 7.86328,-2.277344 2.80079,1.539063 3.82032,5.066406 2.28125,7.863281 -0.76953,1.402344 -2.03515,2.355469 -3.46093,2.765625 z m -6.48438,-8.242187 0.19922,0.109375 c -0.6875,1.25 -0.84765,2.691406 -0.45312,4.058594 0.39843,1.371093 1.30468,2.503906 2.55468,3.191406 2.57422,1.417969 5.82422,0.476562 7.2461,-2.097656 1.42187,-2.582032 0.47656,-5.832032 -2.10157,-7.25 -2.57421,-1.421875 -5.82812,-0.480469 -7.24609,2.097656 z m 0,0"
     id="path351" />
  <path
     d="m 120.6875,58.816406 c -4.55078,-0.890625 -8.95703,2.082031 -9.84374,6.628906 -0.89063,4.550782 2.07812,8.957032 6.6289,9.847657 4.55078,0.886718 8.95703,-2.082032 9.84765,-6.632813 0.88672,-4.550781 -2.08203,-8.957031 -6.63281,-9.84375 z m 0,0"
     fill="#96191c"
     id="path353" />
  <path
     d="m 124.08984,60.328125 c -3.23046,-2.519531 -7.89062,-1.945313 -10.41406,1.285156 -2.51953,3.226563 -1.94532,7.890625 1.28515,10.414063 3.22656,2.519531 7.89063,1.945312 10.41016,-1.285157 2.52344,-3.230468 1.94922,-7.894531 -1.28125,-10.414062 z m 0,0"
     fill="#de1f26"
     id="path355" />
  <path
     d="m 122.61719,66.515625 c -1.79297,0.214844 -3.77344,-0.855469 -4.69531,-2.40625 -0.94922,-1.59375 -0.66016,-3.484375 0.90234,-4.304688 1.89062,-0.992187 4.76172,-0.03125 5.96485,2.261719 1.15625,2.207031 -0.0234,4.1875 -2.17188,4.449219 z m 0,0"
     fill="#f27275"
     id="path357" />
  <path
     d="m 120.14063,75.675781 c -0.88672,0.113281 -1.80079,0.08594 -2.72266,-0.09375 -4.69922,-0.917969 -7.77343,-5.488281 -6.85937,-10.1875 0.91797,-4.699219 5.48828,-7.777344 10.1875,-6.859375 4.69922,0.917969 7.77734,5.488281 6.85937,10.1875 -0.73828,3.777344 -3.83593,6.507813 -7.46484,6.953125 z m -9.01172,-10.171875 c -0.85547,4.386719 2.01562,8.652344 6.40234,9.507813 0.85547,0.167968 1.71485,0.191406 2.53907,0.08984 3.38672,-0.417968 6.27734,-2.964843 6.96484,-6.492187 0.85547,-4.386719 -2.01562,-8.648438 -6.40234,-9.503906 -4.38282,-0.855469 -8.64844,2.015625 -9.50391,6.398437 z m 0,0"
     id="path359" />
  <path
     d="m 132.09375,59.828125 c -2.42188,-1.890625 -5.91796,-1.460938 -7.80859,0.960937 -1.88672,2.421875 -1.45703,5.921875 0.96484,7.8125 2.42188,1.890625 5.91796,1.457032 7.8086,-0.964843 1.89062,-2.421875 1.46094,-5.917969 -0.96485,-7.808594 z m 0,0"
     fill="#8b8b8b"
     id="path361" />
  <path
     d="m 132.01953,59.765625 c -2.14063,-1.671875 -5.23437,-1.292969 -6.90625,0.851562 -1.66797,2.140625 -1.28907,5.230469 0.85156,6.902344 2.14062,1.671875 5.23437,1.289063 6.90234,-0.851562 1.67188,-2.140625 1.29297,-5.234375 -0.84765,-6.902344 z m 0,0"
     fill="#e9e9e9"
     id="path363" />
  <path
     d="m 131.04687,63.96875 c -1.19141,0.08594 -2.46875,-0.6875 -3.02734,-1.742188 -0.57812,-1.085937 -0.32812,-2.328125 0.73437,-2.820312 1.28516,-0.59375 3.15235,0.132812 3.875,1.691406 0.69531,1.496094 -0.14844,2.769531 -1.58203,2.871094 z m 0,0"
     fill="#ffffff"
     id="path365" />
  <path
     d="m 129.3789,69.953125 c -1.47265,0.183594 -3.01562,-0.195313 -4.27343,-1.179688 -1.21875,-0.949218 -1.99609,-2.320312 -2.18359,-3.855468 -0.19141,-1.535157 0.23046,-3.050782 1.18359,-4.269532 1.96485,-2.519531 5.60937,-2.96875 8.12499,-1.003906 2.51954,1.964844 2.96875,5.609375 1.00391,8.128906 -0.98047,1.257813 -2.38281,2 -3.85547,2.179688 z m -5.09374,-9.167969 0.17578,0.140625 c -0.875,1.125 -1.26172,2.523438 -1.08985,3.9375 0.17579,1.414063 0.89063,2.675781 2.01563,3.554688 2.31641,1.808593 5.67968,1.394531 7.48828,-0.925782 1.8125,-2.320312 1.39454,-5.675781 -0.92188,-7.488281 -2.32031,-1.8125 -5.67968,-1.398437 -7.49218,0.921875 z m 0,0"
     id="path367" />
  <path
     d="m 121.5625,71.691406 c -2.42578,-1.890625 -5.92187,-1.460937 -7.8125,0.960938 -1.89062,2.421875 -1.45703,5.917968 0.96485,7.808593 2.42187,1.890625 5.91797,1.460938 7.80859,-0.960937 1.89063,-2.421875 1.46094,-5.917969 -0.96094,-7.808594 z m 0,0"
     fill="#8b8b8b"
     id="path369" />
  <path
     d="m 121.48047,71.625 c -2.14063,-1.667969 -5.23047,-1.289063 -6.89843,0.851562 -1.67188,2.144532 -1.29297,5.234375 0.84765,6.902344 2.14062,1.671875 5.23047,1.289063 6.90625,-0.847656 1.66797,-2.144531 1.28906,-5.234375 -0.85547,-6.90625 z m 0,0"
     fill="#e9e9e9"
     id="path371" />
  <path
     d="m 119.69531,77.058594 c -1.1914,0.08594 -2.46875,-0.6875 -3.02735,-1.746094 -0.57812,-1.082031 -0.32812,-2.328125 0.73438,-2.820313 1.28515,-0.59375 3.15234,0.132813 3.875,1.691407 0.69531,1.5 -0.14844,2.769531 -1.58203,2.875 z m 0,0"
     fill="#ffffff"
     id="path373" />
  <path
     d="M 118.84375,81.816406 C 117.3711,82 115.83204,81.621094 114.57032,80.636719 c -1.21875,-0.953125 -1.9961,-2.320313 -2.1836,-3.855469 -0.1875,-1.535156 0.23047,-3.050781 1.1836,-4.273438 1.96484,-2.515625 5.60937,-2.964843 8.1289,-1 2.51562,1.964844 2.96485,5.609375 1,8.125 -0.98438,1.261719 -2.38672,2.003907 -3.85547,2.183594 z m -5.09375,-9.167969 0.17579,0.140625 c -0.875,1.125 -1.26172,2.519532 -1.08985,3.933594 0.17578,1.414063 0.89062,2.679688 2.01562,3.554688 2.32032,1.8125 5.67968,1.394531 7.48828,-0.921875 1.8125,-2.320313 1.39844,-5.679688 -0.92187,-7.492188 -2.32031,-1.808594 -5.67968,-1.394531 -7.49218,0.925781 z m 0,0"
     id="path375" />
  <path
     d="m 170.23046,29.929687 c -2,-4.179687 -7.01562,-5.945312 -11.19531,-3.941406 -4.17969,2.003906 -5.94531,7.015625 -3.9414,11.195313 2,4.179687 7.01562,5.945312 11.19532,3.941406 4.17968,-2 5.94531,-7.015625 3.94139,-11.195313 z m 0,0"
     fill="#96191c"
     id="path377" />
  <path
     d="m 162.66796,25.179687 c -4.09764,-0.09375 -7.49609,3.148438 -7.58984,7.242188 -0.0937,4.097656 3.14844,7.496094 7.24609,7.589844 4.09375,0.09766 7.49219,-3.148438 7.58594,-7.242188 0.0977,-4.097656 -3.14844,-7.496094 -7.24219,-7.589844 z m 0,0"
     fill="#de1f26"
     id="path379" />
  <path
     d="m 165.17968,31.011719 c -1.30859,1.242187 -3.53514,1.566406 -5.19922,0.871093 -1.71484,-0.710937 -2.61328,-2.402343 -1.84765,-3.988281 0.92968,-1.925781 3.80468,-2.871094 6.13672,-1.746094 2.24609,1.082032 2.48046,3.371094 0.91015,4.863282 z m 0,0"
     fill="#f27275"
     id="path381" />
  <path
     d="m 168.66406,39.84375 c -0.64453,0.613281 -1.39453,1.140625 -2.24219,1.542969 -4.31641,2.070312 -9.51562,0.242187 -11.58203,-4.078125 -2.07031,-4.316407 -0.23828,-9.515625 4.07812,-11.582032 4.31641,-2.070312 9.51563,-0.238281 11.58204,4.078125 1.66407,3.472657 0.80468,7.515625 -1.83594,10.039063 z m -13.30078,-2.785156 c 1.92968,4.03125 6.78125,5.738281 10.80859,3.804687 0.78906,-0.375 1.48828,-0.867187 2.08984,-1.441406 2.46875,-2.355469 3.26954,-6.125 1.71875,-9.367188 -1.93359,-4.027343 -6.78125,-5.734375 -10.8125,-3.804687 -4.03125,1.929687 -5.73828,6.777344 -3.80468,10.808594 z m 0,0"
     id="path383" />
  <path
     d="m 168.07031,18.757812 c -3.07032,-0.07031 -5.61719,2.363282 -5.69141,5.433594 -0.0703,3.070313 2.36328,5.621094 5.4336,5.691406 3.07421,0.07031 5.6211,-2.359375 5.6914,-5.433593 0.0742,-3.070313 -2.35937,-5.621094 -5.43359,-5.691407 z m 0,0"
     fill="#8b8b8b"
     id="path385" />
  <path
     d="m 167.97265,18.753906 c -2.71484,-0.0625 -4.96875,2.085938 -5.03125,4.804688 -0.0625,2.714843 2.08594,4.964843 4.80078,5.027343 2.71486,0.06641 4.96875,-2.085937 5.03125,-4.800781 0.0625,-2.714844 -2.08593,-4.964844 -4.80078,-5.03125 z m 0,0"
     fill="#e9e9e9"
     id="path387" />
  <path
     d="m 169.70703,22.699219 c -0.90625,0.78125 -2.39063,0.921875 -3.47266,0.40625 -1.10937,-0.523438 -1.64844,-1.671875 -1.09375,-2.699219 0.67578,-1.246094 2.60938,-1.777344 4.12109,-0.957031 1.44922,0.785156 1.53125,2.3125 0.44532,3.25 z m 0,0"
     fill="#ffffff"
     id="path389" />
  <path
     d="m 171.9375,28.496094 c -1.07032,1.023437 -2.53515,1.640625 -4.13282,1.601562 -1.54297,-0.03125 -2.98437,-0.671875 -4.05078,-1.789062 -1.07031,-1.117188 -1.63672,-2.585938 -1.60156,-4.132813 0.0742,-3.191406 2.73047,-5.730469 5.92187,-5.65625 3.19533,0.07422 5.73047,2.734375 5.65625,5.925781 -0.0352,1.59375 -0.71875,3.027344 -1.79296,4.050782 z m -9.5586,-4.316407 0.22656,0.0039 c -0.0312,1.425781 0.49219,2.78125 1.47658,3.8125 0.98437,1.03125 2.3125,1.617187 3.73437,1.648437 2.94141,0.06641 5.39063,-2.269531 5.46094,-5.210937 0.0664,-2.941407 -2.26953,-5.390625 -5.21094,-5.460938 -2.94531,-0.06641 -5.39453,2.273438 -5.46094,5.210938 z m 0,0"
     id="path391" />
  <path
     d="m 170.75,35.152344 c -3.07032,-0.07031 -5.6211,2.359375 -5.6875,5.433593 -0.0742,3.074219 2.35937,5.621094 5.42968,5.691407 3.07032,0.07031 5.62111,-2.363282 5.69532,-5.433594 0.0664,-3.070313 -2.36329,-5.621094 -5.4375,-5.691406 z m 0,0"
     fill="#8b8b8b"
     id="path393" />
  <path
     d="m 170.65234,35.148437 c -2.71485,-0.0625 -4.96875,2.085938 -5.03125,4.800782 -0.0625,2.714843 2.08594,4.96875 4.80078,5.03125 2.71484,0.0625 4.96875,-2.085938 5.03125,-4.800782 0.0625,-2.714843 -2.08594,-4.96875 -4.80078,-5.03125 z m 0,0"
     fill="#e9e9e9"
     id="path395" />
  <path
     d="m 170.76562,40.398437 c -0.90625,0.78125 -2.39062,0.921875 -3.47266,0.410157 -1.11328,-0.527344 -1.65234,-1.675782 -1.09375,-2.703125 0.67579,-1.246094 2.60938,-1.777344 4.12111,-0.957032 1.44922,0.785157 1.53125,2.3125 0.4453,3.25 z m 0,0"
     fill="#ffffff"
     id="path397" />
  <path
     d="m 174.61718,44.890625 c -1.07031,1.023437 -2.53514,1.640625 -4.12889,1.601562 -1.54688,-0.03516 -2.98829,-0.671875 -4.05469,-1.789062 -1.07031,-1.121094 -1.63672,-2.585938 -1.60156,-4.132813 0.0742,-3.191406 2.73046,-5.730468 5.92187,-5.65625 3.19531,0.07422 5.73047,2.730469 5.65625,5.921875 -0.0391,1.597657 -0.71875,3.03125 -1.79298,4.054688 z m -9.55859,-4.316406 0.22656,0.0039 c -0.0312,1.425781 0.49219,2.78125 1.47656,3.8125 0.98438,1.03125 2.3125,1.613281 3.73438,1.648437 2.94531,0.07031 5.39062,-2.269531 5.46094,-5.210937 0.0703,-2.941406 -2.26954,-5.390625 -5.21094,-5.460938 -2.94141,-0.06641 -5.39063,2.269532 -5.46094,5.210938 z m 0,0"
     id="path399" />
  <path
     d="M 84.757815,30.007812 C 82.753906,25.828125 77.742188,24.0625 73.5625,26.066406 c -4.179687,2.003906 -5.945312,7.015625 -3.941406,11.195313 2,4.179687 7.015625,5.945312 11.195312,3.945312 4.179689,-2.003906 5.945309,-7.019531 3.941409,-11.199219 z m 0,0"
     fill="#96191c"
     id="path401" />
  <path
     d="m 77.1875,25.253906 c -4.09375,-0.09766 -7.492187,3.148438 -7.585937,7.246094 -0.09766,4.09375 3.148437,7.492187 7.242187,7.585937 4.097656,0.09375 7.492185,-3.148437 7.589845,-7.246093 0.0977,-4.09375 -3.148439,-7.492188 -7.246095,-7.585938 z m 0,0"
     fill="#de1f26"
     id="path403" />
  <path
     d="M 79.703125,31.089844 C 78.394531,32.335937 76.167969,32.65625 74.503906,31.960937 72.789063,31.25 71.894531,29.558594 72.65625,27.972656 c 0.929688,-1.925781 3.804688,-2.871094 6.136719,-1.746094 2.242187,1.082032 2.480469,3.371094 0.910156,4.863282 z m 0,0"
     fill="#f27275"
     id="path405" />
  <path
     d="M 83.1875,39.921875 C 82.542969,40.539062 81.792969,41.0625 80.945313,41.464844 76.628906,43.535156 71.429688,41.707031 69.363281,37.390625 67.292969,33.070312 69.125,27.875 73.441406,25.804687 c 4.320313,-2.070312 9.515625,-0.238281 11.585939,4.078125 1.66016,3.472657 0.80469,7.515625 -1.839845,10.039063 z M 69.882813,37.136719 c 1.933593,4.03125 6.78125,5.738281 10.8125,3.808593 0.789062,-0.378906 1.488281,-0.867187 2.089843,-1.445312 2.468749,-2.351563 3.269529,-6.125 1.714849,-9.367188 -1.929692,-4.027343 -6.777349,-5.734375 -10.808599,-3.804687 -4.027343,1.929687 -5.734375,6.78125 -3.808593,10.808594 z m 0,0"
     id="path407" />
  <path
     d="m 82.59375,18.832031 c -3.070312,-0.07031 -5.621094,2.363281 -5.691406,5.433594 -0.07031,3.070312 2.359375,5.621094 5.433594,5.691406 3.070317,0.07031 5.621097,-2.363281 5.691407,-5.433594 0.0703,-3.070312 -2.36328,-5.621093 -5.433595,-5.691406 z m 0,0"
     fill="#8b8b8b"
     id="path409" />
  <path
     d="m 82.492188,18.828125 c -2.710938,-0.0625 -4.964844,2.085937 -5.027344,4.800781 -0.0625,2.714844 2.085937,4.96875 4.800781,5.03125 2.71484,0.0625 4.96875,-2.085937 5.03125,-4.800781 0.0625,-2.714844 -2.08984,-4.96875 -4.804687,-5.03125 z m 0,0"
     fill="#e9e9e9"
     id="path411" />
  <path
     d="m 84.230469,22.777344 c -0.90625,0.78125 -2.390625,0.921875 -3.472656,0.410156 -1.109375,-0.527344 -1.648438,-1.675781 -1.089844,-2.703125 0.671875,-1.246094 2.609375,-1.777344 4.117187,-0.957031 1.453129,0.789062 1.531249,2.3125 0.445313,3.25 z m 0,0"
     fill="#ffffff"
     id="path413" />
  <path
     d="m 86.460935,28.574219 c -1.07031,1.027343 -2.535154,1.640625 -4.128904,1.601562 -1.546875,-0.03516 -2.988281,-0.671875 -4.054687,-1.789062 -1.070313,-1.117188 -1.636719,-2.585938 -1.601563,-4.132813 0.07422,-3.191406 2.730469,-5.730469 5.921875,-5.65625 3.195309,0.07422 5.730469,2.734375 5.656249,5.925781 -0.0352,1.597657 -0.71875,3.027344 -1.79297,4.050782 z m -9.558591,-4.316407 0.226562,0.0078 c -0.03125,1.425781 0.492188,2.777344 1.476563,3.808594 0.984375,1.03125 2.308594,1.617187 3.734375,1.648437 2.941411,0.07031 5.394531,-2.269531 5.460941,-5.210937 0.0664,-2.941407 -2.26953,-5.390625 -5.210941,-5.457032 -2.941406,-0.07031 -5.390625,2.269532 -5.460938,5.210938 z m 0,0"
     id="path415" />
  <path
     d="m 85.273435,35.226562 c -3.074216,-0.07031 -5.621091,2.359375 -5.691404,5.433594 -0.07031,3.070313 2.359375,5.617188 5.433594,5.691406 3.07031,0.07031 5.61719,-2.363281 5.69141,-5.433593 0.0703,-3.074219 -2.36328,-5.621094 -5.4336,-5.691407 z m 0,0"
     fill="#8b8b8b"
     id="path417" />
  <path
     d="m 85.171875,35.222656 c -2.714844,-0.0625 -4.964844,2.085938 -5.027344,4.800781 -0.06641,2.714844 2.085938,4.96875 4.800784,5.03125 2.71484,0.0625 4.96484,-2.085937 5.03125,-4.804687 0.0625,-2.710938 -2.08985,-4.964844 -4.80469,-5.027344 z m 0,0"
     fill="#e9e9e9"
     id="path419" />
  <path
     d="m 85.289065,40.476562 c -0.90625,0.78125 -2.390627,0.921875 -3.472659,0.410157 -1.109375,-0.527344 -1.652343,-1.675782 -1.09375,-2.703125 0.675782,-1.246094 2.609375,-1.777344 4.121099,-0.957032 1.44921,0.789063 1.53125,2.3125 0.44531,3.25 z m 0,0"
     fill="#ffffff"
     id="path421" />
  <path
     d="m 89.140625,44.96875 c -1.07031,1.023437 -2.53125,1.640625 -4.12891,1.605469 -1.546871,-0.03906 -2.988277,-0.671875 -4.054684,-1.792969 -1.070312,-1.117188 -1.636718,-2.585938 -1.601562,-4.132813 0.07422,-3.191406 2.730469,-5.730468 5.925786,-5.65625 3.1914,0.07422 5.72656,2.730469 5.65234,5.925782 -0.0352,1.59375 -0.71875,3.027343 -1.79297,4.050781 z m -9.558594,-4.316406 0.226563,0.0078 c -0.03125,1.425781 0.492187,2.777344 1.476562,3.808594 0.984375,1.03125 2.308594,1.617187 3.734379,1.648437 2.9414,0.07031 5.39453,-2.269531 5.46093,-5.210937 0.0664,-2.941406 -2.26953,-5.390625 -5.21093,-5.460938 -2.945316,-0.06641 -5.390629,2.269532 -5.460941,5.214844 z m 0,0"
     id="path423" />
</svg>
