<?xml version="1.0" encoding="UTF-8" standalone="no"?>
<svg
   width="719.70764pt"
   height="719.72699pt"
   viewBox="0 0 719.70762 719.72697"
   version="1.1"
   id="svg21"
   sodipodi:docname="acid_red.svg"
   inkscape:version="1.3 (0e150ed, 2023-07-21)"
   xmlns:inkscape="http://www.inkscape.org/namespaces/inkscape"
   xmlns:sodipodi="http://sodipodi.sourceforge.net/DTD/sodipodi-0.dtd"
   xmlns="http://www.w3.org/2000/svg"
   xmlns:svg="http://www.w3.org/2000/svg">
  <defs
     id="defs21" />
  <sodipodi:namedview
     id="namedview21"
     pagecolor="#ffffff"
     bordercolor="#000000"
     borderopacity="0.25"
     inkscape:showpageshadow="2"
     inkscape:pageopacity="0.0"
     inkscape:pagecheckerboard="0"
     inkscape:deskcolor="#d1d1d1"
     inkscape:document-units="pt"
     inkscape:zoom="0.34779532"
     inkscape:cx="480.16747"
     inkscape:cy="478.72984"
     inkscape:window-width="1920"
     inkscape:window-height="1052"
     inkscape:window-x="0"
     inkscape:window-y="28"
     inkscape:window-maximized="0"
     inkscape:current-layer="svg21" />
  <path
     fill-rule="nonzero"
     fill="#100e0c"
     fill-opacity="1"
     d="m 225.6444,376.41559 c -11.12036,0 -17.89588,-3.84765 -21.10272,-10.13151 l -79.98317,0.003 0.003,36.55687 199.30744,-0.003 -0.003,-36.55687 h -72.46187 c -4.92765,6.31977 -14.53436,10.13151 -25.75968,10.13151"
     id="path1" />
  <path
     fill-rule="nonzero"
     fill="#100e0c"
     fill-opacity="1"
     d="m 244.04851,362.88389 c 3.2538,0 7.91352,-1.57718 11.66726,-9.0819 0.85627,-1.71253 1.03304,-3.89461 1.21811,-6.201 0.0967,-1.20705 0.2624,-3.13502 0.53861,-3.86975 0.36184,-0.24583 1.19048,-0.61596 1.77882,-0.86731 2.21247,-0.96951 5.23701,-2.29257 6.828,-5.47455 0.88941,-1.77882 1.14905,-3.53554 1.15181,-5.21768 -0.003,-1.25677 -0.14916,-2.46935 -0.2845,-3.61563 -0.14639,-1.20706 -0.2845,-2.36716 -0.28726,-3.57421 0,-0.40879 0.0166,-0.82312 0.0552,-1.24296 0.1823,-2.09922 3.86699,-6.65122 7.1926,-9.58461 l -5.06852,-5.7701 c -1.53851,1.35068 -9.23106,8.40794 -9.7752,14.68627 -0.21821,2.47211 0.0359,4.56029 0.25688,6.39987 0.26517,2.19314 0.38946,3.48306 -0.11048,4.48571 -0.34803,0.69606 -1.77606,1.31754 -3.03559,1.86997 -1.95836,0.8535 -4.17359,1.82577 -5.39998,4.06862 -1.08275,1.98874 -1.29268,4.57962 -1.49431,7.08488 -0.0939,1.15457 -0.23202,2.90024 -0.44747,3.41953 -0.65739,1.30925 -1.35621,2.36715 -2.05779,3.16264 -0.48337,1.32306 -1.30925,3.21513 -2.72623,5.2453 v 4.07691"
     id="path2" />
  <path
     fill-rule="nonzero"
     fill="#100e0c"
     fill-opacity="1"
     d="m 234.04958,358.09987 4.38903,6.30043 c 2.51355,-1.75119 4.30894,-3.72888 5.6099,-5.59332 1.41698,-2.03017 2.24286,-3.92224 2.72623,-5.2453 0.1823,-0.49718 0.32317,-0.91979 0.42261,-1.22915 0.69053,-2.14894 0.17954,-4.18464 -0.27069,-5.98279 -0.47233,-1.87549 -0.73473,-3.08806 -0.22097,-4.23159 0.59938,-1.33963 1.61861,-2.13789 2.903,-3.15159 1.46946,-1.15458 3.30075,-2.59365 4.44428,-5.00223 1.41421,-2.98311 0.58833,-6.26729 -0.21269,-9.44375 -0.56347,-2.2318 -1.14628,-4.53818 -0.8314,-6.30043 l -7.56273,-1.3424 c -0.14639,0.82036 -0.20992,1.63519 -0.20992,2.43621 0,2.50802 0.60767,4.90555 1.15734,7.08488 0.31212,1.23467 0.75682,3.0052 0.75682,3.90566 0,0.1602 -0.0138,0.29002 -0.047,0.38946 -0.3425,0.72368 -1.03856,1.29268 -2.24009,2.23457 -1.68766,1.32858 -3.79241,2.98034 -5.16519,6.04355 -0.70711,1.57442 -0.94741,3.1074 -0.95018,4.51333 0.003,1.83682 0.41156,3.472 0.72645,4.73706 0.15191,0.59939 0.37565,1.48603 0.37841,1.84235 -0.79274,2.42239 -2.17104,5.50217 -5.80325,8.03505"
     id="path3" />
  <path
     fill-rule="nonzero"
     fill="#100e0c"
     fill-opacity="1"
     d="m 200.33219,342.36398 c 0.51099,0.94741 0.83692,1.84235 1.06066,2.6848 0.76511,0.4889 1.87825,1.21534 2.09922,1.58547 0.34251,0.90045 0.0166,3.43057 -0.19611,5.10718 -0.0718,0.55243 -0.13811,1.08276 -0.19611,1.6048 1.82853,1.82854 4.70944,3.9471 6.26452,4.72326 l -2.89472,5.78943 c 1.43079,2.04398 3.09912,4.07692 4.61553,5.74248 l 5.68448,-5.16519 c -3.27589,-3.60182 -5.56847,-7.09869 -6.12089,-8.63996 -0.008,-0.0691 -0.0138,-0.14087 -0.0138,-0.24031 0.003,-0.67119 0.16296,-1.9473 0.27621,-2.83947 0.19611,-1.50537 0.40051,-3.11845 0.40051,-4.70944 -0.003,-1.43908 -0.17125,-2.86158 -0.67673,-4.17359 -1.0137,-2.64336 -3.37533,-4.14873 -5.27015,-5.35854 -1.11867,-0.7154 -2.65441,-1.69319 -2.73175,-2.31191 -0.0193,-0.15744 -0.0276,-0.30936 -0.0276,-0.46404 -0.003,-0.77064 0.2403,-1.56061 0.6712,-2.89748 0.63252,-1.94731 1.46393,-4.5299 1.46393,-8.29193 0,-0.50824 -0.0166,-1.03857 -0.047,-1.58823 l -7.66769,0.45851 c 0.19335,3.19856 -0.41708,5.07405 -1.0579,7.06278 -0.60215,1.87273 -1.28992,3.99681 -0.9557,6.67332 0.0166,0.13259 0.0414,0.25136 0.0663,0.37565 1.78434,0.94466 3.85871,2.29534 5.25358,4.87241"
     id="path4" />
  <path
     fill-rule="nonzero"
     fill="#100e0c"
     fill-opacity="1"
     d="m 184.13502,326.44856 c 0.12706,1.49707 -0.10772,2.56602 -0.38117,3.8007 -0.46404,2.10474 -1.04685,4.72601 0.68777,8.19525 1.5468,3.09359 4.2095,4.41389 6.15128,5.3834 1.57165,0.77616 2.48316,1.2623 2.98863,2.19314 0.627,1.15733 0.55242,1.96112 0.43365,3.2897 -0.14363,1.61862 -0.3425,3.8449 1.07447,6.24519 2.30086,3.91947 8.29193,8.10963 10.84139,9.38298 l 0.53861,-1.08 2.89472,-5.78943 c -1.55508,-0.77616 -4.43599,-2.89472 -6.26452,-4.72326 -0.61043,-0.61595 -1.10486,-1.19324 -1.39212,-1.67937 -0.13811,-0.23755 -0.14363,-0.51929 -0.0414,-1.67662 0.11325,-1.2402 0.24859,-2.93891 -0.27345,-4.94146 -0.22373,-0.84245 -0.54967,-1.73739 -1.06066,-2.6848 -1.39488,-2.57707 -3.46924,-3.92775 -5.25358,-4.87241 -0.37013,-0.19334 -0.73197,-0.37841 -1.06895,-0.54414 -1.63518,-0.81206 -2.33677,-1.21534 -2.69861,-1.93625 -0.49994,-1.00266 -0.43641,-1.39764 -0.058,-3.10188 0.32317,-1.45565 0.76512,-3.44991 0.53586,-6.12089 -0.43642,-5.06576 -4.36418,-9.31393 -7.5213,-12.72516 l -2.32571,-2.61298 -5.94688,4.86412 2.63507,2.96101 c 2.35887,2.55221 5.29502,5.7259 5.50494,8.17316"
     id="path5" />
  <path
     fill-rule="nonzero"
     fill="#100e0c"
     fill-opacity="1"
     d="m 218.13139,331.65794 c 0,5.8944 1.4225,13.82449 8.33889,13.82449 6.91086,0 8.74216,-8.94655 8.7394,-12.60638 0.003,-3.22894 -4.90556,-16.9098 -6.05737,-29.3035 -1.52746,-0.0249 -2.80633,-0.45852 -3.87527,-1.15734 -1.06895,13.90183 -7.14565,23.86209 -7.14565,29.24273"
     id="path6" />
  <path
     fill-rule="nonzero"
     fill="#100e0c"
     fill-opacity="1"
     d="m 331.69108,248.22211 c -10.242,0.64081 -99.67996,9.28077 -99.67996,9.28077 l -1.92244,-12.63953 c 0,0 88.4795,-15.36024 98.8817,-17.12248 10.39944,-1.75948 17.75777,2.40029 17.76053,8.96037 0,6.56283 -4.80059,10.88281 -15.03983,11.52087 z m -5.2011,-28.32018 c -15.11717,2.40029 -84.05455,14.80228 -90.71959,16.08115 -9.80558,1.87825 -12.07606,-7.03792 -16.56177,-9.12057 0,0 6.61532,38.83287 6.99649,41.71654 1.38107,10.37458 -5.71485,15.72484 -5.71762,23.48368 0.003,2.80909 1.22363,8.03505 4.78955,10.35248 1.06894,0.69882 2.34781,1.13248 3.87527,1.15734 0.047,0.003 0.0884,0.0111 0.13811,0.0111 6.72028,-0.003 8.15935,-6.72304 8.15935,-11.83852 0,-7.92733 -3.84213,-12.48209 -3.83937,-14.40178 -0.003,-1.91968 1.59652,-4.15977 7.67874,-5.121 6.07946,-0.95846 82.08239,-14.16147 94.08111,-16.07839 12.00148,-1.91968 20.87898,-11.76394 18.9593,-21.84297 -1.91969,-10.07903 -12.7224,-16.79931 -27.83957,-14.39901"
     id="path7" />
  <path
     fill-rule="nonzero"
     fill="#100e0c"
     fill-opacity="1"
     d="m 491.14919,298.52612 c -2.06884,10.68118 -6.51864,20.92595 -6.51864,23.7378 -0.003,3.65983 1.08828,12.80526 8.0019,12.8025 6.91087,0 9.07638,-8.1262 9.07638,-14.0206 0.003,-4.66525 -4.07967,-12.20036 -5.78943,-23.09146 -1.00266,0.44471 -2.14618,0.69882 -3.45267,0.69606 -0.46957,0 -0.90322,-0.047 -1.31754,-0.1243"
     id="path8" />
  <path
     fill-rule="nonzero"
     fill="#100e0c"
     fill-opacity="1"
     d="m 389.1297,224.0617 c 10.40773,1.71253 104.0828,18.08094 104.0828,18.08094 l -1.92244,12.63954 c 0,0 -96.87916,-8.47976 -107.12116,-9.12057 -10.23923,-0.63806 -14.88239,-4.15978 -14.87962,-10.71985 -0.003,-6.56008 8.15935,-12.79974 19.84042,-10.88006 z m -9.02942,29.75649 c 11.99871,1.92245 96.10575,15.93753 102.18797,16.90427 3.46925,0.55243 6.31149,2.84224 6.31149,3.78689 0,0.94465 -3.70679,4.49676 -3.70679,10.72814 0,4.76192 0.74578,12.26388 6.25624,13.28863 0.41432,0.0773 0.84797,0.1243 1.31754,0.1243 1.30649,0.003 2.45001,-0.25135 3.45267,-0.69606 4.1432,-1.82853 5.77838,-6.9882 5.77838,-11.68936 0,-10.96568 -5.70657,-8.81121 -4.32826,-19.18303 0.38117,-2.8892 5.91373,-40.53987 5.91373,-40.53987 -4.48295,2.08541 -5.67343,9.81663 -15.47625,7.94114 -6.67056,-1.27887 -83.78939,-15.51491 -98.90932,-17.91245 -15.12269,-2.4003 -25.35641,5.46351 -27.27885,15.5453 -1.91969,10.07904 6.47997,19.78242 18.48145,21.7021"
     id="path9" />
  <path
     fill-rule="nonzero"
     fill="#100e0c"
     fill-opacity="1"
     d="m 525.07374,310.51379 c 0.0525,1.08 0.0829,1.67386 -0.51652,3.00245 -1.11314,2.47763 -3.06873,5.57675 -6.04079,6.26728 l 1.74843,7.48263 c 3.32561,-0.77892 7.9881,-3.24827 11.29714,-10.59555 1.35621,-3.01902 1.25401,-5.05471 1.17943,-6.5435 -0.0608,-1.2043 -0.0884,-1.70148 0.93636,-3.31181 0.72368,-1.138 0.92808,-1.19324 1.80091,-1.41973 1.96941,-0.51652 4.2316,-1.37002 6.17614,-4.99395 2.22076,-4.13768 1.50537,-7.58206 0.98056,-10.0956 -0.2845,-1.37831 -0.511,-2.46659 -0.33422,-3.59354 0.27345,-1.71529 1.48603,-3.03283 3.78689,-5.4055 1.25401,-1.28716 2.67651,-2.74833 4.11006,-4.5741 l -6.03803,-4.74535 c -1.18496,1.51089 -2.40306,2.75661 -3.57697,3.96919 -2.5605,2.63232 -5.20386,5.35302 -5.86677,9.56252 -0.39775,2.50802 0.0442,4.64038 0.40327,6.34739 0.46404,2.23732 0.63253,3.29522 -0.23202,4.90002 -0.52481,0.98332 -0.53862,0.98609 -1.35621,1.20153 -1.9335,0.50271 -4.17911,1.32859 -6.3391,4.73707 -2.15171,3.38914 -2.22905,5.62647 -2.11856,7.80855"
     id="path10" />
  <path
     fill-rule="nonzero"
     fill="#100e0c"
     fill-opacity="1"
     d="m 511.92597,323.54555 c 3.68193,-3.23998 4.82269,-4.41389 6.49931,-9.80282 1.09104,-3.51067 0.84245,-5.83087 0.64081,-7.69531 -0.1602,-1.4805 -0.27621,-2.54669 0.23479,-4.45532 0.25964,-0.97228 0.34526,-1.01923 1.42526,-1.59652 1.63518,-0.87836 4.37522,-2.34782 5.59056,-7.10974 1.1159,-4.3697 -0.14639,-7.11802 -1.06618,-9.12609 -0.71816,-1.56337 -1.14905,-2.50802 -0.7734,-4.55753 l -7.55997,-1.37278 c -0.80654,4.42494 0.44194,7.14288 1.35345,9.13162 0.71815,1.56889 1.04685,2.28981 0.60491,4.02443 -0.38118,1.49156 -0.64634,1.63519 -1.77882,2.23733 -1.53298,0.82588 -4.09901,2.19866 -5.22044,6.39159 -0.87559,3.2897 -0.63805,5.48836 -0.44746,7.25889 0.17125,1.56337 0.28174,2.59641 -0.33698,4.58514 -1.11314,3.57145 -1.23191,3.67365 -4.23712,6.31425 l -1.78986,1.59099 5.13481,5.70933 1.72633,-1.52746"
     id="path11" />
  <path
     fill-rule="nonzero"
     fill="#100e0c"
     fill-opacity="1"
     d="m 455.07845,298.00408 c 0.86455,3.84766 3.60735,5.54085 5.6099,6.78104 1.82577,1.12419 2.43621,1.59099 2.69308,2.79252 0.39775,1.88378 0.22374,2.41687 -0.0497,3.22065 -0.53862,1.6048 -0.95294,3.28418 -0.1243,6.1789 1.44184,5.05471 2.98311,6.75619 8.10411,11.87719 l 5.42759,-5.43312 c -4.84754,-4.84755 -5.25082,-5.40551 -6.14851,-8.55158 -0.23754,-0.84521 -0.21821,-0.90322 0.0193,-1.6269 0.56624,-1.68214 1.05514,-3.62944 0.2845,-7.26165 -0.96398,-4.51609 -4.09624,-6.44959 -6.16784,-7.73122 -1.57166,-0.96951 -2.01636,-1.3203 -2.15723,-1.93073 -0.27345,-1.22363 0.0249,-2.15171 0.6712,-3.98576 0.78444,-2.21524 1.75948,-4.98014 1.2982,-8.9217 l -7.62902,0.89493 c 0.25688,2.1738 -0.25688,3.62668 -0.9115,5.46903 -0.75407,2.13513 -1.69596,4.79507 -0.9198,8.2284"
     id="path12" />
  <path
     fill-rule="nonzero"
     fill="#100e0c"
     fill-opacity="1"
     d="m 449.89393,295.91867 c -0.003,-1.36726 -0.20993,-2.96654 -0.8535,-4.86412 -1.77882,-5.23149 -3.62945,-7.24785 -5.77011,-9.58185 l -2.1517,-2.43897 -5.9165,4.90003 2.41135,2.73175 c 1.92521,2.10199 2.89748,3.15712 4.15425,6.86115 0.66291,1.95007 0.4668,2.96929 0.16573,4.51333 -0.38117,1.98321 -0.90598,4.69563 0.79549,8.51843 1.8755,4.2233 4.69011,5.2591 6.56008,5.94687 1.23743,0.45299 1.46117,0.53862 1.89482,1.46946 0.74026,1.60204 0.64634,2.06055 0.47233,2.89196 -0.23202,1.09933 -0.61596,2.93615 0.44746,5.35302 1.37002,3.12121 5.23978,10.47678 11.5043,11.39933 l 1.11867,-7.59864 c -1.53575,-0.22649 -3.99405,-3.25379 -5.59333,-6.89152 l -0.0663,-0.17678 0.1022,-0.511 c 0.16296,-0.76511 0.29555,-1.56613 0.29831,-2.48592 0,-1.38659 -0.30936,-3.03835 -1.31754,-5.20662 -1.765,-3.81451 -4.44151,-4.8006 -6.20928,-5.45246 -1.32306,-0.48337 -1.63519,-0.60215 -2.19314,-1.85616 -0.3867,-0.86178 -0.52204,-1.47221 -0.52204,-2.09093 0,-0.54691 0.10496,-1.10486 0.24859,-1.85063 0.19335,-0.98332 0.41985,-2.15447 0.41985,-3.57973"
     id="path13" />
  <path
     fill-rule="nonzero"
     fill="#100e0c"
     fill-opacity="1"
     d="m 500.0847,340.73432 c -7.53235,6.08499 -24.3869,6.56007 -33.32793,-1.56337 l -1.88378,-1.71804 -2.31191,1.07447 c -3.42505,1.58546 -7.99638,1.72081 -11.66726,1.82301 -4.66801,0.1381 -8.35546,0.2403 -10.25029,3.19026 -1.37278,2.13513 -1.24296,5.04919 0.36737,7.99086 0.25688,0.47785 0.56623,0.95846 0.9115,1.43631 h 16.74959 c -6.23137,0 -9.49898,-2.94167 -10.7088,-4.79783 0.97227,-0.0718 2.15171,-0.11325 3.14884,-0.14363 3.68193,-0.10772 8.10687,-0.31212 12.3136,-1.69043 4.57686,3.48858 10.16742,5.48837 15.87123,6.24796 4.13216,-4.85584 11.1176,-6.63742 15.18346,-6.63742 v 5.75077 c 3.18198,-0.83417 6.10432,-2.06055 8.56262,-3.65154 4.07415,1.75948 9.80006,5.23148 13.77478,7.64283 3.45819,2.09922 5.17071,3.12673 6.30871,3.56315 3.48582,1.3424 17.99532,2.53288 26.98883,2.53288 v -7.67874 c -10.15361,0 -22.32082,-1.33963 -24.24326,-2.02464 -0.61043,-0.25136 -3.08255,-1.7512 -5.06852,-2.95825 -5.17072,-3.13779 -12.25284,-7.43567 -17.0921,-9.04876 l -1.9915,-0.66567 -1.63518,1.32582"
     id="path14" />
  <path
     fill-rule="nonzero"
     fill="#100e0c"
     fill-opacity="1"
     d="M 458.67199,352.96782 H 441.9224 l -11.89652,-0.003 c -12.90193,0.003 -14.27472,7.90523 -14.27472,10.67289 0,0.76788 0.0912,1.74843 0.35632,2.79805 l 11.6424,0.003 c -3.42228,-0.003 -4.51057,-1.33964 -4.51057,-2.77595 0,-1.43631 1.31202,-3.01349 6.78657,-3.01349 h 45.98956 c 0.24584,-3.12397 1.35898,-5.65685 2.96101,-7.68426 l -20.30446,0.003"
     id="path15" />
  <path
     fill-rule="nonzero"
     fill="#100e0c"
     fill-opacity="1"
     d="m 483.74942,360.64932 h 1.10486 l 22.95887,-5.35854 -13.09528,-2.32296 h -0.23755 l 0.003,0.66015 c -0.10496,0 -9.6067,0.43642 -10.73366,7.02135"
     id="path16" />
  <path
     fill-rule="nonzero"
     fill="#100e0c"
     fill-opacity="1"
     d="m 411.62453,366.43876 c -7.40528,-0.003 -12.37989,5.81153 -12.37989,11.23637 0,5.17624 4.60172,11.42972 12.75831,11.43248 l 2.38372,-0.003 c 0.55519,-2.95273 2.90024,-7.14841 11.65621,-7.62902 v -0.0497 h -14.03717 c -2.87815,0 -5.01604,-2.8229 -5.07681,-3.76203 0,-0.99989 1.39488,-3.54935 4.69563,-3.54658 h 49.89523 l -0.003,-7.6815 -33.76711,0.003 -11.6424,-0.003 -4.48295,0.003"
     id="path17" />
  <path
     fill-rule="nonzero"
     fill="#100e0c"
     fill-opacity="1"
     d="m 414.38667,389.10485 c -0.11325,0.627 -0.15192,1.196 -0.15468,1.6628 0.003,6.30043 5.54913,11.42696 15.0343,11.42696 h 0.17678 c 1.4446,-4.26198 6.68713,-7.25613 13.67257,-7.63455 v -0.0442 H 429.2663 c -4.7564,0 -7.35281,-2.47487 -7.35281,-3.75098 0,-1.08828 2.93891,-1.65728 5.83639,-1.66004 h 33.76988 v -7.67874 h -33.76988 c -0.59662,0 -1.16286,0.0193 -1.707,0.0497 -8.75597,0.48061 -11.10102,4.67629 -11.65621,7.62902"
     id="path18" />
  <path
     fill-rule="nonzero"
     fill="#100e0c"
     fill-opacity="1"
     d="m 429.44307,402.19461 c -0.25964,0.7734 -0.41156,1.57718 -0.41156,2.42239 -0.003,4.81993 4.31722,10.04036 13.95708,10.84691 6.98268,0.58005 37.10653,1.53022 42.62528,1.53022 4.49675,0 23.3649,-0.60491 33.51575,-3.56868 3.0273,-0.88388 5.55742,-2.06055 7.99915,-3.19855 5.27844,-2.45554 10.73918,-4.99394 22.60532,-4.99394 l 0.003,-7.6815 c -13.56761,0 -20.09454,3.03558 -25.8453,5.71486 -2.28705,1.06066 -4.44704,2.06607 -6.91363,2.78699 -8.52671,2.48869 -25.97513,3.25932 -31.36682,3.25932 -5.09337,0 -35.22551,-0.94189 -41.98722,-1.50536 -4.88622,-0.40604 -6.91087,-2.276 -6.91363,-3.19027 0.17402,-0.4668 2.51907,-2.41963 7.92457,-2.42239 h 30.92487 l -7.39976,-7.6815 -23.52511,0.003 c -0.51376,0 -1.02199,0.0166 -1.51918,0.0442 -6.98544,0.37842 -12.22797,3.37257 -13.67257,7.63455"
     id="path19" />
  <path
     fill-rule="nonzero"
     fill="#100e0c"
     fill-opacity="1"
     d="m 479.29686,352.58389 c -0.10772,0.12429 -0.21545,0.25411 -0.32041,0.38117 -1.60203,2.02741 -2.71517,4.56029 -2.96101,7.68426 -0.0331,0.42537 -0.0552,0.86179 -0.0552,1.31478 0,7.14288 3.75927,19.60288 28.961,22.78486 l 0.96122,-7.61797 c -8.30298,-1.04961 -22.24348,-4.41666 -22.24072,-15.16965 0,-0.46404 0.0387,-0.90046 0.10772,-1.31202 1.12696,-6.58493 10.6287,-7.02135 10.73366,-7.02135 l -0.003,-0.66015 v -7.02135 c -4.06586,0 -11.0513,1.78158 -15.18346,6.63742"
     id="path20" />
  <path
     fill-rule="nonzero"
     fill="#ef2e31"
     fill-opacity="1"
     d="M 662.68611,359.85935 C 637.74955,384.79591 384.78762,637.76336 359.8483,662.70269 334.9145,637.76336 81.955332,384.79315 57.018768,359.85659 81.952569,334.92279 334.91173,81.958099 359.8483,57.021537 384.78486,81.9581 637.74955,334.92279 662.68611,359.85935 Z M 0,359.85935 359.85106,719.72698 719.70764,359.85935 359.8483,0 0,359.85935"
     id="path21" />
</svg>
