<?xml version="1.0" encoding="UTF-8" standalone="no"?>
<svg
   width="719.71pt"
   height="719.72pt"
   viewBox="0 0 719.71 719.72"
   version="1.1"
   id="svg10"
   sodipodi:docname="Aquatic-pollut-red.svg"
   inkscape:version="1.3 (0e150ed, 2023-07-21)"
   xmlns:inkscape="http://www.inkscape.org/namespaces/inkscape"
   xmlns:sodipodi="http://sodipodi.sourceforge.net/DTD/sodipodi-0.dtd"
   xmlns="http://www.w3.org/2000/svg"
   xmlns:svg="http://www.w3.org/2000/svg">
  <sodipodi:namedview
     id="namedview10"
     pagecolor="#ffffff"
     bordercolor="#000000"
     borderopacity="0.25"
     inkscape:showpageshadow="2"
     inkscape:pageopacity="0.0"
     inkscape:pagecheckerboard="0"
     inkscape:deskcolor="#d1d1d1"
     inkscape:document-units="pt"
     inkscape:zoom="0.24592898"
     inkscape:cx="479.81331"
     inkscape:cy="477.78021"
     inkscape:window-width="1920"
     inkscape:window-height="1052"
     inkscape:window-x="0"
     inkscape:window-y="28"
     inkscape:window-maximized="0"
     inkscape:current-layer="svg10" />
  <defs
     id="defs1">
    <clipPath
       id="clip-0">
      <path
         clip-rule="nonzero"
         d="M 0 0 L 719.710938 0 L 719.710938 719.71875 L 0 719.71875 Z M 0 0 "
         id="path1" />
    </clipPath>
  </defs>
  <g
     clip-path="url(#clip-0)"
     id="g2">
    <path
       fill-rule="nonzero"
       fill="rgb(93.605042%, 18.151855%, 19.448853%)"
       fill-opacity="1"
       d="M 662.667969 359.851562 C 637.730469 384.789062 384.769531 637.757812 359.867188 662.695312 C 334.933594 637.757812 81.972656 384.789062 57.039062 359.851562 C 81.972656 334.917969 334.933594 81.953125 359.867188 57.015625 C 384.765625 81.953125 637.730469 334.917969 662.667969 359.851562 Z M 0.0195312 359.851562 L 359.867188 719.71875 L 719.6875 359.851562 L 359.867188 -0.00390625 L 0.0195312 359.851562 "
       id="path2" />
  </g>
  <path
     fill="none"
     stroke-width="50"
     stroke-linecap="butt"
     stroke-linejoin="miter"
     stroke="rgb(6.30188%, 5.761719%, 5.056763%)"
     stroke-opacity="1"
     stroke-miterlimit="4"
     d="M 2160.585938 3601.575 L 4972.304688 3601.575 "
     transform="matrix(0.1, 0, 0, -0.1, 0, 719.72)"
     id="path3" />
  <path
     fill-rule="nonzero"
     fill="rgb(6.30188%, 5.761719%, 5.056763%)"
     fill-opacity="1"
     d="M 253.910156 432.527344 L 288.519531 412.523438 L 290.140625 327.121094 L 247.421875 303.867188 C 247.421875 303.867188 240.933594 299.542969 231.742188 302.246094 C 228.496094 303.328125 224.171875 304.410156 224.171875 304.410156 C 224.171875 304.410156 247.421875 284.941406 251.75 286.5625 C 256.074219 288.1875 286.355469 302.785156 286.355469 302.785156 C 286.355469 302.785156 283.109375 280.074219 275 273.585938 C 266.890625 267.097656 235.527344 242.222656 235.527344 242.222656 L 235.527344 236.277344 L 278.246094 262.230469 C 278.246094 262.230469 279.867188 237.355469 271.214844 222.757812 C 262.5625 208.15625 256.074219 195.179688 256.074219 195.179688 L 258.777344 193.015625 L 279.867188 225.460938 L 286.894531 203.289062 L 291.222656 202.210938 C 291.222656 202.210938 285.816406 233.570312 289.601562 243.304688 C 293.386719 253.039062 307.445312 306.03125 307.445312 306.03125 L 328.535156 275.75 C 328.535156 275.75 329.074219 263.3125 327.992188 254.660156 C 326.910156 246.007812 325.289062 205.992188 325.289062 205.992188 L 329.074219 205.992188 L 335.023438 249.792969 L 369.078125 210.320312 L 369.078125 214.644531 C 369.078125 214.644531 335.5625 256.824219 337.1875 266.015625 C 338.808594 275.210938 340.429688 280.617188 334.480469 293.59375 C 328.535156 306.570312 324.75 315.765625 324.75 315.765625 C 324.75 315.765625 342.59375 294.675781 350.703125 293.054688 C 358.816406 292.511719 369.617188 293.59375 377.1875 287.105469 C 384.757812 280.617188 403.144531 260.066406 403.144531 260.066406 L 374.484375 304.410156 C 374.484375 304.410156 360.976562 304.949219 355.570312 310.898438 C 350.164062 316.847656 327.992188 342.261719 327.992188 342.261719 L 327.992188 400.625 L 364.753906 419.011719 L 319.882812 425.5 L 309.066406 441.179688 L 294.46875 428.742188 L 253.910156 432.527344 "
     id="path4" />
  <path
     fill="none"
     stroke-width="40"
     stroke-linecap="butt"
     stroke-linejoin="miter"
     stroke="rgb(6.30188%, 5.761719%, 5.056763%)"
     stroke-opacity="1"
     stroke-miterlimit="4"
     d="M 2539.101562 2871.926563 L 2885.195312 3071.965625 L 2901.40625 3925.989063 L 2474.21875 4158.528125 C 2474.21875 4158.528125 2409.335938 4201.770313 2317.421875 4174.739063 C 2284.960938 4163.91875 2241.71875 4153.098438 2241.71875 4153.098438 C 2241.71875 4153.098438 2474.21875 4347.785938 2517.5 4331.575 C 2560.742188 4315.325 2863.554688 4169.348438 2863.554688 4169.348438 C 2863.554688 4169.348438 2831.09375 4396.457813 2750 4461.340625 C 2668.90625 4526.223438 2355.273438 4774.973438 2355.273438 4774.973438 L 2355.273438 4834.426563 L 2782.460938 4574.895313 C 2782.460938 4574.895313 2798.671875 4823.645313 2712.148438 4969.621875 C 2625.625 5115.6375 2560.742188 5245.403125 2560.742188 5245.403125 L 2587.773438 5267.04375 L 2798.671875 4942.590625 L 2868.945312 5164.309375 L 2912.226562 5175.090625 C 2912.226562 5175.090625 2858.164062 4861.496875 2896.015625 4764.153125 C 2933.867188 4666.809375 3074.453125 4136.8875 3074.453125 4136.8875 L 3285.351562 4439.7 C 3285.351562 4439.7 3290.742188 4564.075 3279.921875 4650.598438 C 3269.101562 4737.121875 3252.890625 5137.278125 3252.890625 5137.278125 L 3290.742188 5137.278125 L 3350.234375 4699.270313 L 3690.78125 5093.996875 L 3690.78125 5050.754688 C 3690.78125 5050.754688 3355.625 4628.957813 3371.875 4537.04375 C 3388.085938 4445.090625 3404.296875 4391.028125 3344.804688 4261.2625 C 3285.351562 4131.496875 3247.5 4039.54375 3247.5 4039.54375 C 3247.5 4039.54375 3425.9375 4250.442188 3507.03125 4266.653125 C 3588.164062 4272.082813 3696.171875 4261.2625 3771.875 4326.145313 C 3847.578125 4391.028125 4031.445312 4596.535938 4031.445312 4596.535938 L 3744.84375 4153.098438 C 3744.84375 4153.098438 3609.765625 4147.707813 3555.703125 4088.215625 C 3501.640625 4028.723438 3279.921875 3774.582813 3279.921875 3774.582813 L 3279.921875 3190.95 L 3647.539062 3007.082813 L 3198.828125 2942.2 L 3090.664062 2785.403125 L 2944.6875 2909.778125 Z M 2539.101562 2871.926563 "
     transform="matrix(0.1, 0, 0, -0.1, 0, 719.72)"
     id="path5" />
  <path
     fill-rule="nonzero"
     fill="rgb(6.30188%, 5.761719%, 5.056763%)"
     fill-opacity="1"
     d="M 217.140625 483.359375 C 217.140625 483.359375 266.347656 468.757812 274.460938 474.707031 C 285.273438 469.839844 364.214844 436.3125 364.214844 438.476562 C 364.214844 440.640625 455.054688 410.359375 455.054688 410.359375 L 488.039062 434.152344 L 456.675781 449.292969 L 498.855469 453.078125 L 487.5 468.21875 L 510.75 468.21875 L 511.292969 484.980469 L 217.140625 483.359375 "
     id="path6" />
  <path
     fill="none"
     stroke-width="40"
     stroke-linecap="butt"
     stroke-linejoin="miter"
     stroke="rgb(6.30188%, 5.761719%, 5.056763%)"
     stroke-opacity="1"
     stroke-miterlimit="4"
     d="M 2171.40625 2363.60625 C 2171.40625 2363.60625 2663.476562 2509.621875 2744.609375 2450.129688 C 2852.734375 2498.801563 3642.148438 2834.075 3642.148438 2812.434375 C 3642.148438 2790.79375 4550.546875 3093.60625 4550.546875 3093.60625 L 4880.390625 2855.676563 L 4566.757812 2704.270313 L 4988.554688 2666.41875 L 4875 2515.0125 L 5107.5 2515.0125 L 5112.929688 2347.395313 Z M 2171.40625 2363.60625 "
     transform="matrix(0.1, 0, 0, -0.1, 0, 719.72)"
     id="path7" />
  <path
     fill-rule="nonzero"
     fill="rgb(100%, 100%, 100%)"
     fill-opacity="1"
     d="M 326.910156 440.640625 C 326.910156 440.640625 340.972656 440.097656 347.460938 437.394531 C 357.75 433.109375 374.484375 426.039062 384.21875 411.980469 C 394.28125 397.445312 430.179688 336.3125 479.386719 341.179688 C 476.683594 347.667969 468.03125 361.726562 468.03125 361.726562 L 503.179688 350.914062 C 503.179688 350.914062 503.722656 397.382812 437.210938 427.121094 C 406.386719 437.9375 399.898438 438.476562 397.195312 442.261719 C 394.492188 446.046875 382.054688 464.972656 382.054688 464.972656 L 326.910156 440.640625 "
     id="path8" />
  <path
     fill="none"
     stroke-width="50"
     stroke-linecap="butt"
     stroke-linejoin="miter"
     stroke="rgb(6.30188%, 5.761719%, 5.056763%)"
     stroke-opacity="1"
     stroke-miterlimit="4"
     d="M 3269.101562 2790.79375 C 3269.101562 2790.79375 3409.726562 2796.223438 3474.609375 2823.254688 C 3577.5 2866.10625 3744.84375 2936.809375 3842.1875 3077.395313 C 3942.8125 3222.746875 4301.796875 3834.075 4793.867188 3785.403125 C 4766.835938 3720.520313 4680.3125 3579.934375 4680.3125 3579.934375 L 5031.796875 3688.059375 C 5031.796875 3688.059375 5037.226562 3223.371875 4372.109375 2925.989063 C 4063.867188 2817.825 3998.984375 2812.434375 3971.953125 2774.582813 C 3944.921875 2736.73125 3820.546875 2547.473438 3820.546875 2547.473438 Z M 3269.101562 2790.79375 "
     transform="matrix(0.1, 0, 0, -0.1, 0, 719.72)"
     id="path9" />
  <path
     fill-rule="nonzero"
     fill="rgb(6.30188%, 5.761719%, 5.056763%)"
     fill-opacity="1"
     d="M 470.734375 378.179688 C 470.734375 375.351562 473.398438 373.054688 476.683594 373.054688 C 479.96875 373.054688 482.632812 375.351562 482.632812 378.179688 C 482.632812 381.019531 479.96875 383.320312 476.683594 383.320312 C 473.398438 383.320312 470.734375 381.019531 470.734375 378.179688 "
     id="path10" />
</svg>
