<?xml version="1.0" encoding="UTF-8" standalone="no"?>
<svg
   width="719.71pt"
   height="719.72pt"
   viewBox="0 0 719.71 719.72"
   version="1.1"
   id="svg47"
   sodipodi:docname="explos.svg"
   inkscape:version="1.3 (0e150ed, 2023-07-21)"
   xmlns:inkscape="http://www.inkscape.org/namespaces/inkscape"
   xmlns:sodipodi="http://sodipodi.sourceforge.net/DTD/sodipodi-0.dtd"
   xmlns="http://www.w3.org/2000/svg"
   xmlns:svg="http://www.w3.org/2000/svg">
  <sodipodi:namedview
     id="namedview47"
     pagecolor="#ffffff"
     bordercolor="#000000"
     borderopacity="0.25"
     inkscape:showpageshadow="2"
     inkscape:pageopacity="0.0"
     inkscape:pagecheckerboard="0"
     inkscape:deskcolor="#d1d1d1"
     inkscape:document-units="pt"
     inkscape:zoom="0.24592898"
     inkscape:cx="479.81331"
     inkscape:cy="477.78021"
     inkscape:window-width="1920"
     inkscape:window-height="1080"
     inkscape:window-x="0"
     inkscape:window-y="0"
     inkscape:window-maximized="0"
     inkscape:current-layer="svg47" />
  <defs
     id="defs1">
    <clipPath
       id="clip-0">
      <path
         clip-rule="nonzero"
         d="M 0 0 L 719.710938 0 L 719.710938 719.71875 L 0 719.71875 Z M 0 0 "
         id="path1" />
    </clipPath>
  </defs>
  <g
     clip-path="url(#clip-0)"
     id="g2">
    <path
       fill-rule="nonzero"
       fill="rgb(93.605042%, 18.151855%, 19.448853%)"
       fill-opacity="1"
       d="M 662.6875 359.855469 C 637.75 384.789062 384.789062 637.761719 359.851562 662.699219 C 334.914062 637.761719 81.957031 384.789062 57.019531 359.855469 C 81.957031 334.914062 334.914062 81.953125 359.851562 57.019531 C 384.785156 81.953125 637.75 334.914062 662.6875 359.855469 Z M 0 359.855469 L 359.851562 719.71875 L 719.707031 359.855469 L 359.851562 -0.00390625 L 0 359.855469 "
       id="path2" />
  </g>
  <path
     fill-rule="nonzero"
     fill="rgb(6.30188%, 5.761719%, 5.056763%)"
     fill-opacity="1"
     d="M 401.894531 170.765625 L 392.105469 166.289062 L 341.0625 311.855469 C 344.097656 312.941406 347.03125 314.324219 349.78125 315.980469 L 401.894531 170.765625 "
     id="path3" />
  <path
     fill-rule="nonzero"
     fill="rgb(6.30188%, 5.761719%, 5.056763%)"
     fill-opacity="1"
     d="M 394.902344 240.699219 L 389.867188 237.621094 L 350.097656 316.183594 C 350.3125 316.316406 350.523438 316.453125 350.734375 316.589844 L 394.902344 240.699219 "
     id="path4" />
  <path
     fill-rule="nonzero"
     fill="rgb(6.30188%, 5.761719%, 5.056763%)"
     fill-opacity="1"
     d="M 339.769531 311.402344 L 370.007812 217.480469 L 364.414062 214.125 L 339.515625 311.3125 C 339.601562 311.339844 339.683594 311.375 339.769531 311.402344 "
     id="path5" />
  <path
     fill-rule="nonzero"
     fill="rgb(6.30188%, 5.761719%, 5.056763%)"
     fill-opacity="1"
     d="M 346.375 249.753906 L 350.722656 243.414062 L 358.234375 235.234375 L 354.09375 221.839844 L 348.421875 221.738281 L 345.964844 227.976562 L 341.160156 226.082031 L 338.707031 237.996094 L 343.820312 240.398438 L 346.375 249.753906 "
     id="path6" />
  <path
     fill-rule="nonzero"
     fill="rgb(6.30188%, 5.761719%, 5.056763%)"
     fill-opacity="1"
     d="M 392.585938 256.28125 L 389.40625 260.742188 L 387.570312 270.035156 L 393.988281 275.597656 L 398.578125 270.035156 L 399.859375 263.738281 L 397.046875 256.21875 L 394.847656 258.539062 L 392.585938 256.28125 "
     id="path7" />
  <path
     fill-rule="nonzero"
     fill="rgb(6.30188%, 5.761719%, 5.056763%)"
     fill-opacity="1"
     d="M 366.136719 318.710938 L 365.378906 316.9375 L 359.25 323.613281 C 359.578125 323.964844 359.910156 324.316406 360.226562 324.679688 L 366.136719 318.710938 "
     id="path8" />
  <path
     fill-rule="nonzero"
     fill="rgb(6.30188%, 5.761719%, 5.056763%)"
     fill-opacity="1"
     d="M 378.125 306.609375 L 466.332031 217.558594 L 461.253906 212.484375 L 371.820312 309.921875 L 376.484375 306.644531 L 378.125 306.609375 "
     id="path9" />
  <path
     fill-rule="nonzero"
     fill="rgb(6.30188%, 5.761719%, 5.056763%)"
     fill-opacity="1"
     d="M 333.59375 351.566406 L 356.351562 328.589844 L 354.703125 328.570312 Z M 333.59375 351.566406 "
     id="path10" />
  <path
     fill-rule="nonzero"
     fill="rgb(6.30188%, 5.761719%, 5.056763%)"
     fill-opacity="1"
     d="M 466.078125 262.734375 L 348.3125 345.730469 L 466.078125 272.632812 Z M 466.078125 262.734375 "
     id="path11" />
  <path
     fill-rule="nonzero"
     fill="rgb(6.30188%, 5.761719%, 5.056763%)"
     fill-opacity="1"
     d="M 429.53125 317.046875 L 429.023438 311.210938 L 359.734375 343.953125 Z M 429.53125 317.046875 "
     id="path12" />
  <path
     fill-rule="nonzero"
     fill="rgb(6.30188%, 5.761719%, 5.056763%)"
     fill-opacity="1"
     d="M 366.839844 320.347656 L 376.230469 316.035156 L 378.261719 323.140625 L 393.238281 310.957031 L 401.613281 295.476562 L 388.414062 306.390625 L 378.125 306.609375 L 376.484375 306.644531 L 371.820312 309.921875 L 364.558594 315.019531 L 365.378906 316.9375 L 366.136719 318.710938 L 366.839844 320.347656 "
     id="path13" />
  <path
     fill-rule="nonzero"
     fill="rgb(6.30188%, 5.761719%, 5.056763%)"
     fill-opacity="1"
     d="M 449.582031 300.550781 L 447.296875 306.644531 L 468.359375 309.179688 L 454.402344 295.222656 L 449.582031 300.550781 "
     id="path14" />
  <path
     fill-rule="nonzero"
     fill="rgb(6.30188%, 5.761719%, 5.056763%)"
     fill-opacity="1"
     d="M 507.445312 274.917969 L 521.660156 284.5625 L 521.40625 267.304688 L 512.015625 251.3125 L 507.703125 264.765625 L 496.28125 265.273438 L 492.980469 267.8125 L 491.457031 277.457031 L 500.339844 282.53125 L 507.445312 274.917969 "
     id="path15" />
  <path
     fill-rule="nonzero"
     fill="rgb(6.30188%, 5.761719%, 5.056763%)"
     fill-opacity="1"
     d="M 553.769531 303.097656 L 550.890625 297.015625 L 343.53125 350.777344 Z M 553.769531 303.097656 "
     id="path16" />
  <path
     fill-rule="nonzero"
     fill="rgb(6.30188%, 5.761719%, 5.056763%)"
     fill-opacity="1"
     d="M 351.261719 357.082031 L 579.050781 326.136719 L 579.050781 318.457031 L 351.238281 357.0625 L 351.261719 357.082031 "
     id="path17" />
  <path
     fill-rule="nonzero"
     fill="rgb(6.30188%, 5.761719%, 5.056763%)"
     fill-opacity="1"
     d="M 434.089844 364.21875 L 436.425781 366.734375 L 454.398438 367.304688 L 461.609375 359.097656 L 436.332031 347.898438 L 429.613281 354.296875 L 420.011719 357.496094 L 422.277344 366.285156 L 426.199219 366.410156 L 434.089844 364.21875 "
     id="path18" />
  <path
     fill-rule="nonzero"
     fill="rgb(6.30188%, 5.761719%, 5.056763%)"
     fill-opacity="1"
     d="M 422.570312 367.417969 L 422.871094 367.335938 L 422.546875 367.320312 Z M 422.570312 367.417969 "
     id="path19" />
  <path
     fill-rule="nonzero"
     fill="rgb(6.30188%, 5.761719%, 5.056763%)"
     fill-opacity="1"
     d="M 438.25 368.699219 L 452.332031 369.65625 L 453.113281 368.765625 L 437.632812 368.03125 L 438.25 368.699219 "
     id="path20" />
  <path
     fill-rule="nonzero"
     fill="rgb(6.30188%, 5.761719%, 5.056763%)"
     fill-opacity="1"
     d="M 422.546875 367.320312 L 422.871094 367.335938 L 437.632812 368.03125 L 453.113281 368.765625 L 553.132812 373.496094 L 548.972656 370.296875 L 454.398438 367.304688 L 436.425781 366.734375 L 426.199219 366.410156 L 422.277344 366.285156 L 359.117188 364.285156 L 359.136719 364.320312 L 422.546875 367.320312 "
     id="path21" />
  <path
     fill-rule="nonzero"
     fill="rgb(6.30188%, 5.761719%, 5.056763%)"
     fill-opacity="1"
     d="M 396.515625 382.609375 L 397.640625 381.046875 L 408.261719 385.636719 L 445.609375 395.257812 L 447.210938 384.378906 L 365.539062 372.945312 C 365.34375 373.457031 365.140625 373.96875 364.929688 374.472656 L 396.515625 382.609375 "
     id="path22" />
  <path
     fill-rule="nonzero"
     fill="rgb(6.30188%, 5.761719%, 5.056763%)"
     fill-opacity="1"
     d="M 396.515625 382.609375 L 395.136719 384.523438 L 385.527344 382.746094 L 382.859375 387.589844 L 392.554688 394.78125 L 418.078125 399.140625 L 418.480469 393.003906 L 414.28125 388.238281 L 408.261719 385.636719 L 397.640625 381.046875 L 396.515625 382.609375 "
     id="path23" />
  <path
     fill-rule="nonzero"
     fill="rgb(6.30188%, 5.761719%, 5.056763%)"
     fill-opacity="1"
     d="M 415.8125 413.519531 L 412.828125 407.460938 L 362.34375 379.710938 C 362.191406 379.972656 362.046875 380.238281 361.890625 380.496094 L 415.8125 413.519531 "
     id="path24" />
  <path
     fill-rule="nonzero"
     fill="rgb(6.30188%, 5.761719%, 5.056763%)"
     fill-opacity="1"
     d="M 334.050781 364.019531 L 340.648438 369.171875 L 340.917969 368.988281 Z M 334.050781 364.019531 "
     id="path25" />
  <path
     fill-rule="nonzero"
     fill="rgb(6.30188%, 5.761719%, 5.056763%)"
     fill-opacity="1"
     d="M 417.332031 429.058594 L 420.089844 426.296875 L 360.273438 383 C 360.050781 383.324219 359.824219 383.648438 359.59375 383.964844 L 417.332031 429.058594 "
     id="path26" />
  <path
     fill-rule="nonzero"
     fill="rgb(6.30188%, 5.761719%, 5.056763%)"
     fill-opacity="1"
     d="M 402.089844 424.859375 L 399.332031 418.617188 L 356.820312 387.417969 C 356.652344 387.605469 356.484375 387.789062 356.316406 387.976562 L 402.089844 424.859375 "
     id="path27" />
  <path
     fill-rule="nonzero"
     fill="rgb(6.30188%, 5.761719%, 5.056763%)"
     fill-opacity="1"
     d="M 270.695312 410.226562 L 274.996094 415.007812 L 279.777344 412.855469 L 282.167969 415.246094 L 286.945312 412.378906 L 288.859375 405.925781 L 284.316406 403.058594 L 277.367188 403.058594 L 271.671875 408.277344 L 270.695312 410.226562 "
     id="path28" />
  <path
     fill-rule="nonzero"
     fill="rgb(6.30188%, 5.761719%, 5.056763%)"
     fill-opacity="1"
     d="M 226.726562 440.101562 L 231.742188 444.878906 L 271.671875 408.277344 L 277.367188 403.058594 L 294.675781 387.191406 C 294.441406 386.925781 294.210938 386.648438 293.984375 386.371094 L 226.726562 440.101562 "
     id="path29" />
  <path
     fill-rule="nonzero"
     fill="rgb(6.30188%, 5.761719%, 5.056763%)"
     fill-opacity="1"
     d="M 231.265625 409.988281 L 231.503906 413.09375 L 289.0625 379.210938 C 288.996094 379.089844 288.933594 378.96875 288.867188 378.84375 L 231.265625 409.988281 "
     id="path30" />
  <path
     fill-rule="nonzero"
     fill="rgb(6.30188%, 5.761719%, 5.056763%)"
     fill-opacity="1"
     d="M 252.296875 386.808594 L 251.816406 390.390625 L 288.554688 378.253906 C 288.382812 377.929688 288.210938 377.601562 288.046875 377.273438 L 252.296875 386.808594 "
     id="path31" />
  <path
     fill-rule="nonzero"
     fill="rgb(6.30188%, 5.761719%, 5.056763%)"
     fill-opacity="1"
     d="M 241.0625 396.605469 L 241.0625 392.304688 L 228.398438 391.585938 L 235.804688 398.757812 L 241.0625 396.605469 "
     id="path32" />
  <path
     fill-rule="nonzero"
     fill="rgb(6.30188%, 5.761719%, 5.056763%)"
     fill-opacity="1"
     d="M 208.5625 414.765625 L 201.394531 410.226562 L 198.765625 418.832031 L 206.066406 428.871094 L 206.410156 429.34375 L 208.800781 422.652344 L 213.339844 422.414062 L 216.210938 419.308594 L 217.644531 414.765625 L 210.710938 412.140625 L 208.5625 414.765625 "
     id="path33" />
  <path
     fill-rule="nonzero"
     fill="rgb(6.30188%, 5.761719%, 5.056763%)"
     fill-opacity="1"
     d="M 180.839844 398.515625 L 180.121094 402.101562 L 287.277344 375.652344 C 287.1875 375.453125 287.105469 375.25 287.019531 375.050781 L 180.839844 398.515625 "
     id="path34" />
  <path
     fill-rule="nonzero"
     fill="rgb(6.30188%, 5.761719%, 5.056763%)"
     fill-opacity="1"
     d="M 144.039062 387.046875 L 143.796875 390.152344 L 285.480469 371.023438 C 285.457031 370.957031 285.433594 370.886719 285.410156 370.820312 L 144.039062 387.046875 "
     id="path35" />
  <path
     fill-rule="nonzero"
     fill="rgb(6.30188%, 5.761719%, 5.056763%)"
     fill-opacity="1"
     d="M 196.613281 373.664062 L 196.613281 376.53125 L 217.164062 378.441406 L 204.019531 368.164062 L 196.613281 373.664062 "
     id="path36" />
  <path
     fill-rule="nonzero"
     fill="rgb(6.30188%, 5.761719%, 5.056763%)"
     fill-opacity="1"
     d="M 249.90625 363.625 L 249.390625 362.699219 L 236.183594 362.167969 L 233.414062 366.734375 L 241.0625 372.230469 L 249.425781 373.664062 L 252.054688 369.363281 L 257.3125 369.363281 L 256.753906 362.996094 L 252.183594 362.8125 L 249.90625 363.625 "
     id="path37" />
  <path
     fill-rule="nonzero"
     fill="rgb(6.30188%, 5.761719%, 5.056763%)"
     fill-opacity="1"
     d="M 256.597656 361.234375 L 254.871094 361.851562 L 256.660156 361.96875 Z M 256.597656 361.234375 "
     id="path38" />
  <path
     fill-rule="nonzero"
     fill="rgb(6.30188%, 5.761719%, 5.056763%)"
     fill-opacity="1"
     d="M 247.515625 359.324219 L 238.195312 358.847656 L 237.085938 360.679688 L 248.691406 361.445312 L 247.515625 359.324219 "
     id="path39" />
  <path
     fill-rule="nonzero"
     fill="rgb(6.30188%, 5.761719%, 5.056763%)"
     fill-opacity="1"
     d="M 256.660156 361.96875 L 254.871094 361.851562 L 248.691406 361.445312 L 237.085938 360.679688 L 180.363281 356.933594 L 183.230469 360.039062 L 236.183594 362.167969 L 249.390625 362.699219 L 252.183594 362.8125 L 256.753906 362.996094 L 283.9375 364.089844 L 284.058594 363.777344 L 256.660156 361.96875 "
     id="path40" />
  <path
     fill-rule="nonzero"
     fill="rgb(6.30188%, 5.761719%, 5.056763%)"
     fill-opacity="1"
     d="M 296.269531 364.582031 L 284.359375 363.796875 L 285.738281 364.160156 Z M 296.269531 364.582031 "
     id="path41" />
  <path
     fill-rule="nonzero"
     fill="rgb(6.30188%, 5.761719%, 5.056763%)"
     fill-opacity="1"
     d="M 242.976562 348.09375 L 239.390625 351.199219 L 296.027344 360.039062 Z M 242.976562 348.09375 "
     id="path42" />
  <path
     fill-rule="nonzero"
     fill="rgb(6.30188%, 5.761719%, 5.056763%)"
     fill-opacity="1"
     d="M 259.464844 337.097656 L 260.421875 339.488281 L 298.179688 357.652344 Z M 259.464844 337.097656 "
     id="path43" />
  <path
     fill-rule="nonzero"
     fill="rgb(6.30188%, 5.761719%, 5.056763%)"
     fill-opacity="1"
     d="M 267.828125 329.214844 L 269.980469 333.515625 L 284.472656 343.246094 C 284.574219 342.828125 284.679688 342.410156 284.792969 341.996094 L 267.828125 329.214844 "
     id="path44" />
  <path
     fill-rule="nonzero"
     fill="rgb(6.30188%, 5.761719%, 5.056763%)"
     fill-opacity="1"
     d="M 302.71875 355.5 L 295.453125 350.027344 L 294.636719 350.070312 Z M 302.71875 355.5 "
     id="path45" />
  <path
     fill-rule="nonzero"
     fill="rgb(6.30188%, 5.761719%, 5.056763%)"
     fill-opacity="1"
     d="M 348.371094 354.785156 L 348.371094 363.972656 L 340.917969 368.988281 L 340.648438 369.171875 L 334.71875 373.15625 L 316.101562 357.269531 L 302.945312 368.6875 L 285.738281 364.160156 L 284.359375 363.796875 L 284.078125 363.722656 L 284.058594 363.777344 L 283.9375 364.089844 L 283.789062 364.476562 C 284.191406 366.648438 284.738281 368.765625 285.410156 370.820312 C 285.433594 370.886719 285.457031 370.957031 285.480469 371.023438 C 285.933594 372.398438 286.449219 373.742188 287.019531 375.050781 C 287.105469 375.25 287.1875 375.453125 287.277344 375.652344 C 287.523438 376.199219 287.78125 376.738281 288.046875 377.273438 C 288.210938 377.601562 288.382812 377.929688 288.554688 378.253906 C 288.660156 378.449219 288.761719 378.648438 288.867188 378.84375 C 288.933594 378.96875 288.996094 379.089844 289.0625 379.210938 C 290.488281 381.773438 292.140625 384.164062 293.984375 386.371094 C 294.210938 386.648438 294.441406 386.925781 294.675781 387.191406 C 302.492188 396.128906 313.566406 401.703125 325.847656 401.703125 C 337.765625 401.703125 348.546875 396.449219 356.316406 387.976562 C 356.484375 387.789062 356.652344 387.605469 356.820312 387.417969 C 357.796875 386.316406 358.71875 385.164062 359.59375 383.964844 C 359.824219 383.648438 360.050781 383.324219 360.273438 383 C 360.835938 382.183594 361.378906 381.351562 361.890625 380.496094 C 362.046875 380.238281 362.191406 379.972656 362.34375 379.710938 C 363.304688 378.03125 364.171875 376.285156 364.929688 374.472656 C 365.140625 373.96875 365.34375 373.457031 365.539062 372.945312 C 366.03125 371.644531 366.476562 370.320312 366.859375 368.964844 L 360.539062 366.703125 L 359.136719 364.320312 L 359.117188 364.285156 L 358.054688 362.480469 L 351.261719 357.082031 L 351.238281 357.0625 L 348.371094 354.785156 "
     id="path46" />
  <path
     fill-rule="nonzero"
     fill="rgb(6.30188%, 5.761719%, 5.056763%)"
     fill-opacity="1"
     d="M 325.847656 309.109375 C 306.484375 309.109375 290.121094 322.964844 284.792969 341.996094 C 284.679688 342.410156 284.574219 342.828125 284.472656 343.246094 C 284.417969 343.453125 284.359375 343.652344 284.3125 343.859375 L 290.285156 350.316406 L 294.636719 350.070312 L 295.453125 350.027344 L 307.910156 349.324219 L 325.285156 358.011719 L 335.21875 346.097656 L 330.746094 335.175781 L 344.402344 336.664062 L 346.386719 328.472656 L 354.703125 328.570312 L 356.351562 328.589844 L 363.269531 328.667969 C 362.355469 327.277344 361.332031 325.949219 360.226562 324.679688 C 359.910156 324.316406 359.578125 323.964844 359.25 323.613281 C 356.761719 320.953125 353.886719 318.59375 350.734375 316.589844 C 350.523438 316.453125 350.3125 316.316406 350.097656 316.183594 C 349.992188 316.117188 349.890625 316.046875 349.78125 315.980469 C 347.03125 314.324219 344.097656 312.941406 341.0625 311.855469 C 340.632812 311.699219 340.203125 311.546875 339.769531 311.402344 C 339.683594 311.375 339.601562 311.339844 339.515625 311.3125 C 335.058594 309.886719 330.417969 309.109375 325.847656 309.109375 "
     id="path47" />
</svg>
