<?xml version="1.0" encoding="UTF-8" standalone="no"?>
<svg
   width="719.71pt"
   height="719.72pt"
   viewBox="0 0 719.71 719.72"
   version="1.1"
   id="svg4"
   sodipodi:docname="flamme.svg"
   inkscape:version="1.3 (0e150ed, 2023-07-21)"
   xmlns:inkscape="http://www.inkscape.org/namespaces/inkscape"
   xmlns:sodipodi="http://sodipodi.sourceforge.net/DTD/sodipodi-0.dtd"
   xmlns="http://www.w3.org/2000/svg"
   xmlns:svg="http://www.w3.org/2000/svg">
  <sodipodi:namedview
     id="namedview4"
     pagecolor="#ffffff"
     bordercolor="#000000"
     borderopacity="0.25"
     inkscape:showpageshadow="2"
     inkscape:pageopacity="0.0"
     inkscape:pagecheckerboard="0"
     inkscape:deskcolor="#d1d1d1"
     inkscape:document-units="pt"
     inkscape:zoom="0.24592898"
     inkscape:cx="479.81331"
     inkscape:cy="477.78021"
     inkscape:window-width="1920"
     inkscape:window-height="1052"
     inkscape:window-x="0"
     inkscape:window-y="28"
     inkscape:window-maximized="0"
     inkscape:current-layer="svg4" />
  <defs
     id="defs1">
    <clipPath
       id="clip-0">
      <path
         clip-rule="nonzero"
         d="M 0 0 L 719.710938 0 L 719.710938 719.71875 L 0 719.71875 Z M 0 0 "
         id="path1" />
    </clipPath>
  </defs>
  <path
     fill-rule="nonzero"
     fill="rgb(6.30188%, 5.761719%, 5.056763%)"
     fill-opacity="1"
     d="M 350.5 179.097656 L 350.378906 214.855469 L 347.617188 241.617188 L 343.539062 258.058594 L 335.019531 277.257812 L 325.417969 257.9375 L 322.777344 240.417969 L 317.257812 226.257812 L 309.097656 217.617188 L 296.738281 214.617188 L 299.859375 230.578125 L 296.5 246.898438 L 293.980469 267.898438 L 293.738281 289.140625 L 299.140625 305.21875 L 288.097656 298.140625 L 272.738281 276.058594 L 259.417969 262.496094 L 262.058594 289.976562 L 262.300781 311.097656 L 264.578125 329.457031 L 271.417969 347.9375 L 280.179688 366.539062 L 258.460938 363.417969 L 246.339844 354.058594 L 238.660156 343.855469 L 226.898438 331.738281 L 229.660156 350.339844 L 248.617188 416.457031 L 261.820312 440.097656 L 283.660156 455.816406 L 314.738281 468.65625 L 363.8125 471.777344 L 340.777344 467.578125 L 322.058594 458.457031 L 303.097656 435.898438 L 291.460938 409.136719 L 303.578125 418.019531 L 314.859375 421.976562 L 335.5 424.378906 L 324.097656 409.738281 L 317.859375 399.058594 L 313.300781 385.738281 L 316.300781 373.136719 L 317.019531 359.816406 L 322.179688 373.257812 L 329.5 383.816406 L 351.21875 395.816406 L 348.097656 377.699219 L 347.859375 363.777344 L 360.695312 326.9375 L 360.695312 301.257812 L 373.523438 313.976562 L 385.761719 332.457031 L 391.882812 358.015625 L 391.761719 396.179688 L 402.082031 385.496094 L 420.445312 373.378906 L 426.683594 359.339844 L 426.683594 385.859375 L 419.964844 405.777344 L 412.164062 416.457031 L 404.003906 424.617188 L 418.164062 424.738281 L 430.644531 421.257812 L 445.164062 412.019531 L 430.285156 439.859375 L 410.722656 459.058594 L 399.445312 467.457031 L 391.320312 472.101562 L 408.570312 472.101562 L 427.347656 468.824219 L 446.996094 459.21875 L 465.554688 446.335938 L 481.054688 421.664062 L 490.660156 390.226562 L 493.695312 345.210938 L 490.226562 361.1875 L 478.21875 369.484375 L 456.382812 375.816406 L 468.609375 357.695312 L 475.160156 344.8125 L 481.242188 319.558594 L 478.355469 301.660156 L 471.589844 277.910156 L 461.363281 297.785156 L 449.074219 310.074219 L 434.644531 318.238281 L 442.972656 297.703125 L 443.21875 270.570312 L 440.085938 243.601562 L 426.972656 218.035156 L 423.675781 249.539062 L 417.242188 272.054688 L 408.085938 281.289062 L 398.519531 284.839844 L 401.488281 265.703125 L 399.179688 248.878906 L 386.230469 212.179688 L 366.933594 176.140625 L 360.457031 144.777344 L 353.859375 164.457031 L 350.5 179.097656 "
     id="path2" />
  <path
     fill-rule="nonzero"
     fill="rgb(6.30188%, 5.761719%, 5.056763%)"
     fill-opacity="1"
     d="M 258.402344 516.210938 L 475.117188 516.210938 L 475.117188 493.957031 L 258.402344 493.957031 L 258.402344 516.210938 "
     id="path3" />
  <g
     clip-path="url(#clip-0)"
     id="g4">
    <path
       fill-rule="nonzero"
       fill="rgb(93.605042%, 18.151855%, 19.448853%)"
       fill-opacity="1"
       d="M 662.675781 359.851562 C 637.742188 384.789062 384.777344 637.761719 359.855469 662.695312 C 334.921875 637.761719 81.964844 384.789062 57.027344 359.851562 C 81.964844 334.917969 334.921875 81.953125 359.855469 57.015625 C 384.777344 81.953125 637.742188 334.917969 662.675781 359.851562 Z M 0.0078125 359.851562 L 359.855469 719.71875 L 719.699219 359.851562 L 359.855469 -0.00390625 L 0.0078125 359.851562 "
       id="path4" />
  </g>
</svg>
