<?xml version="1.0" encoding="UTF-8" standalone="no"?>
<svg
   width="719.71pt"
   height="719.72pt"
   viewBox="0 0 719.71 719.72"
   version="1.1"
   id="svg5"
   sodipodi:docname="rondflam.svg"
   inkscape:version="1.3 (0e150ed, 2023-07-21)"
   xmlns:inkscape="http://www.inkscape.org/namespaces/inkscape"
   xmlns:sodipodi="http://sodipodi.sourceforge.net/DTD/sodipodi-0.dtd"
   xmlns="http://www.w3.org/2000/svg"
   xmlns:svg="http://www.w3.org/2000/svg">
  <sodipodi:namedview
     id="namedview5"
     pagecolor="#ffffff"
     bordercolor="#000000"
     borderopacity="0.25"
     inkscape:showpageshadow="2"
     inkscape:pageopacity="0.0"
     inkscape:pagecheckerboard="0"
     inkscape:deskcolor="#d1d1d1"
     inkscape:document-units="pt"
     inkscape:zoom="0.24592898"
     inkscape:cx="479.81331"
     inkscape:cy="477.78021"
     inkscape:window-width="1920"
     inkscape:window-height="1052"
     inkscape:window-x="0"
     inkscape:window-y="28"
     inkscape:window-maximized="0"
     inkscape:current-layer="svg5" />
  <defs
     id="defs1">
    <clipPath
       id="clip-0">
      <path
         clip-rule="nonzero"
         d="M 0 0 L 719.710938 0 L 719.710938 719.71875 L 0 719.71875 Z M 0 0 "
         id="path1" />
    </clipPath>
  </defs>
  <g
     clip-path="url(#clip-0)"
     id="g2">
    <path
       fill-rule="nonzero"
       fill="rgb(93.605042%, 18.151855%, 19.448853%)"
       fill-opacity="1"
       d="M 662.6875 359.851562 C 637.75 384.789062 384.785156 637.761719 359.851562 662.695312 C 334.914062 637.761719 81.957031 384.789062 57.019531 359.851562 C 81.957031 334.917969 334.914062 81.953125 359.851562 57.015625 C 384.785156 81.953125 637.75 334.917969 662.6875 359.851562 Z M 0 359.851562 L 359.851562 719.71875 L 719.707031 359.851562 L 359.851562 -0.00390625 L 0 359.851562 "
       id="path2" />
  </g>
  <path
     fill-rule="nonzero"
     fill="rgb(6.30188%, 5.761719%, 5.056763%)"
     fill-opacity="1"
     d="M 335.726562 484.960938 L 265.507812 484.960938 L 265.507812 514.53125 L 460.605469 514.53125 L 460.605469 484.960938 L 381.414062 484.960938 C 374.097656 486.761719 366.445312 487.722656 358.570312 487.722656 C 350.695312 487.722656 343.046875 486.761719 335.726562 484.960938 "
     id="path3" />
  <path
     fill-rule="nonzero"
     fill="rgb(6.30188%, 5.761719%, 5.056763%)"
     fill-opacity="1"
     d="M 358.570312 460.339844 C 321.035156 460.339844 290.609375 429.910156 290.609375 392.378906 C 290.609375 354.84375 321.035156 324.414062 358.570312 324.414062 C 396.105469 324.414062 426.53125 354.84375 426.53125 392.378906 C 426.53125 429.910156 396.105469 460.339844 358.570312 460.339844 Z M 447.113281 390.433594 L 450.246094 366.101562 C 446.402344 352.671875 439.691406 340.457031 430.8125 330.15625 L 424.710938 335.285156 L 420.480469 329.957031 L 418.109375 317.914062 C 409.171875 310.757812 398.917969 305.179688 387.769531 301.59375 L 382.804688 309.253906 L 379.523438 299.347656 C 372.78125 297.835938 365.769531 297.03125 358.570312 297.03125 C 350.933594 297.03125 343.507812 297.9375 336.386719 299.632812 L 336.480469 303.765625 L 327.109375 306.144531 L 325.425781 302.957031 C 317.445312 305.917969 309.96875 309.914062 303.15625 314.785156 L 305.488281 320.554688 L 296.328125 320.152344 C 286.992188 328.207031 279.234375 338.039062 273.578125 349.128906 L 273.769531 359.734375 L 268.011719 406.777344 L 263.652344 401.382812 C 267.46875 442.128906 296.925781 475.417969 335.726562 484.960938 C 343.046875 486.761719 350.695312 487.722656 358.570312 487.722656 C 366.445312 487.722656 374.097656 486.761719 381.414062 484.960938 C 415.570312 476.558594 442.484375 449.757812 451.042969 415.664062 L 447.429688 421.453125 L 447.113281 390.433594 "
     id="path4" />
  <path
     fill-rule="nonzero"
     fill="rgb(6.30188%, 5.761719%, 5.056763%)"
     fill-opacity="1"
     d="M 349.609375 132.875 L 349.609375 156.535156 L 343.402344 188.804688 L 335.410156 208.855469 L 325.289062 195.578125 L 320.8125 186.9375 L 318.25 177.976562 L 301.929688 158.136719 L 305.789062 172.75 L 297.769531 187.894531 L 294.570312 210.296875 L 298.550781 242.433594 L 284.183594 234.847656 L 274.730469 220.855469 L 261.929688 205.496094 L 265.449219 227.257812 L 265.621094 263.898438 L 269.171875 283.105469 L 251.691406 272.375 L 236.011719 260.535156 L 239.53125 294.457031 L 239.53125 336.695312 L 246.890625 375.097656 L 254.570312 390.136719 L 263.652344 401.382812 L 268.011719 406.777344 L 273.769531 359.734375 L 273.578125 349.128906 L 273.367188 337.5 L 268.363281 317.324219 L 266.089844 302.457031 L 279.179688 315.226562 L 287.089844 319.746094 L 296.328125 320.152344 L 305.488281 320.554688 L 303.15625 314.785156 L 299.03125 304.574219 L 306.296875 279.878906 L 309.71875 254.761719 L 316.925781 286.875 L 325.425781 302.957031 L 327.109375 306.144531 L 336.480469 303.765625 L 336.386719 299.632812 L 335.996094 282.460938 L 350.296875 254.445312 L 350.609375 232.824219 L 368.3125 253.820312 L 372.070312 276.851562 L 379.523438 299.347656 L 382.804688 309.253906 L 387.769531 301.59375 L 408.574219 269.484375 L 418.109375 317.914062 L 420.480469 329.957031 L 424.710938 335.285156 L 430.8125 330.15625 L 439.4375 322.910156 L 452.753906 313.511719 L 452.597656 347.816406 L 450.246094 366.101562 L 447.113281 390.433594 L 447.429688 421.453125 L 451.042969 415.664062 L 471.710938 382.597656 L 482.730469 349.816406 L 482.730469 309.816406 L 471.851562 264.695312 L 471.851562 272.058594 L 460.011719 283.257812 L 446.25 289.65625 L 450.246094 270.894531 L 457.296875 247.394531 L 449.621094 219.824219 L 445.292969 231.417969 L 437.609375 239.402344 L 424.171875 245.804688 L 427.371094 227.257812 L 427.371094 205.175781 L 408.8125 165.175781 L 408.8125 173.496094 L 404.972656 191.417969 L 397.609375 205.496094 L 383.53125 212.535156 L 383.53125 179.894531 L 375.851562 154.296875 L 365.292969 129.015625 L 357.65625 97.9375 L 349.609375 132.875 "
     id="path5" />
</svg>
