<?xml version="1.0" encoding="UTF-8" standalone="no"?>
<svg
   width="719.71pt"
   height="719.72pt"
   viewBox="0 0 719.71 719.72"
   version="1.1"
   id="svg16"
   sodipodi:docname="silhouete.svg"
   inkscape:version="1.3 (0e150ed, 2023-07-21)"
   xmlns:inkscape="http://www.inkscape.org/namespaces/inkscape"
   xmlns:sodipodi="http://sodipodi.sourceforge.net/DTD/sodipodi-0.dtd"
   xmlns="http://www.w3.org/2000/svg"
   xmlns:svg="http://www.w3.org/2000/svg">
  <sodipodi:namedview
     id="namedview16"
     pagecolor="#ffffff"
     bordercolor="#000000"
     borderopacity="0.25"
     inkscape:showpageshadow="2"
     inkscape:pageopacity="0.0"
     inkscape:pagecheckerboard="0"
     inkscape:deskcolor="#d1d1d1"
     inkscape:document-units="pt"
     inkscape:zoom="0.24592898"
     inkscape:cx="479.81331"
     inkscape:cy="477.78021"
     inkscape:window-width="1920"
     inkscape:window-height="1052"
     inkscape:window-x="0"
     inkscape:window-y="28"
     inkscape:window-maximized="0"
     inkscape:current-layer="svg16" />
  <defs
     id="defs1">
    <clipPath
       id="clip-0">
      <path
         clip-rule="nonzero"
         d="M 0 0 L 719.710938 0 L 719.710938 719.71875 L 0 719.71875 Z M 0 0 "
         id="path1" />
    </clipPath>
  </defs>
  <g
     clip-path="url(#clip-0)"
     id="g2">
    <path
       fill-rule="nonzero"
       fill="rgb(93.605042%, 18.151855%, 19.448853%)"
       fill-opacity="1"
       d="M 662.683594 359.851562 C 637.75 384.789062 384.785156 637.757812 359.847656 662.695312 C 334.914062 637.757812 81.953125 384.789062 57.019531 359.851562 C 81.953125 334.917969 334.914062 81.953125 359.847656 57.015625 C 384.785156 81.953125 637.75 334.917969 662.683594 359.851562 Z M 0 359.851562 L 359.847656 719.71875 L 719.707031 359.851562 L 359.847656 -0.00390625 L 0 359.851562 "
       id="path2" />
  </g>
  <path
     fill-rule="nonzero"
     fill="rgb(6.30188%, 5.761719%, 5.056763%)"
     fill-opacity="1"
     d="M 322.59375 393.679688 C 319.714844 393.679688 317.378906 396.015625 317.378906 398.890625 C 317.378906 401.773438 319.714844 404.105469 322.59375 404.105469 C 325.476562 404.105469 327.808594 401.773438 327.808594 398.890625 C 327.808594 396.015625 325.476562 393.679688 322.59375 393.679688 "
     id="path3" />
  <path
     fill-rule="nonzero"
     fill="rgb(6.30188%, 5.761719%, 5.056763%)"
     fill-opacity="1"
     d="M 401.609375 443.730469 C 401.609375 440.726562 399.175781 438.285156 396.167969 438.285156 C 393.164062 438.285156 390.726562 440.726562 390.726562 443.730469 C 390.726562 444.417969 390.859375 445.074219 391.09375 445.679688 C 389.121094 445.957031 387.597656 447.632812 387.597656 449.683594 C 387.597656 450.257812 387.71875 450.804688 387.9375 451.300781 C 388.503906 452.734375 389.898438 453.753906 391.535156 453.753906 L 391.640625 453.742188 L 391.652344 453.742188 C 393.902344 453.742188 395.71875 451.925781 395.71875 449.683594 C 395.71875 449.5 395.691406 449.324219 395.664062 449.144531 C 395.832031 449.160156 396 449.171875 396.167969 449.171875 C 399.175781 449.171875 401.609375 446.734375 401.609375 443.730469 "
     id="path4" />
  <path
     fill-rule="nonzero"
     fill="rgb(6.30188%, 5.761719%, 5.056763%)"
     fill-opacity="1"
     d="M 348.453125 450.230469 C 348.453125 453.035156 350.726562 455.308594 353.53125 455.308594 C 356.335938 455.308594 358.605469 453.035156 358.605469 450.230469 C 358.605469 447.429688 356.335938 445.152344 353.53125 445.152344 C 350.726562 445.152344 348.453125 447.429688 348.453125 450.230469 "
     id="path5" />
  <path
     fill-rule="nonzero"
     fill="rgb(6.30188%, 5.761719%, 5.056763%)"
     fill-opacity="1"
     d="M 332.132812 423.765625 C 334.9375 423.765625 337.210938 421.488281 337.210938 418.6875 C 337.210938 415.882812 334.9375 413.609375 332.132812 413.609375 C 330.734375 413.609375 329.46875 414.179688 328.546875 415.09375 C 328.164062 413.484375 326.726562 412.285156 325.003906 412.285156 C 322.984375 412.285156 321.347656 413.921875 321.347656 415.941406 C 321.347656 417.960938 322.984375 419.597656 325.003906 419.597656 C 325.777344 419.597656 326.492188 419.351562 327.085938 418.941406 C 327.21875 421.625 329.417969 423.765625 332.132812 423.765625 "
     id="path6" />
  <path
     fill-rule="nonzero"
     fill="rgb(6.30188%, 5.761719%, 5.056763%)"
     fill-opacity="1"
     d="M 388.058594 405.265625 C 387.164062 405.265625 386.324219 405.484375 385.578125 405.867188 C 385.078125 404.183594 383.535156 402.945312 381.6875 402.945312 C 379.433594 402.945312 377.605469 404.773438 377.605469 407.027344 C 377.605469 409.285156 379.433594 411.109375 381.6875 411.109375 C 382.011719 411.109375 382.328125 411.0625 382.628906 410.988281 C 382.777344 413.863281 385.148438 416.148438 388.058594 416.148438 C 388.457031 416.148438 388.84375 416.105469 389.21875 416.023438 C 391.746094 415.734375 393.71875 413.613281 393.71875 411.007812 C 393.71875 410.078125 393.453125 409.226562 393.019531 408.476562 C 392.167969 406.585938 390.269531 405.265625 388.058594 405.265625 "
     id="path7" />
  <path
     fill-rule="nonzero"
     fill="rgb(6.30188%, 5.761719%, 5.056763%)"
     fill-opacity="1"
     d="M 368.480469 372.878906 C 368.480469 370.070312 366.207031 367.800781 363.40625 367.800781 C 360.601562 367.800781 358.328125 370.070312 358.328125 372.878906 C 358.328125 374.816406 359.425781 376.480469 361.023438 377.335938 C 359.5 377.773438 358.378906 379.164062 358.378906 380.832031 C 358.378906 382.851562 360.015625 384.484375 362.035156 384.484375 C 364.050781 384.484375 365.6875 382.851562 365.6875 380.832031 C 365.6875 379.613281 365.085938 378.539062 364.167969 377.875 C 366.605469 377.503906 368.480469 375.417969 368.480469 372.878906 "
     id="path8" />
  <path
     fill-rule="nonzero"
     fill="rgb(6.30188%, 5.761719%, 5.056763%)"
     fill-opacity="1"
     d="M 323.90625 445.894531 C 321.660156 445.894531 319.84375 447.714844 319.84375 449.957031 C 319.84375 452.199219 321.660156 454.015625 323.90625 454.015625 C 326.148438 454.015625 327.964844 452.199219 327.964844 449.957031 C 327.964844 447.714844 326.148438 445.894531 323.90625 445.894531 "
     id="path9" />
  <path
     fill-rule="nonzero"
     fill="rgb(6.30188%, 5.761719%, 5.056763%)"
     fill-opacity="1"
     d="M 352.617188 393.449219 C 352.617188 395.464844 354.253906 397.105469 356.273438 397.105469 C 358.292969 397.105469 359.929688 395.464844 359.929688 393.449219 C 359.929688 391.429688 358.292969 389.792969 356.273438 389.792969 C 354.253906 389.792969 352.617188 391.429688 352.617188 393.449219 "
     id="path10" />
  <path
     fill-rule="nonzero"
     fill="rgb(6.30188%, 5.761719%, 5.056763%)"
     fill-opacity="1"
     d="M 369.417969 491.921875 C 369.417969 489.636719 368.054688 487.671875 366.101562 486.785156 C 366.4375 486.195312 366.644531 485.519531 366.644531 484.796875 C 366.644531 482.550781 364.824219 480.730469 362.582031 480.730469 C 360.339844 480.730469 358.519531 482.550781 358.519531 484.796875 C 358.519531 486.007812 359.0625 487.082031 359.902344 487.824219 C 358.816406 488.851562 358.136719 490.304688 358.136719 491.921875 C 358.136719 495.035156 360.660156 497.558594 363.777344 497.558594 C 366.894531 497.558594 369.417969 495.035156 369.417969 491.921875 "
     id="path11" />
  <path
     fill-rule="nonzero"
     fill="rgb(6.30188%, 5.761719%, 5.056763%)"
     fill-opacity="1"
     d="M 355.945312 534.53125 C 357.292969 533.503906 358.171875 531.882812 358.171875 530.050781 C 358.171875 528.140625 357.21875 526.453125 355.761719 525.433594 C 356.582031 524.453125 357.074219 523.195312 357.074219 521.820312 C 357.074219 518.703125 354.546875 516.179688 351.433594 516.179688 C 350.960938 516.179688 350.507812 516.242188 350.074219 516.351562 C 350.703125 515.042969 351.070312 513.582031 351.070312 512.03125 C 351.070312 510.582031 350.75 509.207031 350.191406 507.964844 C 353.117188 507.753906 355.425781 505.320312 355.425781 502.34375 C 355.425781 499.914062 353.890625 497.851562 351.738281 497.058594 C 353.84375 495.234375 355.183594 492.546875 355.183594 489.539062 C 355.183594 486.101562 353.4375 483.066406 350.785156 481.28125 C 352.324219 479.53125 353.265625 477.238281 353.265625 474.726562 C 353.265625 472.523438 352.539062 470.496094 351.328125 468.851562 C 352.898438 468.289062 354.023438 466.804688 354.023438 465.042969 C 354.023438 462.800781 352.207031 460.980469 349.964844 460.980469 C 348.59375 460.980469 347.386719 461.664062 346.652344 462.707031 C 344.828125 460.457031 342.050781 459.015625 338.925781 459.015625 C 337.46875 459.015625 336.089844 459.339844 334.839844 459.902344 C 333.890625 458.132812 332.019531 456.921875 329.867188 456.921875 C 326.753906 456.921875 324.226562 459.449219 324.226562 462.566406 C 324.226562 465.394531 326.3125 467.730469 329.03125 468.136719 C 329.015625 468.347656 328.992188 468.558594 328.988281 468.773438 C 327.265625 467.34375 325.054688 466.484375 322.644531 466.484375 C 319.019531 466.484375 315.859375 468.425781 314.121094 471.320312 C 312.644531 469.695312 310.527344 468.671875 308.160156 468.671875 C 304.398438 468.671875 301.246094 471.253906 300.359375 474.738281 C 299.066406 473.855469 297.503906 473.335938 295.816406 473.335938 C 291.367188 473.335938 287.757812 476.941406 287.757812 481.394531 C 287.757812 482.015625 287.835938 482.621094 287.96875 483.203125 C 285.832031 481.257812 283 480.0625 279.878906 480.0625 C 274.914062 480.0625 270.65625 483.066406 268.8125 487.359375 C 267.519531 486.472656 265.957031 485.953125 264.269531 485.953125 C 259.820312 485.953125 256.210938 489.558594 256.210938 494.011719 C 256.210938 494.660156 256.289062 495.292969 256.433594 495.894531 L 354.15625 595.175781 C 355.433594 594.636719 356.328125 593.375 356.328125 591.902344 C 356.328125 590.507812 355.519531 589.316406 354.351562 588.730469 C 355.734375 588.246094 356.730469 586.941406 356.730469 585.394531 C 356.730469 583.929688 355.847656 582.675781 354.582031 582.132812 C 355.832031 581.304688 356.65625 579.890625 356.65625 578.28125 C 356.65625 576.085938 355.121094 574.257812 353.066406 573.785156 C 357.160156 570.964844 359.847656 566.25 359.847656 560.898438 C 359.847656 557.597656 358.820312 554.539062 357.074219 552.015625 C 359.890625 550.257812 361.765625 547.140625 361.765625 543.578125 C 361.765625 539.554688 359.378906 536.101562 355.945312 534.53125 "
     id="path12" />
  <path
     fill-rule="nonzero"
     fill="rgb(6.30188%, 5.761719%, 5.056763%)"
     fill-opacity="1"
     d="M 465.6875 490.089844 C 464.71875 490.089844 463.808594 490.335938 463.011719 490.765625 C 462.035156 487.414062 458.945312 484.964844 455.28125 484.964844 C 453.699219 484.964844 452.230469 485.429688 450.984375 486.214844 C 450.996094 486.007812 451.015625 485.804688 451.015625 485.59375 C 451.015625 480.097656 446.5625 475.644531 441.066406 475.644531 C 439.78125 475.644531 438.554688 475.898438 437.425781 476.34375 C 437.28125 473.351562 434.820312 470.972656 431.796875 470.972656 C 428.683594 470.972656 426.15625 473.496094 426.15625 476.613281 C 426.15625 476.859375 426.175781 477.097656 426.207031 477.335938 C 424.789062 475.023438 422.25 473.480469 419.34375 473.480469 C 418.878906 473.480469 418.429688 473.527344 417.988281 473.601562 C 417.925781 468.160156 413.503906 463.769531 408.046875 463.769531 C 407.492188 463.769531 406.949219 463.824219 406.417969 463.914062 C 406.148438 461.050781 403.738281 458.808594 400.804688 458.808594 C 398.375 458.808594 396.308594 460.347656 395.515625 462.503906 C 395.265625 462.484375 395.015625 462.464844 394.757812 462.464844 C 393.625 462.464844 392.53125 462.632812 391.488281 462.925781 C 390.523438 460.367188 388.058594 458.546875 385.164062 458.546875 C 381.425781 458.546875 378.394531 461.578125 378.394531 465.316406 C 378.394531 466.46875 378.683594 467.550781 379.191406 468.503906 C 378.214844 467.695312 376.96875 467.207031 375.605469 467.207031 C 372.488281 467.207031 369.964844 469.730469 369.964844 472.847656 C 369.964844 475.527344 371.835938 477.765625 374.339844 478.339844 C 373.605469 479.726562 373.1875 481.308594 373.1875 482.984375 C 373.1875 486.214844 374.730469 489.074219 377.109375 490.890625 C 376.199219 492.585938 375.683594 494.519531 375.683594 496.578125 C 375.683594 499.773438 376.933594 502.664062 378.960938 504.820312 C 378.296875 506.3125 377.921875 507.960938 377.921875 509.699219 C 377.921875 510.371094 377.992188 511.027344 378.097656 511.671875 C 377.28125 511.105469 376.316406 510.738281 375.265625 510.667969 C 375.953125 509.730469 376.367188 508.578125 376.367188 507.328125 C 376.367188 504.214844 373.839844 501.6875 370.726562 501.6875 C 367.609375 501.6875 365.085938 504.214844 365.085938 507.328125 C 365.085938 508.824219 365.667969 510.179688 366.617188 511.1875 C 364.253906 511.859375 362.523438 514.03125 362.523438 516.609375 C 362.523438 519.722656 365.050781 522.246094 368.164062 522.246094 C 368.34375 522.246094 368.515625 522.21875 368.6875 522.203125 C 367.648438 523.980469 367.042969 526.046875 367.042969 528.257812 C 367.042969 532.457031 369.191406 536.144531 372.449219 538.300781 C 368.144531 540.132812 365.121094 544.402344 365.121094 549.378906 C 365.121094 552.988281 366.714844 556.214844 369.230469 558.421875 C 366.625 560.214844 364.914062 563.214844 364.914062 566.617188 C 364.914062 568.007812 365.199219 569.328125 365.710938 570.527344 C 364.988281 571.738281 364.5625 573.144531 364.5625 574.65625 C 364.5625 576.40625 365.125 578.019531 366.070312 579.339844 C 365.253906 579.988281 364.71875 580.980469 364.71875 582.105469 C 364.71875 583.324219 365.335938 584.398438 366.269531 585.039062 C 365.296875 585.671875 364.652344 586.765625 364.652344 588.011719 C 364.652344 588.238281 364.679688 588.457031 364.71875 588.671875 C 363.910156 589.320312 363.378906 590.308594 363.378906 591.433594 C 363.378906 592.902344 364.273438 594.167969 365.546875 594.707031 L 471.007812 497.621094 C 471.214844 497.03125 471.332031 496.394531 471.332031 495.730469 C 471.332031 492.613281 468.804688 490.089844 465.6875 490.089844 "
     id="path13" />
  <path
     fill-rule="nonzero"
     fill="rgb(6.30188%, 5.761719%, 5.056763%)"
     fill-opacity="1"
     d="M 457.476562 381.023438 L 457.480469 381.074219 C 456.472656 380.828125 455.429688 380.683594 454.34375 380.683594 C 447.089844 380.683594 441.210938 386.558594 441.210938 393.816406 C 441.210938 394.496094 441.277344 395.160156 441.378906 395.8125 C 440.605469 395.476562 439.75 395.28125 438.851562 395.28125 C 436.777344 395.28125 434.945312 396.285156 433.796875 397.828125 C 432.609375 397.433594 431.339844 397.214844 430.023438 397.214844 C 423.546875 397.214844 418.28125 402.328125 418.011719 408.734375 C 417.597656 408.652344 417.171875 408.605469 416.734375 408.605469 C 413.25 408.605469 410.425781 411.429688 410.425781 414.914062 C 410.425781 415.972656 410.691406 416.96875 411.148438 417.84375 C 410.144531 417.28125 408.992188 416.953125 407.757812 416.953125 C 403.921875 416.953125 400.816406 420.0625 400.816406 423.894531 C 400.816406 425.894531 401.667969 427.691406 403.023438 428.957031 L 403.027344 429.027344 C 401.414062 429.183594 400.085938 430.261719 399.570312 431.738281 C 399.367188 432.191406 399.25 432.691406 399.25 433.222656 C 399.25 434.507812 399.917969 435.632812 400.917969 436.285156 C 401.609375 436.820312 402.46875 437.15625 403.410156 437.15625 C 405.15625 437.15625 406.632812 436.058594 407.21875 434.515625 C 408.167969 435.027344 409.246094 435.328125 410.398438 435.328125 C 410.917969 435.328125 411.421875 435.265625 411.910156 435.152344 C 411.867188 435.570312 411.84375 435.992188 411.84375 436.421875 C 411.84375 438.007812 412.15625 439.523438 412.71875 440.910156 C 410.476562 441.4375 408.800781 443.4375 408.800781 445.839844 C 408.800781 446.582031 408.96875 447.277344 409.25 447.914062 C 409.972656 449.746094 411.75 451.046875 413.839844 451.046875 C 415.570312 451.046875 417.085938 450.152344 417.96875 448.804688 C 418.296875 448.347656 418.554688 447.835938 418.722656 447.285156 C 420.289062 448.027344 422.03125 448.457031 423.878906 448.457031 C 424.449219 448.457031 425.007812 448.402344 425.558594 448.328125 C 425.230469 449.203125 425.042969 450.148438 425.042969 451.140625 C 425.042969 452.441406 425.367188 453.664062 425.917969 454.753906 C 425.660156 454.703125 425.398438 454.671875 425.125 454.671875 C 422.882812 454.671875 421.0625 456.492188 421.0625 458.734375 C 421.0625 460.976562 422.882812 462.796875 425.125 462.796875 C 427.148438 462.796875 428.8125 461.308594 429.121094 459.371094 C 430.214844 463.679688 434.105469 466.863281 438.75 466.863281 C 440.835938 466.863281 442.769531 466.222656 444.367188 465.125 C 444.847656 469.117188 448.242188 472.214844 452.363281 472.214844 C 454.464844 472.214844 456.371094 471.40625 457.804688 470.089844 C 457.789062 470.332031 457.765625 470.574219 457.765625 470.820312 C 457.765625 476.316406 462.222656 480.769531 467.714844 480.769531 C 469.597656 480.769531 471.351562 480.238281 472.851562 479.328125 C 472.097656 480.355469 471.648438 481.617188 471.648438 482.988281 C 471.648438 486.414062 474.429688 489.191406 477.855469 489.191406 C 479.925781 489.191406 481.757812 488.171875 482.882812 486.613281 L 482.886719 486.613281 L 536.761719 437.027344 L 536.761719 400.710938 C 536.761719 389.695312 524.902344 375.929688 510.570312 371.023438 C 507.355469 369.925781 486.117188 362.992188 486.117188 362.992188 C 483.671875 363.179688 481.679688 364.988281 481.207031 367.34375 C 480.460938 366.960938 479.617188 366.738281 478.722656 366.738281 C 475.71875 366.738281 473.28125 369.179688 473.28125 372.183594 C 473.28125 372.476562 473.308594 372.765625 473.355469 373.050781 C 471.699219 371.816406 469.652344 371.074219 467.425781 371.074219 C 461.933594 371.074219 457.476562 375.527344 457.476562 381.023438 "
     id="path14" />
  <path
     fill-rule="nonzero"
     fill="rgb(6.30188%, 5.761719%, 5.056763%)"
     fill-opacity="1"
     d="M 345.25 372.507812 L 345.226562 372.722656 L 344.972656 372.585938 C 345.066406 372.5625 345.15625 372.53125 345.25 372.507812 Z M 284.722656 211.035156 C 284.722656 240.730469 295.820312 282.394531 317.46875 307.9375 L 314.828125 335.027344 L 256.761719 356.035156 C 257.691406 360.566406 261.703125 363.976562 266.507812 363.976562 C 267.355469 363.976562 268.175781 363.859375 268.960938 363.660156 C 270.070312 367.945312 273.949219 371.109375 278.578125 371.109375 C 279.070312 371.109375 279.546875 371.0625 280.015625 370.996094 C 281.15625 375.234375 285.015625 378.359375 289.613281 378.359375 C 290.96875 378.359375 292.257812 378.085938 293.433594 377.597656 C 293.75 380.789062 296.4375 383.277344 299.710938 383.277344 C 300.355469 383.277344 300.980469 383.183594 301.566406 383.003906 C 302.371094 387.683594 306.445312 391.253906 311.359375 391.253906 C 315.183594 391.253906 318.496094 389.089844 320.164062 385.929688 C 321.835938 387.199219 323.910156 387.960938 326.171875 387.960938 C 327.636719 387.960938 329.023438 387.636719 330.273438 387.066406 C 331.570312 389.816406 333.976562 391.933594 336.910156 392.851562 C 336.789062 393.214844 336.710938 393.59375 336.710938 393.996094 C 336.710938 396.015625 338.34375 397.652344 340.363281 397.652344 C 342.382812 397.652344 344.019531 396.015625 344.019531 393.996094 C 344.019531 393.546875 343.925781 393.121094 343.777344 392.722656 C 348.042969 391.226562 351.101562 387.179688 351.101562 382.402344 C 351.101562 380.214844 350.460938 378.1875 349.355469 376.480469 C 351.144531 376.238281 352.523438 374.726562 352.523438 372.875 C 352.523438 371.296875 351.519531 369.964844 350.117188 369.453125 C 351.644531 367.707031 352.578125 365.429688 352.578125 362.925781 C 352.578125 362.445312 352.53125 361.980469 352.46875 361.519531 C 356.21875 360.097656 358.886719 356.476562 358.886719 352.226562 C 358.886719 349.570312 357.828125 347.171875 356.128906 345.390625 C 356.441406 345.472656 356.761719 345.535156 357.097656 345.535156 C 359.113281 345.535156 360.75 343.898438 360.75 341.878906 C 360.75 339.859375 359.113281 338.222656 357.097656 338.222656 C 356.292969 338.222656 355.558594 338.488281 354.957031 338.925781 C 354.222656 337.574219 352.90625 336.589844 351.335938 336.328125 C 352.566406 334.316406 353.289062 331.960938 353.289062 329.425781 C 353.289062 327.785156 352.976562 326.222656 352.433594 324.773438 C 356.203125 323.359375 358.886719 319.734375 358.886719 315.46875 C 358.886719 312.988281 357.972656 310.726562 356.46875 308.980469 C 359.234375 308.066406 361.226562 305.46875 361.226562 302.398438 C 361.226562 299.875 359.878906 297.675781 357.867188 296.460938 C 358.808594 295.277344 359.371094 293.78125 359.371094 292.152344 C 359.371094 291.738281 359.328125 291.332031 359.257812 290.933594 C 360.699219 290.867188 362.027344 290.378906 363.109375 289.566406 C 363.027344 289.988281 362.984375 290.429688 362.984375 290.875 C 362.984375 293.339844 364.269531 295.496094 366.199219 296.726562 C 365.816406 297.785156 365.597656 298.917969 365.597656 300.109375 C 365.597656 304.15625 368.023438 307.632812 371.492188 309.1875 C 371.171875 310.324219 370.988281 311.519531 370.988281 312.757812 C 370.988281 316.964844 372.972656 320.703125 376.050781 323.105469 C 373.355469 324.285156 371.46875 326.972656 371.46875 330.101562 C 371.46875 333.226562 373.347656 335.910156 376.035156 337.089844 C 375.496094 338.019531 375.183594 339.097656 375.183594 340.253906 C 375.183594 342.777344 376.667969 344.949219 378.8125 345.957031 C 378.195312 347.480469 377.847656 349.140625 377.847656 350.886719 C 377.847656 352.988281 378.351562 354.96875 379.230469 356.730469 C 378.8125 357.207031 378.421875 357.707031 378.074219 358.238281 C 377.410156 357.566406 376.492188 357.152344 375.476562 357.152344 C 373.457031 357.152344 371.820312 358.785156 371.820312 360.808594 C 371.820312 362.824219 373.457031 364.460938 375.476562 364.460938 C 375.648438 364.460938 375.8125 364.433594 375.976562 364.410156 C 375.953125 364.746094 375.925781 365.082031 375.925781 365.425781 C 375.925781 367.960938 376.65625 370.316406 377.898438 372.320312 C 376.835938 374.339844 376.230469 376.636719 376.230469 379.074219 C 376.230469 382.8125 377.648438 386.210938 379.964844 388.789062 C 379.320312 389.824219 378.941406 391.042969 378.941406 392.351562 C 378.941406 396.089844 381.972656 399.121094 385.710938 399.121094 C 389.039062 399.121094 391.800781 396.714844 392.367188 393.554688 C 394.199219 393.355469 395.921875 392.816406 397.484375 392.007812 C 398.289062 393.746094 400.039062 394.960938 402.082031 394.960938 C 404.886719 394.960938 407.160156 392.6875 407.160156 389.882812 C 407.160156 387.757812 405.851562 385.945312 404.003906 385.1875 C 404.515625 384.078125 404.878906 382.890625 405.105469 381.65625 C 406.203125 381.953125 407.347656 382.125 408.535156 382.125 C 408.6875 382.125 408.832031 382.105469 408.984375 382.101562 C 409.878906 384.390625 412.097656 386.011719 414.703125 386.011719 C 416.707031 386.011719 418.484375 385.046875 419.605469 383.558594 C 420.234375 385.871094 422.339844 387.566406 424.847656 387.566406 C 426.75 387.566406 428.421875 386.59375 429.394531 385.117188 C 430.449219 385.765625 431.683594 386.144531 433.015625 386.144531 C 436.847656 386.144531 439.953125 383.035156 439.953125 379.203125 C 439.953125 377.925781 439.601562 376.730469 438.996094 375.699219 C 439.523438 375.871094 440.085938 375.964844 440.667969 375.964844 C 443.675781 375.964844 446.113281 373.527344 446.113281 370.523438 C 446.113281 370.265625 446.089844 370.015625 446.054688 369.769531 C 447.207031 372 449.53125 373.527344 452.214844 373.527344 C 456 373.527344 459.070312 370.496094 459.148438 366.730469 C 460.957031 365.609375 462.214844 363.683594 462.414062 361.453125 C 462.769531 361.566406 463.136719 361.644531 463.527344 361.644531 C 465.546875 361.644531 467.183594 360.007812 467.183594 357.988281 C 467.183594 357.566406 467.109375 357.164062 466.980469 356.789062 L 461.429688 355 L 403.460938 336.328125 L 403.226562 311.570312 C 412.03125 302.097656 418.898438 289.871094 423.871094 276.617188 C 433.296875 251.492188 438.378906 224.941406 438.378906 211.035156 C 438.378906 175.015625 403.980469 128.308594 361.550781 128.308594 C 319.121094 128.308594 284.722656 165.347656 284.722656 211.035156 "
     id="path15" />
  <path
     fill-rule="nonzero"
     fill="rgb(6.30188%, 5.761719%, 5.056763%)"
     fill-opacity="1"
     d="M 269.324219 473.355469 C 269.324219 472.960938 269.296875 472.574219 269.253906 472.191406 C 270.730469 474.019531 272.984375 475.1875 275.515625 475.1875 C 279.96875 475.1875 283.574219 471.582031 283.574219 467.128906 C 283.574219 465.925781 283.304688 464.785156 282.832031 463.761719 C 284.445312 463.199219 285.820312 462.132812 286.785156 460.757812 C 287.808594 461.800781 289.230469 462.449219 290.808594 462.449219 C 293.925781 462.449219 296.449219 459.921875 296.449219 456.808594 C 296.449219 455.1875 295.765625 453.730469 294.667969 452.703125 C 296.730469 451.695312 298.300781 449.839844 298.917969 447.589844 C 300.214844 449.011719 302.011719 449.972656 304.03125 450.183594 C 303.21875 451.160156 302.726562 452.417969 302.726562 453.792969 C 302.726562 456.90625 305.253906 459.433594 308.367188 459.433594 C 311.480469 459.433594 314.007812 456.90625 314.007812 453.792969 C 314.007812 451.238281 312.3125 449.089844 309.988281 448.390625 C 311.78125 446.910156 312.925781 444.671875 312.925781 442.167969 C 312.925781 441.429688 312.820312 440.71875 312.632812 440.039062 C 312.878906 440.0625 313.121094 440.078125 313.371094 440.078125 C 314.507812 440.078125 315.585938 439.839844 316.566406 439.414062 C 316.652344 441.585938 318.425781 443.320312 320.613281 443.320312 C 322.855469 443.320312 324.675781 441.503906 324.675781 439.257812 C 324.675781 437.066406 322.9375 435.296875 320.769531 435.214844 C 321.191406 434.234375 321.429688 433.152344 321.429688 432.019531 C 321.429688 431.324219 321.324219 430.660156 321.160156 430.019531 C 323.179688 430.019531 324.816406 428.382812 324.816406 426.363281 C 324.816406 424.347656 323.179688 422.710938 321.160156 422.710938 C 321.054688 422.710938 320.957031 422.730469 320.851562 422.742188 C 320.644531 419.699219 319.078125 417.035156 316.746094 415.355469 C 316.761719 415.121094 316.78125 414.890625 316.78125 414.652344 C 316.78125 409.15625 312.328125 404.703125 306.835938 404.703125 C 304.917969 404.703125 303.136719 405.253906 301.617188 406.191406 C 301.835938 405.617188 301.960938 404.996094 301.960938 404.347656 C 301.960938 401.464844 299.628906 399.132812 296.746094 399.132812 C 296.234375 399.132812 295.738281 399.207031 295.269531 399.347656 C 295.339844 398.878906 295.382812 398.402344 295.382812 397.917969 C 295.382812 392.421875 290.933594 387.972656 285.4375 387.972656 C 283.738281 387.972656 282.136719 388.398438 280.738281 389.148438 C 279.476562 387.101562 277.503906 385.542969 275.15625 384.835938 C 275.457031 384.175781 275.628906 383.445312 275.628906 382.675781 C 275.628906 379.796875 273.292969 377.460938 270.414062 377.460938 C 269.738281 377.460938 269.09375 377.59375 268.5 377.828125 C 268.460938 372.363281 264.027344 367.945312 258.554688 367.945312 C 257.671875 367.945312 256.824219 368.070312 256.007812 368.285156 C 255.214844 366.421875 253.363281 365.117188 251.210938 365.117188 C 249.9375 365.117188 248.773438 365.574219 247.867188 366.332031 C 247.519531 363.789062 245.347656 361.824219 242.710938 361.824219 C 241.707031 361.824219 240.773438 362.113281 239.980469 362.601562 C 226.183594 367.886719 214.730469 372.296875 210.359375 374.042969 C 200.621094 377.933594 193.378906 388.339844 193.378906 398.652344 L 193.378906 431.882812 L 247.203125 486.527344 C 247.753906 486.648438 248.324219 486.710938 248.910156 486.710938 C 251.898438 486.710938 254.5 485.078125 255.894531 482.664062 C 256.976562 483.070312 258.148438 483.304688 259.378906 483.304688 C 264.871094 483.304688 269.324219 478.851562 269.324219 473.355469 "
     id="path16" />
</svg>
