<?xml version="1.0" encoding="UTF-8" standalone="no"?>
<svg
   width="719.71pt"
   height="719.72pt"
   viewBox="0 0 719.71 719.72"
   version="1.1"
   id="svg18"
   sodipodi:docname="skull.svg"
   inkscape:version="1.3 (0e150ed, 2023-07-21)"
   xmlns:inkscape="http://www.inkscape.org/namespaces/inkscape"
   xmlns:sodipodi="http://sodipodi.sourceforge.net/DTD/sodipodi-0.dtd"
   xmlns="http://www.w3.org/2000/svg"
   xmlns:svg="http://www.w3.org/2000/svg">
  <sodipodi:namedview
     id="namedview18"
     pagecolor="#ffffff"
     bordercolor="#000000"
     borderopacity="0.25"
     inkscape:showpageshadow="2"
     inkscape:pageopacity="0.0"
     inkscape:pagecheckerboard="0"
     inkscape:deskcolor="#d1d1d1"
     inkscape:document-units="pt"
     inkscape:zoom="0.24592898"
     inkscape:cx="479.81331"
     inkscape:cy="477.78021"
     inkscape:window-width="1920"
     inkscape:window-height="1052"
     inkscape:window-x="0"
     inkscape:window-y="28"
     inkscape:window-maximized="0"
     inkscape:current-layer="svg18" />
  <defs
     id="defs1">
    <clipPath
       id="clip-0">
      <path
         clip-rule="nonzero"
         d="M 0 0 L 719.710938 0 L 719.710938 719.71875 L 0 719.71875 Z M 0 0 "
         id="path1" />
    </clipPath>
  </defs>
  <g
     clip-path="url(#clip-0)"
     id="g2">
    <path
       fill-rule="nonzero"
       fill="rgb(93.605042%, 18.151855%, 19.448853%)"
       fill-opacity="1"
       d="M 662.6875 359.851562 C 637.753906 384.789062 384.789062 637.761719 359.851562 662.695312 C 334.914062 637.761719 81.957031 384.789062 57.023438 359.851562 C 81.957031 334.917969 334.914062 81.953125 359.851562 57.015625 C 384.785156 81.953125 637.753906 334.917969 662.6875 359.851562 Z M 0 359.851562 L 359.851562 719.71875 L 719.707031 359.851562 L 359.851562 -0.00390625 L 0 359.851562 "
       id="path2" />
  </g>
  <path
     fill-rule="nonzero"
     fill="rgb(6.30188%, 5.761719%, 5.056763%)"
     fill-opacity="1"
     d="M 514.550781 429.371094 L 519.941406 426.8125 C 520.78125 426.417969 521.558594 426.050781 522.285156 425.703125 C 522.742188 423.523438 523.039062 422.113281 523.054688 422.058594 C 523.652344 419.203125 521.828125 416.402344 518.976562 415.800781 C 516.121094 415.195312 513.320312 417.019531 512.722656 419.875 C 512.515625 420.855469 507.636719 443.960938 506.5625 450.402344 C 505.9375 454.152344 501.4375 456.671875 497.621094 456.671875 C 491.421875 456.671875 485.371094 449.558594 485.03125 446.878906 C 482.984375 430.523438 473.121094 422.558594 465.210938 418.753906 L 414.210938 394.226562 C 411.757812 396.890625 408.964844 399.488281 405.851562 401.921875 L 460.632812 428.269531 C 468.8125 432.203125 473.367188 438.71875 474.554688 448.191406 C 475.492188 455.679688 485.820312 467.230469 497.621094 467.230469 C 505.898438 467.230469 515.402344 461.585938 516.980469 452.140625 C 517.398438 449.609375 518.476562 444.203125 519.605469 438.660156 L 519.136719 438.882812 L 514.550781 429.371094 "
     id="path3" />
  <path
     fill-rule="nonzero"
     fill="rgb(6.30188%, 5.761719%, 5.056763%)"
     fill-opacity="1"
     d="M 473.683594 411.292969 L 476.285156 412.5625 C 479.371094 414.230469 481.296875 414.910156 488.015625 414.910156 C 492.675781 414.910156 496.8125 413.363281 500.808594 411.867188 C 505.230469 410.214844 509.808594 408.503906 515.773438 408.503906 C 522.835938 408.503906 531.851562 413.476562 531.851562 417.371094 C 531.851562 420.53125 531.46875 421.320312 522.285156 425.703125 C 521.558594 426.050781 520.78125 426.417969 519.941406 426.8125 L 514.550781 429.371094 L 519.136719 438.882812 L 519.605469 438.660156 L 524.433594 436.371094 C 535.644531 431.105469 542.410156 427.925781 542.410156 417.371094 C 542.410156 405.511719 526.636719 397.941406 515.773438 397.941406 C 507.894531 397.941406 501.914062 400.179688 497.109375 401.976562 C 493.703125 403.25 490.765625 404.351562 488.015625 404.351562 C 483.300781 404.351562 482.835938 404.101562 481.304688 403.273438 L 477.78125 401.558594 C 474.070312 399.996094 443.238281 385.296875 425.121094 376.625 C 424.144531 379.648438 422.585938 382.867188 420.5 386.121094 C 431.273438 391.273438 469.285156 409.441406 473.683594 411.292969 "
     id="path4" />
  <path
     fill-rule="nonzero"
     fill="rgb(6.30188%, 5.761719%, 5.056763%)"
     fill-opacity="1"
     d="M 427.925781 337.308594 L 426.355469 338.253906 L 426.355469 347.550781 C 434.894531 343.648438 467.679688 328.632812 475.734375 324.484375 C 484.859375 319.785156 491.796875 309.734375 495.9375 303.726562 L 497.527344 301.457031 C 500.273438 297.679688 506.003906 293.265625 513.089844 293.265625 C 515.425781 293.265625 516.433594 294.027344 516.988281 294.601562 C 520.390625 298.113281 520.0625 308.382812 519.828125 315.882812 L 519.695312 321.835938 C 519.632812 324.75 521.945312 327.046875 524.859375 327.109375 C 527.773438 327.175781 530.191406 324.75 530.257812 321.835938 L 530.304688 319.710938 C 529.492188 317.5 527.519531 314.378906 524.007812 312.667969 L 528.636719 303.175781 C 529.246094 303.472656 529.828125 303.804688 530.398438 304.148438 C 530.011719 297.589844 528.625 291.4375 524.578125 287.253906 C 521.648438 284.234375 517.785156 282.703125 513.089844 282.703125 C 502.046875 282.703125 493.394531 289.183594 488.984375 295.246094 L 487.246094 297.734375 C 483.898438 302.582031 477.675781 311.609375 470.902344 315.09375 C 466.035156 317.601562 451.691406 324.273438 439.457031 329.917969 C 436.699219 331.925781 433.808594 333.699219 431.011719 335.40625 L 427.925781 337.308594 "
     id="path5" />
  <path
     fill-rule="nonzero"
     fill="rgb(6.30188%, 5.761719%, 5.056763%)"
     fill-opacity="1"
     d="M 524.007812 312.667969 C 527.519531 314.378906 529.492188 317.5 530.304688 319.710938 C 530.601562 320.519531 530.746094 321.210938 530.746094 321.660156 L 530.746094 331.824219 C 530.746094 334.710938 529.90625 338.144531 525.921875 338.144531 C 522.648438 338.144531 518.464844 336.105469 514.425781 334.132812 C 509.765625 331.859375 505.359375 329.710938 500.855469 329.710938 L 500.09375 329.683594 C 497.460938 329.558594 491.980469 329.300781 484.257812 332.914062 L 484.109375 332.984375 L 426.355469 362.234375 L 426.355469 369.601562 C 426.355469 371.09375 426.148438 372.699219 425.753906 374.378906 C 438.160156 368.09375 488.558594 342.570312 488.765625 342.46875 C 494.101562 339.976562 497.40625 340.128906 499.59375 340.230469 L 500.855469 340.269531 C 502.921875 340.269531 506.414062 341.976562 509.796875 343.625 C 514.679688 346.007812 520.210938 348.703125 525.921875 348.703125 C 534.980469 348.703125 541.304688 341.765625 541.304688 331.824219 L 541.304688 321.660156 C 541.304688 316.140625 537.492188 308.449219 530.398438 304.148438 C 529.828125 303.804688 529.246094 303.472656 528.636719 303.175781 L 524.007812 312.667969 "
     id="path6" />
  <path
     fill-rule="nonzero"
     fill="rgb(6.30188%, 5.761719%, 5.056763%)"
     fill-opacity="1"
     d="M 406.726562 313.144531 C 424.320312 313.144531 431.730469 291.050781 431.730469 285.359375 C 431.730469 279.671875 427.234375 277.289062 424.585938 277.289062 C 421.941406 277.289062 394.683594 277.289062 391.109375 277.289062 C 387.535156 277.289062 378.9375 280.199219 378.9375 285.757812 C 378.9375 287.839844 380.496094 292.414062 383.855469 296.863281 C 389.652344 304.546875 394.683594 313.144531 406.726562 313.144531 "
     id="path7" />
  <path
     fill-rule="nonzero"
     fill="rgb(6.30188%, 5.761719%, 5.056763%)"
     fill-opacity="1"
     d="M 293.953125 187.109375 C 290.84375 190.164062 287.628906 193.320312 283.996094 196.640625 L 279.242188 200.957031 C 264.882812 213.964844 254.503906 223.359375 254.503906 233.433594 C 254.503906 250.324219 264.925781 265.371094 272.535156 276.359375 L 273.882812 278.355469 C 274.570312 273.464844 275.246094 269.574219 275.617188 268.09375 C 274.621094 263.5625 273.90625 260.511719 273.390625 258.390625 C 268.867188 250.726562 265.0625 242.105469 265.0625 233.433594 C 265.0625 228.042969 275.394531 218.6875 286.328125 208.785156 L 291.113281 204.4375 C 294.890625 200.988281 298.175781 197.765625 301.351562 194.644531 C 308.589844 187.539062 314.304688 181.925781 320.953125 178.554688 C 335.945312 170.957031 349.554688 168.152344 363.773438 168.152344 C 393.136719 168.152344 407.394531 180.398438 425.441406 196.835938 L 435.019531 205.421875 L 438.589844 208.519531 C 450.070312 218.46875 460.921875 227.863281 460.921875 233.433594 C 460.921875 240.335938 458.507812 247.210938 455.242188 253.59375 C 454.898438 255.75 454.261719 258.585938 453.078125 263.832031 C 453.078125 263.832031 451.03125 273.019531 450.585938 275.015625 C 450.824219 275.960938 451.164062 277.390625 451.546875 279.175781 L 453.445312 276.359375 C 461.058594 265.371094 471.480469 250.324219 471.480469 233.433594 C 471.480469 223.039062 460.585938 213.601562 445.503906 200.535156 L 441.953125 197.457031 L 432.554688 189.027344 C 414.382812 172.484375 397.222656 156.855469 363.773438 156.855469 C 348.050781 156.855469 332.480469 160.871094 316.179688 169.136719 C 308.070312 173.246094 301.527344 179.671875 293.953125 187.109375 "
     id="path8" />
  <path
     fill-rule="nonzero"
     fill="rgb(6.30188%, 5.761719%, 5.056763%)"
     fill-opacity="1"
     d="M 453.078125 263.832031 C 454.261719 258.585938 454.898438 255.75 455.242188 253.59375 C 455.617188 251.238281 455.644531 249.691406 455.644531 246.707031 C 455.644531 235.335938 452.503906 230.433594 440.894531 218.300781 L 433.265625 225.597656 C 444.140625 236.96875 445.085938 239.390625 445.085938 246.707031 C 445.085938 251.257812 445.085938 251.257812 442.777344 261.511719 L 439.710938 275.257812 L 440.066406 276.511719 C 440.101562 276.640625 443.652344 289.691406 443.652344 302.214844 C 443.652344 315.304688 435.644531 320.199219 425.503906 326.398438 L 422.316406 328.359375 L 411.433594 334.921875 C 399.9375 341.671875 394.195312 344.65625 394.195312 356.445312 L 394.195312 363.183594 C 394.195312 367.09375 379.417969 377.113281 363.667969 377.113281 C 349.203125 377.113281 333.285156 367.089844 332.707031 363.476562 C 332.710938 358.648438 332.914062 356.550781 332.914062 356.550781 C 332.914062 344.988281 327.3125 341.738281 316.148438 335.257812 C 313.042969 333.453125 309.175781 331.210938 304.625 328.359375 L 301.441406 326.398438 C 291.304688 320.199219 284.0625 316.679688 284.0625 302.214844 C 284.0625 286.984375 287.6875 281.539062 287.6875 276.84375 C 287.6875 272.144531 282.617188 253.820312 282.617188 250.96875 C 282.617188 250.601562 282.660156 247.507812 282.660156 247.507812 C 282.660156 240.65625 283.53125 234.9375 294.121094 225.523438 C 294.980469 224.761719 296.285156 222.433594 295.242188 221.144531 C 294.195312 219.855469 293.773438 219.320312 292.554688 217.875 C 291.335938 216.433594 288.128906 216.726562 287.1875 217.5625 C 274.660156 228.691406 272.101562 237.117188 272.101562 247.507812 C 272.101562 247.507812 272.058594 250.59375 272.058594 251.054688 C 272.058594 253.875 271.9375 252.449219 273.390625 258.390625 C 273.90625 260.511719 274.621094 263.5625 275.617188 268.09375 C 275.246094 269.574219 274.570312 273.464844 273.882812 278.355469 C 272.800781 286.078125 271.6875 296.296875 271.6875 303.476562 C 271.6875 313.328125 276.222656 320.277344 282.160156 325.679688 C 289.386719 329.03125 296.847656 332.460938 302.351562 334.984375 L 310.1875 334.984375 L 310.1875 338.574219 C 310.59375 338.757812 310.828125 338.867188 310.855469 338.878906 L 310.1875 340.347656 L 310.1875 344.007812 C 310.410156 344.136719 310.636719 344.269531 310.851562 344.390625 C 321.507812 350.578125 322.3125 351.304688 322.351562 356.128906 C 322.195312 357.433594 322.148438 359.5625 322.148438 363.539062 C 322.148438 376.628906 347.652344 387.675781 363.667969 387.675781 C 381.4375 387.675781 404.972656 375.65625 404.972656 363.183594 L 404.972656 356.445312 C 404.972656 351.121094 405.535156 350.632812 415.796875 344.605469 L 415.796875 334.984375 L 426.355469 334.984375 L 426.355469 338.253906 L 427.925781 337.308594 L 431.011719 335.40625 C 433.808594 333.699219 436.699219 331.925781 439.457031 329.917969 C 447.410156 324.121094 454.210938 316.332031 454.210938 302.214844 C 454.210938 293.394531 452.703125 284.613281 451.546875 279.175781 C 451.164062 277.390625 450.824219 275.960938 450.585938 275.015625 C 451.03125 273.019531 453.078125 263.832031 453.078125 263.832031 "
     id="path9" />
  <path
     fill-rule="nonzero"
     fill="rgb(6.30188%, 5.761719%, 5.056763%)"
     fill-opacity="1"
     d="M 299.757812 371.707031 C 300.003906 373.851562 300.617188 376.167969 301.570312 378.585938 C 303.726562 377.554688 305.753906 376.582031 307.621094 375.6875 C 306.960938 375.355469 304.039062 373.875 299.757812 371.707031 "
     id="path10" />
  <path
     fill-rule="nonzero"
     fill="rgb(6.30188%, 5.761719%, 5.056763%)"
     fill-opacity="1"
     d="M 426.355469 362.234375 L 426.355469 334.984375 L 415.796875 334.984375 L 415.796875 369.601562 C 415.796875 376.589844 406.21875 391.511719 388.902344 400.21875 L 388.339844 400.5 C 379.960938 404.710938 369.535156 409.527344 365.222656 409.527344 C 361.246094 409.527344 347.8125 405.609375 337.078125 400.21875 C 319.765625 391.511719 310.1875 376.589844 310.1875 369.601562 L 310.1875 340.347656 L 306.476562 348.488281 C 306.070312 348.300781 303.464844 347.113281 299.628906 345.355469 L 299.628906 359.804688 L 304.671875 362.355469 L 307.742188 375.632812 C 308.015625 375.5 308.296875 375.367188 308.5625 375.238281 L 313.125 384.761719 C 312.695312 384.96875 310.269531 386.128906 306.652344 387.859375 C 308.59375 390.640625 310.914062 393.425781 313.589844 396.117188 L 318.117188 393.980469 L 328.304688 400.855469 L 322.417969 403.632812 C 325.460938 405.824219 328.769531 407.859375 332.339844 409.652344 C 341.054688 414.03125 357.527344 420.515625 365.222656 420.515625 C 372.039062 420.515625 382.265625 415.375 393.085938 409.933594 L 393.644531 409.652344 C 398.121094 407.402344 402.203125 404.773438 405.851562 401.921875 C 408.964844 399.488281 411.757812 396.890625 414.210938 394.226562 C 416.65625 391.5625 418.761719 388.828125 420.5 386.121094 C 422.585938 382.867188 424.144531 379.648438 425.121094 376.625 C 425.371094 375.863281 425.578125 375.113281 425.753906 374.378906 C 426.148438 372.699219 426.355469 371.09375 426.355469 369.601562 L 426.355469 362.234375 "
     id="path11" />
  <path
     fill-rule="nonzero"
     fill="rgb(6.30188%, 5.761719%, 5.056763%)"
     fill-opacity="1"
     d="M 310.1875 334.984375 L 302.351562 334.984375 C 306.113281 336.714844 308.957031 338.011719 310.1875 338.574219 L 310.1875 334.984375 "
     id="path12" />
  <path
     fill-rule="nonzero"
     fill="rgb(6.30188%, 5.761719%, 5.056763%)"
     fill-opacity="1"
     d="M 318.117188 393.980469 L 313.589844 396.117188 L 273.480469 415.015625 L 265.578125 418.753906 C 257.664062 422.558594 247.804688 430.523438 245.753906 446.878906 C 245.417969 449.558594 239.363281 456.671875 233.164062 456.671875 C 229.351562 456.671875 224.847656 454.152344 224.226562 450.402344 C 223.148438 443.960938 218.273438 420.855469 218.066406 419.875 C 217.464844 417.019531 214.664062 415.195312 211.808594 415.800781 C 208.953125 416.402344 207.132812 419.203125 207.734375 422.058594 C 207.746094 422.113281 208.042969 423.523438 208.5 425.703125 C 209.226562 426.050781 210.003906 426.417969 210.84375 426.8125 L 216.234375 429.371094 L 211.648438 438.882812 L 211.179688 438.660156 C 212.308594 444.203125 213.386719 449.609375 213.808594 452.140625 C 215.382812 461.585938 224.886719 467.230469 233.164062 467.230469 C 244.964844 467.230469 255.292969 455.679688 256.230469 448.191406 C 257.417969 438.71875 261.972656 432.203125 270.152344 428.269531 L 277.945312 424.582031 L 322.417969 403.632812 L 328.304688 400.855469 L 318.117188 393.980469 "
     id="path13" />
  <path
     fill-rule="nonzero"
     fill="rgb(6.30188%, 5.761719%, 5.056763%)"
     fill-opacity="1"
     d="M 216.234375 429.371094 L 210.84375 426.8125 C 210.003906 426.417969 209.226562 426.050781 208.5 425.703125 C 199.320312 421.320312 198.9375 420.53125 198.9375 417.371094 C 198.9375 413.476562 207.949219 408.503906 215.011719 408.503906 C 220.980469 408.503906 225.554688 410.214844 229.980469 411.867188 C 233.976562 413.363281 238.109375 414.910156 242.773438 414.910156 C 249.488281 414.910156 251.414062 414.230469 254.503906 412.5625 L 257.101562 411.292969 C 261.171875 409.578125 292.746094 394.507812 306.652344 387.859375 C 310.269531 386.128906 312.695312 384.96875 313.125 384.761719 L 308.5625 375.238281 C 308.296875 375.367188 308.015625 375.5 307.742188 375.632812 L 307.769531 375.765625 C 307.769531 375.765625 307.714844 375.738281 307.621094 375.6875 C 305.753906 376.582031 303.726562 377.554688 301.570312 378.585938 C 283.25 387.34375 256.449219 400.109375 253.003906 401.558594 L 249.480469 403.273438 C 247.953125 404.101562 247.488281 404.351562 242.773438 404.351562 C 240.019531 404.351562 237.078125 403.25 233.679688 401.976562 C 228.871094 400.179688 222.890625 397.941406 215.011719 397.941406 C 204.148438 397.941406 188.378906 405.511719 188.378906 417.371094 C 188.378906 427.925781 195.144531 431.105469 206.355469 436.371094 L 211.179688 438.660156 L 211.648438 438.882812 L 216.234375 429.371094 "
     id="path14" />
  <path
     fill-rule="nonzero"
     fill="rgb(6.30188%, 5.761719%, 5.056763%)"
     fill-opacity="1"
     d="M 206.78125 312.667969 C 203.269531 314.378906 201.292969 317.5 200.480469 319.710938 L 200.527344 321.835938 C 200.59375 324.75 203.011719 327.175781 205.925781 327.109375 C 208.839844 327.046875 211.152344 324.75 211.089844 321.835938 L 210.960938 315.882812 C 210.722656 308.382812 210.394531 298.113281 213.796875 294.601562 C 214.355469 294.027344 215.363281 293.265625 217.695312 293.265625 C 224.785156 293.265625 230.511719 297.679688 233.261719 301.457031 L 234.851562 303.726562 C 238.988281 309.734375 245.925781 319.785156 255.050781 324.484375 C 262.132812 328.128906 287.304688 339.710938 299.628906 345.355469 C 303.464844 347.113281 306.070312 348.300781 306.476562 348.488281 L 310.1875 340.347656 L 310.855469 338.878906 C 310.828125 338.867188 310.59375 338.757812 310.1875 338.574219 C 308.957031 338.011719 306.113281 336.714844 302.351562 334.984375 C 296.847656 332.460938 289.386719 329.03125 282.160156 325.679688 C 272.664062 321.269531 263.578125 316.996094 259.882812 315.09375 C 253.113281 311.609375 246.886719 302.582031 243.539062 297.734375 L 241.800781 295.246094 C 237.390625 289.183594 228.738281 282.703125 217.695312 282.703125 C 213 282.703125 209.136719 284.234375 206.210938 287.253906 C 202.160156 291.433594 200.777344 297.589844 200.386719 304.148438 C 200.957031 303.804688 201.539062 303.472656 202.152344 303.175781 L 206.78125 312.667969 "
     id="path15" />
  <path
     fill-rule="nonzero"
     fill="rgb(6.30188%, 5.761719%, 5.056763%)"
     fill-opacity="1"
     d="M 307.769531 375.765625 L 307.742188 375.632812 L 304.671875 362.355469 L 299.628906 359.804688 L 246.605469 332.949219 L 246.527344 332.914062 C 238.808594 329.300781 233.328125 329.558594 230.691406 329.683594 L 229.929688 329.710938 C 225.425781 329.710938 221.023438 331.859375 216.359375 334.132812 C 212.316406 336.105469 208.136719 338.144531 204.863281 338.144531 C 200.878906 338.144531 200.039062 334.710938 200.039062 331.824219 L 200.039062 321.660156 C 200.039062 321.210938 200.1875 320.519531 200.480469 319.710938 C 201.292969 317.5 203.269531 314.378906 206.78125 312.667969 L 202.152344 303.175781 C 201.539062 303.472656 200.957031 303.804688 200.386719 304.148438 C 193.292969 308.449219 189.480469 316.140625 189.480469 321.660156 L 189.480469 331.824219 C 189.480469 341.765625 195.808594 348.703125 204.863281 348.703125 C 210.578125 348.703125 216.109375 346.007812 220.988281 343.625 C 224.371094 341.976562 227.863281 340.269531 229.929688 340.269531 L 231.191406 340.230469 C 233.378906 340.128906 236.6875 339.976562 242.023438 342.46875 C 242.207031 342.558594 282.265625 362.847656 299.757812 371.707031 C 304.039062 373.875 306.960938 375.355469 307.621094 375.6875 C 307.714844 375.738281 307.769531 375.765625 307.769531 375.765625 "
     id="path16" />
  <path
     fill-rule="nonzero"
     fill="rgb(6.30188%, 5.761719%, 5.056763%)"
     fill-opacity="1"
     d="M 319.261719 313.144531 C 331.300781 313.144531 336.328125 304.546875 342.128906 296.863281 C 345.488281 292.414062 347.046875 287.839844 347.046875 285.757812 C 347.046875 280.199219 338.445312 277.289062 334.871094 277.289062 C 331.300781 277.289062 304.042969 277.289062 301.394531 277.289062 C 298.75 277.289062 294.253906 279.671875 294.253906 285.359375 C 294.253906 291.050781 301.664062 313.144531 319.261719 313.144531 "
     id="path17" />
  <path
     fill-rule="nonzero"
     fill="rgb(6.30188%, 5.761719%, 5.056763%)"
     fill-opacity="1"
     d="M 353.984375 356.535156 C 362.214844 356.535156 359.4375 353.210938 366.464844 353.210938 C 372.195312 353.210938 370.257812 356.445312 378.019531 356.445312 C 385.230469 356.445312 386.988281 350.988281 386.988281 348.769531 C 386.988281 345.351562 383.113281 343.152344 381.351562 338.511719 C 379.589844 333.890625 376.171875 316.785156 365.726562 316.785156 C 361.886719 316.785156 359.667969 318.355469 356.757812 321.777344 C 352.042969 327.324219 351.664062 336.652344 348.714844 340.265625 C 345.851562 343.777344 344.738281 347.550781 344.738281 349.511719 C 344.738281 351.636719 345.757812 356.535156 353.984375 356.535156 "
     id="path18" />
</svg>
