<svg xmlns="http://www.w3.org/2000/svg" width="52" height="62.21"><defs><linearGradient id="a" x1="76.765" x2="22.746" y1="1.127" y2="53.45" gradientTransform="matrix(.80865 0 0 1.23663 -10 -2.88)" gradientUnits="userSpaceOnUse"><stop offset="0%" stop-color="#fbb743"/><stop offset="100%" stop-color="#f28333"/><stop offset="100%" stop-color="#ea6b00"/></linearGradient></defs><path fill="#b7bbbd" d="M35.94 7.12H50l2 2v44l-2 2H30.84l.97-1.5h17.57l1.12-1.12V9.74l-1.12-1.12H37.26l-1.43 7.39H34.3l1.37-7.46.28-1.43zM2 55.12l-2-2v-44l2-2h19.9l-1.01 1.5H2.62L1.5 9.74V52.5l1.12 1.12H17.1l-.24 1.5zm3-5h8.5l-.3 1.5H4l-.5-.5v-9l1.5 3zm34 0 1.5 1.5H33l1-1.5z"/><path fill="url(#a)" d="M22.67 37.12H9L7.34 34l23-34 3.62 1.5-4.54 23.62H43l1.68 3.09-22 34-3.66-1.4zm-17.17-23a1.5 1.5 0 1 1 0-3 1.5 1.5 0 0 1 0 3zm4 0a1.5 1.5 0 1 1 0-3 1.5 1.5 0 0 1 0 3zm4 0a1.5 1.5 0 1 1 0-3 1.5 1.5 0 0 1 0 3z" style="fill:url(#a)"/></svg>