<?xml version="1.0" encoding="UTF-8" standalone="no"?>
<!-- Generator: Adobe Illustrator 21.0.0, SVG Export Plug-In . SVG Version: 6.00 Build 0)  -->

<svg
   version="1.1"
   id="Layer_1"
   x="0px"
   y="0px"
   viewBox="0 0 341.2 154.3"
   xml:space="preserve"
   sodipodi:docname="cloudflare.svg"
   width="341.20001"
   height="154.3"
   inkscape:version="1.1 (c4e8f9e, 2021-05-24)"
   xmlns:inkscape="http://www.inkscape.org/namespaces/inkscape"
   xmlns:sodipodi="http://sodipodi.sourceforge.net/DTD/sodipodi-0.dtd"
   xmlns="http://www.w3.org/2000/svg"
   xmlns:svg="http://www.w3.org/2000/svg"><defs
   id="defs48">
	
	
</defs><sodipodi:namedview
   id="namedview46"
   pagecolor="#ffffff"
   bordercolor="#666666"
   borderopacity="1.0"
   inkscape:pageshadow="2"
   inkscape:pageopacity="0.0"
   inkscape:pagecheckerboard="0"
   showgrid="false"
   fit-margin-top="0"
   fit-margin-left="0"
   fit-margin-right="0"
   fit-margin-bottom="0"
   inkscape:zoom="0.99249576"
   inkscape:cx="540.55646"
   inkscape:cy="77.582195"
   inkscape:window-width="1440"
   inkscape:window-height="900"
   inkscape:window-x="0"
   inkscape:window-y="0"
   inkscape:window-maximized="0"
   inkscape:current-layer="Layer_1" />
<style
   type="text/css"
   id="style9">
	.st0{fill:#404041;}
	.st1{fill:#FFFFFF;}
	.st2{fill:#F38020;}
	.st3{fill:#FAAE40;}
</style>
<g
   id="g41"
   transform="translate(-78.3,-78)">
		<polygon
   class="st1"
   points="165.3,232.1 391.1,232.2 391.1,169.6 348.2,145 340.8,141.8 165.3,143.1 "
   id="polygon35" />
		<path
   class="st2"
   d="m 313,224 c 2.1,-7.2 1.3,-13.8 -2.2,-18.7 -3.2,-4.5 -8.6,-7.1 -15.1,-7.4 l -123.1,-1.6 c -0.8,0 -1.5,-0.4 -1.9,-1 -0.4,-0.6 -0.5,-1.4 -0.3,-2.2 0.4,-1.2 1.6,-2.1 2.9,-2.2 l 124.2,-1.6 c 14.7,-0.7 30.7,-12.6 36.3,-27.2 l 7.1,-18.5 c 0.3,-0.8 0.4,-1.6 0.2,-2.4 C 333.1,105 300.8,78 262.2,78 c -35.6,0 -65.8,23 -76.6,54.9 -7,-5.2 -15.9,-8 -25.5,-7.1 -17.1,1.7 -30.8,15.4 -32.5,32.5 -0.4,4.4 -0.1,8.7 0.9,12.7 -27.9,0.8 -50.2,23.6 -50.2,51.7 0,2.5 0.2,5 0.5,7.5 0.2,1.2 1.2,2.1 2.4,2.1 h 227.2 c 1.3,0 2.5,-0.9 2.9,-2.2 z"
   id="path37" />
		<path
   class="st3"
   d="m 352.2,144.9 c -1.1,0 -2.3,0 -3.4,0.1 -0.8,0 -1.5,0.6 -1.8,1.4 l -4.8,16.7 c -2.1,7.2 -1.3,13.8 2.2,18.7 3.2,4.5 8.6,7.1 15.1,7.4 l 26.2,1.6 c 0.8,0 1.5,0.4 1.9,1 0.4,0.6 0.5,1.5 0.3,2.2 -0.4,1.2 -1.6,2.1 -2.9,2.2 l -27.3,1.6 c -14.8,0.7 -30.7,12.6 -36.3,27.2 l -2,5.1 c -0.4,1 0.3,2 1.4,2 h 93.8 c 1.1,0 2.1,-0.7 2.4,-1.8 1.6,-5.8 2.5,-11.9 2.5,-18.2 0,-37.1 -30.1,-67.2 -67.3,-67.2"
   id="path39" />
	</g>
</svg>
