<?xml version="1.0" encoding="UTF-8" standalone="no"?>
<svg
   viewBox="0 0 52 62.209999"
   version="1.1"
   id="svg149"
   sodipodi:docname="cloudflare-pages.svg"
   width="52"
   height="62.209999"
   inkscape:version="1.2.2 (b0a8486, 2022-12-01)"
   xmlns:inkscape="http://www.inkscape.org/namespaces/inkscape"
   xmlns:sodipodi="http://sodipodi.sourceforge.net/DTD/sodipodi-0.dtd"
   xmlns="http://www.w3.org/2000/svg"
   xmlns:svg="http://www.w3.org/2000/svg">
  <sodipodi:namedview
     id="namedview151"
     pagecolor="#ffffff"
     bordercolor="#666666"
     borderopacity="1.0"
     inkscape:showpageshadow="2"
     inkscape:pageopacity="0.0"
     inkscape:pagecheckerboard="0"
     inkscape:deskcolor="#d1d1d1"
     showgrid="false"
     inkscape:zoom="3.4705882"
     inkscape:cx="76.932203"
     inkscape:cy="31.118644"
     inkscape:window-width="1280"
     inkscape:window-height="456"
     inkscape:window-x="1925"
     inkscape:window-y="445"
     inkscape:window-maximized="0"
     inkscape:current-layer="svg149" />
  <defs
     id="defs139">
    <linearGradient
       id="cloudflare-pages-logo-gradient"
       x1="76.764553"
       x2="22.745872"
       y1="1.1265952"
       y2="53.449964"
       gradientTransform="matrix(0.80864959,0,0,1.2366296,-10,-2.88)"
       gradientUnits="userSpaceOnUse">
      <stop
         offset="0%"
         stop-color="#fbb743"
         id="stop132" />
      <stop
         offset="100%"
         stop-color="#f28333"
         id="stop134" />
      <stop
         offset="100%"
         stop-color="#ea6b00"
         id="stop136" />
    </linearGradient>
  </defs>
  <path
     fill="#b7bbbd"
     d="M 35.94,7.12 H 50 l 2,2 v 44 l -2,2 H 30.84 l 0.97,-1.5 H 49.38 L 50.5,52.5 V 9.74 L 49.38,8.62 H 37.26 l -1.43,7.39 H 34.3 l 1.37,-7.46 0.28,-1.43 z m -33.94,48 -2,-2 v -44 l 2,-2 h 19.9 l -1.01,1.5 H 2.62 L 1.5,9.74 V 52.5 l 1.12,1.12 H 17.1 l -0.24,1.5 z m 3,-5 h 8.5 l -0.3,1.5 H 4 l -0.5,-0.5 v -9 l 1.5,3 z m 34,0 1.5,1.5 H 33 l 1,-1.5 z"
     id="path145" />
  <path
     fill="url(#cloudflare-pages-logo-gradient)"
     d="M 22.67,37.12 H 9 L 7.34,34 30.34,0 33.96,1.5 29.42,25.12 H 43 l 1.68,3.09 -22,34 -3.66,-1.4 z M 5.5,14.12 a 1.5,1.5 0 1 1 0,-3 1.5,1.5 0 0 1 0,3 z m 4,0 a 1.5,1.5 0 1 1 0,-3 1.5,1.5 0 0 1 0,3 z m 4,0 a 1.5,1.5 0 1 1 0,-3 1.5,1.5 0 0 1 0,3 z"
     id="path147"
     style="fill:url(#cloudflare-pages-logo-gradient)" />
</svg>
