<?xml version="1.0" encoding="UTF-8" standalone="no"?>
<!DOCTYPE svg PUBLIC "-//W3C//DTD SVG 1.1//EN" "http://www.w3.org/Graphics/SVG/1.1/DTD/svg11.dtd">
<svg width="100%" height="100%" viewBox="0 0 1024 1024" version="1.1" xmlns="http://www.w3.org/2000/svg" xmlns:xlink="http://www.w3.org/1999/xlink" xml:space="preserve" xmlns:serif="http://www.serif.com/" style="fill-rule:evenodd;clip-rule:evenodd;stroke-linejoin:round;stroke-miterlimit:2;">
    <g transform="matrix(1,0,0,1,-3469.7,-42.3196)">
        <g id="Full-Transparent" serif:id="Full Transparent" transform="matrix(1,0,0,1,3469.7,42.3196)">
            <rect x="0" y="0" width="1024" height="1024" style="fill:none;"/>
            <clipPath id="_clip1">
                <rect x="0" y="0" width="1024" height="1024"/>
            </clipPath>
            <g clip-path="url(#_clip1)">
                <g transform="matrix(1.28,0,0,1.28,-143.36,-1679.36)">
                    <path d="M112,1712L312,1712L312,1912L812,1912C867.228,1912 912,1867.23 912,1812L912,1312L212,1312C156.772,1312 112,1356.77 112,1412L112,2112L312,1912L112,1712ZM525.2,1786C491.044,1786 460.192,1778.51 432.642,1763.53C405.092,1748.54 383.503,1727.84 367.875,1701.42C352.247,1674.99 344.433,1645.19 344.433,1612C344.433,1578.81 352.328,1549.01 368.117,1522.58C383.906,1496.16 405.575,1475.46 433.125,1460.48C460.675,1445.49 491.528,1438 525.683,1438C553.394,1438 578.689,1442.83 601.567,1452.5C624.444,1462.17 643.778,1476.18 659.567,1494.55L618.967,1532.73C594.478,1506.31 564.35,1493.1 528.583,1493.1C505.383,1493.1 484.6,1498.17 466.233,1508.33C447.867,1518.48 433.528,1532.57 423.217,1550.62C412.906,1568.66 407.75,1589.12 407.75,1612C407.75,1634.88 412.906,1655.34 423.217,1673.38C433.528,1691.43 447.867,1705.53 466.233,1715.67C484.6,1725.83 505.383,1730.9 528.583,1730.9C564.35,1730.9 594.478,1717.53 618.967,1690.78L659.567,1729.45C643.778,1747.82 624.364,1761.83 601.325,1771.5C578.286,1781.17 552.911,1786 525.2,1786Z" style="fill:rgb(0,112,155);"/>
                </g>
            </g>
        </g>
    </g>
</svg>
