<?xml version="1.0" encoding="UTF-8" standalone="no"?>
<svg
   width="188"
   height="32"
   viewBox="0 0 188 32"
   fill="none"
   class="_0dFNK"
   aria-label="DepositPhotos Logo"
   version="1.1"
   id="svg20"
   sodipodi:docname="logo.svg"
   inkscape:version="1.4 (e7c3feb1, 2024-10-09)"
   xmlns:inkscape="http://www.inkscape.org/namespaces/inkscape"
   xmlns:sodipodi="http://sodipodi.sourceforge.net/DTD/sodipodi-0.dtd"
   xmlns="http://www.w3.org/2000/svg"
   xmlns:svg="http://www.w3.org/2000/svg">
  <defs
     id="defs20" />
  <sodipodi:namedview
     id="namedview20"
     pagecolor="#ffffff"
     bordercolor="#000000"
     borderopacity="0.25"
     inkscape:showpageshadow="2"
     inkscape:pageopacity="0.0"
     inkscape:pagecheckerboard="0"
     inkscape:deskcolor="#d1d1d1"
     inkscape:zoom="1.9191793"
     inkscape:cx="55.49247"
     inkscape:cy="16.152738"
     inkscape:window-width="1512"
     inkscape:window-height="949"
     inkscape:window-x="1920"
     inkscape:window-y="85"
     inkscape:window-maximized="0"
     inkscape:current-layer="svg20" />
  <path
     fill-rule="evenodd"
     clip-rule="evenodd"
     d="M 16.003,0 H 24 v 8.001 h -7.997 z m -4.07,24 c 2.132,0 3.935,-1.75 3.935,-4 0,-2.25 -1.803,-4 -3.934,-4 C 9.803,16 8,17.75 8,20 c 0,2.25 1.803,4 3.934,4 z m 0,8 C 18.525,32 23.868,26.627 23.868,20 23.868,13.373 18.525,8 11.934,8 5.343,8 0,13.373 0,20 0,26.627 5.343,32 11.934,32 Z M 100.966,8.813 h 3.662 v 3.568 h -3.662 z m -62.722,4.839 c 1.318,0 2.526,0.424 3.478,1.13 V 9.52 h 3.698 v 10.279 c 0,4.556 -2.965,7.135 -6.883,7.135 -3.844,0 -6.7,-2.826 -6.7,-6.676 0,-3.815 2.673,-6.605 6.407,-6.605 z m -2.6,6.605 c 0,1.801 1.282,3.108 3.04,3.108 1.757,0 3.038,-1.306 3.038,-3.108 0,-1.801 -1.281,-3.108 -3.038,-3.108 -1.758,0 -3.04,1.307 -3.04,3.108 z m 10.73,0 c 0,-3.85 2.892,-6.676 6.883,-6.676 3.918,0 6.663,2.79 6.627,6.676 0,0.353 -0.037,0.636 -0.147,1.271 h -9.556 c 0.403,1.307 1.538,2.155 3.04,2.155 1.134,0 1.83,-0.247 2.233,-0.706 h 3.99 c -0.695,2.296 -3.148,3.956 -6.187,3.956 -4.064,0 -6.884,-2.72 -6.884,-6.676 z m 9.482,-1.236 c 0,-1.166 -1.135,-2.19 -2.782,-2.19 -1.465,0 -2.6,0.742 -2.966,2.19 z m 11.937,-5.44 c -3.918,0 -6.884,2.579 -6.884,7.135 v 10.278 h 3.698 v -5.262 a 5.824,5.824 0 0 0 3.479,1.13 c 3.734,0 6.407,-2.79 6.407,-6.605 0.037,-3.85 -2.82,-6.676 -6.7,-6.676 z m -0.147,9.784 c -1.757,0 -3.039,-1.307 -3.039,-3.108 0,-1.802 1.282,-3.108 3.04,-3.108 1.757,0 3.038,1.306 3.038,3.108 0,1.801 -1.281,3.108 -3.039,3.108 z m 14.683,-9.784 c -3.918,0 -6.92,2.897 -6.92,6.676 0,3.78 3.002,6.676 6.92,6.676 3.918,0 6.92,-2.897 6.92,-6.676 0,-3.78 -3.002,-6.676 -6.92,-6.676 z m 0,9.784 c -1.794,0 -3.076,-1.307 -3.076,-3.108 0,-1.802 1.318,-3.108 3.076,-3.108 1.794,0 3.075,1.306 3.075,3.108 0,1.801 -1.318,3.108 -3.075,3.108 z m 13.437,-4.415 -0.12,-0.054 c -1.044,-0.47 -1.893,-0.851 -1.893,-1.43 0,-0.459 0.476,-0.706 0.952,-0.706 0.915,0 1.208,0.706 1.208,1.448 h 3.625 c 0,-2.86 -1.794,-4.627 -4.76,-4.627 -2.38,0 -4.577,1.272 -4.577,3.85 0,2.485 2.122,3.375 3.799,4.078 l 0.046,0.02 0.139,0.06 c 0.992,0.427 1.728,0.745 1.728,1.352 0,0.636 -0.586,0.848 -1.172,0.848 -0.879,0 -1.318,-0.706 -1.318,-1.554 h -3.551 c 0,2.86 1.83,4.698 4.906,4.698 2.38,0 4.943,-1.307 4.943,-3.85 0,-2.332 -2.197,-3.356 -3.955,-4.133 z m 64.552,-7.735 h -3.661 V 22.87 c 0,2.437 1.428,3.814 3.954,3.814 h 2.709 v -3.567 h -2.27 c -0.476,0 -0.732,-0.247 -0.732,-0.706 v -5.016 h 3.002 v -3.568 h -3.002 v -2.613 z m -27.571,3.32 a 4.196,4.196 0 0 1 2.71,-0.954 c 2.233,0 3.588,1.095 4.32,4.133 l 2.16,8.971 H 137.8 l -2.014,-8.3 c -0.256,-0.99 -0.695,-1.413 -1.574,-1.413 -0.989,0 -1.465,0.706 -1.465,1.801 v 7.948 h -3.698 V 9.555 h 3.698 z m -28.12,-0.707 h -3.661 v 12.857 h 3.661 z m 59.097,6.429 c 0,-3.78 3.002,-6.676 6.92,-6.676 3.918,0 6.92,2.897 6.92,6.676 0,3.78 -3.002,6.676 -6.92,6.676 -3.918,0 -6.92,-2.897 -6.92,-6.676 z m 3.844,0 c 0,1.801 1.282,3.108 3.076,3.108 1.794,0 3.075,-1.307 3.075,-3.108 0,-1.802 -1.281,-3.108 -3.075,-3.108 -1.758,0 -3.076,1.306 -3.076,3.108 z m 16.492,-1.307 -0.119,-0.054 c -1.041,-0.47 -1.887,-0.851 -1.887,-1.43 0,-0.459 0.474,-0.706 0.948,-0.706 0.912,0 1.204,0.706 1.204,1.448 h 3.612 c 0,-2.86 -1.788,-4.627 -4.743,-4.627 -2.371,0 -4.56,1.272 -4.56,3.85 0,2.485 2.114,3.375 3.785,4.078 l 0.045,0.02 0.139,0.06 c 0.989,0.427 1.722,0.745 1.722,1.352 0,0.636 -0.584,0.848 -1.167,0.848 -0.876,0 -1.314,-0.706 -1.314,-1.554 h -3.538 c 0,2.86 1.824,4.698 4.888,4.698 2.371,0 4.925,-1.307 4.925,-3.85 -0.036,-2.332 -2.189,-3.356 -3.94,-4.133 z m -42.342,1.307 c 0,-3.78 3.002,-6.676 6.92,-6.676 3.918,0 6.92,2.897 6.92,6.676 0,3.78 -3.002,6.676 -6.92,6.676 -3.918,0 -6.92,-2.897 -6.92,-6.676 z m 3.844,0 c 0,1.801 1.282,3.108 3.076,3.108 1.794,0 3.076,-1.307 3.076,-3.108 0,-1.802 -1.282,-3.108 -3.076,-3.108 -1.757,0 -3.076,1.306 -3.076,3.108 z m -24.348,-6.676 c -3.918,0 -6.883,2.579 -6.883,7.135 v 10.278 h 3.698 v -5.262 a 5.823,5.823 0 0 0 3.478,1.13 c 3.735,0 6.407,-2.79 6.407,-6.605 0,-3.85 -2.819,-6.676 -6.7,-6.676 z m -0.146,9.784 c -1.758,0 -3.039,-1.307 -3.039,-3.108 0,-1.802 1.281,-3.108 3.039,-3.108 1.757,0 3.039,1.306 3.039,3.108 0,1.801 -1.282,3.108 -3.039,3.108 z m -10.875,-12.15 h -3.662 V 22.87 c 0,2.437 1.428,3.814 3.955,3.814 h 2.709 v -3.567 h -2.27 c -0.476,0 -0.732,-0.247 -0.732,-0.706 v -5.016 h 3.002 v -3.568 h -3.002 v -2.613 z"
     fill="#000000"
     id="path1" />
</svg>
