<?xml version="1.0" encoding="UTF-8" standalone="no"?>
<!-- Created with Inkscape (http://www.inkscape.org/) -->

<svg
   version="1.0"
   width="609"
   height="365"
   id="svg2"
   sodipodi:version="0.32"
   inkscape:version="1.1 (c4e8f9e, 2021-05-24)"
   sodipodi:docname="DT.svg"
   xmlns:inkscape="http://www.inkscape.org/namespaces/inkscape"
   xmlns:sodipodi="http://sodipodi.sourceforge.net/DTD/sodipodi-0.dtd"
   xmlns="http://www.w3.org/2000/svg"
   xmlns:svg="http://www.w3.org/2000/svg"
   xmlns:rdf="http://www.w3.org/1999/02/22-rdf-syntax-ns#"
   xmlns:cc="http://creativecommons.org/ns#"
   xmlns:dc="http://purl.org/dc/elements/1.1/">
  <metadata
     id="metadata11">
    <rdf:RDF>
      <cc:Work
         rdf:about="">
        <dc:format>image/svg+xml</dc:format>
        <dc:type
           rdf:resource="http://purl.org/dc/dcmitype/StillImage" />
      </cc:Work>
    </rdf:RDF>
  </metadata>
  <sodipodi:namedview
     inkscape:window-height="900"
     inkscape:window-width="1440"
     inkscape:pageshadow="2"
     inkscape:pageopacity="0.0"
     guidetolerance="10.0"
     gridtolerance="10.0"
     objecttolerance="10.0"
     borderopacity="1.0"
     bordercolor="#666666"
     pagecolor="#ffffff"
     id="base"
     inkscape:zoom="1.0328767"
     inkscape:cx="464.23741"
     inkscape:cy="182.01592"
     inkscape:window-x="0"
     inkscape:window-y="0"
     inkscape:current-layer="layer1"
     inkscape:pagecheckerboard="0"
     showgrid="false"
     inkscape:window-maximized="0" />
  <defs
     id="defs4" />
  <g
     id="layer1">
    <rect
       width="609"
       height="365"
       x="0"
       y="0"
       style="opacity:1;fill:none;fill-opacity:1;fill-rule:evenodd;stroke:none;stroke-width:2.77086616;stroke-linejoin:miter;stroke-miterlimit:4;stroke-dasharray:none;stroke-dashoffset:0;stroke-opacity:1"
       id="rect2887" />
    <path
       style="font-size:100.03647614px;font-style:normal;font-weight:normal;fill:black;fill-opacity:1;stroke:none;stroke-width:1px;stroke-linecap:butt;stroke-linejoin:miter;stroke-opacity:1;font-family:Dream Theater"
       d="M 7.4190206,16.184852 L 10.349777,16.184852 L 12.547844,16.184852 L 15.429754,16.184852 L 28.618157,16.184852 C 59.35848,14.65441 74.321604,23.055902 73.507571,41.389354 C 72.009565,66.072847 60.758729,76.656122 39.75503,73.139213 C 37.345268,71.283075 36.058993,69.345521 35.896201,67.326546 L 35.896201,63.663101 L 35.896201,61.465034 L 35.896201,58.534278 L 35.896201,55.603522 L 35.896201,52.721611 L 35.896201,45.394721 L 35.896201,43.196654 L 35.896201,40.998587 L 35.896201,38.80052 L 35.896201,32.987853 C 35.831045,28.42895 36.075274,24.651535 36.62889,21.655596 C 33.111957,21.785909 30.197486,22.144113 27.885468,22.730207 L 28.618157,24.195585 L 28.618157,67.326546 C 28.618136,73.1555 27.266733,76.200227 24.563944,76.460736 C 23.847521,76.590994 22.023941,76.949198 19.093199,77.535347 C 62.891666,83.559674 83.341811,69.67116 80.443694,35.869764 C 80.052855,29.715225 75.640443,23.992115 67.206446,18.700417 C 58.77233,13.40884 47.961107,10.974686 34.772745,11.39795 C 21.584328,11.821349 12.466429,11.218916 7.4190206,9.5906503 L 7.4190206,16.184852 z M 87.91712,71.771526 C 86.712247,73.725369 84.449055,74.751133 81.127535,74.84882 L 102.08244,74.702282 C 97.621162,74.767415 94.934638,73.790497 94.022862,71.771526 L 94.022862,54.18699 L 94.022862,51.256233 L 94.022862,48.325477 L 94.022862,35.869764 L 94.022862,33.671697 L 94.022862,25.807501 C 97.572316,24.049102 102.01729,24.439869 107.3578,26.979803 C 112.69826,29.519841 114.13921,34.013663 111.68067,40.461282 C 109.22206,46.908977 104.31305,49.774603 96.953618,49.058166 C 100.43794,50.784084 103.12447,52.73792 105.0132,54.919679 C 107.48803,58.013275 111.85974,62.954851 118.12833,69.74442 C 124.39685,76.534008 128.84182,80.889432 131.46327,82.810708 C 134.08462,84.731976 137.23518,85.692611 140.91496,85.692618 L 154.10336,85.692618 C 154.52662,84.976205 152.27971,84.18653 147.36262,83.32359 C 142.4454,82.460642 138.79824,81.231354 136.42113,79.635722 C 134.04391,78.040089 131.14572,74.930234 127.72656,70.306148 L 123.33042,65.177325 L 108.67664,49.790855 C 114.57068,45.980905 117.68868,41.682467 118.03064,36.895528 C 118.37252,32.108673 117.06997,28.575488 114.12296,26.29596 C 111.1759,24.016538 106.96701,22.844237 101.49629,22.779053 L 80.834459,22.681361 C 84.025724,23.528079 86.329621,24.268909 87.746159,24.903851 C 89.162683,25.538902 89.21967,41.161445 87.91712,71.771526 L 87.91712,71.771526 z M 121.7185,22.876745 C 126.86361,23.593207 129.50128,25.60403 129.63155,28.909218 C 129.76179,32.214506 129.77808,42.464001 129.68039,59.657734 C 129.74551,64.119011 129.4443,67.619633 128.77674,70.15961 C 128.10918,72.699605 125.83784,74.002162 121.96273,74.067285 L 155.56874,74.067285 L 155.56874,70.15961 C 150.91206,72.048327 144.44812,71.673842 136.1769,69.036154 L 135.44421,66.838087 L 135.44421,63.956177 L 135.44421,61.806955 L 135.44421,58.192356 L 135.44421,56.043135 L 135.44421,53.161225 L 135.44421,51.012004 L 135.44421,36.553607 C 135.24882,32.711106 135.49305,29.357022 136.1769,26.491344 C 145.49017,26.002938 150.77367,26.027361 152.02741,26.564613 C 153.28109,27.10197 154.4941,29.959454 155.66643,35.137075 L 155.66643,22.876745 L 121.7185,22.876745 L 121.7185,22.876745 z M 137.64228,44.368956 L 138.86343,47.006637 C 146.38568,45.150525 151.25398,47.397436 153.46836,53.747376 L 151.31914,43.636267 C 150.76553,44.482965 146.20658,44.727194 137.64228,44.368956 L 137.64228,44.368956 z M 181.45709,20.239064 C 180.80578,21.313733 172.07865,37.88877 155.27567,69.964227 L 155.27567,74.116131 L 158.20642,74.116131 C 172.01352,45.297063 179.09618,32.010982 179.45441,34.257848 C 189.77714,60.830055 195.6875,74.132418 197.18548,74.164977 L 203.29122,74.164977 L 203.29122,69.231538 C 200.78375,68.417449 196.9982,61.359219 191.93454,48.056825 C 186.87081,34.754492 184.38782,25.367941 184.48554,19.897143 L 184.43669,17.796767 C 183.10154,18.350415 182.10834,19.164514 181.45709,20.239064 L 181.45709,20.239064 z M 237.72761,55.603522 C 237.30425,57.361997 236.45759,56.987512 235.18762,54.480065 C 224.01817,36.732751 217.42397,26.621652 215.40502,24.146739 L 212.6208,24.146739 L 203.43777,24.146739 C 207.93159,24.700381 210.11337,27.069406 209.98312,31.253823 C 209.85286,35.438335 209.81215,39.997284 209.86101,44.930685 C 209.90985,49.864153 209.82844,53.714837 209.61678,56.482748 C 209.40511,59.250705 209.19344,62.507097 208.98178,66.251936 C 208.77011,69.9968 208.15954,71.771534 207.15006,71.576143 C 206.14057,71.380766 204.8543,70.599232 203.29123,69.231538 L 203.29123,74.164977 L 216.13771,74.213823 C 214.31412,73.823061 213.05226,73.375307 212.35215,72.87056 C 211.65202,72.365825 211.46477,70.90859 211.79042,68.498849 C 212.11605,66.089129 213.09297,55.538417 214.72118,36.846682 L 216.13771,37.530525 C 227.99097,54.691755 233.74664,63.874782 233.40475,65.079633 C 233.0628,66.284512 233.15235,67.131174 233.6734,67.619622 C 240.0559,59.218141 244.33806,52.974008 246.51988,48.887205 C 248.70162,44.800463 251.50212,40.314782 254.92138,35.43015 L 255.65407,73.090367 C 262.75295,74.002162 269.15177,74.1487 274.85052,73.52998 C 270.77996,72.976399 268.02017,72.40653 266.57114,71.820372 C 265.12198,71.234229 263.82756,70.013082 262.68789,68.156927 L 260.24559,26.491344 C 260.44092,25.058584 261.02707,23.316414 262.00404,21.264829 L 258.19406,21.753288 L 237.72761,55.603522 z M 277.53705,50.425852 C 279.36062,46.746158 281.52612,43.847968 284.03356,41.731276 L 273.18976,41.731276 C 275.59949,42.675667 277.04859,45.573856 277.53705,50.425852 L 277.53705,50.425852 z M 274.92377,12.863328 C 275.00518,14.459026 274.84236,15.338252 274.43531,15.501008 C 274.02826,15.663892 282.1611,15.517354 298.83386,15.061395 C 298.83383,43.750277 298.93966,60.45557 299.15135,65.177325 C 299.363,69.899108 299.24902,73.025245 298.80943,74.555745 C 298.3698,76.086254 295.83795,77.307401 291.21389,78.21919 L 315.49032,78.21919 C 310.83364,77.144581 308.11455,76.110676 307.33305,75.117473 C 306.55148,74.124277 306.25841,68.450013 306.45382,58.094664 L 306.45382,15.061395 C 323.25677,15.028895 332.27698,14.100823 333.51447,12.277177 C 329.15085,11.951604 325.45484,11.723657 322.42644,11.593334 C 318.94205,11.756221 312.13619,11.756221 302.00884,11.593334 C 291.88143,11.430581 285.35237,11.202634 282.42162,10.909491 C 279.49086,10.616483 277.67542,10.128024 276.9753,9.4441125 C 276.27517,8.7603396 275.46922,7.8159858 274.55743,6.6110482 C 274.72025,9.1836706 274.84236,11.267762 274.92377,12.863328 L 274.92377,12.863328 z M 371.12585,17.308308 C 370.86529,16.657091 368.83004,17.813111 365.02011,20.77637 C 364.01058,21.167195 363.55469,29.17792 363.65242,44.80857 C 348.54272,45.329627 340.32033,45.280781 338.98523,44.662032 C 337.65009,44.043352 336.81971,43.847968 336.49408,44.075881 C 336.16843,44.303863 335.48458,44.466683 334.44256,44.56434 C 335.06125,29.650097 334.96356,22.20924 334.14948,22.241748 C 327.18078,22.437188 321.92171,22.176677 318.37224,21.460213 L 319.10493,22.925591 C 322.6544,23.414106 325.14554,24.106089 326.57836,25.001543 C 328.01116,25.897105 328.62988,33.679883 328.4345,48.3499 C 328.23911,63.019979 327.81578,70.810898 327.16451,71.72268 C 326.51322,72.634478 325.04785,73.39973 322.76838,74.018439 L 324.96644,74.018439 L 327.84835,74.018439 L 340.98791,74.018439 L 337.66639,73.139213 C 335.41946,72.553068 334.2553,68.84078 334.1739,62.002339 C 334.09248,55.163932 334.42626,50.653829 335.17524,48.472015 C 337.35701,48.830249 338.52931,48.830249 338.69215,48.472015 C 338.85495,48.113842 347.17503,48.113842 363.65242,48.472015 L 363.65242,68.889616 L 362.91974,74.018439 L 377.52467,74.018439 C 374.23565,73.204346 372.30624,72.536786 371.73643,72.015756 C 371.16651,71.49474 370.61292,67.985977 370.07567,61.489457 C 369.53831,54.992971 369.64414,50.132806 370.39316,46.908945 C 371.14208,46.51821 372.86797,46.160007 375.57083,45.834335 C 375.89642,45.150525 375.44866,44.800463 374.22757,44.784147 C 373.00637,44.767899 371.85849,44.588798 370.78393,44.246842 C 369.70927,43.904955 369.1394,42.822205 369.07432,40.998587 L 369.22086,23.365204 C 370.71875,21.053221 371.35375,19.034258 371.12585,17.308308 L 371.12585,17.308308 z M 379.23427,22.876745 C 384.37937,23.593207 387.01705,25.60403 387.14731,28.909218 C 387.27756,32.214506 387.29384,42.464001 387.19615,59.657734 C 387.26127,64.119011 386.96006,67.619633 386.2925,70.15961 C 385.62494,72.699605 383.3536,74.002162 379.4785,74.067285 L 413.0845,74.067285 L 413.0845,70.15961 C 408.42783,72.048327 401.96389,71.673842 393.69266,69.036154 L 392.95998,66.838087 L 392.95998,63.956177 L 392.95998,61.806955 L 392.95998,58.192356 L 392.95998,56.043135 L 392.95998,53.161225 L 392.95998,51.012004 L 392.95998,36.553607 C 392.76458,32.711106 393.00881,29.357022 393.69266,26.491344 C 403.00593,26.002938 408.28943,26.027361 409.54317,26.564613 C 410.79685,27.10197 412.00986,29.959454 413.18219,35.137075 L 413.18219,22.876745 L 379.23427,22.876745 L 379.23427,22.876745 z M 395.15804,44.368956 L 396.37919,47.006637 C 403.90144,45.150525 408.76975,47.397436 410.98413,53.747376 L 408.8349,43.636267 C 408.28129,44.482965 403.72234,44.727194 395.15804,44.368956 L 395.15804,44.368956 z M 423.9283,17.454846 C 431.15748,21.655654 434.52785,24.423587 434.03941,25.758655 C 423.71663,53.796247 416.76423,68.547705 413.1822,70.013073 L 412.69374,70.208456 L 412.69374,74.116131 L 419.82524,74.116131 L 420.50909,66.984625 C 428.6175,48.781403 434.07195,36.944416 436.87248,31.473629 L 456.80162,71.96691 C 459.6672,77.046889 463.4609,79.879951 468.18272,80.466103 C 481.11054,80.596357 486.32077,80.36841 483.81342,79.78226 C 479.93824,79.912515 476.55159,79.472902 473.65346,78.46342 C 470.75521,77.453938 468.44318,75.06049 466.71734,71.283067 C 449.36072,38.295819 440.16955,21.159054 439.14381,19.87272 C 438.11802,18.586504 436.65264,17.707278 434.74768,17.235039 C 432.84267,16.762924 428.09647,16.526836 420.50909,16.526773 L 423.9283,17.454846 z M 457.48548,29.4221 C 458.33215,28.152157 458.85317,27.256649 459.04855,26.735574 C 459.24394,26.214603 464.87749,25.807554 475.94925,25.514425 C 475.94923,47.690511 476.03064,60.602107 476.19348,64.249252 C 476.35628,67.896427 476.26673,70.306157 475.92482,71.478451 C 475.58288,72.65076 473.62091,73.595113 470.03889,74.311515 L 488.89342,74.311515 C 485.27879,73.464858 483.16214,72.6589 482.54345,71.893641 C 481.92471,71.128396 481.69676,66.756689 481.8596,58.778507 L 481.8596,25.514425 C 494.91771,25.481915 501.91896,24.765509 502.86336,23.365204 C 499.47666,23.104748 496.61104,22.925647 494.26647,22.827899 C 491.56363,22.958211 486.28013,22.958211 478.41597,22.827899 C 470.55176,22.697699 465.47993,22.518598 463.20046,22.290594 C 460.92098,22.062703 458.95086,21.948729 457.2901,21.948672 L 457.48548,29.4221 z M 496.2203,22.974437 C 501.52822,23.528079 504.24731,25.457492 504.37757,28.76268 C 504.50782,32.067969 504.5241,42.317464 504.42642,59.511196 C 504.49154,63.972474 504.19032,67.473096 503.52277,70.013073 C 502.8552,72.553068 500.03028,73.855625 495.048,73.920747 L 531.82899,73.920747 C 534.20612,71.217947 535.65521,68.580269 536.17628,66.007706 C 527.4491,71.217947 519.03133,72.178583 510.92293,68.889616 L 510.19024,66.691549 L 510.19024,63.809639 L 510.19024,61.660418 L 510.19024,58.045818 L 510.19024,55.896597 L 510.19024,53.014687 L 510.19024,50.865466 L 510.19024,36.407069 C 509.99484,32.564568 510.23907,29.210484 510.92293,26.344806 C 520.23619,25.8564 525.51969,25.880823 526.77344,26.418075 C 528.02711,26.955432 529.24012,29.812917 530.41246,34.990537 L 530.41246,22.730207 L 495.048,22.730207 L 496.2203,22.974437 L 496.2203,22.974437 z M 512.38831,44.368956 L 513.60946,47.006637 C 521.1317,45.150525 526.00001,47.397436 528.21439,53.747376 L 526.06517,43.636267 C 525.51155,44.482965 520.9526,44.727194 512.38831,44.368956 L 512.38831,44.368956 z M 528.45861,17.503692 C 528.13298,17.601445 527.6608,18.578363 527.04208,20.434448 C 540.26304,18.285288 548.92505,18.562081 553.02812,21.264829 C 557.13116,23.967692 559.663,27.989337 560.62366,33.329775 C 561.58427,38.670304 556.26821,42.431438 544.67546,44.613186 L 548.48545,45.443567 C 549.10415,45.671548 550.66722,47.804485 553.17466,51.842385 C 565.77688,68.026682 573.99113,76.957339 577.81743,78.63438 C 581.64365,80.311423 589.56482,81.182508 601.58098,81.247638 C 601.22271,80.433537 598.84554,79.578734 594.44947,78.683226 C 590.05328,77.787719 586.25144,76.713109 583.04395,75.459394 C 579.83635,74.205687 575.01689,69.426931 568.58555,61.123112 C 562.15414,52.819329 557.89641,47.755639 555.81234,45.932026 C 565.90713,40.62414 569.64384,34.697505 567.02248,28.152106 C 564.40105,21.606808 560.17588,17.739842 554.34696,16.551196 C 548.518,15.362675 539.88856,15.680174 528.45861,17.503692 L 528.45861,17.503692 z M 536.17627,23.707126 L 536.86011,25.660963 C 536.86011,57.606226 536.58332,74.034726 536.02973,74.946512 C 535.47615,75.858306 534.60506,76.403752 533.41648,76.582851 C 532.22789,76.761955 531.40565,77.225991 530.94976,77.97496 L 551.22082,77.97496 C 550.79747,77.095735 549.86126,76.493303 548.41218,76.167661 C 546.96307,75.842024 545.63609,75.272155 544.43123,74.458053 C 543.22636,73.643959 543.0961,56.564181 544.04047,23.218666 L 536.17627,23.707126 z "
       id="text1933" />
    <path
       style="font-size:401.38345337px;font-style:normal;font-weight:normal;fill:black;fill-opacity:1;stroke:none;stroke-width:1px;stroke-linecap:butt;stroke-linejoin:miter;stroke-opacity:1;font-family:Dream Theater"
       d="M 249.13339,110.98517 C 268.86273,117.51834 281.92859,125.35786 288.331,134.50373 C 269.64668,134.63461 255.37224,136.33317 245.50761,139.59942 C 235.6428,142.8661 230.97175,144.30334 231.49447,143.91116 C 234.76085,140.12227 242.27372,137.11712 254.03309,134.89571 L 183.86938,134.89571 C 186.48252,136.98647 190.53293,138.42371 196.02064,139.20744 C 201.50825,139.99161 205.78732,141.7555 208.85786,144.49912 C 211.92827,147.24316 212.48357,149.26837 210.52375,150.57475 C 180.34157,171.48032 166.23045,199.93122 168.19034,235.92753 C 170.1502,271.92408 184.26132,299.91767 210.52375,319.90839 C 204.90537,328.53189 194.97533,335.06482 180.73358,339.5072 L 269.32016,339.5072 C 254.03299,337.15536 242.53504,333.49692 234.82627,328.53187 C 253.90233,333.49692 271.73722,336.11009 288.331,336.37139 C 281.92859,345.64816 268.86273,352.18109 249.13339,355.97019 L 356.9268,355.97019 C 337.32781,352.05043 324.26196,345.5175 317.7292,336.37139 C 337.85044,336.63272 355.1627,333.75824 369.66602,327.74791 C 363.52485,333.75824 352.28821,337.67799 335.95608,339.5072 L 338.30794,340.29115 L 424.54267,339.5072 C 409.64732,334.93416 399.97858,328.13992 395.53644,319.12444 C 424.93437,300.57096 440.31941,273.16534 441.69162,236.90747 C 443.06324,200.64984 427.41688,172.91757 394.75249,153.71056 C 393.70697,151.09759 394.16428,148.90906 396.1244,147.14496 C 398.08403,145.38128 400.76253,143.65005 404.15991,141.95128 C 411.47654,139.99161 417.48683,137.63976 422.19081,134.89571 L 352.41908,134.89571 C 363.78617,136.72515 370.54775,138.75036 372.70384,140.97134 C 374.85948,143.19275 375.67609,144.17269 375.15369,143.91116 C 356.20797,138.16239 337.06649,135.02659 317.7292,134.50373 C 324.1313,125.35786 337.19715,117.51834 356.9268,110.98517 L 249.13339,110.98517 L 249.13339,110.98517 z M 268.83019,147.73292 C 281.96125,147.27583 288.46151,147.70047 288.331,149.00685 L 288.331,207.80325 L 272.06399,239.7493 L 236.59016,158.80625 C 244.95222,151.88154 255.69888,148.19044 268.83019,147.73292 L 268.83019,147.73292 z M 337.52399,147.63493 C 350.58965,148.02711 361.10767,151.75088 369.07806,158.80625 L 333.9962,239.55331 L 317.7292,207.80325 L 317.7292,149.00685 C 317.85969,147.70047 324.45794,147.24316 337.52399,147.63493 L 337.52399,147.63493 z M 211.30771,172.13343 C 212.61423,173.70152 213.13686,175.26942 212.87561,176.83714 L 212.87561,297.56576 C 197.45784,280.84152 189.22635,260.16481 188.18112,235.53555 C 187.13581,210.90654 194.84467,189.77252 211.30771,172.13343 L 211.30771,172.13343 z M 226.2028,172.13343 C 229.46918,174.87744 231.82103,178.01325 233.25836,181.54086 C 251.1585,222.17584 262.13382,245.17174 266.18435,250.52864 L 230.12256,311.28492 L 225.41884,306.97318 L 225.41884,190.16433 C 225.02679,183.10893 225.28811,177.09864 226.2028,172.13343 L 226.2028,172.13343 z M 378.28949,172.13343 C 379.59585,173.4402 380.3798,174.74679 380.64135,176.05319 L 381.62129,305.79726 L 376.5256,310.69696 L 340.6598,252.09654 L 378.28949,172.13343 L 378.28949,172.13343 z M 393.18458,172.13343 C 414.22036,197.22006 422.84383,220.86925 419.055,243.08109 C 415.26563,265.29316 406.38085,283.32404 392.40063,297.17378 L 392.40063,184.67666 C 392.13907,179.84247 392.40039,175.6614 393.18458,172.13343 L 393.18458,172.13343 z M 327.5286,247.00085 L 317.7292,276.39905 L 317.7292,227.40205 L 327.5286,247.00085 z M 288.331,276.39905 L 278.5316,247.00085 L 288.331,227.40205 L 288.331,276.39905 z M 288.331,305.79726 L 288.331,325.39606 C 275.265,325.39609 258.93268,322.12962 239.33399,315.59666 C 258.01807,283.06272 268.01345,265.03184 269.32016,261.50397 L 288.331,305.79726 z M 366.7262,315.59666 C 347.1272,322.26028 330.79488,325.52675 317.7292,325.39606 L 317.7292,305.79726 L 335.17213,261.50397 L 366.7262,315.59666 z "
       id="text1937" />
  </g>
</svg>
