<?xml version="1.0" encoding="UTF-8" standalone="no"?>
<svg
   xmlns:dc="http://purl.org/dc/elements/1.1/"
   xmlns:cc="http://creativecommons.org/ns#"
   xmlns:rdf="http://www.w3.org/1999/02/22-rdf-syntax-ns#"
   xmlns:svg="http://www.w3.org/2000/svg"
   xmlns="http://www.w3.org/2000/svg"
   xmlns:sodipodi="http://sodipodi.sourceforge.net/DTD/sodipodi-0.dtd"
   xmlns:inkscape="http://www.inkscape.org/namespaces/inkscape"
   width="32"
   height="36"
   fill="none"
   version="1.1"
   id="svg21"
   sodipodi:docname="formspree.svg"
   inkscape:version="1.0.2 (e86c8708, 2021-01-15)">
  <metadata
     id="metadata25">
    <rdf:RDF>
      <cc:Work
         rdf:about="">
        <dc:format>image/svg+xml</dc:format>
        <dc:type
           rdf:resource="http://purl.org/dc/dcmitype/StillImage" />
        <dc:title></dc:title>
      </cc:Work>
    </rdf:RDF>
  </metadata>
  <sodipodi:namedview
     pagecolor="#ffffff"
     bordercolor="#666666"
     borderopacity="1"
     objecttolerance="10"
     gridtolerance="10"
     guidetolerance="10"
     inkscape:pageopacity="0"
     inkscape:pageshadow="2"
     inkscape:window-width="1440"
     inkscape:window-height="900"
     id="namedview23"
     showgrid="false"
     fit-margin-top="0"
     fit-margin-left="0"
     fit-margin-right="0"
     fit-margin-bottom="0"
     inkscape:zoom="6.4852071"
     inkscape:cx="84.5"
     inkscape:cy="18"
     inkscape:window-x="0"
     inkscape:window-y="0"
     inkscape:window-maximized="0"
     inkscape:current-layer="svg21" />
  <path
     fill-rule="evenodd"
     clip-rule="evenodd"
     d="M 0,3 A 3,3 0 0 1 3,0 h 26 a 3,3 0 0 1 3,3 v 4.286 a 3,3 0 0 1 -3,3 H 3 a 3,3 0 0 1 -3,-3 z m 0,12.857 a 3,3 0 0 1 3,-3 h 26 a 3,3 0 0 1 3,3 v 4.286 a 3,3 0 0 1 -3,3 H 3 a 3,3 0 0 1 -3,-3 z m 3,9.857 a 3,3 0 0 0 -3,3 V 33 a 3,3 0 0 0 3,3 h 12 a 3,3 0 0 0 3,-3 v -4.286 a 3,3 0 0 0 -3,-3 z"
     fill="url(#paint0_linear)"
     id="path12"
     style="fill:url(#paint0_linear)" />
  <defs
     id="defs19">
    <linearGradient
       id="paint0_linear"
       x1="0"
       y1="0"
       x2="36"
       y2="36"
       gradientUnits="userSpaceOnUse">
      <stop
         stop-color="#EA1330"
         id="stop14" />
      <stop
         offset="1"
         stop-color="#AF041A"
         id="stop16" />
    </linearGradient>
  </defs>
</svg>