<?xml version="1.0" encoding="UTF-8" standalone="no"?>
<svg
   xmlns:dc="http://purl.org/dc/elements/1.1/"
   xmlns:cc="http://creativecommons.org/ns#"
   xmlns:rdf="http://www.w3.org/1999/02/22-rdf-syntax-ns#"
   xmlns:svg="http://www.w3.org/2000/svg"
   xmlns="http://www.w3.org/2000/svg"
   xmlns:sodipodi="http://sodipodi.sourceforge.net/DTD/sodipodi-0.dtd"
   xmlns:inkscape="http://www.inkscape.org/namespaces/inkscape"
   version="1.1"
   id="Capa_1"
   x="0px"
   y="0px"
   viewBox="0 0 145.05299 125.724"
   xml:space="preserve"
   sodipodi:docname="freepik.svg"
   width="145.05299"
   height="125.724"
   inkscape:version="1.0.2 (e86c8708, 2021-01-15)"><metadata
   id="metadata83"><rdf:RDF><cc:Work
       rdf:about=""><dc:format>image/svg+xml</dc:format><dc:type
         rdf:resource="http://purl.org/dc/dcmitype/StillImage" /><dc:title /></cc:Work></rdf:RDF></metadata><defs
   id="defs81" /><sodipodi:namedview
   pagecolor="#ffffff"
   bordercolor="#666666"
   borderopacity="1"
   objecttolerance="10"
   gridtolerance="10"
   guidetolerance="10"
   inkscape:pageopacity="0"
   inkscape:pageshadow="2"
   inkscape:window-width="1440"
   inkscape:window-height="769"
   id="namedview79"
   showgrid="false"
   fit-margin-top="0"
   fit-margin-left="0"
   fit-margin-right="0"
   fit-margin-bottom="0"
   inkscape:zoom="1.198364"
   inkscape:cx="244.5"
   inkscape:cy="62.862"
   inkscape:window-x="0"
   inkscape:window-y="25"
   inkscape:window-maximized="0"
   inkscape:current-layer="Capa_1"
   inkscape:document-rotation="0" />
<g
   id="g20"
   transform="translate(0,-181.638)"
   style="fill:#2a54a9;fill-opacity:1">
	<path
   style="fill:#2a54a9;fill-opacity:1"
   d="m 56.831,207.057 c 6.096,-2.032 11.396,-3.268 16.192,-3.775 4.703,-0.497 8.238,-0.728 11.126,-0.728 3.09,0 5.375,0.262 7.994,0.689 l 0.742,-4.705 c 0,0 -7.232,-2.223 -16.729,-1.446 l -0.747,-2.56 c 2.949,-0.625 5.162,-3.242 5.162,-6.376 0,-3.6 -2.919,-6.518 -6.519,-6.518 -3.601,0 -6.52,2.918 -6.52,6.518 0,3.134 2.213,5.75 5.161,6.375 l 0.829,2.848 c -10.083,1.393 -18.112,5.333 -18.112,5.333 z"
   id="path10" />
	<path
   style="fill:#2a54a9;fill-opacity:1"
   d="m 28.224,226.315 c 0.235,-0.301 0.467,-0.587 0.697,-0.866 l -1.922,-1.399 -3.015,-2.204 c -0.178,0.243 -4.909,4.593 -8.647,12.646 -0.162,-0.254 -0.347,-0.501 -0.559,-0.735 -1.12,-1.236 -2.689,-1.85 -4.675,-1.816 -0.03,0.001 -0.059,0.001 -0.088,0.001 -1.241,0 -2.082,-0.42 -2.642,-0.914 0.552,-0.702 0.883,-1.585 0.883,-2.547 0,-2.28 -1.848,-4.128 -4.128,-4.128 -2.28,0 -4.128,1.848 -4.128,4.128 0,2.281 1.849,4.128 4.128,4.128 0.354,0 0.695,-0.049 1.023,-0.132 1.017,1.129 2.632,2.113 4.992,2.071 1.212,-0.02 2.093,0.292 2.696,0.953 0.685,0.75 0.915,1.826 0.983,2.638 -0.003,0.01 -0.008,0.021 -0.012,0.03 -2.695,7.344 -1.92,16.479 -1.92,16.479 l 6.52,0.259 c 0.133,-3.328 0.611,-9.144 2.295,-13.771 3.251,-8.933 7.312,-14.54 7.484,-14.775 z"
   id="path12" />
	<path
   style="fill:#2a54a9;fill-opacity:1"
   d="m 140.925,208.011 c -2.28,0 -4.129,1.849 -4.129,4.128 0,0.354 0.05,0.696 0.133,1.025 -1.127,1.017 -2.109,2.632 -2.072,4.99 0.02,1.211 -0.292,2.093 -0.952,2.696 -0.517,0.472 -1.189,0.727 -1.821,0.863 -4.864,-6.79 -10.844,-10.951 -10.844,-10.951 l -4.682,5.023 c 3.541,3.226 7.151,7.254 10.671,12.287 2.426,3.468 4.923,7.96 7.009,12.426 l 6.323,-2.992 c 0,0 -2.886,-7.134 -6.953,-13.525 0.708,-0.253 1.42,-0.629 2.04,-1.19 1.236,-1.121 1.847,-2.694 1.816,-4.676 -0.02,-1.291 0.408,-2.157 0.914,-2.729 0.702,0.552 1.585,0.883 2.547,0.883 2.28,0 4.128,-1.848 4.128,-4.128 0,-2.281 -1.849,-4.13 -4.128,-4.13 z"
   id="path14" />
	<path
   style="fill:#2a54a9;fill-opacity:1"
   d="m 124.522,264.806 c -8.696,4.234 -23.016,9.831 -41.849,12.453 -7.395,1.029 -14.568,1.415 -21.158,1.415 -8.578,0 -16.169,-0.652 -21.987,-1.384 -6.64,-0.835 -11.832,-1.861 -15.012,-2.574 -0.005,-0.002 -0.011,-0.003 -0.017,-0.004 0.779,2.471 1.723,4.867 2.815,7.156 0.027,0.057 0.054,0.112 0.082,0.168 0.133,0.278 0.268,0.555 0.406,0.829 0.132,0.261 0.266,0.521 0.401,0.779 0.036,0.067 0.07,0.136 0.105,0.202 1.87,3.524 4.109,6.755 6.668,9.557 8.881,9.725 17.935,11.253 18.025,11.268 l 0.141,0.022 0.134,0.044 c 0.079,0.026 8.106,2.625 20.316,2.625 12.005,0 23.784,-2.42 35.01,-7.194 8.314,-4.253 16.188,-10.72 20.073,-16.486 3.02,-4.454 5.202,-9.216 6.491,-14.158 0.687,-2.632 1.222,-6.825 0.911,-11.256 -2.453,1.632 -6.319,3.988 -11.555,6.538 z"
   id="path16" />
	<path
   style="fill:#2a54a9;fill-opacity:1"
   d="m 81.94,272.095 c 18.062,-2.515 31.787,-7.854 40.113,-11.889 6.921,-3.355 11.37,-6.388 13.092,-7.641 -1.711,-6.345 -6.432,-16.301 -10.768,-22.499 -12.368,-17.682 -25.707,-22.221 -32.558,-23.353 -2.616,-0.432 -4.71,-0.682 -7.672,-0.682 -2.764,0 -6.182,0.225 -10.759,0.708 -4.588,0.486 -9.7,1.687 -15.626,3.672 -8.321,2.788 -15.848,7.16 -21.768,12.646 l -0.198,0.183 c -0.88,0.816 -2.711,2.511 -4.815,5.194 -0.26,0.361 -3.952,5.705 -6.929,13.893 C 21.819,248.47 22,257.423 22,257.513 v 0.025 c 0,2.088 0.04,4.176 0.27,6.246 0.004,0.033 -0.032,0.066 -0.029,0.099 0.03,0.258 0.043,0.516 0.076,0.772 0.002,0.018 -0.004,0.036 -0.002,0.053 0.183,1.441 0.402,2.872 0.692,4.287 0.003,10e-4 -0.007,0.002 -0.007,0.003 0,0 0,0.001 0,0.001 4,1.092 30.116,7.108 58.94,3.096 z m 24.759,-47.773 c 5.94,0 10.756,4.815 10.756,10.755 0,5.941 -4.816,10.756 -10.756,10.756 -5.94,0 -10.756,-4.815 -10.756,-10.756 -0.001,-5.94 4.816,-10.755 10.756,-10.755 z m -50.858,-0.435 c 9.601,0 17.384,7.783 17.384,17.383 0,9.601 -7.783,17.384 -17.384,17.384 -9.6,0 -17.383,-7.783 -17.383,-17.384 0,-9.6 7.783,-17.383 17.383,-17.383 z"
   id="path18" />
</g>

<g
   id="g48"
   transform="translate(0,-181.638)">
</g>
<g
   id="g50"
   transform="translate(0,-181.638)">
</g>
<g
   id="g52"
   transform="translate(0,-181.638)">
</g>
<g
   id="g54"
   transform="translate(0,-181.638)">
</g>
<g
   id="g56"
   transform="translate(0,-181.638)">
</g>
<g
   id="g58"
   transform="translate(0,-181.638)">
</g>
<g
   id="g60"
   transform="translate(0,-181.638)">
</g>
<g
   id="g62"
   transform="translate(0,-181.638)">
</g>
<g
   id="g64"
   transform="translate(0,-181.638)">
</g>
<g
   id="g66"
   transform="translate(0,-181.638)">
</g>
<g
   id="g68"
   transform="translate(0,-181.638)">
</g>
<g
   id="g70"
   transform="translate(0,-181.638)">
</g>
<g
   id="g72"
   transform="translate(0,-181.638)">
</g>
<g
   id="g74"
   transform="translate(0,-181.638)">
</g>
<g
   id="g76"
   transform="translate(0,-181.638)">
</g>
</svg>
