<?xml version="1.0" encoding="UTF-8" standalone="no"?>
<svg
   xmlns:dc="http://purl.org/dc/elements/1.1/"
   xmlns:cc="http://creativecommons.org/ns#"
   xmlns:rdf="http://www.w3.org/1999/02/22-rdf-syntax-ns#"
   xmlns:svg="http://www.w3.org/2000/svg"
   xmlns="http://www.w3.org/2000/svg"
   xmlns:sodipodi="http://sodipodi.sourceforge.net/DTD/sodipodi-0.dtd"
   xmlns:inkscape="http://www.inkscape.org/namespaces/inkscape"
   width="360.1875pt"
   height="97.406242pt"
   viewBox="0 0 360.1875 97.406242"
   version="1.2"
   id="svg41"
   sodipodi:docname="github-logo.svg"
   inkscape:version="1.0.1 (c497b03c, 2020-09-10)">
  <metadata
     id="metadata47">
    <rdf:RDF>
      <cc:Work
         rdf:about="">
        <dc:format>image/svg+xml</dc:format>
        <dc:type
           rdf:resource="http://purl.org/dc/dcmitype/StillImage" />
        <dc:title></dc:title>
      </cc:Work>
    </rdf:RDF>
  </metadata>
  <defs
     id="defs45" />
  <sodipodi:namedview
     pagecolor="#ffffff"
     bordercolor="#666666"
     borderopacity="1"
     objecttolerance="10"
     gridtolerance="10"
     guidetolerance="10"
     inkscape:pageopacity="0"
     inkscape:pageshadow="2"
     inkscape:window-width="1440"
     inkscape:window-height="900"
     id="namedview43"
     showgrid="false"
     fit-margin-top="0"
     fit-margin-left="0"
     fit-margin-right="0"
     fit-margin-bottom="0"
     inkscape:zoom="0.7265625"
     inkscape:cx="240.125"
     inkscape:cy="256.9375"
     inkscape:window-x="0"
     inkscape:window-y="0"
     inkscape:window-maximized="0"
     inkscape:current-layer="svg41" />
  <path
     style="fill:#0c0c0c;fill-opacity:1;fill-rule:nonzero;stroke:none"
     d="M 69.375,41.691405 H 39.10937 c -0.78125,0 -1.41796,0.63281 -1.41796,1.41406 v 14.79688 c 0,0.78125 0.63671,1.41797 1.41796,1.41797 h 11.80469 v 18.38672 c 0,0 -2.64844,0.90234 -9.98047,0.90234 -8.64843,0 -20.72656,-3.16016 -20.72656,-29.72266 0,-26.57031 12.57813,-30.0664 24.38672,-30.0664 10.22266,0 14.62891,1.80078 17.42969,2.66797 0.8789,0.26953 1.69531,-0.60547 1.69531,-1.38672 l 3.375,-14.30078 c 0,-0.36328 -0.12109,-0.80469 -0.53906,-1.105472 C 65.41797,3.886719 58.47266,0 40.93359,0 20.73047,0 0,8.597655 0,49.921875 c 0,41.32422 23.73047,47.48437 43.73047,47.48437 16.55469,0 26.59765,-7.07421 26.59765,-7.07421 0.41407,-0.23047 0.46094,-0.8086 0.46094,-1.07422 v -46.15235 c 0,-0.78125 -0.63281,-1.41406 -1.41406,-1.41406"
     id="path26" />
  <path
     style="fill:#0c0c0c;fill-opacity:1;fill-rule:nonzero;stroke:none"
     d="m 225.35937,4.953125 c 0,-0.789062 -0.625,-1.425781 -1.40625,-1.425781 h -17.04296 c -0.77735,0 -1.41016,0.636719 -1.41016,1.425781 0,0.004 0.004,32.93359 0.004,32.93359 H 178.9415 V 4.953125 c 0,-0.789062 -0.62891,-1.425781 -1.40625,-1.425781 h -17.04297 c -0.77344,0 -1.40625,0.636719 -1.40625,1.425781 v 89.17578 c 0,0.78516 0.63281,1.42578 1.40625,1.42578 h 17.04297 c 0.77734,0 1.40625,-0.64062 1.40625,-1.42578 v -38.14453 h 26.5625 c 0,0 -0.0469,38.14062 -0.0469,38.14453 0,0.78516 0.63281,1.42578 1.41406,1.42578 h 17.08203 c 0.77735,0 1.40235,-0.64062 1.40625,-1.42578 z m 0,0"
     id="path28" />
  <path
     style="fill:#0c0c0c;fill-opacity:1;fill-rule:nonzero;stroke:none"
     d="m 101.53516,16.652345 c 0,-6.13281 -4.92188,-11.09375 -10.99219,-11.09375 -6.0625,0 -10.98438,4.96094 -10.98438,11.09375 0,6.13281 4.92188,11.10547 10.98438,11.10547 6.07031,0 10.99219,-4.97266 10.99219,-11.10547"
     id="path30" />
  <path
     style="fill:#0c0c0c;fill-opacity:1;fill-rule:nonzero;stroke:none"
     d="m 100.31641,75.316405 v -41.16406 c 0,-0.78125 -0.63282,-1.41797 -1.41016,-1.41797 H 81.91797 c -0.78125,0 -1.47656,0.80078 -1.47656,1.58203 v 58.97656 c 0,1.73438 1.07812,2.25 2.47656,2.25 h 15.30469 c 1.67968,0 2.09375,-0.82422 2.09375,-2.27734 z m 0,0"
     id="path32" />
  <path
     style="fill:#0c0c0c;fill-opacity:1;fill-rule:nonzero;stroke:none"
     d="m 290.125,32.867185 h -16.91016 c -0.77734,0 -1.40625,0.63672 -1.40625,1.42578 v 43.72657 c 0,0 -4.29687,3.14453 -10.39453,3.14453 -6.09765,0 -7.71875,-2.76953 -7.71875,-8.73828 v -38.13282 c 0,-0.78906 -0.6289,-1.42578 -1.40625,-1.42578 H 235.125 c -0.77344,0 -1.40625,0.63672 -1.40625,1.42578 v 41.01953 c 0,17.73438 9.88281,22.07422 23.48047,22.07422 11.15625,0 20.14844,-6.16406 20.14844,-6.16406 0,0 0.42968,3.25 0.625,3.63281 0.1914,0.38282 0.69531,0.77344 1.24218,0.77344 l 10.91797,-0.0508 c 0.77344,0 1.41016,-0.63672 1.41016,-1.42188 l -0.008,-59.86328 c 0,-0.78906 -0.62891,-1.42578 -1.41016,-1.42578"
     id="path34" />
  <path
     style="fill:#0c0c0c;fill-opacity:1;fill-rule:nonzero;stroke:none"
     d="m 329.67969,81.109375 c -5.86719,-0.17969 -9.84766,-2.83984 -9.84766,-2.83984 v -28.24219 c 0,0 3.92578,-2.40625 8.74219,-2.83594 6.08984,-0.54687 11.95703,1.29297 11.95703,15.82031 0,15.32032 -2.64844,18.34375 -10.85156,18.09766 m 6.66797,-50.24609 c -9.60547,0 -16.13672,4.28515 -16.13672,4.28515 V 4.953125 c 0,-0.789062 -0.63282,-1.425781 -1.40625,-1.425781 h -17.09375 c -0.77344,0 -1.40625,0.636719 -1.40625,1.425781 v 89.17578 c 0,0.78906 0.63281,1.42578 1.41015,1.42578 h 11.85938 c 0.53125,0 0.9375,-0.27344 1.23437,-0.75781 0.29688,-0.47656 0.72266,-4.10938 0.72266,-4.10938 0,0 6.98828,6.6211 20.21484,6.6211 15.53125,0 24.44141,-7.87891 24.44141,-35.36328 0,-27.48828 -14.22656,-31.08203 -23.83984,-31.08203"
     id="path36" />
  <path
     style="fill:#0c0c0c;fill-opacity:1;fill-rule:nonzero;stroke:none"
     d="m 149.29687,32.726565 h -12.78515 c 0,0 -0.0195,-16.88672 -0.0195,-16.89063 0,-0.64062 -0.32813,-0.96093 -1.07032,-0.96093 h -17.41796 c -0.67579,0 -1.04297,0.30078 -1.04297,0.95312 v 17.44922 c 0,0 -8.72657,2.10937 -9.32032,2.27734 -0.58593,0.17188 -1.01953,0.71485 -1.01953,1.35938 v 10.96875 c 0,0.78906 0.62891,1.42578 1.41016,1.42578 h 8.92969 v 26.38281 c 0,19.59766 13.74609,21.51953 23.02343,21.51953 4.23829,0 9.3086,-1.35937 10.14454,-1.66797 0.50781,-0.1875 0.80078,-0.71093 0.80078,-1.27734 l 0.0156,-12.06641 c 0,-0.78515 -0.66406,-1.42187 -1.41406,-1.42187 -0.74609,0 -2.65234,0.30078 -4.61328,0.30078 -6.27735,0 -8.40625,-2.91797 -8.40625,-6.69922 0,-3.77344 0,-25.07031 0,-25.07031 h 12.78515 c 0.77735,0 1.41016,-0.63672 1.41016,-1.42578 v -13.73828 c 0,-0.78516 -0.63281,-1.41797 -1.41016,-1.41797"
     id="path38" />
</svg>
