<?xml version="1.0" encoding="UTF-8" standalone="no"?>
<svg
   xmlns:dc="http://purl.org/dc/elements/1.1/"
   xmlns:cc="http://creativecommons.org/ns#"
   xmlns:rdf="http://www.w3.org/1999/02/22-rdf-syntax-ns#"
   xmlns:svg="http://www.w3.org/2000/svg"
   xmlns="http://www.w3.org/2000/svg"
   xmlns:sodipodi="http://sodipodi.sourceforge.net/DTD/sodipodi-0.dtd"
   xmlns:inkscape="http://www.inkscape.org/namespaces/inkscape"
   viewBox="0 0 856 1228.4"
   version="1.1"
   id="svg24"
   sodipodi:docname="google-maps.svg"
   width="856"
   height="1228.4"
   inkscape:version="1.0.2 (e86c8708, 2021-01-15)">
  <metadata
     id="metadata30">
    <rdf:RDF>
      <cc:Work
         rdf:about="">
        <dc:format>image/svg+xml</dc:format>
        <dc:type
           rdf:resource="http://purl.org/dc/dcmitype/StillImage" />
        <dc:title></dc:title>
      </cc:Work>
    </rdf:RDF>
  </metadata>
  <defs
     id="defs28" />
  <sodipodi:namedview
     pagecolor="#ffffff"
     bordercolor="#666666"
     borderopacity="1"
     objecttolerance="10"
     gridtolerance="10"
     guidetolerance="10"
     inkscape:pageopacity="0"
     inkscape:pageshadow="2"
     inkscape:window-width="1440"
     inkscape:window-height="900"
     id="namedview26"
     showgrid="false"
     fit-margin-top="0"
     fit-margin-left="0"
     fit-margin-right="0"
     fit-margin-bottom="0"
     inkscape:zoom="0.32103524"
     inkscape:cx="413.2"
     inkscape:cy="908.1"
     inkscape:window-x="0"
     inkscape:window-y="0"
     inkscape:window-maximized="0"
     inkscape:current-layer="svg24" />
  <path
     d="m 235.7,910 c 37.9,47.4 76.5,107 96.7,143 24.6,46.8 34.8,78.4 53.1,135 10.7,31 20.9,40.4 42.3,40.4 23.4,0 34.1,-15.8 42.3,-40.4 17.1,-53.1 30.3,-93.5 51.2,-132 80.6,-152 212,-260 286,-408 0,0 48.7,-90.4 48.7,-217 0,-118 -48,-200 -48,-200 L 236,911 Z"
     fill="#34a853"
     id="path14" />
  <path
     d="m 41.7,632 c 46.1,105 134,197 194,278 l 318,-377 c 0,0 -44.9,58.8 -126,58.8 -90.4,0 -164,-72 -164,-163 0,-62.6 37.3,-106 37.3,-106 -234,34.8 -221,91.5 -260,309 z"
     fill="#fbbc04"
     id="path16" />
  <path
     d="m 557.7,19.7 c 106,34.1 196,106 250,211 l -254,303 c 0,0 37.3,-43.6 37.3,-106 0,-92.9 -78.4,-163 -163,-163 -80.3,0 -126,58.1 -126,58.1 19.5,-44.4 221,-288 256,-303 z"
     fill="#4285f4"
     id="path18" />
  <path
     d="m 99.7,153 c 63.2,-75.2 174,-153 327,-153 73.9,0 130,19.6 130,19.6 l -255,303 c -17.2,-9.33 -185,-140 -202,-170 z"
     fill="#1a73e8"
     id="path20" />
  <path
     d="M 41.7,632 C 41.7,632 0,549.2 0,430 0,317 44.2,218 100,154 L 302,324 42,632 Z"
     fill="#ea4335"
     id="path22" />
</svg>
