<?xml version="1.0" encoding="UTF-8" standalone="no"?>
<svg
   xmlns:dc="http://purl.org/dc/elements/1.1/"
   xmlns:cc="http://creativecommons.org/ns#"
   xmlns:rdf="http://www.w3.org/1999/02/22-rdf-syntax-ns#"
   xmlns:svg="http://www.w3.org/2000/svg"
   xmlns="http://www.w3.org/2000/svg"
   xmlns:sodipodi="http://sodipodi.sourceforge.net/DTD/sodipodi-0.dtd"
   xmlns:inkscape="http://www.inkscape.org/namespaces/inkscape"
   viewBox="0 0 29.999962 23"
   width="29.999962"
   height="23"
   preserveAspectRatio="xMidYMid meet"
   version="1.1"
   id="svg110"
   sodipodi:docname="Untitled-1.svg"
   inkscape:version="1.0.2 (e86c8708, 2021-01-15)">
  <metadata
     id="metadata114">
    <rdf:RDF>
      <cc:Work
         rdf:about="">
        <dc:format>image/svg+xml</dc:format>
        <dc:type
           rdf:resource="http://purl.org/dc/dcmitype/StillImage" />
        <dc:title></dc:title>
      </cc:Work>
    </rdf:RDF>
  </metadata>
  <sodipodi:namedview
     pagecolor="#ffffff"
     bordercolor="#666666"
     borderopacity="1"
     objecttolerance="10"
     gridtolerance="10"
     guidetolerance="10"
     inkscape:pageopacity="0"
     inkscape:pageshadow="2"
     inkscape:window-width="1440"
     inkscape:window-height="900"
     id="namedview112"
     showgrid="false"
     fit-margin-top="0"
     fit-margin-left="0"
     fit-margin-right="0"
     fit-margin-bottom="0"
     inkscape:zoom="4.0842105"
     inkscape:cx="93.5"
     inkscape:cy="11.5"
     inkscape:window-x="0"
     inkscape:window-y="0"
     inkscape:window-maximized="0"
     inkscape:current-layer="svg110" />
  <defs
     id="defs16">
    <clipPath
       id="__lottie_element_49">
      <rect
         width="190"
         height="35"
         x="0"
         y="0"
         id="rect10" />
    </clipPath>
    <mask
       id="__lottie_element_70">
      <path
         fill="#ffffff"
         clip-rule="nonzero"
         d="M 0,0 H 190 V 35 H 0 V 0 m 29.062,-3 c 0,0 -14.309,0 -14.309,0 0,0 0,32.816999 0,32.816999 0,0 14.309,0 14.309,0 0,0 0,-32.816999 0,-32.816999"
         fill-opacity="1"
         id="path13" />
    </mask>
  </defs>
  <g
     mask="url(#__lottie_element_70)"
     transform="translate(-0.25,-0.25)"
     opacity="1"
     style="display:block"
     id="g70">
    <g
       opacity="1"
       transform="translate(12,11.75)"
       id="g68">
      <path
         fill="#fbbc04"
         fill-opacity="1"
         d="m -11.75,11.5 c 0,0 14.5,-23 14.5,-23 0,0 9,0 9,0 0,0 0,3.1999998 0,3.1999998 0,0 -12.5,19.8000002 -12.5,19.8000002"
         id="path66" />
    </g>
  </g>
  <g
     transform="translate(14.25,-0.25)"
     opacity="1"
     style="display:block"
     id="g76">
    <g
       opacity="1"
       transform="translate(4.75,11.75)"
       id="g74">
      <path
         fill="#1a73e8"
         fill-opacity="1"
         d="m 4.5,11.5 c 0,0 -9,0 -9,0 0,0 0,-23 0,-23 0,0 9,0 9,0 0,0 0,23 0,23 z"
         id="path72" />
    </g>
  </g>
  <g
     transform="matrix(0.99999428,0,0,0.99999428,23.25,9.750038)"
     opacity="1"
     style="display:block"
     id="g82">
    <g
       opacity="1"
       transform="translate(3.5,6.75)"
       id="g80">
      <path
         fill="#34a853"
         fill-opacity="1"
         d="m 3.25,0 c 0,3.5899999 -2.91,6.5 -6.5,6.5 0,0 0,-13 0,-13 3.59,0 6.5,2.9100001 6.5,6.5 z"
         id="path78" />
    </g>
  </g>
  <g
     transform="matrix(0.99999428,0,0,0.99999428,16.750038,9.750038)"
     opacity="1"
     style="display:block"
     id="g88">
    <g
       opacity="1"
       transform="translate(3.5,6.75)"
       id="g86">
      <path
         fill="#0d652d"
         fill-opacity="1"
         d="m 3.25,6.5 c -3.59,0 -6.5,-2.9100001 -6.5,-6.5 0,-3.5899999 2.91,-6.5 6.5,-6.5 0,0 0,13 0,13 z"
         id="path84" />
    </g>
  </g>
  <g
     transform="matrix(0.99999863,0,0,0.99999863,23.25,-0.2499924)"
     opacity="1"
     style="display:block"
     id="g94">
    <g
       opacity="1"
       transform="translate(2.75,5.25)"
       id="g92">
      <path
         fill="#1a73e8"
         fill-opacity="1"
         d="m 2.5,0 c 0,2.7609999 -2.23800001,5 -5,5 0,0 0,-10 0,-10 2.76199999,0 5,2.2390001 5,5 z"
         id="path90" />
    </g>
  </g>
  <g
     transform="matrix(0.99999863,0,0,0.99999863,18.250008,-0.2499924)"
     opacity="1"
     style="display:block"
     id="g100">
    <g
       opacity="1"
       transform="translate(2.75,5.25)"
       id="g98">
      <path
         fill="#174ea6"
         fill-opacity="1"
         d="m 2.5,5 c -2.76199999,0 -5,-2.2390001 -5,-5 0,-2.7609999 2.23800001,-5 5,-5 0,0 0,10 0,10 z"
         id="path96" />
    </g>
  </g>
  <g
     transform="translate(0.25,-0.25)"
     opacity="1"
     style="display:block"
     id="g106">
    <g
       opacity="1"
       transform="translate(4.75,4.75)"
       id="g104">
      <path
         fill="#ea4335"
         fill-opacity="1"
         d="m -4.5,0 c 0,-2.4849999 2.0150001,-4.5 4.5,-4.5 2.4849999,0 4.5,2.0150001 4.5,4.5 C 4.5,2.4849999 2.4849999,4.5 0,4.5 -2.4849999,4.5 -4.5,2.4849999 -4.5,0 Z"
         id="path102" />
    </g>
  </g>
</svg>
