<svg xmlns="http://www.w3.org/2000/svg" xmlns:xlink="http://www.w3.org/1999/xlink" width="111.436" height="9.086" version="1.2" viewBox="0 0 83.577 6.814"><defs><symbol id="b" overflow="visible"><path d="M6.203-2.844c.39-1.015.406-1.86 1.047-2.578.031-.047.094-.047.14-.016.47.36.829.829.829 1.438 0 .594-.188 1.078-.547 1.078-.297 0-.469-.234-.469-.531 0-.11.016-.281.094-.375.094-.11-.063-.125-.156-.125-.125 0-.266.031-.313.172a1.33 1.33 0 0 0-.094.484c0 .563.61.766 1.079.766 1 0 1.546-.688 1.546-1.563 0-.781-.734-1.343-1.53-1.765-.126-.063.124-.22.171-.235.11-.093.219-.265.219-.39 0-.047-.047-.079-.094-.063-.297.11-.563.219-.797.36a.261.261 0 0 1-.187.015c-.657-.25-1.47-.375-2.25-.375-.985 0-1.813.172-2.454.5C1.407-5.53 1-4.859 1-4c0 1.031 1 1.547 1.938 1.547 1.312 0 1.765-1 1.765-2.047 0-.094 0-.188-.016-.281 0-.188-.187-.266-.359-.266-.062 0-.11.078-.094.14.016.157.016.298.016.438 0 1.266-.625 1.625-1.297 1.625-.484 0-1.031-.515-1.031-1.11 0-1.265 1.172-2.202 3.14-2.202.47 0 1.11.11 1.61.297.062.03.062.062 0 .109-.938.734-1.547 1.531-2.172 3.031C3.703-.75 3.36-.172 2.219-.172c-.313 0-.703-.203-.938-.406-.047-.047-.031-.063.032-.078.39-.063.515-.344.515-.672C1.828-1.672 1.5-2 1.062-2c-.468 0-.671.406-.671.906 0 .766.875 1.297 2.03 1.297 1.642 0 2.892-.703 3.782-3.047zm0 0" style="stroke:none"/></symbol><symbol id="f" overflow="visible"><path d="M4.063-1.094c.14 0 .28-.093.296-.234.11-.781.594-1.25 1.188-1.25.234 0 .656.328.656.844 0 .734-.547 1.562-1.531 1.562-.625 0-1.14-.75-1.14-1.375 0-.39.03-.75.124-1.172.016-.062.047-.094.125-.094 2.422-.124 4.516-1.546 4.516-2.921 0-.579-.625-.797-1.406-.797-1.579 0-3.579 1.093-4.329 2.5a2.469 2.469 0 0 0-.25.61c-.015.046-.062.077-.124.062-.626-.188-.985-.563-.985-1.25 0-1.016.922-1.625 1.828-1.625.25 0 .781.078 1.156.28.063.032.11 0 .11-.046 0-.156-.063-.344-.203-.406a3.124 3.124 0 0 0-1.203-.219C1.125-6.625.297-5.594.297-4.578c0 .953.781 1.437 1.781 1.64.078.016.078.063.078.126-.078.374-.125.75-.125 1.062C2.031-.484 3.375.203 4.61.203c.875 0 1.657-.219 2.125-.703.391-.39.579-.89.579-1.39 0-.735-.735-1.094-1.594-1.094-1.094 0-1.75.703-1.75 1.765 0 .063.047.125.094.125zm-.235-2.218c.016-.047.047-.094.063-.157C4.469-5 6.016-6.156 6.906-6.156c.313 0 .672.172.672.61 0 1.265-2.14 2.171-3.687 2.327-.063.016-.079-.031-.063-.094Zm0 0" style="stroke:none"/></symbol><symbol id="c" overflow="visible"><path d="M1.406.031A.385.385 0 0 1 1.281 0c-.054-.02-.078-.05-.078-.094 0-.05.024-.086.078-.11.051-.019.11-.034.172-.046.164-.031.317-.082.453-.156.133-.07.203-.196.203-.375v-.656a.972.972 0 0 0-.03-.25 1.095 1.095 0 0 0-.048-.188A.277.277 0 0 0 1.984-2L1.11-3.469a2.454 2.454 0 0 0-.25-.39.854.854 0 0 0-.234-.188c-.086-.05-.2-.101-.344-.156a1.452 1.452 0 0 1-.172-.063.142.142 0 0 1-.062-.125c0-.039.02-.066.062-.078A.385.385 0 0 1 .234-4.5c.196 0 .348.012.454.031.113.012.257.016.437.016.176 0 .32-.004.438-.016.125-.02.28-.031.468-.031a.41.41 0 0 1 .125.031c.051.012.078.04.078.078 0 .055-.027.094-.078.125A.467.467 0 0 1 2-4.203c-.148.031-.25.078-.313.14-.054.055-.03.157.063.313l.86 1.453c.03.055.05.078.062.078.008 0 .023-.023.047-.078l.812-1.547c.051-.094.047-.164-.015-.219a.539.539 0 0 0-.188-.14c-.062-.031-.121-.055-.172-.078-.043-.032-.062-.067-.062-.11 0-.039.02-.07.062-.093a.4.4 0 0 1 .14-.032c.126 0 .212.008.267.016.062 0 .117.008.171.016.063.011.149.015.266.015a1.7 1.7 0 0 0 .281-.015c.063-.008.13-.016.203-.016a2.71 2.71 0 0 1 .297-.016.41.41 0 0 1 .125.032c.051.023.078.054.078.093 0 .043-.027.079-.078.11a1.165 1.165 0 0 1-.156.078c-.23.062-.406.121-.531.172-.125.054-.246.168-.36.343l-.687 1.235c-.086.156-.164.297-.235.422a.808.808 0 0 0-.093.36v.89c0 .117.031.21.094.281a.685.685 0 0 0 .25.156c.101.031.21.063.328.094.05.012.101.027.156.047.05.023.078.058.078.11 0 .042-.027.073-.078.093a.41.41 0 0 1-.125.031c-.125 0-.246-.008-.36-.015-.105-.012-.214-.02-.328-.032a5.55 5.55 0 0 0-.375-.015c-.148 0-.277.008-.39.015-.106.012-.215.02-.328.032a4.783 4.783 0 0 1-.36.015Zm0 0" style="stroke:none"/></symbol><symbol id="d" overflow="visible"><path d="M1.922.14c-.262 0-.469-.03-.625-.093a3.389 3.389 0 0 0-.422-.11C.82-.082.789-.098.781-.108c0-.008-.008-.024-.015-.047a1.789 1.789 0 0 1-.079-.25C.664-.531.645-.656.625-.781.613-.914.602-1.02.594-1.094v-.14c.008-.063.047-.094.11-.094.05 0 .085.031.109.094.03.062.054.117.078.156.05.094.125.226.218.39.094.157.211.297.36.422.144.118.32.172.531.172.313 0 .535-.082.672-.25A.812.812 0 0 0 2.89-.89a.822.822 0 0 0-.11-.406c-.062-.125-.18-.238-.344-.344l-.78-.5a2.332 2.332 0 0 1-.61-.53 1.196 1.196 0 0 1-.219-.72c0-.257.078-.472.235-.64.156-.176.351-.305.593-.39.25-.095.5-.141.75-.141.239 0 .438.015.594.046.156.032.27.055.344.063.039 0 .07.016.094.047.019.031.035.062.046.093.02.118.032.247.032.391a9.7 9.7 0 0 0 .03.406.385.385 0 0 1-.03.125c-.024.055-.055.079-.094.079a.169.169 0 0 1-.125-.063.29.29 0 0 1-.063-.14A1.17 1.17 0 0 0 2.97-4a.98.98 0 0 0-.36-.234.78.78 0 0 0-.296-.079c-.231 0-.418.07-.563.204a.604.604 0 0 0-.219.484c0 .219.051.383.157.484.113.106.265.215.453.329l.843.515c.207.137.375.305.5.5.133.188.204.406.204.656 0 .18-.07.368-.204.563-.136.2-.336.371-.593.515-.262.133-.586.204-.97.204Zm0 0" style="stroke:none"/></symbol><symbol id="g" overflow="visible"><path d="M.5.031A.385.385 0 0 1 .375 0C.32-.02.297-.05.297-.094c0-.05.023-.086.078-.11.05-.019.102-.034.156-.046A1.54 1.54 0 0 0 1-.406c.133-.07.203-.196.203-.375v-2.735c0-.195-.047-.351-.14-.468-.086-.114-.231-.188-.438-.22a.768.768 0 0 1-.172-.077c-.055-.032-.078-.067-.078-.11 0-.039.023-.07.078-.093a.385.385 0 0 1 .125-.032c.133 0 .25.008.344.016.094 0 .18.008.265.016.094.011.196.015.313.015h1.312c.208-.008.395-.015.563-.015.176-.008.32-.016.438-.016.019 0 .039.008.062.016.031.011.047.027.047.046.02.25.039.45.062.594.032.149.047.258.047.328 0 .024-.011.047-.031.079-.012.03-.027.046-.047.046a.186.186 0 0 1-.11-.046.327.327 0 0 1-.077-.126 2.62 2.62 0 0 0-.235-.421c-.074-.114-.199-.172-.375-.172h-.969a.456.456 0 0 0-.156.047c-.062.023-.094.062-.094.125v1.328c0 .031.008.086.032.156.031.063.054.094.078.094h.797c.101 0 .18-.035.234-.11a.857.857 0 0 0 .125-.28c.02-.032.04-.067.063-.11.03-.04.062-.063.093-.063.04 0 .07.016.094.047.02.031.031.063.031.094a4.384 4.384 0 0 0-.03.297v.265c0 .086.003.172.015.266.008.094.015.188.015.281.008.024.004.055-.015.094-.024.043-.047.063-.078.063-.063 0-.106-.032-.125-.094a.49.49 0 0 0-.063-.14c-.023-.102-.07-.173-.14-.204a.592.592 0 0 0-.172-.078 4.535 4.535 0 0 0-.344-.016h-.36a.498.498 0 0 0-.203.031c-.03.012-.046.063-.046.157v1.125c0 .18.015.293.046.344.04.042.133.062.282.062h1a.762.762 0 0 0 .515-.172c.145-.125.25-.258.313-.406a.369.369 0 0 1 .047-.078c.02-.04.05-.063.093-.063.051 0 .082.024.094.063a.392.392 0 0 1 .016.093c-.024.137-.047.282-.078.438a5.965 5.965 0 0 1-.094.406.289.289 0 0 1-.078.078A.179.179 0 0 1 4 .016c-.25 0-.492-.008-.719-.016h-.656c-.21-.008-.414-.016-.61-.016-.187-.007-.37-.015-.546-.015-.117 0-.227.008-.328.015-.094.012-.196.02-.297.032C.75.023.633.03.5.03Zm0 0" style="stroke:none"/></symbol><symbol id="h" overflow="visible"><path d="M3.297.172c-.074 0-.14-.063-.203-.188a27.61 27.61 0 0 1-.672-1.53c-.2-.52-.438-1.095-.719-1.72-.023-.05-.043-.078-.062-.078-.012 0-.024.028-.032.078-.011.188-.027.418-.046.688-.024.262-.043.547-.063.86-.023.312-.04.624-.047.937 0 .086.016.187.047.312.031.117.129.188.297.219.062.012.117.027.172.047.05.023.078.058.078.11 0 .042-.027.073-.078.093a.41.41 0 0 1-.125.031 2.71 2.71 0 0 1-.297-.015c-.063-.012-.121-.02-.172-.032a1.146 1.146 0 0 0-.203-.015c-.094 0-.172.008-.234.015C.882-.004.82.004.75.016A2.77 2.77 0 0 1 .453.03.385.385 0 0 1 .328 0C.273-.02.25-.05.25-.094c0-.05.023-.086.078-.11.05-.019.102-.034.156-.046C.66-.281.785-.348.86-.453A.698.698 0 0 0 1-.781c.04-.188.078-.399.11-.64.038-.25.077-.505.109-.766.031-.258.054-.504.078-.735.031-.226.05-.426.062-.594a3.68 3.68 0 0 0 .032-.343.225.225 0 0 0-.141-.22 1.473 1.473 0 0 0-.453-.124.768.768 0 0 1-.172-.078c-.043-.032-.063-.067-.063-.11 0-.039.02-.07.063-.093a.385.385 0 0 1 .125-.032c.133 0 .227.008.281.016.051 0 .102.008.157.016h.531a.806.806 0 0 1 .156-.016h.078c.02 0 .035.008.047.016l1.469 3.421c.031.075.054.118.078.125.031 0 .055-.03.078-.093.195-.457.39-.907.578-1.344.188-.438.395-.938.625-1.5.04-.113.082-.238.125-.375.05-.133.094-.203.125-.203l.375-.016c.176 0 .344-.004.5-.015a3.7 3.7 0 0 1 .422-.032.31.31 0 0 1 .125.032c.05.023.078.054.078.093 0 .043-.027.079-.078.11a.532.532 0 0 1-.156.078c-.211.031-.36.062-.453.094-.086.03-.125.109-.125.234V-2.563c.007.2.015.399.015.594.008.188.02.387.032.594.007.21.019.422.03.64.009.157.063.274.157.344.102.063.238.11.406.141.051.012.102.027.157.047.062.023.093.058.093.11 0 .042-.027.073-.078.093a.41.41 0 0 1-.125.031c-.125 0-.234-.008-.328-.015-.094-.012-.188-.02-.281-.032a3.176 3.176 0 0 0-.64 0c-.106.012-.212.02-.313.032-.094.007-.211.015-.344.015A.385.385 0 0 1 4.422 0c-.055-.02-.078-.05-.078-.094 0-.05.023-.086.078-.11.05-.019.101-.034.156-.046.176-.031.297-.078.36-.14.07-.063.109-.165.109-.313V-2.343c0-.27-.008-.563-.016-.876C5.02-3.3 5-3.336 4.97-3.329c-.024.013-.047.048-.078.11L3.469.016a.388.388 0 0 1-.094.109c-.023.031-.047.047-.078.047Zm0 0" style="stroke:none"/></symbol><symbol id="i" overflow="visible"><path d="M3.266.14A3.03 3.03 0 0 1 2.25-.03a2.746 2.746 0 0 1-.844-.485 2.334 2.334 0 0 1-.593-.734 2.091 2.091 0 0 1-.22-.969c0-.344.079-.66.235-.953.156-.289.363-.539.625-.75.258-.207.555-.363.89-.469a3.174 3.174 0 0 1 1.032-.171c.164 0 .32.007.469.015.144.012.281.031.406.063.133.023.266.054.39.093a.49.49 0 0 1 .141.063c.032.023.051.055.063.094.031.093.05.23.062.406.02.18.032.324.032.437 0 .086-.024.141-.063.172-.031.024-.07.024-.11 0a.356.356 0 0 1-.109-.156c-.086-.238-.187-.422-.312-.547a.863.863 0 0 0-.438-.25 2.498 2.498 0 0 0-.672-.078c-.336 0-.632.09-.89.266a1.834 1.834 0 0 0-.625.687c-.149.281-.219.59-.219.922 0 .367.078.715.234 1.047.157.336.375.605.657.812a1.654 1.654 0 0 0 1.515.22c.176-.071.344-.165.5-.282.157-.125.27-.274.344-.453a.274.274 0 0 1 .188-.172c.093-.031.14.008.14.11a.767.767 0 0 1-.047.187 2.048 2.048 0 0 1-.11.297c-.042.105-.077.195-.109.265a.381.381 0 0 1-.078.125.693.693 0 0 1-.125.094A3.222 3.222 0 0 1 4 .047a3.18 3.18 0 0 1-.734.094Zm0 0" style="stroke:none"/></symbol><symbol id="j" overflow="visible"><path d="M.5.031A.385.385 0 0 1 .375 0C.32-.02.297-.05.297-.094c0-.05.023-.086.078-.11.05-.019.102-.034.156-.046A1.54 1.54 0 0 0 1-.406c.133-.07.203-.196.203-.375v-2.735c0-.195-.047-.351-.14-.468-.086-.114-.231-.188-.438-.22a.768.768 0 0 1-.172-.077c-.055-.032-.078-.067-.078-.11 0-.039.023-.07.078-.093a.385.385 0 0 1 .125-.032c.133 0 .254.008.36.016.101 0 .203.008.296.016.102.011.22.015.344.015.113 0 .219-.004.313-.015.101-.008.207-.016.312-.016.113-.008.235-.016.36-.016a.41.41 0 0 1 .124.032c.051.023.079.054.079.093 0 .043-.028.079-.079.11a.857.857 0 0 1-.171.078c-.2.031-.344.105-.438.219-.094.117-.14.273-.14.468V-.78c0 .18.019.297.062.36.05.054.148.077.297.077h.984a.718.718 0 0 0 .61-.313 3.94 3.94 0 0 0 .25-.405c.007-.02.03-.051.062-.094.031-.04.067-.063.11-.063.05 0 .082.024.093.063.008.031.016.062.016.093 0 .055-.012.125-.031.22a4.827 4.827 0 0 1-.079.265c-.03.094-.062.187-.093.281-.024.086-.04.152-.047.203a.289.289 0 0 1-.078.078A.179.179 0 0 1 4 .016c-.25 0-.492-.008-.719-.016h-.656c-.21-.008-.414-.016-.61-.016-.187-.007-.37-.015-.546-.015-.18.011-.34.023-.485.031C.848.02.688.031.5.031Zm0 0" style="stroke:none"/></symbol><clipPath id="a"><path d="M0 0h10v6.82H0Zm0 0"/></clipPath><clipPath id="e"><path d="M28 0h9v6.82h-9zm0 0"/></clipPath></defs><path fill="#f66" d="m28 5.035-.673.434-.509-.138-.15-.03-1.331-.266.562-.434.503.114Zm0 0"/><path fill="#ff3e48" d="m26.818 5.33-.15-.029V4.77l1.333.266-.674.434zm0 0"/><path fill="#f66" d="m28 3.703-.54.242-.642.112h-.003l-.146-.021-1.332-.2.623-.453.56.099.149.021Zm0 0"/><path fill="#ff3e48" d="m26.815 4.057-.146-.021v-.533l1.332.2-.541.242-.642.112zm0 0"/><path fill="#ff8597" d="M28 5.035v.533l-2.663.666V5.7l1.332-.333.149-.037zm0 0"/><path fill="#f66" d="m26.818 5.33 1.183-.295v.533l-1.332.333v-.533zm0 0"/><path fill="#ff8597" d="M28 3.703v.533l-2.663.799v-.533l1.332-.4.146-.045h.003zm0 0"/><path fill="#f66" d="m26.818 4.057 1.183-.354v.533l-1.332.4v-.533l.146-.046zm0 0"/><path fill="#ff8597" d="M28 2.504v.533l-1.331.4-.15.045-1.182.354v-.533zm0 0"/><path fill="#f66" d="M28 2.504v.533l-1.331.4v-.533Zm0 0"/><path fill="#725d57" d="M28.267 2.096v.275c0 .147-.12.266-.266.266h-2.664a.267.267 0 0 1-.267-.266v-.275Zm0 0"/><path fill="#53433f" d="M28.267 2.096v.275c0 .147-.12.266-.266.266h-1.332v-.541Zm0 0"/><path fill="#725d57" d="M28.267 6.367v.275H25.07v-.275c0-.147.12-.266.267-.266H28c.146 0 .266.12.266.266zm0 0"/><path fill="#53433f" d="M28.267 6.367v.275H26.67v-.541H28c.146 0 .266.12.266.266zm0 0"/><path fill="#deecf1" d="M-443.575-458.226v56.25l-45 22.5-45-22.5v-56.25zm0 0" style="stroke-width:.75" transform="matrix(.01924 0 0 .01924 51.466 10.914)"/><path fill="#c6e2e7" d="M-443.575-458.226v56.25l-45 22.5v-78.75zm0 0" style="stroke-width:.75" transform="matrix(.01924 0 0 .01924 51.466 10.914)"/><path fill="#f66" d="M-443.575-401.976v135c0 24.75-20.25 45-45 45s-45-20.25-45-45v-135zm0 0" style="stroke-width:.75" transform="matrix(.01924 0 0 .01924 51.466 10.914)"/><path fill="#ff3e48" d="M-488.575-401.976h45v135c0 24.75-20.25 45-45 45zm0 0" style="stroke-width:.75" transform="matrix(.01924 0 0 .01924 51.466 10.914)"/><path fill="#deecf1" d="M-626.575-458.226v56.25l-45 22.5-45-22.5v-56.25zm0 0" style="stroke-width:.75" transform="matrix(.01924 0 0 .01924 51.466 10.914)"/><path fill="#c6e2e7" d="M-626.575-458.226v56.25l-45 22.5v-78.75zm0 0" style="stroke-width:.75" transform="matrix(.01924 0 0 .01924 51.466 10.914)"/><path fill="#00ddc1" d="M-626.575-401.976v135c0 24.75-20.25 45-45 45s-45-20.25-45-45v-135zm0 0" style="stroke-width:.75" transform="matrix(.01924 0 0 .01924 51.466 10.914)"/><path fill="#00b2ad" d="M-671.575-401.976h45v135c0 24.75-20.25 45-45 45zm0 0" style="stroke-width:.75" transform="matrix(.01924 0 0 .01924 51.466 10.914)"/><path fill="#c6e2e7" d="M-648.325-356.976h136.5v22.5h-136.5Zm0 0" style="stroke-width:.75" transform="matrix(.01924 0 0 .01924 51.466 10.914)"/><path d="M-649.075-368.226h45v45h-45zM-580.075-356.976h68.25v22.5h-68.25zm0 0" style="fill:#a8d3d8;stroke-width:.75" transform="matrix(.01924 0 0 .01924 51.466 10.914)"/><path fill="#8ebac5" d="M-556.075-368.226h45v45h-45zm0 0" style="stroke-width:.75" transform="matrix(.01924 0 0 .01924 51.466 10.914)"/><path fill="#deecf1" d="M-443.575-458.226v56.25l-45 22.5-45-22.5v-56.25zm0 0" style="stroke-width:.75" transform="matrix(.01924 0 0 .01924 23.463 10.914)"/><path fill="#c6e2e7" d="M-443.575-458.226v56.25l-45 22.5v-78.75zm0 0" style="stroke-width:.75" transform="matrix(.01924 0 0 .01924 23.463 10.914)"/><path fill="#f66" d="M-443.575-401.976v135c0 24.75-20.25 45-45 45s-45-20.25-45-45v-135zm0 0" style="stroke-width:.75" transform="matrix(.01924 0 0 .01924 23.463 10.914)"/><path fill="#ff3e48" d="M-488.575-401.976h45v135c0 24.75-20.25 45-45 45zm0 0" style="stroke-width:.75" transform="matrix(.01924 0 0 .01924 23.463 10.914)"/><path fill="#deecf1" d="M-626.575-458.226v56.25l-45 22.5-45-22.5v-56.25zm0 0" style="stroke-width:.75" transform="matrix(.01924 0 0 .01924 23.463 10.914)"/><path fill="#c6e2e7" d="M-626.575-458.226v56.25l-45 22.5v-78.75zm0 0" style="stroke-width:.75" transform="matrix(.01924 0 0 .01924 23.463 10.914)"/><path fill="#00ddc1" d="M-626.575-401.976v135c0 24.75-20.25 45-45 45s-45-20.25-45-45v-135zm0 0" style="stroke-width:.75" transform="matrix(.01924 0 0 .01924 23.463 10.914)"/><path fill="#00b2ad" d="M-671.575-401.976h45v135c0 24.75-20.25 45-45 45zm0 0" style="stroke-width:.75" transform="matrix(.01924 0 0 .01924 23.463 10.914)"/><path fill="#c6e2e7" d="M-648.325-356.976h136.5v22.5h-136.5Zm0 0" style="stroke-width:.75" transform="matrix(.01924 0 0 .01924 23.463 10.914)"/><path d="M-649.075-368.226h45v45h-45zM-580.075-356.976h68.25v22.5h-68.25zm0 0" style="fill:#a8d3d8;stroke-width:.75" transform="matrix(.01924 0 0 .01924 23.463 10.914)"/><path fill="#8ebac5" d="M-556.075-368.226h45v45h-45zm0 0" style="stroke-width:.75" transform="matrix(.01924 0 0 .01924 23.463 10.914)"/><g clip-path="url(#a)" style="fill:#eceff4;fill-opacity:1" transform="translate(-.39)"><use xlink:href="#b" width="100%" height="100%" y="6.611" style="fill:#eceff4;fill-opacity:1"/></g><use xlink:href="#c" width="100%" height="100%" x="16.05" y="6.611" style="clip-rule:nonzero;fill:#eceff4;fill-opacity:1" transform="translate(-.466)"/><use xlink:href="#d" width="100%" height="100%" x="21.131" y="6.611" style="clip-rule:nonzero;fill:#eceff4;fill-opacity:1" transform="translate(-.452)"/><g clip-path="url(#e)" style="fill:#eceff4;fill-opacity:1" transform="translate(.021)"><use xlink:href="#f" width="100%" height="100%" x="28.653" y="6.611" style="fill:#eceff4;fill-opacity:1"/></g><use xlink:href="#g" width="100%" height="100%" x="43.656" y="6.611" style="clip-rule:nonzero;fill:#eceff4;fill-opacity:1" transform="translate(-.32)"/><use xlink:href="#h" width="100%" height="100%" x="48.438" y="6.611" style="clip-rule:nonzero;fill:#eceff4;fill-opacity:1" transform="translate(-.304)"/><use xlink:href="#i" width="100%" height="100%" x="58.62" y="6.611" style="clip-rule:nonzero;fill:#eceff4;fill-opacity:1" transform="translate(-.292)"/><use xlink:href="#j" width="100%" height="100%" x="69.619" y="6.611" style="clip-rule:nonzero;fill:#eceff4;fill-opacity:1" transform="translate(-.934)"/><use xlink:href="#j" width="100%" height="100%" x="74.301" y="6.611" style="clip-rule:nonzero;fill:#eceff4;fill-opacity:1" transform="translate(-.787)"/><use xlink:href="#c" width="100%" height="100%" x="78.983" y="6.611" style="clip-rule:nonzero;fill:#eceff4;fill-opacity:1" transform="translate(-.39)"/><path fill="#deecf1" d="M56.1 1.48v.917h1.512V1.48Zm0 0"/><path fill="#a8d3d8" d="M56.856 1.48h.756v.917h-.756zm0 0"/><path fill="#00ddc1" d="M55.495 2.095v4.547h2.722V2.095Zm0 0"/><path fill="#00b2ad" d="M56.856 2.095h1.361v4.547h-1.36Zm0 0"/><path fill="#68544f" d="M57.31 3.002v.303h-.303v.302h-.302v-.302h-.303v-.303h.303V2.7h.302v.302zM56.402 5.725h.908v.302h-.908Zm0 0"/><path fill="#deecf1" d="M56.1 3.91h1.512v.605H56.1ZM56.1 4.817h1.512v.605H56.1Zm0 0"/><path fill="#53433f" d="M57.007 3.607h-.15V2.7h.15v.302h.303v.303h-.303zM56.856 5.725h.454v.302h-.454zm0 0"/><g fill="#c6e2e7"><path d="M56.856 3.91h.756v.605h-.756zM56.856 4.817h.756v.605h-.756zm0 0"/></g><path fill="#53433f" d="M66.034 2.255v-.64l.32-.001v.641Zm0 0"/><path fill="#3e322e" d="M66.194 1.614h.16v.641h-.16Zm0 0"/><path fill="#a8d3d8" d="M64.68 5.68h-.57v-.32h.891zm0 0"/><path fill="#8ebac5" d="M68.277 5.68h-.57l-.321-.32h.891zm0 0"/><path fill="#a8d3d8" d="M65.043 5.68v-.32h2.301v.32zm0 0"/><path fill="#8ebac5" d="M66.194 5.68v-.32h1.15v.32zm0 0"/><path fill="#f66" d="m65.585 3.056-1.116 2.765c-.12.333.052.7.384.821l1.275-3.213Zm0 0"/><path fill="#ff3e48" d="m67.92 5.827-1.117-2.77-.568.31 1.3 3.275a.64.64 0 0 0 .385-.815zm0 0"/><path fill="#deecf1" d="M66.033 6.001V5.04h.32V6zm0 0"/><path fill="#725d57" d="M65.713.813v.961h.962V.813Zm0 0"/><path fill="#c6e2e7" d="M66.354 6.001h-.16V5.04h.16zm0 0"/><path fill="#53433f" d="M66.194.813h.48v.961h-.48zm0 0"/><path fill="#deecf1" d="M66.194 2.095a.802.802 0 1 0 0 1.603.802.802 0 0 0 0-1.603zm0 0"/><path fill="#c6e2e7" d="M66.995 2.896a.802.802 0 0 1-.801.802V2.095c.442 0 .801.359.801.801zm0 0"/><path fill="#a8d3d8" d="M66.194 2.415a.48.48 0 1 0-.001.96.48.48 0 0 0 0-.96zm0 0"/><path fill="#8ebac5" d="M66.194 3.377v-.962a.48.48 0 1 1 0 .962zm0 0"/><path fill="#deecf1" d="M66.034 3.056v-.32h.32v.32zm0 0"/><path fill="#c6e2e7" d="M66.194 3.056v-.32h.16v.32zm0 0"/></svg>