<svg xmlns="http://www.w3.org/2000/svg" xmlns:xlink="http://www.w3.org/1999/xlink" width="106.687" height="11.616" version="1.2" viewBox="0 0 80.016 8.712"><defs><symbol id="a" overflow="visible"><path d="M7.39-3.016c0 .172.016.297.032.438.031.172.219.234.39.234.047 0 .079-.062.079-.125a4.585 4.585 0 0 1-.11-.656c0-.078.032-.11.11-.11.265-.062.437-.296.437-.5 0-.218-.203-.359-.312-.359a.54.54 0 0 0-.532.375c-.03.063-.062.094-.14.094a5.477 5.477 0 0 0-1.094.14c-.063 0-.094 0-.078-.078.125-.578.203-1.093.375-1.39.078-.14-.11-.203-.203-.203-.047 0-.078.015-.125.047-.485.39-1.11 1.078-1.625 2.14a.244.244 0 0 1-.125.125c-.797.406-1.469.922-1.782 1.25-.109.125.141.172.204.172a.416.416 0 0 0 .187-.047c.25-.218.688-.5 1.125-.75.063-.031.078-.015.047.047-.422 1.078-.797 2.016-1.969 2.016-.5 0-.86-.266-1.031-.438-.047-.047-.047-.062.031-.078.438-.031.657-.312.657-.656 0-.344-.329-.672-.766-.672-.469 0-.719.422-.719.922 0 .766.813 1.281 1.969 1.281 1.64 0 2.984-.953 3.594-3.078A.17.17 0 0 1 6.14-3a5.26 5.26 0 0 1 1.156-.188c.094 0 .094.079.094.172zm1.548-3.609c-.391.25-1.047.39-1.391.39-1.063 0-2.406-.374-3.516-.374-.843 0-1.593.078-2.125.359-.672.344-1.031.703-1.031 1.484 0 .625.469 1 .984 1.25.297.157.657.172.954.172.953 0 1.5-.828 1.53-1.937a.1.1 0 0 0-.093-.094c-.11 0-.25.063-.266.188-.109 1-.53 1.484-1.156 1.484-.39 0-1.047-.281-1.047-1.031 0-.86.61-1.563 1.766-1.563 1.031 0 2.14.969 3.656.969.672 0 1.234-.422 1.703-.86.078-.078.125-.25.125-.359 0-.062-.031-.125-.094-.078zm0 0" style="stroke:none"/></symbol><symbol id="e" overflow="visible"><path d="M2.047.25c.64 0 1.187.578 1.734 1.11.5.468 1.188.718 1.844.718.953 0 1.39-.36 1.813-1.047.03-.047.015-.093-.032-.093-.156 0-.39.125-.515.234-.266.281-.594.437-.735.437-.547 0-.875-.578-1.468-1.078a2.421 2.421 0 0 0-.5-.312C4.155.203 4.03.156 4.14.14c1.796-.344 2.812-2.079 2.812-3.844 0-1.172-1.047-1.875-1.812-1.875-1.11 0-1.657.969-1.657 1.969 0 .64.344.89.75 1.14.047.031.11.016.11-.031 0-.156-.172-.36-.266-.594A.992.992 0 0 1 4-3.53c0-.656.297-1.64.89-1.64.579 0 1.016.937 1.016 1.671 0 1.14-.187 2.016-.86 2.625-.405.375-.843.703-1.593.703-.703 0-1.375-.781-1.375-1.75 0-2.125 1.344-4.312 3.14-4.312.5 0 1.141.375 1.485.843.078.11.25.204.39.204.032 0 .063-.032.048-.094-.157-.703-1.016-1.344-2.079-1.344-2.64 0-4.468 1.969-4.468 4.438 0 .906.547 1.624 1.265 2.015.063.031.047.047 0 .078-.359.11-.718.406-.968.719-.094.125.14.172.218.172.063 0 .141-.016.188-.063.266-.25.562-.484.75-.484Zm0 0" style="stroke:none"/></symbol><symbol id="c" overflow="visible"><path d="M.5.031A.385.385 0 0 1 .375 0C.32-.02.297-.05.297-.094c0-.05.023-.086.078-.11.05-.019.102-.034.156-.046A1.54 1.54 0 0 0 1-.406c.133-.07.203-.196.203-.375v-2.735c0-.195-.047-.351-.14-.468-.086-.114-.231-.188-.438-.22a.768.768 0 0 1-.172-.077c-.055-.032-.078-.067-.078-.11 0-.039.023-.07.078-.093a.385.385 0 0 1 .125-.032c.133 0 .254.008.36.016.101 0 .203.008.296.016.102.011.22.015.344.015.113 0 .219-.004.313-.015.101-.008.207-.016.312-.016.113-.008.235-.016.36-.016a.41.41 0 0 1 .124.032c.051.023.079.054.079.093 0 .043-.028.079-.079.11a.857.857 0 0 1-.171.078.74.74 0 0 0-.329.125A.465.465 0 0 0 2-3.86a.832.832 0 0 0-.063.343V-.78c0 .18.067.304.204.375.132.074.289.125.468.156.051.012.102.027.157.047.05.023.078.058.078.11 0 .042-.028.073-.078.093a.41.41 0 0 1-.125.031c-.125 0-.246-.008-.36-.015-.105-.012-.215-.02-.328-.032a5.55 5.55 0 0 0-.375-.015c-.148 0-.277.008-.39.015-.106.012-.215.02-.329.032A4.783 4.783 0 0 1 .5.03Zm0 0" style="stroke:none"/></symbol><symbol id="b" overflow="visible"><path d="M1.922.14c-.262 0-.469-.03-.625-.093a3.389 3.389 0 0 0-.422-.11C.82-.082.789-.098.781-.108c0-.008-.008-.024-.015-.047a1.789 1.789 0 0 1-.079-.25C.664-.531.645-.656.625-.781.613-.914.602-1.02.594-1.094v-.14c.008-.063.047-.094.11-.094.05 0 .085.031.109.094.03.062.054.117.078.156.05.094.125.226.218.39.094.157.211.297.36.422.144.118.32.172.531.172.313 0 .535-.082.672-.25A.812.812 0 0 0 2.89-.89a.822.822 0 0 0-.11-.406c-.062-.125-.18-.238-.344-.344l-.78-.5a2.332 2.332 0 0 1-.61-.53 1.196 1.196 0 0 1-.219-.72c0-.257.078-.472.235-.64.156-.176.351-.305.593-.39.25-.095.5-.141.75-.141.239 0 .438.015.594.046.156.032.27.055.344.063.039 0 .07.016.094.047.019.031.035.062.046.093.02.118.032.247.032.391a9.7 9.7 0 0 0 .03.406.385.385 0 0 1-.03.125c-.024.055-.055.079-.094.079a.169.169 0 0 1-.125-.063.29.29 0 0 1-.063-.14A1.17 1.17 0 0 0 2.97-4a.98.98 0 0 0-.36-.234.78.78 0 0 0-.296-.079c-.231 0-.418.07-.563.204a.604.604 0 0 0-.219.484c0 .219.051.383.157.484.113.106.265.215.453.329l.843.515c.207.137.375.305.5.5.133.188.204.406.204.656 0 .18-.07.368-.204.563-.136.2-.336.371-.593.515-.262.133-.586.204-.97.204Zm0 0" style="stroke:none"/></symbol><symbol id="f" overflow="visible"><path d="M3.297.172c-.074 0-.14-.063-.203-.188a27.61 27.61 0 0 1-.672-1.53c-.2-.52-.438-1.095-.719-1.72-.023-.05-.043-.078-.062-.078-.012 0-.024.028-.032.078-.011.188-.027.418-.046.688-.024.262-.043.547-.063.86-.023.312-.04.624-.047.937 0 .086.016.187.047.312.031.117.129.188.297.219.062.012.117.027.172.047.05.023.078.058.078.11 0 .042-.027.073-.078.093a.41.41 0 0 1-.125.031 2.71 2.71 0 0 1-.297-.015c-.063-.012-.121-.02-.172-.032a1.146 1.146 0 0 0-.203-.015c-.094 0-.172.008-.234.015C.882-.004.82.004.75.016A2.77 2.77 0 0 1 .453.03.385.385 0 0 1 .328 0C.273-.02.25-.05.25-.094c0-.05.023-.086.078-.11.05-.019.102-.034.156-.046C.66-.281.785-.348.86-.453A.698.698 0 0 0 1-.781c.04-.188.078-.399.11-.64.038-.25.077-.505.109-.766.031-.258.054-.504.078-.735.031-.226.05-.426.062-.594a3.68 3.68 0 0 0 .032-.343.225.225 0 0 0-.141-.22 1.473 1.473 0 0 0-.453-.124.768.768 0 0 1-.172-.078c-.043-.032-.063-.067-.063-.11 0-.039.02-.07.063-.093a.385.385 0 0 1 .125-.032c.133 0 .227.008.281.016.051 0 .102.008.157.016h.531a.806.806 0 0 1 .156-.016h.078c.02 0 .035.008.047.016l1.469 3.421c.031.075.054.118.078.125.031 0 .055-.03.078-.093.195-.457.39-.907.578-1.344.188-.438.395-.938.625-1.5.04-.113.082-.238.125-.375.05-.133.094-.203.125-.203l.375-.016c.176 0 .344-.004.5-.015a3.7 3.7 0 0 1 .422-.032.31.31 0 0 1 .125.032c.05.023.078.054.078.093 0 .043-.027.079-.078.11a.532.532 0 0 1-.156.078c-.211.031-.36.062-.453.094-.086.03-.125.109-.125.234V-2.563c.007.2.015.399.015.594.008.188.02.387.032.594.007.21.019.422.03.64.009.157.063.274.157.344.102.063.238.11.406.141.051.012.102.027.157.047.062.023.093.058.093.11 0 .042-.027.073-.078.093a.41.41 0 0 1-.125.031c-.125 0-.234-.008-.328-.015-.094-.012-.188-.02-.281-.032a3.176 3.176 0 0 0-.64 0c-.106.012-.212.02-.313.032-.094.007-.211.015-.344.015A.385.385 0 0 1 4.422 0c-.055-.02-.078-.05-.078-.094 0-.05.023-.086.078-.11.05-.019.101-.034.156-.046.176-.031.297-.078.36-.14.07-.063.109-.165.109-.313V-2.343c0-.27-.008-.563-.016-.876C5.02-3.3 5-3.336 4.97-3.329c-.024.013-.047.048-.078.11L3.469.016a.388.388 0 0 1-.094.109c-.023.031-.047.047-.078.047Zm0 0" style="stroke:none"/></symbol><symbol id="g" overflow="visible"><path d="M3.266.14A3.03 3.03 0 0 1 2.25-.03a2.746 2.746 0 0 1-.844-.485 2.334 2.334 0 0 1-.593-.734 2.091 2.091 0 0 1-.22-.969c0-.344.079-.66.235-.953.156-.289.363-.539.625-.75.258-.207.555-.363.89-.469a3.174 3.174 0 0 1 1.032-.171c.164 0 .32.007.469.015.144.012.281.031.406.063.133.023.266.054.39.093a.49.49 0 0 1 .141.063c.032.023.051.055.063.094.031.093.05.23.062.406.02.18.032.324.032.437 0 .086-.024.141-.063.172-.031.024-.07.024-.11 0a.356.356 0 0 1-.109-.156c-.086-.238-.187-.422-.312-.547a.863.863 0 0 0-.438-.25 2.498 2.498 0 0 0-.672-.078c-.336 0-.632.09-.89.266a1.834 1.834 0 0 0-.625.687c-.149.281-.219.59-.219.922 0 .367.078.715.234 1.047.157.336.375.605.657.812a1.654 1.654 0 0 0 1.515.22c.176-.071.344-.165.5-.282.157-.125.27-.274.344-.453a.274.274 0 0 1 .188-.172c.093-.031.14.008.14.11a.767.767 0 0 1-.047.187 2.048 2.048 0 0 1-.11.297c-.042.105-.077.195-.109.265a.381.381 0 0 1-.078.125.693.693 0 0 1-.125.094A3.222 3.222 0 0 1 4 .047a3.18 3.18 0 0 1-.734.094Zm0 0" style="stroke:none"/></symbol><symbol id="h" overflow="visible"><path d="M.5.031A.385.385 0 0 1 .375 0C.32-.02.297-.05.297-.094c0-.05.023-.086.078-.11.05-.019.102-.034.156-.046A1.54 1.54 0 0 0 1-.406c.133-.07.203-.196.203-.375v-2.735c0-.195-.047-.351-.14-.468-.086-.114-.231-.188-.438-.22a.768.768 0 0 1-.172-.077c-.055-.032-.078-.067-.078-.11 0-.039.023-.07.078-.093a.385.385 0 0 1 .125-.032c.133 0 .25.008.344.016.094 0 .18.008.265.016.094.011.196.015.313.015h1.312c.208-.008.395-.015.563-.015.176-.008.32-.016.438-.016.019 0 .039.008.062.016.031.011.047.027.047.046.02.25.039.45.062.594.032.149.047.258.047.328 0 .024-.011.047-.031.079-.012.03-.027.046-.047.046a.186.186 0 0 1-.11-.046.327.327 0 0 1-.077-.126 2.62 2.62 0 0 0-.235-.421c-.074-.114-.199-.172-.375-.172h-.969a.456.456 0 0 0-.156.047c-.062.023-.094.062-.094.125v1.328c0 .031.008.086.032.156.031.063.054.094.078.094h.797c.101 0 .18-.035.234-.11a.857.857 0 0 0 .125-.28c.02-.032.04-.067.063-.11.03-.04.062-.063.093-.063.04 0 .07.016.094.047.02.031.031.063.031.094a4.384 4.384 0 0 0-.03.297v.265c0 .086.003.172.015.266.008.094.015.188.015.281.008.024.004.055-.015.094-.024.043-.047.063-.078.063-.063 0-.106-.032-.125-.094a.49.49 0 0 0-.063-.14c-.023-.102-.07-.173-.14-.204a.592.592 0 0 0-.172-.078 4.535 4.535 0 0 0-.344-.016h-.36a.498.498 0 0 0-.203.031c-.03.012-.046.063-.046.157v1.125c0 .18.015.293.046.344.04.042.133.062.282.062h1a.762.762 0 0 0 .515-.172c.145-.125.25-.258.313-.406a.369.369 0 0 1 .047-.078c.02-.04.05-.063.093-.063.051 0 .082.024.094.063a.392.392 0 0 1 .016.093c-.024.137-.047.282-.078.438a5.965 5.965 0 0 1-.094.406.289.289 0 0 1-.078.078A.179.179 0 0 1 4 .016c-.25 0-.492-.008-.719-.016h-.656c-.21-.008-.414-.016-.61-.016-.187-.007-.37-.015-.546-.015-.117 0-.227.008-.328.015-.094.012-.196.02-.297.032C.75.023.633.03.5.03Zm0 0" style="stroke:none"/></symbol><symbol id="i" overflow="visible"><path d="M4.875.14a.273.273 0 0 1-.14-.046.72.72 0 0 1-.282-.219L1.984-3.172a1.04 1.04 0 0 0-.156-.125c-.043-.039-.074-.062-.094-.062-.03 0-.054.023-.062.062v1.875c.008.242.023.453.047.64.008.18.05.305.125.376.082.074.207.125.375.156.05.012.101.027.156.047.063.023.094.058.094.11 0 .042-.028.073-.078.093a.41.41 0 0 1-.125.031c-.2 0-.344-.011-.438-.031a1.891 1.891 0 0 0-.375-.031c-.168 0-.308.011-.422.031a2.49 2.49 0 0 1-.437.031A.4.4 0 0 1 .454 0C.41-.02.39-.05.39-.094c0-.05.023-.086.078-.11.05-.019.101-.034.156-.046a.911.911 0 0 0 .406-.156c.102-.07.16-.196.172-.375.008-.063.016-.176.016-.344.008-.176.015-.375.015-.594.008-.226.016-.46.016-.703.008-.25.016-.476.016-.687.007-.207.015-.38.015-.516 0-.05-.043-.117-.125-.203a1.443 1.443 0 0 0-.281-.235 1.103 1.103 0 0 0-.344-.14.834.834 0 0 1-.156-.078c-.055-.032-.078-.067-.078-.11 0-.039.023-.07.078-.093A.385.385 0 0 1 .5-4.516c.094 0 .191.008.297.016.101 0 .207.008.312.016.114 0 .227.007.344.015h.36c.039 0 .078.016.109.047.039.031.078.063.11.094l2.421 2.906a.292.292 0 0 0 .047.078c.031.032.055.047.078.047.008 0 .02-.008.031-.031a.255.255 0 0 0 .016-.094L4.578-3.5a.803.803 0 0 0-.125-.469c-.086-.125-.234-.203-.453-.234a.834.834 0 0 1-.156-.078c-.055-.032-.078-.067-.078-.11 0-.039.023-.07.078-.093a.385.385 0 0 1 .125-.032c.133 0 .238.008.312.016.082 0 .16.008.235.016.082.011.187.015.312.015.113 0 .203-.004.266-.015.062-.008.125-.016.187-.016a2.71 2.71 0 0 1 .297-.016.41.41 0 0 1 .125.032c.05.023.078.054.078.093 0 .043-.027.079-.078.11a1.165 1.165 0 0 1-.156.078c-.211.031-.352.11-.422.234a.999.999 0 0 0-.094.469v3.297a.522.522 0 0 1-.047.234c-.023.07-.058.11-.109.11Zm0 0" style="stroke:none"/></symbol><clipPath id="d"><path d="M20 0h8v8.738h-8zm0 0"/></clipPath></defs><use xlink:href="#a" width="100%" height="100%" y="6.668" style="fill:#eceff4;fill-opacity:1" transform="translate(-.453 -.027)"/><use xlink:href="#b" width="100%" height="100%" x="12.154" y="6.668" style="fill:#eceff4;fill-opacity:1" transform="translate(.497 -.027)"/><use xlink:href="#c" width="100%" height="100%" x="16.538" y="6.668" style="fill:#eceff4;fill-opacity:1" transform="translate(.238 -.027)"/><g clip-path="url(#d)" style="fill:#eceff4;fill-opacity:1" transform="translate(.085 -.027)"><use xlink:href="#e" width="100%" height="100%" x="19.676" y="6.668" style="fill:#eceff4;fill-opacity:1"/></g><use xlink:href="#c" width="100%" height="100%" x="33.455" y="6.668" style="clip-rule:nonzero;fill:#eceff4;fill-opacity:1" transform="translate(-1.017 -.027)"/><use xlink:href="#f" width="100%" height="100%" x="36.593" y="6.668" style="clip-rule:nonzero;fill:#eceff4;fill-opacity:1" transform="translate(-.827 -.027)"/><use xlink:href="#g" width="100%" height="100%" x="46.775" y="6.668" style="clip-rule:nonzero;fill:#eceff4;fill-opacity:1" transform="translate(-.754 -.027)"/><use xlink:href="#f" width="100%" height="100%" x="57.773" y="6.668" style="clip-rule:nonzero;fill:#eceff4;fill-opacity:1" transform="translate(-1.289 -.027)"/><use xlink:href="#h" width="100%" height="100%" x="64.817" y="6.668" style="clip-rule:nonzero;fill:#eceff4;fill-opacity:1" transform="translate(-1.238 -.027)"/><use xlink:href="#i" width="100%" height="100%" x="69.599" y="6.668" style="clip-rule:nonzero;fill:#eceff4;fill-opacity:1" transform="translate(-1.239 -.027)"/><path fill="#f66" d="m12.244 5.065-.675.435-.508-.139-.15-.03-1.332-.266.562-.434.504.115Zm0 0"/><path fill="#ff3e48" d="m11.06 5.361-.149-.03V4.8l1.333.266-.675.435zm0 0"/><path fill="#f66" d="m12.244 3.733-.541.243-.642.111h-.003l-.147-.02-1.332-.2.624-.454.56.099.148.021Zm0 0"/><path fill="#ff3e48" d="m11.058 4.087-.147-.02v-.534l1.333.2-.541.243-.642.111zm0 0"/><path fill="#ff8597" d="M12.244 5.065v.533l-2.665.666v-.533l1.332-.333.15-.037zm0 0"/><path fill="#f66" d="m11.06 5.361 1.184-.296v.533l-1.333.333v-.533zm0 0"/><path fill="#ff8597" d="M12.244 3.733v.533l-2.665.8v-.534l1.332-.4.147-.045h.003zm0 0"/><path fill="#f66" d="m11.06 4.087 1.184-.354v.533l-1.333.4v-.533l.147-.046zm0 0"/><path fill="#ff8597" d="M12.244 2.534v.533l-1.333.4-.149.045-1.183.354v-.533zm0 0"/><path fill="#f66" d="M12.244 2.534v.533l-1.333.4v-.533Zm0 0"/><path fill="#725d57" d="M12.51 2.126V2.4c0 .146-.12.266-.266.266H9.579a.267.267 0 0 1-.266-.266v-.275Zm0 0"/><path fill="#53433f" d="M12.51 2.126V2.4c0 .146-.12.266-.266.266H10.91v-.541Zm0 0"/><path fill="#725d57" d="M12.51 6.397v.276H9.313v-.276c0-.146.12-.266.266-.266h2.665c.146 0 .266.12.266.266zm0 0"/><path fill="#53433f" d="M12.51 6.397v.276h-1.599V6.13h1.333c.146 0 .266.12.266.266zm0 0"/><path fill="#c6e2e7" d="M32 2.126h-.935v.934l.467.312L32 3.06zm0 0"/><path fill="#deecf1" d="M28.884 2.126h-.935v.934l.467.312.468-.312zm0 0"/><path fill="#00eed0" d="m30.501 1.502-.38 1.14-.147-.049-.146-.05.146-.44.097-.289h-.623l.38-1.14.146.05.147.05-.243.728zm0 0"/><path fill="#00ddc1" d="m30.12.773-.146.44v-.49zM30.501 1.502l-.38 1.14-.147-.049v-.49l.097-.289h-.097v-.312zm0 0"/><path fill="#f66" d="M32 3.06v1.697a2.025 2.025 0 1 1-4.05 0V3.06h.934v1.697a1.092 1.092 0 0 0 2.181 0V3.06Zm0 0"/><path fill="#ff3e48" d="M32 3.06v1.697a2.025 2.025 0 0 1-2.026 2.025v-.935c.602 0 1.091-.489 1.091-1.09V3.06Zm0 0"/><path fill="#deecf1" d="M43.762 1.51v.918h1.512V1.51Zm0 0"/><path fill="#a8d3d8" d="M44.518 1.51h.756v.918h-.756zm0 0"/><path fill="#00ddc1" d="M43.157 2.125v4.548h2.722V2.125Zm0 0"/><path fill="#00b2ad" d="M44.518 2.125h1.361v4.548h-1.361Zm0 0"/><path fill="#68544f" d="M44.972 3.033v.302h-.303v.303h-.302v-.303h-.303v-.302h.303V2.73h.302v.303zM44.064 5.755h.908v.303h-.908Zm0 0"/><path fill="#deecf1" d="M43.762 3.94h1.512v.605h-1.512ZM43.762 4.848h1.512v.605h-1.512Zm0 0"/><path fill="#53433f" d="M44.67 3.638h-.152V2.73h.151v.303h.303v.302h-.303zM44.518 5.755h.454v.303h-.454zm0 0"/><g fill="#c6e2e7"><path d="M44.518 3.94h.756v.605h-.756zM44.518 4.848h.756v.605h-.756zm0 0"/></g><path fill="#53433f" d="M53.756 2.286v-.642h.32v.641Zm0 0"/><path fill="#3e322e" d="M53.917 1.644h.16v.641h-.16Zm0 0"/><path fill="#a8d3d8" d="M52.404 5.711h-.571v-.32h.891zm0 0"/><path fill="#8ebac5" d="M56 5.711h-.57l-.321-.32h.89zm0 0"/><path fill="#a8d3d8" d="M52.766 5.711v-.32h2.301v.32zm0 0"/><path fill="#8ebac5" d="M53.916 5.711v-.32h1.151v.32zm0 0"/><path fill="#f66" d="M53.308 3.087 52.192 5.85c-.12.333.052.7.383.822l1.276-3.214Zm0 0"/><path fill="#ff3e48" d="m55.643 5.857-1.117-2.77-.569.31 1.3 3.276a.64.64 0 0 0 .386-.816zm0 0"/><path fill="#deecf1" d="M53.756 6.032V5.07h.32v.962zm0 0"/><path fill="#725d57" d="M53.436.843v.962h.961V.843Zm0 0"/><path fill="#c6e2e7" d="M54.077 6.032h-.16V5.07h.16zm0 0"/><path fill="#53433f" d="M53.917.843h.48v.962h-.48zm0 0"/><path fill="#deecf1" d="M53.917 2.125a.802.802 0 1 0 0 1.603.802.802 0 0 0 0-1.603zm0 0"/><path fill="#c6e2e7" d="M54.718 2.927a.802.802 0 0 1-.801.8V2.126c.442 0 .801.36.801.802zm0 0"/><path fill="#a8d3d8" d="M53.917 2.446a.48.48 0 1 0-.002.96.48.48 0 0 0 .002-.96zm0 0"/><path fill="#8ebac5" d="M53.917 3.407v-.961a.48.48 0 1 1 0 .961zm0 0"/><path fill="#deecf1" d="M53.756 3.087v-.32h.32v.32zm0 0"/><path fill="#c6e2e7" d="M53.917 3.087v-.32h.16v.32zm0 0"/><path fill="#a8d3d8" d="M77.295 2.878h.301v3.644h-.3zm0 0"/><path fill="#ff9f00" d="M79.112 1.975h.301v1.214h-.3zm0 0"/><path fill="#fdbf00" d="M75.79 3.18h.3v1.214h-.3Zm0 0"/><path fill="#a8d3d8" d="m75.08 3.621-.107-.282 2.138-.797.106.282zm0 0"/><path fill="#8ebac5" d="M77.446 2.878h.15v3.644h-.15zM77.78 2.612l-.105-.282 2.137-.798.106.282Zm0 0"/><path fill="#deecf1" d="M77.446 2.125a.451.451 0 1 0-.002.902.451.451 0 0 0 .002-.902zm0 0"/><path fill="#725d57" d="M76.392 6.371H78.5v.302h-2.108Zm0 0"/><path fill="#68544f" d="M79.564 3.34a.302.302 0 0 1-.301.301.302.302 0 0 1-.302-.301.302.302 0 0 1 .602 0zM75.94 4.243a.451.451 0 1 0-.001.902.451.451 0 0 0 0-.902zm0 .603a.15.15 0 1 1 0-.302.15.15 0 0 1 0 .302zm0 0"/><path fill="#53433f" d="M75.94 4.243v.301a.15.15 0 0 1 0 .302v.3a.451.451 0 1 0 0-.903zm0 0"/><path fill="#725d57" d="M76.994 6.05h-2.118l.301-1.204h1.516Zm0 0"/><path fill="#53433f" d="M76.994 6.05H75.94V4.846h.753zM79.564 3.34a.302.302 0 0 1-.301.301v-.602c.165 0 .3.135.3.3zm0 0"/><path fill="#725d57" d="M80.016 4.544H78.51l.3-1.204h.904zm0 0"/><path fill="#53433f" d="M80.016 4.544h-.753V3.34h.451zm0 0"/><path fill="#c6e2e7" d="M77.446 3.029v-.904a.451.451 0 1 1 0 .904zm0 0"/><path fill="#53433f" d="M77.446 6.371H78.5v.302h-1.054Zm0 0"/></svg>