<?xml version="1.0" encoding="UTF-8" standalone="no"?>
<svg
   xmlns:dc="http://purl.org/dc/elements/1.1/"
   xmlns:cc="http://creativecommons.org/ns#"
   xmlns:rdf="http://www.w3.org/1999/02/22-rdf-syntax-ns#"
   xmlns:svg="http://www.w3.org/2000/svg"
   xmlns="http://www.w3.org/2000/svg"
   xmlns:sodipodi="http://sodipodi.sourceforge.net/DTD/sodipodi-0.dtd"
   xmlns:inkscape="http://www.inkscape.org/namespaces/inkscape"
   width="38.300999"
   height="38.343136"
   version="1.1"
   id="svg21"
   sodipodi:docname="netlify-icon.svg"
   inkscape:version="1.0.2 (e86c8708, 2021-01-15)">
  <metadata
     id="metadata27">
    <rdf:RDF>
      <cc:Work
         rdf:about="">
        <dc:format>image/svg+xml</dc:format>
        <dc:type
           rdf:resource="http://purl.org/dc/dcmitype/StillImage" />
        <dc:title></dc:title>
      </cc:Work>
    </rdf:RDF>
  </metadata>
  <defs
     id="defs25" />
  <sodipodi:namedview
     pagecolor="#ffffff"
     bordercolor="#666666"
     borderopacity="1"
     objecttolerance="10"
     gridtolerance="10"
     guidetolerance="10"
     inkscape:pageopacity="0"
     inkscape:pageshadow="2"
     inkscape:window-width="1440"
     inkscape:window-height="900"
     id="namedview23"
     showgrid="false"
     fit-margin-top="0"
     fit-margin-left="0"
     fit-margin-right="0"
     fit-margin-bottom="0"
     inkscape:zoom="4.9659864"
     inkscape:cx="73.371"
     inkscape:cy="19.171068"
     inkscape:window-x="0"
     inkscape:window-y="0"
     inkscape:window-maximized="0"
     inkscape:current-layer="svg21" />
  <radialGradient
     id="a"
     cy="0.82847679"
     r="38.36422"
     gradientTransform="matrix(0.9994504,0,0,1.0005499,-0.831,-0.82893235)"
     cx="19.992489"
     fx="19.992489"
     fy="0.82847679"
     gradientUnits="userSpaceOnUse">
    <stop
       offset="0"
       stop-color="#20c6b7"
       id="stop10" />
    <stop
       offset="1"
       stop-color="#4d9abf"
       id="stop12" />
  </radialGradient>
  <path
     fill="url(#a)"
     fill-rule="nonzero"
     d="m 27.758,13.306068 -0.014,-0.006 c -0.008,-0.003 -0.016,-0.006 -0.023,-0.013 a 0.11,0.11 0 0 1 -0.028,-0.093 l 0.773,-4.7260004 3.625,3.6260004 -3.77,1.604 a 0.083,0.083 0 0 1 -0.033,0.006 h -0.015 c -0.005,-0.003 -0.01,-0.007 -0.02,-0.017 a 1.716,1.716 0 0 0 -0.495,-0.381 z m 5.258,-0.288 3.876,3.876 c 0.805,0.806 1.208,1.208 1.355,1.674 0.022,0.069 0.04,0.138 0.054,0.209 l -9.263,-3.923 a 0.728,0.728 0 0 0 -0.015,-0.006 c -0.037,-0.015 -0.08,-0.032 -0.08,-0.07 0,-0.038 0.044,-0.056 0.081,-0.071 l 0.012,-0.005 z m 5.127,7.003 c -0.2,0.376 -0.59,0.766 -1.25,1.427 l -4.37,4.369 -5.652,-1.177 -0.03,-0.006 c -0.05,-0.008 -0.103,-0.017 -0.103,-0.062 a 1.706,1.706 0 0 0 -0.655,-1.193 c -0.023,-0.023 -0.017,-0.059 -0.01,-0.092 0,-0.005 0,-0.01 0.002,-0.014 l 1.063,-6.526 0.004,-0.022 c 0.006,-0.05 0.015,-0.108 0.06,-0.108 a 1.73,1.73 0 0 0 1.16,-0.665 c 0.009,-0.01 0.015,-0.021 0.027,-0.027 0.032,-0.015 0.07,0 0.103,0.014 l 9.65,4.082 z m -6.625,6.801 -7.186,7.186 1.23,-7.56 0.002,-0.01 c 0.001,-0.01 0.003,-0.02 0.006,-0.029 0.01,-0.024 0.036,-0.034 0.061,-0.044 l 0.012,-0.005 a 1.85,1.85 0 0 0 0.695,-0.517 c 0.024,-0.028 0.053,-0.055 0.09,-0.06 a 0.09,0.09 0 0 1 0.029,0 l 5.06,1.04 z m -8.707,8.707 -0.81,0.81 -8.955,-12.942 a 0.424,0.424 0 0 0 -0.01,-0.014 c -0.014,-0.019 -0.029,-0.038 -0.026,-0.06 0,-0.016 0.011,-0.03 0.022,-0.042 l 0.01,-0.013 c 0.027,-0.04 0.05,-0.08 0.075,-0.123 l 0.02,-0.035 0.003,-0.003 c 0.014,-0.024 0.027,-0.047 0.051,-0.06 0.021,-0.01 0.05,-0.006 0.073,-10e-4 l 9.921,2.046 a 0.164,0.164 0 0 1 0.076,0.033 c 0.013,0.013 0.016,0.027 0.019,0.043 a 1.757,1.757 0 0 0 1.028,1.175 c 0.028,0.014 0.016,0.045 0.003,0.078 a 0.238,0.238 0 0 0 -0.015,0.045 c -0.125,0.76 -1.197,7.298 -1.485,9.063 z m -1.692,1.691 c -0.597,0.591 -0.949,0.904 -1.347,1.03 a 2,2 0 0 1 -1.206,0 c -0.466,-0.148 -0.869,-0.55 -1.674,-1.356 l -8.993,-8.993 2.349,-3.643 c 0.011,-0.018 0.022,-0.034 0.04,-0.047 0.025,-0.018 0.061,-0.01 0.091,0 a 2.434,2.434 0 0 0 1.638,-0.083 c 0.027,-0.01 0.054,-0.017 0.075,0.002 a 0.19,0.19 0 0 1 0.028,0.032 l 8.999,13.059 z m -14.087,-10.186 -2.063,-2.063 4.074,-1.738 a 0.084,0.084 0 0 1 0.033,-0.007 c 0.034,0 0.054,0.034 0.072,0.065 a 2.91,2.91 0 0 0 0.13,0.184 l 0.013,0.016 c 0.012,0.017 0.004,0.034 -0.008,0.05 l -2.25,3.493 z m -2.976,-2.976 -2.61,-2.61 c -0.444,-0.444 -0.766,-0.766 -0.99,-1.043 l 7.936,1.646 a 0.84,0.84 0 0 0 0.03,0.005 c 0.049,0.008 0.103,0.017 0.103,0.063 0,0.05 -0.059,0.073 -0.109,0.092 l -0.023,0.01 z M 0,19.063068 a 2,2 0 0 1 0.09,-0.495 c 0.148,-0.466 0.55,-0.868 1.356,-1.674 l 3.34,-3.34 a 2175.525,2175.525 0 0 0 4.626,6.687 c 0.027,0.036 0.057,0.076 0.026,0.106 -0.146,0.161 -0.292,0.337 -0.395,0.528 a 0.16,0.16 0 0 1 -0.05,0.062 c -0.013,0.008 -0.027,0.005 -0.042,0.002 H 8.949 L 0,19.062068 Z m 5.68,-6.403 4.489,-4.4910004 c 0.423,0.185 1.96,0.834 3.333,1.414 1.04,0.4400004 1.988,0.8400004 2.286,0.9700004 0.03,0.012 0.057,0.024 0.07,0.054 0.008,0.018 0.004,0.041 0,0.06 a 2.003,2.003 0 0 0 0.523,1.828 c 0.03,0.03 0,0.073 -0.026,0.11 l -0.014,0.021 -4.56,7.063 c -0.012,0.02 -0.023,0.037 -0.043,0.05 -0.024,0.015 -0.058,0.008 -0.086,0.001 a 2.274,2.274 0 0 0 -0.543,-0.074 c -0.164,0 -0.342,0.03 -0.522,0.063 h -10e-4 c -0.02,0.003 -0.038,0.007 -0.054,-0.005 a 0.21,0.21 0 0 1 -0.045,-0.051 l -4.808,-7.013 z m 5.398,-5.3980004 5.814,-5.814 C 17.697,0.64306765 18.1,0.24006765 18.566,0.09306765 a 2,2 0 0 1 1.206,0 c 0.466,0.147 0.869,0.55 1.674,1.35499995 l 1.26,1.26 -4.135,6.404 a 0.155,0.155 0 0 1 -0.041,0.048 c -0.025,0.017 -0.06,0.01 -0.09,0 a 2.097,2.097 0 0 0 -1.92,0.37 c -0.027,0.028 -0.067,0.012 -0.101,-0.003 -0.54,-0.235 -4.74,-2.01 -5.341,-2.265 z m 12.506,-3.676 3.818,3.818 -0.92,5.6980004 v 0.015 a 0.135,0.135 0 0 1 -0.008,0.038 c -0.01,0.02 -0.03,0.024 -0.05,0.03 a 1.83,1.83 0 0 0 -0.548,0.273 0.154,0.154 0 0 0 -0.02,0.017 c -0.011,0.012 -0.022,0.023 -0.04,0.025 a 0.114,0.114 0 0 1 -0.043,-0.007 l -5.818,-2.472 -0.011,-0.005 c -0.037,-0.015 -0.081,-0.033 -0.081,-0.071 a 2.198,2.198 0 0 0 -0.31,-0.915 c -0.028,-0.046 -0.059,-0.094 -0.035,-0.1410004 z m -3.932,8.6060004 5.454,2.31 c 0.03,0.014 0.063,0.027 0.076,0.058 a 0.106,0.106 0 0 1 0,0.057 c -0.016,0.08 -0.03,0.171 -0.03,0.263 v 0.153 c 0,0.038 -0.039,0.054 -0.075,0.069 l -0.011,0.004 c -0.864,0.369 -12.13,5.173 -12.147,5.173 -0.017,0 -0.035,0 -0.052,-0.017 -0.03,-0.03 0,-0.072 0.027,-0.11 a 0.76,0.76 0 0 0 0.014,-0.02 l 4.482,-6.94 0.008,-0.012 c 0.026,-0.042 0.056,-0.089 0.104,-0.089 l 0.045,0.007 c 0.102,0.014 0.192,0.027 0.283,0.027 0.68,0 1.31,-0.331 1.69,-0.897 a 0.16,0.16 0 0 1 0.034,-0.04 c 0.027,-0.02 0.067,-0.01 0.098,0.004 z m -6.246,9.185 12.28,-5.237 c 0,0 0.018,0 0.035,0.017 0.067,0.067 0.124,0.112 0.179,0.154 l 0.027,0.017 c 0.025,0.014 0.05,0.03 0.052,0.056 0,0.01 0,0.016 -0.002,0.025 l -1.052,6.462 -0.004,0.026 c -0.007,0.05 -0.014,0.107 -0.061,0.107 a 1.729,1.729 0 0 0 -1.373,0.847 l -0.005,0.008 c -0.014,0.023 -0.027,0.045 -0.05,0.057 -0.021,0.01 -0.048,0.006 -0.07,0.001 l -9.793,-2.02 c -0.01,-0.002 -0.152,-0.519 -0.163,-0.52 z"
     id="path17"
     style="fill:url(#a)" />
</svg>
