<svg width="128" height="128" viewBox="0 0 128 128" fill="none" xmlns="http://www.w3.org/2000/svg">
<g clip-path="url(#clip0_204_165)">
<path fill-rule="evenodd" clip-rule="evenodd" d="M73.2261 2.81074L125.189 54.7739L127.115 56.7041L128 58.8388V69.1612L127.115 71.2959L125.189 73.2261L73.2261 125.189L71.2959 127.115L69.1612 128H58.8388L56.7041 127.115L54.7739 125.189L2.81074 73.2261L0.885028 71.2959L0 69.1612V58.8388L0.885028 56.7041L2.81074 54.7739L54.7739 2.81074L56.7041 0.885028L58.8388 0H69.1612L71.2959 0.885028L73.2261 2.81074ZM59.3681 91.0557V116.019L60.0307 116.681H67.9737L68.6364 116.019V91.0557L67.9737 90.393H60.0307L59.3681 91.0557ZM59.3681 36.9444V11.9813L60.0307 11.3186H67.9737L68.6364 11.9813V36.9444L67.9737 37.6071H60.0307L59.3681 36.9444ZM37.2957 97.5221H38.3898L45.6612 90.2462V84.4691L44.8874 83.6997L39.1103 83.6952L31.8388 90.9712V92.0652L37.2957 97.5221ZM31.8388 37.3046V36.215L37.2957 30.7536H38.3853L45.6612 38.0296V43.8023L44.8918 44.5805H39.1147L31.8388 37.3046ZM37.9361 59.3547H9.85984L9.19718 60.0174V67.9693L9.85984 68.632H37.9361L38.5988 67.9693V60.0174L37.9361 59.3547ZM78.8743 80.5376H70.9446L70.2819 79.875V61.2938C70.2864 57.985 68.9877 55.4233 64.994 55.3388C62.9437 55.2854 60.5911 55.3388 58.0828 55.4411L57.7047 55.828L57.7092 79.875L57.0465 80.5376H49.108L48.4453 79.875V48.1251L49.108 47.4625H66.9686C73.911 47.4625 79.5369 53.0884 79.5369 60.0307V79.875L78.8743 80.5376ZM90.0639 68.6453H118.14L118.803 67.9827V60.0307L118.14 59.3681H90.0639L89.4012 60.0307V67.9827L90.0639 68.6453Z" fill="#32E6E2"/>
</g>
<defs>
<clipPath id="clip0_204_165">
<rect width="128" height="128" fill="white"/>
</clipPath>
</defs>
</svg>
