<?xml version="1.0" encoding="UTF-8" standalone="no"?>
<svg
   xmlns:dc="http://purl.org/dc/elements/1.1/"
   xmlns:cc="http://creativecommons.org/ns#"
   xmlns:rdf="http://www.w3.org/1999/02/22-rdf-syntax-ns#"
   xmlns:svg="http://www.w3.org/2000/svg"
   xmlns="http://www.w3.org/2000/svg"
   xmlns:sodipodi="http://sodipodi.sourceforge.net/DTD/sodipodi-0.dtd"
   xmlns:inkscape="http://www.inkscape.org/namespaces/inkscape"
   id="svg850"
   version="1.1"
   viewBox="3.8 6.5 104.37856 104.4786"
   sodipodi:docname="now4real.svg"
   width="104.37859"
   height="104.47858"
   inkscape:version="1.0.1 (c497b03c, 2020-09-10)">
  <metadata
     id="metadata30">
    <rdf:RDF>
      <cc:Work
         rdf:about="">
        <dc:format>image/svg+xml</dc:format>
        <dc:type
           rdf:resource="http://purl.org/dc/dcmitype/StillImage" />
        <dc:title></dc:title>
      </cc:Work>
    </rdf:RDF>
  </metadata>
  <sodipodi:namedview
     pagecolor="#ffffff"
     bordercolor="#666666"
     borderopacity="1"
     objecttolerance="10"
     gridtolerance="10"
     guidetolerance="10"
     inkscape:pageopacity="0"
     inkscape:pageshadow="2"
     inkscape:window-width="1440"
     inkscape:window-height="900"
     id="namedview28"
     showgrid="false"
     fit-margin-top="0"
     fit-margin-left="0"
     fit-margin-right="0"
     fit-margin-bottom="0"
     inkscape:zoom="4.314465"
     inkscape:cx="79.150662"
     inkscape:cy="52.239297"
     inkscape:window-x="0"
     inkscape:window-y="0"
     inkscape:window-maximized="0"
     inkscape:current-layer="svg850"
     inkscape:document-rotation="0" />
  <defs
     id="defs854">
    <filter
       y="-0.15000001"
       x="-0.15000001"
       height="1.3"
       width="1.3"
       id="filter1800"
       style="color-interpolation-filters:sRGB">
      <feFlood
         id="feFlood1790"
         result="flood"
         flood-color="rgb(0,0,0)"
         flood-opacity="0.231373" />
      <feComposite
         id="feComposite1792"
         result="composite1"
         operator="in"
         in2="SourceGraphic"
         in="flood" />
      <feGaussianBlur
         id="feGaussianBlur1794"
         result="blur"
         stdDeviation="6"
         in="composite1" />
      <feOffset
         id="feOffset1796"
         result="offset"
         dy="3"
         dx="0" />
      <feComposite
         id="feComposite1798"
         result="composite2"
         operator="out"
         in2="SourceGraphic"
         in="offset" />
    </filter>
    <filter
       y="-0.15000001"
       x="-0.15000001"
       height="1.3"
       width="1.3"
       id="filter1814"
       style="color-interpolation-filters:sRGB">
      <feFlood
         id="feFlood1804"
         result="flood"
         flood-color="rgb(0,0,0)"
         flood-opacity="0.231373" />
      <feComposite
         id="feComposite1806"
         result="composite1"
         operator="in"
         in2="SourceGraphic"
         in="flood" />
      <feGaussianBlur
         id="feGaussianBlur1808"
         result="blur"
         stdDeviation="6"
         in="composite1" />
      <feOffset
         id="feOffset1810"
         result="offset"
         dy="3"
         dx="0" />
      <feComposite
         id="feComposite1812"
         result="composite2"
         operator="out"
         in2="SourceGraphic"
         in="offset" />
    </filter>
  </defs>
  <path
     id="path848-3"
     d="M 77.3,11.1 C 70.6,8.1 63.3,6.5 56,6.5 27.2,6.6 3.8,29.9 3.8,58.69999 3.8,70.5 7.8,82 15.2,91.300001 c 1,5 0.3,10.199999 -2,14.699999 -4.6,8.9 14.4,2.9 21.4,0.4 26.3,11.8 57.2,0 69,-26.3 11.8,-26.3 0,-57.2 -26.3,-69 z"
     style="fill:#2a54a9;fill-opacity:0.9" />
  <path
     id="path848"
     d="m 31.8,29.8 c -1.5,0.3 -3.1,0.5 -4.6,0.5 -1.6,0 -3.1,-0.1 -4.6,-0.5 0.3,1 0.9,1.8 1.7,2.4 a 4.65,4.65 0 0 0 5.7,0 4.3,4.3 0 0 0 1.8,-2.4 z m 21.7,-7.7 c -2.09999,0.5 -4.19999,0.7 -6.29999,0.7 C 45.1,22.8 43,22.6 40.9,22.1 c 0.4,1.3 1.3,2.5 2.4,3.3 2.3,1.7 5.50001,1.7 7.90001,0 1.1,-0.8 1.89999,-2 2.29999,-3.3 z m 18.2,3.7 a 27.6,27.6 0 0 1 -11.4,0 c 0.4,1.2 1.1,2.2 2.1,3 a 5.85,5.85 0 0 0 7.1,0 c 1.1,-0.8 1.8,-1.8 2.2,-3 z m 7.2,4.6 z m 9.7,0 c -3.2,0.7 -6.5,0.7 -9.6,0 0.3,1 1,1.9 1.8,2.5 a 5.1,5.1 0 0 0 6,0 c 0.8,-0.6 1.4,-1.5 1.8,-2.5 z m 15,28.40001 C 103.6,85.100011 82.3,106.4 56,106.4 c -7.59999,0 -14.8,-1.8 -21.1,-5 l -1.7,0.6 c -6.2,2.2 -11.4,3.5 -14.8,3.9 2,-4.9 2.5,-10.299989 1.4,-15.499989 l -0.2,-1.1 C 12.6,81.00001 8.4,70.40001 8.4,58.80001 A 46.88,46.88 0 0 1 10.9,43.7 h 7.8 c 1.1,-4 4.5,-6.9 8.5,-6.9 3.3,0 6.2,2 7.7,4.9 1.1,-6.2 6.1,-10.9 12.00001,-10.9 4.7,0 8.79999,2.9 10.79999,7.2 2,-2.5 5,-4.1 8.3,-4.1 4.7,0 8.7,3.2 10.3,7.7 1.7,-2.5 4.4,-4.1 7.5,-4.1 3.8,0 7.1,2.5 8.6,6.2 h 8.8 c 1.5,4.7 2.4,9.80001 2.4,15.10001 z M 90.5,28.8 a 6.700001,6.700001 0 1 1 -13.4,0 6.7,6.7 0 0 1 6.7,-6.7 c 3.7,-0.1 6.7,3 6.7,6.7 z M 73.9,23.9 A 7.85,7.85 0 0 1 66,31.8 7.85,7.85 0 0 1 58.1,23.9 7.92,7.92 0 0 1 66,16 7.92,7.92 0 0 1 73.9,23.9 Z M 56,20 A 8.75,8.75 0 0 1 47.20001,28.8 8.75,8.75 0 0 1 38.4,20 8.75,8.75 0 0 1 47.20001,11.2 c 4.9,0 8.79999,4 8.79999,8.8 z m -22.4,8.3 c 0,3.5 -2.9,6.4 -6.4,6.4 -3.5,0 -6.4,-2.9 -6.4,-6.4 0,-3.5 2.9,-6.4 6.4,-6.4 3.5,0 6.4,2.9 6.4,6.4 z M 77.3,11.1 C 70.6,8.1 63.3,6.5 56,6.5 27.2,6.6 3.8,29.9 3.8,58.70001 c 0,11.8 4,23.3 11.4,32.600001 1,5 0.3,10.199989 -2,14.699989 -4.6,8.9 14.4,2.9 21.4,0.4 26.3,11.8 57.2,0 69,-26.29999 C 115.4,53.80001 103.6,22.9 77.3,11.1 Z"
     style="fill:#ffffff" />
</svg>
