<?xml version="1.0" encoding="UTF-8" standalone="no"?>
<svg
   xmlns:dc="http://purl.org/dc/elements/1.1/"
   xmlns:cc="http://creativecommons.org/ns#"
   xmlns:rdf="http://www.w3.org/1999/02/22-rdf-syntax-ns#"
   xmlns:svg="http://www.w3.org/2000/svg"
   xmlns="http://www.w3.org/2000/svg"
   xmlns:sodipodi="http://sodipodi.sourceforge.net/DTD/sodipodi-0.dtd"
   xmlns:inkscape="http://www.inkscape.org/namespaces/inkscape"
   id="Layer_1"
   data-name="Layer 1"
   viewBox="0 0 791.27001 228.74001"
   version="1.1"
   sodipodi:docname="overleaf.svg"
   width="791.27002"
   height="228.74001"
   inkscape:version="1.0.1 (c497b03c, 2020-09-10)">
  <metadata
     id="metadata849">
    <rdf:RDF>
      <cc:Work
         rdf:about="">
        <dc:format>image/svg+xml</dc:format>
        <dc:type
           rdf:resource="http://purl.org/dc/dcmitype/StillImage" />
        <dc:title>stickers alt</dc:title>
      </cc:Work>
    </rdf:RDF>
  </metadata>
  <sodipodi:namedview
     pagecolor="#ffffff"
     bordercolor="#666666"
     borderopacity="1"
     objecttolerance="10"
     gridtolerance="10"
     guidetolerance="10"
     inkscape:pageopacity="0"
     inkscape:pageshadow="2"
     inkscape:window-width="1440"
     inkscape:window-height="900"
     id="namedview847"
     showgrid="false"
     fit-margin-top="0"
     fit-margin-left="0"
     fit-margin-right="0"
     fit-margin-bottom="0"
     inkscape:zoom="0.84452838"
     inkscape:cx="395.945"
     inkscape:cy="114.415"
     inkscape:window-x="0"
     inkscape:window-y="0"
     inkscape:window-maximized="0"
     inkscape:current-layer="Layer_1" />
  <defs
     id="defs836">
    <mask
       id="mask"
       x="24.94"
       y="24.88"
       width="436.94"
       height="228.83"
       maskUnits="userSpaceOnUse">
      <g
         id="b">
        <path
           id="a"
           d="M 461.86,253.62 H 25 V 24.88 h 436.86 z"
           fill="#ffffff" />
      </g>
    </mask>
  </defs>
  <title
     id="title838">stickers alt</title>
  <g
     mask="url(#mask)"
     id="g842"
     transform="translate(-25,-24.88)">
    <path
       d="m 312.65,185.52 c 0.85,7.88 4,14.16 9.42,18.66 5.42,4.5 12.41,6.86 21,6.86 a 32.75,32.75 0 0 0 15.37,-3.59 27.42,27.42 0 0 0 10.8,-10.07 h 27.52 c -4.67,11.94 -11.59,21.23 -20.88,27.86 -9.29,6.63 -20,9.9 -32.12,9.9 a 57.64,57.64 0 0 1 -22.57,-4.32 55,55 0 0 1 -18.55,-12.82 57.62,57.62 0 0 1 -12.12,-18.69 56.38,56.38 0 0 1 -4.38,-21.76 58.8,58.8 0 0 1 3.94,-21.55 55,55 0 0 1 11.53,-18.19 59.67,59.67 0 0 1 19,-13.58 51.34,51.34 0 0 1 21.76,-4.82 57.14,57.14 0 0 1 26.57,6.42 64.28,64.28 0 0 1 21,18.25 48.87,48.87 0 0 1 7.75,15.92 75.94,75.94 0 0 1 2.54,20.15 c 0,0.58 0,1.46 -0.12,2.77 -0.12,1.31 -0.15,2.19 -0.15,2.77 h -87.6 z m 60.45,-20.25 q -3.24,-11 -11,-16.69 c -5.14,-3.8 -11.64,-5.72 -19.46,-5.72 a 29.16,29.16 0 0 0 -18.25,6.14 30.18,30.18 0 0 0 -11,16.21 h 59.71 z m 88.77,-20.44 c -9.93,0.79 -16.82,3.4 -20.73,7.8 -3.91,4.4 -5.88,12.26 -5.88,23.7 v 55.92 H 409.75 V 122.62 h 23.9 v 12.66 a 38.1,38.1 0 0 1 12.66,-11 33.12,33.12 0 0 1 15.48,-3.5 v 23.8 z M 222.35,32 C 191.45,20 79.45,15.5 79.26,82.33 c -32.68,20.92 -54.32,55 -54.32,91.52 A 79.84,79.84 0 1 0 133.22,99.27 c -5.78,-2.23 -18.34,-6.18 -28.37,-5.33 -14.31,9.1 -31.76,27.8 -40,46.43 a 52.39,52.39 0 1 1 39.8,86.09 52.44,52.44 0 0 1 -40,-18.43 C 50.49,191.36 46.84,173.28 49.76,155.61 59.84,93.68 133.28,58.45 187.89,44.91 170.08,54.34 137.95,69.83 115.47,86.71 181,112 191.64,56.76 222.35,32 Z m 26.57,200.21 h -20 L 187.23,122.62 h 27.19 l 25.51,72.86 26.33,-72.86 h 26.49 l -43.8,109.63 z"
       fill="#79786f"
       id="path840" />
  </g>
  <path
     d="m 509,160.64 c 0.85,7.88 4,14.16 9.42,18.66 5.42,4.5 12.41,6.86 21,6.86 a 32.75,32.75 0 0 0 15.37,-3.59 28.65,28.65 0 0 0 10.8,-10.07 H 593 c -4.67,11.94 -11.68,21.23 -20.88,27.86 a 54.19,54.19 0 0 1 -32.12,9.9 57.88,57.88 0 0 1 -22.63,-4.32 56.47,56.47 0 0 1 -18.52,-12.82 57.62,57.62 0 0 1 -12.12,-18.69 56.38,56.38 0 0 1 -4.38,-21.76 58.8,58.8 0 0 1 3.94,-21.55 55.1,55.1 0 0 1 11.56,-18.19 60.83,60.83 0 0 1 19,-13.58 53,53 0 0 1 21.9,-4.82 57.27,57.27 0 0 1 26.57,6.42 63.12,63.12 0 0 1 21,18.25 50.27,50.27 0 0 1 7.84,15.92 72.42,72.42 0 0 1 2.58,20.15 c 0,0.58 -0.06,1.46 -0.12,2.77 -0.06,1.31 -0.15,2.19 -0.15,2.77 h -87.74 z m 60.48,-20.25 c -2.19,-7.3 -5.84,-12.85 -11,-16.69 -5.16,-3.84 -11.62,-5.72 -19.45,-5.72 a 29.28,29.28 0 0 0 -18.3,6.14 29.88,29.88 0 0 0 -10.86,16.21 h 59.59 z m 128.68,67 V 193.9 a 28.33,28.33 0 0 1 -12.89,12.08 c -5.55,2.58 -12.66,3.87 -21.29,3.87 q -24.31,0 -40.59,-16.6 -16.28,-16.6 -16.31,-41.13 a 59.08,59.08 0 0 1 4.09,-22 54.78,54.78 0 0 1 11.65,-18.25 52.79,52.79 0 0 1 18.18,-12.75 58.17,58.17 0 0 1 22.41,-4.15 49.28,49.28 0 0 1 20.59,4.07 32.44,32.44 0 0 1 13.83,12.08 V 97.87 h 24.92 V 207.53 H 698.14 Z M 633.2,151.65 c 0,9.23 3.07,16.94 9.34,23.17 a 30.09,30.09 0 0 0 22.46,9.3 c 8,0 15.19,-3.07 21.32,-9.34 a 30.38,30.38 0 0 0 9.2,-21.9 32,32 0 0 0 -9.2,-22.92 q -9.2,-9.64 -21.46,-9.64 a 30.22,30.22 0 0 0 -22.15,9.2 30.58,30.58 0 0 0 -9.13,22.34 z M 790.9,97.74 v 22.72 h -18.4 v 86.91 h -24.68 v -86.91 h -13 V 97.74 h 12.26 v -3 q 0,-17.3 9.64,-25.84 c 6.42,-5.65 16.06,-8.51 29.06,-8.51 0.58,0 1.46,0 2.63,0.1 a 20.67,20.67 0 0 0 2.77,0.15 v 22.92 h -1.75 c -5.75,0 -9.93,1 -12.41,2.92 -2.48,1.92 -3.68,5.11 -3.68,9.49 v 2 h 17.93 z M 448,207.37 h 25 V 62.26 h -25 z"
     fill="#47a141"
     id="path844" />
</svg>
