<?xml version="1.0" encoding="UTF-8" standalone="no"?>
<svg
   xmlns:dc="http://purl.org/dc/elements/1.1/"
   xmlns:cc="http://creativecommons.org/ns#"
   xmlns:rdf="http://www.w3.org/1999/02/22-rdf-syntax-ns#"
   xmlns:svg="http://www.w3.org/2000/svg"
   xmlns="http://www.w3.org/2000/svg"
   xmlns:sodipodi="http://sodipodi.sourceforge.net/DTD/sodipodi-0.dtd"
   xmlns:inkscape="http://www.inkscape.org/namespaces/inkscape"
   id="Layer_1"
   data-name="Layer 1"
   viewBox="0 0 578.22997 670.3014"
   version="1.1"
   sodipodi:docname="overleaf.svg"
   width="578.22998"
   height="670.30139"
   inkscape:version="1.0.1 (c497b03c, 2020-09-10)">
  <metadata
     id="metadata24">
    <rdf:RDF>
      <cc:Work
         rdf:about="">
        <dc:format>image/svg+xml</dc:format>
        <dc:type
           rdf:resource="http://purl.org/dc/dcmitype/StillImage" />
        <dc:title>stickers alt</dc:title>
      </cc:Work>
    </rdf:RDF>
  </metadata>
  <sodipodi:namedview
     pagecolor="#ffffff"
     bordercolor="#666666"
     borderopacity="1"
     objecttolerance="10"
     gridtolerance="10"
     guidetolerance="10"
     inkscape:pageopacity="0"
     inkscape:pageshadow="2"
     inkscape:window-width="1440"
     inkscape:window-height="900"
     id="namedview22"
     showgrid="false"
     fit-margin-top="0"
     fit-margin-left="0"
     fit-margin-right="0"
     fit-margin-bottom="0"
     inkscape:zoom="0.68729328"
     inkscape:cx="246.175"
     inkscape:cy="335.28139"
     inkscape:window-x="0"
     inkscape:window-y="0"
     inkscape:window-maximized="0"
     inkscape:current-layer="Layer_1" />
  <defs
     id="defs13">
    <mask
       id="mask"
       x="174.51"
       y="91.03"
       width="1280.35"
       height="670.56"
       maskUnits="userSpaceOnUse">
      <g
         id="b">
        <path
           id="a"
           d="M 1454.86,761.33 H 174.77 V 91 h 1280.09 z"
           fill="#ffffff" />
      </g>
    </mask>
  </defs>
  <title
     id="title15">stickers alt</title>
  <g
     mask="url(#mask)"
     id="g19"
     transform="translate(-174.77,-91.028606)">
    <path
       d="M 753,112 C 662.45,76.7 334.23,63.65 333.68,259.49 237.92,320.8 174.51,420.79 174.51,527.67 c 0,129.22 104.74,233.91 234,233.91 129.26,0 234,-104.74 234,-233.91 A 233.93,233.93 0 0 0 491.82,309 c -16.94,-6.55 -53.74,-18.1 -83.13,-15.62 -41.93,26.66 -93.06,81.47 -117.24,136.06 35.94,-43.13 92.12,-62 141.88,-53.91 a 154.17,154.17 0 0 1 129.21,152.1 c 0,85.15 -69.31,154.12 -154.46,154.12 a 153.66,153.66 0 0 1 -117.24,-54 C 249.34,578.89 238.64,525.92 247.2,474.15 276.77,292.65 492,189.4 652,149.74 599.8,177.38 505.67,222.74 439.78,272.24 631.9,346.43 663,184.44 753,112 Z"
       fill="#47a141"
       id="path17" />
  </g>
</svg>
