<?xml version="1.0" encoding="UTF-8" standalone="no"?>
<svg
   viewBox="0 0 103.2478 41.298199"
   fill="none"
   id="revue"
   height="41.298199"
   width="103.2478"
   version="1.1"
   sodipodi:docname="revue.svg"
   inkscape:version="1.2 (dc2aeda, 2022-05-15)"
   xmlns:inkscape="http://www.inkscape.org/namespaces/inkscape"
   xmlns:sodipodi="http://sodipodi.sourceforge.net/DTD/sodipodi-0.dtd"
   xmlns="http://www.w3.org/2000/svg"
   xmlns:svg="http://www.w3.org/2000/svg">
  <defs
     id="defs32" />
  <sodipodi:namedview
     id="namedview30"
     pagecolor="#ffffff"
     bordercolor="#666666"
     borderopacity="1.0"
     inkscape:showpageshadow="2"
     inkscape:pageopacity="0.0"
     inkscape:pagecheckerboard="0"
     inkscape:deskcolor="#d1d1d1"
     showgrid="false"
     inkscape:zoom="4.9166667"
     inkscape:cx="52.067797"
     inkscape:cy="24"
     inkscape:window-width="1280"
     inkscape:window-height="800"
     inkscape:window-x="1920"
     inkscape:window-y="213"
     inkscape:window-maximized="0"
     inkscape:current-layer="revue" />
  <path
     fill-rule="evenodd"
     clip-rule="evenodd"
     d="m 42.8317,35.4007 0.0107,-0.0053 c 0.8351,-0.4101 1.4804,5.9028 -8.6156,5.9028 -11.7659,0 -15.8892,-12.828 -16.6621,-17.8752 0,0 -1.7675,0.6711 -3.3093,1.1437 -0.9192,3.5972 -1.9344,7.0224 -2.3204,7.9568 -0.3542,0.8586 -5.6426804,1.6413 -4.8835404,-1.2682 0.75915,-2.9087 1.96912,-7.4845 2.847,-10.5804 C 10.6232,18.1202 12.2897,11.817 11.3029,10.0452 c 0,0 1.2335,-1.2309 2.9413,-1.2309 1.4088,0 2.7897,0.39176 2.7897,2.7412 0,0.8448 -0.2942,2.1598 -1.0809,5.6761 -0.2019,0.9026 -0.4363,1.9501 -0.7064,3.172 2.9746,-0.9774 9.6813,-3.9913 9.6813,-9.7111 0,-4.61306 -2.3532,-7.22546 -6.3763,-7.22546 -7.629,0 -12.8669904,7.27446 -13.8538504,11.89416 -0.30084,1.4073 -6.3625,-0.0014 -4.25285196,-4.517 C 3.7866096,3.69217 11.53,0 18.5014,0 c 6.2747,0 12.4872,3.16992 12.4872,10.6914 0,7.5096 -8.9072,11.213 -8.9072,11.213 0,0 2.4292,14.8651 14.1951,14.8651 3.7696,0 5.5414,-0.8707 6.5552,-1.3688 z M 40.1734,15.7249 c 0.7092,-0.0312 1.2068,0.3184 1.2452,1.1644 0.2148,4.6949 -6.2929,5.1876 -6.2929,5.1876 0.2782,-2.2961 2.4708,-6.2381 5.0477,-6.352 z m 21.0085,-3.554 c -1.9029,0 -3.3589,1.6227 -3.3589,3.3569 0,1.4989 0.654,2.2345 1.2698,2.927 0.5581,0.6277 1.0848,1.2201 1.0644,2.3136 -0.0436,2.2998 -3.7699,8.8272 -6.2862,8.8272 -0.9324,0 -1.0769,-0.9263 -1.0769,-1.3611 0,-2.5987 0.8262,-5.8531 1.5029,-8.5186 0.4694,-1.8488 0.8668,-3.4143 0.8668,-4.2813 0,-1.9955 -1.2317,-2.5048 -2.7061,-2.5048 -1.9482,0 -3.0237,1.2183 -3.0237,1.2183 0.6754,1.3777 0.0123,4.6687 -0.7416,7.8303 -1.3029,3.6374 -5.5257,8.0098 -9.303,8.0296 -4.9343,0.0247 -4.2136,-5.0929 -4.2136,-5.0929 0,0 11.6048,0.2544 11.242,-7.6751 -0.1532,-3.3363 -3.4246,-4.7705 -6.3599,-4.6406 -5.99,0.2647 -10.7611,5.8692 -10.4436,12.8042 0.2504,5.4743 4.4074,8.0852 8.8329,7.8902 3.9151,-0.1738 6.8395,-1.9169 8.9423,-3.9486 0.2756,2.2777 1.729,3.9738 4.5126,3.9738 7.2588,0 12.9992,-10.2987 12.9992,-16.6847 0,-2.3371 -1.2424,-4.4634 -3.7194,-4.4634 z m 35.6424,3.617 c 0.7925,-0.016 1.212,0.3531 1.2295,1.1997 0.0981,4.6178 -6.216,5.0328 -6.216,5.0328 0.3347,-2.289 2.136,-6.1742 4.9865,-6.2325 z m 3.9667,11.2664 c -1.4845,1.5975 -3.3567,2.8152 -5.4317,2.8579 -3.9792,0.0812 -3.4983,-4.9225 -3.4983,-4.9225 0,0 11.552,0.3981 11.385,-7.5372 -0.071,-3.3391 -3.3069,-4.8502 -6.2445,-4.7903 -5.9948,0.123 -11.0539,5.6157 -10.9073,12.5567 0.0143,0.6676 0.0766,1.2937 0.1838,1.879 -0.778,1.0021 -2.1518,2.504 -3.3965,2.504 -0.6831,0 -0.9392,-0.5965 -0.9392,-1.2676 0,-2.8922 0.7698,-5.7592 1.4359,-8.2397 v -10e-5 c 0.5078,-1.8913 0.9554,-3.558 0.9554,-4.84 0,-1.7993 -1.2462,-2.3147 -2.79,-2.3147 -1.9031,0 -2.9614,1.2209 -2.9614,1.2209 1.0382,2.8094 -2.6497,15.4412 -6.5268,15.4412 -0.9172,0 -1.0772,-0.7092 -1.0772,-1.2874 0,-2.0293 0.681,-4.793 1.3128,-7.3572 v -10e-5 -2e-4 c 0.5468,-2.2188 1.0567,-4.2881 1.0567,-5.603 0,-1.8836 -1.2711,-2.4429 -2.7791,-2.4429 -1.7841,0 -2.9665,1.2496 -2.9665,1.2496 0.8028,1.5235 -0.2256,5.7504 -1.1004,9.3463 -0.5171,2.1255 -0.9806,4.0306 -0.9806,5.0266 0,2.681 1.5079,4.7978 4.1648,4.7978 4.3171,0 6.8222,-5.3338 6.8222,-5.3338 0,0 -0.5756,5.3338 4.6662,5.3338 2.6886,0 4.8281,-2.2508 5.9529,-3.7464 1.3832,2.5504 4.0908,3.8017 7.7558,3.7272 2.6362,-0.0542 4.5279,-0.797 5.992,-2.091 2.259,-1.9984 0.754,-5.0694 -0.084,-4.1669 z"
     fill="#e15718"
     id="path9" />
</svg>
