<svg xmlns="http://www.w3.org/2000/svg" xmlns:xlink="http://www.w3.org/1999/xlink" viewBox="0 0 840 980"><defs><filter id="g" width="1.41" height="1.41" x="-.205" y="-.205" color-interpolation-filters="sRGB"><feGaussianBlur stdDeviation="7.137"/></filter><filter id="h" width="3.367" height="1.36" x="-1.183" y="-.18" color-interpolation-filters="sRGB"><feGaussianBlur stdDeviation="6.512"/></filter><filter id="m" width="1.909" height="1.383" x="-.454" y="-.191" color-interpolation-filters="sRGB"><feGaussianBlur stdDeviation="6.69"/></filter><filter id="o" width="1.211" height="1.092" x="-.105" y="-.046" color-interpolation-filters="sRGB"><feGaussianBlur stdDeviation="1.355"/></filter><filter id="q" width="1.597" height="1.254" x="-.298" y="-.127" color-interpolation-filters="sRGB"><feGaussianBlur stdDeviation="2.758"/></filter><filter id="s" width="1.303" height="1.129" x="-.151" y="-.064" color-interpolation-filters="sRGB"><feGaussianBlur stdDeviation="2.839"/></filter><filter id="t" width="2.745" height="1.883" x="-.872" y="-.441" color-interpolation-filters="sRGB"><feGaussianBlur stdDeviation="7.105"/></filter><filter id="u" width="2.115" height="1.507" x="-.558" y="-.254" color-interpolation-filters="sRGB"><feGaussianBlur stdDeviation="2.543"/></filter><filter id="w" width="1.807" height="1.371" x="-.404" y="-.186" color-interpolation-filters="sRGB"><feGaussianBlur stdDeviation="1.535"/></filter><filter id="x" width="1.383" height="1.169" x="-.192" y="-.084" color-interpolation-filters="sRGB"><feGaussianBlur stdDeviation="3.743"/></filter><filter id="G" width="1.426" height="1.341" x="-.213" y="-.171" color-interpolation-filters="sRGB"><feGaussianBlur stdDeviation="4.409"/></filter><filter id="J" width="1.36" height="1.281" x="-.18" y="-.14" color-interpolation-filters="sRGB"><feGaussianBlur stdDeviation="3.4"/></filter><filter id="K" width="1.758" height="1.377" x="-.379" y="-.188" color-interpolation-filters="sRGB"><feGaussianBlur stdDeviation="2.745"/></filter><filter id="M" width="1.45" height="1.217" x="-.225" y="-.108" color-interpolation-filters="sRGB"><feGaussianBlur stdDeviation=".337"/></filter><filter id="N" width="2.263" height="2.091" x="-.632" y="-.545" color-interpolation-filters="sRGB"><feGaussianBlur stdDeviation="1.569"/></filter><filter id="P" width="1.256" height="1.225" x="-.128" y="-.113" color-interpolation-filters="sRGB"><feGaussianBlur stdDeviation=".337"/></filter><filter id="Q" width="2.099" height="3.526" x="-.549" y="-1.263" color-interpolation-filters="sRGB"><feGaussianBlur stdDeviation="2.332"/></filter><filter id="R" width="1.187" height="1.166" x="-.093" y="-.083" color-interpolation-filters="sRGB"><feGaussianBlur stdDeviation=".079"/></filter><filter id="S" width="2.503" height="2.336" x="-.751" y="-.668" color-interpolation-filters="sRGB"><feGaussianBlur stdDeviation=".633"/></filter><filter id="T" width="1.187" height="1.166" x="-.093" y="-.083" color-interpolation-filters="sRGB"><feGaussianBlur stdDeviation=".079"/></filter><filter id="U" width="2.503" height="2.336" x="-.751" y="-.668" color-interpolation-filters="sRGB"><feGaussianBlur stdDeviation=".633"/></filter><filter id="Z" width="1.206" height="1.235" x="-.103" y="-.118" color-interpolation-filters="sRGB"><feGaussianBlur stdDeviation="5.108"/></filter><filter id="ae" width="1.082" height="1.263" x="-.041" y="-.132" color-interpolation-filters="sRGB"><feGaussianBlur stdDeviation="1.222"/></filter><filter id="ah" width="1.037" height="1.131" x="-.019" y="-.065" color-interpolation-filters="sRGB"><feGaussianBlur stdDeviation=".523"/></filter><filter id="aj" width="1.281" height="1.259" x="-.14" y="-.13" color-interpolation-filters="sRGB"><feGaussianBlur stdDeviation=".776"/></filter><filter id="al" width="1.341" height="1.406" x="-.17" y="-.203" color-interpolation-filters="sRGB"><feGaussianBlur stdDeviation="1.251"/></filter><filter id="an" width="1.179" height="1.28" x="-.09" y="-.14" color-interpolation-filters="sRGB"><feGaussianBlur stdDeviation="3.244"/></filter><filter id="aq" width="1.242" height="1.227" x="-.121" y="-.114" color-interpolation-filters="sRGB"><feGaussianBlur stdDeviation="6.681"/></filter><filter id="aH" width="1.244" height="1.265" x="-.122" y="-.133" color-interpolation-filters="sRGB"><feGaussianBlur stdDeviation="8.597"/></filter><filter id="aJ" width="2.217" height="2.585" x="-.609" y="-.793" color-interpolation-filters="sRGB"><feGaussianBlur stdDeviation="20.144"/></filter><filter id="aI" width="1.063" height="1.062" x="-.031" y="-.031" color-interpolation-filters="sRGB"><feGaussianBlur stdDeviation="1.957"/></filter><filter id="aG" width="1.306" height="1.312" x="-.153" y="-.156" color-interpolation-filters="sRGB"><feGaussianBlur stdDeviation="9.894"/></filter><filter id="ar" width="1.123" height="1.116" x="-.061" y="-.058" color-interpolation-filters="sRGB"><feGaussianBlur stdDeviation="3.24"/></filter><filter id="ap" width="1.331" height="1.327" x="-.165" y="-.164" color-interpolation-filters="sRGB"><feGaussianBlur stdDeviation="8.846"/></filter><filter id="aC" width="1.381" height="1.607" x="-.191" y="-.304" color-interpolation-filters="sRGB"><feGaussianBlur stdDeviation="10.285"/></filter><filter id="aB" width="1.415" height="1.562" x="-.208" y="-.281" color-interpolation-filters="sRGB"><feGaussianBlur stdDeviation="11.001"/></filter><filter id="f" width="1.332" height="1.332" x="-.166" y="-.166" color-interpolation-filters="sRGB"><feGaussianBlur stdDeviation="13.462"/></filter><filter id="at" width="1.083" height="1.08" x="-.041" y="-.04" color-interpolation-filters="sRGB"><feGaussianBlur stdDeviation="1.13"/></filter><filter id="ax" width="1.154" height="1.159" x="-.077" y="-.079" color-interpolation-filters="sRGB"><feGaussianBlur stdDeviation="1.81"/></filter><filter id="ay" width="1.632" height="1.652" x="-.316" y="-.326" color-interpolation-filters="sRGB"><feGaussianBlur stdDeviation="7.432"/></filter><filter id="az" width="1.725" height="1.981" x="-.362" y="-.49" color-interpolation-filters="sRGB"><feGaussianBlur stdDeviation="7.686"/></filter><filter id="C" width="1.503" height="1.539" x="-.252" y="-.27" color-interpolation-filters="sRGB"><feGaussianBlur stdDeviation="2.042"/></filter><filter id="E" width="1.327" height="1.519" x="-.164" y="-.26" color-interpolation-filters="sRGB"><feGaussianBlur stdDeviation="2.329"/></filter><filter id="L" width="1.673" height="1.294" x="-.336" y="-.147" color-interpolation-filters="sRGB"><feGaussianBlur stdDeviation="1.385"/></filter><filter id="H" width="1.715" height="1.595" x="-.358" y="-.297" color-interpolation-filters="sRGB"><feGaussianBlur stdDeviation="3.914"/></filter><filter id="O" width="1.447" height="1.35" x="-.224" y="-.175" color-interpolation-filters="sRGB"><feGaussianBlur stdDeviation="1.498"/></filter><filter id="as" width="1.94" height="2.098" x="-.47" y="-.549" color-interpolation-filters="sRGB"><feGaussianBlur stdDeviation="17.514"/></filter><filter id="am" width="1.977" height="3.162" x="-.489" y="-1.081" color-interpolation-filters="sRGB"><feGaussianBlur stdDeviation="4.14"/></filter><filter id="y" width="1.451" height="1.375" x="-.226" y="-.188" color-interpolation-filters="sRGB"><feGaussianBlur stdDeviation="2.806"/></filter><filter id="j" width="1.141" height="1.096" x="-.071" y="-.048" color-interpolation-filters="sRGB"><feGaussianBlur stdDeviation="7.687"/></filter><filter id="z" width="1.923" height="1.665" x="-.461" y="-.333" color-interpolation-filters="sRGB"><feGaussianBlur stdDeviation="6.577"/></filter><filter id="aa" width="1.451" height="1.455" x="-.226" y="-.227" color-interpolation-filters="sRGB"><feGaussianBlur stdDeviation="2.682"/></filter><filter id="aD" width="1.149" height="1.196" x="-.074" y="-.098" color-interpolation-filters="sRGB"><feGaussianBlur stdDeviation=".944"/></filter><filter id="V" width="1.588" height="1.779" x="-.294" y="-.39" color-interpolation-filters="sRGB"><feGaussianBlur stdDeviation="9.23"/></filter><filter id="X" width="1.198" height="1.29" x="-.099" y="-.145" color-interpolation-filters="sRGB"><feGaussianBlur stdDeviation="2.911"/></filter><filter id="k" width="1.663" height="1.579" x="-.332" y="-.289" color-interpolation-filters="sRGB"><feGaussianBlur stdDeviation="9.174"/></filter><filter id="aK" width="1.069" height="1.071" x="-.034" y="-.036" color-interpolation-filters="sRGB"><feGaussianBlur stdDeviation=".976"/></filter><filter id="B" width="1.844" height="1.674" x="-.422" y="-.337"><feGaussianBlur stdDeviation="1.831"/></filter><linearGradient id="a"><stop offset="0" stop-color="#fff"/><stop offset="1" stop-color="#fff" stop-opacity="0"/></linearGradient><linearGradient id="b"><stop offset="0" stop-color="#450e00" stop-opacity=".541"/><stop offset="1" stop-color="#680f00" stop-opacity="0"/></linearGradient><linearGradient id="c"><stop offset="0" stop-color="#820000" stop-opacity=".432"/><stop offset="1" stop-color="#730000" stop-opacity="0"/></linearGradient><linearGradient id="d" x1="776.1" x2="757.6" y1="-273.1" y2="-438.9" gradientTransform="translate(-4319 1377) scale(1.371)" gradientUnits="userSpaceOnUse"><stop offset="0" stop-color="#0c0c0c"/><stop offset="1" stop-color="#262626"/></linearGradient><linearGradient id="n" x1="821.5" x2="809.4" y1="-223.3" y2="-274.9" gradientUnits="userSpaceOnUse"><stop offset="0" stop-color="#fff" stop-opacity="0"/><stop offset=".497" stop-color="#fff"/><stop offset="1" stop-color="#fff" stop-opacity="0"/></linearGradient><linearGradient xlink:href="#a" id="r" x1="673.8" x2="697.5" y1="-196.9" y2="-170.7" gradientUnits="userSpaceOnUse"/><linearGradient id="v" x1="791.4" x2="798.2" y1="-346.5" y2="-332.9" gradientUnits="userSpaceOnUse"><stop offset="0" stop-color="#fff"/><stop offset="1" stop-color="#fff" stop-opacity="0"/></linearGradient><linearGradient id="A" x1="713.9" x2="711.1" y1="-443.6" y2="-433.6" gradientUnits="userSpaceOnUse"><stop offset="0" stop-color="#fff"/><stop offset="1" stop-color="#fff" stop-opacity="0"/></linearGradient><linearGradient id="W" x1="742.9" x2="750.7" y1="-351.5" y2="-325.8" gradientUnits="userSpaceOnUse"><stop offset="0"/><stop offset="1" stop-opacity="0"/></linearGradient><linearGradient id="ab" x1="732.5" x2="738.2" y1="-378.7" y2="-377" gradientUnits="userSpaceOnUse"><stop offset="0" stop-color="#a94900"/><stop offset="1" stop-color="#a94900" stop-opacity=".653"/></linearGradient><linearGradient id="ac" x1="719.8" x2="722.2" y1="-378.3" y2="-376.9" gradientUnits="userSpaceOnUse"><stop offset="0" stop-color="#a92700" stop-opacity=".71"/><stop offset="1" stop-color="#a94900" stop-opacity=".476"/></linearGradient><linearGradient id="ad" x1="700.2" x2="769.2" y1="-355.4" y2="-360.7" gradientUnits="userSpaceOnUse"><stop offset="0" stop-color="#8b0000" stop-opacity=".211"/><stop offset=".479" stop-color="#b10000" stop-opacity=".336"/><stop offset="1" stop-color="#6f1400" stop-opacity=".408"/></linearGradient><linearGradient xlink:href="#b" id="af" x1="725.2" x2="701.3" y1="-352.6" y2="-356.3" gradientUnits="userSpaceOnUse"/><linearGradient xlink:href="#b" id="ag" x1="725.2" x2="700.6" y1="-352.6" y2="-357.2" gradientUnits="userSpaceOnUse"/><linearGradient xlink:href="#c" id="ai" x1="701.8" x2="703.2" y1="-356" y2="-350.4" gradientUnits="userSpaceOnUse"/><linearGradient xlink:href="#c" id="ak" x1="703.2" x2="703.2" y1="-358.5" y2="-350.4" gradientUnits="userSpaceOnUse"/><linearGradient id="au" x1="848.1" x2="818.4" y1="-139.3" y2="-167" gradientUnits="userSpaceOnUse"><stop offset="0" stop-color="#951212" stop-opacity=".542"/><stop offset="1" stop-color="#500" stop-opacity="0"/></linearGradient><linearGradient id="aL" x1="671.7" x2="607.5" y1="-159.5" y2="-186.8" gradientUnits="userSpaceOnUse"><stop offset="0" stop-color="#801111" stop-opacity=".469"/><stop offset="1" stop-color="#500" stop-opacity="0"/></linearGradient><linearGradient id="aE" x1="830.8" x2="810" y1="-185.8" y2="-193.6" gradientUnits="userSpaceOnUse"><stop offset="0"/><stop offset="1" stop-opacity="0"/></linearGradient><linearGradient id="D" x1="747" x2="781" y1="-418" y2="-414.7" gradientUnits="userSpaceOnUse"><stop offset="0" stop-color="#fff"/><stop offset="1" stop-color="#fff" stop-opacity="0"/></linearGradient><clipPath id="e"><path fill="#ececec" d="M768.2-359.2c-12.18 4.206-24.31 8.677-36.85 11.72-2.796.861-5.818.919-8.636.125-5.633-1.632-10.83-4.413-16.05-7.034-1.03-.344-2.185.53-2.094 1.618-.362 2.227-.376 4.49-.71 6.723-.777 7.387-1.967 14.8-4.564 21.79-2.456 7.11-5.56 13.98-9.134 20.6-2.973 5.643-6.489 10.97-9.983 16.3-5.012 7.823-10.08 15.66-14.07 24.07-4.639 9.9-7.56 20.72-7.66 31.69-.13 8.449 1.586 16.83 4.333 24.8 3.11 9.265 6.878 18.31 11.12 27.11 2.607 5.265 5.227 10.56 8.628 15.37 4.69 6.75 11.03 12.27 18.11 16.41 7.635 4.479 16.27 7.12 25.04 8.1 7.56.854 15.26.688 22.75-.641 7.062-1.27 13.89-3.884 19.91-7.807 8.177-5.23 15.7-11.51 22.16-18.77 3.98-4.431 7.245-9.45 10.03-14.7 2.65-5.064 5.19-10.19 7.454-15.44 3.333-7.81 5.744-16.07 6.43-24.56.488-4.878.448-9.81.03-14.69-.865-9.397-3.002-18.69-6.508-27.46-3.36-8.483-7.822-16.46-12.02-24.55-3.968-7.575-7.96-15.14-11.84-22.76-4.304-8.557-8.353-17.29-11.2-26.45-1.874-6.166-3.052-12.56-3.25-19.01-.086-.894.067-2.23-1.03-2.531-.135-.061-.27-.018-.407 0z"/></clipPath><clipPath id="i"><path d="M737-464.4c-8.188 1.233-16.21 4.208-22.84 9.229-5.207 3.75-9.076 9.021-12.31 14.49-3.784 6.369-6.436 13.41-7.717 20.71-1.618 9.666-.858 19.5-.41 29.23.517 9.343 1.145 18.7.812 28.06-.447 7.208-2.204 14.31-4.995 20.96-4.564 11.61-10.85 22.42-16.94 33.27-8.82 15.35-17.97 30.52-26.62 45.97-3.719 6.651-7.332 13.41-9.835 20.63-1.924 5.458-3.105 11.16-3.758 16.91-.749 7.531-.342 15.37 2.6 22.43 1.725 4.31 4.355 8.162 6.797 12.08a779.514 779.514 0 0 0 21.23 30.44c5.446 7.271 10.9 14.57 17.17 21.16 2.823 2.946 5.894 5.661 9.308 7.908 6.948 4.739 14.73 8.131 22.67 10.81a88.504 88.504 0 0 0 29.71 4.274c6.312-.224 12.6-.875 18.82-1.989 11.43-1.894 22.65-4.935 33.57-8.808 7.251-2.632 14.64-5.405 20.75-10.24 3.37-2.626 6.078-5.968 8.988-9.07 7.998-9.042 14.98-18.94 21.28-29.22 3.832-6.261 7.351-12.71 10.72-19.23 3.522-7.015 7.093-14.05 9.606-21.51 1.28-3.995 2.163-8.132 2.282-12.34.241-5.958-.557-11.93-1.96-17.72-1.858-7.308-4.838-14.28-8.33-20.94-5.968-11.23-12.95-21.87-19.54-32.73-5.01-7.764-10.13-15.46-15.65-22.88-3.953-5.463-7.934-10.92-11.39-16.72a258.862 258.862 0 0 1-7.187-12.81c-2.41-4.731-4.248-9.769-5.194-15-1.798-9.887-1.47-19.99-1.324-29.99.103-8.243.403-16.56-1.099-24.71-1.443-8.252-4.552-16.31-9.69-22.98-5.533-7.316-13.36-12.7-21.88-15.97-8.815-3.258-18.33-3.872-27.65-3.696z"/></clipPath><clipPath id="l"><path d="M737-464.4c-8.188 1.233-16.21 4.208-22.84 9.229-5.207 3.75-9.076 9.021-12.31 14.49-3.784 6.369-6.436 13.41-7.717 20.71-1.618 9.666-.858 19.5-.41 29.23.517 9.343 1.145 18.7.812 28.06-.447 7.208-2.204 14.31-4.995 20.96-4.564 11.61-10.85 22.42-16.94 33.27-8.82 15.35-17.97 30.52-26.62 45.97-3.719 6.651-7.332 13.41-9.835 20.63-1.924 5.458-3.105 11.16-3.758 16.91-.749 7.531-.342 15.37 2.6 22.43 1.725 4.31 4.355 8.162 6.797 12.08a779.514 779.514 0 0 0 21.23 30.44c5.446 7.271 10.9 14.57 17.17 21.16 2.823 2.946 5.894 5.661 9.308 7.908 6.948 4.739 14.73 8.131 22.67 10.81a88.504 88.504 0 0 0 29.71 4.274c6.312-.224 12.6-.875 18.82-1.989 11.43-1.894 22.65-4.935 33.57-8.808 7.251-2.632 14.64-5.405 20.75-10.24 3.37-2.626 6.078-5.968 8.988-9.07 7.998-9.042 14.98-18.94 21.28-29.22 3.832-6.261 7.351-12.71 10.72-19.23 3.522-7.015 7.093-14.05 9.606-21.51 1.28-3.995 2.163-8.132 2.282-12.34.241-5.958-.557-11.93-1.96-17.72-1.858-7.308-4.838-14.28-8.33-20.94-5.968-11.23-12.95-21.87-19.54-32.73-5.01-7.764-10.13-15.46-15.65-22.88-3.953-5.463-7.934-10.92-11.39-16.72a258.862 258.862 0 0 1-7.187-12.81c-2.41-4.731-4.248-9.769-5.194-15-1.798-9.887-1.47-19.99-1.324-29.99.103-8.243.403-16.56-1.099-24.71-1.443-8.252-4.552-16.31-9.69-22.98-5.533-7.316-13.36-12.7-21.88-15.97-8.815-3.258-18.33-3.872-27.65-3.696z"/></clipPath><clipPath id="p"><path fill-rule="evenodd" d="M669.9-278.1c-5.829 5.612-11.8 11.14-16.78 17.54a100.754 100.754 0 0 0-10.89 17.85 50.118 50.118 0 0 0-4.628 16.41c-.607 5.158-.16 10.43 1.354 15.4 1.314 4.625 3.082 9.106 4.876 13.56 2.072 4.906 4.397 9.713 7.149 14.28 3.693 6.794 8.046 13.28 10.77 20.56 1.378 3.425 2.428 6.973 3.434 10.52.782 2.991 1.219 6.055 1.632 9.114.288 1.051.371 2.413 1.46 2.978 1.305.36 2.452-.655 3.5-1.281 1.958-1.575 4.017-3.013 6.053-4.486a191.943 191.943 0 0 1 10.72-6.845c2.146-1.424 4.326-2.808 6.384-4.357 2.344-1.798 4.149-4.175 5.989-6.457 1.425-1.906 2.72-4.273 2.198-6.731-.48-1.925-1.804-3.498-3.086-4.955-1.412-1.443-2.816-2.894-4.224-4.34-8.769-8.595-17.65-17.08-26.38-25.71-3.047-3.047-5.625-5.797-8.045-9.37-.553-.802-1.011-1.491-1.394-2.39-2.875-12.98-1.499-24.35 2.088-36.99 3.23-9.205 9.495-20.38 14.99-29.26.009-.383-6.809 4.718-7.172 4.947z"/></clipPath><clipPath id="F"><path fill="#fff" d="M757-412.2c-2.53.483-4.985 1.349-7.295 2.479-2.955 1.661-5.092 4.423-6.829 7.273-1.088 1.863-2.041 3.838-2.597 5.928-.967 4.741-1.506 9.656-.684 14.46.69 4.132 2.394 8.05 4.633 11.57 1.35 2.08 3.198 4.106 5.741 4.599 3.226.695 6.451-.652 9.158-2.313 3.753-2.435 6.686-5.903 9.29-9.494 1.611-2.297 3.06-4.757 3.77-7.494 1.19-4.157 1.78-8.585 1.026-12.88-.639-3.633-2.163-7.163-4.685-9.888-2.162-2.346-5.174-3.948-8.377-4.183-1.045-.13-2.1-.103-3.15-.063z"/></clipPath><clipPath id="I"><path fill="#fff" d="M707.5-408.9c-3.682.476-6.923 3.336-7.868 6.924-.717 2.625-1.131 5.36-.93 8.087.242 5.062 1.894 9.953 4.132 14.46 1.414 2.76 3.258 5.56 6.154 6.927 1.512.844 3.475.729 4.878-.292 2.581-1.839 4.427-4.512 5.977-7.235a17.714 17.714 0 0 0 1.797-9.875c-.244-2.799-.533-5.627-1.516-8.28-.696-2.195-1.638-4.372-3.189-6.105-1.924-2.27-4.538-4.148-7.554-4.522a7.657 7.657 0 0 0-1.882-.093z"/></clipPath><clipPath id="Y"><path fill="#fc0" d="M727.5-384.2c-5.648.839-10.99 3.278-15.56 6.656-3.768 2.663-7.459 5.441-10.97 8.438-1.259 1.213-2.28 2.692-2.736 4.395-1.189 3.894-.054 8.206 2.353 11.4 1.741 2.561 3.911 4.796 6.166 6.902 3.124 2.613 6.249 5.255 9.748 7.362 2.576 1.709 5.176 3.582 8.271 4.192 3.129.65 6.359.796 9.54.554 3.297-.284 6.534-1.227 9.446-2.806 4.995-2.472 9.644-5.566 14.43-8.413 3.982-2.548 7.924-5.205 11.44-8.378 2.582-2.724 3.642-6.547 3.707-10.23.047-2.054-.228-4.376-1.801-5.858-1.853-1.685-4.303-2.46-6.562-3.438-4.79-1.88-9.714-3.39-14.55-5.138-5.917-2.074-11.81-4.415-18.04-5.385-1.615-.213-3.252-.428-4.881-.258z"/></clipPath><clipPath id="ao"><path fill="#fc0" d="M803.6-207.3c-2.207.155-4.223 1.428-5.625 3.094-1.405 1.635-1.77 3.818-2.15 5.869-.404 2.713-.822 5.425-.979 8.167-.672 9.071-.885 18.17-1.306 27.25-.227 5.038-.31 10.1-1.19 15.08-.63 4.085-1.677 8.088-2.603 12.11-1.276 5.307-2.37 10.7-2.478 16.17-.09 2.168-.087 4.358.433 6.479.458 2.227 1.253 4.387 2.237 6.433 1.805 3.097 4.033 6.054 7.035 8.08a17.102 17.102 0 0 0 5.753 2.642c2.395.681 4.87 1.028 7.33 1.362 3.855.332 7.768.12 11.54-.744 4.39-1.06 8.596-3.071 11.95-6.116 6.778-5.57 13.55-11.15 20.53-16.47 5.926-4.5 12.1-8.65 18.28-12.79 5.51-3.66 11-7.354 16.42-11.14 2.375-1.742 4.924-3.356 6.8-5.663 1.487-1.815 2.164-4.365 1.363-6.622-.586-2.017-2.06-3.604-3.608-4.953-3.807-3.604-7.736-7.082-11.44-10.8-3.091-3.227-6.125-6.691-7.77-10.91-1.322-3.066-1.87-6.385-2.208-9.686-.282-2.285-.592-4.585-1.406-6.751-.673-1.868-2.596-2.86-4.372-3.454-2.677-1.016-5.554-1.301-8.377-1.631-8.488-.616-17.02.246-25.5-.56-7.72-.667-15.21-2.782-22.86-3.93-1.926-.252-3.873-.527-5.812-.53z"/></clipPath><clipPath id="av"><path fill="#fc0" d="M803.6-207.3c-2.207.155-4.223 1.428-5.625 3.094-1.405 1.635-1.77 3.818-2.15 5.869-.404 2.713-.822 5.425-.979 8.167-.672 9.071-.885 18.17-1.306 27.25-.227 5.038-.31 10.1-1.19 15.08-.63 4.085-1.677 8.088-2.603 12.11-1.276 5.307-2.37 10.7-2.478 16.17-.09 2.168-.087 4.358.433 6.479.458 2.227 1.253 4.387 2.237 6.433 1.805 3.097 4.033 6.054 7.035 8.08a17.102 17.102 0 0 0 5.753 2.642c2.395.681 4.87 1.028 7.33 1.362 3.855.332 7.768.12 11.54-.744 4.39-1.06 8.596-3.071 11.95-6.116 6.778-5.57 13.55-11.15 20.53-16.47 5.926-4.5 12.1-8.65 18.28-12.79 5.51-3.66 11-7.354 16.42-11.14 2.375-1.742 4.924-3.356 6.8-5.663 1.487-1.815 2.164-4.365 1.363-6.622-.586-2.017-2.06-3.604-3.608-4.953-3.807-3.604-7.736-7.082-11.44-10.8-3.091-3.227-6.125-6.691-7.77-10.91-1.322-3.066-1.87-6.385-2.208-9.686-.282-2.285-.592-4.585-1.406-6.751-.673-1.868-2.596-2.86-4.372-3.454-2.677-1.016-5.554-1.301-8.377-1.631-8.488-.616-17.02.246-25.5-.56-7.72-.667-15.21-2.782-22.86-3.93-1.926-.252-3.873-.527-5.812-.53z"/></clipPath><clipPath id="aA"><path fill-rule="evenodd" d="M828.4-219.3c-2.777.242-5.411 1.352-7.863 2.627-3.977 2.088-7.455 5.402-9.199 9.592-1.039 2.367-.965 5.038-.32 7.497 1.05 3.395 2.422 6.715 4.171 9.812 2.085 3.152 5.74 4.71 9.25 5.702 4.4 1.29 8.971 2.962 13.62 2.095 5.816-1.1 10.83-4.648 15.06-8.641 3.144-3.058 5.852-6.638 7.592-10.68.76-1.813 1.184-4.048.001-5.786-1.445-2.539-4.105-4.001-6.516-5.479-4.514-2.444-9.322-4.354-14.33-5.492-3.596-.765-7.264-1.384-10.95-1.276l-.515.03z" filter="url(#filter20079)"/></clipPath><clipPath id="aF"><path fill="#fc0" d="M643-214.5a12.57 12.57 0 0 0-4.625 1.094 12.38 12.38 0 0 0-.781.375c-.008.004-.023-.004-.031 0-2.352 1.255-4.316 3.182-6.375 5.281-.23.234-.452.503-.688.781-.005.006.005.025 0 .031-.232.272-.48.537-.719.844-.005.007.005.025 0 .031-3.414 4.395-7.619 12.16-13.28 16.25-6.479 4.68-22.89 4.248-27.06 9.72-4.104 5.472.136 13.41.063 28.09 0 6.264-1.061 11-1.781 14.81-.054.237-.074.457-.125.687-.005.023-.027.04-.031.062-.019.082-.014.17-.032.25-.002.01.002.021 0 .032-.003.013-.028.018-.03.03-.003.01.001.022 0 .032-.004.012-.029.02-.032.031-.002.01.002.022 0 .031-.002.01.002.022 0 .032-.002.01.002.021 0 .03-.006.022-.026.042-.031.063l-.031.157-.032.125c-.003.011-.028.02-.03.03-.003.009.001.024 0 .032-.003.008.001.023 0 .031-.01.04-.024.085-.032.125-.002.01.002.022 0 .031-.005.022-.026.041-.031.063-.002.008.002.023 0 .031-.002.009.002.022 0 .031-.003.012-.028.02-.031.031v.032c-.048.188-.082.35-.125.53-.008.034-.024.062-.032.095-.085.358-.18.733-.25 1.062-.002.009.002.022 0 .03-.417 1.888-.55 3.263-.25 4.5.002.01-.002.022 0 .032.045.179.125.358.188.531.027.077.032.174.062.25.032.075.06.145.094.219.005.012.026.02.031.031.004.008-.004.023 0 .031s-.004.023 0 .032c.002.004.03-.004.032 0 .004.008-.004.023 0 .03.006.013.024.02.03.032.013.029.019.065.032.094.005.013.026.018.031.03.004.009-.004.024 0 .032.005.013.026.018.031.031.01.022.022.041.032.063.004.008-.004.023 0 .03.009.023.021.042.03.063.008.013.025.02.032.032.003.009-.003.022 0 .03.004.009-.004.024 0 .032 0 .003.03-.003.031 0 .003.006-.003.025 0 .031.004.01-.004.023 0 .031.007.022.024.041.031.063.004.009-.004.022 0 .031.001.003.03-.003.032 0 .004.008-.004.023 0 .031.004.01-.004.023 0 .032.006.012.025.018.03.03.005.009-.003.024 0 .032.005.009-.003.022 0 .031.007.013.026.018.032.031.003.01-.003.023 0 .032.005.012.026.018.031.03.004.009-.004.024 0 .032.004.009-.004.022 0 .031.005.012.026.02.031.031.004.01-.004.023 0 .032.019.042.044.082.063.125.009.02.022.041.031.062.049.114.102.23.156.344.015.03.017.064.031.094.11.224.213.431.344.656 3.672 6.12 9.575 7.664 43.34 14.72 18.07 3.744 35.15 13.44 46.59 14.38 11.45.865 13.89-2.932 20.88-9.125 6.912-6.192 9.154-4.267 8.938-17.88-.189-11.85-6.898-16.4-15.19-27.84-.592-.824-1.202-1.66-1.812-2.562-.398-.596-.809-1.238-1.219-1.875-.033-.052-.06-.105-.093-.156-.172-.274-.29-.467-.47-.75-2.465-3.906-4.423-6.996-6.061-9.625-1.638-2.63-2.964-4.797-4.188-6.781s-2.338-3.81-3.562-5.781-2.55-4.096-4.188-6.688c-.82-1.278-1.754-2.67-2.75-4.156s-2.061-3.065-3.188-4.656a173.825 173.825 0 0 0-3.531-4.812 139.934 139.934 0 0 0-1.812-2.344 102.326 102.326 0 0 0-3.75-4.438 68.919 68.919 0 0 0-1.875-2.031c-1.848-1.911-3.648-3.533-5.344-4.688-.008-.005-.024.005-.031 0-.284-.193-.536-.366-.813-.532-.008-.005-.023.005-.031 0-.277-.165-.543-.331-.813-.468a9.277 9.277 0 0 0-1.562-.625c-.242-.073-.485-.146-.718-.188-.01-.002-.021.002-.032 0a4.69 4.69 0 0 0-.687-.062 15.833 15.833 0 0 0-1.094 0z"/></clipPath><radialGradient id="aw" cx="808.5" cy="-183.4" r="34.16" gradientTransform="matrix(.4036 .878 -.9594 .4411 339.4 -823.4)" gradientUnits="userSpaceOnUse"><stop offset="0" stop-color="#300a00" stop-opacity=".43"/><stop offset="1" stop-color="#a12d00" stop-opacity=".072"/></radialGradient></defs><path fill="url(#d)" d="M-3308 740c-11.23 1.691-22.22 5.77-31.32 12.65-7.139 5.142-12.44 12.37-16.88 19.87-5.188 8.732-8.824 18.39-10.58 28.4-2.218 13.25-1.177 26.73-.562 40.07.71 12.81 1.57 25.64 1.114 38.48-.614 9.882-3.022 19.61-6.85 28.74-6.256 15.91-14.88 30.73-23.22 45.61-12.09 21.05-24.64 41.85-36.49 63.04-5.098 9.119-10.05 18.38-13.49 28.28-2.637 7.484-4.257 15.31-5.152 23.18-1.027 10.33-.47 21.08 3.565 30.75 2.365 5.91 5.97 11.19 9.32 16.57a1051.39 1051.39 0 0 0 29.11 41.73c7.466 9.969 14.95 19.97 23.54 29.02 3.87 4.04 8.08 7.762 12.76 10.84 9.526 6.498 20.19 11.15 31.09 14.82a121.36 121.36 0 0 0 40.73 5.86c8.654-.307 17.28-1.2 25.81-2.728 15.67-2.596 31.06-6.767 46.02-12.08 9.942-3.608 20.07-7.411 28.45-14.04 4.62-3.601 8.334-8.183 12.32-12.44 10.97-12.4 20.53-25.97 29.18-40.07 5.253-8.585 10.08-17.43 14.7-26.37 4.829-9.618 9.725-19.27 13.17-29.49 1.754-5.478 2.966-11.15 3.13-16.91.33-8.169-.765-16.36-2.688-24.29-2.548-10.02-6.633-19.57-11.42-28.72-8.183-15.4-17.76-29.99-26.8-44.88-6.871-10.65-13.89-21.2-21.46-31.37-5.42-7.491-10.88-14.97-15.62-22.92-3.442-5.764-6.748-11.62-9.854-17.57-3.305-6.487-5.824-13.39-7.121-20.57-2.465-13.56-2.016-27.4-1.815-41.11.14-11.3.552-22.7-1.507-33.88-1.98-11.31-6.242-22.36-13.29-31.51-7.587-10.03-18.31-17.42-30-21.9-12.09-4.467-25.13-5.309-37.91-5.068z" transform="matrix(1.8 0 0 1.8 6362.283 -1298.45)"/><path fill="#ececec" d="M485.088 293.343c-30.062 10.381-59.996 21.421-90.94 28.927-6.901 2.124-14.359 2.268-21.312.308-13.902-4.029-26.731-10.892-39.62-17.36-2.541-.848-5.39 1.31-5.168 3.992-.893 5.496-.928 11.085-1.751 16.593-1.919 18.235-4.855 36.524-11.265 53.768-6.06 17.55-13.723 34.507-22.537 50.834-7.337 13.927-16.015 27.073-24.642 40.231-12.37 19.315-24.877 38.648-34.723 59.402-11.45 24.427-18.667 51.122-18.901 78.213-.323 20.845 3.913 41.545 10.694 61.202 7.674 22.86 16.976 45.181 27.433 66.908 6.433 12.995 12.9 26.065 21.295 37.927 11.574 16.66 27.235 30.295 44.695 40.502 18.847 11.054 40.141 17.572 61.814 19.998 18.667 2.106 37.657 1.696 56.144-1.584 17.43-3.132 34.291-9.587 49.142-19.26 20.178-12.91 38.755-28.424 54.686-46.316 9.819-10.936 17.88-23.33 24.75-36.29 6.538-12.5 12.806-25.164 18.397-38.107 8.226-19.279 14.177-39.673 15.866-60.626 1.205-12.039 1.107-24.21.075-36.253-2.135-23.185-7.41-46.136-16.062-67.772-8.294-20.935-19.296-40.628-29.665-60.572-9.792-18.703-19.638-37.37-29.215-56.162-10.624-21.115-20.61-42.68-27.649-65.288-4.626-15.218-7.531-30.997-8.017-46.91-.215-2.205.162-5.503-2.545-6.248-.333-.15-.668-.044-1.003 0z"/><g clip-path="url(#e)" transform="matrix(2.468 0 0 2.468 -1412.176 1180.233)"><path d="M783.8-300.9c38.35 74.56 2.535 132.5-37.68 137.1-70.05 8.13-90.82-46.45-79.01-98.65 5.348-7.417 8.309-23.19-4.018-12.39-10.75 5.915-20.35 16.07-20.42 29.04-4.217 29.07-17.55 67.5-.565 91.9 16.25 21.39 46.73 47.08 74 47.36 15.05 1.51 52.3-2.925 63.61-14.76 19.29-17 32.18-46.81 48.39-66.62-6.13-56.15-26.82-90.78-44.31-113z" filter="url(#f)" opacity=".502"/><path fill="#fff" d="M770-235.1c0 23.08-18.71 41.79-41.79 41.79s-41.79-18.71-41.79-41.79 18.71-41.79 41.79-41.79S770-258.18 770-235.1z" filter="url(#g)" transform="matrix(1.266 0 0 1.318 -195.3 62.31)"/><path d="M720.7-188.6c2.507 14.66 13.23 8.65 11.31 2.076-6.329-21.64-7.547-54.53-5.761-79.91-5.117 25.04-9.828 52.82-5.548 77.83z" filter="url(#h)" opacity=".103"/></g><path fill-rule="evenodd" d="M242.08 493.33c-14.387 13.85-29.108 27.505-41.42 43.292-10.446 13.71-19.495 28.477-26.875 44.065-6.091 12.72-9.958 26.479-11.421 40.501-1.499 12.73-.397 25.76 3.34 38.018 3.243 11.416 7.608 22.482 12.034 33.463 5.114 12.109 10.853 23.977 17.644 35.245 9.114 16.768 19.855 32.779 26.587 50.744 3.4 8.45 5.993 17.208 8.475 25.956 1.931 7.383 3.008 14.945 4.028 22.501.71 2.594.917 5.957 3.604 7.35 3.222.89 6.052-1.617 8.639-3.163 4.833-3.888 9.914-7.438 14.938-11.07 8.635-5.913 17.45-11.564 26.461-16.894 5.298-3.513 10.678-6.932 15.756-10.753 5.785-4.437 10.239-10.306 14.782-15.936 3.516-4.704 6.713-10.547 5.426-16.611-1.186-4.752-4.454-8.633-7.618-12.23-3.483-3.562-6.95-7.142-10.426-10.71-21.637-21.205-43.562-42.158-65.108-63.452-7.52-7.52-14.696-15.463-20.665-24.283-4.594-7.19-7.195-15.57-7.904-24.049-1.473-13.157-.458-26.479 1.66-39.511 1.909-11.666 4.814-23.167 8.45-34.4 5.426-16.382 12.05-32.328 18.361-48.367 1.093-2.783 2.13-5.586 3.197-8.377.022-.944-1.033-1.876-1.928-1.312z"/><g clip-path="url(#i)" transform="matrix(2.468 0 0 2.468 -1412.176 1180.233)"><path fill="#fff" d="M740.8-493c-21.04 5.569-67.98-2.525-68.9 23.85 7.482 23.23 7.094 88.74-1.482 112.9-10.9 30.69-56.77 87.67-51.48 146 18.42 42.1 46.59 87.92 111 101.3 24.66-.86 39.95-3.71 61.67-15.3 39.64-21.69 67.07-59.34 88.57-98.13-3.478-31.65-21.14-45.26-34.35-73.85-21.69-28.84-38.52-74.54-23.25-108.9 13.24-25.7-2.255-50.23-20.67-68.24-14.3-17.14-40.43-18.28-61.13-19.67zm8.258 25.91c30.68-.3 56.11 32.99 50.14 62.61-3.265 40.46 16 78.75 38.97 110.6 12.72 25.97 34.21 52 21.33 81.56-7.697 28.19-32.83 52.41-51.81 73.18-21.22 15.05-47.67 24.45-73.59 26.33-29.5-4.188-47.68-32.48-70.5-49.26-17.97-16.07-24.64-41.83-26.4-64.62 6.171-43.75 41.29-80.19 56.26-120.6 5.624-23.66-9.017-79.88 4.461-94.56 24.36-26.55 35.76-25.07 51.15-25.22z" color="#000" filter="url(#j)" opacity=".823" style="block-progression:tb;text-decoration-line:none;text-indent:0;text-transform:none"/></g><path fill-opacity=".667" fill-rule="evenodd" d="M654.4-147.7c-1.495 9.842 54.3 25.29 58.57 18.35 7.382-19.96 5.568-26.29-6.931-41.63-7.776-8.658-23.74-18.56-32.11-26.7-38.33-20.46-31.38 15.2-19.53 49.98z" filter="url(#k)" transform="matrix(2.468 0 0 2.468 -1412.176 1180.233)"/><path fill-opacity=".667" fill-rule="evenodd" d="M654.4-147.7c-1.495 9.842 37.83 33 57.06 17.28-14.28-18.42 2.956-35.03-9.543-50.36-7.776-8.658-19.61-8.759-27.99-16.9-38.33-20.46-31.38 15.2-19.53 49.98z" filter="url(#k)" transform="matrix(-2.468 0 0 2.468 2292.348 1183.833)"/><g clip-path="url(#l)" transform="matrix(2.468 0 0 2.468 -1412.176 1180.233)"><path fill="#fff" d="M789.6-303.5c6.115 8.212 12.91 16.04 17.56 25.23 4.457 9.006 8.134 18.4 11.05 28.01 1.284 4.779 1.763 9.812.978 14.72-.497 5.093-1.642 10.09-2.271 15.17.204 1.163 2.073.804 2-.313 2.195-8.63 5.232-17.13 5.97-26.06.216-4.184-.114-8.49-1.78-12.38-2.57-7.173-6.776-13.59-10.86-19.97-5.182-7.746-11.25-14.93-18.29-21.06-1.392-1.186-2.797-2.426-4.348-3.374v.03z" filter="url(#m)"/><path fill="url(#n)" d="M796.5-294.8c3.35 6.133 7.139 12.01 10.45 18.17 4.261 7.593 8.763 15.06 12.82 22.76 2.382 5.315 3.686 11.16 3.404 16.99-.032 2.73-.178 5.461-.516 8.171-.56.647-.336 2.408.78 1.969.89-.733.6-2.07.96-3.067 1.313-5.814 2.27-11.81 1.592-17.77-.453-3.639-1.256-7.263-2.734-10.63-2.385-5.576-6.093-10.42-9.394-15.47-4.418-6.451-8.88-12.89-13.89-18.9-1.434-1.629-2.822-3.341-4.5-4.719-.66.005.902 1.921 1.03 2.5z" filter="url(#o)" opacity=".541"/><g clip-path="url(#p)" filter="url(#q)"><path fill="url(#r)" fill-rule="evenodd" d="M672.1-276.5c-4.728 6.257-9.869 12.27-13.62 19.19-2.897 4.971-5.027 10.39-6.35 15.99-1.387 6.314-1.762 12.97-.229 19.29 1.085 4.964 4.103 9.236 7.571 12.84 3.983 4.283 8.381 8.152 12.62 12.18 6.75 6.311 13.35 12.78 19.74 19.45.957.965 1.926 1.917 2.898 2.866 1.086.323 1.701-1.558.657-1.969-8.934-9.686-18.87-18.37-28.08-27.79-4.304-4.781-8.244-10.07-10.37-16.21-2.138-5.977-3.007-12.38-2.75-18.72.462-5.429 2.142-10.69 4.534-15.57 3.33-7.047 8.03-13.31 12.43-19.71 1.365-1.918 2.724-3.84 4.084-5.762l-3.125 3.906z" filter="url(#s)" opacity=".674"/></g><path fill="#fff" d="M787.2-364.1c-.675 2.079-.952 4.262-1.178 6.427-.217 2.927-.149 5.869.084 8.791.435 2.899 1.14 5.861 2.875 8.281.965 1.647 2.27 3.071 3.594 4.438 1.954 2.3 4.34 4.175 6.551 6.215 1.582 1.432 3.153 2.876 4.667 4.379.924.416 2.096-.82 1.47-1.688-2.616-5.252-5.943-10.1-8.928-15.13-1.587-2.739-3.096-5.53-4.242-8.487-1.434-3.411-2.407-6.99-3.617-10.48-.457-.845-.358-2.262-1.152-2.772l-.125.031z" filter="url(#t)" transform="translate(-8.57 .754)"/><path fill="#fff" d="M790.5-357.5c-1.643 3.176-2.271 6.771-2.469 10.31.005 2.437.77 4.949 2.524 6.702 1.689 2.12 3.604 4.044 5.637 5.833.558.676 1.532 1.614 2.433.996.667-.69.25-1.826-.128-2.58-1.605-3.524-3.022-7.133-4.529-10.7-1.104-2.846-2.112-5.758-2.594-8.78-.076-.56-.047-1.953-.875-1.781z" filter="url(#u)" opacity=".347" transform="translate(-8.57 .754)"/><path fill="url(#v)" d="M791.1-350.5c-1.096 1.664-.524 3.765.01 5.523a55.42 55.42 0 0 0 5.233 10.89c.626.902.99 1.938 1.569 2.864.55 1.08 2.018.326 1.62-.742-.333-.97-1.202-1.667-1.686-2.57-2.393-3.822-3.688-8.173-5.148-12.4-.375-1.162-.834-2.295-1.255-3.44-.063-.055-.25-.24-.344-.126z" filter="url(#w)" opacity=".696" transform="translate(-8.57 .754)"/><g clip-path="url(#p)"><path fill="url(#r)" fill-rule="evenodd" d="M676-277.3c.153-.088-.153-.088 0 0zm-3.312 4.344c-4.796 6.042-9.747 12.01-13.75 18.63-2.25 3.835-4.141 7.903-5.284 12.21a40.848 40.848 0 0 0-1.577 11.37c.054 3.921.63 7.874 2.148 11.51 1.996 4.96 5.278 9.301 9.139 12.96 6.869 6.969 14.37 13.29 21.02 20.48a371.727 371.727 0 0 1 12.37 14.02c.356.776 1.684 1.599 2.117.442.372-1.104-.949-1.787-1.524-2.523-7.025-7.952-14.18-15.79-21.68-23.3-3.993-4.096-8.222-8-11.73-12.54-2.427-3.223-4.415-6.814-5.505-10.71-1.012-3.477-1.513-7.097-1.649-10.71-.234-7.184.924-14.43 3.457-21.16 2.289-5.99 5.903-11.34 9.608-16.53l2.93-4.246-.094.093z" filter="url(#x)"/></g><path fill="#fff" d="M734.8-453.4c-19.43.491-31.73 16.56-29.63 35.9 4.257-17.66 16.41-30.24 29.63-35.9z" filter="url(#y)" opacity=".397" transform="translate(-410.9 250.4) scale(1.572)"/><path fill="#fff" d="M736.1-457.9c-21.78-.465-39.82 27.57-32.59 47.45 12.28-18.89 12.92-24.2 21.32-32.03 5.886-5.491 8.09-8.956 11.27-15.42z" filter="url(#z)" opacity=".641"/><path fill="url(#A)" d="M718.2-448.2c-3.399 1.643-6.562 4.167-8.11 7.696-.728 1.479-1.207 3.114-1.172 4.772.334.876 1.548.557 1.989-.049 2.401-3.453 5.284-6.545 7.781-9.93.725-.6 1.03-2.235-.107-2.52-.129-.018-.255.013-.382.03z" filter="url(#B)" opacity=".721" transform="translate(-305.2 188.8) scale(1.427)"/><path fill="#fff" fill-rule="evenodd" d="M705.2-419.4c-1.495.062-2.985.36-4.315 1.062-1.154.55-2.293 1.325-2.778 2.563-.809 1.867-.939 3.934-1.217 5.927-.216 2.602-.428 5.218-.47 7.823.2.955 1.893 1.084 2.062.031 1.09-3.329 1.462-6.995 3.562-9.906 1.284-1.307 3.168-1.618 4.906-1.844 1.99 0 3.89.717 5.58 1.723.898.427 1.92 1.151 2.95.777.795-.63.301-1.901-.398-2.39-1.575-1.961-3.43-3.85-5.82-4.768a36.454 36.454 0 0 0-3.718-1.03l-.344.031z" filter="url(#C)" opacity=".279"/><path fill="url(#D)" fill-rule="evenodd" d="M756.3-424c-4.425.707-8.461 3.139-11.5 6.386-1.102 1.186-2.098 2.542-2.471 4.145-.007.922.915 1.933 1.875 1.594 2.446-.359 4.745-1.337 7.17-1.808 2.188-.502 4.491-.742 6.699-.228 2.679.424 5.438.606 7.997 1.559 2.766 1.164 4.915 3.476 6.275 6.113.54 1.037 1.122 2.055 1.609 3.114.558 1.019 1.968.746 2.293-.292.213-1.013.3-2.07.227-3.11-.164-2.643-.978-5.232-2.14-7.602-1.165-2.244-3.112-3.934-5.033-5.52-1.846-1.485-3.98-2.606-6.283-3.18-2.074-.521-4.163-1.155-6.314-1.202l-.406.03z" filter="url(#E)" opacity=".177"/></g><path fill="#ccc" d="M456.011 162.972c-6.244 1.191-12.302 3.33-18.003 6.118-7.293 4.099-12.567 10.915-16.853 17.949-2.685 4.597-5.037 9.471-6.41 14.63-2.385 11.7-3.716 23.83-1.687 35.685 1.704 10.197 5.908 19.866 11.434 28.553 3.331 5.134 7.892 10.133 14.168 11.35 7.961 1.716 15.92-1.61 22.6-5.708 9.263-6.01 16.501-14.568 22.925-23.43 3.978-5.669 7.552-11.74 9.306-18.494 2.937-10.26 4.39-21.187 2.532-31.787-1.577-8.966-5.338-17.677-11.562-24.402-5.335-5.79-12.768-9.743-20.673-10.323-2.579-.322-5.183-.254-7.774-.155z"/><g clip-path="url(#F)" transform="matrix(2.468 0 0 2.468 -1412.176 1180.233)"><path fill="#374548" d="M755.1-423.3c-8.45 1.667-18.38 12.22-21.38 19.78-4.158 9.872-2.147 22.75 3.733 32.22 3.124 4.503 7.387 8.879 13.08 9.666 7.388 1.295 16.97-.995 22.18-6.111 5.883-5.247 9.291-13.66 8.291-22.01-1.568-8.258.177-19.2-6.19-25.22-4.623-4.173-13.44-8.467-19.71-8.323zm2.437 9.209c8.24 1.982 14.93 12.52 14.31 20.14-1.349 16.48-10.63 22.54-15.2 23.52-4.714 2.839-5.956.65-10.11-1.684-2.979-2.164-4.991-2.944-6.405-6.879-1.476-4.073.816-7.997.05-12.19.618-6.64 3.977-12.71 7.744-18 2.876-2.831 5.598-4.776 9.611-4.908z" color="#000" filter="url(#G)" style="block-progression:tb;text-decoration-line:none;text-indent:0;text-transform:none"/><path fill="#fff" fill-rule="evenodd" d="M761.6-408.7c-21.26-8.976-37.17 24.36-16.93 30.05-1.048-12.76 6.71-27.35 16.93-30.05z" filter="url(#H)"/></g><path fill="#d6d6d6" d="M333.851 171.116c-9.087 1.174-17.085 8.233-19.417 17.088-1.77 6.478-2.792 13.227-2.297 19.957.6 12.493 4.677 24.563 10.2 35.686 3.49 6.811 8.04 13.721 15.187 17.095 3.732 2.082 8.576 1.799 12.038-.72 6.37-4.538 10.926-11.135 14.751-17.855 3.786-7.473 5.348-16.041 4.435-24.37-.604-6.908-1.316-13.887-3.742-20.437-1.718-5.414-4.042-10.787-7.87-15.064-4.748-5.602-11.199-10.236-18.642-11.16-1.525-.256-3.102-.356-4.645-.23z"/><g clip-path="url(#I)" transform="matrix(2.468 0 0 2.468 -1412.176 1180.233)"><path fill="#0b2228" d="M713.7-414.8c-3.241.568-6.241 2.074-9.5 2.562-1.82.42-2.991 2.117-3.594 3.781-1.346 3.806-1.294 7.95-2.695 11.74-.836 2.439-1.822 4.825-2.551 7.301-.518 1.73-1.093 3.52-.841 5.348.248 2.263 1.129 4.39 1.922 6.506 1.845 4.836 4.247 9.431 6.48 14.09.71 1.417 1.337 2.905 2.31 4.166 2.129 2.148 5.472 3.184 8.394 2.228 1.598-.441 3.038-1.286 4.494-2.055 3.958-2.206 7.689-4.797 11.33-7.486 3.072-2.332 6.152-4.659 9.094-7.156 1.077-1.084 1.476-2.782 1.026-4.232-1.112-2.76-2.686-5.303-3.974-7.982a206.723 206.723 0 0 0-3.182-6.546 32.85 32.85 0 0 0-3.776-5.565c-2.079-2.671-4.13-5.391-5.65-8.429-1.31-2.401-2.586-4.878-4.456-6.897-1.29-1.141-3.153-1.499-4.831-1.38zm-2.812 4.75c1.943.08 3.765 1.298 4.635 3.025 1.172 1.673 1.971 3.57 2.93 5.366.495 1.002 1.091 1.952 1.588 2.955.86 1.47 1.674 2.97 2.291 4.56a17.655 17.655 0 0 1 1.199 4.928c.204 2.877-.181 5.751-.298 8.624.035.842-.234 1.651-.688 2.354-.972 1.315-2.686 1.786-3.647 3.11-.825.98-1.266 2.2-2.033 3.219-1.187 1.647-2.81 2.911-4.382 4.17-1.015.585-2.362.792-3.38.1-.955-.535-1.59-1.468-2.41-2.171-2.27-2.245-4.451-4.63-6.1-7.376-1.045-2.146-1.668-4.458-2.471-6.698-.692-2.422-1.266-4.981-.814-7.501.64-2.74 1.652-5.378 2.325-8.108.605-2.567 1.092-5.188 2.123-7.626.596-1.285 1.726-2.444 3.16-2.7a64.147 64.147 0 0 1 5.973-.232z" color="#000" filter="url(#J)" style="block-progression:tb;text-decoration-line:none;text-indent:0;text-transform:none"/><path fill="#fff" fill-rule="evenodd" d="M715-406.8c-26.91-9.945-17.09 32.07-6.819 33.46-6.994-12.15-7.464-31 6.819-33.46z" filter="url(#K)"/></g><path fill="#212121" d="M338.046 195.795c-2.603.487-5.02 1.744-7.018 3.47-2.616 3.151-4.645 6.885-5.254 10.972-.891 4.79-.365 9.728.656 14.454 1.154 5.286 3.694 10.146 6.473 14.74 2.296 3.414 4.825 6.8 8.31 9.083 2.023 1.277 4.303 2.453 6.783 1.958 2.36-.209 4.457-1.52 6.17-3.084 1.77-1.6 3.09-3.64 3.949-5.854.94-2.337.962-4.87 1.295-7.332.33-3.934.506-7.898-.014-11.824-.307-2.702-.504-5.476-1.606-7.998-.656-2.982-2.33-5.573-3.702-8.255-1.775-3.063-3.743-6.271-6.934-8.03-2.634-1.818-5.918-2.706-9.107-2.302z"/><path fill="#181818" d="M450.335 193.574c-17.172 3.647-27.295 21.801-27.122 38.425.101 9.057 2.126 18.965 8.433 25.764 7.194 3.949 14.955-2.113 21.191-5.41 9.462-7.887 14.21-20.342 15.504-32.353.955-7.9.268-17.16-6.553-22.414-3.176-2.653-7.31-4.143-11.455-4.02z"/><path fill="#fff" fill-rule="evenodd" d="M711.1-376.5c-4.46-11.51-3.203-18.94 1.28-22.23-9.218-2.907-16.04 13.44-1.28 22.23z" filter="url(#L)" opacity=".413" transform="matrix(2.468 0 0 2.468 -1412.176 1180.233)"/><path fill="#fff" fill-rule="evenodd" d="M709-396.2c-1.045.214-1.865 1.069-2.176 2.07-.328.902-.548 1.891-.33 2.846.153.863.367 1.729.819 2.49.328-.902.233-1.88.45-2.802.183-.848.493-1.689 1.037-2.373.435-.62 1.13-1.196 1.2-1.981-.233-.26-.675-.37-1-.25z" filter="url(#M)" transform="matrix(2.468 0 0 2.468 -1412.176 1180.233)"/><path fill="#f70" d="M714.8-389.3c-.623.76-.814 1.773-1.457 2.518-.59.877-1.372 1.57-2.185 2.232-.609.501-1.238 1.049-1.452 1.844.875-.013 1.701-.328 2.448-.763a12.553 12.553 0 0 0 2.24-1.77c.648-.63 1.016-1.482 1.213-2.353.046-.66.277-1.857-.589-2.02l-.219.312z" filter="url(#N)" transform="matrix(2.468 0 0 2.468 -1409.683 1189.892)"/><path fill="#fff" fill-rule="evenodd" d="M758.9-398.4c-9.954-8.703-20.84 9.285-13.88 18.25 2.078-9.785 6.992-16.55 13.88-18.25z" filter="url(#O)" opacity=".529" transform="matrix(2.468 0 0 2.468 -1412.176 1180.233)"/><path fill="#fff" fill-rule="evenodd" d="M753.8-396.9c-1.039.265-1.99.815-2.848 1.45-.868.646-1.737 1.37-2.206 2.368-.427.687-.617 1.466-.79 2.244-.03.37.074.73.125 1.094.276-.943.856-1.753 1.438-2.531a15.82 15.82 0 0 1 2.216-2.159 36.919 36.919 0 0 1 2.44-1.716c.214-.265.069-.938-.374-.75z" filter="url(#P)" transform="matrix(2.468 0 0 2.468 -1412.176 1180.233)"/><path fill="#ff6f00" d="M757.7-382.8c-.84.41-1.625.974-2.555 1.155-1.221.205-2.493.288-3.697-.063-.929-.166-1.759-.743-2.685-.842-.71-.17-.976.726-.489 1.15.534.766 1.4 1.173 2.141 1.702.758.489 1.526 1.031 2.432 1.193.83.218 1.693-.083 2.437-.446.838-.534 1.572-1.235 2.198-2.004.388-.44 1.145-1.408.438-1.876l-.125-.03-.093.062z" filter="url(#Q)" transform="matrix(2.468 0 0 2.468 -1412.176 1180.233)"/><g fill="#fff" transform="matrix(2.468 0 0 2.468 -1412.176 1180.233)"><ellipse cx="754.8" cy="-383.4" filter="url(#R)" rx="1.01" ry="1.136"/><ellipse cx="754.8" cy="-383.4" filter="url(#S)" rx="1.01" ry="1.136"/></g><g fill="#fff" transform="matrix(2.468 0 0 2.468 -1512.52 1178.052)"><ellipse cx="754.8" cy="-383.4" filter="url(#T)" rx="1.01" ry="1.136"/><ellipse cx="754.8" cy="-383.4" filter="url(#U)" rx="1.01" ry="1.136"/></g><g fill-rule="evenodd"><path d="M760.4-349.9c-2.662 3.238-5.637 6.836-9.959 7.713-4.677.805-9.246-.964-13.67-2.243-9.802-3.097-19.14-7.498-28.96-10.54-.948.017-2.033-.794-2.844.031-.22 1.936 1.825 2.934 2.584 4.488 9.476 11.55 38.69 40.12 53.45 35.8 29.17-3.499 19.74-50.24 7.517-56.22-4.06-1.988-.87 11.22-8.118 20.97z" filter="url(#V)" opacity=".488" transform="matrix(2.468 0 0 2.468 -1412.176 1180.233)"/><path fill="url(#W)" d="M767.6-372.4c-10.87 4.65-12.29 13.29-24.06 15.31-13.5 1.903-18.43 3.982-31.83 1.915-1.889-.093-3.758-.834-5.656-.437-1.181 1.19-.205 3.018.906 3.875 9.305 11.3 44 36.08 58.04 24.38 19.41-16.18 8.09-43 2.594-45.04z" filter="url(#X)" transform="matrix(2.468 0 0 2.468 -1412.176 1180.233)"/></g><path fill="#ffb60d" d="M383.209 232.073c-13.939 2.07-27.122 8.09-38.4 16.426-9.3 6.572-18.409 13.428-27.073 20.824-3.107 2.993-5.627 6.643-6.752 10.846-2.935 9.61-.134 20.252 5.806 28.134 4.297 6.32 9.652 11.836 15.217 17.033 7.71 6.449 15.422 12.97 24.057 18.169 6.358 4.218 12.774 8.84 20.412 10.345 7.722 1.604 15.693 1.966 23.544 1.369 8.136-.703 16.125-3.028 23.311-6.925 12.328-6.103 23.8-13.739 35.612-20.765 9.827-6.288 19.555-12.845 28.233-20.676 6.372-6.722 8.988-16.157 9.148-25.246.116-5.07-.562-10.8-4.445-14.457-4.573-4.158-10.619-6.071-16.194-8.485-11.821-4.64-23.973-8.366-35.908-12.68-14.602-5.118-29.145-10.895-44.52-13.29-3.986-.524-8.026-1.055-12.046-.635z"/><g clip-path="url(#Y)" transform="matrix(2.468 0 0 2.468 -1412.176 1180.233)"><g color="#000"><path fill="#ff5a0a" fill-opacity=".63" d="M730.2-428.7c-3.279.273-6.345 1.611-9.273 3.026-3.613 1.839-6.862 4.324-9.777 7.127-3.146 2.839-5.772 6.189-8.827 9.12-3.316 3.496-6.638 7.027-9.373 11.01-1.571 2.357-3.12 4.736-4.332 7.304-3.526 6.914-7.013 13.85-10.57 20.75-.833 1.765-1.614 3.578-2.064 5.481-.424 1.745-.304 3.587.281 5.281.836 3.022 3.114 5.313 5.093 7.634 4.07 4.352 8.39 8.462 12.69 12.58 3.12 2.901 6.33 5.724 9.85 8.136 4.468 3.325 9.075 6.571 14.26 8.692 6.094 2.492 12.94 3.071 19.38 1.696 3.69-.758 7.231-2.26 10.37-4.332 6.171-4.511 11.56-10 17.84-14.37 5.025-3.596 10.56-6.398 15.72-9.78 3.211-2.209 6.203-4.827 8.367-8.1 2.137-2.99 3.944-6.305 4.748-9.914.581-2.649.294-5.434-.656-7.963-1.384-4.313-3.382-8.409-5.681-12.3-3.518-5.54-8.77-9.625-13.87-13.62-7.724-5.963-15.44-11.94-23.29-17.74-2.921-2.055-5.717-4.292-8.73-6.214-3.28-2.099-7.098-3.437-11.01-3.523-.38-.018-.762.02-1.143.024zm-9.156 41.88c7.791.205 17.05 2.301 24.43 4.629 6.858 2.181 12.52 6.338 18.77 9.953 8.063 1.758-25.8 23.15-36.67 26.58-10.11 3.19-14.13-2.451-22.66-7.953-2.934-2.286-5.936-2.352-9.239-3.903-1.45-.822-2.23-2.48-2.575-4.055-.408-2.119-.073-4.301.544-6.343.709-2.13 1.69-4.176 2.807-6.122 1.84-2.885 3.956-5.657 6.664-7.781a21.603 21.603 0 0 1 6.627-3.407c2.566-.846 5.268-1.204 7.947-1.481 1.116-.054 2.23-.145 3.349-.115z" filter="url(#Z)" style="block-progression:tb;text-decoration-line:none;text-indent:0;text-transform:none"/><path fill="#802608" d="M729.6-427.3c-2.453.527-4.798 1.533-7.029 2.673-3.907 2.006-7.479 4.61-10.72 7.563-3.461 3.106-6.7 6.449-10.23 9.482-2.709 2.496-5.457 4.974-7.776 7.848-2.803 3.256-4.93 7.015-7.179 10.66-2.823 4.914-5.759 9.762-8.57 14.68-1.839 3.097-3.658 6.322-4.336 9.9-.265 1.478-.286 3.022.205 4.456.575 2.101 1.37 4.14 2.125 6.182 1.252 3.229 2.414 6.524 2.862 9.975.604 3.991.69 8.159 2.355 11.9 1.744 3.686 5.442 6.303 9.472 6.834 2.757.424 5.561.327 8.341.37 5.688-.11 11.37-.553 17.06-.472 4.115.12 8.17.897 12.18 1.758 3.733.655 7.661.723 11.27-.563 5.274-1.675 13.41-4.02 18.23-6.665 21.33-10.43 13.23-9.762 21.65-14.15 4.635-2.57 9.544-4.75 13.7-8.084 1.957-1.761 3.504-4.034 4.16-6.602.931-3.206.759-6.702-.444-9.813-1.26-3.19-3.078-6.12-4.787-9.081-2.387-3.847-4.915-7.607-7.511-11.31a51.21 51.21 0 0 0-8.725-9.152c-6.487-4.923-13.12-9.65-19.75-14.37-5.393-3.741-10.7-7.604-16.22-11.16-3.101-1.848-6.704-3.02-10.34-2.846zm-1.938 25.44c5.408.357 10.75 1.418 15.94 2.969 4.935 1.375 9.693 3.298 14.35 5.427 2.701 1.273 5.402 2.572 7.964 4.109 2.38 1.418 4.413 3.403 5.85 5.775 1.138 4.411-5.792 6.465-6.397 10.43 11.95 19.07-44.79 40.16-62.15 23.27-3.707-2.169-5.687.183-9.563-1.667-2.762-1.455-5.555-2.906-8.05-4.798-2.159-1.702-4.245-3.831-4.852-6.603-.517-2.304-.078-4.715.637-6.931 1.517-4.094 3.635-7.948 6.104-11.54 1.964-2.986 3.934-5.99 6.342-8.643 1.662-1.954 3.723-3.524 5.83-4.963 2.718-1.77 5.752-2.986 8.837-3.944 4.877-1.27 9.828-2.319 14.85-2.81 1.438-.068 2.879-.218 4.317-.084z" filter="url(#Z)" opacity=".612" style="block-progression:tb;text-decoration-line:none;text-indent:0;text-transform:none"/></g><path fill="#ffe373" d="M724.7-381.2c-7.537.115-27.17 11.94-27.35 17.2.649 8.545 16.81 13.18 22.42 10.21 3.363-3.072 8.443-27.24 4.933-27.41z" filter="url(#aa)"/><g><path fill="url(#ab)" d="M734.2-380.3c-1.242 0-2.304.2-2.102.679.706 1.463 2.512 1.665 3.723 2.32 1.16.657 1.824.8 2.277.548 1.009-.555.264-2.366-.744-3.022-.48-.327-1.911-.525-3.153-.525z"/><path fill="url(#ac)" d="M723.3-380.1c-.269.022-.579.077-.913.137-2.676.475-2.661 1.551-2.899 2.146-.237.594 1.405 1.709 2.237.936.893-.772 1.971-1.474 2.328-1.712 1.403-.937 1.13-1.663-.753-1.506z"/><g fill-rule="evenodd"><path fill="url(#ad)" d="M769-366.1c-7.178 4.169-11.14 12.95-19.85 14.49-9.513 2.747-19.5 3.879-29.35 4.251-8.062 1.005-14.3-9.306-20.54-8.072 5.758 9.147 20.34 8.513 30.24 11.56 10.03.854 18.02-6.971 27.74-8.054 4.776-2.674 18.02-6.719 11.76-14.18z" filter="url(#ae)"/><path fill="url(#af)" d="M701.2-356.5c.202-.21 3.334 3.389 10.16 6.562a40.003 40.003 0 0 0 14.79 3.664c3.038.156 6.201-.035 9.454-.594 3.402-.584 6.63-1.523 9.598-2.65 7.192-2.731 13.1-6.588 16.95-9.33 3.949-2.816 6.123-4.713 6.224-4.596.048.055-1.987 2.116-5.861 5.087-3.782 2.9-9.661 6.897-16.96 9.738-3.012 1.172-6.299 2.14-9.775 2.736-3.324.57-6.563.753-9.676.574a39.164 39.164 0 0 1-15.05-3.962c-6.896-3.408-9.837-7.237-9.845-7.228z"/><path fill="url(#ag)" d="M701.2-356.5c.153-.158 1.116.538 2.854 1.692s4.284 2.749 7.631 4.203c1.94.842 4.15 1.625 6.591 2.226 2.441.6 5.111 1.018 7.929 1.14 2.952.132 6.063-.069 9.233-.615 3.325-.572 6.497-1.48 9.421-2.564 3.595-1.33 6.823-2.908 9.654-4.474 2.831-1.566 5.266-3.12 7.275-4.448s3.592-2.433 4.709-3.159c1.116-.726 1.767-1.076 1.879-.945s-.322.73-1.25 1.702c-.928.971-2.351 2.315-4.248 3.875-1.897 1.56-4.269 3.338-7.104 5.112s-6.137 3.544-9.877 5.034c-3.052 1.215-6.406 2.217-9.951 2.823-3.38.577-6.724.755-9.898.553a39.104 39.104 0 0 1-8.458-1.495 37.74 37.74 0 0 1-6.863-2.765c-3.413-1.787-5.885-3.75-7.443-5.242-1.558-1.492-2.235-2.495-2.082-2.653z" filter="url(#ah)" opacity=".176" transform="rotate(1.117 -171.94 283.356) scale(.99999)"/></g><path fill="url(#ai)" d="M699.3-360c.131 2.05 1.175 3.872 1.949 5.73.525 1.179 1.063 2.373 1.864 3.395.99 1.074 2.28 1.783 3.529 2.506 1.342.88 2.794 1.587 4.096 2.525.745.465 2.009.094 1.812-.938-.361-.835-1.333-1.17-2.022-1.703-2.177-1.586-4.107-3.479-6.012-5.374-1.299-1.33-2.544-2.717-3.623-4.236-.523-.579-1.003-1.572-1.594-1.906z" filter="url(#aj)"/><path fill="url(#ak)" d="M698.2-359.8c-.56.833.088 1.804.532 2.533.9 1.326 2.167 2.337 3.213 3.539.817.856 1.634 1.843 2.817 2.178 1.544.591 3.211.97 4.555 1.981a48.99 48.99 0 0 1 2.164 1.738c.79.634.957 1.71 1.661 2.411.74.869 2.101.26 2.371-.723.233-.992-.022-2.015-.58-2.853-.763-1.131-1.84-2.025-3.013-2.709-2.755-2.022-5.874-3.447-8.848-5.103-.976-.56-2.01-1.033-2.933-1.678-.564-.468-1.124-1.39-1.938-1.312z" filter="url(#al)" transform="matrix(-1 0 0 1 1467 -3.393)"/><ellipse cx="66.38" cy="103.4" fill="#931e00" fill-opacity=".628" stroke="url(#linearGradient4213-1)" stroke-width="5" color="#000" filter="url(#am)" rx="10.16" ry="4.596" transform="matrix(1.073 -.466 .466 1.073 621.4 -422.8)"/></g><path fill="#ffe680" d="M749.7-381.2c39.86 7.726 33.55 25.94 13.73 37.3-10.83 6.205-29.16 16-40.4 8.762-3.552-2.286-22.09-11.59-25.16-22.79-9.714 40.12 55.95 38.08 70.45 19.71 7.77-9.847 18.08-12.43 14.8-24.92-1.253-7.255-6.853-13.65-14.09-15.99z" filter="url(#an)"/></g><path fill="#ffd21c" d="M571.014 668.641c-5.446.382-10.421 3.524-13.881 7.636-3.468 4.035-4.369 9.422-5.306 14.484-.996 6.695-2.03 13.388-2.415 20.155-1.66 22.386-2.186 44.841-3.223 67.25-.562 12.433-.765 24.925-2.937 37.215-1.555 10.082-4.139 19.96-6.424 29.886-3.15 13.097-5.849 26.407-6.116 39.906-.221 5.35-.215 10.755 1.068 15.99 1.13 5.495 3.092 10.826 5.52 15.875 4.455 7.643 9.953 14.94 17.362 19.94a42.205 42.205 0 0 0 14.197 6.52c5.911 1.683 12.02 2.538 18.093 3.362 9.51.82 19.168.295 28.479-1.836 10.831-2.614 21.211-7.58 29.491-15.094 16.725-13.746 33.44-27.517 50.666-40.646 14.622-11.103 29.861-21.347 45.113-31.564 13.598-9.033 27.146-18.149 40.522-27.492 5.859-4.3 12.15-8.283 16.782-13.976 3.667-4.48 5.338-10.772 3.361-16.342-1.446-4.978-5.081-8.895-8.904-12.224-9.395-8.894-19.092-17.477-28.233-26.653-7.628-7.964-15.115-16.512-19.175-26.924-3.263-7.567-4.615-15.758-5.45-23.904-.693-5.64-1.46-11.316-3.469-16.661-1.66-4.61-6.407-7.056-10.79-8.524-6.606-2.507-13.706-3.21-20.673-4.025-20.947-1.519-42.003.608-62.931-1.38-19.052-1.647-37.537-6.868-56.416-9.698-4.753-.625-9.558-1.302-14.343-1.311z"/><g clip-path="url(#ao)" transform="matrix(2.468 0 0 2.468 -1412.176 1180.233)"><g color="#000"><path fill="#ff4e00" d="M799.8-216.7c-9.921 1.036-15.56 12.31-14.65 21.93.07 16.59 1.852 33.28.192 49.82-1.71 11.77-7.337 22.87-7.332 34.87 2.202 12.35 14.82 20.1 26.43 22.05 12.94 2.22 26.66.235 37.74-7.09 17.31-8.987 32.64-21.18 46.46-34.86 6.168-6.579 15.69-11.39 17.52-20.92 1.632-12.27-8.16-21.4-16.51-28.73-10.26-8.321-6.88-25.28-18.74-32.16-11.07-5.327-23.59-.672-35.29-2.257-11.95-.686-23.9-3.889-35.82-2.645zm36.83 16.43c9.179-1.23 8.766-2.395 18.17-.842 8.095 2.772 13.36 6.561 11.65 12.79-1.746 5.642-2.787 12.92 3.246 17.64 6.959 5.444 23.74 15.03 15.96 20.1-10.38 6.754-41.43 33.02-59.3 44.6-10.5 5.168-23.13 3.546-31.85-4.866-6.629-6.395-1.832-17.14-.559-25.15 4.13-26 3.1-47.08 6.463-62.69 2.438-11.31 24.6 1.307 36.21-1.58z" filter="url(#ap)" style="block-progression:tb;text-decoration-line:none;text-indent:0;text-transform:none"/><path fill="#502d16" d="M802.9-220.7c-2.493.1-5.036.17-7.393 1.086-3.347 1.287-6.237 3.625-8.434 6.436-2.676 3.281-3.992 7.492-4.264 11.68-.307 4.656-.544 9.319-.514 13.99-.101 10.56.396 21.15-.548 31.69-.737 8.998-2.212 17.92-3.918 26.78-1.37 7.75-3.069 15.55-2.719 23.47.598 5.802 3.498 11.18 7.482 15.37 5.333 5.924 13.02 9.435 20.88 10.3 8.494.981 17.16-.92 24.81-4.608 7.916-3.843 14.96-9.182 22.21-14.1 10.53-7.196 20.78-14.83 30.23-23.42 8.257-7.307 16.1-15.09 23.4-23.35 2.333-2.841 3.7-6.502 3.52-10.2.02-5.612-1.803-11.14-4.848-15.83-3.724-5.896-8.584-10.94-12.97-16.33-4.48-5.413-7.949-11.57-12.2-17.15-2.093-2.775-4.509-5.412-7.647-7.012-3.087-1.71-6.603-2.493-10.1-2.697-12.34-1.433-24.62-3.275-36.91-5.059-6.602-.817-13.26-1.28-19.91-1.035l-.17.003zm-3.469 4.594c7.723.462 14.98 3.409 22.19 5.961 5.038 1.774 10.21 3.444 15.6 3.594 5.559.365 11.13.012 16.68-.307 3.994-.047 8.178-.198 11.92 1.433 3.141 1.603 5.182 4.753 6.274 8.023 1.578 4.685 2.762 9.613 5.565 13.76 2.311 3.63 5.639 6.557 9.474 8.494 4.351 2.528 9.118 4.89 12.05 9.146 2.055 3.188 2.265 7.486.375 10.8-1.874 3.64-5.148 6.235-7.814 9.259-5.568 5.844-11.39 11.46-17.67 16.54-7.03 5.74-14.75 10.55-22.51 15.22a826.705 826.705 0 0 0-23.18 14.4c-5.183 3.19-10.38 6.443-16.02 8.777-4.357 1.692-9.225 2.344-13.79 1.127-5.947-1.461-11.39-5.377-14.11-10.94-2.287-4.54-2.176-9.816-1.605-14.74 1.215-10.48 3.45-20.81 4.912-31.25 1.11-6.804 2.11-13.64 2.366-20.54.512-8.913.22-17.84.392-26.76.147-4.512.314-9.034 1.033-13.5.274-2.151.66-4.418 2.155-6.095 1.307-1.776 3.54-2.68 5.72-2.406z" filter="url(#aq)" style="block-progression:tb;text-decoration-line:none;text-indent:0;text-transform:none"/><path fill="#ffe680" d="M816.8-214.2c-10.09 1.066-21.85 6.507-23.52 17.65-4.093 16.74-3.484 34.1-5.396 51.1-2.445 13.7-7.404 26.78-11.11 40.12-.344 10.61 9.131 18.56 18.08 22.41 16.16 6.278 33.91-.556 47.29-10.06 20.86-13.54 41.12-28.44 58.1-46.71 6.643-6.866 2.622-16.71-5.471-19.92-6.292-4.188-13.74-10.56-11.67-19 2.617-7.919 2.546-18.58-6.803-21.73-12.35-6.75-26.59-8.369-40.03-11.86-6.408-1.247-12.92-2.107-19.46-1.998zm-14.14 8.349c20.21 2.073 40.89 2.038 60.96 5.572 7.361 2.199 9.249 10.9 10.66 17.51.972 7.098 4.352 13.77 10.26 18.01 4.94 4.805 15.99 9.624 10.91 17.99-5.256 10.06-16.08 15.12-24.87 21.58-11.08 7.085-18.91 10.29-28.97 18.77-6.329 5.339-11.45 9.249-19.29 11.29-8.076 2.726-18.93.966-26.07-4.935-8.016-4.99-11.18-15.28-7.871-23.17 3.559-13.84 5.847-19.86 7.608-34.17 2.41-10.47-4.26-47.31 6.675-48.44z" filter="url(#ar)" style="block-progression:tb;text-decoration-line:none;text-indent:0;text-transform:none"/></g><path fill="#d43700" fill-opacity=".517" d="M850.2-176.1c-5.5.035-11.04.982-16.13 3.096-5.494 2.298-10.28 6.071-14.18 10.53-2.998 3.308-5.517 7.021-7.906 10.78-3.369 5.672-6.079 11.79-7.457 18.26-1.372 6.597-1.241 13.59.877 20.02 1.403 4.263 3.69 8.472 7.516 11.01 4.004 2.797 9.265 3.541 13.94 2.212 5.277-1.394 10-4.253 14.71-6.916 7.867-4.824 15.42-10.15 22.91-15.53 4.993-3.705 10.03-7.378 14.72-11.46 4.956-4.371 9.55-9.363 12.45-15.36 1.717-3.928 2.138-8.766-.158-12.56-2.484-4.459-7.069-7.258-11.75-8.951-6.424-2.445-13.23-3.673-20.02-4.627-3.16-.304-6.346-.62-9.524-.509z" filter="url(#as)"/><path fill="none" stroke="url(#au)" stroke-width="3.647" d="M803.6-207.3c-2.207.155-4.223 1.428-5.625 3.094-1.405 1.635-1.77 3.818-2.15 5.869-.404 2.713-.822 5.425-.979 8.167-.672 9.071-.885 18.17-1.306 27.25-.227 5.038-.31 10.1-1.19 15.08-.63 4.085-1.677 8.088-2.603 12.11-1.276 5.307-2.37 10.7-2.478 16.17-.09 2.168-.087 4.358.433 6.479.458 2.227 1.253 4.387 2.237 6.433 1.805 3.097 4.033 6.054 7.035 8.08a17.102 17.102 0 0 0 5.753 2.642c2.395.682 4.87 1.028 7.33 1.362 3.855.332 7.768.12 11.54-.744 4.39-1.06 8.596-3.071 11.95-6.116 6.778-5.57 13.55-11.15 20.53-16.47 5.926-4.5 12.1-8.65 18.28-12.79 5.51-3.66 11-7.354 16.42-11.14 2.375-1.742 4.924-3.356 6.8-5.663 1.487-1.815 2.164-4.365 1.363-6.622-.586-2.017-2.06-3.604-3.608-4.953-3.807-3.604-7.736-7.082-11.44-10.8-3.091-3.227-6.125-6.691-7.77-10.91-1.322-3.066-1.87-6.385-2.208-9.686-.282-2.285-.592-4.585-1.406-6.751-.673-1.868-2.596-2.86-4.372-3.454-2.677-1.016-5.554-1.301-8.377-1.631-8.488-.616-17.02.246-25.5-.56-7.72-.667-15.21-2.782-22.86-3.93-1.926-.252-3.873-.527-5.812-.53z" color="#000" filter="url(#at)"/></g><g fill-rule="evenodd" clip-path="url(#av)" transform="matrix(2.468 0 0 2.468 -1412.176 1180.233)"><path fill="url(#aw)" d="M827.2-218.2c-10.22.874-18.64 17.44-13.05 26.86 4.693 11.49 20.79 22.53 32.93 26.37 15.94 5.107 22.74-3.836 21.56-14.51 1.021-8.576-7.662-31.96-18.36-35.96-7.24-3.09-15.39-2.394-23.07-2.757z" filter="url(#ax)" opacity=".569"/><path fill="#bb3600" fill-opacity=".363" d="M827.2-218.2c-10.22.874-18.64 17.44-13.05 26.86 4.693 11.49 20.79 22.53 32.93 26.37 15.94 5.107 22.74-3.836 21.56-14.51 1.021-8.576-7.662-31.96-18.36-35.96-7.24-3.09-15.39-2.394-23.07-2.757z" filter="url(#ay)" opacity=".72" transform="translate(131.9 -29.93) scale(.8431)"/><path fill="#250000" fill-opacity=".61" d="M832.1-215.7c-2.777.242-5.411 1.352-7.863 2.627-3.977 2.088-7.455 5.402-9.199 9.592-1.039 2.367-.965 5.038-.32 7.497 1.05 3.395 2.422 6.715 4.171 9.812 2.085 3.152 5.74 4.71 9.25 5.702 4.4 1.29 8.971 2.962 13.62 2.095 5.816-1.1 10.83-4.648 15.06-8.641 3.144-3.058 5.852-6.638 7.592-10.68.76-1.813 1.184-4.048.001-5.786-1.445-2.539-4.105-4.001-6.516-5.479-4.514-2.444-9.322-4.354-14.33-5.492-3.596-.765-7.264-1.384-10.95-1.276l-.515.03z" filter="url(#az)"/></g><path d="M598.408 669.875c3.734 3.731 6.932-5.508 10.661-8.532 3.732-3.02 9.773-9.595 21.856-9.595s11.192-.355 10.659-4.977c-.356-4.44-3.91-4.085-14.568-2.488-10.662 1.422-17.77 6.932-22.036 11.905-4.082 4.8-8.704 11.552-6.572 13.687z"/><path fill="#050505" d="M599.148 668.888c3.6 3.576 6.671-5.235 10.378-8.164 3.704-2.93 9.701-9.208 21.322-9.208 11.624-.005 10.896-.318 10.388-4.787-.343-4.302-3.808-3.932-14.188-2.416-10.383 1.34-17.347 6.67-21.5 11.47-3.989 4.633-8.485 11.042-6.4 13.105z"/><path fill="#0a0a0a" d="M600.135 668.147c3.47 3.428 6.417-4.955 10.092-7.788 3.68-2.833 9.627-8.825 20.792-8.828 11.157-.002 10.594-.271 10.108-4.595-.326-4.166-3.704-3.778-13.805-2.347-10.101 1.259-16.923 6.407-20.965 11.034-3.887 4.472-8.262 10.54-6.222 12.524z"/><path fill="#0f0f0f" d="M600.876 667.16c3.341 3.273 6.155-4.676 9.81-7.423 3.65-2.742 9.553-8.44 20.254-8.445s10.293-.232 9.832-4.405c-.311-4.025-3.604-3.62-13.42-2.28-9.82 1.181-16.503 6.15-20.435 10.604-3.783 4.311-8.038 10.034-6.041 11.95z"/><path fill="#141414" d="M601.616 666.173c3.213 3.122 5.898-4.4 9.521-7.048 3.628-2.656 9.482-8.06 19.721-8.065s9.995-.19 9.558-4.218c-.293-3.887-3.502-3.465-13.04-2.209-9.538 1.096-16.078 5.886-19.899 10.17-3.677 4.142-7.81 9.53-5.86 11.37z"/><path fill="#191919" d="M602.603 665.433c3.083 2.966 5.64-4.124 9.24-6.683 3.598-2.56 9.41-7.673 19.185-7.678 9.78-.01 9.697-.15 9.282-4.03-.279-3.749-3.398-3.31-12.655-2.14-9.257 1.022-15.656 5.625-19.366 9.736-3.576 3.981-7.588 9.023-5.686 10.795z"/><path fill="#1e1e1e" d="M603.344 664.446c2.951 2.815 5.385-3.848 8.953-6.313 3.574-2.468 9.336-7.29 18.657-7.298 9.317-.007 9.393-.106 9.003-3.84-.261-3.605-3.297-3.151-12.275-2.068-8.976.935-15.232 5.365-18.83 9.304-3.475 3.815-7.364 8.517-5.508 10.215z"/><path fill="#232323" d="M604.084 663.458c2.823 2.66 5.123-3.57 8.672-5.947 3.547-2.372 9.262-6.903 18.12-6.908 8.857-.01 9.094-.066 8.728-3.652-.249-3.468-3.193-2.999-11.89-2.002-8.697.862-14.81 5.104-18.3 8.87-3.373 3.652-7.141 8.008-5.33 9.64z"/><path fill="#282828" d="M605.071 662.718c2.69 2.512 4.867-3.292 8.386-5.572 3.52-2.286 9.188-6.52 17.584-6.53 8.395-.013 8.793-.028 8.455-3.463-.235-3.329-3.093-2.838-11.51-1.927-8.414.775-14.386 4.84-17.764 8.435-3.27 3.492-6.918 7.505-5.15 9.057z"/><path fill="#2d2d2d" d="M605.812 661.731c2.561 2.354 4.605-3.016 8.1-5.207 3.494-2.19 9.116-6.135 17.05-6.145 7.939-.01 8.492.02 8.176-3.273-.217-3.19-2.991-2.685-11.125-1.86-8.134.698-13.964 4.582-17.229 8.005-3.168 3.32-6.693 7-4.972 8.48z"/><path fill="#333" d="M606.552 660.744c2.43 2.204 4.348-2.737 7.816-4.837s9.042-5.75 16.517-5.763c7.475-.015 8.194.057 7.902-3.082-.202-3.053-2.89-2.527-10.745-1.792-7.853.617-13.536 4.319-16.695 7.567-3.068 3.164-6.47 6.5-4.795 7.907z"/><path fill="#383838" d="M607.54 660.003c2.302 2.051 4.088-2.463 7.529-4.466 3.445-2.007 8.973-5.366 15.987-5.38 7.016-.015 7.894.096 7.625-2.893-.187-2.914-2.786-2.376-10.36-1.72-7.571.536-13.114 4.057-16.164 7.135-2.967 2.996-6.247 5.99-4.618 7.324z"/><path fill="#3d3d3d" d="M608.28 659.016c2.171 1.903 3.832-2.184 7.25-4.096 3.413-1.913 8.894-4.983 15.449-4.995 6.555-.018 7.596.143 7.352-2.703-.17-2.776-2.685-2.218-9.98-1.653-7.29.456-12.695 3.798-15.63 6.7-2.862 2.833-6.023 5.484-4.442 6.747z"/><path fill="#424242" d="M609.02 658.03c2.04 1.744 3.573-1.909 6.962-3.727 3.388-1.822 8.825-4.598 14.916-4.618 6.095-.017 7.295.183 7.075-2.512-.155-2.636-2.581-2.063-9.598-1.582-7.01.373-12.272 3.536-15.093 6.266-2.762 2.673-5.8 4.98-4.262 6.172z"/><path fill="#474747" d="M610.007 657.042c1.91 1.592 3.317-1.631 6.678-3.361 3.361-1.728 8.749-4.21 14.383-4.228 5.634-.022 6.994.222 6.796-2.325-.14-2.497-2.48-1.907-9.212-1.512-6.73.293-11.848 3.277-14.558 5.836-2.66 2.5-5.578 4.467-4.087 5.59z"/><path fill="#4c4c4c" d="M610.747 656.302c1.78 1.44 3.058-1.358 6.392-2.991 3.34-1.637 8.68-3.828 13.85-3.848 5.173-.022 6.695.264 6.523-2.135-.126-2.356-2.38-1.75-8.828-1.44-6.449.211-11.429 3.015-14.032 5.399-2.555 2.342-5.35 3.966-3.905 5.015z"/><path fill="#515151" d="M611.488 655.314c1.65 1.286 2.798-1.076 6.11-2.623 3.31-1.542 8.6-3.443 13.314-3.46 4.714-.025 6.395.306 6.247-1.947-.109-2.216-2.276-1.594-8.448-1.375-6.167.136-11.002 2.757-13.497 4.97-2.453 2.177-5.126 3.46-3.726 4.435z"/><path fill="#565656" d="M612.475 654.327c1.52 1.133 2.54-.8 5.824-2.25 3.282-1.454 8.53-3.06 12.779-3.08 4.252-.025 6.095.348 5.972-1.76-.096-2.078-2.174-1.436-8.065-1.3-5.89.051-10.58 2.492-12.961 4.53-2.352 2.014-4.904 2.96-3.55 3.86z"/><path fill="#5b5b5b" d="M613.215 653.587c1.392.98 2.285-.526 5.54-1.886s8.458-2.675 12.249-2.697c3.79-.027 5.794.388 5.693-1.57-.076-1.937-2.07-1.283-7.68-1.233-5.604-.025-10.158 2.235-12.426 4.101-2.253 1.854-4.684 2.45-3.376 3.285z"/><path fill="#606060" d="M613.956 652.6c1.26.829 2.026-.247 5.256-1.51 3.23-1.272 8.384-2.293 11.713-2.315 3.334-.025 5.496.434 5.42-1.378-.065-1.799-1.973-1.127-7.3-1.164-5.326-.106-9.737 1.971-11.896 3.667-2.147 1.683-4.454 1.945-3.193 2.7z"/><path fill="#666" d="M614.943 651.613c1.13.673 1.767.03 4.97-1.148 3.206-1.175 8.312-1.903 11.18-1.927 2.87-.03 5.194.471 5.143-1.19-.05-1.66-1.869-.97-6.918-1.093-5.044-.188-9.311 1.71-11.362 3.235-2.043 1.52-4.23 1.437-3.013 2.123z"/><path d="M646.532 646.677c0 5.686 11.55 7.64 22.566 9.237 10.839 1.6 19.546 3.734 20.079 15.106.533 11.192-2.31 19.188 2.665 18.302 10.661-1.957 14.57-13.507 14.393-18.837 0-5.331-7.819-14.924-21.853-20.254-10.309-3.91-17.77-5.689-26.826-6.044-12.086-.528-11.02 2.49-11.02 2.49z"/><path fill="#030303" d="M646.778 646.677c.03 5.525 11.459 7.33 22.332 8.98 10.74 1.666 19.126 3.73 20.015 14.813.851 10.895-2.108 18.546 2.803 17.739 10.23-1.824 14.038-12.833 13.838-18.095-.037-5.308-7.695-14.585-21.552-19.836-10.19-3.858-17.547-5.672-26.505-6.052-11.733-.535-10.953 2.35-10.93 2.45z"/><path fill="#070707" d="M647.272 646.677c.057 5.365 11.365 7.021 22.095 8.719 10.641 1.73 18.707 3.721 19.958 14.523 1.162 10.6-1.903 17.897 2.934 17.184 9.798-1.7 13.504-12.166 13.287-17.356-.069-5.294-7.571-14.247-21.248-19.423-10.074-3.808-17.33-5.654-26.185-6.06-11.381-.539-10.888 2.21-10.843 2.413z"/><path fill="#0b0b0b" d="M647.519 646.924c.086 5.204 11.273 6.715 21.858 8.467 10.54 1.797 18.29 3.717 19.898 14.232 1.479 10.301-1.7 17.246 3.073 16.621 9.365-1.574 12.974-11.5 12.732-16.616-.109-5.274-7.45-13.909-20.948-19.005-9.958-3.756-17.11-5.64-25.863-6.069-11.03-.54-10.82 2.066-10.755 2.37z"/><path fill="#0f0f0f" d="M647.766 646.924c.116 5.042 11.182 6.404 21.623 8.203 10.444 1.86 17.873 3.712 19.84 13.941 1.789 10-1.501 16.604 3.205 16.063 8.936-1.446 12.44-10.831 12.184-15.883-.148-5.25-7.332-13.563-20.649-18.583-9.841-3.707-16.885-5.622-25.542-6.08-10.681-.544-10.758 1.934-10.671 2.339z"/><path fill="#131313" d="M648.26 647.17c.145 4.882 11.092 6.094 21.388 7.945 10.34 1.927 17.45 3.706 19.778 13.65 2.107 9.703-1.298 15.954 3.341 15.505 8.502-1.32 11.905-10.165 11.63-15.145-.184-5.23-7.207-13.226-20.349-18.166-9.726-3.658-16.665-5.605-25.197-6.094-10.33-.545-10.693 1.792-10.584 2.305z"/><path fill="#161616" d="M648.506 647.17c.173 4.724 11.002 5.785 21.15 7.688 10.244 1.991 17.035 3.702 19.718 13.359 2.419 9.407-1.093 15.305 3.477 14.945 8.073-1.19 11.375-9.496 11.076-14.403-.217-5.21-7.085-12.887-20.046-17.751-9.61-3.606-16.444-5.587-24.877-6.098-9.977-.55-10.626 1.653-10.496 2.26z"/><path fill="#1a1a1a" d="M648.753 647.17c.202 4.561 10.913 5.477 20.918 7.429 10.145 2.053 16.618 3.697 19.656 13.067 2.735 9.107-.888 14.66 3.613 14.388 7.643-1.069 10.844-8.83 10.526-13.665-.257-5.192-6.962-12.546-19.743-17.332-9.497-3.556-16.227-5.577-24.553-6.113-9.637-.55-10.57 1.513-10.417 2.226z"/><path fill="#1e1e1e" d="M649 647.417c.232 4.396 10.821 5.163 20.683 7.167 10.044 2.12 16.197 3.69 19.592 12.779 3.05 8.805-.686 14.012 3.752 13.825 7.208-.94 10.308-8.157 9.97-12.925-.291-5.175-6.839-12.206-19.442-16.914-9.378-3.505-16.004-5.558-24.227-6.118-9.285-.558-10.504 1.372-10.328 2.186z"/><path fill="#222" d="M649.493 647.417c.26 4.238 10.73 4.86 20.447 6.913 9.943 2.184 15.782 3.684 19.535 12.485 3.362 8.512-.486 13.366 3.882 13.27 6.777-.812 9.778-7.493 9.418-12.19-.329-5.15-6.718-11.865-19.141-16.495-9.262-3.455-15.785-5.545-23.904-6.13-8.929-.56-10.432 1.232-10.237 2.147z"/><path fill="#262626" d="M649.74 647.417c.291 4.075 10.639 4.549 20.21 6.649 9.846 2.255 15.364 3.682 19.476 12.198 3.68 8.214-.284 12.715 4.02 12.708 6.345-.686 9.245-6.824 8.865-11.451-.36-5.134-6.594-11.53-18.84-16.081-9.144-3.406-15.563-5.528-23.576-6.14-8.583-.555-10.372 1.1-10.155 2.117z"/><path fill="#2a2a2a" d="M649.987 647.664c.318 3.917 10.545 4.235 19.975 6.392 9.748 2.315 14.945 3.675 19.415 11.907 3.993 7.912-.082 12.07 4.155 12.147 5.914-.56 8.712-6.155 8.312-10.71-.4-5.114-6.473-11.19-18.538-15.666-9.028-3.352-15.34-5.509-23.25-6.15-8.233-.558-10.309.962-10.07 2.08z"/><path fill="#2d2d2d" d="M650.233 647.664c.348 3.754 10.457 3.926 19.741 6.13 9.647 2.387 14.526 3.672 19.353 11.617 4.31 7.615.124 11.423 4.292 11.591 5.481-.434 8.176-5.49 7.759-9.972-.437-5.094-6.348-10.85-18.235-15.247-8.914-3.305-15.124-5.496-22.927-6.162-7.882-.56-10.244.824-9.983 2.043z"/><path fill="#313131" d="M650.727 647.91c.378 3.594 10.365 3.619 19.504 5.877 9.548 2.446 14.109 3.665 19.291 11.325 4.622 7.317.326 10.772 4.428 11.029 5.049-.304 7.647-4.82 7.206-9.235-.472-5.071-6.227-10.508-17.934-14.827-8.798-3.253-14.901-5.479-22.601-6.17-7.53-.565-10.178.681-9.894 2.002z"/><path fill="#353535" d="M650.974 647.91c.407 3.436 10.274 3.31 19.27 5.615 9.449 2.513 13.688 3.66 19.234 11.04 4.935 7.015.525 10.125 4.56 10.468 4.623-.183 7.115-4.154 6.654-8.497-.509-5.052-6.106-10.168-17.633-14.408-8.68-3.205-14.68-5.466-22.275-6.184-7.182-.565-10.116.545-9.81 1.967z"/><path fill="#393939" d="M651.22 647.91c.435 3.273 10.183 3 19.033 5.356 9.35 2.58 13.272 3.658 19.178 10.745 5.249 6.72.728 9.482 4.691 9.911 4.19-.052 6.582-3.484 6.106-7.759-.548-5.03-5.987-9.824-17.332-13.99-8.564-3.152-14.46-5.45-21.95-6.192-6.833-.57-10.054.405-9.725 1.93z"/><path fill="#3d3d3d" d="M651.467 648.158c.464 3.114 10.092 2.69 18.798 5.098 9.252 2.643 12.853 3.65 19.114 10.454 5.565 6.422.93 8.83 4.83 9.351 3.756.072 6.048-2.816 5.55-7.019-.582-5.017-5.861-9.491-17.03-13.573-8.448-3.105-14.238-5.437-21.625-6.204-6.48-.57-9.985.269-9.637 1.893z"/><path fill="#414141" d="M651.961 648.158c.494 2.949 10 2.381 18.563 4.84 9.151 2.709 12.431 3.644 19.052 10.164 5.881 6.118 1.136 8.181 4.966 8.79 3.327.2 5.518-2.146 4.997-6.28-.62-4.99-5.738-9.148-16.727-13.156-8.334-3.053-14.02-5.417-21.3-6.214-6.133-.575-9.921.123-9.551 1.856z"/><path fill="#444" d="M652.208 648.404c.523 2.787 9.908 2.068 18.326 4.578 9.052 2.774 12.016 3.64 18.993 9.872 6.194 5.822 1.338 7.54 5.101 8.233 2.895.328 4.985-1.481 4.445-5.543-.657-4.975-5.617-8.806-16.426-12.734-8.216-3.006-13.798-5.403-20.975-6.222-5.782-.58-9.857-.017-9.464 1.816z"/><path fill="#484848" d="M652.455 648.404c.55 2.629 9.82 1.765 18.092 4.324 8.953 2.838 11.596 3.635 18.93 9.583 6.511 5.523 1.54 6.888 5.238 7.67 2.463.457 4.452-.812 3.891-4.802-.69-4.956-5.496-8.47-16.125-12.32-8.1-2.952-13.576-5.385-20.648-6.231-5.432-.58-9.793-.158-9.378 1.776z"/><path fill="#4c4c4c" d="M652.701 648.404c.58 2.468 9.726 1.452 17.855 4.06 8.855 2.907 11.178 3.633 18.87 9.294 6.826 5.227 1.742 6.241 5.372 7.115 2.032.58 3.922-.146 3.342-4.067-.728-4.93-5.373-8.127-15.824-11.9-7.984-2.902-13.356-5.37-20.323-6.241-5.081-.59-9.728-.294-9.292 1.74z"/><path fill="#4c4c4c" d="M689.473 660.497c4.062 2.468 3.339 5.081 5.952 6.826 1.303.869 3.485.869 2.177-2.468-1.742-3.919-3.193-6.1-12.194-9.73-5.807-2.323-4.644.145 4.065 5.372z"/><path fill="#505050" d="M689.473 660.497c3.96 2.406 3.257 4.956 5.807 6.653 1.276.847 3.398.847 2.122-2.408-1.7-3.823-3.114-5.948-11.895-9.492-5.664-2.263-4.531.146 3.966 5.247z"/><path fill="#545454" d="M689.72 660.497c3.867 2.347 3.176 4.83 5.66 6.488 1.242.824 3.315.824 2.071-2.347-1.655-3.726-3.035-5.8-11.596-9.252-5.523-2.204-4.418.143 3.865 5.111z"/><path fill="#575757" d="M689.72 660.497c3.766 2.285 3.094 4.709 5.515 6.325 1.207.802 3.228.802 2.014-2.29-1.611-3.63-2.959-5.649-11.298-9.013-5.377-2.152-4.301.136 3.769 4.978z"/><path fill="#5b5b5b" d="M689.72 660.497c3.664 2.226 3.01 4.583 5.367 6.155 1.182.785 3.144.785 1.965-2.226-1.572-3.534-2.88-5.501-11-8.776-5.237-2.095-4.188.133 3.668 4.847z"/><path fill="#5f5f5f" d="M689.966 660.497c3.569 2.17 2.932 4.462 5.225 5.987 1.145.765 3.058.765 1.908-2.164-1.528-3.44-2.804-5.35-10.701-8.537-5.094-2.038-4.072.129 3.568 4.714z"/><path fill="#636363" d="M689.966 660.497c3.468 2.108 2.848 4.339 5.077 5.822 1.115.743 2.974.743 1.86-2.105-1.488-3.342-2.724-5.203-10.404-8.3-4.953-1.977-3.961.131 3.467 4.583z"/><path fill="#676767" d="M690.213 660.497c3.366 2.043 2.767 4.208 4.931 5.651 1.08.721 2.887.721 1.804-2.043-1.444-3.245-2.646-5.052-10.106-8.063-4.807-1.922-3.845.124 3.371 4.455z"/><path fill="#6b6b6b" d="M690.213 660.744c3.27 1.986 2.685 4.084 4.788 5.486 1.049.698 2.8.698 1.75-1.982-1.402-3.151-2.57-4.906-9.808-7.823-4.667-1.868-3.731.116 3.27 4.319z"/><path fill="#6e6e6e" d="M690.46 660.744c3.169 1.922 2.606 3.96 4.64 5.32 1.019.677 2.72.677 1.697-1.922-1.36-3.055-2.49-4.753-9.508-7.584-4.524-1.809-3.618.114 3.17 4.186z"/><path fill="#727272" d="M690.46 660.744c3.068 1.863 2.52 3.835 4.494 5.15.985.657 2.63.657 1.644-1.863-1.316-2.959-2.412-4.603-9.208-7.344-4.383-1.753-3.507.11 3.07 4.057z"/><path fill="#767676" d="M690.46 660.744c2.969 1.801 2.44 3.711 4.35 4.985.956.634 2.545.634 1.593-1.804-1.274-2.86-2.335-4.455-8.91-7.105-4.244-1.698-3.395.104 2.967 3.924z"/><path fill="#7a7a7a" d="M690.707 660.744c2.87 1.74 2.357 3.586 4.203 4.815.92.617 2.46.617 1.537-1.74-1.231-2.767-2.256-4.304-8.61-6.868-4.1-1.639-3.28.1 2.87 3.793z"/><path fill="#7e7e7e" d="M690.707 660.744c2.769 1.683 2.278 3.465 4.057 4.652.89.592 2.374.592 1.486-1.683-1.187-2.67-2.177-4.156-8.31-6.632-3.96-1.579-3.171.102 2.767 3.663z"/><path fill="#828282" d="M690.954 660.744c2.67 1.621 2.196 3.339 3.914 4.479.858.573 2.287.573 1.426-1.619-1.143-2.574-2.098-4.005-8.008-6.392-3.818-1.525-3.053.097 2.668 3.532z"/><path fill="#858585" d="M690.954 660.744c2.571 1.557 2.11 3.21 3.76 4.314.827.55 2.207.55 1.38-1.563-1.1-2.48-2.019-3.857-7.712-6.15-3.672-1.47-2.937.092 2.572 3.399z"/><path fill="#898989" d="M691.2 660.744c2.47 1.498 2.026 3.09 3.618 4.148.795.528 2.115.528 1.323-1.5-1.061-2.382-1.94-3.707-7.414-5.913-3.529-1.414-2.823.084 2.473 3.265z"/><path fill="#8d8d8d" d="M691.2 660.99c2.372 1.442 1.95 2.965 3.473 3.981.762.506 2.03.506 1.27-1.441-1.016-2.285-1.863-3.556-7.114-5.674-3.389-1.352-2.71.084 2.371 3.135z"/><path fill="#919191" d="M691.447 660.99c2.273 1.38 1.866 2.841 3.327 3.818.73.484 1.947.484 1.216-1.382-.974-2.191-1.784-3.408-6.816-5.439-3.245-1.295-2.596.082 2.273 3.004z"/><path fill="#959595" d="M691.447 660.99c2.172 1.32 1.784 2.72 3.181 3.65.696.467 1.861.467 1.163-1.317-.93-2.095-1.706-3.26-6.518-5.198-3.102-1.246-2.483.077 2.174 2.866z"/><path fill="#999" d="M691.447 660.99c2.073 1.26 1.7 2.592 3.033 3.478.669.447 1.78.447 1.11-1.259-.888-1.999-1.628-3.11-6.218-4.96-2.96-1.185-2.367.076 2.075 2.742z"/><path fill-rule="evenodd" d="M632.218 639.026c-6.853.597-13.354 3.337-19.405 6.484-9.815 5.153-18.398 13.331-22.702 23.671-2.564 5.842-2.381 12.434-.789 18.502 2.591 8.379 5.977 16.572 10.294 24.215 5.145 7.779 14.163 11.624 22.825 14.072 10.861 3.184 22.142 7.31 33.613 5.17 14.355-2.715 26.727-11.47 37.166-21.325 7.762-7.547 14.445-16.382 18.739-26.357 1.872-4.474 2.922-9.99.002-14.279-3.567-6.266-10.131-9.874-16.081-13.522-11.14-6.031-23.006-10.745-35.365-13.553-8.874-1.888-17.927-3.416-27.023-3.15l-1.271.076z"/><g clip-path="url(#aA)" transform="matrix(2.468 0 0 2.468 -1412.176 1180.233)"><path fill="#fff" d="M314.7 386.3c.613 1.3-24.13-47.45 29.34-51.97 45.77-3.871 44.12 46 40.31 49.14-7.495 6.17-20.15 22.98-20.15 22.98s23.33-4.95 36.77-25.1c13.44-20.15 15.2-55.15-41.37-65.76s-91.22 6.718-73.19 38.89 28.28 31.82 28.28 31.82z" color="#000" filter="url(#aB)" transform="translate(586.4 -464.4) scale(.7293)"/><path fill="#dc7c16" d="M295.3 354.3c7.799-10.87 20.39-26.53 52.96-31.11 37.45-5.265 54.92 38.29 55.54 40.88-3.558 19.02 41.58-59.78-53.39-78.37-62.89 5.909-85.34 38.74-55.12 68.6z" color="#000" filter="url(#aC)" transform="matrix(-.7186 .1249 -.1249 -.7186 1130 5.68)"/><path fill="none" stroke="url(#aE)" stroke-width="3.647" d="M826.1-221.6c-8.727 1.143-18.68 10.18-17.81 19.87 1.762 7.887 5.474 19.22 16.58 19.58 10.58 5.467 22.06.171 28.36-6.025 4.206-3.957 10.48-11.33 9.951-17.05-.79-8.09-11.4-10.28-17.63-12.99-5.258-1.758-13.9-3.475-19.45-3.386z" filter="url(#aD)" opacity=".429"/></g><path fill="#fc0" d="M175.477 651.015c-4.313.2-8.04 1.192-11.414 2.7a30.56 30.56 0 0 0-1.928.926c-.02.018-.056-.018-.077 0-5.805 3.098-10.653 7.854-15.735 13.034-.566.578-1.114 1.242-1.696 1.928-.018.018.018.061 0 .078-.572.67-1.185 1.324-1.774 2.082-.018.018.018.061 0 .078-8.426 10.847-18.81 30.007-32.78 40.105-15.99 11.551-56.485 10.484-66.8 23.995-10.129 13.507.335 33.085.155 69.338 0 15.463-2.619 27.145-4.396 36.56-.133.586-.18 1.13-.308 1.696-.018.056-.067.097-.077.155-.045.201-.033.418-.078.617v.077c0 .033-.07.045-.077.078v.077c0 .03-.07.047-.078.078V844.849c-.018.054-.063.1-.077.155-.027.126-.05.261-.077.385l-.078.309c0 .028-.07.048-.077.077v.155c-.022.099-.056.21-.078.308v.078c-.018.054-.063.1-.077.155v.154c0 .03-.07.049-.077.078v.077c-.117.465-.202.866-.309 1.311-.02.081-.057.152-.077.232-.212.883-.445 1.81-.617 2.622v.078c-1.032 4.657-1.36 8.05-.617 11.106v.078c.11.442.307.883.463 1.31.066.19.077.43.154.618.078.184.144.357.232.54.018.028.063.046.077.077.018.02-.018.056 0 .077.018.02-.018.056 0 .078 0 .018.072-.018.077 0 .018.02-.018.057 0 .077.018.03.062.047.078.078.03.072.045.16.077.23.018.033.065.046.078.078.018.02-.018.058 0 .078.018.032.064.045.077.077.022.052.054.1.077.155.018.02-.018.056 0 .077.022.054.054.1.078.155.018.03.06.047.077.077v.078c.018.02-.018.056 0 .077h.078v.078c.018.021-.018.055 0 .077.018.054.059.1.077.155.018.021-.018.054 0 .077h.077c.018.02-.018.058 0 .078.018.021-.018.055 0 .077.018.03.063.047.078.077.018.02-.018.058 0 .078.018.021-.018.054 0 .077.018.033.063.045.077.078v.077c.018.032.063.045.078.077.018.02-.018.058 0 .078.018.021-.018.054 0 .077.018.03.064.047.077.078.018.021-.018.054 0 .077.045.104.106.204.155.309.021.052.054.102.077.154.12.282.252.567.386.849.036.072.041.158.077.231.27.554.525 1.065.849 1.62 9.063 15.106 23.634 18.918 106.977 36.325 44.606 9.24 86.745 33.175 114.988 35.48 28.261 2.134 34.291-7.237 51.518-22.52 17.059-15.282 22.59-10.53 22.05-44.12-.466-29.25-17.023-40.464-37.477-68.725-1.461-2.033-2.968-4.1-4.473-6.324-.983-1.472-1.996-3.057-3.008-4.628-.083-.126-.15-.258-.231-.386-.425-.675-.715-1.15-1.157-1.85-6.086-9.641-10.92-17.266-14.962-23.76-4.043-6.49-7.314-11.84-10.336-16.738-3.02-4.898-5.771-9.401-8.791-14.269a2309.697 2309.697 0 0 0-10.336-16.505c-2.022-3.153-4.33-6.588-6.787-10.258s-5.087-7.564-7.866-11.492a427.047 427.047 0 0 0-8.716-11.877 339.232 339.232 0 0 0-4.473-5.785 249.425 249.425 0 0 0-9.256-10.951 171.312 171.312 0 0 0-4.628-5.014c-4.561-4.716-9.004-8.72-13.189-11.569-.02-.018-.057.018-.077 0-.7-.475-1.323-.902-2.006-1.31-.02-.019-.057.017-.077 0-.683-.41-1.34-.82-2.005-1.158a22.798 22.798 0 0 0-3.856-1.542c-.597-.179-1.199-.36-1.774-.463h-.077a11.828 11.828 0 0 0-1.697-.155c-.91-.022-1.836-.04-2.7 0z"/><g clip-path="url(#aF)" transform="matrix(2.468 0 0 2.468 -1412.176 1180.233)"><g color="#000"><path fill="#ff4b00" d="M638.6-234.7c-18.09 1.711-31.23 15.5-46.43 23.91-10.67 6.76-25.12 11.23-29.34 24.51-2.904 11.22 1.711 22.62 1.209 33.98.6 11.99-2.504 25.09 3.232 36.22 7.132 11.1 21.24 13.22 32.92 16.88 17.43 4.718 35.93 4.182 52.9 10.84 13.25 4.313 28.82 9.978 41.77 1.756 8.961-6.748 18.63-14.73 21.58-26.05 3.46-16.69-5.925-32.37-12.55-47.07-9.137-17.4-18.64-34.62-28.41-51.67-7.819-12.78-21.09-24-36.87-23.31zm22.8 38.73c12.12 23.09 26.65 45.2 35.06 70.01 3.678 9.076-5.289 14.55-11.61 19.73-7.762 5.408-16.3 1.291-24.44-.785-11.53-4.046-23.51-6.819-35.69-7.944-11.9-3.996-25.73-2.729-36.49-9.898-3.889-8.376-3.338-18.65-4.202-27.88 2.801-9.422-5.725-23.02 3.796-29.41 11.96-8.734 27.45-24.31 39.79-32.49 8.687-14.62 26.41 5.366 33.77 18.66z" filter="url(#aG)" style="block-progression:tb;text-decoration-line:none;text-indent:0;text-transform:none"/><path fill="#502d16" d="M638.5-236.1c-7.553.777-14.55 4.158-20.86 8.227-14.12 9.074-36.25 18.36-50.26 27.61-4.209 2.82-8.61 5.856-10.98 10.49-2.729 5.389-2.909 11.62-2.423 17.52.44 9.749 9.056 19.51 8.784 29.27-.04 6.705-.293 13.42.107 20.12.522 4.765 2.213 9.611 5.769 12.97 4.23 4.42 10.02 6.792 15.58 9.051 10.66 4.037 22.05 5.322 33.17 7.476 7.217 1.315 14.41 2.787 21.5 4.666 12.5 3.075 25.06 6.082 37.83 7.782 5.28.679 10.67.806 15.91-.237 6.159-1.12 12.02-3.625 17.3-6.97 2.356-1.642 4.621-3.428 6.536-5.582 2.783-2.967 4.877-6.63 5.902-10.57.684-2.954.952-6.012.537-9.025-.764-6.2-3.07-12.06-5.288-17.85-1.665-4.02-3.292-8.06-5.25-11.95-4.264-8.62-9.489-16.71-14.69-24.79-5.658-8.753-11.3-17.58-15.48-27.16-3.088-6.818-5.829-13.8-9.379-20.4-2.584-5.121-6.256-9.727-10.91-13.11-4.336-3.248-9.385-5.555-14.67-6.746-2.865-.661-5.816-.876-8.75-.782zm4.916 9.596c4.374.62 11.54 6.667 14.79 9.581 2.943 2.655 6.03 6.053 8.387 9.23 4.36 6.077 7.595 12.98 11.51 19.34 3.485 5.833 3.262 12.78 6.901 18.52 4.508 7.298 9.192 14.58 12.15 22.68 1.967 5.163 9.32 11.64 10.88 16.93 1.82 6.223-2.411 11.35-1.302 17.75.421 2.096.837 4.357-.111 6.382-.8 2.054-2.257 3.742-3.86 5.221-2.126 1.978-4.511 3.71-7.096 5.041-2.275 1.165-4.76 2.02-7.346 1.942-4.844.055-9.633-.814-14.45-1.184-8.518-.684-17.1-.986-25.49-2.723-9.968-1.817-19.73-4.562-29.61-6.782-8.02-1.957-16.17-3.461-23.97-6.223-6.19-2.246-6.932-5.923-11.2-11.03-2.081-2.398-2.017-5.806-1.74-8.784.77-11.37-10.04-22.27-9.816-33.68.162-5.414-.516-10.91.682-16.25.63-2.414 2.819-3.991 4.86-5.202 6.874-4.151 21.92-8.275 28.54-12.82 6.05-3.946 11.65-8.515 17.38-12.9 4.334-3.155 3.74-10.78 8.72-12.86 1.897-.717 9.17-2.314 11.21-2.195z" filter="url(#aH)" style="block-progression:tb;text-decoration-line:none;text-indent:0;text-transform:none"/><path fill="#fea" d="M71.42 331.8c-13.23 4.54-24.33 29.78-38.12 33.56-10.9 8.657-41.01 7.806-49.47 19.24-4.012 28.5-2.303 66.98 2.721 84.02 8.668 7.283 30.06 18.14 43.01 11.9-35.89-11.05-27.73-25.85-24.01-37.47 4.017-14.76-2.721-35.68-3.594-43.38 2.475-16.8 18.85-11.48 31.06-14.72 23.96-6.357 25.7-39.72 46.75-42.28 15.49-1.887 24.5 20.12 34.84 30.66 6.957 8.727 9.876 19.84 16.38 28.91-6.789-43.75-32.8-69.91-59.58-70.43z" filter="url(#aI)" style="block-progression:tb;text-decoration-line:none;text-indent:0;text-transform:none" transform="translate(586.4 -464.4) scale(.7293)"/></g><path fill="#d43900" d="M621.3-161.6c-4.445 1.548-7.847 5.263-9.747 9.488-1.754 3.733-2.887 7.774-3.106 11.9-.275 4.813 1.179 9.766 4.349 13.45 3.058 3.559 7.269 5.784 11.08 8.418 6.115 4.134 12.43 7.975 18.95 11.44 5.399 2.78 11.06 5.377 17.16 6.086 5.534.742 11.22-.932 15.76-4.108 6.343-4.194 10.9-11.12 11.9-18.69.547-4.005.061-8.448-2.555-11.69-1.958-2.363-5.003-3.559-8.022-3.668-4.684-.04-9.435-.04-14.01-1.192a71.102 71.102 0 0 1-14.13-4.367c-2.403-1.119-4.785-2.287-6.988-3.772-3.867-2.547-7.331-5.646-10.99-8.476-2.319-1.779-4.75-3.508-7.506-4.533-.686-.233-1.408-.41-2.136-.295z" filter="url(#aJ)" opacity=".612"/><path fill="none" stroke="url(#aL)" stroke-width="3.647" d="M643-214.5a12.57 12.57 0 0 0-4.625 1.094c-.273.122-.519.236-.781.375-.008.007-.023-.007-.032 0-2.352 1.255-4.317 3.182-6.375 5.281-.23.234-.451.503-.687.781-.007.007.007.025 0 .032-.232.271-.48.536-.719.843-.007.007.007.025 0 .032-3.414 4.395-7.619 12.16-13.28 16.25-6.479 4.68-22.89 4.248-27.06 9.719-4.104 5.473.136 13.41.063 28.09 0 6.265-1.061 11-1.781 14.81-.054.238-.074.458-.125.687-.007.023-.027.04-.032.063-.018.082-.013.17-.031.25v.031c0 .013-.028.019-.031.032v.031c0 .013-.029.02-.032.032v.094c-.007.022-.025.04-.031.062-.011.051-.02.106-.032.157-.01.04-.02.085-.031.125 0 .011-.028.02-.031.031v.063c-.01.04-.023.085-.032.125v.031c-.007.022-.025.041-.031.063v.063c0 .011-.029.02-.032.031v.032c-.047.188-.081.35-.125.53-.008.034-.023.062-.031.095-.086.358-.18.733-.25 1.063v.031c-.418 1.887-.551 3.262-.25 4.5v.031c.045.18.124.358.188.532.027.076.03.174.062.25.032.074.059.144.094.218.007.012.025.02.031.032.007.008-.007.022 0 .031.007.008-.007.023 0 .031 0 .007.03-.007.032 0 .007.008-.007.024 0 .032.007.012.025.019.031.031.013.03.018.065.032.094.007.013.026.018.03.031.008.008-.006.024 0 .032.008.013.027.018.032.031.01.021.022.041.032.063.007.008-.007.022 0 .031.009.022.022.041.031.063.007.012.024.019.032.031v.032c.007.008-.007.022 0 .031h.03v.032c.008.009-.006.022 0 .031.008.022.025.04.032.063.007.009-.007.022 0 .031h.032c.007.008-.007.023 0 .031.007.01-.007.023 0 .032.007.012.025.019.031.031.007.008-.007.024 0 .032.007.009-.007.022 0 .031.007.013.026.018.032.031v.032c.007.013.025.018.03.031.008.008-.006.024 0 .032.008.009-.006.022 0 .031.008.013.027.02.032.032.007.008-.007.021 0 .03.018.043.043.084.063.126.009.021.022.042.031.063.05.114.103.23.157.343.014.03.016.065.031.094.11.224.213.432.344.656 3.672 6.121 9.575 7.664 43.34 14.72 18.07 3.744 35.15 13.44 46.59 14.37 11.45.865 13.89-2.932 20.87-9.125 6.912-6.192 9.153-4.267 8.937-17.87-.19-11.85-6.898-16.4-15.19-27.84-.592-.823-1.202-1.66-1.812-2.562-.399-.596-.809-1.238-1.22-1.875-.033-.05-.06-.104-.093-.156-.172-.273-.29-.466-.469-.75-2.466-3.906-4.424-6.996-6.062-9.625-1.638-2.629-2.964-4.797-4.188-6.78-1.224-1.986-2.338-3.81-3.562-5.782a932.44 932.44 0 0 0-4.188-6.688c-.819-1.278-1.754-2.669-2.75-4.156a214.697 214.697 0 0 0-3.188-4.656 173.825 173.825 0 0 0-3.53-4.812 139.934 139.934 0 0 0-1.813-2.344 101.691 101.691 0 0 0-3.75-4.437 68.919 68.919 0 0 0-1.875-2.03c-1.848-1.912-3.648-3.534-5.344-4.688-.008-.007-.023.007-.031 0-.284-.193-.536-.366-.813-.531-.008-.007-.023.007-.031 0-.277-.166-.543-.332-.813-.469a9.26 9.26 0 0 0-1.562-.625c-.242-.072-.485-.146-.719-.187h-.03a4.79 4.79 0 0 0-.689-.063 15.96 15.96 0 0 0-1.094 0z" filter="url(#aK)"/></g></svg>