<?xml version="1.0" encoding="UTF-8" standalone="no"?>
<svg
   xmlns:dc="http://purl.org/dc/elements/1.1/"
   xmlns:cc="http://creativecommons.org/ns#"
   xmlns:rdf="http://www.w3.org/1999/02/22-rdf-syntax-ns#"
   xmlns:svg="http://www.w3.org/2000/svg"
   xmlns="http://www.w3.org/2000/svg"
   xmlns:sodipodi="http://sodipodi.sourceforge.net/DTD/sodipodi-0.dtd"
   xmlns:inkscape="http://www.inkscape.org/namespaces/inkscape"
   version="1.1"
   width="120.60429"
   height="36.401367"
   id="svg2"
   sodipodi:docname="unix.svg"
   inkscape:version="1.0.1 (c497b03c, 2020-09-10)">
  <metadata
     id="metadata864">
    <rdf:RDF>
      <cc:Work
         rdf:about="">
        <dc:format>image/svg+xml</dc:format>
        <dc:type
           rdf:resource="http://purl.org/dc/dcmitype/StillImage" />
        <dc:title></dc:title>
      </cc:Work>
    </rdf:RDF>
  </metadata>
  <defs
     id="defs862" />
  <sodipodi:namedview
     pagecolor="#ffffff"
     bordercolor="#666666"
     borderopacity="1"
     objecttolerance="10"
     gridtolerance="10"
     guidetolerance="10"
     inkscape:pageopacity="0"
     inkscape:pageshadow="2"
     inkscape:window-width="1440"
     inkscape:window-height="900"
     id="namedview860"
     showgrid="false"
     fit-margin-top="0"
     fit-margin-left="0"
     fit-margin-right="0"
     fit-margin-bottom="0"
     inkscape:zoom="5.8278689"
     inkscape:cx="60.069336"
     inkscape:cy="24.791016"
     inkscape:window-x="0"
     inkscape:window-y="0"
     inkscape:window-maximized="0"
     inkscape:current-layer="svg2" />
  <g
     style="font-family:ArialMT;fill:#1d6434"
     aria-label="UNIX"
     id="g12"
     transform="translate(-0.93066406,-0.20898437)">
    <path
       d="m 24.34375,0.20898437 h 4.736328 V 20.887695 q 0,5.395508 -1.220703,8.569336 -1.220703,3.173828 -4.418945,5.175782 -3.173828,1.977539 -8.34961,1.977539 -5.029297,0 -8.2275387,-1.733399 Q 3.6650391,33.143555 2.2978516,29.87207 0.93066406,26.576172 0.93066406,20.887695 V 0.20898437 H 5.6669922 V 20.863281 q 0,4.663086 0.8544922,6.884766 0.8789062,2.197266 2.9785156,3.393555 2.124023,1.196289 5.175781,1.196289 5.22461,0 7.446289,-2.368164 2.22168,-2.368164 2.22168,-9.106446 z"
       id="path4" />
    <path
       d="M 36.916992,36 V 0.20898437 h 4.858399 L 60.574219,28.30957 V 0.20898437 h 4.541015 V 36 H 60.256836 L 41.458008,7.875 V 36 Z"
       id="path6" />
    <path
       d="M 73.879883,36 V 0.20898437 h 4.736328 V 36 Z"
       id="path8" />
    <path
       d="M 83.328125,36 97.170898,17.347656 84.963867,0.20898437 h 5.639649 l 6.49414,9.17968753 q 2.026367,2.8564451 2.88086,4.3945311 1.196284,-1.953125 2.832034,-4.0771483 l 7.20215,-9.49707033 h 5.15136 L 102.59082,17.079102 116.14062,36 h -5.85937 l -9.00879,-12.768555 q -0.75684,-1.098632 -1.562499,-2.392578 -1.196289,1.953125 -1.708984,2.685547 L 89.016602,36 Z"
       id="path10" />
  </g>
  <path
     d="m 117.02574,3.4197164 q 0.90175,0 1.7608,0.4651172 0.85904,0.4603711 1.33839,1.3241602 0.47936,0.859043 0.47936,1.7940235 0,0.9254883 -0.47461,1.7797852 -0.46986,0.8542969 -1.32416,1.3289065 -0.84955,0.469863 -1.77978,0.469863 -0.93024,0 -1.78454,-0.469863 -0.84955,-0.4746096 -1.32416,-1.3289065 -0.47461,-0.8542969 -0.47461,-1.7797852 0,-0.9349805 0.47936,-1.7940235 0.4841,-0.8637891 1.34314,-1.3241602 0.85905,-0.4651172 1.76081,-0.4651172 z m 0,0.5932617 q -0.75463,0 -1.47129,0.3891797 -0.71192,0.3844336 -1.11534,1.1058399 -0.40341,0.7166602 -0.40341,1.4950196 0,0.7736133 0.39392,1.4855274 0.39867,0.7071679 1.11059,1.1058398 0.71191,0.3939261 1.48553,0.3939261 0.77361,0 1.48552,-0.3939261 0.71192,-0.3986719 1.10584,-1.1058398 0.39393,-0.7119141 0.39393,-1.4855274 0,-0.7783594 -0.40342,-1.4950196 -0.39867,-0.7214063 -1.11533,-1.1058399 -0.71666,-0.3891797 -1.46654,-0.3891797 z m -1.57096,4.9691603 V 5.1283102 h 1.32416 q 0.67869,0 0.98244,0.1091601 0.30375,0.1044141 0.4841,0.3701954 0.18035,0.2657812 0.18035,0.5647851 0,0.4224024 -0.30375,0.7356446 -0.299,0.3132422 -0.79734,0.3512109 0.20408,0.08543 0.32748,0.2040821 0.23256,0.2278125 0.56953,0.7641211 l 0.46986,0.7546289 h -0.75937 l -0.34172,-0.6075 Q 117.1871,7.6579782 116.94031,7.4776267 116.76945,7.344736 116.44197,7.344736 h -0.36545 v 1.6374024 z m 0.62174,-2.1689649 h 0.75463 q 0.54105,0 0.73564,-0.1613672 0.19934,-0.1613672 0.19934,-0.4271484 0,-0.1708594 -0.0949,-0.30375 -0.0949,-0.1376368 -0.26578,-0.2040821 -0.16611,-0.066445 -0.62174,-0.066445 h -0.70716 z"
     style="fill:#1d6434"
     aria-label="®"
     id="path14" />
</svg>
