<?xml version="1.0" encoding="UTF-8" standalone="no"?>
<svg
   xmlns:dc="http://purl.org/dc/elements/1.1/"
   xmlns:cc="http://creativecommons.org/ns#"
   xmlns:rdf="http://www.w3.org/1999/02/22-rdf-syntax-ns#"
   xmlns:svg="http://www.w3.org/2000/svg"
   xmlns="http://www.w3.org/2000/svg"
   xmlns:sodipodi="http://sodipodi.sourceforge.net/DTD/sodipodi-0.dtd"
   xmlns:inkscape="http://www.inkscape.org/namespaces/inkscape"
   viewBox="0 0 340 300"
   fill="%23fff"
   version="1.1"
   id="svg16"
   sodipodi:docname="widgetbot.svg"
   inkscape:version="1.0.2 (e86c8708, 2021-01-15)">
  <metadata
     id="metadata22">
    <rdf:RDF>
      <cc:Work
         rdf:about="">
        <dc:format>image/svg+xml</dc:format>
        <dc:type
           rdf:resource="http://purl.org/dc/dcmitype/StillImage" />
      </cc:Work>
    </rdf:RDF>
  </metadata>
  <defs
     id="defs20" />
  <sodipodi:namedview
     pagecolor="#ffffff"
     bordercolor="#666666"
     borderopacity="1"
     objecttolerance="10"
     gridtolerance="10"
     guidetolerance="10"
     inkscape:pageopacity="0"
     inkscape:pageshadow="2"
     inkscape:window-width="1440"
     inkscape:window-height="900"
     id="namedview18"
     showgrid="false"
     inkscape:zoom="1.9533333"
     inkscape:cx="170"
     inkscape:cy="150"
     inkscape:window-x="0"
     inkscape:window-y="0"
     inkscape:window-maximized="0"
     inkscape:current-layer="svg16" />
  <path
     d="m318.43 4.0335h-292.85c-12.191 0-22.074 10.53-22.074 23.519v197.56c0 12.989 9.8834 23.519 22.074 23.519h97.2l32.333 40.956c4.1941 5.3129 10.377 8.3806 16.893 8.3806 6.5163 0 12.699-3.0669 16.893-8.3798l32.333-40.956h97.199c12.192 0 22.074-10.53 22.074-23.519v-197.56c0-12.989-9.8826-23.52-22.074-23.52zm0 221.08h-107.48l-38.949 49.336-38.948-49.336h-107.48v-197.56h292.85v197.56z"
     id="path10"
     style="fill:#2a54a9;fill-opacity:1" />
  <path
     d="m66.339 94.554h100.81c6.0954 0 11.037-5.2651 11.037-11.759s-4.9417-11.759-11.037-11.759h-100.81c-6.0954 0-11.037 5.2651-11.037 11.759s4.9417 11.759 11.037 11.759z"
     id="path12"
     style="fill:#2a54a9;fill-opacity:1" />
  <path
     d="m55.742 154.92c0 6.4943 4.9417 11.759 11.037 11.759h210.44c6.0954 0 11.037-5.2651 11.037-11.759s-4.9417-11.759-11.037-11.759h-210.44c-6.0954 0-11.037 5.2651-11.037 11.759z"
     id="path14"
     style="fill:#2a54a9;fill-opacity:1" />
</svg>
