<svg xmlns="http://www.w3.org/2000/svg" width="25.568" height="16.064" viewBox="0 0 6.765 4.25">
  <g style="line-height:1.25">
    <path fill="#ff4655" stroke-width=".265" d="M.483 0C.319 0 .199.046.119.137A.46.46 0 000 .448C0 .516.02.632.06.796c.045.158.119.386.22.685.108.294.25.666.424 1.118.181.451.41 1.003.686 1.652h.998c.045-.119.104-.292.178-.518l.238-.754c.09-.27.177-.545.262-.828l.246-.789c.073.237.152.501.236.79.09.282.181.557.272.827.09.271.172.523.246.754.079.226.14.4.185.518h.998c.142-.322.292-.681.45-1.076.158-.401.308-.79.449-1.168.14-.384.268-.74.38-1.067.114-.327.192-.585.237-.771a1.244 1.244 0 00-.16-.092.797.797 0 00-.373-.076c-.17 0-.296.042-.381.127-.08.079-.143.206-.193.38-.13.464-.276.927-.434 1.39-.152.462-.3.887-.447 1.277a65.967 65.967 0 01-.229-.66 157.531 157.531 0 01-.5-1.6C3.963.633 3.884.365 3.811.11a1.617 1.617 0 00-.17-.058A.862.862 0 003.336 0c-.18 0-.313.038-.398.117a.736.736 0 00-.186.33A36.11 36.11 0 012.32 1.88a51.56 51.56 0 01-.22.693c-.068.226-.133.427-.195.602a38.42 38.42 0 00-.237-.668c-.084-.254-.173-.52-.263-.797A32.917 32.917 0 01.915.085.95.95 0 00.482 0z" aria-label="w"/>
  </g>
</svg>
