<svg xmlns="http://www.w3.org/2000/svg" width="172.122" height="30.304" viewBox="0 0 45.54 8.018">
  <g style="line-height:1.25">
    <path d="M24.282 0c-.164 0-.291.036-.381.11-.09.073-.137.187-.137.34v5.79h.965V3.964c0-.367.097-.66.289-.88.197-.226.487-.34.871-.34.378 0 .644.097.797.289.158.192.236.473.236.845v2.364h.965V3.59c0-.289-.042-.54-.127-.755a1.38 1.38 0 00-.363-.533 1.539 1.539 0 00-.569-.33 2.184 2.184 0 00-.71-.11c-.362 0-.656.06-.881.178a1.653 1.653 0 00-.508.381V.092a1.746 1.746 0 00-.168-.05.88.88 0 00-.28-.042zM9.469 1.871a2.5 2.5 0 00-.922.17A2.228 2.228 0 007.32 3.225c-.119.27-.178.569-.178.89 0 .317.06.613.178.89.118.27.283.507.492.71.209.198.454.356.736.475.288.113.595.168.922.168.327 0 .632-.055.914-.168.288-.119.537-.277.746-.475.21-.203.372-.44.49-.71.119-.277.178-.573.178-.89a2.201 2.201 0 00-.668-1.601 2.214 2.214 0 00-.746-.473 2.438 2.438 0 00-.914-.17zm12.205 0c-.327 0-.636.051-.924.153-.282.096-.527.24-.736.431a2.002 2.002 0 00-.49.711 2.471 2.471 0 00-.178.965c0 .361.06.68.178.957.124.277.289.511.498.703.209.187.452.328.728.424.277.096.573.143.889.143a3.13 3.13 0 00.975-.143c.13-.045.242-.091.338-.137.101-.05.186-.097.253-.142l-.406-.72a3.31 3.31 0 01-.355.177c-.17.073-.396.111-.678.111-.198 0-.38-.027-.549-.078a1.306 1.306 0 01-.45-.254 1.15 1.15 0 01-.304-.431 1.638 1.638 0 01-.111-.635c0-.237.034-.44.101-.61a1.26 1.26 0 01.29-.431c.124-.119.267-.205.431-.262.17-.056.35-.086.541-.086.282 0 .52.047.711.137.192.085.34.174.442.27.067-.051.137-.123.21-.22a.487.487 0 00.12-.314.454.454 0 00-.084-.254.672.672 0 00-.264-.228 1.757 1.757 0 00-.475-.17 3.114 3.114 0 00-.7-.066zm9.324 0c-.333 0-.64.057-.921.17-.277.108-.52.262-.729.465a2.147 2.147 0 00-.482.719c-.113.277-.17.585-.17.924 0 .355.059.67.177.947.119.271.28.503.483.695.209.187.45.328.72.424.277.096.573.143.89.143a3.86 3.86 0 001.117-.168c.146-.045.269-.094.365-.145.096-.05.165-.09.21-.119l-.355-.678a6.25 6.25 0 01-.16.077 1.964 1.964 0 01-.254.101 2.146 2.146 0 01-.738.12c-.435 0-.77-.087-1.006-.262a1.075 1.075 0 01-.416-.704l.314.018h.32c.486 0 .888-.032 1.204-.094.316-.067.567-.158.754-.271a1 1 0 00.388-.414c.074-.164.11-.346.11-.543a1.202 1.202 0 00-.473-.98 1.655 1.655 0 00-.568-.305 2.356 2.356 0 00-.78-.12zm4.403 0c-.266 0-.51.036-.737.11a1.74 1.74 0 00-.593.305 1.453 1.453 0 00-.389.507c-.096.204-.145.44-.145.711v2.737h.965V3.836c0-.39.091-.67.272-.84.18-.169.417-.253.71-.253a.99.99 0 01.72.279c.197.186.296.488.296.906v2.313h.965V3.928c0-.418.097-.72.29-.906.197-.186.44-.28.728-.28.299 0 .536.085.71.254.176.164.262.441.262.83v2.415h.965V3.496c0-.27-.046-.507-.142-.71a1.458 1.458 0 00-.39-.508 1.645 1.645 0 00-.585-.305 2.526 2.526 0 00-.728-.102c-.345 0-.651.066-.922.196s-.489.32-.653.574a1.552 1.552 0 00-.66-.574 2.185 2.185 0 00-.94-.196zm-34.918.12c-.164 0-.284.044-.364.134A.46.46 0 000 2.438c0 .068.02.184.059.348.045.158.119.386.22.685.108.294.25.666.424 1.117.181.452.41 1.003.686 1.653h.998c.045-.119.104-.292.178-.518l.238-.754c.09-.27.177-.546.262-.828.09-.288.173-.552.246-.79.073.238.152.502.236.79.09.282.181.557.272.828.09.271.172.523.246.754.079.226.14.4.185.518h.998c.142-.322.292-.681.45-1.077.158-.4.308-.79.449-1.168.14-.383.268-.739.38-1.066.114-.327.192-.585.237-.771a1.244 1.244 0 00-.16-.092.797.797 0 00-.373-.076c-.17 0-.296.042-.381.127-.08.079-.143.205-.193.38-.13.463-.276.926-.434 1.389-.152.463-.3.888-.447 1.277a65.967 65.967 0 01-.229-.66 157.531 157.531 0 01-.5-1.6c-.084-.282-.163-.55-.236-.804a1.617 1.617 0 00-.17-.059.862.862 0 00-.305-.05c-.18 0-.313.038-.398.117a.736.736 0 00-.186.33A36.11 36.11 0 012.32 3.87a51.56 51.56 0 01-.22.693c-.068.226-.133.426-.195.601a38.42 38.42 0 00-.237-.668c-.084-.254-.173-.52-.263-.796a32.917 32.917 0 01-.49-1.625.95.95 0 00-.432-.084zm12.187 0c-.163 0-.286.044-.365.134a.458.458 0 00-.117.313c0 .068.019.184.058.348.046.158.12.386.221.685.107.294.249.666.424 1.117.18.452.409 1.003.686 1.653h.998c.045-.119.104-.292.177-.518l.239-.754c.09-.27.177-.546.261-.828.09-.288.173-.552.246-.79.074.238.152.502.237.79.09.282.18.557.271.828.09.271.173.523.246.754.08.226.14.4.186.518h.998c.141-.322.291-.681.45-1.077.157-.4.307-.79.448-1.168.141-.383.268-.739.381-1.066.113-.327.191-.585.237-.771a1.244 1.244 0 00-.16-.092.797.797 0 00-.374-.076c-.169 0-.296.042-.38.127-.08.079-.145.205-.196.38-.13.463-.273.926-.432 1.389-.152.463-.3.888-.447 1.277a65.941 65.941 0 01-.228-.66 157.531 157.531 0 01-.5-1.6c-.085-.282-.165-.55-.239-.804a1.52 1.52 0 00-.168-.059.862.862 0 00-.304-.05c-.18 0-.314.038-.399.117a.736.736 0 00-.185.33 36.11 36.11 0 01-.432 1.432 51.56 51.56 0 01-.22.693c-.068.226-.134.426-.196.601a38.42 38.42 0 00-.236-.668c-.085-.254-.174-.52-.264-.796a32.917 32.917 0 01-.49-1.625.95.95 0 00-.432-.084zm29.246 0a.576.576 0 00-.373.109c-.09.073-.134.185-.134.338v2.1c0 .276.044.521.134.736.096.214.227.396.39.543.165.14.361.25.593.33.231.073.483.11.754.11.288 0 .55-.047.787-.143.242-.102.42-.235.533-.399 0 .294-.034.537-.102.729a1.088 1.088 0 01-.279.472.94.94 0 01-.44.246c-.174.051-.373.077-.593.077-.17 0-.33-.008-.483-.026a3.382 3.382 0 01-.396-.068 2.398 2.398 0 01-.492-.143l-.12.356c-.039.124-.081.244-.126.363.04.017.109.04.205.068.096.034.216.068.363.102.152.034.324.061.516.084.192.028.403.043.634.043.34 0 .648-.042.924-.127.277-.079.514-.208.711-.389.198-.18.35-.413.457-.695.107-.277.162-.615.162-1.016V2.082a1.72 1.72 0 00-.177-.05.892.892 0 00-.282-.041.57.57 0 00-.37.109c-.091.073-.137.186-.137.338V4.25c0 .39-.098.686-.295.89-.198.197-.47.296-.815.296-.372 0-.647-.1-.828-.297-.175-.197-.264-.462-.264-.795V2.082a1.72 1.72 0 00-.177-.05.88.88 0 00-.28-.041zm-10.933.625c.254 0 .465.052.635.16.175.107.261.27.261.484a.61.61 0 01-.05.244.475.475 0 01-.211.213 1.533 1.533 0 01-.45.152c-.192.04-.443.06-.754.06h-.355c-.119 0-.241-.003-.371-.009a1.35 1.35 0 01.346-.898 1.17 1.17 0 01.398-.297c.158-.074.342-.11.55-.11zm-21.514.101c.192 0 .37.038.533.111.164.068.303.163.416.288.119.124.208.274.27.449.068.17.101.353.101.55 0 .198-.033.38-.101.55a1.367 1.367 0 01-.27.44 1.242 1.242 0 01-.416.298 1.381 1.381 0 01-.533.101c-.197 0-.377-.034-.54-.101a1.366 1.366 0 01-.417-.297 1.597 1.597 0 01-.27-.442 1.578 1.578 0 01-.093-.548c0-.198.031-.382.094-.551.067-.175.156-.325.27-.45.118-.124.257-.219.415-.287.164-.073.344-.11.541-.11z" fill="#ff4655" stroke-width=".265" aria-label="wowchemy"/>
  </g>
</svg>
