<?xml version="1.0" encoding="iso-8859-1"?>
<!-- Generator: Adobe Illustrator 19.0.0, SVG Export Plug-In . SVG Version: 6.00 Build 0)  -->
<svg version="1.1" id="Capa_1" xmlns="http://www.w3.org/2000/svg" xmlns:xlink="http://www.w3.org/1999/xlink" x="0px" y="0px"
	 viewBox="0 0 512 512" style="enable-background:new 0 0 512 512;" xml:space="preserve">
<circle style="fill:#445EA0;" cx="256" cy="267" r="245"/>
<path style="fill:#C3DDF4;" d="M49,51.5V306c0,2.75,2.25,5,5,5h85.095c-6.345-15.082-9.857-31.639-9.857-49
	c0-69.898,56.865-126.763,126.762-126.763S382.762,192.102,382.762,262c0,17.361-3.512,33.918-9.857,49H458c2.75,0,5-2.25,5-5V51.5
	H49z"/>
<path style="fill:#AEC1ED;" d="M68.842,306V51.5H49V306c0,2.75,2.25,5,5,5h19.842C71.092,311,68.842,308.75,68.842,306z"/>
<path style="fill:#FFFFFF;" d="M256,389.763c-70.449,0-127.762-57.314-127.762-127.763S185.551,134.237,256,134.237
	S383.762,191.552,383.762,262S326.449,389.763,256,389.763z"/>
<path style="fill:#293D7C;" d="M453,0H59c-5.5,0-10,4.5-10,10v42.5h414V10C463,4.5,458.5,0,453,0z"/>
<g>
	<path style="fill:#1A2B63;" d="M78.842,0H59c-5.5,0-10,4.5-10,10v42.5h19.842V10C68.842,4.5,73.342,0,78.842,0z"/>
	<path style="fill:#1A2B63;" d="M453,0h-75.169v52.5H463V10C463,4.5,458.5,0,453,0z"/>
</g>
<circle style="fill:#37C47A;" cx="256" cy="261.94" r="101.65"/>
<path style="fill:#02AF8E;" d="M174.188,261.944c0-52.796,40.248-96.185,91.732-101.173c-3.265-0.316-6.574-0.482-9.921-0.482
	c-56.141,0-101.653,45.512-101.653,101.655c0,56.144,45.513,101.654,101.653,101.654c3.348,0,6.657-0.167,9.921-0.483
	C214.436,358.129,174.188,314.74,174.188,261.944z"/>
<path style="fill:#0F9390;" d="M365.154,261.944c0-60.188-48.967-109.155-109.155-109.155s-109.153,48.967-109.153,109.155
	c0,59.732,48.229,108.403,107.791,109.137c0.442,0.081,0.896,0.13,1.362,0.13s0.92-0.049,1.362-0.13
	C316.924,370.348,365.154,321.676,365.154,261.944z M162.145,269.444h34.903c0.475,13.526,2.225,26.308,5.04,37.945
	c-8.745,2.025-16.79,4.55-23.882,7.532C169.215,301.762,163.473,286.215,162.145,269.444z M178.206,208.965
	c7.092,2.982,15.137,5.509,23.881,7.533c-2.815,11.639-4.565,24.42-5.04,37.946h-34.903
	C163.473,237.673,169.215,222.126,178.206,208.965z M349.855,254.444h-34.903c-0.475-13.526-2.225-26.308-5.04-37.946
	c8.744-2.024,16.789-4.551,23.881-7.533C342.785,222.125,348.527,237.673,349.855,254.444z M299.936,254.444h-36.437v-32.3
	c11.012-0.302,21.693-1.264,31.738-2.828C297.8,229.778,299.463,241.581,299.936,254.444z M263.499,207.137v-37.803
	c10.347,4.172,20.371,16.725,27.305,35.45C282.103,206.055,272.904,206.856,263.499,207.137z M248.499,169.333v37.804
	c-9.404-0.28-18.604-1.082-27.304-2.353C228.129,186.057,238.152,173.505,248.499,169.333z M248.499,222.145v32.3h-36.435
	c0.473-12.863,2.135-24.666,4.699-35.128C226.807,220.881,237.488,221.843,248.499,222.145z M212.064,269.444h36.435v32.3
	c-11.012,0.302-21.692,1.264-31.736,2.828C214.199,294.109,212.537,282.308,212.064,269.444z M248.499,316.752v37.803
	c-10.347-4.172-20.37-16.724-27.304-35.45C229.895,317.834,239.095,317.032,248.499,316.752z M263.499,354.554v-37.802
	c9.405,0.28,18.604,1.082,27.305,2.352C283.87,337.83,273.846,350.381,263.499,354.554z M263.499,301.744v-32.3h36.437
	c-0.473,12.863-2.136,24.665-4.699,35.128C285.192,303.008,274.511,302.046,263.499,301.744z M314.953,269.444h34.903
	c-1.328,16.771-7.07,32.317-16.062,45.478c-7.091-2.982-15.137-5.508-23.882-7.532C312.728,295.752,314.478,282.971,314.953,269.444
	z M323.87,196.754c-5.503,2.038-11.627,3.811-18.204,5.294c-3.641-10.417-8.222-19.559-13.54-27.048
	C304.172,180.024,314.959,187.48,323.87,196.754z M219.872,175.001c-5.318,7.489-9.898,16.63-13.539,27.046
	c-6.576-1.482-12.7-3.256-18.203-5.293C197.04,187.48,207.826,180.025,219.872,175.001z M188.128,327.133
	c5.503-2.037,11.628-3.811,18.205-5.293c3.641,10.417,8.221,19.559,13.539,27.047C207.826,343.863,197.039,336.407,188.128,327.133z
	 M292.125,348.888c5.319-7.489,9.899-16.631,13.541-27.048c6.577,1.482,12.701,3.256,18.204,5.294
	C314.96,336.407,304.172,343.863,292.125,348.888z"/>
<g>
	<path style="fill:#1E99D6;" d="M169.705,467.11c-3.101,0-5.89-1.911-7.003-4.817l-16.961-44.277
		c-1.481-3.868,0.453-8.205,4.321-9.686c3.869-1.479,8.205,0.454,9.687,4.321l9.468,24.716l5.109-15.323
		c1.021-3.063,3.887-5.128,7.115-5.128l0,0c3.228,0,6.094,2.065,7.115,5.128l5.108,15.323l9.468-24.716
		c1.482-3.868,5.819-5.801,9.687-4.321c3.868,1.482,5.802,5.819,4.321,9.686l-16.962,44.277c-1.133,2.959-3.994,4.888-7.169,4.815
		c-3.167-0.069-5.948-2.121-6.95-5.126l-4.619-13.854l-4.619,13.854c-1.001,3.005-3.783,5.057-6.95,5.126
		C169.816,467.109,169.76,467.11,169.705,467.11z"/>
	<path style="fill:#1E99D6;" d="M244.265,467.11c-3.101,0-5.89-1.911-7.003-4.817l-16.961-44.277
		c-1.481-3.868,0.453-8.205,4.321-9.686c3.868-1.479,8.205,0.454,9.687,4.321l9.468,24.716l5.109-15.323
		c1.021-3.063,3.887-5.128,7.115-5.128l0,0c3.228,0,6.094,2.065,7.115,5.128l5.108,15.323l9.468-24.716
		c1.482-3.868,5.82-5.801,9.687-4.321c3.868,1.482,5.802,5.819,4.321,9.686l-16.962,44.277c-1.133,2.959-3.988,4.888-7.169,4.815
		c-3.167-0.069-5.948-2.121-6.95-5.126L256,448.128l-4.619,13.854c-1.001,3.005-3.783,5.057-6.95,5.126
		C244.376,467.109,244.32,467.11,244.265,467.11z"/>
	<path style="fill:#1E99D6;" d="M318.824,467.11c-3.101,0-5.89-1.911-7.003-4.817l-16.961-44.277
		c-1.482-3.868,0.453-8.205,4.321-9.686c3.868-1.479,8.204,0.454,9.687,4.321l9.468,24.716l5.109-15.323
		c1.021-3.063,3.887-5.128,7.115-5.128l0,0c3.228,0,6.094,2.065,7.115,5.128l5.108,15.323l9.468-24.716
		c1.482-3.868,5.819-5.801,9.687-4.321c3.868,1.482,5.802,5.819,4.321,9.686l-16.962,44.277c-1.133,2.959-3.982,4.888-7.169,4.815
		c-3.167-0.069-5.948-2.121-6.95-5.126l-4.619-13.854l-4.619,13.854c-1.001,3.005-3.783,5.057-6.95,5.126
		C318.935,467.109,318.879,467.11,318.824,467.11z"/>
</g>
<path style="fill:#E26693;" d="M82.993,32.133c-1.98,0-3.91-0.801-5.31-2.191c-1.39-1.4-2.19-3.33-2.19-5.309
	c0-1.971,0.8-3.9,2.19-5.301c1.399-1.4,3.33-2.199,5.31-2.199c1.97,0,3.91,0.799,5.299,2.199c1.4,1.4,2.201,3.33,2.201,5.301
	c0,1.979-0.8,3.908-2.201,5.309C86.903,31.332,84.962,32.133,82.993,32.133z"/>
<path style="fill:#FFCA51;" d="M107.587,32.133c-1.97,0-3.91-0.801-5.3-2.201c-1.4-1.391-2.2-3.32-2.2-5.299
	c0-1.971,0.8-3.9,2.2-5.301c1.4-1.4,3.33-2.199,5.3-2.199c1.98,0,3.909,0.799,5.31,2.199c1.39,1.4,2.19,3.33,2.19,5.301
	c0,1.969-0.8,3.908-2.19,5.299C111.497,31.332,109.567,32.133,107.587,32.133z"/>
<path style="fill:#37C47A;" d="M132.192,32.133c-1.98,0-3.91-0.801-5.299-2.191c-1.4-1.4-2.201-3.33-2.201-5.309
	c0-1.971,0.8-3.9,2.201-5.301c1.389-1.4,3.319-2.199,5.299-2.199c1.97,0,3.91,0.799,5.3,2.199c1.4,1.4,2.2,3.33,2.2,5.301
	c0,1.979-0.8,3.908-2.2,5.309C136.092,31.332,134.162,32.133,132.192,32.133z"/>
<path style="fill:#FFFFFF;" d="M373,77c0-1.65-1.35-3-3-3H142c-1.65,0-3,1.35-3,3v26c0,1.65,1.35,3,3,3h228c1.65,0,3-1.35,3-3V77z"
	/>
<path style="fill:#EEF6FF;" d="M158.842,103V77c0-1.65,1.35-3,3-3H142c-1.65,0-3,1.35-3,3v26c0,1.65,1.35,3,3,3h19.842
	C160.192,106,158.842,104.65,158.842,103z"/>
<path style="fill:#445EA0;" d="M432,32.133h-24c-4.142,0-7.5-3.357-7.5-7.5s3.358-7.5,7.5-7.5h24c4.142,0,7.5,3.357,7.5,7.5
	S436.142,32.133,432,32.133z"/>
<g>
</g>
<g>
</g>
<g>
</g>
<g>
</g>
<g>
</g>
<g>
</g>
<g>
</g>
<g>
</g>
<g>
</g>
<g>
</g>
<g>
</g>
<g>
</g>
<g>
</g>
<g>
</g>
<g>
</g>
</svg>
