<?xml version="1.0" encoding="UTF-8" standalone="no"?>
<svg
   viewBox="0 0 506.38229 491.12592"
   width="506.38229"
   height="491.12592"
   preserveAspectRatio="xMidYMid"
   version="1.1"
   id="svg248"
   sodipodi:docname="logo-halloween.svg"
   inkscape:version="1.3 (0e150ed, 2023-07-21)"
   xmlns:inkscape="http://www.inkscape.org/namespaces/inkscape"
   xmlns:sodipodi="http://sodipodi.sourceforge.net/DTD/sodipodi-0.dtd"
   xmlns="http://www.w3.org/2000/svg"
   xmlns:svg="http://www.w3.org/2000/svg">
  <sodipodi:namedview
     id="namedview248"
     pagecolor="#ffffff"
     bordercolor="#666666"
     borderopacity="1.0"
     inkscape:showpageshadow="2"
     inkscape:pageopacity="0.0"
     inkscape:pagecheckerboard="0"
     inkscape:deskcolor="#d1d1d1"
     inkscape:zoom="0.4609375"
     inkscape:cx="252.74576"
     inkscape:cy="235.38983"
     inkscape:window-width="1920"
     inkscape:window-height="1080"
     inkscape:window-x="0"
     inkscape:window-y="34"
     inkscape:window-maximized="0"
     inkscape:current-layer="svg248" />
  <defs
     id="defs6">
    <clipPath
       id="__lottie_element_631">
      <rect
         width="512"
         height="512"
         x="0"
         y="0"
         id="rect1" />
    </clipPath>
    <clipPath
       id="__lottie_element_633">
      <path
         d="M 0,0 H 512 V 512 H 0 Z"
         id="path1" />
    </clipPath>
    <radialGradient
       id="__lottie_element_644"
       spreadMethod="pad"
       gradientUnits="userSpaceOnUse"
       cx="0.097999997"
       cy="-120.956"
       r="92.662209"
       fx="0.097999997"
       fy="-120.956">
      <stop
         offset="0%"
         stop-color="rgb(255,159,72)"
         id="stop1" />
      <stop
         offset="50%"
         stop-color="rgb(255,145,36)"
         id="stop2" />
      <stop
         offset="100%"
         stop-color="rgb(255,131,0)"
         id="stop3" />
    </radialGradient>
    <clipPath
       id="__lottie_element_870">
      <path
         d="M 0,0 H 512 V 512 H 0 Z"
         id="path3" />
    </clipPath>
    <radialGradient
       id="__lottie_element_881"
       spreadMethod="pad"
       gradientUnits="userSpaceOnUse"
       cx="0.097999997"
       cy="-120.956"
       r="92.662209"
       fx="0.097999997"
       fy="-120.956">
      <stop
         offset="0%"
         stop-color="rgb(255,159,72)"
         id="stop4" />
      <stop
         offset="50%"
         stop-color="rgb(255,145,36)"
         id="stop5" />
      <stop
         offset="100%"
         stop-color="rgb(255,131,0)"
         id="stop6" />
    </radialGradient>
  </defs>
  <g
     clip-path="url(#__lottie_element_631)"
     id="g248"
     transform="translate(-1.8843198,-18.699593)">
    <g
       clip-path="url(#__lottie_element_633)"
       opacity="1"
       style="display:block"
       id="g126">
      <g
         transform="matrix(0.79014999,0,0,1.14036,147.07649,424.42966)"
         opacity="0.15"
         style="display:block"
         id="g8">
        <g
           opacity="1"
           transform="translate(218.487,37.442001)"
           id="g7">
          <path
             fill="#000000"
             fill-opacity="1"
             d="m 218.487,0 c 0,20.679001 -97.82,37.443001 -218.487,37.443001 -120.667,0 -218.48801,-16.764 -218.48801,-37.443001 0,-20.679001 97.82101,-37.443001 218.48801,-37.443001 120.667,0 218.487,16.764 218.487,37.443001 z"
             id="path6" />
          <g
             opacity="1"
             id="g6" />
        </g>
      </g>
      <g
         transform="matrix(-0.84010971,0.10677963,0.1031525,0.8696503,481.94098,166.09038)"
         opacity="1"
         style="display:block"
         id="g11">
        <g
           opacity="1"
           transform="translate(217.597,179.866)"
           id="g10">
          <path
             fill="url(#__lottie_element_644)"
             fill-opacity="1"
             d="m -2.964,-175.442 c -105.69,-0.103 -192.48501,22.56599 -213.03299,144.675999 -10.293,61.171002 9.164,113.81 27.47898,139.731001 32.84801,46.49 64.48901,78.634 188.28901,69.207 81.399998,-6.198 149.49701,-20.87599 186.3,-71.817 C 210.433,72.634003 222.547,20.235001 215.39999,-30.051001 198.668,-147.774 117.296,-175.325 -2.964,-175.442 Z"
             id="path8"
             style="fill:url(#__lottie_element_644)" />
          <g
             opacity="1"
             id="g9" />
        </g>
      </g>
      <g
         transform="matrix(-0.79810423,0.10144065,0.1031525,0.8696503,454.79086,217.43718)"
         opacity="0.33"
         style="display:block"
         id="g16">
        <g
           opacity="1"
           transform="translate(336.70801,136.411)"
           id="g12">
          <path
             stroke-linecap="round"
             stroke-linejoin="round"
             fill-opacity="0"
             stroke="#ff9f48"
             stroke-opacity="1"
             stroke-width="15"
             d="M 1.784,-118.984 C 109.576,-92.283997 93.212997,85.015999 -38.678001,144.07001"
             id="path11" />
        </g>
        <g
           opacity="1"
           transform="translate(284.53101,176.05099)"
           id="g13">
          <path
             stroke-linecap="round"
             stroke-linejoin="round"
             fill-opacity="0"
             stroke="#ff9f48"
             stroke-opacity="1"
             stroke-width="15"
             d="M 14.939,-112.291 C 64.472,-57.171001 43.289001,56.362 -21.198999,102.785"
             id="path12" />
        </g>
        <g
           opacity="1"
           transform="translate(129.48,173.767)"
           id="g14">
          <path
             stroke-linecap="round"
             stroke-linejoin="round"
             fill-opacity="0"
             stroke="#ff9f48"
             stroke-opacity="1"
             stroke-width="15"
             d="M -43.319,112.576 C -87.635002,90.834999 -102.916,47.432999 -95.637001,2.5610001 -82.834999,-76.356003 -51.035,-119.278 -2.9000001,-136.159"
             id="path13" />
        </g>
        <g
           opacity="1"
           transform="translate(87.566002,145.97099)"
           id="g15">
          <path
             stroke-linecap="round"
             stroke-linejoin="round"
             fill-opacity="0"
             stroke="#ff9f48"
             stroke-opacity="1"
             stroke-width="15"
             d="M -34.473999,136.117 C -98.647003,102.183 -119.467,30.629999 -119.43,-26.16 c 0.05,-76.365 51.498001,-145.961 134.571,-141.139"
             id="path14" />
        </g>
      </g>
      <g
         transform="matrix(-0.84010971,0.10677963,0.1031525,0.8696503,463.06451,216.38559)"
         opacity="0.33"
         style="display:block"
         id="g21">
        <g
           opacity="1"
           transform="translate(336.70801,136.411)"
           id="g17">
          <path
             stroke-linecap="round"
             stroke-linejoin="round"
             fill-opacity="0"
             stroke="#8a2c01"
             stroke-opacity="1"
             stroke-width="5"
             d="M -122.313,-106.028 C -48.332001,-162.65199 66.078003,-137.765 69.794998,-27.874001 73.068001,68.888 28.955,166.064 -146.868,166.533"
             id="path16" />
        </g>
        <g
           opacity="1"
           transform="translate(284.53101,176.05099)"
           id="g18">
          <path
             stroke-linecap="round"
             stroke-linejoin="round"
             fill-opacity="0"
             stroke="#8a2c01"
             stroke-opacity="1"
             stroke-width="5"
             d="M -69.970001,-145.327 C 116.8,-151.658 68.333,134.968 -94.189003,126.297"
             id="path17" />
        </g>
        <g
           opacity="1"
           transform="translate(129.48,173.767)"
           id="g19">
          <path
             stroke-linecap="round"
             stroke-linejoin="round"
             fill-opacity="0"
             stroke="#8a2c01"
             stroke-opacity="1"
             stroke-width="5"
             d="M 59.881001,129.321 C -147.67101,155.50101 -100.363,-168.755 85.190002,-143.069"
             id="path18" />
        </g>
        <g
           opacity="1"
           transform="translate(87.566002,145.97099)"
           id="g20">
          <path
             stroke-linecap="round"
             stroke-linejoin="round"
             fill-opacity="0"
             stroke="#8a2c01"
             stroke-opacity="1"
             stroke-width="5"
             d="M 102.681,157.04201 C -65.954002,172.549 -113.247,83.473 -118.921,-11.422 c -6.327,-111.473 93.543999,-243.44 238.902,-115.18"
             id="path19" />
        </g>
      </g>
      <g
         transform="matrix(-0.84010971,0.10677963,0.1031525,0.8696503,500.18069,141.92374)"
         opacity="1"
         style="display:block"
         id="g23">
        <g
           opacity="1"
           transform="translate(242.347,204.616)"
           id="g22">
          <path
             stroke-linecap="butt"
             stroke-linejoin="miter"
             fill-opacity="0"
             stroke-miterlimit="10"
             stroke="#8a2c01"
             stroke-opacity="1"
             stroke-width="10"
             d="m -3.878,-175.226 c -105.69,-0.10299 -192.484,22.566 -213.032,144.676001 -10.293,61.170999 9.16301,113.810001 27.47799,139.730999 32.84801,46.49001 64.48901,78.634 188.28901,69.207 81.400004,-6.198 149.497,-20.87601 186.3,-71.817 24.362,-33.721002 36.477,-86.12 29.33,-136.405999 C 197.755,-147.558 116.382,-175.10899 -3.878,-175.226 Z"
             id="path21" />
        </g>
      </g>
      <g
         transform="matrix(-0.79810423,0.10144065,0.09799487,0.82616776,491.05612,152.11484)"
         opacity="1"
         style="display:block"
         id="g25">
        <g
           opacity="1"
           transform="translate(242.347,204.616)"
           id="g24">
          <path
             stroke-linecap="round"
             stroke-linejoin="round"
             fill-opacity="0"
             stroke-dasharray="0, 46, 15"
             stroke-dashoffset="0"
             stroke="#ffffff"
             stroke-opacity="1"
             stroke-width="6"
             d="M -219.59801,9.3439999 C -218.8,33.148998 -213.758,54.396 -206.97701,71.991997"
             id="path23" />
        </g>
      </g>
      <g
         transform="matrix(-0.79534316,0.29975784,0.28957555,0.82330966,289.73776,192.21082)"
         opacity="1"
         style="display:block"
         id="g28">
        <g
           opacity="1"
           transform="translate(35.022999,44.442001)"
           id="g27">
          <path
             fill="#009245"
             fill-opacity="1"
             d="M -34.772999,28.009001 C -24.070999,11.657 -16.766001,-15.992 -16.034,-43.380001 c 9.692,-0.812 19.4010001,-0.690998 28.95,0.360001 -1.08,26.184 6.216,42.58 17.552,65.425001 -0.021,0.021 -0.087,0.037 -0.071,0.072 10.494998,23.056999 -68.321,30.883999 -65.169999,5.532 z"
             id="path25" />
          <g
             opacity="1"
             id="g26" />
        </g>
      </g>
      <g
         transform="matrix(-0.79534316,0.29975784,0.28957555,0.82330966,300.99109,167.22256)"
         opacity="1"
         style="display:block"
         id="g30">
        <g
           opacity="1"
           transform="translate(57.272999,59.653999)"
           id="g29">
          <path
             stroke-linecap="round"
             stroke-linejoin="round"
             fill-opacity="0"
             stroke="#006837"
             stroke-opacity="1"
             stroke-width="9"
             d="M -35.875999,43.735001 C -25.264,27.681999 -16.774,-8.6639996 -16.034,-36.341999 c 9.692,-0.812 19.4010001,-0.691002 28.95,0.360001 -1.08,26.1839977 7.938,45.6359983 19.273999,68.480999 -0.021,0.021 -0.039,0.051 -0.071,0.072"
             id="path28" />
        </g>
      </g>
      <g
         transform="matrix(-0.84347987,0.07295123,0.07047319,0.87313902,300.09592,241.67012)"
         opacity="1"
         style="display:block"
         id="g33">
        <g
           opacity="1"
           transform="translate(9.8149996,18.473)"
           id="g32">
          <path
             fill="#006837"
             fill-opacity="1"
             d="m -5.7740002,16.933001 c 0,0 0,0 0,0 C -9.5649996,14.86 -0.58200002,-5.4689999 1.062,-8.5319996 6.309,-18.222 9.566,-9.132 4.6350002,4.0419998 1.591,12.184 -3.4189999,18.222 -5.7740002,16.933001 Z"
             id="path30" />
          <g
             opacity="1"
             id="g31" />
        </g>
      </g>
      <g
         transform="matrix(-0.80541104,0.26941651,0.26026487,0.83373159,274.60086,249.01376)"
         opacity="1"
         style="display:block"
         id="g36">
        <g
           opacity="1"
           transform="translate(7.9070001,16.892)"
           id="g35">
          <path
             fill="#006837"
             fill-opacity="1"
             d="M -4.3200002,-16.455999 C -1.85,-16.642 -0.035,-10.491 2.783,-1.656 5.6849999,7.4450002 7.6570001,13.236 5.5879998,14.505 5.303,14.68 4.9749999,14.744 4.6149998,14.706 0.58200002,14.281 -7.586,1.118 -6.7859998,-10.899 c 0.1109996,-1.811 0.691,-5.556999 2.4659996,-5.556999 z"
             id="path33" />
          <g
             opacity="1"
             id="g34" />
        </g>
      </g>
      <g
         transform="matrix(1.4639453,-0.15951791,0.14925869,1.0664891,329.10587,366.79645)"
         opacity="1"
         style="display:block"
         id="g39">
        <g
           opacity="1"
           transform="translate(61.973,50.691002)"
           id="g38">
          <path
             fill="#ff9f47"
             fill-opacity="1"
             d="m -4.3249998,51.108002 c 0,0 0,0 0,0 C -25.962,49.478001 -35.773998,25.208 -32.891998,1.895 -29.565001,-25.014999 -28.791,23.143 4.4359999,23.143 38.084,23.143 34.380001,-24.834999 35.654999,-1.323 36.849998,20.722 23.749001,51.108002 -4.3249998,51.108002 Z"
             id="path36" />
          <g
             opacity="1"
             id="g37" />
        </g>
      </g>
      <g
         transform="matrix(1.5409951,-0.16791359,0.1571144,1.1226202,328.52777,360.60507)"
         opacity="1"
         style="display:block"
         id="g42">
        <g
           opacity="1"
           transform="translate(56.751999,48.312)"
           id="g41">
          <path
             fill="#bc5201"
             fill-opacity="1"
             d="m -1.191,48.173 c 0,0 0,0 0,0 -25.57,0 -32.967001,-36.581 -26.923,-47.56799998 C -23.216,-8.2980003 -28.177,22.01 2.7550001,22.01 33.599998,22.01 34.048,-23.096001 35.856998,3.0120001 37.661999,29.059 20.724001,47.519001 -1.191,48.173 Z"
             id="path39" />
          <g
             opacity="1"
             id="g40" />
        </g>
      </g>
      <g
         transform="matrix(1.5409951,-0.16791359,0.1571144,1.1226202,363.79257,377.2356)"
         opacity="1"
         style="display:block"
         id="g45">
        <g
           opacity="1"
           transform="translate(42.709999,38.632999)"
           id="g44">
          <path
             fill="#3e0702"
             fill-opacity="1"
             d="m -3.9649999,24.086 c 0,0 0,0 0,0 C -32.465,24.299999 -37.668999,-6.066 -34.377998,-8.3999996 -29.959,-11.534 -25.184,15.867 -3.2539999,14.079 19.889999,12.192 22.648001,-15.419 27.856001,-12.725 c 2.898998,1.499 -3.254002,37.409999 -31.8210009,36.811 z"
             id="path42" />
          <g
             opacity="1"
             id="g43" />
        </g>
      </g>
      <g
         transform="matrix(0.84560603,0.3325209,-0.32233033,0.88454157,357.72174,325.63965)"
         opacity="0.5"
         style="display:none"
         id="g47">
        <g
           opacity="1"
           transform="translate(33.521999,33.522999)"
           id="g46">
          <path
             stroke-linecap="butt"
             stroke-linejoin="miter"
             fill-opacity="0"
             stroke-miterlimit="10"
             stroke="#fcd621"
             stroke-opacity="1"
             stroke-width="20"
             d="M 21.023001,0 C 21.023001,11.611 11.61,21.023001 -0.001,21.023001 -11.611,21.023001 -21.023001,11.611 -21.023001,0 c 0,-11.611 9.412001,-21.023001 21.022001,-21.023001 11.611,0 21.024001,9.412001 21.024001,21.023001 z"
             id="path45" />
        </g>
      </g>
      <g
         transform="matrix(0.59773576,0.23504993,-0.22784653,0.62525833,362.59784,338.32788)"
         opacity="0.5"
         style="display:none"
         id="g49">
        <g
           opacity="1"
           transform="translate(33.521999,33.522999)"
           id="g48">
          <path
             stroke-linecap="butt"
             stroke-linejoin="miter"
             fill-opacity="0"
             stroke-miterlimit="10"
             stroke="#ffcd00"
             stroke-opacity="1"
             stroke-width="15"
             d="M 21.023001,0 C 21.023001,11.611 11.61,21.023001 -0.001,21.023001 -11.611,21.023001 -21.023001,11.611 -21.023001,0 c 0,-11.611 9.412001,-21.023001 21.022001,-21.023001 11.611,0 21.024001,9.412001 21.024001,21.023001 z"
             id="path47" />
        </g>
      </g>
      <g
         transform="matrix(0.58650887,0.23063514,-0.22356701,0.61351442,367.93661,349.99243)"
         opacity="1"
         style="display:none"
         id="g52">
        <g
           opacity="1"
           transform="translate(21.273001,21.273001)"
           id="g51">
          <path
             fill="#ffffff"
             fill-opacity="1"
             d="M 21.023001,0 C 21.023001,11.611 11.61,21.023001 -0.001,21.023001 -11.611,21.023001 -21.023001,11.611 -21.023001,0 c 0,-11.611 9.412001,-21.023001 21.022001,-21.023001 11.611,0 21.024001,9.412001 21.024001,21.023001 z"
             id="path49" />
          <g
             opacity="1"
             id="g50" />
        </g>
      </g>
      <g
         transform="matrix(-1.0979592,0.11963844,0.09992146,0.71396291,279.54163,392.25656)"
         opacity="1"
         style="display:block"
         id="g55">
        <g
           opacity="1"
           transform="translate(61.973,50.691002)"
           id="g54">
          <path
             fill="#ff9f47"
             fill-opacity="1"
             d="m 0.104,58.257999 c 0,0 0,0 0,0 C -28.216999,62.870998 -50.432999,24.371 -41.647999,0.018 -34.77,-19.047001 -47.014,23.851 -6.3080001,24.473 38.091999,25.150999 21.424999,-17.361 28.937,-10.828 47.730999,5.5149999 32.564999,55.462002 0.104,58.257999 Z"
             id="path52" />
          <g
             opacity="1"
             id="g53" />
        </g>
      </g>
      <g
         transform="matrix(-1.1557463,0.12593518,0.10518049,0.75153995,277.80817,388.00586)"
         opacity="1"
         style="display:block"
         id="g58">
        <g
           opacity="1"
           transform="translate(56.751999,48.312)"
           id="g57">
          <path
             fill="#bc5201"
             fill-opacity="1"
             d="m 0.41,51.061001 c 0,0 0,0 0,0 C -24.569,54.303001 -47.938,27.291 -38.111,0.61299998 -30.542999,-19.933001 -38.505001,20.444 -4.8569999,20.892 33.555,21.403 19.308001,-28.836 30.806999,-1.368 37.498001,14.616 27.275,47.950001 0.41,51.061001 Z"
             id="path55" />
          <g
             opacity="1"
             id="g56" />
        </g>
      </g>
      <g
         transform="matrix(-1.1557463,0.12593518,0.10518049,0.75153995,271.56778,401.68585)"
         opacity="1"
         style="display:block"
         id="g61">
        <g
           opacity="1"
           transform="translate(42.709999,38.632999)"
           id="g60">
          <path
             fill="#3e0702"
             fill-opacity="1"
             d="m 1.773,28.349001 c 0,0 0,0 0,0 C -30.907,28.799999 -33.801998,-9.6560001 -28.525999,-13.067 -24.054001,-15.958 -26.545,11.3 2.0899999,11.785 33.875999,12.323 29.584,-20.004 33.806,-14.301 38.740002,-7.638 37.521,28.181999 1.773,28.349001 Z"
             id="path58" />
          <g
             opacity="1"
             id="g59" />
        </g>
      </g>
      <g
         transform="matrix(0.84504402,0.33405298,-0.32085636,0.88511801,158.47473,296.18787)"
         opacity="0.5"
         style="display:none"
         id="g63">
        <g
           opacity="1"
           transform="translate(33.521999,33.522999)"
           id="g62">
          <path
             stroke-linecap="butt"
             stroke-linejoin="miter"
             fill-opacity="0"
             stroke-miterlimit="10"
             stroke="#fcd621"
             stroke-opacity="1"
             stroke-width="20"
             d="M 21.023001,0 C 21.023001,11.611 11.61,21.023001 -0.001,21.023001 -11.611,21.023001 -21.023001,11.611 -21.023001,0 c 0,-11.611 9.412001,-21.023001 21.022001,-21.023001 11.611,0 21.024001,9.412001 21.024001,21.023001 z"
             id="path61" />
        </g>
      </g>
      <g
         transform="matrix(0.59733856,0.23613295,-0.22680461,0.62566572,163.36104,308.89728)"
         opacity="0.5"
         style="display:none"
         id="g65">
        <g
           opacity="1"
           transform="translate(33.521999,33.522999)"
           id="g64">
          <path
             stroke-linecap="butt"
             stroke-linejoin="miter"
             fill-opacity="0"
             stroke-miterlimit="10"
             stroke="#ffcd00"
             stroke-opacity="1"
             stroke-width="15"
             d="M 21.023001,0 C 21.023001,11.611 11.61,21.023001 -0.001,21.023001 -11.611,21.023001 -21.023001,11.611 -21.023001,0 c 0,-11.611 9.412001,-21.023001 21.022001,-21.023001 11.611,0 21.024001,9.412001 21.024001,21.023001 z"
             id="path63" />
        </g>
      </g>
      <g
         transform="matrix(0.586119,0.23169777,-0.22254467,0.61391425,168.70816,320.58246)"
         opacity="1"
         style="display:none"
         id="g68">
        <g
           opacity="1"
           transform="translate(21.273001,21.273001)"
           id="g67">
          <path
             fill="#ffffff"
             fill-opacity="1"
             d="M 21.023001,0 C 21.023001,11.611 11.61,21.023001 -0.001,21.023001 -11.611,21.023001 -21.023001,11.611 -21.023001,0 c 0,-11.611 9.412001,-21.023001 21.022001,-21.023001 11.611,0 21.024001,9.412001 21.024001,21.023001 z"
             id="path65" />
          <g
             opacity="1"
             id="g66" />
        </g>
      </g>
      <g
         transform="matrix(0.810624,-0.47402,0.38344941,0.79051638,283.5025,260.89749)"
         opacity="0.33"
         style="display:block"
         id="g70">
        <g
           opacity="1"
           id="g69">
          <path
             fill="#8b2d01"
             fill-opacity="1"
             d="M -9.0799999,-74.888 C -13.535,-75.972 -17.961,-77.038002 -22.362,-78.042 c -1.932001,-0.441002 -3.86,-0.870003 -5.783,-1.282997 -0.505,-0.108002 -1.008999,-0.216003 -1.513001,-0.322006 -3.681999,-0.775994 -7.348,-1.490997 -11.001999,-2.119995 -2.728,-0.469002 -5.450001,-0.890999 -8.166,-1.252999 -19.071003,-2.543007 -37.869999,-2.177002 -56.848,4.82 -32.018,11.805 -67.918,44.285996 -71.918,75.285997 15.06501,-22.571001 67.221,-71.067003 126.89,-58.19 7.007,1.512001 14.117001,3.870998 21.282999,7.216999 6.972,3.255001 13.697001,6.002003 20.1850008,8.327 8.76500019,3.141002 17.0950003,5.508003 25.0050002,7.308002 43.837002,9.974999 74.785,2.516998 95.579,12.631998 C 83.985001,-44.967999 29.17,-65.581001 -9.0799999,-74.888 Z"
             id="path68" />
        </g>
      </g>
      <g
         transform="matrix(-0.79534316,0.29975784,0.28957555,0.82330966,300.99109,167.22256)"
         opacity="1"
         style="display:block"
         id="g72">
        <g
           opacity="1"
           transform="translate(57.272999,59.653999)"
           id="g71">
          <path
             fill="#2e712f"
             fill-opacity="1"
             d="M 0,0"
             id="path70" />
          <path
             stroke-linecap="round"
             stroke-linejoin="round"
             fill-opacity="0"
             stroke="#2e5525"
             stroke-opacity="1"
             stroke-width="9"
             d="M 0,0"
             id="path71" />
        </g>
      </g>
      <g
         transform="matrix(-0.79534316,0.29975784,0.28957555,0.82330966,300.99109,167.22256)"
         opacity="1"
         style="display:block"
         id="g74">
        <g
           opacity="1"
           transform="translate(57.272999,59.653999)"
           id="g73">
          <path
             fill="#009245"
             fill-opacity="1"
             d="m -19.695,-3.8369999 c 2.077,-11.0490001 3.39,-22.3589991 3.661,-32.5049991 9.692,-0.812 19.4010001,-0.691002 28.95,0.360001 -0.54,13.085998 1.443,24.490998 4.976,35.47899798"
             id="path72" />
          <path
             stroke-linecap="round"
             stroke-linejoin="round"
             fill-opacity="0"
             stroke="#006837"
             stroke-opacity="1"
             stroke-width="9"
             d="m -19.695,-3.8369999 c 2.077,-11.0490001 3.39,-22.3589991 3.661,-32.5049991 9.692,-0.812 19.4010001,-0.691002 28.95,0.360001 -0.54,13.085998 1.443,24.490998 4.976,35.47899798"
             id="path73" />
        </g>
      </g>
      <g
         transform="matrix(1.0440434,-0.11376356,-0.0950148,-0.67890352,163.14044,403.6207)"
         opacity="1"
         style="display:block"
         id="g77">
        <g
           opacity="1"
           transform="translate(36.819,27.033001)"
           id="g76">
          <path
             fill="#590902"
             fill-opacity="1"
             d="m -34.733002,-2.517 c 0,0 0,0 0,0 -1.835998,-2.5340001 2.638001,-9.738 11.468003,-13.191 28.3159991,-11.075001 47.078998,3.117 56.538997,26.415 C 36.368999,18.329 40.083,25.375 35.763,30.642 31.103001,36.324001 26.524,30.311001 21.778999,24.26 9.6529999,8.7980003 -1.763,0.017 -22.673,3.7980001 -29.754,5.079 -33.070999,-0.19499999 -34.733002,-2.517 Z"
             id="path74" />
          <g
             opacity="1"
             id="g75" />
        </g>
      </g>
      <g
         transform="matrix(-1.2007589,0.13083994,-0.12242512,-0.87475687,476.90356,370.89688)"
         opacity="1"
         style="display:block"
         id="g80">
        <g
           opacity="1"
           transform="translate(36.819,27.033001)"
           id="g79">
          <path
             fill="#590902"
             fill-opacity="1"
             d="m -34.733002,-2.517 c 0,0 0,0 0,0 -1.835998,-2.5340001 -4.035999,-8.006 13.716002,-12.961 20.965,-5.852 44.84,6.6700004 54.857,26.819 3.661999,7.366001 2.729,13.336999 0.084,14.399 C 31.299999,26.783001 28.042,23.819 22.337,18.664 11.777,9.1219997 0.88,1.749 -21.941999,-1.377 c -7.129,-0.9770001 -11.129,1.18200001 -12.791003,-1.14 z"
             id="path77" />
          <g
             opacity="1"
             id="g78" />
        </g>
      </g>
      <g
         transform="matrix(-0.40441179,0.02459005,0.01583475,0.2595638,379.02936,451.24762)"
         opacity="1"
         style="display:block"
         id="g83">
        <g
           opacity="1"
           transform="translate(129.453,65.831001)"
           id="g82">
          <path
             fill="#ff9f48"
             fill-opacity="1"
             d="M 2.171,95.103996 C -84.123001,87.107002 -102.951,8.4860001 -111.463,-56.873001 c -2.138,-7.387001 4.009,-18.783997 10.896,-17.830002 C -59.219002,3.398 7.5159998,55.235001 92.728996,-62.358002 99.716003,-63.080002 106.216,-51.867001 104.561,-43.993999 97.796997,20.254 74.651001,101.821 2.171,95.103996 Z"
             id="path80" />
          <g
             opacity="1"
             id="g81" />
        </g>
      </g>
      <g
         transform="matrix(-0.39830583,0.02421878,0.01559567,0.25564477,378.22873,449.33853)"
         opacity="1"
         style="display:block"
         id="g86">
        <g
           opacity="1"
           transform="translate(129.36301,65.467003)"
           id="g85">
          <path
             fill="#bc5201"
             fill-opacity="1"
             d="M 8.059,91.339996 C -69.360001,91.085999 -103.024,14.413 -111.03,-49.962002 c -2.166,-7.088997 2.849,-14.425998 10.478,-13.604999 C -65.279999,4.6129999 7.9510002,58.18 94.085999,-54.486 101.112,-55.423 107.222,-47.418999 104.572,-40.462002 96.774002,23.200001 66.783997,91.532997 8.059,91.339996 Z"
             id="path83" />
          <g
             opacity="1"
             id="g84" />
        </g>
      </g>
      <g
         transform="matrix(-0.39830583,0.02421878,0.01559567,0.25564477,368.76807,454.65613)"
         opacity="1"
         style="display:block"
         id="g89">
        <g
           opacity="1"
           transform="translate(104.866,46.966999)"
           id="g88">
          <path
             fill="#3e0702"
             fill-opacity="1"
             d="M 92.625999,-51.560001 C 96.439003,-56.893002 104.511,-48.330002 102.553,-42.673 94.865997,1.267 52.147999,35.375 -1.187,35.370998 -54.583,35.367001 -97.248001,1.347 -104.949,-43.016998 c -2.226,-6.054001 3.509,-11.229 9.795001,-8.881001 47.652,79.050999 132.080997,78.255999 187.779998,0.337998 z"
             id="path86" />
          <g
             opacity="1"
             id="g87" />
        </g>
      </g>
      <g
         transform="matrix(-0.37250614,0.10081043,0.16690302,0.28789198,361.08429,456.24988)"
         opacity="1"
         style="display:block"
         id="g92">
        <g
           opacity="1"
           transform="translate(30.174,22.471001)"
           id="g91">
          <path
             fill="#ff8300"
             fill-opacity="1"
             d="m -29.924,-22.221001 c 0,0 23.509,40.561001 23.509,40.561001 1.395,2.406 3.971,3.881001 6.75200001,3.865999 C 3.118,22.191 5.6789999,20.688 7.0469999,18.266001 c 0,0 22.8770001,-40.487002 22.8770001,-40.487002 z"
             id="path89" />
          <g
             opacity="1"
             id="g90" />
        </g>
      </g>
      <g
         transform="matrix(-0.37565035,-0.06841432,-0.15594506,0.30187175,321.40875,465.3645)"
         opacity="1"
         style="display:block"
         id="g95">
        <g
           opacity="1"
           transform="translate(30.174,22.471001)"
           id="g94">
          <path
             fill="#ff8300"
             fill-opacity="1"
             d="m -29.924,-22.221001 c 0,0 23.509,40.561001 23.509,40.561001 1.395,2.406 3.971,3.881001 6.75200001,3.865999 C 3.118,22.191 5.6789999,20.688 7.0469999,18.266001 c 0,0 22.8770001,-40.487002 22.8770001,-40.487002 z"
             id="path92" />
          <g
             opacity="1"
             id="g93" />
        </g>
      </g>
      <g
         transform="matrix(-0.7310397,-0.11939378,-0.10864069,0.73305982,200.55173,216.99478)"
         opacity="1"
         style="display:block"
         id="g97">
        <g
           opacity="1"
           transform="translate(128.48199,116.499)"
           id="g96">
          <path
             fill="#dcf8ff"
             fill-opacity="1"
             d="M 38.064144,6.5643392 C 47.432037,-27.439608 38.961132,-40.637123 30.159134,-49.105125 18.476133,-60.344124 2.1813126,-59.74041 -9.5046873,-65.098412 c -12.6610007,-5.805999 -20.1504907,13.997628 -8.3779997,24.505002 12.2369193,10.91607 18.50629416,14.526018 34.908955,25.428357"
             id="path95" />
          <path
             stroke-linecap="butt"
             stroke-linejoin="miter"
             fill-opacity="0"
             stroke-miterlimit="10"
             stroke="#25c4f8"
             stroke-opacity="1"
             stroke-width="10"
             d="M 38.064144,6.5643392 C 47.432037,-27.439608 38.961132,-40.637123 30.159134,-49.105125 18.476133,-60.344124 2.1813126,-59.74041 -9.5046873,-65.098412 c -12.6610007,-5.805999 -20.1504907,13.997628 -8.3779997,24.505002 12.2369193,10.91607 18.50629416,14.526018 34.908955,25.428357"
             id="path96" />
        </g>
      </g>
      <g
         transform="matrix(-0.71527183,-0.18378477,-0.17332102,0.72281992,197.04146,229.47824)"
         opacity="1"
         style="display:block"
         id="g99">
        <g
           opacity="1"
           transform="translate(128.48199,116.499)"
           id="g98">
          <path
             stroke-linecap="round"
             stroke-linejoin="round"
             fill-opacity="0"
             stroke="#25c4f8"
             stroke-opacity="1"
             stroke-width="20"
             d="m -58.806,27.205 c 8.361,-28.989 14.299999,-27.74500002 20.215,-30.3810001 19.869,-8.8549999 -7.785999,-15.2460009 5.564999,1.3420001 7.401001,9.196 -3.607998,-4.318 -3.092998,-1.686 0.390998,1.995 1.509998,4.31400003 4.075,5.007 C -27.676001,2.668 -19.118,-0.866 -2.832,-18.745001 8.335,-31.004999 28.053047,-22.299999 15.984,-6.862 15.533,-6.2849998 15.208,-5.684 15.002,-5.0970001 13.893,-1.931 15.146,-3.233 19.989,-6.5910001 35.595001,-20.714001 60.168827,-39.68045 84.098373,-49.775291 97.730942,-55.526398 107.78055,-33.628296 94.433159,-27.225887 75.878937,-18.326542 46.519001,0.1 42.557999,5.7579999 38.597,11.417 41.646999,15.91 49.257,12.143 58.480045,7.5780001 75.788002,-5.1009636 90.83725,-9.3293972 103.84113,-12.9829 112.38448,7.8736691 96.675529,14.669917 74.529221,24.251055 56.665001,35.359001 41.337002,54.145 35.081001,61.849998 18.275999,79.419998 -7.5900002,83.401001 -16.993,84.848 -12.404851,84.63031 -20.94585,79.647308 c -8.396,-4.898002 -7.597041,1.934624 -16.431042,-1.527374 -6.240997,-2.446007 -5.751381,-0.544891 -15.170384,-4.016891 -8.018997,-2.955002 -15.60622,2.563835 -8.294223,-14.861164 4.631,-11.036 -3.803498,-11.791878 2.035499,-32.036879 z"
             id="path97" />
          <path
             fill="#dcf8ff"
             fill-opacity="1"
             d="m -58.806,27.205 c 8.361,-28.989 14.299999,-27.74500002 20.215,-30.3810001 19.869,-8.8549999 -7.785999,-15.2460009 5.564999,1.3420001 7.401001,9.196 -3.607998,-4.318 -3.092998,-1.686 0.390998,1.995 1.509998,4.31400003 4.075,5.007 C -27.676001,2.668 -19.118,-0.866 -2.832,-18.745001 8.335,-31.004999 28.053047,-22.299999 15.984,-6.862 15.533,-6.2849998 15.208,-5.684 15.002,-5.0970001 13.893,-1.931 15.146,-3.233 19.989,-6.5910001 35.595001,-20.714001 60.168827,-39.68045 84.098373,-49.775291 97.730942,-55.526398 107.78055,-33.628296 94.433159,-27.225887 75.878937,-18.326542 46.519001,0.1 42.557999,5.7579999 38.597,11.417 41.646999,15.91 49.257,12.143 58.480045,7.5780001 75.788002,-5.1009636 90.83725,-9.3293972 103.84113,-12.9829 112.38448,7.8736691 96.675529,14.669917 74.529221,24.251055 56.665001,35.359001 41.337002,54.145 35.081001,61.849998 18.275999,79.419998 -7.5900002,83.401001 -16.993,84.848 -12.404851,84.63031 -20.94585,79.647308 c -8.396,-4.898002 -7.597041,1.934624 -16.431042,-1.527374 -6.240997,-2.446007 -5.751381,-0.544891 -15.170384,-4.016891 -8.018997,-2.955002 -15.60622,2.563835 -8.294223,-14.861164 4.631,-11.036 -3.803498,-11.791878 2.035499,-32.036879 z"
             id="path98" />
        </g>
      </g>
      <g
         transform="matrix(1.0923173,-0.37214899,0.38577992,1.1294292,303.46945,303.72861)"
         opacity="1"
         style="display:block"
         id="g101">
        <g
           opacity="1"
           id="g100">
          <path
             fill="#dcf8ff"
             fill-opacity="1"
             d="m -201.46365,-25.965721 c -8.29441,24.6500763 -2.72443,36.427848 4.39412,35.3153256 12.45169,5.7212734 4.49192,10.2003414 10.99192,9.7003414 6.5,-0.5 6.97115,-14.6989195 14.97115,-13.1989195 8.89999,1.6690002 12.77698,-4.2222612 19.92348,-34.3101315"
             id="path99" />
          <path
             stroke-linecap="round"
             stroke-linejoin="round"
             fill-opacity="0"
             stroke="#26c4f8"
             stroke-opacity="1"
             stroke-width="6"
             d="m -201.46365,-25.965721 c -8.29441,24.6500763 -2.72443,36.427848 4.39412,35.3153256 12.45169,5.7212734 4.49192,10.2003414 10.99192,9.7003414 6.5,-0.5 6.97115,-14.6989195 14.97115,-13.1989195 8.89999,1.6690002 12.77698,-4.2222612 19.92348,-34.3101315"
             id="path100" />
        </g>
      </g>
      <g
         style="display:none"
         id="g103">
        <g
           id="g102">
          <path
             id="path101"
             d="" />
          <path
             stroke-linecap="round"
             stroke-linejoin="round"
             fill-opacity="0"
             id="path102"
             d="" />
        </g>
      </g>
      <g
         transform="matrix(0.84426707,0.01698431,-0.01409382,0.75797349,30.64348,115.19285)"
         opacity="1"
         style="display:none"
         id="g105">
        <g
           opacity="1"
           transform="translate(289.46899,132.767)"
           id="g104">
          <path
             fill="#725696"
             fill-opacity="1"
             d="M -138.505,62.019001 C -97.655998,80.584999 -41.569,95.896004 28.714001,98.402 68.301003,99.813004 112.393,97.163002 160.802,88.741997 245.43201,74.021004 279.54599,29.843 266.82599,-11.956 253.078,-57.131001 100.769,8.2200003 -87.402,-67.599998 -258.90701,-136.705 -280.32401,-2.4389999 -138.505,62.019001 Z"
             id="path103" />
          <path
             stroke-linecap="round"
             stroke-linejoin="round"
             fill-opacity="0"
             stroke="#523577"
             stroke-opacity="1"
             stroke-width="10"
             d="M -138.505,62.019001 C -97.655998,80.584999 -41.569,95.896004 28.714001,98.402 68.301003,99.813004 112.393,97.163002 160.802,88.741997 245.43201,74.021004 279.54599,29.843 266.82599,-11.956 253.078,-57.131001 100.769,8.2200003 -87.402,-67.599998 -258.90701,-136.705 -280.32401,-2.4389999 -138.505,62.019001 Z"
             id="path104" />
        </g>
      </g>
      <g
         transform="matrix(0.79127282,0.02558324,-0.02385331,0.7067796,51.024418,116.05415)"
         opacity="0.5"
         style="display:none"
         id="g107">
        <g
           opacity="1"
           transform="translate(289.46899,132.767)"
           id="g106">
          <path
             stroke-linecap="round"
             stroke-linejoin="round"
             fill-opacity="0"
             stroke-dasharray="0, 95, 15"
             stroke-dashoffset="0"
             stroke="#a986d6"
             stroke-opacity="1"
             stroke-width="6"
             d="m 95.637001,96.695999 c 10.077999,-1.125 20.275999,-2.597 30.573999,-4.445 C 173.457,83.773003 215.08701,74.362 241.69099,56.426998"
             id="path105" />
        </g>
      </g>
      <g
         transform="matrix(0.63274938,-0.58110595,0.49745432,0.55496621,24.472603,117.4034)"
         opacity="1"
         style="display:block"
         id="g109">
        <g
           opacity="1"
           transform="translate(157.39799,105.727)"
           id="g108">
          <path
             fill="#725696"
             fill-opacity="1"
             d="M 57.278,85.726997 C 39.050999,50.723 31.363001,-16.145 5.9920001,-42.32 -19.040001,-68.143997 -69.593002,-107.429 -103.911,-116.714 c 18.682004,18.947002 39.010998,48.760997 31.851002,63.900001 C -102.382,11.303 -107.03,31.584 -137.39799,82.516998"
             id="path107" />
          <path
             stroke-linecap="round"
             stroke-linejoin="round"
             fill-opacity="0"
             stroke="#523577"
             stroke-opacity="1"
             stroke-width="10"
             d="M 57.278,85.726997 C 39.050999,50.723 31.363001,-16.145 5.9920001,-42.32 -19.040001,-68.143997 -69.593002,-107.429 -103.911,-116.714 c 18.682004,18.947002 39.010998,48.760997 31.851002,63.900001 C -102.382,11.303 -107.03,31.584 -137.39799,82.516998"
             id="path108" />
        </g>
      </g>
      <g
         transform="matrix(0.63274938,-0.58110595,0.49745432,0.55496621,24.472603,117.4034)"
         opacity="0.33"
         style="display:block"
         id="g111">
        <g
           opacity="1"
           transform="translate(157.39799,105.727)"
           id="g110">
          <path
             fill="#523577"
             fill-opacity="1"
             d="M -1.1569999,104.844 C -19.384001,69.839996 -50.186001,2.171 -52.368999,-17.417999 c -3.982003,-35.744 26.703998,-44.433003 -45.397999,-95.174001 26.623001,49.775998 31.517997,38.725003 20.018997,65.739999 C -102.276,10.774 -107.03,31.584 -137.39799,82.516998"
             id="path109" />
        </g>
      </g>
      <g
         transform="matrix(0.63274938,-0.58110595,0.49745432,0.55496621,80.697884,203.32997)"
         opacity="1"
         style="display:block"
         id="g113">
        <g
           opacity="1"
           transform="translate(130.43201,60.952999)"
           id="g112">
          <path
             fill="#482e6a"
             fill-opacity="1"
             d="M -103.15,-3.2190001 C -110.431,15.712 -61.890999,27.362 -10.437,34.158001 41.016998,40.953999 110.431,26.877001 108.489,8.9160004 101.693,-7.5879998 100.761,-8.6800003 89.331001,-31.454 84.698997,-50.82 -61.352001,-61.868999 -75.518997,-40.953999 -91.538002,-12.8 -82.277,-23.606001 -103.15,-3.2190001 Z"
             id="path111" />
          <path
             stroke-linecap="round"
             stroke-linejoin="round"
             fill-opacity="0"
             stroke="#281742"
             stroke-opacity="1"
             stroke-width="10"
             d="M -103.15,-3.2190001 C -110.431,15.712 -61.890999,27.362 -10.437,34.158001 41.016998,40.953999 110.431,26.877001 108.489,8.9160004 101.693,-7.5879998 100.761,-8.6800003 89.331001,-31.454 84.698997,-50.82 -61.352001,-61.868999 -75.518997,-40.953999 -91.538002,-12.8 -82.277,-23.606001 -103.15,-3.2190001 Z"
             id="path112" />
        </g>
      </g>
      <g
         transform="matrix(0.66890818,-0.53700465,0.40288895,0.53796941,108.05562,165.30194)"
         opacity="1"
         style="display:block"
         id="g115">
        <g
           opacity="1"
           transform="translate(63.002998,59.188999)"
           id="g114">
          <path
             fill="#ffbc00"
             fill-opacity="1"
             d="m 21.086,37.362 c 0,0 -44.766,2.718002 -44.766,2.718002 C -33.601002,39.737999 -41.381001,31.871 -41.057999,22.51 c 0,0 1.677998,-60.219 1.677998,-60.219 0.323002,-9.361 8.627001,-16.672001 18.548,-16.330001 0,0 44.766001,-2.717 44.766001,-2.717 9.92,0.343003 17.700998,8.209 17.377001,17.571 0,0 -1.677002,60.218002 -1.677002,60.218002 C 39.311001,30.393999 31.007,37.705002 21.086,37.362 Z m 1.800999,-76.437001 c 0,0 -44.483999,2.727001 -44.483999,2.727001 0,0 -1.639,59.277001 -1.639,59.277001 0,0 44.486,-2.727001 44.486,-2.727001 z"
             id="path113" />
          <path
             stroke-linecap="round"
             stroke-linejoin="round"
             fill-opacity="0"
             stroke="#ff8300"
             stroke-opacity="1"
             stroke-width="5"
             d="m 21.086,37.362 c 0,0 -44.766,2.718002 -44.766,2.718002 C -33.601002,39.737999 -41.381001,31.871 -41.057999,22.51 c 0,0 1.677998,-60.219 1.677998,-60.219 0.323002,-9.361 8.627001,-16.672001 18.548,-16.330001 0,0 44.766001,-2.717 44.766001,-2.717 9.92,0.343003 17.700998,8.209 17.377001,17.571 0,0 -1.677002,60.218002 -1.677002,60.218002 C 39.311001,30.393999 31.007,37.705002 21.086,37.362 Z m 1.800999,-76.437001 c 0,0 -44.483999,2.727001 -44.483999,2.727001 0,0 -1.639,59.277001 -1.639,59.277001 0,0 44.486,-2.727001 44.486,-2.727001 z"
             id="path114" />
        </g>
      </g>
      <g
         transform="matrix(0.66862673,-0.53738016,0.44807461,0.59740627,-19.652088,291.38898)"
         opacity="1"
         style="display:block"
         id="g117">
        <g
           opacity="1"
           transform="translate(289.46899,132.767)"
           id="g116">
          <path
             fill="#977abd"
             fill-opacity="1"
             d="m -172.72501,-108.591 c 31.558,3.018 62.48401,12.971997 111.261009,15.746998 36.526001,2.078003 83.063002,0.131005 147.371998,-11.768998 88.487003,-16.374 155.097003,-15.81 155.973003,3.431 0.947,20.794999 -190.195999,109.4940003 -368.25,74.748999 -96.20501,-18.773 -164.85701,-93.488999 -46.35601,-82.157999 z"
             id="path115" />
          <path
             stroke-linecap="round"
             stroke-linejoin="round"
             fill-opacity="0"
             stroke="#725696"
             stroke-opacity="1"
             stroke-width="10"
             d="m -172.72501,-108.591 c 31.558,3.018 62.48401,12.971997 111.261009,15.746998 36.526001,2.078003 83.063002,0.131005 147.371998,-11.768998 88.487003,-16.374 155.097003,-15.81 155.973003,3.431 0.947,20.794999 -190.195999,109.4940003 -368.25,74.748999 -96.20501,-18.773 -164.85701,-93.488999 -46.35601,-82.157999 z"
             id="path116" />
        </g>
      </g>
      <g
         transform="matrix(-0.72056484,-0.17889664,-0.16661327,0.72035176,196.94006,229.13774)"
         opacity="0.99"
         style="display:block"
         id="g119">
        <g
           opacity="1"
           transform="translate(128.48199,116.499)"
           id="g118">
          <path
             fill="#dcf8ff"
             fill-opacity="1"
             d="m -71.888,51.821999 c 14.638999,-53.623999 33.227001,-65.553999 36.486,-79.571 0.749,-3.219999 1.257999,-6.399997 1.314998,-9.619998 0.383003,-21.75 14.000002,-33.522 28.989002,-18.397 5.85500003,5.909001 6.489,15.424 5.40899999,24.470999 C -1.076,-19.681 -9.7989998,0.505 -10.031,1.995 c -0.334,2.1410002 6.2210001,12.565 7.959,25.394999"
             id="path117" />
          <path
             stroke-linecap="round"
             stroke-linejoin="round"
             fill-opacity="0"
             stroke="#25c4f8"
             stroke-opacity="1"
             stroke-width="10"
             d="m -71.888,51.821999 c 14.638999,-53.623999 33.227001,-65.553999 36.486,-79.571 0.749,-3.219999 1.257999,-6.399997 1.314998,-9.619998 0.383003,-21.75 14.000002,-33.522 28.989002,-18.397 5.85500003,5.909001 6.489,15.424 5.40899999,24.470999 C -1.076,-19.681 -9.7989998,0.505 -10.031,1.995 c -0.334,2.1410002 6.2210001,12.565 7.959,25.394999"
             id="path118" />
        </g>
      </g>
      <g
         transform="matrix(0.30778268,-0.26540536,0.18275507,0.22175169,111.68417,238.03833)"
         opacity="1"
         style="display:block"
         id="g121">
        <g
           opacity="1"
           transform="translate(289.46899,132.767)"
           id="g120">
          <path
             fill="#523577"
             fill-opacity="1"
             d="m -169.315,-93.114998 c 31.70199,-0.067 59.074,-2.504005 107.850999,0.270996 36.526001,2.078003 81.150002,1.772003 141.515004,-6.545997 C 173.326,-112.242 228.481,-116.884 232.248,-107.043 c 3.476,9.079003 12.286,28.473 -83.981,60.452 -69.505998,23.090001 -178.052999,24.736 -274.636,20.157999 -98.99401,-4.691999 -131.59001,-66.494001 -42.946,-66.681997 z"
             id="path119" />
          <path
             stroke-linecap="round"
             stroke-linejoin="round"
             fill-opacity="0"
             stroke="#523577"
             stroke-opacity="1"
             stroke-width="10"
             d="m -169.315,-93.114998 c 31.70199,-0.067 59.074,-2.504005 107.850999,0.270996 36.526001,2.078003 81.150002,1.772003 141.515004,-6.545997 C 173.326,-112.242 228.481,-116.884 232.248,-107.043 c 3.476,9.079003 12.286,28.473 -83.981,60.452 -69.505998,23.090001 -178.052999,24.736 -274.636,20.157999 -98.99401,-4.691999 -131.59001,-66.494001 -42.946,-66.681997 z"
             id="path120" />
        </g>
      </g>
      <g
         transform="matrix(-0.35108733,-0.67177886,-0.63708413,0.34418371,203.19032,225.23061)"
         opacity="1"
         style="display:none"
         id="g123">
        <g
           opacity="1"
           transform="translate(128.48199,116.499)"
           id="g122">
          <path
             fill="#dcf8ff"
             fill-opacity="1"
             d="M 40.895,-32.889 C 38.935001,-41.48 34.791,-47.487 30.311001,-51.797001 18.628,-63.035999 9.0790005,-65.931999 -4.454,-67.467003 c -13.840001,-1.57 -20.682999,14.609001 -8.378,24.505001 C 0.073,-32.583 9.1619997,-29.865999 27.915001,-25.84"
             id="path121" />
          <path
             stroke-linecap="round"
             stroke-linejoin="round"
             fill-opacity="0"
             stroke="#26c4f8"
             stroke-opacity="1"
             stroke-width="10"
             d="M 40.895,-32.889 C 38.935001,-41.48 34.791,-47.487 30.311001,-51.797001 18.628,-63.035999 9.0790005,-65.931999 -4.454,-67.467003 c -13.840001,-1.57 -20.682999,14.609001 -8.378,24.505001 C 0.073,-32.583 9.1619997,-29.865999 27.915001,-25.84"
             id="path122" />
        </g>
      </g>
      <g
         transform="matrix(-0.84010971,0.10677963,0.1031525,0.8696503,500.18069,141.92374)"
         opacity="1"
         style="display:block"
         id="g125">
        <g
           opacity="1"
           transform="translate(242.347,204.616)"
           id="g124">
          <path
             fill="#d96700"
             fill-opacity="1"
             d="M 184.15199,-111.166 C 161.494,-141.85699 128.036,-158.957 85.896004,-167.618"
             id="path123" />
          <path
             stroke-linecap="round"
             stroke-linejoin="round"
             fill-opacity="0"
             stroke="#8a2c01"
             stroke-opacity="1"
             stroke-width="10"
             d="M 184.15199,-111.166 C 161.494,-141.85699 128.036,-158.957 85.896004,-167.618"
             id="path124" />
        </g>
      </g>
    </g>
    <g
       clip-path="url(#__lottie_element_870)"
       opacity="1"
       style="display:none"
       id="g247">
      <g
         transform="matrix(0.79014999,0,0,1.14036,147.07649,424.42966)"
         opacity="0.15"
         style="display:block"
         id="g129">
        <g
           opacity="1"
           transform="translate(218.487,37.442001)"
           id="g128">
          <path
             fill="#000000"
             fill-opacity="1"
             d="m 218.487,0 c 0,20.679001 -97.82,37.443001 -218.487,37.443001 -120.667,0 -218.48801,-16.764 -218.48801,-37.443001 0,-20.679001 97.82101,-37.443001 218.48801,-37.443001 120.667,0 218.487,16.764 218.487,37.443001 z"
             id="path126" />
          <g
             opacity="1"
             id="g127" />
        </g>
      </g>
      <g
         transform="matrix(-0.83978713,0.10681923,0.1031129,0.86997283,481.87732,165.95898)"
         opacity="1"
         style="display:block"
         id="g132">
        <g
           opacity="1"
           transform="translate(217.597,179.866)"
           id="g131">
          <path
             fill="url(#__lottie_element_881)"
             fill-opacity="1"
             d="m -2.964,-175.442 c -105.69,-0.103 -192.48501,22.56599 -213.03299,144.675999 -10.293,61.171002 9.164,113.81 27.47898,139.731001 32.84801,46.49 64.48901,78.634 188.28901,69.207 81.399998,-6.198 149.49701,-20.87599 186.3,-71.817 C 210.433,72.634003 222.547,20.235001 215.39999,-30.051001 198.668,-147.774 117.296,-175.325 -2.964,-175.442 Z"
             id="path129"
             style="fill:url(#__lottie_element_881)" />
          <g
             opacity="1"
             id="g130" />
        </g>
      </g>
      <g
         transform="matrix(-0.7977978,0.10147827,0.1031129,0.86997283,454.73761,217.32483)"
         opacity="0.33"
         style="display:block"
         id="g137">
        <g
           opacity="1"
           transform="translate(336.70801,136.411)"
           id="g133">
          <path
             stroke-linecap="round"
             stroke-linejoin="round"
             fill-opacity="0"
             stroke="#ff9f48"
             stroke-opacity="1"
             stroke-width="15"
             d="M 1.784,-118.984 C 109.576,-92.283997 93.212997,85.015999 -38.678001,144.07001"
             id="path132" />
        </g>
        <g
           opacity="1"
           transform="translate(284.53101,176.05099)"
           id="g134">
          <path
             stroke-linecap="round"
             stroke-linejoin="round"
             fill-opacity="0"
             stroke="#ff9f48"
             stroke-opacity="1"
             stroke-width="15"
             d="M 14.939,-112.291 C 64.472,-57.171001 43.289001,56.362 -21.198999,102.785"
             id="path133" />
        </g>
        <g
           opacity="1"
           transform="translate(129.48,173.767)"
           id="g135">
          <path
             stroke-linecap="round"
             stroke-linejoin="round"
             fill-opacity="0"
             stroke="#ff9f48"
             stroke-opacity="1"
             stroke-width="15"
             d="M -43.319,112.576 C -87.635002,90.834999 -102.916,47.432999 -95.637001,2.5610001 -82.834999,-76.356003 -51.035,-119.278 -2.9000001,-136.159"
             id="path134" />
        </g>
        <g
           opacity="1"
           transform="translate(87.566002,145.97099)"
           id="g136">
          <path
             stroke-linecap="round"
             stroke-linejoin="round"
             fill-opacity="0"
             stroke="#ff9f48"
             stroke-opacity="1"
             stroke-width="15"
             d="M -34.473999,136.117 C -98.647003,102.183 -119.467,30.629999 -119.43,-26.16 c 0.05,-76.365 51.498001,-145.961 134.571,-141.139"
             id="path135" />
        </g>
      </g>
      <g
         transform="matrix(-0.83978713,0.10681923,0.1031129,0.86997283,463.00809,216.27284)"
         opacity="0.33"
         style="display:block"
         id="g142">
        <g
           opacity="1"
           transform="translate(336.70801,136.411)"
           id="g138">
          <path
             stroke-linecap="round"
             stroke-linejoin="round"
             fill-opacity="0"
             stroke="#8a2c01"
             stroke-opacity="1"
             stroke-width="5"
             d="M -122.313,-106.028 C -48.332001,-162.65199 66.078003,-137.765 69.794998,-27.874001 73.068001,68.888 28.955,166.064 -146.868,166.533"
             id="path137" />
        </g>
        <g
           opacity="1"
           transform="translate(284.53101,176.05099)"
           id="g139">
          <path
             stroke-linecap="round"
             stroke-linejoin="round"
             fill-opacity="0"
             stroke="#8a2c01"
             stroke-opacity="1"
             stroke-width="5"
             d="M -69.970001,-145.327 C 116.8,-151.658 68.333,134.968 -94.189003,126.297"
             id="path138" />
        </g>
        <g
           opacity="1"
           transform="translate(129.48,173.767)"
           id="g140">
          <path
             stroke-linecap="round"
             stroke-linejoin="round"
             fill-opacity="0"
             stroke="#8a2c01"
             stroke-opacity="1"
             stroke-width="5"
             d="M 59.881001,129.321 C -147.67101,155.50101 -100.363,-168.755 85.190002,-143.069"
             id="path139" />
        </g>
        <g
           opacity="1"
           transform="translate(87.566002,145.97099)"
           id="g141">
          <path
             stroke-linecap="round"
             stroke-linejoin="round"
             fill-opacity="0"
             stroke="#8a2c01"
             stroke-opacity="1"
             stroke-width="5"
             d="M 102.681,157.04201 C -65.954002,172.549 -113.247,83.473 -118.921,-11.422 c -6.327,-111.473 93.543999,-243.44 238.902,-115.18"
             id="path140" />
        </g>
      </g>
      <g
         transform="matrix(-0.83978713,0.10681923,0.1031129,0.86997283,500.11002,141.78339)"
         opacity="1"
         style="display:block"
         id="g144">
        <g
           opacity="1"
           transform="translate(242.347,204.616)"
           id="g143">
          <path
             stroke-linecap="butt"
             stroke-linejoin="miter"
             fill-opacity="0"
             stroke-miterlimit="10"
             stroke="#8a2c01"
             stroke-opacity="1"
             stroke-width="10"
             d="m -3.878,-175.226 c -105.69,-0.10299 -192.484,22.566 -213.032,144.676001 -10.293,61.170999 9.16301,113.810001 27.47799,139.730999 32.84801,46.49001 64.48901,78.634 188.28901,69.207 81.400004,-6.198 149.497,-20.87601 186.3,-71.817 24.362,-33.721002 36.477,-86.12 29.33,-136.405999 C 197.755,-147.558 116.382,-175.10899 -3.878,-175.226 Z"
             id="path142" />
        </g>
      </g>
      <g
         transform="matrix(-0.7977978,0.10147827,0.09795725,0.82647419,490.98895,151.97826)"
         opacity="1"
         style="display:block"
         id="g146">
        <g
           opacity="1"
           transform="translate(242.347,204.616)"
           id="g145">
          <path
             stroke-linecap="round"
             stroke-linejoin="round"
             fill-opacity="0"
             stroke-dasharray="0, 46, 15"
             stroke-dashoffset="0"
             stroke="#ffffff"
             stroke-opacity="1"
             stroke-width="6"
             d="M -219.59801,9.3439999 C -218.8,33.148998 -213.758,54.396 -206.97701,71.991997"
             id="path144" />
        </g>
      </g>
      <g
         transform="matrix(-0.79503781,0.299869,0.28946435,0.82361501,289.74789,192.08911)"
         opacity="1"
         style="display:block"
         id="g149">
        <g
           opacity="1"
           transform="translate(35.022999,44.442001)"
           id="g148">
          <path
             fill="#009245"
             fill-opacity="1"
             d="M -34.772999,28.009001 C -24.070999,11.657 -16.766001,-15.992 -16.034,-43.380001 c 9.692,-0.812 19.4010001,-0.690998 28.95,0.360001 -1.08,26.184 6.216,42.58 17.552,65.425001 -0.021,0.021 -0.087,0.037 -0.071,0.072 10.494998,23.056999 -68.321,30.883999 -65.169999,5.532 z"
             id="path146" />
          <g
             opacity="1"
             id="g147" />
        </g>
      </g>
      <g
         transform="matrix(-0.79503781,0.299869,0.28946435,0.82361501,300.99689,167.0916)"
         opacity="1"
         style="display:block"
         id="g151">
        <g
           opacity="1"
           transform="translate(57.272999,59.653999)"
           id="g150">
          <path
             stroke-linecap="round"
             stroke-linejoin="round"
             fill-opacity="0"
             stroke="#006837"
             stroke-opacity="1"
             stroke-width="9"
             d="M -35.875999,43.735001 C -25.264,27.681999 -16.774,-8.6639996 -16.034,-36.341999 c 9.692,-0.812 19.4010001,-0.691002 28.95,0.360001 -1.08,26.1839977 7.938,45.6359983 19.273999,68.480999 -0.021,0.021 -0.039,0.051 -0.071,0.072"
             id="path149" />
        </g>
      </g>
      <g
         transform="matrix(-0.84315604,0.07297829,0.07044614,0.8734628,300.10208,241.56676)"
         opacity="1"
         style="display:block"
         id="g154">
        <g
           opacity="1"
           transform="translate(9.8149996,18.473)"
           id="g153">
          <path
             fill="#006837"
             fill-opacity="1"
             d="m -5.7740002,16.933001 c 0,0 0,0 0,0 C -9.5649996,14.86 -0.58200002,-5.4689999 1.062,-8.5319996 6.309,-18.222 9.566,-9.132 4.6350002,4.0419998 1.591,12.184 -3.4189999,18.222 -5.7740002,16.933001 Z"
             id="path151" />
          <g
             opacity="1"
             id="g152" />
        </g>
      </g>
      <g
         transform="matrix(-0.80510181,0.26951641,0.26016495,0.83404076,274.61679,248.91312)"
         opacity="1"
         style="display:block"
         id="g157">
        <g
           opacity="1"
           transform="translate(7.9070001,16.892)"
           id="g156">
          <path
             fill="#006837"
             fill-opacity="1"
             d="M -4.3200002,-16.455999 C -1.85,-16.642 -0.035,-10.491 2.783,-1.656 5.6849999,7.4450002 7.6570001,13.236 5.5879998,14.505 5.303,14.68 4.9749999,14.744 4.6149998,14.706 0.58200002,14.281 -7.586,1.118 -6.7859998,-10.899 c 0.1109996,-1.811 0.691,-5.556999 2.4659996,-5.556999 z"
             id="path154" />
          <g
             opacity="1"
             id="g155" />
        </g>
      </g>
      <g
         transform="matrix(1.4633832,-0.15957707,0.14920138,1.0668846,329.10089,366.7395)"
         opacity="1"
         style="display:block"
         id="g160">
        <g
           opacity="1"
           transform="translate(61.973,50.691002)"
           id="g159">
          <path
             fill="#ff9f47"
             fill-opacity="1"
             d="m -4.3249998,51.108002 c 0,0 0,0 0,0 C -25.962,49.478001 -35.773998,25.208 -32.891998,1.895 -29.565001,-25.014999 -28.791,23.143 4.4359999,23.143 38.084,23.143 34.380001,-24.834999 35.654999,-1.323 36.849998,20.722 23.749001,51.108002 -4.3249998,51.108002 Z"
             id="path157" />
          <g
             opacity="1"
             id="g158" />
        </g>
      </g>
      <g
         transform="matrix(1.5404035,-0.16797586,0.15705407,1.1230366,328.52301,360.54581)"
         opacity="1"
         style="display:block"
         id="g163">
        <g
           opacity="1"
           transform="translate(56.751999,48.312)"
           id="g162">
          <path
             fill="#bc5201"
             fill-opacity="1"
             d="m -1.191,48.173 c 0,0 0,0 0,0 -25.57,0 -32.967001,-36.581 -26.923,-47.56799998 C -23.216,-8.2980003 -28.177,22.01 2.7550001,22.01 33.599998,22.01 34.048,-23.096001 35.856998,3.0120001 37.661999,29.059 20.724001,47.519001 -1.191,48.173 Z"
             id="path160" />
          <g
             opacity="1"
             id="g161" />
        </g>
      </g>
      <g
         transform="matrix(1.5404035,-0.16797586,0.15705407,1.1230366,363.77429,377.18253)"
         opacity="1"
         style="display:block"
         id="g166">
        <g
           opacity="1"
           transform="translate(42.709999,38.632999)"
           id="g165">
          <path
             fill="#3e0702"
             fill-opacity="1"
             d="m -3.9649999,24.086 c 0,0 0,0 0,0 C -32.465,24.299999 -37.668999,-6.066 -34.377998,-8.3999996 -29.959,-11.534 -25.184,15.867 -3.2539999,14.079 19.889999,12.192 22.648001,-15.419 27.856001,-12.725 c 2.898998,1.499 -3.254002,37.409999 -31.8210009,36.811 z"
             id="path163" />
          <g
             opacity="1"
             id="g164" />
        </g>
      </g>
      <g
         transform="matrix(1.2278247,-0.08572178,0.02562971,0.28262162,366.46051,416.11893)"
         opacity="0.0390835"
         style="display:none"
         id="g168">
        <g
           opacity="1"
           transform="translate(33.521999,33.522999)"
           id="g167">
          <path
             stroke-linecap="butt"
             stroke-linejoin="miter"
             fill-opacity="0"
             stroke-miterlimit="10"
             stroke="#fcd621"
             stroke-opacity="1"
             stroke-width="20"
             d="M 21.023001,0 C 21.023001,11.611 11.61,21.023001 -0.001,21.023001 -11.611,21.023001 -21.023001,11.611 -21.023001,0 c 0,-11.611 9.412001,-21.023001 21.022001,-21.023001 11.611,0 21.024001,9.412001 21.024001,21.023001 z"
             id="path166" />
        </g>
      </g>
      <g
         transform="matrix(0.86791569,-0.06059438,0.01811695,0.19977753,378.79858,418.2894)"
         opacity="0.0390835"
         style="display:none"
         id="g170">
        <g
           opacity="1"
           transform="translate(33.521999,33.522999)"
           id="g169">
          <path
             stroke-linecap="butt"
             stroke-linejoin="miter"
             fill-opacity="0"
             stroke-miterlimit="10"
             stroke="#ffcd00"
             stroke-opacity="1"
             stroke-width="15"
             d="M 21.023001,0 C 21.023001,11.611 11.61,21.023001 -0.001,21.023001 -11.611,21.023001 -21.023001,11.611 -21.023001,0 c 0,-11.611 9.412001,-21.023001 21.022001,-21.023001 11.611,0 21.024001,9.412001 21.024001,21.023001 z"
             id="path168" />
        </g>
      </g>
      <g
         transform="matrix(0.86160505,-0.0601538,0.01798522,0.19832493,391.01694,420.07892)"
         opacity="0.0781671"
         style="display:none"
         id="g173">
        <g
           opacity="1"
           transform="translate(21.273001,21.273001)"
           id="g172">
          <path
             fill="#ffffff"
             fill-opacity="1"
             d="M 21.023001,0 C 21.023001,11.611 11.61,21.023001 -0.001,21.023001 -11.611,21.023001 -21.023001,11.611 -21.023001,0 c 0,-11.611 9.412001,-21.023001 21.022001,-21.023001 11.611,0 21.024001,9.412001 21.024001,21.023001 z"
             id="path170" />
          <g
             opacity="1"
             id="g171" />
        </g>
      </g>
      <g
         transform="matrix(-1.0975375,0.1196828,0.0998831,0.71422768,279.55566,392.20905)"
         opacity="1"
         style="display:block"
         id="g176">
        <g
           opacity="1"
           transform="translate(61.973,50.691002)"
           id="g175">
          <path
             fill="#ff9f47"
             fill-opacity="1"
             d="m 0.104,58.257999 c 0,0 0,0 0,0 C -28.216999,62.870998 -50.432999,24.371 -41.647999,0.018 -34.77,-19.047001 -47.014,23.851 -6.3080001,24.473 38.091999,25.150999 21.424999,-17.361 28.937,-10.828 47.730999,5.5149999 32.564999,55.462002 0.104,58.257999 Z"
             id="path173" />
          <g
             opacity="1"
             id="g174" />
        </g>
      </g>
      <g
         transform="matrix(-1.1553026,0.12598188,0.1051401,0.7518186,277.82288,387.95679)"
         opacity="1"
         style="display:block"
         id="g179">
        <g
           opacity="1"
           transform="translate(56.751999,48.312)"
           id="g178">
          <path
             fill="#bc5201"
             fill-opacity="1"
             d="m 0.41,51.061001 c 0,0 0,0 0,0 C -24.569,54.303001 -47.938,27.291 -38.111,0.61299998 -30.542999,-19.933001 -38.505001,20.444 -4.8569999,20.892 33.555,21.403 19.308001,-28.836 30.806999,-1.368 37.498001,14.616 27.275,47.950001 0.41,51.061001 Z"
             id="path176" />
          <g
             opacity="1"
             id="g177" />
        </g>
      </g>
      <g
         transform="matrix(-1.1553026,0.12598188,0.1051401,0.7518186,271.5849,401.64185)"
         opacity="1"
         style="display:block"
         id="g182">
        <g
           opacity="1"
           transform="translate(42.709999,38.632999)"
           id="g181">
          <path
             fill="#3e0702"
             fill-opacity="1"
             d="m 1.773,28.349001 c 0,0 0,0 0,0 C -30.907,28.799999 -33.801998,-9.6560001 -28.525999,-13.067 -24.054001,-15.958 -26.545,11.3 2.0899999,11.785 33.875999,12.323 29.584,-20.004 33.806,-14.301 38.740002,-7.638 37.521,28.181999 1.773,28.349001 Z"
             id="path179" />
          <g
             opacity="1"
             id="g180" />
        </g>
      </g>
      <g
         transform="matrix(0.67742646,-0.12686327,0.06213004,0.19671436,188.58293,427.16653)"
         opacity="0.0390835"
         style="display:none"
         id="g184">
        <g
           opacity="1"
           transform="translate(33.521999,33.522999)"
           id="g183">
          <path
             stroke-linecap="butt"
             stroke-linejoin="miter"
             fill-opacity="0"
             stroke-miterlimit="10"
             stroke="#fcd621"
             stroke-opacity="1"
             stroke-width="20"
             d="M 21.023001,0 C 21.023001,11.611 11.61,21.023001 -0.001,21.023001 -11.611,21.023001 -21.023001,11.611 -21.023001,0 c 0,-11.611 9.412001,-21.023001 21.022001,-21.023001 11.611,0 21.024001,9.412001 21.024001,21.023001 z"
             id="path182" />
        </g>
      </g>
      <g
         transform="matrix(0.4788543,-0.08967618,0.04391803,0.139052,195.90176,428.01694)"
         opacity="0.0390835"
         style="display:none"
         id="g186">
        <g
           opacity="1"
           transform="translate(33.521999,33.522999)"
           id="g185">
          <path
             stroke-linecap="butt"
             stroke-linejoin="miter"
             fill-opacity="0"
             stroke-miterlimit="10"
             stroke="#ffcd00"
             stroke-opacity="1"
             stroke-width="15"
             d="M 21.023001,0 C 21.023001,11.611 11.61,21.023001 -0.001,21.023001 -11.611,21.023001 -21.023001,11.611 -21.023001,0 c 0,-11.611 9.412001,-21.023001 21.022001,-21.023001 11.611,0 21.024001,9.412001 21.024001,21.023001 z"
             id="path184" />
        </g>
      </g>
      <g
         transform="matrix(0.47537249,-0.08902414,0.0435987,0.13804094,203.08888,428.60684)"
         opacity="0.0781671"
         style="display:none"
         id="g189">
        <g
           opacity="1"
           transform="translate(21.273001,21.273001)"
           id="g188">
          <path
             fill="#ffffff"
             fill-opacity="1"
             d="M 21.023001,0 C 21.023001,11.611 11.61,21.023001 -0.001,21.023001 -11.611,21.023001 -21.023001,11.611 -21.023001,0 c 0,-11.611 9.412001,-21.023001 21.022001,-21.023001 11.611,0 21.024001,9.412001 21.024001,21.023001 z"
             id="path186" />
          <g
             opacity="1"
             id="g187" />
        </g>
      </g>
      <g
         transform="matrix(0.81031275,-0.47419581,0.38330218,0.79080951,283.51505,260.80124)"
         opacity="0.33"
         style="display:block"
         id="g191">
        <g
           opacity="1"
           id="g190">
          <path
             fill="#8b2d01"
             fill-opacity="1"
             d="M -9.0799999,-74.888 C -13.535,-75.972 -17.961,-77.038002 -22.362,-78.042 c -1.932001,-0.441002 -3.86,-0.870003 -5.783,-1.282997 -0.505,-0.108002 -1.008999,-0.216003 -1.513001,-0.322006 -3.681999,-0.775994 -7.348,-1.490997 -11.001999,-2.119995 -2.728,-0.469002 -5.450001,-0.890999 -8.166,-1.252999 -19.071003,-2.543007 -37.869999,-2.177002 -56.848,4.82 -32.018,11.805 -67.918,44.285996 -71.918,75.285997 15.06501,-22.571001 67.221,-71.067003 126.89,-58.19 7.007,1.512001 14.117001,3.870998 21.282999,7.216999 6.972,3.255001 13.697001,6.002003 20.1850008,8.327 8.76500019,3.141002 17.0950003,5.508003 25.0050002,7.308002 43.837002,9.974999 74.785,2.516998 95.579,12.631998 C 83.985001,-44.967999 29.17,-65.581001 -9.0799999,-74.888 Z"
             id="path189" />
        </g>
      </g>
      <g
         transform="matrix(-0.79503781,0.299869,0.28946435,0.82361501,300.99689,167.0916)"
         opacity="1"
         style="display:block"
         id="g193">
        <g
           opacity="1"
           transform="translate(57.272999,59.653999)"
           id="g192">
          <path
             fill="#2e712f"
             fill-opacity="1"
             d="M 0,0"
             id="path191" />
          <path
             stroke-linecap="round"
             stroke-linejoin="round"
             fill-opacity="0"
             stroke="#2e5525"
             stroke-opacity="1"
             stroke-width="9"
             d="M 0,0"
             id="path192" />
        </g>
      </g>
      <g
         transform="matrix(-0.79503781,0.299869,0.28946435,0.82361501,300.99689,167.0916)"
         opacity="1"
         style="display:block"
         id="g195">
        <g
           opacity="1"
           transform="translate(57.272999,59.653999)"
           id="g194">
          <path
             fill="#009245"
             fill-opacity="1"
             d="m -19.695,-3.8369999 c 2.077,-11.0490001 3.39,-22.3589991 3.661,-32.5049991 9.692,-0.812 19.4010001,-0.691002 28.95,0.360001 -0.54,13.085998 1.443,24.490998 4.976,35.47899798"
             id="path193" />
          <path
             stroke-linecap="round"
             stroke-linejoin="round"
             fill-opacity="0"
             stroke="#006837"
             stroke-opacity="1"
             stroke-width="9"
             d="m -19.695,-3.8369999 c 2.077,-11.0490001 3.39,-22.3589991 3.661,-32.5049991 9.692,-0.812 19.4010001,-0.691002 28.95,0.360001 -0.54,13.085998 1.443,24.490998 4.976,35.47899798"
             id="path194" />
        </g>
      </g>
      <g
         transform="matrix(1.0436426,-0.11380574,-0.09497831,-0.67915529,163.19917,403.57739)"
         opacity="1"
         style="display:block"
         id="g198">
        <g
           opacity="1"
           transform="translate(36.819,27.033001)"
           id="g197">
          <path
             fill="#590902"
             fill-opacity="1"
             d="m -34.733002,-2.517 c 0,0 0,0 0,0 -1.835998,-2.5340001 2.638001,-9.738 11.468003,-13.191 28.3159991,-11.075001 47.078998,3.117 56.538997,26.415 C 36.368999,18.329 40.083,25.375 35.763,30.642 31.103001,36.324001 26.524,30.311001 21.778999,24.26 9.6529999,8.7980003 -1.763,0.017 -22.673,3.7980001 -29.754,5.079 -33.070999,-0.19499999 -34.733002,-2.517 Z"
             id="path195" />
          <g
             opacity="1"
             id="g196" />
        </g>
      </g>
      <g
         transform="matrix(-1.2002978,0.13088848,-0.12237811,-0.8750813,476.84183,370.84146)"
         opacity="1"
         style="display:block"
         id="g201">
        <g
           opacity="1"
           transform="translate(36.819,27.033001)"
           id="g200">
          <path
             fill="#590902"
             fill-opacity="1"
             d="m -34.733002,-2.517 c 0,0 0,0 0,0 -1.835998,-2.5340001 -4.035999,-8.006 13.716002,-12.961 20.965,-5.852 44.84,6.6700004 54.857,26.819 3.661999,7.366001 2.729,13.336999 0.084,14.399 C 31.299999,26.783001 28.042,23.819 22.337,18.664 11.777,9.1219997 0.88,1.749 -21.941999,-1.377 c -7.129,-0.9770001 -11.129,1.18200001 -12.791003,-1.14 z"
             id="path198" />
          <g
             opacity="1"
             id="g199" />
        </g>
      </g>
      <g
         transform="matrix(-0.40425652,0.02459916,0.01582867,0.25966007,379.00522,451.22195)"
         opacity="1"
         style="display:block"
         id="g204">
        <g
           opacity="1"
           transform="translate(129.453,65.831001)"
           id="g203">
          <path
             fill="#ff9f48"
             fill-opacity="1"
             d="M 2.171,95.103996 C -84.123001,87.107002 -102.951,8.4860001 -111.463,-56.873001 c -2.138,-7.387001 4.009,-18.783997 10.896,-17.830002 C -59.219002,3.398 7.5159998,55.235001 92.728996,-62.358002 99.716003,-63.080002 106.216,-51.867001 104.561,-43.993999 97.796997,20.254 74.651001,101.821 2.171,95.103996 Z"
             id="path201" />
          <g
             opacity="1"
             id="g202" />
        </g>
      </g>
      <g
         transform="matrix(-0.39815292,0.02422776,0.01558968,0.25573957,378.2049,449.31219)"
         opacity="1"
         style="display:block"
         id="g207">
        <g
           opacity="1"
           transform="translate(129.36301,65.467003)"
           id="g206">
          <path
             fill="#bc5201"
             fill-opacity="1"
             d="M 8.059,91.339996 C -69.360001,91.085999 -103.024,14.413 -111.03,-49.962002 c -2.166,-7.088997 2.849,-14.425998 10.478,-13.604999 C -65.279999,4.6129999 7.9510002,58.18 94.085999,-54.486 101.112,-55.423 107.222,-47.418999 104.572,-40.462002 96.774002,23.200001 66.783997,91.532997 8.059,91.339996 Z"
             id="path204" />
          <g
             opacity="1"
             id="g205" />
        </g>
      </g>
      <g
         transform="matrix(-0.39815292,0.02422776,0.01558968,0.25573957,368.74783,454.63174)"
         opacity="1"
         style="display:block"
         id="g210">
        <g
           opacity="1"
           transform="translate(104.866,46.966999)"
           id="g209">
          <path
             fill="#3e0702"
             fill-opacity="1"
             d="M 92.625999,-51.560001 C 96.439003,-56.893002 104.511,-48.330002 102.553,-42.673 94.865997,1.267 52.147999,35.375 -1.187,35.370998 -54.583,35.367001 -97.248001,1.347 -104.949,-43.016998 c -2.226,-6.054001 3.509,-11.229 9.795001,-8.881001 47.652,79.050999 132.080997,78.255999 187.779998,0.337998 z"
             id="path207" />
          <g
             opacity="1"
             id="g208" />
        </g>
      </g>
      <g
         transform="matrix(-0.37236312,0.10084781,0.16683894,0.28799877,361.06705,456.2261)"
         opacity="1"
         style="display:block"
         id="g213">
        <g
           opacity="1"
           transform="translate(30.174,22.471001)"
           id="g212">
          <path
             fill="#ff8300"
             fill-opacity="1"
             d="m -29.924,-22.221001 c 0,0 23.509,40.561001 23.509,40.561001 1.395,2.406 3.971,3.881001 6.75200001,3.865999 C 3.118,22.191 5.6789999,20.688 7.0469999,18.266001 c 0,0 22.8770001,-40.487002 22.8770001,-40.487002 z"
             id="path210" />
          <g
             opacity="1"
             id="g211" />
        </g>
      </g>
      <g
         transform="matrix(-0.37550613,-0.06843969,-0.15588519,0.30198368,321.40674,465.34409)"
         opacity="1"
         style="display:block"
         id="g216">
        <g
           opacity="1"
           transform="translate(30.174,22.471001)"
           id="g215">
          <path
             fill="#ff8300"
             fill-opacity="1"
             d="m -29.924,-22.221001 c 0,0 23.509,40.561001 23.509,40.561001 1.395,2.406 3.971,3.881001 6.75200001,3.865999 C 3.118,22.191 5.6789999,20.688 7.0469999,18.266001 c 0,0 22.8770001,-40.487002 22.8770001,-40.487002 z"
             id="path213" />
          <g
             opacity="1"
             id="g214" />
        </g>
      </g>
      <g
         transform="matrix(-0.73136151,-0.11529063,-0.10453817,0.73398358,200.13298,216.33722)"
         opacity="1"
         style="display:block"
         id="g218">
        <g
           opacity="1"
           transform="translate(128.48199,116.499)"
           id="g217">
          <path
             fill="#dcf8ff"
             fill-opacity="1"
             d="M 38.074429,6.474143 C 47.420856,-27.451571 38.963215,-40.674 30.161215,-49.141998 18.478214,-60.381001 2.2505,-59.772858 -9.4355001,-65.130859 c -12.6609999,-5.806 -20.1577869,14.006 -8.3779989,24.505001 12.2460704,10.908716 18.55407044,14.506429 34.988927,25.314572"
             id="path216" />
          <path
             stroke-linecap="butt"
             stroke-linejoin="miter"
             fill-opacity="0"
             stroke-miterlimit="10"
             stroke="#25c4f8"
             stroke-opacity="1"
             stroke-width="10"
             d="M 38.074429,6.474143 C 47.420856,-27.451571 38.963215,-40.674 30.161215,-49.141998 18.478214,-60.381001 2.2505,-59.772858 -9.4355001,-65.130859 c -12.6609999,-5.806 -20.1577869,14.006 -8.3779989,24.505001 12.2460704,10.908716 18.55407044,14.506429 34.988927,25.314572"
             id="path217" />
        </g>
      </g>
      <g
         transform="matrix(-0.71499717,-0.18385293,-0.17325447,0.72308803,197.08719,229.37035)"
         opacity="1"
         style="display:block"
         id="g220">
        <g
           opacity="1"
           transform="translate(128.48199,116.499)"
           id="g219">
          <path
             stroke-linecap="round"
             stroke-linejoin="round"
             fill-opacity="0"
             stroke="#25c4f8"
             stroke-opacity="1"
             stroke-width="20"
             d="m -58.806,27.205 c 8.361,-28.989 14.299999,-27.74500002 20.215,-30.3810001 19.869,-8.8549999 -7.785999,-15.2460009 5.564999,1.3420001 7.401001,9.196 -3.607998,-4.318 -3.092998,-1.686 0.390998,1.995 1.509998,4.31400003 4.075,5.007 C -27.676001,2.668 -19.118,-0.866 -2.832,-18.745001 8.335,-31.004999 28.05304,-22.299999 15.984,-6.862 15.533,-6.2849998 15.208,-5.684 15.002,-5.0970001 13.893,-1.931 15.146,-3.233 19.989,-6.5910001 35.595001,-20.714001 60.319332,-39.714523 84.288956,-49.746452 97.944366,-55.46172 107.93679,-33.524635 94.564865,-27.156944 75.976532,-18.305864 46.519001,0.1 42.557999,5.7579999 38.597,11.417 41.646999,15.91 49.257,12.143 58.480038,7.5780001 75.848091,-5.0741887 90.91655,-9.262044 103.93701,-12.880479 112.4254,8.0103073 96.689667,14.765339 74.505585,24.288372 56.665001,35.359001 41.337002,54.145 35.081001,61.849998 18.275999,79.419998 -7.5900002,83.401001 -16.993,84.848 -12.306456,84.370651 -20.847456,79.38765 c -8.396,-4.898003 -7.677544,2.131691 -16.511541,-1.330307 -6.241001,-2.446 -5.658425,-0.658226 -15.077423,-4.130227 -8.019001,-2.954994 -15.627949,2.687226 -8.315949,-14.737774 C -56.121368,48.153343 -64.644997,47.450001 -58.806,27.205 Z"
             id="path218" />
          <path
             fill="#dcf8ff"
             fill-opacity="1"
             d="m -58.806,27.205 c 8.361,-28.989 14.299999,-27.74500002 20.215,-30.3810001 19.869,-8.8549999 -7.785999,-15.2460009 5.564999,1.3420001 7.401001,9.196 -3.607998,-4.318 -3.092998,-1.686 0.390998,1.995 1.509998,4.31400003 4.075,5.007 C -27.676001,2.668 -19.118,-0.866 -2.832,-18.745001 8.335,-31.004999 28.05304,-22.299999 15.984,-6.862 15.533,-6.2849998 15.208,-5.684 15.002,-5.0970001 13.893,-1.931 15.146,-3.233 19.989,-6.5910001 35.595001,-20.714001 60.319332,-39.714523 84.288956,-49.746452 97.944366,-55.46172 107.93679,-33.524635 94.564865,-27.156944 75.976532,-18.305864 46.519001,0.1 42.557999,5.7579999 38.597,11.417 41.646999,15.91 49.257,12.143 58.480038,7.5780001 75.848091,-5.0741887 90.91655,-9.262044 103.93701,-12.880479 112.4254,8.0103073 96.689667,14.765339 74.505585,24.288372 56.665001,35.359001 41.337002,54.145 35.081001,61.849998 18.275999,79.419998 -7.5900002,83.401001 -16.993,84.848 -12.306456,84.370651 -20.847456,79.38765 c -8.396,-4.898003 -7.677544,2.131691 -16.511541,-1.330307 -6.241001,-2.446 -5.658425,-0.658226 -15.077423,-4.130227 -8.019001,-2.954994 -15.627949,2.687226 -8.315949,-14.737774 C -56.121368,48.153343 -64.644997,47.450001 -58.806,27.205 Z"
             id="path219" />
        </g>
      </g>
      <g
         transform="matrix(1.0018892,-0.03331025,0.04800973,0.9942559,255.69946,263.22372)"
         opacity="1"
         style="display:none"
         id="g222">
        <g
           opacity="1"
           id="g221">
          <path
             stroke-linecap="round"
             stroke-linejoin="round"
             fill-opacity="0"
             stroke="#26c4f8"
             stroke-opacity="1"
             stroke-width="8"
             d="m -155.75,-18.75 c 3.25,-2.75 5.25,-5 7.5,-7.5 2.25,-2.5 2.25,-11.5 7.5,-19.75"
             id="path220" />
        </g>
      </g>
      <g
         transform="matrix(1.091898,-0.37228701,0.3856318,1.1298481,303.4743,303.64825)"
         opacity="1"
         style="display:block"
         id="g224">
        <g
           opacity="1"
           id="g223">
          <path
             fill="#dcf8ff"
             fill-opacity="1"
             d="m -201.74425,-26.532398 c -8.37506,23.7398534 -3.40165,36.547142 3.94675,36.605275 14.55003,4.051598 5.31039,8.900197 11.81039,8.400197 6.5,-0.5 7.01047,-14.7259131 15.01047,-13.2259131 8.9,1.6690002 12.54064,-3.1160142 19.88539,-34.1130969"
             id="path222" />
          <path
             stroke-linecap="round"
             stroke-linejoin="round"
             fill-opacity="0"
             stroke="#26c4f8"
             stroke-opacity="1"
             stroke-width="6"
             d="m -201.74425,-26.532398 c -8.37506,23.7398534 -3.40165,36.547142 3.94675,36.605275 14.55003,4.051598 5.31039,8.900197 11.81039,8.400197 6.5,-0.5 7.01047,-14.7259131 15.01047,-13.2259131 8.9,1.6690002 12.54064,-3.1160142 19.88539,-34.1130969"
             id="path223" />
        </g>
      </g>
      <g
         transform="matrix(0.76893079,-0.3410168,0.27180856,0.72466898,10.369907,173.16673)"
         opacity="1"
         style="display:none"
         id="g226">
        <g
           opacity="1"
           transform="translate(289.46899,132.767)"
           id="g225">
          <path
             fill="#725696"
             fill-opacity="1"
             d="m -158.97911,-40.058392 c 35.29011,9.263501 76.323074,21.369364 133.738857,24.036309 37.755579,1.810071 83.310443,-0.419318 141.232543,-10.921833 86.93767,-15.710003 140.49431,-33.118489 135.90891,-38.396744 -4.95586,-5.704598 -180.499566,73.6157044 -362.61749,22.37122 -126.45237,-38.990941 -176.13048,-29.760624 -48.26282,2.911048 z"
             id="path224" />
          <path
             stroke-linecap="round"
             stroke-linejoin="round"
             fill-opacity="0"
             stroke="#523577"
             stroke-opacity="1"
             stroke-width="10"
             d="m -158.97911,-40.058392 c 35.29011,9.263501 76.323074,21.369364 133.738857,24.036309 37.755579,1.810071 83.310443,-0.419318 141.232543,-10.921833 86.93767,-15.710003 140.49431,-33.118489 135.90891,-38.396744 -4.95586,-5.704598 -180.499566,73.6157044 -362.61749,22.37122 -126.45237,-38.990941 -176.13048,-29.760624 -48.26282,2.911048 z"
             id="path225" />
        </g>
      </g>
      <g
         transform="matrix(0.74854857,-0.22667861,0.17369461,0.709158,39.102673,145.06912)"
         opacity="0.5"
         style="display:none"
         id="g228">
        <g
           opacity="1"
           transform="translate(289.46899,132.767)"
           id="g227">
          <path
             stroke-linecap="round"
             stroke-linejoin="round"
             fill-opacity="0"
             stroke-dasharray="0, 95, 15"
             stroke-dashoffset="0"
             stroke="#a986d6"
             stroke-opacity="1"
             stroke-width="6"
             d="M 79.291,8.625 C 89.862999,7.3699999 100.686,5.7979999 111.761,3.8770001 151.054,-2.95 187.90601,-9.6379995 215.35899,-17.889"
             id="path226" />
        </g>
      </g>
      <g
         transform="matrix(0.63250643,-0.58132148,0.49726331,0.55517203,24.584585,117.25395)"
         opacity="1"
         style="display:block"
         id="g230">
        <g
           opacity="1"
           transform="translate(157.39799,105.727)"
           id="g229">
          <path
             fill="#725696"
             fill-opacity="1"
             d="M 57.278,85.726997 C 39.050999,50.723 31.363001,-16.145 5.9920001,-42.32 -19.040001,-68.143997 -69.593002,-107.429 -103.911,-116.714 c 18.682004,18.947002 39.010998,48.760997 31.851002,63.900001 C -102.382,11.303 -107.03,31.584 -137.39799,82.516998"
             id="path228" />
          <path
             stroke-linecap="round"
             stroke-linejoin="round"
             fill-opacity="0"
             stroke="#523577"
             stroke-opacity="1"
             stroke-width="10"
             d="M 57.278,85.726997 C 39.050999,50.723 31.363001,-16.145 5.9920001,-42.32 -19.040001,-68.143997 -69.593002,-107.429 -103.911,-116.714 c 18.682004,18.947002 39.010998,48.760997 31.851002,63.900001 C -102.382,11.303 -107.03,31.584 -137.39799,82.516998"
             id="path229" />
        </g>
      </g>
      <g
         transform="matrix(0.63250643,-0.58132148,0.49726331,0.55517203,24.584585,117.25395)"
         opacity="0.33"
         style="display:block"
         id="g232">
        <g
           opacity="1"
           transform="translate(157.39799,105.727)"
           id="g231">
          <path
             fill="#523577"
             fill-opacity="1"
             d="M -1.1569999,104.844 C -19.384001,69.839996 -50.186001,2.171 -52.368999,-17.417999 c -3.982003,-35.744 26.703998,-44.433003 -45.397999,-95.174001 26.623001,49.775998 31.517997,38.725003 20.018997,65.739999 C -102.276,10.774 -107.03,31.584 -137.39799,82.516998"
             id="path230" />
        </g>
      </g>
      <g
         transform="matrix(0.63250643,-0.58132148,0.49726331,0.55517203,80.788277,203.2124)"
         opacity="1"
         style="display:block"
         id="g234">
        <g
           opacity="1"
           transform="translate(130.43201,60.952999)"
           id="g233">
          <path
             fill="#482e6a"
             fill-opacity="1"
             d="M -103.15,-3.2190001 C -110.431,15.712 -61.890999,27.362 -10.437,34.158001 41.016998,40.953999 110.431,26.877001 108.489,8.9160004 101.693,-7.5879998 100.761,-8.6800003 89.331001,-31.454 84.698997,-50.82 -61.352001,-61.868999 -75.518997,-40.953999 -91.538002,-12.8 -82.277,-23.606001 -103.15,-3.2190001 Z"
             id="path232" />
          <path
             stroke-linecap="round"
             stroke-linejoin="round"
             fill-opacity="0"
             stroke="#281742"
             stroke-opacity="1"
             stroke-width="10"
             d="M -103.15,-3.2190001 C -110.431,15.712 -61.890999,27.362 -10.437,34.158001 41.016998,40.953999 110.431,26.877001 108.489,8.9160004 101.693,-7.5879998 100.761,-8.6800003 89.331001,-31.454 84.698997,-50.82 -61.352001,-61.868999 -75.518997,-40.953999 -91.538002,-12.8 -82.277,-23.606001 -103.15,-3.2190001 Z"
             id="path233" />
        </g>
      </g>
      <g
         transform="matrix(0.66865134,-0.53720385,0.40273425,0.53816891,108.13551,165.17026)"
         opacity="1"
         style="display:block"
         id="g236">
        <g
           opacity="1"
           transform="translate(63.002998,59.188999)"
           id="g235">
          <path
             fill="#ffbc00"
             fill-opacity="1"
             d="m 21.086,37.362 c 0,0 -44.766,2.718002 -44.766,2.718002 C -33.601002,39.737999 -41.381001,31.871 -41.057999,22.51 c 0,0 1.677998,-60.219 1.677998,-60.219 0.323002,-9.361 8.627001,-16.672001 18.548,-16.330001 0,0 44.766001,-2.717 44.766001,-2.717 9.92,0.343003 17.700998,8.209 17.377001,17.571 0,0 -1.677002,60.218002 -1.677002,60.218002 C 39.311001,30.393999 31.007,37.705002 21.086,37.362 Z m 1.800999,-76.437001 c 0,0 -44.483999,2.727001 -44.483999,2.727001 0,0 -1.639,59.277001 -1.639,59.277001 0,0 44.486,-2.727001 44.486,-2.727001 z"
             id="path234" />
          <path
             stroke-linecap="round"
             stroke-linejoin="round"
             fill-opacity="0"
             stroke="#ff8300"
             stroke-opacity="1"
             stroke-width="5"
             d="m 21.086,37.362 c 0,0 -44.766,2.718002 -44.766,2.718002 C -33.601002,39.737999 -41.381001,31.871 -41.057999,22.51 c 0,0 1.677998,-60.219 1.677998,-60.219 0.323002,-9.361 8.627001,-16.672001 18.548,-16.330001 0,0 44.766001,-2.717 44.766001,-2.717 9.92,0.343003 17.700998,8.209 17.377001,17.571 0,0 -1.677002,60.218002 -1.677002,60.218002 C 39.311001,30.393999 31.007,37.705002 21.086,37.362 Z m 1.800999,-76.437001 c 0,0 -44.483999,2.727001 -44.483999,2.727001 0,0 -1.639,59.277001 -1.639,59.277001 0,0 44.486,-2.727001 44.486,-2.727001 z"
             id="path235" />
        </g>
      </g>
      <g
         transform="matrix(0.66837001,-0.53757942,0.44790256,0.59762782,-19.523163,291.30405)"
         opacity="1"
         style="display:block"
         id="g238">
        <g
           opacity="1"
           transform="translate(289.46899,132.767)"
           id="g237">
          <path
             fill="#977abd"
             fill-opacity="1"
             d="m -172.72501,-108.591 c 31.558,3.018 62.48401,12.971997 111.261009,15.746998 36.526001,2.078003 83.063002,0.131005 147.371998,-11.768998 88.487003,-16.374 155.097003,-15.81 155.973003,3.431 0.947,20.794999 -190.195999,109.4940003 -368.25,74.748999 -96.20501,-18.773 -164.85701,-93.488999 -46.35601,-82.157999 z"
             id="path236" />
          <path
             stroke-linecap="round"
             stroke-linejoin="round"
             fill-opacity="0"
             stroke="#725696"
             stroke-opacity="1"
             stroke-width="10"
             d="m -172.72501,-108.591 c 31.558,3.018 62.48401,12.971997 111.261009,15.746998 36.526001,2.078003 83.063002,0.131005 147.371998,-11.768998 88.487003,-16.374 155.097003,-15.81 155.973003,3.431 0.947,20.794999 -190.195999,109.4940003 -368.25,74.748999 -96.20501,-18.773 -164.85701,-93.488999 -46.35601,-82.157999 z"
             id="path237" />
        </g>
      </g>
      <g
         transform="matrix(-0.72028816,-0.17896298,-0.1665493,0.7206189,196.98582,229.02974)"
         opacity="0.99"
         style="display:block"
         id="g240">
        <g
           opacity="1"
           transform="translate(128.48199,116.499)"
           id="g239">
          <path
             fill="#dcf8ff"
             fill-opacity="1"
             d="m -71.888,51.821999 c 14.638999,-53.623999 33.227001,-65.553999 36.486,-79.571 0.749,-3.219999 1.257999,-6.399997 1.314998,-9.619998 0.383003,-21.75 14.000002,-33.522 28.989002,-18.397 5.85500003,5.909001 6.489,15.424 5.40899999,24.470999 C -1.076,-19.681 -9.7989998,0.505 -10.031,1.995 c -0.334,2.1410002 6.2210001,12.565 7.959,25.394999"
             id="path238" />
          <path
             stroke-linecap="round"
             stroke-linejoin="round"
             fill-opacity="0"
             stroke="#25c4f8"
             stroke-opacity="1"
             stroke-width="10"
             d="m -71.888,51.821999 c 14.638999,-53.623999 33.227001,-65.553999 36.486,-79.571 0.749,-3.219999 1.257999,-6.399997 1.314998,-9.619998 0.383003,-21.75 14.000002,-33.522 28.989002,-18.397 5.85500003,5.909001 6.489,15.424 5.40899999,24.470999 C -1.076,-19.681 -9.7989998,0.505 -10.031,1.995 c -0.334,2.1410002 6.2210001,12.565 7.959,25.394999"
             id="path239" />
        </g>
      </g>
      <g
         transform="matrix(0.30766448,-0.26550379,0.1826849,0.22183393,111.76266,237.93362)"
         opacity="1"
         style="display:block"
         id="g242">
        <g
           opacity="1"
           transform="translate(289.46899,132.767)"
           id="g241">
          <path
             fill="#523577"
             fill-opacity="1"
             d="m -169.315,-93.114998 c 31.70199,-0.067 59.074,-2.504005 107.850999,0.270996 36.526001,2.078003 81.150002,1.772003 141.515004,-6.545997 C 173.326,-112.242 228.481,-116.884 232.248,-107.043 c 3.476,9.079003 12.286,28.473 -83.981,60.452 -69.505998,23.090001 -178.052999,24.736 -274.636,20.157999 -98.99401,-4.691999 -131.59001,-66.494001 -42.946,-66.681997 z"
             id="path240" />
          <path
             stroke-linecap="round"
             stroke-linejoin="round"
             fill-opacity="0"
             stroke="#523577"
             stroke-opacity="1"
             stroke-width="10"
             d="m -169.315,-93.114998 c 31.70199,-0.067 59.074,-2.504005 107.850999,0.270996 36.526001,2.078003 81.150002,1.772003 141.515004,-6.545997 C 173.326,-112.242 228.481,-116.884 232.248,-107.043 c 3.476,9.079003 12.286,28.473 -83.981,60.452 -69.505998,23.090001 -178.052999,24.736 -274.636,20.157999 -98.99401,-4.691999 -131.59001,-66.494001 -42.946,-66.681997 z"
             id="path241" />
        </g>
      </g>
      <g
         transform="matrix(-0.69615376,-0.21614359,-0.18448544,0.74564695,208.5681,143.21831)"
         opacity="1"
         style="display:none"
         id="g244">
        <g
           opacity="1"
           transform="translate(128.48199,116.499)"
           id="g243">
          <path
             fill="#dcf8ff"
             fill-opacity="1"
             d="M 35.548,-45.543999 C 33.945,-47.958 32.157001,-50.021 30.311001,-51.797001 18.628,-63.035999 9.0790005,-65.931999 -4.454,-67.467003 c -13.840001,-1.57 -20.682999,14.609001 -8.378,24.505001 C 0.073,-32.583 9.1619997,-29.865999 27.915001,-25.84"
             id="path242" />
          <path
             stroke-linecap="round"
             stroke-linejoin="round"
             fill-opacity="0"
             stroke="#26c4f8"
             stroke-opacity="1"
             stroke-width="10"
             d="M 35.548,-45.543999 C 33.945,-47.958 32.157001,-50.021 30.311001,-51.797001 18.628,-63.035999 9.0790005,-65.931999 -4.454,-67.467003 c -13.840001,-1.57 -20.682999,14.609001 -8.378,24.505001 C 0.073,-32.583 9.1619997,-29.865999 27.915001,-25.84"
             id="path243" />
        </g>
      </g>
      <g
         transform="matrix(-0.83978713,0.10681923,0.1031129,0.86997283,500.11002,141.78339)"
         opacity="1"
         style="display:block"
         id="g246">
        <g
           opacity="1"
           transform="translate(242.347,204.616)"
           id="g245">
          <path
             fill="#d96700"
             fill-opacity="1"
             d="M 184.15199,-111.166 C 161.494,-141.85699 128.036,-158.957 85.896004,-167.618"
             id="path244" />
          <path
             stroke-linecap="round"
             stroke-linejoin="round"
             fill-opacity="0"
             stroke="#8a2c01"
             stroke-opacity="1"
             stroke-width="10"
             d="M 184.15199,-111.166 C 161.494,-141.85699 128.036,-158.957 85.896004,-167.618"
             id="path245" />
        </g>
      </g>
    </g>
  </g>
</svg>
