<?xml version="1.0" encoding="UTF-8"?>
<svg width="364" height="364" version="1.1" viewBox="0 0 96.308 96.308" xmlns="http://www.w3.org/2000/svg" xmlns:cc="http://creativecommons.org/ns#" xmlns:dc="http://purl.org/dc/elements/1.1/" xmlns:rdf="http://www.w3.org/1999/02/22-rdf-syntax-ns#" xmlns:xlink="http://www.w3.org/1999/xlink">
 <title>Photoelectric effect in a solid - schematic diagram</title>
 <defs>
  <marker id="i" overflow="visible" orient="auto">
   <path transform="matrix(-.4 0 0 -.4 -4 0)" d="m0 0 5-5-17.5 5 17.5 5z" fill="#1a1a1a" fill-rule="evenodd" stroke="#1a1a1a" stroke-width="1pt"/>
  </marker>
  <marker id="h" overflow="visible" orient="auto">
   <path transform="matrix(-.4 0 0 -.4 -4 0)" d="m0 0 5-5-17.5 5 17.5 5z" fill="#025" fill-rule="evenodd" stroke="#025" stroke-width="1pt"/>
  </marker>
  <radialGradient id="g" cx="80.68" cy="137.15" r="2.712" gradientTransform="matrix(.61804 .35683 -.37884 .65617 5.3455 35.141)" gradientUnits="userSpaceOnUse">
   <stop stop-color="#1aff48" offset="0"/>
   <stop stop-color="#008000" offset="1"/>
  </radialGradient>
  <radialGradient id="f" cx="82.116" cy="134.43" r="2.712" gradientTransform="matrix(.59515 .34361 -.36481 .63187 -4.6228 39.496)" gradientUnits="userSpaceOnUse">
   <stop stop-color="#fc0" offset="0"/>
   <stop stop-color="#e00000" offset="1"/>
  </radialGradient>
 </defs>
 <metadata>
  <rdf:RDF>
   <cc:Work rdf:about="">
    <dc:format>image/svg+xml</dc:format>
    <dc:type rdf:resource="http://purl.org/dc/dcmitype/StillImage"/>
    <dc:title>Photoelectric effect in a solid - schematic diagram</dc:title>
    <cc:license rdf:resource="http://creativecommons.org/licenses/by-sa/4.0/"/>
    <dc:date>2020-07-28</dc:date>
    <dc:creator>
     <cc:Agent>
      <dc:title>Ivo Pletikosic</dc:title>
     </cc:Agent>
    </dc:creator>
    <dc:subject>
     <rdf:Bag>
      <rdf:li>photoelectric effect</rdf:li>
      <rdf:li>photoemission</rdf:li>
      <rdf:li>condensed matter physics</rdf:li>
     </rdf:Bag>
    </dc:subject>
    <dc:description>Photoelectric effect in a solid: ultraviolet light ejects electrons from a crystal.</dc:description>
   </cc:Work>
   <cc:License rdf:about="http://creativecommons.org/licenses/by-sa/4.0/">
    <cc:permits rdf:resource="http://creativecommons.org/ns#Reproduction"/>
    <cc:permits rdf:resource="http://creativecommons.org/ns#Distribution"/>
    <cc:requires rdf:resource="http://creativecommons.org/ns#Notice"/>
    <cc:requires rdf:resource="http://creativecommons.org/ns#Attribution"/>
    <cc:permits rdf:resource="http://creativecommons.org/ns#DerivativeWorks"/>
    <cc:requires rdf:resource="http://creativecommons.org/ns#ShareAlike"/>
   </cc:License>
  </rdf:RDF>
 </metadata>
 <g transform="translate(12.992 -49.553)">
  <rect x="-4.8163" y="121.84" width="80.698" height="19.05" rx=".73585" ry=".7723" fill="#dbe3e2" stop-color="#000000" stroke="#bec8b7" stroke-width=".26458" style="paint-order:fill markers stroke"/>
  <g fill="#fff" stroke="#fff" stroke-width=".26458">
   <circle cx="38.111" cy="124.59" r="1.7198" stop-color="#000000" style="paint-order:fill markers stroke"/>
   <circle cx="39.669" cy="122.69" r="1.7198" stop-color="#000000" style="paint-order:fill markers stroke"/>
  </g>
  <use transform="translate(44.442 -28.155)" width="100%" height="100%" opacity=".4" xlink:href="#a"/>
  <circle id="b" cx="3.5719" cy="152.74" r="1.7859" fill="url(#g)" stop-color="#000000" stroke="#333" stroke-width=".39688" style="paint-order:fill markers stroke"/>
  <circle id="a" cx="-6.3308" cy="152.74" r="1.7198" fill="url(#f)" stop-color="#000000" stroke="#ff6700" stroke-width=".26458" style="paint-order:fill markers stroke"/>
  <g id="c" transform="translate(-78.321 .3026)">
   <use transform="translate(92.574 -24.591)" width="100%" height="100%" xlink:href="#a"/>
   <use transform="translate(89.947 -15.894)" width="100%" height="100%" xlink:href="#a"/>
   <g transform="translate(1.9858 -14.764)">
    <use transform="translate(73.288 -5.916)" width="100%" height="100%" xlink:href="#b"/>
    <use transform="translate(74.29 -8.9654)" width="100%" height="100%" xlink:href="#b"/>
    <use transform="translate(78.726 -7.4314)" width="100%" height="100%" xlink:href="#b"/>
    <use transform="translate(77.734 -4.7797)" width="100%" height="100%" xlink:href="#b"/>
    <use transform="translate(74.76 -4.6916)" width="100%" height="100%" xlink:href="#b"/>
    <use transform="translate(75.675 -7.1949)" width="100%" height="100%" xlink:href="#b"/>
    <use transform="translate(76.818 -9.663)" width="100%" height="100%" xlink:href="#b"/>
   </g>
   <use transform="translate(89.302 -22.473)" width="100%" height="100%" xlink:href="#a"/>
   <use transform="translate(87.085 -29.058)" width="100%" height="100%" xlink:href="#a"/>
   <use transform="translate(82.354 -16.425)" width="100%" height="100%" xlink:href="#a"/>
   <use transform="translate(95.349 -20.168)" width="100%" height="100%" xlink:href="#a"/>
   <use transform="translate(82.748 -23.702)" width="100%" height="100%" xlink:href="#a"/>
  </g>
  <use transform="matrix(1 0 0 -1 21.303 262.47)" width="100%" height="100%" xlink:href="#c"/>
  <use transform="matrix(-1 0 0 1 49.085 .20813)" width="100%" height="100%" xlink:href="#c"/>
  <use transform="translate(46 -30.049)" width="100%" height="100%" opacity=".6" xlink:href="#a"/>
  <use transform="rotate(180 35.088 131.18)" width="100%" height="100%" xlink:href="#c"/>
  <path id="e" d="m13.139 152.31c0.68199-2.1e-4 1.364-0.37945 2.0458-0.40974 0.68197-0.0297 1.3637 0.49998 2.0458 1.0129 0.68201 0.51295 1.3636 0.65306 2.0461-0.0563 0.6813-0.70924 1.3636-2.0626 2.0454-2.2574s1.364 1.046 2.0454 2.382c0.68242 1.336 1.3642 2.1583 2.046 1.2101 0.68232-0.9482 1.3636-3.4103 2.0459-4.3604 0.68148-0.95014 1.3637 0.14409 2.0457 2.1426 0.68171 1.9985 1.364 4.0952 2.0454 3.5898 0.68227-0.50545 1.364-3.5268 2.0458-5.4349 0.6824-1.9082 1.3637-1.854 2.046 0.22729 0.6817 2.0813 1.3636 5.3783 2.0457 5.833 0.68161 0.45472 1.3639-2.1834 2.0458-4.7446 0.68178-2.5612 1.3637-3.9834 2.0453-2.5062 0.68235 1.4772 1.3641 5.2619 2.046 6.7434 0.68183 1.4815 1.3636 0.0543 2.046-2.5062 0.68166-2.5602 1.3637-5.1944 2.0454-4.7446 0.68188 0.44978 1.364 3.7491 2.0455 5.833 0.68217 2.0839 1.364 2.1329 2.0459 0.2273 0.68198-1.9056 1.3636-4.9252 2.0459-5.4349 0.68178-0.50961 1.3638 1.5905 2.0455 3.5898 0.6818 1.9993 1.3639 3.0898 2.0459 2.1425 0.68198-0.94712 1.3637-3.4095 2.0455-4.3604 0.68214-0.95086 1.3641-0.12561 2.0459 1.2101 0.68174 1.3356 1.3637 2.5747 2.0456 2.382 0.68193-0.19281 1.3638-1.547 2.0458-2.2574 0.68201-0.71049 1.3637-0.56877 2.0458-0.0563 0.68174 0.5126 1.3638 1.1038 2.0458 1.0742 0.68169-0.0286 6.6192-0.0424 7.3011-0.0424" fill="none" marker-end="url(#h)" stop-color="#000000" stroke="#025" stroke-width=".79375" style="paint-order:fill markers stroke" title="t abs(sin(t/18))*sin(t)"/>
  <use transform="rotate(55.963 78.01 95.475)" width="100%" height="100%" xlink:href="#e"/>
  <use transform="rotate(55.963 85.702 99.336)" width="100%" height="100%" xlink:href="#e"/>
  <use transform="translate(21.022 -15.333)" width="100%" height="100%" xlink:href="#a"/>
  <use transform="translate(19.033 -27.876)" width="100%" height="100%" xlink:href="#a"/>
  <use transform="translate(61.061 -28.386)" width="100%" height="100%" xlink:href="#a"/>
  <g id="d">
   <path d="m-3.393 162h21.446" fill="#1a1a1a" marker-end="url(#i)" stroke="#1a1a1a" stroke-width=".74083"/>
   <use transform="translate(.060905 9.29)" width="100%" height="100%" xlink:href="#a"/>
  </g>
  <use transform="rotate(-55.421 -24.126 92.559)" width="100%" height="100%" xlink:href="#d"/>
  <use transform="rotate(-77.834 -26.744 93.982)" width="100%" height="100%" xlink:href="#d"/>
  <use transform="rotate(250.63 -14.98 107.44)" width="100%" height="100%" xlink:href="#d"/>
 </g>
</svg>
