<?xml version="1.0" encoding="UTF-8" standalone="no"?>
<svg
   xmlns:dc="http://purl.org/dc/elements/1.1/"
   xmlns:cc="http://creativecommons.org/ns#"
   xmlns:rdf="http://www.w3.org/1999/02/22-rdf-syntax-ns#"
   xmlns:svg="http://www.w3.org/2000/svg"
   xmlns="http://www.w3.org/2000/svg"
   xmlns:xlink="http://www.w3.org/1999/xlink"
   xmlns:sodipodi="http://sodipodi.sourceforge.net/DTD/sodipodi-0.dtd"
   xmlns:inkscape="http://www.inkscape.org/namespaces/inkscape"
   version="1.1"
   viewBox="0 0 5500 2366.6555"
   id="svg1439"
   sodipodi:docname="evolucion-universo.svg"
   inkscape:version="1.0.1 (c497b03c, 2020-09-10)"
   width="5500"
   height="2366.6555">
  <metadata
     id="metadata1443">
    <rdf:RDF>
      <cc:Work
         rdf:about="">
        <dc:format>image/svg+xml</dc:format>
        <dc:type
           rdf:resource="http://purl.org/dc/dcmitype/StillImage" />
        <dc:title></dc:title>
      </cc:Work>
    </rdf:RDF>
  </metadata>
  <sodipodi:namedview
     pagecolor="#ffffff"
     bordercolor="#666666"
     borderopacity="1"
     objecttolerance="10"
     gridtolerance="10"
     guidetolerance="10"
     inkscape:pageopacity="0"
     inkscape:pageshadow="2"
     inkscape:window-width="1440"
     inkscape:window-height="900"
     id="namedview1441"
     showgrid="false"
     inkscape:zoom="1.2941527"
     inkscape:cx="3665.6356"
     inkscape:cy="1793.3648"
     inkscape:window-x="0"
     inkscape:window-y="0"
     inkscape:window-maximized="0"
     inkscape:current-layer="svg1439"
     fit-margin-top="0"
     fit-margin-left="0"
     fit-margin-right="0"
     fit-margin-bottom="0"
     inkscape:document-rotation="0" />
  <defs
     id="defs985">
    <marker
       id="ExperimentalArrow"
       refX="5.0"
       refY="3.0"
       orient="auto-start-reverse"
       inkscape:stockid="ExperimentalArrow"
       inkscape:isstock="true">
      <path
         style="fill:#000000;stroke:#000000;stroke-opacity:1;fill-opacity:1"
         d="m 10,3 -10,3 0,-6 z"
         id="path1414" />
    </marker>
    <marker
       style="overflow:visible;"
       id="Arrow2Lend"
       refX="0.0"
       refY="0.0"
       orient="auto"
       inkscape:stockid="Arrow2Lend"
       inkscape:isstock="true">
      <path
         transform="scale(1.1) rotate(180) translate(1,0)"
         d="M 8.7185878,4.0337352 L -2.2072895,0.016013256 L 8.7185884,-4.0017078 C 6.9730900,-1.6296469 6.9831476,1.6157441 8.7185878,4.0337352 z "
         style="fill-rule:evenodd;stroke-width:0.625;stroke-linejoin:round;stroke:#000000;stroke-opacity:1;fill:#000000;fill-opacity:1"
         id="path1182" />
    </marker>
    <linearGradient
       id="ab">
      <stop
         stop-color="#fff"
         stop-opacity=".807"
         offset="0"
         id="stop833" />
      <stop
         stop-color="#fff"
         stop-opacity="0"
         offset="1"
         id="stop835" />
    </linearGradient>
    <marker
       id="bc"
       overflow="visible"
       orient="auto">
      <path
         transform="scale(0.2)"
         d="M 5.77,0 -2.88,5 V -5 Z"
         fill="#fede17"
         fill-rule="evenodd"
         stroke="#fede17"
         stroke-width="1pt"
         id="path838" />
    </marker>
    <linearGradient
       id="bb"
       x1="3690.8"
       x2="3698.8"
       y1="2041.1"
       y2="3722.7"
       gradientTransform="translate(22,-1753.3519)"
       gradientUnits="userSpaceOnUse">
      <stop
         stop-color="#fee017"
         stop-opacity=".143"
         offset="0"
         id="stop841" />
      <stop
         stop-color="#fedf17"
         offset=".5"
         id="stop843" />
      <stop
         stop-color="#fede17"
         stop-opacity=".141"
         offset="1"
         id="stop845" />
    </linearGradient>
    <linearGradient
       id="bf"
       x1="510.91"
       x2="3720.5"
       y1="2919.3999"
       y2="2919.3999"
       gradientTransform="translate(0,-1902.1719)"
       gradientUnits="userSpaceOnUse">
      <stop
         stop-color="#dfdad4"
         offset="0"
         id="stop848" />
      <stop
         stop-color="#d4c293"
         offset=".093"
         id="stop850" />
      <stop
         stop-color="#ffd716"
         offset=".206"
         id="stop852" />
      <stop
         stop-color="#ea1c28"
         offset=".347"
         id="stop854" />
      <stop
         stop-color="#9e2163"
         offset=".583"
         id="stop856" />
      <stop
         stop-color="#a15779"
         offset=".817"
         id="stop858" />
      <stop
         stop-color="#a0748b"
         offset="1"
         id="stop860" />
    </linearGradient>
    <radialGradient
       id="ba"
       cx="5044.8999"
       cy="3307.3"
       r="87.875999"
       gradientUnits="userSpaceOnUse"
       xlink:href="#ab"
       gradientTransform="translate(27.96,-1739.5419)" />
    <radialGradient
       id="az"
       cx="5072.7998"
       cy="3291.3999"
       r="243.66"
       gradientTransform="matrix(1.0554,0.35119,-0.03668098,0.13305263,-160.11334,-651.51675)"
       gradientUnits="userSpaceOnUse"
       xlink:href="#ab" />
    <radialGradient
       id="ay"
       cx="4961"
       cy="2708.2"
       r="23.966"
       gradientUnits="userSpaceOnUse"
       xlink:href="#ab"
       gradientTransform="translate(0,-1753.3519)" />
    <radialGradient
       id="ax"
       cx="4745.2998"
       cy="2893.8999"
       r="11.983"
       gradientUnits="userSpaceOnUse"
       xlink:href="#ab"
       gradientTransform="translate(0,-1753.3519)" />
    <radialGradient
       id="aw"
       cx="4965"
       cy="3101.6001"
       r="7.9889998"
       gradientUnits="userSpaceOnUse"
       xlink:href="#ab" />
    <radialGradient
       id="av"
       cx="4879.1001"
       cy="2440.6001"
       r="41.941002"
       gradientUnits="userSpaceOnUse"
       xlink:href="#ab"
       gradientTransform="translate(0,-1753.3519)" />
    <radialGradient
       id="au"
       cx="4901.1001"
       cy="2446.5"
       r="235.67"
       gradientTransform="matrix(0.8989,-0.43815,0.04808064,0.11797914,357.98863,2547.9846)"
       gradientUnits="userSpaceOnUse"
       xlink:href="#ab" />
    <radialGradient
       id="ar"
       cx="5070.7998"
       cy="1905.3"
       r="33.952"
       gradientUnits="userSpaceOnUse"
       xlink:href="#ab"
       gradientTransform="translate(7.9887,-1753.3519)" />
    <radialGradient
       id="aq"
       cx="5124.7998"
       cy="1871.4"
       r="38.778"
       gradientTransform="matrix(1,0,0,0.61803,0,-1038.5519)"
       gradientUnits="userSpaceOnUse"
       xlink:href="#ab" />
    <marker
       id="aa"
       overflow="visible"
       orient="auto">
      <path
         transform="matrix(-0.4,0,0,-0.4,-4,0)"
         d="M 0,0 5,-5 -12.5,0 5,5 Z"
         fill="#ee1c25"
         fill-rule="evenodd"
         stroke="#ee1c25"
         stroke-width="1pt"
         id="path872" />
    </marker>
    <marker
       id="ah"
       overflow="visible"
       orient="auto">
      <path
         transform="matrix(-0.4,0,0,-0.4,-4,0)"
         d="M 0,0 5,-5 -12.5,0 5,5 Z"
         fill="#4cb7e2"
         fill-rule="evenodd"
         stroke="#4cb7e2"
         stroke-width="1pt"
         id="path875" />
    </marker>
    <marker
       id="ae"
       overflow="visible"
       orient="auto">
      <path
         transform="matrix(-0.4,0,0,-0.4,-4,0)"
         d="M 0,0 5,-5 -12.5,0 5,5 Z"
         fill="#4cb7e2"
         fill-rule="evenodd"
         stroke="#4cb7e2"
         stroke-width="1pt"
         id="path878" />
    </marker>
    <marker
       id="ai"
       overflow="visible"
       orient="auto">
      <path
         transform="matrix(-0.4,0,0,-0.4,-4,0)"
         d="M 0,0 5,-5 -12.5,0 5,5 Z"
         fill="#4cb7e2"
         fill-rule="evenodd"
         stroke="#4cb7e2"
         stroke-width="1pt"
         id="path881" />
    </marker>
    <marker
       id="ac"
       overflow="visible"
       orient="auto">
      <path
         transform="matrix(-0.4,0,0,-0.4,-4,0)"
         d="M 0,0 5,-5 -12.5,0 5,5 Z"
         fill="#4cb7e2"
         fill-rule="evenodd"
         stroke="#4cb7e2"
         stroke-width="1pt"
         id="path884" />
    </marker>
    <marker
       id="ag"
       overflow="visible"
       orient="auto">
      <path
         transform="matrix(-0.4,0,0,-0.4,-4,0)"
         d="M 0,0 5,-5 -12.5,0 5,5 Z"
         fill="#4cb7e2"
         fill-rule="evenodd"
         stroke="#4cb7e2"
         stroke-width="1pt"
         id="path887" />
    </marker>
    <marker
       id="an"
       overflow="visible"
       orient="auto">
      <path
         transform="matrix(-0.4,0,0,-0.4,-4,0)"
         d="M 0,0 5,-5 -12.5,0 5,5 Z"
         fill="#4cb7e2"
         fill-rule="evenodd"
         stroke="#4cb7e2"
         stroke-width="1pt"
         id="path890" />
    </marker>
    <marker
       id="al"
       overflow="visible"
       orient="auto">
      <path
         transform="matrix(-0.4,0,0,-0.4,-4,0)"
         d="M 0,0 5,-5 -12.5,0 5,5 Z"
         fill="#4cb7e2"
         fill-rule="evenodd"
         stroke="#4cb7e2"
         stroke-width="1pt"
         id="path893" />
    </marker>
    <marker
       id="ao"
       overflow="visible"
       orient="auto">
      <path
         transform="matrix(-0.4,0,0,-0.4,-4,0)"
         d="M 0,0 5,-5 -12.5,0 5,5 Z"
         fill="#4cb7e2"
         fill-rule="evenodd"
         stroke="#4cb7e2"
         stroke-width="1pt"
         id="path896" />
    </marker>
    <marker
       id="af"
       overflow="visible"
       orient="auto">
      <path
         transform="matrix(-0.4,0,0,-0.4,-4,0)"
         d="M 0,0 5,-5 -12.5,0 5,5 Z"
         fill="#4cb7e2"
         fill-rule="evenodd"
         stroke="#4cb7e2"
         stroke-width="1pt"
         id="path899" />
    </marker>
    <marker
       id="ad"
       overflow="visible"
       orient="auto">
      <path
         transform="matrix(-0.4,0,0,-0.4,-4,0)"
         d="M 0,0 5,-5 -12.5,0 5,5 Z"
         fill="#4cb7e2"
         fill-rule="evenodd"
         stroke="#4cb7e2"
         stroke-width="1pt"
         id="path902" />
    </marker>
    <marker
       id="am"
       overflow="visible"
       orient="auto">
      <path
         transform="matrix(-0.4,0,0,-0.4,-4,0)"
         d="M 0,0 5,-5 -12.5,0 5,5 Z"
         fill="#4cb7e2"
         fill-rule="evenodd"
         stroke="#4cb7e2"
         stroke-width="1pt"
         id="path905" />
    </marker>
    <marker
       id="aj"
       overflow="visible"
       orient="auto">
      <path
         transform="matrix(-0.4,0,0,-0.4,-4,0)"
         d="M 0,0 5,-5 -12.5,0 5,5 Z"
         fill="#4cb7e2"
         fill-rule="evenodd"
         stroke="#4cb7e2"
         stroke-width="1pt"
         id="path908" />
    </marker>
    <marker
       id="ak"
       overflow="visible"
       orient="auto">
      <path
         transform="matrix(-0.4,0,0,-0.4,-4,0)"
         d="M 0,0 5,-5 -12.5,0 5,5 Z"
         fill="#4cb7e2"
         fill-rule="evenodd"
         stroke="#4cb7e2"
         stroke-width="1pt"
         id="path911" />
    </marker>
    <linearGradient
       id="be"
       x1="860.01001"
       x2="5317.5"
       y1="1305.2"
       y2="1305.2"
       gradientUnits="userSpaceOnUse">
      <stop
         stop-color="#545454"
         offset="0"
         id="stop914" />
      <stop
         stop-color="#bdbdbd"
         offset=".019"
         id="stop916" />
      <stop
         stop-color="#545454"
         offset=".037"
         id="stop918" />
      <stop
         stop-color="#bdbdbd"
         offset=".057"
         id="stop920" />
      <stop
         stop-color="#545454"
         offset=".077"
         id="stop922" />
      <stop
         stop-color="#bdbdbd"
         offset=".099"
         id="stop924" />
      <stop
         stop-color="#545454"
         offset=".12"
         id="stop926" />
      <stop
         stop-color="#bdbdbd"
         offset=".144"
         id="stop928" />
      <stop
         stop-color="#545454"
         offset=".17"
         id="stop930" />
      <stop
         stop-color="#bdbdbd"
         offset=".194"
         id="stop932" />
      <stop
         stop-color="#545454"
         offset=".222"
         id="stop934" />
      <stop
         stop-color="#bdbdbd"
         offset=".25"
         id="stop936" />
      <stop
         stop-color="#545454"
         offset=".281"
         id="stop938" />
      <stop
         stop-color="#bdbdbd"
         offset=".311"
         id="stop940" />
      <stop
         stop-color="#545454"
         offset=".345"
         id="stop942" />
      <stop
         stop-color="#bdbdbd"
         offset=".379"
         id="stop944" />
      <stop
         stop-color="#545454"
         offset=".418"
         id="stop946" />
      <stop
         stop-color="#bdbdbd"
         offset=".456"
         id="stop948" />
      <stop
         stop-color="#545454"
         offset=".5"
         id="stop950" />
      <stop
         stop-color="#bdbdbd"
         offset=".543"
         id="stop952" />
      <stop
         stop-color="#545454"
         offset=".593"
         id="stop954" />
      <stop
         stop-color="#bdbdbd"
         offset=".641"
         id="stop956" />
      <stop
         stop-color="#545454"
         offset=".699"
         id="stop958" />
      <stop
         stop-color="#bdbdbd"
         offset=".754"
         id="stop960" />
      <stop
         stop-color="#545454"
         offset=".818"
         id="stop962" />
      <stop
         stop-color="#bdbdbd"
         offset=".887"
         id="stop964" />
      <stop
         stop-color="#6a6a6a"
         offset="1"
         id="stop966" />
    </linearGradient>
    <marker
       id="as"
       overflow="visible"
       orient="auto">
      <path
         transform="scale(0.6)"
         d="M 8.7186,4.0337 -2.2074,0.016 8.7186,-4.0017 c -1.7455,2.3721 -1.7354,5.6175 0,8.0354 z"
         fill="#ffffff"
         fill-rule="evenodd"
         stroke="#ffffff"
         stroke-linejoin="round"
         stroke-width="0.625"
         id="path969" />
    </marker>
    <marker
       id="at"
       overflow="visible"
       orient="auto">
      <path
         transform="scale(-0.6)"
         d="M 8.7186,4.0337 -2.2074,0.016 8.7186,-4.0017 c -1.7455,2.3721 -1.7354,5.6175 0,8.0354 z"
         fill="#ffffff"
         fill-rule="evenodd"
         stroke="#ffffff"
         stroke-linejoin="round"
         stroke-width="0.625"
         id="path972" />
    </marker>
    <radialGradient
       id="bd"
       cx="477.32999"
       cy="2764.3"
       r="174.38"
       gradientUnits="userSpaceOnUse"
       gradientTransform="translate(0,-1745.3519)">
      <stop
         stop-color="#fff"
         offset="0"
         id="stop975" />
      <stop
         stop-color="#fff"
         offset=".341"
         id="stop977" />
      <stop
         stop-color="#fff"
         stop-opacity="0"
         offset="1"
         id="stop979" />
    </radialGradient>
    <marker
       id="ap"
       overflow="visible"
       orient="auto">
      <path
         transform="scale(-0.6)"
         d="M 8.7186,4.0337 -2.2074,0.016 8.7186,-4.0017 c -1.7455,2.3721 -1.7354,5.6175 0,8.0354 z"
         fill="#ffffff"
         fill-rule="evenodd"
         stroke="#ffffff"
         stroke-linejoin="round"
         stroke-width="0.625"
         id="path982" />
    </marker>
    <radialGradient
       inkscape:collect="always"
       xlink:href="#ab"
       id="radialGradient1709"
       gradientUnits="userSpaceOnUse"
       cx="4965"
       cy="3101.6001"
       r="7.9889998" />
    <radialGradient
       inkscape:collect="always"
       xlink:href="#ab"
       id="radialGradient1711"
       gradientUnits="userSpaceOnUse"
       cx="4965"
       cy="3101.6001"
       r="7.9889998" />
    <radialGradient
       inkscape:collect="always"
       xlink:href="#ab"
       id="radialGradient1713"
       gradientUnits="userSpaceOnUse"
       cx="4965"
       cy="3101.6001"
       r="7.9889998" />
    <filter
       inkscape:collect="always"
       style="color-interpolation-filters:sRGB"
       id="filter1827"
       x="-0.30000001"
       width="1.6"
       y="-0.30000001"
       height="1.6">
      <feGaussianBlur
         inkscape:collect="always"
         stdDeviation="42.72"
         id="feGaussianBlur1829" />
    </filter>
  </defs>
  <path
     d="m 722.66,1081.0481 c -24.708,-26.9 -54.463,-41.106 -87.812,-41.344 l -123.94,-0.9062 v -43.125 l 123.94,-0.9063 c 33.349,-0.2378 63.104,-14.444 87.812,-41.344 m 0,127.62 c 22.256,24.229 40.41,58.739 53.406,102.59 48.875,164.92 101.46,306.99 234.5,358.66 116.52,45.254 1734.6,129.03 2709.9,205.56 v -1461.2 c -975.33,76.536 -2593.4,160.28 -2709.9,205.53 -133.04,51.671 -185.63,193.76 -234.5,358.69 -12.996,43.854 -31.151,78.364 -53.406,102.59"
     fill="url(#bf)"
     id="path989"
     style="fill:url(#bf)" />
  <g
     fill="none"
     id="g997"
     style="stroke:#000000;stroke-opacity:1"
     transform="translate(0,-1753.3519)">
    <path
       d="m 507.47,2793.5 127.38,0.9083 c 63.388,0.452 113.8,51.416 141.23,143.96 48.875,164.92 101.45,306.99 234.5,358.67 147.18,57.161 2690.2,175.75 3307.3,263.63 559.25,79.634 950.66,157.78 998.59,177.75 m -4809,-988.02 127.38,-0.9083 c 63.388,-0.452 113.8,-51.416 141.23,-143.96 48.875,-164.92 101.45,-306.99 234.5,-358.67 147.18,-57.161 2690.2,-175.75 3307.3,-263.63 559.25,-79.634 950.66,-157.78 998.59,-177.75"
       stroke-width="10"
       id="path993"
       style="stroke:#000000;stroke-opacity:1" />
    <path
       d="M 473.33,3694.8 V 2776.1"
       stroke-width="7"
       id="path995"
       style="stroke:#000000;stroke-opacity:1" />
  </g>
  <path
     d="m 983.33,1941.4481 v -1432.7"
     fill="#ffffff"
     stroke-width="7"
     id="path999"
     style="stroke:#000000;fill:#000000;fill-opacity:1;stroke-opacity:1" />
  <path
     d="m 648.21,1018.9481 a 170.88,170.88 0 1 1 -341.76,0 170.88,170.88 0 1 1 341.76,0 z"
     fill="url(#bd)"
     id="path1005"
     style="fill:#000000;fill-opacity:1;filter:url(#filter1827)" />
  <g
     fill="url(#aw)"
     id="g1023"
     style="fill:url(#aw)"
     transform="translate(0,-1753.3519)">
    <path
       transform="matrix(2,0,0,2,-4957,-3093.6)"
       d="m 4973,3101.6 a 7.9887,7.9887 0 1 1 -15.977,0 7.9887,7.9887 0 1 1 15.977,0 z"
       id="path1017"
       style="fill:url(#radialGradient1709)" />
    <path
       transform="matrix(2,0,0,2,-4823.1,-3661)"
       d="m 4973,3101.6 a 7.9887,7.9887 0 1 1 -15.977,0 7.9887,7.9887 0 1 1 15.977,0 z"
       id="path1019"
       style="fill:url(#radialGradient1711)" />
    <path
       transform="matrix(2.75,0,0,2.75,-8660.7,-6340.7)"
       d="m 4973,3101.6 a 7.9887,7.9887 0 1 1 -15.977,0 7.9887,7.9887 0 1 1 15.977,0 z"
       id="path1021"
       style="fill:url(#radialGradient1713)" />
  </g>
  <path
     d="m 679.05,689.2481 v 221.68"
     marker-end="url(#ap)"
     stroke-width="7"
     id="path1053"
     style="fill:#000000;stroke:#000000;stroke-opacity:1;stroke-width:6.99968504;stroke-miterlimit:4;stroke-dasharray:none;fill-opacity:1;marker-end:url(#ExperimentalArrow)" />
  <text
     x="2766.1001"
     y="2323.52"
     letter-spacing="-6.2"
     style="font-size:144px;line-height:125%;font-family:sans;text-anchor:middle;fill:#000000;fill-opacity:1;"
     id="text1283"><tspan
       x="2763"
       y="2323.52"
       fill="#ffffff"
       font-size="100px"
       font-weight="bold"
       id="tspan1281"
       style="font-style:normal;font-variant:normal;font-weight:bold;font-stretch:normal;font-size:144px;font-family:'EB Garamond';-inkscape-font-specification:'EB Garamond Bold';fill:#000000;fill-opacity:1;">Edad del Universo</tspan></text>
  <text
     transform="rotate(-90)"
     x="-1013.7482"
     y="171.8"
     letter-spacing="-6.2"
     style="font-size:144px;line-height:125%;font-family:sans;text-anchor:middle;fill:#000000;fill-opacity:1;"
     id="text1287"><tspan
       x="-1016.848"
       y="171.8"
       fill="#ffffff"
       font-size="100px"
       font-weight="bold"
       id="tspan1285"
       style="font-style:normal;font-variant:normal;font-weight:bold;font-stretch:normal;font-size:144px;font-family:'EB Garamond';-inkscape-font-specification:'EB Garamond Bold';fill:#000000;fill-opacity:1;">Radio del Universo Observable</tspan></text>
  <text
     transform="rotate(-90)"
     x="-1010.2482"
     y="938.40002"
     font-size="95px"
     letter-spacing="-6.2"
     text-anchor="middle"
     style="font-size:122.667px;line-height:100%;font-family:sans"
     id="text1343"><tspan
       x="-1013.348"
       y="938.40002"
       id="tspan1341"
       style="font-style:normal;font-variant:normal;font-weight:normal;font-stretch:normal;font-size:122.667px;font-family:'EB Garamond';-inkscape-font-specification:'EB Garamond'">Inflación</tspan></text>
  <text
     x="-1011.548"
     y="1574.4"
     style="font-size:122.66700000000000159px;line-height:100%;font-family:sans;letter-spacing:-6.2;text-anchor:middle;fill:#000000;fill-opacity:1;"
     id="text1347"
     transform="rotate(-90)"><tspan
       x="-1014.6481"
       y="1574.4"
       id="tspan1345"
       style="font-style:normal;font-variant:normal;font-weight:normal;font-stretch:normal;font-size:122.66700000000000159px;font-family:'EB Garamond';-inkscape-font-specification:'EB Garamond';fill:#000000;fill-opacity:1;">Formación de nucleones</tspan></text>
  <text
     x="-1013.848"
     y="2306.3999"
     style="font-size:122.66700000000000159px;line-height:100%;font-family:sans;letter-spacing:-6.2;text-anchor:middle;fill:#ffffff;fill-opacity:1;"
     id="text1351"
     transform="rotate(-90)"><tspan
       x="-1016.9481"
       y="2306.3999"
       id="tspan1349"
       style="font-style:normal;font-variant:normal;font-weight:normal;font-stretch:normal;font-size:122.66700000000000159px;font-family:'EB Garamond';-inkscape-font-specification:'EB Garamond';fill:#ffffff;fill-opacity:1;">Comienza la fusión nuclear</tspan></text>
  <text
     x="-1013.848"
     y="3062.3999"
     style="font-size:122.66700000000000159px;line-height:100%;font-family:sans;letter-spacing:-6.2;text-anchor:middle;fill:#ffffff;fill-opacity:1;"
     id="text1355"
     transform="rotate(-90)"><tspan
       x="-1016.9481"
       y="3062.3999"
       id="tspan1353"
       style="font-style:normal;font-variant:normal;font-weight:normal;font-stretch:normal;font-size:122.66700000000000159px;font-family:'EB Garamond';-inkscape-font-specification:'EB Garamond';fill:#ffffff;fill-opacity:1;">Termina la fusión nuclear</tspan></text>
  <text
     x="-1009.548"
     y="3669.1001"
     style="font-size:122.66700000000000159px;line-height:100%;font-family:sans;letter-spacing:-6.2;text-anchor:middle;fill:#000000;fill-opacity:1;"
     id="text1359"
     transform="rotate(-90)"><tspan
       x="-1012.6481"
       y="3669.1001"
       id="tspan1357"
       style="font-style:normal;font-variant:normal;font-weight:normal;font-stretch:normal;font-size:122.66700000000000159px;font-family:'EB Garamond';-inkscape-font-specification:'EB Garamond';fill:#000000;fill-opacity:1;">Fondo cósmico de microondas</tspan></text>
  <text
     x="-1013.848"
     y="3874.3999"
     style="font-size:122.66700000000000159px;line-height:100%;font-family:sans;letter-spacing:-6.2;text-anchor:middle;fill:#000000;fill-opacity:1;"
     id="text1363"
     transform="rotate(-90)"><tspan
       x="-1016.9481"
       y="3874.3999"
       id="tspan1361"
       style="font-style:normal;font-variant:normal;font-weight:normal;font-stretch:normal;font-size:122.66700000000000159px;font-family:'EB Garamond';-inkscape-font-specification:'EB Garamond';fill:#000000;fill-opacity:1;">Formación de hidrógeno neutro</tspan></text>
  <text
     x="-1013.548"
     y="4553.6001"
     style="font-size:122.66700000000000159px;line-height:100%;font-family:sans;letter-spacing:-6.2;text-anchor:middle;fill:#000000;fill-opacity:1;"
     id="text1367"
     transform="rotate(-90)"><tspan
       x="-1016.6481"
       y="4553.6001"
       id="tspan1365"
       style="font-style:normal;font-variant:normal;font-weight:normal;font-stretch:normal;font-size:122.66700000000000159px;font-family:'EB Garamond';-inkscape-font-specification:'EB Garamond';fill:#000000;fill-opacity:1;">Universo moderno</tspan></text>
  <text
     x="473.29999"
     y="2076.239"
     style="font-size:122.66700000000000159px;line-height:100%;font-family:sans;letter-spacing:-6.2;text-anchor:middle;fill:#000000;fill-opacity:1;"
     id="text1393"><tspan
       x="470.20001"
       y="2076.239"
       font-size="90px"
       id="tspan1391"
       style="font-style:normal;font-variant:normal;font-weight:normal;font-stretch:normal;font-size:122.66700000000000159px;font-family:'EB Garamond';-inkscape-font-specification:'EB Garamond';fill:#000000;fill-opacity:1;">0</tspan></text>
  <text
     x="982.7049"
     y="2087.2483"
     style="font-size:122.66700000000000159px;line-height:100%;font-family:sans;letter-spacing:-6.2;text-anchor:middle;fill:#000000;fill-opacity:1;"
     id="text1399"><tspan
       x="979.60492"
       y="2087.2483"
       font-size="90px"
       id="tspan1397"
       style="font-style:normal;font-variant:normal;font-weight:normal;font-stretch:normal;font-size:122.66700000000000159px;font-family:'EB Garamond';-inkscape-font-specification:'EB Garamond';fill:#000000;fill-opacity:1;">10<tspan
   style="font-size:65%;baseline-shift:super;fill:#000000;fill-opacity:1;"
   id="tspan1747">–32</tspan> s</tspan></text>
  <text
     x="1608.6967"
     y="2060.0469"
     style="font-size:122.66700000000000159px;line-height:100%;font-family:sans;letter-spacing:-6.2;text-anchor:middle;fill:#000000;fill-opacity:1;"
     id="text1403"><tspan
       x="1605.5967"
       y="2060.0469"
       font-size="90px"
       id="tspan1401"
       style="font-style:normal;font-variant:normal;font-weight:normal;font-stretch:normal;font-size:122.66700000000000159px;font-family:'EB Garamond';-inkscape-font-specification:'EB Garamond';fill:#000000;fill-opacity:1;">1 µs</tspan></text>
  <text
     x="2350.2"
     y="2076.6682"
     style="font-size:122.66700000000000159px;line-height:100%;font-family:sans;letter-spacing:-6.2;text-anchor:middle;fill:#000000;fill-opacity:1;"
     id="text1407"><tspan
       x="2347.1001"
       y="2076.6682"
       font-size="90px"
       id="tspan1405"
       style="font-style:normal;font-variant:normal;font-weight:normal;font-stretch:normal;font-size:122.66700000000000159px;font-family:'EB Garamond';-inkscape-font-specification:'EB Garamond';fill:#000000;fill-opacity:1;">0.01 s</tspan></text>
  <text
     x="3107.6001"
     y="2074.7668"
     style="font-size:122.66700000000000159px;line-height:100%;font-family:sans;letter-spacing:-6.2;text-anchor:middle;fill:#000000;fill-opacity:1;"
     id="text1411"><tspan
       x="3104.3999"
       y="2074.7668"
       font-size="90px"
       id="tspan1409"
       style="font-style:normal;font-variant:normal;font-weight:normal;font-stretch:normal;font-size:122.66700000000000159px;font-family:'EB Garamond';-inkscape-font-specification:'EB Garamond';fill:#000000;fill-opacity:1;">3 min</tspan></text>
  <text
     x="3721.051"
     y="2074.7668"
     style="font-size:122.66700000000000159px;line-height:100%;font-family:sans;letter-spacing:-6.2;text-anchor:middle;fill:#000000;fill-opacity:1;"
     id="text1415"><tspan
       x="3717.9509"
       y="2074.7668"
       font-size="90px"
       id="tspan1413"
       style="font-style:normal;font-variant:normal;font-weight:normal;font-stretch:normal;font-size:122.66700000000000159px;font-family:'EB Garamond';-inkscape-font-specification:'EB Garamond';fill:#000000;fill-opacity:1;">380 000 años</tspan></text>
  <text
     x="4987.6001"
     y="2064.2175"
     style="font-size:122.66700000000000159px;line-height:100%;font-family:sans;letter-spacing:-6.2;text-anchor:middle;fill:#000000;fill-opacity:1;"
     id="text1419"><tspan
       x="4984.5"
       y="2064.2175"
       font-size="90px"
       id="tspan1417"
       style="font-style:normal;font-variant:normal;font-weight:normal;font-stretch:normal;font-size:122.66700000000000159px;font-family:'EB Garamond';-inkscape-font-specification:'EB Garamond';fill:#000000;fill-opacity:1;">13.8 billones de años</tspan></text>
  <path
     d="M 1609.3217,1941.5073 V 437.50729"
     fill="#ffffff"
     stroke-width="7.17195"
     id="path999-0"
     style="stroke:#000000;fill:#000000;fill-opacity:1;stroke-opacity:1" />
  <path
     d="M 2347.9425,1941.5073 V 387.50729"
     fill="#ffffff"
     stroke-width="7.29019"
     id="path999-0-3"
     style="stroke:#000000;fill:#000000;fill-opacity:1;stroke-opacity:1" />
  <path
     d="M 3106.0962,1941.5073 V 331.50729"
     fill="#ffffff"
     stroke-width="7.42038"
     id="path999-0-3-0"
     style="stroke:#000000;fill:#000000;fill-opacity:1;stroke-opacity:1" />
  <path
     d="M 4303.7102,1941.5073 V 231.50729"
     fill="#ffffff"
     stroke-width="7.64735"
     id="path999-0-3-0-8"
     style="stroke:#000000;fill:#000000;fill-opacity:1;stroke-opacity:1" />
  <text
     xml:space="preserve"
     style="font-style:normal;font-weight:normal;font-size:122.66700000000000159px;line-height:1;font-family:sans-serif;fill:#000000;fill-opacity:1;stroke:none;"
     x="-342.46219"
     y="658.89661"
     id="text1799"
     transform="rotate(-90)"><tspan
       sodipodi:role="line"
       id="tspan1797"
       x="-342.46219"
       y="658.89661"
       style="font-style:normal;font-variant:normal;font-weight:normal;font-stretch:normal;font-size:122.66700000000000159px;font-family:'EB Garamond';-inkscape-font-specification:'EB Garamond';text-align:center;text-anchor:middle;fill:#000000;fill-opacity:1;">Fluctuaciones</tspan><tspan
       sodipodi:role="line"
       x="-342.46219"
       y="783.48737"
       style="font-style:normal;font-variant:normal;font-weight:normal;font-stretch:normal;font-size:122.66700000000000159px;font-family:'EB Garamond';-inkscape-font-specification:'EB Garamond';text-align:center;text-anchor:middle;fill:#000000;fill-opacity:1;"
       id="tspan1801">cuánticas</tspan></text>
  <text
     xml:space="preserve"
     style="font-style:normal;font-weight:normal;font-size:122.66700000000000159px;line-height:1;font-family:sans-serif;fill:#ffffff;fill-opacity:1;stroke:none;"
     x="469.89813"
     y="973.76715"
     id="text1805"><tspan
       sodipodi:role="line"
       id="tspan1803"
       x="469.89813"
       y="973.76715"
       style="font-style:normal;font-variant:normal;font-weight:normal;font-stretch:normal;font-size:122.66700000000000159px;font-family:'EB Garamond';-inkscape-font-specification:'EB Garamond';text-align:center;text-anchor:middle;fill:#ffffff;fill-opacity:1;">Big</tspan><tspan
       sodipodi:role="line"
       x="469.89813"
       y="1098.3579"
       style="font-style:normal;font-variant:normal;font-weight:normal;font-stretch:normal;font-size:122.66700000000000159px;font-family:'EB Garamond';-inkscape-font-specification:'EB Garamond';text-align:center;text-anchor:middle;fill:#ffffff;fill-opacity:1;"
       id="tspan1807">Bang</tspan></text>
  <g
     id="g2019"
     transform="matrix(0.62681425,0,0,0.62681425,5092.6718,1491.8182)">
    <g
       fill="#ffebff"
       id="g1951">
      <path
         d="M 460.82031,129.53906 C 431.91016,89.609375 390.52344,61.03125 342.24219,48.09375 286.62891,33.1875 228.55078,40.84375 178.69531,69.628906 114.61328,106.625 92.578125,188.86328 129.57422,252.94531 c 17.30859,29.97656 48.80859,46.75391 81.16015,46.75391 15.85547,0 31.91407,-4.03516 46.60938,-12.51953 1.73828,-1 2.48437,-3.12891 1.75391,-5.00391 -0.73047,-1.86719 -2.6836,-2.94531 -4.6875,-2.47656 C 231.65625,284.86719 208.31641,280.71484 194.80859,262 175.84766,235.74219 171.92187,186.66016 188.25,159.59375 c 33.64062,-55.72656 88.39062,-61.671875 108.72266,-61.925781 1.26562,-0.01563 4.74609,-2 6,-2 101.61328,0 161.45703,51.550781 162.08593,52.082031 z m 0,0"
         id="path1945" />
      <path
         d="m 391.72656,202.56641 c -25.21094,-25.48829 -58.83203,-39.64063 -94.67969,-39.83985 -0.17968,0 -0.35546,0 -0.53125,0 -51.33203,0 -93.23828,41.60938 -93.52343,93 -0.008,2.00781 1.44531,3.72656 3.42968,4.04297 2.04688,0.32813 3.90625,-0.875 4.51172,-2.79687 7.03516,-22.23047 21.88672,-42.76563 44.875,-44.97266 32.375,-3.13672 72.38282,15.73828 87.5,43.5 31.11719,57.15625 15.53907,113.32031 5.5,131 -51.29687,90.30078 -126.38281,118.55469 -127.16797,118.83203 l 15.08985,5.57422 c 108.14062,-10.90234 193.13672,-102.14844 193.76562,-213.22656 0.19922,-35.84375 -13.5664,-69.625 -38.76953,-95.11328 z m 0,0"
         id="path1947" />
      <path
         d="m 257.01953,224.36719 c -1.73437,-0.99219 -3.96484,-0.5625 -5.20312,1.01953 -1.2461,1.58203 -1.15235,3.83594 0.23046,5.29687 15.94922,17.01172 22.32032,37.67969 13.01172,58.81641 -12.94922,29.37891 -50.34765,57.5 -81.75,57.5 -0.27343,0 0.26953,0 0,0 C 118.23047,346.19141 80.324219,305.41016 69.808594,288 16.121094,199.08984 29.832031,116.76953 29.972656,115.94531 L 17.90625,129.02734 C -1.75,174.0625 -5.394531,224.07031 7.828125,272.10547 c 15.28125,55.5039 51.273437,101.73047 101.328125,130.17187 20.48437,11.64453 43.14453,17.57813 66.08203,17.57813 11.96094,0 23.99609,-1.61328 35.83984,-4.86719 34.56641,-9.52344 63.35157,-31.92187 81.05469,-63.08984 25.48047,-44.84375 9.72266,-102.05078 -35.11328,-127.53125 z m 0,0"
         id="path1949" />
    </g>
    <path
       d="M 471.50391,243.01953 C 456.9375,187.3125 421.54297,140.63672 371.85547,111.55469 307.99609,74.179688 225.62891,95.730469 188.25,159.59375 c -17.48047,29.87109 -16.46875,65.54687 -0.46094,93.66016 7.84375,13.77343 19.29688,25.73437 33.94141,34.30468 1.73047,1.01563 3.94922,0.61328 5.21875,-0.94922 1.25781,-1.55859 1.23047,-3.79296 -0.16797,-5.30078 -15.75391,-17.21484 -22.55078,-38.26953 -12.97656,-59.26953 13.4375,-29.47265 52.16015,-56.83594 83.76562,-56.03906 65.07031,1.65234 99.0586,44.68359 109.34375,62.22656 0,0 -0.004,-0.008 0,0 0.63672,1.08985 1.26953,2.1836 1.89063,3.27344 50.28515,88.29687 35.32031,170.02344 35.16797,170.83203 l 15.42578,-15.94141 c 20.39843,-44.88671 24.75781,-95.00781 12.10547,-143.37109 z m 0,0"
       fill="#edf4ff"
       id="path1953" />
    <path
       d="m 441.5,403.62891 c -0.35938,1.94921 0.71875,3.8789 2.57422,4.5664 1.84765,0.69531 3.92969,-0.043 4.92969,-1.75781 3.83984,-6.55859 7.29297,-13.22266 10.39453,-20.04688 1.40625,-30.98828 -1.67969,-93.67578 -39.4961,-160.08203 l -1.99609,-3.45703 C 406.25,202.96094 371.23047,156.50781 297.98047,154.64453 c -38.26172,-0.96484 -79.33594,25.10547 -95.53906,60.64844 -8.54688,18.73047 -8.96094,38.0039 -1.65625,55.40625 6.01953,6.4375 12.96093,12.1875 20.94531,16.85937 1.73047,1.01563 3.95312,0.61328 5.21875,-0.94922 1.25781,-1.55859 1.23047,-3.79296 -0.16797,-5.30078 -15.75391,-17.21484 -19.11328,-38.26953 -9.53906,-59.27343 13.43359,-29.46875 48.72656,-51.92188 80.32812,-51.12891 65.07422,1.65234 96.01953,42.62891 106.30469,60.17187 0,0 0,0 0.004,0.008 0.63672,1.08984 1.26953,2.18359 1.89062,3.27343 50.28125,88.29688 35.88281,168.46094 35.73047,169.26954 z m 0,0"
       fill="#dbeaff"
       id="path1955" />
    <path
       d="m 349.52734,260.47266 c -0.0898,-0.15625 -0.17578,-0.3086 -0.26172,-0.46094 -25.40234,-44.60938 -82.30078,-60.4336 -127.10156,-35.25 -1.75,0.98828 -2.51953,3.10156 -1.8125,4.98437 0.73047,1.94141 2.69141,2.96094 4.66016,2.53516 22.80078,-4.88672 44.5,0.33594 57.79687,19.21875 18.7461,26.57812 25.96485,73.52734 9.32422,100.39844 C 257.86719,407.22266 200.14062,417.97656 179.80859,418 75.953125,418.11328 13.9375,365.04687 13.308594,364.5 l 3.804687,15.85547 c 62.992188,88.57812 184.347659,117.28906 281.179689,62.86328 31.24609,-17.56641 53.78906,-46.24219 63.46875,-80.75781 9.67187,-34.51953 5.33203,-70.73828 -12.23438,-101.98828 z m 0,0"
       fill="#edf4ff"
       id="path1957" />
    <path
       d="m 298.39062,357.69141 c 20.15625,-32.55469 18.34375,-81.11719 -4.10156,-113.08204 -11.97265,-16.99609 -28.66797,-26.96093 -47.62109,-29.32031 -8.37891,1.96094 -16.63281,5.05078 -24.50391,9.47266 -1.75,0.98828 -2.51953,3.10156 -1.8125,4.98437 0.73047,1.94141 2.69141,2.96094 4.66016,2.53516 22.80078,-4.88672 42.67969,2.81641 55.97656,21.69531 18.74609,26.58203 20.21484,68.27735 3.57422,95.14844 -34.26953,55.32422 -85.26953,61.36328 -105.60156,61.39062 C 75.105469,410.62891 11.644531,356.42578 11.015625,355.87891 9.523438,354.57813 7.308594,354.54297 5.78125,355.78906 3.921875,357.29687 4.207031,359.90234 5.402344,362 c 3.636718,6.37891 7.542968,12.49609 11.710937,18.35547 26.371094,17.21875 82.789063,46.51562 161.867189,46.42578 23.05469,-0.0312 80.84375,-6.81641 119.41015,-69.08984 z m 0,0"
       fill="#dbeaff"
       id="path1959" />
    <path
       d="m 272.69531,252.17578 c -1.99219,-0.30078 -3.90625,0.89844 -4.49219,2.82031 -6.89062,22.28125 -23.33203,41.63282 -46.30468,44.00391 -31.9375,3.28906 -76.78125,-21.21875 -92.32422,-48.50781 -0.13281,-0.23438 0.13672,-0.47266 0,-0.71094 C 98.074219,192.83594 117.37109,145.40625 127.29688,127.65234 177.99219,37.003906 256.30859,8.179688 257.09766,7.894531 L 240.60938,1.238281 C 191.77344,6.453125 146.53516,28.03125 111.35547,63.277344 70.6875,104.02344 48.328125,158.17578 48.378906,215.74609 c 0.01953,23.5625 6.078125,46.19141 17.429688,66.1211 5.917968,10.39453 13.273437,20.05468 21.964844,28.73437 25.382812,25.32422 59.089842,39.25391 94.933592,39.21485 51.57813,-0.0508 93.49219,-42.05079 93.44531,-93.625 0.004,-1.9961 -1.47265,-3.72266 -3.45703,-4.01563 z m 0,0"
       fill="#edf4ff"
       id="path1961" />
    <path
       d="m 276.15234,256.19141 c 0.004,-1.9961 -1.47265,-3.72266 -3.45703,-4.01563 -1.99219,-0.30078 -3.90625,0.89844 -4.49219,2.82031 -6.89062,22.28125 -23.33203,35.84766 -46.30468,38.21875 -31.9375,3.28907 -68.80469,-15.43359 -84.34766,-42.72265 -0.13281,-0.23438 -0.25781,-0.47266 -0.39062,-0.71094 -31.5,-56.94531 -11.8125,-104.375 -1.88672,-122.12891 C 185.96875,37.003906 264.28516,8.179688 265.07422,7.894531 266.93359,7.226562 268.05078,5.320312 267.71484,3.363281 267.35156,1.433594 265.6875,-0.00390625 263.70312,0 c -7.77343,0.0078125 -15.47265,0.421875 -23.09765,1.238281 -27.98828,14.65625 -81.05469,49.671875 -119.53125,118.476559 -11.25391,20.12891 -33.597658,73.85547 1.94531,138.10938 l 0.39844,0.71484 c 18.7539,32.9375 61.8125,54.8086 100.15234,50.85156 20.67578,-2.1289 37.52344,-11.8164 48.84766,-27.18359 2.39453,-8.26953 3.74219,-16.98437 3.73437,-26.01562 z m 0,0"
       fill="#dbeaff"
       id="path1963" />
    <path
       d="m 466.96094,153.64453 c 1.51562,1.28125 3.72656,1.29688 5.24218,0.0273 1.51563,-1.26562 1.90625,-3.4414 0.91407,-5.15625 -3.80078,-6.58203 -7.90235,-12.90625 -12.29688,-18.97656 C 434.58594,112.98047 378.60547,84.664062 302.1875,84.664062 l -3.99609,0.02344 c -23.05079,0.285156 -80.7461,7.726562 -118.61719,70.460938 -19.76953,32.76953 -17.44141,81.36328 5.42578,113.03125 12.04687,16.69531 28.58984,26.59375 47.32422,28.85937 8.57422,-2.04687 17.0039,-5.23437 25.01562,-9.85937 1.74219,-1 2.48828,-3.12891 1.75782,-5.00391 -0.73047,-1.86719 -2.6875,-2.94922 -4.6875,-2.48047 -22.75391,5.17188 -42.71485,-2.32422 -56.22657,-21.03906 -18.95703,-26.25781 -21.00781,-68.03906 -4.67968,-95.10547 33.64062,-55.72656 84.5625,-62.34375 104.89453,-62.59766 h 0.008 c 1.26172,-0.0156 2.52734,-0.0234 3.78125,-0.0234 101.61328,0 164.14453,52.18359 164.77344,52.71484 z m 0,0"
       fill="#ead1ff"
       id="path1965" />
    <path
       d="M 356.22266,255.27344 C 337.90625,221.64453 294.80859,199.19141 255.92969,202.875 c -20.69532,1.99219 -37.61328,11.57031 -49.04297,26.87109 -2.44531,8.25391 -3.84766,16.95313 -3.89453,25.98047 -0.008,2.01172 1.44531,3.72656 3.42968,4.04297 2.04688,0.32813 3.90625,-0.875 4.51172,-2.79687 7.03516,-22.23047 23.56641,-35.69532 46.55078,-37.90235 32.375,-3.13672 69.33204,16.21875 84.44922,43.98047 31.11719,57.15625 11.12891,104.46094 1.08594,122.14453 -51.29297,90.30078 -129.80078,118.625 -130.58594,118.90235 -1.86718,0.64843 -2.99218,2.55859 -2.66797,4.5039 0.38672,2.35938 2.79688,3.39844 5.21094,3.39844 7.33985,0 14.59766,-0.36719 21.75391,-1.08984 28.01172,-14.39454 81.3789,-48.92188 120.43359,-117.6836 11.38672,-20.05078 34.08594,-73.625 -0.9414,-137.95312 z m 0,0"
       fill="#ead1ff"
       id="path1967" />
    <path
       d="m 257.01953,224.36719 c -1.73437,-0.99219 -3.96484,-0.5625 -5.20312,1.01953 -1.25,1.58203 -1.15235,3.83594 0.22656,5.29687 15.94922,17.01172 19.60547,38.01563 10.29687,59.15235 -12.94922,29.3789 -47.46093,52.14843 -78.86328,52.14843 -0.27344,0 -0.54297,-0.008 -0.8125,-0.008 C 117.58984,341.16778 86.121094,300.58965 75.605469,283.1795 21.917969,194.26543 35.628906,111.94903 35.769531,111.1209 c 0.34375,-1.94531 -0.761719,-3.85937 -2.628906,-4.53515 -1.859375,-0.64063 -3.929687,0.0977 -4.90625,1.82031 -3.839844,6.75781 -7.265625,13.59766 -10.332031,20.625 -1.109375,31.57422 3.03125,95.07422 43.777344,162.55859 11.921874,19.73828 47.554682,65.74219 120.976562,66.65625 l 0.81641,0.008 c 37.90234,0 78.21484,-26.59375 93.75,-61.86719 8.3789,-19.01953 8.30468,-38.45313 0.55078,-55.89844 -6,-6.17578 -12.90235,-11.65625 -20.75391,-16.12109 z m 0,0"
       fill="#ead1ff"
       id="path1969" />
    <path
       d="m 279.71094,255.48828 c 0,22.46094 -18.20703,40.66797 -40.66797,40.66797 -22.46094,0 -40.66797,-18.20703 -40.66797,-40.66797 0,-22.46094 18.20703,-40.66797 40.66797,-40.66797 22.46094,0 40.66797,18.20703 40.66797,40.66797 z m 0,0"
       fill="#dbeaff"
       id="path1971" />
    <path
       d="m 263.44141,255.48828 c 0,4.66016 -1.30469,9.01563 -3.57032,12.71875 -4.28906,7.00781 -12.01172,10.29297 -20.82812,10.29297 -13.47656,0 -23.10938,-9.53516 -23.10938,-23.01172 0,-8.82422 3.39063,-16.55078 10.40625,-20.83594 3.69922,-2.26172 8.05078,-3.5664 12.70313,-3.5664 13.47656,0.004 24.39844,10.92578 24.39844,24.40234 z m 0,0"
       fill="#ffffff"
       id="path1973" />
    <path
       d="m 247.17578,271.75391 c -13.47656,0 -24.39844,-10.92188 -24.39844,-24.39844 0,-4.64844 1.30469,-9.00781 3.5586,-12.70313 -7.02344,4.28125 -11.69532,12.00782 -11.69532,20.83594 0,13.47656 10.92579,24.40234 24.40235,24.40234 8.82812,0 16.54297,-4.66015 20.82422,-11.68359 -3.69532,2.25391 -8.04297,3.54688 -12.69141,3.54688 z m 0,0"
       fill="#edf4ff"
       id="path1975" />
    <path
       d="m 369.17578,369.35547 c 0,2.38672 -0.51172,4.65234 -1.43359,6.6914 -2.55469,5.64844 -8.23438,7.20313 -14.83203,7.20313 -8.98438,0 -13.72657,-4.91016 -13.72657,-13.89453 0,-6.59375 1.38672,-12.27344 7.02735,-14.82813 2.04297,-0.92187 4.30859,-1.4375 6.69922,-1.4375 8.98437,0 16.26562,7.28125 16.26562,16.26563 z m 0,0"
       fill="#ffafaa"
       id="path1977" />
    <path
       d="m 361.04297,377.48828 c -8.98438,0 -16.26563,-7.28125 -16.26563,-16.26562 0,-2.38282 0.51172,-4.65625 1.4336,-6.69532 -5.64844,2.55078 -9.56641,8.22657 -9.56641,14.82813 0,8.98437 7.28125,16.26562 16.26563,16.26562 6.59765,0 12.28125,-3.92578 14.83203,-9.57422 -2.04297,0.92188 -4.31641,1.44141 -6.69922,1.44141 z m 0,0"
       fill="#ff9a9f"
       id="path1979" />
    <path
       d="m 287.84375,100.95313 c 0,2.38671 -0.51563,4.64843 -1.4375,6.6914 -2.55078,5.64453 -8.23047,6.51953 -14.83203,6.51953 -8.98438,0 -14.76953,-4.22656 -14.76953,-13.21093 0,-6.597661 2.42968,-12.277349 8.07422,-14.832036 2.04296,-0.921875 4.30859,-1.433594 6.69531,-1.433594 8.98828,0 16.26953,7.28125 16.26953,16.26563 z m 0,0"
       fill="#ffeaa8"
       id="path1981" />
    <path
       d="m 279.71094,109.08594 c -8.98438,0 -16.26953,-7.28125 -16.26953,-16.265628 0,-2.382812 0.51953,-4.65625 1.4414,-6.695312 -5.64844,2.550781 -9.57422,8.226562 -9.57422,14.82813 0,8.98437 7.28516,16.26953 16.26953,16.26953 6.59766,0 12.28125,-3.92969 14.83204,-9.57813 -2.04297,0.92188 -4.31641,1.44141 -6.69922,1.44141 z m 0,0"
       fill="#ffe07d"
       id="path1983" />
    <path
       d="m 108.91016,304.28906 c 0,2.38281 -0.51172,4.64453 -1.4336,6.6875 -2.55078,5.64844 -8.234372,8.64844 -14.835935,8.64844 -8.984375,0 -14.394531,-6.35156 -14.394531,-15.33594 0,-6.60156 2.0625,-12.28125 7.710937,-14.83594 2.039063,-0.91796 4.300781,-1.42968 6.683594,-1.42968 8.984375,0 16.269535,7.28125 16.269535,16.26562 z m 0,0"
       fill="#ccf49f"
       id="path1985" />
    <path
       d="m 100.77344,312.42187 c -8.984378,0 -16.265628,-7.28125 -16.265628,-16.26562 0,-2.38672 0.527344,-4.66016 1.445313,-6.70313 -5.644531,2.55469 -9.578125,8.23438 -9.578125,14.83594 0,8.98438 7.28125,16.26563 16.265625,16.26563 6.601563,0 12.281255,-3.9336 14.835935,-9.57813 -2.03906,0.91797 -4.3164,1.44531 -6.70312,1.44531 z m 0,0"
       fill="#b3e59f"
       id="path1987" />
  </g>
  <g
     id="g2062"
     transform="matrix(0.58593942,0,0,0.58593942,4732.5737,1080.6168)">
    <path
       d="m 436.5,231.22656 c -0.17969,-1.32031 -3.34375,-2.63672 -3.55078,-3.95312 -0.67188,-4.23828 1.47265,-8.42578 0.51172,-12.5625 C 414.76563,134.26562 342.63281,74.324219 256.5,74.324219 c -60.19141,0 -113.54687,29.269531 -146.60547,74.355471 C 87.84375,178.75 82.832031,215.85547 82.832031,256 c 0,100.33984 73.328129,177 173.667969,177 40.16406,0 77.28125,-8.35547 107.35938,-30.42188 36.61328,-26.86328 62.79296,-67.11718 71.32031,-113.54687 L 438.17578,256 c 0,-8.40234 -0.57031,-16.67188 -1.67578,-24.77344 z m 0,0"
       fill="#d6bdef"
       id="path2021" />
    <path
       d="m 256.5,437.67578 c 40.15625,0 77.28125,-13.03906 107.35937,-35.10156 -37.63281,-21.42578 -87.8125,-59.54297 -141.10156,-112.83203 -46.47656,-46.47657 -85.4414,-94.62891 -109.71093,-135.58985 -1.11719,-1.88672 -2.13282,-3.68359 -3.15235,-5.47265 C 87.847656,178.74609 74.820312,215.85937 74.820312,256 c 0,100.33594 81.339848,181.67578 181.679688,181.67578 z m 0,0"
       fill="#c3aff0"
       id="path2023" />
    <path
       d="M 433.46094,214.71094 H 331.41016 c -13.22657,0 -25.67188,5.15234 -35.04297,14.51562 l -8.83594,8.83985 c -6.24219,6.24218 -14.54297,9.67578 -23.36328,9.67578 h -80.97656 l 0.13672,10.09765 14.85546,6.42188 h 65.98438 c 13.22656,0 25.66797,-5.15235 35.03906,-14.51563 l 8.83985,-8.83984 c 6.24218,-6.24219 14.53906,-9.67969 23.36328,-9.67969 h 105.08593 c -0.76171,-5.58984 -1.77343,-11.09765 -3.03515,-16.51562 z m 0,0"
       fill="#ff9a9f"
       id="path2025" />
    <path
       d="m 154.30469,264.25781 h 43.8789 c -5.125,-5.51172 -10.125,-11.01562 -14.99218,-16.51562 h -28.88672 c -4.56641,0 -8.25782,3.69922 -8.25782,8.25781 0,4.5625 3.69141,8.25781 8.25782,8.25781 z m 0,0"
       fill="#ff8086"
       id="path2027" />
    <path
       d="m 231.72266,173.42187 h -41.28907 c -9.12109,0 -16.51562,7.39454 -16.51562,16.51563 0,9.12109 7.39453,16.51562 16.51562,16.51562 h 41.28907 c 9.12109,0 16.51562,-7.39453 16.51562,-16.51562 0.004,-9.12109 -7.39453,-16.51563 -16.51562,-16.51563 z m 0,0"
       fill="#f6d190"
       id="path2029" />
    <path
       d="m 191.12109,313.80859 h -58.49218 c -4.56641,0 -8.25782,-3.69922 -8.25782,-8.25781 0,-4.5625 3.69141,-8.25781 8.25782,-8.25781 h 58.49218 c 4.5625,0 8.25782,3.69531 8.25782,8.25781 0,4.5586 -3.69532,8.25781 -8.25782,8.25781 z m 0,0"
       fill="#ff8086"
       id="path2031" />
    <path
       d="M 297.78906,148.64453 H 256.5 c -4.56641,0 -8.25781,-3.69531 -8.25781,-8.25781 0,-4.5586 3.6914,-8.25781 8.25781,-8.25781 h 41.28906 c 4.5625,0 8.25781,3.69921 8.25781,8.25781 0,4.5625 -3.69531,8.25781 -8.25781,8.25781 z m 0,0"
       fill="#ffe09f"
       id="path2033" />
    <path
       d="m 322.5625,313.80859 h -24.77344 c -4.5664,0 -8.25781,-3.69922 -8.25781,-8.25781 0,-4.5625 3.69141,-8.25781 8.25781,-8.25781 h 24.77344 c 4.56641,0 8.25781,3.69531 8.25781,8.25781 0,4.5586 -3.6914,8.25781 -8.25781,8.25781 z m 0,0"
       fill="#ff9a9f"
       id="path2035" />
    <path
       d="m 429.39062,311.98437 c -2.14453,6.51954 -4.60937,12.86329 -7.39453,19.02344 -2.625,5.80469 -2.625,12.03125 -5.83593,17.4961 24.61718,41.10156 35.87109,77.625 23.16796,90.32812 -25.08593,25.08203 -134.4414,-35.10547 -232.5,-133.16016 C 108.77344,207.61328 49.917969,99.589844 75,74.503906 c 12.707031,-12.703125 48.95313,-1.617187 90.05859,23.003906 5.5,-3.234374 10.70703,-4.433593 16.5586,-7.085937 C 187.75,87.644531 194.0625,85.199219 200.53125,83.105469 110.53516,15.128906 34.617188,-16.707031 9.203125,8.707031 -27.214844,45.128906 53.976562,185.37109 190.55469,321.94531 c 136.57422,136.57813 276.8164,217.76953 313.23828,181.34766 25.41015,-25.41016 -6.4336,-101.31641 -74.40235,-191.3086 z m 0,0"
       fill="#ffe09f"
       id="path2037" />
    <path
       d="m 413.24609,347.91797 c 24.61719,41.10547 33.50391,72.92578 20.80078,85.6289 C 408.96094,458.63281 309.13672,399.47656 211.07812,301.41797 113.02344,203.36328 53.867188,103.53906 78.949219,78.453125 91.652344,65.75 123.47266,74.636719 164.58203,99.257812 c 5.49609,-3.230468 11.19141,-6.1875 17.03906,-8.832031 -33.0625,-20.910156 -63.44531,-34.25 -85.843746,-34.25 h -0.0039 c -14.800782,0.0039 -23.667969,5.765625 -28.5,10.601563 -18.5,18.5 -12.660157,53.562496 17.355468,104.214846 25.636728,43.26562 66.398438,93.73437 114.769538,142.10547 71.04297,71.04296 165.94922,142.73046 217.82812,142.73046 14.79297,0 23.66406,-5.76562 28.4961,-10.60156 22.3789,-22.3789 6.24218,-66.9414 -23.73047,-114.21875 -2.62891,5.79297 -5.54297,11.46094 -8.7461,16.91016 z m 0,0"
       fill="#f6d190"
       id="path2039" />
    <path
       d="m 388.625,272.51562 c 0,9.125 7.39844,16.51563 16.51953,16.51563 h 30.03516 c 1.96875,-10.71484 2.99609,-21.74219 2.99609,-33.03125 h -33.03125 c -9.125,0 -16.51953,7.39453 -16.51953,16.51562 z m 0,0"
       fill="#ff9a9f"
       id="path2041" />
  </g>
  <g
     id="g2141"
     transform="matrix(0.5859375,0,0,0.5859375,5040.5588,230.98778)">
    <path
       d="m 412.90234,206.45312 c 0,55.44532 -21.85937,105.78907 -57.42968,142.87891 -37.57422,39.17969 -90.44922,52.33594 -149.02344,52.33594 C 92.429688,401.66797 9.664062,320.47266 9.664062,206.45313 9.664062,136.78906 34.5,75.1875 87.347656,37.800781 121,13.988281 162.09375,0 206.45313,0 320.47266,0 412.90234,92.433594 412.90234,206.45312 Z m 0,0"
       fill="#ffc269"
       id="path2064" />
    <path
       d="m 225.73047,411.96484 c 5.5664,-0.51562 11.05859,-1.26562 16.48437,-2.21484 0.4375,-0.0781 0.875,-0.16016 1.3125,-0.24219 43.60938,-7.92578 82.49219,-29.47265 111.94141,-60.17969 -16.33984,-11.8789 -36.42969,-19.0039 -58.17969,-19.0039 -24.0664,0 -46.07422,8.61719 -63.20703,22.90625 -6.05469,5.04687 -13.99609,7.14062 -21.70312,5.48437 C 119.3125,338.69141 49.546875,255.95703 49.546875,156.90234 c 0,-44.35547 14,-85.445309 37.804687,-119.097652 C 34.503906,75.191406 0,136.78906 0,206.45312 c 0,111.75782 88.816406,202.71094 199.70703,206.28125 2.24219,0.0703 4.48047,0.16797 6.74609,0.16797 5.71875,0 11.36329,-0.30078 16.96094,-0.75781 0.77344,-0.0625 1.54688,-0.10937 2.31641,-0.17969 z m 0,0"
       fill="#ffa95f"
       id="path2066" />
    <path
       d="m 379.87109,429.41797 c 0,14.3125 -3.64062,27.77344 -10.04687,39.50781 C 355.81641,494.58984 328.58594,505.5 297.28906,505.5 251.68359,505.5 222,475.02734 222,429.41797 c 0,-31.30078 10.12891,-58.53906 35.80078,-72.54297 11.73047,-6.39844 25.18359,-10.03516 39.48828,-10.03516 45.60938,0 82.58203,36.97266 82.58203,82.57813 z m 0,0"
       fill="#c3ddff"
       id="path2068" />
    <path
       d="m 330.32422,478.96875 c -45.60938,0 -82.58203,-36.97266 -82.58203,-82.58203 0,-14.3086 3.65234,-27.78125 10.05468,-39.51563 -4.53125,2.47266 -8.80468,5.35938 -12.76953,8.60547 -2.03125,1.66406 -0.47656,8.23828 -2.33984,10.08594 -2.05078,2.03516 -7.50391,-0.64453 -9.33594,1.59375 -11.64844,14.23828 -18.64062,32.4375 -18.64062,52.26172 0,45.60937 36.97265,82.58203 82.57812,82.58203 31.30078,0 58.53125,-17.40625 72.53516,-43.07422 -11.73438,6.40235 -25.19141,10.04297 -39.5,10.04297 z m 0,0"
       fill="#a4ccff"
       id="path2070" />
    <path
       d="m 512,342.71094 c 0,6.0039 -1.42188,11.67187 -3.94922,16.6914 C 501.93359,371.54297 489.76953,377.25 475.25,377.25 c -20.52344,0 -34.5,-14.01563 -34.5,-34.53906 0,-14.52344 5.25781,-27.09766 17.39844,-33.21094 5.01562,-2.52734 10.6875,-3.95313 16.6914,-3.95313 20.52344,0 37.16016,16.64063 37.16016,37.16407 z m 0,0"
       fill="#ff9a9f"
       id="path2072" />
    <path
       d="m 107.35547,206.45312 c 0,9.1211 -7.394532,16.51563 -16.515626,16.51563 -9.121094,0 -16.515625,-7.39453 -16.515625,-16.51563 0,-9.12109 7.394531,-16.51562 16.515625,-16.51562 9.121094,0 16.515626,7.39453 16.515626,16.51562 z m 0,0"
       fill="#ffe07d"
       id="path2074" />
    <path
       d="m 206.44922,322.06641 c 0,9.12109 -7.39453,16.51562 -16.51563,16.51562 -9.12109,0 -16.51562,-7.39453 -16.51562,-16.51562 0,-9.1211 7.39453,-16.51563 16.51562,-16.51563 9.1211,0 16.51563,7.39453 16.51563,16.51563 z m 0,0"
       fill="#ffe07d"
       id="path2076" />
    <path
       d="m 180.90625,128.34766 c -8.91016,-4.11328 -16.10547,-11.3125 -20.22266,-20.22266 -1.48828,-3.22266 -6.07422,-3.22266 -7.5625,0 -4.11328,8.91016 -11.30859,16.10938 -20.22265,20.22266 -3.22266,1.48828 -3.22266,6.07421 0,7.5625 8.91406,4.11328 16.10937,11.3125 20.22265,20.22265 1.48828,3.22266 6.07422,3.22266 7.5625,0 4.11719,-8.91406 11.3125,-16.10937 20.22266,-20.22265 3.22656,-1.48829 3.22656,-6.07422 0,-7.5625 z m 0,0"
       fill="#ffe07d"
       id="path2078" />
    <path
       d="m 323.43359,268.84375 c -6.08593,-3.14453 -11.07031,-8.125 -14.21484,-14.21094 -1.51953,-2.9414 -5.82031,-2.9414 -7.33984,0 -3.14844,6.08594 -8.12891,11.06641 -14.21485,14.21094 -2.9375,1.51953 -2.9375,5.82031 0,7.34375 6.08594,3.14453 11.06641,8.125 14.21485,14.21094 1.51953,2.9414 5.82031,2.9414 7.33984,0 3.14453,-6.08594 8.12891,-11.06641 14.21484,-14.21094 2.9375,-1.51953 2.9375,-5.82422 0,-7.34375 z m 0,0"
       fill="#ffe07d"
       id="path2080" />
    <g
       fill="#ffa95f"
       id="g2090">
      <path
         d="m 198.19531,231.22656 h -8.25781 v -8.25781 c 0,-4.56641 -3.69531,-8.25781 -8.25781,-8.25781 -4.56641,0 -8.25782,3.6914 -8.25782,8.25781 v 8.25781 h -8.26171 c -4.5625,0 -8.25782,3.69531 -8.25782,8.25781 0,4.5625 3.69532,8.25782 8.25782,8.25782 h 8.26171 V 256 c 0,4.56641 3.69141,8.25781 8.25782,8.25781 4.5625,0 8.25781,-3.69531 8.25781,-8.25781 v -8.25781 h 8.25781 c 4.5625,0 8.25781,-3.69532 8.25781,-8.25782 0,-4.5625 -3.69531,-8.25781 -8.25781,-8.25781 z m 0,0"
         id="path2082" />
      <path
         d="m 303.12891,101.51563 c -3.22657,-3.226568 -8.45313,-3.226568 -11.67579,0 l -6.55078,6.54687 -6.54687,-6.54687 c -3.22656,-3.226568 -8.45313,-3.226568 -11.67578,0 -3.22656,3.22656 -3.22656,8.45312 0,11.67578 l 6.54687,6.55078 -6.54687,6.54687 c -3.22656,3.22656 -3.22656,8.45313 0,11.67578 1.61328,1.61328 3.72656,2.42188 5.83984,2.42188 2.11328,0 4.22266,-0.8086 5.83594,-2.42188 l 6.55078,-6.54687 6.54687,6.54687 c 1.61329,1.61328 3.72657,2.42188 5.83985,2.42188 2.11328,0 4.22656,-0.8086 5.83984,-2.42188 3.22266,-3.22656 3.22266,-8.44922 0,-11.67578 l -6.55078,-6.54687 6.55078,-6.55078 c 3.22266,-3.22266 3.22266,-8.44922 -0.004,-11.67578 z m 0,0"
         id="path2084" />
      <path
         d="m 226.66016,50.417969 -16.51563,-8.257813 c -4.07422,-2.03125 -9.03906,-0.386718 -11.08203,3.695313 -2.03906,4.082031 -0.38672,9.039062 3.69531,11.082031 l 16.51563,8.257812 c 1.1875,0.589844 2.44531,0.871094 3.6875,0.871094 3.03125,0 5.9414,-1.671875 7.39453,-4.566406 2.03906,-4.082031 0.38672,-9.039062 -3.69531,-11.082031 z m 0,0"
         id="path2086" />
      <path
         d="m 367.04687,182.54687 c -4.07812,-2.02343 -9.03125,-0.38671 -11.07812,3.69532 l -8.25781,16.51562 c -2.04297,4.08203 -0.39063,9.03906 3.6914,11.08203 1.1875,0.58985 2.44532,0.8711 3.6875,0.8711 3.03125,0 5.94141,-1.67188 7.39453,-4.56641 l 8.25782,-16.51562 c 2.03906,-4.08204 0.38672,-9.03907 -3.69532,-11.08204 z m 0,0"
         id="path2088" />
    </g>
    <path
       d="m 81.710938,293.59766 c -2.039063,-4.08204 -7,-5.71875 -11.082032,-3.69532 -4.082031,2.03907 -5.734375,7 -3.695312,11.08203 L 75.191406,317.5 c 1.453125,2.89453 4.363282,4.56641 7.398438,4.56641 1.238281,0 2.5,-0.28516 3.683594,-0.8711 4.082031,-2.04297 5.734374,-7 3.695312,-11.08203 z m 0,0"
       fill="#ff8b5a"
       id="path2092" />
    <path
       d="m 80.160156,137.96875 c 3.226563,-3.22656 3.226563,-8.45313 0,-11.67969 -3.226562,-3.22265 -8.449218,-3.22265 -11.675781,0 l -8.257813,8.26172 C 57,137.77344 57,143 60.226562,146.22656 c 1.613282,1.61328 3.726563,2.41797 5.839844,2.41797 2.113282,0 4.222656,-0.80469 5.835938,-2.41797 z m 0,0"
       fill="#ffa95f"
       id="path2094" />
    <path
       d="m 330.32422,470.71094 c -2.11328,0 -4.22656,-0.8086 -5.83985,-2.42188 l -8.25781,-8.25781 c -3.22656,-3.22266 -3.22656,-8.44922 0,-11.67578 3.22656,-3.22656 8.45313,-3.22656 11.67578,0 l 8.25782,8.25781 c 3.22656,3.22656 3.22656,8.45313 0,11.67578 -1.61328,1.61328 -3.72657,2.42188 -5.83594,2.42188 z m 0,0"
       fill="#d6bdef"
       id="path2096" />
    <path
       d="m 303.12891,473.12891 -41.28907,-41.28907 c -1.95703,-1.95703 -4.65234,-2.72656 -7.1875,-2.30859 L 252.5,439.625 l 40.58203,42.79297 11.34766,-7.60156 c -0.35157,-0.60157 -0.78516,-1.17188 -1.30078,-1.6875 z m 0,0"
       fill="#d6bdef"
       id="path2098" />
    <path
       d="m 322.06641,412.90234 c -2.11329,0 -4.22657,-0.80468 -5.83985,-2.41797 l -24.77344,-24.77343 c -3.22656,-3.22657 -3.22656,-8.45313 0,-11.67969 3.22657,-3.22266 8.44922,-3.22266 11.67579,0 l 24.77343,24.77734 c 3.22657,3.22266 3.22657,8.44922 0,11.67578 -1.61328,1.61329 -3.72656,2.41797 -5.83593,2.41797 z m 0,0"
       fill="#d6bdef"
       id="path2100" />
    <path
       d="m 251.44531,371.89453 c -8.13281,4.98047 -3.57422,19.78516 -3.57422,19.78516 l 43.57813,43.57812 c 1.61328,1.61328 3.72656,2.41797 5.83984,2.41797 2.11328,0 4.22656,-0.80469 5.83985,-2.41797 3.22656,-3.22656 3.22656,-8.45312 0,-11.67969 z m 0,0"
       fill="#d6bdef"
       id="path2102" />
    <path
       d="m 247.87109,391.67969 c 0.37891,-6.8711 1.61328,-13.46094 3.57422,-19.78516 l -6.42578,-6.42187 c -4.27344,3.49609 -8.17187,7.41015 -11.66797,11.68359 z m 0,0"
       fill="#c3aff0"
       id="path2104" />
    <path
       d="m 491.35547,363.35547 c -20.52344,0 -37.16016,-16.63672 -37.16016,-37.16016 0,-5.99218 1.4375,-11.67968 3.95313,-16.6914 -12.15625,6.10547 -20.46875,18.67187 -20.46875,33.20703 0,20.52344 16.63672,37.16015 37.16015,37.16015 14.53125,0 27.09766,-8.3125 33.20704,-20.46875 -5.01172,2.51563 -10.70313,3.95313 -16.69141,3.95313 z m 0,0"
       fill="#ff8086"
       id="path2106" />
    <path
       d="m 303.12891,484.80469 c 2.77343,-2.77344 3.30078,-6.80469 1.30468,-9.99219 -22.11328,-7.39453 -40.45312,-24.13281 -49.78125,-45.28516 -1.67968,0.25782 -3.19531,1.01563 -4.49218,2.3125 -3.22657,3.22266 -3.22657,8.44922 0,11.67578 l 41.28906,41.28907 c 1.61328,1.61328 3.72656,2.41797 5.83984,2.41797 2.11328,0.004 4.22656,-0.80469 5.83985,-2.41797 z m 0,0"
       fill="#c3aff0"
       id="path2108" />
  </g>
  <g
     id="g2163"
     transform="matrix(0.5859375,0,0,0.5859375,4911.9625,638.8481)">
    <path
       d="m 504,248 h -32.88672 c -18.78125,0 -37.41016,-3.38281 -54.99219,-9.99219 h -0.004 c -11.10547,-4.17187 -13.96485,-18.55469 -5.30078,-26.66015 l 21.33203,-19.95704 c 5.55859,-5.20312 1.70312,-14.51171 -5.90625,-14.25781 l -29.19531,0.97266 C 385.1875,178.5 377.03906,166.30469 381.94141,155.5 c 7.76172,-17.10156 18.54296,-32.66797 31.82421,-45.94922 l 23.25391,-23.257811 c 3.125,-3.125 3.125,-8.1875 0,-11.3125 -3.125,-3.125 -8.1875,-3.125 -11.3125,0 L 402.45312,98.234375 C 389.17187,111.51563 373.60547,122.29688 356.5,130.05859 c -10.80469,4.90235 -22.99609,-3.24609 -22.60156,-15.10546 l 0.97265,-29.195318 c 0.25,-7.609374 -9.05859,-11.464843 -14.25781,-5.90625 l -19.96094,21.332028 c -8.10156,8.66407 -22.48828,5.80079 -26.66015,-5.300778 v -0.0039 C 267.38281,78.296875 264,59.667969 264,40.886719 V 8 c 0,-4.417969 -3.58203,-8 -8,-8 -4.41797,0 -8,3.582031 -8,8 v 32.886719 c 0,18.78125 -3.38281,37.410156 -9.99219,54.992187 v 0.0039 c -4.17187,11.101564 -18.55469,13.964844 -26.66015,5.300774 L 191.38672,79.851562 c -5.19922,-5.558593 -14.50781,-1.703124 -14.25391,5.90625 l 0.96875,29.195318 C 178.49609,126.8125 166.30469,134.96094 155.5,130.05859 138.39453,122.29688 122.82812,111.51563 109.54687,98.234375 L 86.292969,74.980469 c -3.121094,-3.125 -8.1875,-3.125 -11.3125,0 -3.125,3.125 -3.125,8.1875 0,11.3125 l 23.253906,23.257811 c 13.281245,13.28125 24.062495,28.84375 31.824215,45.94922 4.90235,10.80469 -3.24609,22.99609 -15.10156,22.60547 l -29.199218,-0.97266 c -7.605468,-0.2539 -11.460937,9.05469 -5.90625,14.25781 l 21.335938,19.95704 c 8.66406,8.10546 5.80078,22.48828 -5.304688,26.66015 v 0.004 C 78.296875,244.61719 59.667969,248 40.886719,248 H 8 c -4.417969,0 -8,3.58203 -8,8 0,4.41797 3.582031,8 8,8 h 32.886719 c 18.78125,0 37.410156,3.38281 54.992187,9.99219 h 0.0039 c 11.105464,4.17187 13.964844,18.55859 5.300774,26.66015 l -21.332024,19.95703 c -5.558593,5.20313 -1.699218,14.51172 5.90625,14.25782 l 29.195304,-0.97266 c 11.85938,-0.39453 20.00782,11.80078 15.10547,22.60156 -7.76172,17.10547 -18.54297,32.67188 -31.824211,45.95313 l -23.253906,23.25781 c -3.125,3.12109 -3.125,8.1875 0,11.3125 3.125,3.125 8.191406,3.125 11.3125,0 l 23.253897,-23.25391 c 13.28125,-13.28125 28.84766,-24.0625 45.95313,-31.82421 10.80469,-4.90235 22.99609,3.24609 22.60547,15.10546 l -0.97266,29.19532 c -0.2539,7.60937 9.05469,11.46484 14.25781,5.90625 l 19.95704,-21.33203 c 8.10546,-8.66407 22.48828,-5.80469 26.66406,5.30078 C 244.61719,433.70312 248,452.33203 248,471.11328 V 504 c 0,4.41797 3.58203,8 8,8 4.41797,0 8,-3.58203 8,-8 v -32.88672 c 0,-18.78516 3.38672,-37.41406 9.99219,-54.99609 4.17187,-11.10547 18.55859,-13.96485 26.66015,-5.30078 l 19.96094,21.33203 c 5.19922,5.55859 14.50781,1.69922 14.25391,-5.90625 l -0.96875,-29.19531 c -0.39453,-11.85938 11.79687,-20.00782 22.60156,-15.10547 17.10547,7.76172 32.67187,18.54296 45.95312,31.82421 l 23.25391,23.25391 c 3.125,3.125 8.1875,3.125 11.3125,0 3.125,-3.125 3.125,-8.19141 0,-11.3125 L 413.76562,402.45312 C 400.48437,389.17187 389.70312,373.60547 381.94531,356.5 c -4.90234,-10.80469 3.2461,-22.99609 15.10156,-22.60547 l 29.19532,0.97266 c 7.60937,0.2539 11.46484,-9.05469 5.90625,-14.25781 l -21.33203,-19.95704 c -8.66407,-8.10546 -5.80079,-22.48828 5.30078,-26.66015 h 0.004 C 433.70312,267.38672 452.33203,264 471.11328,264 H 504 c 4.41797,0 8,-3.58203 8,-8 0,-4.41797 -3.58203,-8 -8,-8 z m 0,0"
       fill="#ffe07d"
       id="path2143" />
    <path
       d="m 384,256 c 0,70.69141 -57.30859,128 -128,128 -70.69141,0 -128,-57.30859 -128,-128 0,-70.69141 57.30859,-128 128,-128 70.69141,0 128,57.30859 128,128 z m 0,0"
       fill="#fff5d7"
       id="path2145" />
    <path
       d="m 360,256 c 0,20.52734 -5.94531,39.66797 -16.21484,55.78516 C 325.32812,340.77344 292.91016,349.5 256,349.5 c -57.4375,0 -90.33203,-36.0625 -90.33203,-93.5 0,-36.91016 5.5625,-69.32813 34.54687,-87.78906 C 216.33594,157.94531 235.47266,152 256,152 c 57.4375,0 104,46.5625 104,104 z m 0,0"
       fill="#ffc269"
       id="path2147" />
    <path
       d="m 288,328 c -57.4375,0 -104,-46.5625 -104,-104 0,-20.51953 5.95703,-39.66797 16.21484,-55.78516 C 171.22266,186.67187 152,219.08203 152,256 c 0,57.4375 46.5625,104 104,104 36.91797,0 69.33203,-19.21875 87.78906,-48.21094 C 327.67187,322.04687 308.51953,328 288,328 Z m 0,0"
       fill="#ffa95f"
       id="path2149" />
  </g>
  <path
     d="M 3719.1,1941.5073 V 291.50727"
     fill="#ffffff"
     stroke-width="7.51199"
     id="path999-0-3-0-6"
     style="fill:#000000;fill-opacity:1;stroke:#000000;stroke-opacity:1" />
</svg>
