<?xml version="1.0" encoding="UTF-8" standalone="no"?>
<svg
   width="545.51428"
   height="363.50507"
   viewBox="-280 -190 545.51428 363.50507"
   version="1.1"
   id="svg194"
   sodipodi:docname="ley-gases-ideales.svg"
   inkscape:version="1.2 (dc2aeda, 2022-05-15)"
   xmlns:inkscape="http://www.inkscape.org/namespaces/inkscape"
   xmlns:sodipodi="http://sodipodi.sourceforge.net/DTD/sodipodi-0.dtd"
   xmlns="http://www.w3.org/2000/svg"
   xmlns:svg="http://www.w3.org/2000/svg"
   xmlns:rdf="http://www.w3.org/1999/02/22-rdf-syntax-ns#"
   xmlns:cc="http://creativecommons.org/ns#"
   xmlns:dc="http://purl.org/dc/elements/1.1/">
  <defs
     id="defs198" />
  <sodipodi:namedview
     id="namedview196"
     pagecolor="#ffffff"
     bordercolor="#666666"
     borderopacity="1.0"
     inkscape:showpageshadow="2"
     inkscape:pageopacity="0.0"
     inkscape:pagecheckerboard="0"
     inkscape:deskcolor="#d1d1d1"
     showgrid="false"
     inkscape:zoom="0.85420815"
     inkscape:cx="321.93558"
     inkscape:cy="214.2335"
     inkscape:window-width="1280"
     inkscape:window-height="800"
     inkscape:window-x="1920"
     inkscape:window-y="213"
     inkscape:window-maximized="0"
     inkscape:current-layer="svg194" />
  <title
     id="title132">ideal gas law relationships</title>
  <desc
     id="desc134">Relationships between Boyle's, Charles's, Gay-Lussac's, Avogadro's, combined and ideal gas laws, illustrated by CMG Lee.</desc>
  <style
     type="text/css"
     id="style136">
  #main  { font-family:Helvetica,Arial,sans-serif; font-size:60px; text-anchor:middle;
           fill:none; stroke-width:3; stroke-linejoin:round; stroke-linecap:round; stroke:none; }
  #equation  { fill:#000000; stroke:#000000; font-family:Times,Times New Roman,serif; font-size:90px; }
  #boyle     { fill:#3333ff; stroke:#3333ff; }
  #charles   { fill:#00cccc; stroke:#00cccc; }
  #avogadro  { fill:#ff9900; stroke:#ff9900; }
  #gaylussac { fill:#00cc00; stroke:#00cc00; }
  #combined  { fill:#ff99cc; stroke:#ff99cc; }
  #ideal     { fill:#cccccc; stroke:#cccccc; }
  .vars      { opacity:0.5; stroke-width:60; }
  text       { stroke:none; cursor:default; }
 </style>
  <circle
     class="vars"
     cx="28.89323"
     cy="-2.9000001"
     r="80"
     id="circle140"
     style="font-size:60px;font-family:Helvetica, Arial, sans-serif;text-anchor:middle;fill:#bbbbbb;stroke:#bbbbbb;stroke-linecap:round;stroke-linejoin:round;stroke-opacity:1;fill-opacity:1" />
  <g
     aria-label="ideal"
     id="text142"
     style="font-size:60px;font-family:Helvetica, Arial, sans-serif;text-anchor:end;fill:#bbbbbb;stroke-width:3;stroke-linecap:round;stroke-linejoin:round;fill-opacity:1"
     transform="translate(28.89323,7.1)">
    <path
       d="m 109.8403,-67.62 q -0.54,0 -0.9,-0.18 -0.3,-0.12 -0.3,-0.48 0,-0.48 0.42,-0.66 0.48,-0.18 0.96,-0.3 1.26,-0.3 1.92,-0.72 0.66,-0.48 0.66,-1.56 v -13.02 q 0,-1.62 -0.6,-2.88 -0.54,-1.26 -2.1,-1.5 -0.3,-0.06 -0.48,-0.24 -0.12,-0.18 -0.12,-0.54 0,-0.66 0.54,-0.72 2.4,-0.54 3.96,-1.44 1.56,-0.96 2.34,-1.56 0.54,-0.42 0.84,-0.42 0.36,0 0.36,0.3 0,0.48 -0.18,1.92 -0.12,1.38 -0.24,3.12 -0.12,1.68 -0.12,3.06 v 13.92 q 0,1.02 0.66,1.5 0.72,0.48 1.92,0.78 0.48,0.12 0.9,0.3 0.48,0.18 0.48,0.66 0,0.66 -1.2,0.66 -1.14,0 -1.86,-0.12 -0.66,-0.06 -1.32,-0.12 -0.6,-0.06 -1.68,-0.06 -1.02,0 -1.68,0.06 -0.66,0.06 -1.32,0.12 -0.66,0.12 -1.86,0.12 z m 4.8,-31.14 q -1.26,0 -2.16,-0.84 -0.84,-0.9 -0.84,-2.16 0,-1.32 0.84,-2.16 0.9,-0.9 2.16,-0.9 1.32,0 2.16,0.9 0.9,0.84 0.9,2.16 0,1.26 -0.9,2.16 -0.84,0.84 -2.16,0.84 z"
       style="font-family:'EB Garamond';-inkscape-font-specification:'EB Garamond';fill:#bbbbbb;fill-opacity:1"
       id="path1824" />
    <path
       d="m 143.32024,-66.66 q -0.12,0 -0.42,-0.24 -0.24,-0.24 -0.24,-0.36 0,-0.6 0.12,-1.68 0.18,-1.14 0.18,-1.92 v -0.36 q -0.9,1.38 -2.88,2.82 -1.98,1.44 -4.98,1.44 -3.42,0 -5.94,-1.8 -2.46,-1.8 -3.84,-4.62 -1.32,-2.82 -1.32,-5.82 0,-3.48 1.62,-6.54 1.62,-3.06 4.62,-4.98 3.06,-1.92 7.26,-1.92 1.2,0 2.4,0.24 1.26,0.18 1.92,0.42 0.54,0.18 0.78,0.18 0.42,0 0.42,-1.44 v -8.52 q 0,-2.46 -0.78,-3.3 -0.78,-0.84 -2.22,-1.08 -0.54,-0.12 -0.54,-0.78 0,-0.54 0.48,-0.72 2.64,-0.66 4.14,-1.26 1.5,-0.6 2.34,-0.96 0.24,-0.12 0.42,-0.12 0.24,-0.06 0.36,-0.06 0.36,0 0.42,0.36 0,0.36 -0.12,1.26 -0.06,0.84 -0.18,2.52 -0.12,1.68 -0.12,4.38 v 27.12 q 0,2.04 0.3,3 0.3,0.9 0.96,0.9 0.3,0 1.02,-0.06 0.78,-0.06 1.56,-0.12 1.08,-0.06 1.08,0.54 0,0.42 -0.3,0.78 -0.24,0.3 -0.54,0.3 -1.68,0.24 -3.3,0.72 -1.62,0.42 -3.72,1.32 -0.48,0.24 -0.66,0.3 -0.12,0.06 -0.3,0.06 z m -6.06,-3.42 q 1.56,0 3.06,-0.78 1.5,-0.84 2.64,-2.16 l 0.06,-10.8 q 0,-1.62 -0.96,-3.18 -0.9,-1.56 -2.58,-2.52 -1.62,-1.02 -3.84,-1.02 -1.38,0 -3.12,0.84 -1.74,0.84 -3,3 -1.26,2.1 -1.26,6.12 0,3.42 1.02,5.52 1.02,2.04 2.46,3.12 1.5,1.08 3,1.5 1.56,0.36 2.52,0.36 z"
       style="font-family:'EB Garamond';-inkscape-font-specification:'EB Garamond';fill:#bbbbbb;fill-opacity:1"
       id="path1826" />
    <path
       d="m 165.04015,-66.9 q -3.3,0 -5.76,-1.62 -2.46,-1.62 -3.84,-4.56 -1.38,-3 -1.38,-6.9 0,-3.48 1.56,-6.3 1.62,-2.88 4.26,-4.62 2.64,-1.74 5.76,-1.74 2.4,0 4.26,0.96 1.86,0.96 2.88,2.7 1.08,1.68 1.08,3.9 0,1.86 -1.8,1.86 h -12.66 q -0.84,0 -1.2,0.48 -0.3,0.42 -0.3,1.74 0,2.88 1.26,5.28 1.26,2.34 3.36,3.78 2.1,1.38 4.62,1.38 1.8,0 3.24,-0.66 1.5,-0.72 2.64,-2.04 0.24,-0.3 0.36,-0.36 0.12,-0.12 0.3,-0.12 0.48,0 0.48,0.6 0,1.14 -1.08,2.52 -0.9,1.14 -2.16,1.98 -1.26,0.84 -2.76,1.26 -1.5,0.48 -3.12,0.48 z m -5.52,-18.18 h 5.46 q 1.44,0 2.46,-0.06 1.02,-0.06 1.98,-0.24 0.3,-0.06 0.36,-0.36 0.12,-0.36 0.12,-0.96 0,-1.74 -1.56,-2.94 -1.5,-1.26 -3.6,-1.26 -1.38,0 -2.76,0.84 -1.38,0.78 -2.28,1.98 -0.9,1.2 -0.9,2.4 0,0.6 0.72,0.6 z"
       style="font-family:'EB Garamond';-inkscape-font-specification:'EB Garamond';fill:#bbbbbb;fill-opacity:1"
       id="path1828" />
    <path
       d="m 182.68012,-66.96 q -1.08,0 -2.22,-0.84 -1.08,-0.84 -1.86,-2.04 -0.72,-1.2 -0.72,-2.28 0,-1.92 1.02,-3 1.02,-1.08 3.24,-1.98 l 6.12,-2.52 q 1.2,-0.48 1.38,-0.84 0.24,-0.36 0.3,-1.56 l 0.12,-3.84 q 0.06,-1.56 -0.9,-2.7 -0.9,-1.14 -2.64,-1.14 -0.9,0 -1.8,0.3 -0.9,0.3 -1.5,0.78 -0.36,0.24 -0.48,0.72 -0.12,0.48 -0.12,1.02 0,0.24 0,0.54 0.06,0.3 0.06,0.54 0,0.3 -0.78,0.84 -0.72,0.48 -1.68,0.9 -0.9,0.36 -1.5,0.36 -0.3,0 -0.48,-0.12 -0.18,-0.18 -0.18,-0.42 0,-0.96 0.6,-2.04 0.66,-1.14 1.8,-2.1 1.38,-1.26 3,-2.22 1.62,-0.96 3.18,-1.5 1.56,-0.54 2.76,-0.54 2.16,0 3.54,1.56 1.44,1.5 1.38,3.78 l -0.3,14.4 q -0.06,1.26 0.54,2.04 0.66,0.78 1.62,0.78 1.5,0 2.22,-0.66 0.3,-0.3 0.48,-0.3 0.3,0 0.48,0.18 0.18,0.18 0.18,0.48 0,0.66 -0.66,1.32 -0.96,0.96 -2.1,1.5 -1.08,0.6 -2.04,0.6 -2.76,0 -4.38,-3.12 h -0.18 q -1.98,1.62 -3.78,2.34 -1.8,0.78 -3.72,0.78 z m 2.82,-2.88 q 1.2,0 2.04,-0.36 0.84,-0.42 1.5,-1.08 0.3,-0.3 0.48,-0.78 0.24,-0.54 0.3,-1.68 l 0.12,-2.94 q 0.06,-0.66 -0.06,-0.96 -0.12,-0.3 -0.48,-0.3 -0.12,0 -0.42,0.06 -0.3,0.06 -0.78,0.24 -3.18,1.14 -4.44,2.4 -1.2,1.2 -1.2,2.22 0,1.56 0.9,2.4 0.96,0.78 2.04,0.78 z"
       style="font-family:'EB Garamond';-inkscape-font-specification:'EB Garamond';fill:#bbbbbb;fill-opacity:1"
       id="path1830" />
    <path
       d="m 201.94001,-67.62 q -0.3,0 -0.78,-0.12 -0.42,-0.06 -0.42,-0.42 0,-0.48 0.42,-0.66 0.48,-0.24 0.96,-0.42 0.9,-0.3 1.74,-0.66 0.84,-0.42 0.84,-1.62 v -30.24 q 0,-1.74 -0.66,-2.88 -0.6,-1.2 -2.1,-1.5 -0.48,-0.12 -0.48,-0.78 0,-0.6 0.42,-0.72 1.56,-0.36 2.7,-0.72 1.14,-0.42 2.1,-0.84 1.02,-0.42 1.98,-0.78 0.24,-0.12 0.36,-0.12 0.12,0 0.18,0.18 0.12,0.12 0.12,0.24 0,0.54 -0.24,2.34 -0.18,1.74 -0.18,5.82 v 30 q 0,1.2 0.84,1.62 0.84,0.36 1.74,0.66 0.48,0.18 0.9,0.42 0.48,0.18 0.48,0.66 0,0.36 -0.48,0.42 -0.42,0.12 -0.72,0.12 -1.14,0 -1.86,-0.12 -0.66,-0.06 -1.32,-0.12 -0.6,-0.06 -1.68,-0.06 -1.02,0 -1.68,0.06 -0.66,0.06 -1.32,0.12 -0.66,0.12 -1.86,0.12 z"
       style="font-family:'EB Garamond';-inkscape-font-specification:'EB Garamond';fill:#bbbbbb;fill-opacity:1"
       id="path1832" />
  </g>
  <path
     class="vars"
     d="m 83.89323,-47.9 v -55 l -105,40 v 120 h 9 z"
     id="path145"
     style="font-size:60px;font-family:Helvetica, Arial, sans-serif;text-anchor:middle;fill:#66ccee;stroke:#66ccee;stroke-linecap:round;stroke-linejoin:round;fill-opacity:1;stroke-opacity:1" />
  <g
     aria-label="combinada"
     id="text147"
     style="font-size:60px;font-family:Helvetica, Arial, sans-serif;text-anchor:end;fill:#66ccee;stroke-width:3;stroke-linecap:round;stroke-linejoin:round;fill-opacity:1"
     transform="translate(28.89323,7.1)">
    <path
       d="m -10.339476,-153.9 q -3,0 -5.46,-1.5 -2.4,-1.56 -3.84,-4.2 -1.38,-2.7 -1.38,-6 0,-3.9 1.68,-7.08 1.74,-3.18 4.62,-5.04 2.88,-1.92 6.3599997,-1.92 3.9,0 6.84,2.1 0.71999998,0.54 0.71999998,1.14 0,0.48 -0.41999998,1.08 -0.42,0.6 -1.02,1.02 -0.6,0.36 -1.14,0.36 -0.3,0 -0.6,-0.18 -0.3,-0.24 -0.66,-0.48 -1.32,-1.02 -2.94,-1.92 -1.62,-0.9 -2.6999997,-0.9 -2.94,0 -4.8,2.76 -1.8,2.7 -1.8,7.14 0,2.82 1.2,5.1 1.26,2.28 3.3,3.6 2.1,1.32 4.6199997,1.32 1.74,0 3,-0.54 1.26,-0.6 2.7,-2.04 0.12,-0.12 0.3,-0.18 0.18,-0.12 0.3,-0.12 0.65999998,0 0.65999998,0.84 0,0.36 -0.23999998,0.84 -0.18,0.42 -0.66,1.02 -0.96,1.2 -2.28,2.1 -1.32,0.84 -2.94,1.26 -1.56,0.42 -3.4199997,0.42 z"
       style="font-family:'EB Garamond';-inkscape-font-specification:'EB Garamond';fill:#66ccee;fill-opacity:1"
       id="path1762" />
    <path
       d="m 14.140471,-153.96 q -3.36,0 -6.0599995,-1.56 -2.7,-1.56 -4.32,-4.26 -1.56,-2.76 -1.56,-6.24 0,-2.52 0.96,-4.92 1.02,-2.4 2.82,-4.38 1.8,-1.98 4.1999995,-3.12 2.4,-1.2 5.16,-1.2 3.48,0 6.24,1.68 2.82,1.68 4.44,4.44 1.68,2.7 1.68,5.94 0,3.48 -1.56,6.6 -1.5,3.12 -4.5,5.1 -3,1.92 -7.5,1.92 z m 1.26,-1.8 q 2.04,0 3.66,-0.78 1.62,-0.78 2.52,-2.52 0.72,-1.38 0.96,-3.36 0.24,-1.98 0.24,-3.72 0,-2.88 -1.08,-5.52 -1.02,-2.7 -2.94,-4.38 -1.86,-1.74 -4.44,-1.74 -1.62,0 -2.94,0.54 -1.26,0.48 -2.3399995,1.86 -1.2,1.5 -1.56,3.66 -0.36,2.16 -0.36,4.32 0,2.94 1.08,5.64 1.08,2.64 2.9399995,4.32 1.86,1.68 4.26,1.68 z"
       style="font-family:'EB Garamond';-inkscape-font-specification:'EB Garamond';fill:#66ccee;fill-opacity:1"
       id="path1764" />
    <path
       d="m 32.440407,-154.62 q -0.48,0 -0.84,-0.12 -0.36,-0.12 -0.36,-0.54 0,-0.42 0.36,-0.6 0.42,-0.18 1.02,-0.36 0.84,-0.3 1.68,-0.66 0.9,-0.42 0.9,-1.62 v -12.9 q 0,-1.62 -0.36,-2.82 -0.36,-1.26 -1.92,-1.5 -0.24,-0.06 -0.42,-0.24 -0.12,-0.18 -0.12,-0.54 0,-0.6 0.48,-0.72 1.62,-0.42 2.58,-0.84 0.96,-0.48 1.68,-1.02 0.78,-0.6 1.86,-1.26 0.12,-0.06 0.24,-0.12 0.12,-0.12 0.3,-0.12 0.36,0 0.36,0.42 0,0.42 -0.18,1.74 -0.12,1.26 -0.12,2.1 0,0.6 0.12,0.72 h 0.12 q 1.38,-1.32 3.6,-2.64 2.28,-1.38 5.76,-1.38 2.16,0 3.6,0.96 1.44,0.9 2.4,3.18 h 0.18 q 1.92,-1.74 4.38,-2.94 2.46,-1.2 5.4,-1.2 1.98,0 3.3,1.2 1.32,1.2 1.98,3.12 0.72,1.92 0.72,4.02 v 12.78 q 0,1.2 0.84,1.62 0.84,0.36 1.74,0.66 0.6,0.18 0.96,0.36 0.42,0.18 0.42,0.6 0,0.36 -0.3,0.48 -0.24,0.18 -0.9,0.18 -1.2,0 -1.86,-0.12 -0.66,-0.06 -1.26,-0.12 -0.54,-0.06 -1.62,-0.06 -1.02,0 -1.68,0.06 -0.66,0.06 -1.38,0.12 -0.72,0.12 -1.92,0.12 -0.54,0 -0.9,-0.18 -0.3,-0.12 -0.3,-0.48 0,-0.48 0.36,-0.66 0.42,-0.18 1.02,-0.3 0.96,-0.24 1.74,-0.66 0.84,-0.42 0.84,-1.62 v -12.6 q 0,-1.44 -0.66,-2.7 -0.66,-1.32 -1.74,-2.16 -1.08,-0.84 -2.4,-0.84 -1.5,0 -2.82,0.36 -1.26,0.36 -2.4,1.26 -1.68,1.32 -1.68,4.32 v 12.36 q 0,1.2 0.9,1.62 0.9,0.42 1.8,0.66 0.6,0.12 0.96,0.36 0.42,0.18 0.42,0.6 0,0.36 -0.3,0.48 -0.3,0.18 -0.9,0.18 -1.2,0 -1.92,-0.12 -0.66,-0.06 -1.32,-0.12 -0.6,-0.06 -1.68,-0.06 -1.02,0 -1.68,0.06 -0.66,0.06 -1.38,0.12 -0.72,0.12 -1.92,0.12 -0.48,0 -0.84,-0.18 -0.36,-0.12 -0.36,-0.48 0,-0.48 0.42,-0.6 0.48,-0.18 0.96,-0.36 0.9,-0.3 1.74,-0.66 0.9,-0.42 0.9,-1.62 v -12.6 q 0,-1.44 -0.66,-2.7 -0.66,-1.32 -1.74,-2.16 -1.08,-0.84 -2.4,-0.84 -1.5,0 -2.82,0.36 -1.26,0.36 -2.4,1.26 -1.62,1.2 -1.62,4.32 v 12.36 q 0,1.2 0.84,1.62 0.84,0.36 1.74,0.66 0.48,0.18 0.9,0.36 0.48,0.12 0.48,0.6 0,0.36 -0.36,0.48 -0.3,0.18 -0.84,0.18 -1.2,0 -1.92,-0.12 -0.66,-0.06 -1.26,-0.12 -0.6,-0.06 -1.68,-0.06 -1.02,0 -1.68,0.06 -0.6,0.06 -1.32,0.12 -0.66,0.12 -1.86,0.12 z"
       style="font-family:'EB Garamond';-inkscape-font-specification:'EB Garamond';fill:#66ccee;fill-opacity:1"
       id="path1766" />
    <path
       d="m 92.0204,-153.96 q -1.32,0 -2.64,-0.24 -1.32,-0.24 -2.52,-0.54 -1.32,-0.36 -2.34,-0.66 -0.96,-0.3 -1.26,-0.3 -0.36,0 -0.72,0.24 -0.3,0.24 -0.6,0.54 -0.3,0.3 -0.54,0.3 -0.24,0 -0.54,-0.18 -0.3,-0.24 -0.3,-0.54 0,-0.54 0.18,-1.86 0.24,-1.32 0.24,-2.46 v -29.1 q 0,-1.56 -0.78,-2.7 -0.78,-1.14 -1.98,-1.68 -0.24,-0.12 -0.54,-0.3 -0.24,-0.24 -0.24,-0.6 0,-0.3 0.24,-0.42 0.24,-0.12 0.48,-0.18 0.78,-0.18 2.1,-0.66 1.38,-0.48 2.58,-0.96 1.2,-0.48 1.62,-0.66 0.36,-0.18 0.54,-0.18 0.12,0 0.24,0.12 0.12,0.12 0.12,0.3 0,0.24 -0.12,2.04 -0.06,1.74 -0.06,4.26 v 12.3 q 0,1.14 0.12,1.56 0.12,0.36 0.42,0.42 1.86,-1.56 4.32,-2.52 2.46,-1.02 4.44,-1.02 3.06,0 5.46,1.56 2.46,1.56 3.9,4.26 1.44,2.64 1.44,6 0,4.08 -1.68,7.26 -1.68,3.12 -4.68,4.86 -2.94,1.74 -6.9,1.74 z m 1.38,-1.86 q 2.28,0 3.9,-1.38 1.68,-1.44 2.58,-3.84 0.9,-2.46 0.9,-5.46 0,-2.34 -0.9,-4.8 -0.84,-2.46 -2.7,-4.14 -1.8,-1.68 -4.68,-1.68 -2.4,0 -4.2,0.78 -1.8,0.78 -3.12,1.98 v 11.64 q 0,2.1 1.14,3.66 1.2,1.56 3.06,2.4 1.92,0.84 4.02,0.84 z"
       style="font-family:'EB Garamond';-inkscape-font-specification:'EB Garamond';fill:#66ccee;fill-opacity:1"
       id="path1768" />
    <path
       d="m 110.02037,-154.62 q -0.54,0 -0.9,-0.18 -0.3,-0.12 -0.3,-0.48 0,-0.48 0.42,-0.66 0.48,-0.18 0.96,-0.3 1.26,-0.3 1.92,-0.72 0.66,-0.48 0.66,-1.56 v -13.02 q 0,-1.62 -0.6,-2.88 -0.54,-1.26 -2.1,-1.5 -0.3,-0.06 -0.48,-0.24 -0.12,-0.18 -0.12,-0.54 0,-0.66 0.54,-0.72 2.4,-0.54 3.96,-1.44 1.56,-0.96 2.34,-1.56 0.54,-0.42 0.84,-0.42 0.36,0 0.36,0.3 0,0.48 -0.18,1.92 -0.12,1.38 -0.24,3.12 -0.12,1.68 -0.12,3.06 v 13.92 q 0,1.02 0.66,1.5 0.72,0.48 1.92,0.78 0.48,0.12 0.9,0.3 0.48,0.18 0.48,0.66 0,0.66 -1.2,0.66 -1.14,0 -1.86,-0.12 -0.66,-0.06 -1.32,-0.12 -0.6,-0.06 -1.68,-0.06 -1.02,0 -1.68,0.06 -0.66,0.06 -1.32,0.12 -0.66,0.12 -1.86,0.12 z m 4.8,-31.14 q -1.26,0 -2.16,-0.84 -0.84,-0.9 -0.84,-2.16 0,-1.32 0.84,-2.16 0.9,-0.9 2.16,-0.9 1.32,0 2.16,0.9 0.9,0.84 0.9,2.16 0,1.26 -0.9,2.16 -0.84,0.84 -2.16,0.84 z"
       style="font-family:'EB Garamond';-inkscape-font-specification:'EB Garamond';fill:#66ccee;fill-opacity:1"
       id="path1770" />
    <path
       d="m 124.72029,-154.62 q -0.54,0 -0.9,-0.18 -0.3,-0.12 -0.3,-0.48 0,-0.48 0.36,-0.6 0.36,-0.18 1.02,-0.36 0.9,-0.24 1.74,-0.66 0.84,-0.42 0.84,-1.62 v -12.9 q 0,-1.62 -0.36,-2.76 -0.3,-1.14 -1.86,-1.56 -0.24,-0.12 -0.42,-0.24 -0.18,-0.18 -0.18,-0.54 0,-0.66 0.54,-0.72 2.1,-0.54 3.42,-1.32 1.32,-0.78 2.58,-1.74 0.18,-0.12 0.3,-0.18 0.18,-0.12 0.36,-0.12 0.12,0 0.18,0.12 0.12,0.12 0.12,0.3 0,0.42 -0.18,1.74 -0.12,1.26 -0.12,2.1 0,0.24 0,0.48 0.06,0.18 0.12,0.24 2.1,-1.98 4.44,-3 2.4,-1.02 5.22,-1.02 2.94,0 4.86,2.4 1.92,2.4 1.92,5.94 v 12.78 q 0,1.2 0.84,1.62 0.84,0.36 1.74,0.66 0.48,0.18 0.9,0.42 0.48,0.18 0.48,0.66 0,0.36 -0.42,0.42 -0.42,0.12 -0.78,0.12 -1.2,0 -1.86,-0.12 -0.66,-0.06 -1.26,-0.12 -0.6,-0.06 -1.68,-0.06 -1.02,0 -1.68,0.06 -0.66,0.06 -1.38,0.12 -0.66,0.12 -1.86,0.12 -0.3,0 -0.78,-0.12 -0.42,-0.06 -0.42,-0.42 0,-0.48 0.42,-0.66 0.48,-0.24 0.96,-0.42 0.9,-0.3 1.74,-0.66 0.84,-0.42 0.84,-1.62 v -12.6 q 0,-2.64 -1.5,-4.08 -1.44,-1.5 -3.9,-1.56 -2.16,0 -3.78,0.72 -1.62,0.66 -2.88,1.68 -0.24,0.24 -0.36,0.66 -0.12,0.36 -0.12,0.72 v 14.46 q 0,1.2 0.84,1.62 0.84,0.42 1.74,0.66 1.38,0.36 1.38,0.96 0,0.36 -0.3,0.48 -0.3,0.18 -0.9,0.18 -1.2,0 -1.92,-0.12 -0.66,-0.06 -1.26,-0.12 -0.6,-0.06 -1.68,-0.06 -1.02,0 -1.68,0.06 -0.6,0.06 -1.32,0.12 -0.66,0.12 -1.86,0.12 z"
       style="font-family:'EB Garamond';-inkscape-font-specification:'EB Garamond';fill:#66ccee;fill-opacity:1"
       id="path1772" />
    <path
       d="m 160.78028,-153.96 q -1.08,0 -2.22,-0.84 -1.08,-0.84 -1.86,-2.04 -0.72,-1.2 -0.72,-2.28 0,-1.92 1.02,-3 1.02,-1.08 3.24,-1.98 l 6.12,-2.52 q 1.2,-0.48 1.38,-0.84 0.24,-0.36 0.3,-1.56 l 0.12,-3.84 q 0.06,-1.56 -0.9,-2.7 -0.9,-1.14 -2.64,-1.14 -0.9,0 -1.8,0.3 -0.9,0.3 -1.5,0.78 -0.36,0.24 -0.48,0.72 -0.12,0.48 -0.12,1.02 0,0.24 0,0.54 0.06,0.3 0.06,0.54 0,0.3 -0.78,0.84 -0.72,0.48 -1.68,0.9 -0.9,0.36 -1.5,0.36 -0.3,0 -0.48,-0.12 -0.18,-0.18 -0.18,-0.42 0,-0.96 0.6,-2.04 0.66,-1.14 1.8,-2.1 1.38,-1.26 3,-2.22 1.62,-0.96 3.18,-1.5 1.56,-0.54 2.76,-0.54 2.16,0 3.54,1.56 1.44,1.5 1.38,3.78 l -0.3,14.4 q -0.06,1.26 0.54,2.04 0.66,0.78 1.62,0.78 1.5,0 2.22,-0.66 0.3,-0.3 0.48,-0.3 0.3,0 0.48,0.18 0.18,0.18 0.18,0.48 0,0.66 -0.66,1.32 -0.96,0.96 -2.1,1.5 -1.08,0.6 -2.04,0.6 -2.76,0 -4.38,-3.12 h -0.18 q -1.98,1.62 -3.78,2.34 -1.8,0.78 -3.72,0.78 z m 2.82,-2.88 q 1.2,0 2.04,-0.36 0.84,-0.42 1.5,-1.08 0.3,-0.3 0.48,-0.78 0.24,-0.54 0.3,-1.68 l 0.12,-2.94 q 0.06,-0.66 -0.06,-0.96 -0.12,-0.3 -0.48,-0.3 -0.12,0 -0.42,0.06 -0.3,0.06 -0.78,0.24 -3.18,1.14 -4.44,2.4 -1.2,1.2 -1.2,2.22 0,1.56 0.9,2.4 0.96,0.78 2.04,0.78 z"
       style="font-family:'EB Garamond';-inkscape-font-specification:'EB Garamond';fill:#66ccee;fill-opacity:1"
       id="path1774" />
    <path
       d="m 199.1202,-153.66 q -0.12,0 -0.42,-0.24 -0.24,-0.24 -0.24,-0.36 0,-0.6 0.12,-1.68 0.18,-1.14 0.18,-1.92 v -0.36 q -0.9,1.38 -2.88,2.82 -1.98,1.44 -4.98,1.44 -3.42,0 -5.94,-1.8 -2.46,-1.8 -3.84,-4.62 -1.32,-2.82 -1.32,-5.82 0,-3.48 1.62,-6.54 1.62,-3.06 4.62,-4.98 3.06,-1.92 7.26,-1.92 1.2,0 2.4,0.24 1.26,0.18 1.92,0.42 0.54,0.18 0.78,0.18 0.42,0 0.42,-1.44 v -8.52 q 0,-2.46 -0.78,-3.3 -0.78,-0.84 -2.22,-1.08 -0.54,-0.12 -0.54,-0.78 0,-0.54 0.48,-0.72 2.64,-0.66 4.14,-1.26 1.5,-0.6 2.34,-0.96 0.24,-0.12 0.42,-0.12 0.24,-0.06 0.36,-0.06 0.36,0 0.42,0.36 0,0.36 -0.12,1.26 -0.06,0.84 -0.18,2.52 -0.12,1.68 -0.12,4.38 v 27.12 q 0,2.04 0.3,3 0.3,0.9 0.96,0.9 0.3,0 1.02,-0.06 0.78,-0.06 1.56,-0.12 1.08,-0.06 1.08,0.54 0,0.42 -0.3,0.78 -0.24,0.3 -0.54,0.3 -1.68,0.24 -3.3,0.72 -1.62,0.42 -3.72,1.32 -0.48,0.24 -0.66,0.3 -0.12,0.06 -0.3,0.06 z m -6.06,-3.42 q 1.56,0 3.06,-0.78 1.5,-0.84 2.64,-2.16 l 0.06,-10.8 q 0,-1.62 -0.96,-3.18 -0.9,-1.56 -2.58,-2.52 -1.62,-1.02 -3.84,-1.02 -1.38,0 -3.12,0.84 -1.74,0.84 -3,3 -1.26,2.1 -1.26,6.12 0,3.42 1.02,5.52 1.02,2.04 2.46,3.12 1.5,1.08 3,1.5 1.56,0.36 2.52,0.36 z"
       style="font-family:'EB Garamond';-inkscape-font-specification:'EB Garamond';fill:#66ccee;fill-opacity:1"
       id="path1776" />
    <path
       d="m 215.0801,-153.96 q -1.08,0 -2.22,-0.84 -1.08,-0.84 -1.86,-2.04 -0.72,-1.2 -0.72,-2.28 0,-1.92 1.02,-3 1.02,-1.08 3.24,-1.98 l 6.12,-2.52 q 1.2,-0.48 1.38,-0.84 0.24,-0.36 0.3,-1.56 l 0.12,-3.84 q 0.06,-1.56 -0.9,-2.7 -0.9,-1.14 -2.64,-1.14 -0.9,0 -1.8,0.3 -0.9,0.3 -1.5,0.78 -0.36,0.24 -0.48,0.72 -0.12,0.48 -0.12,1.02 0,0.24 0,0.54 0.06,0.3 0.06,0.54 0,0.3 -0.78,0.84 -0.72,0.48 -1.68,0.9 -0.9,0.36 -1.5,0.36 -0.3,0 -0.48,-0.12 -0.18,-0.18 -0.18,-0.42 0,-0.96 0.6,-2.04 0.66,-1.14 1.8,-2.1 1.38,-1.26 3,-2.22 1.62,-0.96 3.18,-1.5 1.56,-0.54 2.76,-0.54 2.16,0 3.54,1.56 1.44,1.5 1.38,3.78 l -0.3,14.4 q -0.06,1.26 0.54,2.04 0.66,0.78 1.62,0.78 1.5,0 2.22,-0.66 0.3,-0.3 0.48,-0.3 0.3,0 0.48,0.18 0.18,0.18 0.18,0.48 0,0.66 -0.66,1.32 -0.96,0.96 -2.1,1.5 -1.08,0.6 -2.04,0.6 -2.76,0 -4.38,-3.12 h -0.18 q -1.98,1.62 -3.78,2.34 -1.8,0.78 -3.72,0.78 z m 2.82,-2.88 q 1.2,0 2.04,-0.36 0.84,-0.42 1.5,-1.08 0.3,-0.3 0.48,-0.78 0.24,-0.54 0.3,-1.68 l 0.12,-2.94 q 0.06,-0.66 -0.06,-0.96 -0.12,-0.3 -0.48,-0.3 -0.12,0 -0.42,0.06 -0.3,0.06 -0.78,0.24 -3.18,1.14 -4.44,2.4 -1.2,1.2 -1.2,2.22 0,1.56 0.9,2.4 0.96,0.78 2.04,0.78 z"
       style="font-family:'EB Garamond';-inkscape-font-specification:'EB Garamond';fill:#66ccee;fill-opacity:1"
       id="path1778" />
  </g>
  <path
     class="vars"
     d="m -61.10677,-42.9 h 138"
     id="path150"
     style="font-size:60px;font-family:Helvetica, Arial, sans-serif;text-anchor:middle;fill:#4477aa;stroke:#4477aa;stroke-linecap:round;stroke-linejoin:round;fill-opacity:1;stroke-opacity:1" />
  <g
     aria-label="Boyle"
     id="text152"
     style="font-size:60px;font-family:Helvetica, Arial, sans-serif;fill:#4477aa;stroke-width:3;stroke-linecap:round;stroke-linejoin:round;fill-opacity:1"
     transform="translate(28.89323,7.1)">
    <path
       d="m -255.12,-37.099999 q -0.78,0 -1.26,-0.18 -0.48,-0.12 -0.48,-0.48 0,-0.72 1.98,-1.08 2.28,-0.42 3.48,-1.38 1.2,-0.96 1.2,-3.12 v -27 q 0,-2.16 -0.9,-3.18 -0.9,-1.02 -3.12,-1.2 -1.02,-0.12 -1.5,-0.42 -0.48,-0.36 -0.48,-0.78 0,-0.36 0.48,-0.48 0.48,-0.18 1.26,-0.18 1.62,0 2.52,0 0.9,0 1.68,0.06 0.84,0 2.04,0 1.14,0 1.98,-0.06 0.84,-0.12 1.86,-0.18 1.08,-0.06 2.82,-0.06 7.02,0 10.44,2.04 3.48,1.98 3.48,6.9 0,2.04 -0.72,3.6 -0.66,1.5 -1.32,2.16 -0.96,0.96 -1.74,1.5 -0.78,0.48 -2.28,1.08 -0.24,0.06 -0.24,0.3 0,0.18 0.24,0.3 1.38,0.42 2.82,1.08 1.5,0.66 2.76,1.74 1.32,1.02 2.1,2.76 0.84,1.68 0.84,4.32 0,3.3 -1.08,5.22 -1.02,1.92 -2.46,2.94 -1.44,1.02 -2.7,1.68 -1.86,0.96 -4.32,1.5 -2.46,0.54 -5.88,0.54 -0.78,0 -2.34,-0.12 -1.56,-0.12 -3.36,-0.12 -1.56,0 -2.64,0.06 -1.08,0.06 -2.28,0.12 -1.14,0.12 -2.88,0.12 z m 14.34,-2.52 q 2.64,0 4.92,-1.2 2.28,-1.2 3.66,-3.24 1.38,-2.1 1.38,-4.68 0,-2.34 -0.78,-3.84 -0.78,-1.56 -1.8,-2.52 -1.02,-0.96 -1.86,-1.38 -0.78,-0.48 -2.46,-0.96 -1.68,-0.54 -4.38,-0.54 -1.92,0 -2.7,0.78 -0.72,0.78 -0.72,1.38 v 11.94 q 0,2.52 1.2,3.42 1.26,0.84 3.54,0.84 z m -1.98,-20.04 q 1.62,0 3.48,-0.36 1.92,-0.36 3.78,-1.38 0.66,-0.36 1.68,-1.74 1.02,-1.38 1.02,-3.96 0,-1.74 -0.66,-3.54 -0.66,-1.86 -2.52,-3.12 -1.86,-1.26 -5.58,-1.26 -2.46,0 -3.24,0.66 -0.72,0.66 -0.72,2.04 v 10.44 q 0,1.56 1.02,1.92 1.02,0.3 1.74,0.3 z"
       style="font-family:'EB Garamond';-inkscape-font-specification:'EB Garamond';fill:#4477aa;fill-opacity:1"
       id="path1781" />
    <path
       d="m -208.74001,-36.559999 q -3.36,0 -6.06,-1.56 -2.7,-1.56 -4.32,-4.26 -1.56,-2.76 -1.56,-6.24 0,-2.52 0.96,-4.92 1.02,-2.4 2.82,-4.38 1.8,-1.98 4.2,-3.12 2.4,-1.2 5.16,-1.2 3.48,0 6.24,1.68 2.82,1.68 4.44,4.44 1.68,2.7 1.68,5.94 0,3.48 -1.56,6.6 -1.5,3.12 -4.5,5.1 -3,1.92 -7.5,1.92 z m 1.26,-1.8 q 2.04,0 3.66,-0.78 1.62,-0.78 2.52,-2.52 0.72,-1.38 0.96,-3.36 0.24,-1.98 0.24,-3.72 0,-2.88 -1.08,-5.52 -1.02,-2.7 -2.94,-4.38 -1.86,-1.74 -4.44,-1.74 -1.62,0 -2.94,0.54 -1.26,0.48 -2.34,1.86 -1.2,1.5 -1.56,3.66 -0.36,2.16 -0.36,4.32 0,2.94 1.08,5.64 1.08,2.64 2.94,4.32 1.86,1.68 4.26,1.68 z"
       style="font-family:'EB Garamond';-inkscape-font-specification:'EB Garamond';fill:#4477aa;fill-opacity:1"
       id="path1783" />
    <path
       d="m -190.74016,-20.299999 q -1.14,0 -2.1,-0.6 -0.96,-0.54 -0.96,-1.86 0,-1.08 0.48,-1.92 0.54,-0.78 1.5,-0.78 0.66,0 1.26,0.18 0.66,0.18 1.14,0.18 0.36,0 0.6,-0.18 0.3,-0.12 0.54,-0.48 0.66,-1.08 1.5,-2.7 0.9,-1.62 1.8,-3.66 0.96,-2.04 1.8,-4.32 0.18,-0.54 0.18,-1.38 0,-0.48 -0.06,-0.9 -0.06,-0.48 -0.18,-0.84 l -6.96,-17.58 q -0.42,-1.08 -1.14,-1.86 -0.66,-0.84 -1.56,-1.08 -0.48,-0.18 -0.96,-0.42 -0.42,-0.24 -0.42,-0.66 0,-0.36 0.42,-0.42 0.48,-0.12 0.78,-0.12 1.2,0 1.74,0.06 0.6,0.06 1.08,0.18 0.54,0.06 1.56,0.06 1.08,0 1.62,-0.06 0.54,-0.12 1.14,-0.18 0.6,-0.06 1.8,-0.06 0.36,0 0.78,0.18 0.42,0.12 0.42,0.48 0,0.42 -0.66,0.84 -0.6,0.36 -1.08,0.48 -0.6,0.18 -0.9,0.66 -0.3,0.42 -0.3,1.26 0,0.36 0.18,0.9 0.18,0.48 0.3,0.78 l 4.86,12 q 0.12,0.36 0.36,0.36 0.18,0 0.3,-0.36 l 4.14,-10.98 q 0.18,-0.42 0.3,-1.08 0.18,-0.72 0.18,-1.14 0,-1.14 -0.36,-1.56 -0.3,-0.48 -0.84,-0.72 -0.48,-0.24 -1.14,-0.6 -0.6,-0.42 -0.6,-0.84 0,-0.36 0.42,-0.48 0.48,-0.18 0.78,-0.18 0.84,0 1.68,0.18 0.9,0.12 2.58,0.12 1.14,0 1.62,-0.06 0.54,-0.12 0.9,-0.18 0.36,-0.06 1.02,-0.06 0.3,0 0.72,0.12 0.48,0.06 0.48,0.42 0,0.42 -0.48,0.66 -0.42,0.24 -0.9,0.42 -0.9,0.24 -1.92,1.44 -1.02,1.14 -1.62,2.58 l -8.16,19.44 q -0.06,0.18 -0.66,1.56 -0.54,1.38 -1.38,3.42 -0.84,2.04 -1.86,4.38 -0.96,2.34 -1.86,4.5 -0.54,1.2 -1.56,1.8 -1.02,0.66 -2.34,0.66 z"
       style="font-family:'EB Garamond';-inkscape-font-specification:'EB Garamond';fill:#4477aa;fill-opacity:1"
       id="path1785" />
    <path
       d="m -165.96018,-37.219999 q -0.3,0 -0.78,-0.12 -0.42,-0.06 -0.42,-0.42 0,-0.48 0.42,-0.66 0.48,-0.24 0.96,-0.42 0.9,-0.3 1.74,-0.66 0.84,-0.42 0.84,-1.62 v -30.24 q 0,-1.74 -0.66,-2.88 -0.6,-1.2 -2.1,-1.5 -0.48,-0.12 -0.48,-0.78 0,-0.6 0.42,-0.72 1.56,-0.36 2.7,-0.72 1.14,-0.42 2.1,-0.84 1.02,-0.42 1.98,-0.78 0.24,-0.12 0.36,-0.12 0.12,0 0.18,0.18 0.12,0.12 0.12,0.24 0,0.54 -0.24,2.34 -0.18,1.74 -0.18,5.82 v 30 q 0,1.2 0.84,1.62 0.84,0.36 1.74,0.66 0.48,0.18 0.9,0.42 0.48,0.18 0.48,0.66 0,0.36 -0.48,0.42 -0.42,0.12 -0.72,0.12 -1.14,0 -1.86,-0.12 -0.66,-0.06 -1.32,-0.12 -0.6,-0.06 -1.68,-0.06 -1.02,0 -1.68,0.06 -0.66,0.06 -1.32,0.12 -0.66,0.12 -1.86,0.12 z"
       style="font-family:'EB Garamond';-inkscape-font-specification:'EB Garamond';fill:#4477aa;fill-opacity:1"
       id="path1787" />
    <path
       d="m -141.12019,-36.499999 q -3.3,0 -5.76,-1.62 -2.46,-1.62 -3.84,-4.56 -1.38,-3 -1.38,-6.9 0,-3.48 1.56,-6.3 1.62,-2.88 4.26,-4.62 2.64,-1.74 5.76,-1.74 2.4,0 4.26,0.96 1.86,0.96 2.88,2.7 1.08,1.68 1.08,3.9 0,1.86 -1.8,1.86 h -12.66 q -0.84,0 -1.2,0.48 -0.3,0.42 -0.3,1.74 0,2.88 1.26,5.28 1.26,2.34 3.36,3.78 2.1,1.38 4.62,1.38 1.8,0 3.24,-0.66 1.5,-0.72 2.64,-2.04 0.24,-0.3 0.36,-0.36 0.12,-0.12 0.3,-0.12 0.48,0 0.48,0.6 0,1.14 -1.08,2.52 -0.9,1.14 -2.16,1.98 -1.26,0.84 -2.76,1.26 -1.5,0.48 -3.12,0.48 z m -5.52,-18.18 h 5.46 q 1.44,0 2.46,-0.06 1.02,-0.06 1.98,-0.24 0.3,-0.06 0.36,-0.36 0.12,-0.36 0.12,-0.96 0,-1.74 -1.56,-2.94 -1.5,-1.26 -3.6,-1.26 -1.38,0 -2.76,0.84 -1.38,0.78 -2.28,1.98 -0.9,1.2 -0.9,2.4 0,0.6 0.72,0.6 z"
       style="font-family:'EB Garamond';-inkscape-font-specification:'EB Garamond';fill:#4477aa;fill-opacity:1"
       id="path1789" />
  </g>
  <path
     class="vars"
     d="m -16.10677,-97.9 v 155"
     id="path155"
     style="font-size:60px;font-family:Helvetica, Arial, sans-serif;text-anchor:middle;fill:#ee6677;stroke:#ee6677;stroke-linecap:round;stroke-linejoin:round;fill-opacity:1;stroke-opacity:1" />
  <g
     aria-label="Gay-Lussac"
     id="text161"
     style="font-size:60px;font-family:Helvetica, Arial, sans-serif;fill:#ee6677;stroke-width:3;stroke-linecap:round;stroke-linejoin:round;fill-opacity:1"
     transform="translate(28.89323,7.1)">
    <path
       d="m -288.07323,-140.16 q -4.14,0 -7.92,-1.44 -3.72,-1.5 -6.66,-4.14 -2.88,-2.64 -4.56,-6.18 -1.68,-3.6 -1.68,-7.74 0,-4.44 1.74,-8.28 1.74,-3.84 4.8,-6.72 3.06,-2.88 7.02,-4.5 4.02,-1.62 8.52,-1.62 1.02,0 2.76,0.24 1.8,0.18 3.66,0.48 1.92,0.3 3.42,0.66 1.56,0.3 2.16,0.6 0.3,0.12 0.36,0.3 0.12,0.12 0.18,0.42 0.24,1.74 0.42,3.48 0.18,1.68 0.18,2.88 0,0.42 -0.3,0.84 -0.24,0.36 -0.6,0.36 -0.6,0 -0.9,-0.54 -0.3,-0.54 -0.48,-1.08 -0.36,-0.96 -0.78,-1.62 -0.36,-0.72 -1.08,-1.56 -0.36,-0.48 -1.56,-1.2 -1.14,-0.78 -3.12,-1.38 -1.98,-0.6 -4.86,-0.6 -3.48,0 -6.36,1.5 -2.88,1.44 -4.98,4.02 -2.04,2.52 -3.18,5.76 -1.08,3.24 -1.08,6.78 0,4.26 1.32,7.62 1.32,3.36 3.54,5.7 2.22,2.34 5.04,3.54 2.82,1.2 5.82,1.2 3.48,0 5.1,-0.84 1.68,-0.84 2.22,-1.38 0.66,-0.66 1.2,-1.86 0.6,-1.2 0.6,-2.76 0,-0.54 0,-1.14 0.06,-0.6 0.06,-1.2 0.06,-0.6 0.06,-1.14 0,-0.66 -0.06,-1.08 -0.06,-0.48 -0.24,-0.72 -0.48,-0.66 -1.68,-1.08 -1.2,-0.42 -2.4,-0.6 -1.2,-0.18 -1.8,-0.18 -0.24,0 -0.72,-0.3 -0.48,-0.3 -0.48,-0.72 0,-0.48 0.48,-0.72 0.48,-0.3 0.72,-0.3 1.5,0 2.58,0.06 1.08,0.06 2.22,0.12 1.14,0.06 2.76,0.06 1.56,0 2.64,-0.12 1.08,-0.12 2.7,-0.12 0.24,0 0.72,0.18 0.54,0.18 0.54,0.78 0,0.42 -0.54,0.72 -0.48,0.3 -0.72,0.36 -1.32,0.36 -1.86,1.08 -0.48,0.66 -0.66,1.86 -0.18,1.32 -0.24,2.34 -0.06,1.02 -0.06,2.16 v 1.62 q 0,0.3 0.12,0.48 0.12,0.18 0.24,0.48 0.18,0.3 0.48,0.54 0.3,0.24 0.3,0.48 0,0.24 -0.12,0.66 -0.06,0.36 -0.72,0.48 -0.42,0.06 -1.68,0.72 -1.2,0.6 -3.06,1.38 -1.86,0.78 -4.26,1.32 -2.4,0.6 -5.28,0.6 z"
       style="font-family:'EB Garamond';-inkscape-font-specification:'EB Garamond';fill:#ee6677;fill-opacity:1"
       id="path1741" />
    <path
       d="m -260.83334,-140.16 q -1.08,0 -2.22,-0.84 -1.08,-0.84 -1.86,-2.04 -0.72,-1.2 -0.72,-2.28 0,-1.92 1.02,-3 1.02,-1.08 3.24,-1.98 l 6.12,-2.52 q 1.2,-0.48 1.38,-0.84 0.24,-0.36 0.3,-1.56 l 0.12,-3.84 q 0.06,-1.56 -0.9,-2.7 -0.9,-1.14 -2.64,-1.14 -0.9,0 -1.8,0.3 -0.9,0.3 -1.5,0.78 -0.36,0.24 -0.48,0.72 -0.12,0.48 -0.12,1.02 0,0.24 0,0.54 0.06,0.3 0.06,0.54 0,0.3 -0.78,0.84 -0.72,0.48 -1.68,0.9 -0.9,0.36 -1.5,0.36 -0.3,0 -0.48,-0.12 -0.18,-0.18 -0.18,-0.42 0,-0.96 0.6,-2.04 0.66,-1.14 1.8,-2.1 1.38,-1.26 3,-2.22 1.62,-0.96 3.18,-1.5 1.56,-0.54 2.76,-0.54 2.16,0 3.54,1.56 1.44,1.5 1.38,3.78 l -0.3,14.4 q -0.06,1.26 0.54,2.04 0.66,0.78 1.62,0.78 1.5,0 2.22,-0.66 0.3,-0.3 0.48,-0.3 0.3,0 0.48,0.18 0.18,0.18 0.18,0.48 0,0.66 -0.66,1.32 -0.96,0.96 -2.1,1.5 -1.08,0.6 -2.04,0.6 -2.76,0 -4.38,-3.12 h -0.18 q -1.98,1.62 -3.78,2.34 -1.8,0.78 -3.72,0.78 z m 2.82,-2.88 q 1.2,0 2.04,-0.36 0.84,-0.42 1.5,-1.08 0.3,-0.3 0.48,-0.78 0.24,-0.54 0.3,-1.68 l 0.12,-2.94 q 0.06,-0.66 -0.06,-0.96 -0.12,-0.3 -0.48,-0.3 -0.12,0 -0.42,0.06 -0.3,0.06 -0.78,0.24 -3.18,1.14 -4.44,2.4 -1.2,1.2 -1.2,2.22 0,1.56 0.9,2.4 0.96,0.78 2.04,0.78 z"
       style="font-family:'EB Garamond';-inkscape-font-specification:'EB Garamond';fill:#ee6677;fill-opacity:1"
       id="path1743" />
    <path
       d="m -240.67346,-123.9 q -1.14,0 -2.1,-0.6 -0.96,-0.54 -0.96,-1.86 0,-1.08 0.48,-1.92 0.54,-0.78 1.5,-0.78 0.66,0 1.26,0.18 0.66,0.18 1.14,0.18 0.36,0 0.6,-0.18 0.3,-0.12 0.54,-0.48 0.66,-1.08 1.5,-2.7 0.9,-1.62 1.8,-3.66 0.96,-2.04 1.8,-4.32 0.18,-0.54 0.18,-1.38 0,-0.48 -0.06,-0.9 -0.06,-0.48 -0.18,-0.84 l -6.96,-17.58 q -0.42,-1.08 -1.14,-1.86 -0.66,-0.84 -1.56,-1.08 -0.48,-0.18 -0.96,-0.42 -0.42,-0.24 -0.42,-0.66 0,-0.36 0.42,-0.42 0.48,-0.12 0.78,-0.12 1.2,0 1.74,0.06 0.6,0.06 1.08,0.18 0.54,0.06 1.56,0.06 1.08,0 1.62,-0.06 0.54,-0.12 1.14,-0.18 0.6,-0.06 1.8,-0.06 0.36,0 0.78,0.18 0.42,0.12 0.42,0.48 0,0.42 -0.66,0.84 -0.6,0.36 -1.08,0.48 -0.6,0.18 -0.9,0.66 -0.3,0.42 -0.3,1.26 0,0.36 0.18,0.9 0.18,0.48 0.3,0.78 l 4.86,12 q 0.12,0.36 0.36,0.36 0.18,0 0.3,-0.36 l 4.14,-10.98 q 0.18,-0.42 0.3,-1.08 0.18,-0.72 0.18,-1.14 0,-1.14 -0.36,-1.56 -0.3,-0.48 -0.84,-0.72 -0.48,-0.24 -1.14,-0.6 -0.6,-0.42 -0.6,-0.84 0,-0.36 0.42,-0.48 0.48,-0.18 0.78,-0.18 0.84,0 1.68,0.18 0.9,0.12 2.58,0.12 1.14,0 1.62,-0.06 0.54,-0.12 0.9,-0.18 0.36,-0.06 1.02,-0.06 0.3,0 0.72,0.12 0.48,0.06 0.48,0.42 0,0.42 -0.48,0.66 -0.42,0.24 -0.9,0.42 -0.9,0.24 -1.92,1.44 -1.02,1.14 -1.62,2.58 l -8.16,19.44 q -0.06,0.18 -0.66,1.56 -0.54,1.38 -1.38,3.42 -0.84,2.04 -1.86,4.38 -0.96,2.34 -1.86,4.5 -0.54,1.2 -1.56,1.8 -1.02,0.66 -2.34,0.66 z"
       style="font-family:'EB Garamond';-inkscape-font-specification:'EB Garamond';fill:#ee6677;fill-opacity:1"
       id="path1745" />
    <path
       d="m -216.13347,-151.2 q -0.36,0 -0.36,-0.36 0,-1.02 0.24,-2.1 0.3,-1.08 0.72,-1.14 2.88,-0.42 5.76,-0.78 2.88,-0.42 5.76,-0.72 0.18,0 0.3,0.12 0.18,0.06 0.18,0.24 0,1.14 -0.3,2.16 -0.24,0.96 -0.96,1.08 -2.7,0.42 -5.52,0.84 -2.76,0.36 -5.82,0.66 z"
       style="font-family:'EB Garamond';-inkscape-font-specification:'EB Garamond';fill:#ee6677;fill-opacity:1"
       id="path1747" />
    <path
       d="m -198.49358,-140.7 q -0.78,0 -1.26,-0.24 -0.42,-0.18 -0.42,-0.48 0,-0.54 0.54,-0.72 0.6,-0.24 0.78,-0.3 2.34,-0.48 3.6,-1.38 1.26,-0.96 1.26,-2.94 v -27.84 q 0,-1.44 -0.3,-2.1 -0.3,-0.72 -1.08,-1.02 -0.78,-0.36 -2.28,-0.6 -1.98,-0.36 -1.98,-1.2 0,-0.36 0.48,-0.48 0.48,-0.18 1.26,-0.18 1.62,0 2.58,0.06 1.02,0.06 1.92,0.12 0.9,0 2.22,0 1.5,0 2.58,0 1.08,-0.06 2.22,-0.12 1.14,-0.06 2.76,-0.06 0.78,0 1.26,0.18 0.48,0.12 0.48,0.48 0,0.42 -0.48,0.72 -0.48,0.3 -1.5,0.48 -2.22,0.42 -3.78,1.02 -1.56,0.54 -1.56,2.28 v 28.26 q 0,1.86 0.84,2.76 0.84,0.9 3.78,0.9 h 7.44 q 1.62,0 2.82,-0.48 1.26,-0.54 1.86,-1.08 1.2,-1.02 1.74,-1.8 0.6,-0.84 1.38,-2.46 0.12,-0.36 0.48,-1.08 0.42,-0.72 0.84,-0.72 0.36,0 0.54,0.36 0.18,0.36 0.18,0.72 0,0.06 -0.06,0.18 0,0.06 0,0.12 -0.42,1.56 -0.78,2.82 -0.3,1.26 -0.54,2.4 -0.18,1.14 -0.3,2.4 -0.06,0.42 -0.24,0.72 -0.12,0.3 -0.6,0.3 -3,0 -5.76,-0.06 -2.76,-0.06 -5.34,-0.12 -2.52,0 -4.86,-0.06 -2.34,-0.06 -4.62,-0.06 -1.5,0 -3.42,0.06 -1.86,0.06 -3.3,0.12 -1.38,0.12 -1.38,0.12 z"
       style="font-family:'EB Garamond';-inkscape-font-specification:'EB Garamond';fill:#ee6677;fill-opacity:1"
       id="path1749" />
    <path
       d="m -144.7936,-139.86 q -0.42,0 -0.42,-0.48 0,-0.6 0.12,-1.74 0.18,-1.2 0.18,-1.98 0,-0.12 0,-0.18 0,-0.12 0,-0.18 -2.34,2.28 -4.74,3.3 -2.34,0.96 -5.16,0.96 -1.92,0 -3.48,-0.84 -1.56,-0.78 -2.46,-2.34 -0.9,-1.62 -0.9,-3.96 v -12.18 q 0,-1.32 -0.6,-2.1 -0.6,-0.78 -1.98,-1.32 -0.3,-0.12 -0.54,-0.3 -0.24,-0.18 -0.24,-0.66 0,-0.54 0.24,-0.72 0.3,-0.18 0.66,-0.24 2.04,-0.12 3.12,-0.3 1.14,-0.24 2.82,-0.66 0.18,-0.06 0.24,-0.06 0.12,0 0.24,0 0.66,0 0.6,0.84 -0.18,1.38 -0.3,2.34 -0.06,0.9 -0.06,2.28 v 11.7 q 0,1.44 0.72,2.7 0.72,1.2 1.86,1.98 1.2,0.78 2.46,0.78 1.56,0 2.7,-0.18 1.2,-0.18 2.34,-1.02 0.66,-0.48 1.68,-1.56 1.02,-1.08 1.02,-2.94 v -10.98 q 0,-1.26 -0.78,-1.86 -0.72,-0.66 -1.68,-0.9 -0.96,-0.24 -1.56,-0.24 -0.54,0 -0.9,-0.18 -0.36,-0.24 -0.36,-0.84 0,-0.54 0.36,-0.72 0.42,-0.18 0.9,-0.18 1.86,-0.06 3.06,-0.12 1.26,-0.12 2.22,-0.3 1.02,-0.24 2.1,-0.54 0.12,-0.06 0.3,-0.06 0.18,-0.06 0.3,-0.06 0.78,0 0.78,0.66 0,0.06 -0.06,0.24 0,0.12 -0.06,0.3 -0.06,0.18 -0.18,1.02 -0.06,0.84 -0.18,1.74 -0.06,0.9 -0.06,1.38 v 13.86 q 0,1.62 0.3,2.34 0.36,0.66 0.78,0.66 0.48,0 1.38,-0.06 0.96,-0.12 1.38,-0.12 0.3,0 0.6,0.12 0.3,0.12 0.3,0.66 0,0.48 -0.24,0.66 -0.24,0.12 -0.6,0.18 -2.34,0.3 -4.02,0.9 -1.68,0.6 -3,1.14 -0.18,0.06 -0.54,0.18 -0.36,0.18 -0.66,0.18 z"
       style="font-family:'EB Garamond';-inkscape-font-specification:'EB Garamond';fill:#ee6677;fill-opacity:1"
       id="path1751" />
    <path
       d="m -126.4937,-140.16 q -1.86,0 -3.48,-0.6 -1.62,-0.54 -2.76,-1.56 -0.3,-0.66 -0.48,-2.22 -0.12,-1.56 -0.18,-2.58 0,-0.54 0.78,-0.54 0.24,0 0.42,0.12 0.24,0.06 0.3,0.3 0.78,2.94 2.46,4.2 1.74,1.26 3.48,1.26 1.74,0 2.94,-1.14 1.26,-1.2 1.26,-2.94 0,-1.62 -1.08,-2.76 -1.08,-1.2 -3.78,-2.88 -2.04,-1.26 -3.3,-2.4 -1.26,-1.14 -1.86,-2.34 -0.54,-1.2 -0.54,-2.7 0,-1.92 0.9,-3.48 0.9,-1.56 2.7,-2.46 1.8,-0.96 4.5,-0.96 1.8,0 3,0.36 1.2,0.36 1.8,0.78 0.48,0.66 0.78,2.1 0.36,1.38 0.36,2.64 0,0.42 -0.6,0.42 -0.36,0 -0.72,-0.12 -0.3,-0.18 -0.42,-0.42 -0.78,-1.98 -1.98,-3 -1.14,-1.08 -2.88,-1.08 -1.5,0 -2.7,0.9 -1.14,0.9 -1.14,2.64 0,1.38 0.84,2.46 0.9,1.08 3.3,2.46 3.48,1.98 5.16,3.72 1.74,1.68 1.74,4.5 0,3.24 -2.46,5.28 -2.46,2.04 -6.36,2.04 z"
       style="font-family:'EB Garamond';-inkscape-font-specification:'EB Garamond';fill:#ee6677;fill-opacity:1"
       id="path1753" />
    <path
       d="m -107.11369,-140.16 q -1.86,0 -3.48,-0.6 -1.62,-0.54 -2.76,-1.56 -0.3,-0.66 -0.48,-2.22 -0.12,-1.56 -0.18,-2.58 0,-0.54 0.78,-0.54 0.24,0 0.42,0.12 0.24,0.06 0.3,0.3 0.78,2.94 2.46,4.2 1.74,1.26 3.48,1.26 1.74,0 2.94,-1.14 1.26,-1.2 1.26,-2.94 0,-1.62 -1.08,-2.76 -1.08,-1.2 -3.78,-2.88 -2.04,-1.26 -3.3,-2.4 -1.26,-1.14 -1.86,-2.34 -0.54,-1.2 -0.54,-2.7 0,-1.92 0.9,-3.48 0.9,-1.56 2.7,-2.46 1.8,-0.96 4.5,-0.96 1.8,0 3,0.36 1.2,0.36 1.8,0.78 0.479997,0.66 0.779997,2.1 0.36,1.38 0.36,2.64 0,0.42 -0.6,0.42 -0.36,0 -0.719997,-0.12 -0.3,-0.18 -0.42,-0.42 -0.78,-1.98 -1.98,-3 -1.14,-1.08 -2.88,-1.08 -1.5,0 -2.7,0.9 -1.14,0.9 -1.14,2.64 0,1.38 0.84,2.46 0.9,1.08 3.3,2.46 3.48,1.98 5.16,3.72 1.739997,1.68 1.739997,4.5 0,3.24 -2.459997,5.28 -2.46,2.04 -6.36,2.04 z"
       style="font-family:'EB Garamond';-inkscape-font-specification:'EB Garamond';fill:#ee6677;fill-opacity:1"
       id="path1755" />
    <path
       d="m -89.353688,-140.16 q -1.08,0 -2.22,-0.84 -1.08,-0.84 -1.86,-2.04 -0.72,-1.2 -0.72,-2.28 0,-1.92 1.02,-3 1.02,-1.08 3.24,-1.98 l 6.12,-2.52 q 1.2,-0.48 1.38,-0.84 0.24,-0.36 0.3,-1.56 l 0.12,-3.84 q 0.06,-1.56 -0.9,-2.7 -0.9,-1.14 -2.64,-1.14 -0.9,0 -1.8,0.3 -0.9,0.3 -1.5,0.78 -0.36,0.24 -0.48,0.72 -0.12,0.48 -0.12,1.02 0,0.24 0,0.54 0.06,0.3 0.06,0.54 0,0.3 -0.78,0.84 -0.72,0.48 -1.68,0.9 -0.9,0.36 -1.5,0.36 -0.3,0 -0.48,-0.12 -0.18,-0.18 -0.18,-0.42 0,-0.96 0.6,-2.04 0.66,-1.14 1.8,-2.1 1.38,-1.26 3,-2.22 1.62,-0.96 3.18,-1.5 1.56,-0.54 2.76,-0.54 2.16,0 3.54,1.56 1.44,1.5 1.38,3.78 l -0.3,14.4 q -0.06,1.26 0.54,2.04 0.66,0.78 1.62,0.78 1.5,0 2.22,-0.66 0.3,-0.3 0.48,-0.3 0.3,0 0.48,0.18 0.18,0.18 0.18,0.48 0,0.66 -0.66,1.32 -0.96,0.96 -2.1,1.5 -1.08,0.6 -2.04,0.6 -2.76,0 -4.38,-3.12 h -0.18 q -1.98,1.62 -3.78,2.34 -1.8,0.78 -3.72,0.78 z m 2.82,-2.88 q 1.2,0 2.04,-0.36 0.84,-0.42 1.5,-1.08 0.3,-0.3 0.48,-0.78 0.24,-0.54 0.3,-1.68 l 0.12,-2.94 q 0.06,-0.66 -0.06,-0.96 -0.12,-0.3 -0.48,-0.3 -0.12,0 -0.42,0.06 -0.3,0.06 -0.78,0.24 -3.18,1.14 -4.44,2.4 -1.2,1.2 -1.2,2.22 0,1.56 0.9,2.4 0.96,0.78 2.04,0.78 z"
       style="font-family:'EB Garamond';-inkscape-font-specification:'EB Garamond';fill:#ee6677;fill-opacity:1"
       id="path1757" />
    <path
       d="m -59.653807,-140.1 q -3,0 -5.46,-1.5 -2.4,-1.56 -3.84,-4.2 -1.38,-2.7 -1.38,-6 0,-3.9 1.68,-7.08 1.74,-3.18 4.62,-5.04 2.88,-1.92 6.36,-1.92 3.9,0 6.84,2.1 0.72,0.54 0.72,1.14 0,0.48 -0.42,1.08 -0.42,0.6 -1.02,1.02 -0.6,0.36 -1.14,0.36 -0.3,0 -0.6,-0.18 -0.3,-0.24 -0.66,-0.48 -1.32,-1.02 -2.94,-1.92 -1.62,-0.9 -2.7,-0.9 -2.94,0 -4.8,2.76 -1.8,2.7 -1.8,7.14 0,2.82 1.2,5.1 1.26,2.28 3.3,3.6 2.1,1.32 4.62,1.32 1.74,0 3,-0.54 1.26,-0.6 2.7,-2.04 0.12,-0.12 0.3,-0.18 0.18,-0.12 0.3,-0.12 0.66,0 0.66,0.84 0,0.36 -0.24,0.84 -0.18,0.42 -0.66,1.02 -0.96,1.2 -2.28,2.1 -1.32,0.84 -2.94,1.26 -1.56,0.42 -3.42,0.42 z"
       style="font-family:'EB Garamond';-inkscape-font-specification:'EB Garamond';fill:#ee6677;fill-opacity:1"
       id="path1759" />
  </g>
  <path
     class="vars"
     d="m 78.89323,-62.9 -122,147"
     id="path164"
     style="font-size:60px;font-family:Helvetica, Arial, sans-serif;text-anchor:middle;fill:#228833;stroke:#228833;stroke-linecap:round;stroke-linejoin:round;fill-opacity:1;stroke-opacity:1" />
  <g
     aria-label="Charles"
     id="text166"
     style="font-size:60px;font-family:Helvetica, Arial, sans-serif;fill:#228833;stroke-width:3;stroke-linecap:round;stroke-linejoin:round;fill-opacity:1"
     transform="translate(28.89323,7.1)">
    <path
       d="m -249.58,131.1 q -4.2,0 -8.1,-1.44 -3.9,-1.44 -6.96,-4.08 -3.06,-2.7 -4.86,-6.42 -1.74,-3.78 -1.74,-8.34 0,-4.38 1.86,-8.1 1.86,-3.72 5.1,-6.48 3.24,-2.76 7.38,-4.26 4.2,-1.56 8.82,-1.56 2.34,0 3.96,0.18 1.62,0.18 3.12,0.54 1.56,0.3 3.6,0.84 0.9,0.24 1.26,0.72 0.42,0.48 0.48,1.32 0.12,1.38 0.3,3 0.18,1.56 0.24,3.9 0.06,0.42 -0.42,0.72 -0.42,0.24 -0.96,0.12 -0.48,-0.12 -0.66,-0.78 -0.6,-2.28 -1.38,-3.9 -0.78,-1.68 -2.34,-2.76 -1.5,-1.02 -3.66,-1.5 -2.1,-0.54 -4.56,-0.54 -3.48,0 -6.48,1.44 -2.94,1.38 -5.1,3.84 -2.1,2.4 -3.3,5.46 -1.2,3.06 -1.2,6.36 0,3.66 1.14,7.2 1.2,3.54 3.36,6.42 2.22,2.82 5.22,4.56 3.06,1.68 6.78,1.68 4.32,0 7.14,-1.98 2.82,-1.98 4.8,-5.52 0.42,-0.78 1.2,-0.78 0.84,0 0.84,0.96 0,0.48 -0.24,1.56 -0.24,1.02 -0.66,2.22 -0.36,1.14 -0.72,2.04 -0.42,0.84 -0.72,1.08 -0.24,0.24 -1.2,0.54 -2.22,0.9 -5.34,1.32 -3.06,0.42 -6,0.42 z"
       style="font-family:'EB Garamond';-inkscape-font-specification:'EB Garamond';fill:#228833;fill-opacity:1"
       id="path1792" />
    <path
       d="m -229.06005,130.38 q -1.2,0 -1.2,-0.66 0,-0.54 1.38,-0.96 0.9,-0.3 1.68,-0.78 0.84,-0.48 0.9,-1.68 V 96.24 q 0,-1.62 -0.54,-2.82 -0.54,-1.26 -2.1,-1.5 -0.54,-0.12 -0.54,-0.84 0,-0.54 0.48,-0.72 0.84,-0.3 1.98,-0.66 1.2,-0.36 2.46,-0.78 1.26,-0.48 2.22,-0.9 0.24,-0.12 0.36,-0.12 0.18,0 0.3,0.12 0.12,0.12 0.12,0.3 0,0.36 -0.18,1.02 -0.12,0.66 -0.24,2.28 -0.12,1.62 -0.12,4.86 v 10.44 q 0,0.96 0.06,1.38 0.12,0.42 0.36,0.84 0.96,-0.72 2.34,-1.56 1.44,-0.9 3.18,-1.56 1.74,-0.66 3.6,-0.66 2.94,0 4.86,2.34 1.98,2.28 1.98,5.82 v 12.6 q 0,1.2 0.78,1.8 0.78,0.54 1.68,0.84 0.66,0.18 1.02,0.42 0.36,0.18 0.36,0.54 0,0.66 -1.2,0.66 -1.2,0 -1.86,-0.12 -0.6,-0.06 -1.2,-0.12 -0.54,-0.06 -1.62,-0.06 -1.02,0 -1.62,0.06 -0.6,0.06 -1.26,0.12 -0.6,0.12 -1.8,0.12 -1.2,0 -1.2,-0.66 0,-0.42 0.36,-0.54 0.36,-0.18 1.02,-0.42 0.9,-0.3 1.62,-0.84 0.72,-0.6 0.72,-1.8 v -12.24 q 0,-1.5 -0.9,-2.7 -0.84,-1.26 -2.1,-1.98 -1.26,-0.72 -2.58,-0.72 -1.14,0 -2.64,0.36 -1.5,0.3 -2.34,0.96 -0.96,0.78 -1.32,1.62 -0.3,0.84 -0.3,2.7 v 12.18 q 0.06,1.2 0.72,1.68 0.72,0.48 1.62,0.78 0.66,0.18 0.96,0.42 0.36,0.18 0.36,0.54 0,0.66 -1.2,0.66 -1.2,0 -1.8,-0.12 -0.6,-0.06 -1.14,-0.12 -0.54,-0.06 -1.62,-0.06 -1.02,0 -1.68,0.06 -0.6,0.06 -1.32,0.12 -0.66,0.12 -1.86,0.12 z"
       style="font-family:'EB Garamond';-inkscape-font-specification:'EB Garamond';fill:#228833;fill-opacity:1"
       id="path1794" />
    <path
       d="m -193.48009,131.04 q -1.08,0 -2.22,-0.84 -1.08,-0.84 -1.86,-2.04 -0.72,-1.2 -0.72,-2.28 0,-1.92 1.02,-3 1.02,-1.08 3.24,-1.98 l 6.12,-2.52 q 1.2,-0.48 1.38,-0.84 0.24,-0.36 0.3,-1.56 l 0.12,-3.84 q 0.06,-1.56 -0.9,-2.7 -0.9,-1.14 -2.64,-1.14 -0.9,0 -1.8,0.3 -0.9,0.3 -1.5,0.78 -0.36,0.24 -0.48,0.72 -0.12,0.48 -0.12,1.02 0,0.24 0,0.54 0.06,0.3 0.06,0.54 0,0.3 -0.78,0.84 -0.72,0.48 -1.68,0.9 -0.9,0.36 -1.5,0.36 -0.3,0 -0.48,-0.12 -0.18,-0.18 -0.18,-0.42 0,-0.96 0.6,-2.04 0.66,-1.14 1.8,-2.1 1.38,-1.26 3,-2.22 1.62,-0.96 3.18,-1.5 1.56,-0.54 2.76,-0.54 2.16,0 3.54,1.56 1.44,1.5 1.38,3.78 l -0.3,14.4 q -0.06,1.26 0.54,2.04 0.66,0.78 1.62,0.78 1.5,0 2.22,-0.66 0.3,-0.3 0.48,-0.3 0.3,0 0.48,0.18 0.18,0.18 0.18,0.48 0,0.66 -0.66,1.32 -0.96,0.96 -2.1,1.5 -1.08,0.6 -2.04,0.6 -2.76,0 -4.38,-3.12 h -0.18 q -1.98,1.62 -3.78,2.34 -1.8,0.78 -3.72,0.78 z m 2.82,-2.88 q 1.2,0 2.04,-0.36 0.84,-0.42 1.5,-1.08 0.3,-0.3 0.48,-0.78 0.24,-0.54 0.3,-1.68 l 0.12,-2.94 q 0.06,-0.66 -0.06,-0.96 -0.12,-0.3 -0.48,-0.3 -0.12,0 -0.42,0.06 -0.3,0.06 -0.78,0.24 -3.18,1.14 -4.44,2.4 -1.2,1.2 -1.2,2.22 0,1.56 0.9,2.4 0.96,0.78 2.04,0.78 z"
       style="font-family:'EB Garamond';-inkscape-font-specification:'EB Garamond';fill:#228833;fill-opacity:1"
       id="path1796" />
    <path
       d="m -173.6202,130.38 q -0.6,0 -0.9,-0.18 -0.3,-0.12 -0.3,-0.48 0,-0.48 0.36,-0.6 0.36,-0.18 1.02,-0.36 1.14,-0.3 1.68,-0.84 0.6,-0.6 0.6,-1.44 v -12.9 q 0,-1.62 -0.48,-2.82 -0.48,-1.2 -1.98,-1.5 -0.24,-0.06 -0.42,-0.3 -0.18,-0.24 -0.18,-0.48 0,-0.6 0.54,-0.72 1.56,-0.48 3.24,-1.38 1.74,-0.96 2.7,-1.56 0.36,-0.24 0.54,-0.3 0.24,-0.12 0.36,-0.12 0.3,0 0.3,0.42 0,0.18 -0.06,0.9 0,0.72 -0.06,1.68 0,0.96 -0.06,1.92 0,0.12 0.12,0.12 0.96,-1.2 2.1,-2.1 1.2,-0.9 2.4,-1.44 1.26,-0.54 2.4,-0.54 1.26,0 2.04,0.54 0.84,0.54 0.84,1.38 0,0.6 -0.36,1.32 -0.3,0.72 -0.84,1.26 -0.54,0.54 -1.14,0.54 -0.36,0 -0.78,-0.12 -0.42,-0.18 -0.9,-0.42 -0.48,-0.18 -0.96,-0.36 -0.48,-0.18 -0.96,-0.18 -1.44,0 -2.82,1.02 -1.32,1.02 -1.32,4.02 v 12.12 q 0,0.78 0.84,1.32 0.84,0.48 2.34,0.96 0.66,0.18 1.02,0.36 0.36,0.18 0.36,0.6 0,0.66 -1.2,0.66 -1.8,0 -2.76,-0.18 -0.9,-0.12 -2.46,-0.12 -1.02,0 -1.68,0.06 -0.6,0.06 -1.32,0.12 -0.66,0.12 -1.86,0.12 z"
       style="font-family:'EB Garamond';-inkscape-font-specification:'EB Garamond';fill:#228833;fill-opacity:1"
       id="path1798" />
    <path
       d="m -154.18022,130.38 q -0.3,0 -0.78,-0.12 -0.42,-0.06 -0.42,-0.42 0,-0.48 0.42,-0.66 0.48,-0.24 0.96,-0.42 0.9,-0.3 1.74,-0.66 0.84,-0.42 0.84,-1.62 V 96.24 q 0,-1.74 -0.66,-2.88 -0.6,-1.2 -2.1,-1.5 -0.48,-0.12 -0.48,-0.78 0,-0.6 0.42,-0.72 1.56,-0.36 2.7,-0.72 1.14,-0.42 2.1,-0.84 1.02,-0.42 1.98,-0.78 0.24,-0.12 0.36,-0.12 0.12,0 0.18,0.18 0.12,0.12 0.12,0.24 0,0.54 -0.24,2.34 -0.18,1.74 -0.18,5.82 v 30 q 0,1.2 0.84,1.62 0.84,0.36 1.74,0.66 0.48,0.18 0.9,0.42 0.48,0.18 0.48,0.66 0,0.36 -0.48,0.42 -0.42,0.12 -0.72,0.12 -1.14,0 -1.86,-0.12 -0.66,-0.06 -1.32,-0.12 -0.6,-0.06 -1.68,-0.06 -1.02,0 -1.68,0.06 -0.66,0.06 -1.32,0.12 -0.66,0.12 -1.86,0.12 z"
       style="font-family:'EB Garamond';-inkscape-font-specification:'EB Garamond';fill:#228833;fill-opacity:1"
       id="path1800" />
    <path
       d="m -129.34024,131.1 q -3.3,0 -5.76,-1.62 -2.46,-1.62 -3.84,-4.56 -1.38,-3 -1.38,-6.9 0,-3.48 1.56,-6.3 1.62,-2.88 4.26,-4.62 2.64,-1.74 5.76,-1.74 2.4,0 4.26,0.96 1.86,0.96 2.88,2.7 1.08,1.68 1.08,3.9 0,1.86 -1.8,1.86 h -12.66 q -0.84,0 -1.2,0.48 -0.3,0.42 -0.3,1.74 0,2.88 1.26,5.28 1.26,2.34 3.36,3.78 2.1,1.38 4.62,1.38 1.8,0 3.24,-0.66 1.5,-0.72 2.64,-2.04 0.24,-0.3 0.36,-0.36 0.12,-0.12 0.3,-0.12 0.48,0 0.48,0.6 0,1.14 -1.08,2.52 -0.9,1.14 -2.16,1.98 -1.26,0.84 -2.76,1.26 -1.5,0.48 -3.12,0.48 z m -5.52,-18.18 h 5.46 q 1.44,0 2.46,-0.06 1.02,-0.06 1.98,-0.24 0.3,-0.06 0.36,-0.36 0.12,-0.36 0.12,-0.96 0,-1.74 -1.56,-2.94 -1.5,-1.26 -3.6,-1.26 -1.38,0 -2.76,0.84 -1.38,0.78 -2.28,1.98 -0.9,1.2 -0.9,2.4 0,0.6 0.72,0.6 z"
       style="font-family:'EB Garamond';-inkscape-font-specification:'EB Garamond';fill:#228833;fill-opacity:1"
       id="path1802" />
    <path
       d="m -110.08028,131.04 q -1.86,0 -3.48,-0.6 -1.62,-0.54 -2.76,-1.56 -0.3,-0.66 -0.48,-2.22 -0.12,-1.56 -0.18,-2.58 0,-0.54 0.78,-0.54 0.24,0 0.42,0.12 0.24,0.06 0.3,0.3 0.78,2.94 2.46,4.2 1.74,1.26 3.48,1.26 1.74,0 2.94,-1.14 1.26,-1.2 1.26,-2.94 0,-1.62 -1.08,-2.76 -1.08,-1.2 -3.78,-2.88 -2.04,-1.26 -3.3,-2.4 -1.26,-1.14 -1.86,-2.34 -0.54,-1.2 -0.54,-2.7 0,-1.92 0.9,-3.48 0.9,-1.56 2.7,-2.46 1.8,-0.96 4.5,-0.96 1.8,0 3,0.36 1.2,0.36 1.8,0.78 0.48,0.66 0.78,2.1 0.36,1.38 0.36,2.64 0,0.42 -0.6,0.42 -0.36,0 -0.72,-0.12 -0.3,-0.18 -0.42,-0.42 -0.78,-1.98 -1.98,-3 -1.14,-1.08 -2.88,-1.08 -1.5,0 -2.7,0.9 -1.14,0.9 -1.14,2.64 0,1.38 0.84,2.46 0.9,1.08 3.3,2.46 3.48,1.98 5.16,3.72 1.74,1.68 1.74,4.5 0,3.24 -2.46,5.28 -2.46,2.04 -6.36,2.04 z"
       style="font-family:'EB Garamond';-inkscape-font-specification:'EB Garamond';fill:#228833;fill-opacity:1"
       id="path1804" />
  </g>
  <path
     class="vars"
     d="m 73.89323,-62.9 v 148"
     id="path169"
     style="font-size:60px;font-family:Helvetica, Arial, sans-serif;text-anchor:middle;fill:#ccbb44;stroke:#ccbb44;stroke-linecap:round;stroke-linejoin:round;fill-opacity:1;stroke-opacity:1" />
  <g
     aria-label="Avogadro"
     id="text171"
     style="font-size:60px;font-family:Helvetica, Arial, sans-serif;text-anchor:end;fill:#ccbb44;stroke-width:3;stroke-linecap:round;stroke-linejoin:round;fill-opacity:1"
     transform="translate(28.89323,7.1)">
    <path
       d="m -2.7794141,149.30508 q -0.78,0 -1.26,-0.24 -0.48,-0.18 -0.48,-0.54 0,-0.42 0.48,-0.72 0.54,-0.36 1.5,-0.66 1.56000004,-0.48 2.88000004,-1.44 1.31999996,-0.96 2.27999996,-3.18 1.68,-3.84 3.06,-7.2 1.44,-3.36 2.7,-6.6 1.26,-3.24 2.5800001,-6.72 1.38,-3.54 2.88,-7.68 0.3,-0.84 0.54,-1.68 0.24,-0.84 0.3,-1.8 0.54,-0.18 1.08,-0.36 0.54,-0.18 1.08,-0.54 0.54,-0.36 0.72,-1.08 0.24,-0.72 0.42,-0.96 0.06,-0.06 0.12,-0.06 0.12,0 0.18,0.12 0.12,0.24 0.18,0.6 0.12,0.36 0.24,0.72 1.44,4.56 3,9.3 1.56,4.74 3,9.18 1.5,4.38 2.7,7.92 1.26,3.48 1.98,5.64 0.84,2.4 1.8,3.6 0.96,1.2 1.98,1.68 1.08,0.48 2.28,0.72 1.02,0.18 1.5,0.6 0.48,0.36 0.48,0.78 0,0.36 -0.48,0.48 -0.48,0.12 -1.26,0.12 -0.84,0 -2.28,-0.12 -1.44,-0.06 -3.06,-0.18 -1.62,-0.06 -3,-0.06 -1.14,0 -2.34,0 -1.2,0 -2.22,0.06 -1.02,0 -1.74,0 -0.78,0 -1.26,-0.18 -0.48,-0.18 -0.48,-0.54 0,-0.42 0.6,-0.72 0.6,-0.3 1.38,-0.42 1.98,-0.3 2.82,-1.02 0.84,-0.72 0.84,-1.68 0,-0.9 -0.42,-2.58 -0.36,-1.74 -0.9,-3.66 -0.54,-1.98 -1.02,-3.48 -0.12,-0.48 -0.48,-0.54 -0.3,-0.12 -1.14,-0.12 H 9.6405859 q -0.24,0 -0.54,0.24 -0.24,0.18 -0.48,0.84 -0.18,0.6 -0.6,1.92 -0.42,1.26 -0.84,2.7 -0.42,1.44 -0.72,2.58 -0.3,1.14 -0.3,1.44 0,1.32 1.02,2.22 1.02,0.84 2.46,1.2 1.9800001,0.54 1.9800001,1.2 0,0.36 -0.48,0.54 -0.48,0.12 -1.2600001,0.12 -0.78,0 -2.28,-0.06 -1.5,-0.06 -3.18,-0.06 -1.98,0 -3.83999996,0.18 -1.86000004,0.18 -3.36000004,0.18 z m 14.0400001,-17.22 h 9.3 q 0.84,0 0.84,-0.3 0,-0.12 -0.06,-0.24 0,-0.18 -0.06,-0.36 l -4.68,-14.64 q -0.36,-1.08 -0.54,-1.08 -0.12,0 -0.48,1.02 l -5.46,14.7 q -0.12,0.36 -0.12,0.48 0,0.3 0.3,0.36 0.36,0.06 0.96,0.06 z"
       style="font-family:'EB Garamond';-inkscape-font-specification:'EB Garamond';fill:#ccbb44;fill-opacity:1"
       id="path1807" />
    <path
       d="m 45.760456,150.26508 q -0.24,0 -0.6,-0.96 -0.36,-0.9 -0.48,-1.32 -0.42,-1.02 -0.78,-2.1 -0.36,-1.14 -0.72,-2.1 -1.32,-3.72 -2.88,-7.26 -1.5,-3.6 -2.94,-7.26 -0.42,-1.08 -1.32,-1.92 -0.84,-0.9 -1.74,-1.14 -0.48,-0.18 -0.78,-0.36 -0.3,-0.18 -0.3,-0.6 0,-0.36 0.42,-0.42 0.48,-0.12 0.78,-0.12 1.2,0 1.74,0.06 0.54,0.06 1.08,0.18 0.54,0.06 1.56,0.06 1.08,0 1.62,-0.06 0.54,-0.12 1.14,-0.18 0.6,-0.06 1.74,-0.06 0.3,0 0.72,0.12 0.48,0.06 0.48,0.42 0,0.42 -0.42,0.66 -0.42,0.24 -0.96,0.42 -0.6,0.24 -0.9,0.96 -0.3,0.66 -0.3,1.5 0,0.42 0.06,0.84 0.06,0.42 0.18,0.78 l 4.74,12.6 q 0.06,0.06 0.06,0.06 0.06,0 0.12,-0.06 l 4.56,-11.7 q 0.24,-0.6 0.36,-1.26 0.12,-0.72 0.12,-1.2 0,-1.2 -0.36,-1.68 -0.36,-0.54 -1.2,-0.84 -0.78,-0.3 -1.08,-0.48 -0.3,-0.18 -0.3,-0.6 0,-0.36 0.36,-0.42 0.42,-0.12 0.84,-0.12 0.66,0 1.74,0.18 1.08,0.12 2.64,0.12 1.56,0 2.1,-0.12 0.6,-0.18 1.44,-0.18 0.48,0 0.84,0.12 0.36,0.06 0.36,0.42 0,0.66 -1.38,1.08 -0.9,0.24 -1.98,1.38 -1.08,1.14 -1.74,2.64 l -4.68,11.28 q -0.12,0.24 -0.48,1.2 -0.36,0.9 -0.78,2.04 -0.42,1.08 -0.72,1.92 -0.3,0.78 -0.3,0.78 0,0 -0.24,0.6 -0.24,0.54 -0.54,1.14 -0.3,0.66 -0.54,0.96 z"
       style="font-family:'EB Garamond';-inkscape-font-specification:'EB Garamond';fill:#ccbb44;fill-opacity:1"
       id="path1809" />
    <path
       d="m 71.740348,149.84508 q -3.36,0 -6.06,-1.56 -2.7,-1.56 -4.32,-4.26 -1.56,-2.76 -1.56,-6.24 0,-2.52 0.96,-4.92 1.02,-2.4 2.82,-4.38 1.8,-1.98 4.2,-3.12 2.4,-1.2 5.16,-1.2 3.48,0 6.24,1.68 2.82,1.68 4.44,4.44 1.68,2.7 1.68,5.94 0,3.48 -1.56,6.6 -1.5,3.12 -4.5,5.1 -3,1.92 -7.5,1.92 z m 1.26,-1.8 q 2.04,0 3.66,-0.78 1.62,-0.78 2.52,-2.52 0.72,-1.38 0.96,-3.36 0.24,-1.98 0.24,-3.72 0,-2.88 -1.08,-5.52 -1.02,-2.7 -2.94,-4.38 -1.86,-1.74 -4.44,-1.74 -1.62,0 -2.94,0.54 -1.26,0.48 -2.34,1.86 -1.2,1.5 -1.56,3.66 -0.36,2.16 -0.36,4.32 0,2.94 1.08,5.64 1.08,2.64 2.94,4.32 1.86,1.68 4.26,1.68 z"
       style="font-family:'EB Garamond';-inkscape-font-specification:'EB Garamond';fill:#ccbb44;fill-opacity:1"
       id="path1811" />
    <path
       d="m 99.100284,166.40508 q -5.1,0 -8.1,-1.98 -2.94,-1.92 -2.94,-5.22 0,-1.56 0.48,-2.64 0.48,-1.08 1.5,-1.86 0.84,-0.72 2.22,-1.86 1.44,-1.08 2.94,-2.28 l 2.52,0.12 q -2.88,1.86 -4.02,3.54 -1.14,1.68 -1.14,4.08 0,2.4 2.1,4.02 2.16,1.68 5.28,1.68 3.539996,0 5.699996,-1.62 1.5,-1.14 2.34,-3 0.84,-1.8 0.84,-3.84 0,-1.32 -0.96,-2.22 -0.9,-0.84 -2.88,-1.38 -1.98,-0.54 -5.159996,-0.72 -5.64,-0.42 -7.86,-1.5 -2.16,-1.08 -2.16,-3.36 0,-0.6 0.3,-1.08 0.36,-0.54 1.08,-1.14 1.38,-1.08 2.04,-1.56 0.66,-0.54 0.96,-0.9 0.36,-0.36 0.66,-0.9 l 2.04,1.02 q -1.32,0.48 -2.22,1.32 -0.9,0.78 -0.9,1.44 0,0.84 0.9,1.5 0.9,0.6 2.64,0.96 1.74,0.36 4.259996,0.54 5.52,0.3 8.22,1.8 2.7,1.5 2.7,4.26 0,2.34 -1.2,4.56 -1.14,2.28 -3.06,4.14 -1.92,1.86 -4.32,2.94 -2.34,1.14 -4.799996,1.14 z m 0.72,-25.86 q 2.279996,0 3.779996,-2.28 1.5,-2.34 1.5,-5.76 0,-1.74 -0.84,-3.24 -0.78,-1.56 -2.1,-2.46 -1.26,-0.96 -2.759996,-0.96 -1.38,0 -2.64,1.02 -1.2,0.96 -1.98,2.52 -0.72,1.56 -0.72,3.42 0,2.1 0.78,3.9 0.78,1.74 2.1,2.82 1.32,1.02 2.88,1.02 z m -0.36,2.1 q -2.46,0 -4.68,-1.26 -2.22,-1.26 -3.66,-3.3 -1.38,-2.1 -1.38,-4.56 0,-2.82 1.44,-4.92 1.5,-2.16 3.9,-3.36 2.4,-1.2 5.099996,-1.2 1.74,0 3,0.48 1.32,0.42 2.58,0.78 1.44,0.42 2.28,0.54 0.84,0.06 1.74,0.06 0.72,0 1.8,-0.06 1.08,-0.12 1.5,-0.12 0.78,0 0.78,0.9 0,0.54 -0.6,1.14 -0.3,0.3 -0.48,0.3 h -1.62 q -1.62,0 -1.8,0.48 -0.06,0.24 -0.18,0.72 -0.06,0.42 -0.12,0.96 -0.06,0.54 -0.06,1.08 0,3.06 -1.32,5.64 -1.32,2.58 -3.48,4.14 -2.16,1.56 -4.739996,1.56 z"
       style="font-family:'EB Garamond';-inkscape-font-specification:'EB Garamond';fill:#ccbb44;fill-opacity:1"
       id="path1813" />
    <path
       d="m 120.52025,149.84508 q -1.08,0 -2.22,-0.84 -1.08,-0.84 -1.86,-2.04 -0.72,-1.2 -0.72,-2.28 0,-1.92 1.02,-3 1.02,-1.08 3.24,-1.98 l 6.12,-2.52 q 1.2,-0.48 1.38,-0.84 0.24,-0.36 0.3,-1.56 l 0.12,-3.84 q 0.06,-1.56 -0.9,-2.7 -0.9,-1.14 -2.64,-1.14 -0.9,0 -1.8,0.3 -0.9,0.3 -1.5,0.78 -0.36,0.24 -0.48,0.72 -0.12,0.48 -0.12,1.02 0,0.24 0,0.54 0.06,0.3 0.06,0.54 0,0.3 -0.78,0.84 -0.72,0.48 -1.68,0.9 -0.9,0.36 -1.5,0.36 -0.3,0 -0.48,-0.12 -0.18,-0.18 -0.18,-0.42 0,-0.96 0.6,-2.04 0.66,-1.14 1.8,-2.1 1.38,-1.26 3,-2.22 1.62,-0.96 3.18,-1.5 1.56,-0.54 2.76,-0.54 2.16,0 3.54,1.56 1.44,1.5 1.38,3.78 l -0.3,14.4 q -0.06,1.26 0.54,2.04 0.66,0.78 1.62,0.78 1.5,0 2.22,-0.66 0.3,-0.3 0.48,-0.3 0.3,0 0.48,0.18 0.18,0.18 0.18,0.48 0,0.66 -0.66,1.32 -0.96,0.96 -2.1,1.5 -1.08,0.6 -2.04,0.6 -2.76,0 -4.38,-3.12 h -0.18 q -1.98,1.62 -3.78,2.34 -1.8,0.78 -3.72,0.78 z m 2.82,-2.88 q 1.2,0 2.04,-0.36 0.84,-0.42 1.5,-1.08 0.3,-0.3 0.48,-0.78 0.24,-0.54 0.3,-1.68 l 0.12,-2.94 q 0.06,-0.66 -0.06,-0.96 -0.12,-0.3 -0.48,-0.3 -0.12,0 -0.42,0.06 -0.3,0.06 -0.78,0.24 -3.18,1.14 -4.44,2.4 -1.2,1.2 -1.2,2.22 0,1.56 0.9,2.4 0.96,0.78 2.04,0.78 z"
       style="font-family:'EB Garamond';-inkscape-font-specification:'EB Garamond';fill:#ccbb44;fill-opacity:1"
       id="path1815" />
    <path
       d="m 158.86016,150.14508 q -0.12,0 -0.42,-0.24 -0.24,-0.24 -0.24,-0.36 0,-0.6 0.12,-1.68 0.18,-1.14 0.18,-1.92 v -0.36 q -0.9,1.38 -2.88,2.82 -1.98,1.44 -4.98,1.44 -3.42,0 -5.94,-1.8 -2.46,-1.8 -3.84,-4.62 -1.32,-2.82 -1.32,-5.82 0,-3.48 1.62,-6.54 1.62,-3.06 4.62,-4.98 3.06,-1.92 7.26,-1.92 1.2,0 2.4,0.24 1.26,0.18 1.92,0.42 0.54,0.18 0.78,0.18 0.42,0 0.42,-1.44 v -8.52 q 0,-2.46 -0.78,-3.3 -0.78,-0.84 -2.22,-1.08 -0.54,-0.12 -0.54,-0.78 0,-0.54 0.48,-0.72 2.64,-0.66 4.14,-1.26 1.5,-0.6 2.34,-0.96 0.24,-0.12 0.42,-0.12 0.24,-0.06 0.36,-0.06 0.36,0 0.42,0.36 0,0.36 -0.12,1.26 -0.06,0.84 -0.18,2.52 -0.12,1.68 -0.12,4.38 v 27.12 q 0,2.04 0.3,3 0.3,0.9 0.96,0.9 0.3,0 1.02,-0.06 0.78,-0.06 1.56,-0.12 1.08,-0.06 1.08,0.54 0,0.42 -0.3,0.78 -0.24,0.3 -0.54,0.3 -1.68,0.24 -3.3,0.72 -1.62,0.42 -3.72,1.32 -0.48,0.24 -0.66,0.3 -0.12,0.06 -0.3,0.06 z m -6.06,-3.42 q 1.56,0 3.06,-0.78 1.5,-0.84 2.64,-2.16 l 0.06,-10.8 q 0,-1.62 -0.96,-3.18 -0.9,-1.56 -2.58,-2.52 -1.62,-1.02 -3.84,-1.02 -1.38,0 -3.12,0.84 -1.74,0.84 -3,3 -1.26,2.1 -1.26,6.12 0,3.42 1.02,5.52 1.02,2.04 2.46,3.12 1.5,1.08 3,1.5 1.56,0.36 2.52,0.36 z"
       style="font-family:'EB Garamond';-inkscape-font-specification:'EB Garamond';fill:#ccbb44;fill-opacity:1"
       id="path1817" />
    <path
       d="m 170.74006,149.18508 q -0.6,0 -0.9,-0.18 -0.3,-0.12 -0.3,-0.48 0,-0.48 0.36,-0.6 0.36,-0.18 1.02,-0.36 1.14,-0.3 1.68,-0.84 0.6,-0.6 0.6,-1.44 v -12.9 q 0,-1.62 -0.48,-2.82 -0.48,-1.2 -1.98,-1.5 -0.24,-0.06 -0.42,-0.3 -0.18,-0.24 -0.18,-0.48 0,-0.6 0.54,-0.72 1.56,-0.48 3.24,-1.38 1.74,-0.96 2.7,-1.56 0.36,-0.24 0.54,-0.3 0.24,-0.12 0.36,-0.12 0.3,0 0.3,0.42 0,0.18 -0.06,0.9 0,0.72 -0.06,1.68 0,0.96 -0.06,1.92 0,0.12 0.12,0.12 0.96,-1.2 2.1,-2.1 1.2,-0.9 2.4,-1.44 1.26,-0.54 2.4,-0.54 1.26,0 2.04,0.54 0.84,0.54 0.84,1.38 0,0.6 -0.36,1.32 -0.3,0.72 -0.84,1.26 -0.54,0.54 -1.14,0.54 -0.36,0 -0.78,-0.12 -0.42,-0.18 -0.9,-0.42 -0.48,-0.18 -0.96,-0.36 -0.48,-0.18 -0.96,-0.18 -1.44,0 -2.82,1.02 -1.32,1.02 -1.32,4.02 v 12.12 q 0,0.78 0.84,1.32 0.84,0.48 2.34,0.96 0.66,0.18 1.02,0.36 0.36,0.18 0.36,0.6 0,0.66 -1.2,0.66 -1.8,0 -2.76,-0.18 -0.9,-0.12 -2.46,-0.12 -1.02,0 -1.68,0.06 -0.6,0.06 -1.32,0.12 -0.66,0.12 -1.86,0.12 z"
       style="font-family:'EB Garamond';-inkscape-font-specification:'EB Garamond';fill:#ccbb44;fill-opacity:1"
       id="path1819" />
    <path
       d="m 201.88004,149.84508 q -3.36,0 -6.06,-1.56 -2.7,-1.56 -4.32,-4.26 -1.56,-2.76 -1.56,-6.24 0,-2.52 0.96,-4.92 1.02,-2.4 2.82,-4.38 1.8,-1.98 4.2,-3.12 2.4,-1.2 5.16,-1.2 3.48,0 6.24,1.68 2.82,1.68 4.44,4.44 1.68,2.7 1.68,5.94 0,3.48 -1.56,6.6 -1.5,3.12 -4.5,5.1 -3,1.92 -7.5,1.92 z m 1.26,-1.8 q 2.04,0 3.66,-0.78 1.62,-0.78 2.52,-2.52 0.72,-1.38 0.96,-3.36 0.24,-1.98 0.24,-3.72 0,-2.88 -1.08,-5.52 -1.02,-2.7 -2.94,-4.38 -1.86,-1.74 -4.44,-1.74 -1.62,0 -2.94,0.54 -1.26,0.48 -2.34,1.86 -1.2,1.5 -1.56,3.66 -0.36,2.16 -0.36,4.32 0,2.94 1.08,5.64 1.08,2.64 2.94,4.32 1.86,1.68 4.26,1.68 z"
       style="font-family:'EB Garamond';-inkscape-font-specification:'EB Garamond';fill:#ccbb44;fill-opacity:1"
       id="path1821" />
  </g>
  <g
     id="g1561"
     transform="translate(28.89323,7.1)">
    <path
       d="M -70,0 H 70"
       id="path174"
       style="font-size:90px;font-family:Times, 'Times New Roman', serif;text-anchor:middle;fill:#000000;stroke:#000000;stroke-width:3;stroke-linecap:round;stroke-linejoin:round" />
    <g
       aria-label="P"
       id="text176"
       style="font-style:italic;font-size:90px;font-family:Times, 'Times New Roman', serif;text-anchor:middle;stroke-width:3;stroke-linecap:round;stroke-linejoin:round">
      <path
         d="m -68.219999,-19.55 q -1.08,0 -1.62,-0.27 -0.54,-0.18 -0.54,-0.72 0,-0.63 0.81,-0.99 0.9,-0.36 2.43,-0.63 3.33,-0.63 5.31,-2.07 1.98,-1.44 2.97,-4.77 l 12.06,-39.33 q 1.26,-3.96 0.09,-5.85 -1.08,-1.89 -5.58,-2.25 -1.35,-0.18 -1.8,-0.45 -0.45,-0.27 -0.45,-0.9 0,-0.54 0.81,-0.72 0.9,-0.27 1.98,-0.27 0.45,0 1.89,0 1.44,0 3.15,0.09 1.71,0 2.97,0 0.99,0 2.88,-0.09 1.89,-0.09 3.87,-0.18 2.07,-0.09 3.24,-0.09 5.67,0 9.99,1.98 4.32,1.98 6.66,5.67 2.43,3.69 2.43,8.91 0,4.32 -2.07,7.92 -1.98,3.6 -5.49,6.21 -3.42,2.61 -7.83,4.05 -4.41,1.44 -9.18,1.44 -0.9,0 -2.34,-0.18 -1.44,-0.27 -1.44,-0.99 0,-0.54 0.63,-0.81 0.63,-0.27 1.44,-0.36 1.26,-0.18 2.52,-0.36 1.26,-0.27 2.43,-0.54 3.87,-1.08 6.93,-3.24 3.06,-2.25 4.86,-5.67 1.89,-3.51 1.89,-8.19 0,-3.78 -1.62,-6.84 -1.53,-3.06 -4.59,-4.86 -3.06,-1.8 -7.56,-1.8 -0.72,0 -1.17,0.45 -0.45,0.36 -0.81,1.17 -0.27,0.81 -0.72,2.16 l -13.14,42.93 q -1.17,3.6 -0.18,5.4 0.99,1.71 4.5,2.43 1.35,0.27 1.8,0.63 0.45,0.36 0.45,0.99 0,0.54 -0.81,0.72 -0.81,0.27 -1.89,0.27 -2.25,0 -3.69,-0.18 -1.44,-0.18 -2.61,-0.27 -1.17,-0.18 -2.79,-0.18 -3.24,0 -5.49,0.27 -2.16,0.36 -5.58,0.36 z"
         style="font-family:'EB Garamond';-inkscape-font-specification:'EB Garamond Italic'"
         id="path1840" />
    </g>
    <g
       aria-label="T"
       id="text178"
       style="font-style:italic;font-size:90px;font-family:Times, 'Times New Roman', serif;text-anchor:middle;stroke-width:3;stroke-linecap:round;stroke-linejoin:round">
      <path
         d="m -62.759988,80.45 q -1.08,0 -1.62,-0.27 -0.54,-0.18 -0.54,-0.72 0,-0.63 0.9,-0.9 0.9,-0.27 2.43,-0.54 3.33,-0.63 5.49,-2.25 2.25,-1.71 3.15,-4.95 l 10.98,-38.52 q 1.26,-4.59 1.08,-6.03 -0.18,-1.53 -1.35,-1.53 h -7.47 q -4.41,0 -6.84,1.8 -2.34,1.71 -3.96,3.69 -0.81,0.9 -1.53,1.98 -0.63,0.99 -1.26,1.71 -0.54,0.72 -1.08,0.72 -0.54,0 -0.81,-0.18 -0.18,-0.27 -0.18,-0.99 0,-0.18 0.18,-0.9 0.18,-0.72 0.72,-1.89 0.9,-1.8 1.98,-4.14 1.17,-2.34 1.8,-4.68 0.18,-0.63 0.63,-1.17 0.54,-0.63 0.9,-0.63 0.36,0 0.81,0.36 0.45,0.27 0.81,0.72 0.27,0.27 0.81,0.54 0.54,0.27 1.89,0.45 1.35,0.09 4.14,0.09 h 32.13 q 2.79,0 4.14,-0.18 1.44,-0.18 2.07,-0.45 0.63,-0.27 0.9,-0.54 0.45,-0.45 0.81,-0.72 0.36,-0.27 0.7199997,-0.27 0.9,0 0.9,0.99 0,0.63 -0.36,1.35 -0.27,0.72 -0.54,1.17 -0.4499997,0.9 -1.4399997,3.87 -0.99,2.88 -1.71,6.57 -0.09,0.72 -0.36,0.99 -0.27,0.27 -0.63,0.27 -0.63,0 -0.99,-0.54 -0.27,-0.63 -0.27,-1.53 0,-4.14 -1.35,-6.3 -1.26,-2.16 -4.68,-2.16 h -9 q -1.17,0 -1.98,0.54 -0.72,0.54 -1.44,2.25 -0.63,1.62 -1.62,5.04 l -10.89,38.25 q -0.9,3.24 0.27,4.95 1.26,1.62 4.23,2.25 1.35,0.27 1.8,0.54 0.45,0.27 0.45,0.9 0,0.54 -0.81,0.72 -0.81,0.27 -1.89,0.27 -2.25,0 -3.69,-0.18 -1.44,-0.09 -2.79,-0.18 -1.26,-0.09 -3.15,-0.09 -2.07,0 -3.69,0.09 -1.62,0.09 -3.33,0.18 -1.62,0.18 -3.87,0.18 z"
         style="font-family:'EB Garamond';-inkscape-font-specification:'EB Garamond Italic'"
         id="path1843" />
    </g>
    <g
       aria-label="V"
       id="text180"
       style="font-style:italic;font-size:90px;font-family:Times, 'Times New Roman', serif;text-anchor:middle;stroke-width:3;stroke-linecap:round;stroke-linejoin:round">
      <path
         d="m 24.54506,-18.74 q -1.17,0 -1.98,-1.35 -0.81,-1.44 -0.09,-5.58 2.61,-15.12 4.32,-25.74 1.71,-10.62 2.34,-18.09 0.18,-2.88 -0.45,-4.41 -0.54,-1.62 -4.14,-2.16 -1.35,-0.18 -1.8,-0.63 -0.36,-0.54 -0.36,-1.17 0,-0.63 0.81,-0.9 0.81,-0.27 1.89,-0.27 1.8,0 4.23,0.27 2.52,0.27 5.31,0.27 1.62,0 3.24,0 1.62,-0.09 3.06,-0.09 1.44,0 2.43,0 1.08,0 1.62,0.27 0.54,0.18 0.54,0.72 0,0.63 -0.99,1.08 -0.9,0.45 -2.16,0.63 -2.61,0.36 -4.14,1.53 -1.44,1.17 -1.98,4.59 l -6.03,36.9 q -0.27,1.53 -0.18,2.16 0.18,0.63 0.54,0.63 0.36,0 0.9,-0.81 0.54,-0.81 1.71,-2.25 l 25.2,-31.14 q 3.24,-3.96 4.14,-6.39 0.99,-2.52 0.45,-3.78 -0.54,-1.26 -1.8,-1.44 -1.44,-0.18 -1.8,-0.63 -0.36,-0.54 -0.36,-1.17 0,-0.54 0.81,-0.72 0.81,-0.27 1.89,-0.27 1.17,0 3.51,0.09 2.43,0.09 4.68,0.09 2.79,0 4.41,-0.27 1.71,-0.27 3.78,-0.27 1.08,0 1.53,0.36 0.54,0.27 0.54,0.81 0,0.63 -0.9,1.17 -0.9,0.45 -2.43,0.9 -2.34,0.63 -5.13,2.16 -2.79,1.53 -5.4,4.77 l -33.39,40.32 q -1.44,1.71 -2.7,3.42 -1.26,1.71 -2.43,3.15 -1.08,1.44 -1.89,2.34 -0.81,0.9 -1.35,0.9 z"
         style="font-family:'EB Garamond';-inkscape-font-specification:'EB Garamond Italic'"
         id="path1846" />
    </g>
    <g
       aria-label="N"
       id="text182"
       style="font-style:italic;font-size:90px;font-family:Times, 'Times New Roman', serif;text-anchor:middle;stroke-width:3;stroke-linecap:round;stroke-linejoin:round">
      <path
         d="m 9.7450041,80.45 q -1.08,0 -1.62,-0.27 -0.54,-0.18 -0.54,-0.72 0,-0.63 0.54,-0.9 0.54,-0.36 2.0699999,-0.72 4.23,-0.99 5.94,-2.61 1.71,-1.62 2.34,-3.78 l 12.51,-38.79 q 0.9,-2.7 0.99,-4.59 0.09,-1.89 -1.26,-2.97 -1.26,-1.17 -4.68,-1.35 -1.53,-0.18 -2.52,-0.54 -0.99,-0.45 -0.99,-1.17 0,-0.9 0.9,-1.08 0.9,-0.18 1.35,-0.18 2.43,0 4.5,0.09 2.07,0.09 3.78,0.27 1.8,0.09 3.33,0.09 0.72,0 1.35,0.45 0.63,0.36 0.99,1.08 l 20.61,43.38 q 0.18,0.36 0.72,1.08 0.63,0.63 1.08,0.63 0.45,0 1.17,-1.8 0.36,-0.99 1.26,-3.69 0.9,-2.7 2.07,-6.39 1.17,-3.78 2.34,-7.83 1.26,-4.05 2.34,-7.65 1.08,-3.69 1.8,-6.21 0.72,-2.52 0.9,-3.24 0.72,-3.15 -0.99,-4.68 -1.71,-1.53 -6.03,-2.16 -2.43,-0.36 -2.43,-1.71 0,-0.54 0.9,-0.81 0.99,-0.27 2.07,-0.27 2.43,0 4.68,0.18 2.34,0.18 4.95,0.18 1.8,0 3.15,-0.09 1.35,-0.18 2.97,-0.27 1.71,-0.18 4.23,-0.18 2.07,0 2.07,0.99 0,0.63 -0.9,1.17 -0.9,0.45 -2.43,0.63 -2.25,0.18 -3.6,0.72 -1.26,0.45 -2.07,1.71 -0.81,1.26 -1.8,3.6 -0.18,0.54 -1.17,3.42 -0.99,2.79 -2.43,6.93 -1.44,4.14 -3.06,8.82 -1.62,4.68 -3.06,9 -1.44,4.32 -2.52,7.47 -0.99,3.15 -1.26,4.14 -0.36,1.44 -0.27,2.34 0.18,0.81 0.63,1.89 0.54,1.26 1.35,1.89 0.9,0.54 1.62,1.08 0.72,0.54 1.17,1.08 0.54,0.45 0.54,1.35 0,0.36 -0.27,0.45 -0.18,0.09 -0.45,0.09 -1.62,0 -2.97,0.09 -1.26,0.09 -2.25,0.18 -0.9,0.18 -1.71,0.18 -1.44,0 -2.25,-0.45 -0.81,-0.45 -1.53,-1.89 -1.62,-3.42 -3.33,-7.11 -1.62,-3.69 -3.33,-7.56 -1.62,-3.87 -3.33,-7.74 -1.71,-3.87 -3.51,-7.65 -1.71,-3.87 -3.42,-7.47 -1.71,-3.69 -3.51,-6.93 -0.54,-0.99 -1.17,-1.53 -0.54,-0.63 -0.99,-0.63 -0.45,0 -1.08,0.81 -0.63,0.72 -1.08,2.25 -0.9,3.33 -2.25,7.65 -1.26,4.32 -2.7,9.27 -1.35,4.86 -2.79,9.99 -1.44,5.04 -2.61,9.9 -0.63,2.52 0.72,4.23 1.44,1.62 4.86,2.34 1.35,0.27 1.98,0.63 0.63,0.27 0.63,0.9 0,0.54 -0.81,0.72 -0.81,0.27 -1.89,0.27 -2.25,0 -3.69,-0.18 -1.35,-0.09 -2.52,-0.18 -1.17,-0.09 -2.7,-0.09 -1.8,0 -3.15,0.09 -1.35,0.09 -2.79,0.18 -1.44,0.18 -3.6899999,0.18 z"
         style="font-family:'EB Garamond';-inkscape-font-specification:'EB Garamond Italic'"
         id="path1849" />
    </g>
  </g>
  <text
     x="155.28386"
     y="0.54531252"
     dy="30"
     id="text190"
     style="font-size:90px;font-family:Times, 'Times New Roman', serif;text-anchor:middle;fill:#000000;stroke-width:3;stroke-linecap:round;stroke-linejoin:round">=</text>
  <metadata
     id="metadata1852">
    <rdf:RDF>
      <cc:Work
         rdf:about="">
        <dc:title>ideal gas law relationships</dc:title>
      </cc:Work>
    </rdf:RDF>
  </metadata>
  <g
     aria-label="kB"
     id="text2238"
     style="font-size:90px;line-height:1.25">
    <path
       d="m 218.57477,32.317362 q -2.16,0 -3.42,-1.17 -1.26,-1.08 -2.25,-3.24 l -3.42,-9.54 q -0.54,-1.53 -1.62,-2.7 -0.99,-1.26 -2.52,-1.26 -0.63,0 -1.35,1.44 -0.63,1.35 -1.08,2.34 -0.27,0.63 -0.9,2.16 -0.54,1.44 -1.26,3.24 -0.72,1.8 -1.26,3.33 -0.54,1.44 -0.81,2.07 -0.54,1.44 -0.9,2.07 -0.36,0.72 -1.44,0.72 -0.63,0 -1.53,-0.63 -0.81,-0.54 -0.81,-1.35 0,-0.45 0.18,-1.44 0.18,-0.99 0.54,-2.34 l 15.03,-46.62 q 0.54,-1.71 0.72,-2.88 0.18,-1.17 0.18,-2.25 0,-1.08 -1.98,-1.8 -0.9,-0.36 -1.62,-0.63 -0.72,-0.36 -0.72,-0.63 0,-0.36 0.09,-0.63 0.18,-0.27 0.45,-0.36 0.99,-0.54 2.43,-1.08 1.53,-0.54 3.06,-1.08 1.62,-0.54 2.88,-0.81 1.26,-0.36 1.8,-0.36 0.45,0 0.9,0.09 0.54,0.09 0.54,0.81 0,0.72 -0.09,1.08 0,0.36 -0.18,0.99 l -12.15,36.9900004 q -0.36,0.99 0,0.9 0.45,-0.09 0.81,-0.54 3.06,-4.32 6.48,-7.46999996 3.51,-3.15000004 7.02,-4.86000004 3.51,-1.8 6.48,-1.8 1.8,0 3.51,0.99 1.8,0.99 1.8,3.06 0,2.34000004 -1.98,4.95 -1.98,2.61 -4.95,4.95 -2.88,2.34 -6.03,4.1399996 -3.06,1.71 -5.4,2.34 -0.81,0.18 -0.45,0.99 l 4.14,9.81 q 0.45,0.9 1.17,1.8 0.81,0.81 1.8,0.81 1.71,0 3.42,-1.62 1.71,-1.62 2.88,-3.6 0.45,-0.81 0.72,-0.99 0.36,-0.18 0.72,-0.18 0.18,0 0.36,0.36 0.18,0.36 0.18,0.72 0,1.44 -1.17,3.24 -1.17,1.8 -2.88,3.51 -1.71,1.71 -3.42,2.79 -1.62,1.17 -2.7,1.17 z m -9.45,-20.16 q 2.79,0 5.67,-1.35 2.97,-1.3499996 5.49,-3.3299996 2.52,-1.98 4.05,-4.05 1.53,-2.16 1.53,-3.59999996 0,-1.35000004 -0.81,-2.07000004 -0.81,-0.81 -2.43,-0.81 -1.89,0 -4.41,1.71 -2.43,1.71000004 -4.77,4.23 -2.34,2.43 -3.87,4.59 -1.53,2.16 -1.53,3.1499996 0,0.54 0.27,1.08 0.27,0.45 0.81,0.45 z"
       style="font-style:italic;font-family:'EB Garamond';-inkscape-font-specification:'EB Garamond Italic'"
       id="path2244" />
    <path
       d="m 236.32277,48.719862 q -0.7605,0 -1.2285,-0.1755 -0.468,-0.117 -0.468,-0.468 0,-0.701999 1.9305,-1.052999 2.223,-0.4095 3.393,-1.3455 1.17,-0.936 1.17,-3.042 V 16.310865 q 0,-2.106 -0.8775,-3.1005 -0.8775,-0.9945 -3.042,-1.17 -0.9945,-0.117 -1.4625,-0.4095 -0.468,-0.351 -0.468,-0.7605 0,-0.351 0.468,-0.468 0.468,-0.1755 1.2285,-0.1755 1.5795,0 2.457,0 0.8775,0 1.638,0.0585 0.819,0 1.989,0 1.1115,0 1.9305,-0.0585 0.819,-0.117 1.8135,-0.1755 1.053,-0.0585 2.7495,-0.0585 6.8445,0 10.17899,1.989 3.393,1.9305 3.393,6.727499 0,1.989 -0.702,3.51 -0.6435,1.4625 -1.287,2.106 -0.936,0.936 -1.69649,1.4625 -0.7605,0.468 -2.223,1.053 -0.234,0.0585 -0.234,0.2925 0,0.1755 0.234,0.2925 1.3455,0.4095 2.74949,1.053 1.4625,0.6435 2.691,1.6965 1.287,0.9945 2.0475,2.690999 0.819,1.638 0.819,4.212 0,3.2175 -1.053,5.0895 -0.9945,1.872 -2.3985,2.8665 -1.404,0.9945 -2.63249,1.638 -1.8135,0.935999 -4.212,1.462499 -2.3985,0.5265 -5.733,0.5265 -0.7605,0 -2.2815,-0.117 -1.521,-0.117 -3.276,-0.117 -1.521,0 -2.574,0.0585 -1.053,0.0585 -2.223,0.117 -1.1115,0.117 -2.808,0.117 z m 13.9815,-2.456999 q 2.574,0 4.797,-1.17 2.223,-1.17 3.5685,-3.159 1.34549,-2.0475 1.34549,-4.563 0,-2.2815 -0.76049,-3.744 -0.7605,-1.520999 -1.755,-2.456999 -0.9945,-0.936 -1.8135,-1.3455 -0.7605,-0.468 -2.3985,-0.936 -1.638,-0.5265 -4.2705,-0.5265 -1.872,0 -2.6325,0.7605 -0.702,0.7605 -0.702,1.3455 v 11.641499 q 0,2.457 1.17,3.3345 1.2285,0.819 3.4515,0.819 z m -1.9305,-19.538999 q 1.5795,0 3.393,-0.351 1.872,-0.351 3.6855,-1.3455 0.6435,-0.351 1.638,-1.6965 0.9945,-1.3455 0.9945,-3.861 0,-1.6965 -0.6435,-3.451499 -0.6435,-1.8135 -2.457,-3.042 -1.8135,-1.2285 -5.4405,-1.2285 -2.3985,0 -3.159,0.6435 -0.702,0.6435 -0.702,1.989 v 10.178999 q 0,1.521 0.9945,1.872 0.9945,0.2925 1.6965,0.2925 z"
       style="font-size:65%;baseline-shift:sub"
       id="path2246" />
  </g>
</svg>
