<?xml version="1.0" encoding="UTF-8" standalone="no"?>
<!-- Created with Inkscape (http://www.inkscape.org/) -->

<svg
   width="241.43182mm"
   height="228.7433mm"
   viewBox="0 0 241.43182 228.7433"
   version="1.1"
   id="svg5"
   inkscape:version="1.2 (dc2aeda, 2022-05-15)"
   sodipodi:docname="ley-proporciones-multiples.svg"
   xmlns:inkscape="http://www.inkscape.org/namespaces/inkscape"
   xmlns:sodipodi="http://sodipodi.sourceforge.net/DTD/sodipodi-0.dtd"
   xmlns="http://www.w3.org/2000/svg"
   xmlns:svg="http://www.w3.org/2000/svg">
  <sodipodi:namedview
     id="namedview7"
     pagecolor="#ffffff"
     bordercolor="#666666"
     borderopacity="1.0"
     inkscape:showpageshadow="2"
     inkscape:pageopacity="0.0"
     inkscape:pagecheckerboard="0"
     inkscape:deskcolor="#d1d1d1"
     inkscape:document-units="mm"
     showgrid="false"
     inkscape:zoom="0.63290168"
     inkscape:cx="393.42604"
     inkscape:cy="432.92664"
     inkscape:window-width="1280"
     inkscape:window-height="800"
     inkscape:window-x="1920"
     inkscape:window-y="213"
     inkscape:window-maximized="0"
     inkscape:current-layer="layer1" />
  <defs
     id="defs2">
    <marker
       style="overflow:visible"
       id="marker2536"
       refX="0"
       refY="0"
       orient="auto-start-reverse"
       inkscape:stockid="TriangleStart"
       markerWidth="5.3244081"
       markerHeight="6.155385"
       viewBox="0 0 5.3244081 6.1553851"
       inkscape:isstock="true"
       inkscape:collect="always"
       preserveAspectRatio="xMidYMid">
      <path
         transform="scale(0.5)"
         style="fill:context-stroke;fill-rule:evenodd;stroke:context-stroke;stroke-width:1pt"
         d="M 5.77,0 -2.88,5 V -5 Z"
         id="path2534" />
    </marker>
    <marker
       style="overflow:visible"
       id="TriangleStart"
       refX="0"
       refY="0"
       orient="auto-start-reverse"
       inkscape:stockid="TriangleStart"
       markerWidth="5.3244081"
       markerHeight="6.155385"
       viewBox="0 0 5.3244081 6.1553851"
       inkscape:isstock="true"
       inkscape:collect="always"
       preserveAspectRatio="xMidYMid">
      <path
         transform="scale(0.5)"
         style="fill:context-stroke;fill-rule:evenodd;stroke:context-stroke;stroke-width:1pt"
         d="M 5.77,0 -2.88,5 V -5 Z"
         id="path135" />
    </marker>
    <marker
       style="overflow:visible"
       id="marker2536-0"
       refX="0"
       refY="0"
       orient="auto-start-reverse"
       inkscape:stockid="TriangleStart"
       markerWidth="5.3244081"
       markerHeight="6.155385"
       viewBox="0 0 5.3244081 6.1553851"
       inkscape:isstock="true"
       inkscape:collect="always"
       preserveAspectRatio="xMidYMid">
      <path
         transform="scale(0.5)"
         style="fill:context-stroke;fill-rule:evenodd;stroke:context-stroke;stroke-width:1pt"
         d="M 5.77,0 -2.88,5 V -5 Z"
         id="path2534-0" />
    </marker>
    <marker
       style="overflow:visible"
       id="TriangleStart-9"
       refX="0"
       refY="0"
       orient="auto-start-reverse"
       inkscape:stockid="TriangleStart"
       markerWidth="5.3244081"
       markerHeight="6.155385"
       viewBox="0 0 5.3244081 6.1553851"
       inkscape:isstock="true"
       inkscape:collect="always"
       preserveAspectRatio="xMidYMid">
      <path
         transform="scale(0.5)"
         style="fill:context-stroke;fill-rule:evenodd;stroke:context-stroke;stroke-width:1pt"
         d="M 5.77,0 -2.88,5 V -5 Z"
         id="path135-5" />
    </marker>
  </defs>
  <g
     inkscape:label="Capa 1"
     inkscape:groupmode="layer"
     id="layer1"
     transform="translate(15.587441,-44.824752)">
    <circle
       style="fill:#000000;fill-opacity:1;stroke:#bbbbbb;stroke-width:0.267594"
       id="path739"
       cx="85.128464"
       cy="64.824753"
       r="19.866203" />
    <g
       id="g1780"
       transform="translate(7.291412e-7,42.311453)">
      <circle
         style="fill:#000000;fill-opacity:1;stroke:#bbbbbb;stroke-width:0.267594"
         id="path739-6"
         cx="4.412559"
         cy="191.70485"
         r="19.866203" />
      <circle
         style="fill:#ff0000;fill-opacity:1;stroke:#bbbbbb;stroke-width:0.267594"
         id="path739-3-5"
         cx="44.41256"
         cy="191.70485"
         r="19.866203" />
    </g>
    <g
       id="g1776"
       transform="translate(5.7495111e-7,42.311453)">
      <circle
         style="fill:#000000;fill-opacity:1;stroke:#bbbbbb;stroke-width:0.267594"
         id="path739-6-7"
         cx="165.84438"
         cy="191.70485"
         r="19.866203" />
      <circle
         style="fill:#ff0000;fill-opacity:1;stroke:#bbbbbb;stroke-width:0.267594"
         id="path739-3-5-6"
         cx="205.84438"
         cy="191.70485"
         r="19.866203" />
      <circle
         style="fill:#ff0000;fill-opacity:1;stroke:#bbbbbb;stroke-width:0.267594"
         id="path739-3-5-2"
         cx="125.84438"
         cy="191.70485"
         r="19.866203" />
    </g>
    <circle
       style="fill:#ff0000;fill-opacity:1;stroke:#bbbbbb;stroke-width:0.267594"
       id="path739-3"
       cx="24.41256"
       cy="128.2648"
       r="19.866203" />
    <g
       id="g2031">
      <circle
         style="fill:#ff0000;fill-opacity:1;stroke:#bbbbbb;stroke-width:0.267594"
         id="path739-3-9"
         cx="145.84438"
         cy="128.2648"
         r="19.866203" />
      <circle
         style="fill:#ff0000;fill-opacity:1;stroke:#bbbbbb;stroke-width:0.267594"
         id="path739-3-8"
         cx="185.84438"
         cy="128.2648"
         r="19.866203" />
    </g>
    <g
       aria-label="1 gC"
       id="text1908"
       style="font-size:16.9333px;line-height:1.25;stroke-width:0.264583">
      <path
         d="m 73.963093,100.83464 q -0.118533,0 -0.186266,-0.0677 -0.06773,-0.0677 -0.06773,-0.13546 0,-0.1524 0.254,-0.22014 0.643465,-0.16933 1.049865,-0.3048 0.423332,-0.152395 0.609598,-0.406395 0.2032,-0.270933 0.2032,-0.761998 v -6.468521 q 0,-0.321733 -0.2032,-0.491066 -0.203199,-0.169333 -0.524932,-0.237066 -0.321733,-0.06773 -0.694265,-0.08467 -0.169333,-0.01693 -0.3048,-0.08467 -0.135466,-0.06773 -0.135466,-0.203199 0,-0.118534 0.118533,-0.2032 0.135466,-0.08467 0.304799,-0.1016 0.761999,-0.118533 1.354664,-0.287866 0.609599,-0.186266 1.185331,-0.761998 0.01693,-0.01693 0.03387,-0.01693 0.03387,0 0.0508,0 0.08467,0 0.1524,0.0508 0.06773,0.03387 0.0508,0.1016 -0.03387,0.253999 -0.0508,0.558799 -0.01693,0.287866 -0.01693,0.643465 v 7.789318 q 0,0.423333 0.1524,0.643466 0.169333,0.220131 0.558799,0.355601 0.389466,0.11853 1.083731,0.28787 0.1016,0.0169 0.186266,0.0847 0.1016,0.0508 0.1016,0.13547 0,0.18627 -0.237066,0.18627 -0.474132,0 -0.880532,-0.0339 -0.389465,-0.0169 -0.778931,-0.0339 -0.372533,-0.0169 -0.829732,-0.0169 -0.457199,0 -0.863598,0.0169 -0.4064,0.0169 -0.812799,0.0339 -0.406399,0.0339 -0.863598,0.0339 z"
         style="font-family:'EB Garamond';-inkscape-font-specification:'EB Garamond'"
         id="path2765" />
      <path
         d="m 85.274504,105.69449 q -1.439331,0 -2.285996,-0.5588 -0.829731,-0.54186 -0.829731,-1.47319 0,-0.44027 0.135466,-0.74507 0.135466,-0.3048 0.423333,-0.52493 0.237066,-0.2032 0.626532,-0.52493 0.406399,-0.3048 0.829731,-0.64347 l 0.711199,0.0339 q -0.812798,0.52493 -1.134531,0.99906 -0.321733,0.47414 -0.321733,1.15147 0,0.67733 0.592666,1.13453 0.609598,0.47413 1.49013,0.47413 0.999065,0 1.608664,-0.4572 0.423332,-0.32173 0.660398,-0.84666 0.237066,-0.508 0.237066,-1.08373 0,-0.37254 -0.270932,-0.62654 -0.254,-0.23706 -0.812799,-0.38946 -0.558799,-0.1524 -1.456264,-0.2032 -1.59173,-0.11853 -2.218262,-0.42333 -0.609599,-0.3048 -0.609599,-0.94827 0,-0.169332 0.08467,-0.304798 0.1016,-0.1524 0.304799,-0.321733 0.389466,-0.304799 0.575732,-0.440266 0.186267,-0.152399 0.270933,-0.253999 0.1016,-0.1016 0.186267,-0.254 l 0.575732,0.287866 q -0.372533,0.135467 -0.626532,0.372533 -0.254,0.220133 -0.254,0.406399 0,0.237066 0.254,0.423333 0.253999,0.169335 0.745065,0.270935 0.491066,0.1016 1.202264,0.1524 1.557864,0.0847 2.319862,0.508 0.761999,0.42333 0.761999,1.20226 0,0.6604 -0.338666,1.28693 -0.321733,0.64347 -0.863599,1.1684 -0.541865,0.52493 -1.219197,0.82973 -0.660399,0.32173 -1.354664,0.32173 z m 0.203199,-7.298249 q 0.643466,0 1.066798,-0.643465 0.423333,-0.660399 0.423333,-1.625597 0,-0.491066 -0.237066,-0.914398 -0.220133,-0.440266 -0.592666,-0.694266 -0.355599,-0.270932 -0.778932,-0.270932 -0.389466,0 -0.745065,0.287866 -0.338666,0.270932 -0.558799,0.711198 -0.203199,0.440266 -0.203199,0.965198 0,0.592666 0.220133,1.100665 0.220132,0.491066 0.592665,0.795865 0.372533,0.287866 0.812798,0.287866 z m -0.101599,0.592666 q -0.694266,0 -1.320798,-0.3556 -0.626532,-0.355599 -1.032931,-0.931331 -0.389466,-0.592666 -0.389466,-1.286931 0,-0.795865 0.406399,-1.388531 0.423333,-0.609598 1.100665,-0.948264 0.677332,-0.338666 1.43933,-0.338666 0.491066,0 0.846665,0.135466 0.372533,0.118533 0.728132,0.220133 0.406399,0.118533 0.643466,0.1524 0.237066,0.01693 0.491065,0.01693 0.2032,0 0.507999,-0.01693 0.3048,-0.03387 0.423333,-0.03387 0.220133,0 0.220133,0.253999 0,0.1524 -0.169333,0.321733 -0.08467,0.08467 -0.135467,0.08467 h -0.457199 q -0.457199,0 -0.507999,0.135466 -0.01693,0.06773 -0.0508,0.2032 -0.01693,0.118533 -0.03387,0.270932 -0.01693,0.1524 -0.01693,0.3048 0,0.863598 -0.372532,1.59173 -0.372533,0.728132 -0.982132,1.168398 -0.609598,0.440266 -1.33773,0.440266 z"
         style="font-family:'EB Garamond';-inkscape-font-specification:'EB Garamond'"
         id="path2767" />
      <path
         d="m 93.818192,104.3356 q -0.770465,0 -1.485897,-0.26416 -0.715432,-0.26416 -1.276771,-0.74846 -0.561339,-0.49529 -0.891538,-1.17771 -0.319193,-0.69341 -0.319193,-1.52992 0,-0.803485 0.341206,-1.485897 0.341206,-0.682412 0.935565,-1.188717 0.594359,-0.506306 1.353817,-0.781472 0.770465,-0.286173 1.617977,-0.286173 0.429259,0 0.726438,0.03302 0.29718,0.03302 0.572346,0.09906 0.286173,0.05503 0.660399,0.154093 0.165099,0.04403 0.231139,0.13208 0.07705,0.08805 0.08805,0.242146 0.02201,0.253153 0.05503,0.550332 0.03302,0.286173 0.04403,0.715432 0.01101,0.07705 -0.07705,0.13208 -0.07705,0.04403 -0.176107,0.02201 -0.08805,-0.02201 -0.121073,-0.143086 -0.110066,-0.418253 -0.253153,-0.715432 -0.143086,-0.308186 -0.429259,-0.506306 -0.275166,-0.187113 -0.671405,-0.275166 -0.385233,-0.09906 -0.836505,-0.09906 -0.638385,0 -1.188718,0.26416 -0.539325,0.253153 -0.935564,0.704425 -0.385233,0.440266 -0.605366,1.001605 -0.220133,0.561338 -0.220133,1.166706 0,0.67141 0.209127,1.3208 0.220132,0.64939 0.616372,1.17771 0.407245,0.51731 0.957578,0.8365 0.561339,0.30819 1.24375,0.30819 0.792479,0 1.309791,-0.36322 0.517312,-0.36322 0.880532,-1.01261 0.07705,-0.14309 0.220133,-0.14309 0.154093,0 0.154093,0.17611 0,0.0881 -0.04403,0.28617 -0.04403,0.18712 -0.121073,0.40725 -0.06604,0.20912 -0.13208,0.37422 -0.07705,0.1541 -0.13208,0.19812 -0.04403,0.044 -0.220132,0.0991 -0.407246,0.1651 -0.979592,0.24215 -0.561339,0.077 -1.100664,0.077 z"
         style="font-size:65%;baseline-shift:sub"
         id="path2769" />
    </g>
    <g
       aria-label="1.333 gO"
       id="text1908-8"
       style="font-size:16.9333px;line-height:1.25;stroke-width:0.264583">
      <path
         d="m -1.2388123,162.71445 q -0.1185331,0 -0.1862663,-0.0677 -0.067733,-0.0677 -0.067733,-0.13547 0,-0.1524 0.2539995,-0.22013 0.64346541,-0.16934 1.04986461,-0.3048 0.4233325,-0.1524 0.6095988,-0.4064 0.2031996,-0.27093 0.2031996,-0.762 v -6.46852 q 0,-0.32173 -0.2031996,-0.49107 -0.2031996,-0.16933 -0.5249323,-0.23706 -0.3217327,-0.0677 -0.6942653,-0.0847 -0.169333,-0.0169 -0.30479941,-0.0847 -0.1354664,-0.0677 -0.1354664,-0.2032 0,-0.11854 0.1185331,-0.2032 0.13546641,-0.0847 0.30479941,-0.1016 0.7619985,-0.11854 1.354664,-0.28787 0.60959879,-0.18627 1.18533099,-0.762 0.016933,-0.0169 0.033867,-0.0169 0.033867,0 0.0508,0 0.084667,0 0.1523997,0.0508 0.067733,0.0339 0.0508,0.1016 -0.033867,0.254 -0.0508,0.5588 -0.016933,0.28786 -0.016933,0.64346 v 7.78932 q 0,0.42333 0.1523997,0.64347 0.169333,0.22013 0.5587989,0.3556 0.3894659,0.11853 1.0837312,0.28786 0.1015998,0.0169 0.1862663,0.0847 0.1015998,0.0508 0.1015998,0.13546 0,0.18627 -0.2370662,0.18627 -0.4741324,0 -0.8805316,-0.0339 -0.3894659,-0.0169 -0.7789318,-0.0339 -0.3725326,-0.0169 -0.8297317,-0.0169 -0.45719909,0 -0.86359829,0.0169 -0.4063992,0.0169 -0.8127984,0.0339 -0.4063992,0.0339 -0.86359831,0.0339 z"
         style="font-family:'EB Garamond';-inkscape-font-specification:'EB Garamond'"
         id="path2778" />
      <path
         d="m 7.0246305,162.90072 q -0.3725326,0 -0.6603987,-0.27094 -0.2709328,-0.28786 -0.2709328,-0.66039 0,-0.38947 0.2709328,-0.6604 0.2878661,-0.27094 0.6603987,-0.27094 0.3894659,0 0.6603987,0.27094 0.2709328,0.27093 0.2709328,0.6604 0,0.37253 -0.2709328,0.66039 -0.2709328,0.27094 -0.6603987,0.27094 z"
         style="font-family:'EB Garamond';-inkscape-font-specification:'EB Garamond'"
         id="path2780" />
      <path
         d="m 11.698214,163.30712 q -0.389466,0 -0.829732,-0.13547 -0.440266,-0.11853 -0.745065,-0.28787 -0.3047996,-0.16933 -0.3047996,-0.3048 0,-0.11853 0.1354664,-0.3048 0.1354662,-0.18626 0.3047992,-0.32173 0.186267,-0.1524 0.3048,-0.1524 0.186266,0 0.338666,0.1016 0.152399,0.1016 0.321732,0.23707 0.220133,0.18626 0.507999,0.3556 0.287866,0.16933 0.761999,0.16933 0.626532,0 1.185331,-0.32173 0.558799,-0.32173 0.914398,-0.88053 0.372533,-0.57574 0.372533,-1.27 0,-0.6604 -0.220133,-1.27 -0.220133,-0.6096 -0.660399,-0.99906 -0.423332,-0.4064 -1.083731,-0.4064 -0.186266,0 -0.507999,0.0508 -0.3048,0.0339 -0.592666,0.2032 -0.08467,0.0508 -0.203199,0 -0.1016,-0.0677 -0.08467,-0.1524 0.06773,-0.22014 0.2032,-0.3556 0.135466,-0.1524 0.304799,-0.22014 0.1524,-0.0677 0.491066,-0.25399 0.338666,-0.2032 0.711199,-0.49107 0.389465,-0.3048 0.660398,-0.67733 0.270933,-0.38947 0.270933,-0.84667 0,-0.69426 -0.457199,-1.21919 -0.440266,-0.54187 -1.134531,-0.54187 -0.660399,0 -1.066798,0.23707 -0.389466,0.22013 -0.626532,0.52493 -0.237066,0.28786 -0.355599,0.52493 -0.118534,0.22013 -0.220133,0.22013 -0.06773,0 -0.169333,-0.1016 -0.1016,-0.1016 -0.1016,-0.22013 0,-0.22013 0.186266,-0.57573 0.186266,-0.37253 0.575732,-0.74507 0.4064,-0.37253 1.015998,-0.62653 0.626532,-0.254 1.490131,-0.254 0.558799,0 1.049864,0.254 0.507999,0.23707 0.829732,0.67733 0.321733,0.42334 0.321733,0.99907 0,0.4064 -0.169333,0.84666 -0.169333,0.44027 -0.558799,0.88053 -0.389466,0.42334 -1.049865,0.8128 -0.0508,0.0169 -0.0508,0.0677 0,0.0339 0.06773,0.0339 0.728131,0 1.303864,0.37254 0.575732,0.35559 0.914398,0.96519 0.355599,0.59267 0.355599,1.3208 0,0.94827 -0.406399,1.71026 -0.406399,0.74507 -1.083731,1.28693 -0.677332,0.52494 -1.523997,0.79587 -0.829732,0.28787 -1.69333,0.28787 z"
         style="font-family:'EB Garamond';-inkscape-font-specification:'EB Garamond'"
         id="path2782" />
      <path
         d="m 19.82619,163.30712 q -0.389466,0 -0.829732,-0.13547 -0.440265,-0.11853 -0.745065,-0.28787 -0.304799,-0.16933 -0.304799,-0.3048 0,-0.11853 0.135466,-0.3048 0.135467,-0.18626 0.3048,-0.32173 0.186266,-0.1524 0.304799,-0.1524 0.186266,0 0.338666,0.1016 0.1524,0.1016 0.321733,0.23707 0.220133,0.18626 0.507999,0.3556 0.287866,0.16933 0.761998,0.16933 0.626532,0 1.185331,-0.32173 0.558799,-0.32173 0.914398,-0.88053 0.372533,-0.57574 0.372533,-1.27 0,-0.6604 -0.220133,-1.27 -0.220133,-0.6096 -0.660399,-0.99906 -0.423332,-0.4064 -1.083731,-0.4064 -0.186266,0 -0.507999,0.0508 -0.304799,0.0339 -0.592665,0.2032 -0.08467,0.0508 -0.2032,0 -0.1016,-0.0677 -0.08467,-0.1524 0.06773,-0.22014 0.203199,-0.3556 0.135467,-0.1524 0.3048,-0.22014 0.152399,-0.0677 0.491065,-0.25399 0.338666,-0.2032 0.711199,-0.49107 0.389466,-0.3048 0.660399,-0.67733 0.270932,-0.38947 0.270932,-0.84667 0,-0.69426 -0.457199,-1.21919 -0.440265,-0.54187 -1.134531,-0.54187 -0.660398,0 -1.066798,0.23707 -0.389466,0.22013 -0.626532,0.52493 -0.237066,0.28786 -0.355599,0.52493 -0.118533,0.22013 -0.220133,0.22013 -0.06773,0 -0.169333,-0.1016 -0.1016,-0.1016 -0.1016,-0.22013 0,-0.22013 0.186267,-0.57573 0.186266,-0.37253 0.575732,-0.74507 0.406399,-0.37253 1.015998,-0.62653 0.626532,-0.254 1.49013,-0.254 0.558799,0 1.049865,0.254 0.507999,0.23707 0.829731,0.67733 0.321733,0.42334 0.321733,0.99907 0,0.4064 -0.169333,0.84666 -0.169333,0.44027 -0.558799,0.88053 -0.389466,0.42334 -1.049864,0.8128 -0.0508,0.0169 -0.0508,0.0677 0,0.0339 0.06773,0.0339 0.728132,0 1.303864,0.37254 0.575732,0.35559 0.914398,0.96519 0.3556,0.59267 0.3556,1.3208 0,0.94827 -0.4064,1.71026 -0.406399,0.74507 -1.083731,1.28693 -0.677332,0.52494 -1.523997,0.79587 -0.829732,0.28787 -1.69333,0.28787 z"
         style="font-family:'EB Garamond';-inkscape-font-specification:'EB Garamond'"
         id="path2784" />
      <path
         d="m 27.954166,163.30712 q -0.389466,0 -0.829732,-0.13547 -0.440266,-0.11853 -0.745065,-0.28787 -0.3048,-0.16933 -0.3048,-0.3048 0,-0.11853 0.135467,-0.3048 0.135466,-0.18626 0.304799,-0.32173 0.186266,-0.1524 0.3048,-0.1524 0.186266,0 0.338666,0.1016 0.152399,0.1016 0.321732,0.23707 0.220133,0.18626 0.507999,0.3556 0.287866,0.16933 0.761999,0.16933 0.626532,0 1.185331,-0.32173 0.558799,-0.32173 0.914398,-0.88053 0.372533,-0.57574 0.372533,-1.27 0,-0.6604 -0.220133,-1.27 -0.220133,-0.6096 -0.660399,-0.99906 -0.423333,-0.4064 -1.083731,-0.4064 -0.186267,0 -0.507999,0.0508 -0.3048,0.0339 -0.592666,0.2032 -0.08467,0.0508 -0.203199,0 -0.1016,-0.0677 -0.08467,-0.1524 0.06773,-0.22014 0.2032,-0.3556 0.135466,-0.1524 0.304799,-0.22014 0.1524,-0.0677 0.491066,-0.25399 0.338666,-0.2032 0.711198,-0.49107 0.389466,-0.3048 0.660399,-0.67733 0.270933,-0.38947 0.270933,-0.84667 0,-0.69426 -0.457199,-1.21919 -0.440266,-0.54187 -1.134531,-0.54187 -0.660399,0 -1.066798,0.23707 -0.389466,0.22013 -0.626532,0.52493 -0.237066,0.28786 -0.3556,0.52493 -0.118533,0.22013 -0.220132,0.22013 -0.06773,0 -0.169333,-0.1016 -0.1016,-0.1016 -0.1016,-0.22013 0,-0.22013 0.186266,-0.57573 0.186266,-0.37253 0.575732,-0.74507 0.406399,-0.37253 1.015998,-0.62653 0.626532,-0.254 1.490131,-0.254 0.558799,0 1.049864,0.254 0.507999,0.23707 0.829732,0.67733 0.321733,0.42334 0.321733,0.99907 0,0.4064 -0.169333,0.84666 -0.169333,0.44027 -0.558799,0.88053 -0.389466,0.42334 -1.049865,0.8128 -0.0508,0.0169 -0.0508,0.0677 0,0.0339 0.06773,0.0339 0.728132,0 1.303865,0.37254 0.575732,0.35559 0.914398,0.96519 0.355599,0.59267 0.355599,1.3208 0,0.94827 -0.406399,1.71026 -0.406399,0.74507 -1.083731,1.28693 -0.677332,0.52494 -1.523997,0.79587 -0.829732,0.28787 -1.69333,0.28787 z"
         style="font-family:'EB Garamond';-inkscape-font-specification:'EB Garamond'"
         id="path2786" />
      <path
         d="m 38.351179,167.57431 q -1.43933,0 -2.285995,-0.5588 -0.829732,-0.54187 -0.829732,-1.4732 0,-0.44026 0.135466,-0.74506 0.135467,-0.3048 0.423333,-0.52494 0.237066,-0.2032 0.626532,-0.52493 0.406399,-0.3048 0.829732,-0.64346 l 0.711198,0.0339 q -0.812798,0.52494 -1.134531,0.99907 -0.321732,0.47413 -0.321732,1.15146 0,0.67733 0.592665,1.13453 0.609599,0.47414 1.49013,0.47414 0.999065,0 1.608664,-0.4572 0.423332,-0.32174 0.660399,-0.84667 0.237066,-0.508 0.237066,-1.08373 0,-0.37253 -0.270933,-0.62653 -0.253999,-0.23707 -0.812798,-0.38947 -0.558799,-0.1524 -1.456264,-0.2032 -1.59173,-0.11853 -2.218262,-0.42333 -0.609599,-0.3048 -0.609599,-0.94826 0,-0.16934 0.08467,-0.3048 0.1016,-0.1524 0.3048,-0.32174 0.389466,-0.3048 0.575732,-0.44026 0.186266,-0.1524 0.270933,-0.254 0.101599,-0.1016 0.186266,-0.254 l 0.575732,0.28786 q -0.372532,0.13547 -0.626532,0.37254 -0.253999,0.22013 -0.253999,0.4064 0,0.23706 0.253999,0.42333 0.254,0.16933 0.745065,0.27093 0.491066,0.1016 1.202265,0.1524 1.557863,0.0847 2.319862,0.508 0.761998,0.42333 0.761998,1.20226 0,0.6604 -0.338666,1.28694 -0.321733,0.64346 -0.863598,1.16839 -0.541866,0.52494 -1.219198,0.82973 -0.660398,0.32174 -1.354664,0.32174 z m 0.2032,-7.29825 q 0.643465,0 1.066798,-0.64347 0.423332,-0.6604 0.423332,-1.6256 0,-0.49106 -0.237066,-0.9144 -0.220133,-0.44026 -0.592665,-0.69426 -0.3556,-0.27093 -0.778932,-0.27093 -0.389466,0 -0.745065,0.28786 -0.338666,0.27094 -0.558799,0.7112 -0.2032,0.44027 -0.2032,0.9652 0,0.59267 0.220133,1.10066 0.220133,0.49107 0.592665,0.79587 0.372533,0.28787 0.812799,0.28787 z m -0.1016,0.59266 q -0.694265,0 -1.320797,-0.3556 -0.626532,-0.3556 -1.032932,-0.93133 -0.389466,-0.59267 -0.389466,-1.28693 0,-0.79587 0.4064,-1.38853 0.423332,-0.6096 1.100664,-0.94827 0.677332,-0.33866 1.439331,-0.33866 0.491065,0 0.846665,0.13546 0.372532,0.11854 0.728132,0.22014 0.406399,0.11853 0.643465,0.1524 0.237066,0.0169 0.491066,0.0169 0.203199,0 0.507999,-0.0169 0.304799,-0.0339 0.423332,-0.0339 0.220133,0 0.220133,0.254 0,0.1524 -0.169333,0.32173 -0.08467,0.0847 -0.135466,0.0847 h -0.457199 q -0.4572,0 -0.507999,0.13547 -0.01693,0.0677 -0.0508,0.20319 -0.01693,0.11854 -0.03387,0.27094 -0.01693,0.1524 -0.01693,0.3048 0,0.8636 -0.372533,1.59173 -0.372532,0.72813 -0.982131,1.16839 -0.609599,0.44027 -1.337731,0.44027 z"
         style="font-family:'EB Garamond';-inkscape-font-specification:'EB Garamond'"
         id="path2788" />
      <path
         d="m 46.564665,166.2044 q -0.726438,0 -1.386837,-0.25315 -0.660399,-0.26416 -1.166704,-0.73744 -0.506306,-0.4843 -0.803485,-1.1447 -0.29718,-0.6714 -0.29718,-1.48589 0,-0.74845 0.242146,-1.43087 0.242147,-0.69341 0.715432,-1.23274 0.473286,-0.53933 1.177711,-0.85852 0.704425,-0.31919 1.617977,-0.31919 0.726438,0 1.386837,0.26416 0.660399,0.25315 1.166704,0.73744 0.506306,0.47329 0.803485,1.14469 0.29718,0.6604 0.29718,1.47489 0,0.73745 -0.242146,1.43087 -0.242147,0.69342 -0.715432,1.23274 -0.473286,0.53933 -1.177711,0.85852 -0.704425,0.31919 -1.617977,0.31919 z m 0.1651,-0.44026 q 0.847511,0 1.40885,-0.35221 0.561339,-0.36322 0.836505,-1.00161 0.286173,-0.64939 0.286173,-1.50791 0,-0.75946 -0.176106,-1.43086 -0.176107,-0.67141 -0.528319,-1.17771 -0.341206,-0.51732 -0.858519,-0.80349 -0.517312,-0.28617 -1.21073,-0.28617 -0.825499,0 -1.386838,0.35221 -0.561338,0.35221 -0.847511,0.9906 -0.286173,0.62738 -0.286173,1.4859 0,0.77046 0.1651,1.44187 0.176106,0.6714 0.517312,1.18871 0.352213,0.51732 0.869525,0.8145 0.517312,0.28617 1.210731,0.28617 z"
         style="font-size:65%;baseline-shift:sub"
         id="path2790" />
    </g>
    <g
       aria-label="2.666 gO"
       id="text1908-8-4"
       style="font-size:16.9333px;line-height:1.25;stroke-width:0.264583">
      <path
         d="m 145.9842,162.75508 q -0.11854,0 -0.37253,-0.0169 -0.254,-0.0169 -0.57574,-0.0339 -0.32173,-0.0169 -0.67733,-0.0339 -0.33867,-0.0169 -0.6604,-0.0169 -0.32173,0 -0.9144,0.0169 -0.59266,0.0169 -1.25306,0.0339 -0.64347,0 -1.13453,0.0169 -0.49107,0.0169 -0.62653,0.0169 -0.0677,0 -0.2032,-0.1016 -0.13547,-0.11853 -0.13547,-0.18626 0,-0.0847 0.0339,-0.11854 0.0339,-0.0339 0.1016,-0.1016 l 2.89559,-2.99719 q 0.84667,-0.88053 1.40547,-1.96426 0.55879,-1.10067 0.55879,-2.21827 0,-0.89746 -0.54186,-1.40546 -0.54187,-0.52493 -1.27,-0.52493 -0.69426,0 -1.28693,0.38946 -0.59267,0.37254 -0.94826,0.98213 -0.0508,0.1016 -0.13547,0.16934 -0.0677,0.0677 -0.1524,0.0677 -0.0677,0 -0.16933,-0.13547 -0.0847,-0.1524 -0.0847,-0.37253 0,-0.2032 0.23707,-0.5588 0.254,-0.3556 0.69426,-0.72813 0.44027,-0.37253 1.04987,-0.62653 0.60959,-0.27093 1.32079,-0.27093 0.84667,0 1.45627,0.35559 0.6096,0.3556 0.93133,0.98214 0.32173,0.62653 0.32173,1.45626 0,0.4572 -0.16933,0.98213 -0.1524,0.52493 -0.44027,1.03293 -0.27093,0.508 -0.62653,0.94827 -0.22013,0.27093 -0.6604,0.72813 -0.42333,0.44027 -0.93133,0.94826 -0.49107,0.508 -0.94826,0.9652 -0.44027,0.44027 -0.72814,0.74507 -0.28786,0.28786 -0.28786,0.32173 0,0.0847 0.23706,0.11853 0.28787,0.0169 0.64347,0.0339 0.37253,0.0169 0.84666,0.0169 0.49107,0 0.98214,-0.0169 0.49106,-0.0169 0.94826,-0.0339 0.49107,-0.0339 0.762,-0.0847 0.27093,-0.0508 0.4572,-0.2032 0.18626,-0.16934 0.38946,-0.508 0.0677,-0.1016 0.16934,-0.23707 0.11853,-0.1524 0.254,-0.1524 0.0847,0 0.1016,0.0677 0.0169,0.0677 0.0169,0.13546 0,0.0847 -0.1016,0.33867 -0.0847,0.23706 -0.2032,0.59266 -0.11853,0.3556 -0.2032,0.77894 -0.0508,0.27093 -0.16933,0.33866 -0.11854,0.0677 -0.2032,0.0677 z"
         style="font-family:'EB Garamond';-inkscape-font-specification:'EB Garamond'"
         id="path2793" />
      <path
         d="m 148.96445,162.94135 q -0.37253,0 -0.6604,-0.27093 -0.27093,-0.28787 -0.27093,-0.6604 0,-0.38947 0.27093,-0.6604 0.28787,-0.27093 0.6604,-0.27093 0.38947,0 0.6604,0.27093 0.27093,0.27093 0.27093,0.6604 0,0.37253 -0.27093,0.6604 -0.27093,0.27093 -0.6604,0.27093 z"
         style="font-family:'EB Garamond';-inkscape-font-specification:'EB Garamond'"
         id="path2795" />
      <path
         d="m 155.17896,162.97522 q -0.86359,0 -1.65946,-0.38947 -0.79586,-0.38946 -1.30386,-1.1684 -0.508,-0.79586 -0.508,-1.98119 0,-0.94827 0.22013,-1.7272 0.22013,-0.77893 0.5588,-1.3716 0.33867,-0.60959 0.67733,-1.03293 0.3556,-0.44026 0.59267,-0.67733 0.42333,-0.44027 1.08373,-0.98213 0.6604,-0.54187 1.524,-1.03293 0.88053,-0.49107 1.91346,-0.762 0.1524,-0.0339 0.23706,0.0169 0.1016,0.0508 0.0677,0.1016 -0.0677,0.1524 -0.22014,0.23707 -0.13546,0.0677 -0.22013,0.1016 -1.13453,0.49106 -1.96426,1.1176 -0.8128,0.62653 -1.45626,1.55786 -0.27094,0.4064 -0.64347,1.1176 -0.37253,0.69426 -0.64347,1.55786 -0.27093,0.8636 -0.27093,1.74413 0.0169,0.93133 0.38947,1.59173 0.37253,0.64347 0.9144,0.98213 0.55879,0.33867 1.11759,0.3556 0.69427,0.0169 1.2192,-0.47413 0.52493,-0.508 0.52493,-1.55786 0,-0.52494 -0.2032,-0.9652 -0.18626,-0.4572 -0.54186,-0.74507 -0.33867,-0.28786 -0.79587,-0.28786 -0.44026,0 -0.762,0.0508 -0.30479,0.0508 -0.59266,0.2032 -0.1524,0.0677 -0.18627,0 -0.0169,-0.0847 0.0677,-0.18627 0.13546,-0.13547 0.22013,-0.22013 0.1016,-0.0847 0.23707,-0.18627 0.18626,-0.13547 0.67733,-0.33867 0.508,-0.22013 0.98213,-0.22013 0.59266,0 1.08373,0.27093 0.508,0.27094 0.8128,0.74507 0.32173,0.4572 0.32173,1.0668 0,0.79586 -0.3048,1.43933 -0.3048,0.64346 -0.8128,1.10066 -0.508,0.4572 -1.13453,0.69427 -0.6096,0.254 -1.2192,0.254 z"
         style="font-family:'EB Garamond';-inkscape-font-specification:'EB Garamond'"
         id="path2797" />
      <path
         d="m 163.30694,162.97522 q -0.8636,0 -1.65946,-0.38947 -0.79587,-0.38946 -1.30387,-1.1684 -0.508,-0.79586 -0.508,-1.98119 0,-0.94827 0.22014,-1.7272 0.22013,-0.77893 0.5588,-1.3716 0.33866,-0.60959 0.67733,-1.03293 0.3556,-0.44026 0.59266,-0.67733 0.42334,-0.44027 1.08373,-0.98213 0.6604,-0.54187 1.524,-1.03293 0.88053,-0.49107 1.91346,-0.762 0.1524,-0.0339 0.23707,0.0169 0.1016,0.0508 0.0677,0.1016 -0.0677,0.1524 -0.22013,0.23707 -0.13547,0.0677 -0.22013,0.1016 -1.13453,0.49106 -1.96426,1.1176 -0.8128,0.62653 -1.45627,1.55786 -0.27093,0.4064 -0.64346,1.1176 -0.37254,0.69426 -0.64347,1.55786 -0.27093,0.8636 -0.27093,1.74413 0.0169,0.93133 0.38946,1.59173 0.37254,0.64347 0.9144,0.98213 0.5588,0.33867 1.1176,0.3556 0.69427,0.0169 1.2192,-0.47413 0.52493,-0.508 0.52493,-1.55786 0,-0.52494 -0.2032,-0.9652 -0.18627,-0.4572 -0.54187,-0.74507 -0.33866,-0.28786 -0.79586,-0.28786 -0.44027,0 -0.762,0.0508 -0.3048,0.0508 -0.59266,0.2032 -0.1524,0.0677 -0.18627,0 -0.0169,-0.0847 0.0677,-0.18627 0.13547,-0.13547 0.22014,-0.22013 0.1016,-0.0847 0.23706,-0.18627 0.18627,-0.13547 0.67733,-0.33867 0.508,-0.22013 0.98213,-0.22013 0.59267,0 1.08374,0.27093 0.508,0.27094 0.81279,0.74507 0.32174,0.4572 0.32174,1.0668 0,0.79586 -0.3048,1.43933 -0.3048,0.64346 -0.8128,1.10066 -0.508,0.4572 -1.13453,0.69427 -0.6096,0.254 -1.2192,0.254 z"
         style="font-family:'EB Garamond';-inkscape-font-specification:'EB Garamond'"
         id="path2799" />
      <path
         d="m 171.43492,162.97522 q -0.8636,0 -1.65947,-0.38947 -0.79586,-0.38946 -1.30386,-1.1684 -0.508,-0.79586 -0.508,-1.98119 0,-0.94827 0.22013,-1.7272 0.22014,-0.77893 0.5588,-1.3716 0.33867,-0.60959 0.67733,-1.03293 0.3556,-0.44026 0.59267,-0.67733 0.42333,-0.44027 1.08373,-0.98213 0.6604,-0.54187 1.524,-1.03293 0.88053,-0.49107 1.91346,-0.762 0.1524,-0.0339 0.23707,0.0169 0.1016,0.0508 0.0677,0.1016 -0.0677,0.1524 -0.22013,0.23707 -0.13547,0.0677 -0.22014,0.1016 -1.13453,0.49106 -1.96426,1.1176 -0.8128,0.62653 -1.45626,1.55786 -0.27094,0.4064 -0.64347,1.1176 -0.37253,0.69426 -0.64346,1.55786 -0.27094,0.8636 -0.27094,1.74413 0.0169,0.93133 0.38947,1.59173 0.37253,0.64347 0.9144,0.98213 0.5588,0.33867 1.1176,0.3556 0.69426,0.0169 1.21919,-0.47413 0.52494,-0.508 0.52494,-1.55786 0,-0.52494 -0.2032,-0.9652 -0.18627,-0.4572 -0.54187,-0.74507 -0.33867,-0.28786 -0.79586,-0.28786 -0.44027,0 -0.762,0.0508 -0.3048,0.0508 -0.59267,0.2032 -0.1524,0.0677 -0.18627,0 -0.0169,-0.0847 0.0677,-0.18627 0.13546,-0.13547 0.22013,-0.22013 0.1016,-0.0847 0.23707,-0.18627 0.18626,-0.13547 0.67733,-0.33867 0.508,-0.22013 0.98213,-0.22013 0.59267,0 1.08373,0.27093 0.508,0.27094 0.8128,0.74507 0.32173,0.4572 0.32173,1.0668 0,0.79586 -0.3048,1.43933 -0.3048,0.64346 -0.8128,1.10066 -0.50799,0.4572 -1.13453,0.69427 -0.60959,0.254 -1.21919,0.254 z"
         style="font-family:'EB Garamond';-inkscape-font-specification:'EB Garamond'"
         id="path2801" />
      <path
         d="m 180.291,167.61494 q -1.43933,0 -2.286,-0.5588 -0.82973,-0.54186 -0.82973,-1.47319 0,-0.44027 0.13547,-0.74507 0.13547,-0.3048 0.42333,-0.52493 0.23707,-0.2032 0.62653,-0.52493 0.4064,-0.3048 0.82974,-0.64347 l 0.71119,0.0339 q -0.81279,0.52493 -1.13453,0.99906 -0.32173,0.47413 -0.32173,1.15147 0,0.67733 0.59267,1.13453 0.60959,0.47413 1.49013,0.47413 0.99906,0 1.60866,-0.4572 0.42333,-0.32173 0.6604,-0.84666 0.23706,-0.508 0.23706,-1.08374 0,-0.37253 -0.27093,-0.62653 -0.254,-0.23706 -0.8128,-0.38946 -0.5588,-0.1524 -1.45626,-0.2032 -1.59173,-0.11854 -2.21826,-0.42334 -0.6096,-0.3048 -0.6096,-0.94826 0,-0.16933 0.0847,-0.3048 0.1016,-0.1524 0.3048,-0.32173 0.38947,-0.3048 0.57574,-0.44027 0.18626,-0.1524 0.27093,-0.254 0.1016,-0.1016 0.18627,-0.254 l 0.57573,0.28787 q -0.37254,0.13547 -0.62653,0.37253 -0.254,0.22013 -0.254,0.4064 0,0.23707 0.254,0.42333 0.25399,0.16934 0.74506,0.27094 0.49107,0.1016 1.20226,0.1524 1.55787,0.0847 2.31987,0.50799 0.762,0.42334 0.762,1.20227 0,0.6604 -0.33867,1.28693 -0.32173,0.64346 -0.8636,1.1684 -0.54186,0.52493 -1.2192,0.82973 -0.6604,0.32173 -1.35466,0.32173 z m 0.2032,-7.29825 q 0.64346,0 1.0668,-0.64347 0.42333,-0.66039 0.42333,-1.62559 0,-0.49107 -0.23707,-0.9144 -0.22013,-0.44027 -0.59266,-0.69427 -0.3556,-0.27093 -0.77893,-0.27093 -0.38947,0 -0.74507,0.28787 -0.33867,0.27093 -0.5588,0.7112 -0.2032,0.44026 -0.2032,0.96519 0,0.59267 0.22014,1.10067 0.22013,0.49106 0.59266,0.79586 0.37253,0.28787 0.8128,0.28787 z m -0.1016,0.59266 q -0.69427,0 -1.3208,-0.35559 -0.62653,-0.3556 -1.03293,-0.93134 -0.38947,-0.59266 -0.38947,-1.28693 0,-0.79586 0.4064,-1.38853 0.42334,-0.6096 1.10067,-0.94826 0.67733,-0.33867 1.43933,-0.33867 0.49106,0 0.84666,0.13547 0.37254,0.11853 0.72814,0.22013 0.4064,0.11853 0.64346,0.1524 0.23707,0.0169 0.49107,0.0169 0.2032,0 0.508,-0.0169 0.3048,-0.0339 0.42333,-0.0339 0.22013,0 0.22013,0.254 0,0.1524 -0.16933,0.32174 -0.0847,0.0847 -0.13547,0.0847 h -0.4572 q -0.4572,0 -0.508,0.13547 -0.0169,0.0677 -0.0508,0.2032 -0.0169,0.11853 -0.0339,0.27093 -0.0169,0.1524 -0.0169,0.3048 0,0.8636 -0.37253,1.59173 -0.37253,0.72813 -0.98213,1.1684 -0.6096,0.44026 -1.33773,0.44026 z"
         style="font-family:'EB Garamond';-inkscape-font-specification:'EB Garamond'"
         id="path2803" />
      <path
         d="m 188.50449,166.24504 q -0.72644,0 -1.38684,-0.25316 -0.6604,-0.26415 -1.16671,-0.73744 -0.5063,-0.48429 -0.80348,-1.14469 -0.29718,-0.67141 -0.29718,-1.4859 0,-0.74845 0.24215,-1.43086 0.24214,-0.69342 0.71543,-1.23275 0.47328,-0.53932 1.17771,-0.85851 0.70442,-0.3192 1.61798,-0.3192 0.72643,0 1.38683,0.26416 0.6604,0.25316 1.16671,0.73745 0.5063,0.47328 0.80348,1.14469 0.29718,0.6604 0.29718,1.47489 0,0.73744 -0.24215,1.43086 -0.24214,0.69342 -0.71543,1.23275 -0.47328,0.53932 -1.17771,0.85852 -0.70442,0.31919 -1.61797,0.31919 z m 0.1651,-0.44027 q 0.84751,0 1.40885,-0.35221 0.56133,-0.36322 0.8365,-1.00161 0.28617,-0.64939 0.28617,-1.50791 0,-0.75945 -0.1761,-1.43086 -0.17611,-0.6714 -0.52832,-1.17771 -0.34121,-0.51731 -0.85852,-0.80349 -0.51731,-0.28617 -1.21073,-0.28617 -0.8255,0 -1.38684,0.35221 -0.56134,0.35222 -0.84751,0.9906 -0.28617,0.62738 -0.28617,1.4859 0,0.77046 0.1651,1.44187 0.1761,0.67141 0.51731,1.18872 0.35221,0.51731 0.86952,0.81449 0.51732,0.28617 1.21074,0.28617 z"
         style="font-size:65%;baseline-shift:sub"
         id="path2805" />
    </g>
    <g
       aria-label="+"
       id="text1966"
       style="font-size:16.9333px;line-height:1.25;stroke-width:0.264583">
      <path
         d="m 58.0171,114.72898 q -0.06773,0 -0.135467,-0.0847 -0.06773,-0.0677 -0.06773,-0.1524 v -3.57292 q 0,-0.0847 -0.06773,-0.0847 H 54.32564 q -0.08467,0 -0.169333,-0.0677 -0.06773,-0.0677 -0.06773,-0.13547 0,-0.0847 0.03387,-0.23706 0.0508,-0.1524 0.135466,-0.27094 0.08467,-0.13546 0.237066,-0.13546 h 3.200394 q 0.08467,0 0.1016,-0.0339 0.01693,-0.0339 0.01693,-0.1016 v -2.89559 q 0,-0.18627 0.169333,-0.3048 0.169333,-0.11854 0.355599,-0.16934 0.2032,-0.0508 0.254,-0.0508 0.08467,0 0.1524,0.0677 0.08467,0.0677 0.08467,0.1524 v 3.23426 q 0,0.1016 0.03387,0.1016 h 3.471326 q 0.08467,0 0.1524,0.0508 0.06773,0.0339 0.06773,0.11853 0,0.22013 -0.1524,0.4572 -0.135466,0.22013 -0.372532,0.22013 h -3.132661 q -0.06773,0 -0.06773,0.0677 v 3.42053 q 0,0.16933 -0.169333,0.27093 -0.169333,0.0847 -0.372533,0.1016 -0.186266,0.0339 -0.270932,0.0339 z"
         style="font-family:'EB Garamond';-inkscape-font-specification:'EB Garamond'"
         id="path2772" />
    </g>
    <g
       aria-label="+"
       id="text1966-3"
       style="font-size:16.9333px;line-height:1.25;stroke-width:0.264583">
      <path
         d="m 114.64131,114.72898 q -0.0677,0 -0.13547,-0.0847 -0.0677,-0.0677 -0.0677,-0.1524 v -3.57292 q 0,-0.0847 -0.0677,-0.0847 h -3.42053 q -0.0847,0 -0.16933,-0.0677 -0.0677,-0.0677 -0.0677,-0.13547 0,-0.0847 0.0339,-0.23706 0.0508,-0.1524 0.13547,-0.27094 0.0847,-0.13546 0.23706,-0.13546 h 3.2004 q 0.0847,0 0.1016,-0.0339 0.0169,-0.0339 0.0169,-0.1016 v -2.89559 q 0,-0.18627 0.16933,-0.3048 0.16934,-0.11854 0.3556,-0.16934 0.2032,-0.0508 0.254,-0.0508 0.0847,0 0.1524,0.0677 0.0847,0.0677 0.0847,0.1524 v 3.23426 q 0,0.1016 0.0339,0.1016 h 3.47133 q 0.0847,0 0.1524,0.0508 0.0677,0.0339 0.0677,0.11853 0,0.22013 -0.1524,0.4572 -0.13546,0.22013 -0.37253,0.22013 h -3.13266 q -0.0677,0 -0.0677,0.0677 v 3.42053 q 0,0.16933 -0.16933,0.27093 -0.16934,0.0847 -0.37254,0.1016 -0.18626,0.0339 -0.27093,0.0339 z"
         style="font-family:'EB Garamond';-inkscape-font-specification:'EB Garamond'"
         id="path2775" />
    </g>
    <path
       style="fill:none;stroke:#000000;stroke-width:1;stroke-linecap:butt;stroke-linejoin:miter;stroke-dasharray:none;stroke-opacity:1;marker-start:url(#marker2536);marker-mid:url(#TriangleStart)"
       d="M 24.41256,206.64954 V 171.39"
       id="path2450" />
    <path
       style="fill:none;stroke:#000000;stroke-width:1;stroke-linecap:butt;stroke-linejoin:miter;stroke-dasharray:none;stroke-opacity:1;marker-start:url(#marker2536-0);marker-mid:url(#TriangleStart-9)"
       d="M 165.84438,206.64954 V 171.39"
       id="path2450-6" />
    <g
       aria-label="CO"
       id="text2734"
       style="font-size:16.9333px;line-height:1.25;stroke-width:0.264583">
      <path
         d="m 18.824579,271.98523 q -1.185331,0 -2.285995,-0.4064 -1.100665,-0.4064 -1.964263,-1.15146 -0.863599,-0.762 -1.371598,-1.81187 -0.491065,-1.06679 -0.491065,-2.35372 0,-1.23614 0.524932,-2.286 0.524932,-1.04986 1.439331,-1.8288 0.914398,-0.77893 2.082795,-1.20226 1.185331,-0.44027 2.489196,-0.44027 0.660398,0 1.117597,0.0508 0.457199,0.0508 0.880532,0.1524 0.440266,0.0847 1.015998,0.23707 0.253999,0.0677 0.355599,0.2032 0.118533,0.13547 0.135467,0.37253 0.03387,0.38947 0.08467,0.84667 0.0508,0.44026 0.06773,1.10066 0.01693,0.11853 -0.118533,0.2032 -0.118533,0.0677 -0.270933,0.0339 -0.135466,-0.0339 -0.186266,-0.22014 -0.169333,-0.64346 -0.389466,-1.10066 -0.220133,-0.47413 -0.660398,-0.77893 -0.423333,-0.28787 -1.032932,-0.42333 -0.592665,-0.1524 -1.286931,-0.1524 -0.982131,0 -1.828796,0.4064 -0.829732,0.38946 -1.43933,1.08373 -0.592666,0.67733 -0.931332,1.54093 -0.338666,0.8636 -0.338666,1.79493 0,1.03293 0.321733,2.03199 0.338666,0.99907 0.948265,1.81187 0.626532,0.79586 1.473197,1.28693 0.863598,0.47413 1.913463,0.47413 1.219197,0 2.015062,-0.5588 0.795865,-0.5588 1.354664,-1.55786 0.118533,-0.22014 0.338666,-0.22014 0.237066,0 0.237066,0.27094 0,0.13546 -0.06773,0.44026 -0.06773,0.28787 -0.186266,0.62653 -0.1016,0.32174 -0.2032,0.57574 -0.118533,0.23706 -0.203199,0.3048 -0.06773,0.0677 -0.338666,0.1524 -0.626532,0.25399 -1.507064,0.37253 -0.863598,0.11853 -1.69333,0.11853 z"
         style="font-family:'EB Garamond';-inkscape-font-specification:'EB Garamond'"
         id="path2815" />
      <path
         d="m 30.339208,271.9683 q -1.117598,0 -2.133596,-0.38947 -1.015998,-0.4064 -1.79493,-1.13453 -0.778932,-0.74506 -1.236131,-1.76106 -0.457199,-1.03293 -0.457199,-2.286 0,-1.15146 0.372533,-2.20133 0.372532,-1.06679 1.100664,-1.89653 0.728132,-0.82973 1.811863,-1.32079 1.083732,-0.49107 2.489196,-0.49107 1.117597,0 2.133595,0.4064 1.015998,0.38947 1.79493,1.13453 0.778932,0.72813 1.236131,1.76106 0.457199,1.016 0.457199,2.26907 0,1.13453 -0.372532,2.20133 -0.372533,1.06679 -1.100665,1.89652 -0.728132,0.82974 -1.811863,1.3208 -1.083731,0.49107 -2.489195,0.49107 z m 0.253999,-0.67733 q 1.303864,0 2.167463,-0.54187 0.863598,-0.5588 1.286931,-1.54093 0.440265,-0.99906 0.440265,-2.31986 0,-1.1684 -0.270932,-2.20133 -0.270933,-1.03293 -0.812799,-1.81186 -0.524932,-0.79587 -1.320797,-1.23614 -0.795865,-0.44026 -1.862663,-0.44026 -1.269998,0 -2.133596,0.54186 -0.863598,0.54187 -1.303864,1.524 -0.440266,0.9652 -0.440266,2.286 0,1.18533 0.254,2.21826 0.270932,1.03293 0.795865,1.8288 0.541865,0.79586 1.33773,1.25306 0.795865,0.44027 1.862663,0.44027 z"
         style="font-family:'EB Garamond';-inkscape-font-specification:'EB Garamond'"
         id="path2817" />
    </g>
    <g
       aria-label="CO2"
       id="text2734-5"
       style="font-size:16.9333px;line-height:1.25;stroke-width:0.264583">
      <path
         d="m 157.28335,270.40238 q -1.18533,0 -2.286,-0.4064 -1.10066,-0.4064 -1.96426,-1.15147 -0.8636,-0.762 -1.3716,-1.81186 -0.49106,-1.0668 -0.49106,-2.35373 0,-1.23613 0.52493,-2.28599 0.52493,-1.04987 1.43933,-1.8288 0.9144,-0.77893 2.0828,-1.20227 1.18533,-0.44026 2.48919,-0.44026 0.6604,0 1.1176,0.0508 0.4572,0.0508 0.88053,0.1524 0.44027,0.0847 1.016,0.23706 0.254,0.0677 0.3556,0.2032 0.11853,0.13547 0.13546,0.37254 0.0339,0.38946 0.0847,0.84666 0.0508,0.44027 0.0677,1.10067 0.0169,0.11853 -0.11853,0.2032 -0.11853,0.0677 -0.27093,0.0339 -0.13547,-0.0339 -0.18627,-0.22013 -0.16933,-0.64347 -0.38946,-1.10067 -0.22014,-0.47413 -0.6604,-0.77893 -0.42334,-0.28786 -1.03293,-0.42333 -0.59267,-0.1524 -1.28694,-0.1524 -0.98213,0 -1.82879,0.4064 -0.82973,0.38947 -1.43933,1.08373 -0.59267,0.67733 -0.93133,1.54093 -0.33867,0.8636 -0.33867,1.79493 0,1.03293 0.32173,2.032 0.33867,0.99906 0.94827,1.81186 0.62653,0.79587 1.47319,1.28693 0.8636,0.47413 1.91347,0.47413 1.21919,0 2.01506,-0.5588 0.79587,-0.55879 1.35466,-1.55786 0.11854,-0.22013 0.33867,-0.22013 0.23707,0 0.23707,0.27093 0,0.13547 -0.0677,0.44027 -0.0677,0.28786 -0.18626,0.62653 -0.1016,0.32173 -0.2032,0.57573 -0.11854,0.23707 -0.2032,0.3048 -0.0677,0.0677 -0.33867,0.1524 -0.62653,0.254 -1.50706,0.37253 -0.8636,0.11854 -1.69333,0.11854 z"
         style="font-family:'EB Garamond';-inkscape-font-specification:'EB Garamond'"
         id="path2808" />
      <path
         d="m 168.79798,270.38544 q -1.1176,0 -2.1336,-0.38946 -1.016,-0.4064 -1.79493,-1.13453 -0.77893,-0.74507 -1.23613,-1.76107 -0.4572,-1.03293 -0.4572,-2.28599 0,-1.15147 0.37253,-2.20133 0.37254,-1.0668 1.10067,-1.89653 0.72813,-0.82973 1.81186,-1.3208 1.08373,-0.49106 2.4892,-0.49106 1.11759,0 2.13359,0.40639 1.016,0.38947 1.79493,1.13454 0.77893,0.72813 1.23613,1.76106 0.4572,1.016 0.4572,2.26906 0,1.13453 -0.37253,2.20133 -0.37253,1.0668 -1.10067,1.89653 -0.72813,0.82973 -1.81186,1.3208 -1.08373,0.49106 -2.48919,0.49106 z m 0.254,-0.67733 q 1.30386,0 2.16746,-0.54186 0.8636,-0.5588 1.28693,-1.54094 0.44027,-0.99906 0.44027,-2.31986 0,-1.1684 -0.27094,-2.20133 -0.27093,-1.03293 -0.8128,-1.81186 -0.52493,-0.79586 -1.32079,-1.23613 -0.79587,-0.44027 -1.86267,-0.44027 -1.26999,0 -2.13359,0.54187 -0.8636,0.54187 -1.30387,1.524 -0.44026,0.96519 -0.44026,2.28599 0,1.18533 0.254,2.21826 0.27093,1.03294 0.79586,1.8288 0.54187,0.79587 1.33773,1.25306 0.79587,0.44027 1.86267,0.44027 z"
         style="font-family:'EB Garamond';-inkscape-font-specification:'EB Garamond'"
         id="path2810" />
      <path
         d="m 179.94599,273.56806 q -0.077,0 -0.24215,-0.011 -0.1651,-0.011 -0.37422,-0.022 -0.20913,-0.011 -0.44027,-0.022 -0.22013,-0.011 -0.42926,-0.011 -0.20912,0 -0.59436,0.011 -0.38523,0.011 -0.81449,0.022 -0.41825,0 -0.73744,0.011 -0.3192,0.011 -0.40725,0.011 -0.044,0 -0.13208,-0.066 -0.0881,-0.0771 -0.0881,-0.12107 0,-0.055 0.022,-0.077 0.022,-0.022 0.066,-0.066 l 1.88214,-1.94818 q 0.55033,-0.57234 0.91355,-1.27677 0.36322,-0.71543 0.36322,-1.44187 0,-0.58335 -0.35221,-0.91355 -0.35222,-0.3412 -0.8255,-0.3412 -0.45128,0 -0.83651,0.25315 -0.38523,0.24214 -0.61637,0.63838 -0.033,0.066 -0.088,0.11007 -0.044,0.044 -0.0991,0.044 -0.044,0 -0.11007,-0.0881 -0.055,-0.0991 -0.055,-0.24214 0,-0.13208 0.15409,-0.36322 0.1651,-0.23114 0.45127,-0.47329 0.28618,-0.24214 0.68242,-0.40724 0.39623,-0.17611 0.85851,-0.17611 0.55034,0 0.94657,0.23114 0.39624,0.23114 0.60537,0.63839 0.20913,0.40724 0.20913,0.94657 0,0.29718 -0.11007,0.63838 -0.0991,0.34121 -0.28617,0.67141 -0.17611,0.3302 -0.40725,0.61637 -0.14308,0.17611 -0.42926,0.47329 -0.27516,0.28617 -0.60536,0.61637 -0.3192,0.3302 -0.61638,0.62738 -0.28617,0.28617 -0.47328,0.48429 -0.18711,0.18711 -0.18711,0.20912 0,0.055 0.15409,0.077 0.18711,0.011 0.41825,0.022 0.24215,0.011 0.55033,0.011 0.3192,0 0.63839,-0.011 0.31919,-0.011 0.61637,-0.022 0.31919,-0.022 0.4953,-0.055 0.17611,-0.033 0.29718,-0.13208 0.12107,-0.11007 0.25315,-0.3302 0.044,-0.066 0.11007,-0.15409 0.077,-0.0991 0.1651,-0.0991 0.055,0 0.066,0.044 0.011,0.044 0.011,0.0881 0,0.055 -0.066,0.22013 -0.055,0.15409 -0.13208,0.38523 -0.0771,0.23114 -0.13208,0.50631 -0.033,0.1761 -0.11007,0.22013 -0.077,0.044 -0.13208,0.044 z"
         style="font-size:65%;baseline-shift:sub"
         id="path2812" />
    </g>
  </g>
</svg>
