<?xml version="1.0" encoding="UTF-8" standalone="no"?>
<!-- Created with Inkscape (http://www.inkscape.org/) -->

<svg
   xmlns:dc="http://purl.org/dc/elements/1.1/"
   xmlns:cc="http://creativecommons.org/ns#"
   xmlns:rdf="http://www.w3.org/1999/02/22-rdf-syntax-ns#"
   xmlns:svg="http://www.w3.org/2000/svg"
   xmlns="http://www.w3.org/2000/svg"
   xmlns:sodipodi="http://sodipodi.sourceforge.net/DTD/sodipodi-0.dtd"
   xmlns:inkscape="http://www.inkscape.org/namespaces/inkscape"
   id="svg4145"
   version="1.1"
   inkscape:version="0.91 r13725"
   width="600"
   height="664.97833"
   viewBox="0 0 600 664.97833"
   sodipodi:docname="Electromagnet.svg">
  <metadata
     id="metadata4151">
    <rdf:RDF>
      <cc:Work
         rdf:about="">
        <dc:format>image/svg+xml</dc:format>
        <dc:type
           rdf:resource="http://purl.org/dc/dcmitype/StillImage" />
        <dc:title></dc:title>
      </cc:Work>
    </rdf:RDF>
  </metadata>
  <defs
     id="defs4149" />
  <sodipodi:namedview
     pagecolor="#ffffff"
     bordercolor="#666666"
     borderopacity="1"
     objecttolerance="10"
     gridtolerance="10"
     guidetolerance="10"
     inkscape:pageopacity="0"
     inkscape:pageshadow="2"
     inkscape:window-width="1600"
     inkscape:window-height="837"
     id="namedview4147"
     showgrid="false"
     fit-margin-top="0"
     fit-margin-left="0"
     fit-margin-right="0"
     fit-margin-bottom="0"
     inkscape:zoom="1.0075516"
     inkscape:cx="300"
     inkscape:cy="332.48917"
     inkscape:window-x="-8"
     inkscape:window-y="-8"
     inkscape:window-maximized="1"
     inkscape:current-layer="svg4145" />
  <path
     style="fill:#000000"
     d="m 416.99438,664.50528 c -1.45736,-0.33891 -4.28928,-1.15741 -6.29315,-1.81899 -2.00388,-0.66157 -4.53471,-1.39786 -5.62408,-1.63618 -1.08938,-0.23833 -2.13271,-0.65148 -2.31853,-0.91812 -0.18582,-0.26665 -2.35001,-1.48628 -4.80931,-2.7103 -2.45929,-1.22402 -4.50255,-2.54724 -4.54057,-2.94047 -0.038,-0.39324 -0.13857,-1.81839 -0.22347,-3.16701 -0.0849,-1.34863 -0.51052,-2.88121 -0.94584,-3.40574 -0.43531,-0.52453 -0.77702,-2.10398 -0.75933,-3.50989 0.0177,-1.40592 -0.0473,-7.4748 -0.1443,-13.48642 l -0.17647,-10.93021 -3.31219,-0.89027 c -1.8217,-0.48965 -5.05334,-1.15992 -7.18141,-1.48948 -6.4931,-1.00557 -18.53583,-4.88594 -20.77754,-6.69488 -0.43946,-0.35462 -1.11562,-0.44911 -1.50256,-0.20996 -0.87066,0.5381 -4.88339,-1.87978 -6.47251,-3.90002 -0.64779,-0.82353 -1.99411,-1.70221 -2.99183,-1.95262 -0.99772,-0.25041 -1.81403,-0.74397 -1.81403,-1.09679 0,-0.35283 -1.11787,-1.36282 -2.48415,-2.24443 -6.09968,-3.93589 -13.08067,-11.77106 -13.93232,-15.63707 -1.17449,-5.33146 -1.80992,-17.00334 -0.98162,-18.03079 0.37629,-0.46677 0.88798,-1.80221 1.13706,-2.96766 0.45034,-2.10699 0.97196,-2.76642 8.72134,-11.0253 5.8712,-6.25722 13.95049,-10.39382 23.39188,-11.97666 l 4.25954,-0.7141 0.7919,-3.53291 c 0.43555,-1.9431 1.15348,-4.20852 1.59543,-5.03428 0.56578,-1.05718 0.61737,-2.17556 0.17437,-3.77995 -0.36364,-1.31701 -0.40429,-3.93537 -0.0963,-6.2047 0.317,-2.33606 0.27979,-4.23098 -0.0919,-4.67882 -1.31345,-1.58262 -1.5131,-8.6732 -0.34479,-12.24512 1.05372,-3.22155 1.05395,-3.57578 0.004,-5.78872 -0.91609,-1.93052 -1.03369,-3.38535 -0.64967,-8.03749 0.2579,-3.12416 0.45923,-6.42554 0.44739,-7.33639 -0.13216,-10.17661 -0.0216,-13.57374 0.45758,-14.05286 0.31386,-0.31386 0.0341,-2.10774 -0.62708,-4.02148 -1.44768,-4.18996 -1.49261,-6.11464 -0.27669,-11.85165 0.87436,-4.12553 0.84781,-4.65749 -0.3959,-7.93066 -1.52752,-4.0201 -1.29214,-7.46874 0.78827,-11.54935 1.5868,-3.11241 1.60626,-3.82624 0.16427,-6.02698 -1.94193,-2.96376 -2.05491,-13.31649 -0.1817,-16.64941 1.28186,-2.28075 1.38419,-2.94507 0.73881,-4.79639 -1.07338,-3.07909 -0.92362,-8.304 0.30619,-10.68218 0.97219,-1.87999 0.96616,-2.23849 -0.0764,-4.55056 -1.47178,-3.26382 -1.44273,-8.65897 0.0646,-12.00168 0.95144,-2.10991 1.03459,-2.87879 0.40607,-3.75541 -1.91659,-2.67322 -2.23273,-4.39995 -1.56066,-8.52423 0.51604,-3.16685 0.45556,-4.91463 -0.26362,-7.61803 -0.97338,-3.65898 -0.43949,-9.74867 1.12806,-12.86681 0.54065,-1.07545 0.46721,-1.78159 -0.31003,-2.98097 -3.01935,-4.65933 -3.86919,-8.82433 -2.76872,-13.56945 0.84386,-3.63869 0.90014,-5.16792 0.29708,-8.07286 -0.81775,-3.93903 -0.1859,-7.94152 1.88395,-11.93428 1.07963,-2.0826 1.07821,-2.22893 -0.0276,-2.85183 -3.25223,-1.83199 -4.11239,-9.81937 -1.57198,-14.59723 l 1.56825,-2.94947 -1.56825,-1.8232 c -2.03717,-2.36835 -2.16211,-7.61651 -0.26554,-11.15508 l 1.3027,-2.43057 -1.70132,-3.04397 c -1.88896,-3.37972 -1.53209,-9.21783 0.77906,-12.74509 0.67016,-1.0228 0.83484,-1.89649 0.45127,-2.39421 -1.36007,-1.76485 -2.30533,-7.18112 -1.84474,-10.57018 0.7343,-5.40296 0.87588,-6.22261 1.31245,-7.59809 0.25033,-0.78871 -0.0956,-1.92745 -0.89376,-2.94215 -0.9165,-1.16514 -1.36136,-2.91095 -1.50209,-5.89475 l -0.19994,-4.23934 -7.28681,-1.86692 c -4.00774,-1.0268 -8.25822,-2.29269 -9.44552,-2.81307 -2.03059,-0.88999 -17.86808,-5.09629 -23.67634,-6.28823 -6.39391,-1.31213 -28.17084,-7.27258 -38.86084,-10.6364 -4.78063,-1.50432 -9.05446,-2.48672 -9.93655,-2.28404 -0.85131,0.19561 -2.59117,0.47497 -3.86636,0.62082 -4.07384,0.46593 -6.76625,1.74825 -6.22652,2.96553 1.16847,2.63528 1.05159,6.00035 -0.27303,7.8606 -0.92692,1.30174 -1.15116,2.19832 -0.73555,2.94096 2.37253,4.23949 1.84639,15.12015 -0.73116,15.12015 -1.02412,0 -0.75081,2.20448 0.49355,3.98106 1.53866,2.19675 1.48801,10.77505 -0.0738,12.50085 -1.3398,1.48046 -1.33926,2.35707 0.003,4.40524 1.32017,2.01484 0.87208,4.91854 -1.42599,9.24061 l -1.64737,3.09828 1.38495,1.12145 c 2.55765,2.07106 3.69108,10.76269 1.83432,14.06635 -1.28159,2.28029 -1.3714,2.85183 -0.63374,4.03302 1.10452,1.76863 1.78483,10.58998 0.93396,12.11041 -0.44731,0.79929 -0.35712,2.0095 0.28965,3.88677 1.15053,3.33946 0.65884,6.54011 -1.51703,9.87495 -1.58868,2.43488 -2.09404,4.48565 -1.10538,4.48565 2.49599,0 3.41135,10.05388 1.28465,14.1101 -0.78245,1.49237 -0.82878,2.39888 -0.23699,4.63706 1.00434,3.79843 0.95043,9.85589 -0.10526,11.82659 -0.74865,1.39754 -0.68361,2.09675 0.46651,5.01463 l 1.33647,3.39064 -1.58313,3.1271 -1.58314,3.1271 1.56474,3.05283 c 2.69778,5.26342 1.52294,10.6946 -2.95309,13.65183 -2.46583,1.62913 -2.46721,1.72191 -0.0462,3.09934 3.62804,2.0642 5.48233,11.57566 2.99639,15.36971 -0.89529,1.36638 -0.89529,1.78732 0,3.93004 1.13301,2.7117 1.34348,8.11542 0.34023,8.73546 -0.98775,0.61047 -0.80506,4.7718 0.22688,5.16779 3.23354,1.24083 3.63989,7.75879 0.74927,12.01837 -1.97357,2.90821 -2.03288,3.78087 -0.35992,5.29489 2.65109,2.39919 2.13096,14.28421 -0.62512,14.28421 -1.29308,0 -0.61793,1.85828 1.07916,2.97024 2.53706,1.66235 2.05406,7.15226 -0.95913,10.90177 -2.47787,3.08336 -2.52594,3.42157 -0.71889,5.05694 3.37817,3.0572 3.7935,9.45894 0.83824,12.9202 -1.18184,1.3842 -1.13404,3.56013 0.10073,4.5849 1.35618,1.12552 1.35334,9.56246 -0.004,12.1652 -1.2419,2.38123 -1.23887,3.02228 0.0208,4.41427 3.53521,3.90636 4.13724,11.07202 1.22138,14.53733 l -1.63059,1.93785 1.35548,2.65696 c 1.38072,2.70643 1.81951,6.98183 0.78233,7.62285 -1.37456,0.84952 -1.37698,5.25845 -0.004,7.47981 1.06464,1.72261 1.31596,3.04933 1.13752,6.00493 l -0.22924,3.7938 2.61457,0.21337 c 1.438,0.11736 3.42165,0.78808 4.4081,1.49048 0.98644,0.70242 2.04561,1.27776 2.35371,1.27854 1.23263,0.004 8.68832,4.31257 11.49039,6.64153 3.45824,2.87435 7.77964,10.18715 8.36825,14.16101 0.22099,1.49191 0.99856,4.6077 1.72793,6.92398 2.09258,6.6454 -0.0276,14.90885 -5.5313,21.55904 -3.42639,4.14011 -5.17951,5.6953 -6.42012,5.6953 -0.7121,0 -1.68213,0.46681 -2.15563,1.03734 -1.1346,1.3671 -3.86023,2.74446 -8.46324,4.27675 -5.42982,1.80754 -8.11619,2.86683 -10.476,4.13095 -2.43914,1.30661 -7.7114,2.72129 -17.78978,4.77344 -6.45161,1.31367 -9.63422,2.15062 -10.15464,2.67043 -0.5357,0.53505 -0.86652,16.14746 -0.37204,17.55783 1.60324,4.57289 0.46393,12.9068 -1.85607,13.57672 -1.59552,0.46071 -6.10928,2.54434 -7.82158,3.61057 -5.29101,3.29467 -9.63601,4.23287 -25.83505,5.57855 -4.96978,0.41285 -17.4824,-0.73761 -21.52921,-1.97949 -5.95996,-1.82898 -13.88378,-5.06956 -15.23605,-6.23103 -0.72869,-0.62587 -1.62298,-1.25514 -1.98732,-1.39838 -3.41092,-1.34099 -5.7019,-3.50902 -5.31921,-5.03374 0.22439,-0.89406 0.0787,-2.02232 -0.32376,-2.50726 -0.74016,-0.89184 0.0419,-15.56672 0.98878,-18.55235 0.39304,-1.23939 -0.20706,-1.48856 -7.72761,-3.2085 -4.48456,-1.02563 -10.01998,-2.58213 -12.30095,-3.45892 -2.28096,-0.87679 -4.63954,-1.59416 -5.2413,-1.59416 -0.60175,0 -2.31267,-0.71198 -3.80204,-1.58217 -1.48937,-0.87018 -4.7469,-1.89795 -7.23895,-2.28391 -3.60365,-0.55812 -5.23061,-1.22581 -7.94925,-3.26231 -1.88003,-1.4083 -4.22201,-2.90068 -5.20438,-3.3164 -0.98238,-0.4157 -2.95614,-1.81285 -4.38613,-3.10477 -1.43,-1.29191 -2.87989,-2.34893 -3.222,-2.34893 -0.997495,0 -4.476856,-3.67583 -5.425296,-5.73165 -0.478644,-1.03751 -1.334788,-2.78068 -1.902534,-3.87369 -0.567753,-1.09303 -1.47119,-2.83693 -2.007647,-3.87534 -1.497087,-2.89794 -1.823706,-9.7485 -0.64261,-13.47818 0.554221,-1.75012 1.216036,-4.36697 1.470702,-5.81522 0.254666,-1.44826 1.77837,-4.59368 3.386012,-6.98983 3.666793,-5.46526 3.681956,-5.39729 -0.886027,-3.97136 -6.495001,2.02745 -13.028327,5.39992 -18.614223,9.60859 -1.625286,1.22456 -10.984224,10.74626 -13.563687,13.79956 -3.238383,3.83328 -15.186788,9.73716 -18.555336,9.16846 -0.668837,-0.11292 -1.770858,0.29677 -2.448935,0.91043 -2.308193,2.08888 -14.168989,3.35988 -21.691974,2.32449 -3.542003,-0.48748 -8.926377,-0.91622 -11.965275,-0.95275 l -5.5252684,-0.0664 -0.92352007,-2.64975 C 0.42560546,583.41541 0.00553319,582.03329 4.7557906e-5,581.80141 -0.01984742,580.96041 6.2013252,580.48668 20.467392,580.24284 c 18.721412,-0.31999 28.605185,-3.58297 35.224875,-11.62894 10.197508,-12.39467 21.704295,-21.02747 28.170714,-21.13465 1.134057,-0.0188 4.490497,-0.63862 7.458767,-1.37738 5.098505,-1.26895 8.591807,-1.79704 21.945082,-3.31748 3.09689,-0.35262 10.04971,-0.66515 15.45068,-0.69451 l 9.81996,-0.0534 -0.46399,-2.74636 c -0.72875,-4.31344 -2.10151,-5.96 -4.55203,-5.45996 -1.12068,0.22867 -7.99953,0.99321 -15.28634,1.69898 -7.28681,0.70576 -15.33542,1.70497 -17.8858,2.22045 -17.199868,3.47649 -24.17896,5.33434 -24.17896,6.4365 0,0.33507 -0.399561,0.6092 -0.887927,0.6092 -0.488352,0 -3.367852,1.49049 -6.398882,3.31219 -3.03103,1.8217 -5.715279,3.31218 -5.964998,3.31218 -0.249719,0 -0.993583,0.59619 -1.65303,1.32488 -0.659446,0.72868 -1.59388,1.32487 -2.076517,1.32487 -0.482637,0 -1.485834,1.19239 -2.229324,2.64975 -0.743491,1.45736 -1.569315,2.65178 -1.835166,2.65428 -0.26585,0.003 -1.228607,1.11544 -2.139457,2.47322 -2.550981,3.80265 -6.013027,7.45883 -7.062784,7.45883 -0.520676,0 -1.71504,0.76835 -2.654142,1.70745 -1.276199,1.27621 -2.121167,1.60362 -3.34544,1.29636 -0.90089,-0.22611 -1.982088,-0.14343 -2.402663,0.18374 -2.407238,1.87258 -5.985453,2.32339 -19.732716,2.48603 l -14.3309737,0.16955 -0.3890615,-2.39751 c -0.5642536,-3.47708 10.0630992,-4.99324 19.0817892,-2.72231 2.89333,0.72855 11.180725,-0.52525 14.60628,-2.20978 3.607611,-1.77407 8.482798,-5.64461 9.760297,-7.74897 6.483833,-10.68049 21.822144,-20.19994 37.603961,-23.33823 3.461237,-0.68828 8.601735,-1.84858 11.423329,-2.57844 6.481195,-1.67646 32.352585,-5.25656 37.986275,-5.25656 4.61363,0 4.60358,0.0113 3.64795,-4.10201 -0.60572,-2.60716 0.0834,-7.84313 1.3521,-10.27274 0.58602,-1.1223 0.55749,-1.94835 -0.12413,-3.59393 -1.49831,-3.61721 -1.06821,-12.62425 0.71818,-15.04047 1.43784,-1.9448 1.45036,-2.09238 0.40022,-4.71697 -1.29442,-3.23508 -1.36542,-5.45386 -0.27131,-8.47956 0.69214,-1.91408 0.64298,-2.5435 -0.33122,-4.24095 -1.56394,-2.72502 -1.58039,-11.52478 -0.0276,-14.78096 1.04685,-2.19524 1.04685,-2.48677 0,-4.68201 -1.5636,-3.27892 -1.38378,-7.32455 0.50598,-11.38348 1.49786,-3.21717 1.54038,-3.59499 0.61369,-5.45259 -1.53154,-3.07003 -1.51757,-11.68794 0.024,-14.81769 1.23406,-2.50543 1.23243,-2.55259 -0.17596,-5.05848 -1.58363,-2.81768 -1.97522,-9.14855 -0.64798,-10.4758 0.58992,-0.58992 0.58992,-1.38692 0,-3.35591 -0.92986,-3.10361 -1.00114,-7.37469 -0.16001,-9.58706 0.42029,-1.10543 0.32508,-2.42368 -0.30213,-4.18335 -1.2339,-3.46174 -1.20335,-8.9248 0.0677,-12.10138 0.95779,-2.39375 0.9514,-2.77778 -0.0794,-4.77107 -0.90754,-1.755 -1.0337,-3.1224 -0.66255,-7.18107 0.25215,-2.75731 0.41277,-5.90758 0.35693,-7.0006 -0.2921,-5.71858 0.0251,-12.88646 0.69364,-15.67313 0.63532,-2.6483 0.58823,-3.38328 -0.29781,-4.64828 -1.37777,-1.96703 -1.30087,-5.33137 0.22268,-9.74376 1.0917,-3.16169 1.12694,-3.8189 0.30959,-5.77506 -1.13996,-2.7283 -1.13899,-6.44867 0.003,-9.64448 0.64685,-1.81099 0.70689,-3.48177 0.2367,-6.58828 -0.42414,-2.80235 -0.39581,-5.32773 0.0867,-7.73048 0.5998,-2.98664 0.54017,-3.90975 -0.3657,-5.66152 -1.77918,-3.44055 -1.91991,-10.14363 -0.29178,-13.89768 1.28784,-2.96943 1.30865,-3.29157 0.31095,-4.81425 -1.82351,-2.78302 -0.95452,-10.2498 1.50978,-12.97282 1.06943,-1.18172 1.03024,-1.34572 -0.77086,-3.22566 -1.96438,-2.05038 -2.00739,-2.37364 -1.62867,-12.23892 0.028,-0.72868 -0.31545,-3.06231 -0.76315,-5.18583 -0.60334,-2.86172 -0.63126,-4.74759 -0.10788,-7.28681 0.56399,-2.7362 0.5094,-3.91999 -0.27115,-5.88048 -0.82557,-2.07353 -0.8548,-3.41055 -0.18827,-8.61169 1.07036,-8.35228 0.99721,-9.76762 -0.67018,-12.96658 -1.25982,-2.41702 -1.34077,-3.05479 -0.65242,-5.14051 0.43222,-1.30962 0.627,-2.53997 0.43286,-2.73412 -0.6929,-0.6929 -9.14037,-3.53328 -10.57379,-3.55534 -0.80338,-0.0124 -2.65293,-0.59844 -4.11029,-1.3024 -1.45736,-0.70396 -2.97126,-1.29004 -3.36422,-1.3024 -5.2817,-0.16615 -15.37908,-13.38084 -18.544556,-24.26972 -3.772111,-12.97561 6.649966,-31.46616 19.062146,-33.81952 1.2013,-0.22778 2.4849,-0.64709 2.85241,-0.93182 0.95948,-0.74334 8.38677,-2.39189 16.33156,-3.62491 3.76638,-0.58454 8.04035,-1.37886 9.49771,-1.76514 1.45736,-0.38629 5.63072,-1.1962 9.27412,-1.79981 l 6.62437,-1.09748 0.43047,-2.95669 c 1.65049,-11.33669 9.07569,-35.811664 12.82113,-42.261074 1.19907,-2.06472 3.32318,-5.91712 4.72024,-8.56089 1.39707,-2.64376 3.02648,-4.96121 3.62093,-5.14988 0.8969,-0.28467 10.53544,-15.46601 10.53544,-16.59403 0,-0.47977 3.79103,-5.23971 6.5073,-8.17045 1.2108,-1.3064 2.65289,-3.03355 3.20464,-3.8381 1.38272,-2.01625 9.49694,-8.53742 11.32114,-9.09848 0.82016,-0.25225 1.79893,-1.03366 2.17507,-1.73648 0.37614,-0.70282 1.90673,-1.94954 3.40131,-2.77049 1.49459,-0.82096 3.19965,-1.79075 3.78904,-2.15509 7.32245,-4.52656 10.22469,-6.09185 16.0741,-8.66942 3.76947,-1.66103 9.23837,-3.85303 12.15309,-4.87111 2.91472,-1.01807 7.38617,-2.59577 9.93656,-3.5059904 8.87469,-3.16735 15.92143,-5.12124 19.54189,-5.41849 3.91916,-0.32178 11.5418,-1.38583 16.89215,-2.35801 1.8217,-0.33101 5.19489,-0.61959997 7.49597,-0.64131997 2.30108,-0.0217 4.68729,-0.30896 5.30269,-0.63831 2.76841,-1.48161003 50.05979,2.30517997 53.77628,4.30605997 0.91085,0.49039 3.99924,1.65439 6.86308,2.58667 2.86384,0.93227 6.37925,2.26143 7.81203,2.9536704 1.43277,0.69224 3.56108,1.46527 4.72957,1.71785 3.92246,0.84788 18.87743,9.12456 24.89087,13.77561 1.95562,1.51256 4.78753,3.64439 6.29316,4.73741 1.50561,1.09303 4.36735,3.59615 6.35943,5.56251 1.99208,1.96636 4.39491,4.05304 5.33965,4.63706 3.36077,2.07761 19.19198,19.35027 19.19198,20.93944 0,0.22834 0.72479,1.36541 1.61065,2.52682 0.88585,1.16141 1.92848,2.85558 2.31695,3.76481 0.38846,0.90924 1.00511,2.17483 1.37032,2.81243 0.36521,0.63759 0.96283,1.68093 1.32804,2.31853 0.3652,0.63759 0.98185,1.90317 1.37032,2.81242 0.38847,0.90923 1.4311,2.6034 2.31695,3.7648 0.88586,1.16142 1.61064,2.26923 1.61064,2.46181 0,0.19258 1.05284,2.56823 2.33965,5.27923 1.28679,2.71099 2.76378,6.8212 3.28217,9.13379 1.69681,7.569474 2.38849,10.104084 2.94806,10.802994 0.30319,0.37868 0.76191,1.73185 1.01937,3.00705 0.54675,2.70807 2.05563,7.42812 2.90923,9.10062 0.92767,1.81766 3.40002,11.23037 3.40002,12.94457 0,2.22021 1.21496,3.23285 2.83713,2.36469 1.63721,-0.87621 7.48579,0.17357 14.05501,2.52277 2.55039,0.91204 6.12755,2.11306 7.94925,2.66893 1.82171,0.55588 4.83246,1.72439 6.69056,2.5967 1.85811,0.8723 3.70797,1.58601 4.11081,1.58601 0.40285,0 1.84175,0.7528 3.19758,1.67289 1.35582,0.92009 3.23216,1.85667 4.16965,2.08131 16.82224,4.03086 22.4499,30.7244 9.98498,47.36158 -1.83237,2.4457 -7.36527,7.82297 -8.0608,7.83407 -0.24353,0.004 -1.68381,1.19945 -3.20063,2.65681 -1.51682,1.45736 -3.15597,2.64975 -3.64254,2.64975 -0.48658,0 -2.32536,0.65822 -4.08618,1.46271 -1.76082,0.80448 -3.94674,1.62916 -4.85759,1.83262 -1.58045,0.35301 -1.6456,0.55675 -1.42638,4.46065 0.12635,2.24989 -0.12452,5.1641 -0.55749,6.47598 -0.64906,1.96669 -0.60218,2.84768 0.26711,5.02027 1.41519,3.53691 1.30657,7.61882 -0.29679,11.15271 -1.20157,2.64835 -1.23042,3.05359 -0.31667,4.44814 1.55159,2.36802 1.37204,11.84301 -0.28605,15.09526 -1.22507,2.40289 -1.23357,2.62122 -0.1656,4.25041 0.8713,1.3292 1.17537,3.59589 1.34517,10.02776 0.56415,21.36978 0.84574,33.00905 0.84889,35.08917 0.002,1.28375 -0.61197,3.10099 -1.4141,4.18595 -1.33635,1.8075 -1.36018,2.06068 -0.41612,4.42012 1.05873,2.64603 1.00834,8.08301 -0.10848,11.70386 -0.3705,1.20123 -0.38869,2.47444 -0.0441,3.09014 0.86354,1.54307 0.85927,10.42316 -0.006,11.28787 -0.40486,0.40485 -0.7361,1.27672 -0.7361,1.93748 0,0.66075 -0.36232,1.78153 -0.80515,2.49062 -0.63398,1.01517 -0.62793,1.77936 0.0285,3.59473 1.41095,3.90189 1.41221,12.05991 0.002,14.69054 -1.37864,2.57223 -1.53971,4.32596 -0.49344,5.37223 1.14951,1.14952 0.0297,8.02471 -1.54623,9.49288 -1.31821,1.2281 -1.31513,1.24356 0.74516,3.74305 2.33531,2.83313 2.7701,7.48471 1.32811,14.20849 -0.63443,2.95825 -0.57787,3.72976 0.39412,5.37519 1.36749,2.31499 0.94105,9.89002 -0.78425,13.93081 -0.84982,1.99035 -0.90955,2.82799 -0.29745,4.17139 1.16406,2.55486 0.99949,11.86151 -0.22777,12.88005 -1.26631,1.05095 -1.2557,1.92466 0.0408,3.35728 1.39227,1.53844 1.90942,7.54578 0.96558,11.21634 -0.42159,1.63953 -0.93177,3.66213 -1.13373,4.49466 -0.21522,0.8872 0.0508,1.9839 0.64278,2.64975 2.16146,2.43129 2.78728,6.51364 1.58379,10.33155 -0.79634,2.52631 -0.98976,4.63568 -0.68894,7.51375 0.30483,2.91652 0.1066,4.99215 -0.73117,7.65564 -1.13119,3.59635 -1.12693,3.68463 0.26906,5.57282 1.89061,2.55718 2.10729,10.70507 0.38141,14.34211 -0.93561,1.97165 -0.99647,2.61975 -0.3223,3.43209 1.49202,1.79776 1.99635,6.46139 0.83815,7.7503 -0.75333,0.83834 -0.91132,1.86273 -0.59367,3.8492 0.23806,1.48877 0.20838,3.06139 -0.066,3.4947 -0.27433,0.43333 -0.40161,3.51024 -0.28283,6.8376 0.13889,3.89068 -0.0428,6.20966 -0.50911,6.49785 -0.88099,0.54449 -0.96406,3.45623 -0.11361,3.98184 0.33632,0.20786 0.80036,1.23787 1.03121,2.28894 0.53776,2.44842 1.93455,3.60015 5.64413,4.65398 4.8258,1.3709 13.98839,6.7479 17.4147,10.21971 l 3.17777,3.21995 8.74883,-1.46295 c 15.76645,-2.63642 29.33121,-7.53578 31.95623,-11.54205 1.71356,-2.61523 2.76858,-12.51073 1.57306,-14.75451 -6.04191,-11.34001 9.20847,-32.00654 23.61874,-32.00654 2.36177,0 1.26654,5.12741 -1.20791,5.65488 -6.77523,1.44428 -14.30807,7.31174 -16.0773,12.52289 -1.11436,3.28225 -1.11053,3.9933 0.10301,19.16776 1.29598,16.20519 -16.67089,30.34638 -35.34451,27.81862 -4.75337,-0.64344 -15.52567,-0.0554 -20.67606,1.12871 -1.61887,0.37219 -6.23937,0.96282 -10.26778,1.31253 -4.02841,0.34971 -10.63672,0.93164 -14.68513,1.29317 -4.0484,0.36154 -10.75557,0.65918 -14.90483,0.66142 -5.18406,0.003 -8.10219,0.29524 -9.32809,0.93481 -3.58184,1.86868 -41.31105,1.36369 -47.23636,-0.63225 -1.45736,-0.4909 -5.33262,-1.05968 -8.61168,-1.26394 -6.24353,-0.38893 -14.71032,-2.16485 -19.21068,-4.02947 -7.52405,-3.11741 -17.63626,-8.53868 -19.74236,-10.58409 -1.31099,-1.27323 -2.65497,-2.31494 -2.98662,-2.31494 -1.12805,0 -1.49065,6.71259 -0.46232,8.55876 0.52355,0.93996 1.3972,2.63808 1.94144,3.77363 0.74419,1.55277 1.94076,2.4453 4.82653,3.60018 2.11037,0.84455 4.88036,2.17716 6.15555,2.96136 1.27519,0.78419 5.0014,2.10082 8.28047,2.92585 3.27906,0.82503 6.44064,1.92425 7.02574,2.44273 1.72472,1.52832 21.06638,3.82064 38.3512,4.54529 3.09689,0.12983 6.07786,0.40138 6.62437,0.60342 0.54652,0.20206 2.037,0.33134 3.31219,0.28728 1.27519,-0.044 3.51092,0.0819 4.96828,0.27979 1.45736,0.19793 4.28928,0.0898 6.29315,-0.24038 2.00388,-0.33013 6.77342,-0.71277 10.599,-0.8503 3.82557,-0.13752 10.53275,-0.70962 14.90483,-1.27134 4.37209,-0.56172 11.8245,-1.36762 16.56093,-1.7909 12.34268,-1.10303 22.1196,-2.62516 30.35405,-4.72569 1.39242,-0.35518 4.36596,-0.78485 6.60785,-0.9548 4.19437,-0.31795 6.70093,-0.97983 14.7082,-3.88379 2.55038,-0.92493 5.48963,-1.683 6.53165,-1.68459 9.12863,-0.0139 21.98961,-17.55568 20.01352,-27.2975 -2.63893,-13.00958 -1.09513,-21.73376 4.71032,-26.61873 8.70121,-7.32159 14.76209,-0.14709 6.5294,7.7291 l -4.43925,4.24703 0.46097,10.204 c 0.25353,5.6122 0.44065,10.99969 0.4158,11.97218 -0.0683,2.67156 -3.65136,10.0524 -5.63914,11.61598 -0.965,0.75908 -1.75456,1.9601 -1.75456,2.66896 0,0.70884 -0.67072,1.64916 -1.49049,2.08958 -0.81976,0.44042 -2.68286,1.52454 -4.14023,2.40913 -8.06006,4.89234 -21.20904,9.29656 -32.73982,10.96613 -8.78793,1.27242 -8.65278,1.12879 -9.06356,9.63295 -0.23725,4.91177 -0.64959,7.53166 -1.29819,8.24835 -0.52278,0.57766 -0.9505,1.32611 -0.9505,1.66322 0,4.87401 -11.16041,15.79714 -20.86677,20.42313 -4.37208,2.08371 -8.48405,4.07768 -9.13771,4.43107 -4.58819,2.48049 -14.51773,5.13813 -20.63949,5.52413 -8.11209,0.5115 -7.20132,-1.24764 -7.31053,14.12011 -0.1068,15.02773 -0.24319,15.50453 -4.78464,16.72627 -1.74535,0.46952 -3.45655,1.10782 -3.80267,1.41846 -0.34613,0.31062 -1.04358,0.56477 -1.54991,0.56477 -0.50633,0 -1.41553,0.55683 -2.02044,1.2374 -0.60491,0.68058 -3.63366,1.91144 -6.73055,2.73525 -3.09689,0.82381 -7.56835,2.03407 -9.93656,2.68941 -4.97772,1.37748 -23.79272,2.10994 -28.15358,1.09601 z m 12.55743,-5.80812 c 0.72098,-0.72098 0.65649,-21.47001 -0.0704,-22.64613 -0.25899,-0.41905 -2.60638,-0.47716 -6.44716,-0.15962 -3.32193,0.27464 -6.86151,0.56029 -7.86574,0.63477 -2.54477,0.18874 -2.46683,-0.0507 -2.81374,8.6438 -0.17189,4.30818 -0.48004,8.36081 -0.68477,9.00585 -0.50588,1.59391 1.78069,2.96869 6.31803,3.79862 2.00387,0.36654 4.38865,0.97798 5.2995,1.35877 1.82466,0.76281 5.20904,0.41917 6.26427,-0.63606 z m 9.44646,-0.38386 2.8375,-1.08365 0,-5.77477 c 0,-3.1761 0.19063,-7.59863 0.42363,-9.82781 0.47402,-4.53513 -0.31328,-5.31634 -5.66053,-5.61669 l -2.31324,-0.12994 -0.0339,11.75825 c -0.0379,13.13416 -0.27826,12.59363 4.74659,10.67461 z m -33.0045,-7.69364 c 2.52611,-6.73249 1.218,-13.60166 -2.03037,-10.66193 -1.2266,1.11007 -1.85228,10.62831 -0.76979,11.7108 0.90303,0.90304 2.25825,0.39541 2.80016,-1.04887 z m -205.70952,-8.56969 c 0.50346,-9.94738 0.57451,-9.78062 -4.25618,-9.98893 l -3.5999,-0.15522 -0.37661,7.98359 c -0.20713,4.39097 -0.61794,8.37408 -0.91291,8.85135 -0.82386,1.33303 0.87094,2.02308 4.99651,2.03438 l 3.70698,0.0101 0.44211,-8.73531 z m -12.81531,-0.042 c 0.005,-3.73448 0.1579,-7.38617 0.33983,-8.11485 0.82871,-3.31914 -11.86479,-5.00443 -14.883,-1.97599 -1.30889,1.31334 -1.44323,11.76744 -0.1676,13.04307 1.22993,1.22993 9.38671,3.77142 12.21758,3.80676 l 2.48414,0.031 0.009,-6.78999 z m -21.86947,-4.14023 c 0,-2.00387 0.0745,-3.86698 0.1656,-4.14023 0.0911,-0.27325 -0.84444,-0.59331 -2.07896,-0.71124 l -2.24457,-0.21442 0.34453,3.05666 c 0.31948,2.83443 1.94163,5.65264 3.25363,5.65264 0.30787,0 0.55977,-1.63953 0.55977,-3.64341 z m 266.96218,-27.90051 c 2.00388,-0.58084 4.61222,-1.20611 5.79633,-1.38948 4.32806,-0.67022 2.52415,-2.17327 -2.64975,-2.20782 -12.36002,-0.0825 -22.43695,-2.68518 -22.91227,-5.9177 -0.17898,-1.21713 0.0201,-1.44606 0.99365,-1.14286 4.91433,1.5304 8.60529,2.55104 9.1667,2.53481 5.50358,-0.1591 21.34196,-1.66639 21.76959,-2.07173 1.07131,-1.01549 -0.31313,-1.98214 -2.83881,-1.98214 -1.38612,0 -3.97688,-0.27395 -5.75723,-0.60878 -1.78034,-0.33484 -6.0689,-0.80077 -9.53014,-1.03541 -6.49678,-0.44043 -11.92387,-2.2466 -11.92387,-3.96835 0,-1.2381 2.31705,-1.65933 5.02086,-0.91278 1.37026,0.37835 7.87983,0.50066 15.71684,0.29529 7.3578,-0.1928 17.70022,-0.4419 22.98315,-0.55357 15.63725,-0.33051 27.82237,-2.31054 27.82237,-4.52101 0,-1.48351 1.4099,-2.30236 4.98183,-2.8934 1.46481,-0.24237 3.00558,-0.65222 3.42392,-0.91077 1.24691,-0.77063 -33.54986,-0.22906 -38.56254,0.60019 -16.34853,2.70453 -42.82047,-0.0133 -60.92833,-6.25523 -9.53382,-3.28644 -24.17895,-11.3016 -24.17895,-13.23295 0,-0.27699 -0.64151,-1.37129 -1.42556,-2.43178 -1.4236,-1.92552 -1.53734,-9.94115 -0.19084,-13.45004 0.81706,-2.12923 -4.42132,-1.25559 -11.63235,1.94 -4.65007,2.06069 -8.13235,8.76592 -5.63071,10.8421 1.64706,1.36694 1.26377,4.93105 -0.63986,5.94985 -2.11265,1.13065 -3.16041,0.30833 -5.15958,-4.04945 -1.73327,-3.77818 -2.34875,-3.94649 -4.13712,-1.13138 -3.84504,6.05258 -4.87892,8.30076 -4.84798,10.54196 0.0182,1.31901 -0.15699,2.99708 -0.3893,3.72905 -0.4208,1.32583 0.97855,8.57502 1.97804,10.24711 5.58758,9.34753 9.51084,7.70707 9.44759,-3.95037 -0.0568,-10.47399 0.93691,-11.4683 9.43364,-9.43891 8.92883,2.13259 11.04749,5.38281 6.4837,9.94661 -2.32547,2.32546 -2.35352,6.40023 -0.0671,9.74385 0.70133,1.02561 2.06182,3.11894 3.0233,4.65182 2.80997,4.47992 4.41655,4.93225 4.41655,1.24347 0,-10.0963 5.14594,-16.28884 13.53236,-16.2846 2.48237,10e-4 6.69672,2.00807 6.60573,3.14556 -0.0365,0.45542 -0.11096,1.71833 -0.16561,2.80646 -0.0797,1.58594 -0.55025,2.16681 -2.37215,2.92805 -5.96953,2.49423 -4.82343,13.10775 1.59276,14.74978 1.84561,0.47232 4.16959,1.43076 5.16441,2.12984 1.36655,0.96032 3.91421,1.4621 10.42045,2.05238 4.73642,0.42971 9.20788,0.86509 9.93656,0.9675 4.31492,0.60647 13.00771,0.22877 16.22971,-0.70518 z m 88.74737,-11.61276 c 7.58188,-10.16412 8.09298,-12.18229 3.63381,-14.34873 -4.79734,-2.33072 -6.31564,-1.57321 -6.20422,3.09542 0.0946,3.96363 -0.91077,9.89015 -2.03367,11.98831 -3.06406,5.72524 0.17024,5.20892 4.60408,-0.735 z m -245.28313,-1.60555 c 10.55408,-5.23786 18.56216,-16.96626 15.49612,-22.69521 -0.33162,-0.61965 -1.03458,-3.2084 -1.56213,-5.75277 -2.35788,-11.37218 -5.95102,-14.99541 -11.58419,-11.68125 -5.38554,3.16849 -17.28012,9.37364 -17.96819,9.37364 -0.36064,0 -1.49488,0.34151 -2.52053,0.7589 -6.39034,2.60061 -11.02932,3.93607 -14.96885,4.30921 -2.4708,0.23404 -4.64959,0.67994 -4.84177,0.99089 -0.19218,0.31095 -1.20204,0.56537 -2.24413,0.56537 -1.0421,0 -3.65657,0.45136 -5.80995,1.00303 -2.15338,0.55168 -5.68009,0.97402 -7.83714,0.93854 -2.15705,-0.0355 -8.63425,0.14607 -14.39377,0.40342 -12.19545,0.54493 -22.8596,-0.33322 -37.22361,-3.06524 -11.63839,-2.2136 -14.4992,-2.88209 -19.62035,-4.58475 -3.14005,-1.04398 -6.5808,-1.87337 -7.64613,-1.84308 -3.24621,0.0923 -4.6784,-1.15637 -5.81644,-5.0711 -1.47926,-5.08845 -2.50301,-5.38873 -14.28134,-4.18888 -7.1057,0.72385 -9.49838,1.56779 -9.07163,3.1997 0.79403,3.03634 -2.17269,4.18686 -5.02032,1.94693 -1.80143,-1.41702 -4.70028,-1.70304 -7.28818,-0.71911 -4.185318,1.59124 -6.262707,14.73081 -3.244466,20.52142 0.79161,1.51874 1.439296,3.1877 1.439296,3.7088 0,1.13699 2.30303,3.40596 4.76862,4.69809 l 1.78765,0.93684 -1.00393,-2.40271 c -4.34303,-10.39435 4.75502,-27.63468 12.00224,-22.74364 1.09302,0.73766 2.90382,1.78817 4.02397,2.33447 1.12018,0.5463 3.0578,1.85132 4.30585,2.90004 l 2.26918,1.90677 -1.14405,2.21316 c -2.06646,3.99754 -2.63435,8.22456 -1.58133,11.77048 1.86166,6.2689 4.22874,8.13419 3.8213,3.01123 -0.43558,-5.47669 5.51841,-14.77025 9.02947,-14.09407 1.4945,0.2878 1.82387,2.34735 0.59617,3.72771 -3.62174,4.07208 -3.27051,12.59794 0.66573,16.16018 1.73715,1.5721 23.14948,4.11506 29.98492,3.56105 5.1128,-0.41439 7.45514,-1.40558 4.59737,-1.94543 -13.47924,-2.54635 -20.85928,-5.80488 -16.98796,-7.50074 0.89631,-0.39263 2.41475,-0.42859 3.80902,-0.0902 2.06159,0.50035 10.06909,1.61774 14.57362,2.03364 5.63694,0.52045 1.67596,-3.15649 -4.30585,-3.99707 -11.02409,-1.54913 -17.6132,-4.35578 -15.40652,-6.56246 1.0345,-1.03449 1.70623,-0.99303 10.24412,0.63233 10.92015,2.07888 34.49869,2.17242 55.17641,0.21887 10.39253,-0.98183 13.80462,-1.41241 21.86043,-2.75862 1.27519,-0.2131 4.25616,-0.48576 6.62437,-0.60594 2.36821,-0.12017 6.54157,-0.87812 9.27412,-1.68434 2.73256,-0.80623 5.86257,-1.60398 6.95559,-1.77278 1.09302,-0.1688 2.91721,-0.77891 4.05374,-1.35579 3.70486,-1.88051 7.33718,2.86717 6.56181,8.5767 -0.21195,1.5607 -0.36384,3.97224 -0.33754,5.35898 0.0484,2.55263 -1.86219,5.14372 -5.75981,7.81124 -6.03608,4.13108 -1.95323,5.26679 5.54899,1.54354 z m -57.10023,-30.00555 c 7.36792,-1.0235 16.98579,-2.88454 20.8624,-4.03682 1.27279,-0.37832 3.21041,-0.69759 4.30584,-0.70949 4.87953,-0.053 12.72187,-4.08153 14.4466,-7.42111 0.61428,-1.18943 1.46426,-2.64374 1.88883,-3.23182 2.10315,-2.91308 -1.96097,-4.31943 -5.77,-1.99665 -1.11388,0.67926 -3.12603,1.42339 -4.47145,1.65361 -1.34541,0.23024 -3.46468,0.59736 -4.70949,0.81585 -1.68746,0.29618 -2.36761,0.81289 -2.67333,2.03097 -1.01653,4.0502 -30.42328,8.14235 -34.9249,4.86005 -1.62561,-1.1853 -2.8795,-1.28664 -15.23606,-1.23142 -13.33814,0.0596 -28.18875,-1.44943 -33.26783,-3.3805 -0.99677,-0.37896 -2.40348,-0.68903 -3.12605,-0.68903 -0.72256,0 -2.54773,-0.59619 -4.05592,-1.32488 -1.5082,-0.72868 -2.99868,-1.32487 -3.31219,-1.32487 -0.3135,0 -1.80644,-0.59737 -3.31762,-1.3275 -4.52281,-2.18518 -5.98197,6.83709 -1.49423,9.2391 14.5533,7.78948 49.65246,11.57556 74.8554,8.07451 z m 239.47104,-5.30228 c 4.30968,-0.76271 7.51612,-1.52269 12.91753,-3.06165 2.18604,-0.62285 5.75828,-1.57135 7.93831,-2.10778 2.21663,-0.54543 5.35611,-1.97566 7.12274,-3.24486 1.73747,-1.24825 3.74417,-2.26954 4.45933,-2.26954 3.5502,0 7.785,-5.76839 6.31776,-8.6057 -1.27313,-2.46196 -0.92965,-2.46648 -5.63381,0.0742 -4.61932,2.49483 -10.51688,5.21948 -11.29889,5.22005 -0.52591,3.9e-4 -3.93716,0.73234 -7.58057,1.62657 -5.94381,1.45882 -17.73376,3.44232 -21.19799,3.56627 -7.9711,0.2852 -23.88343,-0.0266 -29.14723,-0.57113 -11.75914,-1.21646 -28.84701,-5.81495 -36.17494,-9.73499 -2.69289,-1.44054 -5.72584,-2.82532 -6.73989,-3.07729 -1.01405,-0.25196 -2.34721,-1.04613 -2.96258,-1.76484 -2.06434,-2.41098 -3.47416,-1.29546 -3.47416,2.74891 0,2.02209 2.35813,5.87599 3.60237,5.88736 0.38691,0.004 1.97699,1.01892 3.53353,2.2564 1.55654,1.23747 4.74399,3.17303 7.08324,4.30123 2.33923,1.12819 4.43688,2.34854 4.66144,2.71188 0.22456,0.36334 0.92386,0.66062 1.554,0.66062 0.63014,0 2.3266,0.61142 3.76992,1.35872 3.72082,1.9265 8.61709,2.88155 23.15976,4.51745 6.51883,0.7333 33.10745,0.38997 38.09013,-0.49184 z m 34.68591,-1.16859 c 2.87624,-0.39423 3.12352,-0.58721 3.84708,-3.00222 1.48967,-4.9721 -1.27957,-4.81199 -7.06722,0.40861 -3.70036,3.33782 -3.48354,3.51245 3.22014,2.59361 z m -285.7496,-8.54578 c 21.36071,-1.99756 31.9335,-3.62962 40.07745,-6.18651 2.18604,-0.68634 4.80056,-1.44003 5.81004,-1.67489 2.52509,-0.58745 6.75599,-3.6596 8.08114,-5.86789 1.12711,-1.87827 0.82036,-4.83167 -0.42208,-4.0638 -0.37285,0.23043 -1.3622,0.0527 -2.19857,-0.39487 -1.2898,-0.69028 -1.80819,-0.60835 -3.41463,0.5396 -1.04168,0.74439 -4.36143,2.00461 -7.37722,2.80048 -4.00335,1.0565 -5.68635,1.82842 -6.23576,2.86007 -1.59619,2.99731 -6.44507,4.05885 -26.25614,5.74811 -8.85863,0.75536 -10.30241,0.61907 -8.84811,-0.83523 2.59287,-2.59286 1.3923,-2.8392 -13.62413,-2.79552 -22.0887,0.0642 -28.76556,-0.76315 -41.18082,-5.10309 -6.12388,-2.14068 -6.65137,-1.99582 -6.67013,1.8318 -0.0209,4.278 0.72597,6.20672 2.55852,6.60661 0.95546,0.2085 2.86103,0.80081 4.2346,1.31624 1.37358,0.51543 4.65264,1.54869 7.28681,2.29616 2.63417,0.74745 5.83273,1.66072 7.10792,2.02948 2.19785,0.63557 15.41956,1.57257 25.50384,1.80741 2.55038,0.0594 9.55565,-0.35198 15.56727,-0.91416 z m 242.11253,-4.97679 c 2.54584,-0.3679 7.40237,-0.78298 10.79228,-0.9224 3.38992,-0.13941 6.55541,-0.57876 7.03445,-0.97632 0.80103,-0.66479 4.39697,-1.61678 9.34146,-2.47306 4.02428,-0.69692 10.94549,-3.7959 13.30542,-5.95752 1.33561,-1.22337 2.93925,-2.2243 3.56366,-2.2243 1.48572,0 2.67281,-2.69606 2.67281,-6.07036 0,-2.49308 -0.1121,-2.66055 -1.49048,-2.22668 -0.81977,0.25804 -2.87076,0.86289 -4.55777,1.34412 -1.687,0.48122 -3.92272,1.30894 -4.96828,1.83938 -2.73197,1.38601 -13.69755,4.30325 -19.12436,5.08779 -7.42946,1.07404 -11.87436,2.06356 -12.5863,2.80191 -1.06161,1.101 10.7296,-0.59438 22.75434,-3.27171 2.48131,-0.55246 1.54563,1.93583 -1.22514,3.25806 -4.85387,2.3163 -24.12899,4.06713 -28.11045,2.55338 -2.30747,-0.8773 -2.14552,-2.0037 0.28809,-2.0037 1.09302,0 1.98731,-0.32736 1.98731,-0.72747 0,-0.49338 -2.5045,-0.69152 -7.78364,-0.61576 -15.4059,0.2211 -26.66214,-0.77322 -36.93087,-3.26228 -2.91472,-0.7065 -7.80263,-1.87573 -10.86202,-2.59829 -3.0594,-0.72256 -5.7531,-1.62209 -5.98601,-1.99895 -0.23292,-0.37687 -2.05218,-1.52316 -4.04281,-2.54733 -1.99063,-1.02418 -4.26584,-2.28409 -5.05603,-2.79981 -2.3267,-1.51856 -3.76106,0.13144 -3.34249,3.84502 0.38874,3.4489 4.25676,7.33333 8.75381,8.79096 2.40682,0.78011 6.26537,2.65041 7.94925,3.85311 1.16452,0.83175 17.63358,5.56727 19.87311,5.71432 0.36434,0.0239 4.53769,0.40758 9.27412,0.85259 16.37284,1.53827 21.92747,1.6817 28.47654,0.7353 z M 203.54646,535.87454 c 5.90818,-0.57215 13.08291,-0.92963 15.94386,-0.79441 10.85479,0.51305 35.56351,-4.94174 38.67286,-8.53757 4.00993,-4.63732 3.60259,-9.37402 -0.65981,-7.67243 -1.17901,0.47068 -5.36593,1.63593 -9.30426,2.58944 -6.73107,1.62969 -7.13833,1.82237 -6.78952,3.21215 0.49257,1.96254 -2.34924,4.22511 -5.30677,4.22511 -1.20234,0 -2.92451,0.28076 -3.82704,0.6239 -2.14081,0.81393 -8.28884,1.33969 -17.25275,1.4754 -7.32741,0.11093 -8.25548,-0.17782 -9.15662,-2.84887 -0.10422,-0.30893 -4.36285,-0.67204 -9.46361,-0.80691 -16.66773,-0.4407 -32.81811,-3.38726 -44.5303,-8.12435 -4.0886,-1.65366 -7.73218,-2.82226 -8.09685,-2.59688 -2.04242,1.26228 -2.0719,10.63028 -0.0367,11.63344 0.96115,0.47374 9.5594,3.97009 12.25508,4.98335 8.05299,3.02698 30.61442,4.2789 47.55234,2.63863 z m 245.90734,-6.03476 c 14.32825,-0.73803 13.32198,-0.57715 28.15358,-4.50104 13.04814,-3.45204 14.02376,-3.95785 18.71385,-9.70218 2.97037,-3.63805 1.85093,-8.47947 -1.34955,-5.83661 -2.42316,2.00097 -9.30813,3.52161 -28.29451,6.24924 -14.40015,2.06876 -15.69713,2.54825 -8.48045,3.13523 5.62992,0.45791 12.16619,-0.67813 15.14992,-2.63314 1.99444,-1.30681 5.33601,-0.28475 4.67771,1.43074 -0.23758,0.61915 0.0425,1.00098 0.76308,1.04015 2.06291,0.11214 -10.70066,3.86785 -14.69088,4.32282 -2.54469,0.29014 -4.35914,0.89895 -5.20747,1.74728 -1.90548,1.90548 -7.52374,2.20746 -8.46172,0.45481 -0.41999,-0.78475 -1.39102,-1.29084 -2.48735,-1.29635 -5.79271,-0.0291 -6.87112,-3.6539 -1.47591,-4.9608 4.74311,-1.14896 2.41425,-1.53661 -9.2727,-1.54349 -23.53575,-0.0139 -39.674,-3.16196 -59.76108,-11.65764 -4.64354,-1.96395 -6.6118,5.44052 -2.01279,7.57198 1.17919,0.54651 2.29753,1.45351 2.48517,2.01556 0.18766,0.56204 2.20383,1.85783 4.48038,2.87953 2.27656,1.02171 5.35117,2.42496 6.83247,3.11834 1.48131,0.69338 3.05037,1.26069 3.48679,1.26069 0.43642,0 1.31112,0.27957 1.94378,0.62128 3.44778,1.8622 11.07988,3.98966 15.72389,4.38306 2.91472,0.24691 5.75243,0.84547 6.306,1.33012 1.65432,1.44835 12.1784,1.6315 32.77779,0.57042 z m -234.50276,-8.26121 c 12.72625,-1.20995 12.73268,-1.211 23.70481,-3.8746 4.6578,-1.13074 9.07554,-2.05588 9.81719,-2.05588 0.74165,0 2.64827,-0.89429 4.23692,-1.98731 1.58865,-1.09303 3.15159,-1.98731 3.47321,-1.98731 3.11314,0 5.83402,-8.80201 3.40141,-11.0035 -1.1692,-1.05811 -1.49801,-0.99939 -5.98568,1.06911 -2.61169,1.20382 -5.96679,2.54802 -7.45579,2.98713 -1.74471,0.51453 -2.7915,1.2438 -2.94417,2.05112 -0.38082,2.01385 -1.44923,2.90882 -3.4725,2.90882 -1.04009,0 -3.91004,0.76326 -6.37765,1.69613 -7.77813,2.94047 -22.78337,3.08537 -25.21666,0.2435 -0.94432,-1.10289 -2.00011,-1.27794 -7.73632,-1.28269 -6.19133,-0.006 -14.05713,-0.82378 -25.191,-2.6218 -5.11742,-0.82642 -14.89091,-3.60222 -23.42662,-6.65346 -8.14636,-2.91207 -8.71089,-2.72529 -8.69254,2.87618 0.0163,4.98232 0.21233,5.19394 7.98937,8.62547 13.83972,6.10662 23.95512,8.014 46.60635,8.78823 4.34662,0.14856 8.04799,0.41516 8.22526,0.59244 0.43373,0.43373 0.68093,0.42357 9.04441,-0.37158 z m 232.18423,-9.58569 c 5.28294,-0.0829 11.54297,-0.49605 13.91118,-0.91819 2.36821,-0.42215 5.64728,-0.88161 7.28681,-1.02105 15.95796,-1.35716 29.80968,-7.08306 29.80968,-12.32245 0,-5.83131 -1.18338,-6.51264 -6.84943,-3.94353 -2.4106,1.09302 -4.7825,1.98731 -5.27089,1.98731 -4.44516,0 -9.29818,3.10622 -7.75606,4.96435 2.02492,2.43988 -11.84855,5.23789 -26.16301,5.27657 l -9.93656,0.0268 0.21032,-2.81535 0.21031,-2.81536 -4.51616,-0.0619 c -24.0298,-0.32955 -47.80938,-4.66811 -60.08041,-10.96159 -3.69025,-1.89265 -4.32922,-1.60344 -4.83799,2.18971 -0.52145,3.88769 1.16102,7.31936 4.21392,8.59494 1.36677,0.57107 2.79346,1.41523 3.17041,1.87591 0.69005,0.84331 14.11871,5.62624 20.88972,7.44037 4.3056,1.15358 12.41579,2.03532 23.84773,2.59274 4.55426,0.22207 8.42054,0.53491 8.59174,0.69522 0.1712,0.16029 1.06548,0.0833 1.98731,-0.1712 0.92183,-0.25445 5.99845,-0.53044 11.28138,-0.61331 z m -224.7066,-9.03238 c 2.87269,-0.78411 5.60675,-1.14671 6.75112,-0.89537 1.0578,0.23232 2.50276,0.11227 3.21105,-0.2668 0.70828,-0.37905 2.43983,-0.84181 3.84787,-1.02833 3.48219,-0.4613 11.60225,-3.29404 15.00683,-5.23523 1.5341,-0.87471 3.6085,-1.78023 4.60973,-2.01227 3.02507,-0.70106 5.45726,-5.03212 4.48324,-7.98343 -1.09702,-3.32398 -2.55388,-3.92034 -5.59514,-2.29032 -2.45668,1.3167 -6.09444,2.27802 -11.46438,3.02962 -2.49761,0.34957 -2.76583,0.55528 -2.43624,1.86851 0.49264,1.96284 -1.13425,3.50276 -4.21819,3.99268 -1.35456,0.21518 -3.65523,0.65895 -5.11259,0.98614 -16.82762,3.77794 -22.91237,3.76841 -24.32068,-0.0381 -0.10423,-0.2817 -4.2138,-0.66304 -9.1324,-0.84743 -18.06626,-0.67723 -33.30435,-3.28862 -45.63038,-7.81978 -6.88914,-2.53251 -7.83409,-2.28642 -8.11199,2.11251 -0.26128,4.13625 3.12293,8.57965 6.5345,8.57965 0.83472,0 2.03531,0.26814 2.66796,0.59587 1.74823,0.90561 13.4686,4.5743 15.72389,4.92187 1.09302,0.16844 5.26637,0.96522 9.27412,1.7706 14.86505,2.98724 34.11878,3.23261 43.91168,0.55962 z m 228.19115,-9.90373 c 5.1827,-0.59718 6.67083,-0.5746 7.50035,0.11384 0.85237,0.70741 1.63956,0.67142 4.46469,-0.20412 1.88643,-0.58464 5.9637,-1.39837 9.06059,-1.8083 18.18997,-2.40782 23.65447,-4.93219 24.79868,-11.45597 0.53501,-3.05043 -0.51231,-3.67753 -4.26444,-2.55335 -1.40337,0.42046 -4.63781,1.02642 -7.18762,1.34659 -5.23509,0.65734 -7.88657,2.17188 -8.47188,4.83921 -0.47678,2.17273 -0.85921,2.30814 -8.84937,3.13333 -16.33871,1.68739 -23.84773,1.05967 -23.84773,-1.99355 l 0,-1.94822 -6.12755,-0.0667 c -17.3479,-0.18892 -41.61028,-3.94076 -55.7377,-8.61907 -8.00253,-2.65005 -9.77718,-1.18935 -7.5572,6.22027 0.84315,2.81417 5.68303,5.77771 9.43585,5.77771 0.87026,0 3.0202,0.61636 4.77765,1.36969 1.75744,0.75334 5.13575,1.77383 7.50734,2.2678 2.37158,0.49395 5.53824,1.21139 7.03701,1.59432 1.49878,0.38291 4.77784,0.86686 7.28681,1.07544 2.50898,0.20857 6.35035,0.6442 8.53639,0.96806 2.18604,0.32386 6.93693,0.61417 10.55753,0.64513 3.62061,0.031 6.65061,0.12463 6.73335,0.20815 0.30354,0.30645 8.05752,-0.1855 14.34725,-0.91024 z m -241.95756,-5.91883 c 1.27278,-0.37828 4.58229,-0.95661 7.35446,-1.28519 2.77217,-0.32857 7.09458,-1.05227 9.60534,-1.60821 17.52219,-3.87982 22.76204,-5.20496 23.85564,-6.03301 0.68472,-0.51846 2.30075,-0.95214 3.59116,-0.96373 3.64883,-0.0328 8.26092,-4.96002 7.65684,-8.18005 -0.64702,-3.44889 -1.87962,-4.19466 -5.25121,-3.17719 -1.52049,0.45886 -4.10597,1.0725 -5.7455,1.36366 -4.53135,0.8047 -7.47115,2.00431 -9.01623,3.67915 -2.43914,2.64397 -11.30459,4.93835 -22.37624,5.79098 l -9.86326,0.75956 -1.39817,-1.69701 c -1.39301,-1.69075 -1.44708,-1.69847 -14.64692,-2.0909 -15.70646,-0.46695 -22.97538,-1.75419 -40.59067,-7.18814 -4.62855,-1.42781 -7.02267,-1.88333 -7.48236,-1.42363 -1.16314,1.16314 -1.62974,10.07351 -0.54526,10.41251 0.50755,0.15865 3.30759,0.88312 6.22231,1.60992 2.91473,0.72681 7.08808,1.93967 9.27412,2.69525 9.98713,3.45199 15.55159,4.70361 23.84774,5.36411 4.73643,0.3771 9.50597,0.83274 10.599,1.01254 1.09302,0.17979 3.58759,0.4605 5.54348,0.62378 1.95589,0.16329 3.71963,0.46035 3.91942,0.66013 0.56806,0.56808 2.91318,0.42834 5.44631,-0.32453 z m 245.09738,-10.861 c 3.82558,-0.22653 9.26183,-0.73752 12.08056,-1.13551 2.81873,-0.398 5.75717,-0.55831 6.52985,-0.35625 0.7727,0.20206 2.19267,0.0549 3.15551,-0.32699 0.96283,-0.38192 4.13538,-1.23935 7.0501,-1.90542 10.44476,-2.38682 13.15966,-3.86125 13.82716,-7.50942 1.12752,-6.16246 -0.54947,-7.32906 -7.23104,-5.03026 -2.1335,0.73403 -5.44364,1.51848 -7.35587,1.74322 -2.86151,0.33632 -3.51222,0.6538 -3.67704,1.79399 -0.27878,1.92848 -4.47123,3.34339 -13.78023,4.6507 -15.21748,2.13707 -22.76879,1.32997 -19.66323,-2.10163 1.71392,-1.89386 1.69605,-1.8992 -7.99353,-2.39091 -24.49401,-1.243 -40.01639,-3.5822 -52.82936,-7.96131 -9.74932,-3.33205 -9.84623,-3.31301 -10.65692,2.09306 -0.77783,5.1869 0.49351,7.83125 4.20144,8.73887 1.72881,0.42318 5.08093,1.4971 7.44914,2.38651 2.36821,0.88939 6.54156,1.89849 9.27412,2.24244 5.07586,0.63891 9.78108,1.59612 13.91118,2.83005 8.1124,2.42368 26.98019,3.34786 45.70816,2.23886 z M 205.3877,467.56337 c 6.39906,-0.11244 13.54079,-0.51143 15.87052,-0.88662 3.05798,-0.49247 4.94079,-0.47096 6.77095,0.0774 2.10876,0.63181 2.92877,0.57179 4.87613,-0.35684 1.28758,-0.61401 2.55661,-0.98316 2.82005,-0.82034 0.56305,0.34799 9.88661,-2.87977 14.85195,-5.14164 1.90165,-0.86626 4.38408,-1.93267 5.51654,-2.36981 8.68984,-3.35438 5.98676,-9.54215 -3.2118,-7.35228 -9.52375,2.26728 -12.237,3.27054 -13.32158,4.92582 -2.40639,3.67262 -30.54505,6.7557 -33.0902,3.6256 -1.20758,-1.48511 -1.70656,-1.57979 -8.32577,-1.57979 -11.28946,0 -32.38893,-3.53184 -46.04893,-7.70812 -7.54929,-2.30805 -8.07626,-2.13954 -8.75318,2.79909 -0.75419,5.50248 6.2552,9.23686 20.93221,11.15202 2.36821,0.30902 5.64728,1.05034 7.28681,1.64737 1.63953,0.59703 5.6942,1.2204 9.01036,1.38528 3.31618,0.16488 6.74429,0.59699 7.61803,0.96026 0.87375,0.36325 2.48292,0.47746 3.57595,0.25378 1.09301,-0.22367 7.2229,-0.49869 13.62196,-0.61115 z m 242.07879,-10.55291 c 29.79325,-0.8691 46.85578,-3.69717 48.87896,-8.10156 0.61199,-1.33229 -0.3956,-8.77865 -1.18787,-8.77865 -0.13232,0 -1.03491,0.30201 -2.00577,0.67112 -0.97086,0.36911 -4.4664,1.26067 -7.76788,1.98123 -3.30148,0.72056 -6.47633,1.73619 -7.05523,2.25695 -5.93207,5.33637 -35.06579,7.99373 -34.08891,3.10932 l 0.37838,-1.89184 -12.15581,-0.38981 c -14.37757,-0.46104 -24.64162,-1.3666 -27.38207,-2.41581 -1.08765,-0.41641 -3.91957,-1.20756 -6.29315,-1.75809 -3.9125,-0.90747 -6.51518,-1.54454 -14.10535,-3.45257 -1.37661,-0.34606 -2.86709,-0.92578 -3.31219,-1.28828 -4.56809,-3.7204 -8.75851,-1.5667 -8.75851,4.50148 0,4.98169 1.64601,6.84003 6.72881,7.59681 1.76426,0.26268 3.50585,0.70893 3.87018,0.99167 0.36435,0.28273 1.76795,0.71317 3.11913,0.95652 1.35118,0.24336 4.1831,1.06053 6.29316,1.81595 4.21353,1.50848 8.01842,2.0315 23.37835,3.21361 5.64728,0.43462 10.71492,1.06212 11.26144,1.39445 0.54651,0.33232 2.63318,0.45372 4.63706,0.26978 2.00387,-0.18395 9.00914,-0.49098 15.56727,-0.68228 z m -226.88474,-5.70138 c 3.0969,-0.40527 9.05883,-1.46805 13.24875,-2.36173 4.18991,-0.89368 9.55566,-1.90726 11.92387,-2.25241 5.34047,-0.77832 8.26727,-1.70811 9.30224,-2.95517 0.43809,-0.52788 1.2625,-0.95977 1.83199,-0.95977 3.66846,0 5.6404,-7.12667 2.7238,-9.8439 -1.23688,-1.15233 -1.55916,-1.18876 -3.14658,-0.3557 -0.9727,0.51046 -4.24261,1.68685 -7.26646,2.61419 -3.58843,1.10048 -5.61815,2.07782 -5.84412,2.81404 -0.99296,3.23509 -2.50842,4.04158 -10.84962,5.77394 -12.24741,2.54363 -23.56319,2.53303 -25.43282,-0.0238 -0.68674,-0.93918 -1.97746,-1.12398 -7.73446,-1.10738 -11.13806,0.0322 -31.35984,-3.12666 -40.03203,-6.25325 -16.76575,-6.04455 -14.98764,-6.05491 -14.98764,0.0874 0,5.91581 0.5579,6.52724 8.03205,8.80286 4.21093,1.28208 13.50013,3.33389 18.54824,4.09696 2.73256,0.41305 7.35306,1.18561 10.26778,1.71682 8.42817,1.53599 28.45531,1.64112 39.41501,0.2069 z m 248.59263,-12.477 c 2.99863,-0.43403 7.38967,-1.21457 9.75788,-1.73453 2.36821,-0.51996 5.41463,-0.94461 6.76983,-0.94365 1.35519,6.6e-4 3.52546,-0.59447 4.82282,-1.32315 1.29736,-0.72868 2.78642,-1.32487 3.30903,-1.32487 2.6393,0 3.32291,-8.28974 0.8719,-10.57319 -2.40106,-2.23693 -12.83007,0.90218 -15.60833,4.69806 -1.84965,2.52713 -12.14944,4.67526 -21.48301,4.4805 -4.78747,-0.0999 -7.27174,0.12391 -8.26573,0.74466 -1.80372,1.12645 -4.6239,-0.48429 -5.25576,-3.00182 -0.22746,-0.90624 -0.6048,-1.65945 -0.83857,-1.6738 -33.20508,-2.03866 -48.87505,-4.01102 -55.50741,-6.98663 -1.14808,-0.51509 -2.34611,-0.93653 -2.6623,-0.93653 -0.31617,0 -2.75593,-0.91638 -5.42169,-2.03642 -6.36769,-2.67542 -6.72073,-2.48905 -6.72073,3.54778 0,7.42112 3.74574,9.79038 21.19799,13.40816 4.18991,0.86856 9.09452,2.02939 10.89913,2.57962 1.80462,0.55023 5.38178,1.00286 7.94925,1.00584 2.56747,0.004 5.56242,0.26436 6.65545,0.58084 2.89664,0.83871 43.06895,0.42436 49.53025,-0.51087 z m -246.60531,-3.36312 c 1.27519,-0.32079 4.4052,-0.7794 6.95559,-1.01914 5.18107,-0.48705 15.43976,-2.67941 16.52121,-3.53073 0.38618,-0.30401 1.79534,-0.90466 3.13146,-1.33478 5.80563,-1.86895 12.84923,-8.60123 12.1043,-11.56929 -1.16188,-4.6293 -3.52023,-5.01322 -10.55898,-1.71893 -2.18605,1.02312 -4.72287,2.02253 -5.6374,2.22092 -0.91452,0.19839 -2.18402,1.24312 -2.8211,2.32163 -1.12849,1.91037 -5.1269,3.39312 -9.14997,3.39312 -0.72245,0 -2.40175,0.45468 -3.73178,1.0104 -5.21814,2.18028 -19.90522,3.32934 -22.07265,1.72689 -1.59853,-1.18184 -2.86105,-1.41772 -7.73356,-1.44493 -9.94562,-0.0555 -23.54044,-1.12651 -27.35235,-2.15477 -3.47353,-0.93699 -5.56026,-1.57234 -20.86677,-6.35336 -3.64341,-1.13803 -6.84795,-2.06671 -7.12121,-2.06374 -0.97373,0.0105 -0.47494,3.70923 0.82805,6.14034 0.72869,1.35956 1.32488,2.85126 1.32488,3.3149 0,0.46363 2.31025,1.68007 5.13388,2.70318 2.82365,1.02311 6.02818,2.26133 7.12121,2.75159 4.68472,2.10128 10.9178,3.77512 16.19605,4.34933 3.11541,0.33892 6.40962,0.80342 7.32047,1.03223 5.7105,1.43449 34.95352,1.59741 40.40867,0.22514 z m 231.19495,-13.24002 c 1.27278,-0.37287 7.23275,-0.84163 13.24437,-1.0417 11.38464,-0.37889 16.87878,-1.46369 21.73268,-4.29105 1.20493,-0.70186 2.69541,-1.2856 3.31218,-1.29718 4.78382,-0.0899 5.79486,-11.90281 1.01874,-11.90281 -0.49004,0 -0.89099,0.2981 -0.89099,0.66244 0,0.36434 -0.58402,0.66244 -1.29781,0.66244 -5.07997,0 -11.41597,1.57391 -11.94579,2.96742 -0.80783,2.12478 -8.17086,3.84765 -20.0414,4.68946 -3.18662,0.22599 -5.94804,0.66036 -6.13648,0.96527 -1.17983,1.909 -9.89347,-0.68844 -9.23797,-2.75374 0.35356,-1.11398 -0.0396,-1.23762 -4.12528,-1.29711 -13.01151,-0.18948 -33.89103,-1.6088 -38.96282,-2.64857 -6.52615,-1.33793 -14.37846,-3.42675 -19.56994,-5.20585 -6.0256,-2.06496 -7.04178,-1.70582 -6.39801,2.26122 0.99522,6.13285 3.95262,8.79536 12.19824,10.98191 2.83691,0.75229 6.64851,1.7818 8.47021,2.28781 7.80135,2.16695 27.4189,4.31759 43.71913,4.79285 5.46417,0.15931 10.05982,0.41464 10.21258,0.56739 0.46585,0.46585 2.26528,0.31258 4.69836,-0.4002 z M 217.26957,419.6656 c 3.82557,-0.26691 7.77632,-0.83219 8.77942,-1.25617 1.00311,-0.42398 3.08979,-1.34201 4.63706,-2.04006 1.54728,-0.69806 5.198,-1.77216 8.11273,-2.38688 4.73436,-0.99848 9.73339,-2.68767 15.9986,-5.40599 1.14808,-0.49811 2.42238,-0.90567 2.83175,-0.90567 1.81684,0 2.34547,-5.94577 0.62328,-7.01014 -0.33217,-0.20529 -2.01321,0.0684 -3.73563,0.60815 -1.72243,0.53978 -5.51516,1.51757 -8.4283,2.17287 -3.92095,0.88201 -5.72748,1.6504 -6.95559,2.95849 -1.72855,1.84112 -1.74709,1.84582 -16.69292,4.23476 -8.16315,1.30479 -15.22181,0.79227 -17.44331,-1.26654 -1.29554,-1.20066 -3.17882,-1.58208 -12.67577,-2.56722 -13.94428,-1.44646 -28.67328,-3.59441 -33.01458,-4.81454 -1.8217,-0.51199 -5.53499,-1.56015 -8.25175,-2.32924 l -4.93958,-1.39835 -1.18796,1.46708 c -2.86349,3.53625 1.80579,9.95588 8.95175,12.30744 1.89213,0.62265 3.5937,1.36492 3.78127,1.64948 0.37655,0.57127 10.91791,3.92558 16.39179,5.21596 1.91625,0.45173 6.45019,0.88039 10.07544,0.95258 3.62524,0.0722 6.72722,0.26749 6.89329,0.434 0.39716,0.39825 17.41621,-0.004 26.24901,-0.62001 z m 238.47739,-17.27359 c 1.27519,-0.3039 4.10711,-0.55705 6.29315,-0.56258 4.50431,-0.0114 21.95711,-2.46205 24.54738,-3.44687 0.93783,-0.35656 2.59682,-0.64829 3.68667,-0.64829 4.38861,0 7.50967,-6.65474 4.8811,-10.40753 l -1.00035,-1.42822 -4.46475,1.20974 c -2.45561,0.66535 -6.15677,1.40947 -8.2248,1.65359 -2.92309,0.34504 -3.98614,0.78889 -4.77575,1.99399 -2.36951,3.61632 -33.82934,5.54887 -34.31979,2.10823 -0.18116,-1.27096 -0.66275,-1.43849 -4.50867,-1.56842 -13.55267,-0.45788 -33.2051,-2.47631 -41.40232,-4.25228 -3.27907,-0.71043 -7.32286,-1.55842 -8.98621,-1.88443 -1.66337,-0.32601 -4.99758,-1.33548 -7.40939,-2.24328 -6.57347,-2.47424 -8.20442,1.3301 -4.00654,9.34557 2.3139,4.41818 2.26056,4.38564 9.47192,5.77746 3.0969,0.59772 6.97216,1.38152 8.61169,1.74181 12.85704,2.82529 53.48324,4.54745 61.60666,2.61151 z m -240.4647,-0.32862 c 9.53886,-1.08392 16.28343,-2.06747 20.53555,-2.99468 1.63953,-0.35752 5.36574,-1.13248 8.28046,-1.72215 2.91473,-0.58967 6.28415,-1.67205 7.4876,-2.40529 1.44531,-0.8806 2.81798,-1.20719 4.04363,-0.96206 2.55595,0.5112 3.37403,-0.57894 3.37113,-4.49229 -0.005,-6.18909 -2.82816,-8.85976 -7.043,-6.66157 -1.04358,0.54426 -2.60808,0.99142 -3.47666,0.99366 -3.68747,0.01 -6.76705,1.49249 -7.15793,3.44687 -0.50867,2.54334 -0.27606,2.45031 -11.13595,4.45355 -16.81221,3.10122 -21.56201,3.24104 -23.85946,0.70238 -1.045,-1.15469 -2.06803,-1.31436 -8.53702,-1.33237 -11.58196,-0.0322 -21.77285,-1.55891 -40.31782,-6.03995 -6.10921,-1.47617 -11.54005,-2.51802 -12.06854,-2.31521 -1.45709,0.55912 -3.00162,4.84012 -2.55391,7.07865 0.37752,1.88764 0.87934,2.25172 2.75481,1.99866 0.47984,-0.0647 1.82127,0.44202 2.98097,1.12617 3.6609,2.15971 19.53245,5.23219 34.89915,6.75592 4.18992,0.41546 9.05673,1.03885 10.81515,1.3853 1.7584,0.34645 4.20011,0.62991 5.426,0.62991 1.2259,0 2.41314,0.2981 2.63831,0.66244 0.54222,0.87733 3.00292,0.81867 12.91753,-0.30794 z m 226.2223,-16.64296 c 5.10076,-0.25535 9.45311,-0.73918 9.67187,-1.07519 0.21876,-0.33603 6.1807,-0.72704 13.24874,-0.86891 8.71739,-0.175 14.08211,-0.58571 16.67842,-1.27686 2.10509,-0.56039 5.50518,-1.21607 7.55577,-1.45708 2.26327,-0.266 4.20835,-0.9182 4.94987,-1.65972 0.67183,-0.67183 1.51394,-1.22152 1.87134,-1.22152 2.5168,0 1.17478,-7.29389 -1.51615,-8.24024 -3.76167,-1.32291 -12.38241,1.60102 -12.38241,4.19978 0,1.74355 -1.65636,2.90991 -3.36311,2.36821 -0.79164,-0.25126 -1.62571,-0.18663 -1.85349,0.14362 -0.58057,0.8418 -7.15303,2.85351 -9.32269,2.85351 -0.99045,0 -1.99344,0.1926 -2.22884,0.42801 -1.69034,1.69034 -19.26789,1.49817 -21.11034,-0.23079 -2.51093,-2.35625 -5.81243,-3.42705 -9.33746,-3.0285 -1.74012,0.19675 -5.46632,-0.0145 -8.28047,-0.46962 -2.81413,-0.45502 -7.20329,-0.9061 -9.75367,-1.00236 -2.55038,-0.0963 -5.3823,-0.3514 -6.29315,-0.56694 -0.91085,-0.21556 -2.55039,-0.54356 -3.64341,-0.72891 -1.09302,-0.18535 -3.32874,-0.65575 -4.96827,-1.04534 -1.63953,-0.38957 -5.06765,-1.11809 -7.61803,-1.61892 -2.55039,-0.50083 -5.75648,-1.38493 -7.12466,-1.96467 -5.60164,-2.37357 -11.1853,-3.22236 -12.50484,-1.90089 -2.73168,2.73566 1.92198,9.42079 7.71539,11.0834 1.81633,0.52126 5.35945,1.55951 7.87359,2.30721 4.93492,1.46765 11.15998,2.55376 16.95804,2.95873 2.00388,0.13996 6.92247,0.47688 10.93022,0.7487 4.00774,0.27183 8.33014,0.87558 9.60534,1.34169 1.27519,0.46612 2.91472,0.74406 3.6434,0.61766 0.72868,-0.12639 5.49823,-0.43872 10.599,-0.69406 z M 222.64883,384.2145 c 2.68868,-0.53925 6.37899,-1.16984 8.2007,-1.4013 5.74615,-0.73011 11.71999,-2.78478 14.82857,-5.10019 0.8689,-0.6472 2.30362,-1.17673 3.18827,-1.17673 3.89388,0 9.5169,-3.68704 10.60778,-6.95559 1.49288,-4.47304 -0.10438,-5.50484 -5.50122,-3.55371 -2.152,0.77801 -5.40321,1.9477 -7.22491,2.59933 -2.18569,0.7818 -3.65739,1.8015 -4.32719,2.99815 -1.35371,2.41852 -1.71592,2.55657 -10.90886,4.15781 -15.13862,2.63689 -22.56163,2.91582 -24.18675,0.90888 -0.89383,-1.10383 -2.24789,-1.34615 -9.6247,-1.72248 -11.25638,-0.57423 -21.53592,-1.68749 -26.47034,-2.86668 -2.18604,-0.52241 -6.0613,-1.38271 -8.61168,-1.91177 -2.55039,-0.52905 -6.89722,-1.72703 -9.65963,-2.66217 -7.44503,-2.5203 -8.74239,-2.18078 -9.4824,2.4815 -0.7156,4.50852 -0.29588,5.86429 1.81544,5.86429 0.87696,0 3.34561,0.8058 5.4859,1.79066 2.1403,0.98487 5.82907,2.15604 8.19729,2.60261 2.36821,0.44658 5.64727,1.14871 7.2868,1.5603 2.71723,0.68213 11.09867,2.05857 19.5419,3.20925 5.94203,0.80981 31.55809,0.23822 36.84503,-0.82216 z m -8.83542,-15.07399 c 1.19601,-0.34523 3.43174,-0.75101 4.96828,-0.90174 12.31984,-1.20845 25.56796,-4.4437 33.92827,-8.28546 1.45736,-0.66969 3.17186,-1.37666 3.80999,-1.57104 1.88767,-0.57498 3.36598,-4.36541 2.54486,-6.5251 -0.91659,-2.41082 -3.13128,-2.39222 -9.45138,0.0794 -2.66899,1.04376 -5.37886,2.07947 -6.02193,2.30155 -0.64306,0.2221 -1.43177,1.09442 -1.75268,1.9385 -1.07429,2.82557 -4.98846,4.1288 -16.62001,5.53367 -1.27519,0.15402 -4.40521,0.5921 -6.95559,0.97351 -5.87505,0.87863 -9.62281,0.16093 -10.7272,-2.05424 l -0.80131,-1.60727 -14.44008,-0.0836 c -18.1618,-0.10513 -25.37539,-1.55477 -41.03976,-8.24733 -7.36301,-3.14582 -7.30091,-3.17144 -7.63562,3.14949 -0.25364,4.78989 -0.25152,4.79681 1.75463,5.72009 3.08568,1.42012 11.74166,3.83474 17.24462,4.81047 1.09302,0.1938 2.8816,0.73839 3.97462,1.21017 1.09302,0.47181 3.60389,1.06005 5.57969,1.30724 1.97581,0.24717 4.21154,0.78823 4.96828,1.20235 0.84113,0.46029 5.49548,0.79114 11.9749,0.85123 9.79247,0.0908 19.46259,0.76421 20.16973,1.40457 0.16314,0.14774 0.75933,0.078 1.32487,-0.15506 0.56555,-0.233 2.00681,-0.70612 3.20282,-1.05137 z m 206.62245,0.70835 c 0.52568,-0.52568 1.70237,-0.50702 4.27272,0.0678 1.95097,0.43628 5.48486,0.6354 7.85307,0.44249 8.3056,-0.67657 24.88354,-1.37536 29.14724,-1.2286 2.36821,0.0815 5.79632,-0.15639 7.61803,-0.52869 1.8217,-0.37228 7.11825,-1.4316 11.77011,-2.35405 4.65186,-0.92244 9.21724,-1.96586 10.14529,-2.3187 0.92805,-0.35285 2.39561,-0.64153 3.26124,-0.64153 1.85742,0 2.48498,-0.83632 2.7002,-3.59848 0.26241,-3.36795 -1.11198,-6.49204 -2.68921,-6.11275 -0.73695,0.17721 -3.72467,0.82764 -6.63939,1.44541 -4.29116,0.90949 -5.74768,1.55231 -7.65498,3.37846 -2.78408,2.66559 -7.72277,3.89396 -18.18007,4.52182 -3.64341,0.21875 -8.4254,0.55661 -10.62665,0.7508 -3.7805,0.33351 -4.11969,0.24086 -6.12151,-1.67219 -1.93917,-1.85317 -2.52784,-2.03293 -6.92794,-2.11551 -21.84355,-0.40992 -47.00767,-4.93579 -58.13237,-10.45533 -4.55979,-2.26234 -5.03119,-2.18828 -6.36326,0.99984 -1.99649,4.77825 -0.23105,7.91222 5.20773,9.24468 1.00538,0.24631 1.99178,0.7129 2.19202,1.03689 0.20023,0.32397 0.84542,0.58904 1.43375,0.58904 0.58832,0 3.47717,1.17844 6.41966,2.61876 2.94248,1.44031 6.50262,2.78564 7.91141,2.98965 1.40879,0.20398 2.83393,0.53929 3.16698,0.74513 0.65889,0.40721 2.72475,0.65564 10.83252,1.30269 2.91472,0.23261 5.74664,0.68272 6.29315,1.00026 1.35158,0.78532 2.24819,0.75422 3.11026,-0.10785 z M 217.60079,353.2735 c 4.24428,-0.019 7.48873,-0.47456 11.26143,-1.58123 2.91472,-0.855 6.49188,-1.74199 7.94924,-1.97108 1.45737,-0.2291 5.63072,-1.46711 9.27413,-2.75113 3.6434,-1.28402 7.6677,-2.4956 8.9429,-2.69239 3.48073,-0.53717 3.97462,-1.24033 3.97462,-5.65869 0,-3.80776 -0.0612,-3.95254 -1.49049,-3.52675 -0.81976,0.24421 -3.42811,0.76773 -5.79632,1.16338 -8.1037,1.35388 -9.22642,1.76985 -9.68261,3.58745 -1.07924,4.30003 -31.83107,7.3031 -33.36877,3.25864 -0.81194,-2.13556 -1.4189,-2.23121 -16.23675,-2.55891 -11.64439,-0.25752 -15.91066,-0.64924 -27.49114,-2.52418 -2.36821,-0.38343 -5.20014,-0.83393 -6.29315,-1.00114 -1.09303,-0.1672 -4.78953,-1.03687 -8.21447,-1.9326 -7.28317,-1.90479 -6.87469,-2.09034 -6.95697,3.16013 l -0.0647,4.12353 3.31218,0.75072 c 1.82171,0.41289 4.50458,1.3526 5.96194,2.08823 1.45736,0.73562 4.28928,1.86496 6.29315,2.50962 2.00387,0.64466 3.9415,1.38154 4.30584,1.63749 3.68074,2.58578 19.93991,4.51457 35.44039,4.20423 7.10464,-0.14225 15.6004,-0.27064 18.87946,-0.28532 z m 233.53057,0.008 c 1.26339,-0.39718 5.42708,-0.82426 9.25266,-0.94905 6.58491,-0.21481 15.05125,-0.99795 23.19569,-2.14561 2.00959,-0.28318 4.92521,-1.17756 6.47916,-1.98753 1.55395,-0.80996 3.2417,-1.47266 3.75054,-1.47266 2.07074,0 3.73918,-3.38865 3.53476,-7.17919 -0.27556,-5.10975 -1.12346,-5.46747 -7.69863,-3.24799 -2.89212,0.97624 -6.48573,1.97125 -7.98583,2.21112 -3.04361,0.4867 -3.02675,0.46798 -1.96047,2.17536 1.13001,1.80944 0.28875,3.18475 -2.20659,3.60736 -1.21209,0.20528 -6.07905,1.13705 -10.81548,2.0706 -12.89161,2.54096 -22.85408,1.64601 -22.85408,-2.05304 0,-0.69153 0.55721,-0.93781 1.8217,-0.80518 1.00193,0.10511 1.97075,-0.096 2.15292,-0.4469 0.19086,-0.36764 -1.35305,-0.70243 -3.64341,-0.79006 -27.20444,-1.04087 -43.94626,-3.66826 -60.4456,-9.48607 -11.79828,-4.16018 -12.47593,-4.02215 -11.87447,2.4187 0.48327,5.1752 1.32449,6.88823 3.38265,6.88823 0.86103,0 3.17017,0.81977 5.13141,1.8217 4.57478,2.33712 7.36404,3.48898 10.37979,4.28647 7.33442,1.93954 14.75297,3.25185 23.58714,4.17244 5.44892,0.56782 10.00231,1.12757 10.11863,1.24389 0.5993,0.59931 24.68782,0.29922 26.69751,-0.33259 z m -0.6839,-17.39573 c 7.83332,-0.1539 15.73288,-0.58877 17.55458,-0.96639 1.8217,-0.37761 5.24982,-1.02721 7.61803,-1.44357 5.27979,-0.92823 12.2291,-4.31768 13.19389,-6.43517 1.05683,-2.31948 3.26094,-2.87376 5.78658,-1.4552 2.75702,1.54853 3.67612,0.56444 3.74513,-4.00989 0.0612,-4.05671 -0.3398,-4.50391 -3.04338,-3.39401 -4.63004,1.90076 -9.15397,3.30198 -12.07485,3.73999 -2.39751,0.35952 -3.19682,0.80453 -3.66716,2.0416 -0.9778,2.57182 -7.42621,3.82523 -23.48211,4.56436 -3.27906,0.15096 -6.40907,0.33018 -6.95559,0.39829 -2.87212,0.35792 -4.11838,-0.16084 -4.81405,-2.0039 l -0.72435,-1.91902 -9.32027,-0.43296 c -17.53456,-0.81455 -34.67448,-3.06409 -43.10458,-5.65729 -1.09303,-0.33623 -3.62684,-1.1004 -5.63072,-1.69817 -2.00387,-0.59777 -5.22037,-1.83082 -7.14777,-2.74012 -4.19259,-1.97797 -5.13104,-1.73507 -6.1032,1.57963 -1.16611,3.97608 -0.11193,7.66498 2.34583,8.20874 1.07923,0.23877 3.45272,1.10068 5.27443,1.91536 1.8217,0.81467 4.20647,1.76138 5.29949,2.1038 4.8641,1.52382 14.88918,4.0368 18.21703,4.56647 2.00387,0.31893 6.62437,1.05681 10.26777,1.63972 6.71633,1.07454 18.77588,2.11737 21.19799,1.83305 0.72868,-0.0855 7.73396,-0.28142 15.56728,-0.43532 z m -230.45117,-0.69085 c 2.77488,-0.11243 5.34946,-0.39245 5.72129,-0.62224 0.37182,-0.2298 3.7653,-0.71896 7.54105,-1.08703 9.01607,-0.87888 12.06443,-1.4363 19.69347,-3.60109 5.66228,-1.60672 7.58693,-4.2163 6.69739,-9.08081 -0.62257,-3.40455 -0.99167,-3.69164 -3.1509,-2.45073 -0.99072,0.56938 -3.12258,1.23663 -4.73745,1.48281 -6.20018,0.94513 -10.67546,2.63367 -11.06575,4.17513 -1.26234,4.98561 -30.23663,7.17426 -32.31833,2.44125 -0.5815,-1.3221 -1.2427,-1.41174 -13.24874,-1.79619 -16.63293,-0.53262 -22.43453,-1.27492 -36.94545,-4.72716 -11.05842,-2.63086 -12.2273,-2.79382 -13.28457,-1.85198 -2.40244,2.14016 -1.01887,10.08994 1.75877,10.10556 0.39895,0.002 1.61966,0.47896 2.71269,1.05936 4.39096,2.33161 22.40263,5.02891 36.54568,5.47281 7.3482,0.23064 13.56222,0.62174 13.80893,0.86912 0.24671,0.24739 3.77363,0.3071 7.83761,0.1327 4.06398,-0.17439 9.65942,-0.40907 12.43431,-0.52151 z m 1.91034,-16.29073 c 2.73255,-0.34248 8.09829,-0.95758 11.92387,-1.36688 3.82557,-0.4093 7.82586,-1.16582 8.88953,-1.68115 1.06366,-0.51534 3.86422,-1.24533 6.22348,-1.62223 5.46409,-0.8729 6.11638,-1.24813 9.0012,-5.17804 4.48805,-6.11395 3.29452,-7.93055 -4.03611,-6.14315 -2.8453,0.69376 -6.36565,1.53168 -7.82301,1.86204 -1.63223,0.37 -2.57738,0.93516 -2.46127,1.47173 0.8305,3.83832 -3.04675,4.61616 -21.38647,4.29049 -13.66935,-0.24274 -13.93422,-0.27427 -15.23606,-1.81388 -1.32287,-1.56447 -6.43908,-2.01457 -29.14723,-2.56424 -2.80226,-0.0678 -12.73811,-1.21168 -15.8985,-1.8303 -16.98607,-3.32484 -17.55458,-3.22771 -17.55458,2.99932 0,4.54771 1.14971,5.61441 6.05127,5.61441 1.94421,0 3.62449,0.35131 14.8155,3.09768 9.12422,2.23915 11.65754,2.80278 13.57996,3.02137 4.49728,0.51136 38.72117,0.38644 43.05842,-0.15717 z m 240.4647,-0.94743 c 16.17826,-1.40333 21.35494,-2.20956 26.33885,-4.10208 2.28096,-0.86614 4.63759,-1.57481 5.23697,-1.57481 2.85559,0 5.59819,-3.28285 5.38891,-6.45045 -0.29291,-4.43356 -1.32619,-4.78981 -7.6033,-2.62146 -2.85036,0.98462 -6.62247,1.98193 -8.38247,2.21624 -2.43709,0.32446 -3.32872,0.76465 -3.74,1.84637 -2.04091,5.36801 -34.32937,7.48902 -35.46259,2.32952 l -0.42988,-1.95728 -9.59072,0 c -5.27488,0 -11.73481,-0.31483 -14.35537,-0.69962 -24.94047,-3.66214 -30.50781,-4.98557 -41.18154,-9.78943 -6.81406,-3.06676 -7.63519,-2.88747 -7.63519,1.66704 0,3.20214 3.60215,9.76912 5.05318,9.21232 0.41616,-0.1597 1.46159,0.20692 2.32319,0.81472 2.94152,2.07505 8.18629,4.20595 12.49674,5.07732 11.7244,2.37012 18.60918,3.60444 22.52287,4.03798 4.19235,0.4644 31.79882,1.38004 35.10917,1.16448 0.91085,-0.0593 7.17088,-0.58619 13.91118,-1.17086 z M 206.33935,301.91079 c 2.91473,-0.10978 8.72761,-0.30918 12.91753,-0.44311 14.79307,-0.4729 26.63276,-1.73346 29.72317,-3.16462 1.59196,-0.73722 4.29993,-1.50686 6.0177,-1.7103 4.1183,-0.48775 4.92388,-1.77553 4.32713,-6.91719 -0.54871,-4.72774 -0.54301,-4.72373 -5.37895,-3.7836 -3.70834,0.72092 -5.38188,0.93903 -8.66945,1.12987 -1.07409,0.0623 -1.62124,0.6669 -2.02579,2.23834 -0.70894,2.75377 -4.61854,3.53636 -21.01284,4.20619 l -11.26144,0.4601 -2.14364,-1.80459 -2.14365,-1.8046 -10.11144,0.25765 c -15.0963,0.38467 -38.80207,-1.73976 -47.02502,-4.21421 -5.37301,-1.61685 -5.60246,-1.50537 -6.16477,2.99519 -0.57047,4.56592 0.26934,6.1771 3.50578,6.72584 1.36185,0.23091 4.96893,0.99136 8.01575,1.68989 3.04682,0.69853 7.07112,1.42468 8.9429,1.61365 1.87178,0.18897 5.04277,0.62057 7.04664,0.9591 2.00388,0.33853 8.51792,0.77995 14.47564,0.98093 5.95774,0.20098 11.32348,0.6498 11.92387,0.99737 0.6004,0.34757 1.68783,0.44198 2.41651,0.20982 0.72868,-0.23218 3.70965,-0.51195 6.62437,-0.62172 z m 264.64366,-0.47815 c 10.34966,-1.85053 15.16605,-3.0248 19.3057,-4.70689 2.2594,-0.91809 5.06156,-1.66924 6.227,-1.66924 2.02864,0 2.13649,-0.13414 2.52964,-3.14658 0.98488,-7.54627 -0.65419,-8.50718 -9.39295,-5.5067 -3.25001,1.11589 -6.70087,2.0289 -7.66859,2.0289 -1.25061,0 -1.93534,0.46257 -2.36756,1.59941 -0.33446,0.87968 -1.14684,1.75344 -1.80532,1.94169 -5.16229,1.4759 -10.59779,2.02673 -20.28787,2.05599 l -11.14142,0.0336 -1.7761,-2.08391 -1.77611,-2.0839 -9.27412,-0.41485 c -21.60137,-0.96627 -47.42917,-5.33805 -55.83613,-9.45118 -5.89512,-2.88422 -9.05218,1.68022 -4.84035,6.99811 1.12793,1.42412 2.05079,2.90756 2.05079,3.29651 0,0.38895 1.24901,1.04351 2.77556,1.45456 1.52656,0.41107 4.13491,1.44757 5.79633,2.30334 13.34972,6.87628 65.58726,11.26582 87.4815,7.35111 z M 220.03676,284.49957 c 4.02693,-0.5558 6.47715,-0.59209 8.18267,-0.12117 1.97148,0.54435 3.10152,0.42265 5.94142,-0.6399 1.92881,-0.72166 6.53226,-1.57489 10.22991,-1.89607 4.33682,-0.3767 7.32613,-0.97917 8.42234,-1.69742 0.93464,-0.61241 2.37791,-0.98375 3.20726,-0.82521 2.91125,0.55653 4.48882,-1.48217 3.94631,-5.09984 -0.90342,-6.02448 -0.8307,-6.01331 -17.27436,-2.65323 -0.91163,0.18627 -1.53952,0.95513 -1.78585,2.18677 -0.94466,4.72327 -31.04828,7.25181 -32.90718,2.76401 l -0.77957,-1.88204 -9.7143,0.0229 c -21.357,0.0504 -38.54251,-1.34622 -47.142,-3.83115 -6.8709,-1.98542 -6.40439,-2.06953 -6.90134,1.24432 -0.83347,5.55799 -0.34563,6.16424 7.31957,9.09613 2.39342,0.91546 18.2458,3.41405 19.52996,3.07823 0.66641,-0.17427 2.78524,0.0742 4.70852,0.55223 4.38996,1.09104 36.49116,0.87812 45.01664,-0.29859 z m 245.97797,-0.71844 c 13.63249,-1.09805 16.46472,-1.60496 24.60502,-4.40372 l 7.38165,-2.53793 0.39825,-2.88054 c 0.35336,-2.55584 0.17843,-4.60881 -0.61326,-7.19762 -0.17916,-0.58582 -0.74847,-0.62885 -2.0976,-0.15855 -1.01843,0.35502 -4.68361,1.02327 -8.14485,1.485 -6.15061,0.82047 -6.29798,0.88115 -6.50622,2.67851 -0.265,2.28731 -1.3335,2.7432 -9.39227,4.0074 -17.10503,2.68329 -27.37787,1.40199 -28.67995,-3.57718 -0.33106,-1.26596 -8.65823,-1.92407 -23.32137,-1.84311 -13.8174,0.0763 -39.82999,-4.44809 -43.02529,-7.48338 -0.99033,-0.94073 -4.09326,-0.69838 -4.99676,0.39025 -2.3936,2.88412 0.36789,12.86248 3.30196,11.93125 0.65055,-0.20648 2.18485,0.19971 3.40956,0.90265 1.22471,0.70293 2.97198,1.49298 3.88283,1.75565 0.91085,0.26268 2.13851,0.90017 2.72813,1.41663 0.60922,0.53364 3.75504,1.22369 7.28681,1.59841 3.41812,0.36265 10.68622,1.40538 16.15133,2.31716 15.7011,2.61954 37.46577,3.22345 57.63203,1.59912 z m -257.2772,-14.65006 c 6.6965,-0.42948 13.36783,-0.87147 14.82519,-0.98218 1.45736,-0.11071 5.89544,-0.34718 9.86239,-0.52547 8.3055,-0.37329 10.46239,-0.76066 13.60383,-2.44321 1.24752,-0.66816 3.8468,-1.56812 5.77615,-1.99988 5.35854,-1.1992 8.54253,-6.64133 5.95552,-10.17928 -0.94076,-1.28656 -2.19898,-1.08463 -13.66868,2.19375 -0.99513,0.28443 -1.73807,1.0437 -1.86147,1.9024 -0.753,5.23942 -32.68937,8.13458 -34.58993,3.13571 -0.69353,-1.82413 -1.8218,-2.1049 -2.40031,-0.59733 -0.33574,0.87492 -0.50634,0.85233 -1.25058,-0.1656 -0.74079,-1.01324 -2.00872,-1.18747 -9.03016,-1.24093 -16.13282,-0.12282 -32.98284,-1.65894 -43.27754,-3.94536 -9.41258,-2.09051 -8.70716,-2.19205 -9.23522,1.32931 -0.36686,2.44641 -0.21084,3.47168 0.74193,4.87537 0.66356,0.97762 1.37957,2.20752 1.59111,2.7331 0.21155,0.52559 1.85108,1.312 3.64341,1.7476 1.79233,0.43559 5.52725,1.39865 8.29984,2.14013 3.5581,0.95155 6.24025,1.25239 9.11748,1.02265 2.24203,-0.17901 5.63739,-0.0218 7.54524,0.34926 1.90785,0.37111 7.34408,0.86577 12.08051,1.09926 4.73643,0.23348 8.72779,0.53823 8.86969,0.67723 0.1419,0.13899 0.47584,0.11808 0.74208,-0.0464 0.26624,-0.16455 5.96303,-0.65058 12.65952,-1.08007 z m 261.91426,-4.87021 c 8.06346,-0.90861 21.42486,-3.09954 24.01917,-3.93851 2.25535,-0.72937 4.00559,-4.43731 4.24194,-8.9867 0.27501,-5.29369 -0.40529,-5.57089 -7.59261,-3.09378 -2.6235,0.90419 -6.19679,1.85662 -7.94063,2.11649 -2.73225,0.40717 -3.29055,0.75926 -4.0381,2.5466 -1.99597,4.77229 -34.85604,6.46768 -34.85604,1.79837 0,-1.95817 -0.49477,-2.07317 -11.75897,-2.73298 -5.73797,-0.3361 -14.45698,-1.0856 -19.37557,-1.66554 -6.10508,-0.71985 -9.78375,-0.8635 -11.59266,-0.45269 -3.86343,0.8774 -17.99155,-0.17983 -23.83825,-1.78384 -6.74509,-1.85049 -6.96507,-1.82123 -6.96507,0.92636 0,4.53667 1.70951,6.72764 6.22113,7.97318 2.22565,0.61445 5.38808,1.70336 7.02761,2.41982 3.78066,1.65208 11.09551,3.22196 16.22971,3.48314 2.18604,0.11121 12.17228,0.55295 22.19165,0.98166 10.01936,0.4287 18.81321,0.87723 19.54189,0.99672 3.76162,0.61682 20.93837,0.26207 28.4848,-0.5883 z m -244.1081,-12.26332 c 11.53464,-0.76816 17.50313,-1.83187 22.37785,-3.9882 3.18471,-1.40874 5.85993,-1.65629 7.39613,-0.68439 3.84429,2.43216 6.05142,-7.49451 2.34947,-10.56687 -0.5439,-0.45139 -0.9889,-1.3804 -0.9889,-2.06447 0,-1.52541 0.29852,-1.55773 -3.5234,0.38135 -1.7557,0.89076 -4.58762,1.80009 -6.29315,2.02071 -5.81123,0.75173 -5.98298,0.83815 -6.20574,3.12289 -0.23889,2.45016 -0.39229,2.5045 -11.80008,4.18008 -12.8737,1.89089 -24.51017,0.75591 -24.51017,-2.39063 0,-0.25451 -5.44027,-0.45878 -12.08948,-0.45391 -20.71399,0.0152 -31.84349,-1.3601 -44.49345,-5.4979 -2.15554,-0.70509 -3.98201,-1.20734 -4.0588,-1.11611 -1.21104,1.43846 -2.95224,6.33844 -2.95224,8.30798 0,3.15655 0.83874,3.65222 8.61168,5.0893 3.09689,0.57256 6.67405,1.31067 7.94925,1.64024 6.44404,1.66545 11.05524,2.31686 19.21068,2.71382 11.58041,0.56367 35.14605,0.2301 49.02035,-0.69389 z m 229.8657,-5.95505 c 21.37199,-1.18947 28.48591,-2.23471 33.75531,-4.95963 1.19324,-0.61704 3.19275,-1.0088 4.55145,-0.89173 2.19483,0.18909 2.53005,-0.01 3.55566,-2.10699 2.73741,-5.59819 0.76326,-9.93045 -3.50926,-7.70101 -0.94836,0.49487 -3.18408,1.09721 -4.96828,1.33853 -7.24877,0.98045 -8.21226,1.21685 -8.21226,2.01496 0,5.46855 -32.65507,7.40661 -37.81725,2.24443 -2.33533,-2.33533 -16.15599,-1.70476 -22.71665,1.03645 -5.0161,2.09586 -43.94868,-0.0451 -48.22564,-2.6519 -1.02547,-0.62504 -1.02124,0.87639 0.006,2.14512 0.68064,0.8406 2.63149,1.69406 5.06184,2.21444 2.17492,0.46569 4.85779,1.23412 5.96194,1.70761 3.17019,1.35949 10.93968,3.10046 14.92507,3.34438 2.00387,0.12264 8.11485,0.69061 13.57997,1.26215 16.45792,1.72118 23.64305,2.22424 27.82236,1.94798 2.18604,-0.14449 9.4894,-0.56965 16.22971,-0.94479 z M 219.5881,235.3755 c 8.01549,-0.76138 18.15078,-1.99741 22.52286,-2.74672 4.37209,-0.74932 9.5091,-1.40525 11.41558,-1.45764 6.68268,-0.18361 10.35168,-7.4795 6.05913,-12.04872 -1.74257,-1.85488 -3.23231,-2.04191 -3.23231,-0.40578 0,1.14705 -7.84056,3.47298 -11.70423,3.4721 -0.91117,-2e-4 -1.93128,0.80031 -2.7896,2.18911 -3.23612,5.23616 -36.51383,9.61314 -36.51383,4.80263 0,-1.83012 -1.99806,-2.24756 -12.58631,-2.62955 -15.44555,-0.55724 -30.90889,-2.19269 -39.41501,-4.16864 -11.15568,-2.59146 -11.14834,-2.59258 -11.73986,1.79344 -0.89773,6.65643 -0.56514,7.00269 7.64009,7.95376 4.7917,0.55541 11.64355,2.11174 13.00702,2.95442 0.40366,0.24947 3.48326,0.57047 6.84355,0.71332 6.1005,0.25934 14.59578,0.95558 14.8621,1.21804 0.56527,0.55707 23.72328,-0.50869 35.63082,-1.63977 z m 254.04466,-7.2037 c 9.85916,-0.79474 14.19382,-1.68493 17.97545,-3.69159 1.68884,-0.89615 3.81815,-1.62936 4.73179,-1.62936 1.82646,0 2.46537,-1.06051 2.46537,-4.09221 0,-2.6393 -1.96647,-5.94012 -3.28906,-5.52085 -0.55923,0.17728 -3.99775,0.76635 -7.64115,1.30905 -5.08365,0.75723 -6.85548,1.29299 -7.61803,2.30352 -0.54651,0.72424 -1.4408,1.91625 -1.98731,2.64892 -2.07562,2.78263 -26.12028,3.80529 -33.0684,1.40647 -1.97448,-0.68169 -3.97781,-1.0906 -4.45187,-0.90868 -0.47405,0.18191 -5.71479,-0.15345 -11.6461,-0.74525 -5.9313,-0.59179 -13.76516,-1.37387 -17.40857,-1.73794 -6.68702,-0.66823 -12.97469,-1.47851 -20.86677,-2.68907 -6.77613,-1.0394 -19.77238,-4.44254 -23.81138,-6.23515 -3.81669,-1.69395 -6.46897,-2.35388 -36.86961,-9.17389 -4.04514,-0.90747 -12.09376,-2.91012 -17.8858,-4.45031 -13.75402,-3.65741 -20.69678,-1.65032 -13.8751,4.01118 0.56406,0.46812 1.02556,1.49649 1.02556,2.28525 0,1.43382 8.37901,4.74415 15.23605,6.01936 1.2752,0.23715 6.1938,1.42768 10.93022,2.64564 19.40489,4.98989 22.01456,5.60075 25.50383,5.96986 5.35347,0.56631 20.49155,3.58297 23.25731,4.63462 1.31479,0.49993 5.78624,1.52839 9.93656,2.28545 4.1503,0.75705 9.18555,1.79734 11.18942,2.31174 2.00388,0.5144 5.28294,1.13281 7.28681,1.37424 2.00387,0.24144 5.24253,0.89103 7.19704,1.44353 2.33584,0.66031 4.94644,0.8783 7.61802,0.63613 2.23542,-0.20264 5.40584,-0.13891 7.04537,0.14163 3.80819,0.6516 39.0046,0.25506 49.02035,-0.55229 z m -245.7642,-7.57867 c 3.82558,-0.50267 9.93656,-1.69428 13.57997,-2.64803 11.39354,-2.98252 11.79763,-3.04655 13.24331,-2.09839 1.18407,0.77659 1.60884,0.57182 4.14023,-1.99589 4.69725,-4.76466 3.79117,-8.1069 -1.89548,-6.99179 -1.96031,0.38441 -5.34359,0.90326 -7.51841,1.15303 -4.30849,0.4948 -7.03148,1.51595 -9.68126,3.63059 -1.17542,0.93804 -3.35435,1.55946 -6.95559,1.98371 -2.88419,0.33978 -7.62876,0.94051 -10.54348,1.33497 -9.37837,1.26919 -14.49497,0.68021 -14.90565,-1.71582 l -0.34063,-1.98731 -10.59388,-0.47222 c -29.80546,-1.32855 -35.07738,-1.82486 -48.94464,-4.60769 -5.37457,-1.07856 -6.65405,-1.15703 -7.11106,-0.43617 -2.42735,3.82874 6.2088,12.3384 13.00239,12.81196 2.44878,0.1707 7.47204,0.72763 20.20433,2.24011 2.73256,0.3246 6.73899,0.62901 8.90317,0.67645 2.1642,0.0474 4.10183,0.265 4.30585,0.48343 0.64619,0.69184 33.85478,-0.4075 41.11083,-1.36094 z m 278.93493,-18.30779 10.21891,-3.34215 4.49702,-4.44149 c 7.55374,-7.46044 9.6857,-15.85562 6.82029,-26.85668 -2.48384,-9.53608 -12.74756,-18.49426 -18.45856,-16.11064 -1.17308,0.48961 -4.21956,1.26571 -6.76994,1.72465 -2.55038,0.45895 -7.18927,1.6837 -10.30863,2.72169 -3.11937,1.03799 -8.93225,2.53731 -12.91752,3.33184 -3.98528,0.79452 -8.35473,2.00273 -9.70989,2.68492 -1.35517,0.68219 -4.03804,1.65417 -5.96194,2.15996 -1.9239,0.50579 -4.24324,1.21149 -5.15409,1.56821 -4.83868,1.89503 -6.95636,2.24504 -11.14853,1.84267 -2.43031,-0.23326 -9.63543,-0.52749 -16.01139,-0.65383 -11.33709,-0.22463 -23.18191,-2.73671 -26.83711,-5.69168 -0.36896,-0.29829 -1.8386,-0.63907 -3.26587,-0.7573 -2.86369,-0.23723 -3.04003,-0.64115 -5.01033,-11.4764 -1.34146,-7.37711 -1.90077,-8.56038 -3.4035,-7.20043 -0.87647,0.79319 -2.60458,1.22471 -5.39946,1.34826 -6.8393,0.30236 -13.16297,1.93238 -18.6585,4.80951 -1.44332,0.75563 -2.96213,1.37387 -3.37513,1.37387 -0.41301,0 -1.29047,0.5962 -1.94992,1.32488 -0.65944,0.72868 -1.59993,1.32487 -2.08998,1.32487 -0.49004,0 -0.89359,0.22358 -0.89678,0.49684 -0.004,0.27324 -1.79176,1.6475 -3.97462,3.05388 -2.18286,1.40638 -3.98191,3.04592 -3.99791,3.64341 -0.016,0.59748 -0.49064,2.27873 -1.05479,3.73609 -3.0526,7.88588 -1.75758,20.73776 2.55188,25.32497 2.1372,2.27495 2.50661,1.87971 2.50661,-2.68187 0,-10.99115 6.746,-21.29961 12.49308,-19.09049 0.96213,0.36983 2.95431,0.85539 4.42708,1.07902 5.24436,0.79633 8.10108,4.92897 5.60271,8.10513 -3.59987,4.57648 -1.49927,13.80453 3.98882,17.52314 5.54905,3.75992 7.73314,2.92126 4.62286,-1.7751 -3.74631,-5.65675 -0.85626,-12.69063 6.72824,-16.37535 6.40401,-3.11121 12.1977,-1.54062 8.66,2.3476 -3.41226,3.75035 -4.83332,12.45136 -2.7421,16.7895 2.04183,4.23564 2.20469,4.30855 11.53282,5.16272 1.09302,0.10008 4.9743,0.65828 8.62507,1.24043 7.4349,1.18557 8.10868,1.10504 14.39462,-1.72044 5.76102,-2.58953 5.64475,-2.89073 -1.32488,-3.4324 -11.50578,-0.89421 -20.23907,-3.25585 -20.58162,-5.56566 -0.24575,-1.65713 3.55823,-1.8723 13.46043,-0.76139 5.19441,0.58275 18.56346,-0.31219 19.72922,-1.32072 1.94777,-1.68504 -0.48107,-2.65825 -6.71696,-2.69143 -7.04203,-0.0375 -24.22211,-2.63042 -25.42973,-3.83805 -2.42318,-2.42318 5.1351,-4.01303 15.72965,-3.30867 9.00208,0.59847 24.80846,-0.39481 38.09014,-2.39362 3.46124,-0.52089 10.46651,-1.57213 15.56728,-2.33609 15.13524,-2.26684 28.4256,-7.1957 33.25369,-12.33245 4.34023,-4.6177 5.50591,-2.65583 3.94349,6.63694 -0.61733,3.67164 -1.1161,8.96656 -1.10838,11.76647 0.0187,6.80486 -7.799,18.42576 -12.39558,18.42576 -0.49632,0 -1.6512,0.80797 -2.5664,1.79548 -0.9152,0.98752 -3.65836,2.763 -6.09592,3.94552 -6.31046,3.06139 -3.8889,2.71258 7.87205,-1.1339 z m -147.10993,-2.63618 c 0,-0.37336 -0.68296,-0.9385 -1.51771,-1.25587 -0.83473,-0.31737 -1.88746,-1.02256 -2.33938,-1.5671 -0.45193,-0.54453 -2.28202,-1.61828 -4.06689,-2.38611 -12.48401,-5.37047 -11.93785,-31.63862 0.87507,-42.08685 9.60589,-7.83308 25.65228,-15.47512 36.19615,-17.2383 4.10286,-0.6861 4.13109,-0.84803 1.35196,-7.75404 -6.90776,-17.16547 -13.33398,-25.35525 -27.18701,-34.647954 -2.36821,-1.5886 -6.98871,-4.99821 -10.26778,-7.57689 -4.44368,-3.49455 -6.48378,-4.69115 -8.01115,-4.69885 -1.12707,-0.006 -3.80994,-0.62259 -5.96193,-1.37089 -10.16915,-3.53608 -20.68174,-4.71043 -26.49592,-2.95986 -1.78851,0.53852 -5.04043,1.15694 -7.22647,1.37429 -12.2652,1.2195 -34.11552,9.65855 -34.11552,13.17613 0,0.45032 -0.81977,1.18633 -1.8217,1.63557 -3.69521,1.65685 -7.87223,4.99761 -9.46157,7.56731 -0.89884,1.453284 -2.25048,3.413774 -3.00365,4.356644 -0.75316,0.94286 -1.77822,2.75764 -2.2779,4.03283 -0.49968,1.27519 -1.59751,3.24096 -2.43962,4.36837 -0.84211,1.12741 -1.53111,2.53487 -1.53111,3.12769 0,0.59282 -0.73387,2.73725 -1.63081,4.76541 -0.89696,2.02817 -1.80819,4.64501 -2.02496,5.81521 l -0.39413,2.12765 8.1525,2.50679 c 4.48386,1.37874 9.94107,2.95652 12.12711,3.50619 2.18604,0.54966 5.16701,1.5653 6.62437,2.25696 1.45736,0.69167 4.21218,1.86592 6.12182,2.60944 11.16914,4.34876 20.13759,15.34733 20.29763,24.89223 0.11459,6.83442 -0.92405,14.88444 -2.29304,17.77213 l -1.20229,2.53609 3.44278,1.50294 c 3.39972,1.48415 9.67284,3.29328 20.0037,5.76896 5.08131,1.21768 7.28484,1.71243 25.17262,5.65186 4.37208,0.96287 9.29068,1.96287 10.93021,2.22224 1.63953,0.25937 3.20454,0.51141 3.47779,0.5601 0.27326,0.0487 0.49683,-0.21697 0.49683,-0.59032 z m -94.74007,-1.96674 c 12.51749,-4.52015 21.87198,-10.27933 21.87198,-13.46569 0,-0.88677 0.46433,-1.99768 1.03184,-2.46867 3.16656,-2.628 5.20575,-9.10983 5.03339,-15.99919 -0.0466,-1.86147 -4.05605,-12.11859 -5.74431,-14.6952 -0.53295,-0.81338 -2.93707,-2.57276 -5.34251,-3.90974 l -4.37352,-2.43086 -5.40462,1.00195 c -2.97253,0.55107 -6.92128,1.43866 -8.77501,1.97241 -1.85372,0.53375 -4.2385,0.97051 -5.2995,0.97057 -2.22444,1.4e-4 -11.22922,1.65812 -15.15484,2.79035 -1.47001,0.42399 -3.41798,1.58015 -4.32883,2.56927 -5.26926,5.72198 -35.88454,8.03603 -55.97594,4.23092 -4.99482,-0.94596 -9.60534,-2.64371 -9.60534,-3.537 0,-0.30411 -1.19239,-1.09063 -2.64975,-1.74781 -1.48392,-0.66915 -2.65099,-1.66066 -2.65258,-2.25352 -10e-4,-0.58227 -0.89458,-2.4001 -1.98448,-4.03963 -1.49929,-2.25539 -1.98233,-3.7438 -1.98448,-6.11493 -0.004,-3.36216 0.11882,-3.26121 -4.86854,-4.03284 -1.0366,-0.16039 -3.71947,0.28948 -5.96193,0.99969 -2.24247,0.71021 -6.46197,1.37629 -9.3767,1.48017 -5.23509,0.18658 -6.81008,0.49229 -15.89849,3.086 -6.36332,1.816 -12.7397,5.18851 -16.19642,8.5664 -4.73613,4.62811 -5.74257,20.24672 -1.68953,26.21921 0.81037,1.19414 1.66102,3.34457 1.89036,4.77874 0.46613,2.91504 2.91646,5.25275 10.12861,9.66308 2.23826,1.36873 4.64798,3.02748 5.35492,3.68609 1.35142,1.25903 6.82032,2.5287 6.78417,1.57501 -0.0116,-0.30528 -2.0965,-1.98666 -4.63316,-3.7364 -3.29572,-2.2733 -4.715,-3.69137 -4.97253,-4.96828 -0.19822,-0.98281 -0.94521,-2.88933 -1.65998,-4.23671 -0.71478,-1.34737 -1.30908,-3.58309 -1.32066,-4.96827 -0.0116,-1.38518 -0.45874,-3.09716 -0.99365,-3.80439 -2.48073,-3.27981 -0.79144,-10.85289 3.85063,-17.26236 5.06859,-6.99839 5.97797,-7.47605 8.82083,-4.63319 0.91299,0.91299 2.76254,2.24771 4.11012,2.96605 5.02306,2.67759 4.97552,2.54617 2.78191,7.68939 -3.16156,7.41272 -2.69589,15.39279 1.10656,18.96291 0.66629,0.62557 1.95668,1.91691 2.86753,2.86963 2.0049,2.09707 3.30504,2.64111 7.61803,3.18779 3.56349,0.45168 3.61755,0.56385 -1.23914,-2.57098 -6.06312,-3.91355 -5.62301,-10.17143 1.39908,-19.89316 3.8833,-5.37622 10.90546,-3.78585 7.18262,1.62671 -3.70058,5.38018 -3.91271,8.89291 -0.90904,15.05326 2.0561,4.21691 2.08558,4.39454 0.87641,5.27871 -1.81532,1.32739 -1.32524,1.49976 6.3139,2.22075 3.80145,0.35877 9.05401,0.97295 11.67236,1.36482 11.27612,1.68765 15.62498,0.68955 14.86005,-3.41045 -0.0433,-0.23227 -3.13428,-0.79654 -6.86877,-1.25394 -16.105,-1.97255 -16.78351,-5.89601 -0.86277,-4.989 8.63321,0.49183 9.20987,0.33929 10.94036,-2.89416 0.57968,-1.08315 -0.0852,-1.23898 -8.45042,-1.98062 -11.18732,-0.99184 -11.52391,-1.0581 -13.46728,-2.65124 -2.77558,-2.27537 -0.41777,-3.79548 4.50351,-2.90346 2.14666,0.38909 4.6322,0.45573 5.68941,0.15252 1.03256,-0.29613 9.68789,-0.73278 19.23407,-0.97034 9.54617,-0.23755 18.4494,-0.70606 19.78496,-1.04113 3.22543,-0.80919 16.78971,-2.50973 23.35329,-2.92776 2.88532,-0.18376 5.56818,-0.59452 5.96194,-0.9128 0.39375,-0.31828 2.50449,-0.93751 4.69053,-1.37606 2.18605,-0.43855 5.31606,-1.38666 6.95559,-2.10689 1.63953,-0.72025 4.32241,-1.43447 5.96194,-1.58716 2.02597,-0.18868 3.27213,-0.70392 3.88981,-1.6083 0.54963,-0.80474 1.64937,-1.33068 2.78244,-1.33068 1.03048,0 2.11198,-0.38335 2.40334,-0.85188 1.98203,-3.18727 7.55535,-4.95964 8.42984,-2.68075 0.58192,1.51647 -0.79522,2.8587 -1.59889,1.55835 -0.81983,-1.32652 -1.63867,0.73355 -1.1041,2.77775 0.208,0.79537 0.0729,1.81391 -0.30016,2.26345 -0.46296,0.55783 -0.46126,1.60348 0.005,3.2934 0.92684,3.35674 0.0719,6.79806 -3.57788,14.40177 -1.63927,3.41516 -2.98051,6.54223 -2.98051,6.94903 0,0.40681 -0.87312,1.19116 -1.94027,1.74301 -1.06715,0.55185 -2.03597,1.65455 -2.15292,2.45045 -0.26368,1.79438 -5.04262,5.2214 -9.48677,6.80302 -1.8217,0.64832 -3.90837,1.42354 -4.63706,1.7227 -0.72868,0.29916 -1.77202,0.69124 -2.31853,0.87128 -0.5465,0.18006 -0.0707,0.3509 1.05732,0.37966 1.12803,0.0288 4.5223,-0.84011 7.54281,-1.93083 z m 203.74456,-40.92344 2.64559,-1.34968 -0.11453,-4.86619 c -0.14821,-6.29588 -1.28022,-15.61423 -2.18577,-17.99245 -0.39055,-1.02565 -0.71008,-2.58024 -0.71008,-3.45464 0,-0.87441 -0.41467,-2.86715 -0.9215,-4.42833 -1.43502,-4.42035 -2.85649,-9.67335 -4.07783,-15.06956 -0.61549,-2.71933 -1.50567,-5.84934 -1.97821,-6.95559 -0.47254,-1.10624 -1.52043,-3.650884 -2.32864,-5.654754 -5.17968,-12.84228 -12.88382,-27.44193 -18.13392,-34.36449 -1.48543,-1.95863 -3.33361,-4.42873 -4.10706,-5.48911 -0.77344,-1.06038 -2.5668,-3.03502 -3.98523,-4.38809 -1.41843,-1.35308 -4.47979,-4.62948 -6.80302,-7.2809 -21.4572,-24.4884 -70.03129,-42.0931004 -107.95601,-39.1264804 -12.81502,1.00244 -25.48775,2.63955 -27.24174,3.51918 -2.30125,1.1540804 -6.95282,1.8788104 -11.21159,1.7468004 -2.07327,-0.0643 -5.31423,0.44449 -7.66074,1.20257 -2.23695,0.72268 -5.24035,1.60566 -6.67422,1.96218 -3.51367,0.87364 -11.77505,4.01806 -12.20115,4.64397 -0.50547,0.74248 -12.3678,6.61553 -16.48487,8.16167 -1.95588,0.73451 -5.83706,3.16397 -8.62484,5.3988 -2.78779,2.23483 -6.38393,4.95762 -7.99141,6.05064 -8.09808,5.50636 -19.45346,19.15933 -26.9319,32.38117 -1.41819,2.50735 -3.1294,5.48831 -3.80268,6.62437 -6.32342,10.6697 -11.92049,23.721104 -12.97151,30.247394 -0.36177,2.24639 -1.23056,5.32022 -1.93063,6.83073 -1.13514,2.44922 -1.80362,5.26205 -3.09288,13.01414 -0.21207,1.2752 -0.55358,3.29146 -0.75891,4.48057 -0.21629,1.25259 -0.0396,2.56423 0.42015,3.11813 0.43641,0.52584 0.71701,2.23579 0.62356,3.79989 -0.38036,6.3661 -0.1648,7.02636 2.53906,7.77727 3.69559,1.0263 4.21944,0.91224 3.78368,-0.82391 -0.20998,-0.83663 0.0629,-2.84879 0.60631,-4.47145 0.58524,-1.74744 1.04676,-5.92113 1.13198,-10.23709 0.0891,-4.51025 0.48427,-7.96842 1.03717,-9.07562 0.49131,-0.98384 0.89328,-2.56365 0.89328,-3.51069 0,-0.94704 0.40043,-2.52685 0.88984,-3.51069 0.48941,-0.98385 1.41628,-3.71305 2.05971,-6.06492 0.64343,-2.35186 2.3,-6.37616 3.68127,-8.9429 5.25321,-9.761774 7.28036,-13.923754 7.28036,-14.947434 0,-0.58233 0.43767,-1.63743 0.97259,-2.34466 0.53492,-0.70723 0.98206,-1.6632 0.99366,-2.12437 0.0302,-1.202 5.04867,-8.20427 9.79201,-13.66278 1.54845,-1.78192 2.81554,-3.71954 2.81578,-4.30584 6.6e-4,-2.00423 5.86932,-8.54428 12.37674,-13.79296 12.58015,-10.14677 15.70725,-12.33011 22.30916,-15.57631 3.66427,-1.80174 8.16487,-4.24684 10.00134,-5.43355 4.84363,-3.12993 9.81871,-5.55383 13.07741,-6.37141 18.25648,-4.58042 19.70913,-3.86841 5.16646,2.53232 -14.09621,6.20424 -14.90199,27.35622 -0.83579,21.93969 1.0062,-0.38746 3.46898,-0.97571 5.47285,-1.30723 2.00388,-0.33152 5.73008,-1.44923 8.28047,-2.48381 2.55038,-1.03458 6.87278,-2.40666 9.60534,-3.04908 2.73255,-0.64242 6.60781,-1.80998 8.61168,-2.59459 6.31788,-2.47375 34.91862,-1.89388 44.38329,0.89984 13.79925,4.07319 18.42621,5.59484 20.20434,6.64455 8.89731,5.2525 12.52403,5.93799 14.50008,2.74067 0.62778,-1.01575 -16.42873,-10.01869 -22.1103,-11.67049 -2.98405,-0.86755 -6.06966,-2.17165 -6.85691,-2.898 -0.94416,-0.87111 -4.2499,-1.92472 -9.71183,-3.09537 -20.65713,-4.4274 -21.78534,-7.37149 -1.6561,-4.32156 14.88083,2.25469 23.86939,4.84362 35.77161,10.30309 1.09302,0.50136 3.69996,1.65166 5.7932,2.55622 l 3.8059,1.64466 0.43746,-1.74303 c 0.60034,-2.39194 -12.06652,-11.43004 -16.01915,-11.43004 -0.41471,0 -2.81543,-0.9983 -5.33496,-2.21844 -2.51951,-1.22014 -8.00905,-3.34672 -12.19897,-4.72574 -4.18991,-1.37901 -7.91613,-2.72344 -8.28046,-2.98761 -0.36434,-0.26417 -4.03275,-1.01241 -8.15201,-1.66275 -5.37145,-0.84803 -7.28687,-1.38514 -6.77282,-1.89919 1.37957,-1.37958 19.04369,0.12774 25.52382,2.17801 2.18605,0.69165 6.3594,1.8995 9.27412,2.68411 11.30637,3.04357 20.40551,7.05859 29.80968,13.15359 3.6434,2.36135 8.2639,5.3265 10.26777,6.58922 4.54829,2.86605 16.53073,14.97649 18.43722,18.63419 0.78259,1.50143 3.47707,5.4837 5.98774,8.84949 4.19901,5.62917 6.98835,10.28582 11.10376,18.53708 0.86227,1.72883 1.56777,3.47039 1.56777,3.87013 0,0.39974 0.59619,1.48475 1.32487,2.41111 0.72868,0.92637 1.32487,2.18068 1.32487,2.78736 0,0.60668 0.28739,1.39043 0.63862,1.74167 0.35124,0.35124 1.40212,3.3173 2.33529,6.591254 0.93317,3.27395 2.83986,9.38074 4.23709,13.57066 4.93322,14.79346 9.1391,34.97882 8.41914,40.40616 -0.58428,4.40446 0.41975,4.62966 6.59508,1.47923 z M 236.35968,144.18643 c 0.32611,-1.36627 1.11769,-4.63859 1.75908,-7.27183 0.74825,-3.07195 1.01386,-5.80324 0.74119,-7.62154 -1.0706,-7.1393 11.73364,-31.532374 17.76704,-33.847604 0.54526,-0.20924 1.57375,-1.51282 2.28553,-2.89685 6.31468,-12.27874 36.33832,-23.38318 63.2223,-23.38318 4.18996,0 5.69775,-0.69929 3.40491,-1.57914 -0.56758,-0.2178 -5.33713,-0.43783 -10.599,-0.48894 -7.60989,-0.0739 -9.56702,-0.27844 -9.56702,-0.99974 0,-1.44588 -13.29473,1.58413 -19.73379,4.49755 -7.84849,3.55111 -11.85289,5.55237 -13.3118,6.65278 -0.86889,0.65538 -2.11016,1.19161 -2.75838,1.19161 -2.52197,0 -14.66213,9.72688 -17.55489,14.06526 -1.03671,1.55479 -2.52255,3.57213 -3.30187,4.48298 -3.56699,4.169014 -9.73743,16.389154 -9.62767,19.066964 0.049,1.19615 -0.368,2.82749 -0.92675,3.6252 -0.55873,0.7977 -1.01588,2.39087 -1.01588,3.54039 0,1.14951 -0.4462,2.46034 -0.99156,2.91295 -3.31913,2.75463 -4.18325,20.53729 -0.99797,20.53729 0.33748,0 0.88041,-1.11787 1.20653,-2.48415 z m 166.3137,-75.809204 c 2.58605,-2.64507 2.63144,-2.35555 -0.91506,-5.83618 -3.03472,-2.97835 -3.51817,-4.38282 -2.29522,-6.66792 1.01205,-1.89102 2.81842,-1.56966 5.96798,1.06173 3.36182,2.80872 4.16377,2.68042 4.63094,-0.74088 0.19494,-1.42771 0.60732,-3.00432 0.91639,-3.50358 0.57192,-0.92383 -10.37985,-12.00977 -11.86441,-12.00977 -0.37501,0 -1.72124,2.01215 -2.99161,4.47145 -1.27036,2.4593 -3.21522,5.3727 -4.32189,6.47422 -5.22521,5.20089 -4.1993,12.06364 2.53236,16.94003 3.49381,2.5309 5.73081,2.48018 8.34052,-0.1891 z M 245.6179,67.129056 c 5.02754,-2.16886 8.47608,-5.25044 5.87566,-5.25044 -1.33773,0 -7.87785,-4.55681 -9.38311,-6.53766 -1.78974,-2.35522 -1.89527,-9.91577 -0.1651,-11.82759 4.17534,-4.6137 -0.95866,-1.51428 -6.52986,3.94212 -12.15685,11.90631 -4.77761,26.13589 10.20241,19.67357 z M 598.37372,511.01103 c -0.41257,-1.09303 -0.51268,-1.98731 -0.22249,-1.98731 0.2902,0 0.71164,0.52167 0.93654,1.15926 0.2249,0.6376 0.58261,1.53189 0.7949,1.98731 0.2123,0.45543 0.12841,0.82805 -0.18641,0.82805 -0.31483,0 -0.90997,-0.89429 -1.32254,-1.98731 z"
     id="path4155"
     inkscape:connector-curvature="0" />
</svg>
