<?xml version="1.0" encoding="UTF-8" standalone="no"?>
<svg
   xmlns:dc="http://purl.org/dc/elements/1.1/"
   xmlns:cc="http://creativecommons.org/ns#"
   xmlns:rdf="http://www.w3.org/1999/02/22-rdf-syntax-ns#"
   xmlns:svg="http://www.w3.org/2000/svg"
   xmlns="http://www.w3.org/2000/svg"
   xmlns:xlink="http://www.w3.org/1999/xlink"
   xmlns:sodipodi="http://sodipodi.sourceforge.net/DTD/sodipodi-0.dtd"
   xmlns:inkscape="http://www.inkscape.org/namespaces/inkscape"
   inkscape:export-ydpi="300"
   inkscape:export-xdpi="300"
   inkscape:export-filename="/Users/rodrigoalcarazdelaosa/Documents/GitHub/rodrigoalcarazdelaosa.me/static/media/fuerzas-2ESO/hooke.png"
   version="1.1"
   width="372.53125"
   height="360.616"
   id="svg167"
   sodipodi:docname="hooke-web.svg"
   inkscape:version="1.0 (4035a4f, 2020-05-01)">
  <metadata
     id="metadata171">
    <rdf:RDF>
      <cc:Work
         rdf:about="">
        <dc:format>image/svg+xml</dc:format>
        <dc:type
           rdf:resource="http://purl.org/dc/dcmitype/StillImage" />
        <dc:title></dc:title>
      </cc:Work>
    </rdf:RDF>
  </metadata>
  <sodipodi:namedview
     fit-margin-bottom="0"
     fit-margin-right="0"
     fit-margin-left="0"
     fit-margin-top="0"
     inkscape:document-rotation="0"
     pagecolor="#ffffff"
     bordercolor="#666666"
     borderopacity="1"
     objecttolerance="10"
     gridtolerance="10"
     guidetolerance="10"
     inkscape:pageopacity="0"
     inkscape:pageshadow="2"
     inkscape:window-width="1440"
     inkscape:window-height="787"
     id="namedview169"
     showgrid="false"
     inkscape:zoom="1.5984043"
     inkscape:cx="67.880199"
     inkscape:cy="193.63061"
     inkscape:window-x="0"
     inkscape:window-y="23"
     inkscape:window-maximized="0"
     inkscape:current-layer="svg167" />
  <defs
     id="defs103">
    <marker
       orient="auto"
       id="TriangleOutM"
       style="overflow:visible">
      <path
         d="M 5.77,0 -2.88,5 V -5 Z"
         transform="scale(0.4)"
         id="path5564" />
    </marker>
    <marker
       orient="auto"
       id="TriangleInM"
       style="overflow:visible">
      <path
         d="M 5.77,0 -2.88,5 V -5 Z"
         transform="scale(-0.4)"
         id="path5555" />
    </marker>
    <marker
       orient="auto"
       id="TriangleOutMred"
       style="overflow:visible">
      <path
         d="M 5.77,0 -2.88,5 V -5 Z"
         transform="scale(0.4)"
         style="fill:#ff0000"
         id="path89" />
    </marker>
    <marker
       orient="auto"
       id="TriangleInMred"
       style="overflow:visible">
      <path
         d="M 5.77,0 -2.88,5 V -5 Z"
         transform="scale(-0.4)"
         style="fill:#ff0000"
         id="path92" />
    </marker>
    <linearGradient
       id="linearGradient5379">
      <stop
         id="stop5381"
         style="stop-color:#505362"
         offset="0" />
      <stop
         id="stop5387"
         style="stop-color:#a6b6da"
         offset="0.5" />
      <stop
         id="stop5383"
         style="stop-color:#505362"
         offset="1" />
    </linearGradient>
    <pattern
       patternTransform="matrix(0.7992467,-0.7992467,-2.2222222,-2.2222222,0,0)"
       id="pattern5329"
       xlink:href="#Strips1_4" />
    <pattern
       patternUnits="userSpaceOnUse"
       width="5"
       height="1"
       patternTransform="translate(0,0) scale(10,10)"
       id="Strips1_4">
      <rect
         style="fill:black;stroke:none"
         x="0"
         y="-0.5"
         width="1"
         height="2"
         id="rect4502" />
    </pattern>
    <linearGradient
       x1="132"
       y1="191"
       x2="179"
       y2="191"
       id="linearGradient6889"
       xlink:href="#linearGradient5379"
       gradientUnits="userSpaceOnUse" />
  </defs>
  <rect
     width="329"
     height="24"
     x="0"
     y="0"
     id="rect2989"
     style="fill:url(#pattern5329);fill-opacity:1;stroke:none" />
  <path
     d="M 0,24 H 329"
     id="path5331"
     style="fill:none;stroke:#000000;stroke-width:1px" />
  <path
     d="M 0,138 H 330"
     id="path5363"
     style="fill:none;stroke:#000000;stroke-width:2;stroke-dasharray:4, 2;stroke-dashoffset:0" />
  <path
     d="M 135,175 H 103"
     id="path5365"
     style="fill:none;stroke:#000000;stroke-width:2;stroke-dasharray:4, 2;stroke-dashoffset:0" />
  <use
     transform="translate(111,37)"
     id="use5367"
     xlink:href="#path5365"
     x="0"
     y="0"
     width="100%"
     height="100%" />
  <path
     d="m 155.5,190 v 49"
     id="path6873"
     style="fill:none;stroke:#000000;stroke-width:2;marker-end:url(#TriangleOutM)" />
  <rect
     width="47"
     height="34"
     x="132"
     y="174"
     id="rect5369"
     style="fill:#2a54a9;fill-opacity:1;stroke:none" />
  <path
     d="m 267.5,244 v 27"
     id="path6617"
     style="fill:none;stroke:#000000;stroke-width:1px" />
  <use
     height="100%"
     width="100%"
     y="0"
     x="0"
     transform="translate(112,37)"
     id="use5397"
     xlink:href="#rect5369" />
  <path
     d="m 267.5,289 v 67"
     id="path6619"
     style="fill:none;stroke:#000000;stroke-width:2;marker-end:url(#TriangleOutM)" />
  <use
     height="100%"
     width="100%"
     y="0"
     x="0"
     transform="translate(112,82)"
     id="use5403"
     xlink:href="#rect5369" />
  <path
     d="M 329.5,27 V 353"
     id="path5405"
     style="fill:none;stroke:#000000;stroke-width:1px" />
  <path
     d="m 330,137.5 h 10"
     id="path5407"
     style="fill:none;stroke:#000000;stroke-width:1px" />
  <path
     d="m 330,172.5 h 10"
     id="path5409"
     style="fill:none;stroke:#000000;stroke-width:1px" />
  <path
     d="m 330,211.5 h 10"
     id="path5411"
     style="fill:none;stroke:#000000;stroke-width:1px" />
  <path
     d="m 112,143 -0.0703,25"
     id="path5413"
     style="fill:none;stroke:#000000;stroke-width:2;stroke-opacity:1;marker-start:url(#TriangleInM);marker-end:url(#TriangleOutM)" />
  <path
     d="m 229,143 v 63"
     id="path6615"
     style="fill:none;stroke:#000000;stroke-width:2;stroke-opacity:1;marker-start:url(#TriangleInM);marker-end:url(#TriangleOutM)" />
  <text
     x="96"
     y="161"
     style="font-style:italic;font-size:18.6667px;font-family:Sans"
     id="text137"><tspan
       x="96"
       y="161"
       id="tspan135"
       style="font-style:italic;font-variant:normal;font-weight:normal;font-stretch:normal;font-size:18.6667px;font-family:'EB Garamond';-inkscape-font-specification:'EB Garamond Italic'">x</tspan></text>
  <text
     x="134"
     y="249"
     style="font-style:italic;font-size:18.6667px;font-family:Sans"
     id="text143"><tspan
       x="134"
       y="249"
       id="tspan141"
       style="font-style:italic;font-variant:normal;font-weight:normal;font-stretch:normal;font-size:18.6667px;font-family:'EB Garamond';-inkscape-font-specification:'EB Garamond Italic'">F</tspan></text>
  <text
     x="207"
     y="178"
     style="font-style:italic;font-size:18.6667px;font-family:Sans"
     id="text147"><tspan
       x="207"
       y="178"
       id="tspan145"
       style="font-style:italic;font-variant:normal;font-weight:normal;font-stretch:normal;font-size:18.6667px;font-family:'EB Garamond';-inkscape-font-specification:'EB Garamond Italic'"><tspan
   style="font-style:normal;font-variant:normal;font-weight:normal;font-stretch:normal;font-size:18.6667px;font-family:'EB Garamond';-inkscape-font-specification:'EB Garamond'"
   id="tspan1090">2</tspan>x</tspan></text>
  <text
     x="341.92001"
     y="144.59619"
     style="font-size:18.6667px;font-family:Sans"
     id="text157"><tspan
       x="341.92001"
       y="144.59619"
       id="tspan155"
       style="font-style:normal;font-variant:normal;font-weight:normal;font-stretch:normal;font-size:18.6667px;font-family:'EB Garamond';-inkscape-font-specification:'EB Garamond'">0N</tspan></text>
  <text
     x="340.79199"
     y="179.59619"
     style="font-size:18.6667px;font-family:Sans"
     id="text161"><tspan
       x="340.79199"
       y="179.59619"
       id="tspan159"
       style="font-style:normal;font-variant:normal;font-weight:normal;font-stretch:normal;font-size:18.6667px;font-family:'EB Garamond';-inkscape-font-specification:'EB Garamond'">1N</tspan></text>
  <text
     x="342.23199"
     y="218.59619"
     style="font-size:18.6667px;font-family:Sans"
     id="text165"><tspan
       x="342.23199"
       y="218.59619"
       id="tspan163"
       style="font-style:normal;font-variant:normal;font-weight:normal;font-stretch:normal;font-size:18.6667px;font-family:'EB Garamond';-inkscape-font-specification:'EB Garamond'">2N</tspan></text>
  <path
     style="fill:none;fill-opacity:0.75;fill-rule:evenodd;stroke:#000000;stroke-width:1.96149;stroke-linecap:butt;stroke-linejoin:miter;stroke-miterlimit:4;stroke-dasharray:none;stroke-opacity:1"
     d="m 49.112215,137.42867 0.09761,-10.43904 c 5.965977,0.38358 10.991687,-4.94202 10.991687,-11.07775 0,-6.13575 -5.015889,-11.11549 -11.196187,-11.11549 -3.692983,0 -9.010827,1.78833 -8.996384,4.62755 0.01437,2.83924 5.319699,4.59142 8.996384,4.59142 6.180298,0 11.196187,-4.97974 11.196187,-11.11549 0,-6.135746 -5.015889,-11.115465 -11.196187,-11.115465 -3.632469,0 -9.010497,1.816638 -9.018821,4.603175 -0.008,2.786554 5.317663,4.61577 9.018821,4.61577 6.180298,0 11.196187,-4.979736 11.196187,-11.115485 0,-6.135731 -5.015889,-11.115467 -11.196187,-11.115467 -3.71045,0 -8.674319,1.816298 -8.805888,4.516458 -0.131599,2.700159 5.184787,4.702487 8.805888,4.702487 6.180298,0 11.196187,-4.979736 11.196187,-11.115467 0,-6.135749 -5.015889,-11.115468 -11.196187,-11.115468 -3.657551,0 -8.939742,1.642473 -8.961451,4.4199 -0.02176,2.777426 5.143835,4.799045 8.961451,4.799045 6.180298,0 11.196187,-4.979721 11.196187,-11.115467 0,-6.135727 -5.015889,-11.115467 -11.196187,-11.115467 -3.763968,0 -9.131786,1.90065 -9.106913,4.71398 0.02485,2.8133 5.427434,4.50495 9.106913,4.50495 6.180298,0 11.196187,-4.97974 11.196187,-11.11547 0,-6.13575 -5.015889,-11.11548 -11.196187,-11.11548 v -15.12619"
     id="path3996"
     sodipodi:nodetypes="ccssssssssssssssssssssscs" />
  <path
     sodipodi:nodetypes="ccssssssssssssssssssssscs"
     id="path3996-6"
     d="m 152.80273,174.06144 0.0976,-13.90462 c 5.96597,0.51092 10.99168,-6.58269 10.99168,-14.75538 0,-8.17271 -5.01588,-14.80564 -11.19618,-14.80564 -3.69299,0 -9.01083,2.38203 -8.99639,6.16382 0.0144,3.78182 5.3197,6.11569 8.99639,6.11569 6.1803,0 11.19618,-6.63293 11.19618,-14.80564 0,-8.17271 -5.01588,-14.80561 -11.19618,-14.80561 -3.63247,0 -9.0105,2.41973 -9.01882,6.13135 -0.008,3.71164 5.31766,6.14813 9.01882,6.14813 6.1803,0 11.19618,-6.63292 11.19618,-14.80564 0,-8.17269 -5.01588,-14.80561 -11.19618,-14.80561 -3.71045,0 -8.67432,2.419278 -8.80589,6.01584 -0.1316,3.59657 5.18479,6.26364 8.80589,6.26364 6.1803,0 11.19618,-6.63293 11.19618,-14.805615 0,-8.172712 -5.01588,-14.805613 -11.19618,-14.805613 -3.65755,0 -8.93974,2.187746 -8.96145,5.887231 -0.0218,3.699484 5.14383,6.392246 8.96145,6.392246 6.1803,0 11.19618,-6.632903 11.19618,-14.805612 0,-8.172683 -5.01588,-14.805612 -11.19618,-14.805612 -3.76397,0 -9.13179,2.531633 -9.10692,6.278941 0.0249,3.747267 5.42744,6.000516 9.10692,6.000516 6.1803,0 11.19618,-6.632928 11.19618,-14.805616 0,-8.172714 -5.01588,-14.805629 -11.19618,-14.805629 V 23.78918"
     style="fill:none;fill-opacity:0.75;fill-rule:evenodd;stroke:#000000;stroke-width:2.26379;stroke-linecap:butt;stroke-linejoin:miter;stroke-miterlimit:4;stroke-dasharray:none;stroke-opacity:1" />
  <path
     style="fill:none;fill-opacity:0.75;fill-rule:evenodd;stroke:#000000;stroke-width:2.53088;stroke-linecap:butt;stroke-linejoin:miter;stroke-miterlimit:4;stroke-dasharray:none;stroke-opacity:1"
     d="m 266.3458,211.40884 0.0976,-17.37921 c 5.96597,0.63859 10.99168,-8.22763 10.99168,-18.44258 0,-10.21497 -5.01588,-18.50539 -11.19618,-18.50539 -3.69299,0 -9.01083,2.97727 -8.99639,7.70409 0.0144,4.72685 5.3197,7.64393 8.99639,7.64393 6.1803,0 11.19618,-8.29042 11.19618,-18.50539 0,-10.21498 -5.01588,-18.50536 -11.19618,-18.50536 -3.63247,0 -9.0105,3.02439 -9.01882,7.6635 -0.008,4.63914 5.31766,7.68448 9.01882,7.68448 6.1803,0 11.19618,-8.29041 11.19618,-18.50539 0,-10.21495 -5.01588,-18.50536 -11.19618,-18.50536 -3.71045,0 -8.67432,3.02382 -8.80589,7.51913 -0.1316,4.49531 5.18479,7.82885 8.80589,7.82885 6.1803,0 11.19618,-8.29042 11.19618,-18.50537 0,-10.21497 -5.01588,-18.505356 -11.19618,-18.505356 -3.65755,0 -8.93974,2.734437 -8.96145,7.358379 -0.0218,4.623937 5.14383,7.989587 8.96145,7.989587 6.1803,0 11.19618,-8.290382 11.19618,-18.505352 0,-10.214938 -5.01588,-18.505355 -11.19618,-18.505355 -3.76397,0 -9.13179,3.164257 -9.10692,7.847972 0.0249,4.683664 5.42744,7.499973 9.10692,7.499973 6.1803,0 11.19618,-8.290417 11.19618,-18.505361 0,-10.214976 -5.01588,-18.505377 -11.19618,-18.505377 V 23.585355"
     id="path3996-6-2"
     sodipodi:nodetypes="ccssssssssssssssssssssscs" />
  <text
     id="text143-8"
     style="font-style:italic;font-size:18.6667px;font-family:Sans"
     y="357.09293"
     x="241.30963"><tspan
       style="font-style:italic;font-variant:normal;font-weight:normal;font-stretch:normal;font-size:18.6667px;font-family:'EB Garamond';-inkscape-font-specification:'EB Garamond Italic'"
       id="tspan141-4"
       y="357.09293"
       x="241.30963"><tspan
   style="font-style:normal;font-variant:normal;font-weight:normal;font-stretch:normal;font-size:18.6667px;font-family:'EB Garamond';-inkscape-font-specification:'EB Garamond'"
   id="tspan1110">2</tspan>F</tspan></text>
</svg>
