<?xml version="1.0" encoding="UTF-8" standalone="no"?>
<svg
   xmlns:dc="http://purl.org/dc/elements/1.1/"
   xmlns:cc="http://creativecommons.org/ns#"
   xmlns:rdf="http://www.w3.org/1999/02/22-rdf-syntax-ns#"
   xmlns:svg="http://www.w3.org/2000/svg"
   xmlns="http://www.w3.org/2000/svg"
   xmlns:xlink="http://www.w3.org/1999/xlink"
   xmlns:sodipodi="http://sodipodi.sourceforge.net/DTD/sodipodi-0.dtd"
   xmlns:inkscape="http://www.inkscape.org/namespaces/inkscape"
   inkscape:export-ydpi="300"
   inkscape:export-xdpi="300"
   inkscape:export-filename="/Users/rodrigoalcarazdelaosa/Documents/GitHub/fisiquimicamente.com/static/media/fuerzas-2ESO/hooke.png"
   version="1.1"
   width="372.53125"
   height="360.616"
   id="svg167"
   sodipodi:docname="hooke.svg"
   inkscape:version="1.0.1 (c497b03c, 2020-09-10)">
  <metadata
     id="metadata171">
    <rdf:RDF>
      <cc:Work
         rdf:about="">
        <dc:format>image/svg+xml</dc:format>
        <dc:type
           rdf:resource="http://purl.org/dc/dcmitype/StillImage" />
        <dc:title />
      </cc:Work>
    </rdf:RDF>
  </metadata>
  <sodipodi:namedview
     fit-margin-bottom="0"
     fit-margin-right="0"
     fit-margin-left="0"
     fit-margin-top="0"
     inkscape:document-rotation="0"
     pagecolor="#ffffff"
     bordercolor="#666666"
     borderopacity="1"
     objecttolerance="10"
     gridtolerance="10"
     guidetolerance="10"
     inkscape:pageopacity="0"
     inkscape:pageshadow="2"
     inkscape:window-width="1440"
     inkscape:window-height="769"
     id="namedview169"
     showgrid="false"
     inkscape:zoom="1.5984043"
     inkscape:cx="216.15307"
     inkscape:cy="213.65058"
     inkscape:window-x="0"
     inkscape:window-y="25"
     inkscape:window-maximized="0"
     inkscape:current-layer="svg167" />
  <defs
     id="defs103">
    <marker
       orient="auto"
       id="TriangleOutM"
       style="overflow:visible">
      <path
         d="M 5.77,0 -2.88,5 V -5 Z"
         transform="scale(0.4)"
         id="path5564" />
    </marker>
    <marker
       orient="auto"
       id="TriangleInM"
       style="overflow:visible">
      <path
         d="M 5.77,0 -2.88,5 V -5 Z"
         transform="scale(-0.4)"
         id="path5555" />
    </marker>
    <marker
       orient="auto"
       id="TriangleOutMred"
       style="overflow:visible">
      <path
         d="M 5.77,0 -2.88,5 V -5 Z"
         transform="scale(0.4)"
         style="fill:#ff0000"
         id="path89" />
    </marker>
    <marker
       orient="auto"
       id="TriangleInMred"
       style="overflow:visible">
      <path
         d="M 5.77,0 -2.88,5 V -5 Z"
         transform="scale(-0.4)"
         style="fill:#ff0000"
         id="path92" />
    </marker>
    <linearGradient
       id="linearGradient5379">
      <stop
         id="stop5381"
         style="stop-color:#505362"
         offset="0" />
      <stop
         id="stop5387"
         style="stop-color:#a6b6da"
         offset="0.5" />
      <stop
         id="stop5383"
         style="stop-color:#505362"
         offset="1" />
    </linearGradient>
    <pattern
       patternTransform="matrix(0.7992467,-0.7992467,-2.2222222,-2.2222222,0,0)"
       id="pattern5329"
       xlink:href="#Strips1_4" />
    <pattern
       patternUnits="userSpaceOnUse"
       width="5"
       height="1"
       patternTransform="translate(0,0) scale(10,10)"
       id="Strips1_4">
      <rect
         style="fill:black;stroke:none"
         x="0"
         y="-0.5"
         width="1"
         height="2"
         id="rect4502" />
    </pattern>
    <linearGradient
       x1="132"
       y1="191"
       x2="179"
       y2="191"
       id="linearGradient6889"
       xlink:href="#linearGradient5379"
       gradientUnits="userSpaceOnUse" />
  </defs>
  <rect
     width="329"
     height="24"
     x="0"
     y="0"
     id="rect2989"
     style="fill:url(#pattern5329);fill-opacity:1;stroke:none" />
  <path
     d="M 0,24 H 329"
     id="path5331"
     style="fill:none;stroke:#000000;stroke-width:1px" />
  <path
     d="M 0,138 H 330"
     id="path5363"
     style="fill:none;stroke:#000000;stroke-width:2;stroke-dasharray:4, 2;stroke-dashoffset:0" />
  <path
     d="M 135,175 H 103"
     id="path5365"
     style="fill:none;stroke:#000000;stroke-width:2;stroke-dasharray:4, 2;stroke-dashoffset:0" />
  <use
     transform="translate(111,37)"
     id="use5367"
     xlink:href="#path5365"
     x="0"
     y="0"
     width="100%"
     height="100%" />
  <path
     d="m 155.5,190 v 49"
     id="path6873"
     style="fill:none;stroke:#000000;stroke-width:2;marker-end:url(#TriangleOutM)" />
  <rect
     width="47"
     height="34"
     x="132"
     y="174"
     id="rect5369"
     style="fill:#2a54a9;fill-opacity:1;stroke:none" />
  <path
     d="m 267.5,244 v 27"
     id="path6617"
     style="fill:none;stroke:#000000;stroke-width:1px" />
  <use
     height="100%"
     width="100%"
     y="0"
     x="0"
     transform="translate(112,37)"
     id="use5397"
     xlink:href="#rect5369" />
  <path
     d="m 267.5,289 v 67"
     id="path6619"
     style="fill:none;stroke:#000000;stroke-width:2;marker-end:url(#TriangleOutM)" />
  <use
     height="100%"
     width="100%"
     y="0"
     x="0"
     transform="translate(112,82)"
     id="use5403"
     xlink:href="#rect5369" />
  <path
     d="M 329.5,27 V 353"
     id="path5405"
     style="fill:none;stroke:#000000;stroke-width:1px" />
  <path
     d="m 330,137.5 h 10"
     id="path5407"
     style="fill:none;stroke:#000000;stroke-width:1px" />
  <path
     d="m 330,172.5 h 10"
     id="path5409"
     style="fill:none;stroke:#000000;stroke-width:1px" />
  <path
     d="m 330,211.5 h 10"
     id="path5411"
     style="fill:none;stroke:#000000;stroke-width:1px" />
  <path
     d="m 112,143 -0.0703,25"
     id="path5413"
     style="fill:none;stroke:#000000;stroke-width:2;stroke-opacity:1;marker-start:url(#TriangleInM);marker-end:url(#TriangleOutM)" />
  <path
     d="m 229,143 v 63"
     id="path6615"
     style="fill:none;stroke:#000000;stroke-width:2;stroke-opacity:1;marker-start:url(#TriangleInM);marker-end:url(#TriangleOutM)" />
  <g
     aria-label="x"
     id="text137"
     style="font-style:italic;font-size:18.6667px;font-family:Sans">
    <path
       d="m 96.448001,161.26133 q -0.280001,0 -0.522668,-0.18666 -0.242667,-0.168 -0.242667,-0.52267 0,-0.224 0.149334,-0.48534 0.130667,-0.28 0.336,-0.48533 0.205334,-0.20533 0.354668,-0.20533 0.149333,0 0.205333,0.112 0.07467,0.0933 0.09333,0.224 0.056,0.224 0.149333,0.336 0.09333,0.0933 0.205334,0.0933 0.130667,0.0187 0.261334,-0.0373 0.130667,-0.0747 0.242667,-0.18667 0.373334,-0.392 0.653335,-0.70933 0.298667,-0.336 0.597334,-0.69067 0.298667,-0.35467 0.690668,-0.80267 0.07467,-0.0747 0.07467,-0.168 0.01867,-0.0933 -0.01867,-0.168 l -0.709335,-2.61334 q -0.056,-0.20533 -0.112,-0.26133 -0.056,-0.056 -0.168,-0.056 -0.130667,0 -0.410668,0.24267 -0.28,0.224 -0.634667,0.728 -0.03733,0.056 -0.112001,0.18666 -0.07467,0.112 -0.205333,0.112 -0.07467,0 -0.112,-0.0933 -0.01867,-0.0933 -0.01867,-0.224 0,-0.28 0.186667,-0.63467 0.205334,-0.35467 0.504001,-0.69067 0.298667,-0.35466 0.653334,-0.57866 0.354668,-0.224 0.653335,-0.224 0.298667,0 0.466667,0.24266 0.186667,0.224 0.317334,0.70934 l 0.466663,1.97867 q 0.056,0.29867 0.26134,0.0373 l 1.30667,-1.86667 q 0.28,-0.392 0.728,-0.74667 0.448,-0.35466 0.952,-0.35466 0.37333,0 0.65334,0.29866 0.28,0.28 0.29866,0.504 0.0187,0.13067 -0.112,0.392 -0.13066,0.24267 -0.31733,0.44801 -0.168,0.18666 -0.336,0.18666 -0.112,0 -0.20534,-0.0933 -0.0747,-0.0933 -0.13066,-0.224 -0.0933,-0.26134 -0.18667,-0.336 -0.0933,-0.0933 -0.224,-0.0933 -0.224,0 -0.48533,0.20534 -0.26134,0.18667 -0.57867,0.57867 -0.26134,0.29866 -0.57867,0.69066 -0.29867,0.37334 -0.65333,0.91467 -0.0747,0.112 -0.0933,0.26134 -0.0187,0.14933 0.056,0.392 l 0.63467,2.296 q 0.0747,0.24267 0.18667,0.35467 0.112,0.0933 0.20533,0.0933 0.26133,0 0.59733,-0.392 0.35467,-0.41067 0.63467,-1.10133 0.112,-0.26134 0.24267,-0.26134 0.0747,0 0.112,0.0747 0.056,0.056 0.056,0.336 0,0.26133 -0.14933,0.672 -0.14934,0.41067 -0.41067,0.82134 -0.26133,0.41066 -0.616,0.69066 -0.35467,0.28 -0.76534,0.28 -0.52266,0 -0.76533,-0.31733 -0.24267,-0.31733 -0.41067,-0.93334 -0.0933,-0.392 -0.20533,-0.84 -0.112,-0.46666 -0.205336,-0.85866 -0.056,-0.22401 -0.130667,-0.24267 -0.056,-0.0187 -0.168,0.13066 -0.448001,0.56001 -0.896002,1.15734 -0.448001,0.59733 -0.914668,1.13867 -0.392001,0.46667 -0.728002,0.616 -0.317334,0.14933 -0.653334,0.14933 z"
       style="font-style:italic;font-variant:normal;font-weight:normal;font-stretch:normal;font-size:18.6667px;font-family:'EB Garamond';-inkscape-font-specification:'EB Garamond Italic'"
       id="path81" />
  </g>
  <g
     aria-label="F"
     id="text143"
     style="font-style:italic;font-size:18.6667px;font-family:Sans">
    <path
       d="m 134.26133,249.09333 q -0.224,0 -0.336,-0.0373 -0.112,-0.0373 -0.112,-0.168 0,-0.14933 0.18667,-0.20533 0.168,-0.0747 0.48533,-0.13067 0.69067,-0.13067 1.02667,-0.41067 0.336,-0.29867 0.54134,-0.98933 l 2.55733,-8.40002 q 0.22401,-0.672 0,-0.952 -0.224,-0.28 -0.84,-0.41067 -0.28,-0.056 -0.37333,-0.14933 -0.0933,-0.0933 -0.0933,-0.224 0,-0.112 0.168,-0.14934 0.18666,-0.056 0.41066,-0.056 0.20534,0 0.82134,0.0373 0.63467,0.0187 1.21333,0.0187 h 2.96801 q 1.26933,0 1.904,-0.112 0.65334,-0.112 0.728,-0.112 0.0933,0 0.112,0.056 0.0373,0.0373 0.0373,0.13067 0,0.0747 -0.0373,0.168 -0.0187,0.0933 -0.056,0.24267 -0.0933,0.31733 -0.24266,0.82133 -0.13067,0.48534 -0.18667,0.85867 -0.0187,0.0933 -0.0747,0.20534 -0.056,0.112 -0.24266,0.112 -0.13067,0 -0.168,-0.13067 -0.0373,-0.14933 -0.0373,-0.29867 0,-0.336 -0.0187,-0.63467 0,-0.29866 -0.18667,-0.48533 -0.0933,-0.0933 -0.26134,-0.14933 -0.168,-0.0747 -0.42933,-0.0747 h -2.688 q -0.35467,0 -0.504,0.168 -0.13067,0.168 -0.22401,0.392 -0.0187,0.056 -0.18666,0.56 -0.168,0.48534 -0.392,1.15734 -0.20534,0.672 -0.41067,1.30667 -0.18667,0.63466 -0.29867,0.97066 -0.0373,0.14934 -0.0187,0.31734 0.0187,0.14933 0.14933,0.14933 l 2.52,-0.056 q 0.78401,-0.0373 1.32534,-0.69067 0.13067,-0.14933 0.26133,-0.26133 0.14934,-0.13067 0.224,-0.13067 0.0933,0 0.14934,0.0933 0.0747,0.0747 0.0187,0.20533 -0.31733,0.70933 -0.504,1.232 -0.168,0.504 -0.35466,1.21334 -0.0373,0.13066 -0.0933,0.224 -0.056,0.0933 -0.14933,0.0933 -0.14933,0 -0.224,-0.168 -0.056,-0.168 -0.056,-0.26133 0,-0.54134 -0.20534,-0.728 -0.18666,-0.20534 -0.48533,-0.224 -0.20533,-0.0187 -0.672,-0.0187 -0.448,-0.0187 -0.87734,-0.0187 -0.42933,0 -0.59733,0 -0.31733,0 -0.56,0.0933 -0.224,0.0747 -0.336,0.48533 l -0.952,3.32267 q -0.18667,0.63467 -0.13067,0.97067 0.056,0.31734 0.336,0.448 0.29867,0.13067 0.784,0.24267 0.28,0.056 0.37334,0.13067 0.0933,0.056 0.0933,0.20533 0,0.13067 -0.168,0.168 -0.168,0.0373 -0.392,0.0373 -0.46667,0 -0.784,-0.0373 -0.29867,-0.0373 -0.57867,-0.056 -0.26133,-0.0373 -0.63467,-0.0373 -0.63467,0 -1.08267,0.056 -0.42933,0.0747 -1.13867,0.0747 z"
       style="font-style:italic;font-variant:normal;font-weight:normal;font-stretch:normal;font-size:18.6667px;font-family:'EB Garamond';-inkscape-font-specification:'EB Garamond Italic'"
       id="path90" />
  </g>
  <g
     aria-label="2x"
     id="text147"
     style="font-style:italic;font-size:18.6667px;font-family:Sans">
    <path
       d="m 214.82135,178.056 q -0.13067,0 -0.41067,-0.0187 -0.28,-0.0187 -0.63467,-0.0373 -0.35467,-0.0187 -0.74667,-0.0373 -0.37333,-0.0187 -0.728,-0.0187 -0.35466,0 -1.008,0.0187 -0.65333,0.0187 -1.38133,0.0373 -0.70934,0 -1.25067,0.0187 -0.54134,0.0187 -0.69067,0.0187 -0.0747,0 -0.224,-0.112 -0.14934,-0.13066 -0.14934,-0.20533 0,-0.0933 0.0373,-0.13067 0.0373,-0.0373 0.112,-0.112 l 3.192,-3.304 q 0.93334,-0.97067 1.54934,-2.16534 0.616,-1.21334 0.616,-2.44534 0,-0.98933 -0.59733,-1.54933 -0.59734,-0.57867 -1.40001,-0.57867 -0.76533,0 -1.41867,0.42933 -0.65333,0.41067 -1.04533,1.08267 -0.056,0.112 -0.14933,0.18667 -0.0747,0.0747 -0.168,0.0747 -0.0747,0 -0.18667,-0.14933 -0.0933,-0.168 -0.0933,-0.41067 0,-0.224 0.26133,-0.616 0.28,-0.392 0.76533,-0.80267 0.48534,-0.41066 1.15734,-0.69066 0.672,-0.29867 1.456,-0.29867 0.93334,0 1.60534,0.392 0.672,0.392 1.02667,1.08267 0.35466,0.69067 0.35466,1.60533 0,0.50401 -0.18666,1.08267 -0.168,0.57867 -0.48534,1.13867 -0.29866,0.56 -0.69067,1.04534 -0.24266,0.29866 -0.728,0.80267 -0.46666,0.48533 -1.02667,1.04533 -0.54133,0.56 -1.04533,1.064 -0.48533,0.48534 -0.80267,0.82134 -0.31733,0.31733 -0.31733,0.35466 0,0.0933 0.26133,0.13067 0.31734,0.0187 0.70934,0.0373 0.41066,0.0187 0.93333,0.0187 0.54134,0 1.08267,-0.0187 0.54133,-0.0187 1.04533,-0.0373 0.54134,-0.0373 0.84001,-0.0933 0.29866,-0.056 0.504,-0.224 0.20533,-0.18667 0.42933,-0.56 0.0747,-0.112 0.18667,-0.26134 0.13067,-0.168 0.28,-0.168 0.0933,0 0.112,0.0747 0.0187,0.0747 0.0187,0.14933 0,0.0933 -0.112,0.37334 -0.0933,0.26133 -0.224,0.65333 -0.13067,0.392 -0.22401,0.85867 -0.056,0.29867 -0.18666,0.37333 -0.13067,0.0747 -0.224,0.0747 z"
       style="font-style:normal;font-variant:normal;font-weight:normal;font-stretch:normal;font-size:18.6667px;font-family:'EB Garamond';-inkscape-font-specification:'EB Garamond'"
       id="path84" />
    <path
       d="m 216.41677,178.26133 q -0.28,0 -0.52267,-0.18666 -0.24267,-0.168 -0.24267,-0.52267 0,-0.224 0.14934,-0.48534 0.13066,-0.28 0.336,-0.48533 0.20533,-0.20533 0.35466,-0.20533 0.14934,0 0.20534,0.112 0.0747,0.0933 0.0933,0.224 0.056,0.224 0.14933,0.336 0.0933,0.0933 0.20534,0.0933 0.13067,0.0187 0.26133,-0.0373 0.13067,-0.0747 0.24267,-0.18667 0.37333,-0.392 0.65333,-0.70933 0.29867,-0.336 0.59734,-0.69067 0.29867,-0.35467 0.69067,-0.80267 0.0747,-0.0747 0.0747,-0.168 0.0187,-0.0933 -0.0187,-0.168 l -0.70934,-2.61334 q -0.056,-0.20533 -0.112,-0.26133 -0.056,-0.056 -0.168,-0.056 -0.13067,0 -0.41067,0.24267 -0.28,0.224 -0.63466,0.728 -0.0373,0.056 -0.112,0.18666 -0.0747,0.112 -0.20534,0.112 -0.0747,0 -0.112,-0.0933 -0.0187,-0.0933 -0.0187,-0.224 0,-0.28 0.18666,-0.63467 0.20534,-0.35467 0.504,-0.69067 0.29867,-0.35466 0.65334,-0.57866 0.35466,-0.224 0.65333,-0.224 0.29867,0 0.46667,0.24266 0.18667,0.224 0.31733,0.70934 l 0.46667,1.97867 q 0.056,0.29867 0.26133,0.0373 l 1.30667,-1.86667 q 0.28,-0.392 0.72801,-0.74667 0.448,-0.35466 0.952,-0.35466 0.37333,0 0.65333,0.29866 0.28,0.28 0.29867,0.504 0.0187,0.13067 -0.112,0.392 -0.13067,0.24267 -0.31734,0.44801 -0.168,0.18666 -0.336,0.18666 -0.112,0 -0.20533,-0.0933 -0.0747,-0.0933 -0.13067,-0.224 -0.0933,-0.26134 -0.18666,-0.336 -0.0933,-0.0933 -0.224,-0.0933 -0.224,0 -0.48534,0.20534 -0.26133,0.18667 -0.57867,0.57867 -0.26133,0.29866 -0.57866,0.69066 -0.29867,0.37334 -0.65334,0.91467 -0.0747,0.112 -0.0933,0.26134 -0.0187,0.14933 0.056,0.392 l 0.63467,2.296 q 0.0747,0.24267 0.18666,0.35467 0.112,0.0933 0.20534,0.0933 0.26133,0 0.59733,-0.392 0.35467,-0.41067 0.63467,-1.10133 0.112,-0.26134 0.24267,-0.26134 0.0747,0 0.112,0.0747 0.056,0.056 0.056,0.336 0,0.26133 -0.14934,0.672 -0.14933,0.41067 -0.41066,0.82134 -0.26134,0.41066 -0.61601,0.69066 -0.35466,0.28 -0.76533,0.28 -0.52267,0 -0.76534,-0.31733 -0.24266,-0.31733 -0.41066,-0.93334 -0.0933,-0.392 -0.20534,-0.84 -0.112,-0.46666 -0.20533,-0.85866 -0.056,-0.22401 -0.13067,-0.24267 -0.056,-0.0187 -0.168,0.13066 -0.448,0.56001 -0.896,1.15734 -0.448,0.59733 -0.91467,1.13867 -0.392,0.46667 -0.728,0.616 -0.31733,0.14933 -0.65333,0.14933 z"
       style="font-style:italic;font-variant:normal;font-weight:normal;font-stretch:normal;font-size:18.6667px;font-family:'EB Garamond';-inkscape-font-specification:'EB Garamond Italic'"
       id="path86" />
  </g>
  <g
     aria-label="0N"
     id="text157"
     style="font-size:18.6667px;font-family:Sans">
    <path
       d="m 346.49336,144.85753 q -0.95201,0 -1.66134,-0.52267 -0.69067,-0.52267 -1.15734,-1.38134 -0.46666,-0.87733 -0.69066,-1.92267 -0.22401,-1.04533 -0.22401,-2.072 0,-1.064 0.22401,-2.14667 0.224,-1.08267 0.69066,-1.97867 0.48534,-0.896 1.23201,-1.43734 0.74666,-0.56 1.77333,-0.56 0.952,0 1.64267,0.52267 0.70934,0.52267 1.176,1.4 0.46667,0.85867 0.69067,1.904 0.224,1.02667 0.224,2.03467 0,1.04534 -0.224,2.12801 -0.224,1.08267 -0.70933,1.99733 -0.46667,0.91467 -1.21334,1.47467 -0.728,0.56001 -1.77333,0.56001 z m 0.31733,-0.48534 q 0.74667,0 1.19467,-0.74667 0.46667,-0.76533 0.672,-1.97867 0.20533,-1.21333 0.20533,-2.61334 0,-1.04533 -0.168,-2.05333 -0.14933,-1.008 -0.48533,-1.82934 -0.31734,-0.82133 -0.80267,-1.30667 -0.46667,-0.48533 -1.10134,-0.48533 -0.74666,0 -1.19466,0.728 -0.42934,0.728 -0.63467,1.94134 -0.18667,1.19466 -0.18667,2.59467 0,1.04533 0.14933,2.072 0.168,1.02667 0.46667,1.86667 0.31734,0.82134 0.784,1.32534 0.46667,0.48533 1.10134,0.48533 z"
       style="font-style:normal;font-variant:normal;font-weight:normal;font-stretch:normal;font-size:18.6667px;font-family:'EB Garamond';-inkscape-font-specification:'EB Garamond'"
       id="path66" />
    <path
       d="m 363.35814,144.91353 q -0.168,0 -0.67201,-0.28001 -0.48533,-0.28 -0.93333,-0.896 -0.0747,-0.0933 -0.46667,-0.56 -0.37333,-0.46667 -0.97067,-1.15733 -0.57866,-0.70934 -1.26933,-1.53067 -0.69067,-0.82134 -1.38134,-1.64267 -0.69067,-0.82134 -1.288,-1.51201 -0.59733,-0.70933 -1.008,-1.176 -0.392,-0.48533 -0.48534,-0.59733 -0.13066,-0.168 -0.224,-0.224 -0.0933,-0.0747 -0.168,-0.0747 -0.0933,0 -0.13066,0.14933 -0.0373,0.13067 -0.0373,0.24267 -0.0187,0.91467 -0.0373,2.10934 -0.0187,1.19467 -0.0373,2.464 -0.0187,1.26934 -0.0187,2.42667 0,0.50401 0.24267,0.93334 0.26133,0.42933 0.952,0.56 0.31733,0.056 0.46667,0.13067 0.14933,0.0747 0.14933,0.20533 0,0.112 -0.14933,0.14933 -0.14934,0.056 -0.39201,0.056 -0.504,0 -0.76533,-0.0373 -0.24267,-0.0187 -0.448,-0.0373 -0.18667,-0.0187 -0.54134,-0.0187 -0.336,0 -0.52266,0.0187 -0.18667,0.0187 -0.42934,0.0373 -0.24266,0.0373 -0.74666,0.0373 -0.24267,0 -0.39201,-0.056 -0.14933,-0.0373 -0.14933,-0.14933 0,-0.13067 0.14933,-0.20533 0.14934,-0.0747 0.46667,-0.14934 0.54134,-0.14933 0.784,-0.54133 0.24267,-0.41067 0.29867,-0.98934 0.0747,-0.70933 0.14933,-1.86667 0.0747,-1.176 0.13067,-2.61333 0.056,-1.45601 0.056,-2.98668 0,-0.98933 -0.52267,-1.41866 -0.504,-0.42934 -1.32533,-0.69067 -0.0747,-0.0373 -0.336,-0.14934 -0.24267,-0.13066 -0.24267,-0.29866 0,-0.168 0.168,-0.20534 0.168,-0.056 0.26133,-0.056 0.54134,0.0187 0.87734,0.0373 0.336,0 0.59733,0.0187 0.26134,0.0187 0.57867,0.0373 0.31734,0 0.82134,0 0.168,0 0.26133,0.0933 0.0933,0.0933 0.18667,0.224 0.0747,0.112 0.48533,0.63467 0.42934,0.504 1.04534,1.288 0.63466,0.76533 1.38133,1.68 0.74667,0.896 1.49334,1.81067 0.74667,0.896 1.38133,1.68001 0.63467,0.76533 1.04534,1.26933 0.42933,0.504 0.504,0.59734 0.0747,0.0747 0.20533,0.224 0.14934,0.14933 0.26134,0.14933 0.168,0 0.18666,-0.392 0,-0.26133 0,-0.98934 0.0187,-0.74666 0.0187,-1.792 0.0187,-1.064 0.0187,-2.296 0,-1.23201 0,-2.52001 -0.0187,-0.37333 -0.392,-0.672 -0.37334,-0.29867 -0.69067,-0.35467 -0.31733,-0.056 -0.57867,-0.14933 -0.26133,-0.0933 -0.26133,-0.224 0,-0.112 0.26133,-0.14933 0.26134,-0.056 0.504,-0.056 0.18667,0 0.35467,0 0.18667,0 0.35467,0 0.18666,0 0.35466,0 0.44801,0 0.70934,0 0.26133,-0.0187 0.56,-0.0373 0.31733,-0.0187 0.87734,-0.0187 0.24266,0 0.392,0.056 0.14933,0.0373 0.14933,0.14933 0,0.26133 -0.616,0.37333 -0.69067,0.13067 -0.91467,0.336 -0.224,0.20534 -0.26133,0.67201 0,0.0933 -0.0187,0.728 0,0.63466 0,1.60533 0,0.97067 -0.0187,2.09067 0,1.12001 0,2.24001 0,1.10133 0,1.97867 0,0.448 0.0187,0.82133 0.0373,0.35467 0.056,0.616 0.0187,0.24267 0.0187,0.37334 0,0.29867 -0.13067,0.37333 -0.112,0.0933 -0.26133,0.0933 z"
       style="font-style:normal;font-variant:normal;font-weight:normal;font-stretch:normal;font-size:18.6667px;font-family:'EB Garamond';-inkscape-font-specification:'EB Garamond'"
       id="path68" />
  </g>
  <g
     aria-label="1N"
     id="text161"
     style="font-size:18.6667px;font-family:Sans">
    <path
       d="m 342.78933,179.65219 q -0.13067,0 -0.20533,-0.0747 -0.0747,-0.0747 -0.0747,-0.14933 0,-0.168 0.28,-0.24267 0.70933,-0.18666 1.15733,-0.336 0.46667,-0.168 0.67201,-0.448 0.224,-0.29866 0.224,-0.84 v -7.13068 q 0,-0.35467 -0.224,-0.54133 -0.224,-0.18667 -0.57867,-0.26134 -0.35467,-0.0747 -0.76534,-0.0933 -0.18666,-0.0187 -0.336,-0.0933 -0.14933,-0.0747 -0.14933,-0.224 0,-0.13067 0.13067,-0.224 0.14933,-0.0933 0.336,-0.112 0.84,-0.13067 1.49333,-0.31734 0.672,-0.20533 1.30667,-0.84 0.0187,-0.0187 0.0373,-0.0187 0.0373,0 0.056,0 0.0933,0 0.168,0.056 0.0747,0.0373 0.056,0.112 -0.0373,0.28 -0.056,0.616 -0.0187,0.31734 -0.0187,0.70934 v 8.58668 q 0,0.46667 0.168,0.70934 0.18667,0.24266 0.616,0.392 0.42933,0.13066 1.19467,0.31733 0.112,0.0187 0.20533,0.0933 0.112,0.056 0.112,0.14934 0,0.20533 -0.26133,0.20533 -0.52267,0 -0.97067,-0.0373 -0.42933,-0.0187 -0.85867,-0.0373 -0.41066,-0.0187 -0.91467,-0.0187 -0.504,0 -0.952,0.0187 -0.448,0.0187 -0.896,0.0373 -0.448,0.0373 -0.952,0.0373 z"
       style="font-style:normal;font-variant:normal;font-weight:normal;font-stretch:normal;font-size:18.6667px;font-family:'EB Garamond';-inkscape-font-specification:'EB Garamond'"
       id="path71" />
    <path
       d="m 362.23011,179.91353 q -0.168,0 -0.672,-0.28001 -0.48533,-0.28 -0.93333,-0.896 -0.0747,-0.0933 -0.46667,-0.56 -0.37333,-0.46667 -0.97067,-1.15733 -0.57867,-0.70934 -1.26933,-1.53067 -0.69067,-0.82134 -1.38134,-1.64267 -0.69067,-0.82134 -1.288,-1.51201 -0.59734,-0.70933 -1.008,-1.176 -0.392,-0.48533 -0.48534,-0.59733 -0.13066,-0.168 -0.224,-0.224 -0.0933,-0.0747 -0.168,-0.0747 -0.0933,0 -0.13067,0.14933 -0.0373,0.13067 -0.0373,0.24267 -0.0187,0.91467 -0.0373,2.10934 -0.0187,1.19467 -0.0373,2.464 -0.0187,1.26934 -0.0187,2.42667 0,0.50401 0.24266,0.93334 0.26134,0.42933 0.95201,0.56 0.31733,0.056 0.46666,0.13067 0.14934,0.0747 0.14934,0.20533 0,0.112 -0.14934,0.14933 -0.14933,0.056 -0.392,0.056 -0.504,0 -0.76533,-0.0373 -0.24267,-0.0187 -0.448,-0.0373 -0.18667,-0.0187 -0.54134,-0.0187 -0.336,0 -0.52266,0.0187 -0.18667,0.0187 -0.42934,0.0373 -0.24267,0.0373 -0.74667,0.0373 -0.24266,0 -0.392,-0.056 -0.14933,-0.0373 -0.14933,-0.14933 0,-0.13067 0.14933,-0.20533 0.14934,-0.0747 0.46667,-0.14934 0.54133,-0.14933 0.784,-0.54133 0.24267,-0.41067 0.29867,-0.98934 0.0747,-0.70933 0.14933,-1.86667 0.0747,-1.176 0.13067,-2.61333 0.056,-1.45601 0.056,-2.98668 0,-0.98933 -0.52267,-1.41866 -0.504,-0.42934 -1.32533,-0.69067 -0.0747,-0.0373 -0.336,-0.14934 -0.24267,-0.13066 -0.24267,-0.29866 0,-0.168 0.168,-0.20534 0.168,-0.056 0.26133,-0.056 0.54134,0.0187 0.87734,0.0373 0.336,0 0.59733,0.0187 0.26134,0.0187 0.57867,0.0373 0.31733,0 0.82133,0 0.16801,0 0.26134,0.0933 0.0933,0.0933 0.18667,0.224 0.0747,0.112 0.48533,0.63467 0.42933,0.504 1.04534,1.288 0.63466,0.76533 1.38133,1.68 0.74667,0.896 1.49334,1.81067 0.74666,0.896 1.38133,1.68001 0.63467,0.76533 1.04534,1.26933 0.42933,0.504 0.504,0.59734 0.0747,0.0747 0.20533,0.224 0.14934,0.14933 0.26134,0.14933 0.168,0 0.18666,-0.392 0,-0.26133 0,-0.98934 0.0187,-0.74666 0.0187,-1.792 0.0187,-1.064 0.0187,-2.296 0,-1.23201 0,-2.52001 -0.0187,-0.37333 -0.392,-0.672 -0.37334,-0.29867 -0.69067,-0.35467 -0.31734,-0.056 -0.57867,-0.14933 -0.26133,-0.0933 -0.26133,-0.224 0,-0.112 0.26133,-0.14933 0.26133,-0.056 0.504,-0.056 0.18667,0 0.35467,0 0.18667,0 0.35467,0 0.18666,0 0.35466,0 0.448,0 0.70934,0 0.26133,-0.0187 0.56,-0.0373 0.31733,-0.0187 0.87733,-0.0187 0.24267,0 0.392,0.056 0.14934,0.0373 0.14934,0.14933 0,0.26133 -0.616,0.37333 -0.69067,0.13067 -0.91467,0.336 -0.224,0.20534 -0.26134,0.67201 0,0.0933 -0.0187,0.728 0,0.63466 0,1.60533 0,0.97067 -0.0187,2.09067 0,1.12001 0,2.24001 0,1.10133 0,1.97867 0,0.448 0.0187,0.82133 0.0373,0.35467 0.056,0.616 0.0187,0.24267 0.0187,0.37334 0,0.29867 -0.13066,0.37333 -0.112,0.0933 -0.26134,0.0933 z"
       style="font-style:normal;font-variant:normal;font-weight:normal;font-stretch:normal;font-size:18.6667px;font-family:'EB Garamond';-inkscape-font-specification:'EB Garamond'"
       id="path73" />
  </g>
  <g
     aria-label="2N"
     id="text165"
     style="font-size:18.6667px;font-family:Sans">
    <path
       d="m 350.05334,218.65219 q -0.13066,0 -0.41067,-0.0187 -0.28,-0.0187 -0.63466,-0.0373 -0.35467,-0.0187 -0.74667,-0.0373 -0.37334,-0.0187 -0.728,-0.0187 -0.35467,0 -1.008,0.0187 -0.65334,0.0187 -1.38134,0.0373 -0.70933,0 -1.25067,0.0187 -0.54133,0.0187 -0.69067,0.0187 -0.0747,0 -0.224,-0.112 -0.14933,-0.13066 -0.14933,-0.20533 0,-0.0933 0.0373,-0.13067 0.0373,-0.0373 0.112,-0.112 l 3.19201,-3.304 q 0.93333,-0.97067 1.54933,-2.16534 0.61601,-1.21333 0.61601,-2.44534 0,-0.98933 -0.59734,-1.54933 -0.59733,-0.57867 -1.4,-0.57867 -0.76534,0 -1.41867,0.42933 -0.65334,0.41067 -1.04534,1.08267 -0.056,0.112 -0.14933,0.18667 -0.0747,0.0747 -0.168,0.0747 -0.0747,0 -0.18667,-0.14934 -0.0933,-0.168 -0.0933,-0.41067 0,-0.224 0.26133,-0.616 0.28,-0.392 0.76534,-0.80266 0.48533,-0.41067 1.15733,-0.69067 0.67201,-0.29867 1.45601,-0.29867 0.93333,0 1.60533,0.392 0.672,0.392 1.02667,1.08267 0.35467,0.69067 0.35467,1.60534 0,0.504 -0.18667,1.08266 -0.168,0.57867 -0.48533,1.13867 -0.29867,0.56 -0.69067,1.04534 -0.24267,0.29867 -0.728,0.80267 -0.46667,0.48533 -1.02667,1.04533 -0.54133,0.56 -1.04534,1.064 -0.48533,0.48534 -0.80266,0.82134 -0.31734,0.31733 -0.31734,0.35467 0,0.0933 0.26134,0.13066 0.31733,0.0187 0.70933,0.0373 0.41067,0.0187 0.93334,0.0187 0.54133,0 1.08266,-0.0187 0.54134,-0.0187 1.04534,-0.0373 0.54133,-0.0373 0.84,-0.0933 0.29867,-0.056 0.504,-0.224 0.20534,-0.18667 0.42934,-0.56 0.0747,-0.112 0.18666,-0.26134 0.13067,-0.168 0.28,-0.168 0.0933,0 0.112,0.0747 0.0187,0.0747 0.0187,0.14933 0,0.0933 -0.112,0.37334 -0.0933,0.26133 -0.224,0.65333 -0.13067,0.392 -0.224,0.85867 -0.056,0.29867 -0.18667,0.37333 -0.13066,0.0747 -0.224,0.0747 z"
       style="font-style:normal;font-variant:normal;font-weight:normal;font-stretch:normal;font-size:18.6667px;font-family:'EB Garamond';-inkscape-font-specification:'EB Garamond'"
       id="path76" />
    <path
       d="m 363.67012,218.91353 q -0.168,0 -0.672,-0.28001 -0.48534,-0.28 -0.93334,-0.896 -0.0747,-0.0933 -0.46667,-0.56 -0.37333,-0.46667 -0.97067,-1.15733 -0.57866,-0.70934 -1.26933,-1.53067 -0.69067,-0.82134 -1.38134,-1.64267 -0.69066,-0.82134 -1.288,-1.51201 -0.59733,-0.70933 -1.008,-1.176 -0.392,-0.48533 -0.48534,-0.59733 -0.13066,-0.168 -0.224,-0.224 -0.0933,-0.0747 -0.168,-0.0747 -0.0933,0 -0.13066,0.14933 -0.0373,0.13067 -0.0373,0.24267 -0.0187,0.91467 -0.0373,2.10934 -0.0187,1.19467 -0.0373,2.464 -0.0187,1.26934 -0.0187,2.42667 0,0.50401 0.24267,0.93334 0.26133,0.42933 0.952,0.56 0.31733,0.056 0.46667,0.13067 0.14933,0.0747 0.14933,0.20533 0,0.112 -0.14933,0.14933 -0.14934,0.056 -0.392,0.056 -0.50401,0 -0.76534,-0.0373 -0.24267,-0.0187 -0.448,-0.0373 -0.18667,-0.0187 -0.54133,-0.0187 -0.336,0 -0.52267,0.0187 -0.18667,0.0187 -0.42934,0.0373 -0.24266,0.0373 -0.74666,0.0373 -0.24267,0 -0.392,-0.056 -0.14934,-0.0373 -0.14934,-0.14933 0,-0.13067 0.14934,-0.20533 0.14933,-0.0747 0.46666,-0.14934 0.54134,-0.14933 0.784,-0.54133 0.24267,-0.41067 0.29867,-0.98934 0.0747,-0.70933 0.14934,-1.86667 0.0747,-1.176 0.13066,-2.61333 0.056,-1.45601 0.056,-2.98668 0,-0.98933 -0.52267,-1.41866 -0.504,-0.42934 -1.32533,-0.69067 -0.0747,-0.0373 -0.336,-0.14934 -0.24267,-0.13066 -0.24267,-0.29866 0,-0.168 0.168,-0.20534 0.168,-0.056 0.26134,-0.056 0.54133,0.0187 0.87733,0.0373 0.336,0 0.59733,0.0187 0.26134,0.0187 0.57867,0.0373 0.31734,0 0.82134,0 0.168,0 0.26133,0.0933 0.0933,0.0933 0.18667,0.224 0.0747,0.112 0.48533,0.63467 0.42934,0.504 1.04534,1.288 0.63467,0.76533 1.38133,1.68 0.74667,0.896 1.49334,1.81067 0.74667,0.896 1.38134,1.68001 0.63466,0.76533 1.04533,1.26933 0.42933,0.504 0.504,0.59734 0.0747,0.0747 0.20533,0.224 0.14934,0.14933 0.26134,0.14933 0.168,0 0.18667,-0.392 0,-0.26133 0,-0.98934 0.0187,-0.74666 0.0187,-1.792 0.0187,-1.064 0.0187,-2.296 0,-1.23201 0,-2.52001 -0.0187,-0.37333 -0.392,-0.672 -0.37334,-0.29867 -0.69067,-0.35467 -0.31733,-0.056 -0.57867,-0.14933 -0.26133,-0.0933 -0.26133,-0.224 0,-0.112 0.26133,-0.14933 0.26134,-0.056 0.504,-0.056 0.18667,0 0.35467,0 0.18667,0 0.35467,0 0.18667,0 0.35467,0 0.448,0 0.70933,0 0.26133,-0.0187 0.56,-0.0373 0.31734,-0.0187 0.87734,-0.0187 0.24266,0 0.392,0.056 0.14933,0.0373 0.14933,0.14933 0,0.26133 -0.616,0.37333 -0.69067,0.13067 -0.91467,0.336 -0.224,0.20534 -0.26133,0.67201 0,0.0933 -0.0187,0.728 0,0.63466 0,1.60533 0,0.97067 -0.0187,2.09067 0,1.12001 0,2.24001 0,1.10133 0,1.97867 0,0.448 0.0187,0.82133 0.0373,0.35467 0.056,0.616 0.0187,0.24267 0.0187,0.37334 0,0.29867 -0.13067,0.37333 -0.112,0.0933 -0.26133,0.0933 z"
       style="font-style:normal;font-variant:normal;font-weight:normal;font-stretch:normal;font-size:18.6667px;font-family:'EB Garamond';-inkscape-font-specification:'EB Garamond'"
       id="path78" />
  </g>
  <path
     style="fill:none;fill-opacity:0.75;fill-rule:evenodd;stroke:#000000;stroke-width:1.96149;stroke-linecap:butt;stroke-linejoin:miter;stroke-miterlimit:4;stroke-dasharray:none;stroke-opacity:1"
     d="m 49.112215,137.42867 0.09761,-10.43904 c 5.965977,0.38358 10.991687,-4.94202 10.991687,-11.07775 0,-6.13575 -5.015889,-11.11549 -11.196187,-11.11549 -3.692983,0 -9.010827,1.78833 -8.996384,4.62755 0.01437,2.83924 5.319699,4.59142 8.996384,4.59142 6.180298,0 11.196187,-4.97974 11.196187,-11.11549 0,-6.135746 -5.015889,-11.115465 -11.196187,-11.115465 -3.632469,0 -9.010497,1.816638 -9.018821,4.603175 -0.008,2.786554 5.317663,4.61577 9.018821,4.61577 6.180298,0 11.196187,-4.979736 11.196187,-11.115485 0,-6.135731 -5.015889,-11.115467 -11.196187,-11.115467 -3.71045,0 -8.674319,1.816298 -8.805888,4.516458 -0.131599,2.700159 5.184787,4.702487 8.805888,4.702487 6.180298,0 11.196187,-4.979736 11.196187,-11.115467 0,-6.135749 -5.015889,-11.115468 -11.196187,-11.115468 -3.657551,0 -8.939742,1.642473 -8.961451,4.4199 -0.02176,2.777426 5.143835,4.799045 8.961451,4.799045 6.180298,0 11.196187,-4.979721 11.196187,-11.115467 0,-6.135727 -5.015889,-11.115467 -11.196187,-11.115467 -3.763968,0 -9.131786,1.90065 -9.106913,4.71398 0.02485,2.8133 5.427434,4.50495 9.106913,4.50495 6.180298,0 11.196187,-4.97974 11.196187,-11.11547 0,-6.13575 -5.015889,-11.11548 -11.196187,-11.11548 v -15.12619"
     id="path3996"
     sodipodi:nodetypes="ccssssssssssssssssssssscs" />
  <path
     sodipodi:nodetypes="ccssssssssssssssssssssscs"
     id="path3996-6"
     d="m 152.80273,174.06144 0.0976,-13.90462 c 5.96597,0.51092 10.99168,-6.58269 10.99168,-14.75538 0,-8.17271 -5.01588,-14.80564 -11.19618,-14.80564 -3.69299,0 -9.01083,2.38203 -8.99639,6.16382 0.0144,3.78182 5.3197,6.11569 8.99639,6.11569 6.1803,0 11.19618,-6.63293 11.19618,-14.80564 0,-8.17271 -5.01588,-14.80561 -11.19618,-14.80561 -3.63247,0 -9.0105,2.41973 -9.01882,6.13135 -0.008,3.71164 5.31766,6.14813 9.01882,6.14813 6.1803,0 11.19618,-6.63292 11.19618,-14.80564 0,-8.17269 -5.01588,-14.80561 -11.19618,-14.80561 -3.71045,0 -8.67432,2.419278 -8.80589,6.01584 -0.1316,3.59657 5.18479,6.26364 8.80589,6.26364 6.1803,0 11.19618,-6.63293 11.19618,-14.805615 0,-8.172712 -5.01588,-14.805613 -11.19618,-14.805613 -3.65755,0 -8.93974,2.187746 -8.96145,5.887231 -0.0218,3.699484 5.14383,6.392246 8.96145,6.392246 6.1803,0 11.19618,-6.632903 11.19618,-14.805612 0,-8.172683 -5.01588,-14.805612 -11.19618,-14.805612 -3.76397,0 -9.13179,2.531633 -9.10692,6.278941 0.0249,3.747267 5.42744,6.000516 9.10692,6.000516 6.1803,0 11.19618,-6.632928 11.19618,-14.805616 0,-8.172714 -5.01588,-14.805629 -11.19618,-14.805629 V 23.78918"
     style="fill:none;fill-opacity:0.75;fill-rule:evenodd;stroke:#000000;stroke-width:2.26379;stroke-linecap:butt;stroke-linejoin:miter;stroke-miterlimit:4;stroke-dasharray:none;stroke-opacity:1" />
  <path
     style="fill:none;fill-opacity:0.75;fill-rule:evenodd;stroke:#000000;stroke-width:2.53088;stroke-linecap:butt;stroke-linejoin:miter;stroke-miterlimit:4;stroke-dasharray:none;stroke-opacity:1"
     d="m 266.3458,211.40884 0.0976,-17.37921 c 5.96597,0.63859 10.99168,-8.22763 10.99168,-18.44258 0,-10.21497 -5.01588,-18.50539 -11.19618,-18.50539 -3.69299,0 -9.01083,2.97727 -8.99639,7.70409 0.0144,4.72685 5.3197,7.64393 8.99639,7.64393 6.1803,0 11.19618,-8.29042 11.19618,-18.50539 0,-10.21498 -5.01588,-18.50536 -11.19618,-18.50536 -3.63247,0 -9.0105,3.02439 -9.01882,7.6635 -0.008,4.63914 5.31766,7.68448 9.01882,7.68448 6.1803,0 11.19618,-8.29041 11.19618,-18.50539 0,-10.21495 -5.01588,-18.50536 -11.19618,-18.50536 -3.71045,0 -8.67432,3.02382 -8.80589,7.51913 -0.1316,4.49531 5.18479,7.82885 8.80589,7.82885 6.1803,0 11.19618,-8.29042 11.19618,-18.50537 0,-10.21497 -5.01588,-18.505356 -11.19618,-18.505356 -3.65755,0 -8.93974,2.734437 -8.96145,7.358379 -0.0218,4.623937 5.14383,7.989587 8.96145,7.989587 6.1803,0 11.19618,-8.290382 11.19618,-18.505352 0,-10.214938 -5.01588,-18.505355 -11.19618,-18.505355 -3.76397,0 -9.13179,3.164257 -9.10692,7.847972 0.0249,4.683664 5.42744,7.499973 9.10692,7.499973 6.1803,0 11.19618,-8.290417 11.19618,-18.505361 0,-10.214976 -5.01588,-18.505377 -11.19618,-18.505377 V 23.585355"
     id="path3996-6-2"
     sodipodi:nodetypes="ccssssssssssssssssssssscs" />
  <g
     aria-label="2F"
     id="text143-8"
     style="font-style:italic;font-size:18.6667px;font-family:Sans">
    <path
       d="m 249.13098,357.14893 q -0.13067,0 -0.41067,-0.0187 -0.28,-0.0187 -0.63467,-0.0373 -0.35466,-0.0187 -0.74666,-0.0373 -0.37334,-0.0187 -0.72801,-0.0187 -0.35466,0 -1.008,0.0187 -0.65333,0.0187 -1.38133,0.0373 -0.70934,0 -1.25067,0.0187 -0.54134,0.0187 -0.69067,0.0187 -0.0747,0 -0.224,-0.112 -0.14933,-0.13067 -0.14933,-0.20533 0,-0.0933 0.0373,-0.13067 0.0373,-0.0373 0.112,-0.112 l 3.19201,-3.30401 q 0.93333,-0.97067 1.54933,-2.16533 0.616,-1.21334 0.616,-2.44534 0,-0.98934 -0.59733,-1.54934 -0.59734,-0.57867 -1.4,-0.57867 -0.76534,0 -1.41867,0.42934 -0.65334,0.41067 -1.04534,1.08267 -0.056,0.112 -0.14933,0.18666 -0.0747,0.0747 -0.168,0.0747 -0.0747,0 -0.18667,-0.14933 -0.0933,-0.168 -0.0933,-0.41067 0,-0.224 0.26133,-0.616 0.28,-0.392 0.76534,-0.80267 0.48533,-0.41067 1.15733,-0.69067 0.672,-0.29867 1.456,-0.29867 0.93334,0 1.60534,0.39201 0.672,0.392 1.02667,1.08266 0.35467,0.69067 0.35467,1.60534 0,0.504 -0.18667,1.08267 -0.168,0.57867 -0.48534,1.13867 -0.29866,0.56 -0.69066,1.04533 -0.24267,0.29867 -0.72801,0.80267 -0.46666,0.48534 -1.02666,1.04534 -0.54134,0.56 -1.04534,1.064 -0.48533,0.48533 -0.80267,0.82133 -0.31733,0.31734 -0.31733,0.35467 0,0.0933 0.26133,0.13067 0.31734,0.0187 0.70934,0.0373 0.41066,0.0187 0.93333,0.0187 0.54134,0 1.08267,-0.0187 0.54134,-0.0187 1.04534,-0.0373 0.54133,-0.0373 0.84,-0.0933 0.29866,-0.056 0.504,-0.224 0.20533,-0.18666 0.42933,-0.56 0.0747,-0.112 0.18667,-0.26133 0.13067,-0.168 0.28,-0.168 0.0933,0 0.112,0.0747 0.0187,0.0747 0.0187,0.14934 0,0.0933 -0.112,0.37333 -0.0933,0.26134 -0.224,0.65334 -0.13067,0.392 -0.224,0.85867 -0.056,0.29866 -0.18667,0.37333 -0.13067,0.0747 -0.224,0.0747 z"
       style="font-style:normal;font-variant:normal;font-weight:normal;font-stretch:normal;font-size:18.6667px;font-family:'EB Garamond';-inkscape-font-specification:'EB Garamond'"
       id="path93" />
    <path
       d="m 250.53973,357.18626 q -0.224,0 -0.336,-0.0373 -0.112,-0.0373 -0.112,-0.168 0,-0.14934 0.18667,-0.20534 0.168,-0.0747 0.48533,-0.13066 0.69067,-0.13067 1.02667,-0.41067 0.336,-0.29867 0.54133,-0.98934 l 2.55734,-8.40001 q 0.224,-0.672 0,-0.952 -0.224,-0.28 -0.84,-0.41067 -0.28,-0.056 -0.37333,-0.14934 -0.0933,-0.0933 -0.0933,-0.224 0,-0.112 0.168,-0.14933 0.18667,-0.056 0.41067,-0.056 0.20533,0 0.82134,0.0373 0.63466,0.0187 1.21333,0.0187 h 2.96801 q 1.26933,0 1.904,-0.112 0.65333,-0.112 0.728,-0.112 0.0933,0 0.112,0.056 0.0373,0.0373 0.0373,0.13067 0,0.0747 -0.0373,0.168 -0.0187,0.0933 -0.056,0.24266 -0.0933,0.31734 -0.24267,0.82134 -0.13066,0.48533 -0.18666,0.85867 -0.0187,0.0933 -0.0747,0.20533 -0.056,0.112 -0.24267,0.112 -0.13066,0 -0.168,-0.13067 -0.0373,-0.14933 -0.0373,-0.29866 0,-0.336 -0.0187,-0.63467 0,-0.29867 -0.18666,-0.48533 -0.0933,-0.0933 -0.26134,-0.14934 -0.168,-0.0747 -0.42933,-0.0747 h -2.68801 q -0.35466,0 -0.504,0.168 -0.13066,0.168 -0.224,0.392 -0.0187,0.056 -0.18666,0.56 -0.16801,0.48533 -0.39201,1.15733 -0.20533,0.672 -0.41066,1.30667 -0.18667,0.63467 -0.29867,0.97067 -0.0373,0.14933 -0.0187,0.31733 0.0187,0.14934 0.14934,0.14934 l 2.52,-0.056 q 0.784,-0.0373 1.32534,-0.69067 0.13066,-0.14933 0.26133,-0.26133 0.14933,-0.13067 0.224,-0.13067 0.0933,0 0.14933,0.0933 0.0747,0.0747 0.0187,0.20534 -0.31733,0.70933 -0.504,1.232 -0.168,0.504 -0.35467,1.21333 -0.0373,0.13067 -0.0933,0.224 -0.056,0.0933 -0.14933,0.0933 -0.14934,0 -0.224,-0.168 -0.056,-0.168 -0.056,-0.26134 0,-0.54133 -0.20534,-0.728 -0.18666,-0.20533 -0.48533,-0.224 -0.20534,-0.0187 -0.672,-0.0187 -0.448,-0.0187 -0.87734,-0.0187 -0.42933,0 -0.59733,0 -0.31734,0 -0.56,0.0933 -0.224,0.0747 -0.336,0.48534 l -0.95201,3.32267 q -0.18666,0.63467 -0.13066,0.97067 0.056,0.31733 0.336,0.448 0.29866,0.13067 0.784,0.24267 0.28,0.056 0.37333,0.13066 0.0933,0.056 0.0933,0.20534 0,0.13066 -0.168,0.168 -0.168,0.0373 -0.392,0.0373 -0.46667,0 -0.78401,-0.0373 -0.29866,-0.0373 -0.57866,-0.056 -0.26134,-0.0373 -0.63467,-0.0373 -0.63467,0 -1.08267,0.056 -0.42933,0.0747 -1.13867,0.0747 z"
       style="font-style:italic;font-variant:normal;font-weight:normal;font-stretch:normal;font-size:18.6667px;font-family:'EB Garamond';-inkscape-font-specification:'EB Garamond Italic'"
       id="path95" />
  </g>
</svg>
