<?xml version="1.0" encoding="UTF-8" standalone="no"?>
<svg
   xmlns:dc="http://purl.org/dc/elements/1.1/"
   xmlns:cc="http://creativecommons.org/ns#"
   xmlns:rdf="http://www.w3.org/1999/02/22-rdf-syntax-ns#"
   xmlns:svg="http://www.w3.org/2000/svg"
   xmlns="http://www.w3.org/2000/svg"
   xmlns:sodipodi="http://sodipodi.sourceforge.net/DTD/sodipodi-0.dtd"
   xmlns:inkscape="http://www.inkscape.org/namespaces/inkscape"
   inkscape:export-ydpi="300"
   inkscape:export-xdpi="300"
   inkscape:export-filename="/Users/rodrigoalcarazdelaosa/bitmap.png"
   width="650"
   height="425"
   id="svg2"
   sodipodi:version="0.32"
   inkscape:version="1.0 (4035a4f, 2020-05-01)"
   version="1.0"
   sodipodi:docname="rozamiento.svg"
   inkscape:output_extension="org.inkscape.output.svg.inkscape"
   sodipodi:modified="true">
  <defs
     id="defs4" />
  <sodipodi:namedview
     id="base"
     pagecolor="#ffffff"
     bordercolor="#666666"
     borderopacity="1.0"
     inkscape:pageopacity="0.0"
     inkscape:pageshadow="2"
     inkscape:zoom="1.304"
     inkscape:cx="320.55215"
     inkscape:cy="209.96933"
     inkscape:document-units="px"
     inkscape:current-layer="layer1"
     width="800px"
     height="500px"
     showgrid="true"
     inkscape:grid-points="true"
     gridtolerance="10000"
     inkscape:window-width="1440"
     inkscape:window-height="787"
     inkscape:window-x="0"
     inkscape:window-y="23"
     inkscape:document-rotation="0"
     fit-margin-top="0"
     fit-margin-left="0"
     fit-margin-right="0"
     fit-margin-bottom="0"
     inkscape:window-maximized="0">
    <inkscape:grid
       id="GridFromPre046Settings"
       type="xygrid"
       originx="-25"
       originy="-50"
       spacingx="5px"
       spacingy="5px"
       color="#3f3fff"
       empcolor="#3f3fff"
       opacity="0.15"
       empopacity="0.38"
       empspacing="5" />
  </sodipodi:namedview>
  <metadata
     id="metadata7">
    <rdf:RDF>
      <cc:Work
         rdf:about="">
        <dc:format>image/svg+xml</dc:format>
        <dc:type
           rdf:resource="http://purl.org/dc/dcmitype/StillImage" />
        <dc:title />
      </cc:Work>
    </rdf:RDF>
  </metadata>
  <g
     inkscape:label="Capa 1"
     inkscape:groupmode="layer"
     id="layer1"
     transform="translate(-25,-50)">
    <rect
       style="fill:#ffcccc;fill-opacity:1;stroke:none;stroke-width:4.65475;stroke-linecap:round;stroke-linejoin:round;stroke-miterlimit:4;stroke-dasharray:none;stroke-dashoffset:0;stroke-opacity:1"
       id="rect2178"
       width="650"
       height="150"
       x="25"
       y="325" />
    <rect
       style="fill:#bbccee;fill-opacity:1;stroke:#000000;stroke-width:0.879421;stroke-linecap:round;stroke-linejoin:round;stroke-miterlimit:4;stroke-dasharray:none;stroke-dashoffset:0;stroke-opacity:1"
       id="rect3152"
       width="349.12057"
       height="149.52788"
       x="300.43973"
       y="175.43971"
       ry="10.082922" />
    <path
       style="fill:none;fill-rule:evenodd;stroke:#000000;stroke-width:0.930949px;stroke-linecap:butt;stroke-linejoin:miter;stroke-opacity:1"
       d="M 25,325 H 675"
       id="path4123"
       sodipodi:nodetypes="cc" />
    <path
       style="fill:#ffcccc;fill-opacity:1;fill-rule:evenodd;stroke:#000000;stroke-width:1px;stroke-linecap:butt;stroke-linejoin:miter;stroke-opacity:1"
       d="M 50.000003,152.70032 C 50.500003,210.5 100.5,250.5 150.5,250.5 c 50,0 100,-40 99.5,-97.79968 -10,4.5 -10,-5.5 -20,0 -10,5.5 -10,-5.5 -20,0 -10,5.5 -10,-5.5 -20,0 -10,5.5 -10,-5.5 -20,0 -8.7731,4.82521 -10,-5.5 -20,0 -10,5.5 -10,-5.5 -20,0 -10,5.5 -10,-5.5 -20,0 -10,5.5 -10,-5.5 -19.999997,0 -10,5.5 -10,-5.5 -20,0 -10,5.5 -10,-5.5 -20,0 z"
       id="path4129"
       sodipodi:nodetypes="czczzzzzzzzzc" />
    <path
       style="fill:#bbccee;fill-opacity:1;fill-rule:evenodd;stroke:#000000;stroke-width:1px;stroke-linecap:butt;stroke-linejoin:miter;stroke-opacity:1"
       d="m 50.500003,150.5 c 0,-50 40,-100 99.999997,-100 60,0 100,50 100,100 -0.15625,0 -5,-5 -10,0 -5,-5 -10,0 -15,0 -5,-5 -10,-5 -15,0 -5,-5 -5,0 -10,0 -10,-5 -15,-5 -20,0 -5,-5 -5,0 -10,0 -5,-5 -5,0 -10,0 0,-5 -5,-5 -10,0 -5,0 -15,-5 -20,0 -5,0 -15,-5 -20,0 -5,-5 -5,0 -10,0 -4.999997,-5 -9.999997,-5 -14.999997,0 -5,0 -10,-5 -15,0 -5,-5 -5,0 -10,0 -5,-5 -5,0 -10,0 z"
       id="path4131"
       sodipodi:nodetypes="czcccccccccccccccc" />
    <circle
       style="fill:none;fill-opacity:1;stroke:#000000;stroke-width:3.01496;stroke-linecap:round;stroke-linejoin:round;stroke-miterlimit:4;stroke-dasharray:none;stroke-dashoffset:0;stroke-opacity:1"
       id="path4125"
       transform="matrix(1.0000496,0,0,0.9900496,25.493797,-22.758689)"
       cx="125"
       cy="175"
       r="100" />
    <circle
       style="fill:none;fill-opacity:1;stroke:#000000;stroke-width:1;stroke-linecap:round;stroke-linejoin:round;stroke-miterlimit:4;stroke-dasharray:none;stroke-dashoffset:0;stroke-opacity:1"
       id="path6071"
       transform="matrix(1.4285722,0,0,1.4285718,-154.286,-139.28583)"
       cx="360"
       cy="325"
       r="10" />
    <path
       style="fill:none;fill-rule:evenodd;stroke:#000000;stroke-width:1px;stroke-linecap:butt;stroke-linejoin:miter;stroke-opacity:1"
       d="M 240,105 370,315"
       id="path7042"
       sodipodi:nodetypes="cc" />
    <path
       style="fill:none;fill-rule:evenodd;stroke:#000000;stroke-width:1px;stroke-linecap:butt;stroke-linejoin:miter;stroke-opacity:1"
       d="m 120,245 230,90"
       id="path7044"
       sodipodi:nodetypes="cc" />
  </g>
</svg>
