<?xml version="1.0" standalone="no"?>
<!DOCTYPE svg PUBLIC "-//W3C//DTD SVG 20010904//EN"
 "http://www.w3.org/TR/2001/REC-SVG-20010904/DTD/svg10.dtd">
<svg version="1.0" xmlns="http://www.w3.org/2000/svg"
 width="640.000000pt" height="1280.000000pt" viewBox="0 0 640.000000 1280.000000"
 preserveAspectRatio="xMidYMid meet">
<metadata>
Created by potrace 1.15, written by Peter Selinger 2001-2017
</metadata>
<g transform="translate(0.000000,1280.000000) scale(0.100000,-0.100000)"
fill="#000000" stroke="none">
<path d="M3686 12779 c-14 -11 -32 -33 -40 -47 -36 -74 -40 -120 -41 -532 0
-390 -1 -406 -21 -440 -35 -61 -59 -64 -374 -51 -151 6 -316 11 -367 11 l-92
0 -5 43 c-3 23 -8 195 -11 382 -6 365 -19 596 -36 626 -68 129 -483 -399 -569
-725 -13 -48 -26 -83 -30 -79 -4 4 -17 44 -29 88 -45 161 -151 352 -261 470
-33 35 -60 68 -60 73 0 10 73 36 175 61 101 25 155 34 395 71 241 37 252 39
244 51 -9 15 -200 10 -389 -11 -435 -50 -714 -105 -915 -182 -234 -90 -435
-252 -512 -414 -51 -109 -58 -179 -73 -694 -8 -307 -17 -489 -25 -515 -18 -59
-63 -94 -190 -149 -128 -56 -245 -130 -289 -183 -42 -51 -61 -114 -61 -199 0
-108 28 -174 104 -249 169 -166 540 -258 1316 -325 182 -16 272 -30 297 -46
20 -13 22 -20 16 -77 -8 -85 14 -154 77 -251 73 -112 108 -185 121 -257 18
-100 4 -136 -90 -229 -116 -115 -161 -187 -181 -291 -21 -107 24 -218 150
-374 99 -122 137 -187 152 -258 18 -87 -3 -129 -136 -267 -127 -131 -166 -194
-173 -280 -11 -117 31 -198 195 -373 142 -152 173 -227 137 -325 -14 -37 -49
-78 -165 -192 -170 -168 -205 -219 -205 -300 0 -96 53 -170 238 -336 134 -120
159 -158 159 -245 0 -91 -32 -148 -156 -278 -98 -103 -119 -131 -97 -131 4 0
38 23 74 50 36 28 69 50 72 50 3 0 -8 -21 -25 -46 -18 -25 -30 -47 -27 -50 2
-3 42 19 88 47 146 91 198 111 302 117 51 2 104 11 118 18 14 7 36 10 48 7 16
-4 27 1 37 16 23 33 47 28 42 -9 -3 -17 -3 -30 -2 -30 17 0 121 42 216 86 103
49 157 66 454 140 414 103 618 146 706 148 64 1 68 2 68 24 0 12 7 25 15 28
27 11 16 22 -27 29 -59 10 -33 21 106 41 95 14 121 16 137 6 18 -11 24 -9 49
18 19 20 38 30 58 30 67 0 222 160 222 230 0 55 -155 214 -279 287 -45 26 -68
47 -77 70 -18 41 -18 303 -1 350 23 61 76 122 191 218 64 53 124 108 134 123
27 41 23 144 -8 207 -34 70 -112 145 -200 191 -99 51 -122 91 -128 214 -8 171
47 312 179 455 94 103 139 186 139 255 -1 89 -62 176 -179 254 -37 25 -74 53
-83 63 -27 30 -41 107 -35 196 12 168 60 282 172 407 56 63 89 112 127 188 76
156 90 163 411 217 411 68 641 150 688 243 21 41 15 64 -25 104 -146 147 -826
267 -1774 313 l-123 6 46 -45 46 -46 87 0 c122 0 434 -17 652 -35 366 -31 689
-90 901 -163 116 -40 146 -57 164 -92 40 -78 -50 -114 -405 -164 -419 -59
-628 -71 -860 -52 -116 10 -150 0 -382 -111 -220 -105 -273 -109 -310 -26 -19
43 -20 59 -14 163 10 153 9 161 -13 190 -17 23 -25 25 -87 24 -171 -2 -894
-298 -894 -366 0 -17 79 -2 145 28 71 31 566 196 644 214 44 10 55 10 62 -1
16 -27 21 -139 9 -245 -13 -126 -27 -182 -49 -193 -9 -5 -108 -39 -221 -76
-334 -110 -580 -215 -627 -267 -15 -17 -14 -18 16 -18 18 0 106 24 195 54 252
84 305 90 319 36 10 -37 -27 -57 -210 -116 -368 -117 -563 -198 -785 -327
-105 -60 -126 -61 -54 -2 68 55 73 75 52 224 -19 144 -14 210 30 341 89 265
349 591 659 826 131 100 216 149 415 242 19 9 -89 11 -480 8 -458 -4 -494 -3
-385 9 233 25 483 36 760 33 260 -3 276 -4 222 -16 -32 -8 -57 -15 -55 -17 2
-1 91 -5 198 -9 l195 -6 -40 21 -40 20 135 -6 c419 -19 1109 -77 1480 -125 85
-11 256 -38 380 -60 283 -49 326 -54 334 -41 18 28 -139 83 -391 135 -92 19
-211 44 -263 55 -105 22 -411 58 -765 91 -126 11 -250 24 -275 27 l-45 5 40
15 c75 26 234 53 352 59 191 10 390 -12 863 -96 63 -12 176 -30 250 -41 74
-10 155 -22 179 -26 73 -10 40 13 -67 47 -107 35 -142 53 -142 75 0 22 45 19
146 -11 132 -38 250 -99 285 -146 72 -100 95 -309 45 -407 -68 -131 -390 -219
-1161 -316 -160 -20 -292 -39 -294 -41 -9 -9 175 -3 364 11 624 48 945 125
1098 265 90 82 117 175 98 328 -13 104 -48 171 -116 225 -55 43 -205 118 -338
168 -53 20 -93 41 -99 52 -6 11 -14 160 -18 351 -17 643 -25 721 -84 841 -20
38 -67 106 -105 150 -181 209 -389 306 -856 400 -282 57 -752 113 -800 95 -27
-10 40 -25 230 -51 235 -32 656 -122 820 -175 324 -106 620 -340 654 -519 15
-81 31 -420 33 -705 1 -322 -1 -330 -85 -330 -28 0 -92 7 -142 14 -121 20
-418 52 -650 71 -332 27 -371 36 -381 93 -13 69 4 472 26 617 52 348 136 590
249 718 28 32 51 64 51 72 0 22 -26 24 -58 5 -81 -50 -186 -236 -253 -454 -24
-75 -46 -136 -50 -136 -3 0 -9 22 -13 50 -16 117 -236 488 -374 628 -112 116
-180 145 -236 101z m186 -198 c128 -138 233 -299 286 -436 57 -150 74 -269 79
-566 l5 -267 -28 -18 c-25 -17 -50 -19 -219 -19 -274 0 -1424 25 -1595 35
-158 9 -197 20 -208 59 -12 45 -8 440 6 530 30 189 97 357 212 529 84 125 147
194 174 190 47 -7 51 -46 51 -543 0 -527 -4 -504 82 -524 29 -6 217 -12 485
-13 429 -3 437 -3 465 18 58 43 57 39 65 534 5 413 11 504 32 539 17 27 55 10
108 -48z m-2209 -39 c124 -55 253 -249 321 -484 87 -300 111 -731 47 -855 -42
-83 -88 -106 -256 -127 -71 -10 -141 -20 -155 -23 l-25 -7 25 -7 c14 -4 113
-5 220 -3 128 3 188 1 175 -5 -28 -14 -433 -55 -787 -80 -80 -6 -199 -21 -265
-32 -174 -32 -175 -32 -191 15 -35 108 -38 504 -6 856 28 304 52 375 168 498
203 214 548 334 729 254z m1877 -1363 c355 -6 668 -13 695 -17 57 -8 68 -30
23 -46 -18 -6 -213 -5 -552 3 -334 8 -696 11 -998 7 -260 -4 -485 -4 -500 1
-124 37 167 75 502 67 102 -3 475 -9 830 -15z m1450 -179 c334 -34 611 -78
635 -102 12 -12 -54 -4 -230 28 -255 47 -491 65 -498 39 -2 -11 16 -15 273
-49 225 -31 472 -75 485 -87 14 -14 -5 -12 -232 26 -116 19 -320 46 -454 60
-134 14 -269 29 -299 34 -49 7 -42 9 63 10 64 0 117 5 117 10 0 11 -34 17
-199 36 -73 8 -136 17 -140 21 -9 10 263 -5 479 -26z m-1247 -20 c479 -14 655
-32 644 -63 -5 -17 -75 -25 -222 -26 -294 -2 -988 -36 -1010 -50 -14 -8 73
-19 180 -21 162 -3 148 -16 -27 -25 -190 -8 -585 -1 -638 12 -29 8 -35 14 -32
33 1 12 -3 28 -8 35 -19 23 -108 28 -274 15 -181 -15 -277 -8 -326 21 -28 17
-31 22 -19 34 35 34 1062 55 1732 35z m-1663 -185 c223 -27 208 -34 -115 -55
-315 -21 -699 -71 -1045 -136 -303 -57 -460 -101 -564 -157 -128 -69 -60 -76
174 -17 401 101 1247 221 1537 219 60 0 104 -2 98 -4 -5 -2 -128 -16 -273 -30
-400 -39 -758 -91 -954 -136 -198 -46 -68 -56 237 -18 419 52 784 81 1240 99
333 12 341 12 330 1 -6 -5 -82 -41 -169 -80 -88 -39 -189 -89 -226 -110 -95
-56 -171 -142 -206 -231 -20 -53 -35 -75 -53 -83 -17 -8 -101 -12 -246 -11
-285 0 -481 26 -1059 140 -125 25 -230 43 -233 40 -9 -9 85 -56 172 -85 50
-16 144 -41 210 -56 237 -53 773 -126 1025 -140 142 -8 166 5 232 128 106 200
202 272 298 222 17 -9 30 -19 30 -24 0 -5 -34 -46 -76 -92 -185 -206 -295
-385 -348 -570 -29 -105 -41 -129 -64 -129 -24 0 -73 52 -112 120 -31 53 -32
58 -27 144 7 128 8 126 -77 126 -332 1 -1321 201 -1482 300 -44 28 -118 110
-144 160 -83 162 20 323 265 415 80 31 217 67 224 59 13 -12 -34 -37 -141 -73
-64 -22 -141 -52 -172 -67 -133 -63 -69 -75 81 -15 196 77 526 137 898 161
181 12 574 4 735 -15z m2333 -796 c12 -6 34 -23 50 -37 51 -48 27 -149 -53
-227 -44 -43 -52 -40 -17 8 17 25 22 46 22 92 0 51 -5 68 -32 109 -41 62 -29
85 30 55z m-96 -141 c-9 -101 -26 -139 -72 -165 -64 -36 -176 -70 -390 -117
-110 -24 -213 -49 -228 -55 -65 -25 -82 -8 -51 51 9 17 21 57 28 90 l12 59
184 70 c264 100 360 126 464 128 l59 1 -6 -62z m-163 -411 c29 -29 35 -89 37
-342 l2 -179 -42 -14 c-22 -7 -41 -17 -41 -22 0 -5 18 -45 40 -90 21 -45 42
-103 45 -129 14 -108 16 -114 56 -151 l40 -36 -78 -18 c-121 -28 -499 -121
-693 -171 -96 -25 -185 -45 -197 -45 -45 0 -69 61 -42 111 6 11 64 46 132 78
141 67 174 91 206 155 52 105 50 261 -6 489 l-26 107 -41 0 c-92 0 -327 -81
-551 -190 -219 -106 -335 -197 -335 -262 0 -17 -5 -117 -11 -222 -8 -140 -8
-199 0 -220 11 -29 12 -29 74 -23 34 3 140 24 236 46 165 37 175 39 199 23 28
-18 55 -74 46 -96 -3 -9 -25 -20 -48 -26 -143 -36 -756 -245 -935 -320 -41
-16 -76 -28 -79 -25 -3 2 1 18 8 34 8 20 11 60 8 113 -6 110 14 293 57 521 19
102 35 199 35 214 0 30 34 93 50 93 5 0 87 38 182 84 385 187 768 325 1288
463 161 42 294 71 333 72 17 1 37 -8 51 -22z m-645 -370 c6 -8 18 -70 27 -138
30 -233 -6 -339 -136 -397 -121 -54 -255 -103 -357 -132 -117 -33 -323 -73
-332 -65 -2 3 0 94 7 203 l11 197 36 31 c46 41 229 139 380 205 232 101 337
128 364 96z m-1052 -87 c3 -16 -115 -94 -158 -105 -72 -18 -26 50 63 95 65 32
91 35 95 10z m-293 -107 l-35 -58 7 -176 c6 -164 5 -179 -14 -222 -18 -41 -25
-47 -51 -47 -24 0 -41 12 -88 65 -140 159 -148 235 -35 336 46 41 226 159 243
159 4 0 -8 -26 -27 -57z m2258 -128 c36 -54 40 -65 36 -110 -3 -30 -15 -68
-29 -92 l-25 -42 1 97 c0 91 -2 101 -35 167 -19 39 -36 75 -38 80 -12 26 54
-47 90 -100z m-125 -14 c36 -47 50 -101 37 -140 -14 -40 -27 -29 -51 42 -51
149 -47 178 14 98z m-2317 -384 c0 -13 -74 67 -91 98 -5 11 13 -4 40 -33 28
-29 51 -59 51 -65z m2341 53 c-13 -11 -74 -52 -137 -91 -62 -38 -116 -74 -119
-80 -4 -5 11 -9 33 -9 64 0 66 -8 72 -234 6 -238 6 -239 121 -301 189 -103
261 -203 214 -295 -16 -31 -80 -70 -115 -70 -25 0 -25 8 -2 33 27 30 22 112
-12 180 -31 64 -111 142 -156 152 -40 9 -107 -22 -147 -69 -35 -39 -40 -60
-22 -100 9 -20 8 -40 -6 -95 -21 -78 -17 -89 37 -117 25 -13 29 -13 47 5 28
28 38 106 19 158 -12 34 -13 46 -3 59 11 15 13 13 23 -16 7 -18 12 -57 12 -86
0 -50 2 -54 46 -93 31 -27 42 -42 33 -45 -15 -5 -56 -10 -244 -25 -126 -11
-201 -25 -351 -65 -218 -58 -304 -31 -139 44 112 51 191 124 166 154 -13 15
-7 38 21 78 26 38 23 48 -16 48 -19 0 -42 3 -51 6 -48 19 -70 153 -54 337 6
79 7 133 1 139 -11 11 -133 -13 -247 -49 -185 -58 -508 -200 -600 -263 -46
-32 -67 -63 -58 -87 9 -22 35 -14 103 31 41 28 102 56 165 76 55 18 170 61
255 95 190 77 233 90 260 75 19 -10 20 -21 20 -213 0 -199 0 -202 27 -255 30
-59 27 -70 -20 -106 -39 -29 -141 -34 -214 -11 -110 35 -235 11 -478 -90 -222
-92 -302 -150 -176 -127 28 5 51 7 51 3 0 -3 -25 -22 -55 -41 -92 -58 -67 -66
66 -21 46 16 161 58 254 94 259 99 362 119 389 74 21 -35 -41 -62 -321 -138
-190 -51 -385 -113 -466 -148 -25 -11 -62 -23 -82 -27 -34 -6 -35 -5 -35 25 0
19 -5 31 -13 31 -7 0 -50 -18 -96 -40 -45 -22 -93 -40 -106 -40 -20 0 -25 6
-29 43 -3 23 -8 65 -12 92 -3 28 -12 65 -20 84 -20 48 -18 58 25 130 48 82 65
133 91 285 34 194 72 256 182 291 29 10 181 68 338 130 301 119 424 161 555
190 156 35 501 126 574 152 67 24 74 24 83 9 13 -23 48 -3 48 28 0 40 -22 50
-80 36 -28 -7 -53 -10 -56 -7 -11 10 345 105 396 106 l35 0 -24 -19z m-2068
-602 c-69 -74 -95 -176 -87 -348 5 -99 3 -120 -13 -150 -27 -52 -53 -50 -113
6 -94 88 -134 216 -96 308 28 68 118 135 249 187 92 36 97 36 60 -3z m188 19
c-18 -22 -120 -70 -136 -63 -27 10 -16 27 38 51 58 28 117 34 98 12z m-571
-264 c0 -83 20 -128 117 -274 92 -138 89 -133 67 -121 -44 24 -167 149 -194
196 -26 44 -30 61 -30 127 0 76 14 139 31 139 5 0 9 -30 9 -67z m2399 11 c45
-40 77 -110 67 -149 -15 -59 -76 -6 -106 93 -33 105 -25 115 39 56z m151 -324
c0 -16 -176 -128 -222 -142 -47 -14 -72 -3 -76 34 -3 28 -37 48 -78 48 -14 0
-22 4 -19 10 9 14 95 12 125 -3 21 -11 30 -10 58 6 71 42 212 73 212 47z
m-419 -170 c10 -6 19 -19 19 -29 0 -24 19 -31 81 -31 57 0 62 -9 16 -31 -42
-21 -55 -69 -39 -146 6 -31 14 -58 17 -62 15 -14 24 29 19 82 -4 36 -3 57 4
57 16 0 19 -42 14 -168 -3 -80 -1 -126 7 -140 11 -20 9 -22 -14 -22 -17 0 -42
-15 -72 -43 -42 -40 -45 -45 -33 -67 8 -14 14 -71 15 -144 4 -178 32 -216 105
-141 19 19 41 35 49 35 9 0 26 -16 39 -36 13 -19 37 -41 53 -48 l31 -13 -79
-26 c-140 -46 -239 -67 -386 -82 -93 -9 -165 -22 -203 -36 -61 -23 -114 -66
-114 -93 0 -22 -5 -20 -34 9 -19 19 -35 25 -70 25 -25 0 -47 -4 -50 -9 -4 -5
-25 -9 -49 -9 -100 0 -702 -164 -945 -258 -114 -44 -152 -53 -152 -34 0 14 26
38 116 107 96 73 112 90 92 98 -26 10 -66 -13 -134 -76 -77 -72 -88 -69 -98
24 -4 34 -14 96 -22 137 -15 73 -15 77 6 135 37 105 50 159 51 215 0 30 4 80
9 110 24 149 25 145 -4 163 -36 24 -34 59 7 93 58 49 348 176 365 159 13 -13
-67 -72 -128 -94 -61 -22 -78 -41 -37 -41 40 0 100 21 222 77 219 101 439 182
685 252 320 90 583 131 641 101z m-1631 -234 c0 -13 -123 -77 -142 -74 -44 6
-24 32 42 54 62 22 100 29 100 20z m-250 -271 c8 -9 10 -29 6 -52 -3 -21 -9
-56 -12 -79 -4 -23 1 -85 11 -143 26 -155 8 -249 -42 -222 -12 6 -24 6 -34 0
-11 -8 -9 -14 16 -34 16 -13 26 -27 22 -32 -19 -18 -151 56 -234 132 -42 38
-57 60 -64 92 -17 81 18 223 66 263 12 10 21 10 40 2 20 -9 30 -7 62 15 104
72 141 85 163 58z m2211 -236 c22 -45 26 -114 5 -122 -31 -12 -76 65 -76 132
0 20 -9 54 -20 76 -11 22 -20 42 -20 45 1 12 93 -97 111 -131z m140 14 c16
-23 29 -53 29 -66 0 -27 -66 -94 -120 -122 l-33 -17 22 35 c30 49 36 118 17
200 -9 38 -16 74 -16 80 1 14 59 -50 101 -110z"/>
<path d="M2704 7515 c-25 -38 -31 -110 -10 -118 13 -5 21 2 32 29 32 77 15
146 -22 89z"/>
<path d="M3425 6773 c-206 -51 -540 -187 -665 -269 -38 -25 -70 -74 -49 -74 6
0 126 40 267 89 321 111 395 133 435 129 l32 -3 6 -90 c4 -49 10 -102 14 -116
5 -20 -1 -40 -26 -83 -32 -57 -32 -58 -15 -93 15 -31 15 -38 3 -50 -39 -39
-150 -36 -271 6 -76 27 -120 27 -158 -1 -41 -29 -178 -88 -205 -88 -27 0 -30
10 -38 132 -4 54 -10 100 -15 103 -10 6 -20 -71 -20 -159 0 -85 -13 -137 -40
-161 -27 -24 -25 -33 5 -27 31 5 32 -5 4 -34 -44 -47 -12 -43 135 16 262 107
393 131 496 91 30 -11 62 -21 70 -21 31 0 180 174 180 210 0 10 -7 21 -16 24
-28 11 -7 22 125 70 146 53 179 76 112 76 -50 0 -52 10 -6 34 19 11 35 22 35
26 0 4 -43 -3 -96 -16 -64 -15 -102 -20 -113 -14 -13 7 -16 29 -16 133 0 155
-7 168 -94 166 -31 -1 -65 -4 -76 -6z"/>
<path d="M5135 10184 c-11 -1 -114 -13 -228 -25 -259 -28 -249 -44 23 -35 182
5 287 15 425 38 61 10 66 13 40 19 -29 7 -221 9 -260 3z"/>
<path d="M4155 5962 c-44 -28 -105 -99 -105 -124 0 -12 7 -29 16 -39 15 -17
15 -21 -5 -59 -11 -22 -21 -43 -21 -45 0 -3 14 -5 30 -5 34 0 39 -18 15 -60
-19 -33 -19 -86 0 -94 21 -8 19 -45 -5 -81 -32 -48 -26 -69 35 -121 30 -26 55
-51 55 -56 0 -4 -37 -8 -82 -10 -54 -2 -83 -7 -86 -16 -2 -7 9 -15 28 -19 17
-3 34 -12 37 -20 3 -7 -4 -50 -16 -96 -34 -133 -7 -184 70 -133 34 23 47 27
68 20 14 -5 26 -14 25 -19 -1 -18 -107 -63 -277 -120 -261 -86 -477 -135 -477
-107 0 13 32 39 59 47 35 11 110 83 133 129 14 27 18 50 14 74 -5 31 -1 39 36
73 27 24 39 42 35 53 -4 10 5 24 29 42 19 15 33 28 31 30 -2 2 -45 -8 -96 -22
-70 -19 -96 -23 -105 -14 -7 7 -11 80 -11 225 0 201 -1 215 -21 242 -12 15
-29 30 -38 31 -41 8 -359 -115 -595 -230 -161 -78 -280 -188 -205 -188 8 0 76
32 150 70 87 45 148 70 169 70 21 0 51 12 82 34 111 76 215 110 285 93 38 -10
51 -49 38 -112 -9 -44 -8 -60 5 -92 16 -37 15 -40 -11 -106 -29 -72 -26 -104
10 -101 27 3 18 -11 -19 -29 -19 -9 -35 -24 -35 -33 0 -10 -39 -34 -112 -68
-135 -64 -211 -90 -244 -83 -17 3 -34 -5 -63 -33 -22 -21 -91 -66 -155 -99
-125 -67 -165 -95 -153 -107 10 -11 94 17 297 99 217 86 279 95 375 52 l60
-26 -22 -19 c-34 -27 -166 -72 -473 -162 -275 -80 -425 -131 -510 -173 -92
-46 -99 -43 -42 19 48 54 67 96 41 96 -6 0 -34 -18 -62 -40 -70 -56 -80 -52
-90 40 -4 41 -17 116 -28 165 -25 115 -24 133 5 164 14 15 43 60 66 101 24 41
49 82 56 91 12 14 11 18 -5 34 -28 24 -35 90 -21 177 16 97 36 143 74 173 l31
25 -45 -6 c-72 -9 -105 -22 -134 -52 -48 -51 -58 -138 -31 -267 21 -101 20
-168 -5 -190 -39 -36 -97 3 -216 147 -65 78 -102 101 -89 56 15 -48 61 -115
167 -242 32 -39 58 -74 58 -79 0 -14 -155 73 -211 118 -108 89 -145 176 -116
274 8 28 12 51 8 51 -3 -1 -18 -17 -33 -37 -36 -47 -36 -97 -2 -170 27 -56 86
-120 271 -293 106 -99 127 -149 121 -291 -3 -88 -7 -103 -40 -165 -137 -262
-141 -271 -141 -326 -1 -83 27 -126 193 -288 169 -165 194 -204 194 -295 0
-77 -29 -134 -119 -235 -134 -151 -179 -237 -179 -345 0 -89 25 -146 96 -221
66 -70 133 -117 265 -182 56 -28 109 -62 118 -74 64 -91 335 -1256 385 -1658
30 -241 87 -482 148 -629 60 -143 82 -94 232 501 51 200 107 409 126 466 34
103 79 183 114 202 33 17 132 152 166 225 18 39 40 106 49 150 25 123 16 165
-68 320 -32 58 -31 235 2 350 35 125 69 178 192 300 61 61 120 128 131 149 31
60 21 127 -32 229 -68 131 -83 214 -59 329 23 108 76 185 171 249 33 23 58 43
56 45 -3 2 -36 -5 -74 -16 -89 -26 -104 -26 -97 0 4 15 0 20 -16 20 -11 0 -21
4 -21 9 0 10 49 22 183 46 255 47 397 147 385 273 -3 26 -13 65 -23 87 -25 52
-134 166 -211 221 -122 87 -159 148 -158 264 0 92 42 179 131 271 36 38 64 69
62 69 -3 0 -43 -15 -90 -34 -101 -40 -145 -51 -154 -37 -3 6 8 19 26 30 30 19
31 19 8 26 l-23 8 25 12 c13 7 69 25 124 40 196 53 289 105 327 183 19 41 20
50 9 90 -23 88 -95 162 -268 276 -40 26 -80 57 -88 69 -12 17 -15 53 -15 167
0 157 13 262 36 298 14 21 14 22 -23 22 -21 0 -51 -8 -68 -18z m88 -558 c40
-26 50 -50 17 -41 -29 7 -25 -11 16 -92 39 -76 53 -158 35 -203 -26 -68 -60
-4 -47 90 8 65 -5 105 -59 164 -90 100 -67 149 38 82z m238 -239 c17 -30 29
-65 29 -86 0 -35 -2 -37 -77 -72 -92 -42 -123 -52 -123 -39 0 5 11 14 24 20
14 6 33 23 42 37 24 37 22 144 -5 222 -11 34 -21 66 -21 70 1 15 102 -102 131
-152z m-961 -244 c0 -15 -51 -51 -71 -51 -34 0 -23 38 14 49 43 12 57 13 57 2z
m460 -226 l10 -26 37 26 c65 44 52 6 -20 -60 -64 -58 -83 -83 -53 -72 30 12
35 -17 14 -73 -11 -30 -23 -70 -25 -87 -5 -28 -2 -33 16 -33 13 0 21 -6 21
-16 0 -49 -179 -224 -291 -284 -90 -48 -153 -34 -102 22 14 15 14 24 4 57 -7
26 -9 81 -5 170 8 155 18 148 -133 100 -247 -78 -638 -257 -670 -306 -15 -22
-15 -26 0 -40 15 -15 35 -8 249 87 277 122 391 167 447 176 36 6 41 4 41 -13
0 -10 -6 -28 -14 -38 -13 -18 -14 -18 -25 4 -12 22 -13 22 -32 5 -20 -18 -25
-49 -9 -59 12 -8 13 -55 0 -75 -6 -9 -4 -23 6 -40 14 -23 14 -30 -5 -80 -12
-30 -21 -59 -21 -64 0 -8 27 -4 67 10 12 5 7 -4 -15 -28 -35 -37 -33 -48 7
-48 34 0 71 -10 71 -20 0 -4 -12 -13 -27 -21 -27 -13 -26 -14 42 -19 l70 -5
-45 -27 c-67 -39 -98 -42 -161 -17 -63 25 -118 22 -193 -11 -28 -11 -82 -25
-121 -30 -39 -5 -93 -18 -120 -30 -27 -11 -54 -19 -60 -16 -7 2 -17 48 -24
107 -11 101 -36 176 -56 172 -17 -4 -17 -52 1 -106 23 -70 24 -156 1 -191 -10
-15 -36 -39 -57 -54 -44 -31 -60 -59 -60 -107 0 -26 4 -35 16 -35 9 0 116 40
238 89 235 95 329 126 351 117 8 -3 21 -16 31 -30 15 -24 15 -28 1 -50 -23
-34 -105 -70 -253 -111 -141 -38 -364 -112 -516 -171 -54 -21 -101 -34 -105
-31 -4 4 11 25 32 47 29 30 36 43 28 51 -9 9 -21 6 -49 -10 -48 -28 -55 -21
-83 83 -12 43 -37 113 -56 154 -19 41 -35 81 -35 88 0 7 38 45 84 83 118 99
131 123 128 234 -2 80 0 93 25 139 37 67 81 100 138 102 52 2 89 26 39 26 -16
0 -40 7 -53 16 -22 16 -25 16 -40 -3 -18 -24 -53 -43 -76 -43 -14 0 -14 3 1
31 27 54 141 94 609 214 99 26 286 76 415 112 354 99 354 99 370 58z m-1415
-340 c0 -24 -5 -31 -23 -33 -27 -4 -38 19 -22 48 17 31 45 22 45 -15z m-99
-10 c-30 -80 -37 -130 -34 -273 3 -140 1 -152 -18 -179 -27 -36 -76 -41 -121
-14 -56 35 -143 173 -143 226 0 38 58 94 185 180 109 74 143 89 131 60z m-352
-196 c-20 -39 -20 -98 -1 -136 8 -15 42 -63 75 -106 61 -78 83 -130 64 -149
-27 -27 -128 54 -169 137 -35 67 -43 176 -18 226 21 42 58 84 63 70 2 -5 -4
-24 -14 -42z m2153 2 c82 -64 193 -205 193 -243 0 -42 -91 -128 -135 -128 -14
0 -16 6 -10 38 18 102 17 139 -5 191 -13 28 -37 63 -54 78 -35 29 -66 72 -66
91 0 22 27 13 77 -27z m-43 -130 c31 -99 28 -172 -7 -179 -15 -3 -17 6 -17 65
0 38 -7 95 -15 126 -19 73 -19 74 5 52 10 -9 26 -38 34 -64z m-247 -13 c-2
-29 -11 -86 -18 -126 -15 -80 -8 -105 29 -110 12 -2 38 8 59 23 l38 26 22 -27
c17 -22 32 -28 84 -33 56 -5 61 -7 45 -21 -11 -9 -51 -16 -105 -20 -52 -3 -99
-12 -118 -23 -34 -18 -171 -44 -298 -55 -114 -11 -196 -60 -164 -98 9 -11 6
-16 -12 -23 -33 -12 -109 -24 -109 -17 0 3 18 15 40 26 22 11 40 23 40 27 0 4
-9 17 -21 29 -27 29 -29 86 -4 114 14 16 29 20 59 18 37 -3 41 -5 41 -30 -1
-16 2 -28 6 -28 12 0 59 60 59 75 0 25 31 47 57 40 22 -5 23 -4 12 16 -9 18
-7 29 11 61 14 25 20 49 17 66 -3 14 -2 32 1 40 7 19 179 102 210 102 24 0 24
-2 19 -52z m-119 -535 c2 -7 -24 -42 -57 -76 -34 -35 -61 -66 -61 -68 0 -2 20
-3 45 -1 72 6 72 -9 1 -248 -56 -188 -89 -248 -200 -363 -52 -54 -96 -95 -99
-90 -2 4 4 67 14 138 27 191 34 324 19 369 -9 29 -9 40 1 52 39 47 -64 13
-272 -91 -261 -131 -429 -248 -429 -301 0 -30 7 -30 32 1 11 14 29 25 42 25
12 0 44 14 70 30 l48 31 -7 -43 c-11 -62 -9 -92 9 -127 27 -52 14 -136 -27
-170 -15 -11 -19 -9 -34 18 -10 17 -22 29 -28 28 -21 -7 -15 -50 15 -108 36
-69 39 -131 7 -137 -16 -3 -18 1 -12 26 7 32 -16 92 -35 92 -15 0 -12 -80 5
-138 9 -29 22 -52 29 -52 20 0 37 -24 46 -65 9 -42 5 -43 -31 -9 l-27 26 -7
-45 c-10 -65 -4 -81 30 -87 25 -4 31 -10 33 -38 3 -34 -6 -40 -26 -20 -10 10
-15 10 -22 -2 -22 -35 -6 -90 37 -123 36 -28 44 -51 32 -85 -8 -24 -7 -37 6
-61 20 -40 11 -55 -27 -47 l-30 6 4 -64 c3 -48 10 -73 30 -102 15 -22 34 -66
43 -99 26 -101 16 -202 -15 -144 -20 36 -36 7 -22 -39 7 -22 12 -69 12 -106 0
-71 9 -83 30 -38 20 42 23 9 5 -53 -21 -73 -45 -73 -61 0 -7 28 -24 104 -39
170 -15 66 -72 300 -126 520 -54 220 -112 462 -129 538 l-30 137 30 53 c36 65
37 76 5 141 -31 63 -65 195 -65 251 0 52 25 92 125 196 40 42 81 89 90 103 12
19 26 26 48 26 16 0 91 29 166 64 117 56 171 74 386 130 138 35 270 69 295 74
58 13 122 10 128 -5z m-958 -171 c0 -21 -217 -205 -280 -237 -42 -22 -50 -19
-50 20 0 27 -4 35 -18 35 -40 0 -57 -36 -60 -134 -3 -77 1 -110 27 -211 32
-124 40 -222 19 -243 -36 -36 -115 13 -231 141 -124 138 -140 153 -144 140
-15 -43 107 -180 242 -272 130 -88 164 -127 80 -91 -79 34 -200 118 -259 180
-74 78 -101 135 -100 220 1 87 35 154 126 242 121 118 137 116 23 -3 -108
-111 -143 -163 -131 -194 9 -24 25 -18 32 13 3 15 11 38 17 51 14 29 115 114
224 188 74 51 89 57 140 59 43 2 91 16 183 53 121 49 160 59 160 43z m585
-216 c10 -29 -11 -107 -30 -110 -12 -1 -19 67 -10 112 7 39 26 38 40 -2z
m-154 -99 c8 -29 -4 -240 -21 -372 -17 -124 -37 -183 -98 -275 -121 -187 -157
-309 -83 -285 11 3 50 28 87 56 37 27 69 48 71 46 2 -3 -2 -17 -8 -33 -6 -16
-14 -90 -17 -165 -4 -113 -2 -143 12 -170 21 -43 21 -45 -16 -92 -37 -46 -42
-95 -13 -127 20 -22 64 -26 97 -9 28 15 20 3 -74 -109 -43 -51 -91 -111 -107
-133 -16 -22 -31 -36 -34 -32 -2 4 -8 161 -12 348 l-7 339 -30 58 c-27 52 -29
61 -19 90 25 71 35 453 20 741 -2 39 31 71 125 118 91 45 116 47 127 6z m635
-49 c15 -30 28 -76 31 -109 5 -50 2 -64 -20 -101 -23 -38 -217 -241 -217 -227
0 3 34 71 75 150 77 150 110 247 103 305 -2 19 -3 34 -1 34 1 0 14 -23 29 -52z
m-192 -133 c8 -21 -48 -81 -118 -127 -33 -21 -63 -38 -68 -38 -4 0 26 32 67
71 41 39 77 79 80 90 8 23 31 25 39 4z m-344 -215 c6 -12 8 -31 4 -43 -7 -25
-43 -67 -57 -67 -11 0 -2 68 15 105 14 30 24 32 38 5z m120 -12 c0 -16 -128
-143 -136 -135 -8 7 28 56 80 111 34 36 56 46 56 24z m90 -230 c0 -6 -6 -19
-14 -27 -23 -27 -36 -80 -46 -195 -6 -61 -15 -115 -20 -120 -6 -6 -10 -28 -10
-51 0 -26 -3 -35 -9 -26 -14 21 -27 6 -40 -45 -7 -26 -21 -64 -32 -85 -19 -39
-79 -113 -85 -106 -2 2 1 30 6 63 5 32 18 147 30 255 26 258 46 319 110 342
29 11 110 7 110 -5z m85 -658 c-1 -114 -22 -182 -91 -283 -40 -58 -123 -142
-132 -133 -1 2 14 39 34 82 83 181 126 318 140 443 l7 64 21 -39 c17 -32 21
-56 21 -134z m-295 -200 c-12 -41 -28 -60 -51 -60 -27 0 -24 21 13 80 28 45
33 49 39 31 5 -11 4 -34 -1 -51z m51 -40 c-7 -24 -40 -65 -98 -122 -103 -101
-274 -250 -280 -244 -7 7 16 45 88 146 116 163 157 197 144 118 l-7 -43 27 25
c39 35 103 135 118 184 l12 41 3 -35 c2 -19 -1 -51 -7 -70z m-397 -550 c36
-179 66 -494 65 -675 -1 -140 -10 -206 -22 -170 -9 27 -32 242 -57 525 -31
363 -25 509 14 320z"/>
</g>
</svg>
